g airship tri rotor
v 8.1501075E-06 0.12557583 0.48124176
v 8.1501075E-06 -0.12557857 0.48124167
v 0.240628 -0.12557857 0.4167678
v 0.240628 0.12557583 0.4167679
v 0.240628 0.12557583 0.4167679
v 0.240628 -0.12557857 0.4167678
v 0.41677392 -0.12557855 0.24062188
v 0.41677392 0.1255758 0.24062188
v 0.48124787 -0.12557855 2.0164914E-06
v 0.48124787 0.12557581 2.0585628E-06
v 0.48124787 0.12557581 2.0585628E-06
v 0.48124787 -0.12557855 2.0164914E-06
v 0.41677392 -0.12557855 -0.24061783
v 0.41677392 0.12557583 -0.24061778
v 0.240628 -0.12557855 -0.41676375
v 0.240628 0.12557581 -0.41676375
v 8.1501075E-06 -0.12557855 -0.48123765
v 8.1501075E-06 0.12557581 -0.48123765
v -0.2406117 -0.12557855 -0.41676375
v -0.2406117 0.12557581 -0.41676375
v -0.41675764 -0.12557855 -0.24061783
v -0.41675764 0.12557583 -0.24061778
v -0.48123154 -0.12557855 2.0164914E-06
v -0.48123154 0.12557581 2.0585628E-06
v -0.48123154 0.12557581 2.0585628E-06
v -0.48123154 -0.12557855 2.0164914E-06
v -0.41675764 -0.12557855 0.24062188
v -0.41675764 0.1255758 0.24062188
v -0.2406117 -0.12557857 0.4167678
v -0.2406117 0.12557583 0.4167679
v 8.386074E-06 0.1255758 0.6494602
v 0.32473728 0.1255758 0.5624494
v 0.3247373 -0.12557858 0.56244934
v 8.386074E-06 -0.12557861 0.64946014
v -0.2406117 0.12557583 0.4167679
v -0.2406117 -0.12557857 0.4167678
v 8.1501075E-06 -0.12557857 0.48124167
v 8.1501075E-06 0.12557583 0.48124176
v 0.32473728 0.1255758 0.5624494
v 0.56245536 0.1255758 0.3247313
v 0.56245536 -0.12557857 0.3247313
v 0.3247373 -0.12557858 0.56244934
v 1.7936919 0.04772206 0.6546405
v 2.2652311 0.0106255505 0.4636175
v 2.2652311 -0.010633608 0.4636175
v 1.793692 -0.047723625 0.6546405
v 0.56245536 0.1255758 0.3247313
v 0.56245536 -0.12557857 0.3247313
v 0.56245536 0.12557583 -0.32472652
v 0.32473728 0.12557581 -0.5624446
v 0.32473728 -0.12557855 -0.5624446
v 0.56245536 -0.12557855 -0.32472652
v 0.32473728 0.12557581 -0.5624446
v 8.386074E-06 0.12557583 -0.6494554
v 8.386074E-06 -0.12557854 -0.6494554
v 0.32473728 -0.12557855 -0.5624446
v -0.33679855 -0.04609572 -1.9064367
v -0.78471464 -0.009214895 -2.1625924
v -1.2061425 -0.017906692 -2.0891123
v -0.97538185 -0.046095725 -1.6894231
v -1.4804926 -0.009214894 -1.760885
v -1.4826125 -0.04609573 -1.2449006
v 8.386074E-06 -0.12557854 -0.6494554
v -0.97538185 -0.046095725 -1.6894231
v -0.32472053 -0.12557855 -0.5624446
v 8.1501075E-06 -0.12557855 -0.48123765
v 0.240628 -0.12557855 -0.41676375
v 0.32473728 -0.12557855 -0.5624446
v 0.41677392 -0.12557855 -0.24061783
v 0.56245536 -0.12557855 -0.32472652
v 0.48124787 -0.12557855 2.0164914E-06
v -0.2406117 -0.12557855 -0.41676375
v 0.6494662 -0.12557855 2.359115E-06
v 0.41677392 -0.12557855 0.24062188
v 1.793692 -0.047723617 -0.6546356
v -0.5624386 -0.12557855 -0.32472652
v -0.41675764 -0.12557855 -0.24061783
v -1.4826125 -0.04609573 -1.2449006
v -0.97538185 -0.046095725 -1.6894231
v -0.64944935 -0.12557855 2.359115E-06
v -0.48123154 -0.12557855 2.0164914E-06
v -0.5624386 -0.12557857 0.32473126
v -0.41675764 -0.12557855 0.24062188
v 0.56245536 -0.12557857 0.3247313
v 0.240628 -0.12557857 0.4167678
v 1.9241363 -0.047723617 2.3465961E-06
v 2.2652311 -0.010633604 -0.4636128
v 2.4123101 -0.017906694 2.341802E-06
v 0.3247373 -0.12557858 0.56244934
v 8.1501075E-06 -0.12557857 0.48124167
v 8.386074E-06 -0.12557861 0.64946014
v 1.793692 -0.047723625 0.6546405
v 2.2652311 -0.010633608 0.4636175
v -0.32472053 -0.12557858 0.56244934
v -0.2406117 -0.12557857 0.4167678
v -0.99506766 -0.043691013 1.7235247
v -1.5104525 -0.043690994 1.272745
v 8.386074E-06 -0.12557861 0.64946014
v 8.1501075E-06 -0.12557857 0.48124167
v -0.34698862 -0.04369102 1.9444712
v -0.99506766 -0.043691013 1.7235247
v -0.99506766 -0.043691013 1.7235247
v -0.81000537 -0.008540916 2.1479957
v -1.2061425 -0.01790674 2.089117
v -1.5104525 -0.043690994 1.272745
v -1.4552019 -0.008540907 1.7754912
v -0.5624386 0.12557583 -0.3247265
v -0.64944935 -0.12557855 2.359115E-06
v -0.5624386 -0.12557855 -0.32472652
v -0.64944935 0.12557581 2.3879697E-06
v -0.5624386 -0.12557857 0.32473126
v -0.5624386 0.1255758 0.32473126
v 1.793692 -0.047723617 -0.6546356
v 2.2652311 -0.010633604 -0.4636128
v 2.2652311 0.010625557 -0.4636128
v 1.793692 0.04772208 -0.6546356
v 0.56245536 -0.12557855 -0.32472652
v 0.56245536 0.12557583 -0.32472652
v -0.34698862 0.043689437 1.9444712
v -0.81000537 0.008540345 2.1479957
v -1.2061424 0.017905558 2.0891173
v -0.9950675 0.043689445 1.7235248
v -1.4552019 0.008540356 1.7754912
v 8.386074E-06 0.1255758 0.6494602
v -1.5104525 0.043689456 1.272745
v -0.32472053 0.1255758 0.5624494
v 8.1501075E-06 0.12557583 0.48124176
v -0.2406117 0.12557583 0.4167679
v -0.5624386 0.1255758 0.32473126
v -0.41675764 0.1255758 0.24062188
v -0.64944935 0.12557581 2.3879697E-06
v -0.48123154 0.12557581 2.0585628E-06
v -0.5624386 0.12557583 -0.3247265
v -0.41675764 0.12557583 -0.24061778
v -0.32472053 0.12557581 -0.5624446
v -0.2406117 0.12557581 -0.41676375
v -0.97538185 0.0460942 -1.6894231
v -1.4826126 0.046094213 -1.2449006
v 8.386074E-06 0.12557583 -0.6494554
v 8.1501075E-06 0.12557581 -0.48123765
v -0.33679855 0.04609421 -1.9064367
v 0.32473728 0.12557581 -0.5624446
v -0.78471464 0.0092054885 -2.1625924
v 0.240628 0.12557581 -0.41676375
v -1.2061425 0.017905608 -2.0891123
v -1.4804926 0.009205489 -1.760885
v 0.56245536 0.12557583 -0.32472652
v 0.41677392 0.12557583 -0.24061778
v 0.6494662 0.12557581 2.3879697E-06
v 0.48124787 0.12557581 2.0585628E-06
v 1.9241362 0.04772206 2.3879697E-06
v 1.793692 0.04772208 -0.6546356
v 0.56245536 0.1255758 0.3247313
v 0.41677392 0.1255758 0.24062188
v 1.7936919 0.04772206 0.6546405
v 0.32473728 0.1255758 0.5624494
v 2.2652311 0.0106255505 0.4636175
v 0.240628 0.12557583 0.4167679
v 8.386074E-06 0.1255758 0.6494602
v 8.1501075E-06 0.12557583 0.48124176
v 2.4123101 0.017905595 2.3879697E-06
v 2.2652311 0.010625557 -0.4636128
v 2.2652311 0.0106255505 0.4636175
v 2.4123101 -0.017906694 2.341802E-06
v 2.2652311 -0.010633608 0.4636175
v 2.4123101 0.017905595 2.3879697E-06
v 2.2652311 -0.010633604 -0.4636128
v 2.2652311 0.010625557 -0.4636128
v -0.78471464 0.0092054885 -2.1625924
v -1.2061425 -0.017906692 -2.0891123
v -0.78471464 -0.009214895 -2.1625924
v -1.2061425 0.017905608 -2.0891123
v -1.4804926 -0.009214894 -1.760885
v -1.4804926 0.009205489 -1.760885
v -1.4552019 0.008540356 1.7754912
v -1.2061425 -0.01790674 2.089117
v -1.4552019 -0.008540907 1.7754912
v -1.2061424 0.017905558 2.0891173
v -0.81000537 -0.008540916 2.1479957
v -0.81000537 0.008540345 2.1479957
v -1.5104525 0.043689456 1.272745
v -1.4552019 0.008540356 1.7754912
v -1.4552019 -0.008540907 1.7754912
v -1.5104525 -0.043690994 1.272745
v -0.5624386 0.1255758 0.32473126
v -0.5624386 -0.12557857 0.32473126
v -1.4826125 -0.04609573 -1.2449006
v -1.4804926 -0.009214894 -1.760885
v -1.4804926 0.009205489 -1.760885
v -1.4826126 0.046094213 -1.2449006
v -0.5624386 -0.12557855 -0.32472652
v -0.5624386 0.12557583 -0.3247265
v -0.34698862 -0.04369102 1.9444712
v -0.81000537 -0.008540916 2.1479957
v -0.81000537 0.008540345 2.1479957
v -0.34698862 0.043689437 1.9444712
v 8.386074E-06 -0.12557861 0.64946014
v 8.386074E-06 0.1255758 0.6494602
v -0.33679855 0.04609421 -1.9064367
v -0.78471464 0.0092054885 -2.1625924
v -0.78471464 -0.009214895 -2.1625924
v -0.33679855 -0.04609572 -1.9064367
v 8.386074E-06 0.12557583 -0.6494554
v 8.386074E-06 -0.12557854 -0.6494554
vt 1 0.5
vt 1 1
vt 0.9166667 1
vt 0.9166667 0.5
vt 0.9166667 0.5
vt 0.9166667 1
vt 0.8333334 1
vt 0.8333334 0.5
vt 0.75000006 1
vt 0.75000006 0.5
vt 0.75000006 0.5
vt 0.75000006 1
vt 0.66666675 1
vt 0.66666675 0.5
vt 0.58333343 1
vt 0.58333343 0.5
vt 0.5000001 1
vt 0.5000001 0.5
vt 0.41666678 1
vt 0.41666678 0.5
vt 0.33333343 1
vt 0.33333343 0.5
vt 0.2500001 1
vt 0.2500001 0.5
vt 0.2500001 0.5
vt 0.2500001 1
vt 0.16666675 1
vt 0.16666675 0.5
vt 0.08333341 1
vt 0.08333341 0.5
vt 1 0.5
vt 0.9166667 0.5
vt 0.9166667 1
vt 1 1
vt 0.08333341 0.5
vt 0.08333341 1
vt 7.4505806E-08 1
vt 7.4505806E-08 0.5
vt 0.9166667 0.5
vt 0.8333334 0.5
vt 0.8333334 1
vt 0.9166667 1
vt 0.8333334 0.5
vt 0.8333334 0.5
vt 0.8333334 1
vt 0.8333334 1
vt 0.8333334 0.5
vt 0.8333334 1
vt 0.66666675 0.5
vt 0.58333343 0.5
vt 0.58333343 1
vt 0.66666675 1
vt 0.58333343 0.5
vt 0.5000001 0.5
vt 0.5000001 1
vt 0.58333343 1
vt 0.5000001 1
vt 0.5000001 1
vt 0.41666678 1
vt 0.41666684 1.0000001
vt 0.33333343 1
vt 0.33333343 1
vt 0.5000001 1
vt 0.41666684 1.0000001
vt 0.41666678 1
vt 0.5000001 1
vt 0.58333343 1
vt 0.58333343 1
vt 0.66666675 1
vt 0.66666675 1
vt 0.75000006 1
vt 0.41666678 1
vt 0.75000006 1
vt 0.8333334 1
vt 0.66666675 1
vt 0.33333343 1
vt 0.33333343 1
vt 0.33333343 1
vt 0.41666684 1.0000001
vt 0.2500001 1
vt 0.2500001 1
vt 0.16666675 1
vt 0.16666675 1
vt 0.8333334 1
vt 0.9166667 1
vt 0.75000006 1
vt 0.66666675 1
vt 0.75000006 1
vt 0.9166667 1
vt 1 1
vt 1 1
vt 0.8333334 1
vt 0.8333334 1
vt 0.08333341 1
vt 0.08333341 1
vt 0.0833334 0.99999994
vt 0.16666675 1
vt 7.4505806E-08 1
vt 7.4505806E-08 1
vt 7.4505806E-08 1
vt 0.0833334 0.99999994
vt 0.0833334 0.99999994
vt 7.4505806E-08 1
vt 0.08333341 1
vt 0.16666675 1
vt 0.16666675 1
vt 0.33333343 0.5
vt 0.2500001 1
vt 0.33333343 1
vt 0.2500001 0.5
vt 0.16666675 1
vt 0.16666675 0.5
vt 0.66666675 1
vt 0.66666675 1
vt 0.66666675 0.5
vt 0.66666675 0.5
vt 0.66666675 1
vt 0.66666675 0.5
vt 7.4505806E-08 0.5
vt 7.4505806E-08 0.5
vt 0.08333341 0.5
vt 0.08333342 0.5
vt 0.16666675 0.5
vt 7.4505806E-08 0.5
vt 0.16666675 0.5
vt 0.08333341 0.5
vt 7.4505806E-08 0.5
vt 0.08333341 0.5
vt 0.16666675 0.5
vt 0.16666675 0.5
vt 0.2500001 0.5
vt 0.2500001 0.5
vt 0.33333343 0.5
vt 0.33333343 0.5
vt 0.41666678 0.5
vt 0.41666678 0.5
vt 0.41666675 0.5
vt 0.33333343 0.5
vt 0.5000001 0.5
vt 0.5000001 0.5
vt 0.5000001 0.5
vt 0.58333343 0.5
vt 0.5000001 0.5
vt 0.58333343 0.5
vt 0.41666678 0.5
vt 0.33333343 0.5
vt 0.66666675 0.5
vt 0.66666675 0.5
vt 0.75000006 0.5
vt 0.75000006 0.5
vt 0.75000006 0.5
vt 0.66666675 0.5
vt 0.8333334 0.5
vt 0.8333334 0.5
vt 0.8333334 0.5
vt 0.9166667 0.5
vt 0.8333334 0.5
vt 0.9166667 0.5
vt 1 0.5
vt 1 0.5
vt 0.75000006 0.5
vt 0.66666675 0.5
vt 0.8333334 0.5
vt 0.75000006 1
vt 0.8333334 1
vt 0.75000006 0.5
vt 0.66666675 1
vt 0.66666675 0.5
vt 0.5000001 0.5
vt 0.41666678 1
vt 0.5000001 1
vt 0.41666678 0.5
vt 0.33333343 1
vt 0.33333343 0.5
vt 0.16666675 0.5
vt 0.08333341 1
vt 0.16666675 1
vt 0.08333341 0.5
vt 7.4505806E-08 1
vt 7.4505806E-08 0.5
vt 0.16666675 0.5
vt 0.16666675 0.5
vt 0.16666675 1
vt 0.16666675 1
vt 0.16666675 0.5
vt 0.16666675 1
vt 0.33333343 1
vt 0.33333343 1
vt 0.33333343 0.5
vt 0.33333343 0.5
vt 0.33333343 1
vt 0.33333343 0.5
vt 1 1
vt 1 1
vt 1 0.5
vt 1 0.5
vt 1 1
vt 1 0.5
vt 0.5000001 0.5
vt 0.5000001 0.5
vt 0.5000001 1
vt 0.5000001 1
vt 0.5000001 0.5
vt 0.5000001 1
vn -0.25881895 0 -0.9659258
vn -0.25881895 0 -0.9659258
vn -0.25881895 0 -0.9659258
vn -0.25881895 0 -0.9659258
vn -0.7071069 0 -0.70710665
vn -0.7071069 0 -0.70710665
vn -0.8660253 0 -0.50000006
vn -0.86602545 0 -0.5
vn -0.9659257 0 -0.25881925
vn -0.9659257 0 -0.25881925
vn -0.9659257 0 0.25881925
vn -0.9659257 0 0.25881925
vn -0.8660253 0 0.50000006
vn -0.86602545 0 0.5
vn -0.50000006 0 0.8660253
vn -0.50000006 0 0.8660253
vn -0 0 1
vn -0 0 1
vn 0.50000006 0 0.8660253
vn 0.50000006 0 0.8660253
vn 0.86602545 0 0.5
vn 0.86602545 0 0.49999997
vn 0.9659258 0 0.258819
vn 0.9659258 0 0.258819
vn 0.9659258 0 -0.258819
vn 0.9659258 0 -0.258819
vn 0.86602545 0 -0.5
vn 0.86602545 0 -0.5
vn 0.70710677 0 -0.7071067
vn 0.70710677 0 -0.7071067
vn 0.25881928 0 0.9659257
vn 0.25881928 0 0.9659257
vn 0.25881928 0 0.9659257
vn 0.25881928 0 0.9659257
vn 0.25881895 0 -0.9659258
vn 0.25881895 0 -0.9659258
vn 0.25881895 0 -0.9659258
vn 0.25881895 0 -0.9659258
vn 0.7071067 0 0.7071068
vn 0.7071067 0 0.7071068
vn 0.7071067 0 0.7071068
vn 0.7071067 0 0.7071068
vn 0.04721776 0 0.9988846
vn 0.37546623 0 0.9268361
vn 0.37546623 0 0.9268361
vn 0.047219623 0 0.9988845
vn -0.25881928 0 0.9659257
vn -0.25881928 0 0.9659257
vn 0.70710677 0 -0.7071067
vn 0.70710677 0 -0.7071067
vn 0.70710677 0 -0.7071067
vn 0.70710677 0 -0.7071067
vn 0.25881898 0 -0.9659258
vn 0.25881898 0 -0.9659258
vn 0.25881898 0 -0.9659258
vn 0.25881898 0 -0.9659258
vn -0.017194035 -0.9975514 -0.06779037
vn -0.014741081 -0.99639016 -0.08360291
vn -0.0399032 -0.9968104 -0.06911437
vn -0.035627708 -0.99745816 -0.061709024
vn -0.06503167 -0.99639016 -0.054567564
vn -0.050111137 -0.9975514 -0.048785638
vn -0.0069692964 -0.99973184 -0.022082468
vn -0.035627708 -0.99745816 -0.061709024
vn -0.017583353 -0.9993814 -0.030455276
vn -0 -1 0
vn -0 -1 0
vn -0 -1 0
vn -0 -1 0
vn 0.022606814 -0.99973184 -0.005019531
vn -0 -1 0
vn -0 -1 0
vn 0.035163872 -0.99938154 0
vn -0 -1 0
vn 0.06590051 -0.9976642 -0.017978402
vn -0.015639344 -0.99973184 -0.017076835
vn -0 -1 0
vn -0.050111137 -0.9975514 -0.048785638
vn -0.035627708 -0.99745816 -0.061709024
vn -0 -1 0
vn -0 -1 0
vn -0.015623204 -0.99973184 0.017089155
vn -0 -1 0
vn 0.022606798 -0.99973184 0.005019464
vn -0 -1 0
vn 0.06826771 -0.9976671 0
vn 0.07446931 -0.99691075 -0.024965355
vn 0.07449256 -0.9972216 0
vn -0 -1 0
vn -0 -1 0
vn -0.006988099 -0.99973184 0.022074576
vn 0.06590052 -0.9976642 0.017978389
vn 0.07446936 -0.99691075 0.024965355
vn -0.017585438 -0.9993813 0.030458767
vn -0 -1 0
vn -0.036959372 -0.99726427 0.06401549
vn -0.050910413 -0.99747664 0.049481064
vn -0.006988099 -0.99973184 0.022074576
vn -0 -1 0
vn -0.017396683 -0.99747664 0.068830214
vn -0.036959372 -0.99726427 0.06401549
vn -0.036959372 -0.99726427 0.06401549
vn -0.0149096595 -0.99592257 0.0889719
vn -0.04227445 -0.9964193 0.073221505
vn -0.050910413 -0.99747664 0.049481064
vn -0.06959708 -0.99592257 0.05739811
vn -0.9659258 0 -0.25881872
vn -1 0 0
vn -0.9659258 0 -0.25881872
vn -1 0 0
vn -0.9659258 0 0.25881872
vn -0.9659258 0 0.25881872
vn 0.047219217 0 -0.9988846
vn 0.3754658 0 -0.9268363
vn 0.3754658 0 -0.9268363
vn 0.04721788 0 -0.9988846
vn -0.25881916 0 -0.9659257
vn -0.25881916 0 -0.9659257
vn -0.017396454 0.99747676 0.06882887
vn -0.014909589 0.9959227 0.08896955
vn -0.042273376 0.99641955 0.07321974
vn -0.036958553 0.9972644 0.06401417
vn -0.069594994 0.9959228 0.057396907
vn -0.006987984 0.99973184 0.022074506
vn -0.05090928 0.99747676 0.049480226
vn -0.017585186 0.9993813 0.030458454
vn -0 1 0
vn -0 1 0
vn -0.015623001 0.99973184 0.017088987
vn -0 1 0
vn -0 1 0
vn -0 1 0
vn -0.01563909 0.99973184 -0.017076585
vn -0 1 0
vn -0.017583089 0.9993814 -0.030454827
vn -0 1 0
vn -0.035630636 0.9974577 -0.061714113
vn -0.050116092 0.99755114 -0.048786763
vn -0.0069692 0.99973184 -0.022082124
vn -0 1 0
vn -0.01719252 0.99755114 -0.06779521
vn -0 1 0
vn -0.014737334 0.9963889 -0.08361793
vn -0 1 0
vn -0.039908767 0.9968094 -0.06912406
vn -0.06504652 0.9963889 -0.054571886
vn 0.02260647 0.99973184 -0.0050194343
vn -0 1 0
vn 0.035163354 0.99938154 0
vn -0 1 0
vn 0.068271734 0.9976667 0
vn 0.065903105 0.997664 -0.017981464
vn 0.022606509 0.99973184 0.005019505
vn -0 1 0
vn 0.06590309 0.997664 0.017981527
vn -0 1 0
vn 0.07447717 0.99691004 0.024973502
vn -0 1 0
vn -0.006987984 0.99973184 0.022074506
vn -0 1 0
vn 0.07450043 0.997221 0
vn 0.074477196 0.9969099 -0.024973478
vn 0.95318377 0 0.30239156
vn 1 0 0
vn 0.95318377 0 0.30239156
vn 1 0 0
vn 0.95318377 0 -0.30239156
vn 0.95318377 0 -0.30239156
vn -0.17176816 0 -0.98513746
vn -0.49999958 0 -0.8660257
vn -0.17176816 0 -0.98513746
vn -0.49999958 0 -0.8660257
vn -0.76726925 0 -0.64132506
vn -0.76726925 0 -0.64132506
vn -0.78310627 0 0.6218878
vn -0.50000125 0 0.8660246
vn -0.78310627 0 0.6218878
vn -0.49999875 0 0.86602604
vn -0.1470175 0 0.9891339
vn -0.1470175 0 0.9891339
vn -0.93662614 0 -0.35033056
vn -0.99401546 0 0.10923998
vn -0.99401546 0 0.10923998
vn -0.936626 0 -0.35033098
vn -0.7071067 0 -0.7071068
vn -0.7071067 0 -0.7071068
vn -0.91782016 0 0.39699638
vn -0.99999154 0 -0.0041085356
vn -0.99999154 0 -0.0041085356
vn -0.91781944 0 0.39699805
vn -0.70710677 0 0.7071067
vn -0.70710677 0 0.7071067
vn 0.7717082 0 0.6359767
vn 0.4024022 0 0.915463
vn 0.4024022 0 0.915463
vn 0.771708 0 0.6359771
vn 0.9659258 0 0.25881892
vn 0.9659258 0 0.25881892
vn 0.8027198 0 -0.59635633
vn 0.49643633 0 -0.8680731
vn 0.49643633 0 -0.8680731
vn 0.80271864 0 -0.59635794
vn 0.9659258 0 -0.2588189
vn 0.9659258 0 -0.2588189
g airship tri rotor_0
f 3/3/3 2/2/2 1/1/1
f 4/4/4 3/3/3 1/1/1
f 7/7/7 6/6/6 5/5/5
f 8/8/8 7/7/7 5/5/5
f 9/9/9 7/7/7 8/8/8
f 10/10/10 9/9/9 8/8/8
f 13/13/13 12/12/12 11/11/11
f 14/14/14 13/13/13 11/11/11
f 15/15/15 13/13/13 14/14/14
f 16/16/16 15/15/15 14/14/14
f 17/17/17 15/15/15 16/16/16
f 18/18/18 17/17/17 16/16/16
f 19/19/19 17/17/17 18/18/18
f 20/20/20 19/19/19 18/18/18
f 21/21/21 19/19/19 20/20/20
f 22/22/22 21/21/21 20/20/20
f 23/23/23 21/21/21 22/22/22
f 24/24/24 23/23/23 22/22/22
f 27/27/27 26/26/26 25/25/25
f 28/28/28 27/27/27 25/25/25
f 29/29/29 27/27/27 28/28/28
f 30/30/30 29/29/29 28/28/28
f 33/33/33 32/32/32 31/31/31
f 34/34/34 33/33/33 31/31/31
f 37/37/37 36/36/36 35/35/35
f 38/38/38 37/37/37 35/35/35
f 41/41/41 40/40/40 39/39/39
f 42/42/42 41/41/41 39/39/39
f 45/45/45 44/44/44 43/43/43
f 46/46/46 45/45/45 43/43/43
f 46/46/46 43/43/43 47/47/47
f 48/48/48 46/46/46 47/47/47
f 51/51/51 50/50/50 49/49/49
f 52/52/52 51/51/51 49/49/49
f 55/55/55 54/54/54 53/53/53
f 56/56/56 55/55/55 53/53/53
f 59/59/59 58/58/58 57/57/57
f 60/60/60 59/59/59 57/57/57
f 61/61/61 59/59/59 60/60/60
f 62/62/62 61/61/61 60/60/60
f 64/64/64 57/57/57 63/63/63
f 65/65/65 64/64/64 63/63/63
f 65/65/65 63/63/63 66/66/66
f 66/66/66 63/63/63 67/67/67
f 63/63/63 68/68/68 67/67/67
f 67/67/67 68/68/68 69/69/69
f 68/68/68 70/70/70 69/69/69
f 69/69/69 70/70/70 71/71/71
f 72/72/72 65/65/65 66/66/66
f 70/70/70 73/73/73 71/71/71
f 71/71/71 73/73/73 74/74/74
f 70/70/70 75/75/75 73/73/73
f 76/76/76 65/65/65 72/72/72
f 77/77/77 76/76/76 72/72/72
f 76/76/76 78/78/78 65/65/65
f 78/78/78 79/79/79 65/65/65
f 80/80/80 76/76/76 77/77/77
f 81/81/81 80/80/80 77/77/77
f 82/82/82 80/80/80 81/81/81
f 83/83/83 82/82/82 81/81/81
f 73/73/73 84/84/84 74/74/74
f 74/74/74 84/84/84 85/85/85
f 75/75/75 86/86/86 73/73/73
f 73/73/73 86/86/86 84/84/84
f 75/75/75 87/87/87 86/86/86
f 87/87/87 88/88/88 86/86/86
f 84/84/84 89/89/89 85/85/85
f 85/85/85 89/89/89 90/90/90
f 89/89/89 91/91/91 90/90/90
f 86/86/86 92/92/92 84/84/84
f 86/86/86 88/88/88 92/92/92
f 88/88/88 93/93/93 92/92/92
f 94/94/94 82/82/82 83/83/83
f 95/95/95 94/94/94 83/83/83
f 94/94/94 96/96/96 82/82/82
f 96/96/96 97/97/97 82/82/82
f 98/98/98 94/94/94 95/95/95
f 99/99/99 98/98/98 95/95/95
f 98/98/98 100/100/100 94/94/94
f 100/100/100 101/101/101 94/94/94
f 100/100/100 103/103/103 102/102/102
f 103/103/103 104/104/104 102/102/102
f 102/102/102 104/104/104 105/105/105
f 104/104/104 106/106/106 105/105/105
f 109/109/109 108/108/108 107/107/107
f 108/108/108 110/110/110 107/107/107
f 108/108/108 111/111/111 110/110/110
f 111/111/111 112/112/112 110/110/110
f 115/115/115 114/114/114 113/113/113
f 116/116/116 115/115/115 113/113/113
f 116/116/116 113/113/113 117/117/117
f 118/118/118 116/116/116 117/117/117
f 121/121/121 120/120/120 119/119/119
f 122/122/122 121/121/121 119/119/119
f 123/123/123 121/121/121 122/122/122
f 122/122/122 119/119/119 124/124/124
f 125/125/125 123/123/123 122/122/122
f 126/126/126 122/122/122 124/124/124
f 125/125/125 122/122/122 126/126/126
f 126/126/126 124/124/124 127/127/127
f 128/128/128 126/126/126 127/127/127
f 129/129/129 125/125/125 126/126/126
f 129/129/129 126/126/126 128/128/128
f 130/130/130 129/129/129 128/128/128
f 131/131/131 129/129/129 130/130/130
f 132/132/132 131/131/131 130/130/130
f 133/133/133 131/131/131 132/132/132
f 134/134/134 133/133/133 132/132/132
f 135/135/135 133/133/133 134/134/134
f 136/136/136 135/135/135 134/134/134
f 135/135/135 137/137/137 133/133/133
f 137/137/137 138/138/138 133/133/133
f 139/139/139 135/135/135 136/136/136
f 140/140/140 139/139/139 136/136/136
f 139/139/139 141/141/141 135/135/135
f 141/141/141 137/137/137 135/135/135
f 142/142/142 139/139/139 140/140/140
f 141/141/141 143/143/143 137/137/137
f 144/144/144 142/142/142 140/140/140
f 143/143/143 145/145/145 137/137/137
f 137/137/137 145/145/145 138/138/138
f 145/145/145 146/146/146 138/138/138
f 147/147/147 142/142/142 144/144/144
f 148/148/148 147/147/147 144/144/144
f 149/149/149 147/147/147 148/148/148
f 150/150/150 149/149/149 148/148/148
f 149/149/149 151/151/151 147/147/147
f 151/151/151 152/152/152 147/147/147
f 153/153/153 149/149/149 150/150/150
f 154/154/154 153/153/153 150/150/150
f 153/153/153 155/155/155 149/149/149
f 155/155/155 151/151/151 149/149/149
f 156/156/156 153/153/153 154/154/154
f 155/155/155 157/157/157 151/151/151
f 158/158/158 156/156/156 154/154/154
f 159/159/159 156/156/156 158/158/158
f 160/160/160 159/159/159 158/158/158
f 157/157/157 161/161/161 151/151/151
f 151/151/151 161/161/161 152/152/152
f 161/161/161 162/162/162 152/152/152
f 165/165/165 164/164/164 163/163/163
f 164/164/164 166/166/166 163/163/163
f 164/164/164 167/167/167 166/166/166
f 167/167/167 168/168/168 166/166/166
f 171/171/171 170/170/170 169/169/169
f 170/170/170 172/172/172 169/169/169
f 170/170/170 173/173/173 172/172/172
f 173/173/173 174/174/174 172/172/172
f 177/177/177 176/176/176 175/175/175
f 176/176/176 178/178/178 175/175/175
f 176/176/176 179/179/179 178/178/178
f 179/179/179 180/180/180 178/178/178
f 183/183/183 182/182/182 181/181/181
f 184/184/184 183/183/183 181/181/181
f 184/184/184 181/181/181 185/185/185
f 186/186/186 184/184/184 185/185/185
f 189/189/189 188/188/188 187/187/187
f 190/190/190 189/189/189 187/187/187
f 190/190/190 187/187/187 191/191/191
f 192/192/192 190/190/190 191/191/191
f 195/195/195 194/194/194 193/193/193
f 196/196/196 195/195/195 193/193/193
f 196/196/196 193/193/193 197/197/197
f 198/198/198 196/196/196 197/197/197
f 201/201/201 200/200/200 199/199/199
f 202/202/202 201/201/201 199/199/199
f 202/202/202 199/199/199 203/203/203
f 204/204/204 202/202/202 203/203/203
