g Archer Spire
v -0.39793643 -0.39794305 3.7860236
v 3.8146973E-06 -7.778406E-06 6.7061977
v 0.39794382 -0.39794305 3.7860236
v -0.39793643 0.39793757 3.7860236
v 3.8146973E-06 -7.778406E-06 6.7061977
v -0.39793643 -0.39794305 3.7860236
v 0.39794382 0.39793757 3.7860236
v 3.8146973E-06 -7.778406E-06 6.7061977
v -0.39793643 0.39793757 3.7860236
v 0.39794382 -0.39794305 3.7860236
v 3.8146973E-06 -7.778406E-06 6.7061977
v 0.39794382 0.39793757 3.7860236
v -0.9320962 0.9320947 1.2224967
v -0.9320962 0.9320947 1.0681016
v 0.93210334 0.9320947 1.0681016
v 0.93210334 0.9320947 1.2224967
v 0.93210334 0.9320947 1.2224967
v 0.93210334 0.9320947 1.0681016
v 0.93210334 -0.9321058 1.0681016
v 0.93210334 -0.9321058 1.2224967
v 0.93210334 -0.9321058 1.2224967
v 0.93210334 -0.9321058 1.0681016
v -0.9320962 -0.9321058 1.0681016
v -0.9320962 -0.9321058 1.2224967
v -0.34934437 0.10977961 1.9148335
v -0.34934437 0.10977961 3.2366424
v -0.34934437 -0.10979152 3.2366424
v -0.34934437 -0.10979152 1.9148335
v -0.9320962 -0.9321058 1.2224967
v -0.9320962 -0.9321058 1.0681016
v -0.9320962 0.9320947 1.0681016
v -0.9320962 0.9320947 1.2224967
v -0.9320962 -0.9321058 1.2224967
v -0.9320962 0.9320947 1.2224967
v 0.93210334 0.9320947 1.2224967
v 0.93210334 -0.9321058 1.2224967
v -0.10978188 -0.34935388 1.9148335
v -0.10978188 -0.34935388 3.2366424
v 0.10978913 -0.34935388 3.2366424
v 0.10978913 -0.34935388 1.9148335
v 0.34935153 -0.10979152 1.9148335
v 0.34935153 -0.10979152 3.2366424
v 0.34935153 0.10977961 3.2366424
v 0.34935153 0.10977961 1.9148335
v 0.10978913 0.3493428 1.9148335
v 0.10978913 0.3493428 3.2366424
v -0.10978188 0.3493428 3.2366424
v -0.10978188 0.3493428 1.9148335
v -0.80572295 0.10977961 1.9148335
v -0.34934437 0.10977961 1.9148335
v -0.34934437 -0.10979152 1.9148335
v -0.80572295 -0.10979152 1.9148335
v 0.8057301 0.10977961 1.9148335
v 0.34935153 0.10977961 1.9148335
v 0.34935153 0.10977961 3.2366424
v 0.8057301 0.10977961 3.2366424
v -0.10978188 -0.8057324 1.9148335
v -0.10978188 -0.34935388 1.9148335
v 0.10978913 -0.34935388 1.9148335
v 0.10978913 -0.8057324 1.9148335
v -0.10978188 0.80572134 1.9148335
v -0.10978188 0.3493428 1.9148335
v -0.10978188 0.3493428 3.2366424
v -0.10978188 0.80572134 3.2366424
v -0.10978188 0.80572134 3.2366424
v -0.10978188 0.3493428 3.2366424
v 0.10978913 0.3493428 3.2366424
v 0.10978913 0.80572134 3.2366424
v 0.10978913 -0.8057324 1.9148335
v 0.10978913 -0.34935388 1.9148335
v 0.10978913 -0.34935388 3.2366424
v 0.10978913 -0.8057324 3.2366424
v 0.8057301 0.10977961 3.2366424
v 0.34935153 0.10977961 3.2366424
v 0.34935153 -0.10979152 3.2366424
v 0.8057301 -0.10979152 3.2366424
v -0.80572295 -0.10979152 1.9148335
v -0.34934437 -0.10979152 1.9148335
v -0.34934437 -0.10979152 3.2366424
v -0.80572295 -0.10979152 3.2366424
v 0.10978913 0.80572134 3.2366424
v 0.10978913 0.3493428 3.2366424
v 0.10978913 0.3493428 1.9148335
v 0.10978913 0.80572134 1.9148335
v 0.10978913 -0.8057324 3.2366424
v 0.10978913 -0.34935388 3.2366424
v -0.10978188 -0.34935388 3.2366424
v -0.10978188 -0.8057324 3.2366424
v 0.8057301 -0.10979152 3.2366424
v 0.34935153 -0.10979152 3.2366424
v 0.34935153 -0.10979152 1.9148335
v 0.8057301 -0.10979152 1.9148335
v -0.80572295 -0.10979152 3.2366424
v -0.34934437 -0.10979152 3.2366424
v -0.34934437 0.10977961 3.2366424
v -0.80572295 0.10977961 3.2366424
v -0.10978188 -0.8057324 3.2366424
v -0.10978188 -0.34935388 3.2366424
v -0.10978188 -0.34935388 1.9148335
v -0.10978188 -0.8057324 1.9148335
v -0.80572295 0.10977961 3.2366424
v -0.34934437 0.10977961 3.2366424
v -0.34934437 0.10977961 1.9148335
v -0.80572295 0.10977961 1.9148335
v 0.10978913 0.80572134 1.9148335
v 0.10978913 0.3493428 1.9148335
v -0.10978188 0.3493428 1.9148335
v -0.10978188 0.80572134 1.9148335
v 0.8057301 -0.10979152 1.9148335
v 0.34935153 -0.10979152 1.9148335
v 0.34935153 0.10977961 1.9148335
v 0.8057301 0.10977961 1.9148335
v -0.80572295 -0.8057324 3.7860236
v -0.39793643 -0.39794305 3.7860236
v 0.39794382 -0.39794305 3.7860236
v 0.8057301 -0.8057324 3.7860236
v -0.80572295 0.80572134 3.7860236
v 0.39794382 0.39793757 3.7860236
v -0.39793643 0.39793757 3.7860236
v 0.8057301 0.80572134 3.7860236
v -0.80572295 0.80572134 3.7860236
v -0.80572295 -0.8057324 3.7860236
v -0.80572295 -0.10979152 3.2366424
v -0.80572295 0.10977961 3.2366424
v -0.80572295 -0.10979152 1.9148335
v -0.80572295 0.80572134 0.010401487
v -0.80572295 -0.8057324 0.010401487
v -0.80572295 0.10977961 1.9148335
v 0.8057301 -0.8057324 3.7860236
v 0.8057301 -0.8057324 0.010401487
v 0.10978913 -0.8057324 1.9148335
v 0.10978913 -0.8057324 3.2366424
v -0.10978188 -0.8057324 1.9148335
v -0.80572295 -0.8057324 3.7860236
v -0.80572295 -0.8057324 0.010401487
v -0.10978188 -0.8057324 3.2366424
v 0.8057301 0.80572134 3.7860236
v 0.8057301 0.10977961 1.9148335
v 0.8057301 0.10977961 3.2366424
v 0.8057301 0.80572134 0.010401487
v 0.8057301 -0.8057324 3.7860236
v 0.8057301 -0.10979152 1.9148335
v 0.8057301 -0.10979152 3.2366424
v 0.8057301 -0.8057324 0.010401487
v 0.8057301 0.80572134 3.7860236
v -0.80572295 0.80572134 3.7860236
v -0.10978188 0.80572134 3.2366424
v 0.10978913 0.80572134 3.2366424
v -0.10978188 0.80572134 1.9148335
v 0.8057301 0.80572134 0.010401487
v -0.80572295 0.80572134 0.010401487
v 0.10978913 0.80572134 1.9148335
vt 0 0
vt 0 0
vt 0 0
vt 0 0
vt 0 0
vt 0 0
vt 0 0
vt 0 0
vt 0 0
vt 0 0
vt 0 0
vt 0 0
vt 0 0
vt 0 0
vt 0 0
vt 0 0
vt 0 0
vt 0 0
vt 0 0
vt 0 0
vt 0 0
vt 0 0
vt 0 0
vt 0 0
vt 0 0
vt 0 0
vt 0 0
vt 0 0
vt 0 0
vt 0 0
vt 0 0
vt 0 0
vt 0 0
vt 0 0
vt 0 0
vt 0 0
vt 0 0
vt 0 0
vt 0 0
vt 0 0
vt 0 0
vt 0 0
vt 0 0
vt 0 0
vt 0 0
vt 0 0
vt 0 0
vt 0 0
vt 0 0
vt 0 0
vt 0 0
vt 0 0
vt 0 0
vt 0 0
vt 0 0
vt 0 0
vt 0 0
vt 0 0
vt 0 0
vt 0 0
vt 0 0
vt 0 0
vt 0 0
vt 0 0
vt 0 0
vt 0 0
vt 0 0
vt 0 0
vt 0 0
vt 0 0
vt 0 0
vt 0 0
vt 0 0
vt 0 0
vt 0 0
vt 0 0
vt 0 0
vt 0 0
vt 0 0
vt 0 0
vt 0 0
vt 0 0
vt 0 0
vt 0 0
vt 0 0
vt 0 0
vt 0 0
vt 0 0
vt 0 0
vt 0 0
vt 0 0
vt 0 0
vt 0 0
vt 0 0
vt 0 0
vt 0 0
vt 0 0
vt 0 0
vt 0 0
vt 0 0
vt 0 0
vt 0 0
vt 0 0
vt 0 0
vt 0 0
vt 0 0
vt 0 0
vt 0 0
vt 0 0
vt 0 0
vt 0 0
vt 0 0
vt 0 0
vt 0 0
vt 0 0
vt 0 0
vt 0 0
vt 0 0
vt 0 0
vt 0 0
vt 0 0
vt 0 0
vt 0 0
vt 0 0
vt 0 0
vt 0 0
vt 0 0
vt 0 0
vt 0 0
vt 0 0
vt 0 0
vt 0 0
vt 0 0
vt 0 0
vt 0 0
vt 0 0
vt 0 0
vt 0 0
vt 0 0
vt 0 0
vt 0 0
vt 0 0
vt 0 0
vt 0 0
vt 0 0
vt 0 0
vt 0 0
vt 0 0
vt 0 0
vt 0 0
vt 0 0
vt 0 0
vn -0 -0.99084246 0.13502319
vn -0 -0.99084246 0.13502319
vn -0 -0.99084246 0.13502319
vn -0.9908422 0 0.13502477
vn -0.9908422 0 0.13502477
vn -0.9908422 0 0.13502477
vn -0 0.990842 0.13502651
vn -0 0.990842 0.13502651
vn -0 0.990842 0.13502651
vn 0.9908422 0 0.1350247
vn 0.9908422 0 0.1350247
vn 0.9908422 0 0.1350247
vn -0 1 0
vn -0 1 0
vn -0 1 0
vn -0 1 0
vn 1 0 0
vn 1 0 0
vn 1 0 0
vn 1 0 0
vn -0 -1 0
vn -0 -1 0
vn -0 -1 0
vn -0 -1 0
vn -1 0 0
vn -1 0 0
vn -1 0 0
vn -1 0 0
vn -1 0 0
vn -1 0 0
vn -1 0 0
vn -1 0 0
vn -0 0 1
vn -0 0 1
vn -0 0 1
vn -0 0 1
vn -0 -1 0
vn -0 -1 0
vn -0 -1 0
vn -0 -1 0
vn 1 0 0
vn 1 0 0
vn 1 0 0
vn 1 0 0
vn -0 1 0
vn -0 1 0
vn -0 1 0
vn -0 1 0
vn -0 0 1
vn -0 0 1
vn -0 0 1
vn -0 0 1
vn -0 -1 0
vn -0 -1 0
vn -0 -1 0
vn -0 -1 0
vn -0 0 1
vn -0 0 1
vn -0 0 1
vn -0 0 1
vn 1 0 0
vn 1 0 0
vn 1 0 0
vn 1 0 0
vn -0 0 -1
vn -0 0 -1
vn -0 0 -1
vn -0 0 -1
vn -1 0 0
vn -1 0 0
vn -1 0 0
vn -1 0 0
vn -0 0 -1
vn -0 0 -1
vn -0 0 -1
vn -0 0 -1
vn -0 1 0
vn -0 1 0
vn -0 1 0
vn -0 1 0
vn -1 0 0
vn -1 0 0
vn -1 0 0
vn -1 0 0
vn -0 0 -1
vn -0 0 -1
vn -0 0 -1
vn -0 0 -1
vn -0 1 0
vn -0 1 0
vn -0 1 0
vn -0 1 0
vn -0 0 -1
vn -0 0 -1
vn -0 0 -1
vn -0 0 -1
vn 1 0 0
vn 1 0 0
vn 1 0 0
vn 1 0 0
vn -0 -1 0
vn -0 -1 0
vn -0 -1 0
vn -0 -1 0
vn -0 0 1
vn -0 0 1
vn -0 0 1
vn -0 0 1
vn -0 0 1
vn -0 0 1
vn -0 0 1
vn -0 0 1
vn -0 0 1
vn -0 0 1
vn -0 0 1
vn -0 0 1
vn -0 0 1
vn -0 0 1
vn -0 0 1
vn -0 0 1
vn -1 0 0
vn -1 0 0
vn -1 0 0
vn -1 0 0
vn -1 0 0
vn -1 0 0
vn -1 0 0
vn -1 0 0
vn -0 -1 0
vn -0 -1 0
vn -0 -1 0
vn -0 -1 0
vn -0 -1 0
vn -0 -1 0
vn -0 -1 0
vn -0 -1 0
vn 1 0 0
vn 1 0 0
vn 1 0 0
vn 1 0 0
vn 1 0 0
vn 1 0 0
vn 1 0 0
vn 1 0 0
vn -0 1 0
vn -0 1 0
vn -0 1 0
vn -0 1 0
vn -0 1 0
vn -0 1 0
vn -0 1 0
vn -0 1 0
g Archer Spire_0
f 3/3/3 2/2/2 1/1/1
f 6/6/6 5/5/5 4/4/4
f 9/9/9 8/8/8 7/7/7
f 12/12/12 11/11/11 10/10/10
f 15/15/15 14/14/14 13/13/13
f 16/16/16 15/15/15 13/13/13
f 19/19/19 18/18/18 17/17/17
f 20/20/20 19/19/19 17/17/17
f 23/23/23 22/22/22 21/21/21
f 24/24/24 23/23/23 21/21/21
f 27/27/27 26/26/26 25/25/25
f 28/28/28 27/27/27 25/25/25
f 31/31/31 30/30/30 29/29/29
f 32/32/32 31/31/31 29/29/29
f 35/35/35 34/34/34 33/33/33
f 36/36/36 35/35/35 33/33/33
f 39/39/39 38/38/38 37/37/37
f 40/40/40 39/39/39 37/37/37
f 43/43/43 42/42/42 41/41/41
f 44/44/44 43/43/43 41/41/41
f 47/47/47 46/46/46 45/45/45
f 48/48/48 47/47/47 45/45/45
f 51/51/51 50/50/50 49/49/49
f 52/52/52 51/51/51 49/49/49
f 55/55/55 54/54/54 53/53/53
f 56/56/56 55/55/55 53/53/53
f 59/59/59 58/58/58 57/57/57
f 60/60/60 59/59/59 57/57/57
f 63/63/63 62/62/62 61/61/61
f 64/64/64 63/63/63 61/61/61
f 67/67/67 66/66/66 65/65/65
f 68/68/68 67/67/67 65/65/65
f 71/71/71 70/70/70 69/69/69
f 72/72/72 71/71/71 69/69/69
f 75/75/75 74/74/74 73/73/73
f 76/76/76 75/75/75 73/73/73
f 79/79/79 78/78/78 77/77/77
f 80/80/80 79/79/79 77/77/77
f 83/83/83 82/82/82 81/81/81
f 84/84/84 83/83/83 81/81/81
f 87/87/87 86/86/86 85/85/85
f 88/88/88 87/87/87 85/85/85
f 91/91/91 90/90/90 89/89/89
f 92/92/92 91/91/91 89/89/89
f 95/95/95 94/94/94 93/93/93
f 96/96/96 95/95/95 93/93/93
f 99/99/99 98/98/98 97/97/97
f 100/100/100 99/99/99 97/97/97
f 103/103/103 102/102/102 101/101/101
f 104/104/104 103/103/103 101/101/101
f 107/107/107 106/106/106 105/105/105
f 108/108/108 107/107/107 105/105/105
f 111/111/111 110/110/110 109/109/109
f 112/112/112 111/111/111 109/109/109
f 115/115/115 114/114/114 113/113/113
f 116/116/116 115/115/115 113/113/113
f 113/113/113 114/114/114 117/117/117
f 118/118/118 115/115/115 116/116/116
f 114/114/114 119/119/119 117/117/117
f 120/120/120 118/118/118 116/116/116
f 117/117/117 119/119/119 120/120/120
f 119/119/119 118/118/118 120/120/120
f 123/123/123 122/122/122 121/121/121
f 124/124/124 123/123/123 121/121/121
f 123/123/123 125/125/125 122/122/122
f 124/124/124 121/121/121 126/126/126
f 125/125/125 127/127/127 122/122/122
f 128/128/128 124/124/124 126/126/126
f 128/128/128 126/126/126 127/127/127
f 125/125/125 128/128/128 127/127/127
f 131/131/131 130/130/130 129/129/129
f 132/132/132 131/131/131 129/129/129
f 131/131/131 133/133/133 130/130/130
f 132/132/132 129/129/129 134/134/134
f 133/133/133 135/135/135 130/130/130
f 136/136/136 132/132/132 134/134/134
f 136/136/136 134/134/134 135/135/135
f 133/133/133 136/136/136 135/135/135
f 139/139/139 138/138/138 137/137/137
f 138/138/138 140/140/140 137/137/137
f 139/139/139 137/137/137 141/141/141
f 138/138/138 142/142/142 140/140/140
f 143/143/143 139/139/139 141/141/141
f 142/142/142 144/144/144 140/140/140
f 143/143/143 141/141/141 144/144/144
f 142/142/142 143/143/143 144/144/144
f 147/147/147 146/146/146 145/145/145
f 148/148/148 147/147/147 145/145/145
f 147/147/147 149/149/149 146/146/146
f 148/148/148 145/145/145 150/150/150
f 149/149/149 151/151/151 146/146/146
f 152/152/152 148/148/148 150/150/150
f 152/152/152 150/150/150 151/151/151
f 149/149/149 152/152/152 151/151/151
