g Armored Tower V2
v -1.4019036 0.8411416 7.2160482
v -1.4019036 1.4019029 7.2160482
v -1.3888313 1.3888304 7.806534
v -1.3888313 0.6994705 7.806534
v 0.8411416 1.4019029 7.2160482
v 1.4019029 1.4019029 7.2160482
v 1.3888304 1.3888304 7.806534
v 0.6994655 1.3888304 7.806534
v 1.4019029 -0.84114236 7.2160482
v 1.4019029 -1.4019036 7.2160482
v 1.3888304 -1.3888313 7.806534
v 1.3888304 -0.6994629 7.806534
v -0.84114236 -1.4019036 7.2160482
v -1.4019036 -1.4019036 7.2160487
v -1.3888313 -1.3888313 7.806534
v -0.699466 -1.3888313 7.806534
v -0.23315597 1.3888304 7.806534
v -0.23315597 1.3888304 8.320413
v -0.22084507 0.8929481 8.320413
v -0.22084507 0.8929481 7.806534
v 1.3888304 0.6994705 7.806534
v 1.3888304 0.6994705 8.320413
v 1.3888304 1.3888304 8.320413
v 1.3888304 1.3888304 7.806534
v -0.6625333 0.8929481 7.806534
v -0.6625333 0.8929481 8.320413
v -0.699466 1.3888304 8.320413
v -0.699466 1.3888304 7.806534
v 0.8929447 0.6625371 7.806534
v 1.3888304 0.6994705 7.806534
v 1.3888304 0.2331543 7.806534
v 0.8929447 0.22084303 7.806534
v -0.23315597 -1.3888313 7.806534
v -0.23315597 -1.3888313 8.320413
v 0.23315549 -1.3888313 8.320413
v 0.23315549 -1.3888313 7.806534
v 0.8929447 -0.22083661 7.806534
v 1.3888304 -0.23314667 7.806534
v 1.3888304 -0.6994629 7.806534
v 0.8929447 -0.6625307 7.806534
v -0.892945 -0.6625307 7.806534
v -1.3888313 -0.6994629 7.806534
v -1.3888313 -0.23314667 7.806534
v -0.892945 -0.22083661 7.806534
v -1.3888313 0.6994705 7.806534
v -1.3888313 0.6994705 8.320413
v -0.892945 0.6625371 8.320413
v -0.892945 0.6625371 7.806534
v -0.892945 0.22084303 7.806534
v -1.3888313 0.2331543 7.806534
v -1.3888313 0.6994705 7.806534
v -0.892945 0.6625371 7.806534
v 1.4019029 1.4019029 7.2160482
v 1.4019029 0.8411416 7.2160482
v 1.3888304 0.6994705 7.806534
v 1.3888304 1.3888304 7.806534
v 1.4019029 0.8411416 7.2160482
v 1.3888304 0.2331543 7.806534
v 1.4019029 0.097506195 6.862358
v 1.4595112 0.87570655 4.6138706
v 1.4019029 0.097506195 6.862358
v 1.4595112 0.10151315 5.148292
v 1.5505087 0.93030524 1.4804556
v 1.5505087 0.2893258 1.4804556
v 1.4595112 -0.101513624 5.148292
v 1.5505087 0.2893258 1.4804556
v 1.5505087 -0.28932583 1.4804556
v 1.3888304 -0.23314667 7.806534
v 1.3888304 0.2331543 7.806534
v 1.4019029 -0.09750694 6.862358
v 1.3888304 -0.6994629 7.806534
v 1.4019029 -0.84114236 7.2160482
v 1.4595112 -0.8757071 4.6138706
v 1.5505087 -0.9303053 1.4804556
v 1.4595112 -0.101513624 5.148292
v 1.4019029 -0.84114236 7.2160482
v 1.4019029 -0.09750694 6.862358
v -1.4019036 -1.4019036 7.2160487
v -1.4019036 -0.84114236 7.2160482
v -1.3888313 -0.6994629 7.806534
v -1.3888313 -1.3888313 7.806534
v -1.4019036 -0.84114236 7.2160482
v -1.3888313 -0.23314667 7.806534
v -1.3888313 -0.6994629 7.806534
v -1.4019036 -0.09750694 6.862358
v -1.3888313 0.2331543 7.806534
v -1.4019036 0.09750618 6.862358
v -1.3888313 0.6994705 7.806534
v -1.3888313 0.2331543 7.806534
v -1.4019036 0.8411416 7.2160482
v -1.4595115 0.10151313 5.148292
v -1.4019036 0.09750618 6.862358
v -1.4595115 0.87570655 4.6138706
v -1.5505087 0.93030524 1.4804556
v -1.5505087 0.2893258 1.4804556
v -1.5505087 -0.28932583 1.4804556
v -1.4595115 0.10151313 5.148292
v -1.4595115 -0.101513624 5.148292
v -1.5505087 -0.9303053 1.4804556
v -1.5505087 -0.28932583 1.4804556
v -1.4595115 -0.8757071 4.6138706
v -1.4019036 -0.09750694 6.862358
v -1.4019036 -0.84114236 7.2160482
v -0.699466 -1.3888313 7.806534
v -0.699466 -1.3888313 8.320413
v -0.6625333 -0.8929417 8.320413
v -0.6625333 -0.8929417 7.806534
v 0.6625327 -0.8929417 7.806534
v 0.6994655 -1.3888313 7.806534
v 0.23315549 -1.3888313 7.806534
v 0.22084449 -0.8929417 7.806534
v -1.3888313 -1.3888313 7.806534
v -1.3888313 -1.3888313 8.320413
v -0.699466 -1.3888313 8.320413
v -0.699466 -1.3888313 7.806534
v -0.22084507 -0.8929417 7.806534
v -0.23315597 -1.3888313 7.806534
v -0.699466 -1.3888313 7.806534
v -0.6625333 -0.8929417 7.806534
v -0.892945 0.22084303 7.806534
v -0.892945 0.22084303 8.320413
v -1.3888313 0.2331543 8.320413
v -1.3888313 0.2331543 7.806534
v -0.6625333 0.8929481 7.806534
v -0.699466 1.3888304 7.806534
v -0.23315597 1.3888304 7.806534
v -0.22084507 0.8929481 7.806534
v -0.22084507 -0.8929417 7.806534
v -0.22084507 -0.8929417 8.320413
v -0.23315597 -1.3888313 8.320413
v -0.23315597 -1.3888313 7.806534
v 0.22084449 0.8929481 7.806534
v 0.23315549 1.3888304 7.806534
v 0.6994655 1.3888304 7.806534
v 0.6625327 0.8929481 7.806534
v 0.8929447 0.8929481 7.806534
v 0.8929447 -0.8929417 7.806534
v 0.8929447 -0.8929417 7.31266
v 0.8929447 0.8929481 7.31266
v 0.8929447 0.8929481 7.31266
v -0.892945 0.8929481 7.31266
v -0.892945 0.8929481 7.806534
v 0.8929447 0.8929481 7.806534
v -0.892945 0.8929481 7.31266
v -0.892945 -0.8929417 7.31266
v -0.892945 -0.8929417 7.806534
v -0.892945 0.8929481 7.806534
v -0.892945 -0.8929417 7.806534
v -0.892945 -0.8929417 7.31266
v 0.8929447 -0.8929417 7.31266
v 0.8929447 -0.8929417 7.806534
v 1.4019029 -1.4019036 7.2160482
v 0.6994655 -1.3888313 7.806534
v 1.3888304 -1.3888313 7.806534
v 0.8411416 -1.4019036 7.2160482
v 0.097506195 -1.4019036 6.862358
v 0.23315549 -1.3888313 7.806534
v 0.6994655 -1.3888313 7.806534
v 0.097506195 -1.4019036 6.862358
v -0.23315597 -1.3888313 7.806534
v 0.23315549 -1.3888313 7.806534
v -0.09750694 -1.4019036 6.862358
v -0.699466 -1.3888313 7.806534
v -0.84114236 -1.4019036 7.2160482
v -1.4019036 1.4019029 7.2160482
v -0.699466 1.3888304 7.806534
v -1.3888313 1.3888304 7.806534
v -0.84114236 1.4019029 7.2160482
v -0.09750694 1.4019029 6.862358
v -0.23315597 1.3888304 7.806534
v -0.699466 1.3888304 7.806534
v -0.09750694 1.4019029 6.862358
v 0.09750618 1.4019029 6.862358
v 0.23315549 1.3888304 7.806534
v -0.23315597 1.3888304 7.806534
v 0.09750618 1.4019029 6.862358
v 0.6994655 1.3888304 7.806534
v 0.23315549 1.3888304 7.806534
v 0.8411416 1.4019029 7.2160482
v 0.10151313 1.4595112 5.148292
v 0.09750618 1.4019029 6.862358
v 0.87570655 1.4595112 4.6138706
v 0.2893258 1.5505087 1.4804556
v 0.93030524 1.5505087 1.4804556
v 0.10151313 1.4595112 5.148292
v -0.28932583 1.5505087 1.4804556
v -0.101513624 1.4595112 5.148292
v -0.9303053 1.5505087 1.4804556
v -0.28932583 1.5505087 1.4804556
v -0.8757071 1.4595112 4.6138706
v -0.09750694 1.4019029 6.862358
v -0.84114236 1.4019029 7.2160482
v -0.892945 0.6625371 8.320413
v -1.3888313 0.6994705 8.320413
v -1.3888313 1.3888304 8.320413
v -0.892945 0.8929481 8.320413
v -0.699466 1.3888304 8.320413
v -0.6625333 0.8929481 8.320413
v 0.6625327 0.8929481 8.320413
v 0.6994655 1.3888304 8.320413
v 1.3888304 1.3888304 8.320413
v 0.8929447 0.8929481 8.320413
v 1.3888304 0.6994705 8.320413
v 0.8929447 0.6625371 8.320413
v 0.8929447 -0.6625307 8.320413
v 1.3888304 -0.6994629 8.320413
v 1.3888304 -1.3888313 8.320413
v 0.8929447 -0.8929417 8.320413
v 0.6994655 -1.3888313 8.320413
v 0.6625327 -0.8929417 8.320413
v -0.6625333 -0.8929417 8.320413
v -0.699466 -1.3888313 8.320413
v -1.3888313 -1.3888313 8.320413
v -0.892945 -0.8929417 8.320413
v -1.3888313 -0.6994629 8.320413
v -0.892945 -0.6625307 8.320413
v 0.8929447 0.22084303 8.320413
v 1.3888304 0.2331543 8.320413
v 1.3888304 -0.23314667 8.320413
v 0.8929447 -0.22083661 8.320413
v -0.892945 -0.22083661 8.320413
v -1.3888313 -0.23314667 8.320413
v -1.3888313 0.2331543 8.320413
v -0.892945 0.22084303 8.320413
v 0.22084449 -0.8929417 8.320413
v 0.23315549 -1.3888313 8.320413
v -0.23315597 -1.3888313 8.320413
v -0.22084507 -0.8929417 8.320413
v -0.22084507 0.8929481 8.320413
v -0.23315597 1.3888304 8.320413
v 0.23315549 1.3888304 8.320413
v 0.22084449 0.8929481 8.320413
v 0.22084449 0.8929481 7.806534
v 0.22084449 0.8929481 8.320413
v 0.23315549 1.3888304 8.320413
v 0.23315549 1.3888304 7.806534
v -0.892945 -0.6625307 7.806534
v -0.892945 -0.8929417 7.806534
v -0.892945 -0.8929417 8.320413
v -0.892945 -0.6625307 8.320413
v 1.3888304 -0.23314667 7.806534
v 1.3888304 -0.23314667 8.320413
v 1.3888304 0.2331543 8.320413
v 1.3888304 0.2331543 7.806534
v 0.6994655 1.3888304 7.806534
v 0.6994655 1.3888304 8.320413
v 0.6625327 0.8929481 8.320413
v 0.6625327 0.8929481 7.806534
v -1.3888313 1.3888304 7.806534
v -1.3888313 1.3888304 8.320413
v -1.3888313 0.6994705 8.320413
v -1.3888313 0.6994705 7.806534
v -0.699466 1.3888304 7.806534
v -0.699466 1.3888304 8.320413
v -1.3888313 1.3888304 8.320413
v -1.3888313 1.3888304 7.806534
v -0.22084507 0.8929481 7.806534
v -0.22084507 0.8929481 8.320413
v 0.22084449 0.8929481 8.320413
v 0.22084449 0.8929481 7.806534
v -0.892945 -0.8929417 8.320413
v -0.892945 -0.8929417 7.806534
v -0.6625333 -0.8929417 7.806534
v -0.6625333 -0.8929417 8.320413
v 0.23315549 1.3888304 7.806534
v 0.23315549 1.3888304 8.320413
v -0.23315597 1.3888304 8.320413
v -0.23315597 1.3888304 7.806534
v 0.6625327 -0.8929417 7.806534
v 0.8929447 -0.8929417 7.806534
v 0.8929447 -0.8929417 8.320413
v 0.6625327 -0.8929417 8.320413
v 0.8929447 0.6625371 7.806534
v 0.8929447 0.6625371 8.320413
v 1.3888304 0.6994705 8.320413
v 1.3888304 0.6994705 7.806534
v 1.3888304 1.3888304 7.806534
v 1.3888304 1.3888304 8.320413
v 0.6994655 1.3888304 8.320413
v 0.6994655 1.3888304 7.806534
v -1.3888313 -0.6994629 7.806534
v -1.3888313 -0.6994629 8.320413
v -1.3888313 -1.3888313 8.320413
v -1.3888313 -1.3888313 7.806534
v -0.892945 -0.22083661 7.806534
v -0.892945 -0.22083661 8.320413
v -0.892945 0.22084303 8.320413
v -0.892945 0.22084303 7.806534
v 1.3888304 0.2331543 7.806534
v 1.3888304 0.2331543 8.320413
v 0.8929447 0.22084303 8.320413
v 0.8929447 0.22084303 7.806534
v 0.22084449 -0.8929417 7.806534
v 0.22084449 -0.8929417 8.320413
v -0.22084507 -0.8929417 8.320413
v -0.22084507 -0.8929417 7.806534
v 0.8929447 -0.22083661 7.806534
v 0.8929447 -0.22083661 8.320413
v 1.3888304 -0.23314667 8.320413
v 1.3888304 -0.23314667 7.806534
v -1.3888313 0.2331543 7.806534
v -1.3888313 0.2331543 8.320413
v -1.3888313 -0.23314667 8.320413
v -1.3888313 -0.23314667 7.806534
v 0.8929447 -0.6625307 8.320413
v 0.8929447 -0.8929417 8.320413
v 0.8929447 -0.8929417 7.806534
v 0.8929447 -0.6625307 7.806534
v 1.3888304 -0.6994629 7.806534
v 1.3888304 -0.6994629 8.320413
v 0.8929447 -0.6625307 8.320413
v 0.8929447 -0.6625307 7.806534
v 1.3888304 -1.3888313 7.806534
v 1.3888304 -1.3888313 8.320413
v 1.3888304 -0.6994629 8.320413
v 1.3888304 -0.6994629 7.806534
v 0.6625327 -0.8929417 7.806534
v 0.6625327 -0.8929417 8.320413
v 0.6994655 -1.3888313 8.320413
v 0.6994655 -1.3888313 7.806534
v -0.892945 -0.6625307 7.806534
v -0.892945 -0.6625307 8.320413
v -1.3888313 -0.6994629 8.320413
v -1.3888313 -0.6994629 7.806534
v 0.23315549 -1.3888313 7.806534
v 0.23315549 -1.3888313 8.320413
v 0.22084449 -0.8929417 8.320413
v 0.22084449 -0.8929417 7.806534
v 0.8929447 0.22084303 7.806534
v 0.8929447 0.22084303 8.320413
v 0.8929447 -0.22083661 8.320413
v 0.8929447 -0.22083661 7.806534
v -1.3888313 -0.23314667 7.806534
v -1.3888313 -0.23314667 8.320413
v -0.892945 -0.22083661 8.320413
v -0.892945 -0.22083661 7.806534
v 0.6994655 -1.3888313 7.806534
v 0.6994655 -1.3888313 8.320413
v 1.3888304 -1.3888313 8.320413
v 1.3888304 -1.3888313 7.806534
v 0.10151313 1.4595112 5.148292
v 0.10151313 0.93881 5.12481
v -0.101513624 0.93881005 5.12481
v -0.101513624 1.4595112 5.148292
v -0.8757071 -1.4595115 4.6138706
v -1.062724 -1.6116525 7.2022023
v -0.84114236 -1.4019036 7.2160482
v -1.0965594 -1.6680448 4.6263833
v -0.9303053 -1.5505087 1.4804556
v -1.1500055 -1.7571219 1.4929683
v -0.101513624 -1.4595115 5.148292
v -0.84114236 -1.4019036 7.2160482
v -0.09750694 -1.4019036 6.862358
v -0.8757071 -1.4595115 4.6138706
v -0.9303053 -1.5505087 1.4804556
v -0.28932583 -1.5505087 1.4804556
v 0.10151315 -1.4595115 5.148292
v -0.28932583 -1.5505087 1.4804556
v 0.2893258 -1.5505087 1.4804556
v 0.87570655 -1.4595115 4.6138706
v 0.097506195 -1.4019036 6.862358
v 0.8411416 -1.4019036 7.2160482
v 0.93030524 -1.5505087 1.4804556
v 0.10151315 -1.4595115 5.148292
v 0.10151315 -1.4595115 5.148292
v 0.10151315 -0.93881035 5.124811
v 0.097506195 -0.88120246 6.838877
v 0.097506195 -1.4019036 6.862358
v -1.4595115 -0.101513624 5.148292
v -0.9388104 -0.101513624 5.124811
v -0.8812025 -0.09750694 6.838877
v -1.4019036 -0.09750694 6.862358
v 1.4019029 1.4019029 7.2160482
v 1.6116519 1.6116521 7.2022023
v 1.6116519 1.0627234 7.2022023
v 1.4019029 0.8411416 7.2160482
v 1.4595112 0.10151315 5.148292
v 0.93881 0.10151315 5.12481
v 0.88120174 0.097506195 6.8388762
v 1.4019029 0.097506195 6.862358
v -1.4019036 -0.84114236 7.2160482
v -1.6116527 -1.0627239 7.2022023
v -1.6680449 -1.0965592 4.6263833
v -1.4595115 -0.8757071 4.6138706
v -1.757122 -1.1500053 1.4929683
v -1.5505087 -0.9303053 1.4804556
v 1.4595112 -0.8757071 4.6138706
v 1.6116519 -1.0627239 7.2022023
v 1.4019029 -0.84114236 7.2160482
v 1.6680446 -1.0965592 4.6263833
v 1.5505087 -0.9303053 1.4804556
v 1.757122 -1.1500053 1.4929683
v -0.8757071 1.4595112 4.6138706
v -1.1500055 1.7571222 1.4929683
v -0.9303053 1.5505087 1.4804556
v -1.0965594 1.6680448 4.6263833
v -0.84114236 1.4019029 7.2160482
v -1.062724 1.6116521 7.2022023
v -0.101513624 0.93881005 5.12481
v 0.10151313 0.93881 5.12481
v 0.09750618 0.88120174 6.8388762
v -0.09750694 0.8812018 6.8388762
v 0.10151315 -0.93881035 5.124811
v -0.101513624 -0.9388104 5.124811
v -0.09750694 -0.8812025 6.838877
v 0.097506195 -0.88120246 6.838877
v -0.9388104 -0.101513624 5.124811
v -0.93881035 0.10151313 5.124811
v -0.88120246 0.09750618 6.838877
v -0.8812025 -0.09750694 6.838877
v 0.93881 0.10151315 5.12481
v 0.93881005 -0.101513624 5.12481
v 0.8812018 -0.09750694 6.8388762
v 0.88120174 0.097506195 6.8388762
v -0.101513624 1.4595112 5.148292
v -0.101513624 0.93881005 5.12481
v -0.09750694 0.8812018 6.8388762
v -0.09750694 1.4019029 6.862358
v 1.4019029 -0.09750694 6.862358
v 0.8812018 -0.09750694 6.8388762
v 0.93881005 -0.101513624 5.12481
v 1.4595112 -0.101513624 5.148292
v -0.101513624 -1.4595115 5.148292
v -0.101513624 -0.9388104 5.124811
v 0.10151315 -0.93881035 5.124811
v 0.10151315 -1.4595115 5.148292
v -0.09750694 1.4019029 6.862358
v -0.09750694 0.8812018 6.8388762
v 0.09750618 0.88120174 6.8388762
v 0.09750618 1.4019029 6.862358
v -1.4019036 0.09750618 6.862358
v -0.88120246 0.09750618 6.838877
v -0.93881035 0.10151313 5.124811
v -1.4595115 0.10151313 5.148292
v -1.4595115 0.10151313 5.148292
v -0.93881035 0.10151313 5.124811
v -0.9388104 -0.101513624 5.124811
v -1.4595115 -0.101513624 5.148292
v 0.097506195 -1.4019036 6.862358
v 0.097506195 -0.88120246 6.838877
v -0.09750694 -0.8812025 6.838877
v -0.09750694 -1.4019036 6.862358
v 1.4595112 -0.101513624 5.148292
v 0.93881005 -0.101513624 5.12481
v 0.93881 0.10151315 5.12481
v 1.4595112 0.10151315 5.148292
v -0.09750694 -1.4019036 6.862358
v -0.09750694 -0.8812025 6.838877
v -0.101513624 -0.9388104 5.124811
v -0.101513624 -1.4595115 5.148292
v -1.4019036 -0.09750694 6.862358
v -0.8812025 -0.09750694 6.838877
v -0.88120246 0.09750618 6.838877
v -1.4019036 0.09750618 6.862358
v 0.09750618 1.4019029 6.862358
v 0.09750618 0.88120174 6.8388762
v 0.10151313 0.93881 5.12481
v 0.10151313 1.4595112 5.148292
v 1.4019029 0.097506195 6.862358
v 0.88120174 0.097506195 6.8388762
v 0.8812018 -0.09750694 6.8388762
v 1.4019029 -0.09750694 6.862358
v 0.93030524 -1.5505087 1.4804556
v 0.93030524 -1.8971033 1.1003475
v 0.2893258 -1.8971033 1.1003475
v 0.2893258 -1.5505087 1.4804556
v -0.28932583 -1.8971033 1.1003475
v -0.28932583 -1.5505087 1.4804556
v -0.9303053 -1.8971033 1.1003475
v -0.9303053 -1.5505087 1.4804556
v 1.5505087 0.93030524 1.4804556
v 1.8971033 0.93030524 1.1003475
v 1.8971033 0.2893258 1.1003475
v 1.5505087 0.2893258 1.4804556
v 1.8971033 -0.28932583 1.1003475
v 1.5505087 -0.28932583 1.4804556
v 1.8971033 -0.9303053 1.1003475
v 1.5505087 -0.9303053 1.4804556
v 1.5505087 -1.5505087 1.4804556
v 1.8195306 -1.8195305 1.1034143
v 0.93030524 -1.8971033 1.1003475
v 0.93030524 -1.5505087 1.4804556
v 1.5505087 1.5505087 1.4804556
v 1.8195306 1.8195305 1.1034143
v 1.8971033 0.93030524 1.1003475
v 1.5505087 0.93030524 1.4804556
v -1.5505087 0.2893258 1.4804556
v -1.8971033 0.93030524 1.1003475
v -1.5505087 0.93030524 1.4804556
v -1.8971033 0.2893258 1.1003475
v -1.5505087 -0.28932583 1.4804556
v -1.8971033 -0.28932583 1.1003475
v -1.5505087 -0.9303053 1.4804556
v -1.8971033 -0.9303053 1.1003475
v -0.9303053 -1.5505087 1.4804556
v -0.9303053 -1.8971033 1.1003475
v -1.8195305 -1.8195305 1.1034143
v -1.5505087 -1.5505087 1.4804556
v -0.9303053 1.5505087 1.4804556
v -0.9303053 1.8971033 1.1003475
v -0.28932583 1.8971033 1.1003475
v -0.28932583 1.5505087 1.4804556
v 0.2893258 1.8971033 1.1003475
v 0.2893258 1.5505087 1.4804556
v 0.93030524 1.8971033 1.1003475
v 0.93030524 1.5505087 1.4804556
v 1.5505087 -0.9303053 1.4804556
v 1.8971033 -0.9303053 1.1003475
v 1.8195306 -1.8195305 1.1034143
v 1.5505087 -1.5505087 1.4804556
v -1.5505087 1.5505087 1.4804556
v -1.8195305 1.8195305 1.1034143
v -0.9303053 1.8971033 1.1003475
v -0.9303053 1.5505087 1.4804556
v 0.93030524 1.5505087 1.4804556
v 0.93030524 1.8971033 1.1003475
v 1.8195306 1.8195305 1.1034143
v 1.5505087 1.5505087 1.4804556
v -1.5505087 -1.5505087 1.4804556
v -1.8195305 -1.8195305 1.1034143
v -1.8971033 -0.9303053 1.1003475
v -1.5505087 -0.9303053 1.4804556
v 1.4019029 -1.4019036 7.2160482
v 1.6116519 -1.6116525 7.2022023
v 1.0627233 -1.6116525 7.2022023
v 0.8411416 -1.4019036 7.2160482
v -1.5505087 0.93030524 1.4804556
v -1.8971033 0.93030524 1.1003475
v -1.8195305 1.8195305 1.1034143
v -1.5505087 1.5505087 1.4804556
v -1.6088154 -1.6088145 2.514593
v -1.6088154 1.6088145 2.514593
v -1.6088154 1.6088145 4.021858
v -1.6088154 -1.6088145 4.021858
v -1.6088154 1.6088145 2.514593
v 1.6088135 1.6088145 2.514593
v 1.6088135 1.6088145 4.021858
v -1.6088154 1.6088145 4.021858
v 1.6088135 1.6088145 2.514593
v 1.6088135 -1.6088145 2.514593
v 1.6088135 -1.6088145 4.021858
v 1.6088135 1.6088145 4.021858
v 1.6088135 -1.6088145 2.514593
v -1.6088154 -1.6088145 2.514593
v -1.6088154 -1.6088145 4.021858
v 1.6088135 -1.6088145 4.021858
v 1.6088135 1.6088145 4.021858
v 1.6088135 -1.6088145 4.021858
v -1.6088154 -1.6088145 4.021858
v -1.6088154 1.6088145 4.021858
v 0.87570655 1.4595112 4.6138706
v 1.0627233 1.6116521 7.2022023
v 0.8411416 1.4019029 7.2160482
v 1.0965589 1.6680448 4.6263833
v 0.93030524 1.5505087 1.4804556
v 1.1500055 1.7571222 1.4929683
v -1.4019036 0.8411416 7.2160482
v -1.6116527 1.0627234 7.2022023
v -1.6116527 1.6116521 7.2022023
v -1.4019036 1.4019029 7.2160482
v 0.8411416 -1.4019036 7.2160482
v 1.0627233 -1.6116525 7.2022023
v 1.0965589 -1.6680448 4.6263833
v 0.87570655 -1.4595115 4.6138706
v 1.1500055 -1.7571219 1.4929683
v 0.93030524 -1.5505087 1.4804556
v 0.8411416 1.4019029 7.2160482
v 1.0627233 1.6116521 7.2022023
v 1.6116519 1.6116521 7.2022023
v 1.4019029 1.4019029 7.2160482
v -0.28932583 1.8971033 1.1003475
v -0.9303053 1.8971033 1.1003475
v -0.93699306 1.8093963 -0.2425015
v -0.31233105 1.8093963 -0.24250153
v 0.2893258 1.8971033 1.1003475
v 0.31233105 1.8093963 -0.2425015
v 0.93030524 1.8971033 1.1003475
v 0.93699306 1.8093963 -0.2425015
v -1.8195305 1.8195305 1.1034143
v -1.787297 1.7872969 -0.19626278
v -0.93699306 1.8093963 -0.2425015
v -0.9303053 1.8971033 1.1003475
v -0.28932583 -1.8971033 1.1003475
v -0.93699306 -1.8093963 -0.2425015
v -0.9303053 -1.8971033 1.1003475
v -0.31233105 -1.8093963 -0.2425015
v 0.2893258 -1.8971033 1.1003475
v 0.31233105 -1.8093963 -0.24250153
v 0.93030524 -1.8971033 1.1003475
v 0.93699306 -1.8093963 -0.2425015
v 1.8195306 -1.8195305 1.1034143
v 1.787297 -1.7872969 -0.19626278
v 0.93699306 -1.8093963 -0.2425015
v 0.93030524 -1.8971033 1.1003475
v -1.8971033 0.2893258 1.1003475
v -1.8093963 0.93699306 -0.2425015
v -1.8971033 0.93030524 1.1003475
v -1.8093963 0.31233105 -0.2425015
v -1.8093963 -0.31233105 -0.24250153
v -1.8971033 -0.28932583 1.1003475
v -1.8093963 -0.93699306 -0.2425015
v -1.8971033 -0.9303053 1.1003475
v -1.8971033 -0.9303053 1.1003475
v -1.8195305 -1.8195305 1.1034143
v -1.787297 -1.7872969 -0.19626278
v -1.8093963 -0.93699306 -0.2425015
v 1.8971033 -0.9303053 1.1003475
v 1.8093963 -0.31233105 -0.2425015
v 1.8093963 -0.93699306 -0.2425015
v 1.8971033 -0.28932583 1.1003475
v 1.8093963 0.31233105 -0.24250153
v 1.8971033 0.2893258 1.1003475
v 1.8093963 0.93699306 -0.2425015
v 1.8971033 0.93030524 1.1003475
v 1.8971033 0.93030524 1.1003475
v 1.8195306 1.8195305 1.1034143
v 1.787297 1.7872969 -0.19626278
v 1.8093963 0.93699306 -0.2425015
v -1.8195305 -1.8195305 1.1034143
v -0.9303053 -1.8971033 1.1003475
v -0.93699306 -1.8093963 -0.2425015
v -1.787297 -1.7872969 -0.19626278
v -1.8971033 0.93030524 1.1003475
v -1.8093963 0.93699306 -0.2425015
v -1.787297 1.7872969 -0.19626278
v -1.8195305 1.8195305 1.1034143
v 0.93699306 1.8093963 -0.2425015
v 1.787297 1.7872969 -0.19626278
v 1.8195306 1.8195305 1.1034143
v 0.93030524 1.8971033 1.1003475
v 1.8093963 -0.93699306 -0.2425015
v 1.787297 -1.7872969 -0.19626278
v 1.8195306 -1.8195305 1.1034143
v 1.8971033 -0.9303053 1.1003475
v -0.892945 0.8929481 7.31266
v 0.8929447 0.8929481 7.31266
v 0.8929447 -0.8929417 7.31266
v -0.892945 -0.8929417 7.31266
v -1.6680449 1.6680448 4.6263833
v -1.062724 1.6116521 7.2022023
v -1.6116527 1.6116521 7.2022023
v -1.0965594 1.6680448 4.6263833
v -1.1500055 1.7571222 1.4929683
v -1.757122 1.7571222 1.4929683
v 1.6680446 -1.6680448 4.6263833
v 1.0627233 -1.6116525 7.2022023
v 1.6116519 -1.6116525 7.2022023
v 1.0965589 -1.6680448 4.6263833
v 1.1500055 -1.7571219 1.4929683
v 1.757122 -1.7571219 1.4929683
v -1.668045 -1.6680449 4.6263833
v -1.6116527 -1.0627239 7.2022023
v -1.6116527 -1.6116525 7.202203
v -1.6680449 -1.0965592 4.6263833
v -1.757122 -1.7571219 1.4929683
v -1.757122 -1.1500053 1.4929683
v 1.6680446 1.6680448 4.6263833
v 1.6116519 1.0627234 7.2022023
v 1.6116519 1.6116521 7.2022023
v 1.6680446 1.096559 4.6263833
v 1.757122 1.7571222 1.4929683
v 1.757122 1.1500057 1.4929683
v -1.0965594 -1.6680448 4.6263833
v -1.6116527 -1.6116525 7.202203
v -1.062724 -1.6116525 7.2022023
v -1.668045 -1.6680449 4.6263833
v -1.1500055 -1.7571219 1.4929683
v -1.757122 -1.7571219 1.4929683
v 1.6680446 -1.0965592 4.6263833
v 1.6116519 -1.6116525 7.2022023
v 1.6116519 -1.0627239 7.2022023
v 1.6680446 -1.6680448 4.6263833
v 1.757122 -1.1500053 1.4929683
v 1.757122 -1.7571219 1.4929683
v 1.0965589 1.6680448 4.6263833
v 1.6116519 1.6116521 7.2022023
v 1.0627233 1.6116521 7.2022023
v 1.6680446 1.6680448 4.6263833
v 1.1500055 1.7571222 1.4929683
v 1.757122 1.7571222 1.4929683
v -1.6680449 1.096559 4.6263833
v -1.6116527 1.6116521 7.2022023
v -1.6116527 1.0627234 7.2022023
v -1.6680449 1.6680448 4.6263833
v -1.757122 1.7571222 1.4929683
v -1.757122 1.1500057 1.4929683
v 1.5505087 1.5505087 1.4804556
v 1.757122 1.7571222 1.4929683
v 1.1500055 1.7571222 1.4929683
v 0.93030524 1.5505087 1.4804556
v -0.84114236 -1.4019036 7.2160482
v -1.062724 -1.6116525 7.2022023
v -1.6116527 -1.6116525 7.202203
v -1.4019036 -1.4019036 7.2160487
v -1.5505087 0.93030524 1.4804556
v -1.757122 1.1500057 1.4929683
v -1.6680449 1.096559 4.6263833
v -1.4595115 0.87570655 4.6138706
v -1.6116527 1.0627234 7.2022023
v -1.4019036 0.8411416 7.2160482
v -1.4019036 1.4019029 7.2160482
v -1.6116527 1.6116521 7.2022023
v -1.062724 1.6116521 7.2022023
v -0.84114236 1.4019029 7.2160482
v 1.4595112 0.87570655 4.6138706
v 1.757122 1.1500057 1.4929683
v 1.5505087 0.93030524 1.4804556
v 1.6680446 1.096559 4.6263833
v 1.4019029 0.8411416 7.2160482
v 1.6116519 1.0627234 7.2022023
v 1.4019029 -0.84114236 7.2160482
v 1.6116519 -1.0627239 7.2022023
v 1.6116519 -1.6116525 7.2022023
v 1.4019029 -1.4019036 7.2160482
v 1.5505087 0.93030524 1.4804556
v 1.757122 1.1500057 1.4929683
v 1.757122 1.7571222 1.4929683
v 1.5505087 1.5505087 1.4804556
v -1.4019036 -1.4019036 7.2160487
v -1.6116527 -1.6116525 7.202203
v -1.6116527 -1.0627239 7.2022023
v -1.4019036 -0.84114236 7.2160482
v -1.757122 -1.1500053 1.4929683
v -2.006979 -0.9391364 -0.16840786
v -1.586026 -0.5181836 -0.18995172
v -1.5505087 -0.9303053 1.4804556
v 1.757122 1.7571222 1.4929683
v 1.1500055 1.7571222 1.4929683
v 0.9391364 2.006979 -0.16840786
v 2.006979 2.006979 -0.16840786
v 1.757122 -1.1500053 1.4929683
v 2.006979 -0.9391364 -0.16840786
v 2.006979 -2.006979 -0.16840786
v 1.757122 -1.7571219 1.4929683
v 1.5505087 -0.9303053 1.4804556
v 1.586026 -0.5181836 -0.18995172
v 2.006979 -0.9391364 -0.16840786
v 1.757122 -1.1500053 1.4929683
v 1.1500055 -1.7571219 1.4929683
v 0.9391364 -2.006979 -0.16840786
v 0.5181835 -1.586026 -0.18995172
v 0.93030524 -1.5505087 1.4804556
v -1.1500055 -1.7571219 1.4929683
v -0.9391364 -2.006979 -0.16840786
v -2.006979 -2.006979 -0.16840786
v -1.757122 -1.7571219 1.4929683
v -1.1500055 1.7571222 1.4929683
v -0.9391364 2.006979 -0.16840786
v -0.5181836 1.5860261 -0.18995172
v -0.9303053 1.5505087 1.4804556
v 1.757122 1.1500057 1.4929683
v 1.757122 1.7571222 1.4929683
v 2.006979 2.006979 -0.16840786
v 2.006979 0.9391364 -0.16840786
v -1.757122 -1.7571219 1.4929683
v -2.006979 -2.006979 -0.16840786
v -2.006979 -0.9391364 -0.16840786
v -1.757122 -1.1500053 1.4929683
v 1.5505087 0.93030524 1.4804556
v 1.757122 1.1500057 1.4929683
v 2.006979 0.9391364 -0.16840786
v 1.586026 0.5181835 -0.18995172
v -1.5505087 0.93030524 1.4804556
v -1.586026 0.5181835 -0.18995172
v -2.006979 0.9391364 -0.16840786
v -1.757122 1.1500057 1.4929683
v 1.757122 -1.7571219 1.4929683
v 2.006979 -2.006979 -0.16840786
v 0.9391364 -2.006979 -0.16840786
v 1.1500055 -1.7571219 1.4929683
v -1.757122 1.7571222 1.4929683
v -2.006979 2.006979 -0.16840786
v -0.9391364 2.006979 -0.16840786
v -1.1500055 1.7571222 1.4929683
v -0.9303053 -1.5505087 1.4804556
v -0.5181836 -1.5860261 -0.18995172
v -0.9391364 -2.006979 -0.16840786
v -1.1500055 -1.7571219 1.4929683
v -1.757122 1.1500057 1.4929683
v -2.006979 0.9391364 -0.16840786
v -2.006979 2.006979 -0.16840786
v -1.757122 1.7571222 1.4929683
v 1.1500055 1.7571222 1.4929683
v 0.93030524 1.5505087 1.4804556
v 0.5181835 1.5860261 -0.18995172
v 0.9391364 2.006979 -0.16840786
v 0.8929447 0.6625371 8.320413
v 0.8929447 0.6625371 7.806534
v 0.8929447 0.8929481 7.806534
v 0.8929447 0.8929481 8.320413
v 0.6625327 0.8929481 8.320413
v 0.8929447 0.8929481 8.320413
v 0.8929447 0.8929481 7.806534
v 0.6625327 0.8929481 7.806534
v -0.892945 0.8929481 8.320413
v -0.892945 0.8929481 7.806534
v -0.892945 0.6625371 7.806534
v -0.892945 0.6625371 8.320413
v -0.6625333 0.8929481 8.320413
v -0.6625333 0.8929481 7.806534
v -0.892945 0.8929481 7.806534
v -0.892945 0.8929481 8.320413
vt 0.60609 0.19999999
vt 0.60609007 0.25
vt 0.625 0.25
vt 0.625 0.2
vt 0.60609 0.45
vt 0.60608995 0.49999997
vt 0.625 0.5
vt 0.625 0.45
vt 0.60609 0.7
vt 0.60609007 0.75000006
vt 0.625 0.75
vt 0.625 0.7
vt 0.60609 0.95
vt 0.60609 1
vt 0.625 1
vt 0.625 0.95
vt 0.775 0.5
vt 0.775 0.5
vt 0.76716 0.53919995
vt 0.76716 0.53919995
vt 0.625 0.55
vt 0.625 0.55
vt 0.625 0.5
vt 0.625 0.5
vt 0.80148005 0.5391999
vt 0.80148005 0.5391999
vt 0.825 0.5
vt 0.825 0.5
vt 0.6641999 0.57352
vt 0.625 0.55
vt 0.625 0.6
vt 0.66419995 0.60784006
vt 0.625 0.9
vt 0.625 0.9
vt 0.625 0.85
vt 0.625 0.85
vt 0.66419995 0.64216006
vt 0.625 0.65
vt 0.625 0.7
vt 0.66419995 0.6764801
vt 0.8358001 0.67648005
vt 0.875 0.70000005
vt 0.875 0.65000004
vt 0.83580005 0.64216
vt 0.875 0.55
vt 0.875 0.55
vt 0.83580005 0.57351995
vt 0.83580005 0.57351995
vt 0.83580005 0.60783994
vt 0.875 0.6
vt 0.875 0.55
vt 0.83580005 0.57351995
vt 0.60608995 0.49999997
vt 0.60609 0.55
vt 0.625 0.55
vt 0.625 0.5
vt 0.60609 0.55
vt 0.625 0.6
vt 0.60609 0.6
vt 0.5227567 0.54999995
vt 0.60609 0.6
vt 0.5227567 0.6
vt 0.39112377 0.55
vt 0.39112377 0.6
vt 0.5227567 0.65
vt 0.39112377 0.6
vt 0.39112377 0.65000004
vt 0.625 0.65
vt 0.625 0.6
vt 0.60609007 0.65
vt 0.625 0.7
vt 0.60609 0.7
vt 0.5227567 0.70000005
vt 0.39112377 0.70000005
vt 0.5227567 0.65
vt 0.60609 0.7
vt 0.60609007 0.65
vt 0.60609 0
vt 0.60609 0.049999997
vt 0.625 0.05
vt 0.625 0
vt 0.60609 0.049999997
vt 0.625 0.1
vt 0.625 0.05
vt 0.60609007 0.1
vt 0.625 0.15
vt 0.60609 0.15
vt 0.625 0.2
vt 0.625 0.15
vt 0.60609 0.19999999
vt 0.5227567 0.15
vt 0.60609 0.15
vt 0.5227567 0.19999999
vt 0.39112377 0.19999999
vt 0.39112377 0.15
vt 0.39112377 0.1
vt 0.5227567 0.15
vt 0.5227567 0.1
vt 0.39112377 0.05
vt 0.39112377 0.1
vt 0.5227567 0.049999997
vt 0.60609007 0.1
vt 0.60609 0.049999997
vt 0.825 0.75
vt 0.825 0.75
vt 0.80148005 0.71080005
vt 0.80148005 0.71080005
vt 0.69852 0.7108002
vt 0.675 0.75
vt 0.725 0.75
vt 0.73284006 0.7108002
vt 0.625 1
vt 0.625 1
vt 0.625 0.95
vt 0.625 0.95
vt 0.76716006 0.7108001
vt 0.775 0.75
vt 0.825 0.75
vt 0.80148005 0.71080005
vt 0.83580005 0.60783994
vt 0.83580005 0.60783994
vt 0.875 0.6
vt 0.875 0.6
vt 0.80148005 0.5391999
vt 0.825 0.5
vt 0.775 0.5
vt 0.76716 0.53919995
vt 0.76716006 0.7108001
vt 0.76716006 0.7108001
vt 0.775 0.75
vt 0.775 0.75
vt 0.73283994 0.53919995
vt 0.7249999 0.5
vt 0.67499995 0.5
vt 0.69851995 0.53919995
vt 0 0
vt 0 0
vt 0 0
vt 0 0
vt 0 0
vt 0 0
vt 0 0
vt 0 0
vt 0 0
vt 0 0
vt 0 0
vt 0 0
vt 0 0
vt 0 0
vt 0 0
vt 0 0
vt 0.60609007 0.75000006
vt 0.625 0.8
vt 0.625 0.75
vt 0.60609 0.79999995
vt 0.60608995 0.85
vt 0.625 0.85
vt 0.625 0.8
vt 0.60608995 0.85
vt 0.625 0.9
vt 0.625 0.85
vt 0.60609007 0.9
vt 0.625 0.95
vt 0.60609 0.95
vt 0.60609007 0.25
vt 0.625 0.3
vt 0.625 0.25
vt 0.60609 0.3
vt 0.60609007 0.35000002
vt 0.625 0.35000002
vt 0.625 0.3
vt 0.60609007 0.35000002
vt 0.60609007 0.39999998
vt 0.625 0.4
vt 0.625 0.35000002
vt 0.60609007 0.39999998
vt 0.625 0.45
vt 0.625 0.4
vt 0.60609 0.45
vt 0.5227567 0.39999998
vt 0.60609007 0.39999998
vt 0.5227567 0.45
vt 0.39112377 0.40000004
vt 0.39112377 0.45
vt 0.5227567 0.39999998
vt 0.39112377 0.34999996
vt 0.5227567 0.35
vt 0.3911237 0.29999998
vt 0.39112377 0.34999996
vt 0.5227567 0.3
vt 0.60609007 0.35000002
vt 0.60609 0.3
vt 0.83580005 0.57351995
vt 0.875 0.55
vt 0.875 0.5
vt 0.83580005 0.5391999
vt 0.825 0.5
vt 0.80148005 0.5391999
vt 0.69851995 0.53919995
vt 0.67499995 0.5
vt 0.625 0.5
vt 0.6641999 0.53919995
vt 0.625 0.55
vt 0.6641999 0.57352
vt 0.66419995 0.6764801
vt 0.625 0.7
vt 0.625 0.75
vt 0.66419995 0.7108002
vt 0.675 0.75
vt 0.69852 0.7108002
vt 0.80148005 0.71080005
vt 0.825 0.75
vt 0.875 0.75
vt 0.83580005 0.71080005
vt 0.875 0.70000005
vt 0.8358001 0.67648005
vt 0.66419995 0.60784006
vt 0.625 0.6
vt 0.625 0.65
vt 0.66419995 0.64216006
vt 0.83580005 0.64216
vt 0.875 0.65000004
vt 0.875 0.6
vt 0.83580005 0.60783994
vt 0.73284006 0.7108002
vt 0.725 0.75
vt 0.775 0.75
vt 0.76716006 0.7108001
vt 0.76716 0.53919995
vt 0.775 0.5
vt 0.7249999 0.5
vt 0.73283994 0.53919995
vt 0.73283994 0.53919995
vt 0.73283994 0.53919995
vt 0.7249999 0.5
vt 0.7249999 0.5
vt 0.8358001 0.67648005
vt 0 0
vt 0.83580005 0.71080005
vt 0.8358001 0.67648005
vt 0.625 0.65
vt 0.625 0.65
vt 0.625 0.6
vt 0.625 0.6
vt 0.67499995 0.5
vt 0.67499995 0.5
vt 0.69851995 0.53919995
vt 0.69851995 0.53919995
vt 0.625 0.25
vt 0.625 0.25
vt 0.625 0.2
vt 0.625 0.2
vt 0.625 0.3
vt 0.625 0.3
vt 0.625 0.25
vt 0.625 0.25
vt 0.76716 0.53919995
vt 0.76716 0.53919995
vt 0.73283994 0.53919995
vt 0.73283994 0.53919995
vt 0.83580005 0.71080005
vt 0 0
vt 0.80148005 0.71080005
vt 0.80148005 0.71080005
vt 0.625 0.4
vt 0.625 0.4
vt 0.625 0.35000002
vt 0.625 0.35000002
vt 0.69852 0.7108002
vt 0 0
vt 0.66419995 0.7108002
vt 0.69852 0.7108002
vt 0.6641999 0.57352
vt 0.6641999 0.57352
vt 0.625 0.55
vt 0.625 0.55
vt 0.625 0.5
vt 0.625 0.5
vt 0.625 0.45
vt 0.625 0.45
vt 0.625 0.05
vt 0.625 0.05
vt 0.625 0
vt 0.625 0
vt 0.83580005 0.64216
vt 0.83580005 0.64216
vt 0.83580005 0.60783994
vt 0.83580005 0.60783994
vt 0.625 0.6
vt 0.625 0.6
vt 0.66419995 0.60784006
vt 0.66419995 0.60784006
vt 0.73284006 0.7108002
vt 0.73284006 0.7108002
vt 0.76716006 0.7108001
vt 0.76716006 0.7108001
vt 0.66419995 0.64216006
vt 0.66419995 0.64216006
vt 0.625 0.65
vt 0.625 0.65
vt 0.625 0.15
vt 0.625 0.15
vt 0.625 0.1
vt 0.625 0.1
vt 0.66419995 0.6764801
vt 0.66419995 0.7108002
vt 0 0
vt 0.66419995 0.6764801
vt 0.625 0.7
vt 0.625 0.7
vt 0.66419995 0.6764801
vt 0.66419995 0.6764801
vt 0.625 0.75
vt 0.625 0.75
vt 0.625 0.7
vt 0.625 0.7
vt 0.69852 0.7108002
vt 0.69852 0.7108002
vt 0.675 0.75
vt 0.675 0.75
vt 0.8358001 0.67648005
vt 0.8358001 0.67648005
vt 0.875 0.70000005
vt 0.875 0.70000005
vt 0.725 0.75
vt 0.725 0.75
vt 0.73284006 0.7108002
vt 0.73284006 0.7108002
vt 0.66419995 0.60784006
vt 0.66419995 0.60784006
vt 0.66419995 0.64216006
vt 0.66419995 0.64216006
vt 0.875 0.65000004
vt 0.875 0.65000004
vt 0.83580005 0.64216
vt 0.83580005 0.64216
vt 0.625 0.8
vt 0.625 0.8
vt 0.625 0.75
vt 0.625 0.75
vt 0.5227567 0.39999998
vt 0.5227567 0.39999998
vt 0.5227567 0.35
vt 0.5227567 0.35
vt 0.5227567 0.9499999
vt 0.60609 0.95
vt 0.60609 0.95
vt 0.5227567 0.9499999
vt 0.39112377 0.95000005
vt 0.39112377 0.95000005
vt 0.5227567 0.90000004
vt 0.60609 0.95
vt 0.60609007 0.9
vt 0.5227567 0.9499999
vt 0.39112377 0.95000005
vt 0.39112377 0.90000004
vt 0.5227567 0.85
vt 0.39112377 0.90000004
vt 0.39112377 0.85
vt 0.5227567 0.79999995
vt 0.60608995 0.85
vt 0.60609 0.79999995
vt 0.39112377 0.79999995
vt 0.5227567 0.85
vt 0.5227567 0.85
vt 0.5227567 0.85
vt 0.60608995 0.85
vt 0.60608995 0.85
vt 0.5227567 0.1
vt 0.5227567 0.1
vt 0.60609007 0.1
vt 0.60609007 0.1
vt 0.60608995 0.49999997
vt 0.60608995 0.49999997
vt 0.60609 0.55
vt 0.60609 0.55
vt 0.5227567 0.6
vt 0.5227567 0.6
vt 0.60609 0.6
vt 0.60609 0.6
vt 0.60609 0.049999997
vt 0.60609 0.049999997
vt 0.5227567 0.049999997
vt 0.5227567 0.049999997
vt 0.39112377 0.05
vt 0.39112377 0.05
vt 0.5227567 0.70000005
vt 0.60609 0.7
vt 0.60609 0.7
vt 0.5227567 0.70000005
vt 0.39112377 0.70000005
vt 0.39112377 0.70000005
vt 0.5227567 0.3
vt 0.3911237 0.29999998
vt 0.3911237 0.29999998
vt 0.5227567 0.3
vt 0.60609 0.3
vt 0.60609 0.3
vt 0.5227567 0.35
vt 0.5227567 0.39999998
vt 0.60609007 0.39999998
vt 0.60609007 0.35000002
vt 0.5227567 0.85
vt 0.5227567 0.90000004
vt 0.60609007 0.9
vt 0.60608995 0.85
vt 0.5227567 0.1
vt 0.5227567 0.15
vt 0.60609 0.15
vt 0.60609007 0.1
vt 0.5227567 0.6
vt 0.5227567 0.65
vt 0.60609007 0.65
vt 0.60609 0.6
vt 0.5227567 0.35
vt 0.5227567 0.35
vt 0.60609007 0.35000002
vt 0.60609007 0.35000002
vt 0.60609007 0.65
vt 0.60609007 0.65
vt 0.5227567 0.65
vt 0.5227567 0.65
vt 0.5227567 0.90000004
vt 0.5227567 0.90000004
vt 0.5227567 0.85
vt 0.5227567 0.85
vt 0.60609007 0.35000002
vt 0.60609007 0.35000002
vt 0.60609007 0.39999998
vt 0.60609007 0.39999998
vt 0.60609 0.15
vt 0.60609 0.15
vt 0.5227567 0.15
vt 0.5227567 0.15
vt 0.5227567 0.15
vt 0.5227567 0.15
vt 0.5227567 0.1
vt 0.5227567 0.1
vt 0.60608995 0.85
vt 0.60608995 0.85
vt 0.60609007 0.9
vt 0.60609007 0.9
vt 0.5227567 0.65
vt 0.5227567 0.65
vt 0.5227567 0.6
vt 0.5227567 0.6
vt 0.60609007 0.9
vt 0.60609007 0.9
vt 0.5227567 0.90000004
vt 0.5227567 0.90000004
vt 0.60609007 0.1
vt 0.60609007 0.1
vt 0.60609 0.15
vt 0.60609 0.15
vt 0.60609007 0.39999998
vt 0.60609007 0.39999998
vt 0.5227567 0.39999998
vt 0.5227567 0.39999998
vt 0.60609 0.6
vt 0.60609 0.6
vt 0.60609007 0.65
vt 0.60609007 0.65
vt 0.39112377 0.79999995
vt 0.39112377 0.79999995
vt 0.39112377 0.85
vt 0.39112377 0.85
vt 0.39112377 0.90000004
vt 0.39112377 0.90000004
vt 0.39112377 0.95000005
vt 0.39112377 0.95000005
vt 0.39112377 0.55
vt 0.39112377 0.55
vt 0.39112377 0.6
vt 0.39112377 0.6
vt 0.39112377 0.65000004
vt 0.39112377 0.65000004
vt 0.39112377 0.70000005
vt 0.39112377 0.70000005
vt 0.39112374 0.74999994
vt 0.39112374 0.74999994
vt 0.39112377 0.79999995
vt 0.39112377 0.79999995
vt 0.39112377 0.5
vt 0.39112377 0.5
vt 0.39112377 0.55
vt 0.39112377 0.55
vt 0.39112377 0.15
vt 0.39112377 0.19999999
vt 0.39112377 0.19999999
vt 0.39112377 0.15
vt 0.39112377 0.1
vt 0.39112377 0.1
vt 0.39112377 0.05
vt 0.39112377 0.05
vt 0.39112377 0.95000005
vt 0.39112377 0.95000005
vt 0.39112377 1
vt 0.39112377 1
vt 0.3911237 0.29999998
vt 0.3911237 0.29999998
vt 0.39112377 0.34999996
vt 0.39112377 0.34999996
vt 0.39112377 0.40000004
vt 0.39112377 0.40000004
vt 0.39112377 0.45
vt 0.39112377 0.45
vt 0.39112377 0.70000005
vt 0.39112377 0.70000005
vt 0.39112374 0.74999994
vt 0.39112374 0.74999994
vt 0.3911238 0.25
vt 0.3911238 0.25
vt 0.3911237 0.29999998
vt 0.3911237 0.29999998
vt 0.39112377 0.45
vt 0.39112377 0.45
vt 0.39112377 0.5
vt 0.39112377 0.5
vt 0.39112377 0
vt 0.39112377 0
vt 0.39112377 0.05
vt 0.39112377 0.05
vt 0.60609007 0.75000006
vt 0.60609007 0.75000006
vt 0.60609 0.79999995
vt 0.60609 0.79999995
vt 0.39112377 0.19999999
vt 0.39112377 0.19999999
vt 0.3911238 0.25
vt 0.3911238 0.25
vt 0.375 0
vt 0.375 0.25
vt 0.625 0.25
vt 0.625 0
vt 0.375 0.25
vt 0.375 0.5
vt 0.625 0.5
vt 0.625 0.25
vt 0.375 0.5
vt 0.375 0.75
vt 0.625 0.75
vt 0.625 0.5
vt 0.375 0.75
vt 0.375 1
vt 0.625 1
vt 0.625 0.75
vt 0.625 0.5
vt 0.625 0.75
vt 0.875 0.75
vt 0.875 0.5
vt 0.5227567 0.45
vt 0.60609 0.45
vt 0.60609 0.45
vt 0.5227567 0.45
vt 0.39112377 0.45
vt 0.39112377 0.45
vt 0.60609 0.19999999
vt 0.60609 0.19999999
vt 0.60609007 0.25
vt 0.60609007 0.25
vt 0.60609 0.79999995
vt 0.60609 0.79999995
vt 0.5227567 0.79999995
vt 0.5227567 0.79999995
vt 0.39112377 0.79999995
vt 0.39112377 0.79999995
vt 0.60609 0.45
vt 0.60609 0.45
vt 0.60608995 0.49999997
vt 0.60608995 0.49999997
vt 0.39112377 0.34999996
vt 0.3911237 0.29999998
vt 0.375 0.3
vt 0.375 0.35
vt 0.39112377 0.40000004
vt 0.375 0.4
vt 0.39112377 0.45
vt 0.375 0.45000002
vt 0.3911238 0.25
vt 0.375 0.25
vt 0.375 0.3
vt 0.3911237 0.29999998
vt 0.39112377 0.90000004
vt 0.375 0.95000005
vt 0.39112377 0.95000005
vt 0.375 0.90000004
vt 0.39112377 0.85
vt 0.375 0.84999996
vt 0.39112377 0.79999995
vt 0.375 0.79999995
vt 0.39112374 0.74999994
vt 0.375 0.75
vt 0.375 0.79999995
vt 0.39112377 0.79999995
vt 0.39112377 0.15
vt 0.375 0.2
vt 0.39112377 0.19999999
vt 0.375 0.15
vt 0.375 0.1
vt 0.39112377 0.1
vt 0.375 0.05
vt 0.39112377 0.05
vt 0.39112377 0.05
vt 0.39112377 0
vt 0.375 0
vt 0.375 0.05
vt 0.39112377 0.70000005
vt 0.375 0.65000004
vt 0.375 0.70000005
vt 0.39112377 0.65000004
vt 0.375 0.6
vt 0.39112377 0.6
vt 0.375 0.55
vt 0.39112377 0.55
vt 0.39112377 0.55
vt 0.39112377 0.5
vt 0.375 0.5
vt 0.375 0.55
vt 0.39112377 1
vt 0.39112377 0.95000005
vt 0.375 0.95000005
vt 0.375 1
vt 0.39112377 0.19999999
vt 0.375 0.2
vt 0.375 0.25
vt 0.3911238 0.25
vt 0.375 0.45000002
vt 0.375 0.5
vt 0.39112377 0.5
vt 0.39112377 0.45
vt 0.375 0.70000005
vt 0.375 0.75
vt 0.39112374 0.74999994
vt 0.39112377 0.70000005
vt 0 0
vt 0 0
vt 0 0
vt 0 0
vt 0.5227567 0.25
vt 0.60609 0.3
vt 0.60609007 0.25
vt 0.5227567 0.3
vt 0.3911237 0.29999998
vt 0.3911238 0.25
vt 0.5227567 0.75
vt 0.60609 0.79999995
vt 0.60609007 0.75000006
vt 0.5227567 0.79999995
vt 0.39112377 0.79999995
vt 0.39112374 0.74999994
vt 0.5227567 0
vt 0.60609 0.049999997
vt 0.60609 0
vt 0.5227567 0.049999997
vt 0.39112377 0
vt 0.39112377 0.05
vt 0.5227567 0.5
vt 0.60609 0.55
vt 0.60608995 0.49999997
vt 0.5227567 0.54999995
vt 0.39112377 0.5
vt 0.39112377 0.55
vt 0.5227567 0.9499999
vt 0.60609 1
vt 0.60609 0.95
vt 0.52275664 0.99999994
vt 0.39112377 0.95000005
vt 0.39112377 1
vt 0.5227567 0.70000005
vt 0.60609007 0.75000006
vt 0.60609 0.7
vt 0.5227567 0.75
vt 0.39112377 0.70000005
vt 0.39112374 0.74999994
vt 0.5227567 0.45
vt 0.60608995 0.49999997
vt 0.60609 0.45
vt 0.5227567 0.5
vt 0.39112377 0.45
vt 0.39112377 0.5
vt 0.5227567 0.19999999
vt 0.60609007 0.25
vt 0.60609 0.19999999
vt 0.5227567 0.25
vt 0.3911238 0.25
vt 0.39112377 0.19999999
vt 0.39112377 0.5
vt 0.39112377 0.5
vt 0.39112377 0.45
vt 0.39112377 0.45
vt 0.60609 0.95
vt 0.60609 0.95
vt 0.60609 1
vt 0.60609 1
vt 0.39112377 0.19999999
vt 0.39112377 0.19999999
vt 0.5227567 0.19999999
vt 0.5227567 0.19999999
vt 0.60609 0.19999999
vt 0.60609 0.19999999
vt 0.60609007 0.25
vt 0.60609007 0.25
vt 0.60609 0.3
vt 0.60609 0.3
vt 0.5227567 0.54999995
vt 0.39112377 0.55
vt 0.39112377 0.55
vt 0.5227567 0.54999995
vt 0.60609 0.55
vt 0.60609 0.55
vt 0.60609 0.7
vt 0.60609 0.7
vt 0.60609007 0.75000006
vt 0.60609007 0.75000006
vt 0.39112377 0.55
vt 0.39112377 0.55
vt 0.39112377 0.5
vt 0.39112377 0.5
vt 0.60609 0
vt 0.60609 0
vt 0.60609 0.049999997
vt 0.60609 0.049999997
vt 0.39112377 0.05
vt 0.39112377 0.05
vt 0.39112377 0.05
vt 0.39112377 0.05
vt 0.39112377 0.5
vt 0.39112377 0.45
vt 0.39112377 0.45
vt 0.39112377 0.5
vt 0.39112377 0.70000005
vt 0.39112377 0.70000005
vt 0.39112374 0.74999994
vt 0.39112374 0.74999994
vt 0.39112377 0.70000005
vt 0.39112377 0.70000005
vt 0.39112377 0.70000005
vt 0.39112377 0.70000005
vt 0.39112377 0.79999995
vt 0.39112377 0.79999995
vt 0.39112377 0.79999995
vt 0.39112377 0.79999995
vt 0.39112377 0.95000005
vt 0.39112377 0.95000005
vt 0.39112377 1
vt 0.39112377 1
vt 0.3911237 0.29999998
vt 0.3911237 0.29999998
vt 0.3911237 0.29999998
vt 0.3911237 0.29999998
vt 0.39112377 0.55
vt 0.39112377 0.5
vt 0.39112377 0.5
vt 0.39112377 0.55
vt 0.39112377 0
vt 0.39112377 0
vt 0.39112377 0.05
vt 0.39112377 0.05
vt 0.39112377 0.55
vt 0.39112377 0.55
vt 0.39112377 0.55
vt 0.39112377 0.55
vt 0.39112377 0.19999999
vt 0.39112377 0.19999999
vt 0.39112377 0.19999999
vt 0.39112377 0.19999999
vt 0.39112374 0.74999994
vt 0.39112374 0.74999994
vt 0.39112377 0.79999995
vt 0.39112377 0.79999995
vt 0.3911238 0.25
vt 0.3911238 0.25
vt 0.3911237 0.29999998
vt 0.3911237 0.29999998
vt 0.39112377 0.95000005
vt 0.39112377 0.95000005
vt 0.39112377 0.95000005
vt 0.39112377 0.95000005
vt 0.39112377 0.19999999
vt 0.39112377 0.19999999
vt 0.3911238 0.25
vt 0.3911238 0.25
vt 0.39112377 0.45
vt 0.39112377 0.45
vt 0.39112377 0.45
vt 0.39112377 0.45
vt 0.6641999 0.57352
vt 0.6641999 0.57352
vt 0 0
vt 0.6641999 0.53919995
vt 0.69851995 0.53919995
vt 0.6641999 0.53919995
vt 0 0
vt 0.69851995 0.53919995
vt 0.83580005 0.5391999
vt 0 0
vt 0.83580005 0.57351995
vt 0.83580005 0.57351995
vt 0.80148005 0.5391999
vt 0.80148005 0.5391999
vt 0 0
vt 0.83580005 0.5391999
vn -0.9997551 0 0.022132928
vn -0.9997551 0 0.022132928
vn -0.9997551 0 0.022132928
vn -0.9997551 0 0.022132928
vn -0 0.9997551 0.022133175
vn -0 0.9997551 0.022133175
vn -0 0.9997551 0.022133175
vn -0 0.9997551 0.022133175
vn 0.9997551 0 0.022133099
vn 0.9997551 0 0.022133099
vn 0.9997551 0 0.022133099
vn 0.9997551 0 0.022133099
vn -0 -0.9997551 0.022133123
vn -0 -0.9997551 0.022133123
vn -0 -0.9997551 0.022133123
vn -0 -0.9997551 0.022133123
vn -0.99969196 -0.024818571 0
vn -0.99969196 -0.024818571 0
vn -0.99969196 -0.024818571 0
vn -0.99969196 -0.024818571 0
vn 1 0 0
vn 1 0 0
vn 1 0 0
vn 1 0 0
vn 0.9972379 0.07427312 0
vn 0.9972379 0.07427312 0
vn 0.9972379 0.07427312 0
vn 0.9972379 0.07427312 0
vn -0 0 1
vn -0 0 1
vn -0 0 1
vn -0 0 1
vn -0 -1 0
vn -0 -1 0
vn -0 -1 0
vn -0 -1 0
vn -0 0 1
vn -0 0 1
vn -0 0 1
vn -0 0 1
vn -0 0 1
vn -0 0 1
vn -0 0 1
vn -0 0 1
vn -0.07427393 -0.9972379 0
vn -0.07427393 -0.9972379 0
vn -0.07427393 -0.9972379 0
vn -0.07427393 -0.9972379 0
vn -0 0 1
vn -0 0 1
vn -0 0 1
vn -0 0 1
vn 0.9997551 0 0.022133125
vn 0.9997551 0 0.022133125
vn 0.9997551 0 0.022133125
vn 0.9997551 0 0.022133125
vn 0.9998429 -0.0049735694 0.017014116
vn 0.9998429 -0.0049735694 0.017014116
vn 0.9998429 -0.0049735694 0.017014116
vn 0.9996381 0.003180606 0.026712462
vn 0.9996381 0.003180606 0.026712462
vn 0.9996381 0.003180606 0.026712462
vn 0.99957997 0.010238907 0.02711276
vn 0.99957997 0.010238907 0.02711276
vn 0.99969244 0 0.024801973
vn 0.99969244 0 0.024801973
vn 0.99969244 0 0.024801973
vn 0.99990416 0 0.013844079
vn 0.99990416 0 0.013844079
vn 0.99990416 0 0.013844079
vn 0.9998429 0.004973426 0.017014068
vn 0.9998429 0.004973426 0.017014068
vn 0.9996381 -0.0031806065 0.02671247
vn 0.99957997 -0.0102389045 0.027112754
vn 0.9996381 -0.0031806065 0.02671247
vn 0.9996381 -0.0031806065 0.02671247
vn 0.9996381 -0.0031806065 0.02671247
vn -0.9997551 0 0.02213291
vn -0.9997551 0 0.02213291
vn -0.9997551 0 0.02213291
vn -0.9997551 0 0.02213291
vn -0.9998429 0.0049735536 0.01701391
vn -0.9998429 0.0049735536 0.01701391
vn -0.9998429 0.0049735536 0.01701391
vn -0.9998429 0.0049735536 0.01701391
vn -0.99990416 0 0.013843955
vn -0.99990416 0 0.013843955
vn -0.9998429 -0.004973567 0.017013956
vn -0.9998429 -0.004973567 0.017013956
vn -0.9998429 -0.004973567 0.017013956
vn -0.9996381 0.0031807516 0.026712298
vn -0.9996381 0.0031807516 0.026712298
vn -0.9996381 0.0031807516 0.026712298
vn -0.99957997 0.010238905 0.02711265
vn -0.99969244 0 0.024801878
vn -0.99969244 0 0.024801878
vn -0.99969244 0 0.024801878
vn -0.9996381 -0.0031807523 0.026712304
vn -0.99957997 -0.0102389045 0.02711265
vn -0.99957997 -0.0102389045 0.02711265
vn -0.9996381 -0.0031807523 0.026712304
vn -0.9996381 -0.0031807523 0.026712304
vn -0.9996381 -0.0031807523 0.026712304
vn 0.99723804 -0.07427202 0
vn 0.99723804 -0.07427202 0
vn 0.99723804 -0.07427202 0
vn 0.99723804 -0.07427202 0
vn -0 0 1
vn -0 0 1
vn -0 0 1
vn -0 0 1
vn -0 -1 0
vn -0 -1 0
vn -0 -1 0
vn -0 -1 0
vn -0 0 1
vn -0 0 1
vn -0 0 1
vn -0 0 1
vn 0.024819164 0.99969196 0
vn 0.024819164 0.99969196 0
vn 0.024819164 0.99969196 0
vn 0.024819164 0.99969196 0
vn -0 0 1
vn -0 0 1
vn -0 0 1
vn -0 0 1
vn -0.99969196 0.0248182 0
vn -0.99969196 0.0248182 0
vn -0.99969196 0.0248182 0
vn -0.99969196 0.0248182 0
vn -0 0 1
vn -0 0 1
vn -0 0 1
vn -0 0 1
vn -1 0 0
vn -1 0 0
vn -1 0 0
vn -1 0 0
vn -0 -1 0
vn -0 -1 0
vn -0 -1 0
vn -0 -1 0
vn 1 0 0
vn 1 0 0
vn 1 0 0
vn 1 0 0
vn -0 1 0
vn -0 1 0
vn -0 1 0
vn -0 1 0
vn -0 -0.9997551 0.022132901
vn -0 -0.9997551 0.022132901
vn -0 -0.9997551 0.022132901
vn -0 -0.9997551 0.022132901
vn -0.004973513 -0.9998429 0.017014097
vn -0.004973513 -0.9998429 0.017014097
vn -0.004973513 -0.9998429 0.017014097
vn -0 -0.99990416 0.013843863
vn -0 -0.99990416 0.013843863
vn -0 -0.99990416 0.013843863
vn -0 -0.99990416 0.013843863
vn 0.0049735126 -0.9998429 0.017013967
vn 0.0049735126 -0.9998429 0.017013967
vn -0 0.9997551 0.022133103
vn -0 0.9997551 0.022133103
vn -0 0.9997551 0.022133103
vn -0 0.9997551 0.022133103
vn 0.0049735606 0.9998429 0.017014096
vn 0.0049735606 0.9998429 0.017014096
vn 0.0049735606 0.9998429 0.017014096
vn -0 0.99990416 0.013844054
vn -0 0.99990416 0.013844054
vn -0 0.99990416 0.013844054
vn -0 0.99990416 0.013844054
vn -0.004973561 0.9998429 0.01701416
vn -0.004973561 0.9998429 0.01701416
vn -0.004973561 0.9998429 0.01701416
vn -0.004973561 0.9998429 0.01701416
vn 0.0031807148 0.9996381 0.026712459
vn 0.0031807148 0.9996381 0.026712459
vn 0.0031807148 0.9996381 0.026712459
vn 0.010238794 0.99957997 0.027112717
vn 0.010238794 0.99957997 0.027112717
vn -0 0.99969244 0.02480203
vn -0 0.99969244 0.02480203
vn -0.0031807143 0.9996381 0.026712462
vn -0.010238793 0.99957997 0.02711277
vn -0.010238793 0.99957997 0.02711277
vn -0.0031807143 0.9996381 0.026712462
vn -0.0031807143 0.9996381 0.026712462
vn -0.0031807143 0.9996381 0.026712462
vn -0 0 1
vn -0 0 1
vn -0 0 1
vn -0 0 1
vn -0 0 1
vn -0 0 1
vn -0 0 1
vn -0 0 1
vn -0 0 1
vn -0 0 1
vn -0 0 1
vn -0 0 1
vn -0 0 1
vn -0 0 1
vn -0 0 1
vn -0 0 1
vn -0 0 1
vn -0 0 1
vn -0 0 1
vn -0 0 1
vn -0 0 1
vn -0 0 1
vn -0 0 1
vn -0 0 1
vn -0 0 1
vn -0 0 1
vn -0 0 1
vn -0 0 1
vn -0 0 1
vn -0 0 1
vn -0 0 1
vn -0 0 1
vn -0 0 1
vn -0 0 1
vn -0 0 1
vn -0 0 1
vn -0 0 1
vn -0 0 1
vn -0 0 1
vn -0 0 1
vn 0.99969196 -0.024818776 0
vn 0.99969196 -0.024818776 0
vn 0.99969196 -0.024818776 0
vn 0.99969196 -0.024818776 0
vn 1 0 0
vn 1 0 0
vn 1 0 0
vn 1 0 0
vn 1 0 0
vn 1 0 0
vn 1 0 0
vn 1 0 0
vn -0.9972379 0.07427323 0
vn -0.9972379 0.07427323 0
vn -0.9972379 0.07427323 0
vn -0.9972379 0.07427323 0
vn -1 0 0
vn -1 0 0
vn -1 0 0
vn -1 0 0
vn -0 1 0
vn -0 1 0
vn -0 1 0
vn -0 1 0
vn -0 -1 0
vn -0 -1 0
vn -0 -1 0
vn -0 -1 0
vn -0 1 0
vn -0 1 0
vn -0 1 0
vn -0 1 0
vn -0 1 0
vn -0 1 0
vn -0 1 0
vn -0 1 0
vn -0 1 0
vn -0 1 0
vn -0 1 0
vn -0 1 0
vn 0.07427402 -0.9972378 0
vn 0.07427402 -0.9972378 0
vn 0.07427402 -0.9972378 0
vn 0.07427402 -0.9972378 0
vn -0 1 0
vn -0 1 0
vn -0 1 0
vn -0 1 0
vn -1 0 0
vn -1 0 0
vn -1 0 0
vn -1 0 0
vn 1 0 0
vn 1 0 0
vn 1 0 0
vn 1 0 0
vn -0.024819195 0.99969196 0
vn -0.024819195 0.99969196 0
vn -0.024819195 0.99969196 0
vn -0.024819195 0.99969196 0
vn -0 1 0
vn -0 1 0
vn -0 1 0
vn -0 1 0
vn -0.024816744 -0.9996921 0
vn -0.024816744 -0.9996921 0
vn -0.024816744 -0.9996921 0
vn -0.024816744 -0.9996921 0
vn -1 0 0
vn -1 0 0
vn -1 0 0
vn -1 0 0
vn -1 0 0
vn -1 0 0
vn -1 0 0
vn -1 0 0
vn 0.07427159 0.99723804 0
vn 0.07427159 0.99723804 0
vn 0.07427159 0.99723804 0
vn 0.07427159 0.99723804 0
vn 1 0 0
vn 1 0 0
vn 1 0 0
vn 1 0 0
vn -0.99723804 -0.07427214 0
vn -0.99723804 -0.07427214 0
vn -0.99723804 -0.07427214 0
vn -0.99723804 -0.07427214 0
vn -0.074271485 0.99723804 0
vn -0.074271485 0.99723804 0
vn -0.074271485 0.99723804 0
vn -0.074271485 0.99723804 0
vn 0.99969196 0.024818404 0
vn 0.99969196 0.024818404 0
vn 0.99969196 0.024818404 0
vn 0.99969196 0.024818404 0
vn -1 0 0
vn -1 0 0
vn -1 0 0
vn -1 0 0
vn 0.024816712 -0.9996921 0
vn 0.024816712 -0.9996921 0
vn 0.024816712 -0.9996921 0
vn 0.024816712 -0.9996921 0
vn -0 -1 0
vn -0 -1 0
vn -0 -1 0
vn -0 -1 0
vn -0 -0.045050804 0.99898463
vn -0 -0.045050804 0.99898463
vn -0 -0.045050804 0.99898463
vn -0 -0.045050804 0.99898463
vn 0.6869676 -0.726655 0.0069235885
vn 0.6869676 -0.726655 0.0069235885
vn 0.6869676 -0.726655 0.0069235885
vn 0.6869676 -0.726655 0.0069235885
vn 0.68605506 -0.72749305 0.009076081
vn 0.68605506 -0.72749305 0.009076081
vn -0.0031806962 -0.9996381 0.026712358
vn -0.0031806962 -0.9996381 0.026712358
vn -0.0031806962 -0.9996381 0.026712358
vn -0.0031806962 -0.9996381 0.026712358
vn -0.010238742 -0.99957997 0.02711265
vn -0.010238742 -0.99957997 0.02711265
vn 0.0031806966 -0.9996381 0.026712265
vn -0 -0.99969244 0.024801902
vn 0.010238743 -0.99957997 0.027112627
vn 0.0031806966 -0.9996381 0.026712265
vn 0.0031806966 -0.9996381 0.026712265
vn 0.0031806966 -0.9996381 0.026712265
vn 0.010238743 -0.99957997 0.027112627
vn 0.010238743 -0.99957997 0.027112627
vn -0.99999726 -0.00010525667 -0.0023341442
vn -0.99999726 -0.00010525667 -0.0023341442
vn -0.99999726 -0.00010525667 -0.0023341442
vn -0.99999726 -0.00010525667 -0.0023341442
vn -0.000105252504 0.99999726 -0.0023339887
vn -0.000105252504 0.99999726 -0.0023339887
vn -0.000105252504 0.99999726 -0.0023339887
vn -0.000105252504 0.99999726 -0.0023339887
vn 0.06586633 0 0.9978284
vn 0.06586633 0 0.9978284
vn 0.06586633 0 0.9978284
vn 0.06586633 0 0.9978284
vn 0.00010526501 -0.99999726 -0.0023341433
vn 0.00010526501 -0.99999726 -0.0023341433
vn 0.00010526501 -0.99999726 -0.0023341433
vn 0.00010526501 -0.99999726 -0.0023341433
vn -0.72665477 0.6869679 0.0069235694
vn -0.72665477 0.6869679 0.0069235694
vn -0.72665477 0.6869679 0.0069235694
vn -0.72665477 0.6869679 0.0069235694
vn -0.72749233 0.6860557 0.009076059
vn -0.72749233 0.6860557 0.009076059
vn 0.7266547 0.68696797 0.006923698
vn 0.7266547 0.68696797 0.006923698
vn 0.7266547 0.68696797 0.006923698
vn 0.7266547 0.68696797 0.006923698
vn 0.7274921 0.68605596 0.009076149
vn 0.7274921 0.68605596 0.009076149
vn 0.68605554 0.7274926 0.009076193
vn 0.68605554 0.7274926 0.009076193
vn 0.68605554 0.7274926 0.009076193
vn 0.68605554 0.7274926 0.009076193
vn 0.6869682 0.7266545 0.006923631
vn 0.6869682 0.7266545 0.006923631
vn -0 0.9994356 0.03359018
vn -0 0.9994356 0.03359018
vn -0 0.9994356 0.03359018
vn -0 0.9994356 0.03359018
vn -0 -0.9994357 0.033589885
vn -0 -0.9994357 0.033589885
vn -0 -0.9994357 0.033589885
vn -0 -0.9994357 0.033589885
vn -0.9994357 0 0.033589948
vn -0.9994357 0 0.033589948
vn -0.9994357 0 0.033589948
vn -0.9994357 0 0.033589948
vn 0.9994356 0 0.033590145
vn 0.9994356 0 0.033590145
vn 0.9994356 0 0.033590145
vn 0.9994356 0 0.033590145
vn 0.99999726 0.000105256644 -0.0023339868
vn 0.99999726 0.000105256644 -0.0023339868
vn 0.99999726 0.000105256644 -0.0023339868
vn 0.99999726 0.000105256644 -0.0023339868
vn 0.000105256695 0.99999726 -0.0023339868
vn 0.000105256695 0.99999726 -0.0023339868
vn 0.000105256695 0.99999726 -0.0023339868
vn 0.000105256695 0.99999726 -0.0023339868
vn -0 0.045048974 0.99898475
vn -0 0.045048974 0.99898475
vn -0 0.045048974 0.99898475
vn -0 0.045048974 0.99898475
vn -0 0.0450508 -0.99898463
vn -0 0.0450508 -0.99898463
vn -0 0.0450508 -0.99898463
vn -0 0.0450508 -0.99898463
vn -0.00010526084 -0.99999726 -0.0023341444
vn -0.00010526084 -0.99999726 -0.0023341444
vn -0.00010526084 -0.99999726 -0.0023341444
vn -0.00010526084 -0.99999726 -0.0023341444
vn 0.04504832 0 0.99898475
vn 0.04504832 0 0.99898475
vn 0.04504832 0 0.99898475
vn 0.04504832 0 0.99898475
vn -0 -0.045048963 -0.99898475
vn -0 -0.045048963 -0.99898475
vn -0 -0.045048963 -0.99898475
vn -0 -0.045048963 -0.99898475
vn -0.045050558 0 0.99898463
vn -0.045050558 0 0.99898463
vn -0.045050558 0 0.99898463
vn -0.045050558 0 0.99898463
vn 0.99999726 -0.0001052567 -0.0023339882
vn 0.99999726 -0.0001052567 -0.0023339882
vn 0.99999726 -0.0001052567 -0.0023339882
vn 0.99999726 -0.0001052567 -0.0023339882
vn -0.045050003 0 -0.99898475
vn -0.045050003 0 -0.99898475
vn -0.045050003 0 -0.99898475
vn -0.045050003 0 -0.99898475
vn -0.99999726 0.000105256615 -0.0023341426
vn -0.99999726 0.000105256615 -0.0023341426
vn -0.99999726 0.000105256615 -0.0023341426
vn -0.99999726 0.000105256615 -0.0023341426
vn 0.045050003 0 -0.99898475
vn 0.045050003 0 -0.99898475
vn 0.045050003 0 -0.99898475
vn 0.045050003 0 -0.99898475
vn -0 -0.7389313 0.67378086
vn -0 -0.7389313 0.67378086
vn -0 -0.7389313 0.67378086
vn -0 -0.7389313 0.67378086
vn -0 -0.7389313 0.6737808
vn -0 -0.7389313 0.6737808
vn -0 -0.7389313 0.6737808
vn -0 -0.7389313 0.6737808
vn 0.73893124 0 0.6737808
vn 0.73893124 0 0.6737808
vn 0.7389313 0 0.6737808
vn 0.7389313 0 0.6737808
vn 0.7389313 0 0.6737808
vn 0.7389313 0 0.6737808
vn 0.73893124 0 0.67378086
vn 0.73893124 0 0.67378086
vn 0.038204893 -0.7686432 0.63853586
vn 0.038204893 -0.7686432 0.63853586
vn 0.038204893 -0.7686432 0.63853586
vn 0.038204893 -0.7686432 0.63853586
vn 0.76864296 0.038204797 0.63853616
vn 0.76864296 0.038204797 0.63853616
vn 0.76864296 0.038204797 0.63853616
vn 0.76864296 0.038204797 0.63853616
vn -0.73893124 0 0.6737808
vn -0.73893124 0 0.6737808
vn -0.73893124 0 0.6737808
vn -0.73893124 0 0.6737808
vn -0.7389313 0 0.6737808
vn -0.7389313 0 0.6737808
vn -0.73893124 0 0.67378086
vn -0.73893124 0 0.67378086
vn -0.038204893 -0.76864296 0.63853616
vn -0.038204893 -0.76864296 0.63853616
vn -0.038204893 -0.76864296 0.63853616
vn -0.038204893 -0.76864296 0.63853616
vn -0 0.7389313 0.6737808
vn -0 0.7389313 0.6737808
vn -0 0.73893124 0.67378086
vn -0 0.73893124 0.67378086
vn -0 0.73893124 0.67378086
vn -0 0.73893124 0.67378086
vn -0 0.7389313 0.67378086
vn -0 0.7389313 0.67378086
vn 0.7686431 -0.038204793 0.638536
vn 0.7686431 -0.038204793 0.638536
vn 0.7686431 -0.038204793 0.638536
vn 0.7686431 -0.038204793 0.638536
vn -0.038204893 0.76864296 0.63853616
vn -0.038204893 0.76864296 0.63853616
vn -0.038204893 0.76864296 0.63853616
vn -0.038204893 0.76864296 0.63853616
vn 0.038204893 0.7686432 0.63853586
vn 0.038204893 0.7686432 0.63853586
vn 0.038204893 0.7686432 0.63853586
vn 0.038204893 0.7686432 0.63853586
vn -0.7686432 -0.03820496 0.6385359
vn -0.7686432 -0.03820496 0.6385359
vn -0.7686432 -0.03820496 0.6385359
vn -0.7686432 -0.03820496 0.6385359
vn -0 -0.06586857 0.9978283
vn -0 -0.06586857 0.9978283
vn -0 -0.06586857 0.9978283
vn -0 -0.06586857 0.9978283
vn -0.768643 0.038204957 0.63853604
vn -0.768643 0.038204957 0.63853604
vn -0.768643 0.038204957 0.63853604
vn -0.768643 0.038204957 0.63853604
vn -1 0 0
vn -1 0 0
vn -1 0 0
vn -1 0 0
vn -0 1 0
vn -0 1 0
vn -0 1 0
vn -0 1 0
vn 1 0 0
vn 1 0 0
vn 1 0 0
vn 1 0 0
vn -0 -1 0
vn -0 -1 0
vn -0 -1 0
vn -0 -1 0
vn -0 0 1
vn -0 0 1
vn -0 0 1
vn -0 0 1
vn -0.68696785 0.72665477 0.0069235475
vn -0.68696785 0.72665477 0.0069235475
vn -0.68696785 0.72665477 0.0069235475
vn -0.68696785 0.72665477 0.0069235475
vn -0.6860554 0.72749263 0.009076081
vn -0.6860554 0.72749263 0.009076081
vn -0.06586629 0 0.9978284
vn -0.06586629 0 0.9978284
vn -0.06586629 0 0.9978284
vn -0.06586629 0 0.9978284
vn -0.68696725 -0.7266553 0.0069235046
vn -0.68696725 -0.7266553 0.0069235046
vn -0.68696725 -0.7266553 0.0069235046
vn -0.68696725 -0.7266553 0.0069235046
vn -0.6860549 -0.7274932 0.0090760095
vn -0.6860549 -0.7274932 0.0090760095
vn -0 0.0658684 0.9978283
vn -0 0.0658684 0.9978283
vn -0 0.0658684 0.9978283
vn -0 0.0658684 0.9978283
vn -0 0.9978739 -0.06517533
vn -0 0.9978739 -0.065175235
vn -0 0.9978739 -0.065175235
vn -0 0.9978739 -0.06517533
vn -0 0.9978739 -0.06517533
vn -0 0.9978739 -0.06517533
vn -0 0.9978739 -0.0651751
vn -0 0.9978739 -0.0651751
vn -0.058439102 0.9972385 -0.045828324
vn -0.058439102 0.9972385 -0.045828324
vn -0.058439102 0.9972385 -0.045828324
vn -0.058439102 0.9972385 -0.045828324
vn -0 -0.9978739 -0.06517521
vn -0 -0.9978739 -0.06517521
vn -0 -0.9978739 -0.06517521
vn -0 -0.9978739 -0.06517521
vn -0 -0.9978739 -0.06517528
vn -0 -0.9978739 -0.06517528
vn -0 -0.9978739 -0.06517508
vn -0 -0.9978739 -0.06517508
vn 0.058439095 -0.9972385 -0.045828212
vn 0.058439095 -0.9972385 -0.045828212
vn 0.058439095 -0.9972385 -0.045828212
vn 0.058439095 -0.9972385 -0.045828212
vn -0.9978739 0 -0.0651753
vn -0.9978739 0 -0.0651753
vn -0.9978739 0 -0.0651753
vn -0.9978739 0 -0.0651753
vn -0.9978739 0 -0.06517529
vn -0.9978739 0 -0.06517529
vn -0.9978739 0 -0.06517529
vn -0.9978739 0 -0.06517529
vn -0.9972385 -0.058438987 -0.045828182
vn -0.9972385 -0.058438987 -0.045828182
vn -0.9972385 -0.058438987 -0.045828182
vn -0.9972385 -0.058438987 -0.045828182
vn 0.9978739 0 -0.06517529
vn 0.9978739 0 -0.06517529
vn 0.9978739 0 -0.06517529
vn 0.9978739 0 -0.06517529
vn 0.9978739 0 -0.06517529
vn 0.9978739 0 -0.06517529
vn 0.9978739 0 -0.065175295
vn 0.9978739 0 -0.065175295
vn 0.9972385 0.058438778 -0.045828227
vn 0.9972385 0.058438778 -0.045828227
vn 0.9972385 0.058438778 -0.045828227
vn 0.9972385 0.058438778 -0.045828227
vn -0.058439117 -0.9972385 -0.04582831
vn -0.058439117 -0.9972385 -0.04582831
vn -0.058439117 -0.9972385 -0.04582831
vn -0.058439117 -0.9972385 -0.04582831
vn -0.9972385 0.058438983 -0.045828182
vn -0.9972385 0.058438983 -0.045828182
vn -0.9972385 0.058438983 -0.045828182
vn -0.9972385 0.058438983 -0.045828182
vn 0.058439087 0.9972385 -0.0458282
vn 0.058439087 0.9972385 -0.0458282
vn 0.058439087 0.9972385 -0.0458282
vn 0.058439087 0.9972385 -0.0458282
vn 0.9972385 -0.05843878 -0.045828227
vn 0.9972385 -0.05843878 -0.045828227
vn 0.9972385 -0.05843878 -0.045828227
vn 0.9972385 -0.05843878 -0.045828227
vn -0 0 1
vn -0 0 1
vn -0 0 1
vn -0 0 1
vn -0 0.99976045 0.021887867
vn -0 0.99976045 0.021887867
vn -0 0.99976045 0.021887867
vn -0 0.99976045 0.021887867
vn -0 0.9995962 0.028416699
vn -0 0.9995962 0.028416699
vn -0 -0.99976045 0.021887729
vn -0 -0.99976045 0.021887729
vn -0 -0.99976045 0.021887729
vn -0 -0.99976045 0.021887729
vn -0 -0.9995962 0.02841663
vn -0 -0.9995962 0.02841663
vn -0.99976045 0 0.02188769
vn -0.99976045 0 0.02188769
vn -0.99976045 0 0.02188769
vn -0.99976045 0 0.02188769
vn -0.9995962 0 0.02841663
vn -0.9995962 0 0.02841663
vn 0.99976045 0 0.02188786
vn 0.99976045 0 0.02188786
vn 0.99976045 0 0.02188786
vn 0.99976045 0 0.02188786
vn 0.9995962 0 0.028416766
vn 0.9995962 0 0.028416766
vn -0 -0.99976045 0.021887751
vn -0 -0.99976045 0.021887751
vn -0 -0.99976045 0.021887751
vn -0 -0.99976045 0.021887751
vn -0 -0.9995962 0.028416647
vn -0 -0.9995962 0.028416647
vn 0.99976045 0 0.021887854
vn 0.99976045 0 0.021887854
vn 0.99976045 0 0.021887854
vn 0.99976045 0 0.021887854
vn 0.9995962 0 0.028416758
vn 0.9995962 0 0.028416758
vn -0 0.99976045 0.021887854
vn -0 0.99976045 0.021887854
vn -0 0.99976045 0.021887854
vn -0 0.99976045 0.021887854
vn -0 0.9995962 0.028416686
vn -0 0.9995962 0.028416686
vn -0.99976045 0 0.021887673
vn -0.99976045 0 0.021887673
vn -0.99976045 0 0.021887673
vn -0.99976045 0 0.021887673
vn -0.9995962 0 0.028416654
vn -0.9995962 0 0.028416654
vn -0 0.06045014 -0.9981712
vn -0 0.06045014 -0.9981712
vn -0 0.06045014 -0.9981712
vn -0 0.06045014 -0.9981712
vn -0 -0.06586945 0.9978282
vn -0 -0.06586945 0.9978282
vn -0 -0.06586945 0.9978282
vn -0 -0.06586945 0.9978282
vn -0.727493 -0.68605506 0.009076026
vn -0.727493 -0.68605506 0.009076026
vn -0.727493 -0.68605506 0.009076026
vn -0.727493 -0.68605506 0.009076026
vn -0.7266553 -0.68696725 0.0069234823
vn -0.7266553 -0.68696725 0.0069234823
vn -0 0.06586844 0.9978283
vn -0 0.06586844 0.9978283
vn -0 0.06586844 0.9978283
vn -0 0.06586844 0.9978283
vn 0.7274928 -0.68605536 0.009076103
vn 0.7274928 -0.68605536 0.009076103
vn 0.7274928 -0.68605536 0.009076103
vn 0.7274928 -0.68605536 0.009076103
vn 0.7266553 -0.68696725 0.0069236057
vn 0.7266553 -0.68696725 0.0069236057
vn 0.065866336 0 0.9978284
vn 0.065866336 0 0.9978284
vn 0.065866336 0 0.9978284
vn 0.065866336 0 0.9978284
vn 0.06045039 0 -0.9981712
vn 0.06045039 0 -0.9981712
vn 0.06045039 0 -0.9981712
vn 0.06045039 0 -0.9981712
vn -0.065864265 0 0.99782854
vn -0.065864265 0 0.99782854
vn -0.065864265 0 0.99782854
vn -0.065864265 0 0.99782854
vn -0.6964337 0.69226015 0.18909255
vn -0.6964337 0.69226015 0.18909255
vn -0.6964337 0.69226015 0.18909255
vn -0.6964337 0.69226015 0.18909255
vn -0 0.98887944 0.14871907
vn -0 0.98887944 0.14871907
vn -0 0.98887944 0.14871907
vn -0 0.98887944 0.14871907
vn 0.98887944 0 0.14871913
vn 0.98887944 0 0.14871913
vn 0.98887944 0 0.14871913
vn 0.98887944 0 0.14871913
vn 0.69643366 0.69226015 0.18909259
vn 0.69643366 0.69226015 0.18909259
vn 0.69643366 0.69226015 0.18909259
vn 0.69643366 0.69226015 0.18909259
vn -0.69225955 -0.6964341 0.18909277
vn -0.69225955 -0.6964341 0.18909277
vn -0.69225955 -0.6964341 0.18909277
vn -0.69225955 -0.6964341 0.18909277
vn -0 -0.98887944 0.14871919
vn -0 -0.98887944 0.14871919
vn -0 -0.98887944 0.14871919
vn -0 -0.98887944 0.14871919
vn 0.6922598 0.69643396 0.18909271
vn 0.6922598 0.69643396 0.18909271
vn 0.6922598 0.69643396 0.18909271
vn 0.6922598 0.69643396 0.18909271
vn 0.98887944 0 0.14871912
vn 0.98887944 0 0.14871912
vn 0.98887944 0 0.14871912
vn 0.98887944 0 0.14871912
vn -0.98887944 0 0.14871913
vn -0.98887944 0 0.14871913
vn -0.98887944 0 0.14871913
vn -0.98887944 0 0.14871913
vn 0.6964339 -0.6922599 0.18909258
vn 0.6964339 -0.6922599 0.18909258
vn 0.6964339 -0.6922599 0.18909258
vn 0.6964339 -0.6922599 0.18909258
vn -0.69643396 -0.6922599 0.18909256
vn -0.69643396 -0.6922599 0.18909256
vn -0.69643396 -0.6922599 0.18909256
vn -0.69643396 -0.6922599 0.18909256
vn -0 -0.98887944 0.14871919
vn -0 -0.98887944 0.14871919
vn -0 -0.98887944 0.14871919
vn -0 -0.98887944 0.14871919
vn -0 0.98887944 0.14871903
vn -0 0.98887944 0.14871903
vn -0 0.98887944 0.14871903
vn -0 0.98887944 0.14871903
vn 0.6922596 -0.6964341 0.18909283
vn 0.6922596 -0.6964341 0.18909283
vn 0.6922596 -0.6964341 0.18909283
vn 0.6922596 -0.6964341 0.18909283
vn -0.98887944 0 0.14871912
vn -0.98887944 0 0.14871912
vn -0.98887944 0 0.14871912
vn -0.98887944 0 0.14871912
vn -0.69225967 0.6964341 0.18909259
vn -0.69225967 0.6964341 0.18909259
vn -0.69225967 0.6964341 0.18909259
vn -0.69225967 0.6964341 0.18909259
vn -1 0 0
vn -1 0 0
vn -1 0 0
vn -1 0 0
vn -0 -1 0
vn -0 -1 0
vn -0 -1 0
vn -0 -1 0
vn 1 0 0
vn 1 0 0
vn 1 0 0
vn 1 0 0
vn -0 -1 0
vn -0 -1 0
vn -0 -1 0
vn -0 -1 0
g Armored Tower V2_0
f 3/3/3 2/2/2 1/1/1
f 4/4/4 3/3/3 1/1/1
f 7/7/7 6/6/6 5/5/5
f 8/8/8 7/7/7 5/5/5
f 11/11/11 10/10/10 9/9/9
f 12/12/12 11/11/11 9/9/9
f 15/15/15 14/14/14 13/13/13
f 16/16/16 15/15/15 13/13/13
f 19/19/19 18/18/18 17/17/17
f 20/20/20 19/19/19 17/17/17
f 23/23/23 22/22/22 21/21/21
f 24/24/24 23/23/23 21/21/21
f 27/27/27 26/26/26 25/25/25
f 28/28/28 27/27/27 25/25/25
f 31/31/31 30/30/30 29/29/29
f 32/32/32 31/31/31 29/29/29
f 35/35/35 34/34/34 33/33/33
f 36/36/36 35/35/35 33/33/33
f 39/39/39 38/38/38 37/37/37
f 40/40/40 39/39/39 37/37/37
f 43/43/43 42/42/42 41/41/41
f 44/44/44 43/43/43 41/41/41
f 47/47/47 46/46/46 45/45/45
f 48/48/48 47/47/47 45/45/45
f 51/51/51 50/50/50 49/49/49
f 52/52/52 51/51/51 49/49/49
f 55/55/55 54/54/54 53/53/53
f 56/56/56 55/55/55 53/53/53
f 55/55/55 58/58/58 57/57/57
f 58/58/58 59/59/59 57/57/57
f 57/57/57 61/61/61 60/60/60
f 61/61/61 62/62/62 60/60/60
f 63/63/63 60/60/60 62/62/62
f 64/64/64 63/63/63 62/62/62
f 66/66/66 62/62/62 65/65/65
f 67/67/67 66/66/66 65/65/65
f 69/69/69 68/68/68 59/59/59
f 68/68/68 70/70/70 59/59/59
f 68/68/68 71/71/71 70/70/70
f 71/71/71 72/72/72 70/70/70
f 74/74/74 67/67/67 73/73/73
f 67/67/67 75/75/75 73/73/73
f 76/76/76 73/73/73 75/75/75
f 77/77/77 76/76/76 75/75/75
f 80/80/80 79/79/79 78/78/78
f 81/81/81 80/80/80 78/78/78
f 84/84/84 83/83/83 82/82/82
f 83/83/83 85/85/85 82/82/82
f 83/83/83 86/86/86 85/85/85
f 86/86/86 87/87/87 85/85/85
f 89/89/89 88/88/88 87/87/87
f 88/88/88 90/90/90 87/87/87
f 92/92/92 90/90/90 91/91/91
f 90/90/90 93/93/93 91/91/91
f 93/93/93 94/94/94 91/91/91
f 94/94/94 95/95/95 91/91/91
f 97/97/97 95/95/95 96/96/96
f 98/98/98 97/97/97 96/96/96
f 100/100/100 99/99/99 98/98/98
f 99/99/99 101/101/101 98/98/98
f 102/102/102 98/98/98 101/101/101
f 103/103/103 102/102/102 101/101/101
f 106/106/106 105/105/105 104/104/104
f 107/107/107 106/106/106 104/104/104
f 110/110/110 109/109/109 108/108/108
f 111/111/111 110/110/110 108/108/108
f 114/114/114 113/113/113 112/112/112
f 115/115/115 114/114/114 112/112/112
f 118/118/118 117/117/117 116/116/116
f 119/119/119 118/118/118 116/116/116
f 122/122/122 121/121/121 120/120/120
f 123/123/123 122/122/122 120/120/120
f 126/126/126 125/125/125 124/124/124
f 127/127/127 126/126/126 124/124/124
f 130/130/130 129/129/129 128/128/128
f 131/131/131 130/130/130 128/128/128
f 134/134/134 133/133/133 132/132/132
f 135/135/135 134/134/134 132/132/132
f 138/138/138 137/137/137 136/136/136
f 139/139/139 138/138/138 136/136/136
f 142/142/142 141/141/141 140/140/140
f 143/143/143 142/142/142 140/140/140
f 146/146/146 145/145/145 144/144/144
f 147/147/147 146/146/146 144/144/144
f 150/150/150 149/149/149 148/148/148
f 151/151/151 150/150/150 148/148/148
f 154/154/154 153/153/153 152/152/152
f 153/153/153 155/155/155 152/152/152
f 157/157/157 156/156/156 155/155/155
f 158/158/158 157/157/157 155/155/155
f 161/161/161 160/160/160 159/159/159
f 160/160/160 162/162/162 159/159/159
f 160/160/160 163/163/163 162/162/162
f 163/163/163 164/164/164 162/162/162
f 167/167/167 166/166/166 165/165/165
f 166/166/166 168/168/168 165/165/165
f 170/170/170 169/169/169 168/168/168
f 171/171/171 170/170/170 168/168/168
f 174/174/174 173/173/173 172/172/172
f 175/175/175 174/174/174 172/172/172
f 178/178/178 177/177/177 176/176/176
f 177/177/177 179/179/179 176/176/176
f 181/181/181 179/179/179 180/180/180
f 179/179/179 182/182/182 180/180/180
f 183/183/183 180/180/180 182/182/182
f 184/184/184 183/183/183 182/182/182
f 183/183/183 186/186/186 185/185/185
f 186/186/186 187/187/187 185/185/185
f 189/189/189 188/188/188 187/187/187
f 188/188/188 190/190/190 187/187/187
f 191/191/191 187/187/187 190/190/190
f 192/192/192 191/191/191 190/190/190
f 195/195/195 194/194/194 193/193/193
f 196/196/196 195/195/195 193/193/193
f 197/197/197 195/195/195 196/196/196
f 198/198/198 197/197/197 196/196/196
f 201/201/201 200/200/200 199/199/199
f 202/202/202 201/201/201 199/199/199
f 203/203/203 201/201/201 202/202/202
f 204/204/204 203/203/203 202/202/202
f 207/207/207 206/206/206 205/205/205
f 208/208/208 207/207/207 205/205/205
f 209/209/209 207/207/207 208/208/208
f 210/210/210 209/209/209 208/208/208
f 213/213/213 212/212/212 211/211/211
f 214/214/214 213/213/213 211/211/211
f 215/215/215 213/213/213 214/214/214
f 216/216/216 215/215/215 214/214/214
f 219/219/219 218/218/218 217/217/217
f 220/220/220 219/219/219 217/217/217
f 223/223/223 222/222/222 221/221/221
f 224/224/224 223/223/223 221/221/221
f 227/227/227 226/226/226 225/225/225
f 228/228/228 227/227/227 225/225/225
f 231/231/231 230/230/230 229/229/229
f 232/232/232 231/231/231 229/229/229
f 235/235/235 234/234/234 233/233/233
f 236/236/236 235/235/235 233/233/233
f 239/239/239 238/238/238 237/237/237
f 240/240/240 239/239/239 237/237/237
f 243/243/243 242/242/242 241/241/241
f 244/244/244 243/243/243 241/241/241
f 247/247/247 246/246/246 245/245/245
f 248/248/248 247/247/247 245/245/245
f 251/251/251 250/250/250 249/249/249
f 252/252/252 251/251/251 249/249/249
f 255/255/255 254/254/254 253/253/253
f 256/256/256 255/255/255 253/253/253
f 259/259/259 258/258/258 257/257/257
f 260/260/260 259/259/259 257/257/257
f 263/263/263 262/262/262 261/261/261
f 264/264/264 263/263/263 261/261/261
f 267/267/267 266/266/266 265/265/265
f 268/268/268 267/267/267 265/265/265
f 271/271/271 270/270/270 269/269/269
f 272/272/272 271/271/271 269/269/269
f 275/275/275 274/274/274 273/273/273
f 276/276/276 275/275/275 273/273/273
f 279/279/279 278/278/278 277/277/277
f 280/280/280 279/279/279 277/277/277
f 283/283/283 282/282/282 281/281/281
f 284/284/284 283/283/283 281/281/281
f 287/287/287 286/286/286 285/285/285
f 288/288/288 287/287/287 285/285/285
f 291/291/291 290/290/290 289/289/289
f 292/292/292 291/291/291 289/289/289
f 295/295/295 294/294/294 293/293/293
f 296/296/296 295/295/295 293/293/293
f 299/299/299 298/298/298 297/297/297
f 300/300/300 299/299/299 297/297/297
f 303/303/303 302/302/302 301/301/301
f 304/304/304 303/303/303 301/301/301
f 307/307/307 306/306/306 305/305/305
f 308/308/308 307/307/307 305/305/305
f 311/311/311 310/310/310 309/309/309
f 312/312/312 311/311/311 309/309/309
f 315/315/315 314/314/314 313/313/313
f 316/316/316 315/315/315 313/313/313
f 319/319/319 318/318/318 317/317/317
f 320/320/320 319/319/319 317/317/317
f 323/323/323 322/322/322 321/321/321
f 324/324/324 323/323/323 321/321/321
f 327/327/327 326/326/326 325/325/325
f 328/328/328 327/327/327 325/325/325
f 331/331/331 330/330/330 329/329/329
f 332/332/332 331/331/331 329/329/329
f 335/335/335 334/334/334 333/333/333
f 336/336/336 335/335/335 333/333/333
f 339/339/339 338/338/338 337/337/337
f 340/340/340 339/339/339 337/337/337
f 343/343/343 342/342/342 341/341/341
f 344/344/344 343/343/343 341/341/341
f 347/347/347 346/346/346 345/345/345
f 346/346/346 348/348/348 345/345/345
f 345/345/345 348/348/348 349/349/349
f 348/348/348 350/350/350 349/349/349
f 353/353/353 352/352/352 351/351/351
f 352/352/352 354/354/354 351/351/351
f 354/354/354 355/355/355 351/351/351
f 355/355/355 356/356/356 351/351/351
f 351/351/351 358/358/358 357/357/357
f 358/358/358 359/359/359 357/357/357
f 361/361/361 357/357/357 360/360/360
f 362/362/362 361/361/361 360/360/360
f 359/359/359 363/363/363 360/360/360
f 364/364/364 359/359/359 360/360/360
f 367/367/367 366/366/366 365/365/365
f 368/368/368 367/367/367 365/365/365
f 371/371/371 370/370/370 369/369/369
f 372/372/372 371/371/371 369/369/369
f 375/375/375 374/374/374 373/373/373
f 376/376/376 375/375/375 373/373/373
f 379/379/379 378/378/378 377/377/377
f 380/380/380 379/379/379 377/377/377
f 383/383/383 382/382/382 381/381/381
f 384/384/384 383/383/383 381/381/381
f 385/385/385 383/383/383 384/384/384
f 386/386/386 385/385/385 384/384/384
f 389/389/389 388/388/388 387/387/387
f 388/388/388 390/390/390 387/387/387
f 387/387/387 390/390/390 391/391/391
f 390/390/390 392/392/392 391/391/391
f 395/395/395 394/394/394 393/393/393
f 394/394/394 396/396/396 393/393/393
f 393/393/393 396/396/396 397/397/397
f 396/396/396 398/398/398 397/397/397
f 401/401/401 400/400/400 399/399/399
f 402/402/402 401/401/401 399/399/399
f 405/405/405 404/404/404 403/403/403
f 406/406/406 405/405/405 403/403/403
f 409/409/409 408/408/408 407/407/407
f 410/410/410 409/409/409 407/407/407
f 413/413/413 412/412/412 411/411/411
f 414/414/414 413/413/413 411/411/411
f 417/417/417 416/416/416 415/415/415
f 418/418/418 417/417/417 415/415/415
f 421/421/421 420/420/420 419/419/419
f 422/422/422 421/421/421 419/419/419
f 425/425/425 424/424/424 423/423/423
f 426/426/426 425/425/425 423/423/423
f 429/429/429 428/428/428 427/427/427
f 430/430/430 429/429/429 427/427/427
f 433/433/433 432/432/432 431/431/431
f 434/434/434 433/433/433 431/431/431
f 437/437/437 436/436/436 435/435/435
f 438/438/438 437/437/437 435/435/435
f 441/441/441 440/440/440 439/439/439
f 442/442/442 441/441/441 439/439/439
f 445/445/445 444/444/444 443/443/443
f 446/446/446 445/445/445 443/443/443
f 449/449/449 448/448/448 447/447/447
f 450/450/450 449/449/449 447/447/447
f 453/453/453 452/452/452 451/451/451
f 454/454/454 453/453/453 451/451/451
f 457/457/457 456/456/456 455/455/455
f 458/458/458 457/457/457 455/455/455
f 461/461/461 460/460/460 459/459/459
f 462/462/462 461/461/461 459/459/459
f 465/465/465 464/464/464 463/463/463
f 466/466/466 465/465/465 463/463/463
f 467/467/467 465/465/465 466/466/466
f 468/468/468 467/467/467 466/466/466
f 469/469/469 467/467/467 468/468/468
f 470/470/470 469/469/469 468/468/468
f 473/473/473 472/472/472 471/471/471
f 474/474/474 473/473/473 471/471/471
f 475/475/475 473/473/473 474/474/474
f 476/476/476 475/475/475 474/474/474
f 477/477/477 475/475/475 476/476/476
f 478/478/478 477/477/477 476/476/476
f 481/481/481 480/480/480 479/479/479
f 482/482/482 481/481/481 479/479/479
f 485/485/485 484/484/484 483/483/483
f 486/486/486 485/485/485 483/483/483
f 489/489/489 488/488/488 487/487/487
f 488/488/488 490/490/490 487/487/487
f 487/487/487 490/490/490 491/491/491
f 490/490/490 492/492/492 491/491/491
f 491/491/491 492/492/492 493/493/493
f 492/492/492 494/494/494 493/493/493
f 497/497/497 496/496/496 495/495/495
f 498/498/498 497/497/497 495/495/495
f 501/501/501 500/500/500 499/499/499
f 502/502/502 501/501/501 499/499/499
f 503/503/503 501/501/501 502/502/502
f 504/504/504 503/503/503 502/502/502
f 505/505/505 503/503/503 504/504/504
f 506/506/506 505/505/505 504/504/504
f 509/509/509 508/508/508 507/507/507
f 510/510/510 509/509/509 507/507/507
f 513/513/513 512/512/512 511/511/511
f 514/514/514 513/513/513 511/511/511
f 517/517/517 516/516/516 515/515/515
f 518/518/518 517/517/517 515/515/515
f 521/521/521 520/520/520 519/519/519
f 522/522/522 521/521/521 519/519/519
f 525/525/525 524/524/524 523/523/523
f 526/526/526 525/525/525 523/523/523
f 529/529/529 528/528/528 527/527/527
f 530/530/530 529/529/529 527/527/527
f 533/533/533 532/532/532 531/531/531
f 534/534/534 533/533/533 531/531/531
f 537/537/537 536/536/536 535/535/535
f 538/538/538 537/537/537 535/535/535
f 541/541/541 540/540/540 539/539/539
f 542/542/542 541/541/541 539/539/539
f 545/545/545 544/544/544 543/543/543
f 546/546/546 545/545/545 543/543/543
f 549/549/549 548/548/548 547/547/547
f 550/550/550 549/549/549 547/547/547
f 553/553/553 552/552/552 551/551/551
f 552/552/552 554/554/554 551/551/551
f 551/551/551 554/554/554 555/555/555
f 554/554/554 556/556/556 555/555/555
f 559/559/559 558/558/558 557/557/557
f 560/560/560 559/559/559 557/557/557
f 563/563/563 562/562/562 561/561/561
f 564/564/564 563/563/563 561/561/561
f 565/565/565 563/563/563 564/564/564
f 566/566/566 565/565/565 564/564/564
f 569/569/569 568/568/568 567/567/567
f 570/570/570 569/569/569 567/567/567
f 573/573/573 572/572/572 571/571/571
f 574/574/574 573/573/573 571/571/571
f 574/574/574 571/571/571 575/575/575
f 576/576/576 574/574/574 575/575/575
f 576/576/576 575/575/575 577/577/577
f 578/578/578 576/576/576 577/577/577
f 581/581/581 580/580/580 579/579/579
f 582/582/582 581/581/581 579/579/579
f 585/585/585 584/584/584 583/583/583
f 584/584/584 586/586/586 583/583/583
f 583/583/583 586/586/586 587/587/587
f 586/586/586 588/588/588 587/587/587
f 587/587/587 588/588/588 589/589/589
f 588/588/588 590/590/590 589/589/589
f 593/593/593 592/592/592 591/591/591
f 594/594/594 593/593/593 591/591/591
f 597/597/597 596/596/596 595/595/595
f 596/596/596 598/598/598 595/595/595
f 595/595/595 598/598/598 599/599/599
f 600/600/600 595/595/595 599/599/599
f 599/599/599 601/601/601 600/600/600
f 601/601/601 602/602/602 600/600/600
f 605/605/605 604/604/604 603/603/603
f 606/606/606 605/605/605 603/603/603
f 609/609/609 608/608/608 607/607/607
f 608/608/608 610/610/610 607/607/607
f 608/608/608 611/611/611 610/610/610
f 611/611/611 612/612/612 610/610/610
f 611/611/611 613/613/613 612/612/612
f 613/613/613 614/614/614 612/612/612
f 617/617/617 616/616/616 615/615/615
f 618/618/618 617/617/617 615/615/615
f 621/621/621 620/620/620 619/619/619
f 622/622/622 621/621/621 619/619/619
f 625/625/625 624/624/624 623/623/623
f 626/626/626 625/625/625 623/623/623
f 629/629/629 628/628/628 627/627/627
f 630/630/630 629/629/629 627/627/627
f 633/633/633 632/632/632 631/631/631
f 634/634/634 633/633/633 631/631/631
f 637/637/637 636/636/636 635/635/635
f 638/638/638 637/637/637 635/635/635
f 641/641/641 640/640/640 639/639/639
f 640/640/640 642/642/642 639/639/639
f 642/642/642 643/643/643 639/639/639
f 643/643/643 644/644/644 639/639/639
f 647/647/647 646/646/646 645/645/645
f 646/646/646 648/648/648 645/645/645
f 648/648/648 649/649/649 645/645/645
f 649/649/649 650/650/650 645/645/645
f 653/653/653 652/652/652 651/651/651
f 652/652/652 654/654/654 651/651/651
f 655/655/655 651/651/651 654/654/654
f 656/656/656 655/655/655 654/654/654
f 659/659/659 658/658/658 657/657/657
f 658/658/658 660/660/660 657/657/657
f 661/661/661 657/657/657 660/660/660
f 662/662/662 661/661/661 660/660/660
f 665/665/665 664/664/664 663/663/663
f 664/664/664 666/666/666 663/663/663
f 667/667/667 663/663/663 666/666/666
f 668/668/668 667/667/667 666/666/666
f 671/671/671 670/670/670 669/669/669
f 670/670/670 672/672/672 669/669/669
f 669/669/669 672/672/672 673/673/673
f 672/672/672 674/674/674 673/673/673
f 677/677/677 676/676/676 675/675/675
f 676/676/676 678/678/678 675/675/675
f 675/675/675 678/678/678 679/679/679
f 678/678/678 680/680/680 679/679/679
f 683/683/683 682/682/682 681/681/681
f 682/682/682 684/684/684 681/681/681
f 684/684/684 685/685/685 681/681/681
f 685/685/685 686/686/686 681/681/681
f 689/689/689 688/688/688 687/687/687
f 690/690/690 689/689/689 687/687/687
f 693/693/693 692/692/692 691/691/691
f 694/694/694 693/693/693 691/691/691
f 697/697/697 696/696/696 695/695/695
f 698/698/698 697/697/697 695/695/695
f 699/699/699 697/697/697 698/698/698
f 700/700/700 699/699/699 698/698/698
f 703/703/703 702/702/702 701/701/701
f 704/704/704 703/703/703 701/701/701
f 707/707/707 706/706/706 705/705/705
f 706/706/706 708/708/708 705/705/705
f 705/705/705 708/708/708 709/709/709
f 708/708/708 710/710/710 709/709/709
f 713/713/713 712/712/712 711/711/711
f 714/714/714 713/713/713 711/711/711
f 717/717/717 716/716/716 715/715/715
f 718/718/718 717/717/717 715/715/715
f 721/721/721 720/720/720 719/719/719
f 722/722/722 721/721/721 719/719/719
f 725/725/725 724/724/724 723/723/723
f 726/726/726 725/725/725 723/723/723
f 729/729/729 728/728/728 727/727/727
f 730/730/730 729/729/729 727/727/727
f 733/733/733 732/732/732 731/731/731
f 734/734/734 733/733/733 731/731/731
f 737/737/737 736/736/736 735/735/735
f 738/738/738 737/737/737 735/735/735
f 741/741/741 740/740/740 739/739/739
f 742/742/742 741/741/741 739/739/739
f 745/745/745 744/744/744 743/743/743
f 746/746/746 745/745/745 743/743/743
f 749/749/749 748/748/748 747/747/747
f 750/750/750 749/749/749 747/747/747
f 753/753/753 752/752/752 751/751/751
f 754/754/754 753/753/753 751/751/751
f 757/757/757 756/756/756 755/755/755
f 758/758/758 757/757/757 755/755/755
f 761/761/761 760/760/760 759/759/759
f 762/762/762 761/761/761 759/759/759
f 765/765/765 764/764/764 763/763/763
f 766/766/766 765/765/765 763/763/763
f 769/769/769 768/768/768 767/767/767
f 770/770/770 769/769/769 767/767/767
f 773/773/773 772/772/772 771/771/771
f 774/774/774 773/773/773 771/771/771
f 777/777/777 776/776/776 775/775/775
f 778/778/778 777/777/777 775/775/775
f 781/781/781 780/780/780 779/779/779
f 782/782/782 781/781/781 779/779/779
f 785/785/785 784/784/784 783/783/783
f 786/786/786 785/785/785 783/783/783
f 789/789/789 788/788/788 787/787/787
f 790/790/790 789/789/789 787/787/787
f 793/793/793 792/792/792 791/791/791
f 794/794/794 793/793/793 791/791/791
f 797/797/797 796/796/796 795/795/795
f 798/798/798 797/797/797 795/795/795
f 801/801/801 800/800/800 799/799/799
f 802/802/802 801/801/801 799/799/799
