g Axe
v -0.13452083 0.023431078 1.54176
v 0.7393713 0.023431078 1.829749
v -0.13452083 -0.023431078 1.54176
v -0.13452083 0.023431078 1.2056203
v -0.13452083 -0.023431078 1.2056203
v 0.7393713 0.023431078 0.91763127
v -0.07328451 0.041338965 1.7790526
v 0.07328446 0.041338965 1.7790526
v 0.07328446 -0.041338965 1.7790526
v -0.07328451 -0.041338965 1.7790526
v -0.07328451 0.041338965 -0.32445323
v 0.07328446 0.041338965 -0.32445323
v 0.07328446 0.041338965 1.7790526
v -0.07328451 0.041338965 1.7790526
v -0.07328451 0.041338965 -0.32445323
v -0.07328451 -0.041338965 -0.32445323
v 0.07328446 -0.041338965 -0.32445323
v 0.07328446 0.041338965 -0.32445323
v 0.07328446 -0.041338965 -0.32445323
v -0.07328451 -0.041338965 -0.32445323
v -0.07328451 -0.041338965 1.7790526
v 0.07328446 -0.041338965 1.7790526
v 0.07328446 0.041338965 -0.32445323
v 0.07328446 -0.041338965 -0.32445323
v 0.07328446 -0.041338965 1.7790526
v 0.07328446 0.041338965 1.7790526
v -0.07328451 -0.041338965 -0.32445323
v -0.07328451 0.041338965 -0.32445323
v -0.07328451 0.041338965 1.7790526
v -0.07328451 -0.041338965 1.7790526
v -0.13452083 0.023431078 1.3736901
v 0.7393713 0.023431078 1.829749
v -0.13452083 0.023431078 1.54176
v 0.896052 0.023431078 1.3736901
v -0.13452083 0.023431078 1.2056203
v 0.7393713 0.023431078 0.91763127
v 0.896052 0.023431078 1.3736901
v -0.13452083 -0.023431078 1.54176
v 0.7393713 0.023431078 1.829749
v -0.13452083 -0.023431078 1.3736901
v 0.7393713 0.023431078 0.91763127
v -0.13452083 -0.023431078 1.2056203
v -0.13452083 -0.023431078 1.2056203
v -0.13452083 0.023431078 1.2056203
v -0.13452083 0.023431078 1.3736901
v -0.13452083 -0.023431078 1.3736901
v -0.13452083 0.023431078 1.54176
v -0.13452083 -0.023431078 1.54176
vt 0.125 0.5
vt 0.375 0.5
vt 0.125 0.75
vt 0.125 0.5
vt 0.125 0.75
vt 0.375 0.75
vt 0.125 0.5
vt 0.375 0.5
vt 0.375 0.75
vt 0.125 0.75
vt 0.125 0.5
vt 0.375 0.5
vt 0.375 0.5
vt 0.125 0.5
vt 0.125 0.5
vt 0.125 0.75
vt 0.375 0.75
vt 0.375 0.5
vt 0.375 0.75
vt 0.125 0.75
vt 0.125 0.75
vt 0.375 0.75
vt 0.375 0.5
vt 0.375 0.75
vt 0.375 0.75
vt 0.375 0.5
vt 0.125 0.75
vt 0.125 0.5
vt 0.125 0.5
vt 0.125 0.75
vt 0.125 0.5
vt 0.375 0.5
vt 0.125 0.5
vt 0.375 0.5
vt 0.125 0.5
vt 0.375 0.5
vt 0.375 0.75
vt 0.125 0.75
vt 0.375 0.75
vt 0.125 0.75
vt 0.375 0.75
vt 0.125 0.75
vt 0.125 0.75
vt 0.125 0.5
vt 0.125 0.5
vt 0.125 0.75
vt 0.125 0.5
vt 0.125 0.75
vn -0.31298995 0 0.94975644
vn -0.31298995 0 0.94975644
vn -0.31298995 0 0.94975644
vn -0.31298995 0 -0.94975644
vn -0.31298995 0 -0.94975644
vn -0.31298995 0 -0.94975644
vn -0 0 1
vn -0 0 1
vn -0 0 1
vn -0 0 1
vn -0 1 0
vn -0 1 0
vn -0 1 0
vn -0 1 0
vn -0 0 -1
vn -0 0 -1
vn -0 0 -1
vn -0 0 -1
vn -0 -1 0
vn -0 -1 0
vn -0 -1 0
vn -0 -1 0
vn 1 0 0
vn 1 0 0
vn 1 0 0
vn 1 0 0
vn -1 0 0
vn -1 0 0
vn -1 0 0
vn -1 0 0
vn -0 1 0
vn -0 1 0
vn -0 1 0
vn -0 1 0
vn -0 1 0
vn -0 1 0
vn 0.047356505 -0.9988073 0.0118883345
vn 0.047356505 -0.9988073 0.0118883345
vn 0.047356505 -0.9988073 0.0118883345
vn 0.047356505 -0.9988073 0.0118883345
vn 0.047356516 -0.9988073 -0.0118883345
vn 0.047356516 -0.9988073 -0.0118883345
vn -1 0 0
vn -1 0 0
vn -1 0 0
vn -1 0 0
vn -1 0 0
vn -1 0 0
g Axe_0
f 3/3/3 2/2/2 1/1/1
f 6/6/6 5/5/5 4/4/4
f 9/9/9 8/8/8 7/7/7
f 10/10/10 9/9/9 7/7/7
f 13/13/13 12/12/12 11/11/11
f 14/14/14 13/13/13 11/11/11
f 17/17/17 16/16/16 15/15/15
f 18/18/18 17/17/17 15/15/15
f 21/21/21 20/20/20 19/19/19
f 22/22/22 21/21/21 19/19/19
f 25/25/25 24/24/24 23/23/23
f 26/26/26 25/25/25 23/23/23
f 29/29/29 28/28/28 27/27/27
f 30/30/30 29/29/29 27/27/27
f 33/33/33 32/32/32 31/31/31
f 32/32/32 34/34/34 31/31/31
f 31/31/31 34/34/34 35/35/35
f 34/34/34 36/36/36 35/35/35
f 39/39/39 38/38/38 37/37/37
f 38/38/38 40/40/40 37/37/37
f 37/37/37 40/40/40 41/41/41
f 40/40/40 42/42/42 41/41/41
f 45/45/45 44/44/44 43/43/43
f 46/46/46 45/45/45 43/43/43
f 47/47/47 45/45/45 46/46/46
f 48/48/48 47/47/47 46/46/46
