g Banner Small
v -0.5468236 0.19232716 0.6685832
v -0.5468236 0.25289395 0.6685832
v -0.5468236 0.25289395 4.795284
v -0.5468236 0.19232716 4.795284
v 3.457435E-06 0.25289395 1.5441551
v 0.54683053 0.25289395 0.6685832
v 0.54683053 0.25289395 4.795284
v 3.457435E-06 0.25289395 3.8974078
v -0.5468236 0.25289395 0.6685832
v -0.5468236 0.25289395 4.795284
v 0.54683053 0.25289395 0.6685832
v 0.54683053 0.19232716 0.6685832
v 0.54683053 0.19232716 4.795284
v 0.54683053 0.25289395 4.795284
v 3.457435E-06 0.19232716 1.5441551
v -0.5468236 0.19232716 0.6685832
v -0.5468236 0.19232716 4.795284
v 3.457435E-06 0.19232716 3.8974078
v 0.54683053 0.19232716 0.6685832
v 0.54683053 0.19232716 4.795284
v 3.457435E-06 0.25289395 1.5441551
v 3.457435E-06 0.19232716 1.5441551
v 0.54683053 0.19232716 0.6685832
v 0.54683053 0.25289395 0.6685832
v 3.457435E-06 0.25289395 3.8974078
v 3.457435E-06 0.19232716 3.8974078
v -0.5468236 0.19232716 4.795284
v -0.5468236 0.25289395 4.795284
v 0.54683053 0.25289395 4.795284
v 0.54683053 0.19232716 4.795284
v 3.457435E-06 0.19232716 3.8974078
v 3.457435E-06 0.25289395 3.8974078
v -0.5468236 0.25289395 0.6685832
v -0.5468236 0.19232716 0.6685832
v 3.457435E-06 0.19232716 1.5441551
v 3.457435E-06 0.25289395 1.5441551
v -0.6908361 0.14673036 4.721132
v -0.6908361 0.28739035 4.721132
v -0.6908361 0.28739035 4.861792
v -0.6908361 0.14673036 4.861792
v 0.5623457 0.28739035 4.721132
v 0.70002 0.28739035 4.721132
v 0.70002 0.28739035 4.861792
v 0.5623457 0.28739035 4.861792
v -0.557743 0.28739035 4.721132
v -0.0047861915 0.28739035 5.7046313
v 0.13288815 0.28739035 5.7046313
v -0.557743 0.28739035 4.861792
v -0.6908361 0.28739035 4.721132
v -0.6908361 0.28739035 4.861792
v 0.70002 0.28739035 4.721132
v 0.70002 0.14673036 4.721132
v 0.70002 0.14673036 4.861792
v 0.70002 0.28739035 4.861792
v -0.557743 0.14673036 4.721132
v -0.6908361 0.14673036 4.721132
v -0.6908361 0.14673036 4.861792
v -0.557743 0.14673036 4.861792
v 0.5623457 0.14673036 4.721132
v 0.5623457 0.14673036 4.861792
v 0.70002 0.14673036 4.721132
v 0.70002 0.14673036 4.861792
v 0.5623457 0.28739035 4.721132
v 0.70002 0.14673036 4.721132
v 0.70002 0.28739035 4.721132
v 0.5623457 0.14673036 4.721132
v -0.557743 0.28739035 4.721132
v -0.557743 0.14673036 4.721132
v -0.6908361 0.28739035 4.721132
v -0.6908361 0.14673036 4.721132
v -0.557743 0.14673036 4.861792
v -0.004977105 0.14673036 5.7046313
v -0.004977105 0.28739035 5.7046313
v -0.557743 0.28739035 4.861792
v 0.70002 0.14673036 4.861792
v 0.13288815 0.14673036 5.7046313
v 0.13288815 0.28739035 5.7046313
v 0.70002 0.28739035 4.861792
v 0.5623457 0.28739035 4.861792
v 0.5623457 0.14673036 4.861792
v -0.557743 0.14673036 4.861792
v -0.557743 0.28739035 4.861792
v -0.004977105 0.28739035 5.7046313
v -0.004977105 0.14673036 5.7046313
v -0.13807017 0.14673036 5.7046313
v -0.13807017 0.28739035 5.7046313
v 0.13288815 0.28739035 5.7046313
v 0.13288815 0.14673036 5.7046313
v -0.0047861915 0.14673036 5.7046313
v -0.0047861915 0.28739035 5.7046313
v 0.5623457 0.14673036 4.861792
v -0.0047861915 0.14673036 5.7046313
v 0.13288815 0.14673036 5.7046313
v 0.70002 0.14673036 4.861792
v -0.6908361 0.28739035 4.861792
v -0.13807017 0.28739035 5.7046313
v -0.13807017 0.14673036 5.7046313
v -0.6908361 0.14673036 4.861792
v -0.557743 0.28739035 4.861792
v -0.004977105 0.28739035 5.7046313
v -0.13807017 0.28739035 5.7046313
v -0.6908361 0.28739035 4.861792
v -0.6908361 0.14673036 4.861792
v -0.13807017 0.14673036 5.7046313
v -0.004977105 0.14673036 5.7046313
v -0.557743 0.14673036 4.861792
v 0.5623457 0.28739035 4.861792
v -0.0047861915 0.28739035 5.7046313
v -0.0047861915 0.14673036 5.7046313
v 0.5623457 0.14673036 4.861792
v -0.15846148 0.10840544 5.684255
v -0.15846148 0.29795536 5.684255
v -0.15846148 0.29795536 5.9630013
v -0.15846148 0.10840544 5.9630013
v -0.15846148 -0.09013188 5.684255
v -0.15846148 -0.09013188 5.9630013
v -0 0.29795536 5.684255
v 0.15846148 0.29795536 5.684255
v 0.15846148 0.29795536 5.9630013
v -0 0.29795536 6.0539026
v -0.15846148 0.29795536 5.684255
v -0.15846148 0.29795536 5.9630013
v 0.15846148 0.29795536 5.684255
v 0.15846148 0.10840544 5.9630013
v 0.15846148 0.29795536 5.9630013
v 0.15846148 0.10840544 5.684255
v 0.15846148 -0.09013188 5.9630013
v 0.15846148 -0.09013188 5.684255
v -0 0.10840544 6.0539026
v -0 -0.09013188 6.0539026
v -0.15846148 -0.09013188 5.9630013
v -0.15846148 0.10840544 5.9630013
v -0 0.29795536 5.684255
v 0.15846148 0.10840544 5.684255
v 0.15846148 0.29795536 5.684255
v -0 0.10840544 5.684255
v -0.15846148 0.29795536 5.684255
v -0.15846148 0.10840544 5.684255
v -0 0.07999009 5.684255
v -0.11310236 0.07999009 5.684255
v 0.11310236 0.07999009 5.684255
v 0.11310236 -0.061716527 5.684255
v 0.15846148 -0.09013188 5.684255
v -0 -0.061716527 5.684255
v -0 -0.09013188 5.684255
v -0.11310236 -0.061716527 5.684255
v -0.15846148 -0.09013188 5.684255
v -0 0.29795536 6.0539026
v -0 0.10840544 6.0539026
v -0.15846148 0.10840544 5.9630013
v -0.15846148 0.29795536 5.9630013
v -0 -0.09013188 5.684255
v -0.15846148 -0.09013188 5.684255
v -0.15846148 -0.09013188 5.9630013
v -0 -0.09013188 6.0539026
v 0.15846148 -0.09013188 5.684255
v 0.15846148 -0.09013188 5.9630013
v 0.11310236 0.07999009 5.684255
v 0.11310236 0.07999009 -0.076593235
v 0.11310236 -0.061716527 -0.076593235
v 0.11310236 -0.061716527 5.684255
v -0.15846148 -0.09013188 5.684255
v -0.11310236 -0.061716527 5.684255
v -0.11310236 0.07999009 5.684255
v -0.15846148 0.10840544 5.684255
v -0 0.07999009 -0.076593235
v 0.11310236 -0.061716527 -0.076593235
v 0.11310236 0.07999009 -0.076593235
v -0 -0.061716527 -0.076593235
v -0.11310236 0.07999009 -0.076593235
v -0.11310236 -0.061716527 -0.076593235
v -0 0.07999009 5.684255
v 0.11310236 0.07999009 -0.076593235
v 0.11310236 0.07999009 5.684255
v -0 0.07999009 -0.076593235
v -0.11310236 0.07999009 5.684255
v -0.11310236 0.07999009 -0.076593235
v -0.11310236 -0.061716527 5.684255
v -0.11310236 -0.061716527 -0.076593235
v -0.11310236 0.07999009 -0.076593235
v -0.11310236 0.07999009 5.684255
v -0 -0.061716527 5.684255
v -0.11310236 -0.061716527 -0.076593235
v -0.11310236 -0.061716527 5.684255
v -0 -0.061716527 -0.076593235
v 0.11310236 -0.061716527 5.684255
v 0.11310236 -0.061716527 -0.076593235
v 0.15846148 0.29795536 5.9630013
v 0.15846148 0.10840544 5.9630013
v -0 0.10840544 6.0539026
v -0 0.29795536 6.0539026
v 0.15846148 0.10840544 5.9630013
v 0.15846148 -0.09013188 5.9630013
v -0 -0.09013188 6.0539026
v -0 0.10840544 6.0539026
vt 0.375 0
vt 0.375 0.25
vt 0.625 0.25
vt 0.625 0
vt 0.375 0.375
vt 0.375 0.5
vt 0.625 0.5
vt 0.625 0.375
vt 0.375 0.25
vt 0.625 0.25
vt 0.375 0.5
vt 0.375 0.75
vt 0.625 0.75
vt 0.625 0.5
vt 0.375 0.875
vt 0.375 1
vt 0.625 1
vt 0.625 0.875
vt 0.375 0.75
vt 0.625 0.75
vt 0.25 0.5
vt 0.25 0.75
vt 0.375 0.75
vt 0.375 0.5
vt 0.75 0.5
vt 0.75 0.75
vt 0.875 0.75
vt 0.875 0.5
vt 0.625 0.5
vt 0.625 0.75
vt 0.75 0.75
vt 0.75 0.5
vt 0.125 0.5
vt 0.125 0.75
vt 0.25 0.75
vt 0.25 0.5
vt 0.375 0
vt 0.375 0.25
vt 0.625 0.25
vt 0.625 0
vt 0.375 0.4842829
vt 0.375 0.5
vt 0.625 0.5
vt 0.625 0.4842829
vt 0.375 0.2651941
vt 0.625 0.4842829
vt 0.625 0.5
vt 0.625 0.2651941
vt 0.375 0.25
vt 0.625 0.25
vt 0.375 0.5
vt 0.375 0.75
vt 0.625 0.75
vt 0.625 0.5
vt 0.37500003 0.98480594
vt 0.375 1
vt 0.625 1
vt 0.625 0.9848059
vt 0.375 0.7657171
vt 0.625 0.7657171
vt 0.375 0.75
vt 0.625 0.75
vt 0.35928288 0.5
vt 0.375 0.75
vt 0.375 0.5
vt 0.3592829 0.75
vt 0.14019409 0.5
vt 0.1401941 0.75
vt 0.125 0.5
vt 0.125 0.75
vt 0.85980594 0.75000006
vt 0.85980594 0.75000006
vt 0.8598059 0.5
vt 0.8598059 0.5
vt 0.625 0.75
vt 0.625 0.75
vt 0.625 0.5
vt 0.625 0.5
vt 0.6407171 0.5
vt 0.64071715 0.75
vt 0.85980594 0.75000006
vt 0.8598059 0.5
vt 0.8598059 0.5
vt 0.85980594 0.75000006
vt 0.875 0.75
vt 0.875 0.5
vt 0.625 0.5
vt 0.625 0.75
vt 0.64071715 0.75
vt 0.6407171 0.5
vt 0.625 0.7657171
vt 0.625 0.7657171
vt 0.625 0.75
vt 0.625 0.75
vt 0.625 0.25
vt 0.625 0.25
vt 0.625 0
vt 0.625 0
vt 0.625 0.2651941
vt 0.625 0.2651941
vt 0.625 0.25
vt 0.625 0.25
vt 0.625 1
vt 0.625 1
vt 0.625 0.9848059
vt 0.625 0.9848059
vt 0.6407171 0.5
vt 0.6407171 0.5
vt 0.64071715 0.75
vt 0.64071715 0.75
vt 0.375 0
vt 0.375 0.25
vt 0.625 0.25
vt 0.625 0
vt 0.375 0
vt 0.625 0
vt 0.375 0.375
vt 0.375 0.5
vt 0.625 0.5
vt 0.625 0.375
vt 0.375 0.25
vt 0.625 0.25
vt 0.375 0.5
vt 0.625 0.75
vt 0.625 0.5
vt 0.375 0.75
vt 0.625 0.75
vt 0.375 0.75
vt 0.75 0.75
vt 0.75 0.75
vt 0.875 0.75
vt 0.875 0.75
vt 0.25 0.5
vt 0.375 0.75
vt 0.375 0.5
vt 0.25 0.75
vt 0.125 0.5
vt 0.125 0.75
vt 0.25 0.75
vt 0.125 0.75
vt 0.375 0.75
vt 0.375 0.75
vt 0.375 0.75
vt 0.375 0.875
vt 0.375 0.875
vt 0.375 1
vt 0.375 1
vt 0.75 0.5
vt 0.75 0.75
vt 0.875 0.75
vt 0.875 0.5
vt 0.375 0.875
vt 0.375 1
vt 0.625 1
vt 0.625 0.875
vt 0.375 0.75
vt 0.625 0.75
vt 0.375 0.75
vt 0.375 0.75
vt 0.375 0.75
vt 0.375 0.75
vt 0.375 0
vt 0.375 0
vt 0.375 0
vt 0.375 0
vt 0.25 0.75
vt 0.375 0.75
vt 0.375 0.75
vt 0.25 0.75
vt 0.125 0.75
vt 0.125 0.75
vt 0.25 0.75
vt 0.375 0.75
vt 0.375 0.75
vt 0.25 0.75
vt 0.125 0.75
vt 0.125 0.75
vt 0.375 0
vt 0.375 0
vt 0.375 0
vt 0.375 0
vt 0.375 0.875
vt 0.375 1
vt 0.375 1
vt 0.375 0.875
vt 0.375 0.75
vt 0.375 0.75
vt 0.625 0.5
vt 0.625 0.75
vt 0.75 0.75
vt 0.75 0.5
vt 0.625 0.75
vt 0.625 0.75
vt 0.75 0.75
vt 0.75 0.75
vn -1 0 0
vn -1 0 0
vn -1 0 0
vn -1 0 0
vn -0 1 0
vn -0 1 0
vn -0 1 0
vn -0 1 0
vn -0 1 0
vn -0 1 0
vn 1 0 0
vn 1 0 0
vn 1 0 0
vn 1 0 0
vn -0 -1 0
vn -0 -1 0
vn -0 -1 0
vn -0 -1 0
vn -0 -1 0
vn -0 -1 0
vn -0.84817475 0 -0.52971643
vn -0.84817475 0 -0.52971643
vn -0.84817475 0 -0.52971643
vn -0.84817475 0 -0.52971643
vn 0.8540744 0 0.52015084
vn 0.8540744 0 0.52015084
vn 0.8540744 0 0.52015084
vn 0.8540744 0 0.52015084
vn -0.8540744 0 0.52015084
vn -0.8540744 0 0.52015084
vn -0.8540744 0 0.52015084
vn -0.8540744 0 0.52015084
vn 0.84817475 0 -0.52971643
vn 0.84817475 0 -0.52971643
vn 0.84817475 0 -0.52971643
vn 0.84817475 0 -0.52971643
vn -1 0 0
vn -1 0 0
vn -1 0 0
vn -1 0 0
vn -0 1 0
vn -0 1 0
vn -0 1 0
vn -0 1 0
vn -0 1 0
vn -0 1 0
vn -0 1 0
vn -0 1 0
vn -0 1 0
vn -0 1 0
vn 1 0 0
vn 1 0 0
vn 1 0 0
vn 1 0 0
vn -0 -1 0
vn -0 -1 0
vn -0 -1 0
vn -0 -1 0
vn -0 -1 0
vn -0 -1 0
vn -0 -1 0
vn -0 -1 0
vn -0 0 -1
vn -0 0 -1
vn -0 0 -1
vn -0 0 -1
vn -0 0 -1
vn -0 0 -1
vn -0 0 -1
vn -0 0 -1
vn 0.83620596 0 -0.5484155
vn 0.83620596 0 -0.5484155
vn 0.83620596 0 -0.5484155
vn 0.83620596 0 -0.5484155
vn 0.82966244 0 0.55826545
vn 0.82966244 0 0.55826545
vn 0.82966244 0 0.55826545
vn 0.82966244 0 0.55826545
vn -0 0 1
vn -0 0 1
vn -0 0 1
vn -0 0 1
vn -0 0 1
vn -0 0 1
vn -0 0 1
vn -0 0 1
vn -0 0 1
vn -0 0 1
vn -0 0 1
vn -0 0 1
vn -0 -1 0
vn -0 -1 0
vn -0 -1 0
vn -0 -1 0
vn -0.83620596 0 0.5484155
vn -0.83620596 0 0.5484155
vn -0.83620596 0 0.5484155
vn -0.83620596 0 0.5484155
vn -0 1 0
vn -0 1 0
vn -0 1 0
vn -0 1 0
vn -0 -1 0
vn -0 -1 0
vn -0 -1 0
vn -0 -1 0
vn -0.82966244 0 -0.55826545
vn -0.82966244 0 -0.55826545
vn -0.82966244 0 -0.55826545
vn -0.82966244 0 -0.55826545
vn -1 0 0
vn -1 0 0
vn -1 0 0
vn -1 0 0
vn -1 0 0
vn -1 0 0
vn -0 1 0
vn -0 1 0
vn -0 1 0
vn -0 1 0
vn -0 1 0
vn -0 1 0
vn 1 0 0
vn 1 0 0
vn 1 0 0
vn 1 0 0
vn 1 0 0
vn 1 0 0
vn -0.49759096 0 0.86741173
vn -0.49759096 0 0.86741173
vn -0.49759096 0 0.86741173
vn -0.49759096 0 0.86741173
vn -0 0 -1
vn -0 0 -1
vn -0 0 -1
vn -0 0 -1
vn -0 0 -1
vn -0 0 -1
vn -0 0 -1
vn -0 0 -1
vn -0 0 -1
vn -0 0 -1
vn -0 0 -1
vn -0 0 -1
vn -0 0 -1
vn -0 0 -1
vn -0 0 -1
vn -0.49758893 0 0.8674129
vn -0.49758893 0 0.8674129
vn -0.49758893 0 0.8674129
vn -0.49758893 0 0.8674129
vn -0 -1 0
vn -0 -1 0
vn -0 -1 0
vn -0 -1 0
vn -0 -1 0
vn -0 -1 0
vn 1 0 0
vn 1 0 0
vn 1 0 0
vn 1 0 0
vn -0 0 -1
vn -0 0 -1
vn -0 0 -1
vn -0 0 -1
vn -0 0 -1
vn -0 0 -1
vn -0 0 -1
vn -0 0 -1
vn -0 0 -1
vn -0 0 -1
vn -0 1 0
vn -0 1 0
vn -0 1 0
vn -0 1 0
vn -0 1 0
vn -0 1 0
vn -1 0 0
vn -1 0 0
vn -1 0 0
vn -1 0 0
vn -0 -1 0
vn -0 -1 0
vn -0 -1 0
vn -0 -1 0
vn -0 -1 0
vn -0 -1 0
vn 0.49758893 0 0.8674129
vn 0.49758893 0 0.8674129
vn 0.49758893 0 0.8674129
vn 0.49758893 0 0.8674129
vn 0.49759096 0 0.86741173
vn 0.49759096 0 0.86741173
vn 0.49759096 0 0.86741173
vn 0.49759096 0 0.86741173
g Banner Small_0
f 3/3/3 2/2/2 1/1/1
f 4/4/4 3/3/3 1/1/1
f 7/7/7 6/6/6 5/5/5
f 8/8/8 7/7/7 5/5/5
f 8/8/8 5/5/5 9/9/9
f 10/10/10 8/8/8 9/9/9
f 13/13/13 12/12/12 11/11/11
f 14/14/14 13/13/13 11/11/11
f 17/17/17 16/16/16 15/15/15
f 18/18/18 17/17/17 15/15/15
f 18/18/18 15/15/15 19/19/19
f 20/20/20 18/18/18 19/19/19
f 23/23/23 22/22/22 21/21/21
f 24/24/24 23/23/23 21/21/21
f 27/27/27 26/26/26 25/25/25
f 28/28/28 27/27/27 25/25/25
f 31/31/31 30/30/30 29/29/29
f 32/32/32 31/31/31 29/29/29
f 35/35/35 34/34/34 33/33/33
f 36/36/36 35/35/35 33/33/33
g Banner Small_1
f 39/39/39 38/38/38 37/37/37
f 40/40/40 39/39/39 37/37/37
f 43/43/43 42/42/42 41/41/41
f 44/44/44 43/43/43 41/41/41
f 44/44/44 41/41/41 45/45/45
f 44/44/44 46/46/46 43/43/43
f 46/46/46 47/47/47 43/43/43
f 48/48/48 44/44/44 45/45/45
f 48/48/48 45/45/45 49/49/49
f 50/50/50 48/48/48 49/49/49
f 53/53/53 52/52/52 51/51/51
f 54/54/54 53/53/53 51/51/51
f 57/57/57 56/56/56 55/55/55
f 58/58/58 57/57/57 55/55/55
f 58/58/58 55/55/55 59/59/59
f 60/60/60 58/58/58 59/59/59
f 60/60/60 59/59/59 61/61/61
f 62/62/62 60/60/60 61/61/61
f 65/65/65 64/64/64 63/63/63
f 64/64/64 66/66/66 63/63/63
f 63/63/63 66/66/66 67/67/67
f 66/66/66 68/68/68 67/67/67
f 67/67/67 68/68/68 69/69/69
f 68/68/68 70/70/70 69/69/69
f 73/73/73 72/72/72 71/71/71
f 74/74/74 73/73/73 71/71/71
f 77/77/77 76/76/76 75/75/75
f 78/78/78 77/77/77 75/75/75
f 81/81/81 80/80/80 79/79/79
f 82/82/82 81/81/81 79/79/79
f 85/85/85 84/84/84 83/83/83
f 86/86/86 85/85/85 83/83/83
f 89/89/89 88/88/88 87/87/87
f 90/90/90 89/89/89 87/87/87
f 93/93/93 92/92/92 91/91/91
f 94/94/94 93/93/93 91/91/91
f 97/97/97 96/96/96 95/95/95
f 98/98/98 97/97/97 95/95/95
f 101/101/101 100/100/100 99/99/99
f 102/102/102 101/101/101 99/99/99
f 105/105/105 104/104/104 103/103/103
f 106/106/106 105/105/105 103/103/103
f 109/109/109 108/108/108 107/107/107
f 110/110/110 109/109/109 107/107/107
f 113/113/113 112/112/112 111/111/111
f 114/114/114 113/113/113 111/111/111
f 111/111/111 115/115/115 114/114/114
f 115/115/115 116/116/116 114/114/114
f 119/119/119 118/118/118 117/117/117
f 120/120/120 119/119/119 117/117/117
f 120/120/120 117/117/117 121/121/121
f 122/122/122 120/120/120 121/121/121
f 125/125/125 124/124/124 123/123/123
f 124/124/124 126/126/126 123/123/123
f 124/124/124 127/127/127 126/126/126
f 127/127/127 128/128/128 126/126/126
f 131/131/131 130/130/130 129/129/129
f 132/132/132 131/131/131 129/129/129
f 135/135/135 134/134/134 133/133/133
f 134/134/134 136/136/136 133/133/133
f 133/133/133 136/136/136 137/137/137
f 136/136/136 138/138/138 137/137/137
f 136/136/136 139/139/139 138/138/138
f 139/139/139 140/140/140 138/138/138
f 141/141/141 139/139/139 136/136/136
f 134/134/134 141/141/141 136/136/136
f 142/142/142 141/141/141 134/134/134
f 143/143/143 142/142/142 134/134/134
f 144/144/144 142/142/142 143/143/143
f 145/145/145 144/144/144 143/143/143
f 146/146/146 144/144/144 145/145/145
f 147/147/147 146/146/146 145/145/145
f 150/150/150 149/149/149 148/148/148
f 151/151/151 150/150/150 148/148/148
f 154/154/154 153/153/153 152/152/152
f 155/155/155 154/154/154 152/152/152
f 155/155/155 152/152/152 156/156/156
f 157/157/157 155/155/155 156/156/156
f 160/160/160 159/159/159 158/158/158
f 161/161/161 160/160/160 158/158/158
f 164/164/164 163/163/163 162/162/162
f 165/165/165 164/164/164 162/162/162
f 168/168/168 167/167/167 166/166/166
f 167/167/167 169/169/169 166/166/166
f 166/166/166 169/169/169 170/170/170
f 169/169/169 171/171/171 170/170/170
f 174/174/174 173/173/173 172/172/172
f 173/173/173 175/175/175 172/172/172
f 172/172/172 175/175/175 176/176/176
f 175/175/175 177/177/177 176/176/176
f 180/180/180 179/179/179 178/178/178
f 181/181/181 180/180/180 178/178/178
f 184/184/184 183/183/183 182/182/182
f 183/183/183 185/185/185 182/182/182
f 182/182/182 185/185/185 186/186/186
f 185/185/185 187/187/187 186/186/186
f 190/190/190 189/189/189 188/188/188
f 191/191/191 190/190/190 188/188/188
f 194/194/194 193/193/193 192/192/192
f 195/195/195 194/194/194 192/192/192
