g Banner Small Rolled Up
v -0.6908361 0.14673036 4.721132
v -0.6908361 0.28739035 4.721132
v -0.6908361 0.28739035 4.861792
v -0.6908361 0.14673036 4.861792
v 0.5623457 0.28739035 4.721132
v 0.70002 0.28739035 4.721132
v 0.70002 0.28739035 4.861792
v 0.5623457 0.28739035 4.861792
v -0.557743 0.28739035 4.721132
v -0.0047861915 0.28739035 5.7046313
v 0.13288815 0.28739035 5.7046313
v -0.557743 0.28739035 4.861792
v -0.6908361 0.28739035 4.721132
v -0.6908361 0.28739035 4.861792
v 0.70002 0.28739035 4.721132
v 0.70002 0.14673036 4.721132
v 0.70002 0.14673036 4.861792
v 0.70002 0.28739035 4.861792
v -0.557743 0.14673036 4.721132
v -0.6908361 0.14673036 4.721132
v -0.6908361 0.14673036 4.861792
v -0.557743 0.14673036 4.861792
v 0.5623457 0.14673036 4.721132
v 0.5623457 0.14673036 4.861792
v 0.70002 0.14673036 4.721132
v 0.70002 0.14673036 4.861792
v 0.5623457 0.28739035 4.721132
v 0.70002 0.14673036 4.721132
v 0.70002 0.28739035 4.721132
v 0.5623457 0.14673036 4.721132
v -0.557743 0.28739035 4.721132
v -0.557743 0.14673036 4.721132
v -0.6908361 0.28739035 4.721132
v -0.6908361 0.14673036 4.721132
v -0.557743 0.14673036 4.861792
v -0.004977105 0.14673036 5.7046313
v -0.004977105 0.28739035 5.7046313
v -0.557743 0.28739035 4.861792
v 0.70002 0.14673036 4.861792
v 0.13288815 0.14673036 5.7046313
v 0.13288815 0.28739035 5.7046313
v 0.70002 0.28739035 4.861792
v 0.5623457 0.28739035 4.861792
v 0.5623457 0.14673036 4.861792
v -0.557743 0.14673036 4.861792
v -0.557743 0.28739035 4.861792
v -0.004977105 0.28739035 5.7046313
v -0.004977105 0.14673036 5.7046313
v -0.13807017 0.14673036 5.7046313
v -0.13807017 0.28739035 5.7046313
v 0.13288815 0.28739035 5.7046313
v 0.13288815 0.14673036 5.7046313
v -0.0047861915 0.14673036 5.7046313
v -0.0047861915 0.28739035 5.7046313
v 0.5623457 0.14673036 4.861792
v -0.0047861915 0.14673036 5.7046313
v 0.13288815 0.14673036 5.7046313
v 0.70002 0.14673036 4.861792
v -0.6908361 0.28739035 4.861792
v -0.13807017 0.28739035 5.7046313
v -0.13807017 0.14673036 5.7046313
v -0.6908361 0.14673036 4.861792
v -0.557743 0.28739035 4.861792
v -0.004977105 0.28739035 5.7046313
v -0.13807017 0.28739035 5.7046313
v -0.6908361 0.28739035 4.861792
v -0.6908361 0.14673036 4.861792
v -0.13807017 0.14673036 5.7046313
v -0.004977105 0.14673036 5.7046313
v -0.557743 0.14673036 4.861792
v 0.5623457 0.28739035 4.861792
v -0.0047861915 0.28739035 5.7046313
v -0.0047861915 0.14673036 5.7046313
v 0.5623457 0.14673036 4.861792
v -0.15846148 0.10840544 5.684255
v -0.15846148 0.29795536 5.684255
v -0.15846148 0.29795536 5.9630013
v -0.15846148 0.10840544 5.9630013
v -0.15846148 -0.09013188 5.684255
v -0.15846148 -0.09013188 5.9630013
v -0 0.29795536 5.684255
v 0.15846148 0.29795536 5.684255
v 0.15846148 0.29795536 5.9630013
v -0 0.29795536 6.0539026
v -0.15846148 0.29795536 5.684255
v -0.15846148 0.29795536 5.9630013
v 0.15846148 0.29795536 5.684255
v 0.15846148 0.10840544 5.9630013
v 0.15846148 0.29795536 5.9630013
v 0.15846148 0.10840544 5.684255
v 0.15846148 -0.09013188 5.9630013
v 0.15846148 -0.09013188 5.684255
v -0 0.10840544 6.0539026
v -0 -0.09013188 6.0539026
v -0.15846148 -0.09013188 5.9630013
v -0.15846148 0.10840544 5.9630013
v -0 0.29795536 5.684255
v 0.15846148 0.10840544 5.684255
v 0.15846148 0.29795536 5.684255
v -0 0.10840544 5.684255
v -0.15846148 0.29795536 5.684255
v -0.15846148 0.10840544 5.684255
v -0 0.07999009 5.684255
v -0.11310236 0.07999009 5.684255
v 0.11310236 0.07999009 5.684255
v 0.11310236 -0.061716527 5.684255
v 0.15846148 -0.09013188 5.684255
v -0 -0.061716527 5.684255
v -0 -0.09013188 5.684255
v -0.11310236 -0.061716527 5.684255
v -0.15846148 -0.09013188 5.684255
v -0 0.29795536 6.0539026
v -0 0.10840544 6.0539026
v -0.15846148 0.10840544 5.9630013
v -0.15846148 0.29795536 5.9630013
v -0 -0.09013188 5.684255
v -0.15846148 -0.09013188 5.684255
v -0.15846148 -0.09013188 5.9630013
v -0 -0.09013188 6.0539026
v 0.15846148 -0.09013188 5.684255
v 0.15846148 -0.09013188 5.9630013
v 0.11310236 0.07999009 5.684255
v 0.11310236 0.07999009 -0.076593235
v 0.11310236 -0.061716527 -0.076593235
v 0.11310236 -0.061716527 5.684255
v -0.15846148 -0.09013188 5.684255
v -0.11310236 -0.061716527 5.684255
v -0.11310236 0.07999009 5.684255
v -0.15846148 0.10840544 5.684255
v -0 0.07999009 -0.076593235
v 0.11310236 -0.061716527 -0.076593235
v 0.11310236 0.07999009 -0.076593235
v -0 -0.061716527 -0.076593235
v -0.11310236 0.07999009 -0.076593235
v -0.11310236 -0.061716527 -0.076593235
v -0 0.07999009 5.684255
v 0.11310236 0.07999009 -0.076593235
v 0.11310236 0.07999009 5.684255
v -0 0.07999009 -0.076593235
v -0.11310236 0.07999009 5.684255
v -0.11310236 0.07999009 -0.076593235
v -0.11310236 -0.061716527 5.684255
v -0.11310236 -0.061716527 -0.076593235
v -0.11310236 0.07999009 -0.076593235
v -0.11310236 0.07999009 5.684255
v -0 -0.061716527 5.684255
v -0.11310236 -0.061716527 -0.076593235
v -0.11310236 -0.061716527 5.684255
v -0 -0.061716527 -0.076593235
v 0.11310236 -0.061716527 5.684255
v 0.11310236 -0.061716527 -0.076593235
v 0.15846148 0.29795536 5.9630013
v 0.15846148 0.10840544 5.9630013
v -0 0.10840544 6.0539026
v -0 0.29795536 6.0539026
v 0.15846148 0.10840544 5.9630013
v 0.15846148 -0.09013188 5.9630013
v -0 -0.09013188 6.0539026
v -0 0.10840544 6.0539026
v -0.69484735 0.35523358 4.682683
v -0.69484735 0.31839088 4.593737
v 0.69484067 0.31839088 4.593737
v 0.69484067 0.35523358 4.682683
v -0.69484735 0.31839088 4.593737
v -0.69484735 0.22944482 4.556895
v 0.69484067 0.22944482 4.5568943
v 0.69484067 0.31839088 4.593737
v -0.69484735 0.22944482 4.556895
v -0.69484735 0.14049873 4.593737
v 0.69484067 0.14049873 4.593737
v 0.69484067 0.22944482 4.5568943
v -0.69484735 0.14049873 4.593737
v -0.69484735 0.10365605 4.682683
v 0.69484067 0.10365605 4.682683
v 0.69484067 0.14049873 4.593737
v -0.69484735 0.10365605 4.682683
v -0.69484735 0.14049873 4.7716293
v 0.69484067 0.14049873 4.7716293
v 0.69484067 0.10365605 4.682683
v -0.69484735 0.14049873 4.7716293
v -0.69484735 0.22944482 4.808472
v 0.69484067 0.22944482 4.8084717
v 0.69484067 0.14049873 4.7716293
v 0.69484067 0.14049873 4.593737
v 0.69484067 0.10365605 4.682683
v 0.69484067 0.14049873 4.7716293
v 0.69484067 0.22944482 4.5568943
v 0.69484067 0.22944482 4.8084717
v 0.69484067 0.31839088 4.593737
v 0.69484067 0.31839088 4.7716293
v 0.69484067 0.35523358 4.682683
v -0.69484735 0.22944482 4.808472
v -0.69484735 0.31839088 4.7716293
v 0.69484067 0.31839088 4.7716293
v 0.69484067 0.22944482 4.8084717
v -0.69484735 0.31839088 4.7716293
v -0.69484735 0.35523358 4.682683
v 0.69484067 0.35523358 4.682683
v 0.69484067 0.31839088 4.7716293
v -0.69484735 0.14049873 4.7716293
v -0.69484735 0.10365605 4.682683
v -0.69484735 0.14049873 4.593737
v -0.69484735 0.22944482 4.808472
v -0.69484735 0.22944482 4.556895
v -0.69484735 0.31839088 4.7716293
v -0.69484735 0.31839088 4.593737
v -0.69484735 0.35523358 4.682683
vt 0.375 0
vt 0.375 0.25
vt 0.625 0.25
vt 0.625 0
vt 0.375 0.4842829
vt 0.375 0.5
vt 0.625 0.5
vt 0.625 0.4842829
vt 0.375 0.2651941
vt 0.625 0.4842829
vt 0.625 0.5
vt 0.625 0.2651941
vt 0.375 0.25
vt 0.625 0.25
vt 0.375 0.5
vt 0.375 0.75
vt 0.625 0.75
vt 0.625 0.5
vt 0.37500003 0.98480594
vt 0.375 1
vt 0.625 1
vt 0.625 0.9848059
vt 0.375 0.7657171
vt 0.625 0.7657171
vt 0.375 0.75
vt 0.625 0.75
vt 0.35928288 0.5
vt 0.375 0.75
vt 0.375 0.5
vt 0.3592829 0.75
vt 0.14019409 0.5
vt 0.1401941 0.75
vt 0.125 0.5
vt 0.125 0.75
vt 0.85980594 0.75000006
vt 0.85980594 0.75000006
vt 0.8598059 0.5
vt 0.8598059 0.5
vt 0.625 0.75
vt 0.625 0.75
vt 0.625 0.5
vt 0.625 0.5
vt 0.6407171 0.5
vt 0.64071715 0.75
vt 0.85980594 0.75000006
vt 0.8598059 0.5
vt 0.8598059 0.5
vt 0.85980594 0.75000006
vt 0.875 0.75
vt 0.875 0.5
vt 0.625 0.5
vt 0.625 0.75
vt 0.64071715 0.75
vt 0.6407171 0.5
vt 0.625 0.7657171
vt 0.625 0.7657171
vt 0.625 0.75
vt 0.625 0.75
vt 0.625 0.25
vt 0.625 0.25
vt 0.625 0
vt 0.625 0
vt 0.625 0.2651941
vt 0.625 0.2651941
vt 0.625 0.25
vt 0.625 0.25
vt 0.625 1
vt 0.625 1
vt 0.625 0.9848059
vt 0.625 0.9848059
vt 0.6407171 0.5
vt 0.6407171 0.5
vt 0.64071715 0.75
vt 0.64071715 0.75
vt 0.375 0
vt 0.375 0.25
vt 0.625 0.25
vt 0.625 0
vt 0.375 0
vt 0.625 0
vt 0.375 0.375
vt 0.375 0.5
vt 0.625 0.5
vt 0.625 0.375
vt 0.375 0.25
vt 0.625 0.25
vt 0.375 0.5
vt 0.625 0.75
vt 0.625 0.5
vt 0.375 0.75
vt 0.625 0.75
vt 0.375 0.75
vt 0.75 0.75
vt 0.75 0.75
vt 0.875 0.75
vt 0.875 0.75
vt 0.25 0.5
vt 0.375 0.75
vt 0.375 0.5
vt 0.25 0.75
vt 0.125 0.5
vt 0.125 0.75
vt 0.25 0.75
vt 0.125 0.75
vt 0.375 0.75
vt 0.375 0.75
vt 0.375 0.75
vt 0.375 0.875
vt 0.375 0.875
vt 0.375 1
vt 0.375 1
vt 0.75 0.5
vt 0.75 0.75
vt 0.875 0.75
vt 0.875 0.5
vt 0.375 0.875
vt 0.375 1
vt 0.625 1
vt 0.625 0.875
vt 0.375 0.75
vt 0.625 0.75
vt 0.375 0.75
vt 0.375 0.75
vt 0.375 0.75
vt 0.375 0.75
vt 0.375 0
vt 0.375 0
vt 0.375 0
vt 0.375 0
vt 0.25 0.75
vt 0.375 0.75
vt 0.375 0.75
vt 0.25 0.75
vt 0.125 0.75
vt 0.125 0.75
vt 0.25 0.75
vt 0.375 0.75
vt 0.375 0.75
vt 0.25 0.75
vt 0.125 0.75
vt 0.125 0.75
vt 0.375 0
vt 0.375 0
vt 0.375 0
vt 0.375 0
vt 0.375 0.875
vt 0.375 1
vt 0.375 1
vt 0.375 0.875
vt 0.375 0.75
vt 0.375 0.75
vt 0.625 0.5
vt 0.625 0.75
vt 0.75 0.75
vt 0.75 0.5
vt 0.625 0.75
vt 0.625 0.75
vt 0.75 0.75
vt 0.75 0.75
vt 1 0.5
vt 0.875 0.5
vt 0.875 1
vt 1 1
vt 0.875 0.5
vt 0.75 0.5
vt 0.75 1
vt 0.875 1
vt 0.75 0.5
vt 0.625 0.5
vt 0.625 1
vt 0.75 1
vt 0.625 0.5
vt 0.5 0.5
vt 0.5 1
vt 0.625 1
vt 0.5 0.5
vt 0.375 0.5
vt 0.375 1
vt 0.5 1
vt 0.375 0.5
vt 0.25 0.5
vt 0.25 1
vt 0.375 1
vt 0.41970545 0.080294386
vt 0.25 0.01000002
vt 0.08029455 0.08029437
vt 0.49000025 0.25
vt 0.010000274 0.25
vt 0.41970545 0.41970563
vt 0.08029455 0.41970563
vt 0.25 0.48999998
vt 0.25 0.5
vt 0.125 0.5
vt 0.125 1
vt 0.25 1
vt 0.125 0.5
vt 0 0.5
vt 0 1
vt 0.125 1
vt 0.58029455 0.08029437
vt 0.75 0.01000002
vt 0.91970545 0.080294386
vt 0.50999975 0.25
vt 0.9899997 0.25
vt 0.58029455 0.41970563
vt 0.91970545 0.41970563
vt 0.75 0.48999998
vn -1 0 0
vn -1 0 0
vn -1 0 0
vn -1 0 0
vn -0 1 0
vn -0 1 0
vn -0 1 0
vn -0 1 0
vn -0 1 0
vn -0 1 0
vn -0 1 0
vn -0 1 0
vn -0 1 0
vn -0 1 0
vn 1 0 0
vn 1 0 0
vn 1 0 0
vn 1 0 0
vn -0 -1 0
vn -0 -1 0
vn -0 -1 0
vn -0 -1 0
vn -0 -1 0
vn -0 -1 0
vn -0 -1 0
vn -0 -1 0
vn -0 0 -1
vn -0 0 -1
vn -0 0 -1
vn -0 0 -1
vn -0 0 -1
vn -0 0 -1
vn -0 0 -1
vn -0 0 -1
vn 0.83620596 0 -0.5484155
vn 0.83620596 0 -0.5484155
vn 0.83620596 0 -0.5484155
vn 0.83620596 0 -0.5484155
vn 0.82966244 0 0.55826545
vn 0.82966244 0 0.55826545
vn 0.82966244 0 0.55826545
vn 0.82966244 0 0.55826545
vn -0 0 1
vn -0 0 1
vn -0 0 1
vn -0 0 1
vn -0 0 1
vn -0 0 1
vn -0 0 1
vn -0 0 1
vn -0 0 1
vn -0 0 1
vn -0 0 1
vn -0 0 1
vn -0 -1 0
vn -0 -1 0
vn -0 -1 0
vn -0 -1 0
vn -0.83620596 0 0.5484155
vn -0.83620596 0 0.5484155
vn -0.83620596 0 0.5484155
vn -0.83620596 0 0.5484155
vn -0 1 0
vn -0 1 0
vn -0 1 0
vn -0 1 0
vn -0 -1 0
vn -0 -1 0
vn -0 -1 0
vn -0 -1 0
vn -0.82966244 0 -0.55826545
vn -0.82966244 0 -0.55826545
vn -0.82966244 0 -0.55826545
vn -0.82966244 0 -0.55826545
vn -1 0 0
vn -1 0 0
vn -1 0 0
vn -1 0 0
vn -1 0 0
vn -1 0 0
vn -0 1 0
vn -0 1 0
vn -0 1 0
vn -0 1 0
vn -0 1 0
vn -0 1 0
vn 1 0 0
vn 1 0 0
vn 1 0 0
vn 1 0 0
vn 1 0 0
vn 1 0 0
vn -0.49759096 0 0.86741173
vn -0.49759096 0 0.86741173
vn -0.49759096 0 0.86741173
vn -0.49759096 0 0.86741173
vn -0 0 -1
vn -0 0 -1
vn -0 0 -1
vn -0 0 -1
vn -0 0 -1
vn -0 0 -1
vn -0 0 -1
vn -0 0 -1
vn -0 0 -1
vn -0 0 -1
vn -0 0 -1
vn -0 0 -1
vn -0 0 -1
vn -0 0 -1
vn -0 0 -1
vn -0.49758893 0 0.8674129
vn -0.49758893 0 0.8674129
vn -0.49758893 0 0.8674129
vn -0.49758893 0 0.8674129
vn -0 -1 0
vn -0 -1 0
vn -0 -1 0
vn -0 -1 0
vn -0 -1 0
vn -0 -1 0
vn 1 0 0
vn 1 0 0
vn 1 0 0
vn 1 0 0
vn -0 0 -1
vn -0 0 -1
vn -0 0 -1
vn -0 0 -1
vn -0 0 -1
vn -0 0 -1
vn -0 0 -1
vn -0 0 -1
vn -0 0 -1
vn -0 0 -1
vn -0 1 0
vn -0 1 0
vn -0 1 0
vn -0 1 0
vn -0 1 0
vn -0 1 0
vn -1 0 0
vn -1 0 0
vn -1 0 0
vn -1 0 0
vn -0 -1 0
vn -0 -1 0
vn -0 -1 0
vn -0 -1 0
vn -0 -1 0
vn -0 -1 0
vn 0.49758893 0 0.8674129
vn 0.49758893 0 0.8674129
vn 0.49758893 0 0.8674129
vn 0.49758893 0 0.8674129
vn 0.49759096 0 0.86741173
vn 0.49759096 0 0.86741173
vn 0.49759096 0 0.86741173
vn 0.49759096 0 0.86741173
vn -0 0.9238791 -0.3826844
vn -0 0.9238791 -0.3826844
vn -0 0.9238791 -0.3826844
vn -0 0.9238791 -0.3826844
vn -0 0.38268268 -0.9238798
vn -0 0.38268268 -0.9238798
vn -0 0.38268268 -0.9238798
vn -0 0.38268268 -0.9238798
vn -0 -0.3826826 -0.9238799
vn -0 -0.3826826 -0.9238799
vn -0 -0.3826826 -0.9238799
vn -0 -0.3826826 -0.9238799
vn -0 -0.9238792 -0.38268426
vn -0 -0.9238792 -0.38268426
vn -0 -0.9238792 -0.38268426
vn -0 -0.9238792 -0.38268426
vn -0 -0.9238799 0.3826825
vn -0 -0.9238799 0.3826825
vn -0 -0.9238799 0.3826825
vn -0 -0.9238799 0.3826825
vn -0 -0.3826826 0.9238799
vn -0 -0.3826826 0.9238799
vn -0 -0.3826826 0.9238799
vn -0 -0.3826826 0.9238799
vn 1 0 0
vn 1 0 0
vn 1 0 0
vn 1 0 0
vn 1 0 0
vn 1 0 0
vn 1 0 0
vn 1 0 0
vn -0 0.38268268 0.9238798
vn -0 0.38268268 0.9238798
vn -0 0.38268268 0.9238798
vn -0 0.38268268 0.9238798
vn -0 0.9238798 0.38268268
vn -0 0.9238798 0.38268268
vn -0 0.9238798 0.38268268
vn -0 0.9238798 0.38268268
vn -1 0 0
vn -1 0 0
vn -1 0 0
vn -1 0 0
vn -1 0 0
vn -1 0 0
vn -1 0 0
vn -1 0 0
g Banner Small Rolled Up_0
f 3/3/3 2/2/2 1/1/1
f 4/4/4 3/3/3 1/1/1
f 7/7/7 6/6/6 5/5/5
f 8/8/8 7/7/7 5/5/5
f 8/8/8 5/5/5 9/9/9
f 8/8/8 10/10/10 7/7/7
f 10/10/10 11/11/11 7/7/7
f 12/12/12 8/8/8 9/9/9
f 12/12/12 9/9/9 13/13/13
f 14/14/14 12/12/12 13/13/13
f 17/17/17 16/16/16 15/15/15
f 18/18/18 17/17/17 15/15/15
f 21/21/21 20/20/20 19/19/19
f 22/22/22 21/21/21 19/19/19
f 22/22/22 19/19/19 23/23/23
f 24/24/24 22/22/22 23/23/23
f 24/24/24 23/23/23 25/25/25
f 26/26/26 24/24/24 25/25/25
f 29/29/29 28/28/28 27/27/27
f 28/28/28 30/30/30 27/27/27
f 27/27/27 30/30/30 31/31/31
f 30/30/30 32/32/32 31/31/31
f 31/31/31 32/32/32 33/33/33
f 32/32/32 34/34/34 33/33/33
f 37/37/37 36/36/36 35/35/35
f 38/38/38 37/37/37 35/35/35
f 41/41/41 40/40/40 39/39/39
f 42/42/42 41/41/41 39/39/39
f 45/45/45 44/44/44 43/43/43
f 46/46/46 45/45/45 43/43/43
f 49/49/49 48/48/48 47/47/47
f 50/50/50 49/49/49 47/47/47
f 53/53/53 52/52/52 51/51/51
f 54/54/54 53/53/53 51/51/51
f 57/57/57 56/56/56 55/55/55
f 58/58/58 57/57/57 55/55/55
f 61/61/61 60/60/60 59/59/59
f 62/62/62 61/61/61 59/59/59
f 65/65/65 64/64/64 63/63/63
f 66/66/66 65/65/65 63/63/63
f 69/69/69 68/68/68 67/67/67
f 70/70/70 69/69/69 67/67/67
f 73/73/73 72/72/72 71/71/71
f 74/74/74 73/73/73 71/71/71
f 77/77/77 76/76/76 75/75/75
f 78/78/78 77/77/77 75/75/75
f 75/75/75 79/79/79 78/78/78
f 79/79/79 80/80/80 78/78/78
f 83/83/83 82/82/82 81/81/81
f 84/84/84 83/83/83 81/81/81
f 84/84/84 81/81/81 85/85/85
f 86/86/86 84/84/84 85/85/85
f 89/89/89 88/88/88 87/87/87
f 88/88/88 90/90/90 87/87/87
f 88/88/88 91/91/91 90/90/90
f 91/91/91 92/92/92 90/90/90
f 95/95/95 94/94/94 93/93/93
f 96/96/96 95/95/95 93/93/93
f 99/99/99 98/98/98 97/97/97
f 98/98/98 100/100/100 97/97/97
f 97/97/97 100/100/100 101/101/101
f 100/100/100 102/102/102 101/101/101
f 100/100/100 103/103/103 102/102/102
f 103/103/103 104/104/104 102/102/102
f 105/105/105 103/103/103 100/100/100
f 98/98/98 105/105/105 100/100/100
f 106/106/106 105/105/105 98/98/98
f 107/107/107 106/106/106 98/98/98
f 108/108/108 106/106/106 107/107/107
f 109/109/109 108/108/108 107/107/107
f 110/110/110 108/108/108 109/109/109
f 111/111/111 110/110/110 109/109/109
f 114/114/114 113/113/113 112/112/112
f 115/115/115 114/114/114 112/112/112
f 118/118/118 117/117/117 116/116/116
f 119/119/119 118/118/118 116/116/116
f 119/119/119 116/116/116 120/120/120
f 121/121/121 119/119/119 120/120/120
f 124/124/124 123/123/123 122/122/122
f 125/125/125 124/124/124 122/122/122
f 128/128/128 127/127/127 126/126/126
f 129/129/129 128/128/128 126/126/126
f 132/132/132 131/131/131 130/130/130
f 131/131/131 133/133/133 130/130/130
f 130/130/130 133/133/133 134/134/134
f 133/133/133 135/135/135 134/134/134
f 138/138/138 137/137/137 136/136/136
f 137/137/137 139/139/139 136/136/136
f 136/136/136 139/139/139 140/140/140
f 139/139/139 141/141/141 140/140/140
f 144/144/144 143/143/143 142/142/142
f 145/145/145 144/144/144 142/142/142
f 148/148/148 147/147/147 146/146/146
f 147/147/147 149/149/149 146/146/146
f 146/146/146 149/149/149 150/150/150
f 149/149/149 151/151/151 150/150/150
f 154/154/154 153/153/153 152/152/152
f 155/155/155 154/154/154 152/152/152
f 158/158/158 157/157/157 156/156/156
f 159/159/159 158/158/158 156/156/156
f 162/162/162 161/161/161 160/160/160
f 163/163/163 162/162/162 160/160/160
f 166/166/166 165/165/165 164/164/164
f 167/167/167 166/166/166 164/164/164
f 170/170/170 169/169/169 168/168/168
f 171/171/171 170/170/170 168/168/168
f 174/174/174 173/173/173 172/172/172
f 175/175/175 174/174/174 172/172/172
f 178/178/178 177/177/177 176/176/176
f 179/179/179 178/178/178 176/176/176
f 182/182/182 181/181/181 180/180/180
f 183/183/183 182/182/182 180/180/180
f 186/186/186 185/185/185 184/184/184
f 184/184/184 187/187/187 186/186/186
f 187/187/187 188/188/188 186/186/186
f 187/187/187 189/189/189 188/188/188
f 189/189/189 190/190/190 188/188/188
f 189/189/189 191/191/191 190/190/190
f 194/194/194 193/193/193 192/192/192
f 195/195/195 194/194/194 192/192/192
f 198/198/198 197/197/197 196/196/196
f 199/199/199 198/198/198 196/196/196
f 202/202/202 201/201/201 200/200/200
f 200/200/200 203/203/203 202/202/202
f 203/203/203 204/204/204 202/202/202
f 203/203/203 205/205/205 204/204/204
f 205/205/205 206/206/206 204/204/204
f 205/205/205 207/207/207 206/206/206
