g Barracks Ruins
v -2.5679808 -2.1433961 1.1175871E-07
v -2.6638553 -2.595262 0.014105349
v -1.7984545 -2.528408 0.019504342
v -2.0196466 -2.0476663 1.1175871E-07
v 2.5885007 -1.6590781 1.09400894E-07
v 2.1861088 -1.7518852 1.09400894E-07
v 2.117899 -2.5121193 1.09400894E-07
v 2.6163025 -2.5786853 1.09400894E-07
v -2.5679808 -2.1433961 0.48841435
v -2.0196466 -2.0476663 0.48841435
v -1.7984545 -2.528408 0.5079186
v -2.6638553 -2.595262 0.5025196
v 2.5885007 -1.6590781 0.48841435
v 2.6163025 -2.5786853 0.48841435
v 2.117899 -2.5121193 0.48841435
v 2.1861088 -1.7518852 0.48841435
v -2.0196466 -2.0476663 1.1175871E-07
v -1.7984545 -2.528408 0.019504342
v -1.7984545 -2.528408 0.5079186
v -2.0196466 -2.0476663 0.48841435
v 2.6163025 -2.5786853 1.09400894E-07
v 2.117899 -2.5121193 1.09400894E-07
v 2.117899 -2.5121193 0.48841435
v 2.6163025 -2.5786853 0.48841435
v -2.6638553 -2.595262 0.014105349
v -2.5679808 -2.1433961 1.1175871E-07
v -2.5679808 -2.1433961 0.48841435
v -2.6638553 -2.595262 0.5025196
v -2.5679808 -2.1433961 1.1175871E-07
v -2.0196466 -2.0476663 1.1175871E-07
v -2.0196466 -2.0476663 0.48841435
v -2.5679808 -2.1433961 0.48841435
v 2.1861088 -1.7518852 1.09400894E-07
v 2.5885007 -1.6590781 1.09400894E-07
v 2.5885007 -1.6590781 0.48841435
v 2.1861088 -1.7518852 0.48841435
v 2.5885007 -1.6590781 1.09400894E-07
v 2.6163025 -2.5786853 1.09400894E-07
v 2.6163025 -2.5786853 0.48841435
v 2.5885007 -1.6590781 0.48841435
v -2.2294226 3.864983 1.0430813E-07
v -2.8221974 4.0014086 1.0430813E-07
v -2.875852 3.439293 1.0430813E-07
v -2.4221816 3.2354047 1.0430813E-07
v -2.2294226 3.864983 0.48841435
v -2.4221816 3.2354047 0.48841435
v -2.875852 3.439293 0.48841435
v -2.8221974 4.0014086 0.48841435
v -2.4221816 3.2354047 1.0430813E-07
v -2.875852 3.439293 1.0430813E-07
v -2.875852 3.439293 0.48841435
v -2.4221816 3.2354047 0.48841435
v -2.8221974 4.0014086 1.0430813E-07
v -2.2294226 3.864983 1.0430813E-07
v -2.2294226 3.864983 0.48841435
v -2.8221974 4.0014086 0.48841435
v -2.2294226 3.864983 1.0430813E-07
v -2.4221816 3.2354047 1.0430813E-07
v -2.4221816 3.2354047 0.48841435
v -2.2294226 3.864983 0.48841435
v -2.875852 3.439293 1.0430813E-07
v -2.8221974 4.0014086 1.0430813E-07
v -2.8221974 4.0014086 0.48841435
v -2.875852 3.439293 0.48841435
v 2.117899 -2.5121193 1.09400894E-07
v 2.1861088 -1.7518852 1.09400894E-07
v 2.1861088 -1.7518852 0.48841435
v 2.117899 -2.5121193 0.48841435
v -1.7984545 -2.528408 0.019504342
v -2.6638553 -2.595262 0.014105349
v -2.6638553 -2.595262 0.5025196
v -1.7984545 -2.528408 0.5079186
v -0.567135 3.4541192 1.6391277E-07
v -0.50979316 4.078364 1.6391277E-07
v -1.0373757 3.877094 1.6391277E-07
v -1.0188551 3.3800585 1.6391277E-07
v -0.567135 3.4541192 0.4884144
v -1.0188551 3.3800585 0.4884144
v -1.0373757 3.877094 0.4884144
v -0.50979316 4.078364 0.4884144
v -1.0188551 3.3800585 1.6391277E-07
v -1.0373757 3.877094 1.6391277E-07
v -1.0373757 3.877094 0.4884144
v -1.0188551 3.3800585 0.4884144
v -0.50979316 4.078364 1.6391277E-07
v -0.567135 3.4541192 1.6391277E-07
v -0.567135 3.4541192 0.4884144
v -0.50979316 4.078364 0.4884144
v -0.567135 3.4541192 1.6391277E-07
v -1.0188551 3.3800585 1.6391277E-07
v -1.0188551 3.3800585 0.4884144
v -0.567135 3.4541192 0.4884144
v -1.0373757 3.877094 1.6391277E-07
v -0.50979316 4.078364 1.6391277E-07
v -0.50979316 4.078364 0.4884144
v -1.0373757 3.877094 0.4884144
v 2.7556093 -0.48313606 1.6391277E-07
v 2.61492 0.10864103 1.6391277E-07
v 2.3366737 0.0024916828 1.6391277E-07
v 2.3857727 -0.5437715 1.6391277E-07
v 2.7556093 -0.48313606 0.4884144
v 2.3857727 -0.5437715 0.4884144
v 2.3366737 0.0024916828 0.4884144
v 2.61492 0.10864103 0.4884144
v 2.3857727 -0.5437715 1.6391277E-07
v 2.3366737 0.0024916828 1.6391277E-07
v 2.3366737 0.0024916828 0.4884144
v 2.3857727 -0.5437715 0.4884144
v 2.61492 0.10864103 1.6391277E-07
v 2.7556093 -0.48313606 1.6391277E-07
v 2.7556093 -0.48313606 0.4884144
v 2.61492 0.10864103 0.4884144
v 2.7556093 -0.48313606 1.6391277E-07
v 2.3857727 -0.5437715 1.6391277E-07
v 2.3857727 -0.5437715 0.4884144
v 2.7556093 -0.48313606 0.4884144
v 2.3366737 0.0024916828 1.6391277E-07
v 2.61492 0.10864103 1.6391277E-07
v 2.61492 0.10864103 0.4884144
v 2.3366737 0.0024916828 0.4884144
v -0.5945587 -0.3896793 1.1920929E-07
v -0.1447323 -0.28465098 0.01410535
v -0.5726578 0.47050977 0.019504339
v -0.91402197 0.06614715 1.1920929E-07
v -0.5945587 -0.3896793 0.48841435
v -0.91402197 0.06614715 0.48841435
v -0.5726578 0.47050977 0.5079186
v -0.1447323 -0.28465098 0.5025196
v -0.91402197 0.06614715 1.1920929E-07
v -0.5726578 0.47050977 0.019504339
v -0.5726578 0.47050977 0.5079186
v -0.91402197 0.06614715 0.48841435
v -0.1447323 -0.28465098 0.01410535
v -0.5945587 -0.3896793 1.1920929E-07
v -0.5945587 -0.3896793 0.48841435
v -0.1447323 -0.28465098 0.5025196
v -0.5945587 -0.3896793 1.1920929E-07
v -0.91402197 0.06614715 1.1920929E-07
v -0.91402197 0.06614715 0.48841435
v -0.5945587 -0.3896793 0.48841435
v -0.5726578 0.47050977 0.019504339
v -0.1447323 -0.28465098 0.01410535
v -0.1447323 -0.28465098 0.5025196
v -0.5726578 0.47050977 0.5079186
v -2.2878335 -0.2520008 1.6391277E-07
v -2.2304916 0.37224388 1.6391277E-07
v -2.7580743 0.17097402 1.6391277E-07
v -2.7395535 -0.3260615 1.6391277E-07
v -2.2878335 -0.2520008 0.4884144
v -2.7395535 -0.3260615 0.4884144
v -2.7580743 0.17097402 0.4884144
v -2.2304916 0.37224388 0.4884144
v -2.7395535 -0.3260615 1.6391277E-07
v -2.7580743 0.17097402 1.6391277E-07
v -2.7580743 0.17097402 0.4884144
v -2.7395535 -0.3260615 0.4884144
v -2.2304916 0.37224388 1.6391277E-07
v -2.2878335 -0.2520008 1.6391277E-07
v -2.2878335 -0.2520008 0.4884144
v -2.2304916 0.37224388 0.4884144
v -2.2878335 -0.2520008 1.6391277E-07
v -2.7395535 -0.3260615 1.6391277E-07
v -2.7395535 -0.3260615 0.4884144
v -2.2878335 -0.2520008 0.4884144
v -2.7580743 0.17097402 1.6391277E-07
v -2.2304916 0.37224388 1.6391277E-07
v -2.2304916 0.37224388 0.4884144
v -2.7580743 0.17097402 0.4884144
v 0.47467774 -1.6347122 1.1920929E-07
v 1.2340539 -1.9108831 0.01410535
v 1.3290968 -0.39552203 0.019504339
v 0.44244978 -0.6615478 1.1920929E-07
v 0.47467774 -1.6347122 0.48841435
v 0.44244978 -0.6615478 0.48841435
v 1.3290968 -0.39552203 0.5079186
v 1.2340539 -1.9108831 0.5025196
v 0.44244978 -0.6615478 1.1920929E-07
v 1.3290968 -0.39552203 0.019504339
v 1.3290968 -0.39552203 0.5079186
v 0.44244978 -0.6615478 0.48841435
v 1.2340539 -1.9108831 0.01410535
v 0.47467774 -1.6347122 1.1920929E-07
v 0.47467774 -1.6347122 0.48841435
v 1.2340539 -1.9108831 0.5025196
v 0.47467774 -1.6347122 1.1920929E-07
v 0.44244978 -0.6615478 1.1920929E-07
v 0.44244978 -0.6615478 0.48841435
v 0.47467774 -1.6347122 0.48841435
v 1.3290968 -0.39552203 0.019504339
v 1.2340539 -1.9108831 0.01410535
v 1.2340539 -1.9108831 0.5025196
v 1.3290968 -0.39552203 0.5079186
vt 0 0
vt 0 0
vt 0 0
vt 0 0
vt 0 0
vt 0 0
vt 0 0
vt 0 0
vt 0 0
vt 0 0
vt 0 0
vt 0 0
vt 0 0
vt 0 0
vt 0 0
vt 0 0
vt 0 0
vt 0 0
vt 0 0
vt 0 0
vt 0 0
vt 0 0
vt 0 0
vt 0 0
vt 0 0
vt 0 0
vt 0 0
vt 0 0
vt 0 0
vt 0 0
vt 0 0
vt 0 0
vt 0 0
vt 0 0
vt 0 0
vt 0 0
vt 0 0
vt 0 0
vt 0 0
vt 0 0
vt 0 0
vt 0 0
vt 0 0
vt 0 0
vt 0 0
vt 0 0
vt 0 0
vt 0 0
vt 0 0
vt 0 0
vt 0 0
vt 0 0
vt 0 0
vt 0 0
vt 0 0
vt 0 0
vt 0 0
vt 0 0
vt 0 0
vt 0 0
vt 0 0
vt 0 0
vt 0 0
vt 0 0
vt 0 0
vt 0 0
vt 0 0
vt 0 0
vt 0 0
vt 0 0
vt 0 0
vt 0 0
vt 0 0
vt 0 0
vt 0 0
vt 0 0
vt 0 0
vt 0 0
vt 0 0
vt 0 0
vt 0 0
vt 0 0
vt 0 0
vt 0 0
vt 0 0
vt 0 0
vt 0 0
vt 0 0
vt 0 0
vt 0 0
vt 0 0
vt 0 0
vt 0 0
vt 0 0
vt 0 0
vt 0 0
vt 0 0
vt 0 0
vt 0 0
vt 0 0
vt 0 0
vt 0 0
vt 0 0
vt 0 0
vt 0 0
vt 0 0
vt 0 0
vt 0 0
vt 0 0
vt 0 0
vt 0 0
vt 0 0
vt 0 0
vt 0 0
vt 0 0
vt 0 0
vt 0 0
vt 0 0
vt 0 0
vt 0 0
vt 0 0
vt 0 0
vt 0 0
vt 0 0
vt 0 0
vt 0 0
vt 0 0
vt 0 0
vt 0 0
vt 0 0
vt 0 0
vt 0 0
vt 0 0
vt 0 0
vt 0 0
vt 0 0
vt 0 0
vt 0 0
vt 0 0
vt 0 0
vt 0 0
vt 0 0
vt 0 0
vt 0 0
vt 0 0
vt 0 0
vt 0 0
vt 0 0
vt 0 0
vt 0 0
vt 0 0
vt 0 0
vt 0 0
vt 0 0
vt 0 0
vt 0 0
vt 0 0
vt 0 0
vt 0 0
vt 0 0
vt 0 0
vt 0 0
vt 0 0
vt 0 0
vt 0 0
vt 0 0
vt 0 0
vt 0 0
vt 0 0
vt 0 0
vt 0 0
vt 0 0
vt 0 0
vt 0 0
vt 0 0
vt 0 0
vt 0 0
vt 0 0
vt 0 0
vt 0 0
vt 0 0
vt 0 0
vt 0 0
vt 0 0
vt 0 0
vt 0 0
vt 0 0
vt 0 0
vt 0 0
vt 0 0
vt 0 0
vt 0 0
vn 0.00783723 -0.034961913 -0.9993579
vn 0.00783723 -0.034961913 -0.9993579
vn 0.00783723 -0.034961913 -0.9993579
vn 0.00783723 -0.034961913 -0.9993579
vn -0 0 -1
vn -0 0 -1
vn -0 0 -1
vn -0 0 -1
vn -0.00783726 0.03496196 0.9993579
vn -0.00783726 0.03496196 0.9993579
vn -0.00783726 0.03496196 0.9993579
vn -0.00783726 0.03496196 0.9993579
vn -0 0 1
vn -0 0 1
vn -0 0 1
vn -0 0 1
vn 0.908454 0.417985 0
vn 0.908454 0.417985 0
vn 0.908454 0.417985 0
vn 0.908454 0.417985 0
vn -0.13238299 -0.9911986 0
vn -0.13238299 -0.9911986 0
vn -0.13238299 -0.9911986 0
vn -0.13238299 -0.9911986 0
vn -0.9782235 0.20755428 0
vn -0.9782235 0.20755428 0
vn -0.9782235 0.20755428 0
vn -0.9782235 0.20755428 0
vn -0.17198175 0.9851002 0
vn -0.17198175 0.9851002 0
vn -0.17198175 0.9851002 0
vn -0.17198175 0.9851002 0
vn -0.22473854 0.97441906 0
vn -0.22473854 0.97441906 0
vn -0.22473854 0.97441906 0
vn -0.22473854 0.97441906 0
vn 0.9995433 0.0302184 0
vn 0.9995433 0.0302184 0
vn 0.9995433 0.0302184 0
vn 0.9995433 0.0302184 0
vn -0 0 -1
vn -0 0 -1
vn -0 0 -1
vn -0 0 -1
vn -0 0 1
vn -0 0 1
vn -0 0 1
vn -0 0 1
vn -0.40992406 -0.9121196 0
vn -0.40992406 -0.9121196 0
vn -0.40992406 -0.9121196 0
vn -0.40992406 -0.9121196 0
vn 0.22428396 0.9745238 0
vn 0.22428396 0.9745238 0
vn 0.22428396 0.9745238 0
vn 0.22428396 0.9745238 0
vn 0.95618683 -0.29275727 0
vn 0.95618683 -0.29275727 0
vn 0.95618683 -0.29275727 0
vn 0.95618683 -0.29275727 0
vn -0.9954755 0.09501926 0
vn -0.9954755 0.09501926 0
vn -0.9954755 0.09501926 0
vn -0.9954755 0.09501926 0
vn -0.9959991 0.08936299 0
vn -0.9959991 0.08936299 0
vn -0.9959991 0.08936299 0
vn -0.9959991 0.08936299 0
vn 0.07702256 -0.9970293 0
vn 0.07702256 -0.9970293 0
vn 0.07702256 -0.9970293 0
vn 0.07702256 -0.9970293 0
vn -0 0 -1
vn -0 0 -1
vn -0 0 -1
vn -0 0 -1
vn -0 0 1
vn -0 0 1
vn -0 0 1
vn -0 0 1
vn -0.99930656 -0.037236266 0
vn -0.99930656 -0.037236266 0
vn -0.99930656 -0.037236266 0
vn -0.99930656 -0.037236266 0
vn 0.9958075 -0.09147278 0
vn 0.9958075 -0.09147278 0
vn 0.9958075 -0.09147278 0
vn 0.9958075 -0.09147278 0
vn 0.16179247 -0.9868248 0
vn 0.16179247 -0.9868248 0
vn 0.16179247 -0.9868248 0
vn 0.16179247 -0.9868248 0
vn -0.3564377 0.93431914 0
vn -0.3564377 0.93431914 0
vn -0.3564377 0.93431914 0
vn -0.3564377 0.93431914 0
vn -0 0 -1
vn -0 0 -1
vn -0 0 -1
vn -0 0 -1
vn -0 0 1
vn -0 0 1
vn -0 0 1
vn -0 0 1
vn -0.99598503 -0.08952059 0
vn -0.99598503 -0.08952059 0
vn -0.99598503 -0.08952059 0
vn -0.99598503 -0.08952059 0
vn 0.97288394 0.23129363 0
vn 0.97288394 0.23129363 0
vn 0.97288394 0.23129363 0
vn 0.97288394 0.23129363 0
vn 0.16179195 -0.9868249 0
vn 0.16179195 -0.9868249 0
vn 0.16179195 -0.9868249 0
vn 0.16179195 -0.9868249 0
vn -0.35643736 0.93431914 0
vn -0.35643736 0.93431914 0
vn -0.35643736 0.93431914 0
vn -0.35643736 0.93431914 0
vn 0.028327659 0.021938546 -0.9993579
vn 0.028327659 0.021938546 -0.9993579
vn 0.028327659 0.021938546 -0.9993579
vn 0.028327659 0.021938546 -0.9993579
vn -0.028327728 -0.021938577 0.9993579
vn -0.028327728 -0.021938577 0.9993579
vn -0.028327728 -0.021938577 0.9993579
vn -0.028327728 -0.021938577 0.9993579
vn -0.7641208 0.64507306 0
vn -0.7641208 0.64507306 0
vn -0.7641208 0.64507306 0
vn -0.7641208 0.64507306 0
vn 0.22737093 -0.9738082 0
vn 0.22737093 -0.9738082 0
vn 0.22737093 -0.9738082 0
vn 0.22737093 -0.9738082 0
vn -0.8189071 -0.5739261 0
vn -0.8189071 -0.5739261 0
vn -0.8189071 -0.5739261 0
vn -0.8189071 -0.5739261 0
vn 0.87002164 0.49301356 0
vn 0.87002164 0.49301356 0
vn 0.87002164 0.49301356 0
vn 0.87002164 0.49301356 0
vn -0 0 -1
vn -0 0 -1
vn -0 0 -1
vn -0 0 -1
vn -0 0 1
vn -0 0 1
vn -0 0 1
vn -0 0 1
vn -0.99930644 -0.037236754 0
vn -0.99930644 -0.037236754 0
vn -0.99930644 -0.037236754 0
vn -0.99930644 -0.037236754 0
vn 0.9958075 -0.09147278 0
vn 0.9958075 -0.09147278 0
vn 0.9958075 -0.09147278 0
vn 0.9958075 -0.09147278 0
vn 0.16179253 -0.9868248 0
vn 0.16179253 -0.9868248 0
vn 0.16179253 -0.9868248 0
vn 0.16179253 -0.9868248 0
vn -0.35643762 0.93431914 0
vn -0.35643762 0.93431914 0
vn -0.35643762 0.93431914 0
vn -0.35643762 0.93431914 0
vn 0.020424481 0.0016535466 -0.99979
vn 0.020424481 0.0016535466 -0.99979
vn 0.020424481 0.0016535466 -0.99979
vn 0.020424481 0.0016535466 -0.99979
vn -0.02042452 -0.0016535447 0.99979
vn -0.02042452 -0.0016535447 0.99979
vn -0.02042452 -0.0016535447 0.99979
vn -0.02042452 -0.0016535447 0.99979
vn -0.28737926 0.95781684 0
vn -0.28737926 0.95781684 0
vn -0.28737926 0.95781684 0
vn -0.28737926 0.95781684 0
vn -0.3417803 -0.93977994 0
vn -0.3417803 -0.93977994 0
vn -0.3417803 -0.93977994 0
vn -0.3417803 -0.93977994 0
vn -0.99945205 -0.033098508 0
vn -0.99945205 -0.033098508 0
vn -0.99945205 -0.033098508 0
vn -0.99945205 -0.033098508 0
vn 0.99803895 -0.062596686 0
vn 0.99803895 -0.062596686 0
vn 0.99803895 -0.062596686 0
vn 0.99803895 -0.062596686 0
g Barracks Ruins_0
f 3/3/3 2/2/2 1/1/1
f 4/4/4 3/3/3 1/1/1
f 7/7/7 6/6/6 5/5/5
f 8/8/8 7/7/7 5/5/5
f 11/11/11 10/10/10 9/9/9
f 12/12/12 11/11/11 9/9/9
f 15/15/15 14/14/14 13/13/13
f 16/16/16 15/15/15 13/13/13
f 19/19/19 18/18/18 17/17/17
f 20/20/20 19/19/19 17/17/17
f 23/23/23 22/22/22 21/21/21
f 24/24/24 23/23/23 21/21/21
f 27/27/27 26/26/26 25/25/25
f 28/28/28 27/27/27 25/25/25
f 31/31/31 30/30/30 29/29/29
f 32/32/32 31/31/31 29/29/29
f 35/35/35 34/34/34 33/33/33
f 36/36/36 35/35/35 33/33/33
f 39/39/39 38/38/38 37/37/37
f 40/40/40 39/39/39 37/37/37
f 43/43/43 42/42/42 41/41/41
f 44/44/44 43/43/43 41/41/41
f 47/47/47 46/46/46 45/45/45
f 48/48/48 47/47/47 45/45/45
f 51/51/51 50/50/50 49/49/49
f 52/52/52 51/51/51 49/49/49
f 55/55/55 54/54/54 53/53/53
f 56/56/56 55/55/55 53/53/53
f 59/59/59 58/58/58 57/57/57
f 60/60/60 59/59/59 57/57/57
f 63/63/63 62/62/62 61/61/61
f 64/64/64 63/63/63 61/61/61
f 67/67/67 66/66/66 65/65/65
f 68/68/68 67/67/67 65/65/65
f 71/71/71 70/70/70 69/69/69
f 72/72/72 71/71/71 69/69/69
f 75/75/75 74/74/74 73/73/73
f 76/76/76 75/75/75 73/73/73
f 79/79/79 78/78/78 77/77/77
f 80/80/80 79/79/79 77/77/77
f 83/83/83 82/82/82 81/81/81
f 84/84/84 83/83/83 81/81/81
f 87/87/87 86/86/86 85/85/85
f 88/88/88 87/87/87 85/85/85
f 91/91/91 90/90/90 89/89/89
f 92/92/92 91/91/91 89/89/89
f 95/95/95 94/94/94 93/93/93
f 96/96/96 95/95/95 93/93/93
f 99/99/99 98/98/98 97/97/97
f 100/100/100 99/99/99 97/97/97
f 103/103/103 102/102/102 101/101/101
f 104/104/104 103/103/103 101/101/101
f 107/107/107 106/106/106 105/105/105
f 108/108/108 107/107/107 105/105/105
f 111/111/111 110/110/110 109/109/109
f 112/112/112 111/111/111 109/109/109
f 115/115/115 114/114/114 113/113/113
f 116/116/116 115/115/115 113/113/113
f 119/119/119 118/118/118 117/117/117
f 120/120/120 119/119/119 117/117/117
f 123/123/123 122/122/122 121/121/121
f 124/124/124 123/123/123 121/121/121
f 127/127/127 126/126/126 125/125/125
f 128/128/128 127/127/127 125/125/125
f 131/131/131 130/130/130 129/129/129
f 132/132/132 131/131/131 129/129/129
f 135/135/135 134/134/134 133/133/133
f 136/136/136 135/135/135 133/133/133
f 139/139/139 138/138/138 137/137/137
f 140/140/140 139/139/139 137/137/137
f 143/143/143 142/142/142 141/141/141
f 144/144/144 143/143/143 141/141/141
f 147/147/147 146/146/146 145/145/145
f 148/148/148 147/147/147 145/145/145
f 151/151/151 150/150/150 149/149/149
f 152/152/152 151/151/151 149/149/149
f 155/155/155 154/154/154 153/153/153
f 156/156/156 155/155/155 153/153/153
f 159/159/159 158/158/158 157/157/157
f 160/160/160 159/159/159 157/157/157
f 163/163/163 162/162/162 161/161/161
f 164/164/164 163/163/163 161/161/161
f 167/167/167 166/166/166 165/165/165
f 168/168/168 167/167/167 165/165/165
f 171/171/171 170/170/170 169/169/169
f 172/172/172 171/171/171 169/169/169
f 175/175/175 174/174/174 173/173/173
f 176/176/176 175/175/175 173/173/173
f 179/179/179 178/178/178 177/177/177
f 180/180/180 179/179/179 177/177/177
f 183/183/183 182/182/182 181/181/181
f 184/184/184 183/183/183 181/181/181
f 187/187/187 186/186/186 185/185/185
f 188/188/188 187/187/187 185/185/185
f 191/191/191 190/190/190 189/189/189
f 192/192/192 191/191/191 189/189/189
