g Blacksmith DesignB
v -4.2688465 2.441746 -0.04459393
v 1.8556049 2.441746 -0.04459393
v 1.8556049 2.441746 2.3345678
v -4.2688465 2.441746 2.3345678
v 1.8556049 -2.441746 -0.04459393
v -4.2688465 -2.441746 -0.04459393
v -4.2688465 -2.441746 2.3345678
v 1.8556049 -2.441746 2.3345678
v 1.8556049 2.441746 -0.04459393
v 1.8556049 -2.441746 -0.04459393
v 1.8556049 -2.441746 2.3345678
v 1.8556049 2.441746 2.3345678
v 3.1942432 2.7992911 -0.15356103
v 5.6185007 1.399645 -0.15356103
v 5.6185007 1.399645 1.1364353
v 3.1942432 2.7992911 1.1364353
v 5.6185007 1.399645 -0.15356103
v 5.6185007 -1.3996472 -0.15356103
v 5.6185007 -1.3996472 1.1364353
v 5.6185007 1.399645 1.1364353
v 5.6185007 -1.3996472 -0.15356103
v 3.1942432 -2.799293 -0.15356103
v 3.1942432 -2.799293 1.1364353
v 5.6185007 -1.3996472 1.1364353
v 3.1942432 -2.799293 -0.15356103
v 0.7699851 -1.8183066 -0.15356106
v 0.7699851 -1.8183066 1.1364353
v 3.1942432 -2.799293 1.1364353
v 5.6185007 -1.3996472 1.1364353
v 4.923907 -0.99862313 2.43933
v 4.923907 0.99862105 2.43933
v 5.6185007 1.399645 1.1364353
v 0.7699851 -1.8183066 -0.15356106
v 0.7699851 1.8183047 -0.15356106
v 0.7699851 1.8183047 1.1364353
v 0.7699851 -1.8183066 1.1364353
v 0.7699851 1.8183047 -0.15356106
v 3.1942432 2.7992911 -0.15356103
v 3.1942432 2.7992911 1.1364353
v 0.7699851 1.8183047 1.1364353
v 4.923907 0.99862105 2.43933
v 4.923907 0.99862105 3.5968642
v 3.1942432 1.997243 3.5968642
v 3.1942432 1.997243 2.43933
v 0.7699851 1.8183047 1.1364353
v 1.464579 0.9986209 2.43933
v 1.464579 -0.9986228 2.43933
v 0.7699851 -1.8183066 1.1364353
v 5.6185007 1.399645 1.1364353
v 4.923907 0.99862105 2.43933
v 3.1942432 1.997243 2.43933
v 3.1942432 2.7992911 1.1364353
v 3.1942432 -2.799293 1.1364353
v 3.1942432 -1.9972452 2.43933
v 4.923907 -0.99862313 2.43933
v 5.6185007 -1.3996472 1.1364353
v 3.1942432 2.7992911 1.1364353
v 3.1942432 1.997243 2.43933
v 1.464579 0.9986209 2.43933
v 0.7699851 1.8183047 1.1364353
v 0.7699851 -1.8183066 1.1364353
v 1.464579 -0.9986228 2.43933
v 3.1942432 -1.9972452 2.43933
v 3.1942432 -2.799293 1.1364353
v 1.464579 0.9986209 3.5968642
v 2.5699034 0.36046153 4.789974
v 2.5699034 -0.3604635 4.789974
v 1.464579 -0.9986228 3.5968642
v 3.1942432 1.997243 2.43933
v 3.1942432 1.997243 3.5968642
v 1.464579 0.9986209 3.5968642
v 1.464579 0.9986209 2.43933
v 1.464579 -0.9986228 2.43933
v 1.464579 -0.9986228 3.5968642
v 3.1942432 -1.9972452 3.5968642
v 3.1942432 -1.9972452 2.43933
v 4.923907 -0.99862313 2.43933
v 4.923907 -0.99862313 3.5968642
v 4.923907 0.99862105 3.5968642
v 4.923907 0.99862105 2.43933
v 1.464579 0.9986209 2.43933
v 1.464579 0.9986209 3.5968642
v 1.464579 -0.9986228 3.5968642
v 1.464579 -0.9986228 2.43933
v 3.1942432 -1.9972452 2.43933
v 3.1942432 -1.9972452 3.5968642
v 4.923907 -0.99862313 3.5968642
v 4.923907 -0.99862313 2.43933
v 3.194243 0.72092426 4.789974
v 3.194243 0.4661631 4.789974
v 2.790533 0.23308095 4.789974
v 2.5699034 0.36046153 4.789974
v 2.790533 -0.23308297 4.789974
v 2.5699034 -0.3604635 4.789974
v 3.194243 -0.46616498 4.789974
v 3.194243 -0.72092617 4.789974
v 3.5979526 -0.23308304 4.789974
v 3.8185823 -0.36046362 4.789974
v 3.5979526 0.233081 4.789974
v 3.8185823 0.3604616 4.789974
v 3.194243 0.4661631 4.789974
v 3.194243 0.72092426 4.789974
v 3.1942432 -1.9972452 3.5968642
v 3.194243 -0.72092617 4.789974
v 3.8185823 -0.36046362 4.789974
v 4.923907 -0.99862313 3.5968642
v 4.923907 0.99862105 3.5968642
v 3.8185823 0.3604616 4.789974
v 3.194243 0.72092426 4.789974
v 3.1942432 1.997243 3.5968642
v 3.1942432 1.997243 3.5968642
v 3.194243 0.72092426 4.789974
v 2.5699034 0.36046153 4.789974
v 1.464579 0.9986209 3.5968642
v 1.464579 -0.9986228 3.5968642
v 2.5699034 -0.3604635 4.789974
v 3.194243 -0.72092617 4.789974
v 3.1942432 -1.9972452 3.5968642
v 4.923907 -0.99862313 3.5968642
v 3.8185823 -0.36046362 4.789974
v 3.8185823 0.3604616 4.789974
v 4.923907 0.99862105 3.5968642
v 2.790533 0.23308095 4.789974
v 2.7905333 0.23308095 5.875724
v 2.7905333 -0.23308297 5.875724
v 2.790533 -0.23308297 4.789974
v 3.1942432 0.4661631 5.875724
v 3.1942432 0.29493257 5.875724
v 2.9388232 0.14746572 5.875724
v 2.7905333 0.23308095 5.875724
v 2.9388232 -0.14746773 5.875724
v 2.7905333 -0.23308297 5.875724
v 3.1942432 -0.29493448 5.875724
v 3.1942432 -0.46616498 5.875724
v 3.449663 -0.14746778 5.875724
v 3.5979528 -0.23308304 5.875724
v 3.449663 0.14746575 5.875724
v 3.5979528 0.233081 5.875724
v 3.1942432 0.29493257 5.875724
v 3.1942432 0.4661631 5.875724
v 3.194243 -0.46616498 4.789974
v 3.1942432 -0.46616498 5.875724
v 3.5979528 -0.23308304 5.875724
v 3.5979526 -0.23308304 4.789974
v 3.5979526 0.233081 4.789974
v 3.5979528 0.233081 5.875724
v 3.1942432 0.4661631 5.875724
v 3.194243 0.4661631 4.789974
v 3.194243 0.4661631 4.789974
v 3.1942432 0.4661631 5.875724
v 2.7905333 0.23308095 5.875724
v 2.790533 0.23308095 4.789974
v 2.790533 -0.23308297 4.789974
v 2.7905333 -0.23308297 5.875724
v 3.1942432 -0.46616498 5.875724
v 3.194243 -0.46616498 4.789974
v 3.5979526 -0.23308304 4.789974
v 3.5979528 -0.23308304 5.875724
v 3.5979528 0.233081 5.875724
v 3.5979526 0.233081 4.789974
v 2.9388232 0.14746572 5.875724
v 2.938823 0.14746572 4.8092737
v 2.938823 -0.14746773 4.8092737
v 2.9388232 -0.14746773 5.875724
v 3.194243 0.29493257 4.8092737
v 3.4496627 0.14746575 4.8092737
v 3.4496627 -0.14746778 4.8092737
v 3.194243 -0.29493448 4.8092737
v 2.938823 0.14746572 4.8092737
v 2.938823 -0.14746773 4.8092737
v 3.1942432 -0.29493448 5.875724
v 3.194243 -0.29493448 4.8092737
v 3.4496627 -0.14746778 4.8092737
v 3.449663 -0.14746778 5.875724
v 3.449663 0.14746575 5.875724
v 3.4496627 0.14746575 4.8092737
v 3.194243 0.29493257 4.8092737
v 3.1942432 0.29493257 5.875724
v 3.1942432 0.29493257 5.875724
v 3.194243 0.29493257 4.8092737
v 2.938823 0.14746572 4.8092737
v 2.9388232 0.14746572 5.875724
v 2.9388232 -0.14746773 5.875724
v 2.938823 -0.14746773 4.8092737
v 3.194243 -0.29493448 4.8092737
v 3.1942432 -0.29493448 5.875724
v 3.449663 -0.14746778 5.875724
v 3.4496627 -0.14746778 4.8092737
v 3.4496627 0.14746575 4.8092737
v 3.449663 0.14746575 5.875724
v -6.470725 -1.8188558 -0.046000466
v -6.470725 1.8188558 -0.046000466
v -6.470725 1.8188558 1.753575
v -6.470725 -1.8188558 1.753575
v -4.2688465 2.441746 2.3345678
v -4.2688465 1.8188558 -0.046000466
v -4.2688465 2.441746 -0.04459393
v -4.2688465 1.8188558 1.753575
v -4.2688465 -1.8188558 1.753575
v -4.2688465 -2.441746 2.3345678
v -4.2688465 -2.441746 -0.04459393
v -4.2688465 -1.8188558 -0.046000466
v -4.2688465 1.8188558 1.753575
v -6.470725 1.8188558 1.753575
v -6.470725 1.8188558 -0.046000466
v -4.2688465 1.8188558 -0.046000466
v -4.2688465 -1.8188558 -0.046000466
v -6.470725 -1.8188558 -0.046000466
v -6.470725 -1.8188558 1.753575
v -4.2688465 -1.8188558 1.753575
v 3.194243 1.3823214 4.314981
v 3.194243 0.8938352 4.314981
v 2.4201584 0.44691688 4.314981
v 1.9971167 0.69116 4.314981
v 2.4201584 -0.44691893 4.314981
v 1.9971167 -0.69116193 4.314981
v 3.194243 -0.8938369 4.314981
v 3.194243 -1.3823233 4.314981
v 3.9683273 -0.44691908 4.314981
v 4.391369 -0.69116217 4.314981
v 3.9683273 0.44691697 4.314981
v 4.391369 0.69116014 4.314981
v 3.194243 0.8938352 4.314981
v 3.194243 1.3823214 4.314981
v 1.9971167 0.69116 4.314981
v 1.9971167 0.69116 4.0428877
v 3.194243 1.3823214 4.0428877
v 3.194243 1.3823214 4.314981
v 4.391369 -0.69116217 4.314981
v 4.391369 -0.69116217 4.0428877
v 3.194243 -1.3823233 4.0428877
v 3.194243 -1.3823233 4.314981
v 1.9971167 -0.69116193 4.314981
v 1.9971167 -0.69116193 4.0428877
v 1.9971167 0.69116 4.0428877
v 1.9971167 0.69116 4.314981
v 3.194243 1.3823214 4.314981
v 3.194243 1.3823214 4.0428877
v 4.391369 0.69116014 4.0428877
v 4.391369 0.69116014 4.314981
v 3.194243 -1.3823233 4.314981
v 3.194243 -1.3823233 4.0428877
v 1.9971167 -0.69116193 4.0428877
v 1.9971167 -0.69116193 4.314981
v 4.391369 0.69116014 4.314981
v 4.391369 0.69116014 4.0428877
v 4.391369 -0.69116217 4.0428877
v 4.391369 -0.69116217 4.314981
v 1.0470796 -1.2396661 1.832244
v 1.0470796 -1.2396661 1.5223371
v 1.0470796 1.2396643 1.5223371
v 1.0470796 1.2396643 1.832244
v 5.341406 -1.2396667 1.832244
v 5.341406 -1.2396667 1.5223371
v 3.1942432 -2.479332 1.5223371
v 3.1942432 -2.479332 1.832244
v 3.1942432 2.47933 1.832244
v 3.1942432 2.47933 1.5223371
v 5.341406 1.2396644 1.5223371
v 5.341406 1.2396644 1.832244
v 1.0470796 1.2396643 1.832244
v 1.0470796 1.2396643 1.5223371
v 3.1942432 2.47933 1.5223371
v 3.1942432 2.47933 1.832244
v 3.1942432 -2.479332 1.832244
v 3.1942432 -2.479332 1.5223371
v 1.0470796 -1.2396661 1.5223371
v 1.0470796 -1.2396661 1.832244
v 5.341406 1.2396644 1.832244
v 5.341406 1.2396644 1.5223371
v 5.341406 -1.2396667 1.5223371
v 5.341406 -1.2396667 1.832244
v -5.749495 1.7841424 0.04376243
v -5.749495 1.9296244 0.04376243
v -5.749495 1.9296244 1.1691828
v -5.749495 1.7841424 1.1691828
v -0.7184803 2.5560112 0.04376243
v -0.04592055 2.5560112 0.04376243
v -0.04592055 2.5560112 1.1691828
v -0.7184803 2.5560112 1.1691828
v -0.7184803 2.4105291 0.04376243
v -0.7184803 2.5560112 0.04376243
v -0.7184803 2.5560112 1.1691828
v -0.7184803 2.4105291 1.1691828
v -0.04592055 2.4105291 1.1691828
v -0.04592055 2.5560112 1.1691828
v -0.04592055 2.5560112 0.04376243
v -0.04592055 2.4105291 0.04376243
v -5.749495 1.9296244 0.04376243
v -5.0769353 1.9296244 0.04376243
v -5.0769353 1.9296244 1.1691828
v -5.749495 1.9296244 1.1691828
v -0.7184803 2.4105291 1.1691828
v -0.7184803 2.5560112 1.1691828
v -0.04592055 2.5560112 1.1691828
v -0.04592055 2.4105291 1.1691828
v -5.0769353 1.7841424 1.1691828
v -5.0769353 1.9296244 1.1691828
v -5.0769353 1.9296244 0.04376243
v -5.0769353 1.7841424 0.04376243
v -5.749495 1.7841424 1.1691828
v -5.749495 1.9296244 1.1691828
v -5.0769353 1.9296244 1.1691828
v -5.0769353 1.7841424 1.1691828
v -5.749495 -1.7930073 0.043762445
v -5.749495 -1.7930073 1.1691828
v -5.749495 -1.9384893 1.1691828
v -5.749495 -1.9384893 0.043762445
v -0.71848035 -2.564876 0.043762445
v -0.71848035 -2.564876 1.1691828
v -0.04592061 -2.564876 1.1691828
v -0.04592061 -2.564876 0.043762445
v -0.71848035 -2.419394 0.043762445
v -0.71848035 -2.419394 1.1691828
v -0.71848035 -2.564876 1.1691828
v -0.71848035 -2.564876 0.043762445
v -0.04592061 -2.419394 1.1691828
v -0.04592061 -2.419394 0.043762445
v -0.04592061 -2.564876 0.043762445
v -0.04592061 -2.564876 1.1691828
v -5.749495 -1.9384893 0.043762445
v -5.749495 -1.9384893 1.1691828
v -5.0769353 -1.9384893 1.1691828
v -5.0769353 -1.9384893 0.043762445
v -0.71848035 -2.419394 1.1691828
v -0.04592061 -2.419394 1.1691828
v -0.04592061 -2.564876 1.1691828
v -0.71848035 -2.564876 1.1691828
v -5.0769353 -1.7930073 1.1691828
v -5.0769353 -1.7930073 0.043762445
v -5.0769353 -1.9384893 0.043762445
v -5.0769353 -1.9384893 1.1691828
v -5.749495 -1.7930073 1.1691828
v -5.0769353 -1.7930073 1.1691828
v -5.0769353 -1.9384893 1.1691828
v -5.749495 -1.9384893 1.1691828
v -3.967222 -2.1401174 2.3345678
v -3.967222 -2.1401174 2.0880034
v 1.5539806 -2.1401174 2.0880034
v 1.5539806 -2.1401174 2.3345678
v -3.967222 2.1401174 2.0880034
v 1.5539806 2.1401174 2.0880034
v 1.5539806 -2.1401174 2.0880034
v -3.967222 -2.1401174 2.0880034
v 1.5539806 -2.1401174 2.3345678
v 1.5539806 -2.1401174 2.0880034
v 1.5539806 2.1401174 2.0880034
v 1.5539806 2.1401174 2.3345678
v 1.5539806 2.1401174 2.3345678
v 1.5539806 2.1401174 2.0880034
v -3.967222 2.1401174 2.0880034
v -3.967222 2.1401174 2.3345678
v -3.967222 2.1401174 2.3345678
v -3.967222 2.1401174 2.0880034
v -3.967222 -2.1401174 2.0880034
v -3.967222 -2.1401174 2.3345678
v -6.2404184 1.5524328 1.753575
v -6.2404184 1.5524328 1.3834673
v -6.2404184 -1.5524328 1.3834673
v -6.2404184 -1.5524328 1.753575
v -4.4991517 1.5524328 1.3834673
v -4.4991517 -1.5524328 1.3834673
v -6.2404184 -1.5524328 1.3834673
v -6.2404184 1.5524328 1.3834673
v -4.4991517 1.5524328 1.753575
v -4.4991517 1.5524328 1.3834673
v -6.2404184 1.5524328 1.3834673
v -6.2404184 1.5524328 1.753575
v -6.2404184 -1.5524328 1.753575
v -6.2404184 -1.5524328 1.3834673
v -4.4991517 -1.5524328 1.3834673
v -4.4991517 -1.5524328 1.753575
v -4.4991517 -1.5524328 1.753575
v -4.4991517 -1.5524328 1.3834673
v -4.4991517 1.5524328 1.3834673
v -4.4991517 1.5524328 1.753575
v 0.48008475 0.27219248 3.2146928
v 0.78900933 0.5811187 1.6146331
v 0.78900933 -0.65724707 1.6146331
v 0.48008475 -0.34832025 3.2146928
v 0.48008475 -0.34832025 3.2146928
v 0.78900933 -0.65724707 1.6146331
v -0.44935668 -0.65724707 1.6146331
v -0.14042813 -0.34832025 3.2146928
v -0.14042813 -0.34832025 3.2146928
v -0.44935668 -0.65724707 1.6146331
v -0.44935668 0.5811187 1.6146331
v -0.14042813 0.27219248 3.2146928
v -0.14042813 0.27219248 3.2146928
v -0.44935668 0.5811187 1.6146331
v 0.78900933 0.5811187 1.6146331
v 0.48008475 0.27219248 3.2146928
v 0.48008475 -0.34832025 3.2146928
v -0.14042813 -0.34832025 3.2146928
v 0.07125995 -0.13663277 3.4770973
v 0.2683978 -0.13663277 3.4770973
v -0.44935668 -0.65724707 1.6146331
v -0.44935668 0.5811187 1.6146331
v 0.78900933 0.5811187 1.6146331
v 0.78900933 -0.65724707 1.6146331
v 0.48008475 0.27219248 3.2146928
v 0.48008475 -0.34832025 3.2146928
v 0.2683978 -0.13663277 3.4770973
v 0.2683978 0.060505025 3.4770973
v -0.14042813 -0.34832025 3.2146928
v -0.14042813 0.27219248 3.2146928
v 0.07125995 0.060505025 3.4770973
v 0.07125995 -0.13663277 3.4770973
v -0.14042813 0.27219248 3.2146928
v 0.48008475 0.27219248 3.2146928
v 0.2683978 0.060505025 3.4770973
v 0.07125995 0.060505025 3.4770973
v -1.7803037 0.27219248 3.2146928
v -1.1597908 0.27219248 3.2146928
v -1.3714777 0.060505025 3.4770973
v -1.5686156 0.060505025 3.4770973
v -1.1597908 -0.34832025 3.2146928
v -0.8508662 -0.65724707 1.6146331
v -2.0892322 -0.65724707 1.6146331
v -1.7803037 -0.34832025 3.2146928
v -1.1597908 0.27219248 3.2146928
v -1.1597908 -0.34832025 3.2146928
v -1.3714777 -0.13663277 3.4770973
v -1.3714777 0.060505025 3.4770973
v -2.0892322 -0.65724707 1.6146331
v -2.0892322 0.5811187 1.6146331
v -0.8508662 0.5811187 1.6146331
v -0.8508662 -0.65724707 1.6146331
v -1.7803037 -0.34832025 3.2146928
v -1.7803037 0.27219248 3.2146928
v -1.5686156 0.060505025 3.4770973
v -1.5686156 -0.13663277 3.4770973
v -1.1597908 0.27219248 3.2146928
v -0.8508662 0.5811187 1.6146331
v -0.8508662 -0.65724707 1.6146331
v -1.1597908 -0.34832025 3.2146928
v -1.1597908 -0.34832025 3.2146928
v -1.7803037 -0.34832025 3.2146928
v -1.5686156 -0.13663277 3.4770973
v -1.3714777 -0.13663277 3.4770973
v -1.7803037 -0.34832025 3.2146928
v -2.0892322 -0.65724707 1.6146331
v -2.0892322 0.5811187 1.6146331
v -1.7803037 0.27219248 3.2146928
v -1.7803037 0.27219248 3.2146928
v -2.0892322 0.5811187 1.6146331
v -0.8508662 0.5811187 1.6146331
v -1.1597908 0.27219248 3.2146928
v -3.5501018 1.2748736 2.1075716
v -3.759851 1.9320126 2.1075716
v -3.759851 1.9320126 2.7973733
v -3.5501018 1.2748736 2.7973733
v -3.759851 1.9320126 2.1075716
v -3.1027122 2.1417615 2.1075716
v -3.1027122 2.1417615 2.7973733
v -3.759851 1.9320126 2.7973733
v -3.1027122 2.1417615 2.1075716
v -2.892963 1.484623 2.1075716
v -2.892963 1.484623 2.7973733
v -3.1027122 2.1417615 2.7973733
v -2.892963 1.484623 2.1075716
v -3.5501018 1.2748736 2.1075716
v -3.5501018 1.2748736 2.7973733
v -2.892963 1.484623 2.7973733
v -3.759851 1.9320126 2.1075716
v -3.5501018 1.2748736 2.1075716
v -2.892963 1.484623 2.1075716
v -3.1027122 2.1417615 2.1075716
v -3.1027122 2.1417615 2.7973733
v -2.892963 1.484623 2.7973733
v -3.5501018 1.2748736 2.7973733
v -3.759851 1.9320126 2.7973733
v -2.8084803 1.5795851 2.0302076
v -2.6388614 2.1410925 2.0302076
v -2.6388614 2.1410925 2.616775
v -2.8084803 1.5795851 2.616775
v -2.6388614 2.1410925 2.0302076
v -2.077354 1.9714732 2.0302076
v -2.077354 1.9714732 2.616775
v -2.6388614 2.1410925 2.616775
v -2.077354 1.9714732 2.0302076
v -2.2469728 1.409966 2.0302076
v -2.2469728 1.409966 2.616775
v -2.077354 1.9714732 2.616775
v -2.2469728 1.409966 2.0302076
v -2.8084803 1.5795851 2.0302076
v -2.8084803 1.5795851 2.616775
v -2.2469728 1.409966 2.616775
v -2.6388614 2.1410925 2.0302076
v -2.8084803 1.5795851 2.0302076
v -2.2469728 1.409966 2.0302076
v -2.077354 1.9714732 2.0302076
v -2.077354 1.9714732 2.616775
v -2.2469728 1.409966 2.616775
v -2.8084803 1.5795851 2.616775
v -2.6388614 2.1410925 2.616775
v 0.84821045 -1.8837253 2.0302076
v 0.7207461 -1.3111749 2.0302076
v 0.7207461 -1.3111749 2.616775
v 0.84821045 -1.8837253 2.616775
v 0.7207461 -1.3111749 2.0302076
v 1.2932968 -1.1837108 2.0302076
v 1.2932968 -1.1837108 2.616775
v 0.7207461 -1.3111749 2.616775
v 1.2932968 -1.1837108 2.0302076
v 1.420761 -1.7562611 2.0302076
v 1.420761 -1.7562611 2.616775
v 1.2932968 -1.1837108 2.616775
v 1.420761 -1.7562611 2.0302076
v 0.84821045 -1.8837253 2.0302076
v 0.84821045 -1.8837253 2.616775
v 1.420761 -1.7562611 2.616775
v 0.7207461 -1.3111749 2.0302076
v 0.84821045 -1.8837253 2.0302076
v 1.420761 -1.7562611 2.0302076
v 1.2932968 -1.1837108 2.0302076
v 1.2932968 -1.1837108 2.616775
v 1.420761 -1.7562611 2.616775
v 0.84821045 -1.8837253 2.616775
v 0.7207461 -1.3111749 2.616775
v -0.028831445 -2.042797 2.0302076
v 0.10740066 -1.4722694 2.0302076
v 0.10740066 -1.4722694 2.616775
v -0.028831445 -2.042797 2.616775
v 0.10740066 -1.4722694 2.0302076
v 0.67792857 -1.6085019 2.0302076
v 0.67792857 -1.6085019 2.616775
v 0.10740066 -1.4722694 2.616775
v 0.67792857 -1.6085019 2.0302076
v 0.5416963 -2.1790295 2.0302076
v 0.5416963 -2.1790295 2.616775
v 0.67792857 -1.6085019 2.616775
v 0.5416963 -2.1790295 2.0302076
v -0.028831445 -2.042797 2.0302076
v -0.028831445 -2.042797 2.616775
v 0.5416963 -2.1790295 2.616775
v 0.10740066 -1.4722694 2.0302076
v -0.028831445 -2.042797 2.0302076
v 0.5416963 -2.1790295 2.0302076
v 0.67792857 -1.6085019 2.0302076
v 0.67792857 -1.6085019 2.616775
v 0.5416963 -2.1790295 2.616775
v -0.028831445 -2.042797 2.616775
v 0.10740066 -1.4722694 2.616775
v -3.6282573 2.905917 0.04376243
v -2.9556975 2.905917 0.04376243
v -2.9556975 2.3988435 1.9881265
v -3.6282573 2.3988435 1.9881265
v -2.6916478 2.905917 0.04376243
v -2.6916478 2.3988435 1.9881265
v -2.6916478 1.56436 1.9881265
v -2.6916478 2.0714335 0.04376243
v -3.6282573 2.3988435 1.9881265
v -3.6282573 1.56436 1.9881265
v -2.9556975 1.56436 1.9881265
v -2.9556975 2.3988435 1.9881265
v -3.6282573 2.905917 0.04376243
v -3.6282573 2.3988435 1.9881265
v -3.6282573 1.56436 1.9881265
v -3.6282573 2.0714335 0.04376243
v -2.9556975 2.3988435 1.9881265
v -2.9556975 2.905917 0.04376243
v -2.9556975 2.0714335 0.04376243
v -2.9556975 1.56436 1.9881265
v -2.6916478 2.905917 0.04376243
v -2.019088 2.905917 0.04376243
v -2.019088 2.3988435 1.9881265
v -2.6916478 2.3988435 1.9881265
v -2.019088 2.3988435 1.9881265
v -2.019088 2.905917 0.04376243
v -2.019088 2.0714335 0.04376243
v -2.019088 1.56436 1.9881265
v -3.4558911 0.27219248 3.2146928
v -2.8353782 0.27219248 3.2146928
v -3.0470653 0.060505025 3.4770973
v -3.244203 0.060505025 3.4770973
v -2.8353782 -0.34832025 3.2146928
v -2.5264535 -0.65724707 1.6146331
v -3.7648196 -0.65724707 1.6146331
v -3.4558911 -0.34832025 3.2146928
v -2.8353782 0.27219248 3.2146928
v -2.8353782 -0.34832025 3.2146928
v -3.0470653 -0.13663277 3.4770973
v -3.0470653 0.060505025 3.4770973
v -3.7648196 -0.65724707 1.6146331
v -3.7648196 0.5811187 1.6146331
v -2.5264535 0.5811187 1.6146331
v -2.5264535 -0.65724707 1.6146331
v -3.4558911 -0.34832025 3.2146928
v -3.4558911 0.27219248 3.2146928
v -3.244203 0.060505025 3.4770973
v -3.244203 -0.13663277 3.4770973
v -2.8353782 0.27219248 3.2146928
v -2.5264535 0.5811187 1.6146331
v -2.5264535 -0.65724707 1.6146331
v -2.8353782 -0.34832025 3.2146928
v -2.8353782 -0.34832025 3.2146928
v -3.4558911 -0.34832025 3.2146928
v -3.244203 -0.13663277 3.4770973
v -3.0470653 -0.13663277 3.4770973
v -3.4558911 -0.34832025 3.2146928
v -3.7648196 -0.65724707 1.6146331
v -3.7648196 0.5811187 1.6146331
v -3.4558911 0.27219248 3.2146928
v -3.4558911 0.27219248 3.2146928
v -3.7648196 0.5811187 1.6146331
v -2.5264535 0.5811187 1.6146331
v -2.8353782 0.27219248 3.2146928
v 0.2683978 -0.13663277 3.4770973
v 0.07125995 -0.13663277 3.4770973
v 0.07125995 0.060505025 3.4770973
v 0.2683978 0.060505025 3.4770973
v -1.5686156 0.060505025 3.4770973
v -1.3714777 0.060505025 3.4770973
v -1.3714777 -0.13663277 3.4770973
v -1.5686156 -0.13663277 3.4770973
v -3.244203 0.060505025 3.4770973
v -3.0470653 0.060505025 3.4770973
v -3.0470653 -0.13663277 3.4770973
v -3.244203 -0.13663277 3.4770973
v -6.470725 -1.8188558 1.753575
v -4.4991517 -1.5524328 1.753575
v -4.2688465 -1.8188558 1.753575
v -6.2404184 -1.5524328 1.753575
v -4.4991517 1.5524328 1.753575
v -6.470725 1.8188558 1.753575
v -4.2688465 1.8188558 1.753575
v -6.2404184 1.5524328 1.753575
v -4.2688465 -2.441746 2.3345678
v 1.5539806 -2.1401174 2.3345678
v 1.8556049 -2.441746 2.3345678
v -3.967222 -2.1401174 2.3345678
v 1.5539806 2.1401174 2.3345678
v -4.2688465 2.441746 2.3345678
v 1.8556049 2.441746 2.3345678
v -3.967222 2.1401174 2.3345678
v 1.240906 1.1277585 1.832244
v 1.0470796 1.2396643 1.832244
v 3.1942432 2.47933 1.832244
v 3.1942432 2.2555184 1.832244
v 1.240906 -1.1277604 1.832244
v 5.341406 1.2396644 1.832244
v 1.0470796 -1.2396661 1.832244
v 5.1475797 1.1277586 1.832244
v 3.1942432 -2.2555203 1.832244
v 5.341406 -1.2396667 1.832244
v 3.1942432 -2.479332 1.832244
v 5.1475797 -1.1277609 1.832244
vt 0.375 0.25
vt 0.375 0.5
vt 0.625 0.5
vt 0.625 0.25
vt 0.375 0.75
vt 0.375 1
vt 0.625 1
vt 0.625 0.75
vt 0.375 0.5
vt 0.375 0.75
vt 0.625 0.75
vt 0.625 0.5
vt 1 0.5
vt 0.8333333 0.5
vt 0.8333333 1
vt 1 1
vt 0.8333333 0.5
vt 0.6666666 0.5
vt 0.6666666 1
vt 0.8333333 1
vt 0.6666666 0.5
vt 0.49999994 0.5
vt 0.49999994 1
vt 0.6666666 1
vt 0.49999994 0.5
vt 0.33333325 0.5
vt 0.33333325 1
vt 0.49999994 1
vt 0.6666666 1
vt 0.6666666 1
vt 0.8333333 1
vt 0.8333333 1
vt 0.33333325 0.5
vt 0.16666658 0.5
vt 0.16666658 1
vt 0.33333325 1
vt 0.16666658 0.5
vt -8.940697E-08 0.5
vt -8.940697E-08 1
vt 0.16666658 1
vt 0.8333333 1
vt 0.8333333 1
vt 1 1
vt 1 1
vt 0.16666658 1
vt 0.16666658 1
vt 0.33333325 1
vt 0.33333325 1
vt 0.8333333 1
vt 0.8333333 1
vt 1 1
vt 1 1
vt 0.49999994 1
vt 0.49999994 1
vt 0.6666666 1
vt 0.6666666 1
vt -8.940697E-08 1
vt -8.940697E-08 1
vt 0.16666658 1
vt 0.16666658 1
vt 0.33333325 1
vt 0.33333325 1
vt 0.49999994 1
vt 0.49999994 1
vt 0.16666658 1
vt 0.16666658 1
vt 0.33333325 1
vt 0.33333325 1
vt -8.940697E-08 1
vt -8.940697E-08 1
vt 0.16666658 1
vt 0.16666658 1
vt 0.33333325 1
vt 0.33333325 1
vt 0.49999994 1
vt 0.49999994 1
vt 0.6666666 1
vt 0.6666666 1
vt 0.8333333 1
vt 0.8333333 1
vt 0.16666658 1
vt 0.16666658 1
vt 0.33333325 1
vt 0.33333325 1
vt 0.49999994 1
vt 0.49999994 1
vt 0.6666666 1
vt 0.6666666 1
vt -8.940697E-08 1
vt -8.940697E-08 1
vt 0.16666658 1
vt 0.16666658 1
vt 0.33333325 1
vt 0.33333325 1
vt 0.49999994 1
vt 0.49999994 1
vt 0.6666666 1
vt 0.6666666 1
vt 0.8333333 1
vt 0.8333333 1
vt 1 1
vt 1 1
vt 0.49999994 1
vt 0.49999994 1
vt 0.6666666 1
vt 0.6666666 1
vt 0.8333333 1
vt 0.8333333 1
vt 1 1
vt 1 1
vt -8.940697E-08 1
vt -8.940697E-08 1
vt 0.16666658 1
vt 0.16666658 1
vt 0.33333325 1
vt 0.33333325 1
vt 0.49999994 1
vt 0.49999994 1
vt 0.6666666 1
vt 0.6666666 1
vt 0.8333333 1
vt 0.8333333 1
vt 0.16666658 1
vt 0.16666658 1
vt 0.33333325 1
vt 0.33333325 1
vt -8.940697E-08 1
vt -8.940697E-08 1
vt 0.16666658 1
vt 0.16666658 1
vt 0.33333325 1
vt 0.33333325 1
vt 0.49999994 1
vt 0.49999994 1
vt 0.6666666 1
vt 0.6666666 1
vt 0.8333333 1
vt 0.8333333 1
vt 1 1
vt 1 1
vt 0.49999994 1
vt 0.49999994 1
vt 0.6666666 1
vt 0.6666666 1
vt 0.8333333 1
vt 0.8333333 1
vt 1 1
vt 1 1
vt -8.940697E-08 1
vt -8.940697E-08 1
vt 0.16666658 1
vt 0.16666658 1
vt 0.33333325 1
vt 0.33333325 1
vt 0.49999994 1
vt 0.49999994 1
vt 0.6666666 1
vt 0.6666666 1
vt 0.8333333 1
vt 0.8333333 1
vt 0.16666658 1
vt 0.16666658 1
vt 0.33333325 1
vt 0.33333325 1
vt 0.25 0.49
vt 0.4578461 0.36999997
vt 0.4578461 0.13
vt 0.24999999 0.010000005
vt 0.042153895 0.36999997
vt 0.042153895 0.13000003
vt 0.49999994 1
vt 0.49999994 1
vt 0.6666666 1
vt 0.6666666 1
vt 0.8333333 1
vt 0.8333333 1
vt 1 1
vt 1 1
vt -8.940697E-08 1
vt -8.940697E-08 1
vt 0.16666658 1
vt 0.16666658 1
vt 0.33333325 1
vt 0.33333325 1
vt 0.49999994 1
vt 0.49999994 1
vt 0.6666666 1
vt 0.6666666 1
vt 0.8333333 1
vt 0.8333333 1
vt 0.375 1
vt 0.375 0.25
vt 0.625 0.25
vt 0.625 1
vt 0.625 0.25
vt 0.375 0.25
vt 0.375 0.25
vt 0.625 0.25
vt 0.625 1
vt 0.625 1
vt 0.375 1
vt 0.375 1
vt 0.625 0.25
vt 0.625 0.25
vt 0.375 0.25
vt 0.375 0.25
vt 0.375 1
vt 0.375 1
vt 0.625 1
vt 0.625 1
vt -8.940697E-08 1
vt -8.940697E-08 1
vt 0.16666658 1
vt 0.16666658 1
vt 0.33333325 1
vt 0.33333325 1
vt 0.49999994 1
vt 0.49999994 1
vt 0.6666666 1
vt 0.6666666 1
vt 0.8333333 1
vt 0.8333333 1
vt 1 1
vt 1 1
vt 0.16666658 1
vt 0.16666658 1
vt -8.940697E-08 1
vt -8.940697E-08 1
vt 0.6666666 1
vt 0.6666666 1
vt 0.49999994 1
vt 0.49999994 1
vt 0.33333325 1
vt 0.33333325 1
vt 0.16666658 1
vt 0.16666658 1
vt 1 1
vt 1 1
vt 0.8333333 1
vt 0.8333333 1
vt 0.49999994 1
vt 0.49999994 1
vt 0.33333325 1
vt 0.33333325 1
vt 0.8333333 1
vt 0.8333333 1
vt 0.6666666 1
vt 0.6666666 1
vt 0 0
vt 0 0
vt 0 0
vt 0 0
vt 0 0
vt 0 0
vt 0 0
vt 0 0
vt 0 0
vt 0 0
vt 0 0
vt 0 0
vt 0 0
vt 0 0
vt 0 0
vt 0 0
vt 0 0
vt 0 0
vt 0 0
vt 0 0
vt 0 0
vt 0 0
vt 0 0
vt 0 0
vt 0.375 0.25
vt 0.375 0.25
vt 0.625 0.25
vt 0.625 0.25
vt 0.375 0.25
vt 0.375 0.5
vt 0.625 0.5
vt 0.625 0.25
vt 0.375 0.25
vt 0.375 0.25
vt 0.625 0.25
vt 0.625 0.25
vt 0.625 0.5
vt 0.625 0.5
vt 0.375 0.5
vt 0.375 0.5
vt 0.375 0.25
vt 0.375 0.5
vt 0.625 0.5
vt 0.625 0.25
vt 0.625 0.25
vt 0.625 0.25
vt 0.625 0.5
vt 0.625 0.5
vt 0.625 0.5
vt 0.625 0.5
vt 0.375 0.5
vt 0.375 0.5
vt 0.625 0.25
vt 0.625 0.25
vt 0.625 0.5
vt 0.625 0.5
vt 0.375 0.25
vt 0.625 0.25
vt 0.625 0.25
vt 0.375 0.25
vt 0.375 0.25
vt 0.625 0.25
vt 0.625 0.5
vt 0.375 0.5
vt 0.375 0.25
vt 0.625 0.25
vt 0.625 0.25
vt 0.375 0.25
vt 0.625 0.5
vt 0.375 0.5
vt 0.375 0.5
vt 0.625 0.5
vt 0.375 0.25
vt 0.625 0.25
vt 0.625 0.5
vt 0.375 0.5
vt 0.625 0.25
vt 0.625 0.5
vt 0.625 0.5
vt 0.625 0.25
vt 0.625 0.5
vt 0.375 0.5
vt 0.375 0.5
vt 0.625 0.5
vt 0.625 0.25
vt 0.625 0.5
vt 0.625 0.5
vt 0.625 0.25
vt 0.625 1
vt 0.625 1
vt 0.625 0.75
vt 0.625 0.75
vt 0.625 0.25
vt 0.625 0.5
vt 0.625 0.75
vt 0.625 1
vt 0.625 0.75
vt 0.625 0.75
vt 0.625 0.5
vt 0.625 0.5
vt 0.625 0.5
vt 0.625 0.5
vt 0.625 0.25
vt 0.625 0.25
vt 0.625 0.25
vt 0.625 0.25
vt 0.625 1
vt 0.625 1
vt 0.625 0.25
vt 0.625 0.25
vt 0.625 1
vt 0.625 1
vt 0.625 0.25
vt 0.625 1
vt 0.625 1
vt 0.625 0.25
vt 0.625 0.25
vt 0.625 0.25
vt 0.625 0.25
vt 0.625 0.25
vt 0.625 1
vt 0.625 1
vt 0.625 1
vt 0.625 1
vt 0.625 1
vt 0.625 1
vt 0.625 0.25
vt 0.625 0.25
vt 0.375 0
vt 0.625 0
vt 0.625 0.25
vt 0.375 0.25
vt 0.375 0.25
vt 0.625 0.25
vt 0.625 0.5
vt 0.375 0.5
vt 0.375 0.5
vt 0.625 0.5
vt 0.625 0.75
vt 0.375 0.75
vt 0.375 0.75
vt 0.625 0.75
vt 0.625 1
vt 0.375 1
vt 0.375 0.25
vt 0.375 0.5
vt 0.375 0.5
vt 0.375 0.25
vt 0.625 0.5
vt 0.625 0.75
vt 0.875 0.75
vt 0.875 0.5
vt 0.375 0
vt 0.375 0.25
vt 0.375 0.25
vt 0.375 0
vt 0.375 0.5
vt 0.375 0.75
vt 0.375 0.75
vt 0.375 0.5
vt 0.375 0.75
vt 0.375 1
vt 0.375 1
vt 0.375 0.75
vt 0.375 0.75
vt 0.375 1
vt 0.375 1
vt 0.375 0.75
vt 0.375 0.25
vt 0.625 0.25
vt 0.625 0.5
vt 0.375 0.5
vt 0.375 0
vt 0.375 0.25
vt 0.375 0.25
vt 0.375 0
vt 0.625 0.5
vt 0.625 0.75
vt 0.875 0.75
vt 0.875 0.5
vt 0.375 0.5
vt 0.375 0.75
vt 0.375 0.75
vt 0.375 0.5
vt 0.375 0
vt 0.625 0
vt 0.625 0.25
vt 0.375 0.25
vt 0.375 0.25
vt 0.375 0.5
vt 0.375 0.5
vt 0.375 0.25
vt 0.375 0.5
vt 0.625 0.5
vt 0.625 0.75
vt 0.375 0.75
vt 0.375 0.75
vt 0.625 0.75
vt 0.625 1
vt 0.375 1
vt 0.375 0
vt 0.375 0.25
vt 0.625 0.25
vt 0.625 0
vt 0.375 0.25
vt 0.375 0.5
vt 0.625 0.5
vt 0.625 0.25
vt 0.375 0.5
vt 0.375 0.75
vt 0.625 0.75
vt 0.625 0.5
vt 0.375 0.75
vt 0.375 1
vt 0.625 1
vt 0.625 0.75
vt 0.125 0.5
vt 0.125 0.75
vt 0.375 0.75
vt 0.375 0.5
vt 0.625 0.5
vt 0.625 0.75
vt 0.875 0.75
vt 0.875 0.5
vt 0.375 0
vt 0.375 0.25
vt 0.625 0.25
vt 0.625 0
vt 0.375 0.25
vt 0.375 0.5
vt 0.625 0.5
vt 0.625 0.25
vt 0.375 0.5
vt 0.375 0.75
vt 0.625 0.75
vt 0.625 0.5
vt 0.375 0.75
vt 0.375 1
vt 0.625 1
vt 0.625 0.75
vt 0.125 0.5
vt 0.125 0.75
vt 0.375 0.75
vt 0.375 0.5
vt 0.625 0.5
vt 0.625 0.75
vt 0.875 0.75
vt 0.875 0.5
vt 0.375 0
vt 0.375 0.25
vt 0.625 0.25
vt 0.625 0
vt 0.375 0.25
vt 0.375 0.5
vt 0.625 0.5
vt 0.625 0.25
vt 0.375 0.5
vt 0.375 0.75
vt 0.625 0.75
vt 0.625 0.5
vt 0.375 0.75
vt 0.375 1
vt 0.625 1
vt 0.625 0.75
vt 0.125 0.5
vt 0.125 0.75
vt 0.375 0.75
vt 0.375 0.5
vt 0.625 0.5
vt 0.625 0.75
vt 0.875 0.75
vt 0.875 0.5
vt 0.375 0
vt 0.375 0.25
vt 0.625 0.25
vt 0.625 0
vt 0.375 0.25
vt 0.375 0.5
vt 0.625 0.5
vt 0.625 0.25
vt 0.375 0.5
vt 0.375 0.75
vt 0.625 0.75
vt 0.625 0.5
vt 0.375 0.75
vt 0.375 1
vt 0.625 1
vt 0.625 0.75
vt 0.125 0.5
vt 0.125 0.75
vt 0.375 0.75
vt 0.375 0.5
vt 0.625 0.5
vt 0.625 0.75
vt 0.875 0.75
vt 0.875 0.5
vt 0.375 0.25
vt 0.375 0.5
vt 0.625 0.5
vt 0.625 0.25
vt 0.375 0.25
vt 0.625 0.25
vt 0.625 0.25
vt 0.375 0.25
vt 0.625 0.25
vt 0.625 0.25
vt 0.625 0.5
vt 0.625 0.5
vt 0.375 0.25
vt 0.625 0.25
vt 0.625 0.25
vt 0.375 0.25
vt 0.625 0.5
vt 0.375 0.5
vt 0.375 0.5
vt 0.625 0.5
vt 0.375 0.25
vt 0.375 0.5
vt 0.625 0.5
vt 0.625 0.25
vt 0.625 0.5
vt 0.375 0.5
vt 0.375 0.5
vt 0.625 0.5
vt 0.375 0.75
vt 0.375 1
vt 0.375 1
vt 0.375 0.75
vt 0.375 0.25
vt 0.625 0.25
vt 0.625 0.5
vt 0.375 0.5
vt 0.375 0
vt 0.375 0.25
vt 0.375 0.25
vt 0.375 0
vt 0.625 0.5
vt 0.625 0.75
vt 0.875 0.75
vt 0.875 0.5
vt 0.375 0.5
vt 0.375 0.75
vt 0.375 0.75
vt 0.375 0.5
vt 0.375 0
vt 0.625 0
vt 0.625 0.25
vt 0.375 0.25
vt 0.375 0.25
vt 0.375 0.5
vt 0.375 0.5
vt 0.375 0.25
vt 0.375 0.5
vt 0.625 0.5
vt 0.625 0.75
vt 0.375 0.75
vt 0.375 0.75
vt 0.625 0.75
vt 0.625 1
vt 0.375 1
vt 0.375 0.25
vt 0.375 0.5
vt 0.375 0.75
vt 0.375 1
vt 0.375 0.75
vt 0.375 1
vt 0.375 0.25
vt 0.375 0.5
vt 0.375 0.75
vt 0.375 1
vt 0.375 0.25
vt 0.375 0.5
vt 0.625 1
vt 0.625 1
vt 0.625 1
vt 0.625 1
vt 0.625 0.25
vt 0.625 0.25
vt 0.625 0.25
vt 0.625 0.25
vt 0.625 1
vt 0.625 0.75
vt 0.625 0.75
vt 0.625 1
vt 0.625 0.5
vt 0.625 0.25
vt 0.625 0.5
vt 0.625 0.25
vt 0 0
vt 0 0
vt 0 0
vt 0 0
vt 0 0
vt 0 0
vt 0 0
vt 0 0
vt 0 0
vt 0 0
vt 0 0
vt 0 0
vn -0 1 0
vn -0 1 0
vn -0 1 0
vn -0 1 0
vn -0 -1 0
vn -0 -1 0
vn -0 -1 0
vn -0 -1 0
vn 1 0 0
vn 1 0 0
vn 1 0 0
vn 1 0 0
vn 0.50000006 0.8660253 0
vn 0.50000006 0.8660253 0
vn 0.50000006 0.8660253 0
vn 0.50000006 0.8660253 0
vn 1 0 0
vn 1 0 0
vn 1 0 0
vn 1 0 0
vn 0.49999997 -0.86602545 0
vn 0.49999997 -0.86602545 0
vn 0.49999997 -0.86602545 0
vn 0.49999997 -0.86602545 0
vn -0.3751071 -0.9269815 0
vn -0.3751071 -0.9269815 0
vn -0.3751071 -0.9269815 0
vn -0.3751071 -0.9269815 0
vn 0.8824326 0 0.4704388
vn 0.8824326 0 0.4704388
vn 0.8824326 0 0.4704388
vn 0.8824326 0 0.4704388
vn -1 0 0
vn -1 0 0
vn -1 0 0
vn -1 0 0
vn -0.3751071 0.9269815 0
vn -0.3751071 0.9269815 0
vn -0.3751071 0.9269815 0
vn -0.3751071 0.9269815 0
vn 0.5000001 0.8660253 0
vn 0.5000001 0.8660253 0
vn 0.5000001 0.8660253 0
vn 0.5000001 0.8660253 0
vn -0.8824326 0 0.47043887
vn -0.8824326 0 0.47043887
vn -0.8824326 0 0.47043887
vn -0.8824326 0 0.47043887
vn 0.44121632 0.7642091 0.47043872
vn 0.44121632 0.7642091 0.47043872
vn 0.44121632 0.7642091 0.47043872
vn 0.44121632 0.7642091 0.47043872
vn 0.4412163 -0.76420903 0.47043878
vn 0.4412163 -0.76420903 0.47043878
vn 0.4412163 -0.76420903 0.47043878
vn 0.4412163 -0.76420903 0.47043878
vn -0.35633022 0.7477073 0.5603238
vn -0.35633022 0.7477073 0.5603238
vn -0.35633022 0.7477073 0.5603238
vn -0.35633022 0.7477073 0.5603238
vn -0.35633028 -0.7477073 0.56032366
vn -0.35633028 -0.7477073 0.56032366
vn -0.35633028 -0.7477073 0.56032366
vn -0.35633028 -0.7477073 0.56032366
vn -0.7335791 0 0.6796042
vn -0.7335791 0 0.6796042
vn -0.7335791 0 0.6796042
vn -0.7335791 0 0.6796042
vn -0.5 0.86602545 0
vn -0.5 0.86602545 0
vn -0.5 0.86602545 0
vn -0.5 0.86602545 0
vn -0.50000006 -0.8660253 0
vn -0.50000006 -0.8660253 0
vn -0.50000006 -0.8660253 0
vn -0.50000006 -0.8660253 0
vn 1 0 0
vn 1 0 0
vn 1 0 0
vn 1 0 0
vn -1 0 0
vn -1 0 0
vn -1 0 0
vn -1 0 0
vn 0.5000001 -0.8660253 0
vn 0.5000001 -0.8660253 0
vn 0.5000001 -0.8660253 0
vn 0.5000001 -0.8660253 0
vn -0 0 1
vn -0 0 1
vn -0 0 1
vn -0 0 1
vn -0 0 1
vn -0 0 1
vn -0 0 1
vn -0 0 1
vn -0 0 1
vn -0 0 1
vn -0 0 1
vn -0 0 1
vn -0 0 1
vn -0 0 1
vn 0.36678946 -0.6352979 0.6796043
vn 0.36678946 -0.6352979 0.6796043
vn 0.36678946 -0.6352979 0.6796043
vn 0.36678946 -0.6352979 0.6796043
vn 0.36678964 0.63529783 0.6796043
vn 0.36678964 0.63529783 0.6796043
vn 0.36678964 0.63529783 0.6796043
vn 0.36678964 0.63529783 0.6796043
vn -0.36678955 0.63529783 0.67960435
vn -0.36678955 0.63529783 0.67960435
vn -0.36678955 0.63529783 0.67960435
vn -0.36678955 0.63529783 0.67960435
vn -0.36678958 -0.63529783 0.6796044
vn -0.36678958 -0.63529783 0.6796044
vn -0.36678958 -0.63529783 0.6796044
vn -0.36678958 -0.63529783 0.6796044
vn 0.73357886 0 0.6796043
vn 0.73357886 0 0.6796043
vn 0.73357886 0 0.6796043
vn 0.73357886 0 0.6796043
vn -1 0 0
vn -1 0 0
vn -1 0 0
vn -1 0 0
vn -0 0 1
vn -0 0 1
vn -0 0 1
vn -0 0 1
vn -0 0 1
vn -0 0 1
vn -0 0 1
vn -0 0 1
vn -0 0 1
vn -0 0 1
vn -0 0 1
vn -0 0 1
vn -0 0 1
vn -0 0 1
vn 0.49999964 -0.8660256 0
vn 0.49999964 -0.8660256 0
vn 0.49999964 -0.8660256 0
vn 0.49999964 -0.8660256 0
vn 0.5 0.86602545 0
vn 0.5 0.86602545 0
vn 0.5 0.86602545 0
vn 0.5 0.86602545 0
vn -0.50000024 0.86602527 0
vn -0.50000024 0.86602527 0
vn -0.50000024 0.86602527 0
vn -0.50000024 0.86602527 0
vn -0.50000006 -0.86602545 0
vn -0.50000006 -0.86602545 0
vn -0.50000006 -0.86602545 0
vn -0.50000006 -0.86602545 0
vn 1 0 0
vn 1 0 0
vn 1 0 0
vn 1 0 0
vn 1 0 0
vn 1 0 0
vn 1 0 0
vn 1 0 0
vn -0 0 1
vn -0 0 1
vn -0 0 1
vn -0 0 1
vn -0 0 1
vn -0 0 1
vn -0.50000024 0.86602527 0
vn -0.50000024 0.86602527 0
vn -0.50000024 0.86602527 0
vn -0.50000024 0.86602527 0
vn -0.50000066 -0.8660251 0
vn -0.50000066 -0.8660251 0
vn -0.50000066 -0.8660251 0
vn -0.50000066 -0.8660251 0
vn 0.5000003 -0.86602527 0
vn 0.5000003 -0.86602527 0
vn 0.5000003 -0.86602527 0
vn 0.5000003 -0.86602527 0
vn 0.5000002 0.8660253 0
vn 0.5000002 0.8660253 0
vn 0.5000002 0.8660253 0
vn 0.5000002 0.8660253 0
vn -1 0 0
vn -1 0 0
vn -1 0 0
vn -1 0 0
vn -1 0 0
vn -1 0 0
vn -1 0 0
vn -1 0 0
vn -1 0 0
vn -1 0 0
vn -1 0 0
vn -1 0 0
vn -1 0 0
vn -1 0 0
vn -1 0 0
vn -1 0 0
vn -0 1 0
vn -0 1 0
vn -0 1 0
vn -0 1 0
vn -0 -1 0
vn -0 -1 0
vn -0 -1 0
vn -0 -1 0
vn -0 0 1
vn -0 0 1
vn -0 0 1
vn -0 0 1
vn -0 0 1
vn -0 0 1
vn -0 0 1
vn -0 0 1
vn -0 0 1
vn -0 0 1
vn -0 0 1
vn -0 0 1
vn -0 0 1
vn -0 0 1
vn -0.49999997 0.86602545 0
vn -0.49999997 0.86602545 0
vn -0.49999997 0.86602545 0
vn -0.49999997 0.86602545 0
vn 0.50000006 -0.8660253 0
vn 0.50000006 -0.8660253 0
vn 0.50000006 -0.8660253 0
vn 0.50000006 -0.8660253 0
vn -1 0 0
vn -1 0 0
vn -1 0 0
vn -1 0 0
vn 0.50000006 0.8660253 0
vn 0.50000006 0.8660253 0
vn 0.50000006 0.8660253 0
vn 0.50000006 0.8660253 0
vn -0.49999997 -0.86602545 0
vn -0.49999997 -0.86602545 0
vn -0.49999997 -0.86602545 0
vn -0.49999997 -0.86602545 0
vn 1 0 0
vn 1 0 0
vn 1 0 0
vn 1 0 0
vn -1 0 0
vn -1 0 0
vn -1 0 0
vn -1 0 0
vn 0.49999997 -0.86602545 0
vn 0.49999997 -0.86602545 0
vn 0.49999997 -0.86602545 0
vn 0.49999997 -0.86602545 0
vn 0.5000002 0.86602527 0
vn 0.5000002 0.86602527 0
vn 0.5000002 0.86602527 0
vn 0.5000002 0.86602527 0
vn -0.5000001 0.8660253 0
vn -0.5000001 0.8660253 0
vn -0.5000001 0.8660253 0
vn -0.5000001 0.8660253 0
vn -0.5000002 -0.86602527 0
vn -0.5000002 -0.86602527 0
vn -0.5000002 -0.86602527 0
vn -0.5000002 -0.86602527 0
vn 1 0 0
vn 1 0 0
vn 1 0 0
vn 1 0 0
vn -1 0 0
vn -1 0 0
vn -1 0 0
vn -1 0 0
vn -0 1 0
vn -0 1 0
vn -0 1 0
vn -0 1 0
vn -1 0 0
vn -1 0 0
vn -1 0 0
vn -1 0 0
vn 1 0 0
vn 1 0 0
vn 1 0 0
vn 1 0 0
vn -0 1 0
vn -0 1 0
vn -0 1 0
vn -0 1 0
vn -0 0 1
vn -0 0 1
vn -0 0 1
vn -0 0 1
vn 1 0 0
vn 1 0 0
vn 1 0 0
vn 1 0 0
vn -0 0 1
vn -0 0 1
vn -0 0 1
vn -0 0 1
vn -1 0 0
vn -1 0 0
vn -1 0 0
vn -1 0 0
vn -0 -1 0
vn -0 -1 0
vn -0 -1 0
vn -0 -1 0
vn -1 0 0
vn -1 0 0
vn -1 0 0
vn -1 0 0
vn 1 0 0
vn 1 0 0
vn 1 0 0
vn 1 0 0
vn -0 -1 0
vn -0 -1 0
vn -0 -1 0
vn -0 -1 0
vn -0 0 1
vn -0 0 1
vn -0 0 1
vn -0 0 1
vn 1 0 0
vn 1 0 0
vn 1 0 0
vn 1 0 0
vn -0 0 1
vn -0 0 1
vn -0 0 1
vn -0 0 1
vn -0 1 0
vn -0 1 0
vn -0 1 0
vn -0 1 0
vn -0 0 1
vn -0 0 1
vn -0 0 1
vn -0 0 1
vn -1 0 0
vn -1 0 0
vn -1 0 0
vn -1 0 0
vn -0 -1 0
vn -0 -1 0
vn -0 -1 0
vn -0 -1 0
vn 1 0 0
vn 1 0 0
vn 1 0 0
vn 1 0 0
vn 1 0 0
vn 1 0 0
vn 1 0 0
vn 1 0 0
vn -0 0 1
vn -0 0 1
vn -0 0 1
vn -0 0 1
vn -0 -1 0
vn -0 -1 0
vn -0 -1 0
vn -0 -1 0
vn -0 1 0
vn -0 1 0
vn -0 1 0
vn -0 1 0
vn -1 0 0
vn -1 0 0
vn -1 0 0
vn -1 0 0
vn 0.9818672 0 0.18956979
vn 0.9818672 0 0.18956979
vn 0.9818672 0 0.18956979
vn 0.9818672 0 0.18956979
vn -0 -0.98186696 0.18957111
vn -0 -0.98186696 0.18957111
vn -0 -0.98186696 0.18957111
vn -0 -0.98186696 0.18957111
vn -0.98186684 0 0.18957211
vn -0.98186684 0 0.18957211
vn -0.98186684 0 0.18957211
vn -0.98186684 0 0.18957211
vn -0 0.9818671 0.18957074
vn -0 0.9818671 0.18957074
vn -0 0.9818671 0.18957074
vn -0 0.9818671 0.18957074
vn -0 -0.77831024 0.62788004
vn -0 -0.77831024 0.62788004
vn -0 -0.77831024 0.62788004
vn -0 -0.77831024 0.62788004
vn -0 0 1
vn -0 0 1
vn -0 0 1
vn -0 0 1
vn 0.7783111 0 0.6278788
vn 0.7783111 0 0.6278788
vn 0.7783111 0 0.6278788
vn 0.7783111 0 0.6278788
vn -0.7783091 0 0.6278813
vn -0.7783091 0 0.6278813
vn -0.7783091 0 0.6278813
vn -0.7783091 0 0.6278813
vn -0 0.77831024 0.6278799
vn -0 0.77831024 0.6278799
vn -0 0.77831024 0.6278799
vn -0 0.77831024 0.6278799
vn -0 0.77831024 0.62788
vn -0 0.77831024 0.62788
vn -0 0.77831024 0.62788
vn -0 0.77831024 0.62788
vn -0 -0.98186696 0.18957107
vn -0 -0.98186696 0.18957107
vn -0 -0.98186696 0.18957107
vn -0 -0.98186696 0.18957107
vn 0.7783111 0 0.62787884
vn 0.7783111 0 0.62787884
vn 0.7783111 0 0.62787884
vn 0.7783111 0 0.62787884
vn -0 0 1
vn -0 0 1
vn -0 0 1
vn -0 0 1
vn -0.778309 0 0.62788147
vn -0.778309 0 0.62788147
vn -0.778309 0 0.62788147
vn -0.778309 0 0.62788147
vn 0.9818672 0 0.18956974
vn 0.9818672 0 0.18956974
vn 0.9818672 0 0.18956974
vn 0.9818672 0 0.18956974
vn -0 -0.77831024 0.6278801
vn -0 -0.77831024 0.6278801
vn -0 -0.77831024 0.6278801
vn -0 -0.77831024 0.6278801
vn -0.98186684 0 0.18957208
vn -0.98186684 0 0.18957208
vn -0.98186684 0 0.18957208
vn -0.98186684 0 0.18957208
vn -0 0.9818671 0.18957068
vn -0 0.9818671 0.18957068
vn -0 0.9818671 0.18957068
vn -0 0.9818671 0.18957068
vn -0.952649 -0.30407202 0
vn -0.952649 -0.30407202 0
vn -0.952649 -0.30407202 0
vn -0.952649 -0.30407202 0
vn -0.30407155 0.95264924 0
vn -0.30407155 0.95264924 0
vn -0.30407155 0.95264924 0
vn -0.30407155 0.95264924 0
vn 0.9526491 0.30407196 0
vn 0.9526491 0.30407196 0
vn 0.9526491 0.30407196 0
vn 0.9526491 0.30407196 0
vn 0.3040721 -0.952649 0
vn 0.3040721 -0.952649 0
vn 0.3040721 -0.952649 0
vn 0.3040721 -0.952649 0
vn -0 0 -1
vn -0 0 -1
vn -0 0 -1
vn -0 0 -1
vn -0 0 1
vn -0 0 1
vn -0 0 1
vn -0 0 1
vn -0.9572771 0.28917214 0
vn -0.9572771 0.28917214 0
vn -0.9572771 0.28917214 0
vn -0.9572771 0.28917214 0
vn 0.28917286 0.95727694 0
vn 0.28917286 0.95727694 0
vn 0.28917286 0.95727694 0
vn 0.28917286 0.95727694 0
vn 0.9572771 -0.28917223 0
vn 0.9572771 -0.28917223 0
vn 0.9572771 -0.28917223 0
vn 0.9572771 -0.28917223 0
vn -0.28917244 -0.957277 0
vn -0.28917244 -0.957277 0
vn -0.28917244 -0.957277 0
vn -0.28917244 -0.957277 0
vn -0 0 -1
vn -0 0 -1
vn -0 0 -1
vn -0 0 -1
vn -0 0 1
vn -0 0 1
vn -0 0 1
vn -0 0 1
vn -0.9761036 -0.2173056 0
vn -0.9761036 -0.2173056 0
vn -0.9761036 -0.2173056 0
vn -0.9761036 -0.2173056 0
vn -0.21730497 0.9761037 0
vn -0.21730497 0.9761037 0
vn -0.21730497 0.9761037 0
vn -0.21730497 0.9761037 0
vn 0.9761037 0.21730518 0
vn 0.9761037 0.21730518 0
vn 0.9761037 0.21730518 0
vn 0.9761037 0.21730518 0
vn 0.21730523 -0.9761037 0
vn 0.21730523 -0.9761037 0
vn 0.21730523 -0.9761037 0
vn 0.21730523 -0.9761037 0
vn -0 0 -1
vn -0 0 -1
vn -0 0 -1
vn -0 0 -1
vn -0 0 1
vn -0 0 1
vn -0 0 1
vn -0 0 1
vn -0.97265536 0.23225324 0
vn -0.97265536 0.23225324 0
vn -0.97265536 0.23225324 0
vn -0.97265536 0.23225324 0
vn 0.23225382 0.9726553 0
vn 0.23225382 0.9726553 0
vn 0.23225382 0.9726553 0
vn 0.23225382 0.9726553 0
vn 0.9726553 -0.23225361 0
vn 0.9726553 -0.23225361 0
vn 0.9726553 -0.23225361 0
vn 0.9726553 -0.23225361 0
vn -0.23225363 -0.9726553 0
vn -0.23225363 -0.9726553 0
vn -0.23225363 -0.9726553 0
vn -0.23225363 -0.9726553 0
vn -0 0 -1
vn -0 0 -1
vn -0 0 -1
vn -0 0 -1
vn -0 0 1
vn -0 0 1
vn -0 0 1
vn -0 0 1
vn -0 0.9676358 0.25235105
vn -0 0.9676358 0.25235105
vn -0 0.9676358 0.25235105
vn -0 0.9676358 0.25235105
vn -1 0 0
vn -1 0 0
vn -1 0 0
vn -1 0 0
vn -0 0 -1
vn -0 0 -1
vn -0 0 -1
vn -0 0 -1
vn -1 0 0
vn -1 0 0
vn -1 0 0
vn -1 0 0
vn 1 0 0
vn 1 0 0
vn 1 0 0
vn 1 0 0
vn -0 0.9676358 0.25235105
vn -0 0.9676358 0.25235105
vn -0 0.9676358 0.25235105
vn -0 0.9676358 0.25235105
vn 1 0 0
vn 1 0 0
vn 1 0 0
vn 1 0 0
vn -0 0.7783101 0.62788004
vn -0 0.7783101 0.62788004
vn -0 0.7783101 0.62788004
vn -0 0.7783101 0.62788004
vn -0 -0.98186696 0.18957107
vn -0 -0.98186696 0.18957107
vn -0 -0.98186696 0.18957107
vn -0 -0.98186696 0.18957107
vn 0.77831095 0 0.62787914
vn 0.77831095 0 0.62787914
vn 0.77831095 0 0.62787914
vn 0.77831095 0 0.62787914
vn -0 0 1
vn -0 0 1
vn -0 0 1
vn -0 0 1
vn -0.7783091 0 0.6278812
vn -0.7783091 0 0.6278812
vn -0.7783091 0 0.6278812
vn -0.7783091 0 0.6278812
vn 0.9818672 0 0.18956982
vn 0.9818672 0 0.18956982
vn 0.9818672 0 0.18956982
vn 0.9818672 0 0.18956982
vn -0 -0.77831006 0.62788016
vn -0 -0.77831006 0.62788016
vn -0 -0.77831006 0.62788016
vn -0 -0.77831006 0.62788016
vn -0.98186684 0 0.18957208
vn -0.98186684 0 0.18957208
vn -0.98186684 0 0.18957208
vn -0.98186684 0 0.18957208
vn -0 0.9818671 0.18957072
vn -0 0.9818671 0.18957072
vn -0 0.9818671 0.18957072
vn -0 0.9818671 0.18957072
vn -0 0 1
vn -0 0 1
vn -0 0 1
vn -0 0 1
vn -0 0 1
vn -0 0 1
vn -0 0 1
vn -0 0 1
vn -0 0 1
vn -0 0 1
vn -0 0 1
vn -0 0 1
vn -0 0 1
vn -0 0 1
vn -0 0 1
vn -0 0 1
vn -0 0 1
vn -0 0 1
vn -0 0 1
vn -0 0 1
vn -0 0 1
vn -0 0 1
vn -0 0 1
vn -0 0 1
vn -0 0 1
vn -0 0 1
vn -0 0 1
vn -0 0 1
vn -0 0 1
vn -0 0 1
vn -0 0 1
vn -0 0 1
vn -0 0 1
vn -0 0 1
vn -0 0 1
vn -0 0 1
vn -0 0 1
vn -0 0 1
vn -0 0 1
vn -0 0 1
g Blacksmith DesignB_0
f 3/3/3 2/2/2 1/1/1
f 4/4/4 3/3/3 1/1/1
f 7/7/7 6/6/6 5/5/5
f 8/8/8 7/7/7 5/5/5
f 11/11/11 10/10/10 9/9/9
f 12/12/12 11/11/11 9/9/9
f 15/15/15 14/14/14 13/13/13
f 16/16/16 15/15/15 13/13/13
f 19/19/19 18/18/18 17/17/17
f 20/20/20 19/19/19 17/17/17
f 23/23/23 22/22/22 21/21/21
f 24/24/24 23/23/23 21/21/21
f 27/27/27 26/26/26 25/25/25
f 28/28/28 27/27/27 25/25/25
f 31/31/31 30/30/30 29/29/29
f 32/32/32 31/31/31 29/29/29
f 35/35/35 34/34/34 33/33/33
f 36/36/36 35/35/35 33/33/33
f 39/39/39 38/38/38 37/37/37
f 40/40/40 39/39/39 37/37/37
f 43/43/43 42/42/42 41/41/41
f 44/44/44 43/43/43 41/41/41
f 47/47/47 46/46/46 45/45/45
f 48/48/48 47/47/47 45/45/45
f 51/51/51 50/50/50 49/49/49
f 52/52/52 51/51/51 49/49/49
f 55/55/55 54/54/54 53/53/53
f 56/56/56 55/55/55 53/53/53
f 59/59/59 58/58/58 57/57/57
f 60/60/60 59/59/59 57/57/57
f 63/63/63 62/62/62 61/61/61
f 64/64/64 63/63/63 61/61/61
f 67/67/67 66/66/66 65/65/65
f 68/68/68 67/67/67 65/65/65
f 71/71/71 70/70/70 69/69/69
f 72/72/72 71/71/71 69/69/69
f 75/75/75 74/74/74 73/73/73
f 76/76/76 75/75/75 73/73/73
f 79/79/79 78/78/78 77/77/77
f 80/80/80 79/79/79 77/77/77
f 83/83/83 82/82/82 81/81/81
f 84/84/84 83/83/83 81/81/81
f 87/87/87 86/86/86 85/85/85
f 88/88/88 87/87/87 85/85/85
f 91/91/91 90/90/90 89/89/89
f 92/92/92 91/91/91 89/89/89
f 93/93/93 91/91/91 92/92/92
f 94/94/94 93/93/93 92/92/92
f 95/95/95 93/93/93 94/94/94
f 96/96/96 95/95/95 94/94/94
f 97/97/97 95/95/95 96/96/96
f 98/98/98 97/97/97 96/96/96
f 99/99/99 97/97/97 98/98/98
f 100/100/100 99/99/99 98/98/98
f 101/101/101 99/99/99 100/100/100
f 102/102/102 101/101/101 100/100/100
f 105/105/105 104/104/104 103/103/103
f 106/106/106 105/105/105 103/103/103
f 109/109/109 108/108/108 107/107/107
f 110/110/110 109/109/109 107/107/107
f 113/113/113 112/112/112 111/111/111
f 114/114/114 113/113/113 111/111/111
f 117/117/117 116/116/116 115/115/115
f 118/118/118 117/117/117 115/115/115
f 121/121/121 120/120/120 119/119/119
f 122/122/122 121/121/121 119/119/119
f 125/125/125 124/124/124 123/123/123
f 126/126/126 125/125/125 123/123/123
f 129/129/129 128/128/128 127/127/127
f 130/130/130 129/129/129 127/127/127
f 131/131/131 129/129/129 130/130/130
f 132/132/132 131/131/131 130/130/130
f 133/133/133 131/131/131 132/132/132
f 134/134/134 133/133/133 132/132/132
f 135/135/135 133/133/133 134/134/134
f 136/136/136 135/135/135 134/134/134
f 137/137/137 135/135/135 136/136/136
f 138/138/138 137/137/137 136/136/136
f 139/139/139 137/137/137 138/138/138
f 140/140/140 139/139/139 138/138/138
f 143/143/143 142/142/142 141/141/141
f 144/144/144 143/143/143 141/141/141
f 147/147/147 146/146/146 145/145/145
f 148/148/148 147/147/147 145/145/145
f 151/151/151 150/150/150 149/149/149
f 152/152/152 151/151/151 149/149/149
f 155/155/155 154/154/154 153/153/153
f 156/156/156 155/155/155 153/153/153
f 159/159/159 158/158/158 157/157/157
f 160/160/160 159/159/159 157/157/157
f 163/163/163 162/162/162 161/161/161
f 164/164/164 163/163/163 161/161/161
f 167/167/167 166/166/166 165/165/165
f 165/165/165 168/168/168 167/167/167
f 165/165/165 169/169/169 168/168/168
f 169/169/169 170/170/170 168/168/168
f 173/173/173 172/172/172 171/171/171
f 174/174/174 173/173/173 171/171/171
f 177/177/177 176/176/176 175/175/175
f 178/178/178 177/177/177 175/175/175
f 181/181/181 180/180/180 179/179/179
f 182/182/182 181/181/181 179/179/179
f 185/185/185 184/184/184 183/183/183
f 186/186/186 185/185/185 183/183/183
f 189/189/189 188/188/188 187/187/187
f 190/190/190 189/189/189 187/187/187
f 193/193/193 192/192/192 191/191/191
f 194/194/194 193/193/193 191/191/191
f 197/197/197 196/196/196 195/195/195
f 196/196/196 198/198/198 195/195/195
f 195/195/195 198/198/198 199/199/199
f 200/200/200 195/195/195 199/199/199
f 200/200/200 199/199/199 201/201/201
f 199/199/199 202/202/202 201/201/201
f 205/205/205 204/204/204 203/203/203
f 206/206/206 205/205/205 203/203/203
f 209/209/209 208/208/208 207/207/207
f 210/210/210 209/209/209 207/207/207
f 213/213/213 212/212/212 211/211/211
f 214/214/214 213/213/213 211/211/211
f 215/215/215 213/213/213 214/214/214
f 216/216/216 215/215/215 214/214/214
f 217/217/217 215/215/215 216/216/216
f 218/218/218 217/217/217 216/216/216
f 219/219/219 217/217/217 218/218/218
f 220/220/220 219/219/219 218/218/218
f 221/221/221 219/219/219 220/220/220
f 222/222/222 221/221/221 220/220/220
f 223/223/223 221/221/221 222/222/222
f 224/224/224 223/223/223 222/222/222
f 227/227/227 226/226/226 225/225/225
f 228/228/228 227/227/227 225/225/225
f 231/231/231 230/230/230 229/229/229
f 232/232/232 231/231/231 229/229/229
f 235/235/235 234/234/234 233/233/233
f 236/236/236 235/235/235 233/233/233
f 239/239/239 238/238/238 237/237/237
f 240/240/240 239/239/239 237/237/237
f 243/243/243 242/242/242 241/241/241
f 244/244/244 243/243/243 241/241/241
f 247/247/247 246/246/246 245/245/245
f 248/248/248 247/247/247 245/245/245
f 251/251/251 250/250/250 249/249/249
f 252/252/252 251/251/251 249/249/249
f 255/255/255 254/254/254 253/253/253
f 256/256/256 255/255/255 253/253/253
f 259/259/259 258/258/258 257/257/257
f 260/260/260 259/259/259 257/257/257
f 263/263/263 262/262/262 261/261/261
f 264/264/264 263/263/263 261/261/261
f 267/267/267 266/266/266 265/265/265
f 268/268/268 267/267/267 265/265/265
f 271/271/271 270/270/270 269/269/269
f 272/272/272 271/271/271 269/269/269
f 275/275/275 274/274/274 273/273/273
f 276/276/276 275/275/275 273/273/273
f 279/279/279 278/278/278 277/277/277
f 280/280/280 279/279/279 277/277/277
f 283/283/283 282/282/282 281/281/281
f 284/284/284 283/283/283 281/281/281
f 287/287/287 286/286/286 285/285/285
f 288/288/288 287/287/287 285/285/285
f 291/291/291 290/290/290 289/289/289
f 292/292/292 291/291/291 289/289/289
f 295/295/295 294/294/294 293/293/293
f 296/296/296 295/295/295 293/293/293
f 299/299/299 298/298/298 297/297/297
f 300/300/300 299/299/299 297/297/297
f 303/303/303 302/302/302 301/301/301
f 304/304/304 303/303/303 301/301/301
f 307/307/307 306/306/306 305/305/305
f 308/308/308 307/307/307 305/305/305
f 311/311/311 310/310/310 309/309/309
f 312/312/312 311/311/311 309/309/309
f 315/315/315 314/314/314 313/313/313
f 316/316/316 315/315/315 313/313/313
f 319/319/319 318/318/318 317/317/317
f 320/320/320 319/319/319 317/317/317
f 323/323/323 322/322/322 321/321/321
f 324/324/324 323/323/323 321/321/321
f 327/327/327 326/326/326 325/325/325
f 328/328/328 327/327/327 325/325/325
f 331/331/331 330/330/330 329/329/329
f 332/332/332 331/331/331 329/329/329
f 335/335/335 334/334/334 333/333/333
f 336/336/336 335/335/335 333/333/333
f 339/339/339 338/338/338 337/337/337
f 340/340/340 339/339/339 337/337/337
f 343/343/343 342/342/342 341/341/341
f 344/344/344 343/343/343 341/341/341
f 347/347/347 346/346/346 345/345/345
f 348/348/348 347/347/347 345/345/345
f 351/351/351 350/350/350 349/349/349
f 352/352/352 351/351/351 349/349/349
f 355/355/355 354/354/354 353/353/353
f 356/356/356 355/355/355 353/353/353
f 359/359/359 358/358/358 357/357/357
f 360/360/360 359/359/359 357/357/357
f 363/363/363 362/362/362 361/361/361
f 364/364/364 363/363/363 361/361/361
f 367/367/367 366/366/366 365/365/365
f 368/368/368 367/367/367 365/365/365
f 371/371/371 370/370/370 369/369/369
f 372/372/372 371/371/371 369/369/369
f 375/375/375 374/374/374 373/373/373
f 376/376/376 375/375/375 373/373/373
f 379/379/379 378/378/378 377/377/377
f 380/380/380 379/379/379 377/377/377
f 383/383/383 382/382/382 381/381/381
f 384/384/384 383/383/383 381/381/381
f 387/387/387 386/386/386 385/385/385
f 388/388/388 387/387/387 385/385/385
f 391/391/391 390/390/390 389/389/389
f 392/392/392 391/391/391 389/389/389
f 395/395/395 394/394/394 393/393/393
f 396/396/396 395/395/395 393/393/393
f 399/399/399 398/398/398 397/397/397
f 400/400/400 399/399/399 397/397/397
f 403/403/403 402/402/402 401/401/401
f 404/404/404 403/403/403 401/401/401
f 407/407/407 406/406/406 405/405/405
f 408/408/408 407/407/407 405/405/405
f 411/411/411 410/410/410 409/409/409
f 412/412/412 411/411/411 409/409/409
f 415/415/415 414/414/414 413/413/413
f 416/416/416 415/415/415 413/413/413
f 419/419/419 418/418/418 417/417/417
f 420/420/420 419/419/419 417/417/417
f 423/423/423 422/422/422 421/421/421
f 424/424/424 423/423/423 421/421/421
f 427/427/427 426/426/426 425/425/425
f 428/428/428 427/427/427 425/425/425
f 431/431/431 430/430/430 429/429/429
f 432/432/432 431/431/431 429/429/429
f 435/435/435 434/434/434 433/433/433
f 436/436/436 435/435/435 433/433/433
f 439/439/439 438/438/438 437/437/437
f 440/440/440 439/439/439 437/437/437
f 443/443/443 442/442/442 441/441/441
f 444/444/444 443/443/443 441/441/441
f 447/447/447 446/446/446 445/445/445
f 448/448/448 447/447/447 445/445/445
f 451/451/451 450/450/450 449/449/449
f 452/452/452 451/451/451 449/449/449
f 455/455/455 454/454/454 453/453/453
f 456/456/456 455/455/455 453/453/453
f 459/459/459 458/458/458 457/457/457
f 460/460/460 459/459/459 457/457/457
f 463/463/463 462/462/462 461/461/461
f 464/464/464 463/463/463 461/461/461
f 467/467/467 466/466/466 465/465/465
f 468/468/468 467/467/467 465/465/465
f 471/471/471 470/470/470 469/469/469
f 472/472/472 471/471/471 469/469/469
f 475/475/475 474/474/474 473/473/473
f 476/476/476 475/475/475 473/473/473
f 479/479/479 478/478/478 477/477/477
f 480/480/480 479/479/479 477/477/477
f 483/483/483 482/482/482 481/481/481
f 484/484/484 483/483/483 481/481/481
f 487/487/487 486/486/486 485/485/485
f 488/488/488 487/487/487 485/485/485
f 491/491/491 490/490/490 489/489/489
f 492/492/492 491/491/491 489/489/489
f 495/495/495 494/494/494 493/493/493
f 496/496/496 495/495/495 493/493/493
f 499/499/499 498/498/498 497/497/497
f 500/500/500 499/499/499 497/497/497
f 503/503/503 502/502/502 501/501/501
f 504/504/504 503/503/503 501/501/501
f 507/507/507 506/506/506 505/505/505
f 508/508/508 507/507/507 505/505/505
f 511/511/511 510/510/510 509/509/509
f 512/512/512 511/511/511 509/509/509
f 515/515/515 514/514/514 513/513/513
f 516/516/516 515/515/515 513/513/513
f 519/519/519 518/518/518 517/517/517
f 520/520/520 519/519/519 517/517/517
f 523/523/523 522/522/522 521/521/521
f 524/524/524 523/523/523 521/521/521
f 527/527/527 526/526/526 525/525/525
f 528/528/528 527/527/527 525/525/525
f 531/531/531 530/530/530 529/529/529
f 532/532/532 531/531/531 529/529/529
f 535/535/535 534/534/534 533/533/533
f 536/536/536 535/535/535 533/533/533
f 539/539/539 538/538/538 537/537/537
f 540/540/540 539/539/539 537/537/537
f 543/543/543 542/542/542 541/541/541
f 544/544/544 543/543/543 541/541/541
f 547/547/547 546/546/546 545/545/545
f 548/548/548 547/547/547 545/545/545
f 551/551/551 550/550/550 549/549/549
f 552/552/552 551/551/551 549/549/549
f 555/555/555 554/554/554 553/553/553
f 556/556/556 555/555/555 553/553/553
f 559/559/559 558/558/558 557/557/557
f 560/560/560 559/559/559 557/557/557
f 563/563/563 562/562/562 561/561/561
f 564/564/564 563/563/563 561/561/561
f 567/567/567 566/566/566 565/565/565
f 568/568/568 567/567/567 565/565/565
f 571/571/571 570/570/570 569/569/569
f 572/572/572 571/571/571 569/569/569
f 575/575/575 574/574/574 573/573/573
f 576/576/576 575/575/575 573/573/573
f 579/579/579 578/578/578 577/577/577
f 580/580/580 579/579/579 577/577/577
f 583/583/583 582/582/582 581/581/581
f 584/584/584 583/583/583 581/581/581
f 587/587/587 586/586/586 585/585/585
f 588/588/588 587/587/587 585/585/585
f 591/591/591 590/590/590 589/589/589
f 592/592/592 591/591/591 589/589/589
f 595/595/595 594/594/594 593/593/593
f 596/596/596 595/595/595 593/593/593
f 599/599/599 598/598/598 597/597/597
f 600/600/600 599/599/599 597/597/597
f 603/603/603 602/602/602 601/601/601
f 604/604/604 603/603/603 601/601/601
f 607/607/607 606/606/606 605/605/605
f 608/608/608 607/607/607 605/605/605
f 611/611/611 610/610/610 609/609/609
f 612/612/612 611/611/611 609/609/609
f 615/615/615 614/614/614 613/613/613
f 616/616/616 615/615/615 613/613/613
f 619/619/619 618/618/618 617/617/617
f 620/620/620 619/619/619 617/617/617
f 623/623/623 622/622/622 621/621/621
f 622/622/622 624/624/624 621/621/621
f 625/625/625 622/622/622 623/623/623
f 621/621/621 624/624/624 626/626/626
f 627/627/627 625/625/625 623/623/623
f 624/624/624 628/628/628 626/626/626
f 628/628/628 625/625/625 627/627/627
f 626/626/626 628/628/628 627/627/627
f 631/631/631 630/630/630 629/629/629
f 630/630/630 632/632/632 629/629/629
f 633/633/633 630/630/630 631/631/631
f 629/629/629 632/632/632 634/634/634
f 635/635/635 633/633/633 631/631/631
f 632/632/632 636/636/636 634/634/634
f 636/636/636 633/633/633 635/635/635
f 634/634/634 636/636/636 635/635/635
f 639/639/639 638/638/638 637/637/637
f 640/640/640 639/639/639 637/637/637
f 637/637/637 638/638/638 641/641/641
f 642/642/642 639/639/639 640/640/640
f 638/638/638 643/643/643 641/641/641
f 644/644/644 642/642/642 640/640/640
f 641/641/641 643/643/643 645/645/645
f 646/646/646 642/642/642 644/644/644
f 643/643/643 647/647/647 645/645/645
f 648/648/648 646/646/646 644/644/644
f 645/645/645 647/647/647 648/648/648
f 647/647/647 646/646/646 648/648/648
