g Blob Tree
v -0 -1.7707406E-07 0
v 0.914381 0.52791816 0.23148383
v -0.5792278 0.8610425 0.23274066
v 0.3961696 1.7460505 1.0016338
v 1.5191184 0.8770632 1.0127454
v 1.6847116 -0.48672688 0.94749993
v 0.26193044 -0.9775385 0.18836187
v -0 -1.7707406E-07 0
v 2.0359862 -0.545541 2.025491
v 1.4199677 1.5061742 2.0725951
v 0.87706333 -1.5191185 1.0127454
v -0.54741967 -1.6959474 0.97701555
v -0.9769367 -0.31209293 0.25952798
v -0 -1.7707406E-07 0
v -1.7023659 -0.42083824 0.9474999
v 0.47664073 -2.014369 1.9783863
v -1.4751581 -1.4751582 2.0254908
v -2.0122147 0.5849433 2.0742977
v -1.2837598 -1.234678 3.0842938
v -1.6850277 0.45150176 3.1315207
v -0.97753793 0.26193014 3.8626206
v -3.219165E-08 -1.7541269 3.0382366
v -0.3120927 -0.9769363 3.7914546
v -1.439198E-14 -3.5414806E-07 4.050982
v 1.2638735 -1.2156397 3.103482
v 0.95942384 -0.34031603 3.873433
v -1.439198E-14 -3.5414806E-07 4.050982
v 1.7291079 0.42738217 3.0842938
v 0.26982352 1.0069959 3.7880836
v -1.439198E-14 -3.5414806E-07 4.050982
v 0.5299324 1.7102091 3.0493484
v -0.47663987 2.014369 1.9783866
v -0.87706316 1.519118 3.0382366
v -1.2837596 1.2346773 0.96668786
v -0.97753793 0.26193014 3.8626206
v -1.439198E-14 -3.5414806E-07 4.050982
v -1.6850277 0.45150176 3.1315207
v -2.0122147 0.5849433 2.0742977
v -1.7023659 -0.42083824 0.9474999
v -0.9769367 -0.31209293 0.25952798
v -0 -1.7707406E-07 0
vt 0.70833325 0
vt 0.58219475 0.16666669
vt 0.84388196 0.16666669
vt 0.714688 0.33333328
vt 0.58333325 0.3333333
vt 0.45520312 0.3333333
vt 0.29195455 0.16666675
vt 0.45833325 0
vt 0.45833328 0.5
vt 0.6298449 0.5
vt 0.33333328 0.3333333
vt 0.20008963 0.3333333
vt 0.049393572 0.16666669
vt 0.12500003 0
vt 0.038536496 0.3333333
vt 0.28682166 0.5
vt 0.12499997 0.5
vt 0 0.5
vt 0.121814765 0.6666666
vt 0 0.66666675
vt 0.033939734 0.8333334
vt 0.24999997 0.6666666
vt 0.2006064 0.8333333
vt 0.12500003 1
vt 0.37813014 0.6666666
vt 0.44537127 0.8333333
vt 0.29166663 1
vt 0.53848135 0.6666666
vt 0.7083334 0.8333334
vt 0.625 1
vt 0.7019787 0.6666666
vt 0.7868216 0.5
vt 0.8333334 0.66666675
vt 0.8781852 0.33333325
vt 0.940312 0.8333334
vt 0.7916666 1
vt 0.9583333 0.66666675
vt 0.95481926 0.5
vt 1 0.3333333
vt 1 0.16666669
vt 0.9583334 0
vn 0.004607547 0.0073916004 -0.9999621
vn 0.44018915 0.25162387 -0.86192745
vn -0.28491282 0.43571836 -0.8537998
vn 0.1858326 0.85489506 -0.48437658
vn 0.7880445 0.4194279 -0.45062852
vn 0.8387013 -0.24430501 -0.48671883
vn 0.11482642 -0.47663045 -0.8715723
vn 0.004607547 0.0073916004 -0.9999621
vn 0.9655895 -0.25858283 0.027782466
vn 0.70456034 0.7096073 0.0072250073
vn 0.48025036 -0.7446387 -0.46354374
vn -0.29531163 -0.8258876 -0.48031312
vn -0.48652667 -0.16489583 -0.85796344
vn 0.004607547 0.0073916004 -0.9999621
vn -0.8291279 -0.20826526 -0.5188183
vn 0.23858564 -0.9710212 -0.013961627
vn -0.7171264 -0.6969281 -0.0045829536
vn -0.9628975 0.26981905 0.0051019858
vn -0.650076 -0.58896244 0.48012954
vn -0.8575045 0.20873804 0.4702282
vn -0.46503705 0.14361718 0.87356436
vn -0.012896807 -0.87248296 0.48847434
vn -0.13997647 -0.49517295 0.8574441
vn -0.0010674055 0.006105356 0.9999808
vn 0.61865747 -0.6176389 0.48557723
vn 0.47739857 -0.14780182 0.8661669
vn -0.0010674055 0.006105356 0.9999808
vn 0.84295374 0.23863544 0.48216394
vn 0.13854972 0.48279193 0.86470574
vn -0.0010674055 0.006105356 0.9999808
vn 0.25514552 0.8136264 0.5224106
vn -0.2529582 0.96744317 -0.008112993
vn -0.4564755 0.74507225 0.48631003
vn -0.63792413 0.60539657 -0.4759704
vn -0.46503705 0.14361718 0.87356436
vn -0.0010674055 0.006105356 0.9999808
vn -0.8575045 0.20873804 0.4702282
vn -0.9628975 0.26981905 0.0051019858
vn -0.8291279 -0.20826526 -0.5188183
vn -0.48652667 -0.16489583 -0.85796344
vn 0.004607547 0.0073916004 -0.9999621
g Blob Tree_0
f 3/3/3 2/2/2 1/1/1
f 2/2/2 3/3/3 4/4/4
f 4/4/4 5/5/5 2/2/2
f 6/6/6 2/2/2 5/5/5
f 6/6/6 7/7/7 2/2/2
f 2/2/2 7/7/7 8/8/8
f 6/6/6 5/5/5 9/9/9
f 5/5/5 4/4/4 10/10/10
f 5/5/5 10/10/10 9/9/9
f 11/11/11 7/7/7 6/6/6
f 6/6/6 9/9/9 11/11/11
f 12/12/12 7/7/7 11/11/11
f 7/7/7 12/12/12 13/13/13
f 7/7/7 13/13/13 14/14/14
f 12/12/12 15/15/15 13/13/13
f 16/16/16 12/12/12 11/11/11
f 9/9/9 16/16/16 11/11/11
f 17/17/17 15/15/15 12/12/12
f 17/17/17 12/12/12 16/16/16
f 18/18/18 15/15/15 17/17/17
f 17/17/17 19/19/19 18/18/18
f 19/19/19 20/20/20 18/18/18
f 20/20/20 19/19/19 21/21/21
f 16/16/16 22/22/22 17/17/17
f 22/22/22 19/19/19 17/17/17
f 21/21/21 19/19/19 23/23/23
f 19/19/19 22/22/22 23/23/23
f 24/24/24 21/21/21 23/23/23
f 25/25/25 16/16/16 9/9/9
f 25/25/25 22/22/22 16/16/16
f 26/26/26 23/23/23 22/22/22
f 25/25/25 26/26/26 22/22/22
f 27/27/27 23/23/23 26/26/26
f 25/25/25 9/9/9 28/28/28
f 25/25/25 28/28/28 26/26/26
f 9/9/9 10/10/10 28/28/28
f 29/29/29 26/26/26 28/28/28
f 30/30/30 26/26/26 29/29/29
f 28/28/28 10/10/10 31/31/31
f 31/31/31 29/29/29 28/28/28
f 10/10/10 32/32/32 31/31/31
f 10/10/10 4/4/4 32/32/32
f 31/31/31 33/33/33 29/29/29
f 31/31/31 32/32/32 33/33/33
f 4/4/4 34/34/34 32/32/32
f 4/4/4 3/3/3 34/34/34
f 33/33/33 35/35/35 29/29/29
f 36/36/36 29/29/29 35/35/35
f 35/35/35 33/33/33 37/37/37
f 38/38/38 37/37/37 33/33/33
f 32/32/32 38/38/38 33/33/33
f 32/32/32 34/34/34 38/38/38
f 34/34/34 39/39/39 38/38/38
f 39/39/39 34/34/34 3/3/3
f 40/40/40 39/39/39 3/3/3
f 40/40/40 3/3/3 41/41/41
