g Bloodwand
v 0.013547175 0.013547253 2.669013
v 0.019158605 5.9475063E-08 2.669013
v 0.013547175 -0.013547134 2.669013
v 5.328431E-08 0.086515605 -0.20806737
v 5.577941E-07 0.036929063 -0.8063982
v 0.026113227 0.02611284 -0.8063982
v 0.06117573 0.061175816 -0.20806737
v 0.036929443 1.6938628E-07 -0.8063982
v 0.08651552 1.3928715E-07 -0.20806737
v 0.026113227 -0.026112497 -0.8063982
v 0.06117573 -0.061175533 -0.20806737
v 5.545657E-07 -0.03692872 -0.8063982
v 4.57209E-08 -0.08651534 -0.20806737
v -0.02611211 -0.026112497 -0.8063982
v -0.061175626 -0.061175533 -0.20806737
v -0.036928326 1.7144087E-07 -0.8063982
v -0.08651541 1.4410055E-07 -0.20806737
v -0.026112113 0.026112832 -0.8063982
v -0.061175633 0.06117581 -0.20806737
v 5.577941E-07 0.036929063 -0.8063982
v 5.328431E-08 0.086515605 -0.20806737
v 4.3223876E-11 0.036758214 -0.1827991
v 0.046964835 0.04696496 0.42628115
v -5.942802E-08 0.06641846 0.42628118
v 0.025991919 0.025992008 -0.1827991
v 0.066418335 6.149947E-08 0.42628115
v 0.03675812 9.025978E-08 -0.1827991
v 0.046964835 -0.04696483 0.42628115
v 0.025991919 -0.025991827 -0.1827991
v -6.523451E-08 -0.066418335 0.42628115
v -3.1702736E-09 -0.036758035 -0.1827991
v -0.04696495 -0.04696483 0.42628115
v -0.025991919 -0.025991827 -0.1827991
v -0.06641845 6.519474E-08 0.42628115
v -0.03675812 9.2304866E-08 -0.1827991
v -0.046964966 0.04696495 0.42628115
v -0.025991922 0.025992004 -0.1827991
v -5.942802E-08 0.06641846 0.42628118
v 4.3223876E-11 0.036758214 -0.1827991
v -0.066024214 0.06602419 0.46670768
v -6.143127E-08 0.14692925 0.42520264
v -6.89381E-08 0.09337231 0.46670774
v -0.103894696 0.10389466 0.42520258
v -0.09337229 5.8909293E-08 0.46670768
v -0.14692925 6.1303645E-08 0.42520258
v -0.0660242 -0.06602409 0.46670768
v -0.103894666 -0.10389455 0.42520258
v -7.130692E-08 -0.09337218 0.46670768
v -0.103894666 -0.10389455 0.42520258
v -0.0660242 -0.06602409 0.46670768
v -6.6382825E-08 -0.14692912 0.42520258
v 0.06602407 -0.06602409 0.46670768
v 0.10389457 -0.10389455 0.42520258
v 0.09337218 5.8275585E-08 0.46670768
v 0.14692912 6.283759E-08 0.42520258
v 0.10389457 -0.10389455 0.42520258
v 0.06602407 -0.06602409 0.46670768
v 0.06602407 0.0660242 0.46670768
v 0.10389455 0.103894666 0.42520258
v 0.14692912 6.283759E-08 0.42520258
v 0.09337218 5.8275585E-08 0.46670768
v 0.013547175 -0.013547134 2.669013
v -1.8309969E-08 0.019158684 2.669013
v 0.013547175 0.013547253 2.669013
v -1.9984874E-08 -0.019158565 2.669013
v -0.013547216 0.013547249 2.669013
v -0.013547208 -0.013547134 2.669013
v -0.019158643 6.054098E-08 2.669013
v -6.89381E-08 0.09337231 0.46670774
v -6.143127E-08 0.14692925 0.42520264
v 0.10389455 0.103894666 0.42520258
v 0.06602407 0.0660242 0.46670768
v -0.013547216 0.013547249 2.669013
v -6.89381E-08 0.09337231 0.46670774
v -1.8309969E-08 0.019158684 2.669013
v -0.066024214 0.06602419 0.46670768
v -0.019158643 6.054098E-08 2.669013
v -0.09337229 5.8909293E-08 0.46670768
v -0.013547208 -0.013547134 2.669013
v -0.0660242 -0.06602409 0.46670768
v -1.9984874E-08 -0.019158565 2.669013
v -7.130692E-08 -0.09337218 0.46670768
v 0.013547175 -0.013547134 2.669013
v 0.06602407 -0.06602409 0.46670768
v 0.019158605 5.9475063E-08 2.669013
v 0.09337218 5.8275585E-08 0.46670768
v 0.013547175 0.013547253 2.669013
v 0.06602407 0.0660242 0.46670768
v -1.8309969E-08 0.019158684 2.669013
v -6.89381E-08 0.09337231 0.46670774
v -5.942802E-08 0.06641846 0.42628118
v -6.143127E-08 0.14692925 0.42520264
v -0.103894696 0.10389466 0.42520258
v -0.046964966 0.04696495 0.42628115
v -0.14692925 6.1303645E-08 0.42520258
v -0.06641845 6.519474E-08 0.42628115
v -0.103894666 -0.10389455 0.42520258
v -0.04696495 -0.04696483 0.42628115
v -6.6382825E-08 -0.14692912 0.42520258
v -6.523451E-08 -0.066418335 0.42628115
v 0.10389457 -0.10389455 0.42520258
v 0.046964835 -0.04696483 0.42628115
v 0.14692912 6.283759E-08 0.42520258
v 0.066418335 6.149947E-08 0.42628115
v 0.10389455 0.103894666 0.42520258
v 0.046964835 0.04696496 0.42628115
v -6.143127E-08 0.14692925 0.42520264
v -5.942802E-08 0.06641846 0.42628118
v 0.026113227 -0.026112497 -0.8063982
v 0.036929443 1.6938628E-07 -0.8063982
v 0.026113227 0.02611284 -0.8063982
v 5.545657E-07 -0.03692872 -0.8063982
v 5.577941E-07 0.036929063 -0.8063982
v -0.026112113 0.026112832 -0.8063982
v -0.02611211 -0.026112497 -0.8063982
v -0.036928326 1.7144087E-07 -0.8063982
v -0.025991922 0.025992004 -0.1827991
v 5.328431E-08 0.086515605 -0.20806737
v 4.3223876E-11 0.036758214 -0.1827991
v -0.061175633 0.06117581 -0.20806737
v -0.03675812 9.2304866E-08 -0.1827991
v -0.08651541 1.4410055E-07 -0.20806737
v -0.025991919 -0.025991827 -0.1827991
v -0.061175626 -0.061175533 -0.20806737
v -3.1702736E-09 -0.036758035 -0.1827991
v 4.57209E-08 -0.08651534 -0.20806737
v 0.025991919 -0.025991827 -0.1827991
v 0.06117573 -0.061175533 -0.20806737
v 0.03675812 9.025978E-08 -0.1827991
v 0.08651552 1.3928715E-07 -0.20806737
v 0.025991919 0.025992008 -0.1827991
v 0.06117573 0.061175816 -0.20806737
v 4.3223876E-11 0.036758214 -0.1827991
v 5.328431E-08 0.086515605 -0.20806737
v -1.0168076E-06 0.14459999 1.2346195
v 0.072298974 0.12522729 1.2346195
v -1.0168076E-06 2.0125924E-08 1.273365
v -1.0168076E-06 0.25045455 1.1287651
v 0.12522621 0.21689998 1.1287651
v 0.12522621 0.0723 1.2346195
v -1.0168076E-06 2.0125924E-08 1.273365
v -0.12522824 0.21689998 1.1287651
v -0.072301 0.12522729 1.2346195
v -1.0168076E-06 2.0125924E-08 1.273365
v -1.0168076E-06 0.28919995 0.98416513
v -0.14460099 0.25045455 0.98416513
v 0.21689893 0.12522729 1.1287651
v 0.14459896 0.25045455 0.98416513
v 0.14459896 2.0125924E-08 1.2346195
v -1.0168076E-06 2.0125924E-08 1.273365
v -0.21690097 0.12522729 1.1287651
v -0.25045553 0.14459999 0.98416513
v -0.12522827 0.0723 1.2346195
v -1.0168076E-06 2.0125924E-08 1.273365
v -0.25045553 4.5982404E-08 1.1287651
v -0.14460099 2.0125924E-08 1.2346195
v -1.0168076E-06 2.0125924E-08 1.273365
v -0.28920096 2.0125924E-08 0.98416513
v -0.25045553 4.5982404E-08 0.8395649
v -0.21690097 0.12522729 0.8395649
v -0.14460099 2.0125924E-08 0.73371047
v -0.12522824 0.21689998 0.8395649
v -0.12522827 0.0723 0.73371047
v -1.0168076E-06 2.0125924E-08 0.69496506
v -1.0168076E-06 0.25045455 0.8395649
v -0.072301 0.12522729 0.73371047
v -1.0168076E-06 2.0125924E-08 0.69496506
v -1.0168076E-06 0.14459999 0.73371047
v -1.0168076E-06 2.0125924E-08 0.69496506
v 0.12522621 0.21689998 0.8395649
v 0.2504535 0.14459999 0.98416513
v 0.072298974 0.12522729 0.73371047
v -1.0168076E-06 2.0125924E-08 0.69496506
v 0.21689893 0.12522729 0.8395649
v 0.2504535 1.15070975E-08 1.1287651
v 0.12522621 0.0723 0.73371047
v -1.0168076E-06 2.0125924E-08 0.69496506
v 0.28919894 2.0125924E-08 0.98416513
v 0.12522621 -0.072299965 1.2346195
v -1.0168076E-06 2.0125924E-08 1.273365
v 0.2504535 1.15070975E-08 0.8395649
v 0.21689893 -0.12522724 1.1287651
v 0.14459896 2.0125924E-08 0.73371047
v -1.0168076E-06 2.0125924E-08 0.69496506
v 0.2504535 -0.14459994 0.98416513
v 0.072298974 -0.12522724 1.2346195
v -1.0168076E-06 2.0125924E-08 1.273365
v 0.21689893 -0.12522724 0.8395649
v 0.12522621 -0.21689993 1.1287651
v 0.12522621 -0.072299965 0.73371047
v -1.0168076E-06 2.0125924E-08 0.69496506
v 0.14459896 -0.25045452 0.98416513
v -1.0168076E-06 -0.14459994 1.2346195
v -1.0168076E-06 2.0125924E-08 1.273365
v 0.12522621 -0.21689993 0.8395649
v -1.0426642E-06 -0.25045452 1.1287651
v 0.072298974 -0.12522724 0.73371047
v -1.0168076E-06 2.0125924E-08 0.69496506
v -1.0168076E-06 -0.28919992 0.98416513
v -0.072301 -0.12522724 1.2346195
v -1.0168076E-06 2.0125924E-08 1.273365
v -1.0426642E-06 -0.25045452 0.8395649
v -0.12522827 -0.21689993 1.1287651
v -1.0168076E-06 -0.14459994 0.73371047
v -1.0168076E-06 2.0125924E-08 0.69496506
v -0.14460099 -0.25045452 0.98416513
v -0.12522827 -0.072299965 1.2346195
v -1.0168076E-06 2.0125924E-08 1.273365
v -0.12522827 -0.21689993 0.8395649
v -0.21690097 -0.12522721 1.1287651
v -0.14460099 2.0125924E-08 1.2346195
v -1.0168076E-06 2.0125924E-08 1.273365
v -0.25045553 4.5982404E-08 1.1287651
v -0.25045553 -0.14459994 0.98416513
v -0.28920096 2.0125924E-08 0.98416513
v -0.21690097 -0.12522721 0.8395649
v -0.25045553 4.5982404E-08 0.8395649
v -0.072301 -0.12522724 0.73371047
v -1.0168076E-06 2.0125924E-08 0.69496506
v -0.12522827 -0.072299965 0.73371047
v -1.0168076E-06 2.0125924E-08 0.69496506
v -0.14460099 2.0125924E-08 0.73371047
v -1.0168076E-06 2.0125924E-08 0.69496506
v -6.314133E-07 0.109057546 1.8745279
v 0.054528087 0.09444663 1.8745279
v -6.314133E-07 1.0872792E-07 1.9037498
v -6.314133E-07 0.18889315 1.7946924
v 0.09444586 0.16358626 1.7946924
v 0.09444586 0.054528825 1.8745279
v -6.314133E-07 1.0872792E-07 1.9037498
v -0.09444712 0.16358626 1.7946924
v -0.054529347 0.09444663 1.8745279
v -6.314133E-07 1.0872792E-07 1.9037498
v -6.314133E-07 0.21811497 1.6856349
v -0.10905806 0.18889315 1.6856349
v 0.16358551 0.09444663 1.7946924
v 0.1090568 0.18889315 1.6856349
v 0.1090568 1.0872792E-07 1.8745279
v -6.314133E-07 1.0872792E-07 1.9037498
v -0.16358678 0.09444663 1.7946924
v -0.18889366 0.109057546 1.6856349
v -0.09444715 0.054528825 1.8745279
v -6.314133E-07 1.0872792E-07 1.9037498
v -0.18889366 1.2822889E-07 1.7946924
v -0.10905806 1.0872792E-07 1.8745279
v -6.314133E-07 1.0872792E-07 1.9037498
v -0.2181155 1.0872792E-07 1.6856349
v -0.18889366 1.2822889E-07 1.5765773
v -0.16358678 0.09444663 1.5765773
v -0.10905806 1.0872792E-07 1.4967418
v -0.09444712 0.16358626 1.5765773
v -0.09444715 0.054528825 1.4967418
v -6.314133E-07 1.0872792E-07 1.46752
v -6.314133E-07 0.18889315 1.5765773
v -0.054529347 0.09444663 1.4967418
v -6.314133E-07 1.0872792E-07 1.46752
v -6.314133E-07 0.109057546 1.4967418
v -6.314133E-07 1.0872792E-07 1.46752
v 0.09444586 0.16358626 1.5765773
v 0.18889241 0.109057546 1.6856349
v 0.054528087 0.09444663 1.4967418
v -6.314133E-07 1.0872792E-07 1.46752
v 0.16358551 0.09444663 1.5765773
v 0.18889241 1.0222759E-07 1.7946924
v 0.09444586 0.054528825 1.4967418
v -6.314133E-07 1.0872792E-07 1.46752
v 0.21811424 1.0872792E-07 1.6856349
v 0.09444586 -0.05452861 1.8745279
v -6.314133E-07 1.0872792E-07 1.9037498
v 0.18889241 1.0222759E-07 1.5765773
v 0.16358551 -0.09444641 1.7946924
v 0.1090568 1.0872792E-07 1.4967418
v -6.314133E-07 1.0872792E-07 1.46752
v 0.18889241 -0.10905733 1.6856349
v 0.054528087 -0.09444641 1.8745279
v -6.314133E-07 1.0872792E-07 1.9037498
v 0.16358551 -0.09444641 1.5765773
v 0.09444586 -0.16358605 1.7946924
v 0.09444586 -0.05452861 1.4967418
v -6.314133E-07 1.0872792E-07 1.46752
v 0.1090568 -0.18889295 1.6856349
v -6.314133E-07 -0.10905733 1.8745279
v -6.314133E-07 1.0872792E-07 1.9037498
v 0.09444586 -0.16358605 1.5765773
v -6.509142E-07 -0.18889295 1.7946924
v 0.054528087 -0.09444641 1.4967418
v -6.314133E-07 1.0872792E-07 1.46752
v -6.314133E-07 -0.21811475 1.6856349
v -0.054529347 -0.09444641 1.8745279
v -6.314133E-07 1.0872792E-07 1.9037498
v -6.509142E-07 -0.18889295 1.5765773
v -0.09444715 -0.16358605 1.7946924
v -6.314133E-07 -0.10905733 1.4967418
v -6.314133E-07 1.0872792E-07 1.46752
v -0.10905806 -0.18889295 1.6856349
v -0.09444715 -0.05452861 1.8745279
v -6.314133E-07 1.0872792E-07 1.9037498
v -0.09444715 -0.16358605 1.5765773
v -0.16358678 -0.09444639 1.7946924
v -0.10905806 1.0872792E-07 1.8745279
v -6.314133E-07 1.0872792E-07 1.9037498
v -0.18889366 1.2822889E-07 1.7946924
v -0.18889366 -0.10905733 1.6856349
v -0.2181155 1.0872792E-07 1.6856349
v -0.16358678 -0.09444639 1.5765773
v -0.18889366 1.2822889E-07 1.5765773
v -0.054529347 -0.09444641 1.4967418
v -6.314133E-07 1.0872792E-07 1.46752
v -0.09444715 -0.05452861 1.4967418
v -6.314133E-07 1.0872792E-07 1.46752
v -0.10905806 1.0872792E-07 1.4967418
v -6.314133E-07 1.0872792E-07 1.46752
v -1.8008895E-06 0.07881493 2.366472
v 0.03940565 0.06825574 2.366472
v -1.8008895E-06 2.9861667E-08 2.3875904
v -1.8008895E-06 0.13651146 2.3087757
v 0.0682539 0.11822237 2.3087757
v 0.0682539 0.039407477 2.366472
v -1.8008895E-06 2.9861667E-08 2.3875904
v -0.06825749 0.11822237 2.3087757
v -0.03940925 0.06825574 2.366472
v -1.8008895E-06 2.9861667E-08 2.3875904
v -1.8008895E-06 0.15762982 2.2299607
v -0.0788167 0.13651146 2.2299607
v 0.11822054 0.06825574 2.3087757
v 0.0788131 0.13651146 2.2299607
v 0.0788131 2.9861667E-08 2.366472
v -1.8008895E-06 2.9861667E-08 2.3875904
v -0.118224144 0.06825574 2.3087757
v -0.13651322 0.07881493 2.2299607
v -0.06825752 0.039407477 2.366472
v -1.8008895E-06 2.9861667E-08 2.3875904
v -0.13651322 4.39548E-08 2.3087757
v -0.0788167 2.9861667E-08 2.366472
v -1.8008895E-06 2.9861667E-08 2.3875904
v -0.15763159 2.9861667E-08 2.2299607
v -0.13651322 4.39548E-08 2.1511455
v -0.118224144 0.06825574 2.1511455
v -0.0788167 2.9861667E-08 2.0934494
v -0.06825749 0.11822237 2.1511455
v -0.06825752 0.039407477 2.0934494
v -1.8008895E-06 2.9861667E-08 2.0723307
v -1.8008895E-06 0.13651146 2.1511455
v -0.03940925 0.06825574 2.0934494
v -1.8008895E-06 2.9861667E-08 2.0723307
v -1.8008895E-06 0.07881493 2.0934494
v -1.8008895E-06 2.9861667E-08 2.0723307
v 0.0682539 0.11822237 2.1511455
v 0.13650963 0.07881493 2.2299607
v 0.03940565 0.06825574 2.0934494
v -1.8008895E-06 2.9861667E-08 2.0723307
v 0.11822054 0.06825574 2.1511455
v 0.13650963 2.51639E-08 2.3087757
v 0.0682539 0.039407477 2.0934494
v -1.8008895E-06 2.9861667E-08 2.0723307
v 0.157628 2.9861667E-08 2.2299607
v 0.0682539 -0.039407417 2.366472
v -1.8008895E-06 2.9861667E-08 2.3875904
v 0.13650963 2.51639E-08 2.1511455
v 0.11822054 -0.068255685 2.3087757
v 0.0788131 2.9861667E-08 2.0934494
v -1.8008895E-06 2.9861667E-08 2.0723307
v 0.13650963 -0.07881487 2.2299607
v 0.03940565 -0.068255685 2.366472
v -1.8008895E-06 2.9861667E-08 2.3875904
v 0.11822054 -0.068255685 2.1511455
v 0.0682539 -0.11822231 2.3087757
v 0.0682539 -0.039407417 2.0934494
v -1.8008895E-06 2.9861667E-08 2.0723307
v 0.0788131 -0.1365114 2.2299607
v -1.8008895E-06 -0.07881487 2.366472
v -1.8008895E-06 2.9861667E-08 2.3875904
v 0.0682539 -0.11822231 2.1511455
v -1.8149827E-06 -0.1365114 2.3087757
v 0.03940565 -0.068255685 2.0934494
v -1.8008895E-06 2.9861667E-08 2.0723307
v -1.8008895E-06 -0.15762976 2.2299607
v -0.03940925 -0.068255685 2.366472
v -1.8008895E-06 2.9861667E-08 2.3875904
v -1.8149827E-06 -0.1365114 2.1511455
v -0.06825752 -0.11822231 2.3087757
v -1.8008895E-06 -0.07881487 2.0934494
v -1.8008895E-06 2.9861667E-08 2.0723307
v -0.0788167 -0.1365114 2.2299607
v -0.06825752 -0.039407417 2.366472
v -1.8008895E-06 2.9861667E-08 2.3875904
v -0.06825752 -0.11822231 2.1511455
v -0.118224144 -0.06825567 2.3087757
v -0.0788167 2.9861667E-08 2.366472
v -1.8008895E-06 2.9861667E-08 2.3875904
v -0.13651322 4.39548E-08 2.3087757
v -0.13651322 -0.07881487 2.2299607
v -0.15763159 2.9861667E-08 2.2299607
v -0.118224144 -0.06825567 2.1511455
v -0.13651322 4.39548E-08 2.1511455
v -0.03940925 -0.068255685 2.0934494
v -1.8008895E-06 2.9861667E-08 2.0723307
v -0.06825752 -0.039407417 2.0934494
v -1.8008895E-06 2.9861667E-08 2.0723307
v -0.0788167 2.9861667E-08 2.0934494
v -1.8008895E-06 2.9861667E-08 2.0723307
vt 0.87500006 0.6094596
vt 0.7499999 0.6094595
vt 0.625 0.6094595
vt 1 0.5
vt 1 0.5
vt 0.875 0.5
vt 0.875 0.5
vt 0.75 0.5
vt 0.75 0.5
vt 0.625 0.5
vt 0.625 0.49999997
vt 0.5 0.5
vt 0.5 0.5
vt 0.375 0.5
vt 0.375 0.5
vt 0.25 0.5
vt 0.25 0.5
vt 0.125 0.5
vt 0.125 0.5
vt 0 0.5
vt 0 0.5
vt 1 0.5
vt 0.87500006 0.6011035
vt 1 0.6011034
vt 0.875 0.5
vt 0.74999994 0.6011034
vt 0.75 0.5
vt 0.625 0.6011034
vt 0.625 0.5
vt 0.49999997 0.6011034
vt 0.5 0.5
vt 0.37499997 0.6011034
vt 0.375 0.5
vt 0.25 0.6011034
vt 0.25 0.5
vt 0.125 0.6011034
vt 0.125 0.5
vt 0 0.6011034
vt 0 0.5
vt 0.125 0.6094595
vt 0 0.6011034
vt 0 0.6094595
vt 0.125 0.6011034
vt 0.25 0.6094595
vt 0.25 0.6011034
vt 0.37499994 0.6094595
vt 0.37499997 0.6011034
vt 0.49999997 0.6094595
vt 0.37499997 0.6011034
vt 0.375 0.6094595
vt 0.49999997 0.6011034
vt 0.625 0.6094595
vt 0.625 0.6011034
vt 0.7499999 0.6094595
vt 0.74999994 0.6011034
vt 0.62499994 0.6011034
vt 0.625 0.6094595
vt 0.87500006 0.6094596
vt 0.87500006 0.6011035
vt 0.74999994 0.6011034
vt 0.74999994 0.6094595
vt 0.625 0.6094595
vt 1 0.6094595
vt 0.87500006 0.6094596
vt 0.49999997 0.6094595
vt 0.125 0.6094595
vt 0.37499994 0.6094595
vt 0.25 0.6094595
vt 1 0.6094595
vt 1 0.6011034
vt 0.87500006 0.6011035
vt 0.875 0.6094596
vt 0.125 0.6094595
vt 0 0.6094595
vt 0 0.6094595
vt 0.125 0.6094595
vt 0.25 0.6094595
vt 0.25 0.6094595
vt 0.375 0.6094595
vt 0.375 0.6094595
vt 0.49999997 0.6094595
vt 0.49999997 0.6094595
vt 0.625 0.6094595
vt 0.625 0.6094595
vt 0.74999994 0.6094595
vt 0.74999994 0.6094595
vt 0.87500006 0.6094596
vt 0.87500006 0.6094596
vt 1 0.6094595
vt 1 0.6094595
vt 0 0.6011034
vt 0 0.6011034
vt 0.125 0.6011034
vt 0.125 0.6011034
vt 0.25 0.6011034
vt 0.25 0.6011034
vt 0.37499997 0.6011034
vt 0.37499997 0.6011034
vt 0.49999997 0.6011034
vt 0.49999997 0.6011034
vt 0.62499994 0.6011034
vt 0.62499994 0.6011034
vt 0.74999994 0.6011034
vt 0.74999994 0.6011034
vt 0.87500006 0.6011035
vt 0.87500006 0.6011035
vt 1 0.6011034
vt 1 0.6011034
vt 0.9197056 0.080294386
vt 0.99 0.24999999
vt 0.9197056 0.41970563
vt 0.75 0.010000005
vt 0.75 0.49
vt 0.5802944 0.4197056
vt 0.5802944 0.08029437
vt 0.51 0.25
vt 0.125 0.5
vt 0 0.5
vt 0 0.5
vt 0.125 0.5
vt 0.25 0.5
vt 0.25 0.5
vt 0.375 0.5
vt 0.375 0.5
vt 0.5 0.5
vt 0.5 0.5
vt 0.625 0.5
vt 0.625 0.49999997
vt 0.75 0.5
vt 0.75 0.5
vt 0.875 0.5
vt 0.875 0.5
vt 1 0.5
vt 1 0.5
vt 0.75 0.8333333
vt 0.6666667 0.8333333
vt 0.7083333 1
vt 0.75 0.6666666
vt 0.6666667 0.6666666
vt 0.5833333 0.8333333
vt 0.625 1
vt 0.83333325 0.66666675
vt 0.8333334 0.8333333
vt 0.7916666 1
vt 0.75 0.5
vt 0.8333334 0.5
vt 0.5833333 0.6666666
vt 0.6666667 0.5
vt 0.5 0.8333333
vt 0.5416667 1
vt 0.9166666 0.66666675
vt 0.9166666 0.5
vt 0.9166666 0.8333333
vt 0.875 1
vt 1 0.66666675
vt 1 0.8333333
vt 0.9583333 1
vt 1 0.5
vt 1 0.3333333
vt 0.9166666 0.3333333
vt 1 0.16666669
vt 0.83333325 0.3333333
vt 0.9166666 0.16666669
vt 0.9583333 5.9604645E-08
vt 0.75 0.3333333
vt 0.8333334 0.16666669
vt 0.875 5.9604645E-08
vt 0.75 0.16666669
vt 0.7916666 5.9604645E-08
vt 0.6666667 0.3333333
vt 0.5833333 0.5
vt 0.6666667 0.16666669
vt 0.7083333 5.9604645E-08
vt 0.5833333 0.3333333
vt 0.5 0.66666675
vt 0.5833333 0.16666669
vt 0.625 5.9604645E-08
vt 0.5 0.5
vt 0.41666666 0.8333333
vt 0.45833334 1
vt 0.5 0.3333333
vt 0.41666666 0.66666675
vt 0.5 0.16666669
vt 0.5416667 5.9604645E-08
vt 0.41666666 0.5
vt 0.3333333 0.8333333
vt 0.375 1
vt 0.41666666 0.3333333
vt 0.3333333 0.66666675
vt 0.41666666 0.16666669
vt 0.45833334 5.9604645E-08
vt 0.3333333 0.5
vt 0.25 0.8333333
vt 0.2916667 1
vt 0.3333333 0.3333333
vt 0.25 0.66666675
vt 0.3333333 0.16666669
vt 0.375 5.9604645E-08
vt 0.25 0.5
vt 0.16666666 0.8333333
vt 0.20833334 1
vt 0.25 0.3333333
vt 0.16666666 0.66666675
vt 0.25 0.16666669
vt 0.2916667 5.9604645E-08
vt 0.16666666 0.5
vt 0.08333334 0.8333333
vt 0.125 1
vt 0.16666666 0.3333333
vt 0.08333331 0.66666675
vt 0 0.8333333
vt 0.041666687 1
vt 0 0.66666675
vt 0.08333334 0.5
vt 0 0.5
vt 0.08333331 0.3333333
vt 0 0.3333333
vt 0.16666666 0.16666669
vt 0.20833334 5.9604645E-08
vt 0.08333334 0.16666669
vt 0.125 5.9604645E-08
vt 0 0.16666669
vt 0.041666687 5.9604645E-08
vt 0.75 0.8333333
vt 0.6666667 0.8333333
vt 0.7083333 1
vt 0.75 0.6666666
vt 0.6666667 0.6666666
vt 0.5833333 0.8333333
vt 0.625 1
vt 0.83333325 0.66666675
vt 0.8333334 0.8333333
vt 0.7916666 1
vt 0.75 0.5
vt 0.8333334 0.5
vt 0.5833333 0.6666666
vt 0.6666667 0.5
vt 0.5 0.8333333
vt 0.5416667 1
vt 0.9166666 0.66666675
vt 0.9166666 0.5
vt 0.9166666 0.8333333
vt 0.875 1
vt 1 0.66666675
vt 1 0.8333333
vt 0.9583333 1
vt 1 0.5
vt 1 0.3333333
vt 0.9166666 0.3333333
vt 1 0.16666669
vt 0.83333325 0.3333333
vt 0.9166666 0.16666669
vt 0.9583333 5.9604645E-08
vt 0.75 0.3333333
vt 0.8333334 0.16666669
vt 0.875 5.9604645E-08
vt 0.75 0.16666669
vt 0.7916666 5.9604645E-08
vt 0.6666667 0.3333333
vt 0.5833333 0.5
vt 0.6666667 0.16666669
vt 0.7083333 5.9604645E-08
vt 0.5833333 0.3333333
vt 0.5 0.66666675
vt 0.5833333 0.16666669
vt 0.625 5.9604645E-08
vt 0.5 0.5
vt 0.41666666 0.8333333
vt 0.45833334 1
vt 0.5 0.3333333
vt 0.41666666 0.66666675
vt 0.5 0.16666669
vt 0.5416667 5.9604645E-08
vt 0.41666666 0.5
vt 0.3333333 0.8333333
vt 0.375 1
vt 0.41666666 0.3333333
vt 0.3333333 0.66666675
vt 0.41666666 0.16666669
vt 0.45833334 5.9604645E-08
vt 0.3333333 0.5
vt 0.25 0.8333333
vt 0.2916667 1
vt 0.3333333 0.3333333
vt 0.25 0.66666675
vt 0.3333333 0.16666669
vt 0.375 5.9604645E-08
vt 0.25 0.5
vt 0.16666666 0.8333333
vt 0.20833334 1
vt 0.25 0.3333333
vt 0.16666666 0.66666675
vt 0.25 0.16666669
vt 0.2916667 5.9604645E-08
vt 0.16666666 0.5
vt 0.08333334 0.8333333
vt 0.125 1
vt 0.16666666 0.3333333
vt 0.08333331 0.66666675
vt 0 0.8333333
vt 0.041666687 1
vt 0 0.66666675
vt 0.08333334 0.5
vt 0 0.5
vt 0.08333331 0.3333333
vt 0 0.3333333
vt 0.16666666 0.16666669
vt 0.20833334 5.9604645E-08
vt 0.08333334 0.16666669
vt 0.125 5.9604645E-08
vt 0 0.16666669
vt 0.041666687 5.9604645E-08
vt 0.75 0.8333333
vt 0.6666667 0.8333333
vt 0.7083333 1
vt 0.75 0.6666666
vt 0.6666667 0.6666666
vt 0.5833333 0.8333333
vt 0.625 1
vt 0.83333325 0.66666675
vt 0.8333334 0.8333333
vt 0.7916666 1
vt 0.75 0.5
vt 0.8333334 0.5
vt 0.5833333 0.6666666
vt 0.6666667 0.5
vt 0.5 0.8333333
vt 0.5416667 1
vt 0.9166666 0.66666675
vt 0.9166666 0.5
vt 0.9166666 0.8333333
vt 0.875 1
vt 1 0.66666675
vt 1 0.8333333
vt 0.9583333 1
vt 1 0.5
vt 1 0.3333333
vt 0.9166666 0.3333333
vt 1 0.16666669
vt 0.83333325 0.3333333
vt 0.9166666 0.16666669
vt 0.9583333 5.9604645E-08
vt 0.75 0.3333333
vt 0.8333334 0.16666669
vt 0.875 5.9604645E-08
vt 0.75 0.16666669
vt 0.7916666 5.9604645E-08
vt 0.6666667 0.3333333
vt 0.5833333 0.5
vt 0.6666667 0.16666669
vt 0.7083333 5.9604645E-08
vt 0.5833333 0.3333333
vt 0.5 0.66666675
vt 0.5833333 0.16666669
vt 0.625 5.9604645E-08
vt 0.5 0.5
vt 0.41666666 0.8333333
vt 0.45833334 1
vt 0.5 0.3333333
vt 0.41666666 0.66666675
vt 0.5 0.16666669
vt 0.5416667 5.9604645E-08
vt 0.41666666 0.5
vt 0.3333333 0.8333333
vt 0.375 1
vt 0.41666666 0.3333333
vt 0.3333333 0.66666675
vt 0.41666666 0.16666669
vt 0.45833334 5.9604645E-08
vt 0.3333333 0.5
vt 0.25 0.8333333
vt 0.2916667 1
vt 0.3333333 0.3333333
vt 0.25 0.66666675
vt 0.3333333 0.16666669
vt 0.375 5.9604645E-08
vt 0.25 0.5
vt 0.16666666 0.8333333
vt 0.20833334 1
vt 0.25 0.3333333
vt 0.16666666 0.66666675
vt 0.25 0.16666669
vt 0.2916667 5.9604645E-08
vt 0.16666666 0.5
vt 0.08333334 0.8333333
vt 0.125 1
vt 0.16666666 0.3333333
vt 0.08333331 0.66666675
vt 0 0.8333333
vt 0.041666687 1
vt 0 0.66666675
vt 0.08333334 0.5
vt 0 0.5
vt 0.08333331 0.3333333
vt 0 0.3333333
vt 0.16666666 0.16666669
vt 0.20833334 5.9604645E-08
vt 0.08333334 0.16666669
vt 0.125 5.9604645E-08
vt 0 0.16666669
vt 0.041666687 5.9604645E-08
vn -0 0 1
vn -0 0 1
vn -0 0 1
vn -0 0.9965835 -0.08259166
vn -0 0.9965835 -0.08259165
vn 0.70469105 0.7046908 -0.08259108
vn 0.7046909 0.70469105 -0.08259108
vn 0.9965835 0 -0.08259087
vn 0.9965835 0 -0.08259088
vn 0.70469105 -0.7046908 -0.08259115
vn 0.7046909 -0.70469105 -0.08259115
vn -0 -0.9965835 -0.082591765
vn -0 -0.9965835 -0.082591765
vn -0.7046908 -0.70469093 -0.08259232
vn -0.70469105 -0.70469064 -0.08259232
vn -0.9965834 0 -0.08259255
vn -0.9965834 0 -0.082592554
vn -0.7046909 0.7046909 -0.08259226
vn -0.7046911 0.7046907 -0.082592264
vn -0 0.9965835 -0.08259165
vn -0 0.9965835 -0.08259166
vn -0 0.9988164 -0.048639145
vn 0.7062698 0.70626986 -0.04863908
vn -0 0.9988164 -0.048639137
vn 0.7062699 0.7062698 -0.048639085
vn 0.9988165 0 -0.04863908
vn 0.9988165 0 -0.04863909
vn 0.70626986 -0.7062698 -0.048639134
vn 0.70627 -0.7062698 -0.04863914
vn -0 -0.9988164 -0.04863922
vn -0 -0.9988164 -0.048639227
vn -0.70627 -0.70626974 -0.04863928
vn -0.7062699 -0.7062698 -0.04863927
vn -0.9988164 0 -0.048639268
vn -0.9988164 0 -0.048639275
vn -0.70627 0.7062698 -0.048639223
vn -0.70627 0.70626974 -0.048639223
vn -0 0.9988164 -0.048639137
vn -0 0.9988164 -0.048639145
vn -0.4331439 0.43314347 0.7904259
vn -0 0.61255735 0.7904261
vn -0 0.6125574 0.7904261
vn -0.43314394 0.43314338 0.7904259
vn -0.61255765 0 0.79042596
vn -0.61255765 0 0.79042596
vn -0.43314365 -0.43314365 0.790426
vn -0.43314365 -0.43314356 0.790426
vn -0 -0.6125574 0.7904261
vn -0.43314365 -0.43314356 0.790426
vn -0.43314365 -0.43314365 0.790426
vn -0 -0.6125574 0.790426
vn 0.43314373 -0.43314356 0.79042596
vn 0.43314388 -0.4331434 0.79042596
vn 0.61255765 0 0.7904259
vn 0.61255765 0 0.79042596
vn 0.43314388 -0.4331434 0.79042596
vn 0.43314373 -0.43314356 0.79042596
vn 0.43314368 0.43314356 0.790426
vn 0.43314373 0.43314353 0.79042596
vn 0.61255765 0 0.79042596
vn 0.61255765 0 0.7904259
vn -0 0 1
vn -0 0 1
vn -0 0 1
vn -0 0 1
vn -0 0 1
vn -0 0 1
vn -0 0 1
vn -0 0.6125574 0.7904261
vn -0 0.61255735 0.7904261
vn 0.43314373 0.43314353 0.79042596
vn 0.43314368 0.43314356 0.790426
vn -0.7067058 0.7067055 0.03367905
vn -0 0.9994326 0.033679035
vn -0 0.9994326 0.03367903
vn -0.70670587 0.7067054 0.033679046
vn -0.9994326 0 0.033679042
vn -0.9994326 0 0.03367905
vn -0.7067057 -0.7067056 0.03367904
vn -0.7067057 -0.7067056 0.033679042
vn -0 -0.9994326 0.033679027
vn -0 -0.9994326 0.03367903
vn 0.7067055 -0.7067057 0.033679016
vn 0.7067055 -0.7067057 0.033679016
vn 0.9994326 0 0.033679012
vn 0.9994326 0 0.033679012
vn 0.7067055 0.7067057 0.033679016
vn 0.70670563 0.7067056 0.033679012
vn -0 0.9994326 0.03367903
vn -0 0.9994326 0.033679035
vn -0 -0.013395066 -0.99991035
vn -0 -0.013395067 -0.99991035
vn 0.009471854 -0.0094718225 -0.99991035
vn 0.009471854 -0.0094718225 -0.99991035
vn 0.013395138 0 -0.99991035
vn 0.013395138 0 -0.99991035
vn 0.009472007 0.009472022 -0.99991024
vn 0.009472006 0.009472021 -0.99991024
vn -0 0.01339546 -0.99991024
vn -0 0.013395461 -0.99991024
vn -0.009472161 0.009472021 -0.99991024
vn -0.00947216 0.00947202 -0.99991024
vn -0.013395446 0 -0.99991024
vn -0.0133954445 0 -0.99991024
vn -0.009472315 -0.009471824 -0.99991024
vn -0.009472314 -0.009471823 -0.99991024
vn -0 -0.013395067 -0.99991035
vn -0 -0.013395066 -0.99991035
vn -0 0 -1
vn -0 0 -1
vn -0 0 -1
vn -0 0 -1
vn -0 0 -1
vn -0 0 -1
vn -0 0 -1
vn -0 0 -1
vn -0.32017112 0.32017067 0.8916172
vn -0 0.45278955 0.8916175
vn -0 0.4527896 0.8916175
vn -0.32017094 0.3201709 0.8916172
vn -0.45279035 0 0.89161706
vn -0.45279035 0 0.89161706
vn -0.3201712 -0.32017124 0.891617
vn -0.32017115 -0.32017124 0.891617
vn -0 -0.45279035 0.89161706
vn -0 -0.45279035 0.89161706
vn 0.3201706 -0.32017097 0.89161724
vn 0.32017088 -0.32017076 0.89161724
vn 0.4527894 0 0.89161754
vn 0.4527894 0 0.89161754
vn 0.3201703 0.3201704 0.89161754
vn 0.32017034 0.32017043 0.89161754
vn -0 0.4527896 0.8916175
vn -0 0.45278955 0.8916175
vn -0 0.5309006 0.8474341
vn 0.2654507 0.45977348 0.8474339
vn -0 0 1
vn -0 0.87598073 0.482346
vn 0.43799025 0.75862163 0.48234612
vn 0.4597741 0.26545024 0.8474337
vn -0 0 1
vn -0.43799016 0.7586217 0.48234606
vn -0.26545063 0.4597735 0.84743387
vn -0 0 1
vn -0 1 0
vn -0.4999999 0.86602545 0
vn 0.75862145 0.4379905 0.48234603
vn 0.49999997 0.86602545 0
vn 0.53090084 0 0.8474339
vn -0 0 1
vn -0.75862145 0.4379905 0.48234603
vn -0.8660253 0.50000006 0
vn -0.4597741 0.26545027 0.8474337
vn -0 0 1
vn -0.87598085 0 0.48234582
vn -0.5309009 0 0.84743387
vn -0 0 1
vn -1 0 0
vn -0.8759809 0 -0.48234567
vn -0.75862175 0.43799055 -0.48234555
vn -0.5309004 0 -0.8474342
vn -0.4379904 0.7586218 -0.48234567
vn -0.45977318 0.2654503 -0.8474342
vn -0 0 -1
vn -0 0.8759809 -0.48234564
vn -0.26544994 0.45977336 -0.8474343
vn -0 0 -1
vn -0 0.53090054 -0.8474342
vn -0 0 -1
vn 0.43799046 0.75862175 -0.48234567
vn 0.8660253 0.50000006 0
vn 0.26544994 0.4597734 -0.8474342
vn -0 0 -1
vn 0.75862175 0.43799046 -0.48234564
vn 0.87598073 0 0.48234594
vn 0.45977318 0.26545027 -0.8474343
vn -0 0 -1
vn 1 0 0
vn 0.45977345 -0.26545036 0.84743404
vn -0 0 1
vn 0.8759809 0 -0.48234573
vn 0.75862163 -0.43799034 0.48234603
vn 0.53090054 0 -0.8474341
vn -0 0 -1
vn 0.86602545 -0.5 0
vn 0.2654505 -0.45977348 0.8474339
vn -0 0 1
vn 0.7586217 -0.43799052 -0.48234573
vn 0.43799058 -0.7586216 0.48234603
vn 0.45977348 -0.26545024 -0.84743404
vn -0 0 -1
vn 0.49999997 -0.86602545 0
vn -0 -0.5309006 0.8474341
vn -0 0 1
vn 0.43799046 -0.75862175 -0.48234567
vn -0 -0.87598073 0.48234594
vn 0.2654507 -0.45977333 -0.84743404
vn -0 0 -1
vn -0 -1 0
vn -0.26545045 -0.4597734 0.84743404
vn -0 0 1
vn -0 -0.8759809 -0.48234564
vn -0.43799052 -0.75862145 0.48234603
vn -0 -0.53090054 -0.8474342
vn -0 0 -1
vn -0.5 -0.86602545 0
vn -0.45977357 -0.26545027 0.8474339
vn -0 0 1
vn -0.43799043 -0.75862175 -0.4823458
vn -0.75862175 -0.43799034 0.48234588
vn -0.5309009 0 0.84743387
vn -0 0 1
vn -0.87598085 0 0.48234582
vn -0.86602545 -0.5 0
vn -1 0 0
vn -0.7586217 -0.43799052 -0.48234573
vn -0.8759809 0 -0.48234567
vn -0.26545048 -0.45977333 -0.8474341
vn -0 0 -1
vn -0.45977342 -0.26545024 -0.8474341
vn -0 0 -1
vn -0.5309004 0 -0.8474342
vn -0 0 -1
vn -0 0.5309007 0.8474339
vn 0.26545012 0.45977354 0.8474341
vn -0 0 1
vn -0 0.8759809 0.48234567
vn 0.43799025 0.75862175 0.48234582
vn 0.4597739 0.2654503 0.84743387
vn -0 0 1
vn -0.43798995 0.7586219 0.48234585
vn -0.26544935 0.45977375 0.8474342
vn -0 0 1
vn -0 1 0
vn -0.49999985 0.8660255 0
vn 0.75862175 0.43799046 0.48234567
vn 0.49999997 0.86602545 0
vn 0.530901 0 0.84743387
vn -0 0 1
vn -0.75862163 0.43799064 0.4823458
vn -0.86602545 0.5 0
vn -0.45977345 0.26545054 0.84743404
vn -0 0 1
vn -0.8759809 0 0.48234567
vn -0.5309012 0 0.8474337
vn -0 0 1
vn -1 0 0
vn -0.87598085 0 -0.48234585
vn -0.75862163 0.43799055 -0.48234585
vn -0.53090024 0 -0.8474343
vn -0.43799046 0.75862175 -0.4823458
vn -0.45977342 0.26545015 -0.8474341
vn -0 0 -1
vn -0 0.8759809 -0.4823458
vn -0.26545033 0.45977324 -0.8474342
vn -0 0 -1
vn -0 0.5309004 -0.8474343
vn -0 0 -1
vn 0.43799064 0.75862163 -0.48234576
vn 0.86602545 0.5 0
vn 0.26545066 0.4597732 -0.8474341
vn -0 0 -1
vn 0.75862163 0.43799058 -0.48234585
vn 0.87598085 0 0.48234582
vn 0.45977348 0.26545015 -0.84743404
vn -0 0 -1
vn 1 0 0
vn 0.4597743 -0.2654502 0.8474336
vn -0 0 1
vn 0.8759809 0 -0.4823458
vn 0.75862163 -0.43799055 0.48234588
vn 0.53090054 0 -0.8474342
vn -0 0 -1
vn 0.8660253 -0.50000006 0
vn 0.2654513 -0.45977342 0.8474338
vn -0 0 1
vn 0.7586217 -0.43799052 -0.48234573
vn 0.43799073 -0.75862163 0.48234564
vn 0.45977354 -0.26545012 -0.8474341
vn -0 0 -1
vn 0.49999985 -0.8660255 0
vn -0 -0.53090066 0.84743404
vn -0 0 1
vn 0.43799028 -0.75862175 -0.48234582
vn -0 -0.8759809 0.48234567
vn 0.26545036 -0.45977324 -0.8474342
vn -0 0 -1
vn -0 -1 0
vn -0.26545128 -0.45977342 0.8474338
vn -0 0 1
vn -0 -0.8759809 -0.48234567
vn -0.43799046 -0.75862175 0.4823458
vn -0 -0.5309004 -0.8474343
vn -0 0 -1
vn -0.4999998 -0.8660255 0
vn -0.4597749 -0.26545012 0.8474333
vn -0 0 1
vn -0.43799058 -0.75862163 -0.4823457
vn -0.7586217 -0.43799043 0.48234582
vn -0.5309012 0 0.8474337
vn -0 0 1
vn -0.8759809 0 0.48234567
vn -0.86602545 -0.5 0
vn -1 0 0
vn -0.75862175 -0.43799034 -0.48234582
vn -0.87598085 0 -0.48234585
vn -0.26545066 -0.45977306 -0.8474341
vn -0 0 -1
vn -0.45977354 -0.26545012 -0.8474341
vn -0 0 -1
vn -0.53090024 0 -0.8474343
vn -0 0 -1
vn -0 0.53090006 0.84743446
vn 0.2654497 0.459773 0.84743446
vn -0 0 1
vn -0 0.87598073 0.48234615
vn 0.4379906 0.7586213 0.4823463
vn 0.45977318 0.2654501 0.8474343
vn -0 0 1
vn -0.43799087 0.7586213 0.48234612
vn -0.26544917 0.4597731 0.8474345
vn -0 0 1
vn -0 1 0
vn -0.5000002 0.8660253 0
vn 0.75862145 0.43799016 0.4823464
vn 0.5000002 0.8660253 0
vn 0.53090084 0 0.84743387
vn -0 0 1
vn -0.7586218 0.4379901 0.482346
vn -0.8660256 0.49999976 0
vn -0.45977318 0.26545012 0.8474343
vn -0 0 1
vn -0.8759809 0 0.4823458
vn -0.5309012 0 0.8474337
vn -0 0 1
vn -1 0 0
vn -0.8759807 0 -0.48234627
vn -0.7586212 0.43799025 -0.4823467
vn -0.5309003 0 -0.8474343
vn -0.43799016 0.7586213 -0.48234668
vn -0.4597726 0.26545027 -0.8474345
vn -0 0 -1
vn -0 0.8759805 -0.48234665
vn -0.2654502 0.459773 -0.8474343
vn -0 0 -1
vn -0 0.5309001 -0.8474344
vn -0 0 -1
vn 0.4379896 0.7586214 -0.48234698
vn 0.8660256 0.49999976 0
vn 0.2654496 0.45977312 -0.84743446
vn -0 0 -1
vn 0.75862116 0.43799043 -0.4823468
vn 0.87598073 0 0.48234606
vn 0.4597727 0.26545027 -0.84743446
vn -0 0 -1
vn 1 0 0
vn 0.45977557 -0.26544964 0.8474331
vn -0 0 1
vn 0.8759805 0 -0.4823467
vn 0.7586221 -0.43799004 0.4823457
vn 0.53090006 0 -0.8474344
vn -0 0 -1
vn 0.86602545 -0.49999997 0
vn 0.26545295 -0.4597727 0.8474336
vn -0 0 1
vn 0.75862134 -0.43799013 -0.48234674
vn 0.4379906 -0.7586214 0.4823461
vn 0.45977283 -0.26545006 -0.84743446
vn -0 0 -1
vn 0.49999997 -0.86602545 0
vn -0 -0.53090024 0.8474343
vn -0 0 1
vn 0.4379905 -0.7586212 -0.48234662
vn -0 -0.8759807 0.48234624
vn 0.2654506 -0.45977303 -0.8474342
vn -0 0 -1
vn -0 -1 0
vn -0.2654511 -0.45977294 0.84743404
vn -0 0 1
vn -0 -0.8759805 -0.4823467
vn -0.43799025 -0.75862145 0.4823463
vn -0 -0.5309002 -0.8474343
vn -0 0 -1
vn -0.50000006 -0.8660253 0
vn -0.45977354 -0.26545003 0.8474341
vn -0 0 1
vn -0.4379899 -0.7586214 -0.4823468
vn -0.75862163 -0.43799007 0.4823462
vn -0.5309012 0 0.8474337
vn -0 0 1
vn -0.8759809 0 0.4823458
vn -0.8660256 -0.4999997 0
vn -1 0 0
vn -0.75862163 -0.43798995 -0.4823464
vn -0.8759807 0 -0.48234627
vn -0.26544988 -0.45977312 -0.8474344
vn -0 0 -1
vn -0.45977333 -0.26545 -0.8474342
vn -0 0 -1
vn -0.5309003 0 -0.8474343
vn -0 0 -1
g Bloodwand_0
f 3/3/3 2/2/2 1/1/1
f 6/6/6 5/5/5 4/4/4
f 7/7/7 6/6/6 4/4/4
f 8/8/8 6/6/6 7/7/7
f 9/9/9 8/8/8 7/7/7
f 10/10/10 8/8/8 9/9/9
f 11/11/11 10/10/10 9/9/9
f 12/12/12 10/10/10 11/11/11
f 13/13/13 12/12/12 11/11/11
f 14/14/14 12/12/12 13/13/13
f 15/15/15 14/14/14 13/13/13
f 16/16/16 14/14/14 15/15/15
f 17/17/17 16/16/16 15/15/15
f 18/18/18 16/16/16 17/17/17
f 19/19/19 18/18/18 17/17/17
f 20/20/20 18/18/18 19/19/19
f 21/21/21 20/20/20 19/19/19
f 24/24/24 23/23/23 22/22/22
f 23/23/23 25/25/25 22/22/22
f 23/23/23 26/26/26 25/25/25
f 26/26/26 27/27/27 25/25/25
f 26/26/26 28/28/28 27/27/27
f 28/28/28 29/29/29 27/27/27
f 28/28/28 30/30/30 29/29/29
f 30/30/30 31/31/31 29/29/29
f 30/30/30 32/32/32 31/31/31
f 32/32/32 33/33/33 31/31/31
f 32/32/32 34/34/34 33/33/33
f 34/34/34 35/35/35 33/33/33
f 34/34/34 36/36/36 35/35/35
f 36/36/36 37/37/37 35/35/35
f 36/36/36 38/38/38 37/37/37
f 38/38/38 39/39/39 37/37/37
f 42/42/42 41/41/41 40/40/40
f 41/41/41 43/43/43 40/40/40
f 40/40/40 43/43/43 44/44/44
f 43/43/43 45/45/45 44/44/44
f 44/44/44 45/45/45 46/46/46
f 45/45/45 47/47/47 46/46/46
f 50/50/50 49/49/49 48/48/48
f 49/49/49 51/51/51 48/48/48
f 48/48/48 51/51/51 52/52/52
f 51/51/51 53/53/53 52/52/52
f 56/56/56 55/55/55 54/54/54
f 57/57/57 56/56/56 54/54/54
f 60/60/60 59/59/59 58/58/58
f 61/61/61 60/60/60 58/58/58
f 64/64/64 63/63/63 62/62/62
f 63/63/63 65/65/65 62/62/62
f 63/63/63 66/66/66 65/65/65
f 66/66/66 67/67/67 65/65/65
f 66/66/66 68/68/68 67/67/67
f 71/71/71 70/70/70 69/69/69
f 72/72/72 71/71/71 69/69/69
f 75/75/75 74/74/74 73/73/73
f 74/74/74 76/76/76 73/73/73
f 73/73/73 76/76/76 77/77/77
f 76/76/76 78/78/78 77/77/77
f 77/77/77 78/78/78 79/79/79
f 78/78/78 80/80/80 79/79/79
f 79/79/79 80/80/80 81/81/81
f 80/80/80 82/82/82 81/81/81
f 81/81/81 82/82/82 83/83/83
f 82/82/82 84/84/84 83/83/83
f 83/83/83 84/84/84 85/85/85
f 84/84/84 86/86/86 85/85/85
f 85/85/85 86/86/86 87/87/87
f 86/86/86 88/88/88 87/87/87
f 87/87/87 88/88/88 89/89/89
f 88/88/88 90/90/90 89/89/89
f 93/93/93 92/92/92 91/91/91
f 94/94/94 93/93/93 91/91/91
f 95/95/95 93/93/93 94/94/94
f 96/96/96 95/95/95 94/94/94
f 97/97/97 95/95/95 96/96/96
f 98/98/98 97/97/97 96/96/96
f 99/99/99 97/97/97 98/98/98
f 100/100/100 99/99/99 98/98/98
f 101/101/101 99/99/99 100/100/100
f 102/102/102 101/101/101 100/100/100
f 103/103/103 101/101/101 102/102/102
f 104/104/104 103/103/103 102/102/102
f 105/105/105 103/103/103 104/104/104
f 106/106/106 105/105/105 104/104/104
f 107/107/107 105/105/105 106/106/106
f 108/108/108 107/107/107 106/106/106
f 111/111/111 110/110/110 109/109/109
f 109/109/109 112/112/112 111/111/111
f 112/112/112 113/113/113 111/111/111
f 112/112/112 114/114/114 113/113/113
f 112/112/112 115/115/115 114/114/114
f 115/115/115 116/116/116 114/114/114
f 119/119/119 118/118/118 117/117/117
f 118/118/118 120/120/120 117/117/117
f 117/117/117 120/120/120 121/121/121
f 120/120/120 122/122/122 121/121/121
f 121/121/121 122/122/122 123/123/123
f 122/122/122 124/124/124 123/123/123
f 123/123/123 124/124/124 125/125/125
f 124/124/124 126/126/126 125/125/125
f 125/125/125 126/126/126 127/127/127
f 126/126/126 128/128/128 127/127/127
f 127/127/127 128/128/128 129/129/129
f 128/128/128 130/130/130 129/129/129
f 129/129/129 130/130/130 131/131/131
f 130/130/130 132/132/132 131/131/131
f 131/131/131 132/132/132 133/133/133
f 132/132/132 134/134/134 133/133/133
f 137/137/137 136/136/136 135/135/135
f 135/135/135 136/136/136 138/138/138
f 136/136/136 139/139/139 138/138/138
f 136/136/136 140/140/140 139/139/139
f 141/141/141 140/140/140 136/136/136
f 135/135/135 138/138/138 142/142/142
f 143/143/143 135/135/135 142/142/142
f 144/144/144 135/135/135 143/143/143
f 138/138/138 139/139/139 145/145/145
f 142/142/142 138/138/138 146/146/146
f 138/138/138 145/145/145 146/146/146
f 140/140/140 147/147/147 139/139/139
f 139/139/139 148/148/148 145/145/145
f 139/139/139 147/147/147 148/148/148
f 140/140/140 149/149/149 147/147/147
f 150/150/150 149/149/149 140/140/140
f 143/143/143 142/142/142 151/151/151
f 142/142/142 146/146/146 152/152/152
f 151/151/151 142/142/142 152/152/152
f 153/153/153 143/143/143 151/151/151
f 154/154/154 143/143/143 153/153/153
f 153/153/153 151/151/151 155/155/155
f 156/156/156 153/153/153 155/155/155
f 157/157/157 153/153/153 156/156/156
f 155/155/155 151/151/151 158/158/158
f 151/151/151 152/152/152 158/158/158
f 158/158/158 152/152/152 159/159/159
f 152/152/152 160/160/160 159/159/159
f 152/152/152 146/146/146 160/160/160
f 159/159/159 160/160/160 161/161/161
f 146/146/146 162/162/162 160/160/160
f 146/146/146 145/145/145 162/162/162
f 160/160/160 163/163/163 161/161/161
f 160/160/160 162/162/162 163/163/163
f 161/161/161 163/163/163 164/164/164
f 145/145/145 165/165/165 162/162/162
f 145/145/145 148/148/148 165/165/165
f 162/162/162 166/166/166 163/163/163
f 162/162/162 165/165/165 166/166/166
f 163/163/163 166/166/166 167/167/167
f 165/165/165 168/168/168 166/166/166
f 166/166/166 168/168/168 169/169/169
f 148/148/148 170/170/170 165/165/165
f 165/165/165 170/170/170 168/168/168
f 148/148/148 171/171/171 170/170/170
f 147/147/147 171/171/171 148/148/148
f 170/170/170 172/172/172 168/168/168
f 168/168/168 172/172/172 173/173/173
f 170/170/170 174/174/174 172/172/172
f 171/171/171 174/174/174 170/170/170
f 147/147/147 175/175/175 171/171/171
f 149/149/149 175/175/175 147/147/147
f 174/174/174 176/176/176 172/172/172
f 172/172/172 176/176/176 177/177/177
f 171/171/171 178/178/178 174/174/174
f 175/175/175 178/178/178 171/171/171
f 149/149/149 179/179/179 175/175/175
f 180/180/180 179/179/179 149/149/149
f 174/174/174 181/181/181 176/176/176
f 178/178/178 181/181/181 174/174/174
f 179/179/179 182/182/182 175/175/175
f 175/175/175 182/182/182 178/178/178
f 181/181/181 183/183/183 176/176/176
f 176/176/176 183/183/183 184/184/184
f 178/178/178 185/185/185 181/181/181
f 182/182/182 185/185/185 178/178/178
f 179/179/179 186/186/186 182/182/182
f 187/187/187 186/186/186 179/179/179
f 181/181/181 188/188/188 183/183/183
f 185/185/185 188/188/188 181/181/181
f 186/186/186 189/189/189 182/182/182
f 182/182/182 189/189/189 185/185/185
f 188/188/188 190/190/190 183/183/183
f 183/183/183 190/190/190 191/191/191
f 185/185/185 192/192/192 188/188/188
f 189/189/189 192/192/192 185/185/185
f 186/186/186 193/193/193 189/189/189
f 194/194/194 193/193/193 186/186/186
f 188/188/188 195/195/195 190/190/190
f 192/192/192 195/195/195 188/188/188
f 193/193/193 196/196/196 189/189/189
f 189/189/189 196/196/196 192/192/192
f 195/195/195 197/197/197 190/190/190
f 190/190/190 197/197/197 198/198/198
f 192/192/192 199/199/199 195/195/195
f 196/196/196 199/199/199 192/192/192
f 193/193/193 200/200/200 196/196/196
f 201/201/201 200/200/200 193/193/193
f 195/195/195 202/202/202 197/197/197
f 199/199/199 202/202/202 195/195/195
f 200/200/200 203/203/203 196/196/196
f 196/196/196 203/203/203 199/199/199
f 202/202/202 204/204/204 197/197/197
f 197/197/197 204/204/204 205/205/205
f 199/199/199 206/206/206 202/202/202
f 203/203/203 206/206/206 199/199/199
f 200/200/200 207/207/207 203/203/203
f 208/208/208 207/207/207 200/200/200
f 202/202/202 209/209/209 204/204/204
f 206/206/206 209/209/209 202/202/202
f 207/207/207 210/210/210 203/203/203
f 203/203/203 210/210/210 206/206/206
f 207/207/207 211/211/211 210/210/210
f 212/212/212 211/211/211 207/207/207
f 211/211/211 213/213/213 210/210/210
f 210/210/210 214/214/214 206/206/206
f 210/210/210 213/213/213 214/214/214
f 206/206/206 214/214/214 209/209/209
f 213/213/213 215/215/215 214/214/214
f 214/214/214 215/215/215 216/216/216
f 214/214/214 216/216/216 209/209/209
f 215/215/215 217/217/217 216/216/216
f 209/209/209 218/218/218 204/204/204
f 209/209/209 216/216/216 218/218/218
f 204/204/204 218/218/218 219/219/219
f 216/216/216 217/217/217 220/220/220
f 216/216/216 220/220/220 218/218/218
f 218/218/218 220/220/220 221/221/221
f 217/217/217 222/222/222 220/220/220
f 220/220/220 222/222/222 223/223/223
f 226/226/226 225/225/225 224/224/224
f 224/224/224 225/225/225 227/227/227
f 225/225/225 228/228/228 227/227/227
f 225/225/225 229/229/229 228/228/228
f 230/230/230 229/229/229 225/225/225
f 224/224/224 227/227/227 231/231/231
f 232/232/232 224/224/224 231/231/231
f 233/233/233 224/224/224 232/232/232
f 227/227/227 228/228/228 234/234/234
f 231/231/231 227/227/227 235/235/235
f 227/227/227 234/234/234 235/235/235
f 229/229/229 236/236/236 228/228/228
f 228/228/228 237/237/237 234/234/234
f 228/228/228 236/236/236 237/237/237
f 229/229/229 238/238/238 236/236/236
f 239/239/239 238/238/238 229/229/229
f 232/232/232 231/231/231 240/240/240
f 231/231/231 235/235/235 241/241/241
f 240/240/240 231/231/231 241/241/241
f 242/242/242 232/232/232 240/240/240
f 243/243/243 232/232/232 242/242/242
f 242/242/242 240/240/240 244/244/244
f 245/245/245 242/242/242 244/244/244
f 246/246/246 242/242/242 245/245/245
f 244/244/244 240/240/240 247/247/247
f 240/240/240 241/241/241 247/247/247
f 247/247/247 241/241/241 248/248/248
f 241/241/241 249/249/249 248/248/248
f 241/241/241 235/235/235 249/249/249
f 248/248/248 249/249/249 250/250/250
f 235/235/235 251/251/251 249/249/249
f 235/235/235 234/234/234 251/251/251
f 249/249/249 252/252/252 250/250/250
f 249/249/249 251/251/251 252/252/252
f 250/250/250 252/252/252 253/253/253
f 234/234/234 254/254/254 251/251/251
f 234/234/234 237/237/237 254/254/254
f 251/251/251 255/255/255 252/252/252
f 251/251/251 254/254/254 255/255/255
f 252/252/252 255/255/255 256/256/256
f 254/254/254 257/257/257 255/255/255
f 255/255/255 257/257/257 258/258/258
f 237/237/237 259/259/259 254/254/254
f 254/254/254 259/259/259 257/257/257
f 237/237/237 260/260/260 259/259/259
f 236/236/236 260/260/260 237/237/237
f 259/259/259 261/261/261 257/257/257
f 257/257/257 261/261/261 262/262/262
f 259/259/259 263/263/263 261/261/261
f 260/260/260 263/263/263 259/259/259
f 236/236/236 264/264/264 260/260/260
f 238/238/238 264/264/264 236/236/236
f 263/263/263 265/265/265 261/261/261
f 261/261/261 265/265/265 266/266/266
f 260/260/260 267/267/267 263/263/263
f 264/264/264 267/267/267 260/260/260
f 238/238/238 268/268/268 264/264/264
f 269/269/269 268/268/268 238/238/238
f 263/263/263 270/270/270 265/265/265
f 267/267/267 270/270/270 263/263/263
f 268/268/268 271/271/271 264/264/264
f 264/264/264 271/271/271 267/267/267
f 270/270/270 272/272/272 265/265/265
f 265/265/265 272/272/272 273/273/273
f 267/267/267 274/274/274 270/270/270
f 271/271/271 274/274/274 267/267/267
f 268/268/268 275/275/275 271/271/271
f 276/276/276 275/275/275 268/268/268
f 270/270/270 277/277/277 272/272/272
f 274/274/274 277/277/277 270/270/270
f 275/275/275 278/278/278 271/271/271
f 271/271/271 278/278/278 274/274/274
f 277/277/277 279/279/279 272/272/272
f 272/272/272 279/279/279 280/280/280
f 274/274/274 281/281/281 277/277/277
f 278/278/278 281/281/281 274/274/274
f 275/275/275 282/282/282 278/278/278
f 283/283/283 282/282/282 275/275/275
f 277/277/277 284/284/284 279/279/279
f 281/281/281 284/284/284 277/277/277
f 282/282/282 285/285/285 278/278/278
f 278/278/278 285/285/285 281/281/281
f 284/284/284 286/286/286 279/279/279
f 279/279/279 286/286/286 287/287/287
f 281/281/281 288/288/288 284/284/284
f 285/285/285 288/288/288 281/281/281
f 282/282/282 289/289/289 285/285/285
f 290/290/290 289/289/289 282/282/282
f 284/284/284 291/291/291 286/286/286
f 288/288/288 291/291/291 284/284/284
f 289/289/289 292/292/292 285/285/285
f 285/285/285 292/292/292 288/288/288
f 291/291/291 293/293/293 286/286/286
f 286/286/286 293/293/293 294/294/294
f 288/288/288 295/295/295 291/291/291
f 292/292/292 295/295/295 288/288/288
f 289/289/289 296/296/296 292/292/292
f 297/297/297 296/296/296 289/289/289
f 291/291/291 298/298/298 293/293/293
f 295/295/295 298/298/298 291/291/291
f 296/296/296 299/299/299 292/292/292
f 292/292/292 299/299/299 295/295/295
f 296/296/296 300/300/300 299/299/299
f 301/301/301 300/300/300 296/296/296
f 300/300/300 302/302/302 299/299/299
f 299/299/299 303/303/303 295/295/295
f 299/299/299 302/302/302 303/303/303
f 295/295/295 303/303/303 298/298/298
f 302/302/302 304/304/304 303/303/303
f 303/303/303 304/304/304 305/305/305
f 303/303/303 305/305/305 298/298/298
f 304/304/304 306/306/306 305/305/305
f 298/298/298 307/307/307 293/293/293
f 298/298/298 305/305/305 307/307/307
f 293/293/293 307/307/307 308/308/308
f 305/305/305 306/306/306 309/309/309
f 305/305/305 309/309/309 307/307/307
f 307/307/307 309/309/309 310/310/310
f 306/306/306 311/311/311 309/309/309
f 309/309/309 311/311/311 312/312/312
f 315/315/315 314/314/314 313/313/313
f 313/313/313 314/314/314 316/316/316
f 314/314/314 317/317/317 316/316/316
f 314/314/314 318/318/318 317/317/317
f 319/319/319 318/318/318 314/314/314
f 313/313/313 316/316/316 320/320/320
f 321/321/321 313/313/313 320/320/320
f 322/322/322 313/313/313 321/321/321
f 316/316/316 317/317/317 323/323/323
f 320/320/320 316/316/316 324/324/324
f 316/316/316 323/323/323 324/324/324
f 318/318/318 325/325/325 317/317/317
f 317/317/317 326/326/326 323/323/323
f 317/317/317 325/325/325 326/326/326
f 318/318/318 327/327/327 325/325/325
f 328/328/328 327/327/327 318/318/318
f 321/321/321 320/320/320 329/329/329
f 320/320/320 324/324/324 330/330/330
f 329/329/329 320/320/320 330/330/330
f 331/331/331 321/321/321 329/329/329
f 332/332/332 321/321/321 331/331/331
f 331/331/331 329/329/329 333/333/333
f 334/334/334 331/331/331 333/333/333
f 335/335/335 331/331/331 334/334/334
f 333/333/333 329/329/329 336/336/336
f 329/329/329 330/330/330 336/336/336
f 336/336/336 330/330/330 337/337/337
f 330/330/330 338/338/338 337/337/337
f 330/330/330 324/324/324 338/338/338
f 337/337/337 338/338/338 339/339/339
f 324/324/324 340/340/340 338/338/338
f 324/324/324 323/323/323 340/340/340
f 338/338/338 341/341/341 339/339/339
f 338/338/338 340/340/340 341/341/341
f 339/339/339 341/341/341 342/342/342
f 323/323/323 343/343/343 340/340/340
f 323/323/323 326/326/326 343/343/343
f 340/340/340 344/344/344 341/341/341
f 340/340/340 343/343/343 344/344/344
f 341/341/341 344/344/344 345/345/345
f 343/343/343 346/346/346 344/344/344
f 344/344/344 346/346/346 347/347/347
f 326/326/326 348/348/348 343/343/343
f 343/343/343 348/348/348 346/346/346
f 326/326/326 349/349/349 348/348/348
f 325/325/325 349/349/349 326/326/326
f 348/348/348 350/350/350 346/346/346
f 346/346/346 350/350/350 351/351/351
f 348/348/348 352/352/352 350/350/350
f 349/349/349 352/352/352 348/348/348
f 325/325/325 353/353/353 349/349/349
f 327/327/327 353/353/353 325/325/325
f 352/352/352 354/354/354 350/350/350
f 350/350/350 354/354/354 355/355/355
f 349/349/349 356/356/356 352/352/352
f 353/353/353 356/356/356 349/349/349
f 327/327/327 357/357/357 353/353/353
f 358/358/358 357/357/357 327/327/327
f 352/352/352 359/359/359 354/354/354
f 356/356/356 359/359/359 352/352/352
f 357/357/357 360/360/360 353/353/353
f 353/353/353 360/360/360 356/356/356
f 359/359/359 361/361/361 354/354/354
f 354/354/354 361/361/361 362/362/362
f 356/356/356 363/363/363 359/359/359
f 360/360/360 363/363/363 356/356/356
f 357/357/357 364/364/364 360/360/360
f 365/365/365 364/364/364 357/357/357
f 359/359/359 366/366/366 361/361/361
f 363/363/363 366/366/366 359/359/359
f 364/364/364 367/367/367 360/360/360
f 360/360/360 367/367/367 363/363/363
f 366/366/366 368/368/368 361/361/361
f 361/361/361 368/368/368 369/369/369
f 363/363/363 370/370/370 366/366/366
f 367/367/367 370/370/370 363/363/363
f 364/364/364 371/371/371 367/367/367
f 372/372/372 371/371/371 364/364/364
f 366/366/366 373/373/373 368/368/368
f 370/370/370 373/373/373 366/366/366
f 371/371/371 374/374/374 367/367/367
f 367/367/367 374/374/374 370/370/370
f 373/373/373 375/375/375 368/368/368
f 368/368/368 375/375/375 376/376/376
f 370/370/370 377/377/377 373/373/373
f 374/374/374 377/377/377 370/370/370
f 371/371/371 378/378/378 374/374/374
f 379/379/379 378/378/378 371/371/371
f 373/373/373 380/380/380 375/375/375
f 377/377/377 380/380/380 373/373/373
f 378/378/378 381/381/381 374/374/374
f 374/374/374 381/381/381 377/377/377
f 380/380/380 382/382/382 375/375/375
f 375/375/375 382/382/382 383/383/383
f 377/377/377 384/384/384 380/380/380
f 381/381/381 384/384/384 377/377/377
f 378/378/378 385/385/385 381/381/381
f 386/386/386 385/385/385 378/378/378
f 380/380/380 387/387/387 382/382/382
f 384/384/384 387/387/387 380/380/380
f 385/385/385 388/388/388 381/381/381
f 381/381/381 388/388/388 384/384/384
f 385/385/385 389/389/389 388/388/388
f 390/390/390 389/389/389 385/385/385
f 389/389/389 391/391/391 388/388/388
f 388/388/388 392/392/392 384/384/384
f 388/388/388 391/391/391 392/392/392
f 384/384/384 392/392/392 387/387/387
f 391/391/391 393/393/393 392/392/392
f 392/392/392 393/393/393 394/394/394
f 392/392/392 394/394/394 387/387/387
f 393/393/393 395/395/395 394/394/394
f 387/387/387 396/396/396 382/382/382
f 387/387/387 394/394/394 396/396/396
f 382/382/382 396/396/396 397/397/397
f 394/394/394 395/395/395 398/398/398
f 394/394/394 398/398/398 396/396/396
f 396/396/396 398/398/398 399/399/399
f 395/395/395 400/400/400 398/398/398
f 398/398/398 400/400/400 401/401/401
