g Bloodwing Head
v -0.3552063 -0.3897475 0.77082396
v -0.37458113 -0.3587143 0.76290953
v -0.33504483 -0.35609493 0.7975822
v -0.3552063 0.3552044 0.025872082
v -0.33478618 0.38219416 0.05957737
v -0.37446633 0.34757438 0.056848884
v 0.3350434 -0.35609493 0.7975822
v 0.37457967 -0.3587143 0.76290953
v 0.35520482 -0.3897475 0.77082396
v 0.35520482 0.3552044 0.025872082
v 0.37446484 0.34757438 0.056848902
v 0.33478475 0.38219413 0.059577357
v 0.05618849 0.21451177 0.66562337
v -0.33504483 -0.35609493 0.7975822
v -0.05618882 0.21451177 0.66562337
v 0.3350434 -0.35609493 0.7975822
v 0.37457967 -0.3587143 0.76290953
v 0.110601366 0.18145111 0.63799053
v 0.3745797 -0.3587143 0.1028575
v 0.35520482 -0.3897475 0.77082396
v 0.37446487 -0.31188798 0.05684891
v 0.35520482 -0.3897475 0.06041284
v 0.11072237 0.22779492 0.59150386
v -0.3552063 -0.3897475 0.77082396
v -0.3552063 -0.3897475 0.06041284
v 0.3350434 -0.35609493 0.7975822
v -0.33504483 -0.35609493 0.7975822
v 0.37446484 0.34757438 0.056848902
v 0.35520482 -0.35520673 0.025872082
v 0.33478475 0.38219413 0.059577357
v 0.056291148 0.2557154 0.62413555
v -0.33478618 0.38219416 0.05957737
v 0.35520482 0.3552044 0.025872082
v -0.056291476 0.2557154 0.62413555
v -0.37446633 0.34757438 0.056848884
v -0.1107228 0.22779492 0.5915038
v -0.05618882 0.21451177 0.66562337
v 0.05618849 0.21451177 0.66562337
v 0.11072237 0.22779492 0.59150386
v 0.110601366 0.18145111 0.63799053
v -0.3552063 0.3552044 0.025872082
v -0.33478618 0.38219416 0.05957737
v 0.33478475 0.38219413 0.059577357
v -0.3552063 -0.35520673 0.025872082
v 0.35520482 -0.3897475 0.06041284
v -0.3552063 -0.3897475 0.06041284
v -0.37446633 -0.31188798 0.056848887
v -0.37446633 0.34757438 0.056848884
v -0.37446633 -0.31188798 0.056848887
v -0.37458113 -0.3587143 0.10285747
v -0.110601775 0.18145114 0.63799053
v -0.056291476 0.2557154 0.62413555
v -0.05618882 0.21451177 0.66562337
v -0.1107228 0.22779492 0.5915038
v -0.37458113 -0.3587143 0.10285747
v -0.37446633 -0.31188798 0.056848887
v -0.37446633 0.34757438 0.056848884
v 0.37446487 -0.31188798 0.05684891
v 0.35520482 -0.35520673 0.025872082
v 0.35520482 -0.3897475 0.06041284
v 0.3745797 -0.3587143 0.1028575
v -0.3552063 -0.3897475 0.06041284
v -0.37458113 -0.3587143 0.76290953
v -0.3552063 -0.3897475 0.77082396
v -0.37458113 -0.3587143 0.10285747
v -0.110601775 0.18145114 0.63799053
v -0.33504483 -0.35609493 0.7975822
v -0.05618882 0.21451177 0.66562337
vt 0.84479797 0.74465996
vt 0.84105635 0.737838
vt 0.87499994 0.73114175
vt 0.13607797 0.511078
vt 0.14262713 0.5024218
vt 0.12990087 0.5135251
vt 0.622504 0.76754415
vt 0.6113837 0.7548641
vt 0.61392206 0.76107794
vt 0.3639221 0.511078
vt 0.3700992 0.5135251
vt 0.35737288 0.50242174
vt 0.6683694 0.5131886
vt 0.86108935 0.7368114
vt 0.83163065 0.5131886
vt 0.6389106 0.7368114
vt 0.6136855 0.73783803
vt 0.6136854 0.52614516
vt 0.40199265 0.73783803
vt 0.61392206 0.76107794
vt 0.3872541 0.722803
vt 0.386078 0.76107806
vt 0.5987578 0.5112994
vt 0.613922 0.988922
vt 0.38607797 0.98892206
vt 0.625 0.76754415
vt 0.625 0.98245585
vt 0.38725406 0.5112993
vt 0.36392206 0.73892206
vt 0.38833344 0.48605856
vt 0.6116665 0.45670074
vt 0.3883334 0.26394144
vt 0.3639221 0.511078
vt 0.61166656 0.29329926
vt 0.37595478 0.27259868
vt 0.58745843 0.27259868
vt 0.625 0.2849527
vt 0.625 0.46504727
vt 0.6011716 0.5
vt 0.61858165 0.5
vt 0.13607797 0.511078
vt 0.14262713 0.5
vt 0.35737288 0.5
vt 0.13607797 0.73892206
vt 0.36392203 0.75
vt 0.13607796 0.75
vt 0.125 0.7250288
vt 0.125 0.51352507
vt 0.12990087 0.72502875
vt 0.125 0.740047
vt 0.5888818 0.2861182
vt 0.6174497 0.25
vt 0.61960447 0.25539556
vt 0.58745843 0.27259868
vt 0.16549614 0.7095038
vt 0.16445106 0.6956062
vt 0.37595478 0.27259868
vt 0.37009916 0.7250288
vt 0.375 0.738922
vt 0.36392203 0.75
vt 0.370136 0.740047
vt 0.15823388 0.75
vt 0.84105635 0.737838
vt 0.8417662 0.75
vt 0.20597783 0.737838
vt 0.8410563 0.52614516
vt 0.86108935 0.7368114
vt 0.83163065 0.5131886
vn -0.46777555 -0.76768076 0.43800953
vn -0.930281 0.007111277 0.3667789
vn -0.3353074 -0.0735002 0.9392373
vn -0.4679682 0.4366736 -0.768324
vn -0.3349724 0.9390978 -0.076737456
vn -0.9299222 0.3676767 0.0076446035
vn 0.3353073 -0.07350036 0.9392373
vn 0.9302809 0.0071102544 0.36677918
vn 0.467775 -0.7676811 0.4380095
vn 0.4679679 0.43667325 -0.7683245
vn 0.9299222 0.3676768 0.007643562
vn 0.33497253 0.93909776 -0.076738246
vn 0.27168283 0.512738 0.8144251
vn -0.3353074 -0.0735002 0.9392373
vn -0.2716823 0.51273817 0.8144252
vn 0.3353073 -0.07350036 0.9392373
vn 0.9302809 0.0071102544 0.36677918
vn 0.77484435 0.4407265 0.45318487
vn 0.98732996 -0.15867397 0.0014344277
vn 0.467775 -0.7676811 0.4380095
vn 0.9875223 0.004076826 -0.15742679
vn 0.503188 -0.790546 -0.34905407
vn 0.7743427 0.45379698 0.440978
vn -0.46777555 -0.76768076 0.43800953
vn -0.50318825 -0.790546 -0.34905395
vn 0.3353073 -0.07350036 0.9392373
vn -0.3353074 -0.0735002 0.9392373
vn 0.9299222 0.3676768 0.007643562
vn 0.5032656 -0.34811056 -0.7909127
vn 0.33497253 0.93909776 -0.076738246
vn 0.27162883 0.81734437 0.50810033
vn -0.3349724 0.9390978 -0.076737456
vn 0.4679679 0.43667325 -0.7683245
vn -0.27162808 0.8173444 0.50810057
vn -0.9299222 0.3676767 0.0076446035
vn -0.774342 0.45379728 0.44097906
vn -0.2716823 0.51273817 0.8144252
vn 0.27168283 0.512738 0.8144251
vn 0.7743427 0.45379698 0.440978
vn 0.77484435 0.4407265 0.45318487
vn -0.4679682 0.4366736 -0.768324
vn -0.3349724 0.9390978 -0.076737456
vn 0.33497253 0.93909776 -0.076738246
vn -0.50326574 -0.34811056 -0.7909125
vn 0.503188 -0.790546 -0.34905407
vn -0.50318825 -0.790546 -0.34905395
vn -0.9875223 0.0040771384 -0.15742612
vn -0.9299222 0.3676767 0.0076446035
vn -0.9875223 0.0040771384 -0.15742612
vn -0.9873302 -0.15867297 0.0014348559
vn -0.77484363 0.44072735 0.45318517
vn -0.27162808 0.8173444 0.50810057
vn -0.2716823 0.51273817 0.8144252
vn -0.774342 0.45379728 0.44097906
vn -0.9873302 -0.15867297 0.0014348559
vn -0.9875223 0.0040771384 -0.15742612
vn -0.9299222 0.3676767 0.0076446035
vn 0.9875223 0.004076826 -0.15742679
vn 0.5032656 -0.34811056 -0.7909127
vn 0.503188 -0.790546 -0.34905407
vn 0.98732996 -0.15867397 0.0014344277
vn -0.50318825 -0.790546 -0.34905395
vn -0.930281 0.007111277 0.3667789
vn -0.46777555 -0.76768076 0.43800953
vn -0.9873302 -0.15867297 0.0014348559
vn -0.77484363 0.44072735 0.45318517
vn -0.3353074 -0.0735002 0.9392373
vn -0.2716823 0.51273817 0.8144252
g Bloodwing Head_0
f 3/3/3 2/2/2 1/1/1
f 6/6/6 5/5/5 4/4/4
f 9/9/9 8/8/8 7/7/7
f 12/12/12 11/11/11 10/10/10
f 15/15/15 14/14/14 13/13/13
f 14/14/14 16/16/16 13/13/13
f 16/16/16 17/17/17 13/13/13
f 17/17/17 18/18/18 13/13/13
f 19/19/19 18/18/18 17/17/17
f 19/19/19 17/17/17 20/20/20
f 19/19/19 21/21/21 18/18/18
f 22/22/22 19/19/19 20/20/20
f 21/21/21 23/23/23 18/18/18
f 20/20/20 24/24/24 22/22/22
f 24/24/24 25/25/25 22/22/22
f 24/24/24 20/20/20 26/26/26
f 27/27/27 24/24/24 26/26/26
f 23/23/23 21/21/21 28/28/28
f 28/28/28 21/21/21 29/29/29
f 28/28/28 30/30/30 23/23/23
f 30/30/30 31/31/31 23/23/23
f 31/31/31 30/30/30 32/32/32
f 33/33/33 28/28/28 29/29/29
f 34/34/34 31/31/31 32/32/32
f 32/32/32 35/35/35 34/34/34
f 35/35/35 36/36/36 34/34/34
f 31/31/31 34/34/34 37/37/37
f 38/38/38 31/31/31 37/37/37
f 39/39/39 31/31/31 38/38/38
f 40/40/40 39/39/39 38/38/38
f 33/33/33 29/29/29 41/41/41
f 41/41/41 42/42/42 33/33/33
f 42/42/42 43/43/43 33/33/33
f 29/29/29 44/44/44 41/41/41
f 29/29/29 45/45/45 44/44/44
f 45/45/45 46/46/46 44/44/44
f 44/44/44 47/47/47 41/41/41
f 47/47/47 48/48/48 41/41/41
f 44/44/44 46/46/46 49/49/49
f 46/46/46 50/50/50 49/49/49
f 53/53/53 52/52/52 51/51/51
f 52/52/52 54/54/54 51/51/51
f 51/51/51 54/54/54 55/55/55
f 54/54/54 56/56/56 55/55/55
f 56/56/56 54/54/54 57/57/57
f 60/60/60 59/59/59 58/58/58
f 61/61/61 60/60/60 58/58/58
f 64/64/64 63/63/63 62/62/62
f 63/63/63 65/65/65 62/62/62
f 66/66/66 65/65/65 63/63/63
f 66/66/66 63/63/63 67/67/67
f 68/68/68 66/66/66 67/67/67
