g Body.001
v 3.347322E-07 0.12937659 0.9872115
v 0.044249944 0.121574245 0.9872115
v 3.5021998E-07 -4.5361622E-07 1.0042442
v 2.850742E-07 0.2499368 0.9372738
v 0.08548395 0.23486374 0.9372738
v 0.08316235 0.09910816 0.9872115
v 3.5021998E-07 -4.5361622E-07 1.0042442
v -0.085483275 0.23486371 0.9372738
v -0.04424921 0.121574186 0.9872115
v 3.5021998E-07 -4.5361622E-07 1.0042442
v 2.0437984E-07 0.35346416 0.8578346
v -0.12089178 0.3321476 0.8578346
v 0.16065694 0.1914626 0.9372738
v 0.1208924 0.33214766 0.8578346
v 0.11204421 0.064688124 0.9872115
v 3.5021998E-07 -4.5361622E-07 1.0042442
v -0.16065626 0.19146256 0.9372738
v -0.22720239 0.27076903 0.8578346
v -0.083161615 0.09910809 0.9872115
v 3.5021998E-07 -4.5361622E-07 1.0042442
v -0.14806157 0.40679616 0.7543071
v 2.5403784E-07 0.43290347 0.7543071
v -0.27826494 0.33162314 0.7543071
v 0.22720306 0.27076918 0.8578346
v 0.2164524 0.12496821 0.9372738
v 0.14806227 0.40679625 0.7543071
v 0.12741192 0.022465687 0.9872115
v 3.5021998E-07 -4.5361622E-07 1.0042442
v -0.16514128 0.4537222 0.6337469
v -0.3103643 0.36987764 0.6337469
v 2.5403784E-07 0.48284113 0.6337469
v -0.37490544 0.2164514 0.7543071
v -0.4181528 0.24142028 0.6337469
v -0.30610898 0.17673172 0.8578346
v -0.21645166 0.12496813 0.9372738
v -0.11204344 0.06468804 0.9872115
v 3.5021998E-07 -4.5361622E-07 1.0042442
v -0.32131281 0.38292545 0.50437
v -0.17096686 0.46972775 0.50437
v -0.43290362 0.24993666 0.50437
v -0.42632675 0.07517244 0.7543071
v -0.34809428 0.061377876 0.8578346
v -0.24613976 0.043400638 0.9372738
v -0.4755058 0.083844036 0.6337469
v -0.4922798 0.08680172 0.50437
v -0.12741113 0.02246561 0.9872115
v 3.5021998E-07 -4.5361622E-07 1.0042442
v -0.34809425 -0.06137908 0.8578346
v -0.24613975 -0.043401655 0.9372738
v -0.12741111 -0.022466559 0.9872115
v 3.5021998E-07 -4.5361622E-07 1.0042442
v -0.4263267 -0.0751735 0.7543071
v -0.47550577 -0.08384509 0.6337469
v -0.49227974 -0.086802825 0.50437
v -0.47550577 -0.08384509 0.3749929
v -0.4755058 0.083844036 0.3749929
v -0.4263266 -0.07517353 0.25443274
v -0.42632663 0.07517238 0.25443274
v -0.34809425 -0.06137908 0.15090537
v -0.4181528 0.24142028 0.3749929
v -0.34809428 0.061377876 0.15090537
v -0.24613976 -0.04340168 0.07146603
v -0.37490538 0.21645133 0.25443274
v -0.3103643 0.36987764 0.3749929
v -0.24613981 0.04340062 0.07146603
v -0.12741117 -0.022466553 0.021528382
v -0.30610898 0.17673172 0.15090537
v -0.27826488 0.33162302 0.25443274
v -0.16514128 0.4537222 0.3749929
v -0.12741119 0.022465639 0.021528382
v 3.8806562E-07 -4.31766E-07 0.004495545
v -0.21645172 0.12496813 0.07146603
v -0.22720239 0.27076903 0.15090537
v -0.11204348 0.0646881 0.021528382
v 3.8806562E-07 -4.31766E-07 0.004495545
v -0.16065629 0.19146256 0.07146603
v -0.14806156 0.406796 0.25443274
v 2.2920888E-07 0.49987394 0.50437
v -0.08316163 0.09910816 0.021528382
v 3.8806562E-07 -4.31766E-07 0.004495545
v -0.12089178 0.3321476 0.15090537
v 2.5403784E-07 0.48284113 0.3749929
v 0.16514193 0.45372233 0.6337469
v -0.08548331 0.23486374 0.07146603
v 2.416233E-07 0.43290338 0.25443274
v 0.1709675 0.46972787 0.50437
v 0.27826568 0.3316233 0.7543071
v -0.044249207 0.12157426 0.021528382
v 3.8806562E-07 -4.31766E-07 0.004495545
v 2.0437984E-07 0.35346416 0.15090537
v 0.16514193 0.45372233 0.3749929
v 0.310365 0.36987776 0.6337469
v 0.30610973 0.1767319 0.8578346
v 3.8806562E-07 0.24993683 0.07146603
v 0.14806224 0.4067962 0.25443274
v 0.32131344 0.3829256 0.50437
v 0.37490624 0.21645159 0.7543071
v 0.24614052 0.043400742 0.9372738
v 3.8806562E-07 0.12937666 0.021528382
v 3.8806562E-07 -4.31766E-07 0.004495545
v 0.310365 0.36987776 0.3749929
v 0.41815343 0.24142045 0.6337469
v 0.3480951 0.061378088 0.8578346
v 0.12741192 -0.022466494 0.9872115
v 3.5021998E-07 -4.5361622E-07 1.0042442
v 0.24614054 -0.043401554 0.9372738
v 0.42632756 0.07517259 0.7543071
v 0.43290436 0.2499368 0.50437
v 0.11204422 -0.06468893 0.9872115
v 3.5021998E-07 -4.5361622E-07 1.0042442
v 0.34809512 -0.061378878 0.8578346
v 0.4755065 0.083844215 0.6337469
v 0.21645243 -0.124969035 0.9372738
v 0.42632756 -0.07517338 0.7543071
v 0.08316237 -0.09910898 0.9872115
v 3.5021998E-07 -4.5361622E-07 1.0042442
v 0.3061098 -0.17673269 0.8578346
v 0.16065702 -0.19146346 0.9372738
v 0.044249978 -0.12157509 0.9872115
v 3.5021998E-07 -4.5361622E-07 1.0042442
v 0.49228057 0.08680189 0.50437
v 0.4755065 -0.08384491 0.6337469
v 0.37490624 -0.21645236 0.7543071
v 0.22720316 -0.27077 0.8578346
v 0.085484006 -0.23486464 0.9372738
v 0.41815343 0.24142045 0.3749929
v 4.2163376E-07 -0.12937747 0.9872115
v 3.5021998E-07 -4.5361622E-07 1.0042442
v 0.27826566 0.3316232 0.25443274
v 0.1208924 0.33214766 0.15090537
v 0.08548396 0.23486379 0.07146603
v 0.22720306 0.27076918 0.15090537
v 0.3749062 0.21645156 0.25443274
v 0.04424996 0.12157428 0.021528382
v 3.8806562E-07 -4.31766E-07 0.004495545
v 0.16065694 0.19146264 0.07146603
v 0.4755065 0.083844215 0.3749929
v 0.30610973 0.1767319 0.15090537
v 0.08316237 0.09910819 0.021528382
v 3.8806562E-07 -4.31766E-07 0.004495545
v 0.21645242 0.12496823 0.07146603
v 0.4263275 0.075172566 0.25443274
v 0.49228057 -0.08680266 0.50437
v 0.11204423 0.06468813 0.021528382
v 3.8806562E-07 -4.31766E-07 0.004495545
v 0.3480951 0.061378088 0.15090537
v 0.4755065 -0.08384491 0.3749929
v 0.41815343 -0.24142113 0.6337469
v 0.24614054 0.043400757 0.07146603
v 0.4263275 -0.07517338 0.25443274
v 0.43290436 -0.24993758 0.50437
v 0.27826574 -0.33162403 0.7543071
v 0.12741195 0.022465687 0.021528382
v 3.8806562E-07 -4.31766E-07 0.004495545
v 0.34809512 -0.061378878 0.15090537
v 0.41815343 -0.24142113 0.3749929
v 0.31036502 -0.36987844 0.6337469
v 0.12089252 -0.33214852 0.8578346
v 0.24614058 -0.043401547 0.07146603
v 0.3749062 -0.21645235 0.25443274
v 0.32131353 -0.3829264 0.50437
v 0.14806235 -0.40679702 0.7543071
v 4.3404836E-07 -0.24993771 0.9372738
v 0.12741196 -0.022466505 0.021528382
v 3.8806562E-07 -4.31766E-07 0.004495545
v 0.31036502 -0.36987844 0.3749929
v 0.165142 -0.45372304 0.6337469
v 5.0232813E-07 -0.35346505 0.8578346
v -0.044249136 -0.1215751 0.9872115
v 3.5021998E-07 -4.5361622E-07 1.0042442
v -0.08548315 -0.2348647 0.9372738
v 4.8991365E-07 -0.43290436 0.7543071
v 0.1709676 -0.46972862 0.50437
v -0.08316154 -0.099109024 0.9872115
v 3.5021998E-07 -4.5361622E-07 1.0042442
v -0.12089153 -0.3321486 0.8578346
v 4.774991E-07 -0.48284194 0.6337469
v -0.16065617 -0.19146354 0.9372738
v -0.14806136 -0.40679708 0.7543071
v -0.1120434 -0.06468898 0.9872115
v 3.5021998E-07 -4.5361622E-07 1.0042442
v -0.22720218 -0.27077013 0.8578346
v -0.21645163 -0.124969125 0.9372738
v -0.12741111 -0.022466559 0.9872115
v 3.5021998E-07 -4.5361622E-07 1.0042442
v -0.24613975 -0.043401655 0.9372738
v -0.30610886 -0.17673287 0.8578346
v -0.34809425 -0.06137908 0.8578346
v -0.2782648 -0.33162412 0.7543071
v -0.3749053 -0.21645246 0.7543071
v -0.4263267 -0.0751735 0.7543071
v -0.16514105 -0.45372313 0.6337469
v -0.31036407 -0.3698786 0.6337469
v -0.4181526 -0.2414213 0.6337469
v -0.47550577 -0.08384509 0.6337469
v 4.8991365E-07 -0.49987477 0.50437
v -0.17096661 -0.46972874 0.50437
v -0.32131255 -0.38292646 0.50437
v -0.43290347 -0.24993771 0.50437
v -0.49227974 -0.086802825 0.50437
v 0.165142 -0.45372304 0.3749929
v 4.774991E-07 -0.48284194 0.3749929
v -0.16514105 -0.45372313 0.3749929
v -0.31036407 -0.3698786 0.3749929
v -0.4181526 -0.2414213 0.3749929
v -0.47550577 -0.08384509 0.3749929
v 0.27826568 -0.331624 0.25443274
v 0.14806232 -0.406797 0.25443274
v 4.8991365E-07 -0.4329043 0.25443274
v -0.14806134 -0.40679702 0.25443274
v -0.27826473 -0.33162406 0.25443274
v -0.37490523 -0.21645243 0.25443274
v -0.4263266 -0.07517353 0.25443274
v 0.3061098 -0.17673269 0.15090537
v 0.22720316 -0.27077 0.15090537
v 0.2164525 -0.124969035 0.07146603
v -0.30610886 -0.17673287 0.15090537
v -0.34809425 -0.06137908 0.15090537
v -0.22720218 -0.27077013 0.15090537
v 0.12089252 -0.33214852 0.15090537
v 0.11204425 -0.06468896 0.021528382
v 3.8806562E-07 -4.31766E-07 0.004495545
v 0.16065705 -0.19146349 0.07146603
v -0.21645163 -0.12496916 0.07146603
v -0.24613976 -0.04340168 0.07146603
v 5.0232813E-07 -0.35346505 0.15090537
v 0.0831624 -0.099109024 0.021528382
v 3.8806562E-07 -4.31766E-07 0.004495545
v 0.08548404 -0.23486465 0.07146603
v -0.12089153 -0.3321486 0.15090537
v -0.16065615 -0.19146356 0.07146603
v 0.04424998 -0.121575125 0.021528382
v 3.8806562E-07 -4.31766E-07 0.004495545
v 4.588774E-07 -0.24993773 0.07146603
v -0.085483134 -0.23486471 0.07146603
v 4.154265E-07 -0.12937751 0.021528382
v 3.8806562E-07 -4.31766E-07 0.004495545
v -0.04424915 -0.12157513 0.021528382
v 3.8806562E-07 -4.31766E-07 0.004495545
v -0.08316158 -0.09910904 0.021528382
v 3.8806562E-07 -4.31766E-07 0.004495545
v -0.11204345 -0.064688995 0.021528382
v 3.8806562E-07 -4.31766E-07 0.004495545
v -0.12741117 -0.022466553 0.021528382
v 3.8806562E-07 -4.31766E-07 0.004495545
vt 0.7222222 0.9166666
vt 0.66666657 0.9166666
vt 0.6944444 1
vt 0.7222222 0.8333334
vt 0.66666657 0.8333334
vt 0.611111 0.9166666
vt 0.6388888 1
vt 0.77777773 0.8333333
vt 0.77777773 0.9166666
vt 0.75000006 1
vt 0.72222227 0.75
vt 0.7777778 0.75
vt 0.61111104 0.8333333
vt 0.66666657 0.75
vt 0.55555546 0.9166666
vt 0.5833332 1
vt 0.8333333 0.8333333
vt 0.8333333 0.75
vt 0.8333333 0.9166666
vt 0.8055556 1
vt 0.77777773 0.6666666
vt 0.72222215 0.66666675
vt 0.8333333 0.6666666
vt 0.61111104 0.75
vt 0.55555546 0.8333333
vt 0.66666657 0.6666666
vt 0.49999988 0.9166666
vt 0.5277777 1
vt 0.77777773 0.5833334
vt 0.8333333 0.5833334
vt 0.72222215 0.5833334
vt 0.8888889 0.6666666
vt 0.8888889 0.5833334
vt 0.8888889 0.75
vt 0.8888889 0.8333333
vt 0.8888889 0.9166666
vt 0.86111116 1
vt 0.8333333 0.5
vt 0.77777773 0.5
vt 0.8888889 0.5
vt 0.9444444 0.6666666
vt 0.9444445 0.75
vt 0.9444445 0.8333333
vt 0.9444444 0.5833334
vt 0.9444444 0.5
vt 0.9444445 0.9166666
vt 0.9166667 1
vt 1 0.75
vt 1 0.8333333
vt 1 0.9166666
vt 0.97222227 1
vt 1 0.6666666
vt 1 0.5833334
vt 1 0.5
vt 1 0.4166667
vt 0.9444444 0.4166667
vt 1 0.33333325
vt 0.9444444 0.33333325
vt 1 0.25
vt 0.8888889 0.4166667
vt 0.9444445 0.25
vt 1 0.1666668
vt 0.8888889 0.33333325
vt 0.8333333 0.4166667
vt 0.9444445 0.16666669
vt 1 0.08333355
vt 0.8888889 0.25
vt 0.8333333 0.33333325
vt 0.77777773 0.4166667
vt 0.9444445 0.08333355
vt 0.97222227 0
vt 0.8888889 0.16666669
vt 0.8333333 0.25
vt 0.8888889 0.08333337
vt 0.9166667 0
vt 0.8333333 0.16666669
vt 0.77777773 0.33333325
vt 0.72222215 0.5
vt 0.8333333 0.08333337
vt 0.8611111 0
vt 0.7777778 0.25
vt 0.72222215 0.4166667
vt 0.66666657 0.5833334
vt 0.7777778 0.16666669
vt 0.72222215 0.33333325
vt 0.66666657 0.5
vt 0.61111104 0.6666666
vt 0.77777773 0.08333337
vt 0.8055555 0
vt 0.72222227 0.25
vt 0.66666657 0.4166667
vt 0.61111104 0.5833334
vt 0.55555546 0.75
vt 0.72222215 0.16666669
vt 0.66666657 0.3333333
vt 0.61111104 0.5
vt 0.55555546 0.6666666
vt 0.49999994 0.8333333
vt 0.72222215 0.08333337
vt 0.74999994 0
vt 0.61111104 0.4166667
vt 0.5555555 0.5833334
vt 0.49999994 0.75
vt 0.44444436 0.9166666
vt 0.4722221 1
vt 0.44444436 0.8333333
vt 0.49999994 0.6666666
vt 0.55555546 0.5
vt 0.3888888 0.9166666
vt 0.41666654 1
vt 0.44444436 0.75
vt 0.49999994 0.5833334
vt 0.3888888 0.83333325
vt 0.44444436 0.6666666
vt 0.33333325 0.9166666
vt 0.361111 1
vt 0.38888884 0.75
vt 0.33333325 0.83333325
vt 0.27777773 0.9166665
vt 0.30555546 1
vt 0.49999994 0.5
vt 0.4444444 0.5833334
vt 0.38888884 0.6666666
vt 0.3333333 0.75
vt 0.27777773 0.83333325
vt 0.5555555 0.4166667
vt 0.22222221 0.9166665
vt 0.24999994 1
vt 0.61111104 0.3333333
vt 0.66666657 0.25
vt 0.66666657 0.16666669
vt 0.61111104 0.25
vt 0.55555546 0.3333333
vt 0.66666657 0.08333337
vt 0.69444436 0
vt 0.61111104 0.16666669
vt 0.49999994 0.4166667
vt 0.55555546 0.25
vt 0.611111 0.08333337
vt 0.6388888 0
vt 0.55555546 0.16666669
vt 0.49999994 0.3333333
vt 0.44444436 0.5
vt 0.55555546 0.08333337
vt 0.5833332 0
vt 0.49999994 0.25
vt 0.4444444 0.4166667
vt 0.38888884 0.5833334
vt 0.49999994 0.16666669
vt 0.44444436 0.3333333
vt 0.38888884 0.5
vt 0.33333328 0.6666666
vt 0.49999988 0.08333355
vt 0.5277777 0
vt 0.44444436 0.25
vt 0.38888884 0.4166667
vt 0.33333328 0.5833334
vt 0.27777773 0.75
vt 0.44444436 0.1666668
vt 0.38888884 0.3333333
vt 0.33333328 0.5
vt 0.27777773 0.6666666
vt 0.22222221 0.83333325
vt 0.44444436 0.08333355
vt 0.4722221 0
vt 0.33333328 0.4166667
vt 0.27777773 0.5833334
vt 0.22222221 0.75
vt 0.16666666 0.9166666
vt 0.19444442 1
vt 0.16666666 0.83333325
vt 0.22222221 0.6666666
vt 0.27777773 0.5
vt 0.111111134 0.9166666
vt 0.1388889 1
vt 0.16666666 0.75
vt 0.22222221 0.5833334
vt 0.111111134 0.83333325
vt 0.16666666 0.6666666
vt 0.055555582 0.9166666
vt 0.08333337 1
vt 0.111111134 0.75
vt 0.055555582 0.83333325
vt 2.9802322E-08 0.9166666
vt 0.02777785 1
vt 2.9802322E-08 0.8333333
vt 0.055555582 0.75
vt 2.9802322E-08 0.75
vt 0.111111134 0.6666666
vt 0.055555552 0.6666666
vt 0 0.6666666
vt 0.16666666 0.5833334
vt 0.111111075 0.5833334
vt 0.055555552 0.5833334
vt 0 0.5833334
vt 0.22222221 0.5
vt 0.16666666 0.5
vt 0.111111075 0.5
vt 0.055555552 0.5
vt 0 0.5
vt 0.27777773 0.4166667
vt 0.22222221 0.4166667
vt 0.16666666 0.4166667
vt 0.111111075 0.4166667
vt 0.055555552 0.4166667
vt 0 0.4166667
vt 0.33333328 0.3333333
vt 0.27777773 0.3333333
vt 0.22222221 0.3333333
vt 0.16666666 0.3333333
vt 0.111111134 0.3333333
vt 0.055555552 0.33333325
vt 0 0.33333325
vt 0.38888884 0.25
vt 0.3333333 0.25
vt 0.38888884 0.1666668
vt 0.055555582 0.25
vt 2.9802322E-08 0.25
vt 0.111111134 0.25
vt 0.27777773 0.25
vt 0.3888888 0.08333355
vt 0.41666654 0
vt 0.33333328 0.1666668
vt 0.055555582 0.1666668
vt 2.9802322E-08 0.1666668
vt 0.22222221 0.25
vt 0.33333325 0.08333355
vt 0.36111102 0
vt 0.27777773 0.1666668
vt 0.16666666 0.25
vt 0.111111134 0.1666668
vt 0.27777773 0.08333355
vt 0.30555546 0
vt 0.22222221 0.1666668
vt 0.16666666 0.1666668
vt 0.22222221 0.08333355
vt 0.24999994 0
vt 0.16666666 0.08333355
vt 0.19444445 0
vt 0.111111134 0.08333355
vt 0.1388889 0
vt 0.055555582 0.08333355
vt 0.08333334 0
vt 2.9802322E-08 0.08333355
vt 0.02777782 0
vn -0 0.272242 0.96222883
vn 0.09311178 0.2558239 0.96222883
vn -0 0 1
vn -0 0.51070637 0.85975516
vn 0.17467187 0.47990707 0.85975516
vn 0.17499399 0.20854959 0.9622287
vn -0 0 1
vn -0.17467242 0.479907 0.8597551
vn -0.09311258 0.2558238 0.9622287
vn -0 0 1
vn -0 0.71419376 0.69994795
vn -0.24426898 0.6711226 0.699948
vn 0.3282756 0.3912239 0.8597553
vn 0.24426834 0.6711226 0.6999481
vn 0.2357689 0.13612106 0.9622287
vn -0 0 1
vn -0.32827625 0.3912237 0.8597551
vn -0.45907545 0.54710394 0.6999479
vn -0.17499433 0.20854941 0.9622287
vn -0 0 1
vn -0.29740316 0.8171082 0.49384758
vn -0 0.86954856 0.49384758
vn -0.5589351 0.66611266 0.49384767
vn 0.4590748 0.5471042 0.6999481
vn 0.44228476 0.2553532 0.85975516
vn 0.2974028 0.8171084 0.49384758
vn 0.26810658 0.04727433 0.9622286
vn -0 0 1
vn -0.3306878 0.90855694 0.25528395
vn -0.62148964 0.7406624 0.25528407
vn -0 0.96686614 0.25528386
vn -0.75305104 0.43477407 0.49384785
vn -0.83733064 0.48343286 0.2552841
vn -0.6185103 0.35709667 0.6999479
vn -0.4422851 0.25535303 0.8597551
vn -0.23576877 0.1361209 0.9622287
vn -0 0 1
vn -0.64278775 0.7660443 0
vn -0.34202027 0.93969256 0
vn -0.8660256 0.49999964 0
vn -0.8563381 0.15099528 0.49384776
vn -0.7033435 0.124018185 0.69994813
vn -0.5029477 0.088683054 0.85975516
vn -0.95217735 0.16789424 0.255284
vn -0.98480785 0.17364772 0
vn -0.26810628 0.047274236 0.9622287
vn -0 0 1
vn -0.70334333 -0.12401876 0.69994813
vn -0.50294757 -0.08868339 0.8597553
vn -0.2681065 -0.047274355 0.9622287
vn -0 0 1
vn -0.8563381 -0.15099575 0.4938476
vn -0.9521772 -0.16789488 0.255284
vn -0.9848077 -0.17364855 0
vn -0.9521771 -0.1678948 -0.25528428
vn -0.9521772 0.16789417 -0.2552843
vn -0.8563378 -0.15099582 -0.49384788
vn -0.8563379 0.1509952 -0.49384812
vn -0.70334387 -0.12401882 -0.6999476
vn -0.83733064 0.4834327 -0.2552844
vn -0.703344 0.1240182 -0.69994766
vn -0.5029478 -0.088683456 -0.859755
vn -0.7530509 0.43477383 -0.49384806
vn -0.6214896 0.7406622 -0.25528428
vn -0.5029479 0.08868305 -0.859755
vn -0.26810622 -0.04727444 -0.9622287
vn -0.6185105 0.35709682 -0.69994766
vn -0.558935 0.6661125 -0.49384803
vn -0.33068782 0.9085568 -0.2552842
vn -0.2681063 0.047274277 -0.9622287
vn -0 0 -1
vn -0.44228506 0.25535318 -0.859755
vn -0.45907548 0.5471043 -0.69994766
vn -0.2357687 0.13612108 -0.9622287
vn -0 0 -1
vn -0.3282761 0.39122385 -0.859755
vn -0.29740334 0.8171081 -0.49384794
vn -0 1 0
vn -0.17499396 0.20854963 -0.9622287
vn -0 0 -1
vn -0.24426907 0.67112285 -0.69994766
vn -0 0.966866 -0.25528422
vn 0.3306873 0.9085571 0.25528386
vn -0.17467213 0.47990718 -0.859755
vn -0 0.86954826 -0.49384788
vn 0.34201992 0.9396926 0
vn 0.5589349 0.66611284 0.49384752
vn -0.09311236 0.25582403 -0.9622287
vn -0 0 -1
vn -0 0.71419406 -0.6999477
vn 0.3306873 0.908557 -0.2552841
vn 0.6214895 0.7406625 0.25528383
vn 0.6185099 0.35709685 0.69994813
vn -0 0.51070666 -0.859755
vn 0.29740268 0.8171082 -0.49384788
vn 0.6427876 0.76604444 0
vn 0.7530511 0.43477428 0.49384755
vn 0.50294757 0.08868326 0.8597553
vn -0 0.27224228 -0.9622287
vn -0 0 -1
vn 0.6214896 0.74066246 -0.25528404
vn 0.8373306 0.48343313 0.25528392
vn 0.70334345 0.12401845 0.6999481
vn 0.26810616 -0.04727429 0.9622287
vn -0 0 1
vn 0.50294745 -0.08868315 0.8597553
vn 0.85633826 0.15099546 0.4938474
vn 0.86602545 0.49999997 0
vn 0.23576853 -0.13612093 0.96222883
vn -0 0 1
vn 0.7033436 -0.12401836 0.699948
vn 0.9521772 0.1678945 0.25528392
vn 0.44228476 -0.25535306 0.85975516
vn 0.85633826 -0.15099548 0.4938474
vn 0.174994 -0.20854943 0.96222883
vn -0 0 1
vn 0.6185102 -0.3570967 0.69994795
vn 0.32827574 -0.39122373 0.8597553
vn 0.09311324 -0.25582373 0.9622287
vn -0 0 1
vn 0.9848077 0.17364816 0
vn 0.95217735 -0.16789448 0.25528392
vn 0.7530513 -0.43477416 0.4938472
vn 0.45907524 -0.547104 0.69994795
vn 0.17467183 -0.47990704 0.85975516
vn 0.8373306 0.48343304 -0.255284
vn -0 -0.27224195 0.96222883
vn -0 0 1
vn 0.5589348 0.6661128 -0.4938478
vn 0.2442685 0.67112285 -0.6999479
vn 0.1746719 0.47990724 -0.8597551
vn 0.45907488 0.54710436 -0.69994795
vn 0.75305104 0.43477416 -0.49384773
vn 0.09311233 0.25582403 -0.9622287
vn -0 0 -1
vn 0.3282758 0.391224 -0.8597551
vn 0.9521772 0.16789456 -0.25528404
vn 0.61851 0.35709706 -0.69994795
vn 0.17499395 0.2085497 -0.9622287
vn -0 0 -1
vn 0.44228476 0.2553534 -0.8597551
vn 0.8563381 0.15099542 -0.49384764
vn 0.9848077 -0.17364824 0
vn 0.23576868 0.13612117 -0.9622287
vn -0 0 -1
vn 0.70334375 0.12401852 -0.6999479
vn 0.9521772 -0.16789451 -0.25528404
vn 0.83733064 -0.48343295 0.25528395
vn 0.50294775 0.088683374 -0.8597551
vn 0.85633814 -0.15099548 -0.49384752
vn 0.8660255 -0.4999999 0
vn 0.55893534 -0.66611284 0.49384725
vn 0.26810625 0.047274426 -0.9622287
vn -0 0 -1
vn 0.7033438 -0.12401836 -0.6999478
vn 0.83733076 -0.48343292 -0.25528404
vn 0.6214896 -0.7406624 0.25528404
vn 0.24426891 -0.6711227 0.69994783
vn 0.5029478 -0.08868314 -0.8597551
vn 0.75305116 -0.43477428 -0.49384743
vn 0.64278775 -0.7660443 0
vn 0.29740337 -0.8171084 0.49384725
vn -0 -0.51070637 0.85975516
vn 0.26810628 -0.04727427 -0.9622287
vn -0 0 -1
vn 0.62148976 -0.7406622 -0.2552842
vn 0.33068767 -0.90855694 0.25528395
vn -0 -0.714194 0.6999478
vn -0.09311242 -0.25582382 0.96222883
vn -0 0 1
vn -0.17467155 -0.47990724 0.85975516
vn -0 -0.8695487 0.49384722
vn 0.34202015 -0.93969256 0
vn -0.17499408 -0.20854945 0.9622287
vn -0 0 1
vn -0.24426854 -0.6711229 0.6999478
vn -0 -0.96686614 0.25528398
vn -0.3282757 -0.3912238 0.8597553
vn -0.29740292 -0.81710845 0.49384737
vn -0.23576903 -0.13612095 0.9622287
vn -0 0 1
vn -0.4590749 -0.5471044 0.69994783
vn -0.44228464 -0.2553532 0.85975516
vn -0.2681065 -0.047274355 0.9622287
vn -0 0 1
vn -0.50294757 -0.08868339 0.8597553
vn -0.61850995 -0.3570972 0.69994783
vn -0.70334333 -0.12401876 0.69994813
vn -0.5589349 -0.66611296 0.49384725
vn -0.75305104 -0.43477452 0.49384746
vn -0.8563381 -0.15099575 0.4938476
vn -0.33068743 -0.908557 0.25528404
vn -0.6214894 -0.7406625 0.25528404
vn -0.8373304 -0.48343334 0.25528407
vn -0.9521772 -0.16789488 0.255284
vn -0 -1 0
vn -0.34201995 -0.9396926 0
vn -0.64278746 -0.7660445 0
vn -0.86602527 -0.5000004 0
vn -0.9848077 -0.17364855 0
vn 0.33068776 -0.90855694 -0.25528422
vn -0 -0.966866 -0.25528416
vn -0.33068752 -0.908557 -0.25528416
vn -0.6214894 -0.74066246 -0.2552842
vn -0.8373304 -0.48343334 -0.25528422
vn -0.9521771 -0.1678948 -0.25528428
vn 0.5589351 -0.6661128 -0.4938475
vn 0.29740322 -0.8171082 -0.49384758
vn -0 -0.8695485 -0.49384758
vn -0.29740292 -0.81710833 -0.4938476
vn -0.5589349 -0.66611284 -0.4938476
vn -0.75305086 -0.43477446 -0.49384773
vn -0.8563378 -0.15099582 -0.49384788
vn 0.6185103 -0.35709697 -0.6999478
vn 0.4590752 -0.5471043 -0.6999477
vn 0.44228494 -0.25535315 -0.8597551
vn -0.6185102 -0.35709724 -0.69994766
vn -0.70334387 -0.12401882 -0.6999476
vn -0.45907503 -0.5471046 -0.6999476
vn 0.24426886 -0.67112285 -0.69994766
vn 0.23576868 -0.13612102 -0.9622287
vn -0 0 -1
vn 0.32827598 -0.39122388 -0.8597551
vn -0.44228488 -0.25535336 -0.859755
vn -0.5029478 -0.088683456 -0.859755
vn -0 -0.71419406 -0.69994766
vn 0.17499393 -0.20854962 -0.9622287
vn -0 0 -1
vn 0.174672 -0.4799072 -0.8597551
vn -0.24426857 -0.671123 -0.69994766
vn -0.3282758 -0.39122403 -0.8597551
vn 0.093112335 -0.25582403 -0.9622287
vn -0 0 -1
vn -0 -0.5107066 -0.859755
vn -0.17467177 -0.4799073 -0.8597551
vn -0 -0.27224222 -0.9622287
vn -0 0 -1
vn -0.09311222 -0.25582403 -0.9622287
vn -0 0 -1
vn -0.17499387 -0.20854965 -0.9622287
vn -0 0 -1
vn -0.23576865 -0.13612117 -0.9622287
vn -0 0 -1
vn -0.26810622 -0.04727444 -0.9622287
vn -0 0 -1
g Body.001_0
f 3/3/3 2/2/2 1/1/1
f 1/1/1 2/2/2 4/4/4
f 2/2/2 5/5/5 4/4/4
f 2/2/2 6/6/6 5/5/5
f 7/7/7 6/6/6 2/2/2
f 1/1/1 4/4/4 8/8/8
f 9/9/9 1/1/1 8/8/8
f 10/10/10 1/1/1 9/9/9
f 4/4/4 5/5/5 11/11/11
f 8/8/8 4/4/4 12/12/12
f 4/4/4 11/11/11 12/12/12
f 6/6/6 13/13/13 5/5/5
f 5/5/5 14/14/14 11/11/11
f 5/5/5 13/13/13 14/14/14
f 6/6/6 15/15/15 13/13/13
f 16/16/16 15/15/15 6/6/6
f 9/9/9 8/8/8 17/17/17
f 8/8/8 12/12/12 18/18/18
f 17/17/17 8/8/8 18/18/18
f 19/19/19 9/9/9 17/17/17
f 20/20/20 9/9/9 19/19/19
f 12/12/12 11/11/11 21/21/21
f 11/11/11 14/14/14 22/22/22
f 11/11/11 22/22/22 21/21/21
f 18/18/18 12/12/12 23/23/23
f 12/12/12 21/21/21 23/23/23
f 13/13/13 24/24/24 14/14/14
f 15/15/15 25/25/25 13/13/13
f 13/13/13 25/25/25 24/24/24
f 14/14/14 26/26/26 22/22/22
f 14/14/14 24/24/24 26/26/26
f 15/15/15 27/27/27 25/25/25
f 28/28/28 27/27/27 15/15/15
f 21/21/21 22/22/22 29/29/29
f 23/23/23 21/21/21 30/30/30
f 21/21/21 29/29/29 30/30/30
f 22/22/22 26/26/26 31/31/31
f 22/22/22 31/31/31 29/29/29
f 18/18/18 23/23/23 32/32/32
f 23/23/23 30/30/30 33/33/33
f 32/32/32 23/23/23 33/33/33
f 34/34/34 18/18/18 32/32/32
f 17/17/17 18/18/18 34/34/34
f 35/35/35 17/17/17 34/34/34
f 19/19/19 17/17/17 35/35/35
f 36/36/36 19/19/19 35/35/35
f 37/37/37 19/19/19 36/36/36
f 30/30/30 29/29/29 38/38/38
f 29/29/29 31/31/31 39/39/39
f 29/29/29 39/39/39 38/38/38
f 33/33/33 30/30/30 40/40/40
f 30/30/30 38/38/38 40/40/40
f 34/34/34 32/32/32 41/41/41
f 35/35/35 34/34/34 42/42/42
f 42/42/42 34/34/34 41/41/41
f 36/36/36 35/35/35 43/43/43
f 43/43/43 35/35/35 42/42/42
f 32/32/32 33/33/33 44/44/44
f 41/41/41 32/32/32 44/44/44
f 33/33/33 40/40/40 45/45/45
f 44/44/44 33/33/33 45/45/45
f 46/46/46 36/36/36 43/43/43
f 47/47/47 36/36/36 46/46/46
f 43/43/43 42/42/42 48/48/48
f 49/49/49 43/43/43 48/48/48
f 46/46/46 43/43/43 49/49/49
f 50/50/50 46/46/46 49/49/49
f 51/51/51 46/46/46 50/50/50
f 48/48/48 42/42/42 52/52/52
f 42/42/42 41/41/41 52/52/52
f 52/52/52 41/41/41 53/53/53
f 41/41/41 44/44/44 53/53/53
f 53/53/53 44/44/44 54/54/54
f 44/44/44 45/45/45 54/54/54
f 54/54/54 45/45/45 55/55/55
f 45/45/45 56/56/56 55/55/55
f 55/55/55 56/56/56 57/57/57
f 45/45/45 40/40/40 56/56/56
f 56/56/56 58/58/58 57/57/57
f 57/57/57 58/58/58 59/59/59
f 40/40/40 60/60/60 56/56/56
f 56/56/56 60/60/60 58/58/58
f 40/40/40 38/38/38 60/60/60
f 58/58/58 61/61/61 59/59/59
f 59/59/59 61/61/61 62/62/62
f 60/60/60 63/63/63 58/58/58
f 58/58/58 63/63/63 61/61/61
f 38/38/38 64/64/64 60/60/60
f 60/60/60 64/64/64 63/63/63
f 38/38/38 39/39/39 64/64/64
f 61/61/61 65/65/65 62/62/62
f 62/62/62 65/65/65 66/66/66
f 63/63/63 67/67/67 61/61/61
f 61/61/61 67/67/67 65/65/65
f 64/64/64 68/68/68 63/63/63
f 63/63/63 68/68/68 67/67/67
f 39/39/39 69/69/69 64/64/64
f 64/64/64 69/69/69 68/68/68
f 65/65/65 70/70/70 66/66/66
f 66/66/66 70/70/70 71/71/71
f 67/67/67 72/72/72 65/65/65
f 65/65/65 72/72/72 70/70/70
f 68/68/68 73/73/73 67/67/67
f 67/67/67 73/73/73 72/72/72
f 72/72/72 74/74/74 70/70/70
f 70/70/70 74/74/74 75/75/75
f 72/72/72 76/76/76 74/74/74
f 73/73/73 76/76/76 72/72/72
f 68/68/68 77/77/77 73/73/73
f 69/69/69 77/77/77 68/68/68
f 39/39/39 78/78/78 69/69/69
f 31/31/31 78/78/78 39/39/39
f 76/76/76 79/79/79 74/74/74
f 74/74/74 79/79/79 80/80/80
f 73/73/73 81/81/81 76/76/76
f 77/77/77 81/81/81 73/73/73
f 69/69/69 82/82/82 77/77/77
f 78/78/78 82/82/82 69/69/69
f 31/31/31 83/83/83 78/78/78
f 26/26/26 83/83/83 31/31/31
f 76/76/76 84/84/84 79/79/79
f 81/81/81 84/84/84 76/76/76
f 77/77/77 85/85/85 81/81/81
f 82/82/82 85/85/85 77/77/77
f 78/78/78 86/86/86 82/82/82
f 83/83/83 86/86/86 78/78/78
f 26/26/26 87/87/87 83/83/83
f 24/24/24 87/87/87 26/26/26
f 84/84/84 88/88/88 79/79/79
f 79/79/79 88/88/88 89/89/89
f 81/81/81 90/90/90 84/84/84
f 85/85/85 90/90/90 81/81/81
f 82/82/82 91/91/91 85/85/85
f 86/86/86 91/91/91 82/82/82
f 83/83/83 92/92/92 86/86/86
f 87/87/87 92/92/92 83/83/83
f 24/24/24 93/93/93 87/87/87
f 25/25/25 93/93/93 24/24/24
f 84/84/84 94/94/94 88/88/88
f 90/90/90 94/94/94 84/84/84
f 85/85/85 95/95/95 90/90/90
f 91/91/91 95/95/95 85/85/85
f 86/86/86 96/96/96 91/91/91
f 92/92/92 96/96/96 86/86/86
f 87/87/87 97/97/97 92/92/92
f 93/93/93 97/97/97 87/87/87
f 25/25/25 98/98/98 93/93/93
f 27/27/27 98/98/98 25/25/25
f 94/94/94 99/99/99 88/88/88
f 88/88/88 99/99/99 100/100/100
f 91/91/91 101/101/101 95/95/95
f 96/96/96 101/101/101 91/91/91
f 92/92/92 102/102/102 96/96/96
f 97/97/97 102/102/102 92/92/92
f 93/93/93 103/103/103 97/97/97
f 98/98/98 103/103/103 93/93/93
f 27/27/27 104/104/104 98/98/98
f 105/105/105 104/104/104 27/27/27
f 104/104/104 106/106/106 98/98/98
f 98/98/98 106/106/106 103/103/103
f 103/103/103 107/107/107 97/97/97
f 97/97/97 107/107/107 102/102/102
f 102/102/102 108/108/108 96/96/96
f 96/96/96 108/108/108 101/101/101
f 104/104/104 109/109/109 106/106/106
f 110/110/110 109/109/109 104/104/104
f 106/106/106 111/111/111 103/103/103
f 103/103/103 111/111/111 107/107/107
f 107/107/107 112/112/112 102/102/102
f 102/102/102 112/112/112 108/108/108
f 109/109/109 113/113/113 106/106/106
f 106/106/106 113/113/113 111/111/111
f 111/111/111 114/114/114 107/107/107
f 107/107/107 114/114/114 112/112/112
f 109/109/109 115/115/115 113/113/113
f 116/116/116 115/115/115 109/109/109
f 113/113/113 117/117/117 111/111/111
f 111/111/111 117/117/117 114/114/114
f 115/115/115 118/118/118 113/113/113
f 113/113/113 118/118/118 117/117/117
f 115/115/115 119/119/119 118/118/118
f 120/120/120 119/119/119 115/115/115
f 112/112/112 121/121/121 108/108/108
f 114/114/114 122/122/122 112/112/112
f 112/112/112 122/122/122 121/121/121
f 117/117/117 123/123/123 114/114/114
f 114/114/114 123/123/123 122/122/122
f 118/118/118 124/124/124 117/117/117
f 117/117/117 124/124/124 123/123/123
f 119/119/119 125/125/125 118/118/118
f 118/118/118 125/125/125 124/124/124
f 108/108/108 121/121/121 126/126/126
f 108/108/108 126/126/126 101/101/101
f 119/119/119 127/127/127 125/125/125
f 128/128/128 127/127/127 119/119/119
f 101/101/101 126/126/126 129/129/129
f 101/101/101 129/129/129 95/95/95
f 95/95/95 129/129/129 130/130/130
f 95/95/95 130/130/130 90/90/90
f 90/90/90 130/130/130 94/94/94
f 130/130/130 131/131/131 94/94/94
f 94/94/94 131/131/131 99/99/99
f 129/129/129 132/132/132 130/130/130
f 130/130/130 132/132/132 131/131/131
f 126/126/126 133/133/133 129/129/129
f 129/129/129 133/133/133 132/132/132
f 131/131/131 134/134/134 99/99/99
f 99/99/99 134/134/134 135/135/135
f 132/132/132 136/136/136 131/131/131
f 131/131/131 136/136/136 134/134/134
f 126/126/126 137/137/137 133/133/133
f 121/121/121 137/137/137 126/126/126
f 133/133/133 138/138/138 132/132/132
f 132/132/132 138/138/138 136/136/136
f 136/136/136 139/139/139 134/134/134
f 134/134/134 139/139/139 140/140/140
f 136/136/136 141/141/141 139/139/139
f 138/138/138 141/141/141 136/136/136
f 133/133/133 142/142/142 138/138/138
f 137/137/137 142/142/142 133/133/133
f 121/121/121 143/143/143 137/137/137
f 122/122/122 143/143/143 121/121/121
f 141/141/141 144/144/144 139/139/139
f 139/139/139 144/144/144 145/145/145
f 138/138/138 146/146/146 141/141/141
f 142/142/142 146/146/146 138/138/138
f 137/137/137 147/147/147 142/142/142
f 143/143/143 147/147/147 137/137/137
f 122/122/122 148/148/148 143/143/143
f 123/123/123 148/148/148 122/122/122
f 141/141/141 149/149/149 144/144/144
f 146/146/146 149/149/149 141/141/141
f 142/142/142 150/150/150 146/146/146
f 147/147/147 150/150/150 142/142/142
f 143/143/143 151/151/151 147/147/147
f 148/148/148 151/151/151 143/143/143
f 123/123/123 152/152/152 148/148/148
f 124/124/124 152/152/152 123/123/123
f 149/149/149 153/153/153 144/144/144
f 144/144/144 153/153/153 154/154/154
f 146/146/146 155/155/155 149/149/149
f 150/150/150 155/155/155 146/146/146
f 147/147/147 156/156/156 150/150/150
f 151/151/151 156/156/156 147/147/147
f 148/148/148 157/157/157 151/151/151
f 152/152/152 157/157/157 148/148/148
f 124/124/124 158/158/158 152/152/152
f 125/125/125 158/158/158 124/124/124
f 149/149/149 159/159/159 153/153/153
f 155/155/155 159/159/159 149/149/149
f 150/150/150 160/160/160 155/155/155
f 156/156/156 160/160/160 150/150/150
f 151/151/151 161/161/161 156/156/156
f 157/157/157 161/161/161 151/151/151
f 152/152/152 162/162/162 157/157/157
f 158/158/158 162/162/162 152/152/152
f 125/125/125 163/163/163 158/158/158
f 127/127/127 163/163/163 125/125/125
f 159/159/159 164/164/164 153/153/153
f 153/153/153 164/164/164 165/165/165
f 156/156/156 166/166/166 160/160/160
f 161/161/161 166/166/166 156/156/156
f 157/157/157 167/167/167 161/161/161
f 162/162/162 167/167/167 157/157/157
f 158/158/158 168/168/168 162/162/162
f 163/163/163 168/168/168 158/158/158
f 127/127/127 169/169/169 163/163/163
f 170/170/170 169/169/169 127/127/127
f 169/169/169 171/171/171 163/163/163
f 163/163/163 171/171/171 168/168/168
f 168/168/168 172/172/172 162/162/162
f 162/162/162 172/172/172 167/167/167
f 167/167/167 173/173/173 161/161/161
f 161/161/161 173/173/173 166/166/166
f 169/169/169 174/174/174 171/171/171
f 175/175/175 174/174/174 169/169/169
f 171/171/171 176/176/176 168/168/168
f 168/168/168 176/176/176 172/172/172
f 172/172/172 177/177/177 167/167/167
f 167/167/167 177/177/177 173/173/173
f 174/174/174 178/178/178 171/171/171
f 171/171/171 178/178/178 176/176/176
f 176/176/176 179/179/179 172/172/172
f 172/172/172 179/179/179 177/177/177
f 174/174/174 180/180/180 178/178/178
f 181/181/181 180/180/180 174/174/174
f 178/178/178 182/182/182 176/176/176
f 176/176/176 182/182/182 179/179/179
f 180/180/180 183/183/183 178/178/178
f 178/178/178 183/183/183 182/182/182
f 180/180/180 184/184/184 183/183/183
f 185/185/185 184/184/184 180/180/180
f 184/184/184 186/186/186 183/183/183
f 183/183/183 186/186/186 187/187/187
f 183/183/183 187/187/187 182/182/182
f 186/186/186 188/188/188 187/187/187
f 182/182/182 189/189/189 179/179/179
f 182/182/182 187/187/187 189/189/189
f 187/187/187 188/188/188 190/190/190
f 187/187/187 190/190/190 189/189/189
f 188/188/188 191/191/191 190/190/190
f 179/179/179 189/189/189 192/192/192
f 179/179/179 192/192/192 177/177/177
f 189/189/189 190/190/190 193/193/193
f 189/189/189 193/193/193 192/192/192
f 190/190/190 191/191/191 194/194/194
f 190/190/190 194/194/194 193/193/193
f 191/191/191 195/195/195 194/194/194
f 177/177/177 192/192/192 196/196/196
f 177/177/177 196/196/196 173/173/173
f 192/192/192 193/193/193 197/197/197
f 192/192/192 197/197/197 196/196/196
f 193/193/193 194/194/194 198/198/198
f 193/193/193 198/198/198 197/197/197
f 194/194/194 195/195/195 199/199/199
f 194/194/194 199/199/199 198/198/198
f 195/195/195 200/200/200 199/199/199
f 173/173/173 196/196/196 201/201/201
f 173/173/173 201/201/201 166/166/166
f 196/196/196 197/197/197 202/202/202
f 196/196/196 202/202/202 201/201/201
f 197/197/197 198/198/198 203/203/203
f 197/197/197 203/203/203 202/202/202
f 198/198/198 199/199/199 204/204/204
f 198/198/198 204/204/204 203/203/203
f 199/199/199 200/200/200 205/205/205
f 199/199/199 205/205/205 204/204/204
f 200/200/200 206/206/206 205/205/205
f 166/166/166 201/201/201 207/207/207
f 166/166/166 207/207/207 160/160/160
f 201/201/201 202/202/202 208/208/208
f 201/201/201 208/208/208 207/207/207
f 202/202/202 203/203/203 209/209/209
f 202/202/202 209/209/209 208/208/208
f 203/203/203 204/204/204 210/210/210
f 203/203/203 210/210/210 209/209/209
f 204/204/204 205/205/205 211/211/211
f 204/204/204 211/211/211 210/210/210
f 205/205/205 206/206/206 212/212/212
f 205/205/205 212/212/212 211/211/211
f 206/206/206 213/213/213 212/212/212
f 160/160/160 207/207/207 214/214/214
f 160/160/160 214/214/214 155/155/155
f 155/155/155 214/214/214 159/159/159
f 207/207/207 208/208/208 215/215/215
f 207/207/207 215/215/215 214/214/214
f 214/214/214 216/216/216 159/159/159
f 214/214/214 215/215/215 216/216/216
f 159/159/159 216/216/216 164/164/164
f 212/212/212 213/213/213 217/217/217
f 213/213/213 218/218/218 217/217/217
f 211/211/211 212/212/212 219/219/219
f 212/212/212 217/217/217 219/219/219
f 208/208/208 220/220/220 215/215/215
f 208/208/208 209/209/209 220/220/220
f 216/216/216 221/221/221 164/164/164
f 164/164/164 221/221/221 222/222/222
f 215/215/215 223/223/223 216/216/216
f 216/216/216 223/223/223 221/221/221
f 215/215/215 220/220/220 223/223/223
f 217/217/217 218/218/218 224/224/224
f 218/218/218 225/225/225 224/224/224
f 209/209/209 226/226/226 220/220/220
f 209/209/209 210/210/210 226/226/226
f 223/223/223 227/227/227 221/221/221
f 221/221/221 227/227/227 228/228/228
f 220/220/220 229/229/229 223/223/223
f 223/223/223 229/229/229 227/227/227
f 220/220/220 226/226/226 229/229/229
f 210/210/210 230/230/230 226/226/226
f 210/210/210 211/211/211 230/230/230
f 211/211/211 219/219/219 230/230/230
f 219/219/219 217/217/217 231/231/231
f 217/217/217 224/224/224 231/231/231
f 229/229/229 232/232/232 227/227/227
f 227/227/227 232/232/232 233/233/233
f 226/226/226 234/234/234 229/229/229
f 226/226/226 230/230/230 234/234/234
f 229/229/229 234/234/234 232/232/232
f 230/230/230 219/219/219 235/235/235
f 230/230/230 235/235/235 234/234/234
f 219/219/219 231/231/231 235/235/235
f 234/234/234 236/236/236 232/232/232
f 234/234/234 235/235/235 236/236/236
f 232/232/232 236/236/236 237/237/237
f 235/235/235 238/238/238 236/236/236
f 235/235/235 231/231/231 238/238/238
f 236/236/236 238/238/238 239/239/239
f 231/231/231 240/240/240 238/238/238
f 238/238/238 240/240/240 241/241/241
f 231/231/231 224/224/224 240/240/240
f 224/224/224 242/242/242 240/240/240
f 240/240/240 242/242/242 243/243/243
f 224/224/224 225/225/225 242/242/242
f 225/225/225 244/244/244 242/242/242
f 242/242/242 244/244/244 245/245/245
