g Body.001
v 3.3473218E-09 0.0012937658 0.009872115
v 0.00044249944 0.0012157424 0.009872115
v 3.5021996E-09 -4.536162E-09 0.010042442
v 2.850742E-09 0.002499368 0.009372738
v 0.0008548395 0.0023486374 0.009372738
v 0.0008316235 0.0009910816 0.009872115
v 3.5021996E-09 -4.536162E-09 0.010042442
v -0.00085483276 0.002348637 0.009372738
v -0.0004424921 0.0012157419 0.009872115
v 3.5021996E-09 -4.536162E-09 0.010042442
v 2.0437985E-09 0.0035346416 0.008578345
v -0.0012089178 0.0033214758 0.008578345
v 0.0016065694 0.001914626 0.009372738
v 0.001208924 0.0033214765 0.008578345
v 0.0011204421 0.00064688124 0.009872115
v 3.5021996E-09 -4.536162E-09 0.010042442
v -0.0016065625 0.0019146255 0.009372738
v -0.0022720238 0.0027076902 0.008578345
v -0.0008316161 0.0009910809 0.009872115
v 3.5021996E-09 -4.536162E-09 0.010042442
v -0.0014806157 0.0040679616 0.0075430707
v 2.5403784E-09 0.0043290346 0.0075430707
v -0.0027826494 0.0033162313 0.0075430707
v 0.0022720306 0.0027076916 0.008578345
v 0.002164524 0.001249682 0.009372738
v 0.0014806227 0.0040679625 0.0075430707
v 0.0012741191 0.00022465686 0.009872115
v 3.5021996E-09 -4.536162E-09 0.010042442
v -0.0016514128 0.004537222 0.006337469
v -0.003103643 0.0036987762 0.006337469
v 2.5403784E-09 0.004828411 0.006337469
v -0.0037490544 0.002164514 0.0075430707
v -0.004181528 0.0024142028 0.006337469
v -0.0030610897 0.0017673172 0.008578345
v -0.0021645166 0.0012496812 0.009372738
v -0.0011204344 0.0006468804 0.009872115
v 3.5021996E-09 -4.536162E-09 0.010042442
v -0.003213128 0.0038292545 0.0050436994
v -0.0017096685 0.004697277 0.0050436994
v -0.004329036 0.0024993664 0.0050436994
v -0.0042632674 0.00075172435 0.0075430707
v -0.0034809427 0.0006137787 0.008578345
v -0.0024613976 0.00043400636 0.009372738
v -0.004755058 0.0008384403 0.006337469
v -0.004922798 0.0008680172 0.0050436994
v -0.0012741112 0.0002246561 0.009872115
v 3.5021996E-09 -4.536162E-09 0.010042442
v -0.0034809425 -0.00061379076 0.008578345
v -0.0024613976 -0.00043401655 0.009372738
v -0.0012741111 -0.00022466558 0.009872115
v 3.5021996E-09 -4.536162E-09 0.010042442
v -0.004263267 -0.00075173494 0.0075430707
v -0.0047550574 -0.00083845085 0.006337469
v -0.0049227974 -0.00086802826 0.0050436994
v -0.0047550574 -0.00083845085 0.003749929
v -0.004755058 0.0008384403 0.003749929
v -0.004263266 -0.00075173524 0.0025443274
v -0.0042632665 0.00075172377 0.0025443274
v -0.0034809425 -0.00061379076 0.0015090536
v -0.004181528 0.0024142028 0.003749929
v -0.0034809427 0.0006137787 0.0015090536
v -0.0024613976 -0.0004340168 0.0007146603
v -0.0037490537 0.0021645133 0.0025443274
v -0.003103643 0.0036987762 0.003749929
v -0.002461398 0.0004340062 0.0007146603
v -0.0012741117 -0.00022466553 0.00021528381
v -0.0030610897 0.0017673172 0.0015090536
v -0.0027826487 0.0033162301 0.0025443274
v -0.0016514128 0.004537222 0.003749929
v -0.0012741118 0.00022465638 0.00021528381
v 3.8806562E-09 -4.31766E-09 4.4955446E-05
v -0.002164517 0.0012496812 0.0007146603
v -0.0022720238 0.0027076902 0.0015090536
v -0.0011204347 0.000646881 0.00021528381
v 3.8806562E-09 -4.31766E-09 4.4955446E-05
v -0.0016065629 0.0019146255 0.0007146603
v -0.0014806156 0.00406796 0.0025443274
v 2.2920887E-09 0.0049987393 0.0050436994
v -0.0008316163 0.0009910816 0.00021528381
v 3.8806562E-09 -4.31766E-09 4.4955446E-05
v -0.0012089178 0.0033214758 0.0015090536
v 2.5403784E-09 0.004828411 0.003749929
v 0.0016514192 0.0045372234 0.006337469
v -0.0008548331 0.0023486374 0.0007146603
v 2.416233E-09 0.0043290337 0.0025443274
v 0.001709675 0.0046972786 0.0050436994
v 0.0027826568 0.0033162327 0.0075430707
v -0.00044249205 0.0012157426 0.00021528381
v 3.8806562E-09 -4.31766E-09 4.4955446E-05
v 2.0437985E-09 0.0035346416 0.0015090536
v 0.0016514192 0.0045372234 0.003749929
v 0.00310365 0.0036987774 0.006337469
v 0.003061097 0.0017673189 0.008578345
v 3.8806562E-09 0.0024993683 0.0007146603
v 0.0014806224 0.0040679616 0.0025443274
v 0.0032131344 0.003829256 0.0050436994
v 0.0037490623 0.002164516 0.0075430707
v 0.0024614052 0.0004340074 0.009372738
v 3.8806562E-09 0.0012937667 0.00021528381
v 3.8806562E-09 -4.31766E-09 4.4955446E-05
v 0.00310365 0.0036987774 0.003749929
v 0.004181534 0.0024142044 0.006337469
v 0.0034809508 0.00061378087 0.008578345
v 0.0012741191 -0.00022466494 0.009872115
v 3.5021996E-09 -4.536162E-09 0.010042442
v 0.0024614052 -0.00043401553 0.009372738
v 0.0042632753 0.00075172586 0.0075430707
v 0.0043290434 0.002499368 0.0050436994
v 0.0011204422 -0.00064688927 0.009872115
v 3.5021996E-09 -4.536162E-09 0.010042442
v 0.003480951 -0.0006137888 0.008578345
v 0.004755065 0.0008384421 0.006337469
v 0.0021645243 -0.0012496903 0.009372738
v 0.0042632753 -0.0007517338 0.0075430707
v 0.0008316237 -0.0009910897 0.009872115
v 3.5021996E-09 -4.536162E-09 0.010042442
v 0.0030610978 -0.0017673268 0.008578345
v 0.0016065701 -0.0019146345 0.009372738
v 0.00044249976 -0.0012157508 0.009872115
v 3.5021996E-09 -4.536162E-09 0.010042442
v 0.004922806 0.00086801883 0.0050436994
v 0.004755065 -0.00083844905 0.006337469
v 0.0037490623 -0.0021645236 0.0075430707
v 0.0022720315 -0.0027077 0.008578345
v 0.00085484004 -0.0023486463 0.009372738
v 0.004181534 0.0024142044 0.003749929
v 4.2163375E-09 -0.0012937747 0.009872115
v 3.5021996E-09 -4.536162E-09 0.010042442
v 0.0027826566 0.003316232 0.0025443274
v 0.001208924 0.0033214765 0.0015090536
v 0.00085483957 0.002348638 0.0007146603
v 0.0022720306 0.0027076916 0.0015090536
v 0.003749062 0.0021645154 0.0025443274
v 0.0004424996 0.0012157428 0.00021528381
v 3.8806562E-09 -4.31766E-09 4.4955446E-05
v 0.0016065694 0.0019146263 0.0007146603
v 0.004755065 0.0008384421 0.003749929
v 0.003061097 0.0017673189 0.0015090536
v 0.0008316237 0.0009910818 0.00021528381
v 3.8806562E-09 -4.31766E-09 4.4955446E-05
v 0.002164524 0.0012496823 0.0007146603
v 0.004263275 0.00075172563 0.0025443274
v 0.004922806 -0.0008680266 0.0050436994
v 0.0011204423 0.0006468813 0.00021528381
v 3.8806562E-09 -4.31766E-09 4.4955446E-05
v 0.0034809508 0.00061378087 0.0015090536
v 0.004755065 -0.00083844905 0.003749929
v 0.004181534 -0.0024142112 0.006337469
v 0.0024614052 0.00043400755 0.0007146603
v 0.004263275 -0.0007517338 0.0025443274
v 0.0043290434 -0.0024993757 0.0050436994
v 0.0027826573 -0.0033162402 0.0075430707
v 0.0012741195 0.00022465686 0.00021528381
v 3.8806562E-09 -4.31766E-09 4.4955446E-05
v 0.003480951 -0.0006137888 0.0015090536
v 0.004181534 -0.0024142112 0.003749929
v 0.0031036502 -0.0036987844 0.006337469
v 0.0012089252 -0.0033214851 0.008578345
v 0.0024614057 -0.00043401547 0.0007146603
v 0.003749062 -0.0021645234 0.0025443274
v 0.0032131353 -0.0038292638 0.0050436994
v 0.0014806235 -0.00406797 0.0075430707
v 4.3404835E-09 -0.0024993771 0.009372738
v 0.0012741196 -0.00022466504 0.00021528381
v 3.8806562E-09 -4.31766E-09 4.4955446E-05
v 0.0031036502 -0.0036987844 0.003749929
v 0.0016514199 -0.0045372304 0.006337469
v 5.0232813E-09 -0.0035346504 0.008578345
v -0.00044249135 -0.001215751 0.009872115
v 3.5021996E-09 -4.536162E-09 0.010042442
v -0.0008548315 -0.002348647 0.009372738
v 4.899136E-09 -0.0043290434 0.0075430707
v 0.0017096759 -0.004697286 0.0050436994
v -0.0008316154 -0.0009910902 0.009872115
v 3.5021996E-09 -4.536162E-09 0.010042442
v -0.0012089153 -0.003321486 0.008578345
v 4.774991E-09 -0.004828419 0.006337469
v -0.0016065617 -0.0019146354 0.009372738
v -0.0014806136 -0.004067971 0.0075430707
v -0.001120434 -0.0006468898 0.009872115
v 3.5021996E-09 -4.536162E-09 0.010042442
v -0.0022720217 -0.0027077012 0.008578345
v -0.0021645164 -0.0012496912 0.009372738
v -0.0012741111 -0.00022466558 0.009872115
v 3.5021996E-09 -4.536162E-09 0.010042442
v -0.0024613976 -0.00043401655 0.009372738
v -0.0030610885 -0.0017673286 0.008578345
v -0.0034809425 -0.00061379076 0.008578345
v -0.0027826477 -0.003316241 0.0075430707
v -0.0037490528 -0.0021645245 0.0075430707
v -0.004263267 -0.00075173494 0.0075430707
v -0.0016514105 -0.0045372313 0.006337469
v -0.0031036406 -0.0036987858 0.006337469
v -0.004181526 -0.002414213 0.006337469
v -0.0047550574 -0.00083845085 0.006337469
v 4.899136E-09 -0.0049987477 0.0050436994
v -0.0017096661 -0.0046972875 0.0050436994
v -0.0032131253 -0.0038292645 0.0050436994
v -0.0043290346 -0.0024993771 0.0050436994
v -0.0049227974 -0.00086802826 0.0050436994
v 0.0016514199 -0.0045372304 0.003749929
v 4.774991E-09 -0.004828419 0.003749929
v -0.0016514105 -0.0045372313 0.003749929
v -0.0031036406 -0.0036987858 0.003749929
v -0.004181526 -0.002414213 0.003749929
v -0.0047550574 -0.00083845085 0.003749929
v 0.0027826568 -0.00331624 0.0025443274
v 0.0014806231 -0.00406797 0.0025443274
v 4.899136E-09 -0.004329043 0.0025443274
v -0.0014806134 -0.00406797 0.0025443274
v -0.0027826473 -0.0033162406 0.0025443274
v -0.0037490523 -0.0021645243 0.0025443274
v -0.004263266 -0.00075173524 0.0025443274
v 0.0030610978 -0.0017673268 0.0015090536
v 0.0022720315 -0.0027077 0.0015090536
v 0.002164525 -0.0012496903 0.0007146603
v -0.0030610885 -0.0017673286 0.0015090536
v -0.0034809425 -0.00061379076 0.0015090536
v -0.0022720217 -0.0027077012 0.0015090536
v 0.0012089252 -0.0033214851 0.0015090536
v 0.0011204425 -0.00064688956 0.00021528381
v 3.8806562E-09 -4.31766E-09 4.4955446E-05
v 0.0016065704 -0.0019146348 0.0007146603
v -0.0021645164 -0.0012496916 0.0007146603
v -0.0024613976 -0.0004340168 0.0007146603
v 5.0232813E-09 -0.0035346504 0.0015090536
v 0.00083162397 -0.0009910902 0.00021528381
v 3.8806562E-09 -4.31766E-09 4.4955446E-05
v 0.0008548404 -0.0023486465 0.0007146603
v -0.0012089153 -0.003321486 0.0015090536
v -0.0016065615 -0.0019146355 0.0007146603
v 0.00044249982 -0.0012157512 0.00021528381
v 3.8806562E-09 -4.31766E-09 4.4955446E-05
v 4.588774E-09 -0.0024993771 0.0007146603
v -0.0008548313 -0.002348647 0.0007146603
v 4.154265E-09 -0.0012937752 0.00021528381
v 3.8806562E-09 -4.31766E-09 4.4955446E-05
v -0.0004424915 -0.0012157513 0.00021528381
v 3.8806562E-09 -4.31766E-09 4.4955446E-05
v -0.00083161576 -0.0009910903 0.00021528381
v 3.8806562E-09 -4.31766E-09 4.4955446E-05
v -0.0011204345 -0.00064688997 0.00021528381
v 3.8806562E-09 -4.31766E-09 4.4955446E-05
v -0.0012741117 -0.00022466553 0.00021528381
v 3.8806562E-09 -4.31766E-09 4.4955446E-05
vt 0.7222222 0.9166666
vt 0.66666657 0.9166666
vt 0.6944444 1
vt 0.7222222 0.8333334
vt 0.66666657 0.8333334
vt 0.611111 0.9166666
vt 0.6388888 1
vt 0.77777773 0.8333333
vt 0.77777773 0.9166666
vt 0.75000006 1
vt 0.72222227 0.75
vt 0.7777778 0.75
vt 0.61111104 0.8333333
vt 0.66666657 0.75
vt 0.55555546 0.9166666
vt 0.5833332 1
vt 0.8333333 0.8333333
vt 0.8333333 0.75
vt 0.8333333 0.9166666
vt 0.8055556 1
vt 0.77777773 0.6666666
vt 0.72222215 0.66666675
vt 0.8333333 0.6666666
vt 0.61111104 0.75
vt 0.55555546 0.8333333
vt 0.66666657 0.6666666
vt 0.49999988 0.9166666
vt 0.5277777 1
vt 0.77777773 0.5833334
vt 0.8333333 0.5833334
vt 0.72222215 0.5833334
vt 0.8888889 0.6666666
vt 0.8888889 0.5833334
vt 0.8888889 0.75
vt 0.8888889 0.8333333
vt 0.8888889 0.9166666
vt 0.86111116 1
vt 0.8333333 0.5
vt 0.77777773 0.5
vt 0.8888889 0.5
vt 0.9444444 0.6666666
vt 0.9444445 0.75
vt 0.9444445 0.8333333
vt 0.9444444 0.5833334
vt 0.9444444 0.5
vt 0.9444445 0.9166666
vt 0.9166667 1
vt 1 0.75
vt 1 0.8333333
vt 1 0.9166666
vt 0.97222227 1
vt 1 0.6666666
vt 1 0.5833334
vt 1 0.5
vt 1 0.4166667
vt 0.9444444 0.4166667
vt 1 0.33333325
vt 0.9444444 0.33333325
vt 1 0.25
vt 0.8888889 0.4166667
vt 0.9444445 0.25
vt 1 0.1666668
vt 0.8888889 0.33333325
vt 0.8333333 0.4166667
vt 0.9444445 0.16666669
vt 1 0.08333355
vt 0.8888889 0.25
vt 0.8333333 0.33333325
vt 0.77777773 0.4166667
vt 0.9444445 0.08333355
vt 0.97222227 0
vt 0.8888889 0.16666669
vt 0.8333333 0.25
vt 0.8888889 0.08333337
vt 0.9166667 0
vt 0.8333333 0.16666669
vt 0.77777773 0.33333325
vt 0.72222215 0.5
vt 0.8333333 0.08333337
vt 0.8611111 0
vt 0.7777778 0.25
vt 0.72222215 0.4166667
vt 0.66666657 0.5833334
vt 0.7777778 0.16666669
vt 0.72222215 0.33333325
vt 0.66666657 0.5
vt 0.61111104 0.6666666
vt 0.77777773 0.08333337
vt 0.8055555 0
vt 0.72222227 0.25
vt 0.66666657 0.4166667
vt 0.61111104 0.5833334
vt 0.55555546 0.75
vt 0.72222215 0.16666669
vt 0.66666657 0.3333333
vt 0.61111104 0.5
vt 0.55555546 0.6666666
vt 0.49999994 0.8333333
vt 0.72222215 0.08333337
vt 0.74999994 0
vt 0.61111104 0.4166667
vt 0.5555555 0.5833334
vt 0.49999994 0.75
vt 0.44444436 0.9166666
vt 0.4722221 1
vt 0.44444436 0.8333333
vt 0.49999994 0.6666666
vt 0.55555546 0.5
vt 0.3888888 0.9166666
vt 0.41666654 1
vt 0.44444436 0.75
vt 0.49999994 0.5833334
vt 0.3888888 0.83333325
vt 0.44444436 0.6666666
vt 0.33333325 0.9166666
vt 0.361111 1
vt 0.38888884 0.75
vt 0.33333325 0.83333325
vt 0.27777773 0.9166665
vt 0.30555546 1
vt 0.49999994 0.5
vt 0.4444444 0.5833334
vt 0.38888884 0.6666666
vt 0.3333333 0.75
vt 0.27777773 0.83333325
vt 0.5555555 0.4166667
vt 0.22222221 0.9166665
vt 0.24999994 1
vt 0.61111104 0.3333333
vt 0.66666657 0.25
vt 0.66666657 0.16666669
vt 0.61111104 0.25
vt 0.55555546 0.3333333
vt 0.66666657 0.08333337
vt 0.69444436 0
vt 0.61111104 0.16666669
vt 0.49999994 0.4166667
vt 0.55555546 0.25
vt 0.611111 0.08333337
vt 0.6388888 0
vt 0.55555546 0.16666669
vt 0.49999994 0.3333333
vt 0.44444436 0.5
vt 0.55555546 0.08333337
vt 0.5833332 0
vt 0.49999994 0.25
vt 0.4444444 0.4166667
vt 0.38888884 0.5833334
vt 0.49999994 0.16666669
vt 0.44444436 0.3333333
vt 0.38888884 0.5
vt 0.33333328 0.6666666
vt 0.49999988 0.08333355
vt 0.5277777 0
vt 0.44444436 0.25
vt 0.38888884 0.4166667
vt 0.33333328 0.5833334
vt 0.27777773 0.75
vt 0.44444436 0.1666668
vt 0.38888884 0.3333333
vt 0.33333328 0.5
vt 0.27777773 0.6666666
vt 0.22222221 0.83333325
vt 0.44444436 0.08333355
vt 0.4722221 0
vt 0.33333328 0.4166667
vt 0.27777773 0.5833334
vt 0.22222221 0.75
vt 0.16666666 0.9166666
vt 0.19444442 1
vt 0.16666666 0.83333325
vt 0.22222221 0.6666666
vt 0.27777773 0.5
vt 0.111111134 0.9166666
vt 0.1388889 1
vt 0.16666666 0.75
vt 0.22222221 0.5833334
vt 0.111111134 0.83333325
vt 0.16666666 0.6666666
vt 0.055555582 0.9166666
vt 0.08333337 1
vt 0.111111134 0.75
vt 0.055555582 0.83333325
vt 2.9802322E-08 0.9166666
vt 0.02777785 1
vt 2.9802322E-08 0.8333333
vt 0.055555582 0.75
vt 2.9802322E-08 0.75
vt 0.111111134 0.6666666
vt 0.055555552 0.6666666
vt 0 0.6666666
vt 0.16666666 0.5833334
vt 0.111111075 0.5833334
vt 0.055555552 0.5833334
vt 0 0.5833334
vt 0.22222221 0.5
vt 0.16666666 0.5
vt 0.111111075 0.5
vt 0.055555552 0.5
vt 0 0.5
vt 0.27777773 0.4166667
vt 0.22222221 0.4166667
vt 0.16666666 0.4166667
vt 0.111111075 0.4166667
vt 0.055555552 0.4166667
vt 0 0.4166667
vt 0.33333328 0.3333333
vt 0.27777773 0.3333333
vt 0.22222221 0.3333333
vt 0.16666666 0.3333333
vt 0.111111134 0.3333333
vt 0.055555552 0.33333325
vt 0 0.33333325
vt 0.38888884 0.25
vt 0.3333333 0.25
vt 0.38888884 0.1666668
vt 0.055555582 0.25
vt 2.9802322E-08 0.25
vt 0.111111134 0.25
vt 0.27777773 0.25
vt 0.3888888 0.08333355
vt 0.41666654 0
vt 0.33333328 0.1666668
vt 0.055555582 0.1666668
vt 2.9802322E-08 0.1666668
vt 0.22222221 0.25
vt 0.33333325 0.08333355
vt 0.36111102 0
vt 0.27777773 0.1666668
vt 0.16666666 0.25
vt 0.111111134 0.1666668
vt 0.27777773 0.08333355
vt 0.30555546 0
vt 0.22222221 0.1666668
vt 0.16666666 0.1666668
vt 0.22222221 0.08333355
vt 0.24999994 0
vt 0.16666666 0.08333355
vt 0.19444445 0
vt 0.111111134 0.08333355
vt 0.1388889 0
vt 0.055555582 0.08333355
vt 0.08333334 0
vt 2.9802322E-08 0.08333355
vt 0.02777782 0
vn -6.142788E-07 0.2722436 0.9622284
vn 0.09311232 0.2558254 0.9622284
vn -0 0 1
vn -2.104972E-07 0.51070833 0.859754
vn 0.17467254 0.47990885 0.859754
vn 0.17499499 0.20855077 0.9622284
vn -0 0 1
vn -0.1746731 0.47990882 0.85975397
vn -0.09311311 0.25582525 0.9622284
vn -0 0 1
vn -3.1909744E-07 0.71419597 0.69994575
vn -0.2442697 0.67112464 0.69994575
vn 0.3282768 0.39122534 0.8597541
vn 0.2442691 0.67112476 0.6999459
vn 0.23577024 0.13612187 0.9622283
vn -0 0 1
vn -0.32827744 0.3912251 0.85975385
vn -0.45907685 0.5471056 0.6999457
vn -0.17499532 0.2085506 0.9622283
vn -0 0 1
vn -0.2974038 0.81711 0.49384442
vn -2.303345E-07 0.8695503 0.49384442
vn -0.55893624 0.666114 0.4938445
vn 0.45907614 0.5471057 0.6999459
vn 0.44228643 0.25535426 0.859754
vn 0.29740342 0.81711006 0.49384436
vn 0.26810816 0.047274604 0.9622283
vn -0 0 1
vn -0.33068803 0.9085576 0.25528112
vn -0.62149006 0.7406629 0.2552812
vn -3.2476498E-07 0.9668669 0.25528106
vn -0.7530526 0.43477494 0.49384466
vn -0.83733135 0.48343328 0.2552813
vn -0.61851215 0.3570977 0.6999456
vn -0.4422867 0.25535405 0.85975397
vn -0.23577014 0.13612168 0.9622283
vn -0 0 1
vn -0.6427878 0.7660443 0
vn -0.3420204 0.93969256 1.034834E-07
vn -0.8660256 0.49999964 0
vn -0.8563398 0.1509956 0.49384457
vn -0.7033457 0.12401858 0.6999459
vn -0.5029496 0.088683404 0.859754
vn -0.952178 0.16789435 0.25528115
vn -0.98480785 0.17364775 0
vn -0.2681078 0.047274504 0.9622283
vn -0 0 1
vn -0.7033456 -0.12401916 0.6999459
vn -0.50294936 -0.08868372 0.8597541
vn -0.26810807 -0.047274623 0.9622283
vn -0 0 1
vn -0.8563398 -0.15099607 0.49384445
vn -0.9521779 -0.16789499 0.25528118
vn -0.9848077 -0.17364855 0
vn -0.9521779 -0.16789493 -0.25528145
vn -0.952178 0.16789429 -0.2552815
vn -0.8563396 -0.15099613 -0.49384478
vn -0.85633963 0.1509955 -0.49384487
vn -0.7033461 -0.12401921 -0.69994545
vn -0.83733135 0.48343307 -0.25528157
vn -0.70334613 0.12401858 -0.6999454
vn -0.5029498 -0.08868379 -0.85975385
vn -0.7530526 0.4347748 -0.49384496
vn -0.6214901 0.7406628 -0.25528145
vn -0.50294983 0.08868338 -0.85975385
vn -0.26810777 -0.047274716 -0.9622283
vn -0.61851233 0.35709792 -0.69994545
vn -0.5589362 0.6661138 -0.4938448
vn -0.3306881 0.90855753 -0.2552814
vn -0.26810783 0.047274545 -0.9622283
vn -0 0 -1
vn -0.4422868 0.25535414 -0.85975385
vn -0.45907682 0.54710597 -0.69994545
vn -0.23577006 0.13612184 -0.9622283
vn -0 0 -1
vn -0.32827735 0.39122534 -0.85975385
vn -0.2974039 0.81710976 -0.49384472
vn -4.3364471E-07 1 0
vn -0.17499496 0.20855083 -0.9622284
vn -0 0 -1
vn -0.24426985 0.67112494 -0.6999455
vn -4.2809933E-07 0.9668668 -0.25528136
vn 0.3306876 0.90855783 0.25528106
vn -0.17467277 0.47990906 -0.85975385
vn -4.87623E-07 0.8695501 -0.49384484
vn 0.3420199 0.9396926 0
vn 0.55893606 0.6661143 0.4938444
vn -0.09311289 0.25582546 -0.9622283
vn -0 0 -1
vn -4.0678833E-07 0.71419626 -0.69994545
vn 0.3306876 0.9085577 -0.25528127
vn 0.62148994 0.7406632 0.25528103
vn 0.6185117 0.35709795 0.6999459
vn -0 0.5107086 -0.85975385
vn 0.2974033 0.81711 -0.49384475
vn 0.64278764 0.76604444 0
vn 0.75305265 0.43477514 0.4938444
vn 0.5029494 0.088683575 0.8597541
vn -0 0.27224383 -0.9622283
vn -0 0 -1
vn 0.6214901 0.740663 -0.25528124
vn 0.83733124 0.4834334 0.25528106
vn 0.70334566 0.124018826 0.69994587
vn 0.2681077 -0.04727456 0.9622284
vn -0 0 1
vn 0.50294936 -0.08868347 0.8597541
vn 0.85634 0.15099575 0.4938442
vn 0.86602545 0.4999999 0
vn 0.23576985 -0.1361217 0.9622284
vn -0 0 1
vn 0.7033457 -0.12401875 0.6999458
vn 0.952178 0.16789465 0.25528112
vn 0.4422864 -0.25535402 0.8597541
vn 0.85634005 -0.15099579 0.49384415
vn 0.174995 -0.20855063 0.9622284
vn -0 0 1
vn 0.6185121 -0.3570978 0.69994575
vn 0.32827696 -0.3912252 0.8597541
vn 0.09311378 -0.25582516 0.9622283
vn -0 0 1
vn 0.9848077 0.17364816 0
vn 0.952178 -0.16789459 0.2552811
vn 0.75305283 -0.43477505 0.4938441
vn 0.45907673 -0.5471057 0.69994575
vn 0.1746725 -0.47990885 0.859754
vn 0.83733124 0.4834334 -0.2552812
vn 8.294567E-07 -0.2722435 0.9622284
vn -0 0 1
vn 0.55893594 0.6661142 -0.49384466
vn 0.24426927 0.6711249 -0.6999456
vn 0.17467253 0.47990906 -0.85975385
vn 0.45907632 0.5471061 -0.69994575
vn 0.75305265 0.43477505 -0.49384457
vn 0.093112856 0.2558255 -0.9622283
vn -0 0 -1
vn 0.32827708 0.39122543 -0.85975397
vn 0.952178 0.16789469 -0.2552813
vn 0.61851186 0.3570981 -0.69994575
vn 0.17499493 0.20855089 -0.9622283
vn -0 0 -1
vn 0.4422865 0.25535434 -0.85975385
vn 0.8563398 0.15099573 -0.49384457
vn 0.9848077 -0.17364825 0
vn 0.23577006 0.13612194 -0.9622283
vn -0 0 -1
vn 0.70334584 0.12401888 -0.6999456
vn 0.952178 -0.16789465 -0.25528124
vn 0.83733124 -0.48343337 0.2552812
vn 0.5029497 0.08868371 -0.85975397
vn 0.8563398 -0.15099576 -0.49384442
vn 0.8660255 -0.4999999 0
vn 0.5589364 -0.6661142 0.49384406
vn 0.26810777 0.0472747 -0.9622283
vn -0 0 -1
vn 0.703346 -0.124018736 -0.6999457
vn 0.83733135 -0.48343322 -0.25528124
vn 0.6214901 -0.740663 0.25528124
vn 0.24426965 -0.6711248 0.6999456
vn 0.5029497 -0.088683486 -0.85975397
vn 0.7530527 -0.43477517 -0.49384424
vn 0.6427878 -0.7660443 0
vn 0.297404 -0.8171101 0.49384406
vn 1.8388263E-07 -0.5107084 0.859754
vn 0.2681078 -0.04727454 -0.9622284
vn -0 0 -1
vn 0.6214901 -0.74066275 -0.25528133
vn 0.33068797 -0.9085576 0.25528112
vn 1.8268938E-07 -0.71419615 0.69994557
vn -0.093112946 -0.25582525 0.9622284
vn -0 0 1
vn -0.17467219 -0.47990897 0.859754
vn 2.8424262E-07 -0.86955047 0.4938441
vn 0.34202018 -0.93969256 0
vn -0.17499511 -0.20855063 0.9622284
vn -0 0 1
vn -0.24426931 -0.671125 0.6999456
vn 2.8047882E-07 -0.9668669 0.25528112
vn -0.3282769 -0.39122525 0.859754
vn -0.2974035 -0.8171101 0.49384415
vn -0.23577036 -0.13612173 0.9622283
vn -0 0 1
vn -0.45907634 -0.54710615 0.6999456
vn -0.44228643 -0.25535423 0.859754
vn -0.26810807 -0.047274623 0.9622283
vn -0 0 1
vn -0.50294936 -0.08868372 0.8597541
vn -0.6185118 -0.3570983 0.6999456
vn -0.7033456 -0.12401916 0.6999459
vn -0.5589362 -0.6661144 0.49384418
vn -0.75305265 -0.43477538 0.4938443
vn -0.8563398 -0.15099607 0.49384445
vn -0.3306877 -0.9085577 0.25528124
vn -0.6214899 -0.7406632 0.25528127
vn -0.83733106 -0.48343375 0.25528127
vn -0.9521779 -0.16789499 0.25528118
vn 3.0059468E-07 -1 0
vn -0.34201992 -0.9396926 0
vn -0.64278746 -0.7660445 0
vn -0.86602527 -0.50000036 0
vn -0.9848077 -0.17364855 0
vn 0.33068797 -0.90855753 -0.2552814
vn 2.3373235E-07 -0.9668668 -0.25528133
vn -0.33068773 -0.9085576 -0.2552813
vn -0.6214899 -0.7406631 -0.25528136
vn -0.83733106 -0.48343366 -0.25528145
vn -0.9521779 -0.16789493 -0.25528145
vn 0.55893624 -0.66611415 -0.49384433
vn 0.29740387 -0.81711 -0.49384442
vn 1.8377756E-07 -0.8695503 -0.49384445
vn -0.29740354 -0.81711 -0.49384448
vn -0.5589361 -0.6661143 -0.49384442
vn -0.7530524 -0.43477532 -0.49384454
vn -0.8563396 -0.15099613 -0.49384478
vn 0.61851203 -0.35709795 -0.6999456
vn 0.45907664 -0.54710597 -0.6999455
vn 0.4422866 -0.2553541 -0.85975397
vn -0.61851203 -0.3570984 -0.6999454
vn -0.7033461 -0.12401921 -0.69994545
vn -0.4590765 -0.54710627 -0.6999454
vn 0.24426962 -0.67112494 -0.69994557
vn 0.23577005 -0.13612181 -0.9622284
vn -0 0 -1
vn 0.3282772 -0.39122534 -0.85975385
vn -0.44228658 -0.25535437 -0.85975385
vn -0.5029498 -0.08868379 -0.85975385
vn 1.9486866E-07 -0.71419626 -0.69994545
vn 0.17499495 -0.20855081 -0.9622284
vn -0 0 -1
vn 0.17467266 -0.47990897 -0.85975397
vn -0.24426934 -0.6711251 -0.6999454
vn -0.32827702 -0.3912255 -0.85975397
vn 0.09311288 -0.25582546 -0.9622284
vn -0 0 -1
vn 1.536388E-07 -0.5107086 -0.85975397
vn -0.17467242 -0.47990906 -0.85975385
vn -0 -0.2722438 -0.9622284
vn -0 0 -1
vn -0.09311276 -0.25582543 -0.9622284
vn -0 0 -1
vn -0.17499489 -0.20855089 -0.9622284
vn -0 0 -1
vn -0.23576999 -0.13612196 -0.9622284
vn -0 0 -1
vn -0.26810777 -0.047274716 -0.9622283
vn -0 0 -1
g Body.001_0
f 3/3/3 2/2/2 1/1/1
f 1/1/1 2/2/2 4/4/4
f 2/2/2 5/5/5 4/4/4
f 2/2/2 6/6/6 5/5/5
f 7/7/7 6/6/6 2/2/2
f 1/1/1 4/4/4 8/8/8
f 9/9/9 1/1/1 8/8/8
f 10/10/10 1/1/1 9/9/9
f 4/4/4 5/5/5 11/11/11
f 8/8/8 4/4/4 12/12/12
f 4/4/4 11/11/11 12/12/12
f 6/6/6 13/13/13 5/5/5
f 5/5/5 14/14/14 11/11/11
f 5/5/5 13/13/13 14/14/14
f 6/6/6 15/15/15 13/13/13
f 16/16/16 15/15/15 6/6/6
f 9/9/9 8/8/8 17/17/17
f 8/8/8 12/12/12 18/18/18
f 17/17/17 8/8/8 18/18/18
f 19/19/19 9/9/9 17/17/17
f 20/20/20 9/9/9 19/19/19
f 12/12/12 11/11/11 21/21/21
f 11/11/11 14/14/14 22/22/22
f 11/11/11 22/22/22 21/21/21
f 18/18/18 12/12/12 23/23/23
f 12/12/12 21/21/21 23/23/23
f 13/13/13 24/24/24 14/14/14
f 15/15/15 25/25/25 13/13/13
f 13/13/13 25/25/25 24/24/24
f 14/14/14 26/26/26 22/22/22
f 14/14/14 24/24/24 26/26/26
f 15/15/15 27/27/27 25/25/25
f 28/28/28 27/27/27 15/15/15
f 21/21/21 22/22/22 29/29/29
f 23/23/23 21/21/21 30/30/30
f 21/21/21 29/29/29 30/30/30
f 22/22/22 26/26/26 31/31/31
f 22/22/22 31/31/31 29/29/29
f 18/18/18 23/23/23 32/32/32
f 23/23/23 30/30/30 33/33/33
f 32/32/32 23/23/23 33/33/33
f 34/34/34 18/18/18 32/32/32
f 17/17/17 18/18/18 34/34/34
f 35/35/35 17/17/17 34/34/34
f 19/19/19 17/17/17 35/35/35
f 36/36/36 19/19/19 35/35/35
f 37/37/37 19/19/19 36/36/36
f 30/30/30 29/29/29 38/38/38
f 29/29/29 31/31/31 39/39/39
f 29/29/29 39/39/39 38/38/38
f 33/33/33 30/30/30 40/40/40
f 30/30/30 38/38/38 40/40/40
f 34/34/34 32/32/32 41/41/41
f 35/35/35 34/34/34 42/42/42
f 42/42/42 34/34/34 41/41/41
f 36/36/36 35/35/35 43/43/43
f 43/43/43 35/35/35 42/42/42
f 32/32/32 33/33/33 44/44/44
f 41/41/41 32/32/32 44/44/44
f 33/33/33 40/40/40 45/45/45
f 44/44/44 33/33/33 45/45/45
f 46/46/46 36/36/36 43/43/43
f 47/47/47 36/36/36 46/46/46
f 43/43/43 42/42/42 48/48/48
f 49/49/49 43/43/43 48/48/48
f 46/46/46 43/43/43 49/49/49
f 50/50/50 46/46/46 49/49/49
f 51/51/51 46/46/46 50/50/50
f 48/48/48 42/42/42 52/52/52
f 42/42/42 41/41/41 52/52/52
f 52/52/52 41/41/41 53/53/53
f 41/41/41 44/44/44 53/53/53
f 53/53/53 44/44/44 54/54/54
f 44/44/44 45/45/45 54/54/54
f 54/54/54 45/45/45 55/55/55
f 45/45/45 56/56/56 55/55/55
f 55/55/55 56/56/56 57/57/57
f 45/45/45 40/40/40 56/56/56
f 56/56/56 58/58/58 57/57/57
f 57/57/57 58/58/58 59/59/59
f 40/40/40 60/60/60 56/56/56
f 56/56/56 60/60/60 58/58/58
f 40/40/40 38/38/38 60/60/60
f 58/58/58 61/61/61 59/59/59
f 59/59/59 61/61/61 62/62/62
f 60/60/60 63/63/63 58/58/58
f 58/58/58 63/63/63 61/61/61
f 38/38/38 64/64/64 60/60/60
f 60/60/60 64/64/64 63/63/63
f 38/38/38 39/39/39 64/64/64
f 61/61/61 65/65/65 62/62/62
f 62/62/62 65/65/65 66/66/66
f 63/63/63 67/67/67 61/61/61
f 61/61/61 67/67/67 65/65/65
f 64/64/64 68/68/68 63/63/63
f 63/63/63 68/68/68 67/67/67
f 39/39/39 69/69/69 64/64/64
f 64/64/64 69/69/69 68/68/68
f 65/65/65 70/70/70 66/66/66
f 66/66/66 70/70/70 71/71/71
f 67/67/67 72/72/72 65/65/65
f 65/65/65 72/72/72 70/70/70
f 68/68/68 73/73/73 67/67/67
f 67/67/67 73/73/73 72/72/72
f 72/72/72 74/74/74 70/70/70
f 70/70/70 74/74/74 75/75/75
f 72/72/72 76/76/76 74/74/74
f 73/73/73 76/76/76 72/72/72
f 68/68/68 77/77/77 73/73/73
f 69/69/69 77/77/77 68/68/68
f 39/39/39 78/78/78 69/69/69
f 31/31/31 78/78/78 39/39/39
f 76/76/76 79/79/79 74/74/74
f 74/74/74 79/79/79 80/80/80
f 73/73/73 81/81/81 76/76/76
f 77/77/77 81/81/81 73/73/73
f 69/69/69 82/82/82 77/77/77
f 78/78/78 82/82/82 69/69/69
f 31/31/31 83/83/83 78/78/78
f 26/26/26 83/83/83 31/31/31
f 76/76/76 84/84/84 79/79/79
f 81/81/81 84/84/84 76/76/76
f 77/77/77 85/85/85 81/81/81
f 82/82/82 85/85/85 77/77/77
f 78/78/78 86/86/86 82/82/82
f 83/83/83 86/86/86 78/78/78
f 26/26/26 87/87/87 83/83/83
f 24/24/24 87/87/87 26/26/26
f 84/84/84 88/88/88 79/79/79
f 79/79/79 88/88/88 89/89/89
f 81/81/81 90/90/90 84/84/84
f 85/85/85 90/90/90 81/81/81
f 82/82/82 91/91/91 85/85/85
f 86/86/86 91/91/91 82/82/82
f 83/83/83 92/92/92 86/86/86
f 87/87/87 92/92/92 83/83/83
f 24/24/24 93/93/93 87/87/87
f 25/25/25 93/93/93 24/24/24
f 84/84/84 94/94/94 88/88/88
f 90/90/90 94/94/94 84/84/84
f 85/85/85 95/95/95 90/90/90
f 91/91/91 95/95/95 85/85/85
f 86/86/86 96/96/96 91/91/91
f 92/92/92 96/96/96 86/86/86
f 87/87/87 97/97/97 92/92/92
f 93/93/93 97/97/97 87/87/87
f 25/25/25 98/98/98 93/93/93
f 27/27/27 98/98/98 25/25/25
f 94/94/94 99/99/99 88/88/88
f 88/88/88 99/99/99 100/100/100
f 91/91/91 101/101/101 95/95/95
f 96/96/96 101/101/101 91/91/91
f 92/92/92 102/102/102 96/96/96
f 97/97/97 102/102/102 92/92/92
f 93/93/93 103/103/103 97/97/97
f 98/98/98 103/103/103 93/93/93
f 27/27/27 104/104/104 98/98/98
f 105/105/105 104/104/104 27/27/27
f 104/104/104 106/106/106 98/98/98
f 98/98/98 106/106/106 103/103/103
f 103/103/103 107/107/107 97/97/97
f 97/97/97 107/107/107 102/102/102
f 102/102/102 108/108/108 96/96/96
f 96/96/96 108/108/108 101/101/101
f 104/104/104 109/109/109 106/106/106
f 110/110/110 109/109/109 104/104/104
f 106/106/106 111/111/111 103/103/103
f 103/103/103 111/111/111 107/107/107
f 107/107/107 112/112/112 102/102/102
f 102/102/102 112/112/112 108/108/108
f 109/109/109 113/113/113 106/106/106
f 106/106/106 113/113/113 111/111/111
f 111/111/111 114/114/114 107/107/107
f 107/107/107 114/114/114 112/112/112
f 109/109/109 115/115/115 113/113/113
f 116/116/116 115/115/115 109/109/109
f 113/113/113 117/117/117 111/111/111
f 111/111/111 117/117/117 114/114/114
f 115/115/115 118/118/118 113/113/113
f 113/113/113 118/118/118 117/117/117
f 115/115/115 119/119/119 118/118/118
f 120/120/120 119/119/119 115/115/115
f 112/112/112 121/121/121 108/108/108
f 114/114/114 122/122/122 112/112/112
f 112/112/112 122/122/122 121/121/121
f 117/117/117 123/123/123 114/114/114
f 114/114/114 123/123/123 122/122/122
f 118/118/118 124/124/124 117/117/117
f 117/117/117 124/124/124 123/123/123
f 119/119/119 125/125/125 118/118/118
f 118/118/118 125/125/125 124/124/124
f 108/108/108 121/121/121 126/126/126
f 108/108/108 126/126/126 101/101/101
f 119/119/119 127/127/127 125/125/125
f 128/128/128 127/127/127 119/119/119
f 101/101/101 126/126/126 129/129/129
f 101/101/101 129/129/129 95/95/95
f 95/95/95 129/129/129 130/130/130
f 95/95/95 130/130/130 90/90/90
f 90/90/90 130/130/130 94/94/94
f 130/130/130 131/131/131 94/94/94
f 94/94/94 131/131/131 99/99/99
f 129/129/129 132/132/132 130/130/130
f 130/130/130 132/132/132 131/131/131
f 126/126/126 133/133/133 129/129/129
f 129/129/129 133/133/133 132/132/132
f 131/131/131 134/134/134 99/99/99
f 99/99/99 134/134/134 135/135/135
f 132/132/132 136/136/136 131/131/131
f 131/131/131 136/136/136 134/134/134
f 126/126/126 137/137/137 133/133/133
f 121/121/121 137/137/137 126/126/126
f 133/133/133 138/138/138 132/132/132
f 132/132/132 138/138/138 136/136/136
f 136/136/136 139/139/139 134/134/134
f 134/134/134 139/139/139 140/140/140
f 136/136/136 141/141/141 139/139/139
f 138/138/138 141/141/141 136/136/136
f 133/133/133 142/142/142 138/138/138
f 137/137/137 142/142/142 133/133/133
f 121/121/121 143/143/143 137/137/137
f 122/122/122 143/143/143 121/121/121
f 141/141/141 144/144/144 139/139/139
f 139/139/139 144/144/144 145/145/145
f 138/138/138 146/146/146 141/141/141
f 142/142/142 146/146/146 138/138/138
f 137/137/137 147/147/147 142/142/142
f 143/143/143 147/147/147 137/137/137
f 122/122/122 148/148/148 143/143/143
f 123/123/123 148/148/148 122/122/122
f 141/141/141 149/149/149 144/144/144
f 146/146/146 149/149/149 141/141/141
f 142/142/142 150/150/150 146/146/146
f 147/147/147 150/150/150 142/142/142
f 143/143/143 151/151/151 147/147/147
f 148/148/148 151/151/151 143/143/143
f 123/123/123 152/152/152 148/148/148
f 124/124/124 152/152/152 123/123/123
f 149/149/149 153/153/153 144/144/144
f 144/144/144 153/153/153 154/154/154
f 146/146/146 155/155/155 149/149/149
f 150/150/150 155/155/155 146/146/146
f 147/147/147 156/156/156 150/150/150
f 151/151/151 156/156/156 147/147/147
f 148/148/148 157/157/157 151/151/151
f 152/152/152 157/157/157 148/148/148
f 124/124/124 158/158/158 152/152/152
f 125/125/125 158/158/158 124/124/124
f 149/149/149 159/159/159 153/153/153
f 155/155/155 159/159/159 149/149/149
f 150/150/150 160/160/160 155/155/155
f 156/156/156 160/160/160 150/150/150
f 151/151/151 161/161/161 156/156/156
f 157/157/157 161/161/161 151/151/151
f 152/152/152 162/162/162 157/157/157
f 158/158/158 162/162/162 152/152/152
f 125/125/125 163/163/163 158/158/158
f 127/127/127 163/163/163 125/125/125
f 159/159/159 164/164/164 153/153/153
f 153/153/153 164/164/164 165/165/165
f 156/156/156 166/166/166 160/160/160
f 161/161/161 166/166/166 156/156/156
f 157/157/157 167/167/167 161/161/161
f 162/162/162 167/167/167 157/157/157
f 158/158/158 168/168/168 162/162/162
f 163/163/163 168/168/168 158/158/158
f 127/127/127 169/169/169 163/163/163
f 170/170/170 169/169/169 127/127/127
f 169/169/169 171/171/171 163/163/163
f 163/163/163 171/171/171 168/168/168
f 168/168/168 172/172/172 162/162/162
f 162/162/162 172/172/172 167/167/167
f 167/167/167 173/173/173 161/161/161
f 161/161/161 173/173/173 166/166/166
f 169/169/169 174/174/174 171/171/171
f 175/175/175 174/174/174 169/169/169
f 171/171/171 176/176/176 168/168/168
f 168/168/168 176/176/176 172/172/172
f 172/172/172 177/177/177 167/167/167
f 167/167/167 177/177/177 173/173/173
f 174/174/174 178/178/178 171/171/171
f 171/171/171 178/178/178 176/176/176
f 176/176/176 179/179/179 172/172/172
f 172/172/172 179/179/179 177/177/177
f 174/174/174 180/180/180 178/178/178
f 181/181/181 180/180/180 174/174/174
f 178/178/178 182/182/182 176/176/176
f 176/176/176 182/182/182 179/179/179
f 180/180/180 183/183/183 178/178/178
f 178/178/178 183/183/183 182/182/182
f 180/180/180 184/184/184 183/183/183
f 185/185/185 184/184/184 180/180/180
f 184/184/184 186/186/186 183/183/183
f 183/183/183 186/186/186 187/187/187
f 183/183/183 187/187/187 182/182/182
f 186/186/186 188/188/188 187/187/187
f 182/182/182 189/189/189 179/179/179
f 182/182/182 187/187/187 189/189/189
f 187/187/187 188/188/188 190/190/190
f 187/187/187 190/190/190 189/189/189
f 188/188/188 191/191/191 190/190/190
f 179/179/179 189/189/189 192/192/192
f 179/179/179 192/192/192 177/177/177
f 189/189/189 190/190/190 193/193/193
f 189/189/189 193/193/193 192/192/192
f 190/190/190 191/191/191 194/194/194
f 190/190/190 194/194/194 193/193/193
f 191/191/191 195/195/195 194/194/194
f 177/177/177 192/192/192 196/196/196
f 177/177/177 196/196/196 173/173/173
f 192/192/192 193/193/193 197/197/197
f 192/192/192 197/197/197 196/196/196
f 193/193/193 194/194/194 198/198/198
f 193/193/193 198/198/198 197/197/197
f 194/194/194 195/195/195 199/199/199
f 194/194/194 199/199/199 198/198/198
f 195/195/195 200/200/200 199/199/199
f 173/173/173 196/196/196 201/201/201
f 173/173/173 201/201/201 166/166/166
f 196/196/196 197/197/197 202/202/202
f 196/196/196 202/202/202 201/201/201
f 197/197/197 198/198/198 203/203/203
f 197/197/197 203/203/203 202/202/202
f 198/198/198 199/199/199 204/204/204
f 198/198/198 204/204/204 203/203/203
f 199/199/199 200/200/200 205/205/205
f 199/199/199 205/205/205 204/204/204
f 200/200/200 206/206/206 205/205/205
f 166/166/166 201/201/201 207/207/207
f 166/166/166 207/207/207 160/160/160
f 201/201/201 202/202/202 208/208/208
f 201/201/201 208/208/208 207/207/207
f 202/202/202 203/203/203 209/209/209
f 202/202/202 209/209/209 208/208/208
f 203/203/203 204/204/204 210/210/210
f 203/203/203 210/210/210 209/209/209
f 204/204/204 205/205/205 211/211/211
f 204/204/204 211/211/211 210/210/210
f 205/205/205 206/206/206 212/212/212
f 205/205/205 212/212/212 211/211/211
f 206/206/206 213/213/213 212/212/212
f 160/160/160 207/207/207 214/214/214
f 160/160/160 214/214/214 155/155/155
f 155/155/155 214/214/214 159/159/159
f 207/207/207 208/208/208 215/215/215
f 207/207/207 215/215/215 214/214/214
f 214/214/214 216/216/216 159/159/159
f 214/214/214 215/215/215 216/216/216
f 159/159/159 216/216/216 164/164/164
f 212/212/212 213/213/213 217/217/217
f 213/213/213 218/218/218 217/217/217
f 211/211/211 212/212/212 219/219/219
f 212/212/212 217/217/217 219/219/219
f 208/208/208 220/220/220 215/215/215
f 208/208/208 209/209/209 220/220/220
f 216/216/216 221/221/221 164/164/164
f 164/164/164 221/221/221 222/222/222
f 215/215/215 223/223/223 216/216/216
f 216/216/216 223/223/223 221/221/221
f 215/215/215 220/220/220 223/223/223
f 217/217/217 218/218/218 224/224/224
f 218/218/218 225/225/225 224/224/224
f 209/209/209 226/226/226 220/220/220
f 209/209/209 210/210/210 226/226/226
f 223/223/223 227/227/227 221/221/221
f 221/221/221 227/227/227 228/228/228
f 220/220/220 229/229/229 223/223/223
f 223/223/223 229/229/229 227/227/227
f 220/220/220 226/226/226 229/229/229
f 210/210/210 230/230/230 226/226/226
f 210/210/210 211/211/211 230/230/230
f 211/211/211 219/219/219 230/230/230
f 219/219/219 217/217/217 231/231/231
f 217/217/217 224/224/224 231/231/231
f 229/229/229 232/232/232 227/227/227
f 227/227/227 232/232/232 233/233/233
f 226/226/226 234/234/234 229/229/229
f 226/226/226 230/230/230 234/234/234
f 229/229/229 234/234/234 232/232/232
f 230/230/230 219/219/219 235/235/235
f 230/230/230 235/235/235 234/234/234
f 219/219/219 231/231/231 235/235/235
f 234/234/234 236/236/236 232/232/232
f 234/234/234 235/235/235 236/236/236
f 232/232/232 236/236/236 237/237/237
f 235/235/235 238/238/238 236/236/236
f 235/235/235 231/231/231 238/238/238
f 236/236/236 238/238/238 239/239/239
f 231/231/231 240/240/240 238/238/238
f 238/238/238 240/240/240 241/241/241
f 231/231/231 224/224/224 240/240/240
f 224/224/224 242/242/242 240/240/240
f 240/240/240 242/242/242 243/243/243
f 224/224/224 225/225/225 242/242/242
f 225/225/225 244/244/244 242/242/242
f 242/242/242 244/244/244 245/245/245
