g Body
v -3.0386548E-07 0.14382763 0.34723094
v 0.04919168 0.13515379 0.34723094
v -2.8150055E-07 -6.571391E-08 0.37584004
v -3.9347265E-07 0.26575878 0.2657591
v 0.090894595 0.2497316 0.2657591
v 0.092450365 0.11017837 0.34723094
v -2.8150055E-07 -6.571391E-08 0.37584004
v -0.09089525 0.24973153 0.2657591
v -0.049192254 0.13515376 0.34723094
v -2.8150055E-07 -6.571391E-08 0.37584004
v -4.382763E-07 0.34723055 0.14382793
v -0.118760265 0.32628992 0.14382793
v 0.17082621 0.20358308 0.2657591
v 0.1187596 0.32629007 0.14382793
v 0.124558136 0.071913816 0.34723094
v -2.8150055E-07 -6.571391E-08 0.37584004
v -0.17082685 0.20358297 0.2657591
v -0.2231959 0.26599398 0.14382793
v -0.092450924 0.11017834 0.34723094
v -2.8150055E-07 -6.571391E-08 0.37584004
v -0.1285451 0.35317376 2.6507212E-07
v -3.7107088E-07 0.3758397 2.6507212E-07
v -0.24158546 0.28790987 2.6507212E-07
v 0.22319527 0.2659941 0.14382793
v 0.23015364 0.1328794 0.2657591
v 0.12854448 0.35317382 2.6507212E-07
v 0.14164233 0.02497539 0.34723094
v -2.8150055E-07 -6.571391E-08 0.37584004
v -0.11876018 0.32628992 -0.14382735
v -0.22319584 0.26599398 -0.14382735
v -3.4866912E-07 0.34723052 -0.14382735
v -0.32548705 0.18791977 2.6507212E-07
v -0.30071083 0.1736152 -0.14382735
v -0.30071086 0.17361516 0.14382793
v -0.23015422 0.13287929 0.2657591
v -0.124558695 0.07191378 0.34723094
v -2.8150055E-07 -6.571391E-08 0.37584004
v -0.17082685 0.20358297 -0.26575854
v -0.09089525 0.24973153 -0.26575854
v -0.23015422 0.13287929 -0.26575854
v -0.3419557 0.060295835 -0.14382735
v -0.3701302 0.065263785 2.6507212E-07
v -0.34195572 0.060295813 0.14382793
v -0.26172164 0.046148416 0.2657591
v -0.26172164 0.046148416 -0.26575854
v -0.14164287 0.024975354 0.34723094
v -2.8150055E-07 -6.571391E-08 0.37584004
v -0.3701302 -0.065264 2.6507212E-07
v -0.3419557 -0.060296107 0.14382793
v -0.3419557 -0.06029609 -0.14382735
v -0.2617216 -0.04614865 0.2657591
v -0.14164287 -0.024975467 0.34723094
v -2.8150055E-07 -6.571391E-08 0.37584004
v -0.2617216 -0.04614865 -0.26575854
v -0.14164285 -0.024975477 -0.34723037
v -0.14164287 0.024975339 -0.34723037
v -2.8150055E-07 -3.2856956E-08 -0.37583947
v -0.124558695 0.071913764 -0.34723037
v -2.8150055E-07 -3.2856956E-08 -0.37583947
v -0.09245095 0.110178314 -0.34723037
v -2.8150055E-07 -3.2856956E-08 -0.37583947
v -0.04919227 0.13515374 -0.34723037
v -2.8150055E-07 -3.2856956E-08 -0.37583947
v -3.9347265E-07 0.26575878 -0.26575854
v -3.2346708E-07 0.14382762 -0.34723037
v -2.8150055E-07 -3.2856956E-08 -0.37583947
v 0.11875961 0.3262901 -0.14382735
v 0.090894595 0.2497316 -0.26575854
v 0.24158485 0.28790995 2.6507212E-07
v 0.049191684 0.13515379 -0.34723037
v -2.8150055E-07 -3.2856956E-08 -0.37583947
v 0.22319533 0.2659941 -0.14382735
v 0.30071032 0.17361534 0.14382793
v 0.17082621 0.20358308 -0.26575854
v 0.32548654 0.18791987 2.6507212E-07
v 0.26172113 0.046148527 0.2657591
v 0.09245037 0.11017839 -0.34723037
v -2.8150055E-07 -3.2856956E-08 -0.37583947
v 0.30071032 0.17361534 -0.14382735
v 0.3419552 0.060295988 0.14382793
v 0.14164233 -0.024975438 0.34723094
v -2.8150055E-07 -6.571391E-08 0.37584004
v 0.23015364 0.1328794 -0.26575854
v 0.37012967 0.065263875 2.6507212E-07
v 0.26172113 -0.04614856 0.2657591
v 0.124558136 0.071913816 -0.34723037
v -2.8150055E-07 -3.2856956E-08 -0.37583947
v 0.3419552 0.060295958 -0.14382735
v 0.3419552 -0.060295966 0.14382793
v 0.124558136 -0.07191387 0.34723094
v -2.8150055E-07 -6.571391E-08 0.37584004
v 0.26172113 0.046148527 -0.26575854
v 0.37012967 -0.06526391 2.6507212E-07
v 0.23015368 -0.13287945 0.2657591
v 0.14164233 0.024975393 -0.34723037
v -2.8150055E-07 -3.2856956E-08 -0.37583947
v 0.3419552 -0.060296 -0.14382735
v 0.30071038 -0.17361534 0.14382793
v 0.09245037 -0.11017842 0.34723094
v -2.8150055E-07 -6.571391E-08 0.37584004
v 0.26172113 -0.04614856 -0.26575854
v 0.32548657 -0.18791993 2.6507212E-07
v 0.17082629 -0.20358312 0.2657591
v 0.14164233 -0.024975432 -0.34723037
v -2.8150055E-07 -3.2856956E-08 -0.37583947
v 0.30071032 -0.17361537 -0.14382735
v 0.22319536 -0.2659942 0.14382793
v 0.04919169 -0.13515382 0.34723094
v -2.8150055E-07 -6.571391E-08 0.37584004
v 0.23015368 -0.13287945 -0.26575854
v 0.24158491 -0.28791 2.6507212E-07
v 0.090894654 -0.24973167 0.2657591
v 0.124558136 -0.07191385 -0.34723037
v -2.8150055E-07 -3.2856956E-08 -0.37583947
v 0.22319533 -0.2659942 -0.14382735
v 0.11875968 -0.32629016 0.14382793
v -2.6466233E-07 -0.1438277 0.34723094
v -2.8150055E-07 -6.571391E-08 0.37584004
v 0.17082629 -0.20358312 -0.26575854
v 0.12854454 -0.3531739 2.6507212E-07
v -2.198588E-07 -0.2657589 0.2657591
v 0.09245038 -0.11017842 -0.34723037
v -2.8150055E-07 -3.2856956E-08 -0.37583947
v 0.118759654 -0.32629013 -0.14382735
v -2.142583E-07 -0.34723073 0.14382793
v -0.04919222 -0.13515384 0.34723094
v -2.8150055E-07 -6.571391E-08 0.37584004
v 0.090894654 -0.24973167 -0.26575854
v -2.4786107E-07 -0.37583986 2.6507212E-07
v -0.09089511 -0.24973169 0.2657591
v 0.0491917 -0.13515382 -0.34723037
v -2.8150055E-07 -3.2856956E-08 -0.37583947
v -2.2545919E-07 -0.34723073 -0.14382735
v -0.1187601 -0.3262902 0.14382793
v -0.0924509 -0.110178426 0.34723094
v -2.8150055E-07 -6.571391E-08 0.37584004
v -2.198588E-07 -0.2657589 -0.26575854
v -0.12854503 -0.35317397 2.6507212E-07
v -0.17082672 -0.20358318 0.2657591
v -2.5906195E-07 -0.1438277 -0.34723037
v -2.8150055E-07 -3.2856956E-08 -0.37583947
v -0.1187601 -0.32629016 -0.14382735
v -0.22319579 -0.26599425 0.14382793
v -0.124558695 -0.07191388 0.34723094
v -2.8150055E-07 -6.571391E-08 0.37584004
v -0.09089511 -0.24973169 -0.26575854
v -0.24158539 -0.28791007 2.6507212E-07
v -0.23015416 -0.13287951 0.2657591
v -0.14164287 -0.024975467 0.34723094
v -2.8150055E-07 -6.571391E-08 0.37584004
v -0.2617216 -0.04614865 0.2657591
v -0.3007108 -0.17361546 0.14382793
v -0.3419557 -0.060296107 0.14382793
v -0.32548705 -0.18792 2.6507212E-07
v -0.3701302 -0.065264 2.6507212E-07
v -0.22319579 -0.2659942 -0.14382735
v -0.3007108 -0.17361543 -0.14382735
v -0.3419557 -0.06029609 -0.14382735
v -0.17082672 -0.20358318 -0.26575854
v -0.23015416 -0.13287951 -0.26575854
v -0.2617216 -0.04614865 -0.26575854
v -0.049192216 -0.13515384 -0.34723037
v -2.8150055E-07 -3.2856956E-08 -0.37583947
v -0.092450894 -0.110178426 -0.34723037
v -2.8150055E-07 -3.2856956E-08 -0.37583947
v -0.12455867 -0.07191389 -0.34723037
v -2.8150055E-07 -3.2856956E-08 -0.37583947
v -0.14164285 -0.024975477 -0.34723037
v -2.8150055E-07 -3.2856956E-08 -0.37583947
vt 0.72222215 0.875
vt 0.66666657 0.875
vt 0.69444436 1
vt 0.7222222 0.75
vt 0.66666657 0.75
vt 0.611111 0.875
vt 0.6388888 1
vt 0.77777773 0.75
vt 0.77777773 0.875
vt 0.74999994 1
vt 0.7222222 0.62500006
vt 0.77777773 0.62500006
vt 0.61111104 0.75
vt 0.66666657 0.625
vt 0.55555546 0.875
vt 0.5833332 1
vt 0.8333333 0.75
vt 0.8333333 0.62500006
vt 0.8333333 0.875
vt 0.8055555 1
vt 0.77777773 0.5
vt 0.72222215 0.5
vt 0.8333333 0.5
vt 0.61111104 0.625
vt 0.55555546 0.75
vt 0.66666657 0.5
vt 0.49999988 0.875
vt 0.5277776 1
vt 0.77777773 0.375
vt 0.8333333 0.375
vt 0.72222215 0.375
vt 0.88888884 0.5
vt 0.8888889 0.375
vt 0.8888889 0.62500006
vt 0.8888889 0.75
vt 0.8888889 0.875
vt 0.8611111 1
vt 0.8333333 0.25
vt 0.77777773 0.25
vt 0.8888889 0.25
vt 0.9444444 0.375
vt 0.9444444 0.5
vt 0.9444444 0.62500006
vt 0.9444444 0.75
vt 0.9444444 0.25
vt 0.9444444 0.875
vt 0.9166667 1
vt 1 0.5
vt 1 0.625
vt 1 0.375
vt 1 0.75
vt 1 0.875
vt 0.97222227 1
vt 1 0.25
vt 1 0.12500006
vt 0.9444445 0.12500006
vt 0.97222227 0
vt 0.8888889 0.125
vt 0.9166667 0
vt 0.8333333 0.125
vt 0.8611111 0
vt 0.77777773 0.125
vt 0.8055555 0
vt 0.7222222 0.25
vt 0.72222215 0.125
vt 0.74999994 0
vt 0.66666657 0.375
vt 0.66666657 0.25
vt 0.61111104 0.5
vt 0.66666657 0.12500006
vt 0.69444436 0
vt 0.61111104 0.375
vt 0.55555546 0.625
vt 0.61111104 0.25
vt 0.55555546 0.5
vt 0.49999994 0.75
vt 0.611111 0.12500006
vt 0.6388888 0
vt 0.55555546 0.37500006
vt 0.49999994 0.625
vt 0.44444436 0.875
vt 0.4722221 1
vt 0.55555546 0.25
vt 0.49999994 0.5
vt 0.44444436 0.75
vt 0.55555546 0.12500006
vt 0.5833332 0
vt 0.49999994 0.37500006
vt 0.4444444 0.625
vt 0.3888888 0.875
vt 0.41666654 1
vt 0.49999994 0.25
vt 0.44444436 0.5
vt 0.3888888 0.75
vt 0.49999988 0.12500006
vt 0.5277777 0
vt 0.44444436 0.37500006
vt 0.38888884 0.625
vt 0.33333325 0.875
vt 0.361111 1
vt 0.44444436 0.25
vt 0.3888888 0.5
vt 0.33333328 0.75
vt 0.44444436 0.12500006
vt 0.47222212 0
vt 0.3888888 0.37500006
vt 0.33333325 0.625
vt 0.27777773 0.875
vt 0.30555546 1
vt 0.3888888 0.25
vt 0.33333325 0.5
vt 0.27777773 0.75
vt 0.3888888 0.12500006
vt 0.41666657 0
vt 0.33333325 0.37500006
vt 0.27777773 0.625
vt 0.22222215 0.875
vt 0.24999994 1
vt 0.33333328 0.25
vt 0.27777773 0.5
vt 0.22222221 0.75
vt 0.33333325 0.12500006
vt 0.36111102 0
vt 0.27777773 0.37500006
vt 0.22222221 0.625
vt 0.16666666 0.875
vt 0.19444442 1
vt 0.27777773 0.25
vt 0.22222215 0.5
vt 0.16666666 0.75
vt 0.27777773 0.12500006
vt 0.30555546 0
vt 0.22222221 0.37500006
vt 0.16666666 0.625
vt 0.111111075 0.875
vt 0.1388889 1
vt 0.22222221 0.25
vt 0.16666663 0.5
vt 0.111111134 0.75
vt 0.22222221 0.12500006
vt 0.24999994 0
vt 0.16666666 0.37500006
vt 0.111111134 0.625
vt 0.055555552 0.875
vt 0.08333334 1
vt 0.16666666 0.25
vt 0.111111075 0.5
vt 0.055555552 0.75
vt 0 0.875
vt 0.02777782 1
vt 0 0.75
vt 0.055555552 0.625
vt 0 0.625
vt 0.055555552 0.5
vt 0 0.5
vt 0.111111075 0.375
vt 0.055555552 0.375
vt 0 0.375
vt 0.111111134 0.25
vt 0.055555552 0.25
vt 0 0.25
vt 0.16666666 0.12500006
vt 0.19444442 0
vt 0.111111134 0.12500006
vt 0.1388889 0
vt 0.055555552 0.12500006
vt 0.08333334 0
vt 2.9802322E-08 0.12500006
vt 0.02777782 0
vn -0 0.4008646 0.91613734
vn 0.13710357 0.37668958 0.91613734
vn -0 0 1
vn -0 0.71759546 0.69646007
vn 0.24543177 0.67431927 0.69646025
vn 0.25767064 0.30708012 0.91613734
vn -0 0 1
vn -0.24543226 0.67431915 0.6964601
vn -0.13710381 0.3766895 0.91613734
vn -0 0 1
vn -0 0.9269186 0.37526244
vn -0.31702513 0.8710185 0.37526238
vn 0.46126133 0.5497099 0.69646037
vn 0.31702453 0.8710187 0.37526247
vn 0.34715894 0.2004323 0.91613734
vn -0 0 1
vn -0.46126163 0.5497098 0.6964601
vn -0.595812 0.7100608 0.37526232
vn -0.25767064 0.30708003 0.91613734
vn -0 0 1
vn -0.34202033 0.93969256 0
vn -0 1 0
vn -0.6427877 0.7660444 0
vn 0.5958117 0.7100609 0.37526247
vn 0.62145567 0.3587978 0.69646037
vn 0.3420198 0.93969274 0
vn 0.39477444 0.06960945 0.91613734
vn -0 0 1
vn -0.31702498 0.8710185 -0.3752624
vn -0.5958119 0.7100609 -0.37526232
vn -0 0.9269186 -0.37526247
vn -0.86602545 0.5 0
vn -0.80273515 0.46345925 -0.37526235
vn -0.8027352 0.4634591 0.37526235
vn -0.6214561 0.35879752 0.6964601
vn -0.34715906 0.20043223 0.9161373
vn -0 0 1
vn -0.46126175 0.5497099 -0.69646
vn -0.2454324 0.6743192 -0.69646
vn -0.6214561 0.35879752 -0.6964601
vn -0.9128366 0.16095765 -0.37526244
vn -0.9848077 0.17364816 0
vn -0.91283673 0.16095752 0.37526244
vn -0.7066936 0.12460891 0.6964602
vn -0.7066936 0.12460897 -0.6964601
vn -0.39477465 0.06960934 0.9161373
vn -0 0 1
vn -0.9848077 -0.17364833 0
vn -0.91283655 -0.16095793 0.3752625
vn -0.91283655 -0.1609579 -0.37526253
vn -0.7066935 -0.12460928 0.6964602
vn -0.39477456 -0.06960944 0.91613734
vn -0 0 1
vn -0.7066935 -0.12460926 -0.6964602
vn -0.39477462 -0.06960945 -0.9161373
vn -0.3947745 0.06960934 -0.91613734
vn -0 0 -1
vn -0.34715888 0.20043223 -0.91613734
vn -0 0 -1
vn -0.25767094 0.30708006 -0.91613734
vn -0 0 -1
vn -0.13710389 0.37668955 -0.9161373
vn -0 0 -1
vn -0 0.7175956 -0.69646007
vn -0 0.4008646 -0.91613734
vn -0 0 -1
vn 0.3170244 0.8710187 -0.3752624
vn 0.24543178 0.6743192 -0.69646025
vn 0.6427875 0.7660445 0
vn 0.13710369 0.3766896 -0.9161373
vn -0 0 -1
vn 0.5958118 0.7100609 -0.37526238
vn 0.802735 0.4634595 0.3752624
vn 0.4612613 0.54971004 -0.6964603
vn 0.8660253 0.5000002 0
vn 0.7066934 0.12460925 0.6964603
vn 0.25767058 0.30708015 -0.91613734
vn -0 0 -1
vn 0.802735 0.46345937 -0.37526235
vn 0.91283673 0.16095787 0.37526232
vn 0.39477438 -0.0696094 0.91613734
vn -0 0 1
vn 0.6214557 0.35879767 -0.69646037
vn 0.9848077 0.17364825 0
vn 0.70669335 -0.12460908 0.6964603
vn 0.34715858 0.2004323 -0.91613746
vn -0 0 -1
vn 0.9128366 0.16095778 -0.37526235
vn 0.91283673 -0.16095757 0.37526238
vn 0.34715885 -0.20043226 0.91613734
vn -0 0 1
vn 0.7066934 0.12460917 -0.69646025
vn 0.9848077 -0.17364813 0
vn 0.62145585 -0.35879758 0.6964604
vn 0.39477435 0.069609456 -0.91613734
vn -0 0 -1
vn 0.9128366 -0.1609578 -0.37526235
vn 0.80273515 -0.4634591 0.37526238
vn 0.25767073 -0.30708006 0.91613734
vn -0 0 1
vn 0.70669335 -0.12460912 -0.6964603
vn 0.86602545 -0.4999999 0
vn 0.46126136 -0.5497098 0.6964604
vn 0.39477447 -0.0696094 -0.91613734
vn -0 0 -1
vn 0.8027351 -0.46345925 -0.37526244
vn 0.5958119 -0.7100608 0.37526244
vn 0.13710377 -0.3766894 0.91613734
vn -0 0 1
vn 0.62145585 -0.35879758 -0.69646025
vn 0.6427876 -0.76604444 0
vn 0.24543212 -0.67431897 0.6964604
vn 0.34715906 -0.20043221 -0.9161373
vn -0 0 -1
vn 0.59581184 -0.7100609 -0.37526247
vn 0.31702492 -0.8710185 0.37526244
vn -0 -0.40086466 0.91613734
vn -0 0 1
vn 0.46126145 -0.54970986 -0.6964603
vn 0.34202018 -0.93969256 0
vn -0 -0.71759534 0.6964603
vn 0.2576709 -0.30708003 -0.91613734
vn -0 0 -1
vn 0.3170249 -0.8710185 -0.37526244
vn -0 -0.9269185 0.37526244
vn -0.13710395 -0.3766895 0.91613734
vn -0 0 1
vn 0.24543197 -0.674319 -0.6964603
vn -0 -1 0
vn -0.24543191 -0.6743191 0.6964603
vn 0.13710344 -0.37668934 -0.91613734
vn -0 0 -1
vn -0 -0.9269186 -0.37526244
vn -0.31702465 -0.87101865 0.37526244
vn -0.25767082 -0.30708006 0.91613734
vn -0 0 1
vn -0 -0.71759534 -0.6964603
vn -0.34202012 -0.9396926 0
vn -0.4612613 -0.54971004 0.6964603
vn -0 -0.4008646 -0.91613734
vn -0 0 -1
vn -0.3170248 -0.87101865 -0.37526244
vn -0.5958117 -0.7100609 0.37526247
vn -0.3471588 -0.20043236 0.91613734
vn -0 0 1
vn -0.24543187 -0.6743191 -0.6964603
vn -0.64278764 -0.76604444 0
vn -0.62145585 -0.3587977 0.69646025
vn -0.39477456 -0.06960944 0.91613734
vn -0 0 1
vn -0.7066935 -0.12460928 0.6964602
vn -0.802735 -0.46345928 0.37526247
vn -0.91283655 -0.16095793 0.3752625
vn -0.8660253 -0.5000001 0
vn -0.9848077 -0.17364833 0
vn -0.5958118 -0.71006083 -0.3752625
vn -0.802735 -0.46345937 -0.37526256
vn -0.91283655 -0.1609579 -0.37526253
vn -0.46126133 -0.54971004 -0.69646025
vn -0.6214558 -0.35879776 -0.6964603
vn -0.7066935 -0.12460926 -0.6964602
vn -0.13710354 -0.3766895 -0.91613734
vn -0 0 -1
vn -0.2576705 -0.3070801 -0.91613734
vn -0 0 -1
vn -0.34715894 -0.20043235 -0.91613734
vn -0 0 -1
vn -0.39477462 -0.06960945 -0.9161373
vn -0 0 -1
g Body_0
f 3/3/3 2/2/2 1/1/1
f 1/1/1 2/2/2 4/4/4
f 2/2/2 5/5/5 4/4/4
f 2/2/2 6/6/6 5/5/5
f 7/7/7 6/6/6 2/2/2
f 1/1/1 4/4/4 8/8/8
f 9/9/9 1/1/1 8/8/8
f 10/10/10 1/1/1 9/9/9
f 4/4/4 5/5/5 11/11/11
f 8/8/8 4/4/4 12/12/12
f 4/4/4 11/11/11 12/12/12
f 6/6/6 13/13/13 5/5/5
f 5/5/5 14/14/14 11/11/11
f 5/5/5 13/13/13 14/14/14
f 6/6/6 15/15/15 13/13/13
f 16/16/16 15/15/15 6/6/6
f 9/9/9 8/8/8 17/17/17
f 8/8/8 12/12/12 18/18/18
f 17/17/17 8/8/8 18/18/18
f 19/19/19 9/9/9 17/17/17
f 20/20/20 9/9/9 19/19/19
f 12/12/12 11/11/11 21/21/21
f 11/11/11 14/14/14 22/22/22
f 11/11/11 22/22/22 21/21/21
f 18/18/18 12/12/12 23/23/23
f 12/12/12 21/21/21 23/23/23
f 13/13/13 24/24/24 14/14/14
f 15/15/15 25/25/25 13/13/13
f 13/13/13 25/25/25 24/24/24
f 14/14/14 26/26/26 22/22/22
f 14/14/14 24/24/24 26/26/26
f 15/15/15 27/27/27 25/25/25
f 28/28/28 27/27/27 15/15/15
f 21/21/21 22/22/22 29/29/29
f 23/23/23 21/21/21 30/30/30
f 21/21/21 29/29/29 30/30/30
f 22/22/22 26/26/26 31/31/31
f 22/22/22 31/31/31 29/29/29
f 18/18/18 23/23/23 32/32/32
f 23/23/23 30/30/30 33/33/33
f 32/32/32 23/23/23 33/33/33
f 34/34/34 18/18/18 32/32/32
f 17/17/17 18/18/18 34/34/34
f 35/35/35 17/17/17 34/34/34
f 19/19/19 17/17/17 35/35/35
f 36/36/36 19/19/19 35/35/35
f 37/37/37 19/19/19 36/36/36
f 30/30/30 29/29/29 38/38/38
f 29/29/29 31/31/31 39/39/39
f 29/29/29 39/39/39 38/38/38
f 33/33/33 30/30/30 40/40/40
f 30/30/30 38/38/38 40/40/40
f 32/32/32 33/33/33 41/41/41
f 34/34/34 32/32/32 42/42/42
f 42/42/42 32/32/32 41/41/41
f 35/35/35 34/34/34 43/43/43
f 43/43/43 34/34/34 42/42/42
f 36/36/36 35/35/35 44/44/44
f 44/44/44 35/35/35 43/43/43
f 33/33/33 40/40/40 45/45/45
f 41/41/41 33/33/33 45/45/45
f 46/46/46 36/36/36 44/44/44
f 47/47/47 36/36/36 46/46/46
f 43/43/43 42/42/42 48/48/48
f 49/49/49 43/43/43 48/48/48
f 44/44/44 43/43/43 49/49/49
f 48/48/48 42/42/42 50/50/50
f 42/42/42 41/41/41 50/50/50
f 51/51/51 44/44/44 49/49/49
f 46/46/46 44/44/44 51/51/51
f 52/52/52 46/46/46 51/51/51
f 53/53/53 46/46/46 52/52/52
f 50/50/50 41/41/41 54/54/54
f 41/41/41 45/45/45 54/54/54
f 54/54/54 45/45/45 55/55/55
f 45/45/45 56/56/56 55/55/55
f 55/55/55 56/56/56 57/57/57
f 45/45/45 40/40/40 56/56/56
f 40/40/40 58/58/58 56/56/56
f 56/56/56 58/58/58 59/59/59
f 40/40/40 38/38/38 58/58/58
f 38/38/38 60/60/60 58/58/58
f 58/58/58 60/60/60 61/61/61
f 38/38/38 39/39/39 60/60/60
f 39/39/39 62/62/62 60/60/60
f 60/60/60 62/62/62 63/63/63
f 39/39/39 64/64/64 62/62/62
f 31/31/31 64/64/64 39/39/39
f 64/64/64 65/65/65 62/62/62
f 62/62/62 65/65/65 66/66/66
f 31/31/31 67/67/67 64/64/64
f 26/26/26 67/67/67 31/31/31
f 64/64/64 68/68/68 65/65/65
f 67/67/67 68/68/68 64/64/64
f 26/26/26 69/69/69 67/67/67
f 24/24/24 69/69/69 26/26/26
f 68/68/68 70/70/70 65/65/65
f 65/65/65 70/70/70 71/71/71
f 67/67/67 72/72/72 68/68/68
f 69/69/69 72/72/72 67/67/67
f 24/24/24 73/73/73 69/69/69
f 25/25/25 73/73/73 24/24/24
f 68/68/68 74/74/74 70/70/70
f 72/72/72 74/74/74 68/68/68
f 69/69/69 75/75/75 72/72/72
f 73/73/73 75/75/75 69/69/69
f 25/25/25 76/76/76 73/73/73
f 27/27/27 76/76/76 25/25/25
f 74/74/74 77/77/77 70/70/70
f 70/70/70 77/77/77 78/78/78
f 72/72/72 79/79/79 74/74/74
f 75/75/75 79/79/79 72/72/72
f 73/73/73 80/80/80 75/75/75
f 76/76/76 80/80/80 73/73/73
f 27/27/27 81/81/81 76/76/76
f 82/82/82 81/81/81 27/27/27
f 74/74/74 83/83/83 77/77/77
f 79/79/79 83/83/83 74/74/74
f 75/75/75 84/84/84 79/79/79
f 80/80/80 84/84/84 75/75/75
f 76/76/76 85/85/85 80/80/80
f 81/81/81 85/85/85 76/76/76
f 83/83/83 86/86/86 77/77/77
f 77/77/77 86/86/86 87/87/87
f 79/79/79 88/88/88 83/83/83
f 84/84/84 88/88/88 79/79/79
f 80/80/80 89/89/89 84/84/84
f 85/85/85 89/89/89 80/80/80
f 81/81/81 90/90/90 85/85/85
f 91/91/91 90/90/90 81/81/81
f 83/83/83 92/92/92 86/86/86
f 88/88/88 92/92/92 83/83/83
f 84/84/84 93/93/93 88/88/88
f 89/89/89 93/93/93 84/84/84
f 90/90/90 94/94/94 85/85/85
f 85/85/85 94/94/94 89/89/89
f 92/92/92 95/95/95 86/86/86
f 86/86/86 95/95/95 96/96/96
f 88/88/88 97/97/97 92/92/92
f 93/93/93 97/97/97 88/88/88
f 89/89/89 98/98/98 93/93/93
f 94/94/94 98/98/98 89/89/89
f 90/90/90 99/99/99 94/94/94
f 100/100/100 99/99/99 90/90/90
f 92/92/92 101/101/101 95/95/95
f 97/97/97 101/101/101 92/92/92
f 93/93/93 102/102/102 97/97/97
f 98/98/98 102/102/102 93/93/93
f 99/99/99 103/103/103 94/94/94
f 94/94/94 103/103/103 98/98/98
f 101/101/101 104/104/104 95/95/95
f 95/95/95 104/104/104 105/105/105
f 97/97/97 106/106/106 101/101/101
f 102/102/102 106/106/106 97/97/97
f 98/98/98 107/107/107 102/102/102
f 103/103/103 107/107/107 98/98/98
f 99/99/99 108/108/108 103/103/103
f 109/109/109 108/108/108 99/99/99
f 101/101/101 110/110/110 104/104/104
f 106/106/106 110/110/110 101/101/101
f 102/102/102 111/111/111 106/106/106
f 107/107/107 111/111/111 102/102/102
f 103/103/103 112/112/112 107/107/107
f 108/108/108 112/112/112 103/103/103
f 110/110/110 113/113/113 104/104/104
f 104/104/104 113/113/113 114/114/114
f 106/106/106 115/115/115 110/110/110
f 111/111/111 115/115/115 106/106/106
f 107/107/107 116/116/116 111/111/111
f 112/112/112 116/116/116 107/107/107
f 108/108/108 117/117/117 112/112/112
f 118/118/118 117/117/117 108/108/108
f 110/110/110 119/119/119 113/113/113
f 115/115/115 119/119/119 110/110/110
f 111/111/111 120/120/120 115/115/115
f 116/116/116 120/120/120 111/111/111
f 117/117/117 121/121/121 112/112/112
f 112/112/112 121/121/121 116/116/116
f 119/119/119 122/122/122 113/113/113
f 113/113/113 122/122/122 123/123/123
f 115/115/115 124/124/124 119/119/119
f 120/120/120 124/124/124 115/115/115
f 116/116/116 125/125/125 120/120/120
f 121/121/121 125/125/125 116/116/116
f 117/117/117 126/126/126 121/121/121
f 127/127/127 126/126/126 117/117/117
f 119/119/119 128/128/128 122/122/122
f 124/124/124 128/128/128 119/119/119
f 120/120/120 129/129/129 124/124/124
f 125/125/125 129/129/129 120/120/120
f 126/126/126 130/130/130 121/121/121
f 121/121/121 130/130/130 125/125/125
f 128/128/128 131/131/131 122/122/122
f 122/122/122 131/131/131 132/132/132
f 124/124/124 133/133/133 128/128/128
f 129/129/129 133/133/133 124/124/124
f 125/125/125 134/134/134 129/129/129
f 130/130/130 134/134/134 125/125/125
f 126/126/126 135/135/135 130/130/130
f 136/136/136 135/135/135 126/126/126
f 128/128/128 137/137/137 131/131/131
f 133/133/133 137/137/137 128/128/128
f 129/129/129 138/138/138 133/133/133
f 134/134/134 138/138/138 129/129/129
f 130/130/130 139/139/139 134/134/134
f 135/135/135 139/139/139 130/130/130
f 137/137/137 140/140/140 131/131/131
f 131/131/131 140/140/140 141/141/141
f 133/133/133 142/142/142 137/137/137
f 138/138/138 142/142/142 133/133/133
f 134/134/134 143/143/143 138/138/138
f 139/139/139 143/143/143 134/134/134
f 135/135/135 144/144/144 139/139/139
f 145/145/145 144/144/144 135/135/135
f 137/137/137 146/146/146 140/140/140
f 142/142/142 146/146/146 137/137/137
f 138/138/138 147/147/147 142/142/142
f 143/143/143 147/147/147 138/138/138
f 139/139/139 148/148/148 143/143/143
f 144/144/144 148/148/148 139/139/139
f 144/144/144 149/149/149 148/148/148
f 150/150/150 149/149/149 144/144/144
f 149/149/149 151/151/151 148/148/148
f 148/148/148 152/152/152 143/143/143
f 148/148/148 151/151/151 152/152/152
f 143/143/143 152/152/152 147/147/147
f 151/151/151 153/153/153 152/152/152
f 152/152/152 153/153/153 154/154/154
f 152/152/152 154/154/154 147/147/147
f 153/153/153 155/155/155 154/154/154
f 147/147/147 156/156/156 142/142/142
f 147/147/147 154/154/154 156/156/156
f 142/142/142 156/156/156 146/146/146
f 154/154/154 155/155/155 157/157/157
f 154/154/154 157/157/157 156/156/156
f 155/155/155 158/158/158 157/157/157
f 156/156/156 159/159/159 146/146/146
f 156/156/156 157/157/157 159/159/159
f 157/157/157 158/158/158 160/160/160
f 157/157/157 160/160/160 159/159/159
f 158/158/158 161/161/161 160/160/160
f 146/146/146 159/159/159 162/162/162
f 146/146/146 162/162/162 140/140/140
f 140/140/140 162/162/162 163/163/163
f 159/159/159 164/164/164 162/162/162
f 159/159/159 160/160/160 164/164/164
f 162/162/162 164/164/164 165/165/165
f 160/160/160 161/161/161 166/166/166
f 160/160/160 166/166/166 164/164/164
f 164/164/164 166/166/166 167/167/167
f 161/161/161 168/168/168 166/166/166
f 166/166/166 168/168/168 169/169/169
