g Bridge B
v 0.121931076 0.7582352 0.13489999
v 0.17211936 0.7116972 0.13489999
v 0.0886055 0.76427245 0.13489999
v 0.18065113 0.67892134 0.13489999
v 0.15946442 0.6385389 0.13489999
v 0.049934614 0.74010247 0.13489999
v 0.1316645 0.60820186 0.14064418
v 0.02069828 0.7089294 0.14064418
v 0.10448736 0.57351834 0.14956303
v -0.013362579 0.6748263 0.14956303
v 0.0787294 0.53845495 0.14766936
v -0.047471885 0.6377965 0.14766936
v 0.06177063 0.5032003 0.13502273
v -0.07961178 0.6067165 0.13502273
v 0.051370315 0.48870277 0.13489999
v -0.091121234 0.5905654 0.13489999
v 0.007722988 0.45761612 0.12826811
v -0.10641126 0.5392069 0.12826811
v -0.09409004 0.504598 0.12826811
v -0.029010868 0.4580751 0.12826811
v 0.051370315 0.48870277 0.110000014
v 0.051370315 0.48870277 0.13489999
v 0.06177063 0.5032003 0.13502273
v 0.06177063 0.5032003 0.115022734
v 0.049934614 0.74010247 0.11200002
v 0.049934614 0.74010247 0.13489999
v 0.02069828 0.7089294 0.14064418
v 0.02069828 0.7089294 0.120644175
v -0.013362579 0.6748263 0.14956303
v -0.013362579 0.6748263 0.12956302
v -0.047471885 0.6377965 0.14766936
v -0.047471885 0.6377965 0.12766936
v -0.047471885 0.6377965 0.12766936
v -0.047471885 0.6377965 0.14766936
v -0.07961178 0.6067165 0.13502273
v -0.07961178 0.6067165 0.11502273
v 0.0886055 0.76427245 0.112000026
v 0.0886055 0.76427245 0.13489999
v 0.049934614 0.74010247 0.13489999
v 0.049934614 0.74010247 0.11200002
v 0.15946442 0.6385389 0.11200002
v 0.15946442 0.6385389 0.13489999
v 0.18065113 0.67892134 0.13489999
v 0.18065113 0.67892134 0.112000026
v 0.1316645 0.60820186 0.120644175
v 0.1316645 0.60820186 0.14064418
v 0.15946442 0.6385389 0.13489999
v 0.15946442 0.6385389 0.11200002
v 0.10448736 0.57351834 0.12956302
v 0.1316645 0.60820186 0.14064418
v 0.1316645 0.60820186 0.120644175
v 0.10448736 0.57351834 0.14956303
v 0.0787294 0.53845495 0.12766936
v 0.0787294 0.53845495 0.14766936
v 0.06177063 0.5032003 0.115022734
v 0.06177063 0.5032003 0.13502273
v 0.0787294 0.53845495 0.14766936
v 0.0787294 0.53845495 0.12766936
v 0.18065113 0.67892134 0.112000026
v 0.18065113 0.67892134 0.13489999
v 0.17211936 0.7116972 0.13489999
v 0.17211936 0.7116972 0.112000026
v -0.09409004 0.504598 0.11000001
v -0.09409004 0.504598 0.12826811
v -0.029010868 0.4580751 0.12826811
v -0.029010868 0.4580751 0.11000001
v -0.029010868 0.4580751 0.11000001
v -0.029010868 0.4580751 0.12826811
v 0.007722988 0.45761612 0.12826811
v 0.007722988 0.45761612 0.11000001
v 0.007722988 0.45761612 0.11000001
v 0.007722988 0.45761612 0.12826811
v 0.051370315 0.48870277 0.13489999
v 0.051370315 0.48870277 0.110000014
v -0.07961178 0.6067165 0.11502273
v -0.07961178 0.6067165 0.13502273
v -0.091121234 0.5905654 0.13489999
v -0.091121234 0.5905654 0.11000001
v 0.121931076 0.7582352 0.112000026
v 0.121931076 0.7582352 0.13489999
v 0.0886055 0.76427245 0.13489999
v 0.0886055 0.76427245 0.112000026
v -0.091121234 0.5905654 0.11000001
v -0.091121234 0.5905654 0.13489999
v -0.10641126 0.5392069 0.12826811
v -0.10641126 0.5392069 0.11000001
v 0.17211936 0.7116972 0.112000026
v 0.17211936 0.7116972 0.13489999
v 0.121931076 0.7582352 0.13489999
v 0.121931076 0.7582352 0.112000026
v -0.10641126 0.5392069 0.11000001
v -0.10641126 0.5392069 0.12826811
v -0.09409004 0.504598 0.12826811
v -0.09409004 0.504598 0.11000001
vt 0.6001827 0.62016314
vt 0.61734176 0.6042521
vt 0.58878905 0.62222725
vt 0.62025857 0.5930464
vt 0.61301506 0.5792398
vt 0.5755677 0.6139637
vt 0.60351056 0.568868
vt 0.56557196 0.60330594
vt 0.59421897 0.5570099
vt 0.5539269 0.59164625
vt 0.58541244 0.5450219
vt 0.54226506 0.57898617
vt 0.57961434 0.53296876
vt 0.53127664 0.56836
vt 0.57605857 0.52801204
vt 0.5273417 0.5628382
vt 0.56113595 0.5173837
vt 0.52211416 0.5452791
vt 0.5263267 0.5334466
vt 0.5485769 0.51754075
vt 0.57605857 0.52801204
vt 0.57605857 0.52801204
vt 0.57961434 0.53296876
vt 0.57961434 0.53296876
vt 0.5755677 0.6139637
vt 0.5755677 0.6139637
vt 0.56557196 0.60330594
vt 0.56557196 0.60330594
vt 0.5539269 0.59164625
vt 0.5539269 0.59164625
vt 0.54226506 0.57898617
vt 0.54226506 0.57898617
vt 0.54226506 0.57898617
vt 0.54226506 0.57898617
vt 0.53127664 0.56836
vt 0.53127664 0.56836
vt 0.58878905 0.62222725
vt 0.58878905 0.62222725
vt 0.5755677 0.6139637
vt 0.5755677 0.6139637
vt 0.61301506 0.5792398
vt 0.61301506 0.5792398
vt 0.62025857 0.5930464
vt 0.62025857 0.5930464
vt 0.60351056 0.568868
vt 0.60351056 0.568868
vt 0.61301506 0.5792398
vt 0.61301506 0.5792398
vt 0.59421897 0.5570099
vt 0.60351056 0.568868
vt 0.60351056 0.568868
vt 0.59421897 0.5570099
vt 0.58541244 0.5450219
vt 0.58541244 0.5450219
vt 0.57961434 0.53296876
vt 0.57961434 0.53296876
vt 0.58541244 0.5450219
vt 0.58541244 0.5450219
vt 0.62025857 0.5930464
vt 0.62025857 0.5930464
vt 0.61734176 0.6042521
vt 0.61734176 0.6042521
vt 0.5263267 0.5334466
vt 0.5263267 0.5334466
vt 0.5485769 0.51754075
vt 0.5485769 0.51754075
vt 0.5485769 0.51754075
vt 0.5485769 0.51754075
vt 0.56113595 0.5173837
vt 0.56113595 0.5173837
vt 0.56113595 0.5173837
vt 0.56113595 0.5173837
vt 0.57605857 0.52801204
vt 0.57605857 0.52801204
vt 0.53127664 0.56836
vt 0.53127664 0.56836
vt 0.5273417 0.5628382
vt 0.5273417 0.5628382
vt 0.6001827 0.62016314
vt 0.6001827 0.62016314
vt 0.58878905 0.62222725
vt 0.58878905 0.62222725
vt 0.5273417 0.5628382
vt 0.5273417 0.5628382
vt 0.52211416 0.5452791
vt 0.52211416 0.5452791
vt 0.61734176 0.6042521
vt 0.61734176 0.6042521
vt 0.6001827 0.62016314
vt 0.6001827 0.62016314
vt 0.52211416 0.5452791
vt 0.52211416 0.5452791
vt 0.5263267 0.5334466
vt 0.5263267 0.5334466
vn -0 0 1
vn 6.1855894E-07 0 1
vn -0 0 1
vn 1.5766838E-07 0 1
vn 0.05028177 0.054806814 0.9972301
vn 0.050278712 0.054803472 0.99723047
vn 0.10918803 0.121748805 0.986537
vn 0.10917543 0.12173309 0.98654026
vn 0.047537666 0.0527166 0.99747735
vn 0.047794983 0.053011667 0.99744946
vn -0.107726336 -0.14086644 0.98415023
vn -0.10714059 -0.14008354 0.98432595
vn -0.08596844 -0.11352782 0.9898085
vn -0.08693726 -0.1148044 0.9895766
vn -0.03550595 -0.049632218 0.9981363
vn -0.035507847 -0.04963488 0.99813604
vn -0.057255052 -0.08009166 0.99514174
vn -0.057255004 -0.08009165 0.99514174
vn 2.398268E-07 0 1
vn -0 0 1
vn 0.8125406 -0.5829046 0
vn 0.8125406 -0.5829046 0
vn 0.8125406 -0.5829046 0
vn 0.8125406 -0.5829046 0
vn -0.7294015 0.6840857 0
vn -0.7294015 0.6840857 0
vn -0.7294015 0.6840857 0
vn -0.7294015 0.6840857 0
vn -0.73551625 0.677507 0
vn -0.73551625 0.677507 0
vn -0.73551625 0.677507 0
vn -0.73551625 0.677507 0
vn -0.6951545 0.7188604 0
vn -0.6951545 0.7188604 0
vn -0.6951545 0.7188604 0
vn -0.6951545 0.7188604 0
vn -0.53000987 0.84799147 0
vn -0.53000987 0.84799147 0
vn -0.53000987 0.84799147 0
vn -0.53000987 0.84799147 0
vn 0.8855249 -0.4645918 0
vn 0.8855249 -0.4645918 0
vn 0.8855249 -0.4645918 0
vn 0.8855249 -0.4645918 0
vn 0.73726296 -0.675606 0
vn 0.73726296 -0.675606 0
vn 0.73726296 -0.675606 0
vn 0.73726296 -0.675606 0
vn 0.78713584 -0.6167798 0
vn 0.78713584 -0.6167798 0
vn 0.78713584 -0.6167798 0
vn 0.78713584 -0.6167798 0
vn 0.8059137 -0.5920331 0
vn 0.8059137 -0.5920331 0
vn 0.9011585 -0.43348983 0
vn 0.9011585 -0.43348983 0
vn 0.9011585 -0.43348983 0
vn 0.9011585 -0.43348983 0
vn 0.9677503 0.2519112 0
vn 0.9677503 0.2519112 0
vn 0.9677503 0.2519112 0
vn 0.9677503 0.2519112 0
vn -0.58155125 -0.8135097 0
vn -0.58155125 -0.8135097 0
vn -0.58155125 -0.8135097 0
vn -0.58155125 -0.8135097 0
vn -0.012493884 -0.9999219 0
vn -0.012493884 -0.9999219 0
vn -0.012493884 -0.9999219 0
vn -0.012493884 -0.9999219 0
vn 0.5801251 -0.81452745 0
vn 0.5801251 -0.81452745 0
vn 0.5801251 -0.81452745 0
vn 0.5801251 -0.81452745 0
vn -0.8143782 0.5803344 0
vn -0.8143782 0.5803344 0
vn -0.8143782 0.5803344 0
vn -0.8143782 0.5803344 0
vn 0.17825723 0.983984 0
vn 0.17825723 0.983984 0
vn 0.17825723 0.983984 0
vn 0.17825723 0.983984 0
vn -0.9584276 0.28533557 0
vn -0.9584276 0.28533557 0
vn -0.9584276 0.28533557 0
vn -0.9584276 0.28533557 0
vn 0.6799379 0.73326975 0
vn 0.6799379 0.73326975 0
vn 0.6799379 0.73326975 0
vn 0.6799379 0.73326975 0
vn -0.9420786 -0.33539218 0
vn -0.9420786 -0.33539218 0
vn -0.9420786 -0.33539218 0
vn -0.9420786 -0.33539218 0
g Bridge B_0
f 3/3/3 2/2/2 1/1/1
f 2/2/2 3/3/3 4/4/4
f 4/4/4 3/3/3 5/5/5
f 3/3/3 6/6/6 5/5/5
f 5/5/5 6/6/6 7/7/7
f 6/6/6 8/8/8 7/7/7
f 7/7/7 8/8/8 9/9/9
f 8/8/8 10/10/10 9/9/9
f 9/9/9 10/10/10 11/11/11
f 10/10/10 12/12/12 11/11/11
f 11/11/11 12/12/12 13/13/13
f 12/12/12 14/14/14 13/13/13
f 13/13/13 14/14/14 15/15/15
f 14/14/14 16/16/16 15/15/15
f 15/15/15 16/16/16 17/17/17
f 16/16/16 18/18/18 17/17/17
f 19/19/19 17/17/17 18/18/18
f 17/17/17 19/19/19 20/20/20
g Bridge B_1
f 23/23/23 22/22/22 21/21/21
f 24/24/24 23/23/23 21/21/21
f 27/27/27 26/26/26 25/25/25
f 28/28/28 27/27/27 25/25/25
f 29/29/29 27/27/27 28/28/28
f 30/30/30 29/29/29 28/28/28
f 31/31/31 29/29/29 30/30/30
f 32/32/32 31/31/31 30/30/30
f 35/35/35 34/34/34 33/33/33
f 36/36/36 35/35/35 33/33/33
f 39/39/39 38/38/38 37/37/37
f 40/40/40 39/39/39 37/37/37
f 43/43/43 42/42/42 41/41/41
f 44/44/44 43/43/43 41/41/41
f 47/47/47 46/46/46 45/45/45
f 48/48/48 47/47/47 45/45/45
f 51/51/51 50/50/50 49/49/49
f 50/50/50 52/52/52 49/49/49
f 49/49/49 52/52/52 53/53/53
f 52/52/52 54/54/54 53/53/53
f 57/57/57 56/56/56 55/55/55
f 58/58/58 57/57/57 55/55/55
f 61/61/61 60/60/60 59/59/59
f 62/62/62 61/61/61 59/59/59
f 65/65/65 64/64/64 63/63/63
f 66/66/66 65/65/65 63/63/63
f 69/69/69 68/68/68 67/67/67
f 70/70/70 69/69/69 67/67/67
f 73/73/73 72/72/72 71/71/71
f 74/74/74 73/73/73 71/71/71
f 77/77/77 76/76/76 75/75/75
f 78/78/78 77/77/77 75/75/75
f 81/81/81 80/80/80 79/79/79
f 82/82/82 81/81/81 79/79/79
f 85/85/85 84/84/84 83/83/83
f 86/86/86 85/85/85 83/83/83
f 89/89/89 88/88/88 87/87/87
f 90/90/90 89/89/89 87/87/87
f 93/93/93 92/92/92 91/91/91
f 94/94/94 93/93/93 91/91/91
