g Broken Bridge
v 0.7057668 0.393639 0.26007983
v 0.70148885 0.393639 0.2949
v 0.6612988 0.3967656 0.29559582
v 0.6655767 0.3967656 0.26685873
v 0.52513015 0.24179342 0.29007483
v 0.5373938 0.24179342 0.23406705
v 0.53782964 0.39761448 0.23416246
v 0.52556586 0.39761448 0.29017025
v 0.6592211 0.24112667 0.26546708
v 0.6947971 0.2408777 0.2949
v 0.699075 0.2408777 0.25861457
v 0.6549432 0.24112667 0.29420418
v 0.61647046 0.24323525 0.28676984
v 0.6121925 0.24323525 0.30630696
v 0.57401574 0.24593142 0.28981307
v 0.56973785 0.24593142 0.3093502
v 0.6201777 0.39765206 0.28758156
v 0.61589974 0.39765206 0.30711868
v 0.5685357 0.3959862 0.30908695
v 0.57281363 0.3959862 0.28954983
v 0.6655767 0.3967656 0.26685873
v 0.6612988 0.3967656 0.29559582
v 0.61589974 0.39765206 0.30711868
v 0.6201777 0.39765206 0.28758156
v 0.57281363 0.3959862 0.28954983
v 0.5685357 0.3959862 0.30908695
v 0.52556586 0.39761448 0.29017025
v 0.53782964 0.39761448 0.23416246
v 0.5373938 0.24179342 0.23406705
v 0.52513015 0.24179342 0.29007483
v 0.56973785 0.24593142 0.3093502
v 0.57401574 0.24593142 0.28981307
v 0.52513015 0.24179342 0.29007483
v 0.52556586 0.39761448 0.29017025
v 0.5685357 0.3959862 0.30908695
v 0.56973785 0.24593142 0.3093502
v 0.61589974 0.39765206 0.30711868
v 0.6121925 0.24323525 0.30630696
v 0.6612988 0.3967656 0.29559582
v 0.6549432 0.24112667 0.29420418
v 0.70148885 0.393639 0.2949
v 0.6947971 0.2408777 0.2949
vt 0.79186416 0.14951527
vt 0.7904016 0.14951527
vt 0.77666104 0.15058422
vt 0.77812344 0.15058422
vt 0.7301059 0.09760043
vt 0.73429877 0.09760043
vt 0.7344477 0.15087447
vt 0.73025477 0.15087447
vt 0.77595055 0.09737244
vt 0.7881137 0.09728736
vt 0.7895763 0.09728736
vt 0.7744881 0.09737244
vt 0.76133454 0.09809339
vt 0.75987184 0.09809339
vt 0.74681956 0.09901515
vt 0.74535686 0.09901515
vt 0.7626019 0.15088731
vt 0.76113933 0.15088731
vt 0.7449458 0.15031779
vt 0.7464085 0.15031779
vt 0.77812344 0.15058422
vt 0.77666104 0.15058422
vt 0.76113933 0.15088731
vt 0.7626019 0.15088731
vt 0.7464085 0.15031779
vt 0.7449458 0.15031779
vt 0.73025477 0.15087447
vt 0.7344477 0.15087447
vt 0.73429877 0.09760043
vt 0.7301059 0.09760043
vt 0.74535686 0.09901515
vt 0.74681956 0.09901515
vt 0.7301059 0.09760043
vt 0.73025477 0.15087447
vt 0.7449458 0.15031779
vt 0.74535686 0.09901515
vt 0.76113933 0.15088731
vt 0.75987184 0.09809339
vt 0.77666104 0.15058422
vt 0.7744881 0.09737244
vt 0.7904016 0.14951527
vt 0.7881137 0.09728736
vn 0.07853392 0.9968554 0.010572337
vn 0.07853392 0.9968554 0.010572337
vn 0.07853392 0.9968554 0.010572337
vn 0.07853392 0.9968554 0.010572337
vn -0.9768523 0.0028628898 -0.21389566
vn -0.9768523 0.0028628898 -0.21389566
vn -0.9768523 0.0028628898 -0.21389566
vn -0.9768523 0.0028628898 -0.21389566
vn -0.006311002 -0.99997973 -0.0008304238
vn -0.006311002 -0.99997973 -0.0008304238
vn -0.006311002 -0.99997973 -0.0008304238
vn -0.006311002 -0.99997973 -0.0008304238
vn -0.057084695 -0.9983077 -0.011094185
vn -0.060165532 -0.99811184 -0.012362244
vn -0.06437948 -0.9978259 -0.014096903
vn -0.06437948 -0.9978259 -0.014096903
vn -0.03547058 0.9993405 -0.007766241
vn -0.03547058 0.9993405 -0.007766241
vn -0.03547058 0.9993405 -0.007766241
vn -0.03547058 0.9993405 -0.007766241
vn 0.020832796 0.9997762 0.0036919
vn 0.020832796 0.9997762 0.0036919
vn 0.020832796 0.9997762 0.0036919
vn 0.020832796 0.9997762 0.0036919
vn 0.034539964 0.9993747 0.0075623444
vn 0.034539964 0.9993747 0.0075623444
vn 0.034539964 0.9993747 0.0075623444
vn 0.034539964 0.9993747 0.0075623444
vn 0.08442852 -0.996258 0.018486489
vn 0.08442852 -0.996258 0.018486489
vn 0.08442852 -0.996258 0.018486489
vn 0.08442852 -0.996258 0.018486489
vn -0.39972478 -0.0004984939 0.916635
vn -0.39972478 -0.0004984939 0.916635
vn -0.17794807 -0.0014116815 0.9840388
vn -0.17722851 -0.0014144611 0.9841687
vn 0.15990658 -0.008930919 0.9870918
vn 0.15999345 -0.008936488 0.9870776
vn 0.13098513 -0.009994766 0.991334
vn 0.13121825 -0.0100044515 0.99130297
vn -0.0001894865 -0.0045044385 0.99998987
vn -0.0001894865 -0.0045044385 0.99998987
g Broken Bridge_0
f 3/3/3 2/2/2 1/1/1
f 4/4/4 3/3/3 1/1/1
f 7/7/7 6/6/6 5/5/5
f 8/8/8 7/7/7 5/5/5
f 11/11/11 10/10/10 9/9/9
f 10/10/10 12/12/12 9/9/9
f 9/9/9 12/12/12 13/13/13
f 12/12/12 14/14/14 13/13/13
f 13/13/13 14/14/14 15/15/15
f 14/14/14 16/16/16 15/15/15
f 19/19/19 18/18/18 17/17/17
f 20/20/20 19/19/19 17/17/17
f 23/23/23 22/22/22 21/21/21
f 24/24/24 23/23/23 21/21/21
f 27/27/27 26/26/26 25/25/25
f 28/28/28 27/27/27 25/25/25
f 31/31/31 30/30/30 29/29/29
f 32/32/32 31/31/31 29/29/29
g Broken Bridge_1
f 35/35/35 34/34/34 33/33/33
f 36/36/36 35/35/35 33/33/33
f 37/37/37 35/35/35 36/36/36
f 38/38/38 37/37/37 36/36/36
f 39/39/39 37/37/37 38/38/38
f 40/40/40 39/39/39 38/38/38
f 41/41/41 39/39/39 40/40/40
f 42/42/42 41/41/41 40/40/40
