g Broken Graveyard Tower
v -0.86179614 0.6053954 9.299453
v 0.74690825 0.45570436 11.524697
v -0.69747657 -0.99248636 11.475997
v 0.58685756 -0.83888936 10.808867
v -0.69747657 -0.99248636 11.475997
v 0.74690825 0.45570436 11.524697
v -1.092262 -1.091073 -0.036651477
v -1.0881022 1.0765125 0.019325495
v -0.9698254 0.70504874 9.858221
v -0.9733177 -1.1138402 12.560503
v 1.0889481 -1.089115 -0.020103931
v -1.092262 -1.091073 -0.036651477
v -0.9733177 -1.1138402 12.560503
v 0.858591 -1.1200851 11.364056
v 1.09139 1.1036654 0.03743884
v 1.0889481 -1.089115 -0.020103931
v 0.858591 -1.1200851 11.364056
v 0.84321994 0.70454466 12.621548
v -1.0881022 1.0765125 0.019325495
v 1.09139 1.1036654 0.03743884
v 0.84321994 0.70454466 12.621548
v -0.9698254 0.70504874 9.858221
v 0.67748004 0.5242803 12.559043
v 0.74690825 0.45570436 11.524697
v -0.86179614 0.6053954 9.299453
v -0.8003207 0.5314374 9.915119
v -1.1619889 -1.259009 9.096426
v -1.1619896 0.99058264 9.096426
v -1.1619896 0.99058235 9.384197
v -1.1619892 -1.259009 9.384196
v -1.1619896 0.99058264 9.096426
v 1.0876021 0.99058217 9.096426
v 1.087602 0.99058217 9.384196
v -1.1619896 0.99058235 9.384197
v 1.0876021 0.99058217 9.096426
v 1.0876019 -1.2590088 9.096424
v 1.0876026 -1.259009 9.384196
v 1.087602 0.99058217 9.384196
v 1.0876019 -1.2590088 9.096424
v -1.1619889 -1.259009 9.096426
v -1.1619892 -1.259009 9.384196
v 1.0876026 -1.259009 9.384196
v -1.1619896 0.99058264 9.096426
v -1.1619889 -1.259009 9.096426
v 1.0876019 -1.2590088 9.096424
v 1.0876021 0.99058217 9.096426
v 1.087602 0.99058217 9.384196
v 1.0876026 -1.259009 9.384196
v -1.1619892 -1.259009 9.384196
v -1.1619896 0.99058235 9.384197
v -0.78828025 -0.9456153 12.50965
v -0.9733177 -1.1138402 12.560503
v -0.9698254 0.70504874 9.858221
v -0.8003207 0.5314374 9.915119
v 0.66979 -0.93443465 11.42052
v 0.858591 -1.1200851 11.364056
v -0.9733177 -1.1138402 12.560503
v -0.78828025 -0.9456153 12.50965
v 0.67748004 0.5242803 12.559043
v 0.84321994 0.70454466 12.621548
v 0.858591 -1.1200851 11.364056
v 0.66979 -0.93443465 11.42052
v -0.8003207 0.5314374 9.915119
v -0.9698254 0.70504874 9.858221
v 0.84321994 0.70454466 12.621548
v 0.67748004 0.5242803 12.559043
v -0.78828025 -0.9456153 12.50965
v -0.69747657 -0.99248636 11.475997
v 0.58685756 -0.83888936 10.808867
v 0.66979 -0.93443465 11.42052
v 0.66979 -0.93443465 11.42052
v 0.58685756 -0.83888936 10.808867
v 0.74690825 0.45570436 11.524697
v 0.67748004 0.5242803 12.559043
v -0.8003207 0.5314374 9.915119
v -0.86179614 0.6053954 9.299453
v -0.69747657 -0.99248636 11.475997
v -0.78828025 -0.9456153 12.50965
v -1.1319239 -1.2550315 11.576048
v -0.8741165 0.90717936 11.0112095
v -0.988964 0.9866046 11.262832
v -1.2467715 -1.1756063 11.827669
v -0.8741165 0.90717936 11.0112095
v 1.1723825 0.9071789 11.945289
v 1.0575354 0.9866041 12.19691
v -0.988964 0.9866046 11.262832
v 1.1723825 0.9071789 11.945289
v 0.91457516 -1.2550317 12.510125
v 0.7997278 -1.1756063 12.761749
v 1.0575354 0.9866041 12.19691
v 0.91457516 -1.2550317 12.510125
v -1.1319239 -1.2550315 11.576048
v -1.2467715 -1.1756063 11.827669
v 0.7997278 -1.1756063 12.761749
v 0.9010353 0.65256464 11.901809
v -0.66348654 0.6525649 11.1877165
v -0.7783341 0.7319901 11.43934
v 0.7861881 0.73198974 12.15343
v 0.7039452 -1.0004174 12.333618
v 0.9010353 0.65256464 11.901809
v 0.7861881 0.73198974 12.15343
v 0.58909786 -0.92099184 12.585241
v -0.86057675 -1.000417 11.619529
v 0.7039452 -1.0004174 12.333618
v 0.58909786 -0.92099184 12.585241
v -0.9754241 -0.92099184 11.87115
v -0.66348654 0.6525649 11.1877165
v -0.86057675 -1.000417 11.619529
v -0.9754241 -0.92099184 11.87115
v -0.7783341 0.7319901 11.43934
v 0.7861881 0.73198974 12.15343
v 0.7997278 -1.1756063 12.761749
v 0.58909786 -0.92099184 12.585241
v 1.0575354 0.9866041 12.19691
v -1.2467715 -1.1756063 11.827669
v -0.7783341 0.7319901 11.43934
v -0.9754241 -0.92099184 11.87115
v -0.988964 0.9866046 11.262832
v 0.7039452 -1.0004174 12.333618
v 0.91457516 -1.2550317 12.510125
v 1.1723825 0.9071789 11.945289
v 0.9010353 0.65256464 11.901809
v -0.86057675 -1.000417 11.619529
v -0.8741165 0.90717936 11.0112095
v -1.1319239 -1.2550315 11.576048
v -0.66348654 0.6525649 11.1877165
vt 0.5636749 0.10569002
vt 0.56367505 0.2619778
vt 0.56367505 0.6552935
vt 0.56367505 0.48872453
vt 0.56367505 0.6552935
vt 0.56367505 0.2619778
vt 0.5 0.75
vt 0.5 1
vt 0.5636749 0.988218
vt 0.56367505 0.75061774
vt 0.5 0.5
vt 0.5 0.75
vt 0.56367505 0.75061774
vt 0.563675 0.49999762
vt 0.5 0.25
vt 0.5 0.5
vt 0.563675 0.49999762
vt 0.56367505 0.24929303
vt 0.5 0
vt 0.5 0.25
vt 0.56367505 0.24929303
vt 0.5636749 0.011777424
vt 0.56367505 0.2619778
vt 0.56367505 0.2619778
vt 0.5636749 0.10569002
vt 0.5636749 0.10569002
vt 0.375 0
vt 0.375 0.25
vt 0.625 0.25
vt 0.625 0
vt 0.375 0.25
vt 0.375 0.5
vt 0.625 0.5
vt 0.625 0.25
vt 0.375 0.5
vt 0.375 0.75
vt 0.625 0.75
vt 0.625 0.5
vt 0.375 0.75
vt 0.375 1
vt 0.625 1
vt 0.625 0.75
vt 0.125 0.5
vt 0.125 0.75
vt 0.375 0.75
vt 0.375 0.5
vt 0.625 0.5
vt 0.625 0.75
vt 0.875 0.75
vt 0.875 0.5
vt 0.56367505 0.6552935
vt 0.56367505 0.75061774
vt 0.5636749 0.011777424
vt 0.5636749 0.10569002
vt 0.56367505 0.48872453
vt 0.563675 0.49999762
vt 0.56367505 0.75061774
vt 0.56367505 0.6552935
vt 0.56367505 0.2619778
vt 0.56367505 0.24929303
vt 0.563675 0.49999762
vt 0.56367505 0.48872453
vt 0.5636749 0.10569002
vt 0.5636749 0.011777424
vt 0.56367505 0.24929303
vt 0.56367505 0.2619778
vt 0.56367505 0.6552935
vt 0.56367505 0.6552935
vt 0.56367505 0.48872453
vt 0.56367505 0.48872453
vt 0.56367505 0.48872453
vt 0.56367505 0.48872453
vt 0.56367505 0.2619778
vt 0.56367505 0.2619778
vt 0.5636749 0.10569002
vt 0.5636749 0.10569002
vt 0.56367505 0.6552935
vt 0.56367505 0.6552935
vt 0.375 0
vt 0.375 0.25
vt 0.625 0.25
vt 0.625 0
vt 0.375 0.25
vt 0.375 0.5
vt 0.625 0.5
vt 0.625 0.25
vt 0.375 0.5
vt 0.375 0.75
vt 0.625 0.75
vt 0.625 0.5
vt 0.375 0.75
vt 0.375 1
vt 0.625 1
vt 0.625 0.75
vt 0.34556088 0.5294391
vt 0.15443912 0.5294391
vt 0.8455608 0.52943915
vt 0.6544391 0.52943915
vt 0.34556085 0.7205608
vt 0.34556088 0.5294391
vt 0.6544391 0.52943915
vt 0.6544391 0.72056085
vt 0.15443915 0.7205609
vt 0.34556085 0.7205608
vt 0.6544391 0.72056085
vt 0.84556085 0.72056085
vt 0.15443912 0.5294391
vt 0.15443915 0.7205609
vt 0.84556085 0.72056085
vt 0.8455608 0.52943915
vt 0.6544391 0.52943915
vt 0.625 0.75
vt 0.6544391 0.72056085
vt 0.625 0.5
vt 0.875 0.75
vt 0.8455608 0.52943915
vt 0.84556085 0.72056085
vt 0.875 0.5
vt 0.34556085 0.7205608
vt 0.375 0.75
vt 0.375 0.5
vt 0.34556088 0.5294391
vt 0.15443915 0.7205609
vt 0.125 0.5
vt 0.125 0.75
vt 0.15443912 0.5294391
vn -0.62452346 0.60632825 0.49227685
vn -0.62452346 0.60632825 0.49227685
vn -0.62452346 0.60632825 0.49227685
vn 0.4498459 -0.4741165 0.75687
vn 0.4498459 -0.4741165 0.75687
vn 0.4498459 -0.4741165 0.75687
vn -0.99990153 0.009042789 0.010731068
vn -0.99990153 0.009042789 0.010731068
vn -0.99990153 0.009042789 0.010731068
vn -0.99990153 0.009042789 0.010731068
vn -0.0017293909 -0.99999595 -0.0022488202
vn -0.0017293909 -0.99999595 -0.0022488202
vn -0.0017293909 -0.99999595 -0.0022488202
vn -0.0017293909 -0.99999595 -0.0022488202
vn 0.99979657 -0.0032969394 0.019901808
vn 0.99979657 -0.0032969394 0.019901808
vn 0.99979657 -0.0032969394 0.019901808
vn 0.99979657 -0.0032969394 0.019901808
vn -0.030460905 0.99895227 0.034153342
vn -0.030460905 0.99895227 0.034153342
vn -0.030460905 0.99895227 0.034153342
vn -0.030460905 0.99895227 0.034153342
vn -0.04528018 -0.99896824 -0.0034767252
vn -0.04528018 -0.99896824 -0.0034767252
vn -0.04528018 -0.99896824 -0.0034767252
vn -0.04528018 -0.99896824 -0.0034767252
vn -1 0 0
vn -1 0 0
vn -1 0 0
vn -1 0 0
vn -0 1 0
vn -0 1 0
vn -0 1 0
vn -0 1 0
vn 1 0 0
vn 1 0 0
vn 1 0 0
vn 1 0 0
vn -0 -1 0
vn -0 -1 0
vn -0 -1 0
vn -0 -1 0
vn -0 0 -1
vn -0 0 -1
vn -0 0 -1
vn -0 0 -1
vn -0 0 1
vn -0 0 1
vn -0 0 1
vn -0 0 1
vn 0.0038875209 0.84904253 0.5283102
vn 0.0038875209 0.84904253 0.5283102
vn 0.0038875209 0.84904253 0.5283102
vn 0.0038875209 0.84904253 0.5283102
vn 0.5705357 -0.0069547347 0.8212434
vn 0.5705357 -0.0069547347 0.8212434
vn 0.5705357 -0.0069547347 0.8212434
vn 0.5705357 -0.0069547347 0.8212434
vn -0.022717047 -0.58936137 0.8075501
vn -0.022717047 -0.58936137 0.8075501
vn -0.022717047 -0.58936137 0.8075501
vn -0.022717047 -0.58936137 0.8075501
vn -0.85411817 -0.01732208 0.5197905
vn -0.85411817 -0.01732208 0.5197905
vn -0.85411817 -0.01732208 0.5197905
vn -0.85411817 -0.01732208 0.5197905
vn -0.04121303 0.9987192 0.029348634
vn -0.04121303 0.9987192 0.029348634
vn -0.04121303 0.9987192 0.029348634
vn -0.04121303 0.9987192 0.029348634
vn -0.998461 0.05470878 0.009088066
vn -0.998461 0.05470878 0.009088066
vn -0.998461 0.05470878 0.009088066
vn -0.998461 0.05470878 0.009088066
vn 0.9960401 0.08682076 0.01913747
vn 0.9960401 0.08682076 0.01913747
vn 0.9960401 0.08682076 0.01913747
vn 0.9960401 0.08682076 0.01913747
vn -0.9097199 0 -0.41522253
vn -0.9097199 0 -0.41522253
vn -0.9097199 0 -0.41522253
vn -0.9097199 0 -0.41522253
vn 0.11460222 0.9611571 -0.25108454
vn 0.11460222 0.9611571 -0.25108454
vn 0.11460222 0.9611571 -0.25108454
vn 0.11460222 0.9611571 -0.25108454
vn 0.90972215 0 0.4152175
vn 0.90972215 0 0.4152175
vn 0.90972215 0 0.4152175
vn 0.90972215 0 0.4152175
vn -0.11460185 -0.9611572 0.25108406
vn -0.11460185 -0.9611572 0.25108406
vn -0.11460185 -0.9611572 0.25108406
vn -0.11460185 -0.9611572 0.25108406
vn -0.11460199 -0.9611572 0.25108442
vn -0.11460199 -0.9611572 0.25108442
vn -0.11460199 -0.9611572 0.25108442
vn -0.11460199 -0.9611572 0.25108442
vn -0.90972006 0 -0.415222
vn -0.90972006 0 -0.415222
vn -0.90972006 0 -0.415222
vn -0.90972006 0 -0.415222
vn 0.11460199 0.96115696 -0.251085
vn 0.11460199 0.96115696 -0.251085
vn 0.11460199 0.96115696 -0.251085
vn 0.11460199 0.96115696 -0.251085
vn 0.9097206 0 0.41522107
vn 0.9097206 0 0.41522107
vn 0.9097206 0 0.41522107
vn 0.9097206 0 0.41522107
vn -0.3990922 0.2760045 0.8743838
vn -0.39909872 0.2760016 0.87438166
vn -0.39909872 0.2760016 0.87438166
vn -0.3990922 0.2760045 0.8743838
vn -0.3990926 0.27600196 0.8743844
vn -0.3990926 0.27600196 0.8743844
vn -0.3990926 0.27600196 0.8743844
vn -0.3990926 0.27600196 0.8743844
vn 0.39908674 -0.27600202 -0.8743871
vn 0.39908674 -0.27600202 -0.8743871
vn 0.39909294 -0.27600282 -0.874384
vn 0.39909294 -0.27600282 -0.874384
vn 0.3990927 -0.27600223 -0.8743842
vn 0.3990927 -0.27600223 -0.8743842
vn 0.3990927 -0.27600223 -0.8743842
vn 0.3990927 -0.27600223 -0.8743842
g Broken Graveyard Tower_0
f 3/3/3 2/2/2 1/1/1
f 6/6/6 5/5/5 4/4/4
f 9/9/9 8/8/8 7/7/7
f 10/10/10 9/9/9 7/7/7
f 13/13/13 12/12/12 11/11/11
f 14/14/14 13/13/13 11/11/11
f 17/17/17 16/16/16 15/15/15
f 18/18/18 17/17/17 15/15/15
f 21/21/21 20/20/20 19/19/19
f 22/22/22 21/21/21 19/19/19
f 25/25/25 24/24/24 23/23/23
f 26/26/26 25/25/25 23/23/23
f 29/29/29 28/28/28 27/27/27
f 30/30/30 29/29/29 27/27/27
f 33/33/33 32/32/32 31/31/31
f 34/34/34 33/33/33 31/31/31
f 37/37/37 36/36/36 35/35/35
f 38/38/38 37/37/37 35/35/35
f 41/41/41 40/40/40 39/39/39
f 42/42/42 41/41/41 39/39/39
f 45/45/45 44/44/44 43/43/43
f 46/46/46 45/45/45 43/43/43
f 49/49/49 48/48/48 47/47/47
f 50/50/50 49/49/49 47/47/47
f 53/53/53 52/52/52 51/51/51
f 54/54/54 53/53/53 51/51/51
f 57/57/57 56/56/56 55/55/55
f 58/58/58 57/57/57 55/55/55
f 61/61/61 60/60/60 59/59/59
f 62/62/62 61/61/61 59/59/59
f 65/65/65 64/64/64 63/63/63
f 66/66/66 65/65/65 63/63/63
f 69/69/69 68/68/68 67/67/67
f 70/70/70 69/69/69 67/67/67
f 73/73/73 72/72/72 71/71/71
f 74/74/74 73/73/73 71/71/71
f 77/77/77 76/76/76 75/75/75
f 78/78/78 77/77/77 75/75/75
f 81/81/81 80/80/80 79/79/79
f 82/82/82 81/81/81 79/79/79
f 85/85/85 84/84/84 83/83/83
f 86/86/86 85/85/85 83/83/83
f 89/89/89 88/88/88 87/87/87
f 90/90/90 89/89/89 87/87/87
f 93/93/93 92/92/92 91/91/91
f 94/94/94 93/93/93 91/91/91
f 97/97/97 96/96/96 95/95/95
f 98/98/98 97/97/97 95/95/95
f 101/101/101 100/100/100 99/99/99
f 102/102/102 101/101/101 99/99/99
f 105/105/105 104/104/104 103/103/103
f 106/106/106 105/105/105 103/103/103
f 109/109/109 108/108/108 107/107/107
f 110/110/110 109/109/109 107/107/107
f 113/113/113 112/112/112 111/111/111
f 112/112/112 114/114/114 111/111/111
f 115/115/115 112/112/112 113/113/113
f 111/111/111 114/114/114 116/116/116
f 117/117/117 115/115/115 113/113/113
f 114/114/114 118/118/118 116/116/116
f 118/118/118 115/115/115 117/117/117
f 116/116/116 118/118/118 117/117/117
f 121/121/121 120/120/120 119/119/119
f 122/122/122 121/121/121 119/119/119
f 119/119/119 120/120/120 123/123/123
f 124/124/124 121/121/121 122/122/122
f 120/120/120 125/125/125 123/123/123
f 126/126/126 124/124/124 122/122/122
f 123/123/123 125/125/125 126/126/126
f 125/125/125 124/124/124 126/126/126
