g Catapult Arm
v -1.0102754 0.15866414 0
v 1.010277 0.11219241 -0.11219271
v 1.0102766 0.15866414 6.757329E-08
v -1.0102754 0.11219241 -0.11219271
v 1.010277 -1.0135993E-07 -0.15866429
v -1.0102754 -1.0135993E-07 -0.15866429
v 1.0102766 -0.112192675 -0.11219271
v -1.0102754 -0.112192675 -0.11219271
v 1.0102766 -0.15866445 6.757329E-08
v -1.0102754 -0.15866445 0
v 1.0102766 -0.11219281 0.112192675
v -1.0102754 -0.11219281 0.112192675
v 1.0102766 -1.0135993E-07 0.15866432
v -1.0102754 -1.0135993E-07 0.15866418
v 1.0102766 0.1121923 0.112192675
v -1.0102754 0.1121923 0.112192675
v 1.0102766 0.15866414 6.757329E-08
v -1.0102754 0.15866414 0
v 1.0102766 -0.112192675 -0.11219271
v 1.0102766 -0.15866445 6.757329E-08
v 1.0102766 -0.11219281 0.112192675
v 1.0102766 -1.0135993E-07 0.15866432
v 1.010277 -1.0135993E-07 -0.15866429
v 1.010277 0.11219241 -0.11219271
v 1.0102766 0.1121923 0.112192675
v 1.0102766 0.15866414 6.757329E-08
v -1.0102754 -0.11219281 0.112192675
v -1.0102754 -0.15866445 0
v -1.0102754 -0.112192675 -0.11219271
v -1.0102754 -1.0135993E-07 0.15866418
v -1.0102754 -1.0135993E-07 -0.15866429
v -1.0102754 0.1121923 0.112192675
v -1.0102754 0.11219241 -0.11219271
v -1.0102754 0.15866414 0
v -0.16008301 -0.05048985 -0.05104189
v -0.11319517 2.332701 1.4794985
v -0.16008279 2.2677732 1.5722235
v -0.11319529 0.014436763 -0.1437671
v 1.0558326E-06 2.3595939 1.4410908
v 8.2354944E-07 0.041330256 -0.18217482
v 0.11319739 2.3326998 1.4794981
v 0.11319717 0.014436763 -0.14376704
v 0.1600849 2.2677732 1.5722231
v 0.16008477 -0.05049005 -0.05104189
v 0.113197625 2.2028463 1.6649481
v 0.11319739 -0.115416735 0.041683156
v 1.0558326E-06 2.1759522 1.7033564
v 8.2354944E-07 -0.14231008 0.08009104
v -0.11319494 2.2028463 1.6649481
v -0.11319517 -0.115416735 0.041683156
v -0.16008279 2.2677732 1.5722235
v -0.16008301 -0.05048985 -0.05104189
v -0.11319517 2.332701 1.4794985
v 1.0558326E-06 2.3595939 1.4410908
v 0.11319739 2.3326998 1.4794981
v 0.1600849 2.2677732 1.5722231
v -0.16008279 2.2677732 1.5722235
v 0.113197625 2.2028463 1.6649481
v -0.11319494 2.2028463 1.6649481
v 1.0558326E-06 2.1759522 1.7033564
v 0.11319717 0.014436763 -0.14376704
v 8.2354944E-07 0.041330256 -0.18217482
v -0.11319529 0.014436763 -0.1437671
v -0.16008301 -0.05048985 -0.05104189
v 0.16008477 -0.05049005 -0.05104189
v 0.11319739 -0.115416735 0.041683156
v -0.11319517 -0.115416735 0.041683156
v 8.2354944E-07 -0.14231008 0.08009104
v 0.020927224 2.4128351 1.8609263
v 0.34500405 2.1585896 1.989992
v 0.020927224 2.2685494 2.0669863
v 0.34500405 2.3028755 1.7839314
v 0.47924048 1.8931214 1.8041087
v 0.47924048 2.037407 1.598048
v 0.34500405 1.6276531 1.6182258
v 0.34500405 1.7719386 1.4121653
v 0.020927224 1.5176934 1.5412312
v 0.020927224 1.6619781 1.3351705
v -0.3031496 1.6276531 1.6182258
v -0.3031496 1.7719386 1.4121653
v -0.43738613 1.8931214 1.8041087
v -0.43738613 2.037407 1.598048
v -0.3031496 2.1585896 1.989992
v -0.3031496 2.3028755 1.7839314
v 0.020927224 2.2685494 2.0669863
v 0.020927224 2.4128351 1.8609263
v 0.34500405 1.7719386 1.4121653
v 0.47924048 2.037407 1.598048
v 0.34500405 2.3028755 1.7839314
v 0.020927224 1.6619781 1.3351705
v 0.020927224 2.4128351 1.8609263
v -0.3031496 1.7719386 1.4121653
v -0.3031496 2.3028755 1.7839314
v -0.43738613 2.037407 1.598048
v -0.28037444 1.8931214 1.8041087
v -0.43738613 1.8931214 1.8041087
v -0.3031496 2.1585896 1.989992
v -0.19212548 1.7185992 1.6819068
v -0.3031496 1.6276531 1.6182258
v -0.19212548 2.0676441 1.9263109
v 0.020927224 2.2685494 2.0669863
v 0.020927224 1.6463095 1.6312891
v 0.020927224 1.5176934 1.5412312
v 0.020927224 2.1399336 1.9769285
v 0.34500405 2.1585896 1.989992
v 0.2339798 1.7185992 1.6819068
v 0.34500405 1.6276531 1.6182258
v 0.2339798 2.0676441 1.9263109
v 0.47924048 1.8931214 1.8041087
v 0.32222882 1.8931214 1.8041087
v -0.13181263 1.9008673 1.5267527
v -0.19507939 2.0259848 1.6143606
v -0.13181274 2.1511018 1.7019686
v 0.020927224 1.8490424 1.4904642
v 0.020927224 2.202927 1.7382569
v 0.17366695 2.1511018 1.7019686
v 0.17366707 1.9008673 1.5267527
v 0.23693366 2.0259848 1.6143606
vt 1 0.5
vt 0.875 1
vt 1 1
vt 0.875 0.5
vt 0.75 1
vt 0.75 0.5
vt 0.625 1
vt 0.625 0.5
vt 0.5 1
vt 0.5 0.5
vt 0.375 1
vt 0.375 0.5
vt 0.25 1
vt 0.25 0.5
vt 0.125 1
vt 0.125 0.5
vt 0 1
vt 0 0.5
vt 0.4197058 0.080294386
vt 0.25 0.010000005
vt 0.08029419 0.08029437
vt 0.010000005 0.25
vt 0.49 0.24999999
vt 0.4197058 0.41970563
vt 0.08029419 0.4197056
vt 0.25 0.49
vt 0.5802942 0.08029437
vt 0.75 0.010000005
vt 0.9197058 0.080294386
vt 0.51 0.25
vt 0.99 0.24999999
vt 0.5802942 0.4197056
vt 0.9197058 0.41970563
vt 0.75 0.49
vt 0.99999994 0.46845603
vt 0.8749999 1.162569
vt 0.99999946 1.1625686
vt 0.87500024 0.46845612
vt 0.74999976 1.1625688
vt 0.75000006 0.46845615
vt 0.62499994 1.162569
vt 0.62499994 0.4684561
vt 0.5000003 1.162569
vt 0.5000001 0.46845618
vt 0.37500012 1.1625688
vt 0.37499997 0.46845615
vt 0.24999988 1.1625688
vt 0.25000003 0.46845615
vt 0.1249998 1.1625688
vt 0.12500009 0.46845615
vt 1.8542847E-08 1.1625688
vt -4.7801382E-08 0.46845615
vt 0.419706 0.4197051
vt 0.49000102 0.24999927
vt 0.4197041 0.080294445
vt 0.25000006 0.00999957
vt 0.24999931 0.48999903
vt 0.08029373 0.08029324
vt 0.080294006 0.41970515
vt 0.009998551 0.24999996
vt 0.9197058 0.080294386
vt 0.99 0.24999999
vt 0.9197058 0.41970563
vt 0.74999994 0.49
vt 0.74999994 0.010000004
vt 0.58029425 0.08029434
vt 0.5802942 0.4197056
vt 0.51000005 0.24999976
vt 1 0.80076
vt 0.875 1
vt 1 1
vt 0.875 0.80076003
vt 0.75 1
vt 0.74999994 0.8007599
vt 0.625 1
vt 0.625 0.80076003
vt 0.5 1
vt 0.5 0.80076003
vt 0.375 1
vt 0.375 0.80076
vt 0.25 1
vt 0.25 0.80076003
vt 0.125 1
vt 0.12499999 0.80076
vt 0 1
vt 0 0.80076
vt 0.9197058 0.080294386
vt 0.99 0.24999999
vt 0.9197058 0.41970563
vt 0.75 0.010000005
vt 0.75 0.49
vt 0.5802942 0.08029437
vt 0.5802942 0.4197056
vt 0.51 0.25
vt 0.092220634 0.25000003
vt 0.010000005 0.25
vt 0.08029419 0.4197056
vt 0.138433 0.13843311
vt 0.08029419 0.08029437
vt 0.138433 0.36156687
vt 0.25 0.49
vt 0.25 0.09222062
vt 0.25 0.010000005
vt 0.25 0.40777943
vt 0.4197058 0.41970563
vt 0.36156696 0.13843313
vt 0.4197058 0.080294386
vt 0.36156696 0.3615669
vt 0.49 0.24999999
vt 0.40777937 0.24999997
vt 0.17001636 0.17001644
vt 0.13688615 0.24999999
vt 0.1700163 0.32998356
vt 0.25 0.1368862
vt 0.24999997 0.3631138
vt 0.3299836 0.32998356
vt 0.32998365 0.17001647
vt 0.36311376 0.24999997
vn -0 1 0
vn -0 0.7071062 -0.7071073
vn -0 1 0
vn -0 0.7071066 -0.70710695
vn -0 0 -1
vn -0 0 -1
vn -0 -0.70710605 -0.7071075
vn -0 -0.7071065 -0.707107
vn -0 -1 0
vn -0 -1 0
vn -0 -0.70710653 0.707107
vn -0 -0.70710653 0.707107
vn -0 0 1
vn -0 0 1
vn -0 0.70710635 0.7071071
vn -0 0.70710635 0.7071071
vn -0 1 0
vn -0 1 0
vn 1 0 0
vn 1 0 0
vn 1 0 0
vn 1 0 0
vn 1 0 0
vn 1 0 0
vn 1 0 0
vn 1 0 0
vn -1 0 0
vn -1 0 0
vn -1 0 0
vn -1 0 0
vn -1 0 0
vn -1 0 0
vn -1 0 0
vn -1 0 0
vn -1 0 0
vn -0.7071055 0.40558043 -0.57922906
vn -1 0 0
vn -0.70710576 0.40558034 -0.5792288
vn -0 0.57357633 -0.81915206
vn -0 0.5735764 -0.81915206
vn 0.7071055 0.40558037 -0.57922894
vn 0.7071062 0.40558007 -0.57922846
vn 1 0 0
vn 1 0 0
vn 0.7071077 -0.40557924 0.57922715
vn 0.70710754 -0.4055793 0.57922727
vn -0 -0.5735764 0.819152
vn -0 -0.57357645 0.819152
vn -0.7071071 -0.40557954 0.5792277
vn -0.70710665 -0.40557972 0.579228
vn -1 0 0
vn -1 0 0
vn -0 0.81915027 0.5735791
vn -0 0.81915027 0.5735791
vn -0 0.81915027 0.5735791
vn -0 0.81915027 0.5735791
vn -0 0.81915027 0.5735791
vn -0 0.81915027 0.5735791
vn -0 0.81915027 0.5735791
vn -0 0.81915027 0.5735791
vn -0 -0.8191523 -0.573576
vn -0 -0.8191523 -0.573576
vn -0 -0.8191523 -0.573576
vn -0 -0.8191523 -0.573576
vn -0 -0.8191523 -0.573576
vn -0 -0.8191523 -0.573576
vn -0 -0.8191523 -0.573576
vn -0 -0.8191523 -0.573576
vn -0 0.8191506 0.5735784
vn 0.7071067 0.5792271 0.40558103
vn -0 0.8191506 0.5735785
vn 0.70710623 0.57922745 0.40558127
vn 1 0 0
vn 1 0 0
vn 0.70710665 -0.57922804 -0.4055797
vn 0.707107 -0.5792278 -0.40557948
vn -0 -0.8191523 -0.5735759
vn -0 -0.8191524 -0.573576
vn -0.70710653 -0.5792282 -0.40557984
vn -0.7071069 -0.5792279 -0.4055796
vn -1 0 0
vn -1 0 0
vn -0.70710677 0.5792271 0.40558103
vn -0.70710635 0.57922745 0.40558124
vn -0 0.8191506 0.5735785
vn -0 0.8191506 0.5735784
vn -0 0.5735764 -0.819152
vn -0 0.5735764 -0.819152
vn -0 0.5735764 -0.819152
vn -0 0.5735764 -0.819152
vn -0 0.5735764 -0.819152
vn -0 0.5735764 -0.819152
vn -0 0.5735764 -0.819152
vn -0 0.5735764 -0.819152
vn 0.4602097 -0.5092273 0.7272514
vn -0 -0.573577 0.8191516
vn -0 -0.5735771 0.8191516
vn 0.32541704 -0.24266204 0.9139031
vn -0 -0.5735764 0.81915206
vn 0.32541707 -0.7757928 0.5406008
vn -0 -0.5735767 0.8191518
vn -0 -0.13224676 0.9912168
vn -0 -0.5735762 0.8191522
vn -0 -0.88620836 0.463287
vn -0 -0.5735771 0.8191516
vn -0.325417 -0.24266194 0.9139031
vn -0 -0.57357633 0.8191522
vn -0.32541707 -0.7757929 0.5406007
vn -0 -0.573577 0.8191517
vn -0.46020943 -0.5092274 0.72725147
vn 0.46193907 -0.05586605 0.88515043
vn 0.65327954 -0.43426424 0.6201939
vn 0.461939 -0.8126618 0.3552369
vn -0 0.10087044 0.9948996
vn -0 -0.9693997 0.24548791
vn -0.4619388 -0.8126619 0.35523698
vn -0.46193913 -0.05586613 0.8851504
vn -0.65327924 -0.4342646 0.6201939
g Catapult Arm_0
f 3/3/3 2/2/2 1/1/1
f 2/2/2 4/4/4 1/1/1
f 2/2/2 5/5/5 4/4/4
f 5/5/5 6/6/6 4/4/4
f 5/5/5 7/7/7 6/6/6
f 7/7/7 8/8/8 6/6/6
f 7/7/7 9/9/9 8/8/8
f 9/9/9 10/10/10 8/8/8
f 9/9/9 11/11/11 10/10/10
f 11/11/11 12/12/12 10/10/10
f 11/11/11 13/13/13 12/12/12
f 13/13/13 14/14/14 12/12/12
f 13/13/13 15/15/15 14/14/14
f 15/15/15 16/16/16 14/14/14
f 15/15/15 17/17/17 16/16/16
f 17/17/17 18/18/18 16/16/16
f 21/21/21 20/20/20 19/19/19
f 19/19/19 22/22/22 21/21/21
f 19/19/19 23/23/23 22/22/22
f 23/23/23 24/24/24 22/22/22
f 24/24/24 25/25/25 22/22/22
f 24/24/24 26/26/26 25/25/25
f 29/29/29 28/28/28 27/27/27
f 27/27/27 30/30/30 29/29/29
f 30/30/30 31/31/31 29/29/29
f 30/30/30 32/32/32 31/31/31
f 32/32/32 33/33/33 31/31/31
f 32/32/32 34/34/34 33/33/33
f 37/37/37 36/36/36 35/35/35
f 36/36/36 38/38/38 35/35/35
f 36/36/36 39/39/39 38/38/38
f 39/39/39 40/40/40 38/38/38
f 39/39/39 41/41/41 40/40/40
f 41/41/41 42/42/42 40/40/40
f 41/41/41 43/43/43 42/42/42
f 43/43/43 44/44/44 42/42/42
f 43/43/43 45/45/45 44/44/44
f 45/45/45 46/46/46 44/44/44
f 45/45/45 47/47/47 46/46/46
f 47/47/47 48/48/48 46/46/46
f 47/47/47 49/49/49 48/48/48
f 49/49/49 50/50/50 48/48/48
f 49/49/49 51/51/51 50/50/50
f 51/51/51 52/52/52 50/50/50
f 55/55/55 54/54/54 53/53/53
f 53/53/53 56/56/56 55/55/55
f 53/53/53 57/57/57 56/56/56
f 57/57/57 58/58/58 56/56/56
f 57/57/57 59/59/59 58/58/58
f 59/59/59 60/60/60 58/58/58
f 63/63/63 62/62/62 61/61/61
f 61/61/61 64/64/64 63/63/63
f 61/61/61 65/65/65 64/64/64
f 65/65/65 66/66/66 64/64/64
f 66/66/66 67/67/67 64/64/64
f 66/66/66 68/68/68 67/67/67
f 71/71/71 70/70/70 69/69/69
f 70/70/70 72/72/72 69/69/69
f 70/70/70 73/73/73 72/72/72
f 73/73/73 74/74/74 72/72/72
f 73/73/73 75/75/75 74/74/74
f 75/75/75 76/76/76 74/74/74
f 75/75/75 77/77/77 76/76/76
f 77/77/77 78/78/78 76/76/76
f 77/77/77 79/79/79 78/78/78
f 79/79/79 80/80/80 78/78/78
f 79/79/79 81/81/81 80/80/80
f 81/81/81 82/82/82 80/80/80
f 81/81/81 83/83/83 82/82/82
f 83/83/83 84/84/84 82/82/82
f 83/83/83 85/85/85 84/84/84
f 85/85/85 86/86/86 84/84/84
f 89/89/89 88/88/88 87/87/87
f 87/87/87 90/90/90 89/89/89
f 90/90/90 91/91/91 89/89/89
f 90/90/90 92/92/92 91/91/91
f 92/92/92 93/93/93 91/91/91
f 92/92/92 94/94/94 93/93/93
f 97/97/97 96/96/96 95/95/95
f 95/95/95 96/96/96 98/98/98
f 96/96/96 99/99/99 98/98/98
f 100/100/100 97/97/97 95/95/95
f 101/101/101 97/97/97 100/100/100
f 98/98/98 99/99/99 102/102/102
f 99/99/99 103/103/103 102/102/102
f 104/104/104 101/101/101 100/100/100
f 105/105/105 101/101/101 104/104/104
f 102/102/102 103/103/103 106/106/106
f 103/103/103 107/107/107 106/106/106
f 108/108/108 105/105/105 104/104/104
f 109/109/109 105/105/105 108/108/108
f 107/107/107 109/109/109 110/110/110
f 106/106/106 107/107/107 110/110/110
f 110/110/110 109/109/109 108/108/108
f 95/95/95 98/98/98 111/111/111
f 100/100/100 95/95/95 112/112/112
f 112/112/112 95/95/95 111/111/111
f 113/113/113 100/100/100 112/112/112
f 104/104/104 100/100/100 113/113/113
f 113/113/113 112/112/112 111/111/111
f 111/111/111 98/98/98 114/114/114
f 98/98/98 102/102/102 114/114/114
f 113/113/113 111/111/111 114/114/114
f 115/115/115 104/104/104 113/113/113
f 108/108/108 104/104/104 115/115/115
f 115/115/115 113/113/113 114/114/114
f 116/116/116 108/108/108 115/115/115
f 110/110/110 108/108/108 116/116/116
f 116/116/116 115/115/115 114/114/114
f 114/114/114 102/102/102 117/117/117
f 102/102/102 106/106/106 117/117/117
f 116/116/116 114/114/114 117/117/117
f 118/118/118 110/110/110 116/116/116
f 106/106/106 110/110/110 118/118/118
f 117/117/117 118/118/118 116/116/116
f 117/117/117 106/106/106 118/118/118
