g Cone Tree High Waist
v -0.9587153 0.5535149 2.7699937E-07
v -0 1.1070294 2.7699937E-07
v -8.912959E-06 1.3556672 2.8580341
v -1.1740518 0.6778332 2.8580341
v -0.9587153 -0.5535139 2.7699937E-07
v 1.1740339 0.6778333 2.8580337
v 0.9587153 0.553515 2.7699937E-07
v -1.1740518 -0.67783415 2.8580337
v -9.677956E-08 -1.1070285 2.7699937E-07
v 1.1740339 -0.67783445 2.8580337
v 0.9587153 -0.55351406 2.7699937E-07
v -9.031475E-06 -1.3556681 2.8580337
v -1.9133091E-05 0.051865235 7.013555
v 0.04489878 0.025931895 7.013555
v -0.044937074 0.025931776 7.013555
v -0.044937044 -0.025934681 7.013555
v -1.9073486E-05 -0.051868036 7.013555
v 0.044898808 -0.025934756 7.013555
vt 0.042153895 0.36999997
vt 0.25 0.49
vt 0.25000033 0.40391737
vt 0.116703704 0.32695878
vt 0.042153895 0.13000003
vt 0.38329637 0.32695866
vt 0.4578461 0.37
vt 0.11670366 0.17304131
vt 0.24999999 0.010000005
vt 0.3832964 0.17304143
vt 0.4578461 0.13
vt 0.2500003 0.09608263
vt 0.25 0.2551891
vt 0.2544939 0.25259456
vt 0.2455061 0.25259453
vt 0.24550611 0.24740545
vt 0.25000003 0.24481094
vt 0.2544939 0.24740545
vn -0.86276627 0.49811906 -0.08667159
vn -0 0.99623716 -0.08666874
vn -0 0.9947542 0.10229394
vn -0.86148274 0.49737704 0.10229162
vn -0.86276627 -0.49811885 -0.086671904
vn 0.8614822 0.49737704 0.10229593
vn 0.8627671 0.49811834 -0.086666256
vn -0.8614826 -0.49737716 0.10229131
vn -0 -0.99623704 -0.08666941
vn 0.86148214 -0.4973773 0.1022957
vn 0.8627671 -0.49811828 -0.086666614
vn -0 -0.9947543 0.10229335
vn -0 0.69247156 0.72144514
vn 0.5996972 0.34623557 0.7214459
vn -0.5996987 0.34623557 0.7214446
vn -0.5996987 -0.34623602 0.7214444
vn -0 -0.69247144 0.7214454
vn 0.5996973 -0.346236 0.7214456
g Cone Tree High Waist_0
f 3/3/3 2/2/2 1/1/1
f 4/4/4 3/3/3 1/1/1
f 4/4/4 1/1/1 5/5/5
f 3/3/3 6/6/6 2/2/2
f 6/6/6 7/7/7 2/2/2
f 8/8/8 4/4/4 5/5/5
f 8/8/8 5/5/5 9/9/9
f 6/6/6 10/10/10 7/7/7
f 10/10/10 11/11/11 7/7/7
f 12/12/12 9/9/9 11/11/11
f 12/12/12 8/8/8 9/9/9
f 10/10/10 12/12/12 11/11/11
f 3/3/3 4/4/4 13/13/13
f 6/6/6 3/3/3 14/14/14
f 3/3/3 13/13/13 14/14/14
f 4/4/4 8/8/8 15/15/15
f 4/4/4 15/15/15 13/13/13
f 8/8/8 16/16/16 15/15/15
f 8/8/8 12/12/12 16/16/16
f 13/13/13 15/15/15 16/16/16
f 12/12/12 17/17/17 16/16/16
f 13/13/13 16/16/16 17/17/17
f 12/12/12 10/10/10 17/17/17
f 14/14/14 13/13/13 17/17/17
f 6/6/6 14/14/14 18/18/18
f 10/10/10 6/6/6 18/18/18
f 10/10/10 18/18/18 17/17/17
f 17/17/17 18/18/18 14/14/14
