g Cone Tree Bent
v -0.5054134 -1.2915833 2.9721172
v -1.7058109 -0.048911966 6.345914
v -1.6210915 -0.097824745 6.345914
v -1.2691714 -0.85062724 2.9721172
v -1.1858651E-07 -1.3564713 2.764592E-07
v 1.1747389 -0.67823565 2.764592E-07
v -1.1747389 -0.6782354 2.764592E-07
v 0.2583447 -0.8506274 2.9721172
v -1.6210915 -0.097824745 6.345914
v 1.1747389 0.67823595 2.764592E-07
v -1.5363721 -0.048911985 6.345914
v 0.2583447 0.031284317 2.9721172
v -0 1.3564717 2.764592E-07
v -1.2691715 0.031284228 2.972117
v -1.1747389 0.67823577 2.764592E-07
v -0.50541335 0.4722401 2.9721172
v -1.5363721 0.048913587 6.345914
v -1.6210915 0.09782637 6.345914
v -1.6210915 -0.097824745 6.345914
v -1.7058109 0.048913572 6.345914
v -1.7058109 -0.048911966 6.345914
vt 0.25 0.07811874
vt 0.17789653 0.20837104
vt 0.25 0.1667421
vt 0.10114646 0.16405939
vt 0.24999999 0.010000005
vt 0.4578461 0.13
vt 0.042153895 0.13000003
vt 0.3988535 0.16405936
vt 0.24999999 0.16674209
vt 0.4578461 0.37
vt 0.32210344 0.20837104
vt 0.39885354 0.33594063
vt 0.25 0.49
vt 0.10114646 0.33594066
vt 0.042153895 0.36999997
vt 0.24999999 0.42188126
vt 0.32210344 0.29162896
vt 0.25 0.3332579
vt 0.25 0.1667421
vt 0.17789654 0.29162896
vt 0.17789654 0.20837106
vn 0.008355122 -0.9840329 0.17779018
vn -0.72168094 -0.33948192 0.603265
vn -0.07801596 -0.6887873 0.7207535
vn -0.8413829 -0.54026884 -0.013577451
vn 0.052893043 -0.9981255 0.030785898
vn 0.8663059 -0.4371143 0.24175455
vn -0.8702001 -0.489501 -0.056041263
vn 0.79468715 -0.49686185 0.34871286
vn -0.07801596 -0.6887873 0.7207535
vn 0.80643004 0.47510153 0.35206407
vn 0.51642156 -0.31327993 0.7969721
vn 0.8144687 0.43336672 0.38579002
vn 0.0433812 0.95553833 0.29165828
vn -0.8769982 0.47992405 -0.02338634
vn -0.8300341 0.54985064 0.09331548
vn 0.013717587 0.97675633 0.21391355
vn 0.5326367 0.3789068 0.75678784
vn -0.08125067 0.76648796 0.6370986
vn -0.07801596 -0.6887873 0.7207535
vn -0.7210457 0.399129 0.5663826
vn -0.72168094 -0.33948192 0.603265
g Cone Tree Bent_0
f 3/3/3 2/2/2 1/1/1
f 2/2/2 4/4/4 1/1/1
f 1/1/1 4/4/4 5/5/5
f 1/1/1 5/5/5 6/6/6
f 4/4/4 7/7/7 5/5/5
f 8/8/8 1/1/1 6/6/6
f 9/9/9 1/1/1 8/8/8
f 8/8/8 6/6/6 10/10/10
f 11/11/11 9/9/9 8/8/8
f 12/12/12 8/8/8 10/10/10
f 11/11/11 8/8/8 12/12/12
f 12/12/12 10/10/10 13/13/13
f 4/4/4 14/14/14 7/7/7
f 14/14/14 15/15/15 7/7/7
f 16/16/16 13/13/13 15/15/15
f 16/16/16 12/12/12 13/13/13
f 14/14/14 16/16/16 15/15/15
f 17/17/17 11/11/11 12/12/12
f 17/17/17 12/12/12 16/16/16
f 11/11/11 17/17/17 18/18/18
f 18/18/18 17/17/17 16/16/16
f 18/18/18 16/16/16 14/14/14
f 18/18/18 19/19/19 11/11/11
f 20/20/20 14/14/14 4/4/4
f 20/20/20 18/18/18 14/14/14
f 18/18/18 20/20/20 19/19/19
f 21/21/21 20/20/20 4/4/4
f 20/20/20 21/21/21 19/19/19
