g Corrupted King Projectile
v -0.35636896 -0.29968247 0.79028267
v -3.3335673E-06 -3.3335673E-06 0.78153133
v 0.15363923 -0.5057271 0.8045184
v 0.15363923 -0.5057271 0.8045184
v -0.21218151 -0.65300685 0.5032386
v -0.5655251 -0.41087413 0.34951606
v -0.60519755 -0.81828904 -0.055882115
v 0.21600257 -0.6648124 0.34951633
v -3.3335673E-06 -0.7815346 8.0610825E-09
v -0.60519755 -0.81828904 -0.055882115
v -0.21600923 -0.6648124 -0.34951633
v 0.58384234 -0.81828904 -0.055882115
v 0.5378382 -0.3907666 0.4108793
v 0.15363923 -0.5057271 0.8045184
v 0.20543689 -0.6322713 -0.41088045
v 0.58384234 -0.81828904 -0.055882115
v -0.1202296 -0.37002987 -0.75717115
v 0.33239967 -0.24150543 -0.66481286
v -3.3335673E-06 -3.3335673E-06 -0.7815313
v 0.56551844 -0.41087413 -0.34951606
v 0.58384234 -0.81828904 -0.055882115
v 0.15363923 0.50572044 0.8045184
v -3.3335673E-06 -3.3335673E-06 0.78153133
v -0.33240634 0.24149875 0.6648129
v -0.20544356 0.6322646 0.41088042
v -0.5655251 0.41086745 0.34951606
v -0.4593762 0.63226855 8.0610825E-09
v -0.01067761 1.0114537 -0.055882115
v -0.9726319 0.31254968 -0.055882115
v -0.6648113 -3.3335673E-06 0.41087908
v -0.59395665 0.43152627 -0.4537451
v -0.33240634 0.24149875 0.6648129
v -0.21600923 0.6648057 -0.34951633
v -0.01067761 1.0114537 -0.055882115
v -0.12696745 0.3907586 -0.6648131
v -0.41087762 -3.3335673E-06 -0.66481096
v -3.3335673E-06 -3.3335673E-06 -0.7815313
v -0.69902545 -3.3335673E-06 -0.34951302
v -0.9726319 0.31254968 -0.055882115
v -0.7432848 -0.24150638 8.0610825E-09
v -0.5378449 -0.3907666 -0.41087934
v -0.60519755 -0.81828904 -0.055882115
v -0.41087762 -3.3335673E-06 -0.66481096
v -0.1202296 -0.37002987 -0.75717115
v -3.3335673E-06 -3.3335673E-06 -0.7815313
v -0.21600923 -0.6648124 -0.34951633
v -0.60519755 -0.81828904 -0.055882115
v 0.5378382 0.39075992 0.4108793
v 0.15363923 0.50572044 0.8045184
v 0.21600257 0.6648057 0.34951633
v 0.45936954 0.63226855 8.0610825E-09
v 0.95127666 0.31254968 -0.055882115
v -0.01067761 1.0114537 -0.055882115
v -0.20544356 0.6322646 0.41088042
v 0.15363923 0.50572044 0.8045184
v 0.41087097 -3.3335673E-06 0.66481096
v -3.3335673E-06 -3.3335673E-06 0.78153133
v 0.15363923 0.50572044 0.8045184
v 0.5378382 0.39075992 0.4108793
v 0.6990188 -3.3335673E-06 0.34951302
v 0.95127666 0.31254968 -0.055882115
v 0.7432782 -0.24150638 8.0610825E-09
v 0.5378382 -0.3907666 0.4108793
v 0.58384234 -0.81828904 -0.055882115
v 0.41087097 -3.3335673E-06 0.66481096
v 0.15363923 -0.5057271 0.8045184
v -3.3335673E-06 -3.3335673E-06 0.78153133
v -3.3335673E-06 -3.3335673E-06 0.78153133
v -0.35636896 -0.29968247 0.79028267
v -0.5655251 -0.41087413 0.34951606
v -0.7432848 -0.24150638 8.0610825E-09
v -0.9726319 0.31254968 -0.055882115
v -0.60519755 -0.81828904 -0.055882115
v 0.20543689 0.6322646 -0.41088045
v -0.01067761 1.0114537 -0.055882115
v -0.21600923 0.6648057 -0.34951633
v -0.12696745 0.3907586 -0.6648131
v 0.41247275 0.2589072 -0.7474168
v -3.3335673E-06 -3.3335673E-06 -0.7815313
v 0.56551844 0.41086745 -0.34951606
v 0.45936954 0.63226855 8.0610825E-09
v 0.95127666 0.31254968 -0.055882115
v -0.01067761 1.0114537 -0.055882115
v 0.66480464 -3.3335673E-06 -0.4108791
v 0.95127666 0.31254968 -0.055882115
v 0.56551844 0.41086745 -0.34951606
v 0.41247275 0.2589072 -0.7474168
v 0.33239967 -0.24150543 -0.66481286
v -3.3335673E-06 -3.3335673E-06 -0.7815313
v 0.56551844 -0.41087413 -0.34951606
v 0.7432782 -0.24150638 8.0610825E-09
v 0.58384234 -0.81828904 -0.055882115
v 0.95127666 0.31254968 -0.055882115
vt 0.045455 0.3936515
vt 0.09091 0.472382
vt 0.1363645 0.3936515
vt 0.1363645 0.3936515
vt 0.0909095 0.314921
vt 0 0.314921
vt 0.045455 0.236191
vt 0.181819 0.314921
vt 0.1363645 0.236191
vt 0.045455 0.236191
vt 0.09091 0.157461
vt 0.2272735 0.236191
vt 0.272728 0.314921
vt 0.2272735 0.3936515
vt 0.18181899 0.157461
vt 0.2272735 0.236191
vt 0.1363645 0.0787305
vt 0.2272735 0.0787305
vt 0.181819 0
vt 0.272728 0.157461
vt 0.2272735 0.236191
vt 0.5909095 0.3936515
vt 0.636364 0.472382
vt 0.6818185 0.3936515
vt 0.636364 0.314921
vt 0.727273 0.314921
vt 0.6818185 0.236191
vt 0.5909095 0.236191
vt 0.7727275 0.236191
vt 0.818182 0.314921
vt 0.727273 0.157461
vt 0.7727275 0.3936515
vt 0.636364 0.157461
vt 0.5909095 0.236191
vt 0.6818185 0.0787305
vt 0.7727275 0.0787305
vt 0.727273 0
vt 0.818182 0.157461
vt 0.7727275 0.236191
vt 0.8636365 0.236191
vt 0.909091 0.157461
vt 0.9545455 0.236191
vt 0.8636365 0.0787305
vt 0.9545455 0.0787305
vt 0.909091 0
vt 1 0.157461
vt 0.9545455 0.236191
vt 0.45454597 0.314921
vt 0.5000005 0.3936515
vt 0.545455 0.314921
vt 0.5000005 0.236191
vt 0.4090915 0.236191
vt 0.5909095 0.236191
vt 0.636364 0.314921
vt 0.5909095 0.3936515
vt 0.4090915 0.3936515
vt 0.454546 0.472382
vt 0.5000005 0.3936515
vt 0.45454597 0.314921
vt 0.363637 0.314921
vt 0.4090915 0.236191
vt 0.3181825 0.236191
vt 0.272728 0.314921
vt 0.2272735 0.236191
vt 0.3181825 0.3936515
vt 0.2272735 0.3936515
vt 0.272728 0.472382
vt 0.818182 0.472382
vt 0.8636365 0.3936515
vt 0.909091 0.314921
vt 0.8636365 0.236191
vt 0.7727275 0.236191
vt 0.9545455 0.236191
vt 0.545455 0.157461
vt 0.5909095 0.236191
vt 0.636364 0.157461
vt 0.5909095 0.0787305
vt 0.5000005 0.0787305
vt 0.545455 0
vt 0.454546 0.157461
vt 0.5000005 0.236191
vt 0.4090915 0.236191
vt 0.5909095 0.236191
vt 0.363637 0.157461
vt 0.4090915 0.236191
vt 0.454546 0.157461
vt 0.4090915 0.0787305
vt 0.3181825 0.0787305
vt 0.363637 0
vt 0.272728 0.157461
vt 0.3181825 0.236191
vt 0.2272735 0.236191
vt 0.4090915 0.236191
vn -0.48911098 -0.22801761 0.84188974
vn 0.013928635 0.06792211 0.99759334
vn 0.35431314 -0.01232356 0.93504566
vn 0.11650626 -0.85875285 0.4989686
vn -0.25465998 -0.8380791 0.48246413
vn -0.7980041 -0.3958312 0.45443043
vn -0.7876714 -0.39432725 0.4733707
vn 0.24676532 -0.88055885 0.40462688
vn 0.015059359 -0.99971575 -0.018480536
vn 0.06361257 -0.99743265 -0.03288859
vn -0.14320916 -0.8238678 -0.5483913
vn 0.2046673 -0.8394093 0.5034912
vn 0.504837 -0.70455045 0.49874663
vn 0.11650626 -0.85875285 0.4989686
vn 0.18869282 -0.7750253 -0.6031011
vn -0.09438608 -0.9196312 -0.38127375
vn -0.1443064 -0.44413757 -0.88426095
vn 0.45393065 -0.3574022 -0.8162173
vn -0.04081199 0.034778427 -0.99856144
vn 0.72418934 -0.38428113 -0.57260615
vn 0.4403974 -0.511818 -0.7376263
vn 0.059292752 0.22846232 0.97174555
vn 0.013928635 0.06792211 0.99759334
vn -0.49901947 0.32921955 0.80161965
vn -0.53011245 0.67798567 0.509231
vn -0.6184829 0.55730814 0.5539734
vn -0.5675595 0.8216617 0.052423492
vn -0.5767667 0.7350346 0.35646075
vn -0.6405661 0.7291675 0.2408103
vn -0.8277856 -0.021684391 0.5606254
vn -0.5788765 0.51831925 -0.6294816
vn -0.49901947 0.32921955 0.80161965
vn -0.307058 0.7662992 -0.5643589
vn -0.6257549 0.68566436 -0.37188074
vn -0.16691433 0.50063425 -0.8494145
vn -0.5286225 -0.0017194173 -0.8488553
vn -0.04081199 0.034778427 -0.99856144
vn -0.8089803 -0.18326083 -0.55853933
vn -0.80844647 -0.18181299 -0.55978423
vn -0.88372123 -0.2913141 -0.3662962
vn -0.6926314 -0.39156947 -0.60575175
vn -0.9044516 -0.17902064 -0.38719347
vn -0.5286225 -0.0017194173 -0.8488553
vn -0.1443064 -0.44413757 -0.88426095
vn -0.04081199 0.034778427 -0.99856144
vn -0.14320916 -0.8238678 -0.5483913
vn -0.3410008 -0.568165 -0.7489372
vn 0.5607464 0.7550429 0.3398144
vn 0.28454623 0.8921259 0.3509201
vn 0.35868585 0.8355983 0.41607702
vn 0.55963874 0.75769556 0.3357111
vn 0.53834176 0.76740193 0.34825617
vn 0.3211777 0.80095303 0.505291
vn 0.0053455895 0.8677915 0.49689978
vn 0.28454623 0.8921259 0.3509201
vn 0.60194147 0 0.7985403
vn 0.013928635 0.06792211 0.99759334
vn 0.059292752 0.22846232 0.97174555
vn 0.7346591 0.19816872 0.648849
vn 0.83362687 -0.0806261 0.5464117
vn 0.865994 -0.054155283 0.49711347
vn 0.89411813 -0.2987063 0.33365777
vn 0.8232502 -0.24799107 0.51064634
vn 0.89533055 -0.28097335 0.34559673
vn 0.60194147 0 0.7985403
vn 0.35431314 -0.01232356 0.93504566
vn 0.013928635 0.06792211 0.99759334
vn 0.013928635 0.06792211 0.99759334
vn -0.48911098 -0.22801761 0.84188974
vn -0.7980041 -0.3958312 0.45443043
vn -0.8950265 -0.28345206 0.34435818
vn -0.87473506 -0.32591826 0.35863045
vn -0.7876714 -0.39432725 0.4733707
vn 0.29117706 0.7566493 -0.5854038
vn -0.057124034 0.6647778 -0.74485385
vn -0.307058 0.7662992 -0.5643589
vn -0.16691433 0.50063425 -0.8494145
vn 0.46224338 0.29023954 -0.8379093
vn -0.04081199 0.034778427 -0.99856144
vn 0.62964815 0.6014554 -0.49172604
vn 0.5441988 0.75898814 -0.3574697
vn 0.47894162 0.80003583 -0.36132732
vn 0.60845524 0.6988365 -0.3760448
vn 0.81706583 -0.110249385 -0.56590503
vn 0.6259258 0.26101118 -0.73490816
vn 0.62964815 0.6014554 -0.49172604
vn 0.46224338 0.29023954 -0.8379093
vn 0.45393065 -0.3574022 -0.8162173
vn -0.04081199 0.034778427 -0.99856144
vn 0.72418934 -0.38428113 -0.57260615
vn 0.89052033 -0.28412098 -0.35531506
vn 0.9085923 -0.21655148 -0.35716322
vn 0.85513824 -0.35876918 -0.37419677
g Corrupted King Projectile_0
f 3/3/3 2/2/2 1/1/1
f 5/5/5 4/4/4 1/1/1
f 5/5/5 1/1/1 6/6/6
f 5/5/5 6/6/6 7/7/7
f 8/8/8 4/4/4 5/5/5
f 8/8/8 5/5/5 9/9/9
f 9/9/9 5/5/5 10/10/10
f 9/9/9 10/10/10 11/11/11
f 12/12/12 8/8/8 9/9/9
f 13/13/13 8/8/8 12/12/12
f 13/13/13 14/14/14 8/8/8
f 15/15/15 9/9/9 11/11/11
f 15/15/15 16/16/16 9/9/9
f 15/15/15 11/11/11 17/17/17
f 18/18/18 15/15/15 17/17/17
f 18/18/18 17/17/17 19/19/19
f 20/20/20 15/15/15 18/18/18
f 20/20/20 21/21/21 15/15/15
f 24/24/24 23/23/23 22/22/22
f 25/25/25 24/24/24 22/22/22
f 26/26/26 24/24/24 25/25/25
f 26/26/26 25/25/25 27/27/27
f 27/27/27 25/25/25 28/28/28
f 29/29/29 26/26/26 27/27/27
f 30/30/30 26/26/26 29/29/29
f 31/31/31 29/29/29 27/27/27
f 30/30/30 32/32/32 26/26/26
f 31/31/31 27/27/27 33/33/33
f 27/27/27 34/34/34 33/33/33
f 31/31/31 33/33/33 35/35/35
f 36/36/36 31/31/31 35/35/35
f 36/36/36 35/35/35 37/37/37
f 38/38/38 31/31/31 36/36/36
f 38/38/38 39/39/39 31/31/31
f 40/40/40 39/39/39 38/38/38
f 41/41/41 40/40/40 38/38/38
f 41/41/41 42/42/42 40/40/40
f 41/41/41 38/38/38 43/43/43
f 44/44/44 41/41/41 43/43/43
f 44/44/44 43/43/43 45/45/45
f 46/46/46 41/41/41 44/44/44
f 46/46/46 47/47/47 41/41/41
f 50/50/50 49/49/49 48/48/48
f 50/50/50 48/48/48 51/51/51
f 51/51/51 48/48/48 52/52/52
f 53/53/53 50/50/50 51/51/51
f 54/54/54 50/50/50 53/53/53
f 54/54/54 55/55/55 50/50/50
f 58/58/58 57/57/57 56/56/56
f 59/59/59 58/58/58 56/56/56
f 59/59/59 56/56/56 60/60/60
f 59/59/59 60/60/60 61/61/61
f 61/61/61 60/60/60 62/62/62
f 60/60/60 63/63/63 62/62/62
f 62/62/62 63/63/63 64/64/64
f 60/60/60 65/65/65 63/63/63
f 63/63/63 65/65/65 66/66/66
f 65/65/65 67/67/67 66/66/66
f 69/69/69 68/68/68 32/32/32
f 30/30/30 69/69/69 32/32/32
f 70/70/70 69/69/69 30/30/30
f 70/70/70 30/30/30 71/71/71
f 71/71/71 30/30/30 72/72/72
f 73/73/73 70/70/70 71/71/71
f 76/76/76 75/75/75 74/74/74
f 76/76/76 74/74/74 77/77/77
f 77/77/77 74/74/74 78/78/78
f 77/77/77 78/78/78 79/79/79
f 74/74/74 80/80/80 78/78/78
f 74/74/74 81/81/81 80/80/80
f 81/81/81 82/82/82 80/80/80
f 74/74/74 83/83/83 81/81/81
f 86/86/86 85/85/85 84/84/84
f 87/87/87 86/86/86 84/84/84
f 88/88/88 87/87/87 84/84/84
f 89/89/89 87/87/87 88/88/88
f 88/88/88 84/84/84 90/90/90
f 84/84/84 91/91/91 90/90/90
f 91/91/91 92/92/92 90/90/90
f 84/84/84 93/93/93 91/91/91
