g Corrupt King Monster Mount.013
v -4.411552 18.321972 12.497009
v -4.391696 18.08923 12.0952215
v -4.336865 18.13781 12.080288
v -4.257804 17.942862 11.4489155
v -4.3559303 17.852695 11.471184
v -4.396073 18.023878 12.131269
v -4.411552 18.321972 12.497009
v -4.124592 17.946516 11.471184
v -4.2636857 18.141148 12.0952215
v -4.411552 18.321972 12.497009
v -4.14679 17.669125 10.692482
v -3.9669962 17.675705 10.726086
v -4.361518 17.728863 11.524934
v -4.280379 17.548613 10.726086
v -4.3474126 17.980038 12.167316
v -4.411552 18.321972 12.497009
v -4.0343285 17.861555 11.524934
v -3.846312 17.564539 10.807183
v -4.2150245 18.097301 12.131269
v -4.411552 18.321972 12.497009
v -3.7732606 17.289742 9.961235
v -3.9874234 17.27616 9.911203
v -3.6335099 17.169573 10.081997
v -4.2895403 17.38479 10.807183
v -4.271255 17.643904 11.578681
v -4.2742343 17.983376 12.182253
v -4.411552 18.321972 12.497009
v -4.138044 17.647558 11.60095
v -4.1688585 17.273624 10.888282
v -3.989065 17.280205 10.921885
v -4.1505494 17.136732 9.961235
v -4.02737 16.832998 10.202756
v -3.8132071 16.846577 10.252793
v -4.167121 16.953169 10.081997
v -3.839681 16.300335 9.59688
v -3.602407 16.326788 9.666788
v -3.9865716 16.409163 9.4281645
v -3.9569764 16.58956 9.259446
v -3.7683015 16.73585 9.189537
v -3.6024623 15.663641 9.114354
v -3.3518393 15.708943 9.203472
v -3.7455306 15.741591 8.899267
v -3.6971712 15.897171 8.68418
v -3.3146124 14.916756 8.773415
v -3.0577214 14.983709 8.876874
v -3.4469695 14.952924 8.523708
v -2.9788413 14.063298 8.574308
v -2.7195652 14.149886 8.686029
v -3.5310268 16.762302 9.259446
v -3.4857888 16.039232 8.595062
v -3.3771925 15.071064 8.273999
v -3.0991898 14.059285 8.304676
v -2.6045663 13.123783 8.499024
v -2.3442621 13.224468 8.614562
v -3.3841374 16.653477 9.428162
v -3.1462324 15.201959 8.170539
v -3.0100417 14.140231 8.035041
v -2.7158194 13.090451 8.220177
v -2.2082524 12.136456 8.505863
v -1.9465611 12.243819 8.6230545
v -2.7636936 14.258697 7.923321
v -2.6127748 13.144024 7.941331
v -2.3158197 12.089847 8.223018
v -1.8113198 11.152148 8.525659
v -1.5461247 11.256426 8.643681
v -2.3558717 13.253095 7.8257937
v -2.2061734 12.131328 7.940173
v -1.9234776 11.114559 8.240805
v -1.4366171 10.225575 8.455832
v -1.1625247 10.31055 8.571793
v -1.9436209 12.236571 7.8229814
v -1.8168197 11.1657095 7.9559546
v -1.5684128 10.235318 8.175956
v -1.1111155 9.421975 8.134791
v -0.81906515 9.463653 8.229717
v -1.5539029 11.275607 7.8379297
v -1.4806321 10.3341055 7.896083
v -1.2855732 9.5365095 7.9056873
v -0.90339977 8.909568 7.374423
v -0.59579676 8.913117 7.4127073
v -0.8866058 8.86814 6.089261
v -0.5771057 8.867029 6.0716453
v -1.1030087 9.086004 6.1317797
v -1.1152353 9.116176 7.2820177
v -1.0994852 9.393057 6.1742983
v -1.1071482 9.41197 7.1896167
v -0.87818784 9.609435 6.1919155
v -1.240171 9.740201 7.676581
v -0.8839651 9.62368 7.1513305
v -0.56868714 9.608323 6.1742983
v -1.0015926 9.913725 7.5816574
v -0.5763611 9.62723 7.1896167
v -0.35228437 9.39046 6.1317797
v -1.2247775 10.464053 7.780119
v -0.7095414 9.955398 7.676581
v -0.3645255 9.420625 7.2820177
v -0.35580772 9.083407 6.089261
v -0.9506839 10.549027 7.896083
v -0.5350856 9.840869 7.9056873
v -0.37261266 9.124827 7.374423
v -0.5771057 8.867029 6.0716453
v -0.59579676 8.913117 7.4127073
v -0.58048505 9.637173 8.134791
v -0.81906515 9.463653 8.229717
v -1.2887063 11.379886 7.9559546
v -0.8188881 10.539285 8.175956
v -0.9066687 10.4404955 8.455832
v -1.1625247 10.31055 8.571793
v -1.6819282 12.343936 7.940173
v -1.1765487 11.417474 8.240805
v -1.2832062 11.366323 8.525656
v -1.5461247 11.256426 8.643681
v -2.095566 13.353778 7.941331
v -1.5743628 12.390546 8.223018
v -1.6840074 12.349064 8.505863
v -1.9465611 12.243819 8.6230545
v -2.5044174 14.345288 8.035041
v -1.984314 13.387113 8.220177
v -2.0873575 13.333537 8.499024
v -2.3442621 13.224468 8.614562
v -2.889341 15.268913 8.273999
v -2.3840692 14.349302 8.304676
v -2.4732168 14.268353 8.574308
v -2.7195652 14.149886 8.686029
v -3.2351654 16.084538 8.68418
v -2.7569842 15.232747 8.523708
v -2.8267605 15.114603 8.773415
v -3.0577214 14.983709 8.876874
v -3.0920992 16.00659 8.899267
v -3.1404567 15.8510065 9.114354
v -3.3518393 15.708943 9.203472
v -3.4137316 16.47308 9.59688
v -3.602407 16.326788 9.666788
v -3.6500816 16.986008 10.202756
v -3.8132071 16.846577 10.252793
v -3.8554754 17.400717 10.888282
v -3.989065 17.280205 10.921885
v -4.039916 17.737722 11.578681
v -4.138044 17.647558 11.60095
v -4.2194033 18.031954 12.167316
v -4.411552 18.321972 12.497009
v -4.2742343 17.983376 12.182253
v -4.411552 18.321972 12.497009
vt 0 0.625
vt 0.06666667 0.625
vt 0.06666667 0.5
vt 0.13333334 0.5
vt 0.13333334 0.625
vt 0.06666667 0.75
vt 0 0.75
vt 0.13333334 0.375
vt 0.06666667 0.375
vt 0 0.5
vt 0.2 0.5
vt 0.2 0.375
vt 0.13333334 0.75
vt 0.2 0.625
vt 0.06666667 0.875
vt 0 0.875
vt 0.13333334 0.25
vt 0.2 0.25
vt 0.06666667 0.25
vt 0 0.375
vt 0.26666668 0.375
vt 0.26666668 0.5
vt 0.26666668 0.25
vt 0.2 0.75
vt 0.13333334 0.875
vt 0.06666667 1
vt 0 1
vt 0.13333334 1
vt 0.2 0.875
vt 0.2 1
vt 0.26666668 0.625
vt 0.26666668 0.875
vt 0.26666668 1
vt 0.26666668 0.75
vt 0.33333334 0.875
vt 0.33333334 1
vt 0.33333334 0.75
vt 0.33333334 0.625
vt 0.33333334 0.5
vt 0.4 0.875
vt 0.4 1
vt 0.4 0.75
vt 0.4 0.625
vt 0.46666667 0.875
vt 0.46666667 1
vt 0.46666667 0.75
vt 0.53333336 0.875
vt 0.53333336 1
vt 0.33333334 0.375
vt 0.4 0.5
vt 0.46666667 0.625
vt 0.53333336 0.75
vt 0.6 0.875
vt 0.6 1
vt 0.33333334 0.25
vt 0.46666667 0.5
vt 0.53333336 0.625
vt 0.6 0.75
vt 0.6666667 0.875
vt 0.6666667 1
vt 0.53333336 0.5
vt 0.6 0.625
vt 0.6666667 0.75
vt 0.73333335 0.875
vt 0.73333335 1
vt 0.6 0.5
vt 0.6666667 0.625
vt 0.73333335 0.75
vt 0.8 0.875
vt 0.8 1
vt 0.6666667 0.5
vt 0.73333335 0.625
vt 0.8 0.75
vt 0.8666667 0.875
vt 0.8666667 1
vt 0.73333335 0.5
vt 0.8 0.625
vt 0.8666667 0.75
vt 0.93333334 0.875
vt 0.93333334 1
vt 1 0.875
vt 1 1
vt 1 0.75
vt 0.93333334 0.75
vt 1 0.625
vt 0.93333334 0.625
vt 1 0.5
vt 0.8666667 0.625
vt 0.93333334 0.5
vt 1 0.375
vt 0.8666667 0.5
vt 0.93333334 0.375
vt 1 0.25
vt 0.8 0.5
vt 0.8666667 0.375
vt 0.93333334 0.25
vt 1 0.125
vt 0.8 0.375
vt 0.8666667 0.25
vt 0.93333334 0.125
vt 1 0
vt 0.93333334 0
vt 0.8666667 0.125
vt 0.8666667 0
vt 0.73333335 0.375
vt 0.8 0.25
vt 0.8 0.125
vt 0.8 0
vt 0.6666667 0.375
vt 0.73333335 0.25
vt 0.73333335 0.125
vt 0.73333335 0
vt 0.6 0.375
vt 0.6666667 0.25
vt 0.6666667 0.125
vt 0.6666667 0
vt 0.53333336 0.375
vt 0.6 0.25
vt 0.6 0.125
vt 0.6 0
vt 0.46666667 0.375
vt 0.53333336 0.25
vt 0.53333336 0.125
vt 0.53333336 0
vt 0.4 0.375
vt 0.46666667 0.25
vt 0.46666667 0.125
vt 0.46666667 0
vt 0.4 0.25
vt 0.4 0.125
vt 0.4 0
vt 0.33333334 0.125
vt 0.33333334 0
vt 0.26666668 0.125
vt 0.26666668 0
vt 0.2 0.125
vt 0.2 0
vt 0.13333334 0.125
vt 0.13333334 0
vt 0.06666667 0.125
vt 0 0.25
vt 0.06666667 0
vt 0 0.125
vn -0.8997095 0.35694262 -0.2512267
vn -0.911345 0.35109976 -0.21489352
vn -0.3488723 0.86020756 -0.37192893
vn -0.35333794 0.87123746 -0.34073097
vn -0.9052529 0.3657141 -0.21626501
vn -0.9365512 -0.31591064 0.15189579
vn -0.9482335 -0.26463625 0.17555915
vn 0.39479893 0.8929521 -0.21626446
vn 0.40934896 0.88670987 -0.21489282
vn -0.33923674 0.8364416 -0.43044633
vn -0.34074527 0.84020066 -0.42184773
vn 0.40091333 0.870948 -0.28410906
vn -0.9393226 -0.33206305 0.08606498
vn -0.89431334 0.34566864 -0.28410712
vn -0.4370018 -0.7448921 0.50414795
vn -0.46875447 -0.65710974 0.5903185
vn 0.9052784 0.41600907 0.08606723
vn 0.9079162 0.4158219 0.052728537
vn 0.89204 0.42566586 0.15189862
vn 0.39693066 0.882797 -0.25122786
vn 0.41787124 0.8219239 -0.38707203
vn -0.312485 0.77052104 -0.5555631
vn 0.9080531 0.41794217 0.027640434
vn -0.9410849 -0.3340347 0.052726183
vn -0.43110603 -0.81359804 0.3901357
vn 0.28669873 -0.7069288 0.64657205
vn 0.24529018 -0.60482067 0.75764424
vn 0.3218412 -0.7935904 0.5163647
vn -0.44193175 -0.80507934 0.39565584
vn 0.3164348 -0.7802664 0.53949356
vn -0.8723333 0.2986826 -0.38707024
vn -0.46518666 -0.7597744 0.4542513
vn 0.29043195 -0.7161474 0.63465124
vn -0.94265914 -0.33261064 0.027639888
vn -0.50072956 -0.6802672 0.53526294
vn 0.24403766 -0.60174716 0.76049066
vn -0.94237274 -0.33451015 0.0060604075
vn -0.8362561 0.21469979 -0.50455886
vn -0.264211 0.65148824 -0.711165
vn -0.5451259 -0.57296026 0.61200845
vn 0.18051043 -0.4451003 0.87709844
vn -0.9395358 -0.34231216 -0.009734064
vn -0.78775454 0.09572236 -0.6085064
vn -0.5902772 -0.457203 0.6652355
vn 0.11181295 -0.2757079 0.9547162
vn -0.9353229 -0.3534114 -0.01647819
vn -0.62775815 -0.35648066 0.69198364
vn 0.052535668 -0.12954304 0.9901811
vn 0.45048252 0.73653597 -0.5045594
vn -0.19763407 0.4873223 -0.85056317
vn -0.7360104 -0.036167182 -0.6760036
vn -0.9316362 -0.36307064 -0.015287588
vn -0.6522126 -0.28646553 0.7018235
vn 0.0119307535 -0.029418327 0.999496
vn 0.9091692 0.41638276 0.0060598273
vn -0.124773204 0.3076624 -0.943279
vn -0.69232446 -0.15160592 -0.7054803
vn -0.92931813 -0.36915177 -0.0097431345
vn -0.65997773 -0.2559809 0.7063309
vn -0.005146167 0.012688344 0.9999063
vn -0.06126231 0.15105627 -0.98662496
vn -0.6636069 -0.23175517 -0.71127737
vn -0.9281411 -0.3722247 -0.0017042974
vn -0.64346784 -0.27952936 0.7126095
vn 0.009480799 -0.023377236 0.9996817
vn -0.017280158 0.042606838 -0.99894243
vn -0.6532203 -0.26821357 -0.708071
vn -0.9272336 -0.3743379 0.010443873
vn -0.5809428 -0.40027773 0.70871943
vn 0.07945695 -0.1959229 0.9773949
vn 0.0022271527 -0.0054922746 -0.9999825
vn -0.6667326 -0.24965242 -0.7022401
vn -0.92338294 -0.38248223 0.032731228
vn -0.45833156 -0.6669309 0.58748204
vn 0.22716479 -0.56014043 0.79664224
vn -0.009804378 0.024173142 -0.99965966
vn -0.72027004 -0.14383435 -0.67861825
vn -0.90770644 -0.4157098 0.057046913
vn -0.3631508 -0.9000389 0.240939
vn 0.35525793 -0.87599015 0.32624078
vn -0.3494446 -0.9366055 0.025662942
vn 0.37557775 -0.92609394 0.035936255
vn -0.90912056 -0.41652352 0.0028022127
vn -0.89860964 -0.43807775 0.024263086
vn -0.9275363 0.37346986 -0.014021384
vn -0.9293896 0.30198002 -0.21223345
vn -0.375759 0.92654043 -0.018114116
vn -0.8419447 0.08458835 -0.532892
vn -0.3563454 0.878671 -0.3177346
vn 0.4053873 0.91403747 -0.014020413
vn -0.22259133 0.5488617 -0.80573195
vn 0.45651352 0.86403286 -0.21223281
vn 0.942437 0.33437204 0.0028008916
vn -0.07333088 0.18081655 -0.9807793
vn 0.5451917 0.6471412 -0.53289235
vn 0.9499081 0.3115861 0.024263434
vn 0.903115 -0.42863134 0.025661748
vn 0.61699325 0.398492 -0.6786188
vn 0.9408547 0.33397296 0.05704765
vn 0.8874794 -0.39284727 0.24093859
vn 0.37557775 -0.92609394 0.035936255
vn 0.35525793 -0.87599015 0.32624078
vn 0.7934048 -0.15929079 0.58748215
vn 0.22716479 -0.56014043 0.79664224
vn 0.6522851 0.28527576 -0.7022405
vn 0.92895865 0.36873367 0.032732192
vn 0.6956465 0.11744209 0.7087195
vn 0.07945695 -0.1959229 0.9773949
vn 0.6555191 0.26254588 -0.7080708
vn 0.92604864 0.37725976 0.0104444595
vn 0.6564039 0.24763185 0.7126095
vn 0.009480799 -0.023377236 0.9996817
vn 0.6375765 0.2959397 -0.71127766
vn 0.92522776 0.37940836 -0.0017046041
vn 0.6518482 0.27602747 0.70633054
vn -0.005146167 0.012688344 0.9999063
vn 0.60235316 0.3734508 -0.70548224
vn 0.9239319 0.38243282 -0.00974313
vn 0.66750973 0.24874668 0.70182323
vn 0.0119307535 -0.029418327 0.999496
vn 0.55329067 0.48670992 -0.676005
vn 0.92135954 0.38841063 -0.015288641
vn 0.6987304 0.1814758 0.6919843
vn 0.052535668 -0.12954304 0.9901811
vn 0.49855298 0.6173855 -0.6085063
vn 0.91727656 0.3979097 -0.016480256
vn 0.7419946 0.08309887 0.66523576
vn 0.11181295 -0.2757079 0.9547162
vn 0.9125679 0.4088092 -0.00973498
vn 0.79022783 -0.031407483 0.6120079
vn 0.18051043 -0.4451003 0.87709844
vn 0.8331154 -0.1393263 0.53526336
vn 0.24403766 -0.60174716 0.76049066
vn 0.86299115 -0.22113518 0.4542527
vn 0.29043195 -0.7161474 0.63465124
vn 0.8778612 -0.26984367 0.3956567
vn 0.3164348 -0.7802664 0.53949356
vn 0.8760295 -0.28349176 0.3901343
vn 0.3218412 -0.7935904 0.5163647
vn 0.8324064 -0.23008113 0.5041452
vn 0.8647086 0.47059157 0.17556368
vn 0.28669873 -0.7069288 0.64657205
vn 0.79404676 -0.14497903 0.59031415
g Corrupt King Monster Mount.013_0
f 3/3/3 2/2/2 1/1/1
f 3/3/3 4/4/4 2/2/2
f 4/4/4 5/5/5 2/2/2
f 2/2/2 5/5/5 6/6/6
f 2/2/2 6/6/6 7/7/7
f 8/8/8 4/4/4 3/3/3
f 9/9/9 8/8/8 3/3/3
f 9/9/9 3/3/3 10/10/10
f 4/4/4 11/11/11 5/5/5
f 8/8/8 12/12/12 4/4/4
f 12/12/12 11/11/11 4/4/4
f 5/5/5 13/13/13 6/6/6
f 11/11/11 14/14/14 5/5/5
f 5/5/5 14/14/14 13/13/13
f 6/6/6 13/13/13 15/15/15
f 6/6/6 15/15/15 16/16/16
f 17/17/17 8/8/8 9/9/9
f 18/18/18 12/12/12 8/8/8
f 17/17/17 18/18/18 8/8/8
f 19/19/19 17/17/17 9/9/9
f 19/19/19 9/9/9 20/20/20
f 12/12/12 21/21/21 11/11/11
f 11/11/11 22/22/22 14/14/14
f 21/21/21 22/22/22 11/11/11
f 18/18/18 23/23/23 12/12/12
f 23/23/23 21/21/21 12/12/12
f 14/14/14 24/24/24 13/13/13
f 13/13/13 25/25/25 15/15/15
f 13/13/13 24/24/24 25/25/25
f 15/15/15 25/25/25 26/26/26
f 15/15/15 26/26/26 27/27/27
f 25/25/25 28/28/28 26/26/26
f 25/25/25 29/29/29 28/28/28
f 24/24/24 29/29/29 25/25/25
f 29/29/29 30/30/30 28/28/28
f 14/14/14 31/31/31 24/24/24
f 22/22/22 31/31/31 14/14/14
f 29/29/29 32/32/32 30/30/30
f 32/32/32 33/33/33 30/30/30
f 24/24/24 34/34/34 29/29/29
f 31/31/31 34/34/34 24/24/24
f 34/34/34 32/32/32 29/29/29
f 32/32/32 35/35/35 33/33/33
f 35/35/35 36/36/36 33/33/33
f 34/34/34 37/37/37 32/32/32
f 37/37/37 35/35/35 32/32/32
f 31/31/31 38/38/38 34/34/34
f 38/38/38 37/37/37 34/34/34
f 22/22/22 39/39/39 31/31/31
f 39/39/39 38/38/38 31/31/31
f 35/35/35 40/40/40 36/36/36
f 40/40/40 41/41/41 36/36/36
f 37/37/37 42/42/42 35/35/35
f 42/42/42 40/40/40 35/35/35
f 38/38/38 43/43/43 37/37/37
f 43/43/43 42/42/42 37/37/37
f 40/40/40 44/44/44 41/41/41
f 44/44/44 45/45/45 41/41/41
f 42/42/42 46/46/46 40/40/40
f 46/46/46 44/44/44 40/40/40
f 44/44/44 47/47/47 45/45/45
f 47/47/47 48/48/48 45/45/45
f 49/49/49 39/39/39 22/22/22
f 21/21/21 49/49/49 22/22/22
f 39/39/39 50/50/50 38/38/38
f 50/50/50 43/43/43 38/38/38
f 43/43/43 51/51/51 42/42/42
f 51/51/51 46/46/46 42/42/42
f 46/46/46 52/52/52 44/44/44
f 52/52/52 47/47/47 44/44/44
f 47/47/47 53/53/53 48/48/48
f 53/53/53 54/54/54 48/48/48
f 55/55/55 49/49/49 21/21/21
f 23/23/23 55/55/55 21/21/21
f 50/50/50 56/56/56 43/43/43
f 56/56/56 51/51/51 43/43/43
f 51/51/51 57/57/57 46/46/46
f 57/57/57 52/52/52 46/46/46
f 52/52/52 58/58/58 47/47/47
f 58/58/58 53/53/53 47/47/47
f 53/53/53 59/59/59 54/54/54
f 59/59/59 60/60/60 54/54/54
f 56/56/56 61/61/61 51/51/51
f 61/61/61 57/57/57 51/51/51
f 57/57/57 62/62/62 52/52/52
f 62/62/62 58/58/58 52/52/52
f 58/58/58 63/63/63 53/53/53
f 63/63/63 59/59/59 53/53/53
f 59/59/59 64/64/64 60/60/60
f 64/64/64 65/65/65 60/60/60
f 61/61/61 66/66/66 57/57/57
f 66/66/66 62/62/62 57/57/57
f 62/62/62 67/67/67 58/58/58
f 67/67/67 63/63/63 58/58/58
f 63/63/63 68/68/68 59/59/59
f 68/68/68 64/64/64 59/59/59
f 64/64/64 69/69/69 65/65/65
f 69/69/69 70/70/70 65/65/65
f 66/66/66 71/71/71 62/62/62
f 71/71/71 67/67/67 62/62/62
f 67/67/67 72/72/72 63/63/63
f 72/72/72 68/68/68 63/63/63
f 68/68/68 73/73/73 64/64/64
f 73/73/73 69/69/69 64/64/64
f 69/69/69 74/74/74 70/70/70
f 74/74/74 75/75/75 70/70/70
f 71/71/71 76/76/76 67/67/67
f 76/76/76 72/72/72 67/67/67
f 72/72/72 77/77/77 68/68/68
f 77/77/77 73/73/73 68/68/68
f 73/73/73 78/78/78 69/69/69
f 78/78/78 74/74/74 69/69/69
f 74/74/74 79/79/79 75/75/75
f 79/79/79 80/80/80 75/75/75
f 79/79/79 81/81/81 80/80/80
f 81/81/81 82/82/82 80/80/80
f 83/83/83 81/81/81 79/79/79
f 84/84/84 79/79/79 74/74/74
f 84/84/84 83/83/83 79/79/79
f 78/78/78 84/84/84 74/74/74
f 85/85/85 83/83/83 84/84/84
f 86/86/86 85/85/85 84/84/84
f 86/86/86 84/84/84 78/78/78
f 87/87/87 85/85/85 86/86/86
f 88/88/88 78/78/78 73/73/73
f 88/88/88 86/86/86 78/78/78
f 77/77/77 88/88/88 73/73/73
f 89/89/89 87/87/87 86/86/86
f 89/89/89 86/86/86 88/88/88
f 90/90/90 87/87/87 89/89/89
f 91/91/91 88/88/88 77/77/77
f 91/91/91 89/89/89 88/88/88
f 92/92/92 90/90/90 89/89/89
f 92/92/92 89/89/89 91/91/91
f 93/93/93 90/90/90 92/92/92
f 94/94/94 91/91/91 77/77/77
f 94/94/94 77/77/77 72/72/72
f 76/76/76 94/94/94 72/72/72
f 95/95/95 92/92/92 91/91/91
f 95/95/95 91/91/91 94/94/94
f 96/96/96 93/93/93 92/92/92
f 96/96/96 92/92/92 95/95/95
f 97/97/97 93/93/93 96/96/96
f 98/98/98 94/94/94 76/76/76
f 98/98/98 95/95/95 94/94/94
f 99/99/99 96/96/96 95/95/95
f 99/99/99 95/95/95 98/98/98
f 100/100/100 97/97/97 96/96/96
f 100/100/100 96/96/96 99/99/99
f 101/101/101 97/97/97 100/100/100
f 102/102/102 101/101/101 100/100/100
f 102/102/102 100/100/100 103/103/103
f 103/103/103 100/100/100 99/99/99
f 104/104/104 102/102/102 103/103/103
f 105/105/105 98/98/98 76/76/76
f 105/105/105 76/76/76 71/71/71
f 106/106/106 99/99/99 98/98/98
f 103/103/103 99/99/99 106/106/106
f 106/106/106 98/98/98 105/105/105
f 104/104/104 103/103/103 107/107/107
f 107/107/107 103/103/103 106/106/106
f 108/108/108 104/104/104 107/107/107
f 109/109/109 105/105/105 71/71/71
f 109/109/109 71/71/71 66/66/66
f 110/110/110 106/106/106 105/105/105
f 107/107/107 106/106/106 110/110/110
f 110/110/110 105/105/105 109/109/109
f 108/108/108 107/107/107 111/111/111
f 111/111/111 107/107/107 110/110/110
f 112/112/112 108/108/108 111/111/111
f 113/113/113 109/109/109 66/66/66
f 113/113/113 66/66/66 61/61/61
f 114/114/114 110/110/110 109/109/109
f 111/111/111 110/110/110 114/114/114
f 114/114/114 109/109/109 113/113/113
f 112/112/112 111/111/111 115/115/115
f 115/115/115 111/111/111 114/114/114
f 116/116/116 112/112/112 115/115/115
f 117/117/117 113/113/113 61/61/61
f 117/117/117 61/61/61 56/56/56
f 118/118/118 114/114/114 113/113/113
f 115/115/115 114/114/114 118/118/118
f 118/118/118 113/113/113 117/117/117
f 116/116/116 115/115/115 119/119/119
f 119/119/119 115/115/115 118/118/118
f 120/120/120 116/116/116 119/119/119
f 121/121/121 117/117/117 56/56/56
f 121/121/121 56/56/56 50/50/50
f 122/122/122 118/118/118 117/117/117
f 119/119/119 118/118/118 122/122/122
f 122/122/122 117/117/117 121/121/121
f 120/120/120 119/119/119 123/123/123
f 123/123/123 119/119/119 122/122/122
f 124/124/124 120/120/120 123/123/123
f 125/125/125 121/121/121 50/50/50
f 125/125/125 50/50/50 39/39/39
f 49/49/49 125/125/125 39/39/39
f 126/126/126 122/122/122 121/121/121
f 123/123/123 122/122/122 126/126/126
f 126/126/126 121/121/121 125/125/125
f 124/124/124 123/123/123 127/127/127
f 127/127/127 123/123/123 126/126/126
f 128/128/128 124/124/124 127/127/127
f 129/129/129 125/125/125 49/49/49
f 129/129/129 126/126/126 125/125/125
f 127/127/127 126/126/126 129/129/129
f 55/55/55 129/129/129 49/49/49
f 128/128/128 127/127/127 130/130/130
f 130/130/130 127/127/127 129/129/129
f 130/130/130 129/129/129 55/55/55
f 131/131/131 128/128/128 130/130/130
f 132/132/132 130/130/130 55/55/55
f 131/131/131 130/130/130 132/132/132
f 132/132/132 55/55/55 23/23/23
f 133/133/133 131/131/131 132/132/132
f 134/134/134 132/132/132 23/23/23
f 133/133/133 132/132/132 134/134/134
f 134/134/134 23/23/23 18/18/18
f 135/135/135 133/133/133 134/134/134
f 136/136/136 134/134/134 18/18/18
f 135/135/135 134/134/134 136/136/136
f 136/136/136 18/18/18 17/17/17
f 137/137/137 135/135/135 136/136/136
f 138/138/138 136/136/136 17/17/17
f 137/137/137 136/136/136 138/138/138
f 138/138/138 17/17/17 19/19/19
f 139/139/139 137/137/137 138/138/138
f 140/140/140 138/138/138 19/19/19
f 139/139/139 138/138/138 140/140/140
f 140/140/140 19/19/19 141/141/141
f 142/142/142 139/139/139 140/140/140
f 142/142/142 140/140/140 143/143/143
