g Corrupt King Monster Mount.011
v 4.411552 18.321972 12.497009
v 4.336865 18.13781 12.080288
v 4.391696 18.08923 12.0952215
v 4.257804 17.942862 11.4489155
v 4.3559303 17.852695 11.471184
v 4.396073 18.023878 12.131269
v 4.411552 18.321972 12.497009
v 4.124592 17.946516 11.471184
v 4.2636857 18.141148 12.0952215
v 4.411552 18.321972 12.497009
v 4.14679 17.669125 10.692482
v 3.9669962 17.675705 10.726086
v 4.361518 17.728863 11.524934
v 4.280379 17.548613 10.726086
v 4.3474126 17.980038 12.167316
v 4.411552 18.321972 12.497009
v 4.0343285 17.861555 11.524934
v 3.846312 17.564539 10.807183
v 4.2150245 18.097301 12.131269
v 4.411552 18.321972 12.497009
v 3.7732606 17.289742 9.961235
v 3.9874234 17.27616 9.911203
v 3.6335099 17.169573 10.081997
v 4.2895403 17.38479 10.807183
v 4.271255 17.643904 11.578681
v 4.2742343 17.983376 12.182253
v 4.411552 18.321972 12.497009
v 4.138044 17.647558 11.60095
v 4.1688585 17.273624 10.888282
v 3.989065 17.280205 10.921885
v 4.1505494 17.136732 9.961235
v 4.02737 16.832998 10.202756
v 3.8132071 16.846577 10.252793
v 4.167121 16.953169 10.081997
v 3.839681 16.300335 9.59688
v 3.602407 16.326788 9.666788
v 3.9865716 16.409163 9.4281645
v 3.9569764 16.58956 9.259446
v 3.7683015 16.73585 9.189537
v 3.6024623 15.663641 9.114354
v 3.3518393 15.708943 9.203472
v 3.7455306 15.741591 8.899267
v 3.6971712 15.897171 8.68418
v 3.3146124 14.916756 8.773415
v 3.0577214 14.983709 8.876874
v 3.4469695 14.952924 8.523708
v 2.9788413 14.063298 8.574308
v 2.7195652 14.149886 8.686029
v 3.5310268 16.762302 9.259446
v 3.4857888 16.039232 8.595062
v 3.3771925 15.071064 8.273999
v 3.0991898 14.059285 8.304676
v 2.6045663 13.123783 8.499024
v 2.3442621 13.224468 8.614562
v 3.3841374 16.653477 9.428162
v 3.1462324 15.201959 8.170539
v 3.0100417 14.140231 8.035041
v 2.7158194 13.090451 8.220177
v 2.2082524 12.136456 8.505863
v 1.9465611 12.243819 8.6230545
v 2.7636936 14.258697 7.923321
v 2.6127748 13.144024 7.941331
v 2.3158197 12.089847 8.223018
v 1.8113198 11.152148 8.525659
v 1.5461247 11.256426 8.643681
v 2.3558717 13.253095 7.8257937
v 2.2061734 12.131328 7.940173
v 1.9234776 11.114559 8.240805
v 1.4366171 10.225575 8.455832
v 1.1625247 10.31055 8.571793
v 1.9436209 12.236571 7.8229814
v 1.8168197 11.1657095 7.9559546
v 1.5684128 10.235318 8.175956
v 1.1111155 9.421975 8.134791
v 0.81906515 9.463653 8.229717
v 1.5539029 11.275607 7.8379297
v 1.4806321 10.3341055 7.896083
v 1.2855732 9.5365095 7.9056873
v 0.90339977 8.909568 7.374423
v 0.59579676 8.913117 7.4127073
v 0.8866058 8.86814 6.089261
v 0.5771057 8.867029 6.0716453
v 1.1030087 9.086004 6.1317797
v 1.1152353 9.116176 7.2820177
v 1.0994852 9.393057 6.1742983
v 1.1071482 9.41197 7.1896167
v 0.87818784 9.609435 6.1919155
v 1.240171 9.740201 7.676581
v 0.8839651 9.62368 7.1513305
v 0.56868714 9.608323 6.1742983
v 1.0015926 9.913725 7.5816574
v 0.5763611 9.62723 7.1896167
v 0.35228437 9.39046 6.1317797
v 1.2247775 10.464053 7.780119
v 0.7095414 9.955398 7.676581
v 0.3645255 9.420625 7.2820177
v 0.35580772 9.083407 6.089261
v 0.9506839 10.549027 7.896083
v 0.5350856 9.840869 7.9056873
v 0.37261266 9.124827 7.374423
v 0.5771057 8.867029 6.0716453
v 0.59579676 8.913117 7.4127073
v 0.58048505 9.637173 8.134791
v 0.81906515 9.463653 8.229717
v 1.2887063 11.379886 7.9559546
v 0.8188881 10.539285 8.175956
v 0.9066687 10.4404955 8.455832
v 1.1625247 10.31055 8.571793
v 1.6819282 12.343936 7.940173
v 1.1765487 11.417474 8.240805
v 1.2832062 11.366323 8.525656
v 1.5461247 11.256426 8.643681
v 2.095566 13.353778 7.941331
v 1.5743628 12.390546 8.223018
v 1.6840074 12.349064 8.505863
v 1.9465611 12.243819 8.6230545
v 2.5044174 14.345288 8.035041
v 1.984314 13.387113 8.220177
v 2.0873575 13.333537 8.499024
v 2.3442621 13.224468 8.614562
v 2.889341 15.268913 8.273999
v 2.3840692 14.349302 8.304676
v 2.4732168 14.268353 8.574308
v 2.7195652 14.149886 8.686029
v 3.2351654 16.084538 8.68418
v 2.7569842 15.232747 8.523708
v 2.8267605 15.114603 8.773415
v 3.0577214 14.983709 8.876874
v 3.0920992 16.00659 8.899267
v 3.1404567 15.8510065 9.114354
v 3.3518393 15.708943 9.203472
v 3.4137316 16.47308 9.59688
v 3.602407 16.326788 9.666788
v 3.6500816 16.986008 10.202756
v 3.8132071 16.846577 10.252793
v 3.8554754 17.400717 10.888282
v 3.989065 17.280205 10.921885
v 4.039916 17.737722 11.578681
v 4.138044 17.647558 11.60095
v 4.2194033 18.031954 12.167316
v 4.411552 18.321972 12.497009
v 4.2742343 17.983376 12.182253
v 4.411552 18.321972 12.497009
vt 0 0.5
vt 0.06666667 0.5
vt 0.06666667 0.625
vt 0.13333334 0.5
vt 0.13333334 0.625
vt 0.06666667 0.75
vt 0 0.625
vt 0.13333334 0.375
vt 0.06666667 0.375
vt 0 0.375
vt 0.2 0.5
vt 0.2 0.375
vt 0.13333334 0.75
vt 0.2 0.625
vt 0.06666667 0.875
vt 0 0.75
vt 0.13333334 0.25
vt 0.2 0.25
vt 0.06666667 0.25
vt 0 0.25
vt 0.26666668 0.375
vt 0.26666668 0.5
vt 0.26666668 0.25
vt 0.2 0.75
vt 0.13333334 0.875
vt 0.06666667 1
vt 0 0.875
vt 0.13333334 1
vt 0.2 0.875
vt 0.2 1
vt 0.26666668 0.625
vt 0.26666668 0.875
vt 0.26666668 1
vt 0.26666668 0.75
vt 0.33333334 0.875
vt 0.33333334 1
vt 0.33333334 0.75
vt 0.33333334 0.625
vt 0.33333334 0.5
vt 0.4 0.875
vt 0.4 1
vt 0.4 0.75
vt 0.4 0.625
vt 0.46666667 0.875
vt 0.46666667 1
vt 0.46666667 0.75
vt 0.53333336 0.875
vt 0.53333336 1
vt 0.33333334 0.375
vt 0.4 0.5
vt 0.46666667 0.625
vt 0.53333336 0.75
vt 0.6 0.875
vt 0.6 1
vt 0.33333334 0.25
vt 0.46666667 0.5
vt 0.53333336 0.625
vt 0.6 0.75
vt 0.6666667 0.875
vt 0.6666667 1
vt 0.53333336 0.5
vt 0.6 0.625
vt 0.6666667 0.75
vt 0.73333335 0.875
vt 0.73333335 1
vt 0.6 0.5
vt 0.6666667 0.625
vt 0.73333335 0.75
vt 0.8 0.875
vt 0.8 1
vt 0.6666667 0.5
vt 0.73333335 0.625
vt 0.8 0.75
vt 0.8666667 0.875
vt 0.8666667 1
vt 0.73333335 0.5
vt 0.8 0.625
vt 0.8666667 0.75
vt 0.93333334 0.875
vt 0.93333334 1
vt 1 0.875
vt 1 1
vt 1 0.75
vt 0.93333334 0.75
vt 1 0.625
vt 0.93333334 0.625
vt 1 0.5
vt 0.8666667 0.625
vt 0.93333334 0.5
vt 1 0.375
vt 0.8666667 0.5
vt 0.93333334 0.375
vt 1 0.25
vt 0.8 0.5
vt 0.8666667 0.375
vt 0.93333334 0.25
vt 1 0.125
vt 0.8 0.375
vt 0.8666667 0.25
vt 0.93333334 0.125
vt 1 0
vt 0.93333334 0
vt 0.8666667 0.125
vt 0.8666667 0
vt 0.73333335 0.375
vt 0.8 0.25
vt 0.8 0.125
vt 0.8 0
vt 0.6666667 0.375
vt 0.73333335 0.25
vt 0.73333335 0.125
vt 0.73333335 0
vt 0.6 0.375
vt 0.6666667 0.25
vt 0.6666667 0.125
vt 0.6666667 0
vt 0.53333336 0.375
vt 0.6 0.25
vt 0.6 0.125
vt 0.6 0
vt 0.46666667 0.375
vt 0.53333336 0.25
vt 0.53333336 0.125
vt 0.53333336 0
vt 0.4 0.375
vt 0.46666667 0.25
vt 0.46666667 0.125
vt 0.46666667 0
vt 0.4 0.25
vt 0.4 0.125
vt 0.4 0
vt 0.33333334 0.125
vt 0.33333334 0
vt 0.26666668 0.125
vt 0.26666668 0
vt 0.2 0.125
vt 0.2 0
vt 0.13333334 0.125
vt 0.13333334 0
vt 0.06666667 0.125
vt 0 0.125
vt 0.06666667 0
vt 0 0
vn 0.33923432 0.8364406 -0.43044993
vn 0.34887078 0.86020726 -0.3719309
vn 0.91134477 0.35110006 -0.21489392
vn 0.3533376 0.87123746 -0.34073126
vn 0.9052529 0.36571372 -0.21626528
vn 0.93655133 -0.31590974 0.15189628
vn 0.89970905 0.35694334 -0.25122708
vn -0.39479947 0.89295197 -0.21626413
vn -0.40935126 0.88670886 -0.21489273
vn -0.39693457 0.88279504 -0.25122893
vn 0.34074494 0.8402008 -0.42184794
vn -0.40091342 0.870948 -0.2841091
vn 0.93932265 -0.3320629 0.08606522
vn 0.8943132 0.34566867 -0.28410733
vn 0.43699917 -0.7448927 0.5041493
vn 0.94823366 -0.26463485 0.17555957
vn -0.90527844 0.41600868 0.08606815
vn -0.90791607 0.4158222 0.052728757
vn -0.8920405 0.4256644 0.15189943
vn -0.8647095 0.4705897 0.17556405
vn -0.4178713 0.821924 -0.38707185
vn 0.3124845 0.77052134 -0.55556303
vn -0.90805286 0.41794252 0.027640408
vn 0.9410849 -0.3340347 0.05272626
vn 0.4311065 -0.8135977 0.39013577
vn -0.28670058 -0.7069275 0.64657277
vn 0.4687484 -0.6571116 0.5903213
vn -0.32184103 -0.7935908 0.5163642
vn 0.44193175 -0.80507934 0.3956558
vn -0.3164347 -0.7802666 0.5394934
vn 0.8723331 0.29868296 -0.38707027
vn 0.46518677 -0.7597742 0.4542514
vn -0.29043183 -0.71614736 0.63465124
vn 0.94265914 -0.33261058 0.027640026
vn 0.50072956 -0.6802671 0.5352631
vn -0.24403742 -0.60174674 0.7604909
vn 0.9423726 -0.33451024 0.0060603363
vn 0.83625597 0.21470004 -0.5045591
vn 0.26421073 0.651488 -0.7111652
vn 0.54512584 -0.57296 0.6120087
vn -0.18051058 -0.4451001 0.8770985
vn 0.9395359 -0.34231213 -0.009734098
vn 0.78775454 0.09572248 -0.60850644
vn 0.59027714 -0.45720282 0.66523564
vn -0.11181321 -0.27570808 0.9547162
vn 0.9353229 -0.35341126 -0.016478306
vn 0.62775785 -0.35648078 0.6919837
vn -0.052535906 -0.12954305 0.9901811
vn -0.45048273 0.73653597 -0.5045593
vn 0.19763394 0.48732218 -0.8505633
vn 0.73601025 -0.036167137 -0.6760036
vn 0.9316362 -0.3630705 -0.015288081
vn 0.6522122 -0.2864657 0.70182383
vn -0.011931208 -0.029418265 0.999496
vn -0.90916914 0.41638294 0.006060156
vn 0.12477334 0.30766267 -0.94327897
vn 0.6923243 -0.15160577 -0.70548046
vn 0.92931813 -0.36915168 -0.009743257
vn 0.6599777 -0.25598076 0.7063309
vn 0.0051463824 0.012688409 0.9999063
vn 0.061262686 0.15105635 -0.98662496
vn 0.6636073 -0.23175503 -0.711277
vn 0.9281411 -0.3722246 -0.0017040408
vn 0.64346796 -0.27952915 0.7126095
vn -0.009480936 -0.023377206 0.9996817
vn 0.017280888 0.04260676 -0.99894243
vn 0.65322065 -0.26821357 -0.7080707
vn 0.9272337 -0.37433767 0.010443933
vn 0.58094275 -0.4002777 0.7087195
vn -0.07945753 -0.1959229 0.9773949
vn -0.0022265152 -0.0054923426 -0.9999825
vn 0.6667328 -0.24965237 -0.70223993
vn 0.92338306 -0.38248208 0.032731403
vn 0.4583316 -0.66693103 0.5874821
vn -0.22716495 -0.5601405 0.7966422
vn 0.009804684 0.02417312 -0.99965966
vn 0.7202704 -0.14383428 -0.67861795
vn 0.9077065 -0.4157096 0.05704714
vn 0.3631507 -0.9000389 0.2409389
vn -0.35525814 -0.87599015 0.32624063
vn 0.3494446 -0.9366055 0.025662921
vn -0.3755777 -0.92609394 0.03593617
vn 0.90912056 -0.4165236 0.0028021936
vn 0.89860964 -0.4380777 0.02426311
vn 0.9275363 0.37346995 -0.01402123
vn 0.92938966 0.30197996 -0.21223311
vn 0.375759 0.92654043 -0.018114116
vn 0.8419451 0.084588364 -0.5328915
vn 0.3563456 0.878671 -0.3177344
vn -0.40538722 0.9140375 -0.014020666
vn 0.22259182 0.5488617 -0.8057318
vn -0.45651352 0.86403286 -0.21223277
vn -0.942437 0.33437204 0.0028008174
vn 0.073331185 0.18081655 -0.9807793
vn -0.5451916 0.64714134 -0.53289235
vn -0.9499081 0.31158614 0.024263425
vn -0.903115 -0.42863134 0.02566167
vn -0.616993 0.39849204 -0.6786189
vn -0.9408547 0.33397308 0.05704762
vn -0.8874794 -0.39284718 0.24093841
vn -0.3755777 -0.92609394 0.03593617
vn -0.35525814 -0.87599015 0.32624063
vn -0.79340494 -0.15929073 0.587482
vn -0.22716495 -0.5601405 0.7966422
vn -0.65228504 0.2852758 -0.70224065
vn -0.92895865 0.36873367 0.032732036
vn -0.695647 0.11744205 0.7087191
vn -0.07945753 -0.1959229 0.9773949
vn -0.65551907 0.26254597 -0.7080708
vn -0.9260486 0.37725982 0.010444418
vn -0.65640414 0.24763185 0.7126093
vn -0.009480936 -0.023377206 0.9996817
vn -0.63757634 0.29593974 -0.71127784
vn -0.92522764 0.3794086 -0.0017041933
vn -0.65184784 0.27602768 0.7063308
vn 0.0051463824 0.012688409 0.9999063
vn -0.6023527 0.3734508 -0.7054827
vn -0.9239319 0.3824329 -0.0097431615
vn -0.6675097 0.24874678 0.7018233
vn -0.011931208 -0.029418265 0.999496
vn -0.55329055 0.4867099 -0.6760052
vn -0.9213596 0.38841054 -0.015289146
vn -0.6987304 0.18147582 0.69198436
vn -0.052535906 -0.12954305 0.9901811
vn -0.49855334 0.61738527 -0.6085064
vn -0.91727656 0.39790952 -0.016480697
vn -0.7419949 0.08309877 0.66523546
vn -0.11181321 -0.27570808 0.9547162
vn -0.91256803 0.40880907 -0.009734929
vn -0.790228 -0.0314075 0.61200756
vn -0.18051058 -0.4451001 0.8770985
vn -0.8331156 -0.13932613 0.5352633
vn -0.24403742 -0.60174674 0.7604909
vn -0.8629912 -0.22113489 0.45425263
vn -0.29043183 -0.71614736 0.63465124
vn -0.877861 -0.26984358 0.39565703
vn -0.3164347 -0.7802666 0.5394934
vn -0.87602925 -0.28349227 0.3901345
vn -0.32184103 -0.7935908 0.5163642
vn -0.8324058 -0.23008119 0.50414604
vn -0.79404557 -0.14497828 0.5903159
vn -0.28670058 -0.7069275 0.64657277
vn -0.24529402 -0.6048175 0.7576454
g Corrupt King Monster Mount.011_0
f 3/3/3 2/2/2 1/1/1
f 4/4/4 2/2/2 3/3/3
f 5/5/5 4/4/4 3/3/3
f 5/5/5 3/3/3 6/6/6
f 6/6/6 3/3/3 7/7/7
f 4/4/4 8/8/8 2/2/2
f 8/8/8 9/9/9 2/2/2
f 2/2/2 9/9/9 10/10/10
f 11/11/11 4/4/4 5/5/5
f 12/12/12 8/8/8 4/4/4
f 11/11/11 12/12/12 4/4/4
f 13/13/13 5/5/5 6/6/6
f 14/14/14 11/11/11 5/5/5
f 14/14/14 5/5/5 13/13/13
f 13/13/13 6/6/6 15/15/15
f 15/15/15 6/6/6 16/16/16
f 8/8/8 17/17/17 9/9/9
f 12/12/12 18/18/18 8/8/8
f 18/18/18 17/17/17 8/8/8
f 17/17/17 19/19/19 9/9/9
f 9/9/9 19/19/19 20/20/20
f 21/21/21 12/12/12 11/11/11
f 22/22/22 11/11/11 14/14/14
f 22/22/22 21/21/21 11/11/11
f 23/23/23 18/18/18 12/12/12
f 21/21/21 23/23/23 12/12/12
f 24/24/24 14/14/14 13/13/13
f 25/25/25 13/13/13 15/15/15
f 24/24/24 13/13/13 25/25/25
f 25/25/25 15/15/15 26/26/26
f 26/26/26 15/15/15 27/27/27
f 28/28/28 25/25/25 26/26/26
f 29/29/29 25/25/25 28/28/28
f 29/29/29 24/24/24 25/25/25
f 30/30/30 29/29/29 28/28/28
f 31/31/31 14/14/14 24/24/24
f 31/31/31 22/22/22 14/14/14
f 32/32/32 29/29/29 30/30/30
f 33/33/33 32/32/32 30/30/30
f 34/34/34 24/24/24 29/29/29
f 34/34/34 31/31/31 24/24/24
f 32/32/32 34/34/34 29/29/29
f 35/35/35 32/32/32 33/33/33
f 36/36/36 35/35/35 33/33/33
f 37/37/37 34/34/34 32/32/32
f 35/35/35 37/37/37 32/32/32
f 38/38/38 31/31/31 34/34/34
f 37/37/37 38/38/38 34/34/34
f 39/39/39 22/22/22 31/31/31
f 38/38/38 39/39/39 31/31/31
f 40/40/40 35/35/35 36/36/36
f 41/41/41 40/40/40 36/36/36
f 42/42/42 37/37/37 35/35/35
f 40/40/40 42/42/42 35/35/35
f 43/43/43 38/38/38 37/37/37
f 42/42/42 43/43/43 37/37/37
f 44/44/44 40/40/40 41/41/41
f 45/45/45 44/44/44 41/41/41
f 46/46/46 42/42/42 40/40/40
f 44/44/44 46/46/46 40/40/40
f 47/47/47 44/44/44 45/45/45
f 48/48/48 47/47/47 45/45/45
f 39/39/39 49/49/49 22/22/22
f 49/49/49 21/21/21 22/22/22
f 50/50/50 39/39/39 38/38/38
f 43/43/43 50/50/50 38/38/38
f 51/51/51 43/43/43 42/42/42
f 46/46/46 51/51/51 42/42/42
f 52/52/52 46/46/46 44/44/44
f 47/47/47 52/52/52 44/44/44
f 53/53/53 47/47/47 48/48/48
f 54/54/54 53/53/53 48/48/48
f 49/49/49 55/55/55 21/21/21
f 55/55/55 23/23/23 21/21/21
f 56/56/56 50/50/50 43/43/43
f 51/51/51 56/56/56 43/43/43
f 57/57/57 51/51/51 46/46/46
f 52/52/52 57/57/57 46/46/46
f 58/58/58 52/52/52 47/47/47
f 53/53/53 58/58/58 47/47/47
f 59/59/59 53/53/53 54/54/54
f 60/60/60 59/59/59 54/54/54
f 61/61/61 56/56/56 51/51/51
f 57/57/57 61/61/61 51/51/51
f 62/62/62 57/57/57 52/52/52
f 58/58/58 62/62/62 52/52/52
f 63/63/63 58/58/58 53/53/53
f 59/59/59 63/63/63 53/53/53
f 64/64/64 59/59/59 60/60/60
f 65/65/65 64/64/64 60/60/60
f 66/66/66 61/61/61 57/57/57
f 62/62/62 66/66/66 57/57/57
f 67/67/67 62/62/62 58/58/58
f 63/63/63 67/67/67 58/58/58
f 68/68/68 63/63/63 59/59/59
f 64/64/64 68/68/68 59/59/59
f 69/69/69 64/64/64 65/65/65
f 70/70/70 69/69/69 65/65/65
f 71/71/71 66/66/66 62/62/62
f 67/67/67 71/71/71 62/62/62
f 72/72/72 67/67/67 63/63/63
f 68/68/68 72/72/72 63/63/63
f 73/73/73 68/68/68 64/64/64
f 69/69/69 73/73/73 64/64/64
f 74/74/74 69/69/69 70/70/70
f 75/75/75 74/74/74 70/70/70
f 76/76/76 71/71/71 67/67/67
f 72/72/72 76/76/76 67/67/67
f 77/77/77 72/72/72 68/68/68
f 73/73/73 77/77/77 68/68/68
f 78/78/78 73/73/73 69/69/69
f 74/74/74 78/78/78 69/69/69
f 79/79/79 74/74/74 75/75/75
f 80/80/80 79/79/79 75/75/75
f 81/81/81 79/79/79 80/80/80
f 82/82/82 81/81/81 80/80/80
f 81/81/81 83/83/83 79/79/79
f 79/79/79 84/84/84 74/74/74
f 83/83/83 84/84/84 79/79/79
f 84/84/84 78/78/78 74/74/74
f 83/83/83 85/85/85 84/84/84
f 85/85/85 86/86/86 84/84/84
f 84/84/84 86/86/86 78/78/78
f 85/85/85 87/87/87 86/86/86
f 78/78/78 88/88/88 73/73/73
f 86/86/86 88/88/88 78/78/78
f 88/88/88 77/77/77 73/73/73
f 87/87/87 89/89/89 86/86/86
f 86/86/86 89/89/89 88/88/88
f 87/87/87 90/90/90 89/89/89
f 88/88/88 91/91/91 77/77/77
f 89/89/89 91/91/91 88/88/88
f 90/90/90 92/92/92 89/89/89
f 89/89/89 92/92/92 91/91/91
f 90/90/90 93/93/93 92/92/92
f 91/91/91 94/94/94 77/77/77
f 77/77/77 94/94/94 72/72/72
f 94/94/94 76/76/76 72/72/72
f 92/92/92 95/95/95 91/91/91
f 91/91/91 95/95/95 94/94/94
f 93/93/93 96/96/96 92/92/92
f 92/92/92 96/96/96 95/95/95
f 93/93/93 97/97/97 96/96/96
f 94/94/94 98/98/98 76/76/76
f 95/95/95 98/98/98 94/94/94
f 96/96/96 99/99/99 95/95/95
f 95/95/95 99/99/99 98/98/98
f 97/97/97 100/100/100 96/96/96
f 96/96/96 100/100/100 99/99/99
f 97/97/97 101/101/101 100/100/100
f 101/101/101 102/102/102 100/100/100
f 100/100/100 102/102/102 103/103/103
f 100/100/100 103/103/103 99/99/99
f 102/102/102 104/104/104 103/103/103
f 98/98/98 105/105/105 76/76/76
f 76/76/76 105/105/105 71/71/71
f 99/99/99 106/106/106 98/98/98
f 99/99/99 103/103/103 106/106/106
f 98/98/98 106/106/106 105/105/105
f 103/103/103 104/104/104 107/107/107
f 103/103/103 107/107/107 106/106/106
f 104/104/104 108/108/108 107/107/107
f 105/105/105 109/109/109 71/71/71
f 71/71/71 109/109/109 66/66/66
f 106/106/106 110/110/110 105/105/105
f 106/106/106 107/107/107 110/110/110
f 105/105/105 110/110/110 109/109/109
f 107/107/107 108/108/108 111/111/111
f 107/107/107 111/111/111 110/110/110
f 108/108/108 112/112/112 111/111/111
f 109/109/109 113/113/113 66/66/66
f 66/66/66 113/113/113 61/61/61
f 110/110/110 114/114/114 109/109/109
f 110/110/110 111/111/111 114/114/114
f 109/109/109 114/114/114 113/113/113
f 111/111/111 112/112/112 115/115/115
f 111/111/111 115/115/115 114/114/114
f 112/112/112 116/116/116 115/115/115
f 113/113/113 117/117/117 61/61/61
f 61/61/61 117/117/117 56/56/56
f 114/114/114 118/118/118 113/113/113
f 114/114/114 115/115/115 118/118/118
f 113/113/113 118/118/118 117/117/117
f 115/115/115 116/116/116 119/119/119
f 115/115/115 119/119/119 118/118/118
f 116/116/116 120/120/120 119/119/119
f 117/117/117 121/121/121 56/56/56
f 56/56/56 121/121/121 50/50/50
f 118/118/118 122/122/122 117/117/117
f 118/118/118 119/119/119 122/122/122
f 117/117/117 122/122/122 121/121/121
f 119/119/119 120/120/120 123/123/123
f 119/119/119 123/123/123 122/122/122
f 120/120/120 124/124/124 123/123/123
f 121/121/121 125/125/125 50/50/50
f 50/50/50 125/125/125 39/39/39
f 125/125/125 49/49/49 39/39/39
f 122/122/122 126/126/126 121/121/121
f 122/122/122 123/123/123 126/126/126
f 121/121/121 126/126/126 125/125/125
f 123/123/123 124/124/124 127/127/127
f 123/123/123 127/127/127 126/126/126
f 124/124/124 128/128/128 127/127/127
f 125/125/125 129/129/129 49/49/49
f 126/126/126 129/129/129 125/125/125
f 126/126/126 127/127/127 129/129/129
f 129/129/129 55/55/55 49/49/49
f 127/127/127 128/128/128 130/130/130
f 127/127/127 130/130/130 129/129/129
f 129/129/129 130/130/130 55/55/55
f 128/128/128 131/131/131 130/130/130
f 130/130/130 132/132/132 55/55/55
f 130/130/130 131/131/131 132/132/132
f 55/55/55 132/132/132 23/23/23
f 131/131/131 133/133/133 132/132/132
f 132/132/132 134/134/134 23/23/23
f 132/132/132 133/133/133 134/134/134
f 23/23/23 134/134/134 18/18/18
f 133/133/133 135/135/135 134/134/134
f 134/134/134 136/136/136 18/18/18
f 134/134/134 135/135/135 136/136/136
f 18/18/18 136/136/136 17/17/17
f 135/135/135 137/137/137 136/136/136
f 136/136/136 138/138/138 17/17/17
f 136/136/136 137/137/137 138/138/138
f 17/17/17 138/138/138 19/19/19
f 137/137/137 139/139/139 138/138/138
f 138/138/138 140/140/140 19/19/19
f 138/138/138 139/139/139 140/140/140
f 19/19/19 140/140/140 141/141/141
f 139/139/139 142/142/142 140/140/140
f 140/140/140 142/142/142 143/143/143
