g Corrupt King Monster Mount.014
v -3.4868977 22.029839 1.5310471
v -3.4302351 21.585325 1.488982
v -3.3662884 21.604994 1.4613068
v -3.1971338 21.00915 1.2832084
v -3.3112857 20.96863 1.3326802
v -3.4559357 21.574377 1.5557785
v -3.4868977 22.029839 1.5310471
v -3.0787184 21.034653 1.3326802
v -3.3015454 21.621859 1.488982
v -3.4868977 22.029839 1.5310471
v -2.9879847 20.272423 1.1044436
v -2.8285854 20.310535 1.1719413
v -3.3543222 20.936834 1.4520843
v -3.1436327 20.221098 1.1719413
v -3.4283168 21.578568 1.6225722
v -3.4868977 22.029839 1.5310471
v -3.0253952 21.030214 1.4520843
v -2.7587912 20.313122 1.334851
v -3.2739258 21.626047 1.5557785
v -3.4868977 22.029839 1.5310471
v -2.5652575 19.505238 1.096417
v -2.7541587 19.448774 1.0147829
v -2.4884808 19.533886 1.293448
v -3.2043736 20.186626 1.334851
v -3.3009984 20.932394 1.571486
v -3.3635757 21.595438 1.6502488
v -3.4868977 22.029839 1.5310471
v -3.1825838 20.957897 1.6209588
v -3.1345804 20.189213 1.4977579
v -2.9751825 20.227327 1.5652542
v -2.9445498 19.397562 1.096417
v -2.9481504 19.410244 1.4904776
v -2.7592506 19.466711 1.5721171
v -3.024927 19.381596 1.293448
v -2.756058 18.640497 1.6088133
v -2.547517 18.720882 1.6987529
v -2.831341 18.568012 1.3917465
v -2.7292013 18.545897 1.1746807
v -2.5095313 18.587078 1.0847409
v -2.5673082 17.906643 1.8865888
v -2.346696 18.013493 1.9771152
v -2.635493 17.780567 1.6680968
v -2.5112348 17.709127 1.4496086
v -2.3861651 17.219118 2.338684
v -2.1583388 17.350006 2.4229352
v -2.4457853 17.042387 2.1353462
v -2.214411 16.580112 2.9617481
v -1.9820415 16.729 3.036716
v -2.3009899 18.667461 1.1746807
v -2.2673886 17.734133 1.3590813
v -2.302198 16.923346 1.9320066
v -2.2671385 16.365015 2.7808204
v -2.0524414 15.9874115 3.727906
v -1.8169781 16.147568 3.794843
v -2.2257068 18.739944 1.3917451
v -2.0395823 16.931688 1.8477557
v -2.1092558 16.209703 2.5998912
v -2.1009934 15.748421 3.5663471
v -1.8982188 15.430702 4.581061
v -1.6604288 15.596125 4.644379
v -1.8333157 16.205116 2.524926
v -1.9341109 15.570593 3.4047937
v -1.9453162 15.181011 4.4282384
v -1.7456135 14.88575 5.4392705
v -1.5054349 15.050159 5.5063777
v -1.6496184 15.558044 3.337854
v -1.774047 14.993309 4.2754216
v -1.7945879 14.639603 5.2772985
v -1.5817038 14.304869 6.1989703
v -1.336975 14.456762 6.2819
v -1.4848088 14.977507 4.212101
v -1.6235855 14.455908 5.115329
v -1.6398166 14.089455 5.998816
v -1.3822659 13.6010475 6.7152324
v -1.1255916 13.712168 6.824055
v -1.3328462 14.442219 5.048218
v -1.4771866 13.936708 5.7986627
v -1.468526 13.484245 6.4525723
v -1.133791 12.725496 6.7399096
v -0.85852337 12.771423 6.8505654
v -0.8468871 11.714861 6.071199
v -0.55867267 11.715202 6.155232
v -1.0090997 11.865469 5.868379
v -1.2647637 12.766069 6.472839
v -0.9502175 12.07884 5.665563
v -1.1746472 12.869413 6.2057714
v -0.70481503 12.229988 5.581531
v -1.3337592 13.430183 6.189918
v -0.9163078 12.974968 6.095116
v -0.4166002 12.230331 5.665563
v -1.0569874 13.4705105 6.0810895
v -0.6410407 13.020899 6.2057714
v -0.2543876 12.079723 5.868379
v -1.1891527 13.936062 5.715731
v -0.80031073 13.581625 6.189918
v -0.51006687 12.980322 6.472839
v -0.31326947 11.86635 6.071199
v -0.9444237 14.087955 5.7986627
v -0.71405196 13.698433 6.4525723
v -0.6001843 12.876984 6.7399096
v -0.55867267 11.715202 6.155232
v -0.85852337 12.771423 6.8505654
v -0.8488176 13.752489 6.7152324
v -1.1255916 13.712168 6.824055
v -1.0926667 14.60663 5.115329
v -0.8863106 14.303368 5.998816
v -1.0489409 14.456116 6.1989703
v -1.336975 14.456762 6.2819
v -1.2470174 15.142929 4.2754216
v -1.0436915 14.852774 5.2772985
v -1.2146943 15.03647 5.439269
v -1.5054349 15.050159 5.5063777
v -1.4141545 15.7182045 3.4047937
v -1.199921 15.39262 4.4282384
v -1.371189 15.58032 4.581061
v -1.6604288 15.596125 4.644379
v -1.6009458 16.354008 2.5998912
v -1.3656023 15.957191 3.5663471
v -1.5324849 16.135021 3.727906
v -1.8169781 16.147568 3.794843
v -1.8117553 17.062576 1.9320066
v -1.5482193 16.569109 2.7808204
v -1.7061015 16.724417 2.9617481
v -1.9820415 16.729 3.036716
v -2.046775 17.84098 1.4496086
v -1.7521349 17.239307 2.1353462
v -1.8957225 17.35835 2.338684
v -2.1583388 17.350006 2.4229352
v -1.9785908 17.967056 1.6680968
v -2.1028483 18.0385 1.8865888
v -2.346696 18.013493 1.9771152
v -2.327846 18.762064 1.6088133
v -2.547517 18.720882 1.6987529
v -2.5688577 19.51792 1.4904776
v -2.7592506 19.466711 1.5721171
v -2.819533 20.278652 1.4977579
v -2.9751825 20.227327 1.5652542
v -3.0684311 20.998417 1.571486
v -3.1825838 20.957897 1.6209588
v -3.2996273 21.6151 1.6225722
v -3.4868977 22.029839 1.5310471
v -3.3635757 21.595438 1.6502488
v -3.4868977 22.029839 1.5310471
vt 0 0.625
vt 0.06666667 0.625
vt 0.06666667 0.5
vt 0.13333334 0.5
vt 0.13333334 0.625
vt 0.06666667 0.75
vt 0 0.75
vt 0.13333334 0.375
vt 0.06666667 0.375
vt 0 0.5
vt 0.2 0.5
vt 0.2 0.375
vt 0.13333334 0.75
vt 0.2 0.625
vt 0.06666667 0.875
vt 0 0.875
vt 0.13333334 0.25
vt 0.2 0.25
vt 0.06666667 0.25
vt 0 0.375
vt 0.26666668 0.375
vt 0.26666668 0.5
vt 0.26666668 0.25
vt 0.2 0.75
vt 0.13333334 0.875
vt 0.06666667 1
vt 0 1
vt 0.13333334 1
vt 0.2 0.875
vt 0.2 1
vt 0.26666668 0.625
vt 0.26666668 0.875
vt 0.26666668 1
vt 0.26666668 0.75
vt 0.33333334 0.875
vt 0.33333334 1
vt 0.33333334 0.75
vt 0.33333334 0.625
vt 0.33333334 0.5
vt 0.4 0.875
vt 0.4 1
vt 0.4 0.75
vt 0.4 0.625
vt 0.46666667 0.875
vt 0.46666667 1
vt 0.46666667 0.75
vt 0.53333336 0.875
vt 0.53333336 1
vt 0.33333334 0.375
vt 0.4 0.5
vt 0.46666667 0.625
vt 0.53333336 0.75
vt 0.6 0.875
vt 0.6 1
vt 0.33333334 0.25
vt 0.46666667 0.5
vt 0.53333336 0.625
vt 0.6 0.75
vt 0.6666667 0.875
vt 0.6666667 1
vt 0.53333336 0.5
vt 0.6 0.625
vt 0.6666667 0.75
vt 0.73333335 0.875
vt 0.73333335 1
vt 0.6 0.5
vt 0.6666667 0.625
vt 0.73333335 0.75
vt 0.8 0.875
vt 0.8 1
vt 0.6666667 0.5
vt 0.73333335 0.625
vt 0.8 0.75
vt 0.8666667 0.875
vt 0.8666667 1
vt 0.73333335 0.5
vt 0.8 0.625
vt 0.8666667 0.75
vt 0.93333334 0.875
vt 0.93333334 1
vt 1 0.875
vt 1 1
vt 1 0.75
vt 0.93333334 0.75
vt 1 0.625
vt 0.93333334 0.625
vt 1 0.5
vt 0.8666667 0.625
vt 0.93333334 0.5
vt 1 0.375
vt 0.8666667 0.5
vt 0.93333334 0.375
vt 1 0.25
vt 0.8 0.5
vt 0.8666667 0.375
vt 0.93333334 0.25
vt 1 0.125
vt 0.8 0.375
vt 0.8666667 0.25
vt 0.93333334 0.125
vt 1 0
vt 0.93333334 0
vt 0.8666667 0.125
vt 0.8666667 0
vt 0.73333335 0.375
vt 0.8 0.25
vt 0.8 0.125
vt 0.8 0
vt 0.6666667 0.375
vt 0.73333335 0.25
vt 0.73333335 0.125
vt 0.73333335 0
vt 0.6 0.375
vt 0.6666667 0.25
vt 0.6666667 0.125
vt 0.6666667 0
vt 0.53333336 0.375
vt 0.6 0.25
vt 0.6 0.125
vt 0.6 0
vt 0.46666667 0.375
vt 0.53333336 0.25
vt 0.53333336 0.125
vt 0.53333336 0
vt 0.4 0.375
vt 0.46666667 0.25
vt 0.46666667 0.125
vt 0.46666667 0
vt 0.4 0.25
vt 0.4 0.125
vt 0.4 0
vt 0.33333334 0.125
vt 0.33333334 0
vt 0.26666668 0.125
vt 0.26666668 0
vt 0.2 0.125
vt 0.2 0
vt 0.13333334 0.125
vt 0.13333334 0
vt 0.06666667 0.125
vt 0 0.25
vt 0.06666667 0
vt 0 0.125
vn -0.7198373 -0.026116673 -0.69365144
vn -0.7403419 -0.001410559 -0.6722291
vn -0.059737705 0.21042609 -0.9757829
vn -0.06860151 0.24164891 -0.9679358
vn -0.7310584 0.0066697844 -0.6822823
vn -0.9924683 -0.1167349 0.037145823
vn -0.99769574 -0.06740274 0.0077475486
vn 0.61850417 0.389798 -0.6822829
vn 0.630649 0.38780117 -0.6722292
vn -0.04259789 0.15005305 -0.9877599
vn -0.045161396 0.15908039 -0.9862322
vn 0.6347827 0.3229273 -0.7019751
vn -0.98380417 -0.17888556 0.011369402
vn -0.7097732 -0.05877894 -0.7019736
vn -0.69108194 -0.073635355 0.7190158
vn -0.721475 0.04646465 0.6908797
vn 0.9310466 0.36472327 0.011367686
vn 0.94101727 0.33829537 -0.006536151
vn 0.9057624 0.42215517 0.037141133
vn 0.6261853 0.35600603 -0.6936511
vn 0.6633638 0.21232611 -0.7175417
vn -0.003433772 0.012093186 -0.99992096
vn 0.9472584 0.3196931 -0.022313176
vn -0.9784017 -0.20660883 -0.006535265
vn -0.67480505 -0.20548286 0.7088123
vn -0.027665917 0.097448446 0.994856
vn -0.06970498 0.24552813 0.9668801
vn 0.016106198 -0.056736607 0.99825925
vn -0.68446267 -0.19645607 0.70207965
vn 0.00867613 -0.030565457 0.99949515
vn -0.675977 -0.16789952 -0.7175408
vn -0.7098487 -0.1236027 0.6934242
vn -0.023443053 0.082574725 0.9963091
vn -0.9739377 -0.22571537 -0.022312377
vn -0.7444848 -0.012799821 0.6675168
vn -0.07085793 0.24959159 0.9657552
vn -0.9692216 -0.24396987 -0.03298977
vn -0.6335999 -0.31032237 -0.70869684
vn 0.05145346 -0.18124788 -0.9820904
vn -0.7804954 0.11106786 0.6152161
vn -0.12323944 0.43410456 0.89239305
vn -0.96467453 -0.26109716 -0.035089713
vn -0.590115 -0.4626509 -0.661603
vn -0.81008327 0.22137803 0.54291517
vn -0.16896845 0.5951842 0.78562415
vn -0.9615786 -0.27298102 -0.029120577
vn -0.829708 0.30193338 0.46949
vn -0.20133244 0.70918804 0.67566085
vn 0.7021426 0.06888221 -0.7086967
vn 0.11021994 -0.38825414 -0.91493726
vn -0.55457616 -0.5937543 -0.5830104
vn -0.960455 -0.27772164 -0.019923767
vn -0.8398601 0.35106418 0.41399157
vn -0.22012897 0.7754015 0.59185785
vn 0.952837 0.30168402 -0.03299155
vn 0.16106085 -0.5673399 -0.80757964
vn -0.5316576 -0.68510795 -0.49796325
vn -0.96082944 -0.27690467 -0.01142209
vn -0.84159386 0.37277114 0.39084697
vn -0.22724369 0.8004652 0.5546313
vn 0.19694182 -0.6937277 -0.6927884
vn -0.52058107 -0.7369784 -0.4311127
vn -0.9621927 -0.27233756 -0.00416019
vn -0.832471 0.36425313 0.4175066
vn -0.22117728 0.7790977 0.5865897
vn 0.21780455 -0.7672135 -0.6032782
vn -0.5193988 -0.7560688 -0.39822716
vn -0.96452767 -0.26394132 0.0046108603
vn -0.7985831 0.29088175 0.5269278
vn -0.18738082 0.66004753 0.727479
vn 0.22606155 -0.79629725 -0.56107646
vn -0.52948934 -0.7408295 -0.41329494
vn -0.96766704 -0.25102466 0.024641
vn -0.71306986 0.038764764 0.7000205
vn -0.0859359 0.3027073 0.9492014
vn 0.22104046 -0.7786124 -0.5872851
vn -0.5625421 -0.66044104 -0.49735686
vn -0.9655095 -0.25115567 0.06864575
vn -0.59555566 -0.37299994 0.71146655
vn 0.07265662 -0.2559324 0.9639604
vn -0.5420539 -0.5652706 0.62180924
vn 0.1463749 -0.51560444 0.8442313
vn -0.95481646 -0.29474035 0.038127575
vn -0.95437306 -0.2902968 0.06999844
vn -0.79606014 0.17069711 -0.58064675
vn -0.76879954 -0.030000925 -0.6387857
vn -0.15046419 0.5300018 -0.83454096
vn -0.66102684 -0.41206887 -0.6270908
vn -0.0750199 0.26425415 -0.961531
vn 0.5876248 0.56351185 -0.58064735
vn 0.08986397 -0.31654435 -0.9443115
vn 0.66988474 0.37842762 -0.63878554
vn 0.9672573 0.2509171 0.03812881
vn 0.19066297 -0.6716065 -0.71595544
vn 0.7789398 -0.003276236 -0.6270903
vn 0.9645454 0.25446504 0.069998845
vn 0.7582105 -0.19613756 0.6218094
vn 0.82564884 -0.26634705 -0.49735627
vn 0.9534544 0.29361972 0.068645924
vn 0.7027057 -0.004435379 0.7114669
vn 0.1463749 -0.51560444 0.8442313
vn 0.07265662 -0.2559324 0.9639604
vn 0.58633566 0.40765455 0.7000203
vn -0.0859359 0.3027073 0.9492014
vn 0.8397649 -0.35211203 -0.41329408
vn 0.95522094 0.2948656 0.02464113
vn 0.5266223 0.6670958 0.5269271
vn -0.18738082 0.66004753 0.727479
vn 0.8391871 -0.37037918 -0.3982266
vn 0.9593371 0.28222507 0.0046112407
vn 0.5169054 0.7473269 0.41750604
vn -0.22117728 0.7790977 0.5865897
vn 0.8301619 -0.35351533 -0.43111247
vn 0.9617623 0.27385387 -0.0041603944
vn 0.5201916 0.7593677 0.39084718
vn -0.22724369 0.8004652 0.5546313
vn 0.812331 -0.30356324 -0.4979635
vn 0.96300197 0.2692524 -0.011421881
vn 0.5301213 0.7399883 0.41399133
vn -0.22012897 0.7754015 0.59185785
vn 0.78383076 -0.21379454 -0.5830105
vn 0.96311253 0.26836035 -0.019923955
vn 0.54729766 0.69285214 0.46949035
vn -0.20133244 0.70918804 0.67566085
vn 0.74518293 -0.083573304 -0.66160244
vn 0.96157765 0.2729844 -0.029121256
vn 0.5729271 0.61400145 0.5429151
vn -0.16896845 0.5951842 0.78562415
vn 0.9579674 0.28472295 -0.035090394
vn 0.6057148 0.50459975 0.6152143
vn -0.12323944 0.43410456 0.89239305
vn 0.64015996 0.38028708 0.6675155
vn -0.07085793 0.24959159 0.9657552
vn 0.6689084 0.26781258 0.6934248
vn -0.023443053 0.082574725 0.9963091
vn 0.6855879 0.19248709 0.70208114
vn 0.00867613 -0.030565457 0.99949515
vn 0.6821148 0.17973384 0.70881253
vn 0.016106198 -0.056736607 0.99825925
vn 0.62668806 0.3004678 0.71901405
vn 0.88428956 0.46687478 0.007741425
vn -0.027665917 0.097448446 0.994856
vn 0.58944404 0.4186226 0.69087684
g Corrupt King Monster Mount.014_0
f 3/3/3 2/2/2 1/1/1
f 3/3/3 4/4/4 2/2/2
f 4/4/4 5/5/5 2/2/2
f 2/2/2 5/5/5 6/6/6
f 2/2/2 6/6/6 7/7/7
f 8/8/8 4/4/4 3/3/3
f 9/9/9 8/8/8 3/3/3
f 9/9/9 3/3/3 10/10/10
f 4/4/4 11/11/11 5/5/5
f 8/8/8 12/12/12 4/4/4
f 12/12/12 11/11/11 4/4/4
f 5/5/5 13/13/13 6/6/6
f 11/11/11 14/14/14 5/5/5
f 5/5/5 14/14/14 13/13/13
f 6/6/6 13/13/13 15/15/15
f 6/6/6 15/15/15 16/16/16
f 17/17/17 8/8/8 9/9/9
f 18/18/18 12/12/12 8/8/8
f 17/17/17 18/18/18 8/8/8
f 19/19/19 17/17/17 9/9/9
f 19/19/19 9/9/9 20/20/20
f 12/12/12 21/21/21 11/11/11
f 11/11/11 22/22/22 14/14/14
f 21/21/21 22/22/22 11/11/11
f 18/18/18 23/23/23 12/12/12
f 23/23/23 21/21/21 12/12/12
f 14/14/14 24/24/24 13/13/13
f 13/13/13 25/25/25 15/15/15
f 13/13/13 24/24/24 25/25/25
f 15/15/15 25/25/25 26/26/26
f 15/15/15 26/26/26 27/27/27
f 25/25/25 28/28/28 26/26/26
f 25/25/25 29/29/29 28/28/28
f 24/24/24 29/29/29 25/25/25
f 29/29/29 30/30/30 28/28/28
f 14/14/14 31/31/31 24/24/24
f 22/22/22 31/31/31 14/14/14
f 29/29/29 32/32/32 30/30/30
f 32/32/32 33/33/33 30/30/30
f 24/24/24 34/34/34 29/29/29
f 31/31/31 34/34/34 24/24/24
f 34/34/34 32/32/32 29/29/29
f 32/32/32 35/35/35 33/33/33
f 35/35/35 36/36/36 33/33/33
f 34/34/34 37/37/37 32/32/32
f 37/37/37 35/35/35 32/32/32
f 31/31/31 38/38/38 34/34/34
f 38/38/38 37/37/37 34/34/34
f 22/22/22 39/39/39 31/31/31
f 39/39/39 38/38/38 31/31/31
f 35/35/35 40/40/40 36/36/36
f 40/40/40 41/41/41 36/36/36
f 37/37/37 42/42/42 35/35/35
f 42/42/42 40/40/40 35/35/35
f 38/38/38 43/43/43 37/37/37
f 43/43/43 42/42/42 37/37/37
f 40/40/40 44/44/44 41/41/41
f 44/44/44 45/45/45 41/41/41
f 42/42/42 46/46/46 40/40/40
f 46/46/46 44/44/44 40/40/40
f 44/44/44 47/47/47 45/45/45
f 47/47/47 48/48/48 45/45/45
f 49/49/49 39/39/39 22/22/22
f 21/21/21 49/49/49 22/22/22
f 39/39/39 50/50/50 38/38/38
f 50/50/50 43/43/43 38/38/38
f 43/43/43 51/51/51 42/42/42
f 51/51/51 46/46/46 42/42/42
f 46/46/46 52/52/52 44/44/44
f 52/52/52 47/47/47 44/44/44
f 47/47/47 53/53/53 48/48/48
f 53/53/53 54/54/54 48/48/48
f 55/55/55 49/49/49 21/21/21
f 23/23/23 55/55/55 21/21/21
f 50/50/50 56/56/56 43/43/43
f 56/56/56 51/51/51 43/43/43
f 51/51/51 57/57/57 46/46/46
f 57/57/57 52/52/52 46/46/46
f 52/52/52 58/58/58 47/47/47
f 58/58/58 53/53/53 47/47/47
f 53/53/53 59/59/59 54/54/54
f 59/59/59 60/60/60 54/54/54
f 56/56/56 61/61/61 51/51/51
f 61/61/61 57/57/57 51/51/51
f 57/57/57 62/62/62 52/52/52
f 62/62/62 58/58/58 52/52/52
f 58/58/58 63/63/63 53/53/53
f 63/63/63 59/59/59 53/53/53
f 59/59/59 64/64/64 60/60/60
f 64/64/64 65/65/65 60/60/60
f 61/61/61 66/66/66 57/57/57
f 66/66/66 62/62/62 57/57/57
f 62/62/62 67/67/67 58/58/58
f 67/67/67 63/63/63 58/58/58
f 63/63/63 68/68/68 59/59/59
f 68/68/68 64/64/64 59/59/59
f 64/64/64 69/69/69 65/65/65
f 69/69/69 70/70/70 65/65/65
f 66/66/66 71/71/71 62/62/62
f 71/71/71 67/67/67 62/62/62
f 67/67/67 72/72/72 63/63/63
f 72/72/72 68/68/68 63/63/63
f 68/68/68 73/73/73 64/64/64
f 73/73/73 69/69/69 64/64/64
f 69/69/69 74/74/74 70/70/70
f 74/74/74 75/75/75 70/70/70
f 71/71/71 76/76/76 67/67/67
f 76/76/76 72/72/72 67/67/67
f 72/72/72 77/77/77 68/68/68
f 77/77/77 73/73/73 68/68/68
f 73/73/73 78/78/78 69/69/69
f 78/78/78 74/74/74 69/69/69
f 74/74/74 79/79/79 75/75/75
f 79/79/79 80/80/80 75/75/75
f 79/79/79 81/81/81 80/80/80
f 81/81/81 82/82/82 80/80/80
f 83/83/83 81/81/81 79/79/79
f 84/84/84 79/79/79 74/74/74
f 84/84/84 83/83/83 79/79/79
f 78/78/78 84/84/84 74/74/74
f 85/85/85 83/83/83 84/84/84
f 86/86/86 85/85/85 84/84/84
f 86/86/86 84/84/84 78/78/78
f 87/87/87 85/85/85 86/86/86
f 88/88/88 78/78/78 73/73/73
f 88/88/88 86/86/86 78/78/78
f 77/77/77 88/88/88 73/73/73
f 89/89/89 87/87/87 86/86/86
f 89/89/89 86/86/86 88/88/88
f 90/90/90 87/87/87 89/89/89
f 91/91/91 88/88/88 77/77/77
f 91/91/91 89/89/89 88/88/88
f 92/92/92 90/90/90 89/89/89
f 92/92/92 89/89/89 91/91/91
f 93/93/93 90/90/90 92/92/92
f 94/94/94 91/91/91 77/77/77
f 94/94/94 77/77/77 72/72/72
f 76/76/76 94/94/94 72/72/72
f 95/95/95 92/92/92 91/91/91
f 95/95/95 91/91/91 94/94/94
f 96/96/96 93/93/93 92/92/92
f 96/96/96 92/92/92 95/95/95
f 97/97/97 93/93/93 96/96/96
f 98/98/98 94/94/94 76/76/76
f 98/98/98 95/95/95 94/94/94
f 99/99/99 96/96/96 95/95/95
f 99/99/99 95/95/95 98/98/98
f 100/100/100 97/97/97 96/96/96
f 100/100/100 96/96/96 99/99/99
f 101/101/101 97/97/97 100/100/100
f 102/102/102 101/101/101 100/100/100
f 102/102/102 100/100/100 103/103/103
f 103/103/103 100/100/100 99/99/99
f 104/104/104 102/102/102 103/103/103
f 105/105/105 98/98/98 76/76/76
f 105/105/105 76/76/76 71/71/71
f 106/106/106 99/99/99 98/98/98
f 103/103/103 99/99/99 106/106/106
f 106/106/106 98/98/98 105/105/105
f 104/104/104 103/103/103 107/107/107
f 107/107/107 103/103/103 106/106/106
f 108/108/108 104/104/104 107/107/107
f 109/109/109 105/105/105 71/71/71
f 109/109/109 71/71/71 66/66/66
f 110/110/110 106/106/106 105/105/105
f 107/107/107 106/106/106 110/110/110
f 110/110/110 105/105/105 109/109/109
f 108/108/108 107/107/107 111/111/111
f 111/111/111 107/107/107 110/110/110
f 112/112/112 108/108/108 111/111/111
f 113/113/113 109/109/109 66/66/66
f 113/113/113 66/66/66 61/61/61
f 114/114/114 110/110/110 109/109/109
f 111/111/111 110/110/110 114/114/114
f 114/114/114 109/109/109 113/113/113
f 112/112/112 111/111/111 115/115/115
f 115/115/115 111/111/111 114/114/114
f 116/116/116 112/112/112 115/115/115
f 117/117/117 113/113/113 61/61/61
f 117/117/117 61/61/61 56/56/56
f 118/118/118 114/114/114 113/113/113
f 115/115/115 114/114/114 118/118/118
f 118/118/118 113/113/113 117/117/117
f 116/116/116 115/115/115 119/119/119
f 119/119/119 115/115/115 118/118/118
f 120/120/120 116/116/116 119/119/119
f 121/121/121 117/117/117 56/56/56
f 121/121/121 56/56/56 50/50/50
f 122/122/122 118/118/118 117/117/117
f 119/119/119 118/118/118 122/122/122
f 122/122/122 117/117/117 121/121/121
f 120/120/120 119/119/119 123/123/123
f 123/123/123 119/119/119 122/122/122
f 124/124/124 120/120/120 123/123/123
f 125/125/125 121/121/121 50/50/50
f 125/125/125 50/50/50 39/39/39
f 49/49/49 125/125/125 39/39/39
f 126/126/126 122/122/122 121/121/121
f 123/123/123 122/122/122 126/126/126
f 126/126/126 121/121/121 125/125/125
f 124/124/124 123/123/123 127/127/127
f 127/127/127 123/123/123 126/126/126
f 128/128/128 124/124/124 127/127/127
f 129/129/129 125/125/125 49/49/49
f 129/129/129 126/126/126 125/125/125
f 127/127/127 126/126/126 129/129/129
f 55/55/55 129/129/129 49/49/49
f 128/128/128 127/127/127 130/130/130
f 130/130/130 127/127/127 129/129/129
f 130/130/130 129/129/129 55/55/55
f 131/131/131 128/128/128 130/130/130
f 132/132/132 130/130/130 55/55/55
f 131/131/131 130/130/130 132/132/132
f 132/132/132 55/55/55 23/23/23
f 133/133/133 131/131/131 132/132/132
f 134/134/134 132/132/132 23/23/23
f 133/133/133 132/132/132 134/134/134
f 134/134/134 23/23/23 18/18/18
f 135/135/135 133/133/133 134/134/134
f 136/136/136 134/134/134 18/18/18
f 135/135/135 134/134/134 136/136/136
f 136/136/136 18/18/18 17/17/17
f 137/137/137 135/135/135 136/136/136
f 138/138/138 136/136/136 17/17/17
f 137/137/137 136/136/136 138/138/138
f 138/138/138 17/17/17 19/19/19
f 139/139/139 137/137/137 138/138/138
f 140/140/140 138/138/138 19/19/19
f 139/139/139 138/138/138 140/140/140
f 140/140/140 19/19/19 141/141/141
f 142/142/142 139/139/139 140/140/140
f 142/142/142 140/140/140 143/143/143
