g Corrupt King Monster Mount.002
v 8.752404 10.562294 8.524086
v 8.464565 10.164612 8.091369
v 8.440123 10.103682 8.169531
v 7.862035 9.776344 7.496779
v 7.8127027 9.663149 7.6338277
v 7.1384506 9.334774 6.8296127
v 7.0753922 9.18354 7.018285
v 6.42706 8.785 6.1462765
v 6.3614607 8.610361 6.3823023
v 5.820866 8.094065 5.48748
v 5.7607 7.911801 5.7676997
v 5.3744173 7.244143 4.876807
v 5.321943 7.0690637 5.196673
v 5.111092 6.226829 4.32295
v 5.063382 6.068297 4.6749744
v 5.031246 5.0482736 3.826457
v 4.9840856 4.907866 4.2014475
v 5.1106305 3.7391887 3.3824635
v 5.061754 3.6124992 3.7718887
v 5.293855 2.3563104 2.9773316
v 5.243483 2.2353492 3.3742971
v 5.4908223 0.97537875 2.5839527
v 5.440718 0.8480828 2.982229
v 5.5712247 -0.3207655 2.1540873
v 5.521471 -0.4759798 2.5439668
v 5.333165 -1.4314923 1.6035993
v 5.265941 -1.6467247 1.9616339
v 4.5253277 -2.1103396 0.8727
v 4.3978634 -2.376161 1.1763963
v 3.015468 -2.1001601 -0.023293018
v 2.8228257 -2.3695588 0.2402587
v 3.0987964 -1.6852102 -0.018973589
v 4.4513535 -1.704021 0.78011584
v 3.0239441 -1.3677697 0.25079513
v 5.1139154 -1.1471996 1.379679
v 4.2192016 -1.3952107 0.95297647
v 2.834814 -1.333714 0.6279111
v 5.310297 -0.18102407 1.852485
v 4.7365346 -0.96038675 1.4211243
v 3.9649 -1.3647294 1.2899342
v 2.6421714 -1.6031132 0.8914629
v 5.232062 1.0485525 2.2598724
v 4.8914433 -0.13863897 1.8159091
v 4.4221077 -0.9804244 1.703555
v 3.8374362 -1.6305499 1.5936314
v 2.5588427 -2.0180645 0.8871434
v 5.038524 2.4159055 2.651749
v 4.81592 1.0247087 2.1999004
v 4.5600343 -0.21839094 2.0656712
v 4.3548827 -1.1956558 2.0615897
v 3.9114103 -2.0368686 1.6862152
v 2.6336951 -2.3355036 0.61737466
v 4.8567476 3.8157306 3.0665898
v 4.6269636 2.37919 2.588337
v 4.486182 0.917851 2.4390514
v 4.5102816 -0.37360573 2.4555516
v 4.574132 -1.4799485 2.2855098
v 4.1435623 -2.3456788 1.5133553
v 2.8228257 -2.3695588 0.2402587
v 4.3978634 -2.376161 1.1763963
v 4.9515133 -1.6667614 2.2440643
v 5.265941 -1.6467247 1.9616339
v 4.771207 -0.5133457 2.7571528
v 5.1900625 -0.55573225 2.7937298
v 5.521471 -0.4759798 2.5439668
v 4.436078 0.7905555 2.837328
v 5.11098 0.74122524 3.2213802
v 5.440718 0.8480828 2.982229
v 4.6948385 0.7173815 3.161408
v 4.300276 2.2677126 2.8241296
v 4.9167957 2.1238723 3.6100898
v 5.243483 2.2353492 3.3742971
v 4.5052366 2.0871606 3.54668
v 4.249904 2.1467519 3.221095
v 4.4487333 3.7972565 3.0093703
v 4.7386312 3.50987 4.00673
v 5.061754 3.6124992 3.7718887
v 4.1256104 3.6946273 3.2442112
v 4.3306165 3.4913974 3.949511
v 4.0767336 3.5679379 3.633637
v 4.7815504 5.163056 3.5314429
v 4.6675797 4.8240914 4.43674
v 4.9840856 4.907866 4.2014475
v 4.381175 5.1849513 3.489288
v 4.8754973 6.393232 4.061923
v 4.0646687 5.101176 3.7245793
v 5.1689053 7.4619393 4.662214
v 4.4945197 6.470013 4.044867
v 4.0175085 4.960769 4.099571
v 5.659845 8.345177 5.325072
v 4.825712 7.5948615 4.678668
v 4.1913457 6.4122443 4.2816753
v 4.2672048 4.8459883 4.394586
v 6.314131 9.039276 6.031818
v 5.3718863 8.518038 5.3756766
v 4.545891 7.5650945 4.9164376
v 4.1436357 6.2537103 4.633699
v 4.3792305 6.0873094 4.8947268
v 7.065335 9.560892 6.752345
v 6.088767 9.224243 6.10604
v 5.1256914 8.511444 5.6095734
v 4.493417 7.390019 5.236305
v 4.760208 6.010526 4.911782
v 5.063382 6.068297 4.6749744
v 7.814777 9.947008 7.4451175
v 6.89883 9.729441 6.831801
v 5.883004 9.2316 6.3253965
v 5.0655255 8.329182 5.8897924
v 4.6989293 7.1722226 5.450898
v 5.0421224 7.0392995 5.4344444
v 5.321943 7.0690637 5.196673
v 8.431526 10.2549305 8.057165
v 8.752404 10.562294 8.524086
v 7.698579 10.075176 7.509149
v 6.7364902 9.741728 7.021379
v 5.8174047 9.056961 6.5614233
v 5.226548 8.078072 6.052203
v 5.5145054 7.905208 6.0015965
v 5.7607 7.911801 5.7676997
v 8.36034 10.321737 8.086979
v 8.752404 10.562294 8.524086
v 7.5815215 10.085798 7.651323
v 6.6734314 9.590494 7.210051
v 5.930334 8.802685 6.6758823
v 6.155698 8.61772 6.60166
v 6.3614607 8.610361 6.3823023
v 8.292713 10.325909 8.163322
v 8.752404 10.562294 8.524086
v 7.53219 9.972607 7.7883725
v 6.746546 9.364374 7.2873173
v 6.9130516 9.1958275 7.207863
v 7.0753922 9.18354 7.018285
v 8.26827 10.26498 8.241487
v 8.752404 10.562294 8.524086
v 7.5794477 9.801939 7.840033
v 7.6956463 9.673775 7.7760024
v 7.8127027 9.663149 7.6338277
v 8.301309 10.174658 8.275688
v 8.752404 10.562294 8.524086
v 8.372496 10.107855 8.245876
v 8.752404 10.562294 8.524086
v 8.440123 10.103682 8.169531
v 8.752404 10.562294 8.524086
vt 0 0.875
vt 0.06666667 0.875
vt 0.06666667 1
vt 0.13333334 0.875
vt 0.13333334 1
vt 0.2 0.875
vt 0.2 1
vt 0.26666668 0.875
vt 0.26666668 1
vt 0.33333334 0.875
vt 0.33333334 1
vt 0.4 0.875
vt 0.4 1
vt 0.46666667 0.875
vt 0.46666667 1
vt 0.53333336 0.875
vt 0.53333336 1
vt 0.6 0.875
vt 0.6 1
vt 0.6666667 0.875
vt 0.6666667 1
vt 0.73333335 0.875
vt 0.73333335 1
vt 0.8 0.875
vt 0.8 1
vt 0.8666667 0.875
vt 0.8666667 1
vt 0.93333334 0.875
vt 0.93333334 1
vt 1 0.875
vt 1 1
vt 1 0.75
vt 0.93333334 0.75
vt 1 0.625
vt 0.8666667 0.75
vt 0.93333334 0.625
vt 1 0.5
vt 0.8 0.75
vt 0.8666667 0.625
vt 0.93333334 0.5
vt 1 0.375
vt 0.73333335 0.75
vt 0.8 0.625
vt 0.8666667 0.5
vt 0.93333334 0.375
vt 1 0.25
vt 0.6666667 0.75
vt 0.73333335 0.625
vt 0.8 0.5
vt 0.8666667 0.375
vt 0.93333334 0.25
vt 1 0.125
vt 0.6 0.75
vt 0.6666667 0.625
vt 0.73333335 0.5
vt 0.8 0.375
vt 0.8666667 0.25
vt 0.93333334 0.125
vt 1 0
vt 0.93333334 0
vt 0.8666667 0.125
vt 0.8666667 0
vt 0.8 0.25
vt 0.8 0.125
vt 0.8 0
vt 0.73333335 0.375
vt 0.73333335 0.125
vt 0.73333335 0
vt 0.73333335 0.25
vt 0.6666667 0.5
vt 0.6666667 0.125
vt 0.6666667 0
vt 0.6666667 0.25
vt 0.6666667 0.375
vt 0.6 0.625
vt 0.6 0.125
vt 0.6 0
vt 0.6 0.5
vt 0.6 0.25
vt 0.6 0.375
vt 0.53333336 0.75
vt 0.53333336 0.125
vt 0.53333336 0
vt 0.53333336 0.625
vt 0.46666667 0.75
vt 0.53333336 0.5
vt 0.4 0.75
vt 0.46666667 0.625
vt 0.53333336 0.375
vt 0.33333334 0.75
vt 0.4 0.625
vt 0.46666667 0.5
vt 0.53333336 0.25
vt 0.26666668 0.75
vt 0.33333334 0.625
vt 0.4 0.5
vt 0.46666667 0.375
vt 0.46666667 0.25
vt 0.2 0.75
vt 0.26666668 0.625
vt 0.33333334 0.5
vt 0.4 0.375
vt 0.46666667 0.125
vt 0.46666667 0
vt 0.13333334 0.75
vt 0.2 0.625
vt 0.26666668 0.5
vt 0.33333334 0.375
vt 0.4 0.25
vt 0.4 0.125
vt 0.4 0
vt 0.06666667 0.75
vt 0 0.75
vt 0.13333334 0.625
vt 0.2 0.5
vt 0.26666668 0.375
vt 0.33333334 0.25
vt 0.33333334 0.125
vt 0.33333334 0
vt 0.06666667 0.625
vt 0 0.625
vt 0.13333334 0.5
vt 0.2 0.375
vt 0.26666668 0.25
vt 0.26666668 0.125
vt 0.26666668 0
vt 0.06666667 0.5
vt 0 0.5
vt 0.13333334 0.375
vt 0.2 0.25
vt 0.2 0.125
vt 0.2 0
vt 0.06666667 0.375
vt 0 0.375
vt 0.13333334 0.25
vt 0.13333334 0.125
vt 0.13333334 0
vt 0.06666667 0.25
vt 0 0.25
vt 0.06666667 0.125
vt 0 0.125
vt 0.06666667 0
vt 0 0
vn 0.8944451 -0.23030151 -0.3833136
vn 0.832767 -0.31475785 -0.455441
vn 0.6496978 -0.7520624 0.110882826
vn 0.7519567 -0.36697865 -0.54762006
vn 0.5482277 -0.8361004 0.019554224
vn 0.7586435 -0.35374668 -0.54710454
vn 0.5665167 -0.8233 0.035155755
vn 0.80548733 -0.30633608 -0.5072951
vn 0.6405701 -0.76107633 0.10214081
vn 0.8666806 -0.22563401 -0.44492
vn 0.7347039 -0.648346 0.19964394
vn 0.9196321 -0.11772544 -0.37472314
vn 0.81543595 -0.49181896 0.30525115
vn 0.95007646 -0.0019163232 -0.31201142
vn 0.8608219 -0.32066905 0.39516708
vn 0.9589145 0.098461755 -0.26606065
vn 0.87274116 -0.17175941 0.45697007
vn 0.9568372 0.16755904 -0.2374586
vn 0.8679546 -0.069171935 0.49180275
vn 0.95495 0.19579971 -0.22300877
vn 0.8629093 -0.02589272 0.5046951
vn 0.9605608 0.16690992 -0.22240517
vn 0.86734045 -0.062967055 0.49371627
vn 0.9671551 0.034270227 -0.25186637
vn 0.87019855 -0.23951545 0.4305658
vn 0.8906276 -0.24440353 -0.38347015
vn 0.7606235 -0.606976 0.23028676
vn 0.6206309 -0.47100648 -0.6268734
vn 0.39441162 -0.9134208 -0.10050783
vn 0.4396462 -0.4995076 -0.74646056
vn 0.14983521 -0.95363355 -0.2610221
vn 0.49538124 0.25829172 -0.82938707
vn 0.5159815 0.2341653 -0.82397187
vn 0.2564078 0.87889737 -0.40223673
vn 0.5414687 0.2559062 -0.8008268
vn 0.10677474 0.8327559 -0.5432464
vn -0.13448147 0.9533986 0.27008507
vn 0.51708126 0.29242173 -0.8044355
vn -0.14230236 0.6221726 -0.76983845
vn -0.38740268 0.9158456 0.10557501
vn -0.44576406 0.44604424 0.7761049
vn 0.4969906 0.3020131 -0.8135038
vn -0.25084698 0.3744818 -0.8926585
vn -0.76703733 0.5957312 -0.23823951
vn -0.62330705 0.3826974 0.6819318
vn -0.48000196 -0.34298274 0.807441
vn 0.4862361 0.3046907 -0.818986
vn -0.26203126 0.25983053 -0.92942333
vn -0.87118727 0.22411579 -0.4368121
vn -0.87303334 0.17171374 0.45642874
vn -0.45780027 -0.36612195 0.81016886
vn -0.2201902 -0.9062633 0.36083663
vn 0.47886333 0.3081191 -0.8220417
vn -0.26713073 0.23716009 -0.93402153
vn -0.8674234 0.0637851 -0.49346542
vn -0.95530397 -0.05978027 0.289518
vn -0.43233645 -0.34439576 0.8333527
vn -0.038190406 -0.8771366 0.47872022
vn 0.14983521 -0.95363355 -0.2610221
vn 0.39441162 -0.9134208 -0.10050783
vn 0.23122416 -0.6508925 0.7231004
vn 0.7606235 -0.606976 0.23028676
vn -0.4587156 -0.30910793 0.833086
vn 0.29466006 -0.38028884 0.8766731
vn 0.87019855 -0.23951545 0.4305658
vn -0.9568772 -0.16850689 0.23662509
vn 0.27580136 -0.25520915 0.9267157
vn 0.86734045 -0.062967055 0.49371627
vn -0.47930136 -0.29982156 0.82484984
vn -0.8638979 0.03329444 -0.50256526
vn 0.26389393 -0.23020108 0.93667895
vn 0.8629093 -0.02589272 0.5046951
vn -0.4901014 -0.29717237 0.8194444
vn -0.9565631 -0.18784028 0.22294168
vn -0.27637294 0.27197078 -0.9217646
vn 0.26162174 -0.26100588 0.9292094
vn 0.8679546 -0.069171935 0.49180275
vn -0.86916727 0.082711935 -0.4875521
vn -0.4974122 -0.29370502 0.8162833
vn -0.9618247 -0.1505754 0.22851762
vn 0.47322732 0.31449404 -0.8228909
vn 0.260134 -0.33230108 0.9065905
vn 0.87274116 -0.17175941 0.45697007
vn -0.28318432 0.35174388 -0.89223474
vn 0.4708637 0.3243252 -0.82042706
vn -0.8724252 0.19374256 -0.44870713
vn 0.47515634 0.33529148 -0.8135147
vn -0.2737766 0.46729934 -0.84064126
vn -0.9652089 -0.06868966 0.25229648
vn 0.48767906 0.34249002 -0.8030378
vn -0.23304188 0.59917337 -0.7659521
vn -0.8550311 0.35307997 -0.37981096
vn -0.50291413 -0.28724718 0.81520945
vn 0.50589687 0.3432926 -0.79133976
vn -0.15832467 0.71761936 -0.67820036
vn -0.7979072 0.5342008 -0.27923757
vn -0.95297045 0.048610058 0.29913965
vn -0.5050687 -0.2772875 0.8173232
vn 0.5273633 0.34021655 -0.7785503
vn -0.06668798 0.8006821 -0.59536624
vn -0.6984342 0.69757175 -0.15994808
vn -0.9106583 0.18145633 0.37118065
vn 0.24824731 -0.43455842 0.8657553
vn 0.8608219 -0.32066905 0.39516708
vn 0.5548893 0.33931622 -0.7595804
vn 0.01749967 0.84684914 -0.5315453
vn -0.57916325 0.81390476 -0.046141453
vn -0.83616656 0.2997643 0.45931125
vn -0.50051594 -0.26616052 0.8237976
vn 0.21617992 -0.55136746 0.80576676
vn 0.81543595 -0.49181896 0.30525115
vn 0.60593563 0.34742165 -0.71563965
vn 0.61610645 0.39341366 -0.6823771
vn 0.07473027 0.86661106 -0.49335656
vn -0.47248554 0.8803451 0.041833255
vn -0.74635667 0.38170123 0.54521173
vn -0.48769745 -0.25877887 0.8337774
vn 0.16402629 -0.6587853 0.73423254
vn 0.7347039 -0.648346 0.19964394
vn 0.08269138 0.85918623 -0.50493675
vn 0.04481886 0.8576873 -0.5122146
vn -0.40633056 0.9091013 0.09181629
vn -0.6648134 0.42623734 0.6134696
vn -0.46904102 -0.2577073 0.8447411
vn 0.10581989 -0.7376461 0.66684353
vn 0.6405701 -0.76107633 0.10214081
vn -0.43188936 0.89897835 0.07286619
vn -0.47943863 0.87682045 0.036393683
vn -0.6101202 0.4444357 0.6559194
vn -0.44667187 -0.26022926 0.85601693
vn 0.063390814 -0.7823347 0.61962414
vn 0.5665167 -0.8233 0.035155755
vn -0.6130369 0.43030816 0.6625864
vn -0.6382432 0.43661863 0.6340424
vn -0.41682717 -0.2597006 0.8710974
vn 0.06336801 -0.79145944 0.607928
vn 0.5482277 -0.8361004 0.019554224
vn -0.35735252 -0.2463937 0.9008825
vn -0.33894393 -0.19531776 0.92030865
vn 0.16405071 -0.7269919 0.666761
vn 0.22920895 -0.6403931 0.7330483
vn 0.6496978 -0.7520624 0.110882826
vn 0.7326445 -0.65139174 0.19728382
g Corrupt King Monster Mount.002_0
f 3/3/3 2/2/2 1/1/1
f 4/4/4 2/2/2 3/3/3
f 5/5/5 4/4/4 3/3/3
f 6/6/6 4/4/4 5/5/5
f 7/7/7 6/6/6 5/5/5
f 8/8/8 6/6/6 7/7/7
f 9/9/9 8/8/8 7/7/7
f 10/10/10 8/8/8 9/9/9
f 11/11/11 10/10/10 9/9/9
f 12/12/12 10/10/10 11/11/11
f 13/13/13 12/12/12 11/11/11
f 14/14/14 12/12/12 13/13/13
f 15/15/15 14/14/14 13/13/13
f 16/16/16 14/14/14 15/15/15
f 17/17/17 16/16/16 15/15/15
f 18/18/18 16/16/16 17/17/17
f 19/19/19 18/18/18 17/17/17
f 20/20/20 18/18/18 19/19/19
f 21/21/21 20/20/20 19/19/19
f 22/22/22 20/20/20 21/21/21
f 23/23/23 22/22/22 21/21/21
f 24/24/24 22/22/22 23/23/23
f 25/25/25 24/24/24 23/23/23
f 26/26/26 24/24/24 25/25/25
f 27/27/27 26/26/26 25/25/25
f 28/28/28 26/26/26 27/27/27
f 29/29/29 28/28/28 27/27/27
f 30/30/30 28/28/28 29/29/29
f 31/31/31 30/30/30 29/29/29
f 30/30/30 32/32/32 28/28/28
f 32/32/32 33/33/33 28/28/28
f 28/28/28 33/33/33 26/26/26
f 32/32/32 34/34/34 33/33/33
f 26/26/26 35/35/35 24/24/24
f 33/33/33 35/35/35 26/26/26
f 34/34/34 36/36/36 33/33/33
f 33/33/33 36/36/36 35/35/35
f 34/34/34 37/37/37 36/36/36
f 24/24/24 38/38/38 22/22/22
f 35/35/35 38/38/38 24/24/24
f 36/36/36 39/39/39 35/35/35
f 35/35/35 39/39/39 38/38/38
f 37/37/37 40/40/40 36/36/36
f 36/36/36 40/40/40 39/39/39
f 37/37/37 41/41/41 40/40/40
f 38/38/38 42/42/42 22/22/22
f 22/22/22 42/42/42 20/20/20
f 39/39/39 43/43/43 38/38/38
f 38/38/38 43/43/43 42/42/42
f 40/40/40 44/44/44 39/39/39
f 39/39/39 44/44/44 43/43/43
f 41/41/41 45/45/45 40/40/40
f 40/40/40 45/45/45 44/44/44
f 41/41/41 46/46/46 45/45/45
f 42/42/42 47/47/47 20/20/20
f 20/20/20 47/47/47 18/18/18
f 43/43/43 48/48/48 42/42/42
f 42/42/42 48/48/48 47/47/47
f 44/44/44 49/49/49 43/43/43
f 43/43/43 49/49/49 48/48/48
f 45/45/45 50/50/50 44/44/44
f 44/44/44 50/50/50 49/49/49
f 46/46/46 51/51/51 45/45/45
f 45/45/45 51/51/51 50/50/50
f 46/46/46 52/52/52 51/51/51
f 47/47/47 53/53/53 18/18/18
f 18/18/18 53/53/53 16/16/16
f 48/48/48 54/54/54 47/47/47
f 47/47/47 54/54/54 53/53/53
f 49/49/49 55/55/55 48/48/48
f 48/48/48 55/55/55 54/54/54
f 50/50/50 56/56/56 49/49/49
f 49/49/49 56/56/56 55/55/55
f 51/51/51 57/57/57 50/50/50
f 50/50/50 57/57/57 56/56/56
f 52/52/52 58/58/58 51/51/51
f 51/51/51 58/58/58 57/57/57
f 52/52/52 59/59/59 58/58/58
f 59/59/59 60/60/60 58/58/58
f 58/58/58 60/60/60 61/61/61
f 58/58/58 61/61/61 57/57/57
f 60/60/60 62/62/62 61/61/61
f 57/57/57 63/63/63 56/56/56
f 57/57/57 61/61/61 63/63/63
f 61/61/61 62/62/62 64/64/64
f 61/61/61 64/64/64 63/63/63
f 62/62/62 65/65/65 64/64/64
f 56/56/56 66/66/66 55/55/55
f 56/56/56 63/63/63 66/66/66
f 64/64/64 65/65/65 67/67/67
f 65/65/65 68/68/68 67/67/67
f 63/63/63 64/64/64 69/69/69
f 63/63/63 69/69/69 66/66/66
f 64/64/64 67/67/67 69/69/69
f 55/55/55 66/66/66 70/70/70
f 55/55/55 70/70/70 54/54/54
f 67/67/67 68/68/68 71/71/71
f 68/68/68 72/72/72 71/71/71
f 69/69/69 67/67/67 73/73/73
f 67/67/67 71/71/71 73/73/73
f 66/66/66 69/69/69 74/74/74
f 66/66/66 74/74/74 70/70/70
f 69/69/69 73/73/73 74/74/74
f 54/54/54 70/70/70 75/75/75
f 54/54/54 75/75/75 53/53/53
f 71/71/71 72/72/72 76/76/76
f 72/72/72 77/77/77 76/76/76
f 70/70/70 74/74/74 78/78/78
f 70/70/70 78/78/78 75/75/75
f 73/73/73 71/71/71 79/79/79
f 71/71/71 76/76/76 79/79/79
f 74/74/74 73/73/73 80/80/80
f 74/74/74 80/80/80 78/78/78
f 73/73/73 79/79/79 80/80/80
f 53/53/53 75/75/75 81/81/81
f 53/53/53 81/81/81 16/16/16
f 16/16/16 81/81/81 14/14/14
f 76/76/76 77/77/77 82/82/82
f 77/77/77 83/83/83 82/82/82
f 75/75/75 78/78/78 84/84/84
f 75/75/75 84/84/84 81/81/81
f 81/81/81 85/85/85 14/14/14
f 81/81/81 84/84/84 85/85/85
f 14/14/14 85/85/85 12/12/12
f 78/78/78 80/80/80 86/86/86
f 78/78/78 86/86/86 84/84/84
f 85/85/85 87/87/87 12/12/12
f 12/12/12 87/87/87 10/10/10
f 84/84/84 88/88/88 85/85/85
f 84/84/84 86/86/86 88/88/88
f 85/85/85 88/88/88 87/87/87
f 80/80/80 89/89/89 86/86/86
f 80/80/80 79/79/79 89/89/89
f 87/87/87 90/90/90 10/10/10
f 10/10/10 90/90/90 8/8/8
f 88/88/88 91/91/91 87/87/87
f 87/87/87 91/91/91 90/90/90
f 86/86/86 92/92/92 88/88/88
f 86/86/86 89/89/89 92/92/92
f 88/88/88 92/92/92 91/91/91
f 79/79/79 93/93/93 89/89/89
f 79/79/79 76/76/76 93/93/93
f 76/76/76 82/82/82 93/93/93
f 90/90/90 94/94/94 8/8/8
f 8/8/8 94/94/94 6/6/6
f 91/91/91 95/95/95 90/90/90
f 90/90/90 95/95/95 94/94/94
f 92/92/92 96/96/96 91/91/91
f 91/91/91 96/96/96 95/95/95
f 89/89/89 97/97/97 92/92/92
f 89/89/89 93/93/93 97/97/97
f 92/92/92 97/97/97 96/96/96
f 93/93/93 82/82/82 98/98/98
f 93/93/93 98/98/98 97/97/97
f 94/94/94 99/99/99 6/6/6
f 6/6/6 99/99/99 4/4/4
f 95/95/95 100/100/100 94/94/94
f 94/94/94 100/100/100 99/99/99
f 96/96/96 101/101/101 95/95/95
f 95/95/95 101/101/101 100/100/100
f 97/97/97 102/102/102 96/96/96
f 97/97/97 98/98/98 102/102/102
f 96/96/96 102/102/102 101/101/101
f 82/82/82 103/103/103 98/98/98
f 82/82/82 83/83/83 103/103/103
f 83/83/83 104/104/104 103/103/103
f 99/99/99 105/105/105 4/4/4
f 4/4/4 105/105/105 2/2/2
f 100/100/100 106/106/106 99/99/99
f 99/99/99 106/106/106 105/105/105
f 101/101/101 107/107/107 100/100/100
f 100/100/100 107/107/107 106/106/106
f 102/102/102 108/108/108 101/101/101
f 101/101/101 108/108/108 107/107/107
f 98/98/98 109/109/109 102/102/102
f 98/98/98 103/103/103 109/109/109
f 102/102/102 109/109/109 108/108/108
f 103/103/103 104/104/104 110/110/110
f 103/103/103 110/110/110 109/109/109
f 104/104/104 111/111/111 110/110/110
f 105/105/105 112/112/112 2/2/2
f 2/2/2 112/112/112 113/113/113
f 106/106/106 114/114/114 105/105/105
f 105/105/105 114/114/114 112/112/112
f 107/107/107 115/115/115 106/106/106
f 106/106/106 115/115/115 114/114/114
f 108/108/108 116/116/116 107/107/107
f 107/107/107 116/116/116 115/115/115
f 109/109/109 117/117/117 108/108/108
f 109/109/109 110/110/110 117/117/117
f 108/108/108 117/117/117 116/116/116
f 110/110/110 111/111/111 118/118/118
f 110/110/110 118/118/118 117/117/117
f 111/111/111 119/119/119 118/118/118
f 114/114/114 120/120/120 112/112/112
f 112/112/112 120/120/120 121/121/121
f 115/115/115 122/122/122 114/114/114
f 114/114/114 122/122/122 120/120/120
f 116/116/116 123/123/123 115/115/115
f 115/115/115 123/123/123 122/122/122
f 117/117/117 124/124/124 116/116/116
f 117/117/117 118/118/118 124/124/124
f 116/116/116 124/124/124 123/123/123
f 118/118/118 119/119/119 125/125/125
f 118/118/118 125/125/125 124/124/124
f 119/119/119 126/126/126 125/125/125
f 122/122/122 127/127/127 120/120/120
f 120/120/120 127/127/127 128/128/128
f 123/123/123 129/129/129 122/122/122
f 122/122/122 129/129/129 127/127/127
f 124/124/124 130/130/130 123/123/123
f 124/124/124 125/125/125 130/130/130
f 123/123/123 130/130/130 129/129/129
f 125/125/125 126/126/126 131/131/131
f 125/125/125 131/131/131 130/130/130
f 126/126/126 132/132/132 131/131/131
f 129/129/129 133/133/133 127/127/127
f 127/127/127 133/133/133 134/134/134
f 130/130/130 135/135/135 129/129/129
f 130/130/130 131/131/131 135/135/135
f 129/129/129 135/135/135 133/133/133
f 131/131/131 132/132/132 136/136/136
f 131/131/131 136/136/136 135/135/135
f 132/132/132 137/137/137 136/136/136
f 135/135/135 138/138/138 133/133/133
f 135/135/135 136/136/136 138/138/138
f 133/133/133 138/138/138 139/139/139
f 136/136/136 137/137/137 140/140/140
f 136/136/136 140/140/140 138/138/138
f 138/138/138 140/140/140 141/141/141
f 137/137/137 142/142/142 140/140/140
f 140/140/140 142/142/142 143/143/143
