g Corrupt King Monster Mount.007
v -4.590478 -19.835833 1.5042005
v -4.420758 -19.17645 1.4004761
v -4.386244 -19.179646 1.4624906
v -3.9519744 -18.369587 1.3489904
v -4.0109024 -18.357655 1.2356104
v -3.4414425 -17.447332 1.1979654
v -3.5238075 -17.43552 1.0453175
v -2.9618611 -16.42872 1.0322584
v -3.0677357 -16.428165 0.8512107
v -2.5870554 -15.330045 0.8685802
v -2.7149243 -15.352961 0.6682993
v -2.3597836 -14.161895 0.71724933
v -2.5048757 -14.217785 0.5046072
v -2.2980456 -12.927269 0.58312744
v -2.4532866 -13.018359 0.3625081
v -2.40049 -11.631585 0.46770263
v -2.559688 -11.752441 0.2416663
v -2.6437893 -10.292334 0.3696872
v -2.8037305 -10.433416 0.13987787
v -2.9775002 -8.936888 0.28384256
v -3.1379242 -9.087263 0.05141598
v -3.3223858 -7.5931234 0.19963467
v -3.4852552 -7.739242 -0.034872472
v -3.567967 -6.2737594 0.09906033
v -3.735732 -6.3917713 -0.13864458
v -3.547342 -4.9698424 -0.0486342
v -3.7107677 -5.0152087 -0.29552713
v -3.0355618 -3.7980375 -0.27094927
v -3.1608791 -3.7561579 -0.53448594
v -1.8959895 -2.9538202 -0.57080007
v -1.9726918 -2.871274 -0.8476474
v -1.8234181 -3.3091764 -0.42793468
v -2.8456554 -4.0552464 -0.16020378
v -1.7974999 -3.729251 -0.50281334
v -3.2654257 -5.016432 0.022099853
v -2.702401 -4.3771696 -0.2671962
v -1.8333944 -3.9679909 -0.75149226
v -2.6896791 -4.5752416 -0.52917707
v -3.275431 -6.1448145 0.14829229
v -3.0301476 -5.1277175 -0.12484169
v -3.0412788 -7.395807 0.242966
v -3.0294757 -6.080481 -0.019870728
v -2.701477 -8.728161 0.32598102
v -2.979284 -5.238498 -0.40331045
v -2.8065896 -7.2628813 0.06965399
v -2.367437 -10.103961 0.41247317
v -2.9741275 -6.118417 -0.30685207
v -2.4715295 -8.58335 0.15306443
v -2.1234767 -11.4886265 0.5128478
v -2.755748 -7.272169 -0.2187086
v -2.1365447 -9.978648 0.24308872
v -2.0268128 -12.85091 0.632784
v -2.422313 -8.587244 -0.13354868
v -1.890903 -11.407311 0.3505761
v -2.1075652 -14.1629 0.77323246
v -2.0863175 -9.989763 -0.039174885
v -1.7984576 -12.834028 0.4823149
v -2.368763 -15.4000225 0.9304162
v -1.8389623 -11.435245 0.07600975
v -1.95132 -14.2104025 0.6396917
v -2.7863307 -16.541033 1.0958294
v -2.1879075 -15.52193 0.8175192
v -2.6439607 -16.699347 1.0046288
v -3.3090997 -17.56802 1.2562394
v -1.7467037 -12.886498 0.21992667
v -3.8588061 -18.466423 1.3936851
v -3.204303 -17.726925 1.1859571
v -4.3300858 -19.22499 1.4854769
v -4.590478 -19.835833 1.5042005
v -3.785971 -18.591469 1.3434793
v -1.9636623 -14.279911 0.39491388
v -2.1879075 -15.52193 0.8175192
v -2.2007976 -15.615404 0.59608114
v -2.6181202 -16.810925 0.8121347
v -4.2851787 -19.285957 1.4559524
v -4.590478 -19.835833 1.5042005
v -3.1884146 -17.830954 1.0283341
v -3.776117 -18.671473 1.2278175
v -4.277819 -19.326813 1.3912277
v -4.590478 -19.835833 1.5042005
v -1.9939586 -14.356187 0.18227307
v -2.278264 -15.647274 0.39580023
v -1.9019452 -12.977586 -0.0006926656
v -2.7239945 -16.810371 0.63108695
v -3.2707806 -17.819143 0.8756863
v -3.8350444 -18.659546 1.1144382
v -1.9981606 -11.556101 -0.15002725
v -4.312333 -19.323626 1.3292125
v -4.590478 -19.835833 1.5042005
v -2.24626 -10.130847 -0.26898554
v -2.5827377 -8.737618 -0.36597595
v -2.9186177 -7.418288 -0.45321575
v -3.1418934 -6.2364316 -0.544557
v -3.1427095 -5.2838645 -0.65020335
v -2.8149972 -4.533365 -0.7927145
v -1.9100972 -3.8854456 -1.0283395
v -1.8333944 -3.9679909 -0.75149226
v -1.9826679 -3.5300894 -1.1712049
v -3.0049033 -4.2761564 -0.90346
v -2.008587 -3.1100159 -1.0963277
v -3.4246259 -5.237277 -0.7209368
v -3.1481576 -3.9542332 -0.79646695
v -1.9726918 -2.871274 -0.8476474
v -3.1608791 -3.7561579 -0.53448594
v -3.6599042 -5.1259894 -0.57399523
v -3.7107677 -5.0152087 -0.29552713
v -3.4344273 -6.365374 -0.5937896
v -3.6803837 -6.429704 -0.42562595
v -3.735732 -6.3917713 -0.13864458
v -3.1997244 -7.6156044 -0.49654642
v -3.434413 -7.7485294 -0.32323506
v -3.4852552 -7.739242 -0.034872472
v -2.8587615 -8.946349 -0.40811375
v -3.0887074 -9.091157 -0.23519644
v -3.1379242 -9.087263 0.05141598
v -2.5226107 -10.31922 -0.31177017
v -2.7535038 -10.444531 -0.14238638
v -2.8037305 -10.433416 0.13987787
v -2.2751744 -11.699064 -0.19517174
v -2.5077481 -11.780375 -0.03290072
v -2.559688 -11.752441 0.2416663
v -2.1731777 -13.053948 -0.050349206
v -1.9939586 -14.356187 0.18227307
v -2.4015326 -13.070827 0.100119844
v -2.4532866 -13.018359 0.3625081
v -2.2461772 -14.355183 0.12628993
v -2.278264 -15.647274 0.39580023
v -2.4577885 -14.297849 0.25983065
v -2.5048757 -14.217785 0.5046072
v -2.4965565 -15.577299 0.33396488
v -2.6774113 -15.455387 0.44686064
v -2.7149243 -15.352961 0.6682993
v -2.8995252 -16.69806 0.5675154
v -3.0418944 -16.539743 0.6587159
v -3.0677357 -16.428165 0.8512107
v -3.403122 -17.698448 0.81741166
v -3.5079193 -17.539549 0.887694
v -3.5238075 -17.43552 1.0453175
v -3.9282131 -18.562706 1.0697435
v -4.0010476 -18.43766 1.1199487
v -4.0109024 -18.357655 1.2356104
v -4.368491 -19.278269 1.3062264
v -4.590478 -19.835833 1.5042005
v -4.4133987 -19.217316 1.3357515
v -4.590478 -19.835833 1.5042005
v -4.420758 -19.17645 1.4004761
v -4.590478 -19.835833 1.5042005
vt 0 1
vt 0.06666667 1
vt 0.06666667 0.875
vt 0.13333334 0.875
vt 0.13333334 1
vt 0.2 0.875
vt 0.2 1
vt 0.26666668 0.875
vt 0.26666668 1
vt 0.33333334 0.875
vt 0.33333334 1
vt 0.4 0.875
vt 0.4 1
vt 0.46666667 0.875
vt 0.46666667 1
vt 0.53333336 0.875
vt 0.53333336 1
vt 0.6 0.875
vt 0.6 1
vt 0.6666667 0.875
vt 0.6666667 1
vt 0.73333335 0.875
vt 0.73333335 1
vt 0.8 0.875
vt 0.8 1
vt 0.8666667 0.875
vt 0.8666667 1
vt 0.93333334 0.875
vt 0.93333334 1
vt 1 0.875
vt 1 1
vt 1 0.75
vt 0.93333334 0.75
vt 1 0.625
vt 0.8666667 0.75
vt 0.93333334 0.625
vt 1 0.5
vt 0.93333334 0.5
vt 0.8 0.75
vt 0.8666667 0.625
vt 0.73333335 0.75
vt 0.8 0.625
vt 0.6666667 0.75
vt 0.8666667 0.5
vt 0.73333335 0.625
vt 0.6 0.75
vt 0.8 0.5
vt 0.6666667 0.625
vt 0.53333336 0.75
vt 0.73333335 0.5
vt 0.6 0.625
vt 0.46666667 0.75
vt 0.6666667 0.5
vt 0.53333336 0.625
vt 0.4 0.75
vt 0.6 0.5
vt 0.46666667 0.625
vt 0.33333334 0.75
vt 0.53333336 0.5
vt 0.4 0.625
vt 0.26666668 0.75
vt 0.33333334 0.625
vt 0.26666668 0.625
vt 0.2 0.75
vt 0.46666667 0.5
vt 0.13333334 0.75
vt 0.2 0.625
vt 0.06666667 0.75
vt 0 0.875
vt 0.13333334 0.625
vt 0.4 0.5
vt 0.33333334 0.625
vt 0.33333334 0.5
vt 0.26666668 0.5
vt 0.06666667 0.625
vt 0 0.75
vt 0.2 0.5
vt 0.13333334 0.5
vt 0.06666667 0.5
vt 0 0.625
vt 0.4 0.375
vt 0.33333334 0.375
vt 0.46666667 0.375
vt 0.26666668 0.375
vt 0.2 0.375
vt 0.13333334 0.375
vt 0.53333336 0.375
vt 0.06666667 0.375
vt 0 0.5
vt 0.6 0.375
vt 0.6666667 0.375
vt 0.73333335 0.375
vt 0.8 0.375
vt 0.8666667 0.375
vt 0.93333334 0.375
vt 1 0.375
vt 1 0.5
vt 1 0.25
vt 0.93333334 0.25
vt 1 0.125
vt 0.8666667 0.25
vt 0.93333334 0.125
vt 1 0
vt 0.93333334 0
vt 0.8666667 0.125
vt 0.8666667 0
vt 0.8 0.25
vt 0.8 0.125
vt 0.8 0
vt 0.73333335 0.25
vt 0.73333335 0.125
vt 0.73333335 0
vt 0.6666667 0.25
vt 0.6666667 0.125
vt 0.6666667 0
vt 0.6 0.25
vt 0.6 0.125
vt 0.6 0
vt 0.53333336 0.25
vt 0.53333336 0.125
vt 0.53333336 0
vt 0.46666667 0.25
vt 0.4 0.375
vt 0.46666667 0.125
vt 0.46666667 0
vt 0.4 0.25
vt 0.33333334 0.375
vt 0.4 0.125
vt 0.4 0
vt 0.33333334 0.25
vt 0.33333334 0.125
vt 0.33333334 0
vt 0.26666668 0.25
vt 0.26666668 0.125
vt 0.26666668 0
vt 0.2 0.25
vt 0.2 0.125
vt 0.2 0
vt 0.13333334 0.25
vt 0.13333334 0.125
vt 0.13333334 0
vt 0.06666667 0.25
vt 0 0.375
vt 0.06666667 0.125
vt 0 0.25
vt 0.06666667 0
vt 0 0.125
vn -0.9554088 0.26606312 0.12808007
vn -0.92314655 0.3732744 0.092013955
vn -0.5665142 0.3216075 0.758703
vn -0.51570976 0.3977559 0.7588371
vn -0.88215727 0.46718687 0.059456512
vn -0.5138357 0.38684294 0.7657189
vn -0.8919954 0.44707564 0.066840895
vn -0.5320855 0.33399948 0.7780292
vn -0.92354506 0.37195155 0.09336301
vn -0.55071855 0.25440404 0.79497653
vn -0.95635897 0.261823 0.1297158
vn -0.5562984 0.16189161 0.8150603
vn -0.9766524 0.13324204 0.1685131
vn -0.54528433 0.07234485 0.8351235
vn -0.9790654 0.004687893 0.20349196
vn -0.52429456 -0.00091196067 0.85153645
vn -0.9672697 -0.10611508 0.23049669
vn -0.5047412 -0.05027772 0.86180544
vn -0.95092213 -0.18526274 0.24784015
vn -0.49781173 -0.07095025 0.8643781
vn -0.9412954 -0.22112118 0.25508526
vn -0.5143163 -0.052584153 0.85598695
vn -0.94825727 -0.19572805 0.24999726
vn -0.5611713 0.03677566 0.82688236
vn -0.97282505 -0.06676391 0.22170703
vn -0.58433604 0.25257266 0.77120584
vn -0.9626343 0.23228148 0.13921411
vn -0.44367737 0.5401308 0.7151287
vn -0.7701328 0.6378645 -0.004942566
vn -0.34188408 0.68821865 0.63989866
vn -0.4910469 0.7906864 0.36563376
vn 0.10509837 0.20307672 0.97350615
vn 0.105459064 0.13793978 0.9848102
vn 0.4617399 -0.34770125 0.816027
vn 0.12761287 0.11818143 0.9847579
vn 0.60644376 -0.30053344 0.73614234
vn 0.58266854 -0.6304627 0.51284885
vn 0.79457814 -0.6071458 -0.00442381
vn 0.15724806 0.11382414 0.9809777
vn 0.78071576 -0.07674004 0.6201564
vn 0.17718352 0.10971396 0.97804344
vn 0.818537 0.124554776 0.56078804
vn 0.1887928 0.107617006 0.97610235
vn 0.96560514 -0.21686594 -0.14344278
vn 0.8070549 0.2152314 0.5498527
vn 0.1961129 0.104388826 0.97500914
vn 0.9731141 0.06593674 -0.22068378
vn 0.8052302 0.23388939 0.54488546
vn 0.20007497 0.09927088 0.9747386
vn 0.9498936 0.1893883 -0.24866481
vn 0.815024 0.20687872 0.5412365
vn 0.21610194 0.0880958 0.97238827
vn 0.94268674 0.21627939 -0.25409636
vn 0.8285691 0.14543119 0.540669
vn 0.22597264 0.0824877 0.9706349
vn 0.9521848 0.18019801 -0.24672441
vn 0.8568302 0.033222657 0.5145273
vn 0.2019426 0.08346076 0.97583485
vn 0.96872085 0.09690989 -0.22844802
vn 0.8768528 -0.07346323 0.47511294
vn 0.16621669 0.08050988 0.98279715
vn 0.537118 -0.035665482 0.8427527
vn 0.75672567 -0.23797809 0.6088783
vn 0.14513516 0.07562175 0.9865176
vn 0.9829549 -0.04698508 -0.17774172
vn 0.11673187 0.06486341 0.9910431
vn 0.6817844 -0.2912118 0.6710929
vn 0.068123475 0.03348316 0.9971149
vn -0.5940763 0.23382612 0.76967436
vn 0.6403057 -0.3253214 0.6958265
vn 0.9791589 -0.1670637 -0.11548863
vn 0.96880597 -0.23385009 0.08203145
vn 0.95518744 -0.28292277 -0.087015636
vn 0.8993823 -0.43189687 -0.067650594
vn 0.63373727 -0.31962687 0.70442593
vn 0.06910537 0.0011208734 0.9976088
vn 0.84151757 -0.5392512 -0.032500353
vn 0.8048318 -0.59340024 -0.011051305
vn 0.8231923 -0.5673764 -0.02093828
vn 0.6618063 -0.30745316 0.6837287
vn 0.9476336 -0.18939745 -0.2571365
vn 0.9060877 -0.30739895 -0.2907077
vn 0.61819416 -0.10977572 -0.7783221
vn 0.5349898 -0.4073415 -0.74017483
vn 0.4645252 -0.47869182 -0.74503046
vn 0.42520052 -0.5213686 -0.73985076
vn 0.5458834 -0.015643457 -0.83771515
vn 0.41773745 -0.51224685 -0.750399
vn 0.8479186 -0.52888227 -0.036298964
vn 0.5193975 0.0409618 -0.8535505
vn 0.50247246 0.065879345 -0.8620796
vn 0.50482285 0.05119563 -0.8617035
vn 0.53044987 -0.027503792 -0.84727
vn 0.5297409 -0.22413658 -0.8180081
vn 0.38997823 -0.49704903 -0.77515113
vn 0.23309726 -0.6028558 -0.7630403
vn 0.4765305 -0.80091816 -0.36255857
vn -0.23095903 -0.034725644 -0.97234356
vn -0.2342495 -0.09147187 -0.9678637
vn -0.53801 0.4793722 -0.6933595
vn -0.22404124 -0.10077749 -0.9693551
vn -0.6659746 0.3336252 -0.6672121
vn -0.59622335 0.6232368 -0.5060571
vn -0.7701328 0.6378645 -0.004942566
vn -0.8235543 0.08303048 -0.5611276
vn -0.9626343 0.23228148 0.13921411
vn -0.20873311 -0.10394947 -0.9724325
vn -0.8360642 -0.12589729 -0.5339909
vn -0.97282505 -0.06676391 0.22170703
vn -0.19363078 -0.11028715 -0.97485584
vn -0.8119648 -0.22002639 -0.54064924
vn -0.94825727 -0.19572805 0.24999726
vn -0.1827286 -0.1130095 -0.97664696
vn -0.802384 -0.23921384 -0.5467693
vn -0.9412954 -0.22112118 0.25508526
vn -0.17433055 -0.11539455 -0.9779024
vn -0.80675 -0.21426922 -0.5506751
vn -0.95092213 -0.18526274 0.24784015
vn -0.16747874 -0.118916385 -0.9786775
vn -0.8165747 -0.15778159 -0.5552574
vn -0.9672697 -0.10611508 0.23049669
vn -0.16306153 -0.12365125 -0.9788367
vn 0.21239813 -0.17178674 -0.9619649
vn -0.82191974 -0.07799976 -0.56423753
vn -0.9790654 0.004687893 0.20349196
vn -0.16239442 -0.12889153 -0.9782714
vn 0.19417724 -0.23453979 -0.9525157
vn -0.8141148 0.013663091 -0.58054316
vn -0.9766524 0.13324204 0.1685131
vn -0.16650829 -0.1348009 -0.9767824
vn -0.7909207 0.10201067 -0.60335594
vn -0.95635897 0.261823 0.1297158
vn -0.17717326 -0.14179349 -0.9739119
vn -0.7595719 0.17302777 -0.6269863
vn -0.92354506 0.37195155 0.09336301
vn -0.19555628 -0.14976427 -0.9691896
vn -0.73449117 0.21754916 -0.6428026
vn -0.8919954 0.44707564 0.066840895
vn -0.22333029 -0.16219015 -0.9611545
vn -0.73497224 0.22571376 -0.63942873
vn -0.88215727 0.46718687 0.059456512
vn -0.27525425 -0.19259757 -0.9418818
vn 0.44454056 -0.49618167 -0.7457798
vn -0.7931704 0.15639469 -0.58857584
vn -0.27456155 -0.22281699 -0.93539757
vn -0.92314655 0.3732744 0.092013955
vn -0.8258808 0.084626555 -0.55745775
g Corrupt King Monster Mount.007_0
f 3/3/3 2/2/2 1/1/1
f 3/3/3 4/4/4 2/2/2
f 4/4/4 5/5/5 2/2/2
f 4/4/4 6/6/6 5/5/5
f 6/6/6 7/7/7 5/5/5
f 6/6/6 8/8/8 7/7/7
f 8/8/8 9/9/9 7/7/7
f 8/8/8 10/10/10 9/9/9
f 10/10/10 11/11/11 9/9/9
f 10/10/10 12/12/12 11/11/11
f 12/12/12 13/13/13 11/11/11
f 12/12/12 14/14/14 13/13/13
f 14/14/14 15/15/15 13/13/13
f 14/14/14 16/16/16 15/15/15
f 16/16/16 17/17/17 15/15/15
f 16/16/16 18/18/18 17/17/17
f 18/18/18 19/19/19 17/17/17
f 18/18/18 20/20/20 19/19/19
f 20/20/20 21/21/21 19/19/19
f 20/20/20 22/22/22 21/21/21
f 22/22/22 23/23/23 21/21/21
f 22/22/22 24/24/24 23/23/23
f 24/24/24 25/25/25 23/23/23
f 24/24/24 26/26/26 25/25/25
f 26/26/26 27/27/27 25/25/25
f 26/26/26 28/28/28 27/27/27
f 28/28/28 29/29/29 27/27/27
f 28/28/28 30/30/30 29/29/29
f 30/30/30 31/31/31 29/29/29
f 32/32/32 30/30/30 28/28/28
f 33/33/33 32/32/32 28/28/28
f 33/33/33 28/28/28 26/26/26
f 34/34/34 32/32/32 33/33/33
f 35/35/35 26/26/26 24/24/24
f 35/35/35 33/33/33 26/26/26
f 36/36/36 34/34/34 33/33/33
f 36/36/36 33/33/33 35/35/35
f 37/37/37 34/34/34 36/36/36
f 38/38/38 37/37/37 36/36/36
f 39/39/39 35/35/35 24/24/24
f 39/39/39 24/24/24 22/22/22
f 40/40/40 36/36/36 35/35/35
f 38/38/38 36/36/36 40/40/40
f 40/40/40 35/35/35 39/39/39
f 41/41/41 39/39/39 22/22/22
f 41/41/41 22/22/22 20/20/20
f 42/42/42 40/40/40 39/39/39
f 42/42/42 39/39/39 41/41/41
f 43/43/43 41/41/41 20/20/20
f 43/43/43 20/20/20 18/18/18
f 44/44/44 38/38/38 40/40/40
f 44/44/44 40/40/40 42/42/42
f 45/45/45 42/42/42 41/41/41
f 45/45/45 41/41/41 43/43/43
f 46/46/46 43/43/43 18/18/18
f 46/46/46 18/18/18 16/16/16
f 47/47/47 44/44/44 42/42/42
f 47/47/47 42/42/42 45/45/45
f 48/48/48 45/45/45 43/43/43
f 48/48/48 43/43/43 46/46/46
f 49/49/49 46/46/46 16/16/16
f 49/49/49 16/16/16 14/14/14
f 50/50/50 47/47/47 45/45/45
f 50/50/50 45/45/45 48/48/48
f 51/51/51 48/48/48 46/46/46
f 51/51/51 46/46/46 49/49/49
f 52/52/52 49/49/49 14/14/14
f 52/52/52 14/14/14 12/12/12
f 53/53/53 50/50/50 48/48/48
f 53/53/53 48/48/48 51/51/51
f 54/54/54 51/51/51 49/49/49
f 54/54/54 49/49/49 52/52/52
f 55/55/55 52/52/52 12/12/12
f 55/55/55 12/12/12 10/10/10
f 56/56/56 53/53/53 51/51/51
f 56/56/56 51/51/51 54/54/54
f 57/57/57 54/54/54 52/52/52
f 57/57/57 52/52/52 55/55/55
f 58/58/58 55/55/55 10/10/10
f 58/58/58 10/10/10 8/8/8
f 59/59/59 56/56/56 54/54/54
f 59/59/59 54/54/54 57/57/57
f 60/60/60 57/57/57 55/55/55
f 60/60/60 55/55/55 58/58/58
f 61/61/61 58/58/58 8/8/8
f 61/61/61 8/8/8 6/6/6
f 62/62/62 60/60/60 58/58/58
f 62/62/62 58/58/58 61/61/61
f 63/63/63 62/62/62 61/61/61
f 64/64/64 61/61/61 6/6/6
f 63/63/63 61/61/61 64/64/64
f 64/64/64 6/6/6 4/4/4
f 65/65/65 57/57/57 60/60/60
f 65/65/65 59/59/59 57/57/57
f 66/66/66 64/64/64 4/4/4
f 66/66/66 4/4/4 3/3/3
f 67/67/67 63/63/63 64/64/64
f 67/67/67 64/64/64 66/66/66
f 68/68/68 66/66/66 3/3/3
f 68/68/68 3/3/3 69/69/69
f 70/70/70 66/66/66 68/68/68
f 70/70/70 67/67/67 66/66/66
f 71/71/71 65/65/65 60/60/60
f 71/71/71 60/60/60 72/72/72
f 73/73/73 72/72/72 63/63/63
f 73/73/73 71/71/71 72/72/72
f 74/74/74 63/63/63 67/67/67
f 74/74/74 73/73/73 63/63/63
f 75/75/75 70/70/70 68/68/68
f 75/75/75 68/68/68 76/76/76
f 77/77/77 67/67/67 70/70/70
f 77/77/77 74/74/74 67/67/67
f 78/78/78 70/70/70 75/75/75
f 78/78/78 77/77/77 70/70/70
f 79/79/79 78/78/78 75/75/75
f 79/79/79 75/75/75 80/80/80
f 81/81/81 71/71/71 73/73/73
f 82/82/82 81/81/81 73/73/73
f 82/82/82 73/73/73 74/74/74
f 81/81/81 83/83/83 71/71/71
f 84/84/84 82/82/82 74/74/74
f 84/84/84 74/74/74 77/77/77
f 83/83/83 65/65/65 71/71/71
f 85/85/85 77/77/77 78/78/78
f 85/85/85 84/84/84 77/77/77
f 86/86/86 78/78/78 79/79/79
f 86/86/86 85/85/85 78/78/78
f 83/83/83 87/87/87 65/65/65
f 87/87/87 59/59/59 65/65/65
f 88/88/88 86/86/86 79/79/79
f 88/88/88 79/79/79 89/89/89
f 87/87/87 90/90/90 59/59/59
f 90/90/90 56/56/56 59/59/59
f 90/90/90 91/91/91 56/56/56
f 91/91/91 53/53/53 56/56/56
f 91/91/91 92/92/92 53/53/53
f 92/92/92 50/50/50 53/53/53
f 92/92/92 93/93/93 50/50/50
f 93/93/93 47/47/47 50/50/50
f 93/93/93 94/94/94 47/47/47
f 94/94/94 44/44/44 47/47/47
f 94/94/94 95/95/95 44/44/44
f 95/95/95 38/38/38 44/44/44
f 95/95/95 96/96/96 38/38/38
f 96/96/96 97/97/97 38/38/38
f 98/98/98 96/96/96 95/95/95
f 99/99/99 98/98/98 95/95/95
f 99/99/99 95/95/95 94/94/94
f 100/100/100 98/98/98 99/99/99
f 101/101/101 94/94/94 93/93/93
f 101/101/101 99/99/99 94/94/94
f 102/102/102 100/100/100 99/99/99
f 102/102/102 99/99/99 101/101/101
f 103/103/103 100/100/100 102/102/102
f 104/104/104 103/103/103 102/102/102
f 104/104/104 102/102/102 105/105/105
f 105/105/105 102/102/102 101/101/101
f 106/106/106 104/104/104 105/105/105
f 107/107/107 101/101/101 93/93/93
f 105/105/105 101/101/101 107/107/107
f 107/107/107 93/93/93 92/92/92
f 106/106/106 105/105/105 108/108/108
f 108/108/108 105/105/105 107/107/107
f 109/109/109 106/106/106 108/108/108
f 110/110/110 107/107/107 92/92/92
f 108/108/108 107/107/107 110/110/110
f 110/110/110 92/92/92 91/91/91
f 109/109/109 108/108/108 111/111/111
f 111/111/111 108/108/108 110/110/110
f 112/112/112 109/109/109 111/111/111
f 113/113/113 110/110/110 91/91/91
f 111/111/111 110/110/110 113/113/113
f 113/113/113 91/91/91 90/90/90
f 112/112/112 111/111/111 114/114/114
f 114/114/114 111/111/111 113/113/113
f 115/115/115 112/112/112 114/114/114
f 116/116/116 113/113/113 90/90/90
f 114/114/114 113/113/113 116/116/116
f 116/116/116 90/90/90 87/87/87
f 115/115/115 114/114/114 117/117/117
f 117/117/117 114/114/114 116/116/116
f 118/118/118 115/115/115 117/117/117
f 119/119/119 116/116/116 87/87/87
f 117/117/117 116/116/116 119/119/119
f 119/119/119 87/87/87 83/83/83
f 118/118/118 117/117/117 120/120/120
f 120/120/120 117/117/117 119/119/119
f 121/121/121 118/118/118 120/120/120
f 122/122/122 119/119/119 83/83/83
f 120/120/120 119/119/119 122/122/122
f 122/122/122 83/83/83 123/123/123
f 121/121/121 120/120/120 124/124/124
f 124/124/124 120/120/120 122/122/122
f 125/125/125 121/121/121 124/124/124
f 126/126/126 122/122/122 123/123/123
f 124/124/124 122/122/122 126/126/126
f 126/126/126 123/123/123 127/127/127
f 125/125/125 124/124/124 128/128/128
f 128/128/128 124/124/124 126/126/126
f 129/129/129 125/125/125 128/128/128
f 130/130/130 126/126/126 127/127/127
f 128/128/128 126/126/126 130/130/130
f 130/130/130 127/127/127 84/84/84
f 129/129/129 128/128/128 131/131/131
f 131/131/131 128/128/128 130/130/130
f 132/132/132 129/129/129 131/131/131
f 133/133/133 130/130/130 84/84/84
f 131/131/131 130/130/130 133/133/133
f 133/133/133 84/84/84 85/85/85
f 132/132/132 131/131/131 134/134/134
f 134/134/134 131/131/131 133/133/133
f 135/135/135 132/132/132 134/134/134
f 136/136/136 133/133/133 85/85/85
f 134/134/134 133/133/133 136/136/136
f 136/136/136 85/85/85 86/86/86
f 135/135/135 134/134/134 137/137/137
f 137/137/137 134/134/134 136/136/136
f 138/138/138 135/135/135 137/137/137
f 139/139/139 136/136/136 86/86/86
f 137/137/137 136/136/136 139/139/139
f 139/139/139 86/86/86 88/88/88
f 138/138/138 137/137/137 140/140/140
f 140/140/140 137/137/137 139/139/139
f 141/141/141 138/138/138 140/140/140
f 142/142/142 139/139/139 88/88/88
f 140/140/140 139/139/139 142/142/142
f 142/142/142 88/88/88 143/143/143
f 141/141/141 140/140/140 144/144/144
f 144/144/144 140/140/140 142/142/142
f 144/144/144 142/142/142 145/145/145
f 146/146/146 141/141/141 144/144/144
f 146/146/146 144/144/144 147/147/147
