g Crossbow
v -0.017779838 -0.21427171 0.097568676
v 0.0017678654 -0.19214894 0.10033812
v 0.027721822 -0.2142717 0.097568676
v -0.05166575 0.35739926 0.08580513
v -0.05166575 0.35739926 0.0026830994
v -0.039904617 0.86084384 0.012144003
v -0.018789744 0.86084384 0.079489894
v 0.03990467 -0.44153824 0.049448743
v 0.03990467 -0.44153824 -0.12273815
v -0.039904617 -0.44153824 -0.12273815
v -0.039904617 -0.44153824 0.049448743
v -0.018789744 0.86084384 0.079489894
v -0.039904617 0.86084384 0.012144003
v 0.03990467 0.86084384 0.012144003
v 0.01878977 0.86084384 0.079489894
v 0.06101323 -0.31098482 0.07789022
v 0.06101323 -0.31098482 -0.12428415
v 0.03990467 -0.44153824 -0.12273815
v 0.03990467 -0.44153824 0.049448743
v -0.06101315 -0.31098482 0.07789022
v 0.06101323 -0.31098482 0.07789022
v 0.03990467 -0.44153824 0.049448743
v -0.039904617 -0.44153824 0.049448743
v -0.06101315 -0.31098482 -0.12428415
v -0.039904617 -0.44153824 -0.12273815
v 0.03990467 -0.44153824 -0.12273815
v 0.06101323 -0.31098482 -0.12428415
v -0.039904617 0.86084384 0.012144003
v -0.05166575 0.35739926 0.0026830994
v 0.051665816 0.35739926 0.0026830994
v 0.03990467 0.86084384 0.012144003
v -0.018789744 0.86084384 0.079489894
v 0.01878977 0.86084384 0.079489894
v 0.051665816 0.35739926 0.08580513
v -0.05166575 0.35739926 0.08580513
v 0.066825196 -0.04033059 0.08109527
v -0.066825114 -0.04033059 0.08109527
v 0.01878977 0.86084384 0.079489894
v 0.03990467 0.86084384 0.012144003
v 0.051665816 0.35739926 0.0026830994
v 0.051665816 0.35739926 0.08580513
v -0.066825114 -0.04033059 0.08109527
v -0.066825114 -0.04033059 -0.031033698
v -0.05166575 0.35739926 0.0026830994
v -0.05166575 0.35739926 0.08580513
v -0.039904617 0.80610085 0.041673355
v 0.03990467 0.80610085 0.041673355
v 0.03990467 0.80610085 -0.022526871
v -0.039904617 0.80610085 -0.022526871
v -0.039904617 0.86845756 0.041673355
v -0.039904617 0.86845756 -0.022526871
v 0.03990467 0.86845756 -0.022526871
v 0.03990467 0.86845756 0.041673355
v -0.039904617 0.80610085 -0.022526871
v -0.4977959 0.68576086 -0.022526871
v -0.4977959 0.68576086 0.041673355
v -0.039904617 0.80610085 0.041673355
v 0.03990467 0.86845756 -0.022526871
v 0.49779654 0.74811757 -0.022526871
v 0.49779654 0.74811757 0.041673355
v 0.03990467 0.86845756 0.041673355
v 0.03990467 0.80610085 0.041673355
v 0.49779654 0.68576086 0.041673355
v 0.49779654 0.68576086 -0.022526871
v 0.03990467 0.80610085 -0.022526871
v -0.039904617 0.86845756 0.041673355
v -0.4977959 0.74811757 0.041673355
v -0.4977959 0.74811757 -0.022526871
v -0.039904617 0.86845756 -0.022526871
v 0.73566467 0.60741186 -0.022526871
v 0.9698369 0.36016122 -0.022526871
v 0.9698369 0.36016122 0.041673355
v 0.73566467 0.60741186 0.041673355
v -0.7356642 0.60741186 -0.022526871
v -0.9698363 0.36016122 -0.022526871
v -0.9698363 0.2978045 -0.022526871
v -0.7356642 0.54505515 -0.022526871
v -0.4977959 0.74811757 -0.022526871
v -0.4977959 0.68576086 -0.022526871
v -0.039904617 0.86845756 -0.022526871
v -0.039904617 0.80610085 -0.022526871
v 0.03990467 0.80610085 -0.022526871
v 0.03990467 0.86845756 -0.022526871
v 0.49779654 0.74811757 -0.022526871
v 0.49779654 0.68576086 -0.022526871
v 0.73566467 0.60741186 -0.022526871
v 0.73566467 0.54505515 -0.022526871
v 0.9698369 0.36016122 -0.022526871
v 0.9698369 0.2978045 -0.022526871
v -0.4977959 0.74811757 0.041673355
v -0.7356642 0.60741186 0.041673355
v -0.7356642 0.60741186 -0.022526871
v -0.4977959 0.74811757 -0.022526871
v -0.4977959 0.68576086 -0.022526871
v -0.7356642 0.54505515 -0.022526871
v -0.7356642 0.54505515 0.041673355
v -0.4977959 0.68576086 0.041673355
v 0.49779654 0.74811757 -0.022526871
v 0.73566467 0.60741186 -0.022526871
v 0.73566467 0.60741186 0.041673355
v 0.49779654 0.74811757 0.041673355
v 0.49779654 0.68576086 0.041673355
v 0.73566467 0.54505515 0.041673355
v 0.73566467 0.54505515 -0.022526871
v 0.49779654 0.68576086 -0.022526871
v -0.9698363 0.2978045 -0.022526871
v -0.9698363 0.36016122 -0.022526871
v -0.9698363 0.36016122 0.041673355
v -0.9698363 0.2978045 0.041673355
v 0.9698369 0.2978045 0.041673355
v 0.9698369 0.36016122 0.041673355
v 0.9698369 0.36016122 -0.022526871
v 0.9698369 0.2978045 -0.022526871
v 0.73566467 0.54505515 0.041673355
v 0.9698369 0.2978045 0.041673355
v 0.9698369 0.2978045 -0.022526871
v 0.73566467 0.54505515 -0.022526871
v 0.73566467 0.60741186 0.041673355
v 0.9698369 0.36016122 0.041673355
v 0.9698369 0.2978045 0.041673355
v 0.73566467 0.54505515 0.041673355
v 0.49779654 0.74811757 0.041673355
v 0.49779654 0.68576086 0.041673355
v 0.03990467 0.86845756 0.041673355
v 0.03990467 0.80610085 0.041673355
v -0.039904617 0.80610085 0.041673355
v -0.039904617 0.86845756 0.041673355
v -0.4977959 0.74811757 0.041673355
v -0.4977959 0.68576086 0.041673355
v -0.7356642 0.60741186 0.041673355
v -0.7356642 0.54505515 0.041673355
v -0.9698363 0.36016122 0.041673355
v -0.9698363 0.2978045 0.041673355
v -0.7356642 0.60741186 0.041673355
v -0.9698363 0.36016122 0.041673355
v -0.9698363 0.36016122 -0.022526871
v -0.7356642 0.60741186 -0.022526871
v -0.7356642 0.54505515 -0.022526871
v -0.9698363 0.2978045 -0.022526871
v -0.9698363 0.2978045 0.041673355
v -0.7356642 0.54505515 0.041673355
v -0.95117027 0.30774125 -0.014090795
v -0.93162256 0.3298641 -0.011321377
v -0.9425748 0.3331053 0.025037957
v -0.96212244 0.31098256 0.02226852
v -0.93162256 0.3298641 -0.011321377
v 0.01272007 -0.19539018 0.06397877
v 0.0017678654 -0.19214894 0.10033812
v -0.9425748 0.3331053 0.025037957
v -0.006827634 -0.21751295 0.061209347
v -0.95117027 0.30774125 -0.014090795
v -0.96212244 0.31098256 0.02226852
v -0.017779838 -0.21427171 0.097568676
v -0.93162256 0.3298641 -0.011321377
v -0.95117027 0.30774125 -0.014090795
v -0.006827634 -0.21751295 0.061209347
v 0.01272007 -0.19539018 0.06397877
v 0.0017678654 -0.19214894 0.10033812
v -0.017779838 -0.21427171 0.097568676
v -0.96212244 0.31098256 0.02226852
v -0.9425748 0.3331053 0.025037957
v 0.94156456 0.3298641 -0.011321377
v 0.9525168 0.3331053 0.025037957
v 0.0017678654 -0.19214894 0.10033812
v -0.002778113 -0.1953902 0.06397877
v 0.016769588 -0.21751294 0.061209347
v 0.027721822 -0.2142717 0.097568676
v 0.97206444 0.31098256 0.02226852
v 0.96111226 0.30774125 -0.014090795
v 0.94156456 0.3298641 -0.011321377
v -0.002778113 -0.1953902 0.06397877
v 0.016769588 -0.21751294 0.061209347
v 0.96111226 0.30774125 -0.014090795
v 0.0017678654 -0.19214894 0.10033812
v 0.9525168 0.3331053 0.025037957
v 0.97206444 0.31098256 0.02226852
v 0.027721822 -0.2142717 0.097568676
v -0.006827634 -0.21751295 0.061209347
v -0.017779838 -0.21427171 0.097568676
v 0.027721822 -0.2142717 0.097568676
v 0.016769588 -0.21751294 0.061209347
v -0.06101315 -0.31098482 0.07789022
v -0.06101315 -0.31098482 -0.12428415
v -0.066825114 -0.04033059 -0.031033698
v -0.066825114 -0.04033059 0.08109527
v -0.05166575 0.35739926 0.0026830994
v -0.066825114 -0.04033059 -0.031033698
v 0.066825196 -0.04033059 -0.031033698
v 0.051665816 0.35739926 0.0026830994
v 0.051665816 0.35739926 0.08580513
v 0.051665816 0.35739926 0.0026830994
v 0.066825196 -0.04033059 -0.031033698
v 0.066825196 -0.04033059 0.08109527
v -0.039904617 -0.44153824 0.049448743
v -0.039904617 -0.44153824 -0.12273815
v -0.06101315 -0.31098482 -0.12428415
v -0.06101315 -0.31098482 0.07789022
v -0.066825114 -0.04033059 -0.031033698
v -0.06101315 -0.31098482 -0.12428415
v 0.06101323 -0.31098482 -0.12428415
v 0.066825196 -0.04033059 -0.031033698
v -0.066825114 -0.04033059 0.08109527
v 0.066825196 -0.04033059 0.08109527
v 0.06101323 -0.31098482 0.07789022
v -0.06101315 -0.31098482 0.07789022
v 0.066825196 -0.04033059 0.08109527
v 0.066825196 -0.04033059 -0.031033698
v 0.06101323 -0.31098482 -0.12428415
v 0.06101323 -0.31098482 0.07789022
v -0.008908989 0.82299733 0.09059721
v 0.008908999 0.82299733 0.09059721
v 0.012472957 -0.19815533 0.09254697
v -0.012472939 -0.19815533 0.09254697
v 0.012472957 -0.198002 0.07959755
v 0.012472957 -0.19815533 0.09254697
v 0.008908999 0.82299733 0.09059721
v 0.008908999 0.82315075 0.07764779
v -0.012472939 -0.198002 0.07959755
v -0.012472939 -0.19815533 0.09254697
v 0.012472957 -0.19815533 0.09254697
v 0.012472957 -0.198002 0.07959755
v 0.008908999 0.82315075 0.07764779
v 0.008908999 0.82299733 0.09059721
v -0.008908989 0.82299733 0.09059721
v -0.008908989 0.82315075 0.07764779
v -0.008908989 0.82315075 0.07764779
v -0.008908989 0.82299733 0.09059721
v -0.012472939 -0.19815533 0.09254697
v -0.012472939 -0.198002 0.07959755
vt 0.625 0.75
vt 0.625 0.5
vt 0.625 0.75
vt 0.375 0.15461484
vt 0.375 0.15461484
vt 0.375 0.25
vt 0.375 0.25
vt 0.375 0.75
vt 0.375 0.75
vt 0.375 1
vt 0.375 1
vt 0.375 0.25
vt 0.375 0.25
vt 0.375 0.5
vt 0.375 0.5
vt 0.37500003 0.72473466
vt 0.37500003 0.72473466
vt 0.375 0.75
vt 0.375 0.75
vt 0.375 0.9242037
vt 0.37500003 0.72473466
vt 0.375 0.75
vt 0.375 1
vt 0.375 0.9242037
vt 0.375 1
vt 0.375 0.75
vt 0.37500003 0.72473466
vt 0.375 0.25
vt 0.375 0.5361554
vt 0.375 0.5953852
vt 0.375 0.5
vt 0.375 0.25
vt 0.375 0.5
vt 0.375 0.5953852
vt 0.375 0.53615546
vt 0.375 0.6723561
vt 0.375 0.7670682
vt 0.375 0.5
vt 0.375 0.5
vt 0.375 0.5953852
vt 0.375 0.5953852
vt 0.375 0.077643946
vt 0.375 0.077643946
vt 0.375 0.15461484
vt 0.375 0.15461484
vt 0.375 0.25
vt 0.375 0.5
vt 0.375 0.5
vt 0.375 0.25
vt 0.375 0.25
vt 0.375 0.25
vt 0.375 0.5
vt 0.375 0.5
vt 0.375 0.25
vt 0.375 0.25
vt 0.375 0.25
vt 0.375 0.25
vt 0.375 0.5
vt 0.375 0.5
vt 0.375 0.5
vt 0.375 0.5
vt 0.375 0.5
vt 0.375 0.5
vt 0.375 0.5
vt 0.375 0.5
vt 0.375 0.25
vt 0.375 0.25
vt 0.375 0.25
vt 0.375 0.25
vt 0.375 0.5
vt 0.375 0.5
vt 0.375 0.5
vt 0.375 0.5
vt 0.375 0.25
vt 0.375 0.25
vt 0.375 0.25
vt 0.375 0.25
vt 0.375 0.25
vt 0.375 0.25
vt 0.375 0.25
vt 0.375 0.25
vt 0.375 0.5
vt 0.375 0.5
vt 0.375 0.5
vt 0.375 0.5
vt 0.375 0.5
vt 0.375 0.5
vt 0.375 0.5
vt 0.375 0.5
vt 0.375 0.25
vt 0.375 0.25
vt 0.375 0.25
vt 0.375 0.25
vt 0.375 0.25
vt 0.375 0.25
vt 0.375 0.25
vt 0.375 0.25
vt 0.375 0.5
vt 0.375 0.5
vt 0.375 0.5
vt 0.375 0.5
vt 0.375 0.5
vt 0.375 0.5
vt 0.375 0.5
vt 0.375 0.5
vt 0.375 0.25
vt 0.375 0.25
vt 0.375 0.25
vt 0.375 0.25
vt 0.375 0.5
vt 0.375 0.5
vt 0.375 0.5
vt 0.375 0.5
vt 0.375 0.5
vt 0.375 0.5
vt 0.375 0.5
vt 0.375 0.5
vt 0.375 0.5
vt 0.375 0.5
vt 0.375 0.5
vt 0.375 0.5
vt 0.375 0.5
vt 0.375 0.5
vt 0.375 0.5
vt 0.375 0.5
vt 0.375 0.25
vt 0.375 0.25
vt 0.375 0.25
vt 0.375 0.25
vt 0.375 0.25
vt 0.375 0.25
vt 0.375 0.25
vt 0.375 0.25
vt 0.375 0.25
vt 0.375 0.25
vt 0.375 0.25
vt 0.375 0.25
vt 0.375 0.25
vt 0.375 0.25
vt 0.375 0.25
vt 0.375 0.25
vt 0.375 0
vt 0.375 0.25
vt 0.625 0.25
vt 0.625 0
vt 0.375 0.25
vt 0.375 0.5
vt 0.625 0.5
vt 0.625 0.25
vt 0.375 0.75
vt 0.375 1
vt 0.625 1
vt 0.625 0.75
vt 0.125 0.5
vt 0.125 0.75
vt 0.375 0.75
vt 0.375 0.5
vt 0.625 0.5
vt 0.625 0.75
vt 0.875 0.75
vt 0.875 0.5
vt 0.375 0.25
vt 0.625 0.25
vt 0.625 0.5
vt 0.375 0.5
vt 0.375 0.75
vt 0.625 0.75
vt 0.625 1
vt 0.375 1
vt 0.125 0.5
vt 0.375 0.5
vt 0.375 0.75
vt 0.125 0.75
vt 0.625 0.5
vt 0.875 0.5
vt 0.875 0.75
vt 0.625 0.75
vt 0.375 0.75
vt 0.625 0.75
vt 0.625 0.75
vt 0.375 0.75
vt 0.375 0.025265425
vt 0.375 0.025265427
vt 0.375 0.077643946
vt 0.375 0.077643946
vt 0.375 0.5361554
vt 0.375 0.76706815
vt 0.375 0.6723561
vt 0.375 0.5953852
vt 0.375 0.5953852
vt 0.375 0.5953852
vt 0.375 0.6723561
vt 0.375 0.6723561
vt 0.375 0
vt 0.375 0
vt 0.375 0.025265427
vt 0.375 0.025265425
vt 0.375 0.76706815
vt 0.375 0.9242037
vt 0.37500003 0.72473466
vt 0.375 0.6723561
vt 0.375 0.7670682
vt 0.375 0.6723561
vt 0.37500003 0.72473466
vt 0.375 0.9242037
vt 0.375 0.6723561
vt 0.375 0.6723561
vt 0.37500003 0.72473466
vt 0.37500003 0.72473466
vt 0.375 0.53615546
vt 0.375 0.5953852
vt 0.375 0.6723561
vt 0.375 0.7670682
vt 0.375 0.6723561
vt 0.375 0.6723561
vt 0.375 0.5953852
vt 0.375 0.5953852
vt 0.375 0.7670682
vt 0.375 0.7670682
vt 0.375 0.6723561
vt 0.375 0.6723561
vt 0.375 0.5953852
vt 0.375 0.5953852
vt 0.375 0.53615546
vt 0.375 0.53615546
vt 0.375 0.53615546
vt 0.375 0.53615546
vt 0.375 0.7670682
vt 0.375 0.7670682
vn -0 -0.12421565 0.9922552
vn -0 -0.12421565 0.9922552
vn -0 -0.12421565 0.9922552
vn -0.9893629 0.04342643 0.13883536
vn -0.9893629 0.04342643 0.13883536
vn -0.9893629 0.04342643 0.13883536
vn -0.9893629 0.04342643 0.13883536
vn -0 -1 0
vn -0 -1 0
vn -0 -1 0
vn -0 -1 0
vn -0 1 0
vn -0 1 0
vn -0 1 0
vn -0 1 0
vn 0.9871797 -0.15961234 0
vn 0.9871797 -0.15961234 0
vn 0.9871797 -0.15961234 0
vn 0.9871797 -0.15961234 0
vn -0 -0.21286051 0.9770826
vn -0 -0.21286051 0.9770826
vn -0 -0.21286051 0.9770826
vn -0 -0.21286051 0.9770826
vn -0 -0.01184103 -0.9999299
vn -0 -0.01184103 -0.9999299
vn -0 -0.01184103 -0.9999299
vn -0 -0.01184103 -0.9999299
vn -0 0.018789025 -0.9998235
vn -0 0.018789025 -0.9998235
vn -0 0.018789025 -0.9998235
vn -0 0.018789025 -0.9998235
vn -0 0.012543071 0.9999213
vn -0 0.012543071 0.9999213
vn -0 0.012543071 0.9999213
vn -0 0.012543071 0.9999213
vn -0 -0.011841033 0.9999299
vn -0 -0.011841033 0.9999299
vn 0.9893629 0.043426484 0.13883555
vn 0.9893629 0.043426484 0.13883555
vn 0.9893629 0.043426484 0.13883555
vn 0.9893629 0.043426484 0.13883555
vn -0.99927443 0.038087077 0
vn -0.99927443 0.038087077 0
vn -0.99927443 0.038087077 0
vn -0.99927443 0.038087077 0
vn -0 -1 0
vn -0 -1 0
vn -0 -1 0
vn -0 -1 0
vn -0 1 0
vn -0 1 0
vn -0 1 0
vn -0 1 0
vn 0.2541817 -0.9671564 0
vn 0.2541817 -0.9671564 0
vn 0.2541817 -0.9671564 0
vn 0.2541817 -0.9671564 0
vn 0.25418144 0.9671565 0
vn 0.25418144 0.9671565 0
vn 0.25418144 0.9671565 0
vn 0.25418144 0.9671565 0
vn -0.25418144 -0.9671565 0
vn -0.25418144 -0.9671565 0
vn -0.25418144 -0.9671565 0
vn -0.25418144 -0.9671565 0
vn -0.2541817 0.9671564 0
vn -0.2541817 0.9671564 0
vn -0.2541817 0.9671564 0
vn -0.2541817 0.9671564 0
vn 0.72604823 0.6876437 0
vn 0.72604823 0.6876437 0
vn 0.72604823 0.6876437 0
vn 0.72604823 0.6876437 0
vn -0 0 -1
vn -0 0 -1
vn -0 0 -1
vn -0 0 -1
vn -0 0 -1
vn -0 0 -1
vn -0 0 -1
vn -0 0 -1
vn -0 0 -1
vn -0 0 -1
vn -0 0 -1
vn -0 0 -1
vn -0 0 -1
vn -0 0 -1
vn -0 0 -1
vn -0 0 -1
vn -0.50912404 0.86069316 0
vn -0.50912404 0.86069316 0
vn -0.50912404 0.86069316 0
vn -0.50912404 0.86069316 0
vn 0.50912404 -0.86069316 0
vn 0.50912404 -0.86069316 0
vn 0.50912404 -0.86069316 0
vn 0.50912404 -0.86069316 0
vn 0.5091242 0.86069304 0
vn 0.5091242 0.86069304 0
vn 0.5091242 0.86069304 0
vn 0.5091242 0.86069304 0
vn -0.5091242 -0.86069304 0
vn -0.5091242 -0.86069304 0
vn -0.5091242 -0.86069304 0
vn -0.5091242 -0.86069304 0
vn -1 0 0
vn -1 0 0
vn -1 0 0
vn -1 0 0
vn 1 0 0
vn 1 0 0
vn 1 0 0
vn 1 0 0
vn -0.72604823 -0.6876437 0
vn -0.72604823 -0.6876437 0
vn -0.72604823 -0.6876437 0
vn -0.72604823 -0.6876437 0
vn -0 0 1
vn -0 0 1
vn -0 0 1
vn -0 0 1
vn -0 0 1
vn -0 0 1
vn -0 0 1
vn -0 0 1
vn -0 0 1
vn -0 0 1
vn -0 0 1
vn -0 0 1
vn -0 0 1
vn -0 0 1
vn -0 0 1
vn -0 0 1
vn -0.7260485 0.68764347 0
vn -0.7260485 0.68764347 0
vn -0.7260485 0.68764347 0
vn -0.7260485 0.68764347 0
vn 0.7260485 -0.68764347 0
vn 0.7260485 -0.68764347 0
vn 0.7260485 -0.68764347 0
vn 0.7260485 -0.68764347 0
vn -0.70434153 0.656235 -0.27066344
vn -0.70434153 0.656235 -0.27066344
vn -0.70434153 0.656235 -0.27066344
vn -0.70434153 0.656235 -0.27066344
vn 0.48090982 0.8742117 0.06692975
vn 0.48090982 0.8742117 0.06692975
vn 0.48090982 0.8742117 0.06692975
vn 0.48090982 0.8742117 0.06692975
vn -0.4809099 -0.87421185 -0.066928074
vn -0.4809099 -0.87421185 -0.066928074
vn -0.4809099 -0.87421185 -0.066928074
vn -0.4809099 -0.87421185 -0.066928074
vn 0.09958274 0.03648651 -0.99436015
vn 0.09958274 0.03648651 -0.99436015
vn 0.09958274 0.03648651 -0.99436015
vn 0.09958274 0.03648651 -0.99436015
vn -0.09958332 -0.03648719 0.99436
vn -0.09958332 -0.03648719 0.99436
vn -0.09958332 -0.03648719 0.99436
vn -0.09958332 -0.03648719 0.99436
vn -0.48315576 0.8751787 0.02495589
vn -0.48315576 0.8751787 0.02495589
vn -0.48315576 0.8751787 0.02495589
vn -0.48315576 0.8751787 0.02495589
vn 0.4809098 -0.87421185 -0.06692814
vn 0.4809098 -0.87421185 -0.06692814
vn 0.4809098 -0.87421185 -0.06692814
vn 0.4809098 -0.87421185 -0.06692814
vn -0.099582724 0.036486562 -0.99436015
vn -0.099582724 0.036486562 -0.99436015
vn -0.099582724 0.036486562 -0.99436015
vn -0.099582724 0.036486562 -0.99436015
vn 0.09435386 -0.027546471 0.99515754
vn 0.09435386 -0.027546471 0.99515754
vn 0.09435386 -0.027546471 0.99515754
vn 0.09435386 -0.027546471 0.99515754
vn -0 -0.9960502 0.08879265
vn -0 -0.9960502 0.08879265
vn -0 -0.9960502 0.08879265
vn -0 -0.9960502 0.08879265
vn -0.9997695 -0.02146883 0
vn -0.9997695 -0.02146883 0
vn -0.9997695 -0.02146883 0
vn -0.9997695 -0.02146883 0
vn -0 0.08447012 -0.9964259
vn -0 0.08447012 -0.9964259
vn -0 0.08447012 -0.9964259
vn -0 0.08447012 -0.9964259
vn 0.99927443 0.03808712 0
vn 0.99927443 0.03808712 0
vn 0.99927443 0.03808712 0
vn 0.99927443 0.03808712 0
vn -0.9871798 -0.15961218 0
vn -0.9871798 -0.15961218 0
vn -0.9871798 -0.15961218 0
vn -0.9871798 -0.15961218 0
vn -0 0.32574534 -0.9454575
vn -0 0.32574534 -0.9454575
vn -0 0.32574534 -0.9454575
vn -0 0.32574534 -0.9454575
vn -0 -0.011841046 0.9999299
vn -0 -0.011841046 0.9999299
vn -0 -0.011841046 0.9999299
vn -0 -0.011841046 0.9999299
vn 0.9997695 -0.021468852 0
vn 0.9997695 -0.021468852 0
vn 0.9997695 -0.021468852 0
vn 0.9997695 -0.021468852 0
vn -0 0.0019093656 0.9999982
vn -0 0.0019093656 0.9999982
vn -0 0.0019093656 0.9999982
vn -0 0.0019093656 0.9999982
vn 0.9999939 0.0034901907 4.1343224E-05
vn 0.9999939 0.0034901907 4.1343224E-05
vn 0.9999939 0.0034901907 4.1343224E-05
vn 0.9999939 0.0034901907 4.1343224E-05
vn -0 -0.9999299 -0.0118398145
vn -0 -0.9999299 -0.0118398145
vn -0 -0.9999299 -0.0118398145
vn -0 -0.9999299 -0.0118398145
vn -0 0.9999299 0.011845917
vn -0 0.9999299 0.011845917
vn -0 0.9999299 0.011845917
vn -0 0.9999299 0.011845917
vn -0.9999939 0.0034901828 4.1343224E-05
vn -0.9999939 0.0034901828 4.1343224E-05
vn -0.9999939 0.0034901828 4.1343224E-05
vn -0.9999939 0.0034901828 4.1343224E-05
g Crossbow_0
f 3/3/3 2/2/2 1/1/1
f 6/6/6 5/5/5 4/4/4
f 7/7/7 6/6/6 4/4/4
f 10/10/10 9/9/9 8/8/8
f 11/11/11 10/10/10 8/8/8
f 14/14/14 13/13/13 12/12/12
f 15/15/15 14/14/14 12/12/12
f 18/18/18 17/17/17 16/16/16
f 19/19/19 18/18/18 16/16/16
f 22/22/22 21/21/21 20/20/20
f 23/23/23 22/22/22 20/20/20
f 26/26/26 25/25/25 24/24/24
f 27/27/27 26/26/26 24/24/24
f 30/30/30 29/29/29 28/28/28
f 31/31/31 30/30/30 28/28/28
f 34/34/34 33/33/33 32/32/32
f 35/35/35 34/34/34 32/32/32
f 36/36/36 34/34/34 35/35/35
f 37/37/37 36/36/36 35/35/35
f 40/40/40 39/39/39 38/38/38
f 41/41/41 40/40/40 38/38/38
f 44/44/44 43/43/43 42/42/42
f 45/45/45 44/44/44 42/42/42
f 48/48/48 47/47/47 46/46/46
f 49/49/49 48/48/48 46/46/46
f 52/52/52 51/51/51 50/50/50
f 53/53/53 52/52/52 50/50/50
f 56/56/56 55/55/55 54/54/54
f 57/57/57 56/56/56 54/54/54
f 60/60/60 59/59/59 58/58/58
f 61/61/61 60/60/60 58/58/58
f 64/64/64 63/63/63 62/62/62
f 65/65/65 64/64/64 62/62/62
f 68/68/68 67/67/67 66/66/66
f 69/69/69 68/68/68 66/66/66
f 72/72/72 71/71/71 70/70/70
f 73/73/73 72/72/72 70/70/70
f 76/76/76 75/75/75 74/74/74
f 77/77/77 76/76/76 74/74/74
f 77/77/77 74/74/74 78/78/78
f 79/79/79 77/77/77 78/78/78
f 79/79/79 78/78/78 80/80/80
f 81/81/81 79/79/79 80/80/80
f 81/81/81 80/80/80 82/82/82
f 80/80/80 83/83/83 82/82/82
f 83/83/83 84/84/84 82/82/82
f 84/84/84 85/85/85 82/82/82
f 84/84/84 86/86/86 85/85/85
f 86/86/86 87/87/87 85/85/85
f 86/86/86 88/88/88 87/87/87
f 88/88/88 89/89/89 87/87/87
f 92/92/92 91/91/91 90/90/90
f 93/93/93 92/92/92 90/90/90
f 96/96/96 95/95/95 94/94/94
f 97/97/97 96/96/96 94/94/94
f 100/100/100 99/99/99 98/98/98
f 101/101/101 100/100/100 98/98/98
f 104/104/104 103/103/103 102/102/102
f 105/105/105 104/104/104 102/102/102
f 108/108/108 107/107/107 106/106/106
f 109/109/109 108/108/108 106/106/106
f 112/112/112 111/111/111 110/110/110
f 113/113/113 112/112/112 110/110/110
f 116/116/116 115/115/115 114/114/114
f 117/117/117 116/116/116 114/114/114
f 120/120/120 119/119/119 118/118/118
f 121/121/121 120/120/120 118/118/118
f 121/121/121 118/118/118 122/122/122
f 123/123/123 121/121/121 122/122/122
f 123/123/123 122/122/122 124/124/124
f 125/125/125 123/123/123 124/124/124
f 125/125/125 124/124/124 126/126/126
f 124/124/124 127/127/127 126/126/126
f 127/127/127 128/128/128 126/126/126
f 128/128/128 129/129/129 126/126/126
f 128/128/128 130/130/130 129/129/129
f 130/130/130 131/131/131 129/129/129
f 130/130/130 132/132/132 131/131/131
f 132/132/132 133/133/133 131/131/131
f 136/136/136 135/135/135 134/134/134
f 137/137/137 136/136/136 134/134/134
f 140/140/140 139/139/139 138/138/138
f 141/141/141 140/140/140 138/138/138
f 144/144/144 143/143/143 142/142/142
f 145/145/145 144/144/144 142/142/142
f 148/148/148 147/147/147 146/146/146
f 149/149/149 148/148/148 146/146/146
f 152/152/152 151/151/151 150/150/150
f 153/153/153 152/152/152 150/150/150
f 156/156/156 155/155/155 154/154/154
f 157/157/157 156/156/156 154/154/154
f 160/160/160 159/159/159 158/158/158
f 161/161/161 160/160/160 158/158/158
f 164/164/164 163/163/163 162/162/162
f 165/165/165 164/164/164 162/162/162
f 168/168/168 167/167/167 166/166/166
f 169/169/169 168/168/168 166/166/166
f 172/172/172 171/171/171 170/170/170
f 173/173/173 172/172/172 170/170/170
f 176/176/176 175/175/175 174/174/174
f 177/177/177 176/176/176 174/174/174
f 180/180/180 179/179/179 178/178/178
f 181/181/181 180/180/180 178/178/178
f 184/184/184 183/183/183 182/182/182
f 185/185/185 184/184/184 182/182/182
f 188/188/188 187/187/187 186/186/186
f 189/189/189 188/188/188 186/186/186
f 192/192/192 191/191/191 190/190/190
f 193/193/193 192/192/192 190/190/190
f 196/196/196 195/195/195 194/194/194
f 197/197/197 196/196/196 194/194/194
f 200/200/200 199/199/199 198/198/198
f 201/201/201 200/200/200 198/198/198
f 204/204/204 203/203/203 202/202/202
f 205/205/205 204/204/204 202/202/202
f 208/208/208 207/207/207 206/206/206
f 209/209/209 208/208/208 206/206/206
f 212/212/212 211/211/211 210/210/210
f 213/213/213 212/212/212 210/210/210
f 216/216/216 215/215/215 214/214/214
f 217/217/217 216/216/216 214/214/214
f 220/220/220 219/219/219 218/218/218
f 221/221/221 220/220/220 218/218/218
f 224/224/224 223/223/223 222/222/222
f 225/225/225 224/224/224 222/222/222
f 228/228/228 227/227/227 226/226/226
f 229/229/229 228/228/228 226/226/226
