g Crown
v -0.10802414 0.26079333 0.13810861
v -0.19905609 0.48056388 0.13810861
v -0 0.5201586 -0.032499906
v 1.269984E-08 0.2822807 -0.032499906
v -0.19960254 0.19960254 -0.032499906
v -0.3678077 0.3678077 -0.032499906
v -0.19905609 0.48056388 0.13810861
v -0.10802414 0.26079333 0.13810861
v -0.26079333 0.10802414 0.13810861
v -0.48056388 0.19905609 0.13810861
v -0.3678077 0.3678077 -0.032499906
v -0.19960254 0.19960254 -0.032499906
v -0.28228068 -2.7957714E-08 -0.032499906
v -0.5201586 -2.2736856E-08 -0.032499906
v -0.48056388 0.19905609 0.13810861
v -0.26079333 0.10802414 0.13810861
v -0.26079333 -0.10802411 0.13810861
v -0.4805639 -0.19905607 0.13810861
v -0.5201586 -2.2736856E-08 -0.032499906
v -0.28228068 -2.7957714E-08 -0.032499906
v -0.19960254 -0.19960254 -0.032499906
v -0.3678077 -0.3678077 -0.032499906
v -0.4805639 -0.19905607 0.13810861
v -0.26079333 -0.10802411 0.13810861
v -0.10802415 -0.2607933 0.13810861
v -0.1990561 -0.48056388 0.13810861
v -0.3678077 -0.3678077 -0.032499906
v -0.19960254 -0.19960254 -0.032499906
v 2.82171E-08 -0.28228062 -0.032499906
v 4.5473712E-08 -0.5201586 -0.032499906
v -0.1990561 -0.48056388 0.13810861
v -0.10802415 -0.2607933 0.13810861
v 0.10802412 -0.2607933 0.13810861
v 0.19905609 -0.48056388 0.13810861
v 4.5473712E-08 -0.5201586 -0.032499906
v 2.82171E-08 -0.28228062 -0.032499906
v 0.19960254 -0.19960257 -0.032499906
v 0.36780766 -0.3678077 -0.032499906
v 0.19905609 -0.48056388 0.13810861
v 0.10802412 -0.2607933 0.13810861
v 0.2607933 -0.10802417 0.13810861
v 0.48056388 -0.19905616 0.13810861
v 0.36780766 -0.3678077 -0.032499906
v 0.19960254 -0.19960257 -0.032499906
v 0.28228062 -6.1512573E-09 -0.032499906
v 0.5201586 6.20283E-09 -0.032499906
v 0.48056388 -0.19905616 0.13810861
v 0.2607933 -0.10802417 0.13810861
v 0.2607933 0.10802419 0.13810861
v 0.48056385 0.19905616 0.13810861
v 0.5201586 6.20283E-09 -0.032499906
v 0.28228062 -6.1512573E-09 -0.032499906
v 0.1996026 0.1996025 -0.032499906
v 0.36780775 0.36780763 -0.032499906
v 0.48056385 0.19905616 0.13810861
v 0.2607933 0.10802419 0.13810861
v 0.10802411 0.26079333 0.13810861
v 0.19905609 0.4805639 0.13810861
v 0.36780775 0.36780763 -0.032499906
v 0.1996026 0.1996025 -0.032499906
v 1.269984E-08 0.2822807 -0.032499906
v -0 0.5201586 -0.032499906
v 0.19905609 0.4805639 0.13810861
v 0.10802411 0.26079333 0.13810861
v 0.2607933 -0.10802417 -0.2647145
v 0.2607933 -0.10802417 0.13810861
v 0.19960254 -0.19960257 -0.032499906
v 0.19960254 -0.19960257 -0.2647145
v 0.28228062 -6.1512573E-09 -0.2647145
v 0.10802412 -0.2607933 0.13810861
v 0.28228062 -6.1512573E-09 -0.032499906
v 0.10802412 -0.2607933 -0.2647145
v 0.2607933 0.10802419 -0.2647145
v 2.82171E-08 -0.28228062 -0.032499906
v 0.2607933 0.10802419 0.13810861
v 2.82171E-08 -0.28228062 -0.2647145
v 0.1996026 0.1996025 -0.2647145
v -0.10802415 -0.2607933 0.13810861
v 0.1996026 0.1996025 -0.032499906
v -0.10802415 -0.2607933 -0.2647145
v 0.10802411 0.26079333 -0.2647145
v -0.19960254 -0.19960254 -0.032499906
v 0.10802411 0.26079333 0.13810861
v -0.19960254 -0.19960254 -0.2647145
v 1.269984E-08 0.2822807 -0.2647145
v -0.26079333 -0.10802411 0.13810861
v 1.269984E-08 0.2822807 -0.032499906
v -0.26079333 -0.10802411 -0.2647145
v -0.10802414 0.26079333 -0.2647145
v -0.28228068 -2.7957714E-08 -0.032499906
v -0.10802414 0.26079333 0.13810861
v -0.28228068 -2.7957714E-08 -0.2647145
v -0.19960254 0.19960254 -0.2647145
v -0.26079333 0.10802414 0.13810861
v -0.19960254 0.19960254 -0.032499906
v -0.26079333 0.10802414 -0.2647145
v -0.1990561 -0.48056388 -0.2647145
v 4.5473712E-08 -0.5201586 -0.032499906
v 4.5473712E-08 -0.5201586 -0.2647145
v -0.1990561 -0.48056388 0.13810861
v 0.19905609 -0.48056388 0.13810861
v -0.3678077 -0.3678077 -0.2647145
v 0.19905609 -0.48056388 -0.2647145
v -0.3678077 -0.3678077 -0.032499906
v 0.36780766 -0.3678077 -0.032499906
v -0.4805639 -0.19905607 -0.2647145
v 0.36780766 -0.3678077 -0.2647145
v -0.4805639 -0.19905607 0.13810861
v 0.48056388 -0.19905616 0.13810861
v -0.5201586 -2.2736856E-08 -0.2647145
v 0.48056388 -0.19905616 -0.2647145
v -0.5201586 -2.2736856E-08 -0.032499906
v 0.5201586 6.20283E-09 -0.032499906
v -0.48056388 0.19905609 -0.2647145
v 0.5201586 6.20283E-09 -0.2647145
v -0.48056388 0.19905609 0.13810861
v 0.48056385 0.19905616 0.13810861
v -0.3678077 0.3678077 -0.2647145
v 0.48056385 0.19905616 -0.2647145
v -0.3678077 0.3678077 -0.032499906
v 0.36780775 0.36780763 -0.032499906
v -0.19905609 0.48056388 -0.2647145
v 0.36780775 0.36780763 -0.2647145
v -0.19905609 0.48056388 0.13810861
v 0.19905609 0.4805639 0.13810861
v -0 0.5201586 -0.2647145
v 0.19905609 0.4805639 -0.2647145
v -0 0.5201586 -0.032499906
v 0.10802411 0.26079333 -0.2647145
v 0.1996026 0.1996025 -0.2647145
v 0.36780775 0.36780763 -0.2647145
v 0.19905609 0.4805639 -0.2647145
v 0.48056385 0.19905616 -0.2647145
v 1.269984E-08 0.2822807 -0.2647145
v 0.2607933 0.10802419 -0.2647145
v -0 0.5201586 -0.2647145
v 0.5201586 6.20283E-09 -0.2647145
v -0.10802414 0.26079333 -0.2647145
v 0.28228062 -6.1512573E-09 -0.2647145
v -0.19905609 0.48056388 -0.2647145
v 0.48056388 -0.19905616 -0.2647145
v -0.19960254 0.19960254 -0.2647145
v 0.2607933 -0.10802417 -0.2647145
v -0.3678077 0.3678077 -0.2647145
v 0.36780766 -0.3678077 -0.2647145
v -0.26079333 0.10802414 -0.2647145
v 0.19960254 -0.19960257 -0.2647145
v -0.48056388 0.19905609 -0.2647145
v 0.19905609 -0.48056388 -0.2647145
v -0.28228068 -2.7957714E-08 -0.2647145
v 0.10802412 -0.2607933 -0.2647145
v -0.5201586 -2.2736856E-08 -0.2647145
v 4.5473712E-08 -0.5201586 -0.2647145
v -0.26079333 -0.10802411 -0.2647145
v 2.82171E-08 -0.28228062 -0.2647145
v -0.4805639 -0.19905607 -0.2647145
v -0.1990561 -0.48056388 -0.2647145
v -0.19960254 -0.19960254 -0.2647145
v -0.10802415 -0.2607933 -0.2647145
v -0.3678077 -0.3678077 -0.2647145
vt 0 0
vt 0 0
vt 0 0
vt 0 0
vt 0 0
vt 0 0
vt 0 0
vt 0 0
vt 0 0
vt 0 0
vt 0 0
vt 0 0
vt 0 0
vt 0 0
vt 0 0
vt 0 0
vt 0 0
vt 0 0
vt 0 0
vt 0 0
vt 0 0
vt 0 0
vt 0 0
vt 0 0
vt 0 0
vt 0 0
vt 0 0
vt 0 0
vt 0 0
vt 0 0
vt 0 0
vt 0 0
vt 0 0
vt 0 0
vt 0 0
vt 0 0
vt 0 0
vt 0 0
vt 0 0
vt 0 0
vt 0 0
vt 0 0
vt 0 0
vt 0 0
vt 0 0
vt 0 0
vt 0 0
vt 0 0
vt 0 0
vt 0 0
vt 0 0
vt 0 0
vt 0 0
vt 0 0
vt 0 0
vt 0 0
vt 0 0
vt 0 0
vt 0 0
vt 0 0
vt 0 0
vt 0 0
vt 0 0
vt 0 0
vt 0 0
vt 0 0
vt 0 0
vt 0 0
vt 0 0
vt 0 0
vt 0 0
vt 0 0
vt 0 0
vt 0 0
vt 0 0
vt 0 0
vt 0 0
vt 0 0
vt 0 0
vt 0 0
vt 0 0
vt 0 0
vt 0 0
vt 0 0
vt 0 0
vt 0 0
vt 0 0
vt 0 0
vt 0 0
vt 0 0
vt 0 0
vt 0 0
vt 0 0
vt 0 0
vt 0 0
vt 0 0
vt 0 0
vt 0 0
vt 0 0
vt 0 0
vt 0 0
vt 0 0
vt 0 0
vt 0 0
vt 0 0
vt 0 0
vt 0 0
vt 0 0
vt 0 0
vt 0 0
vt 0 0
vt 0 0
vt 0 0
vt 0 0
vt 0 0
vt 0 0
vt 0 0
vt 0 0
vt 0 0
vt 0 0
vt 0 0
vt 0 0
vt 0 0
vt 0 0
vt 0 0
vt 0 0
vt 0 0
vt 0 0
vt 0 0
vt 0 0
vt 0 0
vt 0 0
vt 0 0
vt 0 0
vt 0 0
vt 0 0
vt 0 0
vt 0 0
vt 0 0
vt 0 0
vt 0 0
vt 0 0
vt 0 0
vt 0 0
vt 0 0
vt 0 0
vt 0 0
vt 0 0
vt 0 0
vt 0 0
vt 0 0
vt 0 0
vt 0 0
vt 0 0
vt 0 0
vt 0 0
vt 0 0
vt 0 0
vt 0 0
vt 0 0
vn 0.72265863 0.1437458 0.6760929
vn 0.72265863 0.1437458 0.6760929
vn 0.72265863 0.1437458 0.6760929
vn 0.72265863 0.1437458 0.6760929
vn -0.61264044 -0.40935332 0.67609286
vn -0.61264044 -0.40935332 0.67609286
vn -0.61264044 -0.40935332 0.67609286
vn -0.61264044 -0.40935332 0.67609286
vn 0.40935326 0.61264044 0.67609286
vn 0.40935326 0.61264044 0.67609286
vn 0.40935326 0.61264044 0.67609286
vn 0.40935326 0.61264044 0.67609286
vn -0.14374572 -0.72265846 0.6760931
vn -0.14374572 -0.72265846 0.6760931
vn -0.14374572 -0.72265846 0.6760931
vn -0.14374572 -0.72265846 0.6760931
vn -0.14374582 0.7226588 0.67609286
vn -0.14374582 0.7226588 0.67609286
vn -0.14374582 0.7226588 0.67609286
vn -0.14374582 0.7226588 0.67609286
vn 0.40935314 -0.61264044 0.67609304
vn 0.40935314 -0.61264044 0.67609304
vn 0.40935314 -0.61264044 0.67609304
vn 0.40935314 -0.61264044 0.67609304
vn -0.61264044 0.4093533 0.6760929
vn -0.61264044 0.4093533 0.6760929
vn -0.61264044 0.4093533 0.6760929
vn -0.61264044 0.4093533 0.6760929
vn 0.7226586 -0.14374569 0.67609304
vn 0.7226586 -0.14374569 0.67609304
vn 0.7226586 -0.14374569 0.67609304
vn 0.7226586 -0.14374569 0.67609304
vn -0.72265863 -0.14374581 0.6760928
vn -0.72265863 -0.14374581 0.6760928
vn -0.72265863 -0.14374581 0.6760928
vn -0.72265863 -0.14374581 0.6760928
vn 0.61264044 0.40935332 0.67609286
vn 0.61264044 0.40935332 0.67609286
vn 0.61264044 0.40935332 0.67609286
vn 0.61264044 0.40935332 0.67609286
vn -0.4093533 -0.6126404 0.6760929
vn -0.4093533 -0.6126404 0.6760929
vn -0.4093533 -0.6126404 0.6760929
vn -0.4093533 -0.6126404 0.6760929
vn 0.14374577 0.72265846 0.6760931
vn 0.14374577 0.72265846 0.6760931
vn 0.14374577 0.72265846 0.6760931
vn 0.14374577 0.72265846 0.6760931
vn 0.14374577 -0.72265846 0.6760931
vn 0.14374577 -0.72265846 0.6760931
vn 0.14374577 -0.72265846 0.6760931
vn 0.14374577 -0.72265846 0.6760931
vn -0.40935338 0.61264074 0.67609257
vn -0.40935338 0.61264074 0.67609257
vn -0.40935338 0.61264074 0.67609257
vn -0.40935338 0.61264074 0.67609257
vn 0.6126402 -0.40935317 0.67609316
vn 0.6126402 -0.40935317 0.67609316
vn 0.6126402 -0.40935317 0.67609316
vn 0.6126402 -0.40935317 0.67609316
vn -0.7226585 0.14374578 0.676093
vn -0.7226585 0.14374578 0.676093
vn -0.7226585 0.14374578 0.676093
vn -0.7226585 0.14374578 0.676093
vn -0.9238795 0.38268334 0
vn -0.9238795 0.38268334 0
vn -0.7071066 0.7071069 0
vn -0.7071066 0.70710695 0
vn -1 0 0
vn -0.38268334 0.9238795 0
vn -1 0 0
vn -0.3826833 0.9238795 0
vn -0.9238795 -0.38268328 0
vn -0 1 0
vn -0.9238796 -0.3826832 0
vn -0 1 0
vn -0.70710677 -0.7071067 0
vn 0.38268343 0.9238795 0
vn -0.7071068 -0.7071067 0
vn 0.38268346 0.9238795 0
vn -0.3826838 -0.92387944 0
vn 0.70710677 0.70710677 0
vn -0.38268387 -0.9238793 0
vn 0.70710677 0.70710677 0
vn -0 -1 0
vn 0.92387944 0.38268372 0
vn -0 -1 0
vn 0.92387944 0.38268363 0
vn 0.3826838 -0.92387944 0
vn 1 0 0
vn 0.38268378 -0.92387944 0
vn 1 0 0
vn 0.7071067 -0.70710677 0
vn 0.92387944 -0.38268363 0
vn 0.7071067 -0.70710677 0
vn 0.92387944 -0.38268366 0
vn -0.38268334 -0.9238795 0
vn -0 -1 0
vn -0 -1 0
vn -0.38268334 -0.9238795 0
vn 0.38268343 -0.9238795 0
vn -0.70710677 -0.70710677 0
vn 0.38268343 -0.9238795 0
vn -0.70710677 -0.70710677 0
vn 0.7071066 -0.70710695 0
vn -0.9238795 -0.3826833 0
vn 0.70710665 -0.7071069 0
vn -0.9238795 -0.38268334 0
vn 0.9238795 -0.38268346 0
vn -1 0 0
vn 0.9238795 -0.38268355 0
vn -1 0 0
vn 1 0 0
vn -0.9238795 0.3826833 0
vn 1 0 0
vn -0.9238795 0.38268328 0
vn 0.9238795 0.3826833 0
vn -0.70710677 0.70710677 0
vn 0.9238795 0.38268337 0
vn -0.70710677 0.70710677 0
vn 0.70710695 0.7071066 0
vn -0.38268337 0.9238795 0
vn 0.70710695 0.7071066 0
vn -0.38268334 0.9238795 0
vn 0.38268337 0.9238795 0
vn -0 1 0
vn 0.38268337 0.9238795 0
vn -0 1 0
vn -0 0 -1
vn -0 0 -1
vn -0 0 -1
vn -0 0 -1
vn -0 0 -1
vn -0 0 -1
vn -0 0 -1
vn -0 0 -1
vn -0 0 -1
vn -0 0 -1
vn -0 0 -1
vn -0 0 -1
vn -0 0 -1
vn -0 0 -1
vn -0 0 -1
vn -0 0 -1
vn -0 0 -1
vn -0 0 -1
vn -0 0 -1
vn -0 0 -1
vn -0 0 -1
vn -0 0 -1
vn -0 0 -1
vn -0 0 -1
vn -0 0 -1
vn -0 0 -1
vn -0 0 -1
vn -0 0 -1
vn -0 0 -1
vn -0 0 -1
vn -0 0 -1
vn -0 0 -1
g Crown_0
f 3/3/3 2/2/2 1/1/1
f 4/4/4 3/3/3 1/1/1
f 7/7/7 6/6/6 5/5/5
f 8/8/8 7/7/7 5/5/5
f 11/11/11 10/10/10 9/9/9
f 12/12/12 11/11/11 9/9/9
f 15/15/15 14/14/14 13/13/13
f 16/16/16 15/15/15 13/13/13
f 19/19/19 18/18/18 17/17/17
f 20/20/20 19/19/19 17/17/17
f 23/23/23 22/22/22 21/21/21
f 24/24/24 23/23/23 21/21/21
f 27/27/27 26/26/26 25/25/25
f 28/28/28 27/27/27 25/25/25
f 31/31/31 30/30/30 29/29/29
f 32/32/32 31/31/31 29/29/29
f 35/35/35 34/34/34 33/33/33
f 36/36/36 35/35/35 33/33/33
f 39/39/39 38/38/38 37/37/37
f 40/40/40 39/39/39 37/37/37
f 43/43/43 42/42/42 41/41/41
f 44/44/44 43/43/43 41/41/41
f 47/47/47 46/46/46 45/45/45
f 48/48/48 47/47/47 45/45/45
f 51/51/51 50/50/50 49/49/49
f 52/52/52 51/51/51 49/49/49
f 55/55/55 54/54/54 53/53/53
f 56/56/56 55/55/55 53/53/53
f 59/59/59 58/58/58 57/57/57
f 60/60/60 59/59/59 57/57/57
f 63/63/63 62/62/62 61/61/61
f 64/64/64 63/63/63 61/61/61
f 67/67/67 66/66/66 65/65/65
f 68/68/68 67/67/67 65/65/65
f 65/65/65 66/66/66 69/69/69
f 70/70/70 67/67/67 68/68/68
f 66/66/66 71/71/71 69/69/69
f 72/72/72 70/70/70 68/68/68
f 69/69/69 71/71/71 73/73/73
f 74/74/74 70/70/70 72/72/72
f 71/71/71 75/75/75 73/73/73
f 76/76/76 74/74/74 72/72/72
f 73/73/73 75/75/75 77/77/77
f 78/78/78 74/74/74 76/76/76
f 75/75/75 79/79/79 77/77/77
f 80/80/80 78/78/78 76/76/76
f 77/77/77 79/79/79 81/81/81
f 82/82/82 78/78/78 80/80/80
f 79/79/79 83/83/83 81/81/81
f 84/84/84 82/82/82 80/80/80
f 81/81/81 83/83/83 85/85/85
f 86/86/86 82/82/82 84/84/84
f 83/83/83 87/87/87 85/85/85
f 88/88/88 86/86/86 84/84/84
f 85/85/85 87/87/87 89/89/89
f 90/90/90 86/86/86 88/88/88
f 87/87/87 91/91/91 89/89/89
f 92/92/92 90/90/90 88/88/88
f 89/89/89 91/91/91 93/93/93
f 94/94/94 90/90/90 92/92/92
f 91/91/91 95/95/95 93/93/93
f 96/96/96 94/94/94 92/92/92
f 93/93/93 95/95/95 96/96/96
f 95/95/95 94/94/94 96/96/96
f 99/99/99 98/98/98 97/97/97
f 98/98/98 100/100/100 97/97/97
f 101/101/101 98/98/98 99/99/99
f 97/97/97 100/100/100 102/102/102
f 103/103/103 101/101/101 99/99/99
f 100/100/100 104/104/104 102/102/102
f 105/105/105 101/101/101 103/103/103
f 102/102/102 104/104/104 106/106/106
f 107/107/107 105/105/105 103/103/103
f 104/104/104 108/108/108 106/106/106
f 109/109/109 105/105/105 107/107/107
f 106/106/106 108/108/108 110/110/110
f 111/111/111 109/109/109 107/107/107
f 108/108/108 112/112/112 110/110/110
f 113/113/113 109/109/109 111/111/111
f 110/110/110 112/112/112 114/114/114
f 115/115/115 113/113/113 111/111/111
f 112/112/112 116/116/116 114/114/114
f 117/117/117 113/113/113 115/115/115
f 114/114/114 116/116/116 118/118/118
f 119/119/119 117/117/117 115/115/115
f 116/116/116 120/120/120 118/118/118
f 121/121/121 117/117/117 119/119/119
f 118/118/118 120/120/120 122/122/122
f 123/123/123 121/121/121 119/119/119
f 120/120/120 124/124/124 122/122/122
f 125/125/125 121/121/121 123/123/123
f 122/122/122 124/124/124 126/126/126
f 127/127/127 125/125/125 123/123/123
f 124/124/124 128/128/128 126/126/126
f 128/128/128 125/125/125 127/127/127
f 126/126/126 128/128/128 127/127/127
f 131/131/131 130/130/130 129/129/129
f 132/132/132 131/131/131 129/129/129
f 131/131/131 133/133/133 130/130/130
f 132/132/132 129/129/129 134/134/134
f 133/133/133 135/135/135 130/130/130
f 136/136/136 132/132/132 134/134/134
f 133/133/133 137/137/137 135/135/135
f 136/136/136 134/134/134 138/138/138
f 137/137/137 139/139/139 135/135/135
f 140/140/140 136/136/136 138/138/138
f 137/137/137 141/141/141 139/139/139
f 140/140/140 138/138/138 142/142/142
f 141/141/141 143/143/143 139/139/139
f 144/144/144 140/140/140 142/142/142
f 141/141/141 145/145/145 143/143/143
f 144/144/144 142/142/142 146/146/146
f 145/145/145 147/147/147 143/143/143
f 148/148/148 144/144/144 146/146/146
f 145/145/145 149/149/149 147/147/147
f 148/148/148 146/146/146 150/150/150
f 149/149/149 151/151/151 147/147/147
f 152/152/152 148/148/148 150/150/150
f 149/149/149 153/153/153 151/151/151
f 152/152/152 150/150/150 154/154/154
f 153/153/153 155/155/155 151/151/151
f 156/156/156 152/152/152 154/154/154
f 153/153/153 157/157/157 155/155/155
f 156/156/156 154/154/154 158/158/158
f 157/157/157 159/159/159 155/155/155
f 160/160/160 156/156/156 158/158/158
f 160/160/160 158/158/158 159/159/159
f 157/157/157 160/160/160 159/159/159
