g Dead Classic Conetree
v 0.012293979 -0.12812367 5.066832
v -0.031516854 0.031516854 11.127152
v -0.031516854 -0.031516854 11.127152
v 0.012293979 0.06251845 5.066832
v -0.18239675 -0.18239675 0
v -0.18239675 0.18239675 0
v 0.031516854 0.031516854 11.127152
v 0.20293611 0.06251845 5.066832
v 0.18239675 0.18239675 0
v 0.20293611 -0.12812367 5.066832
v 0.18239675 -0.18239675 0
v 0.031516854 -0.031516854 11.127152
v -0.031516854 -0.031516854 11.127152
v -0.031516854 0.031516854 11.127152
v -0.031516854 -0.031516854 11.127152
v 0.012293979 -0.12812367 5.066832
v -0.18239675 -0.18239675 0
v 0.14974879 -0.14655395 5.252606
v -0.13869125 -0.5119569 4.9699388
v 0.14108396 -0.15574984 5.361314
v -0.13063882 -0.503411 4.8689146
v -0.20786966 -0.4615402 4.9619923
v 0.036371212 -0.07943589 5.349285
v 0.14108396 -0.15574984 5.361314
v -0.19981726 -0.4529942 4.8609686
v 0.14974879 -0.14655395 5.252606
v 0.045036037 -0.07024002 5.2405777
v 0.036371212 -0.07943589 5.349285
v 0.045036037 -0.07024002 5.2405777
v 0.0064270766 -0.044171352 6.6430264
v -0.08764866 0.38266727 6.612904
v -0.0067668664 -0.0101649435 6.9699044
v -0.080158465 0.36336187 6.4273357
v -0.014304388 0.40409508 6.6175556
v -0.0068141934 0.38478974 6.431988
v 0.12242891 0.027580153 6.978099
v -0.0067668664 -0.0101649435 6.9699044
v 0.12242891 0.027580153 6.978099
v 0.13562284 -0.0064262585 6.6512203
v 0.055258054 0.06322973 3.9814904
v 0.17980015 0.43783098 3.7555044
v 0.06358406 0.07775904 4.1216516
v 0.17420489 0.42806697 3.661313
v 0.27438372 0.4129782 3.7361507
v 0.26878843 0.40321413 3.6419597
v 0.2202343 0.036597602 4.089598
v 0.06358406 0.07775904 4.1216516
v 0.2202343 0.036597602 4.089598
v 0.21190828 0.022068262 3.9494364
v 0.09200309 -0.036649626 8.284799
v -0.18431193 -0.2918498 8.117067
v 0.06876276 -0.073982194 8.5592
v -0.17813879 -0.28193355 8.044181
v -0.20811537 -0.2718069 8.12159
v -0.020851746 0.0014750853 8.576225
v 0.06876276 -0.073982194 8.5592
v -0.20194224 -0.2618906 8.048702
v 0.09200309 -0.036649626 8.284799
v 0.0023886014 0.038807664 8.301823
v -0.020851746 0.0014750853 8.576225
v 0.0023886014 0.038807664 8.301823
v 0.19408035 -0.06344206 4.2813363
v 0.5742412 -0.35572702 4.227089
v 0.20023608 -0.06804575 4.4221225
v 0.5701927 -0.3526992 4.1344957
v 0.5226732 -0.4264533 4.2267203
v 0.5186246 -0.42342553 4.134127
v 0.1342468 -0.15855095 4.4216504
v 0.20023608 -0.06804575 4.4221225
v 0.1342468 -0.15855095 4.4216504
v 0.12809107 -0.1539473 4.2808647
v -0.042905513 -0.13650331 4.3713913
v -0.24884638 0.32698438 4.133828
v -0.05413533 -0.121110655 4.542388
v -0.24125655 0.31658098 4.018257
v -0.1577616 0.3743129 4.1447787
v -0.15017176 0.3639095 4.0292077
v 0.08474105 -0.048949115 4.5590844
v -0.05413533 -0.121110655 4.542388
v 0.08474105 -0.048949115 4.5590844
v 0.09597086 -0.06434177 4.388088
vt 0.56268454 -0.02889077
vt 0.625 0.25
vt 0.625 0
vt 0.5625562 0.34435615
vt 0.5 0
vt 0.5 0.25
vt 0.625 0.5
vt 0.56231546 0.52879727
vt 0.5 0.5
vt 0.56231546 0.7756754
vt 0.5 0.75
vt 0.625 0.75
vt 0.875 0.75
vt 0.875 0.5
vt 0.625 1
vt 0.56244373 0.9056403
vt 0.5 1
vt 0.375 0.375
vt 0.64694226 0.47793484
vt 0.625 0.375
vt 0.40887696 0.479135
vt 0.64700377 0.7720037
vt 0.75 0.75
vt 0.75 0.5
vt 0.4094193 0.77140737
vt 0.25 0.5
vt 0.25 0.75
vt 0.625 0.875
vt 0.375 0.875
vt 0.375 0.375
vt 0.64403826 0.48098972
vt 0.625 0.375
vt 0.375 0.4619515
vt 0.64411783 0.7689307
vt 0.375 0.7880485
vt 0.75 0.75
vt 0.75 0.5
vt 0.625 0.875
vt 0.375 0.875
vt 0.53568965 0.375
vt 0.6497673 0.47524035
vt 0.625 0.375
vt 0.5179638 0.45047304
vt 0.6499951 0.7745318
vt 0.5179638 0.79952693
vt 0.75 0.75
vt 0.75 0.5
vt 0.625 0.875
vt 0.5356895 0.875
vt 0.375 0.375
vt 0.625 0.5
vt 0.625 0.375
vt 0.375 0.5
vt 0.625 0.75
vt 0.75 0.75
vt 0.75 0.5
vt 0.375 0.75
vt 0.25 0.5
vt 0.25 0.75
vt 0.625 0.875
vt 0.375 0.875
vt 0.49923778 0.375
vt 0.651498 0.47347257
vt 0.625 0.375
vt 0.52432555 0.44697466
vt 0.6518113 0.7762139
vt 0.52432555 0.80302536
vt 0.75 0.75
vt 0.75 0.5
vt 0.625 0.875
vt 0.49923778 0.875
vt 0.5126073 0.375
vt 0.64883924 0.47615862
vt 0.625 0.375
vt 0.50754166 0.45231944
vt 0.6488564 0.7738242
vt 0.50754166 0.7976806
vt 0.75 0.75
vt 0.75 0.5
vt 0.625 0.875
vt 0.5126073 0.875
vn -0.70114905 -0.71271867 0.02054595
vn -0.57989484 0.5753656 0.5767811
vn -0.5804748 -0.57195157 0.5795864
vn -0.70383847 0.71003765 0.021397665
vn -0.7127343 -0.7005658 0.034890566
vn -0.7096387 0.70319647 0.043904766
vn 0.5686415 0.5772153 0.5860625
vn 0.71267176 0.70124924 0.01866656
vn 0.7008384 0.71318215 0.014032496
vn 0.71001345 -0.7039614 0.017869506
vn 0.7037823 -0.7103998 0.004756495
vn 0.5691746 -0.57375443 0.5889365
vn -0.5804748 -0.57195157 0.5795864
vn -0.57989484 0.5753656 0.5767811
vn -0.5804748 -0.57195157 0.5795864
vn -0.70114905 -0.71271867 0.02054595
vn -0.7127343 -0.7005658 0.034890566
vn 0.87645674 -0.23963286 -0.4176118
vn 0.029107261 -0.94983894 0.3113822
vn 0.061740905 -0.7597179 0.64731514
vn 0.28093487 -0.5996851 -0.74930197
vn -0.9353328 -0.24283868 0.25725833
vn -0.78325516 -0.11802642 0.6103943
vn 0.061740905 -0.7597179 0.64731514
vn -0.58870536 0.0481858 -0.8069102
vn 0.87645674 -0.23963286 -0.4176118
vn -0.4306301 0.7593177 -0.48784652
vn -0.78325516 -0.11802642 0.6103943
vn -0.4306301 0.7593177 -0.48784652
vn -0.97617155 -0.21634158 -0.016894827
vn -0.78943557 0.5564811 0.2590757
vn -0.68460435 0.40798703 0.60403925
vn -0.79603565 0.59785396 -0.09432801
vn 0.34650803 0.8909165 0.29359835
vn 0.32771063 0.94097686 -0.08466613
vn 0.3120937 0.7137563 0.62701637
vn -0.68460435 0.40798703 0.60403925
vn 0.3120937 0.7137563 0.62701637
vn 0.93925685 0.34320793 0.0022064124
vn -0.94461626 0.3274272 0.022171497
vn -0.34275645 0.8846663 0.31604347
vn -0.2685933 0.72804874 0.6307161
vn -0.25844634 0.9623312 -0.0844047
vn 0.78867227 0.57869107 0.20763588
vn 0.7399088 0.66319925 -0.11270161
vn 0.710835 0.42442825 0.5608692
vn -0.2685933 0.72804874 0.6307161
vn 0.710835 0.42442825 0.5608692
vn 0.98306686 -0.17886037 -0.03985634
vn 0.76860267 -0.28431734 -0.57307374
vn -0.04676911 -0.9892896 0.1382703
vn -0.0884878 -0.87247765 0.48057532
vn 0.1408456 -0.5606519 -0.8159853
vn -0.94817615 -0.23889402 0.20950341
vn -0.800168 -0.3079394 0.51468885
vn -0.0884878 -0.87247765 0.48057532
vn -0.67741853 0.10945714 -0.7274086
vn 0.76860267 -0.28431734 -0.57307374
vn -0.5138972 0.72935647 -0.4516069
vn -0.800168 -0.3079394 0.51468885
vn -0.5138972 0.72935647 -0.4516069
vn 0.6094557 0.7928198 -0.0007223629
vn 0.9007232 0.07009214 0.4287013
vn 0.61807865 0.3153634 0.7200867
vn 0.9973356 0.05989185 -0.041648865
vn 0.20756695 -0.880641 0.4258962
vn 0.24606666 -0.96832407 -0.042422958
vn -0.11395612 -0.6872382 0.7174382
vn 0.61807865 0.3153634 0.7200867
vn -0.11395612 -0.6872382 0.7174382
vn -0.5684596 -0.82270867 -0.0020468363
vn -0.9093287 -0.4154796 -0.022317573
vn -0.887925 0.38059995 0.2583267
vn -0.760258 0.22521637 0.6093318
vn -0.87633747 0.47121015 -0.09996832
vn 0.16609481 0.9326149 0.32037786
vn 0.08172568 0.9931062 -0.08402957
vn 0.17347413 0.7378638 0.65227586
vn -0.760258 0.22521637 0.6093318
vn 0.17347413 0.7378638 0.65227586
vn 0.86286545 0.50531 0.011179911
g Dead Classic Conetree_0
f 3/3/3 2/2/2 1/1/1
f 2/2/2 4/4/4 1/1/1
f 1/1/1 4/4/4 5/5/5
f 4/4/4 6/6/6 5/5/5
f 2/2/2 7/7/7 4/4/4
f 4/4/4 8/8/8 6/6/6
f 7/7/7 8/8/8 4/4/4
f 8/8/8 9/9/9 6/6/6
f 8/8/8 10/10/10 9/9/9
f 10/10/10 11/11/11 9/9/9
f 7/7/7 12/12/12 8/8/8
f 12/12/12 10/10/10 8/8/8
f 13/13/13 12/12/12 7/7/7
f 14/14/14 13/13/13 7/7/7
f 12/12/12 15/15/15 10/10/10
f 15/15/15 16/16/16 10/10/10
f 10/10/10 16/16/16 11/11/11
f 16/16/16 17/17/17 11/11/11
f 20/20/20 19/19/19 18/18/18
f 19/19/19 21/21/21 18/18/18
f 19/19/19 22/22/22 21/21/21
f 23/23/23 22/22/22 19/19/19
f 24/24/24 23/23/23 19/19/19
f 22/22/22 25/25/25 21/21/21
f 21/21/21 25/25/25 26/26/26
f 25/25/25 27/27/27 26/26/26
f 22/22/22 28/28/28 25/25/25
f 28/28/28 29/29/29 25/25/25
f 32/32/32 31/31/31 30/30/30
f 31/31/31 33/33/33 30/30/30
f 31/31/31 34/34/34 33/33/33
f 34/34/34 35/35/35 33/33/33
f 36/36/36 34/34/34 31/31/31
f 37/37/37 36/36/36 31/31/31
f 34/34/34 38/38/38 35/35/35
f 38/38/38 39/39/39 35/35/35
f 42/42/42 41/41/41 40/40/40
f 41/41/41 43/43/43 40/40/40
f 41/41/41 44/44/44 43/43/43
f 44/44/44 45/45/45 43/43/43
f 46/46/46 44/44/44 41/41/41
f 47/47/47 46/46/46 41/41/41
f 44/44/44 48/48/48 45/45/45
f 48/48/48 49/49/49 45/45/45
f 52/52/52 51/51/51 50/50/50
f 51/51/51 53/53/53 50/50/50
f 51/51/51 54/54/54 53/53/53
f 55/55/55 54/54/54 51/51/51
f 56/56/56 55/55/55 51/51/51
f 54/54/54 57/57/57 53/53/53
f 53/53/53 57/57/57 58/58/58
f 57/57/57 59/59/59 58/58/58
f 54/54/54 60/60/60 57/57/57
f 60/60/60 61/61/61 57/57/57
f 64/64/64 63/63/63 62/62/62
f 63/63/63 65/65/65 62/62/62
f 63/63/63 66/66/66 65/65/65
f 66/66/66 67/67/67 65/65/65
f 68/68/68 66/66/66 63/63/63
f 69/69/69 68/68/68 63/63/63
f 66/66/66 70/70/70 67/67/67
f 70/70/70 71/71/71 67/67/67
f 74/74/74 73/73/73 72/72/72
f 73/73/73 75/75/75 72/72/72
f 73/73/73 76/76/76 75/75/75
f 76/76/76 77/77/77 75/75/75
f 78/78/78 76/76/76 73/73/73
f 79/79/79 78/78/78 73/73/73
f 76/76/76 80/80/80 77/77/77
f 80/80/80 81/81/81 77/77/77
