g Debris A
v 0.053508878 0.42465648 0.5
v -0.4487415 -0.07759389 0.5
v -0.5 0.5 -0.34829497
v 0.5 -0.20064355 -0.5
v 0.30838653 -0.5 -0.5
v 0.5 -0.5 -0.10614353
v 0.5 -0.38368714 0.5
v 0.5 -0.5 0.38368714
v 0.38368714 -0.5 0.5
v -0.0717413 -0.5 0.5
v -0.5 -0.5 0.24159443
v -0.46887115 -0.24347624 0.5
v 0.5 0.5 0.006929636
v 0.5 0.006929636 0.5
v 0.053533524 0.42466062 0.5
v 0.5 0.5 -0.1347735
v 0.1347735 0.5 -0.5
v 0.5 0.1347735 -0.5
v -0.5 0.37317416 -0.5
v -0.37317416 0.5 -0.5
v -0.5 0.5 -0.3731742
v -0.27574766 -0.5 -0.5
v -0.5 -0.27574766 -0.5
v -0.5 -0.5 -0.0783664
v 0.053533524 0.42466062 0.5
v 0.5 0.006929636 0.5
v 0.5 -0.38368714 0.5
v 0.38368714 -0.5 0.5
v -0.0717413 -0.5 0.5
v 0.053508878 0.42465648 0.5
v -0.4487415 -0.07759389 0.5
v -0.46887115 -0.24347624 0.5
v -0.5 0.5 -0.3731742
v -0.37317416 0.5 -0.5
v 0.1347735 0.5 -0.5
v 0.5 0.5 -0.1347735
v -0.5 0.5 -0.34829497
v 0.053508878 0.42465648 0.5
v 0.5 0.5 0.006929636
v 0.053533524 0.42466062 0.5
v 0.5 -0.20064355 -0.5
v 0.5 -0.5 -0.10614353
v 0.5 -0.5 0.38368714
v 0.5 -0.38368714 0.5
v 0.5 0.006929636 0.5
v 0.5 0.1347735 -0.5
v 0.5 0.5 0.006929636
v 0.5 0.5 -0.1347735
v -0.46887115 -0.24347624 0.5
v -0.5 -0.5 0.24159443
v -0.5 -0.5 -0.0783664
v -0.5 -0.27574766 -0.5
v -0.5 0.37317416 -0.5
v -0.4487415 -0.07759389 0.5
v -0.5 0.5 -0.34829497
v -0.5 0.5 -0.3731742
v 0.5 -0.5 -0.10614353
v 0.30838653 -0.5 -0.5
v -0.27574766 -0.5 -0.5
v -0.5 -0.5 -0.0783664
v 0.5 -0.5 0.38368714
v -0.5 -0.5 0.24159443
v -0.0717413 -0.5 0.5
v 0.38368714 -0.5 0.5
v 0.30838653 -0.5 -0.5
v 0.5 -0.20064355 -0.5
v 0.5 0.1347735 -0.5
v 0.1347735 0.5 -0.5
v -0.27574766 -0.5 -0.5
v -0.37317416 0.5 -0.5
v -0.5 -0.27574766 -0.5
v -0.5 0.37317416 -0.5
vt 0.6629263 0.5
vt 0.625 0.037926257
vt 0.41292626 0.25
vt 0.375 0.6751609
vt 0.375 0.79790336
vt 0.47346413 0.75
vt 0.625 0.7209218
vt 0.5959218 0.75
vt 0.6540782 0.75
vt 0.625 0.8929354
vt 0.5603986 0
vt 0.875 0.7269677
vt 0.5017324 0.5
vt 0.625 0.62326765
vt 0.625 0.46207583
vt 0.46630663 0.5
vt 0.28369337 0.5
vt 0.375 0.5913066
vt 0.125 0.53170645
vt 0.375 0.28170648
vt 0.40670645 0.25
vt 0.18106309 0.75
vt 0.375 0.05606309
vt 0.48040837 1
vt 0.66292423 0.5
vt 0.625 0.62326765
vt 0.625 0.7209218
vt 0.6540782 0.75
vt 0.7679353 0.75
vt 0.6629263 0.5
vt 0.875 0.71207374
vt 0.875 0.7269677
vt 0.40670645 0.25
vt 0.375 0.28170648
vt 0.375 0.40869337
vt 0.46630663 0.5
vt 0.41292626 0.25
vt 0.625 0.46207374
vt 0.5017324 0.5
vt 0.625 0.46207583
vt 0.375 0.6751609
vt 0.47346413 0.75
vt 0.59592175 0.75
vt 0.625 0.7209218
vt 0.625 0.6232676
vt 0.375 0.5913066
vt 0.5017324 0.5
vt 0.46630663 0.5
vt 0.625 0.023032304
vt 0.5603986 0
vt 0.48040837 0
vt 0.375 0.05606309
vt 0.375 0.21829355
vt 0.625 0.037926257
vt 0.41292626 0.25
vt 0.40670645 0.25
vt 0.47346413 0.75
vt 0.375 0.79790336
vt 0.375 0.94393694
vt 0.48040837 1
vt 0.5959218 0.75
vt 0.5603986 1
vt 0.625 0.8929354
vt 0.625 0.77907825
vt 0.32709664 0.75
vt 0.375 0.6751609
vt 0.375 0.5913066
vt 0.28369337 0.5
vt 0.18106309 0.75
vt 0.15670645 0.5
vt 0.125 0.69393694
vt 0.125 0.53170645
vn -0.62628 0.6262801 0.46426985
vn -0.62628 0.6262801 0.46426985
vn -0.62628 0.6262801 0.46426985
vn 0.7793506 -0.4988502 -0.3791586
vn 0.7793506 -0.4988502 -0.3791586
vn 0.7793506 -0.4988502 -0.3791586
vn 0.57735026 -0.57735026 0.57735026
vn 0.57735026 -0.57735026 0.57735026
vn 0.57735026 -0.57735026 0.57735026
vn -0.40345663 -0.6245998 0.6686538
vn -0.40345663 -0.6245998 0.6686538
vn -0.40345663 -0.6245998 0.6686538
vn 0.551769 0.5897249 0.5897249
vn 0.551769 0.5897249 0.5897249
vn 0.551769 0.5897249 0.5897249
vn 0.57735026 0.57735026 -0.57735026
vn 0.57735026 0.57735026 -0.57735026
vn 0.57735026 0.57735026 -0.57735026
vn -0.5773504 0.5773501 -0.5773504
vn -0.5773504 0.5773501 -0.5773504
vn -0.5773504 0.5773501 -0.5773504
vn -0.66184825 -0.6618481 -0.35201418
vn -0.66184825 -0.6618481 -0.35201418
vn -0.66184825 -0.6618481 -0.35201418
vn -0 0 1
vn -0 0 1
vn -0 0 1
vn -0 0 1
vn -0 0 1
vn -0 0 1
vn -0 0 1
vn -0 0 1
vn -0.023002734 0.9976363 0.0647505
vn -0.023002734 0.9976363 0.0647505
vn -0.023002734 0.9976363 0.0647505
vn -0.023002734 0.9976363 0.0647505
vn -0.023002734 0.9976363 0.0647505
vn -0.023002734 0.9976363 0.0647505
vn -0.023002734 0.9976363 0.0647505
vn -0.023002734 0.9976363 0.0647505
vn 1 0 0
vn 1 0 0
vn 1 0 0
vn 1 0 0
vn 1 0 0
vn 1 0 0
vn 1 0 0
vn 1 0 0
vn -0.99890924 0.026554355 0.0384085
vn -0.99890924 0.026554355 0.0384085
vn -0.99890924 0.026554355 0.0384085
vn -0.99890924 0.026554355 0.0384085
vn -0.99890924 0.026554355 0.0384085
vn -0.99890924 0.026554355 0.0384085
vn -0.99890924 0.026554355 0.0384085
vn -0.99890924 0.026554355 0.0384085
vn -0 -1 0
vn -0 -1 0
vn -0 -1 0
vn -0 -1 0
vn -0 -1 0
vn -0 -1 0
vn -0 -1 0
vn -0 -1 0
vn -0 0 -1
vn -0 0 -1
vn -0 0 -1
vn -0 0 -1
vn -0 0 -1
vn -0 0 -1
vn -0 0 -1
vn -0 0 -1
g Debris A_0
f 3/3/3 2/2/2 1/1/1
f 6/6/6 5/5/5 4/4/4
f 9/9/9 8/8/8 7/7/7
f 12/12/12 11/11/11 10/10/10
f 15/15/15 14/14/14 13/13/13
f 18/18/18 17/17/17 16/16/16
f 21/21/21 20/20/20 19/19/19
f 24/24/24 23/23/23 22/22/22
f 27/27/27 26/26/26 25/25/25
f 25/25/25 28/28/28 27/27/27
f 25/25/25 29/29/29 28/28/28
f 25/25/25 30/30/30 29/29/29
f 30/30/30 31/31/31 29/29/29
f 31/31/31 32/32/32 29/29/29
f 35/35/35 34/34/34 33/33/33
f 33/33/33 36/36/36 35/35/35
f 33/33/33 37/37/37 36/36/36
f 37/37/37 38/38/38 36/36/36
f 38/38/38 39/39/39 36/36/36
f 38/38/38 40/40/40 39/39/39
f 43/43/43 42/42/42 41/41/41
f 41/41/41 44/44/44 43/43/43
f 41/41/41 45/45/45 44/44/44
f 41/41/41 46/46/46 45/45/45
f 46/46/46 47/47/47 45/45/45
f 46/46/46 48/48/48 47/47/47
f 51/51/51 50/50/50 49/49/49
f 49/49/49 52/52/52 51/51/51
f 49/49/49 53/53/53 52/52/52
f 49/49/49 54/54/54 53/53/53
f 54/54/54 55/55/55 53/53/53
f 55/55/55 56/56/56 53/53/53
f 59/59/59 58/58/58 57/57/57
f 57/57/57 60/60/60 59/59/59
f 57/57/57 61/61/61 60/60/60
f 61/61/61 62/62/62 60/60/60
f 61/61/61 63/63/63 62/62/62
f 61/61/61 64/64/64 63/63/63
f 67/67/67 66/66/66 65/65/65
f 65/65/65 68/68/68 67/67/67
f 65/65/65 69/69/69 68/68/68
f 69/69/69 70/70/70 68/68/68
f 69/69/69 71/71/71 70/70/70
f 71/71/71 72/72/72 70/70/70
