g Defense Tower lvl 2 
v -1.5524808 -1.5524808 0
v -1.5524808 1.5524808 0
v -1.5524808 1.5524808 6.606683
v -1.5524808 -1.5524808 6.606683
v -1.5524808 1.5524808 0
v 1.5524808 1.5524808 0
v 1.5524808 1.5524808 6.606683
v -1.5524808 1.5524808 6.606683
v 1.5524808 1.5524808 0
v 1.5524808 -1.5524808 0
v 1.5524808 -1.5524808 6.606683
v 1.5524808 1.5524808 6.606683
v 1.5524808 -1.5524808 0
v -1.5524808 -1.5524808 0
v -1.5524808 -1.5524808 6.606683
v 1.5524808 -1.5524808 6.606683
v -1.5524808 1.5524808 0
v -1.5524808 -1.5524808 0
v 1.5524808 -1.5524808 0
v 1.5524808 1.5524808 0
v -1.1939342 1.193934 6.578985
v -1.1939342 1.193934 7.619579
v -1.1939342 -1.1939343 7.619579
v -1.1939342 -1.1939343 6.578985
v -1.1939342 -1.1939343 6.578985
v -1.5524808 -1.5524808 6.606683
v -1.5524808 1.5524808 6.606683
v -1.1939342 1.193934 6.578985
v -1.1939342 1.193934 6.578985
v -1.5524808 1.5524808 6.606683
v 1.5524808 1.5524808 6.606683
v 1.1939341 1.193934 6.578985
v 1.1939341 1.193934 6.578985
v 1.5524808 1.5524808 6.606683
v 1.5524808 -1.5524808 6.606683
v 1.1939341 -1.1939343 6.578985
v 1.1939341 -1.1939343 6.578985
v 1.5524808 -1.5524808 6.606683
v -1.5524808 -1.5524808 6.606683
v -1.1939342 -1.1939343 6.578985
v -0.8514514 -0.8514515 7.619579
v -0.48490918 -0.48490924 9.25095
v 0.48490906 -0.48490924 9.25095
v 0.8514513 -0.8514515 7.619579
v -1.1939342 -1.1939343 6.578985
v -1.1939342 -1.1939343 7.619579
v 1.1939341 -1.1939343 7.619579
v 1.1939341 -1.1939343 6.578985
v 1.1939341 1.193934 6.578985
v 1.1939341 1.193934 7.619579
v -1.1939342 1.193934 7.619579
v -1.1939342 1.193934 6.578985
v 1.1939341 -1.1939343 6.578985
v 1.1939341 -1.1939343 7.619579
v 1.1939341 1.193934 7.619579
v 1.1939341 1.193934 6.578985
v 0.48490906 0.48490903 9.25095
v 0.48490906 -0.48490924 9.25095
v -0.48490918 -0.48490924 9.25095
v -0.48490918 0.48490903 9.25095
v 0.8514513 0.85145116 7.619579
v 0.48490906 0.48490903 9.25095
v -0.48490918 0.48490903 9.25095
v -0.8514514 0.85145116 7.619579
v 0.8514513 -0.8514515 7.619579
v 0.48490906 -0.48490924 9.25095
v 0.48490906 0.48490903 9.25095
v 0.8514513 0.85145116 7.619579
v -0.8514514 0.85145116 7.619579
v -0.48490918 0.48490903 9.25095
v -0.48490918 -0.48490924 9.25095
v -0.8514514 -0.8514515 7.619579
v 0.8514513 0.85145116 7.619579
v 1.1939341 -1.1939343 7.619579
v 0.8514513 -0.8514515 7.619579
v 1.1939341 1.193934 7.619579
v -1.1939342 -1.1939343 7.619579
v -0.8514514 0.85145116 7.619579
v -0.8514514 -0.8514515 7.619579
v -1.1939342 1.193934 7.619579
vt 0.375 0
vt 0.375 0.25
vt 0.625 0.25
vt 0.625 0
vt 0.375 0.25
vt 0.375 0.5
vt 0.625 0.5
vt 0.625 0.25
vt 0.375 0.5
vt 0.375 0.75
vt 0.625 0.75
vt 0.625 0.5
vt 0.375 0.75
vt 0.375 1
vt 0.625 1
vt 0.625 0.75
vt 0.125 0.5
vt 0.125 0.75
vt 0.375 0.75
vt 0.375 0.5
vt 0.8539409 0.52105916
vt 0.8539409 0.52105916
vt 0.8539409 0.7289409
vt 0.8539409 0.7289409
vt 0.8539409 0.7289409
vt 0.875 0.75
vt 0.875 0.5
vt 0.8539409 0.52105916
vt 0.8539409 0.52105916
vt 0.875 0.5
vt 0.625 0.5
vt 0.6460592 0.52105916
vt 0.6460592 0.52105916
vt 0.625 0.5
vt 0.625 0.75
vt 0.6460592 0.7289409
vt 0.6460592 0.7289409
vt 0.625 0.75
vt 0.875 0.75
vt 0.8539409 0.7289409
vt 0.8241253 0.6991253
vt 0.8241253 0.6991253
vt 0.67587495 0.6991253
vt 0.67587495 0.6991253
vt 0.8539409 0.7289409
vt 0.8539409 0.7289409
vt 0.6460592 0.7289409
vt 0.6460592 0.7289409
vt 0.6460592 0.52105916
vt 0.6460592 0.52105916
vt 0.8539409 0.52105916
vt 0.8539409 0.52105916
vt 0.6460592 0.7289409
vt 0.6460592 0.7289409
vt 0.6460592 0.52105916
vt 0.6460592 0.52105916
vt 0.67587495 0.5508748
vt 0.67587495 0.6991253
vt 0.8241253 0.6991253
vt 0.8241253 0.5508748
vt 0.67587495 0.5508748
vt 0.67587495 0.5508748
vt 0.8241253 0.5508748
vt 0.8241253 0.5508748
vt 0.67587495 0.6991253
vt 0.67587495 0.6991253
vt 0.67587495 0.5508748
vt 0.67587495 0.5508748
vt 0.8241253 0.5508748
vt 0.8241253 0.5508748
vt 0.8241253 0.6991253
vt 0.8241253 0.6991253
vt 0.67587495 0.5508748
vt 0.6460592 0.7289409
vt 0.67587495 0.6991253
vt 0.6460592 0.52105916
vt 0.8539409 0.7289409
vt 0.8241253 0.5508748
vt 0.8241253 0.6991253
vt 0.8539409 0.52105916
vn -1 0 0
vn -1 0 0
vn -1 0 0
vn -1 0 0
vn -0 1 0
vn -0 1 0
vn -0 1 0
vn -0 1 0
vn 1 0 0
vn 1 0 0
vn 1 0 0
vn 1 0 0
vn -0 -1 0
vn -0 -1 0
vn -0 -1 0
vn -0 -1 0
vn -0 0 -1
vn -0 0 -1
vn -0 0 -1
vn -0 0 -1
vn -1 0 0
vn -1 0 0
vn -1 0 0
vn -1 0 0
vn 0.07701804 0 0.99702966
vn 0.07701804 0 0.99702966
vn 0.07701804 0 0.99702966
vn 0.07701804 0 0.99702966
vn -0 -0.07702002 0.99702954
vn -0 -0.07702002 0.99702954
vn -0 -0.07702002 0.99702954
vn -0 -0.07702002 0.99702954
vn -0.07701801 0 0.99702966
vn -0.07701801 0 0.99702966
vn -0.07701801 0 0.99702966
vn -0.07701801 0 0.99702966
vn -0 0.07702011 0.99702954
vn -0 0.07702011 0.99702954
vn -0 0.07702011 0.99702954
vn -0 0.07702011 0.99702954
vn -0 -0.9756758 0.21921831
vn -0 -0.9756758 0.21921831
vn -0 -0.9756758 0.21921831
vn -0 -0.9756758 0.21921831
vn -0 -1 0
vn -0 -1 0
vn -0 -1 0
vn -0 -1 0
vn -0 1 0
vn -0 1 0
vn -0 1 0
vn -0 1 0
vn 1 0 0
vn 1 0 0
vn 1 0 0
vn 1 0 0
vn -0 0 1
vn -0 0 1
vn -0 0 1
vn -0 0 1
vn -0 0.9756758 0.21921824
vn -0 0.9756758 0.21921824
vn -0 0.9756758 0.21921824
vn -0 0.9756758 0.21921824
vn 0.9756758 0 0.21921833
vn 0.9756758 0 0.21921833
vn 0.9756758 0 0.21921833
vn 0.9756758 0 0.21921833
vn -0.9756758 0 0.21921833
vn -0.9756758 0 0.21921833
vn -0.9756758 0 0.21921833
vn -0.9756758 0 0.21921833
vn -0 0 1
vn -0 0 1
vn -0 0 1
vn -0 0 1
vn -0 0 1
vn -0 0 1
vn -0 0 1
vn -0 0 1
g Defense Tower lvl 2 _0
f 3/3/3 2/2/2 1/1/1
f 4/4/4 3/3/3 1/1/1
f 7/7/7 6/6/6 5/5/5
f 8/8/8 7/7/7 5/5/5
f 11/11/11 10/10/10 9/9/9
f 12/12/12 11/11/11 9/9/9
f 15/15/15 14/14/14 13/13/13
f 16/16/16 15/15/15 13/13/13
f 19/19/19 18/18/18 17/17/17
f 20/20/20 19/19/19 17/17/17
f 23/23/23 22/22/22 21/21/21
f 24/24/24 23/23/23 21/21/21
f 27/27/27 26/26/26 25/25/25
f 28/28/28 27/27/27 25/25/25
f 31/31/31 30/30/30 29/29/29
f 32/32/32 31/31/31 29/29/29
f 35/35/35 34/34/34 33/33/33
f 36/36/36 35/35/35 33/33/33
f 39/39/39 38/38/38 37/37/37
f 40/40/40 39/39/39 37/37/37
f 43/43/43 42/42/42 41/41/41
f 44/44/44 43/43/43 41/41/41
f 47/47/47 46/46/46 45/45/45
f 48/48/48 47/47/47 45/45/45
f 51/51/51 50/50/50 49/49/49
f 52/52/52 51/51/51 49/49/49
f 55/55/55 54/54/54 53/53/53
f 56/56/56 55/55/55 53/53/53
f 59/59/59 58/58/58 57/57/57
f 60/60/60 59/59/59 57/57/57
f 63/63/63 62/62/62 61/61/61
f 64/64/64 63/63/63 61/61/61
f 67/67/67 66/66/66 65/65/65
f 68/68/68 67/67/67 65/65/65
f 71/71/71 70/70/70 69/69/69
f 72/72/72 71/71/71 69/69/69
f 75/75/75 74/74/74 73/73/73
f 74/74/74 76/76/76 73/73/73
f 77/77/77 74/74/74 75/75/75
f 73/73/73 76/76/76 78/78/78
f 79/79/79 77/77/77 75/75/75
f 76/76/76 80/80/80 78/78/78
f 80/80/80 77/77/77 79/79/79
f 78/78/78 80/80/80 79/79/79
