g Eismoloch Head 1
v -0 -0.0018924545 -7.627363
v -0.242356 -1.4673592 -7.603335
v -0 -1.5034965 -7.6538205
v -0 -0.0018924545 -7.627363
v -0 1.4604762 -7.3841634
v -0.27845514 1.432483 -7.378252
v -0 -0.0018924545 -7.627363
v -0 -1.5034965 -7.6538205
v 0.242356 -1.4673592 -7.603335
v -0 -0.0018924545 -7.627363
v 0.27845514 1.432483 -7.378252
v -0 1.4604762 -7.3841634
v -0 1.2821357 8.514784
v 0.4485729 1.2562517 8.523517
v -0 -0.17370972 8.004778
v -0 3.0688536 8.351387
v 0.7672271 3.0304859 8.416725
v -0 4.6045003 7.091653
v 0.71304774 1.1718088 8.470515
v -0 -0.17370972 8.004778
v 0.86163795 4.4965663 7.162054
v -0 5.1836333 5.2761292
v 1.3088063 2.8038025 8.328886
v 0.79599494 5.0746284 5.328459
v -0 5.2930546 3.8058329
v 0.943782 1.0312752 8.360307
v -0 -0.17370972 8.004778
v 1.6772159 4.1273127 7.0969934
v 0.8109431 5.0912867 3.7208838
v -0 5.5158024 2.4650927
v 1.7661989 2.4284275 8.087585
v 1.9545653 4.8772683 5.429887
v 0.9528032 5.2265983 2.3195071
v -0 5.822466 0.9821431
v 1.132512 0.8464028 8.205541
v -0 -0.17370972 8.004778
v 2.4216945 3.5888877 6.860291
v 2.248458 5.1739697 3.8688097
v 1.1146661 5.6595 0.9405078
v -0 6.5140676 -0.3236959
v 2.1205463 1.9653462 7.714776
v 3.1790562 4.563483 5.4672422
v 2.4652123 5.4184365 2.4818513
v 1.2897213 6.407668 -0.31286773
v -0 7.000229 -1.5754079
v 1.2742937 0.6326921 8.0278015
v -0 -0.17370972 8.004778
v 3.035955 2.9725385 6.484638
v 3.8850088 5.4059567 4.329503
v 2.6310863 5.8948154 1.1421633
v 1.3900895 6.8960867 -1.5751354
v -0 6.8999305 -2.8715243
v 2.3746989 1.4759955 7.29318
v 4.1762433 4.0703197 5.507905
v 4.2102013 5.958377 3.1029859
v 2.845003 6.5364947 -0.1755608
v 1.4099743 6.8447385 -2.9064703
v -0 6.226147 -4.1600623
v 1.3668149 0.40018412 7.8478584
v -0 -0.17370972 8.004778
v 5.163956 5.048668 4.707794
v 4.1668963 6.061053 1.5052943
v 3.1711109 7.158202 -1.6492604
v 1.2639333 6.161022 -4.1931095
v -0 5.2949286 -5.294755
v 5.5596724 5.464034 3.412475
v 4.4599047 6.546988 -0.14066003
v 3.1811612 6.9940124 -3.1308765
v 1.0437002 5.204696 -5.302401
v -0 4.1602354 -6.2259736
v 5.4350796 5.401767 1.6593823
v 4.9555173 7.1000075 -1.860214
v 2.7393453 6.1523056 -4.3555417
v 0.81199634 4.080301 -6.2259736
v -0 2.865672 -6.9179306
v 5.6753592 5.7277584 -0.16265248
v 4.9182496 6.968173 -3.3829937
v 2.1135683 4.9887533 -5.3530436
v 0.5594406 2.8106146 -6.917934
v -0 1.4604762 -7.3841634
v 6.198737 6.3345857 -1.9177254
v 4.1969485 6.008136 -4.540352
v 1.594871 3.8463275 -6.2278576
v 0.29402652 1.4323052 -7.392202
v -0 -0.0018924545 -7.627363
v 1.0972853 2.64753 -6.9195876
v 3.1512945 4.636025 -5.4232984
v 6.0994554 6.2579584 -3.4455779
v 0.5699229 1.349043 -7.4025164
v -0 -0.0018924545 -7.627363
v 2.3222234 3.4709425 -6.23388
v 5.2341585 5.339792 -4.5851197
v 1.5936586 2.3826597 -6.9249806
v 3.9884768 4.016596 -5.441703
v 0.8258125 1.2138097 -7.417398
v -0 -0.0018924545 -7.627363
v 2.9550433 2.956277 -6.235636
v 2.02966 2.0261707 -6.9348807
v 1.052757 1.031738 -7.4384017
v -0 -0.0018924545 -7.627363
v 6.577234 4.7761683 -3.2641606
v 5.7354574 4.0873327 -4.4523473
v 4.5490294 3.104583 -5.3875504
v 3.4652996 2.3179758 -6.230422
v 2.3907738 1.5916018 -6.9540577
v 6.7411437 4.7998013 -1.7520173
v 1.2422023 0.809813 -7.4652195
v -0 -0.0018924545 -7.627363
v 6.39867 4.3582635 -0.079618186
v 6.309882 4.2569027 1.6266444
v 6.3650775 4.374248 3.3769534
v 5.904531 4.0874796 4.729095
v 4.7981896 3.2730603 5.4921217
v 3.4702787 2.3018517 6.132762
v 2.5407305 0.99641037 6.927421
v 3.730447 1.5774277 5.8972383
v 5.089247 2.2187266 5.3598933
v 6.1627355 2.741997 4.4950004
v 6.676852 2.8972077 3.1022937
v 1.408475 0.15216875 7.677034
v -0 -0.17370972 8.004778
v 2.6252928 0.51740336 6.6602097
v 3.8657491 0.82651377 5.7481203
v 5.1730623 1.096211 5.191887
v 1.4010739 -0.102821834 7.5321283
v -0 -0.17370972 8.004778
v 2.620259 0.025332455 6.477308
v 6.8361998 2.8572757 1.5025543
v 6.1803493 1.2823592 4.222555
v 3.8990915 0.09688167 5.682672
v 1.3468955 -0.3585142 7.420576
v -0 -0.17370972 8.004778
v 2.5266025 -0.47398633 6.3704348
v 5.15976 0.0807505 5.071775
v 6.804455 1.3696703 2.8825128
v 6.9153175 2.8638806 -0.002958629
v 1.2472445 -0.6083673 7.338913
v -0 -0.17370972 8.004778
v 3.7621489 -0.6256463 5.6221967
v 6.178273 0.02487789 4.1112175
v 7.1918645 1.4251093 1.4527322
v 6.9114285 2.9524622 -1.5236635
v 2.3457043 -0.9649036 6.3265605
v 4.9347706 -0.85266984 4.9348354
v 6.9058313 0.005115941 2.856441
v 7.3444433 1.4609915 -3.2329564E-07
v 6.6320176 2.9174979 -2.991434
v 1.1058835 -0.8435082 7.287596
v -0 -0.17370972 8.004778
v 5.9362683 -1.0982785 3.9944568
v 7.3444443 0.00017256396 1.4608197
v 7.20333 1.4329228 -1.4608197
v 5.9111214 2.5597746 -4.25403
v 6.702616 -1.2990892 2.8037627
v 7.4883213 0.00017200607 -3.2329564E-07
v 6.7873464 1.3519427 -2.8669267
v 4.926419 2.0646002 -5.318973
v 7.182272 -1.4205061 1.44547
v 7.3444443 0.00017256396 -1.4608197
v 6.1108146 1.2193207 -4.16308
v 3.844382 1.5922908 -6.227214
v 7.344442 -1.4606472 -3.2329564E-07
v 6.9183397 0.00017211765 -2.8655005
v 5.193693 1.033426 -5.2949586
v 2.6672854 1.0953546 -6.9906726
v 7.20333 -1.4325776 -1.4608197
v 6.226381 0.00017245239 -4.1600623
v 4.089937 0.811086 -6.249577
v 1.3868022 0.5565677 -7.496729
v -0 -0.0018924545 -7.627363
v 2.8500082 0.5562255 -7.0442123
v 5.302625 -0.0017562057 -5.3040624
v 6.7854133 -1.3494493 -2.8655005
v 1.4807646 0.28174466 -7.531092
v -0 -0.0018924545 -7.627363
v 4.2190924 -0.009373812 -6.3272266
v 6.1276217 -1.2222625 -4.177383
v 2.9449754 -0.007927779 -7.125156
v 5.318655 -1.068799 -5.426174
v 1.5218974 -0.0043575647 -7.568071
v -0 -0.0018924545 -7.627363
v 4.2790956 -0.85479033 -6.4999733
v 2.958072 -0.579112 -7.235281
v 1.5077236 -0.29066592 -7.604239
v -0 -0.0018924545 -7.627363
v 6.401655 -2.6519334 -2.8737407
v 5.891016 -2.445024 -4.285727
v 5.235384 -2.1455538 -5.6532245
v 4.22187 -1.6872814 -6.711236
v 2.8722892 -1.1330874 -7.3494673
v 6.785411 -2.810268 -1.4608197
v 1.4365548 -0.5659112 -7.634432
v -0 -0.0018924545 -7.627363
v 6.9137483 -2.8627012 -0.003343722
v 6.6961865 -2.7529998 1.3945711
v 6.1513 -2.4807694 2.6772134
v 5.3606663 -2.0956833 3.7939036
v 4.446985 -1.697962 4.748501
v 3.4423366 -1.3220099 5.5421634
v 2.0845294 -1.431348 6.339801
v 2.992793 -1.9737309 5.5009637
v 3.7872782 -2.4713426 4.6008487
v 4.5406466 -2.9737446 3.5850756
v 5.2932563 -3.4982214 2.496954
v 0.92800504 -1.0548652 7.26634
v -0 -0.17370972 8.004778
v 1.75199 -1.8621129 6.3930697
v 2.4785109 -2.5950756 5.549499
v 3.0786324 -3.23849 4.594278
v 0.71946543 -1.2331706 7.271048
v -0 -0.17370972 8.004778
v 1.3603201 -2.2355456 6.478185
v 5.9057064 -3.930833 1.3068367
v 3.665316 -3.8544688 3.5215473
v 1.9299593 -3.173112 5.691396
v 0.48649594 -1.3697906 7.294343
v -0 -0.17370972 8.004778
v 0.92116207 -2.5330026 6.584997
v 2.385097 -4.001554 4.7444863
v 4.316793 -4.4740973 2.4126537
v 6.204488 -4.1439013 -0.01644987
v 0.2351905 -1.4587913 7.3286943
v -0 -0.17370972 8.004778
v 1.3411242 -3.6596315 5.8806643
v 2.8350666 -4.7589803 3.648506
v 4.9095626 -4.985422 1.2462916
v 6.1067495 -4.079954 -1.4608197
v 0.4441497 -2.7363777 6.6973286
v 1.677651 -4.6752768 4.97312
v 3.3472228 -5.4445133 2.4964733
v 5.2511373 -5.2647014 -0.037137054
v 5.826232 -3.905596 -2.9205534
v -0 -1.4958097 7.365428
v -0 -0.17370972 8.004778
v -0 -2.8284955 6.793534
v 0.68432075 -3.9922879 6.0526934
v -0 -4.1290836 6.165094
v 0.88176996 -5.1390843 5.1707606
v -0 -5.3181906 5.2750807
v 2.005579 -5.572207 3.880625
v 1.058622 -6.1110053 4.070113
v -0 -6.3022823 4.167845
v 2.3567247 -6.296459 2.6799746
v 1.244324 -6.8471828 2.832139
v -0 -7.023191 2.9032185
v 3.8336916 -5.9698496 1.2877072
v 2.6816623 -6.7895675 1.3911719
v 1.4019583 -7.285177 1.4756616
v -0 -7.4218373 1.4977255
v 4.1529927 -6.306418 -0.037048988
v 2.9118643 -7.1343927 -0.018994477
v 1.510091 -7.545578 -2.9076124E-05
v -0 -7.546789 0.007957629
v 5.2356706 -5.2747483 -1.473753
v 4.233462 -6.4625063 -1.5084445
v 3.0124276 -7.3700624 -1.5248636
v 1.5693879 -7.7225714 -1.5093842
v -0 -7.5860877 -1.4822748
v 5.1590858 -5.2239137 -3.0071642
v 4.307487 -6.5094557 -3.0735517
v 3.114728 -7.4086127 -3.085209
v 1.608996 -7.6463895 -3.031203
v -0 -7.327198 -2.9432025
v 5.5480027 -3.7055354 -4.4749436
v 5.099266 -5.0666714 -4.680475
v 5.018389 -3.2470362 -5.9216075
v 4.351098 -6.3478007 -4.8932815
v 3.146145 -7.199678 -5.083329
v 1.6656872 -7.401703 -5.1089563
v -0 -6.9847245 -4.8052983
v 4.009624 -2.5105867 -6.953532
v 4.62868 -4.479003 -6.257367
v 3.8394122 -5.69682 -6.662102
v 2.6298153 -6.500466 -7.0902643
v 1.3516749 -6.9006577 -7.484788
v -0 -6.7281446 -7.30552
v 2.667193 -1.6635019 -7.4769263
v 3.5957854 -3.4280844 -7.312176
v 2.8671517 -4.383393 -7.781028
v 1.913902 -5.161288 -8.328367
v 0.9630164 -5.559761 -8.651996
v -0 -5.4776077 -8.485977
v 1.3094537 -0.82219154 -7.6614428
v -0 -0.0018924545 -7.627363
v 2.3319712 -2.1844018 -7.650087
v 1.8602266 -2.6914427 -7.8836865
v 1.1302732 -1.0524322 -7.6874895
v -0 -0.0018924545 -7.627363
v 1.2859371 -3.113229 -8.11555
v 0.66696924 -3.3575013 -8.216453
v -0 -3.3566341 -8.067077
v 0.90457946 -1.2453499 -7.706357
v -0 -0.0018924545 -7.627363
v 0.64174396 -1.3899996 -7.710439
v -0 -0.0018924545 -7.627363
v 0.35392007 -1.4777178 -7.693952
v -0 -0.0018924545 -7.627363
v -0 -1.5034965 -7.6538205
v -0 -0.0018924545 -7.627363
v -0 1.2821357 8.514784
v -0 -0.17370972 8.004778
v -0.4485729 1.2562517 8.523517
v -0 3.0688536 8.351387
v -0.7672271 3.0304859 8.416725
v -0 4.6045003 7.091653
v -0.71304774 1.1718088 8.470515
v -0 -0.17370972 8.004778
v -0.86163795 4.4965663 7.162054
v -0 5.1836333 5.2761292
v -1.3088063 2.8038025 8.328886
v -0.79599494 5.0746284 5.328459
v -0 5.2930546 3.8058329
v -0.943782 1.0312752 8.360307
v -0 -0.17370972 8.004778
v -1.6772159 4.1273127 7.0969934
v -0.8109431 5.0912867 3.7208838
v -0 5.5158024 2.4650927
v -1.7661989 2.4284275 8.087585
v -1.9545653 4.8772683 5.429887
v -0.9528032 5.2265983 2.3195071
v -0 5.822466 0.9821431
v -1.132512 0.8464028 8.205541
v -0 -0.17370972 8.004778
v -2.4216945 3.5888877 6.860291
v -2.248458 5.1739697 3.8688097
v -1.1146661 5.6595 0.9405078
v -0 6.5140676 -0.3236959
v -2.1205463 1.9653462 7.714776
v -3.1790562 4.563483 5.4672422
v -2.4652123 5.4184365 2.4818513
v -1.2897213 6.407668 -0.31286773
v -0 7.000229 -1.5754079
v -1.2742937 0.6326921 8.0278015
v -0 -0.17370972 8.004778
v -3.035955 2.9725385 6.484638
v -3.8850088 5.4059567 4.329503
v -2.6310863 5.8948154 1.1421633
v -1.3900895 6.8960867 -1.5751354
v -0 6.8999305 -2.8715243
v -2.3746989 1.4759955 7.29318
v -4.1762433 4.0703197 5.507905
v -4.2102013 5.958377 3.1029859
v -2.845003 6.5364947 -0.1755608
v -1.4099743 6.8447385 -2.9064703
v -0 6.226147 -4.1600623
v -1.3668149 0.40018412 7.8478584
v -0 -0.17370972 8.004778
v -5.163956 5.048668 4.707794
v -4.1668963 6.061053 1.5052943
v -3.1711109 7.158202 -1.6492604
v -1.2639333 6.161022 -4.1931095
v -0 5.2949286 -5.294755
v -5.5596724 5.464034 3.412475
v -4.4599047 6.546988 -0.14066003
v -3.1811612 6.9940124 -3.1308765
v -1.0437002 5.204696 -5.302401
v -0 4.1602354 -6.2259736
v -5.4350796 5.401767 1.6593823
v -4.9555173 7.1000075 -1.860214
v -2.7393453 6.1523056 -4.3555417
v -0.81199634 4.080301 -6.2259736
v -0 2.865672 -6.9179306
v -5.6753592 5.7277584 -0.16265248
v -4.9182496 6.968173 -3.3829937
v -2.1135683 4.9887533 -5.3530436
v -0.5594406 2.8106146 -6.917934
v -0 1.4604762 -7.3841634
v -6.198737 6.3345857 -1.9177254
v -4.1969485 6.008136 -4.540352
v -1.594871 3.8463275 -6.2278576
v -0.29402652 1.4323052 -7.392202
v -0 -0.0018924545 -7.627363
v -1.0972853 2.64753 -6.9195876
v -3.1512945 4.636025 -5.4232984
v -6.0994554 6.2579584 -3.4455779
v -0.5699229 1.349043 -7.4025164
v -0 -0.0018924545 -7.627363
v -2.3222234 3.4709425 -6.23388
v -5.2341585 5.339792 -4.5851197
v -1.5936586 2.3826597 -6.9249806
v -3.9884768 4.016596 -5.441703
v -0.8258125 1.2138097 -7.417398
v -0 -0.0018924545 -7.627363
v -2.9550433 2.956277 -6.235636
v -2.02966 2.0261707 -6.9348807
v -1.052757 1.031738 -7.4384017
v -0 -0.0018924545 -7.627363
v -6.577234 4.7761683 -3.2641606
v -5.7354574 4.0873327 -4.4523473
v -4.5490294 3.104583 -5.3875504
v -3.4652996 2.3179758 -6.230422
v -2.3907738 1.5916018 -6.9540577
v -6.7411437 4.7998013 -1.7520173
v -1.2422023 0.809813 -7.4652195
v -0 -0.0018924545 -7.627363
v -6.39867 4.3582635 -0.079618186
v -6.309882 4.2569027 1.6266444
v -6.3650775 4.374248 3.3769534
v -5.904531 4.0874796 4.729095
v -4.7981896 3.2730603 5.4921217
v -3.4702787 2.3018517 6.132762
v -2.5407305 0.99641037 6.927421
v -3.730447 1.5774277 5.8972383
v -5.089247 2.2187266 5.3598933
v -6.1627355 2.741997 4.4950004
v -6.676852 2.8972077 3.1022937
v -1.408475 0.15216875 7.677034
v -0 -0.17370972 8.004778
v -2.6252928 0.51740336 6.6602097
v -3.8657491 0.82651377 5.7481203
v -5.1730623 1.096211 5.191887
v -1.4010739 -0.102821834 7.5321283
v -0 -0.17370972 8.004778
v -2.620259 0.025332455 6.477308
v -6.8361998 2.8572757 1.5025543
v -6.1803493 1.2823592 4.222555
v -3.8990915 0.09688167 5.682672
v -1.3468955 -0.3585142 7.420576
v -0 -0.17370972 8.004778
v -2.5266025 -0.47398633 6.3704348
v -5.15976 0.0807505 5.071775
v -6.804455 1.3696703 2.8825128
v -6.9153175 2.8638806 -0.002958629
v -1.2472445 -0.6083673 7.338913
v -0 -0.17370972 8.004778
v -3.7621489 -0.6256463 5.6221967
v -6.178273 0.02487789 4.1112175
v -7.1918645 1.4251093 1.4527322
v -6.9114285 2.9524622 -1.5236635
v -2.3457043 -0.9649036 6.3265605
v -4.9347706 -0.85266984 4.9348354
v -6.9058313 0.005115941 2.856441
v -7.3444433 1.4609915 -3.2329564E-07
v -6.6320176 2.9174979 -2.991434
v -1.1058835 -0.8435082 7.287596
v -0 -0.17370972 8.004778
v -5.9362683 -1.0982785 3.9944568
v -7.3444443 0.00017256396 1.4608197
v -7.20333 1.4329228 -1.4608197
v -5.9111214 2.5597746 -4.25403
v -6.702616 -1.2990892 2.8037627
v -7.4883213 0.00017200607 -3.2329564E-07
v -6.7873464 1.3519427 -2.8669267
v -4.926419 2.0646002 -5.318973
v -7.182272 -1.4205061 1.44547
v -7.3444443 0.00017256396 -1.4608197
v -6.1108146 1.2193207 -4.16308
v -3.844382 1.5922908 -6.227214
v -7.344442 -1.4606472 -3.2329564E-07
v -6.9183397 0.00017211765 -2.8655005
v -5.193693 1.033426 -5.2949586
v -2.6672854 1.0953546 -6.9906726
v -7.20333 -1.4325776 -1.4608197
v -6.226381 0.00017245239 -4.1600623
v -4.089937 0.811086 -6.249577
v -1.3868022 0.5565677 -7.496729
v -0 -0.0018924545 -7.627363
v -2.8500082 0.5562255 -7.0442123
v -5.302625 -0.0017562057 -5.3040624
v -6.7854133 -1.3494493 -2.8655005
v -1.4807646 0.28174466 -7.531092
v -0 -0.0018924545 -7.627363
v -4.2190924 -0.009373812 -6.3272266
v -6.1276217 -1.2222625 -4.177383
v -2.9449754 -0.007927779 -7.125156
v -5.318655 -1.068799 -5.426174
v -1.5218974 -0.0043575647 -7.568071
v -0 -0.0018924545 -7.627363
v -4.2790956 -0.85479033 -6.4999733
v -2.958072 -0.579112 -7.235281
v -1.5077236 -0.29066592 -7.604239
v -0 -0.0018924545 -7.627363
v -6.401655 -2.6519334 -2.8737407
v -5.891016 -2.445024 -4.285727
v -5.235384 -2.1455538 -5.6532245
v -4.22187 -1.6872814 -6.711236
v -2.8722892 -1.1330874 -7.3494673
v -6.785411 -2.810268 -1.4608197
v -1.4365548 -0.5659112 -7.634432
v -0 -0.0018924545 -7.627363
v -6.9137483 -2.8627012 -0.003343722
v -6.6961865 -2.7529998 1.3945711
v -6.1513 -2.4807694 2.6772134
v -5.3606663 -2.0956833 3.7939036
v -4.446985 -1.697962 4.748501
v -3.4423366 -1.3220099 5.5421634
v -2.0845294 -1.431348 6.339801
v -2.992793 -1.9737309 5.5009637
v -3.7872782 -2.4713426 4.6008487
v -4.5406466 -2.9737446 3.5850756
v -5.2932563 -3.4982214 2.496954
v -0.92800504 -1.0548652 7.26634
v -0 -0.17370972 8.004778
v -1.75199 -1.8621129 6.3930697
v -2.4785109 -2.5950756 5.549499
v -3.0786324 -3.23849 4.594278
v -0.71946543 -1.2331706 7.271048
v -0 -0.17370972 8.004778
v -1.3603201 -2.2355456 6.478185
v -5.9057064 -3.930833 1.3068367
v -3.665316 -3.8544688 3.5215473
v -1.9299593 -3.173112 5.691396
v -0.48649594 -1.3697906 7.294343
v -0 -0.17370972 8.004778
v -0.92116207 -2.5330026 6.584997
v -2.385097 -4.001554 4.7444863
v -4.316793 -4.4740973 2.4126537
v -6.204488 -4.1439013 -0.01644987
v -0.2351905 -1.4587913 7.3286943
v -0 -0.17370972 8.004778
v -1.3411242 -3.6596315 5.8806643
v -2.8350666 -4.7589803 3.648506
v -4.9095626 -4.985422 1.2462916
v -6.1067495 -4.079954 -1.4608197
v -0.4441497 -2.7363777 6.6973286
v -1.677651 -4.6752768 4.97312
v -3.3472228 -5.4445133 2.4964733
v -5.2511373 -5.2647014 -0.037137054
v -5.826232 -3.905596 -2.9205534
v -0 -1.4958097 7.365428
v -0 -0.17370972 8.004778
v -0 -2.8284955 6.793534
v -0.68432075 -3.9922879 6.0526934
v -0 -4.1290836 6.165094
v -0.88176996 -5.1390843 5.1707606
v -0 -5.3181906 5.2750807
v -2.005579 -5.572207 3.880625
v -1.058622 -6.1110053 4.070113
v -0 -6.3022823 4.167845
v -2.3567247 -6.296459 2.6799746
v -1.244324 -6.8471828 2.832139
v -0 -7.023191 2.9032185
v -3.8336916 -5.9698496 1.2877072
v -2.6816623 -6.7895675 1.3911719
v -1.4019583 -7.285177 1.4756616
v -0 -7.4218373 1.4977255
v -4.1529927 -6.306418 -0.037048988
v -2.9118643 -7.1343927 -0.018994477
v -1.510091 -7.545578 -2.9076124E-05
v -0 -7.546789 0.007957629
v -5.2356706 -5.2747483 -1.473753
v -4.233462 -6.4625063 -1.5084445
v -3.0124276 -7.3700624 -1.5248636
v -1.5693879 -7.7225714 -1.5093842
v -0 -7.5860877 -1.4822748
v -5.1590858 -5.2239137 -3.0071642
v -4.307487 -6.5094557 -3.0735517
v -3.114728 -7.4086127 -3.085209
v -1.608996 -7.6463895 -3.031203
v -0 -7.327198 -2.9432025
v -5.5480027 -3.7055354 -4.4749436
v -5.099266 -5.0666714 -4.680475
v -5.018389 -3.2470362 -5.9216075
v -4.351098 -6.3478007 -4.8932815
v -3.146145 -7.199678 -5.083329
v -1.6656872 -7.401703 -5.1089563
v -0 -6.9847245 -4.8052983
v -4.009624 -2.5105867 -6.953532
v -4.62868 -4.479003 -6.257367
v -3.8394122 -5.69682 -6.662102
v -2.6298153 -6.500466 -7.0902643
v -1.3516749 -6.9006577 -7.484788
v -0 -6.7281446 -7.30552
v -2.667193 -1.6635019 -7.4769263
v -3.5957854 -3.4280844 -7.312176
v -2.8671517 -4.383393 -7.781028
v -1.913902 -5.161288 -8.328367
v -0.9630164 -5.559761 -8.651996
v -0 -5.4776077 -8.485977
v -1.3094537 -0.82219154 -7.6614428
v -0 -0.0018924545 -7.627363
v -2.3319712 -2.1844018 -7.650087
v -1.8602266 -2.6914427 -7.8836865
v -1.1302732 -1.0524322 -7.6874895
v -0 -0.0018924545 -7.627363
v -1.2859371 -3.113229 -8.11555
v -0.66696924 -3.3575013 -8.216453
v -0 -3.3566341 -8.067077
v -0.90457946 -1.2453499 -7.706357
v -0 -0.0018924545 -7.627363
v -0.64174396 -1.3899996 -7.710439
v -0 -0.0018924545 -7.627363
v -0.35392007 -1.4777178 -7.693952
v -0 -0.0018924545 -7.627363
v -0 -1.5034965 -7.6538205
v -0 -0.0018924545 -7.627363
vt 0.234375 0
vt 0.21875003 0.06249994
vt 0.25 0.06249994
vt 0.765625 0
vt 0.74999994 0.06249988
vt 0.78125 0.06249988
vt 0.234375 0
vt 0.25 0.06249994
vt 0.21875003 0.06249994
vt 0.765625 0
vt 0.78125 0.06249988
vt 0.74999994 0.06249988
vt 0.75 0.93750006
vt 0.71875 0.93750006
vt 0.734375 1
vt 0.75 0.875
vt 0.71875 0.875
vt 0.75 0.8125
vt 0.6875 0.93750006
vt 0.703125 1
vt 0.71875 0.8125
vt 0.75 0.75000006
vt 0.6875 0.875
vt 0.71875 0.75000006
vt 0.75 0.6875
vt 0.65625 0.93750006
vt 0.671875 1
vt 0.6875 0.8125
vt 0.71875 0.6875
vt 0.75 0.625
vt 0.65625 0.875
vt 0.6875 0.75000006
vt 0.71875 0.625
vt 0.75 0.5625
vt 0.62499994 0.93750006
vt 0.64062494 1
vt 0.65625 0.8125
vt 0.6875 0.6875
vt 0.71875 0.5625
vt 0.7499999 0.5
vt 0.62499994 0.875
vt 0.65625 0.75
vt 0.6875 0.625
vt 0.71875 0.5
vt 0.74999994 0.4375
vt 0.59374994 0.93750006
vt 0.60937494 1
vt 0.62499994 0.8125
vt 0.65625 0.6875
vt 0.6875 0.5625
vt 0.71875 0.4375
vt 0.74999994 0.375
vt 0.59374994 0.875
vt 0.625 0.75000006
vt 0.65625 0.625
vt 0.6875 0.5
vt 0.71875 0.375
vt 0.75 0.31250006
vt 0.56249994 0.93750006
vt 0.57812494 1
vt 0.625 0.68750006
vt 0.65625 0.5625
vt 0.6875 0.4375
vt 0.71875 0.31250006
vt 0.75 0.25
vt 0.625 0.62500006
vt 0.65625 0.5
vt 0.6875 0.375
vt 0.71875 0.25
vt 0.75 0.1875
vt 0.625 0.5625
vt 0.65625 0.4375
vt 0.6875 0.31250006
vt 0.71875 0.1875
vt 0.74999994 0.125
vt 0.625 0.5
vt 0.65625 0.375
vt 0.6875 0.25
vt 0.71875 0.12500006
vt 0.74999994 0.06249988
vt 0.625 0.4375
vt 0.65625 0.31250006
vt 0.6875 0.1875
vt 0.71875 0.06249994
vt 0.73437494 0
vt 0.6875 0.12500006
vt 0.65625 0.25
vt 0.625 0.375
vt 0.6875 0.06249994
vt 0.703125 0
vt 0.65625 0.1875
vt 0.625 0.31250006
vt 0.65625 0.12500006
vt 0.625 0.25
vt 0.65625 0.06249994
vt 0.67187494 0
vt 0.625 0.1875
vt 0.625 0.12500006
vt 0.62499994 0.06249994
vt 0.64062494 0
vt 0.59375 0.375
vt 0.59375 0.31250006
vt 0.59375 0.25
vt 0.59375 0.1875
vt 0.59375 0.12500006
vt 0.59375 0.4375
vt 0.59374994 0.06249994
vt 0.60937494 0
vt 0.59375 0.5
vt 0.59375 0.5625
vt 0.59375 0.62500006
vt 0.59375 0.6875
vt 0.59375 0.75000006
vt 0.59375 0.8125
vt 0.56249994 0.875
vt 0.56249994 0.8125
vt 0.5625 0.75000006
vt 0.5625 0.6875
vt 0.5625 0.62500006
vt 0.53124994 0.93750006
vt 0.5468749 1
vt 0.53124994 0.875
vt 0.53124994 0.8125
vt 0.53125 0.75000006
vt 0.49999994 0.93750006
vt 0.5156249 1
vt 0.49999994 0.875
vt 0.5625 0.5625
vt 0.53125 0.68750006
vt 0.49999997 0.8125
vt 0.46874994 0.93750006
vt 0.48437488 1
vt 0.46874994 0.875
vt 0.5 0.75000006
vt 0.53125 0.62500006
vt 0.5625 0.5
vt 0.43749994 0.93750006
vt 0.45312488 1
vt 0.46874997 0.8125
vt 0.49999997 0.68750006
vt 0.53125 0.5625
vt 0.5625 0.4375
vt 0.43749994 0.875
vt 0.46875 0.75000006
vt 0.5 0.62500006
vt 0.53125 0.5
vt 0.5625 0.375
vt 0.40624994 0.93750006
vt 0.42187488 1
vt 0.46874997 0.68750006
vt 0.5 0.5625
vt 0.53125 0.4375
vt 0.5625 0.31250006
vt 0.46875 0.62500006
vt 0.49999997 0.5
vt 0.53125 0.375
vt 0.5625 0.25
vt 0.46875 0.5625
vt 0.5 0.4375
vt 0.53125 0.31250006
vt 0.56249994 0.1875
vt 0.46874997 0.5
vt 0.49999997 0.375
vt 0.53125 0.25
vt 0.56249994 0.12500006
vt 0.46875 0.4375
vt 0.49999997 0.31250006
vt 0.53124994 0.1875
vt 0.56249994 0.06249994
vt 0.5781249 0
vt 0.53124994 0.12500006
vt 0.5 0.25
vt 0.46874997 0.375
vt 0.53124994 0.06249994
vt 0.5468749 0
vt 0.49999997 0.1875
vt 0.46874997 0.31249994
vt 0.49999997 0.12500006
vt 0.46875 0.25
vt 0.49999994 0.06249994
vt 0.5156249 0
vt 0.46874997 0.1875
vt 0.46874997 0.12500006
vt 0.46874994 0.06249994
vt 0.4843749 0
vt 0.43749997 0.375
vt 0.43749997 0.31249994
vt 0.4375 0.25
vt 0.43749997 0.1875
vt 0.43749997 0.12500006
vt 0.4375 0.4375
vt 0.43749994 0.06249994
vt 0.4531249 0
vt 0.43749997 0.5
vt 0.4375 0.5625
vt 0.4375 0.62500006
vt 0.43749997 0.68750006
vt 0.4375 0.75000006
vt 0.43749997 0.81250006
vt 0.40624997 0.875
vt 0.40624997 0.81250006
vt 0.40625 0.75000006
vt 0.40625 0.68750006
vt 0.40625 0.62500006
vt 0.37499994 0.93750006
vt 0.3906249 1
vt 0.37499994 0.875
vt 0.37499997 0.8125
vt 0.375 0.75000006
vt 0.34374997 0.93750006
vt 0.35937494 1
vt 0.34375 0.875
vt 0.40625 0.5625
vt 0.375 0.68750006
vt 0.34375 0.8125
vt 0.3125 0.93750006
vt 0.3281249 1
vt 0.3125 0.875
vt 0.34375 0.75000006
vt 0.375 0.62500006
vt 0.40624997 0.5
vt 0.28125 0.93750006
vt 0.29687494 1
vt 0.3125 0.8125
vt 0.34375 0.68750006
vt 0.375 0.5625
vt 0.40625 0.4375
vt 0.28125 0.875
vt 0.3125 0.75000006
vt 0.34375 0.62500006
vt 0.37499994 0.5
vt 0.40624997 0.375
vt 0.25 0.93750006
vt 0.26562497 1
vt 0.25 0.875
vt 0.28125 0.8125
vt 0.24999997 0.8125
vt 0.28125 0.75000006
vt 0.25 0.75000006
vt 0.3125 0.68750006
vt 0.28125 0.68750006
vt 0.25 0.68750006
vt 0.3125 0.62500006
vt 0.28125 0.62500006
vt 0.25 0.62500006
vt 0.34375 0.5625
vt 0.3125 0.5625
vt 0.28125 0.5625
vt 0.25 0.56250006
vt 0.34374994 0.5
vt 0.31249997 0.5
vt 0.28124994 0.5
vt 0.24999997 0.5
vt 0.375 0.4375
vt 0.34375 0.4375
vt 0.3125 0.4375
vt 0.28125 0.4375
vt 0.25 0.4375
vt 0.375 0.375
vt 0.34375 0.375
vt 0.3125 0.375
vt 0.28125 0.375
vt 0.24999997 0.375
vt 0.40625 0.31249994
vt 0.375 0.31249994
vt 0.40625 0.25
vt 0.34375 0.31249994
vt 0.3125 0.31249994
vt 0.28125 0.31249994
vt 0.25 0.31249994
vt 0.40624997 0.1875
vt 0.375 0.25
vt 0.34375 0.25
vt 0.3125 0.25
vt 0.28125 0.25
vt 0.25 0.25
vt 0.40624997 0.12500006
vt 0.37499997 0.1875
vt 0.34375 0.1875
vt 0.3125 0.1875
vt 0.28125 0.1875
vt 0.24999997 0.1875
vt 0.40624994 0.06249994
vt 0.4218749 0
vt 0.37499997 0.12500006
vt 0.34375 0.12500006
vt 0.37499994 0.06249994
vt 0.3906249 0
vt 0.3125 0.12500006
vt 0.28125 0.12500006
vt 0.25 0.12500006
vt 0.34374997 0.06249994
vt 0.35937494 0
vt 0.3125 0.06249994
vt 0.32812494 0
vt 0.28125 0.06249994
vt 0.296875 0
vt 0.25 0.06249994
vt 0.265625 0
vt 0.75 0.93750006
vt 0.734375 1
vt 0.71875 0.93750006
vt 0.75 0.875
vt 0.71875 0.875
vt 0.75 0.8125
vt 0.6875 0.93750006
vt 0.703125 1
vt 0.71875 0.8125
vt 0.75 0.75000006
vt 0.6875 0.875
vt 0.71875 0.75000006
vt 0.75 0.6875
vt 0.65625 0.93750006
vt 0.671875 1
vt 0.6875 0.8125
vt 0.71875 0.6875
vt 0.75 0.625
vt 0.65625 0.875
vt 0.6875 0.75000006
vt 0.71875 0.625
vt 0.75 0.5625
vt 0.62499994 0.93750006
vt 0.64062494 1
vt 0.65625 0.8125
vt 0.6875 0.6875
vt 0.71875 0.5625
vt 0.7499999 0.5
vt 0.62499994 0.875
vt 0.65625 0.75
vt 0.6875 0.625
vt 0.71875 0.5
vt 0.74999994 0.4375
vt 0.59374994 0.93750006
vt 0.60937494 1
vt 0.62499994 0.8125
vt 0.65625 0.6875
vt 0.6875 0.5625
vt 0.71875 0.4375
vt 0.74999994 0.375
vt 0.59374994 0.875
vt 0.625 0.75000006
vt 0.65625 0.625
vt 0.6875 0.5
vt 0.71875 0.375
vt 0.75 0.31250006
vt 0.56249994 0.93750006
vt 0.57812494 1
vt 0.625 0.68750006
vt 0.65625 0.5625
vt 0.6875 0.4375
vt 0.71875 0.31250006
vt 0.75 0.25
vt 0.625 0.62500006
vt 0.65625 0.5
vt 0.6875 0.375
vt 0.71875 0.25
vt 0.75 0.1875
vt 0.625 0.5625
vt 0.65625 0.4375
vt 0.6875 0.31250006
vt 0.71875 0.1875
vt 0.74999994 0.125
vt 0.625 0.5
vt 0.65625 0.375
vt 0.6875 0.25
vt 0.71875 0.12500006
vt 0.74999994 0.06249988
vt 0.625 0.4375
vt 0.65625 0.31250006
vt 0.6875 0.1875
vt 0.71875 0.06249994
vt 0.73437494 0
vt 0.6875 0.12500006
vt 0.65625 0.25
vt 0.625 0.375
vt 0.6875 0.06249994
vt 0.703125 0
vt 0.65625 0.1875
vt 0.625 0.31250006
vt 0.65625 0.12500006
vt 0.625 0.25
vt 0.65625 0.06249994
vt 0.67187494 0
vt 0.625 0.1875
vt 0.625 0.12500006
vt 0.62499994 0.06249994
vt 0.64062494 0
vt 0.59375 0.375
vt 0.59375 0.31250006
vt 0.59375 0.25
vt 0.59375 0.1875
vt 0.59375 0.12500006
vt 0.59375 0.4375
vt 0.59374994 0.06249994
vt 0.60937494 0
vt 0.59375 0.5
vt 0.59375 0.5625
vt 0.59375 0.62500006
vt 0.59375 0.6875
vt 0.59375 0.75000006
vt 0.59375 0.8125
vt 0.56249994 0.875
vt 0.56249994 0.8125
vt 0.5625 0.75000006
vt 0.5625 0.6875
vt 0.5625 0.62500006
vt 0.53124994 0.93750006
vt 0.5468749 1
vt 0.53124994 0.875
vt 0.53124994 0.8125
vt 0.53125 0.75000006
vt 0.49999994 0.93750006
vt 0.5156249 1
vt 0.49999994 0.875
vt 0.5625 0.5625
vt 0.53125 0.68750006
vt 0.49999997 0.8125
vt 0.46874994 0.93750006
vt 0.48437488 1
vt 0.46874994 0.875
vt 0.5 0.75000006
vt 0.53125 0.62500006
vt 0.5625 0.5
vt 0.43749994 0.93750006
vt 0.45312488 1
vt 0.46874997 0.8125
vt 0.49999997 0.68750006
vt 0.53125 0.5625
vt 0.5625 0.4375
vt 0.43749994 0.875
vt 0.46875 0.75000006
vt 0.5 0.62500006
vt 0.53125 0.5
vt 0.5625 0.375
vt 0.40624994 0.93750006
vt 0.42187488 1
vt 0.46874997 0.68750006
vt 0.5 0.5625
vt 0.53125 0.4375
vt 0.5625 0.31250006
vt 0.46875 0.62500006
vt 0.49999997 0.5
vt 0.53125 0.375
vt 0.5625 0.25
vt 0.46875 0.5625
vt 0.5 0.4375
vt 0.53125 0.31250006
vt 0.56249994 0.1875
vt 0.46874997 0.5
vt 0.49999997 0.375
vt 0.53125 0.25
vt 0.56249994 0.12500006
vt 0.46875 0.4375
vt 0.49999997 0.31250006
vt 0.53124994 0.1875
vt 0.56249994 0.06249994
vt 0.5781249 0
vt 0.53124994 0.12500006
vt 0.5 0.25
vt 0.46874997 0.375
vt 0.53124994 0.06249994
vt 0.5468749 0
vt 0.49999997 0.1875
vt 0.46874997 0.31249994
vt 0.49999997 0.12500006
vt 0.46875 0.25
vt 0.49999994 0.06249994
vt 0.5156249 0
vt 0.46874997 0.1875
vt 0.46874997 0.12500006
vt 0.46874994 0.06249994
vt 0.4843749 0
vt 0.43749997 0.375
vt 0.43749997 0.31249994
vt 0.4375 0.25
vt 0.43749997 0.1875
vt 0.43749997 0.12500006
vt 0.4375 0.4375
vt 0.43749994 0.06249994
vt 0.4531249 0
vt 0.43749997 0.5
vt 0.4375 0.5625
vt 0.4375 0.62500006
vt 0.43749997 0.68750006
vt 0.4375 0.75000006
vt 0.43749997 0.81250006
vt 0.40624997 0.875
vt 0.40624997 0.81250006
vt 0.40625 0.75000006
vt 0.40625 0.68750006
vt 0.40625 0.62500006
vt 0.37499994 0.93750006
vt 0.3906249 1
vt 0.37499994 0.875
vt 0.37499997 0.8125
vt 0.375 0.75000006
vt 0.34374997 0.93750006
vt 0.35937494 1
vt 0.34375 0.875
vt 0.40625 0.5625
vt 0.375 0.68750006
vt 0.34375 0.8125
vt 0.3125 0.93750006
vt 0.3281249 1
vt 0.3125 0.875
vt 0.34375 0.75000006
vt 0.375 0.62500006
vt 0.40624997 0.5
vt 0.28125 0.93750006
vt 0.29687494 1
vt 0.3125 0.8125
vt 0.34375 0.68750006
vt 0.375 0.5625
vt 0.40625 0.4375
vt 0.28125 0.875
vt 0.3125 0.75000006
vt 0.34375 0.62500006
vt 0.37499994 0.5
vt 0.40624997 0.375
vt 0.25 0.93750006
vt 0.26562497 1
vt 0.25 0.875
vt 0.28125 0.8125
vt 0.24999997 0.8125
vt 0.28125 0.75000006
vt 0.25 0.75000006
vt 0.3125 0.68750006
vt 0.28125 0.68750006
vt 0.25 0.68750006
vt 0.3125 0.62500006
vt 0.28125 0.62500006
vt 0.25 0.62500006
vt 0.34375 0.5625
vt 0.3125 0.5625
vt 0.28125 0.5625
vt 0.25 0.56250006
vt 0.34374994 0.5
vt 0.31249997 0.5
vt 0.28124994 0.5
vt 0.24999997 0.5
vt 0.375 0.4375
vt 0.34375 0.4375
vt 0.3125 0.4375
vt 0.28125 0.4375
vt 0.25 0.4375
vt 0.375 0.375
vt 0.34375 0.375
vt 0.3125 0.375
vt 0.28125 0.375
vt 0.24999997 0.375
vt 0.40625 0.31249994
vt 0.375 0.31249994
vt 0.40625 0.25
vt 0.34375 0.31249994
vt 0.3125 0.31249994
vt 0.28125 0.31249994
vt 0.25 0.31249994
vt 0.40624997 0.1875
vt 0.375 0.25
vt 0.34375 0.25
vt 0.3125 0.25
vt 0.28125 0.25
vt 0.25 0.25
vt 0.40624997 0.12500006
vt 0.37499997 0.1875
vt 0.34375 0.1875
vt 0.3125 0.1875
vt 0.28125 0.1875
vt 0.24999997 0.1875
vt 0.40624994 0.06249994
vt 0.4218749 0
vt 0.37499997 0.12500006
vt 0.34375 0.12500006
vt 0.37499994 0.06249994
vt 0.3906249 0
vt 0.3125 0.12500006
vt 0.28125 0.12500006
vt 0.25 0.12500006
vt 0.34374997 0.06249994
vt 0.35937494 0
vt 0.3125 0.06249994
vt 0.32812494 0
vt 0.28125 0.06249994
vt 0.296875 0
vt 0.25 0.06249994
vt 0.265625 0
vn -0 0.10833593 -0.99411434
vn -0.20143476 0.017255522 -0.9793499
vn -0 0.0930005 -0.995666
vn -0 0.10833593 -0.99411434
vn -0 0.22045259 -0.97539765
vn -0.03740684 0.16393745 -0.98576134
vn -0 0.10833593 -0.99411434
vn -0 0.0930005 -0.995666
vn 0.20143476 0.017255522 -0.9793499
vn -0 0.10833593 -0.99411434
vn 0.03740684 0.16393745 -0.98576134
vn -0 0.22045259 -0.97539765
vn -0 -0.12069812 0.9926892
vn 0.04419917 -0.13312006 0.99011385
vn -0 -0.43613288 0.89988226
vn -0 0.39341688 0.91936016
vn 0.13104068 0.37818164 0.91640985
vn -0 0.8443376 0.53581154
vn 0.2250448 -0.19438595 0.95476127
vn -0 -0.43613288 0.89988226
vn 0.17387879 0.80834776 0.56244123
vn -0 0.9861044 0.16612677
vn 0.40483636 0.27402475 0.8723634
vn 0.1407777 0.9695674 0.20030127
vn -0 0.99590945 0.090357535
vn 0.3742114 -0.27139488 0.8867416
vn -0 -0.43613288 0.89988226
vn 0.40208974 0.69281214 0.5986111
vn 0.10655272 0.98886275 0.10390827
vn -0 0.9795975 0.20096931
vn 0.59832937 0.11640122 0.7927502
vn 0.16399544 0.9205848 0.354442
vn 0.059118316 0.9759368 0.20988688
vn -0 0.9231221 0.38450697
vn 0.46344772 -0.33983615 0.8183689
vn -0 -0.43613288 0.89988226
vn 0.5606823 0.4795419 0.675037
vn -0.1053075 0.9724175 0.20812187
vn 0.0011780313 0.923611 0.38332936
vn -0 0.90324956 0.42911562
vn 0.6938828 -0.038011905 0.7190839
vn 0.2312006 0.7412159 0.63019454
vn -0.20467061 0.95689124 0.20608035
vn -0.026221938 0.9073806 0.41949135
vn -0 0.98785573 0.15537392
vn 0.502186 -0.38212156 0.7757528
vn -0 -0.43613288 0.89988226
vn 0.618513 0.20975399 0.75726146
vn 0.0001742475 0.8896682 0.45660758
vn -0.16853371 0.93178815 0.3215077
vn -0.030105349 0.98727906 0.15612099
vn -0 0.9644902 -0.26411876
vn 0.71020174 -0.14337718 0.68924344
vn 0.35741132 0.4117565 0.8382803
vn 0.04547804 0.9791877 0.19779569
vn -0.08688378 0.92295337 0.37497783
vn -0.037852965 0.95947504 -0.2792394
vn -0 0.8304019 -0.55716485
vn 0.5112166 -0.3993738 0.76102453
vn -0 -0.43613288 0.89988226
vn 0.40734208 0.6574101 0.63394356
vn 0.12444441 0.9692937 0.21209261
vn -0.04438042 0.98899627 0.14112642
vn -0.0069521773 0.8106604 -0.5854752
vn -0 0.7030759 -0.71111476
vn 0.5744559 0.7941189 0.19843262
vn 0.23681207 0.9045008 0.3546806
vn -0.058328845 0.9432361 -0.32696083
vn 0.054273352 0.6779192 -0.7331303
vn -0 0.5579923 -0.8298462
vn 0.6531084 0.752826 0.081868865
vn 0.29648256 0.94419545 0.14350317
vn -0.026463274 0.74786806 -0.6633197
vn 0.08933363 0.54308724 -0.8349107
vn -0 0.40055156 -0.91627425
vn 0.6944307 0.65162414 0.30520794
vn 0.2489855 0.882226 -0.39960405
vn 0.08119529 0.604563 -0.7924082
vn 0.07224531 0.39495656 -0.9158548
vn -0 0.22045259 -0.97539765
vn 0.76205057 0.6334193 0.13438338
vn 0.14467242 0.62088877 -0.770433
vn 0.16010983 0.49942043 -0.8514365
vn 0.027656658 0.24463725 -0.96922016
vn -0 0.10833593 -0.99411434
vn 0.14283152 0.3775463 -0.91490877
vn 0.1772241 0.4737724 -0.8626305
vn 0.7092251 0.5646307 -0.42212805
vn 0.066122405 0.23808064 -0.96899194
vn -0 0.10833593 -0.99411434
vn 0.24122047 0.42611498 -0.8719167
vn 0.476445 0.35346437 -0.80502367
vn 0.20938683 0.3477953 -0.91389036
vn 0.36352482 0.29861808 -0.88242674
vn 0.098393306 0.22781396 -0.9687206
vn -0 0.10833593 -0.99411434
vn 0.34736338 0.33414072 -0.8761784
vn 0.27344555 0.30839634 -0.9111088
vn 0.12599559 0.2149975 -0.968453
vn -0 0.10833593 -0.99411434
vn 0.9153873 0.15077691 -0.37327272
vn 0.6936164 0.09787729 -0.71366405
vn 0.53666514 0.16909945 -0.82667774
vn 0.4483913 0.25698814 -0.8560972
vn 0.32967576 0.26667273 -0.90564865
vn 0.965349 0.25199786 0.06781199
vn 0.14844859 0.20032185 -0.9684184
vn -0 0.10833593 -0.99411434
vn 0.91316444 0.3717976 0.16702458
vn 0.89743197 0.43951008 0.038036786
vn 0.89337593 0.41112548 0.18126038
vn 0.71651584 0.2820092 0.63802487
vn 0.4831469 0.1016439 0.86961925
vn 0.59401697 -0.001520612 0.80445105
vn 0.6833188 -0.19525453 0.7035276
vn 0.55005735 -0.09800984 0.8293558
vn 0.5399205 -0.06177238 0.83944625
vn 0.8116675 0.012393671 0.58398825
vn 0.9637926 0.13781287 0.22827944
vn 0.5045488 -0.40097094 0.76462597
vn -0 -0.43613288 0.89988226
vn 0.63772357 -0.21971682 0.73826367
vn 0.51073784 -0.120967224 0.8511837
vn 0.5597212 -0.0945057 0.8232745
vn 0.491427 -0.3913353 0.77804637
vn -0 -0.43613288 0.89988226
vn 0.5881002 -0.24706201 0.7701289
vn 0.96282774 0.25607023 0.0859698
vn 0.8133437 -0.046339363 0.5799351
vn 0.48424336 -0.16254154 0.8597026
vn 0.47545788 -0.38138124 0.7927724
vn -0 -0.43613288 0.89988226
vn 0.54897344 -0.29242167 0.78301835
vn 0.5643047 -0.15225653 0.81140506
vn 0.94412667 0.058323406 0.32438144
vn 0.9625899 0.26496363 0.056700304
vn 0.4578872 -0.37597603 0.8055938
vn -0 -0.43613288 0.89988226
vn 0.47072917 -0.27108893 0.83959794
vn 0.78029513 -0.12356326 0.61308366
vn 0.97569764 0.15027793 0.15947054
vn 0.9850857 0.15805702 -0.068000466
vn 0.5285323 -0.3321023 0.78125644
vn 0.5313556 -0.32125407 0.783873
vn 0.9150267 -0.056885034 0.39936236
vn 0.98417366 0.1769043 0.010349069
vn 0.9332909 0.053053606 -0.3551808
vn 0.43911248 -0.37085453 0.8183197
vn -0 -0.43613288 0.89988226
vn 0.6930677 -0.33448648 0.6385733
vn 0.9790358 -0.013189183 0.20326048
vn 0.9761136 0.1403501 -0.16584376
vn 0.7833049 0.057219375 -0.61899877
vn 0.8416036 -0.289016 0.45626006
vn 0.99999464 -0.0009197753 0.0031390097
vn 0.9238718 0.094006695 -0.37097654
vn 0.64010054 0.1364317 -0.75608045
vn 0.9414751 -0.2365489 0.24014436
vn 0.98105615 -0.00021203331 -0.19372314
vn 0.82004 0.086437345 -0.56574124
vn 0.52153784 0.20752014 -0.8276073
vn 0.97860754 -0.20527734 0.013731681
vn 0.92584544 0.0015122155 -0.37789938
vn 0.69829315 0.11977965 -0.7057191
vn 0.37491557 0.22515179 -0.8993025
vn 0.9625827 -0.19078046 -0.192451
vn 0.842943 0.022422904 -0.5375354
vn 0.57165486 0.16826569 -0.803055
vn 0.16548835 0.18202588 -0.96926785
vn -0 0.10833593 -0.99411434
vn 0.40375534 0.19177309 -0.8945416
vn 0.7419964 0.08336903 -0.66519994
vn 0.9182025 -0.16270377 -0.36115324
vn 0.17436305 0.1648059 -0.9707917
vn -0 0.10833593 -0.99411434
vn 0.6046842 0.15666881 -0.7809045
vn 0.8689438 -0.08265894 -0.4879591
vn 0.41006944 0.17945896 -0.8942246
vn 0.78770447 0.045585513 -0.6143645
vn 0.17300975 0.15126184 -0.97323567
vn -0 0.10833593 -0.99411434
vn 0.62015736 0.14493968 -0.77097166
vn 0.39414415 0.15811053 -0.90534604
vn 0.160874 0.12771803 -0.9786765
vn -0 0.10833593 -0.99411434
vn 0.9015747 -0.30451524 -0.30730048
vn 0.8991707 -0.17598696 -0.40065026
vn 0.820031 -0.018795867 -0.5720104
vn 0.6116427 0.094233625 -0.7855019
vn 0.3594095 0.12129201 -0.92526376
vn 0.9113717 -0.37010834 -0.1800598
vn 0.14017215 0.10344826 -0.9847082
vn -0 0.10833593 -0.99411434
vn 0.9126592 -0.40622237 0.045126263
vn 0.8375589 -0.4506352 0.3089061
vn 0.6966972 -0.49838513 0.5159704
vn 0.5652675 -0.51851016 0.64157605
vn 0.48843634 -0.47259748 0.7335405
vn 0.47582892 -0.3713922 0.79727954
vn 0.52080166 -0.3510821 0.7781432
vn 0.5135843 -0.4074476 0.75512755
vn 0.51127774 -0.51546776 0.6876686
vn 0.51707065 -0.57130235 0.63737863
vn 0.5809292 -0.58553 0.5653989
vn 0.4163307 -0.37006596 0.83049375
vn -0 -0.43613288 0.89988226
vn 0.5085279 -0.3557164 0.7841334
vn 0.558227 -0.39689595 0.7285989
vn 0.58594614 -0.47986418 0.6529912
vn 0.3830672 -0.376795 0.8433772
vn -0 -0.43613288 0.89988226
vn 0.47530714 -0.35752818 0.803901
vn 0.7104585 -0.5895243 0.3843302
vn 0.5770038 -0.5287715 0.6224687
vn 0.5631599 -0.3862037 0.7305462
vn 0.3309912 -0.39037406 0.8591001
vn -0 -0.43613288 0.89988226
vn 0.40592977 -0.36927703 0.83597577
vn 0.6240225 -0.45379063 0.6361368
vn 0.57997775 -0.5736054 0.5784485
vn 0.8135833 -0.5732888 0.09706775
vn 0.2634715 -0.40274984 0.8765702
vn -0 -0.43613288 0.89988226
vn 0.4897479 -0.41398668 0.7673083
vn 0.6279551 -0.50630885 0.5910361
vn 0.6408905 -0.6397428 0.42425042
vn 0.8490994 -0.51194024 -0.13018228
vn 0.303427 -0.39090624 0.8689789
vn 0.5506302 -0.5081652 0.6622495
vn 0.6054925 -0.5851143 0.5394629
vn 0.7272196 -0.6677362 0.15899718
vn 0.8906748 -0.40653765 -0.2035325
vn -0 -0.4178604 0.9085113
vn -0 -0.43613288 0.89988226
vn -0 -0.4149198 0.90985805
vn 0.3327529 -0.47318533 0.81570286
vn -0 -0.5162343 0.85644746
vn 0.34774518 -0.6132553 0.7092187
vn -0 -0.67269075 0.73992366
vn 0.5570154 -0.5946556 0.57975733
vn 0.33414072 -0.737667 0.58668333
vn -0 -0.80459654 0.5938218
vn 0.5223635 -0.70400435 0.4811593
vn 0.29314315 -0.85439324 0.42904457
vn -0 -0.913475 0.40689474
vn 0.59938663 -0.68898857 0.40746835
vn 0.46958905 -0.8127965 0.34474346
vn 0.2269962 -0.9387709 0.2591948
vn -0 -0.97686154 0.21387295
vn 0.63168955 -0.7470234 0.20718215
vn 0.4325519 -0.87743694 0.20737252
vn 0.14824629 -0.9781003 0.14609203
vn -0 -0.99488896 0.100975536
vn 0.7936905 -0.6074786 -0.032017294
vn 0.67934847 -0.7310559 0.06358257
vn 0.41113812 -0.9076226 0.08477446
vn 0.067370996 -0.99742055 0.024768647
vn -0 -0.9997948 -0.020257687
vn 0.8591342 -0.50516844 -0.08181143
vn 0.7186466 -0.6951738 -0.016743977
vn 0.39314637 -0.9189406 -0.0313719
vn -0.010063239 -0.99562186 -0.09292937
vn -0 -0.9912742 -0.13181615
vn 0.917106 -0.25940523 -0.30269715
vn 0.8885843 -0.39085793 -0.24010018
vn 0.82611734 -0.09485634 -0.55545694
vn 0.7383834 -0.63258475 -0.23372273
vn 0.41501293 -0.8797785 -0.23184928
vn -0.0019257969 -0.9837106 -0.17974882
vn -0 -0.9893087 -0.145836
vn 0.58463216 0.054027196 -0.8094976
vn 0.7948807 -0.21681002 -0.5667082
vn 0.6815678 -0.4328359 -0.59001565
vn 0.47104445 -0.668007 -0.57609373
vn 0.08596998 -0.8386969 -0.5377701
vn -0 -0.8933707 -0.44932047
vn 0.31953153 0.11752638 -0.9402591
vn 0.5476752 0.01632415 -0.8365318
vn 0.5018528 -0.051520213 -0.8634173
vn 0.40096286 -0.14766255 -0.9041153
vn 0.059572026 -0.2827403 -0.9573449
vn -0 -0.2739191 -0.9617527
vn 0.120743066 0.10400108 -0.9872208
vn -0 0.10833593 -0.99411434
vn 0.2857841 0.14814517 -0.9467737
vn 0.25085682 0.18524626 -0.95013404
vn 0.104075596 0.12428554 -0.98677325
vn -0 0.10833593 -0.99411434
vn 0.17017312 0.21049878 -0.9626689
vn -0.03586965 0.20884801 -0.97729003
vn -0 0.20591551 -0.97856987
vn 0.07503267 0.14362925 -0.986783
vn -0 0.10833593 -0.99411434
vn 0.012415363 0.14952533 -0.98867995
vn -0 0.10833593 -0.99411434
vn -0.09154466 0.13901165 -0.9860503
vn -0 0.10833593 -0.99411434
vn -0 0.0930005 -0.995666
vn -0 0.10833593 -0.99411434
vn -0 -0.12069812 0.9926892
vn -0 -0.43613288 0.89988226
vn -0.044199314 -0.13312006 0.99011385
vn -0 0.39341688 0.91936016
vn -0.1310408 0.3781816 0.9164098
vn -0 0.8443376 0.53581154
vn -0.22504485 -0.19438593 0.95476115
vn -0 -0.43613288 0.89988226
vn -0.17387883 0.80834776 0.56244123
vn -0 0.9861044 0.16612677
vn -0.40483636 0.27402475 0.8723634
vn -0.14077774 0.96956754 0.20030119
vn -0 0.99590945 0.090357535
vn -0.37421143 -0.27139485 0.8867416
vn -0 -0.43613288 0.89988226
vn -0.40208972 0.69281214 0.59861106
vn -0.1065527 0.98886275 0.10390825
vn -0 0.9795975 0.20096931
vn -0.59832937 0.11640122 0.7927502
vn -0.16399544 0.9205848 0.35444203
vn -0.059118304 0.97593665 0.20988692
vn -0 0.9231221 0.38450697
vn -0.46344772 -0.33983615 0.8183689
vn -0 -0.43613288 0.89988226
vn -0.5606823 0.4795419 0.675037
vn 0.10530751 0.9724175 0.20812184
vn -0.0011780387 0.923611 0.38332933
vn -0 0.90324956 0.42911562
vn -0.6938828 -0.038011875 0.7190839
vn -0.23120058 0.7412159 0.6301946
vn 0.20467061 0.95689124 0.20608032
vn 0.02622195 0.9073806 0.41949132
vn -0 0.98785573 0.15537392
vn -0.50218594 -0.3821216 0.77575284
vn -0 -0.43613288 0.89988226
vn -0.618513 0.209754 0.7572614
vn -0.00017427752 0.8896682 0.45660758
vn 0.16853373 0.9317882 0.32150763
vn 0.030105354 0.98727906 0.15612102
vn -0 0.9644902 -0.26411876
vn -0.71020174 -0.14337718 0.68924344
vn -0.3574113 0.41175643 0.8382803
vn -0.04547804 0.9791877 0.19779563
vn 0.08688379 0.92295337 0.37497774
vn 0.037852954 0.95947504 -0.27923948
vn -0 0.8304019 -0.55716485
vn -0.5112166 -0.3993738 0.76102453
vn -0 -0.43613288 0.89988226
vn -0.40734208 0.65741 0.63394356
vn -0.12444438 0.9692937 0.2120926
vn 0.044380415 0.98899627 0.14112642
vn 0.0069521153 0.8106604 -0.5854752
vn -0 0.7030759 -0.71111476
vn -0.57445586 0.79411894 0.19843268
vn -0.23681204 0.9045008 0.35468063
vn 0.05832884 0.9432361 -0.3269609
vn -0.05427337 0.67791915 -0.7331303
vn -0 0.5579923 -0.8298462
vn -0.6531084 0.752826 0.0818689
vn -0.29648256 0.94419545 0.14350322
vn 0.026463239 0.7478681 -0.66331965
vn -0.08933378 0.5430872 -0.8349107
vn -0 0.40055156 -0.91627425
vn -0.69443065 0.65162414 0.30520794
vn -0.2489856 0.882226 -0.39960405
vn -0.08119532 0.604563 -0.7924082
vn -0.07224545 0.39495662 -0.9158548
vn -0 0.22045259 -0.97539765
vn -0.7620507 0.6334193 0.13438344
vn -0.14467247 0.62088877 -0.770433
vn -0.16010992 0.49942037 -0.8514365
vn -0.02765657 0.24463725 -0.96922016
vn -0 0.10833593 -0.99411434
vn -0.14283165 0.37754625 -0.91490877
vn -0.17722413 0.4737724 -0.8626305
vn -0.7092252 0.5646305 -0.42212805
vn -0.06612246 0.23808065 -0.96899194
vn -0 0.10833593 -0.99411434
vn -0.24122047 0.42611498 -0.8719167
vn -0.476445 0.35346434 -0.8050237
vn -0.20938691 0.34779534 -0.91389036
vn -0.36352488 0.29861805 -0.8824266
vn -0.09839342 0.22781399 -0.9687206
vn -0 0.10833593 -0.99411434
vn -0.34736347 0.33414066 -0.87617844
vn -0.2734456 0.30839634 -0.91110873
vn -0.12599559 0.21499753 -0.968453
vn -0 0.10833593 -0.99411434
vn -0.9153873 0.15077685 -0.37327272
vn -0.6936164 0.09787727 -0.71366405
vn -0.5366651 0.16909944 -0.8266776
vn -0.44839138 0.2569881 -0.8560971
vn -0.3296757 0.26667276 -0.90564865
vn -0.965349 0.25199786 0.06781199
vn -0.14844851 0.2003219 -0.9684184
vn -0 0.10833593 -0.99411434
vn -0.91316444 0.37179768 0.16702457
vn -0.89743197 0.43951008 0.03803677
vn -0.89337593 0.41112545 0.18126042
vn -0.7165159 0.28200918 0.6380249
vn -0.48314697 0.10164389 0.86961925
vn -0.59401697 -0.0015206009 0.80445105
vn -0.68331873 -0.19525462 0.7035276
vn -0.55005723 -0.09800985 0.8293558
vn -0.5399206 -0.06177232 0.83944625
vn -0.8116675 0.012393704 0.5839882
vn -0.9637926 0.13781281 0.22827943
vn -0.50454885 -0.400971 0.76462597
vn -0 -0.43613288 0.89988226
vn -0.6377235 -0.21971689 0.7382636
vn -0.51073784 -0.120967224 0.8511837
vn -0.5597212 -0.09450565 0.8232745
vn -0.4914271 -0.39133528 0.77804637
vn -0 -0.43613288 0.89988226
vn -0.5881002 -0.24706204 0.77012897
vn -0.96282774 0.25607017 0.08596978
vn -0.81334376 -0.04633934 0.579935
vn -0.48424336 -0.16254148 0.8597026
vn -0.47545785 -0.38138118 0.7927725
vn -0 -0.43613288 0.89988226
vn -0.54897344 -0.29242164 0.78301835
vn -0.5643047 -0.15225652 0.81140506
vn -0.94412667 0.058323324 0.3243814
vn -0.9625899 0.26496366 0.056700293
vn -0.4578872 -0.37597597 0.8055938
vn -0 -0.43613288 0.89988226
vn -0.47072917 -0.27108893 0.83959794
vn -0.78029513 -0.12356334 0.61308366
vn -0.97569764 0.15027788 0.15947054
vn -0.9850857 0.15805715 -0.06800047
vn -0.5285323 -0.3321023 0.78125644
vn -0.53135574 -0.32125407 0.783873
vn -0.9150267 -0.056885168 0.3993624
vn -0.98417366 0.17690437 0.010349072
vn -0.9332909 0.0530537 -0.35518086
vn -0.4391125 -0.37085453 0.8183197
vn -0 -0.43613288 0.89988226
vn -0.6930677 -0.33448654 0.6385732
vn -0.9790358 -0.013189176 0.20326045
vn -0.9761136 0.14035015 -0.16584376
vn -0.78330475 0.057219386 -0.6189989
vn -0.8416035 -0.28901616 0.45626003
vn -0.99999464 -0.00091968366 0.0031390097
vn -0.9238718 0.09400672 -0.37097657
vn -0.64010054 0.13643174 -0.75608045
vn -0.9414751 -0.23654884 0.24014433
vn -0.98105615 -0.00021203813 -0.19372316
vn -0.8200399 0.08643729 -0.56574124
vn -0.5215379 0.20752016 -0.82760715
vn -0.97860754 -0.20527723 0.013731674
vn -0.92584544 0.0015121623 -0.37789932
vn -0.6982931 0.11977968 -0.7057192
vn -0.37491548 0.22515179 -0.8993025
vn -0.9625827 -0.19078046 -0.192451
vn -0.842943 0.022422878 -0.5375355
vn -0.57165486 0.1682657 -0.803055
vn -0.16548827 0.1820259 -0.96926796
vn -0 0.10833593 -0.99411434
vn -0.40375537 0.1917731 -0.8945416
vn -0.74199635 0.08336904 -0.66519994
vn -0.9182025 -0.16270371 -0.36115324
vn -0.17436302 0.16480593 -0.9707917
vn -0 0.10833593 -0.99411434
vn -0.60468423 0.15666878 -0.7809045
vn -0.8689438 -0.082658835 -0.48795915
vn -0.41006947 0.17945895 -0.8942246
vn -0.78770435 0.045585576 -0.61436445
vn -0.17300974 0.15126184 -0.97323567
vn -0 0.10833593 -0.99411434
vn -0.62015736 0.14493965 -0.7709717
vn -0.39414397 0.15811048 -0.90534616
vn -0.16087382 0.12771803 -0.9786765
vn -0 0.10833593 -0.99411434
vn -0.9015747 -0.30451518 -0.30730048
vn -0.8991707 -0.17598693 -0.40065023
vn -0.820031 -0.018795855 -0.5720104
vn -0.6116427 0.0942336 -0.7855019
vn -0.35940924 0.12129202 -0.9252639
vn -0.9113717 -0.37010834 -0.1800598
vn -0.1401719 0.10344828 -0.9847082
vn -0 0.10833593 -0.99411434
vn -0.9126592 -0.4062224 0.045126267
vn -0.8375589 -0.45063525 0.30890608
vn -0.6966971 -0.49838513 0.51597035
vn -0.56526756 -0.5185102 0.64157605
vn -0.48843634 -0.47259748 0.7335405
vn -0.47582892 -0.3713922 0.79727954
vn -0.52080166 -0.3510821 0.7781432
vn -0.5135843 -0.40744767 0.75512755
vn -0.51127774 -0.51546776 0.6876686
vn -0.51707065 -0.57130235 0.63737863
vn -0.5809292 -0.5855299 0.5653989
vn -0.41633084 -0.37006602 0.83049375
vn -0 -0.43613288 0.89988226
vn -0.508528 -0.35571635 0.7841333
vn -0.55822706 -0.39689586 0.7285989
vn -0.5859462 -0.47986424 0.6529911
vn -0.3830673 -0.37679502 0.8433772
vn -0 -0.43613288 0.89988226
vn -0.4753072 -0.35752815 0.803901
vn -0.71045846 -0.58952445 0.38433015
vn -0.5770037 -0.5287716 0.6224686
vn -0.56315994 -0.38620362 0.7305461
vn -0.3309913 -0.39037403 0.8591001
vn -0 -0.43613288 0.89988226
vn -0.40592998 -0.369277 0.8359757
vn -0.62402254 -0.45379066 0.6361367
vn -0.5799778 -0.5736054 0.57844853
vn -0.81358325 -0.57328886 0.097067736
vn -0.26347163 -0.4027498 0.87657017
vn -0 -0.43613288 0.89988226
vn -0.489748 -0.41398662 0.76730824
vn -0.6279551 -0.506309 0.591036
vn -0.6408905 -0.63974285 0.4242504
vn -0.8490994 -0.51194024 -0.13018228
vn -0.30342722 -0.3909062 0.8689789
vn -0.55063033 -0.5081652 0.6622495
vn -0.6054925 -0.5851143 0.53946286
vn -0.7272196 -0.6677361 0.15899715
vn -0.8906748 -0.40653762 -0.20353249
vn -0 -0.4178604 0.9085113
vn -0 -0.43613288 0.89988226
vn -0 -0.4149198 0.90985805
vn -0.33275303 -0.4731853 0.81570286
vn -0 -0.5162343 0.85644746
vn -0.34774518 -0.6132553 0.7092187
vn -0 -0.67269075 0.73992366
vn -0.5570154 -0.5946557 0.5797573
vn -0.3341407 -0.737667 0.5866833
vn -0 -0.80459654 0.5938218
vn -0.5223635 -0.70400435 0.4811593
vn -0.29314315 -0.85439324 0.42904457
vn -0 -0.913475 0.40689474
vn -0.59938663 -0.68898857 0.40746826
vn -0.46958905 -0.8127965 0.34474337
vn -0.22699618 -0.9387709 0.25919476
vn -0 -0.97686154 0.21387295
vn -0.63168955 -0.74702334 0.20718217
vn -0.43255192 -0.8774369 0.2073725
vn -0.14824629 -0.9781003 0.146092
vn -0 -0.99488896 0.100975536
vn -0.7936905 -0.6074786 -0.032017305
vn -0.6793485 -0.7310559 0.063582614
vn -0.41113815 -0.9076226 0.084774554
vn -0.067370996 -0.99742055 0.024768699
vn -0 -0.9997948 -0.020257687
vn -0.8591343 -0.50516844 -0.081811406
vn -0.7186466 -0.6951738 -0.01674397
vn -0.39314637 -0.9189406 -0.03137188
vn 0.01006325 -0.99562186 -0.09292935
vn -0 -0.9912742 -0.13181615
vn -0.917106 -0.25940531 -0.30269712
vn -0.8885843 -0.390858 -0.24010016
vn -0.82611734 -0.094856404 -0.5554568
vn -0.73838335 -0.63258487 -0.23372272
vn -0.41501293 -0.8797785 -0.23184928
vn 0.0019258165 -0.9837106 -0.17974882
vn -0 -0.9893087 -0.145836
vn -0.5846322 0.054027174 -0.8094975
vn -0.7948807 -0.21681008 -0.5667081
vn -0.6815677 -0.43283597 -0.59001565
vn -0.47104445 -0.668007 -0.57609373
vn -0.08596998 -0.83869684 -0.5377701
vn -0 -0.8933707 -0.44932047
vn -0.31953153 0.11752639 -0.9402591
vn -0.5476753 0.016324148 -0.8365317
vn -0.50185287 -0.05152024 -0.86341727
vn -0.4009628 -0.14766257 -0.90411544
vn -0.059571985 -0.2827403 -0.9573449
vn -0 -0.2739191 -0.9617527
vn -0.12074297 0.10400108 -0.9872208
vn -0 0.10833593 -0.99411434
vn -0.28578433 0.14814517 -0.9467736
vn -0.25085697 0.18524624 -0.95013404
vn -0.104075745 0.124285534 -0.9867732
vn -0 0.10833593 -0.99411434
vn -0.17017294 0.21049878 -0.9626689
vn 0.035869732 0.208848 -0.97729003
vn -0 0.20591551 -0.97856987
vn -0.075032726 0.1436292 -0.986783
vn -0 0.10833593 -0.99411434
vn -0.0124152275 0.14952531 -0.98867995
vn -0 0.10833593 -0.99411434
vn 0.09154474 0.13901164 -0.9860503
vn -0 0.10833593 -0.99411434
vn -0 0.0930005 -0.995666
vn -0 0.10833593 -0.99411434
g Eismoloch Head 1_0
f 3/3/3 2/2/2 1/1/1
f 6/6/6 5/5/5 4/4/4
f 9/9/9 8/8/8 7/7/7
f 12/12/12 11/11/11 10/10/10
f 15/15/15 14/14/14 13/13/13
f 13/13/13 14/14/14 16/16/16
f 14/14/14 17/17/17 16/16/16
f 16/16/16 17/17/17 18/18/18
f 14/14/14 19/19/19 17/17/17
f 20/20/20 19/19/19 14/14/14
f 17/17/17 21/21/21 18/18/18
f 18/18/18 21/21/21 22/22/22
f 19/19/19 23/23/23 17/17/17
f 17/17/17 23/23/23 21/21/21
f 21/21/21 24/24/24 22/22/22
f 22/22/22 24/24/24 25/25/25
f 19/19/19 26/26/26 23/23/23
f 27/27/27 26/26/26 19/19/19
f 23/23/23 28/28/28 21/21/21
f 21/21/21 28/28/28 24/24/24
f 24/24/24 29/29/29 25/25/25
f 25/25/25 29/29/29 30/30/30
f 26/26/26 31/31/31 23/23/23
f 23/23/23 31/31/31 28/28/28
f 28/28/28 32/32/32 24/24/24
f 24/24/24 32/32/32 29/29/29
f 29/29/29 33/33/33 30/30/30
f 30/30/30 33/33/33 34/34/34
f 26/26/26 35/35/35 31/31/31
f 36/36/36 35/35/35 26/26/26
f 31/31/31 37/37/37 28/28/28
f 28/28/28 37/37/37 32/32/32
f 32/32/32 38/38/38 29/29/29
f 29/29/29 38/38/38 33/33/33
f 33/33/33 39/39/39 34/34/34
f 34/34/34 39/39/39 40/40/40
f 35/35/35 41/41/41 31/31/31
f 31/31/31 41/41/41 37/37/37
f 37/37/37 42/42/42 32/32/32
f 32/32/32 42/42/42 38/38/38
f 38/38/38 43/43/43 33/33/33
f 33/33/33 43/43/43 39/39/39
f 39/39/39 44/44/44 40/40/40
f 40/40/40 44/44/44 45/45/45
f 35/35/35 46/46/46 41/41/41
f 47/47/47 46/46/46 35/35/35
f 41/41/41 48/48/48 37/37/37
f 37/37/37 48/48/48 42/42/42
f 42/42/42 49/49/49 38/38/38
f 38/38/38 49/49/49 43/43/43
f 43/43/43 50/50/50 39/39/39
f 39/39/39 50/50/50 44/44/44
f 44/44/44 51/51/51 45/45/45
f 45/45/45 51/51/51 52/52/52
f 46/46/46 53/53/53 41/41/41
f 41/41/41 53/53/53 48/48/48
f 48/48/48 54/54/54 42/42/42
f 42/42/42 54/54/54 49/49/49
f 49/49/49 55/55/55 43/43/43
f 43/43/43 55/55/55 50/50/50
f 50/50/50 56/56/56 44/44/44
f 44/44/44 56/56/56 51/51/51
f 51/51/51 57/57/57 52/52/52
f 52/52/52 57/57/57 58/58/58
f 46/46/46 59/59/59 53/53/53
f 60/60/60 59/59/59 46/46/46
f 54/54/54 61/61/61 49/49/49
f 49/49/49 61/61/61 55/55/55
f 55/55/55 62/62/62 50/50/50
f 50/50/50 62/62/62 56/56/56
f 56/56/56 63/63/63 51/51/51
f 51/51/51 63/63/63 57/57/57
f 57/57/57 64/64/64 58/58/58
f 58/58/58 64/64/64 65/65/65
f 61/61/61 66/66/66 55/55/55
f 55/55/55 66/66/66 62/62/62
f 62/62/62 67/67/67 56/56/56
f 56/56/56 67/67/67 63/63/63
f 63/63/63 68/68/68 57/57/57
f 57/57/57 68/68/68 64/64/64
f 64/64/64 69/69/69 65/65/65
f 65/65/65 69/69/69 70/70/70
f 66/66/66 71/71/71 62/62/62
f 62/62/62 71/71/71 67/67/67
f 67/67/67 72/72/72 63/63/63
f 63/63/63 72/72/72 68/68/68
f 68/68/68 73/73/73 64/64/64
f 64/64/64 73/73/73 69/69/69
f 69/69/69 74/74/74 70/70/70
f 70/70/70 74/74/74 75/75/75
f 71/71/71 76/76/76 67/67/67
f 67/67/67 76/76/76 72/72/72
f 72/72/72 77/77/77 68/68/68
f 68/68/68 77/77/77 73/73/73
f 73/73/73 78/78/78 69/69/69
f 69/69/69 78/78/78 74/74/74
f 74/74/74 79/79/79 75/75/75
f 75/75/75 79/79/79 80/80/80
f 76/76/76 81/81/81 72/72/72
f 72/72/72 81/81/81 77/77/77
f 77/77/77 82/82/82 73/73/73
f 73/73/73 82/82/82 78/78/78
f 78/78/78 83/83/83 74/74/74
f 74/74/74 83/83/83 79/79/79
f 79/79/79 84/84/84 80/80/80
f 80/80/80 84/84/84 85/85/85
f 79/79/79 86/86/86 84/84/84
f 83/83/83 86/86/86 79/79/79
f 78/78/78 87/87/87 83/83/83
f 82/82/82 87/87/87 78/78/78
f 77/77/77 88/88/88 82/82/82
f 81/81/81 88/88/88 77/77/77
f 86/86/86 89/89/89 84/84/84
f 84/84/84 89/89/89 90/90/90
f 83/83/83 91/91/91 86/86/86
f 87/87/87 91/91/91 83/83/83
f 82/82/82 92/92/92 87/87/87
f 88/88/88 92/92/92 82/82/82
f 86/86/86 93/93/93 89/89/89
f 91/91/91 93/93/93 86/86/86
f 87/87/87 94/94/94 91/91/91
f 92/92/92 94/94/94 87/87/87
f 93/93/93 95/95/95 89/89/89
f 89/89/89 95/95/95 96/96/96
f 91/91/91 97/97/97 93/93/93
f 94/94/94 97/97/97 91/91/91
f 93/93/93 98/98/98 95/95/95
f 97/97/97 98/98/98 93/93/93
f 98/98/98 99/99/99 95/95/95
f 95/95/95 99/99/99 100/100/100
f 88/88/88 101/101/101 92/92/92
f 92/92/92 102/102/102 94/94/94
f 101/101/101 102/102/102 92/92/92
f 94/94/94 103/103/103 97/97/97
f 102/102/102 103/103/103 94/94/94
f 97/97/97 104/104/104 98/98/98
f 103/103/103 104/104/104 97/97/97
f 98/98/98 105/105/105 99/99/99
f 104/104/104 105/105/105 98/98/98
f 106/106/106 101/101/101 88/88/88
f 81/81/81 106/106/106 88/88/88
f 105/105/105 107/107/107 99/99/99
f 99/99/99 107/107/107 108/108/108
f 109/109/109 106/106/106 81/81/81
f 76/76/76 109/109/109 81/81/81
f 110/110/110 109/109/109 76/76/76
f 71/71/71 110/110/110 76/76/76
f 111/111/111 110/110/110 71/71/71
f 66/66/66 111/111/111 71/71/71
f 112/112/112 111/111/111 66/66/66
f 61/61/61 112/112/112 66/66/66
f 113/113/113 112/112/112 61/61/61
f 54/54/54 113/113/113 61/61/61
f 114/114/114 113/113/113 54/54/54
f 48/48/48 114/114/114 54/54/54
f 53/53/53 114/114/114 48/48/48
f 53/53/53 115/115/115 114/114/114
f 59/59/59 115/115/115 53/53/53
f 114/114/114 116/116/116 113/113/113
f 115/115/115 116/116/116 114/114/114
f 113/113/113 117/117/117 112/112/112
f 116/116/116 117/117/117 113/113/113
f 112/112/112 118/118/118 111/111/111
f 117/117/117 118/118/118 112/112/112
f 111/111/111 119/119/119 110/110/110
f 118/118/118 119/119/119 111/111/111
f 59/59/59 120/120/120 115/115/115
f 121/121/121 120/120/120 59/59/59
f 115/115/115 122/122/122 116/116/116
f 120/120/120 122/122/122 115/115/115
f 116/116/116 123/123/123 117/117/117
f 122/122/122 123/123/123 116/116/116
f 117/117/117 124/124/124 118/118/118
f 123/123/123 124/124/124 117/117/117
f 120/120/120 125/125/125 122/122/122
f 126/126/126 125/125/125 120/120/120
f 122/122/122 127/127/127 123/123/123
f 125/125/125 127/127/127 122/122/122
f 119/119/119 128/128/128 110/110/110
f 110/110/110 128/128/128 109/109/109
f 118/118/118 129/129/129 119/119/119
f 124/124/124 129/129/129 118/118/118
f 123/123/123 130/130/130 124/124/124
f 127/127/127 130/130/130 123/123/123
f 125/125/125 131/131/131 127/127/127
f 132/132/132 131/131/131 125/125/125
f 131/131/131 133/133/133 127/127/127
f 127/127/127 133/133/133 130/130/130
f 130/130/130 134/134/134 124/124/124
f 124/124/124 134/134/134 129/129/129
f 129/129/129 135/135/135 119/119/119
f 119/119/119 135/135/135 128/128/128
f 128/128/128 136/136/136 109/109/109
f 109/109/109 136/136/136 106/106/106
f 131/131/131 137/137/137 133/133/133
f 138/138/138 137/137/137 131/131/131
f 133/133/133 139/139/139 130/130/130
f 130/130/130 139/139/139 134/134/134
f 134/134/134 140/140/140 129/129/129
f 129/129/129 140/140/140 135/135/135
f 135/135/135 141/141/141 128/128/128
f 128/128/128 141/141/141 136/136/136
f 136/136/136 142/142/142 106/106/106
f 106/106/106 142/142/142 101/101/101
f 137/137/137 143/143/143 133/133/133
f 133/133/133 143/143/143 139/139/139
f 139/139/139 144/144/144 134/134/134
f 134/134/134 144/144/144 140/140/140
f 140/140/140 145/145/145 135/135/135
f 135/135/135 145/145/145 141/141/141
f 141/141/141 146/146/146 136/136/136
f 136/136/136 146/146/146 142/142/142
f 142/142/142 147/147/147 101/101/101
f 101/101/101 147/147/147 102/102/102
f 137/137/137 148/148/148 143/143/143
f 149/149/149 148/148/148 137/137/137
f 144/144/144 150/150/150 140/140/140
f 140/140/140 150/150/150 145/145/145
f 145/145/145 151/151/151 141/141/141
f 141/141/141 151/151/151 146/146/146
f 146/146/146 152/152/152 142/142/142
f 142/142/142 152/152/152 147/147/147
f 147/147/147 153/153/153 102/102/102
f 102/102/102 153/153/153 103/103/103
f 150/150/150 154/154/154 145/145/145
f 145/145/145 154/154/154 151/151/151
f 151/151/151 155/155/155 146/146/146
f 146/146/146 155/155/155 152/152/152
f 152/152/152 156/156/156 147/147/147
f 147/147/147 156/156/156 153/153/153
f 153/153/153 157/157/157 103/103/103
f 103/103/103 157/157/157 104/104/104
f 154/154/154 158/158/158 151/151/151
f 151/151/151 158/158/158 155/155/155
f 155/155/155 159/159/159 152/152/152
f 152/152/152 159/159/159 156/156/156
f 156/156/156 160/160/160 153/153/153
f 153/153/153 160/160/160 157/157/157
f 157/157/157 161/161/161 104/104/104
f 104/104/104 161/161/161 105/105/105
f 158/158/158 162/162/162 155/155/155
f 155/155/155 162/162/162 159/159/159
f 159/159/159 163/163/163 156/156/156
f 156/156/156 163/163/163 160/160/160
f 160/160/160 164/164/164 157/157/157
f 157/157/157 164/164/164 161/161/161
f 161/161/161 165/165/165 105/105/105
f 105/105/105 165/165/165 107/107/107
f 162/162/162 166/166/166 159/159/159
f 159/159/159 166/166/166 163/163/163
f 163/163/163 167/167/167 160/160/160
f 160/160/160 167/167/167 164/164/164
f 164/164/164 168/168/168 161/161/161
f 161/161/161 168/168/168 165/165/165
f 165/165/165 169/169/169 107/107/107
f 107/107/107 169/169/169 170/170/170
f 165/165/165 171/171/171 169/169/169
f 168/168/168 171/171/171 165/165/165
f 164/164/164 172/172/172 168/168/168
f 167/167/167 172/172/172 164/164/164
f 163/163/163 173/173/173 167/167/167
f 166/166/166 173/173/173 163/163/163
f 171/171/171 174/174/174 169/169/169
f 169/169/169 174/174/174 175/175/175
f 168/168/168 176/176/176 171/171/171
f 172/172/172 176/176/176 168/168/168
f 167/167/167 177/177/177 172/172/172
f 173/173/173 177/177/177 167/167/167
f 171/171/171 178/178/178 174/174/174
f 176/176/176 178/178/178 171/171/171
f 172/172/172 179/179/179 176/176/176
f 177/177/177 179/179/179 172/172/172
f 178/178/178 180/180/180 174/174/174
f 174/174/174 180/180/180 181/181/181
f 176/176/176 182/182/182 178/178/178
f 179/179/179 182/182/182 176/176/176
f 178/178/178 183/183/183 180/180/180
f 182/182/182 183/183/183 178/178/178
f 183/183/183 184/184/184 180/180/180
f 180/180/180 184/184/184 185/185/185
f 173/173/173 186/186/186 177/177/177
f 177/177/177 187/187/187 179/179/179
f 186/186/186 187/187/187 177/177/177
f 179/179/179 188/188/188 182/182/182
f 187/187/187 188/188/188 179/179/179
f 182/182/182 189/189/189 183/183/183
f 188/188/188 189/189/189 182/182/182
f 183/183/183 190/190/190 184/184/184
f 189/189/189 190/190/190 183/183/183
f 191/191/191 186/186/186 173/173/173
f 166/166/166 191/191/191 173/173/173
f 190/190/190 192/192/192 184/184/184
f 184/184/184 192/192/192 193/193/193
f 194/194/194 191/191/191 166/166/166
f 162/162/162 194/194/194 166/166/166
f 195/195/195 194/194/194 162/162/162
f 158/158/158 195/195/195 162/162/162
f 196/196/196 195/195/195 158/158/158
f 154/154/154 196/196/196 158/158/158
f 197/197/197 196/196/196 154/154/154
f 150/150/150 197/197/197 154/154/154
f 198/198/198 197/197/197 150/150/150
f 144/144/144 198/198/198 150/150/150
f 199/199/199 198/198/198 144/144/144
f 139/139/139 199/199/199 144/144/144
f 143/143/143 199/199/199 139/139/139
f 143/143/143 200/200/200 199/199/199
f 148/148/148 200/200/200 143/143/143
f 199/199/199 201/201/201 198/198/198
f 200/200/200 201/201/201 199/199/199
f 198/198/198 202/202/202 197/197/197
f 201/201/201 202/202/202 198/198/198
f 197/197/197 203/203/203 196/196/196
f 202/202/202 203/203/203 197/197/197
f 196/196/196 204/204/204 195/195/195
f 203/203/203 204/204/204 196/196/196
f 148/148/148 205/205/205 200/200/200
f 206/206/206 205/205/205 148/148/148
f 200/200/200 207/207/207 201/201/201
f 205/205/205 207/207/207 200/200/200
f 201/201/201 208/208/208 202/202/202
f 207/207/207 208/208/208 201/201/201
f 202/202/202 209/209/209 203/203/203
f 208/208/208 209/209/209 202/202/202
f 205/205/205 210/210/210 207/207/207
f 211/211/211 210/210/210 205/205/205
f 207/207/207 212/212/212 208/208/208
f 210/210/210 212/212/212 207/207/207
f 204/204/204 213/213/213 195/195/195
f 195/195/195 213/213/213 194/194/194
f 203/203/203 214/214/214 204/204/204
f 209/209/209 214/214/214 203/203/203
f 208/208/208 215/215/215 209/209/209
f 212/212/212 215/215/215 208/208/208
f 210/210/210 216/216/216 212/212/212
f 217/217/217 216/216/216 210/210/210
f 216/216/216 218/218/218 212/212/212
f 212/212/212 218/218/218 215/215/215
f 215/215/215 219/219/219 209/209/209
f 209/209/209 219/219/219 214/214/214
f 214/214/214 220/220/220 204/204/204
f 204/204/204 220/220/220 213/213/213
f 213/213/213 221/221/221 194/194/194
f 194/194/194 221/221/221 191/191/191
f 216/216/216 222/222/222 218/218/218
f 223/223/223 222/222/222 216/216/216
f 218/218/218 224/224/224 215/215/215
f 215/215/215 224/224/224 219/219/219
f 219/219/219 225/225/225 214/214/214
f 214/214/214 225/225/225 220/220/220
f 220/220/220 226/226/226 213/213/213
f 213/213/213 226/226/226 221/221/221
f 221/221/221 227/227/227 191/191/191
f 191/191/191 227/227/227 186/186/186
f 222/222/222 228/228/228 218/218/218
f 218/218/218 228/228/228 224/224/224
f 224/224/224 229/229/229 219/219/219
f 219/219/219 229/229/229 225/225/225
f 225/225/225 230/230/230 220/220/220
f 220/220/220 230/230/230 226/226/226
f 226/226/226 231/231/231 221/221/221
f 221/221/221 231/231/231 227/227/227
f 227/227/227 232/232/232 186/186/186
f 186/186/186 232/232/232 187/187/187
f 222/222/222 233/233/233 228/228/228
f 234/234/234 233/233/233 222/222/222
f 233/233/233 235/235/235 228/228/228
f 228/228/228 235/235/235 236/236/236
f 228/228/228 236/236/236 224/224/224
f 235/235/235 237/237/237 236/236/236
f 224/224/224 236/236/236 229/229/229
f 236/236/236 237/237/237 238/238/238
f 236/236/236 238/238/238 229/229/229
f 237/237/237 239/239/239 238/238/238
f 229/229/229 238/238/238 240/240/240
f 229/229/229 240/240/240 225/225/225
f 225/225/225 240/240/240 230/230/230
f 238/238/238 239/239/239 241/241/241
f 238/238/238 241/241/241 240/240/240
f 239/239/239 242/242/242 241/241/241
f 240/240/240 243/243/243 230/230/230
f 240/240/240 241/241/241 243/243/243
f 241/241/241 242/242/242 244/244/244
f 241/241/241 244/244/244 243/243/243
f 242/242/242 245/245/245 244/244/244
f 230/230/230 243/243/243 246/246/246
f 230/230/230 246/246/246 226/226/226
f 226/226/226 246/246/246 231/231/231
f 243/243/243 244/244/244 247/247/247
f 243/243/243 247/247/247 246/246/246
f 244/244/244 245/245/245 248/248/248
f 244/244/244 248/248/248 247/247/247
f 245/245/245 249/249/249 248/248/248
f 246/246/246 250/250/250 231/231/231
f 246/246/246 247/247/247 250/250/250
f 247/247/247 248/248/248 251/251/251
f 247/247/247 251/251/251 250/250/250
f 248/248/248 249/249/249 252/252/252
f 248/248/248 252/252/252 251/251/251
f 249/249/249 253/253/253 252/252/252
f 231/231/231 250/250/250 254/254/254
f 231/231/231 254/254/254 227/227/227
f 227/227/227 254/254/254 232/232/232
f 250/250/250 251/251/251 255/255/255
f 250/250/250 255/255/255 254/254/254
f 251/251/251 252/252/252 256/256/256
f 251/251/251 256/256/256 255/255/255
f 252/252/252 253/253/253 257/257/257
f 252/252/252 257/257/257 256/256/256
f 253/253/253 258/258/258 257/257/257
f 254/254/254 259/259/259 232/232/232
f 254/254/254 255/255/255 259/259/259
f 255/255/255 256/256/256 260/260/260
f 255/255/255 260/260/260 259/259/259
f 256/256/256 257/257/257 261/261/261
f 256/256/256 261/261/261 260/260/260
f 257/257/257 258/258/258 262/262/262
f 257/257/257 262/262/262 261/261/261
f 258/258/258 263/263/263 262/262/262
f 232/232/232 259/259/259 264/264/264
f 232/232/232 264/264/264 187/187/187
f 187/187/187 264/264/264 188/188/188
f 259/259/259 260/260/260 265/265/265
f 259/259/259 265/265/265 264/264/264
f 264/264/264 266/266/266 188/188/188
f 264/264/264 265/265/265 266/266/266
f 188/188/188 266/266/266 189/189/189
f 260/260/260 261/261/261 267/267/267
f 260/260/260 267/267/267 265/265/265
f 261/261/261 262/262/262 268/268/268
f 261/261/261 268/268/268 267/267/267
f 262/262/262 263/263/263 269/269/269
f 262/262/262 269/269/269 268/268/268
f 263/263/263 270/270/270 269/269/269
f 266/266/266 271/271/271 189/189/189
f 189/189/189 271/271/271 190/190/190
f 265/265/265 272/272/272 266/266/266
f 265/265/265 267/267/267 272/272/272
f 266/266/266 272/272/272 271/271/271
f 267/267/267 268/268/268 273/273/273
f 267/267/267 273/273/273 272/272/272
f 268/268/268 269/269/269 274/274/274
f 268/268/268 274/274/274 273/273/273
f 269/269/269 270/270/270 275/275/275
f 269/269/269 275/275/275 274/274/274
f 270/270/270 276/276/276 275/275/275
f 271/271/271 277/277/277 190/190/190
f 190/190/190 277/277/277 192/192/192
f 272/272/272 278/278/278 271/271/271
f 272/272/272 273/273/273 278/278/278
f 271/271/271 278/278/278 277/277/277
f 273/273/273 274/274/274 279/279/279
f 273/273/273 279/279/279 278/278/278
f 274/274/274 275/275/275 280/280/280
f 274/274/274 280/280/280 279/279/279
f 275/275/275 276/276/276 281/281/281
f 275/275/275 281/281/281 280/280/280
f 276/276/276 282/282/282 281/281/281
f 277/277/277 283/283/283 192/192/192
f 192/192/192 283/283/283 284/284/284
f 278/278/278 285/285/285 277/277/277
f 278/278/278 279/279/279 285/285/285
f 277/277/277 285/285/285 283/283/283
f 279/279/279 280/280/280 286/286/286
f 279/279/279 286/286/286 285/285/285
f 285/285/285 287/287/287 283/283/283
f 285/285/285 286/286/286 287/287/287
f 283/283/283 287/287/287 288/288/288
f 280/280/280 281/281/281 289/289/289
f 280/280/280 289/289/289 286/286/286
f 281/281/281 282/282/282 290/290/290
f 281/281/281 290/290/290 289/289/289
f 282/282/282 291/291/291 290/290/290
f 286/286/286 292/292/292 287/287/287
f 286/286/286 289/289/289 292/292/292
f 287/287/287 292/292/292 293/293/293
f 289/289/289 294/294/294 292/292/292
f 289/289/289 290/290/290 294/294/294
f 292/292/292 294/294/294 295/295/295
f 290/290/290 291/291/291 296/296/296
f 290/290/290 296/296/296 294/294/294
f 294/294/294 296/296/296 297/297/297
f 291/291/291 298/298/298 296/296/296
f 296/296/296 298/298/298 299/299/299
f 302/302/302 301/301/301 300/300/300
f 302/302/302 300/300/300 303/303/303
f 304/304/304 302/302/302 303/303/303
f 304/304/304 303/303/303 305/305/305
f 306/306/306 302/302/302 304/304/304
f 306/306/306 307/307/307 302/302/302
f 308/308/308 304/304/304 305/305/305
f 308/308/308 305/305/305 309/309/309
f 310/310/310 306/306/306 304/304/304
f 310/310/310 304/304/304 308/308/308
f 311/311/311 308/308/308 309/309/309
f 311/311/311 309/309/309 312/312/312
f 313/313/313 306/306/306 310/310/310
f 313/313/313 314/314/314 306/306/306
f 315/315/315 310/310/310 308/308/308
f 315/315/315 308/308/308 311/311/311
f 316/316/316 311/311/311 312/312/312
f 316/316/316 312/312/312 317/317/317
f 318/318/318 313/313/313 310/310/310
f 318/318/318 310/310/310 315/315/315
f 319/319/319 315/315/315 311/311/311
f 319/319/319 311/311/311 316/316/316
f 320/320/320 316/316/316 317/317/317
f 320/320/320 317/317/317 321/321/321
f 322/322/322 313/313/313 318/318/318
f 322/322/322 323/323/323 313/313/313
f 324/324/324 318/318/318 315/315/315
f 324/324/324 315/315/315 319/319/319
f 325/325/325 319/319/319 316/316/316
f 325/325/325 316/316/316 320/320/320
f 326/326/326 320/320/320 321/321/321
f 326/326/326 321/321/321 327/327/327
f 328/328/328 322/322/322 318/318/318
f 328/328/328 318/318/318 324/324/324
f 329/329/329 324/324/324 319/319/319
f 329/329/329 319/319/319 325/325/325
f 330/330/330 325/325/325 320/320/320
f 330/330/330 320/320/320 326/326/326
f 331/331/331 326/326/326 327/327/327
f 331/331/331 327/327/327 332/332/332
f 333/333/333 322/322/322 328/328/328
f 333/333/333 334/334/334 322/322/322
f 335/335/335 328/328/328 324/324/324
f 335/335/335 324/324/324 329/329/329
f 336/336/336 329/329/329 325/325/325
f 336/336/336 325/325/325 330/330/330
f 337/337/337 330/330/330 326/326/326
f 337/337/337 326/326/326 331/331/331
f 338/338/338 331/331/331 332/332/332
f 338/338/338 332/332/332 339/339/339
f 340/340/340 333/333/333 328/328/328
f 340/340/340 328/328/328 335/335/335
f 341/341/341 335/335/335 329/329/329
f 341/341/341 329/329/329 336/336/336
f 342/342/342 336/336/336 330/330/330
f 342/342/342 330/330/330 337/337/337
f 343/343/343 337/337/337 331/331/331
f 343/343/343 331/331/331 338/338/338
f 344/344/344 338/338/338 339/339/339
f 344/344/344 339/339/339 345/345/345
f 346/346/346 333/333/333 340/340/340
f 346/346/346 347/347/347 333/333/333
f 348/348/348 341/341/341 336/336/336
f 348/348/348 336/336/336 342/342/342
f 349/349/349 342/342/342 337/337/337
f 349/349/349 337/337/337 343/343/343
f 350/350/350 343/343/343 338/338/338
f 350/350/350 338/338/338 344/344/344
f 351/351/351 344/344/344 345/345/345
f 351/351/351 345/345/345 352/352/352
f 353/353/353 348/348/348 342/342/342
f 353/353/353 342/342/342 349/349/349
f 354/354/354 349/349/349 343/343/343
f 354/354/354 343/343/343 350/350/350
f 355/355/355 350/350/350 344/344/344
f 355/355/355 344/344/344 351/351/351
f 356/356/356 351/351/351 352/352/352
f 356/356/356 352/352/352 357/357/357
f 358/358/358 353/353/353 349/349/349
f 358/358/358 349/349/349 354/354/354
f 359/359/359 354/354/354 350/350/350
f 359/359/359 350/350/350 355/355/355
f 360/360/360 355/355/355 351/351/351
f 360/360/360 351/351/351 356/356/356
f 361/361/361 356/356/356 357/357/357
f 361/361/361 357/357/357 362/362/362
f 363/363/363 358/358/358 354/354/354
f 363/363/363 354/354/354 359/359/359
f 364/364/364 359/359/359 355/355/355
f 364/364/364 355/355/355 360/360/360
f 365/365/365 360/360/360 356/356/356
f 365/365/365 356/356/356 361/361/361
f 366/366/366 361/361/361 362/362/362
f 366/366/366 362/362/362 367/367/367
f 368/368/368 363/363/363 359/359/359
f 368/368/368 359/359/359 364/364/364
f 369/369/369 364/364/364 360/360/360
f 369/369/369 360/360/360 365/365/365
f 370/370/370 365/365/365 361/361/361
f 370/370/370 361/361/361 366/366/366
f 371/371/371 366/366/366 367/367/367
f 371/371/371 367/367/367 372/372/372
f 373/373/373 366/366/366 371/371/371
f 373/373/373 370/370/370 366/366/366
f 374/374/374 365/365/365 370/370/370
f 374/374/374 369/369/369 365/365/365
f 375/375/375 364/364/364 369/369/369
f 375/375/375 368/368/368 364/364/364
f 376/376/376 373/373/373 371/371/371
f 376/376/376 371/371/371 377/377/377
f 378/378/378 370/370/370 373/373/373
f 378/378/378 374/374/374 370/370/370
f 379/379/379 369/369/369 374/374/374
f 379/379/379 375/375/375 369/369/369
f 380/380/380 373/373/373 376/376/376
f 380/380/380 378/378/378 373/373/373
f 381/381/381 374/374/374 378/378/378
f 381/381/381 379/379/379 374/374/374
f 382/382/382 380/380/380 376/376/376
f 382/382/382 376/376/376 383/383/383
f 384/384/384 378/378/378 380/380/380
f 384/384/384 381/381/381 378/378/378
f 385/385/385 380/380/380 382/382/382
f 385/385/385 384/384/384 380/380/380
f 386/386/386 385/385/385 382/382/382
f 386/386/386 382/382/382 387/387/387
f 388/388/388 375/375/375 379/379/379
f 389/389/389 379/379/379 381/381/381
f 389/389/389 388/388/388 379/379/379
f 390/390/390 381/381/381 384/384/384
f 390/390/390 389/389/389 381/381/381
f 391/391/391 384/384/384 385/385/385
f 391/391/391 390/390/390 384/384/384
f 392/392/392 385/385/385 386/386/386
f 392/392/392 391/391/391 385/385/385
f 388/388/388 393/393/393 375/375/375
f 393/393/393 368/368/368 375/375/375
f 394/394/394 392/392/392 386/386/386
f 394/394/394 386/386/386 395/395/395
f 393/393/393 396/396/396 368/368/368
f 396/396/396 363/363/363 368/368/368
f 396/396/396 397/397/397 363/363/363
f 397/397/397 358/358/358 363/363/363
f 397/397/397 398/398/398 358/358/358
f 398/398/398 353/353/353 358/358/358
f 398/398/398 399/399/399 353/353/353
f 399/399/399 348/348/348 353/353/353
f 399/399/399 400/400/400 348/348/348
f 400/400/400 341/341/341 348/348/348
f 400/400/400 401/401/401 341/341/341
f 401/401/401 335/335/335 341/341/341
f 401/401/401 340/340/340 335/335/335
f 402/402/402 340/340/340 401/401/401
f 402/402/402 346/346/346 340/340/340
f 403/403/403 401/401/401 400/400/400
f 403/403/403 402/402/402 401/401/401
f 404/404/404 400/400/400 399/399/399
f 404/404/404 403/403/403 400/400/400
f 405/405/405 399/399/399 398/398/398
f 405/405/405 404/404/404 399/399/399
f 406/406/406 398/398/398 397/397/397
f 406/406/406 405/405/405 398/398/398
f 407/407/407 346/346/346 402/402/402
f 407/407/407 408/408/408 346/346/346
f 409/409/409 402/402/402 403/403/403
f 409/409/409 407/407/407 402/402/402
f 410/410/410 403/403/403 404/404/404
f 410/410/410 409/409/409 403/403/403
f 411/411/411 404/404/404 405/405/405
f 411/411/411 410/410/410 404/404/404
f 412/412/412 407/407/407 409/409/409
f 412/412/412 413/413/413 407/407/407
f 414/414/414 409/409/409 410/410/410
f 414/414/414 412/412/412 409/409/409
f 415/415/415 406/406/406 397/397/397
f 415/415/415 397/397/397 396/396/396
f 416/416/416 405/405/405 406/406/406
f 416/416/416 411/411/411 405/405/405
f 417/417/417 410/410/410 411/411/411
f 417/417/417 414/414/414 410/410/410
f 418/418/418 412/412/412 414/414/414
f 418/418/418 419/419/419 412/412/412
f 420/420/420 418/418/418 414/414/414
f 420/420/420 414/414/414 417/417/417
f 421/421/421 417/417/417 411/411/411
f 421/421/421 411/411/411 416/416/416
f 422/422/422 416/416/416 406/406/406
f 422/422/422 406/406/406 415/415/415
f 423/423/423 415/415/415 396/396/396
f 423/423/423 396/396/396 393/393/393
f 424/424/424 418/418/418 420/420/420
f 424/424/424 425/425/425 418/418/418
f 426/426/426 420/420/420 417/417/417
f 426/426/426 417/417/417 421/421/421
f 427/427/427 421/421/421 416/416/416
f 427/427/427 416/416/416 422/422/422
f 428/428/428 422/422/422 415/415/415
f 428/428/428 415/415/415 423/423/423
f 429/429/429 423/423/423 393/393/393
f 429/429/429 393/393/393 388/388/388
f 430/430/430 424/424/424 420/420/420
f 430/430/430 420/420/420 426/426/426
f 431/431/431 426/426/426 421/421/421
f 431/431/431 421/421/421 427/427/427
f 432/432/432 427/427/427 422/422/422
f 432/432/432 422/422/422 428/428/428
f 433/433/433 428/428/428 423/423/423
f 433/433/433 423/423/423 429/429/429
f 434/434/434 429/429/429 388/388/388
f 434/434/434 388/388/388 389/389/389
f 435/435/435 424/424/424 430/430/430
f 435/435/435 436/436/436 424/424/424
f 437/437/437 431/431/431 427/427/427
f 437/437/437 427/427/427 432/432/432
f 438/438/438 432/432/432 428/428/428
f 438/438/438 428/428/428 433/433/433
f 439/439/439 433/433/433 429/429/429
f 439/439/439 429/429/429 434/434/434
f 440/440/440 434/434/434 389/389/389
f 440/440/440 389/389/389 390/390/390
f 441/441/441 437/437/437 432/432/432
f 441/441/441 432/432/432 438/438/438
f 442/442/442 438/438/438 433/433/433
f 442/442/442 433/433/433 439/439/439
f 443/443/443 439/439/439 434/434/434
f 443/443/443 434/434/434 440/440/440
f 444/444/444 440/440/440 390/390/390
f 444/444/444 390/390/390 391/391/391
f 445/445/445 441/441/441 438/438/438
f 445/445/445 438/438/438 442/442/442
f 446/446/446 442/442/442 439/439/439
f 446/446/446 439/439/439 443/443/443
f 447/447/447 443/443/443 440/440/440
f 447/447/447 440/440/440 444/444/444
f 448/448/448 444/444/444 391/391/391
f 448/448/448 391/391/391 392/392/392
f 449/449/449 445/445/445 442/442/442
f 449/449/449 442/442/442 446/446/446
f 450/450/450 446/446/446 443/443/443
f 450/450/450 443/443/443 447/447/447
f 451/451/451 447/447/447 444/444/444
f 451/451/451 444/444/444 448/448/448
f 452/452/452 448/448/448 392/392/392
f 452/452/452 392/392/392 394/394/394
f 453/453/453 449/449/449 446/446/446
f 453/453/453 446/446/446 450/450/450
f 454/454/454 450/450/450 447/447/447
f 454/454/454 447/447/447 451/451/451
f 455/455/455 451/451/451 448/448/448
f 455/455/455 448/448/448 452/452/452
f 456/456/456 452/452/452 394/394/394
f 456/456/456 394/394/394 457/457/457
f 458/458/458 452/452/452 456/456/456
f 458/458/458 455/455/455 452/452/452
f 459/459/459 451/451/451 455/455/455
f 459/459/459 454/454/454 451/451/451
f 460/460/460 450/450/450 454/454/454
f 460/460/460 453/453/453 450/450/450
f 461/461/461 458/458/458 456/456/456
f 461/461/461 456/456/456 462/462/462
f 463/463/463 455/455/455 458/458/458
f 463/463/463 459/459/459 455/455/455
f 464/464/464 454/454/454 459/459/459
f 464/464/464 460/460/460 454/454/454
f 465/465/465 458/458/458 461/461/461
f 465/465/465 463/463/463 458/458/458
f 466/466/466 459/459/459 463/463/463
f 466/466/466 464/464/464 459/459/459
f 467/467/467 465/465/465 461/461/461
f 467/467/467 461/461/461 468/468/468
f 469/469/469 463/463/463 465/465/465
f 469/469/469 466/466/466 463/463/463
f 470/470/470 465/465/465 467/467/467
f 470/470/470 469/469/469 465/465/465
f 471/471/471 470/470/470 467/467/467
f 471/471/471 467/467/467 472/472/472
f 473/473/473 460/460/460 464/464/464
f 474/474/474 464/464/464 466/466/466
f 474/474/474 473/473/473 464/464/464
f 475/475/475 466/466/466 469/469/469
f 475/475/475 474/474/474 466/466/466
f 476/476/476 469/469/469 470/470/470
f 476/476/476 475/475/475 469/469/469
f 477/477/477 470/470/470 471/471/471
f 477/477/477 476/476/476 470/470/470
f 473/473/473 478/478/478 460/460/460
f 478/478/478 453/453/453 460/460/460
f 479/479/479 477/477/477 471/471/471
f 479/479/479 471/471/471 480/480/480
f 478/478/478 481/481/481 453/453/453
f 481/481/481 449/449/449 453/453/453
f 481/481/481 482/482/482 449/449/449
f 482/482/482 445/445/445 449/449/449
f 482/482/482 483/483/483 445/445/445
f 483/483/483 441/441/441 445/445/445
f 483/483/483 484/484/484 441/441/441
f 484/484/484 437/437/437 441/441/441
f 484/484/484 485/485/485 437/437/437
f 485/485/485 431/431/431 437/437/437
f 485/485/485 486/486/486 431/431/431
f 486/486/486 426/426/426 431/431/431
f 486/486/486 430/430/430 426/426/426
f 487/487/487 430/430/430 486/486/486
f 487/487/487 435/435/435 430/430/430
f 488/488/488 486/486/486 485/485/485
f 488/488/488 487/487/487 486/486/486
f 489/489/489 485/485/485 484/484/484
f 489/489/489 488/488/488 485/485/485
f 490/490/490 484/484/484 483/483/483
f 490/490/490 489/489/489 484/484/484
f 491/491/491 483/483/483 482/482/482
f 491/491/491 490/490/490 483/483/483
f 492/492/492 435/435/435 487/487/487
f 492/492/492 493/493/493 435/435/435
f 494/494/494 487/487/487 488/488/488
f 494/494/494 492/492/492 487/487/487
f 495/495/495 488/488/488 489/489/489
f 495/495/495 494/494/494 488/488/488
f 496/496/496 489/489/489 490/490/490
f 496/496/496 495/495/495 489/489/489
f 497/497/497 492/492/492 494/494/494
f 497/497/497 498/498/498 492/492/492
f 499/499/499 494/494/494 495/495/495
f 499/499/499 497/497/497 494/494/494
f 500/500/500 491/491/491 482/482/482
f 500/500/500 482/482/482 481/481/481
f 501/501/501 490/490/490 491/491/491
f 501/501/501 496/496/496 490/490/490
f 502/502/502 495/495/495 496/496/496
f 502/502/502 499/499/499 495/495/495
f 503/503/503 497/497/497 499/499/499
f 503/503/503 504/504/504 497/497/497
f 505/505/505 503/503/503 499/499/499
f 505/505/505 499/499/499 502/502/502
f 506/506/506 502/502/502 496/496/496
f 506/506/506 496/496/496 501/501/501
f 507/507/507 501/501/501 491/491/491
f 507/507/507 491/491/491 500/500/500
f 508/508/508 500/500/500 481/481/481
f 508/508/508 481/481/481 478/478/478
f 509/509/509 503/503/503 505/505/505
f 509/509/509 510/510/510 503/503/503
f 511/511/511 505/505/505 502/502/502
f 511/511/511 502/502/502 506/506/506
f 512/512/512 506/506/506 501/501/501
f 512/512/512 501/501/501 507/507/507
f 513/513/513 507/507/507 500/500/500
f 513/513/513 500/500/500 508/508/508
f 514/514/514 508/508/508 478/478/478
f 514/514/514 478/478/478 473/473/473
f 515/515/515 509/509/509 505/505/505
f 515/515/515 505/505/505 511/511/511
f 516/516/516 511/511/511 506/506/506
f 516/516/516 506/506/506 512/512/512
f 517/517/517 512/512/512 507/507/507
f 517/517/517 507/507/507 513/513/513
f 518/518/518 513/513/513 508/508/508
f 518/518/518 508/508/508 514/514/514
f 519/519/519 514/514/514 473/473/473
f 519/519/519 473/473/473 474/474/474
f 520/520/520 509/509/509 515/515/515
f 520/520/520 521/521/521 509/509/509
f 522/522/522 520/520/520 515/515/515
f 522/522/522 515/515/515 523/523/523
f 523/523/523 515/515/515 511/511/511
f 524/524/524 522/522/522 523/523/523
f 523/523/523 511/511/511 516/516/516
f 524/524/524 523/523/523 525/525/525
f 525/525/525 523/523/523 516/516/516
f 526/526/526 524/524/524 525/525/525
f 525/525/525 516/516/516 527/527/527
f 527/527/527 516/516/516 512/512/512
f 527/527/527 512/512/512 517/517/517
f 526/526/526 525/525/525 528/528/528
f 528/528/528 525/525/525 527/527/527
f 529/529/529 526/526/526 528/528/528
f 530/530/530 527/527/527 517/517/517
f 528/528/528 527/527/527 530/530/530
f 529/529/529 528/528/528 531/531/531
f 531/531/531 528/528/528 530/530/530
f 532/532/532 529/529/529 531/531/531
f 530/530/530 517/517/517 533/533/533
f 533/533/533 517/517/517 513/513/513
f 533/533/533 513/513/513 518/518/518
f 531/531/531 530/530/530 534/534/534
f 534/534/534 530/530/530 533/533/533
f 532/532/532 531/531/531 535/535/535
f 535/535/535 531/531/531 534/534/534
f 536/536/536 532/532/532 535/535/535
f 537/537/537 533/533/533 518/518/518
f 534/534/534 533/533/533 537/537/537
f 535/535/535 534/534/534 538/538/538
f 538/538/538 534/534/534 537/537/537
f 536/536/536 535/535/535 539/539/539
f 539/539/539 535/535/535 538/538/538
f 540/540/540 536/536/536 539/539/539
f 537/537/537 518/518/518 541/541/541
f 541/541/541 518/518/518 514/514/514
f 541/541/541 514/514/514 519/519/519
f 538/538/538 537/537/537 542/542/542
f 542/542/542 537/537/537 541/541/541
f 539/539/539 538/538/538 543/543/543
f 543/543/543 538/538/538 542/542/542
f 540/540/540 539/539/539 544/544/544
f 544/544/544 539/539/539 543/543/543
f 545/545/545 540/540/540 544/544/544
f 546/546/546 541/541/541 519/519/519
f 542/542/542 541/541/541 546/546/546
f 543/543/543 542/542/542 547/547/547
f 547/547/547 542/542/542 546/546/546
f 544/544/544 543/543/543 548/548/548
f 548/548/548 543/543/543 547/547/547
f 545/545/545 544/544/544 549/549/549
f 549/549/549 544/544/544 548/548/548
f 550/550/550 545/545/545 549/549/549
f 546/546/546 519/519/519 551/551/551
f 551/551/551 519/519/519 474/474/474
f 551/551/551 474/474/474 475/475/475
f 547/547/547 546/546/546 552/552/552
f 552/552/552 546/546/546 551/551/551
f 553/553/553 551/551/551 475/475/475
f 552/552/552 551/551/551 553/553/553
f 553/553/553 475/475/475 476/476/476
f 548/548/548 547/547/547 554/554/554
f 554/554/554 547/547/547 552/552/552
f 549/549/549 548/548/548 555/555/555
f 555/555/555 548/548/548 554/554/554
f 550/550/550 549/549/549 556/556/556
f 556/556/556 549/549/549 555/555/555
f 557/557/557 550/550/550 556/556/556
f 558/558/558 553/553/553 476/476/476
f 558/558/558 476/476/476 477/477/477
f 559/559/559 552/552/552 553/553/553
f 554/554/554 552/552/552 559/559/559
f 559/559/559 553/553/553 558/558/558
f 555/555/555 554/554/554 560/560/560
f 560/560/560 554/554/554 559/559/559
f 556/556/556 555/555/555 561/561/561
f 561/561/561 555/555/555 560/560/560
f 557/557/557 556/556/556 562/562/562
f 562/562/562 556/556/556 561/561/561
f 563/563/563 557/557/557 562/562/562
f 564/564/564 558/558/558 477/477/477
f 564/564/564 477/477/477 479/479/479
f 565/565/565 559/559/559 558/558/558
f 560/560/560 559/559/559 565/565/565
f 565/565/565 558/558/558 564/564/564
f 561/561/561 560/560/560 566/566/566
f 566/566/566 560/560/560 565/565/565
f 562/562/562 561/561/561 567/567/567
f 567/567/567 561/561/561 566/566/566
f 563/563/563 562/562/562 568/568/568
f 568/568/568 562/562/562 567/567/567
f 569/569/569 563/563/563 568/568/568
f 570/570/570 564/564/564 479/479/479
f 570/570/570 479/479/479 571/571/571
f 572/572/572 565/565/565 564/564/564
f 566/566/566 565/565/565 572/572/572
f 572/572/572 564/564/564 570/570/570
f 567/567/567 566/566/566 573/573/573
f 573/573/573 566/566/566 572/572/572
f 574/574/574 572/572/572 570/570/570
f 573/573/573 572/572/572 574/574/574
f 574/574/574 570/570/570 575/575/575
f 568/568/568 567/567/567 576/576/576
f 576/576/576 567/567/567 573/573/573
f 569/569/569 568/568/568 577/577/577
f 577/577/577 568/568/568 576/576/576
f 578/578/578 569/569/569 577/577/577
f 579/579/579 573/573/573 574/574/574
f 576/576/576 573/573/573 579/579/579
f 579/579/579 574/574/574 580/580/580
f 581/581/581 576/576/576 579/579/579
f 577/577/577 576/576/576 581/581/581
f 581/581/581 579/579/579 582/582/582
f 578/578/578 577/577/577 583/583/583
f 583/583/583 577/577/577 581/581/581
f 583/583/583 581/581/581 584/584/584
f 585/585/585 578/578/578 583/583/583
f 585/585/585 583/583/583 586/586/586
