g ExploderBody
v 0.42532268 -0.3090114 -0.8506542
v -0 0 -1
v 0.1390709 -0.46126977 -1.4495797
v -0.16245556 -0.49999526 -0.8506544
v 0.42532268 -0.3090114 -0.8506542
v 0.1390709 -0.46126977 -1.4495797
v -0 0 -1
v -0.16245556 -0.49999526 -0.8506544
v 0.1390709 -0.46126977 -1.4495797
v 0.42532268 -0.3090114 -0.8506542
v 0.7236073 -0.5257253 -0.44721952
v 1.0771935 -0.44294602 -0.98880523
v 0.85064787 0 -0.5257359
v 0.42532268 -0.3090114 -0.8506542
v 1.0771935 -0.44294602 -0.98880523
v 0.7236073 -0.5257253 -0.44721952
v 0.85064787 0 -0.5257359
v 1.0771935 -0.44294602 -0.98880523
v -0.16245556 -0.49999526 -0.8506544
v -0 0 -1
v -0.395722 -0.27480242 -1.4495786
v -0.5257298 0 -0.8506517
v -0.16245556 -0.49999526 -0.8506544
v -0.395722 -0.27480242 -1.4495786
v -0 0 -1
v -0.5257298 0 -0.8506517
v -0.395722 -0.27480242 -1.4495786
v -0.5257298 0 -0.8506517
v -0 0 -1
v -0.395722 0.27480242 -1.4495786
v -0.16245556 0.49999526 -0.8506544
v -0.5257298 0 -0.8506517
v -0.395722 0.27480242 -1.4495786
v -0 0 -1
v -0.16245556 0.49999526 -0.8506544
v -0.395722 0.27480242 -1.4495786
v -0.16245556 0.49999526 -0.8506544
v -0 0 -1
v 0.14447461 0.44463852 -1.4545475
v 0.42532268 0.3090114 -0.8506542
v -0.16245556 0.49999526 -0.8506544
v 0.14447461 0.44463852 -1.4545475
v -0 0 -1
v 0.42532268 0.3090114 -0.8506542
v 0.14447461 0.44463852 -1.4545475
v 0.85064787 0 -0.5257359
v 0.7236073 -0.5257253 -0.44721952
v 1.3661448 -0.44294626 -0.52127475
v 0.95105785 -0.30901262 0
v 0.85064787 0 -0.5257359
v 1.3661448 -0.44294626 -0.52127475
v 0.7236073 -0.5257253 -0.44721952
v 0.95105785 -0.30901262 0
v 1.3661448 -0.44294626 -0.52127475
v 0.26286882 -0.80901164 -0.52573764
v -0.27638802 -0.85064924 -0.44721985
v 0.00089633465 -1.4361577 -0.5212763
v -0 -0.99999994 0
v 0.26286882 -0.80901164 -0.52573764
v 0.00089633465 -1.4361577 -0.5212763
v -0.27638802 -0.85064924 -0.44721985
v -0 -0.99999994 0
v 0.00089633465 -1.4361577 -0.5212763
v -0.6881894 -0.49999693 -0.5257362
v -0.8944262 0 -0.44721562
v -1.358734 -0.46127358 -0.5238853
v -0.95105785 -0.30901262 0
v -0.6881894 -0.49999693 -0.5257362
v -1.358734 -0.46127358 -0.5238853
v -0.8944262 0 -0.44721562
v -0.95105785 -0.30901262 0
v -1.358734 -0.46127358 -0.5238853
v -0.6881894 0.49999693 -0.5257362
v -0.27638802 0.85064924 -0.44721985
v -0.8585681 1.1496898 -0.5238883
v -0.5877856 0.8090167 0
v -0.6881894 0.49999693 -0.5257362
v -0.8585681 1.1496898 -0.5238883
v -0.27638802 0.85064924 -0.44721985
v -0.5877856 0.8090167 0
v -0.8585681 1.1496898 -0.5238883
v 0.26286882 0.80901164 -0.52573764
v 0.7236073 0.5257253 -0.44721952
v 0.8281116 1.1718185 -0.5238881
v 0.5877856 0.8090167 0
v 0.26286882 0.80901164 -0.52573764
v 0.8281116 1.1718185 -0.5238881
v 0.7236073 0.5257253 -0.44721952
v 0.5877856 0.8090167 0
v 0.8281116 1.1718185 -0.5238881
v 0.95105785 -0.30901262 0
v 0.7236073 -0.5257253 -0.44721952
v 1.2171546 -0.8970141 -0.21745186
v 0.5877856 -0.8090167 0
v 0.95105785 -0.30901262 0
v 1.2171546 -0.8970141 -0.21745186
v 0.7236073 -0.5257253 -0.44721952
v 0.5877856 -0.8090167 0
v 1.2171546 -0.8970141 -0.21745186
v -0 -0.99999994 0
v -0.27638802 -0.85064924 -0.44721985
v -0.476993 -1.4347745 -0.21745276
v -0.5877856 -0.8090167 0
v -0 -0.99999994 0
v -0.476993 -1.4347745 -0.21745276
v -0.27638802 -0.85064924 -0.44721985
v -0.5877856 -0.8090167 0
v -0.476993 -1.4347745 -0.21745276
v -0.95105785 -0.30901262 0
v -0.8944262 0 -0.44721562
v -1.5119522 -0.010278612 -0.21745118
v -0.95105785 0.30901262 0
v -0.95105785 -0.30901262 0
v -1.5119522 -0.010278612 -0.21745118
v -0.8944262 0 -0.44721562
v -0.95105785 0.30901262 0
v -1.5119522 -0.010278612 -0.21745118
v -0.5877856 0.8090167 0
v -0.27638802 0.85064924 -0.44721985
v -0.46663505 1.4361593 -0.23232856
v -0 0.99999994 0
v -0.5877856 0.8090167 0
v -0.46663505 1.4361593 -0.23232856
v -0.27638802 0.85064924 -0.44721985
v -0 0.99999994 0
v -0.46663505 1.4361593 -0.23232856
v 0.5877856 0.8090167 0
v 0.7236073 0.5257253 -0.44721952
v 1.2216724 0.887591 -0.23232767
v 0.95105785 0.30901262 0
v 0.5877856 0.8090167 0
v 1.2216724 0.887591 -0.23232767
v 0.7236073 0.5257253 -0.44721952
v 0.95105785 0.30901262 0
v 1.2216724 0.887591 -0.23232767
v 0.6881894 -0.49999693 0.5257362
v 0.27638802 -0.85064924 0.44721985
v 0.611105 -0.9915112 0.9888054
v 0.16245556 -0.49999526 0.85065436
v 0.6881894 -0.49999693 0.5257362
v 0.611105 -0.9915112 0.9888054
v 0.27638802 -0.85064924 0.44721985
v 0.16245556 -0.49999526 0.85065436
v 0.611105 -0.9915112 0.9888054
v -0.26286882 -0.80901164 0.52573764
v -0.7236073 -0.5257253 0.44721952
v -0.7541454 -0.8875865 0.9888057
v -0.42532268 -0.3090114 0.8506542
v -0.26286882 -0.80901164 0.52573764
v -0.7541454 -0.8875865 0.9888057
v -0.7236073 -0.5257253 0.44721952
v -0.42532268 -0.3090114 0.8506542
v -0.7541454 -0.8875865 0.9888057
v -0.85064787 0 0.5257359
v -0.7236073 0.5257253 0.44721952
v -1.0814192 0.42545885 0.99141693
v -0.42532268 0.3090114 0.8506542
v -0.85064787 0 0.5257359
v -1.0814192 0.42545885 0.99141693
v -0.7236073 0.5257253 0.44721952
v -0.42532268 0.3090114 0.8506542
v -1.0814192 0.42545885 0.99141693
v -0.26286882 0.80901164 0.52573764
v 0.27638802 0.85064924 0.44721985
v 0.08839339 1.1613487 0.988806
v 0.16245556 0.49999526 0.85065436
v -0.26286882 0.80901164 0.52573764
v 0.08839339 1.1613487 0.988806
v 0.27638802 0.85064924 0.44721985
v 0.16245556 0.49999526 0.85065436
v 0.08839339 1.1613487 0.988806
v 0.6881894 0.49999693 0.5257362
v 0.8944262 0 0.44721562
v 1.1195656 0.2748027 1.0022205
v 0.5257298 0 0.8506517
v 0.6881894 0.49999693 0.5257362
v 1.1195656 0.2748027 1.0022205
v 0.8944262 0 0.44721562
v 0.5257298 0 0.8506517
v 1.1195656 0.2748027 1.0022205
v 0.16245556 0.49999526 0.85065436
v 0.5257298 0 0.8506517
v 0.37823477 0.27480248 1.4545463
v -0 0 1
v 0.16245556 0.49999526 0.85065436
v 0.37823477 0.27480248 1.4545463
v 0.5257298 0 0.8506517
v -0 0 1
v 0.37823477 0.27480248 1.4545463
v 0.6881894 0.49999693 0.5257362
v 0.5257298 0 0.8506517
v 0.7477182 0.53054416 1.209846
v 0.16245556 0.49999526 0.85065436
v 0.6881894 0.49999693 0.5257362
v 0.7477182 0.53054416 1.209846
v 0.5257298 0 0.8506517
v 0.16245556 0.49999526 0.85065436
v 0.7477182 0.53054416 1.209846
v 0.27638802 0.85064924 0.44721985
v 0.6881894 0.49999693 0.5257362
v 0.6073153 0.9798474 1.0022248
v 0.16245556 0.49999526 0.85065436
v 0.27638802 0.85064924 0.44721985
v 0.6073153 0.9798474 1.0022248
v 0.6881894 0.49999693 0.5257362
v 0.16245556 0.49999526 0.85065436
v 0.6073153 0.9798474 1.0022248
v -0.42532268 0.3090114 0.8506542
v 0.16245556 0.49999526 0.85065436
v -0.15862197 0.45491713 1.4495797
v -0 0 1
v -0.42532268 0.3090114 0.8506542
v -0.15862197 0.45491713 1.4495797
v 0.16245556 0.49999526 0.85065436
v -0 0 1
v -0.15862197 0.45491713 1.4495797
v -0.26286882 0.80901164 0.52573764
v 0.16245556 0.49999526 0.85065436
v -0.29307523 0.8687143 1.2098475
v -0.42532268 0.3090114 0.8506542
v -0.26286882 0.80901164 0.52573764
v -0.29307523 0.8687143 1.2098475
v 0.16245556 0.49999526 0.85065436
v -0.42532268 0.3090114 0.8506542
v -0.29307523 0.8687143 1.2098475
v -0.7236073 0.5257253 0.44721952
v -0.26286882 0.80901164 0.52573764
v -0.7541454 0.8875865 0.9888057
v -0.42532268 0.3090114 0.8506542
v -0.7236073 0.5257253 0.44721952
v -0.7541454 0.8875865 0.9888057
v -0.26286882 0.80901164 0.52573764
v -0.42532268 0.3090114 0.8506542
v -0.7541454 0.8875865 0.9888057
v -0.42532268 -0.3090114 0.8506542
v -0.42532268 0.3090114 0.8506542
v -0.4816695 -0.010278583 1.4495798
v -0 0 1
v -0.42532268 -0.3090114 0.8506542
v -0.4816695 -0.010278583 1.4495798
v -0.42532268 0.3090114 0.8506542
v -0 0 1
v -0.4816695 -0.010278583 1.4495798
v -0.85064787 0 0.5257359
v -0.42532268 0.3090114 0.8506542
v -0.9167648 -0.010278583 1.2098457
v -0.42532268 -0.3090114 0.8506542
v -0.85064787 0 0.5257359
v -0.9167648 -0.010278583 1.2098457
v -0.42532268 0.3090114 0.8506542
v -0.42532268 -0.3090114 0.8506542
v -0.9167648 -0.010278583 1.2098457
v -0.7236073 -0.5257253 0.44721952
v -0.85064787 0 0.5257359
v -1.0771935 -0.44294602 0.98880523
v -0.42532268 -0.3090114 0.8506542
v -0.7236073 -0.5257253 0.44721952
v -1.0771935 -0.44294602 0.98880523
v -0.85064787 0 0.5257359
v -0.42532268 -0.3090114 0.8506542
v -1.0771935 -0.44294602 0.98880523
v 0.16245556 -0.49999526 0.85065436
v -0.42532268 -0.3090114 0.8506542
v -0.15862197 -0.45491713 1.4495797
v -0 0 1
v 0.16245556 -0.49999526 0.85065436
v -0.15862197 -0.45491713 1.4495797
v -0.42532268 -0.3090114 0.8506542
v -0 0 1
v -0.15862197 -0.45491713 1.4495797
v -0.26286882 -0.80901164 0.52573764
v -0.42532268 -0.3090114 0.8506542
v -0.28767157 -0.8853457 1.1990398
v 0.16245556 -0.49999526 0.85065436
v -0.26286882 -0.80901164 0.52573764
v -0.28767157 -0.8853457 1.1990398
v -0.42532268 -0.3090114 0.8506542
v 0.16245556 -0.49999526 0.85065436
v -0.28767157 -0.8853457 1.1990398
v 0.27638802 -0.85064924 0.44721985
v -0.26286882 -0.80901164 0.52573764
v 0.07045622 -1.1599637 0.9914177
v 0.16245556 -0.49999526 0.85065436
v 0.27638802 -0.85064924 0.44721985
v 0.07045622 -1.1599637 0.9914177
v -0.26286882 -0.80901164 0.52573764
v 0.16245556 -0.49999526 0.85065436
v 0.07045622 -1.1599637 0.9914177
v 0.5257298 0 0.8506517
v 0.16245556 -0.49999526 0.85065436
v 0.395722 -0.27480248 1.4495786
v -0 0 1
v 0.5257298 0 0.8506517
v 0.395722 -0.27480248 1.4495786
v 0.16245556 -0.49999526 0.85065436
v -0 0 1
v 0.395722 -0.27480248 1.4495786
v 0.6881894 -0.49999693 0.5257362
v 0.16245556 -0.49999526 0.85065436
v 0.73563474 -0.5471754 1.2098463
v 0.5257298 0 0.8506517
v 0.6881894 -0.49999693 0.5257362
v 0.73563474 -0.5471754 1.2098463
v 0.16245556 -0.49999526 0.85065436
v 0.5257298 0 0.8506517
v 0.73563474 -0.5471754 1.2098463
v 0.8944262 0 0.44721562
v 0.6881894 -0.49999693 0.5257362
v 1.1318295 -0.2748027 0.9888011
v 0.5257298 0 0.8506517
v 0.8944262 0 0.44721562
v 1.1318295 -0.2748027 0.9888011
v 0.6881894 -0.49999693 0.5257362
v 0.5257298 0 0.8506517
v 1.1318295 -0.2748027 0.9888011
v 0.6881894 0.49999693 0.5257362
v 0.95105785 0.30901262 0
v 1.365594 0.4446423 0.5212735
v 0.8944262 0 0.44721562
v 0.6881894 0.49999693 0.5257362
v 1.365594 0.4446423 0.5212735
v 0.95105785 0.30901262 0
v 0.8944262 0 0.44721562
v 1.365594 0.4446423 0.5212735
v 0.5877856 0.8090167 0
v 0.95105785 0.30901262 0
v 1.2131817 0.8687183 0.27892834
v 0.6881894 0.49999693 0.5257362
v 0.5877856 0.8090167 0
v 1.2131817 0.8687183 0.27892834
v 0.95105785 0.30901262 0
v 0.6881894 0.49999693 0.5257362
v 1.2131817 0.8687183 0.27892834
v 0.27638802 0.85064924 0.44721985
v 0.5877856 0.8090167 0
v 0.85522836 1.1599689 0.5064009
v 0.6881894 0.49999693 0.5257362
v 0.27638802 0.85064924 0.44721985
v 0.85522836 1.1599689 0.5064009
v 0.5877856 0.8090167 0
v 0.6881894 0.49999693 0.5257362
v 0.85522836 1.1599689 0.5064009
v -0.26286882 0.80901164 0.52573764
v -0 0.99999994 0
v -0.010089785 1.4411255 0.50640047
v 0.27638802 0.85064924 0.44721985
v -0.26286882 0.80901164 0.52573764
v -0.010089785 1.4411255 0.50640047
v -0 0.99999994 0
v 0.27638802 0.85064924 0.44721985
v -0.010089785 1.4411255 0.50640047
v -0.5877856 0.8090167 0
v -0 0.99999994 0
v -0.47086298 1.4158987 0.27893022
v -0.26286882 0.80901164 0.52573764
v -0.5877856 0.8090167 0
v -0.47086298 1.4158987 0.27893022
v -0 0.99999994 0
v -0.26286882 0.80901164 0.52573764
v -0.47086298 1.4158987 0.27893022
v -0.7236073 0.5257253 0.44721952
v -0.5877856 0.8090167 0
v -0.8389192 1.1718186 0.50640064
v -0.26286882 0.80901164 0.52573764
v -0.7236073 0.5257253 0.44721952
v -0.8389192 1.1718186 0.50640064
v -0.5877856 0.8090167 0
v -0.26286882 0.80901164 0.52573764
v -0.8389192 1.1718186 0.50640064
v -0.85064787 0 0.5257359
v -0.95105785 0.30901262 0
v -1.3737104 0.4357378 0.506399
v -0.7236073 0.5257253 0.44721952
v -0.85064787 0 0.5257359
v -1.3737104 0.4357378 0.506399
v -0.95105785 0.30901262 0
v -0.7236073 0.5257253 0.44721952
v -1.3737104 0.4357378 0.506399
v -0.95105785 -0.30901262 0
v -0.95105785 0.30901262 0
v -1.4921056 -0.010278612 0.27893034
v -0.85064787 0 0.5257359
v -0.95105785 -0.30901262 0
v -1.4921056 -0.010278612 0.27893034
v -0.95105785 0.30901262 0
v -0.85064787 0 0.5257359
v -1.4921056 -0.010278612 0.27893034
v -0.7236073 -0.5257253 0.44721952
v -0.95105785 -0.30901262 0
v -1.3661448 -0.44294623 0.5212747
v -0.85064787 0 0.5257359
v -0.7236073 -0.5257253 0.44721952
v -1.3661448 -0.44294623 0.5212747
v -0.95105785 -0.30901262 0
v -0.85064787 0 0.5257359
v -1.3661448 -0.44294623 0.5212747
v -0.26286882 -0.80901164 0.52573764
v -0.5877856 -0.8090167 0
v -0.8389192 -1.1718186 0.5064006
v -0.7236073 -0.5257253 0.44721952
v -0.26286882 -0.80901164 0.52573764
v -0.8389192 -1.1718186 0.5064006
v -0.5877856 -0.8090167 0
v -0.7236073 -0.5257253 0.44721952
v -0.8389192 -1.1718186 0.5064006
v -0 -0.99999994 0
v -0.5877856 -0.8090167 0
v -0.47086295 -1.4158987 0.27893022
v -0.26286882 -0.80901164 0.52573764
v -0 -0.99999994 0
v -0.47086295 -1.4158987 0.27893022
v -0.5877856 -0.8090167 0
v -0.26286882 -0.80901164 0.52573764
v -0.47086295 -1.4158987 0.27893022
v 0.27638802 -0.85064924 0.44721985
v -0 -0.99999994 0
v -0.010089785 -1.4411255 0.50640047
v -0.26286882 -0.80901164 0.52573764
v 0.27638802 -0.85064924 0.44721985
v -0.010089785 -1.4411255 0.50640047
v -0 -0.99999994 0
v -0.26286882 -0.80901164 0.52573764
v -0.010089785 -1.4411255 0.50640047
v 0.6881894 -0.49999693 0.5257362
v 0.5877856 -0.8090167 0
v 0.85522836 -1.1599689 0.5064009
v 0.27638802 -0.85064924 0.44721985
v 0.6881894 -0.49999693 0.5257362
v 0.85522836 -1.1599689 0.5064009
v 0.5877856 -0.8090167 0
v 0.27638802 -0.85064924 0.44721985
v 0.85522836 -1.1599689 0.5064009
v 0.95105785 -0.30901262 0
v 0.5877856 -0.8090167 0
v 1.2010983 -0.88534987 0.27892834
v 0.6881894 -0.49999693 0.5257362
v 0.95105785 -0.30901262 0
v 1.2010983 -0.88534987 0.27892834
v 0.5877856 -0.8090167 0
v 0.6881894 -0.49999693 0.5257362
v 1.2010983 -0.88534987 0.27892834
v 0.8944262 0 0.44721562
v 0.95105785 -0.30901262 0
v 1.358734 -0.46127352 0.5238853
v 0.6881894 -0.49999693 0.5257362
v 0.8944262 0 0.44721562
v 1.358734 -0.46127352 0.5238853
v 0.95105785 -0.30901262 0
v 0.6881894 -0.49999693 0.5257362
v 1.358734 -0.46127352 0.5238853
v -0 0.99999994 0
v 0.5877856 0.8090167 0
v 0.45744163 1.4411273 0.21745276
v 0.27638802 0.85064924 0.44721985
v -0 0.99999994 0
v 0.45744163 1.4411273 0.21745276
v 0.5877856 0.8090167 0
v 0.27638802 0.85064924 0.44721985
v 0.45744163 1.4411273 0.21745276
v 0.26286882 0.80901164 -0.52573764
v 0.5877856 0.8090167 0
v 0.46005532 1.4158986 -0.2964177
v -0 0.99999994 0
v 0.26286882 0.80901164 -0.52573764
v 0.46005532 1.4158986 -0.2964177
v 0.5877856 0.8090167 0
v -0 0.99999994 0
v 0.46005532 1.4158986 -0.2964177
v -0.27638802 0.85064924 -0.44721985
v 0.26286882 0.80901164 -0.52573764
v 0.00089633465 1.4361577 -0.5212763
v -0 0.99999994 0
v -0.27638802 0.85064924 -0.44721985
v 0.00089633465 1.4361577 -0.5212763
v 0.26286882 0.80901164 -0.52573764
v -0 0.99999994 0
v 0.00089633465 1.4361577 -0.5212763
v -0.95105785 0.30901262 0
v -0.5877856 0.8090167 0
v -1.2292382 0.88038254 0.21745186
v -0.7236073 0.5257253 0.44721952
v -0.95105785 0.30901262 0
v -1.2292382 0.88038254 0.21745186
v -0.5877856 0.8090167 0
v -0.7236073 0.5257253 0.44721952
v -1.2292382 0.88038254 0.21745186
v -0.6881894 0.49999693 -0.5257362
v -0.5877856 0.8090167 0
v -1.2131816 0.86871827 -0.27892834
v -0.95105785 0.30901262 0
v -0.6881894 0.49999693 -0.5257362
v -1.2131816 0.86871827 -0.27892834
v -0.5877856 0.8090167 0
v -0.95105785 0.30901262 0
v -1.2131816 0.86871827 -0.27892834
v -0.8944262 0 -0.44721562
v -0.6881894 0.49999693 -0.5257362
v -1.358734 0.46127352 -0.5238853
v -0.95105785 0.30901262 0
v -0.8944262 0 -0.44721562
v -1.358734 0.46127352 -0.5238853
v -0.6881894 0.49999693 -0.5257362
v -0.95105785 0.30901262 0
v -1.358734 0.46127352 -0.5238853
v -0.5877856 -0.8090167 0
v -0.95105785 -0.30901262 0
v -1.2292382 -0.88038254 0.21745189
v -0.7236073 -0.5257253 0.44721952
v -0.5877856 -0.8090167 0
v -1.2292382 -0.88038254 0.21745189
v -0.95105785 -0.30901262 0
v -0.7236073 -0.5257253 0.44721952
v -1.2292382 -0.88038254 0.21745189
v -0.6881894 -0.49999693 -0.5257362
v -0.95105785 -0.30901262 0
v -1.204438 -0.8750709 -0.2964158
v -0.5877856 -0.8090167 0
v -0.6881894 -0.49999693 -0.5257362
v -1.204438 -0.8750709 -0.2964158
v -0.95105785 -0.30901262 0
v -0.5877856 -0.8090167 0
v -1.204438 -0.8750709 -0.2964158
v -0.27638802 -0.85064924 -0.44721985
v -0.6881894 -0.49999693 -0.5257362
v -0.8585681 -1.1496898 -0.5238883
v -0.5877856 -0.8090167 0
v -0.27638802 -0.85064924 -0.44721985
v -0.8585681 -1.1496898 -0.5238883
v -0.6881894 -0.49999693 -0.5257362
v -0.5877856 -0.8090167 0
v -0.8585681 -1.1496898 -0.5238883
v 0.5877856 -0.8090167 0
v -0 -0.99999994 0
v 0.45744163 -1.4411273 0.21745276
v 0.27638802 -0.85064924 0.44721985
v 0.5877856 -0.8090167 0
v 0.45744163 -1.4411273 0.21745276
v -0 -0.99999994 0
v 0.27638802 -0.85064924 0.44721985
v 0.45744163 -1.4411273 0.21745276
v 0.26286882 -0.80901164 -0.52573764
v -0 -0.99999994 0
v 0.45131156 -1.4222513 -0.27893022
v 0.5877856 -0.8090167 0
v 0.26286882 -0.80901164 -0.52573764
v 0.45131156 -1.4222513 -0.27893022
v -0 -0.99999994 0
v 0.5877856 -0.8090167 0
v 0.45131156 -1.4222513 -0.27893022
v 0.7236073 -0.5257253 -0.44721952
v 0.26286882 -0.80901164 -0.52573764
v 0.8281116 -1.1718185 -0.5238881
v 0.5877856 -0.8090167 0
v 0.7236073 -0.5257253 -0.44721952
v 0.8281116 -1.1718185 -0.5238881
v 0.26286882 -0.80901164 -0.52573764
v 0.5877856 -0.8090167 0
v 0.8281116 -1.1718185 -0.5238881
v 0.95105785 0.30901262 0
v 0.95105785 -0.30901262 0
v 1.5100684 0 0.23232687
v 0.8944262 0 0.44721562
v 0.95105785 0.30901262 0
v 1.5100684 0 0.23232687
v 0.95105785 -0.30901262 0
v 0.8944262 0 0.44721562
v 1.5100684 0 0.23232687
v 0.85064787 0 -0.5257359
v 0.95105785 -0.30901262 0
v 1.4921056 -0.010278612 -0.27893034
v 0.95105785 0.30901262 0
v 0.85064787 0 -0.5257359
v 1.4921056 -0.010278612 -0.27893034
v 0.95105785 -0.30901262 0
v 0.95105785 0.30901262 0
v 1.4921056 -0.010278612 -0.27893034
v 0.7236073 0.5257253 -0.44721952
v 0.85064787 0 -0.5257359
v 1.3703705 0.42545915 -0.5238864
v 0.95105785 0.30901262 0
v 0.7236073 0.5257253 -0.44721952
v 1.3703705 0.42545915 -0.5238864
v 0.85064787 0 -0.5257359
v 0.95105785 0.30901262 0
v 1.3703705 0.42545915 -0.5238864
v 0.26286882 0.80901164 -0.52573764
v 0.42532268 0.3090114 -0.8506542
v 0.7388199 0.8970094 -0.9914174
v 0.7236073 0.5257253 -0.44721952
v 0.26286882 0.80901164 -0.52573764
v 0.7388199 0.8970094 -0.9914174
v 0.42532268 0.3090114 -0.8506542
v 0.7236073 0.5257253 -0.44721952
v 0.7388199 0.8970094 -0.9914174
v -0.16245556 0.49999526 -0.8506544
v 0.42532268 0.3090114 -0.8506542
v 0.27352414 0.8750669 -1.2098475
v 0.26286882 0.80901164 -0.52573764
v -0.16245556 0.49999526 -0.8506544
v 0.27352414 0.8750669 -1.2098475
v 0.42532268 0.3090114 -0.8506542
v 0.26286882 0.80901164 -0.52573764
v 0.27352414 0.8750669 -1.2098475
v -0.27638802 0.85064924 -0.44721985
v -0.16245556 0.49999526 -0.8506544
v -0.08839339 1.1613487 -0.988806
v 0.26286882 0.80901164 -0.52573764
v -0.27638802 0.85064924 -0.44721985
v -0.08839339 1.1613487 -0.988806
v -0.16245556 0.49999526 -0.8506544
v 0.26286882 0.80901164 -0.52573764
v -0.08839339 1.1613487 -0.988806
v -0.6881894 0.49999693 -0.5257362
v -0.16245556 0.49999526 -0.8506544
v -0.62480265 0.97984755 -0.991417
v -0.27638802 0.85064924 -0.44721985
v -0.6881894 0.49999693 -0.5257362
v -0.62480265 0.97984755 -0.991417
v -0.16245556 0.49999526 -0.8506544
v -0.27638802 0.85064924 -0.44721985
v -0.62480265 0.97984755 -0.991417
v -0.5257298 0 -0.8506517
v -0.16245556 0.49999526 -0.8506544
v -0.7531221 0.54717547 -1.1990385
v -0.6881894 0.49999693 -0.5257362
v -0.5257298 0 -0.8506517
v -0.7531221 0.54717547 -1.1990385
v -0.16245556 0.49999526 -0.8506544
v -0.6881894 0.49999693 -0.5257362
v -0.7531221 0.54717547 -1.1990385
v -0.8944262 0 -0.44721562
v -0.5257298 0 -0.8506517
v -1.1318295 0.27480268 -0.9888011
v -0.6881894 0.49999693 -0.5257362
v -0.8944262 0 -0.44721562
v -1.1318295 0.27480268 -0.9888011
v -0.5257298 0 -0.8506517
v -0.6881894 0.49999693 -0.5257362
v -1.1318295 0.27480268 -0.9888011
v -0.6881894 -0.49999693 -0.5257362
v -0.5257298 0 -0.8506517
v -1.1318295 -0.2748027 -0.9888012
v -0.8944262 0 -0.44721562
v -0.6881894 -0.49999693 -0.5257362
v -1.1318295 -0.2748027 -0.9888012
v -0.5257298 0 -0.8506517
v -0.8944262 0 -0.44721562
v -1.1318295 -0.2748027 -0.9888012
v -0.16245556 -0.49999526 -0.8506544
v -0.5257298 0 -0.8506517
v -0.7531221 -0.54717547 -1.1990385
v -0.6881894 -0.49999693 -0.5257362
v -0.16245556 -0.49999526 -0.8506544
v -0.7531221 -0.54717547 -1.1990385
v -0.5257298 0 -0.8506517
v -0.6881894 -0.49999693 -0.5257362
v -0.7531221 -0.54717547 -1.1990385
v -0.27638802 -0.85064924 -0.44721985
v -0.16245556 -0.49999526 -0.8506544
v -0.611105 -0.9915112 -0.9888054
v -0.6881894 -0.49999693 -0.5257362
v -0.27638802 -0.85064924 -0.44721985
v -0.611105 -0.9915112 -0.9888054
v -0.16245556 -0.49999526 -0.8506544
v -0.6881894 -0.49999693 -0.5257362
v -0.611105 -0.9915112 -0.9888054
v 0.42532268 0.3090114 -0.8506542
v 0.85064787 0 -0.5257359
v 1.0672717 0.4357375 -1.0022246
v 0.7236073 0.5257253 -0.44721952
v 0.42532268 0.3090114 -0.8506542
v 1.0672717 0.4357375 -1.0022246
v 0.85064787 0 -0.5257359
v 0.7236073 0.5257253 -0.44721952
v 1.0672717 0.4357375 -1.0022246
v 0.42532268 -0.3090114 -0.8506542
v 0.85064787 0 -0.5257359
v 0.9167648 -0.010278583 -1.2098457
v 0.42532268 0.3090114 -0.8506542
v 0.42532268 -0.3090114 -0.8506542
v 0.9167648 -0.010278583 -1.2098457
v 0.85064787 0 -0.5257359
v 0.42532268 0.3090114 -0.8506542
v 0.9167648 -0.010278583 -1.2098457
v -0 0 -1
v 0.42532268 -0.3090114 -0.8506542
v 0.4816695 -0.010278583 -1.4495798
v 0.42532268 0.3090114 -0.8506542
v -0 0 -1
v 0.4816695 -0.010278583 -1.4495798
v 0.42532268 -0.3090114 -0.8506542
v 0.42532268 0.3090114 -0.8506542
v 0.4816695 -0.010278583 -1.4495798
v 0.26286882 -0.80901164 -0.52573764
v -0.16245556 -0.49999526 -0.8506544
v -0.08839339 -1.1613487 -0.988806
v -0.27638802 -0.85064924 -0.44721985
v 0.26286882 -0.80901164 -0.52573764
v -0.08839339 -1.1613487 -0.988806
v -0.16245556 -0.49999526 -0.8506544
v -0.27638802 -0.85064924 -0.44721985
v -0.08839339 -1.1613487 -0.988806
v 0.42532268 -0.3090114 -0.8506542
v -0.16245556 -0.49999526 -0.8506544
v 0.28767163 -0.8853457 -1.1990398
v 0.26286882 -0.80901164 -0.52573764
v 0.42532268 -0.3090114 -0.8506542
v 0.28767163 -0.8853457 -1.1990398
v -0.16245556 -0.49999526 -0.8506544
v 0.26286882 -0.80901164 -0.52573764
v 0.28767163 -0.8853457 -1.1990398
v 0.7236073 -0.5257253 -0.44721952
v 0.42532268 -0.3090114 -0.8506542
v 0.7388199 -0.8970094 -0.99141747
v 0.26286882 -0.80901164 -0.52573764
v 0.7236073 -0.5257253 -0.44721952
v 0.7388199 -0.8970094 -0.99141747
v 0.42532268 -0.3090114 -0.8506542
v 0.26286882 -0.80901164 -0.52573764
v 0.7388199 -0.8970094 -0.99141747
vt 0.2272735 0.0787305
vt 0.181819 0
vt 0.181819 0
vt 0.1363645 0.0787305
vt 0.2272735 0.0787305
vt 0.2272735 0.0787305
vt 0.181819 0
vt 0.1363645 0.0787305
vt 0.1363645 0.0787305
vt 0.3181825 0.0787305
vt 0.272728 0.157461
vt 0.272728 0.157461
vt 0.363637 0.157461
vt 0.3181825 0.0787305
vt 0.3181825 0.0787305
vt 0.272728 0.157461
vt 0.363637 0.157461
vt 0.363637 0.157461
vt 0.9545455 0.0787305
vt 0.909091 0
vt 0.909091 0
vt 0.8636365 0.0787305
vt 0.9545455 0.0787305
vt 0.9545455 0.0787305
vt 0.909091 0
vt 0.8636365 0.0787305
vt 0.8636365 0.0787305
vt 0.7727275 0.0787305
vt 0.727273 0
vt 0.727273 0
vt 0.6818185 0.0787305
vt 0.7727275 0.0787305
vt 0.7727275 0.0787305
vt 0.727273 0
vt 0.6818185 0.0787305
vt 0.6818185 0.0787305
vt 0.5909095 0.0787305
vt 0.545455 0
vt 0.545455 0
vt 0.5000005 0.0787305
vt 0.5909095 0.0787305
vt 0.5909095 0.0787305
vt 0.545455 0
vt 0.5000005 0.0787305
vt 0.5000005 0.0787305
vt 0.363637 0.157461
vt 0.272728 0.157461
vt 0.272728 0.157461
vt 0.3181825 0.236191
vt 0.363637 0.157461
vt 0.363637 0.157461
vt 0.272728 0.157461
vt 0.3181825 0.236191
vt 0.3181825 0.236191
vt 0.18181899 0.157461
vt 0.09091 0.157461
vt 0.09091 0.157461
vt 0.1363645 0.236191
vt 0.18181899 0.157461
vt 0.18181899 0.157461
vt 0.09091 0.157461
vt 0.1363645 0.236191
vt 0.1363645 0.236191
vt 0.909091 0.157461
vt 0.818182 0.157461
vt 0.818182 0.157461
vt 0.8636365 0.236191
vt 0.909091 0.157461
vt 0.909091 0.157461
vt 0.818182 0.157461
vt 0.8636365 0.236191
vt 0.8636365 0.236191
vt 0.727273 0.157461
vt 0.636364 0.157461
vt 0.636364 0.157461
vt 0.6818185 0.236191
vt 0.727273 0.157461
vt 0.727273 0.157461
vt 0.636364 0.157461
vt 0.6818185 0.236191
vt 0.6818185 0.236191
vt 0.545455 0.157461
vt 0.454546 0.157461
vt 0.454546 0.157461
vt 0.5000005 0.236191
vt 0.545455 0.157461
vt 0.545455 0.157461
vt 0.454546 0.157461
vt 0.5000005 0.236191
vt 0.5000005 0.236191
vt 0.3181825 0.236191
vt 0.272728 0.157461
vt 0.272728 0.157461
vt 0.2272735 0.236191
vt 0.3181825 0.236191
vt 0.3181825 0.236191
vt 0.272728 0.157461
vt 0.2272735 0.236191
vt 0.2272735 0.236191
vt 0.1363645 0.236191
vt 0.09091 0.157461
vt 0.09091 0.157461
vt 0.045455 0.236191
vt 0.1363645 0.236191
vt 0.1363645 0.236191
vt 0.09091 0.157461
vt 0.045455 0.236191
vt 0.045455 0.236191
vt 0.8636365 0.236191
vt 0.818182 0.157461
vt 0.818182 0.157461
vt 0.7727275 0.236191
vt 0.8636365 0.236191
vt 0.8636365 0.236191
vt 0.818182 0.157461
vt 0.7727275 0.236191
vt 0.7727275 0.236191
vt 0.6818185 0.236191
vt 0.636364 0.157461
vt 0.636364 0.157461
vt 0.5909095 0.236191
vt 0.6818185 0.236191
vt 0.6818185 0.236191
vt 0.636364 0.157461
vt 0.5909095 0.236191
vt 0.5909095 0.236191
vt 0.5000005 0.236191
vt 0.454546 0.157461
vt 0.454546 0.157461
vt 0.4090915 0.236191
vt 0.5000005 0.236191
vt 0.5000005 0.236191
vt 0.454546 0.157461
vt 0.4090915 0.236191
vt 0.4090915 0.236191
vt 0.272728 0.314921
vt 0.181819 0.314921
vt 0.181819 0.314921
vt 0.2272735 0.3936515
vt 0.272728 0.314921
vt 0.272728 0.314921
vt 0.181819 0.314921
vt 0.2272735 0.3936515
vt 0.2272735 0.3936515
vt 0.0909095 0.314921
vt 0 0.314921
vt 0 0.314921
vt 0.045455 0.3936515
vt 0.0909095 0.314921
vt 0.0909095 0.314921
vt 0 0.314921
vt 0.045455 0.3936515
vt 0.045455 0.3936515
vt 0.818182 0.314921
vt 0.727273 0.314921
vt 0.727273 0.314921
vt 0.7727275 0.3936515
vt 0.818182 0.314921
vt 0.818182 0.314921
vt 0.727273 0.314921
vt 0.7727275 0.3936515
vt 0.7727275 0.3936515
vt 0.636364 0.314921
vt 0.545455 0.314921
vt 0.545455 0.314921
vt 0.5909095 0.3936515
vt 0.636364 0.314921
vt 0.636364 0.314921
vt 0.545455 0.314921
vt 0.5909095 0.3936515
vt 0.5909095 0.3936515
vt 0.45454597 0.314921
vt 0.363637 0.314921
vt 0.363637 0.314921
vt 0.4090915 0.3936515
vt 0.45454597 0.314921
vt 0.45454597 0.314921
vt 0.363637 0.314921
vt 0.4090915 0.3936515
vt 0.4090915 0.3936515
vt 0.5000005 0.3936515
vt 0.4090915 0.3936515
vt 0.4090915 0.3936515
vt 0.454546 0.472382
vt 0.5000005 0.3936515
vt 0.5000005 0.3936515
vt 0.4090915 0.3936515
vt 0.454546 0.472382
vt 0.454546 0.472382
vt 0.45454597 0.314921
vt 0.4090915 0.3936515
vt 0.4090915 0.3936515
vt 0.5000005 0.3936515
vt 0.45454597 0.314921
vt 0.45454597 0.314921
vt 0.4090915 0.3936515
vt 0.5000005 0.3936515
vt 0.5000005 0.3936515
vt 0.545455 0.314921
vt 0.45454597 0.314921
vt 0.45454597 0.314921
vt 0.5000005 0.3936515
vt 0.545455 0.314921
vt 0.545455 0.314921
vt 0.45454597 0.314921
vt 0.5000005 0.3936515
vt 0.5000005 0.3936515
vt 0.6818185 0.3936515
vt 0.5909095 0.3936515
vt 0.5909095 0.3936515
vt 0.636364 0.472382
vt 0.6818185 0.3936515
vt 0.6818185 0.3936515
vt 0.5909095 0.3936515
vt 0.636364 0.472382
vt 0.636364 0.472382
vt 0.636364 0.314921
vt 0.5909095 0.3936515
vt 0.5909095 0.3936515
vt 0.6818185 0.3936515
vt 0.636364 0.314921
vt 0.636364 0.314921
vt 0.5909095 0.3936515
vt 0.6818185 0.3936515
vt 0.6818185 0.3936515
vt 0.727273 0.314921
vt 0.636364 0.314921
vt 0.636364 0.314921
vt 0.6818185 0.3936515
vt 0.727273 0.314921
vt 0.727273 0.314921
vt 0.636364 0.314921
vt 0.6818185 0.3936515
vt 0.6818185 0.3936515
vt 0.8636365 0.3936515
vt 0.7727275 0.3936515
vt 0.7727275 0.3936515
vt 0.818182 0.472382
vt 0.8636365 0.3936515
vt 0.8636365 0.3936515
vt 0.7727275 0.3936515
vt 0.818182 0.472382
vt 0.818182 0.472382
vt 0.818182 0.314921
vt 0.7727275 0.3936515
vt 0.7727275 0.3936515
vt 0.8636365 0.3936515
vt 0.818182 0.314921
vt 0.818182 0.314921
vt 0.7727275 0.3936515
vt 0.8636365 0.3936515
vt 0.8636365 0.3936515
vt 0.909091 0.314921
vt 0.818182 0.314921
vt 0.818182 0.314921
vt 0.8636365 0.3936515
vt 0.909091 0.314921
vt 0.909091 0.314921
vt 0.818182 0.314921
vt 0.8636365 0.3936515
vt 0.8636365 0.3936515
vt 0.1363645 0.3936515
vt 0.045455 0.3936515
vt 0.045455 0.3936515
vt 0.09091 0.472382
vt 0.1363645 0.3936515
vt 0.1363645 0.3936515
vt 0.045455 0.3936515
vt 0.09091 0.472382
vt 0.09091 0.472382
vt 0.0909095 0.314921
vt 0.045455 0.3936515
vt 0.045455 0.3936515
vt 0.1363645 0.3936515
vt 0.0909095 0.314921
vt 0.0909095 0.314921
vt 0.045455 0.3936515
vt 0.1363645 0.3936515
vt 0.1363645 0.3936515
vt 0.181819 0.314921
vt 0.0909095 0.314921
vt 0.0909095 0.314921
vt 0.1363645 0.3936515
vt 0.181819 0.314921
vt 0.181819 0.314921
vt 0.0909095 0.314921
vt 0.1363645 0.3936515
vt 0.1363645 0.3936515
vt 0.3181825 0.3936515
vt 0.2272735 0.3936515
vt 0.2272735 0.3936515
vt 0.272728 0.472382
vt 0.3181825 0.3936515
vt 0.3181825 0.3936515
vt 0.2272735 0.3936515
vt 0.272728 0.472382
vt 0.272728 0.472382
vt 0.272728 0.314921
vt 0.2272735 0.3936515
vt 0.2272735 0.3936515
vt 0.3181825 0.3936515
vt 0.272728 0.314921
vt 0.272728 0.314921
vt 0.2272735 0.3936515
vt 0.3181825 0.3936515
vt 0.3181825 0.3936515
vt 0.363637 0.314921
vt 0.272728 0.314921
vt 0.272728 0.314921
vt 0.3181825 0.3936515
vt 0.363637 0.314921
vt 0.363637 0.314921
vt 0.272728 0.314921
vt 0.3181825 0.3936515
vt 0.3181825 0.3936515
vt 0.45454597 0.314921
vt 0.4090915 0.236191
vt 0.4090915 0.236191
vt 0.363637 0.314921
vt 0.45454597 0.314921
vt 0.45454597 0.314921
vt 0.4090915 0.236191
vt 0.363637 0.314921
vt 0.363637 0.314921
vt 0.5000005 0.236191
vt 0.4090915 0.236191
vt 0.4090915 0.236191
vt 0.45454597 0.314921
vt 0.5000005 0.236191
vt 0.5000005 0.236191
vt 0.4090915 0.236191
vt 0.45454597 0.314921
vt 0.45454597 0.314921
vt 0.545455 0.314921
vt 0.5000005 0.236191
vt 0.5000005 0.236191
vt 0.45454597 0.314921
vt 0.545455 0.314921
vt 0.545455 0.314921
vt 0.5000005 0.236191
vt 0.45454597 0.314921
vt 0.45454597 0.314921
vt 0.636364 0.314921
vt 0.5909095 0.236191
vt 0.5909095 0.236191
vt 0.545455 0.314921
vt 0.636364 0.314921
vt 0.636364 0.314921
vt 0.5909095 0.236191
vt 0.545455 0.314921
vt 0.545455 0.314921
vt 0.6818185 0.236191
vt 0.5909095 0.236191
vt 0.5909095 0.236191
vt 0.636364 0.314921
vt 0.6818185 0.236191
vt 0.6818185 0.236191
vt 0.5909095 0.236191
vt 0.636364 0.314921
vt 0.636364 0.314921
vt 0.727273 0.314921
vt 0.6818185 0.236191
vt 0.6818185 0.236191
vt 0.636364 0.314921
vt 0.727273 0.314921
vt 0.727273 0.314921
vt 0.6818185 0.236191
vt 0.636364 0.314921
vt 0.636364 0.314921
vt 0.818182 0.314921
vt 0.7727275 0.236191
vt 0.7727275 0.236191
vt 0.727273 0.314921
vt 0.818182 0.314921
vt 0.818182 0.314921
vt 0.7727275 0.236191
vt 0.727273 0.314921
vt 0.727273 0.314921
vt 0.8636365 0.236191
vt 0.7727275 0.236191
vt 0.7727275 0.236191
vt 0.818182 0.314921
vt 0.8636365 0.236191
vt 0.8636365 0.236191
vt 0.7727275 0.236191
vt 0.818182 0.314921
vt 0.818182 0.314921
vt 0.909091 0.314921
vt 0.8636365 0.236191
vt 0.8636365 0.236191
vt 0.818182 0.314921
vt 0.909091 0.314921
vt 0.909091 0.314921
vt 0.8636365 0.236191
vt 0.818182 0.314921
vt 0.818182 0.314921
vt 0.0909095 0.314921
vt 0.045455 0.236191
vt 0.045455 0.236191
vt 0 0.314921
vt 0.0909095 0.314921
vt 0.0909095 0.314921
vt 0.045455 0.236191
vt 0 0.314921
vt 0 0.314921
vt 0.1363645 0.236191
vt 0.045455 0.236191
vt 0.045455 0.236191
vt 0.0909095 0.314921
vt 0.1363645 0.236191
vt 0.1363645 0.236191
vt 0.045455 0.236191
vt 0.0909095 0.314921
vt 0.0909095 0.314921
vt 0.181819 0.314921
vt 0.1363645 0.236191
vt 0.1363645 0.236191
vt 0.0909095 0.314921
vt 0.181819 0.314921
vt 0.181819 0.314921
vt 0.1363645 0.236191
vt 0.0909095 0.314921
vt 0.0909095 0.314921
vt 0.272728 0.314921
vt 0.2272735 0.236191
vt 0.2272735 0.236191
vt 0.181819 0.314921
vt 0.272728 0.314921
vt 0.272728 0.314921
vt 0.2272735 0.236191
vt 0.181819 0.314921
vt 0.181819 0.314921
vt 0.3181825 0.236191
vt 0.2272735 0.236191
vt 0.2272735 0.236191
vt 0.272728 0.314921
vt 0.3181825 0.236191
vt 0.3181825 0.236191
vt 0.2272735 0.236191
vt 0.272728 0.314921
vt 0.272728 0.314921
vt 0.363637 0.314921
vt 0.3181825 0.236191
vt 0.3181825 0.236191
vt 0.272728 0.314921
vt 0.363637 0.314921
vt 0.363637 0.314921
vt 0.3181825 0.236191
vt 0.272728 0.314921
vt 0.272728 0.314921
vt 0.5909095 0.236191
vt 0.5000005 0.236191
vt 0.5000005 0.236191
vt 0.545455 0.314921
vt 0.5909095 0.236191
vt 0.5909095 0.236191
vt 0.5000005 0.236191
vt 0.545455 0.314921
vt 0.545455 0.314921
vt 0.545455 0.157461
vt 0.5000005 0.236191
vt 0.5000005 0.236191
vt 0.5909095 0.236191
vt 0.545455 0.157461
vt 0.545455 0.157461
vt 0.5000005 0.236191
vt 0.5909095 0.236191
vt 0.5909095 0.236191
vt 0.636364 0.157461
vt 0.545455 0.157461
vt 0.545455 0.157461
vt 0.5909095 0.236191
vt 0.636364 0.157461
vt 0.636364 0.157461
vt 0.545455 0.157461
vt 0.5909095 0.236191
vt 0.5909095 0.236191
vt 0.7727275 0.236191
vt 0.6818185 0.236191
vt 0.6818185 0.236191
vt 0.727273 0.314921
vt 0.7727275 0.236191
vt 0.7727275 0.236191
vt 0.6818185 0.236191
vt 0.727273 0.314921
vt 0.727273 0.314921
vt 0.727273 0.157461
vt 0.6818185 0.236191
vt 0.6818185 0.236191
vt 0.7727275 0.236191
vt 0.727273 0.157461
vt 0.727273 0.157461
vt 0.6818185 0.236191
vt 0.7727275 0.236191
vt 0.7727275 0.236191
vt 0.818182 0.157461
vt 0.727273 0.157461
vt 0.727273 0.157461
vt 0.7727275 0.236191
vt 0.818182 0.157461
vt 0.818182 0.157461
vt 0.727273 0.157461
vt 0.7727275 0.236191
vt 0.7727275 0.236191
vt 0.9545455 0.236191
vt 0.8636365 0.236191
vt 0.8636365 0.236191
vt 0.909091 0.314921
vt 0.9545455 0.236191
vt 0.9545455 0.236191
vt 0.8636365 0.236191
vt 0.909091 0.314921
vt 0.909091 0.314921
vt 0.909091 0.157461
vt 0.8636365 0.236191
vt 0.8636365 0.236191
vt 0.9545455 0.236191
vt 0.909091 0.157461
vt 0.909091 0.157461
vt 0.8636365 0.236191
vt 0.9545455 0.236191
vt 0.9545455 0.236191
vt 1 0.157461
vt 0.909091 0.157461
vt 0.909091 0.157461
vt 0.9545455 0.236191
vt 1 0.157461
vt 1 0.157461
vt 0.909091 0.157461
vt 0.9545455 0.236191
vt 0.9545455 0.236191
vt 0.2272735 0.236191
vt 0.1363645 0.236191
vt 0.1363645 0.236191
vt 0.181819 0.314921
vt 0.2272735 0.236191
vt 0.2272735 0.236191
vt 0.1363645 0.236191
vt 0.181819 0.314921
vt 0.181819 0.314921
vt 0.18181899 0.157461
vt 0.1363645 0.236191
vt 0.1363645 0.236191
vt 0.2272735 0.236191
vt 0.18181899 0.157461
vt 0.18181899 0.157461
vt 0.1363645 0.236191
vt 0.2272735 0.236191
vt 0.2272735 0.236191
vt 0.272728 0.157461
vt 0.18181899 0.157461
vt 0.18181899 0.157461
vt 0.2272735 0.236191
vt 0.272728 0.157461
vt 0.272728 0.157461
vt 0.18181899 0.157461
vt 0.2272735 0.236191
vt 0.2272735 0.236191
vt 0.4090915 0.236191
vt 0.3181825 0.236191
vt 0.3181825 0.236191
vt 0.363637 0.314921
vt 0.4090915 0.236191
vt 0.4090915 0.236191
vt 0.3181825 0.236191
vt 0.363637 0.314921
vt 0.363637 0.314921
vt 0.363637 0.157461
vt 0.3181825 0.236191
vt 0.3181825 0.236191
vt 0.4090915 0.236191
vt 0.363637 0.157461
vt 0.363637 0.157461
vt 0.3181825 0.236191
vt 0.4090915 0.236191
vt 0.4090915 0.236191
vt 0.454546 0.157461
vt 0.363637 0.157461
vt 0.363637 0.157461
vt 0.4090915 0.236191
vt 0.454546 0.157461
vt 0.454546 0.157461
vt 0.363637 0.157461
vt 0.4090915 0.236191
vt 0.4090915 0.236191
vt 0.545455 0.157461
vt 0.5000005 0.0787305
vt 0.5000005 0.0787305
vt 0.454546 0.157461
vt 0.545455 0.157461
vt 0.545455 0.157461
vt 0.5000005 0.0787305
vt 0.454546 0.157461
vt 0.454546 0.157461
vt 0.5909095 0.0787305
vt 0.5000005 0.0787305
vt 0.5000005 0.0787305
vt 0.545455 0.157461
vt 0.5909095 0.0787305
vt 0.5909095 0.0787305
vt 0.5000005 0.0787305
vt 0.545455 0.157461
vt 0.545455 0.157461
vt 0.636364 0.157461
vt 0.5909095 0.0787305
vt 0.5909095 0.0787305
vt 0.545455 0.157461
vt 0.636364 0.157461
vt 0.636364 0.157461
vt 0.5909095 0.0787305
vt 0.545455 0.157461
vt 0.545455 0.157461
vt 0.727273 0.157461
vt 0.6818185 0.0787305
vt 0.6818185 0.0787305
vt 0.636364 0.157461
vt 0.727273 0.157461
vt 0.727273 0.157461
vt 0.6818185 0.0787305
vt 0.636364 0.157461
vt 0.636364 0.157461
vt 0.7727275 0.0787305
vt 0.6818185 0.0787305
vt 0.6818185 0.0787305
vt 0.727273 0.157461
vt 0.7727275 0.0787305
vt 0.7727275 0.0787305
vt 0.6818185 0.0787305
vt 0.727273 0.157461
vt 0.727273 0.157461
vt 0.818182 0.157461
vt 0.7727275 0.0787305
vt 0.7727275 0.0787305
vt 0.727273 0.157461
vt 0.818182 0.157461
vt 0.818182 0.157461
vt 0.7727275 0.0787305
vt 0.727273 0.157461
vt 0.727273 0.157461
vt 0.909091 0.157461
vt 0.8636365 0.0787305
vt 0.8636365 0.0787305
vt 0.818182 0.157461
vt 0.909091 0.157461
vt 0.909091 0.157461
vt 0.8636365 0.0787305
vt 0.818182 0.157461
vt 0.818182 0.157461
vt 0.9545455 0.0787305
vt 0.8636365 0.0787305
vt 0.8636365 0.0787305
vt 0.909091 0.157461
vt 0.9545455 0.0787305
vt 0.9545455 0.0787305
vt 0.8636365 0.0787305
vt 0.909091 0.157461
vt 0.909091 0.157461
vt 1 0.157461
vt 0.9545455 0.0787305
vt 0.9545455 0.0787305
vt 0.909091 0.157461
vt 1 0.157461
vt 1 0.157461
vt 0.9545455 0.0787305
vt 0.909091 0.157461
vt 0.909091 0.157461
vt 0.4090915 0.0787305
vt 0.363637 0.157461
vt 0.363637 0.157461
vt 0.454546 0.157461
vt 0.4090915 0.0787305
vt 0.4090915 0.0787305
vt 0.363637 0.157461
vt 0.454546 0.157461
vt 0.454546 0.157461
vt 0.3181825 0.0787305
vt 0.363637 0.157461
vt 0.363637 0.157461
vt 0.4090915 0.0787305
vt 0.3181825 0.0787305
vt 0.3181825 0.0787305
vt 0.363637 0.157461
vt 0.4090915 0.0787305
vt 0.4090915 0.0787305
vt 0.363637 0
vt 0.3181825 0.0787305
vt 0.3181825 0.0787305
vt 0.4090915 0.0787305
vt 0.363637 0
vt 0.363637 0
vt 0.3181825 0.0787305
vt 0.4090915 0.0787305
vt 0.4090915 0.0787305
vt 0.18181899 0.157461
vt 0.1363645 0.0787305
vt 0.1363645 0.0787305
vt 0.09091 0.157461
vt 0.18181899 0.157461
vt 0.18181899 0.157461
vt 0.1363645 0.0787305
vt 0.09091 0.157461
vt 0.09091 0.157461
vt 0.2272735 0.0787305
vt 0.1363645 0.0787305
vt 0.1363645 0.0787305
vt 0.18181899 0.157461
vt 0.2272735 0.0787305
vt 0.2272735 0.0787305
vt 0.1363645 0.0787305
vt 0.18181899 0.157461
vt 0.18181899 0.157461
vt 0.272728 0.157461
vt 0.2272735 0.0787305
vt 0.2272735 0.0787305
vt 0.18181899 0.157461
vt 0.272728 0.157461
vt 0.272728 0.157461
vt 0.2272735 0.0787305
vt 0.18181899 0.157461
vt 0.18181899 0.157461
vn 0.62207675 0.6345659 -0.45863563
vn 0.62207675 0.6345659 -0.45863563
vn 0.62207675 0.6345659 -0.45863563
vn 0.30766293 -0.9468737 0.09366842
vn 0.30766293 -0.9468737 0.09366842
vn 0.30766293 -0.9468737 0.09366842
vn -0.8860742 0.15769924 -0.43589383
vn -0.8860742 0.15769924 -0.43589383
vn -0.8860742 0.15769924 -0.43589383
vn -0.25335908 -0.91780204 -0.3056936
vn -0.25335908 -0.91780204 -0.3056936
vn -0.25335908 -0.91780204 -0.3056936
vn 0.002211867 0.7231725 -0.69066393
vn 0.002211867 0.7231725 -0.69066393
vn 0.002211867 0.7231725 -0.69066393
vn 0.8394563 -0.12382836 0.529131
vn 0.8394563 -0.12382836 0.529131
vn 0.8394563 -0.12382836 0.529131
vn 0.7957367 -0.39553952 -0.4586411
vn 0.7957367 -0.39553952 -0.4586411
vn 0.7957367 -0.39553952 -0.4586411
vn -0.8054549 -0.5852081 0.09366954
vn -0.8054549 -0.5852081 0.09366954
vn -0.8054549 -0.5852081 0.09366954
vn -0.123828 0.89143914 -0.43589318
vn -0.123828 0.89143914 -0.43589318
vn -0.123828 0.89143914 -0.43589318
vn -0.123828 -0.89143914 -0.43589318
vn -0.123828 -0.89143914 -0.43589318
vn -0.123828 -0.89143914 -0.43589318
vn -0.8054548 0.5852081 0.09366951
vn -0.8054548 0.5852081 0.09366951
vn -0.8054548 0.5852081 0.09366951
vn 0.7957367 0.3955395 -0.4586411
vn 0.7957367 0.3955395 -0.4586411
vn 0.7957367 0.3955395 -0.4586411
vn -0.8860742 -0.15769929 -0.4358938
vn -0.8860742 -0.15769929 -0.4358938
vn -0.8860742 -0.15769929 -0.4358938
vn 0.30826974 0.94874126 0.06971131
vn 0.30826974 0.94874126 0.06971131
vn 0.30826974 0.94874126 0.06971131
vn 0.62414896 -0.6484096 -0.43589333
vn 0.62414896 -0.6484096 -0.43589333
vn 0.62414896 -0.6484096 -0.43589333
vn -0.09785654 -0.12383001 -0.98746663
vn -0.09785654 -0.12383001 -0.98746663
vn -0.09785654 -0.12383001 -0.98746663
vn 0.6187394 0.7231742 0.3068885
vn 0.6187394 0.7231742 0.3068885
vn 0.6187394 0.7231742 0.3068885
vn 0.16011576 -0.91780454 0.363315
vn 0.16011576 -0.91780454 0.363315
vn 0.16011576 -0.91780454 0.363315
vn -0.14801028 0.054802477 -0.9874663
vn -0.14801028 0.054802477 -0.9874663
vn -0.14801028 0.054802477 -0.9874663
vn 0.8789767 -0.36498436 0.30689803
vn 0.8789767 -0.36498436 0.30689803
vn 0.8789767 -0.36498436 0.30689803
vn -0.8234072 -0.43590003 0.3633068
vn -0.8234072 -0.43590003 0.3633068
vn -0.8234072 -0.43590003 0.3633068
vn 0.006381667 0.15770598 -0.98746544
vn 0.006381667 0.15770598 -0.98746544
vn 0.006381667 0.15770598 -0.98746544
vn -0.053805977 -0.9468751 0.31706846
vn -0.053805977 -0.9468751 0.31706846
vn -0.053805977 -0.9468751 0.31706846
vn -0.6884233 0.63456297 0.35128787
vn -0.6884233 0.63456297 0.35128787
vn -0.6884233 0.63456297 0.35128787
vn 0.1519527 0.042657502 -0.9874669
vn 0.1519527 0.042657502 -0.9874669
vn 0.1519527 0.042657502 -0.9874669
vn -0.91716224 -0.241423 0.31706226
vn -0.91716224 -0.241423 0.31706226
vn -0.91716224 -0.241423 0.31706226
vn 0.39076656 0.85081977 0.35129368
vn 0.39076656 0.85081977 0.35129368
vn 0.39076656 0.85081977 0.35129368
vn 0.08753016 -0.13133542 -0.98746616
vn 0.08753016 -0.13133542 -0.98746616
vn 0.08753016 -0.13133542 -0.98746616
vn -0.5130297 0.7976694 0.31705528
vn -0.5130297 0.7976694 0.31705528
vn -0.5130297 0.7976694 0.31705528
vn 0.92992985 -0.10872773 0.35129574
vn 0.92992985 -0.10872773 0.35129574
vn 0.92992985 -0.10872773 0.35129574
vn 0.64609146 0.5042718 -0.5729535
vn 0.64609146 0.5042718 -0.5729535
vn 0.64609146 0.5042718 -0.5729535
vn 0.29243848 -0.2124677 0.9323826
vn 0.29243848 -0.2124677 0.9323826
vn 0.29243848 -0.2124677 0.9323826
vn -0.30459508 -0.7601013 -0.5739929
vn -0.30459508 -0.7601013 -0.5739929
vn -0.30459508 -0.7601013 -0.5739929
vn 0.6792465 -0.45864326 -0.57294905
vn 0.6792465 -0.45864326 -0.57294905
vn 0.6792465 -0.45864326 -0.57294905
vn -0.1117019 -0.3437829 0.93238187
vn -0.1117019 -0.3437829 0.93238187
vn -0.1117019 -0.3437829 0.93238187
vn -0.81702405 0.054807268 -0.57399297
vn -0.81702405 0.054807268 -0.57399297
vn -0.81702405 0.054807268 -0.57399297
vn -0.20034862 -0.79397804 -0.5739855
vn -0.20034862 -0.79397804 -0.5739855
vn -0.20034862 -0.79397804 -0.5739855
vn -0.3614723 0 0.9323828
vn -0.3614723 0 0.9323828
vn -0.3614723 0 0.9323828
vn -0.22629164 0.7877291 -0.57295287
vn -0.22629164 0.7877291 -0.57295287
vn -0.22629164 0.7877291 -0.57295287
vn -0.81702393 -0.054807365 -0.5739931
vn -0.81702393 -0.054807365 -0.5739931
vn -0.81702393 -0.054807365 -0.5739931
vn -0.118595034 0.36499786 0.9234239
vn -0.118595034 0.36499786 0.9234239
vn -0.118595034 0.36499786 0.9234239
vn 0.69320667 0.43590078 -0.5739817
vn 0.69320667 0.43590078 -0.5739817
vn 0.69320667 0.43590078 -0.5739817
vn -0.30459517 0.7601014 -0.5739928
vn -0.30459517 0.7601014 -0.5739928
vn -0.30459517 0.7601014 -0.5739928
vn 0.31048504 0.22557932 0.9234246
vn 0.31048504 0.22557932 0.9234246
vn 0.31048504 0.22557932 0.9234246
vn 0.62877595 -0.5245767 -0.5739862
vn 0.62877595 -0.5245767 -0.5739862
vn 0.62877595 -0.5245767 -0.5739862
vn 0.6063453 -0.5936032 -0.5291318
vn 0.6063453 -0.5936032 -0.5291318
vn 0.6063453 -0.5936032 -0.5291318
vn 0.42685485 0.58375525 0.69066966
vn 0.42685485 0.58375525 0.69066966
vn 0.42685485 0.58375525 0.69066966
vn -0.7444421 -0.5935937 0.30569988
vn -0.7444421 -0.5935937 0.30569988
vn -0.7444421 -0.5935937 0.30569988
vn -0.37717816 -0.76010317 -0.5291312
vn -0.37717816 -0.76010317 -0.5291312
vn -0.37717816 -0.76010317 -0.5291312
vn 0.6870896 -0.22557814 0.69066817
vn 0.6870896 -0.22557814 0.69066817
vn 0.6870896 -0.22557814 0.69066817
vn -0.7945845 0.5245814 0.30569568
vn -0.7945845 0.5245814 0.30569568
vn -0.7945845 0.5245814 0.30569568
vn -0.8394563 0.12382821 -0.52913105
vn -0.8394563 0.12382821 -0.52913105
vn -0.8394563 0.12382821 -0.52913105
vn 0.015227218 -0.7344161 0.67852867
vn 0.015227218 -0.7344161 0.67852867
vn 0.015227218 -0.7344161 0.67852867
vn 0.231941 0.9180138 0.32164282
vn 0.231941 0.9180138 0.32164282
vn 0.231941 0.9180138 0.32164282
vn -0.14164235 0.83663476 -0.52913105
vn -0.14164235 0.83663476 -0.52913105
vn -0.14164235 0.83663476 -0.52913105
vn -0.6884566 -0.22137247 0.6906676
vn -0.6884566 -0.22137247 0.6906676
vn -0.6884566 -0.22137247 0.6906676
vn 0.95117295 0.042660195 0.30569625
vn 0.95117295 0.042660195 0.30569625
vn 0.95117295 0.042660195 0.30569625
vn 0.7660819 0.39555034 -0.50661457
vn 0.7660819 0.39555034 -0.50661457
vn 0.7660819 0.39555034 -0.50661457
vn -0.44399363 0.58519953 0.6785361
vn -0.44399363 0.58519953 0.6785361
vn -0.44399363 0.58519953 0.6785361
vn 0.33449677 -0.89143896 0.30569357
vn 0.33449677 -0.89143896 0.30569357
vn 0.33449677 -0.89143896 0.30569357
vn 0.8070437 0.5863623 -0.06971235
vn 0.8070437 0.5863623 -0.06971235
vn 0.8070437 0.5863623 -0.06971235
vn -0.8095434 0.3932325 0.43589878
vn -0.8095434 0.3932325 0.43589878
vn -0.8095434 0.3932325 0.43589878
vn 0.12382784 -0.89143914 0.43589342
vn 0.12382784 -0.89143914 0.43589342
vn 0.12382784 -0.89143914 0.43589342
vn 0.935605 -0.34683877 -0.06592579
vn 0.935605 -0.34683877 -0.06592579
vn 0.935605 -0.34683877 -0.06592579
vn -0.026158726 0.99876153 -0.042321015
vn -0.026158726 0.99876153 -0.042321015
vn -0.026158726 0.99876153 -0.042321015
vn -0.4773831 -0.3468496 0.80734175
vn -0.4773831 -0.3468496 0.80734175
vn -0.4773831 -0.3468496 0.80734175
vn 0.6129172 0.6063638 -0.50661194
vn 0.6129172 0.6063638 -0.50661194
vn 0.6129172 0.6063638 -0.50661194
vn -0.74444216 0.59359384 0.30569974
vn -0.74444216 0.59359384 0.30569974
vn -0.74444216 0.59359384 0.30569974
vn 0.41935506 -0.6031022 0.67853445
vn 0.41935506 -0.6031022 0.67853445
vn 0.41935506 -0.6031022 0.67853445
vn -0.3076629 0.9468737 -0.09366849
vn -0.3076629 0.9468737 -0.09366849
vn -0.3076629 0.9468737 -0.09366849
vn -0.62414914 -0.6484095 0.43589333
vn -0.62414914 -0.6484095 0.43589333
vn -0.62414914 -0.6484095 0.43589333
vn 0.8762606 -0.1477176 0.45863605
vn 0.8762606 -0.1477176 0.45863605
vn 0.8762606 -0.1477176 0.45863605
vn 0.6082169 0.79264194 -0.042318966
vn 0.6082169 0.79264194 -0.042318966
vn 0.6082169 0.79264194 -0.042318966
vn -0.96078986 0.26932618 -0.0659273
vn -0.96078986 0.26932618 -0.0659273
vn -0.96078986 0.26932618 -0.0659273
vn 0.18234867 -0.5612027 0.8073417
vn 0.18234867 -0.5612027 0.8073417
vn 0.18234867 -0.5612027 0.8073417
vn -0.37717816 0.7601032 -0.5291311
vn -0.37717816 0.7601032 -0.5291311
vn -0.37717816 0.7601032 -0.5291311
vn -0.7945845 -0.52458143 0.30569568
vn -0.7945845 -0.52458143 0.30569568
vn -0.7945845 -0.52458143 0.30569568
vn 0.6870896 0.22557813 0.69066805
vn 0.6870896 0.22557813 0.69066805
vn 0.6870896 0.22557813 0.69066805
vn -0.9956037 0 -0.09366619
vn -0.9956037 0 -0.09366619
vn -0.9956037 0 -0.09366619
vn 0.423794 -0.793976 0.4358907
vn 0.423794 -0.793976 0.4358907
vn 0.423794 -0.793976 0.4358907
vn 0.4112684 0.78772724 0.45863295
vn 0.4112684 0.78772724 0.45863295
vn 0.4112684 0.78772724 0.45863295
vn -0.5658906 0.8233935 -0.042320143
vn -0.5658906 0.8233935 -0.042320143
vn -0.5658906 0.8233935 -0.042320143
vn -0.553046 -0.83053803 -0.065928705
vn -0.553046 -0.83053803 -0.065928705
vn -0.553046 -0.83053803 -0.065928705
vn 0.59008163 0 0.80734354
vn 0.59008163 0 0.80734354
vn 0.59008163 0 0.80734354
vn -0.8394563 -0.12382836 -0.529131
vn -0.8394563 -0.12382836 -0.529131
vn -0.8394563 -0.12382836 -0.529131
vn 0.25335908 -0.91780204 0.3056936
vn 0.25335908 -0.91780204 0.3056936
vn 0.25335908 -0.91780204 0.3056936
vn -0.002211867 0.7231725 0.69066393
vn -0.002211867 0.7231725 0.69066393
vn -0.002211867 0.7231725 0.69066393
vn -0.30766287 -0.9468737 -0.093668446
vn -0.30766287 -0.9468737 -0.093668446
vn -0.30766287 -0.9468737 -0.093668446
vn 0.87626046 0.14771758 0.45863605
vn 0.87626046 0.14771758 0.45863605
vn 0.87626046 0.14771758 0.45863605
vn -0.62414914 0.6484095 0.43589333
vn -0.62414914 0.6484095 0.43589333
vn -0.62414914 0.6484095 0.43589333
vn -0.96078986 -0.26932624 -0.06592736
vn -0.96078986 -0.26932624 -0.06592736
vn -0.96078986 -0.26932624 -0.06592736
vn 0.6189809 -0.7826341 -0.06592747
vn 0.6189809 -0.7826341 -0.06592747
vn 0.6189809 -0.7826341 -0.06592747
vn 0.17534083 0.5396344 0.82343805
vn 0.17534083 0.5396344 0.82343805
vn 0.17534083 0.5396344 0.82343805
vn -0.14164269 -0.8366347 -0.52913105
vn -0.14164269 -0.8366347 -0.52913105
vn -0.14164269 -0.8366347 -0.52913105
vn 0.9447555 -0.06309534 0.3216457
vn 0.9447555 -0.06309534 0.3216457
vn 0.9447555 -0.06309534 0.3216457
vn -0.6937605 0.24143285 0.6785326
vn -0.6937605 0.24143285 0.6785326
vn -0.6937605 0.24143285 0.6785326
vn 0.8054548 -0.5852081 -0.09366957
vn 0.8054548 -0.5852081 -0.09366957
vn 0.8054548 -0.5852081 -0.09366957
vn 0.12382783 0.89143914 0.43589333
vn 0.12382783 0.89143914 0.43589333
vn 0.12382783 0.89143914 0.43589333
vn -0.7957367 -0.3955396 0.4586411
vn -0.7957367 -0.3955396 0.4586411
vn -0.7957367 -0.3955396 0.4586411
vn -0.04074959 -0.9969919 -0.06592967
vn -0.04074959 -0.9969919 -0.06592967
vn -0.04074959 -0.9969919 -0.06592967
vn 0.94179684 0.33350873 -0.04231694
vn 0.94179684 0.33350873 -0.04231694
vn 0.94179684 0.33350873 -0.04231694
vn -0.4773833 0.34684968 0.80734164
vn -0.4773833 0.34684968 0.80734164
vn -0.4773833 0.34684968 0.80734164
vn 0.7519153 -0.39324316 -0.52913445
vn 0.7519153 -0.39324316 -0.52913445
vn 0.7519153 -0.39324316 -0.52913445
vn 0.33449686 0.89143884 0.3056936
vn 0.33449686 0.89143884 0.3056936
vn 0.33449686 0.89143884 0.3056936
vn -0.42327595 -0.5863537 0.6906712
vn -0.42327595 -0.5863537 0.6906712
vn -0.42327595 -0.5863537 0.6906712
vn 0.0755054 0.94874287 -0.30689722
vn 0.0755054 0.94874287 -0.30689722
vn 0.0755054 0.94874287 -0.30689722
vn -0.0063816225 -0.15770598 0.98746544
vn -0.0063816225 -0.15770598 0.98746544
vn -0.0063816225 -0.15770598 0.98746544
vn 0.66900855 -0.64840704 -0.3633123
vn 0.66900855 -0.64840704 -0.3633123
vn 0.66900855 -0.64840704 -0.3633123
vn 0.37071198 0.26933658 -0.8888365
vn 0.37071198 0.26933658 -0.8888365
vn 0.37071198 0.26933658 -0.8888365
vn -0.30985382 0.79264295 0.5250787
vn -0.30985382 0.79264295 0.5250787
vn -0.30985382 0.79264295 0.5250787
vn 0.64056325 -0.5612006 0.5241494
vn 0.64056325 -0.5612006 0.5241494
vn 0.64056325 -0.5612006 0.5241494
vn -0.40993255 0.8366331 -0.36331853
vn -0.40993255 0.8366331 -0.36331853
vn -0.40993255 0.8366331 -0.36331853
vn -0.1348173 0.06309305 0.9888598
vn -0.1348173 0.06309305 0.9888598
vn -0.1348173 0.06309305 0.9888598
vn 0.91716236 -0.24142286 -0.3170621
vn 0.91716236 -0.24142286 -0.3170621
vn 0.91716236 -0.24142286 -0.3170621
vn -0.88390577 0.34376976 -0.31706935
vn -0.88390577 0.34376976 -0.31706935
vn -0.88390577 0.34376976 -0.31706935
vn 0.14615881 -0.028197654 0.9888592
vn 0.14615881 -0.028197654 0.9888592
vn 0.14615881 -0.028197654 0.9888592
vn 0.82340723 0.43590006 -0.36330667
vn 0.82340723 0.43590006 -0.36330667
vn 0.82340723 0.43590006 -0.36330667
vn -0.14160018 0.4358002 -0.888835
vn -0.14160018 0.4358002 -0.888835
vn -0.14160018 0.4358002 -0.888835
vn -0.8480973 -0.07750606 0.52414095
vn -0.8480973 -0.07750606 0.52414095
vn -0.8480973 -0.07750606 0.52414095
vn 0.7165825 0.45912844 0.52508163
vn 0.7165825 0.45912844 0.52508163
vn 0.7165825 0.45912844 0.52508163
vn -0.92236024 -0.13133945 -0.36332005
vn -0.92236024 -0.13133945 -0.36332005
vn -0.92236024 -0.13133945 -0.36332005
vn -0.10167051 -0.108723626 0.98885906
vn -0.10167051 -0.108723626 0.98885906
vn -0.10167051 -0.108723626 0.98885906
vn 0.51302963 0.79766953 -0.31705496
vn 0.51302963 0.79766953 -0.31705496
vn 0.51302963 0.79766953 -0.31705496
vn -0.6000863 -0.73441786 -0.31705981
vn -0.6000863 -0.73441786 -0.31705981
vn -0.6000863 -0.73441786 -0.31705981
vn 0.071981736 0.13029057 0.9888594
vn 0.071981736 0.13029057 0.9888594
vn 0.071981736 0.13029057 0.9888594
vn -0.16011573 0.91780454 -0.36331487
vn -0.16011573 0.91780454 -0.36331487
vn -0.16011573 0.91780454 -0.36331487
vn -0.4582276 0 -0.8888349
vn -0.4582276 0 -0.8888349
vn -0.4582276 0 -0.8888349
vn -0.18835908 -0.83053946 0.52414215
vn -0.18835908 -0.83053946 0.52414215
vn -0.18835908 -0.83053946 0.52414215
vn -0.21521957 0.82339483 0.5250728
vn -0.21521957 0.82339483 0.5250728
vn -0.21521957 0.82339483 0.5250728
vn -0.16011572 -0.91780454 -0.363315
vn -0.16011572 -0.91780454 -0.363315
vn -0.16011572 -0.91780454 -0.363315
vn 0.0978564 -0.12383003 0.98746663
vn 0.0978564 -0.12383003 0.98746663
vn 0.0978564 -0.12383003 0.98746663
vn -0.61873937 0.72317433 -0.30688855
vn -0.61873937 0.72317433 -0.30688855
vn -0.61873937 0.72317433 -0.30688855
vn 0.51302975 -0.79766953 -0.317055
vn 0.51302975 -0.79766953 -0.317055
vn 0.51302975 -0.79766953 -0.317055
vn -0.10167052 0.10872355 0.98885906
vn -0.10167052 0.10872355 0.98885906
vn -0.10167052 0.10872355 0.98885906
vn -0.92236024 0.1313394 -0.3633201
vn -0.92236024 0.1313394 -0.3633201
vn -0.92236024 0.1313394 -0.3633201
vn -0.14160015 -0.43580008 -0.888835
vn -0.14160015 -0.43580008 -0.888835
vn -0.14160015 -0.43580008 -0.888835
vn 0.71658236 -0.45912835 0.5250819
vn 0.71658236 -0.45912835 0.5250819
vn 0.71658236 -0.45912835 0.5250819
vn -0.8480973 0.07750598 0.52414095
vn -0.8480973 0.07750598 0.52414095
vn -0.8480973 0.07750598 0.52414095
vn 0.82340723 -0.43590006 -0.36330667
vn 0.82340723 -0.43590006 -0.36330667
vn 0.82340723 -0.43590006 -0.36330667
vn 0.14615881 0.028197652 0.9888592
vn 0.14615881 0.028197652 0.9888592
vn 0.14615881 0.028197652 0.9888592
vn -0.88390577 -0.34376976 -0.31706935
vn -0.88390577 -0.34376976 -0.31706935
vn -0.88390577 -0.34376976 -0.31706935
vn 0.91716236 0.24142289 -0.31706208
vn 0.91716236 0.24142289 -0.31706208
vn 0.91716236 0.24142289 -0.31706208
vn -0.13481732 -0.063093066 0.9888598
vn -0.13481732 -0.063093066 0.9888598
vn -0.13481732 -0.063093066 0.9888598
vn -0.40993258 -0.8366331 -0.36331835
vn -0.40993258 -0.8366331 -0.36331835
vn -0.40993258 -0.8366331 -0.36331835
vn 0.37071195 -0.2693365 -0.8888365
vn 0.37071195 -0.2693365 -0.8888365
vn 0.37071195 -0.2693365 -0.8888365
vn 0.6580946 0.5396319 0.52507985
vn 0.6580946 0.5396319 0.52507985
vn 0.6580946 0.5396319 0.52507985
vn -0.33578432 -0.782635 0.5241483
vn -0.33578432 -0.782635 0.5241483
vn -0.33578432 -0.782635 0.5241483
vn 0.6884233 0.6345631 -0.35128802
vn 0.6884233 0.6345631 -0.35128802
vn 0.6884233 0.6345631 -0.35128802
vn -0.006381667 0.15770598 0.98746544
vn -0.006381667 0.15770598 0.98746544
vn -0.006381667 0.15770598 0.98746544
vn 0.05380607 -0.9468751 -0.31706846
vn 0.05380607 -0.9468751 -0.31706846
vn 0.05380607 -0.9468751 -0.31706846
vn 0.11170185 0.34378275 -0.932382
vn 0.11170185 0.34378275 -0.932382
vn 0.11170185 0.34378275 -0.932382
vn -0.69320667 0.43590057 0.573982
vn -0.69320667 0.43590057 0.573982
vn -0.69320667 0.43590057 0.573982
vn 0.8190977 -0.028202808 0.5729603
vn 0.8190977 -0.028202808 0.5729603
vn 0.8190977 -0.028202808 0.5729603
vn 0.8480973 -0.07750597 -0.52414083
vn 0.8480973 -0.07750597 -0.52414083
vn 0.8480973 -0.07750597 -0.52414083
vn -0.7316778 0.4357901 -0.5241513
vn -0.7316778 0.4357901 -0.5241513
vn -0.7316778 0.4357901 -0.5241513
vn 0.14918317 0.45913836 0.875749
vn 0.14918317 0.45913836 0.875749
vn 0.14918317 0.45913836 0.875749
vn -0.14801028 -0.054802477 -0.9874663
vn -0.14801028 -0.054802477 -0.9874663
vn -0.14801028 -0.054802477 -0.9874663
vn -0.8234072 0.43590003 0.3633068
vn -0.8234072 0.43590003 0.3633068
vn -0.8234072 0.43590003 0.3633068
vn 0.8789767 0.36498436 0.30689803
vn 0.8789767 0.36498436 0.30689803
vn 0.8789767 0.36498436 0.30689803
vn -0.29243845 0.21246777 -0.93238246
vn -0.29243845 0.21246777 -0.93238246
vn -0.29243845 0.21246777 -0.93238246
vn -0.6287758 -0.52457666 0.5739863
vn -0.6287758 -0.52457666 0.5739863
vn -0.6287758 -0.52457666 0.5739863
vn 0.27993333 0.7702949 0.5729599
vn 0.27993333 0.7702949 0.5729599
vn 0.27993333 0.7702949 0.5729599
vn 0.3098538 0.79264295 -0.52507883
vn 0.3098538 0.79264295 -0.52507883
vn 0.3098538 0.79264295 -0.52507883
vn -0.64056337 -0.5612004 -0.5241494
vn -0.64056337 -0.5612004 -0.5241494
vn -0.64056337 -0.5612004 -0.5241494
vn -0.37071204 0.26933652 0.8888365
vn -0.37071204 0.26933652 0.8888365
vn -0.37071204 0.26933652 0.8888365
vn 0.0063817007 -0.15770598 -0.98746544
vn 0.0063817007 -0.15770598 -0.98746544
vn 0.0063817007 -0.15770598 -0.98746544
vn -0.6884233 -0.6345631 0.35128805
vn -0.6884233 -0.6345631 0.35128805
vn -0.6884233 -0.6345631 0.35128805
vn -0.05380607 0.9468751 0.31706846
vn -0.05380607 0.9468751 0.31706846
vn -0.05380607 0.9468751 0.31706846
vn -0.29243845 -0.21246786 -0.93238246
vn -0.29243845 -0.21246786 -0.93238246
vn -0.29243845 -0.21246786 -0.93238246
vn 0.27993342 -0.7702949 0.5729599
vn 0.27993342 -0.7702949 0.5729599
vn 0.27993342 -0.7702949 0.5729599
vn -0.6287757 0.5245767 0.57398635
vn -0.6287757 0.5245767 0.57398635
vn -0.6287757 0.5245767 0.57398635
vn -0.6405632 0.5612006 -0.52414936
vn -0.6405632 0.5612006 -0.52414936
vn -0.6405632 0.5612006 -0.52414936
vn 0.33578426 -0.782635 -0.5241482
vn 0.33578426 -0.782635 -0.5241482
vn 0.33578426 -0.782635 -0.5241482
vn -0.3905648 -0.2837605 0.87575054
vn -0.3905648 -0.2837605 0.87575054
vn -0.3905648 -0.2837605 0.87575054
vn 0.15195277 -0.0426575 -0.9874669
vn 0.15195277 -0.0426575 -0.9874669
vn 0.15195277 -0.0426575 -0.9874669
vn 0.39076662 -0.85081977 0.35129368
vn 0.39076662 -0.85081977 0.35129368
vn 0.39076662 -0.85081977 0.35129368
vn -0.91716224 0.24142297 0.31706217
vn -0.91716224 0.24142297 0.31706217
vn -0.91716224 0.24142297 0.31706217
vn 0.11170185 -0.34378275 -0.932382
vn 0.11170185 -0.34378275 -0.932382
vn 0.11170185 -0.34378275 -0.932382
vn 0.8190977 0.028202808 0.5729604
vn 0.8190977 0.028202808 0.5729604
vn 0.8190977 0.028202808 0.5729604
vn -0.6932067 -0.43590057 0.5739819
vn -0.6932067 -0.43590057 0.5739819
vn -0.6932067 -0.43590057 0.5739819
vn -0.7316778 -0.4357901 -0.5241513
vn -0.7316778 -0.4357901 -0.5241513
vn -0.7316778 -0.4357901 -0.5241513
vn 0.84960264 0.04975199 -0.52507144
vn 0.84960264 0.04975199 -0.52507144
vn 0.84960264 0.04975199 -0.52507144
vn 0.14160015 -0.4358002 0.888835
vn 0.14160015 -0.4358002 0.888835
vn 0.14160015 -0.4358002 0.888835
vn 0.08753006 0.13133542 -0.98746616
vn 0.08753006 0.13133542 -0.98746616
vn 0.08753006 0.13133542 -0.98746616
vn 0.92992985 0.10872781 0.35129574
vn 0.92992985 0.10872781 0.35129574
vn 0.92992985 0.10872781 0.35129574
vn -0.51302975 -0.7976694 0.3170552
vn -0.51302975 -0.7976694 0.3170552
vn -0.51302975 -0.7976694 0.3170552
vn 0.38377884 0 -0.923425
vn 0.38377884 0 -0.923425
vn 0.38377884 0 -0.923425
vn 0.20034854 0.7939781 0.5739854
vn 0.20034854 0.7939781 0.5739854
vn 0.20034854 0.7939781 0.5739854
vn 0.20034854 -0.7939781 0.5739854
vn 0.20034854 -0.7939781 0.5739854
vn 0.20034854 -0.7939781 0.5739854
vn 0.18835908 -0.83053946 -0.52414215
vn 0.18835908 -0.83053946 -0.52414215
vn 0.18835908 -0.83053946 -0.52414215
vn 0.21521957 0.82339483 -0.5250728
vn 0.21521957 0.82339483 -0.5250728
vn 0.21521957 0.82339483 -0.5250728
vn 0.4582276 0 0.8888349
vn 0.4582276 0 0.8888349
vn 0.4582276 0 0.8888349
vn -0.09785647 0.12383003 -0.98746663
vn -0.09785647 0.12383003 -0.98746663
vn -0.09785647 0.12383003 -0.98746663
vn 0.18395966 0.9180162 0.35129067
vn 0.18395966 0.9180162 0.35129067
vn 0.18395966 0.9180162 0.35129067
vn 0.6000862 -0.7344178 0.3170599
vn 0.6000862 -0.7344178 0.3170599
vn 0.6000862 -0.7344178 0.3170599
vn -0.7031721 0.2124668 -0.6785329
vn -0.7031721 0.2124668 -0.6785329
vn -0.7031721 0.2124668 -0.6785329
vn 0.37717804 0.76010317 0.5291313
vn 0.37717804 0.76010317 0.5291313
vn 0.37717804 0.76010317 0.5291313
vn 0.80140436 -0.5042771 -0.3216452
vn 0.80140436 -0.5042771 -0.3216452
vn 0.80140436 -0.5042771 -0.3216452
vn -0.1823484 -0.5612028 -0.80734164
vn -0.1823484 -0.5612028 -0.80734164
vn -0.1823484 -0.5612028 -0.80734164
vn -0.61898094 0.7826342 0.06592743
vn -0.61898094 0.7826342 0.06592743
vn -0.61898094 0.7826342 0.06592743
vn 0.95796406 0.28374988 0.042318594
vn 0.95796406 0.28374988 0.042318594
vn 0.95796406 0.28374988 0.042318594
vn -0.95117295 0.04266024 -0.30569625
vn -0.95117295 0.04266024 -0.30569625
vn -0.95117295 0.04266024 -0.30569625
vn 0.14164235 0.83663476 0.52913105
vn 0.14164235 0.83663476 0.52913105
vn 0.14164235 0.83663476 0.52913105
vn 0.6884565 -0.22137243 -0.6906677
vn 0.6884565 -0.22137243 -0.6906677
vn 0.6884565 -0.22137243 -0.6906677
vn -0.41935498 -0.6031022 -0.67853457
vn -0.41935498 -0.6031022 -0.67853457
vn -0.41935498 -0.6031022 -0.67853457
vn -0.60634536 0.5936032 0.5291318
vn -0.60634536 0.5936032 0.5291318
vn -0.60634536 0.5936032 0.5291318
vn 0.7272387 0.60635424 -0.32164934
vn 0.7272387 0.60635424 -0.32164934
vn 0.7272387 0.60635424 -0.32164934
vn 0.45903605 -0.33351964 -0.8234382
vn 0.45903605 -0.33351964 -0.8234382
vn 0.45903605 -0.33351964 -0.8234382
vn -0.935605 -0.3468387 0.065925814
vn -0.935605 -0.3468387 0.065925814
vn -0.935605 -0.3468387 0.065925814
vn 0.040749576 0.9969919 0.065929815
vn 0.040749576 0.9969919 0.065929815
vn 0.040749576 0.9969919 0.065929815
vn -0.33449677 -0.89143896 -0.30569357
vn -0.33449677 -0.89143896 -0.30569357
vn -0.33449677 -0.89143896 -0.30569357
vn -0.7519153 0.39324316 0.52913433
vn -0.7519153 0.39324316 0.52913433
vn -0.7519153 0.39324316 0.52913433
vn 0.42327592 0.5863537 -0.6906713
vn 0.42327592 0.5863537 -0.6906713
vn 0.42327592 0.5863537 -0.6906713
vn 0.42327613 -0.5863536 -0.6906712
vn 0.42327613 -0.5863536 -0.6906712
vn 0.42327613 -0.5863536 -0.6906712
vn -0.7519152 -0.3932433 0.52913445
vn -0.7519152 -0.3932433 0.52913445
vn -0.7519152 -0.3932433 0.52913445
vn -0.33449692 0.89143884 -0.3056935
vn -0.33449692 0.89143884 -0.3056935
vn -0.33449692 0.89143884 -0.3056935
vn 0.45903608 0.33351967 -0.8234382
vn 0.45903608 0.33351967 -0.8234382
vn 0.45903608 0.33351967 -0.8234382
vn 0.04074957 -0.9969919 0.06592982
vn 0.04074957 -0.9969919 0.06592982
vn 0.04074957 -0.9969919 0.06592982
vn -0.935605 0.34683865 0.06592582
vn -0.935605 0.34683865 0.06592582
vn -0.935605 0.34683865 0.06592582
vn 0.7444422 -0.59359366 -0.30569988
vn 0.7444422 -0.59359366 -0.30569988
vn 0.7444422 -0.59359366 -0.30569988
vn -0.6063453 -0.5936032 0.5291318
vn -0.6063453 -0.5936032 0.5291318
vn -0.6063453 -0.5936032 0.5291318
vn -0.42685506 0.5837551 -0.69066966
vn -0.42685506 0.5837551 -0.69066966
vn -0.42685506 0.5837551 -0.69066966
vn -0.015227216 -0.73441607 -0.6785287
vn -0.015227216 -0.73441607 -0.6785287
vn -0.015227216 -0.73441607 -0.6785287
vn -0.253359 0.91780216 -0.30569345
vn -0.253359 0.91780216 -0.30569345
vn -0.253359 0.91780216 -0.30569345
vn 0.85227346 0.13028865 0.5066111
vn 0.85227346 0.13028865 0.5066111
vn 0.85227346 0.13028865 0.5066111
vn 0.553046 -0.83053803 0.065928705
vn 0.553046 -0.83053803 0.065928705
vn 0.553046 -0.83053803 0.065928705
vn -0.59008163 0 -0.80734354
vn -0.59008163 0 -0.80734354
vn -0.59008163 0 -0.80734354
vn 0.5658906 0.8233935 0.042320143
vn 0.5658906 0.8233935 0.042320143
vn 0.5658906 0.8233935 0.042320143
vn -0.423794 -0.793976 -0.4358907
vn -0.423794 -0.793976 -0.4358907
vn -0.423794 -0.793976 -0.4358907
vn -0.4112684 0.78772724 -0.45863295
vn -0.4112684 0.78772724 -0.45863295
vn -0.4112684 0.78772724 -0.45863295
vn 0.9956037 0 0.09366619
vn 0.9956037 0 0.09366619
vn 0.9956037 0 0.09366619
vn 0.6884565 0.22137243 -0.6906677
vn 0.6884565 0.22137243 -0.6906677
vn 0.6884565 0.22137243 -0.6906677
vn 0.14164235 -0.83663476 0.52913105
vn 0.14164235 -0.83663476 0.52913105
vn 0.14164235 -0.83663476 0.52913105
vn -0.95117295 -0.042660248 -0.30569628
vn -0.95117295 -0.042660248 -0.30569628
vn -0.95117295 -0.042660248 -0.30569628
vn -0.17534038 0.53963447 -0.8234382
vn -0.17534038 0.53963447 -0.8234382
vn -0.17534038 0.53963447 -0.8234382
vn 0.96078986 -0.26932618 0.06592744
vn 0.96078986 -0.26932618 0.06592744
vn 0.96078986 -0.26932618 0.06592744
vn -0.618981 -0.7826341 0.06592751
vn -0.618981 -0.7826341 0.06592751
vn -0.618981 -0.7826341 0.06592751
vn 0.80140454 0.50427693 -0.32164526
vn 0.80140454 0.50427693 -0.32164526
vn 0.80140454 0.50427693 -0.32164526
vn 0.3771782 -0.76010305 0.52913135
vn 0.3771782 -0.76010305 0.52913135
vn 0.3771782 -0.76010305 0.52913135
vn -0.70317215 -0.21246678 -0.67853284
vn -0.70317215 -0.21246678 -0.67853284
vn -0.70317215 -0.21246678 -0.67853284
g ExploderBody_0
f 3/3/3 2/2/2 1/1/1
f 6/6/6 5/5/5 4/4/4
f 9/9/9 8/8/8 7/7/7
f 12/12/12 11/11/11 10/10/10
f 15/15/15 14/14/14 13/13/13
f 18/18/18 17/17/17 16/16/16
f 21/21/21 20/20/20 19/19/19
f 24/24/24 23/23/23 22/22/22
f 27/27/27 26/26/26 25/25/25
f 30/30/30 29/29/29 28/28/28
f 33/33/33 32/32/32 31/31/31
f 36/36/36 35/35/35 34/34/34
f 39/39/39 38/38/38 37/37/37
f 42/42/42 41/41/41 40/40/40
f 45/45/45 44/44/44 43/43/43
f 48/48/48 47/47/47 46/46/46
f 51/51/51 50/50/50 49/49/49
f 54/54/54 53/53/53 52/52/52
f 57/57/57 56/56/56 55/55/55
f 60/60/60 59/59/59 58/58/58
f 63/63/63 62/62/62 61/61/61
f 66/66/66 65/65/65 64/64/64
f 69/69/69 68/68/68 67/67/67
f 72/72/72 71/71/71 70/70/70
f 75/75/75 74/74/74 73/73/73
f 78/78/78 77/77/77 76/76/76
f 81/81/81 80/80/80 79/79/79
f 84/84/84 83/83/83 82/82/82
f 87/87/87 86/86/86 85/85/85
f 90/90/90 89/89/89 88/88/88
f 93/93/93 92/92/92 91/91/91
f 96/96/96 95/95/95 94/94/94
f 99/99/99 98/98/98 97/97/97
f 102/102/102 101/101/101 100/100/100
f 105/105/105 104/104/104 103/103/103
f 108/108/108 107/107/107 106/106/106
f 111/111/111 110/110/110 109/109/109
f 114/114/114 113/113/113 112/112/112
f 117/117/117 116/116/116 115/115/115
f 120/120/120 119/119/119 118/118/118
f 123/123/123 122/122/122 121/121/121
f 126/126/126 125/125/125 124/124/124
f 129/129/129 128/128/128 127/127/127
f 132/132/132 131/131/131 130/130/130
f 135/135/135 134/134/134 133/133/133
f 138/138/138 137/137/137 136/136/136
f 141/141/141 140/140/140 139/139/139
f 144/144/144 143/143/143 142/142/142
f 147/147/147 146/146/146 145/145/145
f 150/150/150 149/149/149 148/148/148
f 153/153/153 152/152/152 151/151/151
f 156/156/156 155/155/155 154/154/154
f 159/159/159 158/158/158 157/157/157
f 162/162/162 161/161/161 160/160/160
f 165/165/165 164/164/164 163/163/163
f 168/168/168 167/167/167 166/166/166
f 171/171/171 170/170/170 169/169/169
f 174/174/174 173/173/173 172/172/172
f 177/177/177 176/176/176 175/175/175
f 180/180/180 179/179/179 178/178/178
f 183/183/183 182/182/182 181/181/181
f 186/186/186 185/185/185 184/184/184
f 189/189/189 188/188/188 187/187/187
f 192/192/192 191/191/191 190/190/190
f 195/195/195 194/194/194 193/193/193
f 198/198/198 197/197/197 196/196/196
f 201/201/201 200/200/200 199/199/199
f 204/204/204 203/203/203 202/202/202
f 207/207/207 206/206/206 205/205/205
f 210/210/210 209/209/209 208/208/208
f 213/213/213 212/212/212 211/211/211
f 216/216/216 215/215/215 214/214/214
f 219/219/219 218/218/218 217/217/217
f 222/222/222 221/221/221 220/220/220
f 225/225/225 224/224/224 223/223/223
f 228/228/228 227/227/227 226/226/226
f 231/231/231 230/230/230 229/229/229
f 234/234/234 233/233/233 232/232/232
f 237/237/237 236/236/236 235/235/235
f 240/240/240 239/239/239 238/238/238
f 243/243/243 242/242/242 241/241/241
f 246/246/246 245/245/245 244/244/244
f 249/249/249 248/248/248 247/247/247
f 252/252/252 251/251/251 250/250/250
f 255/255/255 254/254/254 253/253/253
f 258/258/258 257/257/257 256/256/256
f 261/261/261 260/260/260 259/259/259
f 264/264/264 263/263/263 262/262/262
f 267/267/267 266/266/266 265/265/265
f 270/270/270 269/269/269 268/268/268
f 273/273/273 272/272/272 271/271/271
f 276/276/276 275/275/275 274/274/274
f 279/279/279 278/278/278 277/277/277
f 282/282/282 281/281/281 280/280/280
f 285/285/285 284/284/284 283/283/283
f 288/288/288 287/287/287 286/286/286
f 291/291/291 290/290/290 289/289/289
f 294/294/294 293/293/293 292/292/292
f 297/297/297 296/296/296 295/295/295
f 300/300/300 299/299/299 298/298/298
f 303/303/303 302/302/302 301/301/301
f 306/306/306 305/305/305 304/304/304
f 309/309/309 308/308/308 307/307/307
f 312/312/312 311/311/311 310/310/310
f 315/315/315 314/314/314 313/313/313
f 318/318/318 317/317/317 316/316/316
f 321/321/321 320/320/320 319/319/319
f 324/324/324 323/323/323 322/322/322
f 327/327/327 326/326/326 325/325/325
f 330/330/330 329/329/329 328/328/328
f 333/333/333 332/332/332 331/331/331
f 336/336/336 335/335/335 334/334/334
f 339/339/339 338/338/338 337/337/337
f 342/342/342 341/341/341 340/340/340
f 345/345/345 344/344/344 343/343/343
f 348/348/348 347/347/347 346/346/346
f 351/351/351 350/350/350 349/349/349
f 354/354/354 353/353/353 352/352/352
f 357/357/357 356/356/356 355/355/355
f 360/360/360 359/359/359 358/358/358
f 363/363/363 362/362/362 361/361/361
f 366/366/366 365/365/365 364/364/364
f 369/369/369 368/368/368 367/367/367
f 372/372/372 371/371/371 370/370/370
f 375/375/375 374/374/374 373/373/373
f 378/378/378 377/377/377 376/376/376
f 381/381/381 380/380/380 379/379/379
f 384/384/384 383/383/383 382/382/382
f 387/387/387 386/386/386 385/385/385
f 390/390/390 389/389/389 388/388/388
f 393/393/393 392/392/392 391/391/391
f 396/396/396 395/395/395 394/394/394
f 399/399/399 398/398/398 397/397/397
f 402/402/402 401/401/401 400/400/400
f 405/405/405 404/404/404 403/403/403
f 408/408/408 407/407/407 406/406/406
f 411/411/411 410/410/410 409/409/409
f 414/414/414 413/413/413 412/412/412
f 417/417/417 416/416/416 415/415/415
f 420/420/420 419/419/419 418/418/418
f 423/423/423 422/422/422 421/421/421
f 426/426/426 425/425/425 424/424/424
f 429/429/429 428/428/428 427/427/427
f 432/432/432 431/431/431 430/430/430
f 435/435/435 434/434/434 433/433/433
f 438/438/438 437/437/437 436/436/436
f 441/441/441 440/440/440 439/439/439
f 444/444/444 443/443/443 442/442/442
f 447/447/447 446/446/446 445/445/445
f 450/450/450 449/449/449 448/448/448
f 453/453/453 452/452/452 451/451/451
f 456/456/456 455/455/455 454/454/454
f 459/459/459 458/458/458 457/457/457
f 462/462/462 461/461/461 460/460/460
f 465/465/465 464/464/464 463/463/463
f 468/468/468 467/467/467 466/466/466
f 471/471/471 470/470/470 469/469/469
f 474/474/474 473/473/473 472/472/472
f 477/477/477 476/476/476 475/475/475
f 480/480/480 479/479/479 478/478/478
f 483/483/483 482/482/482 481/481/481
f 486/486/486 485/485/485 484/484/484
f 489/489/489 488/488/488 487/487/487
f 492/492/492 491/491/491 490/490/490
f 495/495/495 494/494/494 493/493/493
f 498/498/498 497/497/497 496/496/496
f 501/501/501 500/500/500 499/499/499
f 504/504/504 503/503/503 502/502/502
f 507/507/507 506/506/506 505/505/505
f 510/510/510 509/509/509 508/508/508
f 513/513/513 512/512/512 511/511/511
f 516/516/516 515/515/515 514/514/514
f 519/519/519 518/518/518 517/517/517
f 522/522/522 521/521/521 520/520/520
f 525/525/525 524/524/524 523/523/523
f 528/528/528 527/527/527 526/526/526
f 531/531/531 530/530/530 529/529/529
f 534/534/534 533/533/533 532/532/532
f 537/537/537 536/536/536 535/535/535
f 540/540/540 539/539/539 538/538/538
f 543/543/543 542/542/542 541/541/541
f 546/546/546 545/545/545 544/544/544
f 549/549/549 548/548/548 547/547/547
f 552/552/552 551/551/551 550/550/550
f 555/555/555 554/554/554 553/553/553
f 558/558/558 557/557/557 556/556/556
f 561/561/561 560/560/560 559/559/559
f 564/564/564 563/563/563 562/562/562
f 567/567/567 566/566/566 565/565/565
f 570/570/570 569/569/569 568/568/568
f 573/573/573 572/572/572 571/571/571
f 576/576/576 575/575/575 574/574/574
f 579/579/579 578/578/578 577/577/577
f 582/582/582 581/581/581 580/580/580
f 585/585/585 584/584/584 583/583/583
f 588/588/588 587/587/587 586/586/586
f 591/591/591 590/590/590 589/589/589
f 594/594/594 593/593/593 592/592/592
f 597/597/597 596/596/596 595/595/595
f 600/600/600 599/599/599 598/598/598
f 603/603/603 602/602/602 601/601/601
f 606/606/606 605/605/605 604/604/604
f 609/609/609 608/608/608 607/607/607
f 612/612/612 611/611/611 610/610/610
f 615/615/615 614/614/614 613/613/613
f 618/618/618 617/617/617 616/616/616
f 621/621/621 620/620/620 619/619/619
f 624/624/624 623/623/623 622/622/622
f 627/627/627 626/626/626 625/625/625
f 630/630/630 629/629/629 628/628/628
f 633/633/633 632/632/632 631/631/631
f 636/636/636 635/635/635 634/634/634
f 639/639/639 638/638/638 637/637/637
f 642/642/642 641/641/641 640/640/640
f 645/645/645 644/644/644 643/643/643
f 648/648/648 647/647/647 646/646/646
f 651/651/651 650/650/650 649/649/649
f 654/654/654 653/653/653 652/652/652
f 657/657/657 656/656/656 655/655/655
f 660/660/660 659/659/659 658/658/658
f 663/663/663 662/662/662 661/661/661
f 666/666/666 665/665/665 664/664/664
f 669/669/669 668/668/668 667/667/667
f 672/672/672 671/671/671 670/670/670
f 675/675/675 674/674/674 673/673/673
f 678/678/678 677/677/677 676/676/676
f 681/681/681 680/680/680 679/679/679
f 684/684/684 683/683/683 682/682/682
f 687/687/687 686/686/686 685/685/685
f 690/690/690 689/689/689 688/688/688
f 693/693/693 692/692/692 691/691/691
f 696/696/696 695/695/695 694/694/694
f 699/699/699 698/698/698 697/697/697
f 702/702/702 701/701/701 700/700/700
f 705/705/705 704/704/704 703/703/703
f 708/708/708 707/707/707 706/706/706
f 711/711/711 710/710/710 709/709/709
f 714/714/714 713/713/713 712/712/712
f 717/717/717 716/716/716 715/715/715
f 720/720/720 719/719/719 718/718/718
