g Falchion
v -0.31537467 -0.038984463 1.8582141
v -0.31537467 0.038984466 1.8582141
v -0.46920878 0.037794296 2.024308
v -0.46920878 -0.037794285 2.024308
v -0.12134995 0.038984466 1.8582141
v -0.024337605 0.038984466 1.8582141
v -0.44424117 0.037794296 2.024308
v -0.4525637 0.037794296 2.024308
v -0.024337605 0.038984466 1.8582141
v -0.024337605 -0.038984463 1.8582141
v -0.44424117 -0.037794285 2.024308
v -0.44424117 0.037794296 2.024308
v -0.21836233 -0.038984463 1.8582141
v -0.31537467 -0.038984463 1.8582141
v -0.46920878 -0.037794285 2.024308
v -0.46088624 -0.037794285 2.024308
v -0.03239587 -0.033257168 0.10284722
v -0.37382331 -0.06399122 0.03210011
v -0.12792057 -0.033257168 0.102847226
v -0.1246078 -0.06399122 0.03210011
v 0.05191534 -0.033257168 0.10284722
v 0.1246077 -0.06399122 0.03210011
v 0.12792031 -0.033257168 0.102847226
v 0.3738232 -0.06399122 0.03210011
v -0.46088624 0.037794296 2.024308
v -0.46920878 -0.037794285 2.024308
v -0.46920878 0.037794296 2.024308
v -0.46088624 -0.037794285 2.024308
v -0.4525637 0.037794296 2.024308
v -0.4525637 -0.037794285 2.024308
v -0.44424117 0.037794296 2.024308
v -0.44424117 -0.037794285 2.024308
v -0.37382331 -0.06399122 0.03210011
v -0.37382331 -0.06399122 -0.03210011
v -0.37382331 0.06399122 -0.03210011
v -0.37382331 0.06399122 0.03210011
v 0.05191534 0.03325715 0.10284722
v 0.3738232 0.06399122 0.03210011
v 0.12792031 0.03325715 0.102847226
v 0.12460768 0.06399122 0.03210011
v -0.03239587 0.03325715 0.10284722
v -0.12460782 0.06399122 0.03210011
v -0.12792057 0.03325715 0.102847226
v -0.37382331 0.06399122 0.03210011
v -0.12792057 -0.033257168 0.102847226
v -0.37382331 -0.06399122 0.03210011
v -0.37382331 0.06399122 0.03210011
v -0.12792057 0.03325715 0.102847226
v 0.12792031 0.03325715 0.102847226
v 0.3738232 0.06399122 0.03210011
v 0.3738232 -0.06399122 0.03210011
v 0.12792031 -0.033257168 0.102847226
v -0.1246078 -0.06399122 -0.03210011
v -0.090650216 -0.032992043 -0.069192834
v -0.37382331 -0.06399122 -0.03210011
v -0.030216753 -0.032992043 -0.069192834
v 0.1246077 -0.06399122 -0.03210011
v 0.030216709 -0.032992043 -0.069192834
v 0.3738232 -0.06399122 -0.03210011
v 0.09065017 -0.032992043 -0.069192834
v -0.1246078 -0.06399122 0.03210011
v -0.37382331 -0.06399122 -0.03210011
v -0.37382331 -0.06399122 0.03210011
v -0.1246078 -0.06399122 -0.03210011
v 0.1246077 -0.06399122 0.03210011
v 0.1246077 -0.06399122 -0.03210011
v 0.3738232 -0.06399122 0.03210011
v 0.3738232 -0.06399122 -0.03210011
v 0.12460768 0.06399122 0.03210011
v 0.3738232 0.06399122 -0.03210011
v 0.3738232 0.06399122 0.03210011
v 0.12460768 0.06399122 -0.03210011
v -0.12460782 0.06399122 0.03210011
v -0.12460782 0.06399122 -0.03210011
v -0.37382331 0.06399122 0.03210011
v -0.37382331 0.06399122 -0.03210011
v 0.3738232 0.06399122 0.03210011
v 0.3738232 0.06399122 -0.03210011
v 0.3738232 -0.06399122 -0.03210011
v 0.3738232 -0.06399122 0.03210011
v 0.09065017 0.032992043 -0.069192834
v 0.07328446 0.041494835 -0.37918806
v 0.07328446 -0.041494835 -0.37918806
v 0.09065017 -0.032992043 -0.069192834
v 0.12460768 0.06399122 -0.03210011
v 0.09065017 0.032992043 -0.069192834
v 0.3738232 0.06399122 -0.03210011
v 0.030216709 0.032992043 -0.069192834
v -0.12460782 0.06399122 -0.03210011
v -0.030216753 0.032992043 -0.069192834
v -0.37382331 0.06399122 -0.03210011
v -0.090650216 0.032992043 -0.069192834
v 0.3738232 0.06399122 -0.03210011
v 0.09065017 0.032992043 -0.069192834
v 0.09065017 -0.032992043 -0.069192834
v 0.3738232 -0.06399122 -0.03210011
v -0.37382331 -0.06399122 -0.03210011
v -0.090650216 -0.032992043 -0.069192834
v -0.090650216 0.032992043 -0.069192834
v -0.37382331 0.06399122 -0.03210011
v 0.07328446 0.041494835 -0.37918806
v 0.07328446 0.041494835 -0.4706316
v 0.07328446 -0.041494835 -0.4706316
v 0.07328446 -0.041494835 -0.37918806
v -0.090650216 -0.032992043 -0.069192834
v -0.07328451 -0.041494835 -0.37918806
v -0.07328451 0.041494835 -0.37918806
v -0.090650216 0.032992043 -0.069192834
v -0.030216753 -0.032992043 -0.069192834
v -0.07328451 -0.041494835 -0.37918806
v -0.090650216 -0.032992043 -0.069192834
v -0.024428181 -0.041494835 -0.37918806
v -0.07328451 -0.041494835 -0.4706316
v 0.030216709 -0.032992043 -0.069192834
v -0.024428181 -0.041494835 -0.4706316
v 0.02442814 -0.041494835 -0.37918806
v 0.09065017 -0.032992043 -0.069192834
v 0.02442814 -0.041494835 -0.4706316
v 0.07328446 -0.041494835 -0.37918806
v 0.07328446 -0.041494835 -0.4706316
v 0.030216709 0.032992043 -0.069192834
v 0.07328446 0.041494835 -0.37918806
v 0.09065017 0.032992043 -0.069192834
v 0.024428137 0.041494835 -0.37918806
v 0.07328446 0.041494835 -0.4706316
v -0.030216753 0.032992043 -0.069192834
v 0.024428137 0.041494835 -0.4706316
v -0.024428185 0.041494835 -0.37918806
v -0.090650216 0.032992043 -0.069192834
v -0.024428185 0.041494835 -0.4706316
v -0.07328451 0.041494835 -0.37918806
v -0.07328451 0.041494835 -0.4706316
v -0.12098719 -0.038967572 1.483876
v -0.28465465 -0.038967572 1.483876
v -0.2313324 -0.039782245 1.624424
v -0.11005638 -0.039782245 1.624424
v 0.04268028 -0.038967572 1.483876
v -0.12098719 -0.038967572 1.483876
v 0.011219658 -0.039782245 1.624424
v 0.20634775 0.03896757 1.483876
v 0.1324957 -0.039782245 1.624424
v 0.1324957 0.03978224 1.624424
v 0.20634775 -0.038967572 1.483876
v 0.2278029 0.038730893 1.4430447
v 0.2278029 -0.038730897 1.4430447
v 0.042680293 0.03896757 1.483876
v 0.1324957 0.03978224 1.624424
v 0.011219673 0.03978224 1.624424
v 0.20634775 0.03896757 1.483876
v 0.014771689 0.038730893 1.4430447
v 0.2278029 0.038730893 1.4430447
v 0.042680293 0.03896757 1.483876
v 0.004747659 0.038730893 1.4430447
v 0.042680293 0.03896757 1.483876
v -0.12098718 0.03896757 1.483876
v -0.28465465 -0.038967572 1.483876
v -0.28465465 0.03896757 1.483876
v -0.2313324 0.03978224 1.624424
v -0.2313324 -0.039782245 1.624424
v -0.024428181 -0.041494835 -0.4706316
v -0.1304624 -0.07386975 -0.5613829
v -0.07328451 -0.041494835 -0.4706316
v -0.04348761 -0.07386975 -0.5613829
v 0.02442814 -0.041494835 -0.4706316
v 0.04348716 -0.07386975 -0.5613829
v 0.07328446 -0.041494835 -0.4706316
v 0.13046193 -0.07386975 -0.5613829
v -0.07328451 -0.041494835 -0.37918806
v -0.07328451 -0.041494835 -0.4706316
v -0.07328451 0.041494835 -0.4706316
v -0.07328451 0.041494835 -0.37918806
v -0.04348761 -0.07386975 -0.5613829
v -0.09142954 -0.051768728 -0.64992124
v -0.1304624 -0.07386975 -0.5613829
v -0.030476667 -0.051768728 -0.64992124
v 0.04348716 -0.07386975 -0.5613829
v 0.030476201 -0.051768728 -0.64992124
v 0.13046193 -0.07386975 -0.5613829
v 0.09142907 -0.051768728 -0.64992124
v 0.024428137 0.041494835 -0.4706316
v 0.13046193 0.07386975 -0.5613829
v 0.07328446 0.041494835 -0.4706316
v 0.043487146 0.07386975 -0.5613829
v -0.024428185 0.041494835 -0.4706316
v -0.043487623 0.07386975 -0.5613829
v -0.07328451 0.041494835 -0.4706316
v -0.1304624 0.07386975 -0.5613829
v 0.07328446 0.041494835 -0.4706316
v 0.13046193 0.07386975 -0.5613829
v 0.13046193 -0.07386975 -0.5613829
v 0.07328446 -0.041494835 -0.4706316
v -0.07328451 -0.041494835 -0.4706316
v -0.1304624 -0.07386975 -0.5613829
v -0.1304624 0.07386975 -0.5613829
v -0.07328451 0.041494835 -0.4706316
v -0.18981561 -0.03590718 0.9558928
v -0.21112011 0.03728715 1.1939684
v -0.21112011 -0.037287157 1.1939684
v -0.18981561 0.035907168 0.9558928
v -0.16851112 -0.0345272 0.7178172
v -0.16851112 0.034527186 0.7178172
v -0.13182215 -0.033379246 0.16195843
v -0.13182215 0.033379227 0.16195843
v -0.12792057 -0.033257168 0.102847226
v -0.12792057 0.03325715 0.102847226
v 0.05191534 0.035907168 0.9558928
v 0.24335393 0.035907168 0.9558928
v 0.26475275 0.03728715 1.1939684
v 0.043865982 0.03728715 1.1939684
v 0.24335393 0.035907168 0.9558928
v 0.26475275 -0.037287157 1.1939684
v 0.26475275 0.03728715 1.1939684
v 0.24335393 -0.03590718 0.9558928
v 0.22195512 0.034527186 0.7178172
v 0.22195512 -0.0345272 0.7178172
v -0.03239587 -0.03590718 0.9558928
v -0.18981561 -0.03590718 0.9558928
v -0.21112011 -0.037287157 1.1939684
v -0.024346542 -0.037287157 1.1939684
v -0.21112011 -0.037287157 1.1939684
v -0.22633857 -0.038335796 1.29128
v -0.020280907 -0.038335796 1.29128
v -0.22633857 -0.038335796 1.29128
v -0.3045531 -0.038730897 1.4430447
v 0.0030107275 -0.038730897 1.4430447
v -0.03239587 -0.0345272 0.7178172
v -0.18981561 -0.03590718 0.9558928
v -0.16851112 -0.0345272 0.7178172
v -0.03239587 -0.033379246 0.16195843
v -0.13182215 -0.033379246 0.16195843
v 0.05191534 -0.033257168 0.10284722
v -0.03239587 -0.033257168 0.10284722
v 0.05191534 -0.033379246 0.16195843
v -0.13182215 -0.033379246 0.16195843
v -0.12792057 -0.033257168 0.102847226
v 0.12792031 -0.033257168 0.102847226
v 0.05191534 -0.033257168 0.10284722
v 0.13695899 -0.033379246 0.16195843
v 0.13695899 -0.033379246 0.16195843
v 0.05191534 -0.0345272 0.7178172
v 0.22195512 -0.0345272 0.7178172
v 0.13695899 0.033379227 0.16195843
v 0.22195512 -0.0345272 0.7178172
v 0.22195512 0.034527186 0.7178172
v 0.13695899 -0.033379246 0.16195843
v 0.12792031 0.03325715 0.102847226
v 0.12792031 -0.033257168 0.102847226
v 0.05191534 0.033379227 0.16195843
v 0.13695899 0.033379227 0.16195843
v 0.22195512 0.034527186 0.7178172
v 0.05191534 0.034527186 0.7178172
v -0.03239587 0.03325715 0.10284722
v 0.05191534 0.03325715 0.10284722
v -0.03239587 0.033379227 0.16195843
v -0.12792057 0.03325715 0.102847226
v -0.13182215 0.033379227 0.16195843
v 0.12792031 0.03325715 0.102847226
v 0.13695899 0.033379227 0.16195843
v 0.05191534 0.033379227 0.16195843
v -0.03239587 0.033379227 0.16195843
v -0.03239587 0.034527186 0.7178172
v -0.16851112 0.034527186 0.7178172
v -0.03239587 0.035907168 0.9558928
v -0.18981561 0.035907168 0.9558928
v -0.22633857 -0.038335796 1.29128
v -0.22633857 0.038335793 1.29128
v -0.3045531 0.038730893 1.4430447
v -0.3045531 -0.038730897 1.4430447
v 0.03980034 0.038335793 1.29128
v 0.25959018 0.038335793 1.29128
v 0.2278029 0.038730893 1.4430447
v 0.014771689 0.038730893 1.4430447
v 0.25959018 0.038335793 1.29128
v 0.25959018 -0.038335796 1.29128
v 0.2278029 -0.038730897 1.4430447
v 0.2278029 0.038730893 1.4430447
v 0.030476198 0.051768728 -0.64992124
v 0.09142907 -0.051768728 -0.64992124
v 0.09142907 0.051768728 -0.64992124
v 0.030476201 -0.051768728 -0.64992124
v -0.03047667 0.051768728 -0.64992124
v -0.030476667 -0.051768728 -0.64992124
v -0.09142954 0.051768728 -0.64992124
v -0.09142954 -0.051768728 -0.64992124
v 0.043487146 0.07386975 -0.5613829
v 0.09142907 0.051768728 -0.64992124
v 0.13046193 0.07386975 -0.5613829
v 0.030476198 0.051768728 -0.64992124
v -0.043487623 0.07386975 -0.5613829
v -0.03047667 0.051768728 -0.64992124
v -0.1304624 0.07386975 -0.5613829
v -0.09142954 0.051768728 -0.64992124
v 0.13046193 0.07386975 -0.5613829
v 0.09142907 0.051768728 -0.64992124
v 0.09142907 -0.051768728 -0.64992124
v 0.13046193 -0.07386975 -0.5613829
v -0.1304624 -0.07386975 -0.5613829
v -0.09142954 -0.051768728 -0.64992124
v -0.09142954 0.051768728 -0.64992124
v -0.1304624 0.07386975 -0.5613829
v -0.11005638 -0.039782245 1.624424
v -0.2313324 -0.039782245 1.624424
v -0.31537467 -0.038984463 1.8582141
v -0.21836233 -0.038984463 1.8582141
v 0.1324957 0.03978224 1.624424
v 0.1324957 -0.039782245 1.624424
v -0.024337605 -0.038984463 1.8582141
v -0.024337605 0.038984466 1.8582141
v 0.011219673 0.03978224 1.624424
v 0.1324957 0.03978224 1.624424
v -0.024337605 0.038984466 1.8582141
v -0.12134995 0.038984466 1.8582141
v -0.2313324 -0.039782245 1.624424
v -0.2313324 0.03978224 1.624424
v -0.31537467 0.038984466 1.8582141
v -0.31537467 -0.038984463 1.8582141
v 0.05191534 0.034527186 0.7178172
v 0.22195512 0.034527186 0.7178172
v 0.24335393 0.035907168 0.9558928
v 0.05191534 0.035907168 0.9558928
v 0.26475275 0.03728715 1.1939684
v 0.26475275 -0.037287157 1.1939684
v 0.25959018 -0.038335796 1.29128
v 0.25959018 0.038335793 1.29128
v 0.043865982 0.03728715 1.1939684
v 0.26475275 0.03728715 1.1939684
v 0.25959018 0.038335793 1.29128
v 0.03980034 0.038335793 1.29128
v -0.21112011 -0.037287157 1.1939684
v -0.21112011 0.03728715 1.1939684
v -0.22633857 0.038335793 1.29128
v -0.22633857 -0.038335796 1.29128
v -0.3045531 -0.038730897 1.4430447
v -0.3045531 0.038730893 1.4430447
v -0.28465465 0.03896757 1.483876
v -0.28465465 -0.038967572 1.483876
v 0.0030107275 -0.038730897 1.4430447
v -0.3045531 -0.038730897 1.4430447
v -0.28465465 -0.038967572 1.483876
v -0.12098719 -0.038967572 1.483876
v 0.016508624 -0.038730897 1.4430447
v 0.0030107275 -0.038730897 1.4430447
v -0.12098719 -0.038967572 1.483876
v 0.04268028 -0.038967572 1.483876
v 0.2278029 -0.038730897 1.4430447
v 0.04268028 -0.038967572 1.483876
v 0.20634775 -0.038967572 1.483876
v 0.04268028 -0.038967572 1.483876
v 0.011219658 -0.039782245 1.624424
v 0.1324957 -0.039782245 1.624424
v -0.3045531 0.038730893 1.4430447
v 0.004747659 0.038730893 1.4430447
v -0.12098718 0.03896757 1.483876
v -0.28465465 0.03896757 1.483876
v -0.21112011 0.03728715 1.1939684
v -0.024346542 0.03728715 1.1939684
v -0.020280907 0.038335793 1.29128
v -0.22633857 0.038335793 1.29128
v -0.18981561 0.035907168 0.9558928
v -0.024346542 0.03728715 1.1939684
v -0.03239587 0.035907168 0.9558928
v 0.26475275 -0.037287157 1.1939684
v 0.043865982 -0.037287157 1.1939684
v 0.03980034 -0.038335796 1.29128
v 0.25959018 -0.038335796 1.29128
v 0.0030107275 -0.038730897 1.4430447
v 0.0030107275 0.0015118383 1.4432622
v -0.020280907 0.0019069389 1.2914976
v -0.020280907 -0.038335796 1.29128
v 0.004747659 0.038730893 1.4430447
v 0.004747659 0.009841949 1.4432008
v 0.014771689 0.009841949 1.4432008
v 0.014771689 0.038730893 1.4430447
v 0.22195512 -0.0345272 0.7178172
v 0.05191534 -0.0345272 0.7178172
v 0.05191534 -0.03590718 0.9558928
v 0.24335393 -0.03590718 0.9558928
v -0.020280907 -0.038335796 1.29128
v -0.020280907 0.0019069389 1.2914976
v -0.024346542 0.0029555783 1.194186
v -0.024346542 -0.037287157 1.1939684
v -0.03239587 0.004335556 0.9561104
v -0.03239587 -0.03590718 0.9558928
v -0.03239587 -0.0345272 0.7178172
v -0.03239587 0.005638242 0.7179734
v -0.03239587 0.005677066 0.72467136
v -0.03239587 0.0044902824 0.16211464
v -0.03239587 -0.033379246 0.16195843
v -0.2313324 0.03978224 1.624424
v -0.11005636 0.03978224 1.624424
v -0.2183623 0.038984466 1.8582141
v -0.31537467 0.038984466 1.8582141
v -0.11005636 0.03978224 1.624424
v 0.011219673 0.03978224 1.624424
v -0.12134995 0.038984466 1.8582141
v -0.2183623 0.038984466 1.8582141
v 0.1324957 -0.039782245 1.624424
v -0.12134997 -0.038984463 1.8582141
v -0.024337605 -0.038984463 1.8582141
v 0.011219658 -0.039782245 1.624424
v -0.11005638 -0.039782245 1.624424
v -0.21836233 -0.038984463 1.8582141
v -0.12134997 -0.038984463 1.8582141
v 0.25959018 -0.038335796 1.29128
v 0.03980034 -0.038335796 1.29128
v 0.016508624 -0.038730897 1.4430447
v 0.2278029 -0.038730897 1.4430447
v -0.22633857 0.038335793 1.29128
v -0.020280907 0.038335793 1.29128
v 0.004747659 0.038730893 1.4430447
v -0.3045531 0.038730893 1.4430447
v -0.024346542 0.03728715 1.1939684
v -0.020280907 0.009446848 1.2914362
v -0.020280907 0.038335793 1.29128
v -0.024346542 0.008398205 1.1941246
v -0.03239587 0.035907168 0.9558928
v -0.03239587 0.0070182234 0.956049
v -0.03239587 0.034527186 0.7178172
v -0.03239587 0.005677066 0.72467136
v -0.03239587 0.005638242 0.7179734
v -0.03239587 0.033379227 0.16195843
v -0.03239587 0.0068634897 0.16217604
v -0.03239587 0.0044902824 0.16211464
v 0.05191534 0.005638242 0.7179734
v 0.05191534 0.005677066 0.72467136
v 0.05191534 0.004335556 0.9561104
v 0.05191534 -0.0345272 0.7178172
v 0.05191534 -0.033379246 0.16195843
v 0.05191534 0.0044902824 0.16211464
v 0.05191534 -0.03590718 0.9558928
v 0.043865982 0.0029555783 1.194186
v 0.043865982 -0.037287157 1.1939684
v 0.03980034 0.0019069389 1.2914976
v 0.03980034 -0.038335796 1.29128
v 0.24335393 -0.03590718 0.9558928
v 0.05191534 -0.03590718 0.9558928
v 0.043865982 -0.037287157 1.1939684
v 0.26475275 -0.037287157 1.1939684
v 0.03980034 -0.038335796 1.29128
v 0.03980034 0.0019069389 1.2914976
v 0.016508624 0.0015118383 1.4432622
v 0.016508624 -0.038730897 1.4430447
v -0.28465465 0.03896757 1.483876
v -0.12098718 0.03896757 1.483876
v -0.11005636 0.03978224 1.624424
v -0.2313324 0.03978224 1.624424
v -0.12098718 0.03896757 1.483876
v 0.011219673 0.03978224 1.624424
v 0.042680293 0.03896757 1.483876
v -0.024337605 -0.038984463 1.8582141
v -0.4525637 -0.037794285 2.024308
v -0.44424117 -0.037794285 2.024308
v -0.12134997 -0.038984463 1.8582141
v -0.21836233 -0.038984463 1.8582141
v -0.46088624 -0.037794285 2.024308
v -0.4525637 -0.037794285 2.024308
v -0.31537467 0.038984466 1.8582141
v -0.2183623 0.038984466 1.8582141
v -0.46088624 0.037794296 2.024308
v -0.46920878 0.037794296 2.024308
v -0.2183623 0.038984466 1.8582141
v -0.12134995 0.038984466 1.8582141
v -0.4525637 0.037794296 2.024308
v -0.46088624 0.037794296 2.024308
v 0.043865982 0.0029555783 1.194186
v -0.020280907 0.0019069389 1.2914976
v 0.03980034 0.0019069389 1.2914976
v -0.024346542 0.0029555783 1.194186
v 0.05191534 0.004335556 0.9561104
v -0.03239587 0.004335556 0.9561104
v -0.03239587 0.005677066 0.72467136
v 0.05191534 0.005677066 0.72467136
v -0.03239587 0.005638242 0.7179734
v 0.05191534 0.005638242 0.7179734
v 0.05191534 0.0068634897 0.16217604
v -0.03239587 0.0068634897 0.16217604
v 0.03980034 0.0019069389 1.2914976
v -0.020280907 0.0019069389 1.2914976
v 0.0030107275 0.0015118383 1.4432622
v 0.016508624 0.0015118383 1.4432622
v -0.03239587 -0.033379246 0.16195843
v -0.03239587 0.0044902824 0.16211464
v 0.05191534 0.0044902824 0.16211464
v 0.05191534 -0.033379246 0.16195843
v 0.016508624 -0.038730897 1.4430447
v 0.016508624 0.0015118383 1.4432622
v 0.0030107275 0.0015118383 1.4432622
v 0.0030107275 -0.038730897 1.4430447
v -0.024346542 0.008398205 1.1941246
v 0.03980034 0.009446848 1.2914362
v -0.020280907 0.009446848 1.2914362
v 0.043865982 0.008398205 1.1941246
v -0.03239587 0.0070182234 0.956049
v 0.05191534 0.0070182234 0.956049
v 0.05191534 0.005677066 0.72467136
v -0.03239587 0.005677066 0.72467136
v 0.05191534 0.005638242 0.7179734
v -0.03239587 0.005638242 0.7179734
v -0.03239587 0.0044902824 0.16211464
v 0.05191534 0.0044902824 0.16211464
v -0.020280907 0.009446848 1.2914362
v 0.03980034 0.009446848 1.2914362
v 0.014771689 0.009841949 1.4432008
v 0.004747659 0.009841949 1.4432008
v 0.05191534 0.034527186 0.7178172
v 0.05191534 0.0068634897 0.16217604
v 0.05191534 0.033379227 0.16195843
v 0.05191534 0.005638242 0.7179734
v 0.05191534 0.0044902824 0.16211464
v 0.05191534 0.005677066 0.72467136
v 0.05191534 0.0070182234 0.956049
v 0.05191534 0.035907168 0.9558928
v 0.043865982 0.03728715 1.1939684
v 0.043865982 0.008398205 1.1941246
v 0.03980034 0.038335793 1.29128
v 0.03980034 0.009446848 1.2914362
v -0.020280907 0.038335793 1.29128
v -0.020280907 0.009446848 1.2914362
v 0.004747659 0.009841949 1.4432008
v 0.004747659 0.038730893 1.4430447
v 0.014771689 0.038730893 1.4430447
v 0.014771689 0.009841949 1.4432008
v 0.03980034 0.009446848 1.2914362
v 0.03980034 0.038335793 1.29128
v 0.05191534 0.033379227 0.16195843
v -0.03239587 0.0068634897 0.16217604
v -0.03239587 0.033379227 0.16195843
v 0.05191534 0.0068634897 0.16217604
v -0.03239587 0.0044902824 0.16211464
v 0.05191534 0.0044902824 0.16211464
vt 0.57337344 0
vt 0.5733735 0.25
vt 0.625 0.25
vt 0.625 0
vt 0.57337344 0.41666666
vt 0.57337344 0.5
vt 0.625 0.5
vt 0.625 0.41666666
vt 0.57337344 0.5
vt 0.5733735 0.75
vt 0.625 0.75
vt 0.625 0.5
vt 0.57337344 0.9166666
vt 0.57337344 1
vt 0.625 1
vt 0.625 0.9166666
vt 0.375 0.9166666
vt 0.375 1
vt 0.375 1
vt 0.375 0.9166666
vt 0.375 0.8333333
vt 0.375 0.8333333
vt 0.375 0.75
vt 0.375 0.75
vt 0.7916666 0.5
vt 0.875 0.75
vt 0.875 0.5
vt 0.7916666 0.75
vt 0.7083333 0.5
vt 0.7083333 0.75
vt 0.625 0.5
vt 0.625 0.75
vt 0.375 0
vt 0.375 0
vt 0.375 0.25
vt 0.375 0.25
vt 0.375 0.41666666
vt 0.375 0.5
vt 0.375 0.5
vt 0.375 0.41666666
vt 0.375 0.3333333
vt 0.375 0.3333333
vt 0.375 0.25
vt 0.375 0.25
vt 0.375 0
vt 0.375 0
vt 0.375 0.25
vt 0.375 0.25
vt 0.375 0.5
vt 0.375 0.5
vt 0.375 0.75
vt 0.375 0.75
vt 0.375 0.9166666
vt 0.375 1
vt 0.375 1
vt 0.375 0.9166666
vt 0.375 0.8333333
vt 0.375 0.8333333
vt 0.375 0.75
vt 0.375 0.75
vt 0.375 0.9166666
vt 0.375 1
vt 0.375 1
vt 0.375 0.9166666
vt 0.375 0.8333333
vt 0.375 0.8333333
vt 0.375 0.75
vt 0.375 0.75
vt 0.375 0.41666666
vt 0.375 0.5
vt 0.375 0.5
vt 0.375 0.41666666
vt 0.375 0.3333333
vt 0.375 0.3333333
vt 0.375 0.25
vt 0.375 0.25
vt 0.375 0.5
vt 0.375 0.5
vt 0.375 0.75
vt 0.375 0.75
vt 0.375 0.5
vt 0.375 0.5
vt 0.375 0.75
vt 0.375 0.75
vt 0.375 0.41666666
vt 0.375 0.5
vt 0.375 0.5
vt 0.375 0.41666666
vt 0.375 0.3333333
vt 0.375 0.3333333
vt 0.375 0.25
vt 0.375 0.25
vt 0.375 0.5
vt 0.375 0.5
vt 0.375 0.75
vt 0.375 0.75
vt 0.375 0
vt 0.375 0
vt 0.375 0.25
vt 0.375 0.25
vt 0.375 0.5
vt 0.375 0.5
vt 0.375 0.75
vt 0.375 0.75
vt 0.375 0
vt 0.375 0
vt 0.375 0.25
vt 0.375 0.25
vt 0.375 0.9166666
vt 0.375 1
vt 0.375 1
vt 0.375 0.9166666
vt 0.375 1
vt 0.375 0.8333333
vt 0.375 0.9166666
vt 0.375 0.8333333
vt 0.375 0.75
vt 0.375 0.8333333
vt 0.375 0.75
vt 0.375 0.75
vt 0.375 0.41666666
vt 0.375 0.5
vt 0.375 0.5
vt 0.375 0.41666666
vt 0.375 0.5
vt 0.375 0.3333333
vt 0.375 0.41666666
vt 0.375 0.3333333
vt 0.375 0.25
vt 0.375 0.3333333
vt 0.375 0.25
vt 0.375 0.25
vt 0.5051794 0.9166666
vt 0.5051794 1
vt 0.5163611 1
vt 0.5163611 0.9166666
vt 0.5051794 0.8333333
vt 0.5051794 0.9166666
vt 0.5163611 0.8333333
vt 0.5051794 0.5
vt 0.5163611 0.75
vt 0.5163611 0.5
vt 0.5051794 0.75
vt 0.50193095 0.5
vt 0.50193095 0.75
vt 0.5051794 0.41666666
vt 0.5163611 0.5
vt 0.5163611 0.41666666
vt 0.5051794 0.5
vt 0.50193095 0.41666666
vt 0.50193095 0.5
vt 0.5051794 0.41666666
vt 0.50193095 0.3333333
vt 0.5051794 0.41666666
vt 0.5051794 0.3333333
vt 0.5051794 0
vt 0.5051794 0.25
vt 0.5163611 0.25
vt 0.5163611 0
vt 0.375 0.9166666
vt 0.375 1
vt 0.375 1
vt 0.375 0.9166666
vt 0.375 0.8333333
vt 0.375 0.8333333
vt 0.375 0.75
vt 0.375 0.75
vt 0.375 0
vt 0.375 0
vt 0.375 0.25
vt 0.375 0.25
vt 0.375 0.9166666
vt 0.375 1
vt 0.375 1
vt 0.375 0.9166666
vt 0.375 0.8333333
vt 0.375 0.8333333
vt 0.375 0.75
vt 0.375 0.75
vt 0.375 0.41666666
vt 0.375 0.5
vt 0.375 0.5
vt 0.375 0.41666666
vt 0.375 0.3333333
vt 0.375 0.3333333
vt 0.375 0.25
vt 0.375 0.25
vt 0.375 0.5
vt 0.375 0.5
vt 0.375 0.75
vt 0.375 0.75
vt 0.375 0
vt 0.375 0
vt 0.375 0.25
vt 0.375 0.25
vt 0.4631741 0
vt 0.48211494 0.25
vt 0.4821149 0
vt 0.4631741 0.25
vt 0.44423327 0
vt 0.44423324 0.25
vt 0.3816547 0
vt 0.3816547 0.24999999
vt 0.375 0
vt 0.375 0.25
vt 0.4631741 0.41666666
vt 0.4631741 0.5
vt 0.48211494 0.5
vt 0.4821149 0.41666666
vt 0.4631741 0.5
vt 0.48211497 0.75
vt 0.48211494 0.5
vt 0.46317413 0.75
vt 0.44423324 0.5
vt 0.4442333 0.75
vt 0.4631741 0.9166666
vt 0.46317407 1
vt 0.4821149 1
vt 0.4821149 0.9166666
vt 0.4821149 1
vt 0.496508 1
vt 0.496508 0.9166667
vt 0.496508 1
vt 0.50193095 1
vt 0.50193095 0.9166666
vt 0.44423324 0.9166666
vt 0.46317407 1
vt 0.44423324 1
vt 0.38165474 0.9166666
vt 0.38165474 1
vt 0.375 0.8333333
vt 0.375 0.9166666
vt 0.38165474 0.8333334
vt 0.38165474 1
vt 0.375 1
vt 0.375 0.75
vt 0.375 0.8333333
vt 0.3816547 0.75
vt 0.3816547 0.75
vt 0.44423327 0.8333333
vt 0.4442333 0.75
vt 0.38165474 0.5
vt 0.4442333 0.75
vt 0.44423324 0.5
vt 0.3816547 0.75
vt 0.375 0.5
vt 0.375 0.75
vt 0.38165474 0.41666666
vt 0.38165474 0.5
vt 0.44423324 0.5
vt 0.44423324 0.41666666
vt 0.375 0.3333333
vt 0.375 0.41666666
vt 0.38165474 0.3333333
vt 0.375 0.25
vt 0.3816547 0.24999999
vt 0.375 0.5
vt 0.38165474 0.5
vt 0.38165474 0.41666666
vt 0.38165474 0.3333333
vt 0.44423324 0.3333333
vt 0.44423324 0.25
vt 0.4631741 0.3333333
vt 0.4631741 0.25
vt 0.496508 0
vt 0.496508 0.25
vt 0.50193095 0.25
vt 0.50193095 0
vt 0.496508 0.41666666
vt 0.496508 0.5
vt 0.50193095 0.5
vt 0.50193095 0.41666666
vt 0.496508 0.5
vt 0.49650803 0.75000006
vt 0.50193095 0.75
vt 0.50193095 0.5
vt 0.29166666 0.5
vt 0.375 0.75
vt 0.375 0.5
vt 0.29166666 0.75
vt 0.20833333 0.5
vt 0.20833333 0.75
vt 0.125 0.5
vt 0.125 0.75
vt 0.375 0.41666666
vt 0.375 0.5
vt 0.375 0.5
vt 0.375 0.41666666
vt 0.375 0.3333333
vt 0.375 0.3333333
vt 0.375 0.25
vt 0.375 0.25
vt 0.375 0.5
vt 0.375 0.5
vt 0.375 0.75
vt 0.375 0.75
vt 0.375 0
vt 0.375 0
vt 0.375 0.25
vt 0.375 0.25
vt 0.5163611 0.9166666
vt 0.5163611 1
vt 0.57337344 1
vt 0.57337344 0.9166666
vt 0.5163611 0.5
vt 0.5163611 0.75
vt 0.5733735 0.75
vt 0.57337344 0.5
vt 0.5163611 0.41666666
vt 0.5163611 0.5
vt 0.57337344 0.5
vt 0.57337344 0.41666666
vt 0.5163611 0
vt 0.5163611 0.25
vt 0.5733735 0.25
vt 0.57337344 0
vt 0.44423324 0.41666666
vt 0.44423324 0.5
vt 0.4631741 0.5
vt 0.4631741 0.41666666
vt 0.48211494 0.5
vt 0.48211497 0.75
vt 0.49650803 0.75000006
vt 0.496508 0.5
vt 0.4821149 0.41666666
vt 0.48211494 0.5
vt 0.496508 0.5
vt 0.496508 0.41666666
vt 0.4821149 0
vt 0.48211494 0.25
vt 0.496508 0.25
vt 0.496508 0
vt 0.50193095 0
vt 0.50193095 0.25
vt 0.5051794 0.25
vt 0.5051794 0
vt 0.50193095 0.9166666
vt 0.50193095 1
vt 0.5051794 1
vt 0.5051794 0.9166666
vt 0.50193095 0.8333333
vt 0.50193095 0.9166666
vt 0.5051794 0.9166666
vt 0.5051794 0.8333333
vt 0.50193095 0.75
vt 0.5051794 0.8333333
vt 0.5051794 0.75
vt 0.5051794 0.8333333
vt 0.5163611 0.8333333
vt 0.5163611 0.75
vt 0.50193095 0.25
vt 0.50193095 0.3333333
vt 0.5051794 0.3333333
vt 0.5051794 0.25
vt 0.48211494 0.25
vt 0.4821149 0.3333333
vt 0.49650797 0.3333333
vt 0.496508 0.25
vt 0.4631741 0.25
vt 0.4821149 0.3333333
vt 0.4631741 0.3333333
vt 0.48211497 0.75
vt 0.48211494 0.8333333
vt 0.496508 0.8333334
vt 0.49650803 0.75000006
vt 0.50193095 0.9166666
vt 0.50193095 0.9166666
vt 0.496508 0.9166667
vt 0.496508 0.9166667
vt 0.50193095 0.3333333
vt 0.50193095 0.3333333
vt 0.50193095 0.41666666
vt 0.50193095 0.41666666
vt 0.4442333 0.75
vt 0.44423327 0.8333333
vt 0.4631741 0.8333333
vt 0.46317413 0.75
vt 0.496508 0.9166667
vt 0.496508 0.9166667
vt 0.4821149 0.9166666
vt 0.4821149 0.9166666
vt 0.4631741 0.9166666
vt 0.4631741 0.9166666
vt 0.44423324 0.9166666
vt 0.44423324 0.9166666
vt 0.44476122 0.9166666
vt 0.38165474 0.9166666
vt 0.38165474 0.9166666
vt 0.5163611 0.25
vt 0.5163611 0.3333333
vt 0.57337344 0.3333333
vt 0.5733735 0.25
vt 0.5163611 0.3333333
vt 0.5163611 0.41666666
vt 0.57337344 0.41666666
vt 0.57337344 0.3333333
vt 0.5163611 0.75
vt 0.57337344 0.8333333
vt 0.5733735 0.75
vt 0.5163611 0.8333333
vt 0.5163611 0.9166666
vt 0.57337344 0.9166666
vt 0.57337344 0.8333333
vt 0.49650803 0.75000006
vt 0.496508 0.8333334
vt 0.50193095 0.8333333
vt 0.50193095 0.75
vt 0.496508 0.25
vt 0.49650797 0.3333333
vt 0.50193095 0.3333333
vt 0.50193095 0.25
vt 0.4821149 0.3333333
vt 0.49650797 0.3333333
vt 0.49650797 0.3333333
vt 0.4821149 0.3333333
vt 0.4631741 0.3333333
vt 0.4631741 0.3333333
vt 0.44423324 0.3333333
vt 0.44476613 0.3333333
vt 0.44423324 0.3333333
vt 0.38165474 0.3333333
vt 0.38165474 0.3333333
vt 0.38165474 0.3333333
vt 0.44423327 0.8333333
vt 0.44476125 0.8333333
vt 0.4631741 0.8333333
vt 0.44423327 0.8333333
vt 0.38165474 0.8333334
vt 0.38165474 0.8333334
vt 0.4631741 0.8333333
vt 0.48211494 0.8333333
vt 0.48211494 0.8333333
vt 0.496508 0.8333334
vt 0.496508 0.8333334
vt 0.46317413 0.75
vt 0.4631741 0.8333333
vt 0.48211494 0.8333333
vt 0.48211497 0.75
vt 0.496508 0.8333334
vt 0.496508 0.8333334
vt 0.50193095 0.8333333
vt 0.50193095 0.8333333
vt 0.5051794 0.25
vt 0.5051794 0.3333333
vt 0.5163611 0.3333333
vt 0.5163611 0.25
vt 0.5051794 0.3333333
vt 0.5163611 0.41666666
vt 0.5051794 0.41666666
vt 0.5733735 0.75
vt 0.625 0.8333333
vt 0.625 0.75
vt 0.57337344 0.8333333
vt 0.57337344 0.9166666
vt 0.625 0.9166666
vt 0.625 0.8333333
vt 0.5733735 0.25
vt 0.57337344 0.3333333
vt 0.625 0.3333333
vt 0.625 0.25
vt 0.57337344 0.3333333
vt 0.57337344 0.41666666
vt 0.625 0.41666666
vt 0.625 0.3333333
vt 0.48211494 0.8333333
vt 0.496508 0.9166667
vt 0.496508 0.8333334
vt 0.4821149 0.9166666
vt 0.4631741 0.8333333
vt 0.4631741 0.9166666
vt 0.44476122 0.9166666
vt 0.44476125 0.8333333
vt 0.44423324 0.9166666
vt 0.44423327 0.8333333
vt 0.38165474 0.8333334
vt 0.38165474 0.9166666
vt 0.496508 0.8333334
vt 0.496508 0.9166667
vt 0.50193095 0.9166666
vt 0.50193095 0.8333333
vt 0.38165474 0.9166666
vt 0.38165474 0.9166666
vt 0.38165474 0.8333334
vt 0.38165474 0.8333334
vt 0.50193095 0.8333333
vt 0.50193095 0.8333333
vt 0.50193095 0.9166666
vt 0.50193095 0.9166666
vt 0.4821149 0.3333333
vt 0.496508 0.41666666
vt 0.49650797 0.3333333
vt 0.4821149 0.41666666
vt 0.4631741 0.3333333
vt 0.4631741 0.41666666
vt 0.44476613 0.41666666
vt 0.44476613 0.3333333
vt 0.44423324 0.41666666
vt 0.44423324 0.3333333
vt 0.38165474 0.3333333
vt 0.38165474 0.41666666
vt 0.49650797 0.3333333
vt 0.496508 0.41666666
vt 0.50193095 0.41666666
vt 0.50193095 0.3333333
vt 0.44423324 0.41666666
vt 0.38165474 0.41666666
vt 0.38165474 0.41666666
vt 0.44423324 0.41666666
vt 0.38165474 0.41666666
vt 0.44476613 0.41666666
vt 0.4631741 0.41666666
vt 0.4631741 0.41666666
vt 0.4821149 0.41666666
vt 0.4821149 0.41666666
vt 0.496508 0.41666666
vt 0.496508 0.41666666
vt 0.49650797 0.3333333
vt 0.49650797 0.3333333
vt 0.50193095 0.3333333
vt 0.50193095 0.3333333
vt 0.50193095 0.41666666
vt 0.50193095 0.41666666
vt 0.496508 0.41666666
vt 0.496508 0.41666666
vt 0.38165474 0.41666666
vt 0.38165474 0.3333333
vt 0.38165474 0.3333333
vt 0.38165474 0.41666666
vt 0.38165474 0.3333333
vt 0.38165474 0.41666666
vn -0.73366493 0 -0.6795115
vn -0.73366493 0 -0.6795115
vn -0.73366493 0 -0.6795115
vn -0.73366493 0 -0.6795115
vn -0 0.99997437 0.007165509
vn -0 0.99997437 0.007165509
vn -0 0.99997437 0.007165509
vn -0 0.99997437 0.007165509
vn 0.36782253 0 0.92989594
vn 0.36782253 0 0.92989594
vn 0.36782253 0 0.92989594
vn 0.36782253 0 0.92989594
vn -0 -0.99997437 0.007165562
vn -0 -0.99997437 0.007165562
vn -0 -0.99997437 0.007165562
vn -0 -0.99997437 0.007165562
vn -0 -0.9171912 0.39844728
vn -0 -0.9171912 0.39844728
vn -0 -0.9171912 0.39844728
vn -0 -0.9171912 0.39844728
vn -0 -0.9171912 0.3984473
vn -0 -0.9171912 0.3984473
vn -0 -0.9171912 0.3984473
vn -0 -0.9171912 0.3984473
vn -0 0 1
vn -0 0 1
vn -0 0 1
vn -0 0 1
vn -0 0 1
vn -0 0 1
vn -0 0 1
vn -0 0 1
vn -1 0 0
vn -1 0 0
vn -1 0 0
vn -1 0 0
vn -0 0.91719115 0.3984476
vn -0 0.91719115 0.3984476
vn -0 0.91719115 0.3984476
vn -0 0.91719115 0.3984476
vn -0 0.9171912 0.39844748
vn -0 0.9171912 0.39844748
vn -0 0.9171912 0.39844748
vn -0 0.9171912 0.39844748
vn -0.27648816 0 0.9610174
vn -0.27648816 0 0.9610174
vn -0.27648816 0 0.9610174
vn -0.27648816 0 0.9610174
vn 0.27648798 0 0.9610174
vn 0.27648798 0 0.9610174
vn 0.27648798 0 0.9610174
vn 0.27648798 0 0.9610174
vn -0 -0.76731926 -0.6412653
vn -0 -0.76731926 -0.6412653
vn -0 -0.76731926 -0.6412653
vn -0 -0.76731926 -0.6412653
vn -0 -0.7673194 -0.6412651
vn -0 -0.7673194 -0.6412651
vn -0 -0.7673194 -0.6412651
vn -0 -0.7673194 -0.6412651
vn -0 -1 0
vn -0 -1 0
vn -0 -1 0
vn -0 -1 0
vn -0 -1 0
vn -0 -1 0
vn -0 -1 0
vn -0 -1 0
vn -0 1 0
vn -0 1 0
vn -0 1 0
vn -0 1 0
vn -0 1 0
vn -0 1 0
vn -0 1 0
vn -0 1 0
vn 1 0 0
vn 1 0 0
vn 1 0 0
vn 1 0 0
vn 0.9984346 0 -0.055931587
vn 0.9984346 0 -0.055931587
vn 0.9984346 0 -0.055931587
vn 0.9984346 0 -0.055931587
vn -0 0.7673193 -0.6412652
vn -0 0.7673193 -0.6412652
vn -0 0.7673193 -0.6412652
vn -0 0.7673193 -0.6412652
vn -0 0.7673194 -0.6412651
vn -0 0.7673194 -0.6412651
vn -0 0.7673194 -0.6412651
vn -0 0.7673194 -0.6412651
vn 0.12988009 0 -0.9915297
vn 0.12988009 0 -0.9915297
vn 0.12988009 0 -0.9915297
vn 0.12988009 0 -0.9915297
vn -0.12988006 0 -0.9915297
vn -0.12988006 0 -0.9915297
vn -0.12988006 0 -0.9915297
vn -0.12988006 0 -0.9915297
vn 1 0 0
vn 1 0 0
vn 1 0 0
vn 1 0 0
vn -0.9984346 0 -0.055931587
vn -0.9984346 0 -0.055931587
vn -0.9984346 0 -0.055931587
vn -0.9984346 0 -0.055931587
vn -0 -0.999624 0.02741849
vn -0 -0.999624 0.02741849
vn -0 -0.999624 0.02741849
vn -0 -0.999624 0.02741849
vn -0 -1 0
vn -0 -0.999624 0.027418485
vn -0 -1 0
vn -0 -1 0
vn -0 -0.999624 0.027418485
vn -0 -1 0
vn -0 -1 0
vn -0 -1 0
vn -0 0.999624 0.027418492
vn -0 0.999624 0.027418492
vn -0 0.999624 0.027418492
vn -0 0.999624 0.027418492
vn -0 1 0
vn -0 0.999624 0.027418483
vn -0 1 0
vn -0 1 0
vn -0 0.999624 0.027418483
vn -0 1 0
vn -0 1 0
vn -0 1 0
vn -0 -0.9999832 -0.005796299
vn -0 -0.9999832 -0.005796299
vn -0 -0.9999832 -0.005796299
vn -0 -0.9999832 -0.005796299
vn -0 -0.9999832 -0.0057962993
vn -0 -0.9999832 -0.0057962993
vn -0 -0.9999832 -0.0057962993
vn 0.8852311 0 0.46515167
vn 0.8852311 0 0.46515167
vn 0.8852311 0 0.46515167
vn 0.8852311 0 0.46515167
vn 0.8852308 0 0.465152
vn 0.8852308 0 0.465152
vn -0 0.9999832 -0.005796298
vn -0 0.9999832 -0.005796298
vn -0 0.9999832 -0.005796298
vn -0 0.9999832 -0.005796298
vn -0 0.9999832 -0.0057963026
vn -0 0.9999832 -0.0057963026
vn -0 0.9999832 -0.0057963026
vn -0 0.9999832 -0.0057963952
vn -0 0.9999832 -0.0057963952
vn -0 0.9999832 -0.0057963952
vn -0.93497336 0 0.35471785
vn -0.93497336 0 0.35471785
vn -0.93497336 0 0.35471785
vn -0.93497336 0 0.35471785
vn -0 -0.94186115 0.33600262
vn -0 -0.94186115 0.33600262
vn -0 -0.94186115 0.33600262
vn -0 -0.94186115 0.33600262
vn -0 -0.94186103 0.3360027
vn -0 -0.94186103 0.3360027
vn -0 -0.94186103 0.3360027
vn -0 -0.94186103 0.3360027
vn -1 0 0
vn -1 0 0
vn -1 0 0
vn -1 0 0
vn -0 -0.970229 -0.24218947
vn -0 -0.970229 -0.24218947
vn -0 -0.970229 -0.24218947
vn -0 -0.970229 -0.24218947
vn -0 -0.970229 -0.24218948
vn -0 -0.970229 -0.24218948
vn -0 -0.970229 -0.24218948
vn -0 -0.970229 -0.24218948
vn -0 0.94186103 0.33600265
vn -0 0.94186103 0.33600265
vn -0 0.94186103 0.33600265
vn -0 0.94186103 0.33600265
vn -0 0.94186103 0.33600262
vn -0 0.94186103 0.33600262
vn -0 0.94186103 0.33600262
vn -0 0.94186103 0.33600262
vn 0.846074 0 0.5330655
vn 0.846074 0 0.5330655
vn 0.846074 0 0.5330655
vn 0.846074 0 0.5330655
vn -0.8460722 0 0.53306824
vn -0.8460722 0 0.53306824
vn -0.8460722 0 0.53306824
vn -0.8460722 0 0.53306824
vn -0.99602 0 -0.089130126
vn -0.99602 0 -0.089130126
vn -0.99602 0 -0.089130126
vn -0.99602 0 -0.089130126
vn -0.9978288 0 -0.06586081
vn -0.9978288 0 -0.06586081
vn -0.9978288 0 -0.06586081
vn -0.9978288 0 -0.06586081
vn -0.9978288 0 -0.06586087
vn -0.9978288 0 -0.06586087
vn -0 0.9999832 -0.0057963044
vn -0 0.9999832 -0.0057963044
vn -0 0.9999832 -0.0057963044
vn -0 0.9999832 -0.0057963044
vn 0.9959849 0 -0.08952154
vn 0.9959849 0 -0.08952154
vn 0.9959849 0 -0.08952154
vn 0.9959849 0 -0.08952154
vn 0.9959849 0 -0.089521565
vn 0.9959849 0 -0.089521565
vn -0 -0.9999832 -0.0057962905
vn -0 -0.9999832 -0.0057962905
vn -0 -0.9999832 -0.0057962905
vn -0 -0.9999832 -0.0057962905
vn -0 -0.99994195 -0.010775433
vn -0 -0.99994195 -0.010775433
vn -0 -0.99999666 -0.0026033716
vn -0 -0.99999666 -0.0026033716
vn -0 -0.99999666 -0.0026033716
vn -0 -0.99999666 -0.0026033716
vn -0 -0.99999785 -0.002065188
vn -0 -0.9999832 -0.0057962937
vn -0 -0.99999785 -0.002065188
vn -0 -0.99999785 -0.002065188
vn -0 -0.99999785 -0.002065188
vn -0 -0.99999785 -0.002065215
vn -0 -0.99999785 -0.002065215
vn -0 -0.99999785 -0.0020651831
vn -0 -0.99999785 -0.0020651908
vn -0 -0.99999785 -0.0020651908
vn -0 -0.99999785 -0.002065242
vn -0 -0.99999785 -0.002065242
vn -0 -0.99999785 -0.002065242
vn -0 -0.99999785 -0.0020651831
vn -0 -0.99999785 -0.0020651831
vn -0 -0.99999785 -0.0020651831
vn 0.98851043 0 -0.15115273
vn 0.98851043 0 -0.15115273
vn 0.98851043 0 -0.15115273
vn 0.98851043 0 -0.15115273
vn 0.98851043 0 -0.15115277
vn 0.98851043 0 -0.15115277
vn -0 0.99999785 -0.0020651962
vn -0 0.99999785 -0.0020651962
vn -0 0.99999785 -0.0020651962
vn -0 0.99999785 -0.0020651962
vn -0 0.99999785 -0.002065215
vn -0 0.99999785 -0.002065215
vn -0 0.99999785 -0.002065215
vn -0 0.99999785 -0.0020652036
vn -0 0.99999785 -0.0020652004
vn -0 0.99999785 -0.0020652055
vn -0 0.99999785 -0.0020652055
vn -0 0.99999785 -0.0020652055
vn -0 0.99999785 -0.0020652004
vn -0 0.9999832 -0.0057962937
vn -0 0.9999832 -0.0057962937
vn -0 0.9999832 -0.0057962937
vn -0 0.9999832 -0.0057962937
vn -0.8888967 0 -0.4581078
vn -0.8888967 0 -0.4581078
vn -0.8888967 0 -0.4581078
vn -0.8888967 0 -0.4581078
vn -0 0.99999666 -0.0026033716
vn -0 0.99999666 -0.0026033716
vn -0 0.99999666 -0.0026033716
vn -0 0.99999666 -0.0026033716
vn 0.97876143 0 0.20500249
vn 0.97876143 0 0.20500249
vn 0.97876143 0 0.20500249
vn 0.97876143 0 0.20500249
vn -0 0 -1
vn -0 0 -1
vn -0 0 -1
vn -0 0 -1
vn -0 0 -1
vn -0 0 -1
vn -0 0 -1
vn -0 0 -1
vn -0 0.970229 -0.2421895
vn -0 0.970229 -0.2421895
vn -0 0.970229 -0.2421895
vn -0 0.970229 -0.2421895
vn -0 0.970229 -0.24218939
vn -0 0.970229 -0.24218939
vn -0 0.970229 -0.24218939
vn -0 0.970229 -0.24218939
vn 0.9150253 0 -0.40339643
vn 0.9150253 0 -0.40339643
vn 0.9150253 0 -0.40339643
vn 0.9150253 0 -0.40339643
vn -0.9150253 0 -0.40339634
vn -0.9150253 0 -0.40339634
vn -0.9150253 0 -0.40339634
vn -0.9150253 0 -0.40339634
vn -0 -0.99999416 0.0034123752
vn -0 -0.99999416 0.0034123752
vn -0 -0.99999416 0.0034123752
vn -0 -0.99999416 0.0034123752
vn 0.83045125 0 0.55709136
vn 0.83045125 0 0.55709136
vn 0.83045125 0 0.55709136
vn 0.83045125 0 0.55709136
vn -0 0.99999416 0.003412339
vn -0 0.99999416 0.003412339
vn -0 0.99999416 0.003412339
vn -0 0.99999416 0.003412339
vn -0.9410441 0 -0.33828416
vn -0.9410441 0 -0.33828416
vn -0.9410441 0 -0.33828416
vn -0.9410441 0 -0.33828416
vn -0 0.9999832 -0.005796297
vn -0 0.9999832 -0.005796297
vn -0 0.9999832 -0.005796297
vn -0 0.9999832 -0.005796297
vn 0.99859565 0 0.052977435
vn 0.99859565 0 0.052977435
vn 0.99859565 0 0.052977435
vn 0.99859565 0 0.052977435
vn -0 0.99994195 -0.0107755205
vn -0 0.99994195 -0.0107755205
vn -0 0.99994195 -0.0107755205
vn -0 0.99994195 -0.0107755205
vn -0.98799115 0 -0.1545108
vn -0.98799115 0 -0.1545108
vn -0.98799115 0 -0.1545108
vn -0.98799115 0 -0.1545108
vn -0.8989355 0 0.438081
vn -0.8989355 0 0.438081
vn -0.8989355 0 0.438081
vn -0.8989355 0 0.438081
vn -0 -0.9999832 -0.0057963766
vn -0 -0.9999832 -0.0057963766
vn -0 -0.9999832 -0.0057963766
vn -0 -0.9999832 -0.0057963766
vn -0 -0.9999832 -0.005796312
vn -0 -0.9999832 -0.0057963543
vn -0 -0.9999832 -0.0057963543
vn -0 -0.9999832 -0.0057963543
vn -0 -0.9999832 -0.005796312
vn -0 -0.9999832 -0.005796312
vn -0 -0.9999832 -0.005796312
vn -0 -0.9999832 -0.0057963086
vn -0 -0.9999832 -0.0057963086
vn -0 -0.9999832 -0.0057963086
vn -0 0.9999832 -0.005796387
vn -0 0.9999832 -0.005796387
vn -0 0.9999832 -0.005796387
vn -0 0.9999832 -0.005796387
vn -0 0.99994195 -0.01077547
vn -0 0.99994195 -0.01077547
vn -0 0.99994195 -0.01077547
vn -0 0.99994195 -0.01077547
vn -0 0.9999832 -0.005796308
vn -0 0.9999832 -0.005796308
vn -0 0.9999832 -0.005796308
vn -0 -0.99994195 -0.010775469
vn -0 -0.99994195 -0.010775469
vn -0 -0.99994195 -0.010775469
vn -0 -0.99994195 -0.010775469
vn 0.9884271 0.00082006666 -0.15169376
vn 0.9884271 0.00082006666 -0.15169376
vn 0.9884271 0.00082006666 -0.15169376
vn 0.9884271 0.00082006666 -0.15169376
vn -0 -0.005405594 -0.99998546
vn -0 -0.005405594 -0.99998546
vn -0 -0.005405594 -0.99998546
vn -0 -0.005405594 -0.99998546
vn -0 -0.9999832 -0.005796287
vn -0 -0.9999832 -0.005796287
vn -0 -0.9999832 -0.005796287
vn -0 -0.9999832 -0.005796287
vn 0.9991285 0.00022565966 -0.04174076
vn 0.9991285 0.00022565966 -0.04174076
vn 0.9991285 0.00022565966 -0.04174076
vn 0.9991285 0.00022565966 -0.04174076
vn 1 0 0
vn 1 0 0
vn 1 0 0
vn 1 0 0
vn 1 0 0
vn 1 0 0
vn 1 0 0
vn -0 0.99999416 0.0034123568
vn -0 0.99999416 0.0034123568
vn -0 0.99999416 0.0034123568
vn -0 0.99999416 0.0034123568
vn -0 0.99999416 0.0034123203
vn -0 0.99999416 0.0034123203
vn -0 0.99999416 0.0034123203
vn -0 0.99999416 0.0034123203
vn -0 -0.99999416 0.003412375
vn -0 -0.99999416 0.003412375
vn -0 -0.99999416 0.003412375
vn -0 -0.99999416 0.003412375
vn -0 -0.99999416 0.0034123568
vn -0 -0.99999416 0.0034123568
vn -0 -0.99999416 0.0034123568
vn -0 -0.99999666 -0.0026033628
vn -0 -0.99999666 -0.0026033628
vn -0 -0.99999666 -0.0026033628
vn -0 -0.99999666 -0.0026033628
vn -0 0.99999666 -0.0026033614
vn -0 0.99999666 -0.0026033614
vn -0 0.99999666 -0.0026033614
vn -0 0.99999666 -0.0026033614
vn 0.9991285 -0.00022564453 -0.04174069
vn 0.9991285 -0.00022564453 -0.04174069
vn 0.9991285 -0.00022564453 -0.04174069
vn 0.9991285 -0.00022564453 -0.04174069
vn 1 0 0
vn 1 0 0
vn 1 0 0
vn 1 0 0
vn 1 0 0
vn 1 0 0
vn 1 0 0
vn 1 0 0
vn -1 0 0
vn -1 0 0
vn -1 0 0
vn -1 0 0
vn -1 0 0
vn -1 0 0
vn -1 0 0
vn -0.9994289 0.00018273633 -0.033789724
vn -0.9994289 0.00018273633 -0.033789724
vn -0.9991285 0.00022560026 -0.041740857
vn -0.9991285 0.00022560026 -0.041740857
vn -0 -0.9999832 -0.0057962905
vn -0 -0.9999832 -0.0057962905
vn -0 -0.9999832 -0.0057962905
vn -0 -0.9999832 -0.0057962905
vn -0.9884271 0.00082008546 -0.15169427
vn -0.9884271 0.00082008546 -0.15169427
vn -0.9884271 0.00082008546 -0.15169427
vn -0.9884271 0.00082008546 -0.15169427
vn -0 0.9999832 -0.005796301
vn -0 0.9999832 -0.005796301
vn -0 0.9999832 -0.005796301
vn -0 0.9999832 -0.005796301
vn -0 0.9999832 -0.0057962746
vn -0 0.9999832 -0.0057962746
vn -0 0.9999832 -0.0057962746
vn -0 -0.99997437 0.007165399
vn -0 -0.99997437 0.007165399
vn -0 -0.99997437 0.007165399
vn -0 -0.99997437 0.007165399
vn -0 -0.99997437 0.007165402
vn -0 -0.99997437 0.007165402
vn -0 -0.99997437 0.007165402
vn -0 0.99997437 0.007165509
vn -0 0.99997437 0.007165509
vn -0 0.99997437 0.007165509
vn -0 0.99997437 0.007165509
vn -0 0.99997437 0.007165399
vn -0 0.99997437 0.007165399
vn -0 0.99997437 0.007165399
vn -0 0.99997437 0.007165399
vn -0 -0.99994195 -0.010775471
vn -0 -0.99994195 -0.010775471
vn -0 -0.99994195 -0.010775471
vn -0 -0.99994195 -0.010775471
vn -0 -0.9999851 -0.0054702386
vn -0 -0.9999851 -0.0054702386
vn -0 -0.9999851 -0.0054702386
vn -0 -0.9999851 -0.0054702386
vn -0 -0.9999851 -0.0054702386
vn -0 -0.9999851 -0.0054702386
vn -0 -0.9999976 -0.002204482
vn -0 -0.9999976 -0.002204482
vn -0 -0.99999666 -0.0026033672
vn -0 -0.99999666 -0.0026033672
vn -0 -0.99999666 -0.0026033672
vn -0 -0.99999666 -0.0026033672
vn -0 -0.004124888 0.99999154
vn -0 -0.004124888 0.99999154
vn -0 -0.004124888 0.99999154
vn -0 -0.004124888 0.99999154
vn -0 0.005406039 -0.99998546
vn -0 0.005406039 -0.99998546
vn -0 0.005406039 -0.99998546
vn -0 0.005406039 -0.99998546
vn -0 0.99994195 -0.010775502
vn -0 0.99994195 -0.010775502
vn -0 0.99994195 -0.010775502
vn -0 0.99994195 -0.010775502
vn -0 0.9999832 -0.0057963044
vn -0 0.9999832 -0.0057963044
vn -0 0.9999832 -0.0057963044
vn -0 0.9999832 -0.0057963044
vn -0 0.9999832 -0.0057963044
vn -0 0.9999832 -0.0057963044
vn -0 0.99999785 -0.002065195
vn -0 0.99999785 -0.002065195
vn -0 0.99999666 -0.0026033798
vn -0 0.99999666 -0.0026033798
vn -0 0.99999666 -0.0026033798
vn -0 0.99999666 -0.0026033798
vn -1 0 0
vn -1 0 0
vn -1 0 0
vn -1 0 0
vn -1 0 0
vn -1 0 0
vn -0.9994289 -0.0001826946 -0.033789728
vn -0.9994289 -0.0001826946 -0.033789728
vn -0.9994289 -0.0001826946 -0.033789728
vn -0.9994289 -0.0001826946 -0.033789728
vn -0.9991285 -0.00022572729 -0.041740786
vn -0.9991285 -0.00022572729 -0.041740786
vn 0.9866724 -0.0008796113 -0.16271675
vn 0.9866724 -0.0008796113 -0.16271675
vn 0.9866724 -0.0008796113 -0.16271675
vn 0.9866724 -0.0008796113 -0.16271675
vn -0.9866723 -0.0008795326 -0.1627173
vn -0.9866723 -0.0008795326 -0.1627173
vn -0.9866723 -0.0008795326 -0.1627173
vn -0.9866723 -0.0008795326 -0.1627173
vn -0 0.008206796 0.9999664
vn -0 0.008206796 0.9999664
vn -0 0.008206796 0.9999664
vn -0 0.008206796 0.9999664
vn -0 -0.025866738 0.9996654
vn -0 -0.025866738 0.9996654
g Falchion_0
f 3/3/3 2/2/2 1/1/1
f 4/4/4 3/3/3 1/1/1
f 7/7/7 6/6/6 5/5/5
f 8/8/8 7/7/7 5/5/5
f 11/11/11 10/10/10 9/9/9
f 12/12/12 11/11/11 9/9/9
f 15/15/15 14/14/14 13/13/13
f 16/16/16 15/15/15 13/13/13
f 19/19/19 18/18/18 17/17/17
f 18/18/18 20/20/20 17/17/17
f 17/17/17 20/20/20 21/21/21
f 20/20/20 22/22/22 21/21/21
f 21/21/21 22/22/22 23/23/23
f 22/22/22 24/24/24 23/23/23
f 27/27/27 26/26/26 25/25/25
f 26/26/26 28/28/28 25/25/25
f 25/25/25 28/28/28 29/29/29
f 28/28/28 30/30/30 29/29/29
f 29/29/29 30/30/30 31/31/31
f 30/30/30 32/32/32 31/31/31
f 35/35/35 34/34/34 33/33/33
f 36/36/36 35/35/35 33/33/33
f 39/39/39 38/38/38 37/37/37
f 38/38/38 40/40/40 37/37/37
f 37/37/37 40/40/40 41/41/41
f 40/40/40 42/42/42 41/41/41
f 41/41/41 42/42/42 43/43/43
f 42/42/42 44/44/44 43/43/43
f 47/47/47 46/46/46 45/45/45
f 48/48/48 47/47/47 45/45/45
f 51/51/51 50/50/50 49/49/49
f 52/52/52 51/51/51 49/49/49
f 55/55/55 54/54/54 53/53/53
f 54/54/54 56/56/56 53/53/53
f 53/53/53 56/56/56 57/57/57
f 56/56/56 58/58/58 57/57/57
f 57/57/57 58/58/58 59/59/59
f 58/58/58 60/60/60 59/59/59
f 63/63/63 62/62/62 61/61/61
f 62/62/62 64/64/64 61/61/61
f 61/61/61 64/64/64 65/65/65
f 64/64/64 66/66/66 65/65/65
f 65/65/65 66/66/66 67/67/67
f 66/66/66 68/68/68 67/67/67
f 71/71/71 70/70/70 69/69/69
f 70/70/70 72/72/72 69/69/69
f 69/69/69 72/72/72 73/73/73
f 72/72/72 74/74/74 73/73/73
f 73/73/73 74/74/74 75/75/75
f 74/74/74 76/76/76 75/75/75
f 79/79/79 78/78/78 77/77/77
f 80/80/80 79/79/79 77/77/77
f 83/83/83 82/82/82 81/81/81
f 84/84/84 83/83/83 81/81/81
f 87/87/87 86/86/86 85/85/85
f 86/86/86 88/88/88 85/85/85
f 85/85/85 88/88/88 89/89/89
f 88/88/88 90/90/90 89/89/89
f 89/89/89 90/90/90 91/91/91
f 90/90/90 92/92/92 91/91/91
f 95/95/95 94/94/94 93/93/93
f 96/96/96 95/95/95 93/93/93
f 99/99/99 98/98/98 97/97/97
f 100/100/100 99/99/99 97/97/97
f 103/103/103 102/102/102 101/101/101
f 104/104/104 103/103/103 101/101/101
f 107/107/107 106/106/106 105/105/105
f 108/108/108 107/107/107 105/105/105
f 111/111/111 110/110/110 109/109/109
f 110/110/110 112/112/112 109/109/109
f 110/110/110 113/113/113 112/112/112
f 109/109/109 112/112/112 114/114/114
f 113/113/113 115/115/115 112/112/112
f 112/112/112 116/116/116 114/114/114
f 112/112/112 115/115/115 116/116/116
f 114/114/114 116/116/116 117/117/117
f 115/115/115 118/118/118 116/116/116
f 116/116/116 119/119/119 117/117/117
f 116/116/116 118/118/118 119/119/119
f 118/118/118 120/120/120 119/119/119
f 123/123/123 122/122/122 121/121/121
f 122/122/122 124/124/124 121/121/121
f 122/122/122 125/125/125 124/124/124
f 121/121/121 124/124/124 126/126/126
f 125/125/125 127/127/127 124/124/124
f 124/124/124 128/128/128 126/126/126
f 124/124/124 127/127/127 128/128/128
f 126/126/126 128/128/128 129/129/129
f 127/127/127 130/130/130 128/128/128
f 128/128/128 131/131/131 129/129/129
f 128/128/128 130/130/130 131/131/131
f 130/130/130 132/132/132 131/131/131
f 135/135/135 134/134/134 133/133/133
f 136/136/136 135/135/135 133/133/133
f 136/136/136 138/138/138 137/137/137
f 139/139/139 136/136/136 137/137/137
f 142/142/142 141/141/141 140/140/140
f 141/141/141 143/143/143 140/140/140
f 140/140/140 143/143/143 144/144/144
f 143/143/143 145/145/145 144/144/144
f 148/148/148 147/147/147 146/146/146
f 147/147/147 149/149/149 146/146/146
f 149/149/149 151/151/151 150/150/150
f 152/152/152 149/149/149 150/150/150
f 154/154/154 150/150/150 153/153/153
f 155/155/155 154/154/154 153/153/153
f 158/158/158 157/157/157 156/156/156
f 159/159/159 158/158/158 156/156/156
f 162/162/162 161/161/161 160/160/160
f 161/161/161 163/163/163 160/160/160
f 160/160/160 163/163/163 164/164/164
f 163/163/163 165/165/165 164/164/164
f 164/164/164 165/165/165 166/166/166
f 165/165/165 167/167/167 166/166/166
f 170/170/170 169/169/169 168/168/168
f 171/171/171 170/170/170 168/168/168
f 174/174/174 173/173/173 172/172/172
f 173/173/173 175/175/175 172/172/172
f 172/172/172 175/175/175 176/176/176
f 175/175/175 177/177/177 176/176/176
f 176/176/176 177/177/177 178/178/178
f 177/177/177 179/179/179 178/178/178
f 182/182/182 181/181/181 180/180/180
f 181/181/181 183/183/183 180/180/180
f 180/180/180 183/183/183 184/184/184
f 183/183/183 185/185/185 184/184/184
f 184/184/184 185/185/185 186/186/186
f 185/185/185 187/187/187 186/186/186
f 190/190/190 189/189/189 188/188/188
f 191/191/191 190/190/190 188/188/188
f 194/194/194 193/193/193 192/192/192
f 195/195/195 194/194/194 192/192/192
f 198/198/198 197/197/197 196/196/196
f 197/197/197 199/199/199 196/196/196
f 196/196/196 199/199/199 200/200/200
f 199/199/199 201/201/201 200/200/200
f 200/200/200 201/201/201 202/202/202
f 201/201/201 203/203/203 202/202/202
f 202/202/202 203/203/203 204/204/204
f 203/203/203 205/205/205 204/204/204
f 208/208/208 207/207/207 206/206/206
f 209/209/209 208/208/208 206/206/206
f 212/212/212 211/211/211 210/210/210
f 211/211/211 213/213/213 210/210/210
f 210/210/210 213/213/213 214/214/214
f 213/213/213 215/215/215 214/214/214
f 218/218/218 217/217/217 216/216/216
f 219/219/219 218/218/218 216/216/216
f 221/221/221 220/220/220 219/219/219
f 222/222/222 221/221/221 219/219/219
f 224/224/224 223/223/223 222/222/222
f 225/225/225 224/224/224 222/222/222
f 216/216/216 227/227/227 226/226/226
f 227/227/227 228/228/228 226/226/226
f 226/226/226 228/228/228 229/229/229
f 228/228/228 230/230/230 229/229/229
f 229/229/229 232/232/232 231/231/231
f 233/233/233 229/229/229 231/231/231
f 229/229/229 234/234/234 232/232/232
f 234/234/234 235/235/235 232/232/232
f 233/233/233 237/237/237 236/236/236
f 238/238/238 233/233/233 236/236/236
f 240/240/240 233/233/233 239/239/239
f 241/241/241 240/240/240 239/239/239
f 244/244/244 243/243/243 242/242/242
f 243/243/243 245/245/245 242/242/242
f 242/242/242 245/245/245 246/246/246
f 245/245/245 247/247/247 246/246/246
f 250/250/250 249/249/249 248/248/248
f 251/251/251 250/250/250 248/248/248
f 248/248/248 253/253/253 252/252/252
f 254/254/254 248/248/248 252/252/252
f 254/254/254 252/252/252 255/255/255
f 256/256/256 254/254/254 255/255/255
f 258/258/258 257/257/257 253/253/253
f 259/259/259 258/258/258 253/253/253
f 261/261/261 260/260/260 256/256/256
f 262/262/262 261/261/261 256/256/256
f 263/263/263 261/261/261 262/262/262
f 264/264/264 263/263/263 262/262/262
f 267/267/267 266/266/266 265/265/265
f 268/268/268 267/267/267 265/265/265
f 271/271/271 270/270/270 269/269/269
f 272/272/272 271/271/271 269/269/269
f 275/275/275 274/274/274 273/273/273
f 276/276/276 275/275/275 273/273/273
f 279/279/279 278/278/278 277/277/277
f 278/278/278 280/280/280 277/277/277
f 277/277/277 280/280/280 281/281/281
f 280/280/280 282/282/282 281/281/281
f 281/281/281 282/282/282 283/283/283
f 282/282/282 284/284/284 283/283/283
f 287/287/287 286/286/286 285/285/285
f 286/286/286 288/288/288 285/285/285
f 285/285/285 288/288/288 289/289/289
f 288/288/288 290/290/290 289/289/289
f 289/289/289 290/290/290 291/291/291
f 290/290/290 292/292/292 291/291/291
f 295/295/295 294/294/294 293/293/293
f 296/296/296 295/295/295 293/293/293
f 299/299/299 298/298/298 297/297/297
f 300/300/300 299/299/299 297/297/297
f 303/303/303 302/302/302 301/301/301
f 304/304/304 303/303/303 301/301/301
f 307/307/307 306/306/306 305/305/305
f 308/308/308 307/307/307 305/305/305
f 311/311/311 310/310/310 309/309/309
f 312/312/312 311/311/311 309/309/309
f 315/315/315 314/314/314 313/313/313
f 316/316/316 315/315/315 313/313/313
f 319/319/319 318/318/318 317/317/317
f 320/320/320 319/319/319 317/317/317
f 323/323/323 322/322/322 321/321/321
f 324/324/324 323/323/323 321/321/321
f 327/327/327 326/326/326 325/325/325
f 328/328/328 327/327/327 325/325/325
f 331/331/331 330/330/330 329/329/329
f 332/332/332 331/331/331 329/329/329
f 335/335/335 334/334/334 333/333/333
f 336/336/336 335/335/335 333/333/333
f 339/339/339 338/338/338 337/337/337
f 340/340/340 339/339/339 337/337/337
f 343/343/343 342/342/342 341/341/341
f 344/344/344 343/343/343 341/341/341
f 346/346/346 341/341/341 345/345/345
f 347/347/347 346/346/346 345/345/345
f 349/349/349 348/348/348 347/347/347
f 350/350/350 349/349/349 347/347/347
f 353/353/353 352/352/352 351/351/351
f 354/354/354 353/353/353 351/351/351
f 357/357/357 356/356/356 355/355/355
f 358/358/358 357/357/357 355/355/355
f 355/355/355 360/360/360 359/359/359
f 360/360/360 361/361/361 359/359/359
f 364/364/364 363/363/363 362/362/362
f 365/365/365 364/364/364 362/362/362
f 368/368/368 367/367/367 366/366/366
f 369/369/369 368/368/368 366/366/366
f 372/372/372 371/371/371 370/370/370
f 373/373/373 372/372/372 370/370/370
f 376/376/376 375/375/375 374/374/374
f 377/377/377 376/376/376 374/374/374
f 380/380/380 379/379/379 378/378/378
f 381/381/381 380/380/380 378/378/378
f 382/382/382 380/380/380 381/381/381
f 383/383/383 382/382/382 381/381/381
f 382/382/382 383/383/383 384/384/384
f 384/384/384 385/385/385 382/382/382
f 385/385/385 386/386/386 382/382/382
f 387/387/387 385/385/385 384/384/384
f 388/388/388 387/387/387 384/384/384
f 391/391/391 390/390/390 389/389/389
f 392/392/392 391/391/391 389/389/389
f 395/395/395 394/394/394 393/393/393
f 396/396/396 395/395/395 393/393/393
f 399/399/399 398/398/398 397/397/397
f 398/398/398 400/400/400 397/397/397
f 402/402/402 401/401/401 400/400/400
f 403/403/403 402/402/402 400/400/400
f 406/406/406 405/405/405 404/404/404
f 407/407/407 406/406/406 404/404/404
f 410/410/410 409/409/409 408/408/408
f 411/411/411 410/410/410 408/408/408
f 414/414/414 413/413/413 412/412/412
f 413/413/413 415/415/415 412/412/412
f 412/412/412 415/415/415 416/416/416
f 415/415/415 417/417/417 416/416/416
f 418/418/418 416/416/416 417/417/417
f 418/418/418 417/417/417 419/419/419
f 419/419/419 420/420/420 418/418/418
f 418/418/418 420/420/420 421/421/421
f 420/420/420 422/422/422 421/421/421
f 420/420/420 423/423/423 422/422/422
f 426/426/426 425/425/425 424/424/424
f 426/426/426 424/424/424 427/427/427
f 427/427/427 424/424/424 428/428/428
f 424/424/424 429/429/429 428/428/428
f 427/427/427 430/430/430 426/426/426
f 431/431/431 426/426/426 430/430/430
f 432/432/432 431/431/431 430/430/430
f 433/433/433 431/431/431 432/432/432
f 434/434/434 433/433/433 432/432/432
f 437/437/437 436/436/436 435/435/435
f 438/438/438 437/437/437 435/435/435
f 441/441/441 440/440/440 439/439/439
f 442/442/442 441/441/441 439/439/439
f 445/445/445 444/444/444 443/443/443
f 446/446/446 445/445/445 443/443/443
f 445/445/445 448/448/448 447/447/447
f 448/448/448 449/449/449 447/447/447
f 452/452/452 451/451/451 450/450/450
f 451/451/451 453/453/453 450/450/450
f 455/455/455 454/454/454 453/453/453
f 456/456/456 455/455/455 453/453/453
f 459/459/459 458/458/458 457/457/457
f 460/460/460 459/459/459 457/457/457
f 463/463/463 462/462/462 461/461/461
f 464/464/464 463/463/463 461/461/461
f 467/467/467 466/466/466 465/465/465
f 466/466/466 468/468/468 465/465/465
f 465/465/465 468/468/468 469/469/469
f 468/468/468 470/470/470 469/469/469
f 469/469/469 470/470/470 471/471/471
f 472/472/472 469/469/469 471/471/471
f 472/472/472 471/471/471 473/473/473
f 473/473/473 474/474/474 472/472/472
f 474/474/474 473/473/473 475/475/475
f 473/473/473 476/476/476 475/475/475
f 479/479/479 478/478/478 477/477/477
f 480/480/480 479/479/479 477/477/477
f 483/483/483 482/482/482 481/481/481
f 484/484/484 483/483/483 481/481/481
f 487/487/487 486/486/486 485/485/485
f 488/488/488 487/487/487 485/485/485
f 491/491/491 490/490/490 489/489/489
f 490/490/490 492/492/492 489/489/489
f 489/489/489 492/492/492 493/493/493
f 492/492/492 494/494/494 493/493/493
f 493/493/493 494/494/494 495/495/495
f 496/496/496 493/493/493 495/495/495
f 496/496/496 495/495/495 497/497/497
f 497/497/497 498/498/498 496/496/496
f 498/498/498 497/497/497 499/499/499
f 497/497/497 500/500/500 499/499/499
f 503/503/503 502/502/502 501/501/501
f 504/504/504 503/503/503 501/501/501
f 507/507/507 506/506/506 505/505/505
f 506/506/506 508/508/508 505/505/505
f 506/506/506 509/509/509 508/508/508
f 505/505/505 508/508/508 510/510/510
f 510/510/510 511/511/511 505/505/505
f 511/511/511 512/512/512 505/505/505
f 512/512/512 511/511/511 513/513/513
f 511/511/511 514/514/514 513/513/513
f 513/513/513 514/514/514 515/515/515
f 514/514/514 516/516/516 515/515/515
f 519/519/519 518/518/518 517/517/517
f 520/520/520 519/519/519 517/517/517
f 523/523/523 522/522/522 521/521/521
f 524/524/524 523/523/523 521/521/521
f 527/527/527 526/526/526 525/525/525
f 526/526/526 528/528/528 525/525/525
f 526/526/526 529/529/529 528/528/528
f 529/529/529 530/530/530 528/528/528
