g Firewing Head
v 0.22268872 0.16487476 0.097865574
v 0.14146654 0.079625785 0.040283613
v 0.08730477 0.08159731 0.10168932
v 0.16657734 0.06636116 -0.07417743
v 0.13678122 0.17809151 0.20181325
v -0.0006173212 0.18117064 0.48391938
v -0.0006183239 0.0801525 0.2855528
v -0.13801588 0.17809151 0.20181325
v -0.117195696 0.33637515 0.08837731
v -0.088541426 0.08159731 0.10168932
v -0.14270319 0.079625785 0.040283613
v -0.22392336 0.16487476 0.097865574
v -0.00061725156 0.34688708 0.2902626
v -0.2666791 0.13333824 -0.08833259
v -0.16781399 0.06636116 -0.07417743
v -0.17872855 0.045313977 -0.20962346
v -0.28399923 0.099587254 -0.30968025
v -0.16633336 0.029755045 -0.28872186
v -0.23344193 0.2674042 -0.1804732
v -0.19196269 0.31015876 -0.011642682
v -0.26415664 0.077919796 -0.44646367
v -0.24852799 0.23749419 -0.38261402
v -0.17295107 0.40330726 -0.30399147
v -0.1345195 0.47134385 -0.2640178
v -0.15949461 0.055756386 -0.5181544
v -0.102418385 0.014827937 -0.32636037
v -0.0006173212 0.043139447 -0.84170014
v -0.0006183239 0.0060207117 -0.49833566
v 0.15825996 0.055756386 -0.5181544
v 0.10118174 0.014827937 -0.32636037
v 0.262922 0.077919796 -0.44646367
v 0.16509672 0.029755045 -0.28872186
v 0.1774919 0.045313977 -0.20962346
v 0.28276458 0.099587254 -0.30968025
v 0.22975834 0.22302745 -0.5181718
v 0.1338789 0.20594443 -0.59805226
v -0.00061725156 0.19693598 -0.9834252
v -0.1351134 0.20594443 -0.59805226
v 0.26544446 0.13333824 -0.08833259
v 0.082922265 0.41364205 -0.5875831
v 0.24729349 0.23749419 -0.38261402
v 0.19072819 0.31015876 -0.011642682
v -0.23099284 0.22302745 -0.5181718
v -0.16158877 0.42670134 -0.42049977
v -0.00061725156 0.40854397 -0.9528479
v 0.15151973 0.4220418 -0.5243791
v 0.23220743 0.2674042 -0.1804732
v -0.15275423 0.4220418 -0.5243791
v -0.10369602 0.51726234 -0.4158506
v -0.08415677 0.41364205 -0.5875831
v -0.10731529 0.5068419 -0.50091577
v -0.08335566 0.5092093 -0.19401433
v -0.05920071 0.5595667 -0.40860662
v -0.05946814 0.53529894 -0.531405
v -0.00061725156 0.53990394 -0.85973716
v -0.00061725156 0.5793482 -0.62451553
v -0.00061725156 0.5228847 -0.21686032
v 0.058233634 0.53529894 -0.531405
v 0.05796621 0.5595667 -0.40860662
v 0.082121156 0.5092093 -0.19401433
v 0.115961194 0.33637515 0.08837731
v 0.133285 0.47134385 -0.2640178
v 0.10246152 0.51726234 -0.4158506
v 0.106080785 0.5068419 -0.50091577
v 0.16035427 0.42670134 -0.42049977
v 0.17171656 0.40330726 -0.30399147
vn 0.8642546 -0.18136162 0.46922475
vn 0.54051125 -0.7644633 0.35134503
vn 0.55018985 -0.7216272 0.42017293
vn 0.5821239 -0.78490764 0.21225369
vn 0.8514767 -0.13993716 0.5053761
vn -0 -0.10607517 0.9943581
vn -0 -0.8966817 0.44267592
vn -0.8514777 -0.13993207 0.505376
vn -0.6455822 0.6504745 0.4001332
vn -0.5501942 -0.7216219 0.4201765
vn -0.54051787 -0.764458 0.35134646
vn -0.86425537 -0.18135777 0.46922496
vn -0 0.7994683 0.60070825
vn -0.93737656 -0.29098827 0.1914448
vn -0.5821317 -0.78490186 0.21225406
vn -0.5549398 -0.82062423 0.13644637
vn -0.93106604 -0.36324722 0.03416659
vn -0.42636305 -0.9045186 -0.0077872626
vn -0.9278464 0.36614862 0.070966154
vn -0.8268765 0.49636725 0.26437598
vn -0.80090207 -0.50720954 -0.3182678
vn -0.95217216 0.29692852 -0.0721226
vn -0.8867557 0.461307 0.029330423
vn -0.78496987 0.6097883 0.10945519
vn -0.5564431 -0.73868346 -0.38041806
vn -0.28473943 -0.9518278 -0.11378574
vn -0 -0.71664 -0.6974433
vn -0 -0.99356824 -0.11323494
vn 0.55644196 -0.7386849 -0.38041693
vn 0.28473753 -0.95182866 -0.11378355
vn 0.80090153 -0.507211 -0.3182667
vn 0.42635813 -0.904521 -0.007785695
vn 0.5549325 -0.8206292 0.13644686
vn 0.9310646 -0.3632511 0.034167577
vn 0.84691656 0.10333847 -0.5215873
vn 0.8369355 -0.031188173 -0.54641217
vn -0 0.034481645 -0.99940526
vn -0.8369355 -0.031187806 -0.54641217
vn 0.93737495 -0.29099306 0.19144535
vn 0.8447195 0.25752836 -0.46917814
vn 0.9521722 0.296928 -0.072122544
vn 0.8268768 0.49636692 0.26437613
vn -0.84691656 0.10333884 -0.5215874
vn -0.88628435 0.46010745 -0.052924983
vn -0 0.5555234 -0.83150095
vn 0.7960589 0.40262684 -0.45186487
vn 0.92784655 0.36614826 0.07096619
vn -0.79605895 0.40262684 -0.4518649
vn -0.7498929 0.66115046 -0.023252347
vn -0.8447195 0.25752833 -0.46917814
vn -0.7285026 0.6096504 -0.3124268
vn -0.48838693 0.8307608 0.26704812
vn -0.3436233 0.93597525 0.076637454
vn -0.75841385 0.6026893 -0.24814114
vn -0 0.8087188 -0.58819544
vn -0 0.99103314 -0.1336165
vn -0 0.96676594 0.25566325
vn 0.7584138 0.6026893 -0.24814118
vn 0.3436233 0.93597525 0.0766374
vn 0.48838693 0.8307607 0.26704812
vn 0.64558226 0.65047425 0.4001333
vn 0.7849699 0.60978836 0.10945511
vn 0.7498929 0.6611506 -0.023252416
vn 0.7285025 0.60965043 -0.3124268
vn 0.88628435 0.46010745 -0.052924987
vn 0.8867557 0.46130702 0.029330367
g Firewing Head_0
f 3/3/3 2/2/2 1/1/1
f 1/1/1 2/2/2 4/4/4
f 5/5/5 3/3/3 1/1/1
f 3/3/3 5/5/5 6/6/6
f 7/7/7 3/3/3 6/6/6
f 7/7/7 6/6/6 8/8/8
f 8/8/8 6/6/6 9/9/9
f 10/10/10 7/7/7 8/8/8
f 10/10/10 8/8/8 11/11/11
f 8/8/8 12/12/12 11/11/11
f 8/8/8 9/9/9 12/12/12
f 6/6/6 5/5/5 13/13/13
f 6/6/6 13/13/13 9/9/9
f 12/12/12 14/14/14 11/11/11
f 14/14/14 15/15/15 11/11/11
f 15/15/15 14/14/14 16/16/16
f 14/14/14 17/17/17 16/16/16
f 16/16/16 17/17/17 18/18/18
f 19/19/19 14/14/14 12/12/12
f 14/14/14 19/19/19 17/17/17
f 9/9/9 20/20/20 12/12/12
f 20/20/20 19/19/19 12/12/12
f 17/17/17 21/21/21 18/18/18
f 19/19/19 22/22/22 17/17/17
f 17/17/17 22/22/22 21/21/21
f 19/19/19 20/20/20 23/23/23
f 22/22/22 19/19/19 23/23/23
f 24/24/24 20/20/20 9/9/9
f 20/20/20 24/24/24 23/23/23
f 21/21/21 25/25/25 18/18/18
f 25/25/25 26/26/26 18/18/18
f 25/25/25 27/27/27 26/26/26
f 27/27/27 28/28/28 26/26/26
f 27/27/27 29/29/29 28/28/28
f 29/29/29 30/30/30 28/28/28
f 29/29/29 31/31/31 30/30/30
f 31/31/31 32/32/32 30/30/30
f 33/33/33 32/32/32 31/31/31
f 34/34/34 33/33/33 31/31/31
f 4/4/4 33/33/33 34/34/34
f 35/35/35 31/31/31 29/29/29
f 34/34/34 31/31/31 35/35/35
f 36/36/36 29/29/29 27/27/27
f 36/36/36 35/35/35 29/29/29
f 37/37/37 27/27/27 25/25/25
f 37/37/37 36/36/36 27/27/27
f 38/38/38 25/25/25 21/21/21
f 38/38/38 37/37/37 25/25/25
f 39/39/39 4/4/4 34/34/34
f 39/39/39 1/1/1 4/4/4
f 36/36/36 37/37/37 40/40/40
f 35/35/35 36/36/36 40/40/40
f 41/41/41 34/34/34 35/35/35
f 39/39/39 34/34/34 41/41/41
f 42/42/42 1/1/1 39/39/39
f 5/5/5 1/1/1 42/42/42
f 43/43/43 38/38/38 21/21/21
f 22/22/22 43/43/43 21/21/21
f 22/22/22 44/44/44 43/43/43
f 44/44/44 22/22/22 23/23/23
f 37/37/37 38/38/38 45/45/45
f 37/37/37 45/45/45 40/40/40
f 46/46/46 35/35/35 40/40/40
f 41/41/41 35/35/35 46/46/46
f 47/47/47 39/39/39 41/41/41
f 47/47/47 42/42/42 39/39/39
f 43/43/43 48/48/48 38/38/38
f 44/44/44 48/48/48 43/43/43
f 49/49/49 44/44/44 23/23/23
f 24/24/24 49/49/49 23/23/23
f 48/48/48 50/50/50 38/38/38
f 38/38/38 50/50/50 45/45/45
f 48/48/48 44/44/44 51/51/51
f 44/44/44 49/49/49 51/51/51
f 50/50/50 48/48/48 51/51/51
f 49/49/49 24/24/24 52/52/52
f 52/52/52 24/24/24 9/9/9
f 49/49/49 53/53/53 51/51/51
f 53/53/53 49/49/49 52/52/52
f 54/54/54 50/50/50 51/51/51
f 53/53/53 54/54/54 51/51/51
f 45/45/45 50/50/50 55/55/55
f 50/50/50 54/54/54 55/55/55
f 54/54/54 53/53/53 56/56/56
f 56/56/56 53/53/53 52/52/52
f 55/55/55 54/54/54 56/56/56
f 57/57/57 52/52/52 9/9/9
f 57/57/57 56/56/56 52/52/52
f 13/13/13 57/57/57 9/9/9
f 45/45/45 55/55/55 58/58/58
f 40/40/40 45/45/45 58/58/58
f 40/40/40 58/58/58 46/46/46
f 55/55/55 56/56/56 59/59/59
f 56/56/56 57/57/57 59/59/59
f 58/58/58 55/55/55 59/59/59
f 57/57/57 13/13/13 60/60/60
f 57/57/57 60/60/60 59/59/59
f 13/13/13 61/61/61 60/60/60
f 5/5/5 61/61/61 13/13/13
f 61/61/61 5/5/5 42/42/42
f 60/60/60 61/61/61 42/42/42
f 62/62/62 60/60/60 42/42/42
f 59/59/59 60/60/60 62/62/62
f 42/42/42 47/47/47 62/62/62
f 59/59/59 63/63/63 58/58/58
f 63/63/63 59/59/59 62/62/62
f 58/58/58 64/64/64 46/46/46
f 63/63/63 64/64/64 58/58/58
f 46/46/46 64/64/64 63/63/63
f 65/65/65 46/46/46 63/63/63
f 63/63/63 62/62/62 65/65/65
f 65/65/65 41/41/41 46/46/46
f 41/41/41 65/65/65 47/47/47
f 62/62/62 66/66/66 65/65/65
f 65/65/65 66/66/66 47/47/47
f 47/47/47 66/66/66 62/62/62
