g Fire Snail Eyes
v 0.6687479 -0.62309706 0.749027
v 0.6815474 -0.6371972 0.68869734
v 0.6246724 -0.650614 0.71293676
v 0.6423092 -0.5161022 0.58883965
v 0.6931155 -0.5489693 0.6073004
v 0.68638444 -0.4885853 0.62493014
v 0.7165408 -0.55275655 0.7427269
v 0.7226095 -0.5064724 0.70002663
v 0.72934055 -0.5668566 0.6823971
v 0.5345259 0.541528 0.63477576
v 0.5283897 0.58832777 0.6779522
v 0.52158356 0.5272706 0.69577825
v 0.5688181 0.45775256 0.6895517
v 0.5345259 0.541528 0.63477576
v 0.5817604 0.47200987 0.6285496
v 0.6263273 0.4441863 0.66504216
v 0.68624187 0.4884281 0.6256026
v 0.641675 0.5162516 0.5891099
v 0.5944407 0.5857698 0.5953363
v 0.5283897 0.58832777 0.6779522
v 0.5883045 0.63256955 0.6385126
v 0.64581347 0.6190033 0.6140027
v 0.64581347 0.6190033 0.6140027
v 0.69304824 0.5494852 0.6077764
v 0.6816151 0.6366813 0.6882212
v 0.5883045 0.63256955 0.6385126
v 0.72884893 0.5671633 0.6819947
v 0.6686728 0.622424 0.7492235
v 0.62410617 0.65024763 0.712731
v 0.71590686 0.552906 0.7429973
v 0.60875773 0.5781822 0.78866327
v 0.6559925 0.5086642 0.78243685
v 0.72204304 0.5061061 0.6998209
v 0.68624187 0.4884281 0.6256026
v 0.6263273 0.4441863 0.66504216
v 0.56419086 0.6060057 0.75217056
v 0.5283897 0.58832777 0.6779522
v 0.52158356 0.5272706 0.69577825
v 0.55738497 0.5449486 0.76999664
v 0.60875773 0.5781822 0.78866327
v 0.6686728 0.622424 0.7492235
v 0.55738497 0.5449486 0.76999664
v 0.66212845 0.46186432 0.73926055
v 0.71590686 0.552906 0.7429973
v 0.6559925 0.5086642 0.78243685
v 0.60461926 0.4754305 0.7637702
v 0.60461926 0.4754305 0.7637702
v 0.5688181 0.45775256 0.6895517
v 0.52158356 0.5272706 0.69577825
v 0.55738497 0.5449486 0.76999664
v 0.6559925 0.5086642 0.78243685
v 0.60875773 0.5781822 0.78866327
v 0.6686728 0.622424 0.7492235
v 0.62410617 0.65024763 0.712731
v 0.6816151 0.6366813 0.6882212
v 0.641675 0.5162516 0.5891099
v 0.68624187 0.4884281 0.6256026
v 0.69304824 0.5494852 0.6077764
v 0.71590686 0.552906 0.7429973
v 0.72884893 0.5671633 0.6819947
v 0.72204304 0.5061061 0.6998209
v 0.5902865 -0.5520619 0.68971586
v 0.61196494 -0.5102938 0.6934141
v 0.6418619 -0.5227714 0.65908194
v 0.6201832 -0.56453955 0.6553838
v 0.6201832 -0.56453955 0.6553838
v 0.6418619 -0.5227714 0.65908194
v 0.081076264 -0.11191034 -0.048154354
v 0.012922168 -0.24322279 -0.05978012
v 0.012922168 -0.24322279 -0.05978012
v 0.081076264 -0.11191034 -0.048154354
v -0.012915134 -0.07268268 0.05978018
v -0.08106947 -0.20399505 0.048154354
v -0.08106947 -0.20399505 0.048154354
v -0.012915134 -0.07268268 0.05978018
v 0.61196494 -0.5102938 0.6934141
v 0.5902865 -0.5520619 0.68971586
v 0.6201832 -0.56453955 0.6553838
v 0.012922168 -0.24322279 -0.05978012
v -0.08106947 -0.20399505 0.048154354
v 0.5902865 -0.5520619 0.68971586
v 0.081076264 -0.11191034 -0.048154354
v 0.6418619 -0.5227714 0.65908194
v 0.61196494 -0.5102938 0.6934141
v -0.012915134 -0.07268268 0.05978018
v 0.7165408 -0.55275655 0.7427269
v 0.60812354 -0.5783317 0.7889333
v 0.6559169 -0.50799114 0.7826332
v 0.6687479 -0.62309706 0.749027
v 0.6815474 -0.6371972 0.68869734
v 0.72934055 -0.5668566 0.6823971
v 0.6931155 -0.5489693 0.6073004
v 0.68638444 -0.4885853 0.62493014
v 0.7226095 -0.5064724 0.70002663
v 0.62576056 -0.44381997 0.6648364
v 0.64532256 -0.61931 0.6136006
v 0.6246724 -0.650614 0.71293676
v 0.59451604 -0.58644277 0.59513986
v 0.5884471 -0.6327267 0.63784015
v 0.6423092 -0.5161022 0.58883965
v 0.5640483 -0.60584855 0.7528429
v 0.6687479 -0.62309706 0.749027
v 0.60812354 -0.5783317 0.7889333
v 0.5278232 -0.5879614 0.67774653
v 0.5573175 -0.54546446 0.77047276
v 0.52109265 -0.5275773 0.6953759
v 0.66198564 -0.46170714 0.739933
v 0.56888556 -0.45723668 0.68907607
v 0.6559169 -0.50799114 0.7826332
v 0.7165408 -0.55275655 0.7427269
v 0.60511065 -0.47512385 0.7641727
v 0.60511065 -0.47512385 0.7641727
v 0.52109265 -0.5275773 0.6953759
v 0.5573175 -0.54546446 0.77047276
v 0.60812354 -0.5783317 0.7889333
v 0.6559169 -0.50799114 0.7826332
v 0.5902865 0.5520619 0.68971586
v 0.6201832 0.56453955 0.6553838
v 0.6418619 0.5227714 0.65908194
v 0.61196494 0.5102938 0.6934141
v 0.6201832 0.56453955 0.6553838
v 0.012922168 0.24322279 -0.05978012
v 0.081076264 0.11191034 -0.048154354
v 0.6418619 0.5227714 0.65908194
v 0.012922168 0.24322279 -0.05978012
v -0.08106947 0.20399505 0.048154354
v -0.012915134 0.07268268 0.05978018
v 0.081076264 0.11191034 -0.048154354
v -0.08106947 0.20399505 0.048154354
v 0.5902865 0.5520619 0.68971586
v 0.61196494 0.5102938 0.6934141
v -0.012915134 0.07268268 0.05978018
v 0.6201832 0.56453955 0.6553838
v 0.5902865 0.5520619 0.68971586
v -0.08106947 0.20399505 0.048154354
v 0.012922168 0.24322279 -0.05978012
v 0.081076264 0.11191034 -0.048154354
v -0.012915134 0.07268268 0.05978018
v 0.61196494 0.5102938 0.6934141
v 0.6418619 0.5227714 0.65908194
v 0.5816853 -0.47133675 0.6287459
v 0.62576056 -0.44381997 0.6648364
v 0.56888556 -0.45723668 0.68907607
v 0.52109265 -0.5275773 0.6953759
v 0.53389215 -0.5416774 0.6350461
v 0.5278232 -0.5879614 0.67774653
v 0.5884471 -0.6327267 0.63784015
v 0.64532256 -0.61931 0.6136006
v 0.62576056 -0.44381997 0.6648364
v 0.68638444 -0.4885853 0.62493014
vt 0.625 0.6859996
vt 0.56099963 0.68599963
vt 0.56099963 0.75
vt 0.31099963 0.5640004
vt 0.375 0.56400067
vt 0.31100002 0.5
vt 0.625 0.56400025
vt 0.56099993 0.5
vt 0.56099975 0.5640004
vt 0.18971378 0.68528634
vt 0.18971387 0.75
vt 0.125 0.6852863
vt 0.125 0.5647136
vt 0.18971378 0.68528634
vt 0.1897139 0.56471354
vt 0.18971379 0.5
vt 0.31028634 0.5
vt 0.31028628 0.5647138
vt 0.31028605 0.68528646
vt 0.18971372 0.75
vt 0.31028628 0.75
vt 0.375 0.68528646
vt 0.43971342 0.6852861
vt 0.43971378 0.5647136
vt 0.5602866 0.6852862
vt 0.43971372 0.8147138
vt 0.5602863 0.56471384
vt 0.6897135 0.68528616
vt 0.5602864 0.81471384
vt 0.6897141 0.56471395
vt 0.8102863 0.68528616
vt 0.81028616 0.56471366
vt 0.5602863 0.4352863
vt 0.43971384 0.4352864
vt 0.43971372 0.31471387
vt 0.56028646 0.93528664
vt 0.43971372 0.93528646
vt 0.4397136 1
vt 0.5602863 1
vt 0.625 0.9352863
vt 0.625 0.81471354
vt 0.5602864 1
vt 0.5602866 0.31471393
vt 0.625 0.43528622
vt 0.625 0.31471407
vt 0.56028664 0.25
vt 0.5602866 0.18528657
vt 0.43971372 0.18528643
vt 0.43971372 0.06471372
vt 0.5602863 0.06471388
vt 0.625 0.18528649
vt 0.625 0.06471391
vt 0.625 0.68528605
vt 0.5602863 0.75
vt 0.5602866 0.6852862
vt 0.31028628 0.5647138
vt 0.31028622 0.5
vt 0.375 0.5647136
vt 0.625 0.5647137
vt 0.5602863 0.56471384
vt 0.56028634 0.5
vt -0.3299851 -0.75229734
vt 1.3297688 -0.7522955
vt 0.625 0.35362262
vt 0.375 0.3536226
vt 0.375 0.3536226
vt 0.625 0.35362262
vt 0.625 0.5
vt 0.375 0.5
vt 0.375 0.5
vt 0.625 0.5
vt 0.625 0.75
vt 0.375 0.75
vt 0.375 0.75
vt 0.625 0.75
vt 0.62499994 0.8963774
vt 0.375 0.8963773
vt 0.22862256 0.49999997
vt 0.375 0.5
vt 0.375 0.75
vt 0.22862257 0.75
vt 0.625 0.5
vt 0.7713775 0.5
vt 0.77137744 0.75
vt 0.625 0.75
vt 0.68900025 0.5640005
vt 0.8109998 0.6859997
vt 0.81099975 0.5640005
vt 0.68900025 0.6859997
vt 0.56099963 0.68599963
vt 0.56099975 0.5640004
vt 0.4390002 0.56400037
vt 0.43900028 0.4359998
vt 0.56099975 0.4359998
vt 0.43900037 0.31400046
vt 0.4390003 0.6859997
vt 0.56099975 0.8140004
vt 0.31099993 0.68599945
vt 0.4390002 0.8140003
vt 0.31099963 0.5640004
vt 0.56099963 0.9359995
vt 0.625 0.8140005
vt 0.625 0.93599993
vt 0.43900037 0.9359999
vt 0.5609996 1
vt 0.43900025 1
vt 0.561 0.31400058
vt 0.4390002 0.18599954
vt 0.625 0.31400025
vt 0.625 0.43600008
vt 0.561 0.25
vt 0.56099975 0.18599975
vt 0.4390002 0.06400053
vt 0.56099975 0.06400044
vt 0.625 0.064000465
vt 0.625 0.1859997
vt -0.3299851 -0.75229734
vt 0.375 0.3536226
vt 0.625 0.35362262
vt 1.3297688 -0.7522955
vt 0.375 0.3536226
vt 0.375 0.5
vt 0.625 0.5
vt 0.625 0.35362262
vt 0.375 0.5
vt 0.375 0.75
vt 0.625 0.75
vt 0.625 0.5
vt 0.375 0.75
vt 0.375 0.8963773
vt 0.62499994 0.8963774
vt 0.625 0.75
vt 0.22862256 0.49999997
vt 0.22862257 0.75
vt 0.375 0.75
vt 0.375 0.5
vt 0.625 0.5
vt 0.625 0.75
vt 0.77137744 0.75
vt 0.7713775 0.5
vt 0.18900035 0.5640001
vt 0.1890002 0.5
vt 0.125 0.5640005
vt 0.125 0.6859997
vt 0.18900038 0.6859996
vt 0.18900026 0.75
vt 0.31099975 0.75
vt 0.375 0.6859995
vt 0.18900035 0.5
vt 0.3109998 0.5
vn 0.42334735 -0.6447433 0.6364613
vn 0.57613564 -0.8130576 -0.08369579
vn -0.10278087 -0.9732132 0.205651
vn 0.06233899 0.28610942 -0.95616686
vn 0.6688137 -0.1062248 -0.73580194
vn 0.5884669 0.61457914 -0.52535635
vn 0.8062391 -0.08121382 0.5859887
vn 0.87868094 0.47127688 0.07627515
vn 0.9590283 -0.24952659 -0.13416877
vn -0.8062396 -0.08121349 -0.58598804
vn -0.8786806 0.47127768 -0.07627455
vn -0.95902807 -0.24952738 0.1341689
vn -0.5761342 -0.81305873 0.08369534
vn -0.8062396 -0.08121349 -0.58598804
vn -0.4233458 -0.6447459 -0.6364599
vn 0.10278366 -0.9732131 -0.20565002
vn 0.5884672 -0.614579 -0.525356
vn 0.06233706 -0.2861108 -0.9561667
vn -0.32055593 0.27742133 -0.9056938
vn -0.8786806 0.47127768 -0.07627455
vn -0.39299652 0.82991135 -0.39598092
vn 0.2859195 0.66975594 -0.68532985
vn 0.2859195 0.66975594 -0.68532985
vn 0.66881526 0.106223434 -0.73580074
vn 0.57613623 0.8130571 -0.08369715
vn -0.39299652 0.82991135 -0.39598092
vn 0.9590283 0.24952607 -0.13416931
vn 0.42334822 0.64474493 0.6364592
vn -0.1027808 0.97321326 0.20564994
vn 0.80624104 0.08121389 0.585986
vn -0.062338483 0.28610966 0.95616686
vn 0.32055777 -0.27742106 0.9056933
vn 0.8786815 -0.4712759 0.076274484
vn 0.5884672 -0.614579 -0.525356
vn 0.10278366 -0.9732131 -0.20565002
vn -0.5884674 0.6145782 0.5253569
vn -0.8786806 0.47127768 -0.07627455
vn -0.95902807 -0.24952738 0.1341689
vn -0.66881377 -0.10622635 0.7358017
vn -0.062338483 0.28610966 0.95616686
vn 0.42334822 0.64474493 0.6364592
vn -0.66881377 -0.10622635 0.7358017
vn 0.39299735 -0.8299108 0.3959812
vn 0.80624104 0.08121389 0.585986
vn 0.32055777 -0.27742106 0.9056933
vn -0.28592083 -0.669757 0.68532836
vn -0.28592083 -0.669757 0.68532836
vn -0.5761342 -0.81305873 0.08369534
vn -0.95902807 -0.24952738 0.1341689
vn -0.66881377 -0.10622635 0.7358017
vn 0.32055777 -0.27742106 0.9056933
vn -0.062338483 0.28610966 0.95616686
vn 0.42334822 0.64474493 0.6364592
vn -0.1027808 0.97321326 0.20564994
vn 0.57613623 0.8130571 -0.08369715
vn 0.06233706 -0.2861108 -0.9561667
vn 0.5884672 -0.614579 -0.525356
vn 0.66881526 0.106223434 -0.73580074
vn 0.80624104 0.08121389 0.585986
vn 0.9590283 0.24952607 -0.13416931
vn 0.8786815 -0.4712759 0.076274484
vn 0.62285084 -0.38364187 0.6818179
vn 0.62285084 -0.38364187 0.6818179
vn 0.62285084 -0.38364187 0.6818179
vn 0.62285084 -0.38364187 0.6818179
vn 0.6643525 -0.28358862 -0.6915297
vn 0.6643525 -0.28358862 -0.6915297
vn 0.6643525 -0.28358862 -0.6915297
vn 0.6643525 -0.28358862 -0.6915297
vn -0.6228503 0.38363907 -0.68182003
vn -0.6228503 0.38363907 -0.68182003
vn -0.6228503 0.38363907 -0.68182003
vn -0.6228503 0.38363907 -0.68182003
vn -0.600711 0.24438876 0.76119673
vn -0.600711 0.24438876 0.76119673
vn -0.600711 0.24438876 0.76119673
vn -0.600711 0.24438876 0.76119673
vn -0.42683458 -0.90328753 -0.043404832
vn -0.42683458 -0.90328753 -0.043404832
vn -0.42683458 -0.90328753 -0.043404832
vn -0.42683458 -0.90328753 -0.043404832
vn 0.4904758 0.8640881 0.11307153
vn 0.4904758 0.8640881 0.11307153
vn 0.4904758 0.8640881 0.11307153
vn 0.4904758 0.8640881 0.11307153
vn 0.8062391 -0.08121382 0.5859887
vn -0.06233901 -0.2861103 0.9561667
vn 0.32055572 0.27741975 0.90569437
vn 0.42334735 -0.6447433 0.6364613
vn 0.57613564 -0.8130576 -0.08369579
vn 0.9590283 -0.24952659 -0.13416877
vn 0.6688137 -0.1062248 -0.73580194
vn 0.5884669 0.61457914 -0.52535635
vn 0.87868094 0.47127688 0.07627515
vn 0.102781795 0.9732132 -0.20564985
vn 0.28592166 -0.6697561 -0.68532884
vn -0.10278087 -0.9732132 0.205651
vn -0.32055432 -0.27742106 -0.90569454
vn -0.3929969 -0.8299102 -0.39598277
vn 0.06233899 0.28610942 -0.95616686
vn -0.5884677 -0.6145779 0.5253569
vn 0.42334735 -0.6447433 0.6364613
vn -0.06233901 -0.2861103 0.9561667
vn -0.8786825 -0.471274 -0.076274715
vn -0.6688132 0.106225565 0.73580235
vn -0.9590278 0.24952841 0.13416874
vn 0.392997 0.8299106 0.3959822
vn -0.57613593 0.8130573 0.08369736
vn 0.32055572 0.27741975 0.90569437
vn 0.8062391 -0.08121382 0.5859887
vn -0.28591993 0.6697555 0.68533015
vn -0.28591993 0.6697555 0.68533015
vn -0.9590278 0.24952841 0.13416874
vn -0.6688132 0.106225565 0.73580235
vn -0.06233901 -0.2861103 0.9561667
vn 0.32055572 0.27741975 0.90569437
vn 0.6228511 0.38364193 0.6818177
vn 0.6228511 0.38364193 0.6818177
vn 0.6228511 0.38364193 0.6818177
vn 0.6228511 0.38364193 0.6818177
vn 0.6643524 0.28358865 -0.69152963
vn 0.6643524 0.28358865 -0.69152963
vn 0.6643524 0.28358865 -0.69152963
vn 0.6643524 0.28358865 -0.69152963
vn -0.6228503 -0.38363907 -0.68182003
vn -0.6228503 -0.38363907 -0.68182003
vn -0.6228503 -0.38363907 -0.68182003
vn -0.6228503 -0.38363907 -0.68182003
vn -0.6007111 -0.2443888 0.7611967
vn -0.6007111 -0.2443888 0.7611967
vn -0.6007111 -0.2443888 0.7611967
vn -0.6007111 -0.2443888 0.7611967
vn -0.4268346 0.90328753 -0.043404777
vn -0.4268346 0.90328753 -0.043404777
vn -0.4268346 0.90328753 -0.043404777
vn -0.4268346 0.90328753 -0.043404777
vn 0.49047577 -0.8640882 0.113071516
vn 0.49047577 -0.8640882 0.113071516
vn 0.49047577 -0.8640882 0.113071516
vn 0.49047577 -0.8640882 0.113071516
vn -0.42334637 0.6447448 -0.63646054
vn 0.102781795 0.9732132 -0.20564985
vn -0.57613593 0.8130573 0.08369736
vn -0.9590278 0.24952841 0.13416874
vn -0.80623955 0.08121464 -0.58598804
vn -0.8786825 -0.471274 -0.076274715
vn -0.3929969 -0.8299102 -0.39598277
vn 0.28592166 -0.6697561 -0.68532884
vn 0.102781795 0.9732132 -0.20564985
vn 0.5884669 0.61457914 -0.52535635
g Fire Snail Eyes_0
f 3/3/3 2/2/2 1/1/1
f 6/6/6 5/5/5 4/4/4
f 9/9/9 8/8/8 7/7/7
f 12/12/12 11/11/11 10/10/10
f 12/12/12 14/14/14 13/13/13
f 14/14/14 15/15/15 13/13/13
f 16/16/16 13/13/13 15/15/15
f 16/16/16 15/15/15 17/17/17
f 15/15/15 18/18/18 17/17/17
f 14/14/14 19/19/19 15/15/15
f 19/19/19 18/18/18 15/15/15
f 19/19/19 14/14/14 20/20/20
f 21/21/21 19/19/19 20/20/20
f 21/21/21 22/22/22 19/19/19
f 18/18/18 19/19/19 23/23/23
f 24/24/24 18/18/18 23/23/23
f 23/23/23 25/25/25 24/24/24
f 23/23/23 26/26/26 25/25/25
f 25/25/25 27/27/27 24/24/24
f 25/25/25 28/28/28 27/27/27
f 26/26/26 29/29/29 25/25/25
f 28/28/28 30/30/30 27/27/27
f 28/28/28 31/31/31 30/30/30
f 31/31/31 32/32/32 30/30/30
f 24/24/24 27/27/27 33/33/33
f 34/34/34 24/24/24 33/33/33
f 34/34/34 33/33/33 35/35/35
f 36/36/36 29/29/29 26/26/26
f 37/37/37 36/36/36 26/26/26
f 36/36/36 37/37/37 38/38/38
f 39/39/39 36/36/36 38/38/38
f 36/36/36 40/40/40 29/29/29
f 40/40/40 41/41/41 29/29/29
f 42/42/42 40/40/40 36/36/36
f 33/33/33 43/43/43 35/35/35
f 33/33/33 44/44/44 43/43/43
f 44/44/44 45/45/45 43/43/43
f 46/46/46 43/43/43 45/45/45
f 35/35/35 43/43/43 47/47/47
f 48/48/48 35/35/35 47/47/47
f 48/48/48 47/47/47 49/49/49
f 47/47/47 50/50/50 49/49/49
f 47/47/47 51/51/51 50/50/50
f 51/51/51 52/52/52 50/50/50
f 55/55/55 54/54/54 53/53/53
f 58/58/58 57/57/57 56/56/56
f 61/61/61 60/60/60 59/59/59
f 64/64/64 63/63/63 62/62/62
f 65/65/65 64/64/64 62/62/62
f 68/68/68 67/67/67 66/66/66
f 69/69/69 68/68/68 66/66/66
f 72/72/72 71/71/71 70/70/70
f 73/73/73 72/72/72 70/70/70
f 76/76/76 75/75/75 74/74/74
f 77/77/77 76/76/76 74/74/74
f 80/80/80 79/79/79 78/78/78
f 81/81/81 80/80/80 78/78/78
f 84/84/84 83/83/83 82/82/82
f 85/85/85 84/84/84 82/82/82
f 88/88/88 87/87/87 86/86/86
f 87/87/87 89/89/89 86/86/86
f 89/89/89 90/90/90 86/86/86
f 90/90/90 91/91/91 86/86/86
f 91/91/91 90/90/90 92/92/92
f 92/92/92 93/93/93 91/91/91
f 93/93/93 94/94/94 91/91/91
f 94/94/94 93/93/93 95/95/95
f 90/90/90 96/96/96 92/92/92
f 96/96/96 90/90/90 97/97/97
f 92/92/92 96/96/96 98/98/98
f 99/99/99 96/96/96 97/97/97
f 100/100/100 92/92/92 98/98/98
f 97/97/97 101/101/101 99/99/99
f 101/101/101 97/97/97 102/102/102
f 103/103/103 101/101/101 102/102/102
f 101/101/101 104/104/104 99/99/99
f 103/103/103 105/105/105 101/101/101
f 101/101/101 105/105/105 104/104/104
f 105/105/105 106/106/106 104/104/104
f 107/107/107 94/94/94 95/95/95
f 95/95/95 108/108/108 107/107/107
f 94/94/94 107/107/107 109/109/109
f 110/110/110 94/94/94 109/109/109
f 107/107/107 111/111/111 109/109/109
f 108/108/108 112/112/112 107/107/107
f 112/112/112 108/108/108 113/113/113
f 114/114/114 112/112/112 113/113/113
f 112/112/112 114/114/114 115/115/115
f 116/116/116 112/112/112 115/115/115
f 119/119/119 118/118/118 117/117/117
f 120/120/120 119/119/119 117/117/117
f 123/123/123 122/122/122 121/121/121
f 124/124/124 123/123/123 121/121/121
f 127/127/127 126/126/126 125/125/125
f 128/128/128 127/127/127 125/125/125
f 131/131/131 130/130/130 129/129/129
f 132/132/132 131/131/131 129/129/129
f 135/135/135 134/134/134 133/133/133
f 136/136/136 135/135/135 133/133/133
f 139/139/139 138/138/138 137/137/137
f 140/140/140 139/139/139 137/137/137
f 143/143/143 142/142/142 141/141/141
f 144/144/144 143/143/143 141/141/141
f 145/145/145 144/144/144 141/141/141
f 146/146/146 144/144/144 145/145/145
f 147/147/147 146/146/146 145/145/145
f 98/98/98 147/147/147 145/145/145
f 98/98/98 145/145/145 141/141/141
f 148/148/148 147/147/147 98/98/98
f 100/100/100 98/98/98 141/141/141
f 141/141/141 149/149/149 100/100/100
f 149/149/149 150/150/150 100/100/100
