g Fishing Boat
v 1.3028582 0.07629738 0.07166344
v 1.2649009 0 0.07166344
v 1.3028582 -0.07629739 0.07166345
v 2.066292 -0.077513546 1.4340398
v 2.0405388 0 1.4604075
v 2.066292 0.07751357 1.4340397
v -0.9514835 0.31330734 0.07166344
v -0.66560256 0.6266147 0.07166344
v -1.0926615 1 1
v -1.5100037 0.5 1.2903229
v -1.0420487 0.13066223 0.071663454
v -1.7197156 0.13441327 1.4146843
v -1.0420487 -0.13066222 0.07166344
v -1.7197156 -0.13441327 1.4146843
v -0.9514835 -0.31330734 0.07166344
v -1.5100037 -0.5 1.2903229
v -0.66560256 -0.6266147 0.07166344
v -1.0926615 -1 1
v -0.66560256 0.6266147 0.07166344
v 1.0801466 1 1
v -1.0926615 1 1
v 0.6959109 0.6266147 0.07166344
v 1.7277752 0.5 1.2903229
v 1.1478382 0.31330734 0.07166344
v 2.066292 0.07751357 1.4340397
v 1.3028582 0.07629738 0.07166344
v 2.066292 -0.077513546 1.4340398
v 1.3028582 -0.07629739 0.07166345
v 1.7277752 -0.5 1.2903229
v 1.1478382 -0.31330734 0.07166344
v 1.0801466 -1 1
v 0.6959109 -0.6266147 0.07166344
v -1.0926615 -1 1
v -0.66560256 -0.6266147 0.07166344
v -0.9514835 -0.31330734 0.07166344
v -0.66560256 -0.6266147 0.07166344
v 0.6959109 -0.6266147 0.07166344
v 1.1478382 -0.31330734 0.07166344
v -0.96387213 0 0.07166344
v -1.0420487 -0.13066222 0.07166344
v -1.0420487 0.13066223 0.071663454
v 1.2649009 0 0.07166344
v 1.3028582 -0.07629739 0.07166345
v 1.3028582 0.07629738 0.07166344
v 1.1478382 0.31330734 0.07166344
v -0.96387213 0 0.07166344
v -0.9514835 0.31330734 0.07166344
v -1.0420487 0.13066223 0.071663454
v -0.66560256 0.6266147 0.07166344
v 0.6959109 0.6266147 0.07166344
v 1.7277752 0.5 1.2903229
v 2.066292 0.07751357 1.4340397
v 2.0405388 0 1.4604075
v 1.9533252 0 1.4604075
v 1.7277752 -0.5 1.2903229
v 2.066292 -0.077513546 1.4340398
v 1.5968741 -0.45785993 1.2903229
v 1.0801466 -1 1
v 0.993419 -0.91571987 1
v -1.0926615 -1 1
v -0.99626446 -0.91571987 1
v 1.9533252 0 1.4604075
v 1.5968741 0.45785993 1.2903229
v 1.7277752 0.5 1.2903229
v 0.993419 0.91571987 1
v 1.0801466 1 1
v -0.99626446 0.91571987 1
v -1.0926615 1 1
v -1.3839333 0.45785993 1.2903229
v -1.5100037 0.5 1.2903229
v -1.6410756 0 1.4604075
v -1.5100037 -0.5 1.2903229
v -0.99626446 -0.91571987 1
v -1.0926615 -1 1
v -1.3839333 -0.45785993 1.2903229
v -1.6410756 0 1.4604075
v -1.7197156 -0.13441327 1.4146843
v -1.6538534 0 1.4604075
v -1.7197156 0.13441327 1.4146843
v -1.5100037 0.5 1.2903229
v -1.7197156 -0.13441327 1.4146843
v -0.99626446 -0.91571987 1
v -0.7927163 -0.6737134 0.56047475
v 0.83134735 -0.7245319 0.56047475
v 0.993419 -0.91571987 1
v 1.2757962 -0.40384474 0.56047475
v 1.5968741 -0.45785993 1.2903229
v 1.5478058 0 0.56047475
v 1.9533252 0 1.4604075
v 0.993419 0.91571987 1
v -0.774537 0.7614908 0.56047475
v -0.99626446 0.91571987 1
v 0.83134735 0.7522511 0.56047475
v 1.5968741 0.45785993 1.2903229
v 1.2757962 0.40384474 0.56047475
v 1.9533252 0 1.4604075
v 1.5478058 0 0.56047475
v -1.3839333 -0.45785993 1.2903229
v -0.7927163 -0.6737134 0.56047475
v -0.99626446 -0.91571987 1
v -1.0690519 -0.40384474 0.56047475
v -1.6410756 0 1.4604075
v -1.260339 0 0.56047475
v -1.3839333 0.45785993 1.2903229
v -1.0690519 0.40384474 0.56047475
v -0.99626446 0.91571987 1
v -0.774537 0.7614908 0.56047475
v 0.25988433 -0.041316163 0.59547305
v 0.25919804 0.04860565 0.59547305
v 0.25919804 0.04860565 3.2333362
v 0.25988433 -0.041316163 3.2333362
v 0.25919804 0.04860565 0.59547305
v 0.34911987 0.049291953 0.59547305
v 0.34911987 0.049291953 3.2333362
v 0.25919804 0.04860565 3.2333362
v 0.34911987 0.049291953 0.59547305
v 0.34980616 -0.040629838 0.59547305
v 0.34980616 -0.040629838 3.2333362
v 0.34911987 0.049291953 3.2333362
v 0.34980616 -0.040629838 0.59547305
v 0.25988433 -0.041316163 0.59547305
v 0.25988433 -0.041316163 3.2333362
v 0.34980616 -0.040629838 3.2333362
v 0.25919804 0.04860565 0.59547305
v 0.25988433 -0.041316163 0.59547305
v 0.34980616 -0.040629838 0.59547305
v 0.34911987 0.049291953 0.59547305
v 0.34911987 0.049291953 3.2333362
v 0.34980616 -0.040629838 3.2333362
v 0.25988433 -0.041316163 3.2333362
v 0.25919804 0.04860565 3.2333362
v -1.0579911 -0.41388738 0.5858557
v -0.99310666 0.19601828 0.5858557
v -0.99310666 0.19601828 1.199203
v -1.0579911 -0.41388738 1.199203
v -0.99310666 0.19601828 0.5858557
v -0.38320094 0.13113376 0.5858557
v -0.38320094 0.13113376 1.199203
v -0.99310666 0.19601828 1.199203
v -0.38320094 0.13113376 0.5858557
v -0.4480855 -0.47877192 0.5858557
v -0.4480855 -0.47877192 1.199203
v -0.38320094 0.13113376 1.199203
v -0.4480855 -0.47877192 0.5858557
v -1.0579911 -0.41388738 0.5858557
v -1.0579911 -0.41388738 1.199203
v -0.4480855 -0.47877192 1.199203
v -0.99310666 0.19601828 0.5858557
v -1.0579911 -0.41388738 0.5858557
v -0.4480855 -0.47877192 0.5858557
v -0.38320094 0.13113376 0.5858557
v -0.38320094 0.13113376 1.199203
v -0.4480855 -0.47877192 1.199203
v -1.0579911 -0.41388738 1.199203
v -0.99310666 0.19601828 1.199203
v -0.33250862 -0.6900925 0.5693741
v -0.40147358 -0.24110441 0.5693741
v -0.40147358 -0.24110441 1.0236278
v -0.33250862 -0.6900925 1.0236278
v -0.40147358 -0.24110441 0.5693741
v 0.0475145 -0.17213945 0.5693741
v 0.0475145 -0.17213945 1.0236278
v -0.40147358 -0.24110441 1.0236278
v 0.0475145 -0.17213945 0.5693741
v 0.11647946 -0.6211276 0.5693741
v 0.11647946 -0.6211276 1.0236278
v 0.0475145 -0.17213945 1.0236278
v 0.11647946 -0.6211276 0.5693741
v -0.33250862 -0.6900925 0.5693741
v -0.33250862 -0.6900925 1.0236278
v 0.11647946 -0.6211276 1.0236278
v -0.40147358 -0.24110441 0.5693741
v -0.33250862 -0.6900925 0.5693741
v 0.11647946 -0.6211276 0.5693741
v 0.0475145 -0.17213945 0.5693741
v 0.0475145 -0.17213945 1.0236278
v 0.11647946 -0.6211276 1.0236278
v -0.33250862 -0.6900925 1.0236278
v -0.40147358 -0.24110441 1.0236278
v -1.0461913 0.2908176 0.6261587
v -0.8630342 0.79108435 0.6261587
v -0.8630342 0.79108435 1.1589
v -1.0461913 0.2908176 1.1589
v -0.8630342 0.79108435 0.6261587
v -0.36276746 0.6079272 0.6261587
v -0.36276746 0.6079272 1.1589
v -0.8630342 0.79108435 1.1589
v -0.36276746 0.6079272 0.6261587
v -0.54592466 0.10766041 0.6261587
v -0.54592466 0.10766041 1.1589
v -0.36276746 0.6079272 1.1589
v -0.54592466 0.10766041 0.6261587
v -1.0461913 0.2908176 0.6261587
v -1.0461913 0.2908176 1.1589
v -0.54592466 0.10766041 1.1589
v -0.36276746 0.6079272 1.1589
v -0.54592466 0.10766041 1.1589
v -1.0461913 0.2908176 1.1589
v -0.8630342 0.79108435 1.1589
v 1.301825 -0.44913173 0.59881335
v 0.8056012 -0.76240253 0.59881335
v -0.7869315 -0.76240253 0.59881335
v -1.1042064 -0.44913173 0.59881335
v -1.0690519 -0.40384474 0.56047475
v 1.2757962 -0.40384474 0.56047475
v -0.7927163 -0.6737134 0.56047475
v -1.0690519 -0.40384474 0.56047475
v -1.1042064 -0.44913173 0.59881335
v -0.7869315 -0.76240253 0.59881335
v 0.83134735 -0.7245319 0.56047475
v 0.8056012 -0.76240253 0.59881335
v 1.2757962 -0.40384474 0.56047475
v 1.301825 -0.44913173 0.59881335
v -1.0690519 0.40384474 0.56047475
v 1.2757962 0.40384474 0.56047475
v 1.3082556 0.35855776 0.59881335
v -1.097776 0.35855776 0.59881335
v -1.2966046 0.045286983 0.59881335
v 1.5803356 0.045286983 0.59881335
v 1.5478058 0 0.56047475
v -1.260339 0 0.56047475
v -1.260339 0 0.56047475
v -1.0690519 0.40384474 0.56047475
v -1.097776 0.35855776 0.59881335
v -1.2966046 0.045286983 0.59881335
v 1.2757962 0.40384474 0.56047475
v 1.5478058 0 0.56047475
v 1.5803356 0.045286983 0.59881335
v 1.3082556 0.35855776 0.59881335
v 0.8056012 0.76240253 0.59881335
v -1.1042064 0.44913173 0.59881335
v -0.7869315 0.76240253 0.59881335
v 1.301825 0.44913173 0.59881335
v 1.2757962 0.40384474 0.56047475
v -1.0690519 0.40384474 0.56047475
v -0.774537 0.7614908 0.56047475
v 0.8056012 0.76240253 0.59881335
v -0.7869315 0.76240253 0.59881335
v 0.83134735 0.7522511 0.56047475
v 1.301825 0.44913173 0.59881335
v 1.2757962 0.40384474 0.56047475
v -1.0690519 0.40384474 0.56047475
v -0.774537 0.7614908 0.56047475
v -0.7869315 0.76240253 0.59881335
v -1.1042064 0.44913173 0.59881335
v -1.260339 0 0.56047475
v 1.5478058 0 0.56047475
v 1.5803356 -0.045286983 0.59881335
v -1.2966046 -0.045286983 0.59881335
v -1.097776 -0.35855776 0.59881335
v 1.3082556 -0.35855776 0.59881335
v 1.2757962 -0.40384474 0.56047475
v -1.0690519 -0.40384474 0.56047475
v -1.0690519 -0.40384474 0.56047475
v -1.260339 0 0.56047475
v -1.2966046 -0.045286983 0.59881335
v -1.097776 -0.35855776 0.59881335
v 1.5478058 0 0.56047475
v 1.2757962 -0.40384474 0.56047475
v 1.3082556 -0.35855776 0.59881335
v 1.5803356 -0.045286983 0.59881335
v 0.25348988 1.0961386 1.5798866
v 0.25348988 1.0961386 1.6698108
v 0.26559243 -1.0891083 1.6698108
v 0.26559243 -1.0891083 1.5798864
v 0.25348988 1.0961386 1.6698108
v 0.34341177 1.0970845 1.6698108
v 0.35551426 -1.0881623 1.6698108
v 0.26559243 -1.0891083 1.6698108
v 0.34341177 1.0970845 1.6698108
v 0.34341177 1.0970845 1.5798866
v 0.35551426 -1.0881623 1.5798864
v 0.35551426 -1.0881623 1.6698108
v 0.34341177 1.0970845 1.5798866
v 0.25348988 1.0961386 1.5798866
v 0.26559243 -1.0891083 1.5798864
v 0.35551426 -1.0881623 1.5798864
v 0.25348988 1.0961386 1.6698108
v 0.25348988 1.0961386 1.5798866
v 0.34341177 1.0970845 1.5798866
v 0.34341177 1.0970845 1.6698108
v 0.35551426 -1.0881623 1.6698108
v 0.35551426 -1.0881623 1.5798864
v 0.26559243 -1.0891083 1.5798864
v 0.26559243 -1.0891083 1.6698108
v 0.48313013 -0.7800467 1.5166187
v 0.27920207 -1.1752541 1.5166187
v 0.3241425 -1.1747445 1.5166187
v 0.43818977 -0.7805567 1.5166187
v 0.6014875 -0.38581017 1.5166187
v 0.55654716 -0.38632002 1.5166187
v 0.65377176 0.0076767914 1.5166187
v 0.6088314 0.0071669063 1.5166187
v 0.59745324 0.3999315 1.5166187
v 0.552513 0.39942157 1.5166187
v 0.4750618 0.7914365 1.5166187
v 0.43012145 0.79092664 1.5166187
v 0.31203982 1.1824806 1.5166187
v 0.26709947 1.1819707 1.5166187
v 0.4835318 1.1836559 1.9471121
v 0.26709947 1.1819707 1.5166187
v 0.31203982 1.1824806 1.5166187
v 0.5284723 1.1841656 1.9471121
v 0.4468139 1.1832389 2.3776052
v 0.49175426 1.1837488 2.3776052
v 0.5405748 -1.1730595 1.9471104
v 0.3241425 -1.1747445 1.5166187
v 0.27920207 -1.1752541 1.5166187
v 0.49563447 -1.1735692 1.9471104
v 0.50385666 -1.1734759 2.377602
v 0.45891652 -1.173986 2.377602
v 0.5284723 1.1841656 1.9471121
v 0.31203982 1.1824806 1.5166187
v 0.4750618 0.7914365 1.5166187
v 0.6914941 0.79312146 1.9471116
v 0.49175426 1.1837488 2.3776052
v 0.59745324 0.3999315 1.5166187
v 0.6547762 0.7927048 2.3776045
v 0.43343273 1.1830872 2.8080983
v 0.8138857 0.40161642 1.9471114
v 0.65377176 0.0076767914 1.5166187
v 0.5964546 0.7920431 2.8080974
v 0.30608734 1.181642 3.2385917
v 0.4691092 0.7905982 3.23859
v 0.8702043 0.009361692 1.9471114
v 0.6014875 -0.38581017 1.5166187
v 0.7771678 0.4011998 2.377604
v 0.7188461 0.40053806 2.8080966
v 0.59150076 0.39909318 3.2385893
v 0.81791997 -0.38412526 1.9471109
v 0.48313013 -0.7800467 1.5166187
v 0.8334863 0.0089451205 2.3776035
v 0.7751645 0.00828336 2.808096
v 0.6478193 0.006838466 3.2385886
v 0.69956255 -0.7783619 1.9471107
v 0.3241425 -1.1747445 1.5166187
v 0.5405748 -1.1730595 1.9471104
v 0.78120196 -0.38454184 2.377603
v 0.72288024 -0.38520348 2.8080952
v 0.59553504 -0.38664848 3.2385874
v 0.6628444 -0.77877855 2.3776026
v 0.50385666 -1.1734759 2.377602
v 0.60452306 -0.7794403 2.8080945
v 0.4771776 -0.78088504 3.2385862
v 0.44553527 -1.1741377 2.8080938
v 0.31818995 -1.1755825 3.2385852
v 0.42416885 0.7900882 3.23859
v 0.261147 1.1811326 3.2385917
v 0.30608734 1.181642 3.2385917
v 0.4691092 0.7905982 3.23859
v 0.5465604 0.39858317 3.2385893
v 0.59150076 0.39909318 3.2385893
v 0.6028789 0.0063285483 3.2385886
v 0.6478193 0.006838466 3.2385886
v 0.59553504 -0.38664848 3.2385874
v 0.55059457 -0.3871584 3.2385874
v 0.4771776 -0.78088504 3.2385862
v 0.43223724 -0.7813951 3.2385862
v 0.31818995 -1.1755825 3.2385852
v 0.27324948 -1.1760925 3.2385852
v 0.38849232 1.1825773 2.8080983
v 0.261147 1.1811326 3.2385917
v 0.42416885 0.7900882 3.23859
v 0.55151427 0.79153305 2.8080974
v 0.4468139 1.1832389 2.3776052
v 0.5465604 0.39858317 3.2385893
v 0.60983586 0.79219484 2.3776045
v 0.4835318 1.1836559 1.9471121
v 0.67390573 0.40002808 2.8080966
v 0.6028789 0.0063285483 3.2385886
v 0.64655375 0.79261136 1.9471116
v 0.26709947 1.1819707 1.5166187
v 0.43012145 0.79092664 1.5166187
v 0.7302244 0.0077734906 2.808096
v 0.55059457 -0.3871584 3.2385874
v 0.73222744 0.40068984 2.377604
v 0.76894534 0.4011065 1.9471114
v 0.552513 0.39942157 1.5166187
v 0.67794 -0.3857135 2.8080952
v 0.43223724 -0.7813951 3.2385862
v 0.78854585 0.008435216 2.3776035
v 0.82526386 0.008851791 1.9471114
v 0.6088314 0.0071669063 1.5166187
v 0.5595826 -0.77995 2.8080945
v 0.27324948 -1.1760925 3.2385852
v 0.40059498 -1.1746477 2.8080938
v 0.7362616 -0.38505182 2.377603
v 0.7729796 -0.3846351 1.9471109
v 0.55654716 -0.38632002 1.5166187
v 0.6179042 -0.7792884 2.3776026
v 0.45891652 -1.173986 2.377602
v 0.6546222 -0.77887183 1.9471107
v 0.43818977 -0.7805567 1.5166187
v 0.49563447 -1.1735692 1.9471104
v 0.27920207 -1.1752541 1.5166187
v 0.44553527 -1.1741377 2.8080938
v 0.50385666 -1.1734759 2.377602
v 0.45891652 -1.173986 2.377602
v 0.40059498 -1.1746477 2.8080938
v 0.38849232 1.1825773 2.8080983
v 0.4468139 1.1832389 2.3776052
v 0.49175426 1.1837488 2.3776052
v 0.43343273 1.1830872 2.8080983
v 0.261147 1.1811326 3.2385917
v 0.38849232 1.1825773 2.8080983
v 0.43343273 1.1830872 2.8080983
v 0.30608734 1.181642 3.2385917
v 0.31818995 -1.1755825 3.2385852
v 0.44553527 -1.1741377 2.8080938
v 0.40059498 -1.1746477 2.8080938
v 0.27324948 -1.1760925 3.2385852
v 0.25348988 1.0961386 3.0835166
v 0.25348988 1.0961386 3.1734412
v 0.26559243 -1.0891083 3.1734407
v 0.26559243 -1.0891083 3.0835166
v 0.25348988 1.0961386 3.1734412
v 0.34341177 1.0970845 3.1734412
v 0.35551426 -1.0881623 3.1734407
v 0.26559243 -1.0891083 3.1734407
v 0.34341177 1.0970845 3.1734412
v 0.34341177 1.0970845 3.0835166
v 0.35551426 -1.0881623 3.0835166
v 0.35551426 -1.0881623 3.1734407
v 0.34341177 1.0970845 3.0835166
v 0.25348988 1.0961386 3.0835166
v 0.26559243 -1.0891083 3.0835166
v 0.35551426 -1.0881623 3.0835166
v 0.25348988 1.0961386 3.1734412
v 0.25348988 1.0961386 3.0835166
v 0.34341177 1.0970845 3.0835166
v 0.34341177 1.0970845 3.1734412
v 0.35551426 -1.0881623 3.1734407
v 0.35551426 -1.0881623 3.0835166
v 0.26559243 -1.0891083 3.0835166
v 0.26559243 -1.0891083 3.1734407
v 0.25348988 1.0961386 2.6357996
v 0.25348988 1.0961386 2.725724
v 0.26559243 -1.0891083 2.725724
v 0.26559243 -1.0891083 2.6357996
v 0.25348988 1.0961386 2.725724
v 0.34341177 1.0970845 2.725724
v 0.35551426 -1.0881623 2.725724
v 0.26559243 -1.0891083 2.725724
v 0.34341177 1.0970845 2.725724
v 0.34341177 1.0970845 2.6357996
v 0.35551426 -1.0881623 2.6357996
v 0.35551426 -1.0881623 2.725724
v 0.34341177 1.0970845 2.6357996
v 0.25348988 1.0961386 2.6357996
v 0.26559243 -1.0891083 2.6357996
v 0.35551426 -1.0881623 2.6357996
v 0.25348988 1.0961386 2.725724
v 0.25348988 1.0961386 2.6357996
v 0.34341177 1.0970845 2.6357996
v 0.34341177 1.0970845 2.725724
v 0.35551426 -1.0881623 2.725724
v 0.35551426 -1.0881623 2.6357996
v 0.26559243 -1.0891083 2.6357996
v 0.26559243 -1.0891083 2.725724
vt 0.375 0.60977983
vt 0.3660696 0.625
vt 0.36787343 0.6314769
vt 0.625 0.6346892
vt 0.625 0.625
vt 0.61224705 0.61934876
vt 0.375 0.1875
vt 0.375 0.25
vt 0.625 0.25
vt 0.62500006 0.18750003
vt 0.375 0.15106511
vt 0.625 0.14180166
vt 0.375 0.09893489
vt 0.625 0.108198345
vt 0.375 0.0625
vt 0.625 0.0625
vt 0.375 0
vt 0.625 0
vt 0.375 0.25
vt 0.625 0.5
vt 0.625 0.25
vt 0.375 0.5
vt 0.62500006 0.56250006
vt 0.375 0.5625
vt 0.625 0.6153108
vt 0.375 0.60977983
vt 0.625 0.6346892
vt 0.375 0.64022017
vt 0.625 0.6875
vt 0.375 0.68749994
vt 0.625 0.75
vt 0.375 0.75
vt 0.625 1
vt 0.375 1
vt 0.125 0.6875
vt 0.125 0.75
vt 0.375 0.75
vt 0.375 0.68749994
vt 0.13953142 0.625
vt 0.125 0.6510651
vt 0.13158534 0.625
vt 0.3660696 0.625
vt 0.37500003 0.64022017
vt 0.375 0.60977983
vt 0.375 0.5625
vt 0.1395314 0.625
vt 0.125 0.5625
vt 0.125 0.5989349
vt 0.125 0.5
vt 0.375 0.5
vt 0.62500006 0.56250006
vt 0.625 0.6153108
vt 0.625 0.625
vt 0.625 0.625
vt 0.625 0.6875
vt 0.625 0.6346892
vt 0.625 0.6875
vt 0.625 0.75
vt 0.625 0.75
vt 0.625 1
vt 0.625 1
vt 0.625 0.625
vt 0.625 0.5625
vt 0.62500006 0.56250006
vt 0.625 0.5
vt 0.625 0.5
vt 0.625 0.25
vt 0.625 0.25
vt 0.625 0.1875
vt 0.62500006 0.18750003
vt 0.625 0.125
vt 0.625 0.0625
vt 0.625 0
vt 0.625 0
vt 0.62500006 0.0625
vt 0.625 0.125
vt 0.625 0.108198345
vt 0.625 0.125
vt 0.625 0.14180166
vt 0.62500006 0.18750003
vt 0.6043911 0.111355364
vt 0.625 1
vt 0.625 1
vt 0.625 0.75
vt 0.625 0.75
vt 0.62499994 0.68749994
vt 0.625 0.6875
vt 0.625 0.625
vt 0.625 0.625
vt 0.625 0.5
vt 0.625 0.25
vt 0.625 0.25
vt 0.625 0.5
vt 0.625 0.5625
vt 0.62499994 0.5625
vt 0.625 0.625
vt 0.625 0.625
vt 0.62500006 0.0625
vt 0.625 0
vt 0.625 0
vt 0.625 0.0625
vt 0.625 0.125
vt 0.625 0.125
vt 0.625 0.1875
vt 0.625 0.1875
vt 0.625 0.25
vt 0.625 0.25
vt 0.375 0
vt 0.375 0.25
vt 0.625 0.25
vt 0.625 0
vt 0.375 0.25
vt 0.375 0.5
vt 0.625 0.5
vt 0.625 0.25
vt 0.375 0.5
vt 0.375 0.75
vt 0.625 0.75
vt 0.625 0.5
vt 0.375 0.75
vt 0.375 1
vt 0.625 1
vt 0.625 0.75
vt 0.125 0.5
vt 0.125 0.75
vt 0.375 0.75
vt 0.375 0.5
vt 0.625 0.5
vt 0.625 0.75
vt 0.875 0.75
vt 0.875 0.5
vt 0.375 0
vt 0.375 0.25
vt 0.625 0.25
vt 0.625 0
vt 0.375 0.25
vt 0.375 0.5
vt 0.625 0.5
vt 0.625 0.25
vt 0.375 0.5
vt 0.375 0.75
vt 0.625 0.75
vt 0.625 0.5
vt 0.375 0.75
vt 0.375 1
vt 0.625 1
vt 0.625 0.75
vt 0.125 0.5
vt 0.125 0.75
vt 0.375 0.75
vt 0.375 0.5
vt 0.625 0.5
vt 0.625 0.75
vt 0.875 0.75
vt 0.875 0.5
vt 0.375 0
vt 0.375 0.25
vt 0.625 0.25
vt 0.625 0
vt 0.375 0.25
vt 0.375 0.5
vt 0.625 0.5
vt 0.625 0.25
vt 0.375 0.5
vt 0.375 0.75
vt 0.625 0.75
vt 0.625 0.5
vt 0.375 0.75
vt 0.375 1
vt 0.625 1
vt 0.625 0.75
vt 0.125 0.5
vt 0.125 0.75
vt 0.375 0.75
vt 0.375 0.5
vt 0.625 0.5
vt 0.625 0.75
vt 0.875 0.75
vt 0.875 0.5
vt 0.375 0
vt 0.375 0.25
vt 0.625 0.25
vt 0.625 0
vt 0.375 0.25
vt 0.375 0.5
vt 0.625 0.5
vt 0.625 0.25
vt 0.375 0.5
vt 0.375 0.75
vt 0.625 0.75
vt 0.625 0.5
vt 0.375 0.75
vt 0.375 1
vt 0.625 1
vt 0.625 0.75
vt 0.625 0.5
vt 0.625 0.75
vt 0.875 0.75
vt 0.875 0.5
vt 0.62499994 0.68749994
vt 0.625 0.75
vt 0.875 0.75
vt 0.875 0.6875
vt 0.875 0.6875
vt 0.62499994 0.68749994
vt 0.875 0.75
vt 0.875 0.6875
vt 0.875 0.6875
vt 0.875 0.75
vt 0.625 0.75
vt 0.625 0.75
vt 0.62499994 0.68749994
vt 0.62499994 0.68749994
vt 0.875 0.5625
vt 0.62499994 0.5625
vt 0.62499994 0.5625
vt 0.875 0.5625
vt 0.875 0.625
vt 0.625 0.625
vt 0.625 0.625
vt 0.875 0.625
vt 0.875 0.625
vt 0.875 0.5625
vt 0.875 0.5625
vt 0.875 0.625
vt 0.62499994 0.5625
vt 0.625 0.625
vt 0.625 0.625
vt 0.62499994 0.5625
vt 0.625 0.5
vt 0.875 0.5625
vt 0.875 0.5
vt 0.62499994 0.5625
vt 0.62499994 0.5625
vt 0.875 0.5625
vt 0.875 0.5
vt 0.625 0.5
vt 0.875 0.5
vt 0.625 0.5
vt 0.62499994 0.5625
vt 0.62499994 0.5625
vt 0.875 0.5625
vt 0.875 0.5
vt 0.875 0.5
vt 0.875 0.5625
vt 0.875 0.625
vt 0.625 0.625
vt 0.625 0.625
vt 0.875 0.625
vt 0.875 0.6875
vt 0.62499994 0.68749994
vt 0.62499994 0.68749994
vt 0.875 0.6875
vt 0.875 0.6875
vt 0.875 0.625
vt 0.875 0.625
vt 0.875 0.6875
vt 0.625 0.625
vt 0.62499994 0.68749994
vt 0.62499994 0.68749994
vt 0.625 0.625
vt 0.375 0
vt 0.375 0.25
vt 0.625 0.25
vt 0.625 0
vt 0.375 0.25
vt 0.375 0.5
vt 0.625 0.5
vt 0.625 0.25
vt 0.375 0.5
vt 0.375 0.75
vt 0.625 0.75
vt 0.625 0.5
vt 0.375 0.75
vt 0.375 1
vt 0.625 1
vt 0.625 0.75
vt 0.125 0.5
vt 0.125 0.75
vt 0.375 0.75
vt 0.375 0.5
vt 0.625 0.5
vt 0.625 0.75
vt 0.875 0.75
vt 0.875 0.5
vt 0.5833333 0.75
vt 0.625 1
vt 0.625 0.75
vt 0.5833333 1
vt 0.5416667 0.75
vt 0.5416666 1
vt 0.5 0.75
vt 0.5 1
vt 0.4583333 0.75
vt 0.45833334 1
vt 0.41666666 0.75
vt 0.4166667 1
vt 0.375 0.75
vt 0.375 1
vt 0.6401707 0.68750006
vt 0.125 0.75
vt 0.375 0.75
vt 0.38140857 0.6862423
vt 0.125 0.625
vt 0.375 0.625
vt 0.6185914 0.68624234
vt 0.625 0.75
vt 0.875 0.75
vt 0.35982934 0.68749994
vt 0.625 0.625
vt 0.875 0.625
vt 0.38140857 0.6862423
vt 0.375 0.75
vt 0.41666666 0.75
vt 0.4220986 0.6860742
vt 0.375 0.625
vt 0.4583333 0.75
vt 0.41666666 0.625
vt 0.38077977 0.5655022
vt 0.46116605 0.68585175
vt 0.5 0.75
vt 0.42152148 0.56587297
vt 0.375 0.5
vt 0.41666666 0.5
vt 0.50000006 0.6858518
vt 0.5416667 0.75
vt 0.4583333 0.625
vt 0.46083525 0.5663534
vt 0.4583333 0.5
vt 0.538834 0.68585175
vt 0.5833333 0.75
vt 0.5 0.625
vt 0.5 0.5663533
vt 0.5 0.5
vt 0.57790136 0.6860742
vt 0.625 0.75
vt 0.6185914 0.68624234
vt 0.5416667 0.625
vt 0.53916466 0.5663534
vt 0.5416667 0.5
vt 0.5833333 0.625
vt 0.625 0.625
vt 0.5784785 0.565873
vt 0.5833333 0.5
vt 0.61922026 0.5655023
vt 0.625 0.5
vt 0.41666666 0.25
vt 0.375 0.25
vt 0.375 0.5
vt 0.41666666 0.5
vt 0.4583333 0.25
vt 0.4583333 0.5
vt 0.5 0.25
vt 0.5 0.5
vt 0.5416667 0.5
vt 0.5416667 0.25
vt 0.5833333 0.5
vt 0.5833333 0.25
vt 0.625 0.5
vt 0.625 0.25
vt 0.38077974 0.18449774
vt 0.375 0.25
vt 0.41666666 0.25
vt 0.4215215 0.184127
vt 0.375 0.125
vt 0.4583333 0.25
vt 0.4166667 0.125
vt 0.38140857 0.06375765
vt 0.46083528 0.18364663
vt 0.5 0.25
vt 0.4220986 0.063925795
vt 0.375 0
vt 0.4166667 0
vt 0.5 0.18364662
vt 0.5416667 0.25
vt 0.4583333 0.125
vt 0.46116608 0.06414827
vt 0.45833334 0
vt 0.5391646 0.1836466
vt 0.5833333 0.25
vt 0.5 0.125
vt 0.5 0.06414826
vt 0.5 0
vt 0.57847834 0.18412697
vt 0.625 0.25
vt 0.61922026 0.18449771
vt 0.5416666 0.125
vt 0.5388339 0.064148255
vt 0.5416666 0
vt 0.5833333 0.125
vt 0.625 0.125
vt 0.57790136 0.0639258
vt 0.5833333 0
vt 0.6185914 0.06375766
vt 0.625 0
vt 0.61922026 0.5655023
vt 0.625 0.625
vt 0.875 0.625
vt 0.37648714 0.5625
vt 0.6235128 0.5625
vt 0.125 0.625
vt 0.375 0.625
vt 0.38077977 0.5655022
vt 0.125 0.5
vt 0.6235128 0.5625
vt 0.38077977 0.5655022
vt 0.375 0.5
vt 0.625 0.5
vt 0.61922026 0.5655023
vt 0.37648714 0.5625
vt 0.875 0.5
vt 0.375 0
vt 0.375 0.25
vt 0.625 0.25
vt 0.625 0
vt 0.375 0.25
vt 0.375 0.5
vt 0.625 0.5
vt 0.625 0.25
vt 0.375 0.5
vt 0.375 0.75
vt 0.625 0.75
vt 0.625 0.5
vt 0.375 0.75
vt 0.375 1
vt 0.625 1
vt 0.625 0.75
vt 0.125 0.5
vt 0.125 0.75
vt 0.375 0.75
vt 0.375 0.5
vt 0.625 0.5
vt 0.625 0.75
vt 0.875 0.75
vt 0.875 0.5
vt 0.375 0
vt 0.375 0.25
vt 0.625 0.25
vt 0.625 0
vt 0.375 0.25
vt 0.375 0.5
vt 0.625 0.5
vt 0.625 0.25
vt 0.375 0.5
vt 0.375 0.75
vt 0.625 0.75
vt 0.625 0.5
vt 0.375 0.75
vt 0.375 1
vt 0.625 1
vt 0.625 0.75
vt 0.125 0.5
vt 0.125 0.75
vt 0.375 0.75
vt 0.375 0.5
vt 0.625 0.5
vt 0.625 0.75
vt 0.875 0.75
vt 0.875 0.5
vn -0 0 -1
vn -0 0 -1
vn -0 0 -1
vn 0.7153898 0 0.69872546
vn 0.7153898 0 0.69872546
vn 0.7153898 0 0.69872546
vn -0.78664726 0.42319098 -0.4495503
vn -0.7446896 0.47740796 -0.46638945
vn -0.7446896 0.47740796 -0.46638945
vn -0.80239075 0.40082952 -0.44215924
vn -0.8742495 0.19265512 -0.44561395
vn -0.8814411 0.14885226 -0.44822383
vn -0.8742495 -0.192655 -0.44561398
vn -0.8814411 -0.14885199 -0.44822377
vn -0.78664726 -0.42319107 -0.4495503
vn -0.80239075 -0.40082967 -0.44215915
vn -0.7446896 -0.47740796 -0.46638945
vn -0.7446896 -0.47740796 -0.46638945
vn -0 0.9277683 -0.3731568
vn 0.39459935 0.8062742 -0.44069624
vn -0 0.9277683 -0.3731568
vn 0.27725065 0.86029804 -0.4278077
vn 0.7155075 0.54305494 -0.43947724
vn 0.68051696 0.58414733 -0.44234437
vn 0.85495883 0.1945229 -0.48083913
vn 0.8399359 0.26593238 -0.47306192
vn 0.85495865 -0.19452393 -0.48083898
vn 0.8399359 -0.26593295 -0.47306177
vn 0.71550775 -0.5430546 -0.43947726
vn 0.6805172 -0.58414716 -0.44234437
vn 0.39459938 -0.8062742 -0.44069624
vn 0.27725068 -0.86029804 -0.4278077
vn -0 -0.9277683 -0.3731568
vn -0 -0.9277683 -0.3731568
vn -0 0 -1
vn -0 0 -1
vn -0 0 -1
vn -0 0 -1
vn -0 0 -1
vn -0 0 -1
vn -0 0 -1
vn -0 0 -1
vn -0 0 -1
vn -0 0 -1
vn -0 0 -1
vn -0 0 -1
vn -0 0 -1
vn -0 0 -1
vn -0 0 -1
vn -0 0 -1
vn -0.092941694 0.3102786 0.9460915
vn -0.04381348 0.3039664 0.9516747
vn -0.045990348 0 0.99894196
vn -0.04599035 0 0.99894196
vn -0.092942655 -0.3102781 0.9460915
vn -0.04381495 -0.30396575 0.95167494
vn -0.13421147 -0.31500423 0.93955284
vn -0.13006032 -0.22389534 0.965896
vn -0.071187176 -0.12254681 0.9899065
vn 0.14713669 -0.2589236 0.95462525
vn 0.085352175 -0.1501984 0.98496467
vn -0.04599035 0 0.99894196
vn -0.13421094 0.31500453 0.93955284
vn -0.092941694 0.3102786 0.9460915
vn -0.071187176 0.12254681 0.9899065
vn -0.13006032 0.22389534 0.965896
vn 0.085352175 0.1501984 0.98496467
vn 0.14713669 0.2589236 0.95462525
vn 0.14510724 0.34618893 0.9268749
vn 0.118694395 0.33576727 0.93443674
vn 0.056251656 0 0.99841666
vn 0.118694395 -0.33576727 0.93443674
vn 0.085352175 -0.1501984 0.98496467
vn 0.14713669 -0.2589236 0.95462525
vn 0.14510724 -0.34618893 0.9268749
vn 0.056251656 0 0.99841666
vn -0.07148398 -0.25892177 0.96324944
vn -0.17241447 0 0.98502445
vn -0.07148398 0.25892177 0.96324944
vn 0.118694395 0.33576727 0.93443674
vn -0.07148398 -0.25892177 0.96324944
vn 0.01260974 0.896689 0.44248152
vn 0.01260974 0.896689 0.44248152
vn -0.28307056 0.84830195 0.44749847
vn -0.3892462 0.8098613 0.43887597
vn -0.6935947 0.60766363 0.3868738
vn -0.73605955 0.56107014 0.3787038
vn -0.7847049 0.49998048 0.36641178
vn -0.7847049 0.49998048 0.36641178
vn -0.4080762 -0.8256869 0.3895061
vn -0.0024168866 -0.9405137 0.33974716
vn -0.0024168866 -0.9405137 0.33974716
vn -0.29723144 -0.8749086 0.3823459
vn -0.7393369 -0.5594914 0.37463376
vn -0.7000958 -0.60474163 0.37967542
vn -0.7847049 -0.49998048 0.36641178
vn -0.7847049 -0.49998048 0.36641178
vn 0.8182361 0.41087922 0.4020797
vn 0.7409513 0.49502602 0.4538067
vn 0.7409513 0.49502602 0.4538067
vn 0.7933025 0.44033256 0.42045018
vn 0.91491723 0 0.40364152
vn 0.91491723 0 0.40364152
vn 0.8237903 -0.4061046 0.39553583
vn 0.8038384 -0.4317841 0.40915316
vn 0.7608453 -0.4816297 0.43491066
vn 0.7608453 -0.4816297 0.43491066
vn -0.9999709 -0.0076319906 0
vn -0.9999709 -0.0076319906 0
vn -0.9999709 -0.0076319906 0
vn -0.9999709 -0.0076319906 0
vn -0.0076319925 0.9999709 0
vn -0.0076319925 0.9999709 0
vn -0.0076319925 0.9999709 0
vn -0.0076319925 0.9999709 0
vn 0.9999709 0.0076317415 0
vn 0.9999709 0.0076317415 0
vn 0.9999709 0.0076317415 0
vn 0.9999709 0.0076317415 0
vn 0.007632243 -0.9999709 0
vn 0.007632243 -0.9999709 0
vn 0.007632243 -0.9999709 0
vn 0.007632243 -0.9999709 0
vn -0 0 -1
vn -0 0 -1
vn -0 0 -1
vn -0 0 -1
vn -0 0 1
vn -0 0 1
vn -0 0 1
vn -0 0 1
vn -0.99438876 0.10578747 0
vn -0.99438876 0.10578747 0
vn -0.99438876 0.10578747 0
vn -0.99438876 0.10578747 0
vn 0.105787545 0.99438876 0
vn 0.105787545 0.99438876 0
vn 0.105787545 0.99438876 0
vn 0.105787545 0.99438876 0
vn 0.99438876 -0.10578758 0
vn 0.99438876 -0.10578758 0
vn 0.99438876 -0.10578758 0
vn 0.99438876 -0.10578758 0
vn -0.10578761 -0.99438876 0
vn -0.10578761 -0.99438876 0
vn -0.10578761 -0.99438876 0
vn -0.10578761 -0.99438876 0
vn -0 0 -1
vn -0 0 -1
vn -0 0 -1
vn -0 0 -1
vn -0 0 1
vn -0 0 1
vn -0 0 1
vn -0 0 1
vn -0.98840815 -0.15182036 0
vn -0.98840815 -0.15182036 0
vn -0.98840815 -0.15182036 0
vn -0.98840815 -0.15182036 0
vn -0.15182035 0.98840815 0
vn -0.15182035 0.98840815 0
vn -0.15182035 0.98840815 0
vn -0.15182035 0.98840815 0
vn 0.98840815 0.15182033 0
vn 0.98840815 0.15182033 0
vn 0.98840815 0.15182033 0
vn 0.98840815 0.15182033 0
vn 0.15182023 -0.98840815 0
vn 0.15182023 -0.98840815 0
vn 0.15182023 -0.98840815 0
vn 0.15182023 -0.98840815 0
vn -0 0 -1
vn -0 0 -1
vn -0 0 -1
vn -0 0 -1
vn -0 0 1
vn -0 0 1
vn -0 0 1
vn -0 0 1
vn -0.93904245 0.3438012 0
vn -0.93904245 0.3438012 0
vn -0.93904245 0.3438012 0
vn -0.93904245 0.3438012 0
vn 0.34380126 0.93904245 0
vn 0.34380126 0.93904245 0
vn 0.34380126 0.93904245 0
vn 0.34380126 0.93904245 0
vn 0.9390423 -0.34380135 0
vn 0.9390423 -0.34380135 0
vn 0.9390423 -0.34380135 0
vn 0.9390423 -0.34380135 0
vn -0.34380135 -0.9390423 0
vn -0.34380135 -0.9390423 0
vn -0.34380135 -0.9390423 0
vn -0.34380135 -0.9390423 0
vn -0 0 1
vn -0 0 1
vn -0 0 1
vn -0 0 1
vn -0 0.45924342 0.8883105
vn -0 0 1
vn -0 0 1
vn -0 0.39223114 0.9198666
vn -0 0.64612716 0.7632298
vn -0 0.64612716 0.7632298
vn -0.2434844 -0.4499672 -0.85921174
vn -0.3860716 -0.39300415 -0.83456355
vn -0.3860716 -0.39300415 -0.83456355
vn -0.13648032 -0.48445484 -0.8641045
vn 0.28433904 -0.5986821 -0.7488197
vn 0.113710254 -0.5578064 -0.8221447
vn 0.4151152 -0.6159513 -0.66953975
vn 0.4151152 -0.6159513 -0.66953975
vn -0 0.6461272 0.7632298
vn -0 0.6461272 0.7632298
vn -0 0.21752824 0.9760541
vn -0 0.2351386 0.97196186
vn -0 -0.3469415 0.9378867
vn -0 -0.38193473 0.92418927
vn -0 -0.6461273 0.7632296
vn -0 -0.6461273 0.7632296
vn -0.70458734 0.38330024 -0.59719163
vn -0.70458734 0.38330024 -0.59719163
vn -0.70458734 0.38330024 -0.59719163
vn -0.70458734 0.38330024 -0.59719163
vn 0.66023815 0.50093585 -0.55959713
vn 0.66023815 0.50093585 -0.55959713
vn 0.66023815 0.50093585 -0.55959713
vn 0.66023815 0.50093585 -0.55959713
vn -0 0 1
vn -0 -0.39223114 0.9198666
vn -0 0 1
vn -0 -0.45924342 0.8883105
vn -0 -0.64612716 0.7632298
vn -0 -0.64612716 0.7632298
vn 0.0028598076 0.98994726 -0.14140825
vn 0.1628685 0.94932246 -0.26881352
vn 0.0028598076 0.98994726 -0.14140825
vn 0.35833427 0.8360311 -0.41551003
vn 0.49475914 0.7033741 -0.51037085
vn 0.49475914 0.7033741 -0.51037085
vn -0.55907726 0.50980616 -0.653858
vn -0.55907726 0.50980616 -0.653858
vn -0.55907726 0.50980616 -0.653858
vn -0.55907726 0.50980616 -0.653858
vn -0 0.6461273 0.7632296
vn -0 0.6461273 0.7632296
vn -0 0.38193473 0.92418927
vn -0 0.3469415 0.9378867
vn -0 -0.23513855 0.97196186
vn -0 -0.21752818 0.9760541
vn -0 -0.64612705 0.76322985
vn -0 -0.64612705 0.76322985
vn -0.7045873 -0.38330022 -0.59719163
vn -0.7045873 -0.38330022 -0.59719163
vn -0.7045873 -0.38330022 -0.59719163
vn -0.7045873 -0.38330022 -0.59719163
vn 0.66023815 -0.5009358 -0.5595971
vn 0.66023815 -0.5009358 -0.5595971
vn 0.66023815 -0.5009358 -0.5595971
vn 0.66023815 -0.5009358 -0.5595971
vn -0.99998474 -0.005538202 0
vn -0.99998474 -0.005538202 0
vn -0.99998474 -0.005538202 0
vn -0.99998474 -0.005538202 0
vn -0 0 1
vn -0 0 1
vn -0 0 1
vn -0 0 1
vn 0.99998474 0.0055381795 0
vn 0.99998474 0.0055381795 0
vn 0.99998474 0.0055381795 0
vn 0.99998474 0.0055381795 0
vn -0 0 -1
vn -0 0 -1
vn -0 0 -1
vn -0 0 -1
vn -0.010518836 0.9999447 0
vn -0.010518836 0.9999447 0
vn -0.010518836 0.9999447 0
vn -0.010518836 0.9999447 0
vn 0.010520167 -0.9999447 0
vn 0.010520167 -0.9999447 0
vn 0.010520167 -0.9999447 0
vn 0.010520167 -0.9999447 0
vn -0 0 -1
vn -0 0 -1
vn -0 0 -1
vn -0 0 -1
vn -0 0 -1
vn -0 0 -1
vn -0 0 -1
vn -0 0 -1
vn -0 0 -1
vn -0 0 -1
vn -0 0 -1
vn -0 0 -1
vn -0 0 -1
vn -0 0 -1
vn -0.011343729 0.99993515 0.0009874831
vn -0.011343123 0.9999341 0.0017896881
vn -0.011343123 0.9999341 0.0017896881
vn -0.011343897 0.9999354 0.0007637378
vn -0.011345888 0.9999356 0
vn -0.011345701 0.9999356 0
vn 0.011343565 -0.9999354 -0.00076242164
vn 0.011340479 -0.9999341 -0.001788156
vn 0.011340479 -0.9999341 -0.001788156
vn 0.011342893 -0.99993515 -0.0009861203
vn 0.011347077 -0.9999356 0
vn 0.011347261 -0.9999356 0
vn 0.9065161 0.37791646 -0.18816954
vn 0.83676815 0.34883955 -0.4220546
vn 0.8480776 0.3129258 -0.4276
vn 0.9253686 0.3341237 -0.17903726
vn 0.9181545 0.38276827 0.1023758
vn 0.8745568 0.20279628 -0.44048175
vn 0.93475175 0.3398961 0.10348787
vn 0.9046308 0.37712997 0.19853474
vn 0.9593321 0.2146206 -0.18335734
vn 0.8934235 0.004597365 -0.4491917
vn 0.9213326 0.3345601 0.19802992
vn 0.89011866 0.37107944 0.2645541
vn 0.9042643 0.3318984 0.26860708
vn 0.98272896 0.005226486 -0.184977
vn 0.8768849 -0.19334608 -0.4401023
vn 0.9697244 0.21944998 0.107126795
vn 0.9548319 0.2156178 0.20446283
vn 0.93626577 0.21517256 0.27768186
vn 0.96164334 -0.20407893 -0.18328635
vn 0.8518941 -0.3030753 -0.4271087
vn 0.99398166 0.0052304454 0.109421656
vn 0.9780669 0.0051672007 0.20822713
vn 0.9589084 0.004884861 0.28367385
vn 0.929234 -0.32326895 -0.17894502
vn 0.8411278 -0.33881357 -0.42155597
vn 0.91101986 -0.366967 -0.18809052
vn 0.9720937 -0.20884429 0.10685461
vn 0.9572363 -0.20516844 0.20397228
vn 0.93872076 -0.20512396 0.27699736
vn 0.93870354 -0.3289504 0.10308884
vn 0.92274225 -0.37168908 0.10195119
vn 0.92532563 -0.32379705 0.19730191
vn 0.9083228 -0.32145268 0.26761544
vn 0.90924823 -0.36625385 0.19780192
vn 0.8947982 -0.3604336 0.26348415
vn -0 0 1
vn -0 0 1
vn -0 0 1
vn -0 0 1
vn -0 0 1
vn -0 0 1
vn -0 0 1
vn -0 0 1
vn -0 0 1
vn -0 0 1
vn -0 0 1
vn -0 0 1
vn -0 0 1
vn -0 0 1
vn -0.9046309 -0.37712988 -0.1985348
vn -0.89011854 -0.3710795 -0.26455417
vn -0.90426415 -0.33189854 -0.2686071
vn -0.9213326 -0.33456013 -0.19802998
vn -0.91815454 -0.38276815 -0.10237572
vn -0.93626565 -0.21517277 -0.27768198
vn -0.93475175 -0.3398961 -0.10348783
vn -0.9065161 -0.3779164 0.18816942
vn -0.9548318 -0.21561792 -0.20446277
vn -0.95890826 -0.0048847157 -0.2836743
vn -0.9253686 -0.33412367 0.17903714
vn -0.83676827 -0.3488395 0.4220542
vn -0.8480777 -0.3129259 0.4275997
vn -0.9780669 -0.005167204 -0.2082271
vn -0.9387206 0.20512427 -0.27699775
vn -0.9697244 -0.21944994 -0.1071267
vn -0.9593321 -0.21462043 0.18335722
vn -0.8745568 -0.20279615 0.44048154
vn -0.9572362 0.20516863 -0.20397235
vn -0.9083227 0.32145262 -0.26761544
vn -0.99398166 -0.0052304957 -0.1094214
vn -0.98272896 -0.005226396 0.18497694
vn -0.8934237 -0.004597199 0.44919154
vn -0.9253255 0.3237971 -0.19730215
vn -0.89479834 0.36043328 -0.26348406
vn -0.90924835 0.3662537 -0.19780219
vn -0.9720937 0.20884421 -0.106854476
vn -0.96164334 0.20407873 0.18328631
vn -0.876885 0.193346 0.44010228
vn -0.93870354 0.3289504 -0.10308888
vn -0.92274225 0.37168905 -0.10195125
vn -0.929234 0.32326892 0.1789452
vn -0.8518939 0.30307543 0.42710876
vn -0.91101974 0.36696708 0.1880908
vn -0.8411276 0.3388138 0.42155617
vn 0.011347908 -0.9999356 0
vn 0.011347077 -0.9999356 0
vn 0.011347261 -0.9999356 0
vn 0.011347726 -0.9999356 0
vn -0.011344143 0.9999356 0
vn -0.011345888 0.9999356 0
vn -0.011345701 0.9999356 0
vn -0.011344857 0.9999356 0
vn -0.011341838 0.99993575 0
vn -0.011344143 0.9999356 0
vn -0.011344857 0.9999356 0
vn -0.011341838 0.99993575 0
vn 0.011347136 -0.9999356 0
vn 0.011347908 -0.9999356 0
vn 0.011347726 -0.9999356 0
vn 0.011347136 -0.9999356 0
vn -0.99998474 -0.005538206 0
vn -0.99998474 -0.005538206 0
vn -0.99998474 -0.005538206 0
vn -0.99998474 -0.005538206 0
vn -0 0 1
vn -0 0 1
vn -0 0 1
vn -0 0 1
vn 0.99998474 0.0055381735 0
vn 0.99998474 0.0055381735 0
vn 0.99998474 0.0055381735 0
vn 0.99998474 0.0055381735 0
vn -0 0 -1
vn -0 0 -1
vn -0 0 -1
vn -0 0 -1
vn -0.010518823 0.9999447 0
vn -0.010518823 0.9999447 0
vn -0.010518823 0.9999447 0
vn -0.010518823 0.9999447 0
vn 0.010520182 -0.9999447 0
vn 0.010520182 -0.9999447 0
vn 0.010520182 -0.9999447 0
vn 0.010520182 -0.9999447 0
vn -0.99998474 -0.005538202 0
vn -0.99998474 -0.005538202 0
vn -0.99998474 -0.005538202 0
vn -0.99998474 -0.005538202 0
vn -0 0 1
vn -0 0 1
vn -0 0 1
vn -0 0 1
vn 0.99998474 0.0055381833 0
vn 0.99998474 0.0055381833 0
vn 0.99998474 0.0055381833 0
vn 0.99998474 0.0055381833 0
vn -0 0 -1
vn -0 0 -1
vn -0 0 -1
vn -0 0 -1
vn -0.010518823 0.9999447 0
vn -0.010518823 0.9999447 0
vn -0.010518823 0.9999447 0
vn -0.010518823 0.9999447 0
vn 0.010520182 -0.9999447 0
vn 0.010520182 -0.9999447 0
vn 0.010520182 -0.9999447 0
vn 0.010520182 -0.9999447 0
g Fishing Boat_0
f 3/3/3 2/2/2 1/1/1
f 6/6/6 5/5/5 4/4/4
f 9/9/9 8/8/8 7/7/7
f 10/10/10 9/9/9 7/7/7
f 10/10/10 7/7/7 11/11/11
f 12/12/12 10/10/10 11/11/11
f 11/11/11 13/13/13 12/12/12
f 13/13/13 14/14/14 12/12/12
f 14/14/14 13/13/13 15/15/15
f 16/16/16 14/14/14 15/15/15
f 16/16/16 15/15/15 17/17/17
f 18/18/18 16/16/16 17/17/17
f 21/21/21 20/20/20 19/19/19
f 20/20/20 22/22/22 19/19/19
f 20/20/20 23/23/23 22/22/22
f 23/23/23 24/24/24 22/22/22
f 23/23/23 25/25/25 24/24/24
f 25/25/25 26/26/26 24/24/24
f 26/26/26 25/25/25 27/27/27
f 28/28/28 26/26/26 27/27/27
f 27/27/27 29/29/29 28/28/28
f 29/29/29 30/30/30 28/28/28
f 29/29/29 31/31/31 30/30/30
f 31/31/31 32/32/32 30/30/30
f 31/31/31 33/33/33 32/32/32
f 33/33/33 34/34/34 32/32/32
f 37/37/37 36/36/36 35/35/35
f 38/38/38 37/37/37 35/35/35
f 38/38/38 35/35/35 39/39/39
f 35/35/35 40/40/40 39/39/39
f 41/41/41 39/39/39 40/40/40
f 38/38/38 39/39/39 42/42/42
f 42/42/42 43/43/43 38/38/38
f 45/45/45 44/44/44 42/42/42
f 42/42/42 46/46/46 45/45/45
f 46/46/46 47/47/47 45/45/45
f 46/46/46 48/48/48 47/47/47
f 45/45/45 47/47/47 49/49/49
f 50/50/50 45/45/45 49/49/49
f 53/53/53 52/52/52 51/51/51
f 51/51/51 54/54/54 53/53/53
f 53/53/53 54/54/54 55/55/55
f 55/55/55 56/56/56 53/53/53
f 54/54/54 57/57/57 55/55/55
f 55/55/55 57/57/57 58/58/58
f 57/57/57 59/59/59 58/58/58
f 58/58/58 59/59/59 60/60/60
f 59/59/59 61/61/61 60/60/60
f 64/64/64 63/63/63 62/62/62
f 65/65/65 63/63/63 64/64/64
f 66/66/66 65/65/65 64/64/64
f 67/67/67 65/65/65 66/66/66
f 68/68/68 67/67/67 66/66/66
f 69/69/69 67/67/67 68/68/68
f 70/70/70 69/69/69 68/68/68
f 71/71/71 69/69/69 70/70/70
f 74/74/74 73/73/73 72/72/72
f 73/73/73 75/75/75 72/72/72
f 72/72/72 75/75/75 76/76/76
f 76/76/76 77/77/77 72/72/72
f 76/76/76 78/78/78 77/77/77
f 79/79/79 78/78/78 76/76/76
f 80/80/80 79/79/79 76/76/76
f 81/81/81 78/78/78 79/79/79
f 84/84/84 83/83/83 82/82/82
f 85/85/85 84/84/84 82/82/82
f 86/86/86 84/84/84 85/85/85
f 87/87/87 86/86/86 85/85/85
f 88/88/88 86/86/86 87/87/87
f 89/89/89 88/88/88 87/87/87
f 92/92/92 91/91/91 90/90/90
f 91/91/91 93/93/93 90/90/90
f 90/90/90 93/93/93 94/94/94
f 93/93/93 95/95/95 94/94/94
f 94/94/94 95/95/95 96/96/96
f 95/95/95 97/97/97 96/96/96
f 100/100/100 99/99/99 98/98/98
f 99/99/99 101/101/101 98/98/98
f 98/98/98 101/101/101 102/102/102
f 101/101/101 103/103/103 102/102/102
f 102/102/102 103/103/103 104/104/104
f 103/103/103 105/105/105 104/104/104
f 104/104/104 105/105/105 106/106/106
f 105/105/105 107/107/107 106/106/106
f 110/110/110 109/109/109 108/108/108
f 111/111/111 110/110/110 108/108/108
f 114/114/114 113/113/113 112/112/112
f 115/115/115 114/114/114 112/112/112
f 118/118/118 117/117/117 116/116/116
f 119/119/119 118/118/118 116/116/116
f 122/122/122 121/121/121 120/120/120
f 123/123/123 122/122/122 120/120/120
f 126/126/126 125/125/125 124/124/124
f 127/127/127 126/126/126 124/124/124
f 130/130/130 129/129/129 128/128/128
f 131/131/131 130/130/130 128/128/128
f 134/134/134 133/133/133 132/132/132
f 135/135/135 134/134/134 132/132/132
f 138/138/138 137/137/137 136/136/136
f 139/139/139 138/138/138 136/136/136
f 142/142/142 141/141/141 140/140/140
f 143/143/143 142/142/142 140/140/140
f 146/146/146 145/145/145 144/144/144
f 147/147/147 146/146/146 144/144/144
f 150/150/150 149/149/149 148/148/148
f 151/151/151 150/150/150 148/148/148
f 154/154/154 153/153/153 152/152/152
f 155/155/155 154/154/154 152/152/152
f 158/158/158 157/157/157 156/156/156
f 159/159/159 158/158/158 156/156/156
f 162/162/162 161/161/161 160/160/160
f 163/163/163 162/162/162 160/160/160
f 166/166/166 165/165/165 164/164/164
f 167/167/167 166/166/166 164/164/164
f 170/170/170 169/169/169 168/168/168
f 171/171/171 170/170/170 168/168/168
f 174/174/174 173/173/173 172/172/172
f 175/175/175 174/174/174 172/172/172
f 178/178/178 177/177/177 176/176/176
f 179/179/179 178/178/178 176/176/176
f 182/182/182 181/181/181 180/180/180
f 183/183/183 182/182/182 180/180/180
f 186/186/186 185/185/185 184/184/184
f 187/187/187 186/186/186 184/184/184
f 190/190/190 189/189/189 188/188/188
f 191/191/191 190/190/190 188/188/188
f 194/194/194 193/193/193 192/192/192
f 195/195/195 194/194/194 192/192/192
f 198/198/198 197/197/197 196/196/196
f 199/199/199 198/198/198 196/196/196
f 202/202/202 201/201/201 200/200/200
f 203/203/203 202/202/202 200/200/200
f 203/203/203 200/200/200 204/204/204
f 200/200/200 205/205/205 204/204/204
f 208/208/208 207/207/207 206/206/206
f 209/209/209 208/208/208 206/206/206
f 209/209/209 206/206/206 210/210/210
f 211/211/211 209/209/209 210/210/210
f 211/211/211 210/210/210 212/212/212
f 213/213/213 211/211/211 212/212/212
f 216/216/216 215/215/215 214/214/214
f 217/217/217 216/216/216 214/214/214
f 217/217/217 218/218/218 216/216/216
f 218/218/218 219/219/219 216/216/216
f 219/219/219 218/218/218 220/220/220
f 218/218/218 221/221/221 220/220/220
f 224/224/224 223/223/223 222/222/222
f 225/225/225 224/224/224 222/222/222
f 228/228/228 227/227/227 226/226/226
f 229/229/229 228/228/228 226/226/226
f 232/232/232 231/231/231 230/230/230
f 231/231/231 233/233/233 230/230/230
f 233/233/233 231/231/231 234/234/234
f 231/231/231 235/235/235 234/234/234
f 238/238/238 237/237/237 236/236/236
f 237/237/237 239/239/239 236/236/236
f 237/237/237 240/240/240 239/239/239
f 240/240/240 241/241/241 239/239/239
f 244/244/244 243/243/243 242/242/242
f 245/245/245 244/244/244 242/242/242
f 248/248/248 247/247/247 246/246/246
f 249/249/249 248/248/248 246/246/246
f 249/249/249 250/250/250 248/248/248
f 250/250/250 251/251/251 248/248/248
f 251/251/251 250/250/250 252/252/252
f 250/250/250 253/253/253 252/252/252
f 256/256/256 255/255/255 254/254/254
f 257/257/257 256/256/256 254/254/254
f 260/260/260 259/259/259 258/258/258
f 261/261/261 260/260/260 258/258/258
f 264/264/264 263/263/263 262/262/262
f 265/265/265 264/264/264 262/262/262
f 268/268/268 267/267/267 266/266/266
f 269/269/269 268/268/268 266/266/266
f 272/272/272 271/271/271 270/270/270
f 273/273/273 272/272/272 270/270/270
f 276/276/276 275/275/275 274/274/274
f 277/277/277 276/276/276 274/274/274
f 280/280/280 279/279/279 278/278/278
f 281/281/281 280/280/280 278/278/278
f 284/284/284 283/283/283 282/282/282
f 285/285/285 284/284/284 282/282/282
f 288/288/288 287/287/287 286/286/286
f 287/287/287 289/289/289 286/286/286
f 286/286/286 289/289/289 290/290/290
f 289/289/289 291/291/291 290/290/290
f 290/290/290 291/291/291 292/292/292
f 291/291/291 293/293/293 292/292/292
f 292/292/292 293/293/293 294/294/294
f 293/293/293 295/295/295 294/294/294
f 294/294/294 295/295/295 296/296/296
f 295/295/295 297/297/297 296/296/296
f 296/296/296 297/297/297 298/298/298
f 297/297/297 299/299/299 298/298/298
f 302/302/302 301/301/301 300/300/300
f 303/303/303 302/302/302 300/300/300
f 303/303/303 300/300/300 304/304/304
f 305/305/305 303/303/303 304/304/304
f 308/308/308 307/307/307 306/306/306
f 309/309/309 308/308/308 306/306/306
f 309/309/309 306/306/306 310/310/310
f 311/311/311 309/309/309 310/310/310
f 314/314/314 313/313/313 312/312/312
f 315/315/315 314/314/314 312/312/312
f 315/315/315 312/312/312 316/316/316
f 317/317/317 314/314/314 315/315/315
f 318/318/318 315/315/315 316/316/316
f 318/318/318 316/316/316 319/319/319
f 320/320/320 317/317/317 315/315/315
f 320/320/320 315/315/315 318/318/318
f 321/321/321 317/317/317 320/320/320
f 322/322/322 318/318/318 319/319/319
f 322/322/322 319/319/319 323/323/323
f 324/324/324 322/322/322 323/323/323
f 325/325/325 321/321/321 320/320/320
f 326/326/326 321/321/321 325/325/325
f 327/327/327 320/320/320 318/318/318
f 327/327/327 318/318/318 322/322/322
f 325/325/325 320/320/320 327/327/327
f 328/328/328 322/322/322 324/324/324
f 328/328/328 327/327/327 322/322/322
f 329/329/329 328/328/328 324/324/324
f 330/330/330 326/326/326 325/325/325
f 331/331/331 326/326/326 330/330/330
f 332/332/332 325/325/325 327/327/327
f 332/332/332 327/327/327 328/328/328
f 330/330/330 325/325/325 332/332/332
f 333/333/333 328/328/328 329/329/329
f 333/333/333 332/332/332 328/328/328
f 334/334/334 333/333/333 329/329/329
f 335/335/335 331/331/331 330/330/330
f 336/336/336 331/331/331 335/335/335
f 337/337/337 336/336/336 335/335/335
f 338/338/338 330/330/330 332/332/332
f 338/338/338 332/332/332 333/333/333
f 335/335/335 330/330/330 338/338/338
f 339/339/339 333/333/333 334/334/334
f 339/339/339 338/338/338 333/333/333
f 340/340/340 339/339/339 334/334/334
f 337/337/337 335/335/335 341/341/341
f 341/341/341 335/335/335 338/338/338
f 341/341/341 338/338/338 339/339/339
f 342/342/342 337/337/337 341/341/341
f 343/343/343 339/339/339 340/340/340
f 343/343/343 341/341/341 339/339/339
f 342/342/342 341/341/341 343/343/343
f 344/344/344 343/343/343 340/340/340
f 345/345/345 342/342/342 343/343/343
f 345/345/345 343/343/343 344/344/344
f 346/346/346 345/345/345 344/344/344
f 349/349/349 348/348/348 347/347/347
f 350/350/350 349/349/349 347/347/347
f 350/350/350 347/347/347 351/351/351
f 352/352/352 350/350/350 351/351/351
f 352/352/352 351/351/351 353/353/353
f 354/354/354 352/352/352 353/353/353
f 355/355/355 354/354/354 353/353/353
f 356/356/356 355/355/355 353/353/353
f 357/357/357 355/355/355 356/356/356
f 358/358/358 357/357/357 356/356/356
f 359/359/359 357/357/357 358/358/358
f 360/360/360 359/359/359 358/358/358
f 363/363/363 362/362/362 361/361/361
f 364/364/364 363/363/363 361/361/361
f 364/364/364 361/361/361 365/365/365
f 366/366/366 363/363/363 364/364/364
f 367/367/367 364/364/364 365/365/365
f 367/367/367 365/365/365 368/368/368
f 369/369/369 366/366/366 364/364/364
f 369/369/369 364/364/364 367/367/367
f 370/370/370 366/366/366 369/369/369
f 371/371/371 367/367/367 368/368/368
f 371/371/371 368/368/368 372/372/372
f 373/373/373 371/371/371 372/372/372
f 374/374/374 370/370/370 369/369/369
f 375/375/375 370/370/370 374/374/374
f 376/376/376 369/369/369 367/367/367
f 376/376/376 367/367/367 371/371/371
f 374/374/374 369/369/369 376/376/376
f 377/377/377 371/371/371 373/373/373
f 377/377/377 376/376/376 371/371/371
f 378/378/378 377/377/377 373/373/373
f 379/379/379 375/375/375 374/374/374
f 380/380/380 375/375/375 379/379/379
f 381/381/381 374/374/374 376/376/376
f 381/381/381 376/376/376 377/377/377
f 379/379/379 374/374/374 381/381/381
f 382/382/382 377/377/377 378/378/378
f 382/382/382 381/381/381 377/377/377
f 383/383/383 382/382/382 378/378/378
f 384/384/384 380/380/380 379/379/379
f 385/385/385 380/380/380 384/384/384
f 386/386/386 385/385/385 384/384/384
f 387/387/387 379/379/379 381/381/381
f 387/387/387 381/381/381 382/382/382
f 384/384/384 379/379/379 387/387/387
f 388/388/388 382/382/382 383/383/383
f 388/388/388 387/387/387 382/382/382
f 389/389/389 388/388/388 383/383/383
f 386/386/386 384/384/384 390/390/390
f 390/390/390 384/384/384 387/387/387
f 390/390/390 387/387/387 388/388/388
f 391/391/391 386/386/386 390/390/390
f 392/392/392 388/388/388 389/389/389
f 392/392/392 390/390/390 388/388/388
f 391/391/391 390/390/390 392/392/392
f 393/393/393 392/392/392 389/389/389
f 394/394/394 391/391/391 392/392/392
f 394/394/394 392/392/392 393/393/393
f 395/395/395 394/394/394 393/393/393
f 398/398/398 397/397/397 396/396/396
f 399/399/399 398/398/398 396/396/396
f 402/402/402 401/401/401 400/400/400
f 403/403/403 402/402/402 400/400/400
f 406/406/406 405/405/405 404/404/404
f 407/407/407 406/406/406 404/404/404
f 410/410/410 409/409/409 408/408/408
f 411/411/411 410/410/410 408/408/408
f 414/414/414 413/413/413 412/412/412
f 415/415/415 414/414/414 412/412/412
f 418/418/418 417/417/417 416/416/416
f 419/419/419 418/418/418 416/416/416
f 422/422/422 421/421/421 420/420/420
f 423/423/423 422/422/422 420/420/420
f 426/426/426 425/425/425 424/424/424
f 427/427/427 426/426/426 424/424/424
f 430/430/430 429/429/429 428/428/428
f 431/431/431 430/430/430 428/428/428
f 434/434/434 433/433/433 432/432/432
f 435/435/435 434/434/434 432/432/432
f 438/438/438 437/437/437 436/436/436
f 439/439/439 438/438/438 436/436/436
f 442/442/442 441/441/441 440/440/440
f 443/443/443 442/442/442 440/440/440
f 446/446/446 445/445/445 444/444/444
f 447/447/447 446/446/446 444/444/444
f 450/450/450 449/449/449 448/448/448
f 451/451/451 450/450/450 448/448/448
f 454/454/454 453/453/453 452/452/452
f 455/455/455 454/454/454 452/452/452
f 458/458/458 457/457/457 456/456/456
f 459/459/459 458/458/458 456/456/456
