g Gate Lvl2 Final Bars
v -2.5852933 -0.15446764 0.4223722
v 2.5853012 -0.22243455 0.30464998
v 2.585301 -0.15446764 0.4223722
v -2.5852933 -0.22243455 0.30464995
v 2.5853012 -0.35836837 0.30465013
v -2.5852933 -0.35836837 0.30465013
v 2.585301 -0.42633528 0.4223722
v -2.5852933 -0.42633528 0.4223722
v 2.585301 -0.35836834 0.54009444
v -2.5852935 -0.35836834 0.5400944
v 2.585301 -0.22243458 0.54009444
v -2.5852935 -0.22243458 0.5400944
v 2.585301 -0.15446764 0.4223722
v -2.5852933 -0.15446764 0.4223722
v 2.5853012 -0.35836837 0.30465013
v 2.585301 -0.42633528 0.4223722
v 2.585301 -0.35836834 0.54009444
v 2.5853012 -0.22243455 0.30464998
v 2.585301 -0.22243458 0.54009444
v 2.585301 -0.15446764 0.4223722
v -2.5852935 -0.35836834 0.5400944
v -2.5852933 -0.42633528 0.4223722
v -2.5852933 -0.35836837 0.30465013
v -2.5852933 -0.22243455 0.30464995
v -2.5852935 -0.22243458 0.5400944
v -2.5852933 -0.15446764 0.4223722
v -2.5852933 -0.15446764 1.1761229
v 2.5853012 -0.22243455 1.0584006
v 2.585301 -0.15446764 1.1761229
v -2.5852933 -0.22243455 1.0584006
v 2.5853012 -0.35836837 1.0584009
v -2.5852933 -0.35836837 1.0584009
v 2.585301 -0.42633528 1.1761229
v -2.5852933 -0.42633528 1.1761229
v 2.585301 -0.35836834 1.2938452
v -2.5852935 -0.35836834 1.293845
v 2.585301 -0.22243458 1.2938452
v -2.5852935 -0.22243458 1.293845
v 2.585301 -0.15446764 1.1761229
v -2.5852933 -0.15446764 1.1761229
v 2.5853012 -0.35836837 1.0584009
v 2.585301 -0.42633528 1.1761229
v 2.585301 -0.35836834 1.2938452
v 2.5853012 -0.22243455 1.0584006
v 2.585301 -0.22243458 1.2938452
v 2.585301 -0.15446764 1.1761229
v -2.5852935 -0.35836834 1.293845
v -2.5852933 -0.42633528 1.1761229
v -2.5852933 -0.35836837 1.0584009
v -2.5852933 -0.22243455 1.0584006
v -2.5852935 -0.22243458 1.293845
v -2.5852933 -0.15446764 1.1761229
v -2.5852933 -0.15446764 1.8948972
v 2.5853012 -0.22243455 1.777175
v 2.585301 -0.15446764 1.8948972
v -2.5852933 -0.22243455 1.777175
v 2.5853012 -0.35836837 1.7771752
v -2.5852933 -0.35836837 1.7771752
v 2.585301 -0.42633528 1.8948972
v -2.5852933 -0.42633528 1.8948972
v 2.585301 -0.35836834 2.0126195
v -2.5852935 -0.35836834 2.0126193
v 2.585301 -0.22243458 2.0126195
v -2.5852935 -0.22243458 2.0126193
v 2.585301 -0.15446764 1.8948972
v -2.5852933 -0.15446764 1.8948972
v 2.5853012 -0.35836837 1.7771752
v 2.585301 -0.42633528 1.8948972
v 2.585301 -0.35836834 2.0126195
v 2.5853012 -0.22243455 1.777175
v 2.585301 -0.22243458 2.0126195
v 2.585301 -0.15446764 1.8948972
v -2.5852935 -0.35836834 2.0126193
v -2.5852933 -0.42633528 1.8948972
v -2.5852933 -0.35836837 1.7771752
v -2.5852933 -0.22243455 1.777175
v -2.5852935 -0.22243458 2.0126193
v -2.5852933 -0.15446764 1.8948972
v -2.5852933 -0.15446764 2.6340885
v 2.5853012 -0.22243455 2.516366
v 2.585301 -0.15446764 2.6340885
v -2.5852933 -0.22243455 2.516366
v 2.5853012 -0.35836837 2.5163665
v -2.5852933 -0.35836837 2.5163665
v 2.585301 -0.42633528 2.6340885
v -2.5852933 -0.42633528 2.6340885
v 2.585301 -0.35836834 2.7518106
v -2.5852935 -0.35836834 2.7518106
v 2.585301 -0.22243458 2.7518106
v -2.5852935 -0.22243458 2.7518106
v 2.585301 -0.15446764 2.6340885
v -2.5852933 -0.15446764 2.6340885
v 2.5853012 -0.35836837 2.5163665
v 2.585301 -0.42633528 2.6340885
v 2.585301 -0.35836834 2.7518106
v 2.5853012 -0.22243455 2.516366
v 2.585301 -0.22243458 2.7518106
v 2.585301 -0.15446764 2.6340885
v -2.5852935 -0.35836834 2.7518106
v -2.5852933 -0.42633528 2.6340885
v -2.5852933 -0.35836837 2.5163665
v -2.5852933 -0.22243455 2.516366
v -2.5852935 -0.22243458 2.7518106
v -2.5852933 -0.15446764 2.6340885
v -2.5875168 -0.15446764 3.3929768
v 2.5875225 -0.22243455 3.2752542
v 2.5875223 -0.15446764 3.3929768
v -2.5875168 -0.22243455 3.2752542
v 2.5875225 -0.35836837 3.2752547
v -2.5875168 -0.35836837 3.2752547
v 2.5875223 -0.42633528 3.3929768
v -2.5875168 -0.42633528 3.3929768
v 2.5875223 -0.35836834 3.5106988
v -2.587517 -0.35836834 3.5106988
v 2.5875223 -0.22243458 3.5106988
v -2.587517 -0.22243458 3.5106988
v 2.5875223 -0.15446764 3.3929768
v -2.5875168 -0.15446764 3.3929768
v 2.5875225 -0.35836837 3.2752547
v 2.5875223 -0.42633528 3.3929768
v 2.5875223 -0.35836834 3.5106988
v 2.5875225 -0.22243455 3.2752542
v 2.5875223 -0.22243458 3.5106988
v 2.5875223 -0.15446764 3.3929768
v -2.587517 -0.35836834 3.5106988
v -2.5875168 -0.42633528 3.3929768
v -2.5875168 -0.35836837 3.2752547
v -2.5875168 -0.22243455 3.2752542
v -2.587517 -0.22243458 3.5106988
v -2.5875168 -0.15446764 3.3929768
v 0.11772561 -0.22243458 3.6042578
v 3.5762787E-06 -0.15446764 3.6042573
v 4.053116E-06 -0.15446764 -0.0048623383
v 0.11772609 -0.22243458 -0.0048623383
v 0.11772561 -0.35836834 3.6042578
v 0.11772609 -0.35836834 -0.0048623383
v 3.5762787E-06 -0.42633528 3.6042573
v 4.053116E-06 -0.42633528 -0.0048623383
v -0.11771846 -0.35836837 3.6042573
v -0.11771798 -0.35836837 -0.0048625767
v -0.117718935 -0.22243455 3.6042573
v -0.11771846 -0.22243455 -0.0048625767
v 3.5762787E-06 -0.15446764 3.6042573
v 4.053116E-06 -0.15446764 -0.0048623383
v 4.053116E-06 -0.42633528 -0.0048623383
v 0.11772609 -0.35836834 -0.0048623383
v 0.11772609 -0.22243458 -0.0048623383
v 4.053116E-06 -0.15446764 -0.0048623383
v -0.11771798 -0.35836837 -0.0048625767
v -0.11771846 -0.22243455 -0.0048625767
v 3.5762787E-06 -0.15446764 3.6042573
v 0.11772561 -0.22243458 3.6042578
v 0.11772561 -0.35836834 3.6042578
v 3.5762787E-06 -0.42633528 3.6042573
v -0.117718935 -0.22243455 3.6042573
v -0.11771846 -0.35836837 3.6042573
v 0.94927037 -0.22243458 3.6042578
v 0.83154833 -0.15446764 3.6042573
v 0.8315488 -0.15446764 -0.0048623383
v 0.94927084 -0.22243458 -0.0048623383
v 0.94927037 -0.35836834 3.6042578
v 0.94927084 -0.35836834 -0.0048623383
v 0.83154833 -0.42633528 3.6042573
v 0.8315488 -0.42633528 -0.0048623383
v 0.7138263 -0.35836837 3.6042573
v 0.7138268 -0.35836837 -0.0048625767
v 0.7138258 -0.22243455 3.6042573
v 0.7138263 -0.22243455 -0.0048625767
v 0.83154833 -0.15446764 3.6042573
v 0.8315488 -0.15446764 -0.0048623383
v 0.8315488 -0.42633528 -0.0048623383
v 0.94927084 -0.35836834 -0.0048623383
v 0.94927084 -0.22243458 -0.0048623383
v 0.8315488 -0.15446764 -0.0048623383
v 0.7138268 -0.35836837 -0.0048625767
v 0.7138263 -0.22243455 -0.0048625767
v 0.83154833 -0.15446764 3.6042573
v 0.94927037 -0.22243458 3.6042578
v 0.94927037 -0.35836834 3.6042578
v 0.83154833 -0.42633528 3.6042573
v 0.7138258 -0.22243455 3.6042573
v 0.7138263 -0.35836837 3.6042573
v 1.8161969 -0.22243458 3.608261
v 1.6984749 -0.15446764 3.6082606
v 1.6984754 -0.15446764 7.4505806E-08
v 1.8161974 -0.22243458 7.4505806E-08
v 1.8161969 -0.35836834 3.608261
v 1.8161974 -0.35836834 7.4505806E-08
v 1.6984749 -0.42633528 3.6082606
v 1.6984754 -0.42633528 7.4505806E-08
v 1.5807528 -0.35836837 3.6082606
v 1.5807533 -0.35836837 -1.6391277E-07
v 1.5807524 -0.22243455 3.6082606
v 1.5807528 -0.22243455 -1.6391277E-07
v 1.6984749 -0.15446764 3.6082606
v 1.6984754 -0.15446764 7.4505806E-08
v 1.6984754 -0.42633528 7.4505806E-08
v 1.8161974 -0.35836834 7.4505806E-08
v 1.8161974 -0.22243458 7.4505806E-08
v 1.6984754 -0.15446764 7.4505806E-08
v 1.5807533 -0.35836837 -1.6391277E-07
v 1.5807528 -0.22243455 -1.6391277E-07
v 1.6984749 -0.15446764 3.6082606
v 1.8161969 -0.22243458 3.608261
v 1.8161969 -0.35836834 3.608261
v 1.6984749 -0.42633528 3.6082606
v 1.5807524 -0.22243455 3.6082606
v 1.5807528 -0.35836837 3.6082606
v -0.74560237 -0.22243458 3.6042578
v -0.8633244 -0.15446764 3.6042573
v -0.8633239 -0.15446764 -0.0048623383
v -0.7456019 -0.22243458 -0.0048623383
v -0.74560237 -0.35836834 3.6042578
v -0.7456019 -0.35836834 -0.0048623383
v -0.8633244 -0.42633528 3.6042573
v -0.8633239 -0.42633528 -0.0048623383
v -0.98104644 -0.35836837 3.6042573
v -0.98104596 -0.35836837 -0.0048625767
v -0.9810469 -0.22243455 3.6042573
v -0.98104644 -0.22243455 -0.0048625767
v -0.8633244 -0.15446764 3.6042573
v -0.8633239 -0.15446764 -0.0048623383
v -0.8633239 -0.42633528 -0.0048623383
v -0.7456019 -0.35836834 -0.0048623383
v -0.7456019 -0.22243458 -0.0048623383
v -0.8633239 -0.15446764 -0.0048623383
v -0.98104596 -0.35836837 -0.0048625767
v -0.98104644 -0.22243455 -0.0048625767
v -0.8633244 -0.15446764 3.6042573
v -0.74560237 -0.22243458 3.6042578
v -0.74560237 -0.35836834 3.6042578
v -0.8633244 -0.42633528 3.6042573
v -0.9810469 -0.22243455 3.6042573
v -0.98104644 -0.35836837 3.6042573
v -1.5641556 -0.22243458 3.608261
v -1.6818776 -0.15446764 3.6082606
v -1.6818771 -0.15446764 7.4505806E-08
v -1.5641551 -0.22243458 7.4505806E-08
v -1.5641556 -0.35836834 3.608261
v -1.5641551 -0.35836834 7.4505806E-08
v -1.6818776 -0.42633528 3.6082606
v -1.6818771 -0.42633528 7.4505806E-08
v -1.7995996 -0.35836837 3.6082606
v -1.7995992 -0.35836837 -1.6391277E-07
v -1.7996001 -0.22243455 3.6082606
v -1.7995996 -0.22243455 -1.6391277E-07
v -1.6818776 -0.15446764 3.6082606
v -1.6818771 -0.15446764 7.4505806E-08
v -1.6818771 -0.42633528 7.4505806E-08
v -1.5641551 -0.35836834 7.4505806E-08
v -1.5641551 -0.22243458 7.4505806E-08
v -1.6818771 -0.15446764 7.4505806E-08
v -1.7995992 -0.35836837 -1.6391277E-07
v -1.7995996 -0.22243455 -1.6391277E-07
v -1.6818776 -0.15446764 3.6082606
v -1.5641556 -0.22243458 3.608261
v -1.5641556 -0.35836834 3.608261
v -1.6818776 -0.42633528 3.6082606
v -1.7996001 -0.22243455 3.6082606
v -1.7995996 -0.35836837 3.6082606
v -2.5875168 0.35867208 3.3929768
v 2.5875225 0.29070517 3.2752542
v 2.5875223 0.35867208 3.3929768
v -2.5875168 0.29070517 3.2752542
v 2.5875225 0.15477136 3.2752547
v -2.5875168 0.15477136 3.2752547
v 2.5875223 0.08680445 3.3929768
v -2.5875168 0.08680445 3.3929768
v 2.5875223 0.15477139 3.5106988
v -2.587517 0.15477139 3.5106988
v 2.5875223 0.29070514 3.5106988
v -2.587517 0.29070514 3.5106988
v 2.5875223 0.35867208 3.3929768
v -2.5875168 0.35867208 3.3929768
v 2.5875225 0.15477136 3.2752547
v 2.5875223 0.08680445 3.3929768
v 2.5875223 0.15477139 3.5106988
v 2.5875225 0.29070517 3.2752542
v 2.5875223 0.29070514 3.5106988
v 2.5875223 0.35867208 3.3929768
v -2.587517 0.15477139 3.5106988
v -2.5875168 0.08680445 3.3929768
v -2.5875168 0.15477136 3.2752547
v -2.5875168 0.29070517 3.2752542
v -2.587517 0.29070514 3.5106988
v -2.5875168 0.35867208 3.3929768
vt 1 0.5
vt 0.8333333 1
vt 1 1
vt 0.8333333 0.5
vt 0.6666666 1
vt 0.6666666 0.5
vt 0.49999994 1
vt 0.49999994 0.5
vt 0.33333325 1
vt 0.33333325 0.5
vt 0.16666658 1
vt 0.16666658 0.5
vt -8.940697E-08 1
vt -8.940697E-08 0.5
vt 0.457846 0.13
vt 0.25 0.010000005
vt 0.042153776 0.13000003
vt 0.45784622 0.37
vt 0.042153776 0.36999997
vt 0.25 0.49
vt 0.5421538 0.13000003
vt 0.75 0.010000005
vt 0.957846 0.13
vt 0.9578462 0.37
vt 0.5421538 0.36999997
vt 0.75 0.49
vt 1 0.5
vt 0.8333333 1
vt 1 1
vt 0.8333333 0.5
vt 0.6666666 1
vt 0.6666666 0.5
vt 0.49999994 1
vt 0.49999994 0.5
vt 0.33333325 1
vt 0.33333325 0.5
vt 0.16666658 1
vt 0.16666658 0.5
vt -8.940697E-08 1
vt -8.940697E-08 0.5
vt 0.457846 0.13
vt 0.25 0.010000005
vt 0.042153776 0.13000003
vt 0.45784622 0.37
vt 0.042153776 0.36999997
vt 0.25 0.49
vt 0.5421538 0.13000003
vt 0.75 0.010000005
vt 0.957846 0.13
vt 0.9578462 0.37
vt 0.5421538 0.36999997
vt 0.75 0.49
vt 1 0.5
vt 0.8333333 1
vt 1 1
vt 0.8333333 0.5
vt 0.6666666 1
vt 0.6666666 0.5
vt 0.49999994 1
vt 0.49999994 0.5
vt 0.33333325 1
vt 0.33333325 0.5
vt 0.16666658 1
vt 0.16666658 0.5
vt -8.940697E-08 1
vt -8.940697E-08 0.5
vt 0.457846 0.13
vt 0.25 0.010000005
vt 0.042153776 0.13000003
vt 0.45784622 0.37
vt 0.042153776 0.36999997
vt 0.25 0.49
vt 0.5421538 0.13000003
vt 0.75 0.010000005
vt 0.957846 0.13
vt 0.9578462 0.37
vt 0.5421538 0.36999997
vt 0.75 0.49
vt 1 0.5
vt 0.8333333 1
vt 1 1
vt 0.8333333 0.5
vt 0.6666666 1
vt 0.6666666 0.5
vt 0.49999994 1
vt 0.49999994 0.5
vt 0.33333325 1
vt 0.33333325 0.5
vt 0.16666658 1
vt 0.16666658 0.5
vt -8.940697E-08 1
vt -8.940697E-08 0.5
vt 0.457846 0.13
vt 0.25 0.010000005
vt 0.042153776 0.13000003
vt 0.45784622 0.37
vt 0.042153776 0.36999997
vt 0.25 0.49
vt 0.5421538 0.13000003
vt 0.75 0.010000005
vt 0.957846 0.13
vt 0.9578462 0.37
vt 0.5421538 0.36999997
vt 0.75 0.49
vt 1 0.5
vt 0.8333333 1
vt 1 1
vt 0.8333333 0.5
vt 0.6666666 1
vt 0.6666666 0.5
vt 0.49999994 1
vt 0.49999994 0.5
vt 0.33333325 1
vt 0.33333325 0.5
vt 0.16666658 1
vt 0.16666658 0.5
vt -8.940697E-08 1
vt -8.940697E-08 0.5
vt 0.457846 0.13
vt 0.25 0.010000005
vt 0.042153776 0.13000003
vt 0.45784622 0.37
vt 0.042153776 0.36999997
vt 0.25 0.49
vt 0.5421538 0.13000003
vt 0.75 0.010000005
vt 0.957846 0.13
vt 0.9578462 0.37
vt 0.5421538 0.36999997
vt 0.75 0.49
vt 0.16666658 0.5
vt -8.940697E-08 0.5
vt -8.940697E-08 1
vt 0.16666658 1
vt 0.33333325 0.5
vt 0.33333325 1
vt 0.49999994 0.5
vt 0.49999994 1
vt 0.6666666 0.5
vt 0.6666666 1
vt 0.8333333 0.5
vt 0.8333333 1
vt 1 0.5
vt 1 1
vt 0.25 0.010000005
vt 0.042153776 0.13000003
vt 0.042153776 0.36999997
vt 0.25 0.49
vt 0.457846 0.13
vt 0.45784622 0.37
vt 0.75 0.49
vt 0.5421538 0.36999997
vt 0.5421538 0.13000003
vt 0.75 0.010000005
vt 0.9578462 0.37
vt 0.957846 0.13
vt 0.16666658 0.5
vt -8.940697E-08 0.5
vt -8.940697E-08 1
vt 0.16666658 1
vt 0.33333325 0.5
vt 0.33333325 1
vt 0.49999994 0.5
vt 0.49999994 1
vt 0.6666666 0.5
vt 0.6666666 1
vt 0.8333333 0.5
vt 0.8333333 1
vt 1 0.5
vt 1 1
vt 0.25 0.010000005
vt 0.042153776 0.13000003
vt 0.042153776 0.36999997
vt 0.25 0.49
vt 0.457846 0.13
vt 0.45784622 0.37
vt 0.75 0.49
vt 0.5421538 0.36999997
vt 0.5421538 0.13000003
vt 0.75 0.010000005
vt 0.9578462 0.37
vt 0.957846 0.13
vt 0.16666658 0.5
vt -8.940697E-08 0.5
vt -8.940697E-08 1
vt 0.16666658 1
vt 0.33333325 0.5
vt 0.33333325 1
vt 0.49999994 0.5
vt 0.49999994 1
vt 0.6666666 0.5
vt 0.6666666 1
vt 0.8333333 0.5
vt 0.8333333 1
vt 1 0.5
vt 1 1
vt 0.25 0.010000005
vt 0.042153776 0.13000003
vt 0.042153776 0.36999997
vt 0.25 0.49
vt 0.457846 0.13
vt 0.45784622 0.37
vt 0.75 0.49
vt 0.5421538 0.36999997
vt 0.5421538 0.13000003
vt 0.75 0.010000005
vt 0.9578462 0.37
vt 0.957846 0.13
vt 0.16666658 0.5
vt -8.940697E-08 0.5
vt -8.940697E-08 1
vt 0.16666658 1
vt 0.33333325 0.5
vt 0.33333325 1
vt 0.49999994 0.5
vt 0.49999994 1
vt 0.6666666 0.5
vt 0.6666666 1
vt 0.8333333 0.5
vt 0.8333333 1
vt 1 0.5
vt 1 1
vt 0.25 0.010000005
vt 0.042153776 0.13000003
vt 0.042153776 0.36999997
vt 0.25 0.49
vt 0.457846 0.13
vt 0.45784622 0.37
vt 0.75 0.49
vt 0.5421538 0.36999997
vt 0.5421538 0.13000003
vt 0.75 0.010000005
vt 0.9578462 0.37
vt 0.957846 0.13
vt 0.16666658 0.5
vt -8.940697E-08 0.5
vt -8.940697E-08 1
vt 0.16666658 1
vt 0.33333325 0.5
vt 0.33333325 1
vt 0.49999994 0.5
vt 0.49999994 1
vt 0.6666666 0.5
vt 0.6666666 1
vt 0.8333333 0.5
vt 0.8333333 1
vt 1 0.5
vt 1 1
vt 0.25 0.010000005
vt 0.042153776 0.13000003
vt 0.042153776 0.36999997
vt 0.25 0.49
vt 0.457846 0.13
vt 0.45784622 0.37
vt 0.75 0.49
vt 0.5421538 0.36999997
vt 0.5421538 0.13000003
vt 0.75 0.010000005
vt 0.9578462 0.37
vt 0.957846 0.13
vt 1 0.5
vt 0.8333333 1
vt 1 1
vt 0.8333333 0.5
vt 0.6666666 1
vt 0.6666666 0.5
vt 0.49999994 1
vt 0.49999994 0.5
vt 0.33333325 1
vt 0.33333325 0.5
vt 0.16666658 1
vt 0.16666658 0.5
vt -8.940697E-08 1
vt -8.940697E-08 0.5
vt 0.457846 0.13
vt 0.25 0.010000005
vt 0.042153776 0.13000003
vt 0.45784622 0.37
vt 0.042153776 0.36999997
vt 0.25 0.49
vt 0.5421538 0.13000003
vt 0.75 0.010000005
vt 0.957846 0.13
vt 0.9578462 0.37
vt 0.5421538 0.36999997
vt 0.75 0.49
vn -0 1 0
vn -0 0.49999934 -0.8660258
vn -0 1 0
vn -0 0.4999996 -0.8660256
vn -0 -0.50000006 -0.8660253
vn -0 -0.5000003 -0.86602527
vn -0 -1 0
vn -0 -1 0
vn -0 -0.50000006 0.8660253
vn -0 -0.49999973 0.8660255
vn -0 0.50000006 0.8660253
vn -0 0.49999973 0.8660255
vn -0 1 0
vn -0 1 0
vn 1 0 0
vn 1 0 0
vn 1 0 0
vn 1 0 0
vn 1 0 0
vn 1 0 0
vn -1 0 0
vn -1 0 0
vn -1 0 0
vn -1 0 0
vn -1 0 0
vn -1 0 0
vn -0 1 0
vn -0 0.49999917 -0.86602587
vn -0 1 0
vn -0 0.4999995 -0.8660258
vn -0 -0.50000024 -0.86602527
vn -0 -0.50000054 -0.86602515
vn -0 -1 0
vn -0 -1 0
vn -0 -0.50000006 0.8660253
vn -0 -0.49999973 0.8660255
vn -0 0.50000006 0.8660253
vn -0 0.49999973 0.8660255
vn -0 1 0
vn -0 1 0
vn 1 0 0
vn 1 0 0
vn 1 0 0
vn 1 0 0
vn 1 0 0
vn 1 0 0
vn -1 0 0
vn -1 0 0
vn -1 0 0
vn -1 0 0
vn -1 0 0
vn -1 0 0
vn -0 1 0
vn -0 0.49999917 -0.86602587
vn -0 1 0
vn -0 0.4999995 -0.8660258
vn -0 -0.50000024 -0.86602527
vn -0 -0.50000054 -0.86602515
vn -0 -1 0
vn -0 -1 0
vn -0 -0.4999999 0.8660255
vn -0 -0.49999964 0.8660256
vn -0 0.4999999 0.8660255
vn -0 0.49999964 0.8660256
vn -0 1 0
vn -0 1 0
vn 1 0 0
vn 1 0 0
vn 1 0 0
vn 1 0 0
vn 1 0 0
vn 1 0 0
vn -1 0 0
vn -1 0 0
vn -1 0 0
vn -1 0 0
vn -1 0 0
vn -1 0 0
vn -0 1 0
vn -0 0.49999875 -0.86602604
vn -0 1 0
vn -0 0.49999908 -0.866026
vn -0 -0.50000095 -0.8660248
vn -0 -0.50000125 -0.8660246
vn -0 -1 0
vn -0 -1 0
vn -0 -0.49999973 0.8660255
vn -0 -0.4999995 0.8660257
vn -0 0.49999973 0.8660255
vn -0 0.4999995 0.8660257
vn -0 1 0
vn -0 1 0
vn 1 0 0
vn 1 0 0
vn 1 0 0
vn 1 0 0
vn 1 0 0
vn 1 0 0
vn -1 0 0
vn -1 0 0
vn -1 0 0
vn -1 0 0
vn -1 0 0
vn -1 0 0
vn -0 1 0
vn -0 0.4999988 -0.86602604
vn -0 1 0
vn -0 0.49999914 -0.86602587
vn -0 -0.5000011 -0.8660248
vn -0 -0.5000014 -0.8660246
vn -0 -1 0
vn -0 -1 0
vn -0 -0.4999999 0.8660255
vn -0 -0.49999952 0.8660257
vn -0 0.49999973 0.8660255
vn -0 0.4999995 0.8660257
vn -0 1 0
vn -0 1 0
vn 1 0 0
vn 1 0 0
vn 1 0 0
vn 1 0 0
vn 1 0 0
vn 1 0 0
vn -1 0 0
vn -1 0 0
vn -1 0 0
vn -1 0 0
vn -1 0 0
vn -1 0 0
vn 0.86602587 0.49999923 0
vn -0 1 0
vn -0 1 0
vn 0.8660256 0.49999976 0
vn 0.86602587 -0.49999923 0
vn 0.8660256 -0.49999976 0
vn -0 -1 0
vn -0 -1 0
vn -0.8660246 -0.5000013 0
vn -0.8660248 -0.5000011 0
vn -0.866026 0.49999908 0
vn -0.86602604 0.4999988 0
vn -0 1 0
vn -0 1 0
vn -0 0 -1
vn -0 0 -1
vn -0 0 -1
vn -0 0 -1
vn -0 0 -1
vn -0 0 -1
vn -0 0 1
vn -0 0 1
vn -0 0 1
vn -0 0 1
vn -0 0 1
vn -0 0 1
vn 0.86602587 0.49999923 0
vn -0 1 0
vn -0 1 0
vn 0.8660256 0.49999976 0
vn 0.86602587 -0.49999923 0
vn 0.8660256 -0.49999976 0
vn -0 -1 0
vn -0 -1 0
vn -0.8660246 -0.50000125 0
vn -0.8660248 -0.500001 0
vn -0.866026 0.49999908 0
vn -0.86602604 0.49999875 0
vn -0 1 0
vn -0 1 0
vn -0 0 -1
vn -0 0 -1
vn -0 0 -1
vn -0 0 -1
vn -0 0 -1
vn -0 0 -1
vn -0 0 1
vn -0 0 1
vn -0 0 1
vn -0 0 1
vn -0 0 1
vn -0 0 1
vn 0.8660258 0.49999925 0
vn -0 1 0
vn -0 1 0
vn 0.8660256 0.49999976 0
vn 0.8660258 -0.49999925 0
vn 0.8660256 -0.49999976 0
vn -0 -1 0
vn -0 -1 0
vn -0.86602455 -0.5000015 0
vn -0.86602473 -0.50000125 0
vn -0.86602604 0.49999896 0
vn -0.86602616 0.49999872 0
vn -0 1 0
vn -0 1 0
vn -0 0 -1
vn -0 0 -1
vn -0 0 -1
vn -0 0 -1
vn -0 0 -1
vn -0 0 -1
vn -0 0 1
vn -0 0 1
vn -0 0 1
vn -0 0 1
vn -0 0 1
vn -0 0 1
vn 0.8660258 0.49999928 0
vn -0 1 0
vn -0 1 0
vn 0.8660255 0.4999998 0
vn 0.8660258 -0.49999928 0
vn 0.8660255 -0.4999998 0
vn -0 -1 0
vn -0 -1 0
vn -0.8660246 -0.50000125 0
vn -0.8660248 -0.500001 0
vn -0.866026 0.49999908 0
vn -0.86602604 0.49999875 0
vn -0 1 0
vn -0 1 0
vn -0 0 -1
vn -0 0 -1
vn -0 0 -1
vn -0 0 -1
vn -0 0 -1
vn -0 0 -1
vn -0 0 1
vn -0 0 1
vn -0 0 1
vn -0 0 1
vn -0 0 1
vn -0 0 1
vn 0.8660258 0.49999934 0
vn -0 1 0
vn -0 1 0
vn 0.86602545 0.49999997 0
vn 0.8660258 -0.49999934 0
vn 0.86602545 -0.49999997 0
vn -0 -1 0
vn -0 -1 0
vn -0.8660246 -0.5000013 0
vn -0.8660248 -0.5000011 0
vn -0.86602616 0.49999878 0
vn -0.8660262 0.4999985 0
vn -0 1 0
vn -0 1 0
vn -0 0 -1
vn -0 0 -1
vn -0 0 -1
vn -0 0 -1
vn -0 0 -1
vn -0 0 -1
vn -0 0 1
vn -0 0 1
vn -0 0 1
vn -0 0 1
vn -0 0 1
vn -0 0 1
vn -0 1 0
vn -0 0.49999872 -0.86602616
vn -0 1 0
vn -0 0.499999 -0.866026
vn -0 -0.5000011 -0.8660248
vn -0 -0.5000014 -0.8660246
vn -0 -1 0
vn -0 -1 0
vn -0 -0.49999976 0.8660256
vn -0 -0.49999943 0.8660258
vn -0 0.49999964 0.8660256
vn -0 0.49999934 0.8660258
vn -0 1 0
vn -0 1 0
vn 1 0 0
vn 1 0 0
vn 1 0 0
vn 1 0 0
vn 1 0 0
vn 1 0 0
vn -1 0 0
vn -1 0 0
vn -1 0 0
vn -1 0 0
vn -1 0 0
vn -1 0 0
g Gate Lvl2 Final Bars_0
f 3/3/3 2/2/2 1/1/1
f 2/2/2 4/4/4 1/1/1
f 2/2/2 5/5/5 4/4/4
f 5/5/5 6/6/6 4/4/4
f 5/5/5 7/7/7 6/6/6
f 7/7/7 8/8/8 6/6/6
f 7/7/7 9/9/9 8/8/8
f 9/9/9 10/10/10 8/8/8
f 9/9/9 11/11/11 10/10/10
f 11/11/11 12/12/12 10/10/10
f 11/11/11 13/13/13 12/12/12
f 13/13/13 14/14/14 12/12/12
f 17/17/17 16/16/16 15/15/15
f 15/15/15 18/18/18 17/17/17
f 18/18/18 19/19/19 17/17/17
f 18/18/18 20/20/20 19/19/19
f 23/23/23 22/22/22 21/21/21
f 21/21/21 24/24/24 23/23/23
f 21/21/21 25/25/25 24/24/24
f 25/25/25 26/26/26 24/24/24
f 29/29/29 28/28/28 27/27/27
f 28/28/28 30/30/30 27/27/27
f 28/28/28 31/31/31 30/30/30
f 31/31/31 32/32/32 30/30/30
f 31/31/31 33/33/33 32/32/32
f 33/33/33 34/34/34 32/32/32
f 33/33/33 35/35/35 34/34/34
f 35/35/35 36/36/36 34/34/34
f 35/35/35 37/37/37 36/36/36
f 37/37/37 38/38/38 36/36/36
f 37/37/37 39/39/39 38/38/38
f 39/39/39 40/40/40 38/38/38
f 43/43/43 42/42/42 41/41/41
f 41/41/41 44/44/44 43/43/43
f 44/44/44 45/45/45 43/43/43
f 44/44/44 46/46/46 45/45/45
f 49/49/49 48/48/48 47/47/47
f 47/47/47 50/50/50 49/49/49
f 47/47/47 51/51/51 50/50/50
f 51/51/51 52/52/52 50/50/50
f 55/55/55 54/54/54 53/53/53
f 54/54/54 56/56/56 53/53/53
f 54/54/54 57/57/57 56/56/56
f 57/57/57 58/58/58 56/56/56
f 57/57/57 59/59/59 58/58/58
f 59/59/59 60/60/60 58/58/58
f 59/59/59 61/61/61 60/60/60
f 61/61/61 62/62/62 60/60/60
f 61/61/61 63/63/63 62/62/62
f 63/63/63 64/64/64 62/62/62
f 63/63/63 65/65/65 64/64/64
f 65/65/65 66/66/66 64/64/64
f 69/69/69 68/68/68 67/67/67
f 67/67/67 70/70/70 69/69/69
f 70/70/70 71/71/71 69/69/69
f 70/70/70 72/72/72 71/71/71
f 75/75/75 74/74/74 73/73/73
f 73/73/73 76/76/76 75/75/75
f 73/73/73 77/77/77 76/76/76
f 77/77/77 78/78/78 76/76/76
f 81/81/81 80/80/80 79/79/79
f 80/80/80 82/82/82 79/79/79
f 80/80/80 83/83/83 82/82/82
f 83/83/83 84/84/84 82/82/82
f 83/83/83 85/85/85 84/84/84
f 85/85/85 86/86/86 84/84/84
f 85/85/85 87/87/87 86/86/86
f 87/87/87 88/88/88 86/86/86
f 87/87/87 89/89/89 88/88/88
f 89/89/89 90/90/90 88/88/88
f 89/89/89 91/91/91 90/90/90
f 91/91/91 92/92/92 90/90/90
f 95/95/95 94/94/94 93/93/93
f 93/93/93 96/96/96 95/95/95
f 96/96/96 97/97/97 95/95/95
f 96/96/96 98/98/98 97/97/97
f 101/101/101 100/100/100 99/99/99
f 99/99/99 102/102/102 101/101/101
f 99/99/99 103/103/103 102/102/102
f 103/103/103 104/104/104 102/102/102
f 107/107/107 106/106/106 105/105/105
f 106/106/106 108/108/108 105/105/105
f 106/106/106 109/109/109 108/108/108
f 109/109/109 110/110/110 108/108/108
f 109/109/109 111/111/111 110/110/110
f 111/111/111 112/112/112 110/110/110
f 111/111/111 113/113/113 112/112/112
f 113/113/113 114/114/114 112/112/112
f 113/113/113 115/115/115 114/114/114
f 115/115/115 116/116/116 114/114/114
f 115/115/115 117/117/117 116/116/116
f 117/117/117 118/118/118 116/116/116
f 121/121/121 120/120/120 119/119/119
f 119/119/119 122/122/122 121/121/121
f 122/122/122 123/123/123 121/121/121
f 122/122/122 124/124/124 123/123/123
f 127/127/127 126/126/126 125/125/125
f 125/125/125 128/128/128 127/127/127
f 125/125/125 129/129/129 128/128/128
f 129/129/129 130/130/130 128/128/128
f 133/133/133 132/132/132 131/131/131
f 134/134/134 133/133/133 131/131/131
f 134/134/134 131/131/131 135/135/135
f 136/136/136 134/134/134 135/135/135
f 136/136/136 135/135/135 137/137/137
f 138/138/138 136/136/136 137/137/137
f 138/138/138 137/137/137 139/139/139
f 140/140/140 138/138/138 139/139/139
f 140/140/140 139/139/139 141/141/141
f 142/142/142 140/140/140 141/141/141
f 142/142/142 141/141/141 143/143/143
f 144/144/144 142/142/142 143/143/143
f 147/147/147 146/146/146 145/145/145
f 145/145/145 148/148/148 147/147/147
f 145/145/145 149/149/149 148/148/148
f 149/149/149 150/150/150 148/148/148
f 153/153/153 152/152/152 151/151/151
f 151/151/151 154/154/154 153/153/153
f 151/151/151 155/155/155 154/154/154
f 155/155/155 156/156/156 154/154/154
f 159/159/159 158/158/158 157/157/157
f 160/160/160 159/159/159 157/157/157
f 160/160/160 157/157/157 161/161/161
f 162/162/162 160/160/160 161/161/161
f 162/162/162 161/161/161 163/163/163
f 164/164/164 162/162/162 163/163/163
f 164/164/164 163/163/163 165/165/165
f 166/166/166 164/164/164 165/165/165
f 166/166/166 165/165/165 167/167/167
f 168/168/168 166/166/166 167/167/167
f 168/168/168 167/167/167 169/169/169
f 170/170/170 168/168/168 169/169/169
f 173/173/173 172/172/172 171/171/171
f 171/171/171 174/174/174 173/173/173
f 171/171/171 175/175/175 174/174/174
f 175/175/175 176/176/176 174/174/174
f 179/179/179 178/178/178 177/177/177
f 177/177/177 180/180/180 179/179/179
f 177/177/177 181/181/181 180/180/180
f 181/181/181 182/182/182 180/180/180
f 185/185/185 184/184/184 183/183/183
f 186/186/186 185/185/185 183/183/183
f 186/186/186 183/183/183 187/187/187
f 188/188/188 186/186/186 187/187/187
f 188/188/188 187/187/187 189/189/189
f 190/190/190 188/188/188 189/189/189
f 190/190/190 189/189/189 191/191/191
f 192/192/192 190/190/190 191/191/191
f 192/192/192 191/191/191 193/193/193
f 194/194/194 192/192/192 193/193/193
f 194/194/194 193/193/193 195/195/195
f 196/196/196 194/194/194 195/195/195
f 199/199/199 198/198/198 197/197/197
f 197/197/197 200/200/200 199/199/199
f 197/197/197 201/201/201 200/200/200
f 201/201/201 202/202/202 200/200/200
f 205/205/205 204/204/204 203/203/203
f 203/203/203 206/206/206 205/205/205
f 203/203/203 207/207/207 206/206/206
f 207/207/207 208/208/208 206/206/206
f 211/211/211 210/210/210 209/209/209
f 212/212/212 211/211/211 209/209/209
f 212/212/212 209/209/209 213/213/213
f 214/214/214 212/212/212 213/213/213
f 214/214/214 213/213/213 215/215/215
f 216/216/216 214/214/214 215/215/215
f 216/216/216 215/215/215 217/217/217
f 218/218/218 216/216/216 217/217/217
f 218/218/218 217/217/217 219/219/219
f 220/220/220 218/218/218 219/219/219
f 220/220/220 219/219/219 221/221/221
f 222/222/222 220/220/220 221/221/221
f 225/225/225 224/224/224 223/223/223
f 223/223/223 226/226/226 225/225/225
f 223/223/223 227/227/227 226/226/226
f 227/227/227 228/228/228 226/226/226
f 231/231/231 230/230/230 229/229/229
f 229/229/229 232/232/232 231/231/231
f 229/229/229 233/233/233 232/232/232
f 233/233/233 234/234/234 232/232/232
f 237/237/237 236/236/236 235/235/235
f 238/238/238 237/237/237 235/235/235
f 238/238/238 235/235/235 239/239/239
f 240/240/240 238/238/238 239/239/239
f 240/240/240 239/239/239 241/241/241
f 242/242/242 240/240/240 241/241/241
f 242/242/242 241/241/241 243/243/243
f 244/244/244 242/242/242 243/243/243
f 244/244/244 243/243/243 245/245/245
f 246/246/246 244/244/244 245/245/245
f 246/246/246 245/245/245 247/247/247
f 248/248/248 246/246/246 247/247/247
f 251/251/251 250/250/250 249/249/249
f 249/249/249 252/252/252 251/251/251
f 249/249/249 253/253/253 252/252/252
f 253/253/253 254/254/254 252/252/252
f 257/257/257 256/256/256 255/255/255
f 255/255/255 258/258/258 257/257/257
f 255/255/255 259/259/259 258/258/258
f 259/259/259 260/260/260 258/258/258
f 263/263/263 262/262/262 261/261/261
f 262/262/262 264/264/264 261/261/261
f 262/262/262 265/265/265 264/264/264
f 265/265/265 266/266/266 264/264/264
f 265/265/265 267/267/267 266/266/266
f 267/267/267 268/268/268 266/266/266
f 267/267/267 269/269/269 268/268/268
f 269/269/269 270/270/270 268/268/268
f 269/269/269 271/271/271 270/270/270
f 271/271/271 272/272/272 270/270/270
f 271/271/271 273/273/273 272/272/272
f 273/273/273 274/274/274 272/272/272
f 277/277/277 276/276/276 275/275/275
f 275/275/275 278/278/278 277/277/277
f 278/278/278 279/279/279 277/277/277
f 278/278/278 280/280/280 279/279/279
f 283/283/283 282/282/282 281/281/281
f 281/281/281 284/284/284 283/283/283
f 281/281/281 285/285/285 284/284/284
f 285/285/285 286/286/286 284/284/284
