g Graveyard Tower
v -0.0072669704 -0.31392238 26.460316
v -0.13075095 -0.44675457 28.87617
v -0.2471209 -0.31424677 26.45848
v -0.24676621 -0.55405456 26.452244
v -0.13075095 -0.44675457 28.87617
v -0.0069122715 -0.55373013 26.454077
v -0.2471209 -0.31424677 26.45848
v -0.13075095 -0.44675457 28.87617
v -0.24676621 -0.55405456 26.452244
v -0.0069122715 -0.55373013 26.454077
v -0.13075095 -0.44675457 28.87617
v -0.0072669704 -0.31392238 26.460316
v 0.7099478 0.5121617 17.254755
v 0.7122918 -1.0752401 17.213457
v -0.0913582 -0.46909377 26.432898
v -0.09146306 -0.39805108 26.434746
v 0.7122918 -1.0752401 17.213457
v -0.8754199 -1.077384 17.201303
v -0.16241415 -0.46918994 26.432354
v -0.0913582 -0.46909377 26.432898
v -0.87776005 0.5100176 17.242601
v 0.7099478 0.5121617 17.254755
v -0.09146306 -0.39805108 26.434746
v -0.16251977 -0.39814723 26.434202
v -0.87776005 0.5100176 17.242601
v -1.0704201 0.70209277 17.246136
v 0.9020371 0.70475644 17.261232
v 0.7099478 0.5121617 17.254755
v 0.90494883 -1.2673154 17.209925
v 0.7122918 -1.0752401 17.213457
v -1.0675087 -1.2699788 17.194824
v -0.8754199 -1.077384 17.201303
v -1.0704201 0.70209277 17.246136
v -0.87776005 0.5100176 17.242601
v -0.87546986 0.51785314 16.76495
v -1.0681235 0.7099285 16.768482
v -1.0652151 -1.2621435 16.717175
v -0.8731259 -1.0695487 16.723652
v 0.90724283 -1.2594799 16.732275
v 0.71458465 -1.0674044 16.735802
v 0.9043299 0.71259236 16.783579
v 0.71224445 0.51999646 16.777103
v -1.0681235 0.7099285 16.768482
v -0.87546986 0.51785314 16.76495
v 0.5243469 0.5313557 16.528587
v 0.52459145 0.3903429 16.51807
v 0.6550574 0.56395507 12.828812
v 0.65481603 0.7049674 12.839328
v 0.7239702 0.27966025 16.449505
v 0.5953881 0.27958927 16.442284
v 0.597006 -0.8165722 16.413765
v 0.7255875 -0.8165013 16.420986
v -0.69200885 -1.0726389 16.48947
v -0.69218034 -0.93298066 16.486332
v -0.7877938 -0.9857681 12.765659
v -0.7876198 -1.125427 12.768796
v -0.9768887 0.50592923 12.822002
v -0.81623083 0.5062736 12.815443
v -0.8141138 -0.928341 12.778119
v -0.9747715 -0.92868525 12.784678
v -1.0652151 -1.2621435 16.717175
v -1.0681235 0.7099285 16.768482
v -1.0704201 0.70209277 17.246136
v -1.0675087 -1.2699788 17.194824
v 0.90724283 -1.2594799 16.732275
v -1.0652151 -1.2621435 16.717175
v -1.0675087 -1.2699788 17.194824
v 0.90494883 -1.2673154 17.209925
v 0.9043299 0.71259236 16.783579
v 0.90724283 -1.2594799 16.732275
v 0.90494883 -1.2673154 17.209925
v 0.9020371 0.70475644 17.261232
v -1.0681235 0.7099285 16.768482
v 0.9043299 0.71259236 16.783579
v 0.9020371 0.70475644 17.261232
v -1.0704201 0.70209277 17.246136
v -1.0887167 -1.0915813 -0.036708593
v -1.0919359 1.0886313 0.020019054
v -0.98356915 0.71436757 12.579706
v -0.9808468 -1.1290228 12.531748
v -0.9747715 -0.92868525 12.784678
v -0.8797861 -0.87624353 16.480965
v -0.9768887 0.50592923 12.822002
v -0.8731259 -1.0695487 16.723652
v -0.87546986 0.51785314 16.76495
v -0.88156825 0.33264852 16.512413
v 1.0919224 -1.0886371 -0.020011723
v -1.0887167 -1.0915813 -0.036708593
v -0.9808468 -1.1290228 12.531748
v 0.86290115 -1.1265335 12.545861
v 0.6673925 -1.1234632 12.779933
v 0.5357495 -1.070981 16.498867
v -0.7876198 -1.125427 12.768796
v 0.71458465 -1.0674044 16.735802
v -0.8731259 -1.0695487 16.723652
v -0.69200885 -1.0726389 16.48947
v 1.0887041 1.0915767 0.036710232
v 1.0919224 -1.0886371 -0.020011723
v 0.86290115 -1.1265335 12.545861
v 0.8601824 0.7168569 12.593822
v 0.84920794 0.44631377 12.908129
v 0.7239702 0.27966025 16.449505
v 0.8511469 -0.86655694 12.873971
v 0.71224445 0.51999646 16.777103
v 0.71458465 -1.0674044 16.735802
v 0.7255875 -0.8165013 16.420986
v -1.0919359 1.0886313 0.020019054
v 1.0887041 1.0915767 0.036710232
v 0.8601824 0.7168569 12.593822
v -0.98356915 0.71436757 12.579706
v -0.7805554 0.7030294 12.82834
v -0.6852226 0.5297221 16.519327
v 0.65481603 0.7049674 12.839328
v -0.87546986 0.51785314 16.76495
v 0.71224445 0.51999646 16.777103
v 0.5243469 0.5313557 16.528587
v 0.7028862 0.008871632 13.409028
v 0.20261568 0.008871632 13.409029
v 0.11407595 -0.1089474 15.912676
v 0.61434704 -0.1089474 15.912676
v 0.8511469 -0.86655694 12.873971
v 0.7225648 -0.86662775 12.86675
v 0.7206259 0.44624287 12.9009075
v 0.84920794 0.44631377 12.908129
v 0.84920794 0.44631377 12.908129
v 0.7206259 0.44624287 12.9009075
v 0.5953881 0.27958927 16.442284
v 0.7239702 0.27966025 16.449505
v 0.7255875 -0.8165013 16.420986
v 0.597006 -0.8165722 16.413765
v 0.7225648 -0.86662775 12.86675
v 0.8511469 -0.86655694 12.873971
v -0.28535417 0.41364172 15.992866
v -0.35387102 0.5382004 13.340094
v -0.3765492 0.06894499 13.323808
v -0.30804503 -0.055586815 15.976003
v 0.5357495 -1.070981 16.498867
v 0.5355754 -0.93132204 16.49573
v -0.69218034 -0.93298066 16.486332
v -0.69200885 -1.0726389 16.48947
v -0.7876198 -1.125427 12.768796
v -0.7877938 -0.9857681 12.765659
v 0.6672184 -0.9838044 12.776796
v 0.6673925 -1.1234632 12.779933
v 0.6673925 -1.1234632 12.779933
v 0.6672184 -0.9838044 12.776796
v 0.5355754 -0.93132204 16.49573
v 0.5357495 -1.070981 16.498867
v -0.7337092 -0.055586625 15.976004
v -0.30804503 -0.055586815 15.976003
v -0.3765492 0.06894499 13.323808
v -0.8022138 0.06894499 13.323808
v -0.8797861 -0.87624353 16.480965
v -0.7191284 -0.87589914 16.474405
v -0.72091055 0.332993 16.505854
v -0.88156825 0.33264852 16.512413
v -0.9747715 -0.92868525 12.784678
v -0.8141138 -0.928341 12.778119
v -0.7191284 -0.87589914 16.474405
v -0.8797861 -0.87624353 16.480965
v -0.88156825 0.33264852 16.512413
v -0.72091055 0.332993 16.505854
v -0.81623083 0.5062736 12.815443
v -0.9768887 0.50592923 12.822002
v 0.22367388 0.5389804 13.344514
v 0.12990566 0.41420254 15.996044
v 0.11407595 -0.1089474 15.912676
v 0.20261568 0.008871632 13.409029
v -0.7805554 0.7030294 12.82834
v -0.7803139 0.5620171 12.817823
v -0.6849811 0.38870984 16.508812
v -0.6852226 0.5297221 16.519327
v 0.65481603 0.7049674 12.839328
v 0.6550574 0.56395507 12.828812
v -0.7803139 0.5620171 12.817823
v -0.7805554 0.7030294 12.82834
v -0.6852226 0.5297221 16.519327
v -0.6849811 0.38870984 16.508812
v 0.52459145 0.3903429 16.51807
v 0.5243469 0.5313557 16.528587
v -0.35387102 0.5382004 13.340094
v 0.22367388 0.5389804 13.344514
v 0.20261568 0.008871632 13.409029
v -0.3765492 0.06894499 13.323808
v 0.6147924 -0.41095197 15.904819
v 0.08395874 -0.58672976 15.9048195
v 0.17272559 -0.6221177 13.397186
v 0.7035591 -0.44633988 13.397185
v 0.23578796 -0.977028 13.293325
v 0.17272559 -0.6221177 13.397186
v 0.08395874 -0.58672976 15.9048195
v 0.14093652 -0.9392135 15.972876
v -0.2925072 -0.9397996 15.969559
v -0.2925072 -0.51687384 15.969558
v -0.36139843 -0.55490786 13.2887535
v -0.36139825 -0.97783375 13.288754
v -0.8013615 -0.5080104 13.308797
v -0.36139843 -0.55490786 13.2887535
v -0.2925072 -0.51687384 15.969558
v -0.7330986 -0.4703216 15.965214
v -0.8013615 -0.5080104 13.308797
v -0.8022138 0.06894499 13.323808
v -0.3765492 0.06894499 13.323808
v -0.36139843 -0.55490786 13.2887535
v -0.36139825 -0.97783375 13.288754
v 0.17272559 -0.6221177 13.397186
v 0.23578796 -0.977028 13.293325
v -0.36139843 -0.55490786 13.2887535
v -0.3765492 0.06894499 13.323808
v 0.20261568 0.008871632 13.409029
v 0.7035591 -0.44633988 13.397185
v 0.7028862 0.008871632 13.409028
v -0.28535417 0.41364172 15.992866
v -0.30804503 -0.055586815 15.976003
v 0.11407595 -0.1089474 15.912676
v 0.12990566 0.41420254 15.996044
v -0.7330986 -0.4703216 15.965214
v -0.2925072 -0.51687384 15.969558
v -0.30804503 -0.055586815 15.976003
v -0.7337092 -0.055586625 15.976004
v -0.2925072 -0.9397996 15.969559
v 0.14093652 -0.9392135 15.972876
v 0.08395874 -0.58672976 15.9048195
v -0.2925072 -0.51687384 15.969558
v -0.30804503 -0.055586815 15.976003
v 0.11407595 -0.1089474 15.912676
v 0.6147924 -0.41095197 15.904819
v 0.61434704 -0.1089474 15.912676
v 1.087602 0.99058217 12.921857
v 1.0876026 -1.259009 12.921857
v -1.1619892 -1.259009 12.921857
v -1.1619896 0.99058235 12.921858
v -1.1619896 0.99058264 12.634087
v -1.1619889 -1.259009 12.634087
v 1.0876019 -1.2590088 12.634085
v 1.0876021 0.99058217 12.634087
v -1.1619896 0.99058264 12.634087
v 1.0876021 0.99058217 12.634087
v 1.087602 0.99058217 12.921857
v -1.1619896 0.99058235 12.921858
v -1.1619889 -1.259009 12.634087
v -1.1619896 0.99058264 12.634087
v -1.1619896 0.99058235 12.921858
v -1.1619892 -1.259009 12.921857
v 1.0876021 0.99058217 12.634087
v 1.0876019 -1.2590088 12.634085
v 1.0876026 -1.259009 12.921857
v 1.087602 0.99058217 12.921857
v 1.0876019 -1.2590088 12.634085
v -1.1619889 -1.259009 12.634087
v -1.1619892 -1.259009 12.921857
v 1.0876026 -1.259009 12.921857
v -0.16251977 -0.39814723 26.434202
v -0.2471209 -0.31424677 26.45848
v -0.24676621 -0.55405456 26.452244
v -0.16241415 -0.46918994 26.432354
v -0.8754199 -1.077384 17.201303
v -0.87776005 0.5100176 17.242601
v -0.16251977 -0.39814723 26.434202
v -0.16241415 -0.46918994 26.432354
v -0.09146306 -0.39805108 26.434746
v -0.0072669704 -0.31392238 26.460316
v -0.2471209 -0.31424677 26.45848
v -0.16251977 -0.39814723 26.434202
v -0.16241415 -0.46918994 26.432354
v -0.24676621 -0.55405456 26.452244
v -0.0069122715 -0.55373013 26.454077
v -0.0913582 -0.46909377 26.432898
v -0.0913582 -0.46909377 26.432898
v -0.0069122715 -0.55373013 26.454077
v -0.0072669704 -0.31392238 26.460316
v -0.09146306 -0.39805108 26.434746
v -1.1619889 -1.259009 9.096426
v -1.1619896 0.99058264 9.096426
v -1.1619896 0.99058235 9.384197
v -1.1619892 -1.259009 9.384196
v -1.1619896 0.99058264 9.096426
v 1.0876021 0.99058217 9.096426
v 1.087602 0.99058217 9.384196
v -1.1619896 0.99058235 9.384197
v 1.0876021 0.99058217 9.096426
v 1.0876019 -1.2590088 9.096424
v 1.0876026 -1.259009 9.384196
v 1.087602 0.99058217 9.384196
v 1.0876019 -1.2590088 9.096424
v -1.1619889 -1.259009 9.096426
v -1.1619892 -1.259009 9.384196
v 1.0876026 -1.259009 9.384196
v -1.1619896 0.99058264 9.096426
v -1.1619889 -1.259009 9.096426
v 1.0876019 -1.2590088 9.096424
v 1.0876021 0.99058217 9.096426
v 1.087602 0.99058217 9.384196
v 1.0876026 -1.259009 9.384196
v -1.1619892 -1.259009 9.384196
v -1.1619896 0.99058235 9.384197
v 0.22367388 0.5389804 13.344514
v 0.6550574 0.56395507 12.828812
v 0.52459145 0.3903429 16.51807
v 0.12990566 0.41420254 15.996044
v -0.35387102 0.5382004 13.340094
v -0.6849811 0.38870984 16.508812
v -0.7803139 0.5620171 12.817823
v -0.28535417 0.41364172 15.992866
v -0.7330986 -0.4703216 15.965214
v -0.7191284 -0.87589914 16.474405
v -0.8141138 -0.928341 12.778119
v -0.7337092 -0.055586625 15.976004
v -0.8013615 -0.5080104 13.308797
v -0.72091055 0.332993 16.505854
v -0.81623083 0.5062736 12.815443
v -0.8022138 0.06894499 13.323808
v -0.36139825 -0.97783375 13.288754
v -0.7877938 -0.9857681 12.765659
v -0.69218034 -0.93298066 16.486332
v -0.2925072 -0.9397996 15.969559
v 0.23578796 -0.977028 13.293325
v 0.5355754 -0.93132204 16.49573
v 0.6672184 -0.9838044 12.776796
v 0.14093652 -0.9392135 15.972876
v 0.7035591 -0.44633988 13.397185
v 0.7225648 -0.86662775 12.86675
v 0.597006 -0.8165722 16.413765
v 0.6147924 -0.41095197 15.904819
v 0.7028862 0.008871632 13.409028
v 0.5953881 0.27958927 16.442284
v 0.7206259 0.44624287 12.9009075
v 0.61434704 -0.1089474 15.912676
vt 0.6233119 0.25
vt 0.6233119 0.25
vt 0.62331194 0.23881143
vt 0.62331194 0.75
vt 0.62331194 0.75
vt 0.6233119 0.7388115
vt 0.6233119 1
vt 0.6233119 1
vt 0.6233119 0.9888115
vt 0.6233119 0.5
vt 0.6233119 0.5
vt 0.6233119 0.48881146
vt 0.5872804 0.25
vt 0.5872804 0.5
vt 0.6233119 0.5
vt 0.6233119 0.48881146
vt 0.5872804 0.5
vt 0.5872804 0.75
vt 0.62331194 0.75
vt 0.6233119 0.7388115
vt 0.5872804 0
vt 0.5872804 0.25
vt 0.6233119 0.25
vt 0.62331194 0.23881143
vt 0.5872804 0
vt 0.5872804 0
vt 0.5872804 0.25
vt 0.5872804 0.25
vt 0.5872804 0.5
vt 0.5872804 0.5
vt 0.5872804 0.75
vt 0.5872804 0.75
vt 0.5872804 1
vt 0.5872804 1
vt 0.5848605 1
vt 0.5848605 1
vt 0.58486056 0.75
vt 0.58486056 0.75
vt 0.5848605 0.5
vt 0.5848605 0.5
vt 0.58486056 0.25
vt 0.58486056 0.25
vt 0.5848605 0
vt 0.5848605 0
vt 0.58360964 0.2198452
vt 0.58360964 0.2198452
vt 0.56492597 0.22331971
vt 0.56492597 0.22331971
vt 0.58323514 0.28930262
vt 0.58323514 0.28930262
vt 0.58323514 0.4606431
vt 0.58323514 0.4606431
vt 0.5836698 0.72116446
vt 0.5836698 0.72116446
vt 0.5648658 0.72465473
vt 0.5648658 0.72465473
vt 0.56492734 0.96286106
vt 0.56492734 0.96286106
vt 0.5649274 0.7766347
vt 0.5649274 0.7766347
vt 0.58486056 0.75
vt 0.5848605 1
vt 0.5872804 1
vt 0.5872804 0.75
vt 0.5848605 0.5
vt 0.58486056 0.75
vt 0.5872804 0.75
vt 0.5872804 0.5
vt 0.58486056 0.25
vt 0.5848605 0.5
vt 0.5872804 0.5
vt 0.5872804 0.25
vt 0.5848605 0
vt 0.58486056 0.25
vt 0.5872804 0.25
vt 0.5872804 0
vt 0.5 0.75
vt 0.5 1
vt 0.5636749 0.988218
vt 0.56367505 0.75061774
vt 0.5649274 0.7766347
vt 0.5836081 0.78018594
vt 0.56492734 0.96286106
vt 0.58486056 0.75
vt 0.5848605 1
vt 0.58360815 0.9691539
vt 0.5 0.5
vt 0.5 0.75
vt 0.56367505 0.75061774
vt 0.563675 0.49999762
vt 0.56486577 0.52592593
vt 0.5836697 0.52887017
vt 0.5648658 0.72465473
vt 0.5848605 0.5
vt 0.58486056 0.75
vt 0.5836698 0.72116446
vt 0.5 0.25
vt 0.5 0.5
vt 0.563675 0.49999762
vt 0.56367505 0.24929303
vt 0.56530046 0.28479174
vt 0.58323514 0.28930262
vt 0.56530046 0.4645533
vt 0.58486056 0.25
vt 0.5848605 0.5
vt 0.58323514 0.4606431
vt 0.5 0
vt 0.5 0.25
vt 0.56367505 0.24929303
vt 0.5636749 0.011777424
vt 0.56492585 0.037097044
vt 0.5836095 0.030808546
vt 0.56492597 0.22331971
vt 0.5848605 0
vt 0.58486056 0.25
vt 0.58360964 0.2198452
vt 0.5679282 0.34315404
vt 0.5679282 0.34315404
vt 0.5806074 0.35168743
vt 0.5806074 0.35168743
vt 0.56530046 0.4645533
vt 0.56530046 0.4645533
vt 0.56530046 0.28479174
vt 0.56530046 0.28479174
vt 0.56530046 0.28479174
vt 0.56530046 0.28479174
vt 0.58323514 0.28930262
vt 0.58323514 0.28930262
vt 0.58323514 0.4606431
vt 0.58323514 0.4606431
vt 0.56530046 0.4645533
vt 0.56530046 0.4645533
vt 0.5809818 0.09420072
vt 0.56755364 0.09139706
vt 0.56755507 0.90854573
vt 0.5809805 0.9057573
vt 0.5836697 0.52887017
vt 0.5836697 0.52887017
vt 0.5836698 0.72116446
vt 0.5836698 0.72116446
vt 0.5648658 0.72465473
vt 0.5648658 0.72465473
vt 0.56486577 0.52592593
vt 0.56486577 0.52592593
vt 0.56486577 0.52592593
vt 0.56486577 0.52592593
vt 0.5836697 0.52887017
vt 0.5836697 0.52887017
vt 0.5809805 0.9057573
vt 0.5809805 0.9057573
vt 0.56755507 0.90854573
vt 0.56755507 0.90854573
vt 0.5836081 0.78018594
vt 0.5836081 0.78018594
vt 0.58360815 0.9691539
vt 0.58360815 0.9691539
vt 0.5649274 0.7766347
vt 0.5649274 0.7766347
vt 0.5836081 0.78018594
vt 0.5836081 0.78018594
vt 0.58360815 0.9691539
vt 0.58360815 0.9691539
vt 0.56492734 0.96286106
vt 0.56492734 0.96286106
vt 0.5675537 0.16764666
vt 0.58098185 0.15782611
vt 0.5806074 0.35168743
vt 0.5679282 0.34315404
vt 0.56492585 0.037097044
vt 0.56492585 0.037097044
vt 0.5836095 0.030808546
vt 0.5836095 0.030808546
vt 0.56492597 0.22331971
vt 0.56492597 0.22331971
vt 0.56492585 0.037097044
vt 0.56492585 0.037097044
vt 0.5836095 0.030808546
vt 0.5836095 0.030808546
vt 0.58360964 0.2198452
vt 0.58360964 0.2198452
vt 0.56755364 0.09139706
vt 0.5675537 0.16764666
vt 0.5679282 0.34315404
vt 0.56755507 0.90854573
vt 0.5806075 0.39817035
vt 0.5806075 0.39817035
vt 0.5679282 0.40627903
vt 0.5679282 0.40627903
vt 0.5674935 0.58395827
vt 0.5679282 0.40627903
vt 0.5806075 0.39817035
vt 0.581042 0.59160846
vt 0.58104205 0.6585024
vt 0.58104205 0.6585024
vt 0.5674935 0.66654617
vt 0.5674935 0.66654617
vt 0.56755507 0.8323348
vt 0.5674935 0.66654617
vt 0.58104205 0.6585024
vt 0.5809804 0.84219784
vt 0.56755507 0.8323348
vt 0.56755507 0.90854573
vt 0.56755507 0.90854573
vt 0.5674935 0.66654617
vt 0.5674935 0.66654617
vt 0.5679282 0.40627903
vt 0.5674935 0.58395827
vt 0.5674935 0.66654617
vt 0.56755507 0.90854573
vt 0.5679282 0.34315404
vt 0.5679282 0.40627903
vt 0.5679282 0.34315404
vt 0.5809818 0.09420072
vt 0.5809805 0.9057573
vt 0.5806074 0.35168743
vt 0.58098185 0.15782611
vt 0.5809804 0.84219784
vt 0.58104205 0.6585024
vt 0.5809805 0.9057573
vt 0.5809805 0.9057573
vt 0.58104205 0.6585024
vt 0.581042 0.59160846
vt 0.5806075 0.39817035
vt 0.58104205 0.6585024
vt 0.5809805 0.9057573
vt 0.5806074 0.35168743
vt 0.5806075 0.39817035
vt 0.5806074 0.35168743
vt 0.625 0.5
vt 0.625 0.75
vt 0.875 0.75
vt 0.875 0.5
vt 0.125 0.5
vt 0.125 0.75
vt 0.375 0.75
vt 0.375 0.5
vt 0.375 0.25
vt 0.375 0.5
vt 0.625 0.5
vt 0.625 0.25
vt 0.375 0
vt 0.375 0.25
vt 0.625 0.25
vt 0.625 0
vt 0.375 0.5
vt 0.375 0.75
vt 0.625 0.75
vt 0.625 0.5
vt 0.375 0.75
vt 0.375 1
vt 0.625 1
vt 0.625 0.75
vt 0.6233119 1
vt 0.6233119 1
vt 0.6233119 0.9888115
vt 0.6233119 0.9888115
vt 0.5872804 0.75
vt 0.5872804 1
vt 0.6233119 1
vt 0.6233119 0.9888115
vt 0.6233119 0.25
vt 0.6233119 0.25
vt 0.62331194 0.23881143
vt 0.62331194 0.23881143
vt 0.62331194 0.75
vt 0.62331194 0.75
vt 0.6233119 0.7388115
vt 0.6233119 0.7388115
vt 0.6233119 0.5
vt 0.6233119 0.5
vt 0.6233119 0.48881146
vt 0.6233119 0.48881146
vt 0.375 0
vt 0.375 0.25
vt 0.625 0.25
vt 0.625 0
vt 0.375 0.25
vt 0.375 0.5
vt 0.625 0.5
vt 0.625 0.25
vt 0.375 0.5
vt 0.375 0.75
vt 0.625 0.75
vt 0.625 0.5
vt 0.375 0.75
vt 0.375 1
vt 0.625 1
vt 0.625 0.75
vt 0.125 0.5
vt 0.125 0.75
vt 0.375 0.75
vt 0.375 0.5
vt 0.625 0.5
vt 0.625 0.75
vt 0.875 0.75
vt 0.875 0.5
vt 0.5675537 0.16764666
vt 0.56492597 0.22331971
vt 0.58360964 0.2198452
vt 0.58098185 0.15782611
vt 0.56755364 0.09139706
vt 0.5836095 0.030808546
vt 0.56492585 0.037097044
vt 0.5809818 0.09420072
vt 0.5809804 0.84219784
vt 0.5836081 0.78018594
vt 0.5649274 0.7766347
vt 0.5809805 0.9057573
vt 0.56755507 0.8323348
vt 0.58360815 0.9691539
vt 0.56492734 0.96286106
vt 0.56755507 0.90854573
vt 0.5674935 0.66654617
vt 0.5648658 0.72465473
vt 0.5836698 0.72116446
vt 0.58104205 0.6585024
vt 0.5674935 0.58395827
vt 0.5836697 0.52887017
vt 0.56486577 0.52592593
vt 0.581042 0.59160846
vt 0.5679282 0.40627903
vt 0.56530046 0.4645533
vt 0.58323514 0.4606431
vt 0.5806075 0.39817035
vt 0.5679282 0.34315404
vt 0.58323514 0.28930262
vt 0.56530046 0.28479174
vt 0.5806074 0.35168743
vn -0.001770833 0.9984952 0.054810353
vn -0.001770833 0.9984952 0.054810353
vn -0.001770833 0.9984952 0.054810353
vn 0.0010139304 -0.9990233 0.0441753
vn 0.0010139304 -0.9990233 0.0441753
vn 0.0010139304 -0.9990233 0.0441753
vn -0.9988471 -0.0027238973 0.047927994
vn -0.9988471 -0.0027238973 0.047927994
vn -0.9988471 -0.0027238973 0.047927994
vn 0.9986958 0.00014887635 0.051055495
vn 0.9986958 0.00014887635 0.051055495
vn 0.9986958 0.00014887635 0.051055495
vn 0.9962174 -0.00078955584 0.08689128
vn 0.9962174 -0.00078955584 0.08689128
vn 0.9962174 -0.00078955584 0.08689128
vn 0.9962174 -0.00078955584 0.08689128
vn 0.00084508595 -0.9978405 0.06567819
vn 0.00084508595 -0.9978405 0.06567819
vn 0.00084508595 -0.9978405 0.06567819
vn 0.00084508595 -0.9978405 0.06567819
vn -0.002097423 0.9951362 0.09848643
vn -0.002097423 0.9951362 0.09848643
vn -0.002097423 0.9951362 0.09848643
vn -0.002097423 0.9951362 0.09848643
vn -0.0076170317 -0.026023902 0.99963236
vn -0.0076170317 -0.0260239 0.99963236
vn -0.0076170564 -0.026023362 0.99963236
vn -0.007617056 -0.02602336 0.99963236
vn -0.0076181674 -0.026023336 0.99963236
vn -0.007618167 -0.026023338 0.99963236
vn -0.007618142 -0.02602388 0.99963236
vn -0.0076181414 -0.026023878 0.99963236
vn -0.0076170317 -0.0260239 0.99963236
vn -0.0076170317 -0.026023902 0.99963236
vn 0.0076173875 0.026018335 -0.9996325
vn 0.0076173875 0.026018336 -0.9996325
vn 0.0076174666 0.026013423 -0.9996326
vn 0.0076174666 0.026013423 -0.9996326
vn 0.0076174587 0.026013434 -0.9996326
vn 0.0076174596 0.026013438 -0.9996326
vn 0.00761738 0.026018351 -0.9996325
vn 0.0076173814 0.026018353 -0.9996325
vn 0.0076173875 0.026018336 -0.9996325
vn 0.0076173875 0.026018335 -0.9996325
vn -0.99937636 0.0009109848 -0.03529923
vn -0.99937636 0.0009109848 -0.03529923
vn -0.99937636 0.0009109848 -0.03529923
vn -0.99937636 0.0009109848 -0.03529923
vn 0.0560522 0.026049804 -0.99808794
vn 0.0560522 0.026049804 -0.99808794
vn 0.0560522 0.026049804 -0.99808794
vn 0.0560522 0.026049804 -0.99808794
vn 0.99966955 0.000659368 -0.025698401
vn 0.99966955 0.000659368 -0.025698401
vn 0.99966955 0.000659368 -0.025698401
vn 0.99966955 0.000659368 -0.025698401
vn 0.040832885 -0.025925994 0.99882954
vn 0.040832885 -0.025925994 0.99882954
vn 0.040832885 -0.025925994 0.99882954
vn 0.040832885 -0.025925994 0.99882954
vn -0.9999875 -0.0013499277 -0.004827123
vn -0.9999875 -0.0013499277 -0.004827123
vn -0.9999875 -0.0013499277 -0.004827123
vn -0.9999875 -0.0013499277 -0.004827123
vn 0.0014756529 -0.99986446 -0.016394805
vn 0.0014756529 -0.99986446 -0.016394805
vn 0.0014756529 -0.99986446 -0.016394805
vn 0.0014756529 -0.99986446 -0.016394805
vn 0.9999875 0.0013513234 0.004823543
vn 0.9999875 0.0013513234 0.004823543
vn 0.9999875 0.0013513234 0.004823543
vn 0.9999875 0.0013513234 0.004823543
vn -0.0014758011 0.99986446 0.016395546
vn -0.0014758011 0.99986446 0.016395546
vn -0.0014758011 0.99986446 0.016395546
vn -0.0014758011 0.99986446 0.016395546
vn -0.99996185 -0.0016996929 0.00857718
vn -0.99996185 -0.0016996929 0.00857718
vn -0.9998523 -0.0019211513 0.017079717
vn -0.9998541 -0.0019198903 0.016974354
vn -0.9996669 -0.0021499405 0.02571679
vn -0.9996669 -0.0021496369 0.025719475
vn -0.9996669 -0.0021462468 0.025716817
vn -0.9996669 -0.0021486022 0.02571948
vn -0.9996669 -0.0021455942 0.025719503
vn -0.9996669 -0.0021459232 0.025719501
vn 0.0013730484 -0.99999464 -0.002990766
vn 0.0013730484 -0.99999464 -0.002990766
vn 0.0013085373 -0.9999844 0.005446147
vn 0.0013086915 -0.99998415 0.0054772515
vn 0.0012429035 -0.999899 0.014154543
vn 0.0012431504 -0.999899 0.0141551895
vn 0.0012419337 -0.999899 0.014154358
vn 0.0012429327 -0.999899 0.014155267
vn 0.0012421423 -0.999899 0.014155115
vn 0.0012421777 -0.999899 0.014155002
vn 0.99983335 0.0010011106 0.018225532
vn 0.99983335 0.0010011106 0.018225532
vn 0.99964523 0.00078133337 0.026624577
vn 0.9996424 0.0007785764 0.0267298
vn 0.9993742 0.000551948 0.03536751
vn 0.9993742 0.00055146817 0.03536734
vn 0.9993742 0.0005519505 0.03536785
vn 0.9993742 0.000551877 0.035367243
vn 0.9993742 0.00055187993 0.03536751
vn 0.9993742 0.00055146543 0.03536768
vn -0.0015779559 0.9995546 0.029799195
vn -0.0015779559 0.9995546 0.029799195
vn -0.0016419642 0.9992661 0.03826941
vn -0.0016419266 0.9992673 0.03823837
vn -0.001707791 0.9988959 0.046946526
vn -0.0017078209 0.9988959 0.04694678
vn -0.0017073018 0.9988959 0.04694656
vn -0.0017078734 0.9988959 0.046946857
vn -0.0017074746 0.9988959 0.046946887
vn -0.0017073305 0.9988959 0.046946824
vn -0 -0.99889463 -0.047006942
vn -0 -0.99889463 -0.047006942
vn -0 -0.99889463 -0.047006942
vn -0 -0.99889463 -0.047006942
vn -0.056035798 -0.026050633 0.9980888
vn -0.056035798 -0.026050633 0.9980888
vn -0.056035798 -0.026050633 0.9980888
vn -0.056035798 -0.026050633 0.9980888
vn 0.003185062 -0.9988949 -0.04689435
vn 0.003185062 -0.9988949 -0.04689435
vn 0.003185062 -0.9988949 -0.04689435
vn 0.003185062 -0.9988949 -0.04689435
vn 0.00024113983 0.9999006 -0.014102082
vn 0.00024113983 0.9999006 -0.014102082
vn 0.00024113983 0.9999006 -0.014102082
vn 0.00024113983 0.9999006 -0.014102082
vn 0.9984889 -0.047280572 -0.028009808
vn 0.9984889 -0.047280572 -0.028009808
vn 0.9984889 -0.047280572 -0.028009808
vn 0.9984889 -0.047280572 -0.028009808
vn 0.007682935 -0.022450276 -0.99971837
vn 0.007682935 -0.022450276 -0.99971837
vn 0.007682935 -0.022450276 -0.99971837
vn 0.007682935 -0.022450276 -0.99971837
vn -0.007682839 0.022443367 0.9997186
vn -0.007682839 0.022443367 0.9997186
vn -0.007682839 0.022443367 0.9997186
vn -0.007682839 0.022443367 0.9997186
vn -0.999373 -0.0020394365 -0.035347037
vn -0.999373 -0.0020394365 -0.035347037
vn -0.999373 -0.0020394365 -0.035347037
vn -0.999373 -0.0020394365 -0.035347037
vn -0 -0.99889946 -0.046902515
vn -0 -0.99889946 -0.046902515
vn -0 -0.99889946 -0.046902515
vn -0 -0.99889946 -0.046902515
vn -0.040845253 0.02592356 -0.9988292
vn -0.040845253 0.02592356 -0.9988292
vn -0.040845253 0.02592356 -0.9988292
vn -0.040845253 0.02592356 -0.9988292
vn -0.0027194598 0.99989665 -0.014116352
vn -0.0027194598 0.99989665 -0.014116352
vn -0.0027194598 0.99989665 -0.014116352
vn -0.0027194598 0.99989665 -0.014116352
vn 0.0002263115 -0.9988992 -0.046908464
vn 0.0002263115 -0.9988992 -0.046908464
vn 0.0002263115 -0.9988992 -0.046908464
vn 0.0002263115 -0.9988992 -0.046908464
vn -0.99880016 0.03558289 -0.033647116
vn -0.99880016 0.03558289 -0.033647116
vn -0.99880016 0.03558289 -0.033647116
vn -0.99880016 0.03558289 -0.033647116
vn 0.9996644 0.0036246097 -0.02564965
vn 0.9996644 0.0036246097 -0.02564965
vn 0.9996644 0.0036246097 -0.02564965
vn 0.9996644 0.0036246097 -0.02564965
vn -0.0075332923 -0.07438044 0.99720156
vn -0.0075332923 -0.07438044 0.99720156
vn -0.0075332923 -0.07438044 0.99720156
vn -0.0075332923 -0.07438044 0.99720156
vn 0.0075337915 0.0743804 -0.99720156
vn 0.0075337915 0.0743804 -0.99720156
vn 0.0075337915 0.0743804 -0.99720156
vn 0.0075337915 0.0743804 -0.99720156
vn -0.07454996 0.051324353 0.9958956
vn -0.07454996 0.051324353 0.9958956
vn -0.08257281 -0.003240591 0.9965797
vn -0.07354202 -0.007156056 0.99726653
vn -0.31425494 0.94902194 -0.024516847
vn -0.31425494 0.94902194 -0.024516847
vn -0.31425494 0.94902194 -0.024516847
vn -0.31425494 0.94902194 -0.024516847
vn -0.9856537 -0.16561136 -0.03255349
vn -0.9856537 -0.16561136 -0.03255349
vn -0.9856537 -0.16561136 -0.03255349
vn -0.9856537 -0.16561136 -0.03255349
vn 0.9996699 0 -0.025689444
vn 0.9996699 0 -0.025689444
vn 0.9996699 0 -0.025689444
vn 0.9996699 0 -0.025689444
vn 0.10522216 0.9943066 -0.016810857
vn 0.10522216 0.9943066 -0.016810857
vn 0.10522216 0.9943066 -0.016810857
vn 0.10522216 0.9943066 -0.016810857
vn 0.020889092 -0.041369606 0.9989255
vn 0.020889092 -0.041369606 0.9989255
vn -0.07354202 -0.007156056 0.99726653
vn -0.09252741 -0.07034098 0.9932225
vn -0.106554024 -0.1400784 0.9843903
vn -0.10027399 -0.07366494 0.99222904
vn -0.106554024 -0.1400784 0.9843903
vn -0.09252741 -0.07034098 0.9932225
vn -0.07354202 -0.007156056 0.99726653
vn -0.08257281 -0.003240591 0.9965797
vn 0.0037321672 -0.021900872 0.9997532
vn 0.0037321672 -0.021900872 0.9997532
vn -0.06481319 0.10276864 -0.9925915
vn -0.06811957 0.04860051 -0.9964927
vn -0.07526572 0.044826 -0.99615544
vn -0.06481319 0.10276864 -0.9925915
vn 0.006074682 0.019781722 -0.99978584
vn -0.08387694 -0.015243126 -0.9963595
vn -0.06811957 0.04860051 -0.9964927
vn 0.006074682 0.019781722 -0.99978584
vn -0.08321464 -0.09319609 -0.99216425
vn -0.08321464 -0.09319609 -0.99216425
vn -0.085771464 -0.027802924 -0.9959268
vn -0.08387694 -0.015243126 -0.9963595
vn -0.06811957 0.04860051 -0.9964927
vn -0.07526572 0.044826 -0.99615544
vn -0.0034590291 0.020278579 -0.99978846
vn -0.0034590291 0.020278579 -0.99978846
vn -0 0 1
vn -0 0 1
vn -0 0 1
vn -0 0 1
vn -0 0 -1
vn -0 0 -1
vn -0 0 -1
vn -0 0 -1
vn -0 1 0
vn -0 1 0
vn -0 1 0
vn -0 1 0
vn -1 0 0
vn -1 0 0
vn -1 0 0
vn -1 0 0
vn 1 0 0
vn 1 0 0
vn 1 0 0
vn 1 0 0
vn -0 -1 0
vn -0 -1 0
vn -0 -1 0
vn -0 -1 0
vn -0.12524809 0.15717319 -0.9795966
vn -0.12483199 0.15758887 -0.97958297
vn -0.124849506 -0.10706619 -0.9863819
vn -0.12469885 -0.10721662 -0.9863847
vn -0.9970066 -0.0034797776 0.077237904
vn -0.9970066 -0.0034797776 0.077237904
vn -0.9970066 -0.0034797776 0.077237904
vn -0.9970066 -0.0034797776 0.077237904
vn 0.1394424 0.15757369 -0.97761256
vn 0.13926825 0.15774707 -0.9776095
vn -0.12483199 0.15758887 -0.97958297
vn -0.12524809 0.15717319 -0.9795966
vn -0.12469885 -0.10721662 -0.9863847
vn -0.124849506 -0.10706619 -0.9863819
vn 0.14011534 -0.10653759 -0.98438686
vn 0.1397248 -0.10693051 -0.9843998
vn 0.1397248 -0.10693051 -0.9843998
vn 0.14011534 -0.10653759 -0.98438686
vn 0.13926825 0.15774707 -0.9776095
vn 0.1394424 0.15757369 -0.97761256
vn -1 0 0
vn -1 0 0
vn -1 0 0
vn -1 0 0
vn -0 1 0
vn -0 1 0
vn -0 1 0
vn -0 1 0
vn 1 0 0
vn 1 0 0
vn 1 0 0
vn 1 0 0
vn -0 -1 0
vn -0 -1 0
vn -0 -1 0
vn -0 -1 0
vn -0 0 -1
vn -0 0 -1
vn -0 0 -1
vn -0 0 -1
vn -0 0 1
vn -0 0 1
vn -0 0 1
vn -0 0 1
vn -0.0017078877 0.9988959 0.046946406
vn -0.0017079336 0.9988959 0.046946395
vn -0.0017078433 0.9988959 0.046946533
vn -0.0017078114 0.9988959 0.046946526
vn -0.0017079823 0.9988959 0.04694638
vn -0.0017079203 0.9988959 0.046946507
vn -0.0017080107 0.9988959 0.046946365
vn -0.0017079063 0.9988959 0.046946496
vn -0.9996669 -0.0021427218 0.025719408
vn -0.9996669 -0.0021426461 0.025719428
vn -0.9996669 -0.0021440731 0.025719583
vn -0.9996669 -0.0021430089 0.025719786
vn -0.9996669 -0.002143909 0.025719536
vn -0.9996669 -0.0021428808 0.02571974
vn -0.9996669 -0.0021443083 0.025719894
vn -0.9996669 -0.0021441951 0.02571991
vn 0.0012413926 -0.999899 0.014154429
vn 0.0012413216 -0.999899 0.0141544705
vn 0.0012423415 -0.999899 0.014154317
vn 0.0012422391 -0.999899 0.014154299
vn 0.0012411798 -0.999899 0.014154689
vn 0.0012421678 -0.999899 0.014154529
vn 0.0012411474 -0.999899 0.014154684
vn 0.0012420258 -0.999899 0.01415456
vn 0.9993742 0.00055553083 0.035368398
vn 0.9993742 0.00055563217 0.03536838
vn 0.9993742 0.0005547813 0.03536827
vn 0.9993742 0.00055482273 0.03536832
vn 0.9993742 0.00055563025 0.03536819
vn 0.9993742 0.000554863 0.035368096
vn 0.9993742 0.0005557142 0.035368204
vn 0.9993742 0.0005549225 0.035368104
g Graveyard Tower_0
f 3/3/3 2/2/2 1/1/1
f 6/6/6 5/5/5 4/4/4
f 9/9/9 8/8/8 7/7/7
f 12/12/12 11/11/11 10/10/10
f 15/15/15 14/14/14 13/13/13
f 16/16/16 15/15/15 13/13/13
f 19/19/19 18/18/18 17/17/17
f 20/20/20 19/19/19 17/17/17
f 23/23/23 22/22/22 21/21/21
f 24/24/24 23/23/23 21/21/21
f 27/27/27 26/26/26 25/25/25
f 28/28/28 27/27/27 25/25/25
f 29/29/29 27/27/27 28/28/28
f 30/30/30 29/29/29 28/28/28
f 31/31/31 29/29/29 30/30/30
f 32/32/32 31/31/31 30/30/30
f 33/33/33 31/31/31 32/32/32
f 34/34/34 33/33/33 32/32/32
f 37/37/37 36/36/36 35/35/35
f 38/38/38 37/37/37 35/35/35
f 39/39/39 37/37/37 38/38/38
f 40/40/40 39/39/39 38/38/38
f 41/41/41 39/39/39 40/40/40
f 42/42/42 41/41/41 40/40/40
f 43/43/43 41/41/41 42/42/42
f 44/44/44 43/43/43 42/42/42
f 47/47/47 46/46/46 45/45/45
f 48/48/48 47/47/47 45/45/45
f 51/51/51 50/50/50 49/49/49
f 52/52/52 51/51/51 49/49/49
f 55/55/55 54/54/54 53/53/53
f 56/56/56 55/55/55 53/53/53
f 59/59/59 58/58/58 57/57/57
f 60/60/60 59/59/59 57/57/57
f 63/63/63 62/62/62 61/61/61
f 64/64/64 63/63/63 61/61/61
f 67/67/67 66/66/66 65/65/65
f 68/68/68 67/67/67 65/65/65
f 71/71/71 70/70/70 69/69/69
f 72/72/72 71/71/71 69/69/69
f 75/75/75 74/74/74 73/73/73
f 76/76/76 75/75/75 73/73/73
f 79/79/79 78/78/78 77/77/77
f 80/80/80 79/79/79 77/77/77
f 79/79/79 80/80/80 81/81/81
f 81/81/81 80/80/80 82/82/82
f 83/83/83 79/79/79 81/81/81
f 80/80/80 84/84/84 82/82/82
f 85/85/85 79/79/79 83/83/83
f 82/82/82 84/84/84 86/86/86
f 86/86/86 85/85/85 83/83/83
f 84/84/84 85/85/85 86/86/86
f 89/89/89 88/88/88 87/87/87
f 90/90/90 89/89/89 87/87/87
f 89/89/89 90/90/90 91/91/91
f 91/91/91 90/90/90 92/92/92
f 93/93/93 89/89/89 91/91/91
f 90/90/90 94/94/94 92/92/92
f 95/95/95 89/89/89 93/93/93
f 92/92/92 94/94/94 96/96/96
f 96/96/96 95/95/95 93/93/93
f 94/94/94 95/95/95 96/96/96
f 99/99/99 98/98/98 97/97/97
f 100/100/100 99/99/99 97/97/97
f 99/99/99 100/100/100 101/101/101
f 101/101/101 100/100/100 102/102/102
f 103/103/103 99/99/99 101/101/101
f 100/100/100 104/104/104 102/102/102
f 105/105/105 99/99/99 103/103/103
f 102/102/102 104/104/104 106/106/106
f 106/106/106 105/105/105 103/103/103
f 104/104/104 105/105/105 106/106/106
f 109/109/109 108/108/108 107/107/107
f 110/110/110 109/109/109 107/107/107
f 109/109/109 110/110/110 111/111/111
f 111/111/111 110/110/110 112/112/112
f 113/113/113 109/109/109 111/111/111
f 110/110/110 114/114/114 112/112/112
f 115/115/115 109/109/109 113/113/113
f 112/112/112 114/114/114 116/116/116
f 116/116/116 115/115/115 113/113/113
f 114/114/114 115/115/115 116/116/116
f 119/119/119 118/118/118 117/117/117
f 120/120/120 119/119/119 117/117/117
f 123/123/123 122/122/122 121/121/121
f 124/124/124 123/123/123 121/121/121
f 127/127/127 126/126/126 125/125/125
f 128/128/128 127/127/127 125/125/125
f 131/131/131 130/130/130 129/129/129
f 132/132/132 131/131/131 129/129/129
f 135/135/135 134/134/134 133/133/133
f 136/136/136 135/135/135 133/133/133
f 139/139/139 138/138/138 137/137/137
f 140/140/140 139/139/139 137/137/137
f 143/143/143 142/142/142 141/141/141
f 144/144/144 143/143/143 141/141/141
f 147/147/147 146/146/146 145/145/145
f 148/148/148 147/147/147 145/145/145
f 151/151/151 150/150/150 149/149/149
f 152/152/152 151/151/151 149/149/149
f 155/155/155 154/154/154 153/153/153
f 156/156/156 155/155/155 153/153/153
f 159/159/159 158/158/158 157/157/157
f 160/160/160 159/159/159 157/157/157
f 163/163/163 162/162/162 161/161/161
f 164/164/164 163/163/163 161/161/161
f 167/167/167 166/166/166 165/165/165
f 168/168/168 167/167/167 165/165/165
f 171/171/171 170/170/170 169/169/169
f 172/172/172 171/171/171 169/169/169
f 175/175/175 174/174/174 173/173/173
f 176/176/176 175/175/175 173/173/173
f 179/179/179 178/178/178 177/177/177
f 180/180/180 179/179/179 177/177/177
f 183/183/183 182/182/182 181/181/181
f 184/184/184 183/183/183 181/181/181
f 187/187/187 186/186/186 185/185/185
f 188/188/188 187/187/187 185/185/185
f 191/191/191 190/190/190 189/189/189
f 192/192/192 191/191/191 189/189/189
f 195/195/195 194/194/194 193/193/193
f 196/196/196 195/195/195 193/193/193
f 199/199/199 198/198/198 197/197/197
f 200/200/200 199/199/199 197/197/197
f 203/203/203 202/202/202 201/201/201
f 204/204/204 203/203/203 201/201/201
f 207/207/207 206/206/206 205/205/205
f 206/206/206 208/208/208 205/205/205
f 208/208/208 206/206/206 209/209/209
f 206/206/206 210/210/210 209/209/209
f 210/210/210 206/206/206 211/211/211
f 212/212/212 210/210/210 211/211/211
f 215/215/215 214/214/214 213/213/213
f 216/216/216 215/215/215 213/213/213
f 219/219/219 218/218/218 217/217/217
f 220/220/220 219/219/219 217/217/217
f 223/223/223 222/222/222 221/221/221
f 224/224/224 223/223/223 221/221/221
f 223/223/223 224/224/224 225/225/225
f 226/226/226 223/223/223 225/225/225
f 223/223/223 226/226/226 227/227/227
f 226/226/226 228/228/228 227/227/227
f 231/231/231 230/230/230 229/229/229
f 232/232/232 231/231/231 229/229/229
f 235/235/235 234/234/234 233/233/233
f 236/236/236 235/235/235 233/233/233
f 239/239/239 238/238/238 237/237/237
f 240/240/240 239/239/239 237/237/237
f 243/243/243 242/242/242 241/241/241
f 244/244/244 243/243/243 241/241/241
f 247/247/247 246/246/246 245/245/245
f 248/248/248 247/247/247 245/245/245
f 251/251/251 250/250/250 249/249/249
f 252/252/252 251/251/251 249/249/249
f 255/255/255 254/254/254 253/253/253
f 256/256/256 255/255/255 253/253/253
f 259/259/259 258/258/258 257/257/257
f 260/260/260 259/259/259 257/257/257
f 263/263/263 262/262/262 261/261/261
f 264/264/264 263/263/263 261/261/261
f 267/267/267 266/266/266 265/265/265
f 268/268/268 267/267/267 265/265/265
f 271/271/271 270/270/270 269/269/269
f 272/272/272 271/271/271 269/269/269
f 275/275/275 274/274/274 273/273/273
f 276/276/276 275/275/275 273/273/273
f 279/279/279 278/278/278 277/277/277
f 280/280/280 279/279/279 277/277/277
f 283/283/283 282/282/282 281/281/281
f 284/284/284 283/283/283 281/281/281
f 287/287/287 286/286/286 285/285/285
f 288/288/288 287/287/287 285/285/285
f 291/291/291 290/290/290 289/289/289
f 292/292/292 291/291/291 289/289/289
f 295/295/295 294/294/294 293/293/293
f 296/296/296 295/295/295 293/293/293
f 299/299/299 298/298/298 297/297/297
f 300/300/300 299/299/299 297/297/297
f 297/297/297 298/298/298 301/301/301
f 302/302/302 299/299/299 300/300/300
f 298/298/298 303/303/303 301/301/301
f 304/304/304 302/302/302 300/300/300
f 301/301/301 303/303/303 304/304/304
f 303/303/303 302/302/302 304/304/304
f 307/307/307 306/306/306 305/305/305
f 305/305/305 306/306/306 308/308/308
f 309/309/309 307/307/307 305/305/305
f 306/306/306 310/310/310 308/308/308
f 311/311/311 307/307/307 309/309/309
f 308/308/308 310/310/310 312/312/312
f 312/312/312 311/311/311 309/309/309
f 310/310/310 311/311/311 312/312/312
f 315/315/315 314/314/314 313/313/313
f 316/316/316 315/315/315 313/313/313
f 313/313/313 314/314/314 317/317/317
f 318/318/318 315/315/315 316/316/316
f 314/314/314 319/319/319 317/317/317
f 320/320/320 318/318/318 316/316/316
f 317/317/317 319/319/319 320/320/320
f 319/319/319 318/318/318 320/320/320
f 323/323/323 322/322/322 321/321/321
f 324/324/324 323/323/323 321/321/321
f 321/321/321 322/322/322 325/325/325
f 326/326/326 323/323/323 324/324/324
f 322/322/322 327/327/327 325/325/325
f 328/328/328 326/326/326 324/324/324
f 325/325/325 327/327/327 328/328/328
f 327/327/327 326/326/326 328/328/328
