g Gravewall
v 0.24645577 -3.6440938 1.6920166
v 0.4255791 -3.6440938 -0.07190561
v -0.42558658 -3.6440938 -0.07190561
v -0.24644905 -3.6440938 1.6920166
v 0.111093484 -3.6440938 1.8549263
v -0.11109169 -3.6440938 1.8549263
v -0.2464491 3.6440938 1.6920166
v -0.42558658 3.6440938 -0.07190561
v 0.4255791 3.6440938 -0.07190561
v 0.24645577 3.6440938 1.6920166
v -0.11109172 3.6440938 1.8549263
v 0.111093454 3.6440938 1.8549263
v -0.42558658 1.8220469 -0.07190561
v -0.42558658 3.6440938 -0.07190561
v -0.2464491 3.6440938 1.6920166
v -0.24644908 1.8220469 1.6008928
v -0.42558658 0 -0.07190561
v -0.24644908 0 1.5269588
v -0.42558658 -1.8220469 -0.07190561
v -0.24644907 -1.8220469 1.7722675
v -0.42558658 -3.6440938 -0.07190561
v -0.24644905 -3.6440938 1.6920166
v 0.4255791 -1.8220469 -0.07190561
v 0.4255791 -3.6440938 -0.07190561
v 0.24645577 -3.6440938 1.6920166
v 0.24645577 -1.8220469 1.7722675
v 0.4255791 0 -0.07190561
v 0.24645577 0 1.5269588
v 0.4255791 1.8220469 -0.07190561
v 0.24645577 1.8220469 1.6008928
v 0.4255791 3.6440938 -0.07190561
v 0.24645577 3.6440938 1.6920166
v 0.24645577 1.8220469 1.6008928
v 0.111093454 3.6440938 1.8549263
v 0.24645577 3.6440938 1.6920166
v 0.11109346 1.8220469 1.7638025
v 0.24645577 0 1.5269588
v 0.11109347 0 1.6898686
v -0.24644907 -1.8220469 1.7722675
v -0.111091696 -1.8220469 1.9351772
v -0.11109169 -3.6440938 1.8549263
v -0.24644905 -3.6440938 1.6920166
v 0.11109346 1.8220469 1.7638025
v -0.11109172 3.6440938 1.8549263
v 0.111093454 3.6440938 1.8549263
v -0.11109171 1.8220469 1.7638025
v 0.11109347 0 1.6898686
v -0.1110917 0 1.6898686
v 0.11109348 -1.8220469 1.9351772
v -0.111091696 -1.8220469 1.9351772
v -0.1110917 0 1.6898686
v 0.11109347 0 1.6898686
v -0.24644908 1.8220469 1.6008928
v -0.1110917 0 1.6898686
v -0.24644908 0 1.5269588
v -0.11109171 1.8220469 1.7638025
v -0.2464491 3.6440938 1.6920166
v -0.11109172 3.6440938 1.8549263
v 0.24645577 -1.8220469 1.7722675
v 0.11109348 -1.8220469 1.9351772
v 0.11109347 0 1.6898686
v 0.24645577 0 1.5269588
v 0.24645577 -3.6440938 1.6920166
v 0.111093484 -3.6440938 1.8549263
v 0.11109348 -1.8220469 1.9351772
v 0.24645577 -1.8220469 1.7722675
v 0.111093484 -3.6440938 1.8549263
v -0.11109169 -3.6440938 1.8549263
v -0.111091696 -1.8220469 1.9351772
v 0.11109348 -1.8220469 1.9351772
v -0.24644908 0 1.5269588
v -0.1110917 0 1.6898686
v -0.111091696 -1.8220469 1.9351772
v -0.24644907 -1.8220469 1.7722675
vt 0.60336214 0.5
vt 0.375 0.5
vt 0.375 0.75
vt 0.60336214 0.75
vt 0.615854 0.5891682
vt 0.615854 0.6608318
vt 0.35336208 0.5
vt 0.125 0.5
vt 0.375 0.7524604
vt 0.603362 0.75246036
vt 0.45502216 0.59004575
vt 0.5266857 0.66241455
vt 0.625 0.68626976
vt 0.62499994 0.7475396
vt 0.8533621 0.7475395
vt 0.8533621 0.68626976
vt 0.625 0.625
vt 0.8533621 0.625
vt 0.625 0.56373024
vt 0.8533621 0.56373024
vt 0.625 0.5024604
vt 0.8533621 0.5024604
vt 0.375 0.93626976
vt 0.375 0.9975396
vt 0.6033621 0.9975396
vt 0.6033621 0.93626976
vt 0.375 0.875
vt 0.6033621 0.875
vt 0.375 0.81373024
vt 0.6033621 0.8137302
vt 0.375 0.7524604
vt 0.603362 0.75246036
vt 0.375 0.0637302
vt 0.46416822 0.0024604057
vt 0.375 0.0024604052
vt 0.46416825 0.0637302
vt 0.375 0.125
vt 0.46416825 0.125
vt 0.625 0.18626979
vt 0.5358318 0.18626979
vt 0.5358318 0.2475396
vt 0.625 0.2475396
vt 0.46416825 0.0637302
vt 0.53583175 0.0024604062
vt 0.46416822 0.0024604057
vt 0.5358318 0.0637302
vt 0.46416825 0.125
vt 0.5358318 0.125
vt 0.46416825 0.18626979
vt 0.5358318 0.18626979
vt 0.5358318 0.125
vt 0.46416825 0.125
vt 0.625 0.0637302
vt 0.5358318 0.125
vt 0.625 0.125
vt 0.5358318 0.0637302
vt 0.625 0.0024604064
vt 0.53583175 0.0024604062
vt 0.375 0.18626979
vt 0.46416825 0.18626979
vt 0.46416825 0.125
vt 0.375 0.125
vt 0.375 0.2475396
vt 0.46416825 0.2475396
vt 0.46416825 0.18626979
vt 0.375 0.18626979
vt 0.46416825 0.2475396
vt 0.5358318 0.2475396
vt 0.5358318 0.18626979
vt 0.46416825 0.18626979
vt 0.625 0.125
vt 0.5358318 0.125
vt 0.5358318 0.18626979
vt 0.625 0.18626979
vn -0 -1 0
vn -0 -1 0
vn -0 -1 0
vn -0 -1 0
vn -0 -1 0
vn -0 -1 0
vn -0 1 0
vn -0 1 0
vn -0 1 0
vn -0 1 0
vn -0 1 0
vn -0 1 0
vn -0.9946067 -0.0025927997 0.103686824
vn -0.9946067 -0.0025927997 0.103686824
vn -0.9946067 -0.0025927997 0.103686824
vn -0.9946067 -0.0025927997 0.103686824
vn -0.99460536 0.0069670337 0.10349648
vn -0.99460536 0.0069670337 0.10349648
vn -0.99460536 0.0069670337 0.10349648
vn -0.99460536 0.0069670337 0.10349648
vn -0.99510384 -0.0021760392 0.09881138
vn -0.99510384 -0.0021760392 0.09881138
vn 0.99510455 -0.002175878 0.098803625
vn 0.99510455 -0.002175878 0.098803625
vn 0.99510455 -0.002175878 0.098803625
vn 0.99510455 -0.002175878 0.098803625
vn 0.99405575 -0.0022084087 0.10884898
vn 0.99405575 -0.0022084087 0.10884898
vn 0.99405575 -0.0022084087 0.10884898
vn 0.99405575 -0.0022084087 0.10884898
vn 0.9946075 -0.0025925557 0.10367873
vn 0.9946075 -0.0025925557 0.10367873
vn 0.7687467 -0.031945266 0.6387551
vn 0.7687467 -0.031945266 0.6387551
vn 0.7687467 -0.031945266 0.6387551
vn 0.7687467 -0.031945266 0.6387551
vn 0.7688811 -0.025923535 0.63886607
vn 0.7688811 -0.025923535 0.63886607
vn -0.7688466 -0.02813615 0.63881403
vn -0.7688466 -0.02813615 0.63881403
vn -0.7688466 -0.02813615 0.63881403
vn -0.7688466 -0.02813615 0.63881403
vn -0 -0.04994936 0.99875176
vn -0 -0.04994936 0.99875176
vn -0 -0.04994936 0.99875176
vn -0 -0.04994936 0.99875176
vn -0 -0.040544055 0.99917775
vn -0 -0.040544055 0.99917775
vn -0 0.13342969 0.99105823
vn -0 0.13342969 0.99105823
vn -0 0.13342969 0.99105823
vn -0 0.13342969 0.99105823
vn -0.7688925 -0.025922976 0.63885236
vn -0.7688925 -0.025922976 0.63885236
vn -0.7688925 -0.025922976 0.63885236
vn -0.7688925 -0.025922976 0.63885236
vn -0.7687582 -0.031944595 0.63874114
vn -0.7687582 -0.031944595 0.63874114
vn 0.76630825 0.08572499 0.6367282
vn 0.76630825 0.08572499 0.6367282
vn 0.76630825 0.08572499 0.6367282
vn 0.76630825 0.08572499 0.6367282
vn 0.76883507 -0.028136749 0.6388278
vn 0.76883507 -0.028136749 0.6388278
vn 0.76883507 -0.028136749 0.6388278
vn 0.76883507 -0.028136749 0.6388278
vn -0 -0.04400168 0.9990314
vn -0 -0.04400168 0.9990314
vn -0 -0.04400168 0.9990314
vn -0 -0.04400168 0.9990314
vn -0.76631975 0.08572315 0.6367147
vn -0.76631975 0.08572315 0.6367147
vn -0.76631975 0.08572315 0.6367147
vn -0.76631975 0.08572315 0.6367147
g Gravewall_0
f 3/3/3 2/2/2 1/1/1
f 1/1/1 4/4/4 3/3/3
f 1/1/1 5/5/5 4/4/4
f 5/5/5 6/6/6 4/4/4
f 9/9/9 8/8/8 7/7/7
f 7/7/7 10/10/10 9/9/9
f 7/7/7 11/11/11 10/10/10
f 11/11/11 12/12/12 10/10/10
f 15/15/15 14/14/14 13/13/13
f 16/16/16 15/15/15 13/13/13
f 16/16/16 13/13/13 17/17/17
f 18/18/18 16/16/16 17/17/17
f 18/18/18 17/17/17 19/19/19
f 20/20/20 18/18/18 19/19/19
f 20/20/20 19/19/19 21/21/21
f 22/22/22 20/20/20 21/21/21
f 25/25/25 24/24/24 23/23/23
f 26/26/26 25/25/25 23/23/23
f 26/26/26 23/23/23 27/27/27
f 28/28/28 26/26/26 27/27/27
f 28/28/28 27/27/27 29/29/29
f 30/30/30 28/28/28 29/29/29
f 30/30/30 29/29/29 31/31/31
f 32/32/32 30/30/30 31/31/31
f 35/35/35 34/34/34 33/33/33
f 34/34/34 36/36/36 33/33/33
f 33/33/33 36/36/36 37/37/37
f 36/36/36 38/38/38 37/37/37
f 41/41/41 40/40/40 39/39/39
f 42/42/42 41/41/41 39/39/39
f 45/45/45 44/44/44 43/43/43
f 44/44/44 46/46/46 43/43/43
f 43/43/43 46/46/46 47/47/47
f 46/46/46 48/48/48 47/47/47
f 51/51/51 50/50/50 49/49/49
f 52/52/52 51/51/51 49/49/49
f 55/55/55 54/54/54 53/53/53
f 54/54/54 56/56/56 53/53/53
f 53/53/53 56/56/56 57/57/57
f 56/56/56 58/58/58 57/57/57
f 61/61/61 60/60/60 59/59/59
f 62/62/62 61/61/61 59/59/59
f 65/65/65 64/64/64 63/63/63
f 66/66/66 65/65/65 63/63/63
f 69/69/69 68/68/68 67/67/67
f 70/70/70 69/69/69 67/67/67
f 73/73/73 72/72/72 71/71/71
f 74/74/74 73/73/73 71/71/71
