g House Ruins
v -1.112005 -1.0403843 1.1175871E-07
v -1.2078797 -1.4922502 0.014105349
v -0.34247887 -1.4253962 0.019504342
v -0.563671 -0.9446544 1.1175871E-07
v 1.1766455 -0.68842757 1.09400894E-07
v 0.7742536 -0.78123474 1.09400894E-07
v 0.7060437 -1.5414689 1.09400894E-07
v 1.2044473 -1.6080348 1.09400894E-07
v -1.112005 -1.0403843 0.48841435
v -0.563671 -0.9446544 0.48841435
v -0.34247887 -1.4253962 0.5079186
v -1.2078797 -1.4922502 0.5025196
v 1.1766455 -0.68842757 0.48841435
v 1.2044473 -1.6080348 0.48841435
v 0.7060437 -1.5414689 0.48841435
v 0.7742536 -0.78123474 0.48841435
v -0.563671 -0.9446544 1.1175871E-07
v -0.34247887 -1.4253962 0.019504342
v -0.34247887 -1.4253962 0.5079186
v -0.563671 -0.9446544 0.48841435
v 1.2044473 -1.6080348 1.09400894E-07
v 0.7060437 -1.5414689 1.09400894E-07
v 0.7060437 -1.5414689 0.48841435
v 1.2044473 -1.6080348 0.48841435
v -1.2078797 -1.4922502 0.014105349
v -1.112005 -1.0403843 1.1175871E-07
v -1.112005 -1.0403843 0.48841435
v -1.2078797 -1.4922502 0.5025196
v -1.112005 -1.0403843 1.1175871E-07
v -0.563671 -0.9446544 1.1175871E-07
v -0.563671 -0.9446544 0.48841435
v -1.112005 -1.0403843 0.48841435
v 0.7742536 -0.78123474 1.09400894E-07
v 1.1766455 -0.68842757 1.09400894E-07
v 1.1766455 -0.68842757 0.48841435
v 0.7742536 -0.78123474 0.48841435
v 1.1766455 -0.68842757 1.09400894E-07
v 1.2044473 -1.6080348 1.09400894E-07
v 1.2044473 -1.6080348 0.48841435
v 1.1766455 -0.68842757 0.48841435
v -0.5822582 1.42365 1.0430813E-07
v -1.1750329 1.5600753 1.0430813E-07
v -1.2286878 0.99795973 1.0430813E-07
v -0.77501726 0.7940717 1.0430813E-07
v -0.5822582 1.42365 0.48841435
v -0.77501726 0.7940717 0.48841435
v -1.2286878 0.99795973 0.48841435
v -1.1750329 1.5600753 0.48841435
v -0.77501726 0.7940717 1.0430813E-07
v -1.2286878 0.99795973 1.0430813E-07
v -1.2286878 0.99795973 0.48841435
v -0.77501726 0.7940717 0.48841435
v -1.1750329 1.5600753 1.0430813E-07
v -0.5822582 1.42365 1.0430813E-07
v -0.5822582 1.42365 0.48841435
v -1.1750329 1.5600753 0.48841435
v -0.5822582 1.42365 1.0430813E-07
v -0.77501726 0.7940717 1.0430813E-07
v -0.77501726 0.7940717 0.48841435
v -0.5822582 1.42365 0.48841435
v -1.2286878 0.99795973 1.0430813E-07
v -1.1750329 1.5600753 1.0430813E-07
v -1.1750329 1.5600753 0.48841435
v -1.2286878 0.99795973 0.48841435
v 0.7060437 -1.5414689 1.09400894E-07
v 0.7742536 -0.78123474 1.09400894E-07
v 0.7742536 -0.78123474 0.48841435
v 0.7060437 -1.5414689 0.48841435
v -0.34247887 -1.4253962 0.019504342
v -1.2078797 -1.4922502 0.014105349
v -1.2078797 -1.4922502 0.5025196
v -0.34247887 -1.4253962 0.5079186
v 1.0359089 0.939252 1.6391277E-07
v 1.0932508 1.5634967 1.6391277E-07
v 0.5656682 1.362227 1.6391277E-07
v 0.5841889 0.8651915 1.6391277E-07
v 1.0359089 0.939252 0.4884144
v 0.5841889 0.8651915 0.4884144
v 0.5656682 1.362227 0.4884144
v 1.0932508 1.5634967 0.4884144
v 0.5841889 0.8651915 1.6391277E-07
v 0.5656682 1.362227 1.6391277E-07
v 0.5656682 1.362227 0.4884144
v 0.5841889 0.8651915 0.4884144
v 1.0932508 1.5634967 1.6391277E-07
v 1.0359089 0.939252 1.6391277E-07
v 1.0359089 0.939252 0.4884144
v 1.0932508 1.5634967 0.4884144
v 1.0359089 0.939252 1.6391277E-07
v 0.5841889 0.8651915 1.6391277E-07
v 0.5841889 0.8651915 0.4884144
v 1.0359089 0.939252 0.4884144
v 0.5656682 1.362227 1.6391277E-07
v 1.0932508 1.5634967 1.6391277E-07
v 1.0932508 1.5634967 0.4884144
v 0.5656682 1.362227 0.4884144
v 1.1966859 -0.13017225 1.6391277E-07
v 1.0559965 0.46160483 1.6391277E-07
v 0.7777504 0.3554555 1.6391277E-07
v 0.82684946 -0.19080773 1.6391277E-07
v 1.1966859 -0.13017225 0.4884144
v 0.82684946 -0.19080773 0.4884144
v 0.7777504 0.3554555 0.4884144
v 1.0559965 0.46160483 0.4884144
v 0.82684946 -0.19080773 1.6391277E-07
v 0.7777504 0.3554555 1.6391277E-07
v 0.7777504 0.3554555 0.4884144
v 0.82684946 -0.19080773 0.4884144
v 1.0559965 0.46160483 1.6391277E-07
v 1.1966859 -0.13017225 1.6391277E-07
v 1.1966859 -0.13017225 0.4884144
v 1.0559965 0.46160483 0.4884144
v 1.1966859 -0.13017225 1.6391277E-07
v 0.82684946 -0.19080773 1.6391277E-07
v 0.82684946 -0.19080773 0.4884144
v 1.1966859 -0.13017225 0.4884144
v 0.7777504 0.3554555 1.6391277E-07
v 1.0559965 0.46160483 1.6391277E-07
v 1.0559965 0.46160483 0.4884144
v 0.7777504 0.3554555 0.4884144
vt 0 0
vt 0 0
vt 0 0
vt 0 0
vt 0 0
vt 0 0
vt 0 0
vt 0 0
vt 0 0
vt 0 0
vt 0 0
vt 0 0
vt 0 0
vt 0 0
vt 0 0
vt 0 0
vt 0 0
vt 0 0
vt 0 0
vt 0 0
vt 0 0
vt 0 0
vt 0 0
vt 0 0
vt 0 0
vt 0 0
vt 0 0
vt 0 0
vt 0 0
vt 0 0
vt 0 0
vt 0 0
vt 0 0
vt 0 0
vt 0 0
vt 0 0
vt 0 0
vt 0 0
vt 0 0
vt 0 0
vt 0 0
vt 0 0
vt 0 0
vt 0 0
vt 0 0
vt 0 0
vt 0 0
vt 0 0
vt 0 0
vt 0 0
vt 0 0
vt 0 0
vt 0 0
vt 0 0
vt 0 0
vt 0 0
vt 0 0
vt 0 0
vt 0 0
vt 0 0
vt 0 0
vt 0 0
vt 0 0
vt 0 0
vt 0 0
vt 0 0
vt 0 0
vt 0 0
vt 0 0
vt 0 0
vt 0 0
vt 0 0
vt 0 0
vt 0 0
vt 0 0
vt 0 0
vt 0 0
vt 0 0
vt 0 0
vt 0 0
vt 0 0
vt 0 0
vt 0 0
vt 0 0
vt 0 0
vt 0 0
vt 0 0
vt 0 0
vt 0 0
vt 0 0
vt 0 0
vt 0 0
vt 0 0
vt 0 0
vt 0 0
vt 0 0
vt 0 0
vt 0 0
vt 0 0
vt 0 0
vt 0 0
vt 0 0
vt 0 0
vt 0 0
vt 0 0
vt 0 0
vt 0 0
vt 0 0
vt 0 0
vt 0 0
vt 0 0
vt 0 0
vt 0 0
vt 0 0
vt 0 0
vt 0 0
vt 0 0
vt 0 0
vt 0 0
vt 0 0
vn 0.007837233 -0.034961913 -0.9993579
vn 0.007837233 -0.034961913 -0.9993579
vn 0.007837233 -0.034961913 -0.9993579
vn 0.007837233 -0.034961913 -0.9993579
vn -0 0 -1
vn -0 0 -1
vn -0 0 -1
vn -0 0 -1
vn -0.00783726 0.034961957 0.9993579
vn -0.00783726 0.034961957 0.9993579
vn -0.00783726 0.034961957 0.9993579
vn -0.00783726 0.034961957 0.9993579
vn -0 0 1
vn -0 0 1
vn -0 0 1
vn -0 0 1
vn 0.9084539 0.41798505 0
vn 0.9084539 0.41798505 0
vn 0.9084539 0.41798505 0
vn 0.9084539 0.41798505 0
vn -0.13238293 -0.9911986 0
vn -0.13238293 -0.9911986 0
vn -0.13238293 -0.9911986 0
vn -0.13238293 -0.9911986 0
vn -0.9782235 0.20755455 0
vn -0.9782235 0.20755455 0
vn -0.9782235 0.20755455 0
vn -0.9782235 0.20755455 0
vn -0.1719819 0.9851001 0
vn -0.1719819 0.9851001 0
vn -0.1719819 0.9851001 0
vn -0.1719819 0.9851001 0
vn -0.22473884 0.97441906 0
vn -0.22473884 0.97441906 0
vn -0.22473884 0.97441906 0
vn -0.22473884 0.97441906 0
vn 0.9995433 0.030218394 0
vn 0.9995433 0.030218394 0
vn 0.9995433 0.030218394 0
vn 0.9995433 0.030218394 0
vn -0 0 -1
vn -0 0 -1
vn -0 0 -1
vn -0 0 -1
vn -0 0 1
vn -0 0 1
vn -0 0 1
vn -0 0 1
vn -0.4099238 -0.9121197 0
vn -0.4099238 -0.9121197 0
vn -0.4099238 -0.9121197 0
vn -0.4099238 -0.9121197 0
vn 0.22428368 0.9745239 0
vn 0.22428368 0.9745239 0
vn 0.22428368 0.9745239 0
vn 0.22428368 0.9745239 0
vn 0.95618683 -0.29275727 0
vn 0.95618683 -0.29275727 0
vn 0.95618683 -0.29275727 0
vn 0.95618683 -0.29275727 0
vn -0.99547535 0.09501969 0
vn -0.99547535 0.09501969 0
vn -0.99547535 0.09501969 0
vn -0.99547535 0.09501969 0
vn -0.9959991 0.089363225 0
vn -0.9959991 0.089363225 0
vn -0.9959991 0.089363225 0
vn -0.9959991 0.089363225 0
vn 0.07702256 -0.9970293 0
vn 0.07702256 -0.9970293 0
vn 0.07702256 -0.9970293 0
vn 0.07702256 -0.9970293 0
vn -0 0 -1
vn -0 0 -1
vn -0 0 -1
vn -0 0 -1
vn -0 0 1
vn -0 0 1
vn -0 0 1
vn -0 0 1
vn -0.99930656 -0.037236396 0
vn -0.99930656 -0.037236396 0
vn -0.99930656 -0.037236396 0
vn -0.99930656 -0.037236396 0
vn 0.9958075 -0.09147278 0
vn 0.9958075 -0.09147278 0
vn 0.9958075 -0.09147278 0
vn 0.9958075 -0.09147278 0
vn 0.16179211 -0.9868248 0
vn 0.16179211 -0.9868248 0
vn 0.16179211 -0.9868248 0
vn 0.16179211 -0.9868248 0
vn -0.35643747 0.93431914 0
vn -0.35643747 0.93431914 0
vn -0.35643747 0.93431914 0
vn -0.35643747 0.93431914 0
vn -0 0 -1
vn -0 0 -1
vn -0 0 -1
vn -0 0 -1
vn -0 0 1
vn -0 0 1
vn -0 0 1
vn -0 0 1
vn -0.99598503 -0.08952092 0
vn -0.99598503 -0.08952092 0
vn -0.99598503 -0.08952092 0
vn -0.99598503 -0.08952092 0
vn 0.97288394 0.23129384 0
vn 0.97288394 0.23129384 0
vn 0.97288394 0.23129384 0
vn 0.97288394 0.23129384 0
vn 0.16179204 -0.9868249 0
vn 0.16179204 -0.9868249 0
vn 0.16179204 -0.9868249 0
vn 0.16179204 -0.9868249 0
vn -0.35643736 0.93431914 0
vn -0.35643736 0.93431914 0
vn -0.35643736 0.93431914 0
vn -0.35643736 0.93431914 0
g House Ruins_0
f 3/3/3 2/2/2 1/1/1
f 4/4/4 3/3/3 1/1/1
f 7/7/7 6/6/6 5/5/5
f 8/8/8 7/7/7 5/5/5
f 11/11/11 10/10/10 9/9/9
f 12/12/12 11/11/11 9/9/9
f 15/15/15 14/14/14 13/13/13
f 16/16/16 15/15/15 13/13/13
f 19/19/19 18/18/18 17/17/17
f 20/20/20 19/19/19 17/17/17
f 23/23/23 22/22/22 21/21/21
f 24/24/24 23/23/23 21/21/21
f 27/27/27 26/26/26 25/25/25
f 28/28/28 27/27/27 25/25/25
f 31/31/31 30/30/30 29/29/29
f 32/32/32 31/31/31 29/29/29
f 35/35/35 34/34/34 33/33/33
f 36/36/36 35/35/35 33/33/33
f 39/39/39 38/38/38 37/37/37
f 40/40/40 39/39/39 37/37/37
f 43/43/43 42/42/42 41/41/41
f 44/44/44 43/43/43 41/41/41
f 47/47/47 46/46/46 45/45/45
f 48/48/48 47/47/47 45/45/45
f 51/51/51 50/50/50 49/49/49
f 52/52/52 51/51/51 49/49/49
f 55/55/55 54/54/54 53/53/53
f 56/56/56 55/55/55 53/53/53
f 59/59/59 58/58/58 57/57/57
f 60/60/60 59/59/59 57/57/57
f 63/63/63 62/62/62 61/61/61
f 64/64/64 63/63/63 61/61/61
f 67/67/67 66/66/66 65/65/65
f 68/68/68 67/67/67 65/65/65
f 71/71/71 70/70/70 69/69/69
f 72/72/72 71/71/71 69/69/69
f 75/75/75 74/74/74 73/73/73
f 76/76/76 75/75/75 73/73/73
f 79/79/79 78/78/78 77/77/77
f 80/80/80 79/79/79 77/77/77
f 83/83/83 82/82/82 81/81/81
f 84/84/84 83/83/83 81/81/81
f 87/87/87 86/86/86 85/85/85
f 88/88/88 87/87/87 85/85/85
f 91/91/91 90/90/90 89/89/89
f 92/92/92 91/91/91 89/89/89
f 95/95/95 94/94/94 93/93/93
f 96/96/96 95/95/95 93/93/93
f 99/99/99 98/98/98 97/97/97
f 100/100/100 99/99/99 97/97/97
f 103/103/103 102/102/102 101/101/101
f 104/104/104 103/103/103 101/101/101
f 107/107/107 106/106/106 105/105/105
f 108/108/108 107/107/107 105/105/105
f 111/111/111 110/110/110 109/109/109
f 112/112/112 111/111/111 109/109/109
f 115/115/115 114/114/114 113/113/113
f 116/116/116 115/115/115 113/113/113
f 119/119/119 118/118/118 117/117/117
f 120/120/120 119/119/119 117/117/117
