g Icicle Sharp
v -0.19176972 1.4294739 0.12032974
v -0.27830386 1.4574345 -0.5233319
v 0.15214399 1.7213736 -0.5463699
v 0.15761487 1.643707 0.101630315
v 0.5967628 1.4812499 -0.5347687
v -0.18026742 1.0203379 0.14844568
v -0.26413286 0.953372 -0.48869258
v 0.5185017 1.4488043 0.111046776
v 0.6109339 0.9771872 -0.5001294
v 0.1806194 0.82543504 0.15786211
v 0.18048596 0.7132483 -0.47709137
v 0.530004 1.0396682 0.1391627
v 0.057198092 1.3105799 2.4635067
v 0.052656293 1.4721314 2.452405
v 0.19061431 1.5567236 2.4450212
v 0.3331141 1.4797642 2.4487393
v 0.246723 1.7133017 7.0643744
v 0.19969788 1.2336206 2.4672248
v 0.3376559 1.3182127 2.4598413
v -0.31442118 -0.84737736 0.22436315
v -0.37102854 -0.81153476 -0.3883999
v -2.5302254E-06 -0.5973446 -0.3853438
v -1.3966311E-06 -0.6658654 0.22695303
v 0.37102348 -0.8115347 -0.3883999
v -0.31442118 -1.210401 0.21918347
v -0.37102854 -1.2399149 -0.39451212
v 0.3144184 -0.8473773 0.22436318
v 0.37102348 -1.239915 -0.39451212
v -1.4283708E-06 -1.3919129 0.21659361
v -2.5676798E-06 -1.4541051 -0.39756826
v 0.3144184 -1.210401 0.21918347
v -0.12414892 -1.130004 2.2842917
v -0.12414892 -0.98666054 2.286337
v 2.8959164E-06 -0.91498876 2.2873595
v 0.12415472 -0.98666054 2.286337
v -0 -1.1166552 6.372922
v 2.8833836E-06 -1.2016759 2.2832692
v 0.1241547 -1.1300042 2.2842917
v 0.65756756 0.1883489 0.2015422
v 0.59349775 0.19037202 -0.38406327
v 0.91757333 0.3729922 -0.4383398
v 0.93643486 0.3454937 0.15483722
v 1.2416489 0.18262044 -0.44573233
v 0.65756756 -0.13261083 0.24188593
v 0.59349775 -0.18261974 -0.3371793
v 1.2153022 0.18167868 0.14847594
v 1.2416489 -0.19037144 -0.39884833
v 0.93643486 -0.29642585 0.23552465
v 0.9175733 -0.3729915 -0.34457183
v 1.2153022 -0.13928112 0.18881968
v 1.0018505 0.19076279 2.0297277
v 1.0018505 0.317497 2.0137975
v 1.1119641 0.37954718 1.9953556
v 1.2220776 0.31486318 1.9928439
v 1.4596546 0.7050045 5.6087556
v 1.1119641 0.12607877 2.027216
v 1.2220776 0.18812895 2.008774
v -1.2290595 0.16965084 0.06483791
v -1.2821364 0.18393438 -0.51669633
v -0.9623588 0.36786857 -0.53263867
v -0.96235776 0.323056 0.05154168
v -0.64258105 0.18393444 -0.51669633
v -1.2290595 -0.13715935 0.09143046
v -1.2821364 -0.18393381 -0.48481172
v -0.69565606 0.16965087 0.06483794
v -0.64258105 -0.18393388 -0.4848117
v -0.96235776 -0.2905645 0.10472671
v -0.9623588 -0.367868 -0.4688694
v -0.69565606 -0.13715938 0.09143046
v -1.0676639 0.106832355 1.8273902
v -1.0676639 0.22797945 1.8168899
v -0.9623541 0.28855303 1.8116398
v -0.8570443 0.22797947 1.8168899
v -0.96235657 0.46683475 5.2767906
v -0.9623541 0.046258785 1.8326404
v -0.8570443 0.10683234 1.8273902
v -0.45990765 0.26552695 0.3244235
v -0.53100824 0.30657393 -0.39145595
v -7.211933E-06 0.6131476 -0.39145595
v -2.042869E-06 0.53105366 0.32442352
v 0.5309938 0.30657402 -0.39145595
v -0.45990765 -0.26552618 0.32442355
v -0.53100824 -0.30657306 -0.39145595
v 0.45990357 0.265527 0.32442352
v 0.5309938 -0.30657318 -0.39145595
v -2.089295E-06 -0.5310528 0.32442352
v -7.2655357E-06 -0.6131467 -0.39145595
v 0.45990357 -0.26552624 0.32442355
v -0.18159412 -0.1048455 3.343097
v -0.18159412 0.10484617 3.343097
v 4.2358915E-06 0.20969205 3.343097
v 0.1816026 0.1048462 3.343097
v -0 4.7683716E-07 9.322699
v 4.2175598E-06 -0.20969138 3.343097
v 0.18160257 -0.10484553 3.343097
vt 0.049386792 0.36582404
vt 0.042153895 0.36999997
vt 0.25 0.49
vt 0.25 0.4816482
vt 0.4578461 0.37
vt 0.049386792 0.13417596
vt 0.042153895 0.13000003
vt 0.45061323 0.3658241
vt 0.4578461 0.13
vt 0.24999997 0.018351834
vt 0.24999999 0.010000005
vt 0.45061317 0.1341759
vt 0.116687 0.17303175
vt 0.11668701 0.32696828
vt 0.25 0.4039366
vt 0.383313 0.3269683
vt 0.25 0.25
vt 0.25 0.096063435
vt 0.383313 0.1730317
vt 0.049386792 0.36582404
vt 0.042153895 0.36999997
vt 0.25 0.49
vt 0.25 0.4816482
vt 0.4578461 0.37
vt 0.049386792 0.13417596
vt 0.042153895 0.13000003
vt 0.45061323 0.3658241
vt 0.4578461 0.13
vt 0.24999997 0.018351834
vt 0.24999999 0.010000005
vt 0.45061317 0.1341759
vt 0.116687 0.17303175
vt 0.11668701 0.32696828
vt 0.25 0.4039366
vt 0.383313 0.3269683
vt 0.25 0.25
vt 0.25 0.096063435
vt 0.383313 0.1730317
vt 0.049386792 0.36582404
vt 0.042153895 0.36999997
vt 0.25 0.49
vt 0.25 0.4816482
vt 0.4578461 0.37
vt 0.049386792 0.13417596
vt 0.042153895 0.13000003
vt 0.45061323 0.3658241
vt 0.4578461 0.13
vt 0.24999997 0.018351834
vt 0.24999999 0.010000005
vt 0.45061317 0.1341759
vt 0.116687 0.17303175
vt 0.11668701 0.32696828
vt 0.25 0.4039366
vt 0.383313 0.3269683
vt 0.25 0.25
vt 0.25 0.096063435
vt 0.383313 0.1730317
vt 0.049386792 0.36582404
vt 0.042153895 0.36999997
vt 0.25 0.49
vt 0.25 0.4816482
vt 0.4578461 0.37
vt 0.049386792 0.13417596
vt 0.042153895 0.13000003
vt 0.45061323 0.3658241
vt 0.4578461 0.13
vt 0.24999997 0.018351834
vt 0.24999999 0.010000005
vt 0.45061317 0.1341759
vt 0.116687 0.17303175
vt 0.11668701 0.32696828
vt 0.25 0.4039366
vt 0.383313 0.3269683
vt 0.25 0.25
vt 0.25 0.096063435
vt 0.383313 0.1730317
vt 0.049386792 0.36582404
vt 0.042153895 0.36999997
vt 0.25 0.49
vt 0.25 0.4816482
vt 0.4578461 0.37
vt 0.049386792 0.13417596
vt 0.042153895 0.13000003
vt 0.45061323 0.3658241
vt 0.4578461 0.13
vt 0.24999997 0.018351834
vt 0.24999999 0.010000005
vt 0.45061317 0.1341759
vt 0.116687 0.17303175
vt 0.11668701 0.32696828
vt 0.25 0.4039366
vt 0.383313 0.3269683
vt 0.25 0.25
vt 0.25 0.096063435
vt 0.383313 0.1730317
vn -0.8735334 0.4738329 0.1114531
vn -0.8608283 0.49010223 0.13702016
vn -0.023203332 0.99260336 0.119164936
vn -0.027474916 0.9963894 0.08033252
vn 0.8357167 0.53401047 0.12810224
vn -0.84198684 -0.5157824 0.15819846
vn -0.8490901 -0.501974 0.16452381
vn 0.8476155 0.5218543 0.096000746
vn 0.87880605 -0.45118418 0.15534692
vn 0.027697703 -0.9843844 0.17383917
vn 0.031450067 -0.9842614 0.17389756
vn 0.87132037 -0.4694886 0.14276275
vn -0.84864867 -0.5159466 0.11659493
vn -0.87661403 0.47877032 0.0482378
vn -0.027168615 0.999627 0.0027739864
vn 0.8502412 0.5257672 0.025667198
vn 0.01155978 0.069105335 0.9975424
vn 0.02876166 -0.9898059 0.13948815
vn 0.8782063 -0.46894896 0.094024256
vn -0.86069065 0.49694633 0.11070598
vn -0.8627335 0.49386188 0.10858749
vn -0 0.99379647 0.11121381
vn -0 0.9933094 0.11548376
vn 0.8627335 0.49386266 0.10858425
vn -0.86161333 -0.4973848 0.101147234
vn -0.8595424 -0.5005044 0.10335461
vn 0.86069095 0.4969466 0.11070262
vn 0.8595423 -0.5005051 0.10335152
vn -0 -0.9953459 0.096366264
vn -0 -0.99491197 0.10074838
vn 0.86161363 -0.4973851 0.10114391
vn -0.8638209 -0.4996939 0.06418289
vn -0.8638209 0.4976594 0.0784134
vn -0 0.99633574 0.08552806
vn 0.8638211 0.49765906 0.07841217
vn 0.00013018322 -0.014498793 0.99989486
vn -0 -0.99837035 0.05706706
vn 0.8638211 -0.4996938 0.06418167
vn -0.8587452 0.50043726 0.11008727
vn -0.8355542 0.5414303 0.09328664
vn 0.03445696 0.9983841 0.045187358
vn 0.0022089966 0.9998853 0.014979921
vn 0.8591441 0.51025295 0.03890242
vn -0.85316575 -0.4848611 0.19240049
vn -0.8690447 -0.47532767 0.13720419
vn 0.8703034 0.49251193 0.0020420307
vn 0.8824065 -0.46365884 0.079869874
vn -0.005035399 -0.98376113 0.17941202
vn 0.020713307 -0.99127626 0.13016285
vn 0.8583666 -0.5060865 0.08416263
vn -0.8530697 -0.47569764 0.21443854
vn -0.85306954 0.51396996 0.09004036
vn 0.0068072868 0.99851924 -0.053973194
vn 0.86668307 0.4934016 -0.07358853
vn 0.09572675 0.12459775 0.9875788
vn 0.0068067578 -0.9808148 0.19482313
vn 0.86668295 -0.4962652 0.050809633
vn -0.86410767 0.49732018 0.07739835
vn -0.85059154 0.5180053 0.09035716
vn -0 0.99707067 0.076485395
vn -0 0.99878436 0.049292535
vn 0.85059154 0.51800585 0.0903543
vn -0.85818297 -0.4956376 0.1336614
vn -0.8710512 -0.47658014 0.11891627
vn 0.864108 0.49732018 0.07739511
vn 0.8710512 -0.47658092 0.118913375
vn -0 -0.9868203 0.16182022
vn -0 -0.9910404 0.13356239
vn 0.85818315 -0.49563813 0.13365825
vn -0.8638211 -0.49070707 0.1141044
vn -0.8638208 0.5030219 0.027973793
vn -0 0.99988616 -0.015092111
vn 0.8638211 0.5030215 0.027972601
vn -0 0.08635471 0.9962644
vn -0 -0.9875717 0.15716901
vn 0.8638211 -0.4907072 0.11410308
vn -0.8607658 0.49696392 0.110040635
vn -0.86038667 0.49674314 0.11393512
vn -0 0.9934889 0.113928996
vn -0 0.9939275 0.11003662
vn 0.8603867 0.49674574 0.11392283
vn -0.86076593 -0.496964 0.11004061
vn -0.86038667 -0.49674308 0.11393506
vn 0.8607671 0.49696356 0.11003255
vn 0.8603867 -0.49674568 0.11392283
vn -0 -0.9939275 0.110036545
vn -0 -0.9934889 0.113928914
vn 0.86076707 -0.49696362 0.11003254
vn -0.8638209 -0.49872744 0.07130542
vn -0.8638209 0.49872744 0.07130542
vn -0 0.9974546 0.0713048
vn 0.86382115 0.4987271 0.07130419
vn -0.0005350184 0 0.9999999
vn -0 -0.9974546 0.071304806
vn 0.8638211 -0.49872723 0.07130418
g Icicle Sharp_0
f 3/3/3 2/2/2 1/1/1
f 4/4/4 3/3/3 1/1/1
f 5/5/5 3/3/3 4/4/4
f 1/1/1 2/2/2 6/6/6
f 2/2/2 7/7/7 6/6/6
f 8/8/8 5/5/5 4/4/4
f 9/9/9 5/5/5 8/8/8
f 6/6/6 7/7/7 10/10/10
f 7/7/7 11/11/11 10/10/10
f 11/11/11 9/9/9 12/12/12
f 12/12/12 9/9/9 8/8/8
f 10/10/10 11/11/11 12/12/12
f 1/1/1 6/6/6 13/13/13
f 4/4/4 1/1/1 14/14/14
f 14/14/14 1/1/1 13/13/13
f 8/8/8 4/4/4 15/15/15
f 15/15/15 4/4/4 14/14/14
f 12/12/12 8/8/8 16/16/16
f 16/16/16 8/8/8 15/15/15
f 17/17/17 15/15/15 14/14/14
f 17/17/17 14/14/14 13/13/13
f 17/17/17 16/16/16 15/15/15
f 13/13/13 6/6/6 18/18/18
f 6/6/6 10/10/10 18/18/18
f 17/17/17 13/13/13 18/18/18
f 10/10/10 12/12/12 19/19/19
f 19/19/19 12/12/12 16/16/16
f 18/18/18 10/10/10 19/19/19
f 17/17/17 19/19/19 16/16/16
f 17/17/17 18/18/18 19/19/19
f 22/22/22 21/21/21 20/20/20
f 23/23/23 22/22/22 20/20/20
f 24/24/24 22/22/22 23/23/23
f 20/20/20 21/21/21 25/25/25
f 21/21/21 26/26/26 25/25/25
f 27/27/27 24/24/24 23/23/23
f 28/28/28 24/24/24 27/27/27
f 25/25/25 26/26/26 29/29/29
f 26/26/26 30/30/30 29/29/29
f 30/30/30 28/28/28 31/31/31
f 31/31/31 28/28/28 27/27/27
f 29/29/29 30/30/30 31/31/31
f 20/20/20 25/25/25 32/32/32
f 23/23/23 20/20/20 33/33/33
f 33/33/33 20/20/20 32/32/32
f 27/27/27 23/23/23 34/34/34
f 34/34/34 23/23/23 33/33/33
f 31/31/31 27/27/27 35/35/35
f 35/35/35 27/27/27 34/34/34
f 36/36/36 34/34/34 33/33/33
f 36/36/36 33/33/33 32/32/32
f 36/36/36 35/35/35 34/34/34
f 32/32/32 25/25/25 37/37/37
f 25/25/25 29/29/29 37/37/37
f 36/36/36 32/32/32 37/37/37
f 29/29/29 31/31/31 38/38/38
f 38/38/38 31/31/31 35/35/35
f 37/37/37 29/29/29 38/38/38
f 36/36/36 38/38/38 35/35/35
f 36/36/36 37/37/37 38/38/38
f 41/41/41 40/40/40 39/39/39
f 42/42/42 41/41/41 39/39/39
f 43/43/43 41/41/41 42/42/42
f 39/39/39 40/40/40 44/44/44
f 40/40/40 45/45/45 44/44/44
f 46/46/46 43/43/43 42/42/42
f 47/47/47 43/43/43 46/46/46
f 44/44/44 45/45/45 48/48/48
f 45/45/45 49/49/49 48/48/48
f 49/49/49 47/47/47 50/50/50
f 50/50/50 47/47/47 46/46/46
f 48/48/48 49/49/49 50/50/50
f 39/39/39 44/44/44 51/51/51
f 42/42/42 39/39/39 52/52/52
f 52/52/52 39/39/39 51/51/51
f 46/46/46 42/42/42 53/53/53
f 53/53/53 42/42/42 52/52/52
f 50/50/50 46/46/46 54/54/54
f 54/54/54 46/46/46 53/53/53
f 55/55/55 53/53/53 52/52/52
f 55/55/55 52/52/52 51/51/51
f 55/55/55 54/54/54 53/53/53
f 51/51/51 44/44/44 56/56/56
f 44/44/44 48/48/48 56/56/56
f 55/55/55 51/51/51 56/56/56
f 48/48/48 50/50/50 57/57/57
f 57/57/57 50/50/50 54/54/54
f 56/56/56 48/48/48 57/57/57
f 55/55/55 57/57/57 54/54/54
f 55/55/55 56/56/56 57/57/57
f 60/60/60 59/59/59 58/58/58
f 61/61/61 60/60/60 58/58/58
f 62/62/62 60/60/60 61/61/61
f 58/58/58 59/59/59 63/63/63
f 59/59/59 64/64/64 63/63/63
f 65/65/65 62/62/62 61/61/61
f 66/66/66 62/62/62 65/65/65
f 63/63/63 64/64/64 67/67/67
f 64/64/64 68/68/68 67/67/67
f 68/68/68 66/66/66 69/69/69
f 69/69/69 66/66/66 65/65/65
f 67/67/67 68/68/68 69/69/69
f 58/58/58 63/63/63 70/70/70
f 61/61/61 58/58/58 71/71/71
f 71/71/71 58/58/58 70/70/70
f 65/65/65 61/61/61 72/72/72
f 72/72/72 61/61/61 71/71/71
f 69/69/69 65/65/65 73/73/73
f 73/73/73 65/65/65 72/72/72
f 74/74/74 72/72/72 71/71/71
f 74/74/74 71/71/71 70/70/70
f 74/74/74 73/73/73 72/72/72
f 70/70/70 63/63/63 75/75/75
f 63/63/63 67/67/67 75/75/75
f 74/74/74 70/70/70 75/75/75
f 67/67/67 69/69/69 76/76/76
f 76/76/76 69/69/69 73/73/73
f 75/75/75 67/67/67 76/76/76
f 74/74/74 76/76/76 73/73/73
f 74/74/74 75/75/75 76/76/76
f 79/79/79 78/78/78 77/77/77
f 80/80/80 79/79/79 77/77/77
f 81/81/81 79/79/79 80/80/80
f 77/77/77 78/78/78 82/82/82
f 78/78/78 83/83/83 82/82/82
f 84/84/84 81/81/81 80/80/80
f 85/85/85 81/81/81 84/84/84
f 82/82/82 83/83/83 86/86/86
f 83/83/83 87/87/87 86/86/86
f 87/87/87 85/85/85 88/88/88
f 88/88/88 85/85/85 84/84/84
f 86/86/86 87/87/87 88/88/88
f 77/77/77 82/82/82 89/89/89
f 80/80/80 77/77/77 90/90/90
f 90/90/90 77/77/77 89/89/89
f 84/84/84 80/80/80 91/91/91
f 91/91/91 80/80/80 90/90/90
f 88/88/88 84/84/84 92/92/92
f 92/92/92 84/84/84 91/91/91
f 93/93/93 91/91/91 90/90/90
f 93/93/93 90/90/90 89/89/89
f 93/93/93 92/92/92 91/91/91
f 89/89/89 82/82/82 94/94/94
f 82/82/82 86/86/86 94/94/94
f 93/93/93 89/89/89 94/94/94
f 86/86/86 88/88/88 95/95/95
f 95/95/95 88/88/88 92/92/92
f 94/94/94 86/86/86 95/95/95
f 93/93/93 95/95/95 92/92/92
f 93/93/93 94/94/94 95/95/95
