g Iron Castle Motor Part
v -0.5560101 1.3067409 0
v 0.5308385 1.3171637 0
v 0.5308385 1.3171637 2.3198571
v -0.5560101 1.3067409 2.3198571
v 0.5308385 1.3171637 0
v 1.3067266 0.55601585 0
v 1.3067266 0.55601585 2.3198571
v 0.5308385 1.3171637 2.3198571
v 1.3067266 0.55601585 0
v 1.3171495 -0.53083277 0
v 1.3171495 -0.53083277 2.3198571
v 1.3067266 0.55601585 2.3198571
v 1.3171495 -0.53083277 0
v 0.55600166 -1.3067209 0
v 0.55600166 -1.3067209 2.3198571
v 1.3171495 -0.53083277 2.3198571
v 0.55600166 -1.3067209 0
v -0.53084695 -1.3171438 0
v -0.53084695 -1.3171438 2.3198571
v 0.55600166 -1.3067209 2.3198571
v -0.53084695 -1.3171438 0
v -1.3067352 -0.55599594 0
v -1.3067352 -0.55599594 2.3198571
v -0.53084695 -1.3171438 2.3198571
v -0.40807366 -1.0125124 2.3198571
v -0.4080737 -1.0125124 1.8309605
v 0.42740858 -1.0045002 1.8309605
v 0.4274086 -1.0045002 2.3198571
v -1.3067352 -0.55599594 0
v -1.317158 0.5308527 0
v -1.317158 0.5308527 2.3198571
v -1.3067352 -0.55599594 2.3198571
v -1.317158 0.5308527 0
v -0.5560101 1.3067409 0
v -0.5560101 1.3067409 2.3198571
v -1.317158 0.5308527 2.3198571
v 0.55600166 -1.3067209 0
v 1.3171495 -0.53083277 0
v 1.3067266 0.55601585 0
v 0.5308385 1.3171637 0
v -0.53084695 -1.3171438 0
v -0.5560101 1.3067409 0
v -1.3067352 -0.55599594 0
v -1.317158 0.5308527 0
v -0.54172695 0.21833648 1.8309605
v -0.54172695 0.21833648 2.1017163
v -0.5374403 -0.22866575 2.1017163
v -0.5374403 -0.22866575 1.8309605
v 1.0125182 -0.40805948 2.3198571
v 1.0125182 -0.40805948 1.8309605
v 1.0045059 0.4274228 1.8309605
v 1.0045059 0.4274228 2.3198571
v 0.40806514 1.0125324 2.3198571
v 0.4080651 1.0125324 1.8309605
v -0.4274171 1.0045202 1.8309605
v -0.42741707 1.0045202 2.3198571
v -0.42741707 1.0045202 2.3198571
v -0.4274171 1.0045202 1.8309605
v -1.0125266 0.4080794 1.8309605
v -1.0125266 0.4080794 2.3198571
v -1.0045145 -0.42740288 2.3198571
v -1.0045145 -0.42740288 1.8309605
v -0.4080737 -1.0125124 1.8309605
v -0.40807366 -1.0125124 2.3198571
v 0.4274086 -1.0045002 2.3198571
v 0.42740858 -1.0045002 1.8309605
v 1.0125182 -0.40805948 1.8309605
v 1.0125182 -0.40805948 2.3198571
v 1.0045059 0.4274228 2.3198571
v 1.0045059 0.4274228 1.8309605
v 0.4080651 1.0125324 1.8309605
v 0.40806514 1.0125324 2.3198571
v -1.0125266 0.4080794 2.3198571
v -1.0125266 0.4080794 1.8309605
v -1.0045145 -0.42740288 1.8309605
v -1.0045145 -0.42740288 2.3198571
v 0.5374317 0.22868563 2.1017163
v 0.5417185 -0.21831656 2.1017163
v 0.22867143 -0.5374261 2.1017163
v 0.21832216 0.54173267 2.1017163
v -0.2183308 -0.54171276 2.1017163
v -0.22867997 0.537446 2.1017163
v -0.5374403 -0.22866575 2.1017163
v -0.54172695 0.21833648 2.1017163
v -0.21833079 -0.54171276 1.8309605
v -0.2183308 -0.54171276 2.1017163
v 0.22867143 -0.5374261 2.1017163
v 0.22867145 -0.5374261 1.8309605
v 0.5417185 -0.21831656 1.8309605
v 0.5417185 -0.21831656 2.1017163
v 0.5374317 0.22868563 2.1017163
v 0.5374317 0.22868563 1.8309605
v 0.21832217 0.54173267 1.8309605
v 0.21832216 0.54173267 2.1017163
v -0.22867997 0.537446 2.1017163
v -0.22867996 0.537446 1.8309605
v -0.22867996 0.537446 1.8309605
v -0.22867997 0.537446 2.1017163
v -0.54172695 0.21833648 2.1017163
v -0.54172695 0.21833648 1.8309605
v -0.5374403 -0.22866575 1.8309605
v -0.5374403 -0.22866575 2.1017163
v -0.2183308 -0.54171276 2.1017163
v -0.21833079 -0.54171276 1.8309605
v 0.22867145 -0.5374261 1.8309605
v 0.22867143 -0.5374261 2.1017163
v 0.5417185 -0.21831656 2.1017163
v 0.5417185 -0.21831656 1.8309605
v 0.5374317 0.22868563 1.8309605
v 0.5374317 0.22868563 2.1017163
v 0.21832216 0.54173267 2.1017163
v 0.21832217 0.54173267 1.8309605
v -0.5374403 -0.22866575 1.8309605
v -1.0125266 0.4080794 1.8309605
v -0.54172695 0.21833648 1.8309605
v -1.0045145 -0.42740288 1.8309605
v -0.4274171 1.0045202 1.8309605
v -0.21833079 -0.54171276 1.8309605
v -0.22867996 0.537446 1.8309605
v -0.4080737 -1.0125124 1.8309605
v 0.4080651 1.0125324 1.8309605
v 0.22867145 -0.5374261 1.8309605
v 0.21832217 0.54173267 1.8309605
v 0.42740858 -1.0045002 1.8309605
v 1.0045059 0.4274228 1.8309605
v 0.5417185 -0.21831656 1.8309605
v 0.5374317 0.22868563 1.8309605
v 1.0125182 -0.40805948 1.8309605
v -1.0045145 -0.42740288 2.3198571
v -1.3067352 -0.55599594 2.3198571
v -1.317158 0.5308527 2.3198571
v -0.40807366 -1.0125124 2.3198571
v -1.0125266 0.4080794 2.3198571
v -0.53084695 -1.3171438 2.3198571
v -0.5560101 1.3067409 2.3198571
v 0.4274086 -1.0045002 2.3198571
v -0.42741707 1.0045202 2.3198571
v 0.55600166 -1.3067209 2.3198571
v 0.5308385 1.3171637 2.3198571
v 1.0125182 -0.40805948 2.3198571
v 0.40806514 1.0125324 2.3198571
v 1.3171495 -0.53083277 2.3198571
v 1.3067266 0.55601585 2.3198571
v 1.0045059 0.4274228 2.3198571
vt 1 0.5
vt 0.875 0.5
vt 0.875 1
vt 1 1
vt 0.875 0.5
vt 0.75 0.5
vt 0.75 1
vt 0.875 1
vt 0.75 0.5
vt 0.625 0.5
vt 0.625 1
vt 0.75 1
vt 0.625 0.5
vt 0.5 0.5
vt 0.5 1
vt 0.625 1
vt 0.5 0.5
vt 0.375 0.5
vt 0.375 1
vt 0.5 1
vt 0.375 0.5
vt 0.25 0.5
vt 0.25 1
vt 0.375 1
vt 0.1195439 0.1195439
vt 0.1195439 0.1195439
vt 0.24999999 0.0655072
vt 0.24999999 0.0655072
vt 0.25 0.5
vt 0.125 0.5
vt 0.125 1
vt 0.25 1
vt 0.125 0.5
vt 0 0.5
vt 0 1
vt 0.125 1
vt 0.75 0.010000005
vt 0.9197056 0.080294386
vt 0.99 0.25
vt 0.9197056 0.41970563
vt 0.5802944 0.080294386
vt 0.75 0.49
vt 0.51 0.25
vt 0.5802944 0.41970563
vt 0.180203 0.31979695
vt 0.180203 0.31979695
vt 0.15129212 0.25000003
vt 0.15129212 0.25000003
vt 0.38045612 0.1195439
vt 0.38045612 0.1195439
vt 0.43449283 0.25
vt 0.43449283 0.25
vt 0.38045618 0.38045615
vt 0.38045618 0.38045615
vt 0.25 0.4344928
vt 0.25 0.4344928
vt 0.25 0.4344928
vt 0.25 0.4344928
vt 0.11954391 0.38045612
vt 0.11954391 0.38045612
vt 0.0655072 0.25000003
vt 0.0655072 0.25000003
vt 0.1195439 0.1195439
vt 0.1195439 0.1195439
vt 0.24999999 0.0655072
vt 0.24999999 0.0655072
vt 0.38045612 0.1195439
vt 0.38045612 0.1195439
vt 0.43449283 0.25
vt 0.43449283 0.25
vt 0.38045618 0.38045615
vt 0.38045618 0.38045615
vt 0.11954391 0.38045612
vt 0.11954391 0.38045612
vt 0.0655072 0.25000003
vt 0.0655072 0.25000003
vt 0.34870785 0.24999997
vt 0.31979704 0.18020299
vt 0.25000003 0.15129212
vt 0.31979707 0.319797
vt 0.180203 0.18020302
vt 0.25 0.34870785
vt 0.15129212 0.25000003
vt 0.180203 0.31979695
vt 0.180203 0.18020302
vt 0.180203 0.18020302
vt 0.25000003 0.15129212
vt 0.25000003 0.15129212
vt 0.31979704 0.18020299
vt 0.31979704 0.18020299
vt 0.34870785 0.24999997
vt 0.34870785 0.24999997
vt 0.31979707 0.319797
vt 0.31979707 0.319797
vt 0.25 0.34870785
vt 0.25 0.34870785
vt 0.25 0.34870785
vt 0.25 0.34870785
vt 0.180203 0.31979695
vt 0.180203 0.31979695
vt 0.15129212 0.25000003
vt 0.15129212 0.25000003
vt 0.180203 0.18020302
vt 0.180203 0.18020302
vt 0.25000003 0.15129212
vt 0.25000003 0.15129212
vt 0.31979704 0.18020299
vt 0.31979704 0.18020299
vt 0.34870785 0.24999997
vt 0.34870785 0.24999997
vt 0.31979707 0.319797
vt 0.31979707 0.319797
vt 0.15129212 0.25000003
vt 0.11954391 0.38045612
vt 0.180203 0.31979695
vt 0.0655072 0.25000003
vt 0.25 0.4344928
vt 0.180203 0.18020302
vt 0.25 0.34870785
vt 0.1195439 0.1195439
vt 0.38045618 0.38045615
vt 0.25000003 0.15129212
vt 0.31979707 0.319797
vt 0.24999999 0.0655072
vt 0.43449283 0.25
vt 0.31979704 0.18020299
vt 0.34870785 0.24999997
vt 0.38045612 0.1195439
vt 0.0655072 0.25000003
vt 0.010000005 0.25
vt 0.080294386 0.41970563
vt 0.1195439 0.1195439
vt 0.11954391 0.38045612
vt 0.080294386 0.080294386
vt 0.25 0.49
vt 0.24999999 0.0655072
vt 0.25 0.4344928
vt 0.25 0.010000005
vt 0.41970563 0.41970563
vt 0.38045612 0.1195439
vt 0.38045618 0.38045615
vt 0.41970563 0.080294386
vt 0.49 0.25
vt 0.43449283 0.25
vn -0.009589511 0.9999541 0
vn -0.009589511 0.9999541 0
vn -0.009589511 0.9999541 0
vn -0.009589511 0.9999541 0
vn 0.7002934 0.7138552 0
vn 0.7002934 0.7138552 0
vn 0.7002934 0.7138552 0
vn 0.7002934 0.7138552 0
vn 0.9999541 0.009589602 0
vn 0.9999541 0.009589602 0
vn 0.9999541 0.009589602 0
vn 0.9999541 0.009589602 0
vn 0.7138551 -0.7002934 0
vn 0.7138551 -0.7002934 0
vn 0.7138551 -0.7002934 0
vn 0.7138551 -0.7002934 0
vn 0.009589621 -0.9999541 0
vn 0.009589621 -0.9999541 0
vn 0.009589621 -0.9999541 0
vn 0.009589621 -0.9999541 0
vn -0.70029336 -0.7138552 0
vn -0.70029336 -0.7138552 0
vn -0.70029336 -0.7138552 0
vn -0.70029336 -0.7138552 0
vn -0.009589583 0.9999541 0
vn -0.009589583 0.9999541 0
vn -0.009589583 0.9999541 0
vn -0.009589583 0.9999541 0
vn -0.9999541 -0.009589508 0
vn -0.9999541 -0.009589508 0
vn -0.9999541 -0.009589508 0
vn -0.9999541 -0.009589508 0
vn -0.7138552 0.70029336 0
vn -0.7138552 0.70029336 0
vn -0.7138552 0.70029336 0
vn -0.7138552 0.70029336 0
vn -0 0 -1
vn -0 0 -1
vn -0 0 -1
vn -0 0 -1
vn -0 0 -1
vn -0 0 -1
vn -0 0 -1
vn -0 0 -1
vn -0.9999541 -0.009589344 0
vn -0.9999541 -0.009589344 0
vn -0.9999541 -0.009589344 0
vn -0.9999541 -0.009589344 0
vn -0.9999541 -0.009589592 0
vn -0.9999541 -0.009589592 0
vn -0.9999541 -0.009589592 0
vn -0.9999541 -0.009589592 0
vn 0.009589442 -0.9999541 0
vn 0.009589442 -0.9999541 0
vn 0.009589442 -0.9999541 0
vn 0.009589442 -0.9999541 0
vn 0.7138553 -0.7002932 0
vn 0.7138553 -0.7002932 0
vn 0.7138553 -0.7002932 0
vn 0.7138553 -0.7002932 0
vn 0.70029336 0.71385527 0
vn 0.70029336 0.71385527 0
vn 0.70029336 0.71385527 0
vn 0.70029336 0.71385527 0
vn -0.71385497 0.70029354 0
vn -0.71385497 0.70029354 0
vn -0.71385497 0.70029354 0
vn -0.71385497 0.70029354 0
vn -0.70029336 -0.7138552 0
vn -0.70029336 -0.7138552 0
vn -0.70029336 -0.7138552 0
vn -0.70029336 -0.7138552 0
vn 0.9999541 0.009589447 0
vn 0.9999541 0.009589447 0
vn 0.9999541 0.009589447 0
vn 0.9999541 0.009589447 0
vn -0 0 1
vn -0 0 1
vn -0 0 1
vn -0 0 1
vn -0 0 1
vn -0 0 1
vn -0 0 1
vn -0 0 1
vn 0.009589328 -0.9999541 0
vn 0.009589328 -0.9999541 0
vn 0.009589328 -0.9999541 0
vn 0.009589328 -0.9999541 0
vn 0.999954 0.009589712 0
vn 0.999954 0.009589712 0
vn 0.999954 0.009589712 0
vn 0.999954 0.009589712 0
vn -0.009589331 0.9999541 0
vn -0.009589331 0.9999541 0
vn -0.009589331 0.9999541 0
vn -0.009589331 0.9999541 0
vn -0.71385556 0.700293 0
vn -0.71385556 0.700293 0
vn -0.71385556 0.700293 0
vn -0.71385556 0.700293 0
vn -0.7002934 -0.7138552 0
vn -0.7002934 -0.7138552 0
vn -0.7002934 -0.7138552 0
vn -0.7002934 -0.7138552 0
vn 0.71385545 -0.70029306 0
vn 0.71385545 -0.70029306 0
vn 0.71385545 -0.70029306 0
vn 0.71385545 -0.70029306 0
vn 0.70029336 0.71385527 0
vn 0.70029336 0.71385527 0
vn 0.70029336 0.71385527 0
vn 0.70029336 0.71385527 0
vn -0 0 1
vn -0 0 1
vn -0 0 1
vn -0 0 1
vn -0 0 1
vn -0 0 1
vn -0 0 1
vn -0 0 1
vn -0 0 1
vn -0 0 1
vn -0 0 1
vn -0 0 1
vn -0 0 1
vn -0 0 1
vn -0 0 1
vn -0 0 1
vn -0 0 1
vn -0 0 1
vn -0 0 1
vn -0 0 1
vn -0 0 1
vn -0 0 1
vn -0 0 1
vn -0 0 1
vn -0 0 1
vn -0 0 1
vn -0 0 1
vn -0 0 1
vn -0 0 1
vn -0 0 1
vn -0 0 1
vn -0 0 1
g Iron Castle Motor Part_0
f 3/3/3 2/2/2 1/1/1
f 4/4/4 3/3/3 1/1/1
f 7/7/7 6/6/6 5/5/5
f 8/8/8 7/7/7 5/5/5
f 11/11/11 10/10/10 9/9/9
f 12/12/12 11/11/11 9/9/9
f 15/15/15 14/14/14 13/13/13
f 16/16/16 15/15/15 13/13/13
f 19/19/19 18/18/18 17/17/17
f 20/20/20 19/19/19 17/17/17
f 23/23/23 22/22/22 21/21/21
f 24/24/24 23/23/23 21/21/21
f 27/27/27 26/26/26 25/25/25
f 28/28/28 27/27/27 25/25/25
f 31/31/31 30/30/30 29/29/29
f 32/32/32 31/31/31 29/29/29
f 35/35/35 34/34/34 33/33/33
f 36/36/36 35/35/35 33/33/33
f 39/39/39 38/38/38 37/37/37
f 37/37/37 40/40/40 39/39/39
f 37/37/37 41/41/41 40/40/40
f 41/41/41 42/42/42 40/40/40
f 41/41/41 43/43/43 42/42/42
f 43/43/43 44/44/44 42/42/42
f 47/47/47 46/46/46 45/45/45
f 48/48/48 47/47/47 45/45/45
f 51/51/51 50/50/50 49/49/49
f 52/52/52 51/51/51 49/49/49
f 55/55/55 54/54/54 53/53/53
f 56/56/56 55/55/55 53/53/53
f 59/59/59 58/58/58 57/57/57
f 60/60/60 59/59/59 57/57/57
f 63/63/63 62/62/62 61/61/61
f 64/64/64 63/63/63 61/61/61
f 67/67/67 66/66/66 65/65/65
f 68/68/68 67/67/67 65/65/65
f 71/71/71 70/70/70 69/69/69
f 72/72/72 71/71/71 69/69/69
f 75/75/75 74/74/74 73/73/73
f 76/76/76 75/75/75 73/73/73
f 79/79/79 78/78/78 77/77/77
f 77/77/77 80/80/80 79/79/79
f 80/80/80 81/81/81 79/79/79
f 80/80/80 82/82/82 81/81/81
f 82/82/82 83/83/83 81/81/81
f 82/82/82 84/84/84 83/83/83
f 87/87/87 86/86/86 85/85/85
f 88/88/88 87/87/87 85/85/85
f 91/91/91 90/90/90 89/89/89
f 92/92/92 91/91/91 89/89/89
f 95/95/95 94/94/94 93/93/93
f 96/96/96 95/95/95 93/93/93
f 99/99/99 98/98/98 97/97/97
f 100/100/100 99/99/99 97/97/97
f 103/103/103 102/102/102 101/101/101
f 104/104/104 103/103/103 101/101/101
f 107/107/107 106/106/106 105/105/105
f 108/108/108 107/107/107 105/105/105
f 111/111/111 110/110/110 109/109/109
f 112/112/112 111/111/111 109/109/109
f 115/115/115 114/114/114 113/113/113
f 114/114/114 116/116/116 113/113/113
f 117/117/117 114/114/114 115/115/115
f 113/113/113 116/116/116 118/118/118
f 119/119/119 117/117/117 115/115/115
f 116/116/116 120/120/120 118/118/118
f 121/121/121 117/117/117 119/119/119
f 118/118/118 120/120/120 122/122/122
f 123/123/123 121/121/121 119/119/119
f 120/120/120 124/124/124 122/122/122
f 125/125/125 121/121/121 123/123/123
f 122/122/122 124/124/124 126/126/126
f 127/127/127 125/125/125 123/123/123
f 124/124/124 128/128/128 126/126/126
f 128/128/128 125/125/125 127/127/127
f 126/126/126 128/128/128 127/127/127
f 131/131/131 130/130/130 129/129/129
f 129/129/129 130/130/130 132/132/132
f 133/133/133 131/131/131 129/129/129
f 130/130/130 134/134/134 132/132/132
f 135/135/135 131/131/131 133/133/133
f 132/132/132 134/134/134 136/136/136
f 137/137/137 135/135/135 133/133/133
f 134/134/134 138/138/138 136/136/136
f 139/139/139 135/135/135 137/137/137
f 136/136/136 138/138/138 140/140/140
f 141/141/141 139/139/139 137/137/137
f 138/138/138 142/142/142 140/140/140
f 143/143/143 139/139/139 141/141/141
f 140/140/140 142/142/142 144/144/144
f 144/144/144 143/143/143 141/141/141
f 142/142/142 143/143/143 144/144/144
