g iron caslte main projectile
v 0.01149013 0.0066329343 0.91040516
v 5.9404492E-06 0.01326334 0.91040516
v 3.1258542E-06 0.18057835 0.39110112
v 0.15638664 0.090290286 0.39110112
v 0.01149013 -0.0066278684 0.91040516
v 3.0142687E-06 0.20982978 -0.9370514
v 0.15638664 -0.09028586 0.39110112
v 5.9404492E-06 -0.013258275 0.91040516
v 0.18171906 0.10491597 -0.9370514
v 3.4208215E-06 0.10325525 -1.2218822
v 0.089422464 0.051629137 -1.2218822
v 0.18171906 -0.10491165 -0.9370514
v 0.089422464 -0.051623072 -1.2218822
v 3.1258542E-06 -0.18057396 0.39110112
v -0.011478253 -0.0066278684 0.91040516
v 3.0142687E-06 -0.20982549 -0.9370514
v 3.4208215E-06 -0.10324919 -1.2218822
v -0.1563804 -0.09028586 0.39110112
v -0.011478253 0.0066329343 0.91040516
v -0.18171303 -0.10491165 -0.9370514
v -0.08941562 -0.051623072 -1.2218822
v -0.1563804 0.090290286 0.39110112
v 5.9404492E-06 0.01326334 0.91040516
v 3.1258542E-06 0.18057835 0.39110112
v -0.18171303 0.10491597 -0.9370514
v -0.08941562 0.051629137 -1.2218822
v 3.0142687E-06 0.20982978 -0.9370514
v 3.4208215E-06 0.10325525 -1.2218822
v 5.9404492E-06 0.01326334 0.91040516
v 0.01149013 0.0066329343 0.91040516
v 0.01149013 -0.0066278684 0.91040516
v 5.9404492E-06 -0.013258275 0.91040516
v -0.011478253 0.0066329343 0.91040516
v -0.011478253 -0.0066278684 0.91040516
v 3.4208215E-06 -0.10324919 -1.2218822
v 0.089422464 -0.051623072 -1.2218822
v 0.089422464 0.051629137 -1.2218822
v 3.4208215E-06 0.10325525 -1.2218822
v -0.08941562 -0.051623072 -1.2218822
v -0.08941562 0.051629137 -1.2218822
vt 0.8333333 1
vt 1 1
vt 1 0.6666666
vt 0.8333333 0.6666666
vt 0.6666666 1
vt 1 0.54764664
vt 0.6666666 0.6666666
vt 0.49999994 1
vt 0.8333334 0.5476467
vt 1 0.5
vt 0.8333333 0.5
vt 0.66666657 0.54764664
vt 0.6666666 0.5
vt 0.49999994 0.6666666
vt 0.33333325 1
vt 0.49999997 0.54764664
vt 0.49999994 0.5
vt 0.33333325 0.6666666
vt 0.16666658 1
vt 0.33333325 0.5476467
vt 0.33333325 0.5
vt 0.16666657 0.6666666
vt -8.940697E-08 1
vt -8.940697E-08 0.6666666
vt 0.16666657 0.54764664
vt 0.16666658 0.5
vt -8.940697E-08 0.54764664
vt -8.940697E-08 0.5
vt 0.25 0.49
vt 0.4578461 0.37
vt 0.4578461 0.13
vt 0.25 0.010000005
vt 0.04215391 0.37
vt 0.04215391 0.13
vt 0.75 0.010000005
vt 0.9578461 0.13
vt 0.9578461 0.37
vt 0.75 0.49
vt 0.5421539 0.13
vt 0.5421539 0.37
vn 0.82429916 0.47590846 0.30666295
vn -0 0.9518169 0.3066667
vn -0 0.9872759 0.1590165
vn 0.85500616 0.49363834 0.15901467
vn 0.8242992 -0.47590798 0.30666345
vn -0 0.9874256 -0.15808418
vn 0.85500604 -0.4936383 0.15901494
vn -0 -0.95181656 0.3066678
vn 0.85513574 0.49371263 -0.15808433
vn -0 0.93658525 -0.35044008
vn 0.81110615 0.46829307 -0.3504404
vn 0.8551354 -0.493713 -0.15808551
vn 0.8111062 -0.46829113 -0.35044286
vn -0 -0.9872758 0.15901703
vn -0.824296 -0.47590828 0.3066716
vn -0 -0.98742527 -0.15808652
vn -0 -0.9365832 -0.35044518
vn -0.85500586 -0.49363756 0.15901884
vn -0.8242958 0.47590873 0.30667108
vn -0.8551353 -0.49371284 -0.1580864
vn -0.8111054 -0.46829113 -0.35044494
vn -0.855006 0.49363747 0.15901859
vn -0 0.9518169 0.3066667
vn -0 0.9872759 0.1590165
vn -0.85513574 0.4937124 -0.15808521
vn -0.8111052 0.46829316 -0.35044238
vn -0 0.9874256 -0.15808418
vn -0 0.93658525 -0.35044008
vn -0 0 1
vn -0 0 1
vn -0 0 1
vn -0 0 1
vn -0 0 1
vn -0 0 1
vn -0 0 -1
vn -0 0 -1
vn -0 0 -1
vn -0 0 -1
vn -0 0 -1
vn -0 0 -1
g iron caslte main projectile_0
f 3/3/3 2/2/2 1/1/1
f 4/4/4 3/3/3 1/1/1
f 4/4/4 1/1/1 5/5/5
f 3/3/3 4/4/4 6/6/6
f 7/7/7 4/4/4 5/5/5
f 7/7/7 5/5/5 8/8/8
f 4/4/4 9/9/9 6/6/6
f 4/4/4 7/7/7 9/9/9
f 6/6/6 9/9/9 10/10/10
f 9/9/9 11/11/11 10/10/10
f 9/9/9 12/12/12 11/11/11
f 7/7/7 12/12/12 9/9/9
f 12/12/12 13/13/13 11/11/11
f 14/14/14 7/7/7 8/8/8
f 7/7/7 14/14/14 12/12/12
f 14/14/14 8/8/8 15/15/15
f 12/12/12 16/16/16 13/13/13
f 14/14/14 16/16/16 12/12/12
f 16/16/16 17/17/17 13/13/13
f 18/18/18 14/14/14 15/15/15
f 14/14/14 18/18/18 16/16/16
f 18/18/18 15/15/15 19/19/19
f 16/16/16 20/20/20 17/17/17
f 18/18/18 20/20/20 16/16/16
f 20/20/20 21/21/21 17/17/17
f 22/22/22 18/18/18 19/19/19
f 18/18/18 22/22/22 20/20/20
f 22/22/22 19/19/19 23/23/23
f 24/24/24 22/22/22 23/23/23
f 20/20/20 25/25/25 21/21/21
f 22/22/22 25/25/25 20/20/20
f 22/22/22 24/24/24 25/25/25
f 25/25/25 26/26/26 21/21/21
f 24/24/24 27/27/27 25/25/25
f 25/25/25 27/27/27 26/26/26
f 27/27/27 28/28/28 26/26/26
f 31/31/31 30/30/30 29/29/29
f 29/29/29 32/32/32 31/31/31
f 29/29/29 33/33/33 32/32/32
f 33/33/33 34/34/34 32/32/32
f 37/37/37 36/36/36 35/35/35
f 35/35/35 38/38/38 37/37/37
f 35/35/35 39/39/39 38/38/38
f 39/39/39 40/40/40 38/38/38
