g Iron Castle Debris .006
v 0.22256503 -0.22256652 28.394022
v -5.4941705E-07 -7.5544847E-07 31.02341
v 0.22256503 0.22256447 28.394022
v -0.22256595 -0.22256652 28.394022
v -5.4941705E-07 -7.5544847E-07 31.02341
v 0.22256503 -0.22256652 28.394022
v -0.22256595 0.22256446 28.394022
v -5.4941705E-07 -7.5544847E-07 31.02341
v -0.22256595 -0.22256652 28.394022
v 0.22256503 0.22256447 28.394022
v -5.4941705E-07 -7.5544847E-07 31.02341
v -0.22256595 0.22256446 28.394022
v -1.5243992 -1.5244 17.186836
v -1.5243992 1.5243976 17.186836
v -0.07038527 0.070384346 28.231956
v -0.07038527 -0.07038486 28.231956
v 1.5243982 -1.5244 17.186836
v -1.5243992 -1.5244 17.186836
v -0.07038527 -0.07038486 28.231956
v 0.07038394 -0.07038486 28.231956
v 1.5243982 1.5243976 17.186836
v 1.5243982 -1.5244 17.186836
v 0.07038394 -0.07038486 28.231956
v 0.07038394 0.07038435 28.231956
v 0.07038394 -0.07038486 28.231956
v 0.22256503 -0.22256652 28.394022
v 0.22256503 0.22256447 28.394022
v 0.07038394 0.07038435 28.231956
v -0.07038527 -0.07038486 28.231956
v -0.22256595 -0.22256652 28.394022
v 0.22256503 -0.22256652 28.394022
v 0.07038394 -0.07038486 28.231956
v -0.07038527 0.070384346 28.231956
v -0.22256595 0.22256446 28.394022
v -0.22256595 -0.22256652 28.394022
v -0.07038527 -0.07038486 28.231956
v 0.07038394 0.07038435 28.231956
v 0.22256503 0.22256447 28.394022
v -0.22256595 0.22256446 28.394022
v -0.07038527 0.070384346 28.231956
v -1.5243992 1.5243976 17.186836
v 1.5243982 1.5243976 17.186836
v 0.07038394 0.07038435 28.231956
v -0.07038527 0.070384346 28.231956
v -1.5243992 1.5243976 17.186836
v -1.5243992 -1.5244 17.186836
v 1.5243982 -1.5244 17.186836
v 1.5243982 1.5243976 17.186836
vt 0.625 0.7500001
vt 0.625 0.75
vt 0.625 0.5
vt 0.62499994 0.99999994
vt 0.625 1
vt 0.625 0.7500001
vt 0.625 0.25
vt 0.625 0.25
vt 0.6249998 0
vt 0.625 0.5
vt 0.625 0.5
vt 0.625 0.25
vt 0.375 0
vt 0.375 0.25
vt 0.625 0.25
vt 0.6249999 0
vt 0.375 0.75
vt 0.375 1
vt 0.625 1
vt 0.625 0.7500001
vt 0.375 0.5
vt 0.375 0.75
vt 0.625 0.7500001
vt 0.625 0.5
vt 0.625 0.7500001
vt 0.625 0.7500001
vt 0.625 0.5
vt 0.625 0.5
vt 0.625 1
vt 0.62499994 0.99999994
vt 0.625 0.7500001
vt 0.625 0.7500001
vt 0.625 0.25
vt 0.625 0.25
vt 0.6249998 0
vt 0.6249999 0
vt 0.625 0.5
vt 0.625 0.5
vt 0.625 0.25
vt 0.625 0.25
vt 0.375 0.25
vt 0.375 0.5
vt 0.625 0.5
vt 0.625 0.25
vt 0.375 0.25
vt 0.375 1
vt 0.375 0.75
vt 0.375 0.5
vn 0.9964367 0 0.08434367
vn 0.9964367 0 0.08434367
vn 0.9964367 0 0.08434367
vn -0 -0.9964367 0.08434383
vn -0 -0.9964367 0.08434383
vn -0 -0.9964367 0.08434383
vn -0.9964367 0 0.08434367
vn -0.9964367 0 0.08434367
vn -0.9964367 0 0.08434367
vn -0 0.9964367 0.08434361
vn -0 0.9964367 0.08434361
vn -0 0.9964367 0.08434361
vn -0.991446 0 0.13051704
vn -0.991446 0 0.13051704
vn -0.991446 0 0.13051704
vn -0.991446 0 0.13051704
vn -0 -0.991446 0.13051713
vn -0 -0.991446 0.13051713
vn -0 -0.991446 0.13051713
vn -0 -0.991446 0.13051713
vn 0.991446 0 0.13051707
vn 0.991446 0 0.13051707
vn 0.991446 0 0.13051707
vn 0.991446 0 0.13051707
vn 0.7289923 0 -0.684522
vn 0.7289923 0 -0.684522
vn 0.7289923 0 -0.684522
vn 0.7289923 0 -0.684522
vn -0 -0.72898656 -0.68452805
vn -0 -0.72898656 -0.68452805
vn -0 -0.72898656 -0.68452805
vn -0 -0.72898656 -0.68452805
vn -0.72899324 0 -0.684521
vn -0.72899324 0 -0.684521
vn -0.72899324 0 -0.684521
vn -0.72899324 0 -0.684521
vn -0 0.72898996 -0.6845243
vn -0 0.72898996 -0.6845243
vn -0 0.72898996 -0.6845243
vn -0 0.72898996 -0.6845243
vn -0 0.991446 0.13051695
vn -0 0.991446 0.13051695
vn -0 0.991446 0.13051695
vn -0 0.991446 0.13051695
vn -0 0 -1
vn -0 0 -1
vn -0 0 -1
vn -0 0 -1
g Iron Castle Debris .006_0
f 3/3/3 2/2/2 1/1/1
f 6/6/6 5/5/5 4/4/4
f 9/9/9 8/8/8 7/7/7
f 12/12/12 11/11/11 10/10/10
f 15/15/15 14/14/14 13/13/13
f 16/16/16 15/15/15 13/13/13
f 19/19/19 18/18/18 17/17/17
f 20/20/20 19/19/19 17/17/17
f 23/23/23 22/22/22 21/21/21
f 24/24/24 23/23/23 21/21/21
f 27/27/27 26/26/26 25/25/25
f 28/28/28 27/27/27 25/25/25
f 31/31/31 30/30/30 29/29/29
f 32/32/32 31/31/31 29/29/29
f 35/35/35 34/34/34 33/33/33
f 36/36/36 35/35/35 33/33/33
f 39/39/39 38/38/38 37/37/37
f 40/40/40 39/39/39 37/37/37
f 43/43/43 42/42/42 41/41/41
f 44/44/44 43/43/43 41/41/41
f 47/47/47 46/46/46 45/45/45
f 48/48/48 47/47/47 45/45/45
