g Iron Castle Debris .001
v -8.10901 8.109085 -0.24610665
v -8.24989 8.249967 0.17578332
v -8.10901 7.8606358 -0.24610665
v 3.5598147 6.0958853 8.730744
v 5.6772566 4.6451063 8.730744
v 6.0958047 4.3583355 8.730744
v 4.070777 6.724683 10.141179
v 4.9878497 6.0963445 10.141179
v 4.9885197 6.0958853 10.141179
v 4.070777 6.724683 10.141179
v 4.2159777 6.6251974 10.141179
v 4.9878497 6.0963445 10.141179
v 7.924085 -0.72028035 2.9192033
v 7.924085 -0.92771685 2.9192033
v 8.238767 -1.1379517 2.926942
v 4.987474 6.0958853 10.140146
v 4.9885197 6.0958853 10.141179
v 6.0958047 6.0958853 10.141179
v -1.8956119 6.9505982 4.576601
v -2.3864155 7.253834 4.528992
v -3.5640163 7.840885 4.212307
v -6.634647 8.109085 -0.24610665
v -8.24989 8.249967 0.17578332
v -8.10901 8.109085 -0.24610665
v -7.2629557 8.87702 2.053592
v -5.1602845 8.109085 -0.24610665
v -5.832911 9.166073 2.9192035
v -6.8080096 9.166073 2.9192035
v -4.1663685 9.166073 2.9192035
v -3.6859212 8.109085 -0.24610665
v -2.1611323 7.924191 2.9192035
v -2.2115586 8.109085 -0.24610665
v -0.7203871 7.924191 2.9192033
v -0.7371961 8.109085 -0.24610665
v 0.7203583 7.924191 2.9192033
v 0.7371667 8.109085 -0.24610665
v 2.1611035 7.924191 2.9192035
v 2.2115295 8.109085 -0.24610665
v 4.1663413 9.166073 2.9192033
v 3.685892 8.109085 -0.24610665
v 5.832883 9.166073 2.9192033
v 5.1602545 8.109085 -0.24610665
v 7.499426 9.166073 2.9192035
v 6.634618 8.109085 -0.24610665
v 9.165967 9.166073 2.9192033
v 8.10898 8.109085 -0.24610665
v -8.10901 8.109085 -0.24610665
v -8.10901 7.8606358 -0.24610665
v -7.3926177 7.392686 -0.21312469
v -6.634647 8.109085 -0.24610665
v -5.889938 6.3949933 -0.16719241
v -5.1602845 8.109085 -0.24610665
v -4.5449886 5.502025 -0.12608147
v -4.279319 5.502025 -0.12608147
v -4.279319 5.3199997 -0.12608147
v -3.0566607 5.502025 -0.12608147
v -3.0566607 4.4822874 -0.12608147
v -3.6859212 8.109085 -0.24610665
v -2.7604945 4.2793674 -0.12608147
v -1.8340029 5.502025 -0.12608147
v -2.2115586 8.109085 -0.24610665
v -1.8340029 4.2793674 -0.12608147
v -1.8340029 3.6445756 -0.12608147
v -0.97599965 3.0567093 -0.12608147
v -0.61134505 5.502025 -0.12608147
v -0.7371961 8.109085 -0.24610665
v -0.61134505 4.2793674 -0.12608147
v 0.61131287 5.502025 -0.12608147
v 0.7371667 8.109085 -0.24610665
v -0.61134505 3.0567093 -0.12608147
v -0.61134505 2.8068638 -0.12608147
v 0.61131287 3.0567093 -0.12608147
v 0.61131287 1.9691519 -0.12608147
v 0.8084947 1.8340515 -0.12608147
v 0.61131287 4.2793674 -0.12608147
v 1.8339708 5.502025 -0.12608147
v 2.2115295 8.109085 -0.24610665
v 1.8339708 3.0567093 -0.12608147
v 1.8339708 4.2793674 -0.12608147
v 3.0566287 5.502025 -0.12608147
v 3.685892 8.109085 -0.24610665
v 3.0566287 4.2793674 -0.12608147
v 4.2792864 5.502025 -0.12608147
v 5.1602545 8.109085 -0.24610665
v 1.8339708 1.8340515 -0.12608147
v 1.8339708 1.1314399 -0.12608147
v 2.592989 0.6113937 -0.12608147
v 3.0566287 3.0567093 -0.12608147
v 3.0566287 1.8340515 -0.12608147
v 4.2792864 4.2793674 -0.12608147
v 5.5019445 5.502025 -0.12608147
v 6.634618 8.109085 -0.24610665
v 4.2792864 3.0567093 -0.12608147
v 5.5019445 4.2793674 -0.12608147
v 8.10898 6.6347227 -0.24610665
v 8.10898 8.109085 -0.24610665
v 8.10898 5.1603603 -0.24610665
v 8.10898 3.6859972 -0.24610665
v 5.5019445 3.0567093 -0.12608147
v 8.10898 2.2116346 -0.24610665
v 5.5019445 1.8340515 -0.12608147
v 8.10898 0.737272 -0.24610665
v 4.2792864 1.8340515 -0.12608147
v 5.5019445 0.6113937 -0.12608147
v 8.10898 -0.73709077 -0.24610665
v 4.2792864 0.6113937 -0.12608147
v 3.0566287 0.6113937 -0.12608147
v 3.0566287 0.29372796 -0.12608147
v 4.2792864 -0.5439838 -0.12608147
v 4.3774834 -0.6112642 -0.12608147
v 5.5019445 -0.6112642 -0.12608147
v 5.5019445 -1.381696 -0.12608147
v 6.29214 -1.9483523 -0.16246125
v 8.10898 -2.2114534 -0.24610665
v 8.10898 -3.2512245 -0.24610665
v 8.429635 -2.8044786 0.7141447
v 8.10898 -3.2512245 -0.24610665
v 6.29214 -1.9483523 -0.16246125
v 5.5019445 -1.381696 -0.12608147
v 4.3774834 -0.6112642 -0.12608147
v 4.2792864 -0.5439838 -0.12608147
v 3.0566287 0.29372796 -0.12608147
v 2.592989 0.6113937 -0.12608147
v 1.8339708 1.1314399 -0.12608147
v 0.8084947 1.8340515 -0.12608147
v 0.61131287 1.9691519 -0.12608147
v -0.61134505 2.8068638 -0.12608147
v -0.97599965 3.0567093 -0.12608147
v -1.8340029 3.6445756 -0.12608147
v -2.7604945 4.2793674 -0.12608147
v -3.0566607 4.4822874 -0.12608147
v -4.279319 5.3199997 -0.12608147
v -4.5449886 5.502025 -0.12608147
v -8.24989 8.249967 0.17578332
v -5.889938 6.3949933 -0.16719241
v -7.3926177 7.392686 -0.21312469
v -8.10901 7.8606358 -0.24610665
v -7.2629557 8.87702 2.053592
v 8.024404 -2.1883864 1.2017957
v 7.924085 -0.92771685 2.9192033
v -6.8080096 9.166073 2.9192035
v 8.238767 -1.1379517 2.926942
v -7.228592 9.792051 3.4059443
v -7.557741 9.618698 2.8312273
v 8.331027 -0.86872226 3.4059443
v 8.358509 -1.2223299 2.9235773
v -7.228592 9.792051 3.4059443
v 8.122521 -0.7258631 3.4059443
v 8.331027 -0.86872226 3.4059443
v 7.894418 -0.5695763 3.4059443
v -7.228592 9.792051 3.4059443
v -6.5624976 9.335672 3.4059443
v 7.894418 -0.5695763 3.4059443
v 8.187632 -0.6063899 3.6423655
v -6.4877067 9.514499 3.737442
v 7.5639906 -0.058766097 3.8157468
v 7.857205 -0.09558002 4.052168
v -5.038636 8.576005 3.8157468
v -5.6867456 9.115208 3.9528394
v 7.107934 0.64625597 4.3813577
v -5.0506763 8.631872 3.8843567
v -4.998091 8.768548 4.1332
v -3.5640163 7.840885 4.212307
v -2.3864155 7.253834 4.528992
v 6.7850146 1.1454602 4.7818494
v -1.8956119 6.9505982 4.576601
v -1.446159 6.785102 4.7818494
v 6.769189 1.8462179 5.775917
v -0.61567676 6.7723417 5.5833254
v -0.41148266 6.769204 5.780388
v 6.769118 1.8493694 5.780388
v 6.774258 1.8476003 5.7829137
v -0.6366772 7.0033402 5.89543
v 7.0867057 1.7400728 5.936434
v -0.71694213 7.0867925 5.936434
v 7.079492 1.9308456 6.2041883
v -0.6440943 7.084927 6.0056624
v 0.10704624 7.065695 6.719486
v 7.0656095 2.2979903 6.719486
v 6.743613 2.6510227 6.910276
v 0.6196869 6.816806 6.866958
v 0.7702689 6.7436976 6.910276
v 6.740134 3.0637724 7.5015545
v 1.8374789 6.7375493 7.9549794
v 6.0958047 4.3583355 8.730744
v 6.7298594 4.282714 9.247731
v 3.5598147 6.0958853 8.730744
v 6.0958047 4.9875546 9.637359
v 6.724602 4.9063973 10.141179
v 6.0958047 5.3372216 10.141179
v 6.3283987 5.177859 10.141179
v 3.059277 6.73051 9.1510105
v 3.879143 6.0958853 9.045989
v 4.987474 6.0958853 10.140146
v 4.070777 6.724683 10.141179
v 4.9885197 6.0958853 10.141179
v 3.5598147 6.0958853 8.730744
v 5.0647135 5.064794 8.730744
v 5.6772566 4.6451063 8.730744
v 4.4746394 5.469087 8.730744
v 3.7821867 5.943526 8.730744
v -7.557741 9.618698 2.8312273
v -6.8080096 9.166073 2.9192035
v -5.832911 9.166073 2.9192035
v -5.962013 9.618698 2.8312273
v -4.1663685 9.166073 2.9192035
v -4.173227 9.612942 2.8645082
v -2.1611323 7.924191 2.9192035
v -2.1323078 8.351461 2.9115913
v -0.7203871 7.924191 2.9192033
v -0.7363314 8.362437 2.9299805
v 0.7203583 7.924191 2.9192033
v 0.7363025 8.362437 2.9299805
v 2.1611035 7.924191 2.9192035
v 2.1322792 8.351461 2.9115913
v 4.1663413 9.166073 2.9192033
v 4.173199 9.612942 2.864508
v 5.832883 9.166073 2.9192033
v 5.961984 9.618698 2.831227
v 7.499426 9.166073 2.9192035
v 7.6654134 9.618698 2.8312273
v 9.165967 9.166073 2.9192033
v 9.537198 9.537305 2.8021872
v 9.165967 7.4995317 2.9192035
v 9.618591 7.6655197 2.8312273
v 9.165967 5.8329897 2.9192035
v 9.618591 5.9620914 2.8312273
v 9.165967 4.166447 2.9192033
v 9.612836 4.1733055 2.8645082
v 7.924085 2.16121 2.9192033
v 8.351356 2.1323857 2.9115913
v 7.924085 0.72046506 2.9192033
v 8.362331 0.73640966 2.9299808
v 7.924085 -0.72028035 2.9192033
v 8.362331 -0.73622423 2.9299808
v 8.358509 -1.2223299 2.9235773
v 8.238767 -1.1379517 2.926942
v -7.228592 9.792051 3.4059443
v -7.557741 9.618698 2.8312273
v -5.962013 9.618698 2.8312273
v -6.0723276 9.792051 3.4059443
v -4.273161 9.790666 3.4059443
v -4.173227 9.612942 2.8645082
v -5.9408374 9.335672 3.4059443
v -6.5624976 9.335672 3.4059443
v -7.228592 9.792051 3.4059443
v -6.0723276 9.792051 3.4059443
v -4.273161 9.790666 3.4059443
v -4.2434587 9.335672 3.4059443
v -2.1269639 8.322019 3.4059443
v -2.1530411 7.894524 3.4059443
v -0.7335746 8.332114 3.4059443
v -0.71769 7.894524 3.4059443
v 0.73354584 8.332114 3.4059443
v 0.7176613 7.894524 3.4059443
v 2.1269352 8.322019 3.4059443
v 2.1530125 7.894524 3.4059443
v 4.2731347 9.790666 3.4059443
v 4.243432 9.335672 3.4059443
v 6.0723 9.792051 3.4059443
v 5.9408097 9.335672 3.4059443
v 7.8072476 9.792051 3.4059443
v 7.638189 9.335672 3.4059443
v 9.710551 9.710658 3.4059443
v 9.3355665 9.335672 3.4059443
v 9.791945 7.807354 3.4059443
v 9.3355665 7.6382947 3.4059443
v 9.791945 6.0724072 3.4059443
v 9.3355665 5.9409165 3.4059443
v 9.790559 4.2732406 3.4059443
v 9.3355665 4.243538 3.4059443
v 8.321912 2.1270423 3.4059443
v 7.894418 2.1531193 3.4059443
v 8.332007 0.73365325 3.4059443
v 7.894418 0.7177683 3.4059443
v 8.332007 -0.7334673 3.4059443
v 8.122521 -0.7258631 3.4059443
v 8.331027 -0.86872226 3.4059443
v 7.894418 -0.5695763 3.4059443
v -4.173227 9.612942 2.8645082
v -2.1323078 8.351461 2.9115913
v -2.1269639 8.322019 3.4059443
v -4.273161 9.790666 3.4059443
v -2.1323078 8.351461 2.9115913
v -0.7335746 8.332114 3.4059443
v -2.1269639 8.322019 3.4059443
v -0.7363314 8.362437 2.9299805
v 0.73354584 8.332114 3.4059443
v 0.7363025 8.362437 2.9299805
v 2.1269352 8.322019 3.4059443
v 2.1322792 8.351461 2.9115913
v 2.1322792 8.351461 2.9115913
v 4.173199 9.612942 2.864508
v 4.2731347 9.790666 3.4059443
v 2.1269352 8.322019 3.4059443
v 4.173199 9.612942 2.864508
v 6.0723 9.792051 3.4059443
v 4.2731347 9.790666 3.4059443
v 5.961984 9.618698 2.831227
v 7.8072476 9.792051 3.4059443
v 7.6654134 9.618698 2.8312273
v 9.710551 9.710658 3.4059443
v 9.537198 9.537305 2.8021872
v 8.10898 -2.2114534 -0.24610665
v 8.10898 -3.2512245 -0.24610665
v 8.429635 -2.8044786 0.7141447
v 8.024404 -2.1883864 1.2017957
v 8.10898 -0.73709077 -0.24610665
v 7.924085 -0.92771685 2.9192033
v 7.924085 -0.72028035 2.9192033
v 8.10898 0.737272 -0.24610665
v 7.924085 0.72046506 2.9192033
v 8.10898 2.2116346 -0.24610665
v 7.924085 2.16121 2.9192033
v 8.10898 3.6859972 -0.24610665
v 9.165967 4.166447 2.9192033
v 8.10898 5.1603603 -0.24610665
v 9.165967 5.8329897 2.9192035
v 8.10898 6.6347227 -0.24610665
v 9.165967 7.4995317 2.9192035
v 8.10898 8.109085 -0.24610665
v 9.165967 9.166073 2.9192033
v 8.362331 -0.73622423 2.9299808
v 8.358509 -1.2223299 2.9235773
v 8.331027 -0.86872226 3.4059443
v 8.332007 -0.7334673 3.4059443
v 8.362331 0.73640966 2.9299808
v 8.332007 0.73365325 3.4059443
v 8.351356 2.1323857 2.9115913
v 8.321912 2.1270423 3.4059443
v 7.894418 -0.5695763 3.4059443
v 8.187632 -0.6063899 3.6423655
v 8.187632 0.7177683 3.6423655
v 7.894418 0.7177683 3.4059443
v 8.164036 2.059986 3.6519158
v 7.894418 2.1531193 3.4059443
v 9.536292 4.202635 3.7220232
v 9.3355665 4.243538 3.4059443
v 9.514394 5.9409165 3.7374415
v 9.3355665 5.9409165 3.4059443
v 9.514394 7.6382947 3.7374415
v 9.3355665 7.6382947 3.4059443
v 9.430489 9.430595 3.7578664
v 9.3355665 9.335672 3.4059443
v 8.187632 -0.6063899 3.6423655
v 7.857205 -0.09558002 4.052168
v 7.857205 0.6877237 4.052168
v 8.187632 0.7177683 3.6423655
v 8.164036 2.059986 3.6519158
v 7.844085 2.0024154 4.060178
v 9.536292 4.202635 3.7220232
v 8.804416 3.7938263 4.096375
v 9.514394 5.9409165 3.7374415
v 8.754732 5.45749 4.147244
v 9.514394 7.6382947 3.7374415
v 8.754732 7.016748 4.147244
v 9.430489 9.430595 3.7578664
v 8.670828 8.670927 4.167669
v 7.857205 -0.09558002 4.052168
v 7.5639906 -0.058766097 3.8157468
v 7.5639906 0.6877237 3.8157468
v 7.857205 0.6877237 4.052168
v 7.5639906 2.062997 3.8157468
v 7.844085 2.0024154 4.060178
v 8.575905 3.8982315 3.8157468
v 8.804416 3.7938263 4.096375
v 8.575905 5.45749 3.8157468
v 8.754732 5.45749 4.147244
v 8.575905 7.016748 3.8157468
v 8.754732 7.016748 4.147244
v 8.575905 8.576005 3.8157468
v 8.670828 8.670927 4.167669
v 7.5639906 0.6877237 3.8157468
v 7.5639906 -0.058766097 3.8157468
v 7.107934 0.64625597 4.3813577
v 6.7850146 1.1454602 4.7818494
v 7.5639906 2.062997 3.8157468
v 6.7850146 1.8505356 4.7818494
v 8.575905 3.8982315 3.8157468
v 6.7850146 3.0841775 4.7818494
v 8.575905 5.45749 3.8157468
v 6.7850146 4.3178196 4.7818494
v 8.575905 7.016748 3.8157468
v 6.7850146 5.5514607 4.7818494
v 8.575905 8.576005 3.8157468
v 6.7850146 6.785102 4.7818494
v 6.7850146 1.8505356 4.7818494
v 6.7850146 1.1454602 4.7818494
v 6.769189 1.8462179 5.775917
v 6.769118 1.8493694 5.780388
v 6.769118 3.07695 5.780388
v 6.7850146 3.0841775 4.7818494
v 6.7850146 4.3178196 4.7818494
v 6.769118 4.307702 5.780388
v 6.7850146 5.5514607 4.7818494
v 6.769118 5.538453 5.780388
v 6.7850146 6.785102 4.7818494
v 6.769118 6.769204 5.780388
v 9.618591 5.9620914 2.8312273
v 9.612836 4.1733055 2.8645082
v 9.790559 4.2732406 3.4059443
v 9.791945 6.0724072 3.4059443
v 9.618591 7.6655197 2.8312273
v 9.791945 7.807354 3.4059443
v 9.537198 9.537305 2.8021872
v 9.710551 9.710658 3.4059443
v 7.638189 9.514499 3.737442
v 9.430489 9.430595 3.7578664
v 8.670828 8.670927 4.167669
v 7.0166473 8.754831 4.1472445
v 5.9408097 9.514499 3.737442
v 5.457389 8.754831 4.1472445
v 4.202529 9.536396 3.7220242
v 3.7937276 8.804513 4.096377
v 2.0598807 8.16414 3.6519184
v 2.0023146 7.844184 4.06018
v 0.7176613 8.1877365 3.6423678
v 0.68762237 7.857304 4.0521703
v -0.71769 8.1877365 3.6423678
v -0.68765134 7.857304 4.0521703
v -2.0599093 8.16414 3.6519184
v -2.0023434 7.844184 4.06018
v -4.2025557 9.536396 3.7220242
v -3.7937553 8.804513 4.0963774
v -4.998091 8.768548 4.1332
v -5.9408374 9.514499 3.737442
v -5.6867456 9.115208 3.9528394
v -6.4877067 9.514499 3.737442
v 9.3355665 9.335672 3.4059443
v 9.430489 9.430595 3.7578664
v 7.638189 9.514499 3.737442
v 7.638189 9.335672 3.4059443
v 5.9408097 9.514499 3.737442
v 5.9408097 9.335672 3.4059443
v 4.202529 9.536396 3.7220242
v 4.243432 9.335672 3.4059443
v 2.0598807 8.16414 3.6519184
v 2.1530125 7.894524 3.4059443
v 0.7176613 8.1877365 3.6423678
v 0.7176613 7.894524 3.4059443
v -0.71769 8.1877365 3.6423678
v -0.71769 7.894524 3.4059443
v -2.0599093 8.16414 3.6519184
v -2.1530411 7.894524 3.4059443
v -4.2025557 9.536396 3.7220242
v -4.2434587 9.335672 3.4059443
v -5.9408374 9.514499 3.737442
v -5.9408374 9.335672 3.4059443
v -6.4877067 9.514499 3.737442
v -6.5624976 9.335672 3.4059443
v 7.0166473 8.576005 3.8157468
v 8.670828 8.670927 4.167669
v 8.575905 8.576005 3.8157468
v 7.0166473 8.754831 4.1472445
v 5.457389 8.576005 3.8157468
v 5.457389 8.754831 4.1472445
v 3.8981311 8.576005 3.8157468
v 3.7937276 8.804513 4.096377
v 2.062896 7.5640917 3.8157468
v 2.0023146 7.844184 4.06018
v 0.68762237 7.5640917 3.8157468
v 0.68762237 7.857304 4.0521703
v -0.68765134 7.5640917 3.8157468
v -0.68765134 7.857304 4.0521703
v -2.0629249 7.5640917 3.8157468
v -2.0023434 7.844184 4.06018
v -3.8981588 8.576005 3.8157468
v -3.7937553 8.804513 4.0963774
v -5.038636 8.576005 3.8157468
v -5.0506763 8.631872 3.8843567
v -4.998091 8.768548 4.1332
v 7.0166473 8.576005 3.8157468
v 8.575905 8.576005 3.8157468
v 6.7850146 6.785102 4.7818494
v 5.551373 6.785102 4.7818494
v 5.457389 8.576005 3.8157468
v 4.3177314 6.785102 4.7818494
v 3.8981311 8.576005 3.8157468
v 3.0840898 6.785102 4.7818494
v 2.062896 7.5640917 3.8157468
v 1.8504479 6.785102 4.7818494
v 0.68762237 7.5640917 3.8157468
v 0.6168061 6.785102 4.7818494
v -0.68765134 7.5640917 3.8157468
v -0.61683565 6.785102 4.7818494
v -1.8956119 6.9505982 4.576601
v -1.446159 6.785102 4.7818494
v -2.0629249 7.5640917 3.8157468
v -3.5640163 7.840885 4.212307
v -3.8981588 8.576005 3.8157468
v -5.038636 8.576005 3.8157468
v 5.551373 6.785102 4.7818494
v 6.7850146 6.785102 4.7818494
v 6.769118 6.769204 5.780388
v 5.538366 6.769204 5.780388
v 4.3177314 6.785102 4.7818494
v 4.3076143 6.769204 5.780388
v 3.0840898 6.785102 4.7818494
v 3.076863 6.769204 5.780388
v 1.8504479 6.785102 4.7818494
v 1.8461113 6.769204 5.780388
v 0.6168061 6.785102 4.7818494
v 0.6153597 6.769204 5.780388
v -0.61567676 6.7723417 5.5833254
v -0.41148266 6.769204 5.780388
v -0.61683565 6.785102 4.7818494
v -1.446159 6.785102 4.7818494
v 6.769118 6.769204 5.780388
v 7.0867057 5.7982984 5.936434
v 7.0867057 7.0867925 5.936434
v 6.769118 5.538453 5.780388
v 7.0867057 4.509804 5.936434
v 6.769118 4.307702 5.780388
v 7.0867057 3.2213087 5.936434
v 6.769118 3.07695 5.780388
v 6.774258 1.8476003 5.7829137
v 6.769118 1.8493694 5.780388
v 7.0867057 1.9328138 5.936434
v 7.0867057 1.7400728 5.936434
v 5.538366 6.769204 5.780388
v 6.769118 6.769204 5.780388
v 7.0867057 7.0867925 5.936434
v 5.7982106 7.0867925 5.936434
v 4.3076143 6.769204 5.780388
v 4.5097156 7.0867925 5.936434
v 3.076863 6.769204 5.780388
v 3.221221 7.0867925 5.936434
v 1.8461113 6.769204 5.780388
v 1.932726 7.0867925 5.936434
v 0.6153597 6.769204 5.780388
v 0.6442311 7.0867925 5.936434
v -0.6442638 7.0867925 5.936434
v -0.41148266 6.769204 5.780388
v -0.6366772 7.0033402 5.89543
v -0.71694213 7.0867925 5.936434
v 5.7982106 7.0867925 5.936434
v 7.0867057 7.0867925 5.936434
v 7.0656095 7.065695 6.719486
v 5.7809505 7.065695 6.719486
v 4.5097156 7.0867925 5.936434
v 4.496291 7.065695 6.719486
v 3.221221 7.0867925 5.936434
v 3.2116318 7.065695 6.719486
v 1.932726 7.0867925 5.936434
v 1.9269724 7.065695 6.719486
v 0.6442311 7.0867925 5.936434
v 0.64231294 7.065695 6.719486
v -0.6440943 7.084927 6.0056624
v 0.10704624 7.065695 6.719486
v -0.6442638 7.0867925 5.936434
v -0.71694213 7.0867925 5.936434
v 7.0867057 7.0867925 5.936434
v 7.0656095 5.781036 6.719486
v 7.0656095 7.065695 6.719486
v 7.0867057 5.7982984 5.936434
v 7.0656095 4.4963765 6.719486
v 7.0867057 4.509804 5.936434
v 7.0656095 3.2117171 6.719486
v 7.0867057 3.2213087 5.936434
v 7.0656095 2.2979903 6.719486
v 7.0867057 1.9328138 5.936434
v 7.079492 1.9308456 6.2041883
v 7.0867057 1.7400728 5.936434
v 5.7809505 7.065695 6.719486
v 7.0656095 7.065695 6.719486
v 6.743613 6.7436976 6.910276
v 5.517499 6.7436976 6.910276
v 4.496291 7.065695 6.719486
v 4.2913847 6.7436976 6.910276
v 3.2116318 7.065695 6.719486
v 3.06527 6.7436976 6.910276
v 1.9269724 7.065695 6.719486
v 1.8391553 6.7436976 6.910276
v 0.64231294 7.065695 6.719486
v 0.7702689 6.7436976 6.910276
v 0.6196869 6.816806 6.866958
v 0.10704624 7.065695 6.719486
v 5.517499 6.7436976 6.910276
v 6.743613 6.7436976 6.910276
v 6.724602 6.724683 10.141179
v 5.5019445 6.724683 10.141179
v 4.2913847 6.7436976 6.910276
v 4.2792864 6.724683 10.141179
v 3.059277 6.73051 9.1510105
v 4.070777 6.724683 10.141179
v 3.06527 6.7436976 6.910276
v 1.8374789 6.7375493 7.9549794
v 1.8391553 6.7436976 6.910276
v 0.7702689 6.7436976 6.910276
v 6.743613 6.7436976 6.910276
v 6.724602 5.502025 10.141179
v 6.724602 6.724683 10.141179
v 6.743613 5.5175834 6.910276
v 6.724602 4.9063973 10.141179
v 6.743613 4.291469 6.910276
v 6.7298594 4.282714 9.247731
v 6.743613 3.0653546 6.910276
v 6.740134 3.0637724 7.5015545
v 6.743613 2.6510227 6.910276
v 7.0656095 7.065695 6.719486
v 6.743613 5.5175834 6.910276
v 6.743613 6.7436976 6.910276
v 7.0656095 5.781036 6.719486
v 6.743613 4.291469 6.910276
v 7.0656095 4.4963765 6.719486
v 6.743613 3.0653546 6.910276
v 7.0656095 3.2117171 6.719486
v 7.0656095 2.2979903 6.719486
v 6.743613 2.6510227 6.910276
v 6.724602 4.9063973 10.141179
v 6.3283987 5.177859 10.141179
v 6.724602 5.502025 10.141179
v 6.0958047 6.0958853 10.141179
v 6.0958047 5.3372216 10.141179
v 6.724602 6.724683 10.141179
v 5.5019445 6.724683 10.141179
v 4.9885197 6.0958853 10.141179
v 4.9878497 6.0963445 10.141179
v 4.2792864 6.724683 10.141179
v 4.2159777 6.6251974 10.141179
v 4.070777 6.724683 10.141179
v 6.0958047 6.0958853 8.730744
v 6.0958047 6.0958853 10.141179
v 6.0958047 5.3372216 10.141179
v 6.0958047 4.9875546 8.730744
v 6.0958047 4.9875546 9.637359
v 6.0958047 4.3583355 8.730744
v 6.0958047 6.0958853 10.141179
v 6.0958047 6.0958853 8.730744
v 4.987474 6.0958853 8.730744
v 4.987474 6.0958853 10.140146
v 3.879143 6.0958853 9.045989
v 3.879143 6.0958853 8.730744
v 3.5598147 6.0958853 8.730744
v 3.7821867 5.943526 8.730744
v 3.5598147 6.0958853 8.730744
v 3.879143 6.0958853 8.730744
v 4.4746394 5.469087 8.730744
v 4.987474 6.0958853 8.730744
v 5.0647135 5.064794 8.730744
v 6.0958047 6.0958853 8.730744
v 5.6772566 4.6451063 8.730744
v 6.0958047 4.9875546 8.730744
v 6.0958047 4.3583355 8.730744
v 9.612836 4.1733055 2.8645082
v 8.351356 2.1323857 2.9115913
v 8.321912 2.1270423 3.4059443
v 9.790559 4.2732406 3.4059443
vt 0.375 0.25
vt 0.37826103 0.25
vt 0.375 0.24617016
vt 0.6005599 0.3897237
vt 0.59727395 0.41513097
vt 0.5966245 0.42015317
vt 0.61656284 0.39245865
vt 0.61513966 0.40346268
vt 0.61513865 0.40347072
vt 0.61656284 0.39245865
vt 0.6163376 0.39420098
vt 0.61513966 0.40346268
vt 0.39946654 0.6363637
vt 0.39946654 0.6396359
vt 0.3994665 0.64291495
vt 0.65729034 0.5116883
vt 0.6572709 0.51168835
vt 0.63668823 0.5116883
vt 0.46974367 0.34090912
vt 0.4610003 0.33287844
vt 0.4490959 0.3181818
vt 0.375 0.27272728
vt 0.37826103 0.25
vt 0.375 0.25
vt 0.3927757 0.27272728
vt 0.375 0.29545456
vt 0.39946654 0.29545456
vt 0.3994665 0.28215677
vt 0.39946654 0.31818184
vt 0.375 0.31818184
vt 0.39946657 0.34090912
vt 0.375 0.34090912
vt 0.39946654 0.36363637
vt 0.37499997 0.36363637
vt 0.39946657 0.3863637
vt 0.37499997 0.38636366
vt 0.3994665 0.40909094
vt 0.37499997 0.4090909
vt 0.39946654 0.4318182
vt 0.37499997 0.4318182
vt 0.3994665 0.45454544
vt 0.37499997 0.45454544
vt 0.39946657 0.47727275
vt 0.37499997 0.47727272
vt 0.3994665 0.5
vt 0.375 0.5
vt 0.125 0.5
vt 0.125 0.50382984
vt 0.13412295 0.509123
vt 0.14772727 0.5
vt 0.14772727 0.51494277
vt 0.17045453 0.5
vt 0.16551614 0.52272725
vt 0.17045453 0.52272725
vt 0.17045453 0.5261108
vt 0.1931818 0.52272725
vt 0.1931818 0.54168254
vt 0.1931818 0.5
vt 0.19868705 0.5454545
vt 0.21590906 0.52272725
vt 0.21590906 0.5
vt 0.21590906 0.5454545
vt 0.21590906 0.5572543
vt 0.23185797 0.5681818
vt 0.23863631 0.52272725
vt 0.23863631 0.5
vt 0.23863631 0.5454545
vt 0.2613636 0.52272725
vt 0.2613636 0.5
vt 0.23863631 0.5681818
vt 0.23863631 0.572826
vt 0.2613636 0.5681819
vt 0.2613636 0.5883978
vt 0.2650289 0.59090906
vt 0.2613636 0.5454545
vt 0.28409088 0.52272725
vt 0.28409088 0.5
vt 0.28409088 0.5681819
vt 0.28409088 0.5454545
vt 0.30681816 0.52272725
vt 0.30681816 0.5
vt 0.30681816 0.5454545
vt 0.3295454 0.52272725
vt 0.3295454 0.5
vt 0.28409088 0.59090906
vt 0.28409088 0.6039696
vt 0.29819983 0.6136364
vt 0.30681816 0.5681819
vt 0.30681816 0.59090906
vt 0.3295454 0.5454545
vt 0.3522727 0.52272725
vt 0.3522727 0.5
vt 0.3295454 0.5681819
vt 0.3522727 0.5454545
vt 0.375 0.52272725
vt 0.375 0.5
vt 0.375 0.54545456
vt 0.375 0.5681819
vt 0.3522727 0.5681819
vt 0.375 0.5909091
vt 0.3522727 0.59090906
vt 0.37499997 0.6136364
vt 0.3295454 0.59090906
vt 0.3522727 0.6136364
vt 0.37499997 0.6363637
vt 0.3295454 0.6136364
vt 0.30681816 0.6136364
vt 0.30681816 0.6195413
vt 0.3295454 0.63511306
vt 0.3313707 0.6363637
vt 0.3522727 0.6363637
vt 0.3522727 0.6506847
vt 0.35916138 0.6590909
vt 0.37499997 0.65909094
vt 0.37499997 0.675119
vt 0.49753875 0.4674594
vt 0.48660138 0.46592396
vt 0.49041694 0.44392222
vt 0.49207643 0.43435305
vt 0.49382138 0.42086056
vt 0.49397376 0.41968226
vt 0.49587116 0.40501156
vt 0.49659067 0.39944834
vt 0.49776852 0.39034083
vt 0.4993599 0.37803608
vt 0.49966592 0.37567008
vt 0.5015632 0.36099932
vt 0.50212914 0.35662383
vt 0.50346065 0.34632862
vt 0.50489837 0.33521158
vt 0.505358 0.3316579
vt 0.5072554 0.31698716
vt 0.50766766 0.31379938
vt 0.5170118 0.26861724
vt 0.50926524 0.29776022
vt 0.51105016 0.27984008
vt 0.5117691 0.27132347
vt 0.5378417 0.2759381
vt 0.5039747 0.46142286
vt 0.5245818 0.45608395
vt 0.5474436 0.27931276
vt 0.5241856 0.45984113
vt 0.55389255 0.27309418
vt 0.5475595 0.27052853
vt 0.52974653 0.45979488
vt 0.5239597 0.46128607
vt 0.55389255 0.27309418
vt 0.53007007 0.457293
vt 0.52974653 0.45979488
vt 0.530424 0.45455593
vt 0.55389255 0.27309418
vt 0.55285895 0.2810867
vt 0.530424 0.45455593
vt 0.5327844 0.457505
vt 0.5566904 0.28118593
vt 0.53581685 0.44960442
vt 0.5381772 0.45255348
vt 0.5553742 0.29838485
vt 0.5580125 0.29027808
vt 0.5432601 0.4427703
vt 0.55620986 0.2980752
vt 0.5590915 0.29810697
vt 0.5578081 0.31512403
vt 0.55975187 0.3284916
vt 0.54853034 0.43793124
vt 0.55955714 0.33426613
vt 0.56130385 0.33916497
vt 0.5603926 0.43534786
vt 0.5695592 0.34720019
vt 0.5715891 0.3491758
vt 0.56044596 0.43533623
vt 0.56046796 0.43539178
vt 0.57330847 0.3461967
vt 0.56181127 0.4387712
vt 0.5739213 0.34513485
vt 0.565011 0.43804
vt 0.57463264 0.3458423
vt 0.5819674 0.3531365
vt 0.57116884 0.43663263
vt 0.5739405 0.4323096
vt 0.58292806 0.35893258
vt 0.58321023 0.36063516
vt 0.5809871 0.4308442
vt 0.5939947 0.3709252
vt 0.5966245 0.42015317
vt 0.6017969 0.42651635
vt 0.6005599 0.3897237
vt 0.6074207 0.4179702
vt 0.61244446 0.42430204
vt 0.6134203 0.41675708
vt 0.6130594 0.41954803
vt 0.6063413 0.38270578
vt 0.6038183 0.39279628
vt 0.6151279 0.40346062
vt 0.61656284 0.39245865
vt 0.61513865 0.40347072
vt 0.6005599 0.3897237
vt 0.5982245 0.40778106
vt 0.59727395 0.41513097
vt 0.5991403 0.40070075
vt 0.60021484 0.39239192
vt 0.3994665 0.27416423
vt 0.3994665 0.28215677
vt 0.39946654 0.29545456
vt 0.39946654 0.29545456
vt 0.39946654 0.31818184
vt 0.39946654 0.31818184
vt 0.39946657 0.34090912
vt 0.39946657 0.34090912
vt 0.39946654 0.36363637
vt 0.39946654 0.36363637
vt 0.39946657 0.3863637
vt 0.39946657 0.3863637
vt 0.3994665 0.40909094
vt 0.3994665 0.40909094
vt 0.39946654 0.4318182
vt 0.39946654 0.4318182
vt 0.3994665 0.45454544
vt 0.3994665 0.45454544
vt 0.39946657 0.47727275
vt 0.39946657 0.47727275
vt 0.3994665 0.5
vt 0.3994665 0.5
vt 0.39946654 0.5227273
vt 0.39946654 0.5227273
vt 0.3994665 0.54545456
vt 0.3994665 0.54545456
vt 0.3994665 0.5681819
vt 0.3994665 0.5681819
vt 0.39946654 0.5909092
vt 0.39946654 0.5909092
vt 0.39946657 0.6136364
vt 0.39946657 0.6136364
vt 0.39946654 0.6363637
vt 0.39946654 0.6363637
vt 0.39946654 0.64427775
vt 0.3994665 0.64291495
vt 0.40339231 0.28030783
vt 0.3994665 0.27416423
vt 0.39946654 0.29545456
vt 0.40339231 0.29545456
vt 0.40339231 0.31818184
vt 0.39946654 0.31818184
vt 0.40339231 0.29545456
vt 0.40339231 0.28713074
vt 0.40339231 0.28030783
vt 0.40339231 0.29545456
vt 0.40339231 0.31818184
vt 0.40339231 0.31818184
vt 0.40339231 0.34090912
vt 0.40339231 0.34090912
vt 0.40339231 0.36363637
vt 0.40339231 0.36363637
vt 0.40339231 0.3863637
vt 0.40339231 0.3863637
vt 0.40339231 0.40909094
vt 0.40339231 0.40909094
vt 0.40339231 0.4318182
vt 0.40339231 0.4318182
vt 0.40339231 0.45454544
vt 0.40339231 0.45454544
vt 0.40339231 0.47727272
vt 0.40339231 0.47727272
vt 0.40339231 0.5
vt 0.40339231 0.5
vt 0.40339231 0.52272725
vt 0.40339231 0.52272725
vt 0.40339231 0.54545456
vt 0.40339231 0.54545456
vt 0.40339231 0.5681819
vt 0.40339231 0.5681819
vt 0.40339231 0.5909091
vt 0.40339231 0.5909091
vt 0.40339231 0.6136364
vt 0.40339231 0.6136364
vt 0.40339231 0.6363637
vt 0.40339231 0.6363636
vt 0.40339231 0.6385698
vt 0.40339231 0.63402015
vt 0.39946654 0.31818184
vt 0.39946657 0.34090912
vt 0.40339231 0.34090912
vt 0.40339231 0.31818184
vt 0.39946657 0.34090912
vt 0.40339231 0.36363637
vt 0.40339231 0.34090912
vt 0.39946654 0.36363637
vt 0.40339231 0.3863637
vt 0.39946657 0.3863637
vt 0.40339231 0.40909094
vt 0.3994665 0.40909094
vt 0.3994665 0.40909094
vt 0.39946654 0.4318182
vt 0.40339231 0.4318182
vt 0.40339231 0.40909094
vt 0.39946654 0.4318182
vt 0.40339231 0.45454544
vt 0.40339231 0.4318182
vt 0.3994665 0.45454544
vt 0.40339231 0.47727272
vt 0.39946657 0.47727275
vt 0.40339231 0.5
vt 0.3994665 0.5
vt 0.37499997 0.65909094
vt 0.37499997 0.675119
vt 0.38261765 0.66867375
vt 0.38619167 0.659091
vt 0.37499997 0.6363637
vt 0.39946654 0.6396359
vt 0.39946654 0.6363637
vt 0.37499997 0.6136364
vt 0.39946657 0.6136364
vt 0.375 0.5909091
vt 0.39946654 0.5909092
vt 0.375 0.5681819
vt 0.3994665 0.5681819
vt 0.375 0.54545456
vt 0.3994665 0.54545456
vt 0.375 0.52272725
vt 0.39946654 0.5227273
vt 0.375 0.5
vt 0.3994665 0.5
vt 0.39946654 0.6363637
vt 0.39946654 0.64427775
vt 0.40339231 0.6385698
vt 0.40339231 0.6363637
vt 0.39946657 0.6136364
vt 0.40339231 0.6136364
vt 0.39946654 0.5909092
vt 0.40339231 0.5909091
vt 0.40339231 0.63402015
vt 0.40339231 0.634603
vt 0.40339231 0.6136364
vt 0.40339231 0.6136364
vt 0.40339231 0.5909091
vt 0.40339231 0.5909091
vt 0.40339231 0.5681819
vt 0.40339231 0.5681819
vt 0.40339231 0.54545456
vt 0.40339231 0.54545456
vt 0.40339231 0.52272725
vt 0.40339231 0.52272725
vt 0.40339231 0.5
vt 0.40339231 0.5
vt 0.40339231 0.634603
vt 0.42661935 0.62658095
vt 0.4266194 0.6136364
vt 0.40339231 0.6136364
vt 0.40339231 0.5909091
vt 0.4266194 0.5909091
vt 0.40339231 0.5681819
vt 0.4266194 0.5681819
vt 0.40339231 0.54545456
vt 0.4266194 0.5454545
vt 0.40339231 0.52272725
vt 0.42661935 0.52272725
vt 0.40339231 0.5
vt 0.4266194 0.49999997
vt 0.42661935 0.62658095
vt 0.4266194 0.6259726
vt 0.4266194 0.6136364
vt 0.4266194 0.6136364
vt 0.4266194 0.5909091
vt 0.4266194 0.5909091
vt 0.4266194 0.5681819
vt 0.4266194 0.5681819
vt 0.4266194 0.5454545
vt 0.4266194 0.5454545
vt 0.42661935 0.52272725
vt 0.42661935 0.52272725
vt 0.4266194 0.49999997
vt 0.4266194 0.49999997
vt 0.4266194 0.6136364
vt 0.4266194 0.6259726
vt 0.4586775 0.6136364
vt 0.48137683 0.60389864
vt 0.4266194 0.5909091
vt 0.48137683 0.5909091
vt 0.4266194 0.5681819
vt 0.48137686 0.5681819
vt 0.4266194 0.5454545
vt 0.48137683 0.5454545
vt 0.42661935 0.52272725
vt 0.4813768 0.52272725
vt 0.4266194 0.49999997
vt 0.48137683 0.5
vt 0.48137683 0.5909091
vt 0.48137683 0.60389864
vt 0.54244375 0.5908753
vt 0.54271835 0.59081656
vt 0.5427184 0.56812525
vt 0.48137686 0.5681819
vt 0.48137683 0.5454545
vt 0.54271835 0.5453752
vt 0.4813768 0.52272725
vt 0.5427183 0.5226253
vt 0.48137683 0.5
vt 0.54271835 0.49999994
vt 0.3994665 0.54545456
vt 0.3994665 0.5681819
vt 0.40339231 0.5681819
vt 0.40339231 0.54545456
vt 0.39946654 0.5227273
vt 0.40339231 0.52272725
vt 0.3994665 0.5
vt 0.40339231 0.5
vt 0.40339231 0.47727272
vt 0.40339231 0.5
vt 0.4266194 0.49999997
vt 0.4266194 0.47727275
vt 0.40339231 0.45454544
vt 0.42661938 0.45454544
vt 0.40339231 0.4318182
vt 0.42661935 0.4318182
vt 0.40339231 0.40909094
vt 0.42661935 0.40909094
vt 0.40339231 0.3863637
vt 0.42661935 0.3863637
vt 0.40339231 0.36363637
vt 0.42661938 0.36363637
vt 0.40339231 0.34090912
vt 0.4266194 0.34090912
vt 0.40339231 0.31818184
vt 0.42661935 0.3181818
vt 0.42661938 0.30172944
vt 0.40339231 0.29545456
vt 0.41560078 0.29545456
vt 0.40339231 0.2881322
vt 0.40339231 0.5
vt 0.40339231 0.5
vt 0.40339231 0.47727272
vt 0.40339231 0.47727272
vt 0.40339231 0.45454544
vt 0.40339231 0.45454544
vt 0.40339231 0.4318182
vt 0.40339231 0.4318182
vt 0.40339231 0.40909094
vt 0.40339231 0.40909094
vt 0.40339231 0.3863637
vt 0.40339231 0.3863637
vt 0.40339231 0.36363637
vt 0.40339231 0.36363637
vt 0.40339231 0.34090912
vt 0.40339231 0.34090912
vt 0.40339231 0.31818184
vt 0.40339231 0.31818184
vt 0.40339231 0.29545456
vt 0.40339231 0.29545456
vt 0.40339231 0.2881322
vt 0.40339231 0.28713074
vt 0.4266194 0.47727275
vt 0.4266194 0.49999997
vt 0.4266194 0.49999997
vt 0.4266194 0.47727275
vt 0.42661938 0.45454544
vt 0.42661938 0.45454544
vt 0.42661935 0.4318182
vt 0.42661935 0.4318182
vt 0.42661935 0.40909094
vt 0.42661935 0.40909094
vt 0.42661935 0.3863637
vt 0.42661935 0.3863637
vt 0.42661938 0.36363637
vt 0.42661938 0.36363637
vt 0.4266194 0.34090912
vt 0.4266194 0.34090912
vt 0.42661935 0.3181818
vt 0.42661935 0.3181818
vt 0.4266194 0.3015586
vt 0.4266194 0.30129433
vt 0.42661938 0.30172944
vt 0.4266194 0.47727275
vt 0.4266194 0.49999997
vt 0.48137683 0.5
vt 0.4813769 0.47727275
vt 0.42661938 0.45454544
vt 0.48137683 0.45454544
vt 0.42661935 0.4318182
vt 0.4813768 0.4318182
vt 0.42661935 0.40909094
vt 0.48137683 0.40909094
vt 0.42661935 0.3863637
vt 0.48137683 0.3863637
vt 0.42661938 0.36363637
vt 0.48137683 0.36363637
vt 0.46974367 0.34090912
vt 0.48137683 0.34835783
vt 0.4266194 0.34090912
vt 0.4490959 0.3181818
vt 0.42661935 0.3181818
vt 0.4266194 0.3015586
vt 0.4813769 0.47727275
vt 0.48137683 0.5
vt 0.54271835 0.49999994
vt 0.5427184 0.4773746
vt 0.48137683 0.45454544
vt 0.5427184 0.45462468
vt 0.4813768 0.4318182
vt 0.5427183 0.43187475
vt 0.48137683 0.40909094
vt 0.5427184 0.40912494
vt 0.48137683 0.3863637
vt 0.5427184 0.386375
vt 0.5306126 0.36362728
vt 0.5427184 0.36739424
vt 0.48137683 0.36363637
vt 0.48137683 0.34835783
vt 0.54271835 0.49999994
vt 0.5461487 0.5226196
vt 0.5461488 0.49999994
vt 0.5427183 0.5226253
vt 0.5461488 0.5453708
vt 0.54271835 0.5453752
vt 0.54614884 0.568122
vt 0.5427184 0.56812525
vt 0.54277396 0.59087515
vt 0.54271835 0.59081656
vt 0.54614884 0.59087324
vt 0.54614884 0.5942765
vt 0.5427184 0.4773746
vt 0.54271835 0.49999994
vt 0.5461488 0.49999994
vt 0.54614884 0.4773803
vt 0.5427184 0.45462468
vt 0.54614884 0.45462912
vt 0.5427183 0.43187475
vt 0.5461488 0.43187794
vt 0.5427184 0.40912494
vt 0.5461488 0.40912682
vt 0.5427184 0.386375
vt 0.54614884 0.38637564
vt 0.5461488 0.3636244
vt 0.5427184 0.36739424
vt 0.5452474 0.36362457
vt 0.5461488 0.36234108
vt 0.54614884 0.4773803
vt 0.5461488 0.49999994
vt 0.5602279 0.50000006
vt 0.5602279 0.47716504
vt 0.54614884 0.45462912
vt 0.5602279 0.4544617
vt 0.5461488 0.43187794
vt 0.5602279 0.43175837
vt 0.5461488 0.40912682
vt 0.56022793 0.40905508
vt 0.54614884 0.38637564
vt 0.5602279 0.38635167
vt 0.5473935 0.3636265
vt 0.5602279 0.3768921
vt 0.5461488 0.3636244
vt 0.5461488 0.36234108
vt 0.5461488 0.49999994
vt 0.5602279 0.52283496
vt 0.5602279 0.50000006
vt 0.5461487 0.5226196
vt 0.5602279 0.54553825
vt 0.5461488 0.5453708
vt 0.56022793 0.5682416
vt 0.54614884 0.568122
vt 0.56022793 0.58438957
vt 0.54614884 0.59087324
vt 0.55096304 0.5908978
vt 0.54614884 0.5942765
vt 0.5602279 0.47716504
vt 0.5602279 0.50000006
vt 0.56431603 0.50000006
vt 0.564316 0.47717178
vt 0.5602279 0.4544617
vt 0.56431603 0.454467
vt 0.5602279 0.43175837
vt 0.56431603 0.43176216
vt 0.56022793 0.40905508
vt 0.56431603 0.40905732
vt 0.5602279 0.38635167
vt 0.564316 0.38926396
vt 0.56338775 0.3863523
vt 0.5602279 0.3768921
vt 0.564316 0.47717178
vt 0.56431603 0.50000006
vt 0.625 0.5
vt 0.625 0.47727272
vt 0.56431603 0.454467
vt 0.625 0.45454544
vt 0.60640234 0.43180102
vt 0.625 0.4506696
vt 0.56431603 0.43176216
vt 0.583938 0.4090682
vt 0.56431603 0.40905732
vt 0.564316 0.38926396
vt 0.56431603 0.50000006
vt 0.625 0.52272725
vt 0.625 0.5
vt 0.56431603 0.52282816
vt 0.625 0.53379905
vt 0.5643159 0.54553294
vt 0.60821897 0.5454762
vt 0.56431603 0.5682378
vt 0.57542163 0.5682275
vt 0.56431603 0.5759103
vt 0.5602279 0.50000006
vt 0.56431603 0.52282816
vt 0.56431603 0.50000006
vt 0.5602279 0.52283496
vt 0.5643159 0.54553294
vt 0.5602279 0.54553825
vt 0.56431603 0.5682378
vt 0.56022793 0.5682416
vt 0.56022793 0.58438957
vt 0.56431603 0.5759103
vt 0.625 0.53379905
vt 0.63236475 0.5287529
vt 0.625 0.52272725
vt 0.63668823 0.5116883
vt 0.63668823 0.52579063
vt 0.625 0.5
vt 0.64772725 0.5
vt 0.6572709 0.51168835
vt 0.65728337 0.5116798
vt 0.67045456 0.5
vt 0.67163134 0.5018493
vt 0.6743304 0.5
vt 0.63668823 0.5116883
vt 0.63668823 0.5116883
vt 0.63668823 0.52579063
vt 0.63668823 0.5322904
vt 0.63668823 0.5322904
vt 0.63668823 0.54398656
vt 0.63668823 0.5116883
vt 0.63668823 0.5116883
vt 0.65729034 0.51168835
vt 0.65729034 0.5116883
vt 0.67789245 0.51168835
vt 0.67789245 0.51168835
vt 0.68382823 0.51168835
vt 0.6796947 0.51452047
vt 0.68382823 0.51168835
vt 0.67789245 0.51168835
vt 0.66682315 0.5233395
vt 0.65729034 0.51168835
vt 0.6558546 0.53085464
vt 0.63668823 0.5116883
vt 0.64446837 0.53865594
vt 0.63668823 0.5322904
vt 0.63668823 0.54398656
vt 0.3994665 0.5681819
vt 0.39946654 0.5909092
vt 0.40339231 0.5909091
vt 0.40339231 0.5681819
vn -0.9485146 0 -0.3167334
vn -0.9485146 0 -0.3167334
vn -0.9485146 0 -0.3167334
vn -0.49050996 -0.7159094 0.49686384
vn -0.49050996 -0.7159094 0.49686384
vn -0.49050996 -0.7159094 0.49686384
vn -0.49050996 -0.7159094 0.49686384
vn -0.49050996 -0.7159094 0.49686384
vn -0.49050996 -0.7159094 0.49686384
vn -0.49050996 -0.7159094 0.49686384
vn -0.49050996 -0.7159094 0.49686384
vn -0.49050996 -0.7159094 0.49686384
vn 0.02048545 0.001261402 -0.9997894
vn 0.01619166 0.0025824932 -0.99986553
vn 0.01619166 0.0025824932 -0.99986553
vn -0 -1 0
vn -0 -1 0
vn -0 -1 0
vn 0.09996201 0.7652051 0.63597864
vn 0.32053822 0.70673025 0.6307042
vn 0.2564514 0.6693635 0.6972698
vn -0 0.94851375 -0.31673598
vn -0 0.94851387 -0.3167356
vn -0 0.94851387 -0.3167356
vn -0 0.94851375 -0.31673607
vn -0 0.94851375 -0.31673604
vn -0 0.94851375 -0.31673607
vn -0 0.9485136 -0.31673622
vn 0.14574659 0.96192616 -0.2312056
vn 0.18596013 0.9607263 -0.20597018
vn 0.16689242 0.98571104 -0.02281737
vn 0.17189828 0.98479027 -0.025282554
vn -0 0.99829835 0.05831334
vn -0 0.99829835 0.058313336
vn -0 0.99829835 0.05831355
vn -0 0.99829835 0.058313545
vn -0.16689233 0.98571104 -0.02281699
vn -0.17189813 0.98479027 -0.025282167
vn -0.14574647 0.96192616 -0.23120558
vn -0.18596007 0.96072644 -0.20597008
vn -0 0.94851387 -0.3167359
vn -0 0.94851375 -0.31673592
vn -0 0.94851387 -0.31673574
vn -0 0.94851387 -0.3167358
vn -0 0.94851387 -0.31673568
vn -0 0.94851387 -0.31673568
vn 0.0026692704 -0.0433259 -0.9990575
vn 0.0026692704 -0.0433259 -0.9990575
vn 0.0026692704 -0.0433259 -0.9990575
vn 0.001682586 -0.044310678 -0.9990164
vn 0.0004883337 -0.045502514 -0.9989642
vn -0 -0.045989815 -0.99894196
vn -0 -0.03724128 -0.9993063
vn -0 -0.023000991 -0.9997354
vn -0 0 -1
vn -0 -0.023000993 -0.9997354
vn -0 0 -1
vn -0 -0.04598982 -0.99894196
vn -0 0 -1
vn -0 -0.023000993 -0.9997354
vn -0 -0.04598982 -0.99894196
vn -0 0 -1
vn -0 0 -1
vn -0 0 -1
vn -0 -0.023000987 -0.9997354
vn -0 -0.04598981 -0.99894196
vn -0 0 -1
vn -0 -0.023000987 -0.9997354
vn -0 -0.04598981 -0.99894196
vn -0 0 -1
vn -0 0 -1
vn -0 0 -1
vn -0 0 -1
vn -0 0 -1
vn -0 0 -1
vn -0 -0.023000987 -0.9997354
vn -0 -0.04598981 -0.99894196
vn -0 0 -1
vn -0 0 -1
vn -0 -0.02300099 -0.9997354
vn -0 -0.045989815 -0.99894196
vn -0 0 -1
vn -0 -0.023000987 -0.9997354
vn -0 -0.045989808 -0.99894196
vn -0 0 -1
vn -0 0 -1
vn -0 0 -1
vn -0 0 -1
vn -0 0 -1
vn -0 0 -1
vn -0.017254056 -0.017253835 -0.99970216
vn -0.014504429 -0.031506523 -0.99939835
vn -0 0 -1
vn -0.023001205 0 -0.9997354
vn -0.031506605 -0.014504509 -0.99939835
vn -0.023007177 -0.023007173 -0.99947053
vn -0.04599025 0 -0.99894196
vn -0.04599025 0 -0.99894196
vn -0.023001201 0 -0.9997354
vn -0.04599024 0 -0.99894196
vn -0.023001201 0 -0.9997354
vn -0.045990244 0 -0.99894196
vn -0 0 -1
vn -0.023001209 0 -0.9997354
vn -0.045990244 0 -0.99894196
vn -0 0 -1
vn -0 0 -1
vn -0 0 -1
vn -0 0 -1
vn -0 0 -1
vn -0.023001201 0 -0.9997354
vn -0.03188975 0 -0.99949133
vn -0.04599024 0 -0.99894196
vn -0.045990232 0 -0.99894196
vn -0.045990225 0 -0.99894196
vn -0.49050996 -0.7159094 0.49686384
vn -0.49050996 -0.7159094 0.49686384
vn -0.49050996 -0.7159094 0.49686384
vn -0.49050996 -0.7159094 0.49686384
vn -0.49050996 -0.7159094 0.49686384
vn -0.49050996 -0.7159094 0.49686384
vn -0.49050996 -0.7159094 0.49686384
vn -0.49050996 -0.7159094 0.49686384
vn -0.49050996 -0.7159094 0.49686384
vn -0.49050996 -0.7159094 0.49686384
vn -0.49050996 -0.7159094 0.49686384
vn -0.49050996 -0.7159094 0.49686384
vn -0.49050996 -0.7159094 0.49686384
vn -0.49050996 -0.7159094 0.49686384
vn -0.49050996 -0.7159094 0.49686384
vn -0.49050996 -0.7159094 0.49686384
vn -0.49050996 -0.7159094 0.49686384
vn -0.49050996 -0.7159094 0.49686384
vn -0.49050996 -0.7159094 0.49686384
vn -0.49050996 -0.7159094 0.49686384
vn -0.49050996 -0.7159094 0.49686384
vn -0.49050996 -0.7159094 0.49686384
vn -0.49050996 -0.7159094 0.49686384
vn -0.49050996 -0.7159094 0.49686384
vn -0.49050996 -0.7159094 0.49686384
vn -0.49050996 -0.7159094 0.49686384
vn -0.49050996 -0.7159094 0.49686384
vn -0.49050996 -0.7159094 0.49686384
vn -0.49050996 -0.7159094 0.49686384
vn -0.49050996 -0.7159094 0.49686384
vn -0.49050996 -0.7159094 0.49686384
vn -0.49050996 -0.7159094 0.49686384
vn -0.49050996 -0.7159094 0.49686384
vn -0.49050996 -0.7159094 0.49686384
vn -0.49050996 -0.7159094 0.49686384
vn -0.49050996 -0.7159094 0.49686384
vn -0.49050996 -0.7159094 0.49686384
vn -0.49050996 -0.7159094 0.49686384
vn -0.49050996 -0.7159094 0.49686384
vn -0.49050996 -0.7159094 0.49686384
vn -0.49050996 -0.7159094 0.49686384
vn -0.49050996 -0.7159094 0.49686384
vn -0.49050996 -0.7159094 0.49686384
vn -0.49050996 -0.7159094 0.49686384
vn -0.49050996 -0.7159094 0.49686384
vn -0.49050996 -0.7159094 0.49686384
vn -0.49050996 -0.7159094 0.49686384
vn -0.49050996 -0.7159094 0.49686384
vn -0.49050996 -0.7159094 0.49686384
vn -0.49050996 -0.7159094 0.49686384
vn -0.49050996 -0.7159094 0.49686384
vn -0.49050996 -0.7159094 0.49686384
vn -0.49050996 -0.7159094 0.49686384
vn -0.49050996 -0.7159094 0.49686384
vn -0.49050996 -0.7159094 0.49686384
vn -0.49050996 -0.7159094 0.49686384
vn -0.49050996 -0.7159094 0.49686384
vn -0.49050996 -0.7159094 0.49686384
vn -0.49050996 -0.7159094 0.49686384
vn -0.49050996 -0.7159094 0.49686384
vn -0.49050996 -0.7159094 0.49686384
vn -0.49050996 -0.7159094 0.49686384
vn -0.49050996 -0.7159094 0.49686384
vn -0.49050996 -0.7159094 0.49686384
vn -0.49050996 -0.7159094 0.49686384
vn -0.49050996 -0.7159094 0.49686384
vn -0.49050996 -0.7159094 0.49686384
vn -0.49050996 -0.7159094 0.49686384
vn -0.49050996 -0.7159094 0.49686384
vn -0.49050996 -0.7159094 0.49686384
vn -0.49050996 -0.7159094 0.49686384
vn -0.49050996 -0.7159094 0.49686384
vn -0.49050996 -0.7159094 0.49686384
vn -0.49050996 -0.7159094 0.49686384
vn -0.49050996 -0.7159094 0.49686384
vn -0.49050996 -0.7159094 0.49686384
vn -0.49050996 -0.7159094 0.49686384
vn -0.49050996 -0.7159094 0.49686384
vn -0.49050996 -0.7159094 0.49686384
vn -0.49050996 -0.7159094 0.49686384
vn -0.49050996 -0.7159094 0.49686384
vn -0.49050996 -0.7159094 0.49686384
vn -0.49050996 -0.7159094 0.49686384
vn -0.49050996 -0.7159094 0.49686384
vn -0.49050996 -0.7159094 0.49686384
vn -0.49050996 -0.7159094 0.49686384
vn -0 -0.19079836 -0.98162925
vn -0 -0.19079836 -0.98162925
vn 0.0054331087 -0.16998272 -0.9854321
vn 0.00381253 -0.17620109 -0.98434687
vn -0.014556683 -0.10620811 -0.9942373
vn -0.006659278 -0.12252947 -0.9924426
vn -0.00959917 -0.027386315 -0.9995789
vn -0.014844839 -0.037487235 -0.9991868
vn 0.0031596753 0.0143163195 -0.9998926
vn 0.0033010072 0.013856963 -0.99989855
vn -0.0031596709 0.014316317 -0.9998926
vn -0.0033010019 0.013856963 -0.99989855
vn 0.009598949 -0.027386328 -0.9995789
vn 0.014844557 -0.03748728 -0.9991868
vn 0.01455629 -0.1062083 -0.9942373
vn 0.006658984 -0.12252966 -0.9924425
vn -0.0054331417 -0.16998279 -0.9854321
vn -0.0038125133 -0.17620105 -0.98434687
vn -0.0052058143 -0.20739846 -0.9782427
vn -0.008075838 -0.21652457 -0.9762438
vn -0.12480721 -0.12480693 -0.98429996
vn -0.12480698 -0.12480715 -0.98429996
vn -0.20739888 -0.005205911 -0.9782426
vn -0.21652497 -0.00807592 -0.9762437
vn -0.16998239 -0.0054332013 -0.9854321
vn -0.17620096 -0.0038125943 -0.98434687
vn -0.106208 0.014556399 -0.9942373
vn -0.12252917 0.0066590426 -0.9924426
vn -0.027386433 0.009598904 -0.9995789
vn -0.03748742 0.014844559 -0.9991868
vn 0.014316541 -0.0031597626 -0.9998926
vn 0.013857164 -0.0033011015 -0.99989855
vn 0.02048545 0.001261402 -0.9997894
vn 0.020302081 0.0013178226 -0.999793
vn 0.01619166 0.0025824932 -0.99986553
vn 0.01619166 0.0025824932 -0.99986553
vn -0 0.9573949 -0.28878194
vn -0 0.9573949 -0.28878194
vn 0.0025968084 0.95561737 -0.29459938
vn 0.0020669298 0.9559834 -0.29341334
vn 0.0046750177 0.9541645 -0.29924592
vn 0.0046750177 0.9541645 -0.29924592
vn -0 0 1
vn -0 0 1
vn -0 0 1
vn -0 0 1
vn -0 0 1
vn -0 0 1
vn -0 0 1
vn -0 0 1
vn -0 0 1
vn -0 0 1
vn -0 0 1
vn -0 0 1
vn -0 0 1
vn -0 0 1
vn -0 0 1
vn -0 0 1
vn -0 0 1
vn -0 0 1
vn -0 0 1
vn -0 0 1
vn -0 0 1
vn -0 0 1
vn -0 0 1
vn -0 0 1
vn -0 0 1
vn -0 0 1
vn -0 0 1
vn -0 0 1
vn -0 0 1
vn -0 0 1
vn -0 0 1
vn -0 0 1
vn -0 0 1
vn -0 0 1
vn -0 0 1
vn -0 0 1
vn 0.5454031 0.8352652 -0.069766335
vn 0.5454031 0.8352652 -0.069766335
vn 0.5454031 0.8352652 -0.069766335
vn 0.5454031 0.8352652 -0.069766335
vn -0.007945392 0.998073 0.06154026
vn -0.0039587133 0.9980331 0.062564455
vn -0.007945392 0.998073 0.06154026
vn -0.0040031816 0.9980336 0.06255304
vn 0.0039587123 0.9980331 0.06256425
vn 0.00400318 0.9980336 0.062552825
vn 0.0079453895 0.998073 0.061539833
vn 0.0079453895 0.998073 0.061539833
vn -0.5454026 0.83526564 -0.06976701
vn -0.5454026 0.83526564 -0.06976701
vn -0.5454026 0.83526564 -0.06976701
vn -0.5454026 0.83526564 -0.06976701
vn -0.0046750763 0.954165 -0.2992445
vn -0.0020669212 0.9559837 -0.29341236
vn -0.0046750763 0.954165 -0.2992445
vn -0.0025968172 0.95561767 -0.2945983
vn 0.022300765 0.9566304 -0.29044962
vn 0.01680434 0.9568634 -0.2900519
vn 0.038969804 0.9557455 -0.2916021
vn 0.038969804 0.9557455 -0.2916021
vn 0.9888798 0.14141057 -0.046039704
vn 0.94993746 0.2757413 -0.14692023
vn 0.94993746 0.2757413 -0.14692023
vn 0.9971187 0.07581247 0.0025939976
vn 0.99829835 0 0.058313567
vn 0.99829835 0 0.058313604
vn 0.99829835 0 0.05831357
vn 0.99829835 0 0.05831353
vn 0.99829835 0 0.05831353
vn 0.98479027 -0.17189817 -0.025281982
vn 0.98571104 -0.16689248 -0.022816857
vn 0.96072644 -0.18596019 -0.20596974
vn 0.96192616 -0.1457465 -0.23120527
vn 0.94851387 0 -0.31673566
vn 0.94851387 0 -0.31673566
vn 0.94851387 0 -0.31673568
vn 0.94851387 0 -0.31673574
vn 0.94851387 0 -0.3167358
vn 0.94851387 0 -0.3167358
vn 0.9979765 -0.00421485 0.06344403
vn 0.997959 -0.008365502 0.06330729
vn 0.997959 -0.008365502 0.06330729
vn 0.9979766 -0.0041680285 0.063445576
vn 0.99803346 0.0040035974 0.06255547
vn 0.99803287 0.0039591272 0.06256687
vn 0.99807274 0.00794622 0.06154373
vn 0.99807274 0.00794622 0.06154373
vn 0.62768483 0 -0.7784676
vn 0.62768483 0 -0.7784676
vn 0.6396493 0.0040603583 -0.76865625
vn 0.63968426 0.0040723267 -0.76862705
vn 0.6648386 -0.20650598 -0.7178752
vn 0.66472656 -0.21393289 -0.71580124
vn 0.78287405 -0.20300522 -0.5881301
vn 0.77494496 -0.21854651 -0.593041
vn 0.871659 0.00388227 -0.4900976
vn 0.8716539 0.0038845253 -0.49010643
vn 0.9048329 0.01221066 -0.42559186
vn 0.904924 0.012258326 -0.42539686
vn 0.9268416 0.02447737 -0.3746539
vn 0.9268416 0.02447737 -0.3746539
vn 0.77846783 0 0.62768453
vn 0.77846783 0 0.62768453
vn 0.78037804 0.0032385453 0.62529963
vn 0.7805035 0.0034521718 0.6251419
vn 0.72584105 -0.23495711 0.6464905
vn 0.74633634 -0.16846886 0.6438946
vn 0.52676094 -0.107397236 0.8432015
vn 0.6120996 -0.28573373 0.7373537
vn 0.47273603 -0.0025032156 0.88120043
vn 0.47082993 -0.0048351944 0.8822108
vn 0.46878073 0.00847548 0.88327396
vn 0.47208497 0.0038146537 0.88154477
vn 0.46612075 0.0122102685 0.8846369
vn 0.46612075 0.0122102685 0.8846369
vn -0.627685 0 0.77846736
vn -0.627685 0 0.77846736
vn -0.63535017 -0.0027084693 0.7722194
vn -0.6353406 -0.0027050686 0.7722273
vn -0.64284045 0.1620642 0.74865973
vn -0.6424672 0.16850089 0.74755824
vn -0.7540787 0.14701872 0.6401178
vn -0.7384087 0.17324126 0.65172076
vn -0.8579679 -0.010790824 0.51359
vn -0.85806155 -0.010747002 0.51343435
vn -0.9048531 -0.013311013 0.42551577
vn -0.9047547 -0.013254922 0.4257265
vn -0.9266897 -0.026579212 0.37488645
vn -0.9266897 -0.026579212 0.37488645
vn 0.77846795 0 0.6276843
vn 0.77846825 0 0.62768394
vn 0.7784679 0 0.6276845
vn 0.7784677 0 0.62768465
vn 0.7029014 -0.126081 0.7000238
vn 0.7234839 -0.09500557 0.68377256
vn 0.52628255 -0.060108 0.84818256
vn 0.583657 -0.13249211 0.80111814
vn 0.4747767 0 0.8801063
vn 0.4747767 0 0.8801063
vn 0.4747767 0 0.8801063
vn 0.4747767 0 0.8801063
vn 0.4747767 0 0.8801063
vn 0.4747767 0 0.8801063
vn 0.9998733 0 0.015918111
vn 0.9998733 0 0.015918177
vn 0.9998733 0 0.015918072
vn 0.9998733 0 0.015918046
vn 0.9998733 0 0.015918046
vn 0.9998733 0 0.015918046
vn 0.9998733 0 0.015918048
vn 0.9998733 0 0.015918048
vn 0.9998733 0 0.015918048
vn 0.9998733 0 0.015918046
vn 0.9998733 0 0.015918048
vn 0.9998733 0 0.015918048
vn 0.9556175 -0.0025970014 -0.29459885
vn 0.95416504 -0.004675362 -0.2992444
vn 0.95416504 -0.004675362 -0.2992444
vn 0.9559835 -0.0020670795 -0.29341307
vn 0.956863 0.016804544 -0.29005304
vn 0.95663 0.022301052 -0.2904508
vn 0.95574516 0.03897035 -0.29160324
vn 0.95574516 0.03897035 -0.29160324
vn 0.008475298 0.46877795 0.88327545
vn 0.012210045 0.46611795 0.88463837
vn 0.012210045 0.46611795 0.88463837
vn 0.0038146083 0.47208202 0.8815463
vn -0.0025032195 0.47273314 0.88120204
vn -0.0048351525 0.47082722 0.88221216
vn -0.10739739 0.52675754 0.84320354
vn -0.28572983 0.6120933 0.73736036
vn -0.23495366 0.7258358 0.64649755
vn -0.16846788 0.746331 0.64390117
vn 0.0034524864 0.78049874 0.6251478
vn 0.0032388875 0.7803732 0.62530565
vn -0.003452479 0.78049797 0.62514865
vn -0.0032388829 0.78037256 0.6253064
vn 0.23495358 0.7258349 0.6464987
vn 0.16846791 0.74632984 0.6439024
vn 0.10712671 0.52613443 0.843627
vn 0.2856379 0.61186767 0.73758316
vn 0.00698594 0.46790776 0.8837496
vn 0.0023800957 0.4724406 0.8813592
vn 0.0057745543 0.46910217 0.88312507
vn -0 0.47477412 0.88010764
vn 0.02447714 0.9268413 -0.3746548
vn 0.02447714 0.9268413 -0.3746548
vn 0.012210543 0.9048332 -0.42559105
vn 0.012258208 0.9049243 -0.42539608
vn 0.003881986 0.87166 -0.4900958
vn 0.003884241 0.871655 -0.49010462
vn -0.20300724 0.7828763 -0.58812654
vn -0.21854813 0.7749475 -0.59303707
vn -0.2065078 0.66484493 -0.71786886
vn -0.21393427 0.66473275 -0.71579504
vn 0.0040602856 0.6396561 -0.7686505
vn 0.004072255 0.6396911 -0.76862127
vn -0.0040602856 0.6396561 -0.7686505
vn -0.004072255 0.6396911 -0.76862127
vn 0.20650789 0.66484475 -0.717869
vn 0.21393433 0.6647325 -0.71579516
vn 0.20300733 0.78287625 -0.58812654
vn 0.21854827 0.77494746 -0.5930372
vn -0.0038819837 0.8716599 -0.49009588
vn -0.003884239 0.87165487 -0.4901047
vn -0 0.8801074 -0.47477478
vn -0 0.8801074 -0.47477478
vn -0.0133108925 -0.90485436 0.42551306
vn -0.026578976 -0.9266907 0.3748839
vn -0.026578976 -0.9266907 0.3748839
vn -0.0132548055 -0.90475607 0.42572388
vn -0.010790355 -0.8579697 0.51358706
vn -0.010746538 -0.85806334 0.51343143
vn 0.1470206 -0.7540825 0.6401129
vn 0.17324282 -0.73841316 0.6517154
vn 0.16206567 -0.64284676 0.74865407
vn 0.16850209 -0.6424735 0.7475526
vn -0.0027084772 -0.6353563 0.77221435
vn -0.002705077 -0.6353468 0.7722222
vn 0.0027084774 -0.63535637 0.77221435
vn 0.002705077 -0.6353468 0.7722223
vn -0.16206564 -0.64284694 0.74865377
vn -0.16850212 -0.6424738 0.7475522
vn -0.1496781 -0.744934 0.65013057
vn -0.17544629 -0.7303339 0.660175
vn 0.016139029 -0.8200514 0.5720624
vn 0.016139029 -0.8200514 0.5720624
vn 0.016139029 -0.8200514 0.5720624
vn -0 0.47477412 0.88010764
vn -0 0.47477412 0.88010764
vn -0 0.47477412 0.88010764
vn -0 0.47477412 0.88010764
vn -0 0.47477412 0.88010764
vn -0 0.47477406 0.88010764
vn -0.06010792 0.52627933 0.8481845
vn -0.1324903 0.5836521 0.801122
vn -0.12607919 0.7028963 0.70002925
vn -0.09500546 0.7234779 0.68377906
vn -0 0.77846235 0.6276914
vn -0 0.77846235 0.6276914
vn -0 0.7784624 0.6276912
vn -0 0.7784624 0.6276912
vn 0.09996201 0.7652051 0.63597864
vn -0 0.77846247 0.62769115
vn 0.192298 0.74577487 0.63784105
vn 0.2564514 0.6693635 0.6972698
vn 0.09253989 0.5526228 0.82827795
vn -0 0.47477412 0.88010764
vn -0 0.9998733 0.015919238
vn -0 0.9998733 0.01591971
vn -0 0.9998733 0.01591971
vn -0 0.9998733 0.01591923
vn -0 0.9998733 0.015919209
vn -0 0.9998733 0.015919216
vn -0 0.9998733 0.015919222
vn -0 0.9998733 0.015919218
vn -0 0.9998733 0.015919225
vn -0 0.9998733 0.015919227
vn -0 0.9998733 0.015919564
vn -0 0.9998733 0.015919562
vn -0 0.9998733 0.015919162
vn -0 0.9998733 0.01591945
vn -0 0.9998733 0.01591888
vn -0 0.9998733 0.015918316
vn 0.44099 0 -0.897512
vn 0.44099 0 -0.897512
vn 0.44099 0 -0.897512
vn 0.44099006 0 -0.89751196
vn 0.44099 0 -0.897512
vn 0.44098985 0 -0.897512
vn 0.44098985 0 -0.897512
vn 0.44098997 0 -0.897512
vn 0.44099006 0 -0.89751196
vn 0.44099006 0 -0.89751196
vn 0.44099012 0 -0.89751196
vn 0.44099024 0 -0.89751184
vn -0 0.44098952 -0.89751226
vn -0 0.4409893 -0.89751244
vn -0 0.4409893 -0.89751244
vn -0 0.44098935 -0.8975123
vn -0 0.4409895 -0.89751226
vn -0 0.44098955 -0.89751226
vn -0 0.44098967 -0.89751214
vn -0 0.4409896 -0.89751214
vn -0 0.4409895 -0.89751226
vn -0 0.4409896 -0.89751214
vn -0 0.44098935 -0.8975123
vn -0 0.4409893 -0.8975123
vn -0 0.44098532 -0.8975143
vn -0 0.44098943 -0.89751226
vn -0 0.44098783 -0.8975131
vn -0 0.44098154 -0.8975162
vn -0 0.99963725 0.026932789
vn -0 0.99963725 0.02693224
vn -0 0.99963725 0.02693224
vn -0 0.99963725 0.026932806
vn -0 0.99963725 0.026933199
vn -0 0.99963725 0.026933195
vn -0 0.99963725 0.026933089
vn -0 0.99963725 0.026933089
vn -0 0.99963725 0.0269335
vn -0 0.99963725 0.026933502
vn -0 0.99963725 0.026933193
vn -0 0.99963725 0.026933193
vn -0 0.9996371 0.026938872
vn -0 0.99963725 0.026932526
vn -0 0.9996369 0.026944874
vn -0 0.99963665 0.02695719
vn 0.99963725 0 0.026931224
vn 0.99963725 0 0.026931236
vn 0.99963725 0 0.026931224
vn 0.99963725 0 0.026931234
vn 0.99963725 0 0.026931247
vn 0.99963725 0 0.026931247
vn 0.99963725 0 0.026931243
vn 0.99963725 0 0.026931243
vn 0.99963725 0 0.026931241
vn 0.99963725 0 0.026931223
vn 0.99963725 0 0.026931232
vn 0.99963725 0 0.026931202
vn -0 0.50975597 0.86031896
vn -0 0.5097559 0.8603191
vn -0 0.5097559 0.8603191
vn -0 0.50975627 0.8603189
vn -0 0.5097563 0.8603189
vn -0 0.50975627 0.8603189
vn -0 0.50975615 0.86031896
vn -0 0.50975615 0.86031896
vn -0 0.5097562 0.8603189
vn -0 0.5097562 0.8603189
vn -0 0.5097563 0.8603188
vn -0 0.5097563 0.8603189
vn -0 0.5097563 0.8603189
vn -0 0.5097564 0.8603188
vn -0 0.9999827 0.005885219
vn -0 0.9999827 0.0058852574
vn -0 0.9999827 0.0058852574
vn -0 0.9999827 0.0058852183
vn -0 0.9999827 0.005885267
vn -0 0.9999827 0.0058852676
vn -0 0.9999827 0.0058853095
vn -0 0.9999827 0.005885354
vn -0 0.9999827 0.005885268
vn -0 0.9999827 0.005885149
vn -0 0.9999827 0.0058851163
vn -0 0.9999827 0.0058850506
vn 0.9999827 0 0.005883869
vn 0.9999827 0 0.0058838646
vn 0.9999827 0 0.005883869
vn 0.9999827 0 0.0058838646
vn 0.9999827 0 0.0058838613
vn 0.9999827 0 0.0058838367
vn 0.9999827 0 0.005883852
vn 0.9999827 0 0.005883788
vn 0.9999827 0 0.005883803
vn 0.9999827 0 0.005883763
vn 0.5097557 0 0.8603192
vn 0.50975645 0 0.8603187
vn 0.5097557 0 0.8603192
vn 0.50975597 0 0.86031896
vn 0.5097569 0 0.8603184
vn 0.50975686 0 0.86031854
vn 0.5097567 0 0.8603187
vn 0.50975674 0 0.86031854
vn 0.5097563 0 0.8603188
vn 0.5097563 0 0.8603188
vn -0 0 1
vn -0 0 1
vn -0 0 1
vn -0 0 1
vn -0 0 1
vn -0 0 1
vn -0 0 1
vn -0 0 1
vn -0 0 1
vn -0 0 1
vn -0 0 1
vn -0 0 1
vn -1 0 0
vn -1 0 0
vn -1 0 0
vn -1 0 0
vn -1 0 0
vn -1 0 0
vn -0 -1 0
vn -0 -1 0
vn -0 -1 0
vn -0 -1 0
vn -0 -1 0
vn -0 -1 0
vn -0 -1 0
vn -0 0 1
vn -0 0 1
vn -0 0 1
vn -0 0 1
vn -0 0 1
vn -0 0 1
vn -0 0 1
vn -0 0 1
vn -0 0 1
vn -0 0 1
vn 0.83526564 -0.54540277 -0.06976501
vn 0.83526564 -0.54540277 -0.06976501
vn 0.83526564 -0.54540277 -0.06976501
vn 0.83526564 -0.54540277 -0.06976501
g Iron Castle Debris .001_0
f 3/3/3 2/2/2 1/1/1
f 6/6/6 5/5/5 4/4/4
f 9/9/9 8/8/8 7/7/7
f 12/12/12 11/11/11 10/10/10
f 15/15/15 14/14/14 13/13/13
f 18/18/18 17/17/17 16/16/16
f 21/21/21 20/20/20 19/19/19
f 24/24/24 23/23/23 22/22/22
f 23/23/23 25/25/25 22/22/22
f 26/26/26 22/22/22 25/25/25
f 25/25/25 27/27/27 26/26/26
f 25/25/25 28/28/28 27/27/27
f 27/27/27 29/29/29 26/26/26
f 29/29/29 30/30/30 26/26/26
f 29/29/29 31/31/31 30/30/30
f 31/31/31 32/32/32 30/30/30
f 31/31/31 33/33/33 32/32/32
f 33/33/33 34/34/34 32/32/32
f 33/33/33 35/35/35 34/34/34
f 35/35/35 36/36/36 34/34/34
f 35/35/35 37/37/37 36/36/36
f 37/37/37 38/38/38 36/36/36
f 37/37/37 39/39/39 38/38/38
f 39/39/39 40/40/40 38/38/38
f 39/39/39 41/41/41 40/40/40
f 41/41/41 42/42/42 40/40/40
f 41/41/41 43/43/43 42/42/42
f 43/43/43 44/44/44 42/42/42
f 43/43/43 45/45/45 44/44/44
f 45/45/45 46/46/46 44/44/44
f 49/49/49 48/48/48 47/47/47
f 49/49/49 47/47/47 50/50/50
f 50/50/50 51/51/51 49/49/49
f 51/51/51 50/50/50 52/52/52
f 53/53/53 51/51/51 52/52/52
f 52/52/52 54/54/54 53/53/53
f 53/53/53 54/54/54 55/55/55
f 56/56/56 54/54/54 52/52/52
f 54/54/54 56/56/56 55/55/55
f 56/56/56 57/57/57 55/55/55
f 58/58/58 56/56/56 52/52/52
f 59/59/59 57/57/57 56/56/56
f 60/60/60 56/56/56 58/58/58
f 59/59/59 56/56/56 60/60/60
f 61/61/61 60/60/60 58/58/58
f 60/60/60 62/62/62 59/59/59
f 59/59/59 62/62/62 63/63/63
f 64/64/64 63/63/63 62/62/62
f 65/65/65 60/60/60 61/61/61
f 66/66/66 65/65/65 61/61/61
f 67/67/67 62/62/62 60/60/60
f 64/64/64 62/62/62 67/67/67
f 65/65/65 67/67/67 60/60/60
f 68/68/68 65/65/65 66/66/66
f 69/69/69 68/68/68 66/66/66
f 67/67/67 70/70/70 64/64/64
f 64/64/64 70/70/70 71/71/71
f 70/70/70 72/72/72 71/71/71
f 72/72/72 70/70/70 67/67/67
f 72/72/72 73/73/73 71/71/71
f 74/74/74 73/73/73 72/72/72
f 75/75/75 67/67/67 65/65/65
f 75/75/75 72/72/72 67/67/67
f 68/68/68 75/75/75 65/65/65
f 76/76/76 68/68/68 69/69/69
f 77/77/77 76/76/76 69/69/69
f 74/74/74 72/72/72 78/78/78
f 78/78/78 72/72/72 75/75/75
f 79/79/79 75/75/75 68/68/68
f 76/76/76 79/79/79 68/68/68
f 79/79/79 78/78/78 75/75/75
f 80/80/80 76/76/76 77/77/77
f 81/81/81 80/80/80 77/77/77
f 82/82/82 79/79/79 76/76/76
f 80/80/80 82/82/82 76/76/76
f 83/83/83 80/80/80 81/81/81
f 84/84/84 83/83/83 81/81/81
f 78/78/78 85/85/85 74/74/74
f 74/74/74 85/85/85 86/86/86
f 87/87/87 86/86/86 85/85/85
f 88/88/88 78/78/78 79/79/79
f 82/82/82 88/88/88 79/79/79
f 89/89/89 85/85/85 78/78/78
f 87/87/87 85/85/85 89/89/89
f 88/88/88 89/89/89 78/78/78
f 90/90/90 82/82/82 80/80/80
f 83/83/83 90/90/90 80/80/80
f 91/91/91 83/83/83 84/84/84
f 92/92/92 91/91/91 84/84/84
f 93/93/93 88/88/88 82/82/82
f 90/90/90 93/93/93 82/82/82
f 94/94/94 90/90/90 83/83/83
f 91/91/91 94/94/94 83/83/83
f 95/95/95 91/91/91 92/92/92
f 96/96/96 95/95/95 92/92/92
f 95/95/95 97/97/97 91/91/91
f 97/97/97 94/94/94 91/91/91
f 97/97/97 98/98/98 94/94/94
f 94/94/94 99/99/99 90/90/90
f 98/98/98 99/99/99 94/94/94
f 99/99/99 93/93/93 90/90/90
f 98/98/98 100/100/100 99/99/99
f 100/100/100 101/101/101 99/99/99
f 99/99/99 101/101/101 93/93/93
f 100/100/100 102/102/102 101/101/101
f 93/93/93 103/103/103 88/88/88
f 101/101/101 103/103/103 93/93/93
f 103/103/103 89/89/89 88/88/88
f 102/102/102 104/104/104 101/101/101
f 101/101/101 104/104/104 103/103/103
f 102/102/102 105/105/105 104/104/104
f 103/103/103 106/106/106 89/89/89
f 104/104/104 106/106/106 103/103/103
f 106/106/106 107/107/107 89/89/89
f 89/89/89 107/107/107 87/87/87
f 87/87/87 107/107/107 108/108/108
f 107/107/107 106/106/106 108/108/108
f 106/106/106 109/109/109 108/108/108
f 110/110/110 109/109/109 106/106/106
f 110/110/110 106/106/106 104/104/104
f 104/104/104 111/111/111 110/110/110
f 105/105/105 111/111/111 104/104/104
f 110/110/110 111/111/111 112/112/112
f 113/113/113 112/112/112 111/111/111
f 113/113/113 111/111/111 105/105/105
f 105/105/105 114/114/114 113/113/113
f 113/113/113 114/114/114 115/115/115
f 118/118/118 117/117/117 116/116/116
f 116/116/116 119/119/119 118/118/118
f 116/116/116 120/120/120 119/119/119
f 116/116/116 121/121/121 120/120/120
f 116/116/116 122/122/122 121/121/121
f 116/116/116 123/123/123 122/122/122
f 116/116/116 124/124/124 123/123/123
f 116/116/116 125/125/125 124/124/124
f 116/116/116 126/126/126 125/125/125
f 116/116/116 127/127/127 126/126/126
f 116/116/116 128/128/128 127/127/127
f 116/116/116 129/129/129 128/128/128
f 116/116/116 130/130/130 129/129/129
f 116/116/116 131/131/131 130/130/130
f 116/116/116 132/132/132 131/131/131
f 116/116/116 133/133/133 132/132/132
f 116/116/116 134/134/134 133/133/133
f 135/135/135 133/133/133 134/134/134
f 136/136/136 135/135/135 134/134/134
f 134/134/134 137/137/137 136/136/136
f 116/116/116 138/138/138 134/134/134
f 116/116/116 139/139/139 138/138/138
f 139/139/139 140/140/140 138/138/138
f 140/140/140 141/141/141 138/138/138
f 140/140/140 142/142/142 141/141/141
f 141/141/141 142/142/142 143/143/143
f 143/143/143 144/144/144 141/141/141
f 142/142/142 145/145/145 143/143/143
f 142/142/142 146/146/146 145/145/145
f 149/149/149 148/148/148 147/147/147
f 148/148/148 150/150/150 147/147/147
f 153/153/153 152/152/152 151/151/151
f 152/152/152 153/153/153 154/154/154
f 154/154/154 155/155/155 152/152/152
f 154/154/154 156/156/156 155/155/155
f 154/154/154 157/157/157 156/156/156
f 155/155/155 156/156/156 158/158/158
f 158/158/158 159/159/159 155/155/155
f 158/158/158 156/156/156 160/160/160
f 158/158/158 161/161/161 159/159/159
f 161/161/161 162/162/162 159/159/159
f 160/160/160 163/163/163 158/158/158
f 160/160/160 164/164/164 163/163/163
f 160/160/160 165/165/165 164/164/164
f 165/165/165 166/166/166 164/164/164
f 165/165/165 167/167/167 166/166/166
f 165/165/165 168/168/168 167/167/167
f 168/168/168 169/169/169 167/167/167
f 168/168/168 170/170/170 169/169/169
f 168/168/168 171/171/171 170/170/170
f 171/171/171 172/172/172 170/170/170
f 172/172/172 173/173/173 170/170/170
f 172/172/172 174/174/174 173/173/173
f 174/174/174 175/175/175 173/173/173
f 174/174/174 176/176/176 175/175/175
f 176/176/176 177/177/177 175/175/175
f 176/176/176 178/178/178 177/177/177
f 176/176/176 179/179/179 178/178/178
f 179/179/179 180/180/180 178/178/178
f 180/180/180 181/181/181 178/178/178
f 180/180/180 182/182/182 181/181/181
f 180/180/180 183/183/183 182/182/182
f 183/183/183 184/184/184 182/182/182
f 183/183/183 185/185/185 184/184/184
f 183/183/183 186/186/186 185/185/185
f 184/184/184 185/185/185 187/187/187
f 186/186/186 188/188/188 185/185/185
f 186/186/186 189/189/189 188/188/188
f 189/189/189 190/190/190 188/188/188
f 189/189/189 191/191/191 190/190/190
f 187/187/187 192/192/192 184/184/184
f 187/187/187 193/193/193 192/192/192
f 193/193/193 194/194/194 192/192/192
f 194/194/194 195/195/195 192/192/192
f 194/194/194 196/196/196 195/195/195
f 199/199/199 198/198/198 197/197/197
f 198/198/198 200/200/200 197/197/197
f 200/200/200 201/201/201 197/197/197
f 204/204/204 203/203/203 202/202/202
f 205/205/205 204/204/204 202/202/202
f 204/204/204 205/205/205 206/206/206
f 205/205/205 207/207/207 206/206/206
f 206/206/206 207/207/207 208/208/208
f 207/207/207 209/209/209 208/208/208
f 208/208/208 209/209/209 210/210/210
f 209/209/209 211/211/211 210/210/210
f 210/210/210 211/211/211 212/212/212
f 211/211/211 213/213/213 212/212/212
f 212/212/212 213/213/213 214/214/214
f 213/213/213 215/215/215 214/214/214
f 214/214/214 215/215/215 216/216/216
f 215/215/215 217/217/217 216/216/216
f 216/216/216 217/217/217 218/218/218
f 217/217/217 219/219/219 218/218/218
f 218/218/218 219/219/219 220/220/220
f 219/219/219 221/221/221 220/220/220
f 220/220/220 221/221/221 222/222/222
f 221/221/221 223/223/223 222/222/222
f 222/222/222 223/223/223 224/224/224
f 223/223/223 225/225/225 224/224/224
f 224/224/224 225/225/225 226/226/226
f 225/225/225 227/227/227 226/226/226
f 226/226/226 227/227/227 228/228/228
f 227/227/227 229/229/229 228/228/228
f 228/228/228 229/229/229 230/230/230
f 229/229/229 231/231/231 230/230/230
f 230/230/230 231/231/231 232/232/232
f 231/231/231 233/233/233 232/232/232
f 232/232/232 233/233/233 234/234/234
f 233/233/233 235/235/235 234/234/234
f 234/234/234 235/235/235 236/236/236
f 236/236/236 237/237/237 234/234/234
f 240/240/240 239/239/239 238/238/238
f 241/241/241 240/240/240 238/238/238
f 241/241/241 242/242/242 240/240/240
f 242/242/242 243/243/243 240/240/240
f 246/246/246 245/245/245 244/244/244
f 247/247/247 246/246/246 244/244/244
f 248/248/248 247/247/247 244/244/244
f 249/249/249 248/248/248 244/244/244
f 250/250/250 248/248/248 249/249/249
f 251/251/251 250/250/250 249/249/249
f 252/252/252 250/250/250 251/251/251
f 253/253/253 252/252/252 251/251/251
f 254/254/254 252/252/252 253/253/253
f 255/255/255 254/254/254 253/253/253
f 256/256/256 254/254/254 255/255/255
f 257/257/257 256/256/256 255/255/255
f 258/258/258 256/256/256 257/257/257
f 259/259/259 258/258/258 257/257/257
f 260/260/260 258/258/258 259/259/259
f 261/261/261 260/260/260 259/259/259
f 262/262/262 260/260/260 261/261/261
f 263/263/263 262/262/262 261/261/261
f 264/264/264 262/262/262 263/263/263
f 265/265/265 264/264/264 263/263/263
f 266/266/266 264/264/264 265/265/265
f 267/267/267 266/266/266 265/265/265
f 268/268/268 266/266/266 267/267/267
f 269/269/269 268/268/268 267/267/267
f 270/270/270 268/268/268 269/269/269
f 271/271/271 270/270/270 269/269/269
f 272/272/272 270/270/270 271/271/271
f 273/273/273 272/272/272 271/271/271
f 274/274/274 272/272/272 273/273/273
f 275/275/275 274/274/274 273/273/273
f 276/276/276 274/274/274 275/275/275
f 275/275/275 277/277/277 276/276/276
f 276/276/276 277/277/277 278/278/278
f 275/275/275 279/279/279 277/277/277
f 282/282/282 281/281/281 280/280/280
f 283/283/283 282/282/282 280/280/280
f 286/286/286 285/285/285 284/284/284
f 285/285/285 287/287/287 284/284/284
f 285/285/285 288/288/288 287/287/287
f 288/288/288 289/289/289 287/287/287
f 288/288/288 290/290/290 289/289/289
f 290/290/290 291/291/291 289/289/289
f 294/294/294 293/293/293 292/292/292
f 295/295/295 294/294/294 292/292/292
f 298/298/298 297/297/297 296/296/296
f 297/297/297 299/299/299 296/296/296
f 297/297/297 300/300/300 299/299/299
f 300/300/300 301/301/301 299/299/299
f 300/300/300 302/302/302 301/301/301
f 302/302/302 303/303/303 301/301/301
f 306/306/306 305/305/305 304/304/304
f 307/307/307 306/306/306 304/304/304
f 307/307/307 304/304/304 308/308/308
f 308/308/308 309/309/309 307/307/307
f 308/308/308 310/310/310 309/309/309
f 310/310/310 308/308/308 311/311/311
f 312/312/312 310/310/310 311/311/311
f 312/312/312 311/311/311 313/313/313
f 314/314/314 312/312/312 313/313/313
f 314/314/314 313/313/313 315/315/315
f 316/316/316 314/314/314 315/315/315
f 316/316/316 315/315/315 317/317/317
f 318/318/318 316/316/316 317/317/317
f 318/318/318 317/317/317 319/319/319
f 320/320/320 318/318/318 319/319/319
f 320/320/320 319/319/319 321/321/321
f 322/322/322 320/320/320 321/321/321
f 325/325/325 324/324/324 323/323/323
f 326/326/326 325/325/325 323/323/323
f 326/326/326 323/323/323 327/327/327
f 328/328/328 326/326/326 327/327/327
f 328/328/328 327/327/327 329/329/329
f 330/330/330 328/328/328 329/329/329
f 333/333/333 332/332/332 331/331/331
f 334/334/334 333/333/333 331/331/331
f 335/335/335 333/333/333 334/334/334
f 336/336/336 335/335/335 334/334/334
f 337/337/337 335/335/335 336/336/336
f 338/338/338 337/337/337 336/336/336
f 339/339/339 337/337/337 338/338/338
f 340/340/340 339/339/339 338/338/338
f 341/341/341 339/339/339 340/340/340
f 342/342/342 341/341/341 340/340/340
f 343/343/343 341/341/341 342/342/342
f 344/344/344 343/343/343 342/342/342
f 347/347/347 346/346/346 345/345/345
f 348/348/348 347/347/347 345/345/345
f 347/347/347 348/348/348 349/349/349
f 350/350/350 347/347/347 349/349/349
f 350/350/350 349/349/349 351/351/351
f 352/352/352 350/350/350 351/351/351
f 352/352/352 351/351/351 353/353/353
f 354/354/354 352/352/352 353/353/353
f 354/354/354 353/353/353 355/355/355
f 356/356/356 354/354/354 355/355/355
f 356/356/356 355/355/355 357/357/357
f 358/358/358 356/356/356 357/357/357
f 361/361/361 360/360/360 359/359/359
f 362/362/362 361/361/361 359/359/359
f 361/361/361 362/362/362 363/363/363
f 362/362/362 364/364/364 363/363/363
f 363/363/363 364/364/364 365/365/365
f 364/364/364 366/366/366 365/365/365
f 365/365/365 366/366/366 367/367/367
f 366/366/366 368/368/368 367/367/367
f 367/367/367 368/368/368 369/369/369
f 368/368/368 370/370/370 369/369/369
f 369/369/369 370/370/370 371/371/371
f 370/370/370 372/372/372 371/371/371
f 375/375/375 374/374/374 373/373/373
f 376/376/376 375/375/375 373/373/373
f 373/373/373 377/377/377 376/376/376
f 377/377/377 378/378/378 376/376/376
f 378/378/378 377/377/377 379/379/379
f 380/380/380 378/378/378 379/379/379
f 380/380/380 379/379/379 381/381/381
f 382/382/382 380/380/380 381/381/381
f 382/382/382 381/381/381 383/383/383
f 384/384/384 382/382/382 383/383/383
f 384/384/384 383/383/383 385/385/385
f 386/386/386 384/384/384 385/385/385
f 389/389/389 388/388/388 387/387/387
f 390/390/390 389/389/389 387/387/387
f 387/387/387 391/391/391 390/390/390
f 387/387/387 392/392/392 391/391/391
f 391/391/391 392/392/392 393/393/393
f 394/394/394 391/391/391 393/393/393
f 394/394/394 393/393/393 395/395/395
f 396/396/396 394/394/394 395/395/395
f 396/396/396 395/395/395 397/397/397
f 398/398/398 396/396/396 397/397/397
f 401/401/401 400/400/400 399/399/399
f 402/402/402 401/401/401 399/399/399
f 402/402/402 399/399/399 403/403/403
f 404/404/404 402/402/402 403/403/403
f 404/404/404 403/403/403 405/405/405
f 406/406/406 404/404/404 405/405/405
f 409/409/409 408/408/408 407/407/407
f 410/410/410 409/409/409 407/407/407
f 410/410/410 407/407/407 411/411/411
f 412/412/412 410/410/410 411/411/411
f 412/412/412 411/411/411 413/413/413
f 414/414/414 412/412/412 413/413/413
f 414/414/414 413/413/413 415/415/415
f 416/416/416 414/414/414 415/415/415
f 416/416/416 415/415/415 417/417/417
f 418/418/418 416/416/416 417/417/417
f 418/418/418 417/417/417 419/419/419
f 420/420/420 418/418/418 419/419/419
f 420/420/420 419/419/419 421/421/421
f 422/422/422 420/420/420 421/421/421
f 422/422/422 421/421/421 423/423/423
f 424/424/424 422/422/422 423/423/423
f 425/425/425 424/424/424 423/423/423
f 423/423/423 426/426/426 425/425/425
f 426/426/426 427/427/427 425/425/425
f 428/428/428 427/427/427 426/426/426
f 431/431/431 430/430/430 429/429/429
f 432/432/432 431/431/431 429/429/429
f 433/433/433 431/431/431 432/432/432
f 434/434/434 433/433/433 432/432/432
f 435/435/435 433/433/433 434/434/434
f 436/436/436 435/435/435 434/434/434
f 437/437/437 435/435/435 436/436/436
f 438/438/438 437/437/437 436/436/436
f 439/439/439 437/437/437 438/438/438
f 440/440/440 439/439/439 438/438/438
f 441/441/441 439/439/439 440/440/440
f 442/442/442 441/441/441 440/440/440
f 443/443/443 441/441/441 442/442/442
f 444/444/444 443/443/443 442/442/442
f 445/445/445 443/443/443 444/444/444
f 446/446/446 445/445/445 444/444/444
f 447/447/447 445/445/445 446/446/446
f 448/448/448 447/447/447 446/446/446
f 449/449/449 447/447/447 448/448/448
f 450/450/450 449/449/449 448/448/448
f 453/453/453 452/452/452 451/451/451
f 452/452/452 454/454/454 451/451/451
f 451/451/451 454/454/454 455/455/455
f 454/454/454 456/456/456 455/455/455
f 455/455/455 456/456/456 457/457/457
f 456/456/456 458/458/458 457/457/457
f 457/457/457 458/458/458 459/459/459
f 458/458/458 460/460/460 459/459/459
f 459/459/459 460/460/460 461/461/461
f 460/460/460 462/462/462 461/461/461
f 461/461/461 462/462/462 463/463/463
f 462/462/462 464/464/464 463/463/463
f 463/463/463 464/464/464 465/465/465
f 464/464/464 466/466/466 465/465/465
f 465/465/465 466/466/466 467/467/467
f 466/466/466 468/468/468 467/467/467
f 469/469/469 467/467/467 468/468/468
f 468/468/468 470/470/470 469/469/469
f 468/468/468 471/471/471 470/470/470
f 474/474/474 473/473/473 472/472/472
f 475/475/475 474/474/474 472/472/472
f 475/475/475 472/472/472 476/476/476
f 477/477/477 475/475/475 476/476/476
f 477/477/477 476/476/476 478/478/478
f 479/479/479 477/477/477 478/478/478
f 479/479/479 478/478/478 480/480/480
f 481/481/481 479/479/479 480/480/480
f 481/481/481 480/480/480 482/482/482
f 483/483/483 481/481/481 482/482/482
f 483/483/483 482/482/482 484/484/484
f 485/485/485 483/483/483 484/484/484
f 486/486/486 485/485/485 484/484/484
f 486/486/486 487/487/487 485/485/485
f 484/484/484 488/488/488 486/486/486
f 489/489/489 486/486/486 488/488/488
f 488/488/488 490/490/490 489/489/489
f 491/491/491 489/489/489 490/490/490
f 494/494/494 493/493/493 492/492/492
f 495/495/495 494/494/494 492/492/492
f 495/495/495 492/492/492 496/496/496
f 497/497/497 495/495/495 496/496/496
f 497/497/497 496/496/496 498/498/498
f 499/499/499 497/497/497 498/498/498
f 499/499/499 498/498/498 500/500/500
f 501/501/501 499/499/499 500/500/500
f 501/501/501 500/500/500 502/502/502
f 503/503/503 501/501/501 502/502/502
f 504/504/504 503/503/503 502/502/502
f 504/504/504 505/505/505 503/503/503
f 502/502/502 506/506/506 504/504/504
f 507/507/507 504/504/504 506/506/506
f 510/510/510 509/509/509 508/508/508
f 509/509/509 511/511/511 508/508/508
f 509/509/509 512/512/512 511/511/511
f 512/512/512 513/513/513 511/511/511
f 512/512/512 514/514/514 513/513/513
f 514/514/514 515/515/515 513/513/513
f 516/516/516 515/515/515 514/514/514
f 516/516/516 517/517/517 515/515/515
f 514/514/514 518/518/518 516/516/516
f 518/518/518 519/519/519 516/516/516
f 522/522/522 521/521/521 520/520/520
f 523/523/523 522/522/522 520/520/520
f 523/523/523 520/520/520 524/524/524
f 525/525/525 523/523/523 524/524/524
f 525/525/525 524/524/524 526/526/526
f 527/527/527 525/525/525 526/526/526
f 527/527/527 526/526/526 528/528/528
f 529/529/529 527/527/527 528/528/528
f 529/529/529 528/528/528 530/530/530
f 531/531/531 529/529/529 530/530/530
f 532/532/532 531/531/531 530/530/530
f 530/530/530 533/533/533 532/532/532
f 533/533/533 534/534/534 532/532/532
f 532/532/532 534/534/534 535/535/535
f 538/538/538 537/537/537 536/536/536
f 539/539/539 538/538/538 536/536/536
f 539/539/539 536/536/536 540/540/540
f 541/541/541 539/539/539 540/540/540
f 541/541/541 540/540/540 542/542/542
f 543/543/543 541/541/541 542/542/542
f 543/543/543 542/542/542 544/544/544
f 545/545/545 543/543/543 544/544/544
f 545/545/545 544/544/544 546/546/546
f 547/547/547 545/545/545 546/546/546
f 548/548/548 547/547/547 546/546/546
f 548/548/548 549/549/549 547/547/547
f 546/546/546 550/550/550 548/548/548
f 548/548/548 550/550/550 551/551/551
f 554/554/554 553/553/553 552/552/552
f 553/553/553 555/555/555 552/552/552
f 553/553/553 556/556/556 555/555/555
f 556/556/556 557/557/557 555/555/555
f 556/556/556 558/558/558 557/557/557
f 558/558/558 559/559/559 557/557/557
f 559/559/559 558/558/558 560/560/560
f 561/561/561 559/559/559 560/560/560
f 560/560/560 562/562/562 561/561/561
f 562/562/562 563/563/563 561/561/561
f 566/566/566 565/565/565 564/564/564
f 567/567/567 566/566/566 564/564/564
f 567/567/567 564/564/564 568/568/568
f 569/569/569 567/567/567 568/568/568
f 569/569/569 568/568/568 570/570/570
f 571/571/571 569/569/569 570/570/570
f 571/571/571 570/570/570 572/572/572
f 573/573/573 571/571/571 572/572/572
f 573/573/573 572/572/572 574/574/574
f 574/574/574 575/575/575 573/573/573
f 574/574/574 576/576/576 575/575/575
f 574/574/574 577/577/577 576/576/576
f 580/580/580 579/579/579 578/578/578
f 581/581/581 580/580/580 578/578/578
f 581/581/581 578/578/578 582/582/582
f 583/583/583 581/581/581 582/582/582
f 584/584/584 583/583/583 582/582/582
f 584/584/584 585/585/585 583/583/583
f 582/582/582 586/586/586 584/584/584
f 587/587/587 584/584/584 586/586/586
f 588/588/588 587/587/587 586/586/586
f 589/589/589 587/587/587 588/588/588
f 592/592/592 591/591/591 590/590/590
f 591/591/591 593/593/593 590/590/590
f 593/593/593 591/591/591 594/594/594
f 595/595/595 593/593/593 594/594/594
f 594/594/594 596/596/596 595/595/595
f 595/595/595 596/596/596 597/597/597
f 596/596/596 598/598/598 597/597/597
f 598/598/598 599/599/599 597/597/597
f 602/602/602 601/601/601 600/600/600
f 601/601/601 603/603/603 600/600/600
f 601/601/601 604/604/604 603/603/603
f 604/604/604 605/605/605 603/603/603
f 604/604/604 606/606/606 605/605/605
f 606/606/606 607/607/607 605/605/605
f 607/607/607 606/606/606 608/608/608
f 606/606/606 609/609/609 608/608/608
f 612/612/612 611/611/611 610/610/610
f 613/613/613 611/611/611 612/612/612
f 613/613/613 614/614/614 611/611/611
f 612/612/612 615/615/615 613/613/613
f 613/613/613 615/615/615 616/616/616
f 616/616/616 617/617/617 613/613/613
f 616/616/616 618/618/618 617/617/617
f 616/616/616 619/619/619 618/618/618
f 619/619/619 620/620/620 618/618/618
f 619/619/619 621/621/621 620/620/620
f 624/624/624 623/623/623 622/622/622
f 624/624/624 622/622/622 625/625/625
f 625/625/625 626/626/626 624/624/624
f 625/625/625 627/627/627 626/626/626
f 630/630/630 629/629/629 628/628/628
f 628/628/628 631/631/631 630/630/630
f 630/630/630 631/631/631 632/632/632
f 633/633/633 630/630/630 632/632/632
f 632/632/632 634/634/634 633/633/633
f 637/637/637 636/636/636 635/635/635
f 637/637/637 635/635/635 638/638/638
f 639/639/639 637/637/637 638/638/638
f 639/639/639 638/638/638 640/640/640
f 641/641/641 639/639/639 640/640/640
f 641/641/641 640/640/640 642/642/642
f 643/643/643 641/641/641 642/642/642
f 643/643/643 642/642/642 644/644/644
f 647/647/647 646/646/646 645/645/645
f 648/648/648 647/647/647 645/645/645
