g Lightning Wand
v -1.0703666E-09 0.070996836 0.9799617
v 0.061485063 0.035498418 0.9799617
v 0.061485063 -0.06309182 1.1018515
v -1.0703528E-09 -0.056690767 1.136768
v 0.061485063 0.035498418 0.9799617
v 0.061485063 -0.07589393 1.0320183
v 0.061485063 -0.06309182 1.1018515
v 0.061485063 -0.035498418 0.9799617
v 0.061485063 0.035498418 -0.09486151
v 0.061485063 0.035498418 0.9799617
v 0.061485063 -0.035498418 -0.09486151
v 0.020777147 0.01199569 -1.6734728
v 0.020777147 -0.01199569 -1.6734728
v 0.061485063 -0.035498418 0.9799617
v -1.0703666E-09 -0.070996836 0.9799617
v -1.0703528E-09 -0.08229498 0.99710184
v 0.061485063 -0.07589393 1.0320183
v -1.0703666E-09 -0.070996836 0.9799617
v -0.061485063 -0.035498418 0.9799617
v -0.061485063 -0.07589393 1.0320183
v -1.0703528E-09 -0.08229498 0.99710184
v -1.0703528E-09 -0.056690767 1.136768
v 2.7214784E-07 -0.17933403 1.2128607
v -0.061484788 -0.20777567 1.1916189
v -0.061485063 -0.06309182 1.1018515
v -0.061485063 -0.035498418 0.9799617
v -0.061485063 0.035498418 0.9799617
v -0.061485063 -0.06309182 1.1018515
v -0.061485063 -0.07589393 1.0320183
v -0.061485063 -0.035498418 -0.09486151
v -0.061485063 0.035498418 0.9799617
v -0.061485063 0.035498418 -0.09486151
v -0.020777147 -0.01199569 -1.6734728
v -0.020777147 0.01199569 -1.6734728
v -0.061485063 0.035498418 0.9799617
v -1.0703666E-09 0.070996836 0.9799617
v -1.0703528E-09 -0.056690767 1.136768
v -0.061485063 -0.06309182 1.1018515
v -3.6170023E-10 -0.02399138 -1.6734728
v 0.020777147 -0.01199569 -1.6734728
v 0.020777147 0.01199569 -1.6734728
v -3.6170023E-10 0.02399138 -1.6734728
v -0.020777147 -0.01199569 -1.6734728
v -0.020777147 0.01199569 -1.6734728
v -1.5249463E-09 0.1029225 -0.033146698
v 0.08913351 0.05146125 -0.033146698
v 0.08913351 0.05146125 0.03314663
v -1.5249463E-09 0.1029225 0.03314663
v 0.08913351 0.05146125 -0.033146698
v 0.08913351 -0.05146125 -0.033146698
v 0.08913351 -0.05146125 0.03314663
v 0.08913351 0.05146125 0.03314663
v 0.08913351 -0.05146125 -0.033146698
v -1.5249463E-09 -0.1029225 -0.033146698
v -1.5249463E-09 -0.1029225 0.03314663
v 0.08913351 -0.05146125 0.03314663
v -1.5249463E-09 -0.1029225 -0.033146698
v -0.08913351 -0.05146125 -0.033146698
v -0.08913351 -0.05146125 0.03314663
v -1.5249463E-09 -0.1029225 0.03314663
v -1.5249463E-09 0.1029225 0.03314663
v 0.08913351 0.05146125 0.03314663
v 0.08913351 -0.05146125 0.03314663
v -1.5249463E-09 -0.1029225 0.03314663
v -0.08913351 0.05146125 0.03314663
v -0.08913351 -0.05146125 0.03314663
v -0.08913351 -0.05146125 -0.033146698
v -0.08913351 0.05146125 -0.033146698
v -0.08913351 0.05146125 0.03314663
v -0.08913351 -0.05146125 0.03314663
v -0.08913351 0.05146125 -0.033146698
v -1.5249463E-09 0.1029225 -0.033146698
v -1.5249463E-09 0.1029225 0.03314663
v -0.08913351 0.05146125 0.03314663
v -1.5249463E-09 -0.1029225 -0.033146698
v 0.08913351 -0.05146125 -0.033146698
v 0.08913351 0.05146125 -0.033146698
v -1.5249463E-09 0.1029225 -0.033146698
v -0.08913351 -0.05146125 -0.033146698
v -0.08913351 0.05146125 -0.033146698
v -1.5249463E-09 0.1029225 0.14308675
v 0.08913351 0.05146125 0.14308675
v 0.08913351 0.05146125 0.20938008
v -1.5249463E-09 0.1029225 0.20938008
v 0.08913351 0.05146125 0.14308675
v 0.08913351 -0.05146125 0.14308675
v 0.08913351 -0.05146125 0.20938008
v 0.08913351 0.05146125 0.20938008
v 0.08913351 -0.05146125 0.14308675
v -1.5249463E-09 -0.1029225 0.14308675
v -1.5249463E-09 -0.1029225 0.20938008
v 0.08913351 -0.05146125 0.20938008
v -1.5249463E-09 -0.1029225 0.14308675
v -0.08913351 -0.05146125 0.14308675
v -0.08913351 -0.05146125 0.20938008
v -1.5249463E-09 -0.1029225 0.20938008
v -1.5249463E-09 0.1029225 0.20938008
v 0.08913351 0.05146125 0.20938008
v 0.08913351 -0.05146125 0.20938008
v -1.5249463E-09 -0.1029225 0.20938008
v -0.08913351 0.05146125 0.20938008
v -0.08913351 -0.05146125 0.20938008
v -0.08913351 -0.05146125 0.14308675
v -0.08913351 0.05146125 0.14308675
v -0.08913351 0.05146125 0.20938008
v -0.08913351 -0.05146125 0.20938008
v -0.08913351 0.05146125 0.14308675
v -1.5249463E-09 0.1029225 0.14308675
v -1.5249463E-09 0.1029225 0.20938008
v -0.08913351 0.05146125 0.20938008
v -1.5249463E-09 -0.1029225 0.14308675
v 0.08913351 -0.05146125 0.14308675
v 0.08913351 0.05146125 0.14308675
v -1.5249463E-09 0.1029225 0.14308675
v -0.08913351 -0.05146125 0.14308675
v -0.08913351 0.05146125 0.14308675
v -1.5249463E-09 0.1029225 0.2940731
v 0.08913351 0.05146125 0.2940731
v 0.08913351 0.05146125 0.36036646
v -1.5249463E-09 0.1029225 0.36036646
v 0.08913351 0.05146125 0.2940731
v 0.08913351 -0.05146125 0.2940731
v 0.08913351 -0.05146125 0.36036646
v 0.08913351 0.05146125 0.36036646
v 0.08913351 -0.05146125 0.2940731
v -1.5249463E-09 -0.1029225 0.2940731
v -1.5249463E-09 -0.1029225 0.36036646
v 0.08913351 -0.05146125 0.36036646
v -1.5249463E-09 -0.1029225 0.2940731
v -0.08913351 -0.05146125 0.2940731
v -0.08913351 -0.05146125 0.36036646
v -1.5249463E-09 -0.1029225 0.36036646
v -1.5249463E-09 0.1029225 0.36036646
v 0.08913351 0.05146125 0.36036646
v 0.08913351 -0.05146125 0.36036646
v -1.5249463E-09 -0.1029225 0.36036646
v -0.08913351 0.05146125 0.36036646
v -0.08913351 -0.05146125 0.36036646
v -0.08913351 -0.05146125 0.2940731
v -0.08913351 0.05146125 0.2940731
v -0.08913351 0.05146125 0.36036646
v -0.08913351 -0.05146125 0.36036646
v -0.08913351 0.05146125 0.2940731
v -1.5249463E-09 0.1029225 0.2940731
v -1.5249463E-09 0.1029225 0.36036646
v -0.08913351 0.05146125 0.36036646
v -1.5249463E-09 -0.1029225 0.2940731
v 0.08913351 -0.05146125 0.2940731
v 0.08913351 0.05146125 0.2940731
v -1.5249463E-09 0.1029225 0.2940731
v -0.08913351 -0.05146125 0.2940731
v -0.08913351 0.05146125 0.2940731
v -1.5249463E-09 0.1029225 0.44678316
v 0.08913351 0.05146125 0.44678316
v 0.08913351 0.05146125 0.5130765
v -1.5249463E-09 0.1029225 0.5130765
v 0.08913351 0.05146125 0.44678316
v 0.08913351 -0.05146125 0.44678316
v 0.08913351 -0.05146125 0.5130765
v 0.08913351 0.05146125 0.5130765
v 0.08913351 -0.05146125 0.44678316
v -1.5249463E-09 -0.1029225 0.44678316
v -1.5249463E-09 -0.1029225 0.5130765
v 0.08913351 -0.05146125 0.5130765
v -1.5249463E-09 -0.1029225 0.44678316
v -0.08913351 -0.05146125 0.44678316
v -0.08913351 -0.05146125 0.5130765
v -1.5249463E-09 -0.1029225 0.5130765
v -1.5249463E-09 0.1029225 0.5130765
v 0.08913351 0.05146125 0.5130765
v 0.08913351 -0.05146125 0.5130765
v -1.5249463E-09 -0.1029225 0.5130765
v -0.08913351 0.05146125 0.5130765
v -0.08913351 -0.05146125 0.5130765
v -0.08913351 -0.05146125 0.44678316
v -0.08913351 0.05146125 0.44678316
v -0.08913351 0.05146125 0.5130765
v -0.08913351 -0.05146125 0.5130765
v -0.08913351 0.05146125 0.44678316
v -1.5249463E-09 0.1029225 0.44678316
v -1.5249463E-09 0.1029225 0.5130765
v -0.08913351 0.05146125 0.5130765
v -1.5249463E-09 -0.1029225 0.44678316
v 0.08913351 -0.05146125 0.44678316
v 0.08913351 0.05146125 0.44678316
v -1.5249463E-09 0.1029225 0.44678316
v -0.08913351 -0.05146125 0.44678316
v -0.08913351 0.05146125 0.44678316
v -0.061485063 -0.07589393 1.0320183
v -0.061484788 -0.2646587 1.1491352
v 2.7214784E-07 -0.29310033 1.1278934
v -1.0703528E-09 -0.08229498 0.99710184
v 0.061485063 -0.07589393 1.0320183
v 0.061485335 -0.20777567 1.1916189
v 0.061485063 -0.06309182 1.1018515
v 0.061485335 -0.2646587 1.1491352
v 0.061485607 -0.2527789 1.3558332
v 0.061485607 -0.32337338 1.3633807
v 0.061485883 -0.17407471 1.5068206
v 0.061485883 -0.22069046 1.5603698
v -0.061485063 -0.06309182 1.1018515
v -0.061484788 -0.2646587 1.1491352
v -0.061485063 -0.07589393 1.0320183
v -0.061484788 -0.20777567 1.1916189
v -0.061484516 -0.32337338 1.3633807
v -0.061484516 -0.2527789 1.3558332
v -0.061484244 -0.22069046 1.5603698
v -0.061484244 -0.17407471 1.5068206
v 0.061485063 -0.06309182 1.1018515
v 0.061485335 -0.20777567 1.1916189
v 2.7214784E-07 -0.17933403 1.2128607
v -1.0703528E-09 -0.056690767 1.136768
v -1.0703528E-09 -0.08229498 0.99710184
v 2.7214784E-07 -0.29310033 1.1278934
v 0.061485335 -0.2646587 1.1491352
v 0.061485063 -0.07589393 1.0320183
v -0.061484516 -0.32337338 1.3633807
v -0.061484244 -0.22069046 1.5603698
v 8.185843E-07 -0.24399842 1.5871445
v 5.4536605E-07 -0.35867068 1.3671545
v 2.7214784E-07 -0.29310033 1.1278934
v 5.4536605E-07 -0.35867068 1.3671545
v 0.061485607 -0.32337338 1.3633807
v 0.061485335 -0.2646587 1.1491352
v 0.061485335 -0.20777567 1.1916189
v 0.061485607 -0.2527789 1.3558332
v 5.4536605E-07 -0.2174817 1.3520592
v 2.7214784E-07 -0.17933403 1.2128607
v 2.7214784E-07 -0.17933403 1.2128607
v 5.4536605E-07 -0.2174817 1.3520592
v -0.061484516 -0.2527789 1.3558332
v -0.061484788 -0.20777567 1.1916189
v -0.061484788 -0.2646587 1.1491352
v -0.061484516 -0.32337338 1.3633807
v 5.4536605E-07 -0.35867068 1.3671545
v 2.7214784E-07 -0.29310033 1.1278934
v 8.185843E-07 -0.24399842 1.5871445
v 1.0919748E-06 -0.010668796 1.6589872
v 0.0515873 -0.011613073 1.6292186
v 0.061485883 -0.22069046 1.5603698
v 5.4536605E-07 -0.35867068 1.3671545
v 8.185843E-07 -0.24399842 1.5871445
v 0.061485883 -0.22069046 1.5603698
v 0.061485607 -0.32337338 1.3633807
v 0.061485607 -0.2527789 1.3558332
v 0.061485883 -0.17407471 1.5068206
v 8.185843E-07 -0.15076697 1.480046
v 5.4536605E-07 -0.2174817 1.3520592
v 5.4536605E-07 -0.2174817 1.3520592
v 8.185843E-07 -0.15076697 1.480046
v -0.061484244 -0.17407471 1.5068206
v -0.061484516 -0.2527789 1.3558332
v 0.061485883 -0.17407471 1.5068206
v 0.0515873 -0.013501659 1.569682
v 1.0919748E-06 -0.014446004 1.5399138
v 8.185843E-07 -0.15076697 1.480046
v 8.185843E-07 -0.15076697 1.480046
v 1.0919748E-06 -0.014446004 1.5399138
v -0.051585115 -0.013501659 1.569682
v -0.061484244 -0.17407471 1.5068206
v -0.061484244 -0.22069046 1.5603698
v -0.051585115 -0.011613073 1.6292186
v 1.0919748E-06 -0.010668796 1.6589872
v 8.185843E-07 -0.24399842 1.5871445
v 0.061485883 -0.22069046 1.5603698
v 0.0515873 -0.013501659 1.569682
v 0.061485883 -0.17407471 1.5068206
v 0.0515873 -0.011613073 1.6292186
v 0.04053797 0.15126744 1.5053695
v 0.04053797 0.18417655 1.5386553
v 0.02866062 0.23067407 1.3419126
v 0.02866062 0.26373586 1.3433381
v -0.061484244 -0.17407471 1.5068206
v -0.051585115 -0.011613073 1.6292186
v -0.061484244 -0.22069046 1.5603698
v -0.051585115 -0.013501659 1.569682
v -0.040535238 0.18417655 1.5386553
v -0.040535238 0.15126744 1.5053695
v -0.028657341 0.26373586 1.3433381
v -0.028657341 0.23067407 1.3419126
v 0.04053797 0.15126744 1.5053695
v 0.02866062 0.23067407 1.3419126
v 1.6385786E-06 0.21414323 1.3412
v 1.3652634E-06 0.13481289 1.4887267
v 1.0919748E-06 -0.010668796 1.6589872
v 1.3652634E-06 0.20063122 1.5552983
v 0.04053797 0.18417655 1.5386553
v 0.0515873 -0.011613073 1.6292186
v 0.0515873 -0.013501659 1.569682
v 0.04053797 0.15126744 1.5053695
v 1.3652634E-06 0.13481289 1.4887267
v 1.0919748E-06 -0.014446004 1.5399138
v 1.0919748E-06 -0.014446004 1.5399138
v 1.3652634E-06 0.13481289 1.4887267
v -0.040535238 0.15126744 1.5053695
v -0.051585115 -0.013501659 1.569682
v -0.051585115 -0.011613073 1.6292186
v -0.040535238 0.18417655 1.5386553
v 1.3652634E-06 0.20063122 1.5552983
v 1.0919748E-06 -0.010668796 1.6589872
v -0.028657341 0.23067407 1.3419126
v -0.013078927 0.17770366 1.1619567
v -0.013078927 0.1892083 1.1521696
v -0.028657341 0.26373586 1.3433381
v 1.3652634E-06 0.13481289 1.4887267
v 1.6385786E-06 0.21414323 1.3412
v -0.028657341 0.23067407 1.3419126
v -0.040535238 0.15126744 1.5053695
v -0.040535238 0.18417655 1.5386553
v -0.028657341 0.26373586 1.3433381
v 1.6385786E-06 0.2802669 1.344051
v 1.3652634E-06 0.20063122 1.5552983
v 1.3652634E-06 0.20063122 1.5552983
v 1.6385786E-06 0.2802669 1.344051
v 0.02866062 0.26373586 1.3433381
v 0.04053797 0.18417655 1.5386553
v 1.9123E-06 0.1719514 1.1668503
v 0.013082751 0.17770366 1.1619567
v 0.013082751 0.1892083 1.1521696
v 1.9123E-06 0.19496061 1.147276
v -0.013078927 0.17770366 1.1619567
v -0.013078927 0.1892083 1.1521696
v 1.6385786E-06 0.2802669 1.344051
v 1.9123E-06 0.19496061 1.147276
v 0.013082751 0.1892083 1.1521696
v 0.02866062 0.26373586 1.3433381
v 0.02866062 0.23067407 1.3419126
v 0.013082751 0.17770366 1.1619567
v 1.9123E-06 0.1719514 1.1668503
v 1.6385786E-06 0.21414323 1.3412
v 1.6385786E-06 0.21414323 1.3412
v 1.9123E-06 0.1719514 1.1668503
v -0.013078927 0.17770366 1.1619567
v -0.028657341 0.23067407 1.3419126
v -0.028657341 0.26373586 1.3433381
v -0.013078927 0.1892083 1.1521696
v 1.9123E-06 0.19496061 1.147276
v 1.6385786E-06 0.2802669 1.344051
v 0.02866062 0.26373586 1.3433381
v 0.013082751 0.1892083 1.1521696
v 0.013082751 0.17770366 1.1619567
v 0.02866062 0.23067407 1.3419126
v -0.061485063 0.035498418 -0.09486151
v -1.0703666E-09 0.070996836 0.9799617
v -0.061485063 0.035498418 0.9799617
v -1.0703666E-09 0.070996836 -0.09486139
v -0.020777147 0.01199569 -1.6734728
v -3.6170023E-10 0.02399138 -1.6734728
v -1.0703666E-09 -0.070996836 -0.09486151
v -0.061485063 -0.035498418 0.9799617
v -1.0703666E-09 -0.070996836 0.9799617
v -0.061485063 -0.035498418 -0.09486151
v -3.6170023E-10 -0.02399138 -1.6734728
v -0.020777147 -0.01199569 -1.6734728
v 0.061485063 -0.035498418 -0.09486151
v -1.0703666E-09 -0.070996836 0.9799617
v 0.061485063 -0.035498418 0.9799617
v -1.0703666E-09 -0.070996836 -0.09486151
v 0.020777147 -0.01199569 -1.6734728
v -3.6170023E-10 -0.02399138 -1.6734728
v -1.0703666E-09 0.070996836 -0.09486139
v 0.061485063 0.035498418 0.9799617
v -1.0703666E-09 0.070996836 0.9799617
v 0.061485063 0.035498418 -0.09486151
v -3.6170023E-10 0.02399138 -1.6734728
v 0.020777147 0.01199569 -1.6734728
vt 1 0.97962075
vt 0.83333325 0.9796207
vt 0.8333333 1
vt 1 1
vt 0.83333325 0.9796207
vt 0.6666666 1
vt 0.8333333 1
vt 0.6666666 0.9796207
vt 0.8333333 0.5474787
vt 0.83333325 0.9796207
vt 0.6666666 0.5474787
vt 0.8333333 0.5
vt 0.6666666 0.5
vt 0.6666666 0.9796207
vt 0.49999994 0.9796207
vt 0.49999994 1
vt 0.6666666 1
vt 0.49999994 0.9796207
vt 0.33333325 0.9796207
vt 0.33333325 1
vt 0.49999994 1
vt -8.940697E-08 1
vt -8.940697E-08 1
vt 0.16666658 1
vt 0.16666658 1
vt 0.33333325 0.9796207
vt 0.16666658 0.9796207
vt 0.16666658 1
vt 0.33333325 1
vt 0.33333325 0.5474787
vt 0.16666658 0.9796207
vt 0.16666657 0.5474787
vt 0.33333325 0.5
vt 0.16666658 0.5
vt 0.16666658 0.9796207
vt -8.940697E-08 0.9796207
vt -8.940697E-08 1
vt 0.16666658 1
vt 0.75 0.010000005
vt 0.9578461 0.13
vt 0.9578461 0.37
vt 0.75 0.49
vt 0.5421539 0.13
vt 0.5421539 0.37
vt 1 0.5
vt 0.8333333 0.5
vt 0.8333333 1
vt 1 1
vt 0.8333333 0.5
vt 0.6666666 0.5
vt 0.6666666 1
vt 0.8333333 1
vt 0.6666666 0.5
vt 0.49999994 0.5
vt 0.49999994 1
vt 0.6666666 1
vt 0.49999994 0.5
vt 0.33333325 0.5
vt 0.33333325 1
vt 0.49999994 1
vt 0.25 0.49
vt 0.4578461 0.37
vt 0.4578461 0.13
vt 0.25 0.010000005
vt 0.04215391 0.37
vt 0.04215391 0.13
vt 0.33333325 0.5
vt 0.16666658 0.5
vt 0.16666658 1
vt 0.33333325 1
vt 0.16666658 0.5
vt -8.940697E-08 0.5
vt -8.940697E-08 1
vt 0.16666658 1
vt 0.75 0.010000005
vt 0.9578461 0.13
vt 0.9578461 0.37
vt 0.75 0.49
vt 0.5421539 0.13
vt 0.5421539 0.37
vt 1 0.5
vt 0.8333333 0.5
vt 0.8333333 1
vt 1 1
vt 0.8333333 0.5
vt 0.6666666 0.5
vt 0.6666666 1
vt 0.8333333 1
vt 0.6666666 0.5
vt 0.49999994 0.5
vt 0.49999994 1
vt 0.6666666 1
vt 0.49999994 0.5
vt 0.33333325 0.5
vt 0.33333325 1
vt 0.49999994 1
vt 0.25 0.49
vt 0.4578461 0.37
vt 0.4578461 0.13
vt 0.25 0.010000005
vt 0.04215391 0.37
vt 0.04215391 0.13
vt 0.33333325 0.5
vt 0.16666658 0.5
vt 0.16666658 1
vt 0.33333325 1
vt 0.16666658 0.5
vt -8.940697E-08 0.5
vt -8.940697E-08 1
vt 0.16666658 1
vt 0.75 0.010000005
vt 0.9578461 0.13
vt 0.9578461 0.37
vt 0.75 0.49
vt 0.5421539 0.13
vt 0.5421539 0.37
vt 1 0.5
vt 0.8333333 0.5
vt 0.8333333 1
vt 1 1
vt 0.8333333 0.5
vt 0.6666666 0.5
vt 0.6666666 1
vt 0.8333333 1
vt 0.6666666 0.5
vt 0.49999994 0.5
vt 0.49999994 1
vt 0.6666666 1
vt 0.49999994 0.5
vt 0.33333325 0.5
vt 0.33333325 1
vt 0.49999994 1
vt 0.25 0.49
vt 0.4578461 0.37
vt 0.4578461 0.13
vt 0.25 0.010000005
vt 0.04215391 0.37
vt 0.04215391 0.13
vt 0.33333325 0.5
vt 0.16666658 0.5
vt 0.16666658 1
vt 0.33333325 1
vt 0.16666658 0.5
vt -8.940697E-08 0.5
vt -8.940697E-08 1
vt 0.16666658 1
vt 0.75 0.010000005
vt 0.9578461 0.13
vt 0.9578461 0.37
vt 0.75 0.49
vt 0.5421539 0.13
vt 0.5421539 0.37
vt 1 0.5
vt 0.8333333 0.5
vt 0.8333333 1
vt 1 1
vt 0.8333333 0.5
vt 0.6666666 0.5
vt 0.6666666 1
vt 0.8333333 1
vt 0.6666666 0.5
vt 0.49999994 0.5
vt 0.49999994 1
vt 0.6666666 1
vt 0.49999994 0.5
vt 0.33333325 0.5
vt 0.33333325 1
vt 0.49999994 1
vt 0.25 0.49
vt 0.4578461 0.37
vt 0.4578461 0.13
vt 0.25 0.010000005
vt 0.04215391 0.37
vt 0.04215391 0.13
vt 0.33333325 0.5
vt 0.16666658 0.5
vt 0.16666658 1
vt 0.33333325 1
vt 0.16666658 0.5
vt -8.940697E-08 0.5
vt -8.940697E-08 1
vt 0.16666658 1
vt 0.75 0.010000005
vt 0.9578461 0.13
vt 0.9578461 0.37
vt 0.75 0.49
vt 0.5421539 0.13
vt 0.5421539 0.37
vt 0.33333325 1
vt 0.33333325 1
vt 0.49999994 1
vt 0.49999994 1
vt 0.6666666 1
vt 0.8333333 1
vt 0.8333333 1
vt 0.6666666 1
vt 0.8333333 1
vt 0.6666666 1
vt 0.8333333 1
vt 0.6666666 1
vt 0.16666658 1
vt 0.33333325 1
vt 0.33333325 1
vt 0.16666658 1
vt 0.33333325 1
vt 0.16666658 1
vt 0.33333325 1
vt 0.16666658 1
vt 0.8333333 1
vt 0.8333333 1
vt 1 1
vt 1 1
vt 0.49999994 1
vt 0.49999994 1
vt 0.6666666 1
vt 0.6666666 1
vt 0.33333325 1
vt 0.33333325 1
vt 0.49999994 1
vt 0.49999994 1
vt 0.49999994 1
vt 0.49999994 1
vt 0.6666666 1
vt 0.6666666 1
vt 0.8333333 1
vt 0.8333333 1
vt 1 1
vt 1 1
vt -8.940697E-08 1
vt -8.940697E-08 1
vt 0.16666658 1
vt 0.16666658 1
vt 0.33333325 1
vt 0.33333325 1
vt 0.49999994 1
vt 0.49999994 1
vt 0.49999994 1
vt 0.49999994 1
vt 0.6666666 1
vt 0.6666666 1
vt 0.49999994 1
vt 0.49999994 1
vt 0.6666666 1
vt 0.6666666 1
vt 0.8333333 1
vt 0.8333333 1
vt 1 1
vt 1 1
vt -8.940697E-08 1
vt -8.940697E-08 1
vt 0.16666658 1
vt 0.16666658 1
vt 0.8333333 1
vt 0.8333333 1
vt 1 1
vt 1 1
vt -8.940697E-08 1
vt -8.940697E-08 1
vt 0.16666658 1
vt 0.16666658 1
vt 0.33333325 1
vt 0.33333325 1
vt 0.49999994 1
vt 0.49999994 1
vt 0.6666666 1
vt 0.8333333 1
vt 0.8333333 1
vt 0.6666666 1
vt 0.8333333 1
vt 0.6666666 1
vt 0.8333333 1
vt 0.6666666 1
vt 0.16666658 1
vt 0.33333325 1
vt 0.33333325 1
vt 0.16666658 1
vt 0.33333325 1
vt 0.16666658 1
vt 0.33333325 1
vt 0.16666658 1
vt 0.8333333 1
vt 0.8333333 1
vt 1 1
vt 1 1
vt 0.49999994 1
vt 0.49999994 1
vt 0.6666666 1
vt 0.6666666 1
vt 0.8333333 1
vt 0.8333333 1
vt 1 1
vt 1 1
vt -8.940697E-08 1
vt -8.940697E-08 1
vt 0.16666658 1
vt 0.16666658 1
vt 0.33333325 1
vt 0.33333325 1
vt 0.49999994 1
vt 0.49999994 1
vt 0.16666658 1
vt 0.16666658 1
vt 0.33333325 1
vt 0.33333325 1
vt -8.940697E-08 1
vt -8.940697E-08 1
vt 0.16666658 1
vt 0.16666658 1
vt 0.33333325 1
vt 0.33333325 1
vt 0.49999994 1
vt 0.49999994 1
vt 0.49999994 1
vt 0.49999994 1
vt 0.6666666 1
vt 0.6666666 1
vt 0.25 0.49
vt 0.4578461 0.37
vt 0.4578461 0.13
vt 0.25 0.010000005
vt 0.04215391 0.37
vt 0.04215391 0.13
vt 0.49999994 1
vt 0.49999994 1
vt 0.6666666 1
vt 0.6666666 1
vt 0.8333333 1
vt 0.8333333 1
vt 1 1
vt 1 1
vt -8.940697E-08 1
vt -8.940697E-08 1
vt 0.16666658 1
vt 0.16666658 1
vt 0.33333325 1
vt 0.33333325 1
vt 0.49999994 1
vt 0.49999994 1
vt 0.6666666 1
vt 0.6666666 1
vt 0.8333333 1
vt 0.8333333 1
vt 0.16666657 0.5474787
vt -8.940697E-08 0.9796207
vt 0.16666658 0.9796207
vt -8.940697E-08 0.54747874
vt 0.16666658 0.5
vt -8.940697E-08 0.5
vt 0.49999994 0.5474787
vt 0.33333325 0.9796207
vt 0.49999994 0.9796207
vt 0.33333325 0.5474787
vt 0.49999994 0.5
vt 0.33333325 0.5
vt 0.6666666 0.5474787
vt 0.49999994 0.9796207
vt 0.6666666 0.9796207
vt 0.49999994 0.5474787
vt 0.6666666 0.5
vt 0.49999994 0.5
vt 1 0.54747874
vt 0.83333325 0.9796207
vt 1 0.97962075
vt 0.8333333 0.5474787
vt 1 0.5
vt 0.8333333 0.5
vn 0.40541428 0.7096742 0.5761959
vn 0.40541428 0.7096742 0.5761959
vn 0.40541428 0.7096742 0.5761959
vn 0.40541428 0.7096742 0.5761959
vn 1 0 0
vn 1 0 0
vn 1 0 0
vn 1 0 0
vn 1 0 0
vn 1 0 0
vn 1 0 0
vn 0.99966764 0 -0.0257786
vn 0.99966764 0 -0.0257786
vn 0.4049627 -0.7325014 -0.5472174
vn 0.4049627 -0.7325014 -0.5472174
vn 0.4049627 -0.7325014 -0.5472174
vn 0.4049627 -0.7325014 -0.5472174
vn -0.4049627 -0.7325014 -0.5472174
vn -0.4049627 -0.7325014 -0.5472174
vn -0.4049627 -0.7325014 -0.5472174
vn -0.4049627 -0.7325014 -0.5472174
vn -0.47340354 0.4643892 0.74848634
vn -0.47340354 0.4643892 0.74848634
vn -0.47340354 0.4643892 0.74848634
vn -0.47340354 0.4643892 0.74848634
vn -1 0 0
vn -1 0 0
vn -1 0 0
vn -1 0 0
vn -1 0 0
vn -1 0 0
vn -1 0 0
vn -0.99966764 0 -0.0257786
vn -0.99966764 0 -0.0257786
vn -0.40541434 0.7096742 0.57619596
vn -0.40541434 0.7096742 0.57619596
vn -0.40541434 0.7096742 0.57619596
vn -0.40541434 0.7096742 0.57619596
vn -0 0 -1
vn -0 0 -1
vn -0 0 -1
vn -0 0 -1
vn -0 0 -1
vn -0 0 -1
vn 0.49999997 0.86602545 0
vn 0.49999997 0.86602545 0
vn 0.49999997 0.86602545 0
vn 0.49999997 0.86602545 0
vn 1 0 0
vn 1 0 0
vn 1 0 0
vn 1 0 0
vn 0.49999997 -0.86602545 0
vn 0.49999997 -0.86602545 0
vn 0.49999997 -0.86602545 0
vn 0.49999997 -0.86602545 0
vn -0.49999997 -0.86602545 0
vn -0.49999997 -0.86602545 0
vn -0.49999997 -0.86602545 0
vn -0.49999997 -0.86602545 0
vn -0 0 1
vn -0 0 1
vn -0 0 1
vn -0 0 1
vn -0 0 1
vn -0 0 1
vn -1 0 0
vn -1 0 0
vn -1 0 0
vn -1 0 0
vn -0.49999997 0.86602545 0
vn -0.49999997 0.86602545 0
vn -0.49999997 0.86602545 0
vn -0.49999997 0.86602545 0
vn -0 0 -1
vn -0 0 -1
vn -0 0 -1
vn -0 0 -1
vn -0 0 -1
vn -0 0 -1
vn 0.5 0.86602545 0
vn 0.5 0.86602545 0
vn 0.5 0.86602545 0
vn 0.5 0.86602545 0
vn 1 0 0
vn 1 0 0
vn 1 0 0
vn 1 0 0
vn 0.5 -0.86602545 0
vn 0.5 -0.86602545 0
vn 0.5 -0.86602545 0
vn 0.5 -0.86602545 0
vn -0.5 -0.86602545 0
vn -0.5 -0.86602545 0
vn -0.5 -0.86602545 0
vn -0.5 -0.86602545 0
vn -0 0 1
vn -0 0 1
vn -0 0 1
vn -0 0 1
vn -0 0 1
vn -0 0 1
vn -1 0 0
vn -1 0 0
vn -1 0 0
vn -1 0 0
vn -0.5 0.86602545 0
vn -0.5 0.86602545 0
vn -0.5 0.86602545 0
vn -0.5 0.86602545 0
vn -0 0 -1
vn -0 0 -1
vn -0 0 -1
vn -0 0 -1
vn -0 0 -1
vn -0 0 -1
vn 0.4999999 0.86602545 0
vn 0.4999999 0.86602545 0
vn 0.4999999 0.86602545 0
vn 0.4999999 0.86602545 0
vn 1 0 0
vn 1 0 0
vn 1 0 0
vn 1 0 0
vn 0.4999999 -0.86602545 0
vn 0.4999999 -0.86602545 0
vn 0.4999999 -0.86602545 0
vn 0.4999999 -0.86602545 0
vn -0.4999999 -0.86602545 0
vn -0.4999999 -0.86602545 0
vn -0.4999999 -0.86602545 0
vn -0.4999999 -0.86602545 0
vn -0 0 1
vn -0 0 1
vn -0 0 1
vn -0 0 1
vn -0 0 1
vn -0 0 1
vn -1 0 0
vn -1 0 0
vn -1 0 0
vn -1 0 0
vn -0.4999999 0.86602545 0
vn -0.4999999 0.86602545 0
vn -0.4999999 0.86602545 0
vn -0.4999999 0.86602545 0
vn -0 0 -1
vn -0 0 -1
vn -0 0 -1
vn -0 0 -1
vn -0 0 -1
vn -0 0 -1
vn 0.50000006 0.8660253 0
vn 0.50000006 0.8660253 0
vn 0.50000006 0.8660253 0
vn 0.50000006 0.8660253 0
vn 1 0 0
vn 1 0 0
vn 1 0 0
vn 1 0 0
vn 0.50000006 -0.8660253 0
vn 0.50000006 -0.8660253 0
vn 0.50000006 -0.8660253 0
vn 0.50000006 -0.8660253 0
vn -0.50000006 -0.8660253 0
vn -0.50000006 -0.8660253 0
vn -0.50000006 -0.8660253 0
vn -0.50000006 -0.8660253 0
vn -0 0 1
vn -0 0 1
vn -0 0 1
vn -0 0 1
vn -0 0 1
vn -0 0 1
vn -1 0 0
vn -1 0 0
vn -1 0 0
vn -1 0 0
vn -0.50000006 0.8660253 0
vn -0.50000006 0.8660253 0
vn -0.50000006 0.8660253 0
vn -0.50000006 0.8660253 0
vn -0 0 -1
vn -0 0 -1
vn -0 0 -1
vn -0 0 -1
vn -0 0 -1
vn -0 0 -1
vn -0.47340092 -0.46439055 -0.7484872
vn -0.47340092 -0.46439055 -0.7484872
vn -0.47340092 -0.46439055 -0.7484872
vn -0.47340092 -0.46439055 -0.7484872
vn 1 0 0
vn 1 0 0
vn 1 0 0
vn 1 0 0
vn 1 0 0
vn 1 0 0
vn 1 0 0
vn 1 0 0
vn -1 0 0
vn -1 0 0
vn -1 0 0
vn -1 0 0
vn -1 0 0
vn -1 0 0
vn -1 0 0
vn -1 0 0
vn 0.4734035 0.46439064 0.74848545
vn 0.4734035 0.46439064 0.74848545
vn 0.4734035 0.46439064 0.74848545
vn 0.4734035 0.46439064 0.74848545
vn 0.4734009 -0.46438968 -0.7484877
vn 0.4734009 -0.46438968 -0.7484877
vn 0.4734009 -0.46438968 -0.7484877
vn 0.4734009 -0.46438968 -0.7484877
vn -0.47340304 -0.7810975 0.4071564
vn -0.47340304 -0.7810975 0.4071564
vn -0.47340304 -0.7810975 0.4071564
vn -0.47340304 -0.7810975 0.4071564
vn 0.47340304 -0.8495215 -0.23281494
vn 0.47340304 -0.8495215 -0.23281494
vn 0.47340304 -0.8495215 -0.23281494
vn 0.47340304 -0.8495215 -0.23281494
vn 0.4734025 0.8495225 0.23281257
vn 0.4734025 0.8495225 0.23281257
vn 0.4734025 0.8495225 0.23281257
vn 0.4734025 0.8495225 0.23281257
vn -0.4734022 0.8495221 0.23281409
vn -0.4734022 0.8495221 0.23281409
vn -0.4734022 0.8495221 0.23281409
vn -0.4734022 0.8495221 0.23281409
vn -0.47340286 -0.8495219 -0.23281375
vn -0.47340286 -0.8495219 -0.23281375
vn -0.47340286 -0.8495219 -0.23281375
vn -0.47340286 -0.8495219 -0.23281375
vn 0.47243854 -0.2574874 0.84291285
vn 0.47243854 -0.2574874 0.84291285
vn 0.47243854 -0.2574874 0.84291285
vn 0.47243854 -0.2574874 0.84291285
vn 0.473403 -0.7810979 0.4071556
vn 0.473403 -0.7810979 0.4071556
vn 0.473403 -0.7810979 0.4071556
vn 0.473403 -0.7810979 0.4071556
vn 0.4734014 0.7810975 -0.4071582
vn 0.4734014 0.7810975 -0.4071582
vn 0.4734014 0.7810975 -0.4071582
vn 0.4734014 0.7810975 -0.4071582
vn -0.4734009 0.7810985 -0.40715683
vn -0.4734009 0.7810985 -0.40715683
vn -0.4734009 0.7810985 -0.40715683
vn -0.4734009 0.7810985 -0.40715683
vn 0.47343057 0.34993243 -0.80833817
vn 0.47343057 0.34993243 -0.80833817
vn 0.47343057 0.34993243 -0.80833817
vn 0.47343057 0.34993243 -0.80833817
vn -0.4734306 0.3499339 -0.8083376
vn -0.4734306 0.3499339 -0.8083376
vn -0.4734306 0.3499339 -0.8083376
vn -0.4734306 0.3499339 -0.8083376
vn -0.47243854 -0.2574863 0.8429132
vn -0.47243854 -0.2574863 0.8429132
vn -0.47243854 -0.2574863 0.8429132
vn -0.47243854 -0.2574863 0.8429132
vn 0.99872833 0.046881527 0.018542355
vn 0.99841464 0.052705716 -0.019758578
vn 0.99872833 0.046881527 0.018542355
vn 0.99841464 0.052705716 -0.019758578
vn 0.99841464 0.052705716 -0.019758578
vn 0.99841464 0.052705716 -0.019758578
vn 0.9981646 0.028199282 -0.053594615
vn 0.9981646 0.028199282 -0.053594615
vn -0.9987282 0.046884075 0.01854336
vn -0.9987282 0.046884075 0.01854336
vn -0.9987282 0.046884075 0.01854336
vn -0.9987282 0.046884075 0.01854336
vn -0.9984144 0.05270831 -0.019759549
vn -0.9984144 0.05270831 -0.019759549
vn -0.99816436 0.028200643 -0.05359714
vn -0.99816436 0.028200643 -0.05359714
vn 0.47422653 -0.7766903 -0.41456154
vn 0.47422653 -0.7766903 -0.41456154
vn 0.47422653 -0.7766903 -0.41456154
vn 0.47422653 -0.7766903 -0.41456154
vn 0.47198513 0.39007115 0.7906166
vn 0.47198513 0.39007115 0.7906166
vn 0.47198513 0.39007115 0.7906166
vn 0.47198513 0.39007115 0.7906166
vn 0.47370118 -0.28927657 -0.831821
vn 0.47370118 -0.28927657 -0.831821
vn 0.47370118 -0.28927657 -0.831821
vn 0.47370118 -0.28927657 -0.831821
vn -0.4737012 -0.2892751 -0.8318215
vn -0.4737012 -0.2892751 -0.8318215
vn -0.4737012 -0.2892751 -0.8318215
vn -0.4737012 -0.2892751 -0.8318215
vn -0.4719851 0.39007223 0.79061604
vn -0.4719851 0.39007223 0.79061604
vn -0.4719851 0.39007223 0.79061604
vn -0.4719851 0.39007223 0.79061604
vn -0.99679583 -0.014750057 -0.0786161
vn -0.99679583 -0.014750057 -0.0786161
vn -0.99679583 -0.014750057 -0.0786161
vn -0.99679583 -0.014750057 -0.0786161
vn -0.47422653 -0.7766896 -0.41456297
vn -0.47422653 -0.7766896 -0.41456297
vn -0.47422653 -0.7766896 -0.41456297
vn -0.47422653 -0.7766896 -0.41456297
vn -0.47133064 0.8258323 0.3095939
vn -0.47133064 0.8258323 0.3095939
vn -0.47133064 0.8258323 0.3095939
vn -0.47133064 0.8258323 0.3095939
vn 0.47133076 0.8258319 0.3095949
vn 0.47133076 0.8258319 0.3095949
vn 0.47133076 0.8258319 0.3095949
vn 0.47133076 0.8258319 0.3095949
vn -0 -0.64796335 -0.7616715
vn -0 -0.64796335 -0.7616715
vn -0 -0.64796335 -0.7616715
vn -0 -0.64796335 -0.7616715
vn -0 -0.64796335 -0.7616715
vn -0 -0.64796335 -0.7616715
vn 0.46793798 0.81035024 -0.35265633
vn 0.46793798 0.81035024 -0.35265633
vn 0.46793798 0.81035024 -0.35265633
vn 0.46793798 0.81035024 -0.35265633
vn 0.47677132 -0.85396564 0.20840293
vn 0.47677132 -0.85396564 0.20840293
vn 0.47677132 -0.85396564 0.20840293
vn 0.47677132 -0.85396564 0.20840293
vn -0.47677204 -0.8539656 0.20840147
vn -0.47677204 -0.8539656 0.20840147
vn -0.47677204 -0.8539656 0.20840147
vn -0.47677204 -0.8539656 0.20840147
vn -0.4679379 0.81034976 -0.3526576
vn -0.4679379 0.81034976 -0.3526576
vn -0.4679379 0.81034976 -0.3526576
vn -0.4679379 0.81034976 -0.3526576
vn 0.9967961 -0.01474956 -0.07861345
vn 0.9967961 -0.01474956 -0.07861345
vn 0.9967961 -0.01474956 -0.07861345
vn 0.9967961 -0.01474956 -0.07861345
vn -0.5 0.86602545 0
vn -0.5 0.86602545 0
vn -0.5 0.86602545 0
vn -0.5 0.86602545 0
vn -0.4998338 0.8657376 -0.0257786
vn -0.4998338 0.8657376 -0.0257786
vn -0.5 -0.86602545 0
vn -0.5 -0.86602545 0
vn -0.5 -0.86602545 0
vn -0.5 -0.86602545 0
vn -0.4998338 -0.8657376 -0.0257786
vn -0.4998338 -0.8657376 -0.0257786
vn 0.5 -0.86602545 0
vn 0.5 -0.86602545 0
vn 0.5 -0.86602545 0
vn 0.5 -0.86602545 0
vn 0.4998338 -0.8657376 -0.0257786
vn 0.4998338 -0.8657376 -0.0257786
vn 0.5 0.86602545 0
vn 0.5 0.86602545 0
vn 0.5 0.86602545 0
vn 0.5 0.86602545 0
vn 0.49983373 0.8657376 -0.025778597
vn 0.49983373 0.8657376 -0.025778597
g Lightning Wand_0
f 3/3/3 2/2/2 1/1/1
f 4/4/4 3/3/3 1/1/1
f 7/7/7 6/6/6 5/5/5
f 6/6/6 8/8/8 5/5/5
f 10/10/10 8/8/8 9/9/9
f 8/8/8 11/11/11 9/9/9
f 9/9/9 11/11/11 12/12/12
f 11/11/11 13/13/13 12/12/12
f 16/16/16 15/15/15 14/14/14
f 17/17/17 16/16/16 14/14/14
f 20/20/20 19/19/19 18/18/18
f 21/21/21 20/20/20 18/18/18
f 24/24/24 23/23/23 22/22/22
f 25/25/25 24/24/24 22/22/22
f 28/28/28 27/27/27 26/26/26
f 29/29/29 28/28/28 26/26/26
f 26/26/26 31/31/31 30/30/30
f 31/31/31 32/32/32 30/30/30
f 30/30/30 32/32/32 33/33/33
f 32/32/32 34/34/34 33/33/33
f 37/37/37 36/36/36 35/35/35
f 38/38/38 37/37/37 35/35/35
f 41/41/41 40/40/40 39/39/39
f 39/39/39 42/42/42 41/41/41
f 39/39/39 43/43/43 42/42/42
f 43/43/43 44/44/44 42/42/42
f 47/47/47 46/46/46 45/45/45
f 48/48/48 47/47/47 45/45/45
f 51/51/51 50/50/50 49/49/49
f 52/52/52 51/51/51 49/49/49
f 55/55/55 54/54/54 53/53/53
f 56/56/56 55/55/55 53/53/53
f 59/59/59 58/58/58 57/57/57
f 60/60/60 59/59/59 57/57/57
f 63/63/63 62/62/62 61/61/61
f 61/61/61 64/64/64 63/63/63
f 61/61/61 65/65/65 64/64/64
f 65/65/65 66/66/66 64/64/64
f 69/69/69 68/68/68 67/67/67
f 70/70/70 69/69/69 67/67/67
f 73/73/73 72/72/72 71/71/71
f 74/74/74 73/73/73 71/71/71
f 77/77/77 76/76/76 75/75/75
f 75/75/75 78/78/78 77/77/77
f 75/75/75 79/79/79 78/78/78
f 79/79/79 80/80/80 78/78/78
f 83/83/83 82/82/82 81/81/81
f 84/84/84 83/83/83 81/81/81
f 87/87/87 86/86/86 85/85/85
f 88/88/88 87/87/87 85/85/85
f 91/91/91 90/90/90 89/89/89
f 92/92/92 91/91/91 89/89/89
f 95/95/95 94/94/94 93/93/93
f 96/96/96 95/95/95 93/93/93
f 99/99/99 98/98/98 97/97/97
f 97/97/97 100/100/100 99/99/99
f 97/97/97 101/101/101 100/100/100
f 101/101/101 102/102/102 100/100/100
f 105/105/105 104/104/104 103/103/103
f 106/106/106 105/105/105 103/103/103
f 109/109/109 108/108/108 107/107/107
f 110/110/110 109/109/109 107/107/107
f 113/113/113 112/112/112 111/111/111
f 111/111/111 114/114/114 113/113/113
f 111/111/111 115/115/115 114/114/114
f 115/115/115 116/116/116 114/114/114
f 119/119/119 118/118/118 117/117/117
f 120/120/120 119/119/119 117/117/117
f 123/123/123 122/122/122 121/121/121
f 124/124/124 123/123/123 121/121/121
f 127/127/127 126/126/126 125/125/125
f 128/128/128 127/127/127 125/125/125
f 131/131/131 130/130/130 129/129/129
f 132/132/132 131/131/131 129/129/129
f 135/135/135 134/134/134 133/133/133
f 133/133/133 136/136/136 135/135/135
f 133/133/133 137/137/137 136/136/136
f 137/137/137 138/138/138 136/136/136
f 141/141/141 140/140/140 139/139/139
f 142/142/142 141/141/141 139/139/139
f 145/145/145 144/144/144 143/143/143
f 146/146/146 145/145/145 143/143/143
f 149/149/149 148/148/148 147/147/147
f 147/147/147 150/150/150 149/149/149
f 147/147/147 151/151/151 150/150/150
f 151/151/151 152/152/152 150/150/150
f 155/155/155 154/154/154 153/153/153
f 156/156/156 155/155/155 153/153/153
f 159/159/159 158/158/158 157/157/157
f 160/160/160 159/159/159 157/157/157
f 163/163/163 162/162/162 161/161/161
f 164/164/164 163/163/163 161/161/161
f 167/167/167 166/166/166 165/165/165
f 168/168/168 167/167/167 165/165/165
f 171/171/171 170/170/170 169/169/169
f 169/169/169 172/172/172 171/171/171
f 169/169/169 173/173/173 172/172/172
f 173/173/173 174/174/174 172/172/172
f 177/177/177 176/176/176 175/175/175
f 178/178/178 177/177/177 175/175/175
f 181/181/181 180/180/180 179/179/179
f 182/182/182 181/181/181 179/179/179
f 185/185/185 184/184/184 183/183/183
f 183/183/183 186/186/186 185/185/185
f 183/183/183 187/187/187 186/186/186
f 187/187/187 188/188/188 186/186/186
f 191/191/191 190/190/190 189/189/189
f 192/192/192 191/191/191 189/189/189
f 195/195/195 194/194/194 193/193/193
f 194/194/194 196/196/196 193/193/193
f 194/194/194 197/197/197 196/196/196
f 197/197/197 198/198/198 196/196/196
f 197/197/197 199/199/199 198/198/198
f 199/199/199 200/200/200 198/198/198
f 203/203/203 202/202/202 201/201/201
f 202/202/202 204/204/204 201/201/201
f 202/202/202 205/205/205 204/204/204
f 205/205/205 206/206/206 204/204/204
f 205/205/205 207/207/207 206/206/206
f 207/207/207 208/208/208 206/206/206
f 211/211/211 210/210/210 209/209/209
f 212/212/212 211/211/211 209/209/209
f 215/215/215 214/214/214 213/213/213
f 216/216/216 215/215/215 213/213/213
f 219/219/219 218/218/218 217/217/217
f 220/220/220 219/219/219 217/217/217
f 223/223/223 222/222/222 221/221/221
f 224/224/224 223/223/223 221/221/221
f 227/227/227 226/226/226 225/225/225
f 228/228/228 227/227/227 225/225/225
f 231/231/231 230/230/230 229/229/229
f 232/232/232 231/231/231 229/229/229
f 235/235/235 234/234/234 233/233/233
f 236/236/236 235/235/235 233/233/233
f 239/239/239 238/238/238 237/237/237
f 240/240/240 239/239/239 237/237/237
f 243/243/243 242/242/242 241/241/241
f 244/244/244 243/243/243 241/241/241
f 247/247/247 246/246/246 245/245/245
f 248/248/248 247/247/247 245/245/245
f 251/251/251 250/250/250 249/249/249
f 252/252/252 251/251/251 249/249/249
f 255/255/255 254/254/254 253/253/253
f 256/256/256 255/255/255 253/253/253
f 259/259/259 258/258/258 257/257/257
f 260/260/260 259/259/259 257/257/257
f 263/263/263 262/262/262 261/261/261
f 264/264/264 263/263/263 261/261/261
f 267/267/267 266/266/266 265/265/265
f 266/266/266 268/268/268 265/265/265
f 266/266/266 269/269/269 268/268/268
f 269/269/269 270/270/270 268/268/268
f 269/269/269 271/271/271 270/270/270
f 271/271/271 272/272/272 270/270/270
f 275/275/275 274/274/274 273/273/273
f 274/274/274 276/276/276 273/273/273
f 274/274/274 277/277/277 276/276/276
f 277/277/277 278/278/278 276/276/276
f 277/277/277 279/279/279 278/278/278
f 279/279/279 280/280/280 278/278/278
f 283/283/283 282/282/282 281/281/281
f 284/284/284 283/283/283 281/281/281
f 287/287/287 286/286/286 285/285/285
f 288/288/288 287/287/287 285/285/285
f 291/291/291 290/290/290 289/289/289
f 292/292/292 291/291/291 289/289/289
f 295/295/295 294/294/294 293/293/293
f 296/296/296 295/295/295 293/293/293
f 299/299/299 298/298/298 297/297/297
f 300/300/300 299/299/299 297/297/297
f 303/303/303 302/302/302 301/301/301
f 304/304/304 303/303/303 301/301/301
f 307/307/307 306/306/306 305/305/305
f 308/308/308 307/307/307 305/305/305
f 311/311/311 310/310/310 309/309/309
f 312/312/312 311/311/311 309/309/309
f 315/315/315 314/314/314 313/313/313
f 316/316/316 315/315/315 313/313/313
f 319/319/319 318/318/318 317/317/317
f 317/317/317 320/320/320 319/319/319
f 317/317/317 321/321/321 320/320/320
f 321/321/321 322/322/322 320/320/320
f 325/325/325 324/324/324 323/323/323
f 326/326/326 325/325/325 323/323/323
f 329/329/329 328/328/328 327/327/327
f 330/330/330 329/329/329 327/327/327
f 333/333/333 332/332/332 331/331/331
f 334/334/334 333/333/333 331/331/331
f 337/337/337 336/336/336 335/335/335
f 338/338/338 337/337/337 335/335/335
f 341/341/341 340/340/340 339/339/339
f 342/342/342 341/341/341 339/339/339
f 345/345/345 344/344/344 343/343/343
f 344/344/344 346/346/346 343/343/343
f 343/343/343 346/346/346 347/347/347
f 346/346/346 348/348/348 347/347/347
f 351/351/351 350/350/350 349/349/349
f 350/350/350 352/352/352 349/349/349
f 349/349/349 352/352/352 353/353/353
f 352/352/352 354/354/354 353/353/353
f 357/357/357 356/356/356 355/355/355
f 356/356/356 358/358/358 355/355/355
f 355/355/355 358/358/358 359/359/359
f 358/358/358 360/360/360 359/359/359
f 363/363/363 362/362/362 361/361/361
f 362/362/362 364/364/364 361/361/361
f 361/361/361 364/364/364 365/365/365
f 364/364/364 366/366/366 365/365/365
