g Longbow
v -0.06490897 0.6191739 0.5187376
v -0.037475184 0.6328908 0.5324545
v -0.03747518 0.037141636 1.064909
v -0.06490897 0.037141636 1.0374752
v 0.0649091 0.5816986 0.48126236
v 0.03747531 0.5679817 0.46754548
v 0.03747531 0.037141636 0.93509096
v 0.0649091 0.037141636 0.9625247
v 0.07495056 0.6004362 0.49999997
v 0.0649091 0.5816986 0.48126236
v 0.0649091 0.037141636 0.9625247
v 0.07495056 0.037141636 0.99999994
v -0.07495044 0.6004362 0.49999997
v -0.06490897 0.6191739 0.5187376
v -0.06490897 0.037141636 1.0374752
v -0.074950434 0.037141636 0.99999994
v -0.06490898 0.5816986 0.48126236
v -0.07495044 0.6004362 0.49999997
v -0.074950434 0.037141636 0.99999994
v -0.064908974 0.037141636 0.9625247
v -0.03747519 0.5679817 0.46754548
v -0.06490898 0.5816986 0.48126236
v -0.064908974 0.037141636 0.9625247
v -0.03747519 0.037141636 0.93509096
v 0.0649091 0.6191739 0.5187376
v 0.07495056 0.6004362 0.49999997
v 0.07495056 0.037141636 0.99999994
v 0.0649091 0.037141636 1.0374752
v -0.037475184 0.6328908 0.5324545
v 7.045587E-08 0.63791144 0.5374752
v 7.045587E-08 0.037141636 1.0749505
v -0.03747518 0.037141636 1.064909
v 5.9138653E-08 0.562961 0.46252474
v -0.03747519 0.5679817 0.46754548
v -0.03747519 0.037141636 0.93509096
v 5.9138653E-08 0.037141636 0.9250495
v 0.037475325 0.6328908 0.5324545
v 0.0649091 0.6191739 0.5187376
v 0.0649091 0.037141636 1.0374752
v 0.03747532 0.037141636 1.064909
v 0.037475325 0.6328908 0.5324545
v 0.03747532 0.037141636 1.064909
v 7.045587E-08 0.037141636 1.0749505
v 7.045587E-08 0.63791144 0.5374752
v 0.03747531 0.5679817 0.46754548
v 5.9138653E-08 0.562961 0.46252474
v 5.9138653E-08 0.037141636 0.9250495
v 0.03747531 0.037141636 0.93509096
v 0.012892633 0.037441667 0.9401775
v 0.012892491 0.037441667 -0.94016737
v -0.012892694 0.037441667 -0.94016737
v -0.012892553 0.037441667 0.9401775
v 0.012892491 0.037441667 -0.94016737
v 0.012892493 0.06322686 -0.94016737
v -0.012892692 0.06322686 -0.94016737
v -0.012892694 0.037441667 -0.94016737
v 0.012892493 0.06322686 -0.94016737
v 0.012892635 0.06322686 0.9401775
v -0.01289255 0.06322686 0.9401775
v -0.012892692 0.06322686 -0.94016737
v 0.012892635 0.06322686 0.9401775
v 0.012892633 0.037441667 0.9401775
v -0.012892553 0.037441667 0.9401775
v -0.01289255 0.06322686 0.9401775
v 0.012892491 0.037441667 -0.94016737
v 0.012892633 0.037441667 0.9401775
v 0.012892635 0.06322686 0.9401775
v 0.012892493 0.06322686 -0.94016737
v -0.012892692 0.06322686 -0.94016737
v -0.01289255 0.06322686 0.9401775
v -0.012892553 0.037441667 0.9401775
v -0.012892694 0.037441667 -0.94016737
v 0.03747531 0.5679817 -0.46754548
v 0.0649091 0.5816986 -0.48126236
v 0.0649091 0.037141636 -0.9625247
v 0.03747531 0.037141636 -0.93509096
v -0.03747519 0.5679817 -0.46754548
v 5.9138653E-08 0.562961 -0.46252474
v 5.9138653E-08 0.037141636 -0.9250495
v -0.03747519 0.037141636 -0.93509096
v 0.0649091 0.5816986 -0.48126236
v 0.07495056 0.6004362 -0.49999997
v 0.07495056 0.037141636 -0.99999994
v 0.0649091 0.037141636 -0.9625247
v -0.06490897 0.6191739 -0.5187376
v -0.07495044 0.6004362 -0.49999997
v -0.074950434 0.037141636 -0.99999994
v -0.06490897 0.037141636 -1.0374752
v 0.07495056 0.6004362 -0.49999997
v 0.0649091 0.6191739 -0.5187376
v 0.0649091 0.037141636 -1.0374752
v 0.07495056 0.037141636 -0.99999994
v 7.045587E-08 0.63791144 -0.5374752
v 7.045587E-08 0.037141636 -1.0749505
v 0.03747532 0.037141636 -1.064909
v 0.037475325 0.6328907 -0.5324545
v 5.9138653E-08 0.562961 -0.46252474
v 0.03747531 0.5679817 -0.46754548
v 0.03747531 0.037141636 -0.93509096
v 5.9138653E-08 0.037141636 -0.9250495
v 7.045587E-08 0.63791144 -0.5374752
v -0.037475184 0.6328907 -0.5324545
v -0.03747518 0.037141636 -1.064909
v 7.045587E-08 0.037141636 -1.0749505
v 0.0649091 0.6191739 -0.5187376
v 0.037475325 0.6328907 -0.5324545
v 0.03747532 0.037141636 -1.064909
v 0.0649091 0.037141636 -1.0374752
v -0.07495044 0.6004362 -0.49999997
v -0.06490898 0.5816986 -0.48126236
v -0.064908974 0.037141636 -0.9625247
v -0.074950434 0.037141636 -0.99999994
v -0.037475184 0.6328907 -0.5324545
v -0.06490897 0.6191739 -0.5187376
v -0.06490897 0.037141636 -1.0374752
v -0.03747518 0.037141636 -1.064909
v -0.06490898 0.5816986 -0.48126236
v -0.03747519 0.5679817 -0.46754548
v -0.03747519 0.037141636 -0.93509096
v -0.064908974 0.037141636 -0.9625247
v 0.03747531 0.037141636 0.93509096
v 5.9138653E-08 0.037141636 0.9250495
v -0.03747519 0.037141636 0.93509096
v 0.0649091 0.037141636 0.9625247
v -0.064908974 0.037141636 0.9625247
v 0.07495056 0.037141636 0.99999994
v -0.074950434 0.037141636 0.99999994
v 0.0649091 0.037141636 1.0374752
v -0.06490897 0.037141636 1.0374752
v 0.03747532 0.037141636 1.064909
v -0.03747518 0.037141636 1.064909
v 7.045587E-08 0.037141636 1.0749505
v 0.03747532 0.037141636 -1.064909
v 7.045587E-08 0.037141636 -1.0749505
v -0.03747518 0.037141636 -1.064909
v 0.0649091 0.037141636 -1.0374752
v -0.06490897 0.037141636 -1.0374752
v 0.07495056 0.037141636 -0.99999994
v -0.074950434 0.037141636 -0.99999994
v 0.0649091 0.037141636 -0.9625247
v -0.064908974 0.037141636 -0.9625247
v 0.03747531 0.037141636 -0.93509096
v -0.03747519 0.037141636 -0.93509096
v 5.9138653E-08 0.037141636 -0.9250495
v 0.037475314 0.40618405 -2.829303E-09
v 5.9138653E-08 0.39614257 6.9297945E-25
v 5.9138653E-08 0.562961 0.46252474
v 0.03747531 0.5679817 0.46754548
v 0.037475325 0.53600216 -2.829303E-09
v 0.037475325 0.6328908 0.5324545
v 7.045587E-08 0.63791144 0.5374752
v 7.045587E-08 0.5460435 0
v 0.037475325 0.53600216 -2.829303E-09
v 0.06490911 0.50856835 -4.9004965E-09
v 0.0649091 0.6191739 0.5187376
v 0.037475325 0.6328908 0.5324545
v 5.9138653E-08 0.39614257 6.9297945E-25
v -0.037475195 0.40618405 2.829303E-09
v -0.03747519 0.5679817 0.46754548
v 5.9138653E-08 0.562961 0.46252474
v -0.037475184 0.53600216 2.829303E-09
v 7.045587E-08 0.5460435 0
v 7.045587E-08 0.63791144 0.5374752
v -0.037475184 0.6328908 0.5324545
v 0.06490911 0.50856835 -4.9004965E-09
v 0.07495057 0.47109303 -5.658606E-09
v 0.07495056 0.6004362 0.49999997
v 0.0649091 0.6191739 0.5187376
v -0.037475195 0.40618405 2.829303E-09
v -0.06490898 0.4336178 4.9004965E-09
v -0.06490898 0.5816986 0.48126236
v -0.03747519 0.5679817 0.46754548
v -0.06490898 0.4336178 4.9004965E-09
v -0.07495044 0.47109303 5.658606E-09
v -0.07495044 0.6004362 0.49999997
v -0.06490898 0.5816986 0.48126236
v -0.07495044 0.47109303 5.658606E-09
v -0.064908974 0.50856835 4.9004965E-09
v -0.06490897 0.6191739 0.5187376
v -0.07495044 0.6004362 0.49999997
v 0.07495057 0.47109303 -5.658606E-09
v 0.06490911 0.4336178 -4.9004965E-09
v 0.0649091 0.5816986 0.48126236
v 0.07495056 0.6004362 0.49999997
v 0.06490911 0.4336178 -4.9004965E-09
v 0.037475314 0.40618405 -2.829303E-09
v 0.03747531 0.5679817 0.46754548
v 0.0649091 0.5816986 0.48126236
v -0.064908974 0.50856835 4.9004965E-09
v -0.037475184 0.53600216 2.829303E-09
v -0.037475184 0.6328908 0.5324545
v -0.06490897 0.6191739 0.5187376
v -0.06490898 0.4336178 4.9004965E-09
v -0.037475195 0.40618405 2.829303E-09
v -0.03747519 0.5679817 -0.46754548
v -0.06490898 0.5816986 -0.48126236
v -0.037475184 0.53600216 2.829303E-09
v -0.064908974 0.50856835 4.9004965E-09
v -0.06490897 0.6191739 -0.5187376
v -0.037475184 0.6328907 -0.5324545
v -0.07495044 0.47109303 5.658606E-09
v -0.06490898 0.4336178 4.9004965E-09
v -0.06490898 0.5816986 -0.48126236
v -0.07495044 0.6004362 -0.49999997
v 0.06490911 0.50856835 -4.9004965E-09
v 0.037475325 0.53600216 -2.829303E-09
v 0.037475325 0.6328907 -0.5324545
v 0.0649091 0.6191739 -0.5187376
v 7.045587E-08 0.5460435 0
v -0.037475184 0.53600216 2.829303E-09
v -0.037475184 0.6328907 -0.5324545
v 7.045587E-08 0.63791144 -0.5374752
v 5.9138653E-08 0.39614257 6.9297945E-25
v 0.037475314 0.40618405 -2.829303E-09
v 0.03747531 0.5679817 -0.46754548
v 5.9138653E-08 0.562961 -0.46252474
v 7.045587E-08 0.5460435 0
v 7.045587E-08 0.63791144 -0.5374752
v 0.037475325 0.6328907 -0.5324545
v 0.037475325 0.53600216 -2.829303E-09
v 0.07495057 0.47109303 -5.658606E-09
v 0.06490911 0.50856835 -4.9004965E-09
v 0.0649091 0.6191739 -0.5187376
v 0.07495056 0.6004362 -0.49999997
v -0.064908974 0.50856835 4.9004965E-09
v -0.07495044 0.47109303 5.658606E-09
v -0.07495044 0.6004362 -0.49999997
v -0.06490897 0.6191739 -0.5187376
v 0.06490911 0.4336178 -4.9004965E-09
v 0.07495057 0.47109303 -5.658606E-09
v 0.07495056 0.6004362 -0.49999997
v 0.0649091 0.5816986 -0.48126236
v -0.037475195 0.40618405 2.829303E-09
v 5.9138653E-08 0.39614257 6.9297945E-25
v 5.9138653E-08 0.562961 -0.46252474
v -0.03747519 0.5679817 -0.46754548
v 0.037475314 0.40618405 -2.829303E-09
v 0.06490911 0.4336178 -4.9004965E-09
v 0.0649091 0.5816986 -0.48126236
v 0.03747531 0.5679817 -0.46754548
vt 0 0
vt 0 0
vt 0 0
vt 0 0
vt 0 0
vt 0 0
vt 0 0
vt 0 0
vt 0 0
vt 0 0
vt 0 0
vt 0 0
vt 0 0
vt 0 0
vt 0 0
vt 0 0
vt 0 0
vt 0 0
vt 0 0
vt 0 0
vt 0 0
vt 0 0
vt 0 0
vt 0 0
vt 0 0
vt 0 0
vt 0 0
vt 0 0
vt 0 0
vt 0 0
vt 0 0
vt 0 0
vt 0 0
vt 0 0
vt 0 0
vt 0 0
vt 0 0
vt 0 0
vt 0 0
vt 0 0
vt 0 0
vt 0 0
vt 0 0
vt 0 0
vt 0 0
vt 0 0
vt 0 0
vt 0 0
vt 0.375 0
vt 0.375 0.25
vt 0.625 0.25
vt 0.625 0
vt 0.375 0.25
vt 0.375 0.5
vt 0.625 0.5
vt 0.625 0.25
vt 0.375 0.5
vt 0.375 0.75
vt 0.625 0.75
vt 0.625 0.5
vt 0.375 0.75
vt 0.375 1
vt 0.625 1
vt 0.625 0.75
vt 0.125 0.5
vt 0.125 0.75
vt 0.375 0.75
vt 0.375 0.5
vt 0.625 0.5
vt 0.625 0.75
vt 0.875 0.75
vt 0.875 0.5
vt 0 0
vt 0 0
vt 0 0
vt 0 0
vt 0 0
vt 0 0
vt 0 0
vt 0 0
vt 0 0
vt 0 0
vt 0 0
vt 0 0
vt 0 0
vt 0 0
vt 0 0
vt 0 0
vt 0 0
vt 0 0
vt 0 0
vt 0 0
vt 0 0
vt 0 0
vt 0 0
vt 0 0
vt 0 0
vt 0 0
vt 0 0
vt 0 0
vt 0 0
vt 0 0
vt 0 0
vt 0 0
vt 0 0
vt 0 0
vt 0 0
vt 0 0
vt 0 0
vt 0 0
vt 0 0
vt 0 0
vt 0 0
vt 0 0
vt 0 0
vt 0 0
vt 0 0
vt 0 0
vt 0 0
vt 0 0
vt 0 0
vt 0 0
vt 0 0
vt 0 0
vt 0 0
vt 0 0
vt 0 0
vt 0 0
vt 0 0
vt 0 0
vt 0 0
vt 0 0
vt 0 0
vt 0 0
vt 0 0
vt 0 0
vt 0 0
vt 0 0
vt 0 0
vt 0 0
vt 0 0
vt 0 0
vt 0 0
vt 0 0
vt 0 0
vt 0 0
vt 0 0
vt 0 0
vt 0 0
vt 0 0
vt 0 0
vt 0 0
vt 0 0
vt 0 0
vt 0 0
vt 0 0
vt 0 0
vt 0 0
vt 0 0
vt 0 0
vt 0 0
vt 0 0
vt 0 0
vt 0 0
vt 0 0
vt 0 0
vt 0 0
vt 0 0
vt 0 0
vt 0 0
vt 0 0
vt 0 0
vt 0 0
vt 0 0
vt 0 0
vt 0 0
vt 0 0
vt 0 0
vt 0 0
vt 0 0
vt 0 0
vt 0 0
vt 0 0
vt 0 0
vt 0 0
vt 0 0
vt 0 0
vt 0 0
vt 0 0
vt 0 0
vt 0 0
vt 0 0
vt 0 0
vt 0 0
vt 0 0
vt 0 0
vt 0 0
vt 0 0
vt 0 0
vt 0 0
vt 0 0
vt 0 0
vt 0 0
vt 0 0
vt 0 0
vt 0 0
vt 0 0
vt 0 0
vt 0 0
vt 0 0
vt 0 0
vt 0 0
vt 0 0
vt 0 0
vt 0 0
vt 0 0
vt 0 0
vt 0 0
vt 0 0
vt 0 0
vt 0 0
vt 0 0
vt 0 0
vt 0 0
vt 0 0
vt 0 0
vt 0 0
vt 0 0
vt 0 0
vt 0 0
vt 0 0
vt 0 0
vt 0 0
vt 0 0
vt 0 0
vt 0 0
vt 0 0
vt 0 0
vt 0 0
vt 0 0
vn -0.587506 0.5388395 0.60372907
vn -0.587506 0.5388395 0.60372907
vn -0.587506 0.5388395 0.60372907
vn -0.587506 0.5388395 0.60372907
vn 0.5884472 -0.5349219 -0.6062907
vn 0.5884472 -0.5349219 -0.6062907
vn 0.5884472 -0.5349219 -0.6062907
vn 0.5884472 -0.5349219 -0.6062907
vn 0.9383284 -0.22924417 -0.25881824
vn 0.9383284 -0.22924417 -0.25881824
vn 0.9383284 -0.22924417 -0.25881824
vn 0.9383284 -0.22924417 -0.25881824
vn -0.9382286 0.22996503 0.2585407
vn -0.9382286 0.22996503 0.2585407
vn -0.9382286 0.22996503 0.2585407
vn -0.9382286 0.22996503 0.2585407
vn -0.9383284 -0.22924434 -0.25881824
vn -0.9383284 -0.22924434 -0.25881824
vn -0.9383284 -0.22924434 -0.25881824
vn -0.9383284 -0.22924434 -0.25881824
vn -0.5884473 -0.5349218 -0.60629076
vn -0.5884473 -0.5349218 -0.60629076
vn -0.5884473 -0.5349218 -0.60629076
vn -0.5884473 -0.5349218 -0.60629076
vn 0.9382286 0.22996488 0.2585404
vn 0.9382286 0.22996488 0.2585404
vn 0.9382286 0.22996488 0.2585404
vn 0.9382286 0.22996488 0.2585404
vn -0.19088107 0.65431726 0.7317331
vn -0.19088107 0.65431726 0.7317331
vn -0.19088107 0.65431726 0.7317331
vn -0.19088107 0.65431726 0.7317331
vn -0.19149883 -0.648484 -0.7367473
vn -0.19149883 -0.648484 -0.7367473
vn -0.19149883 -0.648484 -0.7367473
vn -0.19149883 -0.648484 -0.7367473
vn 0.5875061 0.5388394 0.60372895
vn 0.5875061 0.5388394 0.60372895
vn 0.5875061 0.5388394 0.60372895
vn 0.5875061 0.5388394 0.60372895
vn 0.19088107 0.65431726 0.7317331
vn 0.19088107 0.65431726 0.7317331
vn 0.19088107 0.65431726 0.7317331
vn 0.19088107 0.65431726 0.7317331
vn 0.19149883 -0.648484 -0.7367473
vn 0.19149883 -0.648484 -0.7367473
vn 0.19149883 -0.648484 -0.7367473
vn 0.19149883 -0.648484 -0.7367473
vn -0 -1 0
vn -0 -1 0
vn -0 -1 0
vn -0 -1 0
vn -0 0 -1
vn -0 0 -1
vn -0 0 -1
vn -0 0 -1
vn -0 1 0
vn -0 1 0
vn -0 1 0
vn -0 1 0
vn -0 0 1
vn -0 0 1
vn -0 0 1
vn -0 0 1
vn 1 0 0
vn 1 0 0
vn 1 0 0
vn 1 0 0
vn -1 0 0
vn -1 0 0
vn -1 0 0
vn -1 0 0
vn 0.5884472 -0.5349218 0.6062907
vn 0.5884472 -0.5349218 0.6062907
vn 0.5884472 -0.5349218 0.6062907
vn 0.5884472 -0.5349218 0.6062907
vn -0.19149883 -0.648484 0.7367473
vn -0.19149883 -0.648484 0.7367473
vn -0.19149883 -0.648484 0.7367473
vn -0.19149883 -0.648484 0.7367473
vn 0.9383284 -0.22924417 0.25881824
vn 0.9383284 -0.22924417 0.25881824
vn 0.9383284 -0.22924417 0.25881824
vn 0.9383284 -0.22924417 0.25881824
vn -0.9382286 0.22996503 -0.2585407
vn -0.9382286 0.22996503 -0.2585407
vn -0.9382286 0.22996503 -0.2585407
vn -0.9382286 0.22996503 -0.2585407
vn 0.9382286 0.22996488 -0.2585404
vn 0.9382286 0.22996488 -0.2585404
vn 0.9382286 0.22996488 -0.2585404
vn 0.9382286 0.22996488 -0.2585404
vn 0.19088295 0.654317 -0.73173285
vn 0.19088295 0.654317 -0.73173285
vn 0.19088295 0.654317 -0.73173285
vn 0.19088295 0.654317 -0.73173285
vn 0.19149883 -0.648484 0.7367473
vn 0.19149883 -0.648484 0.7367473
vn 0.19149883 -0.648484 0.7367473
vn 0.19149883 -0.648484 0.7367473
vn -0.19088294 0.654317 -0.7317328
vn -0.19088294 0.654317 -0.7317328
vn -0.19088294 0.654317 -0.7317328
vn -0.19088294 0.654317 -0.7317328
vn 0.5875047 0.53884006 -0.6037298
vn 0.5875047 0.53884006 -0.6037298
vn 0.5875047 0.53884006 -0.6037298
vn 0.5875047 0.53884006 -0.6037298
vn -0.9383284 -0.22924426 0.25881824
vn -0.9383284 -0.22924426 0.25881824
vn -0.9383284 -0.22924426 0.25881824
vn -0.9383284 -0.22924426 0.25881824
vn -0.5875045 0.53884023 -0.6037297
vn -0.5875045 0.53884023 -0.6037297
vn -0.5875045 0.53884023 -0.6037297
vn -0.5875045 0.53884023 -0.6037297
vn -0.5884473 -0.5349219 0.6062907
vn -0.5884473 -0.5349219 0.6062907
vn -0.5884473 -0.5349219 0.6062907
vn -0.5884473 -0.5349219 0.6062907
vn -0 -1 0
vn -0 -1 0
vn -0 -1 0
vn -0 -1 0
vn -0 -1 0
vn -0 -1 0
vn -0 -1 0
vn -0 -1 0
vn -0 -1 0
vn -0 -1 0
vn -0 -1 0
vn -0 -1 0
vn -0 -1 0
vn -0 -1 0
vn -0 -1 0
vn -0 -1 0
vn -0 -1 0
vn -0 -1 0
vn -0 -1 0
vn -0 -1 0
vn -0 -1 0
vn -0 -1 0
vn -0 -1 0
vn -0 -1 0
vn 0.16487832 -0.92997277 0.32858163
vn 0.16487832 -0.92997277 0.32858163
vn 0.16487832 -0.92997277 0.32858163
vn 0.16487832 -0.92997277 0.32858163
vn 0.18311517 0.9681408 -0.170799
vn 0.18311517 0.9681408 -0.170799
vn 0.18311517 0.9681408 -0.170799
vn 0.18311517 0.9681408 -0.170799
vn 0.5664678 0.80848414 -0.15958627
vn 0.5664678 0.80848414 -0.15958627
vn 0.5664678 0.80848414 -0.15958627
vn 0.5664678 0.80848414 -0.15958627
vn -0.16487832 -0.92997277 0.32858163
vn -0.16487832 -0.92997277 0.32858163
vn -0.16487832 -0.92997277 0.32858163
vn -0.16487832 -0.92997277 0.32858163
vn -0.18311517 0.9681408 -0.170799
vn -0.18311517 0.9681408 -0.170799
vn -0.18311517 0.9681408 -0.170799
vn -0.18311517 0.9681408 -0.170799
vn 0.92901605 0.36018324 -0.0848359
vn 0.92901605 0.36018324 -0.0848359
vn 0.92901605 0.36018324 -0.0848359
vn 0.92901605 0.36018324 -0.0848359
vn -0.53625095 -0.8023508 0.262046
vn -0.53625095 -0.8023508 0.262046
vn -0.53625095 -0.8023508 0.262046
vn -0.53625095 -0.8023508 0.262046
vn -0.9252849 -0.3649671 0.103184104
vn -0.9252849 -0.3649671 0.103184104
vn -0.9252849 -0.3649671 0.103184104
vn -0.9252849 -0.3649671 0.103184104
vn -0.92901593 0.36018378 -0.08483603
vn -0.92901593 0.36018378 -0.08483603
vn -0.92901593 0.36018378 -0.08483603
vn -0.92901593 0.36018378 -0.08483603
vn 0.9252849 -0.3649671 0.10318415
vn 0.9252849 -0.3649671 0.10318415
vn 0.9252849 -0.3649671 0.10318415
vn 0.9252849 -0.3649671 0.10318415
vn 0.53625095 -0.8023508 0.262046
vn 0.53625095 -0.8023508 0.262046
vn 0.53625095 -0.8023508 0.262046
vn 0.53625095 -0.8023508 0.262046
vn -0.5664676 0.8084842 -0.1595863
vn -0.5664676 0.8084842 -0.1595863
vn -0.5664676 0.8084842 -0.1595863
vn -0.5664676 0.8084842 -0.1595863
vn -0.53625095 -0.8023508 -0.262046
vn -0.53625095 -0.8023508 -0.262046
vn -0.53625095 -0.8023508 -0.262046
vn -0.53625095 -0.8023508 -0.262046
vn -0.56646645 0.808485 0.15958633
vn -0.56646645 0.808485 0.15958633
vn -0.56646645 0.808485 0.15958633
vn -0.56646645 0.808485 0.15958633
vn -0.9252848 -0.36496723 -0.1031841
vn -0.9252848 -0.36496723 -0.1031841
vn -0.9252848 -0.36496723 -0.1031841
vn -0.9252848 -0.36496723 -0.1031841
vn 0.5664665 0.8084848 0.15958641
vn 0.5664665 0.8084848 0.15958641
vn 0.5664665 0.8084848 0.15958641
vn 0.5664665 0.8084848 0.15958641
vn -0.18311663 0.9681405 0.17079887
vn -0.18311663 0.9681405 0.17079887
vn -0.18311663 0.9681405 0.17079887
vn -0.18311663 0.9681405 0.17079887
vn 0.16487832 -0.92997277 -0.32858163
vn 0.16487832 -0.92997277 -0.32858163
vn 0.16487832 -0.92997277 -0.32858163
vn 0.16487832 -0.92997277 -0.32858163
vn 0.18311667 0.9681405 0.17079887
vn 0.18311667 0.9681405 0.17079887
vn 0.18311667 0.9681405 0.17079887
vn 0.18311667 0.9681405 0.17079887
vn 0.92901605 0.36018327 0.08483594
vn 0.92901605 0.36018327 0.08483594
vn 0.92901605 0.36018327 0.08483594
vn 0.92901605 0.36018327 0.08483594
vn -0.92901593 0.36018372 0.084836006
vn -0.92901593 0.36018372 0.084836006
vn -0.92901593 0.36018372 0.084836006
vn -0.92901593 0.36018372 0.084836006
vn 0.9252849 -0.3649671 -0.103184134
vn 0.9252849 -0.3649671 -0.103184134
vn 0.9252849 -0.3649671 -0.103184134
vn 0.9252849 -0.3649671 -0.103184134
vn -0.16487832 -0.92997277 -0.32858163
vn -0.16487832 -0.92997277 -0.32858163
vn -0.16487832 -0.92997277 -0.32858163
vn -0.16487832 -0.92997277 -0.32858163
vn 0.53625095 -0.8023508 -0.262046
vn 0.53625095 -0.8023508 -0.262046
vn 0.53625095 -0.8023508 -0.262046
vn 0.53625095 -0.8023508 -0.262046
g Longbow_0
f 3/3/3 2/2/2 1/1/1
f 4/4/4 3/3/3 1/1/1
f 7/7/7 6/6/6 5/5/5
f 8/8/8 7/7/7 5/5/5
f 11/11/11 10/10/10 9/9/9
f 12/12/12 11/11/11 9/9/9
f 15/15/15 14/14/14 13/13/13
f 16/16/16 15/15/15 13/13/13
f 19/19/19 18/18/18 17/17/17
f 20/20/20 19/19/19 17/17/17
f 23/23/23 22/22/22 21/21/21
f 24/24/24 23/23/23 21/21/21
f 27/27/27 26/26/26 25/25/25
f 28/28/28 27/27/27 25/25/25
f 31/31/31 30/30/30 29/29/29
f 32/32/32 31/31/31 29/29/29
f 35/35/35 34/34/34 33/33/33
f 36/36/36 35/35/35 33/33/33
f 39/39/39 38/38/38 37/37/37
f 40/40/40 39/39/39 37/37/37
f 43/43/43 42/42/42 41/41/41
f 44/44/44 43/43/43 41/41/41
f 47/47/47 46/46/46 45/45/45
f 48/48/48 47/47/47 45/45/45
f 51/51/51 50/50/50 49/49/49
f 52/52/52 51/51/51 49/49/49
f 55/55/55 54/54/54 53/53/53
f 56/56/56 55/55/55 53/53/53
f 59/59/59 58/58/58 57/57/57
f 60/60/60 59/59/59 57/57/57
f 63/63/63 62/62/62 61/61/61
f 64/64/64 63/63/63 61/61/61
f 67/67/67 66/66/66 65/65/65
f 68/68/68 67/67/67 65/65/65
f 71/71/71 70/70/70 69/69/69
f 72/72/72 71/71/71 69/69/69
f 75/75/75 74/74/74 73/73/73
f 76/76/76 75/75/75 73/73/73
f 79/79/79 78/78/78 77/77/77
f 80/80/80 79/79/79 77/77/77
f 83/83/83 82/82/82 81/81/81
f 84/84/84 83/83/83 81/81/81
f 87/87/87 86/86/86 85/85/85
f 88/88/88 87/87/87 85/85/85
f 91/91/91 90/90/90 89/89/89
f 92/92/92 91/91/91 89/89/89
f 95/95/95 94/94/94 93/93/93
f 96/96/96 95/95/95 93/93/93
f 99/99/99 98/98/98 97/97/97
f 100/100/100 99/99/99 97/97/97
f 103/103/103 102/102/102 101/101/101
f 104/104/104 103/103/103 101/101/101
f 107/107/107 106/106/106 105/105/105
f 108/108/108 107/107/107 105/105/105
f 111/111/111 110/110/110 109/109/109
f 112/112/112 111/111/111 109/109/109
f 115/115/115 114/114/114 113/113/113
f 116/116/116 115/115/115 113/113/113
f 119/119/119 118/118/118 117/117/117
f 120/120/120 119/119/119 117/117/117
f 123/123/123 122/122/122 121/121/121
f 121/121/121 124/124/124 123/123/123
f 124/124/124 125/125/125 123/123/123
f 124/124/124 126/126/126 125/125/125
f 126/126/126 127/127/127 125/125/125
f 126/126/126 128/128/128 127/127/127
f 128/128/128 129/129/129 127/127/127
f 128/128/128 130/130/130 129/129/129
f 130/130/130 131/131/131 129/129/129
f 130/130/130 132/132/132 131/131/131
f 135/135/135 134/134/134 133/133/133
f 133/133/133 136/136/136 135/135/135
f 136/136/136 137/137/137 135/135/135
f 136/136/136 138/138/138 137/137/137
f 138/138/138 139/139/139 137/137/137
f 138/138/138 140/140/140 139/139/139
f 140/140/140 141/141/141 139/139/139
f 140/140/140 142/142/142 141/141/141
f 142/142/142 143/143/143 141/141/141
f 142/142/142 144/144/144 143/143/143
f 147/147/147 146/146/146 145/145/145
f 148/148/148 147/147/147 145/145/145
f 151/151/151 150/150/150 149/149/149
f 152/152/152 151/151/151 149/149/149
f 155/155/155 154/154/154 153/153/153
f 156/156/156 155/155/155 153/153/153
f 159/159/159 158/158/158 157/157/157
f 160/160/160 159/159/159 157/157/157
f 163/163/163 162/162/162 161/161/161
f 164/164/164 163/163/163 161/161/161
f 167/167/167 166/166/166 165/165/165
f 168/168/168 167/167/167 165/165/165
f 171/171/171 170/170/170 169/169/169
f 172/172/172 171/171/171 169/169/169
f 175/175/175 174/174/174 173/173/173
f 176/176/176 175/175/175 173/173/173
f 179/179/179 178/178/178 177/177/177
f 180/180/180 179/179/179 177/177/177
f 183/183/183 182/182/182 181/181/181
f 184/184/184 183/183/183 181/181/181
f 187/187/187 186/186/186 185/185/185
f 188/188/188 187/187/187 185/185/185
f 191/191/191 190/190/190 189/189/189
f 192/192/192 191/191/191 189/189/189
f 195/195/195 194/194/194 193/193/193
f 196/196/196 195/195/195 193/193/193
f 199/199/199 198/198/198 197/197/197
f 200/200/200 199/199/199 197/197/197
f 203/203/203 202/202/202 201/201/201
f 204/204/204 203/203/203 201/201/201
f 207/207/207 206/206/206 205/205/205
f 208/208/208 207/207/207 205/205/205
f 211/211/211 210/210/210 209/209/209
f 212/212/212 211/211/211 209/209/209
f 215/215/215 214/214/214 213/213/213
f 216/216/216 215/215/215 213/213/213
f 219/219/219 218/218/218 217/217/217
f 220/220/220 219/219/219 217/217/217
f 223/223/223 222/222/222 221/221/221
f 224/224/224 223/223/223 221/221/221
f 227/227/227 226/226/226 225/225/225
f 228/228/228 227/227/227 225/225/225
f 231/231/231 230/230/230 229/229/229
f 232/232/232 231/231/231 229/229/229
f 235/235/235 234/234/234 233/233/233
f 236/236/236 235/235/235 233/233/233
f 239/239/239 238/238/238 237/237/237
f 240/240/240 239/239/239 237/237/237
