g Melee Helmet
v 2.1040579E-07 0.47131547 -0.10648982
v 0.12659818 0.4363444 -0.12932816
v 0.19498678 0.47073966 0.15330625
v 3.055618E-07 0.55288124 0.09498047
v 1.0815644E-07 0.19498673 0.6671215
v 0.07461823 0.18014428 0.47073966
v -1.8101961E-14 -8.908817E-08 0.76458466
v -0 0.36028853 0.4976048
v 0.13787647 0.33286318 0.36028853
v -0 0.5229124 0.26545006
v 0.1801443 0.43490672 0.19498675
v 3.055618E-07 0.55288124 0.09498047
v 0.19498678 0.47073966 0.15330625
v 0.33286327 0.33286318 0.19498675
v 0.3602886 0.3602885 0.15330625
v 0.2547625 0.25476244 0.36028853
v 0.1378765 0.13787645 0.47073966
v 0.07461823 0.18014428 0.47073966
v -1.8101961E-14 -8.908817E-08 0.76458466
v 0.18014432 0.07461818 0.47073966
v -1.8101961E-14 -8.908817E-08 0.76458466
v 0.33286324 0.13787639 0.36028853
v 0.43490684 0.18014422 0.19498675
v 0.3602886 0.3602885 0.15330625
v 0.47073975 0.19498667 -2.2272042E-08
v 0.1949868 -4.8945797E-08 0.47073966
v -1.8101961E-14 -8.908817E-08 0.76458466
v 0.3602886 -9.450088E-08 0.36028853
v 0.47073975 -1.096859E-07 0.19498675
v 0.18014431 -0.07461827 0.47073966
v -1.8101961E-14 -8.908817E-08 0.76458466
v 0.33286324 -0.13787659 0.36028853
v 0.50952494 -1.2487092E-07 -2.2272042E-08
v 0.43490684 0.18014422 -0.19498673
v 0.47073975 -1.096859E-07 -0.19498673
v 0.43490678 -0.18014441 0.19498675
v 0.47073963 -0.19498688 -2.2272042E-08
v 0.43490678 -0.18014441 -0.19498673
v 0.13787647 -0.13787656 0.47073966
v -1.8101961E-14 -8.908817E-08 0.76458466
v 0.2547625 -0.2547626 0.36028853
v 0.36028847 -0.36028865 -2.2272042E-08
v 0.33286318 -0.33286336 -0.19498673
v 0.33286318 -0.33286336 0.19498675
v 0.07461819 -0.18014435 0.47073966
v -1.8101961E-14 -8.908817E-08 0.76458466
v 0.13787644 -0.3328633 0.36028853
v 0.19498664 -0.47073978 -2.2272042E-08
v 0.18014419 -0.43490687 -0.19498673
v 0.18014419 -0.43490687 0.19498675
v -1.3480398E-07 -0.5456532 0.37011617
v -1.49989E-07 -0.5403007 0.09498047
v -1.3480398E-07 -0.47073975 -0.10000624
v -4.369382E-08 -0.40442637 0.5443243
v -1.3480398E-07 -0.5456532 0.37011617
v -3.610131E-08 -0.19498682 0.7118978
v 0.07461819 -0.18014435 0.47073966
v -1.8101961E-14 -8.908817E-08 0.76458466
v -0.19498692 -0.47073966 -2.2272042E-08
v -0.18014441 -0.43490672 -0.19498673
v -0.18014441 -0.43490672 0.19498675
v -1.3480398E-07 -0.5456532 0.37011617
v -0.36028865 -0.36028844 -2.2272042E-08
v -0.3328633 -0.33286312 -0.19498673
v -0.3328633 -0.33286312 0.19498675
v -0.47073972 -0.1949866 -2.2272042E-08
v -0.43490675 -0.18014415 -0.19498673
v -0.5095249 1.7882961E-07 -2.2272042E-08
v -0.47073957 1.3327453E-07 -0.19498673
v -0.47073957 1.3327453E-07 0.19498675
v -0.43490675 -0.18014415 0.19498675
v -0.3602885 4.2164363E-08 0.36028853
v -0.3328632 -0.13787642 0.36028853
v -0.19498678 2.6979334E-08 0.47073966
v -0.25476253 -0.25476247 0.36028853
v -0.18014431 -0.0746182 0.47073966
v -1.8101961E-14 -8.908817E-08 0.76458466
v -0.13787654 -0.33286324 0.36028853
v -1.3480398E-07 -0.5456532 0.37011617
v -4.369382E-08 -0.40442637 0.5443243
v -0.1378765 -0.13787647 0.47073966
v -1.8101961E-14 -8.908817E-08 0.76458466
v -0.07461825 -0.18014431 0.47073966
v -1.8101961E-14 -8.908817E-08 0.76458466
v -0.07461825 -0.18014431 0.47073966
v -3.610131E-08 -0.19498682 0.7118978
v -1.8101961E-14 -8.908817E-08 0.76458466
v -0.47073957 1.3327453E-07 -0.19498673
v -0.43490654 0.18014435 -0.19498673
v -0.47073954 0.19498692 -2.2272042E-08
v -0.5095249 1.7882961E-07 -2.2272042E-08
v -0.43490654 0.18014435 0.19498675
v -0.47073957 1.3327453E-07 0.19498675
v -0.33286294 0.3328632 0.19498675
v -0.3602883 0.36028865 0.15330625
v -0.3328631 0.1378765 0.36028853
v -0.3602885 4.2164363E-08 0.36028853
v -0.25476232 0.25476247 0.36028853
v -0.18014425 0.07461824 0.47073966
v -0.19498678 2.6979334E-08 0.47073966
v -1.8101961E-14 -8.908817E-08 0.76458466
v -0.13787639 0.13787648 0.47073966
v -1.8101961E-14 -8.908817E-08 0.76458466
v -0.07461811 0.18014428 0.47073966
v -1.8101961E-14 -8.908817E-08 0.76458466
v -0.1378763 0.33286315 0.36028853
v -0.18014398 0.43490666 0.19498675
v -0.3602883 0.36028865 0.15330625
v -0.19498646 0.4707397 0.15330625
v -0 0.5229124 0.26545006
v 3.055618E-07 0.55288124 0.09498047
v -0 0.36028853 0.4976048
v 1.0815644E-07 0.19498673 0.6671215
v -0.07461811 0.18014428 0.47073966
v -1.8101961E-14 -8.908817E-08 0.76458466
v -0.1265978 0.43634436 -0.12932816
v 2.1040579E-07 0.47131547 -0.10648982
v 3.055618E-07 0.55288124 0.09498047
v -0.19498646 0.4707397 0.15330625
v 2.1065509E-07 0.42345828 -0.10556504
v 0.17236468 0.4088245 0.1468056
v 0.12121113 0.38935763 -0.1290087
v 2.9990574E-07 0.4433244 0.09274335
v -0.121210754 0.3893576 -0.1290087
v -0.17236435 0.40882453 0.1468056
v 0.15663934 0.37816072 0.17018935
v 1.6318596E-08 0.4093182 0.26516986
v -0.15663901 0.37816066 0.17018935
v 1.333406E-08 0.31267264 0.40922308
v 0.119654655 0.28887182 0.31424257
v 1.333406E-08 0.31267264 0.40922308
v -0.11965448 0.2888718 0.31424257
v 1.0945446E-07 0.16828659 0.5051016
v 0.064400524 0.15547657 0.4101211
v 1.0945446E-07 0.16828659 0.5051016
v -1.1749524E-09 -8.4511036E-08 0.5382672
v 0.11899665 0.1189966 0.4101211
v -1.1749524E-09 -8.4511036E-08 0.5382672
v 0.22109297 0.22109291 0.31424257
v -0.06440041 0.15547657 0.4101211
v -1.1749524E-09 -8.4511036E-08 0.5382672
v 0.28943178 0.2894317 0.17018935
v 0.17236468 0.4088245 0.1468056
v 0.31435105 0.31435096 0.14038381
v 0.1554766 0.06440047 0.4101211
v -1.1749524E-09 -8.4511036E-08 0.5382672
v 0.28887188 0.11965459 0.31424257
v 0.37816083 0.15663926 0.17018935
v 0.31435105 0.31435096 0.14038381
v 0.4081375 0.17378895 -0.004372704
v 0.16828667 -4.472724E-08 0.4101211
v -1.1749524E-09 -8.4511036E-08 0.5382672
v 0.3126727 -8.4459174E-08 0.31424257
v 0.40931833 -9.6364595E-08 0.17018935
v 0.1554766 -0.06440056 0.4101211
v -1.1749524E-09 -8.4511036E-08 0.5382672
v 0.28887188 -0.11965475 0.31424257
v 0.4432867 -1.1015376E-07 -2.0265158E-08
v 0.37114343 0.16746092 -0.18230343
v 0.40577424 -9.530957E-08 -0.18206432
v 0.37816077 -0.15663944 0.17018937
v 0.40954348 -0.1696386 -2.059964E-08
v 0.3748865 -0.15528318 -0.18206432
v 0.11899662 -0.118996695 0.4101211
v -1.1749524E-09 -8.4511036E-08 0.5382672
v 0.22109298 -0.22109306 0.31424257
v 0.313451 -0.31345114 -2.160308E-08
v 0.28692567 -0.28692582 -0.18206432
v 0.2894317 -0.28943187 0.17018937
v 0.064400494 -0.15547663 0.4101211
v -1.1749524E-09 -8.4511036E-08 0.5382672
v 0.16963838 -0.4095436 -2.12686E-08
v 0.15528299 -0.37488657 -0.18206431
v 0.15663925 -0.37816086 0.17018935
v 0.11965464 -0.28887194 0.31424257
v -2.8799958E-08 -0.16828668 0.5051016
v -1.1749524E-09 -8.4511036E-08 0.5382672
v -2.7890492E-08 -0.31267273 0.40922308
v -1.1082564E-07 -0.40931833 0.26516986
v -1.2557189E-07 -0.44328678 0.09498047
v -1.11051776E-07 -0.40577424 -0.0870838
v -0.16963862 -0.4095435 -2.2272042E-08
v -0.15528317 -0.37488645 -0.1820643
v -0.15663943 -0.37816074 0.17018935
v -1.1082564E-07 -0.40931833 0.26516986
v -0.31345114 -0.31345096 -2.2272042E-08
v -0.28692576 -0.28692564 -0.1820643
v -0.1196547 -0.28887188 0.31424257
v -2.7890492E-08 -0.31267273 0.40922308
v -0.28943178 -0.28943166 0.17018935
v -0.40954354 -0.16963835 -2.059964E-08
v -0.37488645 -0.15528296 -0.18206428
v -0.44328666 1.3902635E-07 -2.0934118E-08
v -0.40577406 9.389587E-08 -0.18206428
v -0.40931812 9.83061E-08 0.17018935
v -0.37816074 -0.15663922 0.17018935
v -0.31267262 1.7800893E-08 0.31424257
v -0.28887185 -0.119654626 0.31424257
v -0.16828665 1.578393E-08 0.4101211
v -0.22109298 -0.22109295 0.31424257
v -0.1554766 -0.064400494 0.4101211
v -1.1749524E-09 -8.4511036E-08 0.5382672
v -0.118996635 -0.11899663 0.4101211
v -1.1749524E-09 -8.4511036E-08 0.5382672
v -0.06440054 -0.1554766 0.4101211
v -1.1749524E-09 -8.4511036E-08 0.5382672
v -2.8799958E-08 -0.16828668 0.5051016
v -1.1749524E-09 -8.4511036E-08 0.5382672
v -0.40577406 9.389587E-08 -0.18206428
v -0.40813732 0.17378916 -0.0043727183
v -0.37114316 0.167461 -0.18230338
v -0.44328666 1.3902635E-07 -2.0934118E-08
v -0.37816057 0.15663937 0.17018935
v -0.40931812 9.83061E-08 0.17018935
v -0.28943145 0.28943172 0.17018935
v -0.31435075 0.31435108 0.14038377
v -0.28887174 0.11965466 0.31424257
v -0.31267262 1.7800893E-08 0.31424257
v -0.2210928 0.22109292 0.31424257
v -0.15547653 0.06440052 0.4101211
v -0.16828665 1.578393E-08 0.4101211
v -1.1749524E-09 -8.4511036E-08 0.5382672
v -0.118996546 0.11899662 0.4101211
v -1.1749524E-09 -8.4511036E-08 0.5382672
v -1.1749524E-09 -8.4511036E-08 0.5382672
v -0.31435075 0.31435108 0.14038377
v -0.17236435 0.40882453 0.1468056
v 0.12659818 0.4363444 -0.12932816
v 0.12121113 0.38935763 -0.1290087
v 0.17236468 0.4088245 0.1468056
v 0.19498678 0.47073966 0.15330625
v 2.1040579E-07 0.47131547 -0.10648982
v 0.12121113 0.38935763 -0.1290087
v 0.12659818 0.4363444 -0.12932816
v 2.1065509E-07 0.42345828 -0.10556504
v -0.1265978 0.43634436 -0.12932816
v -0.121210754 0.3893576 -0.1290087
v 2.1040579E-07 0.47131547 -0.10648982
v 0.19498678 0.47073966 0.15330625
v 0.17236468 0.4088245 0.1468056
v 0.31435105 0.31435096 0.14038381
v 0.3602886 0.3602885 0.15330625
v 0.47073975 0.19498667 -2.2272042E-08
v 0.4081375 0.17378895 -0.004372704
v 0.37114343 0.16746092 -0.18230343
v 0.43490684 0.18014422 -0.19498673
v 0.3602886 0.3602885 0.15330625
v 0.31435105 0.31435096 0.14038381
v 0.4081375 0.17378895 -0.004372704
v 0.47073975 0.19498667 -2.2272042E-08
v 0.43490684 0.18014422 -0.19498673
v 0.37114343 0.16746092 -0.18230343
v 0.40577424 -9.530957E-08 -0.18206432
v 0.47073975 -1.096859E-07 -0.19498673
v 0.3748865 -0.15528318 -0.18206432
v 0.43490678 -0.18014441 -0.19498673
v 0.28692567 -0.28692582 -0.18206432
v 0.33286318 -0.33286336 -0.19498673
v 0.15528299 -0.37488657 -0.18206431
v 0.18014419 -0.43490687 -0.19498673
v -1.11051776E-07 -0.40577424 -0.0870838
v -1.3480398E-07 -0.47073975 -0.10000624
v -1.3480398E-07 -0.47073975 -0.10000624
v -1.11051776E-07 -0.40577424 -0.0870838
v -0.15528317 -0.37488645 -0.1820643
v -0.18014441 -0.43490672 -0.19498673
v -0.28692576 -0.28692564 -0.1820643
v -0.3328633 -0.33286312 -0.19498673
v -0.37488645 -0.15528296 -0.18206428
v -0.43490675 -0.18014415 -0.19498673
v -0.40577406 9.389587E-08 -0.18206428
v -0.47073957 1.3327453E-07 -0.19498673
v -0.43490654 0.18014435 -0.19498673
v -0.37114316 0.167461 -0.18230338
v -0.40813732 0.17378916 -0.0043727183
v -0.47073954 0.19498692 -2.2272042E-08
v -0.47073957 1.3327453E-07 -0.19498673
v -0.40577406 9.389587E-08 -0.18206428
v -0.37114316 0.167461 -0.18230338
v -0.43490654 0.18014435 -0.19498673
v -0.47073954 0.19498692 -2.2272042E-08
v -0.40813732 0.17378916 -0.0043727183
v -0.31435075 0.31435108 0.14038377
v -0.3602883 0.36028865 0.15330625
v -0.19498646 0.4707397 0.15330625
v -0.17236435 0.40882453 0.1468056
v -0.121210754 0.3893576 -0.1290087
v -0.1265978 0.43634436 -0.12932816
v -0.3602883 0.36028865 0.15330625
v -0.31435075 0.31435108 0.14038377
v -0.17236435 0.40882453 0.1468056
v -0.19498646 0.4707397 0.15330625
vt 0.75 0.4351157
vt 0.68750006 0.43511564
vt 0.6875 0.5
vt 0.7499999 0.5
vt 0.7499999 0.875
vt 0.6875 0.875
vt 0.71874994 1
vt 0.75 0.75
vt 0.6875 0.75
vt 0.75 0.625
vt 0.6875 0.625
vt 0.7499999 0.5
vt 0.6875 0.5
vt 0.625 0.625
vt 0.625 0.5
vt 0.625 0.75
vt 0.625 0.875
vt 0.6875 0.875
vt 0.65624994 1
vt 0.56249994 0.875
vt 0.59374994 1
vt 0.56249994 0.75
vt 0.5625 0.625
vt 0.625 0.5
vt 0.56249994 0.5
vt 0.49999997 0.875
vt 0.53124994 1
vt 0.49999997 0.75
vt 0.49999997 0.625
vt 0.43749997 0.875
vt 0.46874994 1
vt 0.43749994 0.75
vt 0.49999997 0.5
vt 0.5625 0.37500006
vt 0.49999997 0.37500006
vt 0.43749997 0.625
vt 0.43749994 0.5
vt 0.43749997 0.37500006
vt 0.37499994 0.875
vt 0.40624994 1
vt 0.375 0.75
vt 0.37499994 0.5
vt 0.37499994 0.37500006
vt 0.37499994 0.625
vt 0.31249997 0.875
vt 0.34374994 1
vt 0.3125 0.75
vt 0.31249997 0.5
vt 0.31249997 0.37500006
vt 0.31249997 0.625
vt 0.24999997 0.625
vt 0.24999997 0.5
vt 0.24999997 0.37500006
vt 0.24999997 0.75
vt 0.24999997 0.625
vt 0.24999997 0.875
vt 0.31249997 0.875
vt 0.28124997 1
vt 0.18749997 0.5
vt 0.18749997 0.375
vt 0.18749997 0.625
vt 0.24999997 0.625
vt 0.12499997 0.5
vt 0.12499997 0.375
vt 0.12499997 0.625
vt 0.06249994 0.5
vt 0.0625 0.375
vt 0 0.5
vt 0 0.375
vt 0 0.62500006
vt 0.0625 0.62500006
vt 0 0.75
vt 0.0625 0.75
vt 0 0.875
vt 0.125 0.75
vt 0.0625 0.875
vt 0.03125006 1
vt 0.18749997 0.75
vt 0.24999997 0.625
vt 0.24999997 0.75
vt 0.125 0.875
vt 0.09375003 1
vt 0.18749997 0.875
vt 0.15625003 1
vt 0.18749997 0.875
vt 0.24999997 0.875
vt 0.21875 1
vt 1 0.375
vt 0.93749994 0.375
vt 0.93749994 0.5
vt 1 0.5
vt 0.93749994 0.62500006
vt 1 0.62500006
vt 0.8749999 0.62500006
vt 0.8749999 0.5
vt 0.93749994 0.75
vt 1 0.75
vt 0.87499994 0.75000006
vt 0.93749994 0.875
vt 1 0.875
vt 0.96875 1
vt 0.87499994 0.875
vt 0.90625 1
vt 0.81249994 0.875
vt 0.84374994 1
vt 0.81249994 0.75000006
vt 0.8124999 0.62500006
vt 0.8749999 0.5
vt 0.8124999 0.5
vt 0.75 0.625
vt 0.7499999 0.5
vt 0.75 0.75
vt 0.7499999 0.875
vt 0.81249994 0.875
vt 0.7812499 1
vt 0.81249994 0.43511575
vt 0.75 0.4351157
vt 0.7499999 0.5
vt 0.8124999 0.5
vt 0.75 0.4351157
vt 0.6875 0.5
vt 0.6875 0.43511564
vt 0.7499999 0.5
vt 0.8124999 0.4351157
vt 0.8124999 0.5
vt 0.6875 0.625
vt 0.75 0.625
vt 0.8124999 0.62500006
vt 0.75 0.75
vt 0.6875 0.75
vt 0.75 0.75
vt 0.81249994 0.75000006
vt 0.7499999 0.875
vt 0.6875 0.875
vt 0.7499999 0.875
vt 0.71874994 1
vt 0.625 0.875
vt 0.65624994 1
vt 0.625 0.75
vt 0.81249994 0.875
vt 0.7812499 1
vt 0.625 0.625
vt 0.6875 0.5
vt 0.625 0.5
vt 0.56249994 0.875
vt 0.59374994 1
vt 0.56249994 0.75
vt 0.5625 0.625
vt 0.625 0.5
vt 0.56249994 0.5
vt 0.49999997 0.875
vt 0.53124994 1
vt 0.49999997 0.75
vt 0.49999997 0.625
vt 0.43749997 0.875
vt 0.46874994 1
vt 0.43749994 0.75
vt 0.49999997 0.5
vt 0.5625 0.37500006
vt 0.49999997 0.37500006
vt 0.43749997 0.625
vt 0.43749994 0.5
vt 0.43749997 0.37500006
vt 0.37499994 0.875
vt 0.40624994 1
vt 0.375 0.75
vt 0.37499994 0.5
vt 0.37499994 0.37500006
vt 0.37499994 0.625
vt 0.31249997 0.875
vt 0.34374994 1
vt 0.31249997 0.5
vt 0.31249997 0.37500006
vt 0.31249997 0.625
vt 0.3125 0.75
vt 0.24999997 0.875
vt 0.28124997 1
vt 0.24999997 0.75
vt 0.24999997 0.625
vt 0.24999997 0.5
vt 0.24999997 0.37500006
vt 0.18749997 0.5
vt 0.18749997 0.375
vt 0.18749997 0.625
vt 0.24999997 0.625
vt 0.12499997 0.5
vt 0.12499997 0.375
vt 0.18749997 0.75
vt 0.24999997 0.75
vt 0.12499997 0.625
vt 0.06249994 0.5
vt 0.0625 0.375
vt 0 0.5
vt 0 0.375
vt 0 0.62500006
vt 0.0625 0.62500006
vt 0 0.75
vt 0.0625 0.75
vt 0 0.875
vt 0.125 0.75
vt 0.0625 0.875
vt 0.03125006 1
vt 0.125 0.875
vt 0.09375003 1
vt 0.18749997 0.875
vt 0.15625003 1
vt 0.24999997 0.875
vt 0.21875 1
vt 1 0.375
vt 0.93749994 0.5
vt 0.93749994 0.375
vt 1 0.5
vt 0.93749994 0.62500006
vt 1 0.62500006
vt 0.8749999 0.62500006
vt 0.8749999 0.5
vt 0.93749994 0.75
vt 1 0.75
vt 0.87499994 0.75000006
vt 0.93749994 0.875
vt 1 0.875
vt 0.96875 1
vt 0.87499994 0.875
vt 0.90625 1
vt 0.84374994 1
vt 0.8749999 0.5
vt 0.8124999 0.5
vt 0.68750006 0.43511564
vt 0.6875 0.43511564
vt 0.6875 0.5
vt 0.6875 0.5
vt 0.75 0.4351157
vt 0.6875 0.43511564
vt 0.68750006 0.43511564
vt 0.75 0.4351157
vt 0.81249994 0.43511575
vt 0.8124999 0.4351157
vt 0.75 0.4351157
vt 0.6875 0.5
vt 0.6875 0.5
vt 0.625 0.5
vt 0.625 0.5
vt 0.56249994 0.5
vt 0.56249994 0.5
vt 0.5625 0.37500006
vt 0.5625 0.37500006
vt 0.625 0.5
vt 0.625 0.5
vt 0.56249994 0.5
vt 0.56249994 0.5
vt 0.5625 0.37500006
vt 0.5625 0.37500006
vt 0.49999997 0.37500006
vt 0.49999997 0.37500006
vt 0.43749997 0.37500006
vt 0.43749997 0.37500006
vt 0.37499994 0.37500006
vt 0.37499994 0.37500006
vt 0.31249997 0.37500006
vt 0.31249997 0.37500006
vt 0.24999997 0.37500006
vt 0.24999997 0.37500006
vt 0.24999997 0.37500006
vt 0.24999997 0.37500006
vt 0.18749997 0.375
vt 0.18749997 0.375
vt 0.12499997 0.375
vt 0.12499997 0.375
vt 0.0625 0.375
vt 0.0625 0.375
vt 0 0.375
vt 0 0.375
vt 0.93749994 0.375
vt 0.93749994 0.375
vt 0.93749994 0.5
vt 0.93749994 0.5
vt 1 0.375
vt 1 0.375
vt 0.93749994 0.375
vt 0.93749994 0.375
vt 0.93749994 0.5
vt 0.93749994 0.5
vt 0.8749999 0.5
vt 0.8749999 0.5
vt 0.8124999 0.5
vt 0.8124999 0.5
vt 0.8124999 0.4351157
vt 0.81249994 0.43511575
vt 0.8749999 0.5
vt 0.8749999 0.5
vt 0.8124999 0.5
vt 0.8124999 0.5
vn 0.35564032 0.89628667 -0.26493436
vn 0.35564032 0.89628667 -0.26493436
vn 0.35564032 0.89628667 -0.26493436
vn 0.35564032 0.89628667 -0.26493436
vn 0.8984588 0.2021548 0.38975027
vn 0.8521799 0.24819416 0.46063995
vn 0.9254716 0.16936956 0.33884537
vn 0.75522506 0.4147714 0.5075429
vn 0.5444702 0.5830184 0.603027
vn 0.49835125 0.76214236 0.41326165
vn 0.46135145 0.7263608 0.50946516
vn 0.40240368 0.86602634 0.29676536
vn 0.41671675 0.773102 0.47818455
vn 0.62853485 0.5657142 0.53377086
vn 0.41035935 0.6141462 0.674114
vn 0.5083076 0.50830764 0.6951595
vn 0.4918613 0.49186128 0.71843225
vn 0.39030564 0.5841336 0.71165264
vn 0.7715326 0 0.6361897
vn 0.6426478 0.26619336 0.71843225
vn 0.7715326 0 0.6361897
vn 0.6641359 0.2750941 0.6951595
vn 0.8587491 0.31887367 0.4010856
vn 0.8533288 0.42374286 0.30376306
vn 0.9654547 0.2508876 0.070374675
vn 0.69559693 0 0.71843225
vn 0.7715326 0 0.6361897
vn 0.71885544 0 0.69515955
vn 0.9272789 0 0.37437153
vn 0.64264786 -0.2661934 0.7184322
vn 0.7715326 0 0.6361897
vn 0.6641358 -0.27509412 0.69515944
vn 1 0 0
vn 0.9626373 0.19148016 -0.19148023
vn 0.98078537 0 -0.19509004
vn 0.8566939 -0.35485438 0.3743714
vn 0.92387944 -0.38268355 0
vn 0.90612745 -0.3753304 -0.19509006
vn 0.49186137 -0.4918613 0.7184322
vn 0.7715326 0 0.6361897
vn 0.5083075 -0.50830764 0.69515944
vn 0.7071066 -0.7071069 0
vn 0.6935197 -0.6935201 -0.19509023
vn 0.65568495 -0.6556853 0.37437144
vn 0.39030567 -0.58413386 0.71165246
vn 0.7715326 0 0.6361897
vn 0.646803 -0.4998614 0.5760074
vn 0.4163537 -0.90619373 -0.07390847
vn 0.3841676 -0.8950121 -0.22664632
vn 0.5591055 -0.7791519 0.28341386
vn 0.47364983 -0.8777763 0.07186448
vn -0 -0.99884963 -0.04795253
vn -0 -0.9640475 -0.26572987
vn 0.8565146 -0.28737292 0.42871854
vn 0.7644469 -0.47519976 0.43566743
vn 0.9355915 -0.108726814 0.33592704
vn 0.9099426 -0.14431469 0.38881573
vn 0.95372486 -0.07843347 0.2902707
vn -0.41635433 -0.90619344 -0.073908515
vn -0.38416824 -0.8950118 -0.22664651
vn -0.559106 -0.77915144 0.28341395
vn -0.47365052 -0.877776 0.071864694
vn -0.7071071 -0.7071064 0
vn -0.6935203 -0.69351953 -0.19509037
vn -0.6556854 -0.65568477 0.37437156
vn -0.92387974 -0.3826829 0
vn -0.90612763 -0.37532976 -0.19509044
vn -1 0 0
vn -0.98078525 0 -0.1950906
vn -0.92727876 0 0.37437162
vn -0.8566941 -0.35485372 0.3743716
vn -0.7188557 0 0.69515944
vn -0.66413605 -0.2750938 0.69515944
vn -0.69559705 0 0.7184321
vn -0.5083078 -0.50830746 0.69515944
vn -0.64264786 -0.2661932 0.71843225
vn -0.7715328 0 0.63618964
vn -0.6468033 -0.49986103 0.5760074
vn -0.7644471 -0.47519925 0.4356678
vn -0.8565147 -0.2873726 0.4287186
vn -0.4918616 -0.49186116 0.7184322
vn -0.7715328 0 0.63618964
vn -0.39030617 -0.58413357 0.71165246
vn -0.7715328 0 0.63618964
vn -0.9099427 -0.1443145 0.3888157
vn -0.93559164 -0.108726524 0.335927
vn -0.953725 -0.07843311 0.29027063
vn -0.98078525 0 -0.1950906
vn -0.9626372 0.19148082 -0.19148083
vn -0.9654546 0.25088823 0.07037484
vn -1 0 0
vn -0.8587489 0.31887406 0.40108567
vn -0.92727876 0 0.37437162
vn -0.6285346 0.5657145 0.5337711
vn -0.85332847 0.42374316 0.3037637
vn -0.6641359 0.27509445 0.6951593
vn -0.7188557 0 0.69515944
vn -0.5083075 0.508308 0.69515926
vn -0.6426477 0.2661938 0.71843225
vn -0.69559705 0 0.7184321
vn -0.7715328 0 0.63618964
vn -0.4918612 0.49186158 0.7184321
vn -0.7715328 0 0.63618964
vn -0.39030567 0.58413386 0.7116524
vn -0.7715328 0 0.63618964
vn -0.5444704 0.5830185 0.60302675
vn -0.46135145 0.7263608 0.5094653
vn -0.41035876 0.61414564 0.6741149
vn -0.41671652 0.7731019 0.47818482
vn -0.4983516 0.7621424 0.41326112
vn -0.40240374 0.8660264 0.29676497
vn -0.7552254 0.41477087 0.50754297
vn -0.89845854 0.20215546 0.38975057
vn -0.85217977 0.24819396 0.46064013
vn -0.9254713 0.16937076 0.3388457
vn -0.35563987 0.89628667 -0.26493463
vn -0.35563987 0.89628667 -0.26493463
vn -0.35563987 0.89628667 -0.26493463
vn -0.35563987 0.89628667 -0.26493463
vn -0 -0.99406886 0.10875292
vn -0.23449306 -0.96126777 -0.1448349
vn -0.23670559 -0.96581876 0.105662376
vn -0 -0.99758327 -0.06948048
vn 0.23670533 -0.9658188 0.10566226
vn 0.23449302 -0.9612679 -0.14483476
vn -0.3723457 -0.7455023 -0.5527975
vn -0 -0.8684005 -0.49586362
vn 0.37234572 -0.74550223 -0.55279756
vn 0.64596385 -0.46578148 -0.6047961
vn -0.4970488 -0.59523517 -0.6313776
vn -0.6459634 -0.46578184 -0.60479635
vn 0.497049 -0.5952353 -0.6313773
vn 0.78576857 -0.18929039 -0.5888437
vn -0.55689895 -0.37820232 -0.7394772
vn -0.78576875 -0.18928985 -0.5888435
vn -0.82954544 -0.10797849 -0.5479006
vn -0.40808746 -0.40808716 -0.81665754
vn -0.5224906 0 -0.8526451
vn -0.50718004 -0.5071801 -0.69680464
vn 0.5568989 -0.3782025 -0.73947716
vn 0.8295449 -0.107979685 -0.547901
vn -0.6193867 -0.5337741 -0.57571286
vn -0.3518448 -0.4999801 -0.7913439
vn -0.3518448 -0.4999801 -0.7913439
vn -0.5331916 -0.22085519 -0.8166576
vn -0.5224906 0 -0.8526451
vn -0.6626627 -0.27448386 -0.69680464
vn -0.8595382 -0.31417823 -0.4030956
vn -0.85795283 -0.40649313 -0.31413427
vn -0.9668761 -0.24823597 -0.05940996
vn -0.5771224 0 -0.81665766
vn -0.5224906 0 -0.8526451
vn -0.71726096 0 -0.6968047
vn -0.92718554 -0.0011316279 -0.37460065
vn -0.5331917 0.22085515 -0.81665754
vn -0.5224906 0 -0.8526451
vn -0.66266274 0.27448392 -0.69680464
vn -0.9999926 -0.0016641933 0.0034715787
vn -0.9600429 -0.1935817 0.20209847
vn -0.9789909 -0.0013753223 0.20389949
vn -0.8562739 0.35468036 -0.37549552
vn -0.9238753 0.38268182 0.0030228193
vn -0.9048721 0.37481046 0.20180064
vn -0.40808707 0.40808728 -0.81665766
vn -0.5224906 0 -0.8526451
vn -0.5071801 0.50718015 -0.69680464
vn -0.7071034 0.70710367 0.0030228447
vn -0.69255894 0.69255936 0.20180072
vn -0.65536356 0.65536386 -0.37549558
vn -0.5568983 0.3782026 -0.7394775
vn -0.5224906 0 -0.8526451
vn -0.36521947 0.9302421 0.035558682
vn -0.3685553 0.90703636 0.20359778
vn -0.44388783 0.8301771 -0.33729735
vn -0.49704865 0.5952353 -0.63137764
vn -0.78576845 0.18929033 -0.58884376
vn -0.8295451 0.10797933 -0.5479009
vn -0.64596313 0.46578193 -0.60479647
vn -0.43262935 0.8042697 -0.40740925
vn -0 0.9980526 -0.06237839
vn -0 0.9803162 0.19743386
vn 0.36522013 0.9302418 0.03555863
vn 0.36855578 0.90703607 0.20359808
vn 0.44388834 0.8301767 -0.33729762
vn 0.43262988 0.8042692 -0.40740958
vn 0.7071039 0.7071032 0.0030228044
vn 0.6925594 0.6925588 0.20180109
vn 0.49704906 0.59523493 -0.6313776
vn 0.64596343 0.46578157 -0.6047964
vn 0.65536386 0.6553634 -0.37549567
vn 0.9238756 0.38268113 0.0030228149
vn 0.9048723 0.37480974 0.20180123
vn 0.9999926 -0.0016649222 0.0034715289
vn 0.9789907 -0.0013759536 0.2039002
vn 0.92718554 -0.0011322467 -0.37460095
vn 0.85627407 0.35467976 -0.3754957
vn 0.7172612 0 -0.69680446
vn 0.6626629 0.27448362 -0.69680446
vn 0.5771226 0 -0.81665754
vn 0.50718033 0.50718004 -0.6968046
vn 0.5331919 0.2208551 -0.81665754
vn 0.52249086 0 -0.8526449
vn 0.40808746 0.40808707 -0.81665754
vn 0.52249086 0 -0.8526449
vn 0.5568987 0.37820232 -0.73947734
vn 0.52249086 0 -0.8526449
vn 0.7857684 0.18929017 -0.58884394
vn 0.8295449 0.1079791 -0.5479012
vn 0.9789907 -0.0013759536 0.2039002
vn 0.966876 -0.24823658 -0.059410203
vn 0.96004266 -0.19358233 0.20209923
vn 0.9999926 -0.0016649222 0.0034715289
vn 0.859538 -0.31417862 -0.40309575
vn 0.92718554 -0.0011322467 -0.37460095
vn 0.6193865 -0.53377426 -0.57571304
vn 0.85795236 -0.40649343 -0.314135
vn 0.6626628 -0.27448425 -0.69680446
vn 0.7172612 0 -0.69680446
vn 0.50718 -0.5071804 -0.69680446
vn 0.5331916 -0.22085558 -0.81665754
vn 0.5771226 0 -0.81665754
vn 0.52249086 0 -0.8526449
vn 0.4080873 -0.40808737 -0.8166574
vn 0.52249086 0 -0.8526449
vn 0.52249086 0 -0.8526449
vn 0.35184425 -0.4999795 -0.7913445
vn 0.35184425 -0.4999795 -0.7913445
vn 0.954799 -0.2352572 -0.181695
vn 0.954799 -0.2352572 -0.181695
vn 0.954799 -0.2352572 -0.181695
vn 0.954799 -0.2352572 -0.181695
vn -0 -0.0024716659 -0.999997
vn -0.18424398 -0.0024293328 -0.9828775
vn -0.18424398 -0.0024293328 -0.9828775
vn -0 -0.0024716659 -0.999997
vn 0.18424398 -0.002429371 -0.9828775
vn 0.18424398 -0.002429371 -0.9828775
vn -0 -0.0024716659 -0.999997
vn 0.06886884 0.1342487 -0.9885516
vn 0.06886884 0.1342487 -0.9885516
vn 0.06886884 0.1342487 -0.9885516
vn 0.06886884 0.1342487 -0.9885516
vn -0.25922763 0.9658071 -0.0042042304
vn -0.25922763 0.9658071 -0.0042042304
vn -0.25922763 0.9658071 -0.0042042304
vn -0.25922763 0.9658071 -0.0042042304
vn -0.24184456 0.589539 -0.7706847
vn -0.24184456 0.589539 -0.7706847
vn -0.24184456 0.589539 -0.7706847
vn -0.24184456 0.589539 -0.7706847
vn -0.19119945 -0.039432976 -0.9807587
vn -0.19119945 -0.039432976 -0.9807587
vn -0.19321568 -0.0004076168 -0.98115623
vn -0.1932195 -0.00032844316 -0.9811555
vn -0.1802396 0.07465767 -0.98078537
vn -0.18023962 0.074657686 -0.98078537
vn -0.13794939 0.13794947 -0.98078537
vn -0.1379494 0.13794948 -0.98078537
vn -0.3178651 0.12343787 -0.9400664
vn -0.30843934 0.12553345 -0.9429245
vn -0.50298226 0.07794378 -0.860775
vn -0.50298226 0.07794378 -0.860775
vn 0.5029827 0.07794349 -0.86077476
vn 0.5029827 0.07794349 -0.86077476
vn 0.31786552 0.12343778 -0.9400663
vn 0.30843973 0.12553339 -0.9429244
vn 0.13794975 0.13794969 -0.98078525
vn 0.13794975 0.13794968 -0.98078525
vn 0.18024012 0.07465778 -0.98078525
vn 0.18024012 0.0746578 -0.98078525
vn 0.19321622 -0.00040776655 -0.9811561
vn 0.19322 -0.00032859863 -0.9811554
vn 0.2592284 0.96580696 -0.0042046066
vn 0.2592284 0.96580696 -0.0042046066
vn 0.2592284 0.96580696 -0.0042046066
vn 0.2592284 0.96580696 -0.0042046066
vn 0.19322 -0.00032859863 -0.9811554
vn 0.19321622 -0.00040776655 -0.9811561
vn 0.19119988 -0.03943324 -0.9807587
vn 0.19119988 -0.03943324 -0.9807587
vn 0.24184479 0.58953875 -0.77068484
vn 0.24184479 0.58953875 -0.77068484
vn 0.24184479 0.58953875 -0.77068484
vn 0.24184479 0.58953875 -0.77068484
vn -0.95479876 -0.23525782 -0.18169494
vn -0.95479876 -0.23525782 -0.18169494
vn -0.95479876 -0.23525782 -0.18169494
vn -0.95479876 -0.23525782 -0.18169494
vn -0.06886902 0.1342491 -0.9885516
vn -0.06886902 0.1342491 -0.9885516
vn -0.06886902 0.1342491 -0.9885516
vn -0.06886902 0.1342491 -0.9885516
g Melee Helmet_0
f 3/3/3 2/2/2 1/1/1
f 4/4/4 3/3/3 1/1/1
f 7/7/7 6/6/6 5/5/5
f 5/5/5 6/6/6 8/8/8
f 6/6/6 9/9/9 8/8/8
f 8/8/8 9/9/9 10/10/10
f 9/9/9 11/11/11 10/10/10
f 10/10/10 11/11/11 12/12/12
f 11/11/11 13/13/13 12/12/12
f 11/11/11 14/14/14 13/13/13
f 14/14/14 15/15/15 13/13/13
f 9/9/9 16/16/16 11/11/11
f 16/16/16 14/14/14 11/11/11
f 17/17/17 16/16/16 9/9/9
f 18/18/18 17/17/17 9/9/9
f 19/19/19 17/17/17 18/18/18
f 17/17/17 20/20/20 16/16/16
f 21/21/21 20/20/20 17/17/17
f 16/16/16 22/22/22 14/14/14
f 20/20/20 22/22/22 16/16/16
f 22/22/22 23/23/23 14/14/14
f 14/14/14 23/23/23 24/24/24
f 23/23/23 25/25/25 24/24/24
f 20/20/20 26/26/26 22/22/22
f 27/27/27 26/26/26 20/20/20
f 22/22/22 28/28/28 23/23/23
f 26/26/26 28/28/28 22/22/22
f 23/23/23 29/29/29 25/25/25
f 28/28/28 29/29/29 23/23/23
f 26/26/26 30/30/30 28/28/28
f 31/31/31 30/30/30 26/26/26
f 30/30/30 32/32/32 28/28/28
f 28/28/28 32/32/32 29/29/29
f 29/29/29 33/33/33 25/25/25
f 25/25/25 33/33/33 34/34/34
f 33/33/33 35/35/35 34/34/34
f 29/29/29 36/36/36 33/33/33
f 32/32/32 36/36/36 29/29/29
f 33/33/33 37/37/37 35/35/35
f 36/36/36 37/37/37 33/33/33
f 37/37/37 38/38/38 35/35/35
f 30/30/30 39/39/39 32/32/32
f 40/40/40 39/39/39 30/30/30
f 32/32/32 41/41/41 36/36/36
f 39/39/39 41/41/41 32/32/32
f 37/37/37 42/42/42 38/38/38
f 42/42/42 43/43/43 38/38/38
f 36/36/36 44/44/44 37/37/37
f 41/41/41 44/44/44 36/36/36
f 44/44/44 42/42/42 37/37/37
f 39/39/39 45/45/45 41/41/41
f 46/46/46 45/45/45 39/39/39
f 45/45/45 47/47/47 41/41/41
f 41/41/41 47/47/47 44/44/44
f 42/42/42 48/48/48 43/43/43
f 48/48/48 49/49/49 43/43/43
f 44/44/44 50/50/50 42/42/42
f 47/47/47 50/50/50 44/44/44
f 50/50/50 48/48/48 42/42/42
f 50/50/50 51/51/51 48/48/48
f 51/51/51 52/52/52 48/48/48
f 48/48/48 52/52/52 49/49/49
f 52/52/52 53/53/53 49/49/49
f 47/47/47 54/54/54 50/50/50
f 54/54/54 55/55/55 50/50/50
f 56/56/56 54/54/54 47/47/47
f 57/57/57 56/56/56 47/47/47
f 58/58/58 56/56/56 57/57/57
f 52/52/52 59/59/59 53/53/53
f 59/59/59 60/60/60 53/53/53
f 61/61/61 59/59/59 52/52/52
f 62/62/62 61/61/61 52/52/52
f 59/59/59 63/63/63 60/60/60
f 63/63/63 64/64/64 60/60/60
f 61/61/61 65/65/65 59/59/59
f 65/65/65 63/63/63 59/59/59
f 63/63/63 66/66/66 64/64/64
f 66/66/66 67/67/67 64/64/64
f 66/66/66 68/68/68 67/67/67
f 68/68/68 69/69/69 67/67/67
f 70/70/70 68/68/68 66/66/66
f 71/71/71 66/66/66 63/63/63
f 71/71/71 70/70/70 66/66/66
f 65/65/65 71/71/71 63/63/63
f 72/72/72 70/70/70 71/71/71
f 73/73/73 72/72/72 71/71/71
f 73/73/73 71/71/71 65/65/65
f 74/74/74 72/72/72 73/73/73
f 75/75/75 65/65/65 61/61/61
f 75/75/75 73/73/73 65/65/65
f 76/76/76 74/74/74 73/73/73
f 76/76/76 73/73/73 75/75/75
f 77/77/77 74/74/74 76/76/76
f 78/78/78 75/75/75 61/61/61
f 78/78/78 61/61/61 79/79/79
f 80/80/80 78/78/78 79/79/79
f 81/81/81 76/76/76 75/75/75
f 81/81/81 75/75/75 78/78/78
f 82/82/82 76/76/76 81/81/81
f 83/83/83 81/81/81 78/78/78
f 84/84/84 81/81/81 83/83/83
f 85/85/85 78/78/78 80/80/80
f 86/86/86 85/85/85 80/80/80
f 87/87/87 85/85/85 86/86/86
f 90/90/90 89/89/89 88/88/88
f 91/91/91 90/90/90 88/88/88
f 92/92/92 90/90/90 91/91/91
f 93/93/93 92/92/92 91/91/91
f 92/92/92 94/94/94 90/90/90
f 94/94/94 95/95/95 90/90/90
f 96/96/96 92/92/92 93/93/93
f 97/97/97 96/96/96 93/93/93
f 98/98/98 94/94/94 92/92/92
f 96/96/96 98/98/98 92/92/92
f 99/99/99 96/96/96 97/97/97
f 100/100/100 99/99/99 97/97/97
f 101/101/101 99/99/99 100/100/100
f 99/99/99 102/102/102 96/96/96
f 102/102/102 98/98/98 96/96/96
f 103/103/103 102/102/102 99/99/99
f 102/102/102 104/104/104 98/98/98
f 105/105/105 104/104/104 102/102/102
f 104/104/104 106/106/106 98/98/98
f 98/98/98 106/106/106 94/94/94
f 106/106/106 107/107/107 94/94/94
f 94/94/94 107/107/107 108/108/108
f 107/107/107 109/109/109 108/108/108
f 107/107/107 110/110/110 109/109/109
f 110/110/110 111/111/111 109/109/109
f 112/112/112 110/110/110 107/107/107
f 106/106/106 112/112/112 107/107/107
f 113/113/113 112/112/112 106/106/106
f 114/114/114 113/113/113 106/106/106
f 115/115/115 113/113/113 114/114/114
f 118/118/118 117/117/117 116/116/116
f 119/119/119 118/118/118 116/116/116
f 122/122/122 121/121/121 120/120/120
f 121/121/121 123/123/123 120/120/120
f 120/120/120 123/123/123 124/124/124
f 123/123/123 125/125/125 124/124/124
f 121/121/121 126/126/126 123/123/123
f 123/123/123 127/127/127 125/125/125
f 126/126/126 127/127/127 123/123/123
f 127/127/127 128/128/128 125/125/125
f 127/127/127 129/129/129 128/128/128
f 126/126/126 130/130/130 127/127/127
f 130/130/130 131/131/131 127/127/127
f 129/129/129 132/132/132 128/128/128
f 129/129/129 133/133/133 132/132/132
f 130/130/130 134/134/134 131/131/131
f 134/134/134 135/135/135 131/131/131
f 134/134/134 136/136/136 135/135/135
f 137/137/137 134/134/134 130/130/130
f 137/137/137 138/138/138 134/134/134
f 139/139/139 130/130/130 126/126/126
f 139/139/139 137/137/137 130/130/130
f 133/133/133 140/140/140 132/132/132
f 133/133/133 141/141/141 140/140/140
f 142/142/142 139/139/139 126/126/126
f 142/142/142 126/126/126 143/143/143
f 144/144/144 142/142/142 143/143/143
f 145/145/145 137/137/137 139/139/139
f 145/145/145 146/146/146 137/137/137
f 147/147/147 139/139/139 142/142/142
f 147/147/147 145/145/145 139/139/139
f 148/148/148 147/147/147 142/142/142
f 148/148/148 142/142/142 149/149/149
f 150/150/150 148/148/148 149/149/149
f 151/151/151 145/145/145 147/147/147
f 151/151/151 152/152/152 145/145/145
f 153/153/153 147/147/147 148/148/148
f 153/153/153 151/151/151 147/147/147
f 154/154/154 148/148/148 150/150/150
f 154/154/154 153/153/153 148/148/148
f 155/155/155 151/151/151 153/153/153
f 155/155/155 156/156/156 151/151/151
f 157/157/157 155/155/155 153/153/153
f 157/157/157 153/153/153 154/154/154
f 158/158/158 154/154/154 150/150/150
f 158/158/158 150/150/150 159/159/159
f 160/160/160 158/158/158 159/159/159
f 161/161/161 154/154/154 158/158/158
f 161/161/161 157/157/157 154/154/154
f 162/162/162 158/158/158 160/160/160
f 162/162/162 161/161/161 158/158/158
f 163/163/163 162/162/162 160/160/160
f 164/164/164 155/155/155 157/157/157
f 164/164/164 165/165/165 155/155/155
f 166/166/166 157/157/157 161/161/161
f 166/166/166 164/164/164 157/157/157
f 167/167/167 162/162/162 163/163/163
f 168/168/168 167/167/167 163/163/163
f 169/169/169 161/161/161 162/162/162
f 169/169/169 166/166/166 161/161/161
f 167/167/167 169/169/169 162/162/162
f 170/170/170 164/164/164 166/166/166
f 170/170/170 171/171/171 164/164/164
f 172/172/172 167/167/167 168/168/168
f 173/173/173 172/172/172 168/168/168
f 174/174/174 169/169/169 167/167/167
f 172/172/172 174/174/174 167/167/167
f 175/175/175 166/166/166 169/169/169
f 175/175/175 170/170/170 166/166/166
f 174/174/174 175/175/175 169/169/169
f 176/176/176 170/170/170 175/175/175
f 176/176/176 177/177/177 170/170/170
f 178/178/178 176/176/176 175/175/175
f 178/178/178 175/175/175 174/174/174
f 179/179/179 178/178/178 174/174/174
f 179/179/179 174/174/174 172/172/172
f 180/180/180 179/179/179 172/172/172
f 180/180/180 172/172/172 173/173/173
f 181/181/181 180/180/180 173/173/173
f 182/182/182 180/180/180 181/181/181
f 183/183/183 182/182/182 181/181/181
f 182/182/182 184/184/184 180/180/180
f 184/184/184 185/185/185 180/180/180
f 186/186/186 182/182/182 183/183/183
f 187/187/187 186/186/186 183/183/183
f 184/184/184 188/188/188 185/185/185
f 188/188/188 189/189/189 185/185/185
f 190/190/190 184/184/184 182/182/182
f 186/186/186 190/190/190 182/182/182
f 191/191/191 186/186/186 187/187/187
f 192/192/192 191/191/191 187/187/187
f 193/193/193 191/191/191 192/192/192
f 194/194/194 193/193/193 192/192/192
f 193/193/193 195/195/195 191/191/191
f 191/191/191 196/196/196 186/186/186
f 195/195/195 196/196/196 191/191/191
f 196/196/196 190/190/190 186/186/186
f 195/195/195 197/197/197 196/196/196
f 197/197/197 198/198/198 196/196/196
f 196/196/196 198/198/198 190/190/190
f 197/197/197 199/199/199 198/198/198
f 190/190/190 200/200/200 184/184/184
f 198/198/198 200/200/200 190/190/190
f 200/200/200 188/188/188 184/184/184
f 199/199/199 201/201/201 198/198/198
f 198/198/198 201/201/201 200/200/200
f 199/199/199 202/202/202 201/201/201
f 201/201/201 203/203/203 200/200/200
f 200/200/200 203/203/203 188/188/188
f 201/201/201 204/204/204 203/203/203
f 203/203/203 205/205/205 188/188/188
f 203/203/203 206/206/206 205/205/205
f 188/188/188 205/205/205 189/189/189
f 205/205/205 207/207/207 189/189/189
f 205/205/205 208/208/208 207/207/207
f 211/211/211 210/210/210 209/209/209
f 210/210/210 212/212/212 209/209/209
f 210/210/210 213/213/213 212/212/212
f 213/213/213 214/214/214 212/212/212
f 215/215/215 213/213/213 210/210/210
f 216/216/216 215/215/215 210/210/210
f 213/213/213 217/217/217 214/214/214
f 217/217/217 218/218/218 214/214/214
f 215/215/215 219/219/219 213/213/213
f 219/219/219 217/217/217 213/213/213
f 217/217/217 220/220/220 218/218/218
f 220/220/220 221/221/221 218/218/218
f 220/220/220 222/222/222 221/221/221
f 223/223/223 220/220/220 217/217/217
f 219/219/219 223/223/223 217/217/217
f 223/223/223 224/224/224 220/220/220
f 140/140/140 223/223/223 219/219/219
f 140/140/140 225/225/225 223/223/223
f 132/132/132 140/140/140 219/219/219
f 132/132/132 219/219/219 215/215/215
f 128/128/128 132/132/132 215/215/215
f 128/128/128 215/215/215 226/226/226
f 227/227/227 128/128/128 226/226/226
f 230/230/230 229/229/229 228/228/228
f 231/231/231 230/230/230 228/228/228
f 234/234/234 233/233/233 232/232/232
f 233/233/233 235/235/235 232/232/232
f 235/235/235 237/237/237 236/236/236
f 238/238/238 235/235/235 236/236/236
f 241/241/241 240/240/240 239/239/239
f 242/242/242 241/241/241 239/239/239
f 245/245/245 244/244/244 243/243/243
f 246/246/246 245/245/245 243/243/243
f 249/249/249 248/248/248 247/247/247
f 250/250/250 249/249/249 247/247/247
f 253/253/253 252/252/252 251/251/251
f 254/254/254 253/253/253 251/251/251
f 255/255/255 253/253/253 254/254/254
f 256/256/256 255/255/255 254/254/254
f 257/257/257 255/255/255 256/256/256
f 258/258/258 257/257/257 256/256/256
f 259/259/259 257/257/257 258/258/258
f 260/260/260 259/259/259 258/258/258
f 261/261/261 259/259/259 260/260/260
f 262/262/262 261/261/261 260/260/260
f 265/265/265 264/264/264 263/263/263
f 266/266/266 265/265/265 263/263/263
f 267/267/267 265/265/265 266/266/266
f 268/268/268 267/267/267 266/266/266
f 269/269/269 267/267/267 268/268/268
f 270/270/270 269/269/269 268/268/268
f 271/271/271 269/269/269 270/270/270
f 272/272/272 271/271/271 270/270/270
f 275/275/275 274/274/274 273/273/273
f 276/276/276 275/275/275 273/273/273
f 279/279/279 278/278/278 277/277/277
f 280/280/280 279/279/279 277/277/277
f 283/283/283 282/282/282 281/281/281
f 284/284/284 283/283/283 281/281/281
f 287/287/287 286/286/286 285/285/285
f 288/288/288 287/287/287 285/285/285
f 291/291/291 290/290/290 289/289/289
f 292/292/292 291/291/291 289/289/289
