g Melee Helmet Morningstar
v 0.43490684 0.18014422 0.19498675
v 0.53684443 0.10330835 0.36444384
v 0.33286324 0.13787639 0.36028853
v 0.1378765 0.13787645 0.47073966
v 0.18014432 0.07461818 0.47073966
v -1.8101961E-14 -8.908817E-08 0.76458466
v 0.18014431 -0.07461827 0.47073966
v 0.37311298 -0.077992864 0.56611973
v 0.33286324 -0.13787659 0.36028853
v -0.25476232 0.25476247 0.36028853
v -0.30365616 0.44975668 0.37058115
v -0.1378763 0.33286315 0.36028853
v 0.1949868 -4.8945797E-08 0.47073966
v 0.18014431 -0.07461827 0.47073966
v -1.8101961E-14 -8.908817E-08 0.76458466
v 0.33286324 -0.13787659 0.36028853
v 0.37311298 -0.077992864 0.56611973
v 0.3602886 -9.450088E-08 0.36028853
v -0.25476253 -0.25476247 0.36028853
v -0.21484016 -0.3148649 0.56611973
v -0.13787654 -0.33286324 0.36028853
v 0.13787647 -0.13787656 0.47073966
v 0.07461819 -0.18014435 0.47073966
v -1.8101961E-14 -8.908817E-08 0.76458466
v -0.07461825 -0.18014431 0.47073966
v -0.1378765 -0.13787647 0.47073966
v -1.8101961E-14 -8.908817E-08 0.76458466
v -0.25476232 0.25476247 0.36028853
v -0.3189798 0.20868157 0.56611973
v -0.3328631 0.1378765 0.36028853
v -0.3328631 0.1378765 0.36028853
v -0.3189798 0.20868157 0.56611973
v -0.18014425 0.07461824 0.47073966
v -0.18014431 -0.0746182 0.47073966
v -0.19498678 2.6979334E-08 0.47073966
v -1.8101961E-14 -8.908817E-08 0.76458466
v -0.3602885 4.2164363E-08 0.36028853
v -0.53684425 0.103308596 0.36444378
v -0.3328631 0.1378765 0.36028853
v -0.18014425 0.07461824 0.47073966
v -0.13787639 0.13787648 0.47073966
v -1.8101961E-14 -8.908817E-08 0.76458466
v 0.3602886 -9.450088E-08 0.36028853
v 0.37311298 -0.077992864 0.56611973
v 0.1949868 -4.8945797E-08 0.47073966
v -0.47073957 1.3327453E-07 0.19498675
v -0.53684425 0.103308596 0.36444378
v -0.3602885 4.2164363E-08 0.36028853
v -0.13787654 -0.33286324 0.36028853
v -0.21484016 -0.3148649 0.56611973
v -0.07461825 -0.18014431 0.47073966
v -0.07461825 -0.18014431 0.47073966
v -0.21484016 -0.3148649 0.56611973
v -0.1378765 -0.13787647 0.47073966
v -0.13787639 0.13787648 0.47073966
v -0.3189798 0.20868157 0.56611973
v -0.25476232 0.25476247 0.36028853
v 0.1949868 -4.8945797E-08 0.47073966
v 0.37311298 -0.077992864 0.56611973
v 0.18014431 -0.07461827 0.47073966
v -0.3602885 4.2164363E-08 0.36028853
v -0.37311298 -0.077992715 0.56611973
v -0.3328632 -0.13787642 0.36028853
v -0.1378765 -0.13787647 0.47073966
v -0.21484016 -0.3148649 0.56611973
v -0.25476253 -0.25476247 0.36028853
v 0.2547625 -0.2547626 0.36028853
v 0.20534848 -0.31093347 0.5719393
v 0.13787647 -0.13787656 0.47073966
v 0.1378765 0.13787645 0.47073966
v 0.31486493 0.21484002 0.56611973
v 0.18014432 0.07461818 0.47073966
v -0.18014431 -0.0746182 0.47073966
v -0.37311298 -0.077992715 0.56611973
v -0.19498678 2.6979334E-08 0.47073966
v 0.13787644 -0.3328633 0.36028853
v 0.20534848 -0.31093347 0.5719393
v 0.2547625 -0.2547626 0.36028853
v -0.3328632 -0.13787642 0.36028853
v -0.37311298 -0.077992715 0.56611973
v -0.18014431 -0.0746182 0.47073966
v 0.07461819 -0.18014435 0.47073966
v 0.20534848 -0.31093347 0.5719393
v 0.13787644 -0.3328633 0.36028853
v -0.18014425 0.07461824 0.47073966
v -0.3189798 0.20868157 0.56611973
v -0.13787639 0.13787648 0.47073966
v 0.13787647 -0.13787656 0.47073966
v 0.20534848 -0.31093347 0.5719393
v 0.07461819 -0.18014435 0.47073966
v -0.19498678 2.6979334E-08 0.47073966
v -0.37311298 -0.077992715 0.56611973
v -0.3602885 4.2164363E-08 0.36028853
v 0.33286324 0.13787639 0.36028853
v 0.31486493 0.21484002 0.56611973
v 0.2547625 0.25476244 0.36028853
v 0.18014432 0.07461818 0.47073966
v 0.31486493 0.21484002 0.56611973
v 0.33286324 0.13787639 0.36028853
v 0.2547625 0.25476244 0.36028853
v 0.31486493 0.21484002 0.56611973
v 0.1378765 0.13787645 0.47073966
v 0.2547625 0.25476244 0.36028853
v 0.29931667 0.45265636 0.3705812
v 0.33286327 0.33286318 0.19498675
v 0.3602886 -9.450088E-08 0.36028853
v 0.53684443 0.10330835 0.36444384
v 0.47073975 -1.096859E-07 0.19498675
v 0.1801443 0.43490672 0.19498675
v 0.29931667 0.45265636 0.3705812
v 0.13787647 0.33286318 0.36028853
v -0.3328631 0.1378765 0.36028853
v -0.53684425 0.103308596 0.36444378
v -0.43490654 0.18014435 0.19498675
v -0.1378763 0.33286315 0.36028853
v -0.30365616 0.44975668 0.37058115
v -0.18014398 0.43490666 0.19498675
v -0.33286294 0.3328632 0.19498675
v -0.30365616 0.44975668 0.37058115
v -0.25476232 0.25476247 0.36028853
v 0.33286327 0.33286318 0.19498675
v 0.29931667 0.45265636 0.3705812
v 0.1801443 0.43490672 0.19498675
v 0.13787647 0.33286318 0.36028853
v 0.29931667 0.45265636 0.3705812
v 0.2547625 0.25476244 0.36028853
v 0.47073975 -1.096859E-07 0.19498675
v 0.53684443 0.10330835 0.36444384
v 0.43490684 0.18014422 0.19498675
v -0.43490654 0.18014435 0.19498675
v -0.53684425 0.103308596 0.36444378
v -0.47073957 1.3327453E-07 0.19498675
v -0.18014398 0.43490666 0.19498675
v -0.30365616 0.44975668 0.37058115
v -0.33286294 0.3328632 0.19498675
v 0.33286324 0.13787639 0.36028853
v 0.53684443 0.10330835 0.36444384
v 0.3602886 -9.450088E-08 0.36028853
v 2.1040579E-07 0.47131547 -0.10648982
v 0.12659818 0.4363444 -0.12932816
v 0.19498678 0.47073966 0.15330625
v 3.055618E-07 0.55288124 0.09498047
v 1.0815644E-07 0.19498673 0.6671215
v 0.07461823 0.18014428 0.47073966
v -1.8101961E-14 -8.908817E-08 0.76458466
v -0 0.36028853 0.4976048
v 0.13787647 0.33286318 0.36028853
v -0 0.5229124 0.26545006
v 0.1801443 0.43490672 0.19498675
v 3.055618E-07 0.55288124 0.09498047
v 0.19498678 0.47073966 0.15330625
v 0.33286327 0.33286318 0.19498675
v 0.3602886 0.3602885 0.15330625
v 0.07461823 0.18014428 0.47073966
v 0.1378765 0.13787645 0.47073966
v -1.8101961E-14 -8.908817E-08 0.76458466
v 0.13787647 0.33286318 0.36028853
v 0.2547625 0.25476244 0.36028853
v 0.33286327 0.33286318 0.19498675
v 0.33286324 0.13787639 0.36028853
v 0.2547625 0.25476244 0.36028853
v 0.43490684 0.18014422 0.19498675
v 0.3602886 0.3602885 0.15330625
v 0.47073975 0.19498667 -2.2272042E-08
v 0.47073975 -1.096859E-07 0.19498675
v 0.50952494 -1.2487092E-07 -2.2272042E-08
v 0.43490684 0.18014422 -0.19498673
v 0.47073975 -1.096859E-07 -0.19498673
v 0.47073963 -0.19498688 -2.2272042E-08
v 0.43490678 -0.18014441 -0.19498673
v 0.43490678 -0.18014441 0.19498675
v 0.36028847 -0.36028865 -2.2272042E-08
v 0.33286318 -0.33286336 -0.19498673
v 0.33286324 -0.13787659 0.36028853
v 0.3602886 -9.450088E-08 0.36028853
v 0.33286318 -0.33286336 0.19498675
v 0.19498664 -0.47073978 -2.2272042E-08
v 0.18014419 -0.43490687 -0.19498673
v 0.2547625 -0.2547626 0.36028853
v 0.13787647 -0.13787656 0.47073966
v 0.18014431 -0.07461827 0.47073966
v -1.8101961E-14 -8.908817E-08 0.76458466
v 0.13787644 -0.3328633 0.36028853
v 0.18014419 -0.43490687 0.19498675
v -1.3480398E-07 -0.5456532 0.37011617
v -1.49989E-07 -0.5403007 0.09498047
v -1.3480398E-07 -0.47073975 -0.10000624
v -4.369382E-08 -0.40442637 0.5443243
v -1.3480398E-07 -0.5456532 0.37011617
v -3.610131E-08 -0.19498682 0.7118978
v 0.07461819 -0.18014435 0.47073966
v -1.8101961E-14 -8.908817E-08 0.76458466
v -0.19498692 -0.47073966 -2.2272042E-08
v -0.18014441 -0.43490672 -0.19498673
v -0.18014441 -0.43490672 0.19498675
v -1.3480398E-07 -0.5456532 0.37011617
v -0.36028865 -0.36028844 -2.2272042E-08
v -0.3328633 -0.33286312 -0.19498673
v -0.3328633 -0.33286312 0.19498675
v -0.47073972 -0.1949866 -2.2272042E-08
v -0.43490675 -0.18014415 -0.19498673
v -0.5095249 1.7882961E-07 -2.2272042E-08
v -0.47073957 1.3327453E-07 -0.19498673
v -0.47073957 1.3327453E-07 0.19498675
v -0.43490675 -0.18014415 0.19498675
v -0.3602885 4.2164363E-08 0.36028853
v -0.3328632 -0.13787642 0.36028853
v -0.25476253 -0.25476247 0.36028853
v -0.18014431 -0.0746182 0.47073966
v -0.1378765 -0.13787647 0.47073966
v -1.8101961E-14 -8.908817E-08 0.76458466
v -0.13787654 -0.33286324 0.36028853
v -1.3480398E-07 -0.5456532 0.37011617
v -4.369382E-08 -0.40442637 0.5443243
v -0.07461825 -0.18014431 0.47073966
v -3.610131E-08 -0.19498682 0.7118978
v -1.8101961E-14 -8.908817E-08 0.76458466
v 0.33286324 0.13787639 0.36028853
v 0.3602886 -9.450088E-08 0.36028853
v 0.1949868 -4.8945797E-08 0.47073966
v 0.18014432 0.07461818 0.47073966
v -1.8101961E-14 -8.908817E-08 0.76458466
v -0.47073957 1.3327453E-07 -0.19498673
v -0.43490654 0.18014435 -0.19498673
v -0.47073954 0.19498692 -2.2272042E-08
v -0.5095249 1.7882961E-07 -2.2272042E-08
v -0.43490654 0.18014435 0.19498675
v -0.47073957 1.3327453E-07 0.19498675
v -0.33286294 0.3328632 0.19498675
v -0.3602883 0.36028865 0.15330625
v -0.25476232 0.25476247 0.36028853
v -0.3328631 0.1378765 0.36028853
v -0.19498678 2.6979334E-08 0.47073966
v -0.18014425 0.07461824 0.47073966
v -1.8101961E-14 -8.908817E-08 0.76458466
v -0.3602885 4.2164363E-08 0.36028853
v -0.3328631 0.1378765 0.36028853
v -0.3602883 0.36028865 0.15330625
v -0.18014398 0.43490666 0.19498675
v -0.33286294 0.3328632 0.19498675
v -0.19498646 0.4707397 0.15330625
v -0 0.5229124 0.26545006
v 3.055618E-07 0.55288124 0.09498047
v -0 0.36028853 0.4976048
v -0.1378763 0.33286315 0.36028853
v 1.0815644E-07 0.19498673 0.6671215
v -0.07461811 0.18014428 0.47073966
v -1.8101961E-14 -8.908817E-08 0.76458466
v -0.25476232 0.25476247 0.36028853
v -0.1378763 0.33286315 0.36028853
v -0.07461811 0.18014428 0.47073966
v -0.13787639 0.13787648 0.47073966
v -1.8101961E-14 -8.908817E-08 0.76458466
v -0.1265978 0.43634436 -0.12932816
v 2.1040579E-07 0.47131547 -0.10648982
v 3.055618E-07 0.55288124 0.09498047
v -0.19498646 0.4707397 0.15330625
v 2.1065509E-07 0.42345828 -0.10556504
v 0.17236468 0.4088245 0.1468056
v 0.12121113 0.38935763 -0.1290087
v 2.9990574E-07 0.4433244 0.09274335
v -0.121210754 0.3893576 -0.1290087
v -0.17236435 0.40882453 0.1468056
v 0.15663934 0.37816072 0.17018935
v 1.6318596E-08 0.4093182 0.26516986
v -0.15663901 0.37816066 0.17018935
v 1.333406E-08 0.31267264 0.40922308
v 0.119654655 0.28887182 0.31424257
v 1.333406E-08 0.31267264 0.40922308
v -0.11965448 0.2888718 0.31424257
v 1.0945446E-07 0.16828659 0.5051016
v 0.064400524 0.15547657 0.4101211
v 1.0945446E-07 0.16828659 0.5051016
v -1.1749524E-09 -8.4511036E-08 0.5382672
v 0.11899665 0.1189966 0.4101211
v -1.1749524E-09 -8.4511036E-08 0.5382672
v 0.22109297 0.22109291 0.31424257
v -0.06440041 0.15547657 0.4101211
v -1.1749524E-09 -8.4511036E-08 0.5382672
v 0.28943178 0.2894317 0.17018935
v 0.17236468 0.4088245 0.1468056
v 0.31435105 0.31435096 0.14038381
v 0.1554766 0.06440047 0.4101211
v -1.1749524E-09 -8.4511036E-08 0.5382672
v 0.28887188 0.11965459 0.31424257
v 0.37816083 0.15663926 0.17018935
v 0.31435105 0.31435096 0.14038381
v 0.4081375 0.17378895 -0.004372704
v 0.16828667 -4.472724E-08 0.4101211
v -1.1749524E-09 -8.4511036E-08 0.5382672
v 0.3126727 -8.4459174E-08 0.31424257
v 0.40931833 -9.6364595E-08 0.17018935
v 0.1554766 -0.06440056 0.4101211
v -1.1749524E-09 -8.4511036E-08 0.5382672
v 0.28887188 -0.11965475 0.31424257
v 0.4432867 -1.1015376E-07 -2.0265158E-08
v 0.37114343 0.16746092 -0.18230343
v 0.40577424 -9.530957E-08 -0.18206432
v 0.37816077 -0.15663944 0.17018937
v 0.40954348 -0.1696386 -2.059964E-08
v 0.3748865 -0.15528318 -0.18206432
v 0.11899662 -0.118996695 0.4101211
v -1.1749524E-09 -8.4511036E-08 0.5382672
v 0.22109298 -0.22109306 0.31424257
v 0.313451 -0.31345114 -2.160308E-08
v 0.28692567 -0.28692582 -0.18206432
v 0.2894317 -0.28943187 0.17018937
v 0.064400494 -0.15547663 0.4101211
v -1.1749524E-09 -8.4511036E-08 0.5382672
v 0.16963838 -0.4095436 -2.12686E-08
v 0.15528299 -0.37488657 -0.18206431
v 0.15663925 -0.37816086 0.17018935
v 0.11965464 -0.28887194 0.31424257
v -2.8799958E-08 -0.16828668 0.5051016
v -1.1749524E-09 -8.4511036E-08 0.5382672
v -2.7890492E-08 -0.31267273 0.40922308
v -1.1082564E-07 -0.40931833 0.26516986
v -1.2557189E-07 -0.44328678 0.09498047
v -1.11051776E-07 -0.40577424 -0.0870838
v -0.16963862 -0.4095435 -2.2272042E-08
v -0.15528317 -0.37488645 -0.1820643
v -0.15663943 -0.37816074 0.17018935
v -1.1082564E-07 -0.40931833 0.26516986
v -0.31345114 -0.31345096 -2.2272042E-08
v -0.28692576 -0.28692564 -0.1820643
v -0.1196547 -0.28887188 0.31424257
v -2.7890492E-08 -0.31267273 0.40922308
v -0.28943178 -0.28943166 0.17018935
v -0.40954354 -0.16963835 -2.059964E-08
v -0.37488645 -0.15528296 -0.18206428
v -0.44328666 1.3902635E-07 -2.0934118E-08
v -0.40577406 9.389587E-08 -0.18206428
v -0.40931812 9.83061E-08 0.17018935
v -0.37816074 -0.15663922 0.17018935
v -0.31267262 1.7800893E-08 0.31424257
v -0.28887185 -0.119654626 0.31424257
v -0.16828665 1.578393E-08 0.4101211
v -0.22109298 -0.22109295 0.31424257
v -0.1554766 -0.064400494 0.4101211
v -1.1749524E-09 -8.4511036E-08 0.5382672
v -0.118996635 -0.11899663 0.4101211
v -1.1749524E-09 -8.4511036E-08 0.5382672
v -0.06440054 -0.1554766 0.4101211
v -1.1749524E-09 -8.4511036E-08 0.5382672
v -2.8799958E-08 -0.16828668 0.5051016
v -1.1749524E-09 -8.4511036E-08 0.5382672
v -0.40577406 9.389587E-08 -0.18206428
v -0.40813732 0.17378916 -0.0043727183
v -0.37114316 0.167461 -0.18230338
v -0.44328666 1.3902635E-07 -2.0934118E-08
v -0.37816057 0.15663937 0.17018935
v -0.40931812 9.83061E-08 0.17018935
v -0.28943145 0.28943172 0.17018935
v -0.31435075 0.31435108 0.14038377
v -0.28887174 0.11965466 0.31424257
v -0.31267262 1.7800893E-08 0.31424257
v -0.2210928 0.22109292 0.31424257
v -0.15547653 0.06440052 0.4101211
v -0.16828665 1.578393E-08 0.4101211
v -1.1749524E-09 -8.4511036E-08 0.5382672
v -0.118996546 0.11899662 0.4101211
v -1.1749524E-09 -8.4511036E-08 0.5382672
v -1.1749524E-09 -8.4511036E-08 0.5382672
v -0.31435075 0.31435108 0.14038377
v -0.17236435 0.40882453 0.1468056
v 0.12659818 0.4363444 -0.12932816
v 0.12121113 0.38935763 -0.1290087
v 0.17236468 0.4088245 0.1468056
v 0.19498678 0.47073966 0.15330625
v 2.1040579E-07 0.47131547 -0.10648982
v 0.12121113 0.38935763 -0.1290087
v 0.12659818 0.4363444 -0.12932816
v 2.1065509E-07 0.42345828 -0.10556504
v -0.1265978 0.43634436 -0.12932816
v -0.121210754 0.3893576 -0.1290087
v 2.1040579E-07 0.47131547 -0.10648982
v 0.19498678 0.47073966 0.15330625
v 0.17236468 0.4088245 0.1468056
v 0.31435105 0.31435096 0.14038381
v 0.3602886 0.3602885 0.15330625
v 0.47073975 0.19498667 -2.2272042E-08
v 0.4081375 0.17378895 -0.004372704
v 0.37114343 0.16746092 -0.18230343
v 0.43490684 0.18014422 -0.19498673
v 0.3602886 0.3602885 0.15330625
v 0.31435105 0.31435096 0.14038381
v 0.4081375 0.17378895 -0.004372704
v 0.47073975 0.19498667 -2.2272042E-08
v 0.43490684 0.18014422 -0.19498673
v 0.37114343 0.16746092 -0.18230343
v 0.40577424 -9.530957E-08 -0.18206432
v 0.47073975 -1.096859E-07 -0.19498673
v 0.3748865 -0.15528318 -0.18206432
v 0.43490678 -0.18014441 -0.19498673
v 0.28692567 -0.28692582 -0.18206432
v 0.33286318 -0.33286336 -0.19498673
v 0.15528299 -0.37488657 -0.18206431
v 0.18014419 -0.43490687 -0.19498673
v -1.11051776E-07 -0.40577424 -0.0870838
v -1.3480398E-07 -0.47073975 -0.10000624
v -1.3480398E-07 -0.47073975 -0.10000624
v -1.11051776E-07 -0.40577424 -0.0870838
v -0.15528317 -0.37488645 -0.1820643
v -0.18014441 -0.43490672 -0.19498673
v -0.28692576 -0.28692564 -0.1820643
v -0.3328633 -0.33286312 -0.19498673
v -0.37488645 -0.15528296 -0.18206428
v -0.43490675 -0.18014415 -0.19498673
v -0.40577406 9.389587E-08 -0.18206428
v -0.47073957 1.3327453E-07 -0.19498673
v -0.43490654 0.18014435 -0.19498673
v -0.37114316 0.167461 -0.18230338
v -0.40813732 0.17378916 -0.0043727183
v -0.47073954 0.19498692 -2.2272042E-08
v -0.47073957 1.3327453E-07 -0.19498673
v -0.40577406 9.389587E-08 -0.18206428
v -0.37114316 0.167461 -0.18230338
v -0.43490654 0.18014435 -0.19498673
v -0.47073954 0.19498692 -2.2272042E-08
v -0.40813732 0.17378916 -0.0043727183
v -0.31435075 0.31435108 0.14038377
v -0.3602883 0.36028865 0.15330625
v -0.19498646 0.4707397 0.15330625
v -0.17236435 0.40882453 0.1468056
v -0.121210754 0.3893576 -0.1290087
v -0.1265978 0.43634436 -0.12932816
v -0.3602883 0.36028865 0.15330625
v -0.31435075 0.31435108 0.14038377
v -0.17236435 0.40882453 0.1468056
v -0.19498646 0.4707397 0.15330625
vt 0.5625 0.625
vt 0.5625 0.625
vt 0.56249994 0.75
vt 0.625 0.875
vt 0.56249994 0.875
vt 0.59374994 1
vt 0.43749997 0.875
vt 0.43749997 0.875
vt 0.43749994 0.75
vt 0.87499994 0.75000006
vt 0.87499994 0.75000006
vt 0.81249994 0.75000006
vt 0.49999997 0.875
vt 0.43749997 0.875
vt 0.46874994 1
vt 0.43749994 0.75
vt 0.43749994 0.75
vt 0.49999997 0.75
vt 0.125 0.75
vt 0.125 0.75
vt 0.18749997 0.75
vt 0.37499994 0.875
vt 0.31249997 0.875
vt 0.34374994 1
vt 0.18749997 0.875
vt 0.125 0.875
vt 0.15625003 1
vt 0.87499994 0.75000006
vt 0.87499994 0.75000006
vt 0.93749994 0.75
vt 0.93749994 0.75
vt 0.93749994 0.75
vt 0.93749994 0.875
vt 0.0625 0.875
vt 0 0.875
vt 0.03125006 1
vt 1 0.75
vt 1 0.75
vt 0.93749994 0.75
vt 0.93749994 0.875
vt 0.87499994 0.875
vt 0.90625 1
vt 0.49999997 0.75
vt 0.49999997 0.75
vt 0.49999997 0.875
vt 0 0.62500006
vt 0 0.62500006
vt 0 0.75
vt 0.18749997 0.75
vt 0.18749997 0.75
vt 0.18749997 0.875
vt 0.18749997 0.875
vt 0.18749997 0.875
vt 0.125 0.875
vt 0.87499994 0.875
vt 0.87499994 0.875
vt 0.87499994 0.75000006
vt 0.49999997 0.875
vt 0.49999997 0.875
vt 0.43749997 0.875
vt 0 0.75
vt 0 0.75
vt 0.0625 0.75
vt 0.125 0.875
vt 0.125 0.875
vt 0.125 0.75
vt 0.375 0.75
vt 0.375 0.75
vt 0.37499994 0.875
vt 0.625 0.875
vt 0.625 0.875
vt 0.56249994 0.875
vt 0.0625 0.875
vt 0.0625 0.875
vt 0 0.875
vt 0.3125 0.75
vt 0.3125 0.75
vt 0.375 0.75
vt 0.0625 0.75
vt 0.0625 0.75
vt 0.0625 0.875
vt 0.31249997 0.875
vt 0.31249997 0.875
vt 0.3125 0.75
vt 0.93749994 0.875
vt 0.93749994 0.875
vt 0.87499994 0.875
vt 0.37499994 0.875
vt 0.37499994 0.875
vt 0.31249997 0.875
vt 1 0.875
vt 1 0.875
vt 1 0.75
vt 0.56249994 0.75
vt 0.56249994 0.75
vt 0.625 0.75
vt 0.56249994 0.875
vt 0.56249994 0.875
vt 0.56249994 0.75
vt 0.625 0.75
vt 0.625 0.75
vt 0.625 0.875
vt 0.625 0.75
vt 0.625 0.75
vt 0.625 0.625
vt 0.49999997 0.75
vt 0.49999997 0.75
vt 0.49999997 0.625
vt 0.6875 0.625
vt 0.6875 0.625
vt 0.6875 0.75
vt 0.93749994 0.75
vt 0.93749994 0.75
vt 0.93749994 0.62500006
vt 0.81249994 0.75000006
vt 0.81249994 0.75000006
vt 0.8124999 0.62500006
vt 0.8749999 0.62500006
vt 0.8749999 0.62500006
vt 0.87499994 0.75000006
vt 0.625 0.625
vt 0.625 0.625
vt 0.6875 0.625
vt 0.6875 0.75
vt 0.6875 0.75
vt 0.625 0.75
vt 0.49999997 0.625
vt 0.49999997 0.625
vt 0.5625 0.625
vt 0.93749994 0.62500006
vt 0.93749994 0.62500006
vt 1 0.62500006
vt 0.8124999 0.62500006
vt 0.8124999 0.62500006
vt 0.8749999 0.62500006
vt 0.56249994 0.75
vt 0.56249994 0.75
vt 0.49999997 0.75
vt 0.75 0.4351157
vt 0.68750006 0.43511564
vt 0.6875 0.5
vt 0.7499999 0.5
vt 0.7499999 0.875
vt 0.6875 0.875
vt 0.71874994 1
vt 0.75 0.75
vt 0.6875 0.75
vt 0.75 0.625
vt 0.6875 0.625
vt 0.7499999 0.5
vt 0.6875 0.5
vt 0.625 0.625
vt 0.625 0.5
vt 0.6875 0.875
vt 0.625 0.875
vt 0.65624994 1
vt 0.6875 0.75
vt 0.625 0.75
vt 0.625 0.625
vt 0.56249994 0.75
vt 0.625 0.75
vt 0.5625 0.625
vt 0.625 0.5
vt 0.56249994 0.5
vt 0.49999997 0.625
vt 0.49999997 0.5
vt 0.5625 0.37500006
vt 0.49999997 0.37500006
vt 0.43749994 0.5
vt 0.43749997 0.37500006
vt 0.43749997 0.625
vt 0.37499994 0.5
vt 0.37499994 0.37500006
vt 0.43749994 0.75
vt 0.49999997 0.75
vt 0.37499994 0.625
vt 0.31249997 0.5
vt 0.31249997 0.37500006
vt 0.375 0.75
vt 0.37499994 0.875
vt 0.43749997 0.875
vt 0.40624994 1
vt 0.3125 0.75
vt 0.31249997 0.625
vt 0.24999997 0.625
vt 0.24999997 0.5
vt 0.24999997 0.37500006
vt 0.24999997 0.75
vt 0.24999997 0.625
vt 0.24999997 0.875
vt 0.31249997 0.875
vt 0.28124997 1
vt 0.18749997 0.5
vt 0.18749997 0.375
vt 0.18749997 0.625
vt 0.24999997 0.625
vt 0.12499997 0.5
vt 0.12499997 0.375
vt 0.12499997 0.625
vt 0.06249994 0.5
vt 0.0625 0.375
vt 0 0.5
vt 0 0.375
vt 0 0.62500006
vt 0.0625 0.62500006
vt 0 0.75
vt 0.0625 0.75
vt 0.125 0.75
vt 0.0625 0.875
vt 0.125 0.875
vt 0.09375003 1
vt 0.18749997 0.75
vt 0.24999997 0.625
vt 0.24999997 0.75
vt 0.18749997 0.875
vt 0.24999997 0.875
vt 0.21875 1
vt 0.56249994 0.75
vt 0.49999997 0.75
vt 0.49999997 0.875
vt 0.56249994 0.875
vt 0.53124994 1
vt 1 0.375
vt 0.93749994 0.375
vt 0.93749994 0.5
vt 1 0.5
vt 0.93749994 0.62500006
vt 1 0.62500006
vt 0.8749999 0.62500006
vt 0.8749999 0.5
vt 0.87499994 0.75000006
vt 0.93749994 0.75
vt 1 0.875
vt 0.93749994 0.875
vt 0.96875 1
vt 1 0.75
vt 0.93749994 0.75
vt 0.8749999 0.5
vt 0.8124999 0.62500006
vt 0.8749999 0.62500006
vt 0.8124999 0.5
vt 0.75 0.625
vt 0.7499999 0.5
vt 0.75 0.75
vt 0.81249994 0.75000006
vt 0.7499999 0.875
vt 0.81249994 0.875
vt 0.7812499 1
vt 0.87499994 0.75000006
vt 0.81249994 0.75000006
vt 0.81249994 0.875
vt 0.87499994 0.875
vt 0.84374994 1
vt 0.81249994 0.43511575
vt 0.75 0.4351157
vt 0.7499999 0.5
vt 0.8124999 0.5
vt 0.75 0.4351157
vt 0.6875 0.5
vt 0.6875 0.43511564
vt 0.7499999 0.5
vt 0.8124999 0.4351157
vt 0.8124999 0.5
vt 0.6875 0.625
vt 0.75 0.625
vt 0.8124999 0.62500006
vt 0.75 0.75
vt 0.6875 0.75
vt 0.75 0.75
vt 0.81249994 0.75000006
vt 0.7499999 0.875
vt 0.6875 0.875
vt 0.7499999 0.875
vt 0.71874994 1
vt 0.625 0.875
vt 0.65624994 1
vt 0.625 0.75
vt 0.81249994 0.875
vt 0.7812499 1
vt 0.625 0.625
vt 0.6875 0.5
vt 0.625 0.5
vt 0.56249994 0.875
vt 0.59374994 1
vt 0.56249994 0.75
vt 0.5625 0.625
vt 0.625 0.5
vt 0.56249994 0.5
vt 0.49999997 0.875
vt 0.53124994 1
vt 0.49999997 0.75
vt 0.49999997 0.625
vt 0.43749997 0.875
vt 0.46874994 1
vt 0.43749994 0.75
vt 0.49999997 0.5
vt 0.5625 0.37500006
vt 0.49999997 0.37500006
vt 0.43749997 0.625
vt 0.43749994 0.5
vt 0.43749997 0.37500006
vt 0.37499994 0.875
vt 0.40624994 1
vt 0.375 0.75
vt 0.37499994 0.5
vt 0.37499994 0.37500006
vt 0.37499994 0.625
vt 0.31249997 0.875
vt 0.34374994 1
vt 0.31249997 0.5
vt 0.31249997 0.37500006
vt 0.31249997 0.625
vt 0.3125 0.75
vt 0.24999997 0.875
vt 0.28124997 1
vt 0.24999997 0.75
vt 0.24999997 0.625
vt 0.24999997 0.5
vt 0.24999997 0.37500006
vt 0.18749997 0.5
vt 0.18749997 0.375
vt 0.18749997 0.625
vt 0.24999997 0.625
vt 0.12499997 0.5
vt 0.12499997 0.375
vt 0.18749997 0.75
vt 0.24999997 0.75
vt 0.12499997 0.625
vt 0.06249994 0.5
vt 0.0625 0.375
vt 0 0.5
vt 0 0.375
vt 0 0.62500006
vt 0.0625 0.62500006
vt 0 0.75
vt 0.0625 0.75
vt 0 0.875
vt 0.125 0.75
vt 0.0625 0.875
vt 0.03125006 1
vt 0.125 0.875
vt 0.09375003 1
vt 0.18749997 0.875
vt 0.15625003 1
vt 0.24999997 0.875
vt 0.21875 1
vt 1 0.375
vt 0.93749994 0.5
vt 0.93749994 0.375
vt 1 0.5
vt 0.93749994 0.62500006
vt 1 0.62500006
vt 0.8749999 0.62500006
vt 0.8749999 0.5
vt 0.93749994 0.75
vt 1 0.75
vt 0.87499994 0.75000006
vt 0.93749994 0.875
vt 1 0.875
vt 0.96875 1
vt 0.87499994 0.875
vt 0.90625 1
vt 0.84374994 1
vt 0.8749999 0.5
vt 0.8124999 0.5
vt 0.68750006 0.43511564
vt 0.6875 0.43511564
vt 0.6875 0.5
vt 0.6875 0.5
vt 0.75 0.4351157
vt 0.6875 0.43511564
vt 0.68750006 0.43511564
vt 0.75 0.4351157
vt 0.81249994 0.43511575
vt 0.8124999 0.4351157
vt 0.75 0.4351157
vt 0.6875 0.5
vt 0.6875 0.5
vt 0.625 0.5
vt 0.625 0.5
vt 0.56249994 0.5
vt 0.56249994 0.5
vt 0.5625 0.37500006
vt 0.5625 0.37500006
vt 0.625 0.5
vt 0.625 0.5
vt 0.56249994 0.5
vt 0.56249994 0.5
vt 0.5625 0.37500006
vt 0.5625 0.37500006
vt 0.49999997 0.37500006
vt 0.49999997 0.37500006
vt 0.43749997 0.37500006
vt 0.43749997 0.37500006
vt 0.37499994 0.37500006
vt 0.37499994 0.37500006
vt 0.31249997 0.37500006
vt 0.31249997 0.37500006
vt 0.24999997 0.37500006
vt 0.24999997 0.37500006
vt 0.24999997 0.37500006
vt 0.24999997 0.37500006
vt 0.18749997 0.375
vt 0.18749997 0.375
vt 0.12499997 0.375
vt 0.12499997 0.375
vt 0.0625 0.375
vt 0.0625 0.375
vt 0 0.375
vt 0 0.375
vt 0.93749994 0.375
vt 0.93749994 0.375
vt 0.93749994 0.5
vt 0.93749994 0.5
vt 1 0.375
vt 1 0.375
vt 0.93749994 0.375
vt 0.93749994 0.375
vt 0.93749994 0.5
vt 0.93749994 0.5
vt 0.8749999 0.5
vt 0.8749999 0.5
vt 0.8124999 0.5
vt 0.8124999 0.5
vt 0.8124999 0.4351157
vt 0.81249994 0.43511575
vt 0.8749999 0.5
vt 0.8749999 0.5
vt 0.8124999 0.5
vt 0.8124999 0.5
vn 0.15107621 0.9313162 0.33140036
vn 0.15107621 0.9313162 0.33140036
vn 0.15107621 0.9313162 0.33140036
vn 0.49519116 0.55465317 0.6686894
vn 0.7019343 0.2452403 0.6686893
vn 0.7715326 0 0.6361897
vn -0.16736856 -0.9373845 0.3054474
vn -0.16736856 -0.9373845 0.3054474
vn -0.16736856 -0.9373845 0.3054474
vn 0.030163469 -0.04514302 0.9985251
vn 0.030163469 -0.04514302 0.9985251
vn 0.030163469 -0.04514302 0.9985251
vn 0.7423522 0.04204595 0.66868925
vn 0.6697538 -0.3229312 0.6686892
vn 0.7715326 0 0.6361897
vn 0.9719643 -0.19333525 -0.13381664
vn 0.9719643 -0.19333525 -0.13381664
vn 0.9719643 -0.19333525 -0.13381664
vn -0.55057365 -0.8239913 -0.13381672
vn -0.55057365 -0.8239913 -0.13381672
vn -0.55057365 -0.8239913 -0.13381672
vn 0.5546534 -0.4951912 0.66868925
vn 0.46563992 -0.69687927 0.54547125
vn 0.7715326 0 0.6361897
vn -0.4656405 -0.69687897 0.545471
vn -0.5546536 -0.49519107 0.66868925
vn -0.7715328 0 0.63618964
vn -0.8239913 0.55057365 -0.13381693
vn -0.8239913 0.55057365 -0.13381693
vn -0.8239913 0.55057365 -0.13381693
vn -0.54448426 -0.78117794 0.30544734
vn -0.54448426 -0.78117794 0.30544734
vn -0.54448426 -0.78117794 0.30544734
vn -0.66975373 -0.32293108 0.66868937
vn -0.7423522 0.04204632 0.66868925
vn -0.7715328 0 0.63618964
vn 0.021076288 -0.0041923914 0.99976903
vn 0.021076288 -0.0041923914 0.99976903
vn 0.021076288 -0.0041923914 0.99976903
vn -0.7019341 0.24524082 0.6686893
vn -0.49519113 0.5546535 0.66868925
vn -0.7715328 0 0.63618964
vn 0.22268535 0.9161556 0.3332718
vn 0.22268535 0.9161556 0.3332718
vn 0.22268535 0.9161556 0.3332718
vn -0.47352555 -0.8219884 0.31639925
vn -0.47352555 -0.8219884 0.31639925
vn -0.47352555 -0.8219884 0.31639925
vn 0.76119965 -0.55633193 0.3332717
vn 0.76119965 -0.55633193 0.3332717
vn 0.76119965 -0.55633193 0.3332717
vn 0.24933763 0.37316003 0.8936343
vn 0.24933763 0.37316003 0.8936343
vn 0.24933763 0.37316003 0.8936343
vn 0.49035785 0.80528206 0.33327156
vn 0.49035785 0.80528206 0.33327156
vn 0.49035785 0.80528206 0.33327156
vn -0.44017243 0.08755593 0.8936343
vn -0.44017243 0.08755593 0.8936343
vn -0.44017243 0.08755593 0.8936343
vn -0.9719643 -0.19333525 -0.13381687
vn -0.9719643 -0.19333525 -0.13381687
vn -0.9719643 -0.19333525 -0.13381687
vn -0.8019812 0.5133499 0.30544734
vn -0.8019812 0.5133499 0.30544734
vn -0.8019812 0.5133499 0.30544734
vn 0.8039074 0.5009277 0.32063127
vn 0.8039074 0.5009277 0.32063127
vn 0.8039074 0.5009277 0.32063127
vn -0.3731596 -0.24933743 0.8936346
vn -0.3731596 -0.24933743 0.8936346
vn -0.3731596 -0.24933743 0.8936346
vn 0.44017228 0.08755546 0.8936343
vn 0.44017228 0.08755546 0.8936343
vn 0.44017228 0.08755546 0.8936343
vn 0.5532859 -0.8280513 -0.09058498
vn 0.5532859 -0.8280513 -0.09058498
vn 0.5532859 -0.8280513 -0.09058498
vn 0.16736822 -0.9373846 0.30544728
vn 0.16736822 -0.9373846 0.30544728
vn 0.16736822 -0.9373846 0.30544728
vn -0.7811783 -0.5444838 0.30544725
vn -0.7811783 -0.5444838 0.30544725
vn -0.7811783 -0.5444838 0.30544725
vn 0.37316042 -0.24933787 0.89363414
vn 0.37316042 -0.24933787 0.89363414
vn 0.37316042 -0.24933787 0.89363414
vn -0.27069634 0.4051265 0.8732675
vn -0.27069634 0.4051265 0.8732675
vn -0.27069634 0.4051265 0.8732675
vn -0.22268496 0.91615576 0.3332716
vn -0.22268496 0.91615576 0.3332716
vn -0.22268496 0.91615576 0.3332716
vn 0.8239913 0.55057365 -0.13381673
vn 0.8239913 0.55057365 -0.13381673
vn 0.8239913 0.55057365 -0.13381673
vn 0.5563315 -0.76119983 0.33327183
vn 0.5563315 -0.76119983 0.33327183
vn 0.5563315 -0.76119983 0.33327183
vn -0.5133496 0.8019814 0.30544737
vn -0.5133496 0.8019814 0.30544737
vn -0.5133496 0.8019814 0.30544737
vn 0.9178253 -0.2236985 0.32795686
vn 0.9178253 -0.2236985 0.32795686
vn 0.9178253 -0.2236985 0.32795686
vn 0.47352523 -0.8219886 0.31639954
vn 0.47352523 -0.8219886 0.31639954
vn 0.47352523 -0.8219886 0.31639954
vn -0.57820827 0.7520416 0.31639946
vn -0.57820827 0.7520416 0.31639946
vn -0.57820827 0.7520416 0.31639946
vn -0.15107568 0.9313163 0.33140022
vn -0.15107568 0.9313163 0.33140022
vn -0.15107568 0.9313163 0.33140022
vn 0.5579072 0.76235414 0.3279569
vn 0.5579072 0.76235414 0.3279569
vn 0.5579072 0.76235414 0.3279569
vn -0.91606694 -0.24639991 0.31639934
vn -0.91606694 -0.24639991 0.31639934
vn -0.91606694 -0.24639991 0.31639934
vn 0.50451887 0.75506604 -0.4187312
vn 0.50451887 0.75506604 -0.4187312
vn 0.50451887 0.75506604 -0.4187312
vn -0.03016402 -0.04514323 0.9985251
vn -0.03016402 -0.04514323 0.9985251
vn -0.03016402 -0.04514323 0.9985251
vn 0.87670153 0.17438684 -0.44831216
vn 0.87670153 0.17438684 -0.44831216
vn 0.87670153 0.17438684 -0.44831216
vn -0.8767012 0.17438741 -0.4483126
vn -0.8767012 0.17438741 -0.4483126
vn -0.8767012 0.17438741 -0.4483126
vn -0.5045186 0.755066 -0.4187317
vn -0.5045186 0.755066 -0.4187317
vn -0.5045186 0.755066 -0.4187317
vn -0.021077102 -0.0041924324 0.99976903
vn -0.021077102 -0.0041924324 0.99976903
vn -0.021077102 -0.0041924324 0.99976903
vn 0.35564032 0.89628667 -0.26493436
vn 0.35564032 0.89628667 -0.26493436
vn 0.35564032 0.89628667 -0.26493436
vn 0.35564032 0.89628667 -0.26493436
vn 0.8984588 0.2021548 0.38975027
vn 0.8521799 0.24819416 0.46063995
vn 0.9254716 0.16936956 0.33884537
vn 0.75522506 0.4147714 0.5075429
vn 0.662593 0.5496636 0.5087636
vn 0.49835125 0.76214236 0.41326165
vn 0.46008462 0.7356204 0.49717692
vn 0.40240368 0.86602634 0.29676536
vn 0.41671675 0.773102 0.47818455
vn 0.41035935 0.6141462 0.674114
vn 0.41035935 0.6141462 0.674114
vn 0.39030564 0.5841336 0.71165264
vn 0.49519116 0.55465317 0.6686894
vn 0.7715326 0 0.6361897
vn 0.31280097 0.46813992 0.82643855
vn 0.31280097 0.46813992 0.82643855
vn 0.78892136 0.44747275 0.4211545
vn 0.69543856 0.4646772 0.5481244
vn 0.69543856 0.4646772 0.5481244
vn 0.862482 0.36554852 0.3499987
vn 0.8533288 0.42374286 0.30376306
vn 0.9654547 0.2508876 0.070374675
vn 0.9483366 -0.05265854 0.31286544
vn 1 0 0
vn 0.9626373 0.19148016 -0.19148023
vn 0.98078537 0 -0.19509004
vn 0.92387944 -0.38268355 0
vn 0.90612745 -0.3753304 -0.19509006
vn 0.8566939 -0.35485438 0.3743714
vn 0.7071066 -0.7071069 0
vn 0.6935197 -0.6935201 -0.19509023
vn 0.69062424 -0.32213926 0.6475064
vn 0.8203258 -0.16317302 0.54812425
vn 0.65568495 -0.6556853 0.37437144
vn 0.4163537 -0.90619373 -0.07390847
vn 0.3841676 -0.8950121 -0.22664632
vn 0.56190825 -0.51477623 0.64750636
vn 0.5546534 -0.4951912 0.66868925
vn 0.6697538 -0.3229312 0.6686892
vn 0.7715326 0 0.6361897
vn 0.7220213 -0.49291426 0.48551086
vn 0.5591055 -0.7791519 0.28341386
vn 0.47364983 -0.8777763 0.07186448
vn -0 -0.99884963 -0.04795253
vn -0 -0.9640475 -0.26572987
vn 0.8565146 -0.28737292 0.42871854
vn 0.7644469 -0.47519976 0.43566743
vn 0.9355915 -0.108726814 0.33592704
vn 0.9099426 -0.14431469 0.38881573
vn 0.95372486 -0.07843347 0.2902707
vn -0.41635433 -0.90619344 -0.073908515
vn -0.38416824 -0.8950118 -0.22664651
vn -0.559106 -0.77915144 0.28341395
vn -0.47365052 -0.877776 0.071864694
vn -0.7071071 -0.7071064 0
vn -0.6935203 -0.69351953 -0.19509037
vn -0.6556854 -0.65568477 0.37437156
vn -0.92387974 -0.3826829 0
vn -0.90612763 -0.37532976 -0.19509044
vn -1 0 0
vn -0.98078525 0 -0.1950906
vn -0.9483366 -0.05265801 0.31286576
vn -0.8566941 -0.35485372 0.3743716
vn -0.820326 -0.16317263 0.5481241
vn -0.69062436 -0.3221389 0.6475064
vn -0.56190854 -0.51477605 0.64750636
vn -0.66975373 -0.32293108 0.66868937
vn -0.5546536 -0.49519107 0.66868925
vn -0.7715328 0 0.63618964
vn -0.7220215 -0.49291387 0.4855109
vn -0.7644471 -0.47519925 0.4356678
vn -0.8565147 -0.2873726 0.4287186
vn -0.9099427 -0.1443145 0.3888157
vn -0.93559164 -0.108726524 0.335927
vn -0.953725 -0.07843311 0.29027063
vn 0.5522087 0.10984104 0.8264384
vn 0.5522087 0.10984104 0.8264384
vn 0.7423522 0.04204595 0.66868925
vn 0.7019343 0.2452403 0.6686893
vn 0.7715326 0 0.6361897
vn -0.98078525 0 -0.1950906
vn -0.9626372 0.19148082 -0.19148083
vn -0.9654546 0.25088823 0.07037484
vn -1 0 0
vn -0.86248165 0.36554894 0.34999892
vn -0.9483366 -0.05265801 0.31286576
vn -0.7889211 0.44747314 0.42115456
vn -0.85332847 0.42374316 0.3037637
vn -0.69543856 0.46467775 0.548124
vn -0.69543856 0.46467775 0.548124
vn -0.7423522 0.04204632 0.66868925
vn -0.7019341 0.24524082 0.6686893
vn -0.7715328 0 0.63618964
vn -0.5522086 0.10984136 0.8264384
vn -0.5522086 0.10984136 0.8264384
vn -0.41035876 0.61414564 0.6741149
vn -0.46008474 0.73562014 0.49717715
vn -0.41035876 0.61414564 0.6741149
vn -0.41671652 0.7731019 0.47818482
vn -0.4983516 0.7621424 0.41326112
vn -0.40240374 0.8660264 0.29676497
vn -0.7552254 0.41477087 0.50754297
vn -0.66259354 0.5496631 0.5087634
vn -0.89845854 0.20215546 0.38975057
vn -0.85217977 0.24819396 0.46064013
vn -0.9254713 0.16937076 0.3388457
vn -0.31280106 0.46814013 0.82643825
vn -0.31280106 0.46814013 0.82643825
vn -0.39030567 0.58413386 0.7116524
vn -0.49519113 0.5546535 0.66868925
vn -0.7715328 0 0.63618964
vn -0.35563987 0.89628667 -0.26493463
vn -0.35563987 0.89628667 -0.26493463
vn -0.35563987 0.89628667 -0.26493463
vn -0.35563987 0.89628667 -0.26493463
vn -0 -0.99406886 0.10875292
vn -0.23449306 -0.96126777 -0.1448349
vn -0.23670559 -0.96581876 0.105662376
vn -0 -0.99758327 -0.06948048
vn 0.23670533 -0.9658188 0.10566226
vn 0.23449302 -0.9612679 -0.14483476
vn -0.3723457 -0.7455023 -0.5527975
vn -0 -0.8684005 -0.49586362
vn 0.37234572 -0.74550223 -0.55279756
vn 0.64596385 -0.46578148 -0.6047961
vn -0.4970488 -0.59523517 -0.6313776
vn -0.6459634 -0.46578184 -0.60479635
vn 0.497049 -0.5952353 -0.6313773
vn 0.78576857 -0.18929039 -0.5888437
vn -0.55689895 -0.37820232 -0.7394772
vn -0.78576875 -0.18928985 -0.5888435
vn -0.82954544 -0.10797849 -0.5479006
vn -0.40808746 -0.40808716 -0.81665754
vn -0.5224906 0 -0.8526451
vn -0.50718004 -0.5071801 -0.69680464
vn 0.5568989 -0.3782025 -0.73947716
vn 0.8295449 -0.107979685 -0.547901
vn -0.6193867 -0.5337741 -0.57571286
vn -0.3518448 -0.4999801 -0.7913439
vn -0.3518448 -0.4999801 -0.7913439
vn -0.5331916 -0.22085519 -0.8166576
vn -0.5224906 0 -0.8526451
vn -0.6626627 -0.27448386 -0.69680464
vn -0.8595382 -0.31417823 -0.4030956
vn -0.85795283 -0.40649313 -0.31413427
vn -0.9668761 -0.24823597 -0.05940996
vn -0.5771224 0 -0.81665766
vn -0.5224906 0 -0.8526451
vn -0.71726096 0 -0.6968047
vn -0.92718554 -0.0011316279 -0.37460065
vn -0.5331917 0.22085515 -0.81665754
vn -0.5224906 0 -0.8526451
vn -0.66266274 0.27448392 -0.69680464
vn -0.9999926 -0.0016641933 0.0034715787
vn -0.9600429 -0.1935817 0.20209847
vn -0.9789909 -0.0013753223 0.20389949
vn -0.8562739 0.35468036 -0.37549552
vn -0.9238753 0.38268182 0.0030228193
vn -0.9048721 0.37481046 0.20180064
vn -0.40808707 0.40808728 -0.81665766
vn -0.5224906 0 -0.8526451
vn -0.5071801 0.50718015 -0.69680464
vn -0.7071034 0.70710367 0.0030228447
vn -0.69255894 0.69255936 0.20180072
vn -0.65536356 0.65536386 -0.37549558
vn -0.5568983 0.3782026 -0.7394775
vn -0.5224906 0 -0.8526451
vn -0.36521947 0.9302421 0.035558682
vn -0.3685553 0.90703636 0.20359778
vn -0.44388783 0.8301771 -0.33729735
vn -0.49704865 0.5952353 -0.63137764
vn -0.78576845 0.18929033 -0.58884376
vn -0.8295451 0.10797933 -0.5479009
vn -0.64596313 0.46578193 -0.60479647
vn -0.43262935 0.8042697 -0.40740925
vn -0 0.9980526 -0.06237839
vn -0 0.9803162 0.19743386
vn 0.36522013 0.9302418 0.03555863
vn 0.36855578 0.90703607 0.20359808
vn 0.44388834 0.8301767 -0.33729762
vn 0.43262988 0.8042692 -0.40740958
vn 0.7071039 0.7071032 0.0030228044
vn 0.6925594 0.6925588 0.20180109
vn 0.49704906 0.59523493 -0.6313776
vn 0.64596343 0.46578157 -0.6047964
vn 0.65536386 0.6553634 -0.37549567
vn 0.9238756 0.38268113 0.0030228149
vn 0.9048723 0.37480974 0.20180123
vn 0.9999926 -0.0016649222 0.0034715289
vn 0.9789907 -0.0013759536 0.2039002
vn 0.92718554 -0.0011322467 -0.37460095
vn 0.85627407 0.35467976 -0.3754957
vn 0.7172612 0 -0.69680446
vn 0.6626629 0.27448362 -0.69680446
vn 0.5771226 0 -0.81665754
vn 0.50718033 0.50718004 -0.6968046
vn 0.5331919 0.2208551 -0.81665754
vn 0.52249086 0 -0.8526449
vn 0.40808746 0.40808707 -0.81665754
vn 0.52249086 0 -0.8526449
vn 0.5568987 0.37820232 -0.73947734
vn 0.52249086 0 -0.8526449
vn 0.7857684 0.18929017 -0.58884394
vn 0.8295449 0.1079791 -0.5479012
vn 0.9789907 -0.0013759536 0.2039002
vn 0.966876 -0.24823658 -0.059410203
vn 0.96004266 -0.19358233 0.20209923
vn 0.9999926 -0.0016649222 0.0034715289
vn 0.859538 -0.31417862 -0.40309575
vn 0.92718554 -0.0011322467 -0.37460095
vn 0.6193865 -0.53377426 -0.57571304
vn 0.85795236 -0.40649343 -0.314135
vn 0.6626628 -0.27448425 -0.69680446
vn 0.7172612 0 -0.69680446
vn 0.50718 -0.5071804 -0.69680446
vn 0.5331916 -0.22085558 -0.81665754
vn 0.5771226 0 -0.81665754
vn 0.52249086 0 -0.8526449
vn 0.4080873 -0.40808737 -0.8166574
vn 0.52249086 0 -0.8526449
vn 0.52249086 0 -0.8526449
vn 0.35184425 -0.4999795 -0.7913445
vn 0.35184425 -0.4999795 -0.7913445
vn 0.954799 -0.2352572 -0.181695
vn 0.954799 -0.2352572 -0.181695
vn 0.954799 -0.2352572 -0.181695
vn 0.954799 -0.2352572 -0.181695
vn -0 -0.0024716659 -0.999997
vn -0.18424398 -0.0024293328 -0.9828775
vn -0.18424398 -0.0024293328 -0.9828775
vn -0 -0.0024716659 -0.999997
vn 0.18424398 -0.002429371 -0.9828775
vn 0.18424398 -0.002429371 -0.9828775
vn -0 -0.0024716659 -0.999997
vn 0.06886884 0.1342487 -0.9885516
vn 0.06886884 0.1342487 -0.9885516
vn 0.06886884 0.1342487 -0.9885516
vn 0.06886884 0.1342487 -0.9885516
vn -0.25922763 0.9658071 -0.0042042304
vn -0.25922763 0.9658071 -0.0042042304
vn -0.25922763 0.9658071 -0.0042042304
vn -0.25922763 0.9658071 -0.0042042304
vn -0.24184456 0.589539 -0.7706847
vn -0.24184456 0.589539 -0.7706847
vn -0.24184456 0.589539 -0.7706847
vn -0.24184456 0.589539 -0.7706847
vn -0.19119945 -0.039432976 -0.9807587
vn -0.19119945 -0.039432976 -0.9807587
vn -0.19321568 -0.0004076168 -0.98115623
vn -0.1932195 -0.00032844316 -0.9811555
vn -0.1802396 0.07465767 -0.98078537
vn -0.18023962 0.074657686 -0.98078537
vn -0.13794939 0.13794947 -0.98078537
vn -0.1379494 0.13794948 -0.98078537
vn -0.3178651 0.12343787 -0.9400664
vn -0.30843934 0.12553345 -0.9429245
vn -0.50298226 0.07794378 -0.860775
vn -0.50298226 0.07794378 -0.860775
vn 0.5029827 0.07794349 -0.86077476
vn 0.5029827 0.07794349 -0.86077476
vn 0.31786552 0.12343778 -0.9400663
vn 0.30843973 0.12553339 -0.9429244
vn 0.13794975 0.13794969 -0.98078525
vn 0.13794975 0.13794968 -0.98078525
vn 0.18024012 0.07465778 -0.98078525
vn 0.18024012 0.0746578 -0.98078525
vn 0.19321622 -0.00040776655 -0.9811561
vn 0.19322 -0.00032859863 -0.9811554
vn 0.2592284 0.96580696 -0.0042046066
vn 0.2592284 0.96580696 -0.0042046066
vn 0.2592284 0.96580696 -0.0042046066
vn 0.2592284 0.96580696 -0.0042046066
vn 0.19322 -0.00032859863 -0.9811554
vn 0.19321622 -0.00040776655 -0.9811561
vn 0.19119988 -0.03943324 -0.9807587
vn 0.19119988 -0.03943324 -0.9807587
vn 0.24184479 0.58953875 -0.77068484
vn 0.24184479 0.58953875 -0.77068484
vn 0.24184479 0.58953875 -0.77068484
vn 0.24184479 0.58953875 -0.77068484
vn -0.95479876 -0.23525782 -0.18169494
vn -0.95479876 -0.23525782 -0.18169494
vn -0.95479876 -0.23525782 -0.18169494
vn -0.95479876 -0.23525782 -0.18169494
vn -0.06886902 0.1342491 -0.9885516
vn -0.06886902 0.1342491 -0.9885516
vn -0.06886902 0.1342491 -0.9885516
vn -0.06886902 0.1342491 -0.9885516
g Melee Helmet Morningstar_0
f 3/3/3 2/2/2 1/1/1
f 6/6/6 5/5/5 4/4/4
f 9/9/9 8/8/8 7/7/7
f 12/12/12 11/11/11 10/10/10
f 15/15/15 14/14/14 13/13/13
f 18/18/18 17/17/17 16/16/16
f 21/21/21 20/20/20 19/19/19
f 24/24/24 23/23/23 22/22/22
f 27/27/27 26/26/26 25/25/25
f 30/30/30 29/29/29 28/28/28
f 33/33/33 32/32/32 31/31/31
f 36/36/36 35/35/35 34/34/34
f 39/39/39 38/38/38 37/37/37
f 42/42/42 41/41/41 40/40/40
f 45/45/45 44/44/44 43/43/43
f 48/48/48 47/47/47 46/46/46
f 51/51/51 50/50/50 49/49/49
f 54/54/54 53/53/53 52/52/52
f 57/57/57 56/56/56 55/55/55
f 60/60/60 59/59/59 58/58/58
f 63/63/63 62/62/62 61/61/61
f 66/66/66 65/65/65 64/64/64
f 69/69/69 68/68/68 67/67/67
f 72/72/72 71/71/71 70/70/70
f 75/75/75 74/74/74 73/73/73
f 78/78/78 77/77/77 76/76/76
f 81/81/81 80/80/80 79/79/79
f 84/84/84 83/83/83 82/82/82
f 87/87/87 86/86/86 85/85/85
f 90/90/90 89/89/89 88/88/88
f 93/93/93 92/92/92 91/91/91
f 96/96/96 95/95/95 94/94/94
f 99/99/99 98/98/98 97/97/97
f 102/102/102 101/101/101 100/100/100
f 105/105/105 104/104/104 103/103/103
f 108/108/108 107/107/107 106/106/106
f 111/111/111 110/110/110 109/109/109
f 114/114/114 113/113/113 112/112/112
f 117/117/117 116/116/116 115/115/115
f 120/120/120 119/119/119 118/118/118
f 123/123/123 122/122/122 121/121/121
f 126/126/126 125/125/125 124/124/124
f 129/129/129 128/128/128 127/127/127
f 132/132/132 131/131/131 130/130/130
f 135/135/135 134/134/134 133/133/133
f 138/138/138 137/137/137 136/136/136
f 141/141/141 140/140/140 139/139/139
f 142/142/142 141/141/141 139/139/139
f 145/145/145 144/144/144 143/143/143
f 143/143/143 144/144/144 146/146/146
f 144/144/144 147/147/147 146/146/146
f 146/146/146 147/147/147 148/148/148
f 147/147/147 149/149/149 148/148/148
f 148/148/148 149/149/149 150/150/150
f 149/149/149 151/151/151 150/150/150
f 149/149/149 152/152/152 151/151/151
f 152/152/152 153/153/153 151/151/151
f 156/156/156 155/155/155 154/154/154
f 154/154/154 155/155/155 157/157/157
f 155/155/155 158/158/158 157/157/157
f 161/161/161 160/160/160 159/159/159
f 160/160/160 162/162/162 159/159/159
f 159/159/159 162/162/162 163/163/163
f 162/162/162 164/164/164 163/163/163
f 162/162/162 165/165/165 164/164/164
f 165/165/165 166/166/166 164/164/164
f 164/164/164 166/166/166 167/167/167
f 166/166/166 168/168/168 167/167/167
f 166/166/166 169/169/169 168/168/168
f 169/169/169 170/170/170 168/168/168
f 165/165/165 171/171/171 166/166/166
f 171/171/171 169/169/169 166/166/166
f 169/169/169 172/172/172 170/170/170
f 172/172/172 173/173/173 170/170/170
f 174/174/174 171/171/171 165/165/165
f 175/175/175 174/174/174 165/165/165
f 171/171/171 176/176/176 169/169/169
f 176/176/176 172/172/172 169/169/169
f 172/172/172 177/177/177 173/173/173
f 177/177/177 178/178/178 173/173/173
f 174/174/174 179/179/179 171/171/171
f 179/179/179 176/176/176 171/171/171
f 180/180/180 179/179/179 174/174/174
f 181/181/181 180/180/180 174/174/174
f 182/182/182 180/180/180 181/181/181
f 179/179/179 183/183/183 176/176/176
f 176/176/176 184/184/184 172/172/172
f 184/184/184 177/177/177 172/172/172
f 183/183/183 184/184/184 176/176/176
f 184/184/184 185/185/185 177/177/177
f 185/185/185 186/186/186 177/177/177
f 177/177/177 186/186/186 178/178/178
f 186/186/186 187/187/187 178/178/178
f 183/183/183 188/188/188 184/184/184
f 188/188/188 189/189/189 184/184/184
f 190/190/190 188/188/188 183/183/183
f 191/191/191 190/190/190 183/183/183
f 192/192/192 190/190/190 191/191/191
f 186/186/186 193/193/193 187/187/187
f 193/193/193 194/194/194 187/187/187
f 195/195/195 193/193/193 186/186/186
f 196/196/196 195/195/195 186/186/186
f 193/193/193 197/197/197 194/194/194
f 197/197/197 198/198/198 194/194/194
f 195/195/195 199/199/199 193/193/193
f 199/199/199 197/197/197 193/193/193
f 197/197/197 200/200/200 198/198/198
f 200/200/200 201/201/201 198/198/198
f 200/200/200 202/202/202 201/201/201
f 202/202/202 203/203/203 201/201/201
f 204/204/204 202/202/202 200/200/200
f 205/205/205 200/200/200 197/197/197
f 205/205/205 204/204/204 200/200/200
f 199/199/199 205/205/205 197/197/197
f 206/206/206 204/204/204 205/205/205
f 207/207/207 206/206/206 205/205/205
f 207/207/207 205/205/205 199/199/199
f 208/208/208 207/207/207 199/199/199
f 208/208/208 199/199/199 195/195/195
f 209/209/209 207/207/207 208/208/208
f 210/210/210 209/209/209 208/208/208
f 211/211/211 209/209/209 210/210/210
f 212/212/212 208/208/208 195/195/195
f 212/212/212 195/195/195 213/213/213
f 214/214/214 212/212/212 213/213/213
f 215/215/215 212/212/212 214/214/214
f 216/216/216 215/215/215 214/214/214
f 217/217/217 215/215/215 216/216/216
f 220/220/220 219/219/219 218/218/218
f 221/221/221 220/220/220 218/218/218
f 222/222/222 220/220/220 221/221/221
f 225/225/225 224/224/224 223/223/223
f 226/226/226 225/225/225 223/223/223
f 227/227/227 225/225/225 226/226/226
f 228/228/228 227/227/227 226/226/226
f 227/227/227 229/229/229 225/225/225
f 229/229/229 230/230/230 225/225/225
f 231/231/231 229/229/229 227/227/227
f 232/232/232 231/231/231 227/227/227
f 235/235/235 234/234/234 233/233/233
f 233/233/233 234/234/234 236/236/236
f 234/234/234 237/237/237 236/236/236
f 240/240/240 239/239/239 238/238/238
f 239/239/239 241/241/241 238/238/238
f 239/239/239 242/242/242 241/241/241
f 242/242/242 243/243/243 241/241/241
f 244/244/244 242/242/242 239/239/239
f 245/245/245 244/244/244 239/239/239
f 246/246/246 244/244/244 245/245/245
f 247/247/247 246/246/246 245/245/245
f 248/248/248 246/246/246 247/247/247
f 251/251/251 250/250/250 249/249/249
f 252/252/252 251/251/251 249/249/249
f 253/253/253 251/251/251 252/252/252
f 256/256/256 255/255/255 254/254/254
f 257/257/257 256/256/256 254/254/254
f 260/260/260 259/259/259 258/258/258
f 259/259/259 261/261/261 258/258/258
f 258/258/258 261/261/261 262/262/262
f 261/261/261 263/263/263 262/262/262
f 259/259/259 264/264/264 261/261/261
f 261/261/261 265/265/265 263/263/263
f 264/264/264 265/265/265 261/261/261
f 265/265/265 266/266/266 263/263/263
f 265/265/265 267/267/267 266/266/266
f 264/264/264 268/268/268 265/265/265
f 268/268/268 269/269/269 265/265/265
f 267/267/267 270/270/270 266/266/266
f 267/267/267 271/271/271 270/270/270
f 268/268/268 272/272/272 269/269/269
f 272/272/272 273/273/273 269/269/269
f 272/272/272 274/274/274 273/273/273
f 275/275/275 272/272/272 268/268/268
f 275/275/275 276/276/276 272/272/272
f 277/277/277 268/268/268 264/264/264
f 277/277/277 275/275/275 268/268/268
f 271/271/271 278/278/278 270/270/270
f 271/271/271 279/279/279 278/278/278
f 280/280/280 277/277/277 264/264/264
f 280/280/280 264/264/264 281/281/281
f 282/282/282 280/280/280 281/281/281
f 283/283/283 275/275/275 277/277/277
f 283/283/283 284/284/284 275/275/275
f 285/285/285 277/277/277 280/280/280
f 285/285/285 283/283/283 277/277/277
f 286/286/286 285/285/285 280/280/280
f 286/286/286 280/280/280 287/287/287
f 288/288/288 286/286/286 287/287/287
f 289/289/289 283/283/283 285/285/285
f 289/289/289 290/290/290 283/283/283
f 291/291/291 285/285/285 286/286/286
f 291/291/291 289/289/289 285/285/285
f 292/292/292 286/286/286 288/288/288
f 292/292/292 291/291/291 286/286/286
f 293/293/293 289/289/289 291/291/291
f 293/293/293 294/294/294 289/289/289
f 295/295/295 293/293/293 291/291/291
f 295/295/295 291/291/291 292/292/292
f 296/296/296 292/292/292 288/288/288
f 296/296/296 288/288/288 297/297/297
f 298/298/298 296/296/296 297/297/297
f 299/299/299 292/292/292 296/296/296
f 299/299/299 295/295/295 292/292/292
f 300/300/300 296/296/296 298/298/298
f 300/300/300 299/299/299 296/296/296
f 301/301/301 300/300/300 298/298/298
f 302/302/302 293/293/293 295/295/295
f 302/302/302 303/303/303 293/293/293
f 304/304/304 295/295/295 299/299/299
f 304/304/304 302/302/302 295/295/295
f 305/305/305 300/300/300 301/301/301
f 306/306/306 305/305/305 301/301/301
f 307/307/307 299/299/299 300/300/300
f 307/307/307 304/304/304 299/299/299
f 305/305/305 307/307/307 300/300/300
f 308/308/308 302/302/302 304/304/304
f 308/308/308 309/309/309 302/302/302
f 310/310/310 305/305/305 306/306/306
f 311/311/311 310/310/310 306/306/306
f 312/312/312 307/307/307 305/305/305
f 310/310/310 312/312/312 305/305/305
f 313/313/313 304/304/304 307/307/307
f 313/313/313 308/308/308 304/304/304
f 312/312/312 313/313/313 307/307/307
f 314/314/314 308/308/308 313/313/313
f 314/314/314 315/315/315 308/308/308
f 316/316/316 314/314/314 313/313/313
f 316/316/316 313/313/313 312/312/312
f 317/317/317 316/316/316 312/312/312
f 317/317/317 312/312/312 310/310/310
f 318/318/318 317/317/317 310/310/310
f 318/318/318 310/310/310 311/311/311
f 319/319/319 318/318/318 311/311/311
f 320/320/320 318/318/318 319/319/319
f 321/321/321 320/320/320 319/319/319
f 320/320/320 322/322/322 318/318/318
f 322/322/322 323/323/323 318/318/318
f 324/324/324 320/320/320 321/321/321
f 325/325/325 324/324/324 321/321/321
f 322/322/322 326/326/326 323/323/323
f 326/326/326 327/327/327 323/323/323
f 328/328/328 322/322/322 320/320/320
f 324/324/324 328/328/328 320/320/320
f 329/329/329 324/324/324 325/325/325
f 330/330/330 329/329/329 325/325/325
f 331/331/331 329/329/329 330/330/330
f 332/332/332 331/331/331 330/330/330
f 331/331/331 333/333/333 329/329/329
f 329/329/329 334/334/334 324/324/324
f 333/333/333 334/334/334 329/329/329
f 334/334/334 328/328/328 324/324/324
f 333/333/333 335/335/335 334/334/334
f 335/335/335 336/336/336 334/334/334
f 334/334/334 336/336/336 328/328/328
f 335/335/335 337/337/337 336/336/336
f 328/328/328 338/338/338 322/322/322
f 336/336/336 338/338/338 328/328/328
f 338/338/338 326/326/326 322/322/322
f 337/337/337 339/339/339 336/336/336
f 336/336/336 339/339/339 338/338/338
f 337/337/337 340/340/340 339/339/339
f 339/339/339 341/341/341 338/338/338
f 338/338/338 341/341/341 326/326/326
f 339/339/339 342/342/342 341/341/341
f 341/341/341 343/343/343 326/326/326
f 341/341/341 344/344/344 343/343/343
f 326/326/326 343/343/343 327/327/327
f 343/343/343 345/345/345 327/327/327
f 343/343/343 346/346/346 345/345/345
f 349/349/349 348/348/348 347/347/347
f 348/348/348 350/350/350 347/347/347
f 348/348/348 351/351/351 350/350/350
f 351/351/351 352/352/352 350/350/350
f 353/353/353 351/351/351 348/348/348
f 354/354/354 353/353/353 348/348/348
f 351/351/351 355/355/355 352/352/352
f 355/355/355 356/356/356 352/352/352
f 353/353/353 357/357/357 351/351/351
f 357/357/357 355/355/355 351/351/351
f 355/355/355 358/358/358 356/356/356
f 358/358/358 359/359/359 356/356/356
f 358/358/358 360/360/360 359/359/359
f 361/361/361 358/358/358 355/355/355
f 357/357/357 361/361/361 355/355/355
f 361/361/361 362/362/362 358/358/358
f 278/278/278 361/361/361 357/357/357
f 278/278/278 363/363/363 361/361/361
f 270/270/270 278/278/278 357/357/357
f 270/270/270 357/357/357 353/353/353
f 266/266/266 270/270/270 353/353/353
f 266/266/266 353/353/353 364/364/364
f 365/365/365 266/266/266 364/364/364
f 368/368/368 367/367/367 366/366/366
f 369/369/369 368/368/368 366/366/366
f 372/372/372 371/371/371 370/370/370
f 371/371/371 373/373/373 370/370/370
f 373/373/373 375/375/375 374/374/374
f 376/376/376 373/373/373 374/374/374
f 379/379/379 378/378/378 377/377/377
f 380/380/380 379/379/379 377/377/377
f 383/383/383 382/382/382 381/381/381
f 384/384/384 383/383/383 381/381/381
f 387/387/387 386/386/386 385/385/385
f 388/388/388 387/387/387 385/385/385
f 391/391/391 390/390/390 389/389/389
f 392/392/392 391/391/391 389/389/389
f 393/393/393 391/391/391 392/392/392
f 394/394/394 393/393/393 392/392/392
f 395/395/395 393/393/393 394/394/394
f 396/396/396 395/395/395 394/394/394
f 397/397/397 395/395/395 396/396/396
f 398/398/398 397/397/397 396/396/396
f 399/399/399 397/397/397 398/398/398
f 400/400/400 399/399/399 398/398/398
f 403/403/403 402/402/402 401/401/401
f 404/404/404 403/403/403 401/401/401
f 405/405/405 403/403/403 404/404/404
f 406/406/406 405/405/405 404/404/404
f 407/407/407 405/405/405 406/406/406
f 408/408/408 407/407/407 406/406/406
f 409/409/409 407/407/407 408/408/408
f 410/410/410 409/409/409 408/408/408
f 413/413/413 412/412/412 411/411/411
f 414/414/414 413/413/413 411/411/411
f 417/417/417 416/416/416 415/415/415
f 418/418/418 417/417/417 415/415/415
f 421/421/421 420/420/420 419/419/419
f 422/422/422 421/421/421 419/419/419
f 425/425/425 424/424/424 423/423/423
f 426/426/426 425/425/425 423/423/423
f 429/429/429 428/428/428 427/427/427
f 430/430/430 429/429/429 427/427/427
