g 
v 34.77732 18.6 -84.65604
v 39.055305 18.6 -88.20952
v 34.05801 18.6 -82.16138
v 41.639576 18.6 -88.458984
v 35.405823 18.6 -78.7008
v 44.794174 18.6 -86.4992
v 41.310806 20.5575 -74.197426
v 48.137848 20.5575 -79.86828
v 43.1756 21.03 -72.58135
v 49.3844 21.03 -77.738655
v 45.261826 21.03 -71.285286
v 50.27574 21.03 -75.450066
v 46.970886 21.03 -71.45026
v 49.800034 21.03 -73.80029
v 34.77732 18.6 -84.65604
v 34.77732 -11.4 -84.65604
v 34.05801 18.6 -82.16138
v 34.05801 -11.4 -82.16138
v 34.05801 18.6 -82.16138
v 34.05801 -11.4 -82.16138
v 35.405823 18.6 -78.7008
v 35.405823 -11.4 -78.7008
v 35.405823 18.6 -78.7008
v 35.405823 -11.4 -78.7008
v 41.310806 20.5575 -74.197426
v 41.310806 -9.442499 -74.197426
v 41.310806 20.5575 -74.197426
v 41.310806 -9.442499 -74.197426
v 43.1756 21.03 -72.58135
v 43.1756 -8.969999 -72.58135
v 43.1756 21.03 -72.58135
v 43.1756 -8.969999 -72.58135
v 45.261826 21.03 -71.285286
v 45.261826 -8.969999 -71.285286
v 45.261826 21.03 -71.285286
v 45.261826 -8.969999 -71.285286
v 46.970886 21.03 -71.45026
v 46.970886 -8.969999 -71.45026
v 39.055305 18.6 -88.20952
v 39.055305 -11.4 -88.20952
v 41.639576 18.6 -88.458984
v 41.639576 -11.4 -88.458984
v 41.639576 18.6 -88.458984
v 41.639576 -11.4 -88.458984
v 44.794174 18.6 -86.4992
v 44.794174 -11.4 -86.4992
v 44.794174 18.6 -86.4992
v 44.794174 -11.4 -86.4992
v 48.137848 20.5575 -79.86828
v 48.137848 -9.442499 -79.86828
v 48.137848 20.5575 -79.86828
v 48.137848 -9.442499 -79.86828
v 49.3844 21.03 -77.738655
v 49.3844 -8.969999 -77.738655
v 49.3844 21.03 -77.738655
v 49.3844 -8.969999 -77.738655
v 50.27574 21.03 -75.450066
v 50.27574 -8.969999 -75.450066
v 50.27574 21.03 -75.450066
v 50.27574 -8.969999 -75.450066
v 49.800034 21.03 -73.80029
v 49.800034 -8.969999 -73.80029
vt -0.09908714 0.05034773
vt -0.09353029 0.050124455
vt -0.10129132 0.04897574
vt -0.09144329 0.04858007
vt -0.10260621 0.04550252
vt -0.09041128 0.04501255
vt -0.10123326 0.038204286
vt -0.09236533 0.037847985
vt -0.10092947 0.03575544
vt -0.0928646 0.035431392
vt -0.10024697 0.033396132
vt -0.0937342 0.03313445
vt -0.09886678 0.032374773
vt -0.09519187 0.032227132
vt -0.09908714 0.05034773
vt -0.09908714 0.05034773
vt -0.10129132 0.04897574
vt -0.10129132 0.04897574
vt -0.10129132 0.04897574
vt -0.10129132 0.04897574
vt -0.10260621 0.04550252
vt -0.10260621 0.04550252
vt -0.10260621 0.04550252
vt -0.10260621 0.04550252
vt -0.10123326 0.038204286
vt -0.10123326 0.038204286
vt -0.10123326 0.038204286
vt -0.10123326 0.038204286
vt -0.10092947 0.03575544
vt -0.10092947 0.03575544
vt -0.10092947 0.03575544
vt -0.10092947 0.03575544
vt -0.10024697 0.033396132
vt -0.10024697 0.033396132
vt -0.10024697 0.033396132
vt -0.10024697 0.033396132
vt -0.09886678 0.032374773
vt -0.09886678 0.032374773
vt -0.09353029 0.050124455
vt -0.09353029 0.050124455
vt -0.09144329 0.04858007
vt -0.09144329 0.04858007
vt -0.09144329 0.04858007
vt -0.09144329 0.04858007
vt -0.09041128 0.04501255
vt -0.09041128 0.04501255
vt -0.09041128 0.04501255
vt -0.09041128 0.04501255
vt -0.09236533 0.037847985
vt -0.09236533 0.037847985
vt -0.09236533 0.037847985
vt -0.09236533 0.037847985
vt -0.0928646 0.035431392
vt -0.0928646 0.035431392
vt -0.0928646 0.035431392
vt -0.0928646 0.035431392
vt -0.0937342 0.03313445
vt -0.0937342 0.03313445
vt -0.0937342 0.03313445
vt -0.0937342 0.03313445
vt -0.09519187 0.032227132
vt -0.09519187 0.032227132
vn -0 1 0
vn -0 1 0
vn -0 1 0
vn -0 1 0
vn -0 1 0
vn -0 1 0
vn -0 1 0
vn -0 1 0
vn -0 1 0
vn -0 1 0
vn -0 1 0
vn -0 1 0
vn -0 1 0
vn -0 1 0
vn -0.6389627 0 -0.76923776
vn -0.6389627 0 -0.76923776
vn -0.9608546 0 -0.27705306
vn -0.9608546 0 -0.27705306
vn -0.93181974 -0 0.36292148
vn -0.93181974 0 0.36292148
vn -0.93181974 0 0.36292148
vn -0.93181974 0 0.36292148
vn -0.60641265 -0 0.7951501
vn -0.60641265 0 0.7951501
vn -0.60641265 0 0.7951501
vn -0.60641265 0 0.7951501
vn -0.6549122 -0 0.755705
vn -0.6549122 0 0.755705
vn -0.6549122 0 0.755705
vn -0.6549122 0 0.755705
vn -0.5277057 -0 0.84942734
vn -0.5277057 0 0.84942734
vn -0.5277057 0 0.84942734
vn -0.5277057 0 0.84942734
vn 0.09608036 0 0.99537355
vn 0.09608036 0 0.99537355
vn 0.6389663 0 0.7692348
vn 0.6389663 0 0.7692348
vn -0.6389627 0 -0.76923776
vn -0.6389627 0 -0.76923776
vn -0.096085794 0 -0.99537313
vn -0.096085794 0 -0.99537313
vn 0.5277047 0 -0.8494279
vn 0.5277047 -0 -0.8494279
vn 0.5277047 -0 -0.8494279
vn 0.5277047 -0 -0.8494279
vn 0.8929024 0 -0.45025033
vn 0.8929024 -0 -0.45025033
vn 0.8929024 -0 -0.45025033
vn 0.8929024 -0 -0.45025033
vn 0.8630246 0 -0.5051619
vn 0.8630246 -0 -0.5051619
vn 0.8630246 -0 -0.5051619
vn 0.8630246 -0 -0.5051619
vn 0.9318209 0 -0.36291844
vn 0.9318209 -0 -0.36291844
vn 0.9318209 -0 -0.36291844
vn 0.9318209 -0 -0.36291844
vn 0.96085274 0 0.2770596
vn 0.96085274 0 0.2770596
vn 0.6389663 0 0.7692348
vn 0.6389663 0 0.7692348
g _0
f 3/3/3 2/2/2 1/1/1
f 2/2/2 3/3/3 4/4/4
f 5/5/5 4/4/4 3/3/3
f 4/4/4 5/5/5 6/6/6
f 7/7/7 6/6/6 5/5/5
f 6/6/6 7/7/7 8/8/8
f 9/9/9 8/8/8 7/7/7
f 8/8/8 9/9/9 10/10/10
f 11/11/11 10/10/10 9/9/9
f 10/10/10 11/11/11 12/12/12
f 13/13/13 12/12/12 11/11/11
f 12/12/12 13/13/13 14/14/14
g _1
f 15/15/15 16/16/16 17/17/17
f 18/18/18 17/17/17 16/16/16
f 19/19/19 20/20/20 21/21/21
f 22/22/22 21/21/21 20/20/20
f 23/23/23 24/24/24 25/25/25
f 26/26/26 25/25/25 24/24/24
f 27/27/27 28/28/28 29/29/29
f 30/30/30 29/29/29 28/28/28
f 31/31/31 32/32/32 33/33/33
f 34/34/34 33/33/33 32/32/32
f 35/35/35 36/36/36 37/37/37
f 38/38/38 37/37/37 36/36/36
f 41/41/41 40/40/40 39/39/39
f 40/40/40 41/41/41 42/42/42
f 45/45/45 44/44/44 43/43/43
f 44/44/44 45/45/45 46/46/46
f 49/49/49 48/48/48 47/47/47
f 48/48/48 49/49/49 50/50/50
f 53/53/53 52/52/52 51/51/51
f 52/52/52 53/53/53 54/54/54
f 57/57/57 56/56/56 55/55/55
f 56/56/56 57/57/57 58/58/58
f 61/61/61 60/60/60 59/59/59
f 60/60/60 61/61/61 62/62/62
f 39/39/39 16/16/16 15/15/15
f 16/16/16 39/39/39 40/40/40
f 37/37/37 38/38/38 61/61/61
f 62/62/62 61/61/61 38/38/38
