g 
v -194.18106 13.49 76.45383
v -209.04721 13.49 48.712433
v -180.68353 13.49 84.46545
v -208.24324 13.49 33.036884
v -159.0146 13.49 83.435356
v -195.38539 13.49 15.564644
v -153.25784 13.49 75.14149
v -185.2914 13.49 15.364363
v -144.77472 13.49 69.82009
v -176.1626 13.49 11.247822
v -134.86288 13.49 67.16474
v -168.4625 13.49 4.4652386
v -127.80917 13.49 59.175926
v -157.9043 13.49 3.016117
v -118.371086 13.49 56.980183
v -149.73044 13.49 -4.22608
v -108.31784 13.49 56.531525
v -141.9173 13.49 -12.516991
v -100.77634 13.49 49.478344
v -131.56418 13.49 -14.125788
v -94.006424 13.49 40.64909
v -120.43945 13.49 -13.958506
v -84.987625 13.49 36.465763
v -111.563614 13.49 -18.437153
v -76.75503 13.49 35.265057
v -101.90157 13.49 -25.898422
v -69.018524 13.49 34.27991
v -90.91653 13.49 -31.305552
v -58.831406 13.49 34.35642
v -82.29022 13.49 -37.522144
v -49.090706 13.49 32.30972
v -73.21749 13.49 -41.615536
v -40.615536 13.49 26.385393
v -62.879234 13.49 -41.831295
v -30.355621 13.49 25.919083
v -54.325718 13.49 -47.505074
v -20.991652 13.49 22.72739
v -44.889633 13.49 -50.452618
v -12.690382 13.49 16.294445
v -34.392326 13.49 -50.15881
v -3.6133614 13.49 12.23806
v -24.670773 13.49 -52.24156
v 4.6659 13.49 8.798218
v -14.151466 13.49 -54.940857
v 10.701742 13.49 5.2688923
v -1.2015114 13.49 -56.427284
v 18.559631 13.49 6.465225
v 10.363239 13.49 -60.018135
v 28.445934 13.49 6.687317
v 19.899578 13.49 -62.634743
v 38.59913 13.49 9.074196
v 29.169027 13.49 -67.41614
v 45.53605 13.49 4.711832
v 41.65475 13.49 -65.448296
v 52.073547 13.49 2.9315395
v 54.758755 13.49 -63.434532
v 60.811874 13.49 6.3060894
v 65.755745 13.49 -65.44934
v 70.8974 13.49 3.8236523
v 75.40552 13.49 -61.607162
v 80.23803 13.49 12.214348
v 85.8002 13.49 -68.638115
v 90.21654 13.49 11.776806
v 95.542534 13.49 -66.84596
v 100.49569 13.49 5.748123
v 104.854 13.49 -59.50889
v 109.69883 13.49 15.268894
v 115.24148 13.49 -67.72127
v 119.64404 13.49 13.678608
v 124.88689 13.49 -64.822586
v 128.99557 13.49 16.754429
v 135.12598 13.49 -66.59001
v 136.3509 13.49 14.612841
v 147.33476 13.49 -62.876785
v 145.01474 13.49 9.669025
v 157.99641 13.49 -53.992153
v 154.33665 13.49 13.310789
v 167.99995 13.49 -53.6931
v 164.0414 13.49 15.075268
v 177.62071 13.49 -51.516766
v 172.8276 13.49 20.953783
v 188.15997 13.49 -53.454468
v 181.13397 13.49 25.402578
v 199.17093 13.49 -53.881447
v 190.05585 13.49 27.502625
v 209.49295 13.49 -51.230705
v 200.0334 13.49 28.437616
v 218.75931 13.49 -47.41491
v 211.53885 13.49 23.183523
v 226.49774 13.49 -37.410023
v 218.71887 13.49 35.450405
v 238.56161 13.49 -44.926113
v 228.76935 13.49 31.9549
v 245.83066 13.49 -37.1549
v 250.52374 13.49 32.15451
v 265.1786 13.49 -27.207481
v 262.58255 13.49 19.891354
v 270.14493 13.49 -10.741287
v -194.18106 13.49 76.45383
v -194.18106 9.4 76.45383
v -180.68353 13.49 84.46545
v -180.68353 9.4 84.46545
v -180.68353 13.49 84.46545
v -180.68353 9.4 84.46545
v -159.0146 13.49 83.435356
v -159.0146 9.4 83.435356
v -159.0146 13.49 83.435356
v -159.0146 9.4 83.435356
v -153.25784 13.49 75.14149
v -153.25784 9.4 75.14149
v -153.25784 13.49 75.14149
v -153.25784 9.4 75.14149
v -144.77472 13.49 69.82009
v -144.77472 9.4 69.82009
v -144.77472 13.49 69.82009
v -144.77472 9.4 69.82009
v -134.86288 13.49 67.16474
v -134.86288 9.4 67.16474
v -134.86288 13.49 67.16474
v -134.86288 9.4 67.16474
v -127.80917 13.49 59.175926
v -127.80917 9.4 59.175926
v -127.80917 13.49 59.175926
v -127.80917 9.4 59.175926
v -118.371086 13.49 56.980183
v -118.371086 9.4 56.980183
v -118.371086 13.49 56.980183
v -118.371086 9.4 56.980183
v -108.31784 13.49 56.531525
v -108.31784 9.4 56.531525
v -108.31784 13.49 56.531525
v -108.31784 9.4 56.531525
v -100.77634 13.49 49.478344
v -100.77634 9.4 49.478344
v -100.77634 13.49 49.478344
v -100.77634 9.4 49.478344
v -94.006424 13.49 40.64909
v -94.006424 9.4 40.64909
v -94.006424 13.49 40.64909
v -94.006424 9.4 40.64909
v -84.987625 13.49 36.465763
v -84.987625 9.4 36.465763
v -84.987625 13.49 36.465763
v -84.987625 9.4 36.465763
v -76.75503 13.49 35.265057
v -76.75503 9.4 35.265057
v -76.75503 13.49 35.265057
v -76.75503 9.4 35.265057
v -69.018524 13.49 34.27991
v -69.018524 9.4 34.27991
v -69.018524 13.49 34.27991
v -69.018524 9.4 34.27991
v -58.831406 13.49 34.35642
v -58.831406 9.4 34.35642
v -58.831406 13.49 34.35642
v -58.831406 9.4 34.35642
v -49.090706 13.49 32.30972
v -49.090706 9.4 32.30972
v -49.090706 13.49 32.30972
v -49.090706 9.4 32.30972
v -40.615536 13.49 26.385393
v -40.615536 9.4 26.385393
v -40.615536 13.49 26.385393
v -40.615536 9.4 26.385393
v -30.355621 13.49 25.919083
v -30.355621 9.4 25.919083
v -30.355621 13.49 25.919083
v -30.355621 9.4 25.919083
v -20.991652 13.49 22.72739
v -20.991652 9.4 22.72739
v -20.991652 13.49 22.72739
v -20.991652 9.4 22.72739
v -12.690382 13.49 16.294445
v -12.690382 9.4 16.294445
v -12.690382 13.49 16.294445
v -12.690382 9.4 16.294445
v -3.6133614 13.49 12.23806
v -3.6133614 9.4 12.23806
v -3.6133614 13.49 12.23806
v -3.6133614 9.4 12.23806
v 4.6659 13.49 8.798218
v 4.6659 9.4 8.798218
v 4.6659 13.49 8.798218
v 4.6659 9.4 8.798218
v 10.701742 13.49 5.2688923
v 10.701742 9.4 5.2688923
v 10.701742 13.49 5.2688923
v 10.701742 9.4 5.2688923
v 18.559631 13.49 6.465225
v 18.559631 9.4 6.465225
v 18.559631 13.49 6.465225
v 18.559631 9.4 6.465225
v 28.445934 13.49 6.687317
v 28.445934 9.4 6.687317
v 28.445934 13.49 6.687317
v 28.445934 9.4 6.687317
v 38.59913 13.49 9.074196
v 38.59913 9.4 9.074196
v 38.59913 13.49 9.074196
v 38.59913 9.4 9.074196
v 45.53605 13.49 4.711832
v 45.53605 9.4 4.711832
v 45.53605 13.49 4.711832
v 45.53605 9.4 4.711832
v 52.073547 13.49 2.9315395
v 52.073547 9.4 2.9315395
v 52.073547 13.49 2.9315395
v 52.073547 9.4 2.9315395
v 60.811874 13.49 6.3060894
v 60.811874 9.4 6.3060894
v 60.811874 13.49 6.3060894
v 60.811874 9.4 6.3060894
v 70.8974 13.49 3.8236523
v 70.8974 9.4 3.8236523
v 70.8974 13.49 3.8236523
v 70.8974 9.4 3.8236523
v 80.23803 13.49 12.214348
v 80.23803 9.4 12.214348
v 80.23803 13.49 12.214348
v 80.23803 9.4 12.214348
v 90.21654 13.49 11.776806
v 90.21654 9.4 11.776806
v 90.21654 13.49 11.776806
v 90.21654 9.4 11.776806
v 100.49569 13.49 5.748123
v 100.49569 9.4 5.748123
v 100.49569 13.49 5.748123
v 100.49569 9.4 5.748123
v 109.69883 13.49 15.268894
v 109.69883 9.4 15.268894
v 109.69883 13.49 15.268894
v 109.69883 9.4 15.268894
v 119.64404 13.49 13.678608
v 119.64404 9.4 13.678608
v 119.64404 13.49 13.678608
v 119.64404 9.4 13.678608
v 128.99557 13.49 16.754429
v 128.99557 9.4 16.754429
v 128.99557 13.49 16.754429
v 128.99557 9.4 16.754429
v 136.3509 13.49 14.612841
v 136.3509 9.4 14.612841
v 136.3509 13.49 14.612841
v 136.3509 9.4 14.612841
v 145.01474 13.49 9.669025
v 145.01474 9.4 9.669025
v 145.01474 13.49 9.669025
v 145.01474 9.4 9.669025
v 154.33665 13.49 13.310789
v 154.33665 9.4 13.310789
v 154.33665 13.49 13.310789
v 154.33665 9.4 13.310789
v 164.0414 13.49 15.075268
v 164.0414 9.4 15.075268
v 164.0414 13.49 15.075268
v 164.0414 9.4 15.075268
v 172.8276 13.49 20.953783
v 172.8276 9.4 20.953783
v 172.8276 13.49 20.953783
v 172.8276 9.4 20.953783
v 181.13397 13.49 25.402578
v 181.13397 9.4 25.402578
v 181.13397 13.49 25.402578
v 181.13397 9.4 25.402578
v 190.05585 13.49 27.502625
v 190.05585 9.4 27.502625
v 190.05585 13.49 27.502625
v 190.05585 9.4 27.502625
v 200.0334 13.49 28.437616
v 200.0334 9.4 28.437616
v 200.0334 13.49 28.437616
v 200.0334 9.4 28.437616
v 211.53885 13.49 23.183523
v 211.53885 9.4 23.183523
v 211.53885 13.49 23.183523
v 211.53885 9.4 23.183523
v 218.71887 13.49 35.450405
v 218.71887 9.4 35.450405
v 218.71887 13.49 35.450405
v 218.71887 9.4 35.450405
v 228.76935 13.49 31.9549
v 228.76935 9.4 31.9549
v 228.76935 13.49 31.9549
v 228.76935 9.4 31.9549
v 250.52374 13.49 32.15451
v 250.52374 9.4 32.15451
v 250.52374 13.49 32.15451
v 250.52374 9.4 32.15451
v 262.58255 13.49 19.891354
v 262.58255 9.4 19.891354
v -209.04721 13.49 48.712433
v -209.04721 9.4 48.712433
v -208.24324 13.49 33.036884
v -208.24324 9.4 33.036884
v -208.24324 13.49 33.036884
v -208.24324 9.4 33.036884
v -195.38539 13.49 15.564644
v -195.38539 9.4 15.564644
v -195.38539 13.49 15.564644
v -195.38539 9.4 15.564644
v -185.2914 13.49 15.364363
v -185.2914 9.4 15.364363
v -185.2914 13.49 15.364363
v -185.2914 9.4 15.364363
v -176.1626 13.49 11.247822
v -176.1626 9.4 11.247822
v -176.1626 13.49 11.247822
v -176.1626 9.4 11.247822
v -168.4625 13.49 4.4652386
v -168.4625 9.4 4.4652386
v -168.4625 13.49 4.4652386
v -168.4625 9.4 4.4652386
v -157.9043 13.49 3.016117
v -157.9043 9.4 3.016117
v -157.9043 13.49 3.016117
v -157.9043 9.4 3.016117
v -149.73044 13.49 -4.22608
v -149.73044 9.4 -4.22608
v -149.73044 13.49 -4.22608
v -149.73044 9.4 -4.22608
v -141.9173 13.49 -12.516991
v -141.9173 9.4 -12.516991
v -141.9173 13.49 -12.516991
v -141.9173 9.4 -12.516991
v -131.56418 13.49 -14.125788
v -131.56418 9.4 -14.125788
v -131.56418 13.49 -14.125788
v -131.56418 9.4 -14.125788
v -120.43945 13.49 -13.958506
v -120.43945 9.4 -13.958506
v -120.43945 13.49 -13.958506
v -120.43945 9.4 -13.958506
v -111.563614 13.49 -18.437153
v -111.563614 9.4 -18.437153
v -111.563614 13.49 -18.437153
v -111.563614 9.4 -18.437153
v -101.90157 13.49 -25.898422
v -101.90157 9.4 -25.898422
v -101.90157 13.49 -25.898422
v -101.90157 9.4 -25.898422
v -90.91653 13.49 -31.305552
v -90.91653 9.4 -31.305552
v -90.91653 13.49 -31.305552
v -90.91653 9.4 -31.305552
v -82.29022 13.49 -37.522144
v -82.29022 9.4 -37.522144
v -82.29022 13.49 -37.522144
v -82.29022 9.4 -37.522144
v -73.21749 13.49 -41.615536
v -73.21749 9.4 -41.615536
v -73.21749 13.49 -41.615536
v -73.21749 9.4 -41.615536
v -62.879234 13.49 -41.831295
v -62.879234 9.4 -41.831295
v -62.879234 13.49 -41.831295
v -62.879234 9.4 -41.831295
v -54.325718 13.49 -47.505074
v -54.325718 9.4 -47.505074
v -54.325718 13.49 -47.505074
v -54.325718 9.4 -47.505074
v -44.889633 13.49 -50.452618
v -44.889633 9.4 -50.452618
v -44.889633 13.49 -50.452618
v -44.889633 9.4 -50.452618
v -34.392326 13.49 -50.15881
v -34.392326 9.4 -50.15881
v -34.392326 13.49 -50.15881
v -34.392326 9.4 -50.15881
v -24.670773 13.49 -52.24156
v -24.670773 9.4 -52.24156
v -24.670773 13.49 -52.24156
v -24.670773 9.4 -52.24156
v -14.151466 13.49 -54.940857
v -14.151466 9.4 -54.940857
v -14.151466 13.49 -54.940857
v -14.151466 9.4 -54.940857
v -1.2015114 13.49 -56.427284
v -1.2015114 9.4 -56.427284
v -1.2015114 13.49 -56.427284
v -1.2015114 9.4 -56.427284
v 10.363239 13.49 -60.018135
v 10.363239 9.4 -60.018135
v 10.363239 13.49 -60.018135
v 10.363239 9.4 -60.018135
v 19.899578 13.49 -62.634743
v 19.899578 9.4 -62.634743
v 19.899578 13.49 -62.634743
v 19.899578 9.4 -62.634743
v 29.169027 13.49 -67.41614
v 29.169027 9.4 -67.41614
v 29.169027 13.49 -67.41614
v 29.169027 9.4 -67.41614
v 41.65475 13.49 -65.448296
v 41.65475 9.4 -65.448296
v 41.65475 13.49 -65.448296
v 41.65475 9.4 -65.448296
v 54.758755 13.49 -63.434532
v 54.758755 9.4 -63.434532
v 54.758755 13.49 -63.434532
v 54.758755 9.4 -63.434532
v 65.755745 13.49 -65.44934
v 65.755745 9.4 -65.44934
v 65.755745 13.49 -65.44934
v 65.755745 9.4 -65.44934
v 75.40552 13.49 -61.607162
v 75.40552 9.4 -61.607162
v 75.40552 13.49 -61.607162
v 75.40552 9.4 -61.607162
v 85.8002 13.49 -68.638115
v 85.8002 9.4 -68.638115
v 85.8002 13.49 -68.638115
v 85.8002 9.4 -68.638115
v 95.542534 13.49 -66.84596
v 95.542534 9.4 -66.84596
v 95.542534 13.49 -66.84596
v 95.542534 9.4 -66.84596
v 104.854 13.49 -59.50889
v 104.854 9.4 -59.50889
v 104.854 13.49 -59.50889
v 104.854 9.4 -59.50889
v 115.24148 13.49 -67.72127
v 115.24148 9.4 -67.72127
v 115.24148 13.49 -67.72127
v 115.24148 9.4 -67.72127
v 124.88689 13.49 -64.822586
v 124.88689 9.4 -64.822586
v 124.88689 13.49 -64.822586
v 124.88689 9.4 -64.822586
v 135.12598 13.49 -66.59001
v 135.12598 9.4 -66.59001
v 135.12598 13.49 -66.59001
v 135.12598 9.4 -66.59001
v 147.33476 13.49 -62.876785
v 147.33476 9.4 -62.876785
v 147.33476 13.49 -62.876785
v 147.33476 9.4 -62.876785
v 157.99641 13.49 -53.992153
v 157.99641 9.4 -53.992153
v 157.99641 13.49 -53.992153
v 157.99641 9.4 -53.992153
v 167.99995 13.49 -53.6931
v 167.99995 9.4 -53.6931
v 167.99995 13.49 -53.6931
v 167.99995 9.4 -53.6931
v 177.62071 13.49 -51.516766
v 177.62071 9.4 -51.516766
v 177.62071 13.49 -51.516766
v 177.62071 9.4 -51.516766
v 188.15997 13.49 -53.454468
v 188.15997 9.4 -53.454468
v 188.15997 13.49 -53.454468
v 188.15997 9.4 -53.454468
v 199.17093 13.49 -53.881447
v 199.17093 9.4 -53.881447
v 199.17093 13.49 -53.881447
v 199.17093 9.4 -53.881447
v 209.49295 13.49 -51.230705
v 209.49295 9.4 -51.230705
v 209.49295 13.49 -51.230705
v 209.49295 9.4 -51.230705
v 218.75931 13.49 -47.41491
v 218.75931 9.4 -47.41491
v 218.75931 13.49 -47.41491
v 218.75931 9.4 -47.41491
v 226.49774 13.49 -37.410023
v 226.49774 9.4 -37.410023
v 226.49774 13.49 -37.410023
v 226.49774 9.4 -37.410023
v 238.56161 13.49 -44.926113
v 238.56161 9.4 -44.926113
v 238.56161 13.49 -44.926113
v 238.56161 9.4 -44.926113
v 245.83066 13.49 -37.1549
v 245.83066 9.4 -37.1549
v 245.83066 13.49 -37.1549
v 245.83066 9.4 -37.1549
v 265.1786 13.49 -27.207481
v 265.1786 9.4 -27.207481
v 265.1786 13.49 -27.207481
v 265.1786 9.4 -27.207481
v 270.14493 13.49 -10.741287
v 270.14493 9.4 -10.741287
vt 0.15959764 0.13446216
vt 0.18254454 0.112920895
vt 0.14424835 0.13774385
vt 0.18678866 0.09780941
vt 0.12404304 0.1298477
vt 0.18018384 0.07714593
vt 0.12123637 0.12014972
vt 0.17068237 0.073732615
vt 0.11489684 0.11239788
vt 0.1633462 0.06691635
vt 0.106352 0.10671623
vt 0.15821531 0.058029894
vt 0.10221887 0.09689313
vt 0.14867274 0.053284895
vt 0.0939762 0.09179831
vt 0.14323969 0.0438116
vt 0.084592655 0.088162646
vt 0.13848338 0.033459704
vt 0.07969848 0.07907042
vt 0.12918615 0.02862888
vt 0.07610268 0.06854151
vt 0.11859052 0.025234725
vt 0.06889208 0.06169709
vt 0.1116097 0.018156094
vt 0.06147401 0.057930175
vt 0.10483635 0.007999949
vt 0.05445722 0.054525964
vt 0.09615328 -0.00063211896
vt 0.044779096 0.051345214
vt 0.08996395 -0.009278001
vt 0.036202062 0.04629499
vt 0.08267351 -0.016054425
vt 0.030062612 0.037974335
vt 0.072945505 -0.019560406
vt 0.020488853 0.034255944
vt 0.0666518 -0.027668653
vt 0.012634477 0.028240995
vt 0.058651112 -0.03347527
vt 0.0068222466 0.019493889
vt 0.048609648 -0.03654916
vt -0.0004840678 0.012751164
vt 0.04006227 -0.04162743
vt -0.0072312886 0.0068474617
vt 0.030955806 -0.047544718
vt -0.011823987 0.0015753973
vt 0.01915864 -0.053088877
vt -0.019652462 0.00019967098
vt 0.009346194 -0.0601849
vt -0.029092012 -0.0027470558
vt 0.0011448197 -0.065709926
vt -0.039475806 -0.0037275823
vt -0.0061123148 -0.07320114
vt -0.044656366 -0.010076824
vt -0.018572679 -0.075323656
vt -0.050283004 -0.0138516445
vt -0.03163361 -0.07760011
vt -0.05964143 -0.01344438
vt -0.041411337 -0.0830213
vt -0.068406075 -0.01901764
vt -0.051782817 -0.08246196
vt -0.07993717 -0.014049235
vt -0.05938787 -0.09244429
vt -0.08925345 -0.0176505
vt -0.06919239 -0.0938572
vt -0.09706909 -0.026646148
vt -0.08035936 -0.089877926
vt -0.10883079 -0.020562936
vt -0.0875803 -0.10097752
vt -0.117747374 -0.025245951
vt -0.09764634 -0.10131089
vt -0.12759149 -0.0253176
vt -0.10678486 -0.10625561
vt -0.13387777 -0.029695973
vt -0.11954018 -0.106635705
vt -0.14050913 -0.03714771
vt -0.13248086 -0.10162109
vt -0.15050592 -0.03667359
vt -0.14205608 -0.104532324
vt -0.16026597 -0.038100712
vt -0.15186808 -0.10554233
vt -0.17046942 -0.03533589
vt -0.16123667 -0.11074428
vt -0.17976156 -0.033772685
vt -0.1715347 -0.11466525
vt -0.1888869 -0.034631804
vt -0.18216275 -0.11544965
vt -0.19864058 -0.0369321
vt -0.19216245 -0.11479287
vt -0.20786569 -0.045585334
vt -0.20269075 -0.10778314
vt -0.21858718 -0.036253724
vt -0.21172266 -0.11875826
vt -0.22699508 -0.04277581
vt -0.2210928 -0.113715336
vt -0.2476741 -0.049533915
vt -0.24260432 -0.11046756
vt -0.25518522 -0.06500591
vt -0.25256908 -0.096449584
vt 0.15959764 0.13446216
vt 0.15959764 0.13446216
vt 0.14424835 0.13774385
vt 0.14424835 0.13774385
vt 0.14424835 0.13774385
vt 0.14424835 0.13774385
vt 0.12404304 0.1298477
vt 0.12404304 0.1298477
vt 0.12404304 0.1298477
vt 0.12404304 0.1298477
vt 0.12123637 0.12014972
vt 0.12123637 0.12014972
vt 0.12123637 0.12014972
vt 0.12123637 0.12014972
vt 0.11489684 0.11239788
vt 0.11489684 0.11239788
vt 0.11489684 0.11239788
vt 0.11489684 0.11239788
vt 0.106352 0.10671623
vt 0.106352 0.10671623
vt 0.106352 0.10671623
vt 0.106352 0.10671623
vt 0.10221887 0.09689313
vt 0.10221887 0.09689313
vt 0.10221887 0.09689313
vt 0.10221887 0.09689313
vt 0.0939762 0.09179831
vt 0.0939762 0.09179831
vt 0.0939762 0.09179831
vt 0.0939762 0.09179831
vt 0.084592655 0.088162646
vt 0.084592655 0.088162646
vt 0.084592655 0.088162646
vt 0.084592655 0.088162646
vt 0.07969848 0.07907042
vt 0.07969848 0.07907042
vt 0.07969848 0.07907042
vt 0.07969848 0.07907042
vt 0.07610268 0.06854151
vt 0.07610268 0.06854151
vt 0.07610268 0.06854151
vt 0.07610268 0.06854151
vt 0.06889208 0.06169709
vt 0.06889208 0.06169709
vt 0.06889208 0.06169709
vt 0.06889208 0.06169709
vt 0.06147401 0.057930175
vt 0.06147401 0.057930175
vt 0.06147401 0.057930175
vt 0.06147401 0.057930175
vt 0.05445722 0.054525964
vt 0.05445722 0.054525964
vt 0.05445722 0.054525964
vt 0.05445722 0.054525964
vt 0.044779096 0.051345214
vt 0.044779096 0.051345214
vt 0.044779096 0.051345214
vt 0.044779096 0.051345214
vt 0.036202062 0.04629499
vt 0.036202062 0.04629499
vt 0.036202062 0.04629499
vt 0.036202062 0.04629499
vt 0.030062612 0.037974335
vt 0.030062612 0.037974335
vt 0.030062612 0.037974335
vt 0.030062612 0.037974335
vt 0.020488853 0.034255944
vt 0.020488853 0.034255944
vt 0.020488853 0.034255944
vt 0.020488853 0.034255944
vt 0.012634477 0.028240995
vt 0.012634477 0.028240995
vt 0.012634477 0.028240995
vt 0.012634477 0.028240995
vt 0.0068222466 0.019493889
vt 0.0068222466 0.019493889
vt 0.0068222466 0.019493889
vt 0.0068222466 0.019493889
vt -0.0004840678 0.012751164
vt -0.0004840678 0.012751164
vt -0.0004840678 0.012751164
vt -0.0004840678 0.012751164
vt -0.0072312886 0.0068474617
vt -0.0072312886 0.0068474617
vt -0.0072312886 0.0068474617
vt -0.0072312886 0.0068474617
vt -0.011823987 0.0015753973
vt -0.011823987 0.0015753973
vt -0.011823987 0.0015753973
vt -0.011823987 0.0015753973
vt -0.019652462 0.00019967098
vt -0.019652462 0.00019967098
vt -0.019652462 0.00019967098
vt -0.019652462 0.00019967098
vt -0.029092012 -0.0027470558
vt -0.029092012 -0.0027470558
vt -0.029092012 -0.0027470558
vt -0.029092012 -0.0027470558
vt -0.039475806 -0.0037275823
vt -0.039475806 -0.0037275823
vt -0.039475806 -0.0037275823
vt -0.039475806 -0.0037275823
vt -0.044656366 -0.010076824
vt -0.044656366 -0.010076824
vt -0.044656366 -0.010076824
vt -0.044656366 -0.010076824
vt -0.050283004 -0.0138516445
vt -0.050283004 -0.0138516445
vt -0.050283004 -0.0138516445
vt -0.050283004 -0.0138516445
vt -0.05964143 -0.01344438
vt -0.05964143 -0.01344438
vt -0.05964143 -0.01344438
vt -0.05964143 -0.01344438
vt -0.068406075 -0.01901764
vt -0.068406075 -0.01901764
vt -0.068406075 -0.01901764
vt -0.068406075 -0.01901764
vt -0.07993717 -0.014049235
vt -0.07993717 -0.014049235
vt -0.07993717 -0.014049235
vt -0.07993717 -0.014049235
vt -0.08925345 -0.0176505
vt -0.08925345 -0.0176505
vt -0.08925345 -0.0176505
vt -0.08925345 -0.0176505
vt -0.09706909 -0.026646148
vt -0.09706909 -0.026646148
vt -0.09706909 -0.026646148
vt -0.09706909 -0.026646148
vt -0.10883079 -0.020562936
vt -0.10883079 -0.020562936
vt -0.10883079 -0.020562936
vt -0.10883079 -0.020562936
vt -0.117747374 -0.025245951
vt -0.117747374 -0.025245951
vt -0.117747374 -0.025245951
vt -0.117747374 -0.025245951
vt -0.12759149 -0.0253176
vt -0.12759149 -0.0253176
vt -0.12759149 -0.0253176
vt -0.12759149 -0.0253176
vt -0.13387777 -0.029695973
vt -0.13387777 -0.029695973
vt -0.13387777 -0.029695973
vt -0.13387777 -0.029695973
vt -0.14050913 -0.03714771
vt -0.14050913 -0.03714771
vt -0.14050913 -0.03714771
vt -0.14050913 -0.03714771
vt -0.15050592 -0.03667359
vt -0.15050592 -0.03667359
vt -0.15050592 -0.03667359
vt -0.15050592 -0.03667359
vt -0.16026597 -0.038100712
vt -0.16026597 -0.038100712
vt -0.16026597 -0.038100712
vt -0.16026597 -0.038100712
vt -0.17046942 -0.03533589
vt -0.17046942 -0.03533589
vt -0.17046942 -0.03533589
vt -0.17046942 -0.03533589
vt -0.17976156 -0.033772685
vt -0.17976156 -0.033772685
vt -0.17976156 -0.033772685
vt -0.17976156 -0.033772685
vt -0.1888869 -0.034631804
vt -0.1888869 -0.034631804
vt -0.1888869 -0.034631804
vt -0.1888869 -0.034631804
vt -0.19864058 -0.0369321
vt -0.19864058 -0.0369321
vt -0.19864058 -0.0369321
vt -0.19864058 -0.0369321
vt -0.20786569 -0.045585334
vt -0.20786569 -0.045585334
vt -0.20786569 -0.045585334
vt -0.20786569 -0.045585334
vt -0.21858718 -0.036253724
vt -0.21858718 -0.036253724
vt -0.21858718 -0.036253724
vt -0.21858718 -0.036253724
vt -0.22699508 -0.04277581
vt -0.22699508 -0.04277581
vt -0.22699508 -0.04277581
vt -0.22699508 -0.04277581
vt -0.2476741 -0.049533915
vt -0.2476741 -0.049533915
vt -0.2476741 -0.049533915
vt -0.2476741 -0.049533915
vt -0.25518522 -0.06500591
vt -0.25518522 -0.06500591
vt 0.18254454 0.112920895
vt 0.18254454 0.112920895
vt 0.18678866 0.09780941
vt 0.18678866 0.09780941
vt 0.18678866 0.09780941
vt 0.18678866 0.09780941
vt 0.18018384 0.07714593
vt 0.18018384 0.07714593
vt 0.18018384 0.07714593
vt 0.18018384 0.07714593
vt 0.17068237 0.073732615
vt 0.17068237 0.073732615
vt 0.17068237 0.073732615
vt 0.17068237 0.073732615
vt 0.1633462 0.06691635
vt 0.1633462 0.06691635
vt 0.1633462 0.06691635
vt 0.1633462 0.06691635
vt 0.15821531 0.058029894
vt 0.15821531 0.058029894
vt 0.15821531 0.058029894
vt 0.15821531 0.058029894
vt 0.14867274 0.053284895
vt 0.14867274 0.053284895
vt 0.14867274 0.053284895
vt 0.14867274 0.053284895
vt 0.14323969 0.0438116
vt 0.14323969 0.0438116
vt 0.14323969 0.0438116
vt 0.14323969 0.0438116
vt 0.13848338 0.033459704
vt 0.13848338 0.033459704
vt 0.13848338 0.033459704
vt 0.13848338 0.033459704
vt 0.12918615 0.02862888
vt 0.12918615 0.02862888
vt 0.12918615 0.02862888
vt 0.12918615 0.02862888
vt 0.11859052 0.025234725
vt 0.11859052 0.025234725
vt 0.11859052 0.025234725
vt 0.11859052 0.025234725
vt 0.1116097 0.018156094
vt 0.1116097 0.018156094
vt 0.1116097 0.018156094
vt 0.1116097 0.018156094
vt 0.10483635 0.007999949
vt 0.10483635 0.007999949
vt 0.10483635 0.007999949
vt 0.10483635 0.007999949
vt 0.09615328 -0.00063211896
vt 0.09615328 -0.00063211896
vt 0.09615328 -0.00063211896
vt 0.09615328 -0.00063211896
vt 0.08996395 -0.009278001
vt 0.08996395 -0.009278001
vt 0.08996395 -0.009278001
vt 0.08996395 -0.009278001
vt 0.08267351 -0.016054425
vt 0.08267351 -0.016054425
vt 0.08267351 -0.016054425
vt 0.08267351 -0.016054425
vt 0.072945505 -0.019560406
vt 0.072945505 -0.019560406
vt 0.072945505 -0.019560406
vt 0.072945505 -0.019560406
vt 0.0666518 -0.027668653
vt 0.0666518 -0.027668653
vt 0.0666518 -0.027668653
vt 0.0666518 -0.027668653
vt 0.058651112 -0.03347527
vt 0.058651112 -0.03347527
vt 0.058651112 -0.03347527
vt 0.058651112 -0.03347527
vt 0.048609648 -0.03654916
vt 0.048609648 -0.03654916
vt 0.048609648 -0.03654916
vt 0.048609648 -0.03654916
vt 0.04006227 -0.04162743
vt 0.04006227 -0.04162743
vt 0.04006227 -0.04162743
vt 0.04006227 -0.04162743
vt 0.030955806 -0.047544718
vt 0.030955806 -0.047544718
vt 0.030955806 -0.047544718
vt 0.030955806 -0.047544718
vt 0.01915864 -0.053088877
vt 0.01915864 -0.053088877
vt 0.01915864 -0.053088877
vt 0.01915864 -0.053088877
vt 0.009346194 -0.0601849
vt 0.009346194 -0.0601849
vt 0.009346194 -0.0601849
vt 0.009346194 -0.0601849
vt 0.0011448197 -0.065709926
vt 0.0011448197 -0.065709926
vt 0.0011448197 -0.065709926
vt 0.0011448197 -0.065709926
vt -0.0061123148 -0.07320114
vt -0.0061123148 -0.07320114
vt -0.0061123148 -0.07320114
vt -0.0061123148 -0.07320114
vt -0.018572679 -0.075323656
vt -0.018572679 -0.075323656
vt -0.018572679 -0.075323656
vt -0.018572679 -0.075323656
vt -0.03163361 -0.07760011
vt -0.03163361 -0.07760011
vt -0.03163361 -0.07760011
vt -0.03163361 -0.07760011
vt -0.041411337 -0.0830213
vt -0.041411337 -0.0830213
vt -0.041411337 -0.0830213
vt -0.041411337 -0.0830213
vt -0.051782817 -0.08246196
vt -0.051782817 -0.08246196
vt -0.051782817 -0.08246196
vt -0.051782817 -0.08246196
vt -0.05938787 -0.09244429
vt -0.05938787 -0.09244429
vt -0.05938787 -0.09244429
vt -0.05938787 -0.09244429
vt -0.06919239 -0.0938572
vt -0.06919239 -0.0938572
vt -0.06919239 -0.0938572
vt -0.06919239 -0.0938572
vt -0.08035936 -0.089877926
vt -0.08035936 -0.089877926
vt -0.08035936 -0.089877926
vt -0.08035936 -0.089877926
vt -0.0875803 -0.10097752
vt -0.0875803 -0.10097752
vt -0.0875803 -0.10097752
vt -0.0875803 -0.10097752
vt -0.09764634 -0.10131089
vt -0.09764634 -0.10131089
vt -0.09764634 -0.10131089
vt -0.09764634 -0.10131089
vt -0.10678486 -0.10625561
vt -0.10678486 -0.10625561
vt -0.10678486 -0.10625561
vt -0.10678486 -0.10625561
vt -0.11954018 -0.106635705
vt -0.11954018 -0.106635705
vt -0.11954018 -0.106635705
vt -0.11954018 -0.106635705
vt -0.13248086 -0.10162109
vt -0.13248086 -0.10162109
vt -0.13248086 -0.10162109
vt -0.13248086 -0.10162109
vt -0.14205608 -0.104532324
vt -0.14205608 -0.104532324
vt -0.14205608 -0.104532324
vt -0.14205608 -0.104532324
vt -0.15186808 -0.10554233
vt -0.15186808 -0.10554233
vt -0.15186808 -0.10554233
vt -0.15186808 -0.10554233
vt -0.16123667 -0.11074428
vt -0.16123667 -0.11074428
vt -0.16123667 -0.11074428
vt -0.16123667 -0.11074428
vt -0.1715347 -0.11466525
vt -0.1715347 -0.11466525
vt -0.1715347 -0.11466525
vt -0.1715347 -0.11466525
vt -0.18216275 -0.11544965
vt -0.18216275 -0.11544965
vt -0.18216275 -0.11544965
vt -0.18216275 -0.11544965
vt -0.19216245 -0.11479287
vt -0.19216245 -0.11479287
vt -0.19216245 -0.11479287
vt -0.19216245 -0.11479287
vt -0.20269075 -0.10778314
vt -0.20269075 -0.10778314
vt -0.20269075 -0.10778314
vt -0.20269075 -0.10778314
vt -0.21172266 -0.11875826
vt -0.21172266 -0.11875826
vt -0.21172266 -0.11875826
vt -0.21172266 -0.11875826
vt -0.2210928 -0.113715336
vt -0.2210928 -0.113715336
vt -0.2210928 -0.113715336
vt -0.2210928 -0.113715336
vt -0.24260432 -0.11046756
vt -0.24260432 -0.11046756
vt -0.24260432 -0.11046756
vt -0.24260432 -0.11046756
vt -0.25256908 -0.096449584
vt -0.25256908 -0.096449584
vn -0 1 0
vn -0 1 0
vn -0 1 0
vn -0 1 0
vn -0 1 0
vn -0 1 0
vn -0 1 0
vn -0 1 0
vn -0 1 0
vn -0 1 0
vn -0 1 0
vn -0 1 0
vn -0 1 0
vn -0 1 0
vn -0 1 0
vn -0 1 0
vn -0 1 0
vn -0 1 0
vn -0 1 0
vn -0 1 0
vn -0 1 0
vn -0 1 0
vn -0 1 0
vn -0 1 0
vn -0 1 0
vn -0 1 0
vn -0 1 0
vn -0 1 0
vn -0 1 0
vn -0 1 0
vn -0 1 0
vn -0 1 0
vn -0 1 0
vn -0 1 0
vn -0 1 0
vn -0 1 0
vn -0 1 0
vn -0 1 0
vn -0 1 0
vn -0 1 0
vn -0 1 0
vn -0 1 0
vn -0 1 0
vn -0 1 0
vn -0 1 0
vn -0 1 0
vn -0 1 0
vn -0 1 0
vn -0 1 0
vn -0 1 0
vn -0 1 0
vn -0 1 0
vn -0 1 0
vn -0 1 0
vn -0 1 0
vn -0 1 0
vn -0 1 0
vn -0 1 0
vn -0 1 0
vn -0 1 0
vn -0 1 0
vn -0 1 0
vn -0 1 0
vn -0 1 0
vn -0 1 0
vn -0 1 0
vn -0 1 0
vn -0 1 0
vn -0 1 0
vn -0 1 0
vn -0 1 0
vn -0 1 0
vn -0 1 0
vn -0 1 0
vn -0 1 0
vn -0 1 0
vn -0 1 0
vn -0 1 0
vn -0 1 0
vn -0 1 0
vn -0 1 0
vn -0 1 0
vn -0 1 0
vn -0 1 0
vn -0 1 0
vn -0 1 0
vn -0 1 0
vn -0 1 0
vn -0 1 0
vn -0 1 0
vn -0 1 0
vn -0 1 0
vn -0 1 0
vn -0 1 0
vn -0 1 0
vn -0 1 0
vn -0 1 0
vn -0 1 0
vn -0.88141793 -0 0.47233716
vn -0.88141793 0 0.47233716
vn -0.5104192 0 0.8599257
vn -0.5104192 0 0.8599257
vn 0.04748404 0 0.998872
vn 0.04748404 0 0.998872
vn 0.04748404 0 0.998872
vn 0.04748404 0 0.998872
vn 0.8215032 0 0.5702039
vn 0.8215032 0 0.5702039
vn 0.8215032 0 0.5702039
vn 0.8215032 0 0.5702039
vn 0.5313944 0 0.8471245
vn 0.5313944 0 0.8471245
vn 0.5313944 0 0.8471245
vn 0.5313944 0 0.8471245
vn 0.25877193 0 0.96593845
vn 0.25877193 0 0.96593845
vn 0.25877193 0 0.96593845
vn 0.25877193 0 0.96593845
vn 0.7496164 0 0.6618725
vn 0.7496164 0 0.6618725
vn 0.7496164 0 0.6618725
vn 0.7496164 0 0.6618725
vn 0.2265957 0 0.97398895
vn 0.2265957 0 0.97398895
vn 0.2265957 0 0.97398895
vn 0.2265957 0 0.97398895
vn 0.044583797 0 0.9990056
vn 0.044583797 0 0.9990056
vn 0.044583797 0 0.9990056
vn 0.044583797 0 0.9990056
vn 0.6830655 0 0.73035717
vn 0.6830655 0 0.73035717
vn 0.6830655 0 0.73035717
vn 0.6830655 0 0.73035717
vn 0.7935709 0 0.60847783
vn 0.7935709 0 0.60847783
vn 0.7935709 0 0.60847783
vn 0.7935709 0 0.60847783
vn 0.4207825 0 0.90716153
vn 0.4207825 0 0.90716153
vn 0.4207825 0 0.90716153
vn 0.4207825 0 0.90716153
vn 0.14432094 0 0.989531
vn 0.14432094 0 0.989531
vn 0.14432094 0 0.989531
vn 0.14432094 0 0.989531
vn 0.12631732 0 0.9919899
vn 0.12631732 0 0.9919899
vn 0.12631732 0 0.9919899
vn 0.12631732 0 0.9919899
vn -0.007510015 -0 0.9999718
vn -0.007510015 0 0.9999718
vn -0.007510015 0 0.9999718
vn -0.007510015 0 0.9999718
vn 0.20562814 0 0.9786302
vn 0.20562814 0 0.9786302
vn 0.20562814 0 0.9786302
vn 0.20562814 0 0.9786302
vn 0.57292396 0 0.81960857
vn 0.57292396 0 0.81960857
vn 0.57292396 0 0.81960857
vn 0.57292396 0 0.81960857
vn 0.045402873 0 0.9989687
vn 0.045402873 0 0.9989687
vn 0.045402873 0 0.9989687
vn 0.045402873 0 0.9989687
vn 0.3226223 0 0.94652784
vn 0.3226223 0 0.94652784
vn 0.3226223 0 0.94652784
vn 0.3226223 0 0.94652784
vn 0.6125396 0 0.79043984
vn 0.6125396 0 0.79043984
vn 0.6125396 0 0.79043984
vn 0.6125396 0 0.79043984
vn 0.40799832 0 0.91298264
vn 0.40799832 0 0.91298264
vn 0.40799832 0 0.91298264
vn 0.40799832 0 0.91298264
vn 0.383679 0 0.9234665
vn 0.383679 0 0.9234665
vn 0.383679 0 0.9234665
vn 0.383679 0 0.9234665
vn 0.504769 0 0.8632544
vn 0.504769 0 0.8632544
vn 0.504769 0 0.8632544
vn 0.504769 0 0.8632544
vn -0.15051174 -0 0.9886082
vn -0.15051174 0 0.9886082
vn -0.15051174 0 0.9886082
vn -0.15051174 0 0.9886082
vn -0.022458917 -0 0.9997478
vn -0.022458917 0 0.9997478
vn -0.022458917 0 0.9997478
vn -0.022458917 0 0.9997478
vn -0.22884785 -0 0.9734622
vn -0.22884785 0 0.9734622
vn -0.22884785 0 0.9734622
vn -0.22884785 0 0.9734622
vn 0.5323476 0 0.8465258
vn 0.5323476 0 0.8465258
vn 0.5323476 0 0.8465258
vn 0.5323476 0 0.8465258
vn 0.26275176 0 0.9648634
vn 0.26275176 0 0.9648634
vn 0.26275176 0 0.9648634
vn 0.26275176 0 0.9648634
vn -0.3602486 -0 0.93285626
vn -0.3602486 0 0.93285626
vn -0.3602486 0 0.93285626
vn -0.3602486 0 0.93285626
vn 0.23900509 0 0.9710183
vn 0.23900509 0 0.9710183
vn 0.23900509 0 0.9710183
vn 0.23900509 0 0.9710183
vn -0.6682661 -0 0.74392235
vn -0.6682661 0 0.74392235
vn -0.6682661 0 0.74392235
vn -0.6682661 0 0.74392235
vn 0.043806344 0 0.99904007
vn 0.043806344 0 0.99904007
vn 0.043806344 0 0.99904007
vn 0.043806344 0 0.99904007
vn 0.50590515 0 0.8625891
vn 0.50590515 0 0.8625891
vn 0.50590515 0 0.8625891
vn 0.50590515 0 0.8625891
vn -0.7189986 -0 0.6950115
vn -0.7189986 0 0.6950115
vn -0.7189986 0 0.6950115
vn -0.7189986 0 0.6950115
vn 0.15789874 0 0.9874553
vn 0.15789874 0 0.9874553
vn 0.15789874 0 0.9874553
vn 0.15789874 0 0.9874553
vn -0.31244433 -0 0.94993603
vn -0.31244433 0 0.94993603
vn -0.31244433 0 0.94993603
vn -0.31244433 0 0.94993603
vn 0.27955282 0 0.96013033
vn 0.27955282 0 0.96013033
vn 0.27955282 0 0.96013033
vn 0.27955282 0 0.96013033
vn 0.49561384 0 0.86854297
vn 0.49561384 0 0.86854297
vn 0.49561384 0 0.86854297
vn 0.49561384 0 0.86854297
vn -0.3638844 -0 0.9314441
vn -0.3638844 0 0.9314441
vn -0.3638844 0 0.9314441
vn -0.3638844 0 0.9314441
vn -0.1788835 -0 0.9838703
vn -0.1788835 0 0.9838703
vn -0.1788835 0 0.9838703
vn -0.1788835 0 0.9838703
vn -0.5560775 -0 0.83113045
vn -0.5560775 0 0.83113045
vn -0.5560775 0 0.83113045
vn -0.5560775 0 0.83113045
vn -0.47213537 -0 0.8815261
vn -0.47213537 0 0.8815261
vn -0.47213537 0 0.8815261
vn -0.47213537 0 0.8815261
vn -0.22912012 -0 0.97339815
vn -0.22912012 0 0.97339815
vn -0.22912012 0 0.97339815
vn -0.22912012 0 0.97339815
vn -0.09330076 -0 0.99563795
vn -0.09330076 0 0.99563795
vn -0.09330076 0 0.99563795
vn -0.09330076 0 0.99563795
vn 0.41539747 0 0.90964
vn 0.41539747 0 0.90964
vn 0.41539747 0 0.90964
vn 0.41539747 0 0.90964
vn -0.8630326 -0 0.50514823
vn -0.8630326 0 0.50514823
vn -0.8630326 0 0.50514823
vn -0.8630326 0 0.50514823
vn 0.32849437 0 0.944506
vn 0.32849437 0 0.944506
vn 0.32849437 0 0.944506
vn 0.32849437 0 0.944506
vn -0.00917522 -0 0.9999579
vn -0.00917522 0 0.9999579
vn -0.00917522 0 0.9999579
vn -0.00917522 0 0.9999579
vn 0.7130226 0 0.701141
vn 0.7130226 0 0.701141
vn 0.97085255 0 0.23967747
vn 0.97085255 0 0.23967747
vn -0.88141793 0 0.47233716
vn -0.88141793 0 0.47233716
vn -0.9986874 0 -0.051220853
vn -0.9986874 0 -0.051220853
vn -0.8054174 0 -0.59270793
vn -0.8054174 0 -0.59270793
vn -0.8054174 0 -0.59270793
vn -0.8054174 0 -0.59270793
vn -0.01983771 0 -0.99980325
vn -0.01983771 0 -0.99980325
vn -0.01983771 0 -0.99980325
vn -0.01983771 0 -0.99980325
vn -0.41107714 0 -0.91160053
vn -0.41107714 0 -0.91160053
vn -0.41107714 0 -0.91160053
vn -0.41107714 0 -0.91160053
vn -0.6609844 0 -0.7503997
vn -0.6609844 0 -0.7503997
vn -0.6609844 0 -0.7503997
vn -0.6609844 0 -0.7503997
vn -0.13597608 0 -0.9907121
vn -0.13597608 0 -0.9907121
vn -0.13597608 0 -0.9907121
vn -0.13597608 0 -0.9907121
vn -0.6631632 0 -0.74847484
vn -0.6631632 0 -0.74847484
vn -0.6631632 0 -0.74847484
vn -0.6631632 0 -0.74847484
vn -0.7277647 0 -0.6858268
vn -0.7277647 0 -0.6858268
vn -0.7277647 0 -0.6858268
vn -0.7277647 0 -0.6858268
vn -0.1535497 0 -0.98814094
vn -0.1535497 0 -0.98814094
vn -0.1535497 0 -0.98814094
vn -0.1535497 0 -0.98814094
vn 0.015035265 0 -0.999887
vn 0.015035265 -0 -0.999887
vn 0.015035265 -0 -0.999887
vn 0.015035265 -0 -0.999887
vn -0.45048788 0 -0.89278257
vn -0.45048788 0 -0.89278257
vn -0.45048788 0 -0.89278257
vn -0.45048788 0 -0.89278257
vn -0.61119854 0 -0.7914773
vn -0.61119854 0 -0.7914773
vn -0.61119854 0 -0.7914773
vn -0.61119854 0 -0.7914773
vn -0.4416253 0 -0.8971996
vn -0.4416253 0 -0.8971996
vn -0.4416253 0 -0.8971996
vn -0.4416253 0 -0.8971996
vn -0.58465487 0 -0.81128216
vn -0.58465487 0 -0.81128216
vn -0.58465487 0 -0.81128216
vn -0.58465487 0 -0.81128216
vn -0.41125533 0 -0.9115202
vn -0.41125533 0 -0.9115202
vn -0.41125533 0 -0.9115202
vn -0.41125533 0 -0.9115202
vn -0.020865442 0 -0.99978226
vn -0.020865442 0 -0.99978226
vn -0.020865442 0 -0.99978226
vn -0.020865442 0 -0.99978226
vn -0.552772 0 -0.8333325
vn -0.552772 0 -0.8333325
vn -0.552772 0 -0.8333325
vn -0.552772 0 -0.8333325
vn -0.29816142 0 -0.95451546
vn -0.29816142 0 -0.95451546
vn -0.29816142 0 -0.95451546
vn -0.29816142 0 -0.95451546
vn 0.027977934 0 -0.9996085
vn 0.027977934 -0 -0.9996085
vn 0.027977934 -0 -0.9996085
vn 0.027977934 -0 -0.9996085
vn -0.20948696 0 -0.9778114
vn -0.20948696 0 -0.9778114
vn -0.20948696 0 -0.9778114
vn -0.20948696 0 -0.9778114
vn -0.24855134 0 -0.9686187
vn -0.24855134 0 -0.9686187
vn -0.24855134 0 -0.9686187
vn -0.24855134 0 -0.9686187
vn -0.11403369 0 -0.99347687
vn -0.11403369 0 -0.99347687
vn -0.11403369 0 -0.99347687
vn -0.11403369 0 -0.99347687
vn -0.29653406 0 -0.9550222
vn -0.29653406 0 -0.9550222
vn -0.29653406 0 -0.9550222
vn -0.29653406 0 -0.9550222
vn -0.2646031 0 -0.96435744
vn -0.2646031 0 -0.96435744
vn -0.2646031 0 -0.96435744
vn -0.2646031 0 -0.96435744
vn -0.45842814 0 -0.8887315
vn -0.45842814 0 -0.8887315
vn -0.45842814 0 -0.8887315
vn -0.45842814 0 -0.8887315
vn 0.1556856 0 -0.9878066
vn 0.1556856 -0 -0.9878066
vn 0.1556856 -0 -0.9878066
vn 0.1556856 -0 -0.9878066
vn 0.15189233 0 -0.98839706
vn 0.15189233 -0 -0.98839706
vn 0.15189233 -0 -0.98839706
vn 0.15189233 -0 -0.98839706
vn -0.18021484 0 -0.98362726
vn -0.18021484 0 -0.98362726
vn -0.18021484 0 -0.98362726
vn -0.18021484 0 -0.98362726
vn 0.36991858 0 -0.9290642
vn 0.36991858 -0 -0.9290642
vn 0.36991858 -0 -0.9290642
vn 0.36991858 -0 -0.9290642
vn -0.56026864 0 -0.82831097
vn -0.56026864 0 -0.82831097
vn -0.56026864 0 -0.82831097
vn -0.56026864 0 -0.82831097
vn 0.18091951 0 -0.98349786
vn 0.18091951 -0 -0.98349786
vn 0.18091951 -0 -0.98349786
vn 0.18091951 -0 -0.98349786
vn 0.61891234 0 -0.78546005
vn 0.61891234 -0 -0.78546005
vn 0.61891234 -0 -0.78546005
vn 0.61891234 -0 -0.78546005
vn -0.62019014 0 -0.78445154
vn -0.62019014 0 -0.78445154
vn -0.62019014 0 -0.78445154
vn -0.62019014 0 -0.78445154
vn 0.2878087 0 -0.9576879
vn 0.2878087 -0 -0.9576879
vn 0.2878087 -0 -0.9576879
vn 0.2878087 -0 -0.9576879
vn -0.17009993 0 -0.9854268
vn -0.17009993 0 -0.9854268
vn -0.17009993 0 -0.9854268
vn -0.17009993 0 -0.9854268
vn 0.29098293 0 -0.9567282
vn 0.29098293 -0 -0.9567282
vn 0.29098293 -0 -0.9567282
vn 0.29098293 -0 -0.9567282
vn 0.6401811 0 -0.768224
vn 0.6401811 -0 -0.768224
vn 0.6401811 -0 -0.768224
vn 0.6401811 -0 -0.768224
vn 0.029881384 0 -0.99955344
vn 0.029881384 -0 -0.99955344
vn 0.029881384 -0 -0.99955344
vn 0.029881384 -0 -0.99955344
vn 0.22063754 0 -0.97535586
vn 0.22063754 -0 -0.97535586
vn 0.22063754 -0 -0.97535586
vn 0.22063754 -0 -0.97535586
vn -0.1808248 0 -0.9835153
vn -0.1808248 0 -0.9835153
vn -0.1808248 0 -0.9835153
vn -0.1808248 0 -0.9835153
vn -0.038748536 0 -0.999249
vn -0.038748536 0 -0.999249
vn -0.038748536 0 -0.999249
vn -0.038748536 0 -0.999249
vn 0.24873364 0 -0.9685719
vn 0.24873364 -0 -0.9685719
vn 0.24873364 -0 -0.9685719
vn 0.24873364 -0 -0.9685719
vn 0.38077 0 -0.92466974
vn 0.38077 -0 -0.92466974
vn 0.38077 -0 -0.92466974
vn 0.38077 -0 -0.92466974
vn 0.7910024 0 -0.611813
vn 0.7910024 -0 -0.611813
vn 0.7910024 -0 -0.611813
vn 0.7910024 -0 -0.611813
vn -0.5287928 0 -0.848751
vn -0.5287928 0 -0.848751
vn -0.5287928 0 -0.848751
vn -0.5287928 0 -0.848751
vn 0.730309 0 -0.683117
vn 0.730309 -0 -0.683117
vn 0.730309 -0 -0.683117
vn 0.730309 -0 -0.683117
vn 0.45724088 0 -0.8893429
vn 0.45724088 -0 -0.8893429
vn 0.45724088 -0 -0.8893429
vn 0.45724088 -0 -0.8893429
vn 0.95740145 0 -0.28876016
vn 0.95740145 -0 -0.28876016
vn 0.97085255 0 0.23967747
vn 0.97085255 0 0.23967747
g _0
f 3/3/3 2/2/2 1/1/1
f 2/2/2 3/3/3 4/4/4
f 5/5/5 4/4/4 3/3/3
f 4/4/4 5/5/5 6/6/6
f 7/7/7 6/6/6 5/5/5
f 6/6/6 7/7/7 8/8/8
f 9/9/9 8/8/8 7/7/7
f 8/8/8 9/9/9 10/10/10
f 11/11/11 10/10/10 9/9/9
f 10/10/10 11/11/11 12/12/12
f 13/13/13 12/12/12 11/11/11
f 12/12/12 13/13/13 14/14/14
f 15/15/15 14/14/14 13/13/13
f 14/14/14 15/15/15 16/16/16
f 17/17/17 16/16/16 15/15/15
f 16/16/16 17/17/17 18/18/18
f 19/19/19 18/18/18 17/17/17
f 18/18/18 19/19/19 20/20/20
f 21/21/21 20/20/20 19/19/19
f 20/20/20 21/21/21 22/22/22
f 23/23/23 22/22/22 21/21/21
f 22/22/22 23/23/23 24/24/24
f 25/25/25 24/24/24 23/23/23
f 24/24/24 25/25/25 26/26/26
f 27/27/27 26/26/26 25/25/25
f 26/26/26 27/27/27 28/28/28
f 29/29/29 28/28/28 27/27/27
f 28/28/28 29/29/29 30/30/30
f 31/31/31 30/30/30 29/29/29
f 30/30/30 31/31/31 32/32/32
f 33/33/33 32/32/32 31/31/31
f 32/32/32 33/33/33 34/34/34
f 35/35/35 34/34/34 33/33/33
f 34/34/34 35/35/35 36/36/36
f 37/37/37 36/36/36 35/35/35
f 36/36/36 37/37/37 38/38/38
f 39/39/39 38/38/38 37/37/37
f 38/38/38 39/39/39 40/40/40
f 41/41/41 40/40/40 39/39/39
f 40/40/40 41/41/41 42/42/42
f 43/43/43 42/42/42 41/41/41
f 42/42/42 43/43/43 44/44/44
f 45/45/45 44/44/44 43/43/43
f 44/44/44 45/45/45 46/46/46
f 47/47/47 46/46/46 45/45/45
f 46/46/46 47/47/47 48/48/48
f 49/49/49 48/48/48 47/47/47
f 48/48/48 49/49/49 50/50/50
f 51/51/51 50/50/50 49/49/49
f 50/50/50 51/51/51 52/52/52
f 53/53/53 52/52/52 51/51/51
f 52/52/52 53/53/53 54/54/54
f 55/55/55 54/54/54 53/53/53
f 54/54/54 55/55/55 56/56/56
f 57/57/57 56/56/56 55/55/55
f 56/56/56 57/57/57 58/58/58
f 59/59/59 58/58/58 57/57/57
f 58/58/58 59/59/59 60/60/60
f 61/61/61 60/60/60 59/59/59
f 60/60/60 61/61/61 62/62/62
f 63/63/63 62/62/62 61/61/61
f 62/62/62 63/63/63 64/64/64
f 65/65/65 64/64/64 63/63/63
f 64/64/64 65/65/65 66/66/66
f 67/67/67 66/66/66 65/65/65
f 66/66/66 67/67/67 68/68/68
f 69/69/69 68/68/68 67/67/67
f 68/68/68 69/69/69 70/70/70
f 71/71/71 70/70/70 69/69/69
f 70/70/70 71/71/71 72/72/72
f 73/73/73 72/72/72 71/71/71
f 72/72/72 73/73/73 74/74/74
f 75/75/75 74/74/74 73/73/73
f 74/74/74 75/75/75 76/76/76
f 77/77/77 76/76/76 75/75/75
f 76/76/76 77/77/77 78/78/78
f 79/79/79 78/78/78 77/77/77
f 78/78/78 79/79/79 80/80/80
f 81/81/81 80/80/80 79/79/79
f 80/80/80 81/81/81 82/82/82
f 83/83/83 82/82/82 81/81/81
f 82/82/82 83/83/83 84/84/84
f 85/85/85 84/84/84 83/83/83
f 84/84/84 85/85/85 86/86/86
f 87/87/87 86/86/86 85/85/85
f 86/86/86 87/87/87 88/88/88
f 89/89/89 88/88/88 87/87/87
f 88/88/88 89/89/89 90/90/90
f 91/91/91 90/90/90 89/89/89
f 90/90/90 91/91/91 92/92/92
f 93/93/93 92/92/92 91/91/91
f 92/92/92 93/93/93 94/94/94
f 95/95/95 94/94/94 93/93/93
f 94/94/94 95/95/95 96/96/96
f 97/97/97 96/96/96 95/95/95
f 96/96/96 97/97/97 98/98/98
g _1
f 99/99/99 100/100/100 101/101/101
f 102/102/102 101/101/101 100/100/100
f 103/103/103 104/104/104 105/105/105
f 106/106/106 105/105/105 104/104/104
f 107/107/107 108/108/108 109/109/109
f 110/110/110 109/109/109 108/108/108
f 111/111/111 112/112/112 113/113/113
f 114/114/114 113/113/113 112/112/112
f 115/115/115 116/116/116 117/117/117
f 118/118/118 117/117/117 116/116/116
f 119/119/119 120/120/120 121/121/121
f 122/122/122 121/121/121 120/120/120
f 123/123/123 124/124/124 125/125/125
f 126/126/126 125/125/125 124/124/124
f 127/127/127 128/128/128 129/129/129
f 130/130/130 129/129/129 128/128/128
f 131/131/131 132/132/132 133/133/133
f 134/134/134 133/133/133 132/132/132
f 135/135/135 136/136/136 137/137/137
f 138/138/138 137/137/137 136/136/136
f 139/139/139 140/140/140 141/141/141
f 142/142/142 141/141/141 140/140/140
f 143/143/143 144/144/144 145/145/145
f 146/146/146 145/145/145 144/144/144
f 147/147/147 148/148/148 149/149/149
f 150/150/150 149/149/149 148/148/148
f 151/151/151 152/152/152 153/153/153
f 154/154/154 153/153/153 152/152/152
f 155/155/155 156/156/156 157/157/157
f 158/158/158 157/157/157 156/156/156
f 159/159/159 160/160/160 161/161/161
f 162/162/162 161/161/161 160/160/160
f 163/163/163 164/164/164 165/165/165
f 166/166/166 165/165/165 164/164/164
f 167/167/167 168/168/168 169/169/169
f 170/170/170 169/169/169 168/168/168
f 171/171/171 172/172/172 173/173/173
f 174/174/174 173/173/173 172/172/172
f 175/175/175 176/176/176 177/177/177
f 178/178/178 177/177/177 176/176/176
f 179/179/179 180/180/180 181/181/181
f 182/182/182 181/181/181 180/180/180
f 183/183/183 184/184/184 185/185/185
f 186/186/186 185/185/185 184/184/184
f 187/187/187 188/188/188 189/189/189
f 190/190/190 189/189/189 188/188/188
f 191/191/191 192/192/192 193/193/193
f 194/194/194 193/193/193 192/192/192
f 195/195/195 196/196/196 197/197/197
f 198/198/198 197/197/197 196/196/196
f 199/199/199 200/200/200 201/201/201
f 202/202/202 201/201/201 200/200/200
f 203/203/203 204/204/204 205/205/205
f 206/206/206 205/205/205 204/204/204
f 207/207/207 208/208/208 209/209/209
f 210/210/210 209/209/209 208/208/208
f 211/211/211 212/212/212 213/213/213
f 214/214/214 213/213/213 212/212/212
f 215/215/215 216/216/216 217/217/217
f 218/218/218 217/217/217 216/216/216
f 219/219/219 220/220/220 221/221/221
f 222/222/222 221/221/221 220/220/220
f 223/223/223 224/224/224 225/225/225
f 226/226/226 225/225/225 224/224/224
f 227/227/227 228/228/228 229/229/229
f 230/230/230 229/229/229 228/228/228
f 231/231/231 232/232/232 233/233/233
f 234/234/234 233/233/233 232/232/232
f 235/235/235 236/236/236 237/237/237
f 238/238/238 237/237/237 236/236/236
f 239/239/239 240/240/240 241/241/241
f 242/242/242 241/241/241 240/240/240
f 243/243/243 244/244/244 245/245/245
f 246/246/246 245/245/245 244/244/244
f 247/247/247 248/248/248 249/249/249
f 250/250/250 249/249/249 248/248/248
f 251/251/251 252/252/252 253/253/253
f 254/254/254 253/253/253 252/252/252
f 255/255/255 256/256/256 257/257/257
f 258/258/258 257/257/257 256/256/256
f 259/259/259 260/260/260 261/261/261
f 262/262/262 261/261/261 260/260/260
f 263/263/263 264/264/264 265/265/265
f 266/266/266 265/265/265 264/264/264
f 267/267/267 268/268/268 269/269/269
f 270/270/270 269/269/269 268/268/268
f 271/271/271 272/272/272 273/273/273
f 274/274/274 273/273/273 272/272/272
f 275/275/275 276/276/276 277/277/277
f 278/278/278 277/277/277 276/276/276
f 279/279/279 280/280/280 281/281/281
f 282/282/282 281/281/281 280/280/280
f 283/283/283 284/284/284 285/285/285
f 286/286/286 285/285/285 284/284/284
f 287/287/287 288/288/288 289/289/289
f 290/290/290 289/289/289 288/288/288
f 293/293/293 292/292/292 291/291/291
f 292/292/292 293/293/293 294/294/294
f 297/297/297 296/296/296 295/295/295
f 296/296/296 297/297/297 298/298/298
f 301/301/301 300/300/300 299/299/299
f 300/300/300 301/301/301 302/302/302
f 305/305/305 304/304/304 303/303/303
f 304/304/304 305/305/305 306/306/306
f 309/309/309 308/308/308 307/307/307
f 308/308/308 309/309/309 310/310/310
f 313/313/313 312/312/312 311/311/311
f 312/312/312 313/313/313 314/314/314
f 317/317/317 316/316/316 315/315/315
f 316/316/316 317/317/317 318/318/318
f 321/321/321 320/320/320 319/319/319
f 320/320/320 321/321/321 322/322/322
f 325/325/325 324/324/324 323/323/323
f 324/324/324 325/325/325 326/326/326
f 329/329/329 328/328/328 327/327/327
f 328/328/328 329/329/329 330/330/330
f 333/333/333 332/332/332 331/331/331
f 332/332/332 333/333/333 334/334/334
f 337/337/337 336/336/336 335/335/335
f 336/336/336 337/337/337 338/338/338
f 341/341/341 340/340/340 339/339/339
f 340/340/340 341/341/341 342/342/342
f 345/345/345 344/344/344 343/343/343
f 344/344/344 345/345/345 346/346/346
f 349/349/349 348/348/348 347/347/347
f 348/348/348 349/349/349 350/350/350
f 353/353/353 352/352/352 351/351/351
f 352/352/352 353/353/353 354/354/354
f 357/357/357 356/356/356 355/355/355
f 356/356/356 357/357/357 358/358/358
f 361/361/361 360/360/360 359/359/359
f 360/360/360 361/361/361 362/362/362
f 365/365/365 364/364/364 363/363/363
f 364/364/364 365/365/365 366/366/366
f 369/369/369 368/368/368 367/367/367
f 368/368/368 369/369/369 370/370/370
f 373/373/373 372/372/372 371/371/371
f 372/372/372 373/373/373 374/374/374
f 377/377/377 376/376/376 375/375/375
f 376/376/376 377/377/377 378/378/378
f 381/381/381 380/380/380 379/379/379
f 380/380/380 381/381/381 382/382/382
f 385/385/385 384/384/384 383/383/383
f 384/384/384 385/385/385 386/386/386
f 389/389/389 388/388/388 387/387/387
f 388/388/388 389/389/389 390/390/390
f 393/393/393 392/392/392 391/391/391
f 392/392/392 393/393/393 394/394/394
f 397/397/397 396/396/396 395/395/395
f 396/396/396 397/397/397 398/398/398
f 401/401/401 400/400/400 399/399/399
f 400/400/400 401/401/401 402/402/402
f 405/405/405 404/404/404 403/403/403
f 404/404/404 405/405/405 406/406/406
f 409/409/409 408/408/408 407/407/407
f 408/408/408 409/409/409 410/410/410
f 413/413/413 412/412/412 411/411/411
f 412/412/412 413/413/413 414/414/414
f 417/417/417 416/416/416 415/415/415
f 416/416/416 417/417/417 418/418/418
f 421/421/421 420/420/420 419/419/419
f 420/420/420 421/421/421 422/422/422
f 425/425/425 424/424/424 423/423/423
f 424/424/424 425/425/425 426/426/426
f 429/429/429 428/428/428 427/427/427
f 428/428/428 429/429/429 430/430/430
f 433/433/433 432/432/432 431/431/431
f 432/432/432 433/433/433 434/434/434
f 437/437/437 436/436/436 435/435/435
f 436/436/436 437/437/437 438/438/438
f 441/441/441 440/440/440 439/439/439
f 440/440/440 441/441/441 442/442/442
f 445/445/445 444/444/444 443/443/443
f 444/444/444 445/445/445 446/446/446
f 449/449/449 448/448/448 447/447/447
f 448/448/448 449/449/449 450/450/450
f 453/453/453 452/452/452 451/451/451
f 452/452/452 453/453/453 454/454/454
f 457/457/457 456/456/456 455/455/455
f 456/456/456 457/457/457 458/458/458
f 461/461/461 460/460/460 459/459/459
f 460/460/460 461/461/461 462/462/462
f 465/465/465 464/464/464 463/463/463
f 464/464/464 465/465/465 466/466/466
f 469/469/469 468/468/468 467/467/467
f 468/468/468 469/469/469 470/470/470
f 473/473/473 472/472/472 471/471/471
f 472/472/472 473/473/473 474/474/474
f 477/477/477 476/476/476 475/475/475
f 476/476/476 477/477/477 478/478/478
f 481/481/481 480/480/480 479/479/479
f 480/480/480 481/481/481 482/482/482
f 291/291/291 100/100/100 99/99/99
f 100/100/100 291/291/291 292/292/292
f 289/289/289 290/290/290 481/481/481
f 482/482/482 481/481/481 290/290/290
