g 
v -6.6764007 108.41657 -198.23294
v -6.6764007 94.41657 -198.23294
v -7.3045974 108.41657 -194.28731
v -7.3045974 94.41657 -194.28731
v -8.93075 108.41657 -189.71513
v -8.93075 94.41657 -189.71513
v -12.240938 108.41657 -188.62624
v -12.240938 94.41657 -188.62624
v -13.073069 108.41657 -190.85503
v -13.073069 94.41657 -190.85503
v -16.457445 108.41657 -194.8713
v -16.457445 94.41657 -194.8713
v -14.46361 108.41657 -201.21503
v -14.46361 94.41657 -201.21503
v -11.86426 108.41657 -203.30032
v -11.86426 94.41657 -203.30032
v -9.259371 108.41657 -202.03043
v -9.259371 94.41657 -202.03043
v -9.084833 108.41657 -200.50468
v -9.084833 94.41657 -200.50468
v -6.6764007 108.41657 -198.23294
v -6.6764007 94.41657 -198.23294
vt 0.894319 -1.4947734
vt 0.894319 -1.4947734
vt 0.90060097 -1.455317
vt 0.90060097 -1.455317
vt 0.9168625 -1.4095953
vt 0.9168625 -1.4095953
vt 0.94996434 -1.3987063
vt 0.94996434 -1.3987063
vt 0.9582856 -1.4209943
vt 0.9582856 -1.4209943
vt 0.99212945 -1.4611571
vt 0.99212945 -1.4611571
vt 0.97219104 -1.5245942
vt 0.97219104 -1.5245942
vt 0.94619757 -1.5454472
vt 0.94619757 -1.5454472
vt 0.9201487 -1.5327482
vt 0.9201487 -1.5327482
vt 0.9184033 -1.5174909
vt 0.9184033 -1.5174909
vt 0.894319 -1.4947734
vt 0.894319 -1.4947734
vn 0.9875615 0 0.1572328
vn 0.9875615 0 0.1572328
vn 0.9421827 0 0.33509943
vn 0.9421827 0 0.33509943
vn 0.31248075 0 0.94992405
vn 0.31248075 0 0.94992405
vn -0.9368348 -0 0.34977216
vn -0.9368348 0 0.34977216
vn -0.7647006 -0 0.6443858
vn -0.7647006 0 0.6443858
vn -0.9539896 0 -0.29983962
vn -0.9539896 0 -0.29983962
vn -0.62575877 0 -0.78001666
vn -0.62575877 0 -0.78001666
vn 0.43820617 0 -0.89887446
vn 0.43820617 -0 -0.89887446
vn 0.99352044 0 -0.11365406
vn 0.99352044 -0 -0.11365406
vn 0.6861625 0 -0.7274483
vn 0.6861625 -0 -0.7274483
vn 0.6861625 -0 -0.7274483
vn 0.6861625 -0 -0.7274483
g _0
f 3/3/3 2/2/2 1/1/1
f 2/2/2 3/3/3 4/4/4
f 5/5/5 4/4/4 3/3/3
f 4/4/4 5/5/5 6/6/6
f 7/7/7 6/6/6 5/5/5
f 6/6/6 7/7/7 8/8/8
f 9/9/9 8/8/8 7/7/7
f 8/8/8 9/9/9 10/10/10
f 11/11/11 10/10/10 9/9/9
f 10/10/10 11/11/11 12/12/12
f 13/13/13 12/12/12 11/11/11
f 12/12/12 13/13/13 14/14/14
f 15/15/15 14/14/14 13/13/13
f 14/14/14 15/15/15 16/16/16
f 17/17/17 16/16/16 15/15/15
f 16/16/16 17/17/17 18/18/18
f 19/19/19 18/18/18 17/17/17
f 18/18/18 19/19/19 20/20/20
f 21/21/21 20/20/20 19/19/19
f 20/20/20 21/21/21 22/22/22
