g 
v 4.9260798 17.6 8.791096
v 0.8739207 17.6 1.6089041
v 14.128311 17.6 6.3975186
v 6.5523643 17.6 -4.3931284
v 25.345016 17.6 1.9508014
v 9.082531 17.6 -11.649765
v 33.756344 17.6 -6.6968517
v 9.872632 17.6 -18.73853
v 41.542587 17.6 -15.841526
v 9.475359 17.6 -26.763174
v 49.804367 17.6 -25.105083
v 5.926613 17.6 -35.863197
v 54.97617 17.6 -32.811237
v 5.1014557 17.6 -46.74404
v 58.980003 17.6 -38.833748
v 7.0982533 17.6 -59.17427
v 64.20856 17.6 -45.260853
v 10.120787 17.6 -70.64571
v 67.12031 17.6 -56.039673
v 14.382416 17.6 -74.83341
v 64.22687 17.6 -69.11334
v 21.009531 17.6 -77.399956
v 55.29013 17.6 -80.437996
v 32.611694 17.6 -83.80843
v 54.174343 17.6 -82.50169
v 34.22566 17.6 -85.29831
v 4.9260798 17.6 8.791096
v 4.9260798 -2.3999996 8.791096
v 14.128311 17.6 6.3975186
v 14.128311 -2.3999996 6.3975186
v 14.128311 17.6 6.3975186
v 14.128311 -2.3999996 6.3975186
v 25.345016 17.6 1.9508014
v 25.345016 -2.3999996 1.9508014
v 25.345016 17.6 1.9508014
v 25.345016 -2.3999996 1.9508014
v 33.756344 17.6 -6.6968517
v 33.756344 -2.3999996 -6.6968517
v 33.756344 17.6 -6.6968517
v 33.756344 -2.3999996 -6.6968517
v 41.542587 17.6 -15.841526
v 41.542587 -2.3999996 -15.841526
v 41.542587 17.6 -15.841526
v 41.542587 -2.3999996 -15.841526
v 49.804367 17.6 -25.105083
v 49.804367 -2.3999996 -25.105083
v 49.804367 17.6 -25.105083
v 49.804367 -2.3999996 -25.105083
v 54.97617 17.6 -32.811237
v 54.97617 -2.3999996 -32.811237
v 54.97617 17.6 -32.811237
v 54.97617 -2.3999996 -32.811237
v 58.980003 17.6 -38.833748
v 58.980003 -2.3999996 -38.833748
v 58.980003 17.6 -38.833748
v 58.980003 -2.3999996 -38.833748
v 64.20856 17.6 -45.260853
v 64.20856 -2.3999996 -45.260853
v 64.20856 17.6 -45.260853
v 64.20856 -2.3999996 -45.260853
v 67.12031 17.6 -56.039673
v 67.12031 -2.3999996 -56.039673
v 67.12031 17.6 -56.039673
v 67.12031 -2.3999996 -56.039673
v 64.22687 17.6 -69.11334
v 64.22687 -2.3999996 -69.11334
v 64.22687 17.6 -69.11334
v 64.22687 -2.3999996 -69.11334
v 55.29013 17.6 -80.437996
v 55.29013 -2.3999996 -80.437996
v 55.29013 17.6 -80.437996
v 55.29013 -2.3999996 -80.437996
v 54.174343 17.6 -82.50169
v 54.174343 -2.3999996 -82.50169
v 0.8739207 17.6 1.6089041
v 0.8739207 -2.3999996 1.6089041
v 6.5523643 17.6 -4.3931284
v 6.5523643 -2.3999996 -4.3931284
v 6.5523643 17.6 -4.3931284
v 6.5523643 -2.3999996 -4.3931284
v 9.082531 17.6 -11.649765
v 9.082531 -2.3999996 -11.649765
v 9.082531 17.6 -11.649765
v 9.082531 -2.3999996 -11.649765
v 9.872632 17.6 -18.73853
v 9.872632 -2.3999996 -18.73853
v 9.872632 17.6 -18.73853
v 9.872632 -2.3999996 -18.73853
v 9.475359 17.6 -26.763174
v 9.475359 -2.3999996 -26.763174
v 9.475359 17.6 -26.763174
v 9.475359 -2.3999996 -26.763174
v 5.926613 17.6 -35.863197
v 5.926613 -2.3999996 -35.863197
v 5.926613 17.6 -35.863197
v 5.926613 -2.3999996 -35.863197
v 5.1014557 17.6 -46.74404
v 5.1014557 -2.3999996 -46.74404
v 5.1014557 17.6 -46.74404
v 5.1014557 -2.3999996 -46.74404
v 7.0982533 17.6 -59.17427
v 7.0982533 -2.3999996 -59.17427
v 7.0982533 17.6 -59.17427
v 7.0982533 -2.3999996 -59.17427
v 10.120787 17.6 -70.64571
v 10.120787 -2.3999996 -70.64571
v 10.120787 17.6 -70.64571
v 10.120787 -2.3999996 -70.64571
v 14.382416 17.6 -74.83341
v 14.382416 -2.3999996 -74.83341
v 14.382416 17.6 -74.83341
v 14.382416 -2.3999996 -74.83341
v 21.009531 17.6 -77.399956
v 21.009531 -2.3999996 -77.399956
v 21.009531 17.6 -77.399956
v 21.009531 -2.3999996 -77.399956
v 32.611694 17.6 -83.80843
v 32.611694 -2.3999996 -83.80843
v 32.611694 17.6 -83.80843
v 32.611694 -2.3999996 -83.80843
v 34.22566 17.6 -85.29831
v 34.22566 -2.3999996 -85.29831
vt 0.009218011 -0.19026008
vt 0.01719764 -0.1923408
vt 0.0045407275 -0.19853857
vt 0.017563913 -0.2005952
vt -6.13392E-05 -0.20969243
vt 0.021020768 -0.20745891
vt 0.00030654736 -0.2217505
vt 0.025566721 -0.21295519
vt 0.0014662648 -0.23370482
vt 0.031610873 -0.21824868
vt 0.002380822 -0.2460836
vt 0.04061901 -0.22202459
vt 0.004324218 -0.2551586
vt 0.049013626 -0.22899626
vt 0.0058694608 -0.26222354
vt 0.056559972 -0.23907349
vt 0.0068540466 -0.2704501
vt 0.062704034 -0.2492214
vt 0.012577286 -0.28003684
vt 0.062751226 -0.25519603
vt 0.023986006 -0.2870464
vt 0.05998858 -0.2617438
vt 0.038339097 -0.2884962
vt 0.056528606 -0.27453864
vt 0.04059818 -0.28912896
vt 0.05647741 -0.27673453
vt 0.009218011 -0.19026008
vt 0.009218011 -0.19026008
vt 0.0045407275 -0.19853857
vt 0.0045407275 -0.19853857
vt 0.0045407275 -0.19853857
vt 0.0045407275 -0.19853857
vt -6.13392E-05 -0.20969243
vt -6.13392E-05 -0.20969243
vt -6.13392E-05 -0.20969243
vt -6.13392E-05 -0.20969243
vt 0.00030654736 -0.2217505
vt 0.00030654736 -0.2217505
vt 0.00030654736 -0.2217505
vt 0.00030654736 -0.2217505
vt 0.0014662648 -0.23370482
vt 0.0014662648 -0.23370482
vt 0.0014662648 -0.23370482
vt 0.0014662648 -0.23370482
vt 0.002380822 -0.2460836
vt 0.002380822 -0.2460836
vt 0.002380822 -0.2460836
vt 0.002380822 -0.2460836
vt 0.004324218 -0.2551586
vt 0.004324218 -0.2551586
vt 0.004324218 -0.2551586
vt 0.004324218 -0.2551586
vt 0.0058694608 -0.26222354
vt 0.0058694608 -0.26222354
vt 0.0058694608 -0.26222354
vt 0.0058694608 -0.26222354
vt 0.0068540466 -0.2704501
vt 0.0068540466 -0.2704501
vt 0.0068540466 -0.2704501
vt 0.0068540466 -0.2704501
vt 0.012577286 -0.28003684
vt 0.012577286 -0.28003684
vt 0.012577286 -0.28003684
vt 0.012577286 -0.28003684
vt 0.023986006 -0.2870464
vt 0.023986006 -0.2870464
vt 0.023986006 -0.2870464
vt 0.023986006 -0.2870464
vt 0.038339097 -0.2884962
vt 0.038339097 -0.2884962
vt 0.038339097 -0.2884962
vt 0.038339097 -0.2884962
vt 0.04059818 -0.28912896
vt 0.04059818 -0.28912896
vt 0.01719764 -0.1923408
vt 0.01719764 -0.1923408
vt 0.017563913 -0.2005952
vt 0.017563913 -0.2005952
vt 0.017563913 -0.2005952
vt 0.017563913 -0.2005952
vt 0.021020768 -0.20745891
vt 0.021020768 -0.20745891
vt 0.021020768 -0.20745891
vt 0.021020768 -0.20745891
vt 0.025566721 -0.21295519
vt 0.025566721 -0.21295519
vt 0.025566721 -0.21295519
vt 0.025566721 -0.21295519
vt 0.031610873 -0.21824868
vt 0.031610873 -0.21824868
vt 0.031610873 -0.21824868
vt 0.031610873 -0.21824868
vt 0.04061901 -0.22202459
vt 0.04061901 -0.22202459
vt 0.04061901 -0.22202459
vt 0.04061901 -0.22202459
vt 0.049013626 -0.22899626
vt 0.049013626 -0.22899626
vt 0.049013626 -0.22899626
vt 0.049013626 -0.22899626
vt 0.056559972 -0.23907349
vt 0.056559972 -0.23907349
vt 0.056559972 -0.23907349
vt 0.056559972 -0.23907349
vt 0.062704034 -0.2492214
vt 0.062704034 -0.2492214
vt 0.062704034 -0.2492214
vt 0.062704034 -0.2492214
vt 0.062751226 -0.25519603
vt 0.062751226 -0.25519603
vt 0.062751226 -0.25519603
vt 0.062751226 -0.25519603
vt 0.05998858 -0.2617438
vt 0.05998858 -0.2617438
vt 0.05998858 -0.2617438
vt 0.05998858 -0.2617438
vt 0.056528606 -0.27453864
vt 0.056528606 -0.27453864
vt 0.056528606 -0.27453864
vt 0.056528606 -0.27453864
vt 0.05647741 -0.27673453
vt 0.05647741 -0.27673453
vn -0 1 0
vn -0 1 0
vn -0 1 0
vn -0 1 0
vn -0 1 0
vn -0 1 0
vn -0 1 0
vn -0 1 0
vn -0 1 0
vn -0 1 0
vn -0 1 0
vn -0 1 0
vn -0 1 0
vn -0 1 0
vn -0 1 0
vn -0 1 0
vn -0 1 0
vn -0 1 0
vn -0 1 0
vn -0 1 0
vn -0 1 0
vn -0 1 0
vn -0 1 0
vn -0 1 0
vn -0 1 0
vn -0 1 0
vn -0.8709439 -0 0.4913825
vn -0.8709439 0 0.4913825
vn 0.25173205 0 0.967797
vn 0.25173205 0 0.967797
vn 0.36853355 0 0.9296144
vn 0.36853355 0 0.9296144
vn 0.36853355 0 0.9296144
vn 0.36853355 0 0.9296144
vn 0.7168339 0 0.69724405
vn 0.7168339 0 0.69724405
vn 0.7168339 0 0.69724405
vn 0.7168339 0 0.69724405
vn 0.7613938 0 0.6482896
vn 0.7613938 0 0.6482896
vn 0.7613938 0 0.6482896
vn 0.7613938 0 0.6482896
vn 0.7463079 0 0.66560084
vn 0.7463079 0 0.66560084
vn 0.7463079 0 0.66560084
vn 0.7463079 0 0.66560084
vn 0.8303372 0 0.55726117
vn 0.8303372 0 0.55726117
vn 0.8303372 0 0.55726117
vn 0.8303372 0 0.55726117
vn 0.8327627 0 0.5536302
vn 0.8327627 0 0.5536302
vn 0.8327627 0 0.5536302
vn 0.8327627 0 0.5536302
vn 0.77572805 0 0.6310673
vn 0.77572805 0 0.6310673
vn 0.77572805 0 0.6310673
vn 0.77572805 0 0.6310673
vn 0.965396 0 0.26078853
vn 0.965396 0 0.26078853
vn 0.965396 0 0.26078853
vn 0.965396 0 0.26078853
vn 0.9763737 0 -0.2160892
vn 0.9763737 -0 -0.2160892
vn 0.9763737 -0 -0.2160892
vn 0.9763737 -0 -0.2160892
vn 0.7850101 0 -0.6194829
vn 0.7850101 -0 -0.6194829
vn 0.7850101 -0 -0.6194829
vn 0.7850101 -0 -0.6194829
vn 0.87965745 0 -0.4756078
vn 0.87965745 -0 -0.4756078
vn 0.13883285 0 -0.9903158
vn 0.13883285 -0 -0.9903158
vn -0.8709439 0 0.4913825
vn -0.8709439 0 0.4913825
vn -0.7264173 0 -0.68725383
vn -0.7264173 0 -0.68725383
vn -0.94424945 0 -0.32923082
vn -0.94424945 0 -0.32923082
vn -0.94424945 0 -0.32923082
vn -0.94424945 0 -0.32923082
vn -0.9938458 0 -0.11077229
vn -0.9938458 0 -0.11077229
vn -0.9938458 0 -0.11077229
vn -0.9938458 0 -0.11077229
vn -0.99877673 -0 0.049446065
vn -0.99877673 0 0.049446065
vn -0.99877673 0 0.049446065
vn -0.99877673 0 0.049446065
vn -0.93166363 -0 0.36332193
vn -0.93166363 0 0.36332193
vn -0.93166363 0 0.36332193
vn -0.93166363 0 0.36332193
vn -0.99713683 -0 0.07561864
vn -0.99713683 0 0.07561864
vn -0.99713683 0 0.07561864
vn -0.99713683 0 0.07561864
vn -0.98734176 0 -0.15860702
vn -0.98734176 0 -0.15860702
vn -0.98734176 0 -0.15860702
vn -0.98734176 0 -0.15860702
vn -0.9669971 0 -0.25478756
vn -0.9669971 0 -0.25478756
vn -0.9669971 0 -0.25478756
vn -0.9669971 0 -0.25478756
vn -0.70089287 0 -0.7132666
vn -0.70089287 0 -0.7132666
vn -0.70089287 0 -0.7132666
vn -0.70089287 0 -0.7132666
vn -0.36114204 0 -0.93251085
vn -0.36114204 0 -0.93251085
vn -0.36114204 0 -0.93251085
vn -0.36114204 0 -0.93251085
vn -0.48349863 0 -0.8753452
vn -0.48349863 0 -0.8753452
vn -0.48349863 0 -0.8753452
vn -0.48349863 0 -0.8753452
vn -0.67829555 0 -0.7347892
vn -0.67829555 0 -0.7347892
vn 0.13883285 -0 -0.9903158
vn 0.13883285 -0 -0.9903158
g _0
f 3/3/3 2/2/2 1/1/1
f 2/2/2 3/3/3 4/4/4
f 5/5/5 4/4/4 3/3/3
f 4/4/4 5/5/5 6/6/6
f 7/7/7 6/6/6 5/5/5
f 6/6/6 7/7/7 8/8/8
f 9/9/9 8/8/8 7/7/7
f 8/8/8 9/9/9 10/10/10
f 11/11/11 10/10/10 9/9/9
f 10/10/10 11/11/11 12/12/12
f 13/13/13 12/12/12 11/11/11
f 12/12/12 13/13/13 14/14/14
f 15/15/15 14/14/14 13/13/13
f 14/14/14 15/15/15 16/16/16
f 17/17/17 16/16/16 15/15/15
f 16/16/16 17/17/17 18/18/18
f 19/19/19 18/18/18 17/17/17
f 18/18/18 19/19/19 20/20/20
f 21/21/21 20/20/20 19/19/19
f 20/20/20 21/21/21 22/22/22
f 23/23/23 22/22/22 21/21/21
f 22/22/22 23/23/23 24/24/24
f 25/25/25 24/24/24 23/23/23
f 24/24/24 25/25/25 26/26/26
g _1
f 27/27/27 28/28/28 29/29/29
f 30/30/30 29/29/29 28/28/28
f 31/31/31 32/32/32 33/33/33
f 34/34/34 33/33/33 32/32/32
f 35/35/35 36/36/36 37/37/37
f 38/38/38 37/37/37 36/36/36
f 39/39/39 40/40/40 41/41/41
f 42/42/42 41/41/41 40/40/40
f 43/43/43 44/44/44 45/45/45
f 46/46/46 45/45/45 44/44/44
f 47/47/47 48/48/48 49/49/49
f 50/50/50 49/49/49 48/48/48
f 51/51/51 52/52/52 53/53/53
f 54/54/54 53/53/53 52/52/52
f 55/55/55 56/56/56 57/57/57
f 58/58/58 57/57/57 56/56/56
f 59/59/59 60/60/60 61/61/61
f 62/62/62 61/61/61 60/60/60
f 63/63/63 64/64/64 65/65/65
f 66/66/66 65/65/65 64/64/64
f 67/67/67 68/68/68 69/69/69
f 70/70/70 69/69/69 68/68/68
f 71/71/71 72/72/72 73/73/73
f 74/74/74 73/73/73 72/72/72
f 77/77/77 76/76/76 75/75/75
f 76/76/76 77/77/77 78/78/78
f 81/81/81 80/80/80 79/79/79
f 80/80/80 81/81/81 82/82/82
f 85/85/85 84/84/84 83/83/83
f 84/84/84 85/85/85 86/86/86
f 89/89/89 88/88/88 87/87/87
f 88/88/88 89/89/89 90/90/90
f 93/93/93 92/92/92 91/91/91
f 92/92/92 93/93/93 94/94/94
f 97/97/97 96/96/96 95/95/95
f 96/96/96 97/97/97 98/98/98
f 101/101/101 100/100/100 99/99/99
f 100/100/100 101/101/101 102/102/102
f 105/105/105 104/104/104 103/103/103
f 104/104/104 105/105/105 106/106/106
f 109/109/109 108/108/108 107/107/107
f 108/108/108 109/109/109 110/110/110
f 113/113/113 112/112/112 111/111/111
f 112/112/112 113/113/113 114/114/114
f 117/117/117 116/116/116 115/115/115
f 116/116/116 117/117/117 118/118/118
f 121/121/121 120/120/120 119/119/119
f 120/120/120 121/121/121 122/122/122
f 75/75/75 28/28/28 27/27/27
f 28/28/28 75/75/75 76/76/76
f 73/73/73 74/74/74 121/121/121
f 122/122/122 121/121/121 74/74/74
