g 
v -31.23322 0 -63.533524
v -31.381477 0 -63.540207
v -31.13498 0 -63.57698
v -31.47541 0 -63.592316
v -31.102924 0 -63.691124
v -31.497074 0 -63.708878
v -31.067926 0 -64.58332
v -31.451715 0 -64.60061
v -30.967232 0 -65.57187
v -31.463123 0 -65.59421
v -30.964949 0 -66.56485
v -31.37612 0 -66.583374
v -30.908155 0 -67.55537
v -31.34363 0 -67.57499
v -30.942066 0 -68.54998
v -31.220432 0 -68.56252
v -30.916918 0 -69.54193
v -31.156294 0 -69.55272
v -30.719728 0 -70.52613
v -31.2642 0 -70.55065
v -30.826122 0 -71.524
v -31.06852 0 -71.53493
v -30.659622 0 -72.50959
v -31.145733 0 -72.53149
v -30.576235 0 -73.49892
v -31.139833 0 -73.52431
v -30.593699 0 -74.37248
v -31.033087 0 -74.63287
v -30.07917 0 -74.637634
v -30.125496 0 -74.93593
v -29.111032 0 -74.48471
v -29.100298 0 -75.05107
v -28.114101 0 -74.47977
v -28.103897 0 -75.018234
v -27.116058 0 -74.53352
v -27.108608 0 -74.9267
v -26.120295 0 -74.46694
v -26.111036 0 -74.95551
v -25.12386 0 -74.435974
v -25.11414 0 -74.9487
v -24.12716 0 -74.41881
v -24.117508 0 -74.928085
v -23.129932 0 -74.42942
v -23.121399 0 -74.87969
v -22.134089 0 -74.36717
v -22.12391 0 -74.90416
v -21.134947 0 -74.47883
v -21.12972 0 -74.75472
v -20.139256 0 -74.40851
v -20.132076 0 -74.78728
v -19.14296 0 -74.370125
v -19.13504 0 -74.78788
v -18.145615 0 -74.38697
v -18.13905 0 -74.73325
v -17.14966 0 -74.33049
v -17.141672 0 -74.75195
v -16.153473 0 -74.28638
v -16.144527 0 -74.758286
v -15.156114 0 -74.30388
v -15.148551 0 -74.703
v -14.158876 0 -74.315155
v -14.152456 0 -74.65396
v -13.072057 0 -74.28427
v -13.245942 0 -74.647064
v -12.660409 0 -75.11676
v -12.873267 0 -75.183685
v -12.48495 0 -76.116165
v -12.78255 0 -76.15633
v -12.370409 0 -77.1047
v -12.630915 0 -77.139854
v -12.221315 0 -78.08856
v -12.513832 0 -78.12805
v -12.120229 0 -79.07892
v -12.348741 0 -79.10976
v -11.953783 0 -80.06045
v -12.24901 0 -80.10029
v -11.7639675 0 -81.03882
v -12.172649 0 -81.09398
v -11.6245165 0 -82.02399
v -12.045924 0 -82.08087
v -11.441942 0 -83.00334
v -11.962322 0 -83.07358
v -11.377481 0 -83.998634
v -11.760607 0 -84.05035
v -11.243322 0 -84.98451
v -11.62859 0 -85.036514
v -11.017463 0 -85.95802
v -11.588273 0 -86.035065
v -10.905877 0 -86.954155
v -11.433682 0 -87.010994
v -10.903685 0 -87.99377
v -11.279093 0 -87.926796
v -11.358084 0 -88.93054
v -11.652472 0 -88.79558
v -11.778099 0 -89.83051
v -12.060234 0 -89.701164
v -12.21228 0 -90.72399
v -12.453831 0 -90.61324
v -12.588263 0 -91.644135
v -12.905626 0 -91.49864
v -13.053872 0 -92.5232
v -13.267795 0 -92.42513
v -13.340477 0 -93.48434
v -13.808968 0 -93.269554
v -13.736027 0 -94.39552
v -14.241196 0 -94.163925
v -14.243628 0 -95.25534
v -14.561373 0 -95.109665
v -14.7037 0 -96.13695
v -14.929078 0 -96.033615
v -15.050972 0 -97.07027
v -15.409584 0 -96.90585
v -15.544145 0 -97.93669
v -15.744189 0 -97.844986
v -15.945621 0 -98.84516
v -16.170492 0 -98.74207
v -16.240866 0 -99.80233
v -16.703024 0 -99.59045
v -16.606169 0 -100.56208
v -17.165499 0 -100.63625
v -16.37526 0 -100.46826
v -16.313408 0 -100.849075
v -15.461373 0 -100.1426
v -15.325389 0 -100.57093
v -14.506309 0 -99.85365
v -14.378548 0 -100.25607
v -13.5735 0 -99.49459
v -13.409452 0 -100.011314
v -12.6235 0 -99.18968
v -12.457547 0 -99.71242
v -11.657585 0 -98.93491
v -11.521557 0 -99.36338
v -10.680997 0 -98.71375
v -10.596242 0 -98.98072
v -9.724979 0 -98.4278
v -9.650354 0 -98.662865
v -8.781968 0 -98.10089
v -8.691461 0 -98.38597
v -7.862844 0 -97.69873
v -7.7086797 0 -98.184326
v -6.8839316 0 -97.48489
v -6.785688 0 -97.79434
v -5.9561033 0 -97.110146
v -5.8116107 0 -97.565285
v -5.0005693 0 -96.82268
v -4.8652396 0 -97.24895
v -4.033927 0 -96.57019
v -3.9299784 0 -96.89761
v -3.0827851 0 -96.26888
v -2.9792156 0 -96.595116
v -2.1550565 0 -95.89383
v -2.0050392 0 -96.36636
v -1.1805521 0 -95.666115
v -1.077639 0 -95.99027
v -0.25866723 0 -95.272644
v -0.09761926 0 -95.77992
v 0.73766845 0 -95.11369
v 0.8079497 0 -95.33507
v 1.6431957 0 -94.66871
v 1.8043271 0 -95.17625
v 2.4935622 0 -94.39373
v 2.8558655 0 -94.847404
v 2.9474006 0 -93.800865
v 3.2050395 0 -93.88392
v 2.9668932 0 -92.81355
v 3.5176044 0 -92.90663
v 3.2084634 0 -91.844025
v 3.6080916 0 -91.911575
v 3.3005483 0 -90.84923
v 3.8480642 0 -90.94177
v 3.6145096 0 -89.89194
v 3.8661604 0 -89.93448
v 3.7451205 0 -88.903656
v 4.067607 0 -88.95816
v 3.8888385 0 -87.91759
v 4.255946 0 -87.97963
v 4.0933027 0 -86.94179
v 4.383539 0 -86.990845
v 4.21869 0 -85.95262
v 4.590209 0 -86.01541
v 4.325137 0 -84.96026
v 4.8158197 0 -85.04319
v 4.621219 0 -83.99994
v 4.8517947 0 -84.03891
v 4.6406484 0 -82.99287
v 5.1644235 0 -83.0814
v 4.8361135 0 -82.01554
v 5.3010154 0 -82.094124
v 5.051174 0 -81.041534
v 5.4180126 0 -81.10353
v 5.143579 0 -80.04679
v 5.657665 0 -80.13369
v 5.3673778 0 -79.07426
v 5.765923 0 -79.141624
v 5.5857053 0 -78.10081
v 5.8796535 0 -78.15049
v 5.6305957 0 -77.09803
v 6.16682 0 -77.18867
v 5.8005567 0 -76.1164
v 6.328917 0 -76.20571
v 6.0280075 0 -75.144485
v 6.433523 0 -75.21303
v 6.1242924 0 -74.15787
v 6.6692953 0 -74.23505
v 6.270372 0 -73.181305
v 6.7496276 0 -73.232895
v 6.372332 0 -72.191986
v 6.847667 0 -72.239944
v 6.473361 0 -71.200966
v 6.946639 0 -71.24871
v 6.6305323 0 -70.21561
v 6.9894676 0 -70.251816
v 6.7488003 0 -69.22632
v 7.0711994 0 -69.25885
v 6.860417 0 -68.23636
v 7.1595826 0 -68.26654
v 6.946164 0 -67.24379
v 7.273836 0 -67.276855
v 6.970224 0 -66.245
v 7.449776 0 -66.29339
v 7.1309404 0 -65.259995
v 7.4890594 0 -65.29613
v 7.144903 0 -64.260185
v 7.6750965 0 -64.31368
v 7.2453523 0 -63.269104
v 7.774648 0 -63.32251
v 7.352777 0 -62.31408
v 7.8672233 0 -62.295273
v 7.2242846 0 -61.47522
v 7.6558785 0 -61.290466
v 6.7562833 0 -60.641563
v 6.9742856 0 -60.488358
v 6.1435046 0 -59.850372
v 6.437471 0 -59.643776
v 5.500893 0 -59.080143
v 5.930489 0 -58.778233
v 4.9980426 0 -58.211697
v 5.2837462 0 -58.010906
v 4.4589477 0 -57.368717
v 4.673248 0 -57.218113
v 3.899245 0 -56.540226
v 4.083357 0 -56.41083
v 3.2286544 0 -55.78966
v 3.6043534 0 -55.525623
v 2.6259913 0 -54.991356
v 3.057423 0 -54.688156
v 2.059482 0 -54.16765
v 2.4743395 0 -53.87609
v 1.4937956 0 -53.343357
v 1.8904316 0 -53.06461
v 0.98096836 0 -52.486378
v 1.2536658 0 -52.285816
v 0.3779394 0 -51.757957
v 0.6488463 0 -51.444725
v -0.49068767 0 -51.360367
v -0.2146695 0 -50.869102
v -1.273124 0 -50.724903
v -1.164376 0 -50.531353
v -2.1783135 0 -50.307915
v -1.9913294 0 -49.97512
v -3.0404818 0 -49.81436
v -2.861304 0 -49.49546
v -3.9201624 0 -49.35198
v -3.7137663 0 -48.98463
v -4.7373295 0 -48.77833
v -4.628742 0 -48.585064
v -5.6451864 0 -48.366093
v -5.4530287 0 -48.02409
v -6.468573 0 -47.803516
v -6.3617845 0 -47.613453
v -7.3678465 0 -47.376
v -7.1946545 0 -47.06775
v -8.241719 0 -46.90328
v -8.052924 0 -46.567257
v -8.982458 0 -46.471867
v -9.044329 0 -46.025455
v -9.451256 0 -47.055805
v -9.760519 0 -46.819035
v -10.068333 0 -47.825138
v -10.267635 0 -47.68841
v -10.629608 0 -48.645058
v -10.830553 0 -48.507202
v -11.151517 0 -49.49198
v -11.4328375 0 -49.29899
v -11.741268 0 -50.292366
v -11.967281 0 -50.137314
v -12.286352 0 -51.12339
v -12.546391 0 -50.945
v -12.856554 0 -51.937187
v -13.100382 0 -51.769913
v -13.371348 0 -52.78899
v -13.709781 0 -52.55682
v -13.869846 0 -53.651978
v -14.335476 0 -53.332542
v -14.431869 0 -54.471382
v -14.897647 0 -54.151848
v -15.110094 0 -55.21107
v -15.343615 0 -55.05087
v -15.685936 0 -56.04237
v -15.891966 0 -55.858273
v -16.441578 0 -56.693233
v -16.594303 0 -56.45853
v -17.287596 0 -57.269566
v -17.540052 0 -56.74573
v -18.206207 0 -57.654163
v -18.413204 0 -57.22466
v -19.139614 0 -58.008068
v -19.27156 0 -57.734287
v -20.023064 0 -58.46563
v -20.179878 0 -58.14025
v -20.87159 0 -58.995655
v -21.123116 0 -58.47376
v -21.831219 0 -59.295147
v -21.95525 0 -59.037792
v -22.72759 0 -59.725903
v -22.850645 0 -59.47057
v -23.597452 0 -60.211655
v -23.772547 0 -59.848343
v -24.47403 0 -60.68347
v -24.687733 0 -60.24006
v -25.353977 0 -61.148308
v -25.599552 0 -60.638756
v -26.287275 0 -61.502434
v -26.458017 0 -61.148155
v -27.151651 0 -61.999573
v -27.385405 0 -61.51455
v -28.112207 0 -62.297142
v -28.216616 0 -62.080505
v -28.98159 0 -62.783894
v -29.138996 0 -62.457287
v -29.899393 0 -63.17017
v -30.012957 0 -62.934536
v -30.787054 0 -63.619
v -30.917063 0 -63.34924
v -31.211138 0 -63.884384
v -31.38886 0 -63.515617
v -31.307186 0 -63.951057
v -31.50085 0 -63.54921
v -31.411318 0 -63.84516
v -31.482893 0 -63.696632
vt 0.31233218 -0.6353352
vt 0.31381476 -0.6354021
vt 0.31134978 -0.6357698
vt 0.3147541 -0.63592315
vt 0.31102923 -0.6369112
vt 0.31497073 -0.6370888
vt 0.31067926 -0.6458332
vt 0.31451714 -0.64600605
vt 0.3096723 -0.6557187
vt 0.31463122 -0.6559421
vt 0.30964947 -0.66564846
vt 0.31376117 -0.6658337
vt 0.30908155 -0.6755537
vt 0.3134363 -0.6757499
vt 0.30942065 -0.6854998
vt 0.3122043 -0.6856252
vt 0.30916917 -0.6954193
vt 0.31156293 -0.6955272
vt 0.30719727 -0.7052613
vt 0.312642 -0.7055065
vt 0.30826122 -0.71524
vt 0.3106852 -0.71534926
vt 0.30659622 -0.72509587
vt 0.31145734 -0.72531486
vt 0.30576235 -0.73498917
vt 0.31139833 -0.7352431
vt 0.305937 -0.7437248
vt 0.31033087 -0.7463287
vt 0.30079168 -0.74637634
vt 0.30125496 -0.74935925
vt 0.2911103 -0.7448471
vt 0.29100296 -0.7505107
vt 0.281141 -0.74479765
vt 0.28103897 -0.75018233
vt 0.27116057 -0.7453352
vt 0.27108607 -0.7492669
vt 0.26120293 -0.7446694
vt 0.26111037 -0.7495551
vt 0.25123858 -0.74435973
vt 0.2511414 -0.749487
vt 0.24127159 -0.7441881
vt 0.24117507 -0.7492808
vt 0.23129933 -0.74429417
vt 0.23121399 -0.7487969
vt 0.22134088 -0.7436717
vt 0.2212391 -0.74904156
vt 0.21134946 -0.7447883
vt 0.2112972 -0.7475472
vt 0.20139255 -0.7440851
vt 0.20132075 -0.74787277
vt 0.19142959 -0.7437012
vt 0.1913504 -0.7478788
vt 0.18145615 -0.74386966
vt 0.1813905 -0.7473325
vt 0.1714966 -0.7433049
vt 0.17141671 -0.7475195
vt 0.16153473 -0.7428638
vt 0.16144527 -0.74758285
vt 0.15156113 -0.7430388
vt 0.1514855 -0.74703
vt 0.14158876 -0.74315155
vt 0.14152455 -0.7465396
vt 0.13072057 -0.7428427
vt 0.13245942 -0.74647063
vt 0.12660408 -0.7511676
vt 0.12873267 -0.75183684
vt 0.1248495 -0.7611616
vt 0.1278255 -0.76156324
vt 0.12370409 -0.77104694
vt 0.12630914 -0.77139854
vt 0.12221315 -0.7808856
vt 0.12513831 -0.7812805
vt 0.12120228 -0.7907892
vt 0.123487405 -0.7910975
vt 0.11953783 -0.80060446
vt 0.1224901 -0.80100286
vt 0.117639676 -0.81038815
vt 0.12172649 -0.8109398
vt 0.116245165 -0.82023984
vt 0.120459236 -0.8208087
vt 0.11441942 -0.8300334
vt 0.11962322 -0.83073574
vt 0.11377481 -0.8399863
vt 0.117606066 -0.84050345
vt 0.112433225 -0.8498451
vt 0.11628589 -0.8503651
vt 0.110174626 -0.8595802
vt 0.115882725 -0.8603506
vt 0.10905877 -0.8695415
vt 0.11433682 -0.8701099
vt 0.10903684 -0.87993765
vt 0.11279093 -0.87926793
vt 0.11358084 -0.8893054
vt 0.11652471 -0.8879558
vt 0.11778099 -0.8983051
vt 0.12060234 -0.89701164
vt 0.1221228 -0.9072399
vt 0.1245383 -0.9061324
vt 0.12588263 -0.9164413
vt 0.12905626 -0.9149864
vt 0.13053872 -0.925232
vt 0.13267794 -0.9242513
vt 0.13340476 -0.93484336
vt 0.13808967 -0.9326955
vt 0.13736026 -0.9439552
vt 0.14241195 -0.94163924
vt 0.14243627 -0.9525534
vt 0.14561373 -0.95109665
vt 0.147037 -0.96136945
vt 0.14929077 -0.96033615
vt 0.15050972 -0.97070265
vt 0.15409584 -0.9690585
vt 0.15544145 -0.9793669
vt 0.15744188 -0.9784498
vt 0.15945621 -0.9884516
vt 0.16170491 -0.98742074
vt 0.16240865 -0.9980233
vt 0.16703023 -0.99590445
vt 0.16606168 -1.0056208
vt 0.17165498 -1.0063626
vt 0.16375259 -1.0046825
vt 0.16313407 -1.0084907
vt 0.15461373 -1.001426
vt 0.15325388 -1.0057093
vt 0.14506309 -0.9985365
vt 0.14378548 -1.0025607
vt 0.13573499 -0.9949459
vt 0.13409452 -1.0001131
vt 0.126235 -0.9918968
vt 0.124575466 -0.99712414
vt 0.11657585 -0.9893491
vt 0.11521556 -0.9936338
vt 0.106809966 -0.9871375
vt 0.10596242 -0.9898072
vt 0.09724979 -0.984278
vt 0.09650354 -0.98662865
vt 0.08781968 -0.9810089
vt 0.08691461 -0.9838597
vt 0.078628436 -0.9769873
vt 0.07708679 -0.98184323
vt 0.06883931 -0.9748489
vt 0.06785688 -0.9779434
vt 0.059561033 -0.97110146
vt 0.058116104 -0.9756528
vt 0.050005693 -0.96822673
vt 0.048652396 -0.9724895
vt 0.04033927 -0.9657019
vt 0.039299782 -0.96897614
vt 0.03082785 -0.9626888
vt 0.029792156 -0.96595114
vt 0.021550564 -0.9589383
vt 0.020050392 -0.96366364
vt 0.011805521 -0.9566611
vt 0.010776389 -0.9599027
vt 0.0025866723 -0.9527264
vt 0.00097619253 -0.9577992
vt -0.0073766843 -0.9511369
vt -0.008079497 -0.95335066
vt -0.016431957 -0.94668704
vt -0.01804327 -0.95176244
vt -0.024935622 -0.9439373
vt -0.028558655 -0.94847405
vt -0.029474005 -0.9380086
vt -0.032050394 -0.93883914
vt -0.02966893 -0.9281355
vt -0.035176042 -0.9290663
vt -0.032084633 -0.9184402
vt -0.036080915 -0.9191157
vt -0.033005483 -0.90849227
vt -0.03848064 -0.9094177
vt -0.036145095 -0.89891934
vt -0.038661603 -0.89934474
vt -0.037451204 -0.88903654
vt -0.04067607 -0.88958156
vt -0.038888384 -0.87917584
vt -0.04255946 -0.87979627
vt -0.040933028 -0.86941785
vt -0.04383539 -0.86990845
vt -0.042186897 -0.8595262
vt -0.04590209 -0.8601541
vt -0.04325137 -0.8496026
vt -0.048158195 -0.85043186
vt -0.04621219 -0.8399994
vt -0.048517946 -0.8403891
vt -0.04640648 -0.82992864
vt -0.051644232 -0.83081394
vt -0.048361134 -0.8201554
vt -0.05301015 -0.8209412
vt -0.05051174 -0.8104153
vt -0.054180127 -0.8110353
vt -0.051435787 -0.8004679
vt -0.056576647 -0.8013369
vt -0.053673778 -0.7907426
vt -0.057659227 -0.7914162
vt -0.05585705 -0.78100806
vt -0.058796532 -0.78150487
vt -0.056305956 -0.7709803
vt -0.0616682 -0.77188665
vt -0.058005564 -0.761164
vt -0.063289165 -0.7620571
vt -0.060280073 -0.7514448
vt -0.06433523 -0.75213027
vt -0.061242923 -0.74157864
vt -0.06669295 -0.74235046
vt -0.06270372 -0.731813
vt -0.06749628 -0.73232895
vt -0.06372332 -0.72191983
vt -0.06847667 -0.7223994
vt -0.06473361 -0.71200967
vt -0.06946639 -0.7124871
vt -0.066305324 -0.70215607
vt -0.06989467 -0.70251817
vt -0.067488 -0.6922632
vt -0.07071199 -0.6925885
vt -0.068604164 -0.68236357
vt -0.071595825 -0.6826654
vt -0.069461636 -0.6724379
vt -0.07273836 -0.67276853
vt -0.06970224 -0.66245
vt -0.07449776 -0.6629339
vt -0.0713094 -0.65259993
vt -0.07489059 -0.65296125
vt -0.071449034 -0.64260185
vt -0.076750964 -0.6431368
vt -0.07245352 -0.632691
vt -0.07774648 -0.6332251
vt -0.07352777 -0.62314075
vt -0.07867223 -0.6229527
vt -0.07224285 -0.6147522
vt -0.07655878 -0.61290467
vt -0.06756283 -0.6064156
vt -0.06974285 -0.60488355
vt -0.061435044 -0.5985037
vt -0.06437471 -0.59643775
vt -0.05500893 -0.5908014
vt -0.05930489 -0.5877823
vt -0.049980424 -0.58211696
vt -0.05283746 -0.58010906
vt -0.044589475 -0.57368714
vt -0.046732478 -0.5721811
vt -0.03899245 -0.56540227
vt -0.040833566 -0.5641083
vt -0.032286543 -0.5578966
vt -0.036043532 -0.55525625
vt -0.026259912 -0.5499135
vt -0.03057423 -0.54688156
vt -0.02059482 -0.54167646
vt -0.024743395 -0.5387609
vt -0.014937956 -0.53343356
vt -0.018904315 -0.5306461
vt -0.009809683 -0.5248638
vt -0.012536658 -0.52285814
vt -0.0037793939 -0.51757956
vt -0.006488463 -0.5144472
vt 0.0049068765 -0.5136036
vt 0.0021466948 -0.508691
vt 0.012731239 -0.507249
vt 0.01164376 -0.5053135
vt 0.021783134 -0.5030791
vt 0.019913293 -0.49975118
vt 0.030404817 -0.4981436
vt 0.02861304 -0.4949546
vt 0.039201625 -0.49351978
vt 0.03713766 -0.4898463
vt 0.047373295 -0.4877833
vt 0.04628742 -0.48585063
vt 0.056451865 -0.4836609
vt 0.054530285 -0.48024088
vt 0.06468573 -0.47803515
vt 0.06361784 -0.4761345
vt 0.07367846 -0.47375998
vt 0.07194655 -0.47067747
vt 0.08241719 -0.46903276
vt 0.08052924 -0.46567255
vt 0.08982458 -0.46471867
vt 0.09044328 -0.46025455
vt 0.09451256 -0.47055805
vt 0.09760519 -0.46819034
vt 0.100683324 -0.47825137
vt 0.102676354 -0.4768841
vt 0.10629608 -0.48645055
vt 0.10830553 -0.48507202
vt 0.111515164 -0.4949198
vt 0.11432837 -0.49298987
vt 0.11741268 -0.50292367
vt 0.11967281 -0.5013731
vt 0.122863516 -0.51123387
vt 0.1254639 -0.50944996
vt 0.12856553 -0.51937187
vt 0.13100381 -0.5176991
vt 0.13371348 -0.5278899
vt 0.1370978 -0.5255682
vt 0.13869846 -0.53651977
vt 0.14335476 -0.53332543
vt 0.14431868 -0.5447138
vt 0.14897646 -0.54151845
vt 0.15110093 -0.5521107
vt 0.15343614 -0.5505087
vt 0.15685935 -0.5604237
vt 0.15891966 -0.5585827
vt 0.16441578 -0.5669323
vt 0.16594303 -0.56458527
vt 0.17287596 -0.5726957
vt 0.17540053 -0.5674573
vt 0.18206207 -0.5765416
vt 0.18413204 -0.57224655
vt 0.19139613 -0.5800807
vt 0.1927156 -0.57734287
vt 0.20023063 -0.5846563
vt 0.20179878 -0.5814025
vt 0.20871589 -0.5899565
vt 0.21123116 -0.5847376
vt 0.21831219 -0.5929515
vt 0.21955249 -0.5903779
vt 0.2272759 -0.597259
vt 0.22850645 -0.5947057
vt 0.23597452 -0.6021165
vt 0.23772547 -0.59848344
vt 0.24474029 -0.6068347
vt 0.24687733 -0.6024006
vt 0.25353977 -0.61148304
vt 0.2559955 -0.60638756
vt 0.26287276 -0.6150243
vt 0.26458016 -0.61148155
vt 0.2715165 -0.6199957
vt 0.27385405 -0.6151455
vt 0.28112206 -0.6229714
vt 0.28216615 -0.620805
vt 0.2898159 -0.6278389
vt 0.29138994 -0.6245729
vt 0.29899392 -0.6317017
vt 0.30012956 -0.62934536
vt 0.30787054 -0.63619
vt 0.30917063 -0.63349235
vt 0.31211138 -0.63884383
vt 0.3138886 -0.63515615
vt 0.31307185 -0.6395106
vt 0.3150085 -0.6354921
vt 0.31411317 -0.6384516
vt 0.31482893 -0.6369663
vn -0 1 0
vn -0 1 0
vn -0 1 0
vn -0 1 0
vn -0 1 0
vn -0 1 0
vn -0 1 0
vn -0 1 0
vn -0 1 0
vn -0 1 0
vn -0 1 0
vn -0 1 0
vn -0 1 0
vn -0 1 0
vn -0 1 0
vn -0 1 0
vn -0 1 0
vn -0 1 0
vn -0 1 0
vn -0 1 0
vn -0 1 0
vn -0 1 0
vn -0 1 0
vn -0 1 0
vn -0 1 0
vn -0 1 0
vn -0 1 0
vn -0 1 0
vn -0 1 0
vn -0 1 0
vn -0 1 0
vn -0 1 0
vn -0 1 0
vn -0 1 0
vn -0 1 0
vn -0 1 0
vn -0 1 0
vn -0 1 0
vn -0 1 0
vn -0 1 0
vn -0 1 0
vn -0 1 0
vn -0 1 0
vn -0 1 0
vn -0 1 0
vn -0 1 0
vn -0 1 0
vn -0 1 0
vn -0 1 0
vn -0 1 0
vn -0 1 0
vn -0 1 0
vn -0 1 0
vn -0 1 0
vn -0 1 0
vn -0 1 0
vn -0 1 0
vn -0 1 0
vn -0 1 0
vn -0 1 0
vn -0 1 0
vn -0 1 0
vn -0 1 0
vn -0 1 0
vn -0 1 0
vn -0 1 0
vn -0 1 0
vn -0 1 0
vn -0 1 0
vn -0 1 0
vn -0 1 0
vn -0 1 0
vn -0 1 0
vn -0 1 0
vn -0 1 0
vn -0 1 0
vn -0 1 0
vn -0 1 0
vn -0 1 0
vn -0 1 0
vn -0 1 0
vn -0 1 0
vn -0 1 0
vn -0 1 0
vn -0 1 0
vn -0 1 0
vn -0 1 0
vn -0 1 0
vn -0 1 0
vn -0 1 0
vn -0 1 0
vn -0 1 0
vn -0 1 0
vn -0 1 0
vn -0 1 0
vn -0 1 0
vn -0 1 0
vn -0 1 0
vn -0 1 0
vn -0 1 0
vn -0 1 0
vn -0 1 0
vn -0 1 0
vn -0 1 0
vn -0 1 0
vn -0 1 0
vn -0 1 0
vn -0 1 0
vn -0 1 0
vn -0 1 0
vn -0 1 0
vn -0 1 0
vn -0 1 0
vn -0 1 0
vn -0 1 0
vn -0 1 0
vn -0 1 0
vn -0 1 0
vn -0 1 0
vn -0 1 0
vn -0 1 0
vn -0 1 0
vn -0 1 0
vn -0 1 0
vn -0 1 0
vn -0 1 0
vn -0 1 0
vn -0 1 0
vn -0 1 0
vn -0 1 0
vn -0 1 0
vn -0 1 0
vn -0 1 0
vn -0 1 0
vn -0 1 0
vn -0 1 0
vn -0 1 0
vn -0 1 0
vn -0 1 0
vn -0 1 0
vn -0 1 0
vn -0 1 0
vn -0 1 0
vn -0 1 0
vn -0 1 0
vn -0 1 0
vn -0 1 0
vn -0 1 0
vn -0 1 0
vn -0 1 0
vn -0 1 0
vn -0 1 0
vn -0 1 0
vn -0 1 0
vn -0 1 0
vn -0 1 0
vn -0 1 0
vn -0 1 0
vn -0 1 0
vn -0 1 0
vn -0 1 0
vn -0 1 0
vn -0 1 0
vn -0 1 0
vn -0 1 0
vn -0 1 0
vn -0 1 0
vn -0 1 0
vn -0 1 0
vn -0 1 0
vn -0 1 0
vn -0 1 0
vn -0 1 0
vn -0 1 0
vn -0 1 0
vn -0 1 0
vn -0 1 0
vn -0 1 0
vn -0 1 0
vn -0 1 0
vn -0 1 0
vn -0 1 0
vn -0 1 0
vn -0 1 0
vn -0 1 0
vn -0 1 0
vn -0 1 0
vn -0 1 0
vn -0 1 0
vn -0 1 0
vn -0 1 0
vn -0 1 0
vn -0 1 0
vn -0 1 0
vn -0 1 0
vn -0 1 0
vn -0 1 0
vn -0 1 0
vn -0 1 0
vn -0 1 0
vn -0 1 0
vn -0 1 0
vn -0 1 0
vn -0 1 0
vn -0 1 0
vn -0 1 0
vn -0 1 0
vn -0 1 0
vn -0 1 0
vn -0 1 0
vn -0 1 0
vn -0 1 0
vn -0 1 0
vn -0 1 0
vn -0 1 0
vn -0 1 0
vn -0 1 0
vn -0 1 0
vn -0 1 0
vn -0 1 0
vn -0 1 0
vn -0 1 0
vn -0 1 0
vn -0 1 0
vn -0 1 0
vn -0 1 0
vn -0 1 0
vn -0 1 0
vn -0 1 0
vn -0 1 0
vn -0 1 0
vn -0 1 0
vn -0 1 0
vn -0 1 0
vn -0 1 0
vn -0 1 0
vn -0 1 0
vn -0 1 0
vn -0 1 0
vn -0 1 0
vn -0 1 0
vn -0 1 0
vn -0 1 0
vn -0 1 0
vn -0 1 0
vn -0 1 0
vn -0 1 0
vn -0 1 0
vn -0 1 0
vn -0 1 0
vn -0 1 0
vn -0 1 0
vn -0 1 0
vn -0 1 0
vn -0 1 0
vn -0 1 0
vn -0 1 0
vn -0 1 0
vn -0 1 0
vn -0 1 0
vn -0 1 0
vn -0 1 0
vn -0 1 0
vn -0 1 0
vn -0 1 0
vn -0 1 0
vn -0 1 0
vn -0 1 0
vn -0 1 0
vn -0 1 0
vn -0 1 0
vn -0 1 0
vn -0 1 0
vn -0 1 0
vn -0 1 0
vn -0 1 0
vn -0 1 0
vn -0 1 0
vn -0 1 0
vn -0 1 0
vn -0 1 0
vn -0 1 0
vn -0 1 0
vn -0 1 0
vn -0 1 0
vn -0 1 0
vn -0 1 0
vn -0 1 0
vn -0 1 0
vn -0 1 0
vn -0 1 0
vn -0 1 0
vn -0 1 0
vn -0 1 0
vn -0 1 0
vn -0 1 0
vn -0 1 0
vn -0 1 0
vn -0 1 0
vn -0 1 0
vn -0 1 0
vn -0 1 0
vn -0 1 0
vn -0 1 0
vn -0 1 0
vn -0 1 0
vn -0 1 0
vn -0 1 0
vn -0 1 0
vn -0 1 0
vn -0 1 0
vn -0 1 0
vn -0 1 0
vn -0 1 0
vn -0 1 0
vn -0 1 0
vn -0 1 0
vn -0 1 0
vn -0 1 0
vn -0 1 0
vn -0 1 0
vn -0 1 0
vn -0 1 0
vn -0 1 0
vn -0 1 0
vn -0 1 0
vn -0 1 0
vn -0 1 0
vn -0 1 0
vn -0 1 0
vn -0 1 0
vn -0 1 0
vn -0 1 0
vn -0 1 0
vn -0 1 0
vn -0 1 0
vn -0 1 0
vn -0 1 0
vn -0 1 0
vn -0 1 0
g _0
f 3/3/3 2/2/2 1/1/1
f 2/2/2 3/3/3 4/4/4
f 5/5/5 4/4/4 3/3/3
f 4/4/4 5/5/5 6/6/6
f 7/7/7 6/6/6 5/5/5
f 6/6/6 7/7/7 8/8/8
f 9/9/9 8/8/8 7/7/7
f 8/8/8 9/9/9 10/10/10
f 11/11/11 10/10/10 9/9/9
f 10/10/10 11/11/11 12/12/12
f 13/13/13 12/12/12 11/11/11
f 12/12/12 13/13/13 14/14/14
f 15/15/15 14/14/14 13/13/13
f 14/14/14 15/15/15 16/16/16
f 17/17/17 16/16/16 15/15/15
f 16/16/16 17/17/17 18/18/18
f 19/19/19 18/18/18 17/17/17
f 18/18/18 19/19/19 20/20/20
f 21/21/21 20/20/20 19/19/19
f 20/20/20 21/21/21 22/22/22
f 23/23/23 22/22/22 21/21/21
f 22/22/22 23/23/23 24/24/24
f 25/25/25 24/24/24 23/23/23
f 24/24/24 25/25/25 26/26/26
f 27/27/27 26/26/26 25/25/25
f 26/26/26 27/27/27 28/28/28
f 29/29/29 28/28/28 27/27/27
f 28/28/28 29/29/29 30/30/30
f 31/31/31 30/30/30 29/29/29
f 30/30/30 31/31/31 32/32/32
f 33/33/33 32/32/32 31/31/31
f 32/32/32 33/33/33 34/34/34
f 35/35/35 34/34/34 33/33/33
f 34/34/34 35/35/35 36/36/36
f 37/37/37 36/36/36 35/35/35
f 36/36/36 37/37/37 38/38/38
f 39/39/39 38/38/38 37/37/37
f 38/38/38 39/39/39 40/40/40
f 41/41/41 40/40/40 39/39/39
f 40/40/40 41/41/41 42/42/42
f 43/43/43 42/42/42 41/41/41
f 42/42/42 43/43/43 44/44/44
f 45/45/45 44/44/44 43/43/43
f 44/44/44 45/45/45 46/46/46
f 47/47/47 46/46/46 45/45/45
f 46/46/46 47/47/47 48/48/48
f 49/49/49 48/48/48 47/47/47
f 48/48/48 49/49/49 50/50/50
f 51/51/51 50/50/50 49/49/49
f 50/50/50 51/51/51 52/52/52
f 53/53/53 52/52/52 51/51/51
f 52/52/52 53/53/53 54/54/54
f 55/55/55 54/54/54 53/53/53
f 54/54/54 55/55/55 56/56/56
f 57/57/57 56/56/56 55/55/55
f 56/56/56 57/57/57 58/58/58
f 59/59/59 58/58/58 57/57/57
f 58/58/58 59/59/59 60/60/60
f 61/61/61 60/60/60 59/59/59
f 60/60/60 61/61/61 62/62/62
f 63/63/63 62/62/62 61/61/61
f 62/62/62 63/63/63 64/64/64
f 65/65/65 64/64/64 63/63/63
f 64/64/64 65/65/65 66/66/66
f 67/67/67 66/66/66 65/65/65
f 66/66/66 67/67/67 68/68/68
f 69/69/69 68/68/68 67/67/67
f 68/68/68 69/69/69 70/70/70
f 71/71/71 70/70/70 69/69/69
f 70/70/70 71/71/71 72/72/72
f 73/73/73 72/72/72 71/71/71
f 72/72/72 73/73/73 74/74/74
f 75/75/75 74/74/74 73/73/73
f 74/74/74 75/75/75 76/76/76
f 77/77/77 76/76/76 75/75/75
f 76/76/76 77/77/77 78/78/78
f 79/79/79 78/78/78 77/77/77
f 78/78/78 79/79/79 80/80/80
f 81/81/81 80/80/80 79/79/79
f 80/80/80 81/81/81 82/82/82
f 83/83/83 82/82/82 81/81/81
f 82/82/82 83/83/83 84/84/84
f 85/85/85 84/84/84 83/83/83
f 84/84/84 85/85/85 86/86/86
f 87/87/87 86/86/86 85/85/85
f 86/86/86 87/87/87 88/88/88
f 89/89/89 88/88/88 87/87/87
f 88/88/88 89/89/89 90/90/90
f 91/91/91 90/90/90 89/89/89
f 90/90/90 91/91/91 92/92/92
f 93/93/93 92/92/92 91/91/91
f 92/92/92 93/93/93 94/94/94
f 95/95/95 94/94/94 93/93/93
f 94/94/94 95/95/95 96/96/96
f 97/97/97 96/96/96 95/95/95
f 96/96/96 97/97/97 98/98/98
f 99/99/99 98/98/98 97/97/97
f 98/98/98 99/99/99 100/100/100
f 101/101/101 100/100/100 99/99/99
f 100/100/100 101/101/101 102/102/102
f 103/103/103 102/102/102 101/101/101
f 102/102/102 103/103/103 104/104/104
f 105/105/105 104/104/104 103/103/103
f 104/104/104 105/105/105 106/106/106
f 107/107/107 106/106/106 105/105/105
f 106/106/106 107/107/107 108/108/108
f 109/109/109 108/108/108 107/107/107
f 108/108/108 109/109/109 110/110/110
f 111/111/111 110/110/110 109/109/109
f 110/110/110 111/111/111 112/112/112
f 113/113/113 112/112/112 111/111/111
f 112/112/112 113/113/113 114/114/114
f 115/115/115 114/114/114 113/113/113
f 114/114/114 115/115/115 116/116/116
f 117/117/117 116/116/116 115/115/115
f 116/116/116 117/117/117 118/118/118
f 119/119/119 118/118/118 117/117/117
f 118/118/118 119/119/119 120/120/120
f 120/120/120 121/121/121 122/122/122
f 123/123/123 122/122/122 121/121/121
f 122/122/122 123/123/123 124/124/124
f 125/125/125 124/124/124 123/123/123
f 124/124/124 125/125/125 126/126/126
f 127/127/127 126/126/126 125/125/125
f 126/126/126 127/127/127 128/128/128
f 129/129/129 128/128/128 127/127/127
f 128/128/128 129/129/129 130/130/130
f 131/131/131 130/130/130 129/129/129
f 130/130/130 131/131/131 132/132/132
f 133/133/133 132/132/132 131/131/131
f 132/132/132 133/133/133 134/134/134
f 135/135/135 134/134/134 133/133/133
f 134/134/134 135/135/135 136/136/136
f 137/137/137 136/136/136 135/135/135
f 136/136/136 137/137/137 138/138/138
f 139/139/139 138/138/138 137/137/137
f 138/138/138 139/139/139 140/140/140
f 141/141/141 140/140/140 139/139/139
f 140/140/140 141/141/141 142/142/142
f 143/143/143 142/142/142 141/141/141
f 142/142/142 143/143/143 144/144/144
f 145/145/145 144/144/144 143/143/143
f 144/144/144 145/145/145 146/146/146
f 147/147/147 146/146/146 145/145/145
f 146/146/146 147/147/147 148/148/148
f 149/149/149 148/148/148 147/147/147
f 148/148/148 149/149/149 150/150/150
f 151/151/151 150/150/150 149/149/149
f 150/150/150 151/151/151 152/152/152
f 153/153/153 152/152/152 151/151/151
f 152/152/152 153/153/153 154/154/154
f 155/155/155 154/154/154 153/153/153
f 154/154/154 155/155/155 156/156/156
f 157/157/157 156/156/156 155/155/155
f 156/156/156 157/157/157 158/158/158
f 159/159/159 158/158/158 157/157/157
f 158/158/158 159/159/159 160/160/160
f 161/161/161 160/160/160 159/159/159
f 160/160/160 161/161/161 162/162/162
f 163/163/163 162/162/162 161/161/161
f 162/162/162 163/163/163 164/164/164
f 165/165/165 164/164/164 163/163/163
f 164/164/164 165/165/165 166/166/166
f 167/167/167 166/166/166 165/165/165
f 166/166/166 167/167/167 168/168/168
f 169/169/169 168/168/168 167/167/167
f 168/168/168 169/169/169 170/170/170
f 171/171/171 170/170/170 169/169/169
f 170/170/170 171/171/171 172/172/172
f 173/173/173 172/172/172 171/171/171
f 172/172/172 173/173/173 174/174/174
f 175/175/175 174/174/174 173/173/173
f 174/174/174 175/175/175 176/176/176
f 177/177/177 176/176/176 175/175/175
f 176/176/176 177/177/177 178/178/178
f 179/179/179 178/178/178 177/177/177
f 178/178/178 179/179/179 180/180/180
f 181/181/181 180/180/180 179/179/179
f 180/180/180 181/181/181 182/182/182
f 183/183/183 182/182/182 181/181/181
f 182/182/182 183/183/183 184/184/184
f 185/185/185 184/184/184 183/183/183
f 184/184/184 185/185/185 186/186/186
f 187/187/187 186/186/186 185/185/185
f 186/186/186 187/187/187 188/188/188
f 189/189/189 188/188/188 187/187/187
f 188/188/188 189/189/189 190/190/190
f 191/191/191 190/190/190 189/189/189
f 190/190/190 191/191/191 192/192/192
f 193/193/193 192/192/192 191/191/191
f 192/192/192 193/193/193 194/194/194
f 195/195/195 194/194/194 193/193/193
f 194/194/194 195/195/195 196/196/196
f 197/197/197 196/196/196 195/195/195
f 196/196/196 197/197/197 198/198/198
f 199/199/199 198/198/198 197/197/197
f 198/198/198 199/199/199 200/200/200
f 201/201/201 200/200/200 199/199/199
f 200/200/200 201/201/201 202/202/202
f 203/203/203 202/202/202 201/201/201
f 202/202/202 203/203/203 204/204/204
f 205/205/205 204/204/204 203/203/203
f 204/204/204 205/205/205 206/206/206
f 207/207/207 206/206/206 205/205/205
f 206/206/206 207/207/207 208/208/208
f 209/209/209 208/208/208 207/207/207
f 208/208/208 209/209/209 210/210/210
f 211/211/211 210/210/210 209/209/209
f 210/210/210 211/211/211 212/212/212
f 213/213/213 212/212/212 211/211/211
f 212/212/212 213/213/213 214/214/214
f 215/215/215 214/214/214 213/213/213
f 214/214/214 215/215/215 216/216/216
f 217/217/217 216/216/216 215/215/215
f 216/216/216 217/217/217 218/218/218
f 219/219/219 218/218/218 217/217/217
f 218/218/218 219/219/219 220/220/220
f 221/221/221 220/220/220 219/219/219
f 220/220/220 221/221/221 222/222/222
f 223/223/223 222/222/222 221/221/221
f 222/222/222 223/223/223 224/224/224
f 225/225/225 224/224/224 223/223/223
f 224/224/224 225/225/225 226/226/226
f 227/227/227 226/226/226 225/225/225
f 226/226/226 227/227/227 228/228/228
f 229/229/229 228/228/228 227/227/227
f 228/228/228 229/229/229 230/230/230
f 231/231/231 230/230/230 229/229/229
f 230/230/230 231/231/231 232/232/232
f 233/233/233 232/232/232 231/231/231
f 232/232/232 233/233/233 234/234/234
f 235/235/235 234/234/234 233/233/233
f 234/234/234 235/235/235 236/236/236
f 237/237/237 236/236/236 235/235/235
f 236/236/236 237/237/237 238/238/238
f 239/239/239 238/238/238 237/237/237
f 238/238/238 239/239/239 240/240/240
f 241/241/241 240/240/240 239/239/239
f 240/240/240 241/241/241 242/242/242
f 243/243/243 242/242/242 241/241/241
f 242/242/242 243/243/243 244/244/244
f 245/245/245 244/244/244 243/243/243
f 244/244/244 245/245/245 246/246/246
f 247/247/247 246/246/246 245/245/245
f 246/246/246 247/247/247 248/248/248
f 249/249/249 248/248/248 247/247/247
f 248/248/248 249/249/249 250/250/250
f 251/251/251 250/250/250 249/249/249
f 250/250/250 251/251/251 252/252/252
f 253/253/253 252/252/252 251/251/251
f 252/252/252 253/253/253 254/254/254
f 255/255/255 254/254/254 253/253/253
f 254/254/254 255/255/255 256/256/256
f 257/257/257 256/256/256 255/255/255
f 256/256/256 257/257/257 258/258/258
f 259/259/259 258/258/258 257/257/257
f 258/258/258 259/259/259 260/260/260
f 261/261/261 260/260/260 259/259/259
f 260/260/260 261/261/261 262/262/262
f 263/263/263 262/262/262 261/261/261
f 262/262/262 263/263/263 264/264/264
f 265/265/265 264/264/264 263/263/263
f 264/264/264 265/265/265 266/266/266
f 267/267/267 266/266/266 265/265/265
f 266/266/266 267/267/267 268/268/268
f 269/269/269 268/268/268 267/267/267
f 268/268/268 269/269/269 270/270/270
f 271/271/271 270/270/270 269/269/269
f 270/270/270 271/271/271 272/272/272
f 273/273/273 272/272/272 271/271/271
f 272/272/272 273/273/273 274/274/274
f 275/275/275 274/274/274 273/273/273
f 274/274/274 275/275/275 276/276/276
f 277/277/277 276/276/276 275/275/275
f 276/276/276 277/277/277 278/278/278
f 279/279/279 278/278/278 277/277/277
f 278/278/278 279/279/279 280/280/280
f 281/281/281 280/280/280 279/279/279
f 280/280/280 281/281/281 282/282/282
f 283/283/283 282/282/282 281/281/281
f 282/282/282 283/283/283 284/284/284
f 285/285/285 284/284/284 283/283/283
f 284/284/284 285/285/285 286/286/286
f 287/287/287 286/286/286 285/285/285
f 286/286/286 287/287/287 288/288/288
f 289/289/289 288/288/288 287/287/287
f 288/288/288 289/289/289 290/290/290
f 291/291/291 290/290/290 289/289/289
f 290/290/290 291/291/291 292/292/292
f 293/293/293 292/292/292 291/291/291
f 292/292/292 293/293/293 294/294/294
f 295/295/295 294/294/294 293/293/293
f 294/294/294 295/295/295 296/296/296
f 297/297/297 296/296/296 295/295/295
f 296/296/296 297/297/297 298/298/298
f 299/299/299 298/298/298 297/297/297
f 298/298/298 299/299/299 300/300/300
f 301/301/301 300/300/300 299/299/299
f 300/300/300 301/301/301 302/302/302
f 303/303/303 302/302/302 301/301/301
f 302/302/302 303/303/303 304/304/304
f 305/305/305 304/304/304 303/303/303
f 304/304/304 305/305/305 306/306/306
f 307/307/307 306/306/306 305/305/305
f 306/306/306 307/307/307 308/308/308
f 309/309/309 308/308/308 307/307/307
f 308/308/308 309/309/309 310/310/310
f 311/311/311 310/310/310 309/309/309
f 310/310/310 311/311/311 312/312/312
f 313/313/313 312/312/312 311/311/311
f 312/312/312 313/313/313 314/314/314
f 315/315/315 314/314/314 313/313/313
f 314/314/314 315/315/315 316/316/316
f 317/317/317 316/316/316 315/315/315
f 316/316/316 317/317/317 318/318/318
f 319/319/319 318/318/318 317/317/317
f 318/318/318 319/319/319 320/320/320
f 321/321/321 320/320/320 319/319/319
f 320/320/320 321/321/321 322/322/322
f 323/323/323 322/322/322 321/321/321
f 322/322/322 323/323/323 324/324/324
f 325/325/325 324/324/324 323/323/323
f 324/324/324 325/325/325 326/326/326
f 327/327/327 326/326/326 325/325/325
f 326/326/326 327/327/327 328/328/328
f 329/329/329 328/328/328 327/327/327
f 328/328/328 329/329/329 330/330/330
f 331/331/331 330/330/330 329/329/329
f 330/330/330 331/331/331 332/332/332
f 333/333/333 332/332/332 331/331/331
f 332/332/332 333/333/333 334/334/334
f 335/335/335 334/334/334 333/333/333
f 334/334/334 335/335/335 336/336/336
f 337/337/337 336/336/336 335/335/335
f 336/336/336 337/337/337 338/338/338
f 339/339/339 338/338/338 337/337/337
f 338/338/338 339/339/339 340/340/340
