g 
v 120.88 13.608128 7.15
v 120.88 2.0518708 7.15
v 123.47 16.049442 6.71
v 123.47 -1.8694434 6.71
v 124.07 17.747305 8.76
v 124.07 -4.567305 8.76
v 122.62 17.747305 10.76
v 122.62 -4.567305 10.76
v 120.91 17.747305 10.69
v 120.91 -4.5673046 10.69
v 119.98 17.747305 8.6
v 119.98 -4.5673046 8.6
v 120.88 13.608128 7.15
v 120.88 2.0518708 7.15
vt -1.2088 0.071499996
vt -1.2088 0.071499996
vt -1.2347 0.067099996
vt -1.2347 0.067099996
vt -1.2407 0.0876
vt -1.2407 0.0876
vt -1.2262 0.1076
vt -1.2262 0.1076
vt -1.2091 0.10689999
vt -1.2091 0.10689999
vt -1.1998 0.086
vt -1.1998 0.086
vt -1.2088 0.071499996
vt -1.2088 0.071499996
vn -0.16748428 0 -0.9858748
vn -0.16748428 0 -0.9858748
vn 0.95973754 0 -0.28089806
vn 0.9597376 -0 -0.2808981
vn 0.80961096 0 0.58696675
vn 0.80961096 0 0.58696675
vn -0.040901814 -0 0.99916315
vn -0.040901814 0 0.99916315
vn -0.9136311 -0 0.40654427
vn -0.9136311 0 0.40654427
vn -0.8496418 0 -0.5273602
vn -0.84964186 0 -0.52736026
vn -0.84964186 0 -0.52736026
vn -0.84964186 0 -0.52736026
g _0
f 3/3/3 2/2/2 1/1/1
f 2/2/2 3/3/3 4/4/4
f 5/5/5 4/4/4 3/3/3
f 4/4/4 5/5/5 6/6/6
f 7/7/7 6/6/6 5/5/5
f 6/6/6 7/7/7 8/8/8
f 9/9/9 8/8/8 7/7/7
f 8/8/8 9/9/9 10/10/10
f 11/11/11 10/10/10 9/9/9
f 10/10/10 11/11/11 12/12/12
f 13/13/13 12/12/12 11/11/11
f 12/12/12 13/13/13 14/14/14
