g 
v -3.342978 17.6 -74.95456
v 17.831806 17.6 -83.38777
v -9.305899 17.6 -66.14184
v 28.220686 17.6 -81.08743
v -8.434838 17.6 -50.946335
v 38.03484 17.6 -69.45367
v -2.7881298 17.6 -44.508186
v 38.265846 17.6 -61.13358
v 3.4919796 17.6 -37.424164
v 38.718086 17.6 -51.837116
v 10.233212 17.6 -29.87958
v 38.862732 17.6 -42.478428
v 17.290148 17.6 -22.386751
v 39.609856 17.6 -33.493248
v 21.125118 13.095061 -15.114788
v 42.841183 13.095061 -27.359634
v 24.820011 7.2930555 -9.015388
v 46.078526 7.2930555 -22.038408
v 26.965715 5.3 -5.5656357
v 48.134285 5.3 -18.734364
v 32.804146 5.3 -0.72195864
v 49.89882 5.3 -11.356362
v 38.10318 5.3 -0.5076778
v 47.74904 5.3 -6.508258
v -3.342978 17.6 -74.95456
v -3.342978 -12.4 -74.95456
v -9.305899 17.6 -66.14184
v -9.305899 -12.4 -66.14184
v -9.305899 17.6 -66.14184
v -9.305899 -12.4 -66.14184
v -8.434838 17.6 -50.946335
v -8.434838 -12.4 -50.946335
v -8.434838 17.6 -50.946335
v -8.434838 -12.4 -50.946335
v -2.7881298 17.6 -44.508186
v -2.7881298 -12.4 -44.508186
v -2.7881298 17.6 -44.508186
v -2.7881298 -12.4 -44.508186
v 3.4919796 17.6 -37.424164
v 3.4919796 -12.4 -37.424164
v 3.4919796 17.6 -37.424164
v 3.4919796 -12.4 -37.424164
v 10.233212 17.6 -29.87958
v 10.233212 -12.4 -29.87958
v 10.233212 17.6 -29.87958
v 10.233212 -12.4 -29.87958
v 17.290148 17.6 -22.386751
v 17.290148 -12.4 -22.386751
v 17.290148 17.6 -22.386751
v 17.290148 -12.4 -22.386751
v 21.125118 13.095061 -15.114788
v 21.125118 -16.904938 -15.114788
v 21.125118 13.095061 -15.114788
v 21.125118 -16.904938 -15.114788
v 24.820011 7.2930555 -9.015388
v 24.820011 -22.706944 -9.015388
v 24.820011 7.2930555 -9.015388
v 24.820011 -22.706944 -9.015388
v 26.965715 5.3 -5.5656357
v 26.965715 -24.7 -5.5656357
v 26.965715 5.3 -5.5656357
v 26.965715 -24.7 -5.5656357
v 32.804146 5.3 -0.72195864
v 32.804146 -24.7 -0.72195864
v 32.804146 5.3 -0.72195864
v 32.804146 -24.7 -0.72195864
v 38.10318 5.3 -0.5076778
v 38.10318 -24.7 -0.5076778
v 17.831806 17.6 -83.38777
v 17.831806 -12.4 -83.38777
v 28.220686 17.6 -81.08743
v 28.220686 -12.4 -81.08743
v 28.220686 17.6 -81.08743
v 28.220686 -12.4 -81.08743
v 38.03484 17.6 -69.45367
v 38.03484 -12.4 -69.45367
v 38.03484 17.6 -69.45367
v 38.03484 -12.4 -69.45367
v 38.265846 17.6 -61.13358
v 38.265846 -12.4 -61.13358
v 38.265846 17.6 -61.13358
v 38.265846 -12.4 -61.13358
v 38.718086 17.6 -51.837116
v 38.718086 -12.4 -51.837116
v 38.718086 17.6 -51.837116
v 38.718086 -12.4 -51.837116
v 38.862732 17.6 -42.478428
v 38.862732 -12.4 -42.478428
v 38.862732 17.6 -42.478428
v 38.862732 -12.4 -42.478428
v 39.609856 17.6 -33.493248
v 39.609856 -12.4 -33.493248
v 39.609856 17.6 -33.493248
v 39.609856 -12.4 -33.493248
v 42.841183 13.095061 -27.359634
v 42.841183 -16.904938 -27.359634
v 42.841183 13.095061 -27.359634
v 42.841183 -16.904938 -27.359634
v 46.078526 7.2930555 -22.038408
v 46.078526 -22.706944 -22.038408
v 46.078526 7.2930555 -22.038408
v 46.078526 -22.706944 -22.038408
v 48.134285 5.3 -18.734364
v 48.134285 -24.7 -18.734364
v 48.134285 5.3 -18.734364
v 48.134285 -24.7 -18.734364
v 49.89882 5.3 -11.356362
v 49.89882 -24.7 -11.356362
v 49.89882 5.3 -11.356362
v 49.89882 -24.7 -11.356362
v 47.74904 5.3 -6.508258
v 47.74904 -24.7 -6.508258
vt -0.06913559 0.050124865
vt -0.046405703 0.048438855
vt -0.07835438 0.04481125
vt -0.038071785 0.041823253
vt -0.084222436 0.03076746
vt -0.03433996 0.027067384
vt -0.08196345 0.022507193
vt -0.037774052 0.019485548
vt -0.07941766 0.013388961
vt -0.041436605 0.010929003
vt -0.07665886 0.003654793
vt -0.045402955 0.0024511477
vt -0.07359356 -0.006171027
vt -0.048664123 -0.0059545925
vt -0.073328495 -0.014387973
vt -0.048443537 -0.012883808
vt -0.07267614 -0.021489335
vt -0.047861952 -0.019085227
vt -0.0722569 -0.02553026
vt -0.047459807 -0.022955775
vt -0.069127604 -0.03244083
vt -0.04910272 -0.030361809
vt -0.064456955 -0.034952942
vt -0.05315769 -0.033779833
vt -0.06913559 0.050124865
vt -0.06913559 0.050124865
vt -0.07835438 0.04481125
vt -0.07835438 0.04481125
vt -0.07835438 0.04481125
vt -0.07835438 0.04481125
vt -0.084222436 0.03076746
vt -0.084222436 0.03076746
vt -0.084222436 0.03076746
vt -0.084222436 0.03076746
vt -0.08196345 0.022507193
vt -0.08196345 0.022507193
vt -0.08196345 0.022507193
vt -0.08196345 0.022507193
vt -0.07941766 0.013388961
vt -0.07941766 0.013388961
vt -0.07941766 0.013388961
vt -0.07941766 0.013388961
vt -0.07665886 0.003654793
vt -0.07665886 0.003654793
vt -0.07665886 0.003654793
vt -0.07665886 0.003654793
vt -0.07359356 -0.006171027
vt -0.07359356 -0.006171027
vt -0.07359356 -0.006171027
vt -0.07359356 -0.006171027
vt -0.073328495 -0.014387973
vt -0.073328495 -0.014387973
vt -0.073328495 -0.014387973
vt -0.073328495 -0.014387973
vt -0.07267614 -0.021489335
vt -0.07267614 -0.021489335
vt -0.07267614 -0.021489335
vt -0.07267614 -0.021489335
vt -0.0722569 -0.02553026
vt -0.0722569 -0.02553026
vt -0.0722569 -0.02553026
vt -0.0722569 -0.02553026
vt -0.069127604 -0.03244083
vt -0.069127604 -0.03244083
vt -0.069127604 -0.03244083
vt -0.069127604 -0.03244083
vt -0.064456955 -0.034952942
vt -0.064456955 -0.034952942
vt -0.046405703 0.048438855
vt -0.046405703 0.048438855
vt -0.038071785 0.041823253
vt -0.038071785 0.041823253
vt -0.038071785 0.041823253
vt -0.038071785 0.041823253
vt -0.03433996 0.027067384
vt -0.03433996 0.027067384
vt -0.03433996 0.027067384
vt -0.03433996 0.027067384
vt -0.037774052 0.019485548
vt -0.037774052 0.019485548
vt -0.037774052 0.019485548
vt -0.037774052 0.019485548
vt -0.041436605 0.010929003
vt -0.041436605 0.010929003
vt -0.041436605 0.010929003
vt -0.041436605 0.010929003
vt -0.045402955 0.0024511477
vt -0.045402955 0.0024511477
vt -0.045402955 0.0024511477
vt -0.045402955 0.0024511477
vt -0.048664123 -0.0059545925
vt -0.048664123 -0.0059545925
vt -0.048664123 -0.0059545925
vt -0.048664123 -0.0059545925
vt -0.048443537 -0.012883808
vt -0.048443537 -0.012883808
vt -0.048443537 -0.012883808
vt -0.048443537 -0.012883808
vt -0.047861952 -0.019085227
vt -0.047861952 -0.019085227
vt -0.047861952 -0.019085227
vt -0.047861952 -0.019085227
vt -0.047459807 -0.022955775
vt -0.047459807 -0.022955775
vt -0.047459807 -0.022955775
vt -0.047459807 -0.022955775
vt -0.04910272 -0.030361809
vt -0.04910272 -0.030361809
vt -0.04910272 -0.030361809
vt -0.04910272 -0.030361809
vt -0.05315769 -0.033779833
vt -0.05315769 -0.033779833
vn -0 1 0
vn -0 1 0
vn -0 1 0
vn -0 1 0
vn -0 1 0
vn -0 1 0
vn -0 1 0
vn -0 1 0
vn -0 1 0
vn -0 1 0
vn -0 1 0
vn -0 1 0
vn -0 1 0
vn -0 1 0
vn -0 1 0
vn -0 1 0
vn -0 1 0
vn -0 1 0
vn -0 1 0
vn -0 1 0
vn -0 1 0
vn -0 1 0
vn -0 1 0
vn -0 1 0
vn -0.3700021 0 -0.9290309
vn -0.3700021 0 -0.9290309
vn -0.82822347 0 -0.5603979
vn -0.82822347 0 -0.5603979
vn -0.998361 -0 0.05722961
vn -0.998361 0 0.05722961
vn -0.998361 0 0.05722961
vn -0.998361 0 0.05722961
vn -0.7518048 -0 0.6593856
vn -0.7518048 0 0.6593856
vn -0.7518048 0 0.6593856
vn -0.7518048 0 0.6593856
vn -0.7482898 -0 0.663372
vn -0.7482898 0 0.663372
vn -0.7482898 0 0.663372
vn -0.7482898 0 0.663372
vn -0.7456922 -0 0.6662905
vn -0.7456922 0 0.6662905
vn -0.7456922 0 0.6662905
vn -0.7456922 0 0.6662905
vn -0.7279642 -0 0.68561506
vn -0.7279642 0 0.68561506
vn -0.7279642 0 0.68561506
vn -0.7279642 0 0.68561506
vn -0.8845358 -0 0.46647224
vn -0.8845358 0 0.46647224
vn -0.8845358 0 0.46647224
vn -0.8845358 0 0.46647224
vn -0.85530436 -0 0.518126
vn -0.85530436 0 0.518126
vn -0.85530436 0 0.518126
vn -0.85530436 0 0.518126
vn -0.8491458 -0 0.5281585
vn -0.8491458 0 0.5281585
vn -0.8491458 0 0.5281585
vn -0.8491458 0 0.5281585
vn -0.63849616 -0 0.769625
vn -0.63849616 0 0.769625
vn -0.63849616 0 0.769625
vn -0.63849616 0 0.769625
vn -0.040404696 -0 0.99918336
vn -0.040404696 0 0.99918336
vn 0.5282202 0 0.84910744
vn 0.5282202 0 0.84910744
vn -0.3700021 0 -0.9290309
vn -0.3700021 0 -0.9290309
vn 0.21618697 -0 -0.97635204
vn 0.21618697 -0 -0.97635204
vn 0.76435095 0 -0.6448004
vn 0.76435095 -0 -0.6448004
vn 0.76435095 -0 -0.6448004
vn 0.76435095 -0 -0.6448004
vn 0.9996148 0 -0.02775423
vn 0.9996148 -0 -0.02775423
vn 0.9996148 -0 -0.02775423
vn 0.9996148 -0 -0.02775423
vn 0.9988189 0 -0.048589
vn 0.9988189 -0 -0.048589
vn 0.9988189 -0 -0.048589
vn 0.9988189 -0 -0.048589
vn 0.99988055 0 -0.015453919
vn 0.99988055 -0 -0.015453919
vn 0.99988055 -0 -0.015453919
vn 0.99988055 -0 -0.015453919
vn 0.99656075 0 -0.082864694
vn 0.99656075 -0 -0.082864694
vn 0.99656075 -0 -0.082864694
vn 0.99656075 -0 -0.082864694
vn 0.8847333 0 -0.46609762
vn 0.8847333 -0 -0.46609762
vn 0.8847333 -0 -0.46609762
vn 0.8847333 -0 -0.46609762
vn 0.85431725 0 -0.51975197
vn 0.85431725 -0 -0.51975197
vn 0.85431725 -0 -0.51975197
vn 0.85431725 -0 -0.51975197
vn 0.8490671 0 -0.52828515
vn 0.8490671 -0 -0.52828515
vn 0.8490671 -0 -0.52828515
vn 0.8490671 -0 -0.52828515
vn 0.972572 0 -0.2326018
vn 0.972572 -0 -0.2326018
vn 0.972572 -0 -0.2326018
vn 0.972572 -0 -0.2326018
vn 0.91415644 0 0.40536162
vn 0.91415644 0 0.40536162
vn 0.5282202 0 0.84910744
vn 0.5282202 0 0.84910744
g _0
f 3/3/3 2/2/2 1/1/1
f 2/2/2 3/3/3 4/4/4
f 5/5/5 4/4/4 3/3/3
f 4/4/4 5/5/5 6/6/6
f 7/7/7 6/6/6 5/5/5
f 6/6/6 7/7/7 8/8/8
f 9/9/9 8/8/8 7/7/7
f 8/8/8 9/9/9 10/10/10
f 11/11/11 10/10/10 9/9/9
f 10/10/10 11/11/11 12/12/12
f 13/13/13 12/12/12 11/11/11
f 12/12/12 13/13/13 14/14/14
f 15/15/15 14/14/14 13/13/13
f 14/14/14 15/15/15 16/16/16
f 17/17/17 16/16/16 15/15/15
f 16/16/16 17/17/17 18/18/18
f 19/19/19 18/18/18 17/17/17
f 18/18/18 19/19/19 20/20/20
f 21/21/21 20/20/20 19/19/19
f 20/20/20 21/21/21 22/22/22
f 23/23/23 22/22/22 21/21/21
f 22/22/22 23/23/23 24/24/24
g _1
f 25/25/25 26/26/26 27/27/27
f 28/28/28 27/27/27 26/26/26
f 29/29/29 30/30/30 31/31/31
f 32/32/32 31/31/31 30/30/30
f 33/33/33 34/34/34 35/35/35
f 36/36/36 35/35/35 34/34/34
f 37/37/37 38/38/38 39/39/39
f 40/40/40 39/39/39 38/38/38
f 41/41/41 42/42/42 43/43/43
f 44/44/44 43/43/43 42/42/42
f 45/45/45 46/46/46 47/47/47
f 48/48/48 47/47/47 46/46/46
f 49/49/49 50/50/50 51/51/51
f 52/52/52 51/51/51 50/50/50
f 53/53/53 54/54/54 55/55/55
f 56/56/56 55/55/55 54/54/54
f 57/57/57 58/58/58 59/59/59
f 60/60/60 59/59/59 58/58/58
f 61/61/61 62/62/62 63/63/63
f 64/64/64 63/63/63 62/62/62
f 65/65/65 66/66/66 67/67/67
f 68/68/68 67/67/67 66/66/66
f 71/71/71 70/70/70 69/69/69
f 70/70/70 71/71/71 72/72/72
f 75/75/75 74/74/74 73/73/73
f 74/74/74 75/75/75 76/76/76
f 79/79/79 78/78/78 77/77/77
f 78/78/78 79/79/79 80/80/80
f 83/83/83 82/82/82 81/81/81
f 82/82/82 83/83/83 84/84/84
f 87/87/87 86/86/86 85/85/85
f 86/86/86 87/87/87 88/88/88
f 91/91/91 90/90/90 89/89/89
f 90/90/90 91/91/91 92/92/92
f 95/95/95 94/94/94 93/93/93
f 94/94/94 95/95/95 96/96/96
f 99/99/99 98/98/98 97/97/97
f 98/98/98 99/99/99 100/100/100
f 103/103/103 102/102/102 101/101/101
f 102/102/102 103/103/103 104/104/104
f 107/107/107 106/106/106 105/105/105
f 106/106/106 107/107/107 108/108/108
f 111/111/111 110/110/110 109/109/109
f 110/110/110 111/111/111 112/112/112
f 69/69/69 26/26/26 25/25/25
f 26/26/26 69/69/69 70/70/70
f 67/67/67 68/68/68 111/111/111
f 112/112/112 111/111/111 68/68/68
