g 
v 38.52 71.72324 9.41
v 38.52 56.836758 9.41
v 37.83 72.412445 6.19
v 37.83 56.787548 6.19
v 35.08 72.412445 4.75
v 35.08 56.787548 4.75
v 32.71 72.412445 5.72
v 32.71 56.787548 5.72
v 32.21 72.412445 6.82
v 32.21 56.787548 6.82
v 32.04 72.412445 9.4
v 32.04 56.787548 9.4
v 34.62 72.412445 11.32
v 34.62 56.787548 11.32
v 37.13 72.412445 10.69
v 37.13 56.787548 10.69
v 38.52 71.72324 9.41
v 38.52 56.836758 9.41
vt -0.4062 -0.018900003
vt -0.4062 -0.018900003
vt -0.3993 -0.0511
vt -0.3993 -0.0511
vt -0.3718 -0.0655
vt -0.3718 -0.0655
vt -0.34809998 -0.055800002
vt -0.34809998 -0.055800002
vt -0.34309998 -0.0448
vt -0.34309998 -0.0448
vt -0.3414 -0.019000005
vt -0.3414 -0.019000005
vt -0.36719996 0.00019999503
vt -0.36719996 0.00019999503
vt -0.39229998 -0.006100006
vt -0.39229998 -0.006100006
vt -0.4062 -0.018900003
vt -0.4062 -0.018900003
vn 0.9778025 0 -0.2095287
vn 0.97780246 -0 -0.2095287
vn 0.46388662 0 -0.88589454
vn 0.46388662 -0 -0.88589454
vn -0.37878448 0 -0.92548496
vn -0.37878448 0 -0.92548496
vn -0.91036654 0 -0.41380283
vn -0.91036654 0 -0.41380283
vn -0.9978363 0 -0.06574821
vn -0.9978363 0 -0.06574821
vn -0.5970111 -0 0.802233
vn -0.5970111 0 0.802233
vn 0.24344459 0 0.9699148
vn 0.24344459 0 0.9699148
vn 0.6774005 0 0.7356144
vn 0.67740047 0 0.7356144
vn 0.67740047 0 0.7356144
vn 0.67740047 0 0.7356144
g _0
f 1/1/1 2/2/2 3/3/3
f 4/4/4 3/3/3 2/2/2
f 3/3/3 4/4/4 5/5/5
f 6/6/6 5/5/5 4/4/4
f 5/5/5 6/6/6 7/7/7
f 8/8/8 7/7/7 6/6/6
f 7/7/7 8/8/8 9/9/9
f 10/10/10 9/9/9 8/8/8
f 9/9/9 10/10/10 11/11/11
f 12/12/12 11/11/11 10/10/10
f 11/11/11 12/12/12 13/13/13
f 14/14/14 13/13/13 12/12/12
f 13/13/13 14/14/14 15/15/15
f 16/16/16 15/15/15 14/14/14
f 15/15/15 16/16/16 17/17/17
f 18/18/18 17/17/17 16/16/16
