g 
v 53.75 57.54324 -44.54
v 53.75 42.656757 -44.54
v 57.61 57.91245 -38.68
v 57.61 42.287548 -38.68
v 62.77 57.91245 -36.01
v 62.77 42.287548 -36.01
v 61.99 57.91245 -33.36
v 61.99 42.287548 -33.36
v 54.82 57.91245 -28.2
v 54.82 42.287548 -28.2
v 45.96 57.91245 -28.04
v 45.96 42.287548 -28.04
v 45.64 57.91245 -29.5
v 45.64 42.287548 -29.5
v 49.31 57.91245 -30.69
v 49.31 42.287548 -30.69
v 49.33 57.91245 -33.94
v 49.33 42.287548 -33.94
v 50.13 57.91245 -36.69
v 50.13 42.287548 -36.69
v 47.62 57.91245 -39.07
v 47.62 42.287548 -39.07
v 47.68 57.91245 -40.56
v 47.68 42.287548 -40.56
v 51.39 57.91245 -43.78
v 51.39 42.287548 -43.78
v 52.44 57.91245 -44.59
v 52.44 42.287548 -44.59
v 53.75 57.54324 -44.54
v 53.75 42.656757 -44.54
vt -0.3765 -0.2654
vt -0.3765 -0.2654
vt -0.4151 -0.2068
vt -0.4151 -0.2068
vt -0.46669996 -0.18009998
vt -0.46669996 -0.18009998
vt -0.45889997 -0.1536
vt -0.45889997 -0.1536
vt -0.3872 -0.102000006
vt -0.3872 -0.102000006
vt -0.2986 -0.10040001
vt -0.2986 -0.10040001
vt -0.2954 -0.114999995
vt -0.2954 -0.114999995
vt -0.33209997 -0.1269
vt -0.33209997 -0.1269
vt -0.33230004 -0.15939999
vt -0.33230004 -0.15939999
vt -0.3403 -0.18689997
vt -0.3403 -0.18689997
vt -0.31519997 -0.21069999
vt -0.31519997 -0.21069999
vt -0.31579998 -0.2256
vt -0.31579998 -0.2256
vt -0.3529 -0.25779998
vt -0.3529 -0.25779998
vt -0.36339995 -0.2659
vt -0.36339995 -0.2659
vt -0.3765 -0.2654
vt -0.3765 -0.2654
vn 0.83510697 0 -0.5500876
vn 0.835107 -0 -0.5500876
vn 0.45956367 0 -0.88814485
vn 0.45956367 -0 -0.88814485
vn 0.95930785 0 0.2823621
vn 0.95930785 0 0.2823621
vn 0.5841257 0 0.81166327
vn 0.5841257 0 0.81166327
vn 0.018055728 0 0.999837
vn 0.018055728 0 0.999837
vn -0.97681266 -0 0.21409585
vn -0.97681266 0 0.21409585
vn -0.30844128 0 -0.9512434
vn -0.30844128 0 -0.9512434
vn -0.99998105 0 -0.0061538736
vn -0.99998105 0 -0.0061538736
vn -0.96019536 0 -0.2793293
vn -0.96019536 0 -0.2793293
vn -0.6880652 -0 0.7256489
vn -0.6880652 0 0.7256489
vn -0.99919015 0 -0.040236723
vn -0.99919015 0 -0.040236723
vn -0.65547264 0 -0.7552189
vn -0.65547264 0 -0.7552189
vn -0.6108044 0 -0.7917815
vn -0.6108044 0 -0.7917815
vn 0.03813955 0 -0.9992724
vn 0.03813955 -0 -0.99927247
vn 0.03813955 -0 -0.99927247
vn 0.03813955 -0 -0.99927247
g _0
f 3/3/3 2/2/2 1/1/1
f 2/2/2 3/3/3 4/4/4
f 5/5/5 4/4/4 3/3/3
f 4/4/4 5/5/5 6/6/6
f 7/7/7 6/6/6 5/5/5
f 6/6/6 7/7/7 8/8/8
f 9/9/9 8/8/8 7/7/7
f 8/8/8 9/9/9 10/10/10
f 11/11/11 10/10/10 9/9/9
f 10/10/10 11/11/11 12/12/12
f 13/13/13 12/12/12 11/11/11
f 12/12/12 13/13/13 14/14/14
f 15/15/15 14/14/14 13/13/13
f 14/14/14 15/15/15 16/16/16
f 17/17/17 16/16/16 15/15/15
f 16/16/16 17/17/17 18/18/18
f 19/19/19 18/18/18 17/17/17
f 18/18/18 19/19/19 20/20/20
f 21/21/21 20/20/20 19/19/19
f 20/20/20 21/21/21 22/22/22
f 23/23/23 22/22/22 21/21/21
f 22/22/22 23/23/23 24/24/24
f 25/25/25 24/24/24 23/23/23
f 24/24/24 25/25/25 26/26/26
f 27/27/27 26/26/26 25/25/25
f 26/26/26 27/27/27 28/28/28
f 29/29/29 28/28/28 27/27/27
f 28/28/28 29/29/29 30/30/30
