g 
v 91.32969 108.41657 -58.935093
v 91.32969 94.41657 -58.935093
v 91.94869 108.41657 -56.11054
v 91.94869 94.41657 -56.11054
v 89.1361 108.41657 -52.02931
v 89.1361 94.41657 -52.02931
v 85.75995 108.41657 -51.87032
v 85.75995 94.41657 -51.87032
v 84.46856 108.41657 -53.24869
v 84.46856 94.41657 -53.24869
v 81.67375 108.41657 -52.673233
v 81.67375 94.41657 -52.673233
v 80.87027 108.41657 -54.202785
v 80.87027 94.41657 -54.202785
v 81.59832 108.41657 -56.77032
v 81.59832 94.41657 -56.77032
v 85.10521 108.41657 -57.707203
v 85.10521 94.41657 -57.707203
v 86.08199 108.41657 -59.669125
v 86.08199 94.41657 -59.669125
v 88.843376 108.41657 -60.607258
v 88.843376 94.41657 -60.607258
v 90.6751 108.41657 -60.206738
v 90.6751 94.41657 -60.206738
v 91.32969 108.41657 -58.935093
v 91.32969 94.41657 -58.935093
vt -0.08574188 -0.10179493
vt -0.08574188 -0.10179493
vt -0.09193192 -0.07354938
vt -0.09193192 -0.07354938
vt -0.063806 -0.032737084
vt -0.063806 -0.032737084
vt -0.03004448 -0.031147193
vt -0.03004448 -0.031147193
vt -0.017130584 -0.044930916
vt -0.017130584 -0.044930916
vt 0.01081749 -0.03917633
vt 0.01081749 -0.03917633
vt 0.01885231 -0.054471854
vt 0.01885231 -0.054471854
vt 0.011571808 -0.08014721
vt 0.011571808 -0.08014721
vt -0.023497084 -0.08951603
vt -0.023497084 -0.08951603
vt -0.033264924 -0.10913524
vt -0.033264924 -0.10913524
vt -0.060878754 -0.11851658
vt -0.060878754 -0.11851658
vt -0.07919601 -0.11451137
vt -0.07919601 -0.11451137
vt -0.08574188 -0.10179493
vt -0.08574188 -0.10179493
vn 0.9768182 0 -0.21407047
vn 0.9768182 -0 -0.21407047
vn 0.823406 0 0.5674526
vn 0.823406 0 0.5674526
vn 0.047039635 0 0.998893
vn 0.047039635 0 0.998893
vn -0.7297576 -0 0.683706
vn -0.7297576 0 0.683706
vn 0.20167209 0 0.97945315
vn 0.20167209 0 0.97945315
vn -0.8852866 -0 0.46504578
vn -0.8852866 0 0.46504578
vn -0.9620696 0 -0.2728044
vn -0.9620696 0 -0.2728044
vn -0.25810283 0 -0.96611744
vn -0.25810283 0 -0.96611744
vn -0.8951883 0 -0.44568822
vn -0.8951883 0 -0.44568822
vn -0.3216762 0 -0.9468497
vn -0.3216762 0 -0.9468497
vn 0.21361049 0 -0.97691894
vn 0.21361049 -0 -0.97691894
vn 0.88911766 0 -0.45767874
vn 0.88911766 -0 -0.45767874
vn 0.88911766 -0 -0.45767874
vn 0.88911766 -0 -0.45767874
g _0
f 3/3/3 2/2/2 1/1/1
f 2/2/2 3/3/3 4/4/4
f 5/5/5 4/4/4 3/3/3
f 4/4/4 5/5/5 6/6/6
f 7/7/7 6/6/6 5/5/5
f 6/6/6 7/7/7 8/8/8
f 9/9/9 8/8/8 7/7/7
f 8/8/8 9/9/9 10/10/10
f 11/11/11 10/10/10 9/9/9
f 10/10/10 11/11/11 12/12/12
f 13/13/13 12/12/12 11/11/11
f 12/12/12 13/13/13 14/14/14
f 15/15/15 14/14/14 13/13/13
f 14/14/14 15/15/15 16/16/16
f 17/17/17 16/16/16 15/15/15
f 16/16/16 17/17/17 18/18/18
f 19/19/19 18/18/18 17/17/17
f 18/18/18 19/19/19 20/20/20
f 21/21/21 20/20/20 19/19/19
f 20/20/20 21/21/21 22/22/22
f 23/23/23 22/22/22 21/21/21
f 22/22/22 23/23/23 24/24/24
f 25/25/25 24/24/24 23/23/23
f 24/24/24 25/25/25 26/26/26
