g 
v -40.583122 0 -54.498104
v -40.662125 0 -54.705738
v -40.54274 0 -54.526485
v -40.6131 0 -54.711376
v -40.382084 0 -54.428974
v -40.55792 0 -54.891026
v -39.58873 0 -54.867714
v -39.6736 0 -55.09073
v -38.632565 0 -55.159004
v -38.76569 0 -55.508827
v -37.71513 0 -55.552074
v -37.81905 0 -55.825146
v -36.780777 0 -55.900692
v -36.88932 0 -56.18591
v -35.849277 0 -56.256794
v -35.956745 0 -56.539196
v -34.92776 0 -56.639137
v -35.01418 0 -56.866234
v -33.985416 0 -56.96676
v -34.09245 0 -57.248
v -33.046734 0 -57.303978
v -33.167057 0 -57.620163
v -32.097805 0 -57.614304
v -32.251904 0 -58.019226
v -31.185028 0 -58.0196
v -31.300606 0 -58.32331
v -30.221138 0 -58.2906
v -30.400417 0 -58.7617
v -29.295359 0 -58.661743
v -29.462118 0 -59.099945
v -28.404148 0 -59.123722
v -28.48925 0 -59.347347
v -27.433147 0 -59.376038
v -27.596172 0 -59.80442
v -26.487328 0 -59.69451
v -26.677917 0 -60.195328
v -25.607586 0 -60.18663
v -25.69358 0 -60.412598
v -24.640429 0 -60.449036
v -24.79666 0 -60.859573
v -23.741312 0 -60.89024
v -23.831701 0 -61.127758
v -22.801725 0 -61.2251
v -22.90721 0 -61.502277
v -21.856182 0 -61.544308
v -21.988674 0 -61.89246
v -20.912338 0 -61.867977
v -21.06844 0 -62.27817
v -20.003601 0 -62.2839
v -20.113098 0 -62.571636
v -19.055653 0 -62.59679
v -19.196972 0 -62.968136
v -18.13216 0 -62.973938
v -18.256386 0 -63.30037
v -17.201136 0 -63.3313
v -17.323332 0 -63.652397
v -16.256554 0 -63.65303
v -16.403835 0 -64.04005
v -15.313548 0 -63.978905
v -15.482764 0 -64.42356
v -14.39566 0 -64.37078
v -14.536573 0 -64.741066
v -13.456988 0 -64.708046
v -13.611167 0 -65.11318
v -12.507807 0 -65.01769
v -12.696272 0 -65.51293
v -11.473908 0 -65.56611
v -11.866092 0 -65.6739
v -12.102143 0 -66.54938
v -12.478333 0 -66.25015
v -12.695342 0 -67.35065
v -13.125609 0 -67.00841
v -13.435876 0 -68.03473
v -13.625552 0 -67.88385
v -13.927619 0 -68.916695
v -14.374286 0 -68.56141
v -14.57862 0 -69.67198
v -14.963759 0 -69.36563
v -15.225788 0 -70.43032
v -15.557068 0 -70.16682
v -15.840592 0 -71.21441
v -16.182737 0 -70.94225
v -16.512867 0 -71.91673
v -16.750942 0 -71.79945
v -16.591722 0 -72.78804
v -17.096277 0 -72.74779
v -16.663647 0 -73.75719
v -16.90435 0 -73.77168
v -16.489088 0 -74.74681
v -16.95891 0 -74.7751
v -16.519888 0 -75.7488
v -16.808111 0 -75.76615
v -16.347147 0 -76.73853
v -16.860853 0 -76.76946
v -16.333595 0 -77.737854
v -16.754402 0 -77.76318
v -16.303318 0 -78.73616
v -16.66468 0 -78.75792
v -16.153866 0 -79.727295
v -16.694134 0 -79.75983
v -16.16834 0 -80.7283
v -16.55966 0 -80.75186
v -16.015955 0 -81.71926
v -16.592043 0 -81.753944
v -16.052156 0 -82.72157
v -16.435843 0 -82.744675
v -15.90768 0 -83.71301
v -16.460321 0 -83.74629
v -15.855702 0 -84.71002
v -16.392294 0 -84.742325
v -15.939971 0 -85.715225
v -16.188026 0 -85.73016
v -15.746919 0 -86.703735
v -16.26108 0 -86.734695
v -15.77675 0 -87.705666
v -16.11125 0 -87.72581
v -15.63446 0 -88.697235
v -16.13354 0 -88.72728
v -15.640261 0 -89.697716
v -16.007738 0 -89.71984
v -15.5206375 0 -90.69064
v -16.007362 0 -90.719955
v -15.423502 0 -91.68493
v -15.984497 0 -91.71871
v -15.375554 0 -92.682175
v -15.912446 0 -92.71451
v -15.361697 0 -93.68148
v -15.806302 0 -93.708244
v -15.263698 0 -94.7531
v -15.784303 0 -94.629684
v -15.864883 0 -95.55514
v -16.123688 0 -95.29629
v -16.68516 0 -96.18096
v -16.951029 0 -95.78951
v -17.532299 0 -96.70614
v -17.75151 0 -96.383385
v -18.372965 0 -97.267395
v -18.558462 0 -96.94118
v -19.293375 0 -97.69849
v -19.411043 0 -97.33612
v -20.290329 0 -97.9257
v -20.375137 0 -97.49543
v -21.287603 0 -98.03399
v -21.338911 0 -97.77366
v -22.247341 0 -98.3327
v -22.340221 0 -97.861465
v -23.219458 0 -98.568634
v -23.329157 0 -98.01204
v -24.204206 0 -98.74045
v -24.305456 0 -98.226746
v -25.207638 0 -98.81748
v -25.263073 0 -98.53623
v -26.173584 0 -99.08471
v -26.258175 0 -98.655525
v -27.160734 0 -99.24434
v -27.232073 0 -98.8824
v -28.14742 0 -99.406334
v -28.206434 0 -99.106926
v -29.132502 0 -99.57648
v -29.182402 0 -99.3233
v -30.115768 0 -99.75582
v -30.160183 0 -99.53048
v -31.086576 0 -99.998375
v -31.150427 0 -99.67443
v -32.05252 0 -100.26562
v -32.14553 0 -99.79371
v -33.040226 0 -100.42243
v -33.11887 0 -100.023415
v -34.01462 0 -100.64679
v -34.105526 0 -100.18558
v -35.010876 0 -100.76023
v -35.070316 0 -100.45864
v -35.969963 0 -101.06225
v -36.07228 0 -100.543144
v -36.978294 0 -101.11444
v -37.025 0 -100.87747
v -37.925957 0 -101.474434
v -38.038383 0 -100.904
v -38.938686 0 -101.50428
v -38.986706 0 -101.26066
v -39.904423 0 -101.77256
v -39.982014 0 -101.3789
v -40.891052 0 -101.93486
v -40.956436 0 -101.60312
v -41.87104 0 -102.13086
v -41.9375 0 -101.79364
v -42.85343 0 -102.314606
v -42.916153 0 -101.9964
v -43.81556 0 -102.60122
v -43.915077 0 -102.096306
v -44.90874 0 -102.72747
v -44.78294 0 -102.356575
v -45.281395 0 -101.92963
v -45.066994 0 -101.88002
v -45.483967 0 -100.92455
v -44.962124 0 -100.89889
v -45.455406 0 -99.92764
v -45.088387 0 -99.90959
v -45.51165 0 -98.934906
v -45.129845 0 -98.91612
v -45.55692 0 -97.94163
v -45.182278 0 -97.923195
v -45.65494 0 -96.95094
v -45.181957 0 -96.92767
v -45.751225 0 -95.960175
v -45.183376 0 -95.932236
v -45.635086 0 -94.958954
v -45.397217 0 -94.94725
v -45.841885 0 -93.97362
v -45.28812 0 -93.94638
v -45.757973 0 -92.97398
v -45.469727 0 -92.95981
v -45.947617 0 -91.98781
v -45.377785 0 -91.95978
v -45.909912 0 -90.99045
v -45.51319 0 -90.97093
v -45.89845 0 -89.99438
v -45.622356 0 -89.9808
v -45.98646 0 -89.003204
v -45.632046 0 -88.98576
v -46.12622 0 -88.01457
v -45.58999 0 -87.98819
v -46.157578 0 -87.02061
v -45.656334 0 -86.99595
v -46.178547 0 -86.01854
v -45.733067 0 -86.01181
v -46.081036 0 -85.01089
v -45.792812 0 -85.0395
v -45.95929 0 -84.00662
v -45.560715 0 -84.078384
v -45.697857 0 -83.03914
v -45.468304 0 -83.080475
v -45.547 0 -82.05176
v -45.26531 0 -82.10248
v -45.358612 0 -81.07113
v -45.099854 0 -81.117714
v -45.291622 0 -80.06865
v -44.813 0 -80.154816
v -45.031013 0 -79.10101
v -44.719757 0 -79.15706
v -44.84353 0 -78.12023
v -44.5534 0 -78.17246
v -44.682003 0 -77.13476
v -44.36108 0 -77.19254
v -44.49497 0 -76.15389
v -44.194263 0 -76.20803
v -44.417347 0 -75.15333
v -43.91804 0 -75.24322
v -44.244694 0 -74.16986
v -43.73685 0 -74.26129
v -44.066605 0 -73.18738
v -43.56109 0 -73.2784
v -43.889847 0 -72.20466
v -43.384003 0 -72.29572
v -43.656013 0 -71.23221
v -43.263992 0 -71.302795
v -43.39768 0 -70.264175
v -43.168476 0 -70.305435
v -43.382935 0 -69.25229
v -42.829376 0 -69.351944
v -43.14903 0 -68.27985
v -42.70944 0 -68.35899
v -43.026318 0 -67.2874
v -42.4783 0 -67.38606
v -42.71671 0 -66.32859
v -42.434063 0 -66.37948
v -42.628407 0 -65.32995
v -42.16852 0 -65.41274
v -42.456806 0 -64.3463
v -41.98627 0 -64.431015
v -42.304996 0 -63.35908
v -41.784237 0 -63.45284
v -42.07758 0 -62.38548
v -41.65781 0 -62.461056
v -41.902008 0 -61.402546
v -41.47953 0 -61.47861
v -41.64183 0 -60.434845
v -41.385864 0 -60.480927
v -41.453125 0 -59.454273
v -41.220726 0 -59.496113
v -41.443764 0 -58.44141
v -40.876236 0 -58.54359
v -41.144257 0 -57.48079
v -40.8219 0 -57.538826
v -41.01003 0 -56.49041
v -40.602283 0 -56.56382
v -40.77233 0 -55.518658
v -40.48613 0 -55.570187
v -40.622147 0 -54.632607
v -40.317856 0 -54.687393
v -40.66169 0 -54.508163
v -40.237396 0 -54.58455
v -40.543175 0 -54.480896
v -40.33896 0 -54.51767
vt 1.1822726 -0.5147862
vt 1.1830626 -0.5168625
vt 1.1818687 -0.51506996
vt 1.1825722 -0.5169189
vt 1.1802621 -0.5140949
vt 1.1820205 -0.5187154
vt 1.1723286 -0.51848227
vt 1.1731774 -0.52071244
vt 1.162767 -0.52139515
vt 1.1640981 -0.5248934
vt 1.1535927 -0.5253259
vt 1.1546317 -0.52805656
vt 1.1442491 -0.52881205
vt 1.1453345 -0.53166425
vt 1.1349341 -0.5323731
vt 1.1360087 -0.5351971
vt 1.125719 -0.53619653
vt 1.1265831 -0.53846747
vt 1.1162955 -0.5394727
vt 1.1173658 -0.54228514
vt 1.1069087 -0.5428449
vt 1.1081119 -0.54600674
vt 1.0974194 -0.54594815
vt 1.0989604 -0.5499974
vt 1.0882916 -0.55000114
vt 1.0894474 -0.55303824
vt 1.0786527 -0.5527111
vt 1.0804455 -0.5574221
vt 1.069395 -0.5564226
vt 1.0710626 -0.5608046
vt 1.0604827 -0.56104237
vt 1.0613338 -0.5632786
vt 1.0507728 -0.5635655
vt 1.0524031 -0.56784934
vt 1.0413146 -0.5667502
vt 1.0432205 -0.5717584
vt 1.0325172 -0.5716714
vt 1.0333772 -0.5739311
vt 1.0228456 -0.57429546
vt 1.024408 -0.57840085
vt 1.0138544 -0.5787075
vt 1.0147583 -0.5810827
vt 1.0044585 -0.58205616
vt 1.0055134 -0.5848279
vt 0.99500316 -0.58524823
vt 0.9963281 -0.58872974
vt 0.9855647 -0.5884849
vt 0.9871257 -0.5925869
vt 0.9764773 -0.59264416
vt 0.9775723 -0.5955215
vt 0.9669978 -0.59577304
vt 0.9684111 -0.5994865
vt 0.9577629 -0.5995445
vt 0.9590052 -0.60280883
vt 0.94845265 -0.6031181
vt 0.94967467 -0.6063291
vt 0.93900687 -0.60633546
vt 0.9404797 -0.6102056
vt 0.92957675 -0.60959417
vt 0.931269 -0.61404073
vt 0.92039794 -0.61351293
vt 0.92180705 -0.6172158
vt 0.91101116 -0.6168856
vt 0.912553 -0.62093693
vt 0.90151936 -0.61998206
vt 0.90340406 -0.62493443
vt 0.8911804 -0.6254662
vt 0.8951022 -0.6265441
vt 0.8974627 -0.6352989
vt 0.9012247 -0.63230664
vt 0.90339476 -0.6433116
vt 0.90769744 -0.6398892
vt 0.9108001 -0.65015244
vt 0.91269684 -0.6486436
vt 0.91571754 -0.6589721
vt 0.92018414 -0.65541923
vt 0.92222756 -0.66652495
vt 0.9260789 -0.66346145
vt 0.9286992 -0.6741083
vt 0.932012 -0.6714733
vt 0.93484724 -0.6819492
vt 0.9382687 -0.67922765
vt 0.94157 -0.6889725
vt 0.9439508 -0.6877997
vt 0.94235855 -0.69768554
vt 0.9474041 -0.697283
vt 0.9430778 -0.707377
vt 0.9454848 -0.707522
vt 0.9413322 -0.71727324
vt 0.9460304 -0.7175561
vt 0.9416402 -0.72729313
vt 0.94452244 -0.72746664
vt 0.9399128 -0.7371905
vt 0.9450499 -0.7374998
vt 0.93977726 -0.7471837
vt 0.94398534 -0.74743694
vt 0.93947446 -0.75716674
vt 0.9430881 -0.7573843
vt 0.93798 -0.7670781
vt 0.9433827 -0.7674034
vt 0.9381248 -0.77708817
vt 0.94203794 -0.7773237
vt 0.93660086 -0.78699774
vt 0.9423617 -0.7873446
vt 0.93696284 -0.79702085
vt 0.9407998 -0.7972519
vt 0.9355181 -0.80693525
vt 0.9410445 -0.807268
vt 0.9349984 -0.8169053
vt 0.9403643 -0.8172284
vt 0.935841 -0.8269574
vt 0.9383216 -0.8271068
vt 0.9339105 -0.8368425
vt 0.9390521 -0.83715206
vt 0.9342088 -0.8468618
vt 0.9375538 -0.8470632
vt 0.9327859 -0.8567775
vt 0.9377767 -0.8570779
vt 0.9328439 -0.8667823
vt 0.93651867 -0.86700356
vt 0.9316477 -0.87671155
vt 0.936515 -0.8770047
vt 0.93067634 -0.88665444
vt 0.9362863 -0.8869922
vt 0.9301969 -0.8966269
vt 0.93556577 -0.8969502
vt 0.93005824 -0.9066199
vt 0.9345044 -0.9068876
vt 0.9290783 -0.9173361
vt 0.9342843 -0.916102
vt 0.9350902 -0.9253565
vt 0.9376782 -0.922768
vt 0.9432929 -0.93161476
vt 0.9459516 -0.9277002
vt 0.95176435 -0.9368665
vt 0.9539564 -0.933639
vt 0.9601709 -0.9424791
vt 0.96202594 -0.9392169
vt 0.9693751 -0.94679
vt 0.9705517 -0.9431663
vt 0.9793446 -0.9490621
vt 0.9801927 -0.9447594
vt 0.98931736 -0.950145
vt 0.98983043 -0.9475417
vt 0.9989148 -0.95313215
vt 0.9998436 -0.94841975
vt 1.0086359 -0.9554915
vt 1.0097328 -0.94992554
vt 1.0184834 -0.9572096
vt 1.0194958 -0.95207256
vt 1.0285177 -0.9579799
vt 1.029072 -0.9551675
vt 1.0381771 -0.96065223
vt 1.0390232 -0.9563604
vt 1.0480487 -0.9622485
vt 1.0487621 -0.95862913
vt 1.0579156 -0.96386844
vt 1.0585057 -0.9608744
vt 1.0677663 -0.9655699
vt 1.0682653 -0.96303815
vt 1.077599 -0.96736336
vt 1.0780432 -0.96510994
vt 1.0873071 -0.96978885
vt 1.0879456 -0.96654946
vt 1.0969665 -0.9724613
vt 1.0978966 -0.9677422
vt 1.1068436 -0.9740294
vt 1.10763 -0.97003925
vt 1.1165875 -0.976273
vt 1.1174966 -0.9716609
vt 1.1265501 -0.97740746
vt 1.1271445 -0.9743915
vt 1.136141 -0.9804276
vt 1.1371641 -0.9752366
vt 1.1462243 -0.9809495
vt 1.1466913 -0.9785798
vt 1.1557009 -0.98454946
vt 1.1568252 -0.9788451
vt 1.1658282 -0.9848479
vt 1.1663084 -0.9824117
vt 1.1754855 -0.9875307
vt 1.1762614 -0.9835941
vt 1.1853518 -0.98915374
vt 1.1860057 -0.9858363
vt 1.1951517 -0.9911137
vt 1.1958163 -0.98774153
vt 1.2049756 -0.99295115
vt 1.2056029 -0.9897691
vt 1.2145969 -0.9958173
vt 1.2155921 -0.9907682
vt 1.2255287 -0.99707985
vt 1.2242707 -0.9933709
vt 1.2292553 -0.9891014
vt 1.2271112 -0.9886053
vt 1.2312809 -0.97905064
vt 1.2260625 -0.978794
vt 1.2309954 -0.9690816
vt 1.2273252 -0.96890104
vt 1.2315578 -0.9591542
vt 1.2277398 -0.9589664
vt 1.2320105 -0.9492214
vt 1.2282641 -0.9490371
vt 1.2329907 -0.93931454
vt 1.2282609 -0.93908185
vt 1.2339535 -0.9294069
vt 1.2282751 -0.92912745
vt 1.2327921 -0.9193947
vt 1.2304134 -0.9192776
vt 1.2348602 -0.9095413
vt 1.2293224 -0.9092689
vt 1.2340211 -0.89954495
vt 1.2311386 -0.8994032
vt 1.2359174 -0.8896832
vt 1.2302191 -0.8894029
vt 1.2355404 -0.8797096
vt 1.2315732 -0.87951446
vt 1.2354258 -0.8697489
vt 1.232665 -0.8696131
vt 1.236306 -0.8598372
vt 1.2327619 -0.8596628
vt 1.2377036 -0.84995085
vt 1.2323412 -0.84968704
vt 1.2380171 -0.8400112
vt 1.2330047 -0.8397646
vt 1.2382268 -0.8299905
vt 1.2337719 -0.8299232
vt 1.2372518 -0.819914
vt 1.2343695 -0.8202001
vt 1.2360342 -0.8098714
vt 1.2320485 -0.81058896
vt 1.2334199 -0.8001965
vt 1.2311244 -0.8006099
vt 1.2319113 -0.7903227
vt 1.2290944 -0.7908299
vt 1.2300274 -0.78051645
vt 1.2274399 -0.78098226
vt 1.2293576 -0.7704916
vt 1.2245713 -0.7713533
vt 1.2267514 -0.76081526
vt 1.2236389 -0.7613757
vt 1.2248766 -0.75100744
vt 1.2219753 -0.75152975
vt 1.2232614 -0.7411527
vt 1.2200521 -0.7417306
vt 1.221391 -0.73134404
vt 1.2183839 -0.73188543
vt 1.2206148 -0.7213384
vt 1.2156217 -0.7222373
vt 1.2188882 -0.71150374
vt 1.2138097 -0.712418
vt 1.2171074 -0.70167893
vt 1.2120522 -0.7025891
vt 1.2153398 -0.69185174
vt 1.2102814 -0.6927624
vt 1.2130015 -0.68212724
vt 1.2090813 -0.6828331
vt 1.2104181 -0.6724469
vt 1.2081261 -0.6728595
vt 1.2102706 -0.662328
vt 1.204735 -0.6633246
vt 1.2079316 -0.65260357
vt 1.2035358 -0.65339506
vt 1.2067045 -0.6426791
vt 1.2012243 -0.64366573
vt 1.2036084 -0.63309103
vt 1.200782 -0.63359994
vt 1.2027253 -0.62310463
vt 1.1981266 -0.62393254
vt 1.2010094 -0.61326814
vt 1.196304 -0.6141153
vt 1.1994913 -0.60339594
vt 1.1942837 -0.6043335
vt 1.1972171 -0.59365994
vt 1.1930194 -0.59441566
vt 1.1954614 -0.5838306
vt 1.1912366 -0.58459127
vt 1.1928596 -0.5741536
vt 1.1903 -0.5746144
vt 1.1909726 -0.56434786
vt 1.1886486 -0.5647663
vt 1.190879 -0.55421925
vt 1.1852037 -0.55524105
vt 1.1878839 -0.544613
vt 1.1846603 -0.5451934
vt 1.1865416 -0.5347092
vt 1.1824641 -0.5354433
vt 1.1841646 -0.5249917
vt 1.1813027 -0.525507
vt 1.1826627 -0.5161312
vt 1.1796199 -0.51667905
vt 1.1830583 -0.5148868
vt 1.1788152 -0.51565063
vt 1.1818731 -0.5146141
vt 1.1798309 -0.5149818
vn -0 1 0
vn -0 1 0
vn -0 1 0
vn -0 1 0
vn -0 1 0
vn -0 1 0
vn -0 1 0
vn -0 1 0
vn -0 1 0
vn -0 1 0
vn -0 1 0
vn -0 1 0
vn -0 1 0
vn -0 1 0
vn -0 1 0
vn -0 1 0
vn -0 1 0
vn -0 1 0
vn -0 1 0
vn -0 1 0
vn -0 1 0
vn -0 1 0
vn -0 1 0
vn -0 1 0
vn -0 1 0
vn -0 1 0
vn -0 1 0
vn -0 1 0
vn -0 1 0
vn -0 1 0
vn -0 1 0
vn -0 1 0
vn -0 1 0
vn -0 1 0
vn -0 1 0
vn -0 1 0
vn -0 1 0
vn -0 1 0
vn -0 1 0
vn -0 1 0
vn -0 1 0
vn -0 1 0
vn -0 1 0
vn -0 1 0
vn -0 1 0
vn -0 1 0
vn -0 1 0
vn -0 1 0
vn -0 1 0
vn -0 1 0
vn -0 1 0
vn -0 1 0
vn -0 1 0
vn -0 1 0
vn -0 1 0
vn -0 1 0
vn -0 1 0
vn -0 1 0
vn -0 1 0
vn -0 1 0
vn -0 1 0
vn -0 1 0
vn -0 1 0
vn -0 1 0
vn -0 1 0
vn -0 1 0
vn -0 1 0
vn -0 1 0
vn -0 1 0
vn -0 1 0
vn -0 1 0
vn -0 1 0
vn -0 1 0
vn -0 1 0
vn -0 1 0
vn -0 1 0
vn -0 1 0
vn -0 1 0
vn -0 1 0
vn -0 1 0
vn -0 1 0
vn -0 1 0
vn -0 1 0
vn -0 1 0
vn -0 1 0
vn -0 1 0
vn -0 1 0
vn -0 1 0
vn -0 1 0
vn -0 1 0
vn -0 1 0
vn -0 1 0
vn -0 1 0
vn -0 1 0
vn -0 1 0
vn -0 1 0
vn -0 1 0
vn -0 1 0
vn -0 1 0
vn -0 1 0
vn -0 1 0
vn -0 1 0
vn -0 1 0
vn -0 1 0
vn -0 1 0
vn -0 1 0
vn -0 1 0
vn -0 1 0
vn -0 1 0
vn -0 1 0
vn -0 1 0
vn -0 1 0
vn -0 1 0
vn -0 1 0
vn -0 1 0
vn -0 1 0
vn -0 1 0
vn -0 1 0
vn -0 1 0
vn -0 1 0
vn -0 1 0
vn -0 1 0
vn -0 1 0
vn -0 1 0
vn -0 1 0
vn -0 1 0
vn -0 1 0
vn -0 1 0
vn -0 1 0
vn -0 1 0
vn -0 1 0
vn -0 1 0
vn -0 1 0
vn -0 1 0
vn -0 1 0
vn -0 1 0
vn -0 1 0
vn -0 1 0
vn -0 1 0
vn -0 1 0
vn -0 1 0
vn -0 1 0
vn -0 1 0
vn -0 1 0
vn -0 1 0
vn -0 1 0
vn -0 1 0
vn -0 1 0
vn -0 1 0
vn -0 1 0
vn -0 1 0
vn -0 1 0
vn -0 1 0
vn -0 1 0
vn -0 1 0
vn -0 1 0
vn -0 1 0
vn -0 1 0
vn -0 1 0
vn -0 1 0
vn -0 1 0
vn -0 1 0
vn -0 1 0
vn -0 1 0
vn -0 1 0
vn -0 1 0
vn -0 1 0
vn -0 1 0
vn -0 1 0
vn -0 1 0
vn -0 1 0
vn -0 1 0
vn -0 1 0
vn -0 1 0
vn -0 1 0
vn -0 1 0
vn -0 1 0
vn -0 1 0
vn -0 1 0
vn -0 1 0
vn -0 1 0
vn -0 1 0
vn -0 1 0
vn -0 1 0
vn -0 1 0
vn -0 1 0
vn -0 1 0
vn -0 1 0
vn -0 1 0
vn -0 1 0
vn -0 1 0
vn -0 1 0
vn -0 1 0
vn -0 1 0
vn -0 1 0
vn -0 1 0
vn -0 1 0
vn -0 1 0
vn -0 1 0
vn -0 1 0
vn -0 1 0
vn -0 1 0
vn -0 1 0
vn -0 1 0
vn -0 1 0
vn -0 1 0
vn -0 1 0
vn -0 1 0
vn -0 1 0
vn -0 1 0
vn -0 1 0
vn -0 1 0
vn -0 1 0
vn -0 1 0
vn -0 1 0
vn -0 1 0
vn -0 1 0
vn -0 1 0
vn -0 1 0
vn -0 1 0
vn -0 1 0
vn -0 1 0
vn -0 1 0
vn -0 1 0
vn -0 1 0
vn -0 1 0
vn -0 1 0
vn -0 1 0
vn -0 1 0
vn -0 1 0
vn -0 1 0
vn -0 1 0
vn -0 1 0
vn -0 1 0
vn -0 1 0
vn -0 1 0
vn -0 1 0
vn -0 1 0
vn -0 1 0
vn -0 1 0
vn -0 1 0
vn -0 1 0
vn -0 1 0
vn -0 1 0
vn -0 1 0
vn -0 1 0
vn -0 1 0
vn -0 1 0
vn -0 1 0
vn -0 1 0
vn -0 1 0
vn -0 1 0
vn -0 1 0
vn -0 1 0
vn -0 1 0
vn -0 1 0
vn -0 1 0
vn -0 1 0
vn -0 1 0
vn -0 1 0
vn -0 1 0
vn -0 1 0
vn -0 1 0
vn -0 1 0
vn -0 1 0
vn -0 1 0
vn -0 1 0
vn -0 1 0
vn -0 1 0
vn -0 1 0
vn -0 1 0
vn -0 1 0
vn -0 1 0
vn -0 1 0
vn -0 1 0
vn -0 1 0
vn -0 1 0
vn -0 1 0
vn -0 1 0
vn -0 1 0
vn -0 1 0
vn -0 1 0
vn -0 1 0
vn -0 1 0
vn -0 1 0
vn -0 1 0
vn -0 1 0
vn -0 1 0
vn -0 1 0
vn -0 1 0
vn -0 1 0
vn -0 1 0
vn -0 1 0
vn -0 1 0
g _0
f 3/3/3 2/2/2 1/1/1
f 2/2/2 3/3/3 4/4/4
f 5/5/5 4/4/4 3/3/3
f 4/4/4 5/5/5 6/6/6
f 7/7/7 6/6/6 5/5/5
f 6/6/6 7/7/7 8/8/8
f 9/9/9 8/8/8 7/7/7
f 8/8/8 9/9/9 10/10/10
f 11/11/11 10/10/10 9/9/9
f 10/10/10 11/11/11 12/12/12
f 13/13/13 12/12/12 11/11/11
f 12/12/12 13/13/13 14/14/14
f 15/15/15 14/14/14 13/13/13
f 14/14/14 15/15/15 16/16/16
f 17/17/17 16/16/16 15/15/15
f 16/16/16 17/17/17 18/18/18
f 19/19/19 18/18/18 17/17/17
f 18/18/18 19/19/19 20/20/20
f 21/21/21 20/20/20 19/19/19
f 20/20/20 21/21/21 22/22/22
f 23/23/23 22/22/22 21/21/21
f 22/22/22 23/23/23 24/24/24
f 25/25/25 24/24/24 23/23/23
f 24/24/24 25/25/25 26/26/26
f 27/27/27 26/26/26 25/25/25
f 26/26/26 27/27/27 28/28/28
f 29/29/29 28/28/28 27/27/27
f 28/28/28 29/29/29 30/30/30
f 31/31/31 30/30/30 29/29/29
f 30/30/30 31/31/31 32/32/32
f 33/33/33 32/32/32 31/31/31
f 32/32/32 33/33/33 34/34/34
f 35/35/35 34/34/34 33/33/33
f 34/34/34 35/35/35 36/36/36
f 37/37/37 36/36/36 35/35/35
f 36/36/36 37/37/37 38/38/38
f 39/39/39 38/38/38 37/37/37
f 38/38/38 39/39/39 40/40/40
f 41/41/41 40/40/40 39/39/39
f 40/40/40 41/41/41 42/42/42
f 43/43/43 42/42/42 41/41/41
f 42/42/42 43/43/43 44/44/44
f 45/45/45 44/44/44 43/43/43
f 44/44/44 45/45/45 46/46/46
f 47/47/47 46/46/46 45/45/45
f 46/46/46 47/47/47 48/48/48
f 49/49/49 48/48/48 47/47/47
f 48/48/48 49/49/49 50/50/50
f 51/51/51 50/50/50 49/49/49
f 50/50/50 51/51/51 52/52/52
f 53/53/53 52/52/52 51/51/51
f 52/52/52 53/53/53 54/54/54
f 55/55/55 54/54/54 53/53/53
f 54/54/54 55/55/55 56/56/56
f 57/57/57 56/56/56 55/55/55
f 56/56/56 57/57/57 58/58/58
f 59/59/59 58/58/58 57/57/57
f 58/58/58 59/59/59 60/60/60
f 61/61/61 60/60/60 59/59/59
f 60/60/60 61/61/61 62/62/62
f 63/63/63 62/62/62 61/61/61
f 62/62/62 63/63/63 64/64/64
f 65/65/65 64/64/64 63/63/63
f 64/64/64 65/65/65 66/66/66
f 67/67/67 66/66/66 65/65/65
f 66/66/66 67/67/67 68/68/68
f 69/69/69 68/68/68 67/67/67
f 68/68/68 69/69/69 70/70/70
f 71/71/71 70/70/70 69/69/69
f 70/70/70 71/71/71 72/72/72
f 73/73/73 72/72/72 71/71/71
f 72/72/72 73/73/73 74/74/74
f 75/75/75 74/74/74 73/73/73
f 74/74/74 75/75/75 76/76/76
f 77/77/77 76/76/76 75/75/75
f 76/76/76 77/77/77 78/78/78
f 79/79/79 78/78/78 77/77/77
f 78/78/78 79/79/79 80/80/80
f 81/81/81 80/80/80 79/79/79
f 80/80/80 81/81/81 82/82/82
f 83/83/83 82/82/82 81/81/81
f 82/82/82 83/83/83 84/84/84
f 85/85/85 84/84/84 83/83/83
f 84/84/84 85/85/85 86/86/86
f 87/87/87 86/86/86 85/85/85
f 86/86/86 87/87/87 88/88/88
f 89/89/89 88/88/88 87/87/87
f 88/88/88 89/89/89 90/90/90
f 91/91/91 90/90/90 89/89/89
f 90/90/90 91/91/91 92/92/92
f 93/93/93 92/92/92 91/91/91
f 92/92/92 93/93/93 94/94/94
f 95/95/95 94/94/94 93/93/93
f 94/94/94 95/95/95 96/96/96
f 97/97/97 96/96/96 95/95/95
f 96/96/96 97/97/97 98/98/98
f 99/99/99 98/98/98 97/97/97
f 98/98/98 99/99/99 100/100/100
f 101/101/101 100/100/100 99/99/99
f 100/100/100 101/101/101 102/102/102
f 103/103/103 102/102/102 101/101/101
f 102/102/102 103/103/103 104/104/104
f 105/105/105 104/104/104 103/103/103
f 104/104/104 105/105/105 106/106/106
f 107/107/107 106/106/106 105/105/105
f 106/106/106 107/107/107 108/108/108
f 109/109/109 108/108/108 107/107/107
f 108/108/108 109/109/109 110/110/110
f 111/111/111 110/110/110 109/109/109
f 110/110/110 111/111/111 112/112/112
f 113/113/113 112/112/112 111/111/111
f 112/112/112 113/113/113 114/114/114
f 115/115/115 114/114/114 113/113/113
f 114/114/114 115/115/115 116/116/116
f 117/117/117 116/116/116 115/115/115
f 116/116/116 117/117/117 118/118/118
f 119/119/119 118/118/118 117/117/117
f 118/118/118 119/119/119 120/120/120
f 121/121/121 120/120/120 119/119/119
f 120/120/120 121/121/121 122/122/122
f 123/123/123 122/122/122 121/121/121
f 122/122/122 123/123/123 124/124/124
f 125/125/125 124/124/124 123/123/123
f 124/124/124 125/125/125 126/126/126
f 127/127/127 126/126/126 125/125/125
f 126/126/126 127/127/127 128/128/128
f 129/129/129 128/128/128 127/127/127
f 128/128/128 129/129/129 130/130/130
f 131/131/131 130/130/130 129/129/129
f 130/130/130 131/131/131 132/132/132
f 133/133/133 132/132/132 131/131/131
f 132/132/132 133/133/133 134/134/134
f 135/135/135 134/134/134 133/133/133
f 134/134/134 135/135/135 136/136/136
f 137/137/137 136/136/136 135/135/135
f 136/136/136 137/137/137 138/138/138
f 139/139/139 138/138/138 137/137/137
f 138/138/138 139/139/139 140/140/140
f 141/141/141 140/140/140 139/139/139
f 140/140/140 141/141/141 142/142/142
f 143/143/143 142/142/142 141/141/141
f 142/142/142 143/143/143 144/144/144
f 145/145/145 144/144/144 143/143/143
f 144/144/144 145/145/145 146/146/146
f 147/147/147 146/146/146 145/145/145
f 146/146/146 147/147/147 148/148/148
f 149/149/149 148/148/148 147/147/147
f 148/148/148 149/149/149 150/150/150
f 151/151/151 150/150/150 149/149/149
f 150/150/150 151/151/151 152/152/152
f 153/153/153 152/152/152 151/151/151
f 152/152/152 153/153/153 154/154/154
f 155/155/155 154/154/154 153/153/153
f 154/154/154 155/155/155 156/156/156
f 157/157/157 156/156/156 155/155/155
f 156/156/156 157/157/157 158/158/158
f 159/159/159 158/158/158 157/157/157
f 158/158/158 159/159/159 160/160/160
f 161/161/161 160/160/160 159/159/159
f 160/160/160 161/161/161 162/162/162
f 163/163/163 162/162/162 161/161/161
f 162/162/162 163/163/163 164/164/164
f 165/165/165 164/164/164 163/163/163
f 164/164/164 165/165/165 166/166/166
f 167/167/167 166/166/166 165/165/165
f 166/166/166 167/167/167 168/168/168
f 169/169/169 168/168/168 167/167/167
f 168/168/168 169/169/169 170/170/170
f 171/171/171 170/170/170 169/169/169
f 170/170/170 171/171/171 172/172/172
f 173/173/173 172/172/172 171/171/171
f 172/172/172 173/173/173 174/174/174
f 175/175/175 174/174/174 173/173/173
f 174/174/174 175/175/175 176/176/176
f 177/177/177 176/176/176 175/175/175
f 176/176/176 177/177/177 178/178/178
f 179/179/179 178/178/178 177/177/177
f 178/178/178 179/179/179 180/180/180
f 181/181/181 180/180/180 179/179/179
f 180/180/180 181/181/181 182/182/182
f 183/183/183 182/182/182 181/181/181
f 182/182/182 183/183/183 184/184/184
f 185/185/185 184/184/184 183/183/183
f 184/184/184 185/185/185 186/186/186
f 187/187/187 186/186/186 185/185/185
f 186/186/186 187/187/187 188/188/188
f 189/189/189 188/188/188 187/187/187
f 188/188/188 189/189/189 190/190/190
f 191/191/191 190/190/190 189/189/189
f 190/190/190 191/191/191 192/192/192
f 193/193/193 192/192/192 191/191/191
f 192/192/192 193/193/193 194/194/194
f 195/195/195 194/194/194 193/193/193
f 194/194/194 195/195/195 196/196/196
f 197/197/197 196/196/196 195/195/195
f 196/196/196 197/197/197 198/198/198
f 199/199/199 198/198/198 197/197/197
f 198/198/198 199/199/199 200/200/200
f 201/201/201 200/200/200 199/199/199
f 200/200/200 201/201/201 202/202/202
f 203/203/203 202/202/202 201/201/201
f 202/202/202 203/203/203 204/204/204
f 205/205/205 204/204/204 203/203/203
f 204/204/204 205/205/205 206/206/206
f 207/207/207 206/206/206 205/205/205
f 206/206/206 207/207/207 208/208/208
f 209/209/209 208/208/208 207/207/207
f 208/208/208 209/209/209 210/210/210
f 211/211/211 210/210/210 209/209/209
f 210/210/210 211/211/211 212/212/212
f 213/213/213 212/212/212 211/211/211
f 212/212/212 213/213/213 214/214/214
f 215/215/215 214/214/214 213/213/213
f 214/214/214 215/215/215 216/216/216
f 217/217/217 216/216/216 215/215/215
f 216/216/216 217/217/217 218/218/218
f 219/219/219 218/218/218 217/217/217
f 218/218/218 219/219/219 220/220/220
f 221/221/221 220/220/220 219/219/219
f 220/220/220 221/221/221 222/222/222
f 223/223/223 222/222/222 221/221/221
f 222/222/222 223/223/223 224/224/224
f 225/225/225 224/224/224 223/223/223
f 224/224/224 225/225/225 226/226/226
f 227/227/227 226/226/226 225/225/225
f 226/226/226 227/227/227 228/228/228
f 229/229/229 228/228/228 227/227/227
f 228/228/228 229/229/229 230/230/230
f 231/231/231 230/230/230 229/229/229
f 230/230/230 231/231/231 232/232/232
f 233/233/233 232/232/232 231/231/231
f 232/232/232 233/233/233 234/234/234
f 235/235/235 234/234/234 233/233/233
f 234/234/234 235/235/235 236/236/236
f 237/237/237 236/236/236 235/235/235
f 236/236/236 237/237/237 238/238/238
f 239/239/239 238/238/238 237/237/237
f 238/238/238 239/239/239 240/240/240
f 241/241/241 240/240/240 239/239/239
f 240/240/240 241/241/241 242/242/242
f 243/243/243 242/242/242 241/241/241
f 242/242/242 243/243/243 244/244/244
f 245/245/245 244/244/244 243/243/243
f 244/244/244 245/245/245 246/246/246
f 247/247/247 246/246/246 245/245/245
f 246/246/246 247/247/247 248/248/248
f 249/249/249 248/248/248 247/247/247
f 248/248/248 249/249/249 250/250/250
f 251/251/251 250/250/250 249/249/249
f 250/250/250 251/251/251 252/252/252
f 253/253/253 252/252/252 251/251/251
f 252/252/252 253/253/253 254/254/254
f 255/255/255 254/254/254 253/253/253
f 254/254/254 255/255/255 256/256/256
f 257/257/257 256/256/256 255/255/255
f 256/256/256 257/257/257 258/258/258
f 259/259/259 258/258/258 257/257/257
f 258/258/258 259/259/259 260/260/260
f 261/261/261 260/260/260 259/259/259
f 260/260/260 261/261/261 262/262/262
f 263/263/263 262/262/262 261/261/261
f 262/262/262 263/263/263 264/264/264
f 265/265/265 264/264/264 263/263/263
f 264/264/264 265/265/265 266/266/266
f 267/267/267 266/266/266 265/265/265
f 266/266/266 267/267/267 268/268/268
f 269/269/269 268/268/268 267/267/267
f 268/268/268 269/269/269 270/270/270
f 271/271/271 270/270/270 269/269/269
f 270/270/270 271/271/271 272/272/272
f 273/273/273 272/272/272 271/271/271
f 272/272/272 273/273/273 274/274/274
f 275/275/275 274/274/274 273/273/273
f 274/274/274 275/275/275 276/276/276
f 277/277/277 276/276/276 275/275/275
f 276/276/276 277/277/277 278/278/278
f 279/279/279 278/278/278 277/277/277
f 278/278/278 279/279/279 280/280/280
f 281/281/281 280/280/280 279/279/279
f 280/280/280 281/281/281 282/282/282
f 283/283/283 282/282/282 281/281/281
f 282/282/282 283/283/283 284/284/284
f 285/285/285 284/284/284 283/283/283
f 284/284/284 285/285/285 286/286/286
f 287/287/287 286/286/286 285/285/285
f 286/286/286 287/287/287 288/288/288
f 289/289/289 288/288/288 287/287/287
f 288/288/288 289/289/289 290/290/290
f 291/291/291 290/290/290 289/289/289
f 290/290/290 291/291/291 292/292/292
f 293/293/293 292/292/292 291/291/291
f 292/292/292 293/293/293 294/294/294
