g 
v 26.956253 25.946335 -70.46291
v 26.956253 11.946335 -70.46291
v 24.759663 25.416775 -72.39
v 24.759663 11.416775 -72.39
v 21.93597 25.34976 -72.69831
v 21.93597 11.34976 -72.69831
v 17.293095 24.42762 -76.14432
v 17.293095 10.42762 -76.14432
v 14.387011 24.199999 -80.32767
v 14.387011 10.199999 -80.32767
v 11.197569 24.199999 -80.87013
v 11.197569 10.199999 -80.87013
v 6.1903234 24.199999 -79.976295
v 6.1903234 10.199999 -79.976295
v 2.8868341 24.503853 -76.24621
v 2.8868341 10.503853 -76.24621
v 0.9172144 24.547173 -76.14134
v 0.9172144 10.547173 -76.14134
v 1.1184554 26.264774 -69.99507
v 1.1184554 12.264774 -69.99507
v -2.2090168 27.718987 -65.00194
v -2.2090168 13.7189865 -65.00194
v -0.9004241 31.227295 -57.31699
v -0.9004241 17.227295 -57.31699
v 0.44799805 32.02148 -55.05965
v 0.44799805 18.02148 -55.05965
v 1.7020621 35.30658 -56.902256
v 1.7020621 21.306578 -56.902256
v 1.9843321 35.30658 -62.340458
v 1.9843321 21.306578 -62.340458
v 1.6625249 35.30658 -66.089645
v 1.6625249 21.306578 -66.089645
v 5.568529 35.30658 -67.22706
v 5.568529 21.306578 -67.22706
v 5.1522775 35.30658 -70.22611
v 5.1522775 21.306578 -70.22611
v 13.995249 35.30658 -71.98845
v 13.995249 21.306578 -71.98845
v 16.945215 35.30658 -72.36541
v 16.945215 21.306578 -72.36541
v 18.844505 35.288017 -71.72429
v 18.844505 21.288017 -71.72429
v 18.892376 35.30658 -67.37841
v 18.892376 21.306578 -67.37841
v 18.892376 35.30658 -67.37841
v 18.892376 21.306578 -67.37841
v 21.595562 35.30658 -66.32352
v 21.595562 21.306578 -66.32352
v 25.069649 29.4053 -65.76103
v 25.069649 15.4053 -65.76103
v 27.718836 26.686085 -67.827156
v 27.718836 12.686085 -67.827156
v 26.956253 25.946335 -70.46291
v 26.956253 11.946335 -70.46291
vt -0.29056254 -0.81762916
vt -0.29056254 -0.81762916
vt -0.26859662 -0.8369
vt -0.26859662 -0.8369
vt -0.24035971 -0.8399831
vt -0.24035971 -0.8399831
vt -0.19393094 -0.8744432
vt -0.19393094 -0.8744432
vt -0.16487011 -0.9162767
vt -0.16487011 -0.9162767
vt -0.13297568 -0.9217013
vt -0.13297568 -0.9217013
vt -0.08290323 -0.91276294
vt -0.08290323 -0.91276294
vt -0.049868338 -0.8754621
vt -0.049868338 -0.8754621
vt -0.030172143 -0.87441343
vt -0.030172143 -0.87441343
vt -0.032184552 -0.81295073
vt -0.032184552 -0.81295073
vt 0.001090169 -0.7630194
vt 0.001090169 -0.7630194
vt -0.011995758 -0.68616986
vt -0.011995758 -0.68616986
vt -0.02547998 -0.6635965
vt -0.02547998 -0.6635965
vt -0.03802062 -0.6820225
vt -0.03802062 -0.6820225
vt -0.04084332 -0.73640454
vt -0.04084332 -0.73640454
vt -0.037625246 -0.77389646
vt -0.037625246 -0.77389646
vt -0.07668529 -0.7852706
vt -0.07668529 -0.7852706
vt -0.072522774 -0.8152611
vt -0.072522774 -0.8152611
vt -0.1609525 -0.8328845
vt -0.1609525 -0.8328845
vt -0.19045216 -0.8366541
vt -0.19045216 -0.8366541
vt -0.20944506 -0.8302429
vt -0.20944506 -0.8302429
vt -0.20992376 -0.7867841
vt -0.20992376 -0.7867841
vt -0.20992376 -0.7867841
vt -0.20992376 -0.7867841
vt -0.23695561 -0.77623516
vt -0.23695561 -0.77623516
vt -0.27169648 -0.77061033
vt -0.27169648 -0.77061033
vt -0.29818836 -0.79127157
vt -0.29818836 -0.79127157
vt -0.29056254 -0.81762916
vt -0.29056254 -0.81762916
vn 0.6594866 0 -0.7517164
vn 0.6594866 -0 -0.7517164
vn 0.10854225 0 -0.99409187
vn 0.10854225 -0 -0.99409187
vn 0.5959911 0 -0.80299103
vn 0.5959911 -0 -0.80299103
vn 0.82127976 0 -0.5705256
vn 0.82127976 -0 -0.5705256
vn 0.16767363 0 -0.9858425
vn 0.16767363 -0 -0.9858425
vn -0.1757308 0 -0.98443824
vn -0.1757308 0 -0.98443824
vn -0.7486183 0 -0.66300124
vn -0.7486183 0 -0.66300124
vn -0.05316646 0 -0.9985857
vn -0.05316646 0 -0.9985857
vn -0.9994644 -0 0.032724433
vn -0.9994644 0 0.032724433
vn -0.832149 0 -0.5545521
vn -0.832149 0 -0.5545521
vn -0.9858102 -0 0.16786373
vn -0.9858102 0 0.16786373
vn -0.8584949 -0 0.5128221
vn -0.8584949 0 0.5128221
vn 0.8266986 0 0.5626451
vn 0.82669854 0 0.5626451
vn 0.9986556 0 0.051835235
vn 0.9986556 0 0.051835235
vn 0.9963365 0 -0.08551939
vn 0.9963365 -0 -0.08551939
vn 0.27958354 0 0.9601214
vn 0.27958354 0 0.9601214
vn 0.99050504 0 -0.13747649
vn 0.99050504 -0 -0.13747649
vn 0.1954488 0 0.9807139
vn 0.1954488 0 0.9807139
vn 0.12675409 0 0.9919342
vn 0.12675409 0 0.9919342
vn -0.31982812 -0 0.94747555
vn -0.31982815 0 0.9474756
vn -0.9999393 -0 0.011014512
vn -0.9999393 0 0.011014513
vn -0 0 0
vn -0 0 0
vn -0.36354 -0 0.9315786
vn -0.36354 0 0.9315786
vn -0.15982732 -0 0.987145
vn -0.15982732 0 0.987145
vn 0.614987 0 0.7885372
vn 0.614987 0 0.7885372
vn 0.9606032 0 -0.2779237
vn 0.9606032 -0 -0.2779237
vn 0.9606032 -0 -0.2779237
vn 0.9606032 -0 -0.2779237
g _0
f 1/1/1 2/2/2 3/3/3
f 4/4/4 3/3/3 2/2/2
f 3/3/3 4/4/4 5/5/5
f 6/6/6 5/5/5 4/4/4
f 5/5/5 6/6/6 7/7/7
f 8/8/8 7/7/7 6/6/6
f 7/7/7 8/8/8 9/9/9
f 10/10/10 9/9/9 8/8/8
f 9/9/9 10/10/10 11/11/11
f 12/12/12 11/11/11 10/10/10
f 11/11/11 12/12/12 13/13/13
f 14/14/14 13/13/13 12/12/12
f 13/13/13 14/14/14 15/15/15
f 16/16/16 15/15/15 14/14/14
f 15/15/15 16/16/16 17/17/17
f 18/18/18 17/17/17 16/16/16
f 17/17/17 18/18/18 19/19/19
f 20/20/20 19/19/19 18/18/18
f 19/19/19 20/20/20 21/21/21
f 22/22/22 21/21/21 20/20/20
f 21/21/21 22/22/22 23/23/23
f 24/24/24 23/23/23 22/22/22
f 23/23/23 24/24/24 25/25/25
f 26/26/26 25/25/25 24/24/24
f 25/25/25 26/26/26 27/27/27
f 28/28/28 27/27/27 26/26/26
f 27/27/27 28/28/28 29/29/29
f 30/30/30 29/29/29 28/28/28
f 29/29/29 30/30/30 31/31/31
f 32/32/32 31/31/31 30/30/30
f 31/31/31 32/32/32 33/33/33
f 34/34/34 33/33/33 32/32/32
f 33/33/33 34/34/34 35/35/35
f 36/36/36 35/35/35 34/34/34
f 35/35/35 36/36/36 37/37/37
f 38/38/38 37/37/37 36/36/36
f 37/37/37 38/38/38 39/39/39
f 40/40/40 39/39/39 38/38/38
f 39/39/39 40/40/40 41/41/41
f 42/42/42 41/41/41 40/40/40
f 41/41/41 42/42/42 43/43/43
f 44/44/44 43/43/43 42/42/42
f 43/43/43 44/44/44 45/45/45
f 46/46/46 45/45/45 44/44/44
f 45/45/45 46/46/46 47/47/47
f 48/48/48 47/47/47 46/46/46
f 47/47/47 48/48/48 49/49/49
f 50/50/50 49/49/49 48/48/48
f 49/49/49 50/50/50 51/51/51
f 52/52/52 51/51/51 50/50/50
f 51/51/51 52/52/52 53/53/53
f 54/54/54 53/53/53 52/52/52
