g 
v 25.085398 59.27745 61.031456
v 25.085398 45.27745 61.031456
v 25.932478 59.27745 65.65481
v 25.932478 45.27745 65.65481
v 24.233532 59.27745 66.278564
v 24.233532 45.27745 66.278564
v 11.058344 59.27745 63.630802
v 11.058344 45.27745 63.630802
v 15.017336 59.27745 60.333702
v 15.017336 45.27745 60.333702
v 16.89184 59.27745 62.33505
v 16.89184 45.27745 62.33505
v 21.878134 59.27745 60.83471
v 21.878134 45.27745 60.83471
v 25.085398 59.27745 61.031456
v 25.085398 45.27745 61.031456
vt -0.27185398 0.49731454
vt -0.27185398 0.49731454
vt -0.2803248 0.54354805
vt -0.2803248 0.54354805
vt -0.26333532 0.5497856
vt -0.26333532 0.5497856
vt -0.13158344 0.52330804
vt -0.13158344 0.52330804
vt -0.17117336 0.490337
vt -0.17117336 0.490337
vt -0.1899184 0.51035047
vt -0.1899184 0.51035047
vt -0.23978133 0.49534708
vt -0.23978133 0.49534708
vt -0.27185398 0.49731454
vt -0.27185398 0.49731454
vn 0.9836268 0 -0.18021789
vn 0.9836268 -0 -0.18021789
vn 0.34464893 0 0.9387317
vn 0.34464893 0 0.9387317
vn -0.1970265 -0 0.9803982
vn -0.1970265 0 0.9803982
vn -0.6399484 0 -0.7684179
vn -0.6399484 0 -0.7684179
vn 0.729857 0 -0.68359977
vn 0.729857 -0 -0.68359977
vn -0.28813207 0 -0.9575907
vn -0.28813207 0 -0.9575907
vn 0.06122904 0 -0.99812376
vn 0.06122904 -0 -0.99812376
vn 0.06122904 -0 -0.99812376
vn 0.06122904 -0 -0.99812376
g _0
f 3/3/3 2/2/2 1/1/1
f 2/2/2 3/3/3 4/4/4
f 5/5/5 4/4/4 3/3/3
f 4/4/4 5/5/5 6/6/6
f 7/7/7 6/6/6 5/5/5
f 6/6/6 7/7/7 8/8/8
f 9/9/9 8/8/8 7/7/7
f 8/8/8 9/9/9 10/10/10
f 11/11/11 10/10/10 9/9/9
f 10/10/10 11/11/11 12/12/12
f 13/13/13 12/12/12 11/11/11
f 12/12/12 13/13/13 14/14/14
f 15/15/15 14/14/14 13/13/13
f 14/14/14 15/15/15 16/16/16
