g 
v 59.56239 17.6 -28.470943
v 53.137608 17.6 -20.10906
v 52.751354 17.6 -34.31979
v 47.957012 17.6 -23.473879
v 42.285103 17.6 -36.765053
v 41.450554 17.6 -24.618393
v 32.621517 18.457176 -36.176834
v 33.18687 18.457176 -24.014675
v 25.042723 21.200138 -35.92751
v 23.6821 21.200138 -23.82848
v 16.719316 22.972036 -37.959793
v 13.402902 22.972036 -26.24488
v 7.7616267 23.382221 -40.89922
v 3.9716873 23.382221 -29.328821
v -1.3642697 23.792408 -43.888
v -5.291319 23.792408 -32.36342
v -10.310089 24.343227 -47.054848
v -14.57764 24.343227 -35.651962
v -19.207355 25.105 -50.567646
v -23.677364 25.105 -39.242596
v -28.174904 25.866774 -54.107048
v -32.706806 25.866774 -42.806618
v -37.0929 26.417593 -57.740257
v -41.727497 26.417593 -46.48156
v -46.022354 26.827778 -61.454105
v -50.69786 26.827778 -50.212337
v -54.97226 27.237963 -65.17642
v -59.647774 27.237963 -53.93465
v -56.762238 27.32 -65.92088
v -61.43776 27.32 -54.679115
v 59.56239 17.6 -28.470943
v 59.56239 -2.3999996 -28.470943
v 52.751354 17.6 -34.31979
v 52.751354 -2.3999996 -34.31979
v 52.751354 17.6 -34.31979
v 52.751354 -2.3999996 -34.31979
v 42.285103 17.6 -36.765053
v 42.285103 -2.3999996 -36.765053
v 42.285103 17.6 -36.765053
v 42.285103 -2.3999996 -36.765053
v 32.621517 18.457176 -36.176834
v 32.621517 -1.5428238 -36.176834
v 32.621517 18.457176 -36.176834
v 32.621517 -1.5428238 -36.176834
v 25.042723 21.200138 -35.92751
v 25.042723 1.2001381 -35.92751
v 25.042723 21.200138 -35.92751
v 25.042723 1.2001381 -35.92751
v 16.719316 22.972036 -37.959793
v 16.719316 2.9720364 -37.959793
v 16.719316 22.972036 -37.959793
v 16.719316 2.9720364 -37.959793
v 7.7616267 23.382221 -40.89922
v 7.7616267 3.3822212 -40.89922
v 7.7616267 23.382221 -40.89922
v 7.7616267 3.3822212 -40.89922
v -1.3642697 23.792408 -43.888
v -1.3642697 3.792408 -43.888
v -1.3642697 23.792408 -43.888
v -1.3642697 3.792408 -43.888
v -10.310089 24.343227 -47.054848
v -10.310089 4.3432274 -47.054848
v -10.310089 24.343227 -47.054848
v -10.310089 4.3432274 -47.054848
v -19.207355 25.105 -50.567646
v -19.207355 5.1049995 -50.567646
v -19.207355 25.105 -50.567646
v -19.207355 5.1049995 -50.567646
v -28.174904 25.866774 -54.107048
v -28.174904 5.8667736 -54.107048
v -28.174904 25.866774 -54.107048
v -28.174904 5.8667736 -54.107048
v -37.0929 26.417593 -57.740257
v -37.0929 6.417593 -57.740257
v -37.0929 26.417593 -57.740257
v -37.0929 6.417593 -57.740257
v -46.022354 26.827778 -61.454105
v -46.022354 6.827778 -61.454105
v -46.022354 26.827778 -61.454105
v -46.022354 6.827778 -61.454105
v -54.97226 27.237963 -65.17642
v -54.97226 7.2379627 -65.17642
v -54.97226 27.237963 -65.17642
v -54.97226 7.2379627 -65.17642
v -56.762238 27.32 -65.92088
v -56.762238 7.3199997 -65.92088
v 53.137608 17.6 -20.10906
v 53.137608 -2.3999996 -20.10906
v 47.957012 17.6 -23.473879
v 47.957012 -2.3999996 -23.473879
v 47.957012 17.6 -23.473879
v 47.957012 -2.3999996 -23.473879
v 41.450554 17.6 -24.618393
v 41.450554 -2.3999996 -24.618393
v 41.450554 17.6 -24.618393
v 41.450554 -2.3999996 -24.618393
v 33.18687 18.457176 -24.014675
v 33.18687 -1.5428238 -24.014675
v 33.18687 18.457176 -24.014675
v 33.18687 -1.5428238 -24.014675
v 23.6821 21.200138 -23.82848
v 23.6821 1.2001381 -23.82848
v 23.6821 21.200138 -23.82848
v 23.6821 1.2001381 -23.82848
v 13.402902 22.972036 -26.24488
v 13.402902 2.9720364 -26.24488
v 13.402902 22.972036 -26.24488
v 13.402902 2.9720364 -26.24488
v 3.9716873 23.382221 -29.328821
v 3.9716873 3.3822212 -29.328821
v 3.9716873 23.382221 -29.328821
v 3.9716873 3.3822212 -29.328821
v -5.291319 23.792408 -32.36342
v -5.291319 3.792408 -32.36342
v -5.291319 23.792408 -32.36342
v -5.291319 3.792408 -32.36342
v -14.57764 24.343227 -35.651962
v -14.57764 4.3432274 -35.651962
v -14.57764 24.343227 -35.651962
v -14.57764 4.3432274 -35.651962
v -23.677364 25.105 -39.242596
v -23.677364 5.1049995 -39.242596
v -23.677364 25.105 -39.242596
v -23.677364 5.1049995 -39.242596
v -32.706806 25.866774 -42.806618
v -32.706806 5.8667736 -42.806618
v -32.706806 25.866774 -42.806618
v -32.706806 5.8667736 -42.806618
v -41.727497 26.417593 -46.48156
v -41.727497 6.417593 -46.48156
v -41.727497 26.417593 -46.48156
v -41.727497 6.417593 -46.48156
v -50.69786 26.827778 -50.212337
v -50.69786 6.827778 -50.212337
v -50.69786 26.827778 -50.212337
v -50.69786 6.827778 -50.212337
v -59.647774 27.237963 -53.93465
v -59.647774 7.2379627 -53.93465
v -59.647774 27.237963 -53.93465
v -59.647774 7.2379627 -53.93465
v -61.43776 27.32 -54.679115
v -61.43776 7.3199997 -54.679115
vt 0.05091035 -0.16803257
vt 0.05432834 -0.15805678
vt 0.059232567 -0.17140004
vt 0.06031222 -0.15959099
vt 0.06993166 -0.17037489
vt 0.06684348 -0.15859774
vt 0.07890139 -0.16673139
vt 0.07448165 -0.15538664
vt 0.08600371 -0.16407484
vt 0.08342926 -0.15217485
vt 0.09454029 -0.16334262
vt 0.09394189 -0.15118204
vt 0.10396764 -0.16326751
vt 0.10386412 -0.15109265
vt 0.11357013 -0.16318543
vt 0.113611184 -0.1510102
vt 0.123058856 -0.1633296
vt 0.12346144 -0.15116097
vt 0.13261205 -0.16381712
vt 0.13323134 -0.15165758
vt 0.14224033 -0.16430742
vt 0.14292614 -0.15215144
vt 0.15185161 -0.16490242
vt 0.15264808 -0.15275319
vt 0.16149952 -0.16557017
vt 0.16234013 -0.15342392
vt 0.1711695 -0.16623943
vt 0.17201014 -0.15409318
vt 0.1731035 -0.16637327
vt 0.17394413 -0.15422703
vt 0.05091035 -0.16803257
vt 0.05091035 -0.16803257
vt 0.059232567 -0.17140004
vt 0.059232567 -0.17140004
vt 0.059232567 -0.17140004
vt 0.059232567 -0.17140004
vt 0.06993166 -0.17037489
vt 0.06993166 -0.17037489
vt 0.06993166 -0.17037489
vt 0.06993166 -0.17037489
vt 0.07890139 -0.16673139
vt 0.07890139 -0.16673139
vt 0.07890139 -0.16673139
vt 0.07890139 -0.16673139
vt 0.08600371 -0.16407484
vt 0.08600371 -0.16407484
vt 0.08600371 -0.16407484
vt 0.08600371 -0.16407484
vt 0.09454029 -0.16334262
vt 0.09454029 -0.16334262
vt 0.09454029 -0.16334262
vt 0.09454029 -0.16334262
vt 0.10396764 -0.16326751
vt 0.10396764 -0.16326751
vt 0.10396764 -0.16326751
vt 0.10396764 -0.16326751
vt 0.11357013 -0.16318543
vt 0.11357013 -0.16318543
vt 0.11357013 -0.16318543
vt 0.11357013 -0.16318543
vt 0.123058856 -0.1633296
vt 0.123058856 -0.1633296
vt 0.123058856 -0.1633296
vt 0.123058856 -0.1633296
vt 0.13261205 -0.16381712
vt 0.13261205 -0.16381712
vt 0.13261205 -0.16381712
vt 0.13261205 -0.16381712
vt 0.14224033 -0.16430742
vt 0.14224033 -0.16430742
vt 0.14224033 -0.16430742
vt 0.14224033 -0.16430742
vt 0.15185161 -0.16490242
vt 0.15185161 -0.16490242
vt 0.15185161 -0.16490242
vt 0.15185161 -0.16490242
vt 0.16149952 -0.16557017
vt 0.16149952 -0.16557017
vt 0.16149952 -0.16557017
vt 0.16149952 -0.16557017
vt 0.1711695 -0.16623943
vt 0.1711695 -0.16623943
vt 0.1711695 -0.16623943
vt 0.1711695 -0.16623943
vt 0.1731035 -0.16637327
vt 0.1731035 -0.16637327
vt 0.05432834 -0.15805678
vt 0.05432834 -0.15805678
vt 0.06031222 -0.15959099
vt 0.06031222 -0.15959099
vt 0.06031222 -0.15959099
vt 0.06031222 -0.15959099
vt 0.06684348 -0.15859774
vt 0.06684348 -0.15859774
vt 0.06684348 -0.15859774
vt 0.06684348 -0.15859774
vt 0.07448165 -0.15538664
vt 0.07448165 -0.15538664
vt 0.07448165 -0.15538664
vt 0.07448165 -0.15538664
vt 0.08342926 -0.15217485
vt 0.08342926 -0.15217485
vt 0.08342926 -0.15217485
vt 0.08342926 -0.15217485
vt 0.09394189 -0.15118204
vt 0.09394189 -0.15118204
vt 0.09394189 -0.15118204
vt 0.09394189 -0.15118204
vt 0.10386412 -0.15109265
vt 0.10386412 -0.15109265
vt 0.10386412 -0.15109265
vt 0.10386412 -0.15109265
vt 0.113611184 -0.1510102
vt 0.113611184 -0.1510102
vt 0.113611184 -0.1510102
vt 0.113611184 -0.1510102
vt 0.12346144 -0.15116097
vt 0.12346144 -0.15116097
vt 0.12346144 -0.15116097
vt 0.12346144 -0.15116097
vt 0.13323134 -0.15165758
vt 0.13323134 -0.15165758
vt 0.13323134 -0.15165758
vt 0.13323134 -0.15165758
vt 0.14292614 -0.15215144
vt 0.14292614 -0.15215144
vt 0.14292614 -0.15215144
vt 0.14292614 -0.15215144
vt 0.15264808 -0.15275319
vt 0.15264808 -0.15275319
vt 0.15264808 -0.15275319
vt 0.15264808 -0.15275319
vt 0.16234013 -0.15342392
vt 0.16234013 -0.15342392
vt 0.16234013 -0.15342392
vt 0.16234013 -0.15342392
vt 0.17201014 -0.15409318
vt 0.17201014 -0.15409318
vt 0.17201014 -0.15409318
vt 0.17201014 -0.15409318
vt 0.17394413 -0.15422703
vt 0.17394413 -0.15422703
vn -0 1 0
vn -0 1 0
vn -0 1 0
vn -0 1 0
vn -0 1 0
vn -0 1 0
vn -0 1 0
vn -0 1 0
vn -0 1 0
vn -0 1 0
vn -0 1 0
vn -0 1 0
vn -0 1 0
vn -0 1 0
vn -0 1 0
vn -0 1 0
vn -0 1 0
vn -0 1 0
vn -0 1 0
vn -0 1 0
vn -0 1 0
vn -0 1 0
vn -0 1 0
vn -0 1 0
vn -0 1 0
vn -0 1 0
vn -0 1 0
vn -0 1 0
vn -0 1 0
vn -0 1 0
vn 0.79296464 0 0.60926765
vn 0.79296464 0 0.60926765
vn 0.6514856 -0 -0.758661
vn 0.6514856 -0 -0.758661
vn 0.22750646 0 -0.9737766
vn 0.22750646 -0 -0.9737766
vn 0.22750646 -0 -0.9737766
vn 0.22750646 -0 -0.9737766
vn -0.06075716 0 -0.9981526
vn -0.06075716 0 -0.9981526
vn -0.06075716 0 -0.9981526
vn -0.06075716 0 -0.9981526
vn -0.032879896 0 -0.9994593
vn -0.032879896 0 -0.9994593
vn -0.032879896 0 -0.9994593
vn -0.032879896 0 -0.9994593
vn 0.23719685 0 -0.97146165
vn 0.23719685 -0 -0.97146165
vn 0.23719685 -0 -0.97146165
vn 0.23719685 -0 -0.97146165
vn 0.3117881 0 -0.9501516
vn 0.3117881 -0 -0.9501516
vn 0.3117881 -0 -0.9501516
vn 0.3117881 -0 -0.9501516
vn 0.31123886 0 -0.95033175
vn 0.31123886 -0 -0.95033175
vn 0.31123886 -0 -0.95033175
vn 0.31123886 -0 -0.95033175
vn 0.33371007 0 -0.94267577
vn 0.33371007 -0 -0.94267577
vn 0.33371007 -0 -0.94267577
vn 0.33371007 -0 -0.94267577
vn 0.36723164 0 -0.9301296
vn 0.36723164 -0 -0.9301296
vn 0.36723164 -0 -0.9301296
vn 0.36723164 -0 -0.9301296
vn 0.36712888 0 -0.9301701
vn 0.36712888 -0 -0.9301701
vn 0.36712888 -0 -0.9301701
vn 0.36712888 -0 -0.9301701
vn 0.3772926 0 -0.9260941
vn 0.3772926 -0 -0.9260941
vn 0.3772926 -0 -0.9260941
vn 0.3772926 -0 -0.9260941
vn 0.38401988 0 -0.9233248
vn 0.38401988 -0 -0.9233248
vn 0.38401988 -0 -0.9233248
vn 0.38401988 -0 -0.9233248
vn 0.3840166 0 -0.92332613
vn 0.3840166 -0 -0.92332613
vn 0.3840166 -0 -0.92332613
vn 0.3840166 -0 -0.92332613
vn 0.38401616 0 -0.9233263
vn 0.38401616 -0 -0.9233263
vn -0.92332596 0 -0.38401708
vn -0.92332596 0 -0.38401708
vn 0.79296464 0 0.60926765
vn 0.79296464 0 0.60926765
vn -0.54469603 0 0.83863354
vn -0.54469603 0 0.83863354
vn -0.17324445 -0 0.9848789
vn -0.17324445 0 0.9848789
vn -0.17324445 0 0.9848789
vn -0.17324445 0 0.9848789
vn 0.07286256 0 0.99734193
vn 0.07286256 0 0.99734193
vn 0.07286256 0 0.99734193
vn 0.07286256 0 0.99734193
vn 0.01958592 0 0.9998082
vn 0.01958592 0 0.9998082
vn 0.01958592 0 0.9998082
vn 0.01958592 0 0.9998082
vn -0.22883886 -0 0.9734643
vn -0.22883886 0 0.9734643
vn -0.22883886 0 0.9734643
vn -0.22883886 0 0.9734643
vn -0.31079885 -0 0.95047575
vn -0.31079885 0 0.95047575
vn -0.31079885 0 0.95047575
vn -0.31079885 0 0.95047575
vn -0.31132334 -0 0.95030403
vn -0.31132334 0 0.95030403
vn -0.31132334 0 0.95030403
vn -0.31132334 0 0.95030403
vn -0.33381456 -0 0.9426388
vn -0.33381456 0 0.9426388
vn -0.33381456 0 0.9426388
vn -0.33381456 0 0.9426388
vn -0.367046 -0 0.93020284
vn -0.367046 0 0.93020284
vn -0.367046 0 0.93020284
vn -0.367046 0 0.93020284
vn -0.36714593 -0 0.9301633
vn -0.36714593 0 0.9301633
vn -0.36714593 0 0.9301633
vn -0.36714593 0 0.9301633
vn -0.3772833 -0 0.92609787
vn -0.3772833 0 0.92609787
vn -0.3772833 0 0.92609787
vn -0.3772833 0 0.92609787
vn -0.38401246 -0 0.9233279
vn -0.38401246 0 0.9233279
vn -0.38401246 0 0.9233279
vn -0.38401246 0 0.9233279
vn -0.384016 -0 0.92332643
vn -0.384016 0 0.92332643
vn -0.384016 0 0.92332643
vn -0.384016 0 0.92332643
vn -0.38401648 -0 0.92332625
vn -0.38401648 0 0.92332625
vn -0.92332596 0 -0.38401708
vn -0.92332596 0 -0.38401708
g _0
f 3/3/3 2/2/2 1/1/1
f 2/2/2 3/3/3 4/4/4
f 5/5/5 4/4/4 3/3/3
f 4/4/4 5/5/5 6/6/6
f 7/7/7 6/6/6 5/5/5
f 6/6/6 7/7/7 8/8/8
f 9/9/9 8/8/8 7/7/7
f 8/8/8 9/9/9 10/10/10
f 11/11/11 10/10/10 9/9/9
f 10/10/10 11/11/11 12/12/12
f 13/13/13 12/12/12 11/11/11
f 12/12/12 13/13/13 14/14/14
f 15/15/15 14/14/14 13/13/13
f 14/14/14 15/15/15 16/16/16
f 17/17/17 16/16/16 15/15/15
f 16/16/16 17/17/17 18/18/18
f 19/19/19 18/18/18 17/17/17
f 18/18/18 19/19/19 20/20/20
f 21/21/21 20/20/20 19/19/19
f 20/20/20 21/21/21 22/22/22
f 23/23/23 22/22/22 21/21/21
f 22/22/22 23/23/23 24/24/24
f 25/25/25 24/24/24 23/23/23
f 24/24/24 25/25/25 26/26/26
f 27/27/27 26/26/26 25/25/25
f 26/26/26 27/27/27 28/28/28
f 29/29/29 28/28/28 27/27/27
f 28/28/28 29/29/29 30/30/30
g _1
f 31/31/31 32/32/32 33/33/33
f 34/34/34 33/33/33 32/32/32
f 35/35/35 36/36/36 37/37/37
f 38/38/38 37/37/37 36/36/36
f 39/39/39 40/40/40 41/41/41
f 42/42/42 41/41/41 40/40/40
f 43/43/43 44/44/44 45/45/45
f 46/46/46 45/45/45 44/44/44
f 47/47/47 48/48/48 49/49/49
f 50/50/50 49/49/49 48/48/48
f 51/51/51 52/52/52 53/53/53
f 54/54/54 53/53/53 52/52/52
f 55/55/55 56/56/56 57/57/57
f 58/58/58 57/57/57 56/56/56
f 59/59/59 60/60/60 61/61/61
f 62/62/62 61/61/61 60/60/60
f 63/63/63 64/64/64 65/65/65
f 66/66/66 65/65/65 64/64/64
f 67/67/67 68/68/68 69/69/69
f 70/70/70 69/69/69 68/68/68
f 71/71/71 72/72/72 73/73/73
f 74/74/74 73/73/73 72/72/72
f 75/75/75 76/76/76 77/77/77
f 78/78/78 77/77/77 76/76/76
f 79/79/79 80/80/80 81/81/81
f 82/82/82 81/81/81 80/80/80
f 83/83/83 84/84/84 85/85/85
f 86/86/86 85/85/85 84/84/84
f 89/89/89 88/88/88 87/87/87
f 88/88/88 89/89/89 90/90/90
f 93/93/93 92/92/92 91/91/91
f 92/92/92 93/93/93 94/94/94
f 97/97/97 96/96/96 95/95/95
f 96/96/96 97/97/97 98/98/98
f 101/101/101 100/100/100 99/99/99
f 100/100/100 101/101/101 102/102/102
f 105/105/105 104/104/104 103/103/103
f 104/104/104 105/105/105 106/106/106
f 109/109/109 108/108/108 107/107/107
f 108/108/108 109/109/109 110/110/110
f 113/113/113 112/112/112 111/111/111
f 112/112/112 113/113/113 114/114/114
f 117/117/117 116/116/116 115/115/115
f 116/116/116 117/117/117 118/118/118
f 121/121/121 120/120/120 119/119/119
f 120/120/120 121/121/121 122/122/122
f 125/125/125 124/124/124 123/123/123
f 124/124/124 125/125/125 126/126/126
f 129/129/129 128/128/128 127/127/127
f 128/128/128 129/129/129 130/130/130
f 133/133/133 132/132/132 131/131/131
f 132/132/132 133/133/133 134/134/134
f 137/137/137 136/136/136 135/135/135
f 136/136/136 137/137/137 138/138/138
f 141/141/141 140/140/140 139/139/139
f 140/140/140 141/141/141 142/142/142
f 87/87/87 32/32/32 31/31/31
f 32/32/32 87/87/87 88/88/88
f 85/85/85 86/86/86 141/141/141
f 142/142/142 141/141/141 86/86/86
