g 
v 39.31 48.49459 86.24
v 39.31 30.165413 86.24
v 44.63 49.7596 65.97
v 44.63 28.840397 65.97
v 40.94 49.7596 55.04
v 40.94 28.840397 55.04
v 27.3 49.7596 46.58
v 27.3 28.840397 46.58
v 19.26 49.7596 44.71
v 19.26 28.840397 44.71
v 10.53 48.049603 42.71
v 10.53 27.130398 42.71
v 2.31 44.889603 41.04
v 2.31 23.970398 41.04
v -1.97 41.4496 39.91
v -1.97 20.5304 39.91
vt -0.3931 0.86239994
vt -0.3931 0.86239994
vt -0.4463 0.6597
vt -0.4463 0.6597
vt -0.4094 0.5504
vt -0.4094 0.5504
vt -0.27299997 0.46580002
vt -0.27299997 0.46580002
vt -0.1926 0.44709998
vt -0.1926 0.44709998
vt -0.105299994 0.42709997
vt -0.105299994 0.42709997
vt -0.023099998 0.4104
vt -0.023099998 0.4104
vt 0.0197 0.39909998
vt 0.0197 0.39909998
vn 0.9672412 0 0.2538591
vn 0.9672412 0 0.2538591
vn 0.9474626 0 -0.31986636
vn 0.9474626 -0 -0.31986636
vn 0.52708364 0 -0.8498134
vn 0.52708364 -0 -0.8498134
vn 0.22654055 0 -0.9740017
vn 0.22654055 -0 -0.9740017
vn 0.22330984 0 -0.97474754
vn 0.22330984 -0 -0.97474754
vn 0.19909552 0 -0.9799801
vn 0.19909552 -0 -0.9799801
vn 0.25527185 0 -0.96686935
vn 0.25527185 -0 -0.96686935
vn 0.25527185 -0 -0.96686935
vn 0.25527185 -0 -0.96686935
g _0
f 1/1/1 2/2/2 3/3/3
f 4/4/4 3/3/3 2/2/2
f 3/3/3 4/4/4 5/5/5
f 6/6/6 5/5/5 4/4/4
f 5/5/5 6/6/6 7/7/7
f 8/8/8 7/7/7 6/6/6
f 7/7/7 8/8/8 9/9/9
f 10/10/10 9/9/9 8/8/8
f 9/9/9 10/10/10 11/11/11
f 12/12/12 11/11/11 10/10/10
f 11/11/11 12/12/12 13/13/13
f 14/14/14 13/13/13 12/12/12
f 13/13/13 14/14/14 15/15/15
f 16/16/16 15/15/15 14/14/14
