g 
v -16.07 28.664589 29.18
v -16.07 10.335411 29.18
v -9.36 29.9296 26.53
v -9.36 9.010396 26.53
v -4.82 29.9296 30.26
v -4.82 9.010396 30.26
v -0.9 29.9296 31.43
v -0.9 9.010396 31.43
v 2.18 29.9296 31.57
v 2.18 9.010396 31.57
v 4.89 29.9296 34.14
v 4.89 9.010396 34.14
v 5.28 29.9296 37.46
v 5.28 9.010396 37.46
v -0.24 29.9296 36.55
v -0.24 9.010396 36.55
v -5.9 29.9296 34.74
v -5.9 9.010396 34.74
v -12.62 29.9296 31.71
v -12.62 9.010396 31.71
v -15.81 29.9296 29.42
v -15.81 9.010396 29.42
v -16.07 28.664589 29.18
v -16.07 10.335411 29.18
vt 0.1607 0.2918
vt 0.1607 0.2918
vt 0.0936 0.2653
vt 0.0936 0.2653
vt 0.0482 0.3026
vt 0.0482 0.3026
vt 0.009 0.3143
vt 0.009 0.3143
vt -0.0218 0.3157
vt -0.0218 0.3157
vt -0.048899997 0.3414
vt -0.048899997 0.3414
vt -0.0528 0.3746
vt -0.0528 0.3746
vt 0.0023999999 0.36549997
vt 0.0023999999 0.36549997
vt 0.059 0.3474
vt 0.059 0.3474
vt 0.12619999 0.3171
vt 0.12619999 0.3171
vt 0.1581 0.2942
vt 0.1581 0.2942
vt 0.1607 0.2918
vt 0.1607 0.2918
vn -0.3673243 0 -0.93009293
vn -0.3673243 0 -0.9300929
vn 0.634812 0 -0.7726666
vn 0.634812 -0 -0.7726666
vn 0.28600204 0 -0.958229
vn 0.28600204 -0 -0.958229
vn 0.04540746 0 -0.99896854
vn 0.04540746 -0 -0.99896854
vn 0.68811584 0 -0.72560084
vn 0.68811584 -0 -0.72560084
vn 0.99317104 0 -0.11666779
vn 0.99317104 -0 -0.11666779
vn -0.16265954 -0 0.9866823
vn -0.16265954 0 0.9866823
vn -0.30459216 -0 0.9524829
vn -0.30459216 0 0.9524829
vn -0.41104177 -0 0.91161656
vn -0.41104177 0 0.91161656
vn -0.58316344 -0 0.81235486
vn -0.58316344 0 0.81235486
vn -0.6782808 -0 0.73480284
vn -0.6782808 0 0.73480284
vn -0.6782808 0 0.73480284
vn -0.6782808 0 0.73480284
g _0
f 3/3/3 2/2/2 1/1/1
f 2/2/2 3/3/3 4/4/4
f 5/5/5 4/4/4 3/3/3
f 4/4/4 5/5/5 6/6/6
f 7/7/7 6/6/6 5/5/5
f 6/6/6 7/7/7 8/8/8
f 9/9/9 8/8/8 7/7/7
f 8/8/8 9/9/9 10/10/10
f 11/11/11 10/10/10 9/9/9
f 10/10/10 11/11/11 12/12/12
f 13/13/13 12/12/12 11/11/11
f 12/12/12 13/13/13 14/14/14
f 15/15/15 14/14/14 13/13/13
f 14/14/14 15/15/15 16/16/16
f 17/17/17 16/16/16 15/15/15
f 16/16/16 17/17/17 18/18/18
f 19/19/19 18/18/18 17/17/17
f 18/18/18 19/19/19 20/20/20
f 21/21/21 20/20/20 19/19/19
f 20/20/20 21/21/21 22/22/22
f 23/23/23 22/22/22 21/21/21
f 22/22/22 23/23/23 24/24/24
