g 
v -66.20396 0 -2.6593347
v -66.30651 0 -2.722087
v -66.118866 0 -2.6633365
v -66.341675 0 -2.799679
v -66.069626 0 -2.7685795
v -66.27037 0 -2.8914204
v -65.53264 0 -3.4942882
v -65.86856 0 -3.6998498
v -65.07427 0 -4.385251
v -65.28382 0 -4.513485
v -64.42868 0 -5.161644
v -64.88632 0 -5.4416895
v -63.907574 0 -6.0142155
v -64.36432 0 -6.2937155
v -63.502117 0 -6.9375577
v -63.726673 0 -7.0749717
v -62.896515 0 -7.7384253
v -63.28917 0 -7.9787016
v -62.36762 0 -8.586226
v -62.774967 0 -8.835498
v -61.88127 0 -9.460068
v -62.21821 0 -9.666254
v -61.296165 0 -10.273479
v -61.76021 0 -10.557442
v -60.79001 0 -11.135196
v -61.223267 0 -11.400321
v -60.28684 0 -11.998745
v -60.68333 0 -12.241371
v -59.771988 0 -12.855142
v -60.155083 0 -13.089572
v -59.20005 0 -13.676608
v -59.683914 0 -13.972703
v -58.824978 0 -14.618545
v -59.01588 0 -14.735366
v -58.191525 0 -15.402365
v -58.606236 0 -15.656141
v -57.64657 0 -16.240343
v -58.108086 0 -16.52276
v -57.17839 0 -17.125303
v -57.533157 0 -17.342398
v -56.610886 0 -17.949482
v -57.057564 0 -18.22282
v -56.13576 0 -18.83019
v -56.489582 0 -19.04671
v -55.556744 0 -19.647326
v -56.025494 0 -19.934172
v -55.06098 0 -20.515406
v -55.478157 0 -20.770689
v -54.640224 0 -21.429386
v -54.85581 0 -21.561306
v -54.02066 0 -22.221704
v -54.432274 0 -22.473585
v -53.57865 0 -23.122679
v -53.831177 0 -23.277208
v -52.97319 0 -23.923632
v -53.39353 0 -24.180853
v -52.531364 0 -24.824715
v -52.79226 0 -24.984367
v -52.00546 0 -25.67435
v -52.27506 0 -25.839329
v -51.380642 0 -26.463457
v -51.85677 0 -26.75482
v -50.95314 0 -27.37331
v -51.241173 0 -27.549568
v -50.40468 0 -28.209143
v -50.74653 0 -28.418333
v -49.91048 0 -29.078182
v -50.19762 0 -29.253891
v -49.405945 0 -29.940891
v -49.659058 0 -30.09578
v -48.823803 0 -30.756113
v -49.198093 0 -30.985155
v -48.315765 0 -31.62848
v -48.663033 0 -31.81738
v -47.960373 0 -32.587265
v -48.226097 0 -32.528183
v -48.6358 0 -33.440174
v -49.015377 0 -33.029682
v -49.47362 0 -34.00332
v -49.64226 0 -33.820946
v -50.154385 0 -34.736317
v -50.426205 0 -34.442364
v -50.90772 0 -35.39083
v -51.137577 0 -35.142258
v -51.649998 0 -36.05731
v -51.860004 0 -35.830196
v -52.334114 0 -36.786674
v -52.640594 0 -36.45524
v -53.107685 0 -37.419308
v -53.33173 0 -37.17702
v -53.8063 0 -38.132996
v -54.097813 0 -37.81774
v -54.592663 0 -38.75179
v -54.776157 0 -38.553356
v -55.331978 0 -39.42147
v -55.50155 0 -39.23809
v -56.024338 0 -40.141922
v -56.273895 0 -39.872047
v -56.745537 0 -40.831196
v -57.017403 0 -40.53719
v -57.39553 0 -41.5181
v -57.832115 0 -41.204693
v -57.817326 0 -42.224422
v -58.118114 0 -42.170315
v -57.683716 0 -43.1857
v -58.2026 0 -43.19851
v -57.720024 0 -44.181942
v -58.117172 0 -44.191746
v -57.69142 0 -45.176575
v -58.09665 0 -45.186584
v -57.733467 0 -46.17296
v -58.005478 0 -46.179672
v -57.665565 0 -47.166626
v -58.02426 0 -47.175484
v -57.622185 0 -48.160896
v -58.018517 0 -48.170685
v -57.54598 0 -49.154358
v -58.045605 0 -49.166695
v -57.581192 0 -50.150574
v -57.961266 0 -50.159958
v -57.605534 0 -51.14652
v -57.8878 0 -51.15349
v -57.58879 0 -52.148476
v -57.855423 0 -52.141
v -57.639572 0 -53.22888
v -57.95987 0 -52.856377
v -58.79173 0 -53.266277
v -58.802135 0 -52.87157
v -59.789536 0 -53.27005
v -59.79875 0 -52.920387
v -60.785786 0 -53.33269
v -60.796925 0 -52.910336
v -61.7842 0 -53.313503
v -61.792934 0 -52.982113
v -62.781643 0 -53.330856
v -62.789913 0 -53.01735
v -63.775326 0 -53.491093
v -63.790653 0 -52.909702
v -64.77345 0 -53.482563
v -64.78694 0 -52.97082
v -65.77254 0 -53.437847
v -65.78229 0 -53.068134
v -66.76893 0 -53.495155
v -66.78031 0 -53.063416
v -67.76698 0 -53.48952
v -67.77669 0 -53.12164
v -68.76579 0 -53.455124
v -68.77229 0 -53.208626
v -69.76049 0 -53.576797
v -69.772026 0 -53.13954
v -70.758865 0 -53.559
v -70.76807 0 -53.20993
v -71.75314 0 -53.696495
v -71.76822 0 -53.125023
v -72.754555 0 -53.563427
v -72.76122 0 -53.31068
v -73.750275 0 -53.646515
v -73.75993 0 -53.28018
v -74.74492 0 -53.76987
v -74.759705 0 -53.209415
v -75.74317 0 -53.756985
v -75.75588 0 -53.27489
v -76.74004 0 -53.796093
v -76.753426 0 -53.288372
v -77.73937 0 -53.742085
v -77.74853 0 -53.39497
v -78.73669 0 -53.76447
v -78.74563 0 -53.425175
v -79.733315 0 -53.812897
v -79.74343 0 -53.429337
v -80.72992 0 -53.862194
v -80.74124 0 -53.43263
v -81.72794 0 -53.857662
v -81.73765 0 -53.48975
v -82.80866 0 -53.77841
v -82.651344 0 -53.62159
v -82.900055 0 -52.697773
v -82.49901 0 -52.71004
v -82.93752 0 -51.6996
v -82.40061 0 -51.716026
v -82.75162 0 -50.708263
v -82.52557 0 -50.715176
v -82.83291 0 -49.70875
v -82.38334 0 -49.7225
v -82.805336 0 -48.712566
v -82.34998 0 -48.726498
v -82.67237 0 -47.71961
v -82.422005 0 -47.72727
v -82.68491 0 -46.7222
v -82.34852 0 -46.73249
v -82.76894 0 -45.722603
v -82.20356 0 -45.7399
v -82.61485 0 -44.73029
v -82.29671 0 -44.740025
v -82.58094 0 -43.734303
v -82.26968 0 -43.743824
v -82.558624 0 -42.73796
v -82.231064 0 -42.74798
v -82.64649 0 -41.727924
v -82.08225 0 -41.765827
v -82.44357 0 -40.719273
v -82.08057 0 -40.813305
v -82.0792 0 -39.760025
v -81.66566 0 -39.935448
v -81.62581 0 -38.868515
v -81.33977 0 -38.989845
v -81.3364 0 -37.907444
v -80.84991 0 -38.11381
v -80.85372 0 -37.028355
v -80.55331 0 -37.15579
v -80.52926 0 -36.082153
v -80.09849 0 -36.264885
v -80.06606 0 -35.1948
v -79.78242 0 -35.315125
v -79.65962 0 -34.28338
v -79.40958 0 -34.389442
v -79.25406 0 -33.371574
v -79.03586 0 -33.464134
v -78.90216 0 -32.437016
v -78.60849 0 -32.56159
v -78.57393 0 -31.492413
v -78.15744 0 -31.669083
v -78.149445 0 -30.58864
v -77.80264 0 -30.735746
v -77.80553 0 -29.650694
v -77.367294 0 -29.836584
v -77.398926 0 -28.739334
v -76.99461 0 -28.910835
v -76.952515 0 -27.84486
v -76.66174 0 -27.9682
v -76.60459 0 -26.908607
v -76.230385 0 -27.067345
v -76.169846 0 -26.009192
v -75.885864 0 -26.129652
v -75.8736 0 -25.05102
v -75.40283 0 -25.250715
v -75.44326 0 -24.149729
v -75.05389 0 -24.314898
v -75.05914 0 -23.228838
v -74.65874 0 -23.39868
v -74.66935 0 -22.310347
v -74.26925 0 -22.480062
v -74.26659 0 -21.397358
v -73.89273 0 -21.555943
v -73.830025 0 -20.498709
v -73.55001 0 -20.617483
v -73.41969 0 -19.588934
v -73.181076 0 -19.690153
v -73.140945 0 -18.623339
v -72.68054 0 -18.81864
v -72.73048 0 -17.71362
v -72.31173 0 -17.891247
v -72.382484 0 -16.777403
v -71.880455 0 -16.990355
v -71.946594 0 -15.8784685
v -71.53706 0 -16.052185
v -71.504814 0 -14.982031
v -71.19956 0 -15.111513
v -71.12689 0 -14.058507
v -70.79822 0 -14.1979265
v -70.71793 0 -13.148148
v -70.427895 0 -13.271177
v -70.33902 0 -12.225043
v -70.02753 0 -12.357175
v -69.94623 0 -11.307825
v -69.64104 0 -11.437281
v -69.62461 0 -10.36042
v -69.18339 0 -10.547579
v -69.24769 0 -9.436469
v -68.78103 0 -9.634423
v -68.77407 0 -8.55354
v -68.475365 0 -8.680245
v -68.39262 0 -7.631513
v -68.07755 0 -7.76516
v -68.00993 0 -6.710007
v -67.680954 0 -6.8495584
v -67.6303 0 -5.78721
v -67.2813 0 -5.935249
v -67.27169 0 -4.8554964
v -66.86065 0 -5.029855
v -66.897964 0 -3.930188
v -66.45509 0 -4.118052
v -66.41322 0 -3.0519764
v -66.16055 0 -3.1591556
v -66.33863 0 -2.7584686
v -66.001366 0 -2.9015312
v -66.23854 0 -2.6754982
v -66.01128 0 -2.7718976
v -66.21604 0 -2.63309
v -65.99642 0 -2.7262425
vt 0.6620396 -0.026593346
vt 0.6630651 -0.027220868
vt 0.66118866 -0.026633365
vt 0.66341674 -0.02799679
vt 0.66069627 -0.027685795
vt 0.6627037 -0.028914204
vt 0.65532637 -0.03494288
vt 0.65868556 -0.0369985
vt 0.6507427 -0.043852508
vt 0.6528382 -0.04513485
vt 0.6442868 -0.051616438
vt 0.6488632 -0.054416895
vt 0.6390757 -0.060142152
vt 0.6436432 -0.062937155
vt 0.63502115 -0.069375575
vt 0.6372667 -0.070749715
vt 0.62896514 -0.07738425
vt 0.63289165 -0.079787016
vt 0.6236762 -0.085862264
vt 0.6277497 -0.088354975
vt 0.6188127 -0.09460068
vt 0.6221821 -0.096662536
vt 0.61296165 -0.10273479
vt 0.61760205 -0.105574414
vt 0.6079001 -0.11135195
vt 0.6122326 -0.114003204
vt 0.6028684 -0.11998745
vt 0.6068333 -0.12241371
vt 0.59771985 -0.12855141
vt 0.6015508 -0.13089572
vt 0.5920005 -0.13676608
vt 0.59683913 -0.13972703
vt 0.58824974 -0.14618544
vt 0.5901588 -0.14735365
vt 0.58191526 -0.15402365
vt 0.5860624 -0.1565614
vt 0.57646567 -0.16240343
vt 0.58108085 -0.1652276
vt 0.5717839 -0.17125303
vt 0.57533157 -0.17342398
vt 0.5661088 -0.17949481
vt 0.57057565 -0.1822282
vt 0.5613576 -0.1883019
vt 0.5648958 -0.19046709
vt 0.55556744 -0.19647326
vt 0.56025493 -0.19934171
vt 0.5506098 -0.20515405
vt 0.55478156 -0.20770688
vt 0.5464022 -0.21429385
vt 0.54855806 -0.21561305
vt 0.5402066 -0.22221704
vt 0.5443227 -0.22473584
vt 0.5357865 -0.23122679
vt 0.5383118 -0.23277208
vt 0.52973187 -0.23923631
vt 0.5339353 -0.24180852
vt 0.5253136 -0.24824715
vt 0.5279226 -0.24984367
vt 0.5200546 -0.2567435
vt 0.52275056 -0.2583933
vt 0.5138064 -0.26463458
vt 0.5185677 -0.2675482
vt 0.5095314 -0.2737331
vt 0.5124117 -0.27549568
vt 0.5040468 -0.2820914
vt 0.5074653 -0.28418332
vt 0.4991048 -0.29078183
vt 0.5019762 -0.2925389
vt 0.49405944 -0.2994089
vt 0.49659055 -0.3009578
vt 0.488238 -0.30756113
vt 0.4919809 -0.30985156
vt 0.48315763 -0.3162848
vt 0.48663032 -0.3181738
vt 0.4796037 -0.32587263
vt 0.48226097 -0.32528183
vt 0.486358 -0.33440173
vt 0.49015376 -0.3302968
vt 0.4947362 -0.34003317
vt 0.49642262 -0.33820945
vt 0.5015438 -0.34736314
vt 0.50426203 -0.34442362
vt 0.5090772 -0.3539083
vt 0.5113758 -0.35142258
vt 0.51649994 -0.36057308
vt 0.51860005 -0.35830197
vt 0.5233411 -0.36786672
vt 0.52640593 -0.36455238
vt 0.53107685 -0.37419307
vt 0.53331727 -0.3717702
vt 0.538063 -0.38132995
vt 0.54097813 -0.3781774
vt 0.54592663 -0.38751787
vt 0.54776156 -0.38553354
vt 0.55331975 -0.3942147
vt 0.5550155 -0.3923809
vt 0.56024337 -0.40141922
vt 0.56273896 -0.39872047
vt 0.56745535 -0.40831196
vt 0.57017404 -0.40537187
vt 0.5739553 -0.415181
vt 0.57832116 -0.4120469
vt 0.5781732 -0.42224422
vt 0.5811811 -0.42170313
vt 0.5768371 -0.431857
vt 0.58202595 -0.43198508
vt 0.57720023 -0.4418194
vt 0.5811717 -0.44191745
vt 0.5769142 -0.45176575
vt 0.5809665 -0.45186582
vt 0.57733464 -0.4617296
vt 0.58005476 -0.4617967
vt 0.5766556 -0.47166625
vt 0.5802426 -0.47175482
vt 0.5762218 -0.48160896
vt 0.5801852 -0.48170683
vt 0.5754598 -0.49154356
vt 0.580456 -0.49166694
vt 0.5758119 -0.50150573
vt 0.5796127 -0.50159955
vt 0.57605535 -0.5114652
vt 0.578878 -0.51153487
vt 0.5758879 -0.52148473
vt 0.5785542 -0.52141
vt 0.5763957 -0.5322888
vt 0.57959867 -0.52856374
vt 0.58791727 -0.53266275
vt 0.58802134 -0.52871567
vt 0.5978953 -0.5327005
vt 0.59798753 -0.52920383
vt 0.6078578 -0.5333269
vt 0.6079692 -0.52910334
vt 0.61784196 -0.533135
vt 0.61792934 -0.5298211
vt 0.62781644 -0.53330857
vt 0.6278991 -0.5301735
vt 0.63775325 -0.5349109
vt 0.6379065 -0.529097
vt 0.6477345 -0.5348256
vt 0.6478694 -0.5297082
vt 0.65772533 -0.53437847
vt 0.65782285 -0.5306813
vt 0.66768926 -0.53495157
vt 0.6678031 -0.53063416
vt 0.6776698 -0.5348952
vt 0.67776686 -0.5312164
vt 0.6876579 -0.5345512
vt 0.6877229 -0.53208625
vt 0.6976049 -0.535768
vt 0.6977202 -0.5313954
vt 0.7075886 -0.53559
vt 0.70768064 -0.5320993
vt 0.71753144 -0.53696495
vt 0.7176822 -0.53125024
vt 0.72754556 -0.5356343
vt 0.7276122 -0.5331068
vt 0.73750275 -0.5364651
vt 0.7375993 -0.5328018
vt 0.74744916 -0.5376987
vt 0.74759704 -0.5320941
vt 0.7574317 -0.5375698
vt 0.7575588 -0.5327489
vt 0.76740044 -0.53796095
vt 0.76753426 -0.5328837
vt 0.7773937 -0.5374208
vt 0.77748525 -0.5339497
vt 0.78736687 -0.5376447
vt 0.7874563 -0.53425175
vt 0.7973331 -0.538129
vt 0.7974343 -0.53429335
vt 0.8072992 -0.5386219
vt 0.8074124 -0.53432626
vt 0.8172794 -0.5385766
vt 0.81737643 -0.5348975
vt 0.8280866 -0.5377841
vt 0.8265134 -0.5362159
vt 0.82900053 -0.5269777
vt 0.82499003 -0.5271004
vt 0.8293752 -0.51699597
vt 0.8240061 -0.51716024
vt 0.82751614 -0.50708264
vt 0.8252557 -0.5071517
vt 0.8283291 -0.4970875
vt 0.82383335 -0.497225
vt 0.82805336 -0.48712566
vt 0.8234998 -0.48726496
vt 0.8267237 -0.47719607
vt 0.82422 -0.47727266
vt 0.8268491 -0.46722198
vt 0.82348514 -0.46732488
vt 0.8276894 -0.457226
vt 0.82203555 -0.45739898
vt 0.8261485 -0.44730288
vt 0.82296705 -0.44740024
vt 0.82580936 -0.437343
vt 0.82269675 -0.43743822
vt 0.8255862 -0.4273796
vt 0.8223106 -0.42747977
vt 0.8264649 -0.41727924
vt 0.8208225 -0.41765827
vt 0.8244357 -0.4071927
vt 0.82080567 -0.40813303
vt 0.82079196 -0.39760023
vt 0.81665653 -0.39935446
vt 0.8162581 -0.38868514
vt 0.81339765 -0.38989845
vt 0.813364 -0.37907442
vt 0.80849904 -0.38113812
vt 0.8085372 -0.37028354
vt 0.80553305 -0.37155786
vt 0.80529255 -0.36082152
vt 0.80098486 -0.36264884
vt 0.8006606 -0.351948
vt 0.79782414 -0.35315123
vt 0.7965962 -0.3428338
vt 0.79409575 -0.34389442
vt 0.79254055 -0.33371574
vt 0.79035854 -0.33464134
vt 0.7890216 -0.32437015
vt 0.7860849 -0.32561588
vt 0.78573924 -0.31492412
vt 0.78157437 -0.31669083
vt 0.78149444 -0.3058864
vt 0.7780264 -0.30735746
vt 0.77805525 -0.29650694
vt 0.77367294 -0.29836583
vt 0.77398926 -0.28739333
vt 0.7699461 -0.28910834
vt 0.7695251 -0.27844858
vt 0.7666174 -0.279682
vt 0.76604587 -0.26908606
vt 0.7623038 -0.27067345
vt 0.7616984 -0.2600919
vt 0.7588586 -0.2612965
vt 0.75873595 -0.2505102
vt 0.7540283 -0.25250715
vt 0.75443256 -0.24149728
vt 0.7505388 -0.24314897
vt 0.7505914 -0.23228838
vt 0.74658734 -0.2339868
vt 0.7466935 -0.22310346
vt 0.7426925 -0.22480062
vt 0.7426658 -0.21397358
vt 0.7389273 -0.21555942
vt 0.7383002 -0.20498708
vt 0.7355001 -0.20617482
vt 0.7341969 -0.19588934
vt 0.73181075 -0.19690153
vt 0.73140943 -0.18623339
vt 0.7268054 -0.18818639
vt 0.72730476 -0.17713618
vt 0.7231173 -0.17891246
vt 0.7238248 -0.16777402
vt 0.71880454 -0.16990355
vt 0.7194659 -0.15878469
vt 0.7153706 -0.16052185
vt 0.71504813 -0.1498203
vt 0.7119956 -0.15111513
vt 0.7112689 -0.14058506
vt 0.7079822 -0.14197926
vt 0.7071793 -0.13148147
vt 0.70427895 -0.13271177
vt 0.7033902 -0.12225043
vt 0.70027524 -0.123571746
vt 0.69946223 -0.11307825
vt 0.69641036 -0.114372805
vt 0.6962461 -0.1036042
vt 0.69183385 -0.10547578
vt 0.69247687 -0.09436469
vt 0.6878103 -0.09634423
vt 0.6877407 -0.0855354
vt 0.68475366 -0.08680245
vt 0.68392617 -0.07631513
vt 0.6807755 -0.0776516
vt 0.6800993 -0.06710007
vt 0.67680955 -0.06849558
vt 0.676303 -0.057872098
vt 0.672813 -0.059352487
vt 0.6727169 -0.048554964
vt 0.66860646 -0.050298546
vt 0.66897964 -0.03930188
vt 0.6645509 -0.041180518
vt 0.66413224 -0.030519763
vt 0.66160554 -0.031591557
vt 0.6633863 -0.027584685
vt 0.6600136 -0.029015312
vt 0.6623854 -0.026754983
vt 0.66011274 -0.027718974
vt 0.6621604 -0.0263309
vt 0.6599642 -0.027262425
vn -0 1 0
vn -0 1 0
vn -0 1 0
vn -0 1 0
vn -0 1 0
vn -0 1 0
vn -0 1 0
vn -0 1 0
vn -0 1 0
vn -0 1 0
vn -0 1 0
vn -0 1 0
vn -0 1 0
vn -0 1 0
vn -0 1 0
vn -0 1 0
vn -0 1 0
vn -0 1 0
vn -0 1 0
vn -0 1 0
vn -0 1 0
vn -0 1 0
vn -0 1 0
vn -0 1 0
vn -0 1 0
vn -0 1 0
vn -0 1 0
vn -0 1 0
vn -0 1 0
vn -0 1 0
vn -0 1 0
vn -0 1 0
vn -0 1 0
vn -0 1 0
vn -0 1 0
vn -0 1 0
vn -0 1 0
vn -0 1 0
vn -0 1 0
vn -0 1 0
vn -0 1 0
vn -0 1 0
vn -0 1 0
vn -0 1 0
vn -0 1 0
vn -0 1 0
vn -0 1 0
vn -0 1 0
vn -0 1 0
vn -0 1 0
vn -0 1 0
vn -0 1 0
vn -0 1 0
vn -0 1 0
vn -0 1 0
vn -0 1 0
vn -0 1 0
vn -0 1 0
vn -0 1 0
vn -0 1 0
vn -0 1 0
vn -0 1 0
vn -0 1 0
vn -0 1 0
vn -0 1 0
vn -0 1 0
vn -0 1 0
vn -0 1 0
vn -0 1 0
vn -0 1 0
vn -0 1 0
vn -0 1 0
vn -0 1 0
vn -0 1 0
vn -0 1 0
vn -0 1 0
vn -0 1 0
vn -0 1 0
vn -0 1 0
vn -0 1 0
vn -0 1 0
vn -0 1 0
vn -0 1 0
vn -0 1 0
vn -0 1 0
vn -0 1 0
vn -0 1 0
vn -0 1 0
vn -0 1 0
vn -0 1 0
vn -0 1 0
vn -0 1 0
vn -0 1 0
vn -0 1 0
vn -0 1 0
vn -0 1 0
vn -0 1 0
vn -0 1 0
vn -0 1 0
vn -0 1 0
vn -0 1 0
vn -0 1 0
vn -0 1 0
vn -0 1 0
vn -0 1 0
vn -0 1 0
vn -0 1 0
vn -0 1 0
vn -0 1 0
vn -0 1 0
vn -0 1 0
vn -0 1 0
vn -0 1 0
vn -0 1 0
vn -0 1 0
vn -0 1 0
vn -0 1 0
vn -0 1 0
vn -0 1 0
vn -0 1 0
vn -0 1 0
vn -0 1 0
vn -0 1 0
vn -0 1 0
vn -0 1 0
vn -0 1 0
vn -0 1 0
vn -0 1 0
vn -0 1 0
vn -0 1 0
vn -0 1 0
vn -0 1 0
vn -0 1 0
vn -0 1 0
vn -0 1 0
vn -0 1 0
vn -0 1 0
vn -0 1 0
vn -0 1 0
vn -0 1 0
vn -0 1 0
vn -0 1 0
vn -0 1 0
vn -0 1 0
vn -0 1 0
vn -0 1 0
vn -0 1 0
vn -0 1 0
vn -0 1 0
vn -0 1 0
vn -0 1 0
vn -0 1 0
vn -0 1 0
vn -0 1 0
vn -0 1 0
vn -0 1 0
vn -0 1 0
vn -0 1 0
vn -0 1 0
vn -0 1 0
vn -0 1 0
vn -0 1 0
vn -0 1 0
vn -0 1 0
vn -0 1 0
vn -0 1 0
vn -0 1 0
vn -0 1 0
vn -0 1 0
vn -0 1 0
vn -0 1 0
vn -0 1 0
vn -0 1 0
vn -0 1 0
vn -0 1 0
vn -0 1 0
vn -0 1 0
vn -0 1 0
vn -0 1 0
vn -0 1 0
vn -0 1 0
vn -0 1 0
vn -0 1 0
vn -0 1 0
vn -0 1 0
vn -0 1 0
vn -0 1 0
vn -0 1 0
vn -0 1 0
vn -0 1 0
vn -0 1 0
vn -0 1 0
vn -0 1 0
vn -0 1 0
vn -0 1 0
vn -0 1 0
vn -0 1 0
vn -0 1 0
vn -0 1 0
vn -0 1 0
vn -0 1 0
vn -0 1 0
vn -0 1 0
vn -0 1 0
vn -0 1 0
vn -0 1 0
vn -0 1 0
vn -0 1 0
vn -0 1 0
vn -0 1 0
vn -0 1 0
vn -0 1 0
vn -0 1 0
vn -0 1 0
vn -0 1 0
vn -0 1 0
vn -0 1 0
vn -0 1 0
vn -0 1 0
vn -0 1 0
vn -0 1 0
vn -0 1 0
vn -0 1 0
vn -0 1 0
vn -0 1 0
vn -0 1 0
vn -0 1 0
vn -0 1 0
vn -0 1 0
vn -0 1 0
vn -0 1 0
vn -0 1 0
vn -0 1 0
vn -0 1 0
vn -0 1 0
vn -0 1 0
vn -0 1 0
vn -0 1 0
vn -0 1 0
vn -0 1 0
vn -0 1 0
vn -0 1 0
vn -0 1 0
vn -0 1 0
vn -0 1 0
vn -0 1 0
vn -0 1 0
vn -0 1 0
vn -0 1 0
vn -0 1 0
vn -0 1 0
vn -0 1 0
vn -0 1 0
vn -0 1 0
vn -0 1 0
vn -0 1 0
vn -0 1 0
vn -0 1 0
vn -0 1 0
vn -0 1 0
vn -0 1 0
vn -0 1 0
vn -0 1 0
vn -0 1 0
vn -0 1 0
vn -0 1 0
vn -0 1 0
vn -0 1 0
vn -0 1 0
vn -0 1 0
vn -0 1 0
vn -0 1 0
vn -0 1 0
vn -0 1 0
vn -0 1 0
vn -0 1 0
vn -0 1 0
vn -0 1 0
vn -0 1 0
vn -0 1 0
vn -0 1 0
vn -0 1 0
vn -0 1 0
vn -0 1 0
vn -0 1 0
vn -0 1 0
vn -0 1 0
vn -0 1 0
vn -0 1 0
vn -0 1 0
g _0
f 3/3/3 2/2/2 1/1/1
f 2/2/2 3/3/3 4/4/4
f 5/5/5 4/4/4 3/3/3
f 4/4/4 5/5/5 6/6/6
f 7/7/7 6/6/6 5/5/5
f 6/6/6 7/7/7 8/8/8
f 9/9/9 8/8/8 7/7/7
f 8/8/8 9/9/9 10/10/10
f 11/11/11 10/10/10 9/9/9
f 10/10/10 11/11/11 12/12/12
f 13/13/13 12/12/12 11/11/11
f 12/12/12 13/13/13 14/14/14
f 15/15/15 14/14/14 13/13/13
f 14/14/14 15/15/15 16/16/16
f 17/17/17 16/16/16 15/15/15
f 16/16/16 17/17/17 18/18/18
f 19/19/19 18/18/18 17/17/17
f 18/18/18 19/19/19 20/20/20
f 21/21/21 20/20/20 19/19/19
f 20/20/20 21/21/21 22/22/22
f 23/23/23 22/22/22 21/21/21
f 22/22/22 23/23/23 24/24/24
f 25/25/25 24/24/24 23/23/23
f 24/24/24 25/25/25 26/26/26
f 27/27/27 26/26/26 25/25/25
f 26/26/26 27/27/27 28/28/28
f 29/29/29 28/28/28 27/27/27
f 28/28/28 29/29/29 30/30/30
f 31/31/31 30/30/30 29/29/29
f 30/30/30 31/31/31 32/32/32
f 33/33/33 32/32/32 31/31/31
f 32/32/32 33/33/33 34/34/34
f 35/35/35 34/34/34 33/33/33
f 34/34/34 35/35/35 36/36/36
f 37/37/37 36/36/36 35/35/35
f 36/36/36 37/37/37 38/38/38
f 39/39/39 38/38/38 37/37/37
f 38/38/38 39/39/39 40/40/40
f 41/41/41 40/40/40 39/39/39
f 40/40/40 41/41/41 42/42/42
f 43/43/43 42/42/42 41/41/41
f 42/42/42 43/43/43 44/44/44
f 45/45/45 44/44/44 43/43/43
f 44/44/44 45/45/45 46/46/46
f 47/47/47 46/46/46 45/45/45
f 46/46/46 47/47/47 48/48/48
f 49/49/49 48/48/48 47/47/47
f 48/48/48 49/49/49 50/50/50
f 51/51/51 50/50/50 49/49/49
f 50/50/50 51/51/51 52/52/52
f 53/53/53 52/52/52 51/51/51
f 52/52/52 53/53/53 54/54/54
f 55/55/55 54/54/54 53/53/53
f 54/54/54 55/55/55 56/56/56
f 57/57/57 56/56/56 55/55/55
f 56/56/56 57/57/57 58/58/58
f 59/59/59 58/58/58 57/57/57
f 58/58/58 59/59/59 60/60/60
f 61/61/61 60/60/60 59/59/59
f 60/60/60 61/61/61 62/62/62
f 63/63/63 62/62/62 61/61/61
f 62/62/62 63/63/63 64/64/64
f 65/65/65 64/64/64 63/63/63
f 64/64/64 65/65/65 66/66/66
f 67/67/67 66/66/66 65/65/65
f 66/66/66 67/67/67 68/68/68
f 69/69/69 68/68/68 67/67/67
f 68/68/68 69/69/69 70/70/70
f 71/71/71 70/70/70 69/69/69
f 70/70/70 71/71/71 72/72/72
f 73/73/73 72/72/72 71/71/71
f 72/72/72 73/73/73 74/74/74
f 75/75/75 74/74/74 73/73/73
f 74/74/74 75/75/75 76/76/76
f 77/77/77 76/76/76 75/75/75
f 76/76/76 77/77/77 78/78/78
f 79/79/79 78/78/78 77/77/77
f 78/78/78 79/79/79 80/80/80
f 81/81/81 80/80/80 79/79/79
f 80/80/80 81/81/81 82/82/82
f 83/83/83 82/82/82 81/81/81
f 82/82/82 83/83/83 84/84/84
f 85/85/85 84/84/84 83/83/83
f 84/84/84 85/85/85 86/86/86
f 87/87/87 86/86/86 85/85/85
f 86/86/86 87/87/87 88/88/88
f 89/89/89 88/88/88 87/87/87
f 88/88/88 89/89/89 90/90/90
f 91/91/91 90/90/90 89/89/89
f 90/90/90 91/91/91 92/92/92
f 93/93/93 92/92/92 91/91/91
f 92/92/92 93/93/93 94/94/94
f 95/95/95 94/94/94 93/93/93
f 94/94/94 95/95/95 96/96/96
f 97/97/97 96/96/96 95/95/95
f 96/96/96 97/97/97 98/98/98
f 99/99/99 98/98/98 97/97/97
f 98/98/98 99/99/99 100/100/100
f 101/101/101 100/100/100 99/99/99
f 100/100/100 101/101/101 102/102/102
f 103/103/103 102/102/102 101/101/101
f 102/102/102 103/103/103 104/104/104
f 105/105/105 104/104/104 103/103/103
f 104/104/104 105/105/105 106/106/106
f 107/107/107 106/106/106 105/105/105
f 106/106/106 107/107/107 108/108/108
f 109/109/109 108/108/108 107/107/107
f 108/108/108 109/109/109 110/110/110
f 111/111/111 110/110/110 109/109/109
f 110/110/110 111/111/111 112/112/112
f 113/113/113 112/112/112 111/111/111
f 112/112/112 113/113/113 114/114/114
f 115/115/115 114/114/114 113/113/113
f 114/114/114 115/115/115 116/116/116
f 117/117/117 116/116/116 115/115/115
f 116/116/116 117/117/117 118/118/118
f 119/119/119 118/118/118 117/117/117
f 118/118/118 119/119/119 120/120/120
f 121/121/121 120/120/120 119/119/119
f 120/120/120 121/121/121 122/122/122
f 123/123/123 122/122/122 121/121/121
f 122/122/122 123/123/123 124/124/124
f 125/125/125 124/124/124 123/123/123
f 124/124/124 125/125/125 126/126/126
f 127/127/127 126/126/126 125/125/125
f 126/126/126 127/127/127 128/128/128
f 129/129/129 128/128/128 127/127/127
f 128/128/128 129/129/129 130/130/130
f 131/131/131 130/130/130 129/129/129
f 130/130/130 131/131/131 132/132/132
f 133/133/133 132/132/132 131/131/131
f 132/132/132 133/133/133 134/134/134
f 135/135/135 134/134/134 133/133/133
f 134/134/134 135/135/135 136/136/136
f 137/137/137 136/136/136 135/135/135
f 136/136/136 137/137/137 138/138/138
f 139/139/139 138/138/138 137/137/137
f 138/138/138 139/139/139 140/140/140
f 141/141/141 140/140/140 139/139/139
f 140/140/140 141/141/141 142/142/142
f 143/143/143 142/142/142 141/141/141
f 142/142/142 143/143/143 144/144/144
f 145/145/145 144/144/144 143/143/143
f 144/144/144 145/145/145 146/146/146
f 147/147/147 146/146/146 145/145/145
f 146/146/146 147/147/147 148/148/148
f 149/149/149 148/148/148 147/147/147
f 148/148/148 149/149/149 150/150/150
f 151/151/151 150/150/150 149/149/149
f 150/150/150 151/151/151 152/152/152
f 153/153/153 152/152/152 151/151/151
f 152/152/152 153/153/153 154/154/154
f 155/155/155 154/154/154 153/153/153
f 154/154/154 155/155/155 156/156/156
f 157/157/157 156/156/156 155/155/155
f 156/156/156 157/157/157 158/158/158
f 159/159/159 158/158/158 157/157/157
f 158/158/158 159/159/159 160/160/160
f 161/161/161 160/160/160 159/159/159
f 160/160/160 161/161/161 162/162/162
f 163/163/163 162/162/162 161/161/161
f 162/162/162 163/163/163 164/164/164
f 165/165/165 164/164/164 163/163/163
f 164/164/164 165/165/165 166/166/166
f 167/167/167 166/166/166 165/165/165
f 166/166/166 167/167/167 168/168/168
f 169/169/169 168/168/168 167/167/167
f 168/168/168 169/169/169 170/170/170
f 171/171/171 170/170/170 169/169/169
f 170/170/170 171/171/171 172/172/172
f 173/173/173 172/172/172 171/171/171
f 172/172/172 173/173/173 174/174/174
f 175/175/175 174/174/174 173/173/173
f 174/174/174 175/175/175 176/176/176
f 177/177/177 176/176/176 175/175/175
f 176/176/176 177/177/177 178/178/178
f 179/179/179 178/178/178 177/177/177
f 178/178/178 179/179/179 180/180/180
f 181/181/181 180/180/180 179/179/179
f 180/180/180 181/181/181 182/182/182
f 183/183/183 182/182/182 181/181/181
f 182/182/182 183/183/183 184/184/184
f 185/185/185 184/184/184 183/183/183
f 184/184/184 185/185/185 186/186/186
f 187/187/187 186/186/186 185/185/185
f 186/186/186 187/187/187 188/188/188
f 189/189/189 188/188/188 187/187/187
f 188/188/188 189/189/189 190/190/190
f 191/191/191 190/190/190 189/189/189
f 190/190/190 191/191/191 192/192/192
f 193/193/193 192/192/192 191/191/191
f 192/192/192 193/193/193 194/194/194
f 195/195/195 194/194/194 193/193/193
f 194/194/194 195/195/195 196/196/196
f 197/197/197 196/196/196 195/195/195
f 196/196/196 197/197/197 198/198/198
f 199/199/199 198/198/198 197/197/197
f 198/198/198 199/199/199 200/200/200
f 201/201/201 200/200/200 199/199/199
f 200/200/200 201/201/201 202/202/202
f 203/203/203 202/202/202 201/201/201
f 202/202/202 203/203/203 204/204/204
f 205/205/205 204/204/204 203/203/203
f 204/204/204 205/205/205 206/206/206
f 207/207/207 206/206/206 205/205/205
f 206/206/206 207/207/207 208/208/208
f 209/209/209 208/208/208 207/207/207
f 208/208/208 209/209/209 210/210/210
f 211/211/211 210/210/210 209/209/209
f 210/210/210 211/211/211 212/212/212
f 213/213/213 212/212/212 211/211/211
f 212/212/212 213/213/213 214/214/214
f 215/215/215 214/214/214 213/213/213
f 214/214/214 215/215/215 216/216/216
f 217/217/217 216/216/216 215/215/215
f 216/216/216 217/217/217 218/218/218
f 219/219/219 218/218/218 217/217/217
f 218/218/218 219/219/219 220/220/220
f 221/221/221 220/220/220 219/219/219
f 220/220/220 221/221/221 222/222/222
f 223/223/223 222/222/222 221/221/221
f 222/222/222 223/223/223 224/224/224
f 225/225/225 224/224/224 223/223/223
f 224/224/224 225/225/225 226/226/226
f 227/227/227 226/226/226 225/225/225
f 226/226/226 227/227/227 228/228/228
f 229/229/229 228/228/228 227/227/227
f 228/228/228 229/229/229 230/230/230
f 231/231/231 230/230/230 229/229/229
f 230/230/230 231/231/231 232/232/232
f 233/233/233 232/232/232 231/231/231
f 232/232/232 233/233/233 234/234/234
f 235/235/235 234/234/234 233/233/233
f 234/234/234 235/235/235 236/236/236
f 237/237/237 236/236/236 235/235/235
f 236/236/236 237/237/237 238/238/238
f 239/239/239 238/238/238 237/237/237
f 238/238/238 239/239/239 240/240/240
f 241/241/241 240/240/240 239/239/239
f 240/240/240 241/241/241 242/242/242
f 243/243/243 242/242/242 241/241/241
f 242/242/242 243/243/243 244/244/244
f 245/245/245 244/244/244 243/243/243
f 244/244/244 245/245/245 246/246/246
f 247/247/247 246/246/246 245/245/245
f 246/246/246 247/247/247 248/248/248
f 249/249/249 248/248/248 247/247/247
f 248/248/248 249/249/249 250/250/250
f 251/251/251 250/250/250 249/249/249
f 250/250/250 251/251/251 252/252/252
f 253/253/253 252/252/252 251/251/251
f 252/252/252 253/253/253 254/254/254
f 255/255/255 254/254/254 253/253/253
f 254/254/254 255/255/255 256/256/256
f 257/257/257 256/256/256 255/255/255
f 256/256/256 257/257/257 258/258/258
f 259/259/259 258/258/258 257/257/257
f 258/258/258 259/259/259 260/260/260
f 261/261/261 260/260/260 259/259/259
f 260/260/260 261/261/261 262/262/262
f 263/263/263 262/262/262 261/261/261
f 262/262/262 263/263/263 264/264/264
f 265/265/265 264/264/264 263/263/263
f 264/264/264 265/265/265 266/266/266
f 267/267/267 266/266/266 265/265/265
f 266/266/266 267/267/267 268/268/268
f 269/269/269 268/268/268 267/267/267
f 268/268/268 269/269/269 270/270/270
f 271/271/271 270/270/270 269/269/269
f 270/270/270 271/271/271 272/272/272
f 273/273/273 272/272/272 271/271/271
f 272/272/272 273/273/273 274/274/274
f 275/275/275 274/274/274 273/273/273
f 274/274/274 275/275/275 276/276/276
f 277/277/277 276/276/276 275/275/275
f 276/276/276 277/277/277 278/278/278
f 279/279/279 278/278/278 277/277/277
f 278/278/278 279/279/279 280/280/280
f 281/281/281 280/280/280 279/279/279
f 280/280/280 281/281/281 282/282/282
f 283/283/283 282/282/282 281/281/281
f 282/282/282 283/283/283 284/284/284
f 285/285/285 284/284/284 283/283/283
f 284/284/284 285/285/285 286/286/286
f 287/287/287 286/286/286 285/285/285
f 286/286/286 287/287/287 288/288/288
f 289/289/289 288/288/288 287/287/287
f 288/288/288 289/289/289 290/290/290
