g 
v 117.189285 36.8 -28.14259
v 117.189285 22.8 -28.14259
v 112.47869 36.8 -30.331615
v 112.47869 22.8 -30.331615
v 107.611305 36.8 -26.984009
v 107.611305 22.8 -26.984009
v 104.32278 36.8 -30.002533
v 104.32278 22.8 -30.002533
v 100.23343 36.8 -29.645618
v 100.23343 22.8 -29.645618
v 98.55407 36.8 -25.023067
v 98.55407 22.8 -25.023067
v 101.43602 36.8 -22.009842
v 101.43602 22.8 -22.009842
v 105.58682 36.8 -23.090843
v 105.58682 22.8 -23.090843
v 110.904564 36.8 -20.35234
v 110.904564 22.8 -20.35234
v 114.44348 36.8 -19.229206
v 114.44348 22.8 -19.229206
v 114.06304 36.8 -15.983668
v 114.06304 22.8 -15.983668
v 112.92702 36.8 -13.03324
v 112.92702 22.8 -13.03324
v 114.104256 36.8 -9.707955
v 114.104256 22.8 -9.707955
v 119.68331 36.8 -7.8029337
v 119.68331 22.8 -7.8029337
v 123.44164 36.8 -13.552541
v 123.44164 22.8 -13.552541
v 121.608406 36.8 -16.674568
v 121.608406 22.8 -16.674568
v 116.79423 36.8 -20.7207
v 116.79423 22.8 -20.7207
v 118.169136 36.8 -24.37054
v 118.169136 22.8 -24.37054
v 117.189285 36.8 -28.14259
v 117.189285 22.8 -28.14259
vt -1.1928928 -0.39442587
vt -1.1928928 -0.39442587
vt -1.1457869 -0.41631615
vt -1.1457869 -0.41631615
vt -1.097113 -0.38284007
vt -1.097113 -0.38284007
vt -1.0642277 -0.41302532
vt -1.0642277 -0.41302532
vt -1.0233343 -0.40945616
vt -1.0233343 -0.40945616
vt -1.0065407 -0.36323065
vt -1.0065407 -0.36323065
vt -1.0353602 -0.3330984
vt -1.0353602 -0.3330984
vt -1.0768682 -0.34390843
vt -1.0768682 -0.34390843
vt -1.1300457 -0.3165234
vt -1.1300457 -0.3165234
vt -1.1654347 -0.30529204
vt -1.1654347 -0.30529204
vt -1.1616304 -0.2728367
vt -1.1616304 -0.2728367
vt -1.1502701 -0.2433324
vt -1.1502701 -0.2433324
vt -1.1620425 -0.21007955
vt -1.1620425 -0.21007955
vt -1.217833 -0.19102934
vt -1.217833 -0.19102934
vt -1.2554164 -0.24852541
vt -1.2554164 -0.24852541
vt -1.237084 -0.27974567
vt -1.237084 -0.27974567
vt -1.1889422 -0.32020697
vt -1.1889422 -0.32020697
vt -1.2026913 -0.3567054
vt -1.2026913 -0.3567054
vt -1.1928928 -0.39442587
vt -1.1928928 -0.39442587
vn 0.42142236 0 -0.90686446
vn 0.42142236 -0 -0.90686446
vn -0.56667584 0 -0.8239409
vn -0.56667584 0 -0.8239409
vn 0.67621624 0 -0.73670316
vn 0.67621624 -0 -0.73670316
vn -0.08694854 0 -0.99621284
vn -0.08694854 0 -0.99621284
vn -0.9398958 0 -0.34146145
vn -0.9398958 0 -0.34146145
vn -0.72267365 -0 0.6911894
vn -0.72267365 0 0.6911894
vn 0.2520253 0 0.9677206
vn 0.2520253 0 0.9677206
vn -0.4578324 -0 0.88903856
vn -0.4578324 0 0.88903856
vn -0.30249807 -0 0.95315
vn -0.30249807 0 0.95315
vn -0.9931998 0 -0.116422206
vn -0.9931998 0 -0.116422206
vn -0.93321365 0 -0.35932195
vn -0.93321365 0 -0.35932195
vn -0.9426688 -0 0.3337296
vn -0.9426688 0 0.3337296
vn -0.32314056 -0 0.946351
vn -0.32314056 0 0.946351
vn 0.8370381 0 0.5471446
vn 0.8370381 0 0.5471446
vn 0.86232626 0 -0.5063531
vn 0.86232626 -0 -0.5063531
vn 0.6433992 0 -0.7655309
vn 0.6433992 -0 -0.7655309
vn 0.935804 0 0.35252076
vn 0.935804 0 0.35252076
vn 0.9678776 0 -0.25142187
vn 0.9678776 -0 -0.25142187
vn 0.9678776 -0 -0.25142187
vn 0.9678776 -0 -0.25142187
g _0
f 1/1/1 2/2/2 3/3/3
f 4/4/4 3/3/3 2/2/2
f 3/3/3 4/4/4 5/5/5
f 6/6/6 5/5/5 4/4/4
f 5/5/5 6/6/6 7/7/7
f 8/8/8 7/7/7 6/6/6
f 7/7/7 8/8/8 9/9/9
f 10/10/10 9/9/9 8/8/8
f 9/9/9 10/10/10 11/11/11
f 12/12/12 11/11/11 10/10/10
f 11/11/11 12/12/12 13/13/13
f 14/14/14 13/13/13 12/12/12
f 13/13/13 14/14/14 15/15/15
f 16/16/16 15/15/15 14/14/14
f 15/15/15 16/16/16 17/17/17
f 18/18/18 17/17/17 16/16/16
f 17/17/17 18/18/18 19/19/19
f 20/20/20 19/19/19 18/18/18
f 19/19/19 20/20/20 21/21/21
f 22/22/22 21/21/21 20/20/20
f 21/21/21 22/22/22 23/23/23
f 24/24/24 23/23/23 22/22/22
f 23/23/23 24/24/24 25/25/25
f 26/26/26 25/25/25 24/24/24
f 25/25/25 26/26/26 27/27/27
f 28/28/28 27/27/27 26/26/26
f 27/27/27 28/28/28 29/29/29
f 30/30/30 29/29/29 28/28/28
f 29/29/29 30/30/30 31/31/31
f 32/32/32 31/31/31 30/30/30
f 31/31/31 32/32/32 33/33/33
f 34/34/34 33/33/33 32/32/32
f 33/33/33 34/34/34 35/35/35
f 36/36/36 35/35/35 34/34/34
f 35/35/35 36/36/36 37/37/37
f 38/38/38 37/37/37 36/36/36
