g 
v -28.82961 17.6 19.610792
v -36.197945 17.6 12.903379
v -24.997593 17.6 19.854916
v -36.800068 17.6 9.111097
v -20.531635 17.6 16.088165
v -33.468365 17.6 4.311834
v -14.258476 17.6 9.930912
v -27.926014 17.6 -2.510679
v -7.174298 17.6 3.2292905
v -21.881847 17.6 -10.231021
v -0.2998538 17.6 -3.6200829
v -15.553504 17.6 -17.730667
v 7.8649683 17.6 -9.271092
v -10.441097 17.6 -26.355736
v 16.49854 17.6 -14.17854
v -5.749055 17.6 -35.676956
v 23.97255 17.6 -20.14616
v 0.5380306 17.6 -43.511295
v 28.937576 17.6 -27.809404
v 9.334099 17.6 -49.65001
v 35.750286 17.6 -30.690731
v 17.017172 17.6 -58.329258
v 37.91208 17.6 -31.00772
v 23.287924 17.6 -61.99228
v 44.239964 17.6 -38.68569
v 33.237457 17.6 -61.996956
v 45.179195 17.6 -45.429405
v 39.04054 17.6 -58.4355
v -28.82961 17.6 19.610792
v -28.82961 -2.3999996 19.610792
v -24.997593 17.6 19.854916
v -24.997593 -2.3999996 19.854916
v -24.997593 17.6 19.854916
v -24.997593 -2.3999996 19.854916
v -20.531635 17.6 16.088165
v -20.531635 -2.3999996 16.088165
v -20.531635 17.6 16.088165
v -20.531635 -2.3999996 16.088165
v -14.258476 17.6 9.930912
v -14.258476 -2.3999996 9.930912
v -14.258476 17.6 9.930912
v -14.258476 -2.3999996 9.930912
v -7.174298 17.6 3.2292905
v -7.174298 -2.3999996 3.2292905
v -7.174298 17.6 3.2292905
v -7.174298 -2.3999996 3.2292905
v -0.2998538 17.6 -3.6200829
v -0.2998538 -2.3999996 -3.6200829
v -0.2998538 17.6 -3.6200829
v -0.2998538 -2.3999996 -3.6200829
v 7.8649683 17.6 -9.271092
v 7.8649683 -2.3999996 -9.271092
v 7.8649683 17.6 -9.271092
v 7.8649683 -2.3999996 -9.271092
v 16.49854 17.6 -14.17854
v 16.49854 -2.3999996 -14.17854
v 16.49854 17.6 -14.17854
v 16.49854 -2.3999996 -14.17854
v 23.97255 17.6 -20.14616
v 23.97255 -2.3999996 -20.14616
v 23.97255 17.6 -20.14616
v 23.97255 -2.3999996 -20.14616
v 28.937576 17.6 -27.809404
v 28.937576 -2.3999996 -27.809404
v 28.937576 17.6 -27.809404
v 28.937576 -2.3999996 -27.809404
v 35.750286 17.6 -30.690731
v 35.750286 -2.3999996 -30.690731
v 35.750286 17.6 -30.690731
v 35.750286 -2.3999996 -30.690731
v 37.91208 17.6 -31.00772
v 37.91208 -2.3999996 -31.00772
v 37.91208 17.6 -31.00772
v 37.91208 -2.3999996 -31.00772
v 44.239964 17.6 -38.68569
v 44.239964 -2.3999996 -38.68569
v 44.239964 17.6 -38.68569
v 44.239964 -2.3999996 -38.68569
v 45.179195 17.6 -45.429405
v 45.179195 -2.3999996 -45.429405
v -36.197945 17.6 12.903379
v -36.197945 -2.3999996 12.903379
v -36.800068 17.6 9.111097
v -36.800068 -2.3999996 9.111097
v -36.800068 17.6 9.111097
v -36.800068 -2.3999996 9.111097
v -33.468365 17.6 4.311834
v -33.468365 -2.3999996 4.311834
v -33.468365 17.6 4.311834
v -33.468365 -2.3999996 4.311834
v -27.926014 17.6 -2.510679
v -27.926014 -2.3999996 -2.510679
v -27.926014 17.6 -2.510679
v -27.926014 -2.3999996 -2.510679
v -21.881847 17.6 -10.231021
v -21.881847 -2.3999996 -10.231021
v -21.881847 17.6 -10.231021
v -21.881847 -2.3999996 -10.231021
v -15.553504 17.6 -17.730667
v -15.553504 -2.3999996 -17.730667
v -15.553504 17.6 -17.730667
v -15.553504 -2.3999996 -17.730667
v -10.441097 17.6 -26.355736
v -10.441097 -2.3999996 -26.355736
v -10.441097 17.6 -26.355736
v -10.441097 -2.3999996 -26.355736
v -5.749055 17.6 -35.676956
v -5.749055 -2.3999996 -35.676956
v -5.749055 17.6 -35.676956
v -5.749055 -2.3999996 -35.676956
v 0.5380306 17.6 -43.511295
v 0.5380306 -2.3999996 -43.511295
v 0.5380306 17.6 -43.511295
v 0.5380306 -2.3999996 -43.511295
v 9.334099 17.6 -49.65001
v 9.334099 -2.3999996 -49.65001
v 9.334099 17.6 -49.65001
v 9.334099 -2.3999996 -49.65001
v 17.017172 17.6 -58.329258
v 17.017172 -2.3999996 -58.329258
v 17.017172 17.6 -58.329258
v 17.017172 -2.3999996 -58.329258
v 23.287924 17.6 -61.99228
v 23.287924 -2.3999996 -61.99228
v 23.287924 17.6 -61.99228
v 23.287924 -2.3999996 -61.99228
v 33.237457 17.6 -61.996956
v 33.237457 -2.3999996 -61.996956
v 33.237457 17.6 -61.996956
v 33.237457 -2.3999996 -61.996956
v 39.04054 17.6 -58.4355
v 39.04054 -2.3999996 -58.4355
vt 0.065860264 -0.07116645
vt 0.0653022 -0.0636009
vt 0.06784974 -0.07330849
vt 0.06695584 -0.061190117
vt 0.07229034 -0.07356641
vt 0.071310535 -0.060283422
vt 0.0789816 -0.073450066
vt 0.077946454 -0.059416708
vt 0.08640612 -0.07345774
vt 0.08532991 -0.05831675
vt 0.09379214 -0.07327391
vt 0.092754796 -0.05748758
vt 0.10126346 -0.07442811
vt 0.100097306 -0.05539968
vt 0.10860432 -0.07623869
vt 0.10757217 -0.052706946
vt 0.11585978 -0.076856114
vt 0.115149565 -0.051671237
vt 0.12261706 -0.07522247
vt 0.12322512 -0.0528866
vt 0.12789056 -0.07719882
vt 0.1320164 -0.052115243
vt 0.12925108 -0.07815598
vt 0.1373999 -0.053375803
vt 0.13676912 -0.07722805
vt 0.14289989 -0.058584645
vt 0.14082034 -0.07399382
vt 0.14424089 -0.06359207
vt 0.065860264 -0.07116645
vt 0.065860264 -0.07116645
vt 0.06784974 -0.07330849
vt 0.06784974 -0.07330849
vt 0.06784974 -0.07330849
vt 0.06784974 -0.07330849
vt 0.07229034 -0.07356641
vt 0.07229034 -0.07356641
vt 0.07229034 -0.07356641
vt 0.07229034 -0.07356641
vt 0.0789816 -0.073450066
vt 0.0789816 -0.073450066
vt 0.0789816 -0.073450066
vt 0.0789816 -0.073450066
vt 0.08640612 -0.07345774
vt 0.08640612 -0.07345774
vt 0.08640612 -0.07345774
vt 0.08640612 -0.07345774
vt 0.09379214 -0.07327391
vt 0.09379214 -0.07327391
vt 0.09379214 -0.07327391
vt 0.09379214 -0.07327391
vt 0.10126346 -0.07442811
vt 0.10126346 -0.07442811
vt 0.10126346 -0.07442811
vt 0.10126346 -0.07442811
vt 0.10860432 -0.07623869
vt 0.10860432 -0.07623869
vt 0.10860432 -0.07623869
vt 0.10860432 -0.07623869
vt 0.11585978 -0.076856114
vt 0.11585978 -0.076856114
vt 0.11585978 -0.076856114
vt 0.11585978 -0.076856114
vt 0.12261706 -0.07522247
vt 0.12261706 -0.07522247
vt 0.12261706 -0.07522247
vt 0.12261706 -0.07522247
vt 0.12789056 -0.07719882
vt 0.12789056 -0.07719882
vt 0.12789056 -0.07719882
vt 0.12789056 -0.07719882
vt 0.12925108 -0.07815598
vt 0.12925108 -0.07815598
vt 0.12925108 -0.07815598
vt 0.12925108 -0.07815598
vt 0.13676912 -0.07722805
vt 0.13676912 -0.07722805
vt 0.13676912 -0.07722805
vt 0.13676912 -0.07722805
vt 0.14082034 -0.07399382
vt 0.14082034 -0.07399382
vt 0.0653022 -0.0636009
vt 0.0653022 -0.0636009
vt 0.06695584 -0.061190117
vt 0.06695584 -0.061190117
vt 0.06695584 -0.061190117
vt 0.06695584 -0.061190117
vt 0.071310535 -0.060283422
vt 0.071310535 -0.060283422
vt 0.071310535 -0.060283422
vt 0.071310535 -0.060283422
vt 0.077946454 -0.059416708
vt 0.077946454 -0.059416708
vt 0.077946454 -0.059416708
vt 0.077946454 -0.059416708
vt 0.08532991 -0.05831675
vt 0.08532991 -0.05831675
vt 0.08532991 -0.05831675
vt 0.08532991 -0.05831675
vt 0.092754796 -0.05748758
vt 0.092754796 -0.05748758
vt 0.092754796 -0.05748758
vt 0.092754796 -0.05748758
vt 0.100097306 -0.05539968
vt 0.100097306 -0.05539968
vt 0.100097306 -0.05539968
vt 0.100097306 -0.05539968
vt 0.10757217 -0.052706946
vt 0.10757217 -0.052706946
vt 0.10757217 -0.052706946
vt 0.10757217 -0.052706946
vt 0.115149565 -0.051671237
vt 0.115149565 -0.051671237
vt 0.115149565 -0.051671237
vt 0.115149565 -0.051671237
vt 0.12322512 -0.0528866
vt 0.12322512 -0.0528866
vt 0.12322512 -0.0528866
vt 0.12322512 -0.0528866
vt 0.1320164 -0.052115243
vt 0.1320164 -0.052115243
vt 0.1320164 -0.052115243
vt 0.1320164 -0.052115243
vt 0.1373999 -0.053375803
vt 0.1373999 -0.053375803
vt 0.1373999 -0.053375803
vt 0.1373999 -0.053375803
vt 0.14289989 -0.058584645
vt 0.14289989 -0.058584645
vt 0.14289989 -0.058584645
vt 0.14289989 -0.058584645
vt 0.14424089 -0.06359207
vt 0.14424089 -0.06359207
vn -0 1 0
vn -0 1 0
vn -0 1 0
vn -0 1 0
vn -0 1 0
vn -0 1 0
vn -0 1 0
vn -0 1 0
vn -0 1 0
vn -0 1 0
vn -0 1 0
vn -0 1 0
vn -0 1 0
vn -0 1 0
vn -0 1 0
vn -0 1 0
vn -0 1 0
vn -0 1 0
vn -0 1 0
vn -0 1 0
vn -0 1 0
vn -0 1 0
vn -0 1 0
vn -0 1 0
vn -0 1 0
vn -0 1 0
vn -0 1 0
vn -0 1 0
vn -0.67316324 -0 0.73949397
vn -0.67316324 0 0.73949397
vn -0.06357736 0 0.9979769
vn -0.06357736 0 0.9979769
vn 0.6447308 0 0.76440966
vn 0.6447308 0 0.76440966
vn 0.6447308 0 0.76440966
vn 0.6447308 0 0.76440966
vn 0.700483 0 0.71366906
vn 0.700483 0 0.71366906
vn 0.700483 0 0.71366906
vn 0.700483 0 0.71366906
vn 0.68722 0 0.72644943
vn 0.68722 0 0.72644943
vn 0.68722 0 0.72644943
vn 0.68722 0 0.72644943
vn 0.7058139 0 0.7083973
vn 0.7058139 0 0.7083973
vn 0.7058139 0 0.7083973
vn 0.7058139 0 0.7083973
vn 0.5691038 0 0.8222657
vn 0.5691038 0 0.8222657
vn 0.5691038 0 0.8222657
vn 0.5691038 0 0.8222657
vn 0.49416232 0 0.8693696
vn 0.49416232 0 0.8693696
vn 0.49416232 0 0.8693696
vn 0.49416232 0 0.8693696
vn 0.6239561 0 0.7814594
vn 0.6239561 0 0.7814594
vn 0.6239561 0 0.7814594
vn 0.6239561 0 0.7814594
vn 0.83924747 0 0.54374963
vn 0.83924747 0 0.54374963
vn 0.83924747 0 0.54374963
vn 0.83924747 0 0.54374963
vn 0.38952833 0 0.9210145
vn 0.38952833 0 0.9210145
vn 0.38952833 0 0.9210145
vn 0.38952833 0 0.9210145
vn 0.14508146 0 0.9894197
vn 0.14508146 0 0.9894197
vn 0.14508146 0 0.9894197
vn 0.14508146 0 0.9894197
vn 0.77169096 0 0.63599765
vn 0.77169096 0 0.63599765
vn 0.77169096 0 0.63599765
vn 0.77169096 0 0.63599765
vn 0.9904401 0 0.13794371
vn 0.9904401 0 0.13794371
vn 0.90433216 0 -0.42682943
vn 0.90433216 -0 -0.42682943
vn -0.67316324 0 0.73949397
vn -0.67316324 0 0.73949397
vn -0.9876286 0 0.15681168
vn -0.9876286 0 0.15681168
vn -0.82145965 0 -0.57026666
vn -0.82145965 0 -0.57026666
vn -0.82145965 0 -0.57026666
vn -0.82145965 0 -0.57026666
vn -0.7761664 0 -0.63052815
vn -0.7761664 0 -0.63052815
vn -0.7761664 0 -0.63052815
vn -0.7761664 0 -0.63052815
vn -0.78739804 0 -0.6164449
vn -0.78739804 0 -0.6164449
vn -0.78739804 0 -0.6164449
vn -0.78739804 0 -0.6164449
vn -0.76426554 0 -0.64490175
vn -0.76426554 0 -0.64490175
vn -0.76426554 0 -0.64490175
vn -0.76426554 0 -0.64490175
vn -0.86023664 0 -0.509895
vn -0.86023664 0 -0.509895
vn -0.86023664 0 -0.509895
vn -0.86023664 0 -0.509895
vn -0.8932191 0 -0.44962162
vn -0.8932191 0 -0.44962162
vn -0.8932191 0 -0.44962162
vn -0.8932191 0 -0.44962162
vn -0.7799154 0 -0.62588495
vn -0.7799154 0 -0.62588495
vn -0.7799154 0 -0.62588495
vn -0.7799154 0 -0.62588495
vn -0.57230216 0 -0.82004285
vn -0.57230216 0 -0.82004285
vn -0.57230216 0 -0.82004285
vn -0.57230216 0 -0.82004285
vn -0.7487706 0 -0.6628292
vn -0.7487706 0 -0.6628292
vn -0.7487706 0 -0.6628292
vn -0.7487706 0 -0.6628292
vn -0.5043931 0 -0.8634742
vn -0.5043931 0 -0.8634742
vn -0.5043931 0 -0.8634742
vn -0.5043931 0 -0.8634742
vn -0.00047005407 0 -0.99999994
vn -0.00047005407 0 -0.99999994
vn -0.00047005407 0 -0.99999994
vn -0.00047005407 0 -0.99999994
vn 0.5230667 0 -0.85229176
vn 0.5230667 -0 -0.85229176
vn 0.90433216 -0 -0.42682943
vn 0.90433216 -0 -0.42682943
g _0
f 3/3/3 2/2/2 1/1/1
f 2/2/2 3/3/3 4/4/4
f 5/5/5 4/4/4 3/3/3
f 4/4/4 5/5/5 6/6/6
f 7/7/7 6/6/6 5/5/5
f 6/6/6 7/7/7 8/8/8
f 9/9/9 8/8/8 7/7/7
f 8/8/8 9/9/9 10/10/10
f 11/11/11 10/10/10 9/9/9
f 10/10/10 11/11/11 12/12/12
f 13/13/13 12/12/12 11/11/11
f 12/12/12 13/13/13 14/14/14
f 15/15/15 14/14/14 13/13/13
f 14/14/14 15/15/15 16/16/16
f 17/17/17 16/16/16 15/15/15
f 16/16/16 17/17/17 18/18/18
f 19/19/19 18/18/18 17/17/17
f 18/18/18 19/19/19 20/20/20
f 21/21/21 20/20/20 19/19/19
f 20/20/20 21/21/21 22/22/22
f 23/23/23 22/22/22 21/21/21
f 22/22/22 23/23/23 24/24/24
f 25/25/25 24/24/24 23/23/23
f 24/24/24 25/25/25 26/26/26
f 27/27/27 26/26/26 25/25/25
f 26/26/26 27/27/27 28/28/28
g _1
f 29/29/29 30/30/30 31/31/31
f 32/32/32 31/31/31 30/30/30
f 33/33/33 34/34/34 35/35/35
f 36/36/36 35/35/35 34/34/34
f 37/37/37 38/38/38 39/39/39
f 40/40/40 39/39/39 38/38/38
f 41/41/41 42/42/42 43/43/43
f 44/44/44 43/43/43 42/42/42
f 45/45/45 46/46/46 47/47/47
f 48/48/48 47/47/47 46/46/46
f 49/49/49 50/50/50 51/51/51
f 52/52/52 51/51/51 50/50/50
f 53/53/53 54/54/54 55/55/55
f 56/56/56 55/55/55 54/54/54
f 57/57/57 58/58/58 59/59/59
f 60/60/60 59/59/59 58/58/58
f 61/61/61 62/62/62 63/63/63
f 64/64/64 63/63/63 62/62/62
f 65/65/65 66/66/66 67/67/67
f 68/68/68 67/67/67 66/66/66
f 69/69/69 70/70/70 71/71/71
f 72/72/72 71/71/71 70/70/70
f 73/73/73 74/74/74 75/75/75
f 76/76/76 75/75/75 74/74/74
f 77/77/77 78/78/78 79/79/79
f 80/80/80 79/79/79 78/78/78
f 83/83/83 82/82/82 81/81/81
f 82/82/82 83/83/83 84/84/84
f 87/87/87 86/86/86 85/85/85
f 86/86/86 87/87/87 88/88/88
f 91/91/91 90/90/90 89/89/89
f 90/90/90 91/91/91 92/92/92
f 95/95/95 94/94/94 93/93/93
f 94/94/94 95/95/95 96/96/96
f 99/99/99 98/98/98 97/97/97
f 98/98/98 99/99/99 100/100/100
f 103/103/103 102/102/102 101/101/101
f 102/102/102 103/103/103 104/104/104
f 107/107/107 106/106/106 105/105/105
f 106/106/106 107/107/107 108/108/108
f 111/111/111 110/110/110 109/109/109
f 110/110/110 111/111/111 112/112/112
f 115/115/115 114/114/114 113/113/113
f 114/114/114 115/115/115 116/116/116
f 119/119/119 118/118/118 117/117/117
f 118/118/118 119/119/119 120/120/120
f 123/123/123 122/122/122 121/121/121
f 122/122/122 123/123/123 124/124/124
f 127/127/127 126/126/126 125/125/125
f 126/126/126 127/127/127 128/128/128
f 131/131/131 130/130/130 129/129/129
f 130/130/130 131/131/131 132/132/132
f 81/81/81 30/30/30 29/29/29
f 30/30/30 81/81/81 82/82/82
f 79/79/79 80/80/80 131/131/131
f 132/132/132 131/131/131 80/80/80
