g 
v 78.76581 36.8 -29.848244
v 78.76581 22.8 -29.848244
v 73.2088 36.8 -29.88684
v 73.2088 22.8 -29.88684
v 71.293396 36.8 -25.191025
v 71.293396 22.8 -25.191025
v 73.810036 36.8 -20.864983
v 73.810036 22.8 -20.864983
v 79.30262 36.8 -18.893852
v 79.30262 22.8 -18.893852
v 82.34292 36.8 -19.547672
v 82.34292 22.8 -19.547672
v 79.92993 36.8 -22.867401
v 79.92993 22.8 -22.867401
v 80.705536 36.8 -27.740173
v 80.705536 22.8 -27.740173
v 78.76581 36.8 -29.848244
v 78.76581 22.8 -29.848244
vt -0.80865806 -0.41148242
vt -0.80865806 -0.41148242
vt -0.753088 -0.4118684
vt -0.753088 -0.4118684
vt -0.7339339 -0.36491024
vt -0.7339339 -0.36491024
vt -0.7591003 -0.32164982
vt -0.7591003 -0.32164982
vt -0.8140262 -0.3019385
vt -0.8140262 -0.3019385
vt -0.84442914 -0.30847672
vt -0.84442914 -0.30847672
vt -0.82029927 -0.341674
vt -0.82029927 -0.341674
vt -0.8280553 -0.39040172
vt -0.8280553 -0.39040172
vt -0.80865806 -0.41148242
vt -0.80865806 -0.41148242
vn 0.0069454974 0 -0.99997586
vn 0.0069454974 -0 -0.99997586
vn -0.92593414 0 -0.37768498
vn -0.92593414 0 -0.37768498
vn -0.864377 -0 0.5028443
vn -0.864377 0 0.5028443
vn -0.33777875 -0 0.9412255
vn -0.33777875 0 0.9412255
vn 0.21024461 0 0.9776488
vn 0.21024461 0 0.9776488
vn 0.80889386 0 -0.5879547
vn 0.80889386 -0 -0.5879547
vn 0.987568 0 0.15719223
vn 0.987568 0 0.15719223
vn 0.7358783 0 -0.67711383
vn 0.7358783 -0 -0.67711383
vn 0.7358783 -0 -0.67711383
vn 0.7358783 -0 -0.67711383
g _0
f 1/1/1 2/2/2 3/3/3
f 4/4/4 3/3/3 2/2/2
f 3/3/3 4/4/4 5/5/5
f 6/6/6 5/5/5 4/4/4
f 5/5/5 6/6/6 7/7/7
f 8/8/8 7/7/7 6/6/6
f 7/7/7 8/8/8 9/9/9
f 10/10/10 9/9/9 8/8/8
f 9/9/9 10/10/10 11/11/11
f 12/12/12 11/11/11 10/10/10
f 11/11/11 12/12/12 13/13/13
f 14/14/14 13/13/13 12/12/12
f 13/13/13 14/14/14 15/15/15
f 16/16/16 15/15/15 14/14/14
f 15/15/15 16/16/16 17/17/17
f 18/18/18 17/17/17 16/16/16
