g 
v -20.76639 22.07 -23.526962
v -19.433207 22.07 -25.895006
v -20.741344 22.07 -22.036875
v -18.14621 22.07 -26.64643
v -19.436436 22.07 -20.649887
v -16.283564 22.07 -26.250113
v -17.858727 21.770908 -19.905172
v -14.828564 21.770908 -25.287443
v -16.101658 21.438585 -19.084925
v -13.215957 21.438585 -24.2106
v -14.273564 21.106262 -18.390833
v -11.674374 21.106262 -23.007595
v -12.515367 20.603031 -17.610826
v -10.095586 20.603031 -21.908915
v -10.950584 19.985859 -16.512756
v -8.345175 19.985859 -21.140564
v -9.061814 19.368687 -15.990164
v -6.9187527 19.368687 -19.796736
v -7.5227737 18.83697 -14.827252
v -5.1262555 18.83697 -19.084024
v -5.7452464 18.504646 -14.0433445
v -3.5341063 18.504646 -17.970842
v -3.9525077 18.172323 -13.286454
v -1.9571686 18.172323 -16.830637
v -2.3164203 17.84 -12.251314
v -0.2235794 17.84 -15.968684
v -1.0992371 17.84 -12.137146
v 0.50532717 17.84 -14.987225
v -0.34908414 17.84 -12.526771
v 0.5612711 17.84 -14.143777
v -20.76639 22.07 -23.526962
v -20.76639 -57.93 -23.526962
v -20.741344 22.07 -22.036875
v -20.741344 -57.93 -22.036875
v -20.741344 22.07 -22.036875
v -20.741344 -57.93 -22.036875
v -19.436436 22.07 -20.649887
v -19.436436 -57.93 -20.649887
v -19.436436 22.07 -20.649887
v -19.436436 -57.93 -20.649887
v -17.858727 21.770908 -19.905172
v -17.858727 -58.22909 -19.905172
v -17.858727 21.770908 -19.905172
v -17.858727 -58.22909 -19.905172
v -16.101658 21.438585 -19.084925
v -16.101658 -58.561417 -19.084925
v -16.101658 21.438585 -19.084925
v -16.101658 -58.561417 -19.084925
v -14.273564 21.106262 -18.390833
v -14.273564 -58.893738 -18.390833
v -14.273564 21.106262 -18.390833
v -14.273564 -58.893738 -18.390833
v -12.515367 20.603031 -17.610826
v -12.515367 -59.39697 -17.610826
v -12.515367 20.603031 -17.610826
v -12.515367 -59.39697 -17.610826
v -10.950584 19.985859 -16.512756
v -10.950584 -60.01414 -16.512756
v -10.950584 19.985859 -16.512756
v -10.950584 -60.01414 -16.512756
v -9.061814 19.368687 -15.990164
v -9.061814 -60.631313 -15.990164
v -9.061814 19.368687 -15.990164
v -9.061814 -60.631313 -15.990164
v -7.5227737 18.83697 -14.827252
v -7.5227737 -61.163033 -14.827252
v -7.5227737 18.83697 -14.827252
v -7.5227737 -61.163033 -14.827252
v -5.7452464 18.504646 -14.0433445
v -5.7452464 -61.495354 -14.0433445
v -5.7452464 18.504646 -14.0433445
v -5.7452464 -61.495354 -14.0433445
v -3.9525077 18.172323 -13.286454
v -3.9525077 -61.827675 -13.286454
v -3.9525077 18.172323 -13.286454
v -3.9525077 -61.827675 -13.286454
v -2.3164203 17.84 -12.251314
v -2.3164203 -62.16 -12.251314
v -2.3164203 17.84 -12.251314
v -2.3164203 -62.16 -12.251314
v -1.0992371 17.84 -12.137146
v -1.0992371 -62.16 -12.137146
v -1.0992371 17.84 -12.137146
v -1.0992371 -62.16 -12.137146
v -0.34908414 17.84 -12.526771
v -0.34908414 -62.16 -12.526771
v -19.433207 22.07 -25.895006
v -19.433207 -57.93 -25.895006
v -18.14621 22.07 -26.64643
v -18.14621 -57.93 -26.64643
v -18.14621 22.07 -26.64643
v -18.14621 -57.93 -26.64643
v -16.283564 22.07 -26.250113
v -16.283564 -57.93 -26.250113
v -16.283564 22.07 -26.250113
v -16.283564 -57.93 -26.250113
v -14.828564 21.770908 -25.287443
v -14.828564 -58.22909 -25.287443
v -14.828564 21.770908 -25.287443
v -14.828564 -58.22909 -25.287443
v -13.215957 21.438585 -24.2106
v -13.215957 -58.561417 -24.2106
v -13.215957 21.438585 -24.2106
v -13.215957 -58.561417 -24.2106
v -11.674374 21.106262 -23.007595
v -11.674374 -58.893738 -23.007595
v -11.674374 21.106262 -23.007595
v -11.674374 -58.893738 -23.007595
v -10.095586 20.603031 -21.908915
v -10.095586 -59.39697 -21.908915
v -10.095586 20.603031 -21.908915
v -10.095586 -59.39697 -21.908915
v -8.345175 19.985859 -21.140564
v -8.345175 -60.01414 -21.140564
v -8.345175 19.985859 -21.140564
v -8.345175 -60.01414 -21.140564
v -6.9187527 19.368687 -19.796736
v -6.9187527 -60.631313 -19.796736
v -6.9187527 19.368687 -19.796736
v -6.9187527 -60.631313 -19.796736
v -5.1262555 18.83697 -19.084024
v -5.1262555 -61.163033 -19.084024
v -5.1262555 18.83697 -19.084024
v -5.1262555 -61.163033 -19.084024
v -3.5341063 18.504646 -17.970842
v -3.5341063 -61.495354 -17.970842
v -3.5341063 18.504646 -17.970842
v -3.5341063 -61.495354 -17.970842
v -1.9571686 18.172323 -16.830637
v -1.9571686 -61.827675 -16.830637
v -1.9571686 18.172323 -16.830637
v -1.9571686 -61.827675 -16.830637
v -0.2235794 17.84 -15.968684
v -0.2235794 -62.16 -15.968684
v -0.2235794 17.84 -15.968684
v -0.2235794 -62.16 -15.968684
v 0.50532717 17.84 -14.987225
v 0.50532717 -62.16 -14.987225
v 0.50532717 17.84 -14.987225
v 0.50532717 -62.16 -14.987225
v 0.5612711 17.84 -14.143777
v 0.5612711 -62.16 -14.143777
vt 0.034516413 -0.0024391308
vt 0.03400927 -0.0051089283
vt 0.034016818 -0.0010350671
vt 0.033029635 -0.006232007
vt 0.032337304 -0.00013742871
vt 0.031137958 -0.0064512785
vt 0.030604385 6.444931E-05
vt 0.029451717 -0.0060036713
vt 0.028677376 0.0002806267
vt 0.027579661 -0.0054982007
vt 0.026723348 0.00035457234
vt 0.025734622 -0.0048504933
vt 0.02480812 0.0005322551
vt 0.023887642 -0.0043135285
vt 0.022974607 0.001073114
vt 0.021983514 -0.0041444045
vt 0.021017848 0.0009651636
vt 0.020202631 -0.003326471
vt 0.019188022 0.0015756891
vt 0.018276392 -0.0032235133
vt 0.01725323 0.0017508961
vt 0.016412118 -0.0026770735
vt 0.015312651 0.0018956424
vt 0.014553629 -0.0021001673
vt 0.013431663 0.002354095
vt 0.012635551 -0.0018369706
vt 0.012241755 0.0020735778
vt 0.011631383 -0.0011396792
vt 0.011655309 0.001464794
vt 0.011309014 -0.00035826277
vt 0.034516413 -0.0024391308
vt 0.034516413 -0.0024391308
vt 0.034016818 -0.0010350671
vt 0.034016818 -0.0010350671
vt 0.034016818 -0.0010350671
vt 0.034016818 -0.0010350671
vt 0.032337304 -0.00013742871
vt 0.032337304 -0.00013742871
vt 0.032337304 -0.00013742871
vt 0.032337304 -0.00013742871
vt 0.030604385 6.444931E-05
vt 0.030604385 6.444931E-05
vt 0.030604385 6.444931E-05
vt 0.030604385 6.444931E-05
vt 0.028677376 0.0002806267
vt 0.028677376 0.0002806267
vt 0.028677376 0.0002806267
vt 0.028677376 0.0002806267
vt 0.026723348 0.00035457234
vt 0.026723348 0.00035457234
vt 0.026723348 0.00035457234
vt 0.026723348 0.00035457234
vt 0.02480812 0.0005322551
vt 0.02480812 0.0005322551
vt 0.02480812 0.0005322551
vt 0.02480812 0.0005322551
vt 0.022974607 0.001073114
vt 0.022974607 0.001073114
vt 0.022974607 0.001073114
vt 0.022974607 0.001073114
vt 0.021017848 0.0009651636
vt 0.021017848 0.0009651636
vt 0.021017848 0.0009651636
vt 0.021017848 0.0009651636
vt 0.019188022 0.0015756891
vt 0.019188022 0.0015756891
vt 0.019188022 0.0015756891
vt 0.019188022 0.0015756891
vt 0.01725323 0.0017508961
vt 0.01725323 0.0017508961
vt 0.01725323 0.0017508961
vt 0.01725323 0.0017508961
vt 0.015312651 0.0018956424
vt 0.015312651 0.0018956424
vt 0.015312651 0.0018956424
vt 0.015312651 0.0018956424
vt 0.013431663 0.002354095
vt 0.013431663 0.002354095
vt 0.013431663 0.002354095
vt 0.013431663 0.002354095
vt 0.012241755 0.0020735778
vt 0.012241755 0.0020735778
vt 0.012241755 0.0020735778
vt 0.012241755 0.0020735778
vt 0.011655309 0.001464794
vt 0.011655309 0.001464794
vt 0.03400927 -0.0051089283
vt 0.03400927 -0.0051089283
vt 0.033029635 -0.006232007
vt 0.033029635 -0.006232007
vt 0.033029635 -0.006232007
vt 0.033029635 -0.006232007
vt 0.031137958 -0.0064512785
vt 0.031137958 -0.0064512785
vt 0.031137958 -0.0064512785
vt 0.031137958 -0.0064512785
vt 0.029451717 -0.0060036713
vt 0.029451717 -0.0060036713
vt 0.029451717 -0.0060036713
vt 0.029451717 -0.0060036713
vt 0.027579661 -0.0054982007
vt 0.027579661 -0.0054982007
vt 0.027579661 -0.0054982007
vt 0.027579661 -0.0054982007
vt 0.025734622 -0.0048504933
vt 0.025734622 -0.0048504933
vt 0.025734622 -0.0048504933
vt 0.025734622 -0.0048504933
vt 0.023887642 -0.0043135285
vt 0.023887642 -0.0043135285
vt 0.023887642 -0.0043135285
vt 0.023887642 -0.0043135285
vt 0.021983514 -0.0041444045
vt 0.021983514 -0.0041444045
vt 0.021983514 -0.0041444045
vt 0.021983514 -0.0041444045
vt 0.020202631 -0.003326471
vt 0.020202631 -0.003326471
vt 0.020202631 -0.003326471
vt 0.020202631 -0.003326471
vt 0.018276392 -0.0032235133
vt 0.018276392 -0.0032235133
vt 0.018276392 -0.0032235133
vt 0.018276392 -0.0032235133
vt 0.016412118 -0.0026770735
vt 0.016412118 -0.0026770735
vt 0.016412118 -0.0026770735
vt 0.016412118 -0.0026770735
vt 0.014553629 -0.0021001673
vt 0.014553629 -0.0021001673
vt 0.014553629 -0.0021001673
vt 0.014553629 -0.0021001673
vt 0.012635551 -0.0018369706
vt 0.012635551 -0.0018369706
vt 0.012635551 -0.0018369706
vt 0.012635551 -0.0018369706
vt 0.011631383 -0.0011396792
vt 0.011631383 -0.0011396792
vt 0.011631383 -0.0011396792
vt 0.011631383 -0.0011396792
vt 0.011309014 -0.00035826277
vt 0.011309014 -0.00035826277
vn -0 1 0
vn -0 1 0
vn -0 1 0
vn -0 1 0
vn -0 1 0
vn -0 1 0
vn -0 1 0
vn -0 1 0
vn -0 1 0
vn -0 1 0
vn -0 1 0
vn -0 1 0
vn -0 1 0
vn -0 1 0
vn -0 1 0
vn -0 1 0
vn -0 1 0
vn -0 1 0
vn -0 1 0
vn -0 1 0
vn -0 1 0
vn -0 1 0
vn -0 1 0
vn -0 1 0
vn -0 1 0
vn -0 1 0
vn -0 1 0
vn -0 1 0
vn -0 1 0
vn -0 1 0
vn -0.87139326 0 -0.49058506
vn -0.87139326 0 -0.49058506
vn -0.9998588 0 0.016805628
vn -0.9998588 0 0.016805628
vn -0.72832876 -0 0.6852279
vn -0.72832876 0 0.6852279
vn -0.72832876 0 0.6852279
vn -0.72832876 0 0.6852279
vn -0.42685884 -0 0.9043182
vn -0.42685884 0 0.9043182
vn -0.42685884 0 0.9043182
vn -0.42685884 0 0.9043182
vn -0.42300498 -0 0.90612733
vn -0.42300498 0 0.90612733
vn -0.42300498 0 0.90612733
vn -0.42300498 0 0.90612733
vn -0.3549569 -0 0.93488264
vn -0.3549569 0 0.93488264
vn -0.3549569 0 0.93488264
vn -0.3549569 0 0.93488264
vn -0.4055241 -0 0.9140843
vn -0.4055241 0 0.9140843
vn -0.4055241 0 0.9140843
vn -0.4055241 0 0.9140843
vn -0.5744178 -0 0.81856227
vn -0.5744178 0 0.81856227
vn -0.5744178 0 0.81856227
vn -0.5744178 0 0.81856227
vn -0.2666651 -0 0.9637892
vn -0.2666651 0 0.9637892
vn -0.2666651 0 0.9637892
vn -0.2666651 0 0.9637892
vn -0.60285974 -0 0.79784715
vn -0.60285974 0 0.79784715
vn -0.60285974 0 0.79784715
vn -0.60285974 0 0.79784715
vn -0.40351298 -0 0.914974
vn -0.40351298 0 0.914974
vn -0.40351298 0 0.914974
vn -0.40351298 0 0.914974
vn -0.3889529 -0 0.9212576
vn -0.3889529 0 0.9212576
vn -0.3889529 0 0.9212576
vn -0.3889529 0 0.9212576
vn -0.5346654 -0 0.8450638
vn -0.5346654 0 0.8450638
vn -0.5346654 0 0.8450638
vn -0.5346654 0 0.8450638
vn -0.09338713 -0 0.9956299
vn -0.09338713 0 0.9956299
vn -0.09338713 0 0.9956299
vn -0.09338713 0 0.9956299
vn 0.46092904 0 0.887437
vn 0.46092904 0 0.887437
vn 0.8713938 0 0.49058425
vn 0.8713938 0 0.49058425
vn -0.87139326 0 -0.49058506
vn -0.87139326 0 -0.49058506
vn -0.5042088 0 -0.8635818
vn -0.5042088 0 -0.8635818
vn 0.20811209 0 -0.978105
vn 0.20811209 -0 -0.978105
vn 0.20811209 -0 -0.978105
vn 0.20811209 -0 -0.978105
vn 0.55178785 0 -0.83398443
vn 0.55178785 -0 -0.83398443
vn 0.55178785 -0 -0.83398443
vn 0.55178785 -0 -0.83398443
vn 0.55533266 0 -0.8316283
vn 0.55533266 -0 -0.8316283
vn 0.55533266 -0 -0.8316283
vn 0.55533266 -0 -0.8316283
vn 0.61521304 0 -0.7883609
vn 0.61521304 -0 -0.7883609
vn 0.61521304 -0 -0.7883609
vn 0.61521304 -0 -0.7883609
vn 0.5712023 0 -0.8208093
vn 0.5712023 -0 -0.8208093
vn 0.5712023 -0 -0.8208093
vn 0.5712023 -0 -0.8208093
vn 0.4019363 0 -0.9156676
vn 0.4019363 -0 -0.9156676
vn 0.4019363 -0 -0.9156676
vn 0.4019363 -0 -0.9156676
vn 0.68571997 0 -0.72786546
vn 0.68571997 -0 -0.72786546
vn 0.68571997 -0 -0.72786546
vn 0.68571997 -0 -0.72786546
vn 0.36947376 0 -0.9292412
vn 0.36947376 -0 -0.9292412
vn 0.36947376 -0 -0.9292412
vn 0.36947376 -0 -0.9292412
vn 0.5730054 0 -0.8195516
vn 0.5730054 -0 -0.8195516
vn 0.5730054 -0 -0.8195516
vn 0.5730054 -0 -0.8195516
vn 0.58593154 0 -0.8103606
vn 0.58593154 -0 -0.8103606
vn 0.58593154 -0 -0.8103606
vn 0.58593154 -0 -0.8103606
vn 0.44521177 0 -0.89542526
vn 0.44521177 -0 -0.89542526
vn 0.44521177 -0 -0.89542526
vn 0.44521177 -0 -0.89542526
vn 0.8028134 0 -0.5962303
vn 0.8028134 -0 -0.5962303
vn 0.8028134 -0 -0.5962303
vn 0.8028134 -0 -0.5962303
vn 0.99780756 0 -0.06618223
vn 0.99780756 -0 -0.06618223
vn 0.8713938 0 0.49058425
vn 0.8713938 0 0.49058425
g _0
f 3/3/3 2/2/2 1/1/1
f 2/2/2 3/3/3 4/4/4
f 5/5/5 4/4/4 3/3/3
f 4/4/4 5/5/5 6/6/6
f 7/7/7 6/6/6 5/5/5
f 6/6/6 7/7/7 8/8/8
f 9/9/9 8/8/8 7/7/7
f 8/8/8 9/9/9 10/10/10
f 11/11/11 10/10/10 9/9/9
f 10/10/10 11/11/11 12/12/12
f 13/13/13 12/12/12 11/11/11
f 12/12/12 13/13/13 14/14/14
f 15/15/15 14/14/14 13/13/13
f 14/14/14 15/15/15 16/16/16
f 17/17/17 16/16/16 15/15/15
f 16/16/16 17/17/17 18/18/18
f 19/19/19 18/18/18 17/17/17
f 18/18/18 19/19/19 20/20/20
f 21/21/21 20/20/20 19/19/19
f 20/20/20 21/21/21 22/22/22
f 23/23/23 22/22/22 21/21/21
f 22/22/22 23/23/23 24/24/24
f 25/25/25 24/24/24 23/23/23
f 24/24/24 25/25/25 26/26/26
f 27/27/27 26/26/26 25/25/25
f 26/26/26 27/27/27 28/28/28
f 29/29/29 28/28/28 27/27/27
f 28/28/28 29/29/29 30/30/30
g _1
f 31/31/31 32/32/32 33/33/33
f 34/34/34 33/33/33 32/32/32
f 35/35/35 36/36/36 37/37/37
f 38/38/38 37/37/37 36/36/36
f 39/39/39 40/40/40 41/41/41
f 42/42/42 41/41/41 40/40/40
f 43/43/43 44/44/44 45/45/45
f 46/46/46 45/45/45 44/44/44
f 47/47/47 48/48/48 49/49/49
f 50/50/50 49/49/49 48/48/48
f 51/51/51 52/52/52 53/53/53
f 54/54/54 53/53/53 52/52/52
f 55/55/55 56/56/56 57/57/57
f 58/58/58 57/57/57 56/56/56
f 59/59/59 60/60/60 61/61/61
f 62/62/62 61/61/61 60/60/60
f 63/63/63 64/64/64 65/65/65
f 66/66/66 65/65/65 64/64/64
f 67/67/67 68/68/68 69/69/69
f 70/70/70 69/69/69 68/68/68
f 71/71/71 72/72/72 73/73/73
f 74/74/74 73/73/73 72/72/72
f 75/75/75 76/76/76 77/77/77
f 78/78/78 77/77/77 76/76/76
f 79/79/79 80/80/80 81/81/81
f 82/82/82 81/81/81 80/80/80
f 83/83/83 84/84/84 85/85/85
f 86/86/86 85/85/85 84/84/84
f 89/89/89 88/88/88 87/87/87
f 88/88/88 89/89/89 90/90/90
f 93/93/93 92/92/92 91/91/91
f 92/92/92 93/93/93 94/94/94
f 97/97/97 96/96/96 95/95/95
f 96/96/96 97/97/97 98/98/98
f 101/101/101 100/100/100 99/99/99
f 100/100/100 101/101/101 102/102/102
f 105/105/105 104/104/104 103/103/103
f 104/104/104 105/105/105 106/106/106
f 109/109/109 108/108/108 107/107/107
f 108/108/108 109/109/109 110/110/110
f 113/113/113 112/112/112 111/111/111
f 112/112/112 113/113/113 114/114/114
f 117/117/117 116/116/116 115/115/115
f 116/116/116 117/117/117 118/118/118
f 121/121/121 120/120/120 119/119/119
f 120/120/120 121/121/121 122/122/122
f 125/125/125 124/124/124 123/123/123
f 124/124/124 125/125/125 126/126/126
f 129/129/129 128/128/128 127/127/127
f 128/128/128 129/129/129 130/130/130
f 133/133/133 132/132/132 131/131/131
f 132/132/132 133/133/133 134/134/134
f 137/137/137 136/136/136 135/135/135
f 136/136/136 137/137/137 138/138/138
f 141/141/141 140/140/140 139/139/139
f 140/140/140 141/141/141 142/142/142
f 87/87/87 32/32/32 31/31/31
f 32/32/32 87/87/87 88/88/88
f 85/85/85 86/86/86 141/141/141
f 142/142/142 141/141/141 86/86/86
