g 
v 56.13 59.3564 103.05
v 56.13 45.3564 103.05
v 54.691315 59.3564 102.87129
v 54.691315 45.3564 102.87129
v 49.726833 59.3564 109.530266
v 49.726833 45.3564 109.530266
v 50.35718 59.580986 114.63553
v 50.35718 45.580986 114.63553
v 55.07695 59.580986 114.67866
v 55.07695 45.580986 114.67866
v 55.895424 51.80658 132.22546
v 55.895424 37.80658 132.22546
v 59.12245 51.80658 135.85867
v 59.12245 37.80658 135.85867
v 62.661133 51.80658 136.04674
v 62.661133 37.80658 136.04674
v 67.98855 51.80658 133.11037
v 67.98855 37.80658 133.11037
v 68.938354 51.80658 129.73564
v 68.938354 37.80658 129.73564
v 78.27978 51.80658 132.8096
v 78.27978 37.80658 132.8096
v 77.2023 51.80658 135.36589
v 77.2023 37.80658 135.36589
v 79.71786 51.80658 137.05356
v 79.71786 37.80658 137.05356
v 80.20318 51.80658 143.61687
v 80.20318 37.80658 143.61687
v 84.46735 51.80658 143.02231
v 84.46735 37.80658 143.02231
v 86.49237 51.80658 145.20215
v 86.49237 37.80658 145.20215
v 86.61675 51.80658 147.59944
v 86.61675 37.80658 147.59944
v 90.975655 51.80658 149.51355
v 90.975655 37.80658 149.51355
v 92.683334 51.7983 154.164
v 92.683334 37.7983 154.164
v 89.259346 51.80658 158.77388
v 89.259346 37.80658 158.77388
v 77.44126 51.80658 161.43393
v 77.44126 37.80658 161.43393
v 76.14623 51.80658 160.16882
v 76.14623 37.80658 160.16882
v 68.414215 51.80658 157.20343
v 68.414215 37.80658 157.20343
v 64.824234 51.80658 150.80035
v 64.824234 37.80658 150.80035
v 63.039795 51.80658 149.21773
v 63.039795 37.80658 149.21773
v 63.487442 51.80658 146.62253
v 63.487442 37.80658 146.62253
v 60.995617 51.80658 146.13316
v 60.995617 37.80658 146.13316
v 57.92928 51.80658 149.26198
v 57.92928 37.80658 149.26198
v 57.987217 51.80658 151.60246
v 57.987217 37.80658 151.60246
v 55.497322 51.80658 153.41426
v 55.497322 37.80658 153.41426
v 53.97273 51.80658 151.53912
v 53.97273 37.80658 151.53912
v 49.827057 51.80658 158.7493
v 49.827057 37.80658 158.7493
v 53.26377 51.80658 160.65054
v 53.26377 37.80658 160.65054
v 51.831444 51.80658 163.68427
v 51.831444 37.80658 163.68427
v 57.20672 51.80658 165.06584
v 57.20672 37.80658 165.06584
v 56.706665 48.972496 173.921
v 56.706665 34.972496 173.921
v 23.530033 49.351135 173.11974
v 23.530033 35.351135 173.11974
v 22.714277 51.80658 165.9047
v 22.714277 37.80658 165.9047
v 24.45934 51.80658 159.68832
v 24.45934 37.80658 159.68832
v 22.99201 51.80658 158.94138
v 22.99201 37.80658 158.94138
v 19.08595 51.80658 158.04109
v 19.08595 37.80658 158.04109
v 18.23127 51.80658 155.6145
v 18.23127 37.80658 155.6145
v 23.645527 51.80658 155.04662
v 23.645527 37.80658 155.04662
v 26.519543 51.80658 151.5619
v 26.519543 37.80658 151.5619
v 24.771582 51.80658 147.37158
v 24.771582 37.80658 147.37158
v 26.122753 51.80658 143.69568
v 26.122753 37.80658 143.69568
v 23.523466 51.80658 143.75383
v 23.523466 37.80658 143.75383
v 21.417566 51.80658 144.90036
v 21.417566 37.80658 144.90036
v 20.148624 51.80658 140.09828
v 20.148624 37.80658 140.09828
v 18.395845 51.80658 137.50003
v 18.395845 37.80658 137.50003
v 21.299475 51.80658 133.90268
v 21.299475 37.80658 133.90268
v 21.340342 53.259674 129.46849
v 21.340342 39.259674 129.46849
v 21.55094 55.75408 124.18984
v 21.55094 41.75408 124.18984
v 22.300325 59.580986 113.41358
v 22.300325 45.580986 113.41358
v 21.958378 59.3564 101.028824
v 21.958378 45.3564 101.028824
v 25.872854 59.3564 96.24496
v 25.872854 45.3564 96.24496
v 27.81201 59.3564 93.514595
v 27.81201 45.3564 93.514595
v 26.336407 59.3564 91.80371
v 26.336407 45.3564 91.80371
v 26.146124 59.3564 88.90375
v 26.146124 45.3564 88.90375
v 25.264074 59.3564 87.39585
v 25.264074 45.3564 87.39585
v 24.049992 59.3564 84.05838
v 24.049992 45.3564 84.05838
v 21.35 59.3564 81.99
v 21.35 45.3564 81.99
vt -0.5823 0.91749996
vt -0.5823 0.91749996
vt -0.5679131 0.9157129
vt -0.5679131 0.9157129
vt -0.5182683 0.9823026
vt -0.5182683 0.9823026
vt -0.5245718 1.0333552
vt -0.5245718 1.0333552
vt -0.5717695 1.0337865
vt -0.5717695 1.0337865
vt -0.5799542 1.2092546
vt -0.5799542 1.2092546
vt -0.61222446 1.2455866
vt -0.61222446 1.2455866
vt -0.6476113 1.2474673
vt -0.6476113 1.2474673
vt -0.7008855 1.2181036
vt -0.7008855 1.2181036
vt -0.71038353 1.1843563
vt -0.71038353 1.1843563
vt -0.8037977 1.215096
vt -0.8037977 1.215096
vt -0.793023 1.2406589
vt -0.793023 1.2406589
vt -0.81817853 1.2575356
vt -0.81817853 1.2575356
vt -0.8230317 1.3231686
vt -0.8230317 1.3231686
vt -0.8656734 1.3172231
vt -0.8656734 1.3172231
vt -0.8859237 1.3390214
vt -0.8859237 1.3390214
vt -0.8871675 1.3629943
vt -0.8871675 1.3629943
vt -0.9307565 1.3821354
vt -0.9307565 1.3821354
vt -0.9478333 1.42864
vt -0.9478333 1.42864
vt -0.9135934 1.4747387
vt -0.9135934 1.4747387
vt -0.7954126 1.5013392
vt -0.7954126 1.5013392
vt -0.7824623 1.4886881
vt -0.7824623 1.4886881
vt -0.70514214 1.4590342
vt -0.70514214 1.4590342
vt -0.6692423 1.3950034
vt -0.6692423 1.3950034
vt -0.65139794 1.3791772
vt -0.65139794 1.3791772
vt -0.6558744 1.3532252
vt -0.6558744 1.3532252
vt -0.6309561 1.3483316
vt -0.6309561 1.3483316
vt -0.60029274 1.3796197
vt -0.60029274 1.3796197
vt -0.60087216 1.4030246
vt -0.60087216 1.4030246
vt -0.5759732 1.4211426
vt -0.5759732 1.4211426
vt -0.56072724 1.4023912
vt -0.56072724 1.4023912
vt -0.51927054 1.4744929
vt -0.51927054 1.4744929
vt -0.5536377 1.4935054
vt -0.5536377 1.4935054
vt -0.5393144 1.5238426
vt -0.5393144 1.5238426
vt -0.59306717 1.5376583
vt -0.59306717 1.5376583
vt -0.58806664 1.62621
vt -0.58806664 1.62621
vt -0.25630033 1.6181973
vt -0.25630033 1.6181973
vt -0.24814276 1.5460469
vt -0.24814276 1.5460469
vt -0.26559338 1.4838831
vt -0.26559338 1.4838831
vt -0.2509201 1.4764137
vt -0.2509201 1.4764137
vt -0.21185951 1.4674108
vt -0.21185951 1.4674108
vt -0.2033127 1.4431449
vt -0.2033127 1.4431449
vt -0.25745526 1.4374661
vt -0.25745526 1.4374661
vt -0.28619543 1.402619
vt -0.28619543 1.402619
vt -0.26871583 1.3607157
vt -0.26871583 1.3607157
vt -0.28222752 1.3239567
vt -0.28222752 1.3239567
vt -0.25623465 1.3245382
vt -0.25623465 1.3245382
vt -0.23517565 1.3360035
vt -0.23517565 1.3360035
vt -0.22248624 1.2879827
vt -0.22248624 1.2879827
vt -0.20495845 1.2620002
vt -0.20495845 1.2620002
vt -0.23399475 1.2260268
vt -0.23399475 1.2260268
vt -0.23440342 1.1816849
vt -0.23440342 1.1816849
vt -0.2365094 1.1288984
vt -0.2365094 1.1288984
vt -0.24400325 1.0211358
vt -0.24400325 1.0211358
vt -0.24058378 0.8972882
vt -0.24058378 0.8972882
vt -0.27972853 0.8494495
vt -0.27972853 0.8494495
vt -0.2991201 0.8221459
vt -0.2991201 0.8221459
vt -0.28436407 0.8050371
vt -0.28436407 0.8050371
vt -0.28246123 0.77603745
vt -0.28246123 0.77603745
vt -0.27364075 0.7609585
vt -0.27364075 0.7609585
vt -0.2614999 0.72758377
vt -0.2614999 0.72758377
vt -0.2345 0.70689994
vt -0.2345 0.70689994
vn 0.123270735 0 -0.9923731
vn 0.123270735 -0 -0.9923731
vn -0.8017159 0 -0.5977053
vn -0.8017159 0 -0.5977053
vn -0.9924636 -0 0.12253975
vn -0.9924636 0 0.12253975
vn -0.00913756 -0 0.9999582
vn -0.00913756 0 0.9999582
vn -0.9989139 -0 0.04659451
vn -0.9989139 0 0.04659451
vn -0.74766386 -0 0.6640774
vn -0.74766386 0 0.6640774
vn -0.053070493 -0 0.9985907
vn -0.053070493 0 0.9985907
vn 0.48271275 0 0.8757788
vn 0.48271275 0 0.8757788
vn 0.96260154 0 0.2709213
vn 0.96260154 0 0.2709213
vn -0.31257862 -0 0.9498919
vn -0.31257862 0 0.9498919
vn -0.9214878 0 -0.38840726
vn -0.9214878 0 -0.38840726
vn -0.5571273 -0 0.8304271
vn -0.5571273 0 0.8304271
vn -0.9972773 -0 0.07374324
vn -0.9972773 0 0.07374324
vn 0.13809545 0 0.9904189
vn 0.13809545 0 0.9904189
vn -0.7326448 -0 0.6806112
vn -0.7326448 0 0.6806112
vn -0.99865675 -0 0.051814668
vn -0.99865675 0 0.051814668
vn -0.40206826 -0 0.9156097
vn -0.40206826 0 0.9156097
vn -0.93871224 -0 0.34470198
vn -0.93871224 0 0.34470198
vn -0.8027849 0 -0.5962687
vn -0.8027849 0 -0.5962687
vn -0.21958922 0 -0.97559243
vn -0.21958922 0 -0.97559243
vn 0.6987945 0 -0.7153225
vn 0.6987945 -0 -0.7153225
vn 0.358089 0 -0.9336875
vn 0.358089 -0 -0.9336875
vn 0.8722586 0 -0.48904493
vn 0.8722586 -0 -0.48904493
vn 0.6635339 0 -0.7481462
vn 0.6635339 -0 -0.7481462
vn 0.9854475 0 0.16998026
vn 0.9854475 0 0.16998026
vn 0.19270699 0 -0.9812563
vn 0.19270699 -0 -0.9812563
vn -0.7142015 0 -0.69994015
vn -0.7142015 0 -0.69994015
vn -0.9996938 -0 0.02474696
vn -0.9996938 0 0.02474696
vn -0.58837676 0 -0.8085869
vn -0.58837676 0 -0.8085869
vn 0.77590245 0 -0.6308529
vn 0.77590245 -0 -0.6308529
vn -0.8669156 0 -0.49845502
vn -0.8669156 0 -0.49845502
vn -0.48407775 -0 0.875025
vn -0.48407775 0 0.875025
vn -0.90427893 0 -0.42694202
vn -0.90427893 0 -0.42694202
vn -0.24893337 -0 0.9685206
vn -0.24893337 0 0.9685206
vn -0.99840933 0 -0.05638044
vn -0.99840933 0 -0.05638044
vn 0.024144584 0 -0.9997085
vn 0.024144584 -0 -0.9997085
vn 0.99366903 0 -0.11234741
vn 0.99366903 -0 -0.11234741
vn 0.9627837 0 0.27027303
vn 0.9627837 0 0.27027303
vn 0.4536562 0 -0.89117676
vn 0.4536562 -0 -0.89117676
vn 0.22459553 0 -0.9744521
vn 0.22459553 -0 -0.9744521
vn 0.9432051 0 -0.33221084
vn 0.9432051 -0 -0.33221084
vn 0.10431498 0 0.99454427
vn 0.10431498 0 0.99454427
vn 0.77146786 0 0.63626826
vn 0.77146786 0 0.63626826
vn 0.922921 0 -0.3849894
vn 0.922921 -0 -0.3849894
vn 0.93860036 0 0.34500638
vn 0.93860036 0 0.34500638
vn -0.0223664 0 -0.99974984
vn -0.0223664 0 -0.99974984
vn -0.47816336 0 -0.8782709
vn -0.47816336 0 -0.8782709
vn 0.9668145 0 -0.25547928
vn 0.9668145 -0 -0.25547928
vn 0.8290026 0 -0.55924475
vn 0.8290026 -0 -0.55924475
vn 0.77814454 0 0.62808526
vn 0.77814454 0 0.62808526
vn 0.99995756 0 0.009215917
vn 0.99995756 0 0.009215917
vn 0.99920505 0 0.03986448
vn 0.99920505 0 0.03986448
vn 0.9975908 0 0.0693729
vn 0.9975908 0 0.0693729
vn 0.99961907 0 -0.027599838
vn 0.99961907 -0 -0.027599838
vn 0.7739253 0 0.6332769
vn 0.7739253 0 0.6332769
vn 0.81529856 0 0.5790407
vn 0.81529856 0 0.5790407
vn 0.7572561 0 -0.65311813
vn 0.7572561 -0 -0.65311813
vn 0.9978543 0 -0.0654748
vn 0.9978543 -0 -0.0654748
vn 0.86316955 0 -0.5049142
vn 0.86316955 -0 -0.5049142
vn 0.9397521 0 -0.3418567
vn 0.9397521 -0 -0.3418567
vn 0.6081332 0 -0.79383504
vn 0.6081332 -0 -0.79383504
vn 0.6081332 -0 -0.79383504
vn 0.6081332 -0 -0.79383504
g _0
f 1/1/1 2/2/2 3/3/3
f 4/4/4 3/3/3 2/2/2
f 3/3/3 4/4/4 5/5/5
f 6/6/6 5/5/5 4/4/4
f 5/5/5 6/6/6 7/7/7
f 8/8/8 7/7/7 6/6/6
f 7/7/7 8/8/8 9/9/9
f 10/10/10 9/9/9 8/8/8
f 9/9/9 10/10/10 11/11/11
f 12/12/12 11/11/11 10/10/10
f 11/11/11 12/12/12 13/13/13
f 14/14/14 13/13/13 12/12/12
f 13/13/13 14/14/14 15/15/15
f 16/16/16 15/15/15 14/14/14
f 15/15/15 16/16/16 17/17/17
f 18/18/18 17/17/17 16/16/16
f 17/17/17 18/18/18 19/19/19
f 20/20/20 19/19/19 18/18/18
f 19/19/19 20/20/20 21/21/21
f 22/22/22 21/21/21 20/20/20
f 21/21/21 22/22/22 23/23/23
f 24/24/24 23/23/23 22/22/22
f 23/23/23 24/24/24 25/25/25
f 26/26/26 25/25/25 24/24/24
f 25/25/25 26/26/26 27/27/27
f 28/28/28 27/27/27 26/26/26
f 27/27/27 28/28/28 29/29/29
f 30/30/30 29/29/29 28/28/28
f 29/29/29 30/30/30 31/31/31
f 32/32/32 31/31/31 30/30/30
f 31/31/31 32/32/32 33/33/33
f 34/34/34 33/33/33 32/32/32
f 33/33/33 34/34/34 35/35/35
f 36/36/36 35/35/35 34/34/34
f 35/35/35 36/36/36 37/37/37
f 38/38/38 37/37/37 36/36/36
f 37/37/37 38/38/38 39/39/39
f 40/40/40 39/39/39 38/38/38
f 39/39/39 40/40/40 41/41/41
f 42/42/42 41/41/41 40/40/40
f 41/41/41 42/42/42 43/43/43
f 44/44/44 43/43/43 42/42/42
f 43/43/43 44/44/44 45/45/45
f 46/46/46 45/45/45 44/44/44
f 45/45/45 46/46/46 47/47/47
f 48/48/48 47/47/47 46/46/46
f 47/47/47 48/48/48 49/49/49
f 50/50/50 49/49/49 48/48/48
f 49/49/49 50/50/50 51/51/51
f 52/52/52 51/51/51 50/50/50
f 51/51/51 52/52/52 53/53/53
f 54/54/54 53/53/53 52/52/52
f 53/53/53 54/54/54 55/55/55
f 56/56/56 55/55/55 54/54/54
f 55/55/55 56/56/56 57/57/57
f 58/58/58 57/57/57 56/56/56
f 57/57/57 58/58/58 59/59/59
f 60/60/60 59/59/59 58/58/58
f 59/59/59 60/60/60 61/61/61
f 62/62/62 61/61/61 60/60/60
f 61/61/61 62/62/62 63/63/63
f 64/64/64 63/63/63 62/62/62
f 63/63/63 64/64/64 65/65/65
f 66/66/66 65/65/65 64/64/64
f 65/65/65 66/66/66 67/67/67
f 68/68/68 67/67/67 66/66/66
f 67/67/67 68/68/68 69/69/69
f 70/70/70 69/69/69 68/68/68
f 69/69/69 70/70/70 71/71/71
f 72/72/72 71/71/71 70/70/70
f 71/71/71 72/72/72 73/73/73
f 74/74/74 73/73/73 72/72/72
f 73/73/73 74/74/74 75/75/75
f 76/76/76 75/75/75 74/74/74
f 75/75/75 76/76/76 77/77/77
f 78/78/78 77/77/77 76/76/76
f 77/77/77 78/78/78 79/79/79
f 80/80/80 79/79/79 78/78/78
f 79/79/79 80/80/80 81/81/81
f 82/82/82 81/81/81 80/80/80
f 81/81/81 82/82/82 83/83/83
f 84/84/84 83/83/83 82/82/82
f 83/83/83 84/84/84 85/85/85
f 86/86/86 85/85/85 84/84/84
f 85/85/85 86/86/86 87/87/87
f 88/88/88 87/87/87 86/86/86
f 87/87/87 88/88/88 89/89/89
f 90/90/90 89/89/89 88/88/88
f 89/89/89 90/90/90 91/91/91
f 92/92/92 91/91/91 90/90/90
f 91/91/91 92/92/92 93/93/93
f 94/94/94 93/93/93 92/92/92
f 93/93/93 94/94/94 95/95/95
f 96/96/96 95/95/95 94/94/94
f 95/95/95 96/96/96 97/97/97
f 98/98/98 97/97/97 96/96/96
f 97/97/97 98/98/98 99/99/99
f 100/100/100 99/99/99 98/98/98
f 99/99/99 100/100/100 101/101/101
f 102/102/102 101/101/101 100/100/100
f 101/101/101 102/102/102 103/103/103
f 104/104/104 103/103/103 102/102/102
f 103/103/103 104/104/104 105/105/105
f 106/106/106 105/105/105 104/104/104
f 105/105/105 106/106/106 107/107/107
f 108/108/108 107/107/107 106/106/106
f 107/107/107 108/108/108 109/109/109
f 110/110/110 109/109/109 108/108/108
f 109/109/109 110/110/110 111/111/111
f 112/112/112 111/111/111 110/110/110
f 111/111/111 112/112/112 113/113/113
f 114/114/114 113/113/113 112/112/112
f 113/113/113 114/114/114 115/115/115
f 116/116/116 115/115/115 114/114/114
f 115/115/115 116/116/116 117/117/117
f 118/118/118 117/117/117 116/116/116
f 117/117/117 118/118/118 119/119/119
f 120/120/120 119/119/119 118/118/118
f 119/119/119 120/120/120 121/121/121
f 122/122/122 121/121/121 120/120/120
f 121/121/121 122/122/122 123/123/123
f 124/124/124 123/123/123 122/122/122
