g 
v -22.51 61.0304 -15.43
v -22.51 39.169598 -15.43
v -26.36 61.57258 -22.33
v -26.36 38.62742 -22.33
v -25.58 61.57258 -25.81
v -25.58 38.62742 -25.81
v -27.46 61.57258 -31.76
v -27.46 38.62742 -31.76
v -18.83 61.57258 -31.51
v -18.83 38.62742 -31.51
v -18.34 61.57258 -34.73
v -18.34 38.62742 -34.73
v -15.25 61.57258 -34.18
v -15.25 38.62742 -34.18
v -14.21 61.57258 -36.69
v -14.21 38.62742 -36.69
v -14.52 61.57258 -40.41
v -14.52 38.62742 -40.41
v -18.66 61.57258 -40.69
v -18.66 38.62742 -40.69
v -18.13 61.57258 -43.06
v -18.13 38.62742 -43.06
v -17.38 61.57258 -45.07
v -17.38 38.62742 -45.07
v -14.01 61.57258 -44.35
v -14.01 38.62742 -44.35
v -12.42 61.57258 -45.39
v -12.42 38.62742 -45.39
v -9.95 61.57258 -48.8
v -9.95 38.62742 -48.8
v -2.86 63.93258 -59.21
v -2.86 40.98742 -59.21
v -7.74 63.93258 -62.49
v -7.74 40.98742 -62.49
v -8.04 63.93258 -65.13
v -8.04 40.98742 -65.13
v -15.75 66.40258 -67.2
v -15.75 43.45742 -67.2
v -19.89 66.40258 -62.35
v -19.89 43.45742 -62.35
v -31.77 66.40258 -63.52
v -31.77 43.45742 -63.52
v -32.08 66.40258 -67.51
v -32.08 43.45742 -67.51
v -33.42 66.40258 -68.63
v -33.42 43.45742 -68.63
v -38.33 66.40258 -70.03
v -38.33 43.45742 -70.03
v -41.48 66.40258 -68.56
v -41.48 43.45742 -68.56
v -41.99 66.40258 -67.4
v -41.99 43.45742 -67.4
v -47.68 66.40258 -67.84
v -47.68 43.45742 -67.84
v -48.23 66.40258 -65.18
v -48.23 43.45742 -65.18
v -52.64 66.40258 -67.66
v -52.64 43.45742 -67.66
v -53.61 66.40258 -65.72
v -53.61 43.45742 -65.72
v -65.09 66.40258 -65.48
v -65.09 43.45742 -65.48
v -72.98 66.40258 -62.48
v -72.98 43.45742 -62.48
v -73.92 66.40258 -64.14
v -73.92 43.45742 -64.14
v -80.77 66.40258 -63.9
v -80.77 43.45742 -63.9
v -81.25 66.40258 -62.79
v -81.25 43.45742 -62.79
v -85.94 66.40258 -62.87
v -85.94 43.45742 -62.87
v -93.82 66.40258 -62.8
v -93.82 43.45742 -62.8
v -94.12 66.40258 -74.39
v -94.12 43.45742 -74.39
v -79.69 66.40258 -73.84
v -79.69 43.45742 -73.84
v -76.85 66.40258 -72.98
v -76.85 43.45742 -72.98
v -64.56 66.40258 -75.24
v -64.56 43.45742 -75.24
v -59.42 66.40258 -73.85
v -59.42 43.45742 -73.85
v -56.08 66.40258 -74.73
v -56.08 43.45742 -74.73
v -54.33 66.40258 -76.47
v -54.33 43.45742 -76.47
v -55.31 66.40258 -78.67
v -55.31 43.45742 -78.67
v -51.05 66.40258 -82.32
v -51.05 43.45742 -82.32
v -50.73 66.40258 -84.07
v -50.73 43.45742 -84.07
v -50.12 66.40258 -86.41
v -50.12 43.45742 -86.41
v -47.09 66.40258 -86.31
v -47.09 43.45742 -86.31
v -46.12 66.40258 -85.08
v -46.12 43.45742 -85.08
v -43.36 66.40258 -83.63
v -43.36 43.45742 -83.63
v -41.51 66.40258 -83.85
v -41.51 43.45742 -83.85
v -40.38 66.40258 -88.35
v -40.38 43.45742 -88.35
v -38.85 66.40258 -91.91
v -38.85 43.45742 -91.91
v -35.34 62.97258 -110.35
v -35.34 40.02742 -110.35
v -38.85 62.97258 -111.72
v -38.85 40.02742 -111.72
v -40.96 62.97258 -111.17
v -40.96 40.02742 -111.17
v -44.8 62.97258 -110.29
v -44.8 40.02742 -110.29
v -45.61 62.97258 -110.77
v -45.61 40.02742 -110.77
v -49.15 62.97258 -111.54
v -49.15 40.02742 -111.54
v -54.04 62.97258 -117.39
v -54.04 40.02742 -117.39
v -51.59 62.97258 -122.07
v -51.59 40.02742 -122.07
v -53.18 62.97258 -125.3
v -53.18 40.02742 -125.3
v -55.64 62.97258 -128.44
v -55.64 40.02742 -128.44
v -55.7 62.97258 -131.65
v -55.7 40.02742 -131.65
v -52.23 62.97258 -133.15
v -52.23 40.02742 -133.15
v -49.26 62.97258 -135.53
v -49.26 40.02742 -135.53
v -46.57 62.97258 -135.71
v -46.57 40.02742 -135.71
v -45.96 62.97258 -137.96
v -45.96 40.02742 -137.96
v -46.17 62.97258 -140.09
v -46.17 40.02742 -140.09
v -49.51 62.97258 -141.42
v -49.51 40.02742 -141.42
v -53.44 62.97258 -141.58
v -53.44 40.02742 -141.58
v -56.32 62.97258 -144.36
v -56.32 40.02742 -144.36
v -57.35 62.97258 -147.4
v -57.35 40.02742 -147.4
v -58.47 62.97258 -148.04
v -58.47 40.02742 -148.04
v -60.07 62.97258 -147.48
v -60.07 40.02742 -147.48
v -62.25 62.97258 -148.45
v -62.25 40.02742 -148.45
v -68.85 62.97258 -147.66
v -68.85 40.02742 -147.66
v -76.07 62.97258 -144.74
v -76.07 40.02742 -144.74
v -81.45 62.97258 -146.53
v -81.45 40.02742 -146.53
v -87.02 62.62258 -142.34
v -87.02 39.67742 -142.34
v -93.03 62.97258 -142.31
v -93.03 40.02742 -142.31
v -92.33 62.97258 -151.75
v -92.33 40.02742 -151.75
v -85.21 62.97258 -152.87
v -85.21 40.02742 -152.87
v -78.16 62.97258 -156.2
v -78.16 40.02742 -156.2
v -71.69 62.97258 -154.77
v -71.69 40.02742 -154.77
v -68.98 62.97258 -159.51
v -68.98 40.02742 -159.51
v -59.89 62.97258 -160.06
v -59.89 40.02742 -160.06
v -55.09 62.97258 -157.22
v -55.09 40.02742 -157.22
v -53.64 62.97258 -155.64
v -53.64 40.02742 -155.64
v -50.79 62.97258 -159.2
v -50.79 40.02742 -159.2
v -47 62.97258 -163.46
v -47 40.02742 -163.46
v -44.07 62.97258 -165.68
v -44.07 40.02742 -165.68
v -41.39 62.97258 -166.02
v -41.39 40.02742 -166.02
v -39.58 62.97258 -167.88
v -39.58 40.02742 -167.88
v -42.83 62.97258 -171.08
v -42.83 40.02742 -171.08
v -42.48 62.97258 -178.19
v -42.48 40.02742 -178.19
v -44.07 62.97258 -184.47
v -44.07 40.02742 -184.47
v -46.59 62.97258 -186.68
v -46.59 40.02742 -186.68
v -51.45 62.97258 -190.01
v -51.45 40.02742 -190.01
v -59.19 62.97258 -198.26
v -59.19 40.02742 -198.26
v -42.26 62.97258 -210.54
v -42.26 40.02742 -210.54
v -32.79 62.97258 -206.31
v -32.79 40.02742 -206.31
v -26.97 62.97258 -198.3
v -26.97 40.02742 -198.3
v -21.95 62.97258 -188.02
v -21.95 40.02742 -188.02
v -22.6 62.97258 -185.84
v -22.6 40.02742 -185.84
v -19.36 62.97258 -180.37
v -19.36 40.02742 -180.37
v -19.15 62.97258 -171.75
v -19.15 40.02742 -171.75
v -20.01 62.97258 -164.32
v -20.01 40.02742 -164.32
v -22.19 62.97258 -163.76
v -22.19 40.02742 -163.76
v -19.38 62.97258 -158.56
v -19.38 40.02742 -158.56
v -17.26 62.97258 -154.76
v -17.26 40.02742 -154.76
v -17.84 62.97258 -154.15
v -17.84 40.02742 -154.15
v -16.39 62.97258 -151.34
v -16.39 40.02742 -151.34
v -17.89 62.97258 -150.24
v -17.89 40.02742 -150.24
v -19 62.97258 -150.41
v -19 40.02742 -150.41
v -20.6 62.97258 -147.43
v -20.6 40.02742 -147.43
v -20.54 62.97258 -145.51
v -20.54 40.02742 -145.51
v -17.72 62.97258 -142.41
v -17.72 40.02742 -142.41
v -18.27 62.97258 -141.09
v -18.27 40.02742 -141.09
v -18.18 62.97258 -139.97
v -18.18 40.02742 -139.97
v -15.18 62.97258 -138.34
v -15.18 40.02742 -138.34
v -11.55 62.97258 -137.33
v -11.55 40.02742 -137.33
v -8.93 62.97258 -137.71
v -8.93 40.02742 -137.71
v -7.33 62.97258 -139.14
v -7.33 40.02742 -139.14
v -5.67 62.97258 -137.48
v -5.67 40.02742 -137.48
v -2.05 62.97258 -141.52
v -2.05 40.02742 -141.52
v 4.78 62.97258 -146.51
v 4.78 40.02742 -146.51
v 3.57 62.97258 -148.46
v 3.57 40.02742 -148.46
v 6.84 62.97258 -149.2
v 6.84 40.02742 -149.2
v 8.52 62.97258 -150.62
v 8.52 40.02742 -150.62
v 9.39 62.97258 -154.98
v 9.39 40.02742 -154.98
v 11.03 62.97258 -154.97
v 11.03 40.02742 -154.97
v 11.59 62.97258 -157.06
v 11.59 40.02742 -157.06
v 10 62.97258 -160.94
v 10 40.02742 -160.94
v 19.32 62.97258 -166.4
v 19.32 40.02742 -166.4
v 16.79 62.97258 -171.92
v 16.79 40.02742 -171.92
v 14.46 62.97258 -176.34
v 14.46 40.02742 -176.34
v 16.02 62.97258 -182.96
v 16.02 40.02742 -182.96
v 17.19 62.97258 -182.49
v 17.19 40.02742 -182.49
v 18.49 62.97258 -183.08
v 18.49 40.02742 -183.08
v 21.67 62.97258 -191.52
v 21.67 40.02742 -191.52
v 23.83 62.97258 -200.94
v 23.83 40.02742 -200.94
v 43.59 62.97258 -197.87
v 43.59 40.02742 -197.87
v 44.16 62.97258 -195.58
v 44.16 40.02742 -195.58
v 33.67 62.97258 -190.32
v 33.67 40.02742 -190.32
v 32.96 62.97258 -188.39
v 32.96 40.02742 -188.39
v 40.67 62.97258 -176.18
v 40.67 40.02742 -176.18
v 38.96 62.97258 -174.47
v 38.96 40.02742 -174.47
v 37.27 62.97258 -170.88
v 37.27 40.02742 -170.88
v 34.76 62.97258 -172.8
v 34.76 40.02742 -172.8
v 31.83 62.97258 -166.56
v 31.83 40.02742 -166.56
v 29.71 62.97258 -156.98
v 29.71 40.02742 -156.98
v 33.87 62.97258 -156.17
v 33.87 40.02742 -156.17
v 31.96 62.97258 -153.75
v 31.96 40.02742 -153.75
v 30.92 62.97258 -151.97
v 30.92 40.02742 -151.97
v 31.85 62.97258 -148.84
v 31.85 40.02742 -148.84
v 30.79 62.97258 -146.76
v 30.79 40.02742 -146.76
v 31.77 62.97258 -142.85
v 31.77 40.02742 -142.85
v 29.48 62.97258 -141.83
v 29.48 40.02742 -141.83
v 32.26 62.97258 -137.51
v 32.26 40.02742 -137.51
v 31.77 62.97258 -136.56
v 31.77 40.02742 -136.56
v 32.35 62.97258 -135.95
v 32.35 40.02742 -135.95
v 34.72 62.97258 -138.27
v 34.72 40.02742 -138.27
v 35.06 62.97258 -136.72
v 35.06 40.02742 -136.72
v 36.55 62.97258 -133.81
v 36.55 40.02742 -133.81
v 35.27 62.97258 -131.61
v 35.27 40.02742 -131.61
v 36.37 62.97258 -129.92
v 36.37 40.02742 -129.92
v 38.78 62.97258 -125.86
v 38.78 40.02742 -125.86
v 40.58 62.97258 -126.75
v 40.58 40.02742 -126.75
v 42.65 62.97258 -126.62
v 42.65 40.02742 -126.62
v 44.53 62.97258 -124.67
v 44.53 40.02742 -124.67
v 43.72 62.97258 -122.8
v 43.72 40.02742 -122.8
v 43.96 62.97258 -120.72
v 43.96 40.02742 -120.72
v 43.36 62.97258 -119.39
v 43.36 40.02742 -119.39
v 41.29 62.97258 -117.69
v 41.29 40.02742 -117.69
v 39.66 62.97258 -114.21
v 39.66 40.02742 -114.21
v 40.73 62.97258 -113.5
v 40.73 40.02742 -113.5
v 42.53 62.97258 -112.99
v 42.53 40.02742 -112.99
v 42.75 62.97258 -111.52
v 42.75 40.02742 -111.52
v 44.23 62.97258 -109.95
v 44.23 40.02742 -109.95
v 44.34 62.97258 -108.13
v 44.34 40.02742 -108.13
v 43.2 62.97258 -106.52
v 43.2 40.02742 -106.52
v 42.31 62.97258 -105.34
v 42.31 40.02742 -105.34
v 41.41 62.97258 -104.16
v 41.41 40.02742 -104.16
v 39.81 62.97258 -104.97
v 39.81 40.02742 -104.97
v 39.12 62.97258 -105.84
v 39.12 40.02742 -105.84
v 37.98 62.97258 -105.8
v 37.98 40.02742 -105.8
v 37.13 62.97258 -104.03
v 37.13 40.02742 -104.03
v 36.57 62.97258 -102.42
v 36.57 40.02742 -102.42
v 33.29 62.97258 -101.9
v 33.29 40.02742 -101.9
v 32.52 62.97258 -102.63
v 32.52 40.02742 -102.63
v 30.44 62.97258 -102.25
v 30.44 40.02742 -102.25
v 29.59 62.97258 -103.21
v 29.59 40.02742 -103.21
v 25.35 62.97258 -100.83
v 25.35 40.02742 -100.83
v 23.34 62.97258 -99.17
v 23.34 40.02742 -99.17
v 20.28 62.97258 -95.63
v 20.28 40.02742 -95.63
v 21.01 62.97258 -94.06
v 21.01 40.02742 -94.06
v 20.6 62.97258 -89.16
v 20.6 40.02742 -89.16
v 19.31 62.97258 -84.73
v 19.31 40.02742 -84.73
v 16.87 62.97258 -82.02
v 16.87 40.02742 -82.02
v 16.87 61.712585 -81.39
v 16.87 38.767418 -81.39
v 17.31 61.712585 -80.2
v 17.31 38.767418 -80.2
v 20.28 61.712585 -77.56
v 20.28 38.767418 -77.56
v 21.97 61.712585 -78.99
v 21.97 38.767418 -78.99
v 24.83 61.712585 -77.93
v 24.83 38.767418 -77.93
v 24.31 61.712585 -76.74
v 24.31 38.767418 -76.74
v 27.14 61.712585 -74.83
v 27.14 38.767418 -74.83
v 25.66 61.712585 -73.04
v 25.66 38.767418 -73.04
v 24.98 61.712585 -71.3
v 24.98 38.767418 -71.3
v 25.76 61.712585 -70.13
v 25.76 38.767418 -70.13
v 26.84 61.712585 -70.26
v 26.84 38.767418 -70.26
v 27.63 61.712585 -68.25
v 27.63 38.767418 -68.25
v 31.31 61.712585 -66.08
v 31.31 38.767418 -66.08
v 34.95 61.712585 -65.76
v 34.95 38.767418 -65.76
v 38.47 61.712585 -64.73
v 38.47 38.767418 -64.73
v 39.64 61.712585 -64.27
v 39.64 38.767418 -64.27
v 42.33 61.712585 -61.46
v 42.33 38.767418 -61.46
v 47.22 61.712585 -58.96
v 47.22 38.767418 -58.96
v 49.45 61.712585 -63.7
v 49.45 38.767418 -63.7
v 50.45 61.712585 -66.49
v 50.45 38.767418 -66.49
v 48.63 61.712585 -67.49
v 48.63 38.767418 -67.49
v 51.79 61.712585 -73.21
v 51.79 38.767418 -73.21
v 53.25 61.712585 -72.4
v 53.25 38.767418 -72.4
v 54.23 61.712585 -68.12
v 54.23 38.767418 -68.12
v 56.12 61.712585 -65.24
v 56.12 38.767418 -65.24
v 59.74 61.712585 -64.66
v 59.74 38.767418 -64.66
v 64 61.712585 -65.96
v 64 38.767418 -65.96
v 64.78 61.712585 -66.89
v 64.78 38.767418 -66.89
v 67.19 61.712585 -65.98
v 67.19 38.767418 -65.98
v 71.33 61.712585 -65.42
v 71.33 38.767418 -65.42
v 73.23 61.712585 -65.03
v 73.23 38.767418 -65.03
v 72.72 61.712585 -59.58
v 72.72 38.767418 -59.58
v 70.03 61.712585 -59.41
v 70.03 38.767418 -59.41
v 68.68 61.712585 -58.29
v 68.68 38.767418 -58.29
v 68.9 61.712585 -55.06
v 68.9 38.767418 -55.06
v 67.09 61.712585 -54.6
v 67.09 38.767418 -54.6
v 64.99 61.712585 -54.84
v 64.99 38.767418 -54.84
v 64.62 61.712585 -52.91
v 64.62 38.767418 -52.91
v 65.26 61.712585 -50.74
v 65.26 38.767418 -50.74
v 63.24 61.712585 -48.03
v 63.24 38.767418 -48.03
v 63.52 61.712585 -43.59
v 63.52 38.767418 -43.59
v 69.58 61.712585 -40.47
v 69.58 38.767418 -40.47
v 74.64 61.712585 -36.77
v 74.64 38.767418 -36.77
v 78.75 61.712585 -32.09
v 78.75 38.767418 -32.09
v 77.68 61.712585 -29.87
v 77.68 38.767418 -29.87
v 77.34 61.712585 -27.38
v 77.34 38.767418 -27.38
v 75.31 61.712585 -26.17
v 75.31 38.767418 -26.17
v 72.71 61.712585 -25.77
v 72.71 38.767418 -25.77
v 70.65 61.712585 -25.93
v 70.65 38.767418 -25.93
v 70.42 61.712585 -24.04
v 70.42 38.767418 -24.04
v 69.37 61.712585 -21.16
v 69.37 38.767418 -21.16
v 70.45 61.712585 -19.09
v 70.45 38.767418 -19.09
v 70.32 61.712585 -17.14
v 70.32 38.767418 -17.14
v 68.95 61.712585 -16.37
v 68.95 38.767418 -16.37
v 66.35 61.712585 -16.76
v 66.35 38.767418 -16.76
v 58.81 61.712585 -20.52
v 58.81 38.767418 -20.52
v 59.28 61.712585 -22.74
v 59.28 38.767418 -22.74
v 60.41 61.712585 -25.7
v 60.41 38.767418 -25.7
v 61.74 61.712585 -27.83
v 61.74 38.767418 -27.83
v 61.62 61.712585 -28.86
v 61.62 38.767418 -28.86
v 60.48 61.712585 -29.22
v 60.48 38.767418 -29.22
v 57.11 61.712585 -30.7
v 57.11 38.767418 -30.7
v 54.07 61.712585 -30.1
v 54.07 38.767418 -30.1
v 51.58 61.712585 -29.14
v 51.58 38.767418 -29.14
v 50.84 61.712585 -28.65
v 50.84 38.767418 -28.65
v 48.58 61.712585 -36.09
v 48.58 38.767418 -36.09
v 47.3 61.712585 -41.58
v 47.3 38.767418 -41.58
v 49.21 61.712585 -43.47
v 49.21 38.767418 -43.47
v 44.26 61.712585 -50.57
v 44.26 38.767418 -50.57
v 45.06 61.712585 -52.15
v 45.06 38.767418 -52.15
v 41.86 61.712585 -52.2
v 41.86 38.767418 -52.2
v 39.66 61.712585 -52.33
v 39.66 38.767418 -52.33
v 38.46 61.712585 -53.98
v 38.46 38.767418 -53.98
v 38.55 61.712585 -54.64
v 38.55 38.767418 -54.64
v 36.62 61.712585 -56.28
v 36.62 38.767418 -56.28
v 33.44 61.712585 -56.03
v 33.44 38.767418 -56.03
v 28.31 61.712585 -57.29
v 28.31 38.767418 -57.29
v 27.52 61.712585 -57.81
v 27.52 38.767418 -57.81
v 25.66 61.712585 -56.83
v 25.66 38.767418 -56.83
v 21.22 61.712585 -51.56
v 21.22 38.767418 -51.56
v 20.11 61.712585 -52.78
v 20.11 38.767418 -52.78
v 15.74 61.712585 -50.98
v 15.74 38.767418 -50.98
v 9.15 61.712585 -53.12
v 9.15 38.767418 -53.12
v 8.01 61.712585 -51.48
v 8.01 38.767418 -51.48
v 6.89 61.712585 -52.91
v 6.89 38.767418 -52.91
v 4.06 61.712585 -52.39
v 4.06 38.767418 -52.39
v -3.12 61.712585 -46.77
v -3.12 38.767418 -46.77
v -2.94 61.712585 -41.25
v -2.94 38.767418 -41.25
v -2.98 61.242584 -39.56
v -2.98 38.297417 -39.56
v -4.13 61.242584 -37.46
v -4.13 38.297417 -37.46
v -4.21 61.242584 -36.53
v -4.21 38.297417 -36.53
v 2.5 61.242584 -33.12
v 2.5 38.297417 -33.12
v 2.76 61.242584 -31.57
v 2.76 38.297417 -31.57
v 5.74 61.242584 -30.21
v 5.74 38.297417 -30.21
v 9.29 61.242584 -26.16
v 9.29 38.297417 -26.16
v 6.31 61.242584 -26.56
v 6.31 38.297417 -26.56
v 4.84 61.242584 -25.73
v 4.84 38.297417 -25.73
v 3.95 61.242584 -24.1
v 3.95 38.297417 -24.1
v 4.19 61.242584 -22.18
v 4.19 38.297417 -22.18
v 7.72 61.242584 -19.18
v 7.72 38.297417 -19.18
v 10.58 61.242584 -19.42
v 10.58 38.297417 -19.42
v 12.31 61.242584 -18.57
v 12.31 38.297417 -18.57
v 13.07 61.242584 -14.52
v 13.07 38.297417 -14.52
v 12.07 61.242584 -13.11
v 12.07 38.297417 -13.11
v 9.98 61.242584 -14.42
v 9.98 38.297417 -14.42
v 7.76 61.242584 -14.5
v 7.76 38.297417 -14.5
v 5.33 61.242584 -12.15
v 5.33 38.297417 -12.15
v 2.52 61.242584 -10.95
v 2.52 38.297417 -10.95
v 1.31 61.242584 -8.65
v 1.31 38.297417 -8.65
v 1.7 61.242584 -6.3
v 1.7 38.297417 -6.3
v -0.55 61.242584 -4.67
v -0.55 38.297417 -4.67
v -2.32 61.242584 -5.59
v -2.32 38.297417 -5.59
v -3.25 61.242584 -9.12
v -3.25 38.297417 -9.12
v -6.05 61.242584 -8.69
v -6.05 38.297417 -8.69
v -6.59 61.242584 -8.55
v -6.59 38.297417 -8.55
v -8.75 61.242584 -5.62
v -8.75 38.297417 -5.62
v -11.98 61.242584 -5.54
v -11.98 38.297417 -5.54
v -12.83 61.242584 -1.01
v -12.83 38.297417 -1.01
v -14.67 61.242584 -0.66
v -14.67 38.297417 -0.66
v -20.48 61.242584 -7.6
v -20.48 38.297417 -7.6
v -22.51 61.0304 -15.43
v -22.51 39.169598 -15.43
vt 0.2041 -0.26729998
vt 0.2041 -0.26729998
vt 0.2426 -0.33630002
vt 0.2426 -0.33630002
vt 0.2348 -0.3711
vt 0.2348 -0.3711
vt 0.25359997 -0.43060002
vt 0.25359997 -0.43060002
vt 0.16729999 -0.4281
vt 0.16729999 -0.4281
vt 0.16239999 -0.46029997
vt 0.16239999 -0.46029997
vt 0.13149999 -0.45479998
vt 0.13149999 -0.45479998
vt 0.1211 -0.47989997
vt 0.1211 -0.47989997
vt 0.1242 -0.5171
vt 0.1242 -0.5171
vt 0.16559999 -0.51989996
vt 0.16559999 -0.51989996
vt 0.16029999 -0.5436
vt 0.16029999 -0.5436
vt 0.15279998 -0.56369996
vt 0.15279998 -0.56369996
vt 0.1191 -0.55649996
vt 0.1191 -0.55649996
vt 0.103199996 -0.56689996
vt 0.103199996 -0.56689996
vt 0.078499995 -0.60099995
vt 0.078499995 -0.60099995
vt 0.0075999997 -0.7051
vt 0.0075999997 -0.7051
vt 0.056399997 -0.7379
vt 0.056399997 -0.7379
vt 0.0594 -0.7643
vt 0.0594 -0.7643
vt 0.13649999 -0.78499997
vt 0.13649999 -0.78499997
vt 0.17789999 -0.7365
vt 0.17789999 -0.7365
vt 0.2967 -0.7482
vt 0.2967 -0.7482
vt 0.2998 -0.78810006
vt 0.2998 -0.78810006
vt 0.31319997 -0.7993
vt 0.31319997 -0.7993
vt 0.36230004 -0.8133
vt 0.36230004 -0.8133
vt 0.3938 -0.7986
vt 0.3938 -0.7986
vt 0.39890003 -0.787
vt 0.39890003 -0.787
vt 0.4558 -0.79139996
vt 0.4558 -0.79139996
vt 0.4613 -0.7648
vt 0.4613 -0.7648
vt 0.5054 -0.7896001
vt 0.5054 -0.7896001
vt 0.5151 -0.7702
vt 0.5151 -0.7702
vt 0.6299 -0.76780003
vt 0.6299 -0.76780003
vt 0.7088 -0.73779994
vt 0.7088 -0.73779994
vt 0.71819997 -0.7544
vt 0.71819997 -0.7544
vt 0.78669995 -0.75200003
vt 0.78669995 -0.75200003
vt 0.7915 -0.74090004
vt 0.7915 -0.74090004
vt 0.8384 -0.7417
vt 0.8384 -0.7417
vt 0.91719997 -0.741
vt 0.91719997 -0.741
vt 0.92020005 -0.8569
vt 0.92020005 -0.8569
vt 0.7759 -0.85139996
vt 0.7759 -0.85139996
vt 0.7475 -0.8428
vt 0.7475 -0.8428
vt 0.6246 -0.8654
vt 0.6246 -0.8654
vt 0.5732 -0.8515
vt 0.5732 -0.8515
vt 0.53980005 -0.86030006
vt 0.53980005 -0.86030006
vt 0.5223 -0.87770003
vt 0.5223 -0.87770003
vt 0.5321 -0.8997
vt 0.5321 -0.8997
vt 0.4895 -0.9362
vt 0.4895 -0.9362
vt 0.4863 -0.9537
vt 0.4863 -0.9537
vt 0.4802 -0.9771001
vt 0.4802 -0.9771001
vt 0.4499 -0.97609997
vt 0.4499 -0.97609997
vt 0.4402 -0.9638
vt 0.4402 -0.9638
vt 0.4126 -0.9493
vt 0.4126 -0.9493
vt 0.39409998 -0.9515
vt 0.39409998 -0.9515
vt 0.3828 -0.9965
vt 0.3828 -0.9965
vt 0.36749998 -1.0321001
vt 0.36749998 -1.0321001
vt 0.33240002 -1.2165
vt 0.33240002 -1.2165
vt 0.36749998 -1.2302
vt 0.36749998 -1.2302
vt 0.3886 -1.2247
vt 0.3886 -1.2247
vt 0.427 -1.2159001
vt 0.427 -1.2159001
vt 0.43510002 -1.2207
vt 0.43510002 -1.2207
vt 0.47050002 -1.2284
vt 0.47050002 -1.2284
vt 0.5194 -1.2869
vt 0.5194 -1.2869
vt 0.49490002 -1.3337
vt 0.49490002 -1.3337
vt 0.5108 -1.366
vt 0.5108 -1.366
vt 0.5354 -1.3974
vt 0.5354 -1.3974
vt 0.536 -1.4295
vt 0.536 -1.4295
vt 0.5013 -1.4445
vt 0.5013 -1.4445
vt 0.4716 -1.4683
vt 0.4716 -1.4683
vt 0.4447 -1.4701
vt 0.4447 -1.4701
vt 0.4386 -1.4926001
vt 0.4386 -1.4926001
vt 0.4407 -1.5138999
vt 0.4407 -1.5138999
vt 0.4741 -1.5272
vt 0.4741 -1.5272
vt 0.5134 -1.5288
vt 0.5134 -1.5288
vt 0.5422 -1.5566
vt 0.5422 -1.5566
vt 0.5525 -1.5869999
vt 0.5525 -1.5869999
vt 0.5637 -1.5933999
vt 0.5637 -1.5933999
vt 0.5797 -1.5877999
vt 0.5797 -1.5877999
vt 0.6015 -1.5975
vt 0.6015 -1.5975
vt 0.66749996 -1.5896001
vt 0.66749996 -1.5896001
vt 0.7397 -1.5604
vt 0.7397 -1.5604
vt 0.79349995 -1.5783
vt 0.79349995 -1.5783
vt 0.84919995 -1.5364
vt 0.84919995 -1.5364
vt 0.90929997 -1.5361
vt 0.90929997 -1.5361
vt 0.9023 -1.6305
vt 0.9023 -1.6305
vt 0.8311 -1.6416999
vt 0.8311 -1.6416999
vt 0.76060003 -1.675
vt 0.76060003 -1.675
vt 0.6959 -1.6607001
vt 0.6959 -1.6607001
vt 0.66880006 -1.7081
vt 0.66880006 -1.7081
vt 0.5779 -1.7135999
vt 0.5779 -1.7135999
vt 0.5299 -1.6852
vt 0.5299 -1.6852
vt 0.5154 -1.6694
vt 0.5154 -1.6694
vt 0.4869 -1.7049999
vt 0.4869 -1.7049999
vt 0.449 -1.7476001
vt 0.449 -1.7476001
vt 0.4197 -1.7698
vt 0.4197 -1.7698
vt 0.3929 -1.7732
vt 0.3929 -1.7732
vt 0.37480003 -1.7918
vt 0.37480003 -1.7918
vt 0.40730003 -1.8238
vt 0.40730003 -1.8238
vt 0.4038 -1.8949
vt 0.4038 -1.8949
vt 0.4197 -1.9577
vt 0.4197 -1.9577
vt 0.4449 -1.9797999
vt 0.4449 -1.9797999
vt 0.49350002 -2.0131
vt 0.49350002 -2.0131
vt 0.57089996 -2.0956
vt 0.57089996 -2.0956
vt 0.4016 -2.2184
vt 0.4016 -2.2184
vt 0.3069 -2.1761
vt 0.3069 -2.1761
vt 0.24869998 -2.096
vt 0.24869998 -2.096
vt 0.19849999 -1.9932001
vt 0.19849999 -1.9932001
vt 0.205 -1.9713999
vt 0.205 -1.9713999
vt 0.1726 -1.9166999
vt 0.1726 -1.9166999
vt 0.1705 -1.8305
vt 0.1705 -1.8305
vt 0.17909999 -1.7562001
vt 0.17909999 -1.7562001
vt 0.2009 -1.7506
vt 0.2009 -1.7506
vt 0.17279999 -1.6985999
vt 0.17279999 -1.6985999
vt 0.15159999 -1.6606
vt 0.15159999 -1.6606
vt 0.1574 -1.6544999
vt 0.1574 -1.6544999
vt 0.14289999 -1.6264
vt 0.14289999 -1.6264
vt 0.15789999 -1.6154001
vt 0.15789999 -1.6154001
vt 0.169 -1.6171
vt 0.169 -1.6171
vt 0.185 -1.5873
vt 0.185 -1.5873
vt 0.1844 -1.5681
vt 0.1844 -1.5681
vt 0.15619999 -1.5371001
vt 0.15619999 -1.5371001
vt 0.1617 -1.5238999
vt 0.1617 -1.5238999
vt 0.1608 -1.5127
vt 0.1608 -1.5127
vt 0.1308 -1.4964
vt 0.1308 -1.4964
vt 0.094500005 -1.4863
vt 0.094500005 -1.4863
vt 0.0683 -1.4901
vt 0.0683 -1.4901
vt 0.0523 -1.5044
vt 0.0523 -1.5044
vt 0.0357 -1.4878
vt 0.0357 -1.4878
vt -0.0004999995 -1.5282
vt -0.0004999995 -1.5282
vt -0.0688 -1.5781
vt -0.0688 -1.5781
vt -0.0567 -1.5976001
vt -0.0567 -1.5976001
vt -0.0894 -1.605
vt -0.0894 -1.605
vt -0.10620001 -1.6192
vt -0.10620001 -1.6192
vt -0.11489999 -1.6628
vt -0.11489999 -1.6628
vt -0.13129999 -1.6627
vt -0.13129999 -1.6627
vt -0.13690001 -1.6836
vt -0.13690001 -1.6836
vt -0.121 -1.7224001
vt -0.121 -1.7224001
vt -0.21419999 -1.777
vt -0.21419999 -1.777
vt -0.18890001 -1.8321999
vt -0.18890001 -1.8321999
vt -0.16559999 -1.8764
vt -0.16559999 -1.8764
vt -0.1812 -1.9426
vt -0.1812 -1.9426
vt -0.1929 -1.9379001
vt -0.1929 -1.9379001
vt -0.2059 -1.9438
vt -0.2059 -1.9438
vt -0.2377 -2.0282
vt -0.2377 -2.0282
vt -0.2593 -2.1224
vt -0.2593 -2.1224
vt -0.45689997 -2.0916998
vt -0.45689997 -2.0916998
vt -0.46259996 -2.0688
vt -0.46259996 -2.0688
vt -0.35769996 -2.0162
vt -0.35769996 -2.0162
vt -0.35059997 -1.9969
vt -0.35059997 -1.9969
vt -0.42769995 -1.8748
vt -0.42769995 -1.8748
vt -0.41059998 -1.8577
vt -0.41059998 -1.8577
vt -0.39369997 -1.8218
vt -0.39369997 -1.8218
vt -0.36859995 -1.841
vt -0.36859995 -1.841
vt -0.3393 -1.7786
vt -0.3393 -1.7786
vt -0.31809998 -1.6827999
vt -0.31809998 -1.6827999
vt -0.35969996 -1.6747
vt -0.35969996 -1.6747
vt -0.34059995 -1.6504999
vt -0.34059995 -1.6504999
vt -0.3302 -1.6327
vt -0.3302 -1.6327
vt -0.3395 -1.6013999
vt -0.3395 -1.6013999
vt -0.32889998 -1.5805999
vt -0.32889998 -1.5805999
vt -0.3387 -1.5415001
vt -0.3387 -1.5415001
vt -0.31579998 -1.5313001
vt -0.31579998 -1.5313001
vt -0.34359998 -1.4880999
vt -0.34359998 -1.4880999
vt -0.3387 -1.4786
vt -0.3387 -1.4786
vt -0.34449998 -1.4725
vt -0.34449998 -1.4725
vt -0.36819997 -1.4957
vt -0.36819997 -1.4957
vt -0.3716 -1.4802
vt -0.3716 -1.4802
vt -0.38649997 -1.4511
vt -0.38649997 -1.4511
vt -0.3737 -1.4291
vt -0.3737 -1.4291
vt -0.38469997 -1.4122
vt -0.38469997 -1.4122
vt -0.40879998 -1.3716
vt -0.40879998 -1.3716
vt -0.42679998 -1.3805
vt -0.42679998 -1.3805
vt -0.4475 -1.3792
vt -0.4475 -1.3792
vt -0.46629995 -1.3597
vt -0.46629995 -1.3597
vt -0.45819998 -1.3410001
vt -0.45819998 -1.3410001
vt -0.46059996 -1.3202
vt -0.46059996 -1.3202
vt -0.45459998 -1.3069
vt -0.45459998 -1.3069
vt -0.4339 -1.2899001
vt -0.4339 -1.2899001
vt -0.41759998 -1.2551
vt -0.41759998 -1.2551
vt -0.42829996 -1.248
vt -0.42829996 -1.248
vt -0.44629997 -1.2429
vt -0.44629997 -1.2429
vt -0.44849998 -1.2282
vt -0.44849998 -1.2282
vt -0.46329996 -1.2125
vt -0.46329996 -1.2125
vt -0.46439996 -1.1942999
vt -0.46439996 -1.1942999
vt -0.45299998 -1.1782
vt -0.45299998 -1.1782
vt -0.4441 -1.1664
vt -0.4441 -1.1664
vt -0.43509996 -1.1546
vt -0.43509996 -1.1546
vt -0.4191 -1.1627
vt -0.4191 -1.1627
vt -0.41219997 -1.1714
vt -0.41219997 -1.1714
vt -0.40079996 -1.171
vt -0.40079996 -1.171
vt -0.39229998 -1.1533
vt -0.39229998 -1.1533
vt -0.38669997 -1.1372
vt -0.38669997 -1.1372
vt -0.3539 -1.132
vt -0.3539 -1.132
vt -0.3462 -1.1393
vt -0.3462 -1.1393
vt -0.3254 -1.1355
vt -0.3254 -1.1355
vt -0.31689999 -1.1451
vt -0.31689999 -1.1451
vt -0.2745 -1.1213
vt -0.2745 -1.1213
vt -0.25439999 -1.1047
vt -0.25439999 -1.1047
vt -0.2238 -1.0692999
vt -0.2238 -1.0692999
vt -0.23110001 -1.0536
vt -0.23110001 -1.0536
vt -0.227 -1.0046
vt -0.227 -1.0046
vt -0.21409999 -0.9603
vt -0.21409999 -0.9603
vt -0.1897 -0.9332
vt -0.1897 -0.9332
vt -0.1897 -0.9269
vt -0.1897 -0.9269
vt -0.19409999 -0.91499996
vt -0.19409999 -0.91499996
vt -0.2238 -0.8886
vt -0.2238 -0.8886
vt -0.24069999 -0.9029
vt -0.24069999 -0.9029
vt -0.26929998 -0.8923
vt -0.26929998 -0.8923
vt -0.2641 -0.8804
vt -0.2641 -0.8804
vt -0.2924 -0.86130005
vt -0.2924 -0.86130005
vt -0.2776 -0.8434
vt -0.2776 -0.8434
vt -0.2708 -0.82600003
vt -0.2708 -0.82600003
vt -0.2786 -0.8143
vt -0.2786 -0.8143
vt -0.2894 -0.81560004
vt -0.2894 -0.81560004
vt -0.29729998 -0.79550004
vt -0.29729998 -0.79550004
vt -0.33409998 -0.7738
vt -0.33409998 -0.7738
vt -0.3705 -0.7706
vt -0.3705 -0.7706
vt -0.4057 -0.76030004
vt -0.4057 -0.76030004
vt -0.41739997 -0.7557
vt -0.41739997 -0.7557
vt -0.4443 -0.7276
vt -0.4443 -0.7276
vt -0.49319997 -0.7026
vt -0.49319997 -0.7026
vt -0.5155 -0.75
vt -0.5155 -0.75
vt -0.5255 -0.7779
vt -0.5255 -0.7779
vt -0.50729996 -0.7879
vt -0.50729996 -0.7879
vt -0.53889996 -0.8451
vt -0.53889996 -0.8451
vt -0.5535 -0.837
vt -0.5535 -0.837
vt -0.56329995 -0.79420006
vt -0.56329995 -0.79420006
vt -0.5822 -0.7654
vt -0.5822 -0.7654
vt -0.6184 -0.75960004
vt -0.6184 -0.75960004
vt -0.66099995 -0.7726
vt -0.66099995 -0.7726
vt -0.66879994 -0.7819
vt -0.66879994 -0.7819
vt -0.6929 -0.7728
vt -0.6929 -0.7728
vt -0.73429996 -0.7672
vt -0.73429996 -0.7672
vt -0.7533 -0.7633
vt -0.7533 -0.7633
vt -0.7482 -0.7088
vt -0.7482 -0.7088
vt -0.72129995 -0.7071
vt -0.72129995 -0.7071
vt -0.7078 -0.6959
vt -0.7078 -0.6959
vt -0.71 -0.66359997
vt -0.71 -0.66359997
vt -0.69189996 -0.659
vt -0.69189996 -0.659
vt -0.6708999 -0.66139996
vt -0.6708999 -0.66139996
vt -0.66719997 -0.6421
vt -0.66719997 -0.6421
vt -0.6736 -0.6204
vt -0.6736 -0.6204
vt -0.6534 -0.5933
vt -0.6534 -0.5933
vt -0.6562 -0.5489
vt -0.6562 -0.5489
vt -0.7168 -0.5177
vt -0.7168 -0.5177
vt -0.76739997 -0.4807
vt -0.76739997 -0.4807
vt -0.8085 -0.4339
vt -0.8085 -0.4339
vt -0.79779994 -0.4117
vt -0.79779994 -0.4117
vt -0.7943999 -0.3868
vt -0.7943999 -0.3868
vt -0.77409995 -0.3747
vt -0.77409995 -0.3747
vt -0.7481 -0.3707
vt -0.7481 -0.3707
vt -0.72749996 -0.3723
vt -0.72749996 -0.3723
vt -0.72519994 -0.3534
vt -0.72519994 -0.3534
vt -0.7147 -0.32459998
vt -0.7147 -0.32459998
vt -0.7254999 -0.30389997
vt -0.7254999 -0.30389997
vt -0.72419995 -0.2844
vt -0.72419995 -0.2844
vt -0.71049994 -0.27670002
vt -0.71049994 -0.27670002
vt -0.6845 -0.2806
vt -0.6845 -0.2806
vt -0.6091 -0.3182
vt -0.6091 -0.3182
vt -0.6137999 -0.3404
vt -0.6137999 -0.3404
vt -0.62509996 -0.37
vt -0.62509996 -0.37
vt -0.63839996 -0.3913
vt -0.63839996 -0.3913
vt -0.63719994 -0.4016
vt -0.63719994 -0.4016
vt -0.62579995 -0.4052
vt -0.62579995 -0.4052
vt -0.59209996 -0.42
vt -0.59209996 -0.42
vt -0.5617 -0.414
vt -0.5617 -0.414
vt -0.53679997 -0.4044
vt -0.53679997 -0.4044
vt -0.5294 -0.3995
vt -0.5294 -0.3995
vt -0.5068 -0.4739
vt -0.5068 -0.4739
vt -0.49399996 -0.5288
vt -0.49399996 -0.5288
vt -0.51309997 -0.5477
vt -0.51309997 -0.5477
vt -0.46359995 -0.61869997
vt -0.46359995 -0.61869997
vt -0.4716 -0.63449997
vt -0.4716 -0.63449997
vt -0.4396 -0.635
vt -0.4396 -0.635
vt -0.41759998 -0.63629997
vt -0.41759998 -0.63629997
vt -0.40559995 -0.65279996
vt -0.40559995 -0.65279996
vt -0.40649998 -0.6594
vt -0.40649998 -0.6594
vt -0.38719997 -0.6758
vt -0.38719997 -0.6758
vt -0.35539997 -0.6733
vt -0.35539997 -0.6733
vt -0.30409998 -0.68590003
vt -0.30409998 -0.68590003
vt -0.2962 -0.6911
vt -0.2962 -0.6911
vt -0.2776 -0.68130004
vt -0.2776 -0.68130004
vt -0.2332 -0.6286
vt -0.2332 -0.6286
vt -0.2221 -0.6408
vt -0.2221 -0.6408
vt -0.1784 -0.6228
vt -0.1784 -0.6228
vt -0.1125 -0.64419997
vt -0.1125 -0.64419997
vt -0.101100005 -0.6278
vt -0.101100005 -0.6278
vt -0.089899994 -0.6421
vt -0.089899994 -0.6421
vt -0.061599996 -0.63689995
vt -0.061599996 -0.63689995
vt 0.010199999 -0.5807
vt 0.010199999 -0.5807
vt 0.008400002 -0.5255
vt 0.008400002 -0.5255
vt 0.008800001 -0.5086
vt 0.008800001 -0.5086
vt 0.0203 -0.48759997
vt 0.0203 -0.48759997
vt 0.021100001 -0.47829998
vt 0.021100001 -0.47829998
vt -0.045999996 -0.44419998
vt -0.045999996 -0.44419998
vt -0.048599996 -0.42869997
vt -0.048599996 -0.42869997
vt -0.07839999 -0.41509998
vt -0.07839999 -0.41509998
vt -0.11389999 -0.3746
vt -0.11389999 -0.3746
vt -0.08409999 -0.3786
vt -0.08409999 -0.3786
vt -0.0694 -0.37029997
vt -0.0694 -0.37029997
vt -0.0605 -0.354
vt -0.0605 -0.354
vt -0.0629 -0.33479998
vt -0.0629 -0.33479998
vt -0.09819999 -0.30479997
vt -0.09819999 -0.30479997
vt -0.1268 -0.3072
vt -0.1268 -0.3072
vt -0.1441 -0.29869998
vt -0.1441 -0.29869998
vt -0.15169999 -0.2582
vt -0.15169999 -0.2582
vt -0.1417 -0.24409999
vt -0.1417 -0.24409999
vt -0.120799996 -0.2572
vt -0.120799996 -0.2572
vt -0.09860001 -0.258
vt -0.09860001 -0.258
vt -0.0743 -0.2345
vt -0.0743 -0.2345
vt -0.046199996 -0.2225
vt -0.046199996 -0.2225
vt -0.034099996 -0.19950001
vt -0.034099996 -0.19950001
vt -0.038 -0.176
vt -0.038 -0.176
vt -0.015499999 -0.1597
vt -0.015499999 -0.1597
vt 0.0022000002 -0.16889998
vt 0.0022000002 -0.16889998
vt 0.011500001 -0.2042
vt 0.011500001 -0.2042
vt 0.0395 -0.19989999
vt 0.0395 -0.19989999
vt 0.0449 -0.19849999
vt 0.0449 -0.19849999
vt 0.0665 -0.1692
vt 0.0665 -0.1692
vt 0.09879999 -0.1684
vt 0.09879999 -0.1684
vt 0.10729999 -0.123100005
vt 0.10729999 -0.123100005
vt 0.1257 -0.1196
vt 0.1257 -0.1196
vt 0.18379998 -0.189
vt 0.18379998 -0.189
vt 0.2041 -0.26729998
vt 0.2041 -0.26729998
vn 0.87326026 0 -0.487254
vn 0.87326026 -0 -0.487254
vn 0.97578955 0 0.21871167
vn 0.97578955 0 0.21871167
vn 0.95353425 0 -0.30128464
vn 0.95353425 -0 -0.30128464
vn -0.02895657 -0 0.9995807
vn -0.02895657 0 0.9995807
vn 0.9886189 0 0.15044196
vn 0.9886189 0 0.15044196
vn -0.17523898 -0 0.9845259
vn -0.17523898 0 0.9845259
vn 0.9238373 0 0.3827854
vn 0.9238373 0 0.3827854
vn 0.9965458 0 -0.083045565
vn 0.9965458 -0 -0.083045565
vn 0.06747841 0 -0.9977207
vn 0.06747841 -0 -0.9977207
vn 0.9758955 0 0.21823826
vn 0.9758955 0 0.21823826
vn 0.9369025 0 0.34959078
vn 0.9369025 0 0.34959078
vn -0.20893493 -0 0.97792953
vn -0.20893493 0 0.97792953
vn 0.5473915 0 0.8368767
vn 0.5473915 0 0.8368767
vn 0.8098643 0 0.58661735
vn 0.8098643 0 0.58661735
vn 0.82651275 0 0.56291795
vn 0.82651275 0 0.56291795
vn 0.5578363 0 -0.8299509
vn 0.5578363 -0 -0.8299509
vn 0.9936052 0 -0.11290995
vn 0.9936052 -0 -0.11290995
vn 0.25929955 0 -0.96579695
vn 0.25929955 -0 -0.96579695
vn -0.76058334 0 -0.6492404
vn -0.76058334 0 -0.6492404
vn 0.09801084 0 -0.9951854
vn 0.09801084 -0 -0.9951854
vn 0.99699533 0 -0.0774611
vn 0.99699533 -0 -0.0774611
vn 0.64130956 0 -0.7672823
vn 0.64130956 -0 -0.7672823
vn 0.2742038 0 -0.9616716
vn 0.2742038 -0 -0.9616716
vn -0.422886 0 -0.9061829
vn -0.422886 0 -0.9061829
vn -0.9154302 0 -0.4024767
vn -0.9154302 0 -0.4024767
vn 0.0770976 0 -0.9970236
vn 0.0770976 -0 -0.9970236
vn -0.9792856 0 -0.20248388
vn -0.9792856 0 -0.20248388
vn 0.49016792 0 -0.87162805
vn 0.49016792 -0 -0.87162805
vn -0.8944272 0 -0.4472136
vn -0.8944272 0 -0.4472136
vn -0.020901177 0 -0.99978155
vn -0.020901177 0 -0.99978155
vn -0.3554042 0 -0.9347127
vn -0.3554042 0 -0.9347127
vn 0.8701732 0 -0.492746
vn 0.8701732 -0 -0.492746
vn -0.035014708 0 -0.99938685
vn -0.035014708 0 -0.99938685
vn -0.9178561 0 -0.39691332
vn -0.9178561 0 -0.39691332
vn 0.017054657 0 -0.99985456
vn 0.017054657 -0 -0.99985456
vn -0.0088828625 0 -0.9999605
vn -0.0088828625 0 -0.9999605
vn 0.99966514 0 -0.025875976
vn 0.99966514 -0 -0.025875976
vn -0.038087595 -0 0.99927443
vn -0.038087595 0 0.99927443
vn -0.28981775 -0 0.9570818
vn -0.28981775 0 0.9570818
vn 0.18085645 0 0.9835094
vn 0.18085645 0 0.9835094
vn -0.26105085 -0 0.96532506
vn -0.26105085 0 0.96532506
vn 0.2547799 0 0.96699905
vn 0.2547799 0 0.96699905
vn 0.70507735 0 0.7091304
vn 0.70507735 0 0.7091304
vn 0.91346866 0 -0.40690914
vn 0.91346866 -0 -0.40690914
vn 0.65064454 0 0.7593824
vn 0.65064454 0 0.7593824
vn 0.98368955 0 0.17987448
vn 0.98368955 0 0.17987448
vn 0.9676612 0 0.2522534
vn 0.9676612 0 0.2522534
vn -0.032987367 -0 0.99945575
vn -0.032987367 0 0.99945575
vn -0.78520805 -0 0.61923206
vn -0.78520805 0 0.61923206
vn -0.46508673 -0 0.8852652
vn -0.46508673 0 0.8852652
vn 0.11808738 0 0.99300325
vn 0.11808738 0 0.99300325
vn 0.96988857 0 0.2435492
vn 0.96988857 0 0.2435492
vn 0.918744 0 0.39485356
vn 0.918744 0 0.39485356
vn 0.9823619 0 0.18698967
vn 0.9823619 0 0.18698967
vn 0.36359945 0 -0.9315554
vn 0.36359945 -0 -0.9315554
vn -0.25223643 0 -0.9676656
vn -0.25223643 0 -0.9676656
vn -0.22337547 0 -0.97473246
vn -0.22337547 0 -0.97473246
vn 0.5097984 0 -0.8602939
vn 0.5097984 -0 -0.8602939
vn 0.21254534 0 -0.9771512
vn 0.21254534 -0 -0.9771512
vn 0.7672528 0 -0.6413447
vn 0.7672528 -0 -0.6413447
vn 0.88594264 0 0.4637949
vn 0.88594264 0 0.4637949
vn 0.89718777 0 -0.4416493
vn 0.89718777 -0 -0.4416493
vn 0.7871875 0 -0.61671364
vn 0.7871875 -0 -0.61671364
vn 0.99982536 0 -0.018688802
vn 0.99982536 -0 -0.018688802
vn 0.39679056 0 0.9179092
vn 0.39679056 0 0.9179092
vn 0.6253363 0 0.7803554
vn 0.6253363 0 0.7803554
vn 0.066768155 0 0.99776846
vn 0.066768155 0 0.99776846
vn 0.96515864 0 0.2616655
vn 0.96515864 0 0.2616655
vn 0.995175 0 -0.0981159
vn 0.995175 -0 -0.0981159
vn 0.3699519 0 -0.9290509
vn 0.3699519 -0 -0.9290509
vn 0.040679697 0 -0.9991722
vn 0.040679697 -0 -0.9991722
vn 0.69450504 0 -0.71948785
vn 0.69450504 -0 -0.71948785
vn 0.94711393 0 -0.32089746
vn 0.94711393 -0 -0.32089746
vn 0.49613765 0 -0.8682439
vn 0.49613765 -0 -0.8682439
vn -0.33034945 0 -0.9438587
vn -0.33034945 0 -0.9438587
vn 0.4065277 0 -0.9136385
vn 0.4065277 -0 -0.9136385
vn -0.11884764 0 -0.9929125
vn -0.11884764 0 -0.9929125
vn -0.37492982 0 -0.9270532
vn -0.37492982 0 -0.9270532
vn 0.31569767 0 -0.9488598
vn 0.31569767 -0 -0.9488598
vn -0.60114735 0 -0.7991381
vn -0.60114735 0 -0.7991381
vn -0.004991413 0 -0.9999875
vn -0.004991413 0 -0.9999875
vn 0.997262 0 0.07394917
vn 0.997262 0 0.07394917
vn 0.15539186 0 0.98785293
vn 0.15539186 0 0.98785293
vn 0.4270941 0 0.90420717
vn 0.4270941 0 0.90420717
vn -0.21581066 -0 0.97643524
vn -0.21581066 0 0.97643524
vn 0.86813 0 0.49633682
vn 0.86813 0 0.49633682
vn 0.060395908 0 0.99817455
vn 0.060395908 0 0.99817455
vn -0.5092121 -0 0.8606411
vn -0.5092121 0 0.8606411
vn -0.7367671 -0 0.6761466
vn -0.7367671 0 0.6761466
vn 0.7806548 0 0.62496245
vn 0.7806548 0 0.62496245
vn 0.74711967 0 0.6646896
vn 0.74711967 0 0.6646896
vn 0.6039076 0 0.79705435
vn 0.6039076 0 0.79705435
vn 0.12586111 0 0.9920479
vn 0.12586111 0 0.9920479
vn 0.7166745 0 0.69740784
vn 0.7166745 0 0.69740784
vn 0.7016039 0 -0.71256715
vn 0.7016039 -0 -0.71256715
vn 0.9987906 0 0.04916722
vn 0.9987906 0 0.04916722
vn 0.96941173 0 -0.24544029
vn 0.96941173 -0 -0.24544029
vn 0.65934753 0 -0.75183827
vn 0.65934753 -0 -0.75183827
vn 0.5652316 0 -0.8249322
vn 0.5652316 -0 -0.8249322
vn 0.7292891 0 -0.6842056
vn 0.7292891 -0 -0.6842056
vn 0.5871477 0 0.80947983
vn 0.5871477 0 0.80947983
vn -0.4078372 -0 0.91305465
vn -0.4078372 0 0.91305465
vn -0.8089978 -0 0.58781165
vn -0.8089978 0 0.58781165
vn -0.8985836 -0 0.43880242
vn -0.8985836 0 0.43880242
vn -0.9583092 0 -0.2857332
vn -0.9583092 0 -0.2857332
vn -0.86039376 -0 0.5096298
vn -0.86039376 0 0.5096298
vn -0.9997034 -0 0.02435485
vn -0.9997034 0 0.02435485
vn -0.99336785 0 -0.114979506
vn -0.99336785 0 -0.114979506
vn -0.24880822 0 -0.96855277
vn -0.24880822 0 -0.96855277
vn -0.8797637 -0 0.4754113
vn -0.8797637 0 0.4754113
vn -0.8732889 -0 0.48720264
vn -0.8732889 0 0.48720264
vn -0.72470313 0 -0.6890612
vn -0.72470313 0 -0.6890612
vn -0.888662 -0 0.45856285
vn -0.888662 0 0.45856285
vn -0.59136045 0 -0.80640733
vn -0.59136045 0 -0.80640733
vn 0.1513863 0 -0.98847467
vn 0.1513863 -0 -0.98847467
vn -0.8810407 0 -0.47304034
vn -0.8810407 0 -0.47304034
vn -0.999512 -0 0.031234503
vn -0.999512 0 0.031234503
vn -0.73972285 -0 0.6729116
vn -0.73972285 0 0.6729116
vn -0.92307734 0 -0.38461426
vn -0.92307734 0 -0.38461426
vn -0.9967869 -0 0.08009943
vn -0.9967869 0 0.08009943
vn -0.47741613 -0 0.87867737
vn -0.47741613 0 0.87867737
vn -0.26805314 -0 0.9634042
vn -0.26805314 0 0.9634042
vn 0.1435381 0 0.98964477
vn 0.1435381 0 0.98964477
vn 0.6663841 0 0.7456086
vn 0.6663841 0 0.7456086
vn -0.7071076 -0 0.70710593
vn -0.7071076 0 0.70710593
vn 0.7447597 0 0.6673328
vn 0.7447597 0 0.6673328
vn 0.5899269 0 0.8074567
vn 0.5899269 0 0.8074567
vn 0.8497089 0 -0.5272521
vn 0.8497089 -0 -0.5272521
vn 0.22071582 0 0.9753382
vn 0.22071582 0 0.9753382
vn 0.64553404 0 0.7637315
vn 0.64553404 0 0.7637315
vn 0.9806671 0 0.19568352
vn 0.9806671 0 0.19568352
vn -0.006094101 -0 0.99998146
vn -0.006094101 0 0.99998146
vn 0.9659273 0 0.2588137
vn 0.9659273 0 0.2588137
vn 0.925319 0 -0.37918955
vn 0.925319 -0 -0.37918955
vn 0.5054813 0 0.86283755
vn 0.5054813 0 0.86283755
vn 0.909065 0 -0.4166543
vn 0.909065 -0 -0.4166543
vn 0.884614 0 -0.46632403
vn 0.884614 -0 -0.46632403
vn 0.97334003 0 0.22936684
vn 0.97334003 0 0.22936684
vn -0.3727585 -0 0.9279284
vn -0.3727585 0 0.9279284
vn 0.41327322 0 0.91060704
vn 0.41327322 0 0.91060704
vn 0.9357813 0 0.35258102
vn 0.9357813 0 0.35258102
vn 0.97470415 0 0.22349907
vn 0.97470415 0 0.22349907
vn -0.15352291 -0 0.9881451
vn -0.15352291 0 0.9881451
vn -0.9703911 -0 0.24153897
vn -0.9703911 0 0.24153897
vn -0.44823545 0 -0.8939155
vn -0.44823545 0 -0.8939155
vn -0.9385097 0 -0.345253
vn -0.9385097 0 -0.345253
vn -0.84553844 -0 0.5339146
vn -0.84553844 0 0.5339146
vn -0.70710516 0 -0.7071083
vn -0.70710516 0 -0.7071083
vn -0.90476155 0 -0.4259185
vn -0.90476155 0 -0.4259185
vn 0.60756683 0 -0.7942685
vn 0.60756683 -0 -0.7942685
vn -0.9051802 0 -0.4250279
vn -0.9051802 0 -0.4250279
vn -0.97637856 0 -0.2160671
vn -0.97637856 0 -0.2160671
vn -0.19112173 -0 0.9815663
vn -0.19112173 0 0.9815663
vn -0.7849655 0 -0.6195393
vn -0.7849655 0 -0.6195393
vn -0.8634269 0 -0.504474
vn -0.8634269 0 -0.504474
vn -0.9585817 -0 0.28481784
vn -0.9585817 0 0.28481784
vn -0.89097434 0 -0.4540536
vn -0.89097434 0 -0.4540536
vn -0.9699963 -0 0.24311988
vn -0.9699963 0 0.24311988
vn -0.40687984 0 -0.91348165
vn -0.40687984 0 -0.91348165
vn -0.84092593 -0 0.5411503
vn -0.84092593 0 0.5411503
vn -0.8887438 0 -0.45840418
vn -0.8887438 0 -0.45840418
vn -0.72470427 -0 0.68906003
vn -0.72470427 0 0.68906003
vn 0.6995293 0 0.7146039
vn 0.6995293 0 0.7146039
vn -0.97677654 -0 0.21426034
vn -0.97677654 0 0.21426034
vn -0.89010435 -0 0.4557567
vn -0.89010435 0 0.4557567
vn -0.8643483 0 -0.50289375
vn -0.8643483 0 -0.50289375
vn -0.8381043 -0 0.5455101
vn -0.8381043 0 0.5455101
vn -0.85991275 -0 0.51044106
vn -0.85991275 0 0.51044106
vn 0.44322428 0 0.89641076
vn 0.44322428 0 0.89641076
vn -0.06267714 -0 0.9980338
vn -0.06267714 0 0.9980338
vn -0.7199115 -0 0.69406587
vn -0.7199115 0 0.69406587
vn -0.9176153 0 -0.39746958
vn -0.9176153 0 -0.39746958
vn -0.99340904 -0 0.114622995
vn -0.99340904 0 0.114622995
vn -0.91153705 0 -0.4112181
vn -0.91153705 0 -0.4112181
vn -0.6346592 0 -0.77279216
vn -0.6346592 0 -0.77279216
vn -0.905584 0 -0.42416707
vn -0.905584 0 -0.42416707
vn -0.55290145 -0 0.83324665
vn -0.55290145 0 0.83324665
vn -0.27260372 -0 0.9621264
vn -0.27260372 0 0.9621264
vn -0.98898554 -0 0.14801215
vn -0.98898554 0 0.14801215
vn -0.72765553 -0 0.6859427
vn -0.72765553 0 0.6859427
vn -0.9981785 -0 0.06032981
vn -0.9981785 0 0.06032981
vn -0.8161244 0 -0.5778763
vn -0.8161244 0 -0.5778763
vn -0.7983736 0 -0.60216254
vn -0.7983736 0 -0.60216254
vn -0.79512 0 -0.6064522
vn -0.79512 0 -0.6064522
vn 0.45166823 0 -0.892186
vn 0.45166823 -0 -0.892186
vn 0.78349495 0 -0.6213982
vn 0.78349495 -0 -0.6213982
vn -0.03506028 0 -0.9993852
vn -0.03506028 0 -0.9993852
vn -0.9014443 0 -0.43289518
vn -0.9014443 0 -0.43289518
vn -0.9444966 0 -0.32852122
vn -0.9444966 0 -0.32852122
vn -0.15658012 0 -0.98766524
vn -0.15658012 0 -0.98766524
vn 0.68800366 0 -0.7257072
vn 0.68800366 -0 -0.7257072
vn -0.17971651 0 -0.98371845
vn -0.17971651 0 -0.98371845
vn 0.7486983 0 -0.6629109
vn 0.7486983 -0 -0.6629109
vn -0.48947948 0 -0.8720148
vn -0.48947948 0 -0.8720148
vn -0.6367831 0 -0.771043
vn -0.6367831 0 -0.771043
vn -0.75653476 0 -0.6539535
vn -0.75653476 0 -0.6539535
vn -0.9067725 -0 0.42162013
vn -0.9067725 0 0.42162013
vn -0.99651766 0 -0.08338216
vn -0.99651766 0 -0.08338216
vn -0.9601212 0 -0.27958402
vn -0.9601212 0 -0.27958402
vn -0.74315876 0 -0.66911507
vn -0.74315876 0 -0.66911507
vn -1 0 0
vn -1 0 0
vn -0.93793935 -0 0.3467993
vn -0.93793935 0 0.3467993
vn -0.6643636 -0 0.7474096
vn -0.6643636 0 0.7474096
vn 0.6459426 0 0.76338595
vn 0.6459426 0 0.76338595
vn -0.34752712 -0 0.9376699
vn -0.34752712 0 0.9376699
vn -0.91633415 0 -0.40041444
vn -0.91633415 0 -0.40041444
vn -0.5594218 -0 0.8288831
vn -0.5594218 0 0.8288831
vn -0.77068627 0 -0.63721484
vn -0.77068627 0 -0.63721484
vn -0.9314004 0 -0.3639962
vn -0.9314004 0 -0.3639962
vn -0.83205134 -0 0.55469865
vn -0.83205134 0 0.55469865
vn 0.11951215 0 0.9928328
vn 0.11951215 0 0.9928328
vn -0.9306955 -0 0.3657949
vn -0.9306955 0 0.3657949
vn -0.5079401 -0 0.8613924
vn -0.5079401 0 0.8613924
vn -0.08757422 -0 0.996158
vn -0.08757422 0 0.996158
vn -0.28083715 -0 0.9597554
vn -0.28083715 0 0.9597554
vn -0.36590356 -0 0.9306528
vn -0.36590356 0 0.9306528
vn -0.72236204 -0 0.6915151
vn -0.72236204 0 0.6915151
vn -0.45520735 -0 0.8903855
vn -0.45520735 0 0.8903855
vn 0.9048621 0 0.42570493
vn 0.9048621 0 0.42570493
vn 0.9413596 0 0.3374052
vn 0.9413596 0 0.3374052
vn 0.48154908 0 -0.8764191
vn 0.48154908 -0 -0.8764191
vn 0.8753098 0 0.48356265
vn 0.8753098 0 0.48356265
vn -0.48513344 -0 0.87444013
vn -0.48513344 0 0.87444013
vn -0.97477365 -0 0.22319579
vn -0.97477365 0 0.22319579
vn -0.8360484 -0 0.5486557
vn -0.8360484 0 0.5486557
vn -0.1582016 -0 0.98740685
vn -0.1582016 0 0.98740685
vn 0.29187545 0 0.95645636
vn 0.29187545 0 0.95645636
vn 0.76619214 0 0.64261156
vn 0.76619214 0 0.64261156
vn -0.35324773 -0 0.9355298
vn -0.35324773 0 0.9355298
vn -0.1340462 -0 0.9909751
vn -0.1340462 0 0.9909751
vn -0.20107056 -0 0.97957677
vn -0.20107056 0 0.97957677
vn -0.99565005 0 -0.093171366
vn -0.99565005 0 -0.093171366
vn -0.06307188 0 -0.998009
vn -0.06307188 0 -0.998009
vn -0.6385007 0 -0.76962125
vn -0.6385007 0 -0.76962125
vn -0.9976884 -0 0.067954406
vn -0.9976884 0 0.067954406
vn -0.24631433 0 -0.96919
vn -0.24631433 0 -0.96919
vn 0.11354746 0 -0.9935326
vn 0.11354746 -0 -0.9935326
vn -0.9821157 0 -0.18827873
vn -0.9821157 0 -0.18827873
vn -0.9591541 -0 0.28288415
vn -0.9591541 0 0.28288415
vn -0.8017718 0 -0.5976302
vn -0.8017718 0 -0.5976302
vn -0.99801743 -0 0.06293778
vn -0.99801743 0 0.06293778
vn -0.45774558 -0 0.88908327
vn -0.45774558 0 0.88908327
vn -0.5902568 -0 0.80721545
vn -0.5902568 0 0.80721545
vn -0.75138193 -0 0.6598675
vn -0.75138193 0 0.6598675
vn -0.9008254 0 -0.43418163
vn -0.9008254 0 -0.43418163
vn -0.99080575 0 -0.13529223
vn -0.99080575 0 -0.13529223
vn -0.51200444 0 -0.8589828
vn -0.51200444 0 -0.8589828
vn -0.15205714 0 -0.98837173
vn -0.15205714 0 -0.98837173
vn 0.0774367 0 -0.9969973
vn 0.0774367 -0 -0.9969973
vn -0.99267644 0 -0.12080369
vn -0.99267644 0 -0.12080369
vn -0.9395079 0 -0.3425273
vn -0.9395079 0 -0.3425273
vn -0.88658583 -0 0.4625641
vn -0.88658583 0 0.4625641
vn -0.9977852 0 -0.066517584
vn -0.9977852 0 -0.066517584
vn -0.4899577 0 -0.87174624
vn -0.4899577 0 -0.87174624
vn 0.14834031 0 -0.98893636
vn 0.14834031 -0 -0.98893636
vn 0.446264 0 -0.89490134
vn 0.446264 -0 -0.89490134
vn 0.9783156 0 0.2071198
vn 0.9783156 0 0.2071198
vn 0.9342374 0 0.35665166
vn 0.9342374 0 0.35665166
vn 0.84822154 0 0.5296416
vn 0.84822154 0 0.5296416
vn 0.9932813 0 -0.11572466
vn 0.9932813 -0 -0.11572466
vn 0.30113056 0 -0.95358294
vn 0.30113056 -0 -0.95358294
vn 0.4021016 0 -0.915595
vn 0.4021016 -0 -0.915595
vn -0.19363308 0 -0.981074
vn -0.19363308 0 -0.981074
vn -0.35973287 0 -0.93305534
vn -0.35973287 0 -0.93305534
vn -0.5520963 0 -0.83378035
vn -0.5520963 0 -0.83378035
vn 0.95682955 0 -0.29064962
vn 0.95682955 -0 -0.29064962
vn 0.97388035 0 -0.22706175
vn 0.97388035 -0 -0.22706175
vn 0.70337534 0 0.71081865
vn 0.70337534 0 0.71081865
vn 0.82031596 0 -0.5719106
vn 0.82031596 -0 -0.5719106
vn 0.89215666 0 0.4517261
vn 0.89215666 0 0.4517261
vn 0.0156228505 0 -0.9998779
vn 0.0156228505 -0 -0.9998779
vn 0.058988478 0 -0.99825865
vn 0.058988478 -0 -0.99825865
vn 0.8087355 0 -0.58817244
vn 0.8087355 -0 -0.58817244
vn 0.9908301 0 0.13511345
vn 0.9908301 0 0.13511345
vn 0.64753366 0 -0.7620369
vn 0.64753366 -0 -0.7620369
vn -0.07837452 0 -0.996924
vn -0.07837452 0 -0.996924
vn 0.23852517 0 -0.97113633
vn 0.23852517 -0 -0.97113633
vn 0.54981154 0 -0.83528876
vn 0.54981154 -0 -0.83528876
vn -0.46613818 0 -0.8847119
vn -0.46613818 0 -0.8847119
vn -0.7647606 0 -0.64431447
vn -0.7647606 0 -0.64431447
vn 0.7396654 0 -0.6729749
vn 0.7396654 -0 -0.6729749
vn -0.38085604 0 -0.9246344
vn -0.38085604 0 -0.9246344
vn 0.30885753 0 -0.95110834
vn 0.30885753 -0 -0.95110834
vn -0.8211093 0 -0.570771
vn -0.8211093 0 -0.570771
vn 0.7872726 0 -0.61660516
vn 0.7872726 -0 -0.61660516
vn -0.18072028 0 -0.9835345
vn -0.18072028 0 -0.9835345
vn -0.61636734 0 -0.7874587
vn -0.61636734 0 -0.7874587
vn -0.99946874 -0 0.03259134
vn -0.99946874 0 0.03259134
vn -0.99972 0 -0.023662008
vn -0.99972 0 -0.023662008
vn -0.8770965 0 -0.48031425
vn -0.8770965 0 -0.48031425
vn -0.99632055 0 -0.085704885
vn -0.99632055 0 -0.085704885
vn -0.45304984 -0 0.8914852
vn -0.45304984 0 0.8914852
vn -0.9862214 -0 0.16543077
vn -0.9862214 0 0.16543077
vn -0.41518268 -0 0.90973806
vn -0.41518268 0 0.90973806
vn -0.7520012 -0 0.65916175
vn -0.7520012 0 0.65916175
vn 0.13303494 0 -0.99111134
vn 0.13303494 -0 -0.99111134
vn -0.4916668 0 -0.8707834
vn -0.4916668 0 -0.8707834
vn -0.8776896 0 -0.4792296
vn -0.8776896 0 -0.4792296
vn -0.9922779 -0 0.12403474
vn -0.9922779 0 0.12403474
vn -0.64758575 -0 0.7619925
vn -0.64758575 0 0.7619925
vn 0.08362208 0 0.9964975
vn 0.08362208 0 0.9964975
vn -0.44097725 -0 0.8975183
vn -0.44097725 0 0.8975183
vn -0.9828447 -0 0.18443492
vn -0.9828447 0 0.18443492
vn -0.81568336 0 -0.57849854
vn -0.81568336 0 -0.57849854
vn 0.53109187 0 -0.84731424
vn 0.53109187 -0 -0.84731424
vn 0.03601264 0 -0.9993514
vn 0.03601264 -0 -0.9993514
vn -0.69517505 0 -0.71884054
vn -0.69517505 0 -0.71884054
vn -0.39273396 0 -0.91965216
vn -0.39273396 0 -0.91965216
vn -0.8850017 0 -0.4655878
vn -0.8850017 0 -0.4655878
vn -0.9865071 -0 0.16371828
vn -0.9865071 0 0.16371828
vn -0.58667266 0 -0.8098241
vn -0.58667266 0 -0.8098241
vn 0.46119493 0 -0.8872989
vn 0.46119493 -0 -0.8872989
vn 0.9670035 0 -0.25476298
vn 0.9670035 -0 -0.25476298
vn -0.151792 0 -0.98841244
vn -0.151792 0 -0.98841244
vn -0.25096115 0 -0.96799713
vn -0.25096115 0 -0.96799713
vn -0.8049178 0 -0.5933864
vn -0.8049178 0 -0.5933864
vn -0.02476019 0 -0.99969345
vn -0.02476019 0 -0.99969345
vn -0.9828476 0 -0.1844196
vn -0.9828476 0 -0.1844196
vn -0.18686673 0 -0.9823853
vn -0.18686673 0 -0.9823853
vn 0.76677036 0 -0.6419215
vn 0.76677036 -0 -0.6419215
vn 0.9679969 0 -0.25096223
vn 0.96799684 -0 -0.2509622
vn 0.96799684 -0 -0.2509622
vn 0.96799684 -0 -0.2509622
g _0
f 1/1/1 2/2/2 3/3/3
f 4/4/4 3/3/3 2/2/2
f 3/3/3 4/4/4 5/5/5
f 6/6/6 5/5/5 4/4/4
f 5/5/5 6/6/6 7/7/7
f 8/8/8 7/7/7 6/6/6
f 7/7/7 8/8/8 9/9/9
f 10/10/10 9/9/9 8/8/8
f 9/9/9 10/10/10 11/11/11
f 12/12/12 11/11/11 10/10/10
f 11/11/11 12/12/12 13/13/13
f 14/14/14 13/13/13 12/12/12
f 13/13/13 14/14/14 15/15/15
f 16/16/16 15/15/15 14/14/14
f 15/15/15 16/16/16 17/17/17
f 18/18/18 17/17/17 16/16/16
f 17/17/17 18/18/18 19/19/19
f 20/20/20 19/19/19 18/18/18
f 19/19/19 20/20/20 21/21/21
f 22/22/22 21/21/21 20/20/20
f 21/21/21 22/22/22 23/23/23
f 24/24/24 23/23/23 22/22/22
f 23/23/23 24/24/24 25/25/25
f 26/26/26 25/25/25 24/24/24
f 25/25/25 26/26/26 27/27/27
f 28/28/28 27/27/27 26/26/26
f 27/27/27 28/28/28 29/29/29
f 30/30/30 29/29/29 28/28/28
f 29/29/29 30/30/30 31/31/31
f 32/32/32 31/31/31 30/30/30
f 31/31/31 32/32/32 33/33/33
f 34/34/34 33/33/33 32/32/32
f 33/33/33 34/34/34 35/35/35
f 36/36/36 35/35/35 34/34/34
f 35/35/35 36/36/36 37/37/37
f 38/38/38 37/37/37 36/36/36
f 37/37/37 38/38/38 39/39/39
f 40/40/40 39/39/39 38/38/38
f 39/39/39 40/40/40 41/41/41
f 42/42/42 41/41/41 40/40/40
f 41/41/41 42/42/42 43/43/43
f 44/44/44 43/43/43 42/42/42
f 43/43/43 44/44/44 45/45/45
f 46/46/46 45/45/45 44/44/44
f 45/45/45 46/46/46 47/47/47
f 48/48/48 47/47/47 46/46/46
f 47/47/47 48/48/48 49/49/49
f 50/50/50 49/49/49 48/48/48
f 49/49/49 50/50/50 51/51/51
f 52/52/52 51/51/51 50/50/50
f 51/51/51 52/52/52 53/53/53
f 54/54/54 53/53/53 52/52/52
f 53/53/53 54/54/54 55/55/55
f 56/56/56 55/55/55 54/54/54
f 55/55/55 56/56/56 57/57/57
f 58/58/58 57/57/57 56/56/56
f 57/57/57 58/58/58 59/59/59
f 60/60/60 59/59/59 58/58/58
f 59/59/59 60/60/60 61/61/61
f 62/62/62 61/61/61 60/60/60
f 61/61/61 62/62/62 63/63/63
f 64/64/64 63/63/63 62/62/62
f 63/63/63 64/64/64 65/65/65
f 66/66/66 65/65/65 64/64/64
f 65/65/65 66/66/66 67/67/67
f 68/68/68 67/67/67 66/66/66
f 67/67/67 68/68/68 69/69/69
f 70/70/70 69/69/69 68/68/68
f 69/69/69 70/70/70 71/71/71
f 72/72/72 71/71/71 70/70/70
f 71/71/71 72/72/72 73/73/73
f 74/74/74 73/73/73 72/72/72
f 73/73/73 74/74/74 75/75/75
f 76/76/76 75/75/75 74/74/74
f 75/75/75 76/76/76 77/77/77
f 78/78/78 77/77/77 76/76/76
f 77/77/77 78/78/78 79/79/79
f 80/80/80 79/79/79 78/78/78
f 79/79/79 80/80/80 81/81/81
f 82/82/82 81/81/81 80/80/80
f 81/81/81 82/82/82 83/83/83
f 84/84/84 83/83/83 82/82/82
f 83/83/83 84/84/84 85/85/85
f 86/86/86 85/85/85 84/84/84
f 85/85/85 86/86/86 87/87/87
f 88/88/88 87/87/87 86/86/86
f 87/87/87 88/88/88 89/89/89
f 90/90/90 89/89/89 88/88/88
f 89/89/89 90/90/90 91/91/91
f 92/92/92 91/91/91 90/90/90
f 91/91/91 92/92/92 93/93/93
f 94/94/94 93/93/93 92/92/92
f 93/93/93 94/94/94 95/95/95
f 96/96/96 95/95/95 94/94/94
f 95/95/95 96/96/96 97/97/97
f 98/98/98 97/97/97 96/96/96
f 97/97/97 98/98/98 99/99/99
f 100/100/100 99/99/99 98/98/98
f 99/99/99 100/100/100 101/101/101
f 102/102/102 101/101/101 100/100/100
f 101/101/101 102/102/102 103/103/103
f 104/104/104 103/103/103 102/102/102
f 103/103/103 104/104/104 105/105/105
f 106/106/106 105/105/105 104/104/104
f 105/105/105 106/106/106 107/107/107
f 108/108/108 107/107/107 106/106/106
f 107/107/107 108/108/108 109/109/109
f 110/110/110 109/109/109 108/108/108
f 109/109/109 110/110/110 111/111/111
f 112/112/112 111/111/111 110/110/110
f 111/111/111 112/112/112 113/113/113
f 114/114/114 113/113/113 112/112/112
f 113/113/113 114/114/114 115/115/115
f 116/116/116 115/115/115 114/114/114
f 115/115/115 116/116/116 117/117/117
f 118/118/118 117/117/117 116/116/116
f 117/117/117 118/118/118 119/119/119
f 120/120/120 119/119/119 118/118/118
f 119/119/119 120/120/120 121/121/121
f 122/122/122 121/121/121 120/120/120
f 121/121/121 122/122/122 123/123/123
f 124/124/124 123/123/123 122/122/122
f 123/123/123 124/124/124 125/125/125
f 126/126/126 125/125/125 124/124/124
f 125/125/125 126/126/126 127/127/127
f 128/128/128 127/127/127 126/126/126
f 127/127/127 128/128/128 129/129/129
f 130/130/130 129/129/129 128/128/128
f 129/129/129 130/130/130 131/131/131
f 132/132/132 131/131/131 130/130/130
f 131/131/131 132/132/132 133/133/133
f 134/134/134 133/133/133 132/132/132
f 133/133/133 134/134/134 135/135/135
f 136/136/136 135/135/135 134/134/134
f 135/135/135 136/136/136 137/137/137
f 138/138/138 137/137/137 136/136/136
f 137/137/137 138/138/138 139/139/139
f 140/140/140 139/139/139 138/138/138
f 139/139/139 140/140/140 141/141/141
f 142/142/142 141/141/141 140/140/140
f 141/141/141 142/142/142 143/143/143
f 144/144/144 143/143/143 142/142/142
f 143/143/143 144/144/144 145/145/145
f 146/146/146 145/145/145 144/144/144
f 145/145/145 146/146/146 147/147/147
f 148/148/148 147/147/147 146/146/146
f 147/147/147 148/148/148 149/149/149
f 150/150/150 149/149/149 148/148/148
f 149/149/149 150/150/150 151/151/151
f 152/152/152 151/151/151 150/150/150
f 151/151/151 152/152/152 153/153/153
f 154/154/154 153/153/153 152/152/152
f 153/153/153 154/154/154 155/155/155
f 156/156/156 155/155/155 154/154/154
f 155/155/155 156/156/156 157/157/157
f 158/158/158 157/157/157 156/156/156
f 157/157/157 158/158/158 159/159/159
f 160/160/160 159/159/159 158/158/158
f 159/159/159 160/160/160 161/161/161
f 162/162/162 161/161/161 160/160/160
f 161/161/161 162/162/162 163/163/163
f 164/164/164 163/163/163 162/162/162
f 163/163/163 164/164/164 165/165/165
f 166/166/166 165/165/165 164/164/164
f 165/165/165 166/166/166 167/167/167
f 168/168/168 167/167/167 166/166/166
f 167/167/167 168/168/168 169/169/169
f 170/170/170 169/169/169 168/168/168
f 169/169/169 170/170/170 171/171/171
f 172/172/172 171/171/171 170/170/170
f 171/171/171 172/172/172 173/173/173
f 174/174/174 173/173/173 172/172/172
f 173/173/173 174/174/174 175/175/175
f 176/176/176 175/175/175 174/174/174
f 175/175/175 176/176/176 177/177/177
f 178/178/178 177/177/177 176/176/176
f 177/177/177 178/178/178 179/179/179
f 180/180/180 179/179/179 178/178/178
f 179/179/179 180/180/180 181/181/181
f 182/182/182 181/181/181 180/180/180
f 181/181/181 182/182/182 183/183/183
f 184/184/184 183/183/183 182/182/182
f 183/183/183 184/184/184 185/185/185
f 186/186/186 185/185/185 184/184/184
f 185/185/185 186/186/186 187/187/187
f 188/188/188 187/187/187 186/186/186
f 187/187/187 188/188/188 189/189/189
f 190/190/190 189/189/189 188/188/188
f 189/189/189 190/190/190 191/191/191
f 192/192/192 191/191/191 190/190/190
f 191/191/191 192/192/192 193/193/193
f 194/194/194 193/193/193 192/192/192
f 193/193/193 194/194/194 195/195/195
f 196/196/196 195/195/195 194/194/194
f 195/195/195 196/196/196 197/197/197
f 198/198/198 197/197/197 196/196/196
f 197/197/197 198/198/198 199/199/199
f 200/200/200 199/199/199 198/198/198
f 199/199/199 200/200/200 201/201/201
f 202/202/202 201/201/201 200/200/200
f 201/201/201 202/202/202 203/203/203
f 204/204/204 203/203/203 202/202/202
f 203/203/203 204/204/204 205/205/205
f 206/206/206 205/205/205 204/204/204
f 205/205/205 206/206/206 207/207/207
f 208/208/208 207/207/207 206/206/206
f 207/207/207 208/208/208 209/209/209
f 210/210/210 209/209/209 208/208/208
f 209/209/209 210/210/210 211/211/211
f 212/212/212 211/211/211 210/210/210
f 211/211/211 212/212/212 213/213/213
f 214/214/214 213/213/213 212/212/212
f 213/213/213 214/214/214 215/215/215
f 216/216/216 215/215/215 214/214/214
f 215/215/215 216/216/216 217/217/217
f 218/218/218 217/217/217 216/216/216
f 217/217/217 218/218/218 219/219/219
f 220/220/220 219/219/219 218/218/218
f 219/219/219 220/220/220 221/221/221
f 222/222/222 221/221/221 220/220/220
f 221/221/221 222/222/222 223/223/223
f 224/224/224 223/223/223 222/222/222
f 223/223/223 224/224/224 225/225/225
f 226/226/226 225/225/225 224/224/224
f 225/225/225 226/226/226 227/227/227
f 228/228/228 227/227/227 226/226/226
f 227/227/227 228/228/228 229/229/229
f 230/230/230 229/229/229 228/228/228
f 229/229/229 230/230/230 231/231/231
f 232/232/232 231/231/231 230/230/230
f 231/231/231 232/232/232 233/233/233
f 234/234/234 233/233/233 232/232/232
f 233/233/233 234/234/234 235/235/235
f 236/236/236 235/235/235 234/234/234
f 235/235/235 236/236/236 237/237/237
f 238/238/238 237/237/237 236/236/236
f 237/237/237 238/238/238 239/239/239
f 240/240/240 239/239/239 238/238/238
f 239/239/239 240/240/240 241/241/241
f 242/242/242 241/241/241 240/240/240
f 241/241/241 242/242/242 243/243/243
f 244/244/244 243/243/243 242/242/242
f 243/243/243 244/244/244 245/245/245
f 246/246/246 245/245/245 244/244/244
f 245/245/245 246/246/246 247/247/247
f 248/248/248 247/247/247 246/246/246
f 247/247/247 248/248/248 249/249/249
f 250/250/250 249/249/249 248/248/248
f 249/249/249 250/250/250 251/251/251
f 252/252/252 251/251/251 250/250/250
f 251/251/251 252/252/252 253/253/253
f 254/254/254 253/253/253 252/252/252
f 253/253/253 254/254/254 255/255/255
f 256/256/256 255/255/255 254/254/254
f 255/255/255 256/256/256 257/257/257
f 258/258/258 257/257/257 256/256/256
f 257/257/257 258/258/258 259/259/259
f 260/260/260 259/259/259 258/258/258
f 259/259/259 260/260/260 261/261/261
f 262/262/262 261/261/261 260/260/260
f 261/261/261 262/262/262 263/263/263
f 264/264/264 263/263/263 262/262/262
f 263/263/263 264/264/264 265/265/265
f 266/266/266 265/265/265 264/264/264
f 265/265/265 266/266/266 267/267/267
f 268/268/268 267/267/267 266/266/266
f 267/267/267 268/268/268 269/269/269
f 270/270/270 269/269/269 268/268/268
f 269/269/269 270/270/270 271/271/271
f 272/272/272 271/271/271 270/270/270
f 271/271/271 272/272/272 273/273/273
f 274/274/274 273/273/273 272/272/272
f 273/273/273 274/274/274 275/275/275
f 276/276/276 275/275/275 274/274/274
f 275/275/275 276/276/276 277/277/277
f 278/278/278 277/277/277 276/276/276
f 277/277/277 278/278/278 279/279/279
f 280/280/280 279/279/279 278/278/278
f 279/279/279 280/280/280 281/281/281
f 282/282/282 281/281/281 280/280/280
f 281/281/281 282/282/282 283/283/283
f 284/284/284 283/283/283 282/282/282
f 283/283/283 284/284/284 285/285/285
f 286/286/286 285/285/285 284/284/284
f 285/285/285 286/286/286 287/287/287
f 288/288/288 287/287/287 286/286/286
f 287/287/287 288/288/288 289/289/289
f 290/290/290 289/289/289 288/288/288
f 289/289/289 290/290/290 291/291/291
f 292/292/292 291/291/291 290/290/290
f 291/291/291 292/292/292 293/293/293
f 294/294/294 293/293/293 292/292/292
f 293/293/293 294/294/294 295/295/295
f 296/296/296 295/295/295 294/294/294
f 295/295/295 296/296/296 297/297/297
f 298/298/298 297/297/297 296/296/296
f 297/297/297 298/298/298 299/299/299
f 300/300/300 299/299/299 298/298/298
f 299/299/299 300/300/300 301/301/301
f 302/302/302 301/301/301 300/300/300
f 301/301/301 302/302/302 303/303/303
f 304/304/304 303/303/303 302/302/302
f 303/303/303 304/304/304 305/305/305
f 306/306/306 305/305/305 304/304/304
f 305/305/305 306/306/306 307/307/307
f 308/308/308 307/307/307 306/306/306
f 307/307/307 308/308/308 309/309/309
f 310/310/310 309/309/309 308/308/308
f 309/309/309 310/310/310 311/311/311
f 312/312/312 311/311/311 310/310/310
f 311/311/311 312/312/312 313/313/313
f 314/314/314 313/313/313 312/312/312
f 313/313/313 314/314/314 315/315/315
f 316/316/316 315/315/315 314/314/314
f 315/315/315 316/316/316 317/317/317
f 318/318/318 317/317/317 316/316/316
f 317/317/317 318/318/318 319/319/319
f 320/320/320 319/319/319 318/318/318
f 319/319/319 320/320/320 321/321/321
f 322/322/322 321/321/321 320/320/320
f 321/321/321 322/322/322 323/323/323
f 324/324/324 323/323/323 322/322/322
f 323/323/323 324/324/324 325/325/325
f 326/326/326 325/325/325 324/324/324
f 325/325/325 326/326/326 327/327/327
f 328/328/328 327/327/327 326/326/326
f 327/327/327 328/328/328 329/329/329
f 330/330/330 329/329/329 328/328/328
f 329/329/329 330/330/330 331/331/331
f 332/332/332 331/331/331 330/330/330
f 331/331/331 332/332/332 333/333/333
f 334/334/334 333/333/333 332/332/332
f 333/333/333 334/334/334 335/335/335
f 336/336/336 335/335/335 334/334/334
f 335/335/335 336/336/336 337/337/337
f 338/338/338 337/337/337 336/336/336
f 337/337/337 338/338/338 339/339/339
f 340/340/340 339/339/339 338/338/338
f 339/339/339 340/340/340 341/341/341
f 342/342/342 341/341/341 340/340/340
f 341/341/341 342/342/342 343/343/343
f 344/344/344 343/343/343 342/342/342
f 343/343/343 344/344/344 345/345/345
f 346/346/346 345/345/345 344/344/344
f 345/345/345 346/346/346 347/347/347
f 348/348/348 347/347/347 346/346/346
f 347/347/347 348/348/348 349/349/349
f 350/350/350 349/349/349 348/348/348
f 349/349/349 350/350/350 351/351/351
f 352/352/352 351/351/351 350/350/350
f 351/351/351 352/352/352 353/353/353
f 354/354/354 353/353/353 352/352/352
f 353/353/353 354/354/354 355/355/355
f 356/356/356 355/355/355 354/354/354
f 355/355/355 356/356/356 357/357/357
f 358/358/358 357/357/357 356/356/356
f 357/357/357 358/358/358 359/359/359
f 360/360/360 359/359/359 358/358/358
f 359/359/359 360/360/360 361/361/361
f 362/362/362 361/361/361 360/360/360
f 361/361/361 362/362/362 363/363/363
f 364/364/364 363/363/363 362/362/362
f 363/363/363 364/364/364 365/365/365
f 366/366/366 365/365/365 364/364/364
f 365/365/365 366/366/366 367/367/367
f 368/368/368 367/367/367 366/366/366
f 367/367/367 368/368/368 369/369/369
f 370/370/370 369/369/369 368/368/368
f 369/369/369 370/370/370 371/371/371
f 372/372/372 371/371/371 370/370/370
f 371/371/371 372/372/372 373/373/373
f 374/374/374 373/373/373 372/372/372
f 373/373/373 374/374/374 375/375/375
f 376/376/376 375/375/375 374/374/374
f 375/375/375 376/376/376 377/377/377
f 378/378/378 377/377/377 376/376/376
f 377/377/377 378/378/378 379/379/379
f 380/380/380 379/379/379 378/378/378
f 379/379/379 380/380/380 381/381/381
f 382/382/382 381/381/381 380/380/380
f 381/381/381 382/382/382 383/383/383
f 384/384/384 383/383/383 382/382/382
f 383/383/383 384/384/384 385/385/385
f 386/386/386 385/385/385 384/384/384
f 385/385/385 386/386/386 387/387/387
f 388/388/388 387/387/387 386/386/386
f 387/387/387 388/388/388 389/389/389
f 390/390/390 389/389/389 388/388/388
f 389/389/389 390/390/390 391/391/391
f 392/392/392 391/391/391 390/390/390
f 391/391/391 392/392/392 393/393/393
f 394/394/394 393/393/393 392/392/392
f 393/393/393 394/394/394 395/395/395
f 396/396/396 395/395/395 394/394/394
f 395/395/395 396/396/396 397/397/397
f 398/398/398 397/397/397 396/396/396
f 397/397/397 398/398/398 399/399/399
f 400/400/400 399/399/399 398/398/398
f 399/399/399 400/400/400 401/401/401
f 402/402/402 401/401/401 400/400/400
f 401/401/401 402/402/402 403/403/403
f 404/404/404 403/403/403 402/402/402
f 403/403/403 404/404/404 405/405/405
f 406/406/406 405/405/405 404/404/404
f 405/405/405 406/406/406 407/407/407
f 408/408/408 407/407/407 406/406/406
f 407/407/407 408/408/408 409/409/409
f 410/410/410 409/409/409 408/408/408
f 409/409/409 410/410/410 411/411/411
f 412/412/412 411/411/411 410/410/410
f 411/411/411 412/412/412 413/413/413
f 414/414/414 413/413/413 412/412/412
f 413/413/413 414/414/414 415/415/415
f 416/416/416 415/415/415 414/414/414
f 415/415/415 416/416/416 417/417/417
f 418/418/418 417/417/417 416/416/416
f 417/417/417 418/418/418 419/419/419
f 420/420/420 419/419/419 418/418/418
f 419/419/419 420/420/420 421/421/421
f 422/422/422 421/421/421 420/420/420
f 421/421/421 422/422/422 423/423/423
f 424/424/424 423/423/423 422/422/422
f 423/423/423 424/424/424 425/425/425
f 426/426/426 425/425/425 424/424/424
f 425/425/425 426/426/426 427/427/427
f 428/428/428 427/427/427 426/426/426
f 427/427/427 428/428/428 429/429/429
f 430/430/430 429/429/429 428/428/428
f 429/429/429 430/430/430 431/431/431
f 432/432/432 431/431/431 430/430/430
f 431/431/431 432/432/432 433/433/433
f 434/434/434 433/433/433 432/432/432
f 433/433/433 434/434/434 435/435/435
f 436/436/436 435/435/435 434/434/434
f 435/435/435 436/436/436 437/437/437
f 438/438/438 437/437/437 436/436/436
f 437/437/437 438/438/438 439/439/439
f 440/440/440 439/439/439 438/438/438
f 439/439/439 440/440/440 441/441/441
f 442/442/442 441/441/441 440/440/440
f 441/441/441 442/442/442 443/443/443
f 444/444/444 443/443/443 442/442/442
f 443/443/443 444/444/444 445/445/445
f 446/446/446 445/445/445 444/444/444
f 445/445/445 446/446/446 447/447/447
f 448/448/448 447/447/447 446/446/446
f 447/447/447 448/448/448 449/449/449
f 450/450/450 449/449/449 448/448/448
f 449/449/449 450/450/450 451/451/451
f 452/452/452 451/451/451 450/450/450
f 451/451/451 452/452/452 453/453/453
f 454/454/454 453/453/453 452/452/452
f 453/453/453 454/454/454 455/455/455
f 456/456/456 455/455/455 454/454/454
f 455/455/455 456/456/456 457/457/457
f 458/458/458 457/457/457 456/456/456
f 457/457/457 458/458/458 459/459/459
f 460/460/460 459/459/459 458/458/458
f 459/459/459 460/460/460 461/461/461
f 462/462/462 461/461/461 460/460/460
f 461/461/461 462/462/462 463/463/463
f 464/464/464 463/463/463 462/462/462
f 463/463/463 464/464/464 465/465/465
f 466/466/466 465/465/465 464/464/464
f 465/465/465 466/466/466 467/467/467
f 468/468/468 467/467/467 466/466/466
f 467/467/467 468/468/468 469/469/469
f 470/470/470 469/469/469 468/468/468
f 469/469/469 470/470/470 471/471/471
f 472/472/472 471/471/471 470/470/470
f 471/471/471 472/472/472 473/473/473
f 474/474/474 473/473/473 472/472/472
f 473/473/473 474/474/474 475/475/475
f 476/476/476 475/475/475 474/474/474
f 475/475/475 476/476/476 477/477/477
f 478/478/478 477/477/477 476/476/476
f 477/477/477 478/478/478 479/479/479
f 480/480/480 479/479/479 478/478/478
f 479/479/479 480/480/480 481/481/481
f 482/482/482 481/481/481 480/480/480
f 481/481/481 482/482/482 483/483/483
f 484/484/484 483/483/483 482/482/482
f 483/483/483 484/484/484 485/485/485
f 486/486/486 485/485/485 484/484/484
f 485/485/485 486/486/486 487/487/487
f 488/488/488 487/487/487 486/486/486
f 487/487/487 488/488/488 489/489/489
f 490/490/490 489/489/489 488/488/488
f 489/489/489 490/490/490 491/491/491
f 492/492/492 491/491/491 490/490/490
f 491/491/491 492/492/492 493/493/493
f 494/494/494 493/493/493 492/492/492
f 493/493/493 494/494/494 495/495/495
f 496/496/496 495/495/495 494/494/494
f 495/495/495 496/496/496 497/497/497
f 498/498/498 497/497/497 496/496/496
f 497/497/497 498/498/498 499/499/499
f 500/500/500 499/499/499 498/498/498
f 499/499/499 500/500/500 501/501/501
f 502/502/502 501/501/501 500/500/500
f 501/501/501 502/502/502 503/503/503
f 504/504/504 503/503/503 502/502/502
f 503/503/503 504/504/504 505/505/505
f 506/506/506 505/505/505 504/504/504
f 505/505/505 506/506/506 507/507/507
f 508/508/508 507/507/507 506/506/506
f 507/507/507 508/508/508 509/509/509
f 510/510/510 509/509/509 508/508/508
f 509/509/509 510/510/510 511/511/511
f 512/512/512 511/511/511 510/510/510
f 511/511/511 512/512/512 513/513/513
f 514/514/514 513/513/513 512/512/512
f 513/513/513 514/514/514 515/515/515
f 516/516/516 515/515/515 514/514/514
f 515/515/515 516/516/516 517/517/517
f 518/518/518 517/517/517 516/516/516
f 517/517/517 518/518/518 519/519/519
f 520/520/520 519/519/519 518/518/518
f 519/519/519 520/520/520 521/521/521
f 522/522/522 521/521/521 520/520/520
f 521/521/521 522/522/522 523/523/523
f 524/524/524 523/523/523 522/522/522
f 523/523/523 524/524/524 525/525/525
f 526/526/526 525/525/525 524/524/524
f 525/525/525 526/526/526 527/527/527
f 528/528/528 527/527/527 526/526/526
f 527/527/527 528/528/528 529/529/529
f 530/530/530 529/529/529 528/528/528
f 529/529/529 530/530/530 531/531/531
f 532/532/532 531/531/531 530/530/530
f 531/531/531 532/532/532 533/533/533
f 534/534/534 533/533/533 532/532/532
f 533/533/533 534/534/534 535/535/535
f 536/536/536 535/535/535 534/534/534
f 535/535/535 536/536/536 537/537/537
f 538/538/538 537/537/537 536/536/536
f 537/537/537 538/538/538 539/539/539
f 540/540/540 539/539/539 538/538/538
f 539/539/539 540/540/540 541/541/541
f 542/542/542 541/541/541 540/540/540
f 541/541/541 542/542/542 543/543/543
f 544/544/544 543/543/543 542/542/542
f 543/543/543 544/544/544 545/545/545
f 546/546/546 545/545/545 544/544/544
f 545/545/545 546/546/546 547/547/547
f 548/548/548 547/547/547 546/546/546
f 547/547/547 548/548/548 549/549/549
f 550/550/550 549/549/549 548/548/548
f 549/549/549 550/550/550 551/551/551
f 552/552/552 551/551/551 550/550/550
f 551/551/551 552/552/552 553/553/553
f 554/554/554 553/553/553 552/552/552
f 553/553/553 554/554/554 555/555/555
f 556/556/556 555/555/555 554/554/554
f 555/555/555 556/556/556 557/557/557
f 558/558/558 557/557/557 556/556/556
f 557/557/557 558/558/558 559/559/559
f 560/560/560 559/559/559 558/558/558
f 559/559/559 560/560/560 561/561/561
f 562/562/562 561/561/561 560/560/560
f 561/561/561 562/562/562 563/563/563
f 564/564/564 563/563/563 562/562/562
f 563/563/563 564/564/564 565/565/565
f 566/566/566 565/565/565 564/564/564
f 565/565/565 566/566/566 567/567/567
f 568/568/568 567/567/567 566/566/566
f 567/567/567 568/568/568 569/569/569
f 570/570/570 569/569/569 568/568/568
f 569/569/569 570/570/570 571/571/571
f 572/572/572 571/571/571 570/570/570
f 571/571/571 572/572/572 573/573/573
f 574/574/574 573/573/573 572/572/572
f 573/573/573 574/574/574 575/575/575
f 576/576/576 575/575/575 574/574/574
f 575/575/575 576/576/576 577/577/577
f 578/578/578 577/577/577 576/576/576
f 577/577/577 578/578/578 579/579/579
f 580/580/580 579/579/579 578/578/578
f 579/579/579 580/580/580 581/581/581
f 582/582/582 581/581/581 580/580/580
f 581/581/581 582/582/582 583/583/583
f 584/584/584 583/583/583 582/582/582
f 583/583/583 584/584/584 585/585/585
f 586/586/586 585/585/585 584/584/584
f 585/585/585 586/586/586 587/587/587
f 588/588/588 587/587/587 586/586/586
f 587/587/587 588/588/588 589/589/589
f 590/590/590 589/589/589 588/588/588
f 589/589/589 590/590/590 591/591/591
f 592/592/592 591/591/591 590/590/590
f 591/591/591 592/592/592 593/593/593
f 594/594/594 593/593/593 592/592/592
f 593/593/593 594/594/594 595/595/595
f 596/596/596 595/595/595 594/594/594
f 595/595/595 596/596/596 597/597/597
f 598/598/598 597/597/597 596/596/596
f 597/597/597 598/598/598 599/599/599
f 600/600/600 599/599/599 598/598/598
f 599/599/599 600/600/600 601/601/601
f 602/602/602 601/601/601 600/600/600
f 601/601/601 602/602/602 603/603/603
f 604/604/604 603/603/603 602/602/602
f 603/603/603 604/604/604 605/605/605
f 606/606/606 605/605/605 604/604/604
f 605/605/605 606/606/606 607/607/607
f 608/608/608 607/607/607 606/606/606
f 607/607/607 608/608/608 609/609/609
f 610/610/610 609/609/609 608/608/608
f 609/609/609 610/610/610 611/611/611
f 612/612/612 611/611/611 610/610/610
f 611/611/611 612/612/612 613/613/613
f 614/614/614 613/613/613 612/612/612
f 613/613/613 614/614/614 615/615/615
f 616/616/616 615/615/615 614/614/614
f 615/615/615 616/616/616 617/617/617
f 618/618/618 617/617/617 616/616/616
f 617/617/617 618/618/618 619/619/619
f 620/620/620 619/619/619 618/618/618
f 619/619/619 620/620/620 621/621/621
f 622/622/622 621/621/621 620/620/620
f 621/621/621 622/622/622 623/623/623
f 624/624/624 623/623/623 622/622/622
f 623/623/623 624/624/624 625/625/625
f 626/626/626 625/625/625 624/624/624
f 625/625/625 626/626/626 627/627/627
f 628/628/628 627/627/627 626/626/626
f 627/627/627 628/628/628 629/629/629
f 630/630/630 629/629/629 628/628/628
f 629/629/629 630/630/630 631/631/631
f 632/632/632 631/631/631 630/630/630
f 631/631/631 632/632/632 633/633/633
f 634/634/634 633/633/633 632/632/632
f 633/633/633 634/634/634 635/635/635
f 636/636/636 635/635/635 634/634/634
f 635/635/635 636/636/636 637/637/637
f 638/638/638 637/637/637 636/636/636
f 637/637/637 638/638/638 639/639/639
f 640/640/640 639/639/639 638/638/638
f 639/639/639 640/640/640 641/641/641
f 642/642/642 641/641/641 640/640/640
f 641/641/641 642/642/642 643/643/643
f 644/644/644 643/643/643 642/642/642
