g 
v 104.072075 49.5 62.277824
v 104.072075 35.5 62.277824
v 99.07615 49.5 64.51814
v 99.07615 35.5 64.51814
v 98.078316 49.5 71.20684
v 98.078316 35.5 71.20684
v 100.77921 54.500008 73.44609
v 100.77921 40.500008 73.44609
v 103.16211 53.3247 77.93923
v 103.16211 39.3247 77.93923
v 107.34918 49.693024 83.16076
v 107.34918 35.693024 83.16076
v 112.39536 49.5 81.397026
v 112.39536 35.5 81.397026
v 119.032074 49.5 82.158325
v 119.032074 35.5 82.158325
v 122.64023 49.5 80.91419
v 122.64023 35.5 80.91419
v 127.637215 49.5 79.19202
v 127.637215 35.5 79.19202
v 127.23235 49.5 76.84729
v 127.23235 35.5 76.84729
v 121.81628 49.5 75.06281
v 121.81628 35.5 75.06281
v 119.41262 49.5 70.78818
v 119.41262 35.5 70.78818
v 120.05011 49.5 66.09086
v 120.05011 35.5 66.09086
v 116.26937 49.5 62.155106
v 116.26937 35.5 62.155106
v 114.61219 50.1494 64.09954
v 114.61219 36.1494 64.09954
v 115.79014 54.373375 69.28227
v 115.79014 40.373375 69.28227
v 114.04261 54.500008 73.06431
v 114.04261 40.500008 73.06431
v 109.138084 54.500008 73.54093
v 109.138084 40.500008 73.54093
v 104.372696 54.433655 69.56183
v 104.372696 40.433655 69.56183
v 104.51989 50.736244 65.35627
v 104.51989 36.736244 65.35627
v 104.072075 49.5 62.277824
v 104.072075 35.5 62.277824
vt -1.0617207 0.50977826
vt -1.0617207 0.50977826
vt -1.0117614 0.53218144
vt -1.0117614 0.53218144
vt -1.0017831 0.5990684
vt -1.0017831 0.5990684
vt -1.0287921 0.6214609
vt -1.0287921 0.6214609
vt -1.052621 0.66639227
vt -1.052621 0.66639227
vt -1.0944918 0.71860754
vt -1.0944918 0.71860754
vt -1.1449536 0.70097023
vt -1.1449536 0.70097023
vt -1.2113206 0.7085832
vt -1.2113206 0.7085832
vt -1.2474022 0.6961419
vt -1.2474022 0.6961419
vt -1.2973721 0.67892015
vt -1.2973721 0.67892015
vt -1.2933235 0.6554729
vt -1.2933235 0.6554729
vt -1.2391627 0.63762814
vt -1.2391627 0.63762814
vt -1.2151262 0.5948818
vt -1.2151262 0.5948818
vt -1.2215011 0.5479086
vt -1.2215011 0.5479086
vt -1.1836936 0.50855106
vt -1.1836936 0.50855106
vt -1.1671219 0.5279954
vt -1.1671219 0.5279954
vt -1.1789013 0.5798227
vt -1.1789013 0.5798227
vt -1.1614261 0.61764306
vt -1.1614261 0.61764306
vt -1.1123809 0.6224093
vt -1.1123809 0.6224093
vt -1.064727 0.5826183
vt -1.064727 0.5826183
vt -1.0661988 0.5405627
vt -1.0661988 0.5405627
vt -1.0617207 0.50977826
vt -1.0617207 0.50977826
vn -0.4091723 0 -0.91245717
vn -0.4091723 0 -0.91245717
vn -0.98905474 0 -0.14754915
vn -0.98905474 0 -0.14754915
vn -0.6382484 -0 0.7698306
vn -0.6382484 0 0.7698306
vn -0.8834483 -0 0.46852875
vn -0.8834483 0 0.46852875
vn -0.7801503 -0 0.6255921
vn -0.7801503 0 0.6255921
vn 0.32994536 0 0.944
vn 0.32994536 0 0.944
vn -0.11396296 -0 0.993485
vn -0.11396296 0 0.993485
vn 0.3259771 0 0.9453777
vn 0.3259771 0 0.9453777
vn 0.32583457 0 0.94542676
vn 0.32583457 0 0.94542676
vn 0.98541796 0 -0.17015107
vn 0.98541796 -0 -0.17015107
vn 0.3129302 0 -0.9497762
vn 0.3129302 -0 -0.9497762
vn 0.87164754 0 -0.49013323
vn 0.87164754 -0 -0.49013323
vn 0.99091625 0 0.13448066
vn 0.99091625 0 0.13448066
vn 0.7211661 0 -0.69276214
vn 0.7211661 -0 -0.69276214
vn -0.7610867 0 -0.6486502
vn -0.7610867 0 -0.6486502
vn -0.9751307 -0 0.22163086
vn -0.9751307 0 0.22163086
vn -0.9077791 0 -0.41944855
vn -0.9077791 0 -0.41944855
vn -0.0967247 0 -0.9953112
vn -0.0967247 0 -0.9953112
vn 0.6409395 0 -0.7675914
vn 0.6409395 -0 -0.7675914
vn 0.99938804 0 0.034978427
vn 0.99938804 0 0.034978427
vn 0.9895845 0 -0.14395277
vn 0.9895845 -0 -0.14395277
vn 0.9895845 -0 -0.14395277
vn 0.9895845 -0 -0.14395277
g _0
f 1/1/1 2/2/2 3/3/3
f 4/4/4 3/3/3 2/2/2
f 3/3/3 4/4/4 5/5/5
f 6/6/6 5/5/5 4/4/4
f 5/5/5 6/6/6 7/7/7
f 8/8/8 7/7/7 6/6/6
f 7/7/7 8/8/8 9/9/9
f 10/10/10 9/9/9 8/8/8
f 9/9/9 10/10/10 11/11/11
f 12/12/12 11/11/11 10/10/10
f 11/11/11 12/12/12 13/13/13
f 14/14/14 13/13/13 12/12/12
f 13/13/13 14/14/14 15/15/15
f 16/16/16 15/15/15 14/14/14
f 15/15/15 16/16/16 17/17/17
f 18/18/18 17/17/17 16/16/16
f 17/17/17 18/18/18 19/19/19
f 20/20/20 19/19/19 18/18/18
f 19/19/19 20/20/20 21/21/21
f 22/22/22 21/21/21 20/20/20
f 21/21/21 22/22/22 23/23/23
f 24/24/24 23/23/23 22/22/22
f 23/23/23 24/24/24 25/25/25
f 26/26/26 25/25/25 24/24/24
f 25/25/25 26/26/26 27/27/27
f 28/28/28 27/27/27 26/26/26
f 27/27/27 28/28/28 29/29/29
f 30/30/30 29/29/29 28/28/28
f 29/29/29 30/30/30 31/31/31
f 32/32/32 31/31/31 30/30/30
f 31/31/31 32/32/32 33/33/33
f 34/34/34 33/33/33 32/32/32
f 33/33/33 34/34/34 35/35/35
f 36/36/36 35/35/35 34/34/34
f 35/35/35 36/36/36 37/37/37
f 38/38/38 37/37/37 36/36/36
f 37/37/37 38/38/38 39/39/39
f 40/40/40 39/39/39 38/38/38
f 39/39/39 40/40/40 41/41/41
f 42/42/42 41/41/41 40/40/40
f 41/41/41 42/42/42 43/43/43
f 44/44/44 43/43/43 42/42/42
