g 
v 36.20771 36.611565 -36.02188
v 36.20771 22.611567 -36.02188
v 34.05695 35.73333 -42.5526
v 34.05695 21.733332 -42.5526
v 34.62176 35.206413 -45.059258
v 34.62176 21.206415 -45.059258
v 31.736963 34.694138 -47.465637
v 31.736963 20.69414 -47.465637
v 29.59955 33.084908 -51.739513
v 29.59955 19.08491 -51.739513
v 27.638382 35.30658 -51.721893
v 27.638382 21.306578 -51.721893
v 27.366224 35.30658 -47.701717
v 27.366224 21.306578 -47.701717
v 28.780085 35.61815 -42.968643
v 28.780085 21.618149 -42.968643
v 27.591726 36.41574 -40.03992
v 27.591726 22.41574 -40.03992
v 29.222351 36.65953 -34.622456
v 29.222351 22.659533 -34.622456
v 33.01483 36.8 -30.721577
v 33.01483 22.8 -30.721577
v 36.152714 36.742706 -33.65717
v 36.152714 22.742708 -33.65717
v 36.20771 36.611565 -36.02188
v 36.20771 22.611567 -36.02188
vt -0.38307709 -0.4732188
vt -0.38307709 -0.4732188
vt -0.36156946 -0.538526
vt -0.36156946 -0.538526
vt -0.3672176 -0.56359255
vt -0.3672176 -0.56359255
vt -0.33836964 -0.5876564
vt -0.33836964 -0.5876564
vt -0.3169955 -0.6303951
vt -0.3169955 -0.6303951
vt -0.29738382 -0.6302189
vt -0.29738382 -0.6302189
vt -0.29466224 -0.59001714
vt -0.29466224 -0.59001714
vt -0.30880085 -0.5426864
vt -0.30880085 -0.5426864
vt -0.29691726 -0.5133992
vt -0.29691726 -0.5133992
vt -0.3132235 -0.45922455
vt -0.3132235 -0.45922455
vt -0.35114828 -0.42021576
vt -0.35114828 -0.42021576
vt -0.3825271 -0.44957167
vt -0.3825271 -0.44957167
vt -0.38307709 -0.4732188
vt -0.38307709 -0.4732188
vn 0.9498179 0 -0.31280336
vn 0.9498179 -0 -0.31280336
vn 0.9755419 0 0.21981369
vn 0.9755419 0 0.21981369
vn 0.6405584 0 -0.7679094
vn 0.6405584 -0 -0.7679094
vn 0.8943874 0 -0.44729307
vn 0.8943874 -0 -0.44729307
vn -0.008984122 0 -0.99995965
vn -0.008984122 0 -0.99995965
vn -0.99771637 0 -0.06754335
vn -0.99771637 0 -0.06754335
vn -0.9581634 -0 0.28622183
vn -0.9581634 0 0.28622183
vn -0.92662483 0 -0.37598726
vn -0.92662483 0 -0.3759873
vn -0.9575639 -0 0.28822103
vn -0.9575639 0 0.288221
vn -0.71699864 -0 0.69707453
vn -0.7169987 0 0.69707453
vn 0.68317634 0 0.7302535
vn 0.68317634 0 0.73025346
vn 0.99972963 0 0.023250876
vn 0.99972963 0 0.023250876
vn 0.99972963 0 0.023250876
vn 0.99972963 0 0.023250876
g _0
f 1/1/1 2/2/2 3/3/3
f 4/4/4 3/3/3 2/2/2
f 3/3/3 4/4/4 5/5/5
f 6/6/6 5/5/5 4/4/4
f 5/5/5 6/6/6 7/7/7
f 8/8/8 7/7/7 6/6/6
f 7/7/7 8/8/8 9/9/9
f 10/10/10 9/9/9 8/8/8
f 9/9/9 10/10/10 11/11/11
f 12/12/12 11/11/11 10/10/10
f 11/11/11 12/12/12 13/13/13
f 14/14/14 13/13/13 12/12/12
f 13/13/13 14/14/14 15/15/15
f 16/16/16 15/15/15 14/14/14
f 15/15/15 16/16/16 17/17/17
f 18/18/18 17/17/17 16/16/16
f 17/17/17 18/18/18 19/19/19
f 20/20/20 19/19/19 18/18/18
f 19/19/19 20/20/20 21/21/21
f 22/22/22 21/21/21 20/20/20
f 21/21/21 22/22/22 23/23/23
f 24/24/24 23/23/23 22/22/22
f 23/23/23 24/24/24 25/25/25
f 26/26/26 25/25/25 24/24/24
