g 
v 17.379631 0 -40.537514
v 12.031538 0 -40.20527
v 19.376375 0 -41.864204
v 9.885942 0 -41.27462
v 21.162115 0 -43.542465
v 7.9062138 0 -42.718952
v 21.921339 0 -47.37347
v 6.678662 0 -46.426533
v 21.132318 0 -50.756912
v 7.0187473 0 -50.2695
v 20.572933 0 -55.61941
v 7.4920654 0 -53.672234
v 18.007277 0 -60.853687
v 7.862541 0 -55.49783
v 14.437206 0 -64.56014
v 6.8835526 0 -57.506027
v 10.914514 0 -67.80912
v 5.3657956 0 -58.810986
v 5.9311786 0 -69.65197
v 4.142892 0 -59.349495
v 1.2128493 0 -69.675385
v 1.3066368 0 -59.3333
v -2.5663311 0 -69.751595
v -2.5552278 0 -59.112072
v -1.8779944 0 -69.58569
v -3.9220064 0 -59.41431
v -4.5234637 0 -69.55178
v -6.349 0 -60.467567
v -5.8166313 0 -68.555595
v -7.156914 0 -61.88598
v -6.9388895 0 -67.14437
v -7.646874 0 -63.621178
vt 0.0017592168 -0.12662798
vt -0.0030521702 -0.1289866
vt 0.0030941844 -0.12463676
vt -0.0054438384 -0.12882222
vt 0.004099415 -0.122401826
vt -0.007826193 -0.12824793
vt 0.003330781 -0.1185727
vt -0.010382222 -0.12529501
vt 0.0013040826 -0.115750864
vt -0.01154251 -0.12161563
vt -0.0010779914 -0.11147506
vt -0.012410866 -0.1182917
vt -0.005455447 -0.107625626
vt -0.012769128 -0.11646367
vt -0.01017431 -0.10557245
vt -0.014443647 -0.11498472
vt -0.014673911 -0.10392356
vt -0.01634591 -0.114361905
vt -0.019982925 -0.10413358
vt -0.017681833 -0.11433378
vt -0.024349185 -0.10592214
vt -0.020294845 -0.11543686
vt -0.027868418 -0.10730164
vt -0.02377632 -0.117122754
vt -0.027169105 -0.107190765
vt -0.025154466 -0.11736801
vt -0.02959913 -0.10823701
vt -0.027799824 -0.11732646
vt -0.03041116 -0.10965309
vt -0.02909009 -0.11632654
vt -0.030906126 -0.11138689
vt -0.030208265 -0.1149121
vn -0 1 0
vn -0 1 0
vn -0 1 0
vn -0 1 0
vn -0 1 0
vn -0 1 0
vn -0 1 0
vn -0 1 0
vn -0 1 0
vn -0 1 0
vn -0 1 0
vn -0 1 0
vn -0 1 0
vn -0 1 0
vn -0 1 0
vn -0 1 0
vn -0 1 0
vn -0 1 0
vn -0 1 0
vn -0 1 0
vn -0 1 0
vn -0 1 0
vn -0 1 0
vn -0 1 0
vn -0 1 0
vn -0 1 -0
vn -0 1 0
vn -0 1 0
vn -0 1 0
vn -0 1 0
vn -0 1 0
vn -0 1 0
g _0
f 3/3/3 2/2/2 1/1/1
f 2/2/2 3/3/3 4/4/4
f 5/5/5 4/4/4 3/3/3
f 4/4/4 5/5/5 6/6/6
f 7/7/7 6/6/6 5/5/5
f 6/6/6 7/7/7 8/8/8
f 9/9/9 8/8/8 7/7/7
f 8/8/8 9/9/9 10/10/10
f 11/11/11 10/10/10 9/9/9
f 10/10/10 11/11/11 12/12/12
f 13/13/13 12/12/12 11/11/11
f 12/12/12 13/13/13 14/14/14
f 15/15/15 14/14/14 13/13/13
f 14/14/14 15/15/15 16/16/16
f 17/17/17 16/16/16 15/15/15
f 16/16/16 17/17/17 18/18/18
f 19/19/19 18/18/18 17/17/17
f 18/18/18 19/19/19 20/20/20
f 21/21/21 20/20/20 19/19/19
f 20/20/20 21/21/21 22/22/22
f 23/23/23 22/22/22 21/21/21
f 22/22/22 23/23/23 24/24/24
f 24/24/24 25/25/25 26/26/26
f 27/27/27 26/26/26 25/25/25
f 26/26/26 27/27/27 28/28/28
f 29/29/29 28/28/28 27/27/27
f 28/28/28 29/29/29 30/30/30
f 31/31/31 30/30/30 29/29/29
f 30/30/30 31/31/31 32/32/32
