g 
v 35.683544 18.6 -57.112473
v 32.93794 18.6 -54.287766
v 36.00243 18.6 -58.92361
v 31.136578 18.6 -53.91759
v 34.79273 18.6 -61.25951
v 28.767275 18.6 -55.06049
v 29.248335 22.496298 -66.136024
v 24.600857 22.496298 -59.62289
v 22.27357 22.526295 -69.561676
v 19.520899 22.526295 -62.289227
v 17.920906 18.63 -70.3648
v 16.639095 18.63 -62.6952
v 15.583545 18.63 -69.99682
v 14.548412 18.63 -63.803234
v 14.440949 18.63 -68.8007
v 13.856853 18.63 -65.3059
v 35.683544 18.6 -57.112473
v 35.683544 -11.4 -57.112473
v 36.00243 18.6 -58.92361
v 36.00243 -11.4 -58.92361
v 36.00243 18.6 -58.92361
v 36.00243 -11.4 -58.92361
v 34.79273 18.6 -61.25951
v 34.79273 -11.4 -61.25951
v 34.79273 18.6 -61.25951
v 34.79273 -11.4 -61.25951
v 29.248335 22.496298 -66.136024
v 29.248335 -7.503702 -66.136024
v 29.248335 22.496298 -66.136024
v 29.248335 -7.503702 -66.136024
v 22.27357 22.526295 -69.561676
v 22.27357 -7.4737053 -69.561676
v 22.27357 22.526295 -69.561676
v 22.27357 -7.4737053 -69.561676
v 17.920906 18.63 -70.3648
v 17.920906 -11.370001 -70.3648
v 17.920906 18.63 -70.3648
v 17.920906 -11.370001 -70.3648
v 15.583545 18.63 -69.99682
v 15.583545 -11.370001 -69.99682
v 15.583545 18.63 -69.99682
v 15.583545 -11.370001 -69.99682
v 14.440949 18.63 -68.8007
v 14.440949 -11.370001 -68.8007
v 32.93794 18.6 -54.287766
v 32.93794 -11.4 -54.287766
v 31.136578 18.6 -53.91759
v 31.136578 -11.4 -53.91759
v 31.136578 18.6 -53.91759
v 31.136578 -11.4 -53.91759
v 28.767275 18.6 -55.06049
v 28.767275 -11.4 -55.06049
v 28.767275 18.6 -55.06049
v 28.767275 -11.4 -55.06049
v 24.600857 22.496298 -59.62289
v 24.600857 -7.503702 -59.62289
v 24.600857 22.496298 -59.62289
v 24.600857 -7.503702 -59.62289
v 19.520899 22.526295 -62.289227
v 19.520899 -7.4737053 -62.289227
v 19.520899 22.526295 -62.289227
v 19.520899 -7.4737053 -62.289227
v 16.639095 18.63 -62.6952
v 16.639095 -11.370001 -62.6952
v 16.639095 18.63 -62.6952
v 16.639095 -11.370001 -62.6952
v 14.548412 18.63 -63.803234
v 14.548412 -11.370001 -63.803234
v 14.548412 18.63 -63.803234
v 14.548412 -11.370001 -63.803234
v 13.856853 18.63 -65.3059
v 13.856853 -11.370001 -65.3059
vt -0.045729604 0.07707728
vt -0.04180884 0.0766966
vt -0.047343366 0.07619542
vt -0.04039487 0.07552075
vt -0.0484125 0.07379193
vt -0.039808083 0.07295648
vt -0.04875931 0.06641626
vt -0.040770005 0.06685326
vt -0.047079712 0.058829337
vt -0.03968051 0.06122047
vt -0.04498905 0.054928076
vt -0.038198102 0.058716055
vt -0.043242097 0.0533322
vt -0.037758064 0.05639118
vt -0.04159436 0.053186648
vt -0.038499925 0.0549127
vt -0.045729604 0.07707728
vt -0.045729604 0.07707728
vt -0.047343366 0.07619542
vt -0.047343366 0.07619542
vt -0.047343366 0.07619542
vt -0.047343366 0.07619542
vt -0.0484125 0.07379193
vt -0.0484125 0.07379193
vt -0.0484125 0.07379193
vt -0.0484125 0.07379193
vt -0.04875931 0.06641626
vt -0.04875931 0.06641626
vt -0.04875931 0.06641626
vt -0.04875931 0.06641626
vt -0.047079712 0.058829337
vt -0.047079712 0.058829337
vt -0.047079712 0.058829337
vt -0.047079712 0.058829337
vt -0.04498905 0.054928076
vt -0.04498905 0.054928076
vt -0.04498905 0.054928076
vt -0.04498905 0.054928076
vt -0.043242097 0.0533322
vt -0.043242097 0.0533322
vt -0.043242097 0.0533322
vt -0.043242097 0.0533322
vt -0.04159436 0.053186648
vt -0.04159436 0.053186648
vt -0.04180884 0.0766966
vt -0.04180884 0.0766966
vt -0.04039487 0.07552075
vt -0.04039487 0.07552075
vt -0.04039487 0.07552075
vt -0.04039487 0.07552075
vt -0.039808083 0.07295648
vt -0.039808083 0.07295648
vt -0.039808083 0.07295648
vt -0.039808083 0.07295648
vt -0.040770005 0.06685326
vt -0.040770005 0.06685326
vt -0.040770005 0.06685326
vt -0.040770005 0.06685326
vt -0.03968051 0.06122047
vt -0.03968051 0.06122047
vt -0.03968051 0.06122047
vt -0.03968051 0.06122047
vt -0.038198102 0.058716055
vt -0.038198102 0.058716055
vt -0.038198102 0.058716055
vt -0.038198102 0.058716055
vt -0.037758064 0.05639118
vt -0.037758064 0.05639118
vt -0.037758064 0.05639118
vt -0.037758064 0.05639118
vt -0.038499925 0.0549127
vt -0.038499925 0.0549127
vn -0 1 0
vn -0 1 0
vn -0 1 0
vn -0 1 0
vn -0 1 0
vn -0 1 0
vn -0 1 0
vn -0 1 0
vn -0 1 0
vn -0 1 0
vn -0 1 0
vn -0 1 0
vn -0 1 0
vn -0 1 0
vn -0 1 0
vn -0 1 0
vn 0.71707577 0 0.6969952
vn 0.71707577 0 0.6969952
vn 0.9848511 0 0.17340204
vn 0.9848511 0 0.17340204
vn 0.8879883 0 -0.45986605
vn 0.8879883 -0 -0.45986605
vn 0.8879883 -0 -0.45986605
vn 0.8879883 -0 -0.45986605
vn 0.6604331 0 -0.7508849
vn 0.6604331 -0 -0.7508849
vn 0.6604331 -0 -0.7508849
vn 0.6604331 -0 -0.7508849
vn 0.44084692 0 -0.8975823
vn 0.44084692 -0 -0.8975823
vn 0.44084692 -0 -0.8975823
vn 0.44084692 -0 -0.8975823
vn 0.18145023 0 -0.98340017
vn 0.18145023 -0 -0.98340017
vn 0.18145023 -0 -0.98340017
vn 0.18145023 -0 -0.98340017
vn -0.15551883 0 -0.98783296
vn -0.15551883 0 -0.98783296
vn -0.15551883 0 -0.98783296
vn -0.15551883 0 -0.98783296
vn -0.7231009 0 -0.69074243
vn -0.7231009 0 -0.69074243
vn -0.9863192 0 -0.16484678
vn -0.9863192 0 -0.16484678
vn 0.71707577 0 0.6969952
vn 0.71707577 0 0.6969952
vn 0.20129085 0 0.97953147
vn 0.20129085 0 0.97953147
vn -0.4344707 -0 0.900686
vn -0.4344707 0 0.900686
vn -0.4344707 0 0.900686
vn -0.4344707 0 0.900686
vn -0.73842525 -0 0.67433536
vn -0.73842525 0 0.67433536
vn -0.73842525 0 0.67433536
vn -0.73842525 0 0.67433536
vn -0.46474618 -0 0.8854439
vn -0.46474618 0 0.8854439
vn -0.46474618 0 0.8854439
vn -0.46474618 0 0.8854439
vn -0.13949801 -0 0.99022233
vn -0.13949801 0 0.99022233
vn -0.13949801 0 0.99022233
vn -0.13949801 0 0.99022233
vn -0.46828383 -0 0.8835781
vn -0.46828383 0 0.8835781
vn -0.46828383 0 0.8835781
vn -0.46828383 0 0.8835781
vn -0.90841395 -0 0.41807187
vn -0.90841395 0 0.41807187
vn -0.9863192 0 -0.16484678
vn -0.9863192 0 -0.16484678
g _0
f 3/3/3 2/2/2 1/1/1
f 2/2/2 3/3/3 4/4/4
f 5/5/5 4/4/4 3/3/3
f 4/4/4 5/5/5 6/6/6
f 7/7/7 6/6/6 5/5/5
f 6/6/6 7/7/7 8/8/8
f 9/9/9 8/8/8 7/7/7
f 8/8/8 9/9/9 10/10/10
f 11/11/11 10/10/10 9/9/9
f 10/10/10 11/11/11 12/12/12
f 13/13/13 12/12/12 11/11/11
f 12/12/12 13/13/13 14/14/14
f 15/15/15 14/14/14 13/13/13
f 14/14/14 15/15/15 16/16/16
g _1
f 17/17/17 18/18/18 19/19/19
f 20/20/20 19/19/19 18/18/18
f 21/21/21 22/22/22 23/23/23
f 24/24/24 23/23/23 22/22/22
f 25/25/25 26/26/26 27/27/27
f 28/28/28 27/27/27 26/26/26
f 29/29/29 30/30/30 31/31/31
f 32/32/32 31/31/31 30/30/30
f 33/33/33 34/34/34 35/35/35
f 36/36/36 35/35/35 34/34/34
f 37/37/37 38/38/38 39/39/39
f 40/40/40 39/39/39 38/38/38
f 41/41/41 42/42/42 43/43/43
f 44/44/44 43/43/43 42/42/42
f 47/47/47 46/46/46 45/45/45
f 46/46/46 47/47/47 48/48/48
f 51/51/51 50/50/50 49/49/49
f 50/50/50 51/51/51 52/52/52
f 55/55/55 54/54/54 53/53/53
f 54/54/54 55/55/55 56/56/56
f 59/59/59 58/58/58 57/57/57
f 58/58/58 59/59/59 60/60/60
f 63/63/63 62/62/62 61/61/61
f 62/62/62 63/63/63 64/64/64
f 67/67/67 66/66/66 65/65/65
f 66/66/66 67/67/67 68/68/68
f 71/71/71 70/70/70 69/69/69
f 70/70/70 71/71/71 72/72/72
f 45/45/45 18/18/18 17/17/17
f 18/18/18 45/45/45 46/46/46
f 43/43/43 44/44/44 71/71/71
f 72/72/72 71/71/71 44/44/44
