g 
v 119.689995 13.608128 -4.04
v 119.689995 2.0518708 -4.04
v 122.28 16.049442 -2.35
v 122.28 -1.8694434 -2.35
v 122.94 17.747305 2.22
v 122.94 -4.567305 2.22
v 121.63 17.747305 4.16
v 121.63 -4.567305 4.16
v 119.21 17.624695 4.16
v 119.21 -2.6046958 4.16
v 117 17.747305 -0.26
v 117 -4.5673046 -0.26
v 117.329994 13.374741 -3.2000003
v 117.329994 1.2452569 -3.2000003
v 119.689995 13.608128 -4.04
v 119.689995 2.0518708 -4.04
vt -1.1968999 -0.0404
vt -1.1968999 -0.0404
vt -1.2228 -0.0235
vt -1.2228 -0.0235
vt -1.2294 0.0222
vt -1.2294 0.0222
vt -1.2162999 0.041599996
vt -1.2162999 0.041599996
vt -1.1920999 0.041599996
vt -1.1920999 0.041599996
vt -1.17 -0.0025999998
vt -1.17 -0.0025999998
vt -1.1732999 -0.032
vt -1.1732999 -0.032
vt -1.1968999 -0.0404
vt -1.1968999 -0.0404
vn 0.54646444 0 -0.8374823
vn 0.54646444 -0 -0.8374823
vn 0.9897316 0 -0.14293797
vn 0.98973167 -0 -0.14293797
vn 0.8287486 0 0.55962116
vn 0.8287486 0 0.55962116
vn -0 0 1
vn -0 0 1
vn -0.8944273 -0 0.44721344
vn -0.8944273 0 0.44721344
vn -0.9937597 0 -0.111542486
vn -0.9937597 0 -0.111542486
vn -0.33532447 0 -0.9421027
vn -0.33532447 0 -0.9421027
vn -0.33532447 0 -0.9421027
vn -0.33532447 0 -0.9421027
g _0
f 3/3/3 2/2/2 1/1/1
f 2/2/2 3/3/3 4/4/4
f 5/5/5 4/4/4 3/3/3
f 4/4/4 5/5/5 6/6/6
f 7/7/7 6/6/6 5/5/5
f 6/6/6 7/7/7 8/8/8
f 9/9/9 8/8/8 7/7/7
f 8/8/8 9/9/9 10/10/10
f 11/11/11 10/10/10 9/9/9
f 10/10/10 11/11/11 12/12/12
f 13/13/13 12/12/12 11/11/11
f 12/12/12 13/13/13 14/14/14
f 15/15/15 14/14/14 13/13/13
f 14/14/14 15/15/15 16/16/16
