g 
v -63.341255 8.5 -79.88647
v -64.28358 8.5 -87.825035
v -60.894245 8.5 -77.06854
v -62.564236 8.5 -91.13751
v -55.66602 8.5 -75.989105
v -57.733982 8.5 -93.41089
v -54.79369 8.5 -76.09265
v -56.871414 8.5 -93.513275
v -53.821625 8.5 -76.20908
v -55.916054 8.5 -93.62771
v -52.850777 8.5 -76.32626
v -54.95968 8.5 -93.74315
v -51.88129 8.5 -76.44402
v -54.00211 8.5 -93.85946
v -50.91301 8.5 -76.56224
v -53.043472 8.5 -93.9765
v -49.945953 8.5 -76.68079
v -52.083714 8.5 -94.094154
v -48.98 8.5 -76.799545
v -51.122925 8.5 -94.21228
v -48.015076 8.5 -76.91842
v -50.16117 8.5 -94.33076
v -47.051125 8.5 -77.037285
v -49.19846 8.5 -94.44947
v -46.088142 8.5 -77.15605
v -48.23479 8.5 -94.56833
v -45.126083 8.5 -77.27461
v -47.27018 8.5 -94.687195
v -44.164684 8.5 -77.3929
v -46.304855 8.5 -94.80597
v -43.203915 8.5 -77.51086
v -45.338852 8.5 -94.92457
v -42.243763 8.5 -77.62841
v -44.372158 8.5 -95.042915
v -41.28415 8.5 -77.74549
v -43.40483 8.5 -95.16094
v -40.32494 8.5 -77.86206
v -42.437008 8.5 -95.278564
v -39.36608 8.5 -77.97809
v -41.468704 8.5 -95.39574
v -38.407604 8.5 -78.09352
v -40.499897 8.5 -95.512405
v -37.44955 8.5 -78.2083
v -39.530537 8.5 -95.62854
v -36.491684 8.5 -78.322395
v -38.56082 8.5 -95.74404
v -35.533752 8.5 -78.43584
v -37.59104 8.5 -95.85889
v -34.575745 8.5 -78.54862
v -36.621174 8.5 -95.973076
v -33.6177 8.5 -78.66076
v -35.651207 8.5 -96.0866
v -32.65958 8.5 -78.77223
v -34.681156 8.5 -96.19946
v -31.701345 8.5 -78.88306
v -33.71106 8.5 -96.31166
v -30.742865 8.5 -78.99325
v -32.74107 8.5 -96.42318
v -29.784006 8.5 -79.10286
v -31.771317 8.5 -96.53404
v -28.82508 8.5 -79.21189
v -30.801497 8.5 -96.64431
v -27.86574 8.5 -79.32035
v -29.831947 8.5 -96.753914
v -26.905617 8.5 -79.428375
v -28.863066 8.5 -96.86293
v -25.944992 8.5 -79.535995
v -27.89458 8.5 -96.971436
v -24.983772 8.5 -79.64327
v -26.926601 8.5 -97.07946
v -24.021858 8.5 -79.75028
v -25.959232 8.5 -97.18708
v -23.05932 8.5 -79.85709
v -24.99242 8.5 -97.294365
v -22.095972 8.5 -79.96379
v -24.026382 8.5 -97.40135
v -21.24644 8.5 -80.058556
v -22.9465 8.5 -97.52009
v -20.810335 8.419715 -80.09981
v -21.723177 8.419715 -97.614746
v -20.536112 8.1665745 -80.11163
v -20.46705 8.1665745 -97.633255
v -20.181976 7.761629 -80.113174
v -19.386118 7.761629 -97.58969
v -19.72409 7.229582 -80.10126
v -18.492271 7.229582 -97.51672
v -19.148817 6.5955353 -80.07676
v -17.786308 6.5955353 -97.43987
v -18.449606 5.8841915 -80.04663
v -17.261461 5.8841915 -97.374756
v -17.628187 5.120652 -80.02465
v -16.901758 5.120652 -97.327065
v -16.699095 4.3296213 -80.02937
v -16.677958 4.3296213 -97.29402
v -15.690315 3.536199 -80.07936
v -16.54643 3.536199 -97.26955
v -14.641521 2.7650898 -80.18652
v -16.451426 2.7650898 -97.250626
v -13.59584 2.0413942 -80.35135
v -16.332775 2.0413942 -97.24237
v -12.589934 1.3898163 -80.56274
v -16.136337 1.3898163 -97.2579
v -11.645344 0.83545685 -80.80306
v -15.822137 0.83545685 -97.31345
v -10.768564 0.40301955 -81.054054
v -15.364832 0.40301955 -97.42252
v -9.95286 0.11760559 -81.30102
v -14.751302 0.11760559 -97.59144
v -9.356802 0.0039179698 -81.48515
v -13.802759 0.0039179698 -97.867386
v -9.179884 0 -81.53046
v -12.580965 0 -98.16078
v -8.739322 0 -81.59944
v -11.561735 0 -98.33769
v -7.783608 0 -81.763565
v -11.03517 0 -98.42377
v -6.450709 0 -82.06654
v -10.915385 0 -98.443405
v -4.867136 0 -82.58912
v -11.118684 0 -98.37054
v -3.1939511 0 -83.38327
v -11.509687 0 -98.181366
v -1.5851636 0 -84.44695
v -11.948942 0 -97.890434
v -0.21535778 0 -85.66169
v -12.267475 0 -97.615
v 0.8345094 0 -86.84298
v -12.370091 0 -97.50945
v 1.5801315 0 -87.83955
v -12.249529 0 -97.68209
v 2.026905 0 -88.491646
v -11.876102 0 -98.23031
v 2.1987963 0 -88.739235
v -11.223108 0 -99.13094
v 2.7430804 0 -89.40146
v -10.579451 0 -99.92026
v 3.7347934 0 -90.72911
v -10.396671 0 -100.133194
v 4.856015 0 -92.71182
v -10.563955 0 -99.80827
v 5.672021 0 -94.995575
v -10.739455 0 -99.331314
v 6.041913 0 -97.02087
v -10.810187 0 -99.05602
v 6.138153 0 -98.49059
v -10.830349 0 -98.94346
v 6.139208 0 -99.50518
v -10.834269 0 -99.31495
v 6.125609 0 -100.120804
v -10.848904 0 -100.08795
v 6.1154404 0 -100.21054
v -10.815941 0 -101.42029
v 6.2131844 0 -101.03117
v -10.707518 0 -102.382095
v 6.2751017 0 -102.56848
v -10.69938 0 -102.52211
v 6.2112265 0 -104.051186
v -10.714868 0 -102.7696
v 6.079234 0 -105.33009
v -10.768283 0 -103.25734
v 5.9238715 0 -106.440155
v -10.864862 0 -103.935455
v 5.772197 0 -107.40527
v -10.9960165 0 -104.76668
v 5.6407337 0 -108.239746
v -11.146477 0 -105.72485
v 5.538909 0 -108.95123
v -11.297742 0 -106.792
v 5.4705133 0 -109.54381
v -11.429532 0 -107.955215
v 5.4343767 0 -110.02112
v -11.520471 0 -109.20363
v 5.425147 0 -110.389435
v -11.548854 0 -110.52524
v 5.4347816 0 -110.66054
v -11.494154 0 -111.90402
v 5.4417124 0 -110.76556
v -11.326175 0 -113.40621
v 5.4910216 0 -111.02887
v -10.990822 0 -115.08891
v 5.539339 0 -111.194046
v -10.480968 0 -116.80518
v 5.6290083 0 -111.40634
v -9.833563 0 -118.409485
v 5.8068447 0 -111.75508
v -9.126366 0 -119.82567
v 6.025521 0 -112.12141
v -8.456359 0 -120.97637
v 6.3479757 0 -112.62205
v -7.907896 0 -121.83645
v 6.8784103 0 -113.43706
v -7.4812856 0 -122.488815
v 7.4998765 0 -114.45609
v -7.134383 0 -123.05688
v 8.070814 0 -115.46297
v -6.7718983 0 -123.69881
v 8.580945 0 -116.40047
v -6.365594 0 -124.44634
v 9.05499 0 -117.289986
v -5.929715 0 -125.26456
v 9.497738 0 -118.12308
v -5.4593487 0 -126.14933
v 9.918069 0 -118.8993
v -4.951066 0 -127.08733
v 10.324444 0 -119.62574
v -4.406442 0 -128.05997
v 10.719788 0 -120.301346
v -3.8213067 0 -129.05873
v 11.093628 0 -120.90628
v -3.17887 0 -130.09491
v 11.460337 0 -121.4543
v -2.4802723 0 -131.13905
v 11.832694 0 -121.97111
v -1.7400594 0 -132.16501
v 12.202247 0 -122.44406
v -0.9460716 0 -133.17984
v 12.549312 0 -122.8528
v -0.07568693 0 -134.19936
v 12.89988 0 -123.22186
v 0.85684156 0 -135.18433
v 13.2785 0 -123.58556
v 1.8189607 0 -136.10811
v 13.6694355 0 -123.92641
v 2.826727 0 -136.98668
v 14.051922 0 -124.22966
v 3.9004698 0 -137.83418
v 14.462948 0 -124.51778
v 5.0110216 0 -138.6173
v 14.932743 0 -124.8172
v 6.1163263 0 -139.32257
v 15.439489 0 -125.11015
v 7.2351427 0 -139.97029
v 15.967156 0 -125.388054
v 8.379677 0 -140.57243
v 16.547874 0 -125.662315
v 9.519304 0 -141.11334
v 17.202394 0 -125.947586
v 10.620031 0 -141.59392
v 17.907764 0 -126.23322
v 11.698375 0 -142.03128
v 18.658527 0 -126.51902
v 12.752581 0 -142.433
v 19.469168 0 -126.81172
v 13.760923 0 -142.79768
v 20.345606 0 -127.12083
v 14.705269 0 -143.13087
v 21.275066 0 -127.44789
v 15.588552 0 -143.4416
v 22.273691 0 -127.807045
v 16.384048 0 -143.72707
v 23.334787 0 -128.21156
v 17.080053 0 -143.99171
v 24.351238 0 -128.63
v 17.774893 0 -144.27887
v 25.060055 0 -128.9367
v 18.81463 0 -144.72055
v 25.458149 0 -129.08414
v 20.220407 0 -145.23038
v 25.776926 0 -129.17503
v 21.725037 0 -145.65889
v 26.095234 0 -129.24081
v 23.252487 0 -145.97562
v 26.43716 0 -129.28581
v 24.78073 0 -146.17934
v 26.825117 0 -129.30981
v 26.288624 0 -146.27588
v 27.277113 0 -129.30908
v 27.758667 0 -146.2768
v 27.810316 0 -129.27808
v 29.173422 0 -146.19778
v 28.434265 0 -129.21149
v 30.489172 0 -146.06119
v 28.984627 0 -129.13243
v 31.600264 0 -145.90425
v 29.629684 0 -129.02257
v 32.631516 0 -145.72957
v 30.338146 0 -128.88809
v 33.611618 0 -145.544
v 31.109167 0 -128.73103
v 34.540043 0 -145.35524
v 31.948118 0 -128.55545
v 35.40862 0 -145.17352
v 32.855072 0 -128.36761
v 36.214077 0 -145.0065
v 33.838062 0 -128.17474
v 36.945377 0 -144.86246
v 34.894886 0 -127.9893
v 37.600784 0 -144.74678
v 36.037167 0 -127.82226
v 38.16498 0 -144.6629
v 37.286137 0 -127.69175
v 38.611996 0 -144.61444
v 38.67652 0 -127.623795
v 38.901924 0 -144.59685
v 40.333984 0 -127.6633
v 39.13523 0 -144.59546
v 41.965782 0 -127.85239
v 39.45594 0 -144.64035
v 42.928734 0 -128.02531
v 40.402374 0 -144.8108
v 43.36042 0 -128.0743
v 41.725235 0 -144.9699
v 43.946323 0 -128.1163
v 42.856815 0 -145.05585
v 44.726364 0 -128.1583
v 43.83204 0 -145.10925
v 45.64663 0 -128.20552
v 44.68492 0 -145.15279
v 46.686905 0 -128.27086
v 45.419785 0 -145.19804
v 47.818893 0 -128.37051
v 46.04844 0 -145.25247
v 49.03163 0 -128.52016
v 46.570225 0 -145.31529
v 50.321926 0 -128.74214
v 46.975216 0 -145.3835
v 51.690678 0 -129.06169
v 47.25204 0 -145.44563
v 53.215675 0 -129.53273
v 47.535217 0 -145.52858
v 54.826202 0 -130.18474
v 47.739487 0 -145.60918
v 56.403793 0 -131.00264
v 47.879776 0 -145.68175
v 57.884895 0 -131.95981
v 48.017128 0 -145.77148
v 59.233692 0 -133.01863
v 48.188725 0 -145.90831
v 60.4304 0 -134.13127
v 48.419582 0 -146.12608
v 61.471565 0 -135.24768
v 48.722206 0 -146.45432
v 62.353645 0 -136.30626
v 49.113075 0 -146.92805
v 63.044056 0 -137.1998
v 49.501987 0 -147.43442
v 63.63451 0 -137.99573
v 50.00144 0 -148.10883
v 64.1508 0 -138.69258
v 50.6605 0 -148.99535
v 64.546005 0 -139.19781
v 51.454 0 -150.0022
v 64.904785 0 -139.60764
v 52.26072 0 -150.93295
v 65.40233 0 -140.14612
v 52.99383 0 -151.72906
v 66.01567 0 -140.79514
v 53.645653 0 -152.41916
v 66.72094 0 -141.55025
v 54.20807 0 -153.02034
v 67.48286 0 -142.39867
v 54.68751 0 -153.55278
v 68.29244 0 -143.3588
v 55.071476 0 -154.00497
v 69.10841 0 -144.42403
v 55.370934 0 -154.39482
v 69.89264 0 -145.56836
v 55.61479 0 -154.74869
v 70.651634 0 -146.8353
v 55.784172 0 -155.02637
v 71.33462 0 -148.19281
v 55.905075 0 -155.26843
v 71.91339 0 -149.58502
v 56.012283 0 -155.52554
v 72.40157 0 -151.05771
v 56.088936 0 -155.75162
v 72.7687 0 -152.55206
v 56.150032 0 -156.00966
v 73.01993 0 -154.00363
v 56.20902 0 -156.35492
v 73.176476 0 -155.456
v 56.250557 0 -156.7399
v 73.24071 0 -156.85748
v 56.269924 0 -157.21463
v 73.23867 0 -158.16682
v 56.267906 0 -157.80869
v 73.18948 0 -159.41393
v 56.240402 0 -158.48457
v 73.10997 0 -160.56516
v 56.185135 0 -159.26703
v 73.023705 0 -161.59814
v 56.109715 0 -160.16565
v 72.946205 0 -162.49962
v 56.022835 0 -161.18257
v 72.893814 0 -163.23737
v 55.943417 0 -162.3323
v 72.87172 0 -163.79395
v 55.89807 0 -163.61987
v 72.88097 0 -164.27283
v 55.919037 0 -164.92719
v 72.92328 0 -164.98277
v 55.985157 0 -166.02486
v 72.97333 0 -165.87299
v 56.049164 0 -166.9434
v 73.02148 0 -166.7859
v 56.115807 0 -167.84004
v 73.06548 0 -167.71973
v 56.18272 0 -168.71643
v 73.10317 0 -168.67252
v 56.24787 0 -169.57422
v 73.13244 0 -169.6424
v 56.309486 0 -170.41504
v 73.15131 0 -170.62756
v 56.36605 0 -171.24057
v 73.15795 0 -171.62616
v 56.41622 0 -172.0524
v 73.150764 0 -172.6417
v 56.45878 0 -172.8469
v 73.12673 0 -173.6675
v 56.491936 0 -173.63052
v 73.085915 0 -174.69609
v 56.515587 0 -174.41063
v 73.02744 0 -175.73015
v 56.52892 0 -175.1844
v 72.95067 0 -176.76778
v 56.531265 0 -175.95369
v 72.85522 0 -177.80707
v 56.522026 0 -176.72028
v 72.74101 0 -178.84625
v 56.500675 0 -177.48584
v 72.60824 0 -179.88353
v 56.466743 0 -178.25215
v 72.4574 0 -180.91725
v 56.419846 0 -179.02077
v 72.28847 0 -181.9515
v 56.360397 0 -179.78763
v 72.1019 0 -182.9783
v 56.286163 0 -180.56052
v 71.90143 0 -183.99057
v 56.197388 0 -181.34668
v 71.68782 0 -184.99307
v 56.09489 0 -182.14136
v 71.46287 0 -185.98466
v 55.978813 0 -182.94572
v 71.22858 0 -186.96416
v 55.849415 0 -183.761
v 70.987114 0 -187.93056
v 55.707165 0 -184.58827
v 70.74082 0 -188.88292
v 55.552708 0 -185.42857
v 70.49218 0 -189.82024
v 55.386887 0 -186.28294
v 70.24374 0 -190.74185
v 55.210857 0 -187.15216
v 69.99879 0 -191.64491
v 55.0252 0 -188.03917
v 69.760544 0 -192.52802
v 54.832047 0 -188.94562
v 69.53148 0 -193.39168
v 54.633736 0 -189.87108
v 69.314514 0 -194.23463
v 54.432518 0 -190.81706
v 69.11255 0 -195.05545
v 54.23104 0 -191.78513
v 68.92843 0 -195.85254
v 54.032333 0 -192.77707
v 68.76488 0 -196.62419
v 53.839893 0 -193.79489
v 68.62444 0 -197.36838
v 53.65776 0 -194.84073
v 68.50278 0 -198.12808
v 53.497223 0 -195.87192
v 68.36807 0 -199.06595
v 53.34843 0 -196.90555
v 68.226135 0 -200.05246
v 53.20671 0 -197.89053
v 68.08394 0 -201.03992
v 53.065002 0 -198.87457
v 67.941376 0 -202.02759
v 52.923016 0 -199.85828
v 67.79854 0 -203.01576
v 52.78091 0 -200.84138
v 67.65509 0 -204.00484
v 52.638474 0 -201.82347
v 67.511284 0 -204.99321
v 52.495506 0 -202.8061
v 67.36693 0 -205.98325
v 52.352478 0 -203.78702
v 67.2216 0 -206.97357
v 52.20863 0 -204.76733
v 67.07602 0 -207.96278
v 52.064205 0 -205.74864
v 66.92953 0 -208.95387
v 51.919456 0 -206.72789
v 66.78217 0 -209.94427
v 51.77371 0 -207.70752
v 66.63428 0 -210.93494
v 51.62752 0 -208.68677
v 66.485176 0 -211.92674
v 51.480522 0 -209.66458
v 66.33552 0 -212.9166
v 51.332436 0 -210.64404
v 66.18496 0 -213.90874
v 51.18417 0 -211.62108
v 66.032906 0 -214.9009
v 51.034508 0 -212.59764
v 65.88057 0 -215.89087
v 50.883926 0 -213.57617
v 65.726944 0 -216.88318
v 50.732834 0 -214.55215
v 65.57223 0 -217.87425
v 50.580345 0 -215.52895
v 65.416855 0 -218.86537
v 50.42725 0 -216.50554
v 65.259995 0 -219.85756
v 50.27309 0 -217.48064
v 65.10254 0 -220.84718
v 50.117584 0 -218.458
v 64.94404 0 -221.8392
v 49.961838 0 -219.4328
v 64.783905 0 -222.83098
v 49.80449 0 -220.4073
v 64.62352 0 -223.82018
v 49.646095 0 -221.3842
v 64.46177 0 -224.81158
v 49.48713 0 -222.35861
v 64.29895 0 -225.80154
v 49.32669 0 -223.33408
v 64.135506 0 -226.79129
v 49.165607 0 -224.30954
v 63.970646 0 -227.78188
v 49.00346 0 -225.2838
v 63.805275 0 -228.76988
v 48.84001 0 -226.26033
v 63.63896 0 -229.75981
v 48.6763 0 -227.23476
v 63.471233 0 -230.74931
v 48.511127 0 -228.20918
v 63.303352 0 -231.73639
v 48.34501 0 -229.18588
v 63.134346 0 -232.7251
v 48.178383 0 -230.1607
v 62.964542 0 -233.7124
v 48.010532 0 -231.13661
v 62.7943 0 -234.69928
v 47.842144 0 -232.11276
v 62.623035 0 -235.68655
v 47.672924 0 -233.08826
v 62.45149 0 -236.67175
v 47.502743 0 -234.06561
v 62.279343 0 -237.65797
v 47.332336 0 -235.04185
v 62.10636 0 -238.64362
v 47.160957 0 -236.01837
v 61.933384 0 -239.6275
v 46.98898 0 -236.99655
v 61.759846 0 -240.61192
v 46.81666 0 -237.97406
v 61.58601 0 -241.59532
v 46.64371 0 -238.95247
v 61.41207 0 -242.57817
v 46.470474 0 -239.93135
v 61.237858 0 -243.56068
v 46.296864 0 -240.91045
v 61.063683 0 -244.54227
v 46.122963 0 -241.89047
v 60.889503 0 -245.52336
v 45.9489 0 -242.87096
v 60.71545 0 -246.5038
v 45.774715 0 -243.8521
v 60.541573 0 -247.48376
v 45.60054 0 -244.83374
v 60.36801 0 -248.46269
v 45.426308 0 -245.81647
v 60.194893 0 -249.44127
v 45.252373 0 -246.79965
v 60.02215 0 -250.41908
v 45.078545 0 -247.78362
v 59.850204 0 -251.3957
v 44.905052 0 -248.76903
v 59.678726 0 -252.37306
v 44.73227 0 -249.75383
v 59.508095 0 -253.34792
v 44.559433 0 -250.74129
v 59.338867 0 -254.32211
v 44.38772 0 -251.72978
v 59.170044 0 -255.29762
v 44.216843 0 -252.71715
v 59.002716 0 -256.27
v 44.04634 0 -253.70798
v 58.836792 0 -257.24304
v 43.877426 0 -254.69858
v 58.671837 0 -258.21527
v 43.709175 0 -255.69025
v 58.50907 0 -259.18503
v 43.542236 0 -256.68484
v 58.347343 0 -260.15784
v 43.377296 0 -257.67697
v 58.18566 0 -261.13657
v 43.21434 0 -258.66342
v 56.031105 0 -265.22043
v 43.941017 0 -263.22324
v 53.101322 0 -266.5755
v 46.279354 0 -265.44855
vt 0 -0.0039971494
vt 0 0.0039971494
vt 0 -0.0070838667
vt 0 0.0070838667
vt 0.0020978004 -0.008772048
vt 0.0020978004 0.008772048
vt 0.007162346 -0.008772048
vt 0.007162346 0.008772048
vt 0.008035883 -0.008772048
vt 0.008035883 0.008772048
vt 0.009006486 -0.008772048
vt 0.009006486 0.008772048
vt 0.009977092 -0.008772048
vt 0.009977092 0.008772048
vt 0.0109477015 -0.008772048
vt 0.0109477015 0.008772048
vt 0.011918316 -0.008772048
vt 0.011918316 0.008772048
vt 0.012888933 -0.008772048
vt 0.012888933 0.008772048
vt 0.013859558 -0.008772048
vt 0.013859558 0.008772048
vt 0.01483018 -0.008772048
vt 0.01483018 0.008772048
vt 0.015800808 -0.008772048
vt 0.015800808 0.008772048
vt 0.016771432 -0.008772048
vt 0.016771432 0.008772048
vt 0.017742055 -0.008772048
vt 0.017742055 0.008772048
vt 0.018712679 -0.008772048
vt 0.018712679 0.008772048
vt 0.0196833 -0.008772048
vt 0.0196833 0.008772048
vt 0.020653917 -0.008772048
vt 0.020653917 0.008772048
vt 0.021624532 -0.008772048
vt 0.021624532 0.008772048
vt 0.022595137 -0.008772048
vt 0.022595137 0.008772048
vt 0.023565747 -0.008772048
vt 0.023565747 0.008772048
vt 0.02453635 -0.008772048
vt 0.02453635 0.008772048
vt 0.025506949 -0.008772048
vt 0.025506949 0.008772048
vt 0.026477553 -0.008772048
vt 0.026477553 0.008772048
vt 0.027448144 -0.008772048
vt 0.027448144 0.008772048
vt 0.028418737 -0.008772048
vt 0.028418737 0.008772048
vt 0.029389326 -0.008772048
vt 0.029389326 0.008772048
vt 0.030359915 -0.008772048
vt 0.030359915 0.008772048
vt 0.031330507 -0.008772048
vt 0.031330507 0.008772048
vt 0.03230109 -0.008772048
vt 0.03230109 0.008772048
vt 0.033271678 -0.008772048
vt 0.033271678 0.008772048
vt 0.03424226 -0.008772048
vt 0.03424226 0.008772048
vt 0.035212852 -0.008772048
vt 0.035212852 0.008772048
vt 0.03618344 -0.008772048
vt 0.03618344 0.008772048
vt 0.037154026 -0.008772048
vt 0.037154026 0.008772048
vt 0.038124617 -0.008772048
vt 0.038124617 0.008772048
vt 0.039095208 -0.008772048
vt 0.039095208 0.008772048
vt 0.040065806 -0.008772048
vt 0.040065806 0.008772048
vt 0.041036397 -0.008772048
vt 0.041036397 0.008772048
vt 0.042006996 -0.0087693585
vt 0.042006996 0.0087693585
vt 0.042843353 -0.008760878
vt 0.042843353 0.008760878
vt 0.043649454 -0.008747311
vt 0.043649454 0.008747311
vt 0.044473633 -0.008729485
vt 0.044473633 0.008729485
vt 0.04533484 -0.008708243
vt 0.04533484 0.008708243
vt 0.046237595 -0.008684411
vt 0.046237595 0.008684411
vt 0.047177203 -0.00865883
vt 0.047177203 0.00865883
vt 0.048143107 -0.008632327
vt 0.048143107 0.008632327
vt 0.049121995 -0.008605746
vt 0.049121995 0.008605746
vt 0.050099112 -0.008579912
vt 0.050099112 0.008579912
vt 0.051060166 -0.008555666
vt 0.051060166 0.008555666
vt 0.051992252 -0.008533835
vt 0.051992252 0.008533835
vt 0.052886028 -0.008515263
vt 0.052886028 0.008515263
vt 0.053737696 -0.008500774
vt 0.053737696 0.008500774
vt 0.05455278 -0.008491213
vt 0.05455278 0.008491213
vt 0.055349883 -0.008487404
vt 0.055349883 0.008487404
vt 0.056163695 -0.008487273
vt 0.056163695 0.008487273
vt 0.05688327 -0.008487273
vt 0.05688327 0.008487273
vt 0.057623453 -0.008487273
vt 0.057623453 0.008487273
vt 0.05837508 -0.008487273
vt 0.05837508 0.008487273
vt 0.059119117 -0.008487273
vt 0.059119117 0.008487273
vt 0.05984496 -0.008487273
vt 0.05984496 0.008487273
vt 0.06055383 -0.008487273
vt 0.06055383 0.008487273
vt 0.06125471 -0.008487273
vt 0.06125471 0.008487273
vt 0.0619596 -0.008487273
vt 0.0619596 0.008487273
vt 0.06267627 -0.008487273
vt 0.06267627 0.008487273
vt 0.06340383 -0.008487273
vt 0.06340383 0.008487273
vt 0.064130716 -0.008487273
vt 0.064130716 0.008487273
vt 0.06483762 -0.008487273
vt 0.06483762 0.008487273
vt 0.065775454 -0.008487273
vt 0.065775454 0.008487273
vt 0.06674407 -0.008487273
vt 0.06674407 0.008487273
vt 0.06770039 -0.008487273
vt 0.06770039 0.008487273
vt 0.06865888 -0.008487273
vt 0.06865888 0.008487273
vt 0.06954657 -0.008487273
vt 0.06954657 0.008487273
vt 0.07022622 -0.008487273
vt 0.07022622 0.008487273
vt 0.07091926 -0.008487273
vt 0.07091926 0.008487273
vt 0.07161372 -0.008487273
vt 0.07161372 0.008487273
vt 0.07232485 -0.008487273
vt 0.07232485 0.008487273
vt 0.07322201 -0.008487273
vt 0.07322201 0.008487273
vt 0.0740614 -0.008487273
vt 0.0740614 0.008487273
vt 0.07492741 -0.008487273
vt 0.07492741 0.008487273
vt 0.07581559 -0.008487273
vt 0.07581559 0.008487273
vt 0.0767185 -0.008487273
vt 0.0767185 0.008487273
vt 0.07762773 -0.008487273
vt 0.07762773 0.008487273
vt 0.07853507 -0.008487273
vt 0.07853507 0.008487273
vt 0.079433344 -0.008487273
vt 0.079433344 0.008487273
vt 0.08031693 -0.008487273
vt 0.08031693 0.008487273
vt 0.08118212 -0.008487273
vt 0.08118212 0.008487273
vt 0.082027294 -0.008487273
vt 0.082027294 0.008487273
vt 0.08285286 -0.008487273
vt 0.08285286 0.008487273
vt 0.08366121 -0.008487273
vt 0.08366121 0.008487273
vt 0.08465305 -0.008487273
vt 0.08465305 0.008487273
vt 0.0856343 -0.008487273
vt 0.0856343 0.008487273
vt 0.08661451 -0.008487273
vt 0.08661451 0.008487273
vt 0.087601714 -0.008487273
vt 0.087601714 0.008487273
vt 0.08848079 -0.008487273
vt 0.08848079 0.008487273
vt 0.08928858 -0.008487273
vt 0.08928858 0.008487273
vt 0.09016453 -0.008487273
vt 0.09016453 0.008487273
vt 0.09109412 -0.008487273
vt 0.09109412 0.008487273
vt 0.09204146 -0.008487273
vt 0.09204146 0.008487273
vt 0.093000524 -0.008487273
vt 0.093000524 0.008487273
vt 0.093968034 -0.008487273
vt 0.093968034 0.008487273
vt 0.09494077 -0.008487273
vt 0.09494077 0.008487273
vt 0.09591557 -0.008487273
vt 0.09591557 0.008487273
vt 0.09688912 -0.008487273
vt 0.09688912 0.008487273
vt 0.097859286 -0.008487273
vt 0.097859286 0.008487273
vt 0.098824434 -0.008487273
vt 0.098824434 0.008487273
vt 0.09978229 -0.008487273
vt 0.09978229 0.008487273
vt 0.100733325 -0.008487273
vt 0.100733325 0.008487273
vt 0.1016777 -0.008487273
vt 0.1016777 0.008487273
vt 0.102616064 -0.008487273
vt 0.102616064 0.008487273
vt 0.103548765 -0.008487273
vt 0.103548765 0.008487273
vt 0.10447817 -0.008487273
vt 0.10447817 0.008487273
vt 0.10540598 -0.008487273
vt 0.10540598 0.008487273
vt 0.10633399 -0.008487273
vt 0.10633399 0.008487273
vt 0.107264414 -0.008487273
vt 0.107264414 0.008487273
vt 0.108198546 -0.008487273
vt 0.108198546 0.008487273
vt 0.1091376 -0.008487273
vt 0.1091376 0.008487273
vt 0.11008242 -0.008487273
vt 0.11008242 0.008487273
vt 0.111034274 -0.008487273
vt 0.111034274 0.008487273
vt 0.1119918 -0.008487273
vt 0.1119918 0.008487273
vt 0.11295414 -0.008487273
vt 0.11295414 0.008487273
vt 0.11391988 -0.008487273
vt 0.11391988 0.008487273
vt 0.11488694 -0.008487273
vt 0.11488694 0.008487273
vt 0.11585232 -0.008487273
vt 0.11585232 0.008487273
vt 0.11681315 -0.008487273
vt 0.11681315 0.008487273
vt 0.117766365 -0.008487273
vt 0.117766365 0.008487273
vt 0.118706465 -0.008487273
vt 0.118706465 0.008487273
vt 0.11963198 -0.008487273
vt 0.11963198 0.008487273
vt 0.120582975 -0.008487273
vt 0.120582975 0.008487273
vt 0.121542916 -0.008487273
vt 0.121542916 0.008487273
vt 0.12249088 -0.008487273
vt 0.12249088 0.008487273
vt 0.123433374 -0.008487273
vt 0.123433374 0.008487273
vt 0.124376684 -0.008487273
vt 0.124376684 0.008487273
vt 0.12532651 -0.008487273
vt 0.12532651 0.008487273
vt 0.12628755 -0.008487273
vt 0.12628755 0.008487273
vt 0.12726307 -0.008487273
vt 0.12726307 0.008487273
vt 0.12823823 -0.008487273
vt 0.12823823 0.008487273
vt 0.12907729 -0.008487273
vt 0.12907729 0.008487273
vt 0.12992744 -0.008487273
vt 0.12992744 0.008487273
vt 0.13078675 -0.008487273
vt 0.13078675 0.008487273
vt 0.13165389 -0.008487273
vt 0.13165389 0.008487273
vt 0.13252614 -0.008487273
vt 0.13252614 0.008487273
vt 0.13340053 -0.008487273
vt 0.13340053 0.008487273
vt 0.13427408 -0.008487273
vt 0.13427408 0.008487273
vt 0.13514334 -0.008487273
vt 0.13514334 0.008487273
vt 0.13600574 -0.008487273
vt 0.13600574 0.008487273
vt 0.13685845 -0.008487273
vt 0.13685845 0.008487273
vt 0.1376997 -0.008487273
vt 0.1376997 0.008487273
vt 0.13864528 -0.008487273
vt 0.13864528 0.008487273
vt 0.13962851 -0.008487273
vt 0.13962851 0.008487273
vt 0.14059852 -0.008487273
vt 0.14059852 0.008487273
vt 0.14148194 -0.008487273
vt 0.14148194 0.008487273
vt 0.14234306 -0.008487273
vt 0.14234306 0.008487273
vt 0.14322197 -0.008487273
vt 0.14322197 0.008487273
vt 0.14410971 -0.008487273
vt 0.14410971 0.008487273
vt 0.14499901 -0.008487273
vt 0.14499901 0.008487273
vt 0.1458827 -0.008487273
vt 0.1458827 0.008487273
vt 0.14675644 -0.008487273
vt 0.14675644 0.008487273
vt 0.14761642 -0.008487273
vt 0.14761642 0.008487273
vt 0.14846106 -0.008487273
vt 0.14846106 0.008487273
vt 0.14940663 -0.008487273
vt 0.14940663 0.008487273
vt 0.15038517 -0.008487273
vt 0.15038517 0.008487273
vt 0.15135266 -0.008487273
vt 0.15135266 0.008487273
vt 0.15231644 -0.008487273
vt 0.15231644 0.008487273
vt 0.15328354 -0.008487273
vt 0.15328354 0.008487273
vt 0.15425922 -0.008487273
vt 0.15425922 0.008487273
vt 0.15524572 -0.008487273
vt 0.15524572 0.008487273
vt 0.15624177 -0.008487273
vt 0.15624177 0.008487273
vt 0.1571256 -0.008487273
vt 0.1571256 0.008487273
vt 0.15804072 -0.008487273
vt 0.15804072 0.008487273
vt 0.15902668 -0.008487273
vt 0.15902668 0.008487273
vt 0.15998836 -0.008487273
vt 0.15998836 0.008487273
vt 0.16087656 -0.008487273
vt 0.16087656 0.008487273
vt 0.16178426 -0.008487273
vt 0.16178426 0.008487273
vt 0.16270539 -0.008487273
vt 0.16270539 0.008487273
vt 0.16363363 -0.008487273
vt 0.16363363 0.008487273
vt 0.16456203 -0.008487273
vt 0.16456203 0.008487273
vt 0.16548659 -0.008487273
vt 0.16548659 0.008487273
vt 0.16640331 -0.008487273
vt 0.16640331 0.008487273
vt 0.16731182 -0.008487273
vt 0.16731182 0.008487273
vt 0.1682129 -0.008487273
vt 0.1682129 0.008487273
vt 0.169108 -0.008487273
vt 0.169108 0.008487273
vt 0.17000115 -0.008487273
vt 0.17000115 0.008487273
vt 0.17089625 -0.008487273
vt 0.17089625 0.008487273
vt 0.17179823 -0.008487273
vt 0.17179823 0.008487273
vt 0.17270994 -0.008487273
vt 0.17270994 0.008487273
vt 0.17363393 -0.008487273
vt 0.17363393 0.008487273
vt 0.17457297 -0.008487273
vt 0.17457297 0.008487273
vt 0.17552467 -0.008487273
vt 0.17552467 0.008487273
vt 0.17648692 -0.008487273
vt 0.17648692 0.008487273
vt 0.17745613 -0.008487273
vt 0.17745613 0.008487273
vt 0.1784253 -0.008487273
vt 0.1784253 0.008487273
vt 0.179388 -0.008487273
vt 0.179388 0.008487273
vt 0.18033406 -0.008487273
vt 0.18033406 0.008487273
vt 0.18125674 -0.008487273
vt 0.18125674 0.008487273
vt 0.18214996 -0.008485072
vt 0.18214996 0.008485072
vt 0.18305539 -0.00847899
vt 0.18305539 0.00847899
vt 0.18396156 -0.00846925
vt 0.18396156 0.00846925
vt 0.18486816 -0.008456079
vt 0.18486816 0.008456079
vt 0.18577495 -0.008439701
vt 0.18577495 0.008439701
vt 0.18668172 -0.008420342
vt 0.18668172 0.008420342
vt 0.1875882 -0.008398226
vt 0.1875882 0.008398226
vt 0.18849434 -0.008373577
vt 0.18849434 0.008373577
vt 0.18939999 -0.008346623
vt 0.18939999 0.008346623
vt 0.19030517 -0.008317417
vt 0.19030517 0.008317417
vt 0.1912099 -0.008286392
vt 0.1912099 0.008286392
vt 0.1921143 -0.008253775
vt 0.1921143 0.008253775
vt 0.19301848 -0.008219787
vt 0.19301848 0.008219787
vt 0.19392271 -0.0081846565
vt 0.19392271 0.0081846565
vt 0.19482715 -0.008148607
vt 0.19482715 0.008148607
vt 0.19573209 -0.008111862
vt 0.19573209 0.008111862
vt 0.19663772 -0.00807465
vt 0.19663772 0.00807465
vt 0.19754429 -0.008037193
vt 0.19754429 0.008037193
vt 0.19845207 -0.007999736
vt 0.19845207 0.007999736
vt 0.19936131 -0.007962523
vt 0.19936131 0.007962523
vt 0.20027207 -0.007925779
vt 0.20027207 0.007925779
vt 0.20118445 -0.007889728
vt 0.20118445 0.007889728
vt 0.20209849 -0.007854598
vt 0.20209849 0.007854598
vt 0.2030141 -0.00782061
vt 0.2030141 0.00782061
vt 0.20393124 -0.007787992
vt 0.20393124 0.007787992
vt 0.20484969 -0.0077569676
vt 0.20484969 0.0077569676
vt 0.2057692 -0.0077277627
vt 0.2057692 0.0077277627
vt 0.20668942 -0.0077008074
vt 0.20668942 0.0077008074
vt 0.20760998 -0.0076761595
vt 0.20760998 0.0076761595
vt 0.2085304 -0.007654043
vt 0.2085304 0.007654043
vt 0.20945011 -0.007634683
vt 0.20945011 0.007634683
vt 0.2103687 -0.0076183057
vt 0.2103687 0.0076183057
vt 0.21128559 -0.0076051345
vt 0.21128559 0.0076051345
vt 0.21220036 -0.007595395
vt 0.21220036 0.007595395
vt 0.21311262 -0.0075893127
vt 0.21311262 0.0075893127
vt 0.21402206 -0.0075871125
vt 0.21402206 0.0075871125
vt 0.21492855 -0.0075871125
vt 0.21492855 0.0075871125
vt 0.21592443 -0.0075871125
vt 0.21592443 0.0075871125
vt 0.21692033 -0.0075871125
vt 0.21692033 0.0075871125
vt 0.21791624 -0.0075871125
vt 0.21791624 0.0075871125
vt 0.21891214 -0.0075871125
vt 0.21891214 0.0075871125
vt 0.21990801 -0.0075871125
vt 0.21990801 0.0075871125
vt 0.2209039 -0.0075871125
vt 0.2209039 0.0075871125
vt 0.2218998 -0.0075871125
vt 0.2218998 0.0075871125
vt 0.22289568 -0.0075871125
vt 0.22289568 0.0075871125
vt 0.22389157 -0.0075871125
vt 0.22389157 0.0075871125
vt 0.22488745 -0.0075871125
vt 0.22488745 0.0075871125
vt 0.22588332 -0.0075871125
vt 0.22588332 0.0075871125
vt 0.2268792 -0.0075871125
vt 0.2268792 0.0075871125
vt 0.22787505 -0.0075871125
vt 0.22787505 0.0075871125
vt 0.22887093 -0.0075871125
vt 0.22887093 0.0075871125
vt 0.22986677 -0.0075871125
vt 0.22986677 0.0075871125
vt 0.23086263 -0.0075871125
vt 0.23086263 0.0075871125
vt 0.23185849 -0.0075871125
vt 0.23185849 0.0075871125
vt 0.23285432 -0.0075871125
vt 0.23285432 0.0075871125
vt 0.23385018 -0.0075871125
vt 0.23385018 0.0075871125
vt 0.23484604 -0.0075871125
vt 0.23484604 0.0075871125
vt 0.2358419 -0.0075871125
vt 0.2358419 0.0075871125
vt 0.23683776 -0.0075871125
vt 0.23683776 0.0075871125
vt 0.23783363 -0.0075871125
vt 0.23783363 0.0075871125
vt 0.23882951 -0.0075871125
vt 0.23882951 0.0075871125
vt 0.23982537 -0.0075871125
vt 0.23982537 0.0075871125
vt 0.24082126 -0.0075871125
vt 0.24082126 0.0075871125
vt 0.24181716 -0.0075871125
vt 0.24181716 0.0075871125
vt 0.24281308 -0.0075871125
vt 0.24281308 0.0075871125
vt 0.24380898 -0.0075871125
vt 0.24380898 0.0075871125
vt 0.24480493 -0.0075871125
vt 0.24480493 0.0075871125
vt 0.24580085 -0.0075871125
vt 0.24580085 0.0075871125
vt 0.2467968 -0.0075871125
vt 0.2467968 0.0075871125
vt 0.24779277 -0.0075871125
vt 0.24779277 0.0075871125
vt 0.24878876 -0.0075871125
vt 0.24878876 0.0075871125
vt 0.24978475 -0.0075871125
vt 0.24978475 0.0075871125
vt 0.25078076 -0.0075871125
vt 0.25078076 0.0075871125
vt 0.25177678 -0.0075871125
vt 0.25177678 0.0075871125
vt 0.25277284 -0.0075871125
vt 0.25277284 0.0075871125
vt 0.2537689 -0.0075871125
vt 0.2537689 0.0075871125
vt 0.25476494 -0.0075871125
vt 0.25476494 0.0075871125
vt 0.25576103 -0.0075871125
vt 0.25576103 0.0075871125
vt 0.2567571 -0.0075871125
vt 0.2567571 0.0075871125
vt 0.25775322 -0.0075871125
vt 0.25775322 0.0075871125
vt 0.25874934 -0.0075871125
vt 0.25874934 0.0075871125
vt 0.25974545 -0.0075871125
vt 0.25974545 0.0075871125
vt 0.26074153 -0.0075871125
vt 0.26074153 0.0075871125
vt 0.26173764 -0.0075871125
vt 0.26173764 0.0075871125
vt 0.2627338 -0.0075871125
vt 0.2627338 0.0075871125
vt 0.2637299 -0.0075871125
vt 0.2637299 0.0075871125
vt 0.264726 -0.0075871125
vt 0.264726 0.0075871125
vt 0.26572216 -0.0075871125
vt 0.26572216 0.0075871125
vt 0.26671827 -0.0075871125
vt 0.26671827 0.0075871125
vt 0.26771438 -0.0075871125
vt 0.26771438 0.0075871125
vt 0.26871046 -0.0075871125
vt 0.26871046 0.0075871125
vt 0.26970652 -0.0075871125
vt 0.26970652 0.0075871125
vt 0.2707026 -0.0075871125
vt 0.2707026 0.0075871125
vt 0.27169862 -0.0075871125
vt 0.27169862 0.0075871125
vt 0.27269465 -0.0075871125
vt 0.27269465 0.0075871125
vt 0.2736907 -0.0075871125
vt 0.2736907 0.0075871125
vt 0.2746867 -0.0075871125
vt 0.2746867 0.0075871125
vt 0.27568266 -0.0075871125
vt 0.27568266 0.0075871125
vt 0.27667856 -0.0075871125
vt 0.27667856 0.0075871125
vt 0.27767453 -0.0075871125
vt 0.27767453 0.0075871125
vt 0.27867043 -0.006126972
vt 0.27867043 0.006126972
vt 0.28305084 -0.003457211
vt 0.28305084 0.003457211
vn -0 1 0
vn -0 1 0
vn -0 1 0
vn -0 1 0
vn -0 1 0
vn -0 1 0
vn -0 1 0
vn -0 1 0
vn -0 1 0
vn -0 1 0
vn -0 1 0
vn -0 1 0
vn -0 1 0
vn -0 1 0
vn -0 1 0
vn -0 1 0
vn -0 1 0
vn -0 1 0
vn -0 1 0
vn -0 1 0
vn -0 1 0
vn -0 1 0
vn -0 1 0
vn -0 1 0
vn -0 1 0
vn -0 1 0
vn -0 1 0
vn -0 1 0
vn -0 1 0
vn -0 1 0
vn -0 1 0
vn -0 1 0
vn -0 1 0
vn -0 1 0
vn -0 1 0
vn -0 1 0
vn -0 1 0
vn -0 1 0
vn -0 1 0
vn -0 1 0
vn -0 1 0
vn -0 1 0
vn -0 1 0
vn -0 1 0
vn -0 1 0
vn -0 1 0
vn -0 1 0
vn -0 1 0
vn -0 1 0
vn -0 1 0
vn -0 1 0
vn -0 1 0
vn -0 1 0
vn -0 1 0
vn -0 1 0
vn -0 1 0
vn -0 1 0
vn -0 1 0
vn -0 1 0
vn -0 1 0
vn -0 1 0
vn -0 1 0
vn -0 1 0
vn -0 1 0
vn -0 1 0
vn -0 1 0
vn -0 1 0
vn -0 1 0
vn -0 1 0
vn -0 1 0
vn -0 1 0
vn -0 1 0
vn -0 1 0
vn -0 1 0
vn -0 1 0
vn -0 1 0
vn 0.17942682 0.9836162 -0.017469047
vn 0.06522546 0.9978647 -0.003399414
vn 0.67705196 0.7350888 -0.035286527
vn 0.19756402 0.9802897 0.0007786964
vn 0.7527555 0.6582935 0.0029669777
vn 0.35020798 0.9365362 0.015948027
vn 0.7571236 0.65236115 0.03447845
vn 0.50897765 0.8600266 0.036000673
vn 0.73858154 0.6721371 0.05224086
vn 0.66414136 0.74578834 0.05211614
vn 0.71086985 0.7011079 0.05578299
vn 0.80105466 0.5960659 0.054926246
vn 0.6794226 0.7322668 0.04658625
vn 0.90307486 0.4278064 0.037914928
vn 0.64810795 0.7610622 0.02721033
vn 0.9622167 0.27228224 0.001178049
vn 0.6182346 0.7859933 0.0007569092
vn 0.98559076 0.1618689 -0.049084947
vn 0.5901523 0.8067568 -0.029391099
vn 0.9873468 0.1190771 -0.10472294
vn 0.56170624 0.8251888 -0.059577376
vn 0.9747253 0.15800539 -0.1579395
vn 0.528912 0.8443383 -0.085702196
vn 0.9369596 0.28721726 -0.19902992
vn 0.4838879 0.86907256 -0.102787964
vn 0.8407751 0.49785182 -0.212699
vn 0.41551945 0.9034898 -0.10511796
vn 0.652054 0.7357318 -0.18309681
vn 0.30578494 0.9482209 -0.08586443
vn 0.3926111 0.91240484 -0.115645975
vn 0.17199136 0.9837949 -0.0506611
vn 0.110356085 0.99344075 -0.029949425
vn 0.020701913 0.9997699 -0.005618271
vn 0.0030566086 0.9999952 -0.0006251094
vn -0 1 0
vn -0 1 0
vn -0 1 0
vn -0 1 0
vn -0 1 0
vn -0 1 0
vn -0 1 0
vn -0 1 0
vn -0 1 0
vn -0 1 0
vn -0 1 0
vn -0 1 0
vn -0 1 0
vn -0 1 0
vn -0 1 0
vn -0 1 0
vn -0 1 0
vn -0 1 0
vn -0 1 0
vn -0 1 0
vn -0 1 0
vn -0 1 0
vn -0 1 0
vn -0 1 0
vn -0 1 0
vn -0 1 0
vn -0 1 0
vn -0 1 0
vn -0 1 0
vn -0 1 0
vn -0 1 0
vn -0 1 0
vn -0 1 0
vn -0 1 0
vn -0 1 0
vn -0 1 0
vn -0 1 0
vn -0 1 0
vn -0 1 0
vn 0 1 0
vn -0 1 0
vn -0 1 0
vn -0 1 0
vn -0 1 0
vn -0 1 0
vn -0 1 0
vn -0 1 0
vn -0 1 0
vn -0 1 0
vn -0 1 0
vn -0 1 0
vn -0 1 0
vn -0 1 0
vn -0 1 0
vn -0 1 0
vn -0 1 0
vn -0 1 0
vn -0 1 0
vn -0 1 0
vn -0 1 0
vn -0 1 0
vn 0 1 0
vn -0 1 0
vn 0 1 0
vn -0 1 0
vn -0 1 0
vn -0 1 0
vn -0 1 0
vn -0 1 0
vn -0 1 0
vn -0 1 0
vn -0 1 0
vn -0 1 0
vn -0 1 0
vn -0 1 0
vn -0 1 0
vn -0 1 0
vn -0 1 0
vn -0 1 0
vn -0 1 0
vn -0 1 0
vn -0 1 0
vn -0 1 0
vn -0 1 0
vn -0 1 0
vn -0 1 0
vn -0 1 0
vn -0 1 0
vn -0 1 0
vn -0 1 0
vn -0 1 0
vn -0 1 0
vn -0 1 0
vn -0 1 0
vn -0 1 0
vn -0 1 0
vn -0 1 0
vn -0 1 0
vn -0 1 0
vn -0 1 0
vn -0 1 0
vn -0 1 0
vn -0 1 0
vn -0 1 0
vn -0 1 0
vn -0 1 0
vn -0 1 0
vn -0 1 0
vn -0 1 0
vn -0 1 0
vn -0 1 0
vn -0 1 0
vn -0 1 0
vn -0 1 0
vn -0 1 0
vn -0 1 0
vn -0 1 0
vn -0 1 0
vn -0 1 0
vn -0 1 0
vn -0 1 0
vn -0 1 0
vn -0 1 0
vn -0 1 0
vn -0 1 0
vn -0 1 0
vn -0 1 0
vn -0 1 0
vn -0 1 0
vn -0 1 0
vn -0 1 0
vn -0 1 0
vn -0 1 0
vn -0 1 0
vn -0 1 0
vn -0 1 0
vn -0 1 0
vn -0 1 0
vn -0 1 0
vn -0 1 0
vn -0 1 0
vn -0 1 0
vn -0 1 0
vn -0 1 0
vn -0 1 0
vn -0 1 0
vn -0 1 0
vn -0 1 0
vn -0 1 0
vn -0 1 0
vn -0 1 0
vn -0 1 0
vn -0 1 0
vn -0 1 0
vn -0 1 0
vn -0 1 0
vn -0 1 -0
vn -0 1 0
vn -0 1 0
vn -0 1 0
vn -0 1 0
vn -0 1 0
vn -0 1 0
vn -0 1 0
vn -0 1 0
vn -0 1 0
vn -0 1 0
vn -0 1 0
vn -0 1 0
vn -0 1 0
vn -0 1 0
vn -0 1 0
vn -0 1 0
vn -0 1 0
vn -0 1 0
vn -0 1 0
vn -0 1 0
vn -0 1 0
vn -0 1 0
vn -0 1 0
vn -0 1 -0
vn -0 1 0
vn -0 1 -0
vn -0 1 0
vn -0 1 0
vn -0 1 0
vn -0 1 0
vn -0 1 0
vn -0 1 0
vn -0 1 0
vn -0 1 0
vn -0 1 0
vn -0 1 0
vn -0 1 0
vn -0 1 0
vn -0 1 0
vn -0 1 0
vn -0 1 0
vn -0 1 0
vn -0 1 0
vn -0 1 0
vn -0 1 0
vn -0 1 0
vn -0 1 0
vn -0 1 0
vn -0 1 0
vn -0 1 0
vn -0 1 0
vn -0 1 0
vn -0 1 0
vn -0 1 0
vn -0 1 0
vn -0 1 0
vn -0 1 0
vn -0 1 0
vn -0 1 0
vn -0 1 0
vn -0 1 0
vn -0 1 0
vn -0 1 0
vn -0 1 0
vn -0 1 0
vn -0 1 0
vn -0 1 0
vn -0 1 0
vn -0 1 0
vn -0 1 0
vn -0 1 0
vn -0 1 0
vn -0 1 0
vn -0 1 0
vn -0 1 0
vn -0 1 0
vn -0 1 0
vn -0 1 0
vn -0 1 0
vn -0 1 0
vn -0 1 0
vn -0 1 0
vn -0 1 0
vn -0 1 0
vn -0 1 0
vn -0 1 0
vn -0 1 0
vn -0 1 0
vn -0 1 0
vn -0 1 0
vn -0 1 0
vn -0 1 0
vn -0 1 0
vn -0 1 0
vn -0 1 0
vn -0 1 0
vn -0 1 0
vn -0 1 0
vn -0 1 0
vn -0 1 0
vn -0 1 0
vn -0 1 0
vn -0 1 0
vn -0 1 0
vn 0 1 0
vn -0 1 0
vn -0 1 0
vn -0 1 0
vn -0 1 0
vn -0 1 0
vn -0 1 0
vn -0 1 0
vn -0 1 0
vn -0 1 0
vn -0 1 0
vn -0 1 0
vn -0 1 0
vn -0 1 0
vn -0 1 0
vn -0 1 0
vn 0 1 0
vn -0 1 0
vn 0 1 0
vn -0 1 0
vn -0 1 0
vn -0 1 0
vn -0 1 0
vn -0 1 0
vn -0 1 0
vn -0 1 0
vn -0 1 0
vn -0 1 0
vn 0 1 0
vn -0 1 0
vn 0 1 0
vn -0 1 0
vn 0 1 0
vn -0 1 0
vn 0 1 0
vn -0 1 0
vn -0 1 0
vn -0 1 0
vn -0 1 0
vn -0 1 0
vn -0 1 0
vn -0 1 0
vn -0 1 0
vn -0 1 0
vn -0 1 0
vn -0 1 0
vn -0 1 0
vn -0 1 0
vn -0 1 0
vn -0 1 0
vn -0 1 0
vn -0 1 0
vn -0 1 0
vn -0 1 0
vn -0 1 0
vn -0 1 0
vn -0 1 0
vn -0 1 0
vn -0 1 0
vn -0 1 0
vn -0 1 0
vn -0 1 0
vn -0 1 0
vn -0 1 0
vn -0 1 0
vn -0 1 0
vn -0 1 0
vn -0 1 0
vn -0 1 0
vn -0 1 0
vn -0 1 0
vn -0 1 0
vn -0 1 0
vn -0 1 0
vn -0 1 0
vn -0 1 0
vn -0 1 0
vn -0 1 0
vn -0 1 0
vn -0 1 0
vn -0 1 0
vn -0 1 0
vn -0 1 0
vn -0 1 0
vn -0 1 0
vn -0 1 0
vn -0 1 0
vn -0 1 0
vn -0 1 0
vn -0 1 0
vn -0 1 0
vn -0 1 0
vn -0 1 0
vn -0 1 0
vn -0 1 0
vn -0 1 0
vn -0 1 0
vn -0 1 0
vn -0 1 0
vn -0 1 0
vn -0 1 0
vn -0 1 0
vn -0 1 0
vn -0 1 0
vn -0 1 0
vn -0 1 0
vn -0 1 0
vn -0 1 0
vn -0 1 0
vn -0 1 0
vn -0 1 0
vn -0 1 0
vn -0 1 0
vn -0 1 0
vn -0 1 0
vn -0 1 0
vn -0 1 0
vn -0 1 0
vn -0 1 0
vn -0 1 0
vn -0 1 0
vn -0 1 0
vn -0 1 0
vn -0 1 0
vn -0 1 0
vn -0 1 0
vn -0 1 0
vn -0 1 0
vn -0 1 0
vn -0 1 0
vn -0 1 0
vn -0 1 0
vn -0 1 0
vn -0 1 0
vn -0 1 0
vn -0 1 0
vn -0 1 0
vn -0 1 0
vn -0 1 0
vn -0 1 0
vn -0 1 0
vn -0 1 0
vn -0 1 0
vn -0 1 0
vn -0 1 0
vn -0 1 0
vn -0 1 0
vn -0 1 0
vn -0 1 0
vn -0 1 0
vn -0 1 0
vn -0 1 0
vn -0 1 0
vn -0 1 0
vn -0 1 0
vn -0 1 0
vn -0 1 0
vn -0 1 0
vn -0 1 0
vn -0 1 0
vn -0 1 0
vn -0 1 0
vn -0 1 0
vn -0 1 0
vn -0 1 0
vn -0 1 0
vn -0 1 0
vn -0 1 0
vn -0 1 0
vn -0 1 0
vn -0 1 0
vn -0 1 0
vn -0 1 0
vn -0 1 0
vn -0 1 0
vn -0 1 0
vn -0 1 0
vn -0 1 0
vn -0 1 0
vn -0 1 0
vn -0 1 0
vn -0 1 0
vn -0 1 0
vn -0 1 0
vn -0 1 0
vn -0 1 0
vn -0 1 0
vn -0 1 0
vn -0 1 0
vn -0 1 0
vn -0 1 0
vn -0 1 0
vn -0 1 0
vn -0 1 0
vn -0 1 0
vn -0 1 0
vn -0 1 0
vn -0 1 0
vn -0 1 0
vn -0 1 0
vn -0 1 0
vn -0 1 0
vn -0 1 0
vn -0 1 0
vn -0 1 0
vn -0 1 0
vn -0 1 0
vn -0 1 0
vn -0 1 0
vn -0 1 0
vn -0 1 0
vn -0 1 0
vn -0 1 0
vn -0 1 0
vn -0 1 0
vn -0 1 0
vn -0 1 0
vn -0 1 0
vn -0 1 0
vn -0 1 0
vn -0 1 0
vn -0 1 0
vn -0 1 0
g _0
f 3/3/3 2/2/2 1/1/1
f 2/2/2 3/3/3 4/4/4
f 5/5/5 4/4/4 3/3/3
f 4/4/4 5/5/5 6/6/6
f 7/7/7 6/6/6 5/5/5
f 6/6/6 7/7/7 8/8/8
f 9/9/9 8/8/8 7/7/7
f 8/8/8 9/9/9 10/10/10
f 11/11/11 10/10/10 9/9/9
f 10/10/10 11/11/11 12/12/12
f 13/13/13 12/12/12 11/11/11
f 12/12/12 13/13/13 14/14/14
f 15/15/15 14/14/14 13/13/13
f 14/14/14 15/15/15 16/16/16
f 17/17/17 16/16/16 15/15/15
f 16/16/16 17/17/17 18/18/18
f 19/19/19 18/18/18 17/17/17
f 18/18/18 19/19/19 20/20/20
f 21/21/21 20/20/20 19/19/19
f 20/20/20 21/21/21 22/22/22
f 23/23/23 22/22/22 21/21/21
f 22/22/22 23/23/23 24/24/24
f 25/25/25 24/24/24 23/23/23
f 24/24/24 25/25/25 26/26/26
f 27/27/27 26/26/26 25/25/25
f 26/26/26 27/27/27 28/28/28
f 29/29/29 28/28/28 27/27/27
f 28/28/28 29/29/29 30/30/30
f 31/31/31 30/30/30 29/29/29
f 30/30/30 31/31/31 32/32/32
f 33/33/33 32/32/32 31/31/31
f 32/32/32 33/33/33 34/34/34
f 35/35/35 34/34/34 33/33/33
f 34/34/34 35/35/35 36/36/36
f 37/37/37 36/36/36 35/35/35
f 36/36/36 37/37/37 38/38/38
f 39/39/39 38/38/38 37/37/37
f 38/38/38 39/39/39 40/40/40
f 41/41/41 40/40/40 39/39/39
f 40/40/40 41/41/41 42/42/42
f 43/43/43 42/42/42 41/41/41
f 42/42/42 43/43/43 44/44/44
f 45/45/45 44/44/44 43/43/43
f 44/44/44 45/45/45 46/46/46
f 47/47/47 46/46/46 45/45/45
f 46/46/46 47/47/47 48/48/48
f 49/49/49 48/48/48 47/47/47
f 48/48/48 49/49/49 50/50/50
f 51/51/51 50/50/50 49/49/49
f 50/50/50 51/51/51 52/52/52
f 53/53/53 52/52/52 51/51/51
f 52/52/52 53/53/53 54/54/54
f 55/55/55 54/54/54 53/53/53
f 54/54/54 55/55/55 56/56/56
f 57/57/57 56/56/56 55/55/55
f 56/56/56 57/57/57 58/58/58
f 59/59/59 58/58/58 57/57/57
f 58/58/58 59/59/59 60/60/60
f 61/61/61 60/60/60 59/59/59
f 60/60/60 61/61/61 62/62/62
f 63/63/63 62/62/62 61/61/61
f 62/62/62 63/63/63 64/64/64
f 65/65/65 64/64/64 63/63/63
f 64/64/64 65/65/65 66/66/66
f 67/67/67 66/66/66 65/65/65
f 66/66/66 67/67/67 68/68/68
f 69/69/69 68/68/68 67/67/67
f 68/68/68 69/69/69 70/70/70
f 71/71/71 70/70/70 69/69/69
f 70/70/70 71/71/71 72/72/72
f 73/73/73 72/72/72 71/71/71
f 72/72/72 73/73/73 74/74/74
f 75/75/75 74/74/74 73/73/73
f 74/74/74 75/75/75 76/76/76
f 77/77/77 76/76/76 75/75/75
f 76/76/76 77/77/77 78/78/78
f 79/79/79 78/78/78 77/77/77
f 78/78/78 79/79/79 80/80/80
f 81/81/81 80/80/80 79/79/79
f 80/80/80 81/81/81 82/82/82
f 83/83/83 82/82/82 81/81/81
f 82/82/82 83/83/83 84/84/84
f 85/85/85 84/84/84 83/83/83
f 84/84/84 85/85/85 86/86/86
f 87/87/87 86/86/86 85/85/85
f 86/86/86 87/87/87 88/88/88
f 89/89/89 88/88/88 87/87/87
f 88/88/88 89/89/89 90/90/90
f 91/91/91 90/90/90 89/89/89
f 90/90/90 91/91/91 92/92/92
f 93/93/93 92/92/92 91/91/91
f 92/92/92 93/93/93 94/94/94
f 95/95/95 94/94/94 93/93/93
f 94/94/94 95/95/95 96/96/96
f 97/97/97 96/96/96 95/95/95
f 96/96/96 97/97/97 98/98/98
f 99/99/99 98/98/98 97/97/97
f 98/98/98 99/99/99 100/100/100
f 101/101/101 100/100/100 99/99/99
f 100/100/100 101/101/101 102/102/102
f 103/103/103 102/102/102 101/101/101
f 102/102/102 103/103/103 104/104/104
f 105/105/105 104/104/104 103/103/103
f 104/104/104 105/105/105 106/106/106
f 107/107/107 106/106/106 105/105/105
f 106/106/106 107/107/107 108/108/108
f 109/109/109 108/108/108 107/107/107
f 108/108/108 109/109/109 110/110/110
f 111/111/111 110/110/110 109/109/109
f 110/110/110 111/111/111 112/112/112
f 113/113/113 112/112/112 111/111/111
f 112/112/112 113/113/113 114/114/114
f 115/115/115 114/114/114 113/113/113
f 114/114/114 115/115/115 116/116/116
f 117/117/117 116/116/116 115/115/115
f 116/116/116 117/117/117 118/118/118
f 119/119/119 118/118/118 117/117/117
f 121/121/121 120/120/120 119/119/119
f 123/123/123 122/122/122 121/121/121
f 125/125/125 124/124/124 123/123/123
f 127/127/127 126/126/126 125/125/125
f 129/129/129 128/128/128 127/127/127
f 128/128/128 129/129/129 130/130/130
f 131/131/131 130/130/130 129/129/129
f 130/130/130 131/131/131 132/132/132
f 133/133/133 132/132/132 131/131/131
f 132/132/132 133/133/133 134/134/134
f 135/135/135 134/134/134 133/133/133
f 134/134/134 135/135/135 136/136/136
f 137/137/137 136/136/136 135/135/135
f 136/136/136 137/137/137 138/138/138
f 139/139/139 138/138/138 137/137/137
f 141/141/141 140/140/140 139/139/139
f 143/143/143 142/142/142 141/141/141
f 145/145/145 144/144/144 143/143/143
f 147/147/147 146/146/146 145/145/145
f 146/146/146 147/147/147 148/148/148
f 149/149/149 148/148/148 147/147/147
f 148/148/148 149/149/149 150/150/150
f 151/151/151 150/150/150 149/149/149
f 150/150/150 151/151/151 152/152/152
f 153/153/153 152/152/152 151/151/151
f 152/152/152 153/153/153 154/154/154
f 155/155/155 154/154/154 153/153/153
f 154/154/154 155/155/155 156/156/156
f 157/157/157 156/156/156 155/155/155
f 156/156/156 157/157/157 158/158/158
f 159/159/159 158/158/158 157/157/157
f 158/158/158 159/159/159 160/160/160
f 161/161/161 160/160/160 159/159/159
f 160/160/160 161/161/161 162/162/162
f 163/163/163 162/162/162 161/161/161
f 162/162/162 163/163/163 164/164/164
f 165/165/165 164/164/164 163/163/163
f 164/164/164 165/165/165 166/166/166
f 167/167/167 166/166/166 165/165/165
f 166/166/166 167/167/167 168/168/168
f 169/169/169 168/168/168 167/167/167
f 168/168/168 169/169/169 170/170/170
f 171/171/171 170/170/170 169/169/169
f 170/170/170 171/171/171 172/172/172
f 173/173/173 172/172/172 171/171/171
f 172/172/172 173/173/173 174/174/174
f 175/175/175 174/174/174 173/173/173
f 174/174/174 175/175/175 176/176/176
f 177/177/177 176/176/176 175/175/175
f 176/176/176 177/177/177 178/178/178
f 179/179/179 178/178/178 177/177/177
f 178/178/178 179/179/179 180/180/180
f 181/181/181 180/180/180 179/179/179
f 180/180/180 181/181/181 182/182/182
f 183/183/183 182/182/182 181/181/181
f 182/182/182 183/183/183 184/184/184
f 185/185/185 184/184/184 183/183/183
f 184/184/184 185/185/185 186/186/186
f 187/187/187 186/186/186 185/185/185
f 186/186/186 187/187/187 188/188/188
f 189/189/189 188/188/188 187/187/187
f 188/188/188 189/189/189 190/190/190
f 191/191/191 190/190/190 189/189/189
f 190/190/190 191/191/191 192/192/192
f 193/193/193 192/192/192 191/191/191
f 192/192/192 193/193/193 194/194/194
f 195/195/195 194/194/194 193/193/193
f 194/194/194 195/195/195 196/196/196
f 197/197/197 196/196/196 195/195/195
f 196/196/196 197/197/197 198/198/198
f 199/199/199 198/198/198 197/197/197
f 198/198/198 199/199/199 200/200/200
f 201/201/201 200/200/200 199/199/199
f 200/200/200 201/201/201 202/202/202
f 203/203/203 202/202/202 201/201/201
f 202/202/202 203/203/203 204/204/204
f 205/205/205 204/204/204 203/203/203
f 204/204/204 205/205/205 206/206/206
f 207/207/207 206/206/206 205/205/205
f 206/206/206 207/207/207 208/208/208
f 209/209/209 208/208/208 207/207/207
f 208/208/208 209/209/209 210/210/210
f 211/211/211 210/210/210 209/209/209
f 210/210/210 211/211/211 212/212/212
f 213/213/213 212/212/212 211/211/211
f 212/212/212 213/213/213 214/214/214
f 215/215/215 214/214/214 213/213/213
f 214/214/214 215/215/215 216/216/216
f 217/217/217 216/216/216 215/215/215
f 216/216/216 217/217/217 218/218/218
f 219/219/219 218/218/218 217/217/217
f 218/218/218 219/219/219 220/220/220
f 221/221/221 220/220/220 219/219/219
f 220/220/220 221/221/221 222/222/222
f 223/223/223 222/222/222 221/221/221
f 222/222/222 223/223/223 224/224/224
f 225/225/225 224/224/224 223/223/223
f 224/224/224 225/225/225 226/226/226
f 227/227/227 226/226/226 225/225/225
f 226/226/226 227/227/227 228/228/228
f 229/229/229 228/228/228 227/227/227
f 228/228/228 229/229/229 230/230/230
f 231/231/231 230/230/230 229/229/229
f 230/230/230 231/231/231 232/232/232
f 233/233/233 232/232/232 231/231/231
f 232/232/232 233/233/233 234/234/234
f 235/235/235 234/234/234 233/233/233
f 234/234/234 235/235/235 236/236/236
f 237/237/237 236/236/236 235/235/235
f 236/236/236 237/237/237 238/238/238
f 239/239/239 238/238/238 237/237/237
f 238/238/238 239/239/239 240/240/240
f 241/241/241 240/240/240 239/239/239
f 240/240/240 241/241/241 242/242/242
f 243/243/243 242/242/242 241/241/241
f 242/242/242 243/243/243 244/244/244
f 245/245/245 244/244/244 243/243/243
f 244/244/244 245/245/245 246/246/246
f 247/247/247 246/246/246 245/245/245
f 246/246/246 247/247/247 248/248/248
f 249/249/249 248/248/248 247/247/247
f 248/248/248 249/249/249 250/250/250
f 251/251/251 250/250/250 249/249/249
f 250/250/250 251/251/251 252/252/252
f 253/253/253 252/252/252 251/251/251
f 252/252/252 253/253/253 254/254/254
f 255/255/255 254/254/254 253/253/253
f 254/254/254 255/255/255 256/256/256
f 257/257/257 256/256/256 255/255/255
f 256/256/256 257/257/257 258/258/258
f 259/259/259 258/258/258 257/257/257
f 258/258/258 259/259/259 260/260/260
f 261/261/261 260/260/260 259/259/259
f 260/260/260 261/261/261 262/262/262
f 263/263/263 262/262/262 261/261/261
f 262/262/262 263/263/263 264/264/264
f 265/265/265 264/264/264 263/263/263
f 264/264/264 265/265/265 266/266/266
f 267/267/267 266/266/266 265/265/265
f 266/266/266 267/267/267 268/268/268
f 269/269/269 268/268/268 267/267/267
f 268/268/268 269/269/269 270/270/270
f 271/271/271 270/270/270 269/269/269
f 270/270/270 271/271/271 272/272/272
f 273/273/273 272/272/272 271/271/271
f 272/272/272 273/273/273 274/274/274
f 275/275/275 274/274/274 273/273/273
f 274/274/274 275/275/275 276/276/276
f 277/277/277 276/276/276 275/275/275
f 276/276/276 277/277/277 278/278/278
f 279/279/279 278/278/278 277/277/277
f 278/278/278 279/279/279 280/280/280
f 281/281/281 280/280/280 279/279/279
f 280/280/280 281/281/281 282/282/282
f 283/283/283 282/282/282 281/281/281
f 282/282/282 283/283/283 284/284/284
f 285/285/285 284/284/284 283/283/283
f 284/284/284 285/285/285 286/286/286
f 287/287/287 286/286/286 285/285/285
f 286/286/286 287/287/287 288/288/288
f 289/289/289 288/288/288 287/287/287
f 288/288/288 289/289/289 290/290/290
f 291/291/291 290/290/290 289/289/289
f 290/290/290 291/291/291 292/292/292
f 293/293/293 292/292/292 291/291/291
f 292/292/292 293/293/293 294/294/294
f 295/295/295 294/294/294 293/293/293
f 294/294/294 295/295/295 296/296/296
f 297/297/297 296/296/296 295/295/295
f 296/296/296 297/297/297 298/298/298
f 299/299/299 298/298/298 297/297/297
f 298/298/298 299/299/299 300/300/300
f 301/301/301 300/300/300 299/299/299
f 300/300/300 301/301/301 302/302/302
f 303/303/303 302/302/302 301/301/301
f 302/302/302 303/303/303 304/304/304
f 305/305/305 304/304/304 303/303/303
f 304/304/304 305/305/305 306/306/306
f 307/307/307 306/306/306 305/305/305
f 306/306/306 307/307/307 308/308/308
f 309/309/309 308/308/308 307/307/307
f 308/308/308 309/309/309 310/310/310
f 311/311/311 310/310/310 309/309/309
f 310/310/310 311/311/311 312/312/312
f 313/313/313 312/312/312 311/311/311
f 312/312/312 313/313/313 314/314/314
f 315/315/315 314/314/314 313/313/313
f 314/314/314 315/315/315 316/316/316
f 317/317/317 316/316/316 315/315/315
f 316/316/316 317/317/317 318/318/318
f 319/319/319 318/318/318 317/317/317
f 318/318/318 319/319/319 320/320/320
f 321/321/321 320/320/320 319/319/319
f 320/320/320 321/321/321 322/322/322
f 323/323/323 322/322/322 321/321/321
f 322/322/322 323/323/323 324/324/324
f 325/325/325 324/324/324 323/323/323
f 324/324/324 325/325/325 326/326/326
f 327/327/327 326/326/326 325/325/325
f 326/326/326 327/327/327 328/328/328
f 329/329/329 328/328/328 327/327/327
f 328/328/328 329/329/329 330/330/330
f 331/331/331 330/330/330 329/329/329
f 330/330/330 331/331/331 332/332/332
f 333/333/333 332/332/332 331/331/331
f 332/332/332 333/333/333 334/334/334
f 335/335/335 334/334/334 333/333/333
f 334/334/334 335/335/335 336/336/336
f 337/337/337 336/336/336 335/335/335
f 336/336/336 337/337/337 338/338/338
f 339/339/339 338/338/338 337/337/337
f 338/338/338 339/339/339 340/340/340
f 341/341/341 340/340/340 339/339/339
f 340/340/340 341/341/341 342/342/342
f 343/343/343 342/342/342 341/341/341
f 342/342/342 343/343/343 344/344/344
f 345/345/345 344/344/344 343/343/343
f 344/344/344 345/345/345 346/346/346
f 347/347/347 346/346/346 345/345/345
f 346/346/346 347/347/347 348/348/348
f 349/349/349 348/348/348 347/347/347
f 348/348/348 349/349/349 350/350/350
f 351/351/351 350/350/350 349/349/349
f 350/350/350 351/351/351 352/352/352
f 353/353/353 352/352/352 351/351/351
f 352/352/352 353/353/353 354/354/354
f 355/355/355 354/354/354 353/353/353
f 354/354/354 355/355/355 356/356/356
f 357/357/357 356/356/356 355/355/355
f 356/356/356 357/357/357 358/358/358
f 359/359/359 358/358/358 357/357/357
f 358/358/358 359/359/359 360/360/360
f 361/361/361 360/360/360 359/359/359
f 360/360/360 361/361/361 362/362/362
f 363/363/363 362/362/362 361/361/361
f 362/362/362 363/363/363 364/364/364
f 365/365/365 364/364/364 363/363/363
f 364/364/364 365/365/365 366/366/366
f 367/367/367 366/366/366 365/365/365
f 366/366/366 367/367/367 368/368/368
f 369/369/369 368/368/368 367/367/367
f 368/368/368 369/369/369 370/370/370
f 371/371/371 370/370/370 369/369/369
f 370/370/370 371/371/371 372/372/372
f 373/373/373 372/372/372 371/371/371
f 372/372/372 373/373/373 374/374/374
f 375/375/375 374/374/374 373/373/373
f 374/374/374 375/375/375 376/376/376
f 377/377/377 376/376/376 375/375/375
f 376/376/376 377/377/377 378/378/378
f 379/379/379 378/378/378 377/377/377
f 378/378/378 379/379/379 380/380/380
f 381/381/381 380/380/380 379/379/379
f 380/380/380 381/381/381 382/382/382
f 383/383/383 382/382/382 381/381/381
f 382/382/382 383/383/383 384/384/384
f 385/385/385 384/384/384 383/383/383
f 384/384/384 385/385/385 386/386/386
f 387/387/387 386/386/386 385/385/385
f 386/386/386 387/387/387 388/388/388
f 389/389/389 388/388/388 387/387/387
f 388/388/388 389/389/389 390/390/390
f 391/391/391 390/390/390 389/389/389
f 390/390/390 391/391/391 392/392/392
f 393/393/393 392/392/392 391/391/391
f 392/392/392 393/393/393 394/394/394
f 395/395/395 394/394/394 393/393/393
f 394/394/394 395/395/395 396/396/396
f 397/397/397 396/396/396 395/395/395
f 396/396/396 397/397/397 398/398/398
f 399/399/399 398/398/398 397/397/397
f 398/398/398 399/399/399 400/400/400
f 401/401/401 400/400/400 399/399/399
f 400/400/400 401/401/401 402/402/402
f 403/403/403 402/402/402 401/401/401
f 402/402/402 403/403/403 404/404/404
f 405/405/405 404/404/404 403/403/403
f 404/404/404 405/405/405 406/406/406
f 407/407/407 406/406/406 405/405/405
f 406/406/406 407/407/407 408/408/408
f 409/409/409 408/408/408 407/407/407
f 408/408/408 409/409/409 410/410/410
f 411/411/411 410/410/410 409/409/409
f 410/410/410 411/411/411 412/412/412
f 413/413/413 412/412/412 411/411/411
f 412/412/412 413/413/413 414/414/414
f 415/415/415 414/414/414 413/413/413
f 414/414/414 415/415/415 416/416/416
f 417/417/417 416/416/416 415/415/415
f 416/416/416 417/417/417 418/418/418
f 419/419/419 418/418/418 417/417/417
f 418/418/418 419/419/419 420/420/420
f 421/421/421 420/420/420 419/419/419
f 420/420/420 421/421/421 422/422/422
f 423/423/423 422/422/422 421/421/421
f 422/422/422 423/423/423 424/424/424
f 425/425/425 424/424/424 423/423/423
f 424/424/424 425/425/425 426/426/426
f 427/427/427 426/426/426 425/425/425
f 426/426/426 427/427/427 428/428/428
f 429/429/429 428/428/428 427/427/427
f 428/428/428 429/429/429 430/430/430
f 431/431/431 430/430/430 429/429/429
f 430/430/430 431/431/431 432/432/432
f 433/433/433 432/432/432 431/431/431
f 432/432/432 433/433/433 434/434/434
f 435/435/435 434/434/434 433/433/433
f 434/434/434 435/435/435 436/436/436
f 437/437/437 436/436/436 435/435/435
f 436/436/436 437/437/437 438/438/438
f 439/439/439 438/438/438 437/437/437
f 438/438/438 439/439/439 440/440/440
f 441/441/441 440/440/440 439/439/439
f 440/440/440 441/441/441 442/442/442
f 443/443/443 442/442/442 441/441/441
f 442/442/442 443/443/443 444/444/444
f 445/445/445 444/444/444 443/443/443
f 444/444/444 445/445/445 446/446/446
f 447/447/447 446/446/446 445/445/445
f 446/446/446 447/447/447 448/448/448
f 449/449/449 448/448/448 447/447/447
f 448/448/448 449/449/449 450/450/450
f 451/451/451 450/450/450 449/449/449
f 450/450/450 451/451/451 452/452/452
f 453/453/453 452/452/452 451/451/451
f 452/452/452 453/453/453 454/454/454
f 455/455/455 454/454/454 453/453/453
f 454/454/454 455/455/455 456/456/456
f 457/457/457 456/456/456 455/455/455
f 456/456/456 457/457/457 458/458/458
f 459/459/459 458/458/458 457/457/457
f 458/458/458 459/459/459 460/460/460
f 461/461/461 460/460/460 459/459/459
f 460/460/460 461/461/461 462/462/462
f 463/463/463 462/462/462 461/461/461
f 462/462/462 463/463/463 464/464/464
f 465/465/465 464/464/464 463/463/463
f 464/464/464 465/465/465 466/466/466
f 467/467/467 466/466/466 465/465/465
f 466/466/466 467/467/467 468/468/468
f 469/469/469 468/468/468 467/467/467
f 468/468/468 469/469/469 470/470/470
f 471/471/471 470/470/470 469/469/469
f 470/470/470 471/471/471 472/472/472
f 473/473/473 472/472/472 471/471/471
f 472/472/472 473/473/473 474/474/474
f 475/475/475 474/474/474 473/473/473
f 474/474/474 475/475/475 476/476/476
f 477/477/477 476/476/476 475/475/475
f 476/476/476 477/477/477 478/478/478
f 479/479/479 478/478/478 477/477/477
f 478/478/478 479/479/479 480/480/480
f 481/481/481 480/480/480 479/479/479
f 480/480/480 481/481/481 482/482/482
f 483/483/483 482/482/482 481/481/481
f 482/482/482 483/483/483 484/484/484
f 485/485/485 484/484/484 483/483/483
f 484/484/484 485/485/485 486/486/486
f 487/487/487 486/486/486 485/485/485
f 486/486/486 487/487/487 488/488/488
f 489/489/489 488/488/488 487/487/487
f 488/488/488 489/489/489 490/490/490
f 491/491/491 490/490/490 489/489/489
f 490/490/490 491/491/491 492/492/492
f 493/493/493 492/492/492 491/491/491
f 492/492/492 493/493/493 494/494/494
f 495/495/495 494/494/494 493/493/493
f 494/494/494 495/495/495 496/496/496
f 497/497/497 496/496/496 495/495/495
f 496/496/496 497/497/497 498/498/498
f 499/499/499 498/498/498 497/497/497
f 498/498/498 499/499/499 500/500/500
f 501/501/501 500/500/500 499/499/499
f 500/500/500 501/501/501 502/502/502
f 503/503/503 502/502/502 501/501/501
f 502/502/502 503/503/503 504/504/504
f 505/505/505 504/504/504 503/503/503
f 504/504/504 505/505/505 506/506/506
f 507/507/507 506/506/506 505/505/505
f 506/506/506 507/507/507 508/508/508
f 509/509/509 508/508/508 507/507/507
f 508/508/508 509/509/509 510/510/510
f 511/511/511 510/510/510 509/509/509
f 510/510/510 511/511/511 512/512/512
f 513/513/513 512/512/512 511/511/511
f 512/512/512 513/513/513 514/514/514
f 515/515/515 514/514/514 513/513/513
f 514/514/514 515/515/515 516/516/516
f 517/517/517 516/516/516 515/515/515
f 516/516/516 517/517/517 518/518/518
f 519/519/519 518/518/518 517/517/517
f 518/518/518 519/519/519 520/520/520
f 521/521/521 520/520/520 519/519/519
f 520/520/520 521/521/521 522/522/522
f 523/523/523 522/522/522 521/521/521
f 522/522/522 523/523/523 524/524/524
f 525/525/525 524/524/524 523/523/523
f 524/524/524 525/525/525 526/526/526
f 527/527/527 526/526/526 525/525/525
f 526/526/526 527/527/527 528/528/528
f 529/529/529 528/528/528 527/527/527
f 528/528/528 529/529/529 530/530/530
f 531/531/531 530/530/530 529/529/529
f 530/530/530 531/531/531 532/532/532
f 533/533/533 532/532/532 531/531/531
f 532/532/532 533/533/533 534/534/534
f 535/535/535 534/534/534 533/533/533
f 534/534/534 535/535/535 536/536/536
f 537/537/537 536/536/536 535/535/535
f 536/536/536 537/537/537 538/538/538
f 539/539/539 538/538/538 537/537/537
f 538/538/538 539/539/539 540/540/540
f 541/541/541 540/540/540 539/539/539
f 540/540/540 541/541/541 542/542/542
f 543/543/543 542/542/542 541/541/541
f 542/542/542 543/543/543 544/544/544
f 545/545/545 544/544/544 543/543/543
f 544/544/544 545/545/545 546/546/546
f 547/547/547 546/546/546 545/545/545
f 546/546/546 547/547/547 548/548/548
f 549/549/549 548/548/548 547/547/547
f 548/548/548 549/549/549 550/550/550
f 551/551/551 550/550/550 549/549/549
f 550/550/550 551/551/551 552/552/552
f 553/553/553 552/552/552 551/551/551
f 552/552/552 553/553/553 554/554/554
f 555/555/555 554/554/554 553/553/553
f 554/554/554 555/555/555 556/556/556
f 557/557/557 556/556/556 555/555/555
f 556/556/556 557/557/557 558/558/558
f 559/559/559 558/558/558 557/557/557
f 558/558/558 559/559/559 560/560/560
f 561/561/561 560/560/560 559/559/559
f 560/560/560 561/561/561 562/562/562
f 563/563/563 562/562/562 561/561/561
f 562/562/562 563/563/563 564/564/564
f 565/565/565 564/564/564 563/563/563
f 564/564/564 565/565/565 566/566/566
f 567/567/567 566/566/566 565/565/565
f 566/566/566 567/567/567 568/568/568
f 569/569/569 568/568/568 567/567/567
f 568/568/568 569/569/569 570/570/570
f 571/571/571 570/570/570 569/569/569
f 570/570/570 571/571/571 572/572/572
f 573/573/573 572/572/572 571/571/571
f 572/572/572 573/573/573 574/574/574
f 575/575/575 574/574/574 573/573/573
f 574/574/574 575/575/575 576/576/576
f 577/577/577 576/576/576 575/575/575
f 576/576/576 577/577/577 578/578/578
f 579/579/579 578/578/578 577/577/577
f 578/578/578 579/579/579 580/580/580
f 581/581/581 580/580/580 579/579/579
f 580/580/580 581/581/581 582/582/582
f 583/583/583 582/582/582 581/581/581
f 582/582/582 583/583/583 584/584/584
f 585/585/585 584/584/584 583/583/583
f 584/584/584 585/585/585 586/586/586
f 587/587/587 586/586/586 585/585/585
f 586/586/586 587/587/587 588/588/588
f 589/589/589 588/588/588 587/587/587
f 588/588/588 589/589/589 590/590/590
f 591/591/591 590/590/590 589/589/589
f 590/590/590 591/591/591 592/592/592
f 593/593/593 592/592/592 591/591/591
f 592/592/592 593/593/593 594/594/594
