g 
v 94.58887 18.13 -0.84740067
v 99.08858 18.13 9.989185
v 90.208336 18.13 -3.4919767
v 97.86973 18.13 14.958812
v 82.337814 18.13 -3.3621645
v 92.22218 18.13 20.442165
v 73.79755 21.44321 0.050679207
v 87.14307 21.44321 22.684555
v 63.942635 23.84 7.9866095
v 83.02778 23.84 25.360922
v 60.58176 23.84 16.906454
v 80.81823 23.84 27.293547
v 59.157555 23.84 23.715296
v 76.11625 23.84 32.419952
v 61.725258 23.84 28.156376
v 71.010994 23.84 32.92261
v 94.58887 18.13 -0.84740067
v 94.58887 8.129999 -0.84740067
v 90.208336 18.13 -3.4919767
v 90.208336 8.129999 -3.4919767
v 90.208336 18.13 -3.4919767
v 90.208336 8.129999 -3.4919767
v 82.337814 18.13 -3.3621645
v 82.337814 8.129999 -3.3621645
v 82.337814 18.13 -3.3621645
v 82.337814 8.129999 -3.3621645
v 73.79755 21.44321 0.050679207
v 73.79755 11.443211 0.050679207
v 73.79755 21.44321 0.050679207
v 73.79755 11.443211 0.050679207
v 63.942635 23.84 7.9866095
v 63.942635 13.84 7.9866095
v 63.942635 23.84 7.9866095
v 63.942635 13.84 7.9866095
v 60.58176 23.84 16.906454
v 60.58176 13.84 16.906454
v 60.58176 23.84 16.906454
v 60.58176 13.84 16.906454
v 59.157555 23.84 23.715296
v 59.157555 13.84 23.715296
v 59.157555 23.84 23.715296
v 59.157555 13.84 23.715296
v 61.725258 23.84 28.156376
v 61.725258 13.84 28.156376
v 99.08858 18.13 9.989185
v 99.08858 8.129999 9.989185
v 97.86973 18.13 14.958812
v 97.86973 8.129999 14.958812
v 97.86973 18.13 14.958812
v 97.86973 8.129999 14.958812
v 92.22218 18.13 20.442165
v 92.22218 8.129999 20.442165
v 92.22218 18.13 20.442165
v 92.22218 8.129999 20.442165
v 87.14307 21.44321 22.684555
v 87.14307 11.443211 22.684555
v 87.14307 21.44321 22.684555
v 87.14307 11.443211 22.684555
v 83.02778 23.84 25.360922
v 83.02778 13.84 25.360922
v 83.02778 23.84 25.360922
v 83.02778 13.84 25.360922
v 80.81823 23.84 27.293547
v 80.81823 13.84 27.293547
v 80.81823 23.84 27.293547
v 80.81823 13.84 27.293547
v 76.11625 23.84 32.419952
v 76.11625 13.84 32.419952
v 76.11625 23.84 32.419952
v 76.11625 13.84 32.419952
v 71.010994 23.84 32.92261
v 71.010994 13.84 32.92261
vt -0.043647896 0.031259526
vt -0.05357078 0.037521746
vt -0.038543917 0.031623118
vt -0.055439007 0.04228541
vt -0.032186948 0.036265418
vt -0.053984195 0.050021395
vt -0.027174855 0.04397662
vt -0.051125955 0.054781247
vt -0.02369534 0.056141783
vt -0.049305484 0.059340242
vt -0.026089834 0.06536813
vt -0.04861372 0.06219307
vt -0.028850283 0.07175316
vt -0.047725894 0.06909237
vt -0.03350825 0.0739025
vt -0.043843593 0.07244559
vt -0.043647896 0.031259526
vt -0.043647896 0.031259526
vt -0.038543917 0.031623118
vt -0.038543917 0.031623118
vt -0.038543917 0.031623118
vt -0.038543917 0.031623118
vt -0.032186948 0.036265418
vt -0.032186948 0.036265418
vt -0.032186948 0.036265418
vt -0.032186948 0.036265418
vt -0.027174855 0.04397662
vt -0.027174855 0.04397662
vt -0.027174855 0.04397662
vt -0.027174855 0.04397662
vt -0.02369534 0.056141783
vt -0.02369534 0.056141783
vt -0.02369534 0.056141783
vt -0.02369534 0.056141783
vt -0.026089834 0.06536813
vt -0.026089834 0.06536813
vt -0.026089834 0.06536813
vt -0.026089834 0.06536813
vt -0.028850283 0.07175316
vt -0.028850283 0.07175316
vt -0.028850283 0.07175316
vt -0.028850283 0.07175316
vt -0.03350825 0.0739025
vt -0.03350825 0.0739025
vt -0.05357078 0.037521746
vt -0.05357078 0.037521746
vt -0.055439007 0.04228541
vt -0.055439007 0.04228541
vt -0.055439007 0.04228541
vt -0.055439007 0.04228541
vt -0.053984195 0.050021395
vt -0.053984195 0.050021395
vt -0.053984195 0.050021395
vt -0.053984195 0.050021395
vt -0.051125955 0.054781247
vt -0.051125955 0.054781247
vt -0.051125955 0.054781247
vt -0.051125955 0.054781247
vt -0.049305484 0.059340242
vt -0.049305484 0.059340242
vt -0.049305484 0.059340242
vt -0.049305484 0.059340242
vt -0.04861372 0.06219307
vt -0.04861372 0.06219307
vt -0.04861372 0.06219307
vt -0.04861372 0.06219307
vt -0.047725894 0.06909237
vt -0.047725894 0.06909237
vt -0.047725894 0.06909237
vt -0.047725894 0.06909237
vt -0.043843593 0.07244559
vt -0.043843593 0.07244559
vn -0 1 0
vn -0 1 0
vn -0 1 0
vn -0 1 0
vn -0 1 0
vn -0 1 0
vn -0 1 0
vn -0 1 0
vn -0 1 0
vn -0 1 0
vn -0 1 0
vn -0 1 0
vn -0 1 0
vn -0 1 0
vn -0 1 0
vn -0 1 0
vn 0.92354625 0 -0.38348705
vn 0.92354625 -0 -0.38348705
vn 0.51683 -0 -0.85608804
vn 0.51683 -0 -0.85608804
vn -0.01649123 0 -0.99986404
vn -0.01649123 0 -0.99986404
vn -0.01649123 0 -0.99986404
vn -0.01649123 0 -0.99986404
vn -0.37108478 0 -0.928599
vn -0.37108478 0 -0.928599
vn -0.37108478 0 -0.928599
vn -0.37108478 0 -0.928599
vn -0.62719774 0 -0.77886003
vn -0.62719774 0 -0.77886003
vn -0.62719774 0 -0.77886003
vn -0.62719774 0 -0.77886003
vn -0.9357785 0 -0.3525884
vn -0.9357785 0 -0.3525884
vn -0.9357785 0 -0.3525884
vn -0.9357785 0 -0.3525884
vn -0.9788165 0 -0.20473911
vn -0.9788165 0 -0.20473911
vn -0.9788165 0 -0.20473911
vn -0.9788165 0 -0.20473911
vn -0.8657176 -0 0.50053275
vn -0.8657176 0 0.50053275
vn -0.45664427 -0 0.88964933
vn -0.45664427 0 0.88964933
vn 0.92354625 -0 -0.38348705
vn 0.92354625 -0 -0.38348705
vn 0.9712161 0 0.23820017
vn 0.9712161 0 0.23820017
vn 0.6966005 0 0.71745926
vn 0.6966005 0 0.71745926
vn 0.6966005 0 0.71745926
vn 0.6966005 0 0.71745926
vn 0.40388185 0 0.9148112
vn 0.40388185 0 0.9148112
vn 0.40388185 0 0.9148112
vn 0.40388185 0 0.9148112
vn 0.5451931 0 0.83831054
vn 0.5451931 0 0.83831054
vn 0.5451931 0 0.83831054
vn 0.5451931 0 0.83831054
vn 0.65836364 0 0.7527
vn 0.65836364 0 0.7527
vn 0.65836364 0 0.7527
vn 0.65836364 0 0.7527
vn 0.73695534 0 0.67594135
vn 0.73695534 0 0.67594135
vn 0.73695534 0 0.67594135
vn 0.73695534 0 0.67594135
vn 0.097985305 0 0.9951879
vn 0.097985305 0 0.9951879
vn -0.45664427 0 0.88964933
vn -0.45664427 0 0.88964933
g _0
f 3/3/3 2/2/2 1/1/1
f 2/2/2 3/3/3 4/4/4
f 5/5/5 4/4/4 3/3/3
f 4/4/4 5/5/5 6/6/6
f 7/7/7 6/6/6 5/5/5
f 6/6/6 7/7/7 8/8/8
f 9/9/9 8/8/8 7/7/7
f 8/8/8 9/9/9 10/10/10
f 11/11/11 10/10/10 9/9/9
f 10/10/10 11/11/11 12/12/12
f 13/13/13 12/12/12 11/11/11
f 12/12/12 13/13/13 14/14/14
f 15/15/15 14/14/14 13/13/13
f 14/14/14 15/15/15 16/16/16
g _1
f 17/17/17 18/18/18 19/19/19
f 20/20/20 19/19/19 18/18/18
f 21/21/21 22/22/22 23/23/23
f 24/24/24 23/23/23 22/22/22
f 25/25/25 26/26/26 27/27/27
f 28/28/28 27/27/27 26/26/26
f 29/29/29 30/30/30 31/31/31
f 32/32/32 31/31/31 30/30/30
f 33/33/33 34/34/34 35/35/35
f 36/36/36 35/35/35 34/34/34
f 37/37/37 38/38/38 39/39/39
f 40/40/40 39/39/39 38/38/38
f 41/41/41 42/42/42 43/43/43
f 44/44/44 43/43/43 42/42/42
f 47/47/47 46/46/46 45/45/45
f 46/46/46 47/47/47 48/48/48
f 51/51/51 50/50/50 49/49/49
f 50/50/50 51/51/51 52/52/52
f 55/55/55 54/54/54 53/53/53
f 54/54/54 55/55/55 56/56/56
f 59/59/59 58/58/58 57/57/57
f 58/58/58 59/59/59 60/60/60
f 63/63/63 62/62/62 61/61/61
f 62/62/62 63/63/63 64/64/64
f 67/67/67 66/66/66 65/65/65
f 66/66/66 67/67/67 68/68/68
f 71/71/71 70/70/70 69/69/69
f 70/70/70 71/71/71 72/72/72
f 45/45/45 18/18/18 17/17/17
f 18/18/18 45/45/45 46/46/46
f 43/43/43 44/44/44 71/71/71
f 72/72/72 71/71/71 44/44/44
