g 
v 62.963745 59.277443 9.787701
v 62.963745 45.277443 9.787701
v 66.04047 59.277443 13.970089
v 66.04047 45.277443 13.970089
v 69.36496 59.277443 13.767303
v 69.36496 45.277443 13.767303
v 72.77338 59.277443 16.531845
v 72.77338 45.277443 16.531845
v 69.50445 59.277443 22.208641
v 69.50445 45.277443 22.208641
v 70.73194 59.277443 26.689945
v 70.73194 45.277443 26.689945
v 70.47566 59.277443 32.804897
v 70.47566 45.277443 32.804897
v 67.30963 59.277443 35.315704
v 67.30963 45.277443 35.315704
v 62.931625 59.277443 35.399345
v 62.931625 45.277443 35.399345
v 62.963745 59.277443 9.787701
v 62.963745 45.277443 9.787701
vt -0.65063745 -0.015122995
vt -0.65063745 -0.015122995
vt -0.68140465 0.026700888
vt -0.68140465 0.026700888
vt -0.71464956 0.024673032
vt -0.71464956 0.024673032
vt -0.74873376 0.052318446
vt -0.74873376 0.052318446
vt -0.7160444 0.10908641
vt -0.7160444 0.10908641
vt -0.7283194 0.15389945
vt -0.7283194 0.15389945
vt -0.7257566 0.21504897
vt -0.7257566 0.21504897
vt -0.69409627 0.24015705
vt -0.69409627 0.24015705
vt -0.65031624 0.24099346
vt -0.65031624 0.24099346
vt -0.65063745 -0.015122995
vt -0.65063745 -0.015122995
vn 0.805519 0 -0.5925699
vn 0.805519 -0 -0.5925699
vn -0.06088425 0 -0.9981448
vn -0.06088425 0 -0.9981448
vn 0.62993395 0 -0.77664864
vn 0.62993395 -0 -0.77664864
vn 0.8665914 0 0.49901834
vn 0.8665914 0 0.49901834
vn 0.96447265 0 -0.26418287
vn 0.96447265 -0 -0.26418287
vn 0.999123 0 0.041873462
vn 0.999123 0 0.041873462
vn 0.6213669 0 0.78351974
vn 0.6213669 0 0.78351974
vn 0.019101342 0 0.99981755
vn 0.019101342 0 0.99981755
vn -0.9999992 0 -0.0012541064
vn -0.9999992 0 -0.0012541064
vn -0.9999992 0 -0.0012541064
vn -0.9999992 0 -0.0012541064
g _0
f 3/3/3 2/2/2 1/1/1
f 2/2/2 3/3/3 4/4/4
f 5/5/5 4/4/4 3/3/3
f 4/4/4 5/5/5 6/6/6
f 7/7/7 6/6/6 5/5/5
f 6/6/6 7/7/7 8/8/8
f 9/9/9 8/8/8 7/7/7
f 8/8/8 9/9/9 10/10/10
f 11/11/11 10/10/10 9/9/9
f 10/10/10 11/11/11 12/12/12
f 13/13/13 12/12/12 11/11/11
f 12/12/12 13/13/13 14/14/14
f 15/15/15 14/14/14 13/13/13
f 14/14/14 15/15/15 16/16/16
f 17/17/17 16/16/16 15/15/15
f 16/16/16 17/17/17 18/18/18
f 19/19/19 18/18/18 17/17/17
f 18/18/18 19/19/19 20/20/20
