g 
v 49.63 42.60459 80.2
v 49.63 24.275414 80.2
v 50.5 43.159603 77.65
v 50.5 22.240398 77.65
v 50.41 43.159603 72.61
v 50.41 22.240398 72.61
v 49.37 43.159603 71.88
v 49.37 22.240398 71.88
v 48.34 43.159603 74.17
v 48.34 22.240398 74.17
v 48.41 43.159603 77.43
v 48.41 22.240398 77.43
v 49.63 42.60459 80.2
v 49.63 24.275414 80.2
vt -0.4963 0.8019999
vt -0.4963 0.8019999
vt -0.505 0.7765
vt -0.505 0.7765
vt -0.50409997 0.72609997
vt -0.50409997 0.72609997
vt -0.49369997 0.71879995
vt -0.49369997 0.71879995
vt -0.4834 0.7417
vt -0.4834 0.7417
vt -0.48409998 0.7743
vt -0.48409998 0.7743
vt -0.4963 0.8019999
vt -0.4963 0.8019999
vn 0.9464328 0 0.3229008
vn 0.9464328 0 0.3229008
vn 0.9998406 0 -0.017854324
vn 0.9998406 -0 -0.017854324
vn 0.57451963 0 -0.81849074
vn 0.57451963 -0 -0.81849074
vn -0.91199625 0 -0.41019854
vn -0.91199625 0 -0.41019854
vn -0.99976957 -0 0.021467337
vn -0.99976957 0 0.021467337
vn -0.91516846 -0 0.4030715
vn -0.91516846 0 0.4030715
vn -0.91516846 0 0.4030715
vn -0.91516846 0 0.4030715
g _0
f 1/1/1 2/2/2 3/3/3
f 4/4/4 3/3/3 2/2/2
f 3/3/3 4/4/4 5/5/5
f 6/6/6 5/5/5 4/4/4
f 5/5/5 6/6/6 7/7/7
f 8/8/8 7/7/7 6/6/6
f 7/7/7 8/8/8 9/9/9
f 10/10/10 9/9/9 8/8/8
f 9/9/9 10/10/10 11/11/11
f 12/12/12 11/11/11 10/10/10
f 11/11/11 12/12/12 13/13/13
f 14/14/14 13/13/13 12/12/12
