g 
v 35.706535 18.6 -57.202217
v 33.02639 18.6 -54.31533
v 35.983818 18.6 -59.0202
v 31.233992 18.6 -53.903957
v 34.720886 18.6 -61.327755
v 28.839113 18.6 -54.992245
v 28.866087 22.225 -66.2857
v 23.460543 22.225 -60.46316
v 26.885294 23.1 -68.00936
v 21.594706 23.1 -62.310642
v 24.731129 23.1 -68.988266
v 20.458714 23.1 -64.38626
v 23.118889 23.1 -68.61824
v 20.708126 23.1 -66.021515
v 35.706535 18.6 -57.202217
v 35.706535 -11.4 -57.202217
v 35.983818 18.6 -59.0202
v 35.983818 -11.4 -59.0202
v 35.983818 18.6 -59.0202
v 35.983818 -11.4 -59.0202
v 34.720886 18.6 -61.327755
v 34.720886 -11.4 -61.327755
v 34.720886 18.6 -61.327755
v 34.720886 -11.4 -61.327755
v 28.866087 22.225 -66.2857
v 28.866087 -7.7749996 -66.2857
v 28.866087 22.225 -66.2857
v 28.866087 -7.7749996 -66.2857
v 26.885294 23.1 -68.00936
v 26.885294 -6.8999996 -68.00936
v 26.885294 23.1 -68.00936
v 26.885294 -6.8999996 -68.00936
v 24.731129 23.1 -68.988266
v 24.731129 -6.8999996 -68.988266
v 24.731129 23.1 -68.988266
v 24.731129 -6.8999996 -68.988266
v 23.118889 23.1 -68.61824
v 23.118889 -6.8999996 -68.61824
v 33.02639 18.6 -54.31533
v 33.02639 -11.4 -54.31533
v 31.233992 18.6 -53.903957
v 31.233992 -11.4 -53.903957
v 31.233992 18.6 -53.903957
v 31.233992 -11.4 -53.903957
v 28.839113 18.6 -54.992245
v 28.839113 -11.4 -54.992245
v 28.839113 18.6 -54.992245
v 28.839113 -11.4 -54.992245
v 23.460543 22.225 -60.46316
v 23.460543 -7.7749996 -60.46316
v 23.460543 22.225 -60.46316
v 23.460543 -7.7749996 -60.46316
v 21.594706 23.1 -62.310642
v 21.594706 -6.8999996 -62.310642
v 21.594706 23.1 -62.310642
v 21.594706 -6.8999996 -62.310642
v 20.458714 23.1 -64.38626
v 20.458714 -6.8999996 -64.38626
v 20.458714 23.1 -64.38626
v 20.458714 -6.8999996 -64.38626
v 20.708126 23.1 -66.021515
v 20.708126 -6.8999996 -66.021515
vt -0.04581406 0.0770392
vt -0.041885603 0.076748475
vt -0.047407188 0.07612056
vt -0.040445052 0.07560535
vt -0.048420943 0.07369319
vt -0.039799638 0.0730552
vt -0.048637524 0.06602424
vt -0.040714268 0.06543789
vt -0.048746962 0.06340077
vt -0.040992193 0.0628269
vt -0.048166424 0.061106935
vt -0.041904055 0.060643513
vt -0.046870664 0.06007871
vt -0.04333706 0.05981721
vt -0.04581406 0.0770392
vt -0.04581406 0.0770392
vt -0.047407188 0.07612056
vt -0.047407188 0.07612056
vt -0.047407188 0.07612056
vt -0.047407188 0.07612056
vt -0.048420943 0.07369319
vt -0.048420943 0.07369319
vt -0.048420943 0.07369319
vt -0.048420943 0.07369319
vt -0.048637524 0.06602424
vt -0.048637524 0.06602424
vt -0.048637524 0.06602424
vt -0.048637524 0.06602424
vt -0.048746962 0.06340077
vt -0.048746962 0.06340077
vt -0.048746962 0.06340077
vt -0.048746962 0.06340077
vt -0.048166424 0.061106935
vt -0.048166424 0.061106935
vt -0.048166424 0.061106935
vt -0.048166424 0.061106935
vt -0.046870664 0.06007871
vt -0.046870664 0.06007871
vt -0.041885603 0.076748475
vt -0.041885603 0.076748475
vt -0.040445052 0.07560535
vt -0.040445052 0.07560535
vt -0.040445052 0.07560535
vt -0.040445052 0.07560535
vt -0.039799638 0.0730552
vt -0.039799638 0.0730552
vt -0.039799638 0.0730552
vt -0.039799638 0.0730552
vt -0.040714268 0.06543789
vt -0.040714268 0.06543789
vt -0.040714268 0.06543789
vt -0.040714268 0.06543789
vt -0.040992193 0.0628269
vt -0.040992193 0.0628269
vt -0.040992193 0.0628269
vt -0.040992193 0.0628269
vt -0.041904055 0.060643513
vt -0.041904055 0.060643513
vt -0.041904055 0.060643513
vt -0.041904055 0.060643513
vt -0.04333706 0.05981721
vt -0.04333706 0.05981721
vn -0 1 0
vn -0 1 0
vn -0 1 0
vn -0 1 0
vn -0 1 0
vn -0 1 0
vn -0 1 0
vn -0 1 0
vn -0 1 0
vn -0 1 0
vn -0 1 0
vn -0 1 0
vn -0 1 0
vn -0 1 0
vn 0.7328612 0 0.68037814
vn 0.7328612 0 0.68037814
vn 0.9885676 0 0.15077858
vn 0.9885676 0 0.15077858
vn 0.8772131 0 -0.48010114
vn 0.8772131 -0 -0.48010114
vn 0.8772131 -0 -0.48010114
vn 0.8772131 -0 -0.48010114
vn 0.646237 0 -0.76313674
vn 0.646237 -0 -0.76313674
vn 0.646237 -0 -0.76313674
vn 0.646237 -0 -0.76313674
vn 0.6564464 0 -0.75437266
vn 0.6564464 -0 -0.75437266
vn 0.6564464 -0 -0.75437266
vn 0.6564464 -0 -0.75437266
vn 0.41371143 0 -0.910408
vn 0.41371143 -0 -0.910408
vn 0.41371143 -0 -0.910408
vn 0.41371143 -0 -0.910408
vn -0.22369435 0 -0.9746593
vn -0.22369435 0 -0.9746593
vn -0.7328614 0 -0.680378
vn -0.7328614 0 -0.680378
vn 0.7328612 0 0.68037814
vn 0.7328612 0 0.68037814
vn 0.22369397 0 0.97465944
vn 0.22369397 0 0.97465944
vn -0.41371042 -0 0.91040856
vn -0.41371042 0 0.91040856
vn -0.41371042 0 0.91040856
vn -0.41371042 0 0.91040856
vn -0.71309954 -0 0.7010628
vn -0.71309954 0 0.7010628
vn -0.71309954 0 0.7010628
vn -0.71309954 0 0.7010628
vn -0.7036027 -0 0.7105936
vn -0.7036027 0 0.7105936
vn -0.7036027 0 0.7105936
vn -0.7036027 0 0.7105936
vn -0.87721306 -0 0.48010123
vn -0.87721306 0 0.48010123
vn -0.87721306 0 0.48010123
vn -0.87721306 0 0.48010123
vn -0.9885676 0 -0.15077852
vn -0.9885676 0 -0.15077852
vn -0.7328614 0 -0.680378
vn -0.7328614 0 -0.680378
g _0
f 3/3/3 2/2/2 1/1/1
f 2/2/2 3/3/3 4/4/4
f 5/5/5 4/4/4 3/3/3
f 4/4/4 5/5/5 6/6/6
f 7/7/7 6/6/6 5/5/5
f 6/6/6 7/7/7 8/8/8
f 9/9/9 8/8/8 7/7/7
f 8/8/8 9/9/9 10/10/10
f 11/11/11 10/10/10 9/9/9
f 10/10/10 11/11/11 12/12/12
f 13/13/13 12/12/12 11/11/11
f 12/12/12 13/13/13 14/14/14
g _1
f 15/15/15 16/16/16 17/17/17
f 18/18/18 17/17/17 16/16/16
f 19/19/19 20/20/20 21/21/21
f 22/22/22 21/21/21 20/20/20
f 23/23/23 24/24/24 25/25/25
f 26/26/26 25/25/25 24/24/24
f 27/27/27 28/28/28 29/29/29
f 30/30/30 29/29/29 28/28/28
f 31/31/31 32/32/32 33/33/33
f 34/34/34 33/33/33 32/32/32
f 35/35/35 36/36/36 37/37/37
f 38/38/38 37/37/37 36/36/36
f 41/41/41 40/40/40 39/39/39
f 40/40/40 41/41/41 42/42/42
f 45/45/45 44/44/44 43/43/43
f 44/44/44 45/45/45 46/46/46
f 49/49/49 48/48/48 47/47/47
f 48/48/48 49/49/49 50/50/50
f 53/53/53 52/52/52 51/51/51
f 52/52/52 53/53/53 54/54/54
f 57/57/57 56/56/56 55/55/55
f 56/56/56 57/57/57 58/58/58
f 61/61/61 60/60/60 59/59/59
f 60/60/60 61/61/61 62/62/62
f 39/39/39 16/16/16 15/15/15
f 16/16/16 39/39/39 40/40/40
f 37/37/37 38/38/38 61/61/61
f 62/62/62 61/61/61 38/38/38
