g 
v 63.387558 108.41657 -129.59369
v 63.387558 94.41657 -129.59369
v 65.3376 108.41657 -130.80035
v 65.3376 94.41657 -130.80035
v 67.63629 108.41657 -129.40683
v 67.63629 94.41657 -129.40683
v 66.50313 108.41657 -126.63333
v 66.50313 94.41657 -126.63333
v 64.16072 108.41657 -127.32564
v 64.16072 94.41657 -127.32564
v 63.387558 108.41657 -129.59369
v 63.387558 94.41657 -129.59369
vt 0.19367942 -0.80838084
vt 0.19367942 -0.80838084
vt 0.174179 -0.8204475
vt 0.174179 -0.8204475
vt 0.15119208 -0.8065123
vt 0.15119208 -0.8065123
vt 0.16252372 -0.7787773
vt 0.16252372 -0.7787773
vt 0.18594779 -0.7857004
vt 0.18594779 -0.7857004
vt 0.19367942 -0.80838084
vt 0.19367942 -0.80838084
vn -0.52619565 0 -0.8503636
vn -0.52619565 0 -0.8503636
vn 0.5184046 0 -0.85513544
vn 0.5184046 -0 -0.85513544
vn 0.9257164 0 0.37821832
vn 0.9257164 0 0.37821832
vn -0.28343335 -0 0.9589919
vn -0.28343335 0 0.9589919
vn -0.94651484 -0 0.32266033
vn -0.94651484 0 0.32266033
vn -0.94651484 0 0.32266033
vn -0.94651484 0 0.32266033
g _0
f 3/3/3 2/2/2 1/1/1
f 2/2/2 3/3/3 4/4/4
f 5/5/5 4/4/4 3/3/3
f 4/4/4 5/5/5 6/6/6
f 7/7/7 6/6/6 5/5/5
f 6/6/6 7/7/7 8/8/8
f 9/9/9 8/8/8 7/7/7
f 8/8/8 9/9/9 10/10/10
f 11/11/11 10/10/10 9/9/9
f 10/10/10 11/11/11 12/12/12
