g 
v 19.032644 16.4 -47.040436
v 4.9076414 16.4 -56.44948
v 26.95557 16.4 -47.114048
v 1.9228144 16.4 -63.789024
v 35.8992 16.4 -54.075577
v 4.9008007 16.4 -74.72443
v 40.42718 17.144974 -60.87911
v 9.826189 17.144974 -82.11246
v 44.61841 18 -66.84018
v 16.581593 18 -91.35982
v 50.645203 18.074074 -72.5386
v 24.939583 18.074074 -99.418015
v 58.254658 18.148148 -79.86685
v 31.714909 18.148148 -105.846375
v 65.282486 18.279366 -87.60187
v 37.859653 18.279366 -112.50633
v 73.18228 18.416931 -96.63617
v 42.99774 18.416931 -117.93794
v 79.24949 18.506666 -107.634895
v 46.343075 18.506666 -124.285484
v 84.08182 18.584444 -118.0022
v 50.016937 18.584444 -131.98454
v 87.78441 18.6 -128.46397
v 52.910873 18.6 -140.25081
v 90.91751 18.6 -138.13301
v 55.896862 18.6 -149.47527
v 93.977066 18.6 -147.57974
v 58.95641 18.6 -158.922
v 97.34495 18.6 -158.08585
v 61.70762 18.6 -167.30939
v 99.553604 18.6 -169.19867
v 63.327534 18.6 -175.73816
v 101.228065 18.6 -179.31944
v 64.909004 18.6 -185.321
v 102.85603 18.6 -189.17125
v 66.53697 18.6 -195.1728
v 104.53484 18.6 -199.34886
v 68.1141 18.6 -204.6988
v 105.843445 18.6 -209.5211
v 69.31032 18.6 -214.0403
v 107.012184 18.6 -219.33836
v 70.458626 18.6 -223.68929
v 108.1707 18.6 -229.07147
v 71.61714 18.6 -233.4224
v 109.32922 18.6 -238.8046
v 72.775665 18.6 -243.15552
v 109.67678 18.6 -241.72453
v 73.12322 18.6 -246.07545
v 107.41541 18.6 -252.69531
v 77.8966 18.6 -256.2089
v 101.50442 18.6 -257.8316
v 84.84811 18.6 -259.8142
v 19.032644 16.4 -47.040436
v 19.032644 -13.6 -47.040436
v 26.95557 16.4 -47.114048
v 26.95557 -13.6 -47.114048
v 26.95557 16.4 -47.114048
v 26.95557 -13.6 -47.114048
v 35.8992 16.4 -54.075577
v 35.8992 -13.6 -54.075577
v 35.8992 16.4 -54.075577
v 35.8992 -13.6 -54.075577
v 40.42718 17.144974 -60.87911
v 40.42718 -12.855026 -60.87911
v 40.42718 17.144974 -60.87911
v 40.42718 -12.855026 -60.87911
v 44.61841 18 -66.84018
v 44.61841 -12 -66.84018
v 44.61841 18 -66.84018
v 44.61841 -12 -66.84018
v 50.645203 18.074074 -72.5386
v 50.645203 -11.925926 -72.5386
v 50.645203 18.074074 -72.5386
v 50.645203 -11.925926 -72.5386
v 58.254658 18.148148 -79.86685
v 58.254658 -11.851852 -79.86685
v 58.254658 18.148148 -79.86685
v 58.254658 -11.851852 -79.86685
v 65.282486 18.279366 -87.60187
v 65.282486 -11.720634 -87.60187
v 65.282486 18.279366 -87.60187
v 65.282486 -11.720634 -87.60187
v 73.18228 18.416931 -96.63617
v 73.18228 -11.583069 -96.63617
v 73.18228 18.416931 -96.63617
v 73.18228 -11.583069 -96.63617
v 79.24949 18.506666 -107.634895
v 79.24949 -11.493334 -107.634895
v 79.24949 18.506666 -107.634895
v 79.24949 -11.493334 -107.634895
v 84.08182 18.584444 -118.0022
v 84.08182 -11.415556 -118.0022
v 84.08182 18.584444 -118.0022
v 84.08182 -11.415556 -118.0022
v 87.78441 18.6 -128.46397
v 87.78441 -11.4 -128.46397
v 87.78441 18.6 -128.46397
v 87.78441 -11.4 -128.46397
v 90.91751 18.6 -138.13301
v 90.91751 -11.4 -138.13301
v 90.91751 18.6 -138.13301
v 90.91751 -11.4 -138.13301
v 93.977066 18.6 -147.57974
v 93.977066 -11.4 -147.57974
v 93.977066 18.6 -147.57974
v 93.977066 -11.4 -147.57974
v 97.34495 18.6 -158.08585
v 97.34495 -11.4 -158.08585
v 97.34495 18.6 -158.08585
v 97.34495 -11.4 -158.08585
v 99.553604 18.6 -169.19867
v 99.553604 -11.4 -169.19867
v 99.553604 18.6 -169.19867
v 99.553604 -11.4 -169.19867
v 101.228065 18.6 -179.31944
v 101.228065 -11.4 -179.31944
v 101.228065 18.6 -179.31944
v 101.228065 -11.4 -179.31944
v 102.85603 18.6 -189.17125
v 102.85603 -11.4 -189.17125
v 102.85603 18.6 -189.17125
v 102.85603 -11.4 -189.17125
v 104.53484 18.6 -199.34886
v 104.53484 -11.4 -199.34886
v 104.53484 18.6 -199.34886
v 104.53484 -11.4 -199.34886
v 105.843445 18.6 -209.5211
v 105.843445 -11.4 -209.5211
v 105.843445 18.6 -209.5211
v 105.843445 -11.4 -209.5211
v 107.012184 18.6 -219.33836
v 107.012184 -11.4 -219.33836
v 107.012184 18.6 -219.33836
v 107.012184 -11.4 -219.33836
v 108.1707 18.6 -229.07147
v 108.1707 -11.4 -229.07147
v 108.1707 18.6 -229.07147
v 108.1707 -11.4 -229.07147
v 109.32922 18.6 -238.8046
v 109.32922 -11.4 -238.8046
v 109.32922 18.6 -238.8046
v 109.32922 -11.4 -238.8046
v 109.67678 18.6 -241.72453
v 109.67678 -11.4 -241.72453
v 109.67678 18.6 -241.72453
v 109.67678 -11.4 -241.72453
v 107.41541 18.6 -252.69531
v 107.41541 -11.4 -252.69531
v 107.41541 18.6 -252.69531
v 107.41541 -11.4 -252.69531
v 101.50442 18.6 -257.8316
v 101.50442 -11.4 -257.8316
v 4.9076414 16.4 -56.44948
v 4.9076414 -13.6 -56.44948
v 1.9228144 16.4 -63.789024
v 1.9228144 -13.6 -63.789024
v 1.9228144 16.4 -63.789024
v 1.9228144 -13.6 -63.789024
v 4.9008007 16.4 -74.72443
v 4.9008007 -13.6 -74.72443
v 4.9008007 16.4 -74.72443
v 4.9008007 -13.6 -74.72443
v 9.826189 17.144974 -82.11246
v 9.826189 -12.855026 -82.11246
v 9.826189 17.144974 -82.11246
v 9.826189 -12.855026 -82.11246
v 16.581593 18 -91.35982
v 16.581593 -12 -91.35982
v 16.581593 18 -91.35982
v 16.581593 -12 -91.35982
v 24.939583 18.074074 -99.418015
v 24.939583 -11.925926 -99.418015
v 24.939583 18.074074 -99.418015
v 24.939583 -11.925926 -99.418015
v 31.714909 18.148148 -105.846375
v 31.714909 -11.851852 -105.846375
v 31.714909 18.148148 -105.846375
v 31.714909 -11.851852 -105.846375
v 37.859653 18.279366 -112.50633
v 37.859653 -11.720634 -112.50633
v 37.859653 18.279366 -112.50633
v 37.859653 -11.720634 -112.50633
v 42.99774 18.416931 -117.93794
v 42.99774 -11.583069 -117.93794
v 42.99774 18.416931 -117.93794
v 42.99774 -11.583069 -117.93794
v 46.343075 18.506666 -124.285484
v 46.343075 -11.493334 -124.285484
v 46.343075 18.506666 -124.285484
v 46.343075 -11.493334 -124.285484
v 50.016937 18.584444 -131.98454
v 50.016937 -11.415556 -131.98454
v 50.016937 18.584444 -131.98454
v 50.016937 -11.415556 -131.98454
v 52.910873 18.6 -140.25081
v 52.910873 -11.4 -140.25081
v 52.910873 18.6 -140.25081
v 52.910873 -11.4 -140.25081
v 55.896862 18.6 -149.47527
v 55.896862 -11.4 -149.47527
v 55.896862 18.6 -149.47527
v 55.896862 -11.4 -149.47527
v 58.95641 18.6 -158.922
v 58.95641 -11.4 -158.922
v 58.95641 18.6 -158.922
v 58.95641 -11.4 -158.922
v 61.70762 18.6 -167.30939
v 61.70762 -11.4 -167.30939
v 61.70762 18.6 -167.30939
v 61.70762 -11.4 -167.30939
v 63.327534 18.6 -175.73816
v 63.327534 -11.4 -175.73816
v 63.327534 18.6 -175.73816
v 63.327534 -11.4 -175.73816
v 64.909004 18.6 -185.321
v 64.909004 -11.4 -185.321
v 64.909004 18.6 -185.321
v 64.909004 -11.4 -185.321
v 66.53697 18.6 -195.1728
v 66.53697 -11.4 -195.1728
v 66.53697 18.6 -195.1728
v 66.53697 -11.4 -195.1728
v 68.1141 18.6 -204.6988
v 68.1141 -11.4 -204.6988
v 68.1141 18.6 -204.6988
v 68.1141 -11.4 -204.6988
v 69.31032 18.6 -214.0403
v 69.31032 -11.4 -214.0403
v 69.31032 18.6 -214.0403
v 69.31032 -11.4 -214.0403
v 70.458626 18.6 -223.68929
v 70.458626 -11.4 -223.68929
v 70.458626 18.6 -223.68929
v 70.458626 -11.4 -223.68929
v 71.61714 18.6 -233.4224
v 71.61714 -11.4 -233.4224
v 71.61714 18.6 -233.4224
v 71.61714 -11.4 -233.4224
v 72.775665 18.6 -243.15552
v 72.775665 -11.4 -243.15552
v 72.775665 18.6 -243.15552
v 72.775665 -11.4 -243.15552
v 73.12322 18.6 -246.07545
v 73.12322 -11.4 -246.07545
v 73.12322 18.6 -246.07545
v 73.12322 -11.4 -246.07545
v 77.8966 18.6 -256.2089
v 77.8966 -11.4 -256.2089
v 77.8966 18.6 -256.2089
v 77.8966 -11.4 -256.2089
v 84.84811 18.6 -259.8142
v 84.84811 -11.4 -259.8142
vt -0.0101503385 -0.045744475
vt -0.012805035 -0.028981466
vt -0.004726492 -0.05152029
vt -0.009431234 -0.02181239
vt 0.0064538005 -0.053378385
vt 0.000627855 -0.01659069
vt 0.014525236 -0.052096743
vt 0.009398412 -0.015205118
vt 0.021748979 -0.051138457
vt 0.020776412 -0.013905003
vt 0.03002364 -0.05170787
vt 0.032366168 -0.014589214
vt 0.040569354 -0.052336406
vt 0.041684866 -0.015214308
vt 0.051019963 -0.052261584
vt 0.050746486 -0.015218776
vt 0.06301691 -0.051947337
vt 0.058222648 -0.015315555
vt 0.07521626 -0.048954215
vt 0.06515726 -0.013473359
vt 0.0861144 -0.04548103
vt 0.0733083 -0.0109567465
vt 0.09631634 -0.041113127
vt 0.081347816 -0.007482235
vt 0.105549395 -0.03686375
vt 0.09015427 -0.0034259998
vt 0.11456915 -0.032710966
vt 0.09917402 0.0007267928
vt 0.12457683 -0.028066905
vt 0.10720587 0.004388343
vt 0.13424496 -0.022159271
vt 0.11450142 0.008909777
vt 0.1428216 -0.0165312
vt 0.12261949 0.014241643
vt 0.15116896 -0.011051232
vt 0.13096684 0.01972161
vt 0.15979034 -0.005387836
vt 0.13904019 0.02501815
vt 0.16815686 0.0005441333
vt 0.1467197 0.030469717
vt 0.17616758 0.006338357
vt 0.15459283 0.036164913
vt 0.1841095 0.012083064
vt 0.16253474 0.041909624
vt 0.19205141 0.017827777
vt 0.17047666 0.047654334
vt 0.19443399 0.01955119
vt 0.17285925 0.04937775
vt 0.20096815 0.028649354
vt 0.18354547 0.052735776
vt 0.2007387 0.03647679
vt 0.19090779 0.050067835
vt -0.0101503385 -0.045744475
vt -0.0101503385 -0.045744475
vt -0.004726492 -0.05152029
vt -0.004726492 -0.05152029
vt -0.004726492 -0.05152029
vt -0.004726492 -0.05152029
vt 0.0064538005 -0.053378385
vt 0.0064538005 -0.053378385
vt 0.0064538005 -0.053378385
vt 0.0064538005 -0.053378385
vt 0.014525236 -0.052096743
vt 0.014525236 -0.052096743
vt 0.014525236 -0.052096743
vt 0.014525236 -0.052096743
vt 0.021748979 -0.051138457
vt 0.021748979 -0.051138457
vt 0.021748979 -0.051138457
vt 0.021748979 -0.051138457
vt 0.03002364 -0.05170787
vt 0.03002364 -0.05170787
vt 0.03002364 -0.05170787
vt 0.03002364 -0.05170787
vt 0.040569354 -0.052336406
vt 0.040569354 -0.052336406
vt 0.040569354 -0.052336406
vt 0.040569354 -0.052336406
vt 0.051019963 -0.052261584
vt 0.051019963 -0.052261584
vt 0.051019963 -0.052261584
vt 0.051019963 -0.052261584
vt 0.06301691 -0.051947337
vt 0.06301691 -0.051947337
vt 0.06301691 -0.051947337
vt 0.06301691 -0.051947337
vt 0.07521626 -0.048954215
vt 0.07521626 -0.048954215
vt 0.07521626 -0.048954215
vt 0.07521626 -0.048954215
vt 0.0861144 -0.04548103
vt 0.0861144 -0.04548103
vt 0.0861144 -0.04548103
vt 0.0861144 -0.04548103
vt 0.09631634 -0.041113127
vt 0.09631634 -0.041113127
vt 0.09631634 -0.041113127
vt 0.09631634 -0.041113127
vt 0.105549395 -0.03686375
vt 0.105549395 -0.03686375
vt 0.105549395 -0.03686375
vt 0.105549395 -0.03686375
vt 0.11456915 -0.032710966
vt 0.11456915 -0.032710966
vt 0.11456915 -0.032710966
vt 0.11456915 -0.032710966
vt 0.12457683 -0.028066905
vt 0.12457683 -0.028066905
vt 0.12457683 -0.028066905
vt 0.12457683 -0.028066905
vt 0.13424496 -0.022159271
vt 0.13424496 -0.022159271
vt 0.13424496 -0.022159271
vt 0.13424496 -0.022159271
vt 0.1428216 -0.0165312
vt 0.1428216 -0.0165312
vt 0.1428216 -0.0165312
vt 0.1428216 -0.0165312
vt 0.15116896 -0.011051232
vt 0.15116896 -0.011051232
vt 0.15116896 -0.011051232
vt 0.15116896 -0.011051232
vt 0.15979034 -0.005387836
vt 0.15979034 -0.005387836
vt 0.15979034 -0.005387836
vt 0.15979034 -0.005387836
vt 0.16815686 0.0005441333
vt 0.16815686 0.0005441333
vt 0.16815686 0.0005441333
vt 0.16815686 0.0005441333
vt 0.17616758 0.006338357
vt 0.17616758 0.006338357
vt 0.17616758 0.006338357
vt 0.17616758 0.006338357
vt 0.1841095 0.012083064
vt 0.1841095 0.012083064
vt 0.1841095 0.012083064
vt 0.1841095 0.012083064
vt 0.19205141 0.017827777
vt 0.19205141 0.017827777
vt 0.19205141 0.017827777
vt 0.19205141 0.017827777
vt 0.19443399 0.01955119
vt 0.19443399 0.01955119
vt 0.19443399 0.01955119
vt 0.19443399 0.01955119
vt 0.20096815 0.028649354
vt 0.20096815 0.028649354
vt 0.20096815 0.028649354
vt 0.20096815 0.028649354
vt 0.2007387 0.03647679
vt 0.2007387 0.03647679
vt -0.012805035 -0.028981466
vt -0.012805035 -0.028981466
vt -0.009431234 -0.02181239
vt -0.009431234 -0.02181239
vt -0.009431234 -0.02181239
vt -0.009431234 -0.02181239
vt 0.000627855 -0.01659069
vt 0.000627855 -0.01659069
vt 0.000627855 -0.01659069
vt 0.000627855 -0.01659069
vt 0.009398412 -0.015205118
vt 0.009398412 -0.015205118
vt 0.009398412 -0.015205118
vt 0.009398412 -0.015205118
vt 0.020776412 -0.013905003
vt 0.020776412 -0.013905003
vt 0.020776412 -0.013905003
vt 0.020776412 -0.013905003
vt 0.032366168 -0.014589214
vt 0.032366168 -0.014589214
vt 0.032366168 -0.014589214
vt 0.032366168 -0.014589214
vt 0.041684866 -0.015214308
vt 0.041684866 -0.015214308
vt 0.041684866 -0.015214308
vt 0.041684866 -0.015214308
vt 0.050746486 -0.015218776
vt 0.050746486 -0.015218776
vt 0.050746486 -0.015218776
vt 0.050746486 -0.015218776
vt 0.058222648 -0.015315555
vt 0.058222648 -0.015315555
vt 0.058222648 -0.015315555
vt 0.058222648 -0.015315555
vt 0.06515726 -0.013473359
vt 0.06515726 -0.013473359
vt 0.06515726 -0.013473359
vt 0.06515726 -0.013473359
vt 0.0733083 -0.0109567465
vt 0.0733083 -0.0109567465
vt 0.0733083 -0.0109567465
vt 0.0733083 -0.0109567465
vt 0.081347816 -0.007482235
vt 0.081347816 -0.007482235
vt 0.081347816 -0.007482235
vt 0.081347816 -0.007482235
vt 0.09015427 -0.0034259998
vt 0.09015427 -0.0034259998
vt 0.09015427 -0.0034259998
vt 0.09015427 -0.0034259998
vt 0.09917402 0.0007267928
vt 0.09917402 0.0007267928
vt 0.09917402 0.0007267928
vt 0.09917402 0.0007267928
vt 0.10720587 0.004388343
vt 0.10720587 0.004388343
vt 0.10720587 0.004388343
vt 0.10720587 0.004388343
vt 0.11450142 0.008909777
vt 0.11450142 0.008909777
vt 0.11450142 0.008909777
vt 0.11450142 0.008909777
vt 0.12261949 0.014241643
vt 0.12261949 0.014241643
vt 0.12261949 0.014241643
vt 0.12261949 0.014241643
vt 0.13096684 0.01972161
vt 0.13096684 0.01972161
vt 0.13096684 0.01972161
vt 0.13096684 0.01972161
vt 0.13904019 0.02501815
vt 0.13904019 0.02501815
vt 0.13904019 0.02501815
vt 0.13904019 0.02501815
vt 0.1467197 0.030469717
vt 0.1467197 0.030469717
vt 0.1467197 0.030469717
vt 0.1467197 0.030469717
vt 0.15459283 0.036164913
vt 0.15459283 0.036164913
vt 0.15459283 0.036164913
vt 0.15459283 0.036164913
vt 0.16253474 0.041909624
vt 0.16253474 0.041909624
vt 0.16253474 0.041909624
vt 0.16253474 0.041909624
vt 0.17047666 0.047654334
vt 0.17047666 0.047654334
vt 0.17047666 0.047654334
vt 0.17047666 0.047654334
vt 0.17285925 0.04937775
vt 0.17285925 0.04937775
vt 0.17285925 0.04937775
vt 0.17285925 0.04937775
vt 0.18354547 0.052735776
vt 0.18354547 0.052735776
vt 0.18354547 0.052735776
vt 0.18354547 0.052735776
vt 0.19090779 0.050067835
vt 0.19090779 0.050067835
vn -0 1 0
vn -0 1 0
vn -0 1 0
vn -0 1 0
vn -0 1 0
vn -0 1 0
vn -0 1 0
vn -0 1 0
vn -0 1 0
vn -0 1 0
vn -0 1 0
vn -0 1 0
vn -0 1 0
vn -0 1 0
vn -0 1 0
vn -0 1 0
vn -0 1 0
vn -0 1 0
vn -0 1 0
vn -0 1 0
vn -0 1 0
vn -0 1 0
vn -0 1 0
vn -0 1 0
vn -0 1 0
vn -0 1 0
vn -0 1 0
vn -0 1 0
vn -0 1 0
vn -0 1 0
vn -0 1 0
vn -0 1 0
vn -0 1 0
vn -0 1 0
vn -0 1 0
vn -0 1 0
vn -0 1 0
vn -0 1 0
vn -0 1 0
vn -0 1 0
vn -0 1 0
vn -0 1 0
vn -0 1 0
vn -0 1 0
vn -0 1 0
vn -0 1 0
vn -0 1 0
vn -0 1 0
vn -0 1 0
vn -0 1 0
vn -0 1 0
vn -0 1 0
vn -0.55438906 -0 0.8322576
vn -0.55438906 0 0.8322576
vn 0.009290638 0 0.99995685
vn 0.009290638 0 0.99995685
vn 0.61423594 0 0.7891225
vn 0.61423594 0 0.7891225
vn 0.61423594 0 0.7891225
vn 0.61423594 0 0.7891225
vn 0.8324853 0 0.5540471
vn 0.8324853 0 0.5540471
vn 0.8324853 0 0.5540471
vn 0.8324853 0 0.5540471
vn 0.8180389 0 0.5751629
vn 0.8180389 0 0.5751629
vn 0.8180389 0 0.5751629
vn 0.8180389 0 0.5751629
vn 0.68703413 0 0.72662514
vn 0.68703413 0 0.72662514
vn 0.68703413 0 0.72662514
vn 0.68703413 0 0.72662514
vn 0.69367266 0 0.72029036
vn 0.69367266 0 0.72029036
vn 0.69367266 0 0.72029036
vn 0.69367266 0 0.72029036
vn 0.7401308 0 0.672463
vn 0.7401308 0 0.672463
vn 0.7401308 0 0.672463
vn 0.7401308 0 0.672463
vn 0.7527922 0 0.6582583
vn 0.7527922 0 0.6582583
vn 0.7527922 0 0.6582583
vn 0.7527922 0 0.6582583
vn 0.8756133 0 0.48301294
vn 0.8756133 0 0.48301294
vn 0.8756133 0 0.48301294
vn 0.8756133 0 0.48301294
vn 0.9063755 0 0.42247295
vn 0.9063755 0 0.42247295
vn 0.9063755 0 0.42247295
vn 0.9063755 0 0.42247295
vn 0.9427015 0 0.33363724
vn 0.9427015 0 0.33363724
vn 0.9427015 0 0.33363724
vn 0.9427015 0 0.33363724
vn 0.9513037 0 0.3082553
vn 0.9513037 0 0.3082553
vn 0.9513037 0 0.3082553
vn 0.9513037 0 0.3082553
vn 0.9513483 0 0.30811742
vn 0.9513483 0 0.30811742
vn 0.9513483 0 0.30811742
vn 0.9513483 0 0.30811742
vn 0.952268 0 0.30526313
vn 0.952268 0 0.30526313
vn 0.952268 0 0.30526313
vn 0.952268 0 0.30526313
vn 0.98081607 0 0.19493566
vn 0.98081607 0 0.19493566
vn 0.98081607 0 0.19493566
vn 0.98081607 0 0.19493566
vn 0.9865882 0 0.163229
vn 0.9865882 0 0.163229
vn 0.9865882 0 0.163229
vn 0.9865882 0 0.163229
vn 0.9866203 0 0.16303468
vn 0.9866203 0 0.16303468
vn 0.9866203 0 0.16303468
vn 0.9866203 0 0.16303468
vn 0.98666704 0 0.16275199
vn 0.98666704 0 0.16275199
vn 0.98666704 0 0.16275199
vn 0.98666704 0 0.16275199
vn 0.99182665 0 0.12759289
vn 0.99182665 0 0.12759289
vn 0.99182665 0 0.12759289
vn 0.99182665 0 0.12759289
vn 0.9929881 0 0.11821467
vn 0.9929881 0 0.11821467
vn 0.9929881 0 0.11821467
vn 0.9929881 0 0.11821467
vn 0.99299055 0 0.118194036
vn 0.99299055 0 0.118194036
vn 0.99299055 0 0.118194036
vn 0.99299055 0 0.118194036
vn 0.9929905 0 0.11819462
vn 0.9929905 0 0.11819462
vn 0.9929905 0 0.11819462
vn 0.9929905 0 0.11819462
vn 0.9929905 0 0.11819462
vn 0.9929905 0 0.11819462
vn 0.9929905 0 0.11819462
vn 0.9929905 0 0.11819462
vn 0.97940975 0 -0.20188226
vn 0.97940975 -0 -0.20188226
vn 0.97940975 -0 -0.20188226
vn 0.97940975 -0 -0.20188226
vn 0.6559093 0 -0.7548397
vn 0.6559093 -0 -0.7548397
vn 0.11819589 0 -0.9929903
vn 0.11819589 -0 -0.9929903
vn -0.55438906 0 0.8322576
vn -0.55438906 0 0.8322576
vn -0.9263285 0 0.37671682
vn -0.9263285 0 0.37671682
vn -0.9648622 0 -0.26275635
vn -0.9648622 0 -0.26275635
vn -0.9648622 0 -0.26275635
vn -0.9648622 0 -0.26275635
vn -0.8320485 0 -0.5547029
vn -0.8320485 0 -0.5547029
vn -0.8320485 0 -0.5547029
vn -0.8320485 0 -0.5547029
vn -0.8074861 0 -0.58988667
vn -0.8074861 0 -0.58988667
vn -0.8074861 0 -0.58988667
vn -0.8074861 0 -0.58988667
vn -0.6940778 0 -0.71989995
vn -0.6940778 0 -0.71989995
vn -0.6940778 0 -0.71989995
vn -0.6940778 0 -0.71989995
vn -0.6882879 0 -0.7254377
vn -0.6882879 0 -0.7254377
vn -0.6882879 0 -0.7254377
vn -0.6882879 0 -0.7254377
vn -0.7349634 0 -0.6781068
vn -0.7349634 0 -0.6781068
vn -0.7349634 0 -0.6781068
vn -0.7349634 0 -0.6781068
vn -0.7264632 0 -0.68720543
vn -0.7264632 0 -0.68720543
vn -0.7264632 0 -0.68720543
vn -0.7264632 0 -0.68720543
vn -0.8846584 0 -0.46623987
vn -0.8846584 0 -0.46623987
vn -0.8846584 0 -0.46623987
vn -0.8846584 0 -0.46623987
vn -0.9025124 0 -0.43066388
vn -0.9025124 0 -0.43066388
vn -0.9025124 0 -0.43066388
vn -0.9025124 0 -0.43066388
vn -0.9438319 0 -0.330426
vn -0.9438319 0 -0.330426
vn -0.9438319 0 -0.330426
vn -0.9438319 0 -0.330426
vn -0.951396 0 -0.30797017
vn -0.951396 0 -0.30797017
vn -0.951396 0 -0.30797017
vn -0.951396 0 -0.30797017
vn -0.9513486 0 -0.30811673
vn -0.9513486 0 -0.30811673
vn -0.9513486 0 -0.30811673
vn -0.9513486 0 -0.30811673
vn -0.95018774 0 -0.31167802
vn -0.95018774 0 -0.31167802
vn -0.95018774 0 -0.31167802
vn -0.95018774 0 -0.31167802
vn -0.9820281 0 -0.18873474
vn -0.9820281 0 -0.18873474
vn -0.9820281 0 -0.18873474
vn -0.9820281 0 -0.18873474
vn -0.98665434 0 -0.16282904
vn -0.98665434 0 -0.16282904
vn -0.98665434 0 -0.16282904
vn -0.98665434 0 -0.16282904
vn -0.9866203 0 -0.16303468
vn -0.9866203 0 -0.16303468
vn -0.9866203 0 -0.16303468
vn -0.9866203 0 -0.16303468
vn -0.98657036 0 -0.16333668
vn -0.98657036 0 -0.16333668
vn -0.98657036 0 -0.16333668
vn -0.98657036 0 -0.16333668
vn -0.99190044 0 -0.12701735
vn -0.99190044 0 -0.12701735
vn -0.99190044 0 -0.12701735
vn -0.99190044 0 -0.12701735
vn -0.9929929 0 -0.11817422
vn -0.9929929 0 -0.11817422
vn -0.9929929 0 -0.11817422
vn -0.9929929 0 -0.11817422
vn -0.99299055 0 -0.118194036
vn -0.99299055 0 -0.118194036
vn -0.99299055 0 -0.118194036
vn -0.99299055 0 -0.118194036
vn -0.9929905 0 -0.11819462
vn -0.9929905 0 -0.11819462
vn -0.9929905 0 -0.11819462
vn -0.9929905 0 -0.11819462
vn -0.9929905 0 -0.11819462
vn -0.9929905 0 -0.11819462
vn -0.9929905 0 -0.11819462
vn -0.9929905 0 -0.11819462
vn -0.90465695 0 -0.4261405
vn -0.90465695 0 -0.4261405
vn -0.90465695 0 -0.4261405
vn -0.90465695 0 -0.4261405
vn -0.46040076 0 -0.88771117
vn -0.46040076 0 -0.88771117
vn 0.11819589 -0 -0.9929903
vn 0.11819589 -0 -0.9929903
g _0
f 3/3/3 2/2/2 1/1/1
f 2/2/2 3/3/3 4/4/4
f 5/5/5 4/4/4 3/3/3
f 4/4/4 5/5/5 6/6/6
f 7/7/7 6/6/6 5/5/5
f 6/6/6 7/7/7 8/8/8
f 9/9/9 8/8/8 7/7/7
f 8/8/8 9/9/9 10/10/10
f 11/11/11 10/10/10 9/9/9
f 10/10/10 11/11/11 12/12/12
f 13/13/13 12/12/12 11/11/11
f 12/12/12 13/13/13 14/14/14
f 15/15/15 14/14/14 13/13/13
f 14/14/14 15/15/15 16/16/16
f 17/17/17 16/16/16 15/15/15
f 16/16/16 17/17/17 18/18/18
f 19/19/19 18/18/18 17/17/17
f 18/18/18 19/19/19 20/20/20
f 21/21/21 20/20/20 19/19/19
f 20/20/20 21/21/21 22/22/22
f 23/23/23 22/22/22 21/21/21
f 22/22/22 23/23/23 24/24/24
f 25/25/25 24/24/24 23/23/23
f 24/24/24 25/25/25 26/26/26
f 27/27/27 26/26/26 25/25/25
f 26/26/26 27/27/27 28/28/28
f 29/29/29 28/28/28 27/27/27
f 28/28/28 29/29/29 30/30/30
f 31/31/31 30/30/30 29/29/29
f 30/30/30 31/31/31 32/32/32
f 33/33/33 32/32/32 31/31/31
f 32/32/32 33/33/33 34/34/34
f 35/35/35 34/34/34 33/33/33
f 34/34/34 35/35/35 36/36/36
f 37/37/37 36/36/36 35/35/35
f 36/36/36 37/37/37 38/38/38
f 39/39/39 38/38/38 37/37/37
f 38/38/38 39/39/39 40/40/40
f 41/41/41 40/40/40 39/39/39
f 40/40/40 41/41/41 42/42/42
f 43/43/43 42/42/42 41/41/41
f 42/42/42 43/43/43 44/44/44
f 45/45/45 44/44/44 43/43/43
f 44/44/44 45/45/45 46/46/46
f 47/47/47 46/46/46 45/45/45
f 46/46/46 47/47/47 48/48/48
f 49/49/49 48/48/48 47/47/47
f 48/48/48 49/49/49 50/50/50
f 51/51/51 50/50/50 49/49/49
f 50/50/50 51/51/51 52/52/52
g _1
f 53/53/53 54/54/54 55/55/55
f 56/56/56 55/55/55 54/54/54
f 57/57/57 58/58/58 59/59/59
f 60/60/60 59/59/59 58/58/58
f 61/61/61 62/62/62 63/63/63
f 64/64/64 63/63/63 62/62/62
f 65/65/65 66/66/66 67/67/67
f 68/68/68 67/67/67 66/66/66
f 69/69/69 70/70/70 71/71/71
f 72/72/72 71/71/71 70/70/70
f 73/73/73 74/74/74 75/75/75
f 76/76/76 75/75/75 74/74/74
f 77/77/77 78/78/78 79/79/79
f 80/80/80 79/79/79 78/78/78
f 81/81/81 82/82/82 83/83/83
f 84/84/84 83/83/83 82/82/82
f 85/85/85 86/86/86 87/87/87
f 88/88/88 87/87/87 86/86/86
f 89/89/89 90/90/90 91/91/91
f 92/92/92 91/91/91 90/90/90
f 93/93/93 94/94/94 95/95/95
f 96/96/96 95/95/95 94/94/94
f 97/97/97 98/98/98 99/99/99
f 100/100/100 99/99/99 98/98/98
f 101/101/101 102/102/102 103/103/103
f 104/104/104 103/103/103 102/102/102
f 105/105/105 106/106/106 107/107/107
f 108/108/108 107/107/107 106/106/106
f 109/109/109 110/110/110 111/111/111
f 112/112/112 111/111/111 110/110/110
f 113/113/113 114/114/114 115/115/115
f 116/116/116 115/115/115 114/114/114
f 117/117/117 118/118/118 119/119/119
f 120/120/120 119/119/119 118/118/118
f 121/121/121 122/122/122 123/123/123
f 124/124/124 123/123/123 122/122/122
f 125/125/125 126/126/126 127/127/127
f 128/128/128 127/127/127 126/126/126
f 129/129/129 130/130/130 131/131/131
f 132/132/132 131/131/131 130/130/130
f 133/133/133 134/134/134 135/135/135
f 136/136/136 135/135/135 134/134/134
f 137/137/137 138/138/138 139/139/139
f 140/140/140 139/139/139 138/138/138
f 141/141/141 142/142/142 143/143/143
f 144/144/144 143/143/143 142/142/142
f 145/145/145 146/146/146 147/147/147
f 148/148/148 147/147/147 146/146/146
f 149/149/149 150/150/150 151/151/151
f 152/152/152 151/151/151 150/150/150
f 155/155/155 154/154/154 153/153/153
f 154/154/154 155/155/155 156/156/156
f 159/159/159 158/158/158 157/157/157
f 158/158/158 159/159/159 160/160/160
f 163/163/163 162/162/162 161/161/161
f 162/162/162 163/163/163 164/164/164
f 167/167/167 166/166/166 165/165/165
f 166/166/166 167/167/167 168/168/168
f 171/171/171 170/170/170 169/169/169
f 170/170/170 171/171/171 172/172/172
f 175/175/175 174/174/174 173/173/173
f 174/174/174 175/175/175 176/176/176
f 179/179/179 178/178/178 177/177/177
f 178/178/178 179/179/179 180/180/180
f 183/183/183 182/182/182 181/181/181
f 182/182/182 183/183/183 184/184/184
f 187/187/187 186/186/186 185/185/185
f 186/186/186 187/187/187 188/188/188
f 191/191/191 190/190/190 189/189/189
f 190/190/190 191/191/191 192/192/192
f 195/195/195 194/194/194 193/193/193
f 194/194/194 195/195/195 196/196/196
f 199/199/199 198/198/198 197/197/197
f 198/198/198 199/199/199 200/200/200
f 203/203/203 202/202/202 201/201/201
f 202/202/202 203/203/203 204/204/204
f 207/207/207 206/206/206 205/205/205
f 206/206/206 207/207/207 208/208/208
f 211/211/211 210/210/210 209/209/209
f 210/210/210 211/211/211 212/212/212
f 215/215/215 214/214/214 213/213/213
f 214/214/214 215/215/215 216/216/216
f 219/219/219 218/218/218 217/217/217
f 218/218/218 219/219/219 220/220/220
f 223/223/223 222/222/222 221/221/221
f 222/222/222 223/223/223 224/224/224
f 227/227/227 226/226/226 225/225/225
f 226/226/226 227/227/227 228/228/228
f 231/231/231 230/230/230 229/229/229
f 230/230/230 231/231/231 232/232/232
f 235/235/235 234/234/234 233/233/233
f 234/234/234 235/235/235 236/236/236
f 239/239/239 238/238/238 237/237/237
f 238/238/238 239/239/239 240/240/240
f 243/243/243 242/242/242 241/241/241
f 242/242/242 243/243/243 244/244/244
f 247/247/247 246/246/246 245/245/245
f 246/246/246 247/247/247 248/248/248
f 251/251/251 250/250/250 249/249/249
f 250/250/250 251/251/251 252/252/252
f 153/153/153 54/54/54 53/53/53
f 54/54/54 153/153/153 154/154/154
f 151/151/151 152/152/152 251/251/251
f 252/252/252 251/251/251 152/152/152
