g 
v -8.1830635 25.83 -37.47497
v -17.725018 25.83 -48.02715
v -1.7297516 25.83 -35.90454
v -18.640278 25.83 -54.60544
v 6.9702654 25.83 -39.721214
v -13.970264 25.83 -62.878788
v 13.531274 25.83 -45.654087
v -7.409254 25.83 -68.81166
v 20.839405 25.83 -52.26258
v -0.13736343 25.83 -75.38734
v 28.1286 25.83 -58.89552
v 7.1116247 25.83 -81.98374
v 35.455986 25.83 -65.56817
v 14.317768 25.83 -88.54543
v 42.719578 25.83 -72.31871
v 21.451733 25.83 -95.176056
v 49.95294 25.83 -79.05681
v 28.600807 25.83 -101.835434
v 56.134804 23.726665 -86.37416
v 36.095066 23.726665 -107.422035
v 61.503597 20.532715 -93.808945
v 43.550655 20.532715 -112.3145
v 66.14055 16.481852 -101.26209
v 50.964848 16.481852 -116.66679
v 71.96406 14.1448145 -108.71638
v 58.437496 14.1448145 -122.37759
v 74.28566 13.21 -111.690384
v 61.434345 13.21 -124.66962
v 76.79582 13.21 -116.64917
v 66.41774 13.21 -127.13054
v 76.08672 13.21 -120.46942
v 70.23077 13.21 -126.38364
v -8.1830635 25.83 -37.47497
v -8.1830635 -4.17 -37.47497
v -1.7297516 25.83 -35.90454
v -1.7297516 -4.17 -35.90454
v -1.7297516 25.83 -35.90454
v -1.7297516 -4.17 -35.90454
v 6.9702654 25.83 -39.721214
v 6.9702654 -4.17 -39.721214
v 6.9702654 25.83 -39.721214
v 6.9702654 -4.17 -39.721214
v 13.531274 25.83 -45.654087
v 13.531274 -4.17 -45.654087
v 13.531274 25.83 -45.654087
v 13.531274 -4.17 -45.654087
v 20.839405 25.83 -52.26258
v 20.839405 -4.17 -52.26258
v 20.839405 25.83 -52.26258
v 20.839405 -4.17 -52.26258
v 28.1286 25.83 -58.89552
v 28.1286 -4.17 -58.89552
v 28.1286 25.83 -58.89552
v 28.1286 -4.17 -58.89552
v 35.455986 25.83 -65.56817
v 35.455986 -4.17 -65.56817
v 35.455986 25.83 -65.56817
v 35.455986 -4.17 -65.56817
v 42.719578 25.83 -72.31871
v 42.719578 -4.17 -72.31871
v 42.719578 25.83 -72.31871
v 42.719578 -4.17 -72.31871
v 49.95294 25.83 -79.05681
v 49.95294 -4.17 -79.05681
v 49.95294 25.83 -79.05681
v 49.95294 -4.17 -79.05681
v 56.134804 23.726665 -86.37416
v 56.134804 -6.2733345 -86.37416
v 56.134804 23.726665 -86.37416
v 56.134804 -6.2733345 -86.37416
v 61.503597 20.532715 -93.808945
v 61.503597 -9.467285 -93.808945
v 61.503597 20.532715 -93.808945
v 61.503597 -9.467285 -93.808945
v 66.14055 16.481852 -101.26209
v 66.14055 -13.518148 -101.26209
v 66.14055 16.481852 -101.26209
v 66.14055 -13.518148 -101.26209
v 71.96406 14.1448145 -108.71638
v 71.96406 -15.8551855 -108.71638
v 71.96406 14.1448145 -108.71638
v 71.96406 -15.8551855 -108.71638
v 74.28566 13.21 -111.690384
v 74.28566 -16.79 -111.690384
v 74.28566 13.21 -111.690384
v 74.28566 -16.79 -111.690384
v 76.79582 13.21 -116.64917
v 76.79582 -16.79 -116.64917
v 76.79582 13.21 -116.64917
v 76.79582 -16.79 -116.64917
v 76.08672 13.21 -120.46942
v 76.08672 -16.79 -120.46942
v -17.725018 25.83 -48.02715
v -17.725018 -4.17 -48.02715
v -18.640278 25.83 -54.60544
v -18.640278 -4.17 -54.60544
v -18.640278 25.83 -54.60544
v -18.640278 -4.17 -54.60544
v -13.970264 25.83 -62.878788
v -13.970264 -4.17 -62.878788
v -13.970264 25.83 -62.878788
v -13.970264 -4.17 -62.878788
v -7.409254 25.83 -68.81166
v -7.409254 -4.17 -68.81166
v -7.409254 25.83 -68.81166
v -7.409254 -4.17 -68.81166
v -0.13736343 25.83 -75.38734
v -0.13736343 -4.17 -75.38734
v -0.13736343 25.83 -75.38734
v -0.13736343 -4.17 -75.38734
v 7.1116247 25.83 -81.98374
v 7.1116247 -4.17 -81.98374
v 7.1116247 25.83 -81.98374
v 7.1116247 -4.17 -81.98374
v 14.317768 25.83 -88.54543
v 14.317768 -4.17 -88.54543
v 14.317768 25.83 -88.54543
v 14.317768 -4.17 -88.54543
v 21.451733 25.83 -95.176056
v 21.451733 -4.17 -95.176056
v 21.451733 25.83 -95.176056
v 21.451733 -4.17 -95.176056
v 28.600807 25.83 -101.835434
v 28.600807 -4.17 -101.835434
v 28.600807 25.83 -101.835434
v 28.600807 -4.17 -101.835434
v 36.095066 23.726665 -107.422035
v 36.095066 -6.2733345 -107.422035
v 36.095066 23.726665 -107.422035
v 36.095066 -6.2733345 -107.422035
v 43.550655 20.532715 -112.3145
v 43.550655 -9.467285 -112.3145
v 43.550655 20.532715 -112.3145
v 43.550655 -9.467285 -112.3145
v 50.964848 16.481852 -116.66679
v 50.964848 -13.518148 -116.66679
v 50.964848 16.481852 -116.66679
v 50.964848 -13.518148 -116.66679
v 58.437496 14.1448145 -122.37759
v 58.437496 -15.8551855 -122.37759
v 58.437496 14.1448145 -122.37759
v 58.437496 -15.8551855 -122.37759
v 61.434345 13.21 -124.66962
v 61.434345 -16.79 -124.66962
v 61.434345 13.21 -124.66962
v 61.434345 -16.79 -124.66962
v 66.41774 13.21 -127.13054
v 66.41774 -16.79 -127.13054
v 66.41774 13.21 -127.13054
v 66.41774 -16.79 -127.13054
v 70.23077 13.21 -126.38364
v 70.23077 -16.79 -126.38364
vt -0.26722914 0.030184224
vt -0.26593715 0.04435208
vt -0.26401016 0.02437477
vt -0.26172045 0.049483467
vt -0.25530738 0.020564398
vt -0.25247198 0.05165683
vt -0.24649827 0.019761074
vt -0.24366288 0.050853506
vt -0.23668602 0.018866291
vt -0.23389933 0.049963128
vt -0.22686861 0.018002002
vt -0.22413604 0.049103644
vt -0.21699615 0.017136542
vt -0.21442734 0.04825213
vt -0.20710963 0.016370783
vt -0.20471683 0.04750041
vt -0.19725275 0.015618813
vt -0.19497497 0.046757072
vt -0.1876826 0.016032599
vt -0.18578798 0.045032848
vt -0.17857715 0.01712382
vt -0.17713757 0.04286661
vt -0.1699542 0.01876561
vt -0.16891241 0.04036471
vt -0.16052623 0.019535696
vt -0.15964873 0.038740553
vt -0.156766 0.019844245
vt -0.1559323 0.038090385
vt -0.15141857 0.021359317
vt -0.15074533 0.036093984
vt -0.14909014 0.02446987
vt -0.14871027 0.032784067
vt -0.26722914 0.030184224
vt -0.26722914 0.030184224
vt -0.26401016 0.02437477
vt -0.26401016 0.02437477
vt -0.26401016 0.02437477
vt -0.26401016 0.02437477
vt -0.25530738 0.020564398
vt -0.25530738 0.020564398
vt -0.25530738 0.020564398
vt -0.25530738 0.020564398
vt -0.24649827 0.019761074
vt -0.24649827 0.019761074
vt -0.24649827 0.019761074
vt -0.24649827 0.019761074
vt -0.23668602 0.018866291
vt -0.23668602 0.018866291
vt -0.23668602 0.018866291
vt -0.23668602 0.018866291
vt -0.22686861 0.018002002
vt -0.22686861 0.018002002
vt -0.22686861 0.018002002
vt -0.22686861 0.018002002
vt -0.21699615 0.017136542
vt -0.21699615 0.017136542
vt -0.21699615 0.017136542
vt -0.21699615 0.017136542
vt -0.20710963 0.016370783
vt -0.20710963 0.016370783
vt -0.20710963 0.016370783
vt -0.20710963 0.016370783
vt -0.19725275 0.015618813
vt -0.19725275 0.015618813
vt -0.19725275 0.015618813
vt -0.19725275 0.015618813
vt -0.1876826 0.016032599
vt -0.1876826 0.016032599
vt -0.1876826 0.016032599
vt -0.1876826 0.016032599
vt -0.17857715 0.01712382
vt -0.17857715 0.01712382
vt -0.17857715 0.01712382
vt -0.17857715 0.01712382
vt -0.1699542 0.01876561
vt -0.1699542 0.01876561
vt -0.1699542 0.01876561
vt -0.1699542 0.01876561
vt -0.16052623 0.019535696
vt -0.16052623 0.019535696
vt -0.16052623 0.019535696
vt -0.16052623 0.019535696
vt -0.156766 0.019844245
vt -0.156766 0.019844245
vt -0.156766 0.019844245
vt -0.156766 0.019844245
vt -0.15141857 0.021359317
vt -0.15141857 0.021359317
vt -0.15141857 0.021359317
vt -0.15141857 0.021359317
vt -0.14909014 0.02446987
vt -0.14909014 0.02446987
vt -0.26593715 0.04435208
vt -0.26593715 0.04435208
vt -0.26172045 0.049483467
vt -0.26172045 0.049483467
vt -0.26172045 0.049483467
vt -0.26172045 0.049483467
vt -0.25247198 0.05165683
vt -0.25247198 0.05165683
vt -0.25247198 0.05165683
vt -0.25247198 0.05165683
vt -0.24366288 0.050853506
vt -0.24366288 0.050853506
vt -0.24366288 0.050853506
vt -0.24366288 0.050853506
vt -0.23389933 0.049963128
vt -0.23389933 0.049963128
vt -0.23389933 0.049963128
vt -0.23389933 0.049963128
vt -0.22413604 0.049103644
vt -0.22413604 0.049103644
vt -0.22413604 0.049103644
vt -0.22413604 0.049103644
vt -0.21442734 0.04825213
vt -0.21442734 0.04825213
vt -0.21442734 0.04825213
vt -0.21442734 0.04825213
vt -0.20471683 0.04750041
vt -0.20471683 0.04750041
vt -0.20471683 0.04750041
vt -0.20471683 0.04750041
vt -0.19497497 0.046757072
vt -0.19497497 0.046757072
vt -0.19497497 0.046757072
vt -0.19497497 0.046757072
vt -0.18578798 0.045032848
vt -0.18578798 0.045032848
vt -0.18578798 0.045032848
vt -0.18578798 0.045032848
vt -0.17713757 0.04286661
vt -0.17713757 0.04286661
vt -0.17713757 0.04286661
vt -0.17713757 0.04286661
vt -0.16891241 0.04036471
vt -0.16891241 0.04036471
vt -0.16891241 0.04036471
vt -0.16891241 0.04036471
vt -0.15964873 0.038740553
vt -0.15964873 0.038740553
vt -0.15964873 0.038740553
vt -0.15964873 0.038740553
vt -0.1559323 0.038090385
vt -0.1559323 0.038090385
vt -0.1559323 0.038090385
vt -0.1559323 0.038090385
vt -0.15074533 0.036093984
vt -0.15074533 0.036093984
vt -0.15074533 0.036093984
vt -0.15074533 0.036093984
vt -0.14871027 0.032784067
vt -0.14871027 0.032784067
vn -0 1 0
vn -0 1 0
vn -0 1 0
vn -0 1 0
vn -0 1 0
vn -0 1 0
vn -0 1 0
vn -0 1 0
vn -0 1 0
vn -0 1 0
vn -0 1 0
vn -0 1 0
vn -0 1 0
vn -0 1 0
vn -0 1 0
vn -0 1 0
vn -0 1 0
vn -0 1 0
vn -0 1 0
vn -0 1 0
vn -0 1 0
vn -0 1 0
vn -0 1 0
vn -0 1 0
vn -0 1 0
vn -0 1 0
vn -0 1 0
vn -0 1 0
vn -0 1 0
vn -0 1 0
vn -0 1 0
vn -0 1 0
vn -0.7417195 -0 0.6707102
vn -0.7417195 0 0.6707102
vn -0.23645195 0 0.97164315
vn -0.23645195 0 0.97164315
vn 0.40173885 0 0.9157543
vn 0.40173885 0 0.9157543
vn 0.40173885 0 0.9157543
vn 0.40173885 0 0.9157543
vn 0.6707095 0 0.7417201
vn 0.6707095 0 0.7417201
vn 0.6707095 0 0.7417201
vn 0.6707095 0 0.7417201
vn 0.670711 0 0.74171877
vn 0.670711 0 0.74171877
vn 0.670711 0 0.74171877
vn 0.670711 0 0.74171877
vn 0.67302823 0 0.7396169
vn 0.67302823 0 0.7396169
vn 0.67302823 0 0.7396169
vn 0.67302823 0 0.7396169
vn 0.6733017 0 0.73936784
vn 0.6733017 0 0.73936784
vn 0.6733017 0 0.73936784
vn 0.6733017 0 0.73936784
vn 0.68076396 0 0.73250294
vn 0.68076396 0 0.73250294
vn 0.68076396 0 0.73250294
vn 0.68076396 0 0.73250294
vn 0.6816129 0 0.731713
vn 0.6816129 0 0.731713
vn 0.6816129 0 0.731713
vn 0.6816129 0 0.731713
vn 0.7638876 0 0.6453492
vn 0.7638876 0 0.6453492
vn 0.7638876 0 0.6453492
vn 0.7638876 0 0.6453492
vn 0.8107192 0 0.58543515
vn 0.8107192 0 0.58543515
vn 0.8107192 0 0.58543515
vn 0.8107192 0 0.58543515
vn 0.8490854 0 0.5282557
vn 0.8490854 0 0.5282557
vn 0.8490854 0 0.5282557
vn 0.8490854 0 0.5282557
vn 0.7880321 0 0.61563414
vn 0.7880321 0 0.61563414
vn 0.7880321 0 0.61563414
vn 0.7880321 0 0.61563414
vn 0.788261 0 0.615341
vn 0.788261 0 0.615341
vn 0.788261 0 0.615341
vn 0.788261 0 0.615341
vn 0.8922018 0 0.45163703
vn 0.8922018 0 0.45163703
vn 0.8922018 0 0.45163703
vn 0.8922018 0 0.45163703
vn 0.9832061 0 -0.18249853
vn 0.9832061 -0 -0.18249853
vn 0.710598 0 -0.70359826
vn 0.710598 -0 -0.70359826
vn -0.7417195 0 0.6707102
vn -0.7417195 0 0.6707102
vn -0.9904592 0 0.13780606
vn -0.9904592 0 0.13780606
vn -0.8708435 0 -0.49156037
vn -0.8708435 0 -0.49156037
vn -0.8708435 0 -0.49156037
vn -0.8708435 0 -0.49156037
vn -0.67070943 0 -0.7417202
vn -0.67070943 0 -0.7417202
vn -0.67070943 0 -0.7417202
vn -0.67070943 0 -0.7417202
vn -0.67070836 0 -0.74172115
vn -0.67070836 0 -0.74172115
vn -0.67070836 0 -0.74172115
vn -0.67070836 0 -0.74172115
vn -0.6730311 0 -0.7396141
vn -0.6730311 0 -0.7396141
vn -0.6730311 0 -0.7396141
vn -0.6730311 0 -0.7396141
vn -0.67327094 0 -0.7393958
vn -0.67327094 0 -0.7393958
vn -0.67327094 0 -0.7393958
vn -0.67327094 0 -0.7393958
vn -0.68079436 0 -0.73247457
vn -0.68079436 0 -0.73247457
vn -0.68079436 0 -0.73247457
vn -0.68079436 0 -0.73247457
vn -0.6816018 0 -0.7317233
vn -0.6816018 0 -0.7317233
vn -0.6816018 0 -0.7317233
vn -0.6816018 0 -0.7317233
vn -0.5976632 0 -0.8017473
vn -0.5976632 0 -0.8017473
vn -0.5976632 0 -0.8017473
vn -0.5976632 0 -0.8017473
vn -0.5486355 0 -0.8360616
vn -0.5486355 0 -0.8360616
vn -0.5486355 0 -0.8360616
vn -0.5486355 0 -0.8360616
vn -0.50624204 0 -0.86239153
vn -0.50624204 0 -0.86239153
vn -0.50624204 0 -0.86239153
vn -0.50624204 0 -0.86239153
vn -0.60721004 0 -0.79454136
vn -0.60721004 0 -0.79454136
vn -0.60721004 0 -0.79454136
vn -0.60721004 0 -0.79454136
vn -0.607504 0 -0.79431665
vn -0.607504 0 -0.79431665
vn -0.607504 0 -0.79431665
vn -0.607504 0 -0.79431665
vn -0.44277838 0 -0.89663106
vn -0.44277838 0 -0.89663106
vn -0.44277838 0 -0.89663106
vn -0.44277838 0 -0.89663106
vn 0.19222863 0 -0.9813502
vn 0.19222863 -0 -0.9813502
vn 0.710598 -0 -0.70359826
vn 0.710598 -0 -0.70359826
g _0
f 3/3/3 2/2/2 1/1/1
f 2/2/2 3/3/3 4/4/4
f 5/5/5 4/4/4 3/3/3
f 4/4/4 5/5/5 6/6/6
f 7/7/7 6/6/6 5/5/5
f 6/6/6 7/7/7 8/8/8
f 9/9/9 8/8/8 7/7/7
f 8/8/8 9/9/9 10/10/10
f 11/11/11 10/10/10 9/9/9
f 10/10/10 11/11/11 12/12/12
f 13/13/13 12/12/12 11/11/11
f 12/12/12 13/13/13 14/14/14
f 15/15/15 14/14/14 13/13/13
f 14/14/14 15/15/15 16/16/16
f 17/17/17 16/16/16 15/15/15
f 16/16/16 17/17/17 18/18/18
f 19/19/19 18/18/18 17/17/17
f 18/18/18 19/19/19 20/20/20
f 21/21/21 20/20/20 19/19/19
f 20/20/20 21/21/21 22/22/22
f 23/23/23 22/22/22 21/21/21
f 22/22/22 23/23/23 24/24/24
f 25/25/25 24/24/24 23/23/23
f 24/24/24 25/25/25 26/26/26
f 27/27/27 26/26/26 25/25/25
f 26/26/26 27/27/27 28/28/28
f 29/29/29 28/28/28 27/27/27
f 28/28/28 29/29/29 30/30/30
f 31/31/31 30/30/30 29/29/29
f 30/30/30 31/31/31 32/32/32
g _1
f 33/33/33 34/34/34 35/35/35
f 36/36/36 35/35/35 34/34/34
f 37/37/37 38/38/38 39/39/39
f 40/40/40 39/39/39 38/38/38
f 41/41/41 42/42/42 43/43/43
f 44/44/44 43/43/43 42/42/42
f 45/45/45 46/46/46 47/47/47
f 48/48/48 47/47/47 46/46/46
f 49/49/49 50/50/50 51/51/51
f 52/52/52 51/51/51 50/50/50
f 53/53/53 54/54/54 55/55/55
f 56/56/56 55/55/55 54/54/54
f 57/57/57 58/58/58 59/59/59
f 60/60/60 59/59/59 58/58/58
f 61/61/61 62/62/62 63/63/63
f 64/64/64 63/63/63 62/62/62
f 65/65/65 66/66/66 67/67/67
f 68/68/68 67/67/67 66/66/66
f 69/69/69 70/70/70 71/71/71
f 72/72/72 71/71/71 70/70/70
f 73/73/73 74/74/74 75/75/75
f 76/76/76 75/75/75 74/74/74
f 77/77/77 78/78/78 79/79/79
f 80/80/80 79/79/79 78/78/78
f 81/81/81 82/82/82 83/83/83
f 84/84/84 83/83/83 82/82/82
f 85/85/85 86/86/86 87/87/87
f 88/88/88 87/87/87 86/86/86
f 89/89/89 90/90/90 91/91/91
f 92/92/92 91/91/91 90/90/90
f 95/95/95 94/94/94 93/93/93
f 94/94/94 95/95/95 96/96/96
f 99/99/99 98/98/98 97/97/97
f 98/98/98 99/99/99 100/100/100
f 103/103/103 102/102/102 101/101/101
f 102/102/102 103/103/103 104/104/104
f 107/107/107 106/106/106 105/105/105
f 106/106/106 107/107/107 108/108/108
f 111/111/111 110/110/110 109/109/109
f 110/110/110 111/111/111 112/112/112
f 115/115/115 114/114/114 113/113/113
f 114/114/114 115/115/115 116/116/116
f 119/119/119 118/118/118 117/117/117
f 118/118/118 119/119/119 120/120/120
f 123/123/123 122/122/122 121/121/121
f 122/122/122 123/123/123 124/124/124
f 127/127/127 126/126/126 125/125/125
f 126/126/126 127/127/127 128/128/128
f 131/131/131 130/130/130 129/129/129
f 130/130/130 131/131/131 132/132/132
f 135/135/135 134/134/134 133/133/133
f 134/134/134 135/135/135 136/136/136
f 139/139/139 138/138/138 137/137/137
f 138/138/138 139/139/139 140/140/140
f 143/143/143 142/142/142 141/141/141
f 142/142/142 143/143/143 144/144/144
f 147/147/147 146/146/146 145/145/145
f 146/146/146 147/147/147 148/148/148
f 151/151/151 150/150/150 149/149/149
f 150/150/150 151/151/151 152/152/152
f 93/93/93 34/34/34 33/33/33
f 34/34/34 93/93/93 94/94/94
f 91/91/91 92/92/92 151/151/151
f 152/152/152 151/151/151 92/92/92
