g 
v -70.40097 6.8 -34.125526
v -73.50333 6.8 -40.244728
v -67.515144 6.8 -32.465443
v -73.13677 6.8 -43.55373
v -62.935467 6.8 -33.16644
v -69.86453 6.8 -46.83356
v -59.305 7.7851853 -35.50322
v -65.73515 7.7851853 -48.43093
v -55.718998 8.985621 -37.874107
v -60.731808 8.985621 -50.257866
v -53.200535 11.138126 -39.78153
v -54.955326 11.138126 -50.9872
v -51.21126 12.955061 -40.619232
v -48.77326 12.955061 -50.09134
v -48.738243 14.268641 -39.74831
v -43.260345 14.268641 -46.861736
v -47.39639 13.8944435 -37.56917
v -38.1088 13.8944435 -41.99117
v -48.93709 13.141728 -35.747486
v -35.61185 13.141728 -35.215954
v -50.748188 12.394772 -32.875996
v -35.46259 12.394772 -28.9956
v -52.59927 11.998258 -29.061808
v -36.537655 11.998258 -23.828724
v -53.84931 11.8 -26.985477
v -36.750687 11.8 -21.414524
v -53.684227 11.8 -21.602264
v -40.05529 11.8 -17.161781
v -51.370308 11.8 -18.64084
v -43.66964 11.8 -16.131863
v -70.40097 6.8 -34.125526
v -70.40097 1.8000002 -34.125526
v -67.515144 6.8 -32.465443
v -67.515144 1.8000002 -32.465443
v -67.515144 6.8 -32.465443
v -67.515144 1.8000002 -32.465443
v -62.935467 6.8 -33.16644
v -62.935467 1.8000002 -33.16644
v -62.935467 6.8 -33.16644
v -62.935467 1.8000002 -33.16644
v -59.305 7.7851853 -35.50322
v -59.305 2.7851853 -35.50322
v -59.305 7.7851853 -35.50322
v -59.305 2.7851853 -35.50322
v -55.718998 8.985621 -37.874107
v -55.718998 3.9856215 -37.874107
v -55.718998 8.985621 -37.874107
v -55.718998 3.9856215 -37.874107
v -53.200535 11.138126 -39.78153
v -53.200535 6.1381264 -39.78153
v -53.200535 11.138126 -39.78153
v -53.200535 6.1381264 -39.78153
v -51.21126 12.955061 -40.619232
v -51.21126 7.955061 -40.619232
v -51.21126 12.955061 -40.619232
v -51.21126 7.955061 -40.619232
v -48.738243 14.268641 -39.74831
v -48.738243 9.268641 -39.74831
v -48.738243 14.268641 -39.74831
v -48.738243 9.268641 -39.74831
v -47.39639 13.8944435 -37.56917
v -47.39639 8.8944435 -37.56917
v -47.39639 13.8944435 -37.56917
v -47.39639 8.8944435 -37.56917
v -48.93709 13.141728 -35.747486
v -48.93709 8.141728 -35.747486
v -48.93709 13.141728 -35.747486
v -48.93709 8.141728 -35.747486
v -50.748188 12.394772 -32.875996
v -50.748188 7.3947716 -32.875996
v -50.748188 12.394772 -32.875996
v -50.748188 7.3947716 -32.875996
v -52.59927 11.998258 -29.061808
v -52.59927 6.9982576 -29.061808
v -52.59927 11.998258 -29.061808
v -52.59927 6.9982576 -29.061808
v -53.84931 11.8 -26.985477
v -53.84931 6.8 -26.985477
v -53.84931 11.8 -26.985477
v -53.84931 6.8 -26.985477
v -53.684227 11.8 -21.602264
v -53.684227 6.8 -21.602264
v -53.684227 11.8 -21.602264
v -53.684227 6.8 -21.602264
v -51.370308 11.8 -18.64084
v -51.370308 6.8 -18.64084
v -73.50333 6.8 -40.244728
v -73.50333 1.8000002 -40.244728
v -73.13677 6.8 -43.55373
v -73.13677 1.8000002 -43.55373
v -73.13677 6.8 -43.55373
v -73.13677 1.8000002 -43.55373
v -69.86453 6.8 -46.83356
v -69.86453 1.8000002 -46.83356
v -69.86453 6.8 -46.83356
v -69.86453 1.8000002 -46.83356
v -65.73515 7.7851853 -48.43093
v -65.73515 2.7851853 -48.43093
v -65.73515 7.7851853 -48.43093
v -65.73515 2.7851853 -48.43093
v -60.731808 8.985621 -50.257866
v -60.731808 3.9856215 -50.257866
v -60.731808 8.985621 -50.257866
v -60.731808 3.9856215 -50.257866
v -54.955326 11.138126 -50.9872
v -54.955326 6.1381264 -50.9872
v -54.955326 11.138126 -50.9872
v -54.955326 6.1381264 -50.9872
v -48.77326 12.955061 -50.09134
v -48.77326 7.955061 -50.09134
v -48.77326 12.955061 -50.09134
v -48.77326 7.955061 -50.09134
v -43.260345 14.268641 -46.861736
v -43.260345 9.268641 -46.861736
v -43.260345 14.268641 -46.861736
v -43.260345 9.268641 -46.861736
v -38.1088 13.8944435 -41.99117
v -38.1088 8.8944435 -41.99117
v -38.1088 13.8944435 -41.99117
v -38.1088 8.8944435 -41.99117
v -35.61185 13.141728 -35.215954
v -35.61185 8.141728 -35.215954
v -35.61185 13.141728 -35.215954
v -35.61185 8.141728 -35.215954
v -35.46259 12.394772 -28.9956
v -35.46259 7.3947716 -28.9956
v -35.46259 12.394772 -28.9956
v -35.46259 7.3947716 -28.9956
v -36.537655 11.998258 -23.828724
v -36.537655 6.9982576 -23.828724
v -36.537655 11.998258 -23.828724
v -36.537655 6.9982576 -23.828724
v -36.750687 11.8 -21.414524
v -36.750687 6.8 -21.414524
v -36.750687 11.8 -21.414524
v -36.750687 6.8 -21.414524
v -40.05529 11.8 -17.161781
v -40.05529 6.8 -17.161781
v -40.05529 11.8 -17.161781
v -40.05529 6.8 -17.161781
v -43.66964 11.8 -16.131863
v -43.66964 6.8 -16.131863
vt -0.08536377 0.012395461
vt -0.09084818 0.008273519
vt -0.08423238 0.015526568
vt -0.09417041 0.0080574015
vt -0.08572128 0.019913822
vt -0.09797063 0.010707532
vt -0.08865537 0.02308115
vt -0.10026363 0.014495072
vt -0.09161528 0.026198745
vt -0.1029351 0.019103153
vt -0.09393267 0.028345983
vt -0.104660615 0.02466393
vt -0.09510445 0.030158687
vt -0.10485657 0.030907499
vt -0.094678134 0.03274569
vt -0.10263785 0.036899146
vt -0.0927664 0.034447
vt -0.098740295 0.042821128
vt -0.09070395 0.03324759
vt -0.09250434 0.04646134
vt -0.08756062 0.031965002
vt -0.08640533 0.047693074
vt -0.083482064 0.03080744
vt -0.08113015 0.04753553
vt -0.081219554 0.029938642
vt -0.07871579 0.047746774
vt -0.07594762 0.031039974
vt -0.07395192 0.04523444
vt -0.0734351 0.033834875
vt -0.07230748 0.041855086
vt -0.08536377 0.012395461
vt -0.08536377 0.012395461
vt -0.08423238 0.015526568
vt -0.08423238 0.015526568
vt -0.08423238 0.015526568
vt -0.08423238 0.015526568
vt -0.08572128 0.019913822
vt -0.08572128 0.019913822
vt -0.08572128 0.019913822
vt -0.08572128 0.019913822
vt -0.08865537 0.02308115
vt -0.08865537 0.02308115
vt -0.08865537 0.02308115
vt -0.08865537 0.02308115
vt -0.09161528 0.026198745
vt -0.09161528 0.026198745
vt -0.09161528 0.026198745
vt -0.09161528 0.026198745
vt -0.09393267 0.028345983
vt -0.09393267 0.028345983
vt -0.09393267 0.028345983
vt -0.09393267 0.028345983
vt -0.09510445 0.030158687
vt -0.09510445 0.030158687
vt -0.09510445 0.030158687
vt -0.09510445 0.030158687
vt -0.094678134 0.03274569
vt -0.094678134 0.03274569
vt -0.094678134 0.03274569
vt -0.094678134 0.03274569
vt -0.0927664 0.034447
vt -0.0927664 0.034447
vt -0.0927664 0.034447
vt -0.0927664 0.034447
vt -0.09070395 0.03324759
vt -0.09070395 0.03324759
vt -0.09070395 0.03324759
vt -0.09070395 0.03324759
vt -0.08756062 0.031965002
vt -0.08756062 0.031965002
vt -0.08756062 0.031965002
vt -0.08756062 0.031965002
vt -0.083482064 0.03080744
vt -0.083482064 0.03080744
vt -0.083482064 0.03080744
vt -0.083482064 0.03080744
vt -0.081219554 0.029938642
vt -0.081219554 0.029938642
vt -0.081219554 0.029938642
vt -0.081219554 0.029938642
vt -0.07594762 0.031039974
vt -0.07594762 0.031039974
vt -0.07594762 0.031039974
vt -0.07594762 0.031039974
vt -0.0734351 0.033834875
vt -0.0734351 0.033834875
vt -0.09084818 0.008273519
vt -0.09084818 0.008273519
vt -0.09417041 0.0080574015
vt -0.09417041 0.0080574015
vt -0.09417041 0.0080574015
vt -0.09417041 0.0080574015
vt -0.09797063 0.010707532
vt -0.09797063 0.010707532
vt -0.09797063 0.010707532
vt -0.09797063 0.010707532
vt -0.10026363 0.014495072
vt -0.10026363 0.014495072
vt -0.10026363 0.014495072
vt -0.10026363 0.014495072
vt -0.1029351 0.019103153
vt -0.1029351 0.019103153
vt -0.1029351 0.019103153
vt -0.1029351 0.019103153
vt -0.104660615 0.02466393
vt -0.104660615 0.02466393
vt -0.104660615 0.02466393
vt -0.104660615 0.02466393
vt -0.10485657 0.030907499
vt -0.10485657 0.030907499
vt -0.10485657 0.030907499
vt -0.10485657 0.030907499
vt -0.10263785 0.036899146
vt -0.10263785 0.036899146
vt -0.10263785 0.036899146
vt -0.10263785 0.036899146
vt -0.098740295 0.042821128
vt -0.098740295 0.042821128
vt -0.098740295 0.042821128
vt -0.098740295 0.042821128
vt -0.09250434 0.04646134
vt -0.09250434 0.04646134
vt -0.09250434 0.04646134
vt -0.09250434 0.04646134
vt -0.08640533 0.047693074
vt -0.08640533 0.047693074
vt -0.08640533 0.047693074
vt -0.08640533 0.047693074
vt -0.08113015 0.04753553
vt -0.08113015 0.04753553
vt -0.08113015 0.04753553
vt -0.08113015 0.04753553
vt -0.07871579 0.047746774
vt -0.07871579 0.047746774
vt -0.07871579 0.047746774
vt -0.07871579 0.047746774
vt -0.07395192 0.04523444
vt -0.07395192 0.04523444
vt -0.07395192 0.04523444
vt -0.07395192 0.04523444
vt -0.07230748 0.041855086
vt -0.07230748 0.041855086
vn -0 1 0
vn -0 1 0
vn -0 1 0
vn -0 1 0
vn -0 1 0
vn -0 1 0
vn -0 1 0
vn -0 1 0
vn -0 1 0
vn -0 1 0
vn -0 1 0
vn -0 1 0
vn -0 1 0
vn -0 1 0
vn -0 1 0
vn -0 1 0
vn -0 1 0
vn -0 1 0
vn -0 1 0
vn -0 1 0
vn -0 1 0
vn -0 1 0
vn -0 1 0
vn -0 1 0
vn -0 1 0
vn -0 1 0
vn -0 1 0
vn -0 1 0
vn -0 1 0
vn -0 1 0
vn -0.89192057 -0 0.45219216
vn -0.89192057 0 0.45219216
vn -0.49863675 0 0.8668111
vn -0.49863675 0 0.8668111
vn 0.15130453 0 0.9884872
vn 0.15130453 0 0.9884872
vn 0.15130453 0 0.9884872
vn 0.15130453 0 0.9884872
vn 0.5412343 0 0.8408719
vn 0.5412343 0 0.8408719
vn 0.5412343 0 0.8408719
vn 0.5412343 0 0.8408719
vn 0.55151063 0 0.8341679
vn 0.55151063 0 0.8341679
vn 0.55151063 0 0.8341679
vn 0.55151063 0 0.8341679
vn 0.603756 0 0.79716915
vn 0.603756 0 0.79716915
vn 0.603756 0 0.79716915
vn 0.603756 0 0.79716915
vn 0.3881023 0 0.9216163
vn 0.3881023 0 0.9216163
vn 0.3881023 0 0.9216163
vn 0.3881023 0 0.9216163
vn -0.33217293 -0 0.9432185
vn -0.33217293 0 0.9432185
vn -0.33217293 0 0.9432185
vn -0.33217293 0 0.9432185
vn -0.85151076 -0 0.5243372
vn -0.85151076 0 0.5243372
vn -0.85151076 0 0.5243372
vn -0.85151076 0 0.5243372
vn -0.7635358 0 -0.6457655
vn -0.7635358 0 -0.6457655
vn -0.7635358 0 -0.6457655
vn -0.7635358 0 -0.6457655
vn -0.8458181 0 -0.53347135
vn -0.8458181 0 -0.53347135
vn -0.8458181 0 -0.53347135
vn -0.8458181 0 -0.53347135
vn -0.8996493 0 -0.43661314
vn -0.8996493 0 -0.43661314
vn -0.8996493 0 -0.43661314
vn -0.8996493 0 -0.43661314
vn -0.85671943 0 -0.5157827
vn -0.85671943 0 -0.5157827
vn -0.85671943 0 -0.5157827
vn -0.85671943 0 -0.5157827
vn -0.99953014 -0 0.03065219
vn -0.99953014 0 0.03065219
vn -0.99953014 0 0.03065219
vn -0.99953014 0 0.03065219
vn -0.7879847 -0 0.6156947
vn -0.7879847 0 0.6156947
vn -0.30978513 -0 0.95080656
vn -0.30978513 0 0.95080656
vn -0.89192057 0 0.45219216
vn -0.89192057 0 0.45219216
vn -0.9939203 0 -0.110101394
vn -0.9939203 0 -0.110101394
vn -0.70792556 0 -0.7062871
vn -0.70792556 0 -0.7062871
vn -0.70792556 0 -0.7062871
vn -0.70792556 0 -0.7062871
vn -0.36077815 0 -0.93265164
vn -0.36077815 0 -0.93265164
vn -0.36077815 0 -0.93265164
vn -0.36077815 0 -0.93265164
vn -0.34299242 0 -0.93933815
vn -0.34299242 0 -0.93933815
vn -0.34299242 0 -0.93933815
vn -0.34299242 0 -0.93933815
vn -0.12526502 0 -0.9921233
vn -0.12526502 0 -0.9921233
vn -0.12526502 0 -0.9921233
vn -0.12526502 0 -0.9921233
vn 0.14341506 0 -0.9896626
vn 0.14341506 -0 -0.9896626
vn 0.14341506 -0 -0.9896626
vn 0.14341506 -0 -0.9896626
vn 0.5054743 0 -0.86284167
vn 0.5054743 -0 -0.86284167
vn 0.5054743 -0 -0.86284167
vn 0.5054743 -0 -0.86284167
vn 0.6870125 0 -0.72664565
vn 0.6870125 -0 -0.72664565
vn 0.6870125 -0 -0.72664565
vn 0.6870125 -0 -0.72664565
vn 0.93830645 0 -0.3458049
vn 0.93830645 -0 -0.3458049
vn 0.93830645 -0 -0.3458049
vn 0.93830645 -0 -0.3458049
vn 0.9997122 0 -0.02398875
vn 0.9997122 -0 -0.02398875
vn 0.9997122 -0 -0.02398875
vn 0.9997122 -0 -0.02398875
vn 0.97903216 0 0.20370603
vn 0.97903216 0 0.20370603
vn 0.97903216 0 0.20370603
vn 0.97903216 0 0.20370603
vn 0.99612933 0 0.087899595
vn 0.99612933 0 0.087899595
vn 0.99612933 0 0.087899595
vn 0.99612933 0 0.087899595
vn 0.78962976 0 0.6135836
vn 0.78962976 0 0.6135836
vn 0.78962976 0 0.6135836
vn 0.78962976 0 0.6135836
vn 0.27404392 0 0.9617172
vn 0.27404392 0 0.9617172
vn -0.30978513 0 0.95080656
vn -0.30978513 0 0.95080656
g _0
f 3/3/3 2/2/2 1/1/1
f 2/2/2 3/3/3 4/4/4
f 5/5/5 4/4/4 3/3/3
f 4/4/4 5/5/5 6/6/6
f 7/7/7 6/6/6 5/5/5
f 6/6/6 7/7/7 8/8/8
f 9/9/9 8/8/8 7/7/7
f 8/8/8 9/9/9 10/10/10
f 11/11/11 10/10/10 9/9/9
f 10/10/10 11/11/11 12/12/12
f 13/13/13 12/12/12 11/11/11
f 12/12/12 13/13/13 14/14/14
f 15/15/15 14/14/14 13/13/13
f 14/14/14 15/15/15 16/16/16
f 17/17/17 16/16/16 15/15/15
f 16/16/16 17/17/17 18/18/18
f 19/19/19 18/18/18 17/17/17
f 18/18/18 19/19/19 20/20/20
f 21/21/21 20/20/20 19/19/19
f 20/20/20 21/21/21 22/22/22
f 23/23/23 22/22/22 21/21/21
f 22/22/22 23/23/23 24/24/24
f 25/25/25 24/24/24 23/23/23
f 24/24/24 25/25/25 26/26/26
f 27/27/27 26/26/26 25/25/25
f 26/26/26 27/27/27 28/28/28
f 29/29/29 28/28/28 27/27/27
f 28/28/28 29/29/29 30/30/30
g _1
f 31/31/31 32/32/32 33/33/33
f 34/34/34 33/33/33 32/32/32
f 35/35/35 36/36/36 37/37/37
f 38/38/38 37/37/37 36/36/36
f 39/39/39 40/40/40 41/41/41
f 42/42/42 41/41/41 40/40/40
f 43/43/43 44/44/44 45/45/45
f 46/46/46 45/45/45 44/44/44
f 47/47/47 48/48/48 49/49/49
f 50/50/50 49/49/49 48/48/48
f 51/51/51 52/52/52 53/53/53
f 54/54/54 53/53/53 52/52/52
f 55/55/55 56/56/56 57/57/57
f 58/58/58 57/57/57 56/56/56
f 59/59/59 60/60/60 61/61/61
f 62/62/62 61/61/61 60/60/60
f 63/63/63 64/64/64 65/65/65
f 66/66/66 65/65/65 64/64/64
f 67/67/67 68/68/68 69/69/69
f 70/70/70 69/69/69 68/68/68
f 71/71/71 72/72/72 73/73/73
f 74/74/74 73/73/73 72/72/72
f 75/75/75 76/76/76 77/77/77
f 78/78/78 77/77/77 76/76/76
f 79/79/79 80/80/80 81/81/81
f 82/82/82 81/81/81 80/80/80
f 83/83/83 84/84/84 85/85/85
f 86/86/86 85/85/85 84/84/84
f 89/89/89 88/88/88 87/87/87
f 88/88/88 89/89/89 90/90/90
f 93/93/93 92/92/92 91/91/91
f 92/92/92 93/93/93 94/94/94
f 97/97/97 96/96/96 95/95/95
f 96/96/96 97/97/97 98/98/98
f 101/101/101 100/100/100 99/99/99
f 100/100/100 101/101/101 102/102/102
f 105/105/105 104/104/104 103/103/103
f 104/104/104 105/105/105 106/106/106
f 109/109/109 108/108/108 107/107/107
f 108/108/108 109/109/109 110/110/110
f 113/113/113 112/112/112 111/111/111
f 112/112/112 113/113/113 114/114/114
f 117/117/117 116/116/116 115/115/115
f 116/116/116 117/117/117 118/118/118
f 121/121/121 120/120/120 119/119/119
f 120/120/120 121/121/121 122/122/122
f 125/125/125 124/124/124 123/123/123
f 124/124/124 125/125/125 126/126/126
f 129/129/129 128/128/128 127/127/127
f 128/128/128 129/129/129 130/130/130
f 133/133/133 132/132/132 131/131/131
f 132/132/132 133/133/133 134/134/134
f 137/137/137 136/136/136 135/135/135
f 136/136/136 137/137/137 138/138/138
f 141/141/141 140/140/140 139/139/139
f 140/140/140 141/141/141 142/142/142
f 87/87/87 32/32/32 31/31/31
f 32/32/32 87/87/87 88/88/88
f 85/85/85 86/86/86 141/141/141
f 142/142/142 141/141/141 86/86/86
