g 
v 68.83737 18 43.19502
v 59.999844 18 42.19579
v 72.200325 18 41.26284
v 57.153202 18 39.561523
v 75.006546 18 35.99748
v 55.59346 18 33.80252
v 75.86142 21.388641 28.462517
v 56.413937 21.388641 26.52002
v 76.69094 23.84 19.587729
v 57.104485 23.84 18.221037
v 76.755455 23.84 14.075292
v 57.44454 23.84 13.324707
v 75.41287 23.84 8.319821
v 59.229813 23.84 7.6908116
v 71.843544 23.84 5.8187065
v 62.982506 23.84 5.474296
v 68.83737 18 43.19502
v 68.83737 8 43.19502
v 72.200325 18 41.26284
v 72.200325 8 41.26284
v 72.200325 18 41.26284
v 72.200325 8 41.26284
v 75.006546 18 35.99748
v 75.006546 8 35.99748
v 75.006546 18 35.99748
v 75.006546 8 35.99748
v 75.86142 21.388641 28.462517
v 75.86142 11.388641 28.462517
v 75.86142 21.388641 28.462517
v 75.86142 11.388641 28.462517
v 76.69094 23.84 19.587729
v 76.69094 13.84 19.587729
v 76.69094 23.84 19.587729
v 76.69094 13.84 19.587729
v 76.755455 23.84 14.075292
v 76.755455 13.84 14.075292
v 76.755455 23.84 14.075292
v 76.755455 13.84 14.075292
v 75.41287 23.84 8.319821
v 75.41287 13.84 8.319821
v 75.41287 23.84 8.319821
v 75.41287 13.84 8.319821
v 71.843544 23.84 5.8187065
v 71.843544 13.84 5.8187065
v 59.999844 18 42.19579
v 59.999844 8 42.19579
v 57.153202 18 39.561523
v 57.153202 8 39.561523
v 57.153202 18 39.561523
v 57.153202 8 39.561523
v 55.59346 18 33.80252
v 55.59346 8 33.80252
v 55.59346 18 33.80252
v 55.59346 8 33.80252
v 56.413937 21.388641 26.52002
v 56.413937 11.388641 26.52002
v 56.413937 21.388641 26.52002
v 56.413937 11.388641 26.52002
v 57.104485 23.84 18.221037
v 57.104485 13.84 18.221037
v 57.104485 23.84 18.221037
v 57.104485 13.84 18.221037
v 57.44454 23.84 13.324707
v 57.44454 13.84 13.324707
v 57.44454 23.84 13.324707
v 57.44454 13.84 13.324707
v 59.229813 23.84 7.6908116
v 59.229813 13.84 7.6908116
v 59.229813 23.84 7.6908116
v 59.229813 13.84 7.6908116
v 62.982506 23.84 5.474296
v 62.982506 13.84 5.474296
vt -0.05867845 -0.037052445
vt -0.050247386 -0.039883986
vt -0.062371984 -0.038235884
vt -0.04801693 -0.043056965
vt -0.06622066 -0.042795118
vt -0.04770045 -0.04901505
vt -0.068637714 -0.04998291
vt -0.050030895 -0.055963214
vt -0.071311146 -0.05848601
vt -0.052447606 -0.0639325
vt -0.07253101 -0.06386217
vt -0.053807586 -0.06864844
vt -0.0724261 -0.06977123
vt -0.056735385 -0.07378225
vt -0.069461115 -0.072965674
vt -0.060869657 -0.075161904
vt -0.05867845 -0.037052445
vt -0.05867845 -0.037052445
vt -0.062371984 -0.038235884
vt -0.062371984 -0.038235884
vt -0.062371984 -0.038235884
vt -0.062371984 -0.038235884
vt -0.06622066 -0.042795118
vt -0.06622066 -0.042795118
vt -0.06622066 -0.042795118
vt -0.06622066 -0.042795118
vt -0.068637714 -0.04998291
vt -0.068637714 -0.04998291
vt -0.068637714 -0.04998291
vt -0.068637714 -0.04998291
vt -0.071311146 -0.05848601
vt -0.071311146 -0.05848601
vt -0.071311146 -0.05848601
vt -0.071311146 -0.05848601
vt -0.07253101 -0.06386217
vt -0.07253101 -0.06386217
vt -0.07253101 -0.06386217
vt -0.07253101 -0.06386217
vt -0.0724261 -0.06977123
vt -0.0724261 -0.06977123
vt -0.0724261 -0.06977123
vt -0.0724261 -0.06977123
vt -0.069461115 -0.072965674
vt -0.069461115 -0.072965674
vt -0.050247386 -0.039883986
vt -0.050247386 -0.039883986
vt -0.04801693 -0.043056965
vt -0.04801693 -0.043056965
vt -0.04801693 -0.043056965
vt -0.04801693 -0.043056965
vt -0.04770045 -0.04901505
vt -0.04770045 -0.04901505
vt -0.04770045 -0.04901505
vt -0.04770045 -0.04901505
vt -0.050030895 -0.055963214
vt -0.050030895 -0.055963214
vt -0.050030895 -0.055963214
vt -0.050030895 -0.055963214
vt -0.052447606 -0.0639325
vt -0.052447606 -0.0639325
vt -0.052447606 -0.0639325
vt -0.052447606 -0.0639325
vt -0.053807586 -0.06864844
vt -0.053807586 -0.06864844
vt -0.053807586 -0.06864844
vt -0.053807586 -0.06864844
vt -0.056735385 -0.07378225
vt -0.056735385 -0.07378225
vt -0.056735385 -0.07378225
vt -0.056735385 -0.07378225
vt -0.060869657 -0.075161904
vt -0.060869657 -0.075161904
vn -0 1 0
vn -0 1 0
vn -0 1 0
vn -0 1 0
vn -0 1 0
vn -0 1 0
vn -0 1 0
vn -0 1 0
vn -0 1 0
vn -0 1 0
vn -0 1 0
vn -0 1 0
vn -0 1 0
vn -0 1 0
vn -0 1 0
vn -0 1 0
vn -0.11235075 -0 0.9936686
vn -0.11235075 0 0.9936686
vn 0.49817663 0 0.86707556
vn 0.49817663 0 0.86707556
vn 0.88249016 0 0.47033092
vn 0.88249016 0 0.47033092
vn 0.88249016 0 0.47033092
vn 0.88249016 0 0.47033092
vn 0.99362546 0 0.11273106
vn 0.99362546 0 0.11273106
vn 0.99362546 0 0.11273106
vn 0.99362546 0 0.11273106
vn 0.9956601 0 0.093063764
vn 0.9956601 0 0.093063764
vn 0.9956601 0 0.093063764
vn 0.9956601 0 0.093063764
vn 0.9999315 0 0.011702581
vn 0.9999315 0 0.011702581
vn 0.9999315 0 0.011702581
vn 0.9999315 0 0.011702581
vn 0.97385466 0 -0.22717178
vn 0.97385466 -0 -0.22717178
vn 0.97385466 -0 -0.22717178
vn 0.97385466 -0 -0.22717178
vn 0.57386035 0 -0.81895316
vn 0.57386035 -0 -0.81895316
vn 0.038838625 0 -0.99924546
vn 0.038838625 -0 -0.99924546
vn -0.11235075 0 0.9936686
vn -0.11235075 0 0.9936686
vn -0.67919797 0 0.7339552
vn -0.67919797 0 0.7339552
vn -0.9652259 -0 0.26141736
vn -0.9652259 0 0.26141736
vn -0.9652259 0 0.26141736
vn -0.9652259 0 0.26141736
vn -0.9937132 0 -0.111955814
vn -0.9937132 0 -0.111955814
vn -0.9937132 0 -0.111955814
vn -0.9937132 0 -0.111955814
vn -0.996556 0 -0.08292218
vn -0.996556 0 -0.08292218
vn -0.996556 0 -0.08292218
vn -0.996556 0 -0.08292218
vn -0.997597 0 -0.06928381
vn -0.997597 0 -0.06928381
vn -0.997597 0 -0.06928381
vn -0.997597 0 -0.06928381
vn -0.95328337 0 -0.3020774
vn -0.95328337 0 -0.3020774
vn -0.95328337 0 -0.3020774
vn -0.95328337 0 -0.3020774
vn -0.5085618 0 -0.8610255
vn -0.5085618 0 -0.8610255
vn 0.038838625 -0 -0.99924546
vn 0.038838625 -0 -0.99924546
g _0
f 3/3/3 2/2/2 1/1/1
f 2/2/2 3/3/3 4/4/4
f 5/5/5 4/4/4 3/3/3
f 4/4/4 5/5/5 6/6/6
f 7/7/7 6/6/6 5/5/5
f 6/6/6 7/7/7 8/8/8
f 9/9/9 8/8/8 7/7/7
f 8/8/8 9/9/9 10/10/10
f 11/11/11 10/10/10 9/9/9
f 10/10/10 11/11/11 12/12/12
f 13/13/13 12/12/12 11/11/11
f 12/12/12 13/13/13 14/14/14
f 15/15/15 14/14/14 13/13/13
f 14/14/14 15/15/15 16/16/16
g _1
f 17/17/17 18/18/18 19/19/19
f 20/20/20 19/19/19 18/18/18
f 21/21/21 22/22/22 23/23/23
f 24/24/24 23/23/23 22/22/22
f 25/25/25 26/26/26 27/27/27
f 28/28/28 27/27/27 26/26/26
f 29/29/29 30/30/30 31/31/31
f 32/32/32 31/31/31 30/30/30
f 33/33/33 34/34/34 35/35/35
f 36/36/36 35/35/35 34/34/34
f 37/37/37 38/38/38 39/39/39
f 40/40/40 39/39/39 38/38/38
f 41/41/41 42/42/42 43/43/43
f 44/44/44 43/43/43 42/42/42
f 47/47/47 46/46/46 45/45/45
f 46/46/46 47/47/47 48/48/48
f 51/51/51 50/50/50 49/49/49
f 50/50/50 51/51/51 52/52/52
f 55/55/55 54/54/54 53/53/53
f 54/54/54 55/55/55 56/56/56
f 59/59/59 58/58/58 57/57/57
f 58/58/58 59/59/59 60/60/60
f 63/63/63 62/62/62 61/61/61
f 62/62/62 63/63/63 64/64/64
f 67/67/67 66/66/66 65/65/65
f 66/66/66 67/67/67 68/68/68
f 71/71/71 70/70/70 69/69/69
f 70/70/70 71/71/71 72/72/72
f 45/45/45 18/18/18 17/17/17
f 18/18/18 45/45/45 46/46/46
f 43/43/43 44/44/44 71/71/71
f 72/72/72 71/71/71 44/44/44
