g 
v 64.944855 108.41657 -122.46129
v 64.944855 94.41657 -122.46129
v 64.80746 108.41657 -119.57851
v 64.80746 94.41657 -119.57851
v 61.88069 108.41657 -117.36702
v 61.88069 94.41657 -117.36702
v 59.128277 108.41657 -117.373764
v 59.128277 94.41657 -117.373764
v 58.06608 108.41657 -121.70273
v 58.06608 94.41657 -121.70273
v 59.35482 108.41657 -122.89981
v 59.35482 94.41657 -122.89981
v 62.601273 108.41657 -123.010864
v 62.601273 94.41657 -123.010864
v 64.944855 108.41657 -122.46129
v 64.944855 94.41657 -122.46129
vt 0.17810646 -0.73705685
vt 0.17810646 -0.73705685
vt 0.17948043 -0.70822906
vt 0.17948043 -0.70822906
vt 0.20874809 -0.6861142
vt 0.20874809 -0.6861142
vt 0.23627223 -0.6861816
vt 0.23627223 -0.6861816
vt 0.24689423 -0.72947127
vt 0.24689423 -0.72947127
vt 0.2340068 -0.7414421
vt 0.2340068 -0.7414421
vt 0.20154227 -0.74255264
vt 0.20154227 -0.74255264
vt 0.17810646 -0.73705685
vt 0.17810646 -0.73705685
vn 0.9988661 0 0.047607474
vn 0.9988661 0 0.047607474
vn 0.6028596 0 0.7978473
vn 0.6028596 0 0.7978473
vn -0.0024503446 -0 0.999997
vn -0.0024503446 0 0.999997
vn -0.9711912 -0 0.23830135
vn -0.9711912 0 0.23830135
vn -0.6805712 0 -0.73268193
vn -0.6805712 0 -0.73268193
vn -0.03418764 0 -0.9994154
vn -0.03418764 0 -0.9994154
vn 0.22830898 0 -0.97358876
vn 0.22830898 -0 -0.97358876
vn 0.22830898 -0 -0.97358876
vn 0.22830898 -0 -0.97358876
g _0
f 3/3/3 2/2/2 1/1/1
f 2/2/2 3/3/3 4/4/4
f 5/5/5 4/4/4 3/3/3
f 4/4/4 5/5/5 6/6/6
f 7/7/7 6/6/6 5/5/5
f 6/6/6 7/7/7 8/8/8
f 9/9/9 8/8/8 7/7/7
f 8/8/8 9/9/9 10/10/10
f 11/11/11 10/10/10 9/9/9
f 10/10/10 11/11/11 12/12/12
f 13/13/13 12/12/12 11/11/11
f 12/12/12 13/13/13 14/14/14
f 15/15/15 14/14/14 13/13/13
f 14/14/14 15/15/15 16/16/16
