g 
v 0.18503952 17.77 -71.48826
v -4.718237 17.77 -70.81086
v 1.6089783 17.77 -74.36562
v -6.8689785 17.77 -73.194374
v 0.682075 20.83213 -79.659515
v -7.677366 20.83213 -80.46119
v 3.3814726 20.67 -86.05266
v -6.021473 20.67 -88.82735
v 2.644196 20.67 -89.656105
v -3.445994 20.67 -91.45324
v 0.18503952 17.77 -71.48826
v 0.18503952 9.150001 -71.48826
v 1.6089783 17.77 -74.36562
v 1.6089783 9.150001 -74.36562
v 1.6089783 17.77 -74.36562
v 1.6089783 9.150001 -74.36562
v 0.682075 20.83213 -79.659515
v 0.682075 12.212131 -79.659515
v 0.682075 20.83213 -79.659515
v 0.682075 12.212131 -79.659515
v 3.3814726 20.67 -86.05266
v 3.3814726 12.05 -86.05266
v 3.3814726 20.67 -86.05266
v 3.3814726 12.05 -86.05266
v 2.644196 20.67 -89.656105
v 2.644196 12.05 -89.656105
v -4.718237 17.77 -70.81086
v -4.718237 9.150001 -70.81086
v -6.8689785 17.77 -73.194374
v -6.8689785 9.150001 -73.194374
v -6.8689785 17.77 -73.194374
v -6.8689785 9.150001 -73.194374
v -7.677366 20.83213 -80.46119
v -7.677366 12.212131 -80.46119
v -7.677366 20.83213 -80.46119
v -7.677366 12.212131 -80.46119
v -6.021473 20.67 -88.82735
v -6.021473 12.05 -88.82735
v -6.021473 20.67 -88.82735
v -6.021473 12.05 -88.82735
v -3.445994 20.67 -91.45324
v -3.445994 12.05 -91.45324
vt 0.01482277 -0.09755813
vt 0.011045888 -0.09435874
vt 0.017915884 -0.09669821
vt 0.011385508 -0.091166325
vt 0.021239659 -0.092474826
vt 0.016257623 -0.08571448
vt 0.027802223 -0.09021833
vt 0.02359307 -0.0813641
vt 0.02999367 -0.08726435
vt 0.027267445 -0.081529565
vt 0.01482277 -0.09755813
vt 0.01482277 -0.09755813
vt 0.017915884 -0.09669821
vt 0.017915884 -0.09669821
vt 0.017915884 -0.09669821
vt 0.017915884 -0.09669821
vt 0.021239659 -0.092474826
vt 0.021239659 -0.092474826
vt 0.021239659 -0.092474826
vt 0.021239659 -0.092474826
vt 0.027802223 -0.09021833
vt 0.027802223 -0.09021833
vt 0.027802223 -0.09021833
vt 0.027802223 -0.09021833
vt 0.02999367 -0.08726435
vt 0.02999367 -0.08726435
vt 0.011045888 -0.09435874
vt 0.011045888 -0.09435874
vt 0.011385508 -0.091166325
vt 0.011385508 -0.091166325
vt 0.011385508 -0.091166325
vt 0.011385508 -0.091166325
vt 0.016257623 -0.08571448
vt 0.016257623 -0.08571448
vt 0.016257623 -0.08571448
vt 0.016257623 -0.08571448
vt 0.02359307 -0.0813641
vt 0.02359307 -0.0813641
vt 0.02359307 -0.0813641
vt 0.02359307 -0.0813641
vt 0.027267445 -0.081529565
vt 0.027267445 -0.081529565
vn -0 1 0
vn -0 1 0
vn -0 1 0
vn -0 1 0
vn -0 1 0
vn -0 1 0
vn -0 1 0
vn -0 1 0
vn -0 1 0
vn -0 1 0
vn 0.13685244 0 0.99059147
vn 0.13685244 0 0.99059147
vn 0.8962567 0 0.44353586
vn 0.8962567 0 0.44353586
vn 0.9850155 0 -0.17246556
vn 0.9850155 -0 -0.17246556
vn 0.9850155 -0 -0.17246556
vn 0.9850155 -0 -0.17246556
vn 0.9212459 0 0.38898066
vn 0.9212459 0 0.38898066
vn 0.9212459 0 0.38898066
vn 0.9212459 0 0.38898066
vn 0.97970384 0 -0.20045048
vn 0.97970384 -0 -0.20045048
vn 0.2830217 0 -0.9591135
vn 0.2830217 -0 -0.9591135
vn 0.13685244 0 0.99059147
vn 0.13685244 0 0.99059147
vn -0.7424295 0 0.6699242
vn -0.7424295 0 0.6699242
vn -0.99386925 -0 0.11056168
vn -0.99386925 0 0.11056168
vn -0.99386925 0 0.11056168
vn -0.99386925 0 0.11056168
vn -0.9809697 0 -0.1941609
vn -0.9809697 0 -0.1941609
vn -0.9809697 0 -0.1941609
vn -0.9809697 0 -0.1941609
vn -0.7139268 0 -0.70022035
vn -0.7139268 0 -0.70022035
vn 0.2830217 -0 -0.9591135
vn 0.2830217 -0 -0.9591135
g _0
f 3/3/3 2/2/2 1/1/1
f 2/2/2 3/3/3 4/4/4
f 5/5/5 4/4/4 3/3/3
f 4/4/4 5/5/5 6/6/6
f 7/7/7 6/6/6 5/5/5
f 6/6/6 7/7/7 8/8/8
f 9/9/9 8/8/8 7/7/7
f 8/8/8 9/9/9 10/10/10
g _1
f 11/11/11 12/12/12 13/13/13
f 14/14/14 13/13/13 12/12/12
f 15/15/15 16/16/16 17/17/17
f 18/18/18 17/17/17 16/16/16
f 19/19/19 20/20/20 21/21/21
f 22/22/22 21/21/21 20/20/20
f 23/23/23 24/24/24 25/25/25
f 26/26/26 25/25/25 24/24/24
f 29/29/29 28/28/28 27/27/27
f 28/28/28 29/29/29 30/30/30
f 33/33/33 32/32/32 31/31/31
f 32/32/32 33/33/33 34/34/34
f 37/37/37 36/36/36 35/35/35
f 36/36/36 37/37/37 38/38/38
f 41/41/41 40/40/40 39/39/39
f 40/40/40 41/41/41 42/42/42
f 27/27/27 12/12/12 11/11/11
f 12/12/12 27/27/27 28/28/28
f 25/25/25 26/26/26 41/41/41
f 42/42/42 41/41/41 26/26/26
