g 
v -9.05 61.0304 -13.02
v -9.05 39.169598 -13.02
v -11.56 61.57258 -13.78
v -11.56 38.62742 -13.78
v -12.81 61.57258 -16.33
v -12.81 38.62742 -16.33
v -18.1 61.57258 -11.22
v -18.1 38.62742 -11.22
v -17.26 61.57258 -7.98
v -17.26 38.62742 -7.98
v -15.15 61.57258 -4.86
v -15.15 38.62742 -4.86
v -15.15 61.57258 -3.5
v -15.15 38.62742 -3.5
v -14.01 61.57258 -2.95
v -14.01 38.62742 -2.95
v -12.74 61.57258 -3.34
v -12.74 38.62742 -3.34
v -12.48 61.57258 -6.03
v -12.48 38.62742 -6.03
v -10.93 61.57258 -7.33
v -10.93 38.62742 -7.33
v -9.05 61.0304 -13.02
v -9.05 39.169598 -13.02
vt 0.2695 -1.9652
vt 0.2695 -1.9652
vt 0.29459998 -1.9727999
vt 0.29459998 -1.9727999
vt 0.3071 -1.9983
vt 0.3071 -1.9983
vt 0.35999998 -1.9472
vt 0.35999998 -1.9472
vt 0.3516 -1.9147999
vt 0.3516 -1.9147999
vt 0.33049998 -1.8836
vt 0.33049998 -1.8836
vt 0.33049998 -1.87
vt 0.33049998 -1.87
vt 0.3191 -1.8644999
vt 0.3191 -1.8644999
vt 0.3064 -1.8684
vt 0.3064 -1.8684
vt 0.3038 -1.8952999
vt 0.3038 -1.8952999
vt 0.2883 -1.9082999
vt 0.2883 -1.9082999
vt 0.2695 -1.9652
vt 0.2695 -1.9652
vn 0.28979543 0 -0.9570886
vn 0.28979546 -0 -0.9570886
vn 0.8979207 0 -0.44015718
vn 0.8979207 -0 -0.44015718
vn -0.6947643 0 -0.7192375
vn -0.6947643 0 -0.7192375
vn -0.96799684 -0 0.25096217
vn -0.96799684 0 0.25096217
vn -0.82835585 -0 0.56020236
vn -0.82835585 0 0.56020236
vn -1 0 0
vn -1 0 0
vn -0.43452826 -0 0.9006582
vn -0.43452826 0 0.9006582
vn 0.2935567 0 0.9559417
vn 0.2935567 0 0.9559417
vn 0.99536145 0 0.09620602
vn 0.99536145 0 0.09620602
vn 0.64261234 0 0.7661914
vn 0.64261234 0 0.7661914
vn 0.9495144 0 0.31372356
vn 0.9495143 0 0.31372353
vn 0.9495143 0 0.31372353
vn 0.9495143 0 0.31372353
g _0
f 1/1/1 2/2/2 3/3/3
f 4/4/4 3/3/3 2/2/2
f 3/3/3 4/4/4 5/5/5
f 6/6/6 5/5/5 4/4/4
f 5/5/5 6/6/6 7/7/7
f 8/8/8 7/7/7 6/6/6
f 7/7/7 8/8/8 9/9/9
f 10/10/10 9/9/9 8/8/8
f 9/9/9 10/10/10 11/11/11
f 12/12/12 11/11/11 10/10/10
f 11/11/11 12/12/12 13/13/13
f 14/14/14 13/13/13 12/12/12
f 13/13/13 14/14/14 15/15/15
f 16/16/16 15/15/15 14/14/14
f 15/15/15 16/16/16 17/17/17
f 18/18/18 17/17/17 16/16/16
f 17/17/17 18/18/18 19/19/19
f 20/20/20 19/19/19 18/18/18
f 19/19/19 20/20/20 21/21/21
f 22/22/22 21/21/21 20/20/20
f 21/21/21 22/22/22 23/23/23
f 24/24/24 23/23/23 22/22/22
