g 
v 6.6991158 0 -54.63633
v 2.667344 0 -52.52021
v 7.786479 0 -56.359005
v 0.6319165 0 -52.603848
v 8.588047 0 -58.280975
v -1.4051898 0 -53.035904
v 7.8455033 0 -61.5156
v -3.645504 0 -55.4844
v 7.184907 0 -62.341682
v -3.9581242 0 -56.51255
v 6.997735 0 -63.597755
v -4.8470016 0 -57.319645
v 6.466632 0 -64.740616
v -5.4190483 0 -58.225048
v 5.7706814 0 -65.76614
v -5.8564963 0 -59.23116
v 5.392057 0 -66.68981
v -6.369628 0 -59.87905
v 4.7486167 0 -67.47289
v -6.6163664 0 -60.601673
v 4.1183004 0 -68.19361
v -6.90607 0 -61.369316
v 3.7786245 0 -69.00837
v -7.488327 0 -62.0418
v 3.6312194 0 -68.93356
v -7.43122 0 -62.26643
v 1.3775659 0 -71.33567
v -8.502461 0 -65.38116
v -0.62410617 0 -71.68688
v -7.8780055 0 -67.31509
v -2.863524 0 -71.5324
v -6.6953635 0 -69.22303
vt -0.18201303 -0.049705595
vt -0.18492445 -0.05320657
vt -0.18166977 -0.047697574
vt -0.18683621 -0.053910222
vt -0.18166691 -0.04561515
vt -0.18888319 -0.05429276
vt -0.18359359 -0.042912923
vt -0.19189145 -0.05289112
vt -0.18452056 -0.04240349
vt -0.19257458 -0.052061584
vt -0.1851753 -0.04131534
vt -0.19370508 -0.051657267
vt -0.18610422 -0.04046369
vt -0.19458072 -0.05104061
vt -0.18714036 -0.039783634
vt -0.19537067 -0.050279316
vt -0.18784438 -0.039075907
vt -0.19609311 -0.049877863
vt -0.188739 -0.038599603
vt -0.1965982 -0.049305197
vt -0.1895976 -0.038175855
vt -0.19716024 -0.048707437
vt -0.19022387 -0.037553757
vt -0.19795594 -0.048309796
vt -0.1903313 -0.037679393
vt -0.19798939 -0.048080448
vt -0.19333406 -0.036325708
vt -0.2001736 -0.045615043
vt -0.1953173 -0.036769312
vt -0.20033889 -0.043589525
vt -0.1973261 -0.037771124
vt -0.19997872 -0.04137386
vn -0 1 0
vn -0 1 0
vn -0 1 0
vn -0 1 0
vn -0 1 0
vn -0 1 0
vn -0 1 0
vn -0 1 0
vn -0 1 0
vn -0 1 0
vn -0 1 0
vn -0 1 0
vn -0 1 0
vn -0 1 0
vn -0 1 0
vn -0 1 0
vn -0 1 0
vn -0 1 0
vn -0 1 0
vn -0 1 0
vn -0 1 0
vn -0 1 0
vn -0 1 0
vn -0 1 0
vn -0 1 0
vn -0 1 0
vn -0 1 0
vn -0 1 0
vn -0 1 0
vn -0 1 0
vn -0 1 0
vn -0 1 0
g _0
f 3/3/3 2/2/2 1/1/1
f 2/2/2 3/3/3 4/4/4
f 5/5/5 4/4/4 3/3/3
f 4/4/4 5/5/5 6/6/6
f 7/7/7 6/6/6 5/5/5
f 6/6/6 7/7/7 8/8/8
f 9/9/9 8/8/8 7/7/7
f 8/8/8 9/9/9 10/10/10
f 11/11/11 10/10/10 9/9/9
f 10/10/10 11/11/11 12/12/12
f 13/13/13 12/12/12 11/11/11
f 12/12/12 13/13/13 14/14/14
f 15/15/15 14/14/14 13/13/13
f 14/14/14 15/15/15 16/16/16
f 17/17/17 16/16/16 15/15/15
f 16/16/16 17/17/17 18/18/18
f 19/19/19 18/18/18 17/17/17
f 18/18/18 19/19/19 20/20/20
f 21/21/21 20/20/20 19/19/19
f 20/20/20 21/21/21 22/22/22
f 23/23/23 22/22/22 21/21/21
f 22/22/22 23/23/23 24/24/24
f 25/25/25 24/24/24 23/23/23
f 24/24/24 25/25/25 26/26/26
f 27/27/27 26/26/26 25/25/25
f 26/26/26 27/27/27 28/28/28
f 29/29/29 28/28/28 27/27/27
f 28/28/28 29/29/29 30/30/30
f 31/31/31 30/30/30 29/29/29
f 30/30/30 31/31/31 32/32/32
