g 
v -188.10304 0 -99.77965
v -185.31566 0 -120.50789
v -184.58055 0 -90.395676
v -179.43935 0 -128.62798
v -179.36504 0 -82.81353
v -172.40611 0 -134.56299
v -165.07654 0 -77.128876
v -157.12347 0 -136.27112
v -156.44946 0 -75.77964
v -148.44647 0 -135.29343
v -146.86382 0 -74.280495
v -138.80533 0 -134.20709
v -138.15262 0 -72.911896
v -128.2898 0 -132.99022
v -129.86758 0 -70.94618
v -117.403244 0 -131.23769
v -120.74797 0 -68.53295
v -107.374916 0 -129.44719
v -113.86124 0 -66.729675
v -95.113716 0 -127.04675
v -109.09401 0 -64.4023
v -81.75862 0 -121.99365
v -102.05965 0 -60.261864
v -71.354385 0 -116.63577
v -97.00058 0 -57.56485
v -58.974854 0 -109.83449
v -95.242805 0 -56.51213
v -46.70214 0 -97.49202
v -93.57994 0 -56.697987
v -37.376934 0 -81.06687
v -91.544685 0 -52.600147
v -35.357323 0 -66.70982
v -86.7751 0 -41.261864
v -34.983154 0 -59.872356
v -79.57714 0 -27.73954
v -34.496647 0 -55.87024
v -69.10797 0 -15.888155
v -32.82332 0 -53.472614
v -57.20559 0 -6.6031227
v -29.611174 0 -50.692276
v -44.624416 0 -0.6431446
v -24.611687 0 -48.25444
v -33.223335 0 3.3181438
v -17.375195 0 -45.389732
v -22.6867 0 6.2002125
v -9.195907 0 -42.944046
v -13.0585785 0 8.634371
v -0.08852196 0 -40.42501
v -11.179468 0 9.108669
v 1.7794704 0 -39.90867
v 1.8848009 0 9.284819
v 13.223871 0 -33.605347
v 8.441618 0 5.025223
v 16.818876 0 -26.66187
v 14.254202 0 -1.1987925
v 18.79606 0 -18.378437
v -188.10304 0 -99.77965
v -188.10304 -15 -99.77965
v -184.58055 0 -90.395676
v -184.58055 -15 -90.395676
v -184.58055 0 -90.395676
v -184.58055 -15 -90.395676
v -179.36504 0 -82.81353
v -179.36504 -15 -82.81353
v -179.36504 0 -82.81353
v -179.36504 -15 -82.81353
v -165.07654 0 -77.128876
v -165.07654 -15 -77.128876
v -165.07654 0 -77.128876
v -165.07654 -15 -77.128876
v -156.44946 0 -75.77964
v -156.44946 -15 -75.77964
v -156.44946 0 -75.77964
v -156.44946 -15 -75.77964
v -146.86382 0 -74.280495
v -146.86382 -15 -74.280495
v -146.86382 0 -74.280495
v -146.86382 -15 -74.280495
v -138.15262 0 -72.911896
v -138.15262 -15 -72.911896
v -138.15262 0 -72.911896
v -138.15262 -15 -72.911896
v -129.86758 0 -70.94618
v -129.86758 -15 -70.94618
v -129.86758 0 -70.94618
v -129.86758 -15 -70.94618
v -120.74797 0 -68.53295
v -120.74797 -15 -68.53295
v -120.74797 0 -68.53295
v -120.74797 -15 -68.53295
v -113.86124 0 -66.729675
v -113.86124 -15 -66.729675
v -113.86124 0 -66.729675
v -113.86124 -15 -66.729675
v -109.09401 0 -64.4023
v -109.09401 -15 -64.4023
v -109.09401 0 -64.4023
v -109.09401 -15 -64.4023
v -102.05965 0 -60.261864
v -102.05965 -15 -60.261864
v -102.05965 0 -60.261864
v -102.05965 -15 -60.261864
v -97.00058 0 -57.56485
v -97.00058 -15 -57.56485
v -97.00058 0 -57.56485
v -97.00058 -15 -57.56485
v -95.242805 0 -56.51213
v -95.242805 -15 -56.51213
v -95.242805 0 -56.51213
v -95.242805 -15 -56.51213
v -93.57994 0 -56.697987
v -93.57994 -15 -56.697987
v -93.57994 0 -56.697987
v -93.57994 -15 -56.697987
v -91.544685 0 -52.600147
v -91.544685 -15 -52.600147
v -91.544685 0 -52.600147
v -91.544685 -15 -52.600147
v -86.7751 0 -41.261864
v -86.7751 -15 -41.261864
v -86.7751 0 -41.261864
v -86.7751 -15 -41.261864
v -79.57714 0 -27.73954
v -79.57714 -15 -27.73954
v -79.57714 0 -27.73954
v -79.57714 -15 -27.73954
v -69.10797 0 -15.888155
v -69.10797 -15 -15.888155
v -69.10797 0 -15.888155
v -69.10797 -15 -15.888155
v -57.20559 0 -6.6031227
v -57.20559 -15 -6.6031227
v -57.20559 0 -6.6031227
v -57.20559 -15 -6.6031227
v -44.624416 0 -0.6431446
v -44.624416 -15 -0.6431446
v -44.624416 0 -0.6431446
v -44.624416 -15 -0.6431446
v -33.223335 0 3.3181438
v -33.223335 -15 3.3181438
v -33.223335 0 3.3181438
v -33.223335 -15 3.3181438
v -22.6867 0 6.2002125
v -22.6867 -15 6.2002125
v -22.6867 0 6.2002125
v -22.6867 -15 6.2002125
v -13.0585785 0 8.634371
v -13.0585785 -15 8.634371
v -13.0585785 0 8.634371
v -13.0585785 -15 8.634371
v -11.179468 0 9.108669
v -11.179468 -15 9.108669
v -11.179468 0 9.108669
v -11.179468 -15 9.108669
v 1.8848009 0 9.284819
v 1.8848009 -15 9.284819
v 1.8848009 0 9.284819
v 1.8848009 -15 9.284819
v 8.441618 0 5.025223
v 8.441618 -15 5.025223
v 8.441618 0 5.025223
v 8.441618 -15 5.025223
v 14.254202 0 -1.1987925
v 14.254202 -15 -1.1987925
v -185.31566 0 -120.50789
v -185.31566 -15 -120.50789
v -179.43935 0 -128.62798
v -179.43935 -15 -128.62798
v -179.43935 0 -128.62798
v -179.43935 -15 -128.62798
v -172.40611 0 -134.56299
v -172.40611 -15 -134.56299
v -172.40611 0 -134.56299
v -172.40611 -15 -134.56299
v -157.12347 0 -136.27112
v -157.12347 -15 -136.27112
v -157.12347 0 -136.27112
v -157.12347 -15 -136.27112
v -148.44647 0 -135.29343
v -148.44647 -15 -135.29343
v -148.44647 0 -135.29343
v -148.44647 -15 -135.29343
v -138.80533 0 -134.20709
v -138.80533 -15 -134.20709
v -138.80533 0 -134.20709
v -138.80533 -15 -134.20709
v -128.2898 0 -132.99022
v -128.2898 -15 -132.99022
v -128.2898 0 -132.99022
v -128.2898 -15 -132.99022
v -117.403244 0 -131.23769
v -117.403244 -15 -131.23769
v -117.403244 0 -131.23769
v -117.403244 -15 -131.23769
v -107.374916 0 -129.44719
v -107.374916 -15 -129.44719
v -107.374916 0 -129.44719
v -107.374916 -15 -129.44719
v -95.113716 0 -127.04675
v -95.113716 -15 -127.04675
v -95.113716 0 -127.04675
v -95.113716 -15 -127.04675
v -81.75862 0 -121.99365
v -81.75862 -15 -121.99365
v -81.75862 0 -121.99365
v -81.75862 -15 -121.99365
v -71.354385 0 -116.63577
v -71.354385 -15 -116.63577
v -71.354385 0 -116.63577
v -71.354385 -15 -116.63577
v -58.974854 0 -109.83449
v -58.974854 -15 -109.83449
v -58.974854 0 -109.83449
v -58.974854 -15 -109.83449
v -46.70214 0 -97.49202
v -46.70214 -15 -97.49202
v -46.70214 0 -97.49202
v -46.70214 -15 -97.49202
v -37.376934 0 -81.06687
v -37.376934 -15 -81.06687
v -37.376934 0 -81.06687
v -37.376934 -15 -81.06687
v -35.357323 0 -66.70982
v -35.357323 -15 -66.70982
v -35.357323 0 -66.70982
v -35.357323 -15 -66.70982
v -34.983154 0 -59.872356
v -34.983154 -15 -59.872356
v -34.983154 0 -59.872356
v -34.983154 -15 -59.872356
v -34.496647 0 -55.87024
v -34.496647 -15 -55.87024
v -34.496647 0 -55.87024
v -34.496647 -15 -55.87024
v -32.82332 0 -53.472614
v -32.82332 -15 -53.472614
v -32.82332 0 -53.472614
v -32.82332 -15 -53.472614
v -29.611174 0 -50.692276
v -29.611174 -15 -50.692276
v -29.611174 0 -50.692276
v -29.611174 -15 -50.692276
v -24.611687 0 -48.25444
v -24.611687 -15 -48.25444
v -24.611687 0 -48.25444
v -24.611687 -15 -48.25444
v -17.375195 0 -45.389732
v -17.375195 -15 -45.389732
v -17.375195 0 -45.389732
v -17.375195 -15 -45.389732
v -9.195907 0 -42.944046
v -9.195907 -15 -42.944046
v -9.195907 0 -42.944046
v -9.195907 -15 -42.944046
v -0.08852196 0 -40.42501
v -0.08852196 -15 -40.42501
v -0.08852196 0 -40.42501
v -0.08852196 -15 -40.42501
v 1.7794704 0 -39.90867
v 1.7794704 -15 -39.90867
v 1.7794704 0 -39.90867
v 1.7794704 -15 -39.90867
v 13.223871 0 -33.605347
v 13.223871 -15 -33.605347
v 13.223871 0 -33.605347
v 13.223871 -15 -33.605347
v 16.818876 0 -26.66187
v 16.818876 -15 -26.66187
v 16.818876 0 -26.66187
v 16.818876 -15 -26.66187
v 18.79606 0 -18.378437
v 18.79606 -15 -18.378437
vt -0.012296952 -0.014779649
vt -0.015084336 -0.03550789
vt -0.015819443 -0.005395676
vt -0.02096065 -0.043627977
vt -0.02103496 0.0021864702
vt -0.027993882 -0.04956299
vt -0.035323456 0.007871125
vt -0.043276522 -0.051271122
vt -0.04395053 0.00922036
vt -0.051953524 -0.05029343
vt -0.05353618 0.010719506
vt -0.06159467 -0.049207095
vt -0.062247377 0.012088105
vt -0.072110206 -0.04799022
vt -0.07053241 0.014053819
vt -0.082996756 -0.04623769
vt -0.07965203 0.01646705
vt -0.09302508 -0.04444719
vt -0.08653876 0.018270325
vt -0.105286285 -0.042046756
vt -0.091305986 0.020597704
vt -0.11864138 -0.036993653
vt -0.098340355 0.024738137
vt -0.12904562 -0.031635772
vt -0.10339942 0.027435152
vt -0.14142515 -0.02483449
vt -0.1051572 0.02848787
vt -0.15369785 -0.012492021
vt -0.10682006 0.028302014
vt -0.16302307 0.0039331284
vt -0.108855315 0.032399856
vt -0.16504267 0.018290177
vt -0.1136249 0.043738138
vt -0.16541685 0.025127646
vt -0.12082286 0.05726046
vt -0.16590336 0.029129762
vt -0.13129203 0.069111854
vt -0.16757669 0.03152739
vt -0.1431944 0.07839689
vt -0.17078882 0.034307726
vt -0.15577558 0.08435686
vt -0.17578831 0.036745563
vt -0.16717668 0.08831815
vt -0.18302481 0.03961027
vt -0.17771329 0.09120022
vt -0.1912041 0.042055957
vt -0.18734142 0.093634374
vt -0.20031148 0.04457499
vt -0.18922053 0.09410868
vt -0.20217946 0.045091335
vt -0.2022848 0.094284825
vt -0.21362388 0.051394656
vt -0.20884162 0.090025224
vt -0.21721888 0.058338135
vt -0.2146542 0.08380121
vt -0.21919607 0.06662157
vt -0.012296952 -0.014779649
vt -0.012296952 -0.014779649
vt -0.015819443 -0.005395676
vt -0.015819443 -0.005395676
vt -0.015819443 -0.005395676
vt -0.015819443 -0.005395676
vt -0.02103496 0.0021864702
vt -0.02103496 0.0021864702
vt -0.02103496 0.0021864702
vt -0.02103496 0.0021864702
vt -0.035323456 0.007871125
vt -0.035323456 0.007871125
vt -0.035323456 0.007871125
vt -0.035323456 0.007871125
vt -0.04395053 0.00922036
vt -0.04395053 0.00922036
vt -0.04395053 0.00922036
vt -0.04395053 0.00922036
vt -0.05353618 0.010719506
vt -0.05353618 0.010719506
vt -0.05353618 0.010719506
vt -0.05353618 0.010719506
vt -0.062247377 0.012088105
vt -0.062247377 0.012088105
vt -0.062247377 0.012088105
vt -0.062247377 0.012088105
vt -0.07053241 0.014053819
vt -0.07053241 0.014053819
vt -0.07053241 0.014053819
vt -0.07053241 0.014053819
vt -0.07965203 0.01646705
vt -0.07965203 0.01646705
vt -0.07965203 0.01646705
vt -0.07965203 0.01646705
vt -0.08653876 0.018270325
vt -0.08653876 0.018270325
vt -0.08653876 0.018270325
vt -0.08653876 0.018270325
vt -0.091305986 0.020597704
vt -0.091305986 0.020597704
vt -0.091305986 0.020597704
vt -0.091305986 0.020597704
vt -0.098340355 0.024738137
vt -0.098340355 0.024738137
vt -0.098340355 0.024738137
vt -0.098340355 0.024738137
vt -0.10339942 0.027435152
vt -0.10339942 0.027435152
vt -0.10339942 0.027435152
vt -0.10339942 0.027435152
vt -0.1051572 0.02848787
vt -0.1051572 0.02848787
vt -0.1051572 0.02848787
vt -0.1051572 0.02848787
vt -0.10682006 0.028302014
vt -0.10682006 0.028302014
vt -0.10682006 0.028302014
vt -0.10682006 0.028302014
vt -0.108855315 0.032399856
vt -0.108855315 0.032399856
vt -0.108855315 0.032399856
vt -0.108855315 0.032399856
vt -0.1136249 0.043738138
vt -0.1136249 0.043738138
vt -0.1136249 0.043738138
vt -0.1136249 0.043738138
vt -0.12082286 0.05726046
vt -0.12082286 0.05726046
vt -0.12082286 0.05726046
vt -0.12082286 0.05726046
vt -0.13129203 0.069111854
vt -0.13129203 0.069111854
vt -0.13129203 0.069111854
vt -0.13129203 0.069111854
vt -0.1431944 0.07839689
vt -0.1431944 0.07839689
vt -0.1431944 0.07839689
vt -0.1431944 0.07839689
vt -0.15577558 0.08435686
vt -0.15577558 0.08435686
vt -0.15577558 0.08435686
vt -0.15577558 0.08435686
vt -0.16717668 0.08831815
vt -0.16717668 0.08831815
vt -0.16717668 0.08831815
vt -0.16717668 0.08831815
vt -0.17771329 0.09120022
vt -0.17771329 0.09120022
vt -0.17771329 0.09120022
vt -0.17771329 0.09120022
vt -0.18734142 0.093634374
vt -0.18734142 0.093634374
vt -0.18734142 0.093634374
vt -0.18734142 0.093634374
vt -0.18922053 0.09410868
vt -0.18922053 0.09410868
vt -0.18922053 0.09410868
vt -0.18922053 0.09410868
vt -0.2022848 0.094284825
vt -0.2022848 0.094284825
vt -0.2022848 0.094284825
vt -0.2022848 0.094284825
vt -0.20884162 0.090025224
vt -0.20884162 0.090025224
vt -0.20884162 0.090025224
vt -0.20884162 0.090025224
vt -0.2146542 0.08380121
vt -0.2146542 0.08380121
vt -0.015084336 -0.03550789
vt -0.015084336 -0.03550789
vt -0.02096065 -0.043627977
vt -0.02096065 -0.043627977
vt -0.02096065 -0.043627977
vt -0.02096065 -0.043627977
vt -0.027993882 -0.04956299
vt -0.027993882 -0.04956299
vt -0.027993882 -0.04956299
vt -0.027993882 -0.04956299
vt -0.043276522 -0.051271122
vt -0.043276522 -0.051271122
vt -0.043276522 -0.051271122
vt -0.043276522 -0.051271122
vt -0.051953524 -0.05029343
vt -0.051953524 -0.05029343
vt -0.051953524 -0.05029343
vt -0.051953524 -0.05029343
vt -0.06159467 -0.049207095
vt -0.06159467 -0.049207095
vt -0.06159467 -0.049207095
vt -0.06159467 -0.049207095
vt -0.072110206 -0.04799022
vt -0.072110206 -0.04799022
vt -0.072110206 -0.04799022
vt -0.072110206 -0.04799022
vt -0.082996756 -0.04623769
vt -0.082996756 -0.04623769
vt -0.082996756 -0.04623769
vt -0.082996756 -0.04623769
vt -0.09302508 -0.04444719
vt -0.09302508 -0.04444719
vt -0.09302508 -0.04444719
vt -0.09302508 -0.04444719
vt -0.105286285 -0.042046756
vt -0.105286285 -0.042046756
vt -0.105286285 -0.042046756
vt -0.105286285 -0.042046756
vt -0.11864138 -0.036993653
vt -0.11864138 -0.036993653
vt -0.11864138 -0.036993653
vt -0.11864138 -0.036993653
vt -0.12904562 -0.031635772
vt -0.12904562 -0.031635772
vt -0.12904562 -0.031635772
vt -0.12904562 -0.031635772
vt -0.14142515 -0.02483449
vt -0.14142515 -0.02483449
vt -0.14142515 -0.02483449
vt -0.14142515 -0.02483449
vt -0.15369785 -0.012492021
vt -0.15369785 -0.012492021
vt -0.15369785 -0.012492021
vt -0.15369785 -0.012492021
vt -0.16302307 0.0039331284
vt -0.16302307 0.0039331284
vt -0.16302307 0.0039331284
vt -0.16302307 0.0039331284
vt -0.16504267 0.018290177
vt -0.16504267 0.018290177
vt -0.16504267 0.018290177
vt -0.16504267 0.018290177
vt -0.16541685 0.025127646
vt -0.16541685 0.025127646
vt -0.16541685 0.025127646
vt -0.16541685 0.025127646
vt -0.16590336 0.029129762
vt -0.16590336 0.029129762
vt -0.16590336 0.029129762
vt -0.16590336 0.029129762
vt -0.16757669 0.03152739
vt -0.16757669 0.03152739
vt -0.16757669 0.03152739
vt -0.16757669 0.03152739
vt -0.17078882 0.034307726
vt -0.17078882 0.034307726
vt -0.17078882 0.034307726
vt -0.17078882 0.034307726
vt -0.17578831 0.036745563
vt -0.17578831 0.036745563
vt -0.17578831 0.036745563
vt -0.17578831 0.036745563
vt -0.18302481 0.03961027
vt -0.18302481 0.03961027
vt -0.18302481 0.03961027
vt -0.18302481 0.03961027
vt -0.1912041 0.042055957
vt -0.1912041 0.042055957
vt -0.1912041 0.042055957
vt -0.1912041 0.042055957
vt -0.20031148 0.04457499
vt -0.20031148 0.04457499
vt -0.20031148 0.04457499
vt -0.20031148 0.04457499
vt -0.20217946 0.045091335
vt -0.20217946 0.045091335
vt -0.20217946 0.045091335
vt -0.20217946 0.045091335
vt -0.21362388 0.051394656
vt -0.21362388 0.051394656
vt -0.21362388 0.051394656
vt -0.21362388 0.051394656
vt -0.21721888 0.058338135
vt -0.21721888 0.058338135
vt -0.21721888 0.058338135
vt -0.21721888 0.058338135
vt -0.21919607 0.06662157
vt -0.21919607 0.06662157
vn -0 1 0
vn -0 1 0
vn -0 1 0
vn -0 1 0
vn -0 1 0
vn -0 1 0
vn -0 1 0
vn -0 1 0
vn -0 1 0
vn -0 1 0
vn -0 1 0
vn -0 1 0
vn -0 1 0
vn -0 1 0
vn -0 1 0
vn -0 1 0
vn -0 1 0
vn -0 1 0
vn -0 1 0
vn -0 1 0
vn -0 1 0
vn -0 1 0
vn -0 1 0
vn -0 1 0
vn -0 1 0
vn -0 1 0
vn -0 1 0
vn -0 1 0
vn -0 1 0
vn -0 1 0
vn -0 1 0
vn -0 1 0
vn -0 1 0
vn -0 1 0
vn -0 1 0
vn -0 1 0
vn -0 1 0
vn -0 1 0
vn -0 1 0
vn -0 1 0
vn -0 1 0
vn -0 1 0
vn -0 1 0
vn -0 1 0
vn -0 1 0
vn -0 1 0
vn -0 1 0
vn -0 1 0
vn -0 1 0
vn -0 1 0
vn -0 1 0
vn -0 1 0
vn -0 1 0
vn -0 1 0
vn -0 1 0
vn -0 1 0
vn -0.99107933 0 -0.13327318
vn -0.99107933 0 -0.13327318
vn -0.93621427 0 0.35142973
vn -0.93621427 0 0.35142973
vn -0.8239004 -0 0.5667347
vn -0.8239004 0 0.5667347
vn -0.8239004 0 0.5667347
vn -0.8239004 0 0.5667347
vn -0.3696665 -0 0.9291645
vn -0.3696665 0 0.9291645
vn -0.3696665 0 0.9291645
vn -0.3696665 0 0.9291645
vn -0.15451719 -0 0.98799014
vn -0.15451719 0 0.98799014
vn -0.15451719 0 0.98799014
vn -0.15451719 0 0.98799014
vn -0.15451653 -0 0.9879902
vn -0.15451653 0 0.9879902
vn -0.15451653 0 0.9879902
vn -0.15451653 0 0.9879902
vn -0.15520427 -0 0.98788244
vn -0.15520427 0 0.98788244
vn -0.15520427 0 0.98788244
vn -0.15520427 0 0.98788244
vn -0.23085208 -0 0.97298884
vn -0.23085208 0 0.97298884
vn -0.23085208 0 0.97298884
vn -0.23085208 0 0.97298884
vn -0.25581485 -0 0.96672577
vn -0.25581485 0 0.96672577
vn -0.25581485 0 0.96672577
vn -0.25581485 0 0.96672577
vn -0.25330782 -0 0.9673857
vn -0.25330782 0 0.9673857
vn -0.25330782 0 0.9673857
vn -0.25330782 0 0.9673857
vn -0.438713 -0 0.8986272
vn -0.438713 0 0.8986272
vn -0.438713 0 0.8986272
vn -0.438713 0 0.8986272
vn -0.50725436 -0 0.8617964
vn -0.50725436 0 0.8617964
vn -0.50725436 0 0.8617964
vn -0.50725436 0 0.8617964
vn -0.4704314 -0 0.88243663
vn -0.4704314 0 0.88243663
vn -0.4704314 0 0.88243663
vn -0.4704314 0 0.88243663
vn -0.5137974 -0 0.8579116
vn -0.5137974 0 0.8579116
vn -0.5137974 0 0.8579116
vn -0.5137974 0 0.8579116
vn 0.11107684 0 0.9938118
vn 0.11107684 0 0.9938118
vn 0.11107684 0 0.9938118
vn 0.11107684 0 0.9938118
vn -0.89561856 -0 0.44482285
vn -0.89561856 0 0.44482285
vn -0.89561856 0 0.44482285
vn -0.89561856 0 0.44482285
vn -0.9217641 -0 0.3877511
vn -0.9217641 0 0.3877511
vn -0.9217641 0 0.3877511
vn -0.9217641 0 0.3877511
vn -0.88273066 -0 0.4698793
vn -0.88273066 0 0.4698793
vn -0.88273066 0 0.4698793
vn -0.88273066 0 0.4698793
vn -0.74945927 -0 0.6620505
vn -0.74945927 0 0.6620505
vn -0.74945927 0 0.6620505
vn -0.74945927 0 0.6620505
vn -0.6150801 -0 0.7884646
vn -0.6150801 0 0.7884646
vn -0.6150801 0 0.7884646
vn -0.6150801 0 0.7884646
vn -0.42811424 -0 0.9037246
vn -0.42811424 0 0.9037246
vn -0.42811424 0 0.9037246
vn -0.42811424 0 0.9037246
vn -0.32820243 -0 0.94460744
vn -0.32820243 0 0.94460744
vn -0.32820243 0 0.94460744
vn -0.32820243 0 0.94460744
vn -0.26383656 -0 0.9645674
vn -0.26383656 0 0.9645674
vn -0.26383656 0 0.9645674
vn -0.26383656 0 0.9645674
vn -0.2451057 -0 0.9694963
vn -0.2451057 0 0.9694963
vn -0.2451057 0 0.9694963
vn -0.2451057 0 0.9694963
vn -0.24473049 -0 0.96959114
vn -0.24473049 0 0.96959114
vn -0.24473049 0 0.96959114
vn -0.24473049 0 0.96959114
vn -0.013482068 -0 0.99990916
vn -0.013482068 0 0.99990916
vn -0.013482068 0 0.99990916
vn -0.013482068 0 0.99990916
vn 0.54477835 0 0.8385801
vn 0.54477835 0 0.8385801
vn 0.54477835 0 0.8385801
vn 0.54477835 0 0.8385801
vn 0.73085004 0 0.68253803
vn 0.73085004 0 0.68253803
vn 0.9667845 0 0.2555931
vn 0.9667845 0 0.2555931
vn -0.99107933 0 -0.13327318
vn -0.99107933 0 -0.13327318
vn -0.81011987 0 -0.5862643
vn -0.81011987 0 -0.5862643
vn -0.6449168 0 -0.76425284
vn -0.6449168 0 -0.76425284
vn -0.6449168 0 -0.76425284
vn -0.6449168 0 -0.76425284
vn -0.111077644 0 -0.9938117
vn -0.111077644 0 -0.9938117
vn -0.111077644 0 -0.9938117
vn -0.111077644 0 -0.9938117
vn 0.11196768 0 -0.9937119
vn 0.11196768 -0 -0.9937119
vn 0.11196768 -0 -0.9937119
vn 0.11196768 -0 -0.9937119
vn 0.11196836 0 -0.9937117
vn 0.11196836 -0 -0.9937117
vn 0.11196836 -0 -0.9937117
vn 0.11196836 -0 -0.9937117
vn 0.114954345 0 -0.9933708
vn 0.114954345 -0 -0.9933708
vn 0.114954345 -0 -0.9933708
vn 0.114954345 -0 -0.9933708
vn 0.15893523 0 -0.987289
vn 0.15893523 -0 -0.987289
vn 0.15893523 -0 -0.987289
vn 0.15893523 -0 -0.987289
vn 0.17576437 0 -0.9844322
vn 0.17576437 -0 -0.9844322
vn 0.17576437 -0 -0.9844322
vn 0.17576437 -0 -0.9844322
vn 0.19212769 0 -0.9813699
vn 0.19212769 -0 -0.9813699
vn 0.19212769 -0 -0.9813699
vn 0.19212769 -0 -0.9813699
vn 0.35388118 0 -0.9352904
vn 0.35388118 -0 -0.9352904
vn 0.35388118 -0 -0.9352904
vn 0.35388118 -0 -0.9352904
vn 0.45782977 0 -0.88903993
vn 0.45782977 -0 -0.88903993
vn 0.45782977 -0 -0.88903993
vn 0.45782977 -0 -0.88903993
vn 0.48151335 0 -0.8764388
vn 0.48151335 -0 -0.8764388
vn 0.48151335 -0 -0.8764388
vn 0.48151335 -0 -0.8764388
vn 0.70910776 0 -0.7051001
vn 0.70910776 -0 -0.7051001
vn 0.70910776 -0 -0.7051001
vn 0.70910776 -0 -0.7051001
vn 0.86962175 0 -0.49371865
vn 0.86962175 -0 -0.49371865
vn 0.86962175 -0 -0.49371865
vn 0.86962175 -0 -0.49371865
vn 0.99025035 0 -0.1392989
vn 0.99025035 -0 -0.1392989
vn 0.99025035 -0 -0.1392989
vn 0.99025035 -0 -0.1392989
vn 0.99850607 0 -0.05464149
vn 0.99850607 -0 -0.05464149
vn 0.99850607 -0 -0.05464149
vn 0.99850607 -0 -0.05464149
vn 0.9926922 0 -0.12067415
vn 0.9926922 -0 -0.12067415
vn 0.9926922 -0 -0.12067415
vn 0.9926922 -0 -0.12067415
vn 0.82003593 0 -0.57231194
vn 0.82003593 -0 -0.57231194
vn 0.82003593 -0 -0.57231194
vn 0.82003593 -0 -0.57231194
vn 0.65445715 0 -0.7560991
vn 0.65445715 -0 -0.7560991
vn 0.65445715 -0 -0.7560991
vn 0.65445715 -0 -0.7560991
vn 0.43828738 0 -0.89883494
vn 0.43828738 -0 -0.89883494
vn 0.43828738 -0 -0.89883494
vn 0.43828738 -0 -0.89883494
vn 0.3680777 0 -0.929795
vn 0.3680777 -0 -0.929795
vn 0.3680777 -0 -0.929795
vn 0.3680777 -0 -0.929795
vn 0.2864773 0 -0.958087
vn 0.2864773 -0 -0.958087
vn 0.2864773 -0 -0.958087
vn 0.2864773 -0 -0.958087
vn 0.26658326 0 -0.96381193
vn 0.26658326 -0 -0.96381193
vn 0.26658326 -0 -0.96381193
vn 0.26658326 -0 -0.96381193
vn 0.26642472 0 -0.96385574
vn 0.26642472 -0 -0.96385574
vn 0.26642472 -0 -0.96385574
vn 0.26642472 -0 -0.96385574
vn 0.48244172 0 -0.8759281
vn 0.48244172 -0 -0.8759281
vn 0.48244172 -0 -0.8759281
vn 0.48244172 -0 -0.8759281
vn 0.88803226 0 -0.4597812
vn 0.88803226 -0 -0.4597812
vn 0.88803226 -0 -0.4597812
vn 0.88803226 -0 -0.4597812
vn 0.9726754 0 -0.23216929
vn 0.9726754 -0 -0.23216929
vn 0.9667845 0 0.2555931
vn 0.9667845 0 0.2555931
g _0
f 3/3/3 2/2/2 1/1/1
f 2/2/2 3/3/3 4/4/4
f 5/5/5 4/4/4 3/3/3
f 4/4/4 5/5/5 6/6/6
f 7/7/7 6/6/6 5/5/5
f 6/6/6 7/7/7 8/8/8
f 9/9/9 8/8/8 7/7/7
f 8/8/8 9/9/9 10/10/10
f 11/11/11 10/10/10 9/9/9
f 10/10/10 11/11/11 12/12/12
f 13/13/13 12/12/12 11/11/11
f 12/12/12 13/13/13 14/14/14
f 15/15/15 14/14/14 13/13/13
f 14/14/14 15/15/15 16/16/16
f 17/17/17 16/16/16 15/15/15
f 16/16/16 17/17/17 18/18/18
f 19/19/19 18/18/18 17/17/17
f 18/18/18 19/19/19 20/20/20
f 21/21/21 20/20/20 19/19/19
f 20/20/20 21/21/21 22/22/22
f 23/23/23 22/22/22 21/21/21
f 22/22/22 23/23/23 24/24/24
f 25/25/25 24/24/24 23/23/23
f 24/24/24 25/25/25 26/26/26
f 27/27/27 26/26/26 25/25/25
f 26/26/26 27/27/27 28/28/28
f 29/29/29 28/28/28 27/27/27
f 28/28/28 29/29/29 30/30/30
f 31/31/31 30/30/30 29/29/29
f 30/30/30 31/31/31 32/32/32
f 33/33/33 32/32/32 31/31/31
f 32/32/32 33/33/33 34/34/34
f 35/35/35 34/34/34 33/33/33
f 34/34/34 35/35/35 36/36/36
f 37/37/37 36/36/36 35/35/35
f 36/36/36 37/37/37 38/38/38
f 39/39/39 38/38/38 37/37/37
f 38/38/38 39/39/39 40/40/40
f 41/41/41 40/40/40 39/39/39
f 40/40/40 41/41/41 42/42/42
f 43/43/43 42/42/42 41/41/41
f 42/42/42 43/43/43 44/44/44
f 45/45/45 44/44/44 43/43/43
f 44/44/44 45/45/45 46/46/46
f 47/47/47 46/46/46 45/45/45
f 46/46/46 47/47/47 48/48/48
f 49/49/49 48/48/48 47/47/47
f 48/48/48 49/49/49 50/50/50
f 51/51/51 50/50/50 49/49/49
f 50/50/50 51/51/51 52/52/52
f 53/53/53 52/52/52 51/51/51
f 52/52/52 53/53/53 54/54/54
f 55/55/55 54/54/54 53/53/53
f 54/54/54 55/55/55 56/56/56
g _1
f 57/57/57 58/58/58 59/59/59
f 60/60/60 59/59/59 58/58/58
f 61/61/61 62/62/62 63/63/63
f 64/64/64 63/63/63 62/62/62
f 65/65/65 66/66/66 67/67/67
f 68/68/68 67/67/67 66/66/66
f 69/69/69 70/70/70 71/71/71
f 72/72/72 71/71/71 70/70/70
f 73/73/73 74/74/74 75/75/75
f 76/76/76 75/75/75 74/74/74
f 77/77/77 78/78/78 79/79/79
f 80/80/80 79/79/79 78/78/78
f 81/81/81 82/82/82 83/83/83
f 84/84/84 83/83/83 82/82/82
f 85/85/85 86/86/86 87/87/87
f 88/88/88 87/87/87 86/86/86
f 89/89/89 90/90/90 91/91/91
f 92/92/92 91/91/91 90/90/90
f 93/93/93 94/94/94 95/95/95
f 96/96/96 95/95/95 94/94/94
f 97/97/97 98/98/98 99/99/99
f 100/100/100 99/99/99 98/98/98
f 101/101/101 102/102/102 103/103/103
f 104/104/104 103/103/103 102/102/102
f 105/105/105 106/106/106 107/107/107
f 108/108/108 107/107/107 106/106/106
f 109/109/109 110/110/110 111/111/111
f 112/112/112 111/111/111 110/110/110
f 113/113/113 114/114/114 115/115/115
f 116/116/116 115/115/115 114/114/114
f 117/117/117 118/118/118 119/119/119
f 120/120/120 119/119/119 118/118/118
f 121/121/121 122/122/122 123/123/123
f 124/124/124 123/123/123 122/122/122
f 125/125/125 126/126/126 127/127/127
f 128/128/128 127/127/127 126/126/126
f 129/129/129 130/130/130 131/131/131
f 132/132/132 131/131/131 130/130/130
f 133/133/133 134/134/134 135/135/135
f 136/136/136 135/135/135 134/134/134
f 137/137/137 138/138/138 139/139/139
f 140/140/140 139/139/139 138/138/138
f 141/141/141 142/142/142 143/143/143
f 144/144/144 143/143/143 142/142/142
f 145/145/145 146/146/146 147/147/147
f 148/148/148 147/147/147 146/146/146
f 149/149/149 150/150/150 151/151/151
f 152/152/152 151/151/151 150/150/150
f 153/153/153 154/154/154 155/155/155
f 156/156/156 155/155/155 154/154/154
f 157/157/157 158/158/158 159/159/159
f 160/160/160 159/159/159 158/158/158
f 161/161/161 162/162/162 163/163/163
f 164/164/164 163/163/163 162/162/162
f 167/167/167 166/166/166 165/165/165
f 166/166/166 167/167/167 168/168/168
f 171/171/171 170/170/170 169/169/169
f 170/170/170 171/171/171 172/172/172
f 175/175/175 174/174/174 173/173/173
f 174/174/174 175/175/175 176/176/176
f 179/179/179 178/178/178 177/177/177
f 178/178/178 179/179/179 180/180/180
f 183/183/183 182/182/182 181/181/181
f 182/182/182 183/183/183 184/184/184
f 187/187/187 186/186/186 185/185/185
f 186/186/186 187/187/187 188/188/188
f 191/191/191 190/190/190 189/189/189
f 190/190/190 191/191/191 192/192/192
f 195/195/195 194/194/194 193/193/193
f 194/194/194 195/195/195 196/196/196
f 199/199/199 198/198/198 197/197/197
f 198/198/198 199/199/199 200/200/200
f 203/203/203 202/202/202 201/201/201
f 202/202/202 203/203/203 204/204/204
f 207/207/207 206/206/206 205/205/205
f 206/206/206 207/207/207 208/208/208
f 211/211/211 210/210/210 209/209/209
f 210/210/210 211/211/211 212/212/212
f 215/215/215 214/214/214 213/213/213
f 214/214/214 215/215/215 216/216/216
f 219/219/219 218/218/218 217/217/217
f 218/218/218 219/219/219 220/220/220
f 223/223/223 222/222/222 221/221/221
f 222/222/222 223/223/223 224/224/224
f 227/227/227 226/226/226 225/225/225
f 226/226/226 227/227/227 228/228/228
f 231/231/231 230/230/230 229/229/229
f 230/230/230 231/231/231 232/232/232
f 235/235/235 234/234/234 233/233/233
f 234/234/234 235/235/235 236/236/236
f 239/239/239 238/238/238 237/237/237
f 238/238/238 239/239/239 240/240/240
f 243/243/243 242/242/242 241/241/241
f 242/242/242 243/243/243 244/244/244
f 247/247/247 246/246/246 245/245/245
f 246/246/246 247/247/247 248/248/248
f 251/251/251 250/250/250 249/249/249
f 250/250/250 251/251/251 252/252/252
f 255/255/255 254/254/254 253/253/253
f 254/254/254 255/255/255 256/256/256
f 259/259/259 258/258/258 257/257/257
f 258/258/258 259/259/259 260/260/260
f 263/263/263 262/262/262 261/261/261
f 262/262/262 263/263/263 264/264/264
f 267/267/267 266/266/266 265/265/265
f 266/266/266 267/267/267 268/268/268
f 271/271/271 270/270/270 269/269/269
f 270/270/270 271/271/271 272/272/272
f 165/165/165 58/58/58 57/57/57
f 58/58/58 165/165/165 166/166/166
f 163/163/163 164/164/164 271/271/271
f 272/272/272 271/271/271 164/164/164
