g 
v 31.524954 63.684845 62.858387
v 31.524954 49.684845 62.858387
v 29.075407 63.7573 62.16869
v 29.075407 49.7573 62.16869
v 26.076166 64.25566 63.67154
v 26.076166 50.25566 63.67154
v 27.10124 64.59487 66.07784
v 27.10124 50.59487 66.07784
v 32.352333 64.11107 65.67423
v 32.352333 50.11107 65.67423
v 32.5556 63.89805 64.54521
v 32.5556 49.89805 64.54521
v 31.524954 63.684845 62.858387
v 31.524954 49.684845 62.858387
vt -0.33624953 0.5155839
vt -0.33624953 0.5155839
vt -0.31175408 0.5086869
vt -0.31175408 0.5086869
vt -0.28176165 0.5237154
vt -0.28176165 0.5237154
vt -0.2920124 0.5477784
vt -0.2920124 0.5477784
vt -0.3445233 0.5437423
vt -0.3445233 0.5437423
vt -0.34655598 0.5324521
vt -0.34655598 0.5324521
vt -0.33624953 0.5155839
vt -0.33624953 0.5155839
vn 0.27102312 0 -0.9625729
vn 0.27102312 -0 -0.9625729
vn -0.44798347 0 -0.8940418
vn -0.44798347 0 -0.8940418
vn -0.920001 -0 0.3919161
vn -0.920001 0 0.3919161
vn 0.07663609 0 0.99705917
vn 0.07663609 0 0.99705917
vn 0.9841769 0 0.17718881
vn 0.9841769 0 0.17718881
vn 0.85332507 0 -0.5213793
vn 0.85332507 -0 -0.5213793
vn 0.85332507 -0 -0.5213793
vn 0.85332507 -0 -0.5213793
g _0
f 1/1/1 2/2/2 3/3/3
f 4/4/4 3/3/3 2/2/2
f 3/3/3 4/4/4 5/5/5
f 6/6/6 5/5/5 4/4/4
f 5/5/5 6/6/6 7/7/7
f 8/8/8 7/7/7 6/6/6
f 7/7/7 8/8/8 9/9/9
f 10/10/10 9/9/9 8/8/8
f 9/9/9 10/10/10 11/11/11
f 12/12/12 11/11/11 10/10/10
f 11/11/11 12/12/12 13/13/13
f 14/14/14 13/13/13 12/12/12
