g 
v 1.5519818 17.6 -48.519314
v 1.2027493 17.6 -61.178753
v 5.428822 17.6 -43.167526
v 4.778657 17.6 -66.73614
v 14.552595 17.6 -38.793266
v 13.647408 17.6 -71.606735
v 23.1475 17.6 -42.843098
v 22.452501 17.6 -68.0369
v 29.012083 17.6 -40.662064
v 28.18792 17.6 -70.53793
v 37.14094 17.6 -42.725235
v 36.41816 17.6 -68.92605
v 40.349564 17.6 -49.323994
v 39.985695 17.6 -62.514217
v 1.5519818 17.6 -48.519314
v 1.5519818 8.9800005 -48.519314
v 5.428822 17.6 -43.167526
v 5.428822 8.9800005 -43.167526
v 5.428822 17.6 -43.167526
v 5.428822 8.9800005 -43.167526
v 14.552595 17.6 -38.793266
v 14.552595 8.9800005 -38.793266
v 14.552595 17.6 -38.793266
v 14.552595 8.9800005 -38.793266
v 23.1475 17.6 -42.843098
v 23.1475 8.9800005 -42.843098
v 23.1475 17.6 -42.843098
v 23.1475 8.9800005 -42.843098
v 29.012083 17.6 -40.662064
v 29.012083 8.9800005 -40.662064
v 29.012083 17.6 -40.662064
v 29.012083 8.9800005 -40.662064
v 37.14094 17.6 -42.725235
v 37.14094 8.9800005 -42.725235
v 37.14094 17.6 -42.725235
v 37.14094 8.9800005 -42.725235
v 40.349564 17.6 -49.323994
v 40.349564 8.9800005 -49.323994
v 1.2027493 17.6 -61.178753
v 1.2027493 8.9800005 -61.178753
v 4.778657 17.6 -66.73614
v 4.778657 8.9800005 -66.73614
v 4.778657 17.6 -66.73614
v 4.778657 8.9800005 -66.73614
v 13.647408 17.6 -71.606735
v 13.647408 8.9800005 -71.606735
v 13.647408 17.6 -71.606735
v 13.647408 8.9800005 -71.606735
v 22.452501 17.6 -68.0369
v 22.452501 8.9800005 -68.0369
v 22.452501 17.6 -68.0369
v 22.452501 8.9800005 -68.0369
v 28.18792 17.6 -70.53793
v 28.18792 8.9800005 -70.53793
v 28.18792 17.6 -70.53793
v 28.18792 8.9800005 -70.53793
v 36.41816 17.6 -68.92605
v 36.41816 8.9800005 -68.92605
v 36.41816 17.6 -68.92605
v 36.41816 8.9800005 -68.92605
v 39.985695 17.6 -62.514217
v 39.985695 8.9800005 -62.514217
vt 0.05873559 -0.08325554
vt 0.06310933 -0.09514056
vt 0.053352665 -0.07942205
vt 0.061495412 -0.10154891
vt 0.04330972 -0.07819052
vt 0.054646485 -0.108996704
vt 0.03645818 -0.08477307
vt 0.04516243 -0.1084257
vt 0.030204173 -0.08457909
vt 0.040526036 -0.11262737
vt 0.023159841 -0.08913018
vt 0.032212 -0.11372822
vt 0.022226544 -0.09640808
vt 0.026783656 -0.10879142
vt 0.05873559 -0.08325554
vt 0.05873559 -0.08325554
vt 0.053352665 -0.07942205
vt 0.053352665 -0.07942205
vt 0.053352665 -0.07942205
vt 0.053352665 -0.07942205
vt 0.04330972 -0.07819052
vt 0.04330972 -0.07819052
vt 0.04330972 -0.07819052
vt 0.04330972 -0.07819052
vt 0.03645818 -0.08477307
vt 0.03645818 -0.08477307
vt 0.03645818 -0.08477307
vt 0.03645818 -0.08477307
vt 0.030204173 -0.08457909
vt 0.030204173 -0.08457909
vt 0.030204173 -0.08457909
vt 0.030204173 -0.08457909
vt 0.023159841 -0.08913018
vt 0.023159841 -0.08913018
vt 0.023159841 -0.08913018
vt 0.023159841 -0.08913018
vt 0.022226544 -0.09640808
vt 0.022226544 -0.09640808
vt 0.06310933 -0.09514056
vt 0.06310933 -0.09514056
vt 0.061495412 -0.10154891
vt 0.061495412 -0.10154891
vt 0.061495412 -0.10154891
vt 0.061495412 -0.10154891
vt 0.054646485 -0.108996704
vt 0.054646485 -0.108996704
vt 0.054646485 -0.108996704
vt 0.054646485 -0.108996704
vt 0.04516243 -0.1084257
vt 0.04516243 -0.1084257
vt 0.04516243 -0.1084257
vt 0.04516243 -0.1084257
vt 0.040526036 -0.11262737
vt 0.040526036 -0.11262737
vt 0.040526036 -0.11262737
vt 0.040526036 -0.11262737
vt 0.032212 -0.11372822
vt 0.032212 -0.11372822
vt 0.032212 -0.11372822
vt 0.032212 -0.11372822
vt 0.026783656 -0.10879142
vt 0.026783656 -0.10879142
vn -0 1 0
vn -0 1 0
vn -0 1 0
vn -0 1 0
vn -0 1 0
vn -0 1 0
vn -0 1 0
vn -0 1 0
vn -0 1 0
vn -0 1 0
vn -0 1 0
vn -0 1 0
vn -0 1 0
vn -0 1 0
vn -0.99961966 -0 0.02757624
vn -0.99961966 0 0.02757624
vn -0.8098409 0 0.58664954
vn -0.8098409 0 0.58664954
vn -0.43231723 -0 0.9017216
vn -0.43231723 0 0.9017216
vn -0.43231723 0 0.9017216
vn -0.43231723 0 0.9017216
vn 0.42624253 0 0.90460896
vn 0.42624253 0 0.90460896
vn 0.42624253 0 0.90460896
vn 0.42624253 0 0.90460896
vn -0.34857416 -0 0.93728125
vn -0.34857416 0 0.93728125
vn -0.34857416 0 0.93728125
vn -0.34857416 0 0.93728125
vn 0.24600813 0 0.9692677
vn 0.24600813 0 0.9692677
vn 0.24600813 0 0.9692677
vn 0.24600813 0 0.9692677
vn 0.89932 0 0.43729103
vn 0.89932 0 0.43729103
vn 0.9996197 0 -0.027575752
vn 0.9996197 -0 -0.027575752
vn -0.99961966 0 0.02757624
vn -0.99961966 0 0.02757624
vn -0.8409511 0 -0.54111123
vn -0.8409511 0 -0.54111123
vn -0.4813712 0 -0.8765169
vn -0.4813712 0 -0.8765169
vn -0.4813712 0 -0.8765169
vn -0.4813712 0 -0.8765169
vn 0.37572312 0 -0.926732
vn 0.37572312 -0 -0.926732
vn 0.37572312 -0 -0.926732
vn 0.37572312 -0 -0.926732
vn -0.39971647 0 -0.91663885
vn -0.39971647 0 -0.91663885
vn -0.39971647 0 -0.91663885
vn -0.39971647 0 -0.91663885
vn 0.19219775 0 -0.98135626
vn 0.19219775 -0 -0.98135626
vn 0.19219775 -0 -0.98135626
vn 0.19219775 -0 -0.98135626
vn 0.87384427 0 -0.48620594
vn 0.87384427 -0 -0.48620594
vn 0.9996197 -0 -0.027575752
vn 0.9996197 -0 -0.027575752
g _0
f 3/3/3 2/2/2 1/1/1
f 2/2/2 3/3/3 4/4/4
f 5/5/5 4/4/4 3/3/3
f 4/4/4 5/5/5 6/6/6
f 7/7/7 6/6/6 5/5/5
f 6/6/6 7/7/7 8/8/8
f 9/9/9 8/8/8 7/7/7
f 8/8/8 9/9/9 10/10/10
f 11/11/11 10/10/10 9/9/9
f 10/10/10 11/11/11 12/12/12
f 13/13/13 12/12/12 11/11/11
f 12/12/12 13/13/13 14/14/14
g _1
f 15/15/15 16/16/16 17/17/17
f 18/18/18 17/17/17 16/16/16
f 19/19/19 20/20/20 21/21/21
f 22/22/22 21/21/21 20/20/20
f 23/23/23 24/24/24 25/25/25
f 26/26/26 25/25/25 24/24/24
f 27/27/27 28/28/28 29/29/29
f 30/30/30 29/29/29 28/28/28
f 31/31/31 32/32/32 33/33/33
f 34/34/34 33/33/33 32/32/32
f 35/35/35 36/36/36 37/37/37
f 38/38/38 37/37/37 36/36/36
f 41/41/41 40/40/40 39/39/39
f 40/40/40 41/41/41 42/42/42
f 45/45/45 44/44/44 43/43/43
f 44/44/44 45/45/45 46/46/46
f 49/49/49 48/48/48 47/47/47
f 48/48/48 49/49/49 50/50/50
f 53/53/53 52/52/52 51/51/51
f 52/52/52 53/53/53 54/54/54
f 57/57/57 56/56/56 55/55/55
f 56/56/56 57/57/57 58/58/58
f 61/61/61 60/60/60 59/59/59
f 60/60/60 61/61/61 62/62/62
f 39/39/39 16/16/16 15/15/15
f 16/16/16 39/39/39 40/40/40
f 37/37/37 38/38/38 61/61/61
f 62/62/62 61/61/61 38/38/38
