g 
v 113.95331 59.590004 -29.2513
v 113.95331 45.590004 -29.2513
v 114.55538 59.590004 -36.06945
v 114.55538 45.590004 -36.06945
v 111.60647 59.590004 -37.829685
v 111.60647 45.590004 -37.829685
v 113.04777 59.590004 -41.997524
v 113.04777 45.590004 -41.997524
v 113.62532 59.590004 -49.53943
v 113.62532 45.590004 -49.53943
v 110.31281 59.590004 -49.516457
v 110.31281 45.590004 -49.516457
v 110.43418 59.590004 -41.14917
v 110.43418 45.590004 -41.14917
v 108.31404 59.590004 -35.781666
v 108.31404 45.590004 -35.781666
v 101.70606 59.590004 -35.667744
v 101.70606 45.590004 -35.667744
v 96.70624 59.590004 -36.517387
v 96.70624 45.590004 -36.517387
v 96.17619 59.590004 -38.031536
v 96.17619 45.590004 -38.031536
v 94.32287 59.590004 -38.05575
v 94.32287 45.590004 -38.05575
v 94.941345 59.590004 -43.644962
v 94.941345 45.590004 -43.644962
v 94.44666 59.590004 -50.520164
v 94.44666 45.590004 -50.520164
v 99.04836 59.590004 -52.257004
v 99.04836 45.590004 -52.257004
v 101.2396 59.590004 -51.492817
v 101.2396 45.590004 -51.492817
v 100.83645 59.590004 -54.126575
v 100.83645 45.590004 -54.126575
v 98.8223 59.590004 -54.287106
v 98.8223 45.590004 -54.287106
v 96.213936 59.590004 -54.99937
v 96.213936 45.590004 -54.99937
v 94.69996 59.590004 -65.513725
v 94.69996 45.590004 -65.513725
v 92.90273 59.590004 -67.72002
v 92.90273 45.590004 -67.72002
v 93.60914 59.590004 -74.53066
v 93.60914 45.590004 -74.53066
v 92.04738 59.590004 -76.22575
v 92.04738 45.590004 -76.22575
v 89.47262 59.590004 -77.14394
v 89.47262 45.590004 -77.14394
v 80.91057 59.590004 -78.39625
v 80.91057 45.590004 -78.39625
v 77.94375 59.590004 -74.85313
v 77.94375 45.590004 -74.85313
v 80.53152 59.590004 -71.435425
v 80.53152 45.590004 -71.435425
v 83.39385 59.590004 -64.898506
v 83.39385 45.590004 -64.898506
v 83.58688 59.590004 -53.444813
v 83.58688 45.590004 -53.444813
v 82.899895 59.590004 -47.527214
v 82.899895 45.590004 -47.527214
v 84.86553 59.590004 -47.549923
v 84.86553 45.590004 -47.549923
v 84.46771 59.590004 -43.33193
v 84.46771 45.590004 -43.33193
v 79.88703 59.590004 -43.452286
v 79.88703 45.590004 -43.452286
v 79.13088 59.590004 -38.258324
v 79.13088 45.590004 -38.258324
v 81.56856 59.590004 -33.532333
v 81.56856 45.590004 -33.532333
v 87.17469 59.590004 -32.682175
v 87.17469 45.590004 -32.682175
v 89.6252 59.590004 -29.322815
v 89.6252 45.590004 -29.322815
v 94.77496 59.590004 -29.201889
v 94.77496 45.590004 -29.201889
v 94.46394 59.590004 -26.793198
v 94.46394 45.590004 -26.793198
v 100.18654 59.590004 -25.740189
v 100.18654 45.590004 -25.740189
v 109.52585 59.590004 -25.223278
v 109.52585 45.590004 -25.223278
v 112.95898 59.590004 -25.075535
v 112.95898 45.590004 -25.075535
v 113.95331 59.590004 -29.2513
v 113.95331 45.590004 -29.2513
vt -1.1605331 -0.405513
vt -1.1605331 -0.405513
vt -1.1665537 -0.47369447
vt -1.1665537 -0.47369447
vt -1.1370647 -0.49129683
vt -1.1370647 -0.49129683
vt -1.1514777 -0.5329752
vt -1.1514777 -0.5329752
vt -1.1572531 -0.60839427
vt -1.1572531 -0.60839427
vt -1.1241281 -0.60816455
vt -1.1241281 -0.60816455
vt -1.1253418 -0.52449167
vt -1.1253418 -0.52449167
vt -1.1041404 -0.47081664
vt -1.1041404 -0.47081664
vt -1.0380605 -0.46967742
vt -1.0380605 -0.46967742
vt -0.9880623 -0.47817385
vt -0.9880623 -0.47817385
vt -0.9827619 -0.49331534
vt -0.9827619 -0.49331534
vt -0.96422863 -0.4935575
vt -0.96422863 -0.4935575
vt -0.9704134 -0.5494496
vt -0.9704134 -0.5494496
vt -0.9654666 -0.6182016
vt -0.9654666 -0.6182016
vt -1.0114836 -0.63557
vt -1.0114836 -0.63557
vt -1.033396 -0.62792814
vt -1.033396 -0.62792814
vt -1.0293645 -0.65426576
vt -1.0293645 -0.65426576
vt -1.009223 -0.65587103
vt -1.009223 -0.65587103
vt -0.98313934 -0.66299367
vt -0.98313934 -0.66299367
vt -0.9679996 -0.7681373
vt -0.9679996 -0.7681373
vt -0.9500273 -0.7902002
vt -0.9500273 -0.7902002
vt -0.95709133 -0.85830665
vt -0.95709133 -0.85830665
vt -0.9414737 -0.87525755
vt -0.9414737 -0.87525755
vt -0.9157261 -0.88443947
vt -0.9157261 -0.88443947
vt -0.83010566 -0.89696246
vt -0.83010566 -0.89696246
vt -0.80043745 -0.86153126
vt -0.80043745 -0.86153126
vt -0.82631516 -0.82735425
vt -0.82631516 -0.82735425
vt -0.8549385 -0.76198506
vt -0.8549385 -0.76198506
vt -0.8568688 -0.6474481
vt -0.8568688 -0.6474481
vt -0.8499989 -0.5882721
vt -0.8499989 -0.5882721
vt -0.8696553 -0.5884992
vt -0.8696553 -0.5884992
vt -0.8656771 -0.54631925
vt -0.8656771 -0.54631925
vt -0.8198703 -0.54752284
vt -0.8198703 -0.54752284
vt -0.8123088 -0.4955832
vt -0.8123088 -0.4955832
vt -0.83668554 -0.4483233
vt -0.83668554 -0.4483233
vt -0.89274687 -0.43982172
vt -0.89274687 -0.43982172
vt -0.91725194 -0.40622813
vt -0.91725194 -0.40622813
vt -0.9687496 -0.40501887
vt -0.9687496 -0.40501887
vt -0.9656394 -0.38093197
vt -0.9656394 -0.38093197
vt -1.0228653 -0.37040186
vt -1.0228653 -0.37040186
vt -1.1162585 -0.36523277
vt -1.1162585 -0.36523277
vt -1.1505897 -0.36375535
vt -1.1505897 -0.36375535
vt -1.1605331 -0.405513
vt -1.1605331 -0.405513
vn 0.9961238 0 0.08796227
vn 0.9961238 0 0.08796227
vn 0.51254326 0 -0.8586614
vn 0.51254326 -0 -0.8586614
vn 0.94508517 0 0.32682422
vn 0.94508517 0 0.32682422
vn 0.9970806 0 0.07635561
vn 0.9970806 0 0.07635561
vn -0.006934793 0 -0.999976
vn -0.006934793 0 -0.999976
vn -0.9998948 -0 0.014503584
vn -0.9998948 0 0.014503584
vn -0.930073 0 -0.3673747
vn -0.930073 0 -0.3673747
vn -0.017237524 0 -0.9998514
vn -0.017237524 0 -0.9998514
vn 0.16753294 0 -0.9858665
vn 0.16753294 -0 -0.9858665
vn 0.9438404 0 -0.3304018
vn 0.9438404 -0 -0.3304018
vn 0.013064968 0 -0.99991465
vn 0.013064968 -0 -0.99991465
vn 0.9939333 0 0.10998419
vn 0.9939333 0 0.10998419
vn 0.99742144 0 -0.071766146
vn 0.99742144 -0 -0.071766146
vn 0.3531193 0 0.9355782
vn 0.3531193 0 0.9355782
vn -0.32929587 -0 0.94422686
vn -0.32929587 0 0.94422686
vn 0.9884865 0 -0.15130877
vn 0.9884865 -0 -0.15130877
vn 0.079449415 0 -0.99683887
vn 0.079449415 -0 -0.99683887
vn 0.26342443 0 -0.96468
vn 0.26342443 -0 -0.96468
vn 0.9897917 0 -0.14252153
vn 0.9897917 -0 -0.14252153
vn 0.77531976 0 -0.63156885
vn 0.77531976 -0 -0.63156885
vn 0.994664 0 0.10316734
vn 0.994664 0 0.10316734
vn 0.73543876 0 -0.67759115
vn 0.73543876 -0 -0.67759115
vn 0.33589277 0 -0.94190025
vn 0.33589277 -0 -0.94190025
vn 0.14472237 0 -0.9894723
vn 0.14472237 -0 -0.9894723
vn -0.766706 0 -0.64199847
vn -0.766706 0 -0.64199847
vn -0.7972492 -0 0.6036503
vn -0.7972492 0 0.6036503
vn -0.9160321 -0 0.40110502
vn -0.9160321 0 0.40110502
vn -0.999858 -0 0.016850801
vn -0.999858 0 0.016850801
vn -0.99332863 0 -0.115318
vn -0.99332863 0 -0.115318
vn 0.011552171 0 0.99993324
vn 0.011552171 0 0.99993324
vn -0.9955818 0 -0.09389814
vn -0.9955818 0 -0.09389814
vn 0.026265962 0 -0.999655
vn 0.026265962 -0 -0.999655
vn -0.9895684 0 -0.14406371
vn -0.9895684 0 -0.14406371
vn -0.8887391 -0 0.45841345
vn -0.8887391 0 0.45841345
vn -0.14993376 -0 0.98869604
vn -0.14993376 0 0.98869604
vn -0.8078959 -0 0.58932525
vn -0.8078959 0 0.58932525
vn -0.023475358 -0 0.9997244
vn -0.023475358 0 0.9997244
vn -0.9917663 0 -0.12806083
vn -0.9917663 0 -0.12806083
vn -0.18097073 -0 0.98348844
vn -0.18097073 0 0.98348844
vn -0.05526325 -0 0.9984718
vn -0.05526325 0 0.9984718
vn -0.042994782 -0 0.9990753
vn -0.042994782 0 0.9990753
vn 0.9728009 0 0.23164287
vn 0.9728009 0 0.23164287
vn 0.9728009 0 0.23164287
vn 0.9728009 0 0.23164287
g _0
f 1/1/1 2/2/2 3/3/3
f 4/4/4 3/3/3 2/2/2
f 3/3/3 4/4/4 5/5/5
f 6/6/6 5/5/5 4/4/4
f 5/5/5 6/6/6 7/7/7
f 8/8/8 7/7/7 6/6/6
f 7/7/7 8/8/8 9/9/9
f 10/10/10 9/9/9 8/8/8
f 9/9/9 10/10/10 11/11/11
f 12/12/12 11/11/11 10/10/10
f 11/11/11 12/12/12 13/13/13
f 14/14/14 13/13/13 12/12/12
f 13/13/13 14/14/14 15/15/15
f 16/16/16 15/15/15 14/14/14
f 15/15/15 16/16/16 17/17/17
f 18/18/18 17/17/17 16/16/16
f 17/17/17 18/18/18 19/19/19
f 20/20/20 19/19/19 18/18/18
f 19/19/19 20/20/20 21/21/21
f 22/22/22 21/21/21 20/20/20
f 21/21/21 22/22/22 23/23/23
f 24/24/24 23/23/23 22/22/22
f 23/23/23 24/24/24 25/25/25
f 26/26/26 25/25/25 24/24/24
f 25/25/25 26/26/26 27/27/27
f 28/28/28 27/27/27 26/26/26
f 27/27/27 28/28/28 29/29/29
f 30/30/30 29/29/29 28/28/28
f 29/29/29 30/30/30 31/31/31
f 32/32/32 31/31/31 30/30/30
f 31/31/31 32/32/32 33/33/33
f 34/34/34 33/33/33 32/32/32
f 33/33/33 34/34/34 35/35/35
f 36/36/36 35/35/35 34/34/34
f 35/35/35 36/36/36 37/37/37
f 38/38/38 37/37/37 36/36/36
f 37/37/37 38/38/38 39/39/39
f 40/40/40 39/39/39 38/38/38
f 39/39/39 40/40/40 41/41/41
f 42/42/42 41/41/41 40/40/40
f 41/41/41 42/42/42 43/43/43
f 44/44/44 43/43/43 42/42/42
f 43/43/43 44/44/44 45/45/45
f 46/46/46 45/45/45 44/44/44
f 45/45/45 46/46/46 47/47/47
f 48/48/48 47/47/47 46/46/46
f 47/47/47 48/48/48 49/49/49
f 50/50/50 49/49/49 48/48/48
f 49/49/49 50/50/50 51/51/51
f 52/52/52 51/51/51 50/50/50
f 51/51/51 52/52/52 53/53/53
f 54/54/54 53/53/53 52/52/52
f 53/53/53 54/54/54 55/55/55
f 56/56/56 55/55/55 54/54/54
f 55/55/55 56/56/56 57/57/57
f 58/58/58 57/57/57 56/56/56
f 57/57/57 58/58/58 59/59/59
f 60/60/60 59/59/59 58/58/58
f 59/59/59 60/60/60 61/61/61
f 62/62/62 61/61/61 60/60/60
f 61/61/61 62/62/62 63/63/63
f 64/64/64 63/63/63 62/62/62
f 63/63/63 64/64/64 65/65/65
f 66/66/66 65/65/65 64/64/64
f 65/65/65 66/66/66 67/67/67
f 68/68/68 67/67/67 66/66/66
f 67/67/67 68/68/68 69/69/69
f 70/70/70 69/69/69 68/68/68
f 69/69/69 70/70/70 71/71/71
f 72/72/72 71/71/71 70/70/70
f 71/71/71 72/72/72 73/73/73
f 74/74/74 73/73/73 72/72/72
f 73/73/73 74/74/74 75/75/75
f 76/76/76 75/75/75 74/74/74
f 75/75/75 76/76/76 77/77/77
f 78/78/78 77/77/77 76/76/76
f 77/77/77 78/78/78 79/79/79
f 80/80/80 79/79/79 78/78/78
f 79/79/79 80/80/80 81/81/81
f 82/82/82 81/81/81 80/80/80
f 81/81/81 82/82/82 83/83/83
f 84/84/84 83/83/83 82/82/82
f 83/83/83 84/84/84 85/85/85
f 86/86/86 85/85/85 84/84/84
