g 
v 5.074683 18.6 -72.152466
v 1.2301258 18.6 -76.55861
v 7.715353 18.6 -71.46005
v 0.9019034 18.6 -79.26874
v 11.318596 18.6 -72.96521
v 2.8814044 18.6 -82.6348
v 17.488832 18.542 -78.247604
v 8.951148 18.542 -88.03238
v 21.596563 18.51 -81.77584
v 13.003435 18.51 -91.62415
v 23.612654 18.51 -85.20412
v 16.673271 18.51 -93.15712
v 23.27837 18.51 -87.96435
v 19.362743 18.51 -92.45191
v 5.074683 18.6 -72.152466
v 5.074683 -11.4 -72.152466
v 7.715353 18.6 -71.46005
v 7.715353 -11.4 -71.46005
v 7.715353 18.6 -71.46005
v 7.715353 -11.4 -71.46005
v 11.318596 18.6 -72.96521
v 11.318596 -11.4 -72.96521
v 11.318596 18.6 -72.96521
v 11.318596 -11.4 -72.96521
v 17.488832 18.542 -78.247604
v 17.488832 -11.458 -78.247604
v 17.488832 18.542 -78.247604
v 17.488832 -11.458 -78.247604
v 21.596563 18.51 -81.77584
v 21.596563 -11.49 -81.77584
v 21.596563 18.51 -81.77584
v 21.596563 -11.49 -81.77584
v 23.612654 18.51 -85.20412
v 23.612654 -11.49 -85.20412
v 23.612654 18.51 -85.20412
v 23.612654 -11.49 -85.20412
v 23.27837 18.51 -87.96435
v 23.27837 -11.49 -87.96435
v 1.2301258 18.6 -76.55861
v 1.2301258 -11.4 -76.55861
v 0.9019034 18.6 -79.26874
v 0.9019034 -11.4 -79.26874
v 0.9019034 18.6 -79.26874
v 0.9019034 -11.4 -79.26874
v 2.8814044 18.6 -82.6348
v 2.8814044 -11.4 -82.6348
v 2.8814044 18.6 -82.6348
v 2.8814044 -11.4 -82.6348
v 8.951148 18.542 -88.03238
v 8.951148 -11.458 -88.03238
v 8.951148 18.542 -88.03238
v 8.951148 -11.458 -88.03238
v 13.003435 18.51 -91.62415
v 13.003435 -11.49 -91.62415
v 13.003435 18.51 -91.62415
v 13.003435 -11.49 -91.62415
v 16.673271 18.51 -93.15712
v 16.673271 -11.49 -93.15712
v 16.673271 18.51 -93.15712
v 16.673271 -11.49 -93.15712
v 19.362743 18.51 -92.45191
v 19.362743 -11.49 -92.45191
vt -0.14683583 0.03511011
vt -0.14674304 0.040957
vt -0.14533736 0.03282819
vt -0.14517294 0.04319022
vt -0.14165284 0.031534705
vt -0.14144923 0.044366144
vt -0.13353291 0.031329412
vt -0.13332684 0.044313688
vt -0.12811945 0.031201337
vt -0.12791206 0.04426993
vt -0.12432691 0.032398995
vt -0.12415944 0.04295254
vt -0.12272777 0.034673497
vt -0.12263328 0.040628448
vt -0.14683583 0.03511011
vt -0.14683583 0.03511011
vt -0.14533736 0.03282819
vt -0.14533736 0.03282819
vt -0.14533736 0.03282819
vt -0.14533736 0.03282819
vt -0.14165284 0.031534705
vt -0.14165284 0.031534705
vt -0.14165284 0.031534705
vt -0.14165284 0.031534705
vt -0.13353291 0.031329412
vt -0.13353291 0.031329412
vt -0.13353291 0.031329412
vt -0.13353291 0.031329412
vt -0.12811945 0.031201337
vt -0.12811945 0.031201337
vt -0.12811945 0.031201337
vt -0.12811945 0.031201337
vt -0.12432691 0.032398995
vt -0.12432691 0.032398995
vt -0.12432691 0.032398995
vt -0.12432691 0.032398995
vt -0.12272777 0.034673497
vt -0.12272777 0.034673497
vt -0.14674304 0.040957
vt -0.14674304 0.040957
vt -0.14517294 0.04319022
vt -0.14517294 0.04319022
vt -0.14517294 0.04319022
vt -0.14517294 0.04319022
vt -0.14144923 0.044366144
vt -0.14144923 0.044366144
vt -0.14144923 0.044366144
vt -0.14144923 0.044366144
vt -0.13332684 0.044313688
vt -0.13332684 0.044313688
vt -0.13332684 0.044313688
vt -0.13332684 0.044313688
vt -0.12791206 0.04426993
vt -0.12791206 0.04426993
vt -0.12791206 0.04426993
vt -0.12791206 0.04426993
vt -0.12415944 0.04295254
vt -0.12415944 0.04295254
vt -0.12415944 0.04295254
vt -0.12415944 0.04295254
vt -0.12263328 0.040628448
vt -0.12263328 0.040628448
vn -0 1 0
vn -0 1 0
vn -0 1 0
vn -0 1 0
vn -0 1 0
vn -0 1 0
vn -0 1 0
vn -0 1 0
vn -0 1 0
vn -0 1 0
vn -0 1 0
vn -0 1 0
vn -0 1 0
vn -0 1 0
vn -0.7534928 -0 0.65745616
vn -0.7534928 0 0.65745616
vn -0.25363684 0 0.9672995
vn -0.25363684 0 0.9672995
vn 0.38544574 0 0.9227305
vn 0.38544574 0 0.9227305
vn 0.38544574 0 0.9227305
vn 0.38544574 0 0.9227305
vn 0.6503385 0 0.75964457
vn 0.6503385 0 0.75964457
vn 0.6503385 0 0.75964457
vn 0.6503385 0 0.75964457
vn 0.65157074 0 0.7585879
vn 0.65157074 0 0.7585879
vn 0.65157074 0 0.7585879
vn 0.65157074 0 0.7585879
vn 0.86199385 0 0.5069188
vn 0.86199385 0 0.5069188
vn 0.86199385 0 0.5069188
vn 0.86199385 0 0.5069188
vn 0.99274623 0 -0.120228715
vn 0.99274623 -0 -0.120228715
vn 0.7534906 0 -0.65745866
vn 0.7534906 -0 -0.65745866
vn -0.7534928 0 0.65745616
vn -0.7534928 0 0.65745616
vn -0.99274594 0 0.12023099
vn -0.99274594 0 0.12023099
vn -0.8619944 0 -0.5069178
vn -0.8619944 0 -0.5069178
vn -0.8619944 0 -0.5069178
vn -0.8619944 0 -0.5069178
vn -0.6645184 0 -0.7472719
vn -0.6645184 0 -0.7472719
vn -0.6645184 0 -0.7472719
vn -0.6645184 0 -0.7472719
vn -0.6633048 0 -0.7483493
vn -0.6633048 0 -0.7483493
vn -0.6633048 0 -0.7483493
vn -0.6633048 0 -0.7483493
vn -0.385444 0 -0.9227313
vn -0.385444 0 -0.9227313
vn -0.385444 0 -0.9227313
vn -0.385444 0 -0.9227313
vn 0.25363612 0 -0.96729964
vn 0.25363612 -0 -0.96729964
vn 0.7534906 -0 -0.65745866
vn 0.7534906 -0 -0.65745866
g _0
f 3/3/3 2/2/2 1/1/1
f 2/2/2 3/3/3 4/4/4
f 5/5/5 4/4/4 3/3/3
f 4/4/4 5/5/5 6/6/6
f 7/7/7 6/6/6 5/5/5
f 6/6/6 7/7/7 8/8/8
f 9/9/9 8/8/8 7/7/7
f 8/8/8 9/9/9 10/10/10
f 11/11/11 10/10/10 9/9/9
f 10/10/10 11/11/11 12/12/12
f 13/13/13 12/12/12 11/11/11
f 12/12/12 13/13/13 14/14/14
g _1
f 15/15/15 16/16/16 17/17/17
f 18/18/18 17/17/17 16/16/16
f 19/19/19 20/20/20 21/21/21
f 22/22/22 21/21/21 20/20/20
f 23/23/23 24/24/24 25/25/25
f 26/26/26 25/25/25 24/24/24
f 27/27/27 28/28/28 29/29/29
f 30/30/30 29/29/29 28/28/28
f 31/31/31 32/32/32 33/33/33
f 34/34/34 33/33/33 32/32/32
f 35/35/35 36/36/36 37/37/37
f 38/38/38 37/37/37 36/36/36
f 41/41/41 40/40/40 39/39/39
f 40/40/40 41/41/41 42/42/42
f 45/45/45 44/44/44 43/43/43
f 44/44/44 45/45/45 46/46/46
f 49/49/49 48/48/48 47/47/47
f 48/48/48 49/49/49 50/50/50
f 53/53/53 52/52/52 51/51/51
f 52/52/52 53/53/53 54/54/54
f 57/57/57 56/56/56 55/55/55
f 56/56/56 57/57/57 58/58/58
f 61/61/61 60/60/60 59/59/59
f 60/60/60 61/61/61 62/62/62
f 39/39/39 16/16/16 15/15/15
f 16/16/16 39/39/39 40/40/40
f 37/37/37 38/38/38 61/61/61
f 62/62/62 61/61/61 38/38/38
