g 
v -94.393166 8.25 7.420574
v -103.08434 8.25 13.055014
v -92.000916 8.25 3.0711346
v -108.03142 8.25 13.463609
v -90.831856 8.25 -1.3339128
v -112.52999 8.25 12.732848
v -93.30106 8.25 -8.53815
v -118.09894 8.25 7.538149
v -94.9874 8.25 -13.688702
v -122.1126 8.25 3.8963923
v -96.86109 8.25 -19.411537
v -126.57223 8.25 -0.15000248
v -98.40233 8.25 -25.349922
v -131.36432 8.25 -3.9808464
v -99.167786 8.25 -31.791243
v -136.9322 8.25 -7.308757
v -99.933235 8.25 -38.23254
v -142.5001 8.25 -10.636689
v -101.47445 8.25 -44.170906
v -147.2922 8.25 -14.467557
v -103.34816 8.25 -49.893745
v -151.75183 8.25 -18.513947
v -105.03449 8.25 -55.044296
v -155.7655 8.25 -22.155699
v -116.42733 8.25 -65.67151
v -160.81697 8.25 -36.893997
v -125.63042 8.25 -67.16647
v -158.42531 8.25 -45.905758
v -135.75105 8.25 -66.33059
v -153.5313 8.25 -54.803745
v -94.393166 8.25 7.420574
v -94.393166 -41.75 7.420574
v -92.000916 8.25 3.0711346
v -92.000916 -41.75 3.0711346
v -92.000916 8.25 3.0711346
v -92.000916 -41.75 3.0711346
v -90.831856 8.25 -1.3339128
v -90.831856 -41.75 -1.3339128
v -90.831856 8.25 -1.3339128
v -90.831856 -41.75 -1.3339128
v -93.30106 8.25 -8.53815
v -93.30106 -41.75 -8.53815
v -93.30106 8.25 -8.53815
v -93.30106 -41.75 -8.53815
v -94.9874 8.25 -13.688702
v -94.9874 -41.75 -13.688702
v -94.9874 8.25 -13.688702
v -94.9874 -41.75 -13.688702
v -96.86109 8.25 -19.411537
v -96.86109 -41.75 -19.411537
v -96.86109 8.25 -19.411537
v -96.86109 -41.75 -19.411537
v -98.40233 8.25 -25.349922
v -98.40233 -41.75 -25.349922
v -98.40233 8.25 -25.349922
v -98.40233 -41.75 -25.349922
v -99.167786 8.25 -31.791243
v -99.167786 -41.75 -31.791243
v -99.167786 8.25 -31.791243
v -99.167786 -41.75 -31.791243
v -99.933235 8.25 -38.23254
v -99.933235 -41.75 -38.23254
v -99.933235 8.25 -38.23254
v -99.933235 -41.75 -38.23254
v -101.47445 8.25 -44.170906
v -101.47445 -41.75 -44.170906
v -101.47445 8.25 -44.170906
v -101.47445 -41.75 -44.170906
v -103.34816 8.25 -49.893745
v -103.34816 -41.75 -49.893745
v -103.34816 8.25 -49.893745
v -103.34816 -41.75 -49.893745
v -105.03449 8.25 -55.044296
v -105.03449 -41.75 -55.044296
v -105.03449 8.25 -55.044296
v -105.03449 -41.75 -55.044296
v -116.42733 8.25 -65.67151
v -116.42733 -41.75 -65.67151
v -116.42733 8.25 -65.67151
v -116.42733 -41.75 -65.67151
v -125.63042 8.25 -67.16647
v -125.63042 -41.75 -67.16647
v -125.63042 8.25 -67.16647
v -125.63042 -41.75 -67.16647
v -135.75105 8.25 -66.33059
v -135.75105 -41.75 -66.33059
v -103.08434 8.25 13.055014
v -103.08434 -41.75 13.055014
v -108.03142 8.25 13.463609
v -108.03142 -41.75 13.463609
v -108.03142 8.25 13.463609
v -108.03142 -41.75 13.463609
v -112.52999 8.25 12.732848
v -112.52999 -41.75 12.732848
v -112.52999 8.25 12.732848
v -112.52999 -41.75 12.732848
v -118.09894 8.25 7.538149
v -118.09894 -41.75 7.538149
v -118.09894 8.25 7.538149
v -118.09894 -41.75 7.538149
v -122.1126 8.25 3.8963923
v -122.1126 -41.75 3.8963923
v -122.1126 8.25 3.8963923
v -122.1126 -41.75 3.8963923
v -126.57223 8.25 -0.15000248
v -126.57223 -41.75 -0.15000248
v -126.57223 8.25 -0.15000248
v -126.57223 -41.75 -0.15000248
v -131.36432 8.25 -3.9808464
v -131.36432 -41.75 -3.9808464
v -131.36432 8.25 -3.9808464
v -131.36432 -41.75 -3.9808464
v -136.9322 8.25 -7.308757
v -136.9322 -41.75 -7.308757
v -136.9322 8.25 -7.308757
v -136.9322 -41.75 -7.308757
v -142.5001 8.25 -10.636689
v -142.5001 -41.75 -10.636689
v -142.5001 8.25 -10.636689
v -142.5001 -41.75 -10.636689
v -147.2922 8.25 -14.467557
v -147.2922 -41.75 -14.467557
v -147.2922 8.25 -14.467557
v -147.2922 -41.75 -14.467557
v -151.75183 8.25 -18.513947
v -151.75183 -41.75 -18.513947
v -151.75183 8.25 -18.513947
v -151.75183 -41.75 -18.513947
v -155.7655 8.25 -22.155699
v -155.7655 -41.75 -22.155699
v -155.7655 8.25 -22.155699
v -155.7655 -41.75 -22.155699
v -160.81697 8.25 -36.893997
v -160.81697 -41.75 -36.893997
v -160.81697 8.25 -36.893997
v -160.81697 -41.75 -36.893997
v -158.42531 8.25 -45.905758
v -158.42531 -41.75 -45.905758
v -158.42531 8.25 -45.905758
v -158.42531 -41.75 -45.905758
v -153.5313 8.25 -54.803745
v -153.5313 -41.75 -54.803745
vt -0.018353421 0.03431029
vt -0.014007832 0.03712751
vt -0.019549547 0.03213557
vt -0.011534295 0.03733181
vt -0.020134076 0.029933047
vt -0.009285008 0.036966424
vt -0.018899472 0.026330926
vt -0.0065005342 0.034369078
vt -0.018056305 0.023755651
vt -0.004493702 0.032548197
vt -0.017119458 0.020894233
vt -0.0022638894 0.030525
vt -0.016348839 0.01792504
vt 0.00013215638 0.02860958
vt -0.015966112 0.01470438
vt 0.0029160997 0.026945623
vt -0.015583387 0.011483731
vt 0.005700051 0.025281658
vt -0.01481278 0.008514548
vt 0.0080961 0.023366224
vt -0.013875924 0.005653128
vt 0.010325913 0.021343028
vt -0.013032758 0.0030778523
vt 0.012332749 0.019522153
vt -0.0073363385 -0.0022357542
vt 0.014858483 0.012153002
vt -0.0027347947 -0.0029832365
vt 0.013662652 0.007647122
vt 0.0023255234 -0.0025652943
vt 0.011215646 0.003198128
vt -0.018353421 0.03431029
vt -0.018353421 0.03431029
vt -0.019549547 0.03213557
vt -0.019549547 0.03213557
vt -0.019549547 0.03213557
vt -0.019549547 0.03213557
vt -0.020134076 0.029933047
vt -0.020134076 0.029933047
vt -0.020134076 0.029933047
vt -0.020134076 0.029933047
vt -0.018899472 0.026330926
vt -0.018899472 0.026330926
vt -0.018899472 0.026330926
vt -0.018899472 0.026330926
vt -0.018056305 0.023755651
vt -0.018056305 0.023755651
vt -0.018056305 0.023755651
vt -0.018056305 0.023755651
vt -0.017119458 0.020894233
vt -0.017119458 0.020894233
vt -0.017119458 0.020894233
vt -0.017119458 0.020894233
vt -0.016348839 0.01792504
vt -0.016348839 0.01792504
vt -0.016348839 0.01792504
vt -0.016348839 0.01792504
vt -0.015966112 0.01470438
vt -0.015966112 0.01470438
vt -0.015966112 0.01470438
vt -0.015966112 0.01470438
vt -0.015583387 0.011483731
vt -0.015583387 0.011483731
vt -0.015583387 0.011483731
vt -0.015583387 0.011483731
vt -0.01481278 0.008514548
vt -0.01481278 0.008514548
vt -0.01481278 0.008514548
vt -0.01481278 0.008514548
vt -0.013875924 0.005653128
vt -0.013875924 0.005653128
vt -0.013875924 0.005653128
vt -0.013875924 0.005653128
vt -0.013032758 0.0030778523
vt -0.013032758 0.0030778523
vt -0.013032758 0.0030778523
vt -0.013032758 0.0030778523
vt -0.0073363385 -0.0022357542
vt -0.0073363385 -0.0022357542
vt -0.0073363385 -0.0022357542
vt -0.0073363385 -0.0022357542
vt -0.0027347947 -0.0029832365
vt -0.0027347947 -0.0029832365
vt -0.0027347947 -0.0029832365
vt -0.0027347947 -0.0029832365
vt 0.0023255234 -0.0025652943
vt 0.0023255234 -0.0025652943
vt -0.014007832 0.03712751
vt -0.014007832 0.03712751
vt -0.011534295 0.03733181
vt -0.011534295 0.03733181
vt -0.011534295 0.03733181
vt -0.011534295 0.03733181
vt -0.009285008 0.036966424
vt -0.009285008 0.036966424
vt -0.009285008 0.036966424
vt -0.009285008 0.036966424
vt -0.0065005342 0.034369078
vt -0.0065005342 0.034369078
vt -0.0065005342 0.034369078
vt -0.0065005342 0.034369078
vt -0.004493702 0.032548197
vt -0.004493702 0.032548197
vt -0.004493702 0.032548197
vt -0.004493702 0.032548197
vt -0.0022638894 0.030525
vt -0.0022638894 0.030525
vt -0.0022638894 0.030525
vt -0.0022638894 0.030525
vt 0.00013215638 0.02860958
vt 0.00013215638 0.02860958
vt 0.00013215638 0.02860958
vt 0.00013215638 0.02860958
vt 0.0029160997 0.026945623
vt 0.0029160997 0.026945623
vt 0.0029160997 0.026945623
vt 0.0029160997 0.026945623
vt 0.005700051 0.025281658
vt 0.005700051 0.025281658
vt 0.005700051 0.025281658
vt 0.005700051 0.025281658
vt 0.0080961 0.023366224
vt 0.0080961 0.023366224
vt 0.0080961 0.023366224
vt 0.0080961 0.023366224
vt 0.010325913 0.021343028
vt 0.010325913 0.021343028
vt 0.010325913 0.021343028
vt 0.010325913 0.021343028
vt 0.012332749 0.019522153
vt 0.012332749 0.019522153
vt 0.012332749 0.019522153
vt 0.012332749 0.019522153
vt 0.014858483 0.012153002
vt 0.014858483 0.012153002
vt 0.014858483 0.012153002
vt 0.014858483 0.012153002
vt 0.013662652 0.007647122
vt 0.013662652 0.007647122
vt 0.013662652 0.007647122
vt 0.013662652 0.007647122
vt 0.011215646 0.003198128
vt 0.011215646 0.003198128
vn -0 1 0
vn -0 1 0
vn -0 1 0
vn -0 1 0
vn -0 1 0
vn -0 1 0
vn -0 1 0
vn -0 1 0
vn -0 1 0
vn -0 1 0
vn -0 1 0
vn -0 1 0
vn -0 1 0
vn -0 1 0
vn -0 1 0
vn -0 1 0
vn -0 1 0
vn -0 1 0
vn -0 1 0
vn -0 1 0
vn -0 1 0
vn -0 1 0
vn -0 1 0
vn -0 1 0
vn -0 1 0
vn -0 1 0
vn -0 1 0
vn -0 1 0
vn -0 1 0
vn -0 1 0
vn 0.54398173 0 0.8390971
vn 0.54398173 0 0.8390971
vn 0.8762109 0 0.48192775
vn 0.8762109 0 0.48192775
vn 0.96654123 0 0.2565113
vn 0.96654123 0 0.2565113
vn 0.96654123 0 0.2565113
vn 0.96654123 0 0.2565113
vn 0.9459788 0 -0.32422838
vn 0.9459788 -0 -0.32422838
vn 0.9459788 -0 -0.32422838
vn 0.9459788 -0 -0.32422838
vn 0.9503591 0 -0.31115532
vn 0.9503591 -0 -0.31115532
vn 0.9503591 -0 -0.31115532
vn 0.9503591 -0 -0.31115532
vn 0.95035946 0 -0.31115416
vn 0.95035946 -0 -0.31115416
vn 0.95035946 -0 -0.31115416
vn 0.95035946 -0 -0.31115416
vn 0.96793133 0 -0.251215
vn 0.96793133 -0 -0.251215
vn 0.96793133 -0 -0.251215
vn 0.96793133 -0 -0.251215
vn 0.99301296 0 -0.11800514
vn 0.99301296 -0 -0.11800514
vn 0.99301296 -0 -0.11800514
vn 0.99301296 -0 -0.11800514
vn 0.9930131 0 -0.11800439
vn 0.9930131 -0 -0.11800439
vn 0.9930131 -0 -0.11800439
vn 0.9930131 -0 -0.11800439
vn 0.967932 0 -0.25121224
vn 0.967932 -0 -0.25121224
vn 0.967932 -0 -0.25121224
vn 0.967932 -0 -0.25121224
vn 0.95035875 0 -0.31115624
vn 0.95035875 -0 -0.31115624
vn 0.95035875 -0 -0.31115624
vn 0.95035875 -0 -0.31115624
vn 0.95035905 0 -0.31115538
vn 0.95035905 -0 -0.31115538
vn 0.95035905 -0 -0.31115538
vn 0.95035905 -0 -0.31115538
vn 0.6821089 0 -0.7312506
vn 0.6821089 -0 -0.7312506
vn 0.6821089 -0 -0.7312506
vn 0.6821089 -0 -0.7312506
vn 0.16033995 0 -0.98706186
vn 0.16033995 -0 -0.98706186
vn 0.16033995 -0 -0.98706186
vn 0.16033995 -0 -0.98706186
vn -0.08231179 0 -0.99660665
vn -0.08231179 0 -0.99660665
vn -0.5439823 0 -0.8390967
vn -0.5439823 0 -0.8390967
vn 0.54398173 0 0.8390971
vn 0.54398173 0 0.8390971
vn 0.08231299 0 0.9966065
vn 0.08231299 0 0.9966065
vn -0.160341 -0 0.9870617
vn -0.160341 0 0.9870617
vn -0.160341 0 0.9870617
vn -0.160341 0 0.9870617
vn -0.6821088 -0 0.7312507
vn -0.6821088 0 0.7312507
vn -0.6821088 0 0.7312507
vn -0.6821088 0 0.7312507
vn -0.6719623 -0 0.74058527
vn -0.6719623 0 0.74058527
vn -0.6719623 0 0.74058527
vn -0.6719623 0 0.74058527
vn -0.67196244 -0 0.74058527
vn -0.67196244 0 0.74058527
vn -0.67196244 0 0.74058527
vn -0.67196244 0 0.74058527
vn -0.6244138 -0 0.7810937
vn -0.6244138 0 0.7810937
vn -0.6244138 0 0.7810937
vn -0.6244138 0 0.7810937
vn -0.5130416 -0 0.8583637
vn -0.5130416 0 0.8583637
vn -0.5130416 0 0.8583637
vn -0.5130416 0 0.8583637
vn -0.5130431 -0 0.8583628
vn -0.5130431 0 0.8583628
vn -0.5130431 0 0.8583628
vn -0.5130431 0 0.8583628
vn -0.62441564 -0 0.7810923
vn -0.62441564 0 0.7810923
vn -0.62441564 0 0.7810923
vn -0.62441564 0 0.7810923
vn -0.6719619 -0 0.74058574
vn -0.6719619 0 0.74058574
vn -0.6719619 0 0.74058574
vn -0.6719619 0 0.74058574
vn -0.67196125 -0 0.74058634
vn -0.67196125 0 0.74058634
vn -0.67196125 0 0.74058634
vn -0.67196125 0 0.74058634
vn -0.9459787 -0 0.32422882
vn -0.9459787 0 0.32422882
vn -0.9459787 0 0.32422882
vn -0.9459787 0 0.32422882
vn -0.96654063 0 -0.2565136
vn -0.96654063 0 -0.2565136
vn -0.96654063 0 -0.2565136
vn -0.96654063 0 -0.2565136
vn -0.8762109 0 -0.48192778
vn -0.8762109 0 -0.48192778
vn -0.5439823 0 -0.8390967
vn -0.5439823 0 -0.8390967
g _0
f 3/3/3 2/2/2 1/1/1
f 2/2/2 3/3/3 4/4/4
f 5/5/5 4/4/4 3/3/3
f 4/4/4 5/5/5 6/6/6
f 7/7/7 6/6/6 5/5/5
f 6/6/6 7/7/7 8/8/8
f 9/9/9 8/8/8 7/7/7
f 8/8/8 9/9/9 10/10/10
f 11/11/11 10/10/10 9/9/9
f 10/10/10 11/11/11 12/12/12
f 13/13/13 12/12/12 11/11/11
f 12/12/12 13/13/13 14/14/14
f 15/15/15 14/14/14 13/13/13
f 14/14/14 15/15/15 16/16/16
f 17/17/17 16/16/16 15/15/15
f 16/16/16 17/17/17 18/18/18
f 19/19/19 18/18/18 17/17/17
f 18/18/18 19/19/19 20/20/20
f 21/21/21 20/20/20 19/19/19
f 20/20/20 21/21/21 22/22/22
f 23/23/23 22/22/22 21/21/21
f 22/22/22 23/23/23 24/24/24
f 25/25/25 24/24/24 23/23/23
f 24/24/24 25/25/25 26/26/26
f 27/27/27 26/26/26 25/25/25
f 26/26/26 27/27/27 28/28/28
f 29/29/29 28/28/28 27/27/27
f 28/28/28 29/29/29 30/30/30
g _1
f 31/31/31 32/32/32 33/33/33
f 34/34/34 33/33/33 32/32/32
f 35/35/35 36/36/36 37/37/37
f 38/38/38 37/37/37 36/36/36
f 39/39/39 40/40/40 41/41/41
f 42/42/42 41/41/41 40/40/40
f 43/43/43 44/44/44 45/45/45
f 46/46/46 45/45/45 44/44/44
f 47/47/47 48/48/48 49/49/49
f 50/50/50 49/49/49 48/48/48
f 51/51/51 52/52/52 53/53/53
f 54/54/54 53/53/53 52/52/52
f 55/55/55 56/56/56 57/57/57
f 58/58/58 57/57/57 56/56/56
f 59/59/59 60/60/60 61/61/61
f 62/62/62 61/61/61 60/60/60
f 63/63/63 64/64/64 65/65/65
f 66/66/66 65/65/65 64/64/64
f 67/67/67 68/68/68 69/69/69
f 70/70/70 69/69/69 68/68/68
f 71/71/71 72/72/72 73/73/73
f 74/74/74 73/73/73 72/72/72
f 75/75/75 76/76/76 77/77/77
f 78/78/78 77/77/77 76/76/76
f 79/79/79 80/80/80 81/81/81
f 82/82/82 81/81/81 80/80/80
f 83/83/83 84/84/84 85/85/85
f 86/86/86 85/85/85 84/84/84
f 89/89/89 88/88/88 87/87/87
f 88/88/88 89/89/89 90/90/90
f 93/93/93 92/92/92 91/91/91
f 92/92/92 93/93/93 94/94/94
f 97/97/97 96/96/96 95/95/95
f 96/96/96 97/97/97 98/98/98
f 101/101/101 100/100/100 99/99/99
f 100/100/100 101/101/101 102/102/102
f 105/105/105 104/104/104 103/103/103
f 104/104/104 105/105/105 106/106/106
f 109/109/109 108/108/108 107/107/107
f 108/108/108 109/109/109 110/110/110
f 113/113/113 112/112/112 111/111/111
f 112/112/112 113/113/113 114/114/114
f 117/117/117 116/116/116 115/115/115
f 116/116/116 117/117/117 118/118/118
f 121/121/121 120/120/120 119/119/119
f 120/120/120 121/121/121 122/122/122
f 125/125/125 124/124/124 123/123/123
f 124/124/124 125/125/125 126/126/126
f 129/129/129 128/128/128 127/127/127
f 128/128/128 129/129/129 130/130/130
f 133/133/133 132/132/132 131/131/131
f 132/132/132 133/133/133 134/134/134
f 137/137/137 136/136/136 135/135/135
f 136/136/136 137/137/137 138/138/138
f 141/141/141 140/140/140 139/139/139
f 140/140/140 141/141/141 142/142/142
f 87/87/87 32/32/32 31/31/31
f 32/32/32 87/87/87 88/88/88
f 85/85/85 86/86/86 141/141/141
f 142/142/142 141/141/141 86/86/86
