g 
v 35.34 50.284588 87.62
v 35.34 31.95541 87.62
v 38.43 50.8396 85.6
v 38.43 29.920395 85.6
v 40.33 50.8396 86.01
v 40.33 29.920395 86.01
v 40.35 50.8396 88.48
v 40.35 29.920395 88.48
v 35.99 50.8396 95.75
v 35.99 29.920395 95.75
v 33.7 50.8396 96.78
v 33.7 29.920395 96.78
v 32.19 50.8396 95.07
v 32.19 29.920395 95.07
v 33.15 50.8396 90.7
v 33.15 29.920395 90.7
v 35.34 50.284588 87.62
v 35.34 31.95541 87.62
vt -0.3534 0.8762
vt -0.3534 0.8762
vt -0.3843 0.85599995
vt -0.3843 0.85599995
vt -0.40330002 0.86010003
vt -0.40330002 0.86010003
vt -0.40349996 0.8848
vt -0.40349996 0.8848
vt -0.3599 0.9575
vt -0.3599 0.9575
vt -0.337 0.96779996
vt -0.337 0.96779996
vt -0.32189998 0.9507
vt -0.32189998 0.9507
vt -0.3315 0.90699995
vt -0.3315 0.90699995
vt -0.3534 0.8762
vt -0.3534 0.8762
vn -0.5471772 0 -0.8370169
vn -0.5471772 0 -0.8370168
vn 0.21093589 0 -0.9774999
vn 0.21093589 -0 -0.9774999
vn 0.9999672 0 -0.008095537
vn 0.9999672 -0 -0.008095537
vn 0.85759705 0 0.51432216
vn 0.85759705 0 0.51432216
vn 0.41019854 0 0.91199625
vn 0.41019854 0 0.91199625
vn -0.74958134 -0 0.66191226
vn -0.74958134 0 0.66191226
vn -0.97671 0 -0.2145638
vn -0.97671 0 -0.2145638
vn -0.8149828 0 -0.57948524
vn -0.8149828 0 -0.57948524
vn -0.8149828 0 -0.57948524
vn -0.8149828 0 -0.57948524
g _0
f 3/3/3 2/2/2 1/1/1
f 2/2/2 3/3/3 4/4/4
f 5/5/5 4/4/4 3/3/3
f 4/4/4 5/5/5 6/6/6
f 7/7/7 6/6/6 5/5/5
f 6/6/6 7/7/7 8/8/8
f 9/9/9 8/8/8 7/7/7
f 8/8/8 9/9/9 10/10/10
f 11/11/11 10/10/10 9/9/9
f 10/10/10 11/11/11 12/12/12
f 13/13/13 12/12/12 11/11/11
f 12/12/12 13/13/13 14/14/14
f 15/15/15 14/14/14 13/13/13
f 14/14/14 15/15/15 16/16/16
f 17/17/17 16/16/16 15/15/15
f 16/16/16 17/17/17 18/18/18
