g 
v -116.59924 14.4 -44.964508
v -116.60231 14.4 -49.43
v -115.42626 14.4 -43.24112
v -115.431694 14.4 -51.155
v -112.596634 14.4 -42.30007
v -112.60336 14.4 -52.09993
v -111.735054 14.4 -42.300663
v -111.74244 14.4 -52.10052
v -110.77506 14.4 -42.301445
v -110.788536 14.4 -52.101295
v -109.81454 14.4 -42.303303
v -109.835144 14.4 -52.103146
v -108.85491 14.4 -42.30548
v -108.88087 14.4 -52.10531
v -107.89495 14.4 -42.308388
v -107.9269 14.4 -52.1082
v -106.93573 14.4 -42.311737
v -106.97221 14.4 -52.111534
v -105.9763 14.4 -42.315533
v -106.017715 14.4 -52.115307
v -105.01745 14.4 -42.319843
v -105.062645 14.4 -52.119602
v -104.05853 14.4 -42.32438
v -104.107635 14.4 -52.124115
v -103.0999 14.4 -42.329453
v -103.15233 14.4 -52.129173
v -102.1416 14.4 -42.334633
v -102.196686 14.4 -52.13434
v -101.183304 14.4 -42.340225
v -101.24104 14.4 -52.139915
v -100.22544 14.4 -42.34592
v -100.28495 14.4 -52.145603
v -99.26758 14.4 -42.35186
v -99.32887 14.4 -52.151527
v -98.31007 14.4 -42.3579
v -98.372444 14.4 -52.157566
v -97.352615 14.4 -42.364048
v -97.415955 14.4 -52.163708
v -96.395355 14.4 -42.370277
v -96.45926 14.4 -52.16993
v -95.43829 14.4 -42.376534
v -95.50236 14.4 -52.176186
v -94.481346 14.4 -42.38279
v -94.54536 14.4 -52.18244
v -93.52462 14.4 -42.38903
v -93.58814 14.4 -52.18869
v -92.56802 14.4 -42.39519
v -92.6308 14.4 -52.19485
v -91.61154 14.4 -42.401287
v -91.673325 14.4 -52.200954
v -90.655266 14.4 -42.40725
v -90.71566 14.4 -52.206924
v -89.69901 14.4 -42.413074
v -89.75797 14.4 -52.212757
v -88.74302 14.4 -42.418755
v -88.80001 14.4 -52.218452
v -87.78696 14.4 -42.424194
v -87.84213 14.4 -52.2239
v -86.83125 14.4 -42.42952
v -86.883896 14.4 -52.22924
v -85.875496 14.4 -42.43446
v -85.92571 14.4 -52.234196
v -84.91989 14.4 -42.439312
v -84.96739 14.4 -52.239063
v -83.96449 14.4 -42.443726
v -84.008865 14.4 -52.243484
v -83.00894 14.4 -42.447968
v -83.05049 14.4 -52.24774
v -82.05374 14.4 -42.451824
v -82.09177 14.4 -52.251614
v -81.09831 14.4 -42.455383
v -81.133255 14.4 -52.25518
v -80.14327 14.4 -42.458637
v -80.17437 14.4 -52.25845
v -79.187965 14.4 -42.46144
v -79.21577 14.4 -52.26127
v -78.233086 14.4 -42.464054
v -78.25674 14.4 -52.26389
v -77.27807 14.4 -42.466053
v -77.29786 14.4 -52.265896
v -76.32312 14.4 -42.46791
v -76.3389 14.4 -52.26776
v -75.36837 14.4 -42.469128
v -75.37974 14.4 -52.268986
v -74.41331 14.4 -42.470127
v -74.42089 14.4 -52.269985
v -73.458664 14.4 -42.470604
v -73.461655 14.4 -52.27047
v -72.50367 14.4 -42.470707
v -72.50277 14.4 -52.270573
v -71.549065 14.4 -42.47043
v -71.54348 14.4 -52.270294
v -70.59408 14.4 -42.46962
v -70.58459 14.4 -52.269478
v -69.639496 14.4 -42.468582
v -69.62529 14.4 -52.268433
v -68.68472 14.4 -42.466854
v -68.6662 14.4 -52.266697
v -67.72995 14.4 -42.464973
v -67.70709 14.4 -52.26481
v -66.77536 14.4 -42.4624
v -66.7478 14.4 -52.262226
v -65.82035 14.4 -42.459602
v -65.78895 14.4 -52.259415
v -64.86572 14.4 -42.45628
v -64.82973 14.4 -52.256077
v -63.910694 14.4 -42.452587
v -63.870907 14.4 -52.25237
v -62.955997 14.4 -42.448524
v -62.911755 14.4 -52.24829
v -62.000908 14.4 -42.443966
v -61.952995 14.4 -52.24371
v -61.04611 14.4 -42.439186
v -60.993954 14.4 -52.238914
v -60.091095 14.4 -42.4338
v -60.035133 14.4 -52.233505
v -59.136013 14.4 -42.42828
v -59.07638 14.4 -52.227962
v -58.181046 14.4 -42.422176
v -58.117508 14.4 -52.221836
v -57.225674 14.4 -42.415894
v -57.159046 14.4 -52.21553
v -56.27055 14.4 -42.409187
v -56.200348 14.4 -52.2088
v -55.31505 14.4 -42.402206
v -55.242035 14.4 -52.201797
v -54.359722 14.4 -42.39495
v -54.283543 14.4 -52.19452
v -53.40407 14.4 -42.387352
v -53.325375 14.4 -52.186897
v -52.44852 14.4 -42.379604
v -52.367107 14.4 -52.179127
v -51.492805 14.4 -42.37147
v -51.40901 14.4 -52.17098
v -50.536926 14.4 -42.36326
v -50.45108 14.4 -52.162743
v -49.58104 14.4 -42.354725
v -49.493164 14.4 -52.154194
v -48.62484 14.4 -42.34611
v -48.535553 14.4 -52.145565
v -47.66869 14.4 -42.337303
v -47.5779 14.4 -52.13674
v -46.712284 14.4 -42.328392
v -46.620502 14.4 -52.127823
v -45.755802 14.4 -42.319386
v -45.663177 14.4 -52.11881
v -44.799145 14.4 -42.310307
v -44.70603 14.4 -52.10973
v -43.887222 14.4 -42.301834
v -43.704163 14.4 -52.09999
v -43.081806 14.4 -42.27989
v -42.62804 14.4 -52.06924
v -42.298054 14.4 -42.22878
v -41.533348 14.4 -51.99876
v -41.46709 14.4 -42.15223
v -40.485714 14.4 -51.902832
v -40.59232 14.4 -42.056316
v -39.482067 14.4 -51.793087
v -39.679016 14.4 -41.94798
v -38.5174 14.4 -51.678753
v -38.732235 14.4 -41.834206
v -37.58688 14.4 -51.56691
v -37.756615 14.4 -41.721886
v -36.686024 14.4 -51.463097
v -36.756725 14.4 -41.617348
v -35.810352 14.4 -51.371407
v -35.73703 14.4 -41.52624
v -34.955452 14.4 -51.294888
v -34.702076 14.4 -41.453247
v -34.116726 14.4 -51.23561
v -33.656525 14.4 -41.40198
v -33.289436 14.4 -51.194965
v -32.605274 14.4 -41.374783
v -32.468548 14.4 -51.173695
v -31.553156 14.4 -41.372658
v -31.64901 14.4 -51.17205
v -30.505157 14.4 -41.395233
v -30.825592 14.4 -51.189857
v -29.466131 14.4 -41.44074
v -29.993097 14.4 -51.22642
v -28.478037 14.4 -41.503582
v -29.109194 14.4 -51.2831
v -27.62833 14.4 -41.559166
v -28.197823 14.4 -51.34247
v -26.799322 14.4 -41.601444
v -27.272089 14.4 -51.389896
v -25.92756 14.4 -41.641075
v -26.385485 14.4 -51.430237
v -25.017895 14.4 -41.684864
v -25.535868 14.4 -51.471027
v -24.077082 14.4 -41.739323
v -24.718853 14.4 -51.518147
v -23.111605 14.4 -41.81038
v -23.929983 14.4 -51.57601
v -22.127783 14.4 -41.903107
v -23.164627 14.4 -51.647964
v -21.131973 14.4 -42.021385
v -22.417772 14.4 -51.736534
v -20.130474 14.4 -42.167717
v -21.68412 14.4 -51.843643
v -19.129488 14.4 -42.343044
v -20.95813 14.4 -51.970783
v -18.134985 14.4 -42.546688
v -20.234154 14.4 -52.119083
v -17.152607 14.4 -42.77636
v -19.506527 14.4 -52.289314
v -16.187628 14.4 -43.02821
v -18.769608 14.4 -52.481815
v -15.2447815 14.4 -43.297
v -18.017956 14.4 -52.6963
v -14.328406 14.4 -43.57631
v -17.246187 14.4 -52.931732
v -13.442567 14.4 -43.8587
v -16.448849 14.4 -53.186054
v -12.5912485 14.4 -44.135994
v -15.620222 14.4 -53.45601
v -11.778642 14.4 -44.39954
v -14.754046 14.4 -53.73679
v -11.009368 14.4 -44.64058
v -13.843284 14.4 -54.021744
v -10.238089 14.4 -44.864914
v -12.930511 14.4 -54.28766
v -9.300575 14.287781 -45.12837
v -12.052589 14.287781 -54.533886
v -8.337965 13.927135 -45.422714
v -11.347945 13.927135 -54.74888
v -7.458489 13.401297 -45.72376
v -10.7752695 13.401297 -54.94527
v -6.747116 12.888 -45.995872
v -10.414242 12.888 -55.083748
v -6.0793743 12.306453 -46.279667
v -10.064253 12.306453 -55.23277
v -5.440034 11.681593 -46.577335
v -9.723619 11.681593 -55.39143
v -4.8347535 11.03114 -46.883816
v -9.3755 11.03114 -55.568226
v -4.268566 10.37675 -47.1888
v -8.999098 10.37675 -55.771305
v -3.7394936 9.739422 -47.486633
v -8.581873 9.739422 -56.00653
v -3.248525 9.137531 -47.76808
v -8.108398 9.137531 -56.278015
v -2.7918966 8.595359 -48.028072
v -7.564417 8.595359 -56.5873
v -2.3065505 8.074698 -48.294937
v -6.8539047 8.074698 -56.975887
v -1.7289412 7.630927 -48.5879
v -5.906865 7.630927 -57.45256
v -1.0682918 7.412906 -48.87831
v -4.87803 7.412906 -57.907333
v -0.16626012 7.392332 -49.23969
v -4.044593 7.392332 -58.245907
v 0.8567308 7.358735 -49.694042
v -3.3886714 7.358735 -58.56193
v 1.8003523 7.301129 -50.13928
v -2.6688535 7.301129 -58.94643
v 2.668695 7.2233524 -50.553535
v -1.8804902 7.2233524 -59.387257
v 3.4762673 7.129184 -50.92776
v -1.0306796 7.129184 -59.864635
v 4.23411 7.022462 -51.2571
v -0.12414622 7.022462 -60.358883
v 4.951813 6.9069653 -51.54058
v 0.83454347 6.9069653 -60.851494
v 5.638797 6.786532 -51.780083
v 1.839864 6.786532 -61.32553
v 6.305798 6.664942 -51.980003
v 2.883714 6.664942 -61.76647
v 6.9650316 6.546032 -52.146057
v 3.9553497 6.546032 -62.16304
v 7.630579 6.4335823 -52.28468
v 5.0409403 6.4335823 -62.50799
v 8.317248 6.331431 -52.402363
v 6.1247234 6.331431 -62.79878
v 9.04013 6.2433558 -52.50565
v 7.189478 6.2433558 -63.037395
v 9.813311 6.173197 -52.601814
v 8.217733 6.173197 -63.230003
v 10.649993 6.124731 -52.69982
v 9.191772 6.124731 -63.385506
v 11.532277 6.101798 -52.808147
v 10.123691 6.101798 -63.518345
v 12.349444 6.03792 -52.87695
v 11.129152 6.03792 -63.686687
v 12.963262 5.7655807 -52.772144
v 12.230846 5.7655807 -63.953762
v 13.372155 5.3125286 -52.515785
v 13.429389 5.3125286 -64.26551
v 13.662925 4.716889 -52.142662
v 14.662157 4.716889 -64.56799
v 13.723144 4.1699224 -51.801853
v 15.78022 4.1699224 -64.76217
v 13.778289 3.6185393 -51.45194
v 16.80834 3.6185393 -64.899765
v 13.872544 3.0500002 -51.074955
v 17.788776 3.0500002 -65.00283
v 14.030974 2.481461 -50.6677
v 18.706911 2.481461 -65.07911
v 14.301883 1.9300783 -50.2246
v 19.524496 1.9300783 -65.15071
v 14.714024 1.4158673 -49.748604
v 20.224691 1.4158673 -65.22814
v 15.356519 0.95312506 -49.227985
v 20.72651 0.95312506 -65.34396
v 16.466684 0.45356047 -48.564346
v 21.21359 0.45356047 -65.498886
v 18.023914 0.122127146 -47.98694
v 21.354345 0.122127146 -65.66133
v 19.722658 0 -47.676476
v 21.477345 0 -65.723526
v 21.085773 0 -47.59119
v 22.004055 0 -65.69621
v 22.181515 0 -47.550323
v 22.801466 0 -65.65781
v 23.257282 0 -47.5297
v 23.621696 0 -65.62797
v 24.320324 0 -47.526005
v 24.45703 0 -65.60573
v 25.362398 0 -47.538208
v 25.315529 0 -65.59074
v 26.377804 0 -47.56108
v 26.202099 0 -65.58052
v 27.376637 0 -47.592163
v 27.106268 0 -65.57388
v 28.360596 0 -47.629295
v 28.025965 0 -65.56954
v 29.32782 0 -47.67089
v 28.96271 0 -65.56618
v 30.27853 0 -47.71425
v 29.915876 0 -65.56228
v 31.216503 0 -47.757862
v 30.881405 0 -65.556564
v 32.139217 0 -47.80025
v 31.861553 0 -65.547935
v 33.04952 0 -47.839584
v 32.85304 0 -65.53437
v 33.951954 0 -47.87503
v 33.851223 0 -65.51538
v 34.845478 0 -47.905544
v 34.85696 0 -65.490105
v 35.724846 0 -47.93027
v 35.875328 0 -65.45766
v 36.596203 0 -47.94711
v 36.89974 0 -65.41597
v 37.466824 0 -47.95632
v 37.923077 0 -65.36576
v 38.332417 0 -47.95732
v 38.949528 0 -65.30654
v 39.18651 0 -47.9499
v 39.985504 0 -65.237656
v 40.037045 0 -47.931618
v 41.022655 0 -65.157646
v 40.892605 0 -47.90323
v 42.05275 0 -65.06843
v 41.74705 0 -47.86473
v 43.08191 0 -64.96978
v 42.594086 0 -47.81649
v 44.11646 0 -64.861336
v 43.44201 0 -47.755867
v 45.147842 0 -64.74274
v 44.29921 0 -47.68381
v 46.168106 0 -64.61676
v 45.159107 0 -47.60094
v 47.183914 0 -64.48343
v 46.016975 0 -47.507988
v 48.200115 0 -64.34285
v 46.88004 0 -47.40259
v 49.20944 0 -64.19593
v 47.75504 0 -47.2859
v 50.205578 0 -64.04567
v 48.636494 0 -47.15904
v 51.19423 0 -63.89246
v 49.4464 0 -47.035267
v 52.253597 0 -63.724735
v 50.083588 0 -46.920444
v 53.396095 0 -63.517292
v 50.68256 0 -46.789116
v 54.56171 0 -63.263496
v 51.288734 0 -46.635273
v 55.7063 0 -62.97472
v 51.91922 0 -46.452374
v 56.81269 0 -62.657314
v 52.587708 0 -46.239967
v 57.87021 0 -62.324326
v 53.26982 0 -46.006184
v 58.904488 0 -61.972935
v 53.976604 0 -45.74668
v 59.904945 0 -61.609413
v 54.715813 0 -45.46234
v 60.86628 0 -61.243195
v 55.47351 0 -45.159966
v 61.803696 0 -60.872696
v 56.25592 0 -44.83839
v 62.711914 0 -60.50313
v 57.06602 0 -44.500107
v 63.589916 0 -60.14006
v 57.899963 0 -44.14914
v 64.44278 0 -59.784607
v 58.75989 0 -43.787888
v 65.26982 0 -59.44049
v 59.6445 0 -43.420296
v 66.07375 0 -59.109573
v 60.55971 0 -43.047264
v 66.84991 0 -58.796074
v 61.503815 0 -42.674805
v 67.60193 0 -58.502075
v 62.47099 0 -42.308167
v 68.336525 0 -58.22599
v 63.476997 0 -41.945587
v 69.03916 0 -57.974594
v 64.5159 0 -41.596695
v 69.718254 0 -57.748398
v 65.5765 0 -41.26757
v 70.38532 0 -57.542786
v 66.684456 0 -40.955288
v 71.01594 0 -57.365635
v 67.828575 0 -40.672615
v 71.62427 0 -57.216293
v 68.991394 0 -40.42536
v 72.22758 0 -57.08828
v 70.121284 0 -40.225456
v 72.878716 0 -56.97454
v 71.14118 0 -40.073975
v 73.63955 0 -56.853287
v 72.1336 0 -39.945435
v 74.42864 0 -56.72416
v 73.18214 0 -39.83381
v 75.16311 0 -56.60589
v 74.27676 0 -39.74734
v 75.85359 0 -56.50082
v 75.40697 0 -39.693096
v 76.51102 0 -56.410336
v 76.56189 0 -39.676456
v 77.14664 0 -56.335392
v 77.730286 0 -39.700714
v 77.77191 0 -56.27691
v 78.90097 0 -39.766785
v 78.39815 0 -56.236046
v 80.063156 0 -39.87315
v 79.03616 0 -56.2143
v 81.20665 0 -40.01594
v 79.696 0 -56.21336
v 82.3223 0 -40.189194
v 80.38659 0 -56.2349
v 83.40195 0 -40.385246
v 81.11575 0 -56.280167
v 84.43818 0 -40.595108
v 81.890434 0 -56.349617
v 85.424034 0 -40.80888
v 82.71699 0 -56.44248
v 86.35259 0 -41.016182
v 83.60166 0 -56.556343
v 87.216255 0 -41.20657
v 84.55123 0 -56.68675
v 88.006226 0 -41.370094
v 85.57356 0 -56.82659
v 88.71201 0 -41.49808
v 86.678085 0 -56.96539
v 89.321304 0 -41.584236
v 87.87596 0 -57.088142
v 90.065384 0 -41.64013
v 88.93462 0 -57.159874
v 90.774536 0 -41.24124
v 89.52509 0 -57.657173
v 91.26601 0 -40.286224
v 90.333405 0 -58.711624
v 91.45826 0 -39.297733
v 91.44135 0 -59.73228
v 91.76348 0 -38.83677
v 92.43653 0 -60.16323
v 92.47845 -0.17818542 -38.804043
v 93.42391 -0.17818542 -60.131207
v 93.02595 -0.66175205 -38.760536
v 94.27923 -0.66175205 -60.101807
v 93.464096 -1.390625 -38.708412
v 95.00331 -1.390625 -60.076202
v 93.70591 -2.0657732 -38.66784
v 95.5072 -2.0657732 -60.057068
v 93.96036 -2.8160155 -38.621864
v 95.92485 -2.8160155 -60.04335
v 94.22827 -3.620492 -38.571392
v 96.27591 -3.620492 -60.035114
v 94.53904 -4.45 -38.5158
v 96.5596 -4.45 -60.033653
v 94.89995 -5.2795076 -38.456947
v 96.79323 -5.2795076 -60.03791
v 95.314186 -6.083984 -38.39736
v 96.99813 -6.083984 -60.045616
v 95.773445 -6.8342266 -38.340935
v 97.211266 -6.8342266 -60.05346
v 96.29276 -7.5093746 -38.28864
v 97.43804 -7.5093746 -60.060406
v 97.002426 -8.238247 -38.23254
v 97.891235 -8.238247 -60.061436
v 97.81777 -8.721814 -38.188824
v 98.47933 -8.721814 -60.05573
v 98.50047 -8.9 -38.167435
v 99.49953 -8.9 -60.032562
v 98.89594 -8.9 -38.053352
v 100.91099 -8.9 -60.03083
v 99.354454 -8.9 -37.747
v 102.26966 -8.9 -60.120712
v 100.12029 -8.9 -37.262672
v 103.32584 -8.9 -60.347336
v 101.15374 -8.9 -36.65039
v 104.11462 -8.9 -60.71128
v 102.42357 -8.9 -35.97923
v 104.6635 -8.9 -61.182735
v 103.908295 -8.9 -35.31744
v 104.99124 -8.9 -61.721516
v 105.54892 -8.9 -34.73338
v 105.15469 -8.9 -62.280254
v 107.25549 -8.9 -34.27558
v 105.243126 -8.9 -62.81488
v 108.94722 -8.9 -33.97056
v 105.337265 -8.9 -63.29557
v 110.497856 -8.9 -33.82196
v 105.56403 -8.9 -63.707146
v 111.78385 -8.9 -33.80399
v 106.04899 -8.9 -64.04795
v 112.78167 -8.9 -33.907524
v 106.818344 -8.9 -64.29248
v 113.74554 -8.9 -34.18746
v 107.75963 -8.9 -64.3852
v 114.79186 -8.9 -34.644047
v 108.61634 -8.9 -64.31083
v 115.903076 -8.9 -35.2747
v 109.40144 -8.9 -64.08885
v 117.053505 -8.9 -36.050377
v 110.13778 -8.9 -63.758118
v 118.20042 -8.9 -36.956783
v 110.864655 -8.9 -63.34538
v 119.3186 -8.9 -37.960766
v 111.60659 -8.9 -62.885715
v 120.38052 -8.9 -39.039276
v 112.38922 -8.9 -62.40915
v 121.37148 -8.9 -40.156044
v 113.22848 -8.9 -61.94702
v 122.28534 -8.9 -41.282227
v 114.13031 -8.9 -61.528625
v 123.12049 -8.9 -42.383232
v 115.099174 -8.9 -61.17781
v 123.88964 -8.9 -43.428356
v 116.124214 -8.9 -60.91817
v 124.59841 -8.9 -44.38807
v 117.20402 -8.9 -60.763714
v 125.26824 -8.9 -45.22982
v 118.321304 -8.9 -60.7313
v 125.899765 -8.9 -45.92824
v 119.48068 -8.9 -60.827015
v 126.50849 -8.9 -46.445103
v 120.673454 -8.9 -61.063793
v 127.18982 -8.9 -46.799305
v 121.81018 -8.9 -61.400692
v 128.00989 -8.9 -47.09112
v 122.75705 -8.9 -61.738605
v 128.91924 -8.9 -47.419243
v 123.612236 -8.9 -62.047195
v 129.82413 -8.9 -47.749313
v 124.46976 -8.9 -62.359985
v 130.72488 -8.9 -48.08095
v 125.32959 -8.9 -62.676563
v 131.62177 -8.9 -48.413803
v 126.19171 -8.9 -62.99652
v 132.51501 -8.9 -48.747517
v 127.05613 -8.9 -63.31947
v 133.40486 -8.9 -49.08177
v 127.92284 -8.9 -63.645035
v 134.29164 -8.9 -49.41629
v 128.7918 -8.9 -63.972824
v 135.17557 -8.9 -49.75079
v 129.66293 -8.9 -64.30249
v 136.05684 -8.9 -50.085
v 130.5363 -8.9 -64.6337
v 136.93576 -8.9 -50.4187
v 131.41177 -8.9 -64.966095
v 137.8125 -8.9 -50.75166
v 132.28937 -8.9 -65.29938
v 138.68726 -8.9 -51.083664
v 133.16904 -8.9 -65.633255
v 139.56032 -8.9 -51.414555
v 134.05074 -8.9 -65.96741
v 140.43187 -8.9 -51.74416
v 134.93433 -8.9 -66.30157
v 141.30202 -8.9 -52.072304
v 135.81987 -8.9 -66.63551
v 142.17108 -8.9 -52.398872
v 136.70724 -8.9 -66.96896
v 143.03925 -8.9 -52.72377
v 137.59631 -8.9 -67.30169
v 143.9066 -8.9 -53.046864
v 138.4871 -8.9 -67.6335
v 144.77336 -8.9 -53.368065
v 139.3795 -8.9 -67.96421
v 145.63977 -8.9 -53.687336
v 140.27338 -8.9 -68.2936
v 146.5059 -8.9 -54.004612
v 141.16869 -8.9 -68.62156
v 147.372 -8.9 -54.319843
v 142.06529 -8.9 -68.94791
v 148.23817 -8.9 -54.633038
v 142.96309 -8.9 -69.27252
v 149.10452 -8.9 -54.944134
v 143.86203 -8.9 -69.59532
v 149.97131 -8.9 -55.25319
v 144.76193 -8.9 -69.91618
v 150.83862 -8.9 -55.56021
v 145.66267 -8.9 -70.23505
v 151.7066 -8.9 -55.865242
v 146.56415 -8.9 -70.55184
v 152.57538 -8.9 -56.168335
v 147.46619 -8.9 -70.86654
v 153.44508 -8.9 -56.46955
v 148.3687 -8.9 -71.179115
v 154.31581 -8.9 -56.76897
v 149.27147 -8.9 -71.48956
v 155.18774 -8.9 -57.066704
v 150.17442 -8.9 -71.79789
v 156.06096 -8.9 -57.362877
v 151.07729 -8.9 -72.10412
v 156.93549 -8.9 -57.657578
v 151.98007 -8.9 -72.40834
v 157.81155 -8.9 -57.95098
v 152.88245 -8.9 -72.71055
v 158.68924 -8.9 -58.24326
v 153.78427 -8.9 -73.01087
v 159.56854 -8.9 -58.534546
v 154.68542 -8.9 -73.3094
v 160.44963 -8.9 -58.825073
v 155.58565 -8.9 -73.60623
v 161.33257 -8.9 -59.11503
v 156.48479 -8.9 -73.90151
v 162.2185 -8.9 -59.404995
v 157.3815 -8.9 -74.195015
v 163.16508 -8.9 -59.71434
v 158.33138 -8.9 -74.50543
v 164.11273 -8.9 -60.02403
v 159.28018 -8.9 -74.81549
v 165.0602 -8.9 -60.3335
v 160.22923 -8.9 -75.12549
v 166.00734 -8.9 -60.642796
v 161.17867 -8.9 -75.43553
v 166.95435 -8.9 -60.951794
v 162.12839 -8.9 -75.745415
v 167.90112 -8.9 -61.26058
v 163.07841 -8.9 -76.05526
v 168.84763 -8.9 -61.568954
v 164.02893 -8.9 -76.364944
v 169.7941 -8.9 -61.87708
v 164.97961 -8.9 -76.67444
v 170.74025 -8.9 -62.18474
v 165.93079 -8.9 -76.983734
v 171.68651 -8.9 -62.492085
v 166.88206 -8.9 -77.2927
v 172.63235 -8.9 -62.798943
v 167.83395 -8.9 -77.601524
v 173.57846 -8.9 -63.105377
v 168.78589 -8.9 -77.90985
v 174.52415 -8.9 -63.411366
v 169.73842 -8.9 -78.21805
v 175.47018 -8.9 -63.71681
v 170.69098 -8.9 -78.525604
v 176.41573 -8.9 -64.02182
v 171.64421 -8.9 -78.8331
v 177.36182 -8.9 -64.32621
v 172.59735 -8.9 -79.13975
v 178.30733 -8.9 -64.63022
v 173.55116 -8.9 -79.44643
v 179.2534 -8.9 -64.933426
v 174.50499 -8.9 -79.75212
v 180.19896 -8.9 -65.23636
v 175.4594 -8.9 -80.05789
v 181.14482 -8.9 -65.53825
v 176.4142 -8.9 -80.36264
v 182.09096 -8.9 -65.84012
v 177.36876 -8.9 -80.66719
v 183.03696 -8.9 -66.14087
v 178.3241 -8.9 -80.97092
v 183.98329 -8.9 -66.44149
v 179.27922 -8.9 -81.274315
v 184.92946 -8.9 -66.74106
v 180.23509 -8.9 -81.576965
v 185.87616 -8.9 -67.04043
v 181.19064 -8.9 -81.87913
v 186.82257 -8.9 -67.33884
v 182.14697 -8.9 -82.180664
v 187.76955 -8.9 -67.6369
v 183.10307 -8.9 -82.4816
v 188.71631 -8.9 -67.934135
v 184.05981 -8.9 -82.781975
v 189.66365 -8.9 -68.23091
v 185.01634 -8.9 -83.081635
v 190.61072 -8.9 -68.52696
v 185.97354 -8.9 -83.380844
v 191.55856 -8.9 -68.82248
v 186.93042 -8.9 -83.679184
v 192.50615 -8.9 -69.117424
v 187.88783 -8.9 -83.97718
v 193.45442 -8.9 -69.411705
v 188.84508 -8.9 -84.27424
v 194.40245 -8.9 -69.70553
v 189.80278 -8.9 -84.57107
v 195.35121 -8.9 -69.998604
v 190.7603 -8.9 -84.866844
v 196.2997 -8.9 -70.29135
v 191.71825 -8.9 -85.162506
v 197.24896 -8.9 -70.58325
v 192.67606 -8.9 -85.45705
v 198.19806 -8.9 -70.87499
v 193.63411 -8.9 -85.75153
v 199.14752 -8.9 -71.16571
v 194.59244 -8.9 -86.04497
v 200.09763 -8.9 -71.45652
v 195.55017 -8.9 -86.33811
v 201.04767 -8.9 -71.746346
v 196.50854 -8.9 -86.630486
v 201.99835 -8.9 -72.03617
v 197.4664 -8.9 -86.92249
v 202.94902 -8.9 -72.32519
v 198.42473 -8.9 -87.213844
v 203.90031 -8.9 -72.61413
v 199.38261 -8.9 -87.50478
v 204.8516 -8.9 -72.90241
v 200.3409 -8.9 -87.79519
v 205.80354 -8.9 -73.190575
v 201.29869 -8.9 -88.08512
v 206.75555 -8.9 -73.47827
v 202.25668 -8.9 -88.37462
v 207.70813 -8.9 -73.765785
v 203.21432 -8.9 -88.66366
v 208.66083 -8.9 -74.05298
v 204.17207 -8.9 -88.95238
v 209.61401 -8.9 -74.339966
v 205.12949 -8.9 -89.24065
v 210.56734 -8.9 -74.62676
v 206.08693 -8.9 -89.52868
v 211.52118 -8.9 -74.913376
v 207.04407 -8.9 -89.816284
v 212.47536 -8.9 -75.19997
v 208.00095 -8.9 -90.10368
v 213.4298 -8.9 -75.48638
v 208.95766 -8.9 -90.390785
v 214.38464 -8.9 -75.77286
v 209.91403 -8.9 -90.67772
v 215.33969 -8.9 -76.05924
v 210.8703 -8.9 -90.96447
v 216.2953 -8.9 -76.34578
v 211.82603 -8.9 -91.25104
v 217.25104 -8.9 -76.632355
v 212.78162 -8.9 -91.53757
v 218.20735 -8.9 -76.91911
v 213.73662 -8.9 -91.823944
v 219.1638 -8.9 -77.20609
v 214.69139 -8.9 -92.110405
v 220.12067 -8.9 -77.493256
v 215.64569 -8.9 -92.396805
v 221.07779 -8.9 -77.780785
v 216.59955 -8.9 -92.68336
v 222.0353 -8.9 -78.0686
v 217.55296 -8.9 -92.96994
v 222.99318 -8.9 -78.35693
v 218.50575 -8.9 -93.256744
v 223.95117 -8.9 -78.645615
v 219.45825 -8.9 -93.54376
v 224.90971 -8.9 -78.93492
v 220.40993 -8.9 -93.83099
v 225.86827 -8.9 -79.22473
v 221.36131 -8.9 -94.11864
v 226.82753 -8.9 -79.51526
v 222.3117 -8.9 -94.40648
v 227.78651 -8.9 -79.80644
v 223.26192 -8.9 -94.69501
v 228.74641 -8.9 -80.098404
v 224.21095 -8.9 -94.98366
v 229.70587 -8.9 -80.391266
v 225.15982 -8.9 -95.273285
v 230.66641 -8.9 -80.68491
v 226.10733 -8.9 -95.56295
v 231.6262 -8.9 -80.97971
v 227.0548 -8.9 -95.853966
v 232.58742 -8.9 -81.275314
v 228.00066 -8.9 -96.14484
v 233.54755 -8.9 -81.57238
v 228.94653 -8.9 -96.43751
v 234.50124 -8.9 -81.86767
v 229.89876 -8.9 -96.73234
v 238.34943 -8.9 -84.62664
v 234.63269 -8.9 -96.63061
v 239.31708 -8.9 -87.79227
v 237.21988 -8.9 -94.56564
vt 0 -0.0022327465
vt 0 0.0022327465
vt 0 -0.00395694
vt 0 0.00395694
vt 0.001171799 -0.004899932
vt 0.001171799 0.004899932
vt 0.0040007792 -0.004899932
vt 0.0040007792 0.004899932
vt 0.0048620314 -0.004899932
vt 0.0048620314 0.004899932
vt 0.005818979 -0.004899932
vt 0.005818979 0.004899932
vt 0.006775936 -0.004899932
vt 0.006775936 0.004899932
vt 0.0077328933 -0.004899932
vt 0.0077328933 0.004899932
vt 0.008689861 -0.004899932
vt 0.008689861 0.004899932
vt 0.009646822 -0.004899932
vt 0.009646822 0.004899932
vt 0.010603792 -0.004899932
vt 0.010603792 0.004899932
vt 0.011560764 -0.004899932
vt 0.011560764 0.004899932
vt 0.012517737 -0.004899932
vt 0.012517737 0.004899932
vt 0.0134747205 -0.004899932
vt 0.0134747205 0.004899932
vt 0.014431705 -0.004899932
vt 0.014431705 0.004899932
vt 0.015388692 -0.004899932
vt 0.015388692 0.004899932
vt 0.016345687 -0.004899932
vt 0.016345687 0.004899932
vt 0.017302675 -0.004899932
vt 0.017302675 0.004899932
vt 0.018259665 -0.004899932
vt 0.018259665 0.004899932
vt 0.019216655 -0.004899932
vt 0.019216655 0.004899932
vt 0.020173654 -0.004899932
vt 0.020173654 0.004899932
vt 0.021130653 -0.004899932
vt 0.021130653 0.004899932
vt 0.022087652 -0.004899932
vt 0.022087652 0.004899932
vt 0.023044642 -0.004899932
vt 0.023044642 0.004899932
vt 0.024001632 -0.004899932
vt 0.024001632 0.004899932
vt 0.02495863 -0.004899932
vt 0.02495863 0.004899932
vt 0.025915619 -0.004899932
vt 0.025915619 0.004899932
vt 0.026872605 -0.004899932
vt 0.026872605 0.004899932
vt 0.0278296 -0.004899932
vt 0.0278296 0.004899932
vt 0.028786587 -0.004899932
vt 0.028786587 0.004899932
vt 0.02974357 -0.004899932
vt 0.02974357 0.004899932
vt 0.030700555 -0.004899932
vt 0.030700555 0.004899932
vt 0.031657528 -0.004899932
vt 0.031657528 0.004899932
vt 0.032614503 -0.004899932
vt 0.032614503 0.004899932
vt 0.033571474 -0.004899932
vt 0.033571474 0.004899932
vt 0.034528445 -0.004899932
vt 0.034528445 0.004899932
vt 0.03548542 -0.004899932
vt 0.03548542 0.004899932
vt 0.036442388 -0.004899932
vt 0.036442388 0.004899932
vt 0.037399348 -0.004899932
vt 0.037399348 0.004899932
vt 0.038356304 -0.004899932
vt 0.038356304 0.004899932
vt 0.039313257 -0.004899932
vt 0.039313257 0.004899932
vt 0.040270213 -0.004899932
vt 0.040270213 0.004899932
vt 0.041227166 -0.004899932
vt 0.041227166 0.004899932
vt 0.042184122 -0.004899932
vt 0.042184122 0.004899932
vt 0.043141063 -0.004899932
vt 0.043141063 0.004899932
vt 0.044098 -0.004899932
vt 0.044098 0.004899932
vt 0.04505495 -0.004899932
vt 0.04505495 0.004899932
vt 0.046011887 -0.004899932
vt 0.046011887 0.004899932
vt 0.04696883 -0.004899932
vt 0.04696883 0.004899932
vt 0.04792576 -0.004899932
vt 0.04792576 0.004899932
vt 0.0488827 -0.004899932
vt 0.0488827 0.004899932
vt 0.049839646 -0.004899932
vt 0.049839646 0.004899932
vt 0.05079658 -0.004899932
vt 0.05079658 0.004899932
vt 0.051753514 -0.004899932
vt 0.051753514 0.004899932
vt 0.052710444 -0.004899932
vt 0.052710444 0.004899932
vt 0.053667378 -0.004899932
vt 0.053667378 0.004899932
vt 0.05462431 -0.004899932
vt 0.05462431 0.004899932
vt 0.055581246 -0.004899932
vt 0.055581246 0.004899932
vt 0.056538176 -0.004899932
vt 0.056538176 0.004899932
vt 0.05749511 -0.004899932
vt 0.05749511 0.004899932
vt 0.058452047 -0.004899932
vt 0.058452047 0.004899932
vt 0.059408985 -0.004899932
vt 0.059408985 0.004899932
vt 0.060365915 -0.004899932
vt 0.060365915 0.004899932
vt 0.061322853 -0.004899932
vt 0.061322853 0.004899932
vt 0.062279787 -0.004899932
vt 0.062279787 0.004899932
vt 0.06323673 -0.004899932
vt 0.06323673 0.004899932
vt 0.064193666 -0.004899932
vt 0.064193666 0.004899932
vt 0.0651506 -0.004899932
vt 0.0651506 0.004899932
vt 0.06610755 -0.004899932
vt 0.06610755 0.004899932
vt 0.06706449 -0.004899932
vt 0.06706449 0.004899932
vt 0.06802143 -0.004899932
vt 0.06802143 0.004899932
vt 0.06897838 -0.004899932
vt 0.06897838 0.004899932
vt 0.069935314 -0.004899932
vt 0.069935314 0.004899932
vt 0.07089226 -0.004899932
vt 0.07089226 0.004899932
vt 0.07184921 -0.004899932
vt 0.07184921 0.004899932
vt 0.07280615 -0.004899932
vt 0.07280615 0.004899932
vt 0.073747285 -0.004899932
vt 0.073747285 0.004899932
vt 0.07468847 -0.004899932
vt 0.07468847 0.004899932
vt 0.07563172 -0.004899932
vt 0.07563172 0.004899932
vt 0.076576546 -0.004899932
vt 0.076576546 0.004899932
vt 0.077522114 -0.004899932
vt 0.077522114 0.004899932
vt 0.07846752 -0.004899932
vt 0.07846752 0.004899932
vt 0.07941196 -0.004899932
vt 0.07941196 0.004899932
vt 0.08035486 -0.004899932
vt 0.08035486 0.004899932
vt 0.0812959 -0.004899932
vt 0.0812959 0.004899932
vt 0.082235076 -0.004899932
vt 0.082235076 0.004899932
vt 0.08317262 -0.004899932
vt 0.08317262 0.004899932
vt 0.08410901 -0.004899932
vt 0.08410901 0.004899932
vt 0.08504483 -0.004899932
vt 0.08504483 0.004899932
vt 0.085980766 -0.004899932
vt 0.085980766 0.004899932
vt 0.08691742 -0.004899932
vt 0.08691742 0.004899932
vt 0.08785533 -0.004899932
vt 0.08785533 0.004899932
vt 0.08873774 -0.004899932
vt 0.08873774 0.004899932
vt 0.08961626 -0.004899932
vt 0.08961626 0.004899932
vt 0.09049635 -0.004899932
vt 0.09049635 0.004899932
vt 0.091377005 -0.004899932
vt 0.091377005 0.004899932
vt 0.09225738 -0.004899932
vt 0.09225738 0.004899932
vt 0.09313692 -0.004899932
vt 0.09313692 0.004899932
vt 0.094015375 -0.004899932
vt 0.094015375 0.004899932
vt 0.09489283 -0.004899932
vt 0.09489283 0.004899932
vt 0.095769614 -0.004899932
vt 0.095769614 0.004899932
vt 0.09664624 -0.004899932
vt 0.09664624 0.004899932
vt 0.09752332 -0.004899932
vt 0.09752332 0.004899932
vt 0.0984014 -0.004899932
vt 0.0984014 0.004899932
vt 0.099280864 -0.004899932
vt 0.099280864 0.004899932
vt 0.1001619 -0.004899932
vt 0.1001619 0.004899932
vt 0.10104434 -0.004899932
vt 0.10104434 0.004899932
vt 0.101927675 -0.004899932
vt 0.101927675 0.004899932
vt 0.10281109 -0.004899932
vt 0.10281109 0.004899932
vt 0.10369351 -0.004899932
vt 0.10369351 0.004899932
vt 0.104573734 -0.004899932
vt 0.104573734 0.004899932
vt 0.10545071 -0.004899932
vt 0.10545071 0.004899932
vt 0.106400184 -0.004899932
vt 0.106400184 0.004899932
vt 0.1073435 -0.004899932
vt 0.1073435 0.004899932
vt 0.10827386 -0.004899932
vt 0.10827386 0.004899932
vt 0.109044 -0.004899932
vt 0.109044 0.004899932
vt 0.10984649 -0.004899932
vt 0.10984649 0.004899932
vt 0.11067268 -0.004899932
vt 0.11067268 0.004899932
vt 0.11151454 -0.004899932
vt 0.11151454 0.004899932
vt 0.112360045 -0.004899932
vt 0.112360045 0.004899932
vt 0.11319736 -0.004899932
vt 0.11319736 0.004899932
vt 0.11401665 -0.004899932
vt 0.11401665 0.004899932
vt 0.1148074 -0.004899932
vt 0.1148074 0.004899932
vt 0.1156653 -0.004899932
vt 0.1156653 0.004899932
vt 0.11662768 -0.004899932
vt 0.11662768 0.004899932
vt 0.11757633 -0.0049028927
vt 0.11757633 0.0049028927
vt 0.118512206 -0.004915866
vt 0.118512206 0.004915866
vt 0.11943643 -0.00493811
vt 0.11943643 0.00493811
vt 0.12036766 -0.004968142
vt 0.12036766 0.004968142
vt 0.121303074 -0.005004504
vt 0.121303074 0.005004504
vt 0.12223951 -0.005045714
vt 0.12223951 0.005045714
vt 0.123174116 -0.005090311
vt 0.123174116 0.005090311
vt 0.12410497 -0.005136815
vt 0.12410497 0.005136815
vt 0.12503113 -0.005183765
vt 0.12503113 0.005183765
vt 0.12595265 -0.005229681
vt 0.12595265 0.005229681
vt 0.1268704 -0.0052731014
vt 0.1268704 0.0052731014
vt 0.12778567 -0.005312546
vt 0.12778567 0.005312546
vt 0.12869987 -0.0053465553
vt 0.12869987 0.0053465553
vt 0.12961414 -0.0053736465
vt 0.12961414 0.0053736465
vt 0.13052906 -0.005392361
vt 0.13052906 0.005392361
vt 0.13144454 -0.005401216
vt 0.13144454 0.005401216
vt 0.13235992 -0.0054392004
vt 0.13235992 0.0054392004
vt 0.13328114 -0.00560279
vt 0.13328114 0.00560279
vt 0.13418473 -0.0058749313
vt 0.13418473 0.0058749313
vt 0.13510777 -0.0062327217
vt 0.13510777 0.0062327217
vt 0.1360754 -0.0065612756
vt 0.1360754 0.0065612756
vt 0.13688263 -0.0068924823
vt 0.13688263 0.0068924823
vt 0.1376628 -0.007233994
vt 0.1376628 0.007233994
vt 0.13845699 -0.0075755054
vt 0.13845699 0.0075755054
vt 0.13925722 -0.007906712
vt 0.13925722 0.007906712
vt 0.14005393 -0.008215589
vt 0.14005393 0.008215589
vt 0.14083716 -0.008493552
vt 0.14083716 0.008493552
vt 0.14160036 -0.008793632
vt 0.14160036 0.008793632
vt 0.14257608 -0.0089927185
vt 0.14257608 0.0089927185
vt 0.14351079 -0.009066078
vt 0.14351079 0.009066078
vt 0.14443816 -0.009064147
vt 0.14443816 0.009064147
vt 0.14538476 -0.009059045
vt 0.14538476 0.009059045
vt 0.14633216 -0.009050971
vt 0.14633216 0.009050971
vt 0.1472805 -0.00904012
vt 0.1472805 0.00904012
vt 0.14822978 -0.0090262955
vt 0.14822978 0.0090262955
vt 0.14918005 -0.009010149
vt 0.14918005 0.009010149
vt 0.15013106 -0.0089918785
vt 0.15013106 0.0089918785
vt 0.15108265 -0.008971684
vt 0.15108265 0.008971684
vt 0.15203461 -0.008949505
vt 0.15203461 0.008949505
vt 0.1529868 -0.008925856
vt 0.1529868 0.008925856
vt 0.15393893 -0.008900931
vt 0.15393893 0.008900931
vt 0.15489088 -0.0088749295
vt 0.15489088 0.0088749295
vt 0.15584245 -0.008847938
vt 0.15584245 0.008847938
vt 0.15679343 -0.008820322
vt 0.15679343 0.008820322
vt 0.15774378 -0.008792283
vt 0.15774378 0.008792283
vt 0.15869342 -0.008764017
vt 0.15869342 0.008764017
vt 0.1596423 -0.008735751
vt 0.1596423 0.008735751
vt 0.16059026 -0.008707711
vt 0.16059026 0.008707711
vt 0.16153747 -0.008680096
vt 0.16153747 0.008680096
vt 0.16248395 -0.008653104
vt 0.16248395 0.008653104
vt 0.16342974 -0.008627104
vt 0.16342974 0.008627104
vt 0.16437487 -0.008602179
vt 0.16437487 0.008602179
vt 0.16531953 -0.008578529
vt 0.16531953 0.008578529
vt 0.16626382 -0.00855635
vt 0.16626382 0.00855635
vt 0.16720787 -0.008536155
vt 0.16720787 0.008536155
vt 0.16815178 -0.008517886
vt 0.16815178 0.008517886
vt 0.16909572 -0.008501739
vt 0.16909572 0.008501739
vt 0.17003979 -0.008487915
vt 0.17003979 0.008487915
vt 0.17098406 -0.008477065
vt 0.17098406 0.008477065
vt 0.17192872 -0.008468989
vt 0.17192872 0.008468989
vt 0.17287375 -0.008463887
vt 0.17287375 0.008463887
vt 0.17381924 -0.008461957
vt 0.17381924 0.008461957
vt 0.17476517 -0.008462094
vt 0.17476517 0.008462094
vt 0.17566949 -0.0084624635
vt 0.17566949 0.0084624635
vt 0.17657255 -0.008463045
vt 0.17657255 0.008463045
vt 0.17747547 -0.008463839
vt 0.17747547 0.008463839
vt 0.17837922 -0.008464801
vt 0.17837922 0.008464801
vt 0.17928427 -0.008465912
vt 0.17928427 0.008465912
vt 0.18019098 -0.008467166
vt 0.18019098 0.008467166
vt 0.18109967 -0.008468524
vt 0.18109967 0.008468524
vt 0.18201004 -0.008469966
vt 0.18201004 0.008469966
vt 0.18292193 -0.008471481
vt 0.18292193 0.008471481
vt 0.18383515 -0.008473037
vt 0.18383515 0.008473037
vt 0.18474916 -0.0084746145
vt 0.18474916 0.0084746145
vt 0.18566354 -0.008476192
vt 0.18566354 0.008476192
vt 0.18657778 -0.008477748
vt 0.18657778 0.008477748
vt 0.18749145 -0.008479263
vt 0.18749145 0.008479263
vt 0.18840414 -0.008480705
vt 0.18840414 0.008480705
vt 0.18931532 -0.008482064
vt 0.18931532 0.008482064
vt 0.19022486 -0.008483317
vt 0.19022486 0.008483317
vt 0.19113266 -0.008484428
vt 0.19113266 0.008484428
vt 0.1920385 -0.00848539
vt 0.1920385 0.00848539
vt 0.19294277 -0.008486184
vt 0.19294277 0.008486184
vt 0.19384585 -0.008486765
vt 0.19384585 0.008486765
vt 0.1947483 -0.008487135
vt 0.1947483 0.008487135
vt 0.19565107 -0.008487273
vt 0.19565107 0.008487273
vt 0.19655529 -0.008482149
vt 0.19655529 0.008482149
vt 0.19745603 -0.0084674815
vt 0.19745603 0.0084674815
vt 0.19835606 -0.0084443325
vt 0.19835606 0.0084443325
vt 0.19925494 -0.008413763
vt 0.19925494 0.008413763
vt 0.2001526 -0.00837683
vt 0.2001526 0.00837683
vt 0.20104936 -0.008334597
vt 0.20104936 0.008334597
vt 0.2019458 -0.008288124
vt 0.2019458 0.008288124
vt 0.2028428 -0.008238468
vt 0.2028428 0.008238468
vt 0.20374134 -0.008186693
vt 0.20374134 0.008186693
vt 0.20464243 -0.008133858
vt 0.20464243 0.008133858
vt 0.20554689 -0.008081023
vt 0.20554689 0.008081023
vt 0.20645525 -0.008029247
vt 0.20645525 0.008029247
vt 0.20736766 -0.007979592
vt 0.20736766 0.007979592
vt 0.20828383 -0.007933118
vt 0.20828383 0.007933118
vt 0.2092029 -0.007890886
vt 0.2092029 0.007890886
vt 0.21012364 -0.007853953
vt 0.21012364 0.007853953
vt 0.21104434 -0.0078233825
vt 0.21104434 0.0078233825
vt 0.2119631 -0.007800234
vt 0.2119631 0.007800234
vt 0.21287803 -0.0077855675
vt 0.21287803 0.0077855675
vt 0.21378765 -0.007780443
vt 0.21378765 0.007780443
vt 0.21469127 -0.008231709
vt 0.21469127 0.008231709
vt 0.21534294 -0.009224493
vt 0.21534294 0.009224493
vt 0.21599473 -0.010217278
vt 0.21599473 0.010217278
vt 0.21664503 -0.010668543
vt 0.21664503 0.010668543
vt 0.21729541 -0.0106740575
vt 0.21729541 0.0106740575
vt 0.21816564 -0.010689023
vt 0.21816564 0.010689023
vt 0.21901836 -0.010711579
vt 0.21901836 0.010711579
vt 0.21995133 -0.010732472
vt 0.21995133 0.010732472
vt 0.22072317 -0.01075569
vt 0.22072317 0.01075569
vt 0.22154577 -0.010780587
vt 0.22154577 0.010780587
vt 0.22240824 -0.010806258
vt 0.22240824 0.010806258
vt 0.22328983 -0.010831929
vt 0.22328983 0.010831929
vt 0.22417143 -0.010856824
vt 0.22417143 0.010856824
vt 0.2250338 -0.010880042
vt 0.2250338 0.010880042
vt 0.22585629 -0.010900936
vt 0.22585629 0.010900936
vt 0.22662798 -0.010923492
vt 0.22662798 0.010923492
vt 0.22756074 -0.010938457
vt 0.22756074 0.010938457
vt 0.2284133 -0.010943972
vt 0.2284133 0.010943972
vt 0.22928347 -0.011034832
vt 0.22928347 0.011034832
vt 0.23018879 -0.011281415
vt 0.23018879 0.011281415
vt 0.23110381 -0.011653085
vt 0.23110381 0.011653085
vt 0.23202388 -0.012121195
vt 0.23202388 0.012121195
vt 0.2329434 -0.012651424
vt 0.2329434 0.012651424
vt 0.23385823 -0.013213137
vt 0.23385823 0.013213137
vt 0.23476656 -0.01377485
vt 0.23476656 0.01377485
vt 0.23566869 -0.014305079
vt 0.23566869 0.014305079
vt 0.23656699 -0.014773189
vt 0.23656699 0.014773189
vt 0.23746425 -0.01514486
vt 0.23746425 0.01514486
vt 0.23836263 -0.015391442
vt 0.23836263 0.015391442
vt 0.23926269 -0.015482304
vt 0.23926269 0.015482304
vt 0.24016325 -0.015392649
vt 0.24016325 0.015392649
vt 0.24113388 -0.015151364
vt 0.24113388 0.015151364
vt 0.2421044 -0.014769279
vt 0.2421044 0.014769279
vt 0.24307433 -0.014278888
vt 0.24307433 0.014278888
vt 0.24404357 -0.013694629
vt 0.24404357 0.013694629
vt 0.24501243 -0.013045387
vt 0.24501243 0.013045387
vt 0.2459815 -0.012349211
vt 0.2459815 0.012349211
vt 0.24695164 -0.011631373
vt 0.24695164 0.011631373
vt 0.24792352 -0.010913536
vt 0.24792352 0.010913536
vt 0.2488979 -0.01021736
vt 0.2488979 0.01021736
vt 0.24987479 -0.009568118
vt 0.24987479 0.009568118
vt 0.25085407 -0.008983859
vt 0.25085407 0.008983859
vt 0.2518348 -0.008493467
vt 0.2518348 0.008493467
vt 0.25281572 -0.008111383
vt 0.25281572 0.008111383
vt 0.25379527 -0.007870098
vt 0.25379527 0.007870098
vt 0.25477165 -0.007780443
vt 0.25477165 0.007780443
vt 0.25574416 -0.007780443
vt 0.25574416 0.007780443
vt 0.25668204 -0.007780443
vt 0.25668204 0.007780443
vt 0.25762 -0.007780443
vt 0.25762 0.007780443
vt 0.258558 -0.007780443
vt 0.258558 0.007780443
vt 0.25949603 -0.007780443
vt 0.25949603 0.007780443
vt 0.26043415 -0.007780443
vt 0.26043415 0.007780443
vt 0.26137233 -0.007780443
vt 0.26137233 0.007780443
vt 0.26231053 -0.007780443
vt 0.26231053 0.007780443
vt 0.2632488 -0.007780443
vt 0.2632488 0.007780443
vt 0.26418707 -0.007780443
vt 0.26418707 0.007780443
vt 0.26512533 -0.007780443
vt 0.26512533 0.007780443
vt 0.26606363 -0.007780443
vt 0.26606363 0.007780443
vt 0.26700193 -0.007780443
vt 0.26700193 0.007780443
vt 0.2679402 -0.007780443
vt 0.2679402 0.007780443
vt 0.2688785 -0.007780443
vt 0.2688785 0.007780443
vt 0.26981673 -0.007780443
vt 0.26981673 0.007780443
vt 0.27075493 -0.007780443
vt 0.27075493 0.007780443
vt 0.2716931 -0.007780443
vt 0.2716931 0.007780443
vt 0.27263123 -0.007780443
vt 0.27263123 0.007780443
vt 0.27356932 -0.007780443
vt 0.27356932 0.007780443
vt 0.27450734 -0.007780443
vt 0.27450734 0.007780443
vt 0.2754453 -0.007780443
vt 0.2754453 0.007780443
vt 0.27638328 -0.007780443
vt 0.27638328 0.007780443
vt 0.27732122 -0.007780443
vt 0.27732122 0.007780443
vt 0.27825907 -0.007780443
vt 0.27825907 0.007780443
vt 0.27919692 -0.007780443
vt 0.27919692 0.007780443
vt 0.2801347 -0.007780443
vt 0.2801347 0.007780443
vt 0.2810725 -0.007780443
vt 0.2810725 0.007780443
vt 0.28201026 -0.007780443
vt 0.28201026 0.007780443
vt 0.28294802 -0.007780443
vt 0.28294802 0.007780443
vt 0.28388575 -0.007780443
vt 0.28388575 0.007780443
vt 0.28482348 -0.007780443
vt 0.28482348 0.007780443
vt 0.2857612 -0.007780443
vt 0.2857612 0.007780443
vt 0.28669897 -0.007780443
vt 0.28669897 0.007780443
vt 0.2876367 -0.007780443
vt 0.2876367 0.007780443
vt 0.2885745 -0.007780443
vt 0.2885745 0.007780443
vt 0.28951228 -0.007780443
vt 0.28951228 0.007780443
vt 0.2904501 -0.007780443
vt 0.2904501 0.007780443
vt 0.29138792 -0.007780443
vt 0.29138792 0.007780443
vt 0.2923258 -0.007780443
vt 0.2923258 0.007780443
vt 0.29326364 -0.007780443
vt 0.29326364 0.007780443
vt 0.29426125 -0.007780443
vt 0.29426125 0.007780443
vt 0.29525882 -0.007780443
vt 0.29525882 0.007780443
vt 0.2962564 -0.007780443
vt 0.2962564 0.007780443
vt 0.29725394 -0.007780443
vt 0.29725394 0.007780443
vt 0.2982515 -0.007780443
vt 0.2982515 0.007780443
vt 0.29924908 -0.007780443
vt 0.29924908 0.007780443
vt 0.30024666 -0.007780443
vt 0.30024666 0.007780443
vt 0.30124426 -0.007780443
vt 0.30124426 0.007780443
vt 0.3022418 -0.007780443
vt 0.3022418 0.007780443
vt 0.30323938 -0.007780443
vt 0.30323938 0.007780443
vt 0.30423692 -0.007780443
vt 0.30423692 0.007780443
vt 0.3052345 -0.007780443
vt 0.3052345 0.007780443
vt 0.30623204 -0.007780443
vt 0.30623204 0.007780443
vt 0.3072296 -0.007780443
vt 0.3072296 0.007780443
vt 0.30822715 -0.007780443
vt 0.30822715 0.007780443
vt 0.30922472 -0.007780443
vt 0.30922472 0.007780443
vt 0.31022224 -0.007780443
vt 0.31022224 0.007780443
vt 0.3112198 -0.007780443
vt 0.3112198 0.007780443
vt 0.31221735 -0.007780443
vt 0.31221735 0.007780443
vt 0.31321493 -0.007780443
vt 0.31321493 0.007780443
vt 0.31421247 -0.007780443
vt 0.31421247 0.007780443
vt 0.31521004 -0.007780443
vt 0.31521004 0.007780443
vt 0.3162076 -0.007780443
vt 0.3162076 0.007780443
vt 0.31720516 -0.007780443
vt 0.31720516 0.007780443
vt 0.3182027 -0.007780443
vt 0.3182027 0.007780443
vt 0.31920025 -0.007780443
vt 0.31920025 0.007780443
vt 0.3201978 -0.007780443
vt 0.3201978 0.007780443
vt 0.32119536 -0.007780443
vt 0.32119536 0.007780443
vt 0.3221929 -0.007780443
vt 0.3221929 0.007780443
vt 0.32319048 -0.007780443
vt 0.32319048 0.007780443
vt 0.32418805 -0.007780443
vt 0.32418805 0.007780443
vt 0.32518563 -0.007780443
vt 0.32518563 0.007780443
vt 0.3261832 -0.007780443
vt 0.3261832 0.007780443
vt 0.3271808 -0.007780443
vt 0.3271808 0.007780443
vt 0.32817838 -0.007780443
vt 0.32817838 0.007780443
vt 0.32917598 -0.007780443
vt 0.32917598 0.007780443
vt 0.33017358 -0.007780443
vt 0.33017358 0.007780443
vt 0.33117115 -0.007780443
vt 0.33117115 0.007780443
vt 0.3321688 -0.007780443
vt 0.3321688 0.007780443
vt 0.33316636 -0.007780443
vt 0.33316636 0.007780443
vt 0.334164 -0.007780443
vt 0.334164 0.007780443
vt 0.3351616 -0.007780443
vt 0.3351616 0.007780443
vt 0.33615923 -0.007780443
vt 0.33615923 0.007780443
vt 0.33715686 -0.007780443
vt 0.33715686 0.007780443
vt 0.33815452 -0.007780443
vt 0.33815452 0.007780443
vt 0.33915222 -0.007780443
vt 0.33915222 0.007780443
vt 0.34014985 -0.007780443
vt 0.34014985 0.007780443
vt 0.3411475 -0.007780443
vt 0.3411475 0.007780443
vt 0.34214517 -0.007780443
vt 0.34214517 0.007780443
vt 0.34314287 -0.007780443
vt 0.34314287 0.007780443
vt 0.34414056 -0.007780443
vt 0.34414056 0.007780443
vt 0.34513822 -0.007780443
vt 0.34513822 0.007780443
vt 0.3461359 -0.007780443
vt 0.3461359 0.007780443
vt 0.3471336 -0.007780443
vt 0.3471336 0.007780443
vt 0.34813127 -0.007780443
vt 0.34813127 0.007780443
vt 0.349129 -0.007780443
vt 0.349129 0.007780443
vt 0.35012668 -0.007780443
vt 0.35012668 0.007780443
vt 0.35112438 -0.007780443
vt 0.35112438 0.007780443
vt 0.3521221 -0.007780443
vt 0.3521221 0.007780443
vt 0.3531198 -0.007780443
vt 0.3531198 0.007780443
vt 0.35411748 -0.007780443
vt 0.35411748 0.007780443
vt 0.35511515 -0.007780443
vt 0.35511515 0.007780443
vt 0.35611284 -0.007780443
vt 0.35611284 0.007780443
vt 0.35711053 -0.007780443
vt 0.35711053 0.007780443
vt 0.3581082 -0.007780443
vt 0.3581082 0.007780443
vt 0.35910586 -0.007780443
vt 0.35910586 0.007780443
vt 0.3601035 -0.007780443
vt 0.3601035 0.007780443
vt 0.36110115 -0.007780443
vt 0.36110115 0.007780443
vt 0.3620988 -0.007780443
vt 0.3620988 0.007780443
vt 0.36309645 -0.007780443
vt 0.36309645 0.007780443
vt 0.36409408 -0.007780443
vt 0.36409408 0.007780443
vt 0.36509168 -0.007780443
vt 0.36509168 0.007780443
vt 0.36608928 -0.007780443
vt 0.36608928 0.007780443
vt 0.3670869 -0.007780443
vt 0.3670869 0.007780443
vt 0.3680845 -0.007780443
vt 0.3680845 0.007780443
vt 0.3690821 -0.006283096
vt 0.3690821 0.006283096
vt 0.3735741 -0.0035453057
vt 0.3735741 0.0035453057
vn -0 1 0
vn -0 1 0
vn -0 1 0
vn -0 1 0
vn -0 1 0
vn -0 1 0
vn -0 1 0
vn -0 1 0
vn -0 1 0
vn -0 1 0
vn -0 1 0
vn -0 1 0
vn -0 1 0
vn -0 1 0
vn -0 1 0
vn -0 1 0
vn -0 1 0
vn -0 1 0
vn -0 1 0
vn -0 1 0
vn -0 1 0
vn -0 1 0
vn -0 1 0
vn -0 1 0
vn -0 1 0
vn -0 1 0
vn -0 1 0
vn -0 1 0
vn -0 1 0
vn -0 1 0
vn -0 1 0
vn -0 1 0
vn -0 1 0
vn -0 1 0
vn -0 1 0
vn -0 1 0
vn -0 1 0
vn -0 1 0
vn -0 1 0
vn -0 1 0
vn -0 1 0
vn -0 1 0
vn -0 1 0
vn -0 1 0
vn -0 1 0
vn -0 1 0
vn -0 1 0
vn -0 1 0
vn -0 1 0
vn -0 1 0
vn -0 1 0
vn -0 1 0
vn -0 1 0
vn -0 1 0
vn -0 1 0
vn -0 1 0
vn -0 1 0
vn -0 1 0
vn -0 1 0
vn -0 1 0
vn -0 1 0
vn -0 1 0
vn -0 1 0
vn -0 1 0
vn -0 1 0
vn -0 1 0
vn -0 1 0
vn -0 1 0
vn -0 1 0
vn -0 1 0
vn -0 1 0
vn -0 1 0
vn -0 1 0
vn -0 1 0
vn -0 1 0
vn -0 1 0
vn -0 1 0
vn -0 1 0
vn -0 1 0
vn -0 1 0
vn -0 1 0
vn -0 1 0
vn -0 1 0
vn -0 1 0
vn -0 1 0
vn -0 1 0
vn -0 1 0
vn -0 1 0
vn -0 1 -0
vn -0 1 0
vn -0 1 -0
vn -0 1 0
vn -0 1 -0
vn -0 1 0
vn -0 1 -0
vn -0 1 0
vn -0 1 -0
vn -0 1 0
vn -0 1 -0
vn -0 1 0
vn -0 1 -0
vn -0 1 0
vn -0 1 -0
vn -0 1 0
vn -0 1 -0
vn -0 1 0
vn -0 1 -0
vn -0 1 0
vn -0 1 -0
vn -0 1 0
vn -0 1 -0
vn -0 1 0
vn -0 1 -0
vn -0 1 0
vn -0 1 -0
vn -0 1 0
vn -0 1 -0
vn -0 1 0
vn -0 1 -0
vn -0 1 0
vn -0 1 -0
vn -0 1 0
vn -0 1 -0
vn -0 1 0
vn -0 1 -0
vn -0 1 0
vn -0 1 -0
vn -0 1 0
vn -0 1 -0
vn -0 1 0
vn -0 1 -0
vn -0 1 0
vn -0 1 -0
vn -0 1 0
vn -0 1 -0
vn -0 1 0
vn -0 1 -0
vn -0 1 0
vn -0 1 -0
vn -0 1 0
vn -0 1 -0
vn -0 1 0
vn -0 1 -0
vn -0 1 0
vn -0 1 -0
vn -0 1 0
vn -0 1 -0
vn -0 1 0
vn -0 1 -0
vn -0 1 0
vn -0 1 -0
vn -0 1 0
vn -0 1 -0
vn -0 1 0
vn -0 1 0
vn -0 1 0
vn -0 1 0
vn -0 1 0
vn -0 1 0
vn -0 1 0
vn -0 1 0
vn -0 1 0
vn -0 1 0
vn -0 1 0
vn -0 1 -0
vn -0 1 0
vn -0 1 -0
vn -0 1 0
vn -0 1 -0
vn -0 1 0
vn -0 1 -0
vn -0 1 0
vn -0 1 -0
vn -0 1 0
vn -0 1 0
vn -0 1 0
vn -0 1 0
vn -0 1 0
vn -0 1 0
vn -0 1 0
vn -0 1 0
vn -0 1 0
vn -0 1 0
vn -0 1 0
vn -0 1 0
vn -0 1 0
vn -0 1 0
vn -0 1 0
vn -0 1 0
vn -0 1 0
vn -0 1 0
vn -0 1 0
vn -0 1 0
vn -0 1 0
vn -0 1 0
vn -0 1 0
vn -0 1 0
vn -0 1 0
vn -0 1 0
vn -0 1 0
vn -0 1 0
vn -0 1 0
vn -0 1 0
vn -0 1 0
vn -0 1 0
vn -0 1 0
vn -0 1 0
vn -0 1 0
vn -0 1 0
vn -0 1 0
vn -0 1 0
vn -0 1 0
vn -0 1 0
vn -0 1 0
vn -0 1 0
vn -0 1 0
vn -0 1 0
vn -0 1 0
vn -0 1 0
vn -0 1 0
vn 0.11007306 0.9934257 -0.0314519
vn 0.11724446 0.99251044 -0.034305226
vn 0.32373273 0.9413951 -0.09472281
vn 0.4184679 0.8981335 -0.13505876
vn 0.46861655 0.87035835 -0.15124401
vn 0.6170855 0.7549454 -0.22195247
vn 0.525957 0.8292055 -0.18917547
vn 0.7407377 0.6016358 -0.29890135
vn 0.58004296 0.7802352 -0.23405804
vn 0.7645897 0.54735196 -0.3403063
vn 0.6059136 0.7484253 -0.26968217
vn 0.77079916 0.5153071 -0.37460276
vn 0.6224849 0.7217979 -0.30252314
vn 0.7598169 0.51463336 -0.39727923
vn 0.6320713 0.70090294 -0.33048597
vn 0.7331006 0.54707295 -0.4040727
vn 0.63411504 0.68973804 -0.3495135
vn 0.69500554 0.6007754 -0.39501423
vn 0.6333892 0.68499815 -0.35999385
vn 0.6432818 0.6717366 -0.36736697
vn 0.62357014 0.69594973 -0.35610998
vn 0.5719385 0.755768 -0.3189059
vn 0.59821856 0.7286101 -0.33355933
vn 0.47910553 0.8411134 -0.25097054
vn 0.5007299 0.82490563 -0.26229805
vn 0.34935606 0.92240995 -0.16465186
vn 0.26168406 0.9572411 -0.123331964
vn 0.17533581 0.98172504 -0.07398182
vn 0.019506153 0.9997759 -0.008230496
vn 0.02100485 0.9997385 -0.009045284
vn 0.027556647 0.99954987 -0.011866673
vn 0.041576643 0.9989371 -0.01990435
vn 0.049723327 0.9984793 -0.023804482
vn 0.062805906 0.99751675 -0.031870976
vn 0.07187688 0.9967464 -0.03647406
vn 0.07631565 0.99630886 -0.039300993
vn 0.09361788 0.99444026 -0.048211288
vn 0.08594816 0.9953563 -0.043344438
vn 0.11455395 0.9917358 -0.057770595
vn 0.09285785 0.99468607 -0.044463627
vn 0.13383196 0.98892987 -0.06408349
vn 0.097607225 0.9942886 -0.043161746
vn 0.14983894 0.98648775 -0.06625852
vn 0.10027795 0.99415874 -0.03990899
vn 0.16041991 0.9849819 -0.06384451
vn 0.10090967 0.99426967 -0.035285596
vn 0.16327581 0.98492706 -0.05709348
vn 0.09931967 0.994608 -0.029841382
vn 0.15686011 0.9864956 -0.047129866
vn 0.095402114 0.99514544 -0.024166042
vn 0.1410566 0.9893566 -0.035730656
vn 0.088838354 0.9958698 -0.018735332
vn 0.11742037 0.99277353 -0.02476306
vn 0.07932615 0.99675125 -0.013939293
vn 0.08844118 0.9959602 -0.015540996
vn 0.06621587 0.99775577 -0.009940784
vn 0.056830946 0.99834734 -0.0085318545
vn 0.048637863 0.99879444 -0.006637359
vn 0.025555927 0.99966735 -0.0034874864
vn 0.024148379 0.99970335 -0.0031759527
vn 0.07708 0.99697334 -0.010137427
vn 0.062230177 0.9980371 -0.0070250537
vn 0.41173792 0.9101162 -0.046480358
vn 0.23640883 0.97153026 -0.015485184
vn 0.7552121 0.6536112 -0.049467698
vn 0.35397634 0.93525285 0.0017242458
vn 0.8975504 0.4408901 0.004372037
vn 0.44183138 0.89639413 0.035531625
vn 0.9843108 0.15769067 0.07915726
vn 0.44827196 0.8910611 0.07115025
vn 0.968781 0.1944722 0.15376605
vn 0.4810666 0.8699573 0.10839346
vn 0.9324592 0.29390046 0.2101008
vn 0.50769264 0.8496292 0.14275274
vn 0.8738596 0.419518 0.24571134
vn 0.5289245 0.83113605 0.17161526
vn 0.7736195 0.5818139 0.25100917
vn 0.56003195 0.8049635 0.19595397
vn 0.64698875 0.7281193 0.22637998
vn 0.59361947 0.776503 0.21132669
vn 0.480727 0.86000794 0.17113733
vn 0.6879208 0.68863815 0.22922145
vn 0.34894314 0.9299031 0.11627103
vn 0.7318075 0.6499066 0.20513232
vn 0.18904436 0.9805377 0.05299086
vn 0.93415153 0.31044522 0.17602456
vn 0.06932605 0.9975085 0.013063285
vn 0.7204693 0.6899399 0.0700501
vn -0 1 0
vn -0 1 0
vn -0 1 -0
vn -0 1 0
vn -0 1 -0
vn -0 1 0
vn -0 1 -0
vn -0 1 0
vn -0 1 -0
vn -0 1 0
vn -0 1 0
vn -0 1 0
vn -0 1 0
vn -0 1 0
vn -0 1 0
vn -0 1 0
vn -0 1 0
vn -0 1 0
vn -0 1 0
vn -0 1 0
vn -0 1 0
vn -0 1 0
vn -0 1 0
vn -0 1 0
vn -0 1 0
vn -0 1 0
vn -0 1 0
vn -0 1 0
vn -0 1 0
vn -0 1 0
vn -0 1 -0
vn -0 1 0
vn -0 1 -0
vn -0 1 0
vn -0 1 -0
vn -0 1 0
vn -0 1 -0
vn -0 1 0
vn -0 1 -0
vn -0 1 0
vn -0 1 -0
vn -0 1 0
vn -0 1 0
vn -0 1 0
vn -0 1 0
vn -0 1 0
vn -0 1 0
vn -0 1 0
vn -0 1 0
vn -0 1 0
vn -0 1 0
vn -0 1 0
vn -0 1 0
vn -0 1 0
vn -0 1 0
vn -0 1 0
vn -0 1 0
vn -0 1 0
vn -0 1 0
vn -0 1 0
vn -0 1 0
vn -0 1 0
vn -0 1 0
vn -0 1 0
vn -0 1 0
vn -0 1 0
vn -0 1 0
vn -0 1 0
vn -0 1 0
vn -0 1 0
vn -0 1 0
vn -0 1 0
vn -0 1 0
vn -0 1 0
vn -0 1 0
vn -0 1 0
vn -0 1 0
vn -0 1 0
vn -0 1 0
vn -0 1 0
vn -0 1 0
vn -0 1 0
vn -0 1 0
vn -0 1 0
vn -0 1 0
vn -0 1 0
vn -0 1 0
vn -0 1 0
vn -0 1 0
vn -0 1 0
vn -0 1 0
vn -0 1 0
vn -0 1 0
vn -0 1 0
vn -0 1 0
vn -0 1 0
vn -0 1 0
vn -0 1 0
vn -0 1 0
vn -0 1 0
vn -0 1 0
vn -0 1 0
vn -0 1 0
vn -0 1 0
vn -0 1 0
vn -0 1 0
vn -0 1 0
vn -0 1 0
vn -0 1 0
vn -0 1 0
vn -0 1 0
vn -0 1 0
vn -0 1 0
vn -0 1 0
vn -0 1 0
vn -0 1 0
vn -0 1 0
vn -0 1 0
vn -0 1 0
vn -0 1 0
vn -0 1 0
vn -0 1 0
vn -0 1 -0
vn -0 1 0
vn -0 1 -0
vn -0 1 0
vn -0 1 -0
vn -0 1 0
vn -0 1 0
vn -0 1 0
vn -0 1 0
vn -0 1 0
vn -0 1 0
vn -0 1 0
vn -0 1 0
vn -0 1 0
vn -0 1 0
vn -0 1 0
vn -0 1 0
vn -0 1 0
vn -0 1 0
vn -0 1 0
vn -0 1 0
vn -0 1 0
vn -0 1 0
vn -0 1 0
vn -0 1 0
vn -0 1 0
vn -0 1 0
vn -0 1 0
vn -0 1 0
vn -0 1 0
vn -0 1 0
vn -0 1 0
vn -0 1 0
vn -0 1 0
vn -0 1 0
vn -0 1 0
vn -0 1 0
vn -0 1 0
vn 0.24148984 0.9703734 0.0076212697
vn 0.17734158 0.984118 0.007861817
vn 0.6603977 0.7503451 0.02927642
vn 0.49119893 0.8705697 0.028845992
vn 0.85439676 0.51719296 0.05017503
vn 0.70761603 0.7047563 0.050972663
vn 0.9379898 0.3400145 0.0675675
vn 0.7986757 0.5979909 0.06726042
vn 0.9425389 0.32453033 0.07937585
vn 0.87032974 0.48595852 0.07981502
vn 0.9435711 0.31966525 0.08653175
vn 0.9127251 0.39918813 0.08707393
vn 0.93077075 0.3546563 0.08879548
vn 0.9424345 0.32246813 0.088496126
vn 0.91136825 0.4025967 0.085578956
vn 0.9592498 0.2697367 0.084154196
vn 0.8840322 0.46094698 0.07755542
vn 0.96649015 0.245448 0.07518001
vn 0.8488084 0.52456164 0.06602594
vn 0.9601643 0.27210623 0.06358283
vn 0.7895937 0.6113983 0.05228752
vn 0.94693124 0.3175531 0.049812235
vn 0.7145312 0.6985932 0.0375871
vn 0.848742 0.52767664 0.034558307
vn 0.5091819 0.86040914 0.02073241
vn 0.63489354 0.7723608 0.019208033
vn 0.2523094 0.9676165 0.0076333536
vn 0.1718753 0.9850874 0.007853268
vn -0 1 0
vn -0 1 0
vn -0 1 0
vn -0 1 0
vn -0 1 0
vn -0 1 0
vn -0 1 0
vn -0 1 0
vn -0 1 0
vn -0 1 0
vn -0 1 0
vn -0 1 0
vn -0 1 -0
vn -0 1 0
vn -0 1 0
vn -0 1 0
vn -0 1 0
vn -0 1 0
vn -0 1 0
vn -0 1 0
vn -0 1 0
vn -0 1 0
vn -0 1 0
vn -0 1 0
vn -0 1 0
vn -0 1 0
vn -0 1 0
vn -0 1 0
vn -0 1 0
vn -0 1 0
vn -0 1 0
vn -0 1 0
vn -0 1 0
vn -0 1 0
vn -0 1 0
vn -0 1 0
vn -0 1 0
vn -0 1 0
vn -0 1 0
vn -0 1 0
vn -0 1 0
vn -0 1 0
vn -0 1 0
vn -0 1 0
vn -0 1 0
vn -0 1 0
vn -0 1 0
vn -0 1 0
vn -0 1 0
vn -0 1 0
vn -0 1 0
vn -0 1 0
vn -0 1 0
vn -0 1 0
vn -0 1 0
vn -0 1 0
vn -0 1 0
vn -0 1 0
vn -0 1 0
vn -0 1 0
vn -0 1 0
vn -0 1 0
vn -0 1 0
vn -0 1 0
vn -0 1 0
vn -0 1 0
vn -0 1 0
vn -0 1 0
vn -0 1 0
vn -0 1 0
vn -0 1 0
vn -0 1 0
vn -0 1 0
vn -0 1 0
vn -0 1 0
vn -0 1 0
vn -0 1 0
vn -0 1 0
vn -0 1 0
vn -0 1 0
vn -0 1 0
vn -0 1 0
vn -0 1 0
vn -0 1 0
vn -0 1 0
vn -0 1 0
vn -0 1 0
vn -0 1 0
vn -0 1 0
vn -0 1 0
vn -0 1 0
vn -0 1 0
vn -0 1 0
vn -0 1 0
vn -0 1 0
vn -0 1 0
vn -0 1 0
vn -0 1 0
vn -0 1 0
vn -0 1 0
vn -0 1 0
vn -0 1 0
vn -0 1 0
vn -0 1 0
vn -0 1 0
vn -0 1 0
vn -0 1 0
vn -0 1 0
vn -0 1 0
vn -0 1 0
vn -0 1 0
vn -0 1 0
vn -0 1 0
vn -0 1 0
vn -0 1 0
vn -0 1 0
vn -0 1 0
vn -0 1 0
vn -0 1 0
vn -0 1 0
vn -0 1 0
vn -0 1 0
vn -0 1 0
vn -0 1 0
vn -0 1 0
vn -0 1 0
vn -0 1 0
vn -0 1 0
vn -0 1 0
vn -0 1 0
vn -0 1 0
vn -0 1 0
vn -0 1 0
vn -0 1 0
vn -0 1 0
vn -0 1 0
vn -0 1 0
vn -0 1 0
vn -0 1 0
vn -0 1 0
vn -0 1 0
vn -0 1 0
vn -0 1 0
vn -0 1 0
vn -0 1 0
vn -0 1 0
vn -0 1 0
vn -0 1 0
vn -0 1 0
vn -0 1 0
vn -0 1 0
vn -0 1 0
vn -0 1 0
vn -0 1 0
vn -0 1 0
vn -0 1 0
vn -0 1 0
vn -0 1 0
vn -0 1 0
vn -0 1 0
vn -0 1 0
vn -0 1 0
vn -0 1 0
vn -0 1 0
vn -0 1 0
vn -0 1 0
vn -0 1 0
vn -0 1 0
vn -0 1 0
vn -0 1 0
vn -0 1 0
vn -0 1 0
vn -0 1 0
vn -0 1 0
vn -0 1 0
vn -0 1 0
vn -0 1 0
vn -0 1 0
vn -0 1 0
vn -0 1 0
vn -0 1 0
vn -0 1 0
vn -0 1 0
vn -0 1 0
vn -0 1 0
vn -0 1 0
vn -0 1 0
vn -0 1 0
vn -0 1 0
vn -0 1 0
vn -0 1 0
vn -0 1 0
vn -0 1 0
vn -0 1 0
vn -0 1 0
vn -0 1 0
vn -0 1 0
vn -0 1 0
vn -0 1 0
vn -0 1 0
vn -0 1 0
vn -0 1 0
vn -0 1 0
vn -0 1 0
vn -0 1 0
vn -0 1 0
vn -0 1 0
vn -0 1 0
vn -0 1 0
vn -0 1 0
vn -0 1 0
vn -0 1 0
vn -0 1 0
vn -0 1 0
vn -0 1 0
vn -0 1 0
vn -0 1 0
vn -0 1 0
vn -0 1 0
vn -0 1 0
vn -0 1 0
vn -0 1 0
vn -0 1 0
vn -0 1 0
vn -0 1 0
vn -0 1 0
vn -0 1 0
vn -0 1 0
vn -0 1 0
vn -0 1 0
vn -0 1 0
vn -0 1 0
vn -0 1 0
vn -0 1 0
vn -0 1 0
vn -0 1 0
vn -0 1 0
vn -0 1 0
vn -0 1 0
vn -0 1 0
vn -0 1 0
vn -0 1 0
vn -0 1 0
vn -0 1 0
vn -0 1 0
vn -0 1 0
vn -0 1 0
vn -0 1 0
vn -0 1 0
vn -0 1 0
vn -0 1 0
vn -0 1 0
vn -0 1 0
vn -0 1 0
vn -0 1 0
vn -0 1 0
vn -0 1 0
vn -0 1 0
vn -0 1 0
vn -0 1 0
vn -0 1 0
vn -0 1 0
vn -0 1 0
vn -0 1 0
vn -0 1 0
vn -0 1 0
vn -0 1 0
vn -0 1 0
vn -0 1 0
vn -0 1 0
vn -0 1 0
vn -0 1 0
vn -0 1 0
vn -0 1 0
vn -0 1 0
vn -0 1 0
vn -0 1 0
vn -0 1 0
vn -0 1 0
vn -0 1 0
vn -0 1 0
vn -0 1 0
vn -0 1 0
vn -0 1 0
vn -0 1 0
vn -0 1 0
vn -0 1 0
vn -0 1 0
vn -0 1 0
vn -0 1 0
vn -0 1 0
vn -0 1 0
vn -0 1 0
vn -0 1 0
g _0
f 3/3/3 2/2/2 1/1/1
f 2/2/2 3/3/3 4/4/4
f 5/5/5 4/4/4 3/3/3
f 4/4/4 5/5/5 6/6/6
f 7/7/7 6/6/6 5/5/5
f 6/6/6 7/7/7 8/8/8
f 9/9/9 8/8/8 7/7/7
f 8/8/8 9/9/9 10/10/10
f 11/11/11 10/10/10 9/9/9
f 10/10/10 11/11/11 12/12/12
f 13/13/13 12/12/12 11/11/11
f 12/12/12 13/13/13 14/14/14
f 15/15/15 14/14/14 13/13/13
f 14/14/14 15/15/15 16/16/16
f 17/17/17 16/16/16 15/15/15
f 16/16/16 17/17/17 18/18/18
f 19/19/19 18/18/18 17/17/17
f 18/18/18 19/19/19 20/20/20
f 21/21/21 20/20/20 19/19/19
f 20/20/20 21/21/21 22/22/22
f 23/23/23 22/22/22 21/21/21
f 22/22/22 23/23/23 24/24/24
f 25/25/25 24/24/24 23/23/23
f 24/24/24 25/25/25 26/26/26
f 27/27/27 26/26/26 25/25/25
f 26/26/26 27/27/27 28/28/28
f 29/29/29 28/28/28 27/27/27
f 28/28/28 29/29/29 30/30/30
f 31/31/31 30/30/30 29/29/29
f 30/30/30 31/31/31 32/32/32
f 33/33/33 32/32/32 31/31/31
f 32/32/32 33/33/33 34/34/34
f 35/35/35 34/34/34 33/33/33
f 34/34/34 35/35/35 36/36/36
f 37/37/37 36/36/36 35/35/35
f 36/36/36 37/37/37 38/38/38
f 39/39/39 38/38/38 37/37/37
f 38/38/38 39/39/39 40/40/40
f 41/41/41 40/40/40 39/39/39
f 40/40/40 41/41/41 42/42/42
f 43/43/43 42/42/42 41/41/41
f 42/42/42 43/43/43 44/44/44
f 45/45/45 44/44/44 43/43/43
f 44/44/44 45/45/45 46/46/46
f 47/47/47 46/46/46 45/45/45
f 46/46/46 47/47/47 48/48/48
f 49/49/49 48/48/48 47/47/47
f 48/48/48 49/49/49 50/50/50
f 51/51/51 50/50/50 49/49/49
f 50/50/50 51/51/51 52/52/52
f 53/53/53 52/52/52 51/51/51
f 52/52/52 53/53/53 54/54/54
f 55/55/55 54/54/54 53/53/53
f 54/54/54 55/55/55 56/56/56
f 57/57/57 56/56/56 55/55/55
f 56/56/56 57/57/57 58/58/58
f 59/59/59 58/58/58 57/57/57
f 58/58/58 59/59/59 60/60/60
f 61/61/61 60/60/60 59/59/59
f 60/60/60 61/61/61 62/62/62
f 63/63/63 62/62/62 61/61/61
f 62/62/62 63/63/63 64/64/64
f 65/65/65 64/64/64 63/63/63
f 64/64/64 65/65/65 66/66/66
f 67/67/67 66/66/66 65/65/65
f 66/66/66 67/67/67 68/68/68
f 69/69/69 68/68/68 67/67/67
f 68/68/68 69/69/69 70/70/70
f 71/71/71 70/70/70 69/69/69
f 70/70/70 71/71/71 72/72/72
f 73/73/73 72/72/72 71/71/71
f 72/72/72 73/73/73 74/74/74
f 75/75/75 74/74/74 73/73/73
f 74/74/74 75/75/75 76/76/76
f 77/77/77 76/76/76 75/75/75
f 76/76/76 77/77/77 78/78/78
f 79/79/79 78/78/78 77/77/77
f 78/78/78 79/79/79 80/80/80
f 81/81/81 80/80/80 79/79/79
f 80/80/80 81/81/81 82/82/82
f 83/83/83 82/82/82 81/81/81
f 82/82/82 83/83/83 84/84/84
f 85/85/85 84/84/84 83/83/83
f 84/84/84 85/85/85 86/86/86
f 87/87/87 86/86/86 85/85/85
f 86/86/86 87/87/87 88/88/88
f 89/89/89 88/88/88 87/87/87
f 88/88/88 89/89/89 90/90/90
f 91/91/91 90/90/90 89/89/89
f 90/90/90 91/91/91 92/92/92
f 93/93/93 92/92/92 91/91/91
f 92/92/92 93/93/93 94/94/94
f 95/95/95 94/94/94 93/93/93
f 94/94/94 95/95/95 96/96/96
f 97/97/97 96/96/96 95/95/95
f 96/96/96 97/97/97 98/98/98
f 99/99/99 98/98/98 97/97/97
f 98/98/98 99/99/99 100/100/100
f 101/101/101 100/100/100 99/99/99
f 100/100/100 101/101/101 102/102/102
f 103/103/103 102/102/102 101/101/101
f 102/102/102 103/103/103 104/104/104
f 105/105/105 104/104/104 103/103/103
f 104/104/104 105/105/105 106/106/106
f 107/107/107 106/106/106 105/105/105
f 106/106/106 107/107/107 108/108/108
f 109/109/109 108/108/108 107/107/107
f 108/108/108 109/109/109 110/110/110
f 111/111/111 110/110/110 109/109/109
f 110/110/110 111/111/111 112/112/112
f 113/113/113 112/112/112 111/111/111
f 112/112/112 113/113/113 114/114/114
f 115/115/115 114/114/114 113/113/113
f 114/114/114 115/115/115 116/116/116
f 117/117/117 116/116/116 115/115/115
f 116/116/116 117/117/117 118/118/118
f 119/119/119 118/118/118 117/117/117
f 118/118/118 119/119/119 120/120/120
f 121/121/121 120/120/120 119/119/119
f 120/120/120 121/121/121 122/122/122
f 123/123/123 122/122/122 121/121/121
f 122/122/122 123/123/123 124/124/124
f 125/125/125 124/124/124 123/123/123
f 124/124/124 125/125/125 126/126/126
f 127/127/127 126/126/126 125/125/125
f 126/126/126 127/127/127 128/128/128
f 129/129/129 128/128/128 127/127/127
f 128/128/128 129/129/129 130/130/130
f 131/131/131 130/130/130 129/129/129
f 130/130/130 131/131/131 132/132/132
f 133/133/133 132/132/132 131/131/131
f 132/132/132 133/133/133 134/134/134
f 135/135/135 134/134/134 133/133/133
f 134/134/134 135/135/135 136/136/136
f 137/137/137 136/136/136 135/135/135
f 136/136/136 137/137/137 138/138/138
f 139/139/139 138/138/138 137/137/137
f 138/138/138 139/139/139 140/140/140
f 141/141/141 140/140/140 139/139/139
f 140/140/140 141/141/141 142/142/142
f 143/143/143 142/142/142 141/141/141
f 142/142/142 143/143/143 144/144/144
f 145/145/145 144/144/144 143/143/143
f 144/144/144 145/145/145 146/146/146
f 147/147/147 146/146/146 145/145/145
f 146/146/146 147/147/147 148/148/148
f 149/149/149 148/148/148 147/147/147
f 148/148/148 149/149/149 150/150/150
f 151/151/151 150/150/150 149/149/149
f 150/150/150 151/151/151 152/152/152
f 153/153/153 152/152/152 151/151/151
f 152/152/152 153/153/153 154/154/154
f 155/155/155 154/154/154 153/153/153
f 154/154/154 155/155/155 156/156/156
f 157/157/157 156/156/156 155/155/155
f 156/156/156 157/157/157 158/158/158
f 159/159/159 158/158/158 157/157/157
f 158/158/158 159/159/159 160/160/160
f 161/161/161 160/160/160 159/159/159
f 160/160/160 161/161/161 162/162/162
f 163/163/163 162/162/162 161/161/161
f 162/162/162 163/163/163 164/164/164
f 165/165/165 164/164/164 163/163/163
f 164/164/164 165/165/165 166/166/166
f 167/167/167 166/166/166 165/165/165
f 166/166/166 167/167/167 168/168/168
f 169/169/169 168/168/168 167/167/167
f 168/168/168 169/169/169 170/170/170
f 171/171/171 170/170/170 169/169/169
f 170/170/170 171/171/171 172/172/172
f 173/173/173 172/172/172 171/171/171
f 172/172/172 173/173/173 174/174/174
f 175/175/175 174/174/174 173/173/173
f 174/174/174 175/175/175 176/176/176
f 177/177/177 176/176/176 175/175/175
f 176/176/176 177/177/177 178/178/178
f 179/179/179 178/178/178 177/177/177
f 178/178/178 179/179/179 180/180/180
f 181/181/181 180/180/180 179/179/179
f 180/180/180 181/181/181 182/182/182
f 183/183/183 182/182/182 181/181/181
f 182/182/182 183/183/183 184/184/184
f 185/185/185 184/184/184 183/183/183
f 184/184/184 185/185/185 186/186/186
f 187/187/187 186/186/186 185/185/185
f 186/186/186 187/187/187 188/188/188
f 189/189/189 188/188/188 187/187/187
f 188/188/188 189/189/189 190/190/190
f 191/191/191 190/190/190 189/189/189
f 190/190/190 191/191/191 192/192/192
f 193/193/193 192/192/192 191/191/191
f 192/192/192 193/193/193 194/194/194
f 195/195/195 194/194/194 193/193/193
f 194/194/194 195/195/195 196/196/196
f 197/197/197 196/196/196 195/195/195
f 196/196/196 197/197/197 198/198/198
f 199/199/199 198/198/198 197/197/197
f 198/198/198 199/199/199 200/200/200
f 201/201/201 200/200/200 199/199/199
f 200/200/200 201/201/201 202/202/202
f 203/203/203 202/202/202 201/201/201
f 202/202/202 203/203/203 204/204/204
f 205/205/205 204/204/204 203/203/203
f 204/204/204 205/205/205 206/206/206
f 207/207/207 206/206/206 205/205/205
f 206/206/206 207/207/207 208/208/208
f 209/209/209 208/208/208 207/207/207
f 208/208/208 209/209/209 210/210/210
f 211/211/211 210/210/210 209/209/209
f 210/210/210 211/211/211 212/212/212
f 213/213/213 212/212/212 211/211/211
f 212/212/212 213/213/213 214/214/214
f 215/215/215 214/214/214 213/213/213
f 214/214/214 215/215/215 216/216/216
f 217/217/217 216/216/216 215/215/215
f 216/216/216 217/217/217 218/218/218
f 219/219/219 218/218/218 217/217/217
f 218/218/218 219/219/219 220/220/220
f 221/221/221 220/220/220 219/219/219
f 220/220/220 221/221/221 222/222/222
f 223/223/223 222/222/222 221/221/221
f 222/222/222 223/223/223 224/224/224
f 225/225/225 224/224/224 223/223/223
f 224/224/224 225/225/225 226/226/226
f 227/227/227 226/226/226 225/225/225
f 226/226/226 227/227/227 228/228/228
f 229/229/229 228/228/228 227/227/227
f 228/228/228 229/229/229 230/230/230
f 231/231/231 230/230/230 229/229/229
f 230/230/230 231/231/231 232/232/232
f 233/233/233 232/232/232 231/231/231
f 232/232/232 233/233/233 234/234/234
f 235/235/235 234/234/234 233/233/233
f 234/234/234 235/235/235 236/236/236
f 237/237/237 236/236/236 235/235/235
f 236/236/236 237/237/237 238/238/238
f 239/239/239 238/238/238 237/237/237
f 238/238/238 239/239/239 240/240/240
f 241/241/241 240/240/240 239/239/239
f 240/240/240 241/241/241 242/242/242
f 243/243/243 242/242/242 241/241/241
f 242/242/242 243/243/243 244/244/244
f 245/245/245 244/244/244 243/243/243
f 244/244/244 245/245/245 246/246/246
f 247/247/247 246/246/246 245/245/245
f 246/246/246 247/247/247 248/248/248
f 249/249/249 248/248/248 247/247/247
f 248/248/248 249/249/249 250/250/250
f 251/251/251 250/250/250 249/249/249
f 250/250/250 251/251/251 252/252/252
f 253/253/253 252/252/252 251/251/251
f 252/252/252 253/253/253 254/254/254
f 255/255/255 254/254/254 253/253/253
f 254/254/254 255/255/255 256/256/256
f 257/257/257 256/256/256 255/255/255
f 256/256/256 257/257/257 258/258/258
f 259/259/259 258/258/258 257/257/257
f 258/258/258 259/259/259 260/260/260
f 261/261/261 260/260/260 259/259/259
f 260/260/260 261/261/261 262/262/262
f 263/263/263 262/262/262 261/261/261
f 262/262/262 263/263/263 264/264/264
f 265/265/265 264/264/264 263/263/263
f 264/264/264 265/265/265 266/266/266
f 267/267/267 266/266/266 265/265/265
f 266/266/266 267/267/267 268/268/268
f 269/269/269 268/268/268 267/267/267
f 268/268/268 269/269/269 270/270/270
f 271/271/271 270/270/270 269/269/269
f 270/270/270 271/271/271 272/272/272
f 273/273/273 272/272/272 271/271/271
f 272/272/272 273/273/273 274/274/274
f 275/275/275 274/274/274 273/273/273
f 274/274/274 275/275/275 276/276/276
f 277/277/277 276/276/276 275/275/275
f 276/276/276 277/277/277 278/278/278
f 279/279/279 278/278/278 277/277/277
f 278/278/278 279/279/279 280/280/280
f 281/281/281 280/280/280 279/279/279
f 280/280/280 281/281/281 282/282/282
f 283/283/283 282/282/282 281/281/281
f 282/282/282 283/283/283 284/284/284
f 285/285/285 284/284/284 283/283/283
f 284/284/284 285/285/285 286/286/286
f 287/287/287 286/286/286 285/285/285
f 286/286/286 287/287/287 288/288/288
f 289/289/289 288/288/288 287/287/287
f 288/288/288 289/289/289 290/290/290
f 291/291/291 290/290/290 289/289/289
f 290/290/290 291/291/291 292/292/292
f 293/293/293 292/292/292 291/291/291
f 292/292/292 293/293/293 294/294/294
f 295/295/295 294/294/294 293/293/293
f 294/294/294 295/295/295 296/296/296
f 297/297/297 296/296/296 295/295/295
f 296/296/296 297/297/297 298/298/298
f 299/299/299 298/298/298 297/297/297
f 298/298/298 299/299/299 300/300/300
f 301/301/301 300/300/300 299/299/299
f 300/300/300 301/301/301 302/302/302
f 303/303/303 302/302/302 301/301/301
f 302/302/302 303/303/303 304/304/304
f 305/305/305 304/304/304 303/303/303
f 304/304/304 305/305/305 306/306/306
f 307/307/307 306/306/306 305/305/305
f 306/306/306 307/307/307 308/308/308
f 309/309/309 308/308/308 307/307/307
f 308/308/308 309/309/309 310/310/310
f 311/311/311 310/310/310 309/309/309
f 310/310/310 311/311/311 312/312/312
f 313/313/313 312/312/312 311/311/311
f 312/312/312 313/313/313 314/314/314
f 315/315/315 314/314/314 313/313/313
f 314/314/314 315/315/315 316/316/316
f 317/317/317 316/316/316 315/315/315
f 316/316/316 317/317/317 318/318/318
f 319/319/319 318/318/318 317/317/317
f 318/318/318 319/319/319 320/320/320
f 321/321/321 320/320/320 319/319/319
f 320/320/320 321/321/321 322/322/322
f 323/323/323 322/322/322 321/321/321
f 322/322/322 323/323/323 324/324/324
f 325/325/325 324/324/324 323/323/323
f 324/324/324 325/325/325 326/326/326
f 327/327/327 326/326/326 325/325/325
f 326/326/326 327/327/327 328/328/328
f 329/329/329 328/328/328 327/327/327
f 328/328/328 329/329/329 330/330/330
f 331/331/331 330/330/330 329/329/329
f 330/330/330 331/331/331 332/332/332
f 333/333/333 332/332/332 331/331/331
f 332/332/332 333/333/333 334/334/334
f 335/335/335 334/334/334 333/333/333
f 334/334/334 335/335/335 336/336/336
f 337/337/337 336/336/336 335/335/335
f 336/336/336 337/337/337 338/338/338
f 339/339/339 338/338/338 337/337/337
f 338/338/338 339/339/339 340/340/340
f 341/341/341 340/340/340 339/339/339
f 340/340/340 341/341/341 342/342/342
f 343/343/343 342/342/342 341/341/341
f 342/342/342 343/343/343 344/344/344
f 345/345/345 344/344/344 343/343/343
f 344/344/344 345/345/345 346/346/346
f 347/347/347 346/346/346 345/345/345
f 346/346/346 347/347/347 348/348/348
f 349/349/349 348/348/348 347/347/347
f 348/348/348 349/349/349 350/350/350
f 351/351/351 350/350/350 349/349/349
f 350/350/350 351/351/351 352/352/352
f 353/353/353 352/352/352 351/351/351
f 352/352/352 353/353/353 354/354/354
f 355/355/355 354/354/354 353/353/353
f 354/354/354 355/355/355 356/356/356
f 357/357/357 356/356/356 355/355/355
f 356/356/356 357/357/357 358/358/358
f 359/359/359 358/358/358 357/357/357
f 358/358/358 359/359/359 360/360/360
f 361/361/361 360/360/360 359/359/359
f 360/360/360 361/361/361 362/362/362
f 363/363/363 362/362/362 361/361/361
f 362/362/362 363/363/363 364/364/364
f 365/365/365 364/364/364 363/363/363
f 364/364/364 365/365/365 366/366/366
f 367/367/367 366/366/366 365/365/365
f 366/366/366 367/367/367 368/368/368
f 369/369/369 368/368/368 367/367/367
f 368/368/368 369/369/369 370/370/370
f 371/371/371 370/370/370 369/369/369
f 370/370/370 371/371/371 372/372/372
f 373/373/373 372/372/372 371/371/371
f 372/372/372 373/373/373 374/374/374
f 375/375/375 374/374/374 373/373/373
f 374/374/374 375/375/375 376/376/376
f 377/377/377 376/376/376 375/375/375
f 376/376/376 377/377/377 378/378/378
f 379/379/379 378/378/378 377/377/377
f 378/378/378 379/379/379 380/380/380
f 381/381/381 380/380/380 379/379/379
f 380/380/380 381/381/381 382/382/382
f 383/383/383 382/382/382 381/381/381
f 382/382/382 383/383/383 384/384/384
f 385/385/385 384/384/384 383/383/383
f 384/384/384 385/385/385 386/386/386
f 387/387/387 386/386/386 385/385/385
f 386/386/386 387/387/387 388/388/388
f 389/389/389 388/388/388 387/387/387
f 388/388/388 389/389/389 390/390/390
f 391/391/391 390/390/390 389/389/389
f 390/390/390 391/391/391 392/392/392
f 393/393/393 392/392/392 391/391/391
f 392/392/392 393/393/393 394/394/394
f 395/395/395 394/394/394 393/393/393
f 394/394/394 395/395/395 396/396/396
f 397/397/397 396/396/396 395/395/395
f 396/396/396 397/397/397 398/398/398
f 399/399/399 398/398/398 397/397/397
f 398/398/398 399/399/399 400/400/400
f 401/401/401 400/400/400 399/399/399
f 400/400/400 401/401/401 402/402/402
f 403/403/403 402/402/402 401/401/401
f 402/402/402 403/403/403 404/404/404
f 405/405/405 404/404/404 403/403/403
f 404/404/404 405/405/405 406/406/406
f 407/407/407 406/406/406 405/405/405
f 406/406/406 407/407/407 408/408/408
f 409/409/409 408/408/408 407/407/407
f 408/408/408 409/409/409 410/410/410
f 411/411/411 410/410/410 409/409/409
f 410/410/410 411/411/411 412/412/412
f 413/413/413 412/412/412 411/411/411
f 412/412/412 413/413/413 414/414/414
f 415/415/415 414/414/414 413/413/413
f 414/414/414 415/415/415 416/416/416
f 417/417/417 416/416/416 415/415/415
f 416/416/416 417/417/417 418/418/418
f 419/419/419 418/418/418 417/417/417
f 418/418/418 419/419/419 420/420/420
f 421/421/421 420/420/420 419/419/419
f 420/420/420 421/421/421 422/422/422
f 423/423/423 422/422/422 421/421/421
f 422/422/422 423/423/423 424/424/424
f 425/425/425 424/424/424 423/423/423
f 424/424/424 425/425/425 426/426/426
f 427/427/427 426/426/426 425/425/425
f 426/426/426 427/427/427 428/428/428
f 429/429/429 428/428/428 427/427/427
f 428/428/428 429/429/429 430/430/430
f 431/431/431 430/430/430 429/429/429
f 430/430/430 431/431/431 432/432/432
f 433/433/433 432/432/432 431/431/431
f 432/432/432 433/433/433 434/434/434
f 435/435/435 434/434/434 433/433/433
f 434/434/434 435/435/435 436/436/436
f 437/437/437 436/436/436 435/435/435
f 436/436/436 437/437/437 438/438/438
f 439/439/439 438/438/438 437/437/437
f 438/438/438 439/439/439 440/440/440
f 441/441/441 440/440/440 439/439/439
f 440/440/440 441/441/441 442/442/442
f 443/443/443 442/442/442 441/441/441
f 442/442/442 443/443/443 444/444/444
f 445/445/445 444/444/444 443/443/443
f 444/444/444 445/445/445 446/446/446
f 447/447/447 446/446/446 445/445/445
f 446/446/446 447/447/447 448/448/448
f 449/449/449 448/448/448 447/447/447
f 448/448/448 449/449/449 450/450/450
f 451/451/451 450/450/450 449/449/449
f 450/450/450 451/451/451 452/452/452
f 453/453/453 452/452/452 451/451/451
f 452/452/452 453/453/453 454/454/454
f 455/455/455 454/454/454 453/453/453
f 454/454/454 455/455/455 456/456/456
f 457/457/457 456/456/456 455/455/455
f 456/456/456 457/457/457 458/458/458
f 459/459/459 458/458/458 457/457/457
f 458/458/458 459/459/459 460/460/460
f 461/461/461 460/460/460 459/459/459
f 460/460/460 461/461/461 462/462/462
f 463/463/463 462/462/462 461/461/461
f 462/462/462 463/463/463 464/464/464
f 465/465/465 464/464/464 463/463/463
f 464/464/464 465/465/465 466/466/466
f 467/467/467 466/466/466 465/465/465
f 466/466/466 467/467/467 468/468/468
f 469/469/469 468/468/468 467/467/467
f 468/468/468 469/469/469 470/470/470
f 471/471/471 470/470/470 469/469/469
f 470/470/470 471/471/471 472/472/472
f 473/473/473 472/472/472 471/471/471
f 472/472/472 473/473/473 474/474/474
f 475/475/475 474/474/474 473/473/473
f 474/474/474 475/475/475 476/476/476
f 477/477/477 476/476/476 475/475/475
f 476/476/476 477/477/477 478/478/478
f 479/479/479 478/478/478 477/477/477
f 478/478/478 479/479/479 480/480/480
f 481/481/481 480/480/480 479/479/479
f 480/480/480 481/481/481 482/482/482
f 483/483/483 482/482/482 481/481/481
f 482/482/482 483/483/483 484/484/484
f 485/485/485 484/484/484 483/483/483
f 484/484/484 485/485/485 486/486/486
f 487/487/487 486/486/486 485/485/485
f 486/486/486 487/487/487 488/488/488
f 489/489/489 488/488/488 487/487/487
f 488/488/488 489/489/489 490/490/490
f 491/491/491 490/490/490 489/489/489
f 490/490/490 491/491/491 492/492/492
f 493/493/493 492/492/492 491/491/491
f 492/492/492 493/493/493 494/494/494
f 495/495/495 494/494/494 493/493/493
f 494/494/494 495/495/495 496/496/496
f 497/497/497 496/496/496 495/495/495
f 496/496/496 497/497/497 498/498/498
f 499/499/499 498/498/498 497/497/497
f 498/498/498 499/499/499 500/500/500
f 501/501/501 500/500/500 499/499/499
f 500/500/500 501/501/501 502/502/502
f 503/503/503 502/502/502 501/501/501
f 502/502/502 503/503/503 504/504/504
f 505/505/505 504/504/504 503/503/503
f 504/504/504 505/505/505 506/506/506
f 507/507/507 506/506/506 505/505/505
f 506/506/506 507/507/507 508/508/508
f 509/509/509 508/508/508 507/507/507
f 508/508/508 509/509/509 510/510/510
f 511/511/511 510/510/510 509/509/509
f 510/510/510 511/511/511 512/512/512
f 513/513/513 512/512/512 511/511/511
f 512/512/512 513/513/513 514/514/514
f 515/515/515 514/514/514 513/513/513
f 514/514/514 515/515/515 516/516/516
f 517/517/517 516/516/516 515/515/515
f 516/516/516 517/517/517 518/518/518
f 519/519/519 518/518/518 517/517/517
f 518/518/518 519/519/519 520/520/520
f 521/521/521 520/520/520 519/519/519
f 520/520/520 521/521/521 522/522/522
f 523/523/523 522/522/522 521/521/521
f 522/522/522 523/523/523 524/524/524
f 525/525/525 524/524/524 523/523/523
f 524/524/524 525/525/525 526/526/526
f 527/527/527 526/526/526 525/525/525
f 526/526/526 527/527/527 528/528/528
f 529/529/529 528/528/528 527/527/527
f 528/528/528 529/529/529 530/530/530
f 531/531/531 530/530/530 529/529/529
f 530/530/530 531/531/531 532/532/532
f 533/533/533 532/532/532 531/531/531
f 532/532/532 533/533/533 534/534/534
f 535/535/535 534/534/534 533/533/533
f 534/534/534 535/535/535 536/536/536
f 537/537/537 536/536/536 535/535/535
f 536/536/536 537/537/537 538/538/538
f 539/539/539 538/538/538 537/537/537
f 538/538/538 539/539/539 540/540/540
f 541/541/541 540/540/540 539/539/539
f 540/540/540 541/541/541 542/542/542
f 543/543/543 542/542/542 541/541/541
f 542/542/542 543/543/543 544/544/544
f 545/545/545 544/544/544 543/543/543
f 544/544/544 545/545/545 546/546/546
f 547/547/547 546/546/546 545/545/545
f 546/546/546 547/547/547 548/548/548
f 549/549/549 548/548/548 547/547/547
f 548/548/548 549/549/549 550/550/550
f 551/551/551 550/550/550 549/549/549
f 550/550/550 551/551/551 552/552/552
f 553/553/553 552/552/552 551/551/551
f 552/552/552 553/553/553 554/554/554
f 555/555/555 554/554/554 553/553/553
f 554/554/554 555/555/555 556/556/556
f 557/557/557 556/556/556 555/555/555
f 556/556/556 557/557/557 558/558/558
f 559/559/559 558/558/558 557/557/557
f 558/558/558 559/559/559 560/560/560
f 561/561/561 560/560/560 559/559/559
f 560/560/560 561/561/561 562/562/562
f 563/563/563 562/562/562 561/561/561
f 562/562/562 563/563/563 564/564/564
f 565/565/565 564/564/564 563/563/563
f 564/564/564 565/565/565 566/566/566
f 567/567/567 566/566/566 565/565/565
f 566/566/566 567/567/567 568/568/568
f 569/569/569 568/568/568 567/567/567
f 568/568/568 569/569/569 570/570/570
f 571/571/571 570/570/570 569/569/569
f 570/570/570 571/571/571 572/572/572
f 573/573/573 572/572/572 571/571/571
f 572/572/572 573/573/573 574/574/574
f 575/575/575 574/574/574 573/573/573
f 574/574/574 575/575/575 576/576/576
f 577/577/577 576/576/576 575/575/575
f 576/576/576 577/577/577 578/578/578
f 579/579/579 578/578/578 577/577/577
f 578/578/578 579/579/579 580/580/580
f 581/581/581 580/580/580 579/579/579
f 580/580/580 581/581/581 582/582/582
f 583/583/583 582/582/582 581/581/581
f 582/582/582 583/583/583 584/584/584
f 585/585/585 584/584/584 583/583/583
f 584/584/584 585/585/585 586/586/586
f 587/587/587 586/586/586 585/585/585
f 586/586/586 587/587/587 588/588/588
f 589/589/589 588/588/588 587/587/587
f 588/588/588 589/589/589 590/590/590
f 591/591/591 590/590/590 589/589/589
f 590/590/590 591/591/591 592/592/592
f 593/593/593 592/592/592 591/591/591
f 592/592/592 593/593/593 594/594/594
f 595/595/595 594/594/594 593/593/593
f 594/594/594 595/595/595 596/596/596
f 597/597/597 596/596/596 595/595/595
f 596/596/596 597/597/597 598/598/598
f 599/599/599 598/598/598 597/597/597
f 598/598/598 599/599/599 600/600/600
f 601/601/601 600/600/600 599/599/599
f 600/600/600 601/601/601 602/602/602
f 603/603/603 602/602/602 601/601/601
f 602/602/602 603/603/603 604/604/604
f 605/605/605 604/604/604 603/603/603
f 604/604/604 605/605/605 606/606/606
f 607/607/607 606/606/606 605/605/605
f 606/606/606 607/607/607 608/608/608
f 609/609/609 608/608/608 607/607/607
f 608/608/608 609/609/609 610/610/610
f 611/611/611 610/610/610 609/609/609
f 610/610/610 611/611/611 612/612/612
f 613/613/613 612/612/612 611/611/611
f 612/612/612 613/613/613 614/614/614
f 615/615/615 614/614/614 613/613/613
f 614/614/614 615/615/615 616/616/616
f 617/617/617 616/616/616 615/615/615
f 616/616/616 617/617/617 618/618/618
f 619/619/619 618/618/618 617/617/617
f 618/618/618 619/619/619 620/620/620
f 621/621/621 620/620/620 619/619/619
f 620/620/620 621/621/621 622/622/622
f 623/623/623 622/622/622 621/621/621
f 622/622/622 623/623/623 624/624/624
f 625/625/625 624/624/624 623/623/623
f 624/624/624 625/625/625 626/626/626
f 627/627/627 626/626/626 625/625/625
f 626/626/626 627/627/627 628/628/628
f 629/629/629 628/628/628 627/627/627
f 628/628/628 629/629/629 630/630/630
f 631/631/631 630/630/630 629/629/629
f 630/630/630 631/631/631 632/632/632
f 633/633/633 632/632/632 631/631/631
f 632/632/632 633/633/633 634/634/634
f 635/635/635 634/634/634 633/633/633
f 634/634/634 635/635/635 636/636/636
f 637/637/637 636/636/636 635/635/635
f 636/636/636 637/637/637 638/638/638
f 639/639/639 638/638/638 637/637/637
f 638/638/638 639/639/639 640/640/640
f 641/641/641 640/640/640 639/639/639
f 640/640/640 641/641/641 642/642/642
f 643/643/643 642/642/642 641/641/641
f 642/642/642 643/643/643 644/644/644
f 645/645/645 644/644/644 643/643/643
f 644/644/644 645/645/645 646/646/646
f 647/647/647 646/646/646 645/645/645
f 646/646/646 647/647/647 648/648/648
f 649/649/649 648/648/648 647/647/647
f 648/648/648 649/649/649 650/650/650
f 651/651/651 650/650/650 649/649/649
f 650/650/650 651/651/651 652/652/652
f 653/653/653 652/652/652 651/651/651
f 652/652/652 653/653/653 654/654/654
f 655/655/655 654/654/654 653/653/653
f 654/654/654 655/655/655 656/656/656
f 657/657/657 656/656/656 655/655/655
f 656/656/656 657/657/657 658/658/658
f 659/659/659 658/658/658 657/657/657
f 658/658/658 659/659/659 660/660/660
f 661/661/661 660/660/660 659/659/659
f 660/660/660 661/661/661 662/662/662
f 663/663/663 662/662/662 661/661/661
f 662/662/662 663/663/663 664/664/664
f 665/665/665 664/664/664 663/663/663
f 664/664/664 665/665/665 666/666/666
f 667/667/667 666/666/666 665/665/665
f 666/666/666 667/667/667 668/668/668
f 669/669/669 668/668/668 667/667/667
f 668/668/668 669/669/669 670/670/670
f 671/671/671 670/670/670 669/669/669
f 670/670/670 671/671/671 672/672/672
f 673/673/673 672/672/672 671/671/671
f 672/672/672 673/673/673 674/674/674
f 675/675/675 674/674/674 673/673/673
f 674/674/674 675/675/675 676/676/676
f 677/677/677 676/676/676 675/675/675
f 676/676/676 677/677/677 678/678/678
f 679/679/679 678/678/678 677/677/677
f 678/678/678 679/679/679 680/680/680
f 681/681/681 680/680/680 679/679/679
f 680/680/680 681/681/681 682/682/682
f 683/683/683 682/682/682 681/681/681
f 682/682/682 683/683/683 684/684/684
f 685/685/685 684/684/684 683/683/683
f 684/684/684 685/685/685 686/686/686
f 687/687/687 686/686/686 685/685/685
f 686/686/686 687/687/687 688/688/688
f 689/689/689 688/688/688 687/687/687
f 688/688/688 689/689/689 690/690/690
f 691/691/691 690/690/690 689/689/689
f 690/690/690 691/691/691 692/692/692
f 693/693/693 692/692/692 691/691/691
f 692/692/692 693/693/693 694/694/694
f 695/695/695 694/694/694 693/693/693
f 694/694/694 695/695/695 696/696/696
f 697/697/697 696/696/696 695/695/695
f 696/696/696 697/697/697 698/698/698
f 699/699/699 698/698/698 697/697/697
f 698/698/698 699/699/699 700/700/700
f 701/701/701 700/700/700 699/699/699
f 700/700/700 701/701/701 702/702/702
f 703/703/703 702/702/702 701/701/701
f 702/702/702 703/703/703 704/704/704
f 705/705/705 704/704/704 703/703/703
f 704/704/704 705/705/705 706/706/706
f 707/707/707 706/706/706 705/705/705
f 706/706/706 707/707/707 708/708/708
f 709/709/709 708/708/708 707/707/707
f 708/708/708 709/709/709 710/710/710
f 711/711/711 710/710/710 709/709/709
f 710/710/710 711/711/711 712/712/712
f 713/713/713 712/712/712 711/711/711
f 712/712/712 713/713/713 714/714/714
f 715/715/715 714/714/714 713/713/713
f 714/714/714 715/715/715 716/716/716
f 717/717/717 716/716/716 715/715/715
f 716/716/716 717/717/717 718/718/718
f 719/719/719 718/718/718 717/717/717
f 718/718/718 719/719/719 720/720/720
f 721/721/721 720/720/720 719/719/719
f 720/720/720 721/721/721 722/722/722
f 723/723/723 722/722/722 721/721/721
f 722/722/722 723/723/723 724/724/724
f 725/725/725 724/724/724 723/723/723
f 724/724/724 725/725/725 726/726/726
f 727/727/727 726/726/726 725/725/725
f 726/726/726 727/727/727 728/728/728
f 729/729/729 728/728/728 727/727/727
f 728/728/728 729/729/729 730/730/730
f 731/731/731 730/730/730 729/729/729
f 730/730/730 731/731/731 732/732/732
f 733/733/733 732/732/732 731/731/731
f 732/732/732 733/733/733 734/734/734
f 735/735/735 734/734/734 733/733/733
f 734/734/734 735/735/735 736/736/736
f 737/737/737 736/736/736 735/735/735
f 736/736/736 737/737/737 738/738/738
f 739/739/739 738/738/738 737/737/737
f 738/738/738 739/739/739 740/740/740
f 741/741/741 740/740/740 739/739/739
f 740/740/740 741/741/741 742/742/742
f 743/743/743 742/742/742 741/741/741
f 742/742/742 743/743/743 744/744/744
f 745/745/745 744/744/744 743/743/743
f 744/744/744 745/745/745 746/746/746
f 747/747/747 746/746/746 745/745/745
f 746/746/746 747/747/747 748/748/748
f 749/749/749 748/748/748 747/747/747
f 748/748/748 749/749/749 750/750/750
f 751/751/751 750/750/750 749/749/749
f 750/750/750 751/751/751 752/752/752
f 753/753/753 752/752/752 751/751/751
f 752/752/752 753/753/753 754/754/754
f 755/755/755 754/754/754 753/753/753
f 754/754/754 755/755/755 756/756/756
f 757/757/757 756/756/756 755/755/755
f 756/756/756 757/757/757 758/758/758
f 759/759/759 758/758/758 757/757/757
f 758/758/758 759/759/759 760/760/760
f 761/761/761 760/760/760 759/759/759
f 760/760/760 761/761/761 762/762/762
f 763/763/763 762/762/762 761/761/761
f 762/762/762 763/763/763 764/764/764
f 765/765/765 764/764/764 763/763/763
f 764/764/764 765/765/765 766/766/766
f 767/767/767 766/766/766 765/765/765
f 766/766/766 767/767/767 768/768/768
f 769/769/769 768/768/768 767/767/767
f 768/768/768 769/769/769 770/770/770
f 771/771/771 770/770/770 769/769/769
f 770/770/770 771/771/771 772/772/772
f 773/773/773 772/772/772 771/771/771
f 772/772/772 773/773/773 774/774/774
f 775/775/775 774/774/774 773/773/773
f 774/774/774 775/775/775 776/776/776
f 777/777/777 776/776/776 775/775/775
f 776/776/776 777/777/777 778/778/778
f 779/779/779 778/778/778 777/777/777
f 778/778/778 779/779/779 780/780/780
f 781/781/781 780/780/780 779/779/779
f 780/780/780 781/781/781 782/782/782
f 783/783/783 782/782/782 781/781/781
f 782/782/782 783/783/783 784/784/784
f 785/785/785 784/784/784 783/783/783
f 784/784/784 785/785/785 786/786/786
f 787/787/787 786/786/786 785/785/785
f 786/786/786 787/787/787 788/788/788
f 789/789/789 788/788/788 787/787/787
f 788/788/788 789/789/789 790/790/790
