g 
v 51.8714 18.3 54.894215
v 47.830498 18.3 63.49503
v 51.113163 18.3 50.685585
v 44.106915 18.3 65.59798
v 46.600433 18.3 46.233925
v 37.799564 18.3 64.96607
v 39.522537 21.636665 42.631817
v 30.50866 21.636665 61.817326
v 32.801033 27.64074 39.48418
v 23.79509 27.64074 58.65279
v 25.140617 31.858517 35.77828
v 16.052448 31.858517 55.12191
v 23.520176 32.6 35.079075
v 14.479822 32.6 54.320927
v 17.162434 32.6 34.04448
v 9.624964 32.6 50.087532
v 13.138884 32.6 36.574654
v 9.004102 32.6 45.375282
v 51.8714 18.3 54.894215
v 51.8714 -21.7 54.894215
v 51.113163 18.3 50.685585
v 51.113163 -21.7 50.685585
v 51.113163 18.3 50.685585
v 51.113163 -21.7 50.685585
v 46.600433 18.3 46.233925
v 46.600433 -21.7 46.233925
v 46.600433 18.3 46.233925
v 46.600433 -21.7 46.233925
v 39.522537 21.636665 42.631817
v 39.522537 -18.363335 42.631817
v 39.522537 21.636665 42.631817
v 39.522537 -18.363335 42.631817
v 32.801033 27.64074 39.48418
v 32.801033 -12.359261 39.48418
v 32.801033 27.64074 39.48418
v 32.801033 -12.359261 39.48418
v 25.140617 31.858517 35.77828
v 25.140617 -8.141483 35.77828
v 25.140617 31.858517 35.77828
v 25.140617 -8.141483 35.77828
v 23.520176 32.6 35.079075
v 23.520176 -7.4000015 35.079075
v 23.520176 32.6 35.079075
v 23.520176 -7.4000015 35.079075
v 17.162434 32.6 34.04448
v 17.162434 -7.4000015 34.04448
v 17.162434 32.6 34.04448
v 17.162434 -7.4000015 34.04448
v 13.138884 32.6 36.574654
v 13.138884 -7.4000015 36.574654
v 47.830498 18.3 63.49503
v 47.830498 -21.7 63.49503
v 44.106915 18.3 65.59798
v 44.106915 -21.7 65.59798
v 44.106915 18.3 65.59798
v 44.106915 -21.7 65.59798
v 37.799564 18.3 64.96607
v 37.799564 -21.7 64.96607
v 37.799564 18.3 64.96607
v 37.799564 -21.7 64.96607
v 30.50866 21.636665 61.817326
v 30.50866 -18.363335 61.817326
v 30.50866 21.636665 61.817326
v 30.50866 -18.363335 61.817326
v 23.79509 27.64074 58.65279
v 23.79509 -12.359261 58.65279
v 23.79509 27.64074 58.65279
v 23.79509 -12.359261 58.65279
v 16.052448 31.858517 55.12191
v 16.052448 -8.141483 55.12191
v 16.052448 31.858517 55.12191
v 16.052448 -8.141483 55.12191
v 14.479822 32.6 54.320927
v 14.479822 -7.4000015 54.320927
v 14.479822 32.6 54.320927
v 14.479822 -7.4000015 54.320927
v 9.624964 32.6 50.087532
v 9.624964 -7.4000015 50.087532
v 9.624964 32.6 50.087532
v 9.624964 -7.4000015 50.087532
v 9.004102 32.6 45.375282
v 9.004102 -7.4000015 45.375282
vt -0.059361633 0.048678808
vt -0.058278993 0.058119718
vt -0.057299074 0.044932697
vt -0.055421963 0.061301675
vt -0.051601008 0.04215528
vt -0.049243085 0.06271711
vt -0.043743398 0.041002117
vt -0.041328404 0.062061593
vt -0.036368653 0.040165808
vt -0.033955786 0.061206736
vt -0.027925884 0.039100308
vt -0.025490984 0.060333356
vt -0.026167003 0.038955204
vt -0.023744913 0.060076535
vt -0.019811774 0.04000513
vt -0.017792335 0.05761521
vt -0.01680692 0.04368774
vt -0.015699128 0.05334798
vt -0.059361633 0.048678808
vt -0.059361633 0.048678808
vt -0.057299074 0.044932697
vt -0.057299074 0.044932697
vt -0.057299074 0.044932697
vt -0.057299074 0.044932697
vt -0.051601008 0.04215528
vt -0.051601008 0.04215528
vt -0.051601008 0.04215528
vt -0.051601008 0.04215528
vt -0.043743398 0.041002117
vt -0.043743398 0.041002117
vt -0.043743398 0.041002117
vt -0.043743398 0.041002117
vt -0.036368653 0.040165808
vt -0.036368653 0.040165808
vt -0.036368653 0.040165808
vt -0.036368653 0.040165808
vt -0.027925884 0.039100308
vt -0.027925884 0.039100308
vt -0.027925884 0.039100308
vt -0.027925884 0.039100308
vt -0.026167003 0.038955204
vt -0.026167003 0.038955204
vt -0.026167003 0.038955204
vt -0.026167003 0.038955204
vt -0.019811774 0.04000513
vt -0.019811774 0.04000513
vt -0.019811774 0.04000513
vt -0.019811774 0.04000513
vt -0.01680692 0.04368774
vt -0.01680692 0.04368774
vt -0.058278993 0.058119718
vt -0.058278993 0.058119718
vt -0.055421963 0.061301675
vt -0.055421963 0.061301675
vt -0.055421963 0.061301675
vt -0.055421963 0.061301675
vt -0.049243085 0.06271711
vt -0.049243085 0.06271711
vt -0.049243085 0.06271711
vt -0.049243085 0.06271711
vt -0.041328404 0.062061593
vt -0.041328404 0.062061593
vt -0.041328404 0.062061593
vt -0.041328404 0.062061593
vt -0.033955786 0.061206736
vt -0.033955786 0.061206736
vt -0.033955786 0.061206736
vt -0.033955786 0.061206736
vt -0.025490984 0.060333356
vt -0.025490984 0.060333356
vt -0.025490984 0.060333356
vt -0.025490984 0.060333356
vt -0.023744913 0.060076535
vt -0.023744913 0.060076535
vt -0.023744913 0.060076535
vt -0.023744913 0.060076535
vt -0.017792335 0.05761521
vt -0.017792335 0.05761521
vt -0.017792335 0.05761521
vt -0.017792335 0.05761521
vt -0.015699128 0.05334798
vt -0.015699128 0.05334798
vn -0 1 0
vn -0 1 0
vn -0 1 0
vn -0 1 0
vn -0 1 0
vn -0 1 0
vn -0 1 0
vn -0 1 0
vn -0 1 0
vn -0 1 0
vn -0 1 0
vn -0 1 0
vn -0 1 0
vn -0 1 0
vn -0 1 0
vn -0 1 0
vn -0 1 0
vn -0 1 0
vn 0.9050837 0 0.4252334
vn 0.9050837 0 0.4252334
vn 0.9841555 -0 -0.1773076
vn 0.9841555 -0 -0.1773076
vn 0.70227337 0 -0.7119074
vn 0.70227337 -0 -0.7119074
vn 0.70227337 -0 -0.7119074
vn 0.70227337 -0 -0.7119074
vn 0.45356458 0 -0.8912234
vn 0.45356458 -0 -0.8912234
vn 0.45356458 -0 -0.8912234
vn 0.45356458 -0 -0.8912234
vn 0.4240949 0 -0.9056178
vn 0.4240949 -0 -0.9056178
vn 0.4240949 -0 -0.9056178
vn 0.4240949 -0 -0.9056178
vn 0.43548945 0 -0.9001938
vn 0.43548945 -0 -0.9001938
vn 0.43548945 -0 -0.9001938
vn 0.43548945 -0 -0.9001938
vn 0.39618167 0 -0.9181722
vn 0.39618167 -0 -0.9181722
vn 0.39618167 -0 -0.9181722
vn 0.39618167 -0 -0.9181722
vn 0.16061726 0 -0.9870168
vn 0.16061726 -0 -0.9870168
vn 0.16061726 -0 -0.9870168
vn 0.16061726 -0 -0.9870168
vn -0.5323353 0 -0.84653366
vn -0.5323353 0 -0.84653366
vn -0.90508366 0 -0.42523363
vn -0.90508366 0 -0.42523363
vn 0.9050837 0 0.4252334
vn 0.9050837 0 0.4252334
vn 0.4917583 0 0.8707317
vn 0.4917583 0 0.8707317
vn -0.0996864 -0 0.99501896
vn -0.0996864 0 0.99501896
vn -0.0996864 0 0.99501896
vn -0.0996864 0 0.99501896
vn -0.3964786 -0 0.91804403
vn -0.3964786 0 0.91804403
vn -0.3964786 0 0.91804403
vn -0.3964786 0 0.91804403
vn -0.4263715 -0 0.90454817
vn -0.4263715 0 0.90454817
vn -0.4263715 0 0.90454817
vn -0.4263715 0 0.90454817
vn -0.4149224 -0 0.90985686
vn -0.4149224 0 0.90985686
vn -0.4149224 0 0.90985686
vn -0.4149224 0 0.90985686
vn -0.45385122 -0 0.89107746
vn -0.45385122 0 0.89107746
vn -0.45385122 0 0.89107746
vn -0.45385122 0 0.89107746
vn -0.65721935 -0 0.75369936
vn -0.65721935 0 0.75369936
vn -0.65721935 0 0.75369936
vn -0.65721935 0 0.75369936
vn -0.9914317 -0 0.130626
vn -0.9914317 0 0.130626
vn -0.90508366 0 -0.42523363
vn -0.90508366 0 -0.42523363
g _0
f 3/3/3 2/2/2 1/1/1
f 2/2/2 3/3/3 4/4/4
f 5/5/5 4/4/4 3/3/3
f 4/4/4 5/5/5 6/6/6
f 7/7/7 6/6/6 5/5/5
f 6/6/6 7/7/7 8/8/8
f 9/9/9 8/8/8 7/7/7
f 8/8/8 9/9/9 10/10/10
f 11/11/11 10/10/10 9/9/9
f 10/10/10 11/11/11 12/12/12
f 13/13/13 12/12/12 11/11/11
f 12/12/12 13/13/13 14/14/14
f 15/15/15 14/14/14 13/13/13
f 14/14/14 15/15/15 16/16/16
f 17/17/17 16/16/16 15/15/15
f 16/16/16 17/17/17 18/18/18
g _1
f 19/19/19 20/20/20 21/21/21
f 22/22/22 21/21/21 20/20/20
f 23/23/23 24/24/24 25/25/25
f 26/26/26 25/25/25 24/24/24
f 27/27/27 28/28/28 29/29/29
f 30/30/30 29/29/29 28/28/28
f 31/31/31 32/32/32 33/33/33
f 34/34/34 33/33/33 32/32/32
f 35/35/35 36/36/36 37/37/37
f 38/38/38 37/37/37 36/36/36
f 39/39/39 40/40/40 41/41/41
f 42/42/42 41/41/41 40/40/40
f 43/43/43 44/44/44 45/45/45
f 46/46/46 45/45/45 44/44/44
f 47/47/47 48/48/48 49/49/49
f 50/50/50 49/49/49 48/48/48
f 53/53/53 52/52/52 51/51/51
f 52/52/52 53/53/53 54/54/54
f 57/57/57 56/56/56 55/55/55
f 56/56/56 57/57/57 58/58/58
f 61/61/61 60/60/60 59/59/59
f 60/60/60 61/61/61 62/62/62
f 65/65/65 64/64/64 63/63/63
f 64/64/64 65/65/65 66/66/66
f 69/69/69 68/68/68 67/67/67
f 68/68/68 69/69/69 70/70/70
f 73/73/73 72/72/72 71/71/71
f 72/72/72 73/73/73 74/74/74
f 77/77/77 76/76/76 75/75/75
f 76/76/76 77/77/77 78/78/78
f 81/81/81 80/80/80 79/79/79
f 80/80/80 81/81/81 82/82/82
f 51/51/51 20/20/20 19/19/19
f 20/20/20 51/51/51 52/52/52
f 49/49/49 50/50/50 81/81/81
f 82/82/82 81/81/81 50/50/50
