g 
v 48.396564 60.793472 -39.787014
v 48.396564 46.793472 -39.787014
v 47.375286 61.797104 -42.394978
v 47.375286 47.797104 -42.394978
v 47.39265 59.590004 -45.66663
v 47.39265 45.590004 -45.66663
v 43.859947 59.590004 -39.971252
v 43.859947 45.590004 -39.971252
v 38.400436 59.590004 -36.024757
v 38.400436 45.590004 -36.024757
v 32.663536 59.590004 -33.552174
v 32.663536 45.590004 -33.552174
v 31.786455 59.590004 -31.48962
v 31.786455 45.590004 -31.48962
v 29.867651 59.590004 -31.210846
v 29.867651 45.590004 -31.210846
v 28.865488 59.590004 -26.564995
v 28.865488 45.590004 -26.564995
v 23.386488 59.590004 -24.83546
v 23.386488 45.590004 -24.83546
v 22.43778 59.590004 -26.962132
v 22.43778 45.590004 -26.962132
v 21.3268 59.590004 -28.522411
v 21.3268 45.590004 -28.522411
v 16.250275 59.590004 -27.668068
v 16.250275 45.590004 -27.668068
v 12.937101 59.590004 -25.403461
v 12.937101 45.590004 -25.403461
v 13.050331 59.590004 -20.065128
v 13.050331 45.590004 -20.065128
v 14.727369 59.590004 -19.421566
v 14.727369 45.590004 -19.421566
v 15.2877655 59.590004 -11.182809
v 15.2877655 45.590004 -11.182809
v 14.298723 59.590004 -4.991954
v 14.298723 45.590004 -4.991954
v 19.321602 59.590004 -1.5897732
v 19.321602 45.590004 -1.5897732
v 24.279713 59.590004 -2.5226545
v 24.279713 45.590004 -2.5226545
v 28.083296 59.590004 0.2995453
v 28.083296 45.590004 0.2995453
v 32.12801 59.590004 0.67761135
v 32.12801 45.590004 0.67761135
v 32.55564 59.590004 -0.58043194
v 32.55564 45.590004 -0.58043194
v 30.84583 59.590004 -3.472044
v 30.84583 45.590004 -3.472044
v 32.262783 59.590004 -6.7661314
v 32.262783 45.590004 -6.7661314
v 30.894537 59.590004 -8.99145
v 30.894537 45.590004 -8.99145
v 32.65859 59.590004 -12.097159
v 32.65859 45.590004 -12.097159
v 36.641068 59.590004 -12.063312
v 36.641068 45.590004 -12.063312
v 40.954414 59.590004 -11.868812
v 40.954414 45.590004 -11.868812
v 40.559265 59.590004 -13.722238
v 40.559265 45.590004 -13.722238
v 39.44022 59.590004 -19.884972
v 39.44022 45.590004 -19.884972
v 44.519356 59.590004 -21.64127
v 44.519356 45.590004 -21.64127
v 45.70311 59.590004 -24.144161
v 45.70311 45.590004 -24.144161
v 44.004997 59.590004 -28.12511
v 44.004997 45.590004 -28.12511
v 42.92816 59.590004 -32.10638
v 42.92816 45.590004 -32.10638
v 46.22068 59.590004 -35.30882
v 46.22068 45.590004 -35.30882
v 46.78519 59.590004 -37.46162
v 46.78519 45.590004 -37.46162
v 48.396564 60.793472 -39.787014
v 48.396564 46.793472 -39.787014
vt -0.5049656 -0.5108701
vt -0.5049656 -0.5108701
vt -0.49475282 -0.53694975
vt -0.49475282 -0.53694975
vt -0.49492648 -0.56966627
vt -0.49492648 -0.56966627
vt -0.45959944 -0.5127125
vt -0.45959944 -0.5127125
vt -0.40500435 -0.47324756
vt -0.40500435 -0.47324756
vt -0.34763533 -0.44852173
vt -0.34763533 -0.44852173
vt -0.33886454 -0.42789617
vt -0.33886454 -0.42789617
vt -0.31967652 -0.42510843
vt -0.31967652 -0.42510843
vt -0.3096549 -0.37864992
vt -0.3096549 -0.37864992
vt -0.25486487 -0.3613546
vt -0.25486487 -0.3613546
vt -0.24537781 -0.3826213
vt -0.24537781 -0.3826213
vt -0.234268 -0.3982241
vt -0.234268 -0.3982241
vt -0.18350275 -0.38968065
vt -0.18350275 -0.38968065
vt -0.15037102 -0.36703458
vt -0.15037102 -0.36703458
vt -0.15150331 -0.31365126
vt -0.15150331 -0.31365126
vt -0.16827369 -0.30721563
vt -0.16827369 -0.30721563
vt -0.17387766 -0.22482808
vt -0.17387766 -0.22482808
vt -0.16398723 -0.16291954
vt -0.16398723 -0.16291954
vt -0.21421602 -0.12889773
vt -0.21421602 -0.12889773
vt -0.26379713 -0.13822654
vt -0.26379713 -0.13822654
vt -0.30183294 -0.110004544
vt -0.30183294 -0.110004544
vt -0.3422801 -0.10622389
vt -0.3422801 -0.10622389
vt -0.3465564 -0.11880432
vt -0.3465564 -0.11880432
vt -0.3294583 -0.14772044
vt -0.3294583 -0.14772044
vt -0.3436278 -0.1806613
vt -0.3436278 -0.1806613
vt -0.32994536 -0.2029145
vt -0.32994536 -0.2029145
vt -0.34758586 -0.2339716
vt -0.34758586 -0.2339716
vt -0.38741064 -0.23363312
vt -0.38741064 -0.23363312
vt -0.4305441 -0.23168811
vt -0.4305441 -0.23168811
vt -0.42659262 -0.25022238
vt -0.42659262 -0.25022238
vt -0.41540217 -0.3118497
vt -0.41540217 -0.3118497
vt -0.46619353 -0.32941267
vt -0.46619353 -0.32941267
vt -0.47803107 -0.35444158
vt -0.47803107 -0.35444158
vt -0.46104994 -0.39425108
vt -0.46104994 -0.39425108
vt -0.4502816 -0.4340638
vt -0.4502816 -0.4340638
vt -0.48320678 -0.46608818
vt -0.48320678 -0.46608818
vt -0.48885188 -0.48761618
vt -0.48885188 -0.48761618
vt -0.5049656 -0.5108701
vt -0.5049656 -0.5108701
vn 0.9311493 0 -0.36463803
vn 0.9311493 -0 -0.36463803
vn 0.99998593 0 0.0053074886
vn 0.99998593 0 0.0053074886
vn -0.8497978 0 -0.5271088
vn -0.8497978 0 -0.5271088
vn -0.58583343 0 -0.8104315
vn -0.58583343 0 -0.8104315
vn -0.3957999 0 -0.91833675
vn -0.3957999 0 -0.91833675
vn -0.92025125 0 -0.39132795
vn -0.92025125 0 -0.39132795
vn -0.14377594 0 -0.98961025
vn -0.14377594 0 -0.98961025
vn -0.977516 0 -0.21086131
vn -0.977516 0 -0.21086131
vn -0.30102432 0 -0.9536165
vn -0.30102432 0 -0.9536165
vn 0.9132496 0 -0.40740052
vn 0.9132496 -0 -0.40740052
vn 0.81459796 0 -0.580026
vn 0.81459796 -0 -0.580026
vn -0.16595916 0 -0.98613256
vn -0.16595916 0 -0.98613256
vn -0.5642932 0 -0.82557446
vn -0.5642932 0 -0.82557446
vn -0.9997752 -0 0.021205924
vn -0.9997752 0 0.021205924
vn -0.35827464 -0 0.9336163
vn -0.35827464 0 0.9336163
vn -0.9976947 -0 0.0678627
vn -0.9976947 0 0.0678627
vn -0.9874778 0 -0.15775806
vn -0.9874778 0 -0.15775806
vn -0.5608013 -0 0.8279504
vn -0.5608013 0 0.8279504
vn 0.18490806 0 0.98275584
vn 0.18490806 0 0.98275584
vn -0.5958723 -0 0.8030792
vn -0.5958723 0 0.8030792
vn -0.09306598 -0 0.99565995
vn -0.09306598 0 0.99565995
vn 0.9467964 0 0.321833
vn 0.9467964 0 0.321833
vn 0.86077905 0 -0.5089787
vn 0.86077905 -0 -0.5089787
vn 0.91861916 0 0.39514413
vn 0.91861916 0 0.39514413
vn 0.85186005 0 -0.5237695
vn 0.85186005 -0 -0.5237695
vn 0.8695234 0 0.49389172
vn 0.8695234 0 0.49389172
vn -0.008498874 -0 0.9999639
vn -0.008498874 0 0.9999639
vn -0.045046814 -0 0.9989849
vn -0.045046814 0 0.9989849
vn 0.97801954 0 -0.20851314
vn 0.97801954 -0 -0.20851314
vn 0.9839107 0 -0.17866106
vn 0.9839107 -0 -0.17866106
vn 0.32680073 0 0.9450932
vn 0.32680073 0 0.9450932
vn 0.90399283 0 0.42754754
vn 0.90399283 0 0.42754754
vn 0.9198137 0 -0.39235544
vn 0.9198137 -0 -0.39235544
vn 0.9653135 0 -0.2610936
vn 0.9653135 -0 -0.2610936
vn 0.69723266 0 0.71684486
vn 0.69723266 0 0.71684486
vn 0.96729714 0 0.2536459
vn 0.96729714 0 0.2536459
vn 0.82194626 0 0.56956494
vn 0.82194626 0 0.56956494
vn 0.82194626 0 0.56956494
vn 0.82194626 0 0.56956494
g _0
f 1/1/1 2/2/2 3/3/3
f 4/4/4 3/3/3 2/2/2
f 3/3/3 4/4/4 5/5/5
f 6/6/6 5/5/5 4/4/4
f 5/5/5 6/6/6 7/7/7
f 8/8/8 7/7/7 6/6/6
f 7/7/7 8/8/8 9/9/9
f 10/10/10 9/9/9 8/8/8
f 9/9/9 10/10/10 11/11/11
f 12/12/12 11/11/11 10/10/10
f 11/11/11 12/12/12 13/13/13
f 14/14/14 13/13/13 12/12/12
f 13/13/13 14/14/14 15/15/15
f 16/16/16 15/15/15 14/14/14
f 15/15/15 16/16/16 17/17/17
f 18/18/18 17/17/17 16/16/16
f 17/17/17 18/18/18 19/19/19
f 20/20/20 19/19/19 18/18/18
f 19/19/19 20/20/20 21/21/21
f 22/22/22 21/21/21 20/20/20
f 21/21/21 22/22/22 23/23/23
f 24/24/24 23/23/23 22/22/22
f 23/23/23 24/24/24 25/25/25
f 26/26/26 25/25/25 24/24/24
f 25/25/25 26/26/26 27/27/27
f 28/28/28 27/27/27 26/26/26
f 27/27/27 28/28/28 29/29/29
f 30/30/30 29/29/29 28/28/28
f 29/29/29 30/30/30 31/31/31
f 32/32/32 31/31/31 30/30/30
f 31/31/31 32/32/32 33/33/33
f 34/34/34 33/33/33 32/32/32
f 33/33/33 34/34/34 35/35/35
f 36/36/36 35/35/35 34/34/34
f 35/35/35 36/36/36 37/37/37
f 38/38/38 37/37/37 36/36/36
f 37/37/37 38/38/38 39/39/39
f 40/40/40 39/39/39 38/38/38
f 39/39/39 40/40/40 41/41/41
f 42/42/42 41/41/41 40/40/40
f 41/41/41 42/42/42 43/43/43
f 44/44/44 43/43/43 42/42/42
f 43/43/43 44/44/44 45/45/45
f 46/46/46 45/45/45 44/44/44
f 45/45/45 46/46/46 47/47/47
f 48/48/48 47/47/47 46/46/46
f 47/47/47 48/48/48 49/49/49
f 50/50/50 49/49/49 48/48/48
f 49/49/49 50/50/50 51/51/51
f 52/52/52 51/51/51 50/50/50
f 51/51/51 52/52/52 53/53/53
f 54/54/54 53/53/53 52/52/52
f 53/53/53 54/54/54 55/55/55
f 56/56/56 55/55/55 54/54/54
f 55/55/55 56/56/56 57/57/57
f 58/58/58 57/57/57 56/56/56
f 57/57/57 58/58/58 59/59/59
f 60/60/60 59/59/59 58/58/58
f 59/59/59 60/60/60 61/61/61
f 62/62/62 61/61/61 60/60/60
f 61/61/61 62/62/62 63/63/63
f 64/64/64 63/63/63 62/62/62
f 63/63/63 64/64/64 65/65/65
f 66/66/66 65/65/65 64/64/64
f 65/65/65 66/66/66 67/67/67
f 68/68/68 67/67/67 66/66/66
f 67/67/67 68/68/68 69/69/69
f 70/70/70 69/69/69 68/68/68
f 69/69/69 70/70/70 71/71/71
f 72/72/72 71/71/71 70/70/70
f 71/71/71 72/72/72 73/73/73
f 74/74/74 73/73/73 72/72/72
f 73/73/73 74/74/74 75/75/75
f 76/76/76 75/75/75 74/74/74
