g 
v 7.21 36.53356 -33.64
v 7.21 22.533562 -33.64
v 8.62 36.465965 -37.31
v 8.62 22.465967 -37.31
v 7.36 36.513214 -39.03
v 7.36 22.513214 -39.03
v 5.27 36.583588 -37.92
v 5.27 22.583586 -37.92
v 3.01 36.583588 -37.47
v 3.01 22.583586 -37.47
v 2.56 36.583588 -36.41
v 2.56 22.583586 -36.41
v 5.49 36.583588 -33.47
v 5.49 22.583586 -33.47
v 7.21 36.53356 -33.64
v 7.21 22.533562 -33.64
vt -0.45989996 -0.89849997
vt -0.45989996 -0.89849997
vt -0.47399998 -0.93520004
vt -0.47399998 -0.93520004
vt -0.46139997 -0.95239997
vt -0.46139997 -0.95239997
vt -0.4405 -0.9413
vt -0.4405 -0.9413
vt -0.41789997 -0.9368
vt -0.41789997 -0.9368
vt -0.4134 -0.9261999
vt -0.4134 -0.9261999
vt -0.44269997 -0.8968
vt -0.44269997 -0.8968
vt -0.45989996 -0.89849997
vt -0.45989996 -0.89849997
vn 0.93347675 0 0.35863796
vn 0.93347675 0 0.358638
vn 0.80670273 0 -0.5909574
vn 0.80670273 -0 -0.5909574
vn -0.46905237 0 -0.8831703
vn -0.4690524 0 -0.8831703
vn -0.19528025 0 -0.9807475
vn -0.19528025 0 -0.9807475
vn -0.92048734 0 -0.39077246
vn -0.92048734 0 -0.39077246
vn -0.7083102 -0 0.7059013
vn -0.7083102 0 0.7059013
vn 0.09835689 0 0.99515116
vn 0.09835689 0 0.99515116
vn 0.09835689 0 0.99515116
vn 0.09835689 0 0.99515116
g _0
f 1/1/1 2/2/2 3/3/3
f 4/4/4 3/3/3 2/2/2
f 3/3/3 4/4/4 5/5/5
f 6/6/6 5/5/5 4/4/4
f 5/5/5 6/6/6 7/7/7
f 8/8/8 7/7/7 6/6/6
f 7/7/7 8/8/8 9/9/9
f 10/10/10 9/9/9 8/8/8
f 9/9/9 10/10/10 11/11/11
f 12/12/12 11/11/11 10/10/10
f 11/11/11 12/12/12 13/13/13
f 14/14/14 13/13/13 12/12/12
f 13/13/13 14/14/14 15/15/15
f 16/16/16 15/15/15 14/14/14
