g 
v 10.367563 0 -51.71493
v 7.78021 0 -47.968098
v 10.530256 0 -53.745564
v 5.9388704 0 -47.096645
v 10.347283 0 -55.81993
v 3.9341865 0 -46.532963
v 8.18714 0 -58.339443
v 0.8128588 0 -47.660557
v 6.1587667 0 -59.264034
v -0.59749174 0 -49.11057
v 4.4630284 0 -60.199406
v -2.842243 0 -50.710827
v 3.2687728 0 -60.6578
v -4.9768925 0 -53.313522
v 2.1253796 0 -61.667835
v -6.4798417 0 -55.951008
v 2.0138452 0 -62.008617
v -7.822016 0 -58.13428
v 2.0243964 0 -61.680233
v -8.416689 0 -61.112095
v 2.0872138 0 -62.34132
v -8.200342 0 -63.40603
v 2.40598 0 -63.851208
v -8.184587 0 -64.87074
v 2.2720766 0 -64.89796
v -8.072077 0 -64.10204
v 1.5207977 0 -67.43474
v -7.71772 0 -66.72389
v 0.21078444 0 -68.408646
v -6.572117 0 -67.88675
v -1.452228 0 -69.10535
v -5.035261 0 -68.82965
vt -0.08651851 -0.11745907
vt -0.08747041 -0.12191183
vt -0.08714732 -0.11552141
vt -0.08883651 -0.123423025
vt -0.088112116 -0.11367597
vt -0.090471536 -0.12471267
vt -0.09107357 -0.11217799
vt -0.09378663 -0.124868855
vt -0.09330145 -0.11210233
vt -0.09564535 -0.124070875
vt -0.09522629 -0.1118891
vt -0.09833226 -0.123454265
vt -0.096505016 -0.11192396
vt -0.10130209 -0.1218697
vt -0.09794842 -0.11142988
vt -0.103701904 -0.12001064
vt -0.09818216 -0.11115796
vt -0.105778985 -0.11850935
vt -0.09804643 -0.11145718
vt -0.10747059 -0.11598755
vt -0.098242044 -0.110822566
vt -0.10815086 -0.113786146
vt -0.09852694 -0.109305926
vt -0.10869825 -0.11242747
vt -0.09905218 -0.108390644
vt -0.108299434 -0.11309418
vt -0.100719206 -0.106336206
vt -0.10897806 -0.110537015
vt -0.10230261 -0.10593941
vt -0.10836625 -0.10902362
vt -0.10410566 -0.10593404
vt -0.107308745 -0.107563265
vn -0 1 0
vn -0 1 0
vn -0 1 0
vn -0 1 0
vn -0 1 0
vn -0 1 0
vn -0 1 0
vn -0 1 0
vn -0 1 0
vn -0 1 0
vn -0 1 0
vn -0 1 0
vn -0 1 0
vn -0 1 0
vn -0 1 0
vn -0 1 0
vn -0 1 0
vn -0 1 0
vn -0 1 0
vn 0 1 0
vn -0 1 0
vn 0 1 0
vn -0 1 0
vn -0 1 0
vn -0 1 0
vn -0 1 0
vn -0 1 0
vn -0 1 0
vn -0 1 0
vn -0 1 0
vn -0 1 0
vn -0 1 0
g _0
f 3/3/3 2/2/2 1/1/1
f 2/2/2 3/3/3 4/4/4
f 5/5/5 4/4/4 3/3/3
f 4/4/4 5/5/5 6/6/6
f 7/7/7 6/6/6 5/5/5
f 6/6/6 7/7/7 8/8/8
f 9/9/9 8/8/8 7/7/7
f 8/8/8 9/9/9 10/10/10
f 11/11/11 10/10/10 9/9/9
f 10/10/10 11/11/11 12/12/12
f 13/13/13 12/12/12 11/11/11
f 12/12/12 13/13/13 14/14/14
f 15/15/15 14/14/14 13/13/13
f 14/14/14 15/15/15 16/16/16
f 17/17/17 16/16/16 15/15/15
f 16/16/16 17/17/17 18/18/18
f 18/18/18 19/19/19 20/20/20
f 21/21/21 20/20/20 19/19/19
f 20/20/20 21/21/21 22/22/22
f 23/23/23 22/22/22 21/21/21
f 22/22/22 23/23/23 24/24/24
f 25/25/25 24/24/24 23/23/23
f 27/27/27 26/26/26 25/25/25
f 26/26/26 27/27/27 28/28/28
f 29/29/29 28/28/28 27/27/27
f 28/28/28 29/29/29 30/30/30
f 31/31/31 30/30/30 29/29/29
f 30/30/30 31/31/31 32/32/32
