g 
v -18.74505 108.41657 -151.47612
v -18.74505 94.41657 -151.47612
v -17.239336 108.41657 -147.46318
v -17.239336 94.41657 -147.46318
v -19.266382 108.41657 -146.01859
v -19.266382 94.41657 -146.01859
v -23.738886 108.41657 -146.86642
v -23.738886 94.41657 -146.86642
v -25.17734 108.41657 -148.0581
v -25.17734 94.41657 -148.0581
v -24.964334 108.41657 -150.02184
v -24.964334 94.41657 -150.02184
v -23.074137 108.41657 -150.77248
v -23.074137 94.41657 -150.77248
v -21.610788 108.41657 -152.98387
v -21.610788 94.41657 -152.98387
v -19.436739 108.41657 -152.6175
v -19.436739 94.41657 -152.6175
v -18.74505 108.41657 -151.47612
v -18.74505 94.41657 -151.47612
vt 1.0150055 -1.0272052
vt 1.0150055 -1.0272052
vt 0.9999483 -0.9870758
vt 0.9999483 -0.9870758
vt 1.0202187 -0.97262985
vt 1.0202187 -0.97262985
vt 1.0649438 -0.98110825
vt 1.0649438 -0.98110825
vt 1.0793284 -0.993025
vt 1.0793284 -0.993025
vt 1.0771983 -1.0126623
vt 1.0771983 -1.0126623
vt 1.0582963 -1.0201688
vt 1.0582963 -1.0201688
vt 1.0436629 -1.0422827
vt 1.0436629 -1.0422827
vt 1.0219223 -1.0386189
vt 1.0219223 -1.0386189
vt 1.0150055 -1.0272052
vt 1.0150055 -1.0272052
vn 0.936263 0 -0.35129976
vn 0.936263 -0 -0.35129976
vn 0.58036137 0 0.81435907
vn 0.58036137 0 0.81435907
vn -0.18625008 -0 0.98250234
vn -0.18625008 0 0.98250234
vn -0.6379605 -0 0.77006906
vn -0.6379605 0 0.77006906
vn -0.9941686 0 -0.1078371
vn -0.9941686 0 -0.1078371
vn -0.36908442 0 -0.9293959
vn -0.36908442 0 -0.9293959
vn -0.83394516 0 -0.5518472
vn -0.83394516 0 -0.5518472
vn 0.16618042 0 -0.98609537
vn 0.16618042 -0 -0.98609537
vn 0.8552153 0 -0.518273
vn 0.8552153 -0 -0.518273
vn 0.8552153 -0 -0.518273
vn 0.8552153 -0 -0.518273
g _0
f 3/3/3 2/2/2 1/1/1
f 2/2/2 3/3/3 4/4/4
f 5/5/5 4/4/4 3/3/3
f 4/4/4 5/5/5 6/6/6
f 7/7/7 6/6/6 5/5/5
f 6/6/6 7/7/7 8/8/8
f 9/9/9 8/8/8 7/7/7
f 8/8/8 9/9/9 10/10/10
f 11/11/11 10/10/10 9/9/9
f 10/10/10 11/11/11 12/12/12
f 13/13/13 12/12/12 11/11/11
f 12/12/12 13/13/13 14/14/14
f 15/15/15 14/14/14 13/13/13
f 14/14/14 15/15/15 16/16/16
f 17/17/17 16/16/16 15/15/15
f 16/16/16 17/17/17 18/18/18
f 19/19/19 18/18/18 17/17/17
f 18/18/18 19/19/19 20/20/20
