g 
v -125.1827 16.2 40.906822
v -125.417305 16.2 32.093178
v -124.361046 16.2 40.88492
v -124.561104 16.2 32.07042
v -123.46051 16.2 40.867653
v -123.596436 16.2 32.051933
v -122.55836 16.2 40.857132
v -122.632454 16.2 32.040672
v -121.65161 16.2 40.852478
v -121.67224 16.2 32.035736
v -120.7405 16.2 40.8529
v -120.71569 16.2 32.036167
v -119.82525 16.2 40.85764
v -119.76269 16.2 32.04109
v -118.90607 16.2 40.865936
v -118.813126 16.2 32.049652
v -117.983185 16.2 40.877068
v -117.86688 16.2 32.061066
v -117.05683 16.2 40.890335
v -116.923836 16.2 32.07457
v -116.127205 16.2 40.90507
v -115.983864 16.2 32.089466
v -115.194176 16.2 40.920624
v -115.04719 16.2 32.10508
v -114.25799 16.2 40.936237
v -114.113686 16.2 32.120647
v -113.31922 16.2 40.951313
v -113.18282 16.2 32.1356
v -112.3781 16.2 40.96532
v -112.25447 16.2 32.149418
v -111.43477 16.2 40.977737
v -111.32854 16.2 32.161606
v -110.48945 16.2 40.988075
v -110.404884 16.2 32.171707
v -109.542336 16.2 40.995884
v -109.483345 16.2 32.17931
v -108.593605 16.2 41.00075
v -108.56382 16.2 32.184032
v -107.64343 16.2 41.002293
v -107.646194 16.2 32.18552
v -106.692024 16.2 41.000153
v -106.730286 16.2 32.183464
v -105.73839 16.2 40.994015
v -105.81711 16.2 32.177593
v -104.7838 16.2 40.98311
v -104.90553 16.2 32.167175
v -103.82959 16.2 40.967655
v -103.99417 16.2 32.152424
v -102.87493 16.2 40.947464
v -103.08387 16.2 32.13317
v -101.91998 16.2 40.922386
v -102.17449 16.2 32.10929
v -100.96493 16.2 40.892303
v -101.26589 16.2 32.080673
v -100.00992 16.2 40.857143
v -100.35788 16.2 32.047245
v -99.05515 16.2 40.81687
v -99.450325 16.2 32.008965
v -98.10078 16.2 40.771492
v -98.54304 16.2 31.96582
v -97.14696 16.2 40.72104
v -97.635864 16.2 31.917833
v -96.19386 16.2 40.66559
v -96.72864 16.2 31.865051
v -95.24048 16.2 40.605183
v -95.82234 16.2 31.807634
v -94.288284 16.2 40.53956
v -94.91553 16.2 31.74513
v -93.33861 16.2 40.469547
v -94.006805 16.2 31.678135
v -92.39032 16.2 40.39531
v -93.09726 16.2 31.606926
v -91.44358 16.2 40.317116
v -92.1867 16.2 31.531721
v -90.498535 16.2 40.235294
v -91.27493 16.2 31.452778
v -89.55533 16.2 40.150196
v -90.361786 16.2 31.370388
v -88.61409 16.2 40.06221
v -89.44708 16.2 31.284876
v -87.674934 16.2 39.97175
v -88.53063 16.2 31.196602
v -86.73802 16.2 39.879272
v -87.61224 16.2 31.10595
v -85.803474 16.2 39.78527
v -86.69172 16.2 31.01336
v -84.87142 16.2 39.69026
v -85.76887 16.2 30.919287
v -83.9418 16.2 39.594788
v -84.84369 16.2 30.824265
v -83.11932 16.200617 39.509533
v -84.04419 16.200617 30.742498
v -82.28457 16.20256 39.41754
v -83.284096 16.20256 30.662155
v -81.423256 16.20572 39.31104
v -82.55413 16.20572 30.57726
v -80.528725 16.209944 39.18292
v -81.862816 16.209944 30.485395
v -79.43788 16.21635 38.99639
v -81.0208 16.21635 30.35218
v -78.31511 16.224018 38.76431
v -80.18434 16.224018 30.191286
v -77.29384 16.231642 38.51498
v -79.45459 16.231642 30.024622
v -76.38165 16.238834 38.258965
v -78.82088 16.238834 29.85758
v -75.489975 16.246254 37.978336
v -78.176346 16.246254 29.666424
v -74.61361 16.253746 37.67403
v -77.52578 16.253746 29.452526
v -73.756386 16.261166 37.350735
v -76.86454 16.261166 29.215305
v -72.92158 16.268358 37.014256
v -76.18824 16.268358 28.954845
v -72.11198 16.275177 36.671337
v -75.492546 16.275177 28.672085
v -71.33011 16.281471 36.32949
v -74.7731 16.281471 28.36899
v -70.57853 16.28709 35.996834
v -74.02513 16.28709 28.04869
v -69.86011 16.291883 35.681904
v -73.243195 16.291883 27.715704
v -69.17829 16.295702 35.393364
v -72.42089 16.295702 27.376213
v -68.53742 16.298397 35.139576
v -71.55059 16.298397 27.038473
v -67.93142 16.299814 34.92426
v -70.63474 16.299814 26.717196
v -67.209526 16.241707 34.702847
v -69.73049 16.241707 26.438286
v -66.5333 15.840234 34.498722
v -69.04311 15.840234 26.230764
v -66.043846 15.097698 34.348938
v -68.5962 15.097698 26.094015
v -65.739426 14.31749 34.25303
v -68.38519 14.31749 26.02757
v -65.49341 13.464666 34.1713
v -68.30066 13.464666 25.999542
v -65.25272 12.5336 34.084564
v -68.30955 12.5336 26.002853
v -65.02662 11.5902605 33.993847
v -68.375984 11.5902605 26.028925
v -64.87455 10.789634 33.927307
v -68.41378 10.789634 26.044914
v -64.825836 9.952726 33.90503
v -68.33844 9.952726 26.010736
v -64.824356 8.985546 33.903778
v -68.15648 8.985546 25.931623
v -64.796936 8.0835705 33.892563
v -67.919556 8.0835705 25.83604
v -64.7041 7.271875 33.857456
v -67.63553 7.271875 25.72942
v -64.44601 6.468372 33.76651
v -67.22822 6.468372 25.586193
v -63.956043 5.8569117 33.603374
v -66.62648 5.8569117 25.385891
v -63.217335 5.606576 33.367496
v -65.82034 5.606576 25.128407
v -62.636856 5.6031933 33.186653
v -65.18567 5.6031933 24.930637
v -62.083084 5.6128407 33.017357
v -64.5851 5.6128407 24.747034
v -61.52843 5.626917 32.851322
v -63.98344 5.626917 24.566929
v -60.969456 5.643314 32.68736
v -63.384197 5.643314 24.391138
v -60.402126 5.6599216 32.523525
v -62.79182 5.6599216 24.220057
v -59.822556 5.674631 32.357307
v -62.210983 5.674631 24.053474
v -59.22708 5.685333 32.18552
v -61.646526 5.685333 23.890669
v -58.626415 5.689917 32.00839
v -61.089222 5.689917 23.726307
v -57.9567 5.4625454 31.807812
v -60.425297 5.4625454 23.527454
v -57.563313 4.7754736 31.691437
v -60.01191 4.7754736 23.405144
v -57.388718 4.0272727 31.639982
v -59.84723 4.0272727 23.356627
v -57.256638 3.278371 31.60013
v -59.808628 3.278371 23.345095
v -57.111134 2.4850001 31.553411
v -59.840115 2.4850001 23.355185
v -57.010246 1.6916288 31.5189
v -59.82773 1.6916288 23.350664
v -56.95097 0.94272715 31.498348
v -59.71841 0.94272715 23.313023
v -56.827187 0.19452675 31.45683
v -59.50666 0.19452675 23.24229
v -56.459705 -0.4925452 31.33822
v -59.073406 -0.4925452 23.102514
v -55.866314 -0.72 31.152008
v -58.453686 -0.72 22.907993
vt 0 -0.0044083856
vt 0 0.0044083856
vt 0 -0.0044083856
vt 0 0.0044083856
vt 0.0008392254 -0.0044083856
vt 0.0008392254 0.0044083856
vt 0.0017719987 -0.0044083856
vt 0.0017719987 0.0044083856
vt 0.0027051298 -0.0044083856
vt 0.0027051298 0.0044083856
vt 0.0036386214 -0.0044083856
vt 0.0036386214 0.0044083856
vt 0.0045724516 -0.0044083856
vt 0.0045724516 0.0044083856
vt 0.005506592 -0.0044083856
vt 0.005506592 0.0044083856
vt 0.0064410022 -0.0044083856
vt 0.0064410022 0.0044083856
vt 0.0073756333 -0.0044083856
vt 0.0073756333 0.0044083856
vt 0.008310429 -0.0044083856
vt 0.008310429 0.0044083856
vt 0.009245345 -0.0044083856
vt 0.009245345 0.0044083856
vt 0.010180328 -0.0044083856
vt 0.010180328 0.0044083856
vt 0.011115302 -0.0044083856
vt 0.011115302 0.0044083856
vt 0.0120502375 -0.0044083856
vt 0.0120502375 0.0044083856
vt 0.01298508 -0.0044083856
vt 0.01298508 0.0044083856
vt 0.013919792 -0.0044083856
vt 0.013919792 0.0044083856
vt 0.014854334 -0.0044083856
vt 0.014854334 0.0044083856
vt 0.015788693 -0.0044083856
vt 0.015788693 0.0044083856
vt 0.016722832 -0.0044083856
vt 0.016722832 0.0044083856
vt 0.017656734 -0.0044083856
vt 0.017656734 0.0044083856
vt 0.01859039 -0.0044083856
vt 0.01859039 0.0044083856
vt 0.01952382 -0.0044083856
vt 0.01952382 0.0044083856
vt 0.020456964 -0.0044083856
vt 0.020456964 0.0044083856
vt 0.02138987 -0.0044083856
vt 0.02138987 0.0044083856
vt 0.022322558 -0.0044083856
vt 0.022322558 0.0044083856
vt 0.023255039 -0.0044083856
vt 0.023255039 0.0044083856
vt 0.024187332 -0.0044083856
vt 0.024187332 0.0044083856
vt 0.025119474 -0.0044083856
vt 0.025119474 0.0044083856
vt 0.026051462 -0.0044083856
vt 0.026051462 0.0044083856
vt 0.026983345 -0.0044083856
vt 0.026983345 0.0044083856
vt 0.02791514 -0.0044083856
vt 0.02791514 0.0044083856
vt 0.028846875 -0.0044083856
vt 0.028846875 0.0044083856
vt 0.02977858 -0.0044083856
vt 0.02977858 0.0044083856
vt 0.03071029 -0.0044083856
vt 0.03071029 0.0044083856
vt 0.03164201 -0.0044083856
vt 0.03164201 0.0044083856
vt 0.03257377 -0.0044083856
vt 0.03257377 0.0044083856
vt 0.03350558 -0.0044083856
vt 0.03350558 0.0044083856
vt 0.034437463 -0.0044083856
vt 0.034437463 0.0044083856
vt 0.03536941 -0.0044083856
vt 0.03536941 0.0044083856
vt 0.036301427 -0.0044083856
vt 0.036301427 0.0044083856
vt 0.037233528 -0.0044083856
vt 0.037233528 0.0044083856
vt 0.038165685 -0.0044083856
vt 0.038165685 0.0044083856
vt 0.0390979 -0.0044083856
vt 0.0390979 0.0044083856
vt 0.04003016 -0.0044083856
vt 0.04003016 0.0044083856
vt 0.04096244 -0.0044078417
vt 0.04096244 0.0044078417
vt 0.041777715 -0.0044061285
vt 0.041777715 0.0044061285
vt 0.04257978 -0.004403345
vt 0.04257978 0.004403345
vt 0.043381162 -0.0043996223
vt 0.043381162 0.0043996223
vt 0.04418169 -0.0043939743
vt 0.04418169 0.0043939743
vt 0.045161273 -0.0043872185
vt 0.045161273 0.0043872185
vt 0.046160426 -0.004380499
vt 0.046160426 0.004380499
vt 0.047060337 -0.004374159
vt 0.047060337 0.004374159
vt 0.04786174 -0.0043676207
vt 0.04786174 0.0043676207
vt 0.048665285 -0.004361016
vt 0.048665285 0.004361016
vt 0.049471557 -0.0043544774
vt 0.049471557 0.0043544774
vt 0.0502809 -0.0043481374
vt 0.0502809 0.0043481374
vt 0.0510933 -0.004342128
vt 0.0510933 0.004342128
vt 0.0519084 -0.004336581
vt 0.0519084 0.004336581
vt 0.052725412 -0.004331629
vt 0.052725412 0.004331629
vt 0.0535432 -0.004327404
vt 0.0535432 0.004327404
vt 0.054360356 -0.004324038
vt 0.054360356 0.004324038
vt 0.055175353 -0.004321664
vt 0.055175353 0.004321664
vt 0.055986766 -0.004320414
vt 0.055986766 0.004320414
vt 0.056793608 -0.0043202513
vt 0.056793608 0.0043202513
vt 0.05764628 -0.0043202513
vt 0.05764628 0.0043202513
vt 0.05846383 -0.0043202513
vt 0.05846383 0.0043202513
vt 0.05935326 -0.0043202513
vt 0.05935326 0.0043202513
vt 0.060178928 -0.0043202513
vt 0.060178928 0.0043202513
vt 0.06104935 -0.0043202513
vt 0.06104935 0.0043202513
vt 0.06198853 -0.0043202513
vt 0.06198853 0.0043202513
vt 0.06293579 -0.0043202513
vt 0.06293579 0.0043202513
vt 0.06373885 -0.0043202513
vt 0.06373885 0.0043202513
vt 0.06457853 -0.0043202513
vt 0.06457853 0.0043202513
vt 0.065550886 -0.0043202513
vt 0.065550886 0.0043202513
vt 0.06646405 -0.0043202513
vt 0.06646405 0.0043202513
vt 0.06730034 -0.0043202513
vt 0.06730034 0.0043202513
vt 0.06817785 -0.0043202513
vt 0.06817785 0.0043202513
vt 0.06901741 -0.0043202513
vt 0.06901741 0.0043202513
vt 0.06986603 -0.0043202513
vt 0.06986603 0.0043202513
vt 0.07050242 -0.0043202513
vt 0.07050242 0.0043202513
vt 0.07110604 -0.0043202513
vt 0.07110604 0.0043202513
vt 0.07170971 -0.0043202513
vt 0.07170971 0.0043202513
vt 0.07231344 -0.0043202513
vt 0.07231344 0.0043202513
vt 0.072917216 -0.0043202513
vt 0.072917216 0.0043202513
vt 0.073520996 -0.0043202513
vt 0.073520996 0.0043202513
vt 0.0741247 -0.0043202513
vt 0.0741247 0.0043202513
vt 0.074728355 -0.0043202513
vt 0.074728355 0.0043202513
vt 0.07546063 -0.0043202513
vt 0.07546063 0.0043202513
vt 0.07626625 -0.0043202513
vt 0.07626625 0.0043202513
vt 0.07703507 -0.0043202513
vt 0.07703507 0.0043202513
vt 0.077789254 -0.0043202513
vt 0.077789254 0.0043202513
vt 0.07858488 -0.0043202513
vt 0.07858488 0.0043202513
vt 0.07938051 -0.0043202513
vt 0.07938051 0.0043202513
vt 0.080134705 -0.0043202513
vt 0.080134705 0.0043202513
vt 0.08090354 -0.0043202513
vt 0.08090354 0.0043202513
vt 0.08170918 -0.0043202513
vt 0.08170918 0.0043202513
vn -0 1 0
vn -0 1 0
vn -0 1 0
vn -0 1 0
vn -0 1 0
vn -0 1 0
vn -0 1 0
vn -0 1 0
vn -0 1 0
vn -0 1 0
vn -0 1 -0
vn -0 1 0
vn -0 1 -0
vn -0 1 0
vn -0 1 -0
vn -0 1 0
vn -0 1 -0
vn -0 1 0
vn -0 1 -0
vn -0 1 0
vn -0 1 -0
vn -0 1 0
vn -0 1 -0
vn -0 1 0
vn -0 1 -0
vn -0 1 0
vn -0 1 -0
vn -0 1 0
vn -0 1 -0
vn -0 1 0
vn -0 1 -0
vn -0 1 0
vn -0 1 -0
vn -0 1 0
vn -0 1 -0
vn -0 1 0
vn -0 1 -0
vn -0 1 0
vn -0 1 0
vn -0 1 0
vn -0 1 0
vn -0 1 0
vn -0 1 0
vn -0 1 0
vn -0 1 0
vn -0 1 0
vn -0 1 0
vn -0 1 0
vn -0 1 0
vn -0 1 0
vn -0 1 0
vn -0 1 0
vn -0 1 0
vn -0 1 0
vn -0 1 0
vn -0 1 0
vn -0 1 0
vn -0 1 0
vn -0 1 0
vn -0 1 0
vn -0 1 0
vn -0 1 0
vn -0 1 0
vn -0 1 0
vn -0 1 0
vn -0 1 0
vn -0 1 0
vn -0 1 0
vn -0 1 0
vn -0 1 0
vn -0 1 0
vn -0 1 0
vn -0 1 0
vn -0 1 0
vn -0 1 0
vn -0 1 0
vn -0 1 0
vn -0 1 0
vn -0 1 0
vn -0 1 0
vn -0 1 0
vn -0 1 0
vn -0 1 0
vn -0 1 0
vn -0 1 0
vn -0 1 0
vn -0 1 0
vn -0 1 0
vn -0.0007411444 0.99999976 7.6212986E-05
vn -0.0007623489 0.9999997 8.04229E-05
vn -0.0023015705 0.9999973 0.00024280087
vn -0.0025265415 0.9999967 0.00028843348
vn -0.0036182706 0.9999934 0.00041306677
vn -0.004265354 0.9999907 0.0005522902
vn -0.004634758 0.9999891 0.0006001216
vn -0.005986334 0.99998164 0.0009182287
vn -0.005723037 0.99998325 0.0008778422
vn -0.0073944046 0.99997175 0.0013540534
vn -0.006579904 0.99997765 0.0012049032
vn -0.008797365 0.99995947 0.0019181471
vn -0.007087425 0.9999737 0.0015453176
vn -0.009872579 0.99994814 0.0025125195
vn -0.00735916 0.99997115 0.0018728673
vn -0.010542455 0.9999398 0.0030608538
vn -0.007624025 0.9999685 0.0022135288
vn -0.0105040455 0.9999391 0.0033948577
vn -0.007686159 0.9999674 0.0024841302
vn -0.01031432 0.9999401 0.0036534749
vn -0.0076351166 0.99996716 0.0027044637
vn -0.009867623 0.9999442 0.003769942
vn -0.007465928 0.99996805 0.00285237
vn -0.009198785 0.99995077 0.0037284773
vn -0.0071880803 0.99996996 0.0029134927
vn -0.008364279 0.99995875 0.0035348337
vn -0.0067945966 0.99997276 0.002871469
vn -0.0074000955 0.99996746 0.0032006123
vn -0.0062749195 0.99997663 0.0027139632
vn -0.006335713 0.9999761 0.0027473941
vn -0.0056060245 0.99998134 0.0024309747
vn -0.005190982 0.99998415 0.0022045074
vn -0.0047472436 0.9999867 0.0020160603
vn -0.003979182 0.99999076 0.0016094112
vn -0.0036247561 0.9999923 0.0014660609
vn -0.0027061102 0.9999959 0.0010065254
vn -0.0020655585 0.9999976 0.00076827506
vn -0.0013870955 0.999999 0.00045689518
vn 0.072891586 0.9970508 -0.024009747
vn 0.058623772 0.99811995 -0.017882198
vn 0.47263438 0.869386 -0.1441692
vn 0.46698934 0.8728261 -0.14175873
vn 0.7878346 0.567558 -0.23915413
vn 0.8085467 0.5326858 -0.24999589
vn 0.8842486 0.37862328 -0.27340224
vn 0.91586304 0.2727819 -0.29459277
vn 0.9108182 0.29082415 -0.29297006
vn 0.9406358 0.10385794 -0.32313746
vn 0.91195667 0.2649291 -0.3132853
vn 0.91195667 0.2649291 -0.3132853
vn 0.90562695 0.25000677 -0.34254405
vn 0.90562695 0.25000677 -0.34254405
vn 0.9026218 0.20298731 -0.37956557
vn 0.9026218 0.20298731 -0.37956557
vn 0.91039824 0.063872576 -0.40877298
vn 0.90920717 0.098370194 -0.40455613
vn 0.91363674 0.0019240789 -0.40652707
vn 0.9038299 0.20094357 -0.3777739
vn 0.92215216 0.03282589 -0.3854321
vn 0.89712775 0.2724976 -0.34771687
vn 0.9255207 0.12136786 -0.35872167
vn 0.88116354 0.3500797 -0.31779712
vn 0.89046764 0.32237923 -0.32115272
vn 0.8339761 0.47331816 -0.28364396
vn 0.7233072 0.64521974 -0.24600433
vn 0.6601109 0.71988636 -0.21451633
vn 0.29217625 0.95163953 -0.09494856
vn 0.27048656 0.9589235 -0.08545588
vn 0.0053051445 0.9999845 -0.0016760753
vn 0.0048620016 0.99998707 -0.0015010064
vn -0.01591656 0.99986124 0.0049137906
vn -0.01470202 0.999882 0.0044477903
vn -0.023264106 0.9997046 0.0070380718
vn -0.021484036 0.99974895 0.0063666115
vn -0.026977403 0.99960405 0.007994524
vn -0.025201578 0.9996555 0.007335303
vn -0.026993128 0.99960476 0.007856761
vn -0.025875004 0.9996375 0.0074466886
vn -0.023437876 0.9997025 0.0067452965
vn -0.023387814 0.9997038 0.0067270263
vn -0.016592192 0.999851 0.0047724047
vn -0.017485062 0.9998341 0.005100049
vn -0.007027389 0.99997324 0.002049751
vn -0.00756239 0.9999688 0.0022487952
vn 0.29645622 0.9509691 -0.0881559
vn 0.298728 0.95017374 -0.08905886
vn 0.82280886 0.5126526 -0.24530149
vn 0.8123403 0.5314894 -0.2400463
vn 0.9318281 0.23638126 -0.2753549
vn 0.93438417 0.22364306 -0.2773265
vn 0.9428023 0.18116802 -0.279825
vn 0.95400923 0.05371422 -0.29492575
vn 0.938145 0.18913376 -0.29002142
vn 0.938145 0.18913376 -0.29002142
vn 0.9403597 0.13319516 -0.31302184
vn 0.94521224 0.016614554 -0.3260335
vn 0.9420428 0.083481126 -0.3249403
vn 0.93622965 0.15257208 -0.3165372
vn 0.93321884 0.17190157 -0.31551924
vn 0.9110132 0.28592053 -0.29716045
vn 0.82877934 0.4899416 -0.27033687
vn 0.7945663 0.55233794 -0.2521652
vn 0.3273876 0.9391603 -0.10390041
vn 0.31533813 0.9438046 -0.09896842
vn 0.31533813 0.9438046 -0.09896842
vn 0.31533813 0.9438046 -0.09896842
g _0
f 3/3/3 2/2/2 1/1/1
f 2/2/2 3/3/3 4/4/4
f 5/5/5 4/4/4 3/3/3
f 4/4/4 5/5/5 6/6/6
f 7/7/7 6/6/6 5/5/5
f 6/6/6 7/7/7 8/8/8
f 9/9/9 8/8/8 7/7/7
f 8/8/8 9/9/9 10/10/10
f 11/11/11 10/10/10 9/9/9
f 10/10/10 11/11/11 12/12/12
f 13/13/13 12/12/12 11/11/11
f 12/12/12 13/13/13 14/14/14
f 15/15/15 14/14/14 13/13/13
f 14/14/14 15/15/15 16/16/16
f 17/17/17 16/16/16 15/15/15
f 16/16/16 17/17/17 18/18/18
f 19/19/19 18/18/18 17/17/17
f 18/18/18 19/19/19 20/20/20
f 21/21/21 20/20/20 19/19/19
f 20/20/20 21/21/21 22/22/22
f 23/23/23 22/22/22 21/21/21
f 22/22/22 23/23/23 24/24/24
f 25/25/25 24/24/24 23/23/23
f 24/24/24 25/25/25 26/26/26
f 27/27/27 26/26/26 25/25/25
f 26/26/26 27/27/27 28/28/28
f 29/29/29 28/28/28 27/27/27
f 28/28/28 29/29/29 30/30/30
f 31/31/31 30/30/30 29/29/29
f 30/30/30 31/31/31 32/32/32
f 33/33/33 32/32/32 31/31/31
f 32/32/32 33/33/33 34/34/34
f 35/35/35 34/34/34 33/33/33
f 34/34/34 35/35/35 36/36/36
f 37/37/37 36/36/36 35/35/35
f 36/36/36 37/37/37 38/38/38
f 39/39/39 38/38/38 37/37/37
f 38/38/38 39/39/39 40/40/40
f 41/41/41 40/40/40 39/39/39
f 40/40/40 41/41/41 42/42/42
f 43/43/43 42/42/42 41/41/41
f 42/42/42 43/43/43 44/44/44
f 45/45/45 44/44/44 43/43/43
f 44/44/44 45/45/45 46/46/46
f 47/47/47 46/46/46 45/45/45
f 46/46/46 47/47/47 48/48/48
f 49/49/49 48/48/48 47/47/47
f 48/48/48 49/49/49 50/50/50
f 51/51/51 50/50/50 49/49/49
f 50/50/50 51/51/51 52/52/52
f 53/53/53 52/52/52 51/51/51
f 52/52/52 53/53/53 54/54/54
f 55/55/55 54/54/54 53/53/53
f 54/54/54 55/55/55 56/56/56
f 57/57/57 56/56/56 55/55/55
f 56/56/56 57/57/57 58/58/58
f 59/59/59 58/58/58 57/57/57
f 58/58/58 59/59/59 60/60/60
f 61/61/61 60/60/60 59/59/59
f 60/60/60 61/61/61 62/62/62
f 63/63/63 62/62/62 61/61/61
f 62/62/62 63/63/63 64/64/64
f 65/65/65 64/64/64 63/63/63
f 64/64/64 65/65/65 66/66/66
f 67/67/67 66/66/66 65/65/65
f 66/66/66 67/67/67 68/68/68
f 69/69/69 68/68/68 67/67/67
f 68/68/68 69/69/69 70/70/70
f 71/71/71 70/70/70 69/69/69
f 70/70/70 71/71/71 72/72/72
f 73/73/73 72/72/72 71/71/71
f 72/72/72 73/73/73 74/74/74
f 75/75/75 74/74/74 73/73/73
f 74/74/74 75/75/75 76/76/76
f 77/77/77 76/76/76 75/75/75
f 76/76/76 77/77/77 78/78/78
f 79/79/79 78/78/78 77/77/77
f 78/78/78 79/79/79 80/80/80
f 81/81/81 80/80/80 79/79/79
f 80/80/80 81/81/81 82/82/82
f 83/83/83 82/82/82 81/81/81
f 82/82/82 83/83/83 84/84/84
f 85/85/85 84/84/84 83/83/83
f 84/84/84 85/85/85 86/86/86
f 87/87/87 86/86/86 85/85/85
f 86/86/86 87/87/87 88/88/88
f 89/89/89 88/88/88 87/87/87
f 88/88/88 89/89/89 90/90/90
f 91/91/91 90/90/90 89/89/89
f 90/90/90 91/91/91 92/92/92
f 93/93/93 92/92/92 91/91/91
f 92/92/92 93/93/93 94/94/94
f 95/95/95 94/94/94 93/93/93
f 94/94/94 95/95/95 96/96/96
f 97/97/97 96/96/96 95/95/95
f 96/96/96 97/97/97 98/98/98
f 99/99/99 98/98/98 97/97/97
f 98/98/98 99/99/99 100/100/100
f 101/101/101 100/100/100 99/99/99
f 100/100/100 101/101/101 102/102/102
f 103/103/103 102/102/102 101/101/101
f 102/102/102 103/103/103 104/104/104
f 105/105/105 104/104/104 103/103/103
f 104/104/104 105/105/105 106/106/106
f 107/107/107 106/106/106 105/105/105
f 106/106/106 107/107/107 108/108/108
f 109/109/109 108/108/108 107/107/107
f 108/108/108 109/109/109 110/110/110
f 111/111/111 110/110/110 109/109/109
f 110/110/110 111/111/111 112/112/112
f 113/113/113 112/112/112 111/111/111
f 112/112/112 113/113/113 114/114/114
f 115/115/115 114/114/114 113/113/113
f 114/114/114 115/115/115 116/116/116
f 117/117/117 116/116/116 115/115/115
f 116/116/116 117/117/117 118/118/118
f 119/119/119 118/118/118 117/117/117
f 118/118/118 119/119/119 120/120/120
f 121/121/121 120/120/120 119/119/119
f 120/120/120 121/121/121 122/122/122
f 123/123/123 122/122/122 121/121/121
f 122/122/122 123/123/123 124/124/124
f 125/125/125 124/124/124 123/123/123
f 124/124/124 125/125/125 126/126/126
f 127/127/127 126/126/126 125/125/125
f 126/126/126 127/127/127 128/128/128
f 129/129/129 128/128/128 127/127/127
f 128/128/128 129/129/129 130/130/130
f 131/131/131 130/130/130 129/129/129
f 130/130/130 131/131/131 132/132/132
f 133/133/133 132/132/132 131/131/131
f 132/132/132 133/133/133 134/134/134
f 135/135/135 134/134/134 133/133/133
f 134/134/134 135/135/135 136/136/136
f 137/137/137 136/136/136 135/135/135
f 136/136/136 137/137/137 138/138/138
f 139/139/139 138/138/138 137/137/137
f 141/141/141 140/140/140 139/139/139
f 143/143/143 142/142/142 141/141/141
f 145/145/145 144/144/144 143/143/143
f 144/144/144 145/145/145 146/146/146
f 147/147/147 146/146/146 145/145/145
f 146/146/146 147/147/147 148/148/148
f 149/149/149 148/148/148 147/147/147
f 148/148/148 149/149/149 150/150/150
f 151/151/151 150/150/150 149/149/149
f 150/150/150 151/151/151 152/152/152
f 153/153/153 152/152/152 151/151/151
f 152/152/152 153/153/153 154/154/154
f 155/155/155 154/154/154 153/153/153
f 154/154/154 155/155/155 156/156/156
f 157/157/157 156/156/156 155/155/155
f 156/156/156 157/157/157 158/158/158
f 159/159/159 158/158/158 157/157/157
f 158/158/158 159/159/159 160/160/160
f 161/161/161 160/160/160 159/159/159
f 160/160/160 161/161/161 162/162/162
f 163/163/163 162/162/162 161/161/161
f 162/162/162 163/163/163 164/164/164
f 165/165/165 164/164/164 163/163/163
f 164/164/164 165/165/165 166/166/166
f 167/167/167 166/166/166 165/165/165
f 166/166/166 167/167/167 168/168/168
f 169/169/169 168/168/168 167/167/167
f 168/168/168 169/169/169 170/170/170
f 171/171/171 170/170/170 169/169/169
f 170/170/170 171/171/171 172/172/172
f 173/173/173 172/172/172 171/171/171
f 172/172/172 173/173/173 174/174/174
f 175/175/175 174/174/174 173/173/173
f 174/174/174 175/175/175 176/176/176
f 177/177/177 176/176/176 175/175/175
f 176/176/176 177/177/177 178/178/178
f 179/179/179 178/178/178 177/177/177
f 178/178/178 179/179/179 180/180/180
f 181/181/181 180/180/180 179/179/179
f 180/180/180 181/181/181 182/182/182
f 183/183/183 182/182/182 181/181/181
f 185/185/185 184/184/184 183/183/183
f 184/184/184 185/185/185 186/186/186
f 187/187/187 186/186/186 185/185/185
f 186/186/186 187/187/187 188/188/188
f 189/189/189 188/188/188 187/187/187
f 188/188/188 189/189/189 190/190/190
f 191/191/191 190/190/190 189/189/189
f 190/190/190 191/191/191 192/192/192
f 193/193/193 192/192/192 191/191/191
f 192/192/192 193/193/193 194/194/194
