g 
v -21.3234 17.6 -5.126506
v -30.234438 17.6 -19.947893
v -14.115547 17.6 -1.4809742
v -30.07373 17.6 -28.023613
v -3.026969 17.6 -3.1795864
v -23.37303 17.6 -37.020416
v 4.373544 17.6 -7.5691204
v -16.027323 17.6 -41.496727
v 10.533048 17.6 -15.879622
v -5.8032036 17.6 -43.038933
v 17.673496 17.6 -22.564754
v 3.4382095 17.6 -46.20944
v 27.984447 17.6 -24.005604
v 9.502869 17.6 -54.634594
v 34.745934 17.6 -30.811031
v 18.626545 17.6 -57.429363
v 37.739304 17.6 -34.75888
v 23.4607 17.6 -58.24112
v 45.019585 17.6 -40.10797
v 31.559792 17.6 -62.243607
v 45.33038 17.6 -46.771893
v 37.619343 17.6 -59.453247
v -21.3234 17.6 -5.126506
v -21.3234 -2.3999996 -5.126506
v -14.115547 17.6 -1.4809742
v -14.115547 -2.3999996 -1.4809742
v -14.115547 17.6 -1.4809742
v -14.115547 -2.3999996 -1.4809742
v -3.026969 17.6 -3.1795864
v -3.026969 -2.3999996 -3.1795864
v -3.026969 17.6 -3.1795864
v -3.026969 -2.3999996 -3.1795864
v 4.373544 17.6 -7.5691204
v 4.373544 -2.3999996 -7.5691204
v 4.373544 17.6 -7.5691204
v 4.373544 -2.3999996 -7.5691204
v 10.533048 17.6 -15.879622
v 10.533048 -2.3999996 -15.879622
v 10.533048 17.6 -15.879622
v 10.533048 -2.3999996 -15.879622
v 17.673496 17.6 -22.564754
v 17.673496 -2.3999996 -22.564754
v 17.673496 17.6 -22.564754
v 17.673496 -2.3999996 -22.564754
v 27.984447 17.6 -24.005604
v 27.984447 -2.3999996 -24.005604
v 27.984447 17.6 -24.005604
v 27.984447 -2.3999996 -24.005604
v 34.745934 17.6 -30.811031
v 34.745934 -2.3999996 -30.811031
v 34.745934 17.6 -30.811031
v 34.745934 -2.3999996 -30.811031
v 37.739304 17.6 -34.75888
v 37.739304 -2.3999996 -34.75888
v 37.739304 17.6 -34.75888
v 37.739304 -2.3999996 -34.75888
v 45.019585 17.6 -40.10797
v 45.019585 -2.3999996 -40.10797
v 45.019585 17.6 -40.10797
v 45.019585 -2.3999996 -40.10797
v 45.33038 17.6 -46.771893
v 45.33038 -2.3999996 -46.771893
v -30.234438 17.6 -19.947893
v -30.234438 -2.3999996 -19.947893
v -30.07373 17.6 -28.023613
v -30.07373 -2.3999996 -28.023613
v -30.07373 17.6 -28.023613
v -30.07373 -2.3999996 -28.023613
v -23.37303 17.6 -37.020416
v -23.37303 -2.3999996 -37.020416
v -23.37303 17.6 -37.020416
v -23.37303 -2.3999996 -37.020416
v -16.027323 17.6 -41.496727
v -16.027323 -2.3999996 -41.496727
v -16.027323 17.6 -41.496727
v -16.027323 -2.3999996 -41.496727
v -5.8032036 17.6 -43.038933
v -5.8032036 -2.3999996 -43.038933
v -5.8032036 17.6 -43.038933
v -5.8032036 -2.3999996 -43.038933
v 3.4382095 17.6 -46.20944
v 3.4382095 -2.3999996 -46.20944
v 3.4382095 17.6 -46.20944
v 3.4382095 -2.3999996 -46.20944
v 9.502869 17.6 -54.634594
v 9.502869 -2.3999996 -54.634594
v 9.502869 17.6 -54.634594
v 9.502869 -2.3999996 -54.634594
v 18.626545 17.6 -57.429363
v 18.626545 -2.3999996 -57.429363
v 18.626545 17.6 -57.429363
v 18.626545 -2.3999996 -57.429363
v 23.4607 17.6 -58.24112
v 23.4607 -2.3999996 -58.24112
v 23.4607 17.6 -58.24112
v 23.4607 -2.3999996 -58.24112
v 31.559792 17.6 -62.243607
v 31.559792 -2.3999996 -62.243607
v 31.559792 17.6 -62.243607
v 31.559792 -2.3999996 -62.243607
v 37.619343 17.6 -59.453247
v 37.619343 -2.3999996 -59.453247
vt 0.0462448 -0.016169704
vt 0.049084317 -0.0033127994
vt 0.048317958 -0.021959387
vt 0.053403065 0.0010651938
vt 0.055334568 -0.026828874
vt 0.061817877 0.002526567
vt 0.061722834 -0.028279759
vt 0.068221316 0.0011523358
vt 0.06947914 -0.026914125
vt 0.07467835 -0.0033507817
vt 0.07692611 -0.02696038
vt 0.08144528 -0.006439469
vt 0.08337803 -0.03156498
vt 0.089209236 -0.004960805
vt 0.090678625 -0.031346273
vt 0.0957143 -0.008195433
vt 0.09440041 -0.030732809
vt 0.09881056 -0.010278966
vt 0.10122485 -0.03159052
vt 0.10538209 -0.012309617
vt 0.104887046 -0.02807122
vt 0.10726869 -0.017025314
vt 0.0462448 -0.016169704
vt 0.0462448 -0.016169704
vt 0.048317958 -0.021959387
vt 0.048317958 -0.021959387
vt 0.048317958 -0.021959387
vt 0.048317958 -0.021959387
vt 0.055334568 -0.026828874
vt 0.055334568 -0.026828874
vt 0.055334568 -0.026828874
vt 0.055334568 -0.026828874
vt 0.061722834 -0.028279759
vt 0.061722834 -0.028279759
vt 0.061722834 -0.028279759
vt 0.061722834 -0.028279759
vt 0.06947914 -0.026914125
vt 0.06947914 -0.026914125
vt 0.06947914 -0.026914125
vt 0.06947914 -0.026914125
vt 0.07692611 -0.02696038
vt 0.07692611 -0.02696038
vt 0.07692611 -0.02696038
vt 0.07692611 -0.02696038
vt 0.08337803 -0.03156498
vt 0.08337803 -0.03156498
vt 0.08337803 -0.03156498
vt 0.08337803 -0.03156498
vt 0.090678625 -0.031346273
vt 0.090678625 -0.031346273
vt 0.090678625 -0.031346273
vt 0.090678625 -0.031346273
vt 0.09440041 -0.030732809
vt 0.09440041 -0.030732809
vt 0.09440041 -0.030732809
vt 0.09440041 -0.030732809
vt 0.10122485 -0.03159052
vt 0.10122485 -0.03159052
vt 0.10122485 -0.03159052
vt 0.10122485 -0.03159052
vt 0.104887046 -0.02807122
vt 0.104887046 -0.02807122
vt 0.049084317 -0.0033127994
vt 0.049084317 -0.0033127994
vt 0.053403065 0.0010651938
vt 0.053403065 0.0010651938
vt 0.053403065 0.0010651938
vt 0.053403065 0.0010651938
vt 0.061817877 0.002526567
vt 0.061817877 0.002526567
vt 0.061817877 0.002526567
vt 0.061817877 0.002526567
vt 0.068221316 0.0011523358
vt 0.068221316 0.0011523358
vt 0.068221316 0.0011523358
vt 0.068221316 0.0011523358
vt 0.07467835 -0.0033507817
vt 0.07467835 -0.0033507817
vt 0.07467835 -0.0033507817
vt 0.07467835 -0.0033507817
vt 0.08144528 -0.006439469
vt 0.08144528 -0.006439469
vt 0.08144528 -0.006439469
vt 0.08144528 -0.006439469
vt 0.089209236 -0.004960805
vt 0.089209236 -0.004960805
vt 0.089209236 -0.004960805
vt 0.089209236 -0.004960805
vt 0.0957143 -0.008195433
vt 0.0957143 -0.008195433
vt 0.0957143 -0.008195433
vt 0.0957143 -0.008195433
vt 0.09881056 -0.010278966
vt 0.09881056 -0.010278966
vt 0.09881056 -0.010278966
vt 0.09881056 -0.010278966
vt 0.10538209 -0.012309617
vt 0.10538209 -0.012309617
vt 0.10538209 -0.012309617
vt 0.10538209 -0.012309617
vt 0.10726869 -0.017025314
vt 0.10726869 -0.017025314
vn -0 1 0
vn -0 1 0
vn -0 1 0
vn -0 1 0
vn -0 1 0
vn -0 1 0
vn -0 1 0
vn -0 1 0
vn -0 1 0
vn -0 1 0
vn -0 1 0
vn -0 1 0
vn -0 1 0
vn -0 1 0
vn -0 1 0
vn -0 1 0
vn -0 1 0
vn -0 1 0
vn -0 1 0
vn -0 1 0
vn -0 1 0
vn -0 1 0
vn -0.8570282 -0 0.51526964
vn -0.8570282 0 0.51526964
vn -0.4513295 0 0.8923574
vn -0.4513295 0 0.8923574
vn 0.15141946 0 0.9884696
vn 0.15141946 0 0.9884696
vn 0.15141946 0 0.9884696
vn 0.15141946 0 0.9884696
vn 0.51015025 0 0.8600853
vn 0.51015025 0 0.8600853
vn 0.51015025 0 0.8600853
vn 0.51015025 0 0.8600853
vn 0.8033918 0 0.59545076
vn 0.8033918 0 0.59545076
vn 0.8033918 0 0.59545076
vn 0.8033918 0 0.59545076
vn 0.68344915 0 0.7299981
vn 0.68344915 0 0.7299981
vn 0.68344915 0 0.7299981
vn 0.68344915 0 0.7299981
vn 0.13839501 0 0.99037707
vn 0.13839501 0 0.99037707
vn 0.13839501 0 0.99037707
vn 0.13839501 0 0.99037707
vn 0.7093933 0 0.7048129
vn 0.7093933 0 0.7048129
vn 0.7093933 0 0.7048129
vn 0.7093933 0 0.7048129
vn 0.79684186 0 0.60418785
vn 0.79684186 0 0.60418785
vn 0.79684186 0 0.60418785
vn 0.79684186 0 0.60418785
vn 0.59209895 0 0.80586535
vn 0.59209895 0 0.80586535
vn 0.59209895 0 0.80586535
vn 0.59209895 0 0.80586535
vn 0.99891424 0 0.04658779
vn 0.99891424 0 0.04658779
vn 0.8544393 0 -0.51955116
vn 0.8544393 -0 -0.51955116
vn -0.8570282 0 0.51526964
vn -0.8570282 0 0.51526964
vn -0.99980205 0 -0.01989614
vn -0.99980205 0 -0.01989614
vn -0.80200243 0 -0.59732085
vn -0.80200243 0 -0.59732085
vn -0.80200243 0 -0.59732085
vn -0.80200243 0 -0.59732085
vn -0.5203719 0 -0.8539397
vn -0.5203719 0 -0.8539397
vn -0.5203719 0 -0.8539397
vn -0.5203719 0 -0.8539397
vn -0.1491527 0 -0.98881423
vn -0.1491527 0 -0.98881423
vn -0.1491527 0 -0.98881423
vn -0.1491527 0 -0.98881423
vn -0.3245094 0 -0.9458825
vn -0.3245094 0 -0.9458825
vn -0.3245094 0 -0.9458825
vn -0.3245094 0 -0.9458825
vn -0.81160074 0 -0.58421254
vn -0.81160074 0 -0.58421254
vn -0.81160074 0 -0.58421254
vn -0.81160074 0 -0.58421254
vn -0.29288742 0 -0.9561469
vn -0.29288742 0 -0.9561469
vn -0.29288742 0 -0.9561469
vn -0.29288742 0 -0.9561469
vn -0.16560248 0 -0.98619264
vn -0.16560248 0 -0.98619264
vn -0.16560248 0 -0.98619264
vn -0.16560248 0 -0.98619264
vn -0.4430415 0 -0.89650106
vn -0.4430415 0 -0.89650106
vn -0.4430415 0 -0.89650106
vn -0.4430415 0 -0.89650106
vn 0.41827253 0 -0.9083216
vn 0.41827253 -0 -0.9083216
vn 0.8544393 -0 -0.51955116
vn 0.8544393 -0 -0.51955116
g _0
f 3/3/3 2/2/2 1/1/1
f 2/2/2 3/3/3 4/4/4
f 5/5/5 4/4/4 3/3/3
f 4/4/4 5/5/5 6/6/6
f 7/7/7 6/6/6 5/5/5
f 6/6/6 7/7/7 8/8/8
f 9/9/9 8/8/8 7/7/7
f 8/8/8 9/9/9 10/10/10
f 11/11/11 10/10/10 9/9/9
f 10/10/10 11/11/11 12/12/12
f 13/13/13 12/12/12 11/11/11
f 12/12/12 13/13/13 14/14/14
f 15/15/15 14/14/14 13/13/13
f 14/14/14 15/15/15 16/16/16
f 17/17/17 16/16/16 15/15/15
f 16/16/16 17/17/17 18/18/18
f 19/19/19 18/18/18 17/17/17
f 18/18/18 19/19/19 20/20/20
f 21/21/21 20/20/20 19/19/19
f 20/20/20 21/21/21 22/22/22
g _1
f 23/23/23 24/24/24 25/25/25
f 26/26/26 25/25/25 24/24/24
f 27/27/27 28/28/28 29/29/29
f 30/30/30 29/29/29 28/28/28
f 31/31/31 32/32/32 33/33/33
f 34/34/34 33/33/33 32/32/32
f 35/35/35 36/36/36 37/37/37
f 38/38/38 37/37/37 36/36/36
f 39/39/39 40/40/40 41/41/41
f 42/42/42 41/41/41 40/40/40
f 43/43/43 44/44/44 45/45/45
f 46/46/46 45/45/45 44/44/44
f 47/47/47 48/48/48 49/49/49
f 50/50/50 49/49/49 48/48/48
f 51/51/51 52/52/52 53/53/53
f 54/54/54 53/53/53 52/52/52
f 55/55/55 56/56/56 57/57/57
f 58/58/58 57/57/57 56/56/56
f 59/59/59 60/60/60 61/61/61
f 62/62/62 61/61/61 60/60/60
f 65/65/65 64/64/64 63/63/63
f 64/64/64 65/65/65 66/66/66
f 69/69/69 68/68/68 67/67/67
f 68/68/68 69/69/69 70/70/70
f 73/73/73 72/72/72 71/71/71
f 72/72/72 73/73/73 74/74/74
f 77/77/77 76/76/76 75/75/75
f 76/76/76 77/77/77 78/78/78
f 81/81/81 80/80/80 79/79/79
f 80/80/80 81/81/81 82/82/82
f 85/85/85 84/84/84 83/83/83
f 84/84/84 85/85/85 86/86/86
f 89/89/89 88/88/88 87/87/87
f 88/88/88 89/89/89 90/90/90
f 93/93/93 92/92/92 91/91/91
f 92/92/92 93/93/93 94/94/94
f 97/97/97 96/96/96 95/95/95
f 96/96/96 97/97/97 98/98/98
f 101/101/101 100/100/100 99/99/99
f 100/100/100 101/101/101 102/102/102
f 63/63/63 24/24/24 23/23/23
f 24/24/24 63/63/63 64/64/64
f 61/61/61 62/62/62 101/101/101
f 102/102/102 101/101/101 62/62/62
