g 
v 21.340576 39.120003 76.61492
v 8.722353 39.120003 96.6684
v 21.134647 39.120003 65.11941
v -1.7301979 39.120003 101.45729
v 10.927598 39.120003 52.798195
v -17.254993 39.120003 97.58729
v 3.9171066 36.522224 48.477562
v -24.183851 36.522224 93.13688
v -3.7209368 33.635803 43.79976
v -32.033974 33.635803 88.06906
v -10.914908 29.619556 39.634315
v -39.45073 29.619556 82.729965
v -17.661518 24.473482 35.219986
v -46.437416 24.473482 77.88081
v -22.776915 19.327408 30.789032
v -55.0553 19.327408 73.04829
v -29.441898 16.31549 26.081287
v -62.866486 16.31549 65.47262
v -35.996883 13.303575 19.042595
v -70.78767 13.303575 60.227905
v -38.184643 16.601295 18.288
v -80.28447 16.601295 51.166954
v -33.96359 25.226812 28.12191
v -86.335464 25.226812 33.843945
v -33.404327 30.919998 23.516582
v -87.32308 30.919998 25.268898
v -39.368744 30.919998 8.50138
v -82.34618 30.919998 9.898115
v -48.920357 30.919998 2.5120034
v -73.20362 30.919998 3.3012009
v 21.340576 39.120003 76.61492
v 21.340576 -40.879997 76.61492
v 21.134647 39.120003 65.11941
v 21.134647 -40.879997 65.11941
v 21.134647 39.120003 65.11941
v 21.134647 -40.879997 65.11941
v 10.927598 39.120003 52.798195
v 10.927598 -40.879997 52.798195
v 10.927598 39.120003 52.798195
v 10.927598 -40.879997 52.798195
v 3.9171066 36.522224 48.477562
v 3.9171066 -43.477776 48.477562
v 3.9171066 36.522224 48.477562
v 3.9171066 -43.477776 48.477562
v -3.7209368 33.635803 43.79976
v -3.7209368 -46.364197 43.79976
v -3.7209368 33.635803 43.79976
v -3.7209368 -46.364197 43.79976
v -10.914908 29.619556 39.634315
v -10.914908 -50.380444 39.634315
v -10.914908 29.619556 39.634315
v -10.914908 -50.380444 39.634315
v -17.661518 24.473482 35.219986
v -17.661518 -55.52652 35.219986
v -17.661518 24.473482 35.219986
v -17.661518 -55.52652 35.219986
v -22.776915 19.327408 30.789032
v -22.776915 -60.672592 30.789032
v -22.776915 19.327408 30.789032
v -22.776915 -60.672592 30.789032
v -29.441898 16.31549 26.081287
v -29.441898 -63.68451 26.081287
v -29.441898 16.31549 26.081287
v -29.441898 -63.68451 26.081287
v -35.996883 13.303575 19.042595
v -35.996883 -66.69643 19.042595
v -35.996883 13.303575 19.042595
v -35.996883 -66.69643 19.042595
v -38.184643 16.601295 18.288
v -38.184643 -63.398705 18.288
v -38.184643 16.601295 18.288
v -38.184643 -63.398705 18.288
v -33.96359 25.226812 28.12191
v -33.96359 -54.773186 28.12191
v -33.96359 25.226812 28.12191
v -33.96359 -54.773186 28.12191
v -33.404327 30.919998 23.516582
v -33.404327 -49.08 23.516582
v -33.404327 30.919998 23.516582
v -33.404327 -49.08 23.516582
v -39.368744 30.919998 8.50138
v -39.368744 -49.08 8.50138
v -39.368744 30.919998 8.50138
v -39.368744 -49.08 8.50138
v -48.920357 30.919998 2.5120034
v -48.920357 -49.08 2.5120034
v 8.722353 39.120003 96.6684
v 8.722353 -40.879997 96.6684
v -1.7301979 39.120003 101.45729
v -1.7301979 -40.879997 101.45729
v -1.7301979 39.120003 101.45729
v -1.7301979 -40.879997 101.45729
v -17.254993 39.120003 97.58729
v -17.254993 -40.879997 97.58729
v -17.254993 39.120003 97.58729
v -17.254993 -40.879997 97.58729
v -24.183851 36.522224 93.13688
v -24.183851 -43.477776 93.13688
v -24.183851 36.522224 93.13688
v -24.183851 -43.477776 93.13688
v -32.033974 33.635803 88.06906
v -32.033974 -46.364197 88.06906
v -32.033974 33.635803 88.06906
v -32.033974 -46.364197 88.06906
v -39.45073 29.619556 82.729965
v -39.45073 -50.380444 82.729965
v -39.45073 29.619556 82.729965
v -39.45073 -50.380444 82.729965
v -46.437416 24.473482 77.88081
v -46.437416 -55.52652 77.88081
v -46.437416 24.473482 77.88081
v -46.437416 -55.52652 77.88081
v -55.0553 19.327408 73.04829
v -55.0553 -60.672592 73.04829
v -55.0553 19.327408 73.04829
v -55.0553 -60.672592 73.04829
v -62.866486 16.31549 65.47262
v -62.866486 -63.68451 65.47262
v -62.866486 16.31549 65.47262
v -62.866486 -63.68451 65.47262
v -70.78767 13.303575 60.227905
v -70.78767 -66.69643 60.227905
v -70.78767 13.303575 60.227905
v -70.78767 -66.69643 60.227905
v -80.28447 16.601295 51.166954
v -80.28447 -63.398705 51.166954
v -80.28447 16.601295 51.166954
v -80.28447 -63.398705 51.166954
v -86.335464 25.226812 33.843945
v -86.335464 -54.773186 33.843945
v -86.335464 25.226812 33.843945
v -86.335464 -54.773186 33.843945
v -87.32308 30.919998 25.268898
v -87.32308 -49.08 25.268898
v -87.32308 30.919998 25.268898
v -87.32308 -49.08 25.268898
v -82.34618 30.919998 9.898115
v -82.34618 -49.08 9.898115
v -82.34618 30.919998 9.898115
v -82.34618 -49.08 9.898115
v -73.20362 30.919998 3.3012009
v -73.20362 -49.08 3.3012009
vt -0.04469008 0.06578802
vt -0.039136663 0.08882107
vt -0.040823847 0.05496021
vt -0.03076077 0.09669722
vt -0.02721649 0.046543796
vt -0.014813015 0.0979877
vt -0.019193297 0.0446882
vt -0.0068257363 0.09598306
vt -0.010461349 0.04269455
vt 0.0022317362 0.09368754
vt -0.0023138418 0.041044615
vt 0.010965168 0.090996556
vt 0.0054892106 0.039015964
vt 0.019134585 0.08863252
vt 0.011751774 0.03645063
vt 0.02884448 0.08680516
vt 0.019571176 0.034117855
vt 0.038665935 0.08212067
vt 0.028030727 0.029541064
vt 0.047847234 0.07968022
vt 0.030344909 0.029524645
vt 0.059740372 0.07412653
vt 0.023204423 0.037495628
vt 0.07100662 0.05964299
vt 0.024145158 0.03295285
vt 0.074680954 0.051832356
vt 0.034592364 0.020628624
vt 0.07487333 0.03567706
vt 0.045556527 0.018003175
vt 0.06831622 0.026505904
vt -0.04469008 0.06578802
vt -0.04469008 0.06578802
vt -0.040823847 0.05496021
vt -0.040823847 0.05496021
vt -0.040823847 0.05496021
vt -0.040823847 0.05496021
vt -0.02721649 0.046543796
vt -0.02721649 0.046543796
vt -0.02721649 0.046543796
vt -0.02721649 0.046543796
vt -0.019193297 0.0446882
vt -0.019193297 0.0446882
vt -0.019193297 0.0446882
vt -0.019193297 0.0446882
vt -0.010461349 0.04269455
vt -0.010461349 0.04269455
vt -0.010461349 0.04269455
vt -0.010461349 0.04269455
vt -0.0023138418 0.041044615
vt -0.0023138418 0.041044615
vt -0.0023138418 0.041044615
vt -0.0023138418 0.041044615
vt 0.0054892106 0.039015964
vt 0.0054892106 0.039015964
vt 0.0054892106 0.039015964
vt 0.0054892106 0.039015964
vt 0.011751774 0.03645063
vt 0.011751774 0.03645063
vt 0.011751774 0.03645063
vt 0.011751774 0.03645063
vt 0.019571176 0.034117855
vt 0.019571176 0.034117855
vt 0.019571176 0.034117855
vt 0.019571176 0.034117855
vt 0.028030727 0.029541064
vt 0.028030727 0.029541064
vt 0.028030727 0.029541064
vt 0.028030727 0.029541064
vt 0.030344909 0.029524645
vt 0.030344909 0.029524645
vt 0.030344909 0.029524645
vt 0.030344909 0.029524645
vt 0.023204423 0.037495628
vt 0.023204423 0.037495628
vt 0.023204423 0.037495628
vt 0.023204423 0.037495628
vt 0.024145158 0.03295285
vt 0.024145158 0.03295285
vt 0.024145158 0.03295285
vt 0.024145158 0.03295285
vt 0.034592364 0.020628624
vt 0.034592364 0.020628624
vt 0.034592364 0.020628624
vt 0.034592364 0.020628624
vt 0.045556527 0.018003175
vt 0.045556527 0.018003175
vt -0.039136663 0.08882107
vt -0.039136663 0.08882107
vt -0.03076077 0.09669722
vt -0.03076077 0.09669722
vt -0.03076077 0.09669722
vt -0.03076077 0.09669722
vt -0.014813015 0.0979877
vt -0.014813015 0.0979877
vt -0.014813015 0.0979877
vt -0.014813015 0.0979877
vt -0.0068257363 0.09598306
vt -0.0068257363 0.09598306
vt -0.0068257363 0.09598306
vt -0.0068257363 0.09598306
vt 0.0022317362 0.09368754
vt 0.0022317362 0.09368754
vt 0.0022317362 0.09368754
vt 0.0022317362 0.09368754
vt 0.010965168 0.090996556
vt 0.010965168 0.090996556
vt 0.010965168 0.090996556
vt 0.010965168 0.090996556
vt 0.019134585 0.08863252
vt 0.019134585 0.08863252
vt 0.019134585 0.08863252
vt 0.019134585 0.08863252
vt 0.02884448 0.08680516
vt 0.02884448 0.08680516
vt 0.02884448 0.08680516
vt 0.02884448 0.08680516
vt 0.038665935 0.08212067
vt 0.038665935 0.08212067
vt 0.038665935 0.08212067
vt 0.038665935 0.08212067
vt 0.047847234 0.07968022
vt 0.047847234 0.07968022
vt 0.047847234 0.07968022
vt 0.047847234 0.07968022
vt 0.059740372 0.07412653
vt 0.059740372 0.07412653
vt 0.059740372 0.07412653
vt 0.059740372 0.07412653
vt 0.07100662 0.05964299
vt 0.07100662 0.05964299
vt 0.07100662 0.05964299
vt 0.07100662 0.05964299
vt 0.074680954 0.051832356
vt 0.074680954 0.051832356
vt 0.074680954 0.051832356
vt 0.074680954 0.051832356
vt 0.07487333 0.03567706
vt 0.07487333 0.03567706
vt 0.07487333 0.03567706
vt 0.07487333 0.03567706
vt 0.06831622 0.026505904
vt 0.06831622 0.026505904
vn -0 1 0
vn -0 1 0
vn -0 1 0
vn -0 1 0
vn -0 1 0
vn -0 1 0
vn -0 1 0
vn -0 1 0
vn -0 1 0
vn -0 1 0
vn -0 1 0
vn -0 1 0
vn -0 1 0
vn -0 1 0
vn -0 1 0
vn -0 1 0
vn -0 1 0
vn -0 1 0
vn -0 1 0
vn -0 1 0
vn -0 1 0
vn -0 1 0
vn -0 1 0
vn -0 1 0
vn -0 1 0
vn -0 1 0
vn -0 1 0
vn -0 1 0
vn -0 1 0
vn -0 1 0
vn 0.8463859 0 0.5325702
vn 0.8463859 0 0.5325702
vn 0.9998396 -0 -0.017910967
vn 0.9998396 -0 -0.017910967
vn 0.7700816 0 -0.6379454
vn 0.7700816 -0 -0.6379454
vn 0.7700816 -0 -0.6379454
vn 0.7700816 -0 -0.6379454
vn 0.52466846 0 -0.8513066
vn 0.52466846 -0 -0.8513066
vn 0.52466846 -0 -0.8513066
vn 0.52466846 -0 -0.8513066
vn 0.5222716 0 -0.8527792
vn 0.5222716 -0 -0.8527792
vn 0.5222716 -0 -0.8527792
vn 0.5222716 -0 -0.8527792
vn 0.5010825 0 -0.86539954
vn 0.5010825 -0 -0.86539954
vn 0.5010825 -0 -0.86539954
vn 0.5010825 -0 -0.86539954
vn 0.54751736 0 -0.8367943
vn 0.54751736 -0 -0.8367943
vn 0.54751736 -0 -0.8367943
vn 0.54751736 -0 -0.8367943
vn 0.6547289 0 -0.75586385
vn 0.6547289 -0 -0.75586385
vn 0.6547289 -0 -0.75586385
vn 0.6547289 -0 -0.75586385
vn 0.5769326 0 -0.8167917
vn 0.5769326 -0 -0.8167917
vn 0.5769326 -0 -0.8167917
vn 0.5769326 -0 -0.8167917
vn 0.7318048 0 -0.6815143
vn 0.7318048 -0 -0.6815143
vn 0.7318048 -0 -0.6815143
vn 0.7318048 -0 -0.6815143
vn 0.326066 0 -0.945347
vn 0.326066 -0 -0.945347
vn 0.326066 -0 -0.945347
vn 0.326066 -0 -0.945347
vn -0.9189242 -0 0.39443406
vn -0.9189242 0 0.39443406
vn -0.9189242 0 0.39443406
vn -0.9189242 0 0.39443406
vn 0.992707 0 0.12055226
vn 0.992707 0 0.12055226
vn 0.992707 0 0.12055226
vn 0.992707 0 0.12055226
vn 0.92936325 0 -0.3691665
vn 0.92936325 -0 -0.3691665
vn 0.92936325 -0 -0.3691665
vn 0.92936325 -0 -0.3691665
vn 0.5312497 0 -0.8472153
vn 0.5312497 -0 -0.8472153
vn -0.032482494 0 -0.9994723
vn -0.032482494 0 -0.9994723
vn 0.8463859 0 0.5325702
vn 0.8463859 0 0.5325702
vn 0.4165206 0 0.9091262
vn 0.4165206 0 0.9091262
vn -0.24187697 -0 0.97030693
vn -0.24187697 0 0.97030693
vn -0.24187697 0 0.97030693
vn -0.24187697 0 0.97030693
vn -0.54042614 -0 0.8413914
vn -0.54042614 0 0.8413914
vn -0.54042614 0 0.8413914
vn -0.54042614 0 0.8413914
vn -0.5423704 -0 0.8401395
vn -0.5423704 0 0.8401395
vn -0.5423704 0 0.8401395
vn -0.5423704 0 0.8401395
vn -0.58423495 -0 0.8115846
vn -0.58423495 0 0.8115846
vn -0.58423495 0 0.8115846
vn -0.58423495 0 0.8115846
vn -0.5701805 -0 0.82151943
vn -0.5701805 0 0.82151943
vn -0.5701805 0 0.82151943
vn -0.5701805 0 0.82151943
vn -0.489105 -0 0.8722249
vn -0.489105 0 0.8722249
vn -0.489105 0 0.8722249
vn -0.489105 0 0.8722249
vn -0.6962021 -0 0.7178459
vn -0.6962021 0 0.7178459
vn -0.6962021 0 0.7178459
vn -0.6962021 0 0.7178459
vn -0.5520686 -0 0.8337987
vn -0.5520686 0 0.8337987
vn -0.5520686 0 0.8337987
vn -0.5520686 0 0.8337987
vn -0.69030917 -0 0.72351456
vn -0.69030917 0 0.72351456
vn -0.69030917 0 0.72351456
vn -0.69030917 0 0.72351456
vn -0.94406307 -0 0.3297649
vn -0.94406307 0 0.3297649
vn -0.94406307 0 0.3297649
vn -0.94406307 0 0.3297649
vn -0.9934328 -0 0.11441706
vn -0.9934328 0 0.11441706
vn -0.9934328 0 0.11441706
vn -0.9934328 0 0.11441706
vn -0.951372 0 -0.30804428
vn -0.951372 0 -0.30804428
vn -0.951372 0 -0.30804428
vn -0.951372 0 -0.30804428
vn -0.58513796 0 -0.81093377
vn -0.58513796 0 -0.81093377
vn -0.032482494 0 -0.9994723
vn -0.032482494 0 -0.9994723
g _0
f 3/3/3 2/2/2 1/1/1
f 2/2/2 3/3/3 4/4/4
f 5/5/5 4/4/4 3/3/3
f 4/4/4 5/5/5 6/6/6
f 7/7/7 6/6/6 5/5/5
f 6/6/6 7/7/7 8/8/8
f 9/9/9 8/8/8 7/7/7
f 8/8/8 9/9/9 10/10/10
f 11/11/11 10/10/10 9/9/9
f 10/10/10 11/11/11 12/12/12
f 13/13/13 12/12/12 11/11/11
f 12/12/12 13/13/13 14/14/14
f 15/15/15 14/14/14 13/13/13
f 14/14/14 15/15/15 16/16/16
f 17/17/17 16/16/16 15/15/15
f 16/16/16 17/17/17 18/18/18
f 19/19/19 18/18/18 17/17/17
f 18/18/18 19/19/19 20/20/20
f 21/21/21 20/20/20 19/19/19
f 20/20/20 21/21/21 22/22/22
f 22/22/22 23/23/23 24/24/24
f 25/25/25 24/24/24 23/23/23
f 24/24/24 25/25/25 26/26/26
f 27/27/27 26/26/26 25/25/25
f 26/26/26 27/27/27 28/28/28
f 29/29/29 28/28/28 27/27/27
f 28/28/28 29/29/29 30/30/30
g _1
f 31/31/31 32/32/32 33/33/33
f 34/34/34 33/33/33 32/32/32
f 35/35/35 36/36/36 37/37/37
f 38/38/38 37/37/37 36/36/36
f 39/39/39 40/40/40 41/41/41
f 42/42/42 41/41/41 40/40/40
f 43/43/43 44/44/44 45/45/45
f 46/46/46 45/45/45 44/44/44
f 47/47/47 48/48/48 49/49/49
f 50/50/50 49/49/49 48/48/48
f 51/51/51 52/52/52 53/53/53
f 54/54/54 53/53/53 52/52/52
f 55/55/55 56/56/56 57/57/57
f 58/58/58 57/57/57 56/56/56
f 59/59/59 60/60/60 61/61/61
f 62/62/62 61/61/61 60/60/60
f 63/63/63 64/64/64 65/65/65
f 66/66/66 65/65/65 64/64/64
f 67/67/67 68/68/68 69/69/69
f 70/70/70 69/69/69 68/68/68
f 71/71/71 72/72/72 73/73/73
f 74/74/74 73/73/73 72/72/72
f 75/75/75 76/76/76 77/77/77
f 78/78/78 77/77/77 76/76/76
f 79/79/79 80/80/80 81/81/81
f 82/82/82 81/81/81 80/80/80
f 83/83/83 84/84/84 85/85/85
f 86/86/86 85/85/85 84/84/84
f 89/89/89 88/88/88 87/87/87
f 88/88/88 89/89/89 90/90/90
f 93/93/93 92/92/92 91/91/91
f 92/92/92 93/93/93 94/94/94
f 97/97/97 96/96/96 95/95/95
f 96/96/96 97/97/97 98/98/98
f 101/101/101 100/100/100 99/99/99
f 100/100/100 101/101/101 102/102/102
f 105/105/105 104/104/104 103/103/103
f 104/104/104 105/105/105 106/106/106
f 109/109/109 108/108/108 107/107/107
f 108/108/108 109/109/109 110/110/110
f 113/113/113 112/112/112 111/111/111
f 112/112/112 113/113/113 114/114/114
f 117/117/117 116/116/116 115/115/115
f 116/116/116 117/117/117 118/118/118
f 121/121/121 120/120/120 119/119/119
f 120/120/120 121/121/121 122/122/122
f 125/125/125 124/124/124 123/123/123
f 124/124/124 125/125/125 126/126/126
f 129/129/129 128/128/128 127/127/127
f 128/128/128 129/129/129 130/130/130
f 133/133/133 132/132/132 131/131/131
f 132/132/132 133/133/133 134/134/134
f 137/137/137 136/136/136 135/135/135
f 136/136/136 137/137/137 138/138/138
f 141/141/141 140/140/140 139/139/139
f 140/140/140 141/141/141 142/142/142
f 87/87/87 32/32/32 31/31/31
f 32/32/32 87/87/87 88/88/88
f 85/85/85 86/86/86 141/141/141
f 142/142/142 141/141/141 86/86/86
