g 
v 87.22377 108.41657 -80.43168
v 87.22377 94.41657 -80.43168
v 88.50295 108.41657 -78.54402
v 88.50295 94.41657 -78.54402
v 87.40759 108.41657 -75.14311
v 87.40759 94.41657 -75.14311
v 83.75004 108.41657 -74.64788
v 83.75004 94.41657 -74.64788
v 81.42476 108.41657 -77.06171
v 81.42476 94.41657 -77.06171
v 82.6409 108.41657 -81.40662
v 82.6409 94.41657 -81.40662
v 85.47353 108.41657 -82.28931
v 85.47353 94.41657 -82.28931
v 87.22377 108.41657 -80.43168
v 87.22377 94.41657 -80.43168
vt -0.044682693 -0.31676078
vt -0.044682693 -0.31676078
vt -0.057474516 -0.2978842
vt -0.057474516 -0.2978842
vt -0.04652092 -0.26387513
vt -0.04652092 -0.26387513
vt -0.009945373 -0.2589228
vt -0.009945373 -0.2589228
vt 0.013307419 -0.28306106
vt 0.013307419 -0.28306106
vt 0.0011460113 -0.32651016
vt 0.0011460113 -0.32651016
vt -0.027180327 -0.33533707
vt -0.027180327 -0.33533707
vt -0.044682693 -0.31676078
vt -0.044682693 -0.31676078
vn 0.82782763 0 -0.56098247
vn 0.82782763 -0 -0.56098247
vn 0.9518482 0 0.30656984
vn 0.9518482 0 0.30656984
vn 0.13417532 0 0.9909576
vn 0.13417532 0 0.9909576
vn -0.72019285 -0 0.6937739
vn -0.72019285 0 0.6937739
vn -0.962989 0 -0.26954073
vn -0.962989 0 -0.26954073
vn -0.2975049 0 -0.9547203
vn -0.2975049 0 -0.9547203
vn 0.7278321 0 -0.6857554
vn 0.7278321 -0 -0.6857554
vn 0.7278321 -0 -0.6857554
vn 0.7278321 -0 -0.6857554
g _0
f 3/3/3 2/2/2 1/1/1
f 2/2/2 3/3/3 4/4/4
f 5/5/5 4/4/4 3/3/3
f 4/4/4 5/5/5 6/6/6
f 7/7/7 6/6/6 5/5/5
f 6/6/6 7/7/7 8/8/8
f 9/9/9 8/8/8 7/7/7
f 8/8/8 9/9/9 10/10/10
f 11/11/11 10/10/10 9/9/9
f 10/10/10 11/11/11 12/12/12
f 13/13/13 12/12/12 11/11/11
f 12/12/12 13/13/13 14/14/14
f 15/15/15 14/14/14 13/13/13
f 14/14/14 15/15/15 16/16/16
