g 
v 84.5423 17.6 6.42587
v 77.30444 17.6 10.491147
v 84.29817 17.6 1.3556716
v 73.10182 17.6 7.6443276
v 81.10824 17.6 -6.9978228
v 67.628334 17.6 0.5734303
v 77.56387 17.6 -16.279486
v 61.54669 17.6 -7.2831206
v 74.0195 17.6 -25.56115
v 55.465042 17.6 -15.139669
v 70.47513 17.6 -34.84281
v 49.383396 17.6 -22.996223
v 67.80068 17.6 -44.613083
v 42.431828 17.6 -30.364162
v 65.34372 17.6 -54.505505
v 35.262775 17.6 -37.609955
v 62.88675 17.6 -64.397934
v 28.09373 17.6 -44.85574
v 60.429783 17.6 -74.29035
v 20.924679 17.6 -52.101524
v 57.21164 17.6 -83.75524
v 14.516806 17.6 -59.774853
v 53.667267 17.6 -93.03691
v 8.435167 17.6 -67.6314
v 50.122894 17.6 -102.318565
v 2.3535194 17.6 -75.487946
v 46.57853 17.6 -111.60022
v -3.7281265 17.6 -83.344505
v 45.16078 17.6 -115.31289
v -6.160784 17.6 -86.487114
v 25.896877 17.6 -128.36208
v -7.2797766 17.6 -109.72775
v 84.5423 17.6 6.42587
v 84.5423 -2.3999996 6.42587
v 84.29817 17.6 1.3556716
v 84.29817 -2.3999996 1.3556716
v 84.29817 17.6 1.3556716
v 84.29817 -2.3999996 1.3556716
v 81.10824 17.6 -6.9978228
v 81.10824 -2.3999996 -6.9978228
v 81.10824 17.6 -6.9978228
v 81.10824 -2.3999996 -6.9978228
v 77.56387 17.6 -16.279486
v 77.56387 -2.3999996 -16.279486
v 77.56387 17.6 -16.279486
v 77.56387 -2.3999996 -16.279486
v 74.0195 17.6 -25.56115
v 74.0195 -2.3999996 -25.56115
v 74.0195 17.6 -25.56115
v 74.0195 -2.3999996 -25.56115
v 70.47513 17.6 -34.84281
v 70.47513 -2.3999996 -34.84281
v 70.47513 17.6 -34.84281
v 70.47513 -2.3999996 -34.84281
v 67.80068 17.6 -44.613083
v 67.80068 -2.3999996 -44.613083
v 67.80068 17.6 -44.613083
v 67.80068 -2.3999996 -44.613083
v 65.34372 17.6 -54.505505
v 65.34372 -2.3999996 -54.505505
v 65.34372 17.6 -54.505505
v 65.34372 -2.3999996 -54.505505
v 62.88675 17.6 -64.397934
v 62.88675 -2.3999996 -64.397934
v 62.88675 17.6 -64.397934
v 62.88675 -2.3999996 -64.397934
v 60.429783 17.6 -74.29035
v 60.429783 -2.3999996 -74.29035
v 60.429783 17.6 -74.29035
v 60.429783 -2.3999996 -74.29035
v 57.21164 17.6 -83.75524
v 57.21164 -2.3999996 -83.75524
v 57.21164 17.6 -83.75524
v 57.21164 -2.3999996 -83.75524
v 53.667267 17.6 -93.03691
v 53.667267 -2.3999996 -93.03691
v 53.667267 17.6 -93.03691
v 53.667267 -2.3999996 -93.03691
v 50.122894 17.6 -102.318565
v 50.122894 -2.3999996 -102.318565
v 50.122894 17.6 -102.318565
v 50.122894 -2.3999996 -102.318565
v 46.57853 17.6 -111.60022
v 46.57853 -2.3999996 -111.60022
v 46.57853 17.6 -111.60022
v 46.57853 -2.3999996 -111.60022
v 45.16078 17.6 -115.31289
v 45.16078 -2.3999996 -115.31289
v 45.16078 17.6 -115.31289
v 45.16078 -2.3999996 -115.31289
v 25.896877 17.6 -128.36208
v 25.896877 -2.3999996 -128.36208
v 77.30444 17.6 10.491147
v 77.30444 -2.3999996 10.491147
v 73.10182 17.6 7.6443276
v 73.10182 -2.3999996 7.6443276
v 73.10182 17.6 7.6443276
v 73.10182 -2.3999996 7.6443276
v 67.628334 17.6 0.5734303
v 67.628334 -2.3999996 0.5734303
v 67.628334 17.6 0.5734303
v 67.628334 -2.3999996 0.5734303
v 61.54669 17.6 -7.2831206
v 61.54669 -2.3999996 -7.2831206
v 61.54669 17.6 -7.2831206
v 61.54669 -2.3999996 -7.2831206
v 55.465042 17.6 -15.139669
v 55.465042 -2.3999996 -15.139669
v 55.465042 17.6 -15.139669
v 55.465042 -2.3999996 -15.139669
v 49.383396 17.6 -22.996223
v 49.383396 -2.3999996 -22.996223
v 49.383396 17.6 -22.996223
v 49.383396 -2.3999996 -22.996223
v 42.431828 17.6 -30.364162
v 42.431828 -2.3999996 -30.364162
v 42.431828 17.6 -30.364162
v 42.431828 -2.3999996 -30.364162
v 35.262775 17.6 -37.609955
v 35.262775 -2.3999996 -37.609955
v 35.262775 17.6 -37.609955
v 35.262775 -2.3999996 -37.609955
v 28.09373 17.6 -44.85574
v 28.09373 -2.3999996 -44.85574
v 28.09373 17.6 -44.85574
v 28.09373 -2.3999996 -44.85574
v 20.924679 17.6 -52.101524
v 20.924679 -2.3999996 -52.101524
v 20.924679 17.6 -52.101524
v 20.924679 -2.3999996 -52.101524
v 14.516806 17.6 -59.774853
v 14.516806 -2.3999996 -59.774853
v 14.516806 17.6 -59.774853
v 14.516806 -2.3999996 -59.774853
v 8.435167 17.6 -67.6314
v 8.435167 -2.3999996 -67.6314
v 8.435167 17.6 -67.6314
v 8.435167 -2.3999996 -67.6314
v 2.3535194 17.6 -75.487946
v 2.3535194 -2.3999996 -75.487946
v 2.3535194 17.6 -75.487946
v 2.3535194 -2.3999996 -75.487946
v -3.7281265 17.6 -83.344505
v -3.7281265 -2.3999996 -83.344505
v -3.7281265 17.6 -83.344505
v -3.7281265 -2.3999996 -83.344505
v -6.160784 17.6 -86.487114
v -6.160784 -2.3999996 -86.487114
v -6.160784 17.6 -86.487114
v -6.160784 -2.3999996 -86.487114
v -7.2797766 17.6 -109.72775
v -7.2797766 -2.3999996 -109.72775
vt -0.16161536 -0.14656956
vt -0.16209777 -0.13828221
vt -0.15695094 -0.14857198
vt -0.1576972 -0.13575213
vt -0.14804435 -0.14936529
vt -0.1489428 -0.13393076
vt -0.13814816 -0.15024674
vt -0.13921572 -0.13190703
vt -0.12825194 -0.1511282
vt -0.12948862 -0.12988329
vt -0.11835574 -0.15200965
vt -0.11976153 -0.12785956
vt -0.10840155 -0.15388717
vt -0.11009242 -0.12483977
vt -0.09843288 -0.15601371
vt -0.1004378 -0.12157095
vt -0.08846419 -0.15814024
vt -0.090783186 -0.11830214
vt -0.07849552 -0.16026676
vt -0.081128575 -0.11503332
vt -0.06857757 -0.16152175
vt -0.07142321 -0.11263606
vt -0.05868136 -0.16240321
vt -0.06169613 -0.11061233
vt -0.04878516 -0.16328466
vt -0.051969044 -0.1085886
vt -0.03888897 -0.16416611
vt -0.042241942 -0.10656487
vt -0.034930483 -0.1645187
vt -0.03835112 -0.105755374
vt -0.014759201 -0.15292133
vt -0.016970458 -0.11493398
vt -0.16161536 -0.14656956
vt -0.16161536 -0.14656956
vt -0.15695094 -0.14857198
vt -0.15695094 -0.14857198
vt -0.15695094 -0.14857198
vt -0.15695094 -0.14857198
vt -0.14804435 -0.14936529
vt -0.14804435 -0.14936529
vt -0.14804435 -0.14936529
vt -0.14804435 -0.14936529
vt -0.13814816 -0.15024674
vt -0.13814816 -0.15024674
vt -0.13814816 -0.15024674
vt -0.13814816 -0.15024674
vt -0.12825194 -0.1511282
vt -0.12825194 -0.1511282
vt -0.12825194 -0.1511282
vt -0.12825194 -0.1511282
vt -0.11835574 -0.15200965
vt -0.11835574 -0.15200965
vt -0.11835574 -0.15200965
vt -0.11835574 -0.15200965
vt -0.10840155 -0.15388717
vt -0.10840155 -0.15388717
vt -0.10840155 -0.15388717
vt -0.10840155 -0.15388717
vt -0.09843288 -0.15601371
vt -0.09843288 -0.15601371
vt -0.09843288 -0.15601371
vt -0.09843288 -0.15601371
vt -0.08846419 -0.15814024
vt -0.08846419 -0.15814024
vt -0.08846419 -0.15814024
vt -0.08846419 -0.15814024
vt -0.07849552 -0.16026676
vt -0.07849552 -0.16026676
vt -0.07849552 -0.16026676
vt -0.07849552 -0.16026676
vt -0.06857757 -0.16152175
vt -0.06857757 -0.16152175
vt -0.06857757 -0.16152175
vt -0.06857757 -0.16152175
vt -0.05868136 -0.16240321
vt -0.05868136 -0.16240321
vt -0.05868136 -0.16240321
vt -0.05868136 -0.16240321
vt -0.04878516 -0.16328466
vt -0.04878516 -0.16328466
vt -0.04878516 -0.16328466
vt -0.04878516 -0.16328466
vt -0.03888897 -0.16416611
vt -0.03888897 -0.16416611
vt -0.03888897 -0.16416611
vt -0.03888897 -0.16416611
vt -0.034930483 -0.1645187
vt -0.034930483 -0.1645187
vt -0.034930483 -0.1645187
vt -0.034930483 -0.1645187
vt -0.014759201 -0.15292133
vt -0.014759201 -0.15292133
vt -0.16209777 -0.13828221
vt -0.16209777 -0.13828221
vt -0.1576972 -0.13575213
vt -0.1576972 -0.13575213
vt -0.1576972 -0.13575213
vt -0.1576972 -0.13575213
vt -0.1489428 -0.13393076
vt -0.1489428 -0.13393076
vt -0.1489428 -0.13393076
vt -0.1489428 -0.13393076
vt -0.13921572 -0.13190703
vt -0.13921572 -0.13190703
vt -0.13921572 -0.13190703
vt -0.13921572 -0.13190703
vt -0.12948862 -0.12988329
vt -0.12948862 -0.12988329
vt -0.12948862 -0.12988329
vt -0.12948862 -0.12988329
vt -0.11976153 -0.12785956
vt -0.11976153 -0.12785956
vt -0.11976153 -0.12785956
vt -0.11976153 -0.12785956
vt -0.11009242 -0.12483977
vt -0.11009242 -0.12483977
vt -0.11009242 -0.12483977
vt -0.11009242 -0.12483977
vt -0.1004378 -0.12157095
vt -0.1004378 -0.12157095
vt -0.1004378 -0.12157095
vt -0.1004378 -0.12157095
vt -0.090783186 -0.11830214
vt -0.090783186 -0.11830214
vt -0.090783186 -0.11830214
vt -0.090783186 -0.11830214
vt -0.081128575 -0.11503332
vt -0.081128575 -0.11503332
vt -0.081128575 -0.11503332
vt -0.081128575 -0.11503332
vt -0.07142321 -0.11263606
vt -0.07142321 -0.11263606
vt -0.07142321 -0.11263606
vt -0.07142321 -0.11263606
vt -0.06169613 -0.11061233
vt -0.06169613 -0.11061233
vt -0.06169613 -0.11061233
vt -0.06169613 -0.11061233
vt -0.051969044 -0.1085886
vt -0.051969044 -0.1085886
vt -0.051969044 -0.1085886
vt -0.051969044 -0.1085886
vt -0.042241942 -0.10656487
vt -0.042241942 -0.10656487
vt -0.042241942 -0.10656487
vt -0.042241942 -0.10656487
vt -0.03835112 -0.105755374
vt -0.03835112 -0.105755374
vt -0.03835112 -0.105755374
vt -0.03835112 -0.105755374
vt -0.016970458 -0.11493398
vt -0.016970458 -0.11493398
vn -0 1 0
vn -0 1 0
vn -0 1 0
vn -0 1 0
vn -0 1 0
vn -0 1 0
vn -0 1 0
vn -0 1 0
vn -0 1 0
vn -0 1 0
vn -0 1 0
vn -0 1 0
vn -0 1 0
vn -0 1 0
vn -0 1 0
vn -0 1 0
vn -0 1 0
vn -0 1 0
vn -0 1 0
vn -0 1 0
vn -0 1 0
vn -0 1 0
vn -0 1 0
vn -0 1 0
vn -0 1 0
vn -0 1 0
vn -0 1 0
vn -0 1 0
vn -0 1 0
vn -0 1 0
vn -0 1 0
vn -0 1 0
vn 0.48971063 0 0.871885
vn 0.48971063 0 0.871885
vn 0.99884284 -0 -0.048093364
vn 0.99884284 -0 -0.048093364
vn 0.9342028 0 -0.35674232
vn 0.9342028 -0 -0.35674232
vn 0.9342028 -0 -0.35674232
vn 0.9342028 -0 -0.35674232
vn 0.934203 0 -0.35674173
vn 0.934203 -0 -0.35674173
vn 0.934203 -0 -0.35674173
vn 0.934203 -0 -0.35674173
vn 0.93420285 0 -0.35674238
vn 0.93420285 -0 -0.35674238
vn 0.93420285 -0 -0.35674238
vn 0.93420285 -0 -0.35674238
vn 0.93420273 0 -0.3567424
vn 0.93420273 -0 -0.3567424
vn 0.93420273 -0 -0.3567424
vn 0.93420273 -0 -0.3567424
vn 0.9645172 0 -0.2640202
vn 0.9645172 -0 -0.2640202
vn 0.9645172 -0 -0.2640202
vn 0.9645172 -0 -0.2640202
vn 0.970514 0 -0.24104477
vn 0.970514 -0 -0.24104477
vn 0.970514 -0 -0.24104477
vn 0.970514 -0 -0.24104477
vn 0.9705139 0 -0.24104531
vn 0.9705139 -0 -0.24104531
vn 0.9705139 -0 -0.24104531
vn 0.9705139 -0 -0.24104531
vn 0.9705139 0 -0.24104522
vn 0.9705139 -0 -0.24104522
vn 0.9705139 -0 -0.24104522
vn 0.9705139 -0 -0.24104522
vn 0.9467703 0 -0.32191
vn 0.9467703 -0 -0.32191
vn 0.9467703 -0 -0.32191
vn 0.9467703 -0 -0.32191
vn 0.93420285 0 -0.35674217
vn 0.93420285 -0 -0.35674217
vn 0.93420285 -0 -0.35674217
vn 0.93420285 -0 -0.35674217
vn 0.9342027 0 -0.3567427
vn 0.9342027 -0 -0.3567427
vn 0.9342027 -0 -0.3567427
vn 0.9342027 -0 -0.3567427
vn 0.9342029 0 -0.35674202
vn 0.9342029 -0 -0.35674202
vn 0.9342029 -0 -0.35674202
vn 0.9342029 -0 -0.35674202
vn 0.9342031 0 -0.35674173
vn 0.9342031 -0 -0.35674173
vn 0.9342031 -0 -0.35674173
vn 0.9342031 -0 -0.35674173
vn 0.5608318 0 -0.82792974
vn 0.5608318 -0 -0.82792974
vn -0.48971125 0 -0.8718847
vn -0.48971125 0 -0.8718847
vn 0.48971063 0 0.871885
vn 0.48971063 0 0.871885
vn -0.56083226 0 0.8279295
vn -0.56083226 0 0.8279295
vn -0.7907645 -0 0.6121204
vn -0.7907645 0 0.6121204
vn -0.7907645 0 0.6121204
vn -0.7907645 0 0.6121204
vn -0.79076505 -0 0.61211973
vn -0.79076505 0 0.61211973
vn -0.79076505 0 0.61211973
vn -0.79076505 0 0.61211973
vn -0.79076463 -0 0.61212033
vn -0.79076463 0 0.61212033
vn -0.79076463 0 0.61212033
vn -0.79076463 0 0.61212033
vn -0.790765 -0 0.6121199
vn -0.790765 0 0.6121199
vn -0.790765 0 0.6121199
vn -0.790765 0 0.6121199
vn -0.72736 -0 0.6862561
vn -0.72736 0 0.6862561
vn -0.72736 0 0.6862561
vn -0.72736 0 0.6862561
vn -0.71086115 -0 0.7033324
vn -0.71086115 0 0.7033324
vn -0.71086115 0 0.7033324
vn -0.71086115 0 0.7033324
vn -0.71086115 -0 0.70333236
vn -0.71086115 0 0.70333236
vn -0.71086115 0 0.70333236
vn -0.71086115 0 0.70333236
vn -0.7108608 -0 0.7033328
vn -0.7108608 0 0.7033328
vn -0.7108608 0 0.7033328
vn -0.7108608 0 0.7033328
vn -0.76756006 -0 0.6409771
vn -0.76756006 0 0.6409771
vn -0.76756006 0 0.6409771
vn -0.76756006 0 0.6409771
vn -0.7907651 -0 0.6121196
vn -0.7907651 0 0.6121196
vn -0.7907651 0 0.6121196
vn -0.7907651 0 0.6121196
vn -0.7907646 -0 0.61212045
vn -0.7907646 0 0.61212045
vn -0.7907646 0 0.61212045
vn -0.7907646 0 0.61212045
vn -0.79076517 -0 0.61211956
vn -0.79076517 0 0.61211956
vn -0.79076517 0 0.61211956
vn -0.79076517 0 0.61211956
vn -0.7907639 -0 0.6121212
vn -0.7907639 0 0.6121212
vn -0.7907639 0 0.6121212
vn -0.7907639 0 0.6121212
vn -0.9988429 -0 0.0480924
vn -0.9988429 0 0.0480924
vn -0.48971125 0 -0.8718847
vn -0.48971125 0 -0.8718847
g _0
f 3/3/3 2/2/2 1/1/1
f 2/2/2 3/3/3 4/4/4
f 5/5/5 4/4/4 3/3/3
f 4/4/4 5/5/5 6/6/6
f 7/7/7 6/6/6 5/5/5
f 6/6/6 7/7/7 8/8/8
f 9/9/9 8/8/8 7/7/7
f 8/8/8 9/9/9 10/10/10
f 11/11/11 10/10/10 9/9/9
f 10/10/10 11/11/11 12/12/12
f 13/13/13 12/12/12 11/11/11
f 12/12/12 13/13/13 14/14/14
f 15/15/15 14/14/14 13/13/13
f 14/14/14 15/15/15 16/16/16
f 17/17/17 16/16/16 15/15/15
f 16/16/16 17/17/17 18/18/18
f 19/19/19 18/18/18 17/17/17
f 18/18/18 19/19/19 20/20/20
f 21/21/21 20/20/20 19/19/19
f 20/20/20 21/21/21 22/22/22
f 23/23/23 22/22/22 21/21/21
f 22/22/22 23/23/23 24/24/24
f 25/25/25 24/24/24 23/23/23
f 24/24/24 25/25/25 26/26/26
f 27/27/27 26/26/26 25/25/25
f 26/26/26 27/27/27 28/28/28
f 29/29/29 28/28/28 27/27/27
f 28/28/28 29/29/29 30/30/30
f 31/31/31 30/30/30 29/29/29
f 30/30/30 31/31/31 32/32/32
g _1
f 33/33/33 34/34/34 35/35/35
f 36/36/36 35/35/35 34/34/34
f 37/37/37 38/38/38 39/39/39
f 40/40/40 39/39/39 38/38/38
f 41/41/41 42/42/42 43/43/43
f 44/44/44 43/43/43 42/42/42
f 45/45/45 46/46/46 47/47/47
f 48/48/48 47/47/47 46/46/46
f 49/49/49 50/50/50 51/51/51
f 52/52/52 51/51/51 50/50/50
f 53/53/53 54/54/54 55/55/55
f 56/56/56 55/55/55 54/54/54
f 57/57/57 58/58/58 59/59/59
f 60/60/60 59/59/59 58/58/58
f 61/61/61 62/62/62 63/63/63
f 64/64/64 63/63/63 62/62/62
f 65/65/65 66/66/66 67/67/67
f 68/68/68 67/67/67 66/66/66
f 69/69/69 70/70/70 71/71/71
f 72/72/72 71/71/71 70/70/70
f 73/73/73 74/74/74 75/75/75
f 76/76/76 75/75/75 74/74/74
f 77/77/77 78/78/78 79/79/79
f 80/80/80 79/79/79 78/78/78
f 81/81/81 82/82/82 83/83/83
f 84/84/84 83/83/83 82/82/82
f 85/85/85 86/86/86 87/87/87
f 88/88/88 87/87/87 86/86/86
f 89/89/89 90/90/90 91/91/91
f 92/92/92 91/91/91 90/90/90
f 95/95/95 94/94/94 93/93/93
f 94/94/94 95/95/95 96/96/96
f 99/99/99 98/98/98 97/97/97
f 98/98/98 99/99/99 100/100/100
f 103/103/103 102/102/102 101/101/101
f 102/102/102 103/103/103 104/104/104
f 107/107/107 106/106/106 105/105/105
f 106/106/106 107/107/107 108/108/108
f 111/111/111 110/110/110 109/109/109
f 110/110/110 111/111/111 112/112/112
f 115/115/115 114/114/114 113/113/113
f 114/114/114 115/115/115 116/116/116
f 119/119/119 118/118/118 117/117/117
f 118/118/118 119/119/119 120/120/120
f 123/123/123 122/122/122 121/121/121
f 122/122/122 123/123/123 124/124/124
f 127/127/127 126/126/126 125/125/125
f 126/126/126 127/127/127 128/128/128
f 131/131/131 130/130/130 129/129/129
f 130/130/130 131/131/131 132/132/132
f 135/135/135 134/134/134 133/133/133
f 134/134/134 135/135/135 136/136/136
f 139/139/139 138/138/138 137/137/137
f 138/138/138 139/139/139 140/140/140
f 143/143/143 142/142/142 141/141/141
f 142/142/142 143/143/143 144/144/144
f 147/147/147 146/146/146 145/145/145
f 146/146/146 147/147/147 148/148/148
f 151/151/151 150/150/150 149/149/149
f 150/150/150 151/151/151 152/152/152
f 93/93/93 34/34/34 33/33/33
f 34/34/34 93/93/93 94/94/94
f 91/91/91 92/92/92 151/151/151
f 152/152/152 151/151/151 92/92/92
