g 
v -25.956411 13.48 -10.158094
v -24.527533 13.48 13.39448
v -32.828392 13.48 -19.453588
v -30.225376 13.48 23.452555
v -48.301826 13.48 -23.483316
v -45.098175 13.48 29.323317
v -54.36932 13.84 -23.384167
v -56.103416 13.84 30.25993
v -59.811253 14.185841 -23.74049
v -69.34369 14.185841 28.424675
v -67.23505 14.044245 -25.117573
v -81.26921 14.044245 25.043621
v -75.4683 13.805555 -28.334995
v -92.06322 13.805555 22.282131
v -85.09236 13.603276 -31.347849
v -101.34426 13.603276 18.837702
v -97.20241 13.49 -34.473923
v -108.140144 13.49 16.176477
v -108.65553 13.49 -31.391825
v -115.7628 13.49 10.679689
v -116.58848 13.49 -25.777924
v -126.15687 13.49 1.1619081
v -125.197334 13.49 -25.090542
v -134.97096 13.49 -8.319137
v -131.65732 12.453287 -27.657074
v -144.76288 12.453287 -16.583153
v -133.39474 9.973168 -32.29953
v -150.10938 9.973168 -28.72721
v -133.39423 8.369074 -40.13232
v -150.56824 8.369074 -39.39762
v -134.3813 4.67 -46.709328
v -150.67082 4.67 -50.502853
v -131.4512 0.9709259 -51.387596
v -144.9035 0.9709259 -60.81031
v -126.596214 0.39407417 -55.266407
v -138.32358 0.39407417 -70.6876
v -119.898155 0.3394446 -55.061363
v -128.59158 0.3394446 -78.327034
v -112.25839 0.32000017 -56.378452
v -118.365234 0.32000017 -82.39064
v -103.73881 0.32000017 -56.28498
v -108.580666 0.32000017 -85.595055
v -103.44836 0.32000017 -55.98923
v -107.01165 0.32000017 -86.11077
v -95.22554 0.32000017 -59.953552
v -98.09083 0.32000017 -84.1745
v -92.31504 0.32000017 -65.78419
v -93.90022 0.32000017 -79.18392
v -25.956411 13.48 -10.158094
v -25.956411 -16.52 -10.158094
v -32.828392 13.48 -19.453588
v -32.828392 -16.52 -19.453588
v -32.828392 13.48 -19.453588
v -32.828392 -16.52 -19.453588
v -48.301826 13.48 -23.483316
v -48.301826 -16.52 -23.483316
v -48.301826 13.48 -23.483316
v -48.301826 -16.52 -23.483316
v -54.36932 13.84 -23.384167
v -54.36932 -16.16 -23.384167
v -54.36932 13.84 -23.384167
v -54.36932 -16.16 -23.384167
v -59.811253 14.185841 -23.74049
v -59.811253 -15.814159 -23.74049
v -59.811253 14.185841 -23.74049
v -59.811253 -15.814159 -23.74049
v -67.23505 14.044245 -25.117573
v -67.23505 -15.955755 -25.117573
v -67.23505 14.044245 -25.117573
v -67.23505 -15.955755 -25.117573
v -75.4683 13.805555 -28.334995
v -75.4683 -16.194445 -28.334995
v -75.4683 13.805555 -28.334995
v -75.4683 -16.194445 -28.334995
v -85.09236 13.603276 -31.347849
v -85.09236 -16.396725 -31.347849
v -85.09236 13.603276 -31.347849
v -85.09236 -16.396725 -31.347849
v -97.20241 13.49 -34.473923
v -97.20241 -16.51 -34.473923
v -97.20241 13.49 -34.473923
v -97.20241 -16.51 -34.473923
v -108.65553 13.49 -31.391825
v -108.65553 -16.51 -31.391825
v -108.65553 13.49 -31.391825
v -108.65553 -16.51 -31.391825
v -116.58848 13.49 -25.777924
v -116.58848 -16.51 -25.777924
v -116.58848 13.49 -25.777924
v -116.58848 -16.51 -25.777924
v -125.197334 13.49 -25.090542
v -125.197334 -16.51 -25.090542
v -125.197334 13.49 -25.090542
v -125.197334 -16.51 -25.090542
v -131.65732 12.453287 -27.657074
v -131.65732 -17.546713 -27.657074
v -131.65732 12.453287 -27.657074
v -131.65732 -17.546713 -27.657074
v -133.39474 9.973168 -32.29953
v -133.39474 -20.026833 -32.29953
v -133.39474 9.973168 -32.29953
v -133.39474 -20.026833 -32.29953
v -133.39423 8.369074 -40.13232
v -133.39423 -21.630926 -40.13232
v -133.39423 8.369074 -40.13232
v -133.39423 -21.630926 -40.13232
v -134.3813 4.67 -46.709328
v -134.3813 -25.33 -46.709328
v -134.3813 4.67 -46.709328
v -134.3813 -25.33 -46.709328
v -131.4512 0.9709259 -51.387596
v -131.4512 -29.029074 -51.387596
v -131.4512 0.9709259 -51.387596
v -131.4512 -29.029074 -51.387596
v -126.596214 0.39407417 -55.266407
v -126.596214 -29.605927 -55.266407
v -126.596214 0.39407417 -55.266407
v -126.596214 -29.605927 -55.266407
v -119.898155 0.3394446 -55.061363
v -119.898155 -29.660555 -55.061363
v -119.898155 0.3394446 -55.061363
v -119.898155 -29.660555 -55.061363
v -112.25839 0.32000017 -56.378452
v -112.25839 -29.68 -56.378452
v -112.25839 0.32000017 -56.378452
v -112.25839 -29.68 -56.378452
v -103.73881 0.32000017 -56.28498
v -103.73881 -29.68 -56.28498
v -103.73881 0.32000017 -56.28498
v -103.73881 -29.68 -56.28498
v -103.44836 0.32000017 -55.98923
v -103.44836 -29.68 -55.98923
v -103.44836 0.32000017 -55.98923
v -103.44836 -29.68 -55.98923
v -95.22554 0.32000017 -59.953552
v -95.22554 -29.68 -59.953552
v -95.22554 0.32000017 -59.953552
v -95.22554 -29.68 -59.953552
v -92.31504 0.32000017 -65.78419
v -92.31504 -29.68 -65.78419
v -24.527533 13.48 13.39448
v -24.527533 -16.52 13.39448
v -30.225376 13.48 23.452555
v -30.225376 -16.52 23.452555
v -30.225376 13.48 23.452555
v -30.225376 -16.52 23.452555
v -45.098175 13.48 29.323317
v -45.098175 -16.52 29.323317
v -45.098175 13.48 29.323317
v -45.098175 -16.52 29.323317
v -56.103416 13.84 30.25993
v -56.103416 -16.16 30.25993
v -56.103416 13.84 30.25993
v -56.103416 -16.16 30.25993
v -69.34369 14.185841 28.424675
v -69.34369 -15.814159 28.424675
v -69.34369 14.185841 28.424675
v -69.34369 -15.814159 28.424675
v -81.26921 14.044245 25.043621
v -81.26921 -15.955755 25.043621
v -81.26921 14.044245 25.043621
v -81.26921 -15.955755 25.043621
v -92.06322 13.805555 22.282131
v -92.06322 -16.194445 22.282131
v -92.06322 13.805555 22.282131
v -92.06322 -16.194445 22.282131
v -101.34426 13.603276 18.837702
v -101.34426 -16.396725 18.837702
v -101.34426 13.603276 18.837702
v -101.34426 -16.396725 18.837702
v -108.140144 13.49 16.176477
v -108.140144 -16.51 16.176477
v -108.140144 13.49 16.176477
v -108.140144 -16.51 16.176477
v -115.7628 13.49 10.679689
v -115.7628 -16.51 10.679689
v -115.7628 13.49 10.679689
v -115.7628 -16.51 10.679689
v -126.15687 13.49 1.1619081
v -126.15687 -16.51 1.1619081
v -126.15687 13.49 1.1619081
v -126.15687 -16.51 1.1619081
v -134.97096 13.49 -8.319137
v -134.97096 -16.51 -8.319137
v -134.97096 13.49 -8.319137
v -134.97096 -16.51 -8.319137
v -144.76288 12.453287 -16.583153
v -144.76288 -17.546713 -16.583153
v -144.76288 12.453287 -16.583153
v -144.76288 -17.546713 -16.583153
v -150.10938 9.973168 -28.72721
v -150.10938 -20.026833 -28.72721
v -150.10938 9.973168 -28.72721
v -150.10938 -20.026833 -28.72721
v -150.56824 8.369074 -39.39762
v -150.56824 -21.630926 -39.39762
v -150.56824 8.369074 -39.39762
v -150.56824 -21.630926 -39.39762
v -150.67082 4.67 -50.502853
v -150.67082 -25.33 -50.502853
v -150.67082 4.67 -50.502853
v -150.67082 -25.33 -50.502853
v -144.9035 0.9709259 -60.81031
v -144.9035 -29.029074 -60.81031
v -144.9035 0.9709259 -60.81031
v -144.9035 -29.029074 -60.81031
v -138.32358 0.39407417 -70.6876
v -138.32358 -29.605927 -70.6876
v -138.32358 0.39407417 -70.6876
v -138.32358 -29.605927 -70.6876
v -128.59158 0.3394446 -78.327034
v -128.59158 -29.660555 -78.327034
v -128.59158 0.3394446 -78.327034
v -128.59158 -29.660555 -78.327034
v -118.365234 0.32000017 -82.39064
v -118.365234 -29.68 -82.39064
v -118.365234 0.32000017 -82.39064
v -118.365234 -29.68 -82.39064
v -108.580666 0.32000017 -85.595055
v -108.580666 -29.68 -85.595055
v -108.580666 0.32000017 -85.595055
v -108.580666 -29.68 -85.595055
v -107.01165 0.32000017 -86.11077
v -107.01165 -29.68 -86.11077
v -107.01165 0.32000017 -86.11077
v -107.01165 -29.68 -86.11077
v -98.09083 0.32000017 -84.1745
v -98.09083 -29.68 -84.1745
v -98.09083 0.32000017 -84.1745
v -98.09083 -29.68 -84.1745
v -93.90022 0.32000017 -79.18392
v -93.90022 -29.68 -79.18392
vt 0.02784124 -0.0013370097
vt 0.01896567 0.020525968
vt 0.0373219 -0.007951197
vt 0.021153113 0.031876974
vt 0.05327199 -0.0068284776
vt 0.0333723 0.042189956
vt 0.058990106 -0.004796867
vt 0.043502163 0.04659204
vt 0.06426088 -0.0033966515
vt 0.056635227 0.04908117
vt 0.0717357 -0.0023308385
vt 0.06901603 0.049685568
vt 0.080565326 -0.002750499
vt 0.08012671 0.050515745
vt 0.09064759 -0.0025321478
vt 0.090021744 0.050215576
vt 0.10312183 -0.0016271895
vt 0.097311646 0.049863968
vt 0.112990975 0.0049510743
vt 0.10629055 0.0470893
vt 0.118715726 0.012804399
vt 0.11917985 0.04138924
vt 0.12665428 0.016205024
vt 0.13056019 0.035219435
vt 0.13359562 0.015835878
vt 0.14247848 0.030515194
vt 0.13672464 0.011991362
vt 0.15142323 0.02071444
vt 0.13922554 0.004568555
vt 0.15526564 0.010749302
vt 0.1422613 -0.0013488374
vt 0.1589093 0.00025833322
vt 0.14097865 -0.0067178644
vt 0.15673567 -0.011351187
vt 0.13761657 -0.011944008
vt 0.1536546 -0.022812568
vt 0.13120376 -0.013888725
vt 0.14687186 -0.03315989
vt 0.12438465 -0.017576605
vt 0.13847871 -0.040276494
vt 0.11628132 -0.020208757
vt 0.13022982 -0.04643782
vt 0.11591163 -0.020021247
vt 0.12890767 -0.047427595
vt 0.10938539 -0.02640394
vt 0.11983561 -0.048441578
vt 0.10848932 -0.032858733
vt 0.114270695 -0.045050588
vt 0.02784124 -0.0013370097
vt 0.02784124 -0.0013370097
vt 0.0373219 -0.007951197
vt 0.0373219 -0.007951197
vt 0.0373219 -0.007951197
vt 0.0373219 -0.007951197
vt 0.05327199 -0.0068284776
vt 0.05327199 -0.0068284776
vt 0.05327199 -0.0068284776
vt 0.05327199 -0.0068284776
vt 0.058990106 -0.004796867
vt 0.058990106 -0.004796867
vt 0.058990106 -0.004796867
vt 0.058990106 -0.004796867
vt 0.06426088 -0.0033966515
vt 0.06426088 -0.0033966515
vt 0.06426088 -0.0033966515
vt 0.06426088 -0.0033966515
vt 0.0717357 -0.0023308385
vt 0.0717357 -0.0023308385
vt 0.0717357 -0.0023308385
vt 0.0717357 -0.0023308385
vt 0.080565326 -0.002750499
vt 0.080565326 -0.002750499
vt 0.080565326 -0.002750499
vt 0.080565326 -0.002750499
vt 0.09064759 -0.0025321478
vt 0.09064759 -0.0025321478
vt 0.09064759 -0.0025321478
vt 0.09064759 -0.0025321478
vt 0.10312183 -0.0016271895
vt 0.10312183 -0.0016271895
vt 0.10312183 -0.0016271895
vt 0.10312183 -0.0016271895
vt 0.112990975 0.0049510743
vt 0.112990975 0.0049510743
vt 0.112990975 0.0049510743
vt 0.112990975 0.0049510743
vt 0.118715726 0.012804399
vt 0.118715726 0.012804399
vt 0.118715726 0.012804399
vt 0.118715726 0.012804399
vt 0.12665428 0.016205024
vt 0.12665428 0.016205024
vt 0.12665428 0.016205024
vt 0.12665428 0.016205024
vt 0.13359562 0.015835878
vt 0.13359562 0.015835878
vt 0.13359562 0.015835878
vt 0.13359562 0.015835878
vt 0.13672464 0.011991362
vt 0.13672464 0.011991362
vt 0.13672464 0.011991362
vt 0.13672464 0.011991362
vt 0.13922554 0.004568555
vt 0.13922554 0.004568555
vt 0.13922554 0.004568555
vt 0.13922554 0.004568555
vt 0.1422613 -0.0013488374
vt 0.1422613 -0.0013488374
vt 0.1422613 -0.0013488374
vt 0.1422613 -0.0013488374
vt 0.14097865 -0.0067178644
vt 0.14097865 -0.0067178644
vt 0.14097865 -0.0067178644
vt 0.14097865 -0.0067178644
vt 0.13761657 -0.011944008
vt 0.13761657 -0.011944008
vt 0.13761657 -0.011944008
vt 0.13761657 -0.011944008
vt 0.13120376 -0.013888725
vt 0.13120376 -0.013888725
vt 0.13120376 -0.013888725
vt 0.13120376 -0.013888725
vt 0.12438465 -0.017576605
vt 0.12438465 -0.017576605
vt 0.12438465 -0.017576605
vt 0.12438465 -0.017576605
vt 0.11628132 -0.020208757
vt 0.11628132 -0.020208757
vt 0.11628132 -0.020208757
vt 0.11628132 -0.020208757
vt 0.11591163 -0.020021247
vt 0.11591163 -0.020021247
vt 0.11591163 -0.020021247
vt 0.11591163 -0.020021247
vt 0.10938539 -0.02640394
vt 0.10938539 -0.02640394
vt 0.10938539 -0.02640394
vt 0.10938539 -0.02640394
vt 0.10848932 -0.032858733
vt 0.10848932 -0.032858733
vt 0.01896567 0.020525968
vt 0.01896567 0.020525968
vt 0.021153113 0.031876974
vt 0.021153113 0.031876974
vt 0.021153113 0.031876974
vt 0.021153113 0.031876974
vt 0.0333723 0.042189956
vt 0.0333723 0.042189956
vt 0.0333723 0.042189956
vt 0.0333723 0.042189956
vt 0.043502163 0.04659204
vt 0.043502163 0.04659204
vt 0.043502163 0.04659204
vt 0.043502163 0.04659204
vt 0.056635227 0.04908117
vt 0.056635227 0.04908117
vt 0.056635227 0.04908117
vt 0.056635227 0.04908117
vt 0.06901603 0.049685568
vt 0.06901603 0.049685568
vt 0.06901603 0.049685568
vt 0.06901603 0.049685568
vt 0.08012671 0.050515745
vt 0.08012671 0.050515745
vt 0.08012671 0.050515745
vt 0.08012671 0.050515745
vt 0.090021744 0.050215576
vt 0.090021744 0.050215576
vt 0.090021744 0.050215576
vt 0.090021744 0.050215576
vt 0.097311646 0.049863968
vt 0.097311646 0.049863968
vt 0.097311646 0.049863968
vt 0.097311646 0.049863968
vt 0.10629055 0.0470893
vt 0.10629055 0.0470893
vt 0.10629055 0.0470893
vt 0.10629055 0.0470893
vt 0.11917985 0.04138924
vt 0.11917985 0.04138924
vt 0.11917985 0.04138924
vt 0.11917985 0.04138924
vt 0.13056019 0.035219435
vt 0.13056019 0.035219435
vt 0.13056019 0.035219435
vt 0.13056019 0.035219435
vt 0.14247848 0.030515194
vt 0.14247848 0.030515194
vt 0.14247848 0.030515194
vt 0.14247848 0.030515194
vt 0.15142323 0.02071444
vt 0.15142323 0.02071444
vt 0.15142323 0.02071444
vt 0.15142323 0.02071444
vt 0.15526564 0.010749302
vt 0.15526564 0.010749302
vt 0.15526564 0.010749302
vt 0.15526564 0.010749302
vt 0.1589093 0.00025833322
vt 0.1589093 0.00025833322
vt 0.1589093 0.00025833322
vt 0.1589093 0.00025833322
vt 0.15673567 -0.011351187
vt 0.15673567 -0.011351187
vt 0.15673567 -0.011351187
vt 0.15673567 -0.011351187
vt 0.1536546 -0.022812568
vt 0.1536546 -0.022812568
vt 0.1536546 -0.022812568
vt 0.1536546 -0.022812568
vt 0.14687186 -0.03315989
vt 0.14687186 -0.03315989
vt 0.14687186 -0.03315989
vt 0.14687186 -0.03315989
vt 0.13847871 -0.040276494
vt 0.13847871 -0.040276494
vt 0.13847871 -0.040276494
vt 0.13847871 -0.040276494
vt 0.13022982 -0.04643782
vt 0.13022982 -0.04643782
vt 0.13022982 -0.04643782
vt 0.13022982 -0.04643782
vt 0.12890767 -0.047427595
vt 0.12890767 -0.047427595
vt 0.12890767 -0.047427595
vt 0.12890767 -0.047427595
vt 0.11983561 -0.048441578
vt 0.11983561 -0.048441578
vt 0.11983561 -0.048441578
vt 0.11983561 -0.048441578
vt 0.114270695 -0.045050588
vt 0.114270695 -0.045050588
vn -0 1 0
vn -0 1 0
vn -0 1 0
vn -0 1 0
vn -0 1 0
vn -0 1 0
vn -0 1 0
vn -0 1 0
vn -0 1 0
vn -0 1 0
vn -0 1 0
vn -0 1 0
vn -0 1 0
vn -0 1 0
vn -0 1 0
vn -0 1 0
vn -0 1 0
vn -0 1 0
vn -0 1 0
vn -0 1 0
vn -0 1 0
vn -0 1 0
vn -0 1 0
vn -0 1 0
vn -0 1 0
vn -0 1 0
vn -0 1 0
vn -0 1 0
vn -0 1 0
vn -0 1 0
vn -0 1 0
vn -0 1 0
vn -0 1 0
vn -0 1 0
vn -0 1 0
vn -0 1 0
vn -0 1 0
vn -0 1 0
vn -0 1 0
vn -0 1 0
vn -0 1 0
vn -0 1 0
vn -0 1 0
vn -0 1 0
vn -0 1 0
vn -0 1 0
vn -0 1 0
vn -0 1 0
vn 0.9981648 0 -0.06055629
vn 0.9981648 -0 -0.06055629
vn 0.8041183 -0 -0.5944693
vn 0.8041183 -0 -0.5944693
vn 0.2520225 0 -0.96772134
vn 0.2520225 -0 -0.96772134
vn 0.2520225 -0 -0.96772134
vn 0.2520225 -0 -0.96772134
vn -0.016338948 0 -0.9998665
vn -0.016338948 0 -0.9998665
vn -0.016338948 0 -0.9998665
vn -0.016338948 0 -0.9998665
vn 0.06533742 0 -0.99786323
vn 0.06533742 -0 -0.99786323
vn 0.06533742 -0 -0.99786323
vn 0.06533742 -0 -0.99786323
vn 0.18238457 0 -0.98322725
vn 0.18238457 -0 -0.98322725
vn 0.18238457 -0 -0.98322725
vn 0.18238457 -0 -0.98322725
vn 0.3639789 0 -0.9314072
vn 0.3639789 -0 -0.9314072
vn 0.3639789 -0 -0.9314072
vn 0.3639789 -0 -0.9314072
vn 0.29875684 0 -0.9543293
vn 0.29875684 -0 -0.9543293
vn 0.29875684 -0 -0.9543293
vn 0.29875684 -0 -0.9543293
vn 0.24994552 0 -0.96825993
vn 0.24994552 -0 -0.96825993
vn 0.24994552 -0 -0.96825993
vn 0.24994552 -0 -0.96825993
vn -0.2598606 0 -0.96564615
vn -0.2598606 0 -0.96564615
vn -0.2598606 0 -0.96564615
vn -0.2598606 0 -0.96564615
vn -0.57765627 0 -0.81628007
vn -0.57765627 0 -0.81628007
vn -0.57765627 0 -0.81628007
vn -0.57765627 0 -0.81628007
vn -0.07959257 0 -0.9968275
vn -0.07959257 0 -0.9968275
vn -0.07959257 0 -0.9968275
vn -0.07959257 0 -0.9968275
vn 0.36922413 0 -0.92934036
vn 0.36922413 -0 -0.92934036
vn 0.36922413 -0 -0.92934036
vn 0.36922413 -0 -0.92934036
vn 0.93656075 0 -0.35050535
vn 0.93656075 -0 -0.35050535
vn 0.93656075 -0 -0.35050535
vn 0.93656075 -0 -0.35050535
vn 1 0 6.623423E-05
vn 1 0 6.623423E-05
vn 1 0 6.623423E-05
vn 1 0 6.623423E-05
vn 0.98892474 0 -0.14841762
vn 0.98892474 -0 -0.14841762
vn 0.98892474 -0 -0.14841762
vn 0.98892474 -0 -0.14841762
vn 0.84749466 0 0.530804
vn 0.84749466 0 0.530804
vn 0.84749466 0 0.530804
vn 0.84749466 0 0.530804
vn 0.6241867 0 0.7812752
vn 0.6241867 0 0.7812752
vn 0.6241867 0 0.7812752
vn 0.6241867 0 0.7812752
vn -0.030598085 -0 0.99953175
vn -0.030598085 0 0.99953175
vn -0.030598085 0 0.99953175
vn -0.030598085 0 0.99953175
vn 0.16989295 0 0.9854625
vn 0.16989295 0 0.9854625
vn 0.16989295 0 0.9854625
vn 0.16989295 0 0.9854625
vn -0.010970711 -0 0.9999398
vn -0.010970711 0 0.9999398
vn -0.010970711 0 0.9999398
vn -0.010970711 0 0.9999398
vn -0.7134691 -0 0.7006867
vn -0.7134691 0 0.7006867
vn -0.7134691 0 0.7006867
vn -0.7134691 0 0.7006867
vn 0.43427685 0 0.9007794
vn 0.43427685 0 0.9007794
vn 0.43427685 0 0.9007794
vn 0.43427685 0 0.9007794
vn 0.8947227 0 0.446622
vn 0.8947227 0 0.446622
vn 0.9930752 0 -0.11748032
vn 0.9930752 -0 -0.11748032
vn 0.9981648 -0 -0.06055629
vn 0.9981648 -0 -0.06055629
vn 0.87008643 0 0.49289912
vn 0.87008643 0 0.49289912
vn 0.36716223 0 0.9301569
vn 0.36716223 0 0.9301569
vn 0.36716223 0 0.9301569
vn 0.36716223 0 0.9301569
vn 0.08479955 0 0.99639803
vn 0.08479955 0 0.99639803
vn 0.08479955 0 0.99639803
vn 0.08479955 0 0.99639803
vn -0.13729884 -0 0.99052966
vn -0.13729884 0 0.99052966
vn -0.13729884 0 0.99052966
vn -0.13729884 0 0.99052966
vn -0.27276358 -0 0.9620811
vn -0.27276358 0 0.9620811
vn -0.27276358 0 0.9620811
vn -0.27276358 0 0.9620811
vn -0.24785283 -0 0.9687977
vn -0.24785283 0 0.9687977
vn -0.24785283 0 0.9687977
vn -0.24785283 0 0.9687977
vn -0.34793657 -0 0.93751806
vn -0.34793657 0 0.93751806
vn -0.34793657 0 0.93751806
vn -0.34793657 0 0.93751806
vn -0.3646329 -0 0.93115133
vn -0.3646329 0 0.93115133
vn -0.3646329 0 0.93115133
vn -0.3646329 0 0.93115133
vn -0.5848984 -0 0.8111065
vn -0.5848984 0 0.8111065
vn -0.5848984 0 0.8111065
vn -0.5848984 0 0.8111065
vn -0.6753347 -0 0.73751146
vn -0.6753347 0 0.73751146
vn -0.6753347 0 0.73751146
vn -0.6753347 0 0.73751146
vn -0.73239785 -0 0.6808769
vn -0.73239785 0 0.6808769
vn -0.73239785 0 0.6808769
vn -0.73239785 0 0.6808769
vn -0.64496607 -0 0.7642112
vn -0.64496607 0 0.7642112
vn -0.64496607 0 0.7642112
vn -0.64496607 0 0.7642112
vn -0.91522855 -0 0.4029351
vn -0.91522855 0 0.4029351
vn -0.91522855 0 0.4029351
vn -0.91522855 0 0.4029351
vn -0.99907666 -0 0.042963535
vn -0.99907666 0 0.042963535
vn -0.99907666 0 0.042963535
vn -0.99907666 0 0.042963535
vn -0.9999573 -0 0.009237128
vn -0.9999573 0 0.009237128
vn -0.9999573 0 0.009237128
vn -0.9999573 0 0.009237128
vn -0.87268126 0 -0.4882903
vn -0.87268126 0 -0.4882903
vn -0.87268126 0 -0.4882903
vn -0.87268126 0 -0.4882903
vn -0.8322421 0 -0.55441236
vn -0.8322421 0 -0.55441236
vn -0.8322421 0 -0.55441236
vn -0.8322421 0 -0.55441236
vn -0.6174651 0 -0.7865983
vn -0.6174651 0 -0.7865983
vn -0.6174651 0 -0.7865983
vn -0.6174651 0 -0.7865983
vn -0.36927977 0 -0.9293183
vn -0.36927977 0 -0.9293183
vn -0.36927977 0 -0.9293183
vn -0.36927977 0 -0.9293183
vn -0.31123134 0 -0.9503342
vn -0.31123134 0 -0.9503342
vn -0.31123134 0 -0.9503342
vn -0.31123134 0 -0.9503342
vn -0.31225324 0 -0.94999886
vn -0.31225324 0 -0.94999886
vn -0.31225324 0 -0.94999886
vn -0.31225324 0 -0.94999886
vn 0.21211189 0 -0.97724533
vn 0.21211189 -0 -0.97724533
vn 0.21211189 -0 -0.97724533
vn 0.21211189 -0 -0.97724533
vn 0.7658167 0 -0.6430589
vn 0.7658167 -0 -0.6430589
vn 0.9930752 -0 -0.11748032
vn 0.9930752 -0 -0.11748032
g _0
f 3/3/3 2/2/2 1/1/1
f 2/2/2 3/3/3 4/4/4
f 5/5/5 4/4/4 3/3/3
f 4/4/4 5/5/5 6/6/6
f 7/7/7 6/6/6 5/5/5
f 6/6/6 7/7/7 8/8/8
f 9/9/9 8/8/8 7/7/7
f 8/8/8 9/9/9 10/10/10
f 11/11/11 10/10/10 9/9/9
f 10/10/10 11/11/11 12/12/12
f 13/13/13 12/12/12 11/11/11
f 12/12/12 13/13/13 14/14/14
f 15/15/15 14/14/14 13/13/13
f 14/14/14 15/15/15 16/16/16
f 17/17/17 16/16/16 15/15/15
f 16/16/16 17/17/17 18/18/18
f 19/19/19 18/18/18 17/17/17
f 18/18/18 19/19/19 20/20/20
f 21/21/21 20/20/20 19/19/19
f 20/20/20 21/21/21 22/22/22
f 23/23/23 22/22/22 21/21/21
f 22/22/22 23/23/23 24/24/24
f 25/25/25 24/24/24 23/23/23
f 24/24/24 25/25/25 26/26/26
f 27/27/27 26/26/26 25/25/25
f 26/26/26 27/27/27 28/28/28
f 29/29/29 28/28/28 27/27/27
f 28/28/28 29/29/29 30/30/30
f 31/31/31 30/30/30 29/29/29
f 30/30/30 31/31/31 32/32/32
f 33/33/33 32/32/32 31/31/31
f 32/32/32 33/33/33 34/34/34
f 35/35/35 34/34/34 33/33/33
f 34/34/34 35/35/35 36/36/36
f 37/37/37 36/36/36 35/35/35
f 36/36/36 37/37/37 38/38/38
f 39/39/39 38/38/38 37/37/37
f 38/38/38 39/39/39 40/40/40
f 41/41/41 40/40/40 39/39/39
f 40/40/40 41/41/41 42/42/42
f 43/43/43 42/42/42 41/41/41
f 42/42/42 43/43/43 44/44/44
f 45/45/45 44/44/44 43/43/43
f 44/44/44 45/45/45 46/46/46
f 47/47/47 46/46/46 45/45/45
f 46/46/46 47/47/47 48/48/48
g _1
f 49/49/49 50/50/50 51/51/51
f 52/52/52 51/51/51 50/50/50
f 53/53/53 54/54/54 55/55/55
f 56/56/56 55/55/55 54/54/54
f 57/57/57 58/58/58 59/59/59
f 60/60/60 59/59/59 58/58/58
f 61/61/61 62/62/62 63/63/63
f 64/64/64 63/63/63 62/62/62
f 65/65/65 66/66/66 67/67/67
f 68/68/68 67/67/67 66/66/66
f 69/69/69 70/70/70 71/71/71
f 72/72/72 71/71/71 70/70/70
f 73/73/73 74/74/74 75/75/75
f 76/76/76 75/75/75 74/74/74
f 77/77/77 78/78/78 79/79/79
f 80/80/80 79/79/79 78/78/78
f 81/81/81 82/82/82 83/83/83
f 84/84/84 83/83/83 82/82/82
f 85/85/85 86/86/86 87/87/87
f 88/88/88 87/87/87 86/86/86
f 89/89/89 90/90/90 91/91/91
f 92/92/92 91/91/91 90/90/90
f 93/93/93 94/94/94 95/95/95
f 96/96/96 95/95/95 94/94/94
f 97/97/97 98/98/98 99/99/99
f 100/100/100 99/99/99 98/98/98
f 101/101/101 102/102/102 103/103/103
f 104/104/104 103/103/103 102/102/102
f 105/105/105 106/106/106 107/107/107
f 108/108/108 107/107/107 106/106/106
f 109/109/109 110/110/110 111/111/111
f 112/112/112 111/111/111 110/110/110
f 113/113/113 114/114/114 115/115/115
f 116/116/116 115/115/115 114/114/114
f 117/117/117 118/118/118 119/119/119
f 120/120/120 119/119/119 118/118/118
f 121/121/121 122/122/122 123/123/123
f 124/124/124 123/123/123 122/122/122
f 125/125/125 126/126/126 127/127/127
f 128/128/128 127/127/127 126/126/126
f 129/129/129 130/130/130 131/131/131
f 132/132/132 131/131/131 130/130/130
f 133/133/133 134/134/134 135/135/135
f 136/136/136 135/135/135 134/134/134
f 137/137/137 138/138/138 139/139/139
f 140/140/140 139/139/139 138/138/138
f 143/143/143 142/142/142 141/141/141
f 142/142/142 143/143/143 144/144/144
f 147/147/147 146/146/146 145/145/145
f 146/146/146 147/147/147 148/148/148
f 151/151/151 150/150/150 149/149/149
f 150/150/150 151/151/151 152/152/152
f 155/155/155 154/154/154 153/153/153
f 154/154/154 155/155/155 156/156/156
f 159/159/159 158/158/158 157/157/157
f 158/158/158 159/159/159 160/160/160
f 163/163/163 162/162/162 161/161/161
f 162/162/162 163/163/163 164/164/164
f 167/167/167 166/166/166 165/165/165
f 166/166/166 167/167/167 168/168/168
f 171/171/171 170/170/170 169/169/169
f 170/170/170 171/171/171 172/172/172
f 175/175/175 174/174/174 173/173/173
f 174/174/174 175/175/175 176/176/176
f 179/179/179 178/178/178 177/177/177
f 178/178/178 179/179/179 180/180/180
f 183/183/183 182/182/182 181/181/181
f 182/182/182 183/183/183 184/184/184
f 187/187/187 186/186/186 185/185/185
f 186/186/186 187/187/187 188/188/188
f 191/191/191 190/190/190 189/189/189
f 190/190/190 191/191/191 192/192/192
f 195/195/195 194/194/194 193/193/193
f 194/194/194 195/195/195 196/196/196
f 199/199/199 198/198/198 197/197/197
f 198/198/198 199/199/199 200/200/200
f 203/203/203 202/202/202 201/201/201
f 202/202/202 203/203/203 204/204/204
f 207/207/207 206/206/206 205/205/205
f 206/206/206 207/207/207 208/208/208
f 211/211/211 210/210/210 209/209/209
f 210/210/210 211/211/211 212/212/212
f 215/215/215 214/214/214 213/213/213
f 214/214/214 215/215/215 216/216/216
f 219/219/219 218/218/218 217/217/217
f 218/218/218 219/219/219 220/220/220
f 223/223/223 222/222/222 221/221/221
f 222/222/222 223/223/223 224/224/224
f 227/227/227 226/226/226 225/225/225
f 226/226/226 227/227/227 228/228/228
f 231/231/231 230/230/230 229/229/229
f 230/230/230 231/231/231 232/232/232
f 141/141/141 50/50/50 49/49/49
f 50/50/50 141/141/141 142/142/142
f 139/139/139 140/140/140 231/231/231
f 232/232/232 231/231/231 140/140/140
