g 
v 28.68734 18.6 -87.792366
v 38.527184 18.6 -95.039276
v 26.789707 18.6 -82.41214
v 44.22817 18.6 -95.255325
v 29.302858 18.6 -74.64805
v 50.89714 18.6 -90.55195
v 34.330383 18.6 -68.56745
v 55.21247 18.6 -83.94683
v 39.99566 18.6 -61.869514
v 59.92815 18.6 -76.54954
v 41.10023 18.6 -60.508934
v 60.89977 18.6 -75.09107
v 47.21494 18.6 -56.196472
v 63.20406 18.6 -67.97227
v 52.44211 18.6 -56.394566
v 61.46415 18.6 -63.03918
v 28.68734 18.6 -87.792366
v 28.68734 -11.4 -87.792366
v 26.789707 18.6 -82.41214
v 26.789707 -11.4 -82.41214
v 26.789707 18.6 -82.41214
v 26.789707 -11.4 -82.41214
v 29.302858 18.6 -74.64805
v 29.302858 -11.4 -74.64805
v 29.302858 18.6 -74.64805
v 29.302858 -11.4 -74.64805
v 34.330383 18.6 -68.56745
v 34.330383 -11.4 -68.56745
v 34.330383 18.6 -68.56745
v 34.330383 -11.4 -68.56745
v 39.99566 18.6 -61.869514
v 39.99566 -11.4 -61.869514
v 39.99566 18.6 -61.869514
v 39.99566 -11.4 -61.869514
v 41.10023 18.6 -60.508934
v 41.10023 -11.4 -60.508934
v 41.10023 18.6 -60.508934
v 41.10023 -11.4 -60.508934
v 47.21494 18.6 -56.196472
v 47.21494 -11.4 -56.196472
v 47.21494 18.6 -56.196472
v 47.21494 -11.4 -56.196472
v 52.44211 18.6 -56.394566
v 52.44211 -11.4 -56.394566
v 38.527184 18.6 -95.039276
v 38.527184 -11.4 -95.039276
v 44.22817 18.6 -95.255325
v 44.22817 -11.4 -95.255325
v 44.22817 18.6 -95.255325
v 44.22817 -11.4 -95.255325
v 50.89714 18.6 -90.55195
v 50.89714 -11.4 -90.55195
v 50.89714 18.6 -90.55195
v 50.89714 -11.4 -90.55195
v 55.21247 18.6 -83.94683
v 55.21247 -11.4 -83.94683
v 55.21247 18.6 -83.94683
v 55.21247 -11.4 -83.94683
v 59.92815 18.6 -76.54954
v 59.92815 -11.4 -76.54954
v 59.92815 18.6 -76.54954
v 59.92815 -11.4 -76.54954
v 60.89977 18.6 -75.09107
v 60.89977 -11.4 -75.09107
v 60.89977 18.6 -75.09107
v 60.89977 -11.4 -75.09107
v 63.20406 18.6 -67.97227
v 63.20406 -11.4 -67.97227
v 63.20406 18.6 -67.97227
v 63.20406 -11.4 -67.97227
v 61.46415 18.6 -63.03918
v 61.46415 -11.4 -63.03918
vt -0.1301738 -0.039887
vt -0.11924849 -0.04536219
vt -0.13582899 -0.04063988
vt -0.11646682 -0.05034317
vt -0.14160475 -0.04640507
vt -0.11762831 -0.05842079
vt -0.14473875 -0.05364578
vt -0.12155306 -0.06526521
vt -0.14813308 -0.06173504
vt -0.12600173 -0.07282609
vt -0.14884357 -0.06333705
vt -0.12685983 -0.0743541
vt -0.14990853 -0.07074332
vt -0.13215557 -0.07964015
vt -0.14735806 -0.07531033
vt -0.13734075 -0.08033047
vt -0.1301738 -0.039887
vt -0.1301738 -0.039887
vt -0.13582899 -0.04063988
vt -0.13582899 -0.04063988
vt -0.13582899 -0.04063988
vt -0.13582899 -0.04063988
vt -0.14160475 -0.04640507
vt -0.14160475 -0.04640507
vt -0.14160475 -0.04640507
vt -0.14160475 -0.04640507
vt -0.14473875 -0.05364578
vt -0.14473875 -0.05364578
vt -0.14473875 -0.05364578
vt -0.14473875 -0.05364578
vt -0.14813308 -0.06173504
vt -0.14813308 -0.06173504
vt -0.14813308 -0.06173504
vt -0.14813308 -0.06173504
vt -0.14884357 -0.06333705
vt -0.14884357 -0.06333705
vt -0.14884357 -0.06333705
vt -0.14884357 -0.06333705
vt -0.14990853 -0.07074332
vt -0.14990853 -0.07074332
vt -0.14990853 -0.07074332
vt -0.14990853 -0.07074332
vt -0.14735806 -0.07531033
vt -0.14735806 -0.07531033
vt -0.11924849 -0.04536219
vt -0.11924849 -0.04536219
vt -0.11646682 -0.05034317
vt -0.11646682 -0.05034317
vt -0.11646682 -0.05034317
vt -0.11646682 -0.05034317
vt -0.11762831 -0.05842079
vt -0.11762831 -0.05842079
vt -0.11762831 -0.05842079
vt -0.11762831 -0.05842079
vt -0.12155306 -0.06526521
vt -0.12155306 -0.06526521
vt -0.12155306 -0.06526521
vt -0.12155306 -0.06526521
vt -0.12600173 -0.07282609
vt -0.12600173 -0.07282609
vt -0.12600173 -0.07282609
vt -0.12600173 -0.07282609
vt -0.12685983 -0.0743541
vt -0.12685983 -0.0743541
vt -0.12685983 -0.0743541
vt -0.12685983 -0.0743541
vt -0.13215557 -0.07964015
vt -0.13215557 -0.07964015
vt -0.13215557 -0.07964015
vt -0.13215557 -0.07964015
vt -0.13734075 -0.08033047
vt -0.13734075 -0.08033047
vn -0 1 0
vn -0 1 0
vn -0 1 0
vn -0 1 0
vn -0 1 0
vn -0 1 0
vn -0 1 0
vn -0 1 0
vn -0 1 0
vn -0 1 0
vn -0 1 0
vn -0 1 0
vn -0 1 0
vn -0 1 0
vn -0 1 0
vn -0 1 0
vn -0.59301335 0 -0.8051926
vn -0.59301335 0 -0.8051926
vn -0.9430602 0 -0.33262205
vn -0.9430602 0 -0.33262205
vn -0.9514 -0 0.3079577
vn -0.9514 0 0.3079577
vn -0.9514 0 0.3079577
vn -0.9514 0 0.3079577
vn -0.7706864 -0 0.6372146
vn -0.7706864 0 0.6372146
vn -0.7706864 0 0.6372146
vn -0.7706864 0 0.6372146
vn -0.76351047 -0 0.6457954
vn -0.76351047 0 0.6457954
vn -0.76351047 0 0.6457954
vn -0.76351047 0 0.6457954
vn -0.7763651 -0 0.6302835
vn -0.7763651 0 0.6302835
vn -0.7763651 0 0.6302835
vn -0.7763651 0 0.6302835
vn -0.57634395 -0 0.8172072
vn -0.57634395 0 0.8172072
vn -0.57634395 0 0.8172072
vn -0.57634395 0 0.8172072
vn 0.037869703 0 0.9992827
vn 0.037869703 0 0.9992827
vn 0.59301364 0 0.8051924
vn 0.59301364 0 0.8051924
vn -0.59301335 0 -0.8051926
vn -0.59301335 0 -0.8051926
vn -0.037869636 0 -0.99928266
vn -0.037869636 0 -0.99928266
vn 0.57634515 0 -0.8172064
vn 0.57634515 -0 -0.8172064
vn 0.57634515 -0 -0.8172064
vn 0.57634515 -0 -0.8172064
vn 0.83716697 0 -0.5469474
vn 0.83716697 -0 -0.5469474
vn 0.83716697 -0 -0.5469474
vn 0.83716697 -0 -0.5469474
vn 0.84323215 0 -0.5375496
vn 0.84323215 -0 -0.5375496
vn 0.84323215 -0 -0.5375496
vn 0.84323215 -0 -0.5375496
vn 0.8322324 0 -0.5544269
vn 0.8322324 -0 -0.5544269
vn 0.8322324 -0 -0.5544269
vn 0.8322324 -0 -0.5544269
vn 0.95139956 0 -0.30795917
vn 0.95139956 -0 -0.30795917
vn 0.95139956 -0 -0.30795917
vn 0.95139956 -0 -0.30795917
vn 0.9430611 0 0.33261967
vn 0.9430611 0 0.33261967
vn 0.59301364 0 0.8051924
vn 0.59301364 0 0.8051924
g _0
f 3/3/3 2/2/2 1/1/1
f 2/2/2 3/3/3 4/4/4
f 5/5/5 4/4/4 3/3/3
f 4/4/4 5/5/5 6/6/6
f 7/7/7 6/6/6 5/5/5
f 6/6/6 7/7/7 8/8/8
f 9/9/9 8/8/8 7/7/7
f 8/8/8 9/9/9 10/10/10
f 11/11/11 10/10/10 9/9/9
f 10/10/10 11/11/11 12/12/12
f 13/13/13 12/12/12 11/11/11
f 12/12/12 13/13/13 14/14/14
f 15/15/15 14/14/14 13/13/13
f 14/14/14 15/15/15 16/16/16
g _1
f 17/17/17 18/18/18 19/19/19
f 20/20/20 19/19/19 18/18/18
f 21/21/21 22/22/22 23/23/23
f 24/24/24 23/23/23 22/22/22
f 25/25/25 26/26/26 27/27/27
f 28/28/28 27/27/27 26/26/26
f 29/29/29 30/30/30 31/31/31
f 32/32/32 31/31/31 30/30/30
f 33/33/33 34/34/34 35/35/35
f 36/36/36 35/35/35 34/34/34
f 37/37/37 38/38/38 39/39/39
f 40/40/40 39/39/39 38/38/38
f 41/41/41 42/42/42 43/43/43
f 44/44/44 43/43/43 42/42/42
f 47/47/47 46/46/46 45/45/45
f 46/46/46 47/47/47 48/48/48
f 51/51/51 50/50/50 49/49/49
f 50/50/50 51/51/51 52/52/52
f 55/55/55 54/54/54 53/53/53
f 54/54/54 55/55/55 56/56/56
f 59/59/59 58/58/58 57/57/57
f 58/58/58 59/59/59 60/60/60
f 63/63/63 62/62/62 61/61/61
f 62/62/62 63/63/63 64/64/64
f 67/67/67 66/66/66 65/65/65
f 66/66/66 67/67/67 68/68/68
f 71/71/71 70/70/70 69/69/69
f 70/70/70 71/71/71 72/72/72
f 45/45/45 18/18/18 17/17/17
f 18/18/18 45/45/45 46/46/46
f 43/43/43 44/44/44 71/71/71
f 72/72/72 71/71/71 44/44/44
