g 
v 20.638096 18.6 -106.165375
v 32.467655 18.6 -109.23158
v 16.87514 18.6 -101.87723
v 37.839836 18.6 -107.31128
v 16.319565 18.6 -93.73547
v 42.280434 18.6 -100.46452
v 20.057377 18.6 -83.641304
v 42.832985 18.6 -94.006355
v 26.752005 18.6 -73.7578
v 46.312077 18.6 -88.65961
v 32.469234 18.6 -67.19235
v 51.892414 18.6 -82.272156
v 38.73597 18.6 -58.386898
v 56.876686 18.6 -74.987335
v 48.817745 18.6 -50.040512
v 61.402805 18.6 -71.165764
v 60.089752 18.6 -45.462822
v 67.330734 18.6 -68.962364
v 67.24576 18.6 -44.09528
v 71.55425 18.6 -68.30472
v 74.649 18.6 -45.18108
v 78.12833 18.6 -64.731415
v 78.30184 18.6 -48.925323
v 80.26508 18.6 -59.95681
v 20.638096 18.6 -106.165375
v 20.638096 -11.4 -106.165375
v 16.87514 18.6 -101.87723
v 16.87514 -11.4 -101.87723
v 16.87514 18.6 -101.87723
v 16.87514 -11.4 -101.87723
v 16.319565 18.6 -93.73547
v 16.319565 -11.4 -93.73547
v 16.319565 18.6 -93.73547
v 16.319565 -11.4 -93.73547
v 20.057377 18.6 -83.641304
v 20.057377 -11.4 -83.641304
v 20.057377 18.6 -83.641304
v 20.057377 -11.4 -83.641304
v 26.752005 18.6 -73.7578
v 26.752005 -11.4 -73.7578
v 26.752005 18.6 -73.7578
v 26.752005 -11.4 -73.7578
v 32.469234 18.6 -67.19235
v 32.469234 -11.4 -67.19235
v 32.469234 18.6 -67.19235
v 32.469234 -11.4 -67.19235
v 38.73597 18.6 -58.386898
v 38.73597 -11.4 -58.386898
v 38.73597 18.6 -58.386898
v 38.73597 -11.4 -58.386898
v 48.817745 18.6 -50.040512
v 48.817745 -11.4 -50.040512
v 48.817745 18.6 -50.040512
v 48.817745 -11.4 -50.040512
v 60.089752 18.6 -45.462822
v 60.089752 -11.4 -45.462822
v 60.089752 18.6 -45.462822
v 60.089752 -11.4 -45.462822
v 67.24576 18.6 -44.09528
v 67.24576 -11.4 -44.09528
v 67.24576 18.6 -44.09528
v 67.24576 -11.4 -44.09528
v 74.649 18.6 -45.18108
v 74.649 -11.4 -45.18108
v 74.649 18.6 -45.18108
v 74.649 -11.4 -45.18108
v 78.30184 18.6 -48.925323
v 78.30184 -11.4 -48.925323
v 32.467655 18.6 -109.23158
v 32.467655 -11.4 -109.23158
v 37.839836 18.6 -107.31128
v 37.839836 -11.4 -107.31128
v 37.839836 18.6 -107.31128
v 37.839836 -11.4 -107.31128
v 42.280434 18.6 -100.46452
v 42.280434 -11.4 -100.46452
v 42.280434 18.6 -100.46452
v 42.280434 -11.4 -100.46452
v 42.832985 18.6 -94.006355
v 42.832985 -11.4 -94.006355
v 42.832985 18.6 -94.006355
v 42.832985 -11.4 -94.006355
v 46.312077 18.6 -88.65961
v 46.312077 -11.4 -88.65961
v 46.312077 18.6 -88.65961
v 46.312077 -11.4 -88.65961
v 51.892414 18.6 -82.272156
v 51.892414 -11.4 -82.272156
v 51.892414 18.6 -82.272156
v 51.892414 -11.4 -82.272156
v 56.876686 18.6 -74.987335
v 56.876686 -11.4 -74.987335
v 56.876686 18.6 -74.987335
v 56.876686 -11.4 -74.987335
v 61.402805 18.6 -71.165764
v 61.402805 -11.4 -71.165764
v 61.402805 18.6 -71.165764
v 61.402805 -11.4 -71.165764
v 67.330734 18.6 -68.962364
v 67.330734 -11.4 -68.962364
v 67.330734 18.6 -68.962364
v 67.330734 -11.4 -68.962364
v 71.55425 18.6 -68.30472
v 71.55425 -11.4 -68.30472
v 71.55425 18.6 -68.30472
v 71.55425 -11.4 -68.30472
v 78.12833 18.6 -64.731415
v 78.12833 -11.4 -64.731415
v 78.12833 18.6 -64.731415
v 78.12833 -11.4 -64.731415
v 80.26508 18.6 -59.95681
v 80.26508 -11.4 -59.95681
vt -0.112506896 0.049963437
vt -0.10166564 0.044323638
vt -0.118172824 0.049296156
vt -0.09895962 0.039301153
vt -0.12403513 0.04361898
vt -0.100243144 0.031242026
vt -0.1280144 0.033617537
vt -0.10415527 0.026073994
vt -0.12965585 0.021793518
vt -0.105149165 0.019772885
vt -0.1298026 0.013088907
vt -0.10527849 0.011292144
vt -0.1310404 0.002352246
vt -0.10645131 0.0025436522
vt -0.12913649 -0.010596866
vt -0.105646454 -0.003325111
vt -0.12382577 -0.02154263
vt -0.10271701 -0.008929904
vt -0.11942445 -0.027348397
vt -0.10001927 -0.012245442
vt -0.11319734 -0.031496905
vt -0.097526684 -0.01930051
vt -0.10797727 -0.03116002
vt -0.09913494 -0.024278069
vt -0.112506896 0.049963437
vt -0.112506896 0.049963437
vt -0.118172824 0.049296156
vt -0.118172824 0.049296156
vt -0.118172824 0.049296156
vt -0.118172824 0.049296156
vt -0.12403513 0.04361898
vt -0.12403513 0.04361898
vt -0.12403513 0.04361898
vt -0.12403513 0.04361898
vt -0.1280144 0.033617537
vt -0.1280144 0.033617537
vt -0.1280144 0.033617537
vt -0.1280144 0.033617537
vt -0.12965585 0.021793518
vt -0.12965585 0.021793518
vt -0.12965585 0.021793518
vt -0.12965585 0.021793518
vt -0.1298026 0.013088907
vt -0.1298026 0.013088907
vt -0.1298026 0.013088907
vt -0.1298026 0.013088907
vt -0.1310404 0.002352246
vt -0.1310404 0.002352246
vt -0.1310404 0.002352246
vt -0.1310404 0.002352246
vt -0.12913649 -0.010596866
vt -0.12913649 -0.010596866
vt -0.12913649 -0.010596866
vt -0.12913649 -0.010596866
vt -0.12382577 -0.02154263
vt -0.12382577 -0.02154263
vt -0.12382577 -0.02154263
vt -0.12382577 -0.02154263
vt -0.11942445 -0.027348397
vt -0.11942445 -0.027348397
vt -0.11942445 -0.027348397
vt -0.11942445 -0.027348397
vt -0.11319734 -0.031496905
vt -0.11319734 -0.031496905
vt -0.11319734 -0.031496905
vt -0.11319734 -0.031496905
vt -0.10797727 -0.03116002
vt -0.10797727 -0.03116002
vt -0.10166564 0.044323638
vt -0.10166564 0.044323638
vt -0.09895962 0.039301153
vt -0.09895962 0.039301153
vt -0.09895962 0.039301153
vt -0.09895962 0.039301153
vt -0.100243144 0.031242026
vt -0.100243144 0.031242026
vt -0.100243144 0.031242026
vt -0.100243144 0.031242026
vt -0.10415527 0.026073994
vt -0.10415527 0.026073994
vt -0.10415527 0.026073994
vt -0.10415527 0.026073994
vt -0.105149165 0.019772885
vt -0.105149165 0.019772885
vt -0.105149165 0.019772885
vt -0.105149165 0.019772885
vt -0.10527849 0.011292144
vt -0.10527849 0.011292144
vt -0.10527849 0.011292144
vt -0.10527849 0.011292144
vt -0.10645131 0.0025436522
vt -0.10645131 0.0025436522
vt -0.10645131 0.0025436522
vt -0.10645131 0.0025436522
vt -0.105646454 -0.003325111
vt -0.105646454 -0.003325111
vt -0.105646454 -0.003325111
vt -0.105646454 -0.003325111
vt -0.10271701 -0.008929904
vt -0.10271701 -0.008929904
vt -0.10271701 -0.008929904
vt -0.10271701 -0.008929904
vt -0.10001927 -0.012245442
vt -0.10001927 -0.012245442
vt -0.10001927 -0.012245442
vt -0.10001927 -0.012245442
vt -0.097526684 -0.01930051
vt -0.097526684 -0.01930051
vt -0.097526684 -0.01930051
vt -0.097526684 -0.01930051
vt -0.09913494 -0.024278069
vt -0.09913494 -0.024278069
vn -0 1 0
vn -0 1 0
vn -0 1 0
vn -0 1 0
vn -0 1 0
vn -0 1 0
vn -0 1 0
vn -0 1 0
vn -0 1 0
vn -0 1 0
vn -0 1 0
vn -0 1 0
vn -0 1 0
vn -0 1 0
vn -0 1 0
vn -0 1 0
vn -0 1 0
vn -0 1 0
vn -0 1 0
vn -0 1 0
vn -0 1 0
vn -0 1 0
vn -0 1 0
vn -0 1 0
vn -0.25090733 0 -0.9680111
vn -0.25090733 0 -0.9680111
vn -0.7516353 0 -0.65957886
vn -0.7516353 0 -0.65957886
vn -0.9976799 0 -0.06807936
vn -0.9976799 0 -0.06807936
vn -0.9976799 0 -0.06807936
vn -0.9976799 0 -0.06807936
vn -0.93777204 -0 0.34725153
vn -0.93777204 0 0.34725153
vn -0.93777204 0 0.34725153
vn -0.93777204 0 0.34725153
vn -0.827944 -0 0.5608108
vn -0.827944 0 0.5608108
vn -0.827944 0 0.5608108
vn -0.827944 0 0.5608108
vn -0.754142 -0 0.65671146
vn -0.754142 0 0.65671146
vn -0.754142 0 0.65671146
vn -0.754142 0 0.65671146
vn -0.8147333 -0 0.57983583
vn -0.8147333 0 0.57983583
vn -0.8147333 0 0.57983583
vn -0.8147333 0 0.57983583
vn -0.6376968 -0 0.77028745
vn -0.6376968 0 0.77028745
vn -0.6376968 0 0.77028745
vn -0.6376968 0 0.77028745
vn -0.37626678 -0 0.92651135
vn -0.37626678 0 0.92651135
vn -0.37626678 0 0.92651135
vn -0.37626678 0 0.92651135
vn -0.18770726 -0 0.982225
vn -0.18770726 0 0.982225
vn -0.18770726 0 0.982225
vn -0.18770726 0 0.982225
vn 0.145113 0 0.98941505
vn 0.145113 0 0.98941505
vn 0.145113 0 0.98941505
vn 0.145113 0 0.98941505
vn 0.7157897 0 0.6983159
vn 0.7157897 0 0.6983159
vn 0.9845303 0 0.17521401
vn 0.9845303 0 0.17521401
vn -0.25090733 0 -0.9680111
vn -0.25090733 0 -0.9680111
vn 0.33659557 -0 -0.9416494
vn 0.33659557 -0 -0.9416494
vn 0.8389916 0 -0.5441444
vn 0.8389916 -0 -0.5441444
vn 0.8389916 -0 -0.5441444
vn 0.8389916 -0 -0.5441444
vn 0.9963598 0 -0.08524707
vn 0.9963598 -0 -0.08524707
vn 0.9963598 -0 -0.08524707
vn 0.9963598 -0 -0.08524707
vn 0.8381781 0 -0.5453966
vn 0.8381781 -0 -0.5453966
vn 0.8381781 -0 -0.5453966
vn 0.8381781 -0 -0.5453966
vn 0.75308377 0 -0.65792465
vn 0.75308377 -0 -0.65792465
vn 0.75308377 -0 -0.65792465
vn 0.75308377 -0 -0.65792465
vn 0.8253114 0 -0.56467783
vn 0.8253114 -0 -0.56467783
vn 0.8253114 -0 -0.56467783
vn 0.8253114 -0 -0.56467783
vn 0.6451331 0 -0.7640703
vn 0.6451331 -0 -0.7640703
vn 0.6451331 -0 -0.7640703
vn 0.6451331 -0 -0.7640703
vn 0.34840852 0 -0.9373428
vn 0.34840852 -0 -0.9373428
vn 0.34840852 -0 -0.9373428
vn 0.34840852 -0 -0.9373428
vn 0.15385649 0 -0.9880932
vn 0.15385649 -0 -0.9880932
vn 0.15385649 -0 -0.9880932
vn 0.15385649 -0 -0.9880932
vn 0.4775584 0 -0.8786
vn 0.4775584 -0 -0.8786
vn 0.4775584 -0 -0.8786
vn 0.4775584 -0 -0.8786
vn 0.91276485 0 -0.40848544
vn 0.91276485 -0 -0.40848544
vn 0.9845303 0 0.17521401
vn 0.9845303 0 0.17521401
g _0
f 3/3/3 2/2/2 1/1/1
f 2/2/2 3/3/3 4/4/4
f 5/5/5 4/4/4 3/3/3
f 4/4/4 5/5/5 6/6/6
f 7/7/7 6/6/6 5/5/5
f 6/6/6 7/7/7 8/8/8
f 9/9/9 8/8/8 7/7/7
f 8/8/8 9/9/9 10/10/10
f 11/11/11 10/10/10 9/9/9
f 10/10/10 11/11/11 12/12/12
f 13/13/13 12/12/12 11/11/11
f 12/12/12 13/13/13 14/14/14
f 15/15/15 14/14/14 13/13/13
f 14/14/14 15/15/15 16/16/16
f 17/17/17 16/16/16 15/15/15
f 16/16/16 17/17/17 18/18/18
f 19/19/19 18/18/18 17/17/17
f 18/18/18 19/19/19 20/20/20
f 21/21/21 20/20/20 19/19/19
f 20/20/20 21/21/21 22/22/22
f 23/23/23 22/22/22 21/21/21
f 22/22/22 23/23/23 24/24/24
g _1
f 25/25/25 26/26/26 27/27/27
f 28/28/28 27/27/27 26/26/26
f 29/29/29 30/30/30 31/31/31
f 32/32/32 31/31/31 30/30/30
f 33/33/33 34/34/34 35/35/35
f 36/36/36 35/35/35 34/34/34
f 37/37/37 38/38/38 39/39/39
f 40/40/40 39/39/39 38/38/38
f 41/41/41 42/42/42 43/43/43
f 44/44/44 43/43/43 42/42/42
f 45/45/45 46/46/46 47/47/47
f 48/48/48 47/47/47 46/46/46
f 49/49/49 50/50/50 51/51/51
f 52/52/52 51/51/51 50/50/50
f 53/53/53 54/54/54 55/55/55
f 56/56/56 55/55/55 54/54/54
f 57/57/57 58/58/58 59/59/59
f 60/60/60 59/59/59 58/58/58
f 61/61/61 62/62/62 63/63/63
f 64/64/64 63/63/63 62/62/62
f 65/65/65 66/66/66 67/67/67
f 68/68/68 67/67/67 66/66/66
f 71/71/71 70/70/70 69/69/69
f 70/70/70 71/71/71 72/72/72
f 75/75/75 74/74/74 73/73/73
f 74/74/74 75/75/75 76/76/76
f 79/79/79 78/78/78 77/77/77
f 78/78/78 79/79/79 80/80/80
f 83/83/83 82/82/82 81/81/81
f 82/82/82 83/83/83 84/84/84
f 87/87/87 86/86/86 85/85/85
f 86/86/86 87/87/87 88/88/88
f 91/91/91 90/90/90 89/89/89
f 90/90/90 91/91/91 92/92/92
f 95/95/95 94/94/94 93/93/93
f 94/94/94 95/95/95 96/96/96
f 99/99/99 98/98/98 97/97/97
f 98/98/98 99/99/99 100/100/100
f 103/103/103 102/102/102 101/101/101
f 102/102/102 103/103/103 104/104/104
f 107/107/107 106/106/106 105/105/105
f 106/106/106 107/107/107 108/108/108
f 111/111/111 110/110/110 109/109/109
f 110/110/110 111/111/111 112/112/112
f 69/69/69 26/26/26 25/25/25
f 26/26/26 69/69/69 70/70/70
f 67/67/67 68/68/68 111/111/111
f 112/112/112 111/111/111 68/68/68
