g 
v -102.33718 13.49 -17.290884
v -97.70086 13.49 -14.472937
v -104.71861 13.49 -17.10109
v -96.77275 13.49 -12.271602
v -107.51358 13.49 -14.847249
v -97.48642 13.49 -8.752751
v -111.194046 17.371317 -9.222301
v -101.460556 17.371317 -1.7837298
v -114.031 23.601852 -6.280309
v -107.786766 23.601852 4.6866293
v -119.854904 25.9 -4.7910643
v -118.42439 25.9 8.3749485
v -128.04465 25.9 -7.160183
v -128.10052 25.9 9.296246
v -138.91495 25.9 -7.213029
v -135.11752 25.9 10.675487
v -149.7982 25.9 -5.2041554
v -141.36546 25.9 14.774042
v -159.50764 25.9 -2.5982475
v -148.17107 25.9 20.262705
v -162.06825 25.9 -1.095748
v -150.53175 25.9 21.29575
v -167.72151 25.9 4.135805
v -158.07324 25.9 22.862362
v -168.31462 25.9 9.696551
v -162.94554 25.9 20.117508
v -102.33718 13.49 -17.290884
v -102.33718 3.4899998 -17.290884
v -104.71861 13.49 -17.10109
v -104.71861 3.4899998 -17.10109
v -104.71861 13.49 -17.10109
v -104.71861 3.4899998 -17.10109
v -107.51358 13.49 -14.847249
v -107.51358 3.4899998 -14.847249
v -107.51358 13.49 -14.847249
v -107.51358 3.4899998 -14.847249
v -111.194046 17.371317 -9.222301
v -111.194046 7.371317 -9.222301
v -111.194046 17.371317 -9.222301
v -111.194046 7.371317 -9.222301
v -114.031 23.601852 -6.280309
v -114.031 13.601852 -6.280309
v -114.031 23.601852 -6.280309
v -114.031 13.601852 -6.280309
v -119.854904 25.9 -4.7910643
v -119.854904 15.9 -4.7910643
v -119.854904 25.9 -4.7910643
v -119.854904 15.9 -4.7910643
v -128.04465 25.9 -7.160183
v -128.04465 15.9 -7.160183
v -128.04465 25.9 -7.160183
v -128.04465 15.9 -7.160183
v -138.91495 25.9 -7.213029
v -138.91495 15.9 -7.213029
v -138.91495 25.9 -7.213029
v -138.91495 15.9 -7.213029
v -149.7982 25.9 -5.2041554
v -149.7982 15.9 -5.2041554
v -149.7982 25.9 -5.2041554
v -149.7982 15.9 -5.2041554
v -159.50764 25.9 -2.5982475
v -159.50764 15.9 -2.5982475
v -159.50764 25.9 -2.5982475
v -159.50764 15.9 -2.5982475
v -162.06825 25.9 -1.095748
v -162.06825 15.9 -1.095748
v -162.06825 25.9 -1.095748
v -162.06825 15.9 -1.095748
v -167.72151 25.9 4.135805
v -167.72151 15.9 4.135805
v -167.72151 25.9 4.135805
v -167.72151 15.9 4.135805
v -168.31462 25.9 9.696551
v -168.31462 15.9 9.696551
v -97.70086 13.49 -14.472937
v -97.70086 3.4899998 -14.472937
v -96.77275 13.49 -12.271602
v -96.77275 3.4899998 -12.271602
v -96.77275 13.49 -12.271602
v -96.77275 3.4899998 -12.271602
v -97.48642 13.49 -8.752751
v -97.48642 3.4899998 -8.752751
v -97.48642 13.49 -8.752751
v -97.48642 3.4899998 -8.752751
v -101.460556 17.371317 -1.7837298
v -101.460556 7.371317 -1.7837298
v -101.460556 17.371317 -1.7837298
v -101.460556 7.371317 -1.7837298
v -107.786766 23.601852 4.6866293
v -107.786766 13.601852 4.6866293
v -107.786766 23.601852 4.6866293
v -107.786766 13.601852 4.6866293
v -118.42439 25.9 8.3749485
v -118.42439 15.9 8.3749485
v -118.42439 25.9 8.3749485
v -118.42439 15.9 8.3749485
v -128.10052 25.9 9.296246
v -128.10052 15.9 9.296246
v -128.10052 25.9 9.296246
v -128.10052 15.9 9.296246
v -135.11752 25.9 10.675487
v -135.11752 15.9 10.675487
v -135.11752 25.9 10.675487
v -135.11752 15.9 10.675487
v -141.36546 25.9 14.774042
v -141.36546 15.9 14.774042
v -141.36546 25.9 14.774042
v -141.36546 15.9 14.774042
v -148.17107 25.9 20.262705
v -148.17107 15.9 20.262705
v -148.17107 25.9 20.262705
v -148.17107 15.9 20.262705
v -150.53175 25.9 21.29575
v -150.53175 15.9 21.29575
v -150.53175 25.9 21.29575
v -150.53175 15.9 21.29575
v -158.07324 25.9 22.862362
v -158.07324 15.9 22.862362
v -158.07324 25.9 22.862362
v -158.07324 15.9 22.862362
v -162.94554 25.9 20.117508
v -162.94554 15.9 20.117508
vt 0.11150033 0.038695883
vt 0.10620688 0.039885662
vt 0.113696456 0.039636247
vt 0.10462437 0.04167534
vt 0.11562531 0.042664643
vt 0.10417692 0.04523784
vt 0.11731672 0.04917041
vt 0.105717406 0.053111088
vt 0.119065605 0.052864328
vt 0.109646045 0.061262913
vt 0.12410896 0.056135453
vt 0.118548796 0.06815522
vt 0.13262644 0.056505784
vt 0.12742403 0.07211835
vt 0.14294443 0.059927136
vt 0.13363314 0.07566625
vt 0.15261626 0.06530639
vt 0.13824505 0.081545465
vt 0.16098508 0.070876546
vt 0.14294149 0.088920094
vt 0.16293178 0.0731181
vt 0.14484866 0.09065293
vt 0.16661835 0.07988108
vt 0.15149495 0.094545886
vt 0.16540456 0.08534006
vt 0.15698868 0.093500726
vt 0.11150033 0.038695883
vt 0.11150033 0.038695883
vt 0.113696456 0.039636247
vt 0.113696456 0.039636247
vt 0.113696456 0.039636247
vt 0.113696456 0.039636247
vt 0.11562531 0.042664643
vt 0.11562531 0.042664643
vt 0.11562531 0.042664643
vt 0.11562531 0.042664643
vt 0.11731672 0.04917041
vt 0.11731672 0.04917041
vt 0.11731672 0.04917041
vt 0.11731672 0.04917041
vt 0.119065605 0.052864328
vt 0.119065605 0.052864328
vt 0.119065605 0.052864328
vt 0.119065605 0.052864328
vt 0.12410896 0.056135453
vt 0.12410896 0.056135453
vt 0.12410896 0.056135453
vt 0.12410896 0.056135453
vt 0.13262644 0.056505784
vt 0.13262644 0.056505784
vt 0.13262644 0.056505784
vt 0.13262644 0.056505784
vt 0.14294443 0.059927136
vt 0.14294443 0.059927136
vt 0.14294443 0.059927136
vt 0.14294443 0.059927136
vt 0.15261626 0.06530639
vt 0.15261626 0.06530639
vt 0.15261626 0.06530639
vt 0.15261626 0.06530639
vt 0.16098508 0.070876546
vt 0.16098508 0.070876546
vt 0.16098508 0.070876546
vt 0.16098508 0.070876546
vt 0.16293178 0.0731181
vt 0.16293178 0.0731181
vt 0.16293178 0.0731181
vt 0.16293178 0.0731181
vt 0.16661835 0.07988108
vt 0.16661835 0.07988108
vt 0.16661835 0.07988108
vt 0.16661835 0.07988108
vt 0.16540456 0.08534006
vt 0.16540456 0.08534006
vt 0.10620688 0.039885662
vt 0.10620688 0.039885662
vt 0.10462437 0.04167534
vt 0.10462437 0.04167534
vt 0.10462437 0.04167534
vt 0.10462437 0.04167534
vt 0.10417692 0.04523784
vt 0.10417692 0.04523784
vt 0.10417692 0.04523784
vt 0.10417692 0.04523784
vt 0.105717406 0.053111088
vt 0.105717406 0.053111088
vt 0.105717406 0.053111088
vt 0.105717406 0.053111088
vt 0.109646045 0.061262913
vt 0.109646045 0.061262913
vt 0.109646045 0.061262913
vt 0.109646045 0.061262913
vt 0.118548796 0.06815522
vt 0.118548796 0.06815522
vt 0.118548796 0.06815522
vt 0.118548796 0.06815522
vt 0.12742403 0.07211835
vt 0.12742403 0.07211835
vt 0.12742403 0.07211835
vt 0.12742403 0.07211835
vt 0.13363314 0.07566625
vt 0.13363314 0.07566625
vt 0.13363314 0.07566625
vt 0.13363314 0.07566625
vt 0.13824505 0.081545465
vt 0.13824505 0.081545465
vt 0.13824505 0.081545465
vt 0.13824505 0.081545465
vt 0.14294149 0.088920094
vt 0.14294149 0.088920094
vt 0.14294149 0.088920094
vt 0.14294149 0.088920094
vt 0.14484866 0.09065293
vt 0.14484866 0.09065293
vt 0.14484866 0.09065293
vt 0.14484866 0.09065293
vt 0.15149495 0.094545886
vt 0.15149495 0.094545886
vt 0.15149495 0.094545886
vt 0.15149495 0.094545886
vt 0.15698868 0.093500726
vt 0.15698868 0.093500726
vn -0 1 0
vn -0 1 0
vn -0 1 0
vn -0 1 0
vn -0 1 0
vn -0 1 0
vn -0 1 0
vn -0 1 0
vn -0 1 0
vn -0 1 0
vn -0 1 0
vn -0 1 0
vn -0 1 0
vn -0 1 0
vn -0 1 0
vn -0 1 0
vn -0 1 0
vn -0 1 0
vn -0 1 0
vn -0 1 0
vn -0 1 0
vn -0 1 0
vn -0 1 0
vn -0 1 0
vn -0 1 0
vn -0 1 0
vn 0.5193872 0 -0.8545391
vn 0.5193872 -0 -0.8545391
vn -0.07944576 0 -0.99683917
vn -0.07944576 0 -0.99683917
vn -0.6277245 0 -0.77843565
vn -0.6277245 0 -0.77843565
vn -0.6277245 0 -0.77843565
vn -0.6277245 0 -0.77843565
vn -0.83679146 0 -0.5475218
vn -0.83679146 0 -0.5475218
vn -0.83679146 0 -0.5475218
vn -0.83679146 0 -0.5475218
vn -0.7198404 0 -0.6941396
vn -0.7198404 0 -0.6941396
vn -0.7198404 0 -0.6941396
vn -0.7198404 0 -0.6941396
vn -0.2477409 0 -0.9688263
vn -0.2477409 0 -0.9688263
vn -0.2477409 0 -0.9688263
vn -0.2477409 0 -0.9688263
vn 0.2778853 0 -0.96061426
vn 0.2778853 -0 -0.96061426
vn 0.2778853 -0 -0.96061426
vn 0.2778853 -0 -0.96061426
vn 0.004861442 0 -0.9999882
vn 0.004861442 -0 -0.9999882
vn 0.004861442 -0 -0.9999882
vn 0.004861442 -0 -0.9999882
vn -0.18151751 0 -0.9833877
vn -0.18151751 0 -0.9833877
vn -0.18151751 0 -0.9833877
vn -0.18151751 0 -0.9833877
vn -0.25921538 0 -0.96581954
vn -0.25921538 0 -0.96581954
vn -0.25921538 0 -0.96581954
vn -0.25921538 0 -0.96581954
vn -0.50608385 0 -0.8624843
vn -0.50608385 0 -0.8624843
vn -0.50608385 0 -0.8624843
vn -0.50608385 0 -0.8624843
vn -0.6792021 0 -0.73395133
vn -0.6792021 0 -0.73395133
vn -0.6792021 0 -0.73395133
vn -0.6792021 0 -0.73395133
vn -0.9943599 0 -0.10605842
vn -0.9943599 0 -0.10605842
vn -0.88894993 -0 0.45800433
vn -0.88894993 0 0.45800433
vn 0.5193872 -0 -0.8545391
vn 0.5193872 -0 -0.8545391
vn 0.9214511 -0 -0.3884944
vn 0.9214511 -0 -0.3884944
vn 0.98004687 0 0.1987663
vn 0.98004687 0 0.1987663
vn 0.98004687 0 0.1987663
vn 0.98004687 0 0.1987663
vn 0.8686811 0 0.49537185
vn 0.8686811 0 0.49537185
vn 0.8686811 0 0.49537185
vn 0.8686811 0 0.49537185
vn 0.71502674 0 0.6990971
vn 0.71502674 0 0.6990971
vn 0.71502674 0 0.6990971
vn 0.71502674 0 0.6990971
vn 0.32759148 0 0.94481945
vn 0.32759148 0 0.94481945
vn 0.32759148 0 0.94481945
vn 0.32759148 0 0.94481945
vn 0.09478469 0 0.9954978
vn 0.09478469 0 0.9954978
vn 0.09478469 0 0.9954978
vn 0.09478469 0 0.9954978
vn 0.19286676 0 0.98122495
vn 0.19286676 0 0.98122495
vn 0.19286676 0 0.98122495
vn 0.19286676 0 0.98122495
vn 0.5485016 0 0.8361495
vn 0.5485016 0 0.8361495
vn 0.5485016 0 0.8361495
vn 0.5485016 0 0.8361495
vn 0.6277714 0 0.7783978
vn 0.6277714 0 0.7783978
vn 0.6277714 0 0.7783978
vn 0.6277714 0 0.7783978
vn 0.40089837 0 0.91612256
vn 0.40089837 0 0.91612256
vn 0.40089837 0 0.91612256
vn 0.40089837 0 0.91612256
vn 0.20339042 0 0.9790978
vn 0.20339042 0 0.9790978
vn 0.20339042 0 0.9790978
vn 0.20339042 0 0.9790978
vn -0.49082974 -0 0.8712556
vn -0.49082974 0 0.8712556
vn -0.88894993 0 0.45800433
vn -0.88894993 0 0.45800433
g _0
f 3/3/3 2/2/2 1/1/1
f 2/2/2 3/3/3 4/4/4
f 5/5/5 4/4/4 3/3/3
f 4/4/4 5/5/5 6/6/6
f 7/7/7 6/6/6 5/5/5
f 6/6/6 7/7/7 8/8/8
f 9/9/9 8/8/8 7/7/7
f 8/8/8 9/9/9 10/10/10
f 11/11/11 10/10/10 9/9/9
f 10/10/10 11/11/11 12/12/12
f 13/13/13 12/12/12 11/11/11
f 12/12/12 13/13/13 14/14/14
f 15/15/15 14/14/14 13/13/13
f 14/14/14 15/15/15 16/16/16
f 17/17/17 16/16/16 15/15/15
f 16/16/16 17/17/17 18/18/18
f 19/19/19 18/18/18 17/17/17
f 18/18/18 19/19/19 20/20/20
f 21/21/21 20/20/20 19/19/19
f 20/20/20 21/21/21 22/22/22
f 23/23/23 22/22/22 21/21/21
f 22/22/22 23/23/23 24/24/24
f 25/25/25 24/24/24 23/23/23
f 24/24/24 25/25/25 26/26/26
g _1
f 27/27/27 28/28/28 29/29/29
f 30/30/30 29/29/29 28/28/28
f 31/31/31 32/32/32 33/33/33
f 34/34/34 33/33/33 32/32/32
f 35/35/35 36/36/36 37/37/37
f 38/38/38 37/37/37 36/36/36
f 39/39/39 40/40/40 41/41/41
f 42/42/42 41/41/41 40/40/40
f 43/43/43 44/44/44 45/45/45
f 46/46/46 45/45/45 44/44/44
f 47/47/47 48/48/48 49/49/49
f 50/50/50 49/49/49 48/48/48
f 51/51/51 52/52/52 53/53/53
f 54/54/54 53/53/53 52/52/52
f 55/55/55 56/56/56 57/57/57
f 58/58/58 57/57/57 56/56/56
f 59/59/59 60/60/60 61/61/61
f 62/62/62 61/61/61 60/60/60
f 63/63/63 64/64/64 65/65/65
f 66/66/66 65/65/65 64/64/64
f 67/67/67 68/68/68 69/69/69
f 70/70/70 69/69/69 68/68/68
f 71/71/71 72/72/72 73/73/73
f 74/74/74 73/73/73 72/72/72
f 77/77/77 76/76/76 75/75/75
f 76/76/76 77/77/77 78/78/78
f 81/81/81 80/80/80 79/79/79
f 80/80/80 81/81/81 82/82/82
f 85/85/85 84/84/84 83/83/83
f 84/84/84 85/85/85 86/86/86
f 89/89/89 88/88/88 87/87/87
f 88/88/88 89/89/89 90/90/90
f 93/93/93 92/92/92 91/91/91
f 92/92/92 93/93/93 94/94/94
f 97/97/97 96/96/96 95/95/95
f 96/96/96 97/97/97 98/98/98
f 101/101/101 100/100/100 99/99/99
f 100/100/100 101/101/101 102/102/102
f 105/105/105 104/104/104 103/103/103
f 104/104/104 105/105/105 106/106/106
f 109/109/109 108/108/108 107/107/107
f 108/108/108 109/109/109 110/110/110
f 113/113/113 112/112/112 111/111/111
f 112/112/112 113/113/113 114/114/114
f 117/117/117 116/116/116 115/115/115
f 116/116/116 117/117/117 118/118/118
f 121/121/121 120/120/120 119/119/119
f 120/120/120 121/121/121 122/122/122
f 75/75/75 28/28/28 27/27/27
f 28/28/28 75/75/75 76/76/76
f 73/73/73 74/74/74 121/121/121
f 122/122/122 121/121/121 74/74/74
