g 
v 49.252323 108.41657 -111.32731
v 49.252323 94.41657 -111.32731
v 49.820404 108.41657 -106.62248
v 49.820404 94.41657 -106.62248
v 47.756096 108.41657 -105.32738
v 47.756096 94.41657 -105.32738
v 46.752144 108.41657 -112.296196
v 46.752144 94.41657 -112.296196
v 48.56079 108.41657 -113.00935
v 48.56079 94.41657 -113.00935
v 49.252323 108.41657 -111.32731
v 49.252323 94.41657 -111.32731
vt 0.33503178 -0.62571704
vt 0.33503178 -0.62571704
vt 0.32935095 -0.57866883
vt 0.32935095 -0.57866883
vt 0.34999403 -0.56571776
vt 0.34999403 -0.56571776
vt 0.36003357 -0.63540596
vt 0.36003357 -0.63540596
vt 0.34194708 -0.64253753
vt 0.34194708 -0.64253753
vt 0.33503178 -0.62571704
vt 0.33503178 -0.62571704
vn 0.9927892 0 -0.11987362
vn 0.9927892 -0 -0.11987362
vn 0.53144777 0 0.8470911
vn 0.53144777 0 0.8470911
vn -0.9897816 -0 0.14259136
vn -0.9897816 0 0.14259136
vn -0.3668185 0 -0.9302925
vn -0.3668185 0 -0.9302925
vn 0.924886 0 -0.38024452
vn 0.924886 -0 -0.38024452
vn 0.924886 -0 -0.38024452
vn 0.924886 -0 -0.38024452
g _0
f 3/3/3 2/2/2 1/1/1
f 2/2/2 3/3/3 4/4/4
f 5/5/5 4/4/4 3/3/3
f 4/4/4 5/5/5 6/6/6
f 7/7/7 6/6/6 5/5/5
f 6/6/6 7/7/7 8/8/8
f 9/9/9 8/8/8 7/7/7
f 8/8/8 9/9/9 10/10/10
f 11/11/11 10/10/10 9/9/9
f 10/10/10 11/11/11 12/12/12
