g 
v 11.52 21.153242 38.49
v 11.52 6.2667584 38.49
v 10.5 22.232449 36.33
v 10.5 6.6075506 36.33
v 8 22.232449 36.9
v 8 6.6075506 36.9
v 7.62 22.232449 38.64
v 7.62 6.6075506 38.64
v 8.71 22.232449 39.85
v 8.71 6.6075487 39.85
v 9.89 22.232449 40.37
v 9.89 6.6075487 40.37
v 11.52 21.153242 38.49
v 11.52 6.2667584 38.49
vt -0.56142277 0.47428423
vt -0.56142277 0.47428423
vt -0.58531 0.47426802
vt -0.58531 0.47426802
vt -0.590814 0.4492241
vt -0.590814 0.4492241
vt -0.5766953 0.43836764
vt -0.5766953 0.43836764
vt -0.56110275 0.44306776
vt -0.56110275 0.44306776
vt -0.5513677 0.45152408
vt -0.5513677 0.45152408
vt -0.56142277 0.47428423
vt -0.56142277 0.47428423
vn 0.90424854 0 -0.42700648
vn 0.9042486 -0 -0.42700648
vn -0.2222952 0 -0.9749794
vn -0.2222952 0 -0.9749794
vn -0.9769732 0 -0.21336228
vn -0.9769732 0 -0.21336228
vn -0.7429884 -0 0.6693042
vn -0.74298847 0 0.66930425
vn -0.4032585 -0 0.9150861
vn -0.4032585 0 0.9150861
vn 0.755556 0 0.6550841
vn 0.755556 0 0.65508413
vn 0.755556 0 0.65508413
vn 0.755556 0 0.65508413
g _0
f 1/1/1 2/2/2 3/3/3
f 4/4/4 3/3/3 2/2/2
f 3/3/3 4/4/4 5/5/5
f 6/6/6 5/5/5 4/4/4
f 5/5/5 6/6/6 7/7/7
f 8/8/8 7/7/7 6/6/6
f 7/7/7 8/8/8 9/9/9
f 10/10/10 9/9/9 8/8/8
f 9/9/9 10/10/10 11/11/11
f 12/12/12 11/11/11 10/10/10
f 11/11/11 12/12/12 13/13/13
f 14/14/14 13/13/13 12/12/12
