g 
v 16.93 16.119465 -18.7
v 16.93 -0.6994648 -18.7
v 13.53 16.119465 -18.18
v 13.53 -0.6994648 -18.18
v 11.03 16.119465 -15.38
v 11.03 -0.6994648 -15.38
v 10.82 16.119465 -13.14
v 10.82 -0.6994648 -13.14
v 8.32 16.119465 -11.28
v 8.32 -0.6994648 -11.28
v 5.21 16.119465 -11.28
v 5.21 -0.6994648 -11.28
v 3.33 16.119465 -10.79
v 3.33 -0.6994648 -10.79
v 1.65 16.119465 -9.49
v 1.65 -0.6994648 -9.49
v -1.25 16.119465 -10.59
v -1.25 -0.6994648 -10.59
v -5.27 16.119465 -9.7
v -5.27 -0.6994648 -9.7
v -6.66 16.119465 -11.03
v -6.66 -0.6994648 -11.03
v -9.41 16.119465 -13.2
v -9.41 -0.6994648 -13.2
v -13.84 16.119465 -13.8
v -13.84 -0.6994648 -13.8
v -14.27 16.119465 -15.7
v -14.27 -0.6994648 -15.7
v -16.31 16.119465 -17.07
v -16.31 -0.6994648 -17.07
v -17.64 16.119465 -19.58
v -17.64 -0.6994648 -19.58
v -16.05 16.119465 -20.92
v -16.05 -0.6994648 -20.92
v -16.62 16.119465 -22.53
v -16.62 -0.6994648 -22.53
v -20.96 16.119465 -30.15
v -20.96 -0.6994648 -30.15
v -25.63 16.119465 -30.91
v -25.63 -0.6994648 -30.91
v -27.44 16.119465 -32.05
v -27.44 -0.6994648 -32.05
v -33.59 16.119465 -43.57
v -33.59 -0.6994648 -43.57
v -32.21 17.409466 -51.24
v -32.21 0.59053516 -51.24
v -27.93 18.469465 -55.61
v -27.93 1.6505356 -55.61
v -24.81 18.889465 -54.74
v -24.81 2.0705347 -54.74
v -22.07 18.629465 -55.57
v -22.07 1.8105354 -55.57
v -18.22 18.629465 -53.64
v -18.22 1.8105354 -53.64
v -17.47 18.629465 -51.19
v -17.47 1.8105354 -51.19
v -19.78 18.629465 -46.02
v -19.78 1.8105354 -46.02
v -21.28 18.629465 -45.92
v -21.28 1.8105354 -45.92
v -24.06 18.629465 -47.14
v -24.06 1.8105354 -47.14
v -25.74 18.189465 -48.12
v -25.74 1.3705349 -48.12
v -27.49 17.029465 -45.68
v -27.49 0.21053505 -45.68
v -29.247 16.199465 -43.784
v -29.247 -0.6194649 -43.784
v -28.679 16.155464 -42.68
v -28.679 -0.663465 -42.68
v -27.512 16.155464 -42.701
v -27.512 -0.663465 -42.701
v -24.399 16.155464 -42.815
v -24.399 -0.663465 -42.815
v -20.99 16.155464 -45.35
v -20.99 -0.663465 -45.35
v -18.99 16.155464 -44.27
v -18.99 -0.663465 -44.27
v -16.41 15.789465 -45.87
v -16.41 -1.0294647 -45.87
v -14.95 15.789465 -48.33
v -14.95 -1.0294647 -48.33
v -14.33 15.789465 -50.38
v -14.33 -1.0294647 -50.38
v -15.34 15.789465 -53.53
v -15.34 -1.0294647 -53.53
v -16.9 15.789465 -55.87
v -16.9 -1.0294647 -55.87
v -20.09 15.789465 -57.34
v -20.09 -1.0294647 -57.34
v -21.91 15.789465 -57.7
v -21.91 -1.0294647 -57.7
v -22.52 15.789465 -59.4
v -22.52 -1.0294647 -59.4
v -23.94 15.789465 -59.81
v -23.94 -1.0294647 -59.81
v -28.15 15.789465 -58.98
v -28.15 -1.0294647 -58.98
v -33.84 15.789465 -60.11
v -33.84 -1.0294647 -60.11
v -37.1 15.789465 -62.85
v -37.1 -1.0294647 -62.85
v -36.62 15.789465 -69.16
v -36.62 -1.0294647 -69.16
v -34.28 15.789465 -71.96
v -34.28 -1.0294647 -71.96
v -31.4 15.789465 -73.26
v -31.4 -1.0294647 -73.26
v -28.65 15.049465 -76.7
v -28.65 -1.769465 -76.7
v -26.03 14.169465 -79.49
v -26.03 -2.6494646 -79.49
v -24.58 14.199465 -79.33
v -24.58 -2.6194649 -79.33
v -24.49 13.409465 -81.1
v -24.49 -3.4094648 -81.1
v -22.27 12.309465 -82.83
v -22.27 -4.5094647 -82.83
v -18.38 11.259464 -86.74
v -18.38 -5.559465 -86.74
v -18 10.589465 -88.21
v -18 -6.2294645 -88.21
v -19 9.879465 -88.24
v -19 -6.9394646 -88.24
v -21.29 9.879465 -87.59
v -21.29 -6.9394646 -87.59
v -22.43 9.879465 -89.24
v -22.43 -6.9394646 -89.24
v -23.66 9.879465 -90.62
v -23.66 -6.9394646 -90.62
v -25.12 9.879465 -90.23
v -25.12 -6.9394646 -90.23
v -28.06 9.879465 -87.81
v -28.06 -6.9394646 -87.81
v -37.63 9.879465 -85.27
v -37.63 -6.9394646 -85.27
v -41.52 9.879465 -85.21
v -41.52 -6.9394646 -85.21
v -42.98 9.879465 -82.51
v -42.98 -6.9394646 -82.51
v -44.41 9.879465 -82.93
v -44.41 -6.9394646 -82.93
v -45.71 9.879465 -84.08
v -45.71 -6.9394646 -84.08
v -50.19 9.879465 -82.6
v -50.19 -6.9394646 -82.6
v -55.65 9.879465 -83.3
v -55.65 -6.9394646 -83.3
v -59.35 9.879465 -82.87
v -59.35 -6.9394646 -82.87
v -61.64 10.169465 -105.78
v -61.64 -6.6494646 -105.78
v -58.55 10.169465 -106.15
v -58.55 -6.6494646 -106.15
v -56.11 10.169465 -104.2
v -56.11 -6.6494646 -104.2
v -50.07 10.169465 -106.54
v -50.07 -6.6494646 -106.54
v -48.08 10.169465 -107.89
v -48.08 -6.6494646 -107.89
v -47.1 10.169465 -106.01
v -47.1 -6.6494646 -106.01
v -39.58 10.169465 -109.11
v -39.58 -6.6494646 -109.11
v -37.14 10.169465 -111.16
v -37.14 -6.6494646 -111.16
v -34.04 10.169465 -110.68
v -34.04 -6.6494646 -110.68
v -31.82 10.169465 -109.37
v -31.82 -6.6494646 -109.37
v -27.84 10.169465 -109.91
v -27.84 -6.6494646 -109.91
v -26.15 10.169465 -111.16
v -26.15 -6.6494646 -111.16
v -20.87 10.169465 -108.95
v -20.87 -6.6494646 -108.95
v -17.98 10.169465 -109.11
v -17.98 -6.6494646 -109.11
v -14.75 10.169465 -112.02
v -14.75 -6.6494646 -112.02
v -14.31 10.169465 -115.06
v -14.31 -6.6494646 -115.06
v -17.19 10.169465 -118.94
v -17.19 -6.6494646 -118.94
v -21.6 10.169465 -124.08
v -21.6 -6.6494646 -124.08
v -21.33 10.169465 -125.24
v -21.33 -6.6494646 -125.24
v -17.84 10.169465 -124.59
v -17.84 -6.6494646 -124.59
v -8.07 10.169465 -119.96
v -8.07 -6.6494646 -119.96
v -0.43 10.169465 -115.93
v -0.43 -6.6494646 -115.93
v -1.5 10.169465 -111.96
v -1.5 -6.6494646 -111.96
v -0.08 10.169465 -108.87
v -0.08 -6.6494646 -108.87
v 4.53 10.169465 -105.86
v 4.53 -6.6494646 -105.86
v 7.88 10.169465 -105.16
v 7.88 -6.6494646 -105.16
v 10.55 10.169465 -109.33
v 10.55 -6.6494646 -109.33
v 17.06 10.169465 -105.07
v 17.06 -6.6494646 -105.07
v 12.88 10.169465 -103.89
v 12.88 -6.6494646 -103.89
v 10.94 10.169465 -100.24
v 10.94 -6.6494646 -100.24
v 11.67 10.169465 -98.14
v 11.67 -6.6494646 -98.14
v 14.84 10.169465 -93.28
v 14.84 -6.6494646 -93.28
v 12.35 10.169465 -90.32
v 12.35 -6.6494646 -90.32
v 12.33 10.169465 -87.87
v 12.33 -6.6494646 -87.87
v 9.38 10.169465 -86.62
v 9.38 -6.6494646 -86.62
v 8.3 10.169465 -88.74
v 8.3 -6.6494646 -88.74
v 7.16 10.169465 -89.05
v 7.16 -6.6494646 -89.05
v 4.82 10.169465 -86.59
v 4.82 -6.6494646 -86.59
v 2.56 10.169465 -85.5
v 2.56 -6.6494646 -85.5
v 1.36 10.169465 -83.6
v 1.36 -6.6494646 -83.6
v 0.02 10.169465 -83.02
v 0.02 -6.6494646 -83.02
v -1.78 10.169465 -83.08
v -1.78 -6.6494646 -83.08
v -2.73 10.169465 -82.16
v -2.73 -6.6494646 -82.16
v -3.05 10.169465 -79.86
v -3.05 -6.6494646 -79.86
v -7.68 10.169465 -79.03
v -7.68 -6.6494646 -79.03
v -13.26 11.299465 -77.57
v -13.26 -5.5194645 -77.57
v -17.84 12.559465 -74.52
v -17.84 -4.2594647 -74.52
v -20.2 19.935799 -71.56
v -20.2 -8.775799 -71.56
v -19.37 16.429466 -70.51
v -19.37 -0.38946438 -70.51
v -18.18 16.009464 -69.78
v -18.18 -0.80946493 -69.78
v -16.48 16.149464 -70.91
v -16.48 -0.66946507 -70.91
v -14.79 16.139465 -72.45
v -14.79 -0.6794648 -72.45
v -6.65 16.139465 -73.56
v -6.65 -0.6794648 -73.56
v -1.07 16.139465 -75.43
v -1.07 -0.6794648 -75.43
v 0.62 16.139465 -75.95
v 0.62 -0.6794648 -75.95
v 1.31 16.139465 -75.35
v 1.31 -0.6794648 -75.35
v 5.63 16.139465 -75.43
v 5.63 -0.6794648 -75.43
v 10.95 16.139465 -76.7
v 10.95 -0.6794648 -76.7
v 14.14 16.139465 -74.08
v 14.14 -0.6794648 -74.08
v 16.94 16.139465 -73.32
v 16.94 -0.6794648 -73.32
v 19.58 16.139465 -72.95
v 19.58 -0.6794648 -72.95
v 22.03 16.139465 -67.99
v 22.03 -0.6794648 -67.99
v 27.07 16.139465 -66.97
v 27.07 -0.6794648 -66.97
v 28.22 16.139465 -67.87
v 28.22 -0.6794648 -67.87
v 29.56 16.139465 -67.74
v 29.56 -0.6794648 -67.74
v 29.77 16.139465 -66.16
v 29.77 -0.6794648 -66.16
v 33.32 16.139465 -64.3
v 33.32 -0.6794648 -64.3
v 37.49 16.139465 -64.97
v 37.49 -0.6794648 -64.97
v 39.22 16.139465 -68.42
v 39.22 -0.6794648 -68.42
v 41.9 16.139465 -67.77
v 41.9 -0.6794648 -67.77
v 42.27 16.139465 -66.65
v 42.27 -0.6794648 -66.65
v 43.79 16.139465 -65.8
v 43.79 -0.6794648 -65.8
v 46.75 16.139465 -66.02
v 46.75 -0.6794648 -66.02
v 49.84 16.139465 -67.96
v 49.84 -0.6794648 -67.96
v 50.93 16.139465 -66.74
v 50.93 -0.6794648 -66.74
v 54.11 16.139465 -68.75
v 54.11 -0.6794648 -68.75
v 56.12 16.139465 -69.06
v 56.12 -0.6794648 -69.06
v 58.44 16.139465 -71.39
v 58.44 -0.6794648 -71.39
v 62.28 16.089464 -71.83
v 62.28 -0.729465 -71.83
v 62.76 16.089464 -74.4
v 62.76 -0.729465 -74.4
v 68.83 16.089464 -73.37
v 68.83 -0.729465 -73.37
v 65.63 16.089464 -69.35
v 65.63 -0.729465 -69.35
v 67.47 16.089464 -64.69
v 67.47 -0.729465 -64.69
v 72.39 16.089464 -60.26
v 72.39 -0.729465 -60.26
v 74.18 16.089464 -55.44
v 74.18 -0.729465 -55.44
v 75.57 16.089464 -55.11
v 75.57 -0.729465 -55.11
v 84.88 16.089464 -58.26
v 84.88 -0.729465 -58.26
v 85.36 16.089464 -57.57
v 85.36 -0.729465 -57.57
v 84.54 16.089464 -55.97
v 84.54 -0.729465 -55.97
v 85.82 16.089464 -54.91
v 85.82 -0.729465 -54.91
v 87.89 16.089464 -54.39
v 87.89 -0.729465 -54.39
v 88.56 16.089464 -52.7
v 88.56 -0.729465 -52.7
v 92.02 16.089464 -51.73
v 92.02 -0.729465 -51.73
v 90.78 16.219465 -49.27
v 90.78 -0.5994649 -49.27
v 88.65 16.219465 -45.64
v 88.65 -0.5994649 -45.64
v 86.08 16.219465 -48.42
v 86.08 -0.5994649 -48.42
v 83.83 16.219465 -49.68
v 83.83 -0.5994649 -49.68
v 78.78 16.219465 -49.05
v 78.78 -0.5994649 -49.05
v 77.98 16.219465 -48.68
v 77.98 -0.5994649 -48.68
v 75.98 16.219465 -44.68
v 75.98 -0.5994649 -44.68
v 75.3 16.219465 -42.69
v 75.3 -0.5994649 -42.69
v 75.63 16.219465 -41.78
v 75.63 -0.5994649 -41.78
v 78.49 16.219465 -39.2
v 78.49 -0.5994649 -39.2
v 76.86 16.219465 -35.19
v 76.86 -0.5994649 -35.19
v 77.37 16.219465 -29.58
v 77.37 -0.5994649 -29.58
v 78.41 16.219465 -26.49
v 78.41 -0.5994649 -26.49
v 77.38 16.219465 -26.06
v 77.38 -0.5994649 -26.06
v 77.1 16.219465 -24.16
v 77.1 -0.5994649 -24.16
v 78.14 16.219465 -20.79
v 78.14 -0.5994649 -20.79
v 80.72 16.219465 -21.45
v 80.72 -0.5994649 -21.45
v 82.8 16.219465 -19.89
v 82.8 -0.5994649 -19.89
v 86.3 16.219465 -21.47
v 86.3 -0.5994649 -21.47
v 88.21 16.219465 -20.85
v 88.21 -0.5994649 -20.85
v 89.25 16.219465 -21.39
v 89.25 -0.5994649 -21.39
v 90.44 16.219465 -21.51
v 90.44 -0.5994649 -21.51
v 93.04 16.219465 -19.61
v 93.04 -0.5994649 -19.61
v 91.44 16.219465 -18.44
v 91.44 -0.5994649 -18.44
v 92.85 16.219465 -14.95
v 92.85 -0.5994649 -14.95
v 90.48 16.219465 -13.69
v 90.48 -0.5994649 -13.69
v 87.15 16.219465 -12.34
v 87.15 -0.5994649 -12.34
v 86.7 16.219465 -10.5
v 86.7 -0.5994649 -10.5
v 87.73 16.219465 -5.2
v 87.73 -0.5994649 -5.2
v 89.11 16.219465 -2.98
v 89.11 -0.5994649 -2.98
v 86.28 16.219465 3.01
v 86.28 -0.5994649 3.01
v 86.57 16.219465 5.43
v 86.57 -0.5994649 5.43
v 87.38 16.219465 8.48
v 87.38 -0.5994649 8.48
v 86.12 16.219465 15.81
v 86.12 -0.5994649 15.81
v 89.06 16.219465 17.25
v 89.06 -0.5994649 17.25
v 91.27 16.219465 19.44
v 91.27 -0.5994649 19.44
v 96.03 16.219465 19.13
v 96.03 -0.5994649 19.13
v 99.58 16.219465 21.5
v 99.58 -0.5994649 21.5
v 101.65 16.219465 19.57
v 101.65 -0.5994649 19.57
v 99.56 16.219465 15.88
v 99.56 -0.5994649 15.88
v 98.85 16.219465 11.57
v 98.85 -0.5994649 11.57
v 103.75 16.219465 10.43
v 103.75 -0.5994649 10.43
v 108.91 16.219465 13.33
v 108.91 -0.5994649 13.33
v 109.17 16.219465 15.12
v 109.17 -0.5994649 15.12
v 109.37 18.597662 17.41
v 109.37 -2.9776616 17.41
v 112.51 18.838755 19.32
v 112.51 -4.818754 19.32
v 114.03 18.498755 19.56
v 114.03 -5.1587543 19.56
v 115.35 18.498755 18.48
v 115.35 -5.1587543 18.48
v 117.41 17.338755 20.29
v 117.41 -6.318754 20.29
v 123.46 15.318754 24.47
v 123.46 -8.338755 24.47
v 122.7 15.078754 25.06
v 122.7 -8.578754 25.06
v 123.65 15.078754 26.3
v 123.65 -8.578754 26.3
v 125.16 14.728754 26.3
v 125.16 -8.928755 26.3
v 126.51 14.728754 26.36
v 126.51 -8.928755 26.36
v 127.99 14.728754 27.1
v 127.99 -8.928755 27.1
v 130.5 14.138754 27.25
v 130.5 -9.518755 27.25
v 133.61 13.538754 28.25
v 133.61 -10.118754 28.25
v 134.22 13.288754 27.23
v 134.22 -10.368754 27.23
v 133.94 13.288754 25.68
v 133.94 -10.368754 25.68
v 130.97 13.288754 23.16
v 130.97 -10.368754 23.16
v 130.95 13.288754 21.34
v 130.95 -10.368754 21.34
v 126.65 13.288754 17.99
v 126.65 -10.368754 17.99
v 127.4 13.288754 14.7
v 127.4 -10.368754 14.7
v 129.87 13.288754 15.14
v 129.87 -10.368754 15.14
v 130.67 13.288754 13.54
v 130.67 -10.368754 13.54
v 132.46 13.288754 13.54
v 132.46 -10.368754 13.54
v 132.99 13.288754 9.46
v 132.99 -10.368754 9.46
v 132.4 13.288754 5.13
v 132.4 -10.368754 5.13
v 137.86 13.288754 6.42
v 137.86 -10.368754 6.42
v 137.69 13.288754 8.02
v 137.69 -10.368754 8.02
v 139.92 13.288754 9.32
v 139.92 -10.368754 9.32
v 142.04 13.288754 8.24
v 142.04 -10.368754 8.24
v 142.58 13.288754 6.73
v 142.58 -10.368754 6.73
v 147.16 13.288754 7.05
v 147.16 -10.368754 7.05
v 147.2 13.288754 7.97
v 147.2 -10.368754 7.97
v 149.74 13.288754 8.52
v 149.74 -10.368754 8.52
v 151.69 13.288754 9.94
v 151.69 -10.368754 9.94
v 153.68 13.288754 11.41
v 153.68 -10.368754 11.41
v 154.77 13.288754 15.34
v 154.77 -10.368754 15.34
v 156.9 13.288754 20.37
v 156.9 -10.368754 20.37
v 153.28 13.288754 22.11
v 153.28 -10.368754 22.11
v 152.7 13.288754 26.88
v 152.7 -10.368754 26.88
v 159.6 13.288754 32.08
v 159.6 -10.368754 32.08
v 159.67 13.288754 39.57
v 159.67 -10.368754 39.57
v 168.09 13.288754 41.41
v 168.09 -10.368754 41.41
v 168.8 13.288754 42.52
v 168.8 -10.368754 42.52
v 161.5 13.288754 47.59
v 161.5 -10.368754 47.59
v 158 13.288754 50.18
v 158 -10.368754 50.18
v 157.45 13.288754 52.68
v 157.45 -10.368754 52.68
v 152.73 13.288754 52.56
v 152.73 -10.368754 52.56
v 148.61 13.288754 55.09
v 148.61 -10.368754 55.09
v 146.61 13.288754 61.94
v 146.61 -10.368754 61.94
v 144.59 13.288754 61.44
v 144.59 -10.368754 61.44
v 142.39 13.288754 62.19
v 142.39 -10.368754 62.19
v 140.68 13.288754 60.65
v 140.68 -10.368754 60.65
v 138.93 13.288754 61.3
v 138.93 -10.368754 61.3
v 136.66 13.288754 63.63
v 136.66 -10.368754 63.63
v 131.99 13.288754 63.81
v 131.99 -10.368754 63.81
v 132.2 13.288754 62.06
v 132.2 -10.368754 62.06
v 130 13.288754 57.67
v 130 -10.368754 57.67
v 133.02 13.288754 55.26
v 133.02 -10.368754 55.26
v 135.8 13.288754 52.92
v 135.8 -10.368754 52.92
v 133.9 13.288754 47.88
v 133.9 -10.368754 47.88
v 130.29 13.288754 45.33
v 130.29 -10.368754 45.33
v 134.26 13.288754 44.39
v 134.26 -10.368754 44.39
v 132.9 13.288754 41.01
v 132.9 -10.368754 41.01
v 129.12 13.288754 40.9
v 129.12 -10.368754 40.9
v 125.66 14.308754 43.41
v 125.66 -9.348755 43.41
v 124.08 14.308754 43.25
v 124.08 -9.348755 43.25
v 123.66 14.308754 42.2
v 123.66 -9.348755 42.2
v 120.76 15.038754 41.28
v 120.76 -8.618754 41.28
v 117.64 15.038754 43.19
v 117.64 -8.618754 43.19
v 114.13 15.818754 43.07
v 114.13 -7.8387547 43.07
v 111.17 17.128754 38.74
v 111.17 -6.528754 38.74
v 107.84 18.388754 35.58
v 107.84 -5.2687545 35.58
v 103.1 18.388754 35.86
v 103.1 -5.2687545 35.86
v 101.65 18.388754 33.78
v 101.65 -5.2687545 33.78
v 98.93 18.388754 33.29
v 98.93 -5.2687545 33.29
v 92.3 18.388754 35.4
v 92.3 -5.2687545 35.4
v 90.08 18.388754 35.39
v 90.08 -5.2687545 35.39
v 87.76 18.388754 33.39
v 87.76 -5.2687545 33.39
v 84.91 18.388754 33.01
v 84.91 -5.2687545 33.01
v 85.54 18.968754 31.19
v 85.54 -4.6887546 31.19
v 83.61 18.968754 25.79
v 83.61 -4.6887546 25.79
v 82.4 18.968754 25.76
v 82.4 -4.6887546 25.76
v 80.15 18.968754 22.38
v 80.15 -4.6887546 22.38
v 79.79 18.968754 18.49
v 79.79 -4.6887546 18.49
v 76.72 18.968754 15.01
v 76.72 -4.6887546 15.01
v 69.92 18.968754 16.48
v 69.92 -4.6887546 16.48
v 67.39 18.968754 19.44
v 67.39 -4.6887546 19.44
v 65.21 18.968754 20.18
v 65.21 -4.6887546 20.18
v 60.19 18.968754 19.42
v 60.19 -4.6887546 19.42
v 60.52 18.968754 16.79
v 60.52 -4.6887546 16.79
v 57.8 18.968754 13.97
v 57.8 -4.6887546 13.97
v 52.03 18.968754 14.38
v 52.03 -4.6887546 14.38
v 48.86 18.968754 15.83
v 48.86 -4.6887546 15.83
v 44.67 18.968754 10.22
v 44.67 -4.6887546 10.22
v 46.18 18.968754 0.76
v 46.18 -4.6887546 0.76
v 49.15 18.968754 1.02
v 49.15 -4.6887546 1.02
v 50.54 18.968754 -0.56
v 50.54 -4.6887546 -0.56
v 53.24 18.968754 1.21
v 53.24 -4.6887546 1.21
v 55.47 18.968754 0.51
v 55.47 -4.6887546 0.51
v 55.76 18.968754 -4.42
v 55.76 -4.6887546 -4.42
v 57.93 18.968754 -9.38
v 57.93 -4.6887546 -9.38
v 55.58 18.968754 -15.22
v 55.58 -4.6887546 -15.22
v 57.8 18.968754 -17.11
v 57.8 -4.6887546 -17.11
v 59.97 18.968754 -14.11
v 59.97 -4.6887546 -14.11
v 69.22 18.968754 -18.58
v 69.22 -4.6887546 -18.58
v 69.59 18.968754 -19.83
v 69.59 -4.6887546 -19.83
v 64.69 18.968754 -24.54
v 64.69 -4.6887546 -24.54
v 67.21 20.038754 -30.1
v 67.21 -3.6187544 -30.1
v 67.76 20.038754 -35.9
v 67.76 -3.6187544 -35.9
v 67.78 20.038754 -38.11
v 67.78 -3.6187544 -38.11
v 66.1 20.038754 -41.44
v 66.1 -3.6187544 -41.44
v 63.86 20.038754 -41.89
v 63.86 -3.6187544 -41.89
v 59.86 20.038754 -41.51
v 59.86 -3.6187544 -41.51
v 59.52 20.038754 -43.57
v 59.52 -3.6187544 -43.57
v 56.22 20.038754 -43.47
v 56.22 -3.6187544 -43.47
v 53.65 20.038754 -42.81
v 53.65 -3.6187544 -42.81
v 52.69 20.038754 -45.24
v 52.69 -3.6187544 -45.24
v 48.8 20.038754 -47.8
v 48.8 -3.6187544 -47.8
v 33.92 20.038754 -49.47
v 33.92 -3.6187544 -49.47
v 32.26 20.038754 -47.82
v 32.26 -3.6187544 -47.82
v 30.76 20.038754 -44.67
v 30.76 -3.6187544 -44.67
v 34.14 20.038754 -41.01
v 34.14 -3.6187544 -41.01
v 33.5 20.038754 -39.6
v 33.5 -3.6187544 -39.6
v 30.54 20.038754 -38.95
v 30.54 -3.6187544 -38.95
v 29.49 20.038754 -34.75
v 29.49 -3.6187544 -34.75
v 31.08 20.038754 -32.24
v 31.08 -3.6187544 -32.24
v 36.06 20.038754 -28.21
v 36.06 -3.6187544 -28.21
v 32.88 20.038754 -25.18
v 32.88 -3.6187544 -25.18
v 31.42 20.038754 -28.06
v 31.42 -3.6187544 -28.06
v 28.45 20.038754 -29.32
v 28.45 -3.6187544 -29.32
v 24.16 20.038754 -30.67
v 24.16 -3.6187544 -30.67
v 20.48 20.038754 -28.16
v 20.48 -3.6187544 -28.16
v 19.73 20.038754 -24.14
v 19.73 -3.6187544 -24.14
v 22.56 20.038754 -22.34
v 22.56 -3.6187544 -22.34
v 19.77 20.038754 -19.48
v 19.77 -3.6187544 -19.48
v 16.93 16.119465 -18.7
v 16.93 -0.6994648 -18.7
vt -0.01693 -0.018700002
vt -0.01693 -0.018700002
vt -0.01353 -0.018180002
vt -0.01353 -0.018180002
vt -0.011030001 -0.015380001
vt -0.011030001 -0.015380001
vt -0.01082 -0.013140001
vt -0.01082 -0.013140001
vt -0.00832 -0.01128
vt -0.00832 -0.01128
vt -0.00521 -0.01128
vt -0.00521 -0.01128
vt -0.00333 -0.010790001
vt -0.00333 -0.010790001
vt -0.0016500001 -0.00949
vt -0.0016500001 -0.00949
vt 0.0012500001 -0.010590001
vt 0.0012500001 -0.010590001
vt 0.00527 -0.0097
vt 0.00527 -0.0097
vt 0.00666 -0.011030001
vt 0.00666 -0.011030001
vt 0.00941 -0.013200001
vt 0.00941 -0.013200001
vt 0.013840001 -0.013800001
vt 0.013840001 -0.013800001
vt 0.014270001 -0.015700001
vt 0.014270001 -0.015700001
vt 0.01631 -0.017070001
vt 0.01631 -0.017070001
vt 0.01764 -0.019580001
vt 0.01764 -0.019580001
vt 0.01605 -0.020920001
vt 0.01605 -0.020920001
vt 0.01662 -0.022530003
vt 0.01662 -0.022530003
vt 0.02096 -0.030150002
vt 0.02096 -0.030150002
vt 0.025630001 -0.030910002
vt 0.025630001 -0.030910002
vt 0.027440002 -0.032050002
vt 0.027440002 -0.032050002
vt 0.03359 -0.04357
vt 0.03359 -0.04357
vt 0.03221 -0.051240005
vt 0.03221 -0.051240005
vt 0.02793 -0.055610005
vt 0.02793 -0.055610005
vt 0.024810001 -0.054740004
vt 0.024810001 -0.054740004
vt 0.02207 -0.055570003
vt 0.02207 -0.055570003
vt 0.01822 -0.05364
vt 0.01822 -0.05364
vt 0.01747 -0.05119
vt 0.01747 -0.05119
vt 0.019780003 -0.04602
vt 0.019780003 -0.04602
vt 0.021280002 -0.04592
vt 0.021280002 -0.04592
vt 0.02406 -0.047140002
vt 0.02406 -0.047140002
vt 0.025740001 -0.04812
vt 0.025740001 -0.04812
vt 0.027490001 -0.04568
vt 0.027490001 -0.04568
vt 0.029247 -0.043784004
vt 0.029247 -0.043784004
vt 0.028679002 -0.042680003
vt 0.028679002 -0.042680003
vt 0.027512 -0.042701002
vt 0.027512 -0.042701002
vt 0.024399001 -0.042815
vt 0.024399001 -0.042815
vt 0.020990001 -0.04535
vt 0.020990001 -0.04535
vt 0.01899 -0.04427
vt 0.01899 -0.04427
vt 0.01641 -0.045870002
vt 0.01641 -0.045870002
vt 0.014950001 -0.048330005
vt 0.014950001 -0.048330005
vt 0.014330001 -0.050380003
vt 0.014330001 -0.050380003
vt 0.015340001 -0.05353
vt 0.015340001 -0.05353
vt 0.016900001 -0.05587
vt 0.016900001 -0.05587
vt 0.02009 -0.057340004
vt 0.02009 -0.057340004
vt 0.02191 -0.057700004
vt 0.02191 -0.057700004
vt 0.022520002 -0.059400003
vt 0.022520002 -0.059400003
vt 0.023940003 -0.059810005
vt 0.023940003 -0.059810005
vt 0.028150002 -0.058980003
vt 0.028150002 -0.058980003
vt 0.03384 -0.060110003
vt 0.03384 -0.060110003
vt 0.0371 -0.06285
vt 0.0371 -0.06285
vt 0.036620002 -0.06916001
vt 0.036620002 -0.06916001
vt 0.034280002 -0.07196
vt 0.034280002 -0.07196
vt 0.031400003 -0.07326001
vt 0.031400003 -0.07326001
vt 0.02865 -0.0767
vt 0.02865 -0.0767
vt 0.026030002 -0.07949
vt 0.026030002 -0.07949
vt 0.024580002 -0.079330005
vt 0.024580002 -0.079330005
vt 0.02449 -0.0811
vt 0.02449 -0.0811
vt 0.022270001 -0.082830004
vt 0.022270001 -0.082830004
vt 0.01838 -0.08674
vt 0.01838 -0.08674
vt 0.018000001 -0.08821
vt 0.018000001 -0.08821
vt 0.019000001 -0.088240005
vt 0.019000001 -0.088240005
vt 0.021290002 -0.08759
vt 0.021290002 -0.08759
vt 0.02243 -0.08924
vt 0.02243 -0.08924
vt 0.02366 -0.09062
vt 0.02366 -0.09062
vt 0.025120001 -0.09023001
vt 0.025120001 -0.09023001
vt 0.02806 -0.08781
vt 0.02806 -0.08781
vt 0.037630003 -0.08527
vt 0.037630003 -0.08527
vt 0.041520003 -0.08521
vt 0.041520003 -0.08521
vt 0.04298 -0.08251001
vt 0.04298 -0.08251001
vt 0.04441 -0.082930006
vt 0.04441 -0.082930006
vt 0.04571 -0.08408
vt 0.04571 -0.08408
vt 0.05019 -0.082600005
vt 0.05019 -0.082600005
vt 0.055650003 -0.08330001
vt 0.055650003 -0.08330001
vt 0.059350003 -0.08287001
vt 0.059350003 -0.08287001
vt 0.06164 -0.105780005
vt 0.06164 -0.105780005
vt 0.05855 -0.10615001
vt 0.05855 -0.10615001
vt 0.056110002 -0.104200006
vt 0.056110002 -0.104200006
vt 0.050070003 -0.10654001
vt 0.050070003 -0.10654001
vt 0.048080005 -0.10789
vt 0.048080005 -0.10789
vt 0.0471 -0.106010005
vt 0.0471 -0.106010005
vt 0.039580002 -0.109110005
vt 0.039580002 -0.109110005
vt 0.03714 -0.11116001
vt 0.03714 -0.11116001
vt 0.034040004 -0.11068001
vt 0.034040004 -0.11068001
vt 0.031820003 -0.10937001
vt 0.031820003 -0.10937001
vt 0.027840002 -0.10991001
vt 0.027840002 -0.10991001
vt 0.026150001 -0.11116001
vt 0.026150001 -0.11116001
vt 0.020870002 -0.108950004
vt 0.020870002 -0.108950004
vt 0.01798 -0.109110005
vt 0.01798 -0.109110005
vt 0.014750001 -0.11202
vt 0.014750001 -0.11202
vt 0.014310001 -0.11506
vt 0.014310001 -0.11506
vt 0.017190002 -0.11894001
vt 0.017190002 -0.11894001
vt 0.0216 -0.12408001
vt 0.0216 -0.12408001
vt 0.02133 -0.12524
vt 0.02133 -0.12524
vt 0.017840002 -0.12459
vt 0.017840002 -0.12459
vt 0.00807 -0.11996
vt 0.00807 -0.11996
vt 0.00043000001 -0.115930006
vt 0.00043000001 -0.115930006
vt 0.0015 -0.11196
vt 0.0015 -0.11196
vt 8.0000005E-05 -0.10887001
vt 8.0000005E-05 -0.10887001
vt -0.0045300005 -0.10586
vt -0.0045300005 -0.10586
vt -0.00788 -0.105160005
vt -0.00788 -0.105160005
vt -0.010550001 -0.109330006
vt -0.010550001 -0.109330006
vt -0.01706 -0.10507
vt -0.01706 -0.10507
vt -0.01288 -0.10389
vt -0.01288 -0.10389
vt -0.01094 -0.10024
vt -0.01094 -0.10024
vt -0.011670001 -0.09814
vt -0.011670001 -0.09814
vt -0.014840001 -0.09328
vt -0.014840001 -0.09328
vt -0.012350001 -0.090320006
vt -0.012350001 -0.090320006
vt -0.01233 -0.08787001
vt -0.01233 -0.08787001
vt -0.009380001 -0.08662001
vt -0.009380001 -0.08662001
vt -0.008300001 -0.08874
vt -0.008300001 -0.08874
vt -0.00716 -0.08905001
vt -0.00716 -0.08905001
vt -0.0048200004 -0.08659
vt -0.0048200004 -0.08659
vt -0.0025600002 -0.0855
vt -0.0025600002 -0.0855
vt -0.0013600001 -0.0836
vt -0.0013600001 -0.0836
vt -2.0000001E-05 -0.08302
vt -2.0000001E-05 -0.08302
vt 0.00178 -0.08308001
vt 0.00178 -0.08308001
vt 0.00273 -0.08216001
vt 0.00273 -0.08216001
vt 0.0030500002 -0.07986
vt 0.0030500002 -0.07986
vt 0.0076800003 -0.07903
vt 0.0076800003 -0.07903
vt 0.013260001 -0.077570006
vt 0.013260001 -0.077570006
vt 0.017840002 -0.07452
vt 0.017840002 -0.07452
vt 0.020200001 -0.07156
vt 0.020200001 -0.07156
vt 0.019370003 -0.07051001
vt 0.019370003 -0.07051001
vt 0.018180002 -0.06978
vt 0.018180002 -0.06978
vt 0.01648 -0.07091001
vt 0.01648 -0.07091001
vt 0.01479 -0.07245
vt 0.01479 -0.07245
vt 0.0066500003 -0.07356
vt 0.0066500003 -0.07356
vt 0.0010700001 -0.075430006
vt 0.0010700001 -0.075430006
vt -0.00062 -0.075950004
vt -0.00062 -0.075950004
vt -0.00131 -0.07535
vt -0.00131 -0.07535
vt -0.0056300005 -0.075430006
vt -0.0056300005 -0.075430006
vt -0.01095 -0.0767
vt -0.01095 -0.0767
vt -0.014140001 -0.074080005
vt -0.014140001 -0.074080005
vt -0.016940001 -0.07332
vt -0.016940001 -0.07332
vt -0.019580001 -0.07295
vt -0.019580001 -0.07295
vt -0.022030002 -0.06799
vt -0.022030002 -0.06799
vt -0.02707 -0.066970006
vt -0.02707 -0.066970006
vt -0.02822 -0.067870006
vt -0.02822 -0.067870006
vt -0.029560002 -0.06774
vt -0.029560002 -0.06774
vt -0.029770002 -0.06616001
vt -0.029770002 -0.06616001
vt -0.033320002 -0.06430001
vt -0.033320002 -0.06430001
vt -0.037490003 -0.06497
vt -0.037490003 -0.06497
vt -0.03922 -0.06842
vt -0.03922 -0.06842
vt -0.041900005 -0.06777
vt -0.041900005 -0.06777
vt -0.04227 -0.06665
vt -0.04227 -0.06665
vt -0.04379 -0.0658
vt -0.04379 -0.0658
vt -0.04675 -0.06602
vt -0.04675 -0.06602
vt -0.049840003 -0.06796
vt -0.049840003 -0.06796
vt -0.050930005 -0.06674
vt -0.050930005 -0.06674
vt -0.05411 -0.06875
vt -0.05411 -0.06875
vt -0.05612 -0.06906
vt -0.05612 -0.06906
vt -0.05844 -0.07139
vt -0.05844 -0.07139
vt -0.062280003 -0.071830004
vt -0.062280003 -0.071830004
vt -0.06276 -0.07440001
vt -0.06276 -0.07440001
vt -0.068830006 -0.07337001
vt -0.068830006 -0.07337001
vt -0.065630004 -0.069350004
vt -0.065630004 -0.069350004
vt -0.06747001 -0.06469001
vt -0.06747001 -0.06469001
vt -0.072390005 -0.06026
vt -0.072390005 -0.06026
vt -0.07418001 -0.05544
vt -0.07418001 -0.05544
vt -0.07557 -0.055110004
vt -0.07557 -0.055110004
vt -0.08488 -0.05826
vt -0.08488 -0.05826
vt -0.085360005 -0.057570003
vt -0.085360005 -0.057570003
vt -0.08454 -0.055970006
vt -0.08454 -0.055970006
vt -0.085820004 -0.054910004
vt -0.085820004 -0.054910004
vt -0.08789001 -0.054390002
vt -0.08789001 -0.054390002
vt -0.08856 -0.0527
vt -0.08856 -0.0527
vt -0.09202 -0.051730003
vt -0.09202 -0.051730003
vt -0.090780005 -0.049270004
vt -0.090780005 -0.049270004
vt -0.08865 -0.045640003
vt -0.08865 -0.045640003
vt -0.08608001 -0.04842
vt -0.08608001 -0.04842
vt -0.08383001 -0.049680002
vt -0.08383001 -0.049680002
vt -0.07878 -0.049050003
vt -0.07878 -0.049050003
vt -0.077980004 -0.048680004
vt -0.077980004 -0.048680004
vt -0.07598001 -0.044680003
vt -0.07598001 -0.044680003
vt -0.07530001 -0.04269
vt -0.07530001 -0.04269
vt -0.07563 -0.041780002
vt -0.07563 -0.041780002
vt -0.078490004 -0.039200004
vt -0.078490004 -0.039200004
vt -0.07686 -0.03519
vt -0.07686 -0.03519
vt -0.07737 -0.02958
vt -0.07737 -0.02958
vt -0.07841001 -0.026490001
vt -0.07841001 -0.026490001
vt -0.07738 -0.02606
vt -0.07738 -0.02606
vt -0.0771 -0.024160001
vt -0.0771 -0.024160001
vt -0.078140005 -0.020790001
vt -0.078140005 -0.020790001
vt -0.08072001 -0.021450002
vt -0.08072001 -0.021450002
vt -0.08280001 -0.019890001
vt -0.08280001 -0.019890001
vt -0.08630001 -0.021470001
vt -0.08630001 -0.021470001
vt -0.08821 -0.02085
vt -0.08821 -0.02085
vt -0.089250006 -0.02139
vt -0.089250006 -0.02139
vt -0.090440005 -0.021510001
vt -0.090440005 -0.021510001
vt -0.093040004 -0.01961
vt -0.093040004 -0.01961
vt -0.09144001 -0.01844
vt -0.09144001 -0.01844
vt -0.09285 -0.014950001
vt -0.09285 -0.014950001
vt -0.09048001 -0.01369
vt -0.09048001 -0.01369
vt -0.08715001 -0.012340001
vt -0.08715001 -0.012340001
vt -0.0867 -0.010500001
vt -0.0867 -0.010500001
vt -0.087730005 -0.0052
vt -0.087730005 -0.0052
vt -0.08911 -0.00298
vt -0.08911 -0.00298
vt -0.08628 0.00301
vt -0.08628 0.00301
vt -0.08657 0.00543
vt -0.08657 0.00543
vt -0.08738 0.00848
vt -0.08738 0.00848
vt -0.08612001 0.015810002
vt -0.08612001 0.015810002
vt -0.08906 0.017250001
vt -0.08906 0.017250001
vt -0.09127 0.01944
vt -0.09127 0.01944
vt -0.096030004 0.01913
vt -0.096030004 0.01913
vt -0.099580005 0.0215
vt -0.099580005 0.0215
vt -0.10165001 0.01957
vt -0.10165001 0.01957
vt -0.09956 0.015880002
vt -0.09956 0.015880002
vt -0.098850004 0.01157
vt -0.098850004 0.01157
vt -0.103750005 0.010430001
vt -0.103750005 0.010430001
vt -0.10891001 0.01333
vt -0.10891001 0.01333
vt -0.109170005 0.015120001
vt -0.109170005 0.015120001
vt -0.10937001 0.01741
vt -0.10937001 0.01741
vt -0.11251001 0.01932
vt -0.11251001 0.01932
vt -0.11403 0.01956
vt -0.11403 0.01956
vt -0.11535 0.018480001
vt -0.11535 0.018480001
vt -0.11741001 0.020290002
vt -0.11741001 0.020290002
vt -0.12346 0.02447
vt -0.12346 0.02447
vt -0.122700006 0.02506
vt -0.122700006 0.02506
vt -0.12365001 0.0263
vt -0.12365001 0.0263
vt -0.12516001 0.0263
vt -0.12516001 0.0263
vt -0.12651001 0.026360001
vt -0.12651001 0.026360001
vt -0.12799 0.027100002
vt -0.12799 0.027100002
vt -0.1305 0.027250001
vt -0.1305 0.027250001
vt -0.13361001 0.028250001
vt -0.13361001 0.028250001
vt -0.13422 0.02723
vt -0.13422 0.02723
vt -0.13394001 0.025680002
vt -0.13394001 0.025680002
vt -0.13097 0.023160001
vt -0.13097 0.023160001
vt -0.13095 0.021340001
vt -0.13095 0.021340001
vt -0.12665 0.01799
vt -0.12665 0.01799
vt -0.12740001 0.0147
vt -0.12740001 0.0147
vt -0.12987 0.015140001
vt -0.12987 0.015140001
vt -0.13067001 0.013540001
vt -0.13067001 0.013540001
vt -0.13246001 0.013540001
vt -0.13246001 0.013540001
vt -0.13299002 0.00946
vt -0.13299002 0.00946
vt -0.1324 0.0051300004
vt -0.1324 0.0051300004
vt -0.13786 0.0064200005
vt -0.13786 0.0064200005
vt -0.13769001 0.0080200005
vt -0.13769001 0.0080200005
vt -0.13992001 0.00932
vt -0.13992001 0.00932
vt -0.14204 0.00824
vt -0.14204 0.00824
vt -0.14258 0.0067300005
vt -0.14258 0.0067300005
vt -0.14716001 0.0070500006
vt -0.14716001 0.0070500006
vt -0.1472 0.007970001
vt -0.1472 0.007970001
vt -0.14974001 0.008520001
vt -0.14974001 0.008520001
vt -0.15169 0.00994
vt -0.15169 0.00994
vt -0.15368 0.011410001
vt -0.15368 0.011410001
vt -0.15477002 0.015340001
vt -0.15477002 0.015340001
vt -0.1569 0.020370001
vt -0.1569 0.020370001
vt -0.15328 0.022110002
vt -0.15328 0.022110002
vt -0.1527 0.02688
vt -0.1527 0.02688
vt -0.15960002 0.032080002
vt -0.15960002 0.032080002
vt -0.15967001 0.03957
vt -0.15967001 0.03957
vt -0.16809 0.041410003
vt -0.16809 0.041410003
vt -0.16880001 0.04252
vt -0.16880001 0.04252
vt -0.1615 0.047590002
vt -0.1615 0.047590002
vt -0.158 0.050180003
vt -0.158 0.050180003
vt -0.15745 0.052680004
vt -0.15745 0.052680004
vt -0.15273 0.052560005
vt -0.15273 0.052560005
vt -0.14861001 0.055090003
vt -0.14861001 0.055090003
vt -0.14661 0.061940003
vt -0.14661 0.061940003
vt -0.14459 0.061440002
vt -0.14459 0.061440002
vt -0.14239001 0.06219
vt -0.14239001 0.06219
vt -0.14068 0.060650006
vt -0.14068 0.060650006
vt -0.13893 0.061300002
vt -0.13893 0.061300002
vt -0.13666001 0.06363001
vt -0.13666001 0.06363001
vt -0.13199002 0.063810006
vt -0.13199002 0.063810006
vt -0.1322 0.062060006
vt -0.1322 0.062060006
vt -0.13000001 0.05767
vt -0.13000001 0.05767
vt -0.13302001 0.055260003
vt -0.13302001 0.055260003
vt -0.1358 0.052920002
vt -0.1358 0.052920002
vt -0.1339 0.047880005
vt -0.1339 0.047880005
vt -0.13029 0.045330003
vt -0.13029 0.045330003
vt -0.13426 0.04439
vt -0.13426 0.04439
vt -0.1329 0.04101
vt -0.1329 0.04101
vt -0.12912 0.040900003
vt -0.12912 0.040900003
vt -0.12566 0.043410003
vt -0.12566 0.043410003
vt -0.12408001 0.043250002
vt -0.12408001 0.043250002
vt -0.12366001 0.042200003
vt -0.12366001 0.042200003
vt -0.12076001 0.04128
vt -0.12076001 0.04128
vt -0.11764 0.043190002
vt -0.11764 0.043190002
vt -0.114130005 0.043070003
vt -0.114130005 0.043070003
vt -0.11117 0.038740005
vt -0.11117 0.038740005
vt -0.10784 0.03558
vt -0.10784 0.03558
vt -0.1031 0.035860002
vt -0.1031 0.035860002
vt -0.10165001 0.03378
vt -0.10165001 0.03378
vt -0.09893001 0.033290002
vt -0.09893001 0.033290002
vt -0.092300005 0.035400003
vt -0.092300005 0.035400003
vt -0.09008001 0.03539
vt -0.09008001 0.03539
vt -0.08776001 0.03339
vt -0.08776001 0.03339
vt -0.084910005 0.03301
vt -0.084910005 0.03301
vt -0.085540004 0.031190002
vt -0.085540004 0.031190002
vt -0.083610006 0.025790002
vt -0.083610006 0.025790002
vt -0.08240001 0.02576
vt -0.08240001 0.02576
vt -0.08015001 0.02238
vt -0.08015001 0.02238
vt -0.07979 0.018490002
vt -0.07979 0.018490002
vt -0.07672001 0.015010001
vt -0.07672001 0.015010001
vt -0.06992 0.01648
vt -0.06992 0.01648
vt -0.06739 0.01944
vt -0.06739 0.01944
vt -0.06521 0.020180002
vt -0.06521 0.020180002
vt -0.06019 0.019420002
vt -0.06019 0.019420002
vt -0.060520004 0.016790003
vt -0.060520004 0.016790003
vt -0.057800002 0.013970001
vt -0.057800002 0.013970001
vt -0.05203 0.0143800005
vt -0.05203 0.0143800005
vt -0.048860002 0.01583
vt -0.048860002 0.01583
vt -0.04467 0.0102200005
vt -0.04467 0.0102200005
vt -0.046180002 0.00076
vt -0.046180002 0.00076
vt -0.049150005 0.0010200001
vt -0.049150005 0.0010200001
vt -0.050540004 -0.00056
vt -0.050540004 -0.00056
vt -0.053240005 0.0012100001
vt -0.053240005 0.0012100001
vt -0.055470005 0.00051000004
vt -0.055470005 0.00051000004
vt -0.05576 -0.00442
vt -0.05576 -0.00442
vt -0.057930004 -0.009380001
vt -0.057930004 -0.009380001
vt -0.055580005 -0.015220001
vt -0.055580005 -0.015220001
vt -0.057800002 -0.017110001
vt -0.057800002 -0.017110001
vt -0.059970003 -0.01411
vt -0.059970003 -0.01411
vt -0.06922001 -0.01858
vt -0.06922001 -0.01858
vt -0.06959 -0.019830002
vt -0.06959 -0.019830002
vt -0.06469001 -0.024540002
vt -0.06469001 -0.024540002
vt -0.067210004 -0.030100001
vt -0.067210004 -0.030100001
vt -0.067760006 -0.035900004
vt -0.067760006 -0.035900004
vt -0.06778 -0.038110003
vt -0.06778 -0.038110003
vt -0.0661 -0.04144
vt -0.0661 -0.04144
vt -0.06386001 -0.041890003
vt -0.06386001 -0.041890003
vt -0.059860002 -0.04151
vt -0.059860002 -0.04151
vt -0.059520002 -0.04357
vt -0.059520002 -0.04357
vt -0.056220002 -0.043470003
vt -0.056220002 -0.043470003
vt -0.053650003 -0.042810004
vt -0.053650003 -0.042810004
vt -0.05269 -0.045240004
vt -0.05269 -0.045240004
vt -0.048800003 -0.0478
vt -0.048800003 -0.0478
vt -0.03392 -0.049470004
vt -0.03392 -0.049470004
vt -0.03226 -0.04782
vt -0.03226 -0.04782
vt -0.030760001 -0.04467
vt -0.030760001 -0.04467
vt -0.034140002 -0.04101
vt -0.034140002 -0.04101
vt -0.0335 -0.0396
vt -0.0335 -0.0396
vt -0.030540003 -0.038950004
vt -0.030540003 -0.038950004
vt -0.029490001 -0.034750003
vt -0.029490001 -0.034750003
vt -0.031080002 -0.032240003
vt -0.031080002 -0.032240003
vt -0.03606 -0.028210001
vt -0.03606 -0.028210001
vt -0.03288 -0.02518
vt -0.03288 -0.02518
vt -0.03142 -0.02806
vt -0.03142 -0.02806
vt -0.028450003 -0.029320002
vt -0.028450003 -0.029320002
vt -0.024160001 -0.030670002
vt -0.024160001 -0.030670002
vt -0.020480001 -0.028160002
vt -0.020480001 -0.028160002
vt -0.01973 -0.02414
vt -0.01973 -0.02414
vt -0.02256 -0.022340002
vt -0.02256 -0.022340002
vt -0.019770002 -0.019480001
vt -0.019770002 -0.019480001
vt -0.01693 -0.018700002
vt -0.01693 -0.018700002
vn -0 1 0
vn -0 1 0
vn -0 1 0
vn -0 1 0
vn -0 1 0
vn -0 1 0
vn -0 1 0
vn -0 1 0
vn -0 1 0
vn -0 1 0
vn -0 1 0
vn -0 1 0
vn -0 1 0
vn -0 1 0
vn -0 1 0
vn -0 1 0
vn -0 1 0
vn -0 1 0
vn -0 1 0
vn -0 1 0
vn -0 1 0
vn -0 1 0
vn -0 1 0
vn -0 1 0
vn -0 1 0
vn -0 1 0
vn -0 1 0
vn -0 1 0
vn -0 1 0
vn -0 1 0
vn -0 1 0
vn -0 1 0
vn -0 1 0
vn -0 1 0
vn -0 1 0
vn -0 1 0
vn -0 1 0
vn -0 1 0
vn -0 1 0
vn -0 1 0
vn -0 1 0
vn -0 1 0
vn -0 1 0
vn -0 1 0
vn -0 1 0
vn -0 1 0
vn -0 1 0
vn -0 1 0
vn -0 1 0
vn -0 1 0
vn -0 1 0
vn -0 1 0
vn -0 1 0
vn -0 1 0
vn -0 1 0
vn -0 1 0
vn -0 1 0
vn -0 1 0
vn -0 1 0
vn -0 1 0
vn -0 1 0
vn -0 1 0
vn -0 1 0
vn -0 1 0
vn -0 1 0
vn -0 1 0
vn -0 1 0
vn -0 1 0
vn -0 1 0
vn -0 1 0
vn -0 1 0
vn -0 1 0
vn -0 1 0
vn -0 1 0
vn -0 1 0
vn -0 1 0
vn -0 1 0
vn -0 1 0
vn -0 1 0
vn -0 1 0
vn -0 1 0
vn -0 1 0
vn -0 1 0
vn -0 1 0
vn -0 1 0
vn -0 1 0
vn -0 1 0
vn -0 1 0
vn -0 1 0
vn -0 1 0
vn -0 1 0
vn -0 1 0
vn -0 1 0
vn -0 1 0
vn -0 1 0
vn -0 1 0
vn -0 1 0
vn -0 1 0
vn -0 1 0
vn -0 1 0
vn -0 1 0
vn -0 1 0
vn -0 1 0
vn -0 1 0
vn -0 1 0
vn -0 1 0
vn -0 1 0
vn -0 1 0
vn -0 1 0
vn -0 1 0
vn -0 1 0
vn -0 1 0
vn -0 1 0
vn -0 1 0
vn -0 1 0
vn -0 1 0
vn -0 1 0
vn -0 1 0
vn -0 1 0
vn -0 1 0
vn -0 1 0
vn -0 1 0
vn -0 1 0
vn -0 1 0
vn -0 1 0
vn -0 1 0
vn -0 1 0
vn -0 1 0
vn -0 1 0
vn -0 1 0
vn -0 1 0
vn -0 1 0
vn -0 1 0
vn -0 1 0
vn -0 1 0
vn -0 1 0
vn -0 1 0
vn -0 1 0
vn -0 1 0
vn -0 1 0
vn -0 1 0
vn -0 1 0
vn -0 1 0
vn -0 1 0
vn -0 1 0
vn -0 1 0
vn -0 1 0
vn -0 1 0
vn -0 1 0
vn -0 1 0
vn -0 1 0
vn -0 1 0
vn -0 1 0
vn -0 1 0
vn -0 1 0
vn -0 1 0
vn -0 1 0
vn -0 1 0
vn -0 1 0
vn -0 1 0
vn -0 1 0
vn -0 1 0
vn -0 1 0
vn -0 1 0
vn -0 1 0
vn -0 1 0
vn -0 1 0
vn -0 1 0
vn -0 1 0
vn -0 1 0
vn -0 1 0
vn -0 1 0
vn -0 1 0
vn -0 1 0
vn -0 1 0
vn -0 1 0
vn -0 1 0
vn -0 1 0
vn -0 1 0
vn -0 1 0
vn -0 1 0
vn -0 1 0
vn -0 1 0
vn -0 1 0
vn -0 1 0
vn -0 1 0
vn -0 1 0
vn -0 1 0
vn -0 1 0
vn -0 1 0
vn -0 1 0
vn -0 1 0
vn -0 1 0
vn -0 1 0
vn -0 1 0
vn -0 1 0
vn -0 1 0
vn -0 1 0
vn -0 1 0
vn -0 1 0
vn -0 1 0
vn -0 1 0
vn -0 1 0
vn -0 1 0
vn -0 1 0
vn -0 1 0
vn -0 1 0
vn -0 1 0
vn -0 1 0
vn -0 1 0
vn -0 1 0
vn -0 1 0
vn -0 1 0
vn -0 1 0
vn -0 1 0
vn -0 1 0
vn -0 1 0
vn -0 1 0
vn -0 1 0
vn -0 1 0
vn -0 1 0
vn -0 1 0
vn -0 1 0
vn -0 1 0
vn -0 1 0
vn -0 1 0
vn -0 1 0
vn -0 1 0
vn -0 1 0
vn -0 1 0
vn -0 1 0
vn -0 1 0
vn -0 1 0
vn -0 1 0
vn -0 1 0
vn -0 1 0
vn -0 1 0
vn -0 1 0
vn -0 1 0
vn -0 1 0
vn -0 1 0
vn -0 1 0
vn -0 1 0
vn -0 1 0
vn -0 1 0
vn -0 1 0
vn -0 1 0
vn -0 1 0
vn -0 1 0
vn -0 1 0
vn -0 1 0
vn -0 1 0
vn -0 1 0
vn -0 1 0
vn -0 1 0
vn -0 1 0
vn -0 1 0
vn -0 1 0
vn -0 1 0
vn -0 1 0
vn -0 1 0
vn -0 1 0
vn -0 1 0
vn -0 1 0
vn -0 1 0
vn -0 1 0
vn -0 1 0
vn -0 1 0
vn -0 1 0
vn -0 1 0
vn -0 1 0
vn -0 1 0
vn -0 1 0
vn -0 1 0
vn -0 1 0
vn -0 1 0
vn -0 1 0
vn -0 1 0
vn -0 1 0
vn -0 1 0
vn -0 1 0
vn -0 1 0
vn -0 1 0
vn -0 1 0
vn -0 1 0
vn -0 1 0
vn -0 1 0
vn -0 1 0
vn -0 1 0
vn -0 1 0
vn -0 1 0
vn -0 1 0
vn -0 1 0
vn -0 1 0
vn -0 1 0
vn -0 1 0
vn -0 1 0
vn -0 1 0
vn -0 1 0
vn -0 1 0
vn -0 1 0
vn -0 1 0
vn -0 1 0
vn -0 1 0
vn -0 1 0
vn -0 1 0
vn -0 1 0
vn -0 1 0
vn -0 1 0
vn -0 1 0
vn -0 1 0
vn -0 1 0
vn -0 1 0
vn -0 1 0
vn -0 1 0
vn -0 1 0
vn -0 1 0
vn -0 1 0
vn -0 1 0
vn -0 1 0
vn -0 1 0
vn -0 1 0
vn -0 1 0
vn -0 1 0
vn -0 1 0
vn -0 1 0
vn -0 1 0
vn -0 1 0
vn -0 1 0
vn -0 1 0
vn -0 1 0
vn -0 1 0
vn -0 1 0
vn -0 1 0
vn -0 1 0
vn -0 1 0
vn -0 1 0
vn -0 1 0
vn -0 1 0
vn -0 1 0
vn -0 1 0
vn -0 1 0
vn -0 1 0
vn -0 1 0
vn -0 1 0
vn -0 1 0
vn -0 1 0
vn -0 1 0
vn -0 1 0
vn -0 1 0
vn -0 1 0
vn -0 1 0
vn -0 1 0
vn -0 1 0
vn -0 1 0
vn -0 1 0
vn -0 1 0
vn -0 1 0
vn -0 1 0
vn -0 1 0
vn -0 1 0
vn -0 1 0
vn -0 1 0
vn -0 1 0
vn -0 1 0
vn -0 1 0
vn -0 1 0
vn -0 1 0
vn -0 1 0
vn -0 1 0
vn -0 1 0
vn -0 1 0
vn -0 1 0
vn -0 1 0
vn -0 1 0
vn -0 1 0
vn -0 1 0
vn -0 1 0
vn -0 1 0
vn -0 1 0
vn -0 1 0
vn -0 1 0
vn -0 1 0
vn -0 1 0
vn -0 1 0
vn -0 1 0
vn -0 1 0
vn -0 1 0
vn -0 1 0
vn -0 1 0
vn -0 1 0
vn -0 1 0
vn -0 1 0
vn -0 1 0
vn -0 1 0
vn -0 1 0
vn -0 1 0
vn -0 1 0
vn -0 1 0
vn -0 1 0
vn -0 1 0
vn -0 1 0
vn -0 1 0
vn -0 1 0
vn -0 1 0
vn -0 1 0
vn -0 1 0
vn -0 1 0
vn -0 1 0
vn -0 1 0
vn -0 1 0
vn -0 1 0
vn -0 1 0
vn -0 1 0
vn -0 1 0
vn -0 1 0
vn -0 1 0
vn -0 1 0
vn -0 1 0
vn -0 1 0
vn -0 1 0
vn -0 1 0
vn -0 1 0
vn -0 1 0
vn -0 1 0
vn -0 1 0
vn -0 1 0
vn -0 1 0
vn -0 1 0
vn -0 1 0
vn -0 1 0
vn -0 1 0
vn -0 1 0
vn -0 1 0
vn -0 1 0
vn -0 1 0
vn -0 1 0
vn -0 1 0
vn -0 1 0
vn -0 1 0
vn -0 1 0
vn -0 1 0
vn -0 1 0
vn -0 1 0
vn -0 1 0
vn -0 1 0
vn -0 1 0
vn -0 1 0
vn -0 1 0
vn -0 1 0
vn -0 1 0
vn -0 1 0
vn -0 1 0
vn -0 1 0
vn -0 1 0
vn -0 1 0
vn -0 1 0
vn -0 1 0
vn -0 1 0
vn -0 1 0
vn -0 1 0
vn -0 1 0
vn -0 1 0
vn -0 1 0
vn -0 1 0
vn -0 1 0
vn -0 1 0
vn -0 1 0
vn -0 1 0
vn -0 1 0
vn -0 1 0
vn -0 1 0
vn -0 1 0
vn -0 1 0
vn -0 1 0
vn -0 1 0
vn -0 1 0
vn -0 1 0
vn -0 1 0
vn -0 1 0
vn -0 1 0
vn -0 1 0
vn -0 1 0
vn -0 1 0
vn -0 1 0
vn -0 1 0
vn -0 1 0
vn -0 1 0
vn -0 1 0
vn -0 1 0
vn -0 1 0
vn -0 1 0
vn -0 1 0
vn -0 1 0
vn -0 1 0
vn -0 1 0
vn -0 1 0
vn -0 1 0
vn -0 1 0
vn -0 1 0
vn -0 1 0
vn -0 1 0
vn -0 1 0
vn -0 1 0
vn -0 1 0
vn -0 1 0
vn -0 1 0
vn -0 1 0
vn -0 1 0
vn -0 1 0
vn -0 1 0
vn -0 1 0
vn -0 1 0
vn -0 1 0
vn -0 1 0
vn -0 1 0
vn -0 1 0
vn -0 1 0
vn -0 1 0
vn -0 1 0
vn -0 1 0
vn -0 1 0
vn -0 1 0
vn -0 1 0
vn -0 1 0
vn -0 1 0
vn -0 1 0
vn -0 1 0
vn -0 1 0
vn -0 1 0
vn -0 1 0
vn -0 1 0
vn -0 1 0
vn -0 1 0
vn -0 1 0
vn -0 1 0
vn -0 1 0
vn -0 1 0
vn -0 1 0
vn -0 1 0
vn -0 1 0
vn -0 1 0
vn -0 1 0
vn -0 1 0
vn -0 1 0
vn -0 1 0
vn -0 1 0
vn -0 1 0
vn -0 1 0
vn -0 1 0
vn -0 1 0
vn -0 1 0
vn -0 1 0
vn -0 1 0
vn -0 1 0
vn -0 1 0
vn -0 1 0
vn -0 1 0
vn -0 1 0
vn -0 1 0
vn -0 1 0
vn -0 1 0
vn -0 1 0
vn -0 1 0
vn -0 1 0
vn -0 1 0
vn -0 1 0
vn -0 1 0
vn -0 1 0
vn -0 1 0
vn -0 1 0
vn -0 1 0
vn -0 1 0
vn -0 1 0
vn -0 1 0
vn -0 1 0
vn -0 1 0
vn -0 1 0
vn -0 1 0
vn -0 1 0
vn -0 1 0
vn -0 1 0
vn -0 1 0
vn -0 1 0
vn -0 1 0
vn -0 1 0
vn -0 1 0
vn -0 1 0
vn -0 1 0
vn -0 1 0
vn -0 1 0
vn -0 1 0
vn -0 1 0
vn -0 1 0
vn -0 1 0
vn -0 1 0
vn -0 1 0
vn -0 1 0
vn -0 1 0
vn -0 1 0
vn -0 1 0
vn -0 1 0
vn -0 1 0
vn -0 1 0
vn -0 1 0
vn -0 1 0
vn -0 1 0
vn -0 1 0
vn -0 1 0
vn -0 1 0
vn -0 1 0
vn -0 1 0
vn -0 1 0
vn -0 1 0
vn -0 1 0
vn -0 1 0
vn -0 1 0
vn -0 1 0
vn -0 1 0
vn -0 1 0
vn -0 1 0
vn -0 1 0
vn -0 1 0
vn -0 1 0
vn -0 1 0
vn -0 1 0
vn -0 1 0
vn -0 1 0
vn -0 1 0
vn -0 1 0
vn -0 1 0
vn -0 1 0
vn -0 1 0
vn -0 1 0
vn -0 1 0
vn -0 1 0
vn -0 1 0
vn -0 1 0
vn -0 1 0
vn -0 1 0
vn -0 1 0
vn -0 1 0
vn -0 1 0
vn -0 1 0
vn -0 1 0
vn -0 1 0
vn -0 1 0
vn -0 1 0
vn -0 1 0
vn -0 1 0
vn -0 1 0
vn -0 1 0
vn -0 1 0
vn -0 1 0
vn -0 1 0
vn -0 1 0
vn -0 1 0
vn -0 1 0
vn -0 1 0
vn -0 1 0
vn -0 1 0
vn -0 1 0
vn -0 1 0
vn -0 1 0
vn -0 1 0
vn -0 1 0
vn -0 1 0
vn -0 1 0
vn -0 1 0
vn -0 1 0
vn -0 1 0
vn -0 1 0
vn -0 1 0
vn -0 1 0
vn -0 1 0
vn -0 1 0
vn -0 1 0
vn -0 1 0
vn -0 1 0
vn -0 1 0
vn -0 1 0
vn -0 1 0
vn -0 1 0
vn -0 1 0
vn -0 1 0
vn -0 1 0
vn -0 1 0
vn -0 1 0
vn -0 1 0
vn -0 1 0
vn -0 1 0
vn -0 1 0
vn -0 1 0
vn -0 1 0
g _0
f 1/1/1 2/2/2 3/3/3
f 4/4/4 3/3/3 2/2/2
f 3/3/3 4/4/4 5/5/5
f 6/6/6 5/5/5 4/4/4
f 5/5/5 6/6/6 7/7/7
f 8/8/8 7/7/7 6/6/6
f 7/7/7 8/8/8 9/9/9
f 10/10/10 9/9/9 8/8/8
f 9/9/9 10/10/10 11/11/11
f 12/12/12 11/11/11 10/10/10
f 11/11/11 12/12/12 13/13/13
f 14/14/14 13/13/13 12/12/12
f 13/13/13 14/14/14 15/15/15
f 16/16/16 15/15/15 14/14/14
f 15/15/15 16/16/16 17/17/17
f 18/18/18 17/17/17 16/16/16
f 17/17/17 18/18/18 19/19/19
f 20/20/20 19/19/19 18/18/18
f 19/19/19 20/20/20 21/21/21
f 22/22/22 21/21/21 20/20/20
f 21/21/21 22/22/22 23/23/23
f 24/24/24 23/23/23 22/22/22
f 23/23/23 24/24/24 25/25/25
f 26/26/26 25/25/25 24/24/24
f 25/25/25 26/26/26 27/27/27
f 28/28/28 27/27/27 26/26/26
f 27/27/27 28/28/28 29/29/29
f 30/30/30 29/29/29 28/28/28
f 29/29/29 30/30/30 31/31/31
f 32/32/32 31/31/31 30/30/30
f 31/31/31 32/32/32 33/33/33
f 34/34/34 33/33/33 32/32/32
f 33/33/33 34/34/34 35/35/35
f 36/36/36 35/35/35 34/34/34
f 35/35/35 36/36/36 37/37/37
f 38/38/38 37/37/37 36/36/36
f 37/37/37 38/38/38 39/39/39
f 40/40/40 39/39/39 38/38/38
f 39/39/39 40/40/40 41/41/41
f 42/42/42 41/41/41 40/40/40
f 41/41/41 42/42/42 43/43/43
f 44/44/44 43/43/43 42/42/42
f 43/43/43 44/44/44 45/45/45
f 46/46/46 45/45/45 44/44/44
f 45/45/45 46/46/46 47/47/47
f 48/48/48 47/47/47 46/46/46
f 47/47/47 48/48/48 49/49/49
f 50/50/50 49/49/49 48/48/48
f 49/49/49 50/50/50 51/51/51
f 52/52/52 51/51/51 50/50/50
f 51/51/51 52/52/52 53/53/53
f 54/54/54 53/53/53 52/52/52
f 53/53/53 54/54/54 55/55/55
f 56/56/56 55/55/55 54/54/54
f 55/55/55 56/56/56 57/57/57
f 58/58/58 57/57/57 56/56/56
f 57/57/57 58/58/58 59/59/59
f 60/60/60 59/59/59 58/58/58
f 59/59/59 60/60/60 61/61/61
f 62/62/62 61/61/61 60/60/60
f 61/61/61 62/62/62 63/63/63
f 64/64/64 63/63/63 62/62/62
f 63/63/63 64/64/64 65/65/65
f 66/66/66 65/65/65 64/64/64
f 65/65/65 66/66/66 67/67/67
f 68/68/68 67/67/67 66/66/66
f 67/67/67 68/68/68 69/69/69
f 70/70/70 69/69/69 68/68/68
f 69/69/69 70/70/70 71/71/71
f 72/72/72 71/71/71 70/70/70
f 71/71/71 72/72/72 73/73/73
f 74/74/74 73/73/73 72/72/72
f 73/73/73 74/74/74 75/75/75
f 76/76/76 75/75/75 74/74/74
f 75/75/75 76/76/76 77/77/77
f 78/78/78 77/77/77 76/76/76
f 77/77/77 78/78/78 79/79/79
f 80/80/80 79/79/79 78/78/78
f 79/79/79 80/80/80 81/81/81
f 82/82/82 81/81/81 80/80/80
f 81/81/81 82/82/82 83/83/83
f 84/84/84 83/83/83 82/82/82
f 83/83/83 84/84/84 85/85/85
f 86/86/86 85/85/85 84/84/84
f 85/85/85 86/86/86 87/87/87
f 88/88/88 87/87/87 86/86/86
f 87/87/87 88/88/88 89/89/89
f 90/90/90 89/89/89 88/88/88
f 89/89/89 90/90/90 91/91/91
f 92/92/92 91/91/91 90/90/90
f 91/91/91 92/92/92 93/93/93
f 94/94/94 93/93/93 92/92/92
f 93/93/93 94/94/94 95/95/95
f 96/96/96 95/95/95 94/94/94
f 95/95/95 96/96/96 97/97/97
f 98/98/98 97/97/97 96/96/96
f 97/97/97 98/98/98 99/99/99
f 100/100/100 99/99/99 98/98/98
f 99/99/99 100/100/100 101/101/101
f 102/102/102 101/101/101 100/100/100
f 101/101/101 102/102/102 103/103/103
f 104/104/104 103/103/103 102/102/102
f 103/103/103 104/104/104 105/105/105
f 106/106/106 105/105/105 104/104/104
f 105/105/105 106/106/106 107/107/107
f 108/108/108 107/107/107 106/106/106
f 107/107/107 108/108/108 109/109/109
f 110/110/110 109/109/109 108/108/108
f 109/109/109 110/110/110 111/111/111
f 112/112/112 111/111/111 110/110/110
f 111/111/111 112/112/112 113/113/113
f 114/114/114 113/113/113 112/112/112
f 113/113/113 114/114/114 115/115/115
f 116/116/116 115/115/115 114/114/114
f 115/115/115 116/116/116 117/117/117
f 118/118/118 117/117/117 116/116/116
f 117/117/117 118/118/118 119/119/119
f 120/120/120 119/119/119 118/118/118
f 119/119/119 120/120/120 121/121/121
f 122/122/122 121/121/121 120/120/120
f 121/121/121 122/122/122 123/123/123
f 124/124/124 123/123/123 122/122/122
f 123/123/123 124/124/124 125/125/125
f 126/126/126 125/125/125 124/124/124
f 125/125/125 126/126/126 127/127/127
f 128/128/128 127/127/127 126/126/126
f 127/127/127 128/128/128 129/129/129
f 130/130/130 129/129/129 128/128/128
f 129/129/129 130/130/130 131/131/131
f 132/132/132 131/131/131 130/130/130
f 131/131/131 132/132/132 133/133/133
f 134/134/134 133/133/133 132/132/132
f 133/133/133 134/134/134 135/135/135
f 136/136/136 135/135/135 134/134/134
f 135/135/135 136/136/136 137/137/137
f 138/138/138 137/137/137 136/136/136
f 137/137/137 138/138/138 139/139/139
f 140/140/140 139/139/139 138/138/138
f 139/139/139 140/140/140 141/141/141
f 142/142/142 141/141/141 140/140/140
f 141/141/141 142/142/142 143/143/143
f 144/144/144 143/143/143 142/142/142
f 143/143/143 144/144/144 145/145/145
f 146/146/146 145/145/145 144/144/144
f 145/145/145 146/146/146 147/147/147
f 148/148/148 147/147/147 146/146/146
f 147/147/147 148/148/148 149/149/149
f 150/150/150 149/149/149 148/148/148
f 149/149/149 150/150/150 151/151/151
f 152/152/152 151/151/151 150/150/150
f 151/151/151 152/152/152 153/153/153
f 154/154/154 153/153/153 152/152/152
f 153/153/153 154/154/154 155/155/155
f 156/156/156 155/155/155 154/154/154
f 155/155/155 156/156/156 157/157/157
f 158/158/158 157/157/157 156/156/156
f 157/157/157 158/158/158 159/159/159
f 160/160/160 159/159/159 158/158/158
f 159/159/159 160/160/160 161/161/161
f 162/162/162 161/161/161 160/160/160
f 161/161/161 162/162/162 163/163/163
f 164/164/164 163/163/163 162/162/162
f 163/163/163 164/164/164 165/165/165
f 166/166/166 165/165/165 164/164/164
f 165/165/165 166/166/166 167/167/167
f 168/168/168 167/167/167 166/166/166
f 167/167/167 168/168/168 169/169/169
f 170/170/170 169/169/169 168/168/168
f 169/169/169 170/170/170 171/171/171
f 172/172/172 171/171/171 170/170/170
f 171/171/171 172/172/172 173/173/173
f 174/174/174 173/173/173 172/172/172
f 173/173/173 174/174/174 175/175/175
f 176/176/176 175/175/175 174/174/174
f 175/175/175 176/176/176 177/177/177
f 178/178/178 177/177/177 176/176/176
f 177/177/177 178/178/178 179/179/179
f 180/180/180 179/179/179 178/178/178
f 179/179/179 180/180/180 181/181/181
f 182/182/182 181/181/181 180/180/180
f 181/181/181 182/182/182 183/183/183
f 184/184/184 183/183/183 182/182/182
f 183/183/183 184/184/184 185/185/185
f 186/186/186 185/185/185 184/184/184
f 185/185/185 186/186/186 187/187/187
f 188/188/188 187/187/187 186/186/186
f 187/187/187 188/188/188 189/189/189
f 190/190/190 189/189/189 188/188/188
f 189/189/189 190/190/190 191/191/191
f 192/192/192 191/191/191 190/190/190
f 191/191/191 192/192/192 193/193/193
f 194/194/194 193/193/193 192/192/192
f 193/193/193 194/194/194 195/195/195
f 196/196/196 195/195/195 194/194/194
f 195/195/195 196/196/196 197/197/197
f 198/198/198 197/197/197 196/196/196
f 197/197/197 198/198/198 199/199/199
f 200/200/200 199/199/199 198/198/198
f 199/199/199 200/200/200 201/201/201
f 202/202/202 201/201/201 200/200/200
f 201/201/201 202/202/202 203/203/203
f 204/204/204 203/203/203 202/202/202
f 203/203/203 204/204/204 205/205/205
f 206/206/206 205/205/205 204/204/204
f 205/205/205 206/206/206 207/207/207
f 208/208/208 207/207/207 206/206/206
f 207/207/207 208/208/208 209/209/209
f 210/210/210 209/209/209 208/208/208
f 209/209/209 210/210/210 211/211/211
f 212/212/212 211/211/211 210/210/210
f 211/211/211 212/212/212 213/213/213
f 214/214/214 213/213/213 212/212/212
f 213/213/213 214/214/214 215/215/215
f 216/216/216 215/215/215 214/214/214
f 215/215/215 216/216/216 217/217/217
f 218/218/218 217/217/217 216/216/216
f 217/217/217 218/218/218 219/219/219
f 220/220/220 219/219/219 218/218/218
f 219/219/219 220/220/220 221/221/221
f 222/222/222 221/221/221 220/220/220
f 221/221/221 222/222/222 223/223/223
f 224/224/224 223/223/223 222/222/222
f 223/223/223 224/224/224 225/225/225
f 226/226/226 225/225/225 224/224/224
f 225/225/225 226/226/226 227/227/227
f 228/228/228 227/227/227 226/226/226
f 227/227/227 228/228/228 229/229/229
f 230/230/230 229/229/229 228/228/228
f 229/229/229 230/230/230 231/231/231
f 232/232/232 231/231/231 230/230/230
f 231/231/231 232/232/232 233/233/233
f 234/234/234 233/233/233 232/232/232
f 233/233/233 234/234/234 235/235/235
f 236/236/236 235/235/235 234/234/234
f 235/235/235 236/236/236 237/237/237
f 238/238/238 237/237/237 236/236/236
f 237/237/237 238/238/238 239/239/239
f 240/240/240 239/239/239 238/238/238
f 239/239/239 240/240/240 241/241/241
f 242/242/242 241/241/241 240/240/240
f 241/241/241 242/242/242 243/243/243
f 244/244/244 243/243/243 242/242/242
f 243/243/243 244/244/244 245/245/245
f 246/246/246 245/245/245 244/244/244
f 245/245/245 246/246/246 247/247/247
f 248/248/248 247/247/247 246/246/246
f 247/247/247 248/248/248 249/249/249
f 250/250/250 249/249/249 248/248/248
f 249/249/249 250/250/250 251/251/251
f 252/252/252 251/251/251 250/250/250
f 251/251/251 252/252/252 253/253/253
f 254/254/254 253/253/253 252/252/252
f 253/253/253 254/254/254 255/255/255
f 256/256/256 255/255/255 254/254/254
f 255/255/255 256/256/256 257/257/257
f 258/258/258 257/257/257 256/256/256
f 257/257/257 258/258/258 259/259/259
f 260/260/260 259/259/259 258/258/258
f 259/259/259 260/260/260 261/261/261
f 262/262/262 261/261/261 260/260/260
f 261/261/261 262/262/262 263/263/263
f 264/264/264 263/263/263 262/262/262
f 263/263/263 264/264/264 265/265/265
f 266/266/266 265/265/265 264/264/264
f 265/265/265 266/266/266 267/267/267
f 268/268/268 267/267/267 266/266/266
f 267/267/267 268/268/268 269/269/269
f 270/270/270 269/269/269 268/268/268
f 269/269/269 270/270/270 271/271/271
f 272/272/272 271/271/271 270/270/270
f 271/271/271 272/272/272 273/273/273
f 274/274/274 273/273/273 272/272/272
f 273/273/273 274/274/274 275/275/275
f 276/276/276 275/275/275 274/274/274
f 275/275/275 276/276/276 277/277/277
f 278/278/278 277/277/277 276/276/276
f 277/277/277 278/278/278 279/279/279
f 280/280/280 279/279/279 278/278/278
f 279/279/279 280/280/280 281/281/281
f 282/282/282 281/281/281 280/280/280
f 281/281/281 282/282/282 283/283/283
f 284/284/284 283/283/283 282/282/282
f 283/283/283 284/284/284 285/285/285
f 286/286/286 285/285/285 284/284/284
f 285/285/285 286/286/286 287/287/287
f 288/288/288 287/287/287 286/286/286
f 287/287/287 288/288/288 289/289/289
f 290/290/290 289/289/289 288/288/288
f 289/289/289 290/290/290 291/291/291
f 292/292/292 291/291/291 290/290/290
f 291/291/291 292/292/292 293/293/293
f 294/294/294 293/293/293 292/292/292
f 293/293/293 294/294/294 295/295/295
f 296/296/296 295/295/295 294/294/294
f 295/295/295 296/296/296 297/297/297
f 298/298/298 297/297/297 296/296/296
f 297/297/297 298/298/298 299/299/299
f 300/300/300 299/299/299 298/298/298
f 299/299/299 300/300/300 301/301/301
f 302/302/302 301/301/301 300/300/300
f 301/301/301 302/302/302 303/303/303
f 304/304/304 303/303/303 302/302/302
f 303/303/303 304/304/304 305/305/305
f 306/306/306 305/305/305 304/304/304
f 305/305/305 306/306/306 307/307/307
f 308/308/308 307/307/307 306/306/306
f 307/307/307 308/308/308 309/309/309
f 310/310/310 309/309/309 308/308/308
f 309/309/309 310/310/310 311/311/311
f 312/312/312 311/311/311 310/310/310
f 311/311/311 312/312/312 313/313/313
f 314/314/314 313/313/313 312/312/312
f 313/313/313 314/314/314 315/315/315
f 316/316/316 315/315/315 314/314/314
f 315/315/315 316/316/316 317/317/317
f 318/318/318 317/317/317 316/316/316
f 317/317/317 318/318/318 319/319/319
f 320/320/320 319/319/319 318/318/318
f 319/319/319 320/320/320 321/321/321
f 322/322/322 321/321/321 320/320/320
f 321/321/321 322/322/322 323/323/323
f 324/324/324 323/323/323 322/322/322
f 323/323/323 324/324/324 325/325/325
f 326/326/326 325/325/325 324/324/324
f 325/325/325 326/326/326 327/327/327
f 328/328/328 327/327/327 326/326/326
f 327/327/327 328/328/328 329/329/329
f 330/330/330 329/329/329 328/328/328
f 329/329/329 330/330/330 331/331/331
f 332/332/332 331/331/331 330/330/330
f 331/331/331 332/332/332 333/333/333
f 334/334/334 333/333/333 332/332/332
f 333/333/333 334/334/334 335/335/335
f 336/336/336 335/335/335 334/334/334
f 335/335/335 336/336/336 337/337/337
f 338/338/338 337/337/337 336/336/336
f 337/337/337 338/338/338 339/339/339
f 340/340/340 339/339/339 338/338/338
f 339/339/339 340/340/340 341/341/341
f 342/342/342 341/341/341 340/340/340
f 341/341/341 342/342/342 343/343/343
f 344/344/344 343/343/343 342/342/342
f 343/343/343 344/344/344 345/345/345
f 346/346/346 345/345/345 344/344/344
f 345/345/345 346/346/346 347/347/347
f 348/348/348 347/347/347 346/346/346
f 347/347/347 348/348/348 349/349/349
f 350/350/350 349/349/349 348/348/348
f 349/349/349 350/350/350 351/351/351
f 352/352/352 351/351/351 350/350/350
f 351/351/351 352/352/352 353/353/353
f 354/354/354 353/353/353 352/352/352
f 353/353/353 354/354/354 355/355/355
f 356/356/356 355/355/355 354/354/354
f 355/355/355 356/356/356 357/357/357
f 358/358/358 357/357/357 356/356/356
f 357/357/357 358/358/358 359/359/359
f 360/360/360 359/359/359 358/358/358
f 359/359/359 360/360/360 361/361/361
f 362/362/362 361/361/361 360/360/360
f 361/361/361 362/362/362 363/363/363
f 364/364/364 363/363/363 362/362/362
f 363/363/363 364/364/364 365/365/365
f 366/366/366 365/365/365 364/364/364
f 365/365/365 366/366/366 367/367/367
f 368/368/368 367/367/367 366/366/366
f 367/367/367 368/368/368 369/369/369
f 370/370/370 369/369/369 368/368/368
f 369/369/369 370/370/370 371/371/371
f 372/372/372 371/371/371 370/370/370
f 371/371/371 372/372/372 373/373/373
f 374/374/374 373/373/373 372/372/372
f 373/373/373 374/374/374 375/375/375
f 376/376/376 375/375/375 374/374/374
f 375/375/375 376/376/376 377/377/377
f 378/378/378 377/377/377 376/376/376
f 377/377/377 378/378/378 379/379/379
f 380/380/380 379/379/379 378/378/378
f 379/379/379 380/380/380 381/381/381
f 382/382/382 381/381/381 380/380/380
f 381/381/381 382/382/382 383/383/383
f 384/384/384 383/383/383 382/382/382
f 383/383/383 384/384/384 385/385/385
f 386/386/386 385/385/385 384/384/384
f 385/385/385 386/386/386 387/387/387
f 388/388/388 387/387/387 386/386/386
f 387/387/387 388/388/388 389/389/389
f 390/390/390 389/389/389 388/388/388
f 389/389/389 390/390/390 391/391/391
f 392/392/392 391/391/391 390/390/390
f 391/391/391 392/392/392 393/393/393
f 394/394/394 393/393/393 392/392/392
f 393/393/393 394/394/394 395/395/395
f 396/396/396 395/395/395 394/394/394
f 395/395/395 396/396/396 397/397/397
f 398/398/398 397/397/397 396/396/396
f 397/397/397 398/398/398 399/399/399
f 400/400/400 399/399/399 398/398/398
f 399/399/399 400/400/400 401/401/401
f 402/402/402 401/401/401 400/400/400
f 401/401/401 402/402/402 403/403/403
f 404/404/404 403/403/403 402/402/402
f 403/403/403 404/404/404 405/405/405
f 406/406/406 405/405/405 404/404/404
f 405/405/405 406/406/406 407/407/407
f 408/408/408 407/407/407 406/406/406
f 407/407/407 408/408/408 409/409/409
f 410/410/410 409/409/409 408/408/408
f 409/409/409 410/410/410 411/411/411
f 412/412/412 411/411/411 410/410/410
f 411/411/411 412/412/412 413/413/413
f 414/414/414 413/413/413 412/412/412
f 413/413/413 414/414/414 415/415/415
f 416/416/416 415/415/415 414/414/414
f 415/415/415 416/416/416 417/417/417
f 418/418/418 417/417/417 416/416/416
f 417/417/417 418/418/418 419/419/419
f 420/420/420 419/419/419 418/418/418
f 419/419/419 420/420/420 421/421/421
f 422/422/422 421/421/421 420/420/420
f 421/421/421 422/422/422 423/423/423
f 424/424/424 423/423/423 422/422/422
f 423/423/423 424/424/424 425/425/425
f 426/426/426 425/425/425 424/424/424
f 425/425/425 426/426/426 427/427/427
f 428/428/428 427/427/427 426/426/426
f 427/427/427 428/428/428 429/429/429
f 430/430/430 429/429/429 428/428/428
f 429/429/429 430/430/430 431/431/431
f 432/432/432 431/431/431 430/430/430
f 431/431/431 432/432/432 433/433/433
f 434/434/434 433/433/433 432/432/432
f 433/433/433 434/434/434 435/435/435
f 436/436/436 435/435/435 434/434/434
f 435/435/435 436/436/436 437/437/437
f 438/438/438 437/437/437 436/436/436
f 437/437/437 438/438/438 439/439/439
f 440/440/440 439/439/439 438/438/438
f 439/439/439 440/440/440 441/441/441
f 442/442/442 441/441/441 440/440/440
f 441/441/441 442/442/442 443/443/443
f 444/444/444 443/443/443 442/442/442
f 443/443/443 444/444/444 445/445/445
f 446/446/446 445/445/445 444/444/444
f 445/445/445 446/446/446 447/447/447
f 448/448/448 447/447/447 446/446/446
f 447/447/447 448/448/448 449/449/449
f 450/450/450 449/449/449 448/448/448
f 449/449/449 450/450/450 451/451/451
f 452/452/452 451/451/451 450/450/450
f 451/451/451 452/452/452 453/453/453
f 454/454/454 453/453/453 452/452/452
f 453/453/453 454/454/454 455/455/455
f 456/456/456 455/455/455 454/454/454
f 455/455/455 456/456/456 457/457/457
f 458/458/458 457/457/457 456/456/456
f 457/457/457 458/458/458 459/459/459
f 460/460/460 459/459/459 458/458/458
f 459/459/459 460/460/460 461/461/461
f 462/462/462 461/461/461 460/460/460
f 461/461/461 462/462/462 463/463/463
f 464/464/464 463/463/463 462/462/462
f 463/463/463 464/464/464 465/465/465
f 466/466/466 465/465/465 464/464/464
f 465/465/465 466/466/466 467/467/467
f 468/468/468 467/467/467 466/466/466
f 467/467/467 468/468/468 469/469/469
f 470/470/470 469/469/469 468/468/468
f 469/469/469 470/470/470 471/471/471
f 472/472/472 471/471/471 470/470/470
f 471/471/471 472/472/472 473/473/473
f 474/474/474 473/473/473 472/472/472
f 473/473/473 474/474/474 475/475/475
f 476/476/476 475/475/475 474/474/474
f 475/475/475 476/476/476 477/477/477
f 478/478/478 477/477/477 476/476/476
f 477/477/477 478/478/478 479/479/479
f 480/480/480 479/479/479 478/478/478
f 479/479/479 480/480/480 481/481/481
f 482/482/482 481/481/481 480/480/480
f 481/481/481 482/482/482 483/483/483
f 484/484/484 483/483/483 482/482/482
f 483/483/483 484/484/484 485/485/485
f 486/486/486 485/485/485 484/484/484
f 485/485/485 486/486/486 487/487/487
f 488/488/488 487/487/487 486/486/486
f 487/487/487 488/488/488 489/489/489
f 490/490/490 489/489/489 488/488/488
f 489/489/489 490/490/490 491/491/491
f 492/492/492 491/491/491 490/490/490
f 491/491/491 492/492/492 493/493/493
f 494/494/494 493/493/493 492/492/492
f 493/493/493 494/494/494 495/495/495
f 496/496/496 495/495/495 494/494/494
f 495/495/495 496/496/496 497/497/497
f 498/498/498 497/497/497 496/496/496
f 497/497/497 498/498/498 499/499/499
f 500/500/500 499/499/499 498/498/498
f 499/499/499 500/500/500 501/501/501
f 502/502/502 501/501/501 500/500/500
f 501/501/501 502/502/502 503/503/503
f 504/504/504 503/503/503 502/502/502
f 503/503/503 504/504/504 505/505/505
f 506/506/506 505/505/505 504/504/504
f 505/505/505 506/506/506 507/507/507
f 508/508/508 507/507/507 506/506/506
f 507/507/507 508/508/508 509/509/509
f 510/510/510 509/509/509 508/508/508
f 509/509/509 510/510/510 511/511/511
f 512/512/512 511/511/511 510/510/510
f 511/511/511 512/512/512 513/513/513
f 514/514/514 513/513/513 512/512/512
f 513/513/513 514/514/514 515/515/515
f 516/516/516 515/515/515 514/514/514
f 515/515/515 516/516/516 517/517/517
f 518/518/518 517/517/517 516/516/516
f 517/517/517 518/518/518 519/519/519
f 520/520/520 519/519/519 518/518/518
f 519/519/519 520/520/520 521/521/521
f 522/522/522 521/521/521 520/520/520
f 521/521/521 522/522/522 523/523/523
f 524/524/524 523/523/523 522/522/522
f 523/523/523 524/524/524 525/525/525
f 526/526/526 525/525/525 524/524/524
f 525/525/525 526/526/526 527/527/527
f 528/528/528 527/527/527 526/526/526
f 527/527/527 528/528/528 529/529/529
f 530/530/530 529/529/529 528/528/528
f 529/529/529 530/530/530 531/531/531
f 532/532/532 531/531/531 530/530/530
f 531/531/531 532/532/532 533/533/533
f 534/534/534 533/533/533 532/532/532
f 533/533/533 534/534/534 535/535/535
f 536/536/536 535/535/535 534/534/534
f 535/535/535 536/536/536 537/537/537
f 538/538/538 537/537/537 536/536/536
f 537/537/537 538/538/538 539/539/539
f 540/540/540 539/539/539 538/538/538
f 539/539/539 540/540/540 541/541/541
f 542/542/542 541/541/541 540/540/540
f 541/541/541 542/542/542 543/543/543
f 544/544/544 543/543/543 542/542/542
f 543/543/543 544/544/544 545/545/545
f 546/546/546 545/545/545 544/544/544
f 545/545/545 546/546/546 547/547/547
f 548/548/548 547/547/547 546/546/546
f 547/547/547 548/548/548 549/549/549
f 550/550/550 549/549/549 548/548/548
f 549/549/549 550/550/550 551/551/551
f 552/552/552 551/551/551 550/550/550
f 551/551/551 552/552/552 553/553/553
f 554/554/554 553/553/553 552/552/552
f 553/553/553 554/554/554 555/555/555
f 556/556/556 555/555/555 554/554/554
f 555/555/555 556/556/556 557/557/557
f 558/558/558 557/557/557 556/556/556
f 557/557/557 558/558/558 559/559/559
f 560/560/560 559/559/559 558/558/558
f 559/559/559 560/560/560 561/561/561
f 562/562/562 561/561/561 560/560/560
f 561/561/561 562/562/562 563/563/563
f 564/564/564 563/563/563 562/562/562
f 563/563/563 564/564/564 565/565/565
f 566/566/566 565/565/565 564/564/564
f 565/565/565 566/566/566 567/567/567
f 568/568/568 567/567/567 566/566/566
f 567/567/567 568/568/568 569/569/569
f 570/570/570 569/569/569 568/568/568
f 569/569/569 570/570/570 571/571/571
f 572/572/572 571/571/571 570/570/570
f 571/571/571 572/572/572 573/573/573
f 574/574/574 573/573/573 572/572/572
f 573/573/573 574/574/574 575/575/575
f 576/576/576 575/575/575 574/574/574
f 575/575/575 576/576/576 577/577/577
f 578/578/578 577/577/577 576/576/576
f 577/577/577 578/578/578 579/579/579
f 580/580/580 579/579/579 578/578/578
f 579/579/579 580/580/580 581/581/581
f 582/582/582 581/581/581 580/580/580
f 581/581/581 582/582/582 583/583/583
f 584/584/584 583/583/583 582/582/582
f 583/583/583 584/584/584 585/585/585
f 586/586/586 585/585/585 584/584/584
f 585/585/585 586/586/586 587/587/587
f 588/588/588 587/587/587 586/586/586
f 587/587/587 588/588/588 589/589/589
f 590/590/590 589/589/589 588/588/588
f 589/589/589 590/590/590 591/591/591
f 592/592/592 591/591/591 590/590/590
f 591/591/591 592/592/592 593/593/593
f 594/594/594 593/593/593 592/592/592
f 593/593/593 594/594/594 595/595/595
f 596/596/596 595/595/595 594/594/594
f 595/595/595 596/596/596 597/597/597
f 598/598/598 597/597/597 596/596/596
f 597/597/597 598/598/598 599/599/599
f 600/600/600 599/599/599 598/598/598
f 599/599/599 600/600/600 601/601/601
f 602/602/602 601/601/601 600/600/600
f 601/601/601 602/602/602 603/603/603
f 604/604/604 603/603/603 602/602/602
f 603/603/603 604/604/604 605/605/605
f 606/606/606 605/605/605 604/604/604
f 605/605/605 606/606/606 607/607/607
f 608/608/608 607/607/607 606/606/606
f 607/607/607 608/608/608 609/609/609
f 610/610/610 609/609/609 608/608/608
f 609/609/609 610/610/610 611/611/611
f 612/612/612 611/611/611 610/610/610
f 611/611/611 612/612/612 613/613/613
f 614/614/614 613/613/613 612/612/612
f 613/613/613 614/614/614 615/615/615
f 616/616/616 615/615/615 614/614/614
f 615/615/615 616/616/616 617/617/617
f 618/618/618 617/617/617 616/616/616
f 617/617/617 618/618/618 619/619/619
f 620/620/620 619/619/619 618/618/618
f 619/619/619 620/620/620 621/621/621
f 622/622/622 621/621/621 620/620/620
f 621/621/621 622/622/622 623/623/623
f 624/624/624 623/623/623 622/622/622
f 623/623/623 624/624/624 625/625/625
f 626/626/626 625/625/625 624/624/624
f 625/625/625 626/626/626 627/627/627
f 628/628/628 627/627/627 626/626/626
f 627/627/627 628/628/628 629/629/629
f 630/630/630 629/629/629 628/628/628
f 629/629/629 630/630/630 631/631/631
f 632/632/632 631/631/631 630/630/630
f 631/631/631 632/632/632 633/633/633
f 634/634/634 633/633/633 632/632/632
f 633/633/633 634/634/634 635/635/635
f 636/636/636 635/635/635 634/634/634
f 635/635/635 636/636/636 637/637/637
f 638/638/638 637/637/637 636/636/636
f 637/637/637 638/638/638 639/639/639
f 640/640/640 639/639/639 638/638/638
f 639/639/639 640/640/640 641/641/641
f 642/642/642 641/641/641 640/640/640
f 641/641/641 642/642/642 643/643/643
f 644/644/644 643/643/643 642/642/642
f 643/643/643 644/644/644 645/645/645
f 646/646/646 645/645/645 644/644/644
f 645/645/645 646/646/646 647/647/647
f 648/648/648 647/647/647 646/646/646
f 647/647/647 648/648/648 649/649/649
f 650/650/650 649/649/649 648/648/648
f 649/649/649 650/650/650 651/651/651
f 652/652/652 651/651/651 650/650/650
f 651/651/651 652/652/652 653/653/653
f 654/654/654 653/653/653 652/652/652
f 653/653/653 654/654/654 655/655/655
f 656/656/656 655/655/655 654/654/654
f 655/655/655 656/656/656 657/657/657
f 658/658/658 657/657/657 656/656/656
f 657/657/657 658/658/658 659/659/659
f 660/660/660 659/659/659 658/658/658
f 659/659/659 660/660/660 661/661/661
f 662/662/662 661/661/661 660/660/660
f 661/661/661 662/662/662 663/663/663
f 664/664/664 663/663/663 662/662/662
f 663/663/663 664/664/664 665/665/665
f 666/666/666 665/665/665 664/664/664
f 665/665/665 666/666/666 667/667/667
f 668/668/668 667/667/667 666/666/666
f 667/667/667 668/668/668 669/669/669
f 670/670/670 669/669/669 668/668/668
f 669/669/669 670/670/670 671/671/671
f 672/672/672 671/671/671 670/670/670
f 671/671/671 672/672/672 673/673/673
f 674/674/674 673/673/673 672/672/672
f 673/673/673 674/674/674 675/675/675
f 676/676/676 675/675/675 674/674/674
f 675/675/675 676/676/676 677/677/677
f 678/678/678 677/677/677 676/676/676
f 677/677/677 678/678/678 679/679/679
f 680/680/680 679/679/679 678/678/678
f 679/679/679 680/680/680 681/681/681
f 682/682/682 681/681/681 680/680/680
f 681/681/681 682/682/682 683/683/683
f 684/684/684 683/683/683 682/682/682
f 683/683/683 684/684/684 685/685/685
f 686/686/686 685/685/685 684/684/684
f 685/685/685 686/686/686 687/687/687
f 688/688/688 687/687/687 686/686/686
f 687/687/687 688/688/688 689/689/689
f 690/690/690 689/689/689 688/688/688
f 689/689/689 690/690/690 691/691/691
f 692/692/692 691/691/691 690/690/690
f 691/691/691 692/692/692 693/693/693
f 694/694/694 693/693/693 692/692/692
