g 
v 16.044651 18.6 -112.90838
v 28.04826 18.6 -115.200455
v 12.01135 18.6 -108.87348
v 33.2845 18.6 -112.93557
v 10.928587 18.6 -100.784935
v 37.271416 18.6 -105.81507
v 14.164068 18.6 -90.30436
v 36.80982 18.6 -101.768814
v 22.001266 18.6 -80.15155
v 40.849514 18.6 -97.50876
v 29.070843 18.6 -71.81202
v 47.4415 18.6 -92.52888
v 35.808857 18.6 -63.897713
v 55.622593 18.6 -88.41871
v 42.296047 18.6 -56.743374
v 64.03128 18.6 -83.50607
v 48.48874 18.6 -50.389194
v 72.71126 18.6 -77.7508
v 64.28598 18.6 -42.543533
v 65.812164 18.6 -76.66224
v 81.27266 18.6 -48.361732
v 65.4648 18.6 -78.63593
v 85.63417 18.6 -51.26916
v 65.82584 18.6 -79.09084
v 91.75954 18.6 -59.664474
v 75.76332 18.6 -82.13187
v 91.60117 18.6 -66.92798
v 82.57514 18.6 -79.60545
v 16.044651 18.6 -112.90838
v 16.044651 -11.4 -112.90838
v 12.01135 18.6 -108.87348
v 12.01135 -11.4 -108.87348
v 12.01135 18.6 -108.87348
v 12.01135 -11.4 -108.87348
v 10.928587 18.6 -100.784935
v 10.928587 -11.4 -100.784935
v 10.928587 18.6 -100.784935
v 10.928587 -11.4 -100.784935
v 14.164068 18.6 -90.30436
v 14.164068 -11.4 -90.30436
v 14.164068 18.6 -90.30436
v 14.164068 -11.4 -90.30436
v 22.001266 18.6 -80.15155
v 22.001266 -11.4 -80.15155
v 22.001266 18.6 -80.15155
v 22.001266 -11.4 -80.15155
v 29.070843 18.6 -71.81202
v 29.070843 -11.4 -71.81202
v 29.070843 18.6 -71.81202
v 29.070843 -11.4 -71.81202
v 35.808857 18.6 -63.897713
v 35.808857 -11.4 -63.897713
v 35.808857 18.6 -63.897713
v 35.808857 -11.4 -63.897713
v 42.296047 18.6 -56.743374
v 42.296047 -11.4 -56.743374
v 42.296047 18.6 -56.743374
v 42.296047 -11.4 -56.743374
v 48.48874 18.6 -50.389194
v 48.48874 -11.4 -50.389194
v 48.48874 18.6 -50.389194
v 48.48874 -11.4 -50.389194
v 64.28598 18.6 -42.543533
v 64.28598 -11.4 -42.543533
v 64.28598 18.6 -42.543533
v 64.28598 -11.4 -42.543533
v 81.27266 18.6 -48.361732
v 81.27266 -11.4 -48.361732
v 81.27266 18.6 -48.361732
v 81.27266 -11.4 -48.361732
v 85.63417 18.6 -51.26916
v 85.63417 -11.4 -51.26916
v 85.63417 18.6 -51.26916
v 85.63417 -11.4 -51.26916
v 91.75954 18.6 -59.664474
v 91.75954 -11.4 -59.664474
v 91.75954 18.6 -59.664474
v 91.75954 -11.4 -59.664474
v 91.60117 18.6 -66.92798
v 91.60117 -11.4 -66.92798
v 28.04826 18.6 -115.200455
v 28.04826 -11.4 -115.200455
v 33.2845 18.6 -112.93557
v 33.2845 -11.4 -112.93557
v 33.2845 18.6 -112.93557
v 33.2845 -11.4 -112.93557
v 37.271416 18.6 -105.81507
v 37.271416 -11.4 -105.81507
v 37.271416 18.6 -105.81507
v 37.271416 -11.4 -105.81507
v 36.80982 18.6 -101.768814
v 36.80982 -11.4 -101.768814
v 36.80982 18.6 -101.768814
v 36.80982 -11.4 -101.768814
v 40.849514 18.6 -97.50876
v 40.849514 -11.4 -97.50876
v 40.849514 18.6 -97.50876
v 40.849514 -11.4 -97.50876
v 47.4415 18.6 -92.52888
v 47.4415 -11.4 -92.52888
v 47.4415 18.6 -92.52888
v 47.4415 -11.4 -92.52888
v 55.622593 18.6 -88.41871
v 55.622593 -11.4 -88.41871
v 55.622593 18.6 -88.41871
v 55.622593 -11.4 -88.41871
v 64.03128 18.6 -83.50607
v 64.03128 -11.4 -83.50607
v 64.03128 18.6 -83.50607
v 64.03128 -11.4 -83.50607
v 72.71126 18.6 -77.7508
v 72.71126 -11.4 -77.7508
v 72.71126 18.6 -77.7508
v 72.71126 -11.4 -77.7508
v 65.812164 18.6 -76.66224
v 65.812164 -11.4 -76.66224
v 65.812164 18.6 -76.66224
v 65.812164 -11.4 -76.66224
v 65.4648 18.6 -78.63593
v 65.4648 -11.4 -78.63593
v 65.4648 18.6 -78.63593
v 65.4648 -11.4 -78.63593
v 65.82584 18.6 -79.09084
v 65.82584 -11.4 -79.09084
v 65.82584 18.6 -79.09084
v 65.82584 -11.4 -79.09084
v 75.76332 18.6 -82.13187
v 75.76332 -11.4 -82.13187
v 75.76332 18.6 -82.13187
v 75.76332 -11.4 -82.13187
v 82.57514 18.6 -79.60545
v 82.57514 -11.4 -79.60545
vt -0.14474471 0.061616577
vt -0.13429229 0.055285126
vt -0.15044199 0.0613184
vt -0.13191791 0.050097622
vt -0.15666036 0.056033622
vt -0.13372174 0.042138778
vt -0.16127148 0.046081316
vt -0.13677298 0.03944151
vt -0.1622443 0.033292457
vt -0.13662301 0.033572547
vt -0.16257375 0.022364594
vt -0.13505857 0.02546045
vt -0.16286494 0.011974584
vt -0.13173138 0.016930884
vt -0.1628338 0.0023170873
vt -0.1287722 0.0076527772
vt -0.1624859 -0.0065488033
vt -0.12617545 -0.002432962
vt -0.15600044 -0.02295143
vt -0.13202985 0.0013760489
vt -0.13948563 -0.029998416
vt -0.13096687 0.003074937
vt -0.13429916 -0.030757591
vt -0.13039415 0.0031712602
vt -0.12412898 -0.028620062
vt -0.1209755 -0.0012208234
vt -0.11938495 -0.023117539
vt -0.11760556 -0.007657219
vt -0.14474471 0.061616577
vt -0.14474471 0.061616577
vt -0.15044199 0.0613184
vt -0.15044199 0.0613184
vt -0.15044199 0.0613184
vt -0.15044199 0.0613184
vt -0.15666036 0.056033622
vt -0.15666036 0.056033622
vt -0.15666036 0.056033622
vt -0.15666036 0.056033622
vt -0.16127148 0.046081316
vt -0.16127148 0.046081316
vt -0.16127148 0.046081316
vt -0.16127148 0.046081316
vt -0.1622443 0.033292457
vt -0.1622443 0.033292457
vt -0.1622443 0.033292457
vt -0.1622443 0.033292457
vt -0.16257375 0.022364594
vt -0.16257375 0.022364594
vt -0.16257375 0.022364594
vt -0.16257375 0.022364594
vt -0.16286494 0.011974584
vt -0.16286494 0.011974584
vt -0.16286494 0.011974584
vt -0.16286494 0.011974584
vt -0.1628338 0.0023170873
vt -0.1628338 0.0023170873
vt -0.1628338 0.0023170873
vt -0.1628338 0.0023170873
vt -0.1624859 -0.0065488033
vt -0.1624859 -0.0065488033
vt -0.1624859 -0.0065488033
vt -0.1624859 -0.0065488033
vt -0.15600044 -0.02295143
vt -0.15600044 -0.02295143
vt -0.15600044 -0.02295143
vt -0.15600044 -0.02295143
vt -0.13948563 -0.029998416
vt -0.13948563 -0.029998416
vt -0.13948563 -0.029998416
vt -0.13948563 -0.029998416
vt -0.13429916 -0.030757591
vt -0.13429916 -0.030757591
vt -0.13429916 -0.030757591
vt -0.13429916 -0.030757591
vt -0.12412898 -0.028620062
vt -0.12412898 -0.028620062
vt -0.12412898 -0.028620062
vt -0.12412898 -0.028620062
vt -0.11938495 -0.023117539
vt -0.11938495 -0.023117539
vt -0.13429229 0.055285126
vt -0.13429229 0.055285126
vt -0.13191791 0.050097622
vt -0.13191791 0.050097622
vt -0.13191791 0.050097622
vt -0.13191791 0.050097622
vt -0.13372174 0.042138778
vt -0.13372174 0.042138778
vt -0.13372174 0.042138778
vt -0.13372174 0.042138778
vt -0.13677298 0.03944151
vt -0.13677298 0.03944151
vt -0.13677298 0.03944151
vt -0.13677298 0.03944151
vt -0.13662301 0.033572547
vt -0.13662301 0.033572547
vt -0.13662301 0.033572547
vt -0.13662301 0.033572547
vt -0.13505857 0.02546045
vt -0.13505857 0.02546045
vt -0.13505857 0.02546045
vt -0.13505857 0.02546045
vt -0.13173138 0.016930884
vt -0.13173138 0.016930884
vt -0.13173138 0.016930884
vt -0.13173138 0.016930884
vt -0.1287722 0.0076527772
vt -0.1287722 0.0076527772
vt -0.1287722 0.0076527772
vt -0.1287722 0.0076527772
vt -0.12617545 -0.002432962
vt -0.12617545 -0.002432962
vt -0.12617545 -0.002432962
vt -0.12617545 -0.002432962
vt -0.13202985 0.0013760489
vt -0.13202985 0.0013760489
vt -0.13202985 0.0013760489
vt -0.13202985 0.0013760489
vt -0.13096687 0.003074937
vt -0.13096687 0.003074937
vt -0.13096687 0.003074937
vt -0.13096687 0.003074937
vt -0.13039415 0.0031712602
vt -0.13039415 0.0031712602
vt -0.13039415 0.0031712602
vt -0.13039415 0.0031712602
vt -0.1209755 -0.0012208234
vt -0.1209755 -0.0012208234
vt -0.1209755 -0.0012208234
vt -0.1209755 -0.0012208234
vt -0.11760556 -0.007657219
vt -0.11760556 -0.007657219
vn -0 1 0
vn -0 1 0
vn -0 1 0
vn -0 1 0
vn -0 1 0
vn -0 1 0
vn -0 1 0
vn -0 1 0
vn -0 1 0
vn -0 1 0
vn -0 1 0
vn -0 1 0
vn -0 1 0
vn -0 1 0
vn -0 1 0
vn -0 1 0
vn -0 1 0
vn -0 1 0
vn -0 1 0
vn -0 1 0
vn -0 1 0
vn -0 1 0
vn -0 1 0
vn -0 1 0
vn -0 1 0
vn -0 1 0
vn -0 1 0
vn -0 1 0
vn -0.18756017 0 -0.98225313
vn -0.18756017 0 -0.98225313
vn -0.7072466 0 -0.70696694
vn -0.7072466 0 -0.70696694
vn -0.9911589 0 -0.13268018
vn -0.9911589 0 -0.13268018
vn -0.9911589 0 -0.13268018
vn -0.9911589 0 -0.13268018
vn -0.9555047 -0 0.29497594
vn -0.9555047 0 0.29497594
vn -0.9555047 0 0.29497594
vn -0.9555047 0 0.29497594
vn -0.79159254 -0 0.61104935
vn -0.79159254 0 0.61104935
vn -0.79159254 0 0.61104935
vn -0.79159254 0 0.61104935
vn -0.7627974 -0 0.64663756
vn -0.7627974 0 0.64663756
vn -0.7627974 0 0.64663756
vn -0.7627974 0 0.64663756
vn -0.7614238 -0 0.64825445
vn -0.7614238 0 0.64825445
vn -0.7614238 0 0.64825445
vn -0.7614238 0 0.64825445
vn -0.74080294 -0 0.6717224
vn -0.74080294 0 0.6717224
vn -0.74080294 0 0.6717224
vn -0.74080294 0 0.6717224
vn -0.7161485 -0 0.69794804
vn -0.7161485 0 0.69794804
vn -0.7161485 0 0.69794804
vn -0.7161485 0 0.69794804
vn -0.44480994 -0 0.89562494
vn -0.44480994 0 0.89562494
vn -0.44480994 0 0.89562494
vn -0.44480994 0 0.89562494
vn 0.32403502 0 0.9460451
vn 0.32403502 0 0.9460451
vn 0.32403502 0 0.9460451
vn 0.32403502 0 0.9460451
vn 0.5546678 0 0.8320719
vn 0.5546678 0 0.8320719
vn 0.5546678 0 0.8320719
vn 0.5546678 0 0.8320719
vn 0.80783415 0 0.58940977
vn 0.80783415 0 0.58940977
vn 0.80783415 0 0.58940977
vn 0.80783415 0 0.58940977
vn 0.9997624 0 -0.02179743
vn 0.9997624 -0 -0.02179743
vn 0.81462324 0 -0.5799905
vn 0.81462324 -0 -0.5799905
vn -0.18756017 0 -0.98225313
vn -0.18756017 0 -0.98225313
vn 0.39699453 -0 -0.91782093
vn 0.39699453 -0 -0.91782093
vn 0.87253547 0 -0.48855078
vn 0.87253547 -0 -0.48855078
vn 0.87253547 -0 -0.48855078
vn 0.87253547 -0 -0.48855078
vn 0.9935557 0 0.113344945
vn 0.9935557 0 0.113344945
vn 0.9935557 0 0.113344945
vn 0.9935557 0 0.113344945
vn 0.72562486 0 -0.6880905
vn 0.72562486 -0 -0.6880905
vn 0.72562486 -0 -0.6880905
vn 0.72562486 -0 -0.6880905
vn 0.6027767 0 -0.7979099
vn 0.6027767 -0 -0.7979099
vn 0.6027767 -0 -0.7979099
vn 0.6027767 -0 -0.7979099
vn 0.44892737 0 -0.8935682
vn 0.44892737 -0 -0.8935682
vn 0.44892737 -0 -0.8935682
vn 0.44892737 -0 -0.8935682
vn 0.50445074 0 -0.8634405
vn 0.50445074 -0 -0.8634405
vn 0.50445074 -0 -0.8634405
vn 0.50445074 -0 -0.8634405
vn 0.55261254 0 -0.83343834
vn 0.55261254 -0 -0.83343834
vn 0.55261254 -0 -0.83343834
vn 0.55261254 -0 -0.83343834
vn 0.15585521 0 0.9877799
vn 0.15585521 0 0.9877799
vn 0.15585521 0 0.9877799
vn 0.15585521 0 0.9877799
vn -0.9848631 -0 0.17333402
vn -0.9848631 0 0.17333402
vn -0.9848631 0 0.17333402
vn -0.9848631 0 0.17333402
vn -0.7832839 0 -0.6216641
vn -0.7832839 0 -0.6216641
vn -0.7832839 0 -0.6216641
vn -0.7832839 0 -0.6216641
vn -0.29262087 0 -0.95622855
vn -0.29262087 0 -0.95622855
vn -0.29262087 0 -0.95622855
vn -0.29262087 0 -0.95622855
vn 0.34773993 0 -0.937591
vn 0.34773993 -0 -0.937591
vn 0.81462324 -0 -0.5799905
vn 0.81462324 -0 -0.5799905
g _0
f 3/3/3 2/2/2 1/1/1
f 2/2/2 3/3/3 4/4/4
f 5/5/5 4/4/4 3/3/3
f 4/4/4 5/5/5 6/6/6
f 7/7/7 6/6/6 5/5/5
f 6/6/6 7/7/7 8/8/8
f 9/9/9 8/8/8 7/7/7
f 8/8/8 9/9/9 10/10/10
f 11/11/11 10/10/10 9/9/9
f 10/10/10 11/11/11 12/12/12
f 13/13/13 12/12/12 11/11/11
f 12/12/12 13/13/13 14/14/14
f 15/15/15 14/14/14 13/13/13
f 14/14/14 15/15/15 16/16/16
f 17/17/17 16/16/16 15/15/15
f 16/16/16 17/17/17 18/18/18
f 19/19/19 18/18/18 17/17/17
f 21/21/21 20/20/20 19/19/19
f 20/20/20 21/21/21 22/22/22
f 23/23/23 22/22/22 21/21/21
f 22/22/22 23/23/23 24/24/24
f 25/25/25 24/24/24 23/23/23
f 24/24/24 25/25/25 26/26/26
f 27/27/27 26/26/26 25/25/25
f 26/26/26 27/27/27 28/28/28
g _1
f 29/29/29 30/30/30 31/31/31
f 32/32/32 31/31/31 30/30/30
f 33/33/33 34/34/34 35/35/35
f 36/36/36 35/35/35 34/34/34
f 37/37/37 38/38/38 39/39/39
f 40/40/40 39/39/39 38/38/38
f 41/41/41 42/42/42 43/43/43
f 44/44/44 43/43/43 42/42/42
f 45/45/45 46/46/46 47/47/47
f 48/48/48 47/47/47 46/46/46
f 49/49/49 50/50/50 51/51/51
f 52/52/52 51/51/51 50/50/50
f 53/53/53 54/54/54 55/55/55
f 56/56/56 55/55/55 54/54/54
f 57/57/57 58/58/58 59/59/59
f 60/60/60 59/59/59 58/58/58
f 61/61/61 62/62/62 63/63/63
f 64/64/64 63/63/63 62/62/62
f 65/65/65 66/66/66 67/67/67
f 68/68/68 67/67/67 66/66/66
f 69/69/69 70/70/70 71/71/71
f 72/72/72 71/71/71 70/70/70
f 73/73/73 74/74/74 75/75/75
f 76/76/76 75/75/75 74/74/74
f 77/77/77 78/78/78 79/79/79
f 80/80/80 79/79/79 78/78/78
f 83/83/83 82/82/82 81/81/81
f 82/82/82 83/83/83 84/84/84
f 87/87/87 86/86/86 85/85/85
f 86/86/86 87/87/87 88/88/88
f 91/91/91 90/90/90 89/89/89
f 90/90/90 91/91/91 92/92/92
f 95/95/95 94/94/94 93/93/93
f 94/94/94 95/95/95 96/96/96
f 99/99/99 98/98/98 97/97/97
f 98/98/98 99/99/99 100/100/100
f 103/103/103 102/102/102 101/101/101
f 102/102/102 103/103/103 104/104/104
f 107/107/107 106/106/106 105/105/105
f 106/106/106 107/107/107 108/108/108
f 111/111/111 110/110/110 109/109/109
f 110/110/110 111/111/111 112/112/112
f 115/115/115 114/114/114 113/113/113
f 114/114/114 115/115/115 116/116/116
f 119/119/119 118/118/118 117/117/117
f 118/118/118 119/119/119 120/120/120
f 123/123/123 122/122/122 121/121/121
f 122/122/122 123/123/123 124/124/124
f 127/127/127 126/126/126 125/125/125
f 126/126/126 127/127/127 128/128/128
f 131/131/131 130/130/130 129/129/129
f 130/130/130 131/131/131 132/132/132
f 81/81/81 30/30/30 29/29/29
f 30/30/30 81/81/81 82/82/82
f 79/79/79 80/80/80 131/131/131
f 132/132/132 131/131/131 80/80/80
