g 
v 52.608566 108.41657 -47.193687
v 52.608566 94.41657 -47.193687
v 50.34132 108.41657 -40.70743
v 50.34132 94.41657 -40.70743
v 53.021156 108.41657 -39.864532
v 53.021156 94.41657 -39.864532
v 52.94062 108.41657 -37.520313
v 52.94062 94.41657 -37.520313
v 51.07221 108.41657 -36.582584
v 51.07221 94.41657 -36.582584
v 53.593166 108.41657 -32.099377
v 53.593166 94.41657 -32.099377
v 51.598633 108.41657 -30.332256
v 51.598633 94.41657 -30.332256
v 47.456985 108.41657 -30.12025
v 47.456985 94.41657 -30.12025
v 45.85233 108.41657 -30.14325
v 45.85233 94.41657 -30.14325
v 43.400673 108.41657 -28.599087
v 43.400673 94.41657 -28.599087
v 41.982594 108.41657 -29.472416
v 41.982594 94.41657 -29.472416
v 41.33887 108.41657 -32.580673
v 41.33887 94.41657 -32.580673
v 37.984978 108.41657 -34.77248
v 37.984978 94.41657 -34.77248
v 36.31371 108.41657 -36.13975
v 36.31371 94.41657 -36.13975
v 36.64739 108.41657 -38.779728
v 36.64739 94.41657 -38.779728
v 35.526363 108.41657 -40.9941
v 35.526363 94.41657 -40.9941
v 33.076454 108.41657 -41.10265
v 33.076454 94.41657 -41.10265
v 30.403772 108.41657 -35.681015
v 30.403772 94.41657 -35.681015
v 27.184607 108.41657 -35.13369
v 27.184607 94.41657 -35.13369
v 26.486956 108.41657 -39.549553
v 26.486956 94.41657 -39.549553
v 29.957472 108.41657 -43.045246
v 29.957472 94.41657 -43.045246
v 32.307587 108.41657 -42.543144
v 32.307587 94.41657 -42.543144
v 33.526352 108.41657 -41.793827
v 33.526352 94.41657 -41.793827
v 35.912968 108.41657 -43.894833
v 35.912968 94.41657 -43.894833
v 36.59311 108.41657 -46.634922
v 36.59311 94.41657 -46.634922
v 37.969746 108.41657 -47.93427
v 37.969746 94.41657 -47.93427
v 42.78507 108.41657 -48.24378
v 42.78507 94.41657 -48.24378
v 45.012966 108.41657 -44.202858
v 45.012966 94.41657 -44.202858
v 46.83613 108.41657 -44.655457
v 46.83613 94.41657 -44.655457
v 49.251778 108.41657 -48.22013
v 49.251778 94.41657 -48.22013
v 52.427265 108.41657 -48.95475
v 52.427265 94.41657 -48.95475
v 52.608566 108.41657 -47.193687
v 52.608566 94.41657 -47.193687
vt 0.30146933 0.015619125
vt 0.30146933 0.015619125
vt 0.3241418 0.08048168
vt 0.3241418 0.08048168
vt 0.29734343 0.08891068
vt 0.29734343 0.08891068
vt 0.2981488 0.11235286
vt 0.2981488 0.11235286
vt 0.31683293 0.121730156
vt 0.31683293 0.121730156
vt 0.29162332 0.16656223
vt 0.29162332 0.16656223
vt 0.31156868 0.18423343
vt 0.31156868 0.18423343
vt 0.35298514 0.18635349
vt 0.35298514 0.18635349
vt 0.3690317 0.1861235
vt 0.3690317 0.1861235
vt 0.39354828 0.20156513
vt 0.39354828 0.20156513
vt 0.40772906 0.19283183
vt 0.40772906 0.19283183
vt 0.4141663 0.16174926
vt 0.4141663 0.16174926
vt 0.4477052 0.1398312
vt 0.4477052 0.1398312
vt 0.4644179 0.12615848
vt 0.4644179 0.12615848
vt 0.46108112 0.09975872
vt 0.46108112 0.09975872
vt 0.47229135 0.07761501
vt 0.47229135 0.07761501
vt 0.49679047 0.0765295
vt 0.49679047 0.0765295
vt 0.5235173 0.13074584
vt 0.5235173 0.13074584
vt 0.5557089 0.1362191
vt 0.5557089 0.1362191
vt 0.56268543 0.09206047
vt 0.56268543 0.09206047
vt 0.52798027 0.057103537
vt 0.52798027 0.057103537
vt 0.5044791 0.062124558
vt 0.5044791 0.062124558
vt 0.49229148 0.069617726
vt 0.49229148 0.069617726
vt 0.46842533 0.048607673
vt 0.46842533 0.048607673
vt 0.4616239 0.02120678
vt 0.4616239 0.02120678
vt 0.44785753 0.0082133105
vt 0.44785753 0.0082133105
vt 0.3997043 0.0051182173
vt 0.3997043 0.0051182173
vt 0.37742534 0.045527417
vt 0.37742534 0.045527417
vt 0.3591937 0.04100143
vt 0.3591937 0.04100143
vt 0.33503723 0.0053546904
vt 0.33503723 0.0053546904
vt 0.30328235 -0.0019915008
vt 0.30328235 -0.0019915008
vt 0.30146933 0.015619125
vt 0.30146933 0.015619125
vn 0.9439919 0 0.3299688
vn 0.9439919 0 0.3299688
vn 0.30004206 0 -0.953926
vn 0.30004206 -0 -0.953926
vn 0.99941033 0 0.034334842
vn 0.99941033 0 0.034334842
vn 0.44856122 0 0.8937521
vn 0.44856122 0 0.8937521
vn 0.87164587 0 -0.49013627
vn 0.87164587 -0 -0.49013627
vn 0.66314745 0 0.74848884
vn 0.66314745 0 0.74848884
vn 0.051121786 0 0.99869245
vn 0.051121786 0 0.99869245
vn -0.014331074 -0 0.9998973
vn -0.014331074 0 0.9998973
vn 0.5329436 0 0.8461508
vn 0.5329436 0 0.8461508
vn -0.524387 -0 0.85148007
vn -0.524387 0 0.85148007
vn -0.9792207 -0 0.20279737
vn -0.9792207 0 0.20279737
vn -0.5470529 -0 0.83709806
vn -0.5470529 0 0.83709806
vn -0.6332017 -0 0.7739868
vn -0.6332017 0 0.7739868
vn -0.9921067 0 -0.12539709
vn -0.9921067 0 -0.12539709
vn -0.8921856 -0 0.45166892
vn -0.8921856 0 0.45166892
vn -0.044264752 -0 0.9990198
vn -0.044264752 0 0.9990198
vn 0.89693654 0 0.44215927
vn 0.89693654 0 0.44215927
vn 0.16761543 0 0.9858525
vn 0.16761543 0 0.9858525
vn -0.98774886 -0 0.15605192
vn -0.98774886 0 0.15605192
vn -0.7096578 0 -0.70454663
vn -0.7096578 0 -0.70454663
vn 0.2089346 0 -0.97792965
vn 0.2089346 -0 -0.97792965
vn 0.52374643 0 -0.8518742
vn 0.52374643 -0 -0.8518742
vn -0.6607668 0 -0.7505913
vn -0.6607668 0 -0.7505913
vn -0.9705479 0 -0.24090815
vn -0.9705479 0 -0.24090815
vn -0.6863974 0 -0.7272266
vn -0.6863974 0 -0.7272266
vn -0.064143546 0 -0.99794066
vn -0.064143546 0 -0.99794066
vn 0.8757221 0 -0.48281556
vn 0.8757221 -0 -0.48281556
vn -0.24093606 0 -0.970541
vn -0.24093606 0 -0.970541
vn -0.8278249 0 -0.56098664
vn -0.8278249 0 -0.56098664
vn -0.22538798 0 -0.9742691
vn -0.22538798 0 -0.9742691
vn 0.9947424 0 -0.10240857
vn 0.9947424 -0 -0.10240857
vn 0.9947424 -0 -0.10240857
vn 0.9947424 -0 -0.10240857
g _0
f 3/3/3 2/2/2 1/1/1
f 2/2/2 3/3/3 4/4/4
f 5/5/5 4/4/4 3/3/3
f 4/4/4 5/5/5 6/6/6
f 7/7/7 6/6/6 5/5/5
f 6/6/6 7/7/7 8/8/8
f 9/9/9 8/8/8 7/7/7
f 8/8/8 9/9/9 10/10/10
f 11/11/11 10/10/10 9/9/9
f 10/10/10 11/11/11 12/12/12
f 13/13/13 12/12/12 11/11/11
f 12/12/12 13/13/13 14/14/14
f 15/15/15 14/14/14 13/13/13
f 14/14/14 15/15/15 16/16/16
f 17/17/17 16/16/16 15/15/15
f 16/16/16 17/17/17 18/18/18
f 19/19/19 18/18/18 17/17/17
f 18/18/18 19/19/19 20/20/20
f 21/21/21 20/20/20 19/19/19
f 20/20/20 21/21/21 22/22/22
f 23/23/23 22/22/22 21/21/21
f 22/22/22 23/23/23 24/24/24
f 25/25/25 24/24/24 23/23/23
f 24/24/24 25/25/25 26/26/26
f 27/27/27 26/26/26 25/25/25
f 26/26/26 27/27/27 28/28/28
f 29/29/29 28/28/28 27/27/27
f 28/28/28 29/29/29 30/30/30
f 31/31/31 30/30/30 29/29/29
f 30/30/30 31/31/31 32/32/32
f 33/33/33 32/32/32 31/31/31
f 32/32/32 33/33/33 34/34/34
f 35/35/35 34/34/34 33/33/33
f 34/34/34 35/35/35 36/36/36
f 37/37/37 36/36/36 35/35/35
f 36/36/36 37/37/37 38/38/38
f 39/39/39 38/38/38 37/37/37
f 38/38/38 39/39/39 40/40/40
f 41/41/41 40/40/40 39/39/39
f 40/40/40 41/41/41 42/42/42
f 43/43/43 42/42/42 41/41/41
f 42/42/42 43/43/43 44/44/44
f 45/45/45 44/44/44 43/43/43
f 44/44/44 45/45/45 46/46/46
f 47/47/47 46/46/46 45/45/45
f 46/46/46 47/47/47 48/48/48
f 49/49/49 48/48/48 47/47/47
f 48/48/48 49/49/49 50/50/50
f 51/51/51 50/50/50 49/49/49
f 50/50/50 51/51/51 52/52/52
f 53/53/53 52/52/52 51/51/51
f 52/52/52 53/53/53 54/54/54
f 55/55/55 54/54/54 53/53/53
f 54/54/54 55/55/55 56/56/56
f 57/57/57 56/56/56 55/55/55
f 56/56/56 57/57/57 58/58/58
f 59/59/59 58/58/58 57/57/57
f 58/58/58 59/59/59 60/60/60
f 61/61/61 60/60/60 59/59/59
f 60/60/60 61/61/61 62/62/62
f 63/63/63 62/62/62 61/61/61
f 62/62/62 63/63/63 64/64/64
