g 
v -135.04791 -6.2 -106.86958
v -117.34313 -6.2 -109.65497
v -141.15306 -6.2 -101.14814
v -109.77614 -6.2 -106.084496
v -143.12723 -6.2 -89.34362
v -104.272766 -6.2 -95.45638
v -142.74384 -6.2 -86.92851
v -103.8789 -6.2 -92.93104
v -142.33534 -6.2 -84.303894
v -103.46149 -6.2 -90.116
v -141.93163 -6.2 -81.669815
v -103.06387 -6.2 -87.30603
v -141.52988 -6.2 -79.01546
v -102.68748 -6.2 -84.51221
v -141.12674 -6.2 -76.33741
v -102.326416 -6.2 -81.73957
v -140.72194 -6.2 -73.644905
v -101.977356 -6.2 -78.97954
v -140.31337 -6.2 -70.93644
v -101.63815 -6.2 -76.23443
v -139.89983 -6.2 -68.21298
v -101.3053 -6.2 -73.50404
v -139.47975 -6.2 -65.47732
v -100.976456 -6.2 -70.78629
v -139.0525 -6.2 -62.732445
v -100.648895 -6.2 -68.07883
v -138.61708 -6.2 -59.975555
v -100.32123 -6.2 -65.38484
v -138.17162 -6.2 -57.211502
v -99.99026 -6.2 -62.700397
v -137.71747 -6.2 -54.443985
v -99.65465 -6.2 -60.0218
v -137.25275 -6.2 -51.668102
v -99.31337 -6.2 -57.35446
v -136.77748 -6.2 -48.891254
v -98.963486 -6.2 -54.691505
v -136.29254 -6.2 -46.112045
v -98.60526 -6.2 -52.034126
v -135.79648 -6.2 -43.33001
v -98.23651 -6.2 -49.38343
v -135.29143 -6.2 -40.55326
v -97.85582 -6.2 -46.731186
v -134.77693 -6.2 -37.77326
v -97.46477 -6.2 -44.08572
v -134.25282 -6.2 -34.996296
v -97.05939 -6.2 -41.441475
v -133.72255 -6.2 -32.22792
v -96.640884 -6.2 -38.79208
v -133.18506 -6.2 -29.459955
v -96.20969 -6.2 -36.145847
v -132.64246 -6.2 -26.699923
v -95.763626 -6.2 -33.495228
v -132.09665 -6.2 -23.947002
v -95.30469 -6.2 -30.840368
v -131.5484 -6.2 -21.199879
v -94.83181 -6.2 -28.18263
v -131.0007 -6.2 -18.463974
v -94.34529 -6.2 -25.516018
v -130.45464 -6.2 -15.735659
v -93.84717 -6.2 -22.843578
v -129.91312 -6.2 -13.017035
v -93.3359 -6.2 -20.162994
v -129.40077 -6.2 -10.427285
v -92.79151 -6.2 -17.354229
v -129.02289 -6.2 -8.371866
v -92.25041 -6.2 -14.366444
v -128.75046 -6.2 -6.4663553
v -91.80068 -6.2 -11.247909
v -128.51247 -6.2 -4.3949738
v -91.45409 -6.2 -8.245356
v -128.3097 -6.2 -2.201723
v -91.18288 -6.2 -5.3241453
v -128.13629 -6.2 0.09644389
v -90.96733 -6.2 -2.4761968
v -127.98563 -6.2 2.496434
v -90.79288 -6.2 0.29436195
v -127.846725 -6.2 4.9991417
v -90.64374 -6.2 2.9772942
v -127.709274 -6.2 7.5853863
v -90.50525 -6.2 5.5829186
v -127.564644 -6.2 10.23833
v -90.36695 -6.2 8.121376
v -127.402695 -6.2 12.965407
v -90.22131 -6.2 10.579032
v -127.21042 -6.2 15.748525
v -90.05661 -6.2 12.965578
v -126.982796 -6.2 18.564526
v -89.86817 -6.2 15.300412
v -126.71145 -6.2 21.414541
v -89.651634 -6.2 17.57788
v -126.38741 -6.2 24.306301
v -89.40473 -6.2 19.786226
v -125.99905 -6.2 27.234362
v -89.12145 -6.2 21.924728
v -125.54382 -6.2 30.162317
v -88.79469 -6.2 24.026264
v -125.02262 -6.2 33.08076
v -88.42449 -6.2 26.100317
v -124.43063 -6.2 35.99636
v -88.01083 -6.2 28.138351
v -123.75774 -6.2 38.937256
v -87.56044 -6.2 30.11088
v -123.001175 -6.2 41.857822
v -87.05568 -6.2 32.05628
v -122.18224 -6.2 44.71877
v -86.49354 -6.2 34.019905
v -121.2954 -6.2 47.548527
v -85.88113 -6.2 35.973618
v -120.33959 -6.2 50.356354
v -85.222466 -6.2 37.908985
v -119.31631 -6.2 53.1326
v -84.512566 -6.2 39.834118
v -118.244804 -6.2 55.841698
v -83.739586 -6.2 41.786827
v -117.1378 -6.2 58.48367
v -82.907196 -6.2 43.7726
v -115.99826 -6.2 61.070923
v -82.021835 -6.2 45.78196
v -114.8296 -6.2 63.61436
v -81.09098 -6.2 47.80754
v -113.64783 -6.2 66.08967
v -80.1035 -6.2 49.874622
v -112.476944 -6.2 68.48318
v -79.060745 -6.2 52.00568
v -111.31927 -6.2 70.81284
v -77.9762 -6.2 54.187874
v -110.18892 -6.2 73.07243
v -76.85303 -6.2 56.43309
v -109.121445 -6.2 75.21549
v -75.69939 -6.2 58.74989
v -108.14787 -6.2 77.21592
v -74.70706 -6.2 60.78845
v -106.98146 -6.2 79.56365
v -73.86983 -6.2 62.482388
v -105.53888 -6.2 82.244125
v -73.18732 -6.2 63.76371
v -103.743225 -6.2 85.18665
v -72.66704 -6.2 64.63378
v -101.42441 -6.2 88.396904
v -72.34947 -6.2 65.098885
v -98.393974 -6.2 91.84151
v -71.75301 -6.2 65.79523
v -95.07756 -6.2 94.854416
v -71.4819 -6.2 66.02051
v -91.788605 -6.2 97.27771
v -71.146416 -6.2 66.26079
v -88.42961 -6.2 99.3026
v -70.5641 -6.2 66.607445
v -85.03682 -6.2 100.9855
v -69.721756 -6.2 67.020836
v -81.73229 -6.2 102.34388
v -68.52596 -6.2 67.50507
v -78.62435 -6.2 103.435104
v -66.93356 -6.2 68.058914
v -75.76142 -6.2 104.32915
v -64.96342 -6.2 68.67032
v -73.22795 -6.2 105.0751
v -62.61258 -6.2 69.36148
v -71.15267 -6.2 105.69565
v -59.84801 -6.2 70.19418
v -69.68701 -6.2 106.18236
v -56.639656 -6.2 71.28371
v -68.99505 -6.2 106.45052
v -52.94678 -6.2 72.82609
v -68.95327 -6.2 106.45516
v -48.89493 -6.2 75.0575
v -68.254295 -6.2 107.00206
v -45.458897 -6.2 77.5314
v -66.539406 -6.2 108.411385
v -43.088093 -6.2 79.45995
v -63.9891 -6.2 110.44986
v -41.50935 -6.2 80.73773
v -60.70464 -6.2 112.77113
v -40.54809 -6.2 81.43643
v -56.77997 -6.2 115.02587
v -40.06769 -6.2 81.72648
v -52.358883 -6.2 116.91691
v -39.904167 -6.2 81.80239
v -47.793365 -6.2 118.21887
v -39.70509 -6.2 81.84953
v -43.5176 -6.2 118.931274
v -39.069595 -6.2 81.939865
v -39.86482 -6.2 119.22838
v -37.71667 -6.2 82.032486
v -37.19866 -6.2 119.33139
v -35.360664 -6.2 82.11888
v -35.804707 -6.2 119.40317
v -31.990091 -6.2 82.34108
v -34.882366 -6.2 119.54704
v -28.391365 -6.2 82.85895
v -33.273117 -6.2 119.886185
v -25.343666 -6.2 83.48187
v -31.04888 -6.2 120.3962
v -22.830612 -6.2 84.05601
v -28.36684 -6.2 120.99383
v -20.737936 -6.2 84.52535
v -25.302353 -6.2 121.58778
v -19.028059 -6.2 84.862015
v -21.877798 -6.2 122.08452
v -17.711226 -6.2 85.06035
v -18.164728 -6.2 122.37033
v -16.746813 -6.2 85.139435
v -14.263721 -6.2 122.35638
v -16.054493 -6.2 85.14156
v -10.250764 -6.2 121.97403
v -15.574917 -6.2 85.098526
v -6.24809 -6.2 121.19199
v -15.197353 -6.2 85.02488
v -2.354807 -6.2 120.0209
v -14.829046 -6.2 84.91331
v 1.2707562 -6.2 118.53641
v -14.317725 -6.2 84.696365
v 4.5242295 -6.2 116.87822
v -13.549559 -6.2 84.297745
v 7.4045916 -6.2 115.15798
v -12.513891 -6.2 83.67142
v 9.895946 -6.2 113.50133
v -11.180039 -6.2 82.77751
v 11.972413 -6.2 112.03826
v -9.502213 -6.2 81.59174
v 13.51066 -6.2 110.94889
v -7.3327084 -6.2 80.066795
v 14.8490925 -6.2 110.072586
v -4.4028945 -6.2 78.17415
v 16.306076 -6.2 109.2596
v -1.2421808 -6.2 76.39307
v 17.869377 -6.2 108.47621
v 1.4841776 -6.2 75.01466
v 19.840336 -6.2 107.53955
v 3.9400349 -6.2 73.844894
v 22.096506 -6.2 106.4836
v 6.1733537 -6.2 72.79973
v 24.558199 -6.2 105.30763
v 8.206014 -6.2 71.82994
v 27.184954 -6.2 103.99373
v 10.025281 -6.2 70.92267
v 29.929216 -6.2 102.51413
v 11.625126 -6.2 70.06248
v 32.72553 -6.2 100.86159
v 13.033159 -6.2 69.23312
v 35.588753 -6.2 98.978386
v 14.201677 -6.2 68.470314
v 38.55872 -6.2 96.75719
v 15.216801 -6.2 67.71748
v 41.654354 -6.2 94.0921
v 16.278599 -6.2 66.81169
v 44.63187 -6.2 91.09027
v 17.124336 -6.2 65.96091
v 47.38491 -6.2 87.811134
v 17.846996 -6.2 65.10296
v 49.825294 -6.2 84.34071
v 18.515602 -6.2 64.145355
v 51.90896 -6.2 80.82181
v 19.202608 -6.2 62.9768
v 53.607098 -6.2 77.44112
v 19.869144 -6.2 61.63289
v 54.952717 -6.2 74.34544
v 20.41782 -6.2 60.36366
v 56.0691 -6.2 71.39
v 20.994614 -6.2 58.82298
v 57.020905 -6.2 68.59592
v 21.599585 -6.2 57.042587
v 57.846428 -6.2 65.955475
v 22.217651 -6.2 55.05869
v 58.5682 -6.2 63.546764
v 22.881403 -6.2 52.84152
v 59.196716 -6.2 61.451214
v 23.629572 -6.2 50.35491
v 59.85369 -6.2 59.40278
v 24.630127 -6.2 47.259876
v 60.53283 -6.2 57.56485
v 25.759735 -6.2 44.18646
v 61.316628 -6.2 55.62215
v 26.81952 -6.2 41.54738
v 62.243816 -6.2 53.380943
v 27.793186 -6.2 39.192795
v 63.247963 -6.2 50.931213
v 28.681221 -6.2 37.028343
v 64.284515 -6.2 48.300873
v 29.47485 -6.2 35.017933
v 65.31261 -6.2 45.51127
v 30.169834 -6.2 33.1365
v 66.30432 -6.2 42.550606
v 30.756676 -6.2 31.391998
v 67.20497 -6.2 39.470993
v 31.243881 -6.2 29.726784
v 68.0081 -6.2 36.242073
v 31.634367 -6.2 28.173576
v 68.65635 -6.2 32.912395
v 31.924248 -6.2 26.67522
v 69.1461 -6.2 29.53348
v 32.142624 -6.2 25.187008
v 69.45621 -6.2 26.08294
v 32.272903 -6.2 23.726858
v 69.58446 -6.2 22.647036
v 32.329113 -6.2 22.212326
v 69.53705 -6.2 19.20255
v 32.30803 -6.2 20.668701
v 69.32006 -6.2 15.8272
v 32.19919 -6.2 19.019512
v 68.964005 -6.2 12.50525
v 32.014397 -6.2 17.28811
v 68.47566 -6.2 9.272398
v 31.731655 -6.2 15.439062
v 67.90679 -6.2 6.1764364
v 31.362755 -6.2 13.434732
v 67.27073 -6.2 3.1899352
v 30.907799 -6.2 11.307003
v 66.61153 -6.2 0.35967398
v 30.373634 -6.2 9.0178795
v 65.95842 -6.2 -2.3099735
v 29.77446 -6.2 6.57094
v 65.34537 -6.2 -4.800145
v 29.131487 -6.2 3.9579697
v 64.80824 -6.2 -7.0565205
v 28.461407 -6.2 1.1323063
v 64.3794 -6.2 -9.064375
v 27.816076 -6.2 -1.9038744
v 64.07043 -6.2 -10.772286
v 27.23217 -6.2 -5.196214
v 63.895916 -6.2 -12.162792
v 26.795254 -6.2 -8.743668
v 63.795753 -6.2 -13.817024
v 26.566614 -6.2 -12.353854
v 63.76433 -6.2 -15.896072
v 26.507008 -6.2 -15.692617
v 63.779945 -6.2 -18.403505
v 26.522943 -6.2 -18.659328
v 63.80226 -6.2 -21.258135
v 26.544409 -6.2 -21.30169
v 63.783405 -6.2 -24.382719
v 26.53233 -6.2 -23.67075
v 63.67263 -6.2 -27.723364
v 26.464537 -6.2 -25.797924
v 63.42013 -6.2 -31.248589
v 26.332012 -6.2 -27.695982
v 62.97956 -6.2 -34.88503
v 26.124617 -6.2 -29.420357
v 62.33311 -6.2 -38.552162
v 25.839863 -6.2 -31.04268
v 61.47117 -6.2 -42.204674
v 25.472258 -6.2 -32.601143
v 60.405144 -6.2 -45.783165
v 25.009361 -6.2 -34.15182
v 59.15941 -6.2 -49.249657
v 24.439817 -6.2 -35.733025
v 57.783478 -6.2 -52.53565
v 23.73204 -6.2 -37.414494
v 56.35167 -6.2 -55.592667
v 22.866247 -6.2 -39.25632
v 54.92277 -6.2 -58.414562
v 21.840418 -6.2 -41.276665
v 53.5673 -6.2 -60.977303
v 20.654871 -6.2 -43.51529
v 52.363464 -6.2 -63.239067
v 19.316256 -6.2 -46.033493
v 51.37961 -6.2 -65.164665
v 17.863766 -6.2 -48.890827
v 50.549915 -6.2 -66.96981
v 16.540546 -6.2 -51.754288
v 49.45237 -6.2 -69.49229
v 15.604294 -6.2 -53.92124
v 47.75854 -6.2 -72.934494
v 15.061899 -6.2 -55.0717
v 45.34806 -6.2 -76.85533
v 14.843972 -6.2 -55.462574
v 42.15736 -6.2 -80.812775
v 14.896522 -6.2 -55.416
v 38.38005 -6.2 -84.3241
v 14.965088 -6.2 -55.34325
v 34.434875 -6.2 -87.11694
v 14.672536 -6.2 -55.53215
v 30.70961 -6.2 -89.20167
v 13.729952 -6.2 -56.03782
v 27.601418 -6.2 -90.67732
v 11.909276 -6.2 -56.885223
v 25.507362 -6.2 -91.62759
v 9.069928 -6.2 -58.191673
v 24.48569 -6.2 -92.14982
v 5.4689054 -6.2 -60.110603
v 23.443432 -6.2 -92.88344
v 2.6038065 -6.2 -61.998814
v 21.373623 -6.2 -94.28603
v 0.87536144 -6.2 -63.173805
v 18.851353 -6.2 -95.894554
v -0.4648323 -6.2 -64.03495
v 16.012302 -6.2 -97.521515
v -1.5946989 -6.2 -64.68642
v 12.975408 -6.2 -99.03766
v -2.652989 -6.2 -65.21602
v 9.853935 -6.2 -100.36779
v -3.7581782 -6.2 -65.685524
v 6.8113737 -6.2 -101.466965
v -5.065055 -6.2 -66.152664
v 4.0169907 -6.2 -102.344666
v -6.710952 -6.2 -66.66469
v 1.6207874 -6.2 -103.037094
v -8.801129 -6.2 -67.266525
v -0.20320892 -6.2 -103.56981
v -11.4461355 -6.2 -68.04874
v -1.7098398 -6.2 -104.08199
v -14.31128 -6.2 -69.01986
v -2.8592706 -6.2 -104.536255
v -16.049187 -6.2 -69.69124
v -4.729533 -6.2 -105.21727
v -16.776403 -6.2 -69.960754
v -6.8544974 -6.2 -105.891525
v -17.28695 -6.2 -70.12404
v -8.986472 -6.2 -106.460106
v -17.832684 -6.2 -70.26765
v -10.880684 -6.2 -106.88585
v -18.652063 -6.2 -70.447464
v -12.279717 -6.2 -107.17078
v -19.98346 -6.2 -70.71805
v -13.289419 -6.2 -107.391426
v -21.69067 -6.2 -71.0931
v -13.435904 -6.2 -107.43562
v -22.7641 -6.2 -71.36438
v -24.74638 -6.2 -106.657486
v -32.27936 -6.2 -77.52815
v -30.700739 -6.2 -101.42649
v -34.95131 -6.2 -84.98995
vt 0 -0.00896127
vt 0 0.00896127
vt 0 -0.015881428
vt 0 0.015881428
vt 0.004703102 -0.019666187
vt 0.004703102 0.019666187
vt 0.016057378 -0.019662874
vt 0.016057378 0.019662874
vt 0.018557984 -0.019652976
vt 0.018557984 0.019652976
vt 0.02130899 -0.019637145
vt 0.02130899 0.019637145
vt 0.024060342 -0.019614704
vt 0.024060342 0.019614704
vt 0.026812078 -0.0195873
vt 0.026812078 0.0195873
vt 0.029564075 -0.01955506
vt 0.029564075 0.01955506
vt 0.032316275 -0.019518202
vt 0.032316275 0.019518202
vt 0.03506858 -0.01947777
vt 0.03506858 0.01947777
vt 0.037820917 -0.019433789
vt 0.037820917 0.019433789
vt 0.040573217 -0.019386986
vt 0.040573217 0.019386986
vt 0.043325383 -0.019337997
vt 0.043325383 0.019337997
vt 0.046077404 -0.01928694
vt 0.046077404 0.01928694
vt 0.04882917 -0.01923467
vt 0.04882917 0.01923467
vt 0.05158071 -0.01918157
vt 0.05158071 0.01918157
vt 0.054331996 -0.019128133
vt 0.054331996 0.019128133
vt 0.05708301 -0.019074865
vt 0.05708301 0.019074865
vt 0.059833802 -0.019022327
vt 0.059833802 0.019022327
vt 0.06258437 -0.01897098
vt 0.06258437 0.01897098
vt 0.06533476 -0.018921185
vt 0.06533476 0.018921185
vt 0.068085015 -0.018873874
vt 0.068085015 0.018873874
vt 0.07083517 -0.018829089
vt 0.07083517 0.018829089
vt 0.07358528 -0.01878749
vt 0.07358528 0.01878749
vt 0.07633536 -0.01874983
vt 0.07633536 0.01874983
vt 0.079085484 -0.018716082
vt 0.079085484 0.018716082
vt 0.08183564 -0.018687345
vt 0.08183564 0.018687345
vt 0.08458588 -0.018663809
vt 0.08458588 0.018663809
vt 0.08733618 -0.01864557
vt 0.08733618 0.01864557
vt 0.09008657 -0.018634358
vt 0.09008657 0.018634358
vt 0.09283703 -0.01862942
vt 0.09283703 0.01862942
vt 0.09558751 -0.018628942
vt 0.09558751 0.018628942
vt 0.09815063 -0.018628942
vt 0.09815063 0.018628942
vt 0.10068847 -0.018628942
vt 0.10068847 0.018628942
vt 0.103242226 -0.018628942
vt 0.103242226 0.018628942
vt 0.10581041 -0.018628942
vt 0.10581041 0.018628942
vt 0.108390816 -0.018628942
vt 0.108390816 0.018628942
vt 0.11098119 -0.018628942
vt 0.11098119 0.018628942
vt 0.11357801 -0.018628942
vt 0.11357801 0.018628942
vt 0.11617761 -0.018628942
vt 0.11617761 0.018628942
vt 0.11877716 -0.018628942
vt 0.11877716 0.018628942
vt 0.12137409 -0.018628942
vt 0.12137409 0.018628942
vt 0.12396508 -0.018628942
vt 0.12396508 0.018628942
vt 0.12654889 -0.018628942
vt 0.12654889 0.018628942
vt 0.12912421 -0.018628942
vt 0.12912421 0.018628942
vt 0.13169019 -0.018628942
vt 0.13169019 0.018628942
vt 0.13424565 -0.018628942
vt 0.13424565 0.018628942
vt 0.13679059 -0.018628942
vt 0.13679059 0.018628942
vt 0.13932632 -0.018628942
vt 0.13932632 0.018628942
vt 0.14185366 -0.018628942
vt 0.14185366 0.018628942
vt 0.14437376 -0.018628942
vt 0.14437376 0.018628942
vt 0.14688715 -0.018628942
vt 0.14688715 0.018628942
vt 0.14939633 -0.018628942
vt 0.14939633 0.018628942
vt 0.15190278 -0.018628942
vt 0.15190278 0.018628942
vt 0.154408 -0.018628942
vt 0.154408 0.018628942
vt 0.15691334 -0.018628942
vt 0.15691334 0.018628942
vt 0.15942006 -0.018628942
vt 0.15942006 0.018628942
vt 0.1619289 -0.018628942
vt 0.1619289 0.018628942
vt 0.16444033 -0.018628942
vt 0.16444033 0.018628942
vt 0.16695449 -0.018628942
vt 0.16695449 0.018628942
vt 0.16947138 -0.018628942
vt 0.16947138 0.018628942
vt 0.1719899 -0.018628942
vt 0.1719899 0.018628942
vt 0.17450906 -0.018628942
vt 0.17450906 0.018628942
vt 0.17702757 -0.018628942
vt 0.17702757 0.018628942
vt 0.17951873 -0.018628942
vt 0.17951873 0.018628942
vt 0.18176474 -0.018628942
vt 0.18176474 0.018628942
vt 0.18402027 -0.018628942
vt 0.18402027 0.018628942
vt 0.18626815 -0.018628942
vt 0.18626815 0.018628942
vt 0.18849859 -0.018628942
vt 0.18849859 0.018628942
vt 0.19076015 -0.018628942
vt 0.19076015 0.018628942
vt 0.1935125 -0.018628942
vt 0.1935125 0.018628942
vt 0.19592892 -0.018628942
vt 0.19592892 0.018628942
vt 0.19817786 -0.018628942
vt 0.19817786 0.018628942
vt 0.20047776 -0.018628942
vt 0.20047776 0.018628942
vt 0.20284054 -0.018628942
vt 0.20284054 0.018628942
vt 0.20527202 -0.018628942
vt 0.20527202 0.018628942
vt 0.20776196 -0.018628942
vt 0.20776196 0.018628942
vt 0.21029302 -0.018628942
vt 0.21029302 0.018628942
vt 0.2128387 -0.018628942
vt 0.2128387 0.018628942
vt 0.21536535 -0.018628942
vt 0.21536535 0.018628942
vt 0.21783167 -0.018628942
vt 0.21783167 0.018628942
vt 0.22020364 -0.018628942
vt 0.22020364 0.018628942
vt 0.2225359 -0.018628942
vt 0.2225359 0.018628942
vt 0.22509634 -0.018628942
vt 0.22509634 0.018628942
vt 0.22773425 -0.018628942
vt 0.22773425 0.018628942
vt 0.2303822 -0.018628942
vt 0.2303822 0.018628942
vt 0.2329873 -0.018628942
vt 0.2329873 0.018628942
vt 0.23553094 -0.018628942
vt 0.23553094 0.018628942
vt 0.23802531 -0.018628942
vt 0.23802531 0.018628942
vt 0.24050127 -0.018628942
vt 0.24050127 0.018628942
vt 0.24298948 -0.018628942
vt 0.24298948 0.018628942
vt 0.24549991 -0.018628942
vt 0.24549991 0.018628942
vt 0.24801277 -0.018628942
vt 0.24801277 0.018628942
vt 0.25039956 -0.018628942
vt 0.25039956 0.018628942
vt 0.25268418 -0.018628942
vt 0.25268418 0.018628942
vt 0.25506184 -0.018628942
vt 0.25506184 0.018628942
vt 0.2574917 -0.018628942
vt 0.2574917 0.018628942
vt 0.25993794 -0.018628942
vt 0.25993794 0.018628942
vt 0.26237005 -0.018628942
vt 0.26237005 0.018628942
vt 0.26476607 -0.018628942
vt 0.26476607 0.018628942
vt 0.26711193 -0.018628942
vt 0.26711193 0.018628942
vt 0.26940858 -0.018628942
vt 0.26940858 0.018628942
vt 0.2716649 -0.018628942
vt 0.2716649 0.018628942
vt 0.2738964 -0.018628942
vt 0.2738964 0.018628942
vt 0.27612162 -0.018628942
vt 0.27612162 0.018628942
vt 0.27835816 -0.018628942
vt 0.27835816 0.018628942
vt 0.2806167 -0.018628942
vt 0.2806167 0.018628942
vt 0.28289935 -0.018628942
vt 0.28289935 0.018628942
vt 0.2851981 -0.018628942
vt 0.2851981 0.018628942
vt 0.28749543 -0.018628942
vt 0.28749543 0.018628942
vt 0.2897638 -0.018628942
vt 0.2897638 0.018628942
vt 0.29230767 -0.018628942
vt 0.29230767 0.018628942
vt 0.29495588 -0.018628942
vt 0.29495588 0.018628942
vt 0.29735768 -0.018628942
vt 0.29735768 0.018628942
vt 0.2998089 -0.018628942
vt 0.2998089 0.018628942
vt 0.3022873 -0.018628942
vt 0.3022873 0.018628942
vt 0.30477744 -0.018628942
vt 0.30477744 0.018628942
vt 0.30726242 -0.018628942
vt 0.30726242 0.018628942
vt 0.30972952 -0.018628942
vt 0.30972952 0.018628942
vt 0.31217062 -0.018628942
vt 0.31217062 0.018628942
vt 0.3145819 -0.018628942
vt 0.3145819 0.018628942
vt 0.31706816 -0.018628942
vt 0.31706816 0.018628942
vt 0.3198084 -0.018628942
vt 0.3198084 0.018628942
vt 0.32252222 -0.018628942
vt 0.32252222 0.018628942
vt 0.3252239 -0.018628942
vt 0.3252239 0.018628942
vt 0.3279291 -0.018628942
vt 0.3279291 0.018628942
vt 0.33065167 -0.018628942
vt 0.33065167 0.018628942
vt 0.33329332 -0.018628942
vt 0.33329332 0.018628942
vt 0.33567244 -0.018628942
vt 0.33567244 0.018628942
vt 0.33807462 -0.018628942
vt 0.33807462 0.018628942
vt 0.34049067 -0.018628942
vt 0.34049067 0.018628942
vt 0.34291288 -0.018628942
vt 0.34291288 0.018628942
vt 0.34532735 -0.018628942
vt 0.34532735 0.018628942
vt 0.34771958 -0.018628942
vt 0.34771958 0.018628942
vt 0.35042155 -0.018628942
vt 0.35042155 0.018628942
vt 0.35303846 -0.018628942
vt 0.35303846 0.018628942
vt 0.35550785 -0.018628942
vt 0.35550785 0.018628942
vt 0.35799456 -0.018628942
vt 0.35799456 0.018628942
vt 0.3604881 -0.018628942
vt 0.3604881 0.018628942
vt 0.3629824 -0.018628942
vt 0.3629824 0.018628942
vt 0.36547172 -0.018628942
vt 0.36547172 0.018628942
vt 0.36795318 -0.018628942
vt 0.36795318 0.018628942
vt 0.37042502 -0.018628942
vt 0.37042502 0.018628942
vt 0.37288943 -0.018628942
vt 0.37288943 0.018628942
vt 0.3753486 -0.018628942
vt 0.3753486 0.018628942
vt 0.3778078 -0.018628942
vt 0.3778078 0.018628942
vt 0.38027298 -0.018628942
vt 0.38027298 0.018628942
vt 0.38274992 -0.018628942
vt 0.38274992 0.018628942
vt 0.38524422 -0.018628942
vt 0.38524422 0.018628942
vt 0.38776177 -0.018628942
vt 0.38776177 0.018628942
vt 0.39030287 -0.018628942
vt 0.39030287 0.018628942
vt 0.3928729 -0.018628942
vt 0.3928729 0.018628942
vt 0.39546582 -0.018628942
vt 0.39546582 0.018628942
vt 0.39808047 -0.018628942
vt 0.39808047 0.018628942
vt 0.4007088 -0.018628942
vt 0.4007088 0.018628942
vt 0.40334257 -0.018628942
vt 0.40334257 0.018628942
vt 0.4059703 -0.018628942
vt 0.4059703 0.018628942
vt 0.40858203 -0.018628942
vt 0.40858203 0.018628942
vt 0.4111606 -0.018628942
vt 0.4111606 0.018628942
vt 0.41370028 -0.018628942
vt 0.41370028 0.018628942
vt 0.4161881 -0.018628942
vt 0.4161881 0.018628942
vt 0.41882542 -0.018628942
vt 0.41882542 0.018628942
vt 0.42153472 -0.018628942
vt 0.42153472 0.018628942
vt 0.42427185 -0.018628942
vt 0.42427185 0.018628942
vt 0.42702043 -0.018628942
vt 0.42702043 0.018628942
vt 0.42976728 -0.018628942
vt 0.42976728 0.018628942
vt 0.4325027 -0.018628942
vt 0.4325027 0.018628942
vt 0.43522117 -0.018628942
vt 0.43522117 0.018628942
vt 0.43792108 -0.018628942
vt 0.43792108 0.018628942
vt 0.44060647 -0.018628942
vt 0.44060647 0.018628942
vt 0.4432835 -0.018628942
vt 0.4432835 0.018628942
vt 0.4459596 -0.018628942
vt 0.4459596 0.018628942
vt 0.4486417 -0.018628942
vt 0.4486417 0.018628942
vt 0.45133507 -0.018628942
vt 0.45133507 0.018628942
vt 0.45404053 -0.018628942
vt 0.45404053 0.018628942
vt 0.45675495 -0.018628942
vt 0.45675495 0.018628942
vt 0.45947114 -0.018628942
vt 0.45947114 0.018628942
vt 0.46217814 -0.018628942
vt 0.46217814 0.018628942
vt 0.464862 -0.018628942
vt 0.464862 0.018628942
vt 0.46743256 -0.018628942
vt 0.46743256 0.018628942
vt 0.4699883 -0.018628942
vt 0.4699883 0.018628942
vt 0.47254235 -0.018628942
vt 0.47254235 0.018628942
vt 0.4750672 -0.018628942
vt 0.4750672 0.018628942
vt 0.47757432 -0.018628942
vt 0.47757432 0.018628942
vt 0.48010308 -0.018628942
vt 0.48010308 0.018628942
vt 0.4826939 -0.018628942
vt 0.4826939 0.018628942
vt 0.48536313 -0.018628942
vt 0.48536313 0.018628942
vt 0.48808756 -0.018628942
vt 0.48808756 0.018628942
vt 0.4908001 -0.018628942
vt 0.4908001 0.018628942
vt 0.49341393 -0.018628942
vt 0.49341393 0.018628942
vt 0.49576667 -0.018628942
vt 0.49576667 0.018628942
vt 0.4980618 -0.018628942
vt 0.4980618 0.018628942
vt 0.50035405 -0.018628942
vt 0.50035405 0.018628942
vt 0.5026423 -0.018628942
vt 0.5026423 0.018628942
vt 0.50493115 -0.018628942
vt 0.50493115 0.018628942
vt 0.5072281 -0.018628942
vt 0.5072281 0.018628942
vt 0.5095395 -0.018628942
vt 0.5095395 0.018628942
vt 0.51186585 -0.018628942
vt 0.51186585 0.018628942
vt 0.5142005 -0.018628942
vt 0.5142005 0.018628942
vt 0.51652974 -0.018628942
vt 0.51652974 0.018628942
vt 0.51883805 -0.018628942
vt 0.51883805 0.018628942
vt 0.52038753 -0.018628942
vt 0.52038753 0.018628942
vt 0.52177054 -0.018628942
vt 0.52177054 0.018628942
vt 0.52315325 -0.018628942
vt 0.52315325 0.018628942
vt 0.5245386 -0.018628942
vt 0.5245386 0.018628942
vt 0.5259288 -0.018628942
vt 0.5259288 0.018628942
vt 0.527322 -0.018628942
vt 0.527322 0.018628942
vt 0.52871275 -0.018628942
vt 0.52871275 0.018628942
vt 0.5293427 -0.0150438
vt 0.5293427 0.0150438
vt 0.5400982 -0.008488629
vt 0.5400982 0.008488629
vn -0 1 0
vn -0 1 0
vn -0 1 0
vn -0 1 0
vn -0 1 0
vn -0 1 0
vn -0 1 0
vn -0 1 0
vn -0 1 0
vn -0 1 0
vn -0 1 0
vn -0 1 0
vn -0 1 0
vn -0 1 0
vn -0 1 0
vn -0 1 0
vn -0 1 0
vn -0 1 0
vn -0 1 0
vn -0 1 0
vn -0 1 0
vn -0 1 0
vn -0 1 0
vn -0 1 0
vn -0 1 0
vn -0 1 0
vn -0 1 0
vn -0 1 0
vn -0 1 0
vn -0 1 0
vn -0 1 0
vn -0 1 0
vn -0 1 0
vn -0 1 0
vn -0 1 0
vn -0 1 0
vn -0 1 0
vn -0 1 0
vn -0 1 0
vn -0 1 0
vn -0 1 0
vn -0 1 0
vn -0 1 0
vn -0 1 0
vn -0 1 0
vn -0 1 0
vn -0 1 0
vn -0 1 0
vn -0 1 0
vn -0 1 0
vn -0 1 0
vn -0 1 0
vn -0 1 0
vn -0 1 0
vn -0 1 0
vn -0 1 0
vn -0 1 0
vn -0 1 0
vn -0 1 0
vn -0 1 0
vn -0 1 0
vn -0 1 0
vn -0 1 0
vn -0 1 0
vn -0 1 0
vn -0 1 0
vn -0 1 0
vn -0 1 0
vn -0 1 0
vn -0 1 0
vn -0 1 0
vn -0 1 0
vn -0 1 0
vn -0 1 0
vn -0 1 0
vn -0 1 0
vn -0 1 0
vn -0 1 0
vn -0 1 0
vn -0 1 0
vn -0 1 0
vn -0 1 0
vn -0 1 0
vn -0 1 0
vn -0 1 0
vn -0 1 0
vn -0 1 0
vn -0 1 0
vn -0 1 0
vn -0 1 0
vn -0 1 0
vn -0 1 0
vn -0 1 0
vn -0 1 0
vn -0 1 0
vn -0 1 0
vn -0 1 0
vn -0 1 0
vn -0 1 0
vn -0 1 0
vn -0 1 0
vn -0 1 0
vn -0 1 0
vn -0 1 0
vn -0 1 0
vn -0 1 0
vn -0 1 0
vn -0 1 0
vn -0 1 0
vn -0 1 0
vn -0 1 0
vn -0 1 0
vn -0 1 0
vn -0 1 0
vn -0 1 0
vn -0 1 0
vn -0 1 0
vn -0 1 0
vn -0 1 0
vn -0 1 0
vn -0 1 0
vn -0 1 0
vn -0 1 0
vn -0 1 0
vn -0 1 0
vn -0 1 0
vn -0 1 0
vn -0 1 0
vn -0 1 0
vn -0 1 0
vn -0 1 0
vn -0 1 0
vn -0 1 0
vn -0 1 0
vn -0 1 0
vn -0 1 0
vn -0 1 0
vn -0 1 0
vn -0 1 0
vn -0 1 0
vn -0 1 0
vn -0 1 0
vn -0 1 0
vn -0 1 0
vn -0 1 0
vn -0 1 0
vn -0 1 0
vn -0 1 0
vn -0 1 0
vn -0 1 0
vn -0 1 0
vn -0 1 0
vn -0 1 0
vn -0 1 0
vn -0 1 0
vn -0 1 0
vn -0 1 0
vn -0 1 0
vn -0 1 0
vn -0 1 0
vn -0 1 0
vn -0 1 0
vn -0 1 0
vn -0 1 0
vn -0 1 0
vn -0 1 0
vn -0 1 0
vn -0 1 0
vn -0 1 0
vn -0 1 0
vn -0 1 0
vn -0 1 0
vn -0 1 0
vn -0 1 0
vn -0 1 0
vn -0 1 0
vn -0 1 0
vn -0 1 0
vn -0 1 0
vn -0 1 0
vn -0 1 0
vn -0 1 0
vn -0 1 -0
vn -0 1 0
vn -0 1 0
vn -0 1 0
vn -0 1 0
vn -0 1 0
vn -0 1 0
vn -0 1 0
vn -0 1 0
vn -0 1 0
vn -0 1 0
vn -0 1 0
vn -0 1 0
vn -0 1 0
vn -0 1 0
vn -0 1 0
vn -0 1 0
vn -0 1 0
vn -0 1 -0
vn -0 1 0
vn -0 1 0
vn -0 1 0
vn -0 1 0
vn -0 1 0
vn -0 1 0
vn -0 1 0
vn -0 1 0
vn -0 1 0
vn -0 1 0
vn -0 1 0
vn -0 1 0
vn -0 1 0
vn -0 1 0
vn -0 1 0
vn -0 1 0
vn -0 1 0
vn -0 1 0
vn -0 1 0
vn -0 1 0
vn -0 1 0
vn -0 1 0
vn -0 1 0
vn -0 1 0
vn -0 1 0
vn -0 1 0
vn -0 1 0
vn -0 1 0
vn -0 1 0
vn -0 1 0
vn -0 1 0
vn -0 1 0
vn -0 1 0
vn -0 1 0
vn -0 1 0
vn -0 1 0
vn -0 1 0
vn -0 1 0
vn -0 1 0
vn -0 1 0
vn -0 1 0
vn -0 1 0
vn -0 1 0
vn -0 1 0
vn -0 1 0
vn -0 1 0
vn -0 1 0
vn -0 1 0
vn -0 1 0
vn -0 1 0
vn -0 1 0
vn -0 1 0
vn -0 1 0
vn -0 1 0
vn -0 1 0
vn -0 1 0
vn -0 1 0
vn -0 1 0
vn -0 1 0
vn -0 1 0
vn -0 1 0
vn -0 1 0
vn -0 1 0
vn -0 1 0
vn -0 1 0
vn -0 1 0
vn -0 1 0
vn -0 1 0
vn -0 1 0
vn -0 1 0
vn -0 1 0
vn -0 1 0
vn -0 1 0
vn -0 1 0
vn -0 1 0
vn -0 1 0
vn -0 1 0
vn -0 1 0
vn -0 1 0
vn -0 1 0
vn -0 1 0
vn -0 1 0
vn -0 1 0
vn -0 1 0
vn -0 1 0
vn -0 1 0
vn -0 1 0
vn -0 1 0
vn -0 1 0
vn -0 1 0
vn -0 1 0
vn -0 1 0
vn 0 1 0
vn -0 1 0
vn -0 1 0
vn -0 1 0
vn -0 1 0
vn -0 1 0
vn -0 1 0
vn -0 1 0
vn -0 1 0
vn -0 1 0
vn -0 1 0
vn -0 1 0
vn -0 1 0
vn -0 1 0
vn -0 1 0
vn -0 1 0
vn -0 1 0
vn -0 1 0
vn -0 1 0
vn -0 1 0
vn -0 1 0
vn -0 1 0
vn -0 1 0
vn -0 1 0
vn -0 1 0
vn -0 1 0
vn -0 1 0
vn -0 1 0
vn -0 1 0
vn -0 1 0
vn -0 1 0
vn -0 1 0
vn 0 1 0
vn -0 1 0
vn 0 1 0
vn -0 1 0
vn -0 1 0
vn -0 1 0
vn -0 1 0
vn -0 1 0
vn -0 1 0
vn -0 1 0
vn -0 1 0
vn -0 1 0
vn -0 1 0
vn -0 1 0
vn -0 1 0
vn -0 1 0
vn -0 1 0
vn -0 1 0
vn -0 1 0
vn -0 1 0
vn -0 1 0
vn -0 1 0
vn -0 1 0
vn -0 1 0
vn -0 1 0
vn -0 1 0
vn -0 1 0
vn -0 1 0
vn -0 1 0
vn -0 1 0
vn -0 1 0
vn -0 1 0
vn -0 1 0
vn -0 1 0
vn -0 1 0
vn -0 1 0
vn -0 1 0
vn -0 1 0
vn -0 1 0
vn -0 1 0
vn -0 1 0
vn -0 1 0
vn -0 1 0
vn -0 1 0
vn -0 1 0
vn -0 1 0
vn -0 1 0
vn -0 1 0
vn -0 1 0
vn -0 1 0
vn -0 1 0
vn -0 1 0
vn -0 1 0
vn -0 1 0
vn -0 1 0
vn -0 1 0
vn -0 1 0
vn -0 1 0
vn -0 1 0
vn -0 1 0
vn -0 1 0
vn -0 1 0
vn -0 1 0
vn -0 1 0
vn -0 1 0
vn -0 1 0
vn -0 1 0
vn -0 1 0
vn -0 1 0
vn -0 1 0
vn -0 1 0
vn -0 1 0
vn -0 1 0
vn -0 1 0
vn -0 1 0
vn -0 1 0
vn -0 1 0
vn -0 1 0
vn -0 1 0
vn -0 1 0
vn -0 1 0
vn -0 1 0
vn -0 1 0
vn -0 1 0
vn -0 1 0
vn -0 1 0
vn -0 1 0
vn -0 1 0
vn -0 1 0
vn -0 1 0
vn -0 1 0
vn -0 1 0
vn -0 1 -0
vn -0 1 0
vn -0 1 0
vn -0 1 0
vn -0 1 0
g _0
f 3/3/3 2/2/2 1/1/1
f 2/2/2 3/3/3 4/4/4
f 5/5/5 4/4/4 3/3/3
f 4/4/4 5/5/5 6/6/6
f 7/7/7 6/6/6 5/5/5
f 6/6/6 7/7/7 8/8/8
f 9/9/9 8/8/8 7/7/7
f 8/8/8 9/9/9 10/10/10
f 11/11/11 10/10/10 9/9/9
f 10/10/10 11/11/11 12/12/12
f 13/13/13 12/12/12 11/11/11
f 12/12/12 13/13/13 14/14/14
f 15/15/15 14/14/14 13/13/13
f 14/14/14 15/15/15 16/16/16
f 17/17/17 16/16/16 15/15/15
f 16/16/16 17/17/17 18/18/18
f 19/19/19 18/18/18 17/17/17
f 18/18/18 19/19/19 20/20/20
f 21/21/21 20/20/20 19/19/19
f 20/20/20 21/21/21 22/22/22
f 23/23/23 22/22/22 21/21/21
f 22/22/22 23/23/23 24/24/24
f 25/25/25 24/24/24 23/23/23
f 24/24/24 25/25/25 26/26/26
f 27/27/27 26/26/26 25/25/25
f 26/26/26 27/27/27 28/28/28
f 29/29/29 28/28/28 27/27/27
f 28/28/28 29/29/29 30/30/30
f 31/31/31 30/30/30 29/29/29
f 30/30/30 31/31/31 32/32/32
f 33/33/33 32/32/32 31/31/31
f 32/32/32 33/33/33 34/34/34
f 35/35/35 34/34/34 33/33/33
f 34/34/34 35/35/35 36/36/36
f 37/37/37 36/36/36 35/35/35
f 36/36/36 37/37/37 38/38/38
f 39/39/39 38/38/38 37/37/37
f 38/38/38 39/39/39 40/40/40
f 41/41/41 40/40/40 39/39/39
f 40/40/40 41/41/41 42/42/42
f 43/43/43 42/42/42 41/41/41
f 42/42/42 43/43/43 44/44/44
f 45/45/45 44/44/44 43/43/43
f 44/44/44 45/45/45 46/46/46
f 47/47/47 46/46/46 45/45/45
f 46/46/46 47/47/47 48/48/48
f 49/49/49 48/48/48 47/47/47
f 48/48/48 49/49/49 50/50/50
f 51/51/51 50/50/50 49/49/49
f 50/50/50 51/51/51 52/52/52
f 53/53/53 52/52/52 51/51/51
f 52/52/52 53/53/53 54/54/54
f 55/55/55 54/54/54 53/53/53
f 54/54/54 55/55/55 56/56/56
f 57/57/57 56/56/56 55/55/55
f 56/56/56 57/57/57 58/58/58
f 59/59/59 58/58/58 57/57/57
f 58/58/58 59/59/59 60/60/60
f 61/61/61 60/60/60 59/59/59
f 60/60/60 61/61/61 62/62/62
f 63/63/63 62/62/62 61/61/61
f 62/62/62 63/63/63 64/64/64
f 65/65/65 64/64/64 63/63/63
f 64/64/64 65/65/65 66/66/66
f 67/67/67 66/66/66 65/65/65
f 66/66/66 67/67/67 68/68/68
f 69/69/69 68/68/68 67/67/67
f 68/68/68 69/69/69 70/70/70
f 71/71/71 70/70/70 69/69/69
f 70/70/70 71/71/71 72/72/72
f 73/73/73 72/72/72 71/71/71
f 72/72/72 73/73/73 74/74/74
f 75/75/75 74/74/74 73/73/73
f 74/74/74 75/75/75 76/76/76
f 77/77/77 76/76/76 75/75/75
f 76/76/76 77/77/77 78/78/78
f 79/79/79 78/78/78 77/77/77
f 78/78/78 79/79/79 80/80/80
f 81/81/81 80/80/80 79/79/79
f 80/80/80 81/81/81 82/82/82
f 83/83/83 82/82/82 81/81/81
f 82/82/82 83/83/83 84/84/84
f 85/85/85 84/84/84 83/83/83
f 84/84/84 85/85/85 86/86/86
f 87/87/87 86/86/86 85/85/85
f 86/86/86 87/87/87 88/88/88
f 89/89/89 88/88/88 87/87/87
f 88/88/88 89/89/89 90/90/90
f 91/91/91 90/90/90 89/89/89
f 90/90/90 91/91/91 92/92/92
f 93/93/93 92/92/92 91/91/91
f 92/92/92 93/93/93 94/94/94
f 95/95/95 94/94/94 93/93/93
f 94/94/94 95/95/95 96/96/96
f 97/97/97 96/96/96 95/95/95
f 96/96/96 97/97/97 98/98/98
f 99/99/99 98/98/98 97/97/97
f 98/98/98 99/99/99 100/100/100
f 101/101/101 100/100/100 99/99/99
f 100/100/100 101/101/101 102/102/102
f 103/103/103 102/102/102 101/101/101
f 102/102/102 103/103/103 104/104/104
f 105/105/105 104/104/104 103/103/103
f 104/104/104 105/105/105 106/106/106
f 107/107/107 106/106/106 105/105/105
f 106/106/106 107/107/107 108/108/108
f 109/109/109 108/108/108 107/107/107
f 108/108/108 109/109/109 110/110/110
f 111/111/111 110/110/110 109/109/109
f 110/110/110 111/111/111 112/112/112
f 113/113/113 112/112/112 111/111/111
f 112/112/112 113/113/113 114/114/114
f 115/115/115 114/114/114 113/113/113
f 114/114/114 115/115/115 116/116/116
f 117/117/117 116/116/116 115/115/115
f 116/116/116 117/117/117 118/118/118
f 119/119/119 118/118/118 117/117/117
f 118/118/118 119/119/119 120/120/120
f 121/121/121 120/120/120 119/119/119
f 120/120/120 121/121/121 122/122/122
f 123/123/123 122/122/122 121/121/121
f 122/122/122 123/123/123 124/124/124
f 125/125/125 124/124/124 123/123/123
f 124/124/124 125/125/125 126/126/126
f 127/127/127 126/126/126 125/125/125
f 126/126/126 127/127/127 128/128/128
f 129/129/129 128/128/128 127/127/127
f 128/128/128 129/129/129 130/130/130
f 131/131/131 130/130/130 129/129/129
f 130/130/130 131/131/131 132/132/132
f 133/133/133 132/132/132 131/131/131
f 132/132/132 133/133/133 134/134/134
f 135/135/135 134/134/134 133/133/133
f 134/134/134 135/135/135 136/136/136
f 137/137/137 136/136/136 135/135/135
f 136/136/136 137/137/137 138/138/138
f 139/139/139 138/138/138 137/137/137
f 138/138/138 139/139/139 140/140/140
f 141/141/141 140/140/140 139/139/139
f 140/140/140 141/141/141 142/142/142
f 143/143/143 142/142/142 141/141/141
f 142/142/142 143/143/143 144/144/144
f 145/145/145 144/144/144 143/143/143
f 144/144/144 145/145/145 146/146/146
f 147/147/147 146/146/146 145/145/145
f 146/146/146 147/147/147 148/148/148
f 149/149/149 148/148/148 147/147/147
f 148/148/148 149/149/149 150/150/150
f 151/151/151 150/150/150 149/149/149
f 150/150/150 151/151/151 152/152/152
f 153/153/153 152/152/152 151/151/151
f 152/152/152 153/153/153 154/154/154
f 155/155/155 154/154/154 153/153/153
f 154/154/154 155/155/155 156/156/156
f 157/157/157 156/156/156 155/155/155
f 156/156/156 157/157/157 158/158/158
f 159/159/159 158/158/158 157/157/157
f 158/158/158 159/159/159 160/160/160
f 161/161/161 160/160/160 159/159/159
f 160/160/160 161/161/161 162/162/162
f 163/163/163 162/162/162 161/161/161
f 162/162/162 163/163/163 164/164/164
f 165/165/165 164/164/164 163/163/163
f 164/164/164 165/165/165 166/166/166
f 167/167/167 166/166/166 165/165/165
f 166/166/166 167/167/167 168/168/168
f 169/169/169 168/168/168 167/167/167
f 168/168/168 169/169/169 170/170/170
f 171/171/171 170/170/170 169/169/169
f 170/170/170 171/171/171 172/172/172
f 173/173/173 172/172/172 171/171/171
f 172/172/172 173/173/173 174/174/174
f 175/175/175 174/174/174 173/173/173
f 174/174/174 175/175/175 176/176/176
f 177/177/177 176/176/176 175/175/175
f 176/176/176 177/177/177 178/178/178
f 179/179/179 178/178/178 177/177/177
f 178/178/178 179/179/179 180/180/180
f 181/181/181 180/180/180 179/179/179
f 180/180/180 181/181/181 182/182/182
f 183/183/183 182/182/182 181/181/181
f 182/182/182 183/183/183 184/184/184
f 185/185/185 184/184/184 183/183/183
f 184/184/184 185/185/185 186/186/186
f 187/187/187 186/186/186 185/185/185
f 186/186/186 187/187/187 188/188/188
f 189/189/189 188/188/188 187/187/187
f 188/188/188 189/189/189 190/190/190
f 191/191/191 190/190/190 189/189/189
f 190/190/190 191/191/191 192/192/192
f 193/193/193 192/192/192 191/191/191
f 192/192/192 193/193/193 194/194/194
f 195/195/195 194/194/194 193/193/193
f 194/194/194 195/195/195 196/196/196
f 197/197/197 196/196/196 195/195/195
f 196/196/196 197/197/197 198/198/198
f 199/199/199 198/198/198 197/197/197
f 198/198/198 199/199/199 200/200/200
f 201/201/201 200/200/200 199/199/199
f 200/200/200 201/201/201 202/202/202
f 203/203/203 202/202/202 201/201/201
f 202/202/202 203/203/203 204/204/204
f 205/205/205 204/204/204 203/203/203
f 204/204/204 205/205/205 206/206/206
f 207/207/207 206/206/206 205/205/205
f 206/206/206 207/207/207 208/208/208
f 209/209/209 208/208/208 207/207/207
f 208/208/208 209/209/209 210/210/210
f 211/211/211 210/210/210 209/209/209
f 210/210/210 211/211/211 212/212/212
f 213/213/213 212/212/212 211/211/211
f 212/212/212 213/213/213 214/214/214
f 215/215/215 214/214/214 213/213/213
f 214/214/214 215/215/215 216/216/216
f 217/217/217 216/216/216 215/215/215
f 216/216/216 217/217/217 218/218/218
f 219/219/219 218/218/218 217/217/217
f 218/218/218 219/219/219 220/220/220
f 221/221/221 220/220/220 219/219/219
f 220/220/220 221/221/221 222/222/222
f 223/223/223 222/222/222 221/221/221
f 222/222/222 223/223/223 224/224/224
f 225/225/225 224/224/224 223/223/223
f 224/224/224 225/225/225 226/226/226
f 227/227/227 226/226/226 225/225/225
f 226/226/226 227/227/227 228/228/228
f 229/229/229 228/228/228 227/227/227
f 228/228/228 229/229/229 230/230/230
f 231/231/231 230/230/230 229/229/229
f 230/230/230 231/231/231 232/232/232
f 233/233/233 232/232/232 231/231/231
f 232/232/232 233/233/233 234/234/234
f 235/235/235 234/234/234 233/233/233
f 234/234/234 235/235/235 236/236/236
f 237/237/237 236/236/236 235/235/235
f 236/236/236 237/237/237 238/238/238
f 239/239/239 238/238/238 237/237/237
f 238/238/238 239/239/239 240/240/240
f 241/241/241 240/240/240 239/239/239
f 240/240/240 241/241/241 242/242/242
f 243/243/243 242/242/242 241/241/241
f 242/242/242 243/243/243 244/244/244
f 245/245/245 244/244/244 243/243/243
f 244/244/244 245/245/245 246/246/246
f 247/247/247 246/246/246 245/245/245
f 246/246/246 247/247/247 248/248/248
f 249/249/249 248/248/248 247/247/247
f 248/248/248 249/249/249 250/250/250
f 251/251/251 250/250/250 249/249/249
f 250/250/250 251/251/251 252/252/252
f 253/253/253 252/252/252 251/251/251
f 252/252/252 253/253/253 254/254/254
f 255/255/255 254/254/254 253/253/253
f 254/254/254 255/255/255 256/256/256
f 257/257/257 256/256/256 255/255/255
f 256/256/256 257/257/257 258/258/258
f 259/259/259 258/258/258 257/257/257
f 258/258/258 259/259/259 260/260/260
f 261/261/261 260/260/260 259/259/259
f 260/260/260 261/261/261 262/262/262
f 263/263/263 262/262/262 261/261/261
f 262/262/262 263/263/263 264/264/264
f 265/265/265 264/264/264 263/263/263
f 264/264/264 265/265/265 266/266/266
f 267/267/267 266/266/266 265/265/265
f 266/266/266 267/267/267 268/268/268
f 269/269/269 268/268/268 267/267/267
f 268/268/268 269/269/269 270/270/270
f 271/271/271 270/270/270 269/269/269
f 270/270/270 271/271/271 272/272/272
f 273/273/273 272/272/272 271/271/271
f 272/272/272 273/273/273 274/274/274
f 275/275/275 274/274/274 273/273/273
f 274/274/274 275/275/275 276/276/276
f 277/277/277 276/276/276 275/275/275
f 276/276/276 277/277/277 278/278/278
f 279/279/279 278/278/278 277/277/277
f 278/278/278 279/279/279 280/280/280
f 281/281/281 280/280/280 279/279/279
f 280/280/280 281/281/281 282/282/282
f 283/283/283 282/282/282 281/281/281
f 282/282/282 283/283/283 284/284/284
f 285/285/285 284/284/284 283/283/283
f 284/284/284 285/285/285 286/286/286
f 287/287/287 286/286/286 285/285/285
f 286/286/286 287/287/287 288/288/288
f 289/289/289 288/288/288 287/287/287
f 288/288/288 289/289/289 290/290/290
f 291/291/291 290/290/290 289/289/289
f 290/290/290 291/291/291 292/292/292
f 293/293/293 292/292/292 291/291/291
f 292/292/292 293/293/293 294/294/294
f 295/295/295 294/294/294 293/293/293
f 294/294/294 295/295/295 296/296/296
f 297/297/297 296/296/296 295/295/295
f 296/296/296 297/297/297 298/298/298
f 299/299/299 298/298/298 297/297/297
f 298/298/298 299/299/299 300/300/300
f 301/301/301 300/300/300 299/299/299
f 300/300/300 301/301/301 302/302/302
f 303/303/303 302/302/302 301/301/301
f 302/302/302 303/303/303 304/304/304
f 305/305/305 304/304/304 303/303/303
f 304/304/304 305/305/305 306/306/306
f 307/307/307 306/306/306 305/305/305
f 306/306/306 307/307/307 308/308/308
f 309/309/309 308/308/308 307/307/307
f 308/308/308 309/309/309 310/310/310
f 311/311/311 310/310/310 309/309/309
f 310/310/310 311/311/311 312/312/312
f 313/313/313 312/312/312 311/311/311
f 312/312/312 313/313/313 314/314/314
f 315/315/315 314/314/314 313/313/313
f 314/314/314 315/315/315 316/316/316
f 317/317/317 316/316/316 315/315/315
f 316/316/316 317/317/317 318/318/318
f 319/319/319 318/318/318 317/317/317
f 318/318/318 319/319/319 320/320/320
f 321/321/321 320/320/320 319/319/319
f 320/320/320 321/321/321 322/322/322
f 323/323/323 322/322/322 321/321/321
f 322/322/322 323/323/323 324/324/324
f 325/325/325 324/324/324 323/323/323
f 324/324/324 325/325/325 326/326/326
f 327/327/327 326/326/326 325/325/325
f 326/326/326 327/327/327 328/328/328
f 329/329/329 328/328/328 327/327/327
f 328/328/328 329/329/329 330/330/330
f 331/331/331 330/330/330 329/329/329
f 330/330/330 331/331/331 332/332/332
f 333/333/333 332/332/332 331/331/331
f 332/332/332 333/333/333 334/334/334
f 335/335/335 334/334/334 333/333/333
f 334/334/334 335/335/335 336/336/336
f 337/337/337 336/336/336 335/335/335
f 336/336/336 337/337/337 338/338/338
f 339/339/339 338/338/338 337/337/337
f 338/338/338 339/339/339 340/340/340
f 341/341/341 340/340/340 339/339/339
f 340/340/340 341/341/341 342/342/342
f 343/343/343 342/342/342 341/341/341
f 342/342/342 343/343/343 344/344/344
f 345/345/345 344/344/344 343/343/343
f 344/344/344 345/345/345 346/346/346
f 347/347/347 346/346/346 345/345/345
f 346/346/346 347/347/347 348/348/348
f 349/349/349 348/348/348 347/347/347
f 348/348/348 349/349/349 350/350/350
f 351/351/351 350/350/350 349/349/349
f 350/350/350 351/351/351 352/352/352
f 353/353/353 352/352/352 351/351/351
f 352/352/352 353/353/353 354/354/354
f 355/355/355 354/354/354 353/353/353
f 354/354/354 355/355/355 356/356/356
f 357/357/357 356/356/356 355/355/355
f 356/356/356 357/357/357 358/358/358
f 359/359/359 358/358/358 357/357/357
f 358/358/358 359/359/359 360/360/360
f 361/361/361 360/360/360 359/359/359
f 360/360/360 361/361/361 362/362/362
f 363/363/363 362/362/362 361/361/361
f 362/362/362 363/363/363 364/364/364
f 365/365/365 364/364/364 363/363/363
f 364/364/364 365/365/365 366/366/366
f 367/367/367 366/366/366 365/365/365
f 369/369/369 368/368/368 367/367/367
f 371/371/371 370/370/370 369/369/369
f 370/370/370 371/371/371 372/372/372
f 373/373/373 372/372/372 371/371/371
f 372/372/372 373/373/373 374/374/374
f 375/375/375 374/374/374 373/373/373
f 374/374/374 375/375/375 376/376/376
f 377/377/377 376/376/376 375/375/375
f 376/376/376 377/377/377 378/378/378
f 379/379/379 378/378/378 377/377/377
f 378/378/378 379/379/379 380/380/380
f 381/381/381 380/380/380 379/379/379
f 380/380/380 381/381/381 382/382/382
f 383/383/383 382/382/382 381/381/381
f 382/382/382 383/383/383 384/384/384
f 385/385/385 384/384/384 383/383/383
f 384/384/384 385/385/385 386/386/386
f 387/387/387 386/386/386 385/385/385
f 386/386/386 387/387/387 388/388/388
f 389/389/389 388/388/388 387/387/387
f 388/388/388 389/389/389 390/390/390
f 391/391/391 390/390/390 389/389/389
f 390/390/390 391/391/391 392/392/392
f 393/393/393 392/392/392 391/391/391
f 392/392/392 393/393/393 394/394/394
f 395/395/395 394/394/394 393/393/393
f 394/394/394 395/395/395 396/396/396
f 397/397/397 396/396/396 395/395/395
f 396/396/396 397/397/397 398/398/398
f 399/399/399 398/398/398 397/397/397
f 398/398/398 399/399/399 400/400/400
f 401/401/401 400/400/400 399/399/399
f 400/400/400 401/401/401 402/402/402
f 403/403/403 402/402/402 401/401/401
f 402/402/402 403/403/403 404/404/404
f 405/405/405 404/404/404 403/403/403
f 404/404/404 405/405/405 406/406/406
f 407/407/407 406/406/406 405/405/405
f 406/406/406 407/407/407 408/408/408
f 409/409/409 408/408/408 407/407/407
f 408/408/408 409/409/409 410/410/410
f 411/411/411 410/410/410 409/409/409
f 410/410/410 411/411/411 412/412/412
f 413/413/413 412/412/412 411/411/411
f 412/412/412 413/413/413 414/414/414
f 415/415/415 414/414/414 413/413/413
f 414/414/414 415/415/415 416/416/416
f 417/417/417 416/416/416 415/415/415
f 416/416/416 417/417/417 418/418/418
f 419/419/419 418/418/418 417/417/417
f 418/418/418 419/419/419 420/420/420
f 421/421/421 420/420/420 419/419/419
f 420/420/420 421/421/421 422/422/422
