g 
v 79.41075 18.6 -96.54799
v 92.393295 18.6 -79.91499
v 70.03328 18.6 -99.56344
v 93.04135 18.6 -70.085976
v 56.754387 18.6 -94.851166
v 85.24561 18.6 -58.34883
v 49.863323 18.6 -89.13215
v 78.02719 18.6 -53.054955
v 42.251934 18.6 -82.71399
v 69.96318 18.6 -47.23427
v 34.74447 18.6 -76.1457
v 61.79947 18.6 -41.558315
v 27.13208 18.6 -69.7083
v 53.75437 18.6 -35.734
v 19.643648 18.6 -63.22413
v 45.709225 18.6 -30.038542
v 13.925329 18.6 -55.53725
v 36.96323 18.6 -26.34324
v 8.808672 18.6 -47.125763
v 27.646717 18.6 -23.333004
v 5.272786 18.6 -42.687065
v 22.527212 18.6 -20.912933
v 0.6474433 18.6 -35.610924
v 14.581253 18.6 -18.027225
v 1.0795946 18.6 -29.716808
v 8.941896 18.6 -19.79501
v 79.41075 18.6 -96.54799
v 79.41075 -11.4 -96.54799
v 70.03328 18.6 -99.56344
v 70.03328 -11.4 -99.56344
v 70.03328 18.6 -99.56344
v 70.03328 -11.4 -99.56344
v 56.754387 18.6 -94.851166
v 56.754387 -11.4 -94.851166
v 56.754387 18.6 -94.851166
v 56.754387 -11.4 -94.851166
v 49.863323 18.6 -89.13215
v 49.863323 -11.4 -89.13215
v 49.863323 18.6 -89.13215
v 49.863323 -11.4 -89.13215
v 42.251934 18.6 -82.71399
v 42.251934 -11.4 -82.71399
v 42.251934 18.6 -82.71399
v 42.251934 -11.4 -82.71399
v 34.74447 18.6 -76.1457
v 34.74447 -11.4 -76.1457
v 34.74447 18.6 -76.1457
v 34.74447 -11.4 -76.1457
v 27.13208 18.6 -69.7083
v 27.13208 -11.4 -69.7083
v 27.13208 18.6 -69.7083
v 27.13208 -11.4 -69.7083
v 19.643648 18.6 -63.22413
v 19.643648 -11.4 -63.22413
v 19.643648 18.6 -63.22413
v 19.643648 -11.4 -63.22413
v 13.925329 18.6 -55.53725
v 13.925329 -11.4 -55.53725
v 13.925329 18.6 -55.53725
v 13.925329 -11.4 -55.53725
v 8.808672 18.6 -47.125763
v 8.808672 -11.4 -47.125763
v 8.808672 18.6 -47.125763
v 8.808672 -11.4 -47.125763
v 5.272786 18.6 -42.687065
v 5.272786 -11.4 -42.687065
v 5.272786 18.6 -42.687065
v 5.272786 -11.4 -42.687065
v 0.6474433 18.6 -35.610924
v 0.6474433 -11.4 -35.610924
v 0.6474433 18.6 -35.610924
v 0.6474433 -11.4 -35.610924
v 1.0795946 18.6 -29.716808
v 1.0795946 -11.4 -29.716808
v 92.393295 18.6 -79.91499
v 92.393295 -11.4 -79.91499
v 93.04135 18.6 -70.085976
v 93.04135 -11.4 -70.085976
v 93.04135 18.6 -70.085976
v 93.04135 -11.4 -70.085976
v 85.24561 18.6 -58.34883
v 85.24561 -11.4 -58.34883
v 85.24561 18.6 -58.34883
v 85.24561 -11.4 -58.34883
v 78.02719 18.6 -53.054955
v 78.02719 -11.4 -53.054955
v 78.02719 18.6 -53.054955
v 78.02719 -11.4 -53.054955
v 69.96318 18.6 -47.23427
v 69.96318 -11.4 -47.23427
v 69.96318 18.6 -47.23427
v 69.96318 -11.4 -47.23427
v 61.79947 18.6 -41.558315
v 61.79947 -11.4 -41.558315
v 61.79947 18.6 -41.558315
v 61.79947 -11.4 -41.558315
v 53.75437 18.6 -35.734
v 53.75437 -11.4 -35.734
v 53.75437 18.6 -35.734
v 53.75437 -11.4 -35.734
v 45.709225 18.6 -30.038542
v 45.709225 -11.4 -30.038542
v 45.709225 18.6 -30.038542
v 45.709225 -11.4 -30.038542
v 36.96323 18.6 -26.34324
v 36.96323 -11.4 -26.34324
v 36.96323 18.6 -26.34324
v 36.96323 -11.4 -26.34324
v 27.646717 18.6 -23.333004
v 27.646717 -11.4 -23.333004
v 27.646717 18.6 -23.333004
v 27.646717 -11.4 -23.333004
v 22.527212 18.6 -20.912933
v 22.527212 -11.4 -20.912933
v 22.527212 18.6 -20.912933
v 22.527212 -11.4 -20.912933
v 14.581253 18.6 -18.027225
v 14.581253 -11.4 -18.027225
v 14.581253 18.6 -18.027225
v 14.581253 -11.4 -18.027225
v 8.941896 18.6 -19.79501
v 8.941896 -11.4 -19.79501
vt 0.00828359 0.14054851
vt 0.0067961924 0.11950117
vt 0.0033347905 0.14906551
vt 0.0006988132 0.11176479
vt -0.009685028 0.15445243
vt -0.012949176 0.108262435
vt -0.01863276 0.15481581
vt -0.021855563 0.10916078
vt -0.028583625 0.15514188
vt -0.031742804 0.1102337
vt -0.038557768 0.15528685
vt -0.041607246 0.111480884
vt -0.048522253 0.15559928
vt -0.05148286 0.11253846
vt -0.058425948 0.15579401
vt -0.061272267 0.11369179
vt -0.06781952 0.15391038
vt -0.07024361 0.11680028
vt -0.07725108 0.15108567
vt -0.07918029 0.1207996
vt -0.08284908 0.15015455
vt -0.08460374 0.12242822
vt -0.09102182 0.1479931
vt -0.0924388 0.1256027
vt -0.094645865 0.14332473
vt -0.09544541 0.13069071
vt 0.00828359 0.14054851
vt 0.00828359 0.14054851
vt 0.0033347905 0.14906551
vt 0.0033347905 0.14906551
vt 0.0033347905 0.14906551
vt 0.0033347905 0.14906551
vt -0.009685028 0.15445243
vt -0.009685028 0.15445243
vt -0.009685028 0.15445243
vt -0.009685028 0.15445243
vt -0.01863276 0.15481581
vt -0.01863276 0.15481581
vt -0.01863276 0.15481581
vt -0.01863276 0.15481581
vt -0.028583625 0.15514188
vt -0.028583625 0.15514188
vt -0.028583625 0.15514188
vt -0.028583625 0.15514188
vt -0.038557768 0.15528685
vt -0.038557768 0.15528685
vt -0.038557768 0.15528685
vt -0.038557768 0.15528685
vt -0.048522253 0.15559928
vt -0.048522253 0.15559928
vt -0.048522253 0.15559928
vt -0.048522253 0.15559928
vt -0.058425948 0.15579401
vt -0.058425948 0.15579401
vt -0.058425948 0.15579401
vt -0.058425948 0.15579401
vt -0.06781952 0.15391038
vt -0.06781952 0.15391038
vt -0.06781952 0.15391038
vt -0.06781952 0.15391038
vt -0.07725108 0.15108567
vt -0.07725108 0.15108567
vt -0.07725108 0.15108567
vt -0.07725108 0.15108567
vt -0.08284908 0.15015455
vt -0.08284908 0.15015455
vt -0.08284908 0.15015455
vt -0.08284908 0.15015455
vt -0.09102182 0.1479931
vt -0.09102182 0.1479931
vt -0.09102182 0.1479931
vt -0.09102182 0.1479931
vt -0.094645865 0.14332473
vt -0.094645865 0.14332473
vt 0.0067961924 0.11950117
vt 0.0067961924 0.11950117
vt 0.0006988132 0.11176479
vt 0.0006988132 0.11176479
vt 0.0006988132 0.11176479
vt 0.0006988132 0.11176479
vt -0.012949176 0.108262435
vt -0.012949176 0.108262435
vt -0.012949176 0.108262435
vt -0.012949176 0.108262435
vt -0.021855563 0.10916078
vt -0.021855563 0.10916078
vt -0.021855563 0.10916078
vt -0.021855563 0.10916078
vt -0.031742804 0.1102337
vt -0.031742804 0.1102337
vt -0.031742804 0.1102337
vt -0.031742804 0.1102337
vt -0.041607246 0.111480884
vt -0.041607246 0.111480884
vt -0.041607246 0.111480884
vt -0.041607246 0.111480884
vt -0.05148286 0.11253846
vt -0.05148286 0.11253846
vt -0.05148286 0.11253846
vt -0.05148286 0.11253846
vt -0.061272267 0.11369179
vt -0.061272267 0.11369179
vt -0.061272267 0.11369179
vt -0.061272267 0.11369179
vt -0.07024361 0.11680028
vt -0.07024361 0.11680028
vt -0.07024361 0.11680028
vt -0.07024361 0.11680028
vt -0.07918029 0.1207996
vt -0.07918029 0.1207996
vt -0.07918029 0.1207996
vt -0.07918029 0.1207996
vt -0.08460374 0.12242822
vt -0.08460374 0.12242822
vt -0.08460374 0.12242822
vt -0.08460374 0.12242822
vt -0.0924388 0.1256027
vt -0.0924388 0.1256027
vt -0.0924388 0.1256027
vt -0.0924388 0.1256027
vt -0.09544541 0.13069071
vt -0.09544541 0.13069071
vn -0 1 0
vn -0 1 0
vn -0 1 0
vn -0 1 0
vn -0 1 0
vn -0 1 0
vn -0 1 0
vn -0 1 0
vn -0 1 0
vn -0 1 0
vn -0 1 0
vn -0 1 0
vn -0 1 0
vn -0 1 0
vn -0 1 0
vn -0 1 0
vn -0 1 0
vn -0 1 0
vn -0 1 0
vn -0 1 0
vn -0 1 0
vn -0 1 0
vn -0 1 0
vn -0 1 0
vn -0 1 0
vn -0 1 0
vn 0.78829986 0 -0.6152913
vn 0.78829986 -0 -0.6152913
vn 0.3061253 -0 -0.9519912
vn 0.3061253 -0 -0.9519912
vn -0.33443555 0 -0.94241863
vn -0.33443555 0 -0.94241863
vn -0.33443555 0 -0.94241863
vn -0.33443555 0 -0.94241863
vn -0.638632 0 -0.76951224
vn -0.638632 0 -0.76951224
vn -0.638632 0 -0.76951224
vn -0.638632 0 -0.76951224
vn -0.64463913 0 -0.76448697
vn -0.64463913 0 -0.76448697
vn -0.64463913 0 -0.76448697
vn -0.64463913 0 -0.76448697
vn -0.6584625 0 -0.75261354
vn -0.6584625 0 -0.75261354
vn -0.6584625 0 -0.75261354
vn -0.6584625 0 -0.75261354
vn -0.6457171 0 -0.76357675
vn -0.6457171 0 -0.76357675
vn -0.6457171 0 -0.76357675
vn -0.6457171 0 -0.76357675
vn -0.6545958 0 -0.75597906
vn -0.6545958 0 -0.75597906
vn -0.6545958 0 -0.75597906
vn -0.6545958 0 -0.75597906
vn -0.8023406 0 -0.59686637
vn -0.8023406 0 -0.59686637
vn -0.8023406 0 -0.59686637
vn -0.8023406 0 -0.59686637
vn -0.854351 0 -0.51969653
vn -0.854351 0 -0.51969653
vn -0.854351 0 -0.51969653
vn -0.854351 0 -0.51969653
vn -0.7821627 0 -0.6230742
vn -0.7821627 0 -0.6230742
vn -0.7821627 0 -0.6230742
vn -0.7821627 0 -0.6230742
vn -0.8370436 0 -0.54713625
vn -0.8370436 0 -0.54713625
vn -0.8370436 0 -0.54713625
vn -0.8370436 0 -0.54713625
vn -0.9973229 -0 0.07312284
vn -0.9973229 0 0.07312284
vn -0.7837557 -0 0.62106925
vn -0.7837557 0 0.62106925
vn 0.78829986 -0 -0.6152913
vn 0.78829986 -0 -0.6152913
vn 0.9978335 -0 -0.065790094
vn 0.9978335 -0 -0.065790094
vn 0.8329998 0 0.5532733
vn 0.8329998 0 0.5532733
vn 0.8329998 0 0.5532733
vn 0.8329998 0 0.5532733
vn 0.5913904 0 0.80638546
vn 0.5913904 0 0.80638546
vn 0.5913904 0 0.80638546
vn 0.5913904 0 0.80638546
vn 0.58527106 0 0.81083775
vn 0.58527106 0 0.81083775
vn 0.58527106 0 0.81083775
vn 0.58527106 0 0.81083775
vn 0.57085097 0 0.82105374
vn 0.57085097 0 0.82105374
vn 0.57085097 0 0.82105374
vn 0.57085097 0 0.82105374
vn 0.5864143 0 0.81001127
vn 0.5864143 0 0.81001127
vn 0.5864143 0 0.81001127
vn 0.5864143 0 0.81001127
vn 0.57780206 0 0.8161769
vn 0.57780206 0 0.8161769
vn 0.57780206 0 0.8161769
vn 0.57780206 0 0.8161769
vn 0.38919976 0 0.9211533
vn 0.38919976 0 0.9211533
vn 0.38919976 0 0.9211533
vn 0.38919976 0 0.9211533
vn 0.30745694 0 0.9515619
vn 0.30745694 0 0.9515619
vn 0.30745694 0 0.9515619
vn 0.30745694 0 0.9515619
vn 0.4273711 0 0.9040763
vn 0.4273711 0 0.9040763
vn 0.4273711 0 0.9040763
vn 0.4273711 0 0.9040763
vn 0.34135315 0 0.93993515
vn 0.34135315 0 0.93993515
vn 0.34135315 0 0.93993515
vn 0.34135315 0 0.93993515
vn -0.29912043 -0 0.95421535
vn -0.29912043 0 0.95421535
vn -0.7837557 0 0.62106925
vn -0.7837557 0 0.62106925
g _0
f 3/3/3 2/2/2 1/1/1
f 2/2/2 3/3/3 4/4/4
f 5/5/5 4/4/4 3/3/3
f 4/4/4 5/5/5 6/6/6
f 7/7/7 6/6/6 5/5/5
f 6/6/6 7/7/7 8/8/8
f 9/9/9 8/8/8 7/7/7
f 8/8/8 9/9/9 10/10/10
f 11/11/11 10/10/10 9/9/9
f 10/10/10 11/11/11 12/12/12
f 13/13/13 12/12/12 11/11/11
f 12/12/12 13/13/13 14/14/14
f 15/15/15 14/14/14 13/13/13
f 14/14/14 15/15/15 16/16/16
f 17/17/17 16/16/16 15/15/15
f 16/16/16 17/17/17 18/18/18
f 19/19/19 18/18/18 17/17/17
f 18/18/18 19/19/19 20/20/20
f 21/21/21 20/20/20 19/19/19
f 20/20/20 21/21/21 22/22/22
f 23/23/23 22/22/22 21/21/21
f 22/22/22 23/23/23 24/24/24
f 25/25/25 24/24/24 23/23/23
f 24/24/24 25/25/25 26/26/26
g _1
f 27/27/27 28/28/28 29/29/29
f 30/30/30 29/29/29 28/28/28
f 31/31/31 32/32/32 33/33/33
f 34/34/34 33/33/33 32/32/32
f 35/35/35 36/36/36 37/37/37
f 38/38/38 37/37/37 36/36/36
f 39/39/39 40/40/40 41/41/41
f 42/42/42 41/41/41 40/40/40
f 43/43/43 44/44/44 45/45/45
f 46/46/46 45/45/45 44/44/44
f 47/47/47 48/48/48 49/49/49
f 50/50/50 49/49/49 48/48/48
f 51/51/51 52/52/52 53/53/53
f 54/54/54 53/53/53 52/52/52
f 55/55/55 56/56/56 57/57/57
f 58/58/58 57/57/57 56/56/56
f 59/59/59 60/60/60 61/61/61
f 62/62/62 61/61/61 60/60/60
f 63/63/63 64/64/64 65/65/65
f 66/66/66 65/65/65 64/64/64
f 67/67/67 68/68/68 69/69/69
f 70/70/70 69/69/69 68/68/68
f 71/71/71 72/72/72 73/73/73
f 74/74/74 73/73/73 72/72/72
f 77/77/77 76/76/76 75/75/75
f 76/76/76 77/77/77 78/78/78
f 81/81/81 80/80/80 79/79/79
f 80/80/80 81/81/81 82/82/82
f 85/85/85 84/84/84 83/83/83
f 84/84/84 85/85/85 86/86/86
f 89/89/89 88/88/88 87/87/87
f 88/88/88 89/89/89 90/90/90
f 93/93/93 92/92/92 91/91/91
f 92/92/92 93/93/93 94/94/94
f 97/97/97 96/96/96 95/95/95
f 96/96/96 97/97/97 98/98/98
f 101/101/101 100/100/100 99/99/99
f 100/100/100 101/101/101 102/102/102
f 105/105/105 104/104/104 103/103/103
f 104/104/104 105/105/105 106/106/106
f 109/109/109 108/108/108 107/107/107
f 108/108/108 109/109/109 110/110/110
f 113/113/113 112/112/112 111/111/111
f 112/112/112 113/113/113 114/114/114
f 117/117/117 116/116/116 115/115/115
f 116/116/116 117/117/117 118/118/118
f 121/121/121 120/120/120 119/119/119
f 120/120/120 121/121/121 122/122/122
f 75/75/75 28/28/28 27/27/27
f 28/28/28 75/75/75 76/76/76
f 73/73/73 74/74/74 121/121/121
f 122/122/122 121/121/121 74/74/74
