g 
v 41.191414 17.6 -71.051895
v 46.747627 17.6 -75.104095
v 40.10941 17.6 -68.02928
v 49.956318 17.6 -75.21068
v 41.50322 17.6 -63.65359
v 53.69678 17.6 -72.54641
v 46.61849 17.6 -56.6399
v 58.86252 17.6 -65.4631
v 52.026917 17.6 -49.067924
v 64.724045 17.6 -57.225616
v 56.527718 17.6 -41.29778
v 70.112816 17.6 -47.871223
v 59.53797 17.6 -33.73537
v 74.12472 17.6 -37.60732
v 60.667843 17.6 -25.656878
v 75.71586 17.6 -26.806818
v 60.92003 17.649496 -18.673256
v 75.60423 17.649496 -15.22316
v 58.355415 17.756565 -13.8375435
v 69.94079 17.756565 -4.204383
v 52.620205 17.852137 -9.448079
v 61.079037 17.852137 3.0022855
v 45.35778 17.9 -5.2874603
v 52.312065 17.9 8.053217
v 37.217396 17.9 -1.4629984
v 43.5553 17.9 12.181292
v 27.048214 17.9 3.477529
v 36.62545 17.9 15.079782
v 20.267227 17.9 12.447303
v 32.143063 17.9 21.683119
v 16.347504 17.9 17.91726
v 23.668339 17.9 31.06036
v 12.843871 17.9 18.14862
v 9.388887 17.9 32.79098
v 9.565414 17.9 15.859329
v -2.020304 17.9 25.456558
v 6.943174 17.9 9.025258
v -6.6967363 17.9 15.372585
v 1.7633967 17.9 -0.85021925
v -9.704448 17.9 8.887554
v -6.322283 17.9 -6.994675
v -17.221329 17.9 3.3757873
v -10.554376 17.9 -13.456621
v -23.726864 17.9 -6.1887965
v -14.1473675 17.9 -21.566872
v -28.116606 17.9 -15.981529
v -17.347654 17.9 -30.584284
v -31.538717 17.9 -25.589344
v -18.278414 17.9 -33.322174
v -32.521584 17.9 -28.477825
v -21.047405 17.9 -36.967678
v -32.54948 17.9 -33.055626
v -24.132612 17.9 -37.818462
v -30.622782 17.9 -35.611042
v 41.191414 17.6 -71.051895
v 41.191414 -12.4 -71.051895
v 40.10941 17.6 -68.02928
v 40.10941 -12.4 -68.02928
v 40.10941 17.6 -68.02928
v 40.10941 -12.4 -68.02928
v 41.50322 17.6 -63.65359
v 41.50322 -12.4 -63.65359
v 41.50322 17.6 -63.65359
v 41.50322 -12.4 -63.65359
v 46.61849 17.6 -56.6399
v 46.61849 -12.4 -56.6399
v 46.61849 17.6 -56.6399
v 46.61849 -12.4 -56.6399
v 52.026917 17.6 -49.067924
v 52.026917 -12.4 -49.067924
v 52.026917 17.6 -49.067924
v 52.026917 -12.4 -49.067924
v 56.527718 17.6 -41.29778
v 56.527718 -12.4 -41.29778
v 56.527718 17.6 -41.29778
v 56.527718 -12.4 -41.29778
v 59.53797 17.6 -33.73537
v 59.53797 -12.4 -33.73537
v 59.53797 17.6 -33.73537
v 59.53797 -12.4 -33.73537
v 60.667843 17.6 -25.656878
v 60.667843 -12.4 -25.656878
v 60.667843 17.6 -25.656878
v 60.667843 -12.4 -25.656878
v 60.92003 17.649496 -18.673256
v 60.92003 -12.350504 -18.673256
v 60.92003 17.649496 -18.673256
v 60.92003 -12.350504 -18.673256
v 58.355415 17.756565 -13.8375435
v 58.355415 -12.243435 -13.8375435
v 58.355415 17.756565 -13.8375435
v 58.355415 -12.243435 -13.8375435
v 52.620205 17.852137 -9.448079
v 52.620205 -12.147863 -9.448079
v 52.620205 17.852137 -9.448079
v 52.620205 -12.147863 -9.448079
v 45.35778 17.9 -5.2874603
v 45.35778 -12.1 -5.2874603
v 45.35778 17.9 -5.2874603
v 45.35778 -12.1 -5.2874603
v 37.217396 17.9 -1.4629984
v 37.217396 -12.1 -1.4629984
v 37.217396 17.9 -1.4629984
v 37.217396 -12.1 -1.4629984
v 27.048214 17.9 3.477529
v 27.048214 -12.1 3.477529
v 27.048214 17.9 3.477529
v 27.048214 -12.1 3.477529
v 20.267227 17.9 12.447303
v 20.267227 -12.1 12.447303
v 20.267227 17.9 12.447303
v 20.267227 -12.1 12.447303
v 16.347504 17.9 17.91726
v 16.347504 -12.1 17.91726
v 16.347504 17.9 17.91726
v 16.347504 -12.1 17.91726
v 12.843871 17.9 18.14862
v 12.843871 -12.1 18.14862
v 12.843871 17.9 18.14862
v 12.843871 -12.1 18.14862
v 9.565414 17.9 15.859329
v 9.565414 -12.1 15.859329
v 9.565414 17.9 15.859329
v 9.565414 -12.1 15.859329
v 6.943174 17.9 9.025258
v 6.943174 -12.1 9.025258
v 6.943174 17.9 9.025258
v 6.943174 -12.1 9.025258
v 1.7633967 17.9 -0.85021925
v 1.7633967 -12.1 -0.85021925
v 1.7633967 17.9 -0.85021925
v 1.7633967 -12.1 -0.85021925
v -6.322283 17.9 -6.994675
v -6.322283 -12.1 -6.994675
v -6.322283 17.9 -6.994675
v -6.322283 -12.1 -6.994675
v -10.554376 17.9 -13.456621
v -10.554376 -12.1 -13.456621
v -10.554376 17.9 -13.456621
v -10.554376 -12.1 -13.456621
v -14.1473675 17.9 -21.566872
v -14.1473675 -12.1 -21.566872
v -14.1473675 17.9 -21.566872
v -14.1473675 -12.1 -21.566872
v -17.347654 17.9 -30.584284
v -17.347654 -12.1 -30.584284
v -17.347654 17.9 -30.584284
v -17.347654 -12.1 -30.584284
v -18.278414 17.9 -33.322174
v -18.278414 -12.1 -33.322174
v -18.278414 17.9 -33.322174
v -18.278414 -12.1 -33.322174
v -21.047405 17.9 -36.967678
v -21.047405 -12.1 -36.967678
v -21.047405 17.9 -36.967678
v -21.047405 -12.1 -36.967678
v -24.132612 17.9 -37.818462
v -24.132612 -12.1 -37.818462
v 46.747627 17.6 -75.104095
v 46.747627 -12.4 -75.104095
v 49.956318 17.6 -75.21068
v 49.956318 -12.4 -75.21068
v 49.956318 17.6 -75.21068
v 49.956318 -12.4 -75.21068
v 53.69678 17.6 -72.54641
v 53.69678 -12.4 -72.54641
v 53.69678 17.6 -72.54641
v 53.69678 -12.4 -72.54641
v 58.86252 17.6 -65.4631
v 58.86252 -12.4 -65.4631
v 58.86252 17.6 -65.4631
v 58.86252 -12.4 -65.4631
v 64.724045 17.6 -57.225616
v 64.724045 -12.4 -57.225616
v 64.724045 17.6 -57.225616
v 64.724045 -12.4 -57.225616
v 70.112816 17.6 -47.871223
v 70.112816 -12.4 -47.871223
v 70.112816 17.6 -47.871223
v 70.112816 -12.4 -47.871223
v 74.12472 17.6 -37.60732
v 74.12472 -12.4 -37.60732
v 74.12472 17.6 -37.60732
v 74.12472 -12.4 -37.60732
v 75.71586 17.6 -26.806818
v 75.71586 -12.4 -26.806818
v 75.71586 17.6 -26.806818
v 75.71586 -12.4 -26.806818
v 75.60423 17.649496 -15.22316
v 75.60423 -12.350504 -15.22316
v 75.60423 17.649496 -15.22316
v 75.60423 -12.350504 -15.22316
v 69.94079 17.756565 -4.204383
v 69.94079 -12.243435 -4.204383
v 69.94079 17.756565 -4.204383
v 69.94079 -12.243435 -4.204383
v 61.079037 17.852137 3.0022855
v 61.079037 -12.147863 3.0022855
v 61.079037 17.852137 3.0022855
v 61.079037 -12.147863 3.0022855
v 52.312065 17.9 8.053217
v 52.312065 -12.1 8.053217
v 52.312065 17.9 8.053217
v 52.312065 -12.1 8.053217
v 43.5553 17.9 12.181292
v 43.5553 -12.1 12.181292
v 43.5553 17.9 12.181292
v 43.5553 -12.1 12.181292
v 36.62545 17.9 15.079782
v 36.62545 -12.1 15.079782
v 36.62545 17.9 15.079782
v 36.62545 -12.1 15.079782
v 32.143063 17.9 21.683119
v 32.143063 -12.1 21.683119
v 32.143063 17.9 21.683119
v 32.143063 -12.1 21.683119
v 23.668339 17.9 31.06036
v 23.668339 -12.1 31.06036
v 23.668339 17.9 31.06036
v 23.668339 -12.1 31.06036
v 9.388887 17.9 32.79098
v 9.388887 -12.1 32.79098
v 9.388887 17.9 32.79098
v 9.388887 -12.1 32.79098
v -2.020304 17.9 25.456558
v -2.020304 -12.1 25.456558
v -2.020304 17.9 25.456558
v -2.020304 -12.1 25.456558
v -6.6967363 17.9 15.372585
v -6.6967363 -12.1 15.372585
v -6.6967363 17.9 15.372585
v -6.6967363 -12.1 15.372585
v -9.704448 17.9 8.887554
v -9.704448 -12.1 8.887554
v -9.704448 17.9 8.887554
v -9.704448 -12.1 8.887554
v -17.221329 17.9 3.3757873
v -17.221329 -12.1 3.3757873
v -17.221329 17.9 3.3757873
v -17.221329 -12.1 3.3757873
v -23.726864 17.9 -6.1887965
v -23.726864 -12.1 -6.1887965
v -23.726864 17.9 -6.1887965
v -23.726864 -12.1 -6.1887965
v -28.116606 17.9 -15.981529
v -28.116606 -12.1 -15.981529
v -28.116606 17.9 -15.981529
v -28.116606 -12.1 -15.981529
v -31.538717 17.9 -25.589344
v -31.538717 -12.1 -25.589344
v -31.538717 17.9 -25.589344
v -31.538717 -12.1 -25.589344
v -32.521584 17.9 -28.477825
v -32.521584 -12.1 -28.477825
v -32.521584 17.9 -28.477825
v -32.521584 -12.1 -28.477825
v -32.54948 17.9 -33.055626
v -32.54948 -12.1 -33.055626
v -32.54948 17.9 -33.055626
v -32.54948 -12.1 -33.055626
v -30.622782 17.9 -35.611042
v -30.622782 -12.1 -35.611042
vt -0.07214504 0.09487069
vt -0.07885929 0.09338388
vt -0.06994271 0.097206645
vt -0.08184192 0.09457172
vt -0.06946675 0.10177423
vt -0.0842017 0.09851137
vt -0.071343675 0.11024979
vt -0.08609698 0.10707093
vt -0.07326554 0.11935431
vt -0.08816737 0.11696674
vt -0.0742764 0.12827678
vt -0.08935714 0.12769651
vt -0.07400479 0.13641177
vt -0.08892098 0.138708
vt -0.07180355 0.14426626
vt -0.086051844 0.14924131
vt -0.06923676 0.15076597
vt -0.08130882 0.15981
vt -0.06494964 0.15416919
vt -0.0717053 0.16763692
vt -0.05793626 0.15589328
vt -0.0606986 0.17068967
vt -0.049615268 0.15679587
vt -0.050642397 0.17180523
vt -0.04062453 0.15703872
vt -0.04096527 0.17207932
vt -0.029327793 0.15749136
vt -0.03345464 0.17195873
vt -0.019521225 0.16299318
vt -0.026702205 0.1762132
vt -0.013738392 0.16643462
vt -0.0151805235 0.18140978
vt -0.010435532 0.16524293
vt -0.0014037776 0.17727469
vt -0.008348836 0.16183195
vt 0.0061113974 0.16598372
vt -0.008684163 0.15451975
vt 0.006356198 0.15487087
vt -0.007894649 0.14339626
vt 0.00651389 0.14772405
vt -0.0029478732 0.1345271
vt 0.011192983 0.13966247
vt -0.0016591046 0.12691091
vt 0.013321764 0.1282927
vt -0.0016162653 0.11804052
vt 0.013420565 0.11756154
vt -0.0022966736 0.10849627
vt 0.012706868 0.107387476
vt -0.0025407537 0.10561482
vt 0.0124502005 0.10434717
vt -0.0014641882 0.10116532
vt 0.010641759 0.10014163
vt 0.0010217536 0.09914977
vt 0.007852665 0.09857215
vt -0.07214504 0.09487069
vt -0.07214504 0.09487069
vt -0.06994271 0.097206645
vt -0.06994271 0.097206645
vt -0.06994271 0.097206645
vt -0.06994271 0.097206645
vt -0.06946675 0.10177423
vt -0.06946675 0.10177423
vt -0.06946675 0.10177423
vt -0.06946675 0.10177423
vt -0.071343675 0.11024979
vt -0.071343675 0.11024979
vt -0.071343675 0.11024979
vt -0.071343675 0.11024979
vt -0.07326554 0.11935431
vt -0.07326554 0.11935431
vt -0.07326554 0.11935431
vt -0.07326554 0.11935431
vt -0.0742764 0.12827678
vt -0.0742764 0.12827678
vt -0.0742764 0.12827678
vt -0.0742764 0.12827678
vt -0.07400479 0.13641177
vt -0.07400479 0.13641177
vt -0.07400479 0.13641177
vt -0.07400479 0.13641177
vt -0.07180355 0.14426626
vt -0.07180355 0.14426626
vt -0.07180355 0.14426626
vt -0.07180355 0.14426626
vt -0.06923676 0.15076597
vt -0.06923676 0.15076597
vt -0.06923676 0.15076597
vt -0.06923676 0.15076597
vt -0.06494964 0.15416919
vt -0.06494964 0.15416919
vt -0.06494964 0.15416919
vt -0.06494964 0.15416919
vt -0.05793626 0.15589328
vt -0.05793626 0.15589328
vt -0.05793626 0.15589328
vt -0.05793626 0.15589328
vt -0.049615268 0.15679587
vt -0.049615268 0.15679587
vt -0.049615268 0.15679587
vt -0.049615268 0.15679587
vt -0.04062453 0.15703872
vt -0.04062453 0.15703872
vt -0.04062453 0.15703872
vt -0.04062453 0.15703872
vt -0.029327793 0.15749136
vt -0.029327793 0.15749136
vt -0.029327793 0.15749136
vt -0.029327793 0.15749136
vt -0.019521225 0.16299318
vt -0.019521225 0.16299318
vt -0.019521225 0.16299318
vt -0.019521225 0.16299318
vt -0.013738392 0.16643462
vt -0.013738392 0.16643462
vt -0.013738392 0.16643462
vt -0.013738392 0.16643462
vt -0.010435532 0.16524293
vt -0.010435532 0.16524293
vt -0.010435532 0.16524293
vt -0.010435532 0.16524293
vt -0.008348836 0.16183195
vt -0.008348836 0.16183195
vt -0.008348836 0.16183195
vt -0.008348836 0.16183195
vt -0.008684163 0.15451975
vt -0.008684163 0.15451975
vt -0.008684163 0.15451975
vt -0.008684163 0.15451975
vt -0.007894649 0.14339626
vt -0.007894649 0.14339626
vt -0.007894649 0.14339626
vt -0.007894649 0.14339626
vt -0.0029478732 0.1345271
vt -0.0029478732 0.1345271
vt -0.0029478732 0.1345271
vt -0.0029478732 0.1345271
vt -0.0016591046 0.12691091
vt -0.0016591046 0.12691091
vt -0.0016591046 0.12691091
vt -0.0016591046 0.12691091
vt -0.0016162653 0.11804052
vt -0.0016162653 0.11804052
vt -0.0016162653 0.11804052
vt -0.0016162653 0.11804052
vt -0.0022966736 0.10849627
vt -0.0022966736 0.10849627
vt -0.0022966736 0.10849627
vt -0.0022966736 0.10849627
vt -0.0025407537 0.10561482
vt -0.0025407537 0.10561482
vt -0.0025407537 0.10561482
vt -0.0025407537 0.10561482
vt -0.0014641882 0.10116532
vt -0.0014641882 0.10116532
vt -0.0014641882 0.10116532
vt -0.0014641882 0.10116532
vt 0.0010217536 0.09914977
vt 0.0010217536 0.09914977
vt -0.07885929 0.09338388
vt -0.07885929 0.09338388
vt -0.08184192 0.09457172
vt -0.08184192 0.09457172
vt -0.08184192 0.09457172
vt -0.08184192 0.09457172
vt -0.0842017 0.09851137
vt -0.0842017 0.09851137
vt -0.0842017 0.09851137
vt -0.0842017 0.09851137
vt -0.08609698 0.10707093
vt -0.08609698 0.10707093
vt -0.08609698 0.10707093
vt -0.08609698 0.10707093
vt -0.08816737 0.11696674
vt -0.08816737 0.11696674
vt -0.08816737 0.11696674
vt -0.08816737 0.11696674
vt -0.08935714 0.12769651
vt -0.08935714 0.12769651
vt -0.08935714 0.12769651
vt -0.08935714 0.12769651
vt -0.08892098 0.138708
vt -0.08892098 0.138708
vt -0.08892098 0.138708
vt -0.08892098 0.138708
vt -0.086051844 0.14924131
vt -0.086051844 0.14924131
vt -0.086051844 0.14924131
vt -0.086051844 0.14924131
vt -0.08130882 0.15981
vt -0.08130882 0.15981
vt -0.08130882 0.15981
vt -0.08130882 0.15981
vt -0.0717053 0.16763692
vt -0.0717053 0.16763692
vt -0.0717053 0.16763692
vt -0.0717053 0.16763692
vt -0.0606986 0.17068967
vt -0.0606986 0.17068967
vt -0.0606986 0.17068967
vt -0.0606986 0.17068967
vt -0.050642397 0.17180523
vt -0.050642397 0.17180523
vt -0.050642397 0.17180523
vt -0.050642397 0.17180523
vt -0.04096527 0.17207932
vt -0.04096527 0.17207932
vt -0.04096527 0.17207932
vt -0.04096527 0.17207932
vt -0.03345464 0.17195873
vt -0.03345464 0.17195873
vt -0.03345464 0.17195873
vt -0.03345464 0.17195873
vt -0.026702205 0.1762132
vt -0.026702205 0.1762132
vt -0.026702205 0.1762132
vt -0.026702205 0.1762132
vt -0.0151805235 0.18140978
vt -0.0151805235 0.18140978
vt -0.0151805235 0.18140978
vt -0.0151805235 0.18140978
vt -0.0014037776 0.17727469
vt -0.0014037776 0.17727469
vt -0.0014037776 0.17727469
vt -0.0014037776 0.17727469
vt 0.0061113974 0.16598372
vt 0.0061113974 0.16598372
vt 0.0061113974 0.16598372
vt 0.0061113974 0.16598372
vt 0.006356198 0.15487087
vt 0.006356198 0.15487087
vt 0.006356198 0.15487087
vt 0.006356198 0.15487087
vt 0.00651389 0.14772405
vt 0.00651389 0.14772405
vt 0.00651389 0.14772405
vt 0.00651389 0.14772405
vt 0.011192983 0.13966247
vt 0.011192983 0.13966247
vt 0.011192983 0.13966247
vt 0.011192983 0.13966247
vt 0.013321764 0.1282927
vt 0.013321764 0.1282927
vt 0.013321764 0.1282927
vt 0.013321764 0.1282927
vt 0.013420565 0.11756154
vt 0.013420565 0.11756154
vt 0.013420565 0.11756154
vt 0.013420565 0.11756154
vt 0.012706868 0.107387476
vt 0.012706868 0.107387476
vt 0.012706868 0.107387476
vt 0.012706868 0.107387476
vt 0.0124502005 0.10434717
vt 0.0124502005 0.10434717
vt 0.0124502005 0.10434717
vt 0.0124502005 0.10434717
vt 0.010641759 0.10014163
vt 0.010641759 0.10014163
vt 0.010641759 0.10014163
vt 0.010641759 0.10014163
vt 0.007852665 0.09857215
vt 0.007852665 0.09857215
vn -0 1 0
vn -0 1 0
vn -0 1 0
vn -0 1 0
vn -0 1 0
vn -0 1 0
vn -0 1 0
vn -0 1 0
vn -0 1 0
vn -0 1 0
vn -0 1 0
vn -0 1 0
vn -0 1 0
vn -0 1 0
vn -0 1 0
vn -0 1 0
vn -0 1 0
vn -0 1 0
vn -0 1 0
vn -0 1 0
vn -0 1 0
vn -0 1 0
vn -0 1 0
vn -0 1 0
vn -0 1 0
vn -0 1 0
vn -0 1 0
vn -0 1 0
vn -0 1 0
vn -0 1 0
vn -0 1 0
vn -0 1 0
vn -0 1 0
vn -0 1 0
vn -0 1 0
vn -0 1 0
vn -0 1 0
vn -0 1 0
vn -0 1 0
vn -0 1 0
vn -0 1 0
vn -0 1 0
vn -0 1 0
vn -0 1 0
vn -0 1 0
vn -0 1 0
vn -0 1 0
vn -0 1 0
vn -0 1 0
vn -0 1 0
vn -0 1 0
vn -0 1 0
vn -0 1 0
vn -0 1 0
vn -0.5892476 0 -0.8079525
vn -0.5892476 0 -0.8079525
vn -0.941495 0 -0.33702683
vn -0.941495 0 -0.33702683
vn -0.9528285 -0 0.30350915
vn -0.9528285 0 0.30350915
vn -0.9528285 0 0.30350915
vn -0.9528285 0 0.30350915
vn -0.8079461 -0 0.5892563
vn -0.8079461 0 0.5892563
vn -0.8079461 0 0.5892563
vn -0.8079461 0 0.5892563
vn -0.81373984 -0 0.5812292
vn -0.81373984 0 0.5812292
vn -0.81373984 0 0.5812292
vn -0.81373984 0 0.5812292
vn -0.8653154 -0 0.50122774
vn -0.8653154 0 0.50122774
vn -0.8653154 0 0.50122774
vn -0.8653154 0 0.50122774
vn -0.92909855 -0 0.36983225
vn -0.92909855 0 0.36983225
vn -0.92909855 0 0.36983225
vn -0.92909855 0 0.36983225
vn -0.99036056 -0 0.13851346
vn -0.99036056 0 0.13851346
vn -0.99036056 0 0.13851346
vn -0.99036056 0 0.13851346
vn -0.99934864 -0 0.036087517
vn -0.99934864 0 0.036087517
vn -0.99934864 0 0.036087517
vn -0.99934864 0 0.036087517
vn -0.88344544 0 -0.46853405
vn -0.88344544 0 -0.46853405
vn -0.88344544 0 -0.46853405
vn -0.88344544 0 -0.46853405
vn -0.6077747 0 -0.7941095
vn -0.6077747 0 -0.7941095
vn -0.6077747 0 -0.7941095
vn -0.6077747 0 -0.7941095
vn -0.4970989 0 -0.86769384
vn -0.4970989 0 -0.86769384
vn -0.4970989 0 -0.86769384
vn -0.4970989 0 -0.86769384
vn -0.4252228 0 -0.9050887
vn -0.4252228 0 -0.9050887
vn -0.4252228 0 -0.9050887
vn -0.4252228 0 -0.9050887
vn -0.43699062 0 -0.8994661
vn -0.43699062 0 -0.8994661
vn -0.43699062 0 -0.8994661
vn -0.43699062 0 -0.8994661
vn -0.79770374 0 -0.6030495
vn -0.79770374 0 -0.6030495
vn -0.79770374 0 -0.6030495
vn -0.79770374 0 -0.6030495
vn -0.8128461 0 -0.5824785
vn -0.8128461 0 -0.5824785
vn -0.8128461 0 -0.5824785
vn -0.8128461 0 -0.5824785
vn -0.06589121 0 -0.9978268
vn -0.06589121 0 -0.9978268
vn -0.06589121 0 -0.9978268
vn -0.06589121 0 -0.9978268
vn 0.5725173 0 -0.81989264
vn 0.5725173 -0 -0.81989264
vn 0.5725173 -0 -0.81989264
vn 0.5725173 -0 -0.81989264
vn 0.9336313 0 -0.35823533
vn 0.9336313 -0 -0.35823533
vn 0.9336313 -0 -0.35823533
vn 0.9336313 -0 -0.35823533
vn 0.8855767 0 -0.464493
vn 0.8855767 -0 -0.464493
vn 0.8855767 -0 -0.464493
vn 0.8855767 -0 -0.464493
vn 0.60504204 0 -0.7961936
vn 0.60504204 -0 -0.7961936
vn 0.60504204 -0 -0.7961936
vn 0.60504204 -0 -0.7961936
vn 0.83655584 0 -0.54788166
vn 0.83655584 -0 -0.54788166
vn 0.83655584 -0 -0.54788166
vn 0.83655584 -0 -0.54788166
vn 0.9142947 0 -0.4050496
vn 0.9142947 -0 -0.4050496
vn 0.9142947 -0 -0.4050496
vn 0.9142947 -0 -0.4050496
vn 0.9424093 0 -0.3344618
vn 0.9424093 -0 -0.3344618
vn 0.9424093 -0 -0.3344618
vn 0.9424093 -0 -0.3344618
vn 0.94678575 0 -0.32186455
vn 0.94678575 -0 -0.32186455
vn 0.94678575 -0 -0.32186455
vn 0.94678575 -0 -0.32186455
vn 0.7963297 0 -0.6048629
vn 0.7963297 -0 -0.6048629
vn 0.7963297 -0 -0.6048629
vn 0.7963297 -0 -0.6048629
vn 0.26583976 0 -0.9640172
vn 0.26583976 -0 -0.9640172
vn -0.32200247 0 -0.9467388
vn -0.32200247 0 -0.9467388
vn -0.5892476 0 -0.8079525
vn -0.5892476 0 -0.8079525
vn -0.033198554 0 -0.9994488
vn -0.033198554 0 -0.9994488
vn 0.5801576 0 -0.81450427
vn 0.5801576 -0 -0.81450427
vn 0.5801576 -0 -0.81450427
vn 0.5801576 -0 -0.81450427
vn 0.80796295 0 -0.58923334
vn 0.80796295 -0 -0.58923334
vn 0.80796295 -0 -0.58923334
vn 0.80796295 -0 -0.58923334
vn 0.8147795 0 -0.5797709
vn 0.8147795 -0 -0.5797709
vn 0.8147795 -0 -0.5797709
vn 0.8147795 -0 -0.5797709
vn 0.8665059 0 -0.4991668
vn 0.8665059 -0 -0.4991668
vn 0.8665059 -0 -0.4991668
vn 0.8665059 -0 -0.4991668
vn 0.9313785 0 -0.36405239
vn 0.9313785 -0 -0.36405239
vn 0.9313785 -0 -0.36405239
vn 0.9313785 -0 -0.36405239
vn 0.98932177 0 -0.14574789
vn 0.98932177 -0 -0.14574789
vn 0.98932177 -0 -0.14574789
vn 0.98932177 -0 -0.14574789
vn 0.99995357 0 0.0096360305
vn 0.99995357 0 0.0096360305
vn 0.99995357 0 0.0096360305
vn 0.99995357 0 0.0096360305
vn 0.8893979 0 0.45713386
vn 0.8893979 0 0.45713386
vn 0.8893979 0 0.45713386
vn 0.8893979 0 0.45713386
vn 0.63093513 0 0.7758356
vn 0.63093513 0 0.7758356
vn 0.63093513 0 0.7758356
vn 0.63093513 0 0.7758356
vn 0.49920794 0 0.8664822
vn 0.49920794 0 0.8664822
vn 0.49920794 0 0.8664822
vn 0.49920794 0 0.8664822
vn 0.4264096 0 0.90453017
vn 0.4264096 0 0.90453017
vn 0.4264096 0 0.90453017
vn 0.4264096 0 0.90453017
vn 0.38586867 0 0.9225537
vn 0.38586867 0 0.9225537
vn 0.38586867 0 0.9225537
vn 0.38586867 0 0.9225537
vn 0.8273855 0 0.56163454
vn 0.8273855 0 0.56163454
vn 0.8273855 0 0.56163454
vn 0.8273855 0 0.56163454
vn 0.7419075 0 0.67050225
vn 0.7419075 0 0.67050225
vn 0.7419075 0 0.67050225
vn 0.7419075 0 0.67050225
vn 0.12031621 0 0.9927356
vn 0.12031621 0 0.9927356
vn 0.12031621 0 0.9927356
vn 0.12031621 0 0.9927356
vn -0.5407546 -0 0.8411804
vn -0.5407546 0 0.8411804
vn -0.5407546 0 0.8411804
vn -0.5407546 0 0.8411804
vn -0.90719485 -0 0.42071074
vn -0.90719485 0 0.42071074
vn -0.90719485 0 0.42071074
vn -0.90719485 0 0.42071074
vn -0.90717965 -0 0.42074347
vn -0.90717965 0 0.42074347
vn -0.90717965 0 0.42074347
vn -0.90717965 0 0.42074347
vn -0.59132093 -0 0.8064363
vn -0.59132093 0 0.8064363
vn -0.59132093 0 0.8064363
vn -0.59132093 0 0.8064363
vn -0.82686144 -0 0.5624057
vn -0.82686144 0 0.5624057
vn -0.82686144 0 0.5624057
vn -0.82686144 0 0.5624057
vn -0.9125129 -0 0.40904784
vn -0.9125129 0 0.40904784
vn -0.9125129 0 0.40904784
vn -0.9125129 0 0.40904784
vn -0.9420288 -0 0.33553186
vn -0.9420288 0 0.33553186
vn -0.9420288 0 0.33553186
vn -0.9420288 0 0.33553186
vn -0.94669455 -0 0.32213268
vn -0.94669455 0 0.32213268
vn -0.94669455 0 0.32213268
vn -0.94669455 0 0.32213268
vn -0.99998146 -0 0.0060938355
vn -0.99998146 0 0.0060938355
vn -0.99998146 0 0.0060938355
vn -0.99998146 0 0.0060938355
vn -0.7984771 0 -0.60202515
vn -0.7984771 0 -0.60202515
vn -0.32200247 0 -0.9467388
vn -0.32200247 0 -0.9467388
g _0
f 3/3/3 2/2/2 1/1/1
f 2/2/2 3/3/3 4/4/4
f 5/5/5 4/4/4 3/3/3
f 4/4/4 5/5/5 6/6/6
f 7/7/7 6/6/6 5/5/5
f 6/6/6 7/7/7 8/8/8
f 9/9/9 8/8/8 7/7/7
f 8/8/8 9/9/9 10/10/10
f 11/11/11 10/10/10 9/9/9
f 10/10/10 11/11/11 12/12/12
f 13/13/13 12/12/12 11/11/11
f 12/12/12 13/13/13 14/14/14
f 15/15/15 14/14/14 13/13/13
f 14/14/14 15/15/15 16/16/16
f 17/17/17 16/16/16 15/15/15
f 16/16/16 17/17/17 18/18/18
f 19/19/19 18/18/18 17/17/17
f 18/18/18 19/19/19 20/20/20
f 21/21/21 20/20/20 19/19/19
f 20/20/20 21/21/21 22/22/22
f 23/23/23 22/22/22 21/21/21
f 22/22/22 23/23/23 24/24/24
f 25/25/25 24/24/24 23/23/23
f 24/24/24 25/25/25 26/26/26
f 27/27/27 26/26/26 25/25/25
f 26/26/26 27/27/27 28/28/28
f 29/29/29 28/28/28 27/27/27
f 28/28/28 29/29/29 30/30/30
f 31/31/31 30/30/30 29/29/29
f 30/30/30 31/31/31 32/32/32
f 33/33/33 32/32/32 31/31/31
f 32/32/32 33/33/33 34/34/34
f 35/35/35 34/34/34 33/33/33
f 34/34/34 35/35/35 36/36/36
f 37/37/37 36/36/36 35/35/35
f 36/36/36 37/37/37 38/38/38
f 39/39/39 38/38/38 37/37/37
f 38/38/38 39/39/39 40/40/40
f 41/41/41 40/40/40 39/39/39
f 40/40/40 41/41/41 42/42/42
f 43/43/43 42/42/42 41/41/41
f 42/42/42 43/43/43 44/44/44
f 45/45/45 44/44/44 43/43/43
f 44/44/44 45/45/45 46/46/46
f 47/47/47 46/46/46 45/45/45
f 46/46/46 47/47/47 48/48/48
f 49/49/49 48/48/48 47/47/47
f 48/48/48 49/49/49 50/50/50
f 51/51/51 50/50/50 49/49/49
f 50/50/50 51/51/51 52/52/52
f 53/53/53 52/52/52 51/51/51
f 52/52/52 53/53/53 54/54/54
g _1
f 55/55/55 56/56/56 57/57/57
f 58/58/58 57/57/57 56/56/56
f 59/59/59 60/60/60 61/61/61
f 62/62/62 61/61/61 60/60/60
f 63/63/63 64/64/64 65/65/65
f 66/66/66 65/65/65 64/64/64
f 67/67/67 68/68/68 69/69/69
f 70/70/70 69/69/69 68/68/68
f 71/71/71 72/72/72 73/73/73
f 74/74/74 73/73/73 72/72/72
f 75/75/75 76/76/76 77/77/77
f 78/78/78 77/77/77 76/76/76
f 79/79/79 80/80/80 81/81/81
f 82/82/82 81/81/81 80/80/80
f 83/83/83 84/84/84 85/85/85
f 86/86/86 85/85/85 84/84/84
f 87/87/87 88/88/88 89/89/89
f 90/90/90 89/89/89 88/88/88
f 91/91/91 92/92/92 93/93/93
f 94/94/94 93/93/93 92/92/92
f 95/95/95 96/96/96 97/97/97
f 98/98/98 97/97/97 96/96/96
f 99/99/99 100/100/100 101/101/101
f 102/102/102 101/101/101 100/100/100
f 103/103/103 104/104/104 105/105/105
f 106/106/106 105/105/105 104/104/104
f 107/107/107 108/108/108 109/109/109
f 110/110/110 109/109/109 108/108/108
f 111/111/111 112/112/112 113/113/113
f 114/114/114 113/113/113 112/112/112
f 115/115/115 116/116/116 117/117/117
f 118/118/118 117/117/117 116/116/116
f 119/119/119 120/120/120 121/121/121
f 122/122/122 121/121/121 120/120/120
f 123/123/123 124/124/124 125/125/125
f 126/126/126 125/125/125 124/124/124
f 127/127/127 128/128/128 129/129/129
f 130/130/130 129/129/129 128/128/128
f 131/131/131 132/132/132 133/133/133
f 134/134/134 133/133/133 132/132/132
f 135/135/135 136/136/136 137/137/137
f 138/138/138 137/137/137 136/136/136
f 139/139/139 140/140/140 141/141/141
f 142/142/142 141/141/141 140/140/140
f 143/143/143 144/144/144 145/145/145
f 146/146/146 145/145/145 144/144/144
f 147/147/147 148/148/148 149/149/149
f 150/150/150 149/149/149 148/148/148
f 151/151/151 152/152/152 153/153/153
f 154/154/154 153/153/153 152/152/152
f 155/155/155 156/156/156 157/157/157
f 158/158/158 157/157/157 156/156/156
f 161/161/161 160/160/160 159/159/159
f 160/160/160 161/161/161 162/162/162
f 165/165/165 164/164/164 163/163/163
f 164/164/164 165/165/165 166/166/166
f 169/169/169 168/168/168 167/167/167
f 168/168/168 169/169/169 170/170/170
f 173/173/173 172/172/172 171/171/171
f 172/172/172 173/173/173 174/174/174
f 177/177/177 176/176/176 175/175/175
f 176/176/176 177/177/177 178/178/178
f 181/181/181 180/180/180 179/179/179
f 180/180/180 181/181/181 182/182/182
f 185/185/185 184/184/184 183/183/183
f 184/184/184 185/185/185 186/186/186
f 189/189/189 188/188/188 187/187/187
f 188/188/188 189/189/189 190/190/190
f 193/193/193 192/192/192 191/191/191
f 192/192/192 193/193/193 194/194/194
f 197/197/197 196/196/196 195/195/195
f 196/196/196 197/197/197 198/198/198
f 201/201/201 200/200/200 199/199/199
f 200/200/200 201/201/201 202/202/202
f 205/205/205 204/204/204 203/203/203
f 204/204/204 205/205/205 206/206/206
f 209/209/209 208/208/208 207/207/207
f 208/208/208 209/209/209 210/210/210
f 213/213/213 212/212/212 211/211/211
f 212/212/212 213/213/213 214/214/214
f 217/217/217 216/216/216 215/215/215
f 216/216/216 217/217/217 218/218/218
f 221/221/221 220/220/220 219/219/219
f 220/220/220 221/221/221 222/222/222
f 225/225/225 224/224/224 223/223/223
f 224/224/224 225/225/225 226/226/226
f 229/229/229 228/228/228 227/227/227
f 228/228/228 229/229/229 230/230/230
f 233/233/233 232/232/232 231/231/231
f 232/232/232 233/233/233 234/234/234
f 237/237/237 236/236/236 235/235/235
f 236/236/236 237/237/237 238/238/238
f 241/241/241 240/240/240 239/239/239
f 240/240/240 241/241/241 242/242/242
f 245/245/245 244/244/244 243/243/243
f 244/244/244 245/245/245 246/246/246
f 249/249/249 248/248/248 247/247/247
f 248/248/248 249/249/249 250/250/250
f 253/253/253 252/252/252 251/251/251
f 252/252/252 253/253/253 254/254/254
f 257/257/257 256/256/256 255/255/255
f 256/256/256 257/257/257 258/258/258
f 261/261/261 260/260/260 259/259/259
f 260/260/260 261/261/261 262/262/262
f 159/159/159 56/56/56 55/55/55
f 56/56/56 159/159/159 160/160/160
f 157/157/157 158/158/158 261/261/261
f 262/262/262 261/261/261 158/158/158
