g 
v 99.46747 49.75609 55.53763
v 99.46747 35.75609 55.53763
v 103.33483 49.433563 55.104424
v 103.33483 35.433563 55.104424
v 101.089714 48.51011 48.972946
v 101.089714 34.51011 48.972946
v 100.99278 47.031967 42.537243
v 100.99278 33.031967 42.537243
v 95.55905 45.91191 38.778114
v 95.55905 31.911911 38.778114
v 90.69757 46.7769 41.246593
v 90.69757 32.7769 41.246593
v 89.68045 48.103535 46.70928
v 89.68045 34.103535 46.70928
v 87.6545 49.271126 53.99525
v 87.6545 35.271126 53.99525
v 88.86306 49.68779 55.364273
v 88.86306 35.68779 55.364273
v 90.540436 50.853806 51.117203
v 90.540436 36.853806 51.117203
v 91.62425 51.76503 44.091133
v 91.62425 37.76503 44.091133
v 95.63725 51.451653 43.001106
v 95.63725 37.451653 43.001106
v 98.14988 51.83 46.23572
v 98.14988 37.83 46.23572
v 99.624695 50.24242 53.744427
v 99.624695 36.24242 53.744427
v 99.46747 49.75609 55.53763
v 99.46747 35.75609 55.53763
vt -1.0156746 0.4423763
vt -1.0156746 0.4423763
vt -1.0543482 0.43804422
vt -1.0543482 0.43804422
vt -1.0318971 0.37672946
vt -1.0318971 0.37672946
vt -1.0309278 0.31237242
vt -1.0309278 0.31237242
vt -0.97659045 0.27478114
vt -0.97659045 0.27478114
vt -0.92797565 0.29946592
vt -0.92797565 0.29946592
vt -0.9178045 0.35409278
vt -0.9178045 0.35409278
vt -0.897545 0.4269525
vt -0.897545 0.4269525
vt -0.90963054 0.4406427
vt -0.90963054 0.4406427
vt -0.9264043 0.39817202
vt -0.9264043 0.39817202
vt -0.9372425 0.32791132
vt -0.9372425 0.32791132
vt -0.97737247 0.31701106
vt -0.97737247 0.31701106
vt -1.0024987 0.34935722
vt -1.0024987 0.34935722
vt -1.017247 0.42444426
vt -1.017247 0.42444426
vt -1.0156746 0.4423763
vt -1.0156746 0.4423763
vn 0.1113193 0 0.9937847
vn 0.1113193 0 0.9937847
vn 0.9390292 0 -0.3438373
vn 0.9390292 -0 -0.3438373
vn 0.99988663 0 -0.01505981
vn 0.99988663 -0 -0.01505981
vn 0.5689352 0 -0.82238233
vn 0.5689352 -0 -0.82238233
vn -0.45274234 0 -0.8916414
vn -0.45274234 0 -0.8916414
vn -0.98310393 0 -0.18304828
vn -0.98310393 0 -0.18304828
vn -0.96344745 0 -0.26789752
vn -0.96344745 0 -0.26789752
vn -0.74967587 -0 0.6618052
vn -0.74967587 0 0.6618052
vn 0.93008786 0 0.3673372
vn 0.93008786 0 0.3673372
vn 0.98831064 0 0.15245329
vn 0.98831064 0 0.15245329
vn 0.26212618 0 0.9650336
vn 0.26212618 0 0.9650336
vn -0.78972894 -0 0.61345595
vn -0.78972894 0 0.61345595
vn -0.98125154 -0 0.19273162
vn -0.98125154 0 0.19273162
vn -0.9961782 0 -0.08734416
vn -0.9961782 0 -0.08734416
vn -0.9961782 0 -0.08734416
vn -0.9961782 0 -0.08734416
g _0
f 1/1/1 2/2/2 3/3/3
f 4/4/4 3/3/3 2/2/2
f 3/3/3 4/4/4 5/5/5
f 6/6/6 5/5/5 4/4/4
f 5/5/5 6/6/6 7/7/7
f 8/8/8 7/7/7 6/6/6
f 7/7/7 8/8/8 9/9/9
f 10/10/10 9/9/9 8/8/8
f 9/9/9 10/10/10 11/11/11
f 12/12/12 11/11/11 10/10/10
f 11/11/11 12/12/12 13/13/13
f 14/14/14 13/13/13 12/12/12
f 13/13/13 14/14/14 15/15/15
f 16/16/16 15/15/15 14/14/14
f 15/15/15 16/16/16 17/17/17
f 18/18/18 17/17/17 16/16/16
f 17/17/17 18/18/18 19/19/19
f 20/20/20 19/19/19 18/18/18
f 19/19/19 20/20/20 21/21/21
f 22/22/22 21/21/21 20/20/20
f 21/21/21 22/22/22 23/23/23
f 24/24/24 23/23/23 22/22/22
f 23/23/23 24/24/24 25/25/25
f 26/26/26 25/25/25 24/24/24
f 25/25/25 26/26/26 27/27/27
f 28/28/28 27/27/27 26/26/26
f 27/27/27 28/28/28 29/29/29
f 30/30/30 29/29/29 28/28/28
