g 
v 33.0502 14.9 -63.542824
v 22.35517 14.9 -55.218567
v 31.422169 14.9 -71.66847
v 14.87783 14.9 -58.791534
v 28.513218 10.25 -77.9135
v 9.779571 10.25 -62.834198
v 24.719261 5.325926 -84.9084
v 4.034912 5.325926 -67.349525
v 18.697138 1.8999999 -91.86235
v -1.675458 1.8999999 -73.9427
v 12.655717 -1.525926 -98.62581
v -7.5751266 -1.525926 -80.54628
v 11.999533 -1.8 -99.35751
v -8.199533 -1.8 -81.24249
v 2.0241814 -1.8 -103.296646
v -11.033438 -1.8 -91.58626
v 33.0502 14.9 -63.542824
v 33.0502 -5.1000004 -63.542824
v 31.422169 14.9 -71.66847
v 31.422169 -5.1000004 -71.66847
v 31.422169 14.9 -71.66847
v 31.422169 -5.1000004 -71.66847
v 28.513218 10.25 -77.9135
v 28.513218 -9.75 -77.9135
v 28.513218 10.25 -77.9135
v 28.513218 -9.75 -77.9135
v 24.719261 5.325926 -84.9084
v 24.719261 -14.674074 -84.9084
v 24.719261 5.325926 -84.9084
v 24.719261 -14.674074 -84.9084
v 18.697138 1.8999999 -91.86235
v 18.697138 -18.1 -91.86235
v 18.697138 1.8999999 -91.86235
v 18.697138 -18.1 -91.86235
v 12.655717 -1.525926 -98.62581
v 12.655717 -21.525927 -98.62581
v 12.655717 -1.525926 -98.62581
v 12.655717 -21.525927 -98.62581
v 11.999533 -1.8 -99.35751
v 11.999533 -21.8 -99.35751
v 11.999533 -1.8 -99.35751
v 11.999533 -21.8 -99.35751
v 2.0241814 -1.8 -103.296646
v 2.0241814 -21.8 -103.296646
v 22.35517 14.9 -55.218567
v 22.35517 -5.1000004 -55.218567
v 14.87783 14.9 -58.791534
v 14.87783 -5.1000004 -58.791534
v 14.87783 14.9 -58.791534
v 14.87783 -5.1000004 -58.791534
v 9.779571 10.25 -62.834198
v 9.779571 -9.75 -62.834198
v 9.779571 10.25 -62.834198
v 9.779571 -9.75 -62.834198
v 4.034912 5.325926 -67.349525
v 4.034912 -14.674074 -67.349525
v 4.034912 5.325926 -67.349525
v 4.034912 -14.674074 -67.349525
v -1.675458 1.8999999 -73.9427
v -1.675458 -18.1 -73.9427
v -1.675458 1.8999999 -73.9427
v -1.675458 -18.1 -73.9427
v -7.5751266 -1.525926 -80.54628
v -7.5751266 -21.525927 -80.54628
v -7.5751266 -1.525926 -80.54628
v -7.5751266 -21.525927 -80.54628
v -8.199533 -1.8 -81.24249
v -8.199533 -21.8 -81.24249
v -8.199533 -1.8 -81.24249
v -8.199533 -21.8 -81.24249
v -11.033438 -1.8 -91.58626
v -11.033438 -21.8 -91.58626
vt -0.02886811 -0.06999013
vt -0.030972265 -0.076503076
vt -0.03185476 -0.06705831
vt -0.035109714 -0.0771333
vt -0.034842573 -0.06527561
vt -0.038386784 -0.07689199
vt -0.038412914 -0.06343093
vt -0.042068027 -0.07663674
vt -0.0429023 -0.062235866
vt -0.04632479 -0.07550386
vt -0.047345676 -0.061125845
vt -0.050663568 -0.074420385
vt -0.047827467 -0.061006494
vt -0.051122013 -0.07430684
vt -0.053112246 -0.06219289
vt -0.055241995 -0.07079085
vt -0.02886811 -0.06999013
vt -0.02886811 -0.06999013
vt -0.03185476 -0.06705831
vt -0.03185476 -0.06705831
vt -0.03185476 -0.06705831
vt -0.03185476 -0.06705831
vt -0.034842573 -0.06527561
vt -0.034842573 -0.06527561
vt -0.034842573 -0.06527561
vt -0.034842573 -0.06527561
vt -0.038412914 -0.06343093
vt -0.038412914 -0.06343093
vt -0.038412914 -0.06343093
vt -0.038412914 -0.06343093
vt -0.0429023 -0.062235866
vt -0.0429023 -0.062235866
vt -0.0429023 -0.062235866
vt -0.0429023 -0.062235866
vt -0.047345676 -0.061125845
vt -0.047345676 -0.061125845
vt -0.047345676 -0.061125845
vt -0.047345676 -0.061125845
vt -0.047827467 -0.061006494
vt -0.047827467 -0.061006494
vt -0.047827467 -0.061006494
vt -0.047827467 -0.061006494
vt -0.053112246 -0.06219289
vt -0.053112246 -0.06219289
vt -0.030972265 -0.076503076
vt -0.030972265 -0.076503076
vt -0.035109714 -0.0771333
vt -0.035109714 -0.0771333
vt -0.035109714 -0.0771333
vt -0.035109714 -0.0771333
vt -0.038386784 -0.07689199
vt -0.038386784 -0.07689199
vt -0.038386784 -0.07689199
vt -0.038386784 -0.07689199
vt -0.042068027 -0.07663674
vt -0.042068027 -0.07663674
vt -0.042068027 -0.07663674
vt -0.042068027 -0.07663674
vt -0.04632479 -0.07550386
vt -0.04632479 -0.07550386
vt -0.04632479 -0.07550386
vt -0.04632479 -0.07550386
vt -0.050663568 -0.074420385
vt -0.050663568 -0.074420385
vt -0.050663568 -0.074420385
vt -0.050663568 -0.074420385
vt -0.051122013 -0.07430684
vt -0.051122013 -0.07430684
vt -0.051122013 -0.07430684
vt -0.051122013 -0.07430684
vt -0.055241995 -0.07079085
vt -0.055241995 -0.07079085
vn -0 1 0
vn -0 1 0
vn -0 1 0
vn -0 1 0
vn -0 1 0
vn -0 1 0
vn -0 1 0
vn -0 1 0
vn -0 1 0
vn -0 1 0
vn -0 1 0
vn -0 1 0
vn -0 1 0
vn -0 1 0
vn -0 1 0
vn -0 1 0
vn 0.6142118 0 0.7891413
vn 0.6142118 0 0.7891413
vn 0.9805133 -0 -0.19645296
vn 0.9805133 -0 -0.19645296
vn 0.906483 0 -0.42224237
vn 0.906483 -0 -0.42224237
vn 0.906483 -0 -0.42224237
vn 0.906483 -0 -0.42224237
vn 0.879026 0 -0.4767738
vn 0.879026 -0 -0.4767738
vn 0.879026 -0 -0.4767738
vn 0.879026 -0 -0.4767738
vn 0.75593823 0 -0.6546429
vn 0.75593823 -0 -0.6546429
vn 0.75593823 -0 -0.6546429
vn 0.75593823 -0 -0.6546429
vn 0.74579424 0 -0.66617644
vn 0.74579424 -0 -0.66617644
vn 0.74579424 -0 -0.66617644
vn 0.74579424 -0 -0.66617644
vn 0.7444819 0 -0.6676426
vn 0.7444819 -0 -0.6676426
vn 0.7444819 -0 -0.6676426
vn 0.7444819 -0 -0.6676426
vn 0.36728707 0 -0.9301076
vn 0.36728707 -0 -0.9301076
vn -0.66765743 0 -0.7444686
vn -0.66765743 0 -0.7444686
vn 0.6142118 0 0.7891413
vn 0.6142118 0 0.7891413
vn -0.43114597 0 0.9022822
vn -0.43114597 0 0.9022822
vn -0.62132084 -0 0.78355634
vn -0.62132084 0 0.78355634
vn -0.62132084 0 0.78355634
vn -0.62132084 0 0.78355634
vn -0.6179626 -0 0.7862075
vn -0.6179626 0 0.7862075
vn -0.6179626 0 0.7862075
vn -0.6179626 0 0.7862075
vn -0.75589997 -0 0.6546871
vn -0.75589997 0 0.6546871
vn -0.75589997 0 0.6546871
vn -0.75589997 0 0.6546871
vn -0.74573463 -0 0.66624314
vn -0.74573463 0 0.66624314
vn -0.74573463 0 0.66624314
vn -0.74573463 0 0.66624314
vn -0.7444546 -0 0.6676731
vn -0.7444546 0 0.6676731
vn -0.7444546 0 0.6676731
vn -0.7444546 0 0.6676731
vn -0.96445835 -0 0.26423478
vn -0.96445835 0 0.26423478
vn -0.66765743 0 -0.7444686
vn -0.66765743 0 -0.7444686
g _0
f 3/3/3 2/2/2 1/1/1
f 2/2/2 3/3/3 4/4/4
f 5/5/5 4/4/4 3/3/3
f 4/4/4 5/5/5 6/6/6
f 7/7/7 6/6/6 5/5/5
f 6/6/6 7/7/7 8/8/8
f 9/9/9 8/8/8 7/7/7
f 8/8/8 9/9/9 10/10/10
f 11/11/11 10/10/10 9/9/9
f 10/10/10 11/11/11 12/12/12
f 13/13/13 12/12/12 11/11/11
f 12/12/12 13/13/13 14/14/14
f 15/15/15 14/14/14 13/13/13
f 14/14/14 15/15/15 16/16/16
g _1
f 17/17/17 18/18/18 19/19/19
f 20/20/20 19/19/19 18/18/18
f 21/21/21 22/22/22 23/23/23
f 24/24/24 23/23/23 22/22/22
f 25/25/25 26/26/26 27/27/27
f 28/28/28 27/27/27 26/26/26
f 29/29/29 30/30/30 31/31/31
f 32/32/32 31/31/31 30/30/30
f 33/33/33 34/34/34 35/35/35
f 36/36/36 35/35/35 34/34/34
f 37/37/37 38/38/38 39/39/39
f 40/40/40 39/39/39 38/38/38
f 41/41/41 42/42/42 43/43/43
f 44/44/44 43/43/43 42/42/42
f 47/47/47 46/46/46 45/45/45
f 46/46/46 47/47/47 48/48/48
f 51/51/51 50/50/50 49/49/49
f 50/50/50 51/51/51 52/52/52
f 55/55/55 54/54/54 53/53/53
f 54/54/54 55/55/55 56/56/56
f 59/59/59 58/58/58 57/57/57
f 58/58/58 59/59/59 60/60/60
f 63/63/63 62/62/62 61/61/61
f 62/62/62 63/63/63 64/64/64
f 67/67/67 66/66/66 65/65/65
f 66/66/66 67/67/67 68/68/68
f 71/71/71 70/70/70 69/69/69
f 70/70/70 71/71/71 72/72/72
f 45/45/45 18/18/18 17/17/17
f 18/18/18 45/45/45 46/46/46
f 43/43/43 44/44/44 71/71/71
f 72/72/72 71/71/71 44/44/44
