g 
v 97.09 31.985714 -1.29
v 97.09 6.8142853 -1.29
v 108.7 30.662836 3.47
v 108.7 6.6571636 3.47
v 113.15 30.662836 7.38
v 113.15 6.6571636 7.38
v 109.15 30.662836 5.86
v 109.15 6.6571636 5.86
v 107.44 30.662836 8.47
v 107.44 6.6571636 8.47
v 103.49 27.444601 8.79
v 103.49 8.875399 8.79
v 99.13 27.444601 5.66
v 99.13 8.875399 5.66
v 95.96 27.49699 5.24
v 95.96 10.663011 5.24
v 93.66 27.444601 2.18
v 93.66 8.875399 2.18
v 94.61 23.926802 -1.26
v 94.61 13.833197 -1.26
v 97.09 31.985714 -1.29
v 97.09 6.8142853 -1.29
vt -1.0223999 0.2397
vt -1.0223999 0.2397
vt -1.1385 0.2873
vt -1.1385 0.2873
vt -1.183 0.32639998
vt -1.183 0.32639998
vt -1.143 0.3112
vt -1.143 0.3112
vt -1.1259 0.3373
vt -1.1259 0.3373
vt -1.0863999 0.3405
vt -1.0863999 0.3405
vt -1.0428 0.3092
vt -1.0428 0.3092
vt -1.0110999 0.305
vt -1.0110999 0.305
vt -0.98810005 0.2744
vt -0.98810005 0.2744
vt -0.9976 0.24
vt -0.9976 0.24
vt -1.0223999 0.2397
vt -1.0223999 0.2397
vn 0.3793465 0 -0.9252547
vn 0.37934646 -0 -0.9252547
vn 0.6600565 0 -0.75121593
vn 0.6600565 -0 -0.75121593
vn -0.35521775 -0 0.9347836
vn -0.35521775 0 0.9347836
vn 0.8364613 0 0.5480261
vn 0.8364613 0 0.5480261
vn 0.08074795 0 0.99673456
vn 0.08074794 0 0.9967345
vn -0.58317524 -0 0.8123464
vn -0.58317524 0 0.8123464
vn -0.13134441 -0 0.99133676
vn -0.13134441 0 0.9913368
vn -0.79937315 -0 0.6008349
vn -0.79937315 0 0.60083485
vn -0.96391845 0 -0.26619756
vn -0.9639185 0 -0.2661976
vn -0.012095899 0 -0.99992687
vn -0.012095898 0 -0.99992687
vn -0.012095898 0 -0.99992687
vn -0.012095898 0 -0.99992687
g _0
f 3/3/3 2/2/2 1/1/1
f 2/2/2 3/3/3 4/4/4
f 5/5/5 4/4/4 3/3/3
f 4/4/4 5/5/5 6/6/6
f 7/7/7 6/6/6 5/5/5
f 6/6/6 7/7/7 8/8/8
f 9/9/9 8/8/8 7/7/7
f 8/8/8 9/9/9 10/10/10
f 11/11/11 10/10/10 9/9/9
f 10/10/10 11/11/11 12/12/12
f 13/13/13 12/12/12 11/11/11
f 12/12/12 13/13/13 14/14/14
f 15/15/15 14/14/14 13/13/13
f 14/14/14 15/15/15 16/16/16
f 17/17/17 16/16/16 15/15/15
f 16/16/16 17/17/17 18/18/18
f 19/19/19 18/18/18 17/17/17
f 18/18/18 19/19/19 20/20/20
f 21/21/21 20/20/20 19/19/19
f 20/20/20 21/21/21 22/22/22
