g 
v 196.4887 -198 98.23195
v 194.71132 -198 100.568054
v 189.65048 -196.5 93.02923
v 187.87311 -196.5 95.36533
v 182.05219 -194.83333 87.2482
v 180.27539 -194.83333 89.58475
v 174.46097 -193.0238 81.47867
v 172.69019 -193.0238 83.81978
v 166.9583 -189.92857 75.83133
v 165.19301 -189.92857 78.176575
v 159.4553 -186.83334 70.18377
v 157.69612 -186.83334 72.53359
v 151.87822 -184.16667 64.541695
v 150.1392 -184.16667 66.9065
v 144.14774 -182.5 58.92694
v 142.42273 -182.5 61.30198
v 136.42654 -180.83333 53.318977
v 134.69693 -180.83333 55.690666
v 129.2681 -177.52013 48.07564
v 127.52824 -177.52013 50.439823
v 122.66396 -172.56038 43.19077
v 120.925026 -172.56038 45.55563
v 116.419846 -167.02332 38.628315
v 114.722 -167.02332 41.022846
v 111.693375 -159.17696 35.412163
v 110.042145 -159.17696 37.839073
v 106.975136 -151.3306 32.202087
v 105.35404 -151.3306 34.649223
v 101.11963 -144.92754 28.407785
v 99.544205 -144.92754 30.884577
v 94.15026 -139.96779 24.04425
v 92.589226 -139.96779 26.530132
v 87.29929 -134.73816 19.727058
v 85.71906 -134.73816 22.20502
v 80.85729 -128.42897 15.554476
v 79.25277 -128.42897 18.03802
v 74.40799 -122.119774 11.377196
v 72.79379 -122.119774 13.8757105
v 67.95869 -115.810585 7.199916
v 66.334816 -115.810585 9.713403
v 61.509388 -109.50139 3.0226364
v 59.875835 -109.50139 5.551097
v 55.060078 -103.1922 -1.1546441
v 53.41686 -103.1922 1.3887889
v 48.607445 -96.883 -5.33407
v 46.961212 -96.883 -2.771371
v 43.98057 -88.90055 -8.295871
v 42.340313 -88.90055 -5.7026176
v 40.577698 -79.80259 -10.441537
v 38.935753 -79.80259 -7.8189745
v 37.1808 -70.70463 -12.583442
v 35.525215 -70.70463 -9.939092
v 33.78391 -61.60667 -14.725346
v 32.11468 -61.60667 -12.059209
v 30.38701 -52.508705 -16.86725
v 28.704145 -52.508705 -14.179327
v 26.990116 -43.410748 -19.009153
v 25.29361 -43.410748 -16.299444
v 23.593222 -34.312786 -21.15106
v 21.883074 -34.312786 -18.419561
v 20.196009 -25.214825 -23.293161
v 18.472853 -25.214825 -20.53948
v 16.484825 -16.395742 -25.6291
v 14.75268 -16.395742 -22.851658
v 9.965148 -10.086551 -29.698795
v 8.225663 -10.086551 -26.904922
v 3.446513 -3.7773597 -33.76784
v 1.6976061 -3.7773597 -30.958836
v -3.0721233 2.5318315 -37.83689
v -4.8304515 2.5318315 -35.01275
v -9.590759 8.8410225 -41.905933
v -11.358509 8.8410225 -39.06666
v -16.109394 15.150213 -45.97498
v -17.886566 15.150213 -43.12058
v -22.62803 21.459406 -50.04403
v -24.414625 21.459406 -47.17449
v -25.88735 24.614 -52.078552
v -27.678652 24.614 -49.201447
v 196.4887 -198 98.23195
v 196.4887 -218 98.23195
v 189.65048 -196.5 93.02923
v 189.65048 -216.5 93.02923
v 189.65048 -196.5 93.02923
v 189.65048 -216.5 93.02923
v 182.05219 -194.83333 87.2482
v 182.05219 -214.83333 87.2482
v 182.05219 -194.83333 87.2482
v 182.05219 -214.83333 87.2482
v 174.46097 -193.0238 81.47867
v 174.46097 -213.0238 81.47867
v 174.46097 -193.0238 81.47867
v 174.46097 -213.0238 81.47867
v 166.9583 -189.92857 75.83133
v 166.9583 -209.92857 75.83133
v 166.9583 -189.92857 75.83133
v 166.9583 -209.92857 75.83133
v 159.4553 -186.83334 70.18377
v 159.4553 -206.83334 70.18377
v 159.4553 -186.83334 70.18377
v 159.4553 -206.83334 70.18377
v 151.87822 -184.16667 64.541695
v 151.87822 -204.16667 64.541695
v 151.87822 -184.16667 64.541695
v 151.87822 -204.16667 64.541695
v 144.14774 -182.5 58.92694
v 144.14774 -202.5 58.92694
v 144.14774 -182.5 58.92694
v 144.14774 -202.5 58.92694
v 136.42654 -180.83333 53.318977
v 136.42654 -200.83333 53.318977
v 136.42654 -180.83333 53.318977
v 136.42654 -200.83333 53.318977
v 129.2681 -177.52013 48.07564
v 129.2681 -197.52013 48.07564
v 129.2681 -177.52013 48.07564
v 129.2681 -197.52013 48.07564
v 122.66396 -172.56038 43.19077
v 122.66396 -192.56038 43.19077
v 122.66396 -172.56038 43.19077
v 122.66396 -192.56038 43.19077
v 116.419846 -167.02332 38.628315
v 116.419846 -187.02332 38.628315
v 116.419846 -167.02332 38.628315
v 116.419846 -187.02332 38.628315
v 111.693375 -159.17696 35.412163
v 111.693375 -179.17696 35.412163
v 111.693375 -159.17696 35.412163
v 111.693375 -179.17696 35.412163
v 106.975136 -151.3306 32.202087
v 106.975136 -171.3306 32.202087
v 106.975136 -151.3306 32.202087
v 106.975136 -171.3306 32.202087
v 101.11963 -144.92754 28.407785
v 101.11963 -164.92754 28.407785
v 101.11963 -144.92754 28.407785
v 101.11963 -164.92754 28.407785
v 94.15026 -139.96779 24.04425
v 94.15026 -159.96779 24.04425
v 94.15026 -139.96779 24.04425
v 94.15026 -159.96779 24.04425
v 87.29929 -134.73816 19.727058
v 87.29929 -154.73816 19.727058
v 87.29929 -134.73816 19.727058
v 87.29929 -154.73816 19.727058
v 80.85729 -128.42897 15.554476
v 80.85729 -148.42897 15.554476
v 80.85729 -128.42897 15.554476
v 80.85729 -148.42897 15.554476
v 74.40799 -122.119774 11.377196
v 74.40799 -142.11978 11.377196
v 74.40799 -122.119774 11.377196
v 74.40799 -142.11978 11.377196
v 67.95869 -115.810585 7.199916
v 67.95869 -135.81058 7.199916
v 67.95869 -115.810585 7.199916
v 67.95869 -135.81058 7.199916
v 61.509388 -109.50139 3.0226364
v 61.509388 -129.50139 3.0226364
v 61.509388 -109.50139 3.0226364
v 61.509388 -129.50139 3.0226364
v 55.060078 -103.1922 -1.1546441
v 55.060078 -123.1922 -1.1546441
v 55.060078 -103.1922 -1.1546441
v 55.060078 -123.1922 -1.1546441
v 48.607445 -96.883 -5.33407
v 48.607445 -116.883 -5.33407
v 48.607445 -96.883 -5.33407
v 48.607445 -116.883 -5.33407
v 43.98057 -88.90055 -8.295871
v 43.98057 -108.90055 -8.295871
v 43.98057 -88.90055 -8.295871
v 43.98057 -108.90055 -8.295871
v 40.577698 -79.80259 -10.441537
v 40.577698 -99.80259 -10.441537
v 40.577698 -79.80259 -10.441537
v 40.577698 -99.80259 -10.441537
v 37.1808 -70.70463 -12.583442
v 37.1808 -90.70463 -12.583442
v 37.1808 -70.70463 -12.583442
v 37.1808 -90.70463 -12.583442
v 33.78391 -61.60667 -14.725346
v 33.78391 -81.606674 -14.725346
v 33.78391 -61.60667 -14.725346
v 33.78391 -81.606674 -14.725346
v 30.38701 -52.508705 -16.86725
v 30.38701 -72.508705 -16.86725
v 30.38701 -52.508705 -16.86725
v 30.38701 -72.508705 -16.86725
v 26.990116 -43.410748 -19.009153
v 26.990116 -63.410748 -19.009153
v 26.990116 -43.410748 -19.009153
v 26.990116 -63.410748 -19.009153
v 23.593222 -34.312786 -21.15106
v 23.593222 -54.312786 -21.15106
v 23.593222 -34.312786 -21.15106
v 23.593222 -54.312786 -21.15106
v 20.196009 -25.214825 -23.293161
v 20.196009 -45.214825 -23.293161
v 20.196009 -25.214825 -23.293161
v 20.196009 -45.214825 -23.293161
v 16.484825 -16.395742 -25.6291
v 16.484825 -36.395744 -25.6291
v 16.484825 -16.395742 -25.6291
v 16.484825 -36.395744 -25.6291
v 9.965148 -10.086551 -29.698795
v 9.965148 -30.086552 -29.698795
v 9.965148 -10.086551 -29.698795
v 9.965148 -30.086552 -29.698795
v 3.446513 -3.7773597 -33.76784
v 3.446513 -23.777359 -33.76784
v 3.446513 -3.7773597 -33.76784
v 3.446513 -23.777359 -33.76784
v -3.0721233 2.5318315 -37.83689
v -3.0721233 -17.468168 -37.83689
v -3.0721233 2.5318315 -37.83689
v -3.0721233 -17.468168 -37.83689
v -9.590759 8.8410225 -41.905933
v -9.590759 -11.1589775 -41.905933
v -9.590759 8.8410225 -41.905933
v -9.590759 -11.1589775 -41.905933
v -16.109394 15.150213 -45.97498
v -16.109394 -4.8497868 -45.97498
v -16.109394 15.150213 -45.97498
v -16.109394 -4.8497868 -45.97498
v -22.62803 21.459406 -50.04403
v -22.62803 1.4594059 -50.04403
v -22.62803 21.459406 -50.04403
v -22.62803 1.4594059 -50.04403
v -25.88735 24.614 -52.078552
v -25.88735 4.6140003 -52.078552
v 194.71132 -198 100.568054
v 194.71132 -218 100.568054
v 187.87311 -196.5 95.36533
v 187.87311 -216.5 95.36533
v 187.87311 -196.5 95.36533
v 187.87311 -216.5 95.36533
v 180.27539 -194.83333 89.58475
v 180.27539 -214.83333 89.58475
v 180.27539 -194.83333 89.58475
v 180.27539 -214.83333 89.58475
v 172.69019 -193.0238 83.81978
v 172.69019 -213.0238 83.81978
v 172.69019 -193.0238 83.81978
v 172.69019 -213.0238 83.81978
v 165.19301 -189.92857 78.176575
v 165.19301 -209.92857 78.176575
v 165.19301 -189.92857 78.176575
v 165.19301 -209.92857 78.176575
v 157.69612 -186.83334 72.53359
v 157.69612 -206.83334 72.53359
v 157.69612 -186.83334 72.53359
v 157.69612 -206.83334 72.53359
v 150.1392 -184.16667 66.9065
v 150.1392 -204.16667 66.9065
v 150.1392 -184.16667 66.9065
v 150.1392 -204.16667 66.9065
v 142.42273 -182.5 61.30198
v 142.42273 -202.5 61.30198
v 142.42273 -182.5 61.30198
v 142.42273 -202.5 61.30198
v 134.69693 -180.83333 55.690666
v 134.69693 -200.83333 55.690666
v 134.69693 -180.83333 55.690666
v 134.69693 -200.83333 55.690666
v 127.52824 -177.52013 50.439823
v 127.52824 -197.52013 50.439823
v 127.52824 -177.52013 50.439823
v 127.52824 -197.52013 50.439823
v 120.925026 -172.56038 45.55563
v 120.925026 -192.56038 45.55563
v 120.925026 -172.56038 45.55563
v 120.925026 -192.56038 45.55563
v 114.722 -167.02332 41.022846
v 114.722 -187.02332 41.022846
v 114.722 -167.02332 41.022846
v 114.722 -187.02332 41.022846
v 110.042145 -159.17696 37.839073
v 110.042145 -179.17696 37.839073
v 110.042145 -159.17696 37.839073
v 110.042145 -179.17696 37.839073
v 105.35404 -151.3306 34.649223
v 105.35404 -171.3306 34.649223
v 105.35404 -151.3306 34.649223
v 105.35404 -171.3306 34.649223
v 99.544205 -144.92754 30.884577
v 99.544205 -164.92754 30.884577
v 99.544205 -144.92754 30.884577
v 99.544205 -164.92754 30.884577
v 92.589226 -139.96779 26.530132
v 92.589226 -159.96779 26.530132
v 92.589226 -139.96779 26.530132
v 92.589226 -159.96779 26.530132
v 85.71906 -134.73816 22.20502
v 85.71906 -154.73816 22.20502
v 85.71906 -134.73816 22.20502
v 85.71906 -154.73816 22.20502
v 79.25277 -128.42897 18.03802
v 79.25277 -148.42897 18.03802
v 79.25277 -128.42897 18.03802
v 79.25277 -148.42897 18.03802
v 72.79379 -122.119774 13.8757105
v 72.79379 -142.11978 13.8757105
v 72.79379 -122.119774 13.8757105
v 72.79379 -142.11978 13.8757105
v 66.334816 -115.810585 9.713403
v 66.334816 -135.81058 9.713403
v 66.334816 -115.810585 9.713403
v 66.334816 -135.81058 9.713403
v 59.875835 -109.50139 5.551097
v 59.875835 -129.50139 5.551097
v 59.875835 -109.50139 5.551097
v 59.875835 -129.50139 5.551097
v 53.41686 -103.1922 1.3887889
v 53.41686 -123.1922 1.3887889
v 53.41686 -103.1922 1.3887889
v 53.41686 -123.1922 1.3887889
v 46.961212 -96.883 -2.771371
v 46.961212 -116.883 -2.771371
v 46.961212 -96.883 -2.771371
v 46.961212 -116.883 -2.771371
v 42.340313 -88.90055 -5.7026176
v 42.340313 -108.90055 -5.7026176
v 42.340313 -88.90055 -5.7026176
v 42.340313 -108.90055 -5.7026176
v 38.935753 -79.80259 -7.8189745
v 38.935753 -99.80259 -7.8189745
v 38.935753 -79.80259 -7.8189745
v 38.935753 -99.80259 -7.8189745
v 35.525215 -70.70463 -9.939092
v 35.525215 -90.70463 -9.939092
v 35.525215 -70.70463 -9.939092
v 35.525215 -90.70463 -9.939092
v 32.11468 -61.60667 -12.059209
v 32.11468 -81.606674 -12.059209
v 32.11468 -61.60667 -12.059209
v 32.11468 -81.606674 -12.059209
v 28.704145 -52.508705 -14.179327
v 28.704145 -72.508705 -14.179327
v 28.704145 -52.508705 -14.179327
v 28.704145 -72.508705 -14.179327
v 25.29361 -43.410748 -16.299444
v 25.29361 -63.410748 -16.299444
v 25.29361 -43.410748 -16.299444
v 25.29361 -63.410748 -16.299444
v 21.883074 -34.312786 -18.419561
v 21.883074 -54.312786 -18.419561
v 21.883074 -34.312786 -18.419561
v 21.883074 -54.312786 -18.419561
v 18.472853 -25.214825 -20.53948
v 18.472853 -45.214825 -20.53948
v 18.472853 -25.214825 -20.53948
v 18.472853 -45.214825 -20.53948
v 14.75268 -16.395742 -22.851658
v 14.75268 -36.395744 -22.851658
v 14.75268 -16.395742 -22.851658
v 14.75268 -36.395744 -22.851658
v 8.225663 -10.086551 -26.904922
v 8.225663 -30.086552 -26.904922
v 8.225663 -10.086551 -26.904922
v 8.225663 -30.086552 -26.904922
v 1.6976061 -3.7773597 -30.958836
v 1.6976061 -23.777359 -30.958836
v 1.6976061 -3.7773597 -30.958836
v 1.6976061 -23.777359 -30.958836
v -4.8304515 2.5318315 -35.01275
v -4.8304515 -17.468168 -35.01275
v -4.8304515 2.5318315 -35.01275
v -4.8304515 -17.468168 -35.01275
v -11.358509 8.8410225 -39.06666
v -11.358509 -11.1589775 -39.06666
v -11.358509 8.8410225 -39.06666
v -11.358509 -11.1589775 -39.06666
v -17.886566 15.150213 -43.12058
v -17.886566 -4.8497868 -43.12058
v -17.886566 15.150213 -43.12058
v -17.886566 -4.8497868 -43.12058
v -24.414625 21.459406 -47.17449
v -24.414625 1.4594059 -47.17449
v -24.414625 21.459406 -47.17449
v -24.414625 1.4594059 -47.17449
v -27.678652 24.614 -49.201447
v -27.678652 4.6140003 -49.201447
vt 0.027087485 -0.11964376
vt 0.026879935 -0.11959986
vt 0.027216012 -0.11903623
vt 0.027008463 -0.118992314
vt 0.027358826 -0.11836116
vt 0.027151266 -0.1183173
vt 0.02750111 -0.117686905
vt 0.027293436 -0.11764358
vt 0.027638147 -0.11702222
vt 0.027430372 -0.116979375
vt 0.027775187 -0.1163575
vt 0.027567303 -0.1163152
vt 0.027909579 -0.11568811
vt 0.02770134 -0.11564759
vt 0.028037446 -0.11500954
vt 0.02782897 -0.11497026
vt 0.028165156 -0.11433179
vt 0.027956758 -0.11429211
vt 0.028286438 -0.11370208
vt 0.028078213 -0.11366149
vt 0.028401436 -0.11311965
vt 0.028193196 -0.113079146
vt 0.028506499 -0.11257072
vt 0.028297592 -0.1125338
vt 0.02857052 -0.11216254
vt 0.028360935 -0.11212967
vt 0.028634395 -0.11175508
vt 0.028424421 -0.111724816
vt 0.028701287 -0.11125527
vt 0.028490787 -0.111228906
vt 0.028770939 -0.1106651
vt 0.028560288 -0.11063995
vt 0.02884122 -0.110084094
vt 0.028630497 -0.11005746
vt 0.028914697 -0.109534286
vt 0.028702857 -0.10950622
vt 0.028988255 -0.108983845
vt 0.028775139 -0.108955614
vt 0.029061813 -0.10843341
vt 0.028847419 -0.108405
vt 0.029135372 -0.10788297
vt 0.028919699 -0.107854396
vt 0.029208928 -0.10733253
vt 0.028991979 -0.10730379
vt 0.029282523 -0.1067818
vt 0.029064221 -0.10675347
vt 0.029333003 -0.10638799
vt 0.029112892 -0.10636099
vt 0.029368 -0.10609937
vt 0.02914592 -0.10607316
vt 0.029402934 -0.10581125
vt 0.02917901 -0.105784826
vt 0.02943787 -0.10552314
vt 0.0292121 -0.105496496
vt 0.029472804 -0.10523501
vt 0.02924519 -0.10520816
vt 0.029507738 -0.1049469
vt 0.02927828 -0.10491982
vt 0.029542673 -0.10465878
vt 0.02931137 -0.10463148
vt 0.029577611 -0.10437063
vt 0.029344456 -0.104343176
vt 0.029615507 -0.104055986
vt 0.029380523 -0.10402868
vt 0.029679863 -0.10350428
vt 0.029443577 -0.103476994
vt 0.029744204 -0.10295266
vt 0.02950664 -0.10292522
vt 0.02980855 -0.10240103
vt 0.029569706 -0.10237346
vt 0.029872894 -0.101849414
vt 0.029632768 -0.10182168
vt 0.029937238 -0.10129779
vt 0.029695833 -0.101269916
vt 0.03000158 -0.10074617
vt 0.029758897 -0.10071815
vt 0.030033754 -0.10047036
vt 0.02979043 -0.10044226
vt 0.027087485 -0.11964376
vt 0.027087485 -0.11964376
vt 0.027216012 -0.11903623
vt 0.027216012 -0.11903623
vt 0.027216012 -0.11903623
vt 0.027216012 -0.11903623
vt 0.027358826 -0.11836116
vt 0.027358826 -0.11836116
vt 0.027358826 -0.11836116
vt 0.027358826 -0.11836116
vt 0.02750111 -0.117686905
vt 0.02750111 -0.117686905
vt 0.02750111 -0.117686905
vt 0.02750111 -0.117686905
vt 0.027638147 -0.11702222
vt 0.027638147 -0.11702222
vt 0.027638147 -0.11702222
vt 0.027638147 -0.11702222
vt 0.027775187 -0.1163575
vt 0.027775187 -0.1163575
vt 0.027775187 -0.1163575
vt 0.027775187 -0.1163575
vt 0.027909579 -0.11568811
vt 0.027909579 -0.11568811
vt 0.027909579 -0.11568811
vt 0.027909579 -0.11568811
vt 0.028037446 -0.11500954
vt 0.028037446 -0.11500954
vt 0.028037446 -0.11500954
vt 0.028037446 -0.11500954
vt 0.028165156 -0.11433179
vt 0.028165156 -0.11433179
vt 0.028165156 -0.11433179
vt 0.028165156 -0.11433179
vt 0.028286438 -0.11370208
vt 0.028286438 -0.11370208
vt 0.028286438 -0.11370208
vt 0.028286438 -0.11370208
vt 0.028401436 -0.11311965
vt 0.028401436 -0.11311965
vt 0.028401436 -0.11311965
vt 0.028401436 -0.11311965
vt 0.028506499 -0.11257072
vt 0.028506499 -0.11257072
vt 0.028506499 -0.11257072
vt 0.028506499 -0.11257072
vt 0.02857052 -0.11216254
vt 0.02857052 -0.11216254
vt 0.02857052 -0.11216254
vt 0.02857052 -0.11216254
vt 0.028634395 -0.11175508
vt 0.028634395 -0.11175508
vt 0.028634395 -0.11175508
vt 0.028634395 -0.11175508
vt 0.028701287 -0.11125527
vt 0.028701287 -0.11125527
vt 0.028701287 -0.11125527
vt 0.028701287 -0.11125527
vt 0.028770939 -0.1106651
vt 0.028770939 -0.1106651
vt 0.028770939 -0.1106651
vt 0.028770939 -0.1106651
vt 0.02884122 -0.110084094
vt 0.02884122 -0.110084094
vt 0.02884122 -0.110084094
vt 0.02884122 -0.110084094
vt 0.028914697 -0.109534286
vt 0.028914697 -0.109534286
vt 0.028914697 -0.109534286
vt 0.028914697 -0.109534286
vt 0.028988255 -0.108983845
vt 0.028988255 -0.108983845
vt 0.028988255 -0.108983845
vt 0.028988255 -0.108983845
vt 0.029061813 -0.10843341
vt 0.029061813 -0.10843341
vt 0.029061813 -0.10843341
vt 0.029061813 -0.10843341
vt 0.029135372 -0.10788297
vt 0.029135372 -0.10788297
vt 0.029135372 -0.10788297
vt 0.029135372 -0.10788297
vt 0.029208928 -0.10733253
vt 0.029208928 -0.10733253
vt 0.029208928 -0.10733253
vt 0.029208928 -0.10733253
vt 0.029282523 -0.1067818
vt 0.029282523 -0.1067818
vt 0.029282523 -0.1067818
vt 0.029282523 -0.1067818
vt 0.029333003 -0.10638799
vt 0.029333003 -0.10638799
vt 0.029333003 -0.10638799
vt 0.029333003 -0.10638799
vt 0.029368 -0.10609937
vt 0.029368 -0.10609937
vt 0.029368 -0.10609937
vt 0.029368 -0.10609937
vt 0.029402934 -0.10581125
vt 0.029402934 -0.10581125
vt 0.029402934 -0.10581125
vt 0.029402934 -0.10581125
vt 0.02943787 -0.10552314
vt 0.02943787 -0.10552314
vt 0.02943787 -0.10552314
vt 0.02943787 -0.10552314
vt 0.029472804 -0.10523501
vt 0.029472804 -0.10523501
vt 0.029472804 -0.10523501
vt 0.029472804 -0.10523501
vt 0.029507738 -0.1049469
vt 0.029507738 -0.1049469
vt 0.029507738 -0.1049469
vt 0.029507738 -0.1049469
vt 0.029542673 -0.10465878
vt 0.029542673 -0.10465878
vt 0.029542673 -0.10465878
vt 0.029542673 -0.10465878
vt 0.029577611 -0.10437063
vt 0.029577611 -0.10437063
vt 0.029577611 -0.10437063
vt 0.029577611 -0.10437063
vt 0.029615507 -0.104055986
vt 0.029615507 -0.104055986
vt 0.029615507 -0.104055986
vt 0.029615507 -0.104055986
vt 0.029679863 -0.10350428
vt 0.029679863 -0.10350428
vt 0.029679863 -0.10350428
vt 0.029679863 -0.10350428
vt 0.029744204 -0.10295266
vt 0.029744204 -0.10295266
vt 0.029744204 -0.10295266
vt 0.029744204 -0.10295266
vt 0.02980855 -0.10240103
vt 0.02980855 -0.10240103
vt 0.02980855 -0.10240103
vt 0.02980855 -0.10240103
vt 0.029872894 -0.101849414
vt 0.029872894 -0.101849414
vt 0.029872894 -0.101849414
vt 0.029872894 -0.101849414
vt 0.029937238 -0.10129779
vt 0.029937238 -0.10129779
vt 0.029937238 -0.10129779
vt 0.029937238 -0.10129779
vt 0.03000158 -0.10074617
vt 0.03000158 -0.10074617
vt 0.03000158 -0.10074617
vt 0.03000158 -0.10074617
vt 0.030033754 -0.10047036
vt 0.030033754 -0.10047036
vt 0.026879935 -0.11959986
vt 0.026879935 -0.11959986
vt 0.027008463 -0.118992314
vt 0.027008463 -0.118992314
vt 0.027008463 -0.118992314
vt 0.027008463 -0.118992314
vt 0.027151266 -0.1183173
vt 0.027151266 -0.1183173
vt 0.027151266 -0.1183173
vt 0.027151266 -0.1183173
vt 0.027293436 -0.11764358
vt 0.027293436 -0.11764358
vt 0.027293436 -0.11764358
vt 0.027293436 -0.11764358
vt 0.027430372 -0.116979375
vt 0.027430372 -0.116979375
vt 0.027430372 -0.116979375
vt 0.027430372 -0.116979375
vt 0.027567303 -0.1163152
vt 0.027567303 -0.1163152
vt 0.027567303 -0.1163152
vt 0.027567303 -0.1163152
vt 0.02770134 -0.11564759
vt 0.02770134 -0.11564759
vt 0.02770134 -0.11564759
vt 0.02770134 -0.11564759
vt 0.02782897 -0.11497026
vt 0.02782897 -0.11497026
vt 0.02782897 -0.11497026
vt 0.02782897 -0.11497026
vt 0.027956758 -0.11429211
vt 0.027956758 -0.11429211
vt 0.027956758 -0.11429211
vt 0.027956758 -0.11429211
vt 0.028078213 -0.11366149
vt 0.028078213 -0.11366149
vt 0.028078213 -0.11366149
vt 0.028078213 -0.11366149
vt 0.028193196 -0.113079146
vt 0.028193196 -0.113079146
vt 0.028193196 -0.113079146
vt 0.028193196 -0.113079146
vt 0.028297592 -0.1125338
vt 0.028297592 -0.1125338
vt 0.028297592 -0.1125338
vt 0.028297592 -0.1125338
vt 0.028360935 -0.11212967
vt 0.028360935 -0.11212967
vt 0.028360935 -0.11212967
vt 0.028360935 -0.11212967
vt 0.028424421 -0.111724816
vt 0.028424421 -0.111724816
vt 0.028424421 -0.111724816
vt 0.028424421 -0.111724816
vt 0.028490787 -0.111228906
vt 0.028490787 -0.111228906
vt 0.028490787 -0.111228906
vt 0.028490787 -0.111228906
vt 0.028560288 -0.11063995
vt 0.028560288 -0.11063995
vt 0.028560288 -0.11063995
vt 0.028560288 -0.11063995
vt 0.028630497 -0.11005746
vt 0.028630497 -0.11005746
vt 0.028630497 -0.11005746
vt 0.028630497 -0.11005746
vt 0.028702857 -0.10950622
vt 0.028702857 -0.10950622
vt 0.028702857 -0.10950622
vt 0.028702857 -0.10950622
vt 0.028775139 -0.108955614
vt 0.028775139 -0.108955614
vt 0.028775139 -0.108955614
vt 0.028775139 -0.108955614
vt 0.028847419 -0.108405
vt 0.028847419 -0.108405
vt 0.028847419 -0.108405
vt 0.028847419 -0.108405
vt 0.028919699 -0.107854396
vt 0.028919699 -0.107854396
vt 0.028919699 -0.107854396
vt 0.028919699 -0.107854396
vt 0.028991979 -0.10730379
vt 0.028991979 -0.10730379
vt 0.028991979 -0.10730379
vt 0.028991979 -0.10730379
vt 0.029064221 -0.10675347
vt 0.029064221 -0.10675347
vt 0.029064221 -0.10675347
vt 0.029064221 -0.10675347
vt 0.029112892 -0.10636099
vt 0.029112892 -0.10636099
vt 0.029112892 -0.10636099
vt 0.029112892 -0.10636099
vt 0.02914592 -0.10607316
vt 0.02914592 -0.10607316
vt 0.02914592 -0.10607316
vt 0.02914592 -0.10607316
vt 0.02917901 -0.105784826
vt 0.02917901 -0.105784826
vt 0.02917901 -0.105784826
vt 0.02917901 -0.105784826
vt 0.0292121 -0.105496496
vt 0.0292121 -0.105496496
vt 0.0292121 -0.105496496
vt 0.0292121 -0.105496496
vt 0.02924519 -0.10520816
vt 0.02924519 -0.10520816
vt 0.02924519 -0.10520816
vt 0.02924519 -0.10520816
vt 0.02927828 -0.10491982
vt 0.02927828 -0.10491982
vt 0.02927828 -0.10491982
vt 0.02927828 -0.10491982
vt 0.02931137 -0.10463148
vt 0.02931137 -0.10463148
vt 0.02931137 -0.10463148
vt 0.02931137 -0.10463148
vt 0.029344456 -0.104343176
vt 0.029344456 -0.104343176
vt 0.029344456 -0.104343176
vt 0.029344456 -0.104343176
vt 0.029380523 -0.10402868
vt 0.029380523 -0.10402868
vt 0.029380523 -0.10402868
vt 0.029380523 -0.10402868
vt 0.029443577 -0.103476994
vt 0.029443577 -0.103476994
vt 0.029443577 -0.103476994
vt 0.029443577 -0.103476994
vt 0.02950664 -0.10292522
vt 0.02950664 -0.10292522
vt 0.02950664 -0.10292522
vt 0.02950664 -0.10292522
vt 0.029569706 -0.10237346
vt 0.029569706 -0.10237346
vt 0.029569706 -0.10237346
vt 0.029569706 -0.10237346
vt 0.029632768 -0.10182168
vt 0.029632768 -0.10182168
vt 0.029632768 -0.10182168
vt 0.029632768 -0.10182168
vt 0.029695833 -0.101269916
vt 0.029695833 -0.101269916
vt 0.029695833 -0.101269916
vt 0.029695833 -0.101269916
vt 0.029758897 -0.10071815
vt 0.029758897 -0.10071815
vt 0.029758897 -0.10071815
vt 0.029758897 -0.10071815
vt 0.02979043 -0.10044226
vt 0.02979043 -0.10044226
vn -0 1 0
vn -0 1 0
vn -0 1 0
vn -0 1 0
vn -0 1 0
vn -0 1 0
vn -0 1 0
vn -0 1 0
vn -0 1 0
vn -0 1 0
vn -0 1 0
vn -0 1 0
vn -0 1 0
vn -0 1 0
vn -0 1 0
vn -0 1 0
vn -0 1 0
vn -0 1 0
vn -0 1 0
vn -0 1 0
vn -0 1 0
vn -0 1 0
vn -0 1 0
vn -0 1 0
vn -0 1 0
vn -0 1 0
vn -0 1 0
vn -0 1 0
vn -0 1 0
vn -0 1 0
vn -0 1 0
vn -0 1 0
vn -0 1 0
vn -0 1 0
vn -0 1 0
vn -0 1 0
vn -0 1 0
vn -0 1 0
vn -0 1 0
vn -0 1 0
vn -0 1 0
vn -0 1 0
vn -0 1 0
vn -0 1 0
vn -0 1 0
vn -0 1 0
vn -0 1 0
vn -0 1 0
vn -0 1 0
vn -0 1 0
vn -0 1 0
vn -0 1 0
vn -0 1 0
vn -0 1 0
vn -0 1 0
vn -0 1 0
vn -0 1 0
vn -0 1 0
vn -0 1 0
vn -0 1 0
vn -0 1 0
vn -0 1 0
vn -0 1 0
vn -0 1 0
vn -0 1 0
vn -0 1 0
vn -0 1 0
vn -0 1 0
vn -0 1 0
vn -0 1 0
vn -0 1 0
vn -0 1 0
vn -0 1 0
vn -0 1 0
vn -0 1 0
vn -0 1 0
vn -0 1 0
vn -0 1 0
vn 0.7958446 0 0.6055009
vn 0.7958446 0 0.6055009
vn 0.6055022 -0 -0.7958436
vn 0.6055022 -0 -0.7958436
vn 0.60550296 0 -0.795843
vn 0.60550296 -0 -0.795843
vn 0.60550296 -0 -0.795843
vn 0.60550296 -0 -0.795843
vn 0.605097 0 -0.79615176
vn 0.605097 -0 -0.79615176
vn 0.605097 -0 -0.79615176
vn 0.605097 -0 -0.79615176
vn 0.6013851 0 -0.7989593
vn 0.6013851 -0 -0.7989593
vn 0.6013851 -0 -0.7989593
vn 0.6013851 -0 -0.7989593
vn 0.60138375 0 -0.7989604
vn 0.60138375 -0 -0.7989604
vn 0.60138375 -0 -0.7989604
vn 0.60138375 -0 -0.7989604
vn 0.59723634 0 -0.80206525
vn 0.59723634 -0 -0.80206525
vn 0.59723634 -0 -0.80206525
vn 0.59723634 -0 -0.80206525
vn 0.5876639 0 -0.80910516
vn 0.5876639 -0 -0.80910516
vn 0.5876639 -0 -0.80910516
vn 0.5876639 -0 -0.80910516
vn 0.5876611 0 -0.8091072
vn 0.5876611 -0 -0.8091072
vn 0.5876611 -0 -0.8091072
vn 0.5876611 -0 -0.8091072
vn 0.5909097 0 -0.8067376
vn 0.5909097 -0 -0.8067376
vn 0.5909097 -0 -0.8067376
vn 0.5909097 -0 -0.8067376
vn 0.594671 0 -0.80396914
vn 0.594671 -0 -0.80396914
vn 0.594671 -0 -0.80396914
vn 0.594671 -0 -0.80396914
vn 0.5899698 0 -0.8074253
vn 0.5899698 -0 -0.8074253
vn 0.5899698 -0 -0.8074253
vn 0.5899698 -0 -0.8074253
vn 0.5625674 0 -0.8267514
vn 0.5625674 -0 -0.8267514
vn 0.5625674 -0 -0.8267514
vn 0.5625674 -0 -0.8267514
vn 0.5625105 0 -0.82679015
vn 0.5625105 -0 -0.82679015
vn 0.5625105 -0 -0.82679015
vn 0.5625105 -0 -0.82679015
vn 0.5438012 0 -0.8392141
vn 0.5438012 -0 -0.8392141
vn 0.5438012 -0 -0.8392141
vn 0.5438012 -0 -0.8392141
vn 0.5306704 0 -0.8475783
vn 0.5306704 -0 -0.8475783
vn 0.5306704 -0 -0.8475783
vn 0.5306704 -0 -0.8475783
vn 0.5331333 0 -0.8460312
vn 0.5331333 -0 -0.8460312
vn 0.5331333 -0 -0.8460312
vn 0.5331333 -0 -0.8460312
vn 0.5436396 0 -0.83931875
vn 0.5436396 -0 -0.83931875
vn 0.5436396 -0 -0.83931875
vn 0.5436396 -0 -0.83931875
vn 0.5436366 0 -0.83932066
vn 0.5436366 -0 -0.83932066
vn 0.5436366 -0 -0.83932066
vn 0.5436366 -0 -0.83932066
vn 0.54363674 0 -0.83932066
vn 0.5436367 -0 -0.83932066
vn 0.5436367 -0 -0.83932066
vn 0.5436367 -0 -0.83932066
vn 0.5436368 0 -0.83932054
vn 0.54363686 -0 -0.83932054
vn 0.54363686 -0 -0.83932054
vn 0.54363686 -0 -0.83932054
vn 0.54363626 0 -0.8393209
vn 0.54363626 -0 -0.8393209
vn 0.54363626 -0 -0.8393209
vn 0.54363626 -0 -0.8393209
vn 0.54363567 0 -0.8393213
vn 0.54363567 -0 -0.8393213
vn 0.54363567 -0 -0.8393213
vn 0.54363567 -0 -0.8393213
vn 0.5391314 0 -0.8422217
vn 0.5391314 -0 -0.8422217
vn 0.5391314 -0 -0.8422217
vn 0.5391314 -0 -0.8422217
vn 0.53336775 0 -0.84588337
vn 0.53336775 -0 -0.84588337
vn 0.53336775 -0 -0.84588337
vn 0.53336775 -0 -0.84588337
vn 0.5333692 0 -0.84588253
vn 0.5333692 -0 -0.84588253
vn 0.5333692 -0 -0.84588253
vn 0.5333692 -0 -0.84588253
vn 0.5333695 0 -0.84588236
vn 0.5333694 -0 -0.8458824
vn 0.5333694 -0 -0.8458824
vn 0.5333694 -0 -0.8458824
vn 0.53336895 0 -0.8458827
vn 0.533369 -0 -0.84588265
vn 0.533369 -0 -0.84588265
vn 0.533369 -0 -0.84588265
vn 0.53336906 0 -0.8458826
vn 0.53336906 -0 -0.8458826
vn 0.53336906 -0 -0.8458826
vn 0.53336906 -0 -0.8458826
vn 0.5333698 0 -0.8458822
vn 0.5333698 -0 -0.8458822
vn 0.5333698 -0 -0.8458822
vn 0.5333698 -0 -0.8458822
vn 0.53336865 0 -0.84588295
vn 0.53336865 -0 -0.84588295
vn 0.53336865 -0 -0.84588295
vn 0.53336865 -0 -0.84588295
vn 0.5326938 0 -0.8463081
vn 0.5326938 -0 -0.8463081
vn 0.5326938 -0 -0.8463081
vn 0.5326938 -0 -0.8463081
vn 0.52952135 0 -0.8482966
vn 0.52952135 -0 -0.8482966
vn 0.52952135 -0 -0.8482966
vn 0.52952135 -0 -0.8482966
vn 0.5295215 0 -0.84829646
vn 0.5295215 -0 -0.84829646
vn 0.5295215 -0 -0.84829646
vn 0.5295215 -0 -0.84829646
vn 0.5295218 0 -0.84829634
vn 0.5295218 -0 -0.84829634
vn 0.5295218 -0 -0.84829634
vn 0.5295218 -0 -0.84829634
vn 0.5295211 0 -0.84829676
vn 0.5295211 -0 -0.84829676
vn 0.5295211 -0 -0.84829676
vn 0.5295211 -0 -0.84829676
vn 0.5295215 0 -0.84829646
vn 0.5295215 -0 -0.84829646
vn 0.5295215 -0 -0.84829646
vn 0.5295215 -0 -0.84829646
vn 0.52952176 0 -0.84829634
vn 0.52952176 -0 -0.84829634
vn 0.52952176 -0 -0.84829634
vn 0.52952176 -0 -0.84829634
vn 0.5295213 0 -0.84829664
vn 0.5295213 -0 -0.84829664
vn -0.8489106 0 -0.5285364
vn -0.8489106 0 -0.5285364
vn 0.7958446 0 0.6055009
vn 0.7958446 0 0.6055009
vn -0.6055022 0 0.7958436
vn -0.6055022 0 0.7958436
vn -0.60550284 -0 0.79584306
vn -0.60550284 0 0.79584306
vn -0.60550284 0 0.79584306
vn -0.60550284 0 0.79584306
vn -0.6050974 -0 0.7961514
vn -0.6050974 0 0.7961514
vn -0.6050974 0 0.7961514
vn -0.6050974 0 0.7961514
vn -0.60138506 -0 0.7989594
vn -0.60138506 0 0.7989594
vn -0.60138506 0 0.7989594
vn -0.60138506 0 0.7989594
vn -0.6013849 -0 0.7989595
vn -0.6013849 0 0.7989595
vn -0.6013849 0 0.7989595
vn -0.6013849 0 0.7989595
vn -0.5972389 -0 0.80206347
vn -0.5972389 0 0.80206347
vn -0.5972389 0 0.80206347
vn -0.5972389 0 0.80206347
vn -0.58765996 -0 0.809108
vn -0.58765996 0 0.809108
vn -0.58765996 0 0.809108
vn -0.58765996 0 0.809108
vn -0.5876612 -0 0.80910707
vn -0.5876612 0 0.80910707
vn -0.5876612 0 0.80910707
vn -0.5876612 0 0.80910707
vn -0.5909099 -0 0.8067375
vn -0.5909099 0 0.8067375
vn -0.5909099 0 0.8067375
vn -0.5909099 0 0.8067375
vn -0.5946713 -0 0.8039689
vn -0.5946713 0 0.8039689
vn -0.5946713 0 0.8039689
vn -0.5946713 0 0.8039689
vn -0.5899999 -0 0.8074034
vn -0.5899999 0 0.8074034
vn -0.5899999 0 0.8074034
vn -0.5899999 0 0.8074034
vn -0.5624878 -0 0.82680565
vn -0.5624878 0 0.82680565
vn -0.5624878 0 0.82680565
vn -0.5624878 0 0.82680565
vn -0.562544 -0 0.8267674
vn -0.562544 0 0.8267674
vn -0.562544 0 0.8267674
vn -0.562544 0 0.8267674
vn -0.5437949 -0 0.8392182
vn -0.5437949 0 0.8392182
vn -0.5437949 0 0.8392182
vn -0.5437949 0 0.8392182
vn -0.53066325 -0 0.8475827
vn -0.53066325 0 0.8475827
vn -0.53066325 0 0.8475827
vn -0.53066325 0 0.8475827
vn -0.53276503 -0 0.84626323
vn -0.53276503 0 0.84626323
vn -0.53276503 0 0.84626323
vn -0.53276503 0 0.84626323
vn -0.5416862 -0 0.8405808
vn -0.5416862 0 0.8405808
vn -0.5416862 0 0.8405808
vn -0.5416862 0 0.8405808
vn -0.54168814 -0 0.8405795
vn -0.5416882 0 0.84057945
vn -0.5416882 0 0.84057945
vn -0.5416882 0 0.84057945
vn -0.5416881 -0 0.84057957
vn -0.5416881 0 0.84057957
vn -0.5416881 0 0.84057957
vn -0.5416881 0 0.84057957
vn -0.54168767 -0 0.8405798
vn -0.5416877 0 0.84057987
vn -0.5416877 0 0.84057987
vn -0.5416877 0 0.84057987
vn -0.54168814 -0 0.84057957
vn -0.54168814 0 0.84057957
vn -0.54168814 0 0.84057957
vn -0.54168814 0 0.84057957
vn -0.54168797 -0 0.8405797
vn -0.54168797 0 0.8405797
vn -0.54168797 0 0.8405797
vn -0.54168797 0 0.8405797
vn -0.53566194 -0 0.8444325
vn -0.53566194 0 0.8444325
vn -0.53566194 0 0.8444325
vn -0.53566194 0 0.8444325
vn -0.5279357 -0 0.84928435
vn -0.5279357 0 0.84928435
vn -0.5279357 0 0.84928435
vn -0.5279357 0 0.84928435
vn -0.5279437 -0 0.84927934
vn -0.5279437 0 0.84927934
vn -0.5279437 0 0.84927934
vn -0.5279437 0 0.84927934
vn -0.5279441 -0 0.8492791
vn -0.5279441 0 0.84927917
vn -0.5279441 0 0.84927917
vn -0.5279441 0 0.84927917
vn -0.527944 -0 0.84927917
vn -0.527944 0 0.8492791
vn -0.527944 0 0.8492791
vn -0.527944 0 0.8492791
vn -0.5279439 -0 0.8492793
vn -0.5279439 0 0.8492793
vn -0.5279439 0 0.8492793
vn -0.5279439 0 0.8492793
vn -0.5279439 -0 0.8492793
vn -0.5279439 0 0.8492793
vn -0.5279439 0 0.8492793
vn -0.5279439 0 0.8492793
vn -0.52794343 -0 0.8492796
vn -0.52794343 0 0.8492796
vn -0.52794343 0 0.8492796
vn -0.52794343 0 0.8492796
vn -0.52787447 -0 0.8493224
vn -0.52787447 0 0.8493224
vn -0.52787447 0 0.8493224
vn -0.52787447 0 0.8493224
vn -0.527552 -0 0.84952277
vn -0.527552 0 0.84952277
vn -0.527552 0 0.84952277
vn -0.527552 0 0.84952277
vn -0.52755225 -0 0.84952265
vn -0.52755225 0 0.84952265
vn -0.52755225 0 0.84952265
vn -0.52755225 0 0.84952265
vn -0.5275522 -0 0.84952265
vn -0.5275522 0 0.84952265
vn -0.5275522 0 0.84952265
vn -0.5275522 0 0.84952265
vn -0.5275522 -0 0.84952265
vn -0.5275522 0 0.84952265
vn -0.5275522 0 0.84952265
vn -0.5275522 0 0.84952265
vn -0.52755255 -0 0.8495224
vn -0.52755255 0 0.8495224
vn -0.52755255 0 0.8495224
vn -0.52755255 0 0.8495224
vn -0.52755207 -0 0.8495227
vn -0.52755207 0 0.8495227
vn -0.52755207 0 0.8495227
vn -0.52755207 0 0.8495227
vn -0.527552 -0 0.84952265
vn -0.527552 0 0.84952265
vn -0.8489106 0 -0.5285364
vn -0.8489106 0 -0.5285364
g _0
f 3/3/3 2/2/2 1/1/1
f 2/2/2 3/3/3 4/4/4
f 5/5/5 4/4/4 3/3/3
f 4/4/4 5/5/5 6/6/6
f 7/7/7 6/6/6 5/5/5
f 6/6/6 7/7/7 8/8/8
f 9/9/9 8/8/8 7/7/7
f 8/8/8 9/9/9 10/10/10
f 11/11/11 10/10/10 9/9/9
f 10/10/10 11/11/11 12/12/12
f 13/13/13 12/12/12 11/11/11
f 12/12/12 13/13/13 14/14/14
f 15/15/15 14/14/14 13/13/13
f 14/14/14 15/15/15 16/16/16
f 17/17/17 16/16/16 15/15/15
f 16/16/16 17/17/17 18/18/18
f 19/19/19 18/18/18 17/17/17
f 18/18/18 19/19/19 20/20/20
f 21/21/21 20/20/20 19/19/19
f 20/20/20 21/21/21 22/22/22
f 23/23/23 22/22/22 21/21/21
f 22/22/22 23/23/23 24/24/24
f 25/25/25 24/24/24 23/23/23
f 24/24/24 25/25/25 26/26/26
f 27/27/27 26/26/26 25/25/25
f 26/26/26 27/27/27 28/28/28
f 29/29/29 28/28/28 27/27/27
f 28/28/28 29/29/29 30/30/30
f 31/31/31 30/30/30 29/29/29
f 30/30/30 31/31/31 32/32/32
f 33/33/33 32/32/32 31/31/31
f 32/32/32 33/33/33 34/34/34
f 35/35/35 34/34/34 33/33/33
f 34/34/34 35/35/35 36/36/36
f 37/37/37 36/36/36 35/35/35
f 36/36/36 37/37/37 38/38/38
f 39/39/39 38/38/38 37/37/37
f 38/38/38 39/39/39 40/40/40
f 41/41/41 40/40/40 39/39/39
f 40/40/40 41/41/41 42/42/42
f 43/43/43 42/42/42 41/41/41
f 42/42/42 43/43/43 44/44/44
f 45/45/45 44/44/44 43/43/43
f 44/44/44 45/45/45 46/46/46
f 47/47/47 46/46/46 45/45/45
f 46/46/46 47/47/47 48/48/48
f 49/49/49 48/48/48 47/47/47
f 48/48/48 49/49/49 50/50/50
f 51/51/51 50/50/50 49/49/49
f 50/50/50 51/51/51 52/52/52
f 53/53/53 52/52/52 51/51/51
f 52/52/52 53/53/53 54/54/54
f 55/55/55 54/54/54 53/53/53
f 54/54/54 55/55/55 56/56/56
f 57/57/57 56/56/56 55/55/55
f 56/56/56 57/57/57 58/58/58
f 59/59/59 58/58/58 57/57/57
f 58/58/58 59/59/59 60/60/60
f 61/61/61 60/60/60 59/59/59
f 60/60/60 61/61/61 62/62/62
f 63/63/63 62/62/62 61/61/61
f 62/62/62 63/63/63 64/64/64
f 65/65/65 64/64/64 63/63/63
f 64/64/64 65/65/65 66/66/66
f 67/67/67 66/66/66 65/65/65
f 66/66/66 67/67/67 68/68/68
f 69/69/69 68/68/68 67/67/67
f 68/68/68 69/69/69 70/70/70
f 71/71/71 70/70/70 69/69/69
f 70/70/70 71/71/71 72/72/72
f 73/73/73 72/72/72 71/71/71
f 72/72/72 73/73/73 74/74/74
f 75/75/75 74/74/74 73/73/73
f 74/74/74 75/75/75 76/76/76
f 77/77/77 76/76/76 75/75/75
f 76/76/76 77/77/77 78/78/78
g _1
f 79/79/79 80/80/80 81/81/81
f 82/82/82 81/81/81 80/80/80
f 83/83/83 84/84/84 85/85/85
f 86/86/86 85/85/85 84/84/84
f 87/87/87 88/88/88 89/89/89
f 90/90/90 89/89/89 88/88/88
f 91/91/91 92/92/92 93/93/93
f 94/94/94 93/93/93 92/92/92
f 95/95/95 96/96/96 97/97/97
f 98/98/98 97/97/97 96/96/96
f 99/99/99 100/100/100 101/101/101
f 102/102/102 101/101/101 100/100/100
f 103/103/103 104/104/104 105/105/105
f 106/106/106 105/105/105 104/104/104
f 107/107/107 108/108/108 109/109/109
f 110/110/110 109/109/109 108/108/108
f 111/111/111 112/112/112 113/113/113
f 114/114/114 113/113/113 112/112/112
f 115/115/115 116/116/116 117/117/117
f 118/118/118 117/117/117 116/116/116
f 119/119/119 120/120/120 121/121/121
f 122/122/122 121/121/121 120/120/120
f 123/123/123 124/124/124 125/125/125
f 126/126/126 125/125/125 124/124/124
f 127/127/127 128/128/128 129/129/129
f 130/130/130 129/129/129 128/128/128
f 131/131/131 132/132/132 133/133/133
f 134/134/134 133/133/133 132/132/132
f 135/135/135 136/136/136 137/137/137
f 138/138/138 137/137/137 136/136/136
f 139/139/139 140/140/140 141/141/141
f 142/142/142 141/141/141 140/140/140
f 143/143/143 144/144/144 145/145/145
f 146/146/146 145/145/145 144/144/144
f 147/147/147 148/148/148 149/149/149
f 150/150/150 149/149/149 148/148/148
f 151/151/151 152/152/152 153/153/153
f 154/154/154 153/153/153 152/152/152
f 155/155/155 156/156/156 157/157/157
f 158/158/158 157/157/157 156/156/156
f 159/159/159 160/160/160 161/161/161
f 162/162/162 161/161/161 160/160/160
f 163/163/163 164/164/164 165/165/165
f 166/166/166 165/165/165 164/164/164
f 167/167/167 168/168/168 169/169/169
f 170/170/170 169/169/169 168/168/168
f 171/171/171 172/172/172 173/173/173
f 174/174/174 173/173/173 172/172/172
f 175/175/175 176/176/176 177/177/177
f 178/178/178 177/177/177 176/176/176
f 179/179/179 180/180/180 181/181/181
f 182/182/182 181/181/181 180/180/180
f 183/183/183 184/184/184 185/185/185
f 186/186/186 185/185/185 184/184/184
f 187/187/187 188/188/188 189/189/189
f 190/190/190 189/189/189 188/188/188
f 191/191/191 192/192/192 193/193/193
f 194/194/194 193/193/193 192/192/192
f 195/195/195 196/196/196 197/197/197
f 198/198/198 197/197/197 196/196/196
f 199/199/199 200/200/200 201/201/201
f 202/202/202 201/201/201 200/200/200
f 203/203/203 204/204/204 205/205/205
f 206/206/206 205/205/205 204/204/204
f 207/207/207 208/208/208 209/209/209
f 210/210/210 209/209/209 208/208/208
f 211/211/211 212/212/212 213/213/213
f 214/214/214 213/213/213 212/212/212
f 215/215/215 216/216/216 217/217/217
f 218/218/218 217/217/217 216/216/216
f 219/219/219 220/220/220 221/221/221
f 222/222/222 221/221/221 220/220/220
f 223/223/223 224/224/224 225/225/225
f 226/226/226 225/225/225 224/224/224
f 227/227/227 228/228/228 229/229/229
f 230/230/230 229/229/229 228/228/228
f 233/233/233 232/232/232 231/231/231
f 232/232/232 233/233/233 234/234/234
f 237/237/237 236/236/236 235/235/235
f 236/236/236 237/237/237 238/238/238
f 241/241/241 240/240/240 239/239/239
f 240/240/240 241/241/241 242/242/242
f 245/245/245 244/244/244 243/243/243
f 244/244/244 245/245/245 246/246/246
f 249/249/249 248/248/248 247/247/247
f 248/248/248 249/249/249 250/250/250
f 253/253/253 252/252/252 251/251/251
f 252/252/252 253/253/253 254/254/254
f 257/257/257 256/256/256 255/255/255
f 256/256/256 257/257/257 258/258/258
f 261/261/261 260/260/260 259/259/259
f 260/260/260 261/261/261 262/262/262
f 265/265/265 264/264/264 263/263/263
f 264/264/264 265/265/265 266/266/266
f 269/269/269 268/268/268 267/267/267
f 268/268/268 269/269/269 270/270/270
f 273/273/273 272/272/272 271/271/271
f 272/272/272 273/273/273 274/274/274
f 277/277/277 276/276/276 275/275/275
f 276/276/276 277/277/277 278/278/278
f 281/281/281 280/280/280 279/279/279
f 280/280/280 281/281/281 282/282/282
f 285/285/285 284/284/284 283/283/283
f 284/284/284 285/285/285 286/286/286
f 289/289/289 288/288/288 287/287/287
f 288/288/288 289/289/289 290/290/290
f 293/293/293 292/292/292 291/291/291
f 292/292/292 293/293/293 294/294/294
f 297/297/297 296/296/296 295/295/295
f 296/296/296 297/297/297 298/298/298
f 301/301/301 300/300/300 299/299/299
f 300/300/300 301/301/301 302/302/302
f 305/305/305 304/304/304 303/303/303
f 304/304/304 305/305/305 306/306/306
f 309/309/309 308/308/308 307/307/307
f 308/308/308 309/309/309 310/310/310
f 313/313/313 312/312/312 311/311/311
f 312/312/312 313/313/313 314/314/314
f 317/317/317 316/316/316 315/315/315
f 316/316/316 317/317/317 318/318/318
f 321/321/321 320/320/320 319/319/319
f 320/320/320 321/321/321 322/322/322
f 325/325/325 324/324/324 323/323/323
f 324/324/324 325/325/325 326/326/326
f 329/329/329 328/328/328 327/327/327
f 328/328/328 329/329/329 330/330/330
f 333/333/333 332/332/332 331/331/331
f 332/332/332 333/333/333 334/334/334
f 337/337/337 336/336/336 335/335/335
f 336/336/336 337/337/337 338/338/338
f 341/341/341 340/340/340 339/339/339
f 340/340/340 341/341/341 342/342/342
f 345/345/345 344/344/344 343/343/343
f 344/344/344 345/345/345 346/346/346
f 349/349/349 348/348/348 347/347/347
f 348/348/348 349/349/349 350/350/350
f 353/353/353 352/352/352 351/351/351
f 352/352/352 353/353/353 354/354/354
f 357/357/357 356/356/356 355/355/355
f 356/356/356 357/357/357 358/358/358
f 361/361/361 360/360/360 359/359/359
f 360/360/360 361/361/361 362/362/362
f 365/365/365 364/364/364 363/363/363
f 364/364/364 365/365/365 366/366/366
f 369/369/369 368/368/368 367/367/367
f 368/368/368 369/369/369 370/370/370
f 373/373/373 372/372/372 371/371/371
f 372/372/372 373/373/373 374/374/374
f 377/377/377 376/376/376 375/375/375
f 376/376/376 377/377/377 378/378/378
f 381/381/381 380/380/380 379/379/379
f 380/380/380 381/381/381 382/382/382
f 231/231/231 80/80/80 79/79/79
f 80/80/80 231/231/231 232/232/232
f 229/229/229 230/230/230 381/381/381
f 382/382/382 381/381/381 230/230/230
