g 
v 78.784065 18.6 -102.09092
v 93.133934 18.6 -86.62211
v 69.18415 18.6 -104.298065
v 94.615425 18.6 -76.88379
v 56.35405 18.6 -98.47374
v 87.84595 18.6 -64.52626
v 50.212704 18.6 -92.410675
v 81.31845 18.6 -58.83688
v 43.453987 18.6 -85.64534
v 73.985214 18.6 -52.56108
v 36.86183 18.6 -78.82637
v 66.44935 18.6 -46.378883
v 30.104332 18.6 -72.21582
v 58.961597 18.6 -40.118195
v 23.495182 18.6 -65.532974
v 51.238335 18.6 -33.97963
v 18.899729 18.6 -56.488235
v 41.07077 18.6 -30.263731
v 14.310208 18.6 -47.03644
v 30.617685 18.6 -27.277523
v 12.656986 18.6 -44.496086
v 27.743015 18.6 -26.10391
v 8.799275 18.6 -38.371338
v 20.981997 18.6 -23.518738
v 9.254309 18.6 -33.331524
v 16.128544 18.6 -24.950783
v 78.784065 18.6 -102.09092
v 78.784065 -11.4 -102.09092
v 69.18415 18.6 -104.298065
v 69.18415 -11.4 -104.298065
v 69.18415 18.6 -104.298065
v 69.18415 -11.4 -104.298065
v 56.35405 18.6 -98.47374
v 56.35405 -11.4 -98.47374
v 56.35405 18.6 -98.47374
v 56.35405 -11.4 -98.47374
v 50.212704 18.6 -92.410675
v 50.212704 -11.4 -92.410675
v 50.212704 18.6 -92.410675
v 50.212704 -11.4 -92.410675
v 43.453987 18.6 -85.64534
v 43.453987 -11.4 -85.64534
v 43.453987 18.6 -85.64534
v 43.453987 -11.4 -85.64534
v 36.86183 18.6 -78.82637
v 36.86183 -11.4 -78.82637
v 36.86183 18.6 -78.82637
v 36.86183 -11.4 -78.82637
v 30.104332 18.6 -72.21582
v 30.104332 -11.4 -72.21582
v 30.104332 18.6 -72.21582
v 30.104332 -11.4 -72.21582
v 23.495182 18.6 -65.532974
v 23.495182 -11.4 -65.532974
v 23.495182 18.6 -65.532974
v 23.495182 -11.4 -65.532974
v 18.899729 18.6 -56.488235
v 18.899729 -11.4 -56.488235
v 18.899729 18.6 -56.488235
v 18.899729 -11.4 -56.488235
v 14.310208 18.6 -47.03644
v 14.310208 -11.4 -47.03644
v 14.310208 18.6 -47.03644
v 14.310208 -11.4 -47.03644
v 12.656986 18.6 -44.496086
v 12.656986 -11.4 -44.496086
v 12.656986 18.6 -44.496086
v 12.656986 -11.4 -44.496086
v 8.799275 18.6 -38.371338
v 8.799275 -11.4 -38.371338
v 8.799275 18.6 -38.371338
v 8.799275 -11.4 -38.371338
v 9.254309 18.6 -33.331524
v 9.254309 -11.4 -33.331524
v 93.133934 18.6 -86.62211
v 93.133934 -11.4 -86.62211
v 94.615425 18.6 -76.88379
v 94.615425 -11.4 -76.88379
v 94.615425 18.6 -76.88379
v 94.615425 -11.4 -76.88379
v 87.84595 18.6 -64.52626
v 87.84595 -11.4 -64.52626
v 87.84595 18.6 -64.52626
v 87.84595 -11.4 -64.52626
v 81.31845 18.6 -58.83688
v 81.31845 -11.4 -58.83688
v 81.31845 18.6 -58.83688
v 81.31845 -11.4 -58.83688
v 73.985214 18.6 -52.56108
v 73.985214 -11.4 -52.56108
v 73.985214 18.6 -52.56108
v 73.985214 -11.4 -52.56108
v 66.44935 18.6 -46.378883
v 66.44935 -11.4 -46.378883
v 66.44935 18.6 -46.378883
v 66.44935 -11.4 -46.378883
v 58.961597 18.6 -40.118195
v 58.961597 -11.4 -40.118195
v 58.961597 18.6 -40.118195
v 58.961597 -11.4 -40.118195
v 51.238335 18.6 -33.97963
v 51.238335 -11.4 -33.97963
v 51.238335 18.6 -33.97963
v 51.238335 -11.4 -33.97963
v 41.07077 18.6 -30.263731
v 41.07077 -11.4 -30.263731
v 41.07077 18.6 -30.263731
v 41.07077 -11.4 -30.263731
v 30.617685 18.6 -27.277523
v 30.617685 -11.4 -27.277523
v 30.617685 18.6 -27.277523
v 30.617685 -11.4 -27.277523
v 27.743015 18.6 -26.10391
v 27.743015 -11.4 -26.10391
v 27.743015 18.6 -26.10391
v 27.743015 -11.4 -26.10391
v 20.981997 18.6 -23.518738
v 20.981997 -11.4 -23.518738
v 20.981997 18.6 -23.518738
v 20.981997 -11.4 -23.518738
v 16.128544 18.6 -24.950783
v 16.128544 -11.4 -24.950783
vt 0.0028280325 -0.09271383
vt 0.003135733 -0.11381142
vt -0.002827057 -0.08464849
vt -0.002281726 -0.12203826
vt -0.016257772 -0.08038818
vt -0.015582482 -0.12668845
vt -0.02487877 -0.08078223
vt -0.02424026 -0.12654641
vt -0.034428507 -0.08128482
vt -0.033889182 -0.12630075
vt -0.04389039 -0.08193875
vt -0.043626 -0.12584992
vt -0.05333562 -0.08232715
vt -0.053379603 -0.12548961
vt -0.06271902 -0.08286856
vt -0.06322645 -0.12488093
vt -0.0721872 -0.08651261
vt -0.07326776 -0.12083626
vt -0.081923425 -0.09046306
vt -0.08303279 -0.116058335
vt -0.08485205 -0.0912439
vt -0.08595411 -0.11500618
vt -0.09181768 -0.093212284
vt -0.09270764 -0.112401515
vt -0.0948529 -0.09726126
vt -0.09535507 -0.10808899
vt 0.0028280325 -0.09271383
vt 0.0028280325 -0.09271383
vt -0.002827057 -0.08464849
vt -0.002827057 -0.08464849
vt -0.002827057 -0.08464849
vt -0.002827057 -0.08464849
vt -0.016257772 -0.08038818
vt -0.016257772 -0.08038818
vt -0.016257772 -0.08038818
vt -0.016257772 -0.08038818
vt -0.02487877 -0.08078223
vt -0.02487877 -0.08078223
vt -0.02487877 -0.08078223
vt -0.02487877 -0.08078223
vt -0.034428507 -0.08128482
vt -0.034428507 -0.08128482
vt -0.034428507 -0.08128482
vt -0.034428507 -0.08128482
vt -0.04389039 -0.08193875
vt -0.04389039 -0.08193875
vt -0.04389039 -0.08193875
vt -0.04389039 -0.08193875
vt -0.05333562 -0.08232715
vt -0.05333562 -0.08232715
vt -0.05333562 -0.08232715
vt -0.05333562 -0.08232715
vt -0.06271902 -0.08286856
vt -0.06271902 -0.08286856
vt -0.06271902 -0.08286856
vt -0.06271902 -0.08286856
vt -0.0721872 -0.08651261
vt -0.0721872 -0.08651261
vt -0.0721872 -0.08651261
vt -0.0721872 -0.08651261
vt -0.081923425 -0.09046306
vt -0.081923425 -0.09046306
vt -0.081923425 -0.09046306
vt -0.081923425 -0.09046306
vt -0.08485205 -0.0912439
vt -0.08485205 -0.0912439
vt -0.08485205 -0.0912439
vt -0.08485205 -0.0912439
vt -0.09181768 -0.093212284
vt -0.09181768 -0.093212284
vt -0.09181768 -0.093212284
vt -0.09181768 -0.093212284
vt -0.0948529 -0.09726126
vt -0.0948529 -0.09726126
vt 0.003135733 -0.11381142
vt 0.003135733 -0.11381142
vt -0.002281726 -0.12203826
vt -0.002281726 -0.12203826
vt -0.002281726 -0.12203826
vt -0.002281726 -0.12203826
vt -0.015582482 -0.12668845
vt -0.015582482 -0.12668845
vt -0.015582482 -0.12668845
vt -0.015582482 -0.12668845
vt -0.02424026 -0.12654641
vt -0.02424026 -0.12654641
vt -0.02424026 -0.12654641
vt -0.02424026 -0.12654641
vt -0.033889182 -0.12630075
vt -0.033889182 -0.12630075
vt -0.033889182 -0.12630075
vt -0.033889182 -0.12630075
vt -0.043626 -0.12584992
vt -0.043626 -0.12584992
vt -0.043626 -0.12584992
vt -0.043626 -0.12584992
vt -0.053379603 -0.12548961
vt -0.053379603 -0.12548961
vt -0.053379603 -0.12548961
vt -0.053379603 -0.12548961
vt -0.06322645 -0.12488093
vt -0.06322645 -0.12488093
vt -0.06322645 -0.12488093
vt -0.06322645 -0.12488093
vt -0.07326776 -0.12083626
vt -0.07326776 -0.12083626
vt -0.07326776 -0.12083626
vt -0.07326776 -0.12083626
vt -0.08303279 -0.116058335
vt -0.08303279 -0.116058335
vt -0.08303279 -0.116058335
vt -0.08303279 -0.116058335
vt -0.08595411 -0.11500618
vt -0.08595411 -0.11500618
vt -0.08595411 -0.11500618
vt -0.08595411 -0.11500618
vt -0.09270764 -0.112401515
vt -0.09270764 -0.112401515
vt -0.09270764 -0.112401515
vt -0.09270764 -0.112401515
vt -0.09535507 -0.10808899
vt -0.09535507 -0.10808899
vn -0 1 0
vn -0 1 0
vn -0 1 0
vn -0 1 0
vn -0 1 0
vn -0 1 0
vn -0 1 0
vn -0 1 0
vn -0 1 0
vn -0 1 0
vn -0 1 0
vn -0 1 0
vn -0 1 0
vn -0 1 0
vn -0 1 0
vn -0 1 0
vn -0 1 0
vn -0 1 0
vn -0 1 0
vn -0 1 0
vn -0 1 0
vn -0 1 0
vn -0 1 0
vn -0 1 0
vn -0 1 0
vn -0 1 0
vn 0.73312485 0 -0.680094
vn 0.73312485 -0 -0.680094
vn 0.22406721 -0 -0.9745737
vn 0.22406721 -0 -0.9745737
vn -0.4133595 0 -0.91056794
vn -0.4133595 0 -0.91056794
vn -0.4133595 0 -0.91056794
vn -0.4133595 0 -0.91056794
vn -0.70255685 0 -0.7116277
vn -0.70255685 0 -0.7116277
vn -0.70255685 0 -0.7116277
vn -0.70255685 0 -0.7116277
vn -0.7074528 0 -0.7067607
vn -0.7074528 0 -0.7067607
vn -0.7074528 0 -0.7067607
vn -0.7074528 0 -0.7067607
vn -0.71896285 0 -0.6950486
vn -0.71896285 0 -0.6950486
vn -0.71896285 0 -0.6950486
vn -0.71896285 0 -0.6950486
vn -0.6992916 0 -0.71483654
vn -0.6992916 0 -0.71483654
vn -0.6992916 0 -0.71483654
vn -0.6992916 0 -0.71483654
vn -0.7110163 0 -0.7031755
vn -0.7110163 0 -0.7031755
vn -0.7110163 0 -0.7031755
vn -0.7110163 0 -0.7031755
vn -0.8915271 0 -0.45296735
vn -0.8915271 0 -0.45296735
vn -0.8915271 0 -0.45296735
vn -0.8915271 0 -0.45296735
vn -0.89955866 0 -0.4367999
vn -0.89955866 0 -0.4367999
vn -0.89955866 0 -0.4367999
vn -0.89955866 0 -0.4367999
vn -0.8381433 0 -0.54545003
vn -0.8381433 0 -0.54545003
vn -0.8381433 0 -0.54545003
vn -0.8381433 0 -0.54545003
vn -0.84614635 0 -0.5329506
vn -0.84614635 0 -0.5329506
vn -0.84614635 0 -0.5329506
vn -0.84614635 0 -0.5329506
vn -0.99594885 -0 0.089921944
vn -0.99594885 0 0.089921944
vn -0.7731761 -0 0.6341914
vn -0.7731761 0 0.6341914
vn 0.73312485 -0 -0.680094
vn 0.73312485 -0 -0.680094
vn 0.9886253 -0 -0.15039961
vn 0.9886253 -0 -0.15039961
vn 0.8770287 0 0.48043802
vn 0.8770287 0 0.48043802
vn 0.8770287 0 0.48043802
vn 0.8770287 0 0.48043802
vn 0.6570527 0 0.7538446
vn 0.6570527 0 0.7538446
vn 0.6570527 0 0.7538446
vn 0.6570527 0 0.7538446
vn 0.6502039 0 0.7597598
vn 0.6502039 0 0.7597598
vn 0.6502039 0 0.7597598
vn 0.6502039 0 0.7597598
vn 0.63425064 0 0.7731276
vn 0.63425064 0 0.7731276
vn 0.63425064 0 0.7731276
vn 0.63425064 0 0.7731276
vn 0.64144707 0 0.7671673
vn 0.64144707 0 0.7671673
vn 0.64144707 0 0.7671673
vn 0.64144707 0 0.7671673
vn 0.62221694 0 0.78284496
vn 0.62221694 0 0.78284496
vn 0.62221694 0 0.78284496
vn 0.62221694 0 0.78284496
vn 0.34326038 0 0.9392403
vn 0.34326038 0 0.9392403
vn 0.34326038 0 0.9392403
vn 0.34326038 0 0.9392403
vn 0.27468815 0 0.9615333
vn 0.27468815 0 0.9615333
vn 0.27468815 0 0.9615333
vn 0.27468815 0 0.9615333
vn 0.37797374 0 0.92581636
vn 0.37797374 0 0.92581636
vn 0.37797374 0 0.92581636
vn 0.37797374 0 0.92581636
vn 0.35714677 0 0.9340483
vn 0.35714677 0 0.9340483
vn 0.35714677 0 0.9340483
vn 0.35714677 0 0.9340483
vn -0.2829954 -0 0.9591212
vn -0.2829954 0 0.9591212
vn -0.7731761 0 0.6341914
vn -0.7731761 0 0.6341914
g _0
f 3/3/3 2/2/2 1/1/1
f 2/2/2 3/3/3 4/4/4
f 5/5/5 4/4/4 3/3/3
f 4/4/4 5/5/5 6/6/6
f 7/7/7 6/6/6 5/5/5
f 6/6/6 7/7/7 8/8/8
f 9/9/9 8/8/8 7/7/7
f 8/8/8 9/9/9 10/10/10
f 11/11/11 10/10/10 9/9/9
f 10/10/10 11/11/11 12/12/12
f 13/13/13 12/12/12 11/11/11
f 12/12/12 13/13/13 14/14/14
f 15/15/15 14/14/14 13/13/13
f 14/14/14 15/15/15 16/16/16
f 17/17/17 16/16/16 15/15/15
f 16/16/16 17/17/17 18/18/18
f 19/19/19 18/18/18 17/17/17
f 18/18/18 19/19/19 20/20/20
f 21/21/21 20/20/20 19/19/19
f 20/20/20 21/21/21 22/22/22
f 23/23/23 22/22/22 21/21/21
f 22/22/22 23/23/23 24/24/24
f 25/25/25 24/24/24 23/23/23
f 24/24/24 25/25/25 26/26/26
g _1
f 27/27/27 28/28/28 29/29/29
f 30/30/30 29/29/29 28/28/28
f 31/31/31 32/32/32 33/33/33
f 34/34/34 33/33/33 32/32/32
f 35/35/35 36/36/36 37/37/37
f 38/38/38 37/37/37 36/36/36
f 39/39/39 40/40/40 41/41/41
f 42/42/42 41/41/41 40/40/40
f 43/43/43 44/44/44 45/45/45
f 46/46/46 45/45/45 44/44/44
f 47/47/47 48/48/48 49/49/49
f 50/50/50 49/49/49 48/48/48
f 51/51/51 52/52/52 53/53/53
f 54/54/54 53/53/53 52/52/52
f 55/55/55 56/56/56 57/57/57
f 58/58/58 57/57/57 56/56/56
f 59/59/59 60/60/60 61/61/61
f 62/62/62 61/61/61 60/60/60
f 63/63/63 64/64/64 65/65/65
f 66/66/66 65/65/65 64/64/64
f 67/67/67 68/68/68 69/69/69
f 70/70/70 69/69/69 68/68/68
f 71/71/71 72/72/72 73/73/73
f 74/74/74 73/73/73 72/72/72
f 77/77/77 76/76/76 75/75/75
f 76/76/76 77/77/77 78/78/78
f 81/81/81 80/80/80 79/79/79
f 80/80/80 81/81/81 82/82/82
f 85/85/85 84/84/84 83/83/83
f 84/84/84 85/85/85 86/86/86
f 89/89/89 88/88/88 87/87/87
f 88/88/88 89/89/89 90/90/90
f 93/93/93 92/92/92 91/91/91
f 92/92/92 93/93/93 94/94/94
f 97/97/97 96/96/96 95/95/95
f 96/96/96 97/97/97 98/98/98
f 101/101/101 100/100/100 99/99/99
f 100/100/100 101/101/101 102/102/102
f 105/105/105 104/104/104 103/103/103
f 104/104/104 105/105/105 106/106/106
f 109/109/109 108/108/108 107/107/107
f 108/108/108 109/109/109 110/110/110
f 113/113/113 112/112/112 111/111/111
f 112/112/112 113/113/113 114/114/114
f 117/117/117 116/116/116 115/115/115
f 116/116/116 117/117/117 118/118/118
f 121/121/121 120/120/120 119/119/119
f 120/120/120 121/121/121 122/122/122
f 75/75/75 28/28/28 27/27/27
f 28/28/28 75/75/75 76/76/76
f 73/73/73 74/74/74 121/121/121
f 122/122/122 121/121/121 74/74/74
