g 
v -249.38448 -6.2 -203.46826
v -211.97438 -6.2 -210.36551
v -262.01913 -6.2 -190.9883
v -195.71986 -6.2 -203.21173
v -265.54965 -6.2 -165.83179
v -183.45035 -6.2 -180.9682
v -265.1323 -6.2 -163.59184
v -182.96878 -6.2 -178.33241
v -264.74292 -6.2 -161.41263
v -182.41753 -6.2 -175.1338
v -264.41245 -6.2 -159.4078
v -181.89175 -6.2 -171.73541
v -264.0913 -6.2 -157.24469
v -181.45056 -6.2 -168.46693
v -263.77203 -6.2 -154.98486
v -181.05507 -6.2 -165.28088
v -263.48282 -6.2 -152.7588
v -180.70065 -6.2 -162.03963
v -263.19717 -6.2 -150.3773
v -180.40201 -6.2 -158.9359
v -262.92325 -6.2 -147.99585
v -180.13089 -6.2 -155.87749
v -262.68033 -6.2 -145.71803
v -179.90543 -6.2 -152.94965
v -262.43488 -6.2 -143.31091
v -179.70897 -6.2 -150.14316
v -262.1987 -6.2 -140.92255
v -179.52534 -6.2 -147.31123
v -261.96887 -6.2 -138.47824
v -179.36742 -6.2 -144.52557
v -261.73697 -6.2 -135.97003
v -179.22107 -6.2 -141.80096
v -261.5089 -6.2 -133.44972
v -179.0875 -6.2 -139.08348
v -261.278 -6.2 -130.87805
v -178.96385 -6.2 -136.41518
v -261.0456 -6.2 -128.27768
v -178.84576 -6.2 -133.77438
v -260.80707 -6.2 -125.646545
v -178.73381 -6.2 -131.1643
v -260.56363 -6.2 -122.990074
v -178.62308 -6.2 -128.58072
v -260.31158 -6.2 -120.29211
v -178.51439 -6.2 -126.04059
v -260.04938 -6.2 -117.590645
v -178.4014 -6.2 -123.508316
v -259.77835 -6.2 -114.844505
v -178.28915 -6.2 -121.02315
v -259.48846 -6.2 -112.06799
v -178.16962 -6.2 -118.57625
v -259.19037 -6.2 -109.31802
v -178.04144 -6.2 -116.10787
v -258.8735 -6.2 -106.49425
v -177.91183 -6.2 -113.71942
v -258.53644 -6.2 -103.68528
v -177.76605 -6.2 -111.32711
v -258.1828 -6.2 -100.82854
v -177.61359 -6.2 -108.93238
v -257.78162 -6.2 -97.78809
v -177.44064 -6.2 -106.48453
v -257.3644 -6.2 -94.80951
v -177.2451 -6.2 -103.98647
v -256.9212 -6.2 -91.75483
v -177.04742 -6.2 -101.57299
v -256.4391 -6.2 -88.66985
v -176.82834 -6.2 -99.20796
v -255.94858 -6.2 -85.69604
v -176.57877 -6.2 -96.74352
v -255.41983 -6.2 -82.59172
v -176.33505 -6.2 -94.41936
v -254.8473 -6.2 -79.486946
v -176.05971 -6.2 -92.11836
v -254.27325 -6.2 -76.50962
v -175.75003 -6.2 -89.70074
v -253.65063 -6.2 -73.39764
v -175.44595 -6.2 -87.4307
v -252.99074 -6.2 -70.31788
v -175.10506 -6.2 -85.15079
v -252.3239 -6.2 -67.32328
v -174.73341 -6.2 -82.79708
v -251.6042 -6.2 -64.22186
v -174.36156 -6.2 -80.56614
v -250.85823 -6.2 -61.186302
v -173.94688 -6.2 -78.29022
v -250.09633 -6.2 -58.185455
v -173.50963 -6.2 -75.9912
v -249.28133 -6.2 -55.111496
v -173.06377 -6.2 -73.7839
v -248.45438 -6.2 -52.134624
v -172.56842 -6.2 -71.49802
v -247.59976 -6.2 -49.140556
v -172.06253 -6.2 -69.24083
v -246.69606 -6.2 -46.10904
v -171.53752 -6.2 -67.04168
v -245.7967 -6.2 -43.200928
v -170.95631 -6.2 -64.73474
v -244.85684 -6.2 -40.228485
v -170.37888 -6.2 -62.503212
v -243.87596 -6.2 -37.252823
v -169.77074 -6.2 -60.29651
v -242.9155 -6.2 -34.41848
v -169.10107 -6.2 -57.960896
v -241.90303 -6.2 -31.4835
v -168.44914 -6.2 -55.736244
v -240.86096 -6.2 -28.57486
v -167.75552 -6.2 -53.50673
v -239.84595 -6.2 -25.795206
v -167.0047 -6.2 -51.157333
v -238.78313 -6.2 -22.934166
v -166.26546 -6.2 -48.90024
v -237.70901 -6.2 -20.119816
v -165.48233 -6.2 -46.613083
v -236.64963 -6.2 -17.381243
v -164.65921 -6.2 -44.257763
v -235.5582 -6.2 -14.601959
v -163.83359 -6.2 -41.953583
v -234.47128 -6.2 -11.880483
v -162.9649 -6.2 -39.60321
v -233.39015 -6.2 -9.195926
v -162.07121 -6.2 -37.221718
v -232.29478 -6.2 -6.504532
v -161.16322 -6.2 -34.855644
v -231.21492 -6.2 -3.8706799
v -160.21758 -6.2 -32.438725
v -230.13857 -6.2 -1.2544107
v -159.25624 -6.2 -30.007889
v -229.06642 -6.2 1.3436604
v -158.27345 -6.2 -27.564045
v -228.02167 -6.2 3.8785124
v -157.25635 -6.2 -25.059074
v -227.07655 -6.2 6.181237
v -156.15138 -6.2 -22.346094
v -226.36923 -6.2 7.9895124
v -154.96616 -6.2 -19.367844
v -225.7192 -6.2 9.817425
v -153.80687 -6.2 -16.32034
v -225.0196 -6.2 11.90276
v -152.74916 -6.2 -13.468318
v -224.2878 -6.2 14.180035
v -151.75557 -6.2 -10.762361
v -223.52109 -6.2 16.630043
v -150.80988 -6.2 -8.1985
v -222.71432 -6.2 19.235596
v -149.89935 -6.2 -5.773968
v -221.86084 -6.2 21.980404
v -149.01389 -6.2 -3.4860744
v -220.9527 -6.2 24.849329
v -148.14578 -6.2 -1.3324671
v -219.98106 -6.2 27.828438
v -147.28935 -6.2 0.6888313
v -218.93663 -6.2 30.904312
v -146.44044 -6.2 2.5800982
v -217.80998 -6.2 34.063675
v -145.59615 -6.2 4.34429
v -216.59174 -6.2 37.29361
v -144.75464 -6.2 5.984828
v -215.25108 -6.2 40.6281
v -143.93657 -6.2 7.459036
v -213.79045 -6.2 44.008774
v -143.11879 -6.2 8.809637
v -212.23238 -6.2 47.37558
v -142.28113 -6.2 10.09613
v -210.55348 -6.2 50.753548
v -141.44064 -6.2 11.287569
v -208.75055 -6.2 54.12784
v -140.59518 -6.2 12.393698
v -206.82256 -6.2 57.483364
v -139.74162 -6.2 13.425337
v -204.77051 -6.2 60.805305
v -138.87585 -6.2 14.393852
v -202.59789 -6.2 64.079155
v -137.99248 -6.2 15.311129
v -200.31021 -6.2 67.29138
v -137.08507 -6.2 16.188875
v -197.91534 -6.2 70.429405
v -136.14603 -6.2 17.038692
v -195.42334 -6.2 73.481766
v -135.16656 -6.2 17.871853
v -192.84575 -6.2 76.43909
v -134.13768 -6.2 18.698397
v -190.15271 -6.2 79.33455
v -133.09271 -6.2 19.486593
v -187.39822 -6.2 82.108894
v -131.97043 -6.2 20.288641
v -184.65063 -6.2 84.725204
v -130.72177 -6.2 21.154854
v -181.87907 -6.2 87.22606
v -129.38493 -6.2 22.046913
v -179.0992 -6.2 89.61139
v -127.95259 -6.2 22.969948
v -176.32704 -6.2 91.88222
v -126.41822 -6.2 23.928802
v -173.57864 -6.2 94.0406
v -124.7764 -6.2 24.928123
v -170.86996 -6.2 96.089355
v -123.02289 -6.2 25.972603
v -168.21732 -6.2 98.03144
v -121.154106 -6.2 27.067623
v -165.63748 -6.2 99.86977
v -119.16724 -6.2 28.21944
v -163.14761 -6.2 101.60686
v -117.06012 -6.2 29.435501
v -160.76526 -6.2 103.24463
v -114.83139 -6.2 30.724697
v -158.52121 -6.2 104.77587
v -112.467415 -6.2 32.105846
v -156.44188 -6.2 106.195526
v -109.96471 -6.2 33.597897
v -154.5376 -6.2 107.508026
v -107.33246 -6.2 35.21141
v -152.82626 -6.2 108.70857
v -104.57373 -6.2 36.96559
v -151.32944 -6.2 109.78642
v -101.68901 -6.2 38.886387
v -150.0683 -6.2 110.72617
v -98.680305 -6.2 41.00523
v -148.99905 -6.2 111.55658
v -95.615685 -6.2 43.310204
v -148.04591 -6.2 112.3212
v -92.54069 -6.2 45.79465
v -146.952 -6.2 113.2209
v -89.666504 -6.2 48.317398
v -145.42097 -6.2 114.5005
v -87.2547 -6.2 50.597733
v -143.492 -6.2 116.120445
v -85.23951 -6.2 52.59684
v -141.24428 -6.2 117.98612
v -83.52202 -6.2 54.36518
v -138.70738 -6.2 120.03032
v -82.0511 -6.2 55.920765
v -135.86908 -6.2 122.23308
v -80.82881 -6.2 57.24861
v -132.72882 -6.2 124.533066
v -79.83282 -6.2 58.360558
v -129.39055 -6.2 126.809685
v -78.95136 -6.2 59.351482
v -125.71128 -6.2 129.13835
v -78.32389 -6.2 60.130585
v -121.79048 -6.2 131.37073
v -77.82266 -6.2 60.784454
v -117.76422 -6.2 133.42494
v -77.32605 -6.2 61.41573
v -113.452774 -6.2 135.37318
v -77.00291 -6.2 61.924553
v -109.06842 -6.2 137.07489
v -76.631516 -6.2 62.42585
v -104.6065 -6.2 138.55582
v -76.23183 -6.2 62.920906
v -100.04898 -6.2 139.8063
v -75.8093 -6.2 63.38656
v -95.63766 -6.2 140.7748
v -75.134026 -6.2 63.894974
v -91.18972 -6.2 141.54901
v -74.40165 -6.2 64.38202
v -86.850784 -6.2 142.0948
v -73.45664 -6.2 64.85152
v -82.778496 -6.2 142.44565
v -72.17004 -6.2 65.33087
v -78.80676 -6.2 142.65982
v -70.71481 -6.2 65.77028
v -75.10317 -6.2 142.75008
v -68.93496 -6.2 66.17467
v -71.87064 -6.2 142.76643
v -67.04111 -6.2 66.518295
v -68.96626 -6.2 142.74538
v -65.026405 -6.2 66.81564
v -66.32711 -6.2 142.7089
v -62.7468 -6.2 67.086296
v -63.87864 -6.2 142.67703
v -60.071373 -6.2 67.35946
v -61.604362 -6.2 142.6674
v -56.871906 -6.2 67.6635
v -59.795002 -6.2 142.70102
v -53.28264 -6.2 68.02147
v -58.4186 -6.2 142.77919
v -49.360054 -6.2 68.48459
v -57.2816 -6.2 142.91801
v -45.318394 -6.2 69.081985
v -55.39467 -6.2 143.25684
v -41.93778 -6.2 69.69948
v -52.495598 -6.2 143.76073
v -39.547764 -6.2 70.17055
v -48.94139 -6.2 144.30704
v -37.797375 -6.2 70.51318
v -44.83306 -6.2 144.79524
v -36.59107 -6.2 70.7397
v -40.223476 -6.2 145.12425
v -35.880936 -6.2 70.87952
v -35.270966 -6.2 145.18394
v -35.51315 -6.2 70.97333
v -30.166725 -6.2 144.9136
v -35.30048 -6.2 71.05544
v -25.020786 -6.2 144.2874
v -35.13613 -6.2 71.131195
v -19.97787 -6.2 143.3211
v -34.878075 -6.2 71.18073
v -15.233269 -6.2 142.0893
v -34.33316 -6.2 71.14189
v -11.072737 -6.2 140.75616
v -33.696644 -6.2 71.03024
v -7.5452375 -6.2 139.44794
v -32.83735 -6.2 70.803375
v -4.4249926 -6.2 138.16765
v -31.580896 -6.2 70.38985
v -1.6450024 -6.2 136.94775
v -29.99432 -6.2 69.800476
v 0.7643719 -6.2 135.84961
v -28.047047 -6.2 69.02497
v 2.7617798 -6.2 134.93167
v -25.697231 -6.2 68.06389
v 4.248352 -6.2 134.26201
v -22.845268 -6.2 66.91591
v 5.0048575 -6.2 133.92958
v -19.271223 -6.2 65.57837
v 5.2353964 -6.2 133.80722
v -14.391603 -6.2 64.01767
v 4.1330757 -6.2 134.0226
v -8.415973 -6.2 62.67769
v 4.069125 -6.2 133.90613
v -3.511698 -6.2 62.210213
v 6.5228124 -6.2 133.37933
v -1.0024056 -6.2 62.2844
v 10.791653 -6.2 132.44093
v -0.3422289 -6.2 62.62836
v 16.281294 -6.2 130.84721
v -1.0631728 -6.2 63.269894
v 22.32494 -6.2 128.39859
v -2.5780735 -6.2 64.28441
v 28.277676 -6.2 125.08826
v -4.2858095 -6.2 65.62099
v 33.425087 -6.2 121.30362
v -5.485733 -6.2 66.89328
v 37.36013 -6.2 117.70145
v -5.7311096 -6.2 67.54619
v 40.010323 -6.2 114.90022
v -4.880451 -6.2 67.1189
v 41.27779 -6.2 113.47912
v -2.7284107 -6.2 65.2668
v 41.847916 -6.2 112.94042
v 0.5390701 -6.2 62.4547
v 42.743355 -6.2 112.200775
v 3.9530125 -6.2 59.87906
v 43.850014 -6.2 111.32388
v 6.936058 -6.2 57.84431
v 45.241615 -6.2 110.272766
v 9.620003 -6.2 56.171047
v 46.97078 -6.2 109.00172
v 12.03751 -6.2 54.752815
v 48.919235 -6.2 107.57993
v 14.2750435 -6.2 53.498116
v 51.055473 -6.2 106.00702
v 16.328102 -6.2 52.3824
v 53.361076 -6.2 104.27714
v 18.184261 -6.2 51.39275
v 55.791016 -6.2 102.38657
v 19.853466 -6.2 50.507988
v 58.26573 -6.2 100.367905
v 21.392824 -6.2 49.681763
v 60.861828 -6.2 98.14431
v 22.711096 -6.2 48.982506
v 63.54927 -6.2 95.665955
v 23.937943 -6.2 48.308487
v 66.421234 -6.2 92.80809
v 25.209726 -6.2 47.578712
v 69.25616 -6.2 89.70328
v 26.28909 -6.2 46.928955
v 71.94977 -6.2 86.456696
v 27.303555 -6.2 46.273407
v 74.50493 -6.2 83.02962
v 28.21674 -6.2 45.629147
v 76.84138 -6.2 79.53094
v 29.119707 -6.2 44.897392
v 78.99137 -6.2 75.93709
v 29.983097 -6.2 44.105923
v 80.89633 -6.2 72.35859
v 30.86173 -6.2 43.14452
v 82.60623 -6.2 68.7953
v 31.74357 -6.2 42.04143
v 84.1076 -6.2 65.30749
v 32.628647 -6.2 40.731438
v 85.41626 -6.2 61.99161
v 33.557938 -6.2 39.158493
v 86.58122 -6.2 58.82417
v 34.49453 -6.2 37.358917
v 87.61386 -6.2 55.895103
v 35.4725 -6.2 35.276585
v 88.54517 -6.2 53.23061
v 36.499687 -6.2 32.915154
v 89.40116 -6.2 50.87221
v 37.59928 -6.2 30.272133
v 90.060585 -6.2 49.158646
v 38.939415 -6.2 27.041348
v 90.615616 -6.2 47.889694
v 40.65393 -6.2 23.387192
v 91.1868 -6.2 46.666893
v 42.45502 -6.2 20.068235
v 91.981186 -6.2 45.07162
v 44.262 -6.2 17.092999
v 92.95697 -6.2 43.195038
v 46.06131 -6.2 14.3702135
v 94.087006 -6.2 41.075287
v 47.827972 -6.2 11.861779
v 95.25597 -6.2 38.897205
v 49.455494 -6.2 9.653009
v 96.46499 -6.2 36.631012
v 50.96923 -6.2 7.6621523
v 97.7266 -6.2 34.222263
v 52.42089 -6.2 5.7906303
v 99.016754 -6.2 31.683392
v 53.80393 -6.2 4.02647
v 100.319954 -6.2 29.01155
v 55.10549 -6.2 2.3730774
v 101.6768 -6.2 26.066349
v 56.416306 -6.2 0.69441986
v 103.03294 -6.2 22.900948
v 57.678818 -6.2 -0.94648075
v 104.32376 -6.2 19.605488
v 58.83618 -6.2 -2.4810562
v 105.53613 -6.2 16.15815
v 59.876984 -6.2 -3.8861942
v 106.61659 -6.2 12.600738
v 60.813747 -6.2 -5.203882
v 107.53575 -6.2 8.9903145
v 61.674942 -6.2 -6.4877253
v 108.288216 -6.2 5.3084354
v 62.451637 -6.2 -7.7175226
v 108.85674 -6.2 1.5740688
v 63.149986 -6.2 -8.910351
v 109.228226 -6.2 -2.190767
v 63.775166 -6.2 -10.086183
v 109.394775 -6.2 -5.9617596
v 64.33035 -6.2 -11.267159
v 109.3545 -6.2 -9.713722
v 64.815926 -6.2 -12.476125
v 109.11177 -6.2 -13.421796
v 65.22914 -6.2 -13.735481
v 108.677055 -6.2 -17.063126
v 65.564415 -6.2 -15.065447
v 108.06206 -6.2 -20.659899
v 65.8181 -6.2 -16.441086
v 107.27931 -6.2 -24.14734
v 65.96921 -6.2 -17.923878
v 106.371506 -6.2 -27.475006
v 66.0119 -6.2 -19.561108
v 105.35924 -6.2 -30.682404
v 65.94388 -6.2 -21.31006
v 104.26854 -6.2 -33.766563
v 65.76062 -6.2 -23.17033
v 103.12572 -6.2 -36.726685
v 65.460526 -6.2 -25.13921
v 101.957054 -6.2 -39.562996
v 65.04522 -6.2 -27.212818
v 100.788864 -6.2 -42.275425
v 64.519455 -6.2 -29.387428
v 99.647644 -6.2 -44.86245
v 63.891037 -6.2 -31.660608
v 98.56021 -6.2 -47.319946
v 63.170612 -6.2 -34.032402
v 97.55767 -6.2 -49.62949
v 62.367744 -6.2 -36.51702
v 96.67642 -6.2 -51.770187
v 61.497696 -6.2 -39.127285
v 95.89743 -6.2 -53.846474
v 60.595264 -6.2 -41.851547
v 95.0143 -6.2 -56.47635
v 59.842163 -6.2 -44.185287
v 93.63333 -6.2 -60.089592
v 59.612377 -6.2 -44.899994
v 91.098785 -6.2 -64.89998
v 59.709534 -6.2 -44.8285
v 86.94964 -6.2 -70.069145
v 60.775734 -6.2 -43.553555
v 81.257965 -6.2 -74.42005
v 62.59671 -6.2 -42.172462
v 75.20102 -6.2 -77.05695
v 63.908474 -6.2 -41.551636
v 69.78874 -6.2 -78.22651
v 64.84862 -6.2 -41.297592
v 65.27976 -6.2 -78.56325
v 64.31787 -6.2 -41.317783
v 61.405247 -6.2 -78.49421
v 63.32406 -6.2 -41.285774
v 57.963833 -6.2 -78.21677
v 61.80466 -6.2 -41.157383
v 54.70919 -6.2 -77.814476
v 59.80765 -6.2 -40.90709
v 51.778805 -6.2 -77.36957
v 57.603558 -6.2 -40.569817
v 49.22602 -6.2 -76.94972
v 55.325138 -6.2 -40.19445
v 46.82615 -6.2 -76.54818
v 52.818645 -6.2 -39.775368
v 44.599205 -6.2 -76.194275
v 50.12115 -6.2 -39.34787
v 42.662895 -6.2 -75.9187
v 47.171463 -6.2 -38.934616
v 41.019863 -6.2 -75.74384
v 43.767467 -6.2 -38.58741
v 39.72903 -6.2 -75.67297
v 39.75678 -6.2 -38.4151
v 39.67021 -6.2 -75.637665
v 34.903305 -6.2 -38.685986
v 40.48235 -6.2 -75.43117
v 29.205414 -6.2 -39.920887
v 40.885094 -6.2 -75.330284
v 24.258663 -6.2 -41.987953
v 40.46501 -6.2 -75.57538
v 20.441334 -6.2 -44.15561
v 39.995808 -6.2 -75.90898
v 16.94964 -6.2 -46.634007
v 39.433754 -6.2 -76.40582
v 13.815148 -6.2 -49.353344
v 38.661213 -6.2 -77.20948
v 11.113482 -6.2 -52.124184
v 37.647125 -6.2 -78.405594
v 8.8247595 -6.2 -54.795837
v 36.342346 -6.2 -80.07115
v 6.9315567 -6.2 -57.198566
v 34.677982 -6.2 -82.23258
v 5.4141216 -6.2 -59.17231
v 32.5148 -6.2 -84.898865
v 4.3116083 -6.2 -60.552826
v 29.600735 -6.2 -88.02239
v 3.7513332 -6.2 -61.19036
v 26.153854 -6.2 -90.98189
v 3.383728 -6.2 -61.491703
v 23.359774 -6.2 -92.941635
v 2.3436089 -6.2 -62.17687
v 21.156599 -6.2 -94.42954
v 0.74460506 -6.2 -63.260643
v 18.608631 -6.2 -96.04055
v -0.5789442 -6.2 -64.103325
v 15.746167 -6.2 -97.66492
v -1.6943254 -6.2 -64.74109
v 12.684673 -6.2 -99.1709
v -2.741168 -6.2 -65.25641
v 9.574636 -6.2 -100.47513
v -3.8705175 -6.2 -65.7278
v 6.548989 -6.2 -101.554955
v -5.2023516 -6.2 -66.19883
v 3.7773652 -6.2 -102.41554
v -6.8781214 -6.2 -66.71387
v 1.4256856 -6.2 -103.09294
v -9.013952 -6.2 -67.327545
v -0.3355093 -6.2 -103.60963
v -11.717468 -6.2 -68.132866
v -1.8456044 -6.2 -104.13523
v -14.564957 -6.2 -69.1157
v -3.008059 -6.2 -104.59323
v -16.135239 -6.2 -69.72452
v -4.9153614 -6.2 -105.280365
v -16.828598 -6.2 -69.978455
v -7.051497 -6.2 -105.94879
v -17.331476 -6.2 -70.13718
v -9.173433 -6.2 -106.50488
v -17.891275 -6.2 -70.281296
v -11.029987 -6.2 -106.91708
v -18.750584 -6.2 -70.46791
v -12.377095 -6.2 -107.19064
v -20.13413 -6.2 -70.74921
v -13.382222 -6.2 -107.41423
v -21.843077 -6.2 -71.129745
v -13.367255 -6.2 -107.417725
v -22.832748 -6.2 -71.38228
v -24.68061 -6.2 -106.68267
v -32.32447 -6.2 -77.58224
v -30.65485 -6.2 -101.474396
v -34.967983 -6.2 -85.05415
vt 0 -0.019020295
vt 0 0.019020295
vt 0 -0.033708334
vt 0 0.033708334
vt 0.009982317 -0.041741483
vt 0.009982317 0.041741483
vt 0.034081776 -0.041737664
vt 0.034081776 0.041737664
vt 0.036560733 -0.04173052
vt 0.036560733 0.04173052
vt 0.039290458 -0.041718215
vt 0.039290458 0.041718215
vt 0.042025786 -0.041699618
vt 0.042025786 0.041699618
vt 0.044768196 -0.041677646
vt 0.044768196 0.041677646
vt 0.047514495 -0.041650392
vt 0.047514495 0.041650392
vt 0.050267026 -0.041618176
vt 0.050267026 0.041618176
vt 0.053025156 -0.04158334
vt 0.053025156 0.04158334
vt 0.0557587 -0.041545108
vt 0.0557587 0.041545108
vt 0.058372043 -0.041503794
vt 0.058372043 0.041503794
vt 0.0609882 -0.041459918
vt 0.0609882 0.041459918
vt 0.06360676 -0.041411273
vt 0.06360676 0.041411273
vt 0.06622893 -0.04136083
vt 0.06622893 0.04136083
vt 0.06885217 -0.041306876
vt 0.06885217 0.041306876
vt 0.0714773 -0.041250095
vt 0.0714773 0.041250095
vt 0.074103266 -0.041191697
vt 0.074103266 0.041191697
vt 0.07672971 -0.041129276
vt 0.07672971 0.041129276
vt 0.079356164 -0.04106553
vt 0.079356164 0.04106553
vt 0.08198217 -0.040999476
vt 0.08198217 0.040999476
vt 0.08460742 -0.04093108
vt 0.08460742 0.04093108
vt 0.08723101 -0.040861543
vt 0.08723101 0.040861543
vt 0.089853674 -0.04078944
vt 0.089853674 0.04078944
vt 0.092473395 -0.040716242
vt 0.092473395 0.040716242
vt 0.09509125 -0.04064172
vt 0.09509125 0.04064172
vt 0.097706914 -0.04056555
vt 0.097706914 0.04056555
vt 0.10031874 -0.04048788
vt 0.10031874 0.04048788
vt 0.10295664 -0.040405143
vt 0.10295664 0.040405143
vt 0.10571577 -0.04032158
vt 0.10571577 0.04032158
vt 0.10847117 -0.040237475
vt 0.10847117 0.040237475
vt 0.11122397 -0.040152594
vt 0.11122397 0.040152594
vt 0.113971435 -0.04006748
vt 0.113971435 0.04006748
vt 0.116715625 -0.039982174
vt 0.116715625 0.039982174
vt 0.119457215 -0.03989687
vt 0.119457215 0.03989687
vt 0.122193135 -0.039811753
vt 0.122193135 0.039811753
vt 0.12492657 -0.039726872
vt 0.12492657 0.039726872
vt 0.12765718 -0.039642766
vt 0.12765718 0.039642766
vt 0.13038333 -0.039559204
vt 0.13038333 0.039559204
vt 0.13310742 -0.03947646
vt 0.13310742 0.03947646
vt 0.1358289 -0.039395113
vt 0.1358289 0.039395113
vt 0.13854729 -0.039314657
vt 0.13854729 0.039314657
vt 0.14126422 -0.039235756
vt 0.14126422 0.039235756
vt 0.14397906 -0.039158713
vt 0.14397906 0.039158713
vt 0.14669222 -0.039082915
vt 0.14669222 0.039082915
vt 0.14940453 -0.039009556
vt 0.14940453 0.039009556
vt 0.15211567 -0.03893838
vt 0.15211567 0.03893838
vt 0.15482624 -0.038868792
vt 0.15482624 0.038868792
vt 0.15753657 -0.038802695
vt 0.15753657 0.038802695
vt 0.16024682 -0.038738925
vt 0.16024682 0.038738925
vt 0.16295725 -0.038677096
vt 0.16295725 0.038677096
vt 0.16566798 -0.03861996
vt 0.16566798 0.03861996
vt 0.16837968 -0.03856516
vt 0.16837968 0.03856516
vt 0.17109193 -0.038513146
vt 0.17109193 0.038513146
vt 0.17380498 -0.038466185
vt 0.17380498 0.038466185
vt 0.17651953 -0.0384219
vt 0.17651953 0.0384219
vt 0.17923483 -0.038381416
vt 0.17923483 0.038381416
vt 0.18195128 -0.03834617
vt 0.18195128 0.03834617
vt 0.1846692 -0.038313955
vt 0.1846692 0.038313955
vt 0.18738787 -0.038286705
vt 0.18738787 0.038286705
vt 0.19010776 -0.03826473
vt 0.19010776 0.03826473
vt 0.19282866 -0.038246132
vt 0.19282866 0.038246132
vt 0.19555011 -0.038233828
vt 0.19555011 0.038233828
vt 0.19827242 -0.038226683
vt 0.19827242 0.038226683
vt 0.20099507 -0.03822365
vt 0.20099507 0.03822365
vt 0.20370431 -0.038232274
vt 0.20370431 0.038232274
vt 0.20627786 -0.03825757
vt 0.20627786 0.03825757
vt 0.20887801 -0.038297225
vt 0.20887801 0.038297225
vt 0.2114984 -0.03835051
vt 0.2114984 0.03835051
vt 0.21413513 -0.038416725
vt 0.21413513 0.038416725
vt 0.21678424 -0.038495135
vt 0.21678424 0.038495135
vt 0.21944182 -0.038585033
vt 0.21944182 0.038585033
vt 0.22210415 -0.038685698
vt 0.22210415 0.038685698
vt 0.22476783 -0.038796406
vt 0.22476783 0.038796406
vt 0.22742988 -0.038916454
vt 0.22742988 0.038916454
vt 0.23008776 -0.03904511
vt 0.23008776 0.03904511
vt 0.23273946 -0.039181665
vt 0.23273946 0.039181665
vt 0.23538353 -0.0393254
vt 0.23538353 0.0393254
vt 0.23801903 -0.03947615
vt 0.23801903 0.03947615
vt 0.24064468 -0.039632484
vt 0.24064468 0.039632484
vt 0.24326158 -0.03979368
vt 0.24326158 0.03979368
vt 0.24587055 -0.039959025
vt 0.24587055 0.039959025
vt 0.24847285 -0.040127803
vt 0.24847285 0.040127803
vt 0.25107017 -0.04029929
vt 0.25107017 0.04029929
vt 0.25366446 -0.04047277
vt 0.25366446 0.04047277
vt 0.25625795 -0.04064753
vt 0.25625795 0.04064753
vt 0.25885296 -0.04082284
vt 0.25885296 0.04082284
vt 0.2614519 -0.040997997
vt 0.2614519 0.040997997
vt 0.26405707 -0.041172273
vt 0.26405707 0.041172273
vt 0.26667073 -0.041344956
vt 0.26667073 0.041344956
vt 0.26929474 -0.041515008
vt 0.26929474 0.041515008
vt 0.27193198 -0.04168187
vt 0.27193198 0.04168187
vt 0.2745824 -0.041844822
vt 0.2745824 0.041844822
vt 0.27724653 -0.042003147
vt 0.27724653 0.042003147
vt 0.2799246 -0.042156134
vt 0.2799246 0.042156134
vt 0.2826161 -0.042303056
vt 0.2826161 0.042303056
vt 0.28532004 -0.0424432
vt 0.28532004 0.0424432
vt 0.2880348 -0.042575847
vt 0.2880348 0.042575847
vt 0.2907582 -0.042700276
vt 0.2907582 0.042700276
vt 0.29348746 -0.042815775
vt 0.29348746 0.042815775
vt 0.29621938 -0.04292162
vt 0.29621938 0.04292162
vt 0.29895017 -0.043017104
vt 0.29895017 0.043017104
vt 0.3016758 -0.0431003
vt 0.3016758 0.0431003
vt 0.30439025 -0.043171536
vt 0.30439025 0.043171536
vt 0.3070894 -0.04323009
vt 0.3070894 0.04323009
vt 0.30976856 -0.043275245
vt 0.30976856 0.043275245
vt 0.31242326 -0.043306284
vt 0.31242326 0.043306284
vt 0.31504938 -0.04332249
vt 0.31504938 0.04332249
vt 0.3176436 -0.04332036
vt 0.3176436 0.04332036
vt 0.3202312 -0.043284215
vt 0.3202312 0.043284215
vt 0.32285124 -0.043205556
vt 0.32285124 0.043205556
vt 0.3255073 -0.04309467
vt 0.3255073 0.04309467
vt 0.3281838 -0.04295196
vt 0.3281838 0.04295196
vt 0.33087307 -0.042778414
vt 0.33087307 0.042778414
vt 0.3335666 -0.042580552
vt 0.3335666 0.042580552
vt 0.33625704 -0.042357963
vt 0.33625704 0.042357963
vt 0.33893797 -0.04211509
vt 0.33893797 0.04211509
vt 0.34160644 -0.04185582
vt 0.34160644 0.04185582
vt 0.3442619 -0.041580018
vt 0.3442619 0.041580018
vt 0.34690222 -0.041293383
vt 0.34690222 0.041293383
vt 0.34953225 -0.04099785
vt 0.34953225 0.04099785
vt 0.35215506 -0.040695928
vt 0.35215506 0.040695928
vt 0.35477564 -0.04039109
vt 0.35477564 0.04039109
vt 0.35739955 -0.04008598
vt 0.35739955 0.04008598
vt 0.36003327 -0.0397835
vt 0.36003327 0.0397835
vt 0.36268163 -0.039486025
vt 0.36268163 0.039486025
vt 0.36534747 -0.039197996
vt 0.36534747 0.039197996
vt 0.36803776 -0.03892053
vt 0.36803776 0.03892053
vt 0.3707492 -0.03865709
vt 0.3707492 0.03865709
vt 0.3734823 -0.038411718
vt 0.3734823 0.038411718
vt 0.37623516 -0.03820047
vt 0.37623516 0.03820047
vt 0.37880465 -0.038015947
vt 0.37880465 0.038015947
vt 0.38126805 -0.03785366
vt 0.38126805 0.03785366
vt 0.3837302 -0.037706874
vt 0.3837302 0.037706874
vt 0.386295 -0.037576534
vt 0.386295 0.037576534
vt 0.38903585 -0.037481483
vt 0.38903585 0.037481483
vt 0.39174226 -0.03742241
vt 0.39174226 0.03742241
vt 0.39440554 -0.037399467
vt 0.39440554 0.037399467
vt 0.3970209 -0.037389077
vt 0.3970209 0.037389077
vt 0.39969772 -0.037360273
vt 0.39969772 0.037360273
vt 0.40238678 -0.037315294
vt 0.40238678 0.037315294
vt 0.40507606 -0.03725639
vt 0.40507606 0.03725639
vt 0.4077573 -0.03718581
vt 0.4077573 0.03718581
vt 0.41042748 -0.037105504
vt 0.41042748 0.037105504
vt 0.41308874 -0.03701819
vt 0.41308874 0.03701819
vt 0.41574886 -0.03692612
vt 0.41574886 0.03692612
vt 0.41841823 -0.03683154
vt 0.41841823 0.03683154
vt 0.42110807 -0.036736704
vt 0.42110807 0.036736704
vt 0.42382807 -0.036652233
vt 0.42382807 0.036652233
vt 0.426333 -0.036577888
vt 0.426333 0.036577888
vt 0.42865682 -0.036507793
vt 0.42865682 0.036507793
vt 0.43100333 -0.03644325
vt 0.43100333 0.03644325
vt 0.43336663 -0.03638555
vt 0.43336663 0.03638555
vt 0.43573785 -0.036335994
vt 0.43573785 0.036335994
vt 0.43810582 -0.03629588
vt 0.43810582 0.03629588
vt 0.4404578 -0.036267117
vt 0.4404578 0.036267117
vt 0.44277847 -0.036248457
vt 0.44277847 0.036248457
vt 0.44546854 -0.036220074
vt 0.44546854 0.036220074
vt 0.44796926 -0.036047794
vt 0.44796926 0.036047794
vt 0.45040697 -0.03574604
vt 0.45040697 0.03574604
vt 0.45289877 -0.035347417
vt 0.45289877 0.035347417
vt 0.45538113 -0.03488383
vt 0.45538113 0.03488383
vt 0.45781255 -0.034390368
vt 0.45781255 0.034390368
vt 0.46018773 -0.03389962
vt 0.46018773 0.03389962
vt 0.46252844 -0.03344599
vt 0.46252844 0.03344599
vt 0.464868 -0.03306208
vt 0.464868 0.03306208
vt 0.46722975 -0.032780472
vt 0.46722975 0.032780472
vt 0.4696109 -0.032638066
vt 0.4696109 0.032638066
vt 0.47197768 -0.03261606
vt 0.47197768 0.03261606
vt 0.47452497 -0.03256629
vt 0.47452497 0.03256629
vt 0.4772435 -0.032491174
vt 0.4772435 0.032491174
vt 0.47975367 -0.032387868
vt 0.47975367 0.032387868
vt 0.48220482 -0.032261733
vt 0.48220482 0.032261733
vt 0.484676 -0.03211333
vt 0.484676 0.03211333
vt 0.48716027 -0.031943664
vt 0.48716027 0.031943664
vt 0.4896492 -0.03175755
vt 0.4896492 0.03175755
vt 0.49213493 -0.031555094
vt 0.49213493 0.031555094
vt 0.4946101 -0.031339657
vt 0.4946101 0.031339657
vt 0.4970701 -0.031114152
vt 0.4970701 0.031114152
vt 0.4995127 -0.030869836
vt 0.4995127 0.030869836
vt 0.5020256 -0.030594466
vt 0.5020256 0.030594466
vt 0.5047661 -0.030314235
vt 0.5047661 0.030314235
vt 0.50747806 -0.030033238
vt 0.50747806 0.030033238
vt 0.51016957 -0.029754799
vt 0.51016957 0.029754799
vt 0.5128437 -0.02948237
vt 0.5128437 0.02948237
vt 0.5155078 -0.029219149
vt 0.5155078 0.029219149
vt 0.5181682 -0.028969483
vt 0.5181682 0.028969483
vt 0.52083087 -0.028734911
vt 0.52083087 0.028734911
vt 0.5234998 -0.028522206
vt 0.5234998 0.028522206
vt 0.526179 -0.028331243
vt 0.526179 0.028331243
vt 0.5288674 -0.02816816
vt 0.5288674 0.02816816
vt 0.53156406 -0.028035006
vt 0.53156406 0.028035006
vt 0.5342639 -0.027934972
vt 0.5342639 0.027934972
vt 0.5369609 -0.027873822
vt 0.5369609 0.027873822
vt 0.53964597 -0.027850267
vt 0.53964597 0.027850267
vt 0.5423126 -0.027823295
vt 0.5423126 0.027823295
vt 0.54502314 -0.02775912
vt 0.54502314 0.02775912
vt 0.5475852 -0.027658291
vt 0.5475852 0.027658291
vt 0.55021465 -0.027523054
vt 0.55021465 0.027523054
vt 0.5529005 -0.027355658
vt 0.5529005 0.027355658
vt 0.55563045 -0.027170325
vt 0.55563045 0.027170325
vt 0.55823165 -0.02696785
vt 0.55823165 0.02696785
vt 0.56075835 -0.026743997
vt 0.56075835 0.026743997
vt 0.5632922 -0.026500495
vt 0.5632922 0.026500495
vt 0.5658251 -0.026239077
vt 0.5658251 0.026239077
vt 0.5683496 -0.025943441
vt 0.5683496 0.025943441
vt 0.5710187 -0.02562078
vt 0.5710187 0.02562078
vt 0.5737554 -0.025283078
vt 0.5737554 0.025283078
vt 0.5764629 -0.024932582
vt 0.5764629 0.024932582
vt 0.579138 -0.024570845
vt 0.579138 0.024570845
vt 0.58177596 -0.024201158
vt 0.58177596 0.024201158
vt 0.58438 -0.023825765
vt 0.58438 0.023825765
vt 0.58695203 -0.023446912
vt 0.58695203 0.023446912
vt 0.5894958 -0.02306685
vt 0.5894958 0.02306685
vt 0.59201586 -0.022687823
vt 0.59201586 0.022687823
vt 0.59451795 -0.022312082
vt 0.59451795 0.022312082
vt 0.5970084 -0.021941874
vt 0.5970084 0.021941874
vt 0.59949356 -0.021579448
vt 0.59949356 0.021579448
vt 0.60197973 -0.02122705
vt 0.60197973 0.02122705
vt 0.60447246 -0.020888137
vt 0.60447246 0.020888137
vt 0.6069776 -0.020564094
vt 0.6069776 0.020564094
vt 0.6094974 -0.020257168
vt 0.6094974 0.020257168
vt 0.6120338 -0.019969607
vt 0.6120338 0.019969607
vt 0.6145868 -0.019703658
vt 0.6145868 0.019703658
vt 0.6171547 -0.019461568
vt 0.6171547 0.019461568
vt 0.6197342 -0.01924559
vt 0.6197342 0.01924559
vt 0.62232035 -0.019057963
vt 0.62232035 0.019057963
vt 0.62490654 -0.018900942
vt 0.62490654 0.018900942
vt 0.62748486 -0.01877677
vt 0.62748486 0.01877677
vt 0.63004625 -0.01869081
vt 0.63004625 0.01869081
vt 0.63257796 -0.018642165
vt 0.63257796 0.018642165
vt 0.6351212 -0.018628942
vt 0.6351212 0.018628942
vt 0.6377344 -0.018628942
vt 0.6377344 0.018628942
vt 0.6400434 -0.018628942
vt 0.6400434 0.018628942
vt 0.6427079 -0.018628942
vt 0.6427079 0.018628942
vt 0.64519125 -0.018628942
vt 0.64519125 0.018628942
vt 0.64763063 -0.018628942
vt 0.64763063 0.018628942
vt 0.65020853 -0.018628942
vt 0.65020853 0.018628942
vt 0.652491 -0.018628942
vt 0.652491 0.018628942
vt 0.6550172 -0.018628942
vt 0.6550172 0.018628942
vt 0.65745187 -0.018628942
vt 0.65745187 0.018628942
vt 0.6599406 -0.018628942
vt 0.6599406 0.018628942
vt 0.66258657 -0.018628942
vt 0.66258657 0.018628942
vt 0.6651834 -0.018628942
vt 0.6651834 0.018628942
vt 0.66763157 -0.018628942
vt 0.66763157 0.018628942
vt 0.6701188 -0.018628942
vt 0.6701188 0.018628942
vt 0.67261183 -0.018628942
vt 0.67261183 0.018628942
vt 0.675079 -0.018628942
vt 0.675079 0.018628942
vt 0.677616 -0.018628942
vt 0.677616 0.018628942
vt 0.68026954 -0.018628942
vt 0.68026954 0.018628942
vt 0.6827285 -0.018628942
vt 0.6827285 0.018628942
vt 0.68522495 -0.018628942
vt 0.68522495 0.018628942
vt 0.6877005 -0.018628942
vt 0.6877005 0.018628942
vt 0.69013864 -0.018628942
vt 0.69013864 0.018628942
vt 0.6925674 -0.018628942
vt 0.6925674 0.018628942
vt 0.6950173 -0.018628942
vt 0.6950173 0.018628942
vt 0.6975097 -0.018628942
vt 0.6975097 0.018628942
vt 0.7000527 -0.018628942
vt 0.7000527 0.018628942
vt 0.7026401 -0.018628942
vt 0.7026401 0.018628942
vt 0.70524895 -0.018628942
vt 0.70524895 0.018628942
vt 0.70784897 -0.018628942
vt 0.70784897 0.018628942
vt 0.7104091 -0.018628942
vt 0.7104091 0.018628942
vt 0.7129182 -0.018628942
vt 0.7129182 0.018628942
vt 0.7152472 -0.018628942
vt 0.7152472 0.018628942
vt 0.71754235 -0.018628942
vt 0.71754235 0.018628942
vt 0.71983415 -0.018628942
vt 0.71983415 0.018628942
vt 0.7221222 -0.018628942
vt 0.7221222 0.018628942
vt 0.7244115 -0.018628942
vt 0.7244115 0.018628942
vt 0.72670954 -0.018628942
vt 0.72670954 0.018628942
vt 0.7290222 -0.018628942
vt 0.7290222 0.018628942
vt 0.7313498 -0.018628942
vt 0.7313498 0.018628942
vt 0.7336846 -0.018628942
vt 0.7336846 0.018628942
vt 0.7360128 -0.018628942
vt 0.7360128 0.018628942
vt 0.73831844 -0.018628942
vt 0.73831844 0.018628942
vt 0.73978525 -0.018628942
vt 0.73978525 0.018628942
vt 0.74116814 -0.018628942
vt 0.74116814 0.018628942
vt 0.7425509 -0.018628942
vt 0.7425509 0.018628942
vt 0.7439367 -0.018628942
vt 0.7439367 0.018628942
vt 0.7453273 -0.018628942
vt 0.7453273 0.018628942
vt 0.74672055 -0.018628942
vt 0.74672055 0.018628942
vt 0.74811083 -0.018628942
vt 0.74811083 0.018628942
vt 0.7486147 -0.0150438
vt 0.7486147 0.0150438
vt 0.75937015 -0.008488629
vt 0.75937015 0.008488629
vn -0 1 0
vn -0 1 0
vn -0 1 0
vn -0 1 0
vn -0 1 0
vn -0 1 0
vn -0 1 0
vn -0 1 0
vn -0 1 0
vn -0 1 0
vn -0 1 0
vn -0 1 0
vn -0 1 0
vn -0 1 0
vn -0 1 0
vn -0 1 0
vn -0 1 0
vn -0 1 0
vn -0 1 0
vn -0 1 0
vn -0 1 0
vn -0 1 0
vn -0 1 0
vn -0 1 0
vn -0 1 0
vn -0 1 0
vn -0 1 0
vn -0 1 0
vn -0 1 0
vn -0 1 0
vn -0 1 0
vn -0 1 0
vn -0 1 0
vn -0 1 0
vn -0 1 0
vn -0 1 0
vn -0 1 0
vn -0 1 0
vn -0 1 0
vn -0 1 0
vn -0 1 0
vn -0 1 0
vn -0 1 0
vn -0 1 0
vn -0 1 0
vn -0 1 0
vn -0 1 0
vn -0 1 0
vn -0 1 0
vn -0 1 0
vn -0 1 0
vn -0 1 0
vn -0 1 0
vn -0 1 0
vn -0 1 0
vn -0 1 0
vn -0 1 0
vn -0 1 0
vn -0 1 0
vn -0 1 0
vn -0 1 0
vn -0 1 0
vn -0 1 0
vn -0 1 0
vn -0 1 0
vn -0 1 0
vn -0 1 0
vn -0 1 0
vn -0 1 0
vn -0 1 0
vn -0 1 0
vn -0 1 0
vn -0 1 0
vn -0 1 0
vn -0 1 0
vn -0 1 0
vn -0 1 0
vn -0 1 0
vn -0 1 0
vn -0 1 0
vn -0 1 0
vn -0 1 0
vn -0 1 0
vn -0 1 0
vn -0 1 0
vn -0 1 0
vn -0 1 0
vn -0 1 0
vn -0 1 0
vn -0 1 0
vn -0 1 0
vn -0 1 0
vn -0 1 0
vn -0 1 0
vn -0 1 0
vn -0 1 0
vn -0 1 0
vn -0 1 0
vn -0 1 0
vn -0 1 0
vn -0 1 0
vn -0 1 0
vn -0 1 0
vn -0 1 0
vn -0 1 0
vn -0 1 0
vn -0 1 0
vn -0 1 0
vn -0 1 0
vn -0 1 0
vn -0 1 0
vn -0 1 0
vn -0 1 0
vn -0 1 0
vn -0 1 0
vn -0 1 0
vn -0 1 0
vn -0 1 0
vn -0 1 0
vn -0 1 0
vn -0 1 0
vn -0 1 0
vn -0 1 0
vn -0 1 0
vn -0 1 0
vn -0 1 0
vn -0 1 0
vn -0 1 0
vn -0 1 0
vn -0 1 0
vn -0 1 0
vn -0 1 0
vn -0 1 0
vn -0 1 0
vn -0 1 0
vn -0 1 0
vn -0 1 0
vn -0 1 0
vn -0 1 0
vn -0 1 0
vn -0 1 0
vn -0 1 0
vn -0 1 0
vn -0 1 0
vn -0 1 0
vn -0 1 0
vn -0 1 0
vn -0 1 0
vn -0 1 0
vn -0 1 0
vn -0 1 0
vn -0 1 0
vn -0 1 0
vn -0 1 0
vn -0 1 0
vn -0 1 0
vn -0 1 0
vn -0 1 0
vn -0 1 0
vn -0 1 0
vn -0 1 0
vn -0 1 0
vn -0 1 0
vn -0 1 0
vn -0 1 0
vn -0 1 0
vn -0 1 0
vn -0 1 0
vn -0 1 0
vn -0 1 0
vn -0 1 0
vn -0 1 0
vn -0 1 0
vn -0 1 0
vn -0 1 0
vn -0 1 0
vn -0 1 0
vn -0 1 0
vn -0 1 0
vn -0 1 0
vn -0 1 0
vn -0 1 0
vn -0 1 0
vn -0 1 0
vn -0 1 0
vn -0 1 0
vn -0 1 0
vn -0 1 0
vn -0 1 0
vn -0 1 0
vn -0 1 0
vn -0 1 0
vn -0 1 0
vn -0 1 0
vn -0 1 0
vn -0 1 0
vn -0 1 0
vn -0 1 0
vn -0 1 0
vn -0 1 0
vn -0 1 0
vn -0 1 0
vn -0 1 0
vn -0 1 0
vn -0 1 0
vn -0 1 0
vn -0 1 0
vn -0 1 0
vn -0 1 0
vn -0 1 0
vn -0 1 0
vn -0 1 0
vn -0 1 0
vn -0 1 0
vn -0 1 0
vn -0 1 0
vn -0 1 0
vn -0 1 0
vn -0 1 0
vn -0 1 0
vn -0 1 0
vn -0 1 0
vn -0 1 0
vn -0 1 0
vn -0 1 0
vn -0 1 0
vn -0 1 0
vn -0 1 0
vn -0 1 0
vn -0 1 0
vn -0 1 0
vn -0 1 0
vn -0 1 0
vn -0 1 0
vn -0 1 0
vn -0 1 0
vn -0 1 0
vn -0 1 0
vn -0 1 0
vn -0 1 0
vn -0 1 0
vn -0 1 0
vn -0 1 0
vn -0 1 0
vn -0 1 0
vn -0 1 0
vn -0 1 0
vn -0 1 0
vn -0 1 0
vn -0 1 0
vn -0 1 0
vn -0 1 0
vn -0 1 0
vn -0 1 0
vn -0 1 0
vn -0 1 0
vn -0 1 0
vn -0 1 0
vn -0 1 0
vn -0 1 0
vn -0 1 0
vn -0 1 0
vn -0 1 0
vn -0 1 0
vn -0 1 0
vn -0 1 0
vn -0 1 0
vn -0 1 0
vn -0 1 0
vn -0 1 0
vn -0 1 0
vn -0 1 0
vn -0 1 0
vn -0 1 0
vn -0 1 0
vn -0 1 0
vn -0 1 0
vn -0 1 0
vn -0 1 0
vn -0 1 0
vn -0 1 0
vn -0 1 0
vn -0 1 0
vn -0 1 0
vn -0 1 0
vn -0 1 0
vn -0 1 -0
vn -0 1 0
vn -0 1 0
vn -0 1 0
vn -0 1 0
vn -0 1 0
vn -0 1 0
vn -0 1 0
vn -0 1 0
vn -0 1 0
vn -0 1 0
vn -0 1 0
vn -0 1 0
vn -0 1 0
vn -0 1 0
vn -0 1 0
vn -0 1 0
vn -0 1 0
vn -0 1 0
vn -0 1 0
vn -0 1 0
vn -0 1 0
vn -0 1 0
vn -0 1 0
vn -0 1 0
vn -0 1 0
vn -0 1 0
vn -0 1 0
vn -0 1 0
vn -0 1 0
vn -0 1 0
vn -0 1 0
vn -0 1 0
vn -0 1 0
vn -0 1 0
vn -0 1 0
vn -0 1 0
vn -0 1 0
vn -0 1 0
vn -0 1 0
vn -0 1 0
vn -0 1 0
vn -0 1 0
vn -0 1 0
vn -0 1 0
vn -0 1 0
vn -0 1 0
vn -0 1 0
vn -0 1 0
vn -0 1 0
vn -0 1 0
vn -0 1 0
vn -0 1 0
vn -0 1 0
vn -0 1 0
vn -0 1 0
vn -0 1 0
vn -0 1 0
vn -0 1 0
vn -0 1 0
vn -0 1 0
vn -0 1 0
vn -0 1 0
vn -0 1 0
vn -0 1 0
vn -0 1 0
vn -0 1 0
vn -0 1 0
vn -0 1 0
vn -0 1 0
vn -0 1 0
vn -0 1 0
vn -0 1 0
vn -0 1 0
vn -0 1 0
vn -0 1 0
vn -0 1 0
vn -0 1 0
vn -0 1 0
vn -0 1 0
vn -0 1 0
vn -0 1 0
vn -0 1 0
vn -0 1 0
vn -0 1 0
vn -0 1 0
vn -0 1 0
vn -0 1 0
vn -0 1 0
vn -0 1 0
vn -0 1 0
vn -0 1 0
vn -0 1 0
vn -0 1 0
vn -0 1 0
vn -0 1 0
vn -0 1 0
vn -0 1 0
vn -0 1 0
vn -0 1 0
vn -0 1 0
vn -0 1 0
vn -0 1 0
vn -0 1 0
vn -0 1 0
vn -0 1 0
vn -0 1 0
vn -0 1 0
vn -0 1 0
vn -0 1 0
vn -0 1 0
vn -0 1 0
vn -0 1 0
vn -0 1 0
vn -0 1 0
vn -0 1 0
vn -0 1 0
vn -0 1 0
vn -0 1 0
vn -0 1 0
vn -0 1 0
vn -0 1 0
vn -0 1 0
vn -0 1 0
vn -0 1 0
vn -0 1 0
vn -0 1 0
vn -0 1 0
vn -0 1 0
vn -0 1 0
vn -0 1 0
vn -0 1 0
vn -0 1 0
vn -0 1 0
vn -0 1 0
vn -0 1 0
vn -0 1 0
vn -0 1 0
vn -0 1 0
vn -0 1 0
vn -0 1 0
vn -0 1 0
vn -0 1 0
vn -0 1 0
vn -0 1 0
vn -0 1 0
vn -0 1 0
vn 0 1 0
vn -0 1 0
vn -0 1 0
vn -0 1 0
vn -0 1 0
vn -0 1 0
vn -0 1 0
vn -0 1 0
vn -0 1 0
vn -0 1 0
vn -0 1 0
vn -0 1 0
vn -0 1 0
vn -0 1 0
vn -0 1 0
vn -0 1 0
vn -0 1 0
vn -0 1 0
vn -0 1 0
vn -0 1 0
vn -0 1 0
vn -0 1 0
vn -0 1 0
vn -0 1 0
vn -0 1 0
vn -0 1 0
vn -0 1 0
vn -0 1 0
vn -0 1 0
vn -0 1 0
vn -0 1 0
vn -0 1 0
vn -0 1 0
vn -0 1 0
vn -0 1 0
vn -0 1 0
vn -0 1 0
vn -0 1 0
vn -0 1 0
vn -0 1 0
vn -0 1 0
vn -0 1 0
vn -0 1 0
vn -0 1 0
vn -0 1 0
vn -0 1 0
vn -0 1 0
vn -0 1 0
vn -0 1 0
vn -0 1 0
vn -0 1 0
vn -0 1 0
vn -0 1 0
vn -0 1 0
vn -0 1 0
vn -0 1 0
vn -0 1 0
vn -0 1 0
vn -0 1 0
vn -0 1 0
vn -0 1 0
vn -0 1 0
vn -0 1 0
vn -0 1 0
vn -0 1 0
vn -0 1 0
vn -0 1 -0
vn -0 1 -0
vn -0 1 0
vn -0 1 0
vn -0 1 0
vn -0 1 0
vn -0 1 0
vn -0 1 0
vn -0 1 0
vn -0 1 0
vn -0 1 0
vn -0 1 0
vn -0 1 0
vn -0 1 0
vn -0 1 0
vn -0 1 0
vn -0 1 0
vn -0 1 0
vn -0 1 0
vn -0 1 0
vn -0 1 0
vn -0 1 0
vn -0 1 0
vn -0 1 0
vn -0 1 0
vn -0 1 0
vn -0 1 0
vn -0 1 0
vn -0 1 0
vn -0 1 0
vn -0 1 0
vn -0 1 0
vn -0 1 0
vn -0 1 0
vn -0 1 0
vn -0 1 0
vn -0 1 0
vn -0 1 0
vn -0 1 0
vn -0 1 0
vn -0 1 0
vn -0 1 0
vn -0 1 0
vn -0 1 0
vn -0 1 0
vn -0 1 0
vn -0 1 0
vn -0 1 0
vn -0 1 0
vn -0 1 0
vn -0 1 0
vn -0 1 0
vn -0 1 0
vn -0 1 0
vn -0 1 0
vn -0 1 0
vn -0 1 0
vn -0 1 0
vn -0 1 0
vn -0 1 0
vn -0 1 0
vn -0 1 0
vn -0 1 0
vn -0 1 0
vn -0 1 -0
vn -0 1 0
vn -0 1 0
vn -0 1 0
vn -0 1 0
g _0
f 3/3/3 2/2/2 1/1/1
f 2/2/2 3/3/3 4/4/4
f 5/5/5 4/4/4 3/3/3
f 4/4/4 5/5/5 6/6/6
f 7/7/7 6/6/6 5/5/5
f 6/6/6 7/7/7 8/8/8
f 9/9/9 8/8/8 7/7/7
f 8/8/8 9/9/9 10/10/10
f 11/11/11 10/10/10 9/9/9
f 10/10/10 11/11/11 12/12/12
f 13/13/13 12/12/12 11/11/11
f 12/12/12 13/13/13 14/14/14
f 15/15/15 14/14/14 13/13/13
f 14/14/14 15/15/15 16/16/16
f 17/17/17 16/16/16 15/15/15
f 16/16/16 17/17/17 18/18/18
f 19/19/19 18/18/18 17/17/17
f 18/18/18 19/19/19 20/20/20
f 21/21/21 20/20/20 19/19/19
f 20/20/20 21/21/21 22/22/22
f 23/23/23 22/22/22 21/21/21
f 22/22/22 23/23/23 24/24/24
f 25/25/25 24/24/24 23/23/23
f 24/24/24 25/25/25 26/26/26
f 27/27/27 26/26/26 25/25/25
f 26/26/26 27/27/27 28/28/28
f 29/29/29 28/28/28 27/27/27
f 28/28/28 29/29/29 30/30/30
f 31/31/31 30/30/30 29/29/29
f 30/30/30 31/31/31 32/32/32
f 33/33/33 32/32/32 31/31/31
f 32/32/32 33/33/33 34/34/34
f 35/35/35 34/34/34 33/33/33
f 34/34/34 35/35/35 36/36/36
f 37/37/37 36/36/36 35/35/35
f 36/36/36 37/37/37 38/38/38
f 39/39/39 38/38/38 37/37/37
f 38/38/38 39/39/39 40/40/40
f 41/41/41 40/40/40 39/39/39
f 40/40/40 41/41/41 42/42/42
f 43/43/43 42/42/42 41/41/41
f 42/42/42 43/43/43 44/44/44
f 45/45/45 44/44/44 43/43/43
f 44/44/44 45/45/45 46/46/46
f 47/47/47 46/46/46 45/45/45
f 46/46/46 47/47/47 48/48/48
f 49/49/49 48/48/48 47/47/47
f 48/48/48 49/49/49 50/50/50
f 51/51/51 50/50/50 49/49/49
f 50/50/50 51/51/51 52/52/52
f 53/53/53 52/52/52 51/51/51
f 52/52/52 53/53/53 54/54/54
f 55/55/55 54/54/54 53/53/53
f 54/54/54 55/55/55 56/56/56
f 57/57/57 56/56/56 55/55/55
f 56/56/56 57/57/57 58/58/58
f 59/59/59 58/58/58 57/57/57
f 58/58/58 59/59/59 60/60/60
f 61/61/61 60/60/60 59/59/59
f 60/60/60 61/61/61 62/62/62
f 63/63/63 62/62/62 61/61/61
f 62/62/62 63/63/63 64/64/64
f 65/65/65 64/64/64 63/63/63
f 64/64/64 65/65/65 66/66/66
f 67/67/67 66/66/66 65/65/65
f 66/66/66 67/67/67 68/68/68
f 69/69/69 68/68/68 67/67/67
f 68/68/68 69/69/69 70/70/70
f 71/71/71 70/70/70 69/69/69
f 70/70/70 71/71/71 72/72/72
f 73/73/73 72/72/72 71/71/71
f 72/72/72 73/73/73 74/74/74
f 75/75/75 74/74/74 73/73/73
f 74/74/74 75/75/75 76/76/76
f 77/77/77 76/76/76 75/75/75
f 76/76/76 77/77/77 78/78/78
f 79/79/79 78/78/78 77/77/77
f 78/78/78 79/79/79 80/80/80
f 81/81/81 80/80/80 79/79/79
f 80/80/80 81/81/81 82/82/82
f 83/83/83 82/82/82 81/81/81
f 82/82/82 83/83/83 84/84/84
f 85/85/85 84/84/84 83/83/83
f 84/84/84 85/85/85 86/86/86
f 87/87/87 86/86/86 85/85/85
f 86/86/86 87/87/87 88/88/88
f 89/89/89 88/88/88 87/87/87
f 88/88/88 89/89/89 90/90/90
f 91/91/91 90/90/90 89/89/89
f 90/90/90 91/91/91 92/92/92
f 93/93/93 92/92/92 91/91/91
f 92/92/92 93/93/93 94/94/94
f 95/95/95 94/94/94 93/93/93
f 94/94/94 95/95/95 96/96/96
f 97/97/97 96/96/96 95/95/95
f 96/96/96 97/97/97 98/98/98
f 99/99/99 98/98/98 97/97/97
f 98/98/98 99/99/99 100/100/100
f 101/101/101 100/100/100 99/99/99
f 100/100/100 101/101/101 102/102/102
f 103/103/103 102/102/102 101/101/101
f 102/102/102 103/103/103 104/104/104
f 105/105/105 104/104/104 103/103/103
f 104/104/104 105/105/105 106/106/106
f 107/107/107 106/106/106 105/105/105
f 106/106/106 107/107/107 108/108/108
f 109/109/109 108/108/108 107/107/107
f 108/108/108 109/109/109 110/110/110
f 111/111/111 110/110/110 109/109/109
f 110/110/110 111/111/111 112/112/112
f 113/113/113 112/112/112 111/111/111
f 112/112/112 113/113/113 114/114/114
f 115/115/115 114/114/114 113/113/113
f 114/114/114 115/115/115 116/116/116
f 117/117/117 116/116/116 115/115/115
f 116/116/116 117/117/117 118/118/118
f 119/119/119 118/118/118 117/117/117
f 118/118/118 119/119/119 120/120/120
f 121/121/121 120/120/120 119/119/119
f 120/120/120 121/121/121 122/122/122
f 123/123/123 122/122/122 121/121/121
f 122/122/122 123/123/123 124/124/124
f 125/125/125 124/124/124 123/123/123
f 124/124/124 125/125/125 126/126/126
f 127/127/127 126/126/126 125/125/125
f 126/126/126 127/127/127 128/128/128
f 129/129/129 128/128/128 127/127/127
f 128/128/128 129/129/129 130/130/130
f 131/131/131 130/130/130 129/129/129
f 130/130/130 131/131/131 132/132/132
f 133/133/133 132/132/132 131/131/131
f 132/132/132 133/133/133 134/134/134
f 135/135/135 134/134/134 133/133/133
f 134/134/134 135/135/135 136/136/136
f 137/137/137 136/136/136 135/135/135
f 136/136/136 137/137/137 138/138/138
f 139/139/139 138/138/138 137/137/137
f 138/138/138 139/139/139 140/140/140
f 141/141/141 140/140/140 139/139/139
f 140/140/140 141/141/141 142/142/142
f 143/143/143 142/142/142 141/141/141
f 142/142/142 143/143/143 144/144/144
f 145/145/145 144/144/144 143/143/143
f 144/144/144 145/145/145 146/146/146
f 147/147/147 146/146/146 145/145/145
f 146/146/146 147/147/147 148/148/148
f 149/149/149 148/148/148 147/147/147
f 148/148/148 149/149/149 150/150/150
f 151/151/151 150/150/150 149/149/149
f 150/150/150 151/151/151 152/152/152
f 153/153/153 152/152/152 151/151/151
f 152/152/152 153/153/153 154/154/154
f 155/155/155 154/154/154 153/153/153
f 154/154/154 155/155/155 156/156/156
f 157/157/157 156/156/156 155/155/155
f 156/156/156 157/157/157 158/158/158
f 159/159/159 158/158/158 157/157/157
f 158/158/158 159/159/159 160/160/160
f 161/161/161 160/160/160 159/159/159
f 160/160/160 161/161/161 162/162/162
f 163/163/163 162/162/162 161/161/161
f 162/162/162 163/163/163 164/164/164
f 165/165/165 164/164/164 163/163/163
f 164/164/164 165/165/165 166/166/166
f 167/167/167 166/166/166 165/165/165
f 166/166/166 167/167/167 168/168/168
f 169/169/169 168/168/168 167/167/167
f 168/168/168 169/169/169 170/170/170
f 171/171/171 170/170/170 169/169/169
f 170/170/170 171/171/171 172/172/172
f 173/173/173 172/172/172 171/171/171
f 172/172/172 173/173/173 174/174/174
f 175/175/175 174/174/174 173/173/173
f 174/174/174 175/175/175 176/176/176
f 177/177/177 176/176/176 175/175/175
f 176/176/176 177/177/177 178/178/178
f 179/179/179 178/178/178 177/177/177
f 178/178/178 179/179/179 180/180/180
f 181/181/181 180/180/180 179/179/179
f 180/180/180 181/181/181 182/182/182
f 183/183/183 182/182/182 181/181/181
f 182/182/182 183/183/183 184/184/184
f 185/185/185 184/184/184 183/183/183
f 184/184/184 185/185/185 186/186/186
f 187/187/187 186/186/186 185/185/185
f 186/186/186 187/187/187 188/188/188
f 189/189/189 188/188/188 187/187/187
f 188/188/188 189/189/189 190/190/190
f 191/191/191 190/190/190 189/189/189
f 190/190/190 191/191/191 192/192/192
f 193/193/193 192/192/192 191/191/191
f 192/192/192 193/193/193 194/194/194
f 195/195/195 194/194/194 193/193/193
f 194/194/194 195/195/195 196/196/196
f 197/197/197 196/196/196 195/195/195
f 196/196/196 197/197/197 198/198/198
f 199/199/199 198/198/198 197/197/197
f 198/198/198 199/199/199 200/200/200
f 201/201/201 200/200/200 199/199/199
f 200/200/200 201/201/201 202/202/202
f 203/203/203 202/202/202 201/201/201
f 202/202/202 203/203/203 204/204/204
f 205/205/205 204/204/204 203/203/203
f 204/204/204 205/205/205 206/206/206
f 207/207/207 206/206/206 205/205/205
f 206/206/206 207/207/207 208/208/208
f 209/209/209 208/208/208 207/207/207
f 208/208/208 209/209/209 210/210/210
f 211/211/211 210/210/210 209/209/209
f 210/210/210 211/211/211 212/212/212
f 213/213/213 212/212/212 211/211/211
f 212/212/212 213/213/213 214/214/214
f 215/215/215 214/214/214 213/213/213
f 214/214/214 215/215/215 216/216/216
f 217/217/217 216/216/216 215/215/215
f 216/216/216 217/217/217 218/218/218
f 219/219/219 218/218/218 217/217/217
f 218/218/218 219/219/219 220/220/220
f 221/221/221 220/220/220 219/219/219
f 220/220/220 221/221/221 222/222/222
f 223/223/223 222/222/222 221/221/221
f 222/222/222 223/223/223 224/224/224
f 225/225/225 224/224/224 223/223/223
f 224/224/224 225/225/225 226/226/226
f 227/227/227 226/226/226 225/225/225
f 226/226/226 227/227/227 228/228/228
f 229/229/229 228/228/228 227/227/227
f 228/228/228 229/229/229 230/230/230
f 231/231/231 230/230/230 229/229/229
f 230/230/230 231/231/231 232/232/232
f 233/233/233 232/232/232 231/231/231
f 232/232/232 233/233/233 234/234/234
f 235/235/235 234/234/234 233/233/233
f 234/234/234 235/235/235 236/236/236
f 237/237/237 236/236/236 235/235/235
f 236/236/236 237/237/237 238/238/238
f 239/239/239 238/238/238 237/237/237
f 238/238/238 239/239/239 240/240/240
f 241/241/241 240/240/240 239/239/239
f 240/240/240 241/241/241 242/242/242
f 243/243/243 242/242/242 241/241/241
f 242/242/242 243/243/243 244/244/244
f 245/245/245 244/244/244 243/243/243
f 244/244/244 245/245/245 246/246/246
f 247/247/247 246/246/246 245/245/245
f 246/246/246 247/247/247 248/248/248
f 249/249/249 248/248/248 247/247/247
f 248/248/248 249/249/249 250/250/250
f 251/251/251 250/250/250 249/249/249
f 250/250/250 251/251/251 252/252/252
f 253/253/253 252/252/252 251/251/251
f 252/252/252 253/253/253 254/254/254
f 255/255/255 254/254/254 253/253/253
f 254/254/254 255/255/255 256/256/256
f 257/257/257 256/256/256 255/255/255
f 256/256/256 257/257/257 258/258/258
f 259/259/259 258/258/258 257/257/257
f 258/258/258 259/259/259 260/260/260
f 261/261/261 260/260/260 259/259/259
f 260/260/260 261/261/261 262/262/262
f 263/263/263 262/262/262 261/261/261
f 262/262/262 263/263/263 264/264/264
f 265/265/265 264/264/264 263/263/263
f 264/264/264 265/265/265 266/266/266
f 267/267/267 266/266/266 265/265/265
f 266/266/266 267/267/267 268/268/268
f 269/269/269 268/268/268 267/267/267
f 268/268/268 269/269/269 270/270/270
f 271/271/271 270/270/270 269/269/269
f 270/270/270 271/271/271 272/272/272
f 273/273/273 272/272/272 271/271/271
f 272/272/272 273/273/273 274/274/274
f 275/275/275 274/274/274 273/273/273
f 274/274/274 275/275/275 276/276/276
f 277/277/277 276/276/276 275/275/275
f 276/276/276 277/277/277 278/278/278
f 279/279/279 278/278/278 277/277/277
f 278/278/278 279/279/279 280/280/280
f 281/281/281 280/280/280 279/279/279
f 280/280/280 281/281/281 282/282/282
f 283/283/283 282/282/282 281/281/281
f 282/282/282 283/283/283 284/284/284
f 285/285/285 284/284/284 283/283/283
f 284/284/284 285/285/285 286/286/286
f 287/287/287 286/286/286 285/285/285
f 286/286/286 287/287/287 288/288/288
f 289/289/289 288/288/288 287/287/287
f 288/288/288 289/289/289 290/290/290
f 291/291/291 290/290/290 289/289/289
f 290/290/290 291/291/291 292/292/292
f 293/293/293 292/292/292 291/291/291
f 292/292/292 293/293/293 294/294/294
f 295/295/295 294/294/294 293/293/293
f 294/294/294 295/295/295 296/296/296
f 297/297/297 296/296/296 295/295/295
f 296/296/296 297/297/297 298/298/298
f 299/299/299 298/298/298 297/297/297
f 298/298/298 299/299/299 300/300/300
f 301/301/301 300/300/300 299/299/299
f 300/300/300 301/301/301 302/302/302
f 303/303/303 302/302/302 301/301/301
f 302/302/302 303/303/303 304/304/304
f 305/305/305 304/304/304 303/303/303
f 304/304/304 305/305/305 306/306/306
f 307/307/307 306/306/306 305/305/305
f 306/306/306 307/307/307 308/308/308
f 309/309/309 308/308/308 307/307/307
f 308/308/308 309/309/309 310/310/310
f 311/311/311 310/310/310 309/309/309
f 310/310/310 311/311/311 312/312/312
f 313/313/313 312/312/312 311/311/311
f 312/312/312 313/313/313 314/314/314
f 315/315/315 314/314/314 313/313/313
f 314/314/314 315/315/315 316/316/316
f 316/316/316 317/317/317 318/318/318
f 318/318/318 319/319/319 320/320/320
f 321/321/321 320/320/320 319/319/319
f 320/320/320 321/321/321 322/322/322
f 323/323/323 322/322/322 321/321/321
f 322/322/322 323/323/323 324/324/324
f 325/325/325 324/324/324 323/323/323
f 327/327/327 326/326/326 325/325/325
f 329/329/329 328/328/328 327/327/327
f 331/331/331 330/330/330 329/329/329
f 333/333/333 332/332/332 331/331/331
f 335/335/335 334/334/334 333/333/333
f 334/334/334 335/335/335 336/336/336
f 337/337/337 336/336/336 335/335/335
f 336/336/336 337/337/337 338/338/338
f 339/339/339 338/338/338 337/337/337
f 338/338/338 339/339/339 340/340/340
f 341/341/341 340/340/340 339/339/339
f 340/340/340 341/341/341 342/342/342
f 343/343/343 342/342/342 341/341/341
f 342/342/342 343/343/343 344/344/344
f 345/345/345 344/344/344 343/343/343
f 344/344/344 345/345/345 346/346/346
f 347/347/347 346/346/346 345/345/345
f 346/346/346 347/347/347 348/348/348
f 349/349/349 348/348/348 347/347/347
f 348/348/348 349/349/349 350/350/350
f 351/351/351 350/350/350 349/349/349
f 350/350/350 351/351/351 352/352/352
f 353/353/353 352/352/352 351/351/351
f 352/352/352 353/353/353 354/354/354
f 355/355/355 354/354/354 353/353/353
f 354/354/354 355/355/355 356/356/356
f 357/357/357 356/356/356 355/355/355
f 356/356/356 357/357/357 358/358/358
f 359/359/359 358/358/358 357/357/357
f 358/358/358 359/359/359 360/360/360
f 361/361/361 360/360/360 359/359/359
f 360/360/360 361/361/361 362/362/362
f 363/363/363 362/362/362 361/361/361
f 362/362/362 363/363/363 364/364/364
f 365/365/365 364/364/364 363/363/363
f 364/364/364 365/365/365 366/366/366
f 367/367/367 366/366/366 365/365/365
f 366/366/366 367/367/367 368/368/368
f 369/369/369 368/368/368 367/367/367
f 368/368/368 369/369/369 370/370/370
f 371/371/371 370/370/370 369/369/369
f 370/370/370 371/371/371 372/372/372
f 373/373/373 372/372/372 371/371/371
f 372/372/372 373/373/373 374/374/374
f 375/375/375 374/374/374 373/373/373
f 374/374/374 375/375/375 376/376/376
f 377/377/377 376/376/376 375/375/375
f 376/376/376 377/377/377 378/378/378
f 379/379/379 378/378/378 377/377/377
f 378/378/378 379/379/379 380/380/380
f 381/381/381 380/380/380 379/379/379
f 380/380/380 381/381/381 382/382/382
f 383/383/383 382/382/382 381/381/381
f 382/382/382 383/383/383 384/384/384
f 385/385/385 384/384/384 383/383/383
f 384/384/384 385/385/385 386/386/386
f 387/387/387 386/386/386 385/385/385
f 386/386/386 387/387/387 388/388/388
f 389/389/389 388/388/388 387/387/387
f 388/388/388 389/389/389 390/390/390
f 391/391/391 390/390/390 389/389/389
f 390/390/390 391/391/391 392/392/392
f 393/393/393 392/392/392 391/391/391
f 392/392/392 393/393/393 394/394/394
f 395/395/395 394/394/394 393/393/393
f 394/394/394 395/395/395 396/396/396
f 397/397/397 396/396/396 395/395/395
f 396/396/396 397/397/397 398/398/398
f 399/399/399 398/398/398 397/397/397
f 398/398/398 399/399/399 400/400/400
f 401/401/401 400/400/400 399/399/399
f 400/400/400 401/401/401 402/402/402
f 403/403/403 402/402/402 401/401/401
f 402/402/402 403/403/403 404/404/404
f 405/405/405 404/404/404 403/403/403
f 404/404/404 405/405/405 406/406/406
f 407/407/407 406/406/406 405/405/405
f 406/406/406 407/407/407 408/408/408
f 409/409/409 408/408/408 407/407/407
f 408/408/408 409/409/409 410/410/410
f 411/411/411 410/410/410 409/409/409
f 410/410/410 411/411/411 412/412/412
f 413/413/413 412/412/412 411/411/411
f 412/412/412 413/413/413 414/414/414
f 415/415/415 414/414/414 413/413/413
f 414/414/414 415/415/415 416/416/416
f 417/417/417 416/416/416 415/415/415
f 416/416/416 417/417/417 418/418/418
f 419/419/419 418/418/418 417/417/417
f 418/418/418 419/419/419 420/420/420
f 421/421/421 420/420/420 419/419/419
f 420/420/420 421/421/421 422/422/422
f 423/423/423 422/422/422 421/421/421
f 422/422/422 423/423/423 424/424/424
f 425/425/425 424/424/424 423/423/423
f 424/424/424 425/425/425 426/426/426
f 427/427/427 426/426/426 425/425/425
f 426/426/426 427/427/427 428/428/428
f 429/429/429 428/428/428 427/427/427
f 428/428/428 429/429/429 430/430/430
f 431/431/431 430/430/430 429/429/429
f 430/430/430 431/431/431 432/432/432
f 433/433/433 432/432/432 431/431/431
f 432/432/432 433/433/433 434/434/434
f 435/435/435 434/434/434 433/433/433
f 434/434/434 435/435/435 436/436/436
f 437/437/437 436/436/436 435/435/435
f 436/436/436 437/437/437 438/438/438
f 439/439/439 438/438/438 437/437/437
f 438/438/438 439/439/439 440/440/440
f 441/441/441 440/440/440 439/439/439
f 440/440/440 441/441/441 442/442/442
f 443/443/443 442/442/442 441/441/441
f 442/442/442 443/443/443 444/444/444
f 445/445/445 444/444/444 443/443/443
f 444/444/444 445/445/445 446/446/446
f 447/447/447 446/446/446 445/445/445
f 446/446/446 447/447/447 448/448/448
f 449/449/449 448/448/448 447/447/447
f 448/448/448 449/449/449 450/450/450
f 451/451/451 450/450/450 449/449/449
f 450/450/450 451/451/451 452/452/452
f 453/453/453 452/452/452 451/451/451
f 452/452/452 453/453/453 454/454/454
f 455/455/455 454/454/454 453/453/453
f 454/454/454 455/455/455 456/456/456
f 457/457/457 456/456/456 455/455/455
f 456/456/456 457/457/457 458/458/458
f 459/459/459 458/458/458 457/457/457
f 458/458/458 459/459/459 460/460/460
f 461/461/461 460/460/460 459/459/459
f 460/460/460 461/461/461 462/462/462
f 463/463/463 462/462/462 461/461/461
f 462/462/462 463/463/463 464/464/464
f 465/465/465 464/464/464 463/463/463
f 464/464/464 465/465/465 466/466/466
f 467/467/467 466/466/466 465/465/465
f 466/466/466 467/467/467 468/468/468
f 469/469/469 468/468/468 467/467/467
f 471/471/471 470/470/470 469/469/469
f 473/473/473 472/472/472 471/471/471
f 475/475/475 474/474/474 473/473/473
f 477/477/477 476/476/476 475/475/475
f 479/479/479 478/478/478 477/477/477
f 478/478/478 479/479/479 480/480/480
f 481/481/481 480/480/480 479/479/479
f 480/480/480 481/481/481 482/482/482
f 483/483/483 482/482/482 481/481/481
f 482/482/482 483/483/483 484/484/484
f 485/485/485 484/484/484 483/483/483
f 484/484/484 485/485/485 486/486/486
f 487/487/487 486/486/486 485/485/485
f 486/486/486 487/487/487 488/488/488
f 489/489/489 488/488/488 487/487/487
f 488/488/488 489/489/489 490/490/490
f 491/491/491 490/490/490 489/489/489
f 490/490/490 491/491/491 492/492/492
f 493/493/493 492/492/492 491/491/491
f 492/492/492 493/493/493 494/494/494
f 495/495/495 494/494/494 493/493/493
f 494/494/494 495/495/495 496/496/496
f 497/497/497 496/496/496 495/495/495
f 496/496/496 497/497/497 498/498/498
f 499/499/499 498/498/498 497/497/497
f 498/498/498 499/499/499 500/500/500
f 501/501/501 500/500/500 499/499/499
f 500/500/500 501/501/501 502/502/502
f 502/502/502 503/503/503 504/504/504
f 504/504/504 505/505/505 506/506/506
f 507/507/507 506/506/506 505/505/505
f 506/506/506 507/507/507 508/508/508
f 509/509/509 508/508/508 507/507/507
f 508/508/508 509/509/509 510/510/510
f 511/511/511 510/510/510 509/509/509
f 510/510/510 511/511/511 512/512/512
f 513/513/513 512/512/512 511/511/511
f 512/512/512 513/513/513 514/514/514
f 515/515/515 514/514/514 513/513/513
f 514/514/514 515/515/515 516/516/516
f 517/517/517 516/516/516 515/515/515
f 516/516/516 517/517/517 518/518/518
f 519/519/519 518/518/518 517/517/517
f 518/518/518 519/519/519 520/520/520
f 521/521/521 520/520/520 519/519/519
f 520/520/520 521/521/521 522/522/522
f 523/523/523 522/522/522 521/521/521
f 522/522/522 523/523/523 524/524/524
f 525/525/525 524/524/524 523/523/523
f 524/524/524 525/525/525 526/526/526
f 527/527/527 526/526/526 525/525/525
f 526/526/526 527/527/527 528/528/528
f 529/529/529 528/528/528 527/527/527
f 528/528/528 529/529/529 530/530/530
f 531/531/531 530/530/530 529/529/529
f 530/530/530 531/531/531 532/532/532
f 533/533/533 532/532/532 531/531/531
f 532/532/532 533/533/533 534/534/534
f 535/535/535 534/534/534 533/533/533
f 534/534/534 535/535/535 536/536/536
f 537/537/537 536/536/536 535/535/535
f 536/536/536 537/537/537 538/538/538
f 539/539/539 538/538/538 537/537/537
f 538/538/538 539/539/539 540/540/540
f 541/541/541 540/540/540 539/539/539
f 540/540/540 541/541/541 542/542/542
f 543/543/543 542/542/542 541/541/541
f 542/542/542 543/543/543 544/544/544
f 545/545/545 544/544/544 543/543/543
f 544/544/544 545/545/545 546/546/546
f 547/547/547 546/546/546 545/545/545
f 546/546/546 547/547/547 548/548/548
f 549/549/549 548/548/548 547/547/547
f 548/548/548 549/549/549 550/550/550
f 551/551/551 550/550/550 549/549/549
f 550/550/550 551/551/551 552/552/552
f 553/553/553 552/552/552 551/551/551
f 552/552/552 553/553/553 554/554/554
f 555/555/555 554/554/554 553/553/553
f 554/554/554 555/555/555 556/556/556
f 557/557/557 556/556/556 555/555/555
f 556/556/556 557/557/557 558/558/558
f 559/559/559 558/558/558 557/557/557
f 558/558/558 559/559/559 560/560/560
f 561/561/561 560/560/560 559/559/559
f 560/560/560 561/561/561 562/562/562
f 562/562/562 563/563/563 564/564/564
f 565/565/565 564/564/564 563/563/563
f 564/564/564 565/565/565 566/566/566
f 567/567/567 566/566/566 565/565/565
f 566/566/566 567/567/567 568/568/568
