g 
v 18.130877 18.4 -88.196724
v 28.345032 18.4 -112.28567
v 20.508265 18.4 -76.21532
v 38.610115 18.4 -118.90643
v 33.612114 18.4 -64.6575
v 56.02789 18.4 -117.52249
v 41.415157 18.425926 -61.08828
v 64.0182 18.425926 -114.39503
v 50.076267 18.457201 -57.101463
v 72.90526 18.457201 -110.94111
v 58.65706 18.5107 -52.925343
v 81.87257 18.5107 -107.67651
v 67.26462 18.556791 -48.812325
v 90.81311 18.556791 -104.34881
v 75.93464 18.585598 -44.846542
v 99.69126 18.585598 -100.87384
v 80.269646 18.6 -42.863647
v 104.13035 18.6 -99.13635
v 98.81018 18.6 -41.3905
v 118.07888 18.6 -86.83351
v 109.73695 18.6 -48.43805
v 120.60952 18.6 -74.07977
v 18.130877 18.4 -88.196724
v 18.130877 -11.6 -88.196724
v 20.508265 18.4 -76.21532
v 20.508265 -11.6 -76.21532
v 20.508265 18.4 -76.21532
v 20.508265 -11.6 -76.21532
v 33.612114 18.4 -64.6575
v 33.612114 -11.6 -64.6575
v 33.612114 18.4 -64.6575
v 33.612114 -11.6 -64.6575
v 41.415157 18.425926 -61.08828
v 41.415157 -11.574074 -61.08828
v 41.415157 18.425926 -61.08828
v 41.415157 -11.574074 -61.08828
v 50.076267 18.457201 -57.101463
v 50.076267 -11.542799 -57.101463
v 50.076267 18.457201 -57.101463
v 50.076267 -11.542799 -57.101463
v 58.65706 18.5107 -52.925343
v 58.65706 -11.4893 -52.925343
v 58.65706 18.5107 -52.925343
v 58.65706 -11.4893 -52.925343
v 67.26462 18.556791 -48.812325
v 67.26462 -11.443209 -48.812325
v 67.26462 18.556791 -48.812325
v 67.26462 -11.443209 -48.812325
v 75.93464 18.585598 -44.846542
v 75.93464 -11.414402 -44.846542
v 75.93464 18.585598 -44.846542
v 75.93464 -11.414402 -44.846542
v 80.269646 18.6 -42.863647
v 80.269646 -11.4 -42.863647
v 80.269646 18.6 -42.863647
v 80.269646 -11.4 -42.863647
v 98.81018 18.6 -41.3905
v 98.81018 -11.4 -41.3905
v 98.81018 18.6 -41.3905
v 98.81018 -11.4 -41.3905
v 109.73695 18.6 -48.43805
v 109.73695 -11.4 -48.43805
v 28.345032 18.4 -112.28567
v 28.345032 -11.6 -112.28567
v 38.610115 18.4 -118.90643
v 38.610115 -11.6 -118.90643
v 38.610115 18.4 -118.90643
v 38.610115 -11.6 -118.90643
v 56.02789 18.4 -117.52249
v 56.02789 -11.6 -117.52249
v 56.02789 18.4 -117.52249
v 56.02789 -11.6 -117.52249
v 64.0182 18.425926 -114.39503
v 64.0182 -11.574074 -114.39503
v 64.0182 18.425926 -114.39503
v 64.0182 -11.574074 -114.39503
v 72.90526 18.457201 -110.94111
v 72.90526 -11.542799 -110.94111
v 72.90526 18.457201 -110.94111
v 72.90526 -11.542799 -110.94111
v 81.87257 18.5107 -107.67651
v 81.87257 -11.4893 -107.67651
v 81.87257 18.5107 -107.67651
v 81.87257 -11.4893 -107.67651
v 90.81311 18.556791 -104.34881
v 90.81311 -11.443209 -104.34881
v 90.81311 18.556791 -104.34881
v 90.81311 -11.443209 -104.34881
v 99.69126 18.585598 -100.87384
v 99.69126 -11.414402 -100.87384
v 99.69126 18.585598 -100.87384
v 99.69126 -11.414402 -100.87384
v 104.13035 18.6 -99.13635
v 104.13035 -11.4 -99.13635
v 104.13035 18.6 -99.13635
v 104.13035 -11.4 -99.13635
v 118.07888 18.6 -86.83351
v 118.07888 -11.4 -86.83351
v 118.07888 18.6 -86.83351
v 118.07888 -11.4 -86.83351
v 120.60952 18.6 -74.07977
v 120.60952 -11.4 -74.07977
vt -0.06879371 -0.12378626
vt -0.044158574 -0.114970565
vt -0.075992346 -0.13365468
vt -0.03233324 -0.11803127
vt -0.075609714 -0.15112317
vt -0.021546053 -0.13177648
vt -0.07294569 -0.15927973
vt -0.018430278 -0.13977136
vt -0.07000717 -0.16835028
vt -0.014946786 -0.14864686
vt -0.06726227 -0.17749004
vt -0.011269693 -0.15745306
vt -0.06445285 -0.18660675
vt -0.0076571433 -0.16628236
vt -0.061492816 -0.19566956
vt -0.004195163 -0.17516558
vt -0.06001281 -0.20020099
vt -0.0024641678 -0.1796072
vt -0.04853027 -0.21483222
vt -0.002056879 -0.1982017
vt -0.035942663 -0.2180902
vt -0.009719546 -0.20870624
vt -0.06879371 -0.12378626
vt -0.06879371 -0.12378626
vt -0.075992346 -0.13365468
vt -0.075992346 -0.13365468
vt -0.075992346 -0.13365468
vt -0.075992346 -0.13365468
vt -0.075609714 -0.15112317
vt -0.075609714 -0.15112317
vt -0.075609714 -0.15112317
vt -0.075609714 -0.15112317
vt -0.07294569 -0.15927973
vt -0.07294569 -0.15927973
vt -0.07294569 -0.15927973
vt -0.07294569 -0.15927973
vt -0.07000717 -0.16835028
vt -0.07000717 -0.16835028
vt -0.07000717 -0.16835028
vt -0.07000717 -0.16835028
vt -0.06726227 -0.17749004
vt -0.06726227 -0.17749004
vt -0.06726227 -0.17749004
vt -0.06726227 -0.17749004
vt -0.06445285 -0.18660675
vt -0.06445285 -0.18660675
vt -0.06445285 -0.18660675
vt -0.06445285 -0.18660675
vt -0.061492816 -0.19566956
vt -0.061492816 -0.19566956
vt -0.061492816 -0.19566956
vt -0.061492816 -0.19566956
vt -0.06001281 -0.20020099
vt -0.06001281 -0.20020099
vt -0.06001281 -0.20020099
vt -0.06001281 -0.20020099
vt -0.04853027 -0.21483222
vt -0.04853027 -0.21483222
vt -0.04853027 -0.21483222
vt -0.04853027 -0.21483222
vt -0.035942663 -0.2180902
vt -0.035942663 -0.2180902
vt -0.044158574 -0.114970565
vt -0.044158574 -0.114970565
vt -0.03233324 -0.11803127
vt -0.03233324 -0.11803127
vt -0.03233324 -0.11803127
vt -0.03233324 -0.11803127
vt -0.021546053 -0.13177648
vt -0.021546053 -0.13177648
vt -0.021546053 -0.13177648
vt -0.021546053 -0.13177648
vt -0.018430278 -0.13977136
vt -0.018430278 -0.13977136
vt -0.018430278 -0.13977136
vt -0.018430278 -0.13977136
vt -0.014946786 -0.14864686
vt -0.014946786 -0.14864686
vt -0.014946786 -0.14864686
vt -0.014946786 -0.14864686
vt -0.011269693 -0.15745306
vt -0.011269693 -0.15745306
vt -0.011269693 -0.15745306
vt -0.011269693 -0.15745306
vt -0.0076571433 -0.16628236
vt -0.0076571433 -0.16628236
vt -0.0076571433 -0.16628236
vt -0.0076571433 -0.16628236
vt -0.004195163 -0.17516558
vt -0.004195163 -0.17516558
vt -0.004195163 -0.17516558
vt -0.004195163 -0.17516558
vt -0.0024641678 -0.1796072
vt -0.0024641678 -0.1796072
vt -0.0024641678 -0.1796072
vt -0.0024641678 -0.1796072
vt -0.002056879 -0.1982017
vt -0.002056879 -0.1982017
vt -0.002056879 -0.1982017
vt -0.002056879 -0.1982017
vt -0.009719546 -0.20870624
vt -0.009719546 -0.20870624
vn -0 1 0
vn -0 1 0
vn -0 1 0
vn -0 1 0
vn -0 1 0
vn -0 1 0
vn -0 1 0
vn -0 1 0
vn -0 1 0
vn -0 1 0
vn -0 1 0
vn -0 1 0
vn -0 1 0
vn -0 1 0
vn -0 1 0
vn -0 1 0
vn -0 1 0
vn -0 1 0
vn -0 1 0
vn -0 1 0
vn -0 1 0
vn -0 1 0
vn -0.92065597 0 -0.39037505
vn -0.92065597 0 -0.39037505
vn -0.980877 0 0.19462866
vn -0.980877 0 0.19462866
vn -0.66147983 -0 0.74996287
vn -0.66147983 0 0.74996287
vn -0.66147983 0 0.74996287
vn -0.66147983 0 0.74996287
vn -0.4159637 -0 0.9093812
vn -0.4159637 0 0.9093812
vn -0.4159637 0 0.9093812
vn -0.4159637 0 0.9093812
vn -0.4181398 -0 0.90838265
vn -0.4181398 0 0.90838265
vn -0.4181398 0 0.90838265
vn -0.4181398 0 0.90838265
vn -0.4376082 -0 0.89916575
vn -0.4376082 0 0.89916575
vn -0.4376082 0 0.89916575
vn -0.4376082 0 0.89916575
vn -0.4311449 -0 0.9022827
vn -0.4311449 0 0.9022827
vn -0.4311449 0 0.9022827
vn -0.4311449 0 0.9022827
vn -0.41596308 -0 0.9093815
vn -0.41596308 0 0.9093815
vn -0.41596308 0 0.9093815
vn -0.41596308 0 0.9093815
vn -0.41596407 -0 0.90938103
vn -0.41596407 0 0.90938103
vn -0.41596407 0 0.90938103
vn -0.41596407 0 0.90938103
vn -0.079205915 -0 0.99685824
vn -0.079205915 0 0.99685824
vn -0.079205915 0 0.99685824
vn -0.079205915 0 0.99685824
vn 0.5420193 0 0.840366
vn 0.5420193 0 0.840366
vn 0.9206559 0 0.3903752
vn 0.9206559 0 0.3903752
vn -0.92065597 0 -0.39037505
vn -0.92065597 0 -0.39037505
vn -0.54201883 0 -0.84036636
vn -0.54201883 0 -0.84036636
vn 0.07920609 0 -0.99685824
vn 0.07920609 -0 -0.99685824
vn 0.07920609 -0 -0.99685824
vn 0.07920609 -0 -0.99685824
vn 0.3644822 0 -0.9312104
vn 0.3644822 -0 -0.9312104
vn 0.3644822 -0 -0.9312104
vn 0.3644822 -0 -0.9312104
vn 0.3622496 0 -0.9320811
vn 0.3622496 -0 -0.9320811
vn 0.3622496 -0 -0.9320811
vn 0.3622496 -0 -0.9320811
vn 0.34209064 0 -0.9396669
vn 0.34209064 -0 -0.9396669
vn 0.34209064 -0 -0.9396669
vn 0.34209064 -0 -0.9396669
vn 0.34882498 0 -0.93718785
vn 0.34882498 -0 -0.93718785
vn 0.34882498 -0 -0.93718785
vn 0.34882498 -0 -0.93718785
vn 0.36448202 0 -0.93121046
vn 0.36448202 -0 -0.93121046
vn 0.36448202 -0 -0.93121046
vn 0.36448202 -0 -0.93121046
vn 0.3644819 0 -0.9312105
vn 0.3644819 -0 -0.9312105
vn 0.3644819 -0 -0.9312105
vn 0.3644819 -0 -0.9312105
vn 0.6614799 0 -0.7499628
vn 0.6614799 -0 -0.7499628
vn 0.6614799 -0 -0.7499628
vn 0.6614799 -0 -0.7499628
vn 0.980877 0 -0.19462891
vn 0.980877 -0 -0.19462891
vn 0.9206559 0 0.3903752
vn 0.9206559 0 0.3903752
g _0
f 3/3/3 2/2/2 1/1/1
f 2/2/2 3/3/3 4/4/4
f 5/5/5 4/4/4 3/3/3
f 4/4/4 5/5/5 6/6/6
f 7/7/7 6/6/6 5/5/5
f 6/6/6 7/7/7 8/8/8
f 9/9/9 8/8/8 7/7/7
f 8/8/8 9/9/9 10/10/10
f 11/11/11 10/10/10 9/9/9
f 10/10/10 11/11/11 12/12/12
f 13/13/13 12/12/12 11/11/11
f 12/12/12 13/13/13 14/14/14
f 15/15/15 14/14/14 13/13/13
f 14/14/14 15/15/15 16/16/16
f 17/17/17 16/16/16 15/15/15
f 16/16/16 17/17/17 18/18/18
f 19/19/19 18/18/18 17/17/17
f 18/18/18 19/19/19 20/20/20
f 21/21/21 20/20/20 19/19/19
f 20/20/20 21/21/21 22/22/22
g _1
f 23/23/23 24/24/24 25/25/25
f 26/26/26 25/25/25 24/24/24
f 27/27/27 28/28/28 29/29/29
f 30/30/30 29/29/29 28/28/28
f 31/31/31 32/32/32 33/33/33
f 34/34/34 33/33/33 32/32/32
f 35/35/35 36/36/36 37/37/37
f 38/38/38 37/37/37 36/36/36
f 39/39/39 40/40/40 41/41/41
f 42/42/42 41/41/41 40/40/40
f 43/43/43 44/44/44 45/45/45
f 46/46/46 45/45/45 44/44/44
f 47/47/47 48/48/48 49/49/49
f 50/50/50 49/49/49 48/48/48
f 51/51/51 52/52/52 53/53/53
f 54/54/54 53/53/53 52/52/52
f 55/55/55 56/56/56 57/57/57
f 58/58/58 57/57/57 56/56/56
f 59/59/59 60/60/60 61/61/61
f 62/62/62 61/61/61 60/60/60
f 65/65/65 64/64/64 63/63/63
f 64/64/64 65/65/65 66/66/66
f 69/69/69 68/68/68 67/67/67
f 68/68/68 69/69/69 70/70/70
f 73/73/73 72/72/72 71/71/71
f 72/72/72 73/73/73 74/74/74
f 77/77/77 76/76/76 75/75/75
f 76/76/76 77/77/77 78/78/78
f 81/81/81 80/80/80 79/79/79
f 80/80/80 81/81/81 82/82/82
f 85/85/85 84/84/84 83/83/83
f 84/84/84 85/85/85 86/86/86
f 89/89/89 88/88/88 87/87/87
f 88/88/88 89/89/89 90/90/90
f 93/93/93 92/92/92 91/91/91
f 92/92/92 93/93/93 94/94/94
f 97/97/97 96/96/96 95/95/95
f 96/96/96 97/97/97 98/98/98
f 101/101/101 100/100/100 99/99/99
f 100/100/100 101/101/101 102/102/102
f 63/63/63 24/24/24 23/23/23
f 24/24/24 63/63/63 64/64/64
f 61/61/61 62/62/62 101/101/101
f 102/102/102 101/101/101 62/62/62
