g 
v -29.80189 108.41657 -174.88683
v -29.80189 94.41657 -174.88683
v -28.511972 108.41657 -172.3686
v -28.511972 94.41657 -172.3686
v -30.705584 108.41657 -171.8162
v -30.705584 94.41657 -171.8162
v -31.933046 108.41657 -173.51756
v -31.933046 94.41657 -173.51756
v -30.729464 108.41657 -174.51456
v -30.729464 94.41657 -174.51456
v -29.80189 108.41657 -174.88683
v -29.80189 94.41657 -174.88683
vt 1.1325738 -1.2603122
vt 1.1325738 -1.2603122
vt 1.1196747 -1.2351301
vt 1.1196747 -1.2351301
vt 1.1416107 -1.2296059
vt 1.1416107 -1.2296059
vt 1.1538854 -1.2466196
vt 1.1538854 -1.2466196
vt 1.1418495 -1.2565895
vt 1.1418495 -1.2565895
vt 1.1325738 -1.2603122
vt 1.1325738 -1.2603122
vn 0.8900294 0 -0.45590317
vn 0.8900294 -0 -0.45590317
vn 0.24420415 0 0.9697238
vn 0.24420415 0 0.9697238
vn -0.8109743 -0 0.5850818
vn -0.8109743 0 0.5850818
vn -0.63791907 0 -0.77010334
vn -0.63791907 0 -0.77010334
vn -0.37245908 0 -0.9280486
vn -0.37245908 0 -0.9280486
vn -0.37245908 0 -0.9280486
vn -0.37245908 0 -0.9280486
g _0
f 3/3/3 2/2/2 1/1/1
f 2/2/2 3/3/3 4/4/4
f 5/5/5 4/4/4 3/3/3
f 4/4/4 5/5/5 6/6/6
f 7/7/7 6/6/6 5/5/5
f 6/6/6 7/7/7 8/8/8
f 9/9/9 8/8/8 7/7/7
f 8/8/8 9/9/9 10/10/10
f 11/11/11 10/10/10 9/9/9
f 10/10/10 11/11/11 12/12/12
