g 
v 115.168274 59.590004 -76.85166
v 115.168274 45.590004 -76.85166
v 112.05336 59.590004 -81.49786
v 112.05336 45.590004 -81.49786
v 115.75049 59.590004 -84.02753
v 115.75049 45.590004 -84.02753
v 110.50677 59.590004 -88.22617
v 110.50677 45.590004 -88.22617
v 107.26616 59.590004 -87.20337
v 107.26616 45.590004 -87.20337
v 107.06195 59.590004 -83.25739
v 107.06195 45.590004 -83.25739
v 100.81877 59.590004 -83.81188
v 100.81877 45.590004 -83.81188
v 100.93107 59.590004 -87.62532
v 100.93107 45.590004 -87.62532
v 99.06608 59.590004 -89.99008
v 99.06608 45.590004 -89.99008
v 97.637825 59.590004 -92.36324
v 97.637825 45.590004 -92.36324
v 85.37896 59.590004 -88.490395
v 85.37896 45.590004 -88.490395
v 85.0512 59.590004 -86.15676
v 85.0512 45.590004 -86.15676
v 81.61728 59.590004 -85.57955
v 81.61728 45.590004 -85.57955
v 80.80993 59.590004 -87.17945
v 80.80993 45.590004 -87.17945
v 73.62645 59.590004 -84.15103
v 73.62645 45.590004 -84.15103
v 66.80523 59.590004 -84.407135
v 66.80523 45.590004 -84.407135
v 58.419357 59.590004 -83.14259
v 58.419357 45.590004 -83.14259
v 55.74872 59.590004 -88.94931
v 55.74872 45.590004 -88.94931
v 54.216736 59.590004 -99.12013
v 54.216736 45.590004 -99.12013
v 50.662724 59.590004 -113.32135
v 50.662724 45.590004 -113.32135
v 49.796265 59.590004 -117.337585
v 49.796265 45.590004 -117.337585
v 32.09096 59.590004 -107.81829
v 32.09096 45.590004 -107.81829
v 35.596172 59.590004 -101.099365
v 35.596172 45.590004 -101.099365
v 37.727386 59.590004 -97.825554
v 37.727386 45.590004 -97.825554
v 35.511116 59.590004 -95.551926
v 35.511116 45.590004 -95.551926
v 36.26145 59.590004 -92.76131
v 36.26145 45.590004 -92.76131
v 39.53149 59.590004 -92.25287
v 39.53149 45.590004 -92.25287
v 39.722313 59.590004 -89.453896
v 39.722313 45.590004 -89.453896
v 39.094257 59.590004 -87.09151
v 39.094257 45.590004 -87.09151
v 42.71753 59.590004 -85.26301
v 42.71753 45.590004 -85.26301
v 45.44677 59.590004 -78.91337
v 45.44677 45.590004 -78.91337
v 44.846146 59.590004 -75.02481
v 44.846146 45.590004 -75.02481
v 38.767544 59.590004 -71.82858
v 38.767544 45.590004 -71.82858
v 37.135227 59.590004 -73.53478
v 37.135227 45.590004 -73.53478
v 36.714714 59.590004 -75.25405
v 36.714714 45.590004 -75.25405
v 29.71597 59.590004 -77.50232
v 29.71597 45.590004 -77.50232
v 24.867529 59.590004 -73.01901
v 24.867529 45.590004 -73.01901
v 22.821201 59.590004 -76.0421
v 22.821201 45.590004 -76.0421
v 16.696022 59.590004 -76.00184
v 16.696022 45.590004 -76.00184
v 13.725895 59.590004 -74.188126
v 13.725895 45.590004 -74.188126
v 11.08452 59.590004 -69.715195
v 11.08452 45.590004 -69.715195
v 7.5898385 59.590004 -70.08851
v 7.5898385 45.590004 -70.08851
v 6.6190658 59.590004 -64.86748
v 6.6190658 45.590004 -64.86748
v 1.347302 59.590004 -62.40594
v 1.347302 45.590004 -62.40594
v -5.287845 59.590004 -59.474453
v -5.287845 45.590004 -59.474453
v -0.811954 59.590004 -53.763363
v -0.811954 45.590004 -53.763363
v -0.5090251 59.590004 -50.526184
v -0.5090251 45.590004 -50.526184
v -8.020184 59.590004 -50.79164
v -8.020184 45.590004 -50.79164
v -16.37254 59.590004 -54.21652
v -16.37254 45.590004 -54.21652
v -21.499912 59.590004 -58.754673
v -21.499912 45.590004 -58.754673
v -29.053562 59.590004 -64.56465
v -29.053562 45.590004 -64.56465
v -35.862083 59.590004 -68.47606
v -35.862083 45.590004 -68.47606
v -45.622345 59.590004 -43.191566
v -45.622345 45.590004 -43.191566
v -40.566208 59.590004 -43.32865
v -40.566208 45.590004 -43.32865
v -36.55452 59.590004 -41.577972
v -36.55452 45.590004 -41.577972
v -33.92155 59.590004 -42.244587
v -33.92155 45.590004 -42.244587
v -27.080666 59.590004 -40.730446
v -27.080666 45.590004 -40.730446
v -26.00021 59.590004 -36.30001
v -26.00021 45.590004 -36.30001
v -19.864582 59.590004 -34.850204
v -19.864582 45.590004 -34.850204
v -16.952942 59.590004 -37.527233
v -16.952942 45.590004 -37.527233
v -13.729111 59.590004 -35.616436
v -13.729111 45.590004 -35.616436
v -8.943211 59.590004 -35.05503
v -8.943211 45.590004 -35.05503
v -9.03857 59.590004 -30.84235
v -9.03857 45.590004 -30.84235
v -14.689861 59.590004 -27.298645
v -14.689861 45.590004 -27.298645
v -10.24123 59.590004 -24.310036
v -10.24123 45.590004 -24.310036
v -12.73444 59.590004 -19.367195
v -12.73444 45.590004 -19.367195
v -11.873741 59.590004 -14.257007
v -11.873741 45.590004 -14.257007
v -17.531677 59.590004 -11.046205
v -17.531677 45.590004 -11.046205
v -15.707367 59.590004 -6.050849
v -15.707367 45.590004 -6.050849
v -12.428455 59.590004 -8.087644
v -12.428455 45.590004 -8.087644
v -5.829395 59.590004 -5.718087
v -5.829395 45.590004 -5.718087
v -4.0110393 59.590004 -1.063283
v -4.0110393 45.590004 -1.063283
v -11.428379 59.590004 3.2749166
v -11.428379 45.590004 3.2749166
v -14.44191 59.590004 1.9242516
v -14.44191 45.590004 1.9242516
v -22.891003 59.590004 6.8630695
v -22.891003 45.590004 6.8630695
v -14.961971 59.590004 24.205574
v -14.961971 45.590004 24.205574
v -9.86956 59.590004 19.30606
v -9.86956 45.590004 19.30606
v -6.57735 59.590004 19.15594
v -6.57735 45.590004 19.15594
v -5.06027 59.590004 16.979147
v -5.06027 45.590004 16.979147
v 0.947907 59.590004 13.828829
v 0.947907 45.590004 13.828829
v 4.481545 59.590004 17.584333
v 4.481545 45.590004 17.584333
v 2.3440766 59.590004 23.356163
v 2.3440766 45.590004 23.356163
v -1.3731055 59.590004 25.79057
v -1.3731055 45.590004 25.79057
v -5.3802867 59.590004 25.71814
v -5.3802867 45.590004 25.71814
v -7.2639117 59.590004 28.494911
v -7.2639117 45.590004 28.494911
v -4.528873 59.590004 30.849792
v -4.528873 45.590004 30.849792
v -4.4402347 59.590004 34.152725
v -4.4402347 45.590004 34.152725
v -5.3992305 59.590004 38.115494
v -5.3992305 45.590004 38.115494
v -2.501615 59.590004 42.18437
v -2.501615 45.590004 42.18437
v -6.0906157 59.590004 47.22299
v -6.0906157 45.590004 47.22299
v -4.5558105 59.590004 51.052277
v -4.5558105 45.590004 51.052277
v -0.8535533 59.590004 55.292053
v -0.8535533 45.590004 55.292053
v 3.7084813 59.590004 57.97823
v 3.7084813 45.590004 57.97823
v 5.455601 59.590004 62.77819
v 5.455601 45.590004 62.77819
v 2.481606 59.590004 69.72188
v 2.481606 45.590004 69.72188
v 6.783361 59.590004 71.18461
v 6.783361 45.590004 71.18461
v 8.128113 59.590004 77.92754
v 8.128113 45.590004 77.92754
v 9.819466 59.590004 81.919334
v 9.819466 45.590004 81.919334
v 9.320049 59.590004 86.627266
v 9.320049 45.590004 86.627266
v 12.655544 59.590004 87.85475
v 12.655544 45.590004 87.85475
v 16.652056 59.590004 90.21605
v 16.652056 45.590004 90.21605
v 16.412233 59.590004 99.14986
v 16.412233 45.590004 99.14986
v 12.725338 59.590004 101.79523
v 12.725338 45.590004 101.79523
v 5.3282466 59.590004 105.583954
v 5.3282466 45.590004 105.583954
v 5.393335 59.590004 112.98217
v 5.393335 45.590004 112.98217
v 16.509445 59.590004 118.60992
v 16.509445 45.590004 118.60992
v 20.604332 59.590004 117.68231
v 20.604332 45.590004 117.68231
v 26.390305 59.590004 119.90837
v 26.390305 45.590004 119.90837
v 29.913382 59.590004 117.406746
v 29.913382 45.590004 117.406746
v 29.610146 59.590004 115.006805
v 29.610146 45.590004 115.006805
v 31.614511 59.590004 112.03694
v 31.614511 45.590004 112.03694
v 36.094994 59.590004 109.914276
v 36.094994 45.590004 109.914276
v 33.734734 59.590004 107.17976
v 33.734734 45.590004 107.17976
v 28.900171 59.590004 105.489914
v 28.900171 45.590004 105.489914
v 30.341578 59.590004 103.46272
v 30.341578 45.590004 103.46272
v 38.694206 59.590004 102.494804
v 38.694206 45.590004 102.494804
v 41.26501 59.590004 103.788345
v 41.26501 45.590004 103.788345
v 47.037964 59.590004 102.04251
v 47.037964 45.590004 102.04251
v 52.095016 59.590004 97.66214
v 52.095016 45.590004 97.66214
v 51.887238 59.590004 94.609375
v 51.887238 45.590004 94.609375
v 51.66461 59.590004 91.43435
v 51.66461 45.590004 91.43435
v 57.038193 59.590004 89.36234
v 57.038193 45.590004 89.36234
v 62.609352 59.590004 87.62304
v 62.609352 45.590004 87.62304
v 65.79523 59.590004 80.54605
v 65.79523 45.590004 80.54605
v 69.17026 59.590004 74.93925
v 69.17026 45.590004 74.93925
v 69.21803 59.590004 69.43169
v 69.21803 45.590004 69.43169
v 68.18719 59.590004 66.30394
v 68.18719 45.590004 66.30394
v 69.8485 59.590004 62.779392
v 69.8485 45.590004 62.779392
v 72.95207 65.253426 60.474632
v 72.95207 51.253426 60.474632
v 73.10495 65.253426 64.63369
v 73.10495 51.253426 64.63369
v 78.02061 65.253426 69.003685
v 78.02061 51.253426 69.003685
v 80.75487 65.24251 71.51269
v 80.75487 51.242508 71.51269
v 85.99006 64.35952 70.46178
v 85.99006 50.35952 70.46178
v 92.07235 63.057793 68.72133
v 92.07235 49.057793 68.72133
v 95.56943 60.781708 64.22573
v 95.56943 46.781708 64.22573
v 96.99411 59.831276 62.362167
v 96.99411 45.831276 62.362167
v 98.76619 59.590004 64.256805
v 98.76619 45.590004 64.256805
v 94.94428 59.590004 71.52148
v 94.94428 45.590004 71.52148
v 90.03444 59.590004 73.71254
v 90.03444 45.590004 73.71254
v 83.22523 59.590004 73.33969
v 83.22523 45.590004 73.33969
v 78.605934 59.590004 78.2885
v 78.605934 45.590004 78.2885
v 81.97408 59.590004 80.3376
v 81.97408 45.590004 80.3376
v 82.23013 59.590004 83.88526
v 82.23013 45.590004 83.88526
v 81.11672 59.590004 86.039566
v 81.11672 45.590004 86.039566
v 82.784836 59.590004 89.29306
v 82.784836 45.590004 89.29306
v 86.27321 59.590004 92.106735
v 86.27321 45.590004 92.106735
v 85.2171 59.590004 97.414444
v 85.2171 45.590004 97.414444
v 86.30595 59.590004 99.47405
v 86.30595 45.590004 99.47405
v 90.065636 59.590004 98.76572
v 90.065636 45.590004 98.76572
v 92.05173 59.590004 101.21661
v 92.05173 45.590004 101.21661
v 91.99868 59.590004 104.709694
v 91.99868 45.590004 104.709694
v 95.03263 59.590004 105.25744
v 95.03263 45.590004 105.25744
v 98.21152 59.590004 105.04284
v 98.21152 45.590004 105.04284
v 103.79076 59.590004 106.26801
v 103.79076 45.590004 106.26801
v 105.341225 59.590004 107.19062
v 105.341225 45.590004 107.19062
v 110.652756 59.590004 103.984344
v 110.652756 45.590004 103.984344
v 109.82275 59.590004 98.644325
v 109.82275 45.590004 98.644325
v 114.66201 59.590004 96.83458
v 114.66201 45.590004 96.83458
v 117.3119 59.590004 93.507385
v 117.3119 45.590004 93.507385
v 116.41906 59.590004 90.91683
v 116.41906 45.590004 90.91683
v 111.83745 59.590004 87.48008
v 111.83745 45.590004 87.48008
v 108.57227 59.590004 87.400055
v 108.57227 45.590004 87.400055
v 103.87663 59.590004 83.73435
v 103.87663 45.590004 83.73435
v 104.082 59.590004 78.124374
v 104.082 45.590004 78.124374
v 107.370895 59.590004 76.27544
v 107.370895 45.590004 76.27544
v 107.53696 59.590004 73.93649
v 107.53696 45.590004 73.93649
v 104.95141 59.590004 71.66486
v 104.95141 45.590004 71.66486
v 104.50817 59.590004 67.23867
v 104.50817 45.590004 67.23867
v 105.25933 59.590004 64.47128
v 105.25933 45.590004 64.47128
v 102.55407 59.590004 56.66703
v 102.55407 45.590004 56.66703
v 103.14078 59.590004 55.148956
v 103.14078 45.590004 55.148956
v 102.39884 59.590004 48.71299
v 102.39884 45.590004 48.71299
v 102.2799 59.590004 46.882492
v 102.2799 45.590004 46.882492
v 107.486275 59.590004 44.130356
v 107.486275 45.590004 44.130356
v 110.90691 59.590004 49.729027
v 110.90691 45.590004 49.729027
v 108.50229 59.590004 52.220432
v 108.50229 45.590004 52.220432
v 108.74374 59.590004 54.092182
v 108.74374 45.590004 54.092182
v 113.270615 59.590004 56.42303
v 113.270615 45.590004 56.42303
v 115.50936 59.590004 57.586483
v 115.50936 45.590004 57.586483
v 118.74473 59.590004 56.76956
v 118.74473 45.590004 56.76956
v 120.257835 59.590004 54.243977
v 120.257835 45.590004 54.243977
v 127.68287 59.590004 57.651215
v 127.68287 45.590004 57.651215
v 129.79391 59.590004 62.493565
v 129.79391 45.590004 62.493565
v 129.61432 59.590004 66.67343
v 129.61432 45.590004 66.67343
v 131.1016 59.590004 68.309875
v 131.1016 45.590004 68.309875
v 134.12016 59.590004 69.78213
v 134.12016 45.590004 69.78213
v 136.29277 59.590004 71.60346
v 136.29277 45.590004 71.60346
v 144.7095 59.590004 72.114075
v 144.7095 45.590004 72.114075
v 143.40288 59.590004 69.862114
v 143.40288 45.590004 69.862114
v 144.78526 59.590004 68.48218
v 144.78526 45.590004 68.48218
v 151.88414 59.590004 66.89626
v 151.88414 45.590004 66.89626
v 155.84328 59.590004 64.20638
v 155.84328 45.590004 64.20638
v 158.47198 59.590004 67.167366
v 158.47198 45.590004 67.167366
v 161.0953 59.590004 67.760216
v 161.0953 45.590004 67.760216
v 162.99966 59.590004 65.14926
v 162.99966 45.590004 65.14926
v 166.62405 59.590004 62.678703
v 166.62405 45.590004 62.678703
v 164.78633 59.590004 58.08906
v 164.78633 45.590004 58.08906
v 160.34793 59.590004 51.435036
v 160.34793 45.590004 51.435036
v 152.27942 59.590004 49.801968
v 152.27942 45.590004 49.801968
v 151.8617 59.590004 48.229008
v 151.8617 45.590004 48.229008
v 141.09056 59.590004 49.06492
v 141.09056 45.590004 49.06492
v 135.68689 59.590004 42.27584
v 135.68689 45.590004 42.27584
v 130.30325 59.590004 42.481083
v 130.30325 45.590004 42.481083
v 128.20164 59.590004 40.86813
v 128.20164 45.590004 40.86813
v 128.38979 59.590004 38.226707
v 128.38979 45.590004 38.226707
v 124.683174 59.590004 39.243412
v 124.683174 45.590004 39.243412
v 115.63422 59.590004 37.50865
v 115.63422 45.590004 37.50865
v 108.17405 59.590004 29.381016
v 108.17405 45.590004 29.381016
v 107.283104 59.590004 25.041351
v 107.283104 45.590004 25.041351
v 105.31389 59.590004 22.769367
v 105.31389 45.590004 22.769367
v 101.93007 59.590004 22.335537
v 101.93007 45.590004 22.335537
v 96.56988 59.590004 17.398308
v 96.56988 45.590004 17.398308
v 91.815575 59.590004 16.793566
v 91.815575 45.590004 16.793566
v 91.46534 59.590004 12.24489
v 91.46534 45.590004 12.24489
v 92.47082 59.590004 9.915807
v 92.47082 45.590004 9.915807
v 96.65152 59.590004 10.509475
v 96.65152 45.590004 10.509475
v 100.45212 59.590004 8.419861
v 100.45212 45.590004 8.419861
v 102.240456 59.590004 6.9547544
v 102.240456 45.590004 6.9547544
v 105.154625 59.590004 6.81104
v 105.154625 45.590004 6.81104
v 110.03136 59.590004 8.431779
v 110.03136 45.590004 8.431779
v 115.15881 59.590004 11.916326
v 115.15881 45.590004 11.916326
v 119.815315 59.590004 8.507158
v 119.815315 45.590004 8.507158
v 124.3142 59.590004 5.327525
v 124.3142 45.590004 5.327525
v 136.73811 59.590004 1.0066872
v 136.73811 45.590004 1.0066872
v 132.99858 59.590004 -2.2144642
v 132.99858 45.590004 -2.2144642
v 137.8346 59.590004 -5.109351
v 137.8346 45.590004 -5.109351
v 140.2024 59.590004 -6.731435
v 140.2024 45.590004 -6.731435
v 140.72377 59.590004 -9.156812
v 140.72377 45.590004 -9.156812
v 142.77753 59.590004 -10.035806
v 142.77753 45.590004 -10.035806
v 145.84685 59.590004 -8.429053
v 145.84685 45.590004 -8.429053
v 146.11287 59.590004 -1.8433161
v 146.11287 45.590004 -1.8433161
v 151.7034 59.590004 -1.3799887
v 151.7034 45.590004 -1.3799887
v 157.88037 59.590004 0.42269802
v 157.88037 45.590004 0.42269802
v 160.79999 59.590004 -2.3416224
v 160.79999 45.590004 -2.3416224
v 163.11896 59.590004 -4.0017414
v 163.11896 45.590004 -4.0017414
v 165.10432 59.590004 -3.3566647
v 165.10432 45.590004 -3.3566647
v 168.61012 59.590004 -0.4733162
v 168.61012 45.590004 -0.4733162
v 168.17404 59.590004 4.6595325
v 168.17404 45.590004 4.6595325
v 169.99918 59.590004 6.3248205
v 169.99918 45.590004 6.3248205
v 176.79057 59.590004 7.333214
v 176.79057 45.590004 7.333214
v 178.90936 59.590004 6.1944685
v 178.90936 45.590004 6.1944685
v 180.13231 59.590004 5.3399286
v 180.13231 45.590004 5.3399286
v 182.2876 59.590004 7.520872
v 182.2876 45.590004 7.520872
v 189.7316 59.590004 7.199288
v 189.7316 45.590004 7.199288
v 186.98476 59.590004 2.552188
v 186.98476 45.590004 2.552188
v 182.5432 59.590004 -7.060008
v 182.5432 45.590004 -7.060008
v 184.65538 59.590004 -11.399915
v 184.65538 45.590004 -11.399915
v 184.83133 59.590004 -18.623886
v 184.83133 45.590004 -18.623886
v 179.70801 59.590004 -20.280289
v 179.70801 45.590004 -20.280289
v 175.28825 59.590004 -18.573517
v 175.28825 45.590004 -18.573517
v 173.65468 59.590004 -22.650661
v 173.65468 45.590004 -22.650661
v 171.53636 59.590004 -24.632671
v 171.53636 45.590004 -24.632671
v 166.08366 59.590004 -26.561352
v 166.08366 45.590004 -26.561352
v 157.62915 59.590004 -23.752682
v 157.62915 45.590004 -23.752682
v 149.57428 59.590004 -21.433117
v 149.57428 45.590004 -21.433117
v 141.88594 59.590004 -20.43488
v 141.88594 45.590004 -20.43488
v 135.05667 59.590004 -17.822708
v 135.05667 45.590004 -17.822708
v 132.2713 59.590004 -18.717041
v 132.2713 45.590004 -18.717041
v 131.34819 59.590004 -20.878967
v 131.34819 45.590004 -20.878967
v 127.03753 59.590004 -21.375526
v 127.03753 45.590004 -21.375526
v 126.956276 59.590004 -22.754162
v 126.956276 45.590004 -22.754162
v 130.74167 59.590004 -23.0456
v 130.74167 45.590004 -23.0456
v 134.24295 59.590004 -25.989212
v 134.24295 45.590004 -25.989212
v 135.53226 59.590004 -28.76028
v 135.53226 45.590004 -28.76028
v 135.66498 59.590004 -31.679726
v 135.66498 45.590004 -31.679726
v 137.4393 59.590004 -32.608253
v 137.4393 45.590004 -32.608253
v 149.51988 59.590004 -32.13576
v 149.51988 45.590004 -32.13576
v 151.23688 59.590004 -33.424355
v 151.23688 45.590004 -33.424355
v 152.80612 59.590004 -37.99701
v 152.80612 45.590004 -37.99701
v 152.59375 59.590004 -40.608013
v 152.59375 45.590004 -40.608013
v 149.08736 59.590004 -43.284645
v 149.08736 45.590004 -43.284645
v 149.07738 59.590004 -45.77059
v 149.07738 45.590004 -45.77059
v 151.44307 59.590004 -45.77651
v 151.44307 45.590004 -45.77651
v 151.55833 59.590004 -50.422832
v 151.55833 45.590004 -50.422832
v 148.53333 59.590004 -50.01439
v 148.53333 45.590004 -50.01439
v 147.69194 59.590004 -55.15756
v 147.69194 45.590004 -55.15756
v 151.29251 59.590004 -57.237278
v 151.29251 45.590004 -57.237278
v 150.26967 59.590004 -60.644314
v 150.26967 45.590004 -60.644314
v 146.68375 59.590004 -61.21697
v 146.68375 45.590004 -61.21697
v 141.1172 59.590004 -58.760906
v 141.1172 45.590004 -58.760906
v 136.0893 59.590004 -59.385303
v 136.0893 45.590004 -59.385303
v 135.82826 59.590004 -61.356327
v 135.82826 45.590004 -61.356327
v 131.79268 59.590004 -61.882656
v 131.79268 45.590004 -61.882656
v 128.85992 59.590004 -59.766033
v 128.85992 45.590004 -59.766033
v 127.544975 59.590004 -61.409122
v 127.544975 45.590004 -61.409122
v 125.93917 59.590004 -62.91698
v 125.93917 45.590004 -62.91698
v 122.260475 59.590004 -62.28422
v 122.260475 45.590004 -62.28422
v 121.35058 59.590004 -66.48851
v 121.35058 45.590004 -66.48851
v 123.674545 59.590004 -70.09336
v 123.674545 45.590004 -70.09336
v 119.7393 59.590004 -70.4578
v 119.7393 45.590004 -70.4578
v 118.35579 59.590004 -75.163666
v 118.35579 45.590004 -75.163666
v 115.168274 59.590004 -76.85166
v 115.168274 45.590004 -76.85166
vt -1.1726826 -0.88151664
vt -1.1726826 -0.88151664
vt -1.1415336 -0.92797863
vt -1.1415336 -0.92797863
vt -1.1785048 -0.95327526
vt -1.1785048 -0.95327526
vt -1.1260676 -0.9952617
vt -1.1260676 -0.9952617
vt -1.0936615 -0.9850337
vt -1.0936615 -0.9850337
vt -1.0916195 -0.9455739
vt -1.0916195 -0.9455739
vt -1.0291877 -0.9511188
vt -1.0291877 -0.9511188
vt -1.0303106 -0.9892532
vt -1.0303106 -0.9892532
vt -1.0116607 -1.0129008
vt -1.0116607 -1.0129008
vt -0.99737823 -1.0366324
vt -0.99737823 -1.0366324
vt -0.87478954 -0.99790394
vt -0.87478954 -0.99790394
vt -0.871512 -0.9745676
vt -0.871512 -0.9745676
vt -0.83717275 -0.96879554
vt -0.83717275 -0.96879554
vt -0.82909924 -0.9847945
vt -0.82909924 -0.9847945
vt -0.75726444 -0.95451033
vt -0.75726444 -0.95451033
vt -0.6890523 -0.95707136
vt -0.6890523 -0.95707136
vt -0.60519356 -0.94442594
vt -0.60519356 -0.94442594
vt -0.57848716 -1.0024931
vt -0.57848716 -1.0024931
vt -0.56316733 -1.1042013
vt -0.56316733 -1.1042013
vt -0.5276272 -1.2462136
vt -0.5276272 -1.2462136
vt -0.5189626 -1.2863759
vt -0.5189626 -1.2863759
vt -0.3419096 -1.1911829
vt -0.3419096 -1.1911829
vt -0.3769617 -1.1239936
vt -0.3769617 -1.1239936
vt -0.39827386 -1.0912555
vt -0.39827386 -1.0912555
vt -0.37611115 -1.0685192
vt -0.37611115 -1.0685192
vt -0.38361448 -1.040613
vt -0.38361448 -1.040613
vt -0.41631487 -1.0355287
vt -0.41631487 -1.0355287
vt -0.4182231 -1.0075389
vt -0.4182231 -1.0075389
vt -0.41194254 -0.9839151
vt -0.41194254 -0.9839151
vt -0.44817528 -0.9656301
vt -0.44817528 -0.9656301
vt -0.47546768 -0.9021337
vt -0.47546768 -0.9021337
vt -0.46946144 -0.8632481
vt -0.46946144 -0.8632481
vt -0.4086754 -0.83128583
vt -0.4086754 -0.83128583
vt -0.39235225 -0.84834784
vt -0.39235225 -0.84834784
vt -0.38814712 -0.8655405
vt -0.38814712 -0.8655405
vt -0.3181597 -0.8880232
vt -0.3181597 -0.8880232
vt -0.26967528 -0.84319013
vt -0.26967528 -0.84319013
vt -0.24921201 -0.873421
vt -0.24921201 -0.873421
vt -0.18796022 -0.8730184
vt -0.18796022 -0.8730184
vt -0.15825894 -0.8548813
vt -0.15825894 -0.8548813
vt -0.1318452 -0.81015193
vt -0.1318452 -0.81015193
vt -0.096898384 -0.8138851
vt -0.096898384 -0.8138851
vt -0.08719066 -0.76167476
vt -0.08719066 -0.76167476
vt -0.034473017 -0.7370594
vt -0.034473017 -0.7370594
vt 0.031878453 -0.7077445
vt 0.031878453 -0.7077445
vt -0.0128804585 -0.65063363
vt -0.0128804585 -0.65063363
vt -0.015909748 -0.6182618
vt -0.015909748 -0.6182618
vt 0.059201837 -0.62091637
vt 0.059201837 -0.62091637
vt 0.1427254 -0.65516514
vt 0.1427254 -0.65516514
vt 0.19399911 -0.7005467
vt 0.19399911 -0.7005467
vt 0.2695356 -0.75864655
vt 0.2695356 -0.75864655
vt 0.33762085 -0.7977606
vt 0.33762085 -0.7977606
vt 0.43522346 -0.5449156
vt 0.43522346 -0.5449156
vt 0.3846621 -0.5462865
vt 0.3846621 -0.5462865
vt 0.34454522 -0.5287797
vt 0.34454522 -0.5287797
vt 0.3182155 -0.53544587
vt 0.3182155 -0.53544587
vt 0.24980664 -0.52030444
vt 0.24980664 -0.52030444
vt 0.2390021 -0.4760001
vt 0.2390021 -0.4760001
vt 0.17764582 -0.46150202
vt 0.17764582 -0.46150202
vt 0.14852941 -0.4882723
vt 0.14852941 -0.4882723
vt 0.1162911 -0.46916434
vt 0.1162911 -0.46916434
vt 0.06843211 -0.4635503
vt 0.06843211 -0.4635503
vt 0.0693857 -0.4214235
vt 0.0693857 -0.4214235
vt 0.1258986 -0.38598645
vt 0.1258986 -0.38598645
vt 0.08141229 -0.35610035
vt 0.08141229 -0.35610035
vt 0.106344394 -0.30667195
vt 0.106344394 -0.30667195
vt 0.09773741 -0.25557005
vt 0.09773741 -0.25557005
vt 0.15431677 -0.22346205
vt 0.15431677 -0.22346205
vt 0.13607366 -0.17350848
vt 0.13607366 -0.17350848
vt 0.103284545 -0.19387643
vt 0.103284545 -0.19387643
vt 0.03729395 -0.17018087
vt 0.03729395 -0.17018087
vt 0.019110393 -0.123632826
vt 0.019110393 -0.123632826
vt 0.09328379 -0.08025084
vt 0.09328379 -0.08025084
vt 0.12341909 -0.09375749
vt 0.12341909 -0.09375749
vt 0.20791002 -0.044369306
vt 0.20791002 -0.044369306
vt 0.1286197 0.12905574
vt 0.1286197 0.12905574
vt 0.0776956 0.0800606
vt 0.0776956 0.0800606
vt 0.0447735 0.078559384
vt 0.0447735 0.078559384
vt 0.029602699 0.056791466
vt 0.029602699 0.056791466
vt -0.030479068 0.025288286
vt -0.030479068 0.025288286
vt -0.06581545 0.06284333
vt -0.06581545 0.06284333
vt -0.044440765 0.12056162
vt -0.044440765 0.12056162
vt -0.007268944 0.14490569
vt -0.007268944 0.14490569
vt 0.03280287 0.14418139
vt 0.03280287 0.14418139
vt 0.051639117 0.17194912
vt 0.051639117 0.17194912
vt 0.02428873 0.19549793
vt 0.02428873 0.19549793
vt 0.023402346 0.22852725
vt 0.023402346 0.22852725
vt 0.032992303 0.26815495
vt 0.032992303 0.26815495
vt 0.004016151 0.30884367
vt 0.004016151 0.30884367
vt 0.03990616 0.3592299
vt 0.03990616 0.3592299
vt 0.024558105 0.39752278
vt 0.024558105 0.39752278
vt -0.012464466 0.43992054
vt -0.012464466 0.43992054
vt -0.058084812 0.4667823
vt -0.058084812 0.4667823
vt -0.07555601 0.5147819
vt -0.07555601 0.5147819
vt -0.045816056 0.5842188
vt -0.045816056 0.5842188
vt -0.08883361 0.5988461
vt -0.08883361 0.5988461
vt -0.10228113 0.6662754
vt -0.10228113 0.6662754
vt -0.11919466 0.70619327
vt -0.11919466 0.70619327
vt -0.114200495 0.7532726
vt -0.114200495 0.7532726
vt -0.14755544 0.76554745
vt -0.14755544 0.76554745
vt -0.18752056 0.78916043
vt -0.18752056 0.78916043
vt -0.18512233 0.8784985
vt -0.18512233 0.8784985
vt -0.14825338 0.9049522
vt -0.14825338 0.9049522
vt -0.07428246 0.9428395
vt -0.07428246 0.9428395
vt -0.07493334 1.0168216
vt -0.07493334 1.0168216
vt -0.18609445 1.0730991
vt -0.18609445 1.0730991
vt -0.22704332 1.0638231
vt -0.22704332 1.0638231
vt -0.28490305 1.0860837
vt -0.28490305 1.0860837
vt -0.3201338 1.0610675
vt -0.3201338 1.0610675
vt -0.31710145 1.037068
vt -0.31710145 1.037068
vt -0.33714512 1.0073694
vt -0.33714512 1.0073694
vt -0.3819499 0.9861427
vt -0.3819499 0.9861427
vt -0.35834733 0.9587976
vt -0.35834733 0.9587976
vt -0.3100017 0.94189906
vt -0.3100017 0.94189906
vt -0.32441577 0.92162716
vt -0.32441577 0.92162716
vt -0.40794203 0.91194797
vt -0.40794203 0.91194797
vt -0.43365008 0.9248834
vt -0.43365008 0.9248834
vt -0.49137962 0.90742505
vt -0.49137962 0.90742505
vt -0.54195017 0.86362135
vt -0.54195017 0.86362135
vt -0.53987235 0.8330937
vt -0.53987235 0.8330937
vt -0.5376461 0.80134344
vt -0.5376461 0.80134344
vt -0.5913819 0.7806234
vt -0.5913819 0.7806234
vt -0.6470935 0.7632303
vt -0.6470935 0.7632303
vt -0.6789522 0.6924605
vt -0.6789522 0.6924605
vt -0.7127026 0.6363925
vt -0.7127026 0.6363925
vt -0.7131803 0.5813169
vt -0.7131803 0.5813169
vt -0.70287186 0.5500394
vt -0.70287186 0.5500394
vt -0.719485 0.51479393
vt -0.719485 0.51479393
vt -0.7505207 0.4917463
vt -0.7505207 0.4917463
vt -0.75204945 0.5333369
vt -0.75204945 0.5333369
vt -0.80120605 0.57703686
vt -0.80120605 0.57703686
vt -0.82854867 0.6021269
vt -0.82854867 0.6021269
vt -0.88090056 0.59161776
vt -0.88090056 0.59161776
vt -0.94172347 0.57421327
vt -0.94172347 0.57421327
vt -0.9766942 0.5292573
vt -0.9766942 0.5292573
vt -0.99094105 0.51062167
vt -0.99094105 0.51062167
vt -1.0086619 0.5295681
vt -1.0086619 0.5295681
vt -0.9704428 0.60221475
vt -0.9704428 0.60221475
vt -0.92134434 0.62412536
vt -0.92134434 0.62412536
vt -0.85325223 0.6203969
vt -0.85325223 0.6203969
vt -0.8070593 0.6698849
vt -0.8070593 0.6698849
vt -0.8407408 0.690376
vt -0.8407408 0.690376
vt -0.8433013 0.72585255
vt -0.8433013 0.72585255
vt -0.8321672 0.74739563
vt -0.8321672 0.74739563
vt -0.84884834 0.77993053
vt -0.84884834 0.77993053
vt -0.8837321 0.8080673
vt -0.8837321 0.8080673
vt -0.873171 0.86114436
vt -0.873171 0.86114436
vt -0.8840594 0.88174045
vt -0.8840594 0.88174045
vt -0.9216563 0.8746571
vt -0.9216563 0.8746571
vt -0.94151723 0.8991661
vt -0.94151723 0.8991661
vt -0.94098675 0.9340969
vt -0.94098675 0.9340969
vt -0.9713263 0.93957436
vt -0.9713263 0.93957436
vt -1.0031152 0.93742836
vt -1.0031152 0.93742836
vt -1.0589075 0.9496801
vt -1.0589075 0.9496801
vt -1.0744122 0.9589062
vt -1.0744122 0.9589062
vt -1.1275275 0.9268434
vt -1.1275275 0.9268434
vt -1.1192274 0.8734432
vt -1.1192274 0.8734432
vt -1.1676201 0.8553457
vt -1.1676201 0.8553457
vt -1.194119 0.8220738
vt -1.194119 0.8220738
vt -1.1851906 0.79616827
vt -1.1851906 0.79616827
vt -1.1393745 0.76180077
vt -1.1393745 0.76180077
vt -1.1067227 0.7610005
vt -1.1067227 0.7610005
vt -1.0597663 0.7243435
vt -1.0597663 0.7243435
vt -1.0618199 0.6682437
vt -1.0618199 0.6682437
vt -1.0947089 0.64975435
vt -1.0947089 0.64975435
vt -1.0963695 0.62636495
vt -1.0963695 0.62636495
vt -1.0705141 0.6036486
vt -1.0705141 0.6036486
vt -1.0660816 0.5593867
vt -1.0660816 0.5593867
vt -1.0735933 0.53171283
vt -1.0735933 0.53171283
vt -1.0465406 0.4536703
vt -1.0465406 0.4536703
vt -1.0524077 0.43848956
vt -1.0524077 0.43848956
vt -1.0449884 0.3741299
vt -1.0449884 0.3741299
vt -1.0437989 0.35582492
vt -1.0437989 0.35582492
vt -1.0958627 0.32830355
vt -1.0958627 0.32830355
vt -1.1300691 0.38429028
vt -1.1300691 0.38429028
vt -1.1060228 0.40920433
vt -1.1060228 0.40920433
vt -1.1084373 0.42792183
vt -1.1084373 0.42792183
vt -1.1537061 0.45123032
vt -1.1537061 0.45123032
vt -1.1760936 0.46286482
vt -1.1760936 0.46286482
vt -1.2084472 0.4546956
vt -1.2084472 0.4546956
vt -1.2235783 0.42943975
vt -1.2235783 0.42943975
vt -1.2978287 0.46351215
vt -1.2978287 0.46351215
vt -1.3189392 0.51193565
vt -1.3189392 0.51193565
vt -1.3171432 0.5537343
vt -1.3171432 0.5537343
vt -1.332016 0.57009876
vt -1.332016 0.57009876
vt -1.3622017 0.5848213
vt -1.3622017 0.5848213
vt -1.3839277 0.6030346
vt -1.3839277 0.6030346
vt -1.4680951 0.60814077
vt -1.4680951 0.60814077
vt -1.4550288 0.5856211
vt -1.4550288 0.5856211
vt -1.4688526 0.57182175
vt -1.4688526 0.57182175
vt -1.5398414 0.5559626
vt -1.5398414 0.5559626
vt -1.5794328 0.5290638
vt -1.5794328 0.5290638
vt -1.6057199 0.5586737
vt -1.6057199 0.5586737
vt -1.6319531 0.56460214
vt -1.6319531 0.56460214
vt -1.6509967 0.5384926
vt -1.6509967 0.5384926
vt -1.6872406 0.51378703
vt -1.6872406 0.51378703
vt -1.6688633 0.46789062
vt -1.6688633 0.46789062
vt -1.6244793 0.40135035
vt -1.6244793 0.40135035
vt -1.5437943 0.3850197
vt -1.5437943 0.3850197
vt -1.539617 0.36929008
vt -1.539617 0.36929008
vt -1.4319056 0.3776492
vt -1.4319056 0.3776492
vt -1.3778689 0.3097584
vt -1.3778689 0.3097584
vt -1.3240325 0.31181082
vt -1.3240325 0.31181082
vt -1.3030164 0.2956813
vt -1.3030164 0.2956813
vt -1.3048979 0.26926708
vt -1.3048979 0.26926708
vt -1.2678317 0.2794341
vt -1.2678317 0.2794341
vt -1.1773422 0.2620865
vt -1.1773422 0.2620865
vt -1.1027404 0.18081017
vt -1.1027404 0.18081017
vt -1.093831 0.1374135
vt -1.093831 0.1374135
vt -1.0741389 0.114693664
vt -1.0741389 0.114693664
vt -1.0403006 0.11035536
vt -1.0403006 0.11035536
vt -0.98669875 0.060983073
vt -0.98669875 0.060983073
vt -0.9391557 0.054935653
vt -0.9391557 0.054935653
vt -0.9356534 0.0094489
vt -0.9356534 0.0094489
vt -0.94570816 -0.013841934
vt -0.94570816 -0.013841934
vt -0.98751515 -0.007905254
vt -0.98751515 -0.007905254
vt -1.0255212 -0.028801393
vt -1.0255212 -0.028801393
vt -1.0434045 -0.043452457
vt -1.0434045 -0.043452457
vt -1.0725462 -0.044889603
vt -1.0725462 -0.044889603
vt -1.1213136 -0.028682211
vt -1.1213136 -0.028682211
vt -1.1725881 0.0061632534
vt -1.1725881 0.0061632534
vt -1.2191532 -0.02792842
vt -1.2191532 -0.02792842
vt -1.2641419 -0.059724748
vt -1.2641419 -0.059724748
vt -1.3883811 -0.10293313
vt -1.3883811 -0.10293313
vt -1.3509859 -0.13514464
vt -1.3509859 -0.13514464
vt -1.399346 -0.16409351
vt -1.399346 -0.16409351
vt -1.4230239 -0.18031435
vt -1.4230239 -0.18031435
vt -1.4282377 -0.20456812
vt -1.4282377 -0.20456812
vt -1.4487753 -0.21335806
vt -1.4487753 -0.21335806
vt -1.4794685 -0.19729052
vt -1.4794685 -0.19729052
vt -1.4821287 -0.13143316
vt -1.4821287 -0.13143316
vt -1.5380341 -0.12679988
vt -1.5380341 -0.12679988
vt -1.5998037 -0.10877302
vt -1.5998037 -0.10877302
vt -1.629 -0.13641623
vt -1.629 -0.13641623
vt -1.6521896 -0.15301742
vt -1.6521896 -0.15301742
vt -1.6720433 -0.14656664
vt -1.6720433 -0.14656664
vt -1.7071012 -0.11773316
vt -1.7071012 -0.11773316
vt -1.7027404 -0.06640468
vt -1.7027404 -0.06640468
vt -1.7209917 -0.049751796
vt -1.7209917 -0.049751796
vt -1.7889057 -0.039667863
vt -1.7889057 -0.039667863
vt -1.8100936 -0.051055316
vt -1.8100936 -0.051055316
vt -1.8223231 -0.059600715
vt -1.8223231 -0.059600715
vt -1.843876 -0.03779128
vt -1.843876 -0.03779128
vt -1.918316 -0.041007124
vt -1.918316 -0.041007124
vt -1.8908476 -0.08747812
vt -1.8908476 -0.08747812
vt -1.846432 -0.18360008
vt -1.846432 -0.18360008
vt -1.8675538 -0.22699915
vt -1.8675538 -0.22699915
vt -1.8693134 -0.29923886
vt -1.8693134 -0.29923886
vt -1.8180801 -0.31580287
vt -1.8180801 -0.31580287
vt -1.7738825 -0.29873514
vt -1.7738825 -0.29873514
vt -1.7575468 -0.3395066
vt -1.7575468 -0.3395066
vt -1.7363636 -0.3593267
vt -1.7363636 -0.3593267
vt -1.6818366 -0.3786135
vt -1.6818366 -0.3786135
vt -1.5972916 -0.3505268
vt -1.5972916 -0.3505268
vt -1.5167428 -0.32733116
vt -1.5167428 -0.32733116
vt -1.4398594 -0.31734878
vt -1.4398594 -0.31734878
vt -1.3715668 -0.29122707
vt -1.3715668 -0.29122707
vt -1.343713 -0.3001704
vt -1.343713 -0.3001704
vt -1.334482 -0.32178965
vt -1.334482 -0.32178965
vt -1.2913753 -0.32675526
vt -1.2913753 -0.32675526
vt -1.2905627 -0.3405416
vt -1.2905627 -0.3405416
vt -1.3284167 -0.343456
vt -1.3284167 -0.343456
vt -1.3634295 -0.3728921
vt -1.3634295 -0.3728921
vt -1.3763226 -0.4006028
vt -1.3763226 -0.4006028
vt -1.3776498 -0.42979723
vt -1.3776498 -0.42979723
vt -1.395393 -0.4390825
vt -1.395393 -0.4390825
vt -1.5161989 -0.43435758
vt -1.5161989 -0.43435758
vt -1.5333688 -0.44724354
vt -1.5333688 -0.44724354
vt -1.5490613 -0.49297008
vt -1.5490613 -0.49297008
vt -1.5469376 -0.5190801
vt -1.5469376 -0.5190801
vt -1.5118736 -0.5458464
vt -1.5118736 -0.5458464
vt -1.5117738 -0.5707059
vt -1.5117738 -0.5707059
vt -1.5354307 -0.5707651
vt -1.5354307 -0.5707651
vt -1.5365834 -0.6172283
vt -1.5365834 -0.6172283
vt -1.5063332 -0.61314386
vt -1.5063332 -0.61314386
vt -1.4979194 -0.6645756
vt -1.4979194 -0.6645756
vt -1.5339252 -0.68537277
vt -1.5339252 -0.68537277
vt -1.5236967 -0.71944314
vt -1.5236967 -0.71944314
vt -1.4878374 -0.72516966
vt -1.4878374 -0.72516966
vt -1.4321721 -0.700609
vt -1.4321721 -0.700609
vt -1.3818929 -0.70685303
vt -1.3818929 -0.70685303
vt -1.3792827 -0.7265633
vt -1.3792827 -0.7265633
vt -1.3389268 -0.73182654
vt -1.3389268 -0.73182654
vt -1.3095993 -0.7106603
vt -1.3095993 -0.7106603
vt -1.2964497 -0.7270912
vt -1.2964497 -0.7270912
vt -1.2803917 -0.7421698
vt -1.2803917 -0.7421698
vt -1.2436047 -0.73584217
vt -1.2436047 -0.73584217
vt -1.2345058 -0.77788514
vt -1.2345058 -0.77788514
vt -1.2577454 -0.8139336
vt -1.2577454 -0.8139336
vt -1.218393 -0.817578
vt -1.218393 -0.817578
vt -1.2045579 -0.86463666
vt -1.2045579 -0.86463666
vt -1.1726826 -0.88151664
vt -1.1726826 -0.88151664
vn -0.83060807 -0 0.5568575
vn -0.83060807 0 0.5568575
vn -0.56469136 0 -0.8253022
vn -0.56469136 0 -0.8253022
vn -0.6250281 -0 0.7806022
vn -0.6250281 0 0.7806022
vn 0.30098534 0 0.9536288
vn 0.30098534 0 0.9536288
vn 0.9986636 0 0.05168188
vn 0.9986636 0 0.05168188
vn -0.08846695 -0 0.9960791
vn -0.08846695 0 0.9960791
vn -0.9995667 0 -0.029434958
vn -0.9995667 0 -0.029434958
vn -0.7851938 -0 0.6192501
vn -0.7851938 0 0.6192501
vn -0.85679823 -0 0.51565176
vn -0.85679823 0 0.51565176
vn 0.3012465 0 0.9535463
vn 0.3012465 0 0.9535463
vn 0.99028045 0 0.13908488
vn 0.99028045 0 0.13908488
vn 0.16576496 0 0.9861653
vn 0.16576496 0 0.9861653
vn -0.8927693 -0 0.45051423
vn -0.8927693 0 0.45051423
vn 0.38847065 0 0.9214611
vn 0.38847065 0 0.9214611
vn -0.037518684 -0 0.99929595
vn -0.037518684 0 0.99929595
vn 0.14910854 0 0.98882085
vn 0.14910854 0 0.98882085
vn -0.90851724 -0 0.41784742
vn -0.90851724 0 0.41784742
vn -0.98884547 -0 0.14894508
vn -0.98884547 0 0.14894508
vn -0.9700829 -0 0.24277401
vn -0.9700829 0 0.24277401
vn -0.97751045 -0 0.2108872
vn -0.97751045 0 0.2108872
vn 0.4735471 0 0.8807685
vn 0.4735471 0 0.8807685
vn 0.8866019 0 -0.46253327
vn 0.8866019 -0 -0.46253327
vn 0.8380648 0 -0.5455707
vn 0.8380648 -0 -0.5455707
vn 0.71608156 0 0.69801664
vn 0.71608156 0 0.69801664
vn 0.9657012 0 -0.2596557
vn 0.9657012 -0 -0.2596557
vn 0.15363781 0 -0.98812723
vn 0.15363781 -0 -0.98812723
vn 0.99768406 0 -0.06801804
vn 0.99768406 -0 -0.06801804
vn 0.9664297 0 0.25693128
vn 0.9664297 0 0.25693128
vn 0.45053443 0 -0.892759
vn 0.45053443 -0 -0.892759
vn 0.9187272 0 -0.39489284
vn 0.9187272 -0 -0.39489284
vn 0.9882804 0 0.15264916
vn 0.9882804 0 0.15264916
vn 0.4654002 0 0.8851003
vn 0.4654002 0 0.8851003
vn -0.7225785 -0 0.6912889
vn -0.7225785 0 0.6912889
vn -0.97136676 -0 0.23758501
vn -0.97136676 0 0.23758501
vn -0.30584538 -0 0.9520812
vn -0.30584538 0 0.9520812
vn 0.67891955 0 0.73421264
vn 0.67891955 0 0.73421264
vn -0.82811826 -0 0.5605534
vn -0.82811826 0 0.5605534
vn 0.0065727783 0 0.99997836
vn 0.0065727783 0 0.99997836
vn 0.5211645 0 0.85345626
vn 0.5211645 0 0.85345626
vn 0.86107165 0 0.50848377
vn 0.86107165 0 0.50848377
vn -0.106219105 -0 0.99434274
vn -0.106219105 0 0.99434274
vn 0.98314977 0 0.182802
vn 0.98314977 0 0.182802
vn 0.42308024 0 0.9060922
vn 0.42308024 0 0.9060922
vn 0.4041268 0 0.91470295
vn 0.4041268 0 0.91470295
vn 0.7870806 0 -0.6168502
vn 0.7870806 -0 -0.6168502
vn 0.99565005 0 -0.09317101
vn 0.99565005 -0 -0.09317101
vn -0.035319656 -0 0.99937606
vn -0.035319656 0 0.99937606
vn -0.37939227 -0 0.9252359
vn -0.37939227 0 0.9252359
vn -0.6627706 -0 0.74882245
vn -0.6627706 0 0.74882245
vn -0.60967636 -0 0.7926504
vn -0.60967636 0 0.7926504
vn -0.49813685 -0 0.86709845
vn -0.49813685 0 0.86709845
vn 0.9329066 0 0.36011845
vn 0.9329066 0 0.36011845
vn -0.027102629 0 -0.9996327
vn -0.027102629 0 -0.9996327
vn 0.39996827 0 -0.91652894
vn 0.39996827 -0 -0.91652894
vn -0.24543576 0 -0.9694129
vn -0.24543576 0 -0.9694129
vn 0.21610676 0 -0.97636974
vn 0.21610676 -0 -0.97636974
vn 0.97152734 0 -0.23692758
vn 0.97152734 -0 -0.23692758
vn 0.2299604 0 -0.97319996
vn 0.2299604 -0 -0.97319996
vn -0.6768264 0 -0.7361427
vn -0.6768264 0 -0.7361427
vn 0.5098772 0 -0.86024725
vn 0.5098772 -0 -0.86024725
vn 0.11650516 0 -0.99319005
vn 0.11650516 -0 -0.99319005
vn 0.9997439 0 0.022630572
vn 0.9997439 0 0.022630572
vn 0.5312541 0 0.84721255
vn 0.5312541 0 0.84721255
vn 0.5576491 0 -0.8300768
vn 0.5576491 -0 -0.8300768
vn 0.89284724 0 0.45035955
vn 0.89284724 0 0.45035955
vn 0.98611075 0 -0.16608864
vn 0.98611075 -0 -0.16608864
vn 0.49355215 0 0.8697162
vn 0.49355215 0 0.8697162
vn 0.93932045 0 -0.343041
vn 0.93932045 -0 -0.343041
vn -0.5276636 0 -0.84945345
vn -0.5276636 0 -0.84945345
vn 0.3379485 0 -0.9411646
vn 0.3379485 -0 -0.9411646
vn 0.9314524 0 -0.36386314
vn 0.9314524 -0 -0.36386314
vn 0.5048621 0 0.8632
vn 0.5048621 0 0.8632
vn -0.4089984 -0 0.9125351
vn -0.4089984 0 0.9125351
vn 0.50464696 0 0.86332583
vn 0.50464696 0 0.86332583
vn 0.90945405 0 -0.41580442
vn 0.90945405 -0 -0.41580442
vn -0.69332665 0 -0.7206235
vn -0.69332665 0 -0.7206235
vn -0.04555173 0 -0.998962
vn -0.04555173 0 -0.998962
vn -0.8204119 0 -0.57177293
vn -0.8204119 0 -0.57177293
vn -0.46437454 0 -0.8856389
vn -0.46437454 0 -0.8856389
vn 0.7282924 0 -0.68526655
vn 0.7282924 -0 -0.68526655
vn 0.93776184 0 0.34727916
vn 0.93776184 0 0.34727916
vn 0.5478705 0 0.83656317
vn 0.5478705 0 0.83656317
vn -0.018072013 -0 0.9998367
vn -0.018072013 0 0.9998367
vn 0.82756066 0 0.5613764
vn 0.82756066 0 0.5613764
vn 0.65247685 0 -0.7578087
vn 0.65247685 -0 -0.7578087
vn 0.9996401 0 -0.026826585
vn 0.9996401 -0 -0.026826585
vn 0.9719441 0 0.2352119
vn 0.9719441 0 0.2352119
vn 0.8145586 0 -0.5800812
vn 0.8145586 -0 -0.5800812
vn 0.81449836 0 0.58016586
vn 0.81449836 0 0.58016586
vn 0.9282182 0 -0.37203628
vn 0.9282182 -0 -0.37203628
vn 0.7532408 0 -0.6577448
vn 0.7532408 -0 -0.6577448
vn 0.50738865 0 -0.86171734
vn 0.50738865 -0 -0.86171734
vn 0.9396878 0 -0.34203345
vn 0.9396878 -0 -0.34203345
vn 0.91923463 0 0.39371005
vn 0.91923463 0 0.39371005
vn 0.3219291 0 -0.94676375
vn 0.3219291 -0 -0.94676375
vn 0.9806878 0 -0.19557978
vn 0.9806878 -0 -0.19557978
vn 0.92075866 0 -0.3901326
vn 0.92075866 -0 -0.3901326
vn 0.9944205 0 0.10548791
vn 0.9944205 0 0.10548791
vn 0.34536323 0 -0.93846905
vn 0.34536323 -0 -0.93846905
vn 0.50868505 0 -0.86095273
vn 0.50868505 -0 -0.86095273
vn 0.99963987 0 0.026834698
vn 0.99963987 0 0.026834698
vn 0.58296955 0 0.81249404
vn 0.58296955 0 0.81249404
vn 0.45587325 0 0.8900447
vn 0.45587325 0 0.8900447
vn 0.9999613 0 -0.008797493
vn 0.9999613 -0 -0.008797493
vn 0.45168275 0 -0.8921786
vn 0.45168275 -0 -0.8921786
vn -0.22092998 0 -0.97528964
vn -0.22092998 0 -0.97528964
vn 0.3590753 0 -0.93330854
vn 0.3590753 -0 -0.93330854
vn -0.57895887 0 -0.81535673
vn -0.57895887 0 -0.81535673
vn -0.9921119 -0 0.1253548
vn -0.9921119 0 0.1253548
vn -0.8288865 0 -0.55941683
vn -0.8288865 0 -0.55941683
vn -0.42814103 0 -0.903712
vn -0.42814103 0 -0.903712
vn -0.7570098 -0 0.6534035
vn -0.7570098 0 0.6534035
vn -0.32995957 -0 0.94399506
vn -0.32995957 0 0.94399506
vn -0.81498414 0 -0.5794832
vn -0.81498414 0 -0.5794832
vn -0.115111575 0 -0.9933526
vn -0.115111575 0 -0.9933526
vn 0.44947454 0 -0.89329314
vn 0.44947454 -0 -0.89329314
vn -0.28946894 0 -0.9571874
vn -0.28946894 0 -0.9571874
vn -0.65472496 0 -0.7558672
vn -0.65472496 0 -0.7558672
vn -0.99769175 -0 0.06790543
vn -0.99769175 0 0.06790543
vn -0.9975508 -0 0.069946036
vn -0.9975508 0 0.069946036
vn -0.3597722 0 -0.9330402
vn -0.3597722 0 -0.9330402
vn -0.29801217 0 -0.95456207
vn -0.29801217 0 -0.95456207
vn -0.9118622 0 -0.4104965
vn -0.9118622 0 -0.4104965
vn -0.856754 0 -0.5157254
vn -0.856754 0 -0.5157254
vn -0.9999624 0 -0.0086741615
vn -0.9999624 0 -0.0086741615
vn -0.949747 -0 0.3130185
vn -0.949747 0 0.3130185
vn -0.904551 0 -0.42636538
vn -0.904551 0 -0.42636538
vn -0.5961992 0 -0.8028365
vn -0.5961992 0 -0.8028365
vn 0.99932516 0 -0.036732994
vn 0.99932516 -0 -0.036732994
vn 0.66440815 0 -0.7473699
vn 0.66440815 -0 -0.7473699
vn 0.67610484 0 -0.73680544
vn 0.67610484 -0 -0.73680544
vn -0.19681345 0 -0.9804409
vn -0.19681345 0 -0.9804409
vn -0.2751085 0 -0.9614132
vn -0.2751085 0 -0.9614132
vn -0.7893095 0 -0.6139955
vn -0.7893095 0 -0.6139955
vn -0.7944392 0 -0.6073438
vn -0.7944392 0 -0.6073438
vn 0.7303337 0 -0.6830905
vn 0.7303337 -0 -0.6830905
vn 0.88499874 0 0.4655934
vn 0.88499874 0 0.4655934
vn 0.4075219 0 0.9131955
vn 0.4075219 0 0.9131955
vn -0.05467458 -0 0.9985042
vn -0.05467458 0 0.9985042
vn 0.7310253 0 0.68235034
vn 0.7310253 0 0.68235034
vn 0.51974803 0 -0.85431963
vn 0.51974803 -0 -0.85431963
vn 0.9974056 0 -0.0719871
vn 0.9974056 -0 -0.0719871
vn 0.8883664 0 0.45913512
vn 0.8883664 0 0.45913512
vn 0.8898558 0 -0.45624197
vn 0.8898558 -0 -0.45624197
vn 0.62781614 0 -0.7783617
vn 0.62781614 -0 -0.7783617
vn 0.9807733 0 0.19515033
vn 0.9807733 0 0.19515033
vn 0.8840605 0 -0.46737245
vn 0.8840605 -0 -0.46737245
vn -0.1851455 0 -0.98271114
vn -0.1851455 0 -0.98271114
vn 0.77692974 0 -0.6295873
vn 0.77692974 -0 -0.6295873
vn 0.9998847 0 0.015184611
vn 0.9998847 0 0.015184611
vn 0.17766622 0 -0.9840908
vn 0.17766622 -0 -0.9840908
vn -0.06735449 0 -0.99772906
vn -0.06735449 0 -0.99772906
vn 0.21448462 0 -0.97672737
vn 0.21448462 -0 -0.97672737
vn 0.511365 0 -0.8593636
vn 0.511365 -0 -0.8593636
vn -0.51678807 0 -0.8561134
vn -0.51678807 0 -0.8561134
vn -0.988135 -0 0.15358773
vn -0.988135 0 0.15358773
vn -0.3502786 0 -0.9366456
vn -0.3502786 0 -0.9366456
vn -0.78222805 0 -0.6229922
vn -0.78222805 0 -0.6229922
vn -0.9454243 -0 0.3258417
vn -0.9454243 0 0.3258417
vn -0.60006076 -0 0.7999544
vn -0.60006076 0 0.7999544
vn -0.024501199 -0 0.99969983
vn -0.024501199 0 0.99969983
vn -0.6153556 -0 0.7882496
vn -0.6153556 0 0.7882496
vn -0.9993306 0 -0.036583133
vn -0.9993306 0 -0.036583133
vn -0.49004677 0 -0.8716962
vn -0.49004677 0 -0.8716962
vn -0.9974891 0 -0.0708202
vn -0.9974891 0 -0.0708202
vn -0.6600295 -0 0.7512397
vn -0.6600295 0 0.7512397
vn -0.9950234 -0 0.09964126
vn -0.9950234 0 0.09964126
vn -0.96508026 0 -0.26195443
vn -0.96508026 0 -0.26195443
vn -0.9448442 -0 0.3275202
vn -0.9448442 0 0.3275202
vn -0.932761 0 -0.3604952
vn -0.932761 0 -0.3604952
vn -0.99342084 -0 0.11452117
vn -0.99342084 0 0.11452117
vn -0.9978956 -0 0.06484136
vn -0.9978956 0 0.06484136
vn -0.46733323 0 -0.88408124
vn -0.46733323 0 -0.88408124
vn 0.8533341 0 -0.52136445
vn 0.8533341 -0 -0.52136445
vn 0.719527 0 0.69446445
vn 0.719527 0 0.69446445
vn 0.9917825 0 -0.12793556
vn 0.9917825 -0 -0.12793556
vn 0.45777348 0 -0.88906884
vn 0.45777348 -0 -0.88906884
vn 0.46113557 0 -0.88732976
vn 0.46113557 -0 -0.88732976
vn -0.24481378 0 -0.9695701
vn -0.24481378 0 -0.9695701
vn -0.857829 0 -0.51393527
vn -0.857829 0 -0.51393527
vn 0.41706917 0 -0.90887475
vn 0.41706917 -0 -0.90887475
vn 0.91667664 0 -0.3996296
vn 0.91667664 -0 -0.3996296
vn 0.99907815 0 0.0429273
vn 0.99907815 0 0.0429273
vn 0.7400306 0 -0.67257315
vn 0.7400306 -0 -0.67257315
vn 0.4383704 0 -0.8987944
vn 0.4383704 -0 -0.8987944
vn 0.6424358 0 -0.7663395
vn 0.6424358 -0 -0.7663395
vn 0.060555022 0 -0.9981649
vn 0.060555022 -0 -0.9981649
vn -0.8649498 -0 0.50185835
vn -0.8649498 0 0.50185835
vn -0.7064796 0 -0.7077334
vn -0.7064796 0 -0.7077334
vn -0.218029 0 -0.97594225
vn -0.218029 0 -0.97594225
vn -0.5619767 0 -0.827153
vn -0.5619767 0 -0.827153
vn 0.74782014 0 -0.6639013
vn 0.74782014 -0 -0.6639013
vn 0.22043309 0 -0.97540206
vn 0.22043309 -0 -0.97540206
vn -0.8079284 0 -0.58928066
vn -0.8079284 0 -0.58928066
vn -0.5632408 0 -0.82629275
vn -0.5632408 0 -0.82629275
vn -0.9283465 -0 0.37171605
vn -0.9283465 0 0.37171605
vn -0.83191276 -0 0.5549064
vn -0.83191276 0 0.5549064
vn -0.19837758 -0 0.98012567
vn -0.19837758 0 0.98012567
vn -0.96649927 -0 0.2566693
vn -0.96649927 0 0.2566693
vn 0.07737392 0 0.9970021
vn 0.07737392 0 0.9970021
vn -0.7824175 -0 0.6227542
vn -0.7824175 0 0.6227542
vn 0.03809566 0 0.99927413
vn 0.03809566 0 0.99927413
vn -0.6088404 -0 0.7932927
vn -0.6088404 0 0.7932927
vn -0.997473 0 -0.07104712
vn -0.997473 0 -0.07104712
vn 0.26452422 0 0.964379
vn 0.26452422 0 0.964379
vn -0.18827967 -0 0.9821154
vn -0.18827967 0 0.9821154
vn -0.73671 -0 0.67620885
vn -0.73671 0 0.67620885
vn -0.979569 -0 0.20110829
vn -0.979569 0 0.20110829
vn -0.7556624 -0 0.6549614
vn -0.7556624 0 0.6549614
vn -0.1271664 -0 0.9918814
vn -0.1271664 0 0.9918814
vn -0.6774914 -0 0.73553073
vn -0.6774914 0 0.73553073
vn -0.12618218 -0 0.992007
vn -0.12618218 0 0.992007
vn -0.9970488 -0 0.0767699
vn -0.9970488 0 0.0767699
vn -0.91810006 0 -0.3963487
vn -0.91810006 0 -0.3963487
vn 0.14059156 0 -0.99006766
vn 0.14059156 -0 -0.99006766
vn -0.48179215 0 -0.8762855
vn -0.48179215 0 -0.8762855
vn -0.63373536 0 -0.77354985
vn -0.63373536 0 -0.77354985
vn -0.04925588 0 -0.99878615
vn -0.04925588 0 -0.99878615
vn 0.3153803 0 -0.9489654
vn 0.3153803 -0 -0.9489654
vn 0.56207573 0 -0.8270858
vn 0.56207573 -0 -0.8270858
vn -0.5907324 0 -0.8068676
vn -0.5907324 0 -0.8068676
vn -0.5771615 0 -0.81663007
vn -0.5771615 0 -0.81663007
vn -0.32848516 0 -0.94450915
vn -0.32848516 0 -0.94450915
vn -0.65263927 -0 0.7576688
vn -0.65263927 0 0.7576688
vn -0.51361865 0 -0.8580186
vn -0.51361865 0 -0.8580186
vn -0.56516117 0 -0.8249805
vn -0.56516117 0 -0.8249805
vn -0.9776656 0 -0.21016647
vn -0.9776656 0 -0.21016647
vn -0.3934702 0 -0.9193374
vn -0.3934702 0 -0.9193374
vn 0.46378344 0 -0.88594866
vn 0.46378344 -0 -0.88594866
vn 0.9991852 0 -0.040360704
vn 0.9991852 -0 -0.040360704
vn 0.082594015 0 -0.9965833
vn 0.082594015 -0 -0.9965833
vn 0.28015324 0 -0.9599553
vn 0.28015324 -0 -0.9599553
vn -0.68753064 0 -0.72615534
vn -0.68753064 0 -0.72615534
vn -0.58209974 0 -0.8131174
vn -0.58209974 0 -0.8131174
vn 0.30901352 0 -0.9510577
vn 0.30901352 -0 -0.9510577
vn 0.635211 0 -0.7723387
vn 0.635211 -0 -0.7723387
vn 0.9964105 0 0.08465389
vn 0.9964105 0 0.08465389
vn 0.67401797 0 -0.73871505
vn 0.67401797 -0 -0.73871505
vn 0.1468708 0 -0.9891557
vn 0.1468708 -0 -0.9891557
vn -0.47340953 0 -0.8808425
vn -0.47340953 0 -0.8808425
vn -0.5727773 0 -0.8197111
vn -0.5727773 0 -0.8197111
vn 0.71127784 0 -0.70291096
vn 0.71127784 -0 -0.70291096
vn -0.0431602 0 -0.99906814
vn -0.0431602 0 -0.99906814
vn -0.86085933 -0 0.50884295
vn -0.86085933 0 0.50884295
vn -0.90777385 -0 0.41945994
vn -0.90777385 0 0.41945994
vn -0.8991636 0 -0.43761256
vn -0.8991636 0 -0.43761256
vn -0.9997035 0 -0.024349064
vn -0.9997035 0 -0.024349064
vn -0.30762818 -0 0.9515067
vn -0.30762818 0 0.9515067
vn 0.36024126 0 0.9328591
vn 0.36024126 0 0.9328591
vn -0.9282632 -0 0.371924
vn -0.9282632 0 0.371924
vn -0.6832231 -0 0.7302097
vn -0.6832231 0 0.7302097
vn -0.33346558 -0 0.94276226
vn -0.33346558 0 0.94276226
vn 0.31526777 0 0.9490028
vn 0.31526777 0 0.9490028
vn 0.27672496 0 0.9609492
vn 0.27672496 0 0.9609492
vn 0.12875712 0 0.99167615
vn 0.12875712 0 0.99167615
vn 0.3572544 0 0.9340071
vn 0.3572544 0 0.9340071
vn -0.30571032 -0 0.95212454
vn -0.30571032 0 0.95212454
vn -0.91967237 -0 0.39268667
vn -0.91967237 0 0.39268667
vn -0.11443651 -0 0.99343055
vn -0.11443651 0 0.99343055
vn -0.9982677 -0 0.058835205
vn -0.9982677 0 0.058835205
vn -0.07676327 0 -0.99704933
vn -0.07676327 0 -0.99704933
vn -0.6435169 0 -0.7654319
vn -0.6435169 0 -0.7654319
vn -0.90666634 0 -0.42184845
vn -0.90666634 0 -0.42184845
vn -0.99896824 0 -0.045414116
vn -0.99896824 0 -0.045414116
vn -0.46366245 0 -0.8860119
vn -0.46366245 0 -0.8860119
vn 0.03908183 0 -0.99923605
vn 0.03908183 -0 -0.99923605
vn -0.60025245 0 -0.79981065
vn -0.60025245 0 -0.79981065
vn -0.94585216 0 -0.32459772
vn -0.94585216 0 -0.32459772
vn -0.99670845 -0 0.08106951
vn -0.99670845 0 0.08106951
vn -0.6067736 -0 0.7948747
vn -0.6067736 0 0.7948747
vn -0.9999919 -0 0.004014232
vn -0.9999919 0 0.004014232
vn -0.002500992 0 -0.9999969
vn -0.002500992 0 -0.9999969
vn -0.99969244 0 -0.02480013
vn -0.99969244 0 -0.02480013
vn 0.133808 0 0.99100727
vn 0.133808 0 0.99100727
vn -0.9868815 -0 0.16144659
vn -0.9868815 0 0.16144659
vn -0.50016755 0 -0.8659286
vn -0.50016755 0 -0.8659286
vn -0.95776963 -0 0.28753656
vn -0.95776963 0 0.28753656
vn -0.15769707 -0 0.98748755
vn -0.15769707 0 0.98748755
vn 0.40367243 0 0.9149035
vn 0.40367243 0 0.9149035
vn -0.12323961 -0 0.99237686
vn -0.12323961 0 0.99237686
vn -0.9913442 -0 0.13128847
vn -0.9913442 0 0.13128847
vn -0.12932676 -0 0.991602
vn -0.12932676 0 0.991602
vn 0.585222 0 0.8108731
vn 0.585222 0 0.8108731
vn -0.7807581 -0 0.6248334
vn -0.7807581 0 0.6248334
vn -0.6845248 -0 0.72898954
vn -0.6845248 0 0.72898954
vn 0.16951697 0 0.9855273
vn 0.16951697 0 0.9855273
vn -0.9773728 -0 0.21152413
vn -0.9773728 0 0.21152413
vn -0.84048176 0 -0.54183984
vn -0.84048176 0 -0.54183984
vn -0.09221494 -0 0.9957391
vn -0.09221494 0 0.9957391
vn -0.95939654 -0 0.28206062
vn -0.95939654 0 0.28206062
vn -0.46799335 -0 0.88373196
vn -0.46799335 0 0.88373196
vn -0.46799335 0 0.88373196
vn -0.46799335 0 0.88373196
g _0
f 3/3/3 2/2/2 1/1/1
f 2/2/2 3/3/3 4/4/4
f 5/5/5 4/4/4 3/3/3
f 4/4/4 5/5/5 6/6/6
f 7/7/7 6/6/6 5/5/5
f 6/6/6 7/7/7 8/8/8
f 9/9/9 8/8/8 7/7/7
f 8/8/8 9/9/9 10/10/10
f 11/11/11 10/10/10 9/9/9
f 10/10/10 11/11/11 12/12/12
f 13/13/13 12/12/12 11/11/11
f 12/12/12 13/13/13 14/14/14
f 15/15/15 14/14/14 13/13/13
f 14/14/14 15/15/15 16/16/16
f 17/17/17 16/16/16 15/15/15
f 16/16/16 17/17/17 18/18/18
f 19/19/19 18/18/18 17/17/17
f 18/18/18 19/19/19 20/20/20
f 21/21/21 20/20/20 19/19/19
f 20/20/20 21/21/21 22/22/22
f 23/23/23 22/22/22 21/21/21
f 22/22/22 23/23/23 24/24/24
f 25/25/25 24/24/24 23/23/23
f 24/24/24 25/25/25 26/26/26
f 27/27/27 26/26/26 25/25/25
f 26/26/26 27/27/27 28/28/28
f 29/29/29 28/28/28 27/27/27
f 28/28/28 29/29/29 30/30/30
f 31/31/31 30/30/30 29/29/29
f 30/30/30 31/31/31 32/32/32
f 33/33/33 32/32/32 31/31/31
f 32/32/32 33/33/33 34/34/34
f 35/35/35 34/34/34 33/33/33
f 34/34/34 35/35/35 36/36/36
f 37/37/37 36/36/36 35/35/35
f 36/36/36 37/37/37 38/38/38
f 39/39/39 38/38/38 37/37/37
f 38/38/38 39/39/39 40/40/40
f 41/41/41 40/40/40 39/39/39
f 40/40/40 41/41/41 42/42/42
f 43/43/43 42/42/42 41/41/41
f 42/42/42 43/43/43 44/44/44
f 45/45/45 44/44/44 43/43/43
f 44/44/44 45/45/45 46/46/46
f 47/47/47 46/46/46 45/45/45
f 46/46/46 47/47/47 48/48/48
f 49/49/49 48/48/48 47/47/47
f 48/48/48 49/49/49 50/50/50
f 51/51/51 50/50/50 49/49/49
f 50/50/50 51/51/51 52/52/52
f 53/53/53 52/52/52 51/51/51
f 52/52/52 53/53/53 54/54/54
f 55/55/55 54/54/54 53/53/53
f 54/54/54 55/55/55 56/56/56
f 57/57/57 56/56/56 55/55/55
f 56/56/56 57/57/57 58/58/58
f 59/59/59 58/58/58 57/57/57
f 58/58/58 59/59/59 60/60/60
f 61/61/61 60/60/60 59/59/59
f 60/60/60 61/61/61 62/62/62
f 63/63/63 62/62/62 61/61/61
f 62/62/62 63/63/63 64/64/64
f 65/65/65 64/64/64 63/63/63
f 64/64/64 65/65/65 66/66/66
f 67/67/67 66/66/66 65/65/65
f 66/66/66 67/67/67 68/68/68
f 69/69/69 68/68/68 67/67/67
f 68/68/68 69/69/69 70/70/70
f 71/71/71 70/70/70 69/69/69
f 70/70/70 71/71/71 72/72/72
f 73/73/73 72/72/72 71/71/71
f 72/72/72 73/73/73 74/74/74
f 75/75/75 74/74/74 73/73/73
f 74/74/74 75/75/75 76/76/76
f 77/77/77 76/76/76 75/75/75
f 76/76/76 77/77/77 78/78/78
f 79/79/79 78/78/78 77/77/77
f 78/78/78 79/79/79 80/80/80
f 81/81/81 80/80/80 79/79/79
f 80/80/80 81/81/81 82/82/82
f 83/83/83 82/82/82 81/81/81
f 82/82/82 83/83/83 84/84/84
f 85/85/85 84/84/84 83/83/83
f 84/84/84 85/85/85 86/86/86
f 87/87/87 86/86/86 85/85/85
f 86/86/86 87/87/87 88/88/88
f 89/89/89 88/88/88 87/87/87
f 88/88/88 89/89/89 90/90/90
f 91/91/91 90/90/90 89/89/89
f 90/90/90 91/91/91 92/92/92
f 93/93/93 92/92/92 91/91/91
f 92/92/92 93/93/93 94/94/94
f 95/95/95 94/94/94 93/93/93
f 94/94/94 95/95/95 96/96/96
f 97/97/97 96/96/96 95/95/95
f 96/96/96 97/97/97 98/98/98
f 99/99/99 98/98/98 97/97/97
f 98/98/98 99/99/99 100/100/100
f 101/101/101 100/100/100 99/99/99
f 100/100/100 101/101/101 102/102/102
f 103/103/103 102/102/102 101/101/101
f 102/102/102 103/103/103 104/104/104
f 105/105/105 104/104/104 103/103/103
f 104/104/104 105/105/105 106/106/106
f 107/107/107 106/106/106 105/105/105
f 106/106/106 107/107/107 108/108/108
f 109/109/109 108/108/108 107/107/107
f 108/108/108 109/109/109 110/110/110
f 111/111/111 110/110/110 109/109/109
f 110/110/110 111/111/111 112/112/112
f 113/113/113 112/112/112 111/111/111
f 112/112/112 113/113/113 114/114/114
f 115/115/115 114/114/114 113/113/113
f 114/114/114 115/115/115 116/116/116
f 117/117/117 116/116/116 115/115/115
f 116/116/116 117/117/117 118/118/118
f 119/119/119 118/118/118 117/117/117
f 118/118/118 119/119/119 120/120/120
f 121/121/121 120/120/120 119/119/119
f 120/120/120 121/121/121 122/122/122
f 123/123/123 122/122/122 121/121/121
f 122/122/122 123/123/123 124/124/124
f 125/125/125 124/124/124 123/123/123
f 124/124/124 125/125/125 126/126/126
f 127/127/127 126/126/126 125/125/125
f 126/126/126 127/127/127 128/128/128
f 129/129/129 128/128/128 127/127/127
f 128/128/128 129/129/129 130/130/130
f 131/131/131 130/130/130 129/129/129
f 130/130/130 131/131/131 132/132/132
f 133/133/133 132/132/132 131/131/131
f 132/132/132 133/133/133 134/134/134
f 135/135/135 134/134/134 133/133/133
f 134/134/134 135/135/135 136/136/136
f 137/137/137 136/136/136 135/135/135
f 136/136/136 137/137/137 138/138/138
f 139/139/139 138/138/138 137/137/137
f 138/138/138 139/139/139 140/140/140
f 141/141/141 140/140/140 139/139/139
f 140/140/140 141/141/141 142/142/142
f 143/143/143 142/142/142 141/141/141
f 142/142/142 143/143/143 144/144/144
f 145/145/145 144/144/144 143/143/143
f 144/144/144 145/145/145 146/146/146
f 147/147/147 146/146/146 145/145/145
f 146/146/146 147/147/147 148/148/148
f 149/149/149 148/148/148 147/147/147
f 148/148/148 149/149/149 150/150/150
f 151/151/151 150/150/150 149/149/149
f 150/150/150 151/151/151 152/152/152
f 153/153/153 152/152/152 151/151/151
f 152/152/152 153/153/153 154/154/154
f 155/155/155 154/154/154 153/153/153
f 154/154/154 155/155/155 156/156/156
f 157/157/157 156/156/156 155/155/155
f 156/156/156 157/157/157 158/158/158
f 159/159/159 158/158/158 157/157/157
f 158/158/158 159/159/159 160/160/160
f 161/161/161 160/160/160 159/159/159
f 160/160/160 161/161/161 162/162/162
f 163/163/163 162/162/162 161/161/161
f 162/162/162 163/163/163 164/164/164
f 165/165/165 164/164/164 163/163/163
f 164/164/164 165/165/165 166/166/166
f 167/167/167 166/166/166 165/165/165
f 166/166/166 167/167/167 168/168/168
f 169/169/169 168/168/168 167/167/167
f 168/168/168 169/169/169 170/170/170
f 171/171/171 170/170/170 169/169/169
f 170/170/170 171/171/171 172/172/172
f 173/173/173 172/172/172 171/171/171
f 172/172/172 173/173/173 174/174/174
f 175/175/175 174/174/174 173/173/173
f 174/174/174 175/175/175 176/176/176
f 177/177/177 176/176/176 175/175/175
f 176/176/176 177/177/177 178/178/178
f 179/179/179 178/178/178 177/177/177
f 178/178/178 179/179/179 180/180/180
f 181/181/181 180/180/180 179/179/179
f 180/180/180 181/181/181 182/182/182
f 183/183/183 182/182/182 181/181/181
f 182/182/182 183/183/183 184/184/184
f 185/185/185 184/184/184 183/183/183
f 184/184/184 185/185/185 186/186/186
f 187/187/187 186/186/186 185/185/185
f 186/186/186 187/187/187 188/188/188
f 189/189/189 188/188/188 187/187/187
f 188/188/188 189/189/189 190/190/190
f 191/191/191 190/190/190 189/189/189
f 190/190/190 191/191/191 192/192/192
f 193/193/193 192/192/192 191/191/191
f 192/192/192 193/193/193 194/194/194
f 195/195/195 194/194/194 193/193/193
f 194/194/194 195/195/195 196/196/196
f 197/197/197 196/196/196 195/195/195
f 196/196/196 197/197/197 198/198/198
f 199/199/199 198/198/198 197/197/197
f 198/198/198 199/199/199 200/200/200
f 201/201/201 200/200/200 199/199/199
f 200/200/200 201/201/201 202/202/202
f 203/203/203 202/202/202 201/201/201
f 202/202/202 203/203/203 204/204/204
f 205/205/205 204/204/204 203/203/203
f 204/204/204 205/205/205 206/206/206
f 207/207/207 206/206/206 205/205/205
f 206/206/206 207/207/207 208/208/208
f 209/209/209 208/208/208 207/207/207
f 208/208/208 209/209/209 210/210/210
f 211/211/211 210/210/210 209/209/209
f 210/210/210 211/211/211 212/212/212
f 213/213/213 212/212/212 211/211/211
f 212/212/212 213/213/213 214/214/214
f 215/215/215 214/214/214 213/213/213
f 214/214/214 215/215/215 216/216/216
f 217/217/217 216/216/216 215/215/215
f 216/216/216 217/217/217 218/218/218
f 219/219/219 218/218/218 217/217/217
f 218/218/218 219/219/219 220/220/220
f 221/221/221 220/220/220 219/219/219
f 220/220/220 221/221/221 222/222/222
f 223/223/223 222/222/222 221/221/221
f 222/222/222 223/223/223 224/224/224
f 225/225/225 224/224/224 223/223/223
f 224/224/224 225/225/225 226/226/226
f 227/227/227 226/226/226 225/225/225
f 226/226/226 227/227/227 228/228/228
f 229/229/229 228/228/228 227/227/227
f 228/228/228 229/229/229 230/230/230
f 231/231/231 230/230/230 229/229/229
f 230/230/230 231/231/231 232/232/232
f 233/233/233 232/232/232 231/231/231
f 232/232/232 233/233/233 234/234/234
f 235/235/235 234/234/234 233/233/233
f 234/234/234 235/235/235 236/236/236
f 237/237/237 236/236/236 235/235/235
f 236/236/236 237/237/237 238/238/238
f 239/239/239 238/238/238 237/237/237
f 238/238/238 239/239/239 240/240/240
f 241/241/241 240/240/240 239/239/239
f 240/240/240 241/241/241 242/242/242
f 243/243/243 242/242/242 241/241/241
f 242/242/242 243/243/243 244/244/244
f 245/245/245 244/244/244 243/243/243
f 244/244/244 245/245/245 246/246/246
f 247/247/247 246/246/246 245/245/245
f 246/246/246 247/247/247 248/248/248
f 249/249/249 248/248/248 247/247/247
f 248/248/248 249/249/249 250/250/250
f 251/251/251 250/250/250 249/249/249
f 250/250/250 251/251/251 252/252/252
f 253/253/253 252/252/252 251/251/251
f 252/252/252 253/253/253 254/254/254
f 255/255/255 254/254/254 253/253/253
f 254/254/254 255/255/255 256/256/256
f 257/257/257 256/256/256 255/255/255
f 256/256/256 257/257/257 258/258/258
f 259/259/259 258/258/258 257/257/257
f 258/258/258 259/259/259 260/260/260
f 261/261/261 260/260/260 259/259/259
f 260/260/260 261/261/261 262/262/262
f 263/263/263 262/262/262 261/261/261
f 262/262/262 263/263/263 264/264/264
f 265/265/265 264/264/264 263/263/263
f 264/264/264 265/265/265 266/266/266
f 267/267/267 266/266/266 265/265/265
f 266/266/266 267/267/267 268/268/268
f 269/269/269 268/268/268 267/267/267
f 268/268/268 269/269/269 270/270/270
f 271/271/271 270/270/270 269/269/269
f 270/270/270 271/271/271 272/272/272
f 273/273/273 272/272/272 271/271/271
f 272/272/272 273/273/273 274/274/274
f 275/275/275 274/274/274 273/273/273
f 274/274/274 275/275/275 276/276/276
f 277/277/277 276/276/276 275/275/275
f 276/276/276 277/277/277 278/278/278
f 279/279/279 278/278/278 277/277/277
f 278/278/278 279/279/279 280/280/280
f 281/281/281 280/280/280 279/279/279
f 280/280/280 281/281/281 282/282/282
f 283/283/283 282/282/282 281/281/281
f 282/282/282 283/283/283 284/284/284
f 285/285/285 284/284/284 283/283/283
f 284/284/284 285/285/285 286/286/286
f 287/287/287 286/286/286 285/285/285
f 286/286/286 287/287/287 288/288/288
f 289/289/289 288/288/288 287/287/287
f 288/288/288 289/289/289 290/290/290
f 291/291/291 290/290/290 289/289/289
f 290/290/290 291/291/291 292/292/292
f 293/293/293 292/292/292 291/291/291
f 292/292/292 293/293/293 294/294/294
f 295/295/295 294/294/294 293/293/293
f 294/294/294 295/295/295 296/296/296
f 297/297/297 296/296/296 295/295/295
f 296/296/296 297/297/297 298/298/298
f 299/299/299 298/298/298 297/297/297
f 298/298/298 299/299/299 300/300/300
f 301/301/301 300/300/300 299/299/299
f 300/300/300 301/301/301 302/302/302
f 303/303/303 302/302/302 301/301/301
f 302/302/302 303/303/303 304/304/304
f 305/305/305 304/304/304 303/303/303
f 304/304/304 305/305/305 306/306/306
f 307/307/307 306/306/306 305/305/305
f 306/306/306 307/307/307 308/308/308
f 309/309/309 308/308/308 307/307/307
f 308/308/308 309/309/309 310/310/310
f 311/311/311 310/310/310 309/309/309
f 310/310/310 311/311/311 312/312/312
f 313/313/313 312/312/312 311/311/311
f 312/312/312 313/313/313 314/314/314
f 315/315/315 314/314/314 313/313/313
f 314/314/314 315/315/315 316/316/316
f 317/317/317 316/316/316 315/315/315
f 316/316/316 317/317/317 318/318/318
f 319/319/319 318/318/318 317/317/317
f 318/318/318 319/319/319 320/320/320
f 321/321/321 320/320/320 319/319/319
f 320/320/320 321/321/321 322/322/322
f 323/323/323 322/322/322 321/321/321
f 322/322/322 323/323/323 324/324/324
f 325/325/325 324/324/324 323/323/323
f 324/324/324 325/325/325 326/326/326
f 327/327/327 326/326/326 325/325/325
f 326/326/326 327/327/327 328/328/328
f 329/329/329 328/328/328 327/327/327
f 328/328/328 329/329/329 330/330/330
f 331/331/331 330/330/330 329/329/329
f 330/330/330 331/331/331 332/332/332
f 333/333/333 332/332/332 331/331/331
f 332/332/332 333/333/333 334/334/334
f 335/335/335 334/334/334 333/333/333
f 334/334/334 335/335/335 336/336/336
f 337/337/337 336/336/336 335/335/335
f 336/336/336 337/337/337 338/338/338
f 339/339/339 338/338/338 337/337/337
f 338/338/338 339/339/339 340/340/340
f 341/341/341 340/340/340 339/339/339
f 340/340/340 341/341/341 342/342/342
f 343/343/343 342/342/342 341/341/341
f 342/342/342 343/343/343 344/344/344
f 345/345/345 344/344/344 343/343/343
f 344/344/344 345/345/345 346/346/346
f 347/347/347 346/346/346 345/345/345
f 346/346/346 347/347/347 348/348/348
f 349/349/349 348/348/348 347/347/347
f 348/348/348 349/349/349 350/350/350
f 351/351/351 350/350/350 349/349/349
f 350/350/350 351/351/351 352/352/352
f 353/353/353 352/352/352 351/351/351
f 352/352/352 353/353/353 354/354/354
f 355/355/355 354/354/354 353/353/353
f 354/354/354 355/355/355 356/356/356
f 357/357/357 356/356/356 355/355/355
f 356/356/356 357/357/357 358/358/358
f 359/359/359 358/358/358 357/357/357
f 358/358/358 359/359/359 360/360/360
f 361/361/361 360/360/360 359/359/359
f 360/360/360 361/361/361 362/362/362
f 363/363/363 362/362/362 361/361/361
f 362/362/362 363/363/363 364/364/364
f 365/365/365 364/364/364 363/363/363
f 364/364/364 365/365/365 366/366/366
f 367/367/367 366/366/366 365/365/365
f 366/366/366 367/367/367 368/368/368
f 369/369/369 368/368/368 367/367/367
f 368/368/368 369/369/369 370/370/370
f 371/371/371 370/370/370 369/369/369
f 370/370/370 371/371/371 372/372/372
f 373/373/373 372/372/372 371/371/371
f 372/372/372 373/373/373 374/374/374
f 375/375/375 374/374/374 373/373/373
f 374/374/374 375/375/375 376/376/376
f 377/377/377 376/376/376 375/375/375
f 376/376/376 377/377/377 378/378/378
f 379/379/379 378/378/378 377/377/377
f 378/378/378 379/379/379 380/380/380
f 381/381/381 380/380/380 379/379/379
f 380/380/380 381/381/381 382/382/382
f 383/383/383 382/382/382 381/381/381
f 382/382/382 383/383/383 384/384/384
f 385/385/385 384/384/384 383/383/383
f 384/384/384 385/385/385 386/386/386
f 387/387/387 386/386/386 385/385/385
f 386/386/386 387/387/387 388/388/388
f 389/389/389 388/388/388 387/387/387
f 388/388/388 389/389/389 390/390/390
f 391/391/391 390/390/390 389/389/389
f 390/390/390 391/391/391 392/392/392
f 393/393/393 392/392/392 391/391/391
f 392/392/392 393/393/393 394/394/394
f 395/395/395 394/394/394 393/393/393
f 394/394/394 395/395/395 396/396/396
f 397/397/397 396/396/396 395/395/395
f 396/396/396 397/397/397 398/398/398
f 399/399/399 398/398/398 397/397/397
f 398/398/398 399/399/399 400/400/400
f 401/401/401 400/400/400 399/399/399
f 400/400/400 401/401/401 402/402/402
f 403/403/403 402/402/402 401/401/401
f 402/402/402 403/403/403 404/404/404
f 405/405/405 404/404/404 403/403/403
f 404/404/404 405/405/405 406/406/406
f 407/407/407 406/406/406 405/405/405
f 406/406/406 407/407/407 408/408/408
f 409/409/409 408/408/408 407/407/407
f 408/408/408 409/409/409 410/410/410
f 411/411/411 410/410/410 409/409/409
f 410/410/410 411/411/411 412/412/412
f 413/413/413 412/412/412 411/411/411
f 412/412/412 413/413/413 414/414/414
f 415/415/415 414/414/414 413/413/413
f 414/414/414 415/415/415 416/416/416
f 417/417/417 416/416/416 415/415/415
f 416/416/416 417/417/417 418/418/418
f 419/419/419 418/418/418 417/417/417
f 418/418/418 419/419/419 420/420/420
f 421/421/421 420/420/420 419/419/419
f 420/420/420 421/421/421 422/422/422
f 423/423/423 422/422/422 421/421/421
f 422/422/422 423/423/423 424/424/424
f 425/425/425 424/424/424 423/423/423
f 424/424/424 425/425/425 426/426/426
f 427/427/427 426/426/426 425/425/425
f 426/426/426 427/427/427 428/428/428
f 429/429/429 428/428/428 427/427/427
f 428/428/428 429/429/429 430/430/430
f 431/431/431 430/430/430 429/429/429
f 430/430/430 431/431/431 432/432/432
f 433/433/433 432/432/432 431/431/431
f 432/432/432 433/433/433 434/434/434
f 435/435/435 434/434/434 433/433/433
f 434/434/434 435/435/435 436/436/436
f 437/437/437 436/436/436 435/435/435
f 436/436/436 437/437/437 438/438/438
f 439/439/439 438/438/438 437/437/437
f 438/438/438 439/439/439 440/440/440
f 441/441/441 440/440/440 439/439/439
f 440/440/440 441/441/441 442/442/442
f 443/443/443 442/442/442 441/441/441
f 442/442/442 443/443/443 444/444/444
f 445/445/445 444/444/444 443/443/443
f 444/444/444 445/445/445 446/446/446
f 447/447/447 446/446/446 445/445/445
f 446/446/446 447/447/447 448/448/448
f 449/449/449 448/448/448 447/447/447
f 448/448/448 449/449/449 450/450/450
f 451/451/451 450/450/450 449/449/449
f 450/450/450 451/451/451 452/452/452
f 453/453/453 452/452/452 451/451/451
f 452/452/452 453/453/453 454/454/454
f 455/455/455 454/454/454 453/453/453
f 454/454/454 455/455/455 456/456/456
f 457/457/457 456/456/456 455/455/455
f 456/456/456 457/457/457 458/458/458
f 459/459/459 458/458/458 457/457/457
f 458/458/458 459/459/459 460/460/460
f 461/461/461 460/460/460 459/459/459
f 460/460/460 461/461/461 462/462/462
f 463/463/463 462/462/462 461/461/461
f 462/462/462 463/463/463 464/464/464
f 465/465/465 464/464/464 463/463/463
f 464/464/464 465/465/465 466/466/466
f 467/467/467 466/466/466 465/465/465
f 466/466/466 467/467/467 468/468/468
f 469/469/469 468/468/468 467/467/467
f 468/468/468 469/469/469 470/470/470
f 471/471/471 470/470/470 469/469/469
f 470/470/470 471/471/471 472/472/472
f 473/473/473 472/472/472 471/471/471
f 472/472/472 473/473/473 474/474/474
f 475/475/475 474/474/474 473/473/473
f 474/474/474 475/475/475 476/476/476
f 477/477/477 476/476/476 475/475/475
f 476/476/476 477/477/477 478/478/478
f 479/479/479 478/478/478 477/477/477
f 478/478/478 479/479/479 480/480/480
f 481/481/481 480/480/480 479/479/479
f 480/480/480 481/481/481 482/482/482
f 483/483/483 482/482/482 481/481/481
f 482/482/482 483/483/483 484/484/484
f 485/485/485 484/484/484 483/483/483
f 484/484/484 485/485/485 486/486/486
f 487/487/487 486/486/486 485/485/485
f 486/486/486 487/487/487 488/488/488
f 489/489/489 488/488/488 487/487/487
f 488/488/488 489/489/489 490/490/490
f 491/491/491 490/490/490 489/489/489
f 490/490/490 491/491/491 492/492/492
f 493/493/493 492/492/492 491/491/491
f 492/492/492 493/493/493 494/494/494
f 495/495/495 494/494/494 493/493/493
f 494/494/494 495/495/495 496/496/496
f 497/497/497 496/496/496 495/495/495
f 496/496/496 497/497/497 498/498/498
f 499/499/499 498/498/498 497/497/497
f 498/498/498 499/499/499 500/500/500
f 501/501/501 500/500/500 499/499/499
f 500/500/500 501/501/501 502/502/502
f 503/503/503 502/502/502 501/501/501
f 502/502/502 503/503/503 504/504/504
f 505/505/505 504/504/504 503/503/503
f 504/504/504 505/505/505 506/506/506
f 507/507/507 506/506/506 505/505/505
f 506/506/506 507/507/507 508/508/508
f 509/509/509 508/508/508 507/507/507
f 508/508/508 509/509/509 510/510/510
f 511/511/511 510/510/510 509/509/509
f 510/510/510 511/511/511 512/512/512
f 513/513/513 512/512/512 511/511/511
f 512/512/512 513/513/513 514/514/514
f 515/515/515 514/514/514 513/513/513
f 514/514/514 515/515/515 516/516/516
f 517/517/517 516/516/516 515/515/515
f 516/516/516 517/517/517 518/518/518
f 519/519/519 518/518/518 517/517/517
f 518/518/518 519/519/519 520/520/520
f 521/521/521 520/520/520 519/519/519
f 520/520/520 521/521/521 522/522/522
f 523/523/523 522/522/522 521/521/521
f 522/522/522 523/523/523 524/524/524
f 525/525/525 524/524/524 523/523/523
f 524/524/524 525/525/525 526/526/526
f 527/527/527 526/526/526 525/525/525
f 526/526/526 527/527/527 528/528/528
f 529/529/529 528/528/528 527/527/527
f 528/528/528 529/529/529 530/530/530
f 531/531/531 530/530/530 529/529/529
f 530/530/530 531/531/531 532/532/532
f 533/533/533 532/532/532 531/531/531
f 532/532/532 533/533/533 534/534/534
f 535/535/535 534/534/534 533/533/533
f 534/534/534 535/535/535 536/536/536
f 537/537/537 536/536/536 535/535/535
f 536/536/536 537/537/537 538/538/538
f 539/539/539 538/538/538 537/537/537
f 538/538/538 539/539/539 540/540/540
f 541/541/541 540/540/540 539/539/539
f 540/540/540 541/541/541 542/542/542
f 543/543/543 542/542/542 541/541/541
f 542/542/542 543/543/543 544/544/544
f 545/545/545 544/544/544 543/543/543
f 544/544/544 545/545/545 546/546/546
f 547/547/547 546/546/546 545/545/545
f 546/546/546 547/547/547 548/548/548
f 549/549/549 548/548/548 547/547/547
f 548/548/548 549/549/549 550/550/550
f 551/551/551 550/550/550 549/549/549
f 550/550/550 551/551/551 552/552/552
f 553/553/553 552/552/552 551/551/551
f 552/552/552 553/553/553 554/554/554
f 555/555/555 554/554/554 553/553/553
f 554/554/554 555/555/555 556/556/556
f 557/557/557 556/556/556 555/555/555
f 556/556/556 557/557/557 558/558/558
f 559/559/559 558/558/558 557/557/557
f 558/558/558 559/559/559 560/560/560
f 561/561/561 560/560/560 559/559/559
f 560/560/560 561/561/561 562/562/562
f 563/563/563 562/562/562 561/561/561
f 562/562/562 563/563/563 564/564/564
f 565/565/565 564/564/564 563/563/563
f 564/564/564 565/565/565 566/566/566
f 567/567/567 566/566/566 565/565/565
f 566/566/566 567/567/567 568/568/568
f 569/569/569 568/568/568 567/567/567
f 568/568/568 569/569/569 570/570/570
f 571/571/571 570/570/570 569/569/569
f 570/570/570 571/571/571 572/572/572
f 573/573/573 572/572/572 571/571/571
f 572/572/572 573/573/573 574/574/574
f 575/575/575 574/574/574 573/573/573
f 574/574/574 575/575/575 576/576/576
f 577/577/577 576/576/576 575/575/575
f 576/576/576 577/577/577 578/578/578
f 579/579/579 578/578/578 577/577/577
f 578/578/578 579/579/579 580/580/580
f 581/581/581 580/580/580 579/579/579
f 580/580/580 581/581/581 582/582/582
f 583/583/583 582/582/582 581/581/581
f 582/582/582 583/583/583 584/584/584
