g 
v 19.457047 18.5 -82.292206
v 24.016062 18.5 -108.05693
v 24.457726 18.5 -71.14772
v 32.537357 18.5 -116.80873
v 39.817444 18.5 -62.818665
v 49.82256 18.5 -119.36133
v 48.677094 18.513725 -63.539093
v 57.897038 18.513725 -115.64444
v 58.59591 18.531591 -64.76216
v 66.793915 18.531591 -111.091965
v 68.813835 18.559914 -67.67563
v 75.391655 18.559914 -104.849075
v 78.84485 18.5817 -69.53259
v 84.17633 18.5817 -99.66269
v 88.68891 18.59695 -70.33306
v 93.147964 18.59695 -95.532814
v 90.65772 18.6 -70.49316
v 94.94228 18.6 -94.70684
v 98.0599 18.6 -71.58627
v 101.51989 18.6 -91.14003
v 101.709045 18.6 -75.33412
v 103.66136 18.6 -86.36755
v 19.457047 18.5 -82.292206
v 19.457047 -11.5 -82.292206
v 24.457726 18.5 -71.14772
v 24.457726 -11.5 -71.14772
v 24.457726 18.5 -71.14772
v 24.457726 -11.5 -71.14772
v 39.817444 18.5 -62.818665
v 39.817444 -11.5 -62.818665
v 39.817444 18.5 -62.818665
v 39.817444 -11.5 -62.818665
v 48.677094 18.513725 -63.539093
v 48.677094 -11.486275 -63.539093
v 48.677094 18.513725 -63.539093
v 48.677094 -11.486275 -63.539093
v 58.59591 18.531591 -64.76216
v 58.59591 -11.468409 -64.76216
v 58.59591 18.531591 -64.76216
v 58.59591 -11.468409 -64.76216
v 68.813835 18.559914 -67.67563
v 68.813835 -11.440086 -67.67563
v 68.813835 18.559914 -67.67563
v 68.813835 -11.440086 -67.67563
v 78.84485 18.5817 -69.53259
v 78.84485 -11.418301 -69.53259
v 78.84485 18.5817 -69.53259
v 78.84485 -11.418301 -69.53259
v 88.68891 18.59695 -70.33306
v 88.68891 -11.403049 -70.33306
v 88.68891 18.59695 -70.33306
v 88.68891 -11.403049 -70.33306
v 90.65772 18.6 -70.49316
v 90.65772 -11.4 -70.49316
v 90.65772 18.6 -70.49316
v 90.65772 -11.4 -70.49316
v 98.0599 18.6 -71.58627
v 98.0599 -11.4 -71.58627
v 98.0599 18.6 -71.58627
v 98.0599 -11.4 -71.58627
v 101.709045 18.6 -75.33412
v 101.709045 -11.4 -75.33412
v 24.016062 18.5 -108.05693
v 24.016062 -11.5 -108.05693
v 32.537357 18.5 -116.80873
v 32.537357 -11.5 -116.80873
v 32.537357 18.5 -116.80873
v 32.537357 -11.5 -116.80873
v 49.82256 18.5 -119.36133
v 49.82256 -11.5 -119.36133
v 49.82256 18.5 -119.36133
v 49.82256 -11.5 -119.36133
v 57.897038 18.513725 -115.64444
v 57.897038 -11.486275 -115.64444
v 57.897038 18.513725 -115.64444
v 57.897038 -11.486275 -115.64444
v 66.793915 18.531591 -111.091965
v 66.793915 -11.468409 -111.091965
v 66.793915 18.531591 -111.091965
v 66.793915 -11.468409 -111.091965
v 75.391655 18.559914 -104.849075
v 75.391655 -11.440086 -104.849075
v 75.391655 18.559914 -104.849075
v 75.391655 -11.440086 -104.849075
v 84.17633 18.5817 -99.66269
v 84.17633 -11.418301 -99.66269
v 84.17633 18.5817 -99.66269
v 84.17633 -11.418301 -99.66269
v 93.147964 18.59695 -95.532814
v 93.147964 -11.403049 -95.532814
v 93.147964 18.59695 -95.532814
v 93.147964 -11.403049 -95.532814
v 94.94228 18.6 -94.70684
v 94.94228 -11.4 -94.70684
v 94.94228 18.6 -94.70684
v 94.94228 -11.4 -94.70684
v 101.51989 18.6 -91.14003
v 101.51989 -11.4 -91.14003
v 101.51989 18.6 -91.14003
v 101.51989 -11.4 -91.14003
v 103.66136 18.6 -86.36755
v 103.66136 -11.4 -86.36755
vt -0.021301737 -0.09441419
vt -0.00066943205 -0.078323394
vt -0.025045754 -0.10604126
vt 0.0115194395 -0.07752467
vt -0.019208916 -0.12251018
vt 0.026070269 -0.0871977
vt -0.012144301 -0.12790497
vt 0.029581495 -0.09536371
vt -0.003956332 -0.13363522
vt 0.03314445 -0.10470098
vt 0.005585301 -0.13830979
vt 0.035353716 -0.11509397
vt 0.014280915 -0.1436442
vt 0.038409013 -0.124827124
vt 0.022130487 -0.14963841
vt 0.04231037 -0.13390046
vt 0.023700401 -0.15083726
vt 0.043090638 -0.13571513
vt 0.029931614 -0.1549796
vt 0.045590192 -0.14276774
vt 0.03515135 -0.15463758
vt 0.043986868 -0.14774686
vt -0.021301737 -0.09441419
vt -0.021301737 -0.09441419
vt -0.025045754 -0.10604126
vt -0.025045754 -0.10604126
vt -0.025045754 -0.10604126
vt -0.025045754 -0.10604126
vt -0.019208916 -0.12251018
vt -0.019208916 -0.12251018
vt -0.019208916 -0.12251018
vt -0.019208916 -0.12251018
vt -0.012144301 -0.12790497
vt -0.012144301 -0.12790497
vt -0.012144301 -0.12790497
vt -0.012144301 -0.12790497
vt -0.003956332 -0.13363522
vt -0.003956332 -0.13363522
vt -0.003956332 -0.13363522
vt -0.003956332 -0.13363522
vt 0.005585301 -0.13830979
vt 0.005585301 -0.13830979
vt 0.005585301 -0.13830979
vt 0.005585301 -0.13830979
vt 0.014280915 -0.1436442
vt 0.014280915 -0.1436442
vt 0.014280915 -0.1436442
vt 0.014280915 -0.1436442
vt 0.022130487 -0.14963841
vt 0.022130487 -0.14963841
vt 0.022130487 -0.14963841
vt 0.022130487 -0.14963841
vt 0.023700401 -0.15083726
vt 0.023700401 -0.15083726
vt 0.023700401 -0.15083726
vt 0.023700401 -0.15083726
vt 0.029931614 -0.1549796
vt 0.029931614 -0.1549796
vt 0.029931614 -0.1549796
vt 0.029931614 -0.1549796
vt 0.03515135 -0.15463758
vt 0.03515135 -0.15463758
vt -0.00066943205 -0.078323394
vt -0.00066943205 -0.078323394
vt 0.0115194395 -0.07752467
vt 0.0115194395 -0.07752467
vt 0.0115194395 -0.07752467
vt 0.0115194395 -0.07752467
vt 0.026070269 -0.0871977
vt 0.026070269 -0.0871977
vt 0.026070269 -0.0871977
vt 0.026070269 -0.0871977
vt 0.029581495 -0.09536371
vt 0.029581495 -0.09536371
vt 0.029581495 -0.09536371
vt 0.029581495 -0.09536371
vt 0.03314445 -0.10470098
vt 0.03314445 -0.10470098
vt 0.03314445 -0.10470098
vt 0.03314445 -0.10470098
vt 0.035353716 -0.11509397
vt 0.035353716 -0.11509397
vt 0.035353716 -0.11509397
vt 0.035353716 -0.11509397
vt 0.038409013 -0.124827124
vt 0.038409013 -0.124827124
vt 0.038409013 -0.124827124
vt 0.038409013 -0.124827124
vt 0.04231037 -0.13390046
vt 0.04231037 -0.13390046
vt 0.04231037 -0.13390046
vt 0.04231037 -0.13390046
vt 0.043090638 -0.13571513
vt 0.043090638 -0.13571513
vt 0.043090638 -0.13571513
vt 0.043090638 -0.13571513
vt 0.045590192 -0.14276774
vt 0.045590192 -0.14276774
vt 0.045590192 -0.14276774
vt 0.045590192 -0.14276774
vt 0.043986868 -0.14774686
vt 0.043986868 -0.14774686
vn -0 1 0
vn -0 1 0
vn -0 1 0
vn -0 1 0
vn -0 1 0
vn -0 1 0
vn -0 1 0
vn -0 1 0
vn -0 1 0
vn -0 1 0
vn -0 1 0
vn -0 1 0
vn -0 1 0
vn -0 1 0
vn -0 1 0
vn -0 1 0
vn -0 1 0
vn -0 1 0
vn -0 1 0
vn -0 1 0
vn -0 1 0
vn -0 1 0
vn -0.984703 0 -0.17424117
vn -0.984703 0 -0.17424117
vn -0.91236025 0 0.40938818
vn -0.91236025 0 0.40938818
vn -0.47669053 -0 0.8790712
vn -0.47669053 0 0.8790712
vn -0.47669053 0 0.8790712
vn -0.47669053 0 0.8790712
vn 0.08104817 0 0.9967102
vn 0.08104817 0 0.9967102
vn 0.08104817 0 0.9967102
vn 0.08104817 0 0.9967102
vn 0.122381024 0 0.99248326
vn 0.122381024 0 0.99248326
vn 0.122381024 0 0.99248326
vn 0.122381024 0 0.99248326
vn 0.27420422 0 0.96167153
vn 0.27420422 0 0.96167153
vn 0.27420422 0 0.96167153
vn 0.27420422 0 0.96167153
vn 0.18202946 0 0.9832931
vn 0.18202946 0 0.9832931
vn 0.18202946 0 0.9832931
vn 0.18202946 0 0.9832931
vn 0.08104734 0 0.9967103
vn 0.08104734 0 0.9967103
vn 0.08104734 0 0.9967103
vn 0.08104734 0 0.9967103
vn 0.08104817 0 0.9967102
vn 0.08104817 0 0.9967102
vn 0.08104817 0 0.9967102
vn 0.08104817 0 0.9967102
vn 0.14609069 0 0.9892712
vn 0.14609069 0 0.9892712
vn 0.14609069 0 0.9892712
vn 0.14609069 0 0.9892712
vn 0.7164783 0 0.6976095
vn 0.7164783 0 0.6976095
vn 0.98470336 0 0.17423885
vn 0.98470336 0 0.17423885
vn -0.984703 0 -0.17424117
vn -0.984703 0 -0.17424117
vn -0.7164792 0 -0.69760853
vn -0.7164792 0 -0.69760853
vn -0.14609091 0 -0.98927116
vn -0.14609091 0 -0.98927116
vn -0.14609091 0 -0.98927116
vn -0.14609091 0 -0.98927116
vn 0.41814968 0 -0.9083782
vn 0.41814968 -0 -0.9083782
vn 0.41814968 -0 -0.9083782
vn 0.41814968 -0 -0.9083782
vn 0.45552215 0 -0.89022446
vn 0.45552215 -0 -0.89022446
vn 0.45552215 -0 -0.89022446
vn 0.45552215 -0 -0.89022446
vn 0.5875552 0 -0.8091841
vn 0.5875552 -0 -0.8091841
vn 0.5875552 -0 -0.8091841
vn 0.5875552 -0 -0.8091841
vn 0.50839806 0 -0.8611222
vn 0.50839806 -0 -0.8611222
vn 0.50839806 -0 -0.8611222
vn 0.50839806 -0 -0.8611222
vn 0.41814992 0 -0.908378
vn 0.41814992 -0 -0.908378
vn 0.41814992 -0 -0.908378
vn 0.41814992 -0 -0.908378
vn 0.41815075 0 -0.90837765
vn 0.41815075 -0 -0.90837765
vn 0.41815075 -0 -0.90837765
vn 0.41815075 -0 -0.90837765
vn 0.47669026 0 -0.8790713
vn 0.47669026 -0 -0.8790713
vn 0.47669026 -0 -0.8790713
vn 0.47669026 -0 -0.8790713
vn 0.91236037 0 -0.40938792
vn 0.91236037 -0 -0.40938792
vn 0.98470336 0 0.17423885
vn 0.98470336 0 0.17423885
g _0
f 3/3/3 2/2/2 1/1/1
f 2/2/2 3/3/3 4/4/4
f 5/5/5 4/4/4 3/3/3
f 4/4/4 5/5/5 6/6/6
f 7/7/7 6/6/6 5/5/5
f 6/6/6 7/7/7 8/8/8
f 9/9/9 8/8/8 7/7/7
f 8/8/8 9/9/9 10/10/10
f 11/11/11 10/10/10 9/9/9
f 10/10/10 11/11/11 12/12/12
f 13/13/13 12/12/12 11/11/11
f 12/12/12 13/13/13 14/14/14
f 15/15/15 14/14/14 13/13/13
f 14/14/14 15/15/15 16/16/16
f 17/17/17 16/16/16 15/15/15
f 16/16/16 17/17/17 18/18/18
f 19/19/19 18/18/18 17/17/17
f 18/18/18 19/19/19 20/20/20
f 21/21/21 20/20/20 19/19/19
f 20/20/20 21/21/21 22/22/22
g _1
f 23/23/23 24/24/24 25/25/25
f 26/26/26 25/25/25 24/24/24
f 27/27/27 28/28/28 29/29/29
f 30/30/30 29/29/29 28/28/28
f 31/31/31 32/32/32 33/33/33
f 34/34/34 33/33/33 32/32/32
f 35/35/35 36/36/36 37/37/37
f 38/38/38 37/37/37 36/36/36
f 39/39/39 40/40/40 41/41/41
f 42/42/42 41/41/41 40/40/40
f 43/43/43 44/44/44 45/45/45
f 46/46/46 45/45/45 44/44/44
f 47/47/47 48/48/48 49/49/49
f 50/50/50 49/49/49 48/48/48
f 51/51/51 52/52/52 53/53/53
f 54/54/54 53/53/53 52/52/52
f 55/55/55 56/56/56 57/57/57
f 58/58/58 57/57/57 56/56/56
f 59/59/59 60/60/60 61/61/61
f 62/62/62 61/61/61 60/60/60
f 65/65/65 64/64/64 63/63/63
f 64/64/64 65/65/65 66/66/66
f 69/69/69 68/68/68 67/67/67
f 68/68/68 69/69/69 70/70/70
f 73/73/73 72/72/72 71/71/71
f 72/72/72 73/73/73 74/74/74
f 77/77/77 76/76/76 75/75/75
f 76/76/76 77/77/77 78/78/78
f 81/81/81 80/80/80 79/79/79
f 80/80/80 81/81/81 82/82/82
f 85/85/85 84/84/84 83/83/83
f 84/84/84 85/85/85 86/86/86
f 89/89/89 88/88/88 87/87/87
f 88/88/88 89/89/89 90/90/90
f 93/93/93 92/92/92 91/91/91
f 92/92/92 93/93/93 94/94/94
f 97/97/97 96/96/96 95/95/95
f 96/96/96 97/97/97 98/98/98
f 101/101/101 100/100/100 99/99/99
f 100/100/100 101/101/101 102/102/102
f 63/63/63 24/24/24 23/23/23
f 24/24/24 63/63/63 64/64/64
f 61/61/61 62/62/62 101/101/101
f 102/102/102 101/101/101 62/62/62
