g 
v 3.2771478 0 -51.92912
v 0.04181385 0 -52.3719
v 4.6292925 0 -52.482384
v -1.1119566 0 -53.26812
v 5.897517 0 -53.271015
v -2.1216547 0 -54.368504
v 6.8105364 0 -55.46901
v -2.4105365 0 -56.730988
v 6.7677507 0 -56.21958
v -2.164841 0 -57.463043
v 7.184743 0 -57.045235
v -2.3491383 0 -58.283997
v 7.3489523 0 -57.977863
v -2.317648 0 -59.001823
v 7.357149 0 -58.898296
v -2.1714346 0 -59.73611
v 7.5079403 0 -59.639145
v -2.217913 0 -60.28302
v 7.436216 0 -60.422295
v -2.0825524 0 -60.749012
v 7.336504 0 -61.134014
v -1.9606378 0 -61.289043
v 7.447008 0 -61.75425
v -2.0515954 0 -61.92073
v 7.328377 0 -61.730183
v -1.9283769 0 -62.06982
v 6.9183607 0 -64.0565
v -1.3489845 0 -64.35983
v 5.854701 0 -65.052895
v -0.21516657 0 -65.2756
v 4.449873 0 -65.83904
v 1.2434958 0 -65.95669
vt -0.20183453 -0.014618479
vt -0.20499216 -0.015450813
vt -0.20079811 -0.013588801
vt -0.20640148 -0.015065814
vt -0.19992949 -0.012373963
vt -0.20775609 -0.014437003
vt -0.1999296 -0.009993882
vt -0.20892923 -0.012366127
vt -0.20025706 -0.009317159
vt -0.20898318 -0.011595828
vt -0.20018874 -0.008394707
vt -0.20946833 -0.010908401
vt -0.2003949 -0.0074704452
vt -0.20971464 -0.010233422
vt -0.20074046 -0.0066172997
vt -0.20986132 -0.009499228
vt -0.20088543 -0.005875291
vt -0.21011408 -0.009012
vt -0.20125212 -0.0051795854
vt -0.21016784 -0.008529735
vt -0.20161724 -0.0045605814
vt -0.21026245 -0.007984255
vt -0.20175315 -0.003945412
vt -0.21058878 -0.007435801
vt -0.20185348 -0.0040131505
vt -0.21053219 -0.007250847
vt -0.2031246 -0.0020221442
vt -0.21087569 -0.0049137846
vt -0.20448913 -0.0015100696
vt -0.21017997 -0.003633108
vt -0.20608807 -0.0013230393
vt -0.20909423 -0.00244452
vn -0 1 0
vn 0 1 0
vn -0 1 0
vn 0 1 0
vn -0 1 0
vn 0 1 0
vn -0 1 0
vn -0 1 0
vn -0 1 0
vn -0 1 0
vn -0 1 0
vn -0 1 0
vn -0 1 0
vn -0 1 0
vn -0 1 0
vn -0 1 0
vn -0 1 0
vn 0 1 0
vn -0 1 0
vn 0 1 0
vn -0 1 0
vn 0 1 0
vn 0 1 0
vn -0 1 0
vn -0 1 0
vn 0 1 0
vn -0 1 0
vn 0 1 0
vn -0 1 0
vn 0 1 0
vn 0 1 0
vn 0 1 0
g _0
f 3/3/3 2/2/2 1/1/1
f 2/2/2 3/3/3 4/4/4
f 5/5/5 4/4/4 3/3/3
f 4/4/4 5/5/5 6/6/6
f 7/7/7 6/6/6 5/5/5
f 6/6/6 7/7/7 8/8/8
f 9/9/9 8/8/8 7/7/7
f 8/8/8 9/9/9 10/10/10
f 11/11/11 10/10/10 9/9/9
f 10/10/10 11/11/11 12/12/12
f 13/13/13 12/12/12 11/11/11
f 12/12/12 13/13/13 14/14/14
f 15/15/15 14/14/14 13/13/13
f 14/14/14 15/15/15 16/16/16
f 17/17/17 16/16/16 15/15/15
f 16/16/16 17/17/17 18/18/18
f 19/19/19 18/18/18 17/17/17
f 18/18/18 19/19/19 20/20/20
f 21/21/21 20/20/20 19/19/19
f 20/20/20 21/21/21 22/22/22
f 23/23/23 22/22/22 21/21/21
f 22/22/22 23/23/23 24/24/24
f 24/24/24 25/25/25 26/26/26
f 27/27/27 26/26/26 25/25/25
f 26/26/26 27/27/27 28/28/28
f 29/29/29 28/28/28 27/27/27
f 28/28/28 29/29/29 30/30/30
f 31/31/31 30/30/30 29/29/29
f 30/30/30 31/31/31 32/32/32
