g 
v 110.43624 10.5 -52.607674
v 111.887886 10.5 -44.508865
v 108.115776 10.5 -54.655003
v 110.422966 10.5 -41.78304
v 103.23088 10.5 -55.596317
v 106.16911 10.5 -39.203686
v 94.90215 10.5 -54.770554
v 97.048546 10.5 -36.901817
v 86.160576 10.5 -52.738377
v 86.33839 10.5 -37.629063
v 77.89466 10.5 -53.541676
v 76.26899 10.5 -37.68601
v 69.97261 10.5 -55.89025
v 66.35689 10.5 -38.185616
v 61.436485 10.5 -57.511536
v 57.27816 10.5 -40.955704
v 52.516544 10.5 -58.82016
v 48.335686 10.5 -44.166527
v 43.68119 10.5 -60.84474
v 39.518806 10.5 -47.755257
v 39.178207 10.5 -62.002834
v 35.17398 10.5 -49.410717
v 36.342873 10.5 -59.43173
v 34.344437 10.5 -53.147236
v 110.43624 10.5 -52.607674
v 110.43624 1.8800001 -52.607674
v 108.115776 10.5 -54.655003
v 108.115776 1.8800001 -54.655003
v 108.115776 10.5 -54.655003
v 108.115776 1.8800001 -54.655003
v 103.23088 10.5 -55.596317
v 103.23088 1.8800001 -55.596317
v 103.23088 10.5 -55.596317
v 103.23088 1.8800001 -55.596317
v 94.90215 10.5 -54.770554
v 94.90215 1.8800001 -54.770554
v 94.90215 10.5 -54.770554
v 94.90215 1.8800001 -54.770554
v 86.160576 10.5 -52.738377
v 86.160576 1.8800001 -52.738377
v 86.160576 10.5 -52.738377
v 86.160576 1.8800001 -52.738377
v 77.89466 10.5 -53.541676
v 77.89466 1.8800001 -53.541676
v 77.89466 10.5 -53.541676
v 77.89466 1.8800001 -53.541676
v 69.97261 10.5 -55.89025
v 69.97261 1.8800001 -55.89025
v 69.97261 10.5 -55.89025
v 69.97261 1.8800001 -55.89025
v 61.436485 10.5 -57.511536
v 61.436485 1.8800001 -57.511536
v 61.436485 10.5 -57.511536
v 61.436485 1.8800001 -57.511536
v 52.516544 10.5 -58.82016
v 52.516544 1.8800001 -58.82016
v 52.516544 10.5 -58.82016
v 52.516544 1.8800001 -58.82016
v 43.68119 10.5 -60.84474
v 43.68119 1.8800001 -60.84474
v 43.68119 10.5 -60.84474
v 43.68119 1.8800001 -60.84474
v 39.178207 10.5 -62.002834
v 39.178207 1.8800001 -62.002834
v 39.178207 10.5 -62.002834
v 39.178207 1.8800001 -62.002834
v 36.342873 10.5 -59.43173
v 36.342873 1.8800001 -59.43173
v 111.887886 10.5 -44.508865
v 111.887886 1.8800001 -44.508865
v 110.422966 10.5 -41.78304
v 110.422966 1.8800001 -41.78304
v 110.422966 10.5 -41.78304
v 110.422966 1.8800001 -41.78304
v 106.16911 10.5 -39.203686
v 106.16911 1.8800001 -39.203686
v 106.16911 10.5 -39.203686
v 106.16911 1.8800001 -39.203686
v 97.048546 10.5 -36.901817
v 97.048546 1.8800001 -36.901817
v 97.048546 10.5 -36.901817
v 97.048546 1.8800001 -36.901817
v 86.33839 10.5 -37.629063
v 86.33839 1.8800001 -37.629063
v 86.33839 10.5 -37.629063
v 86.33839 1.8800001 -37.629063
v 76.26899 10.5 -37.68601
v 76.26899 1.8800001 -37.68601
v 76.26899 10.5 -37.68601
v 76.26899 1.8800001 -37.68601
v 66.35689 10.5 -38.185616
v 66.35689 1.8800001 -38.185616
v 66.35689 10.5 -38.185616
v 66.35689 1.8800001 -38.185616
v 57.27816 10.5 -40.955704
v 57.27816 1.8800001 -40.955704
v 57.27816 10.5 -40.955704
v 57.27816 1.8800001 -40.955704
v 48.335686 10.5 -44.166527
v 48.335686 1.8800001 -44.166527
v 48.335686 10.5 -44.166527
v 48.335686 1.8800001 -44.166527
v 39.518806 10.5 -47.755257
v 39.518806 1.8800001 -47.755257
v 39.518806 10.5 -47.755257
v 39.518806 1.8800001 -47.755257
v 35.17398 10.5 -49.410717
v 35.17398 1.8800001 -49.410717
v 35.17398 10.5 -49.410717
v 35.17398 1.8800001 -49.410717
v 34.344437 10.5 -53.147236
v 34.344437 1.8800001 -53.147236
vt -0.064691536 -0.09135198
vt -0.06865353 -0.08414084
vt -0.06183877 -0.09255107
vt -0.068135805 -0.081089914
vt -0.056909055 -0.0918831
vt -0.06492842 -0.07728716
vt -0.04928015 -0.0884408
vt -0.05702053 -0.072193176
vt -0.041645285 -0.08372341
vt -0.04663894 -0.069462046
vt -0.03355566 -0.081844926
vt -0.037078623 -0.066300355
vt -0.025298418 -0.08154062
vt -0.027525999 -0.06360837
vt -0.016691513 -0.080350995
vt -0.018038033 -0.06333412
vt -0.007820739 -0.07874252
vt -0.008538438 -0.063521035
vt 0.0011985184 -0.077839516
vt 0.00096282235 -0.06410618
vt 0.005835548 -0.07749894
vt 0.0056088106 -0.06428743
vt 0.007701334 -0.074157
vt 0.007588174 -0.067563385
vt -0.064691536 -0.09135198
vt -0.064691536 -0.09135198
vt -0.06183877 -0.09255107
vt -0.06183877 -0.09255107
vt -0.06183877 -0.09255107
vt -0.06183877 -0.09255107
vt -0.056909055 -0.0918831
vt -0.056909055 -0.0918831
vt -0.056909055 -0.0918831
vt -0.056909055 -0.0918831
vt -0.04928015 -0.0884408
vt -0.04928015 -0.0884408
vt -0.04928015 -0.0884408
vt -0.04928015 -0.0884408
vt -0.041645285 -0.08372341
vt -0.041645285 -0.08372341
vt -0.041645285 -0.08372341
vt -0.041645285 -0.08372341
vt -0.03355566 -0.081844926
vt -0.03355566 -0.081844926
vt -0.03355566 -0.081844926
vt -0.03355566 -0.081844926
vt -0.025298418 -0.08154062
vt -0.025298418 -0.08154062
vt -0.025298418 -0.08154062
vt -0.025298418 -0.08154062
vt -0.016691513 -0.080350995
vt -0.016691513 -0.080350995
vt -0.016691513 -0.080350995
vt -0.016691513 -0.080350995
vt -0.007820739 -0.07874252
vt -0.007820739 -0.07874252
vt -0.007820739 -0.07874252
vt -0.007820739 -0.07874252
vt 0.0011985184 -0.077839516
vt 0.0011985184 -0.077839516
vt 0.0011985184 -0.077839516
vt 0.0011985184 -0.077839516
vt 0.005835548 -0.07749894
vt 0.005835548 -0.07749894
vt 0.005835548 -0.07749894
vt 0.005835548 -0.07749894
vt 0.007701334 -0.074157
vt 0.007701334 -0.074157
vt -0.06865353 -0.08414084
vt -0.06865353 -0.08414084
vt -0.068135805 -0.081089914
vt -0.068135805 -0.081089914
vt -0.068135805 -0.081089914
vt -0.068135805 -0.081089914
vt -0.06492842 -0.07728716
vt -0.06492842 -0.07728716
vt -0.06492842 -0.07728716
vt -0.06492842 -0.07728716
vt -0.05702053 -0.072193176
vt -0.05702053 -0.072193176
vt -0.05702053 -0.072193176
vt -0.05702053 -0.072193176
vt -0.04663894 -0.069462046
vt -0.04663894 -0.069462046
vt -0.04663894 -0.069462046
vt -0.04663894 -0.069462046
vt -0.037078623 -0.066300355
vt -0.037078623 -0.066300355
vt -0.037078623 -0.066300355
vt -0.037078623 -0.066300355
vt -0.027525999 -0.06360837
vt -0.027525999 -0.06360837
vt -0.027525999 -0.06360837
vt -0.027525999 -0.06360837
vt -0.018038033 -0.06333412
vt -0.018038033 -0.06333412
vt -0.018038033 -0.06333412
vt -0.018038033 -0.06333412
vt -0.008538438 -0.063521035
vt -0.008538438 -0.063521035
vt -0.008538438 -0.063521035
vt -0.008538438 -0.063521035
vt 0.00096282235 -0.06410618
vt 0.00096282235 -0.06410618
vt 0.00096282235 -0.06410618
vt 0.00096282235 -0.06410618
vt 0.0056088106 -0.06428743
vt 0.0056088106 -0.06428743
vt 0.0056088106 -0.06428743
vt 0.0056088106 -0.06428743
vt 0.007588174 -0.067563385
vt 0.007588174 -0.067563385
vn -0 1 0
vn -0 1 0
vn -0 1 0
vn -0 1 0
vn -0 1 0
vn -0 1 0
vn -0 1 0
vn -0 1 0
vn -0 1 0
vn -0 1 0
vn -0 1 0
vn -0 1 0
vn -0 1 0
vn -0 1 0
vn -0 1 0
vn -0 1 0
vn -0 1 0
vn -0 1 0
vn -0 1 0
vn -0 1 0
vn -0 1 0
vn -0 1 0
vn -0 1 0
vn -0 1 0
vn 0.98431313 0 -0.17643005
vn 0.98431313 -0 -0.17643005
vn 0.6615962 -0 -0.74986035
vn 0.6615962 -0 -0.74986035
vn 0.18921798 0 -0.98193514
vn 0.18921798 -0 -0.98193514
vn 0.18921798 -0 -0.98193514
vn 0.18921798 -0 -0.98193514
vn -0.0986627 0 -0.9951209
vn -0.0986627 0 -0.9951209
vn -0.0986627 0 -0.9951209
vn -0.0986627 0 -0.9951209
vn -0.22643442 0 -0.97402644
vn -0.22643442 0 -0.97402644
vn -0.22643442 0 -0.97402644
vn -0.22643442 0 -0.97402644
vn 0.09672642 0 -0.99531096
vn 0.09672642 -0 -0.99531096
vn 0.09672642 -0 -0.99531096
vn 0.09672642 -0 -0.99531096
vn 0.28423312 0 -0.9587552
vn 0.28423312 -0 -0.9587552
vn 0.28423312 -0 -0.9587552
vn 0.28423312 -0 -0.9587552
vn 0.1865963 0 -0.98243666
vn 0.1865963 -0 -0.98243666
vn 0.1865963 -0 -0.98243666
vn 0.1865963 -0 -0.98243666
vn 0.14515395 0 -0.9894091
vn 0.14515395 -0 -0.9894091
vn 0.14515395 -0 -0.9894091
vn 0.14515395 -0 -0.9894091
vn 0.2233566 0 -0.9747368
vn 0.2233566 -0 -0.9747368
vn 0.2233566 -0 -0.9747368
vn 0.2233566 -0 -0.9747368
vn 0.2490779 0 -0.9684835
vn 0.2490779 -0 -0.9684835
vn 0.2490779 -0 -0.9684835
vn 0.2490779 -0 -0.9684835
vn -0.6717466 0 -0.74078107
vn -0.6717466 0 -0.74078107
vn -0.9529773 0 -0.30304185
vn -0.9529773 0 -0.30304185
vn 0.98431313 -0 -0.17643005
vn 0.98431313 -0 -0.17643005
vn 0.88085294 0 0.47339007
vn 0.88085294 0 0.47339007
vn 0.51848704 0 0.8550855
vn 0.51848704 0 0.8550855
vn 0.51848704 0 0.8550855
vn 0.51848704 0 0.8550855
vn 0.24470888 0 0.96959656
vn 0.24470888 0 0.96959656
vn 0.24470888 0 0.96959656
vn 0.24470888 0 0.96959656
vn -0.06774638 -0 0.99770254
vn -0.06774638 0 0.99770254
vn -0.06774638 0 0.99770254
vn -0.06774638 0 0.99770254
vn -0.005655243 -0 0.999984
vn -0.005655243 0 0.999984
vn -0.005655243 0 0.999984
vn -0.005655243 0 0.999984
vn -0.050339844 -0 0.99873215
vn -0.050339844 0 0.99873215
vn -0.050339844 0 0.99873215
vn -0.050339844 0 0.99873215
vn -0.29183623 -0 0.9564683
vn -0.29183623 0 0.9564683
vn -0.29183623 0 0.9564683
vn -0.29183623 0 0.9564683
vn -0.33793038 -0 0.9411711
vn -0.33793038 0 0.9411711
vn -0.33793038 0 0.9411711
vn -0.33793038 0 0.9411711
vn -0.37699667 -0 0.92621464
vn -0.37699667 0 0.92621464
vn -0.37699667 0 0.92621464
vn -0.37699667 0 0.92621464
vn -0.35604954 -0 0.934467
vn -0.35604954 0 0.934467
vn -0.35604954 0 0.934467
vn -0.35604954 0 0.934467
vn -0.9762309 -0 0.21673287
vn -0.9762309 0 0.21673287
vn -0.9529773 0 -0.30304185
vn -0.9529773 0 -0.30304185
g _0
f 3/3/3 2/2/2 1/1/1
f 2/2/2 3/3/3 4/4/4
f 5/5/5 4/4/4 3/3/3
f 4/4/4 5/5/5 6/6/6
f 7/7/7 6/6/6 5/5/5
f 6/6/6 7/7/7 8/8/8
f 9/9/9 8/8/8 7/7/7
f 8/8/8 9/9/9 10/10/10
f 11/11/11 10/10/10 9/9/9
f 10/10/10 11/11/11 12/12/12
f 13/13/13 12/12/12 11/11/11
f 12/12/12 13/13/13 14/14/14
f 15/15/15 14/14/14 13/13/13
f 14/14/14 15/15/15 16/16/16
f 17/17/17 16/16/16 15/15/15
f 16/16/16 17/17/17 18/18/18
f 19/19/19 18/18/18 17/17/17
f 18/18/18 19/19/19 20/20/20
f 21/21/21 20/20/20 19/19/19
f 20/20/20 21/21/21 22/22/22
f 23/23/23 22/22/22 21/21/21
f 22/22/22 23/23/23 24/24/24
g _1
f 25/25/25 26/26/26 27/27/27
f 28/28/28 27/27/27 26/26/26
f 29/29/29 30/30/30 31/31/31
f 32/32/32 31/31/31 30/30/30
f 33/33/33 34/34/34 35/35/35
f 36/36/36 35/35/35 34/34/34
f 37/37/37 38/38/38 39/39/39
f 40/40/40 39/39/39 38/38/38
f 41/41/41 42/42/42 43/43/43
f 44/44/44 43/43/43 42/42/42
f 45/45/45 46/46/46 47/47/47
f 48/48/48 47/47/47 46/46/46
f 49/49/49 50/50/50 51/51/51
f 52/52/52 51/51/51 50/50/50
f 53/53/53 54/54/54 55/55/55
f 56/56/56 55/55/55 54/54/54
f 57/57/57 58/58/58 59/59/59
f 60/60/60 59/59/59 58/58/58
f 61/61/61 62/62/62 63/63/63
f 64/64/64 63/63/63 62/62/62
f 65/65/65 66/66/66 67/67/67
f 68/68/68 67/67/67 66/66/66
f 71/71/71 70/70/70 69/69/69
f 70/70/70 71/71/71 72/72/72
f 75/75/75 74/74/74 73/73/73
f 74/74/74 75/75/75 76/76/76
f 79/79/79 78/78/78 77/77/77
f 78/78/78 79/79/79 80/80/80
f 83/83/83 82/82/82 81/81/81
f 82/82/82 83/83/83 84/84/84
f 87/87/87 86/86/86 85/85/85
f 86/86/86 87/87/87 88/88/88
f 91/91/91 90/90/90 89/89/89
f 90/90/90 91/91/91 92/92/92
f 95/95/95 94/94/94 93/93/93
f 94/94/94 95/95/95 96/96/96
f 99/99/99 98/98/98 97/97/97
f 98/98/98 99/99/99 100/100/100
f 103/103/103 102/102/102 101/101/101
f 102/102/102 103/103/103 104/104/104
f 107/107/107 106/106/106 105/105/105
f 106/106/106 107/107/107 108/108/108
f 111/111/111 110/110/110 109/109/109
f 110/110/110 111/111/111 112/112/112
f 69/69/69 26/26/26 25/25/25
f 26/26/26 69/69/69 70/70/70
f 67/67/67 68/68/68 111/111/111
f 112/112/112 111/111/111 68/68/68
