g 
v 64.59371 108.41657 -88.40175
v 64.59371 94.41657 -88.40175
v 66.10198 108.41657 -88.76448
v 66.10198 94.41657 -88.76448
v 66.34394 108.41657 -87.7646
v 66.34394 94.41657 -87.7646
v 68.12869 108.41657 -87.56906
v 68.12869 94.41657 -87.56906
v 66.03216 108.41657 -84.09779
v 66.03216 94.41657 -84.09779
v 61.123512 108.41657 -82.65846
v 61.123512 94.41657 -82.65846
v 58.002525 108.41657 -82.54047
v 58.002525 94.41657 -82.54047
v 56.83206 108.41657 -84.13415
v 56.83206 94.41657 -84.13415
v 61.19427 108.41657 -85.35775
v 61.19427 94.41657 -85.35775
v 63.057327 108.41657 -86.08494
v 63.057327 94.41657 -86.08494
v 63.58381 108.41657 -87.66914
v 63.58381 94.41657 -87.66914
v 64.59371 108.41657 -88.40175
v 64.59371 94.41657 -88.40175
vt 0.18161789 -0.3964615
vt 0.18161789 -0.3964615
vt 0.16653518 -0.4000888
vt 0.16653518 -0.4000888
vt 0.1641156 -0.39009002
vt 0.1641156 -0.39009002
vt 0.14626808 -0.3881346
vt 0.14626808 -0.3881346
vt 0.16723342 -0.35342193
vt 0.16723342 -0.35342193
vt 0.21631987 -0.33902863
vt 0.21631987 -0.33902863
vt 0.24752975 -0.33784866
vt 0.24752975 -0.33784866
vt 0.2592344 -0.35378546
vt 0.2592344 -0.35378546
vt 0.21561229 -0.36602148
vt 0.21561229 -0.36602148
vt 0.19698173 -0.37329337
vt 0.19698173 -0.37329337
vt 0.19171691 -0.38913542
vt 0.19171691 -0.38913542
vt 0.18161789 -0.3964615
vt 0.18161789 -0.3964615
vn -0.23382828 0 -0.97227794
vn -0.23382828 0 -0.97227794
vn 0.9719471 0 -0.23519969
vn 0.9719471 -0 -0.23519969
vn 0.10891049 0 -0.9940515
vn 0.10891049 -0 -0.9940515
vn 0.85599077 0 0.5169911
vn 0.85599077 0 0.5169911
vn 0.28137666 0 0.9595974
vn 0.28137666 0 0.9595974
vn 0.03778035 0 0.9992861
vn 0.03778035 0 0.9992861
vn -0.8059794 -0 0.5919436
vn -0.8059794 0 0.5919436
vn -0.27007684 0 -0.96283877
vn -0.27007684 0 -0.96283877
vn -0.363604 0 -0.9315536
vn -0.363604 0 -0.9315536
vn -0.9489681 0 -0.3153721
vn -0.9489681 0 -0.3153721
vn -0.58719105 0 -0.8094484
vn -0.58719105 0 -0.8094484
vn -0.58719105 0 -0.8094484
vn -0.58719105 0 -0.8094484
g _0
f 3/3/3 2/2/2 1/1/1
f 2/2/2 3/3/3 4/4/4
f 5/5/5 4/4/4 3/3/3
f 4/4/4 5/5/5 6/6/6
f 7/7/7 6/6/6 5/5/5
f 6/6/6 7/7/7 8/8/8
f 9/9/9 8/8/8 7/7/7
f 8/8/8 9/9/9 10/10/10
f 11/11/11 10/10/10 9/9/9
f 10/10/10 11/11/11 12/12/12
f 13/13/13 12/12/12 11/11/11
f 12/12/12 13/13/13 14/14/14
f 15/15/15 14/14/14 13/13/13
f 14/14/14 15/15/15 16/16/16
f 17/17/17 16/16/16 15/15/15
f 16/16/16 17/17/17 18/18/18
f 19/19/19 18/18/18 17/17/17
f 18/18/18 19/19/19 20/20/20
f 21/21/21 20/20/20 19/19/19
f 20/20/20 21/21/21 22/22/22
f 23/23/23 22/22/22 21/21/21
f 22/22/22 23/23/23 24/24/24
