g 
v 57.57237 108.41657 -160.23975
v 57.57237 94.41657 -160.23975
v 58.565166 108.41657 -157.23535
v 58.565166 94.41657 -157.23535
v 54.548866 108.41657 -152.51744
v 54.548866 94.41657 -152.51744
v 51.61464 108.41657 -152.02086
v 51.61464 94.41657 -152.02086
v 48.697716 108.41657 -154.65907
v 48.697716 94.41657 -154.65907
v 54.633175 108.41657 -160.12941
v 54.633175 94.41657 -160.12941
v 57.57237 108.41657 -160.23975
v 57.57237 94.41657 -160.23975
vt 0.25183132 -1.1148415
vt 0.25183132 -1.1148415
vt 0.24190333 -1.0847975
vt 0.24190333 -1.0847975
vt 0.28206635 -1.0376184
vt 0.28206635 -1.0376184
vt 0.3114086 -1.0326526
vt 0.3114086 -1.0326526
vt 0.34057784 -1.0590347
vt 0.34057784 -1.0590347
vt 0.28122327 -1.1137381
vt 0.28122327 -1.1137381
vt 0.25183132 -1.1148415
vt 0.25183132 -1.1148415
vn 0.9495018 0 -0.3137615
vn 0.9495018 -0 -0.3137615
vn 0.7614552 0 0.64821756
vn 0.7614552 0 0.64821756
vn 0.16686502 0 0.98597974
vn 0.16686502 0 0.98597974
vn -0.6707865 -0 0.7416505
vn -0.6707865 0 0.7416505
vn -0.6777081 0 -0.73533106
vn -0.6777081 0 -0.73533106
vn -0.037513226 0 -0.9992961
vn -0.037513226 0 -0.9992961
vn -0.037513226 0 -0.9992961
vn -0.037513226 0 -0.9992961
g _0
f 3/3/3 2/2/2 1/1/1
f 2/2/2 3/3/3 4/4/4
f 5/5/5 4/4/4 3/3/3
f 4/4/4 5/5/5 6/6/6
f 7/7/7 6/6/6 5/5/5
f 6/6/6 7/7/7 8/8/8
f 9/9/9 8/8/8 7/7/7
f 8/8/8 9/9/9 10/10/10
f 11/11/11 10/10/10 9/9/9
f 10/10/10 11/11/11 12/12/12
f 13/13/13 12/12/12 11/11/11
f 12/12/12 13/13/13 14/14/14
