g 
v 94.824394 24.199999 -77.963356
v 94.824394 10.199999 -77.963356
v 86.08113 24.199999 -79.3564
v 86.08113 10.199999 -79.3564
v 81.47945 24.199999 -81.58509
v 81.47945 10.199999 -81.58509
v 80.24081 24.199999 -86.00184
v 80.24081 10.199999 -86.00184
v 77.459045 24.199999 -89.05605
v 77.459045 10.199999 -89.05605
v 74.91436 24.199999 -90.51571
v 74.91436 10.199999 -90.51571
v 73.66733 24.199999 -85.80217
v 73.66733 10.199999 -85.80217
v 71.600464 24.199999 -85.60059
v 71.600464 10.199999 -85.60059
v 69.78288 24.199999 -80.737854
v 69.78288 10.199999 -80.737854
v 70.86685 24.199999 -76.27964
v 70.86685 10.199999 -76.27964
v 66.76023 25.224571 -71.99763
v 66.76023 11.224571 -71.99763
v 60.14636 26.102524 -69.06475
v 60.14636 12.102524 -69.06475
v 62.274788 27.302118 -65.02604
v 62.274788 13.302118 -65.02604
v 61.641552 29.437279 -59.861637
v 61.641552 15.437279 -59.861637
v 56.84448 31.880215 -55.299023
v 56.84448 17.880215 -55.299023
v 60.38949 33.367367 -51.386868
v 60.38949 19.367367 -51.386868
v 63.60688 34.853195 -47.31261
v 63.60688 20.853195 -47.31261
v 67.54404 35.80873 -43.904358
v 67.54404 21.808733 -43.904358
v 68.873314 35.30658 -45.496586
v 68.873314 21.306578 -45.496586
v 68.123924 35.30658 -48.813328
v 68.123924 21.306578 -48.813328
v 65.576706 35.27665 -50.49008
v 65.576706 21.27665 -50.49008
v 68.00747 35.198147 -66.58736
v 68.00747 21.198147 -66.58736
v 71.13498 35.30658 -67.42224
v 71.13498 21.306578 -67.42224
v 71.37725 35.30658 -73.20305
v 71.37725 21.306578 -73.20305
v 72.33519 35.30658 -74.9474
v 72.33519 21.306578 -74.9474
v 76.75838 35.30658 -77.66587
v 76.75838 21.306578 -77.66587
v 86.89892 35.30658 -76.20571
v 86.89892 21.306578 -76.20571
v 89.557144 35.30658 -71.71021
v 89.557144 21.306578 -71.71021
v 90.335495 35.30658 -68.56402
v 90.335495 21.306578 -68.56402
v 91.372185 35.30658 -60.978535
v 91.372185 21.306578 -60.978535
v 89.98722 35.30658 -50.96661
v 89.98722 21.306578 -50.96661
v 92.27 35.019638 -47.76
v 92.27 21.019638 -47.76
v 92.6 35.019638 -44.08
v 92.6 21.019638 -44.08
v 94.03 35.067017 -43.83
v 94.03 21.067015 -43.83
v 96.64 35.067017 -48.15
v 96.64 21.067015 -48.15
v 96.94622 34.406826 -50.097115
v 96.94622 20.406826 -50.097115
v 95.39266 32.674835 -53.17828
v 95.39266 18.674833 -53.17828
v 97.04603 31.727386 -55.62763
v 97.04603 17.727386 -55.62763
v 95.66092 28.871075 -60.477802
v 95.66092 14.871075 -60.477802
v 95.80131 25.059486 -71.83984
v 95.80131 11.059486 -71.83984
v 95.465996 24.199999 -76.01547
v 95.465996 10.199999 -76.01547
v 94.824394 24.199999 -77.963356
v 94.824394 10.199999 -77.963356
vt -0.9692439 -0.89263356
vt -0.9692439 -0.89263356
vt -0.88181126 -0.906564
vt -0.88181126 -0.906564
vt -0.83579445 -0.9288509
vt -0.83579445 -0.9288509
vt -0.823408 -0.9730184
vt -0.823408 -0.9730184
vt -0.7955904 -1.0035605
vt -0.7955904 -1.0035605
vt -0.77014357 -1.0181571
vt -0.77014357 -1.0181571
vt -0.75767326 -0.9710217
vt -0.75767326 -0.9710217
vt -0.7370046 -0.96900594
vt -0.7370046 -0.96900594
vt -0.7188288 -0.92037857
vt -0.7188288 -0.92037857
vt -0.7296685 -0.87579644
vt -0.7296685 -0.87579644
vt -0.68860227 -0.8329763
vt -0.68860227 -0.8329763
vt -0.6224636 -0.8036475
vt -0.6224636 -0.8036475
vt -0.64374787 -0.7632604
vt -0.64374787 -0.7632604
vt -0.63741547 -0.71161634
vt -0.63741547 -0.71161634
vt -0.58944476 -0.66599023
vt -0.58944476 -0.66599023
vt -0.62489486 -0.62686867
vt -0.62489486 -0.62686867
vt -0.6570688 -0.5861261
vt -0.6570688 -0.5861261
vt -0.69644034 -0.55204356
vt -0.69644034 -0.55204356
vt -0.7097331 -0.56796587
vt -0.7097331 -0.56796587
vt -0.7022392 -0.6011332
vt -0.7022392 -0.6011332
vt -0.67676705 -0.6179008
vt -0.67676705 -0.6179008
vt -0.70107466 -0.77887356
vt -0.70107466 -0.77887356
vt -0.73234975 -0.78722245
vt -0.73234975 -0.78722245
vt -0.7347725 -0.8450305
vt -0.7347725 -0.8450305
vt -0.74435186 -0.862474
vt -0.74435186 -0.862474
vt -0.78858376 -0.8896587
vt -0.78858376 -0.8896587
vt -0.88998914 -0.8750571
vt -0.88998914 -0.8750571
vt -0.9165714 -0.83010215
vt -0.9165714 -0.83010215
vt -0.9243549 -0.7986402
vt -0.9243549 -0.7986402
vt -0.9347218 -0.7227853
vt -0.9347218 -0.7227853
vt -0.92087215 -0.62266606
vt -0.92087215 -0.62266606
vt -0.94369996 -0.59059995
vt -0.94369996 -0.59059995
vt -0.94699997 -0.5538
vt -0.94699997 -0.5538
vt -0.96129996 -0.5513
vt -0.96129996 -0.5513
vt -0.98739994 -0.5945
vt -0.98739994 -0.5945
vt -0.9904622 -0.6139711
vt -0.9904622 -0.6139711
vt -0.9749266 -0.6447828
vt -0.9749266 -0.6447828
vt -0.99146026 -0.66927624
vt -0.99146026 -0.66927624
vt -0.97760916 -0.717778
vt -0.97760916 -0.717778
vt -0.979013 -0.8313984
vt -0.979013 -0.8313984
vt -0.9756599 -0.87315476
vt -0.9756599 -0.87315476
vt -0.9692439 -0.89263356
vt -0.9692439 -0.89263356
vn 0.15734306 0 -0.987544
vn 0.15734306 -0 -0.987544
vn 0.4358889 0 -0.9000005
vn 0.4358889 -0 -0.9000005
vn 0.96285355 0 -0.27002418
vn 0.96285355 -0 -0.27002418
vn 0.73931295 0 -0.673362
vn 0.73931295 -0 -0.673362
vn 0.4975644 0 -0.86742705
vn 0.4975644 -0 -0.86742705
vn -0.96673924 0 -0.25576428
vn -0.96673924 0 -0.25576428
vn -0.097067036 0 -0.9952778
vn -0.097067036 0 -0.9952778
vn -0.9367052 0 -0.35011905
vn -0.9367052 0 -0.35011905
vn -0.97169065 -0 0.23625664
vn -0.97169065 0 0.23625664
vn -0.72173345 0 -0.6921711
vn -0.72173345 0 -0.6921711
vn -0.405374 0 -0.91415095
vn -0.405374 0 -0.91415095
vn -0.8846661 -0 0.46622524
vn -0.8846661 0 0.46622524
vn -0.99256647 0 -0.12170407
vn -0.99256647 0 -0.12170407
vn -0.68917763 0 -0.7245924
vn -0.68917763 0 -0.7245924
vn -0.7410228 -0 0.6714798
vn -0.7410228 0 0.6714798
vn -0.78480095 -0 0.61974794
vn -0.78480095 0 0.61974794
vn -0.65449727 -0 0.7560643
vn -0.6544973 0 0.75606436
vn 0.7676471 0 0.6408729
vn 0.7676471 0 0.6408728
vn 0.9754127 0 -0.22038619
vn 0.9754127 -0 -0.22038619
vn 0.5498345 0 -0.8352736
vn 0.5498345 -0 -0.8352737
vn 0.98879015 0 0.1493119
vn 0.98879015 0 0.1493119
vn 0.25791702 0 0.9661671
vn 0.25791702 0 0.9661671
vn 0.9991229 0 0.04187286
vn 0.9991229 0 0.04187286
vn 0.8765246 0 0.48135707
vn 0.8765246 0 0.48135707
vn 0.5236092 0 0.8519585
vn 0.5236092 0 0.8519585
vn -0.1425223 -0 0.9897915
vn -0.1425223 0 0.9897915
vn -0.860776 -0 0.508984
vn -0.860776 0 0.508984
vn -0.9707348 -0 0.24015433
vn -0.9707348 0 0.24015433
vn -0.99078983 -0 0.13540886
vn -0.99078983 0 0.13540886
vn -0.9905674 0 -0.13702661
vn -0.9905674 0 -0.13702661
vn -0.81465304 -0 0.57994866
vn -0.814653 0 0.5799487
vn -0.9960033 -0 0.0893161
vn -0.9960033 0 0.0893161
vn -0.1722132 -0 0.9850597
vn -0.1722132 0 0.9850597
vn 0.8559155 0 0.5171158
vn 0.8559155 0 0.5171158
vn 0.987858 0 0.15535969
vn 0.987858 0 0.15535969
vn 0.892918 0 -0.45021933
vn 0.892918 -0 -0.45021933
vn 0.8288399 0 0.55948585
vn 0.8288399 0 0.55948585
vn 0.9615582 0 -0.27460107
vn 0.9615582 -0 -0.27460107
vn 0.99992365 0 0.012354978
vn 0.99992365 0 0.012354978
vn 0.99679124 0 -0.08004446
vn 0.99679124 -0 -0.08004446
vn 0.94980264 0 -0.31284973
vn 0.94980264 -0 -0.31284973
vn 0.94980264 -0 -0.31284973
vn 0.94980264 -0 -0.31284973
g _0
f 1/1/1 2/2/2 3/3/3
f 4/4/4 3/3/3 2/2/2
f 3/3/3 4/4/4 5/5/5
f 6/6/6 5/5/5 4/4/4
f 5/5/5 6/6/6 7/7/7
f 8/8/8 7/7/7 6/6/6
f 7/7/7 8/8/8 9/9/9
f 10/10/10 9/9/9 8/8/8
f 9/9/9 10/10/10 11/11/11
f 12/12/12 11/11/11 10/10/10
f 11/11/11 12/12/12 13/13/13
f 14/14/14 13/13/13 12/12/12
f 13/13/13 14/14/14 15/15/15
f 16/16/16 15/15/15 14/14/14
f 15/15/15 16/16/16 17/17/17
f 18/18/18 17/17/17 16/16/16
f 17/17/17 18/18/18 19/19/19
f 20/20/20 19/19/19 18/18/18
f 19/19/19 20/20/20 21/21/21
f 22/22/22 21/21/21 20/20/20
f 21/21/21 22/22/22 23/23/23
f 24/24/24 23/23/23 22/22/22
f 23/23/23 24/24/24 25/25/25
f 26/26/26 25/25/25 24/24/24
f 25/25/25 26/26/26 27/27/27
f 28/28/28 27/27/27 26/26/26
f 27/27/27 28/28/28 29/29/29
f 30/30/30 29/29/29 28/28/28
f 29/29/29 30/30/30 31/31/31
f 32/32/32 31/31/31 30/30/30
f 31/31/31 32/32/32 33/33/33
f 34/34/34 33/33/33 32/32/32
f 33/33/33 34/34/34 35/35/35
f 36/36/36 35/35/35 34/34/34
f 35/35/35 36/36/36 37/37/37
f 38/38/38 37/37/37 36/36/36
f 37/37/37 38/38/38 39/39/39
f 40/40/40 39/39/39 38/38/38
f 39/39/39 40/40/40 41/41/41
f 42/42/42 41/41/41 40/40/40
f 41/41/41 42/42/42 43/43/43
f 44/44/44 43/43/43 42/42/42
f 43/43/43 44/44/44 45/45/45
f 46/46/46 45/45/45 44/44/44
f 45/45/45 46/46/46 47/47/47
f 48/48/48 47/47/47 46/46/46
f 47/47/47 48/48/48 49/49/49
f 50/50/50 49/49/49 48/48/48
f 49/49/49 50/50/50 51/51/51
f 52/52/52 51/51/51 50/50/50
f 51/51/51 52/52/52 53/53/53
f 54/54/54 53/53/53 52/52/52
f 53/53/53 54/54/54 55/55/55
f 56/56/56 55/55/55 54/54/54
f 55/55/55 56/56/56 57/57/57
f 58/58/58 57/57/57 56/56/56
f 57/57/57 58/58/58 59/59/59
f 60/60/60 59/59/59 58/58/58
f 59/59/59 60/60/60 61/61/61
f 62/62/62 61/61/61 60/60/60
f 61/61/61 62/62/62 63/63/63
f 64/64/64 63/63/63 62/62/62
f 63/63/63 64/64/64 65/65/65
f 66/66/66 65/65/65 64/64/64
f 65/65/65 66/66/66 67/67/67
f 68/68/68 67/67/67 66/66/66
f 67/67/67 68/68/68 69/69/69
f 70/70/70 69/69/69 68/68/68
f 69/69/69 70/70/70 71/71/71
f 72/72/72 71/71/71 70/70/70
f 71/71/71 72/72/72 73/73/73
f 74/74/74 73/73/73 72/72/72
f 73/73/73 74/74/74 75/75/75
f 76/76/76 75/75/75 74/74/74
f 75/75/75 76/76/76 77/77/77
f 78/78/78 77/77/77 76/76/76
f 77/77/77 78/78/78 79/79/79
f 80/80/80 79/79/79 78/78/78
f 79/79/79 80/80/80 81/81/81
f 82/82/82 81/81/81 80/80/80
f 81/81/81 82/82/82 83/83/83
f 84/84/84 83/83/83 82/82/82
