g 
v 10.367563 0 -51.71493
v 7.78021 0 -47.968098
v 10.530256 0 -53.745564
v 5.9388704 0 -47.096645
v 10.347283 0 -55.81993
v 3.9341865 0 -46.532963
v 8.18714 0 -58.339443
v 0.8128588 0 -47.660557
v 6.1587667 0 -59.264034
v -0.59749174 0 -49.11057
v 4.4630284 0 -60.199406
v -2.842243 0 -50.710827
v 3.2687728 0 -60.6578
v -4.9768925 0 -53.313522
v 2.1253796 0 -61.667835
v -6.4798417 0 -55.951008
v 2.0138452 0 -62.008617
v -7.822016 0 -58.13428
v 2.0243964 0 -61.680233
v -8.416689 0 -61.112095
v 2.0872138 0 -62.34132
v -8.200342 0 -63.40603
v 2.40598 0 -63.851208
v -8.184587 0 -64.87074
v 2.2720766 0 -64.89796
v -8.072077 0 -64.10204
v 1.5207977 0 -67.43474
v -7.71772 0 -66.72389
v 0.21078444 0 -68.408646
v -6.572117 0 -67.88675
v -1.452228 0 -69.10535
v -5.035261 0 -68.82965
vt -0.14705719 0.07951603
vt -0.145843 0.08390453
vt -0.14654437 0.0775445
vt -0.14438972 0.08533209
vt -0.14569065 0.07564511
vt -0.1426811 0.086522534
vt -0.1428232 0.073974214
vt -0.1393626 0.08648192
vt -0.14060374 0.07376661
vt -0.13755445 0.08557516
vt -0.13869493 0.07343966
vt -0.13490881 0.08480035
vt -0.13741638 0.07339865
vt -0.13203813 0.08304251
vt -0.1360048 0.072819866
vt -0.12975276 0.08104445
vt -0.13578759 0.07253457
vt -0.12776834 0.07942268
vt -0.13590534 0.072841294
vt -0.1262292 0.076805025
vt -0.1357477 0.072196215
vt -0.12568063 0.07456718
vt -0.13555321 0.07066535
vt -0.12521474 0.07317843
vt -0.13508315 0.069720544
vt -0.12557334 0.07386762
vt -0.13354085 0.0675709
vt -0.12504749 0.07127471
vt -0.13198376 0.06708094
vt -0.12574793 0.06980026
vt -0.13018419 0.06696868
vt -0.12689015 0.06840515
vn -0 1 0
vn -0 1 0
vn -0 1 0
vn -0 1 0
vn -0 1 0
vn -0 1 0
vn -0 1 0
vn -0 1 0
vn -0 1 0
vn -0 1 0
vn -0 1 0
vn -0 1 0
vn -0 1 0
vn -0 1 0
vn -0 1 0
vn -0 1 0
vn -0 1 0
vn -0 1 0
vn -0 1 0
vn 0 1 0
vn -0 1 0
vn 0 1 0
vn -0 1 0
vn -0 1 0
vn -0 1 0
vn -0 1 0
vn -0 1 0
vn -0 1 0
vn -0 1 0
vn -0 1 0
vn -0 1 0
vn -0 1 0
g _0
f 3/3/3 2/2/2 1/1/1
f 2/2/2 3/3/3 4/4/4
f 5/5/5 4/4/4 3/3/3
f 4/4/4 5/5/5 6/6/6
f 7/7/7 6/6/6 5/5/5
f 6/6/6 7/7/7 8/8/8
f 9/9/9 8/8/8 7/7/7
f 8/8/8 9/9/9 10/10/10
f 11/11/11 10/10/10 9/9/9
f 10/10/10 11/11/11 12/12/12
f 13/13/13 12/12/12 11/11/11
f 12/12/12 13/13/13 14/14/14
f 15/15/15 14/14/14 13/13/13
f 14/14/14 15/15/15 16/16/16
f 17/17/17 16/16/16 15/15/15
f 16/16/16 17/17/17 18/18/18
f 18/18/18 19/19/19 20/20/20
f 21/21/21 20/20/20 19/19/19
f 20/20/20 21/21/21 22/22/22
f 23/23/23 22/22/22 21/21/21
f 22/22/22 23/23/23 24/24/24
f 25/25/25 24/24/24 23/23/23
f 27/27/27 26/26/26 25/25/25
f 26/26/26 27/27/27 28/28/28
f 29/29/29 28/28/28 27/27/27
f 28/28/28 29/29/29 30/30/30
f 31/31/31 30/30/30 29/29/29
f 30/30/30 31/31/31 32/32/32
