g 
v 1.94 68.38123 63.95
v 1.94 54.381233 63.95
v 3.66 68.38123 65.55
v 3.66 54.381233 65.55
v 8.25 68.38123 65.63
v 8.25 54.381233 65.63
v 9.9 68.38123 67.3
v 9.9 54.381233 67.3
v 11.33 68.38123 65.53
v 11.33 54.381233 65.53
v 15.45 68.38123 65.63
v 15.45 54.381233 65.63
v 16.612158 68.38123 70.018814
v 16.612158 54.381233 70.018814
v 21.93073 68.38123 69.42603
v 21.93073 54.381233 69.42603
v 21.97714 68.38123 81.945145
v 21.97714 54.381233 81.945145
v 13.0678425 68.38123 82.01944
v 13.0678425 54.381233 82.01944
v 11.292425 68.38123 80.02272
v 11.292425 54.381233 80.02272
v 7.1830916 68.38123 79.94695
v 7.1830916 54.381233 79.94695
v 5.6732907 68.38123 77.79661
v 5.6732907 54.381233 77.79661
v 4.276356 68.38123 73.94931
v 4.276356 54.381233 73.94931
v 2.4243107 68.38123 73.115105
v 2.4243107 54.381233 73.115105
v 0.76841545 68.38123 71.19182
v 0.76841545 54.381233 71.19182
v -2.6244953 68.38123 71.94196
v -2.6244953 54.381233 71.94196
v -4.054795 68.38123 68.65621
v -4.054795 54.381233 68.65621
v -7.430332 68.38123 69.92672
v -7.430332 54.381233 69.92672
v -8.472282 68.38123 67.15727
v -8.472282 54.381233 67.15727
v -12.943163 68.38123 68.58948
v -12.943163 54.381233 68.58948
v -14.277239 68.38123 65.3345
v -14.277239 54.381233 65.3345
v -18.624113 68.38123 58.707973
v -18.624113 54.381233 58.707973
v -13.2474 68.38123 56.71953
v -13.2474 54.381233 56.71953
v -11.064154 68.38123 53.896774
v -11.064154 54.381233 53.896774
v -12.728079 68.38123 51.20081
v -12.728079 54.381233 51.20081
v -16.814415 68.381226 45.619095
v -16.814415 54.381226 45.619095
v -15.147974 68.381226 42.6392
v -15.147974 54.381226 42.6392
v -16.678246 68.381226 41.71551
v -16.678246 54.381226 41.71551
v -12.588959 68.381226 38.578632
v -12.588959 54.381226 38.578632
v -13.777927 68.381226 34.31772
v -13.777927 54.381226 34.31772
v -15.478983 68.381226 35.215816
v -15.478983 54.381226 35.215816
v -14.99827 68.381226 28.960773
v -14.99827 54.381226 28.960773
v -13.020973 68.381226 25.703293
v -13.020973 54.381226 25.703293
v -7.43451 68.381226 22.75722
v -7.43451 54.381226 22.75722
v -7.926177 68.381226 21.138351
v -7.926177 54.381226 21.138351
v -10.471241 68.381226 18.254488
v -10.471241 54.381226 18.254488
v -13.838547 68.381226 19.115042
v -13.838547 54.381226 19.115042
v -16.19652 68.381226 10.684168
v -16.19652 54.381226 10.684168
v -16.252987 68.381226 8.507275
v -16.252987 54.381226 8.507275
v -10.420412 68.381226 2.1251965
v -10.420412 54.381226 2.1251965
v -11.633446 68.381226 1.4764118
v -11.633446 54.381226 1.4764118
v -14.886684 68.381226 0.94772243
v -14.886684 54.381226 0.94772243
v -15.34174 68.381226 -2.3753633
v -15.34174 54.381226 -2.3753633
v -15.757067 68.381226 -6.3735228
v -15.757067 54.381226 -6.3735228
v -14.595402 68.381226 -11.268426
v -14.595402 54.381226 -11.268426
v -16.745928 68.381226 -12.641332
v -16.745928 54.381226 -12.641332
v -17.063414 68.381226 -14.739558
v -17.063414 54.381226 -14.739558
v -18.5867 68.381226 -14.232028
v -18.5867 54.381226 -14.232028
v -19.30766 68.381226 -15.911561
v -19.30766 54.381226 -15.911561
v -20.191103 68.381226 -17.24488
v -20.191103 54.381226 -17.24488
v -18.170912 68.38122 -20.305859
v -18.170912 54.381218 -20.305859
v -17.109457 68.38122 -25.485764
v -17.109457 54.381218 -25.485764
v -14.707573 68.38122 -24.983932
v -14.707573 54.381218 -24.983932
v -8.875196 68.38122 -29.520119
v -8.875196 54.381218 -29.520119
v -7.6312165 68.38122 -38.28051
v -7.6312165 54.381218 -38.28051
v -9.39 68.38122 -40.2
v -9.39 54.381218 -40.2
vt -0.0404 0.5265
vt -0.0404 0.5265
vt -0.057600003 0.5425
vt -0.057600003 0.5425
vt -0.1035 0.5433
vt -0.1035 0.5433
vt -0.12 0.56
vt -0.12 0.56
vt -0.1343 0.5423
vt -0.1343 0.5423
vt -0.17549999 0.5433
vt -0.17549999 0.5433
vt -0.18712159 0.5871881
vt -0.18712159 0.5871881
vt -0.2403073 0.5812603
vt -0.2403073 0.5812603
vt -0.2407714 0.7064514
vt -0.2407714 0.7064514
vt -0.15167843 0.7071943
vt -0.15167843 0.7071943
vt -0.13392425 0.68722713
vt -0.13392425 0.68722713
vt -0.09283091 0.6864695
vt -0.09283091 0.6864695
vt -0.077732906 0.66496605
vt -0.077732906 0.66496605
vt -0.06376356 0.6264931
vt -0.06376356 0.6264931
vt -0.045243103 0.61815107
vt -0.045243103 0.61815107
vt -0.028684152 0.5989182
vt -0.028684152 0.5989182
vt 0.0052449536 0.6064196
vt 0.0052449536 0.6064196
vt 0.019547949 0.5735621
vt 0.019547949 0.5735621
vt 0.05330332 0.5862672
vt 0.05330332 0.5862672
vt 0.06372283 0.5585727
vt 0.06372283 0.5585727
vt 0.10843162 0.57289475
vt 0.10843162 0.57289475
vt 0.12177238 0.540345
vt 0.12177238 0.540345
vt 0.16524112 0.47407973
vt 0.16524112 0.47407973
vt 0.111474 0.4541953
vt 0.111474 0.4541953
vt 0.089641534 0.42596775
vt 0.089641534 0.42596775
vt 0.10628078 0.3990081
vt 0.10628078 0.3990081
vt 0.14714414 0.34319094
vt 0.14714414 0.34319094
vt 0.13047974 0.31339198
vt 0.13047974 0.31339198
vt 0.14578246 0.3041551
vt 0.14578246 0.3041551
vt 0.10488958 0.27278632
vt 0.10488958 0.27278632
vt 0.11677927 0.2301772
vt 0.11677927 0.2301772
vt 0.13378982 0.23915817
vt 0.13378982 0.23915817
vt 0.1289827 0.17660774
vt 0.1289827 0.17660774
vt 0.109209724 0.14403293
vt 0.109209724 0.14403293
vt 0.053345103 0.11457219
vt 0.053345103 0.11457219
vt 0.05826177 0.09838351
vt 0.05826177 0.09838351
vt 0.08371241 0.069544874
vt 0.08371241 0.069544874
vt 0.11738546 0.078150414
vt 0.11738546 0.078150414
vt 0.1409652 -0.006158323
vt 0.1409652 -0.006158323
vt 0.14152986 -0.027927255
vt 0.14152986 -0.027927255
vt 0.08320411 -0.09174804
vt 0.08320411 -0.09174804
vt 0.09533445 -0.09823588
vt 0.09533445 -0.09823588
vt 0.12786683 -0.10352278
vt 0.12786683 -0.10352278
vt 0.1324174 -0.13675363
vt 0.1324174 -0.13675363
vt 0.13657066 -0.17673522
vt 0.13657066 -0.17673522
vt 0.12495401 -0.22568426
vt 0.12495401 -0.22568426
vt 0.14645927 -0.2394133
vt 0.14645927 -0.2394133
vt 0.14963412 -0.2603956
vt 0.14963412 -0.2603956
vt 0.164867 -0.25532028
vt 0.164867 -0.25532028
vt 0.17207658 -0.27211562
vt 0.17207658 -0.27211562
vt 0.18091102 -0.2854488
vt 0.18091102 -0.2854488
vt 0.16070911 -0.31605858
vt 0.16070911 -0.31605858
vt 0.15009457 -0.3678576
vt 0.15009457 -0.3678576
vt 0.12607573 -0.3628393
vt 0.12607573 -0.3628393
vt 0.06775197 -0.40820116
vt 0.06775197 -0.40820116
vt 0.055312164 -0.49580508
vt 0.055312164 -0.49580508
vt 0.072900005 -0.515
vt 0.072900005 -0.515
vn -0.6811045 -0 0.73218626
vn -0.6811045 0 0.73218626
vn -0.017425284 -0 0.9998482
vn -0.017425284 0 0.9998482
vn -0.71135485 -0 0.702833
vn -0.71135485 0 0.702833
vn 0.7778592 0 0.62843853
vn 0.7778592 0 0.62843853
vn -0.024264328 -0 0.9997056
vn -0.024264328 0 0.9997056
vn -0.9666828 -0 0.25597745
vn -0.9666828 0 0.25597745
vn 0.11076903 0 0.9938462
vn 0.11076903 0 0.9938462
vn -0.99999315 -0 0.0037070753
vn -0.99999315 0 0.0037070753
vn -0.008338756 0 -0.99996525
vn -0.008338756 0 -0.99996525
vn 0.74730605 0 -0.66448003
vn 0.74730605 -0 -0.66448003
vn 0.018434776 0 -0.99983007
vn 0.018434776 -0 -0.99983007
vn 0.8184159 0 -0.57462645
vn 0.8184159 -0 -0.57462645
vn 0.9399567 0 -0.34129357
vn 0.9399567 -0 -0.34129357
vn 0.41068608 0 -0.9117768
vn 0.41068608 -0 -0.9117768
vn 0.757821 0 -0.6524625
vn 0.757821 -0 -0.6524625
vn -0.21587856 0 -0.9764202
vn -0.21587856 0 -0.9764202
vn 0.9168953 0 -0.39912784
vn 0.9168953 -0 -0.39912784
vn -0.3522611 0 -0.93590176
vn -0.3522611 0 -0.93590176
vn 0.93595004 0 -0.35213286
vn 0.93595004 -0 -0.35213286
vn -0.30507007 0 -0.95232993
vn -0.30507007 0 -0.95232993
vn 0.92529815 0 -0.37924045
vn 0.92529815 -0 -0.37924045
vn 0.8361513 0 -0.5484989
vn 0.8361513 -0 -0.5484989
vn 0.3468649 0 0.93791515
vn 0.3468649 0 0.93791515
vn 0.79101 0 0.61180323
vn 0.79101 0 0.61180323
vn 0.85097146 0 -0.52521193
vn 0.85097146 -0 -0.52521193
vn 0.80688184 0 -0.59071285
vn 0.80688184 -0 -0.59071285
vn 0.8727932 0 0.48809022
vn 0.8727932 0 0.48809022
vn 0.51676637 0 -0.8561264
vn 0.51676637 -0 -0.8561264
vn 0.60864645 0 0.79344153
vn 0.60864645 0 0.79344153
vn 0.96320355 0 -0.26877305
vn 0.96320355 -0 -0.26877305
vn -0.4668882 0 -0.8843163
vn -0.4668882 0 -0.8843163
vn 0.99705994 0 0.0766261
vn 0.99705994 0 0.0766261
vn 0.854841 0 0.5188901
vn 0.854841 0 0.5188901
vn 0.46646914 0 0.8845375
vn 0.46646914 0 0.8845375
vn 0.9568437 0 -0.29060325
vn 0.9568437 -0 -0.29060325
vn 0.74977607 0 -0.6616916
vn 0.74977607 -0 -0.6616916
vn -0.24760368 0 -0.96886146
vn -0.24760368 0 -0.96886146
vn 0.9630432 0 -0.26934692
vn 0.9630432 -0 -0.26934692
vn 0.9996637 0 -0.025930563
vn 0.9996637 -0 -0.025930563
vn 0.7381709 0 0.6746138
vn 0.7381709 0 0.6746138
vn 0.4716255 0 -0.881799
vn 0.4716255 -0 -0.881799
vn 0.16040733 0 -0.9870509
vn 0.16040733 -0 -0.9870509
vn 0.9907539 0 -0.1356714
vn 0.9907539 -0 -0.1356714
vn 0.9946478 0 -0.10332359
vn 0.9946478 -0 -0.10332359
vn 0.9729756 0 0.23090789
vn 0.9729756 0 0.23090789
vn 0.53809935 0 -0.8428814
vn 0.53809935 -0 -0.8428814
vn 0.98874533 0 -0.14960854
vn 0.98874533 -0 -0.14960854
vn -0.31609768 0 -0.94872665
vn -0.31609768 0 -0.94872665
vn 0.91891533 0 -0.3944549
vn 0.91891533 -0 -0.3944549
vn 0.83361554 0 -0.55234504
vn 0.83361554 -0 -0.55234504
vn 0.8346162 0 0.5508319
vn 0.8346162 0 0.5508319
vn 0.9796433 0 0.20074636
vn 0.9796433 0 0.20074636
vn -0.2045161 -0 0.97886324
vn -0.2045161 0 0.97886324
vn 0.6139316 0 0.7893592
vn 0.6139316 0 0.7893592
vn 0.9900679 0 0.14059013
vn 0.9900679 0 0.14059013
vn 0.7372975 0 -0.6755682
vn 0.7372975 -0 -0.6755682
vn 0.7372975 -0 -0.6755682
vn 0.7372975 -0 -0.6755682
g _0
f 1/1/1 2/2/2 3/3/3
f 4/4/4 3/3/3 2/2/2
f 3/3/3 4/4/4 5/5/5
f 6/6/6 5/5/5 4/4/4
f 5/5/5 6/6/6 7/7/7
f 8/8/8 7/7/7 6/6/6
f 7/7/7 8/8/8 9/9/9
f 10/10/10 9/9/9 8/8/8
f 9/9/9 10/10/10 11/11/11
f 12/12/12 11/11/11 10/10/10
f 11/11/11 12/12/12 13/13/13
f 14/14/14 13/13/13 12/12/12
f 13/13/13 14/14/14 15/15/15
f 16/16/16 15/15/15 14/14/14
f 15/15/15 16/16/16 17/17/17
f 18/18/18 17/17/17 16/16/16
f 17/17/17 18/18/18 19/19/19
f 20/20/20 19/19/19 18/18/18
f 19/19/19 20/20/20 21/21/21
f 22/22/22 21/21/21 20/20/20
f 21/21/21 22/22/22 23/23/23
f 24/24/24 23/23/23 22/22/22
f 23/23/23 24/24/24 25/25/25
f 26/26/26 25/25/25 24/24/24
f 25/25/25 26/26/26 27/27/27
f 28/28/28 27/27/27 26/26/26
f 27/27/27 28/28/28 29/29/29
f 30/30/30 29/29/29 28/28/28
f 29/29/29 30/30/30 31/31/31
f 32/32/32 31/31/31 30/30/30
f 31/31/31 32/32/32 33/33/33
f 34/34/34 33/33/33 32/32/32
f 33/33/33 34/34/34 35/35/35
f 36/36/36 35/35/35 34/34/34
f 35/35/35 36/36/36 37/37/37
f 38/38/38 37/37/37 36/36/36
f 37/37/37 38/38/38 39/39/39
f 40/40/40 39/39/39 38/38/38
f 39/39/39 40/40/40 41/41/41
f 42/42/42 41/41/41 40/40/40
f 41/41/41 42/42/42 43/43/43
f 44/44/44 43/43/43 42/42/42
f 43/43/43 44/44/44 45/45/45
f 46/46/46 45/45/45 44/44/44
f 45/45/45 46/46/46 47/47/47
f 48/48/48 47/47/47 46/46/46
f 47/47/47 48/48/48 49/49/49
f 50/50/50 49/49/49 48/48/48
f 49/49/49 50/50/50 51/51/51
f 52/52/52 51/51/51 50/50/50
f 51/51/51 52/52/52 53/53/53
f 54/54/54 53/53/53 52/52/52
f 53/53/53 54/54/54 55/55/55
f 56/56/56 55/55/55 54/54/54
f 55/55/55 56/56/56 57/57/57
f 58/58/58 57/57/57 56/56/56
f 57/57/57 58/58/58 59/59/59
f 60/60/60 59/59/59 58/58/58
f 59/59/59 60/60/60 61/61/61
f 62/62/62 61/61/61 60/60/60
f 61/61/61 62/62/62 63/63/63
f 64/64/64 63/63/63 62/62/62
f 63/63/63 64/64/64 65/65/65
f 66/66/66 65/65/65 64/64/64
f 65/65/65 66/66/66 67/67/67
f 68/68/68 67/67/67 66/66/66
f 67/67/67 68/68/68 69/69/69
f 70/70/70 69/69/69 68/68/68
f 69/69/69 70/70/70 71/71/71
f 72/72/72 71/71/71 70/70/70
f 71/71/71 72/72/72 73/73/73
f 74/74/74 73/73/73 72/72/72
f 73/73/73 74/74/74 75/75/75
f 76/76/76 75/75/75 74/74/74
f 75/75/75 76/76/76 77/77/77
f 78/78/78 77/77/77 76/76/76
f 77/77/77 78/78/78 79/79/79
f 80/80/80 79/79/79 78/78/78
f 79/79/79 80/80/80 81/81/81
f 82/82/82 81/81/81 80/80/80
f 81/81/81 82/82/82 83/83/83
f 84/84/84 83/83/83 82/82/82
f 83/83/83 84/84/84 85/85/85
f 86/86/86 85/85/85 84/84/84
f 85/85/85 86/86/86 87/87/87
f 88/88/88 87/87/87 86/86/86
f 87/87/87 88/88/88 89/89/89
f 90/90/90 89/89/89 88/88/88
f 89/89/89 90/90/90 91/91/91
f 92/92/92 91/91/91 90/90/90
f 91/91/91 92/92/92 93/93/93
f 94/94/94 93/93/93 92/92/92
f 93/93/93 94/94/94 95/95/95
f 96/96/96 95/95/95 94/94/94
f 95/95/95 96/96/96 97/97/97
f 98/98/98 97/97/97 96/96/96
f 97/97/97 98/98/98 99/99/99
f 100/100/100 99/99/99 98/98/98
f 99/99/99 100/100/100 101/101/101
f 102/102/102 101/101/101 100/100/100
f 101/101/101 102/102/102 103/103/103
f 104/104/104 103/103/103 102/102/102
f 103/103/103 104/104/104 105/105/105
f 106/106/106 105/105/105 104/104/104
f 105/105/105 106/106/106 107/107/107
f 108/108/108 107/107/107 106/106/106
f 107/107/107 108/108/108 109/109/109
f 110/110/110 109/109/109 108/108/108
f 109/109/109 110/110/110 111/111/111
f 112/112/112 111/111/111 110/110/110
f 111/111/111 112/112/112 113/113/113
f 114/114/114 113/113/113 112/112/112
