g 
v 36.993404 24.199999 -107.23537
v 36.993404 10.199999 -107.23537
v 39.884884 24.199999 -111.038864
v 39.884884 10.199999 -111.038864
v 36.70319 24.199999 -115.25532
v 36.70319 10.199999 -115.25532
v 33.522713 24.199999 -112.665344
v 33.522713 10.199999 -112.665344
v 33.762066 24.199999 -107.806465
v 33.762066 10.199999 -107.806465
v 35.513634 24.199999 -106.02165
v 35.513634 10.199999 -106.02165
v 36.993404 24.199999 -107.23537
v 36.993404 10.199999 -107.23537
vt -0.39093402 -1.1853536
vt -0.39093402 -1.1853536
vt -0.4198488 -1.2233887
vt -0.4198488 -1.2233887
vt -0.38803187 -1.2655532
vt -0.38803187 -1.2655532
vt -0.3562271 -1.2396535
vt -0.3562271 -1.2396535
vt -0.35862064 -1.1910646
vt -0.35862064 -1.1910646
vt -0.3761363 -1.1732166
vt -0.3761363 -1.1732166
vt -0.39093402 -1.1853536
vt -0.39093402 -1.1853536
vn 0.79607934 0 0.60519224
vn 0.79607934 0 0.60519224
vn 0.79823786 0 -0.60234237
vn 0.79823786 -0 -0.60234237
vn -0.6314492 0 -0.77541715
vn -0.6314492 0 -0.77541715
vn -0.99878883 -0 0.049201325
vn -0.99878883 0 0.049201325
vn -0.7137227 -0 0.7004284
vn -0.7137227 0 0.7004284
vn 0.63417417 0 0.77319026
vn 0.63417417 0 0.77319026
vn 0.63417417 0 0.77319026
vn 0.63417417 0 0.77319026
g _0
f 1/1/1 2/2/2 3/3/3
f 4/4/4 3/3/3 2/2/2
f 3/3/3 4/4/4 5/5/5
f 6/6/6 5/5/5 4/4/4
f 5/5/5 6/6/6 7/7/7
f 8/8/8 7/7/7 6/6/6
f 7/7/7 8/8/8 9/9/9
f 10/10/10 9/9/9 8/8/8
f 9/9/9 10/10/10 11/11/11
f 12/12/12 11/11/11 10/10/10
f 11/11/11 12/12/12 13/13/13
f 14/14/14 13/13/13 12/12/12
