g 
v 96.97 24.208296 -2.1
v 96.97 14.591703 -2.1
v 101.09 26.11564 0.96
v 101.09 11.204359 0.96
v 101.51 27.444601 4
v 101.51 8.875399 4
v 99.39 27.444601 6.93
v 99.39 8.875399 6.93
v 95.96 27.49699 5.24
v 95.96 10.663011 5.24
v 93.66 27.444601 2.18
v 93.66 8.875399 2.18
v 94.61 23.926802 -1.26
v 94.61 13.833197 -1.26
v 96.97 24.208296 -2.1
v 96.97 14.591703 -2.1
vt -0.9697 -0.020999998
vt -0.9697 -0.020999998
vt -1.0108999 0.0095999995
vt -1.0108999 0.0095999995
vt -1.0151 0.04
vt -1.0151 0.04
vt -0.9939 0.069299996
vt -0.9939 0.069299996
vt -0.9596 0.052399997
vt -0.9596 0.052399997
vt -0.9366 0.0218
vt -0.9366 0.0218
vt -0.9461 -0.0126
vt -0.9461 -0.0126
vt -0.9697 -0.020999998
vt -0.9697 -0.020999998
vn 0.5962527 0 -0.80279684
vn 0.5962527 -0 -0.8027968
vn 0.9905904 0 -0.13685977
vn 0.9905904 -0 -0.13685977
vn 0.81016815 0 0.5861975
vn 0.81016815 0 0.5861975
vn -0.44197544 -0 0.8970272
vn -0.44197544 0 0.89702713
vn -0.79937315 -0 0.6008349
vn -0.79937315 0 0.60083485
vn -0.96391845 0 -0.26619756
vn -0.9639185 0 -0.2661976
vn -0.33532456 0 -0.9421027
vn -0.3353246 0 -0.9421027
vn -0.3353246 0 -0.9421027
vn -0.3353246 0 -0.9421027
g _0
f 3/3/3 2/2/2 1/1/1
f 2/2/2 3/3/3 4/4/4
f 5/5/5 4/4/4 3/3/3
f 4/4/4 5/5/5 6/6/6
f 7/7/7 6/6/6 5/5/5
f 6/6/6 7/7/7 8/8/8
f 9/9/9 8/8/8 7/7/7
f 8/8/8 9/9/9 10/10/10
f 11/11/11 10/10/10 9/9/9
f 10/10/10 11/11/11 12/12/12
f 13/13/13 12/12/12 11/11/11
f 12/12/12 13/13/13 14/14/14
f 15/15/15 14/14/14 13/13/13
f 14/14/14 15/15/15 16/16/16
