g 
v -47.66 23.728296 -7.12
v -47.66 14.111704 -7.12
v -46.58 25.635637 -7.87
v -46.58 10.724356 -7.87
v -45.39 26.964598 -3.72
v -45.39 8.395395 -3.72
v -47.17 26.964598 -2.51
v -47.17 8.395395 -2.51
v -48.58 27.016987 -3.47
v -48.58 10.183007 -3.47
v -49.37 26.964598 -5.21
v -49.37 8.395395 -5.21
v -49.14 23.446798 -6.23
v -49.14 13.353193 -6.23
v -47.66 23.728296 -7.12
v -47.66 14.111704 -7.12
vt 0.4766 -0.0712
vt 0.4766 -0.0712
vt 0.46580002 -0.0787
vt 0.46580002 -0.0787
vt 0.45389998 -0.0372
vt 0.45389998 -0.0372
vt 0.47169998 -0.0251
vt 0.47169998 -0.0251
vt 0.4858 -0.0347
vt 0.4858 -0.0347
vt 0.49369997 -0.0521
vt 0.49369997 -0.0521
vt 0.49139997 -0.0623
vt 0.49139997 -0.0623
vt 0.4766 -0.0712
vt 0.4766 -0.0712
vn -0.5703965 0 -0.82136947
vn -0.57039654 0 -0.82136947
vn 0.9612611 0 -0.2756393
vn 0.9612611 -0 -0.27563933
vn 0.5621832 0 0.8270128
vn 0.5621832 0 0.8270128
vn -0.56279 -0 0.82659996
vn -0.56279004 0 0.82659996
vn -0.9105462 -0 0.4134074
vn -0.9105462 0 0.4134074
vn -0.9755073 0 -0.21996689
vn -0.9755073 0 -0.2199669
vn -0.51534706 0 -0.8569816
vn -0.51534706 0 -0.8569815
vn -0.51534706 0 -0.8569815
vn -0.51534706 0 -0.8569815
g _0
f 3/3/3 2/2/2 1/1/1
f 2/2/2 3/3/3 4/4/4
f 5/5/5 4/4/4 3/3/3
f 4/4/4 5/5/5 6/6/6
f 7/7/7 6/6/6 5/5/5
f 6/6/6 7/7/7 8/8/8
f 9/9/9 8/8/8 7/7/7
f 8/8/8 9/9/9 10/10/10
f 11/11/11 10/10/10 9/9/9
f 10/10/10 11/11/11 12/12/12
f 13/13/13 12/12/12 11/11/11
f 12/12/12 13/13/13 14/14/14
f 15/15/15 14/14/14 13/13/13
f 14/14/14 15/15/15 16/16/16
