g 
v 11.320389 18.6 -100.14376
v 20.9749 18.6 -107.635796
v 9.558644 18.6 -94.71751
v 26.668652 18.6 -107.995125
v 12.266225 18.6 -87.01907
v 33.453777 18.6 -103.46092
v 17.941208 18.6 -80.88656
v 37.527206 18.6 -97.03129
v 24.315544 18.6 -74.17875
v 42.3248 18.6 -90.921715
v 29.771463 18.6 -68.71588
v 48.18621 18.6 -85.01181
v 35.968433 18.6 -61.009094
v 54.043243 18.6 -77.681274
v 44.763767 18.6 -52.804054
v 59.25446 18.6 -72.67061
v 55.82475 18.6 -46.789677
v 64.47709 18.6 -69.807
v 66.67978 18.6 -44.209778
v 72.120224 18.6 -68.19022
v 74.125854 18.6 -44.946774
v 78.51928 18.6 -64.31218
v 77.95046 18.6 -48.515377
v 80.4295 18.6 -59.442524
v 11.320389 18.6 -100.14376
v 11.320389 -11.4 -100.14376
v 9.558644 18.6 -94.71751
v 9.558644 -11.4 -94.71751
v 9.558644 18.6 -94.71751
v 9.558644 -11.4 -94.71751
v 12.266225 18.6 -87.01907
v 12.266225 -11.4 -87.01907
v 12.266225 18.6 -87.01907
v 12.266225 -11.4 -87.01907
v 17.941208 18.6 -80.88656
v 17.941208 -11.4 -80.88656
v 17.941208 18.6 -80.88656
v 17.941208 -11.4 -80.88656
v 24.315544 18.6 -74.17875
v 24.315544 -11.4 -74.17875
v 24.315544 18.6 -74.17875
v 24.315544 -11.4 -74.17875
v 29.771463 18.6 -68.71588
v 29.771463 -11.4 -68.71588
v 29.771463 18.6 -68.71588
v 29.771463 -11.4 -68.71588
v 35.968433 18.6 -61.009094
v 35.968433 -11.4 -61.009094
v 35.968433 18.6 -61.009094
v 35.968433 -11.4 -61.009094
v 44.763767 18.6 -52.804054
v 44.763767 -11.4 -52.804054
v 44.763767 18.6 -52.804054
v 44.763767 -11.4 -52.804054
v 55.82475 18.6 -46.789677
v 55.82475 -11.4 -46.789677
v 55.82475 18.6 -46.789677
v 55.82475 -11.4 -46.789677
v 66.67978 18.6 -44.209778
v 66.67978 -11.4 -44.209778
v 66.67978 18.6 -44.209778
v 66.67978 -11.4 -44.209778
v 74.125854 18.6 -44.946774
v 74.125854 -11.4 -44.946774
v 74.125854 18.6 -44.946774
v 74.125854 -11.4 -44.946774
v 77.95046 18.6 -48.515377
v 77.95046 -11.4 -48.515377
v 20.9749 18.6 -107.635796
v 20.9749 -11.4 -107.635796
v 26.668652 18.6 -107.995125
v 26.668652 -11.4 -107.995125
v 26.668652 18.6 -107.995125
v 26.668652 -11.4 -107.995125
v 33.453777 18.6 -103.46092
v 33.453777 -11.4 -103.46092
v 33.453777 18.6 -103.46092
v 33.453777 -11.4 -103.46092
v 37.527206 18.6 -97.03129
v 37.527206 -11.4 -97.03129
v 37.527206 18.6 -97.03129
v 37.527206 -11.4 -97.03129
v 42.3248 18.6 -90.921715
v 42.3248 -11.4 -90.921715
v 42.3248 18.6 -90.921715
v 42.3248 -11.4 -90.921715
v 48.18621 18.6 -85.01181
v 48.18621 -11.4 -85.01181
v 48.18621 18.6 -85.01181
v 48.18621 -11.4 -85.01181
v 54.043243 18.6 -77.681274
v 54.043243 -11.4 -77.681274
v 54.043243 18.6 -77.681274
v 54.043243 -11.4 -77.681274
v 59.25446 18.6 -72.67061
v 59.25446 -11.4 -72.67061
v 59.25446 18.6 -72.67061
v 59.25446 -11.4 -72.67061
v 64.47709 18.6 -69.807
v 64.47709 -11.4 -69.807
v 64.47709 18.6 -69.807
v 64.47709 -11.4 -69.807
v 72.120224 18.6 -68.19022
v 72.120224 -11.4 -68.19022
v 72.120224 18.6 -68.19022
v 72.120224 -11.4 -68.19022
v 78.51928 18.6 -64.31218
v 78.51928 -11.4 -64.31218
v 78.51928 18.6 -64.31218
v 78.51928 -11.4 -64.31218
v 80.4295 18.6 -59.442524
v 80.4295 -11.4 -59.442524
vt -0.12346008 0.051726215
vt -0.11127246 0.050830476
vt -0.12840095 0.04887389
vt -0.106801696 0.047286443
vt -0.1315421 0.041341957
vt -0.10479546 0.039376196
vt -0.13143048 0.03298727
vt -0.1060726 0.031872734
vt -0.1311843 0.02373707
vt -0.106597476 0.02412236
vt -0.13078721 0.016026536
vt -0.10619834 0.015808286
vt -0.13134147 0.006152842
vt -0.10675332 0.006441664
vt -0.13029873 -0.0058302
vt -0.106235355 -0.0007691108
vt -0.12610641 -0.017702125
vt -0.10427183 -0.006392338
vt -0.11976831 -0.026884502
vt -0.0996754 -0.012709329
vt -0.11374285 -0.031320825
vt -0.09751683 -0.019873664
vt -0.10851272 -0.031229407
vt -0.09935702 -0.024770213
vt -0.12346008 0.051726215
vt -0.12346008 0.051726215
vt -0.12840095 0.04887389
vt -0.12840095 0.04887389
vt -0.12840095 0.04887389
vt -0.12840095 0.04887389
vt -0.1315421 0.041341957
vt -0.1315421 0.041341957
vt -0.1315421 0.041341957
vt -0.1315421 0.041341957
vt -0.13143048 0.03298727
vt -0.13143048 0.03298727
vt -0.13143048 0.03298727
vt -0.13143048 0.03298727
vt -0.1311843 0.02373707
vt -0.1311843 0.02373707
vt -0.1311843 0.02373707
vt -0.1311843 0.02373707
vt -0.13078721 0.016026536
vt -0.13078721 0.016026536
vt -0.13078721 0.016026536
vt -0.13078721 0.016026536
vt -0.13134147 0.006152842
vt -0.13134147 0.006152842
vt -0.13134147 0.006152842
vt -0.13134147 0.006152842
vt -0.13029873 -0.0058302
vt -0.13029873 -0.0058302
vt -0.13029873 -0.0058302
vt -0.13029873 -0.0058302
vt -0.12610641 -0.017702125
vt -0.12610641 -0.017702125
vt -0.12610641 -0.017702125
vt -0.12610641 -0.017702125
vt -0.11976831 -0.026884502
vt -0.11976831 -0.026884502
vt -0.11976831 -0.026884502
vt -0.11976831 -0.026884502
vt -0.11374285 -0.031320825
vt -0.11374285 -0.031320825
vt -0.11374285 -0.031320825
vt -0.11374285 -0.031320825
vt -0.10851272 -0.031229407
vt -0.10851272 -0.031229407
vt -0.11127246 0.050830476
vt -0.11127246 0.050830476
vt -0.106801696 0.047286443
vt -0.106801696 0.047286443
vt -0.106801696 0.047286443
vt -0.106801696 0.047286443
vt -0.10479546 0.039376196
vt -0.10479546 0.039376196
vt -0.10479546 0.039376196
vt -0.10479546 0.039376196
vt -0.1060726 0.031872734
vt -0.1060726 0.031872734
vt -0.1060726 0.031872734
vt -0.1060726 0.031872734
vt -0.106597476 0.02412236
vt -0.106597476 0.02412236
vt -0.106597476 0.02412236
vt -0.106597476 0.02412236
vt -0.10619834 0.015808286
vt -0.10619834 0.015808286
vt -0.10619834 0.015808286
vt -0.10619834 0.015808286
vt -0.10675332 0.006441664
vt -0.10675332 0.006441664
vt -0.10675332 0.006441664
vt -0.10675332 0.006441664
vt -0.106235355 -0.0007691108
vt -0.106235355 -0.0007691108
vt -0.106235355 -0.0007691108
vt -0.106235355 -0.0007691108
vt -0.10427183 -0.006392338
vt -0.10427183 -0.006392338
vt -0.10427183 -0.006392338
vt -0.10427183 -0.006392338
vt -0.0996754 -0.012709329
vt -0.0996754 -0.012709329
vt -0.0996754 -0.012709329
vt -0.0996754 -0.012709329
vt -0.09751683 -0.019873664
vt -0.09751683 -0.019873664
vt -0.09751683 -0.019873664
vt -0.09751683 -0.019873664
vt -0.09935702 -0.024770213
vt -0.09935702 -0.024770213
vn -0 1 0
vn -0 1 0
vn -0 1 0
vn -0 1 0
vn -0 1 0
vn -0 1 0
vn -0 1 0
vn -0 1 0
vn -0 1 0
vn -0 1 0
vn -0 1 0
vn -0 1 0
vn -0 1 0
vn -0 1 0
vn -0 1 0
vn -0 1 0
vn -0 1 0
vn -0 1 0
vn -0 1 0
vn -0 1 0
vn -0 1 0
vn -0 1 0
vn -0 1 0
vn -0 1 0
vn -0.613072 0 -0.790027
vn -0.613072 0 -0.790027
vn -0.95112616 0 -0.30880255
vn -0.95112616 0 -0.30880255
vn -0.9433557 -0 0.3317833
vn -0.9433557 0 0.3317833
vn -0.9433557 0 0.3317833
vn -0.9433557 0 0.3317833
vn -0.7339558 -0 0.6791972
vn -0.7339558 0 0.6791972
vn -0.7339558 0 0.6791972
vn -0.7339558 0 0.6791972
vn -0.72489595 -0 0.68885833
vn -0.72489595 0 0.68885833
vn -0.72489595 0 0.68885833
vn -0.72489595 0 0.68885833
vn -0.7075566 -0 0.7066567
vn -0.7075566 0 0.7066567
vn -0.7075566 0 0.7066567
vn -0.7075566 0 0.7066567
vn -0.77931064 -0 0.6266379
vn -0.77931064 0 0.6266379
vn -0.77931064 0 0.6266379
vn -0.77931064 0 0.6266379
vn -0.6821432 -0 0.7312185
vn -0.6821432 0 0.7312185
vn -0.6821432 0 0.7312185
vn -0.6821432 0 0.7312185
vn -0.47769567 -0 0.8785254
vn -0.47769567 0 0.8785254
vn -0.47769567 0 0.8785254
vn -0.47769567 0 0.8785254
vn -0.2312276 -0 0.9728997
vn -0.2312276 0 0.9728997
vn -0.2312276 0 0.9728997
vn -0.2312276 0 0.9728997
vn 0.09849645 0 0.9951374
vn 0.09849645 0 0.9951374
vn 0.09849645 0 0.9951374
vn 0.09849645 0 0.9951374
vn 0.68221295 0 0.73115355
vn 0.68221295 0 0.73115355
vn 0.97521776 0 0.221247
vn 0.97521776 0 0.221247
vn -0.613072 0 -0.790027
vn -0.613072 0 -0.790027
vn -0.062984094 0 -0.99801457
vn -0.062984094 0 -0.99801457
vn 0.5556148 0 -0.8314398
vn 0.5556148 -0 -0.8314398
vn 0.5556148 -0 -0.8314398
vn 0.5556148 -0 -0.8314398
vn 0.8447402 0 -0.5351766
vn 0.8447402 -0 -0.5351766
vn 0.8447402 -0 -0.5351766
vn 0.8447402 -0 -0.5351766
vn 0.7864926 0 -0.61759967
vn 0.7864926 -0 -0.61759967
vn 0.7864926 -0 -0.61759967
vn 0.7864926 -0 -0.61759967
vn 0.7100137 0 -0.7041878
vn 0.7100137 -0 -0.7041878
vn 0.7100137 -0 -0.7041878
vn 0.7100137 -0 -0.7041878
vn 0.7812532 0 -0.62421435
vn 0.7812532 -0 -0.62421435
vn 0.7812532 -0 -0.62421435
vn 0.7812532 -0 -0.62421435
vn 0.69310015 0 -0.7208413
vn 0.69310015 -0 -0.7208413
vn 0.69310015 -0 -0.7208413
vn 0.69310015 -0 -0.7208413
vn 0.48077923 0 -0.87684166
vn 0.48077923 -0 -0.87684166
vn 0.48077923 -0 -0.87684166
vn 0.48077923 -0 -0.87684166
vn 0.20695351 0 -0.97835076
vn 0.20695351 -0 -0.97835076
vn 0.20695351 -0 -0.97835076
vn 0.20695351 -0 -0.97835076
vn 0.518285 0 -0.855208
vn 0.518285 -0 -0.855208
vn 0.518285 -0 -0.855208
vn 0.518285 -0 -0.855208
vn 0.9309375 0 -0.3651784
vn 0.9309375 -0 -0.3651784
vn 0.97521776 0 0.221247
vn 0.97521776 0 0.221247
g _0
f 3/3/3 2/2/2 1/1/1
f 2/2/2 3/3/3 4/4/4
f 5/5/5 4/4/4 3/3/3
f 4/4/4 5/5/5 6/6/6
f 7/7/7 6/6/6 5/5/5
f 6/6/6 7/7/7 8/8/8
f 9/9/9 8/8/8 7/7/7
f 8/8/8 9/9/9 10/10/10
f 11/11/11 10/10/10 9/9/9
f 10/10/10 11/11/11 12/12/12
f 13/13/13 12/12/12 11/11/11
f 12/12/12 13/13/13 14/14/14
f 15/15/15 14/14/14 13/13/13
f 14/14/14 15/15/15 16/16/16
f 17/17/17 16/16/16 15/15/15
f 16/16/16 17/17/17 18/18/18
f 19/19/19 18/18/18 17/17/17
f 18/18/18 19/19/19 20/20/20
f 21/21/21 20/20/20 19/19/19
f 20/20/20 21/21/21 22/22/22
f 23/23/23 22/22/22 21/21/21
f 22/22/22 23/23/23 24/24/24
g _1
f 25/25/25 26/26/26 27/27/27
f 28/28/28 27/27/27 26/26/26
f 29/29/29 30/30/30 31/31/31
f 32/32/32 31/31/31 30/30/30
f 33/33/33 34/34/34 35/35/35
f 36/36/36 35/35/35 34/34/34
f 37/37/37 38/38/38 39/39/39
f 40/40/40 39/39/39 38/38/38
f 41/41/41 42/42/42 43/43/43
f 44/44/44 43/43/43 42/42/42
f 45/45/45 46/46/46 47/47/47
f 48/48/48 47/47/47 46/46/46
f 49/49/49 50/50/50 51/51/51
f 52/52/52 51/51/51 50/50/50
f 53/53/53 54/54/54 55/55/55
f 56/56/56 55/55/55 54/54/54
f 57/57/57 58/58/58 59/59/59
f 60/60/60 59/59/59 58/58/58
f 61/61/61 62/62/62 63/63/63
f 64/64/64 63/63/63 62/62/62
f 65/65/65 66/66/66 67/67/67
f 68/68/68 67/67/67 66/66/66
f 71/71/71 70/70/70 69/69/69
f 70/70/70 71/71/71 72/72/72
f 75/75/75 74/74/74 73/73/73
f 74/74/74 75/75/75 76/76/76
f 79/79/79 78/78/78 77/77/77
f 78/78/78 79/79/79 80/80/80
f 83/83/83 82/82/82 81/81/81
f 82/82/82 83/83/83 84/84/84
f 87/87/87 86/86/86 85/85/85
f 86/86/86 87/87/87 88/88/88
f 91/91/91 90/90/90 89/89/89
f 90/90/90 91/91/91 92/92/92
f 95/95/95 94/94/94 93/93/93
f 94/94/94 95/95/95 96/96/96
f 99/99/99 98/98/98 97/97/97
f 98/98/98 99/99/99 100/100/100
f 103/103/103 102/102/102 101/101/101
f 102/102/102 103/103/103 104/104/104
f 107/107/107 106/106/106 105/105/105
f 106/106/106 107/107/107 108/108/108
f 111/111/111 110/110/110 109/109/109
f 110/110/110 111/111/111 112/112/112
f 69/69/69 26/26/26 25/25/25
f 26/26/26 69/69/69 70/70/70
f 67/67/67 68/68/68 111/111/111
f 112/112/112 111/111/111 68/68/68
