g 
v 54.49 57.54324 -37.69
v 54.49 42.656757 -37.69
v 57.79 57.91245 -34.41
v 57.79 42.287548 -34.41
v 56.5 57.91245 -32.57
v 56.5 42.287548 -32.57
v 53.44 57.91245 -32.34
v 53.44 42.287548 -32.34
v 52.23 57.91245 -32.8
v 52.23 42.287548 -32.8
v 52.01 57.91245 -33.73
v 52.01 42.287548 -33.73
v 53.09 57.91245 -37.04
v 53.09 42.287548 -37.04
v 54.49 57.54324 -37.69
v 54.49 42.656757 -37.69
vt -0.6549 0.05510002
vt -0.6549 0.05510002
vt -0.6879 0.087900005
vt -0.6879 0.087900005
vt -0.675 0.10630001
vt -0.675 0.10630001
vt -0.6444 0.108600006
vt -0.6444 0.108600006
vt -0.63229996 0.10400001
vt -0.63229996 0.10400001
vt -0.63009995 0.09470001
vt -0.63009995 0.09470001
vt -0.64089996 0.061599996
vt -0.64089996 0.061599996
vt -0.6549 0.05510002
vt -0.6549 0.05510002
vn 0.70495427 0 -0.70925283
vn 0.7049542 -0 -0.7092528
vn 0.81881344 0 0.5740597
vn 0.81881344 0 0.5740597
vn 0.07495179 0 0.99718714
vn 0.07495179 0 0.99718714
vn -0.35535234 -0 0.9347324
vn -0.35535234 0 0.9347324
vn -0.97314173 -0 0.23020677
vn -0.97314173 0 0.23020677
vn -0.9506745 0 -0.31019026
vn -0.9506745 0 -0.31019026
vn -0.4211097 0 -0.9070097
vn -0.42110968 0 -0.9070097
vn -0.42110968 0 -0.9070097
vn -0.42110968 0 -0.9070097
g _0
f 3/3/3 2/2/2 1/1/1
f 2/2/2 3/3/3 4/4/4
f 5/5/5 4/4/4 3/3/3
f 4/4/4 5/5/5 6/6/6
f 7/7/7 6/6/6 5/5/5
f 6/6/6 7/7/7 8/8/8
f 9/9/9 8/8/8 7/7/7
f 8/8/8 9/9/9 10/10/10
f 11/11/11 10/10/10 9/9/9
f 10/10/10 11/11/11 12/12/12
f 13/13/13 12/12/12 11/11/11
f 12/12/12 13/13/13 14/14/14
f 15/15/15 14/14/14 13/13/13
f 14/14/14 15/15/15 16/16/16
