g Mill lvl3 Final Rotor
v -0.24693075 1.1361632 -0.9952909
v -0.24693075 1.2967659 -0.9952909
v 0.22709917 1.2967659 -0.37521064
v 0.22709917 1.1361632 -0.37521064
v 0.39393848 1.1361632 -0.15696849
v 0.39393848 1.2967659 -0.15696849
v 0.47264692 1.1361632 -0.05400981
v 0.47264692 1.2967659 -0.05400981
v 2.5493512 1.2967659 -3.1329558
v 3.0209603 1.2967659 -3.4934855
v 3.4949899 1.2967659 -2.8734066
v 3.0233812 1.2967659 -2.512877
v 1.3870147 1.2967659 -2.2443876
v 3.257202 1.2967659 -2.2070162
v 3.728811 1.2967659 -2.5675454
v 1.8610443 1.2967659 -1.6243087
v -0.24693075 1.2967659 -0.9952909
v 0.22709917 1.2967659 -0.37521064
v 0.39393848 1.2967659 -0.15696849
v 2.0278835 1.2967659 -1.4060661
v 0.47264692 1.2967659 -0.05400981
v 2.106592 1.2967659 -1.3031079
v 3.27055 1.2967678 -2.1929157
v 3.1918414 1.2967678 -2.295874
v 3.0209603 1.2967659 -3.4934855
v 3.0209603 1.1361632 -3.4934855
v 3.4949899 1.1361632 -2.8734066
v 3.4949899 1.2967659 -2.8734066
v 3.728811 1.2967659 -2.5675454
v 3.728811 1.1361632 -2.5675454
v 1.3870147 1.1361632 -2.2443876
v -0.24693075 1.1361632 -0.9952909
v 0.22709917 1.1361632 -0.37521064
v 1.8610449 1.1361632 -1.6243087
v 2.5493512 1.1361632 -3.1329558
v 2.0278838 1.1361632 -1.4060661
v 3.0233812 1.1361632 -2.512877
v 3.0209603 1.1361632 -3.4934855
v 3.4949899 1.1361632 -2.8734066
v 3.728811 1.1361632 -2.5675454
v 3.257202 1.1361632 -2.2070162
v 0.39393848 1.1361632 -0.15696849
v 2.1065924 1.1361632 -1.3031079
v 0.47264692 1.1361632 -0.05400981
v 3.1918416 1.1361653 -2.295874
v 3.27055 1.1361653 -2.1929157
v 2.5493512 1.2967659 -3.1329558
v 3.0209603 1.1361632 -3.4934855
v 3.0209603 1.2967659 -3.4934855
v 2.5493512 1.1361632 -3.1329558
v 1.3870147 1.2967659 -2.2443876
v 1.3870147 1.1361632 -2.2443876
v -0.24693075 1.2967659 -0.9952909
v -0.24693075 1.1361632 -0.9952909
v 3.0233812 1.2967659 -2.512877
v 3.0233812 1.1361632 -2.512877
v 1.8610449 1.1361632 -1.6243087
v 1.8610443 1.2967659 -1.6243087
v 2.106592 1.2967659 -1.3031079
v 0.47264692 1.1361632 -0.05400981
v 0.47264692 1.2967659 -0.05400981
v 2.1065924 1.1361632 -1.3031079
v 3.27055 1.1361653 -2.1929157
v 3.27055 1.2967678 -2.1929157
v 2.0278838 1.1361632 -1.4060661
v 3.1918416 1.1361653 -2.295874
v 3.1918414 1.2967678 -2.295874
v 2.0278835 1.2967659 -1.4060661
v 3.728811 1.2967659 -2.5675454
v 3.728811 1.1361632 -2.5675454
v 3.257202 1.1361632 -2.2070162
v 3.257202 1.2967659 -2.2070162
v 3.0233812 1.2967659 -2.512877
v 3.257202 1.2967659 -2.2070162
v 3.257202 1.1361632 -2.2070162
v 3.0233812 1.1361632 -2.512877
v 1.8610449 1.1361632 -1.6243087
v 2.0278838 1.1361632 -1.4060661
v 2.0278835 1.2967659 -1.4060661
v 1.8610443 1.2967659 -1.6243087
v 3.1918416 1.1361653 -2.295874
v 3.27055 1.1361653 -2.1929157
v 3.27055 1.2967678 -2.1929157
v 3.1918414 1.2967678 -2.295874
v -0.90863496 1.1361632 0.24332105
v -0.90863496 1.2967659 0.24332105
v -0.2885563 1.2967659 -0.23070706
v -0.2885563 1.1361632 -0.23070706
v -0.07031408 1.1361632 -0.39754713
v -0.07031408 1.2967659 -0.39754713
v 0.032644 1.1361632 -0.47625577
v 0.032644 1.2967659 -0.47625577
v -3.0463006 1.2967659 -2.55296
v -3.4068303 1.2967659 -3.0245688
v -2.786751 1.2967659 -3.4985988
v -2.426222 1.2967659 -3.0269902
v -2.1577325 1.2967659 -1.3906232
v -2.1203604 1.2967659 -3.2608113
v -2.4808898 1.2967659 -3.73242
v -1.5376537 1.2967659 -1.8646532
v -0.90863496 1.2967659 0.24332105
v -0.2885563 1.2967659 -0.23070706
v -0.07031408 1.2967659 -0.39754713
v -1.319411 1.2967659 -2.031492
v 0.032644 1.2967659 -0.47625577
v -1.2164526 1.2967659 -2.1102006
v -2.1062603 1.2967678 -3.274159
v -2.2092185 1.2967678 -3.1954508
v -3.4068303 1.2967659 -3.0245688
v -3.4068303 1.1361632 -3.0245688
v -2.786751 1.1361632 -3.4985988
v -2.786751 1.2967659 -3.4985988
v -2.4808898 1.2967659 -3.73242
v -2.4808898 1.1361632 -3.73242
v -2.1577325 1.1361632 -1.3906232
v -0.90863496 1.1361632 0.24332105
v -0.2885563 1.1361632 -0.23070706
v -1.5376537 1.1361632 -1.8646532
v -3.0463006 1.1361632 -2.55296
v -1.3194113 1.1361632 -2.0314925
v -2.426222 1.1361632 -3.0269902
v -3.4068303 1.1361632 -3.0245688
v -2.786751 1.1361632 -3.4985988
v -2.4808898 1.1361632 -3.73242
v -2.1203604 1.1361632 -3.2608113
v -0.07031408 1.1361632 -0.39754713
v -1.216453 1.1361632 -2.1102011
v 0.032644 1.1361632 -0.47625577
v -2.2092185 1.1361649 -3.1954508
v -2.1062603 1.1361649 -3.274159
v -3.0463006 1.2967659 -2.55296
v -3.4068303 1.1361632 -3.0245688
v -3.4068303 1.2967659 -3.0245688
v -3.0463006 1.1361632 -2.55296
v -2.1577325 1.2967659 -1.3906232
v -2.1577325 1.1361632 -1.3906232
v -0.90863496 1.2967659 0.24332105
v -0.90863496 1.1361632 0.24332105
v -2.426222 1.2967659 -3.0269902
v -2.426222 1.1361632 -3.0269902
v -1.5376537 1.1361632 -1.8646532
v -1.5376537 1.2967659 -1.8646532
v -1.2164526 1.2967659 -2.1102006
v 0.032644 1.1361632 -0.47625577
v 0.032644 1.2967659 -0.47625577
v -1.216453 1.1361632 -2.1102011
v -2.1062603 1.1361649 -3.274159
v -2.1062603 1.2967678 -3.274159
v -1.3194113 1.1361632 -2.0314925
v -2.2092185 1.1361649 -3.1954508
v -2.2092185 1.2967678 -3.1954508
v -1.319411 1.2967659 -2.031492
v -2.4808898 1.2967659 -3.73242
v -2.4808898 1.1361632 -3.73242
v -2.1203604 1.1361632 -3.2608113
v -2.1203604 1.2967659 -3.2608113
v -2.426222 1.2967659 -3.0269902
v -2.1203604 1.2967659 -3.2608113
v -2.1203604 1.1361632 -3.2608113
v -2.426222 1.1361632 -3.0269902
v -1.5376537 1.1361632 -1.8646532
v -1.3194113 1.1361632 -2.0314925
v -1.319411 1.2967659 -2.031492
v -1.5376537 1.2967659 -1.8646532
v -2.2092185 1.1361649 -3.1954508
v -2.1062603 1.1361649 -3.274159
v -2.1062603 1.2967678 -3.274159
v -2.2092185 1.2967678 -3.1954508
v 0.26651195 1.136163 1.0059973
v 0.26651195 1.2967657 1.0059973
v -0.20751756 1.2967657 0.38591826
v -0.20751756 1.136163 0.38591826
v -0.3743569 1.136163 0.16767655
v -0.3743569 1.2967657 0.16767655
v -0.45306534 1.136163 0.064717874
v -0.45306534 1.2967657 0.064717874
v -2.5297701 1.2967657 3.143664
v -3.0013793 1.2967657 3.5041928
v -3.4754095 1.2967657 2.8841138
v -3.0038004 1.2967657 2.523584
v -1.367434 1.2967657 2.255096
v -3.2376213 1.2967657 2.2177224
v -3.7092302 1.2967657 2.5782514
v -1.8414637 1.2967657 1.6350161
v 0.26651195 1.2967657 1.0059973
v -0.20751756 1.2967657 0.38591826
v -0.3743569 1.2967657 0.16767655
v -2.0083025 1.2967657 1.4167734
v -0.45306534 1.2967657 0.064717874
v -2.0870106 1.2967657 1.3138148
v -3.2509687 1.2967675 2.2036223
v -3.1722608 1.2967675 2.30658
v -3.0013793 1.2967657 3.5041928
v -3.0013793 1.136163 3.5041928
v -3.4754095 1.136163 2.8841138
v -3.4754095 1.2967657 2.8841138
v -3.7092302 1.2967657 2.5782514
v -3.7092302 1.136163 2.5782514
v -1.367434 1.136163 2.255096
v 0.26651195 1.136163 1.0059973
v -0.20751756 1.136163 0.38591826
v -1.8414637 1.136163 1.6350161
v -2.5297701 1.136163 3.143664
v -2.0083032 1.136163 1.4167734
v -3.0038004 1.136163 2.523584
v -3.0013793 1.136163 3.5041928
v -3.4754095 1.136163 2.8841138
v -3.7092302 1.136163 2.5782514
v -3.2376213 1.136163 2.2177224
v -0.3743569 1.136163 0.16767655
v -2.087011 1.136163 1.3138157
v -0.45306534 1.136163 0.064717874
v -3.1722608 1.1361648 2.30658
v -3.2509687 1.1361648 2.2036223
v -2.5297701 1.2967657 3.143664
v -3.0013793 1.136163 3.5041928
v -3.0013793 1.2967657 3.5041928
v -2.5297701 1.136163 3.143664
v -1.367434 1.2967657 2.255096
v -1.367434 1.136163 2.255096
v 0.26651195 1.2967657 1.0059973
v 0.26651195 1.136163 1.0059973
v -3.0038004 1.2967657 2.523584
v -3.0038004 1.136163 2.523584
v -1.8414637 1.136163 1.6350161
v -1.8414637 1.2967657 1.6350161
v -2.0870106 1.2967657 1.3138148
v -0.45306534 1.136163 0.064717874
v -0.45306534 1.2967657 0.064717874
v -2.087011 1.136163 1.3138157
v -3.2509687 1.1361648 2.2036223
v -3.2509687 1.2967675 2.2036223
v -2.0083032 1.136163 1.4167734
v -3.1722608 1.1361648 2.30658
v -3.1722608 1.2967675 2.30658
v -2.0083025 1.2967657 1.4167734
v -3.7092302 1.2967657 2.5782514
v -3.7092302 1.136163 2.5782514
v -3.2376213 1.136163 2.2177224
v -3.2376213 1.2967657 2.2177224
v -3.0038004 1.2967657 2.523584
v -3.2376213 1.2967657 2.2177224
v -3.2376213 1.136163 2.2177224
v -3.0038004 1.136163 2.523584
v -1.8414637 1.136163 1.6350161
v -2.0083032 1.136163 1.4167734
v -2.0083025 1.2967657 1.4167734
v -1.8414637 1.2967657 1.6350161
v -3.1722608 1.1361648 2.30658
v -3.2509687 1.1361648 2.2036223
v -3.2509687 1.2967675 2.2036223
v -3.1722608 1.2967675 2.30658
v 0.8187154 1.136163 -0.26788175
v 0.8187154 1.2967657 -0.26788175
v 0.1986364 1.2967657 0.20614778
v 0.1986364 1.136163 0.20614778
v -0.019606195 1.136163 0.37298644
v -0.019606195 1.2967657 0.37298644
v -0.122564286 1.136163 0.45169508
v -0.122564286 1.2967657 0.45169508
v 2.9563808 1.2967657 2.5284
v 3.3169103 1.2967657 3.00001
v 2.6968315 1.2967657 3.4740396
v 2.3363018 1.2967657 3.0024314
v 2.0678132 1.2967657 1.3660647
v 2.0304403 1.2967657 3.2362514
v 2.3909702 1.2967657 3.7078605
v 1.4477338 1.2967657 1.8400942
v 0.8187154 1.2967657 -0.26788175
v 0.1986364 1.2967657 0.20614778
v -0.019606195 1.2967657 0.37298644
v 1.2294912 1.2967657 2.0069327
v -0.122564286 1.2967657 0.45169508
v 1.1265327 1.2967657 2.0856404
v 2.0163405 1.2967675 3.249599
v 2.1192987 1.2967675 3.1708903
v 3.3169103 1.2967657 3.00001
v 3.3169103 1.136163 3.00001
v 2.6968315 1.136163 3.4740396
v 2.6968315 1.2967657 3.4740396
v 2.3909702 1.2967657 3.7078605
v 2.3909702 1.1361631 3.7078605
v 2.0678132 1.136163 1.3660647
v 0.8187154 1.136163 -0.26788175
v 0.1986364 1.136163 0.20614778
v 1.4477338 1.136163 1.8400942
v 2.9563808 1.136163 2.5284
v 1.2294914 1.136163 2.0069327
v 2.3363018 1.136163 3.0024314
v 3.3169103 1.136163 3.00001
v 2.6968315 1.136163 3.4740396
v 2.3909702 1.1361631 3.7078605
v 2.0304403 1.136163 3.2362514
v -0.019606195 1.136163 0.37298644
v 1.126533 1.136163 2.0856414
v -0.122564286 1.136163 0.45169508
v 2.1192987 1.1361648 3.1708903
v 2.0163405 1.1361648 3.249599
v 2.9563808 1.2967657 2.5284
v 3.3169103 1.136163 3.00001
v 3.3169103 1.2967657 3.00001
v 2.9563808 1.136163 2.5284
v 2.0678132 1.2967657 1.3660647
v 2.0678132 1.136163 1.3660647
v 0.8187154 1.2967657 -0.26788175
v 0.8187154 1.136163 -0.26788175
v 2.3363018 1.2967657 3.0024314
v 2.3363018 1.136163 3.0024314
v 1.4477338 1.136163 1.8400942
v 1.4477338 1.2967657 1.8400942
v 1.1265327 1.2967657 2.0856404
v -0.122564286 1.136163 0.45169508
v -0.122564286 1.2967657 0.45169508
v 1.126533 1.136163 2.0856414
v 2.0163405 1.1361648 3.249599
v 2.0163405 1.2967675 3.249599
v 1.2294914 1.136163 2.0069327
v 2.1192987 1.1361648 3.1708903
v 2.1192987 1.2967675 3.1708903
v 1.2294912 1.2967657 2.0069327
v 2.3909702 1.2967657 3.7078605
v 2.3909702 1.1361631 3.7078605
v 2.0304403 1.136163 3.2362514
v 2.0304403 1.2967657 3.2362514
v 2.3363018 1.2967657 3.0024314
v 2.0304403 1.2967657 3.2362514
v 2.0304403 1.136163 3.2362514
v 2.3363018 1.136163 3.0024314
v 1.4477338 1.136163 1.8400942
v 1.2294914 1.136163 2.0069327
v 1.2294912 1.2967657 2.0069327
v 1.4477338 1.2967657 1.8400942
v 2.1192987 1.1361648 3.1708903
v 2.0163405 1.1361648 3.249599
v 2.0163405 1.2967675 3.249599
v 2.1192987 1.2967675 3.1708903
v 0.214828 -1.1920929E-07 -0.04507052
v 0.09737532 -1.1920929E-07 -0.16252321
v -0.09737835 -1.1920929E-07 -0.16252321
v -0.21483104 -1.1920929E-07 -0.04507053
v -0.21483104 -1.1920929E-07 0.045070045
v 0.214828 -1.1920929E-07 0.045070052
v -0.09737836 -1.1920929E-07 0.16252273
v 0.09737531 -1.1920929E-07 0.16252273
v 0.09737532 1.1330408 0.16252273
v -0.09737836 -1.1920929E-07 0.16252273
v -0.09737835 1.1330408 0.16252273
v 0.09737531 -1.1920929E-07 0.16252273
v 0.214828 -1.1920929E-07 0.045070052
v 0.214828 1.1330408 0.045070045
v 0.214828 1.1330408 -0.04507053
v 0.214828 -1.1920929E-07 -0.04507052
v 0.09737532 -1.1920929E-07 -0.16252321
v 0.09737531 1.1330408 -0.16252321
v -0.09737836 1.1330408 -0.16252321
v -0.09737835 -1.1920929E-07 -0.16252321
v -0.21483104 -1.1920929E-07 -0.04507053
v -0.21483104 1.1330408 -0.04507052
v -0.21483104 -1.1920929E-07 -0.04507053
v -0.21483104 1.1330408 -0.04507052
v -0.21483104 1.1330408 0.045070052
v -0.21483104 -1.1920929E-07 0.045070045
v -0.09737836 -1.1920929E-07 0.16252273
v -0.09737835 1.1330408 0.16252273
v -0.21483104 1.1330408 -0.04507052
v -0.09737836 1.1330408 -0.16252321
v 0.09737531 1.1330408 -0.16252321
v 0.214828 1.1330408 -0.04507053
v 0.214828 1.1330408 0.045070045
v -0.21483104 1.1330408 0.045070052
v 0.09737532 1.1330408 0.16252273
v -0.09737835 1.1330408 0.16252273
v -0.31161633 1.2977111 -0.3432207
v -0.20615873 1.8498251 -0.15596104
v -0.20615873 1.8498251 0.15596104
v -0.31161633 1.2977111 0.34321976
v -0.20615873 1.8498251 -0.15596104
v 0.20615254 1.8498251 -0.15596104
v 0.20615254 1.8498251 0.15596104
v -0.20615873 1.8498251 0.15596104
v 0.20615254 1.8498251 -0.15596104
v 0.31161448 1.2977111 -0.3432207
v 0.31161448 1.2977111 0.34321976
v 0.20615254 1.8498251 0.15596104
v 0.31161448 1.2977111 -0.3432207
v -0.31161633 1.2977111 -0.3432207
v -0.31161633 1.2977111 0.34321976
v 0.31161448 1.2977111 0.34321976
v -0.20615873 1.8498251 -0.15596104
v -0.31161633 1.2977111 -0.3432207
v 0.31161448 1.2977111 -0.3432207
v 0.20615254 1.8498251 -0.15596104
v 0.20615254 1.8498251 0.15596104
v 0.31161448 1.2977111 0.34321976
v -0.31161633 1.2977111 0.34321976
v -0.20615873 1.8498251 0.15596104
vt 0.375 0
vt 0.375 0.25
vt 0.625 0.25
vt 0.625 0
vt 0.625 0
vt 0.625 0.25
vt 0.625 0
vt 0.625 0.25
vt 0.375 0.463921
vt 0.375 0.5
vt 0.625 0.5
vt 0.625 0.463921
vt 0.375 0.375
vt 0.625 0.463921
vt 0.625 0.5
vt 0.625 0.375
vt 0.375 0.25
vt 0.625 0.25
vt 0.625 0.25
vt 0.625 0.375
vt 0.625 0.25
vt 0.625 0.375
vt 0.625 0.375
vt 0.625 0.375
vt 0.375 0.5
vt 0.375 0.75
vt 0.625 0.75
vt 0.625 0.5
vt 0.625 0.5
vt 0.625 0.75
vt 0.375 0.875
vt 0.375 1
vt 0.625 1
vt 0.625 0.875
vt 0.375 0.78607893
vt 0.625 0.875
vt 0.625 0.786079
vt 0.375 0.75
vt 0.625 0.75
vt 0.625 0.75
vt 0.625 0.786079
vt 0.625 1
vt 0.625 0.875
vt 0.625 1
vt 0.625 0.875
vt 0.625 0.875
vt 0.338921 0.5
vt 0.375 0.75
vt 0.375 0.5
vt 0.338921 0.75
vt 0.25 0.5
vt 0.25 0.75
vt 0.125 0.5
vt 0.125 0.75
vt 0.661079 0.5
vt 0.66107905 0.75
vt 0.75 0.75
vt 0.75 0.5
vt 0.75 0.5
vt 0.875 0.75
vt 0.875 0.5
vt 0.75 0.75
vt 0.75 0.75
vt 0.75 0.5
vt 0.75 0.75
vt 0.75 0.75
vt 0.75 0.5
vt 0.75 0.5
vt 0.625 0.5
vt 0.625 0.75
vt 0.66107905 0.75
vt 0.661079 0.5
vt 0.661079 0.5
vt 0.661079 0.5
vt 0.66107905 0.75
vt 0.66107905 0.75
vt 0.75 0.75
vt 0.75 0.75
vt 0.75 0.5
vt 0.75 0.5
vt 0.75 0.75
vt 0.75 0.75
vt 0.75 0.5
vt 0.75 0.5
vt 0.375 0
vt 0.375 0.25
vt 0.625 0.25
vt 0.625 0
vt 0.625 0
vt 0.625 0.25
vt 0.625 0
vt 0.625 0.25
vt 0.375 0.463921
vt 0.375 0.5
vt 0.625 0.5
vt 0.625 0.463921
vt 0.375 0.375
vt 0.625 0.463921
vt 0.625 0.5
vt 0.625 0.375
vt 0.375 0.25
vt 0.625 0.25
vt 0.625 0.25
vt 0.625 0.375
vt 0.625 0.25
vt 0.625 0.375
vt 0.625 0.375
vt 0.625 0.375
vt 0.375 0.5
vt 0.375 0.75
vt 0.625 0.75
vt 0.625 0.5
vt 0.625 0.5
vt 0.625 0.75
vt 0.375 0.875
vt 0.375 1
vt 0.625 1
vt 0.625 0.875
vt 0.375 0.78607893
vt 0.625 0.875
vt 0.625 0.786079
vt 0.375 0.75
vt 0.625 0.75
vt 0.625 0.75
vt 0.625 0.786079
vt 0.625 1
vt 0.625 0.875
vt 0.625 1
vt 0.625 0.875
vt 0.625 0.875
vt 0.338921 0.5
vt 0.375 0.75
vt 0.375 0.5
vt 0.338921 0.75
vt 0.25 0.5
vt 0.25 0.75
vt 0.125 0.5
vt 0.125 0.75
vt 0.661079 0.5
vt 0.66107905 0.75
vt 0.75 0.75
vt 0.75 0.5
vt 0.75 0.5
vt 0.875 0.75
vt 0.875 0.5
vt 0.75 0.75
vt 0.75 0.75
vt 0.75 0.5
vt 0.75 0.75
vt 0.75 0.75
vt 0.75 0.5
vt 0.75 0.5
vt 0.625 0.5
vt 0.625 0.75
vt 0.66107905 0.75
vt 0.661079 0.5
vt 0.661079 0.5
vt 0.661079 0.5
vt 0.66107905 0.75
vt 0.66107905 0.75
vt 0.75 0.75
vt 0.75 0.75
vt 0.75 0.5
vt 0.75 0.5
vt 0.75 0.75
vt 0.75 0.75
vt 0.75 0.5
vt 0.75 0.5
vt 0.375 0
vt 0.375 0.25
vt 0.625 0.25
vt 0.625 0
vt 0.625 0
vt 0.625 0.25
vt 0.625 0
vt 0.625 0.25
vt 0.375 0.463921
vt 0.375 0.5
vt 0.625 0.5
vt 0.625 0.463921
vt 0.375 0.375
vt 0.625 0.463921
vt 0.625 0.5
vt 0.625 0.375
vt 0.375 0.25
vt 0.625 0.25
vt 0.625 0.25
vt 0.625 0.375
vt 0.625 0.25
vt 0.625 0.375
vt 0.625 0.375
vt 0.625 0.375
vt 0.375 0.5
vt 0.375 0.75
vt 0.625 0.75
vt 0.625 0.5
vt 0.625 0.5
vt 0.625 0.75
vt 0.375 0.875
vt 0.375 1
vt 0.625 1
vt 0.625 0.875
vt 0.375 0.78607893
vt 0.625 0.875
vt 0.625 0.786079
vt 0.375 0.75
vt 0.625 0.75
vt 0.625 0.75
vt 0.625 0.786079
vt 0.625 1
vt 0.625 0.875
vt 0.625 1
vt 0.625 0.875
vt 0.625 0.875
vt 0.338921 0.5
vt 0.375 0.75
vt 0.375 0.5
vt 0.338921 0.75
vt 0.25 0.5
vt 0.25 0.75
vt 0.125 0.5
vt 0.125 0.75
vt 0.661079 0.5
vt 0.66107905 0.75
vt 0.75 0.75
vt 0.75 0.5
vt 0.75 0.5
vt 0.875 0.75
vt 0.875 0.5
vt 0.75 0.75
vt 0.75 0.75
vt 0.75 0.5
vt 0.75 0.75
vt 0.75 0.75
vt 0.75 0.5
vt 0.75 0.5
vt 0.625 0.5
vt 0.625 0.75
vt 0.66107905 0.75
vt 0.661079 0.5
vt 0.661079 0.5
vt 0.661079 0.5
vt 0.66107905 0.75
vt 0.66107905 0.75
vt 0.75 0.75
vt 0.75 0.75
vt 0.75 0.5
vt 0.75 0.5
vt 0.75 0.75
vt 0.75 0.75
vt 0.75 0.5
vt 0.75 0.5
vt 0.375 0
vt 0.375 0.25
vt 0.625 0.25
vt 0.625 0
vt 0.625 0
vt 0.625 0.25
vt 0.625 0
vt 0.625 0.25
vt 0.375 0.463921
vt 0.375 0.5
vt 0.625 0.5
vt 0.625 0.463921
vt 0.375 0.375
vt 0.625 0.463921
vt 0.625 0.5
vt 0.625 0.375
vt 0.375 0.25
vt 0.625 0.25
vt 0.625 0.25
vt 0.625 0.375
vt 0.625 0.25
vt 0.625 0.375
vt 0.625 0.375
vt 0.625 0.375
vt 0.375 0.5
vt 0.375 0.75
vt 0.625 0.75
vt 0.625 0.5
vt 0.625 0.5
vt 0.625 0.75
vt 0.375 0.875
vt 0.375 1
vt 0.625 1
vt 0.625 0.875
vt 0.375 0.78607893
vt 0.625 0.875
vt 0.625 0.786079
vt 0.375 0.75
vt 0.625 0.75
vt 0.625 0.75
vt 0.625 0.786079
vt 0.625 1
vt 0.625 0.875
vt 0.625 1
vt 0.625 0.875
vt 0.625 0.875
vt 0.338921 0.5
vt 0.375 0.75
vt 0.375 0.5
vt 0.338921 0.75
vt 0.25 0.5
vt 0.25 0.75
vt 0.125 0.5
vt 0.125 0.75
vt 0.661079 0.5
vt 0.66107905 0.75
vt 0.75 0.75
vt 0.75 0.5
vt 0.75 0.5
vt 0.875 0.75
vt 0.875 0.5
vt 0.75 0.75
vt 0.75 0.75
vt 0.75 0.5
vt 0.75 0.75
vt 0.75 0.75
vt 0.75 0.5
vt 0.75 0.5
vt 0.625 0.5
vt 0.625 0.75
vt 0.66107905 0.75
vt 0.661079 0.5
vt 0.661079 0.5
vt 0.661079 0.5
vt 0.66107905 0.75
vt 0.66107905 0.75
vt 0.75 0.75
vt 0.75 0.75
vt 0.75 0.5
vt 0.75 0.5
vt 0.75 0.75
vt 0.75 0.75
vt 0.75 0.5
vt 0.75 0.5
vt 0.46533543 0.75
vt 0.375 0.81834066
vt 0.375 0.93165934
vt 0.46533546 1
vt 0.5346645 1
vt 0.5346645 0.75
vt 0.625 0.93165934
vt 0.625 0.81834066
vt 0.6933406 0.5
vt 0.8066594 0.75
vt 0.80665934 0.5
vt 0.69334066 0.75
vt 0.5346646 0.75
vt 0.5346645 0.5
vt 0.46533543 0.5
vt 0.46533546 0.75
vt 0.3066594 0.75
vt 0.30665937 0.5
vt 0.19334063 0.5
vt 0.19334064 0.75
vt 0.125 0.75
vt 0.125 0.5
vt 0.46533543 0
vt 0.46533546 0.25
vt 0.5346646 0.25
vt 0.5346645 0
vt 0.625 0
vt 0.625 0.25
vt 0.46533543 0.25
vt 0.375 0.31834066
vt 0.375 0.43165937
vt 0.46533546 0.5
vt 0.5346645 0.5
vt 0.5346645 0.25
vt 0.625 0.43165934
vt 0.625 0.31834063
vt 0.375 0
vt 0.375 0.121821314
vt 0.625 0.12182131
vt 0.625 0
vt 0.375 0.121821314
vt 0.375 0.6281787
vt 0.625 0.6281788
vt 0.625 0.12182131
vt 0.375 0.6281787
vt 0.375 0.75
vt 0.625 0.75
vt 0.625 0.6281788
vt 0.375 0.75
vt 0.375 1
vt 0.625 1
vt 0.625 0.75
vt 0.125 0.6281788
vt 0.125 0.75
vt 0.375 0.75
vt 0.375 0.6281787
vt 0.625 0.6281788
vt 0.625 0.75
vt 0.875 0.75
vt 0.875 0.6281787
vn -0.79445016 0 0.6073294
vn -0.79445016 0 0.6073294
vn -0.7944495 0 0.60733026
vn -0.7944495 0 0.60733026
vn -0.7944493 0 0.6073305
vn -0.7944493 0 0.6073305
vn -0.7944498 0 0.6073298
vn -0.7944498 0 0.6073298
vn -0 1 0
vn -0 1 0
vn -0 1 0
vn -0 1 0
vn -0 1 0
vn -0 1 0
vn -0 1 0
vn -0 1 0
vn -0 1 0
vn -0 1 0
vn -0 1 0
vn -0 1 0
vn -0 1 0
vn -0 1 0
vn -0 1 0
vn -0 1 0
vn 0.7944495 0 -0.60733026
vn 0.7944495 0 -0.60733026
vn 0.79444927 0 -0.60733056
vn 0.79444927 0 -0.60733056
vn 0.79444903 0 -0.6073309
vn 0.79444903 0 -0.6073309
vn -0 -1 0
vn -0 -1 0
vn -0 -1 0
vn -0 -1 0
vn -0 -1 0
vn -0 -1 0
vn -0 -1 0
vn -0 -1 0
vn -0 -1 0
vn -0 -1 0
vn -0 -1 0
vn -0 -1 0
vn -0 -1 0
vn -0 -1 0
vn -0 -1 0
vn -0 -1 0
vn -0.60733056 0 -0.7944492
vn -0.6073307 0 -0.7944492
vn -0.6073307 0 -0.7944492
vn -0.60733056 0 -0.7944492
vn -0.6073303 0 -0.7944494
vn -0.6073303 0 -0.7944494
vn -0.6073302 0 -0.79444957
vn -0.6073302 0 -0.79444957
vn 0.60733056 0 0.79444927
vn 0.60733056 0 0.79444927
vn 0.60733056 0 0.79444927
vn 0.60733056 0 0.79444927
vn 0.60733056 0 0.7944492
vn 0.6073306 0 0.7944492
vn 0.6073306 0 0.7944492
vn 0.60733056 0 0.7944492
vn 0.60733056 0 0.79444927
vn 0.60733056 0 0.79444927
vn -0.60733026 0 -0.7944495
vn -0.60733026 0 -0.7944495
vn -0.60733026 0 -0.7944495
vn -0.60733026 0 -0.7944495
vn 0.60733026 0 0.7944495
vn 0.60733026 0 0.7944495
vn 0.60733026 0 0.7944495
vn 0.60733026 0 0.7944495
vn -0.7944493 0 0.60733044
vn -0.7944493 0 0.60733044
vn -0.7944493 0 0.60733044
vn -0.7944493 0 0.60733044
vn 0.7944498 0 -0.60732985
vn 0.7944498 0 -0.60732985
vn 0.7944498 0 -0.60732985
vn 0.7944498 0 -0.60732985
vn 0.79444844 0 -0.6073317
vn 0.79444844 0 -0.6073317
vn 0.79444844 0 -0.6073317
vn 0.79444844 0 -0.6073317
vn 0.60732925 0 0.7944502
vn 0.60732925 0 0.7944502
vn 0.6073311 0 0.7944488
vn 0.6073311 0 0.7944488
vn 0.6073331 0 0.7944473
vn 0.6073331 0 0.7944473
vn 0.6073334 0 0.794447
vn 0.6073334 0 0.794447
vn -0 1 0
vn -0 1 0
vn -0 1 0
vn -0 1 0
vn -0 1 0
vn -0 1 0
vn -0 1 0
vn -0 1 0
vn -0 1 0
vn -0 1 0
vn -0 1 0
vn -0 1 0
vn -0 1 0
vn -0 1 0
vn -0 1 0
vn -0 1 0
vn -0.60733044 0 -0.7944493
vn -0.60733044 0 -0.7944493
vn -0.60733056 0 -0.79444927
vn -0.60733056 0 -0.79444927
vn -0.60733074 0 -0.7944492
vn -0.60733074 0 -0.7944492
vn -0 -1 0
vn -0 -1 0
vn -0 -1 0
vn -0 -1 0
vn -0 -1 0
vn -0 -1 0
vn -0 -1 0
vn -0 -1 0
vn -0 -1 0
vn -0 -1 0
vn -0 -1 0
vn -0 -1 0
vn -0 -1 0
vn -0 -1 0
vn -0 -1 0
vn -0 -1 0
vn -0.79444927 0 0.60733056
vn -0.7944493 0 0.60733056
vn -0.7944493 0 0.60733056
vn -0.79444927 0 0.60733056
vn -0.7944492 0 0.6073307
vn -0.7944492 0 0.6073307
vn -0.79444903 0 0.60733074
vn -0.79444903 0 0.60733074
vn 0.7944495 0 -0.6073302
vn 0.7944495 0 -0.6073302
vn 0.7944495 0 -0.6073302
vn 0.7944495 0 -0.6073302
vn 0.7944495 0 -0.60733026
vn 0.79444957 0 -0.6073302
vn 0.79444957 0 -0.6073302
vn 0.7944495 0 -0.60733026
vn 0.7944494 0 -0.6073303
vn 0.7944494 0 -0.6073303
vn -0.7944495 0 0.6073303
vn -0.7944495 0 0.6073303
vn -0.7944495 0 0.6073303
vn -0.7944495 0 0.6073303
vn 0.7944495 0 -0.60733026
vn 0.7944495 0 -0.60733026
vn 0.7944495 0 -0.60733026
vn 0.7944495 0 -0.60733026
vn 0.6073302 0 0.7944495
vn 0.6073302 0 0.7944495
vn 0.6073302 0 0.7944495
vn 0.6073302 0 0.7944495
vn -0.6073304 0 -0.7944493
vn -0.6073304 0 -0.7944493
vn -0.6073304 0 -0.7944493
vn -0.6073304 0 -0.7944493
vn -0.6073309 0 -0.79444903
vn -0.6073309 0 -0.79444903
vn -0.6073309 0 -0.79444903
vn -0.6073309 0 -0.79444903
vn 0.7944498 0 -0.6073299
vn 0.7944498 0 -0.6073299
vn 0.7944489 0 -0.60733104
vn 0.7944489 0 -0.60733104
vn 0.7944488 0 -0.6073311
vn 0.7944488 0 -0.6073311
vn 0.7944496 0 -0.60733
vn 0.7944496 0 -0.60733
vn -0 1 0
vn -0 1 0
vn -0 1 0
vn -0 1 0
vn -0 1 0
vn -0 1 0
vn -0 1 0
vn -0 1 0
vn -0 1 0
vn -0 1 0
vn -0 1 0
vn -0 1 0
vn -0 1 0
vn -0 1 0
vn -0 1 0
vn -0 1 0
vn -0.79444927 0 0.60733056
vn -0.79444927 0 0.60733056
vn -0.79445016 0 0.6073294
vn -0.79445016 0 0.6073294
vn -0.79445094 0 0.60732836
vn -0.79445094 0 0.60732836
vn -0 -1 0
vn -0 -1 0
vn -0 -1 0
vn -0 -1 0
vn -0 -1 0
vn -0 -1 0
vn -0 -1 0
vn -0 -1 0
vn -0 -1 0
vn -0 -1 0
vn -0 -1 0
vn -0 -1 0
vn -0 -1 0
vn -0 -1 0
vn -0 -1 0
vn -0 -1 0
vn 0.6073299 0 0.7944497
vn 0.60732955 0 0.79445
vn 0.60732955 0 0.79445
vn 0.6073299 0 0.7944497
vn 0.60733044 0 0.7944493
vn 0.60733044 0 0.7944493
vn 0.6073306 0 0.7944492
vn 0.6073306 0 0.7944492
vn -0.6073303 0 -0.7944493
vn -0.6073303 0 -0.7944493
vn -0.6073303 0 -0.7944493
vn -0.6073303 0 -0.7944493
vn -0.60733056 0 -0.79444927
vn -0.60733056 0 -0.79444927
vn -0.60733056 0 -0.79444927
vn -0.60733056 0 -0.7944492
vn -0.60733056 0 -0.7944492
vn -0.60733056 0 -0.7944492
vn 0.6073303 0 0.7944493
vn 0.6073303 0 0.7944493
vn 0.6073303 0 0.7944493
vn 0.6073303 0 0.7944493
vn -0.60732985 0 -0.7944498
vn -0.60732985 0 -0.7944498
vn -0.60732985 0 -0.7944498
vn -0.60732985 0 -0.7944498
vn 0.7944496 0 -0.60733014
vn 0.7944496 0 -0.60733014
vn 0.7944496 0 -0.60733014
vn 0.7944496 0 -0.60733014
vn -0.7944496 0 0.60733
vn -0.7944496 0 0.60733
vn -0.7944496 0 0.60733
vn -0.7944496 0 0.60733
vn -0.79444873 0 0.6073313
vn -0.79444873 0 0.6073313
vn -0.79444873 0 0.6073313
vn -0.79444873 0 0.6073313
vn -0.60733026 0 -0.7944495
vn -0.60733026 0 -0.7944495
vn -0.60732955 0 -0.7944499
vn -0.60732955 0 -0.7944499
vn -0.6073311 0 -0.7944488
vn -0.6073311 0 -0.7944488
vn -0.60733324 0 -0.7944471
vn -0.60733324 0 -0.7944471
vn -0 1 0
vn -0 1 0
vn -0 1 0
vn -0 1 0
vn -0 1 0
vn -0 1 0
vn -0 1 0
vn -0 1 0
vn -0 1 0
vn -0 1 0
vn -0 1 0
vn -0 1 0
vn -0 1 0
vn -0 1 0
vn -0 1 0
vn -0 1 0
vn 0.6073298 0 0.7944498
vn 0.6073298 0 0.7944498
vn 0.6073303 0 0.7944494
vn 0.6073303 0 0.7944493
vn 0.6073309 0 0.79444903
vn 0.6073309 0 0.79444903
vn -0 -1 0
vn -0 -1 0
vn -0 -1 0
vn -0 -1 0
vn -0 -1 0
vn -0 -1 0
vn -0 -1 0
vn -0 -1 0
vn -0 -1 0
vn -0 -1 0
vn -0 -1 0
vn -0 -1 0
vn -0 -1 0
vn -0 -1 0
vn -0 -1 0
vn -0 -1 0
vn 0.7944496 0 -0.60732996
vn 0.7944502 0 -0.6073292
vn 0.7944502 0 -0.6073292
vn 0.7944496 0 -0.60732996
vn 0.79444927 0 -0.60733056
vn 0.79444927 0 -0.60733056
vn 0.7944495 0 -0.6073303
vn 0.7944495 0 -0.6073303
vn -0.7944493 0 0.60733044
vn -0.7944493 0 0.60733044
vn -0.7944493 0 0.60733044
vn -0.7944493 0 0.60733044
vn -0.7944495 0 0.6073302
vn -0.7944493 0 0.60733044
vn -0.7944493 0 0.60733044
vn -0.7944495 0 0.60733026
vn -0.7944496 0 0.60732996
vn -0.7944496 0 0.60732996
vn 0.7944495 0 -0.6073302
vn 0.7944495 0 -0.6073302
vn 0.7944495 0 -0.6073302
vn 0.7944495 0 -0.6073302
vn -0.79444927 0 0.60733056
vn -0.79444927 0 0.60733056
vn -0.79444927 0 0.60733056
vn -0.79444927 0 0.60733056
vn -0.60732836 0 -0.794451
vn -0.60732836 0 -0.794451
vn -0.60732836 0 -0.794451
vn -0.60732836 0 -0.794451
vn 0.6073287 0 0.79445064
vn 0.6073287 0 0.79445064
vn 0.6073287 0 0.79445064
vn 0.6073287 0 0.79445064
vn 0.607333 0 0.7944473
vn 0.607333 0 0.7944473
vn 0.607333 0 0.7944473
vn 0.607333 0 0.7944473
vn -0 -1 0
vn -0 -1 0
vn -0 -1 0
vn -0 -1 0
vn -0 -1 0
vn -0 -1 0
vn -0 -1 0
vn -0 -1 0
vn 0.3826834 0 0.9238795
vn -0.3826834 0 0.9238795
vn -0.3826834 0 0.9238795
vn 0.3826834 0 0.9238795
vn 0.9238795 0 0.3826834
vn 0.9238795 0 0.3826834
vn 0.9238795 0 -0.3826834
vn 0.9238795 0 -0.3826834
vn 0.3826834 0 -0.9238795
vn 0.3826834 0 -0.9238795
vn -0.3826834 0 -0.9238795
vn -0.3826834 0 -0.9238795
vn -0.9238795 0 -0.3826834
vn -0.9238795 0 -0.3826834
vn -0.9238795 0 -0.3826834
vn -0.9238795 0 -0.3826834
vn -0.9238795 0 0.3826834
vn -0.9238795 0 0.3826834
vn -0.3826834 0 0.9238795
vn -0.3826834 0 0.9238795
vn -0 1 0
vn -0 1 0
vn -0 1 0
vn -0 1 0
vn -0 1 0
vn -0 1 0
vn -0 1 0
vn -0 1 0
vn -0.9822426 0.18761517 0
vn -0.9822426 0.18761517 0
vn -0.9822426 0.18761517 0
vn -0.9822426 0.18761517 0
vn -0 1 0
vn -0 1 0
vn -0 1 0
vn -0 1 0
vn 0.9822412 0.18762265 0
vn 0.9822412 0.18762265 0
vn 0.9822412 0.18762265 0
vn 0.9822412 0.18762265 0
vn -0 -1 0
vn -0 -1 0
vn -0 -1 0
vn -0 -1 0
vn -0 0.32119688 -0.9470125
vn -0 0.32119688 -0.9470125
vn -0 0.32119688 -0.9470125
vn -0 0.32119688 -0.9470125
vn -0 0.3211954 0.947013
vn -0 0.3211954 0.947013
vn -0 0.3211954 0.947013
vn -0 0.3211954 0.947013
g Mill lvl3 Final Rotor_0
f 3/3/3 2/2/2 1/1/1
f 4/4/4 3/3/3 1/1/1
f 4/4/4 5/5/5 3/3/3
f 5/5/5 6/6/6 3/3/3
f 5/5/5 7/7/7 6/6/6
f 7/7/7 8/8/8 6/6/6
f 11/11/11 10/10/10 9/9/9
f 12/12/12 11/11/11 9/9/9
f 12/12/12 9/9/9 13/13/13
f 12/12/12 14/14/14 11/11/11
f 14/14/14 15/15/15 11/11/11
f 16/16/16 12/12/12 13/13/13
f 16/16/16 13/13/13 17/17/17
f 18/18/18 16/16/16 17/17/17
f 18/18/18 19/19/19 16/16/16
f 19/19/19 20/20/20 16/16/16
f 19/19/19 21/21/21 20/20/20
f 21/21/21 22/22/22 20/20/20
f 22/22/22 23/23/23 20/20/20
f 23/23/23 24/24/24 20/20/20
f 27/27/27 26/26/26 25/25/25
f 28/28/28 27/27/27 25/25/25
f 28/28/28 29/29/29 27/27/27
f 29/29/29 30/30/30 27/27/27
f 33/33/33 32/32/32 31/31/31
f 34/34/34 33/33/33 31/31/31
f 34/34/34 31/31/31 35/35/35
f 34/34/34 36/36/36 33/33/33
f 37/37/37 34/34/34 35/35/35
f 37/37/37 35/35/35 38/38/38
f 39/39/39 37/37/37 38/38/38
f 39/39/39 40/40/40 37/37/37
f 40/40/40 41/41/41 37/37/37
f 36/36/36 42/42/42 33/33/33
f 36/36/36 43/43/43 42/42/42
f 43/43/43 44/44/44 42/42/42
f 36/36/36 45/45/45 43/43/43
f 45/45/45 46/46/46 43/43/43
f 49/49/49 48/48/48 47/47/47
f 48/48/48 50/50/50 47/47/47
f 47/47/47 50/50/50 51/51/51
f 50/50/50 52/52/52 51/51/51
f 51/51/51 52/52/52 53/53/53
f 52/52/52 54/54/54 53/53/53
f 57/57/57 56/56/56 55/55/55
f 58/58/58 57/57/57 55/55/55
f 61/61/61 60/60/60 59/59/59
f 60/60/60 62/62/62 59/59/59
f 62/62/62 63/63/63 59/59/59
f 63/63/63 64/64/64 59/59/59
f 67/67/67 66/66/66 65/65/65
f 68/68/68 67/67/67 65/65/65
f 71/71/71 70/70/70 69/69/69
f 72/72/72 71/71/71 69/69/69
f 75/75/75 74/74/74 73/73/73
f 76/76/76 75/75/75 73/73/73
f 79/79/79 78/78/78 77/77/77
f 80/80/80 79/79/79 77/77/77
f 83/83/83 82/82/82 81/81/81
f 84/84/84 83/83/83 81/81/81
f 87/87/87 86/86/86 85/85/85
f 88/88/88 87/87/87 85/85/85
f 88/88/88 89/89/89 87/87/87
f 89/89/89 90/90/90 87/87/87
f 89/89/89 91/91/91 90/90/90
f 91/91/91 92/92/92 90/90/90
f 95/95/95 94/94/94 93/93/93
f 96/96/96 95/95/95 93/93/93
f 96/96/96 93/93/93 97/97/97
f 96/96/96 98/98/98 95/95/95
f 98/98/98 99/99/99 95/95/95
f 100/100/100 96/96/96 97/97/97
f 100/100/100 97/97/97 101/101/101
f 102/102/102 100/100/100 101/101/101
f 102/102/102 103/103/103 100/100/100
f 103/103/103 104/104/104 100/100/100
f 103/103/103 105/105/105 104/104/104
f 105/105/105 106/106/106 104/104/104
f 106/106/106 107/107/107 104/104/104
f 107/107/107 108/108/108 104/104/104
f 111/111/111 110/110/110 109/109/109
f 112/112/112 111/111/111 109/109/109
f 112/112/112 113/113/113 111/111/111
f 113/113/113 114/114/114 111/111/111
f 117/117/117 116/116/116 115/115/115
f 118/118/118 117/117/117 115/115/115
f 118/118/118 115/115/115 119/119/119
f 118/118/118 120/120/120 117/117/117
f 121/121/121 118/118/118 119/119/119
f 121/121/121 119/119/119 122/122/122
f 123/123/123 121/121/121 122/122/122
f 123/123/123 124/124/124 121/121/121
f 124/124/124 125/125/125 121/121/121
f 120/120/120 126/126/126 117/117/117
f 120/120/120 127/127/127 126/126/126
f 127/127/127 128/128/128 126/126/126
f 120/120/120 129/129/129 127/127/127
f 129/129/129 130/130/130 127/127/127
f 133/133/133 132/132/132 131/131/131
f 132/132/132 134/134/134 131/131/131
f 131/131/131 134/134/134 135/135/135
f 134/134/134 136/136/136 135/135/135
f 135/135/135 136/136/136 137/137/137
f 136/136/136 138/138/138 137/137/137
f 141/141/141 140/140/140 139/139/139
f 142/142/142 141/141/141 139/139/139
f 145/145/145 144/144/144 143/143/143
f 144/144/144 146/146/146 143/143/143
f 146/146/146 147/147/147 143/143/143
f 147/147/147 148/148/148 143/143/143
f 151/151/151 150/150/150 149/149/149
f 152/152/152 151/151/151 149/149/149
f 155/155/155 154/154/154 153/153/153
f 156/156/156 155/155/155 153/153/153
f 159/159/159 158/158/158 157/157/157
f 160/160/160 159/159/159 157/157/157
f 163/163/163 162/162/162 161/161/161
f 164/164/164 163/163/163 161/161/161
f 167/167/167 166/166/166 165/165/165
f 168/168/168 167/167/167 165/165/165
f 171/171/171 170/170/170 169/169/169
f 172/172/172 171/171/171 169/169/169
f 172/172/172 173/173/173 171/171/171
f 173/173/173 174/174/174 171/171/171
f 173/173/173 175/175/175 174/174/174
f 175/175/175 176/176/176 174/174/174
f 179/179/179 178/178/178 177/177/177
f 180/180/180 179/179/179 177/177/177
f 180/180/180 177/177/177 181/181/181
f 180/180/180 182/182/182 179/179/179
f 182/182/182 183/183/183 179/179/179
f 184/184/184 180/180/180 181/181/181
f 184/184/184 181/181/181 185/185/185
f 186/186/186 184/184/184 185/185/185
f 186/186/186 187/187/187 184/184/184
f 187/187/187 188/188/188 184/184/184
f 187/187/187 189/189/189 188/188/188
f 189/189/189 190/190/190 188/188/188
f 190/190/190 191/191/191 188/188/188
f 191/191/191 192/192/192 188/188/188
f 195/195/195 194/194/194 193/193/193
f 196/196/196 195/195/195 193/193/193
f 196/196/196 197/197/197 195/195/195
f 197/197/197 198/198/198 195/195/195
f 201/201/201 200/200/200 199/199/199
f 202/202/202 201/201/201 199/199/199
f 202/202/202 199/199/199 203/203/203
f 202/202/202 204/204/204 201/201/201
f 205/205/205 202/202/202 203/203/203
f 205/205/205 203/203/203 206/206/206
f 207/207/207 205/205/205 206/206/206
f 207/207/207 208/208/208 205/205/205
f 208/208/208 209/209/209 205/205/205
f 204/204/204 210/210/210 201/201/201
f 204/204/204 211/211/211 210/210/210
f 211/211/211 212/212/212 210/210/210
f 204/204/204 213/213/213 211/211/211
f 213/213/213 214/214/214 211/211/211
f 217/217/217 216/216/216 215/215/215
f 216/216/216 218/218/218 215/215/215
f 215/215/215 218/218/218 219/219/219
f 218/218/218 220/220/220 219/219/219
f 219/219/219 220/220/220 221/221/221
f 220/220/220 222/222/222 221/221/221
f 225/225/225 224/224/224 223/223/223
f 226/226/226 225/225/225 223/223/223
f 229/229/229 228/228/228 227/227/227
f 228/228/228 230/230/230 227/227/227
f 230/230/230 231/231/231 227/227/227
f 231/231/231 232/232/232 227/227/227
f 235/235/235 234/234/234 233/233/233
f 236/236/236 235/235/235 233/233/233
f 239/239/239 238/238/238 237/237/237
f 240/240/240 239/239/239 237/237/237
f 243/243/243 242/242/242 241/241/241
f 244/244/244 243/243/243 241/241/241
f 247/247/247 246/246/246 245/245/245
f 248/248/248 247/247/247 245/245/245
f 251/251/251 250/250/250 249/249/249
f 252/252/252 251/251/251 249/249/249
f 255/255/255 254/254/254 253/253/253
f 256/256/256 255/255/255 253/253/253
f 256/256/256 257/257/257 255/255/255
f 257/257/257 258/258/258 255/255/255
f 257/257/257 259/259/259 258/258/258
f 259/259/259 260/260/260 258/258/258
f 263/263/263 262/262/262 261/261/261
f 264/264/264 263/263/263 261/261/261
f 264/264/264 261/261/261 265/265/265
f 264/264/264 266/266/266 263/263/263
f 266/266/266 267/267/267 263/263/263
f 268/268/268 264/264/264 265/265/265
f 268/268/268 265/265/265 269/269/269
f 270/270/270 268/268/268 269/269/269
f 270/270/270 271/271/271 268/268/268
f 271/271/271 272/272/272 268/268/268
f 271/271/271 273/273/273 272/272/272
f 273/273/273 274/274/274 272/272/272
f 274/274/274 275/275/275 272/272/272
f 275/275/275 276/276/276 272/272/272
f 279/279/279 278/278/278 277/277/277
f 280/280/280 279/279/279 277/277/277
f 280/280/280 281/281/281 279/279/279
f 281/281/281 282/282/282 279/279/279
f 285/285/285 284/284/284 283/283/283
f 286/286/286 285/285/285 283/283/283
f 286/286/286 283/283/283 287/287/287
f 286/286/286 288/288/288 285/285/285
f 289/289/289 286/286/286 287/287/287
f 289/289/289 287/287/287 290/290/290
f 291/291/291 289/289/289 290/290/290
f 291/291/291 292/292/292 289/289/289
f 292/292/292 293/293/293 289/289/289
f 288/288/288 294/294/294 285/285/285
f 288/288/288 295/295/295 294/294/294
f 295/295/295 296/296/296 294/294/294
f 288/288/288 297/297/297 295/295/295
f 297/297/297 298/298/298 295/295/295
f 301/301/301 300/300/300 299/299/299
f 300/300/300 302/302/302 299/299/299
f 299/299/299 302/302/302 303/303/303
f 302/302/302 304/304/304 303/303/303
f 303/303/303 304/304/304 305/305/305
f 304/304/304 306/306/306 305/305/305
f 309/309/309 308/308/308 307/307/307
f 310/310/310 309/309/309 307/307/307
f 313/313/313 312/312/312 311/311/311
f 312/312/312 314/314/314 311/311/311
f 314/314/314 315/315/315 311/311/311
f 315/315/315 316/316/316 311/311/311
f 319/319/319 318/318/318 317/317/317
f 320/320/320 319/319/319 317/317/317
f 323/323/323 322/322/322 321/321/321
f 324/324/324 323/323/323 321/321/321
f 327/327/327 326/326/326 325/325/325
f 328/328/328 327/327/327 325/325/325
f 331/331/331 330/330/330 329/329/329
f 332/332/332 331/331/331 329/329/329
f 335/335/335 334/334/334 333/333/333
f 336/336/336 335/335/335 333/333/333
f 339/339/339 338/338/338 337/337/337
f 337/337/337 340/340/340 339/339/339
f 337/337/337 341/341/341 340/340/340
f 337/337/337 342/342/342 341/341/341
f 342/342/342 343/343/343 341/341/341
f 342/342/342 344/344/344 343/343/343
f 347/347/347 346/346/346 345/345/345
f 346/346/346 348/348/348 345/345/345
f 348/348/348 349/349/349 345/345/345
f 349/349/349 350/350/350 345/345/345
f 350/350/350 349/349/349 351/351/351
f 349/349/349 352/352/352 351/351/351
f 351/351/351 352/352/352 353/353/353
f 354/354/354 351/351/351 353/353/353
f 354/354/354 353/353/353 355/355/355
f 353/353/353 356/356/356 355/355/355
f 356/356/356 357/357/357 355/355/355
f 357/357/357 358/358/358 355/355/355
f 361/361/361 360/360/360 359/359/359
f 362/362/362 361/361/361 359/359/359
f 361/361/361 362/362/362 363/363/363
f 364/364/364 361/361/361 363/363/363
f 367/367/367 366/366/366 365/365/365
f 365/365/365 368/368/368 367/367/367
f 365/365/365 369/369/369 368/368/368
f 365/365/365 370/370/370 369/369/369
f 370/370/370 371/371/371 369/369/369
f 370/370/370 372/372/372 371/371/371
f 375/375/375 374/374/374 373/373/373
f 376/376/376 375/375/375 373/373/373
f 379/379/379 378/378/378 377/377/377
f 380/380/380 379/379/379 377/377/377
f 383/383/383 382/382/382 381/381/381
f 384/384/384 383/383/383 381/381/381
f 387/387/387 386/386/386 385/385/385
f 388/388/388 387/387/387 385/385/385
f 391/391/391 390/390/390 389/389/389
f 392/392/392 391/391/391 389/389/389
f 395/395/395 394/394/394 393/393/393
f 396/396/396 395/395/395 393/393/393
