g MIll Hexa Lvl2
v 0.7760772 -1.3442048 1.7379203
v 0.78695357 -1.3630431 2.5717928
v 1.5739067 1.9772965E-07 2.5717928
v 1.5521541 2.0354042E-07 1.7379203
v -1.2665871 -4.50415E-08 5.474673
v -1.4207573 -6.258829E-08 5.4909945
v -0.7103785 -1.2304119 5.4909945
v -0.63329345 -1.0968966 5.474673
v -0.7760769 -1.3442049 1.7379203
v -0.7869531 -1.3630431 2.5717928
v 0.78695357 -1.3630431 2.5717928
v 0.7760772 -1.3442048 1.7379203
v 0.619534 1.0730648 5.734611
v 0.3019837 0.5230513 6.5048575
v -0.3019837 0.5230513 6.5048575
v -0.6195341 1.0730648 5.734611
v 0.3019837 0.5230513 6.5048575
v 0.6039676 1.1561231E-07 6.5048575
v 0.3019839 -0.5230512 6.5048575
v -0.30198368 -0.5230512 6.5048575
v -0.3019837 0.5230513 6.5048575
v -0.6039675 1.0011288E-08 6.5048575
v -0.619534 -1.0730646 5.734611
v -0.6966191 -1.2065798 5.7509327
v -1.3932384 -5.854689E-08 5.7509327
v -1.2390683 -4.2138502E-08 5.734611
v -0.776077 1.3442049 1.7379203
v -0.78695333 1.3630433 2.5717928
v -1.5739067 -7.746092E-08 2.5717928
v -1.5521541 -6.7846806E-08 1.7379203
v 0.619534 1.0730648 5.734611
v 0.6966191 1.20658 5.7509327
v 1.3932384 1.9419711E-07 5.7509327
v 1.2390683 1.7450705E-07 5.734611
v 0.77607685 1.3442049 1.7379203
v 0.7869532 1.3630433 2.5717928
v -0.78695333 1.3630433 2.5717928
v -0.776077 1.3442049 1.7379203
v 0.7760772 -1.3442048 0
v 1.5521541 2.0354042E-07 0
v 0.77607685 1.3442049 0
v -0.7760769 -1.3442049 0
v -0.776077 1.3442049 0
v -1.5521541 -6.7846806E-08 0
v 0.6195343 -1.0730646 5.734611
v 0.3019839 -0.5230512 6.5048575
v 0.6039676 1.1561231E-07 6.5048575
v 1.2390683 1.7450705E-07 5.734611
v -0.63329345 -1.0968966 5.474673
v -0.7103785 -1.2304119 5.4909945
v 0.7103788 -1.2304119 5.4909945
v 0.63329375 -1.0968966 5.474673
v 1.2390683 1.7450705E-07 5.734611
v 0.6039676 1.1561231E-07 6.5048575
v 0.3019837 0.5230513 6.5048575
v 0.619534 1.0730648 5.734611
v -1.5521541 -6.7846806E-08 1.7379203
v -1.5739067 -7.746092E-08 2.5717928
v -0.7869531 -1.3630431 2.5717928
v -0.7760769 -1.3442049 1.7379203
v 1.5521541 2.0354042E-07 1.7379203
v 1.5739067 1.9772965E-07 2.5717928
v 0.7869532 1.3630433 2.5717928
v 0.77607685 1.3442049 1.7379203
v -1.2390683 -4.2138502E-08 5.734611
v -0.6039675 1.0011288E-08 6.5048575
v -0.30198368 -0.5230512 6.5048575
v -0.619534 -1.0730646 5.734611
v -0.619534 -1.0730646 5.734611
v -0.30198368 -0.5230512 6.5048575
v 0.3019839 -0.5230512 6.5048575
v 0.6195343 -1.0730646 5.734611
v -1.2390683 -4.2138502E-08 5.734611
v -1.3932384 -5.854689E-08 5.7509327
v -0.69661915 1.20658 5.7509327
v -0.6195341 1.0730648 5.734611
v 0.63329375 -1.0968966 5.474673
v 0.7103788 -1.2304119 5.4909945
v 1.4207573 1.939624E-07 5.4909945
v 1.2665871 1.7641561E-07 5.474673
v -0.6195341 1.0730648 5.734611
v -0.3019837 0.5230513 6.5048575
v -0.6039675 1.0011288E-08 6.5048575
v -1.2390683 -4.2138502E-08 5.734611
v -0.776077 1.3442049 0
v -0.776077 1.3442049 1.3483864
v -1.5521541 -6.7846806E-08 1.3483864
v -1.5521541 -6.7846806E-08 0
v 1.5521541 2.0354042E-07 0
v 1.5521541 2.0354042E-07 1.3483864
v 0.77607685 1.3442049 1.3483864
v 0.77607685 1.3442049 0
v 0.77607685 1.3442049 0
v 0.77607685 1.3442049 1.3483864
v -0.776077 1.3442049 1.3483864
v -0.776077 1.3442049 0
v -0.7760769 -1.3442049 0
v -0.7760769 -1.3442049 1.3483864
v 0.7760772 -1.3442048 1.3483864
v 0.7760772 -1.3442048 0
v 0.7760772 -1.3442048 0
v 0.7760772 -1.3442048 1.3483864
v 1.5521541 2.0354042E-07 1.3483864
v 1.5521541 2.0354042E-07 0
v -1.5521541 -6.7846806E-08 0
v -1.5521541 -6.7846806E-08 1.3483864
v -0.7760769 -1.3442049 1.3483864
v -0.7760769 -1.3442049 0
v -1.7791601 -8.276644E-08 1.3483864
v -1.7791601 -8.276644E-08 1.7379203
v -0.8895799 -1.540798 1.7379203
v -0.8895799 -1.540798 1.3483864
v 0.88958025 -1.5407978 1.3483864
v 0.88958025 -1.5407978 1.7379203
v 1.7791601 2.2840649E-07 1.7379203
v 1.7791601 2.2840649E-07 1.3483864
v -0.8895799 -1.540798 1.3483864
v -0.8895799 -1.540798 1.7379203
v 0.88958025 -1.5407978 1.7379203
v 0.88958025 -1.5407978 1.3483864
v 0.8895799 1.540798 1.3483864
v 0.8895799 1.540798 1.7379203
v -0.88958 1.540798 1.7379203
v -0.88958 1.540798 1.3483864
v 1.7791601 2.2840649E-07 1.3483864
v 1.7791601 2.2840649E-07 1.7379203
v 0.8895799 1.540798 1.7379203
v 0.8895799 1.540798 1.3483864
v -0.88958 1.540798 1.3483864
v -0.88958 1.540798 1.7379203
v -1.7791601 -8.276644E-08 1.7379203
v -1.7791601 -8.276644E-08 1.3483864
v -0.78695333 1.3630433 2.5717928
v -0.6332935 1.0968969 5.474673
v -1.2665871 -4.50415E-08 5.474673
v -1.5739067 -7.746092E-08 2.5717928
v 0.78695357 -1.3630431 2.5717928
v 0.63329375 -1.0968966 5.474673
v 1.2665871 1.7641561E-07 5.474673
v 1.5739067 1.9772965E-07 2.5717928
v -1.5739067 -7.746092E-08 2.5717928
v -1.2665871 -4.50415E-08 5.474673
v -0.63329345 -1.0968966 5.474673
v -0.7869531 -1.3630431 2.5717928
v 0.7869532 1.3630433 2.5717928
v 0.63329345 1.0968969 5.474673
v -0.6332935 1.0968969 5.474673
v -0.78695333 1.3630433 2.5717928
v 1.5739067 1.9772965E-07 2.5717928
v 1.2665871 1.7641561E-07 5.474673
v 0.63329345 1.0968969 5.474673
v 0.7869532 1.3630433 2.5717928
v -0.7869531 -1.3630431 2.5717928
v -0.63329345 -1.0968966 5.474673
v 0.63329375 -1.0968966 5.474673
v 0.78695357 -1.3630431 2.5717928
v -0.7103785 -1.2304119 5.4909945
v -0.6966191 -1.2065798 5.7509327
v 0.6966194 -1.2065798 5.7509327
v 0.7103788 -1.2304119 5.4909945
v 1.4207573 1.939624E-07 5.4909945
v 1.3932384 1.9419711E-07 5.7509327
v 0.6966191 1.20658 5.7509327
v 0.7103785 1.2304121 5.4909945
v 0.7103785 1.2304121 5.4909945
v 0.6966191 1.20658 5.7509327
v -0.69661915 1.20658 5.7509327
v -0.7103786 1.2304121 5.4909945
v -1.4207573 -6.258829E-08 5.4909945
v -1.3932384 -5.854689E-08 5.7509327
v -0.6966191 -1.2065798 5.7509327
v -0.7103785 -1.2304119 5.4909945
v 0.7103788 -1.2304119 5.4909945
v 0.6966194 -1.2065798 5.7509327
v 1.3932384 1.9419711E-07 5.7509327
v 1.4207573 1.939624E-07 5.4909945
v -0.7103786 1.2304121 5.4909945
v -0.69661915 1.20658 5.7509327
v -1.3932384 -5.854689E-08 5.7509327
v -1.4207573 -6.258829E-08 5.4909945
v 1.2390683 1.7450705E-07 5.734611
v 1.3932384 1.9419711E-07 5.7509327
v 0.6966194 -1.2065798 5.7509327
v 0.6195343 -1.0730646 5.734611
v 0.6195343 -1.0730646 5.734611
v 0.6966194 -1.2065798 5.7509327
v -0.6966191 -1.2065798 5.7509327
v -0.619534 -1.0730646 5.734611
v 0.63329345 1.0968969 5.474673
v 0.7103785 1.2304121 5.4909945
v -0.7103786 1.2304121 5.4909945
v -0.6332935 1.0968969 5.474673
v -0.6332935 1.0968969 5.474673
v -0.7103786 1.2304121 5.4909945
v -1.4207573 -6.258829E-08 5.4909945
v -1.2665871 -4.50415E-08 5.474673
v -0.6195341 1.0730648 5.734611
v -0.69661915 1.20658 5.7509327
v 0.6966191 1.20658 5.7509327
v 0.619534 1.0730648 5.734611
v 1.2665871 1.7641561E-07 5.474673
v 1.4207573 1.939624E-07 5.4909945
v 0.7103785 1.2304121 5.4909945
v 0.63329345 1.0968969 5.474673
v -1.5521541 -6.7846806E-08 1.7379203
v -0.88958 1.540798 1.7379203
v -0.776077 1.3442049 1.7379203
v -1.7791601 -8.276644E-08 1.7379203
v 0.8895799 1.540798 1.7379203
v -0.7760769 -1.3442049 1.7379203
v 0.77607685 1.3442049 1.7379203
v -0.8895799 -1.540798 1.7379203
v 1.7791601 2.2840649E-07 1.7379203
v 0.7760772 -1.3442048 1.7379203
v 1.5521541 2.0354042E-07 1.7379203
v 0.88958025 -1.5407978 1.7379203
v 0.77607685 1.3442049 1.3483864
v -0.88958 1.540798 1.3483864
v -0.776077 1.3442049 1.3483864
v 0.8895799 1.540798 1.3483864
v -1.7791601 -8.276644E-08 1.3483864
v 1.5521541 2.0354042E-07 1.3483864
v -1.5521541 -6.7846806E-08 1.3483864
v 1.7791601 2.2840649E-07 1.3483864
v -0.8895799 -1.540798 1.3483864
v 0.7760772 -1.3442048 1.3483864
v -0.7760769 -1.3442049 1.3483864
v 0.88958025 -1.5407978 1.3483864
vt 0 0
vt 0 0
vt 0 0
vt 0 0
vt 0 0
vt 0 0
vt 0 0
vt 0 0
vt 0 0
vt 0 0
vt 0 0
vt 0 0
vt 0 0
vt 0 0
vt 0 0
vt 0 0
vt 0 0
vt 0 0
vt 0 0
vt 0 0
vt 0 0
vt 0 0
vt 0 0
vt 0 0
vt 0 0
vt 0 0
vt 0 0
vt 0 0
vt 0 0
vt 0 0
vt 0 0
vt 0 0
vt 0 0
vt 0 0
vt 0 0
vt 0 0
vt 0 0
vt 0 0
vt 0 0
vt 0 0
vt 0 0
vt 0 0
vt 0 0
vt 0 0
vt 0 0
vt 0 0
vt 0 0
vt 0 0
vt 0 0
vt 0 0
vt 0 0
vt 0 0
vt 0 0
vt 0 0
vt 0 0
vt 0 0
vt 0 0
vt 0 0
vt 0 0
vt 0 0
vt 0 0
vt 0 0
vt 0 0
vt 0 0
vt 0 0
vt 0 0
vt 0 0
vt 0 0
vt 0 0
vt 0 0
vt 0 0
vt 0 0
vt 0 0
vt 0 0
vt 0 0
vt 0 0
vt 0 0
vt 0 0
vt 0 0
vt 0 0
vt 0 0
vt 0 0
vt 0 0
vt 0 0
vt 0 0
vt 0 0
vt 0 0
vt 0 0
vt 0 0
vt 0 0
vt 0 0
vt 0 0
vt 0 0
vt 0 0
vt 0 0
vt 0 0
vt 0 0
vt 0 0
vt 0 0
vt 0 0
vt 0 0
vt 0 0
vt 0 0
vt 0 0
vt 0 0
vt 0 0
vt 0 0
vt 0 0
vt 0 0
vt 0 0
vt 0 0
vt 0 0
vt 0 0
vt 0 0
vt 0 0
vt 0 0
vt 0 0
vt 0 0
vt 0 0
vt 0 0
vt 0 0
vt 0 0
vt 0 0
vt 0 0
vt 0 0
vt 0 0
vt 0 0
vt 0 0
vt 0 0
vt 0 0
vt 0 0
vt 0 0
vt 0 0
vt 0 0
vt 0 0
vt 0 0
vt 0 0
vt 0 0
vt 0 0
vt 0 0
vt 0 0
vt 0 0
vt 0 0
vt 0 0
vt 0 0
vt 0 0
vt 0 0
vt 0 0
vt 0 0
vt 0 0
vt 0 0
vt 0 0
vt 0 0
vt 0 0
vt 0 0
vt 0 0
vt 0 0
vt 0 0
vt 0 0
vt 0 0
vt 0 0
vt 0 0
vt 0 0
vt 0 0
vt 0 0
vt 0 0
vt 0 0
vt 0 0
vt 0 0
vt 0 0
vt 0 0
vt 0 0
vt 0 0
vt 0 0
vt 0 0
vt 0 0
vt 0 0
vt 0 0
vt 0 0
vt 0 0
vt 0 0
vt 0 0
vt 0 0
vt 0 0
vt 0 0
vt 0 0
vt 0 0
vt 0 0
vt 0 0
vt 0 0
vt 0 0
vt 0 0
vt 0 0
vt 0 0
vt 0 0
vt 0 0
vt 0 0
vt 0 0
vt 0 0
vt 0 0
vt 0 0
vt 0 0
vt 0 0
vt 0 0
vt 0 0
vt 0 0
vt 0 0
vt 0 0
vt 0 0
vt 0 0
vt 0 0
vt 0 0
vt 0 0
vt 0 0
vt 0 0
vt 0 0
vt 0 0
vt 0 0
vt 0 0
vt 0 0
vt 0 0
vt 0 0
vt 0 0
vt 0 0
vt 0 0
vt 0 0
vt 0 0
vt 0 0
vn 0.86580455 -0.49987227 -0.022585653
vn 0.86580455 -0.49987227 -0.022585653
vn 0.86580455 -0.49987227 -0.022585653
vn 0.86580455 -0.49987227 -0.022585653
vn -0.10508104 -0.060671203 -0.9926112
vn -0.10508104 -0.060671203 -0.9926112
vn -0.10508104 -0.060671203 -0.9926112
vn -0.10508104 -0.060671203 -0.9926112
vn -0 -0.99974495 -0.02258529
vn -0 -0.99974495 -0.02258529
vn -0 -0.99974495 -0.02258529
vn -0 -0.99974495 -0.02258529
vn -0 0.81381476 0.5811244
vn -0 0.81381476 0.5811244
vn -0 0.81381476 0.5811244
vn -0 0.81381476 0.5811244
vn -0 0 1
vn -0 0 1
vn -0 0 1
vn -0 0 1
vn -0 0 1
vn -0 0 1
vn 0.105085604 0.06067117 0.99261075
vn 0.105085604 0.06067117 0.99261075
vn 0.105085604 0.06067117 0.99261075
vn 0.105085604 0.06067117 0.99261075
vn -0.86580455 0.49987245 -0.022585653
vn -0.86580455 0.49987245 -0.022585653
vn -0.86580455 0.49987245 -0.022585653
vn -0.86580455 0.49987245 -0.022585653
vn -0.10508025 -0.060671188 0.9926112
vn -0.10508025 -0.060671188 0.9926112
vn -0.10508025 -0.060671188 0.9926112
vn -0.10508025 -0.060671188 0.9926112
vn -0 0.99974495 -0.022585662
vn -0 0.99974495 -0.022585662
vn -0 0.99974495 -0.022585662
vn -0 0.99974495 -0.022585662
vn -0 0 -1
vn -0 0 -1
vn -0 0 -1
vn -0 0 -1
vn -0 0 -1
vn -0 0 -1
vn 0.7047844 -0.40690723 0.5811243
vn 0.7047844 -0.40690723 0.5811243
vn 0.7047844 -0.40690723 0.5811243
vn 0.7047844 -0.40690723 0.5811243
vn -0 -0.12134246 -0.99261063
vn -0 -0.12134246 -0.99261063
vn -0 -0.12134246 -0.99261063
vn -0 -0.12134246 -0.99261063
vn 0.7047838 0.40690777 0.58112466
vn 0.7047838 0.40690777 0.58112466
vn 0.7047838 0.40690777 0.58112466
vn 0.7047838 0.40690777 0.58112466
vn -0.8658044 -0.4998726 -0.022585474
vn -0.8658044 -0.4998726 -0.022585474
vn -0.8658044 -0.4998726 -0.022585474
vn -0.8658044 -0.4998726 -0.022585474
vn 0.8658044 0.4998726 -0.022585703
vn 0.8658044 0.4998726 -0.022585703
vn 0.8658044 0.4998726 -0.022585703
vn 0.8658044 0.4998726 -0.022585703
vn -0.7047839 -0.40690756 0.58112454
vn -0.7047839 -0.40690756 0.58112454
vn -0.7047839 -0.40690756 0.58112454
vn -0.7047839 -0.40690756 0.58112454
vn -0 -0.8138148 0.5811242
vn -0 -0.8138148 0.5811242
vn -0 -0.8138148 0.5811242
vn -0 -0.8138148 0.5811242
vn 0.1050856 -0.060671154 0.99261075
vn 0.1050856 -0.060671154 0.99261075
vn 0.1050856 -0.060671154 0.99261075
vn 0.1050856 -0.060671154 0.99261075
vn 0.10508889 -0.060671143 -0.9926104
vn 0.10508889 -0.060671143 -0.9926104
vn 0.10508889 -0.060671143 -0.9926104
vn 0.10508889 -0.060671143 -0.9926104
vn -0.70478433 0.40690732 0.58112437
vn -0.70478433 0.40690732 0.58112437
vn -0.70478433 0.40690732 0.58112437
vn -0.70478433 0.40690732 0.58112437
vn -0.86602545 0.49999997 0
vn -0.86602545 0.49999997 0
vn -0.86602545 0.49999997 0
vn -0.86602545 0.49999997 0
vn 0.8660253 0.5000002 0
vn 0.8660253 0.5000002 0
vn 0.8660253 0.5000002 0
vn 0.8660253 0.5000002 0
vn -0 1 0
vn -0 1 0
vn -0 1 0
vn -0 1 0
vn -0 -1 0
vn -0 -1 0
vn -0 -1 0
vn -0 -1 0
vn 0.8660255 -0.4999999 0
vn 0.8660255 -0.4999999 0
vn 0.8660255 -0.4999999 0
vn 0.8660255 -0.4999999 0
vn -0.8660253 -0.50000006 0
vn -0.8660253 -0.50000006 0
vn -0.8660253 -0.50000006 0
vn -0.8660253 -0.50000006 0
vn -0.86602527 -0.50000024 0
vn -0.86602527 -0.50000024 0
vn -0.86602527 -0.50000024 0
vn -0.86602527 -0.50000024 0
vn 0.86602545 -0.4999999 0
vn 0.86602545 -0.4999999 0
vn 0.86602545 -0.4999999 0
vn 0.86602545 -0.4999999 0
vn -0 -1 0
vn -0 -1 0
vn -0 -1 0
vn -0 -1 0
vn -0 1 0
vn -0 1 0
vn -0 1 0
vn -0 1 0
vn 0.86602527 0.50000024 0
vn 0.86602527 0.50000024 0
vn 0.86602527 0.50000024 0
vn 0.86602527 0.50000024 0
vn -0.86602545 0.50000006 0
vn -0.86602545 0.50000006 0
vn -0.86602545 0.50000006 0
vn -0.86602545 0.50000006 0
vn -0.86240834 0.49791157 0.09130066
vn -0.86240834 0.49791157 0.09130066
vn -0.86240834 0.49791157 0.09130066
vn -0.86240834 0.49791157 0.09130066
vn 0.86240846 -0.4979116 0.0913007
vn 0.86240846 -0.4979116 0.0913007
vn 0.86240846 -0.4979116 0.0913007
vn 0.86240846 -0.4979116 0.0913007
vn -0.8624083 -0.4979117 0.09130067
vn -0.8624083 -0.4979117 0.09130067
vn -0.8624083 -0.4979117 0.09130067
vn -0.8624083 -0.4979117 0.09130067
vn -0 0.9958234 0.09130063
vn -0 0.9958234 0.09130063
vn -0 0.9958234 0.09130063
vn -0 0.9958234 0.09130063
vn 0.86240834 0.4979117 0.09130068
vn 0.86240834 0.4979117 0.09130068
vn 0.86240834 0.4979117 0.09130068
vn 0.86240834 0.4979117 0.09130068
vn -0 -0.9958234 0.09130061
vn -0 -0.9958234 0.09130061
vn -0 -0.9958234 0.09130061
vn -0 -0.9958234 0.09130061
vn -0 -0.9958234 0.091299996
vn -0 -0.9958234 0.091299996
vn -0 -0.9958234 0.091299996
vn -0 -0.9958234 0.091299996
vn 0.8624081 0.49791217 0.09130063
vn 0.8624081 0.49791217 0.09130063
vn 0.8624081 0.49791217 0.09130063
vn 0.8624081 0.49791217 0.09130063
vn -0 0.9958234 0.09130034
vn -0 0.9958234 0.09130034
vn -0 0.9958234 0.09130034
vn -0 0.9958234 0.09130034
vn -0.86240876 -0.49791104 0.09130051
vn -0.86240876 -0.49791104 0.09130051
vn -0.86240876 -0.49791104 0.09130051
vn -0.86240876 -0.49791104 0.09130051
vn 0.8624085 -0.49791148 0.09130054
vn 0.8624085 -0.49791148 0.09130054
vn 0.8624085 -0.49791148 0.09130054
vn 0.8624085 -0.49791148 0.09130054
vn -0.86240774 0.49791268 0.09130057
vn -0.86240774 0.49791268 0.09130057
vn -0.86240774 0.49791268 0.09130057
vn -0.86240774 0.49791268 0.09130057
vn -0.105088286 0.060671125 0.9926104
vn -0.105088286 0.060671125 0.9926104
vn -0.105088286 0.060671125 0.9926104
vn -0.105088286 0.060671125 0.9926104
vn -0 0.12134229 0.99261075
vn -0 0.12134229 0.99261075
vn -0 0.12134229 0.99261075
vn -0 0.12134229 0.99261075
vn -0 0.12134252 -0.99261063
vn -0 0.12134252 -0.99261063
vn -0 0.12134252 -0.99261063
vn -0 0.12134252 -0.99261063
vn -0.10508889 0.060671166 -0.9926104
vn -0.10508889 0.060671166 -0.9926104
vn -0.10508889 0.060671166 -0.9926104
vn -0.10508889 0.060671166 -0.9926104
vn -0 -0.12134234 0.99261075
vn -0 -0.12134234 0.99261075
vn -0 -0.12134234 0.99261075
vn -0 -0.12134234 0.99261075
vn 0.10508361 0.06067116 -0.9926109
vn 0.10508361 0.06067116 -0.9926109
vn 0.10508361 0.06067116 -0.9926109
vn 0.10508361 0.06067116 -0.9926109
vn -0 0 1
vn -0 0 1
vn -0 0 1
vn -0 0 1
vn -0 0 1
vn -0 0 1
vn -0 0 1
vn -0 0 1
vn -0 0 1
vn -0 0 1
vn -0 0 1
vn -0 0 1
vn -0 0 -1
vn -0 0 -1
vn -0 0 -1
vn -0 0 -1
vn -0 0 -1
vn -0 0 -1
vn -0 0 -1
vn -0 0 -1
vn -0 0 -1
vn -0 0 -1
vn -0 0 -1
vn -0 0 -1
g MIll Hexa Lvl2_0
f 3/3/3 2/2/2 1/1/1
f 4/4/4 3/3/3 1/1/1
f 7/7/7 6/6/6 5/5/5
f 8/8/8 7/7/7 5/5/5
f 11/11/11 10/10/10 9/9/9
f 12/12/12 11/11/11 9/9/9
f 15/15/15 14/14/14 13/13/13
f 16/16/16 15/15/15 13/13/13
f 19/19/19 18/18/18 17/17/17
f 17/17/17 20/20/20 19/19/19
f 17/17/17 21/21/21 20/20/20
f 21/21/21 22/22/22 20/20/20
f 25/25/25 24/24/24 23/23/23
f 26/26/26 25/25/25 23/23/23
f 29/29/29 28/28/28 27/27/27
f 30/30/30 29/29/29 27/27/27
f 33/33/33 32/32/32 31/31/31
f 34/34/34 33/33/33 31/31/31
f 37/37/37 36/36/36 35/35/35
f 38/38/38 37/37/37 35/35/35
f 41/41/41 40/40/40 39/39/39
f 39/39/39 42/42/42 41/41/41
f 42/42/42 43/43/43 41/41/41
f 42/42/42 44/44/44 43/43/43
f 47/47/47 46/46/46 45/45/45
f 48/48/48 47/47/47 45/45/45
f 51/51/51 50/50/50 49/49/49
f 52/52/52 51/51/51 49/49/49
f 55/55/55 54/54/54 53/53/53
f 56/56/56 55/55/55 53/53/53
f 59/59/59 58/58/58 57/57/57
f 60/60/60 59/59/59 57/57/57
f 63/63/63 62/62/62 61/61/61
f 64/64/64 63/63/63 61/61/61
f 67/67/67 66/66/66 65/65/65
f 68/68/68 67/67/67 65/65/65
f 71/71/71 70/70/70 69/69/69
f 72/72/72 71/71/71 69/69/69
f 75/75/75 74/74/74 73/73/73
f 76/76/76 75/75/75 73/73/73
f 79/79/79 78/78/78 77/77/77
f 80/80/80 79/79/79 77/77/77
f 83/83/83 82/82/82 81/81/81
f 84/84/84 83/83/83 81/81/81
f 87/87/87 86/86/86 85/85/85
f 88/88/88 87/87/87 85/85/85
f 91/91/91 90/90/90 89/89/89
f 92/92/92 91/91/91 89/89/89
f 95/95/95 94/94/94 93/93/93
f 96/96/96 95/95/95 93/93/93
f 99/99/99 98/98/98 97/97/97
f 100/100/100 99/99/99 97/97/97
f 103/103/103 102/102/102 101/101/101
f 104/104/104 103/103/103 101/101/101
f 107/107/107 106/106/106 105/105/105
f 108/108/108 107/107/107 105/105/105
f 111/111/111 110/110/110 109/109/109
f 112/112/112 111/111/111 109/109/109
f 115/115/115 114/114/114 113/113/113
f 116/116/116 115/115/115 113/113/113
f 119/119/119 118/118/118 117/117/117
f 120/120/120 119/119/119 117/117/117
f 123/123/123 122/122/122 121/121/121
f 124/124/124 123/123/123 121/121/121
f 127/127/127 126/126/126 125/125/125
f 128/128/128 127/127/127 125/125/125
f 131/131/131 130/130/130 129/129/129
f 132/132/132 131/131/131 129/129/129
f 135/135/135 134/134/134 133/133/133
f 136/136/136 135/135/135 133/133/133
f 139/139/139 138/138/138 137/137/137
f 140/140/140 139/139/139 137/137/137
f 143/143/143 142/142/142 141/141/141
f 144/144/144 143/143/143 141/141/141
f 147/147/147 146/146/146 145/145/145
f 148/148/148 147/147/147 145/145/145
f 151/151/151 150/150/150 149/149/149
f 152/152/152 151/151/151 149/149/149
f 155/155/155 154/154/154 153/153/153
f 156/156/156 155/155/155 153/153/153
f 159/159/159 158/158/158 157/157/157
f 160/160/160 159/159/159 157/157/157
f 163/163/163 162/162/162 161/161/161
f 164/164/164 163/163/163 161/161/161
f 167/167/167 166/166/166 165/165/165
f 168/168/168 167/167/167 165/165/165
f 171/171/171 170/170/170 169/169/169
f 172/172/172 171/171/171 169/169/169
f 175/175/175 174/174/174 173/173/173
f 176/176/176 175/175/175 173/173/173
f 179/179/179 178/178/178 177/177/177
f 180/180/180 179/179/179 177/177/177
f 183/183/183 182/182/182 181/181/181
f 184/184/184 183/183/183 181/181/181
f 187/187/187 186/186/186 185/185/185
f 188/188/188 187/187/187 185/185/185
f 191/191/191 190/190/190 189/189/189
f 192/192/192 191/191/191 189/189/189
f 195/195/195 194/194/194 193/193/193
f 196/196/196 195/195/195 193/193/193
f 199/199/199 198/198/198 197/197/197
f 200/200/200 199/199/199 197/197/197
f 203/203/203 202/202/202 201/201/201
f 204/204/204 203/203/203 201/201/201
f 207/207/207 206/206/206 205/205/205
f 206/206/206 208/208/208 205/205/205
f 209/209/209 206/206/206 207/207/207
f 205/205/205 208/208/208 210/210/210
f 211/211/211 209/209/209 207/207/207
f 208/208/208 212/212/212 210/210/210
f 213/213/213 209/209/209 211/211/211
f 210/210/210 212/212/212 214/214/214
f 215/215/215 213/213/213 211/211/211
f 212/212/212 216/216/216 214/214/214
f 216/216/216 213/213/213 215/215/215
f 214/214/214 216/216/216 215/215/215
f 219/219/219 218/218/218 217/217/217
f 218/218/218 220/220/220 217/217/217
f 221/221/221 218/218/218 219/219/219
f 217/217/217 220/220/220 222/222/222
f 223/223/223 221/221/221 219/219/219
f 220/220/220 224/224/224 222/222/222
f 225/225/225 221/221/221 223/223/223
f 222/222/222 224/224/224 226/226/226
f 227/227/227 225/225/225 223/223/223
f 224/224/224 228/228/228 226/226/226
f 228/228/228 225/225/225 227/227/227
f 226/226/226 228/228/228 227/227/227
