g MIll Hexa Lvl3
v 0.7760772 -1.3442048 1.7379203
v 0.8844618 -1.5319324 2.5717928
v 1.7689232 2.0992059E-07 2.5717928
v 1.5521541 2.0354042E-07 1.7379203
v 0.7376939 -1.277723 6.7152553
v 0.88666874 -1.5357549 6.736363
v -0.88666844 -1.5357549 6.736363
v -0.7376936 -1.277723 6.7152553
v -0.7760769 -1.3442049 1.7379203
v -0.88446134 -1.5319324 2.5717928
v 0.8844618 -1.5319324 2.5717928
v 0.7760772 -1.3442048 1.7379203
v 0.73769355 1.2777232 6.7152553
v 0.35957903 0.6228094 7.6324058
v -0.35957906 0.6228094 7.6324058
v -0.73769367 1.2777232 6.7152553
v 0.35957903 0.6228094 7.6324058
v 0.7191583 1.231365E-07 7.6324058
v 0.35957924 -0.6228093 7.6324058
v -0.35957903 -0.6228093 7.6324058
v -0.35957906 0.6228094 7.6324058
v -0.7191582 -2.6050984E-09 7.6324058
v 1.4753875 1.9326384E-07 6.7152553
v 1.7733371 2.3163872E-07 6.736363
v 0.88666874 -1.5357549 6.736363
v 0.7376939 -1.277723 6.7152553
v -0.776077 1.3442049 1.7379203
v -0.8844616 1.5319326 2.5717928
v -1.7689232 -9.936774E-08 2.5717928
v -1.5521541 -6.7846806E-08 1.7379203
v -0.74816287 1.2958564 6.4196954
v -0.8971377 1.5538883 6.440803
v -1.7942755 -8.0554344E-08 6.440803
v -1.4963259 -6.717389E-08 6.4196954
v 1.7689232 2.0992059E-07 2.5717928
v 2.0069659 2.47336E-07 2.5886564
v 1.0034828 1.7380836 2.5886564
v 0.88446146 1.5319326 2.5717928
v -0.8750901 1.5157007 2.8363628
v -0.9941115 1.7218517 2.8532264
v 0.9941113 1.7218517 2.8532264
v 0.87509 1.5157007 2.8363628
v 0.77607685 1.3442049 1.7379203
v 0.88446146 1.5319326 2.5717928
v -0.8844616 1.5319326 2.5717928
v -0.776077 1.3442049 1.7379203
v 0.7760772 -1.3442048 0
v 1.5521541 2.0354042E-07 0
v 0.77607685 1.3442049 0
v -0.7760769 -1.3442049 0
v -0.776077 1.3442049 0
v -1.5521541 -6.7846806E-08 0
v 0.7376939 -1.277723 6.7152553
v 0.35957924 -0.6228093 7.6324058
v 0.7191583 1.231365E-07 7.6324058
v 1.4753875 1.9326384E-07 6.7152553
v 0.73769355 1.2777232 6.7152553
v 0.8866684 1.5357552 6.736363
v 1.7733371 2.3163872E-07 6.736363
v 1.4753875 1.9326384E-07 6.7152553
v 1.4753875 1.9326384E-07 6.7152553
v 0.7191583 1.231365E-07 7.6324058
v 0.35957903 0.6228094 7.6324058
v 0.73769355 1.2777232 6.7152553
v -1.5521541 -6.7846806E-08 1.7379203
v -1.7689232 -9.936774E-08 2.5717928
v -0.88446134 -1.5319324 2.5717928
v -0.7760769 -1.3442049 1.7379203
v 1.5521541 2.0354042E-07 1.7379203
v 1.7689232 2.0992059E-07 2.5717928
v 0.88446146 1.5319326 2.5717928
v 0.77607685 1.3442049 1.7379203
v -1.4753875 -6.470106E-08 6.7152553
v -0.7191582 -2.6050984E-09 7.6324058
v -0.35957903 -0.6228093 7.6324058
v -0.7376936 -1.277723 6.7152553
v -0.7376936 -1.277723 6.7152553
v -0.35957903 -0.6228093 7.6324058
v 0.35957924 -0.6228093 7.6324058
v 0.7376939 -1.277723 6.7152553
v -0.7376936 -1.277723 6.7152553
v -0.88666844 -1.5357549 6.736363
v -1.7733371 -7.7492686E-08 6.736363
v -1.4753875 -6.470106E-08 6.7152553
v 0.74816275 1.2958564 6.4196954
v 0.8971375 1.5538883 6.440803
v -0.8971377 1.5538883 6.440803
v -0.74816287 1.2958564 6.4196954
v -1.7689232 -9.936774E-08 2.5717928
v -2.0069659 -1.314381E-07 2.5886564
v -1.0034826 -1.7380834 2.5886564
v -0.88446134 -1.5319324 2.5717928
v -0.73769367 1.2777232 6.7152553
v -0.35957906 0.6228094 7.6324058
v -0.7191582 -2.6050984E-09 7.6324058
v -1.4753875 -6.470106E-08 6.7152553
v -0.8750899 -1.5157005 2.8363628
v -0.9941112 -1.7218515 2.8532264
v -1.9882228 -1.329231E-07 2.8532264
v -1.7501802 -9.715419E-08 2.8363628
v -0.8844616 1.5319326 2.5717928
v -1.0034829 1.7380836 2.5886564
v -2.0069659 -1.314381E-07 2.5886564
v -1.7689232 -9.936774E-08 2.5717928
v 0.8844618 -1.5319324 2.5717928
v 1.0034832 -1.7380834 2.5886564
v 2.0069659 2.47336E-07 2.5886564
v 1.7689232 2.0992059E-07 2.5717928
v 1.7501802 2.0885702E-07 2.8363628
v 1.9882228 2.3951608E-07 2.8532264
v 0.9941117 -1.7218515 2.8532264
v 0.87509036 -1.5157005 2.8363628
v -0.776077 1.3442049 0
v -0.776077 1.3442049 1.4578311
v -1.5521541 -6.7846806E-08 1.4578311
v -1.5521541 -6.7846806E-08 0
v 1.5521541 2.0354042E-07 0
v 1.5521541 2.0354042E-07 1.4578311
v 0.77607685 1.3442049 1.4578311
v 0.77607685 1.3442049 0
v 0.77607685 1.3442049 0
v 0.77607685 1.3442049 1.4578311
v -0.776077 1.3442049 1.4578311
v -0.776077 1.3442049 0
v -0.7760769 -1.3442049 0
v -0.7760769 -1.3442049 1.4578311
v 0.7760772 -1.3442048 1.4578311
v 0.7760772 -1.3442048 0
v 0.7760772 -1.3442048 0
v 0.7760772 -1.3442048 1.4578311
v 1.5521541 2.0354042E-07 1.4578311
v 1.5521541 2.0354042E-07 0
v -1.5521541 -6.7846806E-08 0
v -1.5521541 -6.7846806E-08 1.4578311
v -0.7760769 -1.3442049 1.4578311
v -0.7760769 -1.3442049 0
v -1.7907933 -8.353102E-08 1.4578311
v -1.7907933 -8.353102E-08 1.7379203
v -0.89539653 -1.5508726 1.7379203
v -0.89539653 -1.5508726 1.4578311
v 0.8953969 -1.5508723 1.4578311
v 0.8953969 -1.5508723 1.7379203
v 1.7907933 2.3490884E-07 1.7379203
v 1.7907933 2.3490884E-07 1.4578311
v -0.89539653 -1.5508726 1.4578311
v -0.89539653 -1.5508726 1.7379203
v 0.8953969 -1.5508723 1.7379203
v 0.8953969 -1.5508723 1.4578311
v 0.8953965 1.5508726 1.4578311
v 0.8953965 1.5508726 1.7379203
v -0.8953966 1.5508726 1.7379203
v -0.8953966 1.5508726 1.4578311
v 1.7907933 2.3490884E-07 1.4578311
v 1.7907933 2.3490884E-07 1.7379203
v 0.8953965 1.5508726 1.7379203
v 0.8953965 1.5508726 1.4578311
v -0.8953966 1.5508726 1.4578311
v -0.8953966 1.5508726 1.7379203
v -1.7907933 -8.353102E-08 1.7379203
v -1.7907933 -8.353102E-08 1.4578311
v -1.0034829 1.7380836 2.5886564
v -0.9941115 1.7218517 2.8532264
v -1.9882228 -1.329231E-07 2.8532264
v -2.0069659 -1.314381E-07 2.5886564
v 1.0034832 -1.7380834 2.5886564
v 0.9941117 -1.7218515 2.8532264
v 1.9882228 2.3951608E-07 2.8532264
v 2.0069659 2.47336E-07 2.5886564
v -2.0069659 -1.314381E-07 2.5886564
v -1.9882228 -1.329231E-07 2.8532264
v -0.9941112 -1.7218515 2.8532264
v -1.0034826 -1.7380834 2.5886564
v 1.0034828 1.7380836 2.5886564
v 0.9941113 1.7218517 2.8532264
v -0.9941115 1.7218517 2.8532264
v -1.0034829 1.7380836 2.5886564
v 2.0069659 2.47336E-07 2.5886564
v 1.9882228 2.3951608E-07 2.8532264
v 0.9941113 1.7218517 2.8532264
v 1.0034828 1.7380836 2.5886564
v -1.0034826 -1.7380834 2.5886564
v -0.9941112 -1.7218515 2.8532264
v 0.9941117 -1.7218515 2.8532264
v 1.0034832 -1.7380834 2.5886564
v 0.88446146 1.5319326 2.5717928
v 1.0034828 1.7380836 2.5886564
v -1.0034829 1.7380836 2.5886564
v -0.8844616 1.5319326 2.5717928
v 0.87509 1.5157007 2.8363628
v 0.9941113 1.7218517 2.8532264
v 1.9882228 2.3951608E-07 2.8532264
v 1.7501802 2.0885702E-07 2.8363628
v 0.87509036 -1.5157005 2.8363628
v 0.9941117 -1.7218515 2.8532264
v -0.9941112 -1.7218515 2.8532264
v -0.8750899 -1.5157005 2.8363628
v -0.88446134 -1.5319324 2.5717928
v -1.0034826 -1.7380834 2.5886564
v 1.0034832 -1.7380834 2.5886564
v 0.8844618 -1.5319324 2.5717928
v -1.7501802 -9.715419E-08 2.8363628
v -1.9882228 -1.329231E-07 2.8532264
v -0.9941115 1.7218517 2.8532264
v -0.8750901 1.5157007 2.8363628
v -0.8750901 1.5157007 2.8363628
v -0.74816287 1.2958564 6.4196954
v -1.4963259 -6.717389E-08 6.4196954
v -1.7501802 -9.715419E-08 2.8363628
v 0.87509036 -1.5157005 2.8363628
v 0.7481631 -1.2958561 6.4196954
v 1.4963259 1.94452E-07 6.4196954
v 1.7501802 2.0885702E-07 2.8363628
v -1.7501802 -9.715419E-08 2.8363628
v -1.4963259 -6.717389E-08 6.4196954
v -0.7481628 -1.2958561 6.4196954
v -0.8750899 -1.5157005 2.8363628
v 0.87509 1.5157007 2.8363628
v 0.74816275 1.2958564 6.4196954
v -0.74816287 1.2958564 6.4196954
v -0.8750901 1.5157007 2.8363628
v 1.7501802 2.0885702E-07 2.8363628
v 1.4963259 1.94452E-07 6.4196954
v 0.74816275 1.2958564 6.4196954
v 0.87509 1.5157007 2.8363628
v -0.8750899 -1.5157005 2.8363628
v -0.7481628 -1.2958561 6.4196954
v 0.7481631 -1.2958561 6.4196954
v 0.87509036 -1.5157005 2.8363628
v -0.89713764 -1.5538881 6.440803
v -0.88666844 -1.5357549 6.736363
v 0.88666874 -1.5357549 6.736363
v 0.89713794 -1.5538881 6.440803
v 1.7942755 2.412836E-07 6.440803
v 1.7733371 2.3163872E-07 6.736363
v 0.8866684 1.5357552 6.736363
v 0.8971375 1.5538883 6.440803
v 0.8971375 1.5538883 6.440803
v 0.8866684 1.5357552 6.736363
v -0.8866685 1.5357552 6.736363
v -0.8971377 1.5538883 6.440803
v -1.7942755 -8.0554344E-08 6.440803
v -1.7733371 -7.7492686E-08 6.736363
v -0.88666844 -1.5357549 6.736363
v -0.89713764 -1.5538881 6.440803
v 0.89713794 -1.5538881 6.440803
v 0.88666874 -1.5357549 6.736363
v 1.7733371 2.3163872E-07 6.736363
v 1.7942755 2.412836E-07 6.440803
v -0.8971377 1.5538883 6.440803
v -0.8866685 1.5357552 6.736363
v -1.7733371 -7.7492686E-08 6.736363
v -1.7942755 -8.0554344E-08 6.440803
v 1.4963259 1.94452E-07 6.4196954
v 1.7942755 2.412836E-07 6.440803
v 0.8971375 1.5538883 6.440803
v 0.74816275 1.2958564 6.4196954
v 0.7481631 -1.2958561 6.4196954
v 0.89713794 -1.5538881 6.440803
v 1.7942755 2.412836E-07 6.440803
v 1.4963259 1.94452E-07 6.4196954
v -0.7481628 -1.2958561 6.4196954
v -0.89713764 -1.5538881 6.440803
v 0.89713794 -1.5538881 6.440803
v 0.7481631 -1.2958561 6.4196954
v -0.73769367 1.2777232 6.7152553
v -0.8866685 1.5357552 6.736363
v 0.8866684 1.5357552 6.736363
v 0.73769355 1.2777232 6.7152553
v -1.4963259 -6.717389E-08 6.4196954
v -1.7942755 -8.0554344E-08 6.440803
v -0.89713764 -1.5538881 6.440803
v -0.7481628 -1.2958561 6.4196954
v -1.4753875 -6.470106E-08 6.7152553
v -1.7733371 -7.7492686E-08 6.736363
v -0.8866685 1.5357552 6.736363
v -0.73769367 1.2777232 6.7152553
v 1.5521541 2.0354042E-07 1.4578311
v 0.8953965 1.5508726 1.4578311
v 0.77607685 1.3442049 1.4578311
v 1.7907933 2.3490884E-07 1.4578311
v -0.8953966 1.5508726 1.4578311
v 0.7760772 -1.3442048 1.4578311
v -0.776077 1.3442049 1.4578311
v 0.8953969 -1.5508723 1.4578311
v -1.7907933 -8.353102E-08 1.4578311
v -0.7760769 -1.3442049 1.4578311
v -1.5521541 -6.7846806E-08 1.4578311
v -0.89539653 -1.5508726 1.4578311
v -0.7760769 -1.3442049 1.7379203
v -1.7907933 -8.353102E-08 1.7379203
v -1.5521541 -6.7846806E-08 1.7379203
v -0.89539653 -1.5508726 1.7379203
v -0.8953966 1.5508726 1.7379203
v 0.7760772 -1.3442048 1.7379203
v -0.776077 1.3442049 1.7379203
v 0.8953969 -1.5508723 1.7379203
v 0.8953965 1.5508726 1.7379203
v 1.5521541 2.0354042E-07 1.7379203
v 0.77607685 1.3442049 1.7379203
v 1.7907933 2.3490884E-07 1.7379203
vt 0 0
vt 0 0
vt 0 0
vt 0 0
vt 0 0
vt 0 0
vt 0 0
vt 0 0
vt 0 0
vt 0 0
vt 0 0
vt 0 0
vt 0 0
vt 0 0
vt 0 0
vt 0 0
vt 0 0
vt 0 0
vt 0 0
vt 0 0
vt 0 0
vt 0 0
vt 0 0
vt 0 0
vt 0 0
vt 0 0
vt 0 0
vt 0 0
vt 0 0
vt 0 0
vt 0 0
vt 0 0
vt 0 0
vt 0 0
vt 0 0
vt 0 0
vt 0 0
vt 0 0
vt 0 0
vt 0 0
vt 0 0
vt 0 0
vt 0 0
vt 0 0
vt 0 0
vt 0 0
vt 0 0
vt 0 0
vt 0 0
vt 0 0
vt 0 0
vt 0 0
vt 0 0
vt 0 0
vt 0 0
vt 0 0
vt 0 0
vt 0 0
vt 0 0
vt 0 0
vt 0 0
vt 0 0
vt 0 0
vt 0 0
vt 0 0
vt 0 0
vt 0 0
vt 0 0
vt 0 0
vt 0 0
vt 0 0
vt 0 0
vt 0 0
vt 0 0
vt 0 0
vt 0 0
vt 0 0
vt 0 0
vt 0 0
vt 0 0
vt 0 0
vt 0 0
vt 0 0
vt 0 0
vt 0 0
vt 0 0
vt 0 0
vt 0 0
vt 0 0
vt 0 0
vt 0 0
vt 0 0
vt 0 0
vt 0 0
vt 0 0
vt 0 0
vt 0 0
vt 0 0
vt 0 0
vt 0 0
vt 0 0
vt 0 0
vt 0 0
vt 0 0
vt 0 0
vt 0 0
vt 0 0
vt 0 0
vt 0 0
vt 0 0
vt 0 0
vt 0 0
vt 0 0
vt 0 0
vt 0 0
vt 0 0
vt 0 0
vt 0 0
vt 0 0
vt 0 0
vt 0 0
vt 0 0
vt 0 0
vt 0 0
vt 0 0
vt 0 0
vt 0 0
vt 0 0
vt 0 0
vt 0 0
vt 0 0
vt 0 0
vt 0 0
vt 0 0
vt 0 0
vt 0 0
vt 0 0
vt 0 0
vt 0 0
vt 0 0
vt 0 0
vt 0 0
vt 0 0
vt 0 0
vt 0 0
vt 0 0
vt 0 0
vt 0 0
vt 0 0
vt 0 0
vt 0 0
vt 0 0
vt 0 0
vt 0 0
vt 0 0
vt 0 0
vt 0 0
vt 0 0
vt 0 0
vt 0 0
vt 0 0
vt 0 0
vt 0 0
vt 0 0
vt 0 0
vt 0 0
vt 0 0
vt 0 0
vt 0 0
vt 0 0
vt 0 0
vt 0 0
vt 0 0
vt 0 0
vt 0 0
vt 0 0
vt 0 0
vt 0 0
vt 0 0
vt 0 0
vt 0 0
vt 0 0
vt 0 0
vt 0 0
vt 0 0
vt 0 0
vt 0 0
vt 0 0
vt 0 0
vt 0 0
vt 0 0
vt 0 0
vt 0 0
vt 0 0
vt 0 0
vt 0 0
vt 0 0
vt 0 0
vt 0 0
vt 0 0
vt 0 0
vt 0 0
vt 0 0
vt 0 0
vt 0 0
vt 0 0
vt 0 0
vt 0 0
vt 0 0
vt 0 0
vt 0 0
vt 0 0
vt 0 0
vt 0 0
vt 0 0
vt 0 0
vt 0 0
vt 0 0
vt 0 0
vt 0 0
vt 0 0
vt 0 0
vt 0 0
vt 0 0
vt 0 0
vt 0 0
vt 0 0
vt 0 0
vt 0 0
vt 0 0
vt 0 0
vt 0 0
vt 0 0
vt 0 0
vt 0 0
vt 0 0
vt 0 0
vt 0 0
vt 0 0
vt 0 0
vt 0 0
vt 0 0
vt 0 0
vt 0 0
vt 0 0
vt 0 0
vt 0 0
vt 0 0
vt 0 0
vt 0 0
vt 0 0
vt 0 0
vt 0 0
vt 0 0
vt 0 0
vt 0 0
vt 0 0
vt 0 0
vt 0 0
vt 0 0
vt 0 0
vt 0 0
vt 0 0
vt 0 0
vt 0 0
vt 0 0
vt 0 0
vt 0 0
vt 0 0
vt 0 0
vt 0 0
vt 0 0
vt 0 0
vt 0 0
vt 0 0
vt 0 0
vt 0 0
vt 0 0
vt 0 0
vt 0 0
vt 0 0
vt 0 0
vt 0 0
vt 0 0
vt 0 0
vt 0 0
vt 0 0
vt 0 0
vt 0 0
vt 0 0
vt 0 0
vt 0 0
vt 0 0
vt 0 0
vt 0 0
vt 0 0
vt 0 0
vt 0 0
vt 0 0
vt 0 0
vn 0.84487987 -0.48779142 -0.21963048
vn 0.84487987 -0.48779142 -0.21963048
vn 0.84487987 -0.48779142 -0.21963048
vn 0.84487987 -0.48779142 -0.21963048
vn -0 0.08153026 0.9966709
vn -0 0.08153026 0.9966709
vn -0 0.08153026 0.9966709
vn -0 0.08153026 0.9966709
vn -0 -0.97558314 -0.21963039
vn -0 -0.97558314 -0.21963039
vn -0 -0.97558314 -0.21963039
vn -0 -0.97558314 -0.21963039
vn -0 0.81381476 0.5811244
vn -0 0.81381476 0.5811244
vn -0 0.81381476 0.5811244
vn -0 0.81381476 0.5811244
vn -0 0 1
vn -0 0 1
vn -0 0 1
vn -0 0 1
vn -0 0 1
vn -0 0 1
vn -0.07060644 0.0407651 0.9966709
vn -0.07060644 0.0407651 0.9966709
vn -0.07060644 0.0407651 0.9966709
vn -0.07060644 0.0407651 0.9966709
vn -0.8448798 0.48779154 -0.21963052
vn -0.8448798 0.48779154 -0.21963052
vn -0.8448798 0.48779154 -0.21963052
vn -0.8448798 0.48779154 -0.21963052
vn -0.07060568 0.040765107 -0.996671
vn -0.07060568 0.040765107 -0.996671
vn -0.07060568 0.040765107 -0.996671
vn -0.07060568 0.040765107 -0.996671
vn 0.070607 0.040764887 -0.9966709
vn 0.070607 0.040764887 -0.9966709
vn 0.070607 0.040764887 -0.9966709
vn 0.070607 0.040764887 -0.9966709
vn -0 -0.08152976 0.9966709
vn -0 -0.08152976 0.9966709
vn -0 -0.08152976 0.9966709
vn -0 -0.08152976 0.9966709
vn -0 0.97558314 -0.21963076
vn -0 0.97558314 -0.21963076
vn -0 0.97558314 -0.21963076
vn -0 0.97558314 -0.21963076
vn -0 0 -1
vn -0 0 -1
vn -0 0 -1
vn -0 0 -1
vn -0 0 -1
vn -0 0 -1
vn 0.70478433 -0.4069073 0.58112425
vn 0.70478433 -0.4069073 0.58112425
vn 0.70478433 -0.4069073 0.58112425
vn 0.70478433 -0.4069073 0.58112425
vn -0.0706087 -0.040765103 0.9966708
vn -0.0706087 -0.040765103 0.9966708
vn -0.0706087 -0.040765103 0.9966708
vn -0.0706087 -0.040765103 0.9966708
vn 0.7047843 0.40690744 0.58112425
vn 0.7047843 0.40690744 0.58112425
vn 0.7047843 0.40690744 0.58112425
vn 0.7047843 0.40690744 0.58112425
vn -0.84487975 -0.48779175 -0.2196304
vn -0.84487975 -0.48779175 -0.2196304
vn -0.84487975 -0.48779175 -0.2196304
vn -0.84487975 -0.48779175 -0.2196304
vn 0.8448796 0.4877917 -0.21963055
vn 0.8448796 0.4877917 -0.21963055
vn 0.8448796 0.4877917 -0.21963055
vn 0.8448796 0.4877917 -0.21963055
vn -0.7047849 -0.40690714 0.5811238
vn -0.7047849 -0.40690714 0.5811238
vn -0.7047849 -0.40690714 0.5811238
vn -0.7047849 -0.40690714 0.5811238
vn -0 -0.81381476 0.58112437
vn -0 -0.81381476 0.58112437
vn -0 -0.81381476 0.58112437
vn -0 -0.81381476 0.58112437
vn 0.0706087 0.040765103 0.9966708
vn 0.0706087 0.040765103 0.9966708
vn 0.0706087 0.040765103 0.9966708
vn 0.0706087 0.040765103 0.9966708
vn -0 0.0815302 -0.9966709
vn -0 0.0815302 -0.9966709
vn -0 0.0815302 -0.9966709
vn -0 0.0815302 -0.9966709
vn -0.070607014 -0.040764898 -0.9966709
vn -0.070607014 -0.040764898 -0.9966709
vn -0.070607014 -0.040764898 -0.9966709
vn -0.070607014 -0.040764898 -0.9966709
vn -0.7047841 0.4069075 0.5811245
vn -0.7047841 0.4069075 0.5811245
vn -0.7047841 0.4069075 0.5811245
vn -0.7047841 0.4069075 0.5811245
vn 0.0706071 0.04076492 0.9966709
vn 0.0706071 0.04076492 0.9966709
vn 0.0706071 0.04076492 0.9966709
vn 0.0706071 0.04076492 0.9966709
vn -0.070606984 0.040764872 -0.9966709
vn -0.070606984 0.040764872 -0.9966709
vn -0.070606984 0.040764872 -0.9966709
vn -0.070606984 0.040764872 -0.9966709
vn 0.07060699 -0.04076487 -0.9966709
vn 0.07060699 -0.04076487 -0.9966709
vn 0.07060699 -0.04076487 -0.9966709
vn 0.07060699 -0.04076487 -0.9966709
vn -0.07060708 0.040764883 0.9966709
vn -0.07060708 0.040764883 0.9966709
vn -0.07060708 0.040764883 0.9966709
vn -0.07060708 0.040764883 0.9966709
vn -0.86602545 0.5 0
vn -0.86602545 0.5 0
vn -0.86602545 0.5 0
vn -0.86602545 0.5 0
vn 0.8660253 0.5000001 0
vn 0.8660253 0.5000001 0
vn 0.8660253 0.5000001 0
vn 0.8660253 0.5000001 0
vn -0 1 0
vn -0 1 0
vn -0 1 0
vn -0 1 0
vn -0 -1 0
vn -0 -1 0
vn -0 -1 0
vn -0 -1 0
vn 0.8660255 -0.4999999 0
vn 0.8660255 -0.4999999 0
vn 0.8660255 -0.4999999 0
vn 0.8660255 -0.4999999 0
vn -0.8660253 -0.50000006 0
vn -0.8660253 -0.50000006 0
vn -0.8660253 -0.50000006 0
vn -0.8660253 -0.50000006 0
vn -0.86602545 -0.4999999 0
vn -0.86602545 -0.4999999 0
vn -0.86602545 -0.4999999 0
vn -0.86602545 -0.4999999 0
vn 0.8660256 -0.49999976 0
vn 0.8660256 -0.49999976 0
vn 0.8660256 -0.49999976 0
vn 0.8660256 -0.49999976 0
vn -0 -1 0
vn -0 -1 0
vn -0 -1 0
vn -0 -1 0
vn -0 1 0
vn -0 1 0
vn -0 1 0
vn -0 1 0
vn 0.8660253 0.5000001 0
vn 0.8660253 0.5000001 0
vn 0.8660253 0.5000001 0
vn 0.8660253 0.5000001 0
vn -0.8660255 0.4999999 0
vn -0.8660255 0.4999999 0
vn -0.8660255 0.4999999 0
vn -0.8660255 0.4999999 0
vn -0.86440027 0.49906132 0.06123693
vn -0.86440027 0.49906132 0.06123693
vn -0.86440027 0.49906132 0.06123693
vn -0.86440027 0.49906132 0.06123693
vn 0.8644001 -0.4990616 0.06123698
vn 0.8644001 -0.4990616 0.06123698
vn 0.8644001 -0.4990616 0.06123698
vn 0.8644001 -0.4990616 0.06123698
vn -0.8644 -0.49906185 0.06123687
vn -0.8644 -0.49906185 0.06123687
vn -0.8644 -0.49906185 0.06123687
vn -0.8644 -0.49906185 0.06123687
vn -0 0.9981232 0.061236292
vn -0 0.9981232 0.061236292
vn -0 0.9981232 0.061236292
vn -0 0.9981232 0.061236292
vn 0.86440027 0.49906135 0.06123693
vn 0.86440027 0.49906135 0.06123693
vn 0.86440027 0.49906135 0.06123693
vn 0.86440027 0.49906135 0.06123693
vn -0 -0.9981232 0.06123674
vn -0 -0.9981232 0.06123674
vn -0 -0.9981232 0.06123674
vn -0 -0.9981232 0.06123674
vn -0 0.08152976 -0.9966709
vn -0 0.08152976 -0.9966709
vn -0 0.08152976 -0.9966709
vn -0 0.08152976 -0.9966709
vn -0.070607096 -0.040764906 0.9966709
vn -0.070607096 -0.040764906 0.9966709
vn -0.070607096 -0.040764906 0.9966709
vn -0.070607096 -0.040764906 0.9966709
vn -0 0.08152982 0.9966709
vn -0 0.08152982 0.9966709
vn -0 0.08152982 0.9966709
vn -0 0.08152982 0.9966709
vn -0 -0.08152977 -0.9966709
vn -0 -0.08152977 -0.9966709
vn -0 -0.08152977 -0.9966709
vn -0 -0.08152977 -0.9966709
vn 0.07060707 -0.04076489 0.9966709
vn 0.07060707 -0.04076489 0.9966709
vn 0.07060707 -0.04076489 0.9966709
vn 0.07060707 -0.04076489 0.9966709
vn -0.8644001 0.49906155 0.061236788
vn -0.8644001 0.49906155 0.061236788
vn -0.8644001 0.49906155 0.061236788
vn -0.8644001 0.49906155 0.061236788
vn 0.8644002 -0.49906152 0.06123679
vn 0.8644002 -0.49906152 0.06123679
vn 0.8644002 -0.49906152 0.06123679
vn 0.8644002 -0.49906152 0.06123679
vn -0.8644 -0.4990618 0.061236776
vn -0.8644 -0.4990618 0.061236776
vn -0.8644 -0.4990618 0.061236776
vn -0.8644 -0.4990618 0.061236776
vn -0 0.9981232 0.061236832
vn -0 0.9981232 0.061236832
vn -0 0.9981232 0.061236832
vn -0 0.9981232 0.061236832
vn 0.8644 0.4990618 0.0612368
vn 0.8644 0.4990618 0.0612368
vn 0.8644 0.4990618 0.0612368
vn 0.8644 0.4990618 0.0612368
vn -0 -0.9981232 0.061236802
vn -0 -0.9981232 0.061236802
vn -0 -0.9981232 0.061236802
vn -0 -0.9981232 0.061236802
vn -0 -0.9981232 0.06123624
vn -0 -0.9981232 0.06123624
vn -0 -0.9981232 0.06123624
vn -0 -0.9981232 0.06123624
vn 0.86439985 0.49906203 0.061236843
vn 0.86439985 0.49906203 0.061236843
vn 0.86439985 0.49906203 0.061236843
vn 0.86439985 0.49906203 0.061236843
vn -0 0.9981232 0.0612367
vn -0 0.9981232 0.0612367
vn -0 0.9981232 0.0612367
vn -0 0.9981232 0.0612367
vn -0.86439985 -0.499062 0.061236843
vn -0.86439985 -0.499062 0.061236843
vn -0.86439985 -0.499062 0.061236843
vn -0.86439985 -0.499062 0.061236843
vn 0.8643999 -0.49906188 0.06123697
vn 0.8643999 -0.49906188 0.06123697
vn 0.8643999 -0.49906188 0.06123697
vn 0.8643999 -0.49906188 0.06123697
vn -0.86439985 0.499062 0.061236966
vn -0.86439985 0.499062 0.061236966
vn -0.86439985 0.499062 0.061236966
vn -0.86439985 0.499062 0.061236966
vn 0.070607916 0.04076511 -0.9966708
vn 0.070607916 0.04076511 -0.9966708
vn 0.070607916 0.04076511 -0.9966708
vn 0.070607916 0.04076511 -0.9966708
vn 0.07060568 -0.0407651 -0.996671
vn 0.07060568 -0.0407651 -0.996671
vn 0.07060568 -0.0407651 -0.996671
vn 0.07060568 -0.0407651 -0.996671
vn -0 -0.08153026 -0.9966709
vn -0 -0.08153026 -0.9966709
vn -0 -0.08153026 -0.9966709
vn -0 -0.08153026 -0.9966709
vn -0 -0.08153025 0.9966709
vn -0 -0.08153025 0.9966709
vn -0 -0.08153025 0.9966709
vn -0 -0.08153025 0.9966709
vn -0.070605695 -0.040765118 -0.996671
vn -0.070605695 -0.040765118 -0.996671
vn -0.070605695 -0.040765118 -0.996671
vn -0.070605695 -0.040765118 -0.996671
vn 0.070606425 -0.040765103 0.9966709
vn 0.070606425 -0.040765103 0.9966709
vn 0.070606425 -0.040765103 0.9966709
vn 0.070606425 -0.040765103 0.9966709
vn -0 0 -1
vn -0 0 -1
vn -0 0 -1
vn -0 0 -1
vn -0 0 -1
vn -0 0 -1
vn -0 0 -1
vn -0 0 -1
vn -0 0 -1
vn -0 0 -1
vn -0 0 -1
vn -0 0 -1
vn -0 0 1
vn -0 0 1
vn -0 0 1
vn -0 0 1
vn -0 0 1
vn -0 0 1
vn -0 0 1
vn -0 0 1
vn -0 0 1
vn -0 0 1
vn -0 0 1
vn -0 0 1
g MIll Hexa Lvl3_0
f 3/3/3 2/2/2 1/1/1
f 4/4/4 3/3/3 1/1/1
f 7/7/7 6/6/6 5/5/5
f 8/8/8 7/7/7 5/5/5
f 11/11/11 10/10/10 9/9/9
f 12/12/12 11/11/11 9/9/9
f 15/15/15 14/14/14 13/13/13
f 16/16/16 15/15/15 13/13/13
f 19/19/19 18/18/18 17/17/17
f 17/17/17 20/20/20 19/19/19
f 17/17/17 21/21/21 20/20/20
f 21/21/21 22/22/22 20/20/20
f 25/25/25 24/24/24 23/23/23
f 26/26/26 25/25/25 23/23/23
f 29/29/29 28/28/28 27/27/27
f 30/30/30 29/29/29 27/27/27
f 33/33/33 32/32/32 31/31/31
f 34/34/34 33/33/33 31/31/31
f 37/37/37 36/36/36 35/35/35
f 38/38/38 37/37/37 35/35/35
f 41/41/41 40/40/40 39/39/39
f 42/42/42 41/41/41 39/39/39
f 45/45/45 44/44/44 43/43/43
f 46/46/46 45/45/45 43/43/43
f 49/49/49 48/48/48 47/47/47
f 47/47/47 50/50/50 49/49/49
f 50/50/50 51/51/51 49/49/49
f 50/50/50 52/52/52 51/51/51
f 55/55/55 54/54/54 53/53/53
f 56/56/56 55/55/55 53/53/53
f 59/59/59 58/58/58 57/57/57
f 60/60/60 59/59/59 57/57/57
f 63/63/63 62/62/62 61/61/61
f 64/64/64 63/63/63 61/61/61
f 67/67/67 66/66/66 65/65/65
f 68/68/68 67/67/67 65/65/65
f 71/71/71 70/70/70 69/69/69
f 72/72/72 71/71/71 69/69/69
f 75/75/75 74/74/74 73/73/73
f 76/76/76 75/75/75 73/73/73
f 79/79/79 78/78/78 77/77/77
f 80/80/80 79/79/79 77/77/77
f 83/83/83 82/82/82 81/81/81
f 84/84/84 83/83/83 81/81/81
f 87/87/87 86/86/86 85/85/85
f 88/88/88 87/87/87 85/85/85
f 91/91/91 90/90/90 89/89/89
f 92/92/92 91/91/91 89/89/89
f 95/95/95 94/94/94 93/93/93
f 96/96/96 95/95/95 93/93/93
f 99/99/99 98/98/98 97/97/97
f 100/100/100 99/99/99 97/97/97
f 103/103/103 102/102/102 101/101/101
f 104/104/104 103/103/103 101/101/101
f 107/107/107 106/106/106 105/105/105
f 108/108/108 107/107/107 105/105/105
f 111/111/111 110/110/110 109/109/109
f 112/112/112 111/111/111 109/109/109
f 115/115/115 114/114/114 113/113/113
f 116/116/116 115/115/115 113/113/113
f 119/119/119 118/118/118 117/117/117
f 120/120/120 119/119/119 117/117/117
f 123/123/123 122/122/122 121/121/121
f 124/124/124 123/123/123 121/121/121
f 127/127/127 126/126/126 125/125/125
f 128/128/128 127/127/127 125/125/125
f 131/131/131 130/130/130 129/129/129
f 132/132/132 131/131/131 129/129/129
f 135/135/135 134/134/134 133/133/133
f 136/136/136 135/135/135 133/133/133
f 139/139/139 138/138/138 137/137/137
f 140/140/140 139/139/139 137/137/137
f 143/143/143 142/142/142 141/141/141
f 144/144/144 143/143/143 141/141/141
f 147/147/147 146/146/146 145/145/145
f 148/148/148 147/147/147 145/145/145
f 151/151/151 150/150/150 149/149/149
f 152/152/152 151/151/151 149/149/149
f 155/155/155 154/154/154 153/153/153
f 156/156/156 155/155/155 153/153/153
f 159/159/159 158/158/158 157/157/157
f 160/160/160 159/159/159 157/157/157
f 163/163/163 162/162/162 161/161/161
f 164/164/164 163/163/163 161/161/161
f 167/167/167 166/166/166 165/165/165
f 168/168/168 167/167/167 165/165/165
f 171/171/171 170/170/170 169/169/169
f 172/172/172 171/171/171 169/169/169
f 175/175/175 174/174/174 173/173/173
f 176/176/176 175/175/175 173/173/173
f 179/179/179 178/178/178 177/177/177
f 180/180/180 179/179/179 177/177/177
f 183/183/183 182/182/182 181/181/181
f 184/184/184 183/183/183 181/181/181
f 187/187/187 186/186/186 185/185/185
f 188/188/188 187/187/187 185/185/185
f 191/191/191 190/190/190 189/189/189
f 192/192/192 191/191/191 189/189/189
f 195/195/195 194/194/194 193/193/193
f 196/196/196 195/195/195 193/193/193
f 199/199/199 198/198/198 197/197/197
f 200/200/200 199/199/199 197/197/197
f 203/203/203 202/202/202 201/201/201
f 204/204/204 203/203/203 201/201/201
f 207/207/207 206/206/206 205/205/205
f 208/208/208 207/207/207 205/205/205
f 211/211/211 210/210/210 209/209/209
f 212/212/212 211/211/211 209/209/209
f 215/215/215 214/214/214 213/213/213
f 216/216/216 215/215/215 213/213/213
f 219/219/219 218/218/218 217/217/217
f 220/220/220 219/219/219 217/217/217
f 223/223/223 222/222/222 221/221/221
f 224/224/224 223/223/223 221/221/221
f 227/227/227 226/226/226 225/225/225
f 228/228/228 227/227/227 225/225/225
f 231/231/231 230/230/230 229/229/229
f 232/232/232 231/231/231 229/229/229
f 235/235/235 234/234/234 233/233/233
f 236/236/236 235/235/235 233/233/233
f 239/239/239 238/238/238 237/237/237
f 240/240/240 239/239/239 237/237/237
f 243/243/243 242/242/242 241/241/241
f 244/244/244 243/243/243 241/241/241
f 247/247/247 246/246/246 245/245/245
f 248/248/248 247/247/247 245/245/245
f 251/251/251 250/250/250 249/249/249
f 252/252/252 251/251/251 249/249/249
f 255/255/255 254/254/254 253/253/253
f 256/256/256 255/255/255 253/253/253
f 259/259/259 258/258/258 257/257/257
f 260/260/260 259/259/259 257/257/257
f 263/263/263 262/262/262 261/261/261
f 264/264/264 263/263/263 261/261/261
f 267/267/267 266/266/266 265/265/265
f 268/268/268 267/267/267 265/265/265
f 271/271/271 270/270/270 269/269/269
f 272/272/272 271/271/271 269/269/269
f 275/275/275 274/274/274 273/273/273
f 276/276/276 275/275/275 273/273/273
f 279/279/279 278/278/278 277/277/277
f 278/278/278 280/280/280 277/277/277
f 281/281/281 278/278/278 279/279/279
f 277/277/277 280/280/280 282/282/282
f 283/283/283 281/281/281 279/279/279
f 280/280/280 284/284/284 282/282/282
f 285/285/285 281/281/281 283/283/283
f 282/282/282 284/284/284 286/286/286
f 287/287/287 285/285/285 283/283/283
f 284/284/284 288/288/288 286/286/286
f 288/288/288 285/285/285 287/287/287
f 286/286/286 288/288/288 287/287/287
f 291/291/291 290/290/290 289/289/289
f 290/290/290 292/292/292 289/289/289
f 293/293/293 290/290/290 291/291/291
f 289/289/289 292/292/292 294/294/294
f 295/295/295 293/293/293 291/291/291
f 292/292/292 296/296/296 294/294/294
f 297/297/297 293/293/293 295/295/295
f 294/294/294 296/296/296 298/298/298
f 299/299/299 297/297/297 295/295/295
f 296/296/296 300/300/300 298/298/298
f 300/300/300 297/297/297 299/299/299
f 298/298/298 300/300/300 299/299/299
