g MineShaft
v -0.86101025 -0.73002434 0.14967002
v 0.8250261 -0.73002416 0.14967002
v 0.8250261 -0.73002416 0.058583975
v -0.86101025 -0.73002434 0.058583975
v 0.8250261 -0.73002416 0.14967002
v 0.8250261 -0.40155697 0.14967002
v 0.8250261 -0.40155697 0.058583975
v 0.8250261 -0.73002416 0.058583975
v 0.8250261 -0.40155697 0.14967002
v 0.8250261 -0.73002416 0.14967002
v -0.86101025 -0.73002434 0.14967002
v -0.86101025 -0.40155715 0.14967002
v -0.86101025 -0.40155715 0.14967002
v -0.86101025 -0.73002434 0.14967002
v -0.86101025 -0.73002434 0.058583975
v -0.86101025 -0.40155715 0.058583975
v 0.8250261 -0.40155697 0.058583975
v -0.86101025 -0.40155715 0.058583975
v -0.86101025 -0.73002434 0.058583975
v 0.8250261 -0.73002416 0.058583975
v 0.8250261 -0.40155697 0.14967002
v -0.86101025 -0.40155715 0.14967002
v -0.86101025 -0.40155715 0.058583975
v 0.8250261 -0.40155697 0.058583975
v 0.7353229 -2.1401267 0.23184007
v 0.7247521 2.7895536 0.23184007
v 0.7247521 2.7895536 0.12990999
v 0.7353229 -2.1401267 0.12990999
v 0.7353229 -2.1401267 0.12990999
v 0.7247521 2.7895536 0.12990999
v 0.5445831 2.7828512 0.12990999
v 0.5551539 -2.1468291 0.12990999
v 0.7247521 2.7895536 0.23184007
v 0.5445831 2.7828512 0.23184007
v 0.5445831 2.7828512 0.12990999
v 0.7247521 2.7895536 0.12990999
v 0.7353229 -2.1401267 0.23184007
v 0.5551539 -2.1468291 0.23184007
v 0.5445831 2.7828512 0.23184007
v 0.7247521 2.7895536 0.23184007
v 0.5551539 -2.1468291 0.23184007
v 0.7353229 -2.1401267 0.23184007
v 0.7353229 -2.1401267 0.12990999
v 0.5551539 -2.1468291 0.12990999
v 0.5445831 2.7828512 0.23184007
v 0.5551539 -2.1468291 0.23184007
v 0.5551539 -2.1468291 0.12990999
v 0.5445831 2.7828512 0.12990999
v -0.7458407 2.7828512 0.23184007
v -0.73526996 -2.1468291 0.23184007
v -0.73526996 -2.1468291 0.12990999
v -0.7458407 2.7828512 0.12990999
v -0.73526996 -2.1468291 0.23184007
v -0.5551009 -2.1401267 0.23184007
v -0.5551009 -2.1401267 0.12990999
v -0.73526996 -2.1468291 0.12990999
v -0.5551009 -2.1401267 0.23184007
v -0.73526996 -2.1468291 0.23184007
v -0.7458407 2.7828512 0.23184007
v -0.56567174 2.7895536 0.23184007
v -0.56567174 2.7895536 0.23184007
v -0.7458407 2.7828512 0.23184007
v -0.7458407 2.7828512 0.12990999
v -0.56567174 2.7895536 0.12990999
v -0.5551009 -2.1401267 0.12990999
v -0.56567174 2.7895536 0.12990999
v -0.7458407 2.7828512 0.12990999
v -0.73526996 -2.1468291 0.12990999
v -0.5551009 -2.1401267 0.23184007
v -0.56567174 2.7895536 0.23184007
v -0.56567174 2.7895536 0.12990999
v -0.5551009 -2.1401267 0.12990999
v -0.86101025 0.05076547 0.14967002
v 0.8250261 0.050765708 0.14967002
v 0.8250261 0.050765708 0.058583975
v -0.86101025 0.05076547 0.058583975
v 0.8250261 0.050765708 0.14967002
v 0.8250261 0.37923265 0.14967002
v 0.8250261 0.37923265 0.058583975
v 0.8250261 0.050765708 0.058583975
v 0.8250261 0.37923265 0.14967002
v 0.8250261 0.050765708 0.14967002
v -0.86101025 0.05076547 0.14967002
v -0.86101025 0.37923265 0.14967002
v -0.86101025 0.37923265 0.14967002
v -0.86101025 0.05076547 0.14967002
v -0.86101025 0.05076547 0.058583975
v -0.86101025 0.37923265 0.058583975
v 0.8250261 0.37923265 0.058583975
v -0.86101025 0.37923265 0.058583975
v -0.86101025 0.05076547 0.058583975
v 0.8250261 0.050765708 0.058583975
v 0.8250261 0.37923265 0.14967002
v -0.86101025 0.37923265 0.14967002
v -0.86101025 0.37923265 0.058583975
v 0.8250261 0.37923265 0.058583975
v -0.8610103 0.7898079 0.14967002
v 0.82502604 0.7898079 0.14967002
v 0.82502604 0.7898079 0.058583975
v -0.8610103 0.7898079 0.058583975
v 0.82502604 0.7898079 0.14967002
v 0.82502604 1.1182754 0.14967002
v 0.82502604 1.1182754 0.058583975
v 0.82502604 0.7898079 0.058583975
v 0.82502604 1.1182754 0.14967002
v 0.82502604 0.7898079 0.14967002
v -0.8610103 0.7898079 0.14967002
v -0.8610103 1.1182749 0.14967002
v -0.8610103 1.1182749 0.14967002
v -0.8610103 0.7898079 0.14967002
v -0.8610103 0.7898079 0.058583975
v -0.8610103 1.1182749 0.058583975
v 0.82502604 1.1182754 0.058583975
v -0.8610103 1.1182749 0.058583975
v -0.8610103 0.7898079 0.058583975
v 0.82502604 0.7898079 0.058583975
v 0.82502604 1.1182754 0.14967002
v -0.8610103 1.1182749 0.14967002
v -0.8610103 1.1182749 0.058583975
v 0.82502604 1.1182754 0.058583975
v -0.86101025 -1.3984928 0.14967002
v 0.8250261 -1.3984928 0.14967002
v 0.8250261 -1.3984928 0.058583975
v -0.86101025 -1.3984928 0.058583975
v 0.8250261 -1.3984928 0.14967002
v 0.8250261 -1.0700254 0.14967002
v 0.8250261 -1.0700254 0.058583975
v 0.8250261 -1.3984928 0.058583975
v 0.8250261 -1.0700254 0.14967002
v 0.8250261 -1.3984928 0.14967002
v -0.86101025 -1.3984928 0.14967002
v -0.86101025 -1.0700256 0.14967002
v -0.86101025 -1.0700256 0.14967002
v -0.86101025 -1.3984928 0.14967002
v -0.86101025 -1.3984928 0.058583975
v -0.86101025 -1.0700256 0.058583975
v 0.8250261 -1.0700254 0.058583975
v -0.86101025 -1.0700256 0.058583975
v -0.86101025 -1.3984928 0.058583975
v 0.8250261 -1.3984928 0.058583975
v 0.8250261 -1.0700254 0.14967002
v -0.86101025 -1.0700256 0.14967002
v -0.86101025 -1.0700256 0.058583975
v 0.8250261 -1.0700254 0.058583975
v -0.8610101 -2.0220053 0.14967002
v 0.8250263 -2.0220053 0.14967002
v 0.8250263 -2.0220053 0.058583975
v -0.8610101 -2.0220053 0.058583975
v 0.8250263 -2.0220053 0.14967002
v 0.8250261 -1.6935382 0.14967002
v 0.8250261 -1.6935382 0.058583975
v 0.8250263 -2.0220053 0.058583975
v 0.8250261 -1.6935382 0.14967002
v 0.8250263 -2.0220053 0.14967002
v -0.8610101 -2.0220053 0.14967002
v -0.86101025 -1.6935383 0.14967002
v -0.86101025 -1.6935383 0.14967002
v -0.8610101 -2.0220053 0.14967002
v -0.8610101 -2.0220053 0.058583975
v -0.86101025 -1.6935383 0.058583975
v 0.8250261 -1.6935382 0.058583975
v -0.86101025 -1.6935383 0.058583975
v -0.8610101 -2.0220053 0.058583975
v 0.8250263 -2.0220053 0.058583975
v 0.8250261 -1.6935382 0.14967002
v -0.86101025 -1.6935383 0.14967002
v -0.86101025 -1.6935383 0.058583975
v 0.8250261 -1.6935382 0.058583975
v -1.6055725 -1.886967 1.2833462
v -1.9759612 -1.8878942 -0.36064863
v -1.521475 -1.886967 -0.049869403
v -2.0884473 -1.8878942 1.0418241
v -1.5051665 -1.886967 2.374841
v -1.9541475 -1.8878942 2.501771
v -0.9861891 -1.886967 3.402516
v -1.2599807 -1.8878942 3.8763547
v 0.047413073 -1.886967 3.4755998
v 0.122531265 -1.8878942 3.9741096
v 0.9061989 -1.886967 3.1205025
v 1.2712147 -1.8878942 3.4991431
v 1.6072273 -1.875978 2.022042
v 2.2088869 -1.8731959 2.0298789
v 1.6566494 -1.875978 -0.17673121
v 2.2749922 -1.8731959 -0.5718262
v -1.9541475 -1.8878942 2.501771
v -2.1710768 -2.6025577 2.5630984
v -2.3217525 -2.6025577 0.9251305
v -2.0884473 -1.8878942 1.0418241
v 0.122531265 -1.8878942 3.9741096
v 0.1588251 -2.6025577 4.214969
v -1.3922656 -2.6025577 4.105294
v -1.2599807 -1.8878942 3.8763547
v 2.2088869 -1.8731959 2.0298789
v 2.4995837 -2.5860672 2.0336654
v 1.4475749 -2.6025577 3.682087
v 1.2712147 -1.8878942 3.4991431
v -2.0884473 -1.8878942 1.0418241
v -2.3217525 -2.6025577 0.9251305
v -2.1955507 -2.6025577 -0.64835453
v -1.9759612 -1.8878942 -0.36064863
v -1.2599807 -1.8878942 3.8763547
v -1.3922656 -2.6025577 4.105294
v -2.1710768 -2.6025577 2.5630984
v -1.9541475 -1.8878942 2.501771
v 1.2712147 -1.8878942 3.4991431
v 1.4475749 -2.6025577 3.682087
v 0.1588251 -2.6025577 4.214969
v 0.122531265 -1.8878942 3.9741096
v 2.2749922 -1.8731959 -0.5718262
v 2.57375 -2.5860672 -0.8852825
v 2.4995837 -2.5860672 2.0336654
v 2.2088869 -1.8731959 2.0298789
v 0.1588251 -2.6025577 4.214969
v 0.16264133 -3.5792656 4.2230763
v -1.3884493 -3.5792656 4.1134014
v -1.3922656 -2.6025577 4.105294
v 2.4995837 -2.5860672 2.0336654
v 2.5033998 -3.5627751 2.0417728
v 1.4513911 -3.5792656 3.6901941
v 1.4475749 -2.6025577 3.682087
v -2.3217525 -2.6025577 0.9251305
v -2.3179364 -3.5792656 0.9332379
v -2.1917343 -3.5792656 -0.6402471
v -2.1955507 -2.6025577 -0.64835453
v -1.3922656 -2.6025577 4.105294
v -1.3884493 -3.5792656 4.1134014
v -2.1672606 -3.5792656 2.571206
v -2.1710768 -2.6025577 2.5630984
v 1.4475749 -2.6025577 3.682087
v 1.4513911 -3.5792656 3.6901941
v 0.16264133 -3.5792656 4.2230763
v 0.1588251 -2.6025577 4.214969
v 2.57375 -2.5860672 -0.8852825
v 2.5775661 -3.5627751 -0.8771751
v 2.5033998 -3.5627751 2.0417728
v 2.4995837 -2.5860672 2.0336654
v -2.1710768 -2.6025577 2.5630984
v -2.1672606 -3.5792656 2.571206
v -2.3179364 -3.5792656 0.9332379
v -2.3217525 -2.6025577 0.9251305
v -0.9861891 -1.886967 3.402516
v -1.0574665 -2.098257 3.415681
v -0.023864264 -2.098257 3.4887648
v 0.047413073 -1.886967 3.4755998
v 0.9061989 -1.886967 3.1205025
v 0.83492154 -2.098257 3.1336672
v 1.5359501 -2.0872679 2.0352068
v 1.6072273 -1.875978 2.022042
v -1.521475 -1.886967 -0.049869403
v -1.5927523 -2.098257 -0.036704645
v -1.6768497 -2.098257 1.2965109
v -1.6055725 -1.886967 1.2833462
v -1.5051665 -1.886967 2.374841
v -1.5764438 -2.098257 2.3880057
v -1.0574665 -2.098257 3.415681
v -0.9861891 -1.886967 3.402516
v 0.047413073 -1.886967 3.4755998
v -0.023864264 -2.098257 3.4887648
v 0.83492154 -2.098257 3.1336672
v 0.9061989 -1.886967 3.1205025
v 1.6072273 -1.875978 2.022042
v 1.5359501 -2.0872679 2.0352068
v 1.5853721 -2.0872679 -0.16356646
v 1.6566494 -1.875978 -0.17673121
v -1.6055725 -1.886967 1.2833462
v -1.6768497 -2.098257 1.2965109
v -1.5764438 -2.098257 2.3880057
v -1.5051665 -1.886967 2.374841
v 1.7415614 -1.7498038 -0.18305467
v 1.490578 -1.7498038 -0.18305467
v 1.490578 -2.010563 -0.18305467
v 1.7415614 -2.010563 -0.18305467
v -1.4583876 -1.7498038 -0.18305467
v -1.709371 -1.7498038 -0.18305467
v -1.709371 -2.010563 -0.18305467
v -1.4583876 -2.010563 -0.18305467
v 1.7415614 -1.7498038 3.2655454
v 1.7415614 -2.010563 3.2655454
v 1.490578 -2.010563 3.2655454
v 1.490578 -1.7498038 3.2655454
v -1.4583876 -1.7498038 3.2655454
v -1.4583876 -2.010563 3.2655454
v -1.709371 -2.010563 3.2655454
v -1.709371 -1.7498038 3.2655454
v -1.709371 -2.010563 -0.18305467
v -1.709371 -1.7498038 -0.18305467
v -1.709371 -1.7498038 3.2655454
v -1.709371 -2.010563 3.2655454
v 1.7415614 -2.010563 -0.18305467
v 1.490578 -2.010563 -0.18305467
v 1.490578 -2.010563 3.2655454
v 1.7415614 -2.010563 3.2655454
v 1.490578 -2.010563 -0.18305467
v 1.490578 -1.7498038 -0.18305467
v 1.490578 -1.7498038 3.2655454
v 1.490578 -2.010563 3.2655454
v -1.709371 -1.7498038 -0.18305467
v -1.4583876 -1.7498038 -0.18305467
v -1.4583876 -1.7498038 3.2655454
v -1.709371 -1.7498038 3.2655454
v -1.4583876 -1.7498038 -0.18305467
v -1.4583876 -2.010563 -0.18305467
v -1.4583876 -2.010563 3.2655454
v -1.4583876 -1.7498038 3.2655454
v 1.490578 -1.7498038 -0.18305467
v 1.7415614 -1.7498038 -0.18305467
v 1.7415614 -1.7498038 3.2655454
v 1.490578 -1.7498038 3.2655454
v 1.7415614 -1.7498038 -0.18305467
v 1.7415614 -2.010563 -0.18305467
v 1.7415614 -2.010563 3.2655454
v 1.7415614 -1.7498038 3.2655454
v -1.4583876 -2.010563 -0.18305467
v -1.709371 -2.010563 -0.18305467
v -1.709371 -2.010563 3.2655454
v -1.4583876 -2.010563 3.2655454
v 1.7415614 -0.6055981 3.0855794
v 1.7415614 -0.85650563 3.1565769
v 1.490578 -0.85650563 3.1565769
v 1.490578 -0.6055981 3.0855794
v -1.4583876 -0.6055981 3.0855794
v -1.4583876 -0.85650563 3.1565769
v -1.709371 -0.85650563 3.1565769
v -1.709371 -0.6055981 3.0855794
v -1.709371 -1.7954652 -0.16173564
v -1.709371 -1.5445578 -0.232733
v -1.709371 -0.6055981 3.0855794
v -1.709371 -0.85650563 3.1565769
v 1.7415614 -1.7954652 -0.16173564
v 1.490578 -1.7954652 -0.16173564
v 1.490578 -0.85650563 3.1565769
v 1.7415614 -0.85650563 3.1565769
v 1.490578 -1.7954652 -0.16173564
v 1.490578 -1.5445578 -0.232733
v 1.490578 -0.6055981 3.0855794
v 1.490578 -0.85650563 3.1565769
v -1.709371 -1.5445578 -0.232733
v -1.4583876 -1.5445578 -0.232733
v -1.4583876 -0.6055981 3.0855794
v -1.709371 -0.6055981 3.0855794
v -1.4583876 -1.5445578 -0.232733
v -1.4583876 -1.7954652 -0.16173564
v -1.4583876 -0.85650563 3.1565769
v -1.4583876 -0.6055981 3.0855794
v 1.490578 -1.5445578 -0.232733
v 1.7415614 -1.5445578 -0.232733
v 1.7415614 -0.6055981 3.0855794
v 1.490578 -0.6055981 3.0855794
v 1.7415614 -1.5445578 -0.232733
v 1.7415614 -1.7954652 -0.16173564
v 1.7415614 -0.85650563 3.1565769
v 1.7415614 -0.6055981 3.0855794
v -1.4583876 -1.7954652 -0.16173564
v -1.709371 -1.7954652 -0.16173564
v -1.709371 -0.85650563 3.1565769
v -1.4583876 -0.85650563 3.1565769
v 1.7674994 -1.6466467 3.2384796
v -1.8055754 -1.6466475 3.2384796
v -1.8055749 -2.34274 3.2384796
v 1.7674998 -2.34274 3.2384796
v 1.7674994 -1.6466467 3.3693705
v 1.7674998 -2.34274 3.3693705
v -1.8055749 -2.34274 3.3693705
v -1.8055754 -1.6466475 3.3693705
v -1.8055749 -2.34274 3.2384796
v -1.8055754 -1.6466475 3.2384796
v -1.8055754 -1.6466475 3.3693705
v -1.8055749 -2.34274 3.3693705
v -1.8055754 -1.6466475 3.2384796
v 1.7674994 -1.6466467 3.2384796
v 1.7674994 -1.6466467 3.3693705
v -1.8055754 -1.6466475 3.3693705
v 1.7674994 -1.6466467 3.2384796
v 1.7674998 -2.34274 3.2384796
v 1.7674998 -2.34274 3.3693705
v 1.7674994 -1.6466467 3.3693705
v 1.7674998 -2.34274 3.2384796
v -1.8055749 -2.34274 3.2384796
v -1.8055749 -2.34274 3.3693705
v 1.7674998 -2.34274 3.3693705
v 1.7674994 -0.60154045 3.0618734
v -1.8055754 -0.60154074 3.0618737
v -1.8055749 -0.871947 3.0722938
v 1.7674998 -0.871947 3.0722938
v 1.7674994 -0.591015 3.1891184
v 1.7674998 -0.8614215 3.1995382
v -1.8055749 -0.8614215 3.1995382
v -1.8055754 -0.5910153 3.1891184
v -1.8055749 -0.871947 3.0722938
v -1.8055754 -0.60154074 3.0618737
v -1.8055754 -0.5910153 3.1891184
v -1.8055749 -0.8614215 3.1995382
v -1.8055754 -0.60154074 3.0618737
v 1.7674994 -0.60154045 3.0618734
v 1.7674994 -0.591015 3.1891184
v -1.8055754 -0.5910153 3.1891184
v 1.7674994 -0.60154045 3.0618734
v 1.7674998 -0.871947 3.0722938
v 1.7674998 -0.8614215 3.1995382
v 1.7674994 -0.591015 3.1891184
v 1.7674998 -0.871947 3.0722938
v -1.8055749 -0.871947 3.0722938
v -1.8055749 -0.8614215 3.1995382
v 1.7674998 -0.8614215 3.1995382
v -1.709371 -0.8375413 2.9431734
v -1.709371 -0.8367814 3.2039177
v -1.709371 -1.7898331 3.2402802
v -1.709371 -1.7905929 2.979536
v 1.7415614 -0.8375413 2.9431734
v 1.490578 -0.8375413 2.9431734
v 1.490578 -1.7905929 2.979536
v 1.7415614 -1.7905929 2.979536
v 1.490578 -0.8375413 2.9431734
v 1.490578 -0.8367814 3.2039177
v 1.490578 -1.7898331 3.2402802
v 1.490578 -1.7905929 2.979536
v -1.709371 -0.8367814 3.2039177
v -1.4583876 -0.8367814 3.2039177
v -1.4583876 -1.7898331 3.2402802
v -1.709371 -1.7898331 3.2402802
v -1.4583876 -0.8367814 3.2039177
v -1.4583876 -0.8375413 2.9431734
v -1.4583876 -1.7905929 2.979536
v -1.4583876 -1.7898331 3.2402802
v 1.490578 -0.8367814 3.2039177
v 1.7415614 -0.8367814 3.2039177
v 1.7415614 -1.7898331 3.2402802
v 1.490578 -1.7898331 3.2402802
v 1.7415614 -0.8367814 3.2039177
v 1.7415614 -0.8375413 2.9431734
v 1.7415614 -1.7905929 2.979536
v 1.7415614 -1.7898331 3.2402802
v -1.4583876 -0.8375413 2.9431734
v -1.709371 -0.8375413 2.9431734
v -1.709371 -1.7905929 2.979536
v -1.4583876 -1.7905929 2.979536
v -1.709371 -0.09386361 -0.24643122
v -1.709371 0.15996945 -0.18673347
v -1.709371 -0.6295527 3.1702738
v -1.709371 -0.88338614 3.1105757
v 1.7415614 -0.09386361 -0.24643122
v 1.490578 -0.09386361 -0.24643122
v 1.490578 -0.88338614 3.1105757
v 1.7415614 -0.88338614 3.1105757
v 1.490578 -0.09386361 -0.24643122
v 1.490578 0.15996945 -0.18673347
v 1.490578 -0.6295527 3.1702738
v 1.490578 -0.88338614 3.1105757
v -1.709371 0.15996945 -0.18673347
v -1.4583876 0.15996945 -0.18673347
v -1.4583876 -0.6295527 3.1702738
v -1.709371 -0.6295527 3.1702738
v -1.4583876 0.15996945 -0.18673347
v -1.4583876 -0.09386361 -0.24643122
v -1.4583876 -0.88338614 3.1105757
v -1.4583876 -0.6295527 3.1702738
v 1.490578 0.15996945 -0.18673347
v 1.7415614 0.15996945 -0.18673347
v 1.7415614 -0.6295527 3.1702738
v 1.490578 -0.6295527 3.1702738
v 1.7415614 0.15996945 -0.18673347
v 1.7415614 -0.09386361 -0.24643122
v 1.7415614 -0.88338614 3.1105757
v 1.7415614 -0.6295527 3.1702738
v -1.4583876 -0.09386361 -0.24643122
v -1.709371 -0.09386361 -0.24643122
v -1.709371 -0.88338614 3.1105757
v -1.4583876 -0.88338614 3.1105757
v -0.8610103 1.4905214 0.14967002
v 0.82502604 1.4905214 0.14967002
v 0.82502604 1.4905214 0.058583975
v -0.8610103 1.4905214 0.058583975
v 0.82502604 1.4905214 0.14967002
v 0.82502604 1.8189889 0.14967002
v 0.82502604 1.8189889 0.058583975
v 0.82502604 1.4905214 0.058583975
v 0.82502604 1.8189889 0.14967002
v 0.82502604 1.4905214 0.14967002
v -0.8610103 1.4905214 0.14967002
v -0.8610103 1.8189884 0.14967002
v -0.8610103 1.8189884 0.14967002
v -0.8610103 1.4905214 0.14967002
v -0.8610103 1.4905214 0.058583975
v -0.8610103 1.8189884 0.058583975
v 0.82502604 1.8189889 0.058583975
v -0.8610103 1.8189884 0.058583975
v -0.8610103 1.4905214 0.058583975
v 0.82502604 1.4905214 0.058583975
v 0.82502604 1.8189889 0.14967002
v -0.8610103 1.8189884 0.14967002
v -0.8610103 1.8189884 0.058583975
v 0.82502604 1.8189889 0.058583975
v -0.8343902 2.587887 0.14967002
v 0.83882934 2.7953842 0.14967002
v 0.83882934 2.7953842 0.058583975
v -0.8343902 2.587887 0.058583975
v 0.83882934 2.7953842 0.14967002
v 0.7984056 3.1213546 0.14967002
v 0.7984056 3.1213546 0.058583975
v 0.83882934 2.7953842 0.058583975
v 0.7984056 3.1213546 0.14967002
v 0.83882934 2.7953842 0.14967002
v -0.8343902 2.587887 0.14967002
v -0.8748139 2.913857 0.14967002
v -0.8748139 2.913857 0.14967002
v -0.8343902 2.587887 0.14967002
v -0.8343902 2.587887 0.058583975
v -0.8748139 2.913857 0.058583975
v 0.7984056 3.1213546 0.058583975
v -0.8748139 2.913857 0.058583975
v -0.8343902 2.587887 0.058583975
v 0.83882934 2.7953842 0.058583975
v 0.7984056 3.1213546 0.14967002
v -0.8748139 2.913857 0.14967002
v -0.8748139 2.913857 0.058583975
v 0.7984056 3.1213546 0.058583975
v 0.82502604 2.4580274 0.14967002
v -0.8610103 2.458027 0.058583975
v 0.82502604 2.4580274 0.058583975
v -0.8610103 2.458027 0.14967002
v 0.82502604 2.4580274 0.058583975
v -0.8610103 2.12956 0.058583975
v 0.82502604 2.12956 0.058583975
v -0.8610103 2.458027 0.058583975
v -0.8610103 2.458027 0.14967002
v -0.8610103 2.12956 0.14967002
v -0.8610103 2.12956 0.058583975
v -0.8610103 2.458027 0.058583975
v 0.82502604 2.4580274 0.14967002
v 0.82502604 2.12956 0.14967002
v -0.8610103 2.12956 0.14967002
v -0.8610103 2.458027 0.14967002
v 0.82502604 2.12956 0.14967002
v 0.82502604 2.4580274 0.058583975
v 0.82502604 2.12956 0.058583975
v 0.82502604 2.4580274 0.14967002
v -0.8610103 2.12956 0.14967002
v 0.82502604 2.12956 0.058583975
v -0.8610103 2.12956 0.058583975
v 0.82502604 2.12956 0.14967002
v 1.5359501 -2.0872679 2.0352068
v -0.27008754 -2.0957778 2.1919246
v 1.5853721 -2.0872679 -0.16356646
v 0.83492154 -2.098257 3.1336672
v -1.5927523 -2.098257 -0.036704645
v -0.023864264 -2.098257 3.4887648
v -1.6768497 -2.098257 1.2965109
v -1.0574665 -2.098257 3.415681
v -1.5764438 -2.098257 2.3880057
vt 0 0
vt 0 0
vt 0 0
vt 0 0
vt 0 0
vt 0 0
vt 0 0
vt 0 0
vt 0 0
vt 0 0
vt 0 0
vt 0 0
vt 0 0
vt 0 0
vt 0 0
vt 0 0
vt 0 0
vt 0 0
vt 0 0
vt 0 0
vt 0 0
vt 0 0
vt 0 0
vt 0 0
vt 0 0
vt 0 0
vt 0 0
vt 0 0
vt 0 0
vt 0 0
vt 0 0
vt 0 0
vt 0 0
vt 0 0
vt 0 0
vt 0 0
vt 0 0
vt 0 0
vt 0 0
vt 0 0
vt 0 0
vt 0 0
vt 0 0
vt 0 0
vt 0 0
vt 0 0
vt 0 0
vt 0 0
vt 0 0
vt 0 0
vt 0 0
vt 0 0
vt 0 0
vt 0 0
vt 0 0
vt 0 0
vt 0 0
vt 0 0
vt 0 0
vt 0 0
vt 0 0
vt 0 0
vt 0 0
vt 0 0
vt 0 0
vt 0 0
vt 0 0
vt 0 0
vt 0 0
vt 0 0
vt 0 0
vt 0 0
vt 0 0
vt 0 0
vt 0 0
vt 0 0
vt 0 0
vt 0 0
vt 0 0
vt 0 0
vt 0 0
vt 0 0
vt 0 0
vt 0 0
vt 0 0
vt 0 0
vt 0 0
vt 0 0
vt 0 0
vt 0 0
vt 0 0
vt 0 0
vt 0 0
vt 0 0
vt 0 0
vt 0 0
vt 0 0
vt 0 0
vt 0 0
vt 0 0
vt 0 0
vt 0 0
vt 0 0
vt 0 0
vt 0 0
vt 0 0
vt 0 0
vt 0 0
vt 0 0
vt 0 0
vt 0 0
vt 0 0
vt 0 0
vt 0 0
vt 0 0
vt 0 0
vt 0 0
vt 0 0
vt 0 0
vt 0 0
vt 0 0
vt 0 0
vt 0 0
vt 0 0
vt 0 0
vt 0 0
vt 0 0
vt 0 0
vt 0 0
vt 0 0
vt 0 0
vt 0 0
vt 0 0
vt 0 0
vt 0 0
vt 0 0
vt 0 0
vt 0 0
vt 0 0
vt 0 0
vt 0 0
vt 0 0
vt 0 0
vt 0 0
vt 0 0
vt 0 0
vt 0 0
vt 0 0
vt 0 0
vt 0 0
vt 0 0
vt 0 0
vt 0 0
vt 0 0
vt 0 0
vt 0 0
vt 0 0
vt 0 0
vt 0 0
vt 0 0
vt 0 0
vt 0 0
vt 0 0
vt 0 0
vt 0 0
vt 0 0
vt 0 0
vt 0 0
vt 0 0
vt 0 0
vt 0 0
vt 0 0
vt 0 0
vt 0 0
vt 0 0
vt 0 0
vt 0 0
vt 0 0
vt 0 0
vt 0 0
vt 0 0
vt 0 0
vt 0 0
vt 0 0
vt 0 0
vt 0 0
vt 0 0
vt 0 0
vt 0 0
vt 0 0
vt 0 0
vt 0 0
vt 0 0
vt 0 0
vt 0 0
vt 0 0
vt 0 0
vt 0 0
vt 0 0
vt 0 0
vt 0 0
vt 0 0
vt 0 0
vt 0 0
vt 0 0
vt 0 0
vt 0 0
vt 0 0
vt 0 0
vt 0 0
vt 0 0
vt 0 0
vt 0 0
vt 0 0
vt 0 0
vt 0 0
vt 0 0
vt 0 0
vt 0 0
vt 0 0
vt 0 0
vt 0 0
vt 0 0
vt 0 0
vt 0 0
vt 0 0
vt 0 0
vt 0 0
vt 0 0
vt 0 0
vt 0 0
vt 0 0
vt 0 0
vt 0 0
vt 0 0
vt 0 0
vt 0 0
vt 0 0
vt 0 0
vt 0 0
vt 0 0
vt 0 0
vt 0 0
vt 0 0
vt 0 0
vt 0 0
vt 0 0
vt 0 0
vt 0 0
vt 0 0
vt 0 0
vt 0 0
vt 0 0
vt 0 0
vt 0 0
vt 0 0
vt 0 0
vt 0 0
vt 0 0
vt 0 0
vt 0 0
vt 0 0
vt 0 0
vt 0 0
vt 0 0
vt 0 0
vt 0 0
vt 0 0
vt 0 0
vt 0 0
vt 0 0
vt 0 0
vt 0 0
vt 0 0
vt 0 0
vt 0 0
vt 0 0
vt 0 0
vt 0 0
vt 0 0
vt 0 0
vt 0 0
vt 0 0
vt 0 0
vt 0 0
vt 0 0
vt 0 0
vt 0 0
vt 0 0
vt 0 0
vt 0 0
vt 0 0
vt 0 0
vt 0 0
vt 0 0
vt 0 0
vt 0 0
vt 0 0
vt 0 0
vt 0 0
vt 0 0
vt 0 0
vt 0 0
vt 0 0
vt 0 0
vt 0 0
vt 0 0
vt 0 0
vt 0 0
vt 0 0
vt 0 0
vt 0 0
vt 0 0
vt 0 0
vt 0 0
vt 0 0
vt 0 0
vt 0 0
vt 0 0
vt 0 0
vt 0 0
vt 0 0
vt 0 0
vt 0 0
vt 0 0
vt 0 0
vt 0 0
vt 0 0
vt 0 0
vt 0 0
vt 0 0
vt 0 0
vt 0 0
vt 0 0
vt 0 0
vt 0 0
vt 0 0
vt 0 0
vt 0 0
vt 0 0
vt 0 0
vt 0 0
vt 0 0
vt 0 0
vt 0 0
vt 0 0
vt 0 0
vt 0 0
vt 0 0
vt 0 0
vt 0 0
vt 0 0
vt 0 0
vt 0 0
vt 0 0
vt 0 0
vt 0 0
vt 0 0
vt 0 0
vt 0 0
vt 0 0
vt 0 0
vt 0 0
vt 0 0
vt 0 0
vt 0 0
vt 0 0
vt 0 0
vt 0 0
vt 0 0
vt 0 0
vt 0 0
vt 0 0
vt 0 0
vt 0 0
vt 0 0
vt 0 0
vt 0 0
vt 0 0
vt 0 0
vt 0 0
vt 0 0
vt 0 0
vt 0 0
vt 0 0
vt 0 0
vt 0 0
vt 0 0
vt 0 0
vt 0 0
vt 0 0
vt 0 0
vt 0 0
vt 0 0
vt 0 0
vt 0 0
vt 0 0
vt 0 0
vt 0 0
vt 0 0
vt 0 0
vt 0 0
vt 0 0
vt 0 0
vt 0 0
vt 0 0
vt 0 0
vt 0 0
vt 0 0
vt 0 0
vt 0 0
vt 0 0
vt 0 0
vt 0 0
vt 0 0
vt 0 0
vt 0 0
vt 0 0
vt 0 0
vt 0 0
vt 0 0
vt 0 0
vt 0 0
vt 0 0
vt 0 0
vt 0 0
vt 0 0
vt 0 0
vt 0 0
vt 0 0
vt 0 0
vt 0 0
vt 0 0
vt 0 0
vt 0 0
vt 0 0
vt 0 0
vt 0 0
vt 0 0
vt 0 0
vt 0 0
vt 0 0
vt 0 0
vt 0 0
vt 0 0
vt 0 0
vt 0 0
vt 0 0
vt 0 0
vt 0 0
vt 0 0
vt 0 0
vt 0 0
vt 0 0
vt 0 0
vt 0 0
vt 0 0
vt 0 0
vt 0 0
vt 0 0
vt 0 0
vt 0 0
vt 0 0
vt 0 0
vt 0 0
vt 0 0
vt 0 0
vt 0 0
vt 0 0
vt 0 0
vt 0 0
vt 0 0
vt 0 0
vt 0 0
vt 0 0
vt 0 0
vt 0 0
vt 0 0
vt 0 0
vt 0 0
vt 0 0
vt 0 0
vt 0 0
vt 0 0
vt 0 0
vt 0 0
vt 0 0
vt 0 0
vt 0 0
vt 0 0
vt 0 0
vt 0 0
vt 0 0
vt 0 0
vt 0 0
vt 0 0
vt 0 0
vt 0 0
vt 0 0
vt 0 0
vt 0 0
vt 0 0
vt 0 0
vt 0 0
vt 0 0
vt 0 0
vt 0 0
vt 0 0
vt 0 0
vt 0 0
vt 0 0
vt 0 0
vt 0 0
vt 0 0
vt 0 0
vt 0 0
vt 0 0
vt 0 0
vt 0 0
vt 0 0
vt 0 0
vt 0 0
vt 0 0
vt 0 0
vt 0 0
vt 0 0
vt 0 0
vt 0 0
vt 0 0
vt 0 0
vt 0 0
vt 0 0
vt 0 0
vt 0 0
vt 0 0
vt 0 0
vt 0 0
vt 0 0
vt 0 0
vt 0 0
vt 0 0
vt 0 0
vt 0 0
vt 0 0
vt 0 0
vt 0 0
vt 0 0
vt 0 0
vt 0 0
vn -0 -1 0
vn -0 -1 0
vn -0 -1 0
vn -0 -1 0
vn 1 0 0
vn 1 0 0
vn 1 0 0
vn 1 0 0
vn -0 0 1
vn -0 0 1
vn -0 0 1
vn -0 0 1
vn -1 0 0
vn -1 0 0
vn -1 0 0
vn -1 0 0
vn -0 0 -1
vn -0 0 -1
vn -0 0 -1
vn -0 0 -1
vn -0 1 0
vn -0 1 0
vn -0 1 0
vn -0 1 0
vn 0.99999774 0.0021443088 0
vn 0.99999774 0.0021443088 0
vn 0.99999774 0.0021443088 0
vn 0.99999774 0.0021443088 0
vn -0 0 -1
vn -0 0 -1
vn -0 0 -1
vn -0 0 -1
vn -0.037175044 0.9993088 0
vn -0.037175044 0.9993088 0
vn -0.037175044 0.9993088 0
vn -0.037175044 0.9993088 0
vn -0 0 1
vn -0 0 1
vn -0 0 1
vn -0 0 1
vn 0.037175052 -0.9993088 0
vn 0.037175052 -0.9993088 0
vn 0.037175052 -0.9993088 0
vn 0.037175052 -0.9993088 0
vn -0.99999774 -0.0021443162 0
vn -0.99999774 -0.0021443162 0
vn -0.99999774 -0.0021443162 0
vn -0.99999774 -0.0021443162 0
vn -0.99999774 -0.0021443088 0
vn -0.99999774 -0.0021443088 0
vn -0.99999774 -0.0021443088 0
vn -0.99999774 -0.0021443088 0
vn 0.037175037 -0.9993088 0
vn 0.037175037 -0.9993088 0
vn 0.037175037 -0.9993088 0
vn 0.037175037 -0.9993088 0
vn -0 0 1
vn -0 0 1
vn -0 0 1
vn -0 0 1
vn -0.037175044 0.9993088 0
vn -0.037175044 0.9993088 0
vn -0.037175044 0.9993088 0
vn -0.037175044 0.9993088 0
vn -0 0 -1
vn -0 0 -1
vn -0 0 -1
vn -0 0 -1
vn 0.99999774 0.0021443162 0
vn 0.99999774 0.0021443162 0
vn 0.99999774 0.0021443162 0
vn 0.99999774 0.0021443162 0
vn -0 -1 0
vn -0 -1 0
vn -0 -1 0
vn -0 -1 0
vn 1 0 0
vn 1 0 0
vn 1 0 0
vn 1 0 0
vn -0 0 1
vn -0 0 1
vn -0 0 1
vn -0 0 1
vn -1 0 0
vn -1 0 0
vn -1 0 0
vn -1 0 0
vn -0 0 -1
vn -0 0 -1
vn -0 0 -1
vn -0 0 -1
vn -0 1 0
vn -0 1 0
vn -0 1 0
vn -0 1 0
vn -0 -1 0
vn -0 -1 0
vn -0 -1 0
vn -0 -1 0
vn 1 0 0
vn 1 0 0
vn 1 0 0
vn 1 0 0
vn -0 0 1
vn -0 0 1
vn -0 0 1
vn -0 0 1
vn -1 0 0
vn -1 0 0
vn -1 0 0
vn -1 0 0
vn -0 0 -1
vn -0 0 -1
vn -0 0 -1
vn -0 0 -1
vn -0 1 0
vn -0 1 0
vn -0 1 0
vn -0 1 0
vn -0 -1 0
vn -0 -1 0
vn -0 -1 0
vn -0 -1 0
vn 1 0 0
vn 1 0 0
vn 1 0 0
vn 1 0 0
vn -0 0 1
vn -0 0 1
vn -0 0 1
vn -0 0 1
vn -1 0 0
vn -1 0 0
vn -1 0 0
vn -1 0 0
vn -0 0 -1
vn -0 0 -1
vn -0 0 -1
vn -0 0 -1
vn -0 1 0
vn -0 1 0
vn -0 1 0
vn -0 1 0
vn -0 -1 0
vn -0 -1 0
vn -0 -1 0
vn -0 -1 0
vn 1 0 0
vn 1 0 0
vn 1 0 0
vn 1 0 0
vn -0 0 1
vn -0 0 1
vn -0 0 1
vn -0 0 1
vn -1 0 0
vn -1 0 0
vn -1 0 0
vn -1 0 0
vn -0 0 -1
vn -0 0 -1
vn -0 0 -1
vn -0 0 -1
vn -0 1 0
vn -0 1 0
vn -0 1 0
vn -0 1 0
vn -0.0018979779 0.9999982 -0.00013625041
vn -0.0018979779 0.9999982 -0.00013625041
vn -0.0018979779 0.9999982 -0.00013625041
vn -0.0018979779 0.9999982 -0.00013625041
vn -0.0018071389 0.999998 0.00091243023
vn -0.0018071389 0.999998 0.00091243023
vn -0.0018071389 0.999998 0.00091243023
vn -0.0018071389 0.999998 0.00091243023
vn 0.000723963 0.9999982 0.001750634
vn 0.000723963 0.9999982 0.001750634
vn 0.000723963 0.9999982 0.001750634
vn 0.000723963 0.9999982 0.001750634
vn -0.004595881 0.9999895 -0.000110673194
vn -0.004595881 0.9999895 -0.000110673194
vn -0.004595881 0.9999895 -0.000110673194
vn -0.004595881 0.9999895 -0.000110673194
vn -0.9511079 0.2962076 0.08749197
vn -0.9511079 0.2962076 0.08749197
vn -0.9511079 0.2962076 0.08749197
vn -0.9511079 0.2962076 0.08749197
vn -0.06692747 0.31560457 0.94652766
vn -0.06692747 0.31560457 0.94652766
vn -0.06692747 0.31560457 0.94652766
vn -0.06692747 0.31560457 0.94652766
vn 0.7951454 0.32695967 0.5107262
vn 0.7951454 0.32695967 0.5107262
vn 0.7951454 0.32695967 0.5107262
vn 0.7951454 0.32695967 0.5107262
vn -0.9441831 0.32059872 -0.07572861
vn -0.9441831 0.32059872 -0.07572861
vn -0.9441831 0.32059872 -0.07572861
vn -0.9441831 0.32059872 -0.07572861
vn -0.8526945 0.29577935 0.430612
vn -0.8526945 0.29577935 0.430612
vn -0.8526945 0.29577935 0.430612
vn -0.8526945 0.29577935 0.430612
vn 0.36277106 0.31411004 0.8773437
vn 0.36277106 0.31411004 0.8773437
vn 0.36277106 0.31411004 0.8773437
vn 0.36277106 0.31411004 0.8773437
vn 0.925671 0.37759793 0.023519952
vn 0.925671 0.37759793 0.023519952
vn 0.925671 0.37759793 0.023519952
vn 0.925671 0.37759793 0.023519952
vn -0.07052971 0.008004009 0.9974776
vn -0.07052971 0.008004009 0.9974776
vn -0.07052971 0.008004009 0.9974776
vn -0.07052971 0.008004009 0.9974776
vn 0.8429022 0.007759209 0.53801084
vn 0.8429022 0.007759209 0.53801084
vn 0.8429022 0.007759209 0.53801084
vn 0.8429022 0.007759209 0.53801084
vn -0.9967886 -0.0045584147 -0.079947814
vn -0.9967886 -0.0045584147 -0.079947814
vn -0.9967886 -0.0045584147 -0.079947814
vn -0.9967886 -0.0045584147 -0.079947814
vn -0.89263415 0.0002541795 0.45078167
vn -0.89263415 0.0002541795 0.45078167
vn -0.89263415 0.0002541795 0.45078167
vn -0.89263415 0.0002541795 0.45078167
vn 0.3820947 0.00916323 0.92407775
vn 0.3820947 0.00916323 0.92407775
vn 0.3820947 0.00916323 0.92407775
vn 0.3820947 0.00916323 0.92407775
vn 0.99966884 0.004116788 0.02540016
vn 0.99966884 0.004116788 0.02540016
vn 0.99966884 0.004116788 0.02540016
vn 0.99966884 0.004116788 0.02540016
vn -0.9957908 -0.0031303791 0.09160223
vn -0.9957908 -0.0031303791 0.09160223
vn -0.9957908 -0.0031303791 0.09160223
vn -0.9957908 -0.0031303791 0.09160223
vn 0.0702728 -0.08563036 -0.99384564
vn 0.0702728 -0.08563036 -0.99384564
vn 0.0702728 -0.08563036 -0.99384564
vn 0.0702728 -0.08563036 -0.99384564
vn -0.81863886 0.24376237 -0.5200098
vn -0.81863886 0.24376237 -0.5200098
vn -0.81863886 0.24376237 -0.5200098
vn -0.81863886 0.24376237 -0.5200098
vn 0.9469668 -0.3157305 0.05973336
vn 0.9469668 -0.3157305 0.05973336
vn 0.9469668 -0.3157305 0.05973336
vn 0.9469668 -0.3157305 0.05973336
vn 0.8478702 -0.31270123 -0.4281754
vn 0.8478702 -0.31270123 -0.4281754
vn 0.8478702 -0.31270123 -0.4281754
vn 0.8478702 -0.31270123 -0.4281754
vn -0.3811427 0.071142904 -0.9217749
vn -0.3811427 0.071142904 -0.9217749
vn -0.3811427 0.071142904 -0.9217749
vn -0.3811427 0.071142904 -0.9217749
vn -0.9477236 0.3183806 -0.02130206
vn -0.9477236 0.3183806 -0.02130206
vn -0.9477236 0.3183806 -0.02130206
vn -0.9477236 0.3183806 -0.02130206
vn 0.94232255 -0.32328665 -0.08668365
vn 0.94232255 -0.32328665 -0.08668365
vn 0.94232255 -0.32328665 -0.08668365
vn 0.94232255 -0.32328665 -0.08668365
vn -0 0 -1
vn -0 0 -1
vn -0 0 -1
vn -0 0 -1
vn -0 0 -1
vn -0 0 -1
vn -0 0 -1
vn -0 0 -1
vn -0 0 1
vn -0 0 1
vn -0 0 1
vn -0 0 1
vn -0 0 1
vn -0 0 1
vn -0 0 1
vn -0 0 1
vn -1 0 0
vn -1 0 0
vn -1 0 0
vn -1 0 0
vn -0 -1 0
vn -0 -1 0
vn -0 -1 0
vn -0 -1 0
vn -1 0 0
vn -1 0 0
vn -1 0 0
vn -1 0 0
vn -0 1 0
vn -0 1 0
vn -0 1 0
vn -0 1 0
vn 1 0 0
vn 1 0 0
vn 1 0 0
vn 1 0 0
vn -0 1 0
vn -0 1 0
vn -0 1 0
vn -0 1 0
vn 1 0 0
vn 1 0 0
vn 1 0 0
vn 1 0 0
vn -0 -1 0
vn -0 -1 0
vn -0 -1 0
vn -0 -1 0
vn -0 0.2722725 0.96222025
vn -0 0.2722725 0.96222025
vn -0 0.2722725 0.96222025
vn -0 0.2722725 0.96222025
vn -0 0.27227238 0.96222025
vn -0 0.27227238 0.96222025
vn -0 0.27227238 0.96222025
vn -0 0.27227238 0.96222025
vn -1 0 0
vn -1 0 0
vn -1 0 0
vn -1 0 0
vn -0 -0.96222013 0.27227277
vn -0 -0.96222013 0.27227277
vn -0 -0.96222013 0.27227277
vn -0 -0.96222013 0.27227277
vn -1 0 0
vn -1 0 0
vn -1 0 0
vn -1 0 0
vn -0 0.96222013 -0.27227262
vn -0 0.96222013 -0.27227262
vn -0 0.96222013 -0.27227262
vn -0 0.96222013 -0.27227262
vn 1 0 0
vn 1 0 0
vn 1 0 0
vn 1 0 0
vn -0 0.96222013 -0.2722728
vn -0 0.96222013 -0.2722728
vn -0 0.96222013 -0.2722728
vn -0 0.96222013 -0.2722728
vn 1 0 0
vn 1 0 0
vn 1 0 0
vn 1 0 0
vn -0 -0.96222013 0.2722726
vn -0 -0.96222013 0.2722726
vn -0 -0.96222013 0.2722726
vn -0 -0.96222013 0.2722726
vn -0 0 -1
vn -0 0 -1
vn -0 0 -1
vn -0 0 -1
vn -0 0 1
vn -0 0 1
vn -0 0 1
vn -0 0 1
vn -1 0 0
vn -1 0 0
vn -1 0 0
vn -1 0 0
vn -0 1 0
vn -0 1 0
vn -0 1 0
vn -0 1 0
vn 1 0 0
vn 1 0 0
vn 1 0 0
vn 1 0 0
vn -0 -1 0
vn -0 -1 0
vn -0 -1 0
vn -0 -1 0
vn -0 -0.038506754 -0.99925834
vn -0 -0.038506754 -0.99925834
vn -0 -0.038506754 -0.99925834
vn -0 -0.038506754 -0.99925834
vn -0 0.03850543 0.99925834
vn -0 0.03850543 0.99925834
vn -0 0.03850543 0.99925834
vn -0 0.03850543 0.99925834
vn -1 0 0
vn -1 0 0
vn -1 0 0
vn -1 0 0
vn -0 0.9965963 -0.082436904
vn -0 0.9965963 -0.082436904
vn -0 0.9965963 -0.082436904
vn -0 0.9965963 -0.082436904
vn 1 0 0
vn 1 0 0
vn 1 0 0
vn 1 0 0
vn -0 -0.9965963 0.08243714
vn -0 -0.9965963 0.08243714
vn -0 -0.9965963 0.08243714
vn -0 -0.9965963 0.08243714
vn -1 0 0
vn -1 0 0
vn -1 0 0
vn -1 0 0
vn -0 -0.038126167 -0.999273
vn -0 -0.038126167 -0.999273
vn -0 -0.038126167 -0.999273
vn -0 -0.038126167 -0.999273
vn -1 0 0
vn -1 0 0
vn -1 0 0
vn -1 0 0
vn -0 0.03812593 0.999273
vn -0 0.03812593 0.999273
vn -0 0.03812593 0.999273
vn -0 0.03812593 0.999273
vn 1 0 0
vn 1 0 0
vn 1 0 0
vn 1 0 0
vn -0 0.03812593 0.999273
vn -0 0.03812593 0.999273
vn -0 0.03812593 0.999273
vn -0 0.03812593 0.999273
vn 1 0 0
vn 1 0 0
vn 1 0 0
vn 1 0 0
vn -0 -0.03812618 -0.999273
vn -0 -0.03812618 -0.999273
vn -0 -0.03812618 -0.999273
vn -0 -0.03812618 -0.999273
vn -1 0 0
vn -1 0 0
vn -1 0 0
vn -1 0 0
vn -0 -0.9734405 -0.22893994
vn -0 -0.9734405 -0.22893994
vn -0 -0.9734405 -0.22893994
vn -0 -0.9734405 -0.22893994
vn -1 0 0
vn -1 0 0
vn -1 0 0
vn -1 0 0
vn -0 0.97344065 0.22893986
vn -0 0.97344065 0.22893986
vn -0 0.97344065 0.22893986
vn -0 0.97344065 0.22893986
vn 1 0 0
vn 1 0 0
vn 1 0 0
vn 1 0 0
vn -0 0.9734405 0.22893997
vn -0 0.9734405 0.22893997
vn -0 0.9734405 0.22893997
vn -0 0.9734405 0.22893997
vn 1 0 0
vn 1 0 0
vn 1 0 0
vn 1 0 0
vn -0 -0.9734405 -0.22894007
vn -0 -0.9734405 -0.22894007
vn -0 -0.9734405 -0.22894007
vn -0 -0.9734405 -0.22894007
vn -0 -1 0
vn -0 -1 0
vn -0 -1 0
vn -0 -1 0
vn 1 0 0
vn 1 0 0
vn 1 0 0
vn 1 0 0
vn -0 0 1
vn -0 0 1
vn -0 0 1
vn -0 0 1
vn -1 0 0
vn -1 0 0
vn -1 0 0
vn -1 0 0
vn -0 0 -1
vn -0 0 -1
vn -0 0 -1
vn -0 0 -1
vn -0 1 0
vn -0 1 0
vn -0 1 0
vn -0 1 0
vn 0.123068005 -0.9923983 0
vn 0.123068005 -0.9923983 0
vn 0.123068005 -0.9923983 0
vn 0.123068005 -0.9923983 0
vn 0.9923983 0.12306781 0
vn 0.9923983 0.12306781 0
vn 0.9923983 0.12306781 0
vn 0.9923983 0.12306781 0
vn -0 0 1
vn -0 0 1
vn -0 0 1
vn -0 0 1
vn -0.9923983 -0.123067744 0
vn -0.9923983 -0.123067744 0
vn -0.9923983 -0.123067744 0
vn -0.9923983 -0.123067744 0
vn -0 0 -1
vn -0 0 -1
vn -0 0 -1
vn -0 0 -1
vn -0.12306827 0.9923982 0
vn -0.12306827 0.9923982 0
vn -0.12306827 0.9923982 0
vn -0.12306827 0.9923982 0
vn -0 1 0
vn -0 1 0
vn -0 1 0
vn -0 1 0
vn -0 0 -1
vn -0 0 -1
vn -0 0 -1
vn -0 0 -1
vn -1 0 0
vn -1 0 0
vn -1 0 0
vn -1 0 0
vn -0 0 1
vn -0 0 1
vn -0 0 1
vn -0 0 1
vn 1 0 0
vn 1 0 0
vn 1 0 0
vn 1 0 0
vn -0 -1 0
vn -0 -1 0
vn -0 -1 0
vn -0 -1 0
vn -0.0047210585 0.9999889 -0.00010611444
vn -0.0016943938 0.99999857 -0.00010681539
vn -0.0047210585 0.9999889 -0.00010611444
vn 0.00073296647 0.9999982 0.0017729397
vn -0.0016943938 0.99999857 -0.00010681539
vn 0.00073296647 0.9999982 0.0017729397
vn -0.0016943938 0.99999857 -0.00010681539
vn -0.0017641593 0.9999981 0.0008912586
vn -0.0017641593 0.9999981 0.0008912586
g MineShaft_0
f 3/3/3 2/2/2 1/1/1
f 4/4/4 3/3/3 1/1/1
f 7/7/7 6/6/6 5/5/5
f 8/8/8 7/7/7 5/5/5
f 11/11/11 10/10/10 9/9/9
f 12/12/12 11/11/11 9/9/9
f 15/15/15 14/14/14 13/13/13
f 16/16/16 15/15/15 13/13/13
f 19/19/19 18/18/18 17/17/17
f 20/20/20 19/19/19 17/17/17
f 23/23/23 22/22/22 21/21/21
f 24/24/24 23/23/23 21/21/21
f 27/27/27 26/26/26 25/25/25
f 28/28/28 27/27/27 25/25/25
f 31/31/31 30/30/30 29/29/29
f 32/32/32 31/31/31 29/29/29
f 35/35/35 34/34/34 33/33/33
f 36/36/36 35/35/35 33/33/33
f 39/39/39 38/38/38 37/37/37
f 40/40/40 39/39/39 37/37/37
f 43/43/43 42/42/42 41/41/41
f 44/44/44 43/43/43 41/41/41
f 47/47/47 46/46/46 45/45/45
f 48/48/48 47/47/47 45/45/45
f 51/51/51 50/50/50 49/49/49
f 52/52/52 51/51/51 49/49/49
f 55/55/55 54/54/54 53/53/53
f 56/56/56 55/55/55 53/53/53
f 59/59/59 58/58/58 57/57/57
f 60/60/60 59/59/59 57/57/57
f 63/63/63 62/62/62 61/61/61
f 64/64/64 63/63/63 61/61/61
f 67/67/67 66/66/66 65/65/65
f 68/68/68 67/67/67 65/65/65
f 71/71/71 70/70/70 69/69/69
f 72/72/72 71/71/71 69/69/69
f 75/75/75 74/74/74 73/73/73
f 76/76/76 75/75/75 73/73/73
f 79/79/79 78/78/78 77/77/77
f 80/80/80 79/79/79 77/77/77
f 83/83/83 82/82/82 81/81/81
f 84/84/84 83/83/83 81/81/81
f 87/87/87 86/86/86 85/85/85
f 88/88/88 87/87/87 85/85/85
f 91/91/91 90/90/90 89/89/89
f 92/92/92 91/91/91 89/89/89
f 95/95/95 94/94/94 93/93/93
f 96/96/96 95/95/95 93/93/93
f 99/99/99 98/98/98 97/97/97
f 100/100/100 99/99/99 97/97/97
f 103/103/103 102/102/102 101/101/101
f 104/104/104 103/103/103 101/101/101
f 107/107/107 106/106/106 105/105/105
f 108/108/108 107/107/107 105/105/105
f 111/111/111 110/110/110 109/109/109
f 112/112/112 111/111/111 109/109/109
f 115/115/115 114/114/114 113/113/113
f 116/116/116 115/115/115 113/113/113
f 119/119/119 118/118/118 117/117/117
f 120/120/120 119/119/119 117/117/117
f 123/123/123 122/122/122 121/121/121
f 124/124/124 123/123/123 121/121/121
f 127/127/127 126/126/126 125/125/125
f 128/128/128 127/127/127 125/125/125
f 131/131/131 130/130/130 129/129/129
f 132/132/132 131/131/131 129/129/129
f 135/135/135 134/134/134 133/133/133
f 136/136/136 135/135/135 133/133/133
f 139/139/139 138/138/138 137/137/137
f 140/140/140 139/139/139 137/137/137
f 143/143/143 142/142/142 141/141/141
f 144/144/144 143/143/143 141/141/141
f 147/147/147 146/146/146 145/145/145
f 148/148/148 147/147/147 145/145/145
f 151/151/151 150/150/150 149/149/149
f 152/152/152 151/151/151 149/149/149
f 155/155/155 154/154/154 153/153/153
f 156/156/156 155/155/155 153/153/153
f 159/159/159 158/158/158 157/157/157
f 160/160/160 159/159/159 157/157/157
f 163/163/163 162/162/162 161/161/161
f 164/164/164 163/163/163 161/161/161
f 167/167/167 166/166/166 165/165/165
f 168/168/168 167/167/167 165/165/165
f 171/171/171 170/170/170 169/169/169
f 170/170/170 172/172/172 169/169/169
f 169/169/169 172/172/172 173/173/173
f 172/172/172 174/174/174 173/173/173
f 173/173/173 174/174/174 175/175/175
f 174/174/174 176/176/176 175/175/175
f 175/175/175 176/176/176 177/177/177
f 176/176/176 178/178/178 177/177/177
f 177/177/177 178/178/178 179/179/179
f 178/178/178 180/180/180 179/179/179
f 179/179/179 180/180/180 181/181/181
f 180/180/180 182/182/182 181/181/181
f 181/181/181 182/182/182 183/183/183
f 182/182/182 184/184/184 183/183/183
f 187/187/187 186/186/186 185/185/185
f 188/188/188 187/187/187 185/185/185
f 191/191/191 190/190/190 189/189/189
f 192/192/192 191/191/191 189/189/189
f 195/195/195 194/194/194 193/193/193
f 196/196/196 195/195/195 193/193/193
f 199/199/199 198/198/198 197/197/197
f 200/200/200 199/199/199 197/197/197
f 203/203/203 202/202/202 201/201/201
f 204/204/204 203/203/203 201/201/201
f 207/207/207 206/206/206 205/205/205
f 208/208/208 207/207/207 205/205/205
f 211/211/211 210/210/210 209/209/209
f 212/212/212 211/211/211 209/209/209
f 215/215/215 214/214/214 213/213/213
f 216/216/216 215/215/215 213/213/213
f 219/219/219 218/218/218 217/217/217
f 220/220/220 219/219/219 217/217/217
f 223/223/223 222/222/222 221/221/221
f 224/224/224 223/223/223 221/221/221
f 227/227/227 226/226/226 225/225/225
f 228/228/228 227/227/227 225/225/225
f 231/231/231 230/230/230 229/229/229
f 232/232/232 231/231/231 229/229/229
f 235/235/235 234/234/234 233/233/233
f 236/236/236 235/235/235 233/233/233
f 239/239/239 238/238/238 237/237/237
f 240/240/240 239/239/239 237/237/237
f 243/243/243 242/242/242 241/241/241
f 244/244/244 243/243/243 241/241/241
f 247/247/247 246/246/246 245/245/245
f 248/248/248 247/247/247 245/245/245
f 251/251/251 250/250/250 249/249/249
f 252/252/252 251/251/251 249/249/249
f 255/255/255 254/254/254 253/253/253
f 256/256/256 255/255/255 253/253/253
f 259/259/259 258/258/258 257/257/257
f 260/260/260 259/259/259 257/257/257
f 263/263/263 262/262/262 261/261/261
f 264/264/264 263/263/263 261/261/261
f 267/267/267 266/266/266 265/265/265
f 268/268/268 267/267/267 265/265/265
f 271/271/271 270/270/270 269/269/269
f 272/272/272 271/271/271 269/269/269
f 275/275/275 274/274/274 273/273/273
f 276/276/276 275/275/275 273/273/273
f 279/279/279 278/278/278 277/277/277
f 280/280/280 279/279/279 277/277/277
f 283/283/283 282/282/282 281/281/281
f 284/284/284 283/283/283 281/281/281
f 287/287/287 286/286/286 285/285/285
f 288/288/288 287/287/287 285/285/285
f 291/291/291 290/290/290 289/289/289
f 292/292/292 291/291/291 289/289/289
f 295/295/295 294/294/294 293/293/293
f 296/296/296 295/295/295 293/293/293
f 299/299/299 298/298/298 297/297/297
f 300/300/300 299/299/299 297/297/297
f 303/303/303 302/302/302 301/301/301
f 304/304/304 303/303/303 301/301/301
f 307/307/307 306/306/306 305/305/305
f 308/308/308 307/307/307 305/305/305
f 311/311/311 310/310/310 309/309/309
f 312/312/312 311/311/311 309/309/309
f 315/315/315 314/314/314 313/313/313
f 316/316/316 315/315/315 313/313/313
f 319/319/319 318/318/318 317/317/317
f 320/320/320 319/319/319 317/317/317
f 323/323/323 322/322/322 321/321/321
f 324/324/324 323/323/323 321/321/321
f 327/327/327 326/326/326 325/325/325
f 328/328/328 327/327/327 325/325/325
f 331/331/331 330/330/330 329/329/329
f 332/332/332 331/331/331 329/329/329
f 335/335/335 334/334/334 333/333/333
f 336/336/336 335/335/335 333/333/333
f 339/339/339 338/338/338 337/337/337
f 340/340/340 339/339/339 337/337/337
f 343/343/343 342/342/342 341/341/341
f 344/344/344 343/343/343 341/341/341
f 347/347/347 346/346/346 345/345/345
f 348/348/348 347/347/347 345/345/345
f 351/351/351 350/350/350 349/349/349
f 352/352/352 351/351/351 349/349/349
f 355/355/355 354/354/354 353/353/353
f 356/356/356 355/355/355 353/353/353
f 359/359/359 358/358/358 357/357/357
f 360/360/360 359/359/359 357/357/357
f 363/363/363 362/362/362 361/361/361
f 364/364/364 363/363/363 361/361/361
f 367/367/367 366/366/366 365/365/365
f 368/368/368 367/367/367 365/365/365
f 371/371/371 370/370/370 369/369/369
f 372/372/372 371/371/371 369/369/369
f 375/375/375 374/374/374 373/373/373
f 376/376/376 375/375/375 373/373/373
f 379/379/379 378/378/378 377/377/377
f 380/380/380 379/379/379 377/377/377
f 383/383/383 382/382/382 381/381/381
f 384/384/384 383/383/383 381/381/381
f 387/387/387 386/386/386 385/385/385
f 388/388/388 387/387/387 385/385/385
f 391/391/391 390/390/390 389/389/389
f 392/392/392 391/391/391 389/389/389
f 395/395/395 394/394/394 393/393/393
f 396/396/396 395/395/395 393/393/393
f 399/399/399 398/398/398 397/397/397
f 400/400/400 399/399/399 397/397/397
f 403/403/403 402/402/402 401/401/401
f 404/404/404 403/403/403 401/401/401
f 407/407/407 406/406/406 405/405/405
f 408/408/408 407/407/407 405/405/405
f 411/411/411 410/410/410 409/409/409
f 412/412/412 411/411/411 409/409/409
f 415/415/415 414/414/414 413/413/413
f 416/416/416 415/415/415 413/413/413
f 419/419/419 418/418/418 417/417/417
f 420/420/420 419/419/419 417/417/417
f 423/423/423 422/422/422 421/421/421
f 424/424/424 423/423/423 421/421/421
f 427/427/427 426/426/426 425/425/425
f 428/428/428 427/427/427 425/425/425
f 431/431/431 430/430/430 429/429/429
f 432/432/432 431/431/431 429/429/429
f 435/435/435 434/434/434 433/433/433
f 436/436/436 435/435/435 433/433/433
f 439/439/439 438/438/438 437/437/437
f 440/440/440 439/439/439 437/437/437
f 443/443/443 442/442/442 441/441/441
f 444/444/444 443/443/443 441/441/441
f 447/447/447 446/446/446 445/445/445
f 448/448/448 447/447/447 445/445/445
f 451/451/451 450/450/450 449/449/449
f 452/452/452 451/451/451 449/449/449
f 455/455/455 454/454/454 453/453/453
f 456/456/456 455/455/455 453/453/453
f 459/459/459 458/458/458 457/457/457
f 460/460/460 459/459/459 457/457/457
f 463/463/463 462/462/462 461/461/461
f 464/464/464 463/463/463 461/461/461
f 467/467/467 466/466/466 465/465/465
f 468/468/468 467/467/467 465/465/465
f 471/471/471 470/470/470 469/469/469
f 472/472/472 471/471/471 469/469/469
f 475/475/475 474/474/474 473/473/473
f 476/476/476 475/475/475 473/473/473
f 479/479/479 478/478/478 477/477/477
f 480/480/480 479/479/479 477/477/477
f 483/483/483 482/482/482 481/481/481
f 484/484/484 483/483/483 481/481/481
f 487/487/487 486/486/486 485/485/485
f 488/488/488 487/487/487 485/485/485
f 491/491/491 490/490/490 489/489/489
f 492/492/492 491/491/491 489/489/489
f 495/495/495 494/494/494 493/493/493
f 496/496/496 495/495/495 493/493/493
f 499/499/499 498/498/498 497/497/497
f 500/500/500 499/499/499 497/497/497
f 503/503/503 502/502/502 501/501/501
f 504/504/504 503/503/503 501/501/501
f 507/507/507 506/506/506 505/505/505
f 508/508/508 507/507/507 505/505/505
f 511/511/511 510/510/510 509/509/509
f 512/512/512 511/511/511 509/509/509
f 515/515/515 514/514/514 513/513/513
f 516/516/516 515/515/515 513/513/513
f 519/519/519 518/518/518 517/517/517
f 519/519/519 518/518/518 517/517/517
f 518/518/518 520/520/520 517/517/517
f 518/518/518 520/520/520 517/517/517
f 523/523/523 522/522/522 521/521/521
f 523/523/523 522/522/522 521/521/521
f 522/522/522 524/524/524 521/521/521
f 522/522/522 524/524/524 521/521/521
f 527/527/527 526/526/526 525/525/525
f 527/527/527 526/526/526 525/525/525
f 528/528/528 527/527/527 525/525/525
f 528/528/528 527/527/527 525/525/525
f 531/531/531 530/530/530 529/529/529
f 531/531/531 530/530/530 529/529/529
f 532/532/532 531/531/531 529/529/529
f 532/532/532 531/531/531 529/529/529
f 535/535/535 534/534/534 533/533/533
f 535/535/535 534/534/534 533/533/533
f 534/534/534 536/536/536 533/533/533
f 534/534/534 536/536/536 533/533/533
f 539/539/539 538/538/538 537/537/537
f 539/539/539 538/538/538 537/537/537
f 538/538/538 540/540/540 537/537/537
f 538/538/538 540/540/540 537/537/537
g MineShaft_1
f 543/543/543 542/542/542 541/541/541
f 541/541/541 542/542/542 544/544/544
f 542/542/542 543/543/543 545/545/545
f 544/544/544 542/542/542 546/546/546
f 547/547/547 542/542/542 545/545/545
f 546/546/546 542/542/542 548/548/548
f 549/549/549 542/542/542 547/547/547
f 548/548/548 542/542/542 549/549/549
