g Monster Rider Mount Legs
v -0.32783008 0.43180585 1.0610726
v -0.5984024 0.538862 -0.024198413
v -0.67405117 0.50589985 0.0004969835
v -0.20237559 0.48646963 1.0201185
v -0.5670676 0.61843956 -0.034427524
v -0.15041074 0.6184396 1.0031548
v -0.5984024 0.6980172 -0.024198413
v -0.20237565 0.75040954 1.0201184
v -0.67405117 0.7309793 0.0004969835
v -0.32783008 0.8050732 1.0610726
v -0.74969995 0.6980172 0.025192142
v -0.45328447 0.75040954 1.1020267
v -0.78103465 0.61843956 0.03542149
v -0.50524944 0.6184395 1.1189905
v -0.74969995 0.538862 0.02519238
v -0.45328456 0.48646963 1.1020268
v -0.67405117 0.50589985 0.0004969835
v -0.32783008 0.43180585 1.0610726
v -0.5984024 0.538862 -0.024198413
v -0.5670676 0.61843956 -0.034427524
v -0.5984024 0.6980172 -0.024198413
v -0.67405117 0.50589985 0.0004969835
v -0.67405117 0.7309793 0.0004969835
v -0.74969995 0.538862 0.02519238
v -0.74969995 0.6980172 0.025192142
v -0.78103465 0.61843956 0.03542149
v -0.20237565 0.75040954 1.0201184
v -0.15041074 0.6184396 1.0031548
v -0.20237559 0.48646963 1.0201185
v -0.32783008 0.43180585 1.0610726
v -0.32783008 0.8050732 1.0610726
v -0.45328447 0.75040954 1.1020267
v -0.45328456 0.48646963 1.1020268
v -0.50524944 0.6184395 1.1189905
v -0.32783008 -0.8050734 1.0610726
v -0.5984024 -0.69801724 -0.024198413
v -0.67405117 -0.7309794 0.0004969835
v -0.20237559 -0.7504096 1.0201185
v -0.5670676 -0.6184397 -0.034427524
v -0.15041074 -0.6184396 1.0031548
v -0.5984024 -0.53886205 -0.024198413
v -0.20237565 -0.4864697 1.0201184
v -0.67405117 -0.5058999 0.0004969835
v -0.32783008 -0.43180603 1.0610726
v -0.74969995 -0.53886205 0.025192142
v -0.45328447 -0.4864697 1.1020267
v -0.78103465 -0.6184397 0.03542149
v -0.50524944 -0.61843973 1.1189905
v -0.74969995 -0.69801724 0.02519238
v -0.45328456 -0.7504096 1.1020268
v -0.67405117 -0.7309794 0.0004969835
v -0.32783008 -0.8050734 1.0610726
v -0.5984024 -0.69801724 -0.024198413
v -0.5670676 -0.6184397 -0.034427524
v -0.5984024 -0.53886205 -0.024198413
v -0.67405117 -0.7309794 0.0004969835
v -0.67405117 -0.5058999 0.0004969835
v -0.74969995 -0.69801724 0.02519238
v -0.74969995 -0.53886205 0.025192142
v -0.78103465 -0.6184397 0.03542149
v -0.20237565 -0.4864697 1.0201184
v -0.15041074 -0.6184396 1.0031548
v -0.20237559 -0.7504096 1.0201185
v -0.32783008 -0.8050734 1.0610726
v -0.32783008 -0.43180603 1.0610726
v -0.45328447 -0.4864697 1.1020267
v -0.45328456 -0.7504096 1.1020268
v -0.50524944 -0.61843973 1.1189905
v 0.33398253 0.43180585 1.062067
v 0.74984175 0.538862 0.023759007
v 0.6740511 0.50589985 -0.00049746037
v 0.45967227 0.48646963 1.1022935
v 0.7812352 0.61843956 0.033806324
v 0.5117346 0.6184396 1.1189557
v 0.74984175 0.6980172 0.023759007
v 0.45967233 0.75040954 1.1022933
v 0.6740511 0.7309793 -0.00049746037
v 0.33398253 0.8050732 1.062067
v 0.5982605 0.6980172 -0.024753928
v 0.2082929 0.75040954 1.0218407
v 0.56686693 0.61843956 -0.034801126
v 0.15623045 0.6184395 1.0051783
v 0.5982604 0.538862 -0.02475369
v 0.20829278 0.48646963 1.0218407
v 0.6740511 0.50589985 -0.00049746037
v 0.33398253 0.43180585 1.062067
v 0.74984175 0.538862 0.023759007
v 0.7812352 0.61843956 0.033806324
v 0.74984175 0.6980172 0.023759007
v 0.6740511 0.50589985 -0.00049746037
v 0.6740511 0.7309793 -0.00049746037
v 0.5982604 0.538862 -0.02475369
v 0.5982605 0.6980172 -0.024753928
v 0.56686693 0.61843956 -0.034801126
v 0.45967233 0.75040954 1.1022933
v 0.5117346 0.6184396 1.1189557
v 0.45967227 0.48646963 1.1022935
v 0.33398253 0.8050732 1.062067
v 0.33398253 0.43180585 1.062067
v 0.2082929 0.75040954 1.0218407
v 0.20829278 0.48646963 1.0218407
v 0.15623045 0.6184395 1.0051783
v 0.33398253 -0.8050734 1.062067
v 0.74984175 -0.69801724 0.023759007
v 0.6740511 -0.7309794 -0.00049746037
v 0.45967227 -0.7504096 1.1022935
v 0.7812352 -0.6184397 0.033806324
v 0.5117346 -0.6184396 1.1189557
v 0.74984175 -0.53886205 0.023759007
v 0.45967233 -0.4864697 1.1022933
v 0.6740511 -0.5058999 -0.00049746037
v 0.33398253 -0.43180603 1.062067
v 0.5982605 -0.53886205 -0.024753928
v 0.2082929 -0.4864697 1.0218407
v 0.56686693 -0.6184397 -0.034801126
v 0.15623045 -0.61843973 1.0051783
v 0.5982604 -0.69801724 -0.02475369
v 0.20829278 -0.7504096 1.0218407
v 0.6740511 -0.7309794 -0.00049746037
v 0.33398253 -0.8050734 1.062067
v 0.74984175 -0.69801724 0.023759007
v 0.7812352 -0.6184397 0.033806324
v 0.74984175 -0.53886205 0.023759007
v 0.6740511 -0.7309794 -0.00049746037
v 0.6740511 -0.5058999 -0.00049746037
v 0.5982604 -0.69801724 -0.02475369
v 0.5982605 -0.53886205 -0.024753928
v 0.56686693 -0.6184397 -0.034801126
v 0.45967233 -0.4864697 1.1022933
v 0.5117346 -0.6184396 1.1189557
v 0.45967227 -0.7504096 1.1022935
v 0.33398253 -0.43180603 1.062067
v 0.33398253 -0.8050734 1.062067
v 0.2082929 -0.4864697 1.0218407
v 0.20829278 -0.7504096 1.0218407
v 0.15623045 -0.61843973 1.0051783
vt 1 0.5
vt 0.875 1
vt 1 1
vt 0.875 0.5
vt 0.75 1
vt 0.75 0.5
vt 0.625 1
vt 0.625 0.5
vt 0.5 1
vt 0.5 0.5
vt 0.375 1
vt 0.375 0.5
vt 0.25 1
vt 0.25 0.5
vt 0.125 1
vt 0.125 0.5
vt 0 1
vt 0 0.5
vt 0.41970563 0.41970563
vt 0.49 0.24999999
vt 0.41970563 0.080294386
vt 0.25 0.49
vt 0.24999999 0.010000005
vt 0.080294356 0.4197056
vt 0.0802944 0.08029437
vt 0.010000005 0.25
vt 0.9197056 0.080294386
vt 0.99 0.24999999
vt 0.9197056 0.41970563
vt 0.75 0.49
vt 0.75 0.010000005
vt 0.5802944 0.08029437
vt 0.5802944 0.4197056
vt 0.51 0.25
vt 1 0.5
vt 0.875 1
vt 1 1
vt 0.875 0.5
vt 0.75 1
vt 0.75 0.5
vt 0.625 1
vt 0.625 0.5
vt 0.5 1
vt 0.5 0.5
vt 0.375 1
vt 0.375 0.5
vt 0.25 1
vt 0.25 0.5
vt 0.125 1
vt 0.125 0.5
vt 0 1
vt 0 0.5
vt 0.41970563 0.41970563
vt 0.49 0.24999999
vt 0.41970563 0.080294386
vt 0.25 0.49
vt 0.24999999 0.010000005
vt 0.080294356 0.4197056
vt 0.0802944 0.08029437
vt 0.010000005 0.25
vt 0.9197056 0.080294386
vt 0.99 0.24999999
vt 0.9197056 0.41970563
vt 0.75 0.49
vt 0.75 0.010000005
vt 0.5802944 0.08029437
vt 0.5802944 0.4197056
vt 0.51 0.25
vt 1 0.5
vt 0.875 1
vt 1 1
vt 0.875 0.5
vt 0.75 1
vt 0.75 0.5
vt 0.625 1
vt 0.625 0.5
vt 0.5 1
vt 0.5 0.5
vt 0.375 1
vt 0.375 0.5
vt 0.25 1
vt 0.25 0.5
vt 0.125 1
vt 0.125 0.5
vt 0 1
vt 0 0.5
vt 0.41970563 0.41970563
vt 0.49 0.24999999
vt 0.41970563 0.080294386
vt 0.25 0.49
vt 0.24999999 0.010000005
vt 0.080294356 0.4197056
vt 0.0802944 0.08029437
vt 0.010000005 0.25
vt 0.9197056 0.080294386
vt 0.99 0.24999999
vt 0.9197056 0.41970563
vt 0.75 0.010000005
vt 0.75 0.49
vt 0.5802944 0.08029437
vt 0.5802944 0.4197056
vt 0.51 0.25
vt 1 0.5
vt 0.875 1
vt 1 1
vt 0.875 0.5
vt 0.75 1
vt 0.75 0.5
vt 0.625 1
vt 0.625 0.5
vt 0.5 1
vt 0.5 0.5
vt 0.375 1
vt 0.375 0.5
vt 0.25 1
vt 0.25 0.5
vt 0.125 1
vt 0.125 0.5
vt 0 1
vt 0 0.5
vt 0.41970563 0.41970563
vt 0.49 0.24999999
vt 0.41970563 0.080294386
vt 0.25 0.49
vt 0.24999999 0.010000005
vt 0.080294356 0.4197056
vt 0.0802944 0.08029437
vt 0.010000005 0.25
vt 0.9197056 0.080294386
vt 0.99 0.24999999
vt 0.9197056 0.41970563
vt 0.75 0.010000005
vt 0.75 0.49
vt 0.5802944 0.08029437
vt 0.5802944 0.4197056
vt 0.51 0.25
vn 0.18781047 -0.7960757 0.575318
vn 0.3046721 -0.5343152 -0.7884681
vn -0.2032634 -0.7556361 -0.622654
vn 0.72292984 -0.56291014 0.4006303
vn 0.51506627 0 -0.8571503
vn 0.94458294 0 0.32827273
vn 0.3046721 0.53431505 -0.78846836
vn 0.72292966 0.5629106 0.4006301
vn -0.20326366 0.7556363 -0.6226537
vn 0.18781042 0.79607546 0.57531816
vn -0.7111991 0.5343147 -0.45684093
vn -0.34730878 0.56291056 0.75000554
vn -0.921593 0 -0.3881574
vn -0.56896216 0 0.8223637
vn -0.71119916 -0.53431547 -0.45683977
vn -0.34730867 -0.56291014 0.7500059
vn -0.2032634 -0.7556361 -0.622654
vn 0.18781047 -0.7960757 0.575318
vn 0.3046721 -0.5343152 -0.7884681
vn 0.51506627 0 -0.8571503
vn 0.3046721 0.53431505 -0.78846836
vn -0.2032634 -0.7556361 -0.622654
vn -0.20326366 0.7556363 -0.6226537
vn -0.71119916 -0.53431547 -0.45683977
vn -0.7111991 0.5343147 -0.45684093
vn -0.921593 0 -0.3881574
vn 0.72292966 0.5629106 0.4006301
vn 0.94458294 0 0.32827273
vn 0.72292984 -0.56291014 0.4006303
vn 0.18781047 -0.7960757 0.575318
vn 0.18781042 0.79607546 0.57531816
vn -0.34730878 0.56291056 0.75000554
vn -0.34730867 -0.56291014 0.7500059
vn -0.56896216 0 0.8223637
vn 0.18781048 -0.7960757 0.5753179
vn 0.3046721 -0.53431535 -0.7884681
vn -0.20326345 -0.7556361 -0.622654
vn 0.72292984 -0.5629102 0.4006302
vn 0.51506627 0 -0.8571503
vn 0.94458294 0 0.32827273
vn 0.304672 0.53431505 -0.7884683
vn 0.7229297 0.5629106 0.40062997
vn -0.20326376 0.7556364 -0.6226536
vn 0.18781045 0.79607546 0.5753182
vn -0.7111991 0.5343147 -0.45684075
vn -0.3473087 0.56291056 0.7500056
vn -0.9215931 0 -0.38815725
vn -0.5689621 0 0.8223637
vn -0.71119934 -0.53431547 -0.45683977
vn -0.34730864 -0.5629102 0.7500059
vn -0.20326345 -0.7556361 -0.622654
vn 0.18781048 -0.7960757 0.5753179
vn 0.3046721 -0.53431535 -0.7884681
vn 0.51506627 0 -0.8571503
vn 0.304672 0.53431505 -0.7884683
vn -0.20326345 -0.7556361 -0.622654
vn -0.20326376 0.7556364 -0.6226536
vn -0.71119934 -0.53431547 -0.45683977
vn -0.7111991 0.5343147 -0.45684075
vn -0.9215931 0 -0.38815725
vn 0.7229297 0.5629106 0.40062997
vn 0.94458294 0 0.32827273
vn 0.72292984 -0.5629102 0.4006302
vn 0.18781048 -0.7960757 0.5753179
vn 0.18781045 0.79607546 0.5753182
vn -0.3473087 0.56291056 0.7500056
vn -0.34730864 -0.5629102 0.7500059
vn -0.5689621 0 0.8223637
vn -0.18447311 -0.79607564 0.5763967
vn 0.7085391 -0.5343156 -0.46095458
vn 0.19965108 -0.7556359 -0.623822
vn 0.35164955 -0.56291026 0.74798036
vn 0.9193276 0 -0.39349318
vn 0.57371855 0 0.8190525
vn 0.7085392 0.5343154 -0.46095476
vn 0.35164964 0.562911 0.74797976
vn 0.19965062 0.7556361 -0.6238219
vn -0.18447347 0.7960754 0.57639694
vn -0.30923688 0.53431505 -0.7866893
vn -0.7205953 0.56291056 0.40481353
vn -0.5200257 0 -0.8541507
vn -0.9426648 0 0.33374113
vn -0.30923748 -0.5343157 -0.78668857
vn -0.7205957 -0.5629102 0.40481344
vn 0.19965108 -0.7556359 -0.623822
vn -0.18447311 -0.79607564 0.5763967
vn 0.7085391 -0.5343156 -0.46095458
vn 0.9193276 0 -0.39349318
vn 0.7085392 0.5343154 -0.46095476
vn 0.19965108 -0.7556359 -0.623822
vn 0.19965062 0.7556361 -0.6238219
vn -0.30923748 -0.5343157 -0.78668857
vn -0.30923688 0.53431505 -0.7866893
vn -0.5200257 0 -0.8541507
vn 0.35164964 0.562911 0.74797976
vn 0.57371855 0 0.8190525
vn 0.35164955 -0.56291026 0.74798036
vn -0.18447347 0.7960754 0.57639694
vn -0.18447311 -0.79607564 0.5763967
vn -0.7205953 0.56291056 0.40481353
vn -0.7205957 -0.5629102 0.40481344
vn -0.9426648 0 0.33374113
vn -0.18447313 -0.79607564 0.5763968
vn 0.70853925 -0.5343156 -0.46095452
vn 0.19965115 -0.7556359 -0.6238219
vn 0.35164958 -0.5629103 0.74798024
vn 0.9193276 0 -0.3934931
vn 0.5737185 0 0.8190526
vn 0.70853925 0.5343154 -0.46095458
vn 0.35164958 0.5629109 0.7479799
vn 0.19965068 0.7556361 -0.6238218
vn -0.18447348 0.7960754 0.57639694
vn -0.30923682 0.53431505 -0.7866893
vn -0.72059536 0.56291056 0.40481344
vn -0.5200257 0 -0.8541507
vn -0.9426648 0 0.33374116
vn -0.30923748 -0.5343159 -0.78668857
vn -0.72059566 -0.5629102 0.4048136
vn 0.19965115 -0.7556359 -0.6238219
vn -0.18447313 -0.79607564 0.5763968
vn 0.70853925 -0.5343156 -0.46095452
vn 0.9193276 0 -0.3934931
vn 0.70853925 0.5343154 -0.46095458
vn 0.19965115 -0.7556359 -0.6238219
vn 0.19965068 0.7556361 -0.6238218
vn -0.30923748 -0.5343159 -0.78668857
vn -0.30923682 0.53431505 -0.7866893
vn -0.5200257 0 -0.8541507
vn 0.35164958 0.5629109 0.7479799
vn 0.5737185 0 0.8190526
vn 0.35164958 -0.5629103 0.74798024
vn -0.18447348 0.7960754 0.57639694
vn -0.18447313 -0.79607564 0.5763968
vn -0.72059536 0.56291056 0.40481344
vn -0.72059566 -0.5629102 0.4048136
vn -0.9426648 0 0.33374116
g Monster Rider Mount Legs_0
f 3/3/3 2/2/2 1/1/1
f 2/2/2 4/4/4 1/1/1
f 2/2/2 5/5/5 4/4/4
f 5/5/5 6/6/6 4/4/4
f 5/5/5 7/7/7 6/6/6
f 7/7/7 8/8/8 6/6/6
f 7/7/7 9/9/9 8/8/8
f 9/9/9 10/10/10 8/8/8
f 9/9/9 11/11/11 10/10/10
f 11/11/11 12/12/12 10/10/10
f 11/11/11 13/13/13 12/12/12
f 13/13/13 14/14/14 12/12/12
f 13/13/13 15/15/15 14/14/14
f 15/15/15 16/16/16 14/14/14
f 15/15/15 17/17/17 16/16/16
f 17/17/17 18/18/18 16/16/16
f 21/21/21 20/20/20 19/19/19
f 19/19/19 22/22/22 21/21/21
f 22/22/22 23/23/23 21/21/21
f 22/22/22 24/24/24 23/23/23
f 24/24/24 25/25/25 23/23/23
f 24/24/24 26/26/26 25/25/25
f 29/29/29 28/28/28 27/27/27
f 27/27/27 30/30/30 29/29/29
f 27/27/27 31/31/31 30/30/30
f 31/31/31 32/32/32 30/30/30
f 32/32/32 33/33/33 30/30/30
f 32/32/32 34/34/34 33/33/33
f 37/37/37 36/36/36 35/35/35
f 36/36/36 38/38/38 35/35/35
f 36/36/36 39/39/39 38/38/38
f 39/39/39 40/40/40 38/38/38
f 39/39/39 41/41/41 40/40/40
f 41/41/41 42/42/42 40/40/40
f 41/41/41 43/43/43 42/42/42
f 43/43/43 44/44/44 42/42/42
f 43/43/43 45/45/45 44/44/44
f 45/45/45 46/46/46 44/44/44
f 45/45/45 47/47/47 46/46/46
f 47/47/47 48/48/48 46/46/46
f 47/47/47 49/49/49 48/48/48
f 49/49/49 50/50/50 48/48/48
f 49/49/49 51/51/51 50/50/50
f 51/51/51 52/52/52 50/50/50
f 55/55/55 54/54/54 53/53/53
f 53/53/53 56/56/56 55/55/55
f 56/56/56 57/57/57 55/55/55
f 56/56/56 58/58/58 57/57/57
f 58/58/58 59/59/59 57/57/57
f 58/58/58 60/60/60 59/59/59
f 63/63/63 62/62/62 61/61/61
f 61/61/61 64/64/64 63/63/63
f 61/61/61 65/65/65 64/64/64
f 65/65/65 66/66/66 64/64/64
f 66/66/66 67/67/67 64/64/64
f 66/66/66 68/68/68 67/67/67
f 71/71/71 70/70/70 69/69/69
f 70/70/70 72/72/72 69/69/69
f 70/70/70 73/73/73 72/72/72
f 73/73/73 74/74/74 72/72/72
f 73/73/73 75/75/75 74/74/74
f 75/75/75 76/76/76 74/74/74
f 75/75/75 77/77/77 76/76/76
f 77/77/77 78/78/78 76/76/76
f 77/77/77 79/79/79 78/78/78
f 79/79/79 80/80/80 78/78/78
f 79/79/79 81/81/81 80/80/80
f 81/81/81 82/82/82 80/80/80
f 81/81/81 83/83/83 82/82/82
f 83/83/83 84/84/84 82/82/82
f 83/83/83 85/85/85 84/84/84
f 85/85/85 86/86/86 84/84/84
f 89/89/89 88/88/88 87/87/87
f 87/87/87 90/90/90 89/89/89
f 90/90/90 91/91/91 89/89/89
f 90/90/90 92/92/92 91/91/91
f 92/92/92 93/93/93 91/91/91
f 92/92/92 94/94/94 93/93/93
f 97/97/97 96/96/96 95/95/95
f 95/95/95 98/98/98 97/97/97
f 98/98/98 99/99/99 97/97/97
f 98/98/98 100/100/100 99/99/99
f 100/100/100 101/101/101 99/99/99
f 100/100/100 102/102/102 101/101/101
f 105/105/105 104/104/104 103/103/103
f 104/104/104 106/106/106 103/103/103
f 104/104/104 107/107/107 106/106/106
f 107/107/107 108/108/108 106/106/106
f 107/107/107 109/109/109 108/108/108
f 109/109/109 110/110/110 108/108/108
f 109/109/109 111/111/111 110/110/110
f 111/111/111 112/112/112 110/110/110
f 111/111/111 113/113/113 112/112/112
f 113/113/113 114/114/114 112/112/112
f 113/113/113 115/115/115 114/114/114
f 115/115/115 116/116/116 114/114/114
f 115/115/115 117/117/117 116/116/116
f 117/117/117 118/118/118 116/116/116
f 117/117/117 119/119/119 118/118/118
f 119/119/119 120/120/120 118/118/118
f 123/123/123 122/122/122 121/121/121
f 121/121/121 124/124/124 123/123/123
f 124/124/124 125/125/125 123/123/123
f 124/124/124 126/126/126 125/125/125
f 126/126/126 127/127/127 125/125/125
f 126/126/126 128/128/128 127/127/127
f 131/131/131 130/130/130 129/129/129
f 129/129/129 132/132/132 131/131/131
f 132/132/132 133/133/133 131/131/131
f 132/132/132 134/134/134 133/133/133
f 134/134/134 135/135/135 133/133/133
f 134/134/134 136/136/136 135/135/135
