g Monster Rider Mount
v -0.0023129093 1.2362987 2.0572226
v 0.12023932 0.82085973 1.7168272
v -0.0023129093 0.7925423 1.7589576
v 0.12023932 1.2646161 2.0150921
v 0.17100212 0.8892242 1.6151149
v 0.17100212 1.3329805 1.9133799
v 0.12023932 0.95758855 1.5134028
v 0.12023932 1.401345 1.8116678
v -0.0023129245 0.985906 1.4712723
v -0.0023129245 1.4296625 1.7695372
v -0.12486511 0.9575886 1.5134028
v -0.12486511 1.401345 1.8116678
v -0.17562792 0.8892242 1.6151149
v -0.17562792 1.3329805 1.9133799
v -0.124865144 0.82085973 1.7168272
v -0.124865144 1.2646161 2.015092
v -0.0023129093 0.7925423 1.7589576
v -0.0023129093 1.2362987 2.0572226
v 0.12023932 0.95758855 1.5134028
v -0.0023129245 0.985906 1.4712723
v -0.12486511 0.9575886 1.5134028
v 0.17100212 0.8892242 1.6151149
v -0.17562792 0.8892242 1.6151149
v 0.12023932 0.82085973 1.7168272
v -0.124865144 0.82085973 1.7168272
v -0.0023129093 0.7925423 1.7589576
v -0.12486511 1.401345 1.8116678
v -0.0023129245 1.4296625 1.7695372
v 0.12023932 1.401345 1.8116678
v -0.17562792 1.3329805 1.9133799
v 0.17100212 1.3329805 1.9133799
v -0.124865144 1.2646161 2.015092
v 0.12023932 1.2646161 2.0150921
v -0.0023129093 1.2362987 2.0572226
v 0.6303877 1.9290278 2.5065608
v 0.21209115 1.2853788 2.0650692
v 0.13365808 1.3242948 2.0943966
v 0.6473966 1.9205885 2.500201
v 0.2696027 1.2997236 1.9942671
v 0.65986854 1.9236994 2.4848468
v 0.27250302 1.358926 1.9234649
v 0.66049755 1.936538 2.4694927
v 0.2190933 1.4283061 1.8941376
v 0.6489151 1.9515836 2.4631329
v 0.14066023 1.4672221 1.9234649
v 0.6319062 1.9600229 2.4694927
v 0.083148725 1.4528774 1.9942671
v 0.6194343 1.956912 2.4848468
v 0.0802483 1.393675 2.0650692
v 0.6188053 1.9440734 2.500201
v 0.13365808 1.3242948 2.0943966
v 0.6303877 1.9290278 2.5065608
v 0.27250302 1.358926 1.9234649
v 0.2190933 1.4283061 1.8941376
v 0.14066023 1.4672221 1.9234649
v 0.2696027 1.2997236 1.9942671
v 0.083148725 1.4528774 1.9942671
v 0.21209115 1.2853788 2.0650692
v 0.0802483 1.393675 2.0650692
v 0.13365808 1.3242948 2.0943966
v 0.6319062 1.9600229 2.4694927
v 0.6489151 1.9515836 2.4631329
v 0.66049755 1.936538 2.4694927
v 0.6194343 1.956912 2.4848468
v 0.65986854 1.9236994 2.4848468
v 0.6188053 1.9440734 2.500201
v 0.6473966 1.9205885 2.500201
v 0.6303877 1.9290278 2.5065608
v -0.17548324 1.8023775 2.1907392
v -0.002312909 1.7955017 2.2621384
v -0.002312909 1.0434617 2.1897154
v -0.17548324 1.0503376 2.1183162
v -0.2472127 1.8189774 2.0183663
v -0.2472127 1.0669374 1.9459434
v -0.1754832 1.8355772 1.8459936
v -0.1754832 1.0835373 1.7735705
v -0.0023129305 1.8424532 1.7745944
v -0.0023129305 1.0904133 1.7021713
v 0.1708574 1.8355772 1.8459935
v 0.1708574 1.0835373 1.7735705
v 0.24258691 1.8189774 2.0183663
v 0.24258691 1.0669374 1.9459434
v 0.1708574 1.8023776 2.1907394
v 0.1708574 1.0503376 2.1183162
v -0.002312909 1.7955017 2.2621384
v -0.002312909 1.0434617 2.1897154
v -0.1754832 1.8355772 1.8459936
v -0.0023129305 1.8424532 1.7745944
v 0.1708574 1.8355772 1.8459935
v 0.24258691 1.8189774 2.0183663
v -0.2472127 1.8189774 2.0183663
v -0.17548324 1.8023775 2.1907392
v 0.1708574 1.8023776 2.1907394
v -0.002312909 1.7955017 2.2621384
v 0.1708574 1.0835373 1.7735705
v -0.0023129305 1.0904133 1.7021713
v -0.1754832 1.0835373 1.7735705
v 0.24258691 1.0669374 1.9459434
v -0.2472127 1.0669374 1.9459434
v 0.1708574 1.0503376 2.1183162
v -0.17548324 1.0503376 2.1183162
v -0.002312909 1.0434617 2.1897154
v -0.64118296 1.9128022 2.5107539
v -0.061136276 1.4142947 2.0650692
v -0.11018622 1.3417668 2.0943966
v -0.62849206 1.9315679 2.5031657
v -0.06766561 1.4732076 1.9942671
v -0.6301814 1.9468105 2.4848468
v -0.12594917 1.4839947 1.9234649
v -0.6452614 1.9496017 2.466528
v -0.2018453 1.4403373 1.8941376
v -0.66489846 1.9383059 2.4589398
v -0.25089526 1.3678094 1.9234649
v -0.6775893 1.9195404 2.466528
v -0.24436608 1.3088967 1.9942671
v -0.6759 1.9042976 2.4848468
v -0.18608245 1.2981093 2.0650692
v -0.66082 1.9015065 2.5031657
v -0.11018622 1.3417668 2.0943966
v -0.64118296 1.9128022 2.5107539
v -0.12594917 1.4839947 1.9234649
v -0.2018453 1.4403373 1.8941376
v -0.25089526 1.3678094 1.9234649
v -0.06766561 1.4732076 1.9942671
v -0.24436608 1.3088967 1.9942671
v -0.061136276 1.4142947 2.0650692
v -0.18608245 1.2981093 2.0650692
v -0.11018622 1.3417668 2.0943966
v -0.6775893 1.9195404 2.466528
v -0.66489846 1.9383059 2.4589398
v -0.6452614 1.9496017 2.466528
v -0.6759 1.9042976 2.4848468
v -0.6301814 1.9468105 2.4848468
v -0.66082 1.9015065 2.5031657
v -0.62849206 1.9315679 2.5031657
v -0.64118296 1.9128022 2.5107539
v -0.23845613 -0.83669186 1.3221323
v -0.06925441 -1.0534647 0.95935994
v -0.16929133 -0.83669186 1.1551539
v -0.09698253 -1.1043234 1.0028864
v -0.16929142 -0.83669186 1.4891107
v -0.33666155 -0.74848735 1.641749
v -0.46798363 -0.74848735 1.3247094
v -0.56584644 0.9314566 1.3221323
v -0.40079123 0.9314566 0.92365396
v -0.33666143 -0.74848735 1.0076697
v -0.0023129508 0.9314566 0.75859886
v -0.019621857 -0.74848735 0.87634766
v -0.34644178 1.0810688 1.3221323
v -0.24564873 1.0810688 1.0787965
v -0.24564882 1.0810688 1.5654682
v -0.0023129324 1.0810688 0.9780035
v -0.40079138 0.9314566 1.7206107
v -0.0023129024 1.0810688 1.6662612
v -0.0023129017 0.9314566 1.8856659
v -0.019621817 -0.74848735 1.7730713
v -0.0023128933 -0.83669186 1.5582755
v 0.3961655 0.9314566 0.923654
v 0.24102296 1.0810688 1.0787965
v -0.06925445 -1.1551821 1.046413
v -0.0023129096 -1.1762484 1.0644422
v -0.05794486 -1.422495 0.48671138
v -0.041650645 -1.4547967 0.50889075
v -0.0023129184 -1.4681764 0.5180777
v -0.029531093 -1.5874203 0.29441416
v -0.0023128157 -1.5966779 0.3007707
v -0.04080527 -1.5650704 0.279068
v -0.05794486 -1.422495 0.48671138
v -0.029531078 -1.5427206 0.26372164
v -0.041650623 -1.3901935 0.46453184
v -0.002312819 -1.533463 0.25736505
v -0.06925441 -1.0534647 0.95935994
v -0.0023129233 -1.3768138 0.45534486
v 0.02490545 -1.5427206 0.2637217
v -0.0023129177 -1.0323983 0.9413307
v -0.16929133 -0.83669186 1.1551539
v 0.037024792 -1.3901935 0.4645319
v -0.0023129177 -1.0323983 0.9413307
v 0.06462859 -1.0534647 0.95935994
v 0.03617962 -1.5650704 0.279068
v 0.053319 -1.422495 0.48671138
v 0.06462859 -1.0534647 0.95935994
v 0.024905449 -1.5874203 0.29441416
v 0.092356674 -1.1043234 1.0028864
v 0.03702479 -1.4547967 0.50889075
v -0.0023128157 -1.5966779 0.3007707
v -0.0023129184 -1.4681764 0.5180777
v 0.053319 -1.422495 0.48671138
v 0.06462859 -1.1551821 1.046413
v -0.0023129096 -1.1762484 1.0644422
v 0.16466552 -0.83669186 1.4891107
v -0.0023128933 -0.83669186 1.5582755
v 0.23383027 -0.83669186 1.3221323
v 0.29741785 -0.74848735 1.6417491
v -0.019621817 -0.74848735 1.7730713
v -0.0023129017 0.9314566 1.8856659
v 0.42873994 -0.74848735 1.3247094
v 0.16466552 -0.83669186 1.1551539
v 0.06462859 -1.0534647 0.95935994
v 0.29741785 -0.74848735 1.0076698
v 0.42873994 -0.74848735 1.3247094
v 0.3961655 0.9314566 1.7206109
v -0.0023129138 -0.83669186 1.0859891
v 0.24102296 1.0810688 1.5654683
v -0.0023129024 1.0810688 1.6662612
v 0.34181598 1.0810688 1.3221323
v 0.56122065 0.9314566 1.3221323
v 0.29741785 -0.74848735 1.0076698
v 0.29741785 -0.74848735 1.0076698
v -0.33666143 -0.74848735 1.0076697
v -0.46798363 -0.74848735 1.3247094
v -0.24564873 1.0810688 1.0787965
v -0.0023129324 1.0810688 0.9780035
v 0.24102296 1.0810688 1.0787965
v -0.34644178 1.0810688 1.3221323
v 0.34181598 1.0810688 1.3221323
v -0.24564882 1.0810688 1.5654682
v 0.24102296 1.0810688 1.5654683
v -0.0023129024 1.0810688 1.6662612
v 0.024905449 -1.5874203 0.29441416
v 0.03617962 -1.5650704 0.279068
v 0.02490545 -1.5427206 0.2637217
v -0.002312819 -1.533463 0.25736505
v -0.0023128157 -1.5966779 0.3007707
v -0.029531093 -1.5874203 0.29441416
v -0.029531078 -1.5427206 0.26372164
v -0.04080527 -1.5650704 0.279068
vt 1 0.5
vt 0.875 1
vt 1 1
vt 0.875 0.5
vt 0.75 1
vt 0.75 0.5
vt 0.625 1
vt 0.625 0.5
vt 0.5 1
vt 0.5 0.5
vt 0.375 1
vt 0.375 0.5
vt 0.25 1
vt 0.25 0.5
vt 0.125 1
vt 0.125 0.5
vt 0 1
vt 0 0.5
vt 0.41970563 0.080294386
vt 0.24999999 0.010000005
vt 0.0802944 0.08029437
vt 0.49 0.24999999
vt 0.010000005 0.25
vt 0.41970563 0.41970563
vt 0.080294356 0.4197056
vt 0.25 0.49
vt 0.5802944 0.08029437
vt 0.75 0.010000005
vt 0.9197056 0.080294386
vt 0.51 0.25
vt 0.99 0.24999999
vt 0.5802944 0.4197056
vt 0.9197056 0.41970563
vt 0.75 0.49
vt 1 0.5
vt 0.875 1
vt 1 1
vt 0.875 0.5
vt 0.75 1
vt 0.75 0.5
vt 0.625 1
vt 0.625 0.5
vt 0.5 1
vt 0.5 0.5
vt 0.375 1
vt 0.375 0.5
vt 0.25 1
vt 0.25 0.5
vt 0.125 1
vt 0.125 0.5
vt 0 1
vt 0 0.5
vt 0.41970563 0.080294386
vt 0.24999999 0.010000005
vt 0.0802944 0.08029437
vt 0.49 0.24999999
vt 0.010000005 0.25
vt 0.41970563 0.41970563
vt 0.080294356 0.4197056
vt 0.25 0.49
vt 0.5802944 0.08029437
vt 0.75 0.010000005
vt 0.9197056 0.080294386
vt 0.51 0.25
vt 0.99 0.24999999
vt 0.5802944 0.4197056
vt 0.9197056 0.41970563
vt 0.75 0.49
vt 0.125 0.5
vt 0 0.5
vt 0 1
vt 0.125 1
vt 0.25 0.5
vt 0.25 1
vt 0.375 0.5
vt 0.375 1
vt 0.5 0.5
vt 0.5 1
vt 0.625 0.5
vt 0.625 1
vt 0.75 0.5
vt 0.75 1
vt 0.875 0.5
vt 0.875 1
vt 1 0.5
vt 1 1
vt 0.5802944 0.08029437
vt 0.75 0.010000005
vt 0.9197056 0.080294386
vt 0.99 0.24999999
vt 0.51 0.25
vt 0.5802944 0.4197056
vt 0.9197056 0.41970563
vt 0.75 0.49
vt 0.41970563 0.080294386
vt 0.24999999 0.010000005
vt 0.0802944 0.08029437
vt 0.49 0.24999999
vt 0.010000005 0.25
vt 0.41970563 0.41970563
vt 0.080294356 0.4197056
vt 0.25 0.49
vt 1 0.5
vt 0.875 1
vt 1 1
vt 0.875 0.5
vt 0.75 1
vt 0.75 0.5
vt 0.625 1
vt 0.625 0.5
vt 0.5 1
vt 0.5 0.5
vt 0.375 1
vt 0.375 0.5
vt 0.25 1
vt 0.25 0.5
vt 0.125 1
vt 0.125 0.5
vt 0 1
vt 0 0.5
vt 0.41970563 0.080294386
vt 0.24999999 0.010000005
vt 0.0802944 0.08029437
vt 0.49 0.24999999
vt 0.010000005 0.25
vt 0.41970563 0.41970563
vt 0.080294356 0.4197056
vt 0.25 0.49
vt 0.5802944 0.08029437
vt 0.75 0.010000005
vt 0.9197056 0.080294386
vt 0.51 0.25
vt 0.99 0.24999999
vt 0.5802944 0.4197056
vt 0.9197056 0.41970563
vt 0.75 0.49
vt 0.25 1
vt 0.375 0.99999994
vt 0.37499997 0.99999994
vt 0.25 1
vt 0.125 1
vt 0.125 1
vt 0.25 1
vt 0.25 0.5
vt 0.375 0.5
vt 0.375 1
vt 0.5 0.5
vt 0.5 1
vt 0.25 0.5
vt 0.375 0.5
vt 0.125 0.5
vt 0.5 0.5
vt 0.125 0.5
vt 0 0.5
vt 0 0.5
vt 0 1
vt 0 1
vt 0.625 0.5
vt 0.625 0.5
vt 0.125 1
vt 0 1
vt 0.25 1
vt 0.125 1
vt 0 1
vt 0.125 1
vt 0 1
vt 0.25 1
vt 0.25 1
vt 0.375 0.9999999
vt 0.375 0.9999999
vt 0.5 1
vt 0.375 0.99999994
vt 0.5 1
vt 0.625 0.99999994
vt 0.5 1
vt 0.37499997 0.99999994
vt 0.625 0.99999994
vt 0.5 1
vt 0.625 0.9999999
vt 0.75 1
vt 0.75 1
vt 0.625 0.9999999
vt 0.875 1
vt 0.75 1
vt 0.875 1
vt 1 1
vt 1 1
vt 0.75 1
vt 0.875 1
vt 1 1
vt 0.875 1
vt 1 1
vt 0.75 1
vt 0.875 1
vt 1 1
vt 1 0.5
vt 0.75 1
vt 0.625 0.99999994
vt 0.625 0.9999999
vt 0.625 1
vt 0.75 1
vt 0.875 0.5
vt 0.5 1
vt 0.875 0.5
vt 1 0.5
vt 0.75 0.5
vt 0.75 0.5
vt 0.625 1
vt 0.625 1
vt 0.375 1
vt 0.25 1
vt 0.5802944 0.08029437
vt 0.75 0.010000005
vt 0.9197056 0.080294386
vt 0.51 0.25
vt 0.99 0.24999999
vt 0.5802944 0.4197056
vt 0.9197056 0.41970563
vt 0.75 0.49
vt 0.4604918 2.3752697
vt 0.5476803 2.1661787
vt 0.46049193 1.9570898
vt 0.25000003 1.8704822
vt 0.24999991 2.4618773
vt 0.039507948 2.3752704
vt 0.039508168 1.9570897
vt -0.047680583 2.1661794
vn -0 0.0899803 0.9959436
vn 0.5489892 -0.8293275 0.1040522
vn -0 -0.95617944 0.2927813
vn 0.5489892 0.21683216 0.80721414
vn 0.776388 -0.52307975 -0.35158116
vn 0.7763881 0.5230797 0.35158074
vn 0.5489893 -0.21683222 -0.8072141
vn 0.54898924 0.8293275 -0.104052
vn -0 -0.08998054 -0.9959435
vn -0 0.9561793 -0.2927818
vn -0.54898936 -0.21683216 -0.80721396
vn -0.5489891 0.8293275 -0.10405182
vn -0.7763879 -0.52308 -0.35158095
vn -0.776388 0.5230798 0.35158107
vn -0.54898924 -0.8293274 0.10405238
vn -0.5489891 0.21683228 0.80721414
vn -0 -0.95617944 0.2927813
vn -0 0.0899803 0.9959436
vn 0.5489893 -0.21683222 -0.8072141
vn -0 -0.08998054 -0.9959435
vn -0.54898936 -0.21683216 -0.80721396
vn 0.776388 -0.52307975 -0.35158116
vn -0.7763879 -0.52308 -0.35158095
vn 0.5489892 -0.8293275 0.1040522
vn -0.54898924 -0.8293274 0.10405238
vn -0 -0.95617944 0.2927813
vn -0.5489891 0.8293275 -0.10405182
vn -0 0.9561793 -0.2927818
vn 0.54898924 0.8293275 -0.104052
vn -0.776388 0.5230798 0.35158107
vn 0.7763881 0.5230797 0.35158074
vn -0.5489891 0.21683228 0.80721414
vn 0.5489892 0.21683216 0.80721414
vn -0 0.0899803 0.9959436
vn 0.090096794 0.10968902 0.9898741
vn -0.07154141 -0.98683727 0.14503151
vn -0.5966002 -0.7263203 0.3413606
vn 0.5727146 -0.12977304 0.80941767
vn 0.3134613 -0.8908079 -0.3289425
vn 0.92659855 -0.041503374 0.37375453
vn 0.33287695 -0.49448648 -0.80291724
vn 0.9444462 0.32278246 -0.06191063
vn -0.024667183 -0.030031472 -0.9992446
vn 0.61580133 0.7496978 -0.2423673
vn -0.5497268 0.23048511 -0.80291784
vn 0.13317935 0.98915625 -0.06191186
vn -0.93472874 0.1344571 -0.32894295
vn -0.22070166 0.9008882 0.37375304
vn -0.9541448 -0.26186517 0.14503211
vn -0.23854919 0.5365999 0.80941635
vn -0.5966002 -0.7263203 0.3413606
vn 0.090096794 0.10968902 0.9898741
vn 0.33287695 -0.49448648 -0.80291724
vn -0.024667183 -0.030031472 -0.9992446
vn -0.5497268 0.23048511 -0.80291784
vn 0.3134613 -0.8908079 -0.3289425
vn -0.93472874 0.1344571 -0.32894295
vn -0.07154141 -0.98683727 0.14503151
vn -0.9541448 -0.26186517 0.14503211
vn -0.5966002 -0.7263203 0.3413606
vn 0.13317935 0.98915625 -0.06191186
vn 0.61580133 0.7496978 -0.2423673
vn 0.9444462 0.32278246 -0.06191063
vn -0.22070166 0.9008882 0.37375304
vn 0.92659855 -0.041503374 0.37375453
vn -0.23854919 0.5365999 0.80941635
vn 0.5727146 -0.12977304 0.80941767
vn 0.090096794 0.10968902 0.9898741
vn -0.54898953 0.5747274 0.6068764
vn -0 0.5529299 0.83322775
vn -0 -0.7017766 0.71239716
vn -0.5489895 -0.6799783 0.48604533
vn -0.77638805 0.62735283 0.0604154
vn -0.776388 -0.627353 -0.060415514
vn -0.54898953 0.67997825 -0.48604542
vn -0.5489895 -0.57472765 -0.6068762
vn -0 0.7017767 -0.71239686
vn -0 -0.5529292 -0.8332282
vn 0.54898936 0.6799782 -0.48604563
vn 0.5489894 -0.5747276 -0.60687625
vn 0.776388 0.62735283 0.06041562
vn 0.776388 -0.6273529 -0.06041538
vn 0.5489894 0.57472736 0.6068766
vn 0.5489894 -0.6799783 0.4860454
vn -0 0.5529299 0.83322775
vn -0 -0.7017766 0.71239716
vn -0.54898953 0.67997825 -0.48604542
vn -0 0.7017767 -0.71239686
vn 0.54898936 0.6799782 -0.48604563
vn 0.776388 0.62735283 0.06041562
vn -0.77638805 0.62735283 0.0604154
vn -0.54898953 0.5747274 0.6068764
vn 0.5489894 0.57472736 0.6068766
vn -0 0.5529299 0.83322775
vn 0.5489894 -0.5747276 -0.60687625
vn -0 -0.5529292 -0.8332282
vn -0.5489895 -0.57472765 -0.6068762
vn 0.776388 -0.6273529 -0.06041538
vn -0.776388 -0.627353 -0.060415514
vn 0.5489894 -0.6799783 0.4860454
vn -0.5489895 -0.6799783 0.48604533
vn -0 -0.7017766 0.71239716
vn -0.09476737 0.1019127 0.9902692
vn 0.96839774 -0.2044247 0.14288554
vn 0.64068747 -0.6889963 0.3388269
vn 0.20780909 0.5493272 0.80935466
vn 0.9247752 0.18918109 -0.33015338
vn 0.1675336 0.9127484 0.37258938
vn 0.535373 0.26125172 -0.8031958
vn -0.19200887 0.97929263 -0.06417522
vn 0.028297435 -0.030431397 -0.99913627
vn -0.66019785 0.70997673 -0.24509558
vn -0.29941353 -0.51500237 -0.80319613
vn -0.9627775 0.26256615 -0.064175315
vn -0.2557909 -0.9086084 -0.33015442
vn -0.9225 -0.10085719 0.37258765
vn 0.13361216 -0.98067904 0.14288571
vn -0.56295925 -0.16740099 0.80935395
vn 0.64068747 -0.6889963 0.3388269
vn -0.09476737 0.1019127 0.9902692
vn 0.535373 0.26125172 -0.8031958
vn 0.028297435 -0.030431397 -0.99913627
vn -0.29941353 -0.51500237 -0.80319613
vn 0.9247752 0.18918109 -0.33015338
vn -0.2557909 -0.9086084 -0.33015442
vn 0.96839774 -0.2044247 0.14288554
vn 0.13361216 -0.98067904 0.14288571
vn 0.64068747 -0.6889963 0.3388269
vn -0.9627775 0.26256615 -0.064175315
vn -0.66019785 0.70997673 -0.24509558
vn -0.19200887 0.97929263 -0.06417522
vn -0.9225 -0.10085719 0.37258765
vn 0.1675336 0.9127484 0.37258938
vn -0.56295925 -0.16740099 0.80935395
vn 0.20780909 0.5493272 0.80935466
vn -0.09476737 0.1019127 0.9902692
vn -0.5985081 -0.80058354 0.029224597
vn -0.7048029 0.4425732 -0.5544203
vn -0.64403546 -0.56370384 -0.5171619
vn -0.97499675 -0.20881566 -0.07600923
vn -0.3365568 -0.8789029 0.3380225
vn -0.5999436 -0.53328866 0.59638155
vn -0.8454269 -0.53409094 0.0006150881
vn -0.9166481 0.39969507 -0.00022632864
vn -0.64785856 0.39786473 -0.6496022
vn -0.6010254 -0.5323322 -0.5961467
vn 0.001514143 0.39442578 -0.9189265
vn -0.0044923266 -0.528389 -0.84899056
vn -0.35884845 0.93339586 0
vn -0.25374416 0.93339586 -0.2537441
vn -0.25374418 0.93339586 0.25374413
vn -0 0.93339586 -0.35884836
vn -0.6477874 0.39883205 0.6490796
vn -0 0.93339586 0.35884836
vn 0.0015154347 0.39578798 0.9183407
vn -0.004389766 -0.5300591 0.8479494
vn 0.0063949665 -0.8930445 0.449923
vn 0.651337 0.3913997 -0.650051
vn 0.25374418 0.93339586 -0.25374418
vn -0.6090043 -0.70247734 0.36829236
vn -0 -0.85665417 0.515891
vn -0.99782264 -0.033631247 -0.05673596
vn -0.70528543 -0.6273451 0.33016762
vn -0 -0.8718783 0.4897226
vn -0.53320086 -0.8119023 -0.23772153
vn -0 -0.9935726 -0.11319764
vn -0.75531214 -0.37096635 -0.54026616
vn -0.99782264 -0.033631247 -0.05673596
vn -0.533201 0.06976552 -0.84310704
vn -0.70254797 0.557973 -0.44169277
vn -0 0.25123397 -0.9679263
vn -0.7048029 0.4425732 -0.5544203
vn -0 0.8004831 -0.59935534
vn 0.5332019 0.0697659 -0.84310645
vn -0 0.70660424 -0.70760894
vn -0.64403546 -0.56370384 -0.5171619
vn 0.70254815 0.5579731 -0.44169235
vn -0 0.70660424 -0.70760894
vn 0.70480293 0.44257307 -0.55442035
vn 0.7553124 -0.3709665 -0.5402658
vn 0.99782264 -0.033631157 -0.05673552
vn 0.70480293 0.44257307 -0.55442035
vn 0.53320134 -0.811902 -0.2377214
vn 0.9749967 -0.2088158 -0.076009095
vn 0.7052855 -0.6273449 0.3301678
vn -0 -0.9935726 -0.11319764
vn -0 -0.8718783 0.4897226
vn 0.99782264 -0.033631157 -0.05673552
vn 0.6090044 -0.7024773 0.36829242
vn -0 -0.85665417 0.515891
vn 0.35878047 -0.866484 0.3471053
vn 0.0063949665 -0.8930445 0.449923
vn 0.62733483 -0.77821565 0.028836546
vn 0.59889543 -0.5255498 0.604253
vn -0.004389766 -0.5300591 0.8479494
vn 0.0015154347 0.39578798 0.9183407
vn 0.85250425 -0.52271956 0.0007191567
vn 0.6606142 -0.54098016 -0.52050865
vn 0.70480293 0.44257307 -0.55442035
vn 0.6001898 -0.5240947 -0.60423243
vn 0.85250425 -0.52271956 0.0007191567
vn 0.6512735 0.39235866 0.6495364
vn 0.0091384975 -0.34015846 -0.9403237
vn 0.25374413 0.93339586 0.2537442
vn -0 0.93339586 0.35884836
vn 0.35884845 0.93339586 0
vn 0.9205832 0.39054644 -0.00022492108
vn 0.6001898 -0.5240947 -0.60423243
vn 0.6001898 -0.5240947 -0.60423243
vn -0.6010254 -0.5323322 -0.5961467
vn -0.8454269 -0.53409094 0.0006150881
vn -0.25374416 0.93339586 -0.2537441
vn -0 0.93339586 -0.35884836
vn 0.25374418 0.93339586 -0.25374418
vn -0.35884845 0.93339586 0
vn 0.35884845 0.93339586 0
vn -0.25374418 0.93339586 0.25374413
vn 0.25374413 0.93339586 0.2537442
vn -0 0.93339586 0.35884836
vn 0.53320134 -0.811902 -0.2377214
vn 0.7553124 -0.3709665 -0.5402658
vn 0.5332019 0.0697659 -0.84310645
vn -0 0.25123397 -0.9679263
vn -0 -0.9935726 -0.11319764
vn -0.53320086 -0.8119023 -0.23772153
vn -0.533201 0.06976552 -0.84310704
vn -0.75531214 -0.37096635 -0.54026616
g Monster Rider Mount_0
f 3/3/3 2/2/2 1/1/1
f 2/2/2 4/4/4 1/1/1
f 2/2/2 5/5/5 4/4/4
f 5/5/5 6/6/6 4/4/4
f 5/5/5 7/7/7 6/6/6
f 7/7/7 8/8/8 6/6/6
f 7/7/7 9/9/9 8/8/8
f 9/9/9 10/10/10 8/8/8
f 9/9/9 11/11/11 10/10/10
f 11/11/11 12/12/12 10/10/10
f 11/11/11 13/13/13 12/12/12
f 13/13/13 14/14/14 12/12/12
f 13/13/13 15/15/15 14/14/14
f 15/15/15 16/16/16 14/14/14
f 15/15/15 17/17/17 16/16/16
f 17/17/17 18/18/18 16/16/16
f 21/21/21 20/20/20 19/19/19
f 19/19/19 22/22/22 21/21/21
f 22/22/22 23/23/23 21/21/21
f 22/22/22 24/24/24 23/23/23
f 24/24/24 25/25/25 23/23/23
f 24/24/24 26/26/26 25/25/25
f 29/29/29 28/28/28 27/27/27
f 27/27/27 30/30/30 29/29/29
f 30/30/30 31/31/31 29/29/29
f 30/30/30 32/32/32 31/31/31
f 32/32/32 33/33/33 31/31/31
f 32/32/32 34/34/34 33/33/33
f 37/37/37 36/36/36 35/35/35
f 36/36/36 38/38/38 35/35/35
f 36/36/36 39/39/39 38/38/38
f 39/39/39 40/40/40 38/38/38
f 39/39/39 41/41/41 40/40/40
f 41/41/41 42/42/42 40/40/40
f 41/41/41 43/43/43 42/42/42
f 43/43/43 44/44/44 42/42/42
f 43/43/43 45/45/45 44/44/44
f 45/45/45 46/46/46 44/44/44
f 45/45/45 47/47/47 46/46/46
f 47/47/47 48/48/48 46/46/46
f 47/47/47 49/49/49 48/48/48
f 49/49/49 50/50/50 48/48/48
f 49/49/49 51/51/51 50/50/50
f 51/51/51 52/52/52 50/50/50
f 55/55/55 54/54/54 53/53/53
f 53/53/53 56/56/56 55/55/55
f 56/56/56 57/57/57 55/55/55
f 56/56/56 58/58/58 57/57/57
f 58/58/58 59/59/59 57/57/57
f 58/58/58 60/60/60 59/59/59
f 63/63/63 62/62/62 61/61/61
f 61/61/61 64/64/64 63/63/63
f 64/64/64 65/65/65 63/63/63
f 64/64/64 66/66/66 65/65/65
f 66/66/66 67/67/67 65/65/65
f 66/66/66 68/68/68 67/67/67
f 71/71/71 70/70/70 69/69/69
f 72/72/72 71/71/71 69/69/69
f 72/72/72 69/69/69 73/73/73
f 74/74/74 72/72/72 73/73/73
f 74/74/74 73/73/73 75/75/75
f 76/76/76 74/74/74 75/75/75
f 76/76/76 75/75/75 77/77/77
f 78/78/78 76/76/76 77/77/77
f 78/78/78 77/77/77 79/79/79
f 80/80/80 78/78/78 79/79/79
f 80/80/80 79/79/79 81/81/81
f 82/82/82 80/80/80 81/81/81
f 82/82/82 81/81/81 83/83/83
f 84/84/84 82/82/82 83/83/83
f 84/84/84 83/83/83 85/85/85
f 86/86/86 84/84/84 85/85/85
f 89/89/89 88/88/88 87/87/87
f 87/87/87 90/90/90 89/89/89
f 87/87/87 91/91/91 90/90/90
f 91/91/91 92/92/92 90/90/90
f 92/92/92 93/93/93 90/90/90
f 92/92/92 94/94/94 93/93/93
f 97/97/97 96/96/96 95/95/95
f 95/95/95 98/98/98 97/97/97
f 98/98/98 99/99/99 97/97/97
f 98/98/98 100/100/100 99/99/99
f 100/100/100 101/101/101 99/99/99
f 100/100/100 102/102/102 101/101/101
f 105/105/105 104/104/104 103/103/103
f 104/104/104 106/106/106 103/103/103
f 104/104/104 107/107/107 106/106/106
f 107/107/107 108/108/108 106/106/106
f 107/107/107 109/109/109 108/108/108
f 109/109/109 110/110/110 108/108/108
f 109/109/109 111/111/111 110/110/110
f 111/111/111 112/112/112 110/110/110
f 111/111/111 113/113/113 112/112/112
f 113/113/113 114/114/114 112/112/112
f 113/113/113 115/115/115 114/114/114
f 115/115/115 116/116/116 114/114/114
f 115/115/115 117/117/117 116/116/116
f 117/117/117 118/118/118 116/116/116
f 117/117/117 119/119/119 118/118/118
f 119/119/119 120/120/120 118/118/118
f 123/123/123 122/122/122 121/121/121
f 121/121/121 124/124/124 123/123/123
f 124/124/124 125/125/125 123/123/123
f 124/124/124 126/126/126 125/125/125
f 126/126/126 127/127/127 125/125/125
f 126/126/126 128/128/128 127/127/127
f 131/131/131 130/130/130 129/129/129
f 129/129/129 132/132/132 131/131/131
f 132/132/132 133/133/133 131/131/131
f 132/132/132 134/134/134 133/133/133
f 134/134/134 135/135/135 133/133/133
f 134/134/134 136/136/136 135/135/135
f 139/139/139 138/138/138 137/137/137
f 138/138/138 140/140/140 137/137/137
f 137/137/137 140/140/140 141/141/141
f 137/137/137 141/141/141 142/142/142
f 143/143/143 137/137/137 142/142/142
f 143/143/143 142/142/142 144/144/144
f 143/143/143 144/144/144 145/145/145
f 146/146/146 143/143/143 145/145/145
f 146/146/146 145/145/145 147/147/147
f 148/148/148 146/146/146 147/147/147
f 144/144/144 149/149/149 145/145/145
f 149/149/149 150/150/150 145/145/145
f 145/145/145 150/150/150 147/147/147
f 151/151/151 149/149/149 144/144/144
f 150/150/150 152/152/152 147/147/147
f 153/153/153 151/151/151 144/144/144
f 142/142/142 153/153/153 144/144/144
f 154/154/154 151/151/151 153/153/153
f 155/155/155 154/154/154 153/153/153
f 156/156/156 155/155/155 153/153/153
f 142/142/142 156/156/156 153/153/153
f 142/142/142 141/141/141 156/156/156
f 141/141/141 157/157/157 156/156/156
f 147/147/147 152/152/152 158/158/158
f 148/148/148 147/147/147 158/158/158
f 152/152/152 159/159/159 158/158/158
f 141/141/141 160/160/160 157/157/157
f 160/160/160 161/161/161 157/157/157
f 140/140/140 160/160/160 141/141/141
f 140/140/140 162/162/162 160/160/160
f 162/162/162 163/163/163 160/160/160
f 160/160/160 163/163/163 161/161/161
f 163/163/163 164/164/164 161/161/161
f 163/163/163 165/165/165 164/164/164
f 165/165/165 166/166/166 164/164/164
f 167/167/167 165/165/165 163/163/163
f 168/168/168 167/167/167 163/163/163
f 169/169/169 167/167/167 168/168/168
f 170/170/170 168/168/168 140/140/140
f 170/170/170 169/169/169 168/168/168
f 171/171/171 169/169/169 170/170/170
f 172/172/172 170/170/170 140/140/140
f 173/173/173 171/171/171 170/170/170
f 173/173/173 170/170/170 172/172/172
f 174/174/174 171/171/171 173/173/173
f 175/175/175 173/173/173 172/172/172
f 175/175/175 172/172/172 176/176/176
f 177/177/177 174/174/174 173/173/173
f 177/177/177 173/173/173 178/178/178
f 179/179/179 177/177/177 178/178/178
f 180/180/180 174/174/174 177/177/177
f 181/181/181 180/180/180 177/177/177
f 181/181/181 177/177/177 182/182/182
f 183/183/183 180/180/180 181/181/181
f 184/184/184 181/181/181 182/182/182
f 185/185/185 183/183/183 181/181/181
f 186/186/186 183/183/183 185/185/185
f 187/187/187 186/186/186 185/185/185
f 185/185/185 188/188/188 184/184/184
f 187/187/187 185/185/185 189/189/189
f 189/189/189 185/185/185 184/184/184
f 190/190/190 187/187/187 189/189/189
f 190/190/190 189/189/189 191/191/191
f 192/192/192 190/190/190 191/191/191
f 189/189/189 184/184/184 193/193/193
f 191/191/191 189/189/189 193/193/193
f 192/192/192 191/191/191 194/194/194
f 195/195/195 192/192/192 194/194/194
f 195/195/195 194/194/194 196/196/196
f 194/194/194 191/191/191 197/197/197
f 191/191/191 193/193/193 197/197/197
f 193/193/193 184/184/184 198/198/198
f 184/184/184 199/199/199 198/198/198
f 193/193/193 198/198/198 200/200/200
f 201/201/201 193/193/193 200/200/200
f 194/194/194 202/202/202 196/196/196
f 194/194/194 197/197/197 202/202/202
f 198/198/198 199/199/199 203/203/203
f 199/199/199 175/175/175 203/203/203
f 203/203/203 175/175/175 176/176/176
f 202/202/202 204/204/204 196/196/196
f 204/204/204 205/205/205 196/196/196
f 206/206/206 204/204/204 202/202/202
f 197/197/197 207/207/207 202/202/202
f 207/207/207 206/206/206 202/202/202
f 159/159/159 206/206/206 207/207/207
f 197/197/197 208/208/208 207/207/207
f 158/158/158 159/159/159 207/207/207
f 208/208/208 158/158/158 207/207/207
f 208/208/208 148/148/148 158/158/158
f 198/198/198 203/203/203 148/148/148
f 209/209/209 198/198/198 148/148/148
f 148/148/148 203/203/203 210/210/210
f 203/203/203 176/176/176 210/210/210
f 210/210/210 176/176/176 211/211/211
f 176/176/176 137/137/137 211/211/211
f 214/214/214 213/213/213 212/212/212
f 212/212/212 215/215/215 214/214/214
f 215/215/215 216/216/216 214/214/214
f 215/215/215 217/217/217 216/216/216
f 217/217/217 218/218/218 216/216/216
f 217/217/217 219/219/219 218/218/218
f 222/222/222 221/221/221 220/220/220
f 220/220/220 223/223/223 222/222/222
f 220/220/220 224/224/224 223/223/223
f 224/224/224 225/225/225 223/223/223
f 225/225/225 226/226/226 223/223/223
f 225/225/225 227/227/227 226/226/226
