g Morningstar Root
v -0.058073837 0.041338965 1.7790526
v 0.058073793 0.041338965 1.7790526
v 0.058073793 -0.041338965 1.7790526
v -0.058073837 -0.041338965 1.7790526
v -0.058073837 0.041338965 0.15185937
v 0.058073793 0.041338965 0.15185937
v 0.058073793 0.041338965 1.7790526
v -0.058073837 0.041338965 1.7790526
v -0.058073837 -0.041338965 0.10579244
v -0.09715453 -0.069157965 0.10454493
v 0.09715448 -0.069157965 0.10454493
v 0.058073793 -0.041338965 0.10579244
v 0.058073793 -0.041338965 0.15185937
v -0.058073837 -0.041338965 0.15185937
v -0.058073837 -0.041338965 1.7790526
v 0.058073793 -0.041338965 1.7790526
v 0.058073793 0.041338965 0.15185937
v 0.058073793 -0.041338965 0.15185937
v 0.058073793 -0.041338965 1.7790526
v 0.058073793 0.041338965 1.7790526
v -0.058073837 -0.041338965 0.15185937
v -0.058073837 0.041338965 0.15185937
v -0.058073837 0.041338965 1.7790526
v -0.058073837 -0.041338965 1.7790526
v -0.058073837 0.041338965 0.10579244
v -0.058073837 0.041338965 -0.25884494
v 0.058073793 0.041338965 -0.25884494
v 0.058073793 0.041338965 0.10579244
v -0.058073837 0.041338965 0.15185937
v -0.09715453 0.069157965 0.15310688
v 0.09715448 0.069157965 0.15310688
v 0.058073793 0.041338965 0.15185937
v 0.058073793 -0.041338965 0.10579244
v 0.058073793 -0.041338965 -0.25884494
v -0.058073837 -0.041338965 -0.25884494
v -0.058073837 -0.041338965 0.10579244
v -0.058073837 0.041338965 -0.25884494
v -0.09715453 0.069157965 -0.2576029
v 0.09715448 0.069157965 -0.2576029
v 0.058073793 0.041338965 -0.25884494
v -0.058073837 -0.041338965 0.10579244
v -0.058073837 -0.041338965 -0.25884494
v -0.058073837 0.041338965 -0.25884494
v -0.058073837 0.041338965 0.10579244
v 0.058073793 0.041338965 -0.35876846
v 0.09715448 0.069157965 -0.30595225
v -0.09715453 0.069157965 -0.30595225
v -0.058073837 0.041338965 -0.35876846
v 0.058073793 -0.041338965 0.10579244
v 0.09715448 -0.069157965 0.10454493
v 0.09715448 0.069157965 0.10454493
v 0.058073793 0.041338965 0.10579244
v 0.058073793 0.041338965 0.10579244
v 0.058073793 0.041338965 -0.25884494
v 0.058073793 -0.041338965 -0.25884494
v 0.058073793 -0.041338965 0.10579244
v -0.058073837 0.041338965 -0.35876846
v -0.058073837 -0.041338965 -0.35876846
v 0.058073793 -0.041338965 -0.35876846
v 0.058073793 0.041338965 -0.35876846
v -0.058073837 -0.041338965 0.15185937
v -0.09715453 -0.069157965 0.15310688
v -0.09715453 0.069157965 0.15310688
v -0.058073837 0.041338965 0.15185937
v -0.058073837 -0.041338965 -0.25884494
v -0.09715453 -0.069157965 -0.2576029
v -0.09715453 0.069157965 -0.2576029
v -0.058073837 0.041338965 -0.25884494
v -0.058073837 0.041338965 -0.35876846
v -0.09715453 0.069157965 -0.30595225
v -0.09715453 -0.069157965 -0.30595225
v -0.058073837 -0.041338965 -0.35876846
v 0.09715448 0.069157965 0.15310688
v 0.09715448 0.069157965 0.10454493
v 0.09715448 -0.069157965 0.10454493
v 0.09715448 -0.069157965 0.15310688
v 0.09715448 -0.069157965 0.15310688
v 0.09715448 -0.069157965 0.10454493
v -0.09715453 -0.069157965 0.10454493
v -0.09715453 -0.069157965 0.15310688
v -0.09715453 -0.069157965 0.15310688
v -0.09715453 -0.069157965 0.10454493
v -0.09715453 0.069157965 0.10454493
v -0.09715453 0.069157965 0.15310688
v -0.09715453 0.069157965 0.15310688
v -0.09715453 0.069157965 0.10454493
v 0.09715448 0.069157965 0.10454493
v 0.09715448 0.069157965 0.15310688
v 0.09715448 0.069157965 -0.2576029
v 0.09715448 0.069157965 -0.30595225
v 0.09715448 -0.069157965 -0.30595225
v 0.09715448 -0.069157965 -0.2576029
v -0.09715453 -0.069157965 -0.2576029
v -0.09715453 -0.069157965 -0.30595225
v -0.09715453 0.069157965 -0.30595225
v -0.09715453 0.069157965 -0.2576029
v 0.09715448 -0.069157965 -0.2576029
v 0.09715448 -0.069157965 -0.30595225
v -0.09715453 -0.069157965 -0.30595225
v -0.09715453 -0.069157965 -0.2576029
v -0.09715453 0.069157965 -0.2576029
v -0.09715453 0.069157965 -0.30595225
v 0.09715448 0.069157965 -0.30595225
v 0.09715448 0.069157965 -0.2576029
v 0.058073793 0.041338965 0.15185937
v 0.09715448 0.069157965 0.15310688
v 0.09715448 -0.069157965 0.15310688
v 0.058073793 -0.041338965 0.15185937
v 0.058073793 0.041338965 0.10579244
v 0.09715448 0.069157965 0.10454493
v -0.09715453 0.069157965 0.10454493
v -0.058073837 0.041338965 0.10579244
v 0.058073793 -0.041338965 0.15185937
v 0.09715448 -0.069157965 0.15310688
v -0.09715453 -0.069157965 0.15310688
v -0.058073837 -0.041338965 0.15185937
v 0.058073793 -0.041338965 -0.25884494
v 0.09715448 -0.069157965 -0.2576029
v -0.09715453 -0.069157965 -0.2576029
v -0.058073837 -0.041338965 -0.25884494
v 0.058073793 0.041338965 -0.25884494
v 0.09715448 0.069157965 -0.2576029
v 0.09715448 -0.069157965 -0.2576029
v 0.058073793 -0.041338965 -0.25884494
v 0.058073793 -0.041338965 -0.35876846
v 0.09715448 -0.069157965 -0.30595225
v 0.09715448 0.069157965 -0.30595225
v 0.058073793 0.041338965 -0.35876846
v -0.058073837 0.041338965 0.10579244
v -0.09715453 0.069157965 0.10454493
v -0.09715453 -0.069157965 0.10454493
v -0.058073837 -0.041338965 0.10579244
v -0.058073837 -0.041338965 -0.35876846
v -0.09715453 -0.069157965 -0.30595225
v 0.09715448 -0.069157965 -0.30595225
v 0.058073793 -0.041338965 -0.35876846
vt 0.125 0.5
vt 0.375 0.5
vt 0.375 0.75
vt 0.125 0.75
vt 0.125 0.5
vt 0.375 0.5
vt 0.375 0.5
vt 0.125 0.5
vt 0.125 0.75
vt 0.125 0.75
vt 0.375 0.75
vt 0.375 0.75
vt 0.375 0.75
vt 0.125 0.75
vt 0.125 0.75
vt 0.375 0.75
vt 0.375 0.5
vt 0.375 0.75
vt 0.375 0.75
vt 0.375 0.5
vt 0.125 0.75
vt 0.125 0.5
vt 0.125 0.5
vt 0.125 0.75
vt 0.125 0.5
vt 0.125 0.5
vt 0.375 0.5
vt 0.375 0.5
vt 0.125 0.5
vt 0.125 0.5
vt 0.375 0.5
vt 0.375 0.5
vt 0.375 0.75
vt 0.375 0.75
vt 0.125 0.75
vt 0.125 0.75
vt 0.125 0.5
vt 0.125 0.5
vt 0.375 0.5
vt 0.375 0.5
vt 0.125 0.75
vt 0.125 0.75
vt 0.125 0.5
vt 0.125 0.5
vt 0.375 0.5
vt 0.375 0.5
vt 0.125 0.5
vt 0.125 0.5
vt 0.375 0.75
vt 0.375 0.75
vt 0.375 0.5
vt 0.375 0.5
vt 0.375 0.5
vt 0.375 0.5
vt 0.375 0.75
vt 0.375 0.75
vt 0.125 0.5
vt 0.125 0.75
vt 0.375 0.75
vt 0.375 0.5
vt 0.125 0.75
vt 0.125 0.75
vt 0.125 0.5
vt 0.125 0.5
vt 0.125 0.75
vt 0.125 0.75
vt 0.125 0.5
vt 0.125 0.5
vt 0.125 0.5
vt 0.125 0.5
vt 0.125 0.75
vt 0.125 0.75
vt 0.375 0.5
vt 0.375 0.5
vt 0.375 0.75
vt 0.375 0.75
vt 0.375 0.75
vt 0.375 0.75
vt 0.125 0.75
vt 0.125 0.75
vt 0.125 0.75
vt 0.125 0.75
vt 0.125 0.5
vt 0.125 0.5
vt 0.125 0.5
vt 0.125 0.5
vt 0.375 0.5
vt 0.375 0.5
vt 0.375 0.5
vt 0.375 0.5
vt 0.375 0.75
vt 0.375 0.75
vt 0.125 0.75
vt 0.125 0.75
vt 0.125 0.5
vt 0.125 0.5
vt 0.375 0.75
vt 0.375 0.75
vt 0.125 0.75
vt 0.125 0.75
vt 0.125 0.5
vt 0.125 0.5
vt 0.375 0.5
vt 0.375 0.5
vt 0.375 0.5
vt 0.375 0.5
vt 0.375 0.75
vt 0.375 0.75
vt 0.375 0.5
vt 0.375 0.5
vt 0.125 0.5
vt 0.125 0.5
vt 0.375 0.75
vt 0.375 0.75
vt 0.125 0.75
vt 0.125 0.75
vt 0.375 0.75
vt 0.375 0.75
vt 0.125 0.75
vt 0.125 0.75
vt 0.375 0.5
vt 0.375 0.5
vt 0.375 0.75
vt 0.375 0.75
vt 0.375 0.75
vt 0.375 0.75
vt 0.375 0.5
vt 0.375 0.5
vt 0.125 0.5
vt 0.125 0.5
vt 0.125 0.75
vt 0.125 0.75
vt 0.125 0.75
vt 0.125 0.75
vt 0.375 0.75
vt 0.375 0.75
vn -0 0 1
vn -0 0 1
vn -0 0 1
vn -0 0 1
vn -0 1 0
vn -0 1 0
vn -0 1 0
vn -0 1 0
vn -0 0.0447988 -0.9989961
vn -0 0.0447988 -0.9989961
vn -0 0.0447988 -0.9989961
vn -0 0.0447988 -0.9989961
vn -0 -1 0
vn -0 -1 0
vn -0 -1 0
vn -0 -1 0
vn 1 0 0
vn 1 0 0
vn 1 0 0
vn 1 0 0
vn -1 0 0
vn -1 0 0
vn -1 0 0
vn -1 0 0
vn -0 1 0
vn -0 1 0
vn -0 1 0
vn -0 1 0
vn -0 -0.0447988 0.9989961
vn -0 -0.0447988 0.9989961
vn -0 -0.0447988 0.9989961
vn -0 -0.0447988 0.9989961
vn -0 -1 0
vn -0 -1 0
vn -0 -1 0
vn -0 -1 0
vn -0 -0.044602804 0.9990048
vn -0 -0.044602804 0.9990048
vn -0 -0.044602804 0.9990048
vn -0 -0.044602804 0.9990048
vn -1 0 0
vn -1 0 0
vn -1 0 0
vn -1 0 0
vn -0 0.8847732 -0.4660218
vn -0 0.8847732 -0.4660218
vn -0 0.8847732 -0.4660218
vn -0 0.8847732 -0.4660218
vn -0.03190513 0 -0.99949086
vn -0.03190513 0 -0.99949086
vn -0.03190513 0 -0.99949086
vn -0.03190513 0 -0.99949086
vn 1 0 0
vn 1 0 0
vn 1 0 0
vn 1 0 0
vn -0 0 -1
vn -0 0 -1
vn -0 0 -1
vn -0 0 -1
vn 0.031904913 0 0.99949086
vn 0.031904913 0 0.99949086
vn 0.031904913 0 0.99949086
vn 0.031904913 0 0.99949086
vn 0.031765807 0 0.9994954
vn 0.031765807 0 0.9994954
vn 0.031765807 0 0.9994954
vn 0.031765807 0 0.9994954
vn -0.80386597 0 -0.5948106
vn -0.80386597 0 -0.5948106
vn -0.80386597 0 -0.5948106
vn -0.80386597 0 -0.5948106
vn 1 0 0
vn 1 0 0
vn 1 0 0
vn 1 0 0
vn -0 -1 0
vn -0 -1 0
vn -0 -1 0
vn -0 -1 0
vn -1 0 0
vn -1 0 0
vn -1 0 0
vn -1 0 0
vn -0 1 0
vn -0 1 0
vn -0 1 0
vn -0 1 0
vn 1 0 0
vn 1 0 0
vn 1 0 0
vn 1 0 0
vn -1 0 0
vn -1 0 0
vn -1 0 0
vn -1 0 0
vn -0 -1 0
vn -0 -1 0
vn -0 -1 0
vn -0 -1 0
vn -0 1 0
vn -0 1 0
vn -0 1 0
vn -0 1 0
vn -0.031904913 0 0.99949086
vn -0.031904913 0 0.99949086
vn -0.031904913 0 0.99949086
vn -0.031904913 0 0.99949086
vn -0 -0.0447988 -0.9989961
vn -0 -0.0447988 -0.9989961
vn -0 -0.0447988 -0.9989961
vn -0 -0.0447988 -0.9989961
vn -0 0.0447988 0.9989961
vn -0 0.0447988 0.9989961
vn -0 0.0447988 0.9989961
vn -0 0.0447988 0.9989961
vn -0 0.044602804 0.9990048
vn -0 0.044602804 0.9990048
vn -0 0.044602804 0.9990048
vn -0 0.044602804 0.9990048
vn -0.031765807 0 0.9994954
vn -0.031765807 0 0.9994954
vn -0.031765807 0 0.9994954
vn -0.031765807 0 0.9994954
vn 0.80386597 0 -0.5948106
vn 0.80386597 0 -0.5948106
vn 0.80386597 0 -0.5948106
vn 0.80386597 0 -0.5948106
vn 0.03190513 0 -0.99949086
vn 0.03190513 0 -0.99949086
vn 0.03190513 0 -0.99949086
vn 0.03190513 0 -0.99949086
vn -0 -0.8847732 -0.4660218
vn -0 -0.8847732 -0.4660218
vn -0 -0.8847732 -0.4660218
vn -0 -0.8847732 -0.4660218
g Morningstar Root_0
f 3/3/3 2/2/2 1/1/1
f 4/4/4 3/3/3 1/1/1
f 7/7/7 6/6/6 5/5/5
f 8/8/8 7/7/7 5/5/5
f 11/11/11 10/10/10 9/9/9
f 12/12/12 11/11/11 9/9/9
f 15/15/15 14/14/14 13/13/13
f 16/16/16 15/15/15 13/13/13
f 19/19/19 18/18/18 17/17/17
f 20/20/20 19/19/19 17/17/17
f 23/23/23 22/22/22 21/21/21
f 24/24/24 23/23/23 21/21/21
f 27/27/27 26/26/26 25/25/25
f 28/28/28 27/27/27 25/25/25
f 31/31/31 30/30/30 29/29/29
f 32/32/32 31/31/31 29/29/29
f 35/35/35 34/34/34 33/33/33
f 36/36/36 35/35/35 33/33/33
f 39/39/39 38/38/38 37/37/37
f 40/40/40 39/39/39 37/37/37
f 43/43/43 42/42/42 41/41/41
f 44/44/44 43/43/43 41/41/41
f 47/47/47 46/46/46 45/45/45
f 48/48/48 47/47/47 45/45/45
f 51/51/51 50/50/50 49/49/49
f 52/52/52 51/51/51 49/49/49
f 55/55/55 54/54/54 53/53/53
f 56/56/56 55/55/55 53/53/53
f 59/59/59 58/58/58 57/57/57
f 60/60/60 59/59/59 57/57/57
f 63/63/63 62/62/62 61/61/61
f 64/64/64 63/63/63 61/61/61
f 67/67/67 66/66/66 65/65/65
f 68/68/68 67/67/67 65/65/65
f 71/71/71 70/70/70 69/69/69
f 72/72/72 71/71/71 69/69/69
f 75/75/75 74/74/74 73/73/73
f 76/76/76 75/75/75 73/73/73
f 79/79/79 78/78/78 77/77/77
f 80/80/80 79/79/79 77/77/77
f 83/83/83 82/82/82 81/81/81
f 84/84/84 83/83/83 81/81/81
f 87/87/87 86/86/86 85/85/85
f 88/88/88 87/87/87 85/85/85
f 91/91/91 90/90/90 89/89/89
f 92/92/92 91/91/91 89/89/89
f 95/95/95 94/94/94 93/93/93
f 96/96/96 95/95/95 93/93/93
f 99/99/99 98/98/98 97/97/97
f 100/100/100 99/99/99 97/97/97
f 103/103/103 102/102/102 101/101/101
f 104/104/104 103/103/103 101/101/101
f 107/107/107 106/106/106 105/105/105
f 108/108/108 107/107/107 105/105/105
f 111/111/111 110/110/110 109/109/109
f 112/112/112 111/111/111 109/109/109
f 115/115/115 114/114/114 113/113/113
f 116/116/116 115/115/115 113/113/113
f 119/119/119 118/118/118 117/117/117
f 120/120/120 119/119/119 117/117/117
f 123/123/123 122/122/122 121/121/121
f 124/124/124 123/123/123 121/121/121
f 127/127/127 126/126/126 125/125/125
f 128/128/128 127/127/127 125/125/125
f 131/131/131 130/130/130 129/129/129
f 132/132/132 131/131/131 129/129/129
f 135/135/135 134/134/134 133/133/133
f 136/136/136 135/135/135 133/133/133
