g Nordfels
v 2.5067606 0.3769598 0
v 2.5094547 0.2730868 0
v 0.63563335 -2.846653 0
v 1.0888891 1.5463687 0
v -0.55179495 1.8491484 0
v -1.4380299 -2.0600076 0
v -2.161169 0.86301553 0
v -1.7943916 -1.6163945 0
v -2.371411 -1.2238575 0
v -2.96486 -0.045527104 0
vt 0 0
vt 0 0
vt 0 0
vt 0 0
vt 0 0
vt 0 0
vt 0 0
vt 0 0
vt 0 0
vt 0 0
vn -0 0 1
vn -0 0 1
vn -0 0 1
vn -0 0 1
vn -0 0 1
vn -0 0 1
vn -0 0 1
vn -0 0 1
vn -0 0 1
vn -0 0 1
g Nordfels_0
f 3/3/3 2/2/2 1/1/1
f 1/1/1 4/4/4 3/3/3
f 4/4/4 5/5/5 3/3/3
f 5/5/5 6/6/6 3/3/3
f 5/5/5 7/7/7 6/6/6
f 7/7/7 8/8/8 6/6/6
f 7/7/7 9/9/9 8/8/8
f 7/7/7 10/10/10 9/9/9
