g Ogre New
v -0 0.7084446 0
v 0.5684562 0.7824128 1.8692566
v 3.8544963E-09 0.96711546 1.8692566
v 0.41641328 0.5731437 0
v 0.9197815 0.29885507 1.8692566
v 0.67377084 0.2189214 0
v 0.91978145 -0.29885516 1.8692566
v 0.6737708 -0.21892145 0
v 0.5684562 -0.7824129 1.8692566
v 0.41641322 -0.5731438 0
v -8.0693425E-08 -0.96711546 1.8692566
v -6.1934195E-08 -0.7084446 0
v -0.5684563 -0.78241277 1.8692566
v -0.41641337 -0.57314366 0
v -0.91978145 -0.29885522 1.8692566
v -0.6737708 -0.21892148 0
v -0.91978145 0.29885522 1.8692566
v -0.6737708 0.21892151 0
v -0.5684563 0.78241277 1.8692566
v -0.41641334 0.57314366 0
v 3.8544963E-09 0.96711546 1.8692566
v -0 0.7084446 0
v 0.5684562 0.7824128 1.8692566
v 0.9197815 0.29885507 1.8692566
v 0.91978145 -0.29885516 1.8692566
v 0.5684562 -0.7824129 1.8692566
v 3.8544963E-09 0.96711546 1.8692566
v -8.0693425E-08 -0.96711546 1.8692566
v -0.5684563 0.78241277 1.8692566
v -0.5684563 -0.78241277 1.8692566
v -0.91978145 0.29885522 1.8692566
v -0.91978145 -0.29885522 1.8692566
v 0.6737708 -0.21892145 0
v 0.67377084 0.2189214 0
v 0.41641328 0.5731437 0
v 0.41641322 -0.5731438 0
v -0 0.7084446 0
v -6.1934195E-08 -0.7084446 0
v -0.41641334 0.57314366 0
v -0.41641337 -0.57314366 0
v -0.6737708 0.21892151 0
v -0.6737708 -0.21892148 0
v 1.2924206E-08 0.9686432 2.2404563
v 0.3825666 0.5265578 3.0773406
v -1.3515778E-08 0.65086126 3.0773406
v 0.5693542 0.7836488 2.2404563
v 0.6190058 0.20112716 3.0773406
v 0.9212345 0.2993272 2.2404563
v 0.6190058 -0.20112722 3.0773406
v 0.92123437 -0.29932728 2.2404563
v 0.38256657 -0.52655786 3.0773406
v 0.5693541 -0.7836489 2.2404563
v -7.041588E-08 -0.65086126 3.0773406
v -7.175728E-08 -0.9686432 2.2404563
v -0.38256672 -0.52655774 3.0773406
v -0.5693543 -0.7836488 2.2404563
v -0.6190058 -0.20112728 3.0773406
v -0.92123437 -0.2993273 2.2404563
v -0.6190058 0.20112725 3.0773406
v -0.92123437 0.29932734 2.2404563
v -0.38256672 0.52655774 3.0773406
v -0.5693543 0.7836488 2.2404563
v -1.3515778E-08 0.65086126 3.0773406
v 1.2924206E-08 0.9686432 2.2404563
v 0.3825666 0.5265578 3.0773406
v 0.6190058 0.20112716 3.0773406
v 0.6190058 -0.20112722 3.0773406
v 0.38256657 -0.52655786 3.0773406
v -1.3515778E-08 0.65086126 3.0773406
v -7.041588E-08 -0.65086126 3.0773406
v -0.38256672 0.52655774 3.0773406
v -0.38256672 -0.52655774 3.0773406
v -0.6190058 0.20112725 3.0773406
v -0.6190058 -0.20112728 3.0773406
v 0.92123437 -0.29932728 2.2404563
v 0.9212345 0.2993272 2.2404563
v 0.5693542 0.7836488 2.2404563
v 0.5693541 -0.7836489 2.2404563
v 1.2924206E-08 0.9686432 2.2404563
v -7.175728E-08 -0.9686432 2.2404563
v -0.5693543 0.7836488 2.2404563
v -0.5693543 -0.7836488 2.2404563
v -0.92123437 -0.2993273 2.2404563
v -0.92123437 0.29932734 2.2404563
v 7.220711E-09 0.19510838 3.9251657
v 0.09755422 0.16896881 3.9251657
v 7.220707E-09 -8.066907E-08 3.9774446
v 7.220711E-09 0.33793765 3.7823365
v 0.16896886 0.29266256 3.7823365
v 0.16896886 0.09755417 3.9251657
v 7.220707E-09 -8.066907E-08 3.9774446
v -0.16896877 0.2926625 3.7823365
v -0.09755417 0.16896875 3.9251657
v 7.220707E-09 -8.066907E-08 3.9774446
v 7.220711E-09 0.39021677 3.5872276
v -0.19510831 0.33793753 3.5872276
v 0.2926626 0.16896881 3.7823365
v 0.19510841 0.33793765 3.5872276
v 0.19510841 -4.0270518E-08 3.9251657
v 7.220707E-09 -8.066907E-08 3.9774446
v -0.2926625 0.16896877 3.7823365
v -0.33793753 0.19510834 3.5872276
v -0.1689688 0.09755414 3.9251657
v 7.220707E-09 -8.066907E-08 3.9774446
v -0.3379376 -2.864115E-08 3.7823365
v -0.19510837 -4.6085198E-08 3.9251657
v 7.220707E-09 -8.066907E-08 3.9774446
v -0.3902167 -4.0270518E-08 3.5872276
v -0.3379376 -2.864115E-08 3.3921196
v -0.2926625 0.16896877 3.3921196
v -0.1951084 -2.864115E-08 3.2492902
v -0.16896877 0.2926625 3.3921196
v -0.16896884 0.097554184 3.2492902
v 7.220711E-09 -4.6555233E-08 3.1970112
v 3.590699E-08 0.33793753 3.3921196
v -0.097554184 0.16896883 3.2492902
v 7.220711E-09 -4.6555233E-08 3.1970112
v 7.220711E-09 0.19510841 3.2492902
v 7.220711E-09 -4.6555233E-08 3.1970112
v 0.16896883 0.29266256 3.3921196
v 0.3379377 0.19510837 3.5872276
v 0.09755423 0.16896884 3.2492902
v 7.220711E-09 -4.6555233E-08 3.1970112
v 0.2926626 0.16896881 3.3921196
v 0.3379377 -4.0270518E-08 3.7823365
v 0.16896887 0.097554184 3.2492902
v 7.220711E-09 -4.6555233E-08 3.1970112
v 0.3902168 -5.189988E-08 3.5872276
v 0.16896886 -0.097554244 3.9251657
v 7.220707E-09 -8.066907E-08 3.9774446
v 0.3379377 -4.0270518E-08 3.3921196
v 0.2926626 -0.16896887 3.7823365
v 0.19510844 -4.6085198E-08 3.2492902
v 7.220711E-09 -4.6555233E-08 3.1970112
v 0.33793765 -0.19510841 3.5872276
v 0.09755422 -0.16896887 3.9251657
v 7.220707E-09 -8.066907E-08 3.9774446
v 0.2926626 -0.16896887 3.3921196
v 0.16896883 -0.29266265 3.7823365
v 0.16896886 -0.097554274 3.2492902
v 7.220711E-09 -4.6555233E-08 3.1970112
v 0.1951084 -0.33793765 3.5872276
v 1.8462943E-08 -0.19510841 3.9251657
v 7.220707E-09 -8.066907E-08 3.9774446
v 0.16896883 -0.29266265 3.3921196
v 1.0188939E-09 -0.3379377 3.7823365
v 0.09755422 -0.16896892 3.2492902
v 7.220711E-09 -4.6555233E-08 3.1970112
v 1.2648261E-08 -0.3902168 3.5872276
v -0.09755417 -0.16896884 3.9251657
v 7.220707E-09 -8.066907E-08 3.9774446
v 1.0188939E-09 -0.3379377 3.3921196
v -0.16896883 -0.2926626 3.7823365
v 1.0188939E-09 -0.19510849 3.2492902
v 7.220711E-09 -4.6555233E-08 3.1970112
v -0.19510837 -0.33793765 3.5872276
v -0.1689688 -0.09755424 3.9251657
v 7.220707E-09 -8.066907E-08 3.9774446
v -0.16896883 -0.2926626 3.3921196
v -0.29266253 -0.16896884 3.7823365
v -0.19510837 -4.6085198E-08 3.9251657
v 7.220707E-09 -8.066907E-08 3.9774446
v -0.3379376 -2.864115E-08 3.7823365
v -0.3379376 -0.1951084 3.5872276
v -0.3902167 -4.0270518E-08 3.5872276
v -0.29266253 -0.16896884 3.3921196
v -0.3379376 -2.864115E-08 3.3921196
v -0.09755421 -0.1689689 3.2492902
v 7.220711E-09 -4.6555233E-08 3.1970112
v -0.16896886 -0.097554244 3.2492902
v 7.220711E-09 -4.6555233E-08 3.1970112
v -0.1951084 -2.864115E-08 3.2492902
v 7.220711E-09 -4.6555233E-08 3.1970112
v -0.33850962 -0.7531502 2.2459588
v -0.33850962 -0.51186943 2.9736173
v -0.33850962 -0.74152726 3.0252707
v -0.33850962 -0.9828081 2.2976122
v 0.33850962 -0.74152726 3.0252707
v 0.33850962 -0.9828081 2.2976122
v 0.33850962 -0.51186943 2.9736173
v -0.33850962 -0.51186943 2.9736173
v -0.33850962 -0.74152726 3.0252707
v 0.33850962 -0.7531502 2.2459588
v -0.33850962 -0.9828081 2.2976122
v -0.33850962 -0.7531502 2.2459588
v -0.33850962 -0.51186943 2.9736173
v -0.33850962 -0.7531502 2.2459588
vt 1 0.5
vt 0.9 1
vt 1 1
vt 0.9 0.5
vt 0.79999995 1
vt 0.79999995 0.5
vt 0.6999999 1
vt 0.6999999 0.5
vt 0.5999999 1
vt 0.5999999 0.5
vt 0.4999999 1
vt 0.4999999 0.5
vt 0.39999992 1
vt 0.39999992 0.5
vt 0.29999992 1
vt 0.29999992 0.5
vt 0.19999993 1
vt 0.19999993 0.5
vt 0.09999993 1
vt 0.09999993 0.5
vt -7.4505806E-08 1
vt -7.4505806E-08 0.5
vt 0.39106846 0.44416407
vt 0.47825354 0.32416406
vt 0.47825354 0.17583591
vt 0.39106846 0.055835918
vt 0.25 0.49
vt 0.24999999 0.010000005
vt 0.10893153 0.44416407
vt 0.10893151 0.055835932
vt 0.021746457 0.3241641
vt 0.021746457 0.17583591
vt 0.97825354 0.17583591
vt 0.97825354 0.32416406
vt 0.89106846 0.44416407
vt 0.89106846 0.055835918
vt 0.75 0.49
vt 0.75 0.010000005
vt 0.60893154 0.44416407
vt 0.60893154 0.055835932
vt 0.52174646 0.3241641
vt 0.52174646 0.17583591
vt 1 0.5
vt 0.9 1
vt 1 1
vt 0.9 0.5
vt 0.79999995 1
vt 0.79999995 0.5
vt 0.6999999 1
vt 0.6999999 0.5
vt 0.5999999 1
vt 0.5999999 0.5
vt 0.4999999 1
vt 0.4999999 0.5
vt 0.39999992 1
vt 0.39999992 0.5
vt 0.29999992 1
vt 0.29999992 0.5
vt 0.19999993 1
vt 0.19999993 0.5
vt 0.09999993 1
vt 0.09999993 0.5
vt -7.4505806E-08 1
vt -7.4505806E-08 0.5
vt 0.39106846 0.44416407
vt 0.47825354 0.32416406
vt 0.47825354 0.17583591
vt 0.39106846 0.055835918
vt 0.25 0.49
vt 0.24999999 0.010000005
vt 0.10893153 0.44416407
vt 0.10893151 0.055835932
vt 0.021746457 0.3241641
vt 0.021746457 0.17583591
vt 0.97825354 0.17583591
vt 0.97825354 0.32416406
vt 0.89106846 0.44416407
vt 0.89106846 0.055835918
vt 0.75 0.49
vt 0.75 0.010000005
vt 0.60893154 0.44416407
vt 0.60893154 0.055835932
vt 0.52174646 0.17583591
vt 0.52174646 0.3241641
vt 0.75 0.8333333
vt 0.6666666 0.8333333
vt 0.70833325 1
vt 0.75 0.6666666
vt 0.6666666 0.6666666
vt 0.58333325 0.8333333
vt 0.625 1
vt 0.8333334 0.66666675
vt 0.8333334 0.8333334
vt 0.7916666 1
vt 0.75 0.5
vt 0.8333334 0.5
vt 0.58333325 0.6666666
vt 0.6666666 0.5
vt 0.49999994 0.8333333
vt 0.5416666 1
vt 0.9166666 0.66666675
vt 0.9166666 0.5
vt 0.9166666 0.8333334
vt 0.875 1
vt 1 0.66666675
vt 1 0.8333334
vt 0.9583334 1
vt 1 0.5
vt 1 0.3333333
vt 0.9166666 0.33333325
vt 1 0.16666669
vt 0.8333334 0.33333325
vt 0.9166666 0.16666669
vt 0.9583334 0
vt 0.75 0.33333325
vt 0.8333334 0.16666669
vt 0.875 0
vt 0.75 0.16666669
vt 0.7916666 0
vt 0.6666666 0.3333333
vt 0.58333325 0.5
vt 0.6666666 0.16666669
vt 0.70833325 0
vt 0.58333325 0.3333333
vt 0.49999997 0.6666666
vt 0.58333325 0.16666669
vt 0.625 0
vt 0.49999994 0.5
vt 0.41666663 0.8333333
vt 0.45833325 1
vt 0.49999997 0.3333333
vt 0.41666663 0.6666666
vt 0.49999994 0.16666669
vt 0.5416666 0
vt 0.41666663 0.5
vt 0.33333328 0.8333333
vt 0.37499994 1
vt 0.41666663 0.3333333
vt 0.33333328 0.6666666
vt 0.4166666 0.16666669
vt 0.45833325 0
vt 0.33333328 0.5
vt 0.24999997 0.8333333
vt 0.29166663 1
vt 0.33333328 0.3333333
vt 0.24999997 0.6666666
vt 0.33333328 0.1666668
vt 0.37499997 0
vt 0.24999997 0.5
vt 0.16666669 0.8333333
vt 0.20833334 1
vt 0.24999997 0.3333333
vt 0.16666663 0.6666666
vt 0.24999997 0.1666668
vt 0.29166663 0
vt 0.16666663 0.5
vt 0.08333331 0.8333333
vt 0.12500003 1
vt 0.16666663 0.3333333
vt 0.08333331 0.6666666
vt 0 0.8333334
vt 0.041666716 1
vt 0 0.66666675
vt 0.08333331 0.5
vt 0 0.5
vt 0.08333331 0.3333333
vt 0 0.3333333
vt 0.16666663 0.16666669
vt 0.20833331 0
vt 0.08333331 0.16666669
vt 0.12500003 0
vt 0 0.16666669
vt 0.041666657 0
vt 0.375 0
vt 0.625 0
vt 0.625 0.25
vt 0.375 0.25
vt 0.625 0.5
vt 0.375 0.5
vt 0.625 0.75
vt 0.875 0.75
vt 0.875 0.5
vt 0.375 0.75
vt 0.125 0.5
vt 0.125 0.75
vt 0.625 1
vt 0.375 1
vn -0 0.7197565 -0.69422656
vn 0.47394824 0.6523338 0.5914675
vn -0 0.8063289 0.59146744
vn 0.4230623 0.5822953 -0.6942266
vn 0.7668644 0.2491693 0.5914674
vn 0.6845291 0.22241695 -0.6942266
vn 0.76686436 -0.24916936 0.5914674
vn 0.6845291 -0.22241706 -0.6942267
vn 0.4739482 -0.65233386 0.59146744
vn 0.42306224 -0.58229536 -0.6942266
vn -0 -0.8063289 0.59146744
vn -0 -0.7197564 -0.6942266
vn -0.47394827 -0.65233374 0.59146744
vn -0.42306235 -0.58229524 -0.6942266
vn -0.76686436 -0.24916932 0.59146744
vn -0.6845291 -0.22241697 -0.6942267
vn -0.76686436 0.24916933 0.5914674
vn -0.68452907 0.22241701 -0.6942267
vn -0.4739483 0.6523338 0.5914674
vn -0.4230623 0.5822953 -0.6942266
vn -0 0.8063289 0.59146744
vn -0 0.7197565 -0.69422656
vn 0.47394824 0.6523338 0.5914675
vn 0.7668644 0.2491693 0.5914674
vn 0.76686436 -0.24916936 0.5914674
vn 0.4739482 -0.65233386 0.59146744
vn -0 0.8063289 0.59146744
vn -0 -0.8063289 0.59146744
vn -0.4739483 0.6523338 0.5914674
vn -0.47394827 -0.65233374 0.59146744
vn -0.76686436 0.24916933 0.5914674
vn -0.76686436 -0.24916932 0.59146744
vn 0.6845291 -0.22241706 -0.6942267
vn 0.6845291 0.22241695 -0.6942266
vn 0.4230623 0.5822953 -0.6942266
vn 0.42306224 -0.58229536 -0.6942266
vn -0 0.7197565 -0.69422656
vn -0 -0.7197564 -0.6942266
vn -0.4230623 0.5822953 -0.6942266
vn -0.42306235 -0.58229524 -0.6942266
vn -0.68452907 0.22241701 -0.6942267
vn -0.6845291 -0.22241697 -0.6942267
vn -0 0.864327 -0.5029303
vn 0.37342158 0.5139708 0.77226317
vn -0 0.63530284 0.77226317
vn 0.50803864 0.6992552 -0.5029304
vn 0.6042088 0.19631939 0.7722632
vn 0.82202387 0.26709175 -0.5029302
vn 0.6042088 -0.19631946 0.77226317
vn 0.8220238 -0.2670918 -0.50293034
vn 0.37342152 -0.5139708 0.77226317
vn 0.5080386 -0.6992553 -0.5029303
vn -0 -0.63530284 0.77226317
vn -0 -0.8643269 -0.5029304
vn -0.37342155 -0.5139708 0.77226317
vn -0.5080385 -0.6992552 -0.50293034
vn -0.6042089 -0.19631943 0.77226317
vn -0.8220237 -0.26709178 -0.5029304
vn -0.6042089 0.19631933 0.77226305
vn -0.8220238 0.2670917 -0.50293034
vn -0.37342167 0.5139708 0.77226317
vn -0.5080386 0.6992552 -0.50293034
vn -0 0.63530284 0.77226317
vn -0 0.864327 -0.5029303
vn 0.37342158 0.5139708 0.77226317
vn 0.6042088 0.19631939 0.7722632
vn 0.6042088 -0.19631946 0.77226317
vn 0.37342152 -0.5139708 0.77226317
vn -0 0.63530284 0.77226317
vn -0 -0.63530284 0.77226317
vn -0.37342167 0.5139708 0.77226317
vn -0.37342155 -0.5139708 0.77226317
vn -0.6042089 0.19631933 0.77226305
vn -0.6042089 -0.19631943 0.77226317
vn 0.8220238 -0.2670918 -0.50293034
vn 0.82202387 0.26709175 -0.5029302
vn 0.50803864 0.6992552 -0.5029304
vn 0.5080386 -0.6992553 -0.5029303
vn -0 0.864327 -0.5029303
vn -0 -0.8643269 -0.5029304
vn -0.5080386 0.6992552 -0.50293034
vn -0.5080385 -0.6992552 -0.50293034
vn -0.8220237 -0.26709178 -0.5029304
vn -0.8220238 0.2670917 -0.50293034
vn -0 0.5309004 0.8474342
vn 0.26545 0.45977327 0.8474343
vn -0 0 1
vn -0 0.87598103 0.48234558
vn 0.4379904 0.7586218 0.48234564
vn 0.45977336 0.26545015 0.8474341
vn -0 0 1
vn -0.43799093 0.75862163 0.48234537
vn -0.26545 0.4597732 0.8474343
vn -0 0 1
vn -0 1 0
vn -0.50000024 0.86602527 0
vn 0.7586216 0.43799073 0.48234585
vn 0.4999999 0.8660255 0
vn 0.5309 0 0.84743446
vn -0 0 1
vn -0.7586221 0.43799037 0.48234522
vn -0.8660253 0.5000001 0
vn -0.4597737 0.26545015 0.84743404
vn -0 0 1
vn -0.87598103 0 0.48234558
vn -0.5309002 0 0.8474343
vn -0 0 1
vn -1 0 0
vn -0.87598103 0 -0.48234558
vn -0.75862163 0.43799075 -0.4823456
vn -0.53090066 0 -0.84743404
vn -0.43799046 0.7586218 -0.48234558
vn -0.4597732 0.2654506 -0.8474341
vn -0 0 -1
vn -0 0.8759809 -0.48234567
vn -0.26545045 0.4597738 -0.84743387
vn -0 0 -1
vn -0 0.53090096 -0.84743387
vn -0 0 -1
vn 0.43799058 0.7586217 -0.4823457
vn 0.86602527 0.5000002 0
vn 0.26545036 0.4597737 -0.8474339
vn -0 0 -1
vn 0.75862175 0.43799046 -0.48234567
vn 0.87598085 0 0.48234582
vn 0.45977414 0.2654503 -0.8474338
vn -0 0 -1
vn 1 0 0
vn 0.45977324 -0.26545027 0.8474342
vn -0 0 1
vn 0.87598103 0 -0.48234564
vn 0.7586216 -0.4379909 0.48234567
vn 0.5309004 0 -0.8474343
vn -0 0 -1
vn 0.86602527 -0.50000024 0
vn 0.2654501 -0.45977333 0.8474343
vn -0 0 1
vn 0.75862175 -0.43799055 -0.48234567
vn 0.43799043 -0.758622 0.48234552
vn 0.45977286 -0.2654505 -0.8474343
vn -0 0 -1
vn 0.4999999 -0.8660255 0
vn -0 -0.5309004 0.8474343
vn -0 0 1
vn 0.43799037 -0.7586219 -0.48234567
vn -0 -0.8759811 0.48234546
vn 0.26545024 -0.45977363 -0.8474339
vn -0 0 -1
vn -0 -1 0
vn -0.2654507 -0.4597733 0.84743404
vn -0 0 1
vn -0 -0.87598103 -0.48234555
vn -0.43799058 -0.7586218 0.48234546
vn -0 -0.5309009 -0.84743387
vn -0 0 -1
vn -0.5 -0.86602545 0
vn -0.45977432 -0.2654501 0.8474336
vn -0 0 1
vn -0.43799075 -0.7586217 -0.48234555
vn -0.7586219 -0.4379905 0.48234552
vn -0.5309002 0 0.8474343
vn -0 0 1
vn -0.87598103 0 0.48234558
vn -0.86602545 -0.5 0
vn -1 0 0
vn -0.7586219 -0.43799037 -0.48234552
vn -0.87598103 0 -0.48234558
vn -0.26545024 -0.45977366 -0.84743404
vn -0 0 -1
vn -0.4597732 -0.26545042 -0.8474341
vn -0 0 -1
vn -0.53090066 0 -0.84743404
vn -0 0 -1
vn -0.5827224 0.40005207 -0.7073845
vn -0.5723363 0.71378034 0.40366915
vn -0.5827224 -0.400052 0.7073845
vn -0.5723363 -0.71378034 -0.40366906
vn 0.5827224 -0.400052 0.7073845
vn 0.5723363 -0.71378034 -0.40366906
vn 0.5723363 0.71378034 0.40366915
vn -0.5723363 0.71378034 0.40366915
vn -0.5827224 -0.400052 0.7073845
vn 0.5827224 0.40005207 -0.7073845
vn -0.5723363 -0.71378034 -0.40366906
vn -0.5827224 0.40005207 -0.7073845
vn -0.5723363 0.71378034 0.40366915
vn -0.5827224 0.40005207 -0.7073845
g Ogre New_0
f 3/3/3 2/2/2 1/1/1
f 2/2/2 4/4/4 1/1/1
f 2/2/2 5/5/5 4/4/4
f 5/5/5 6/6/6 4/4/4
f 5/5/5 7/7/7 6/6/6
f 7/7/7 8/8/8 6/6/6
f 7/7/7 9/9/9 8/8/8
f 9/9/9 10/10/10 8/8/8
f 9/9/9 11/11/11 10/10/10
f 11/11/11 12/12/12 10/10/10
f 11/11/11 13/13/13 12/12/12
f 13/13/13 14/14/14 12/12/12
f 13/13/13 15/15/15 14/14/14
f 15/15/15 16/16/16 14/14/14
f 15/15/15 17/17/17 16/16/16
f 17/17/17 18/18/18 16/16/16
f 17/17/17 19/19/19 18/18/18
f 19/19/19 20/20/20 18/18/18
f 19/19/19 21/21/21 20/20/20
f 21/21/21 22/22/22 20/20/20
f 25/25/25 24/24/24 23/23/23
f 23/23/23 26/26/26 25/25/25
f 23/23/23 27/27/27 26/26/26
f 27/27/27 28/28/28 26/26/26
f 27/27/27 29/29/29 28/28/28
f 29/29/29 30/30/30 28/28/28
f 29/29/29 31/31/31 30/30/30
f 31/31/31 32/32/32 30/30/30
f 35/35/35 34/34/34 33/33/33
f 33/33/33 36/36/36 35/35/35
f 36/36/36 37/37/37 35/35/35
f 36/36/36 38/38/38 37/37/37
f 38/38/38 39/39/39 37/37/37
f 38/38/38 40/40/40 39/39/39
f 40/40/40 41/41/41 39/39/39
f 40/40/40 42/42/42 41/41/41
f 45/45/45 44/44/44 43/43/43
f 44/44/44 46/46/46 43/43/43
f 44/44/44 47/47/47 46/46/46
f 47/47/47 48/48/48 46/46/46
f 47/47/47 49/49/49 48/48/48
f 49/49/49 50/50/50 48/48/48
f 49/49/49 51/51/51 50/50/50
f 51/51/51 52/52/52 50/50/50
f 51/51/51 53/53/53 52/52/52
f 53/53/53 54/54/54 52/52/52
f 53/53/53 55/55/55 54/54/54
f 55/55/55 56/56/56 54/54/54
f 55/55/55 57/57/57 56/56/56
f 57/57/57 58/58/58 56/56/56
f 57/57/57 59/59/59 58/58/58
f 59/59/59 60/60/60 58/58/58
f 59/59/59 61/61/61 60/60/60
f 61/61/61 62/62/62 60/60/60
f 61/61/61 63/63/63 62/62/62
f 63/63/63 64/64/64 62/62/62
f 67/67/67 66/66/66 65/65/65
f 65/65/65 68/68/68 67/67/67
f 65/65/65 69/69/69 68/68/68
f 69/69/69 70/70/70 68/68/68
f 69/69/69 71/71/71 70/70/70
f 71/71/71 72/72/72 70/70/70
f 71/71/71 73/73/73 72/72/72
f 73/73/73 74/74/74 72/72/72
f 77/77/77 76/76/76 75/75/75
f 75/75/75 78/78/78 77/77/77
f 78/78/78 79/79/79 77/77/77
f 78/78/78 80/80/80 79/79/79
f 80/80/80 81/81/81 79/79/79
f 80/80/80 82/82/82 81/81/81
f 82/82/82 83/83/83 81/81/81
f 83/83/83 84/84/84 81/81/81
f 87/87/87 86/86/86 85/85/85
f 85/85/85 86/86/86 88/88/88
f 86/86/86 89/89/89 88/88/88
f 86/86/86 90/90/90 89/89/89
f 91/91/91 90/90/90 86/86/86
f 85/85/85 88/88/88 92/92/92
f 93/93/93 85/85/85 92/92/92
f 94/94/94 85/85/85 93/93/93
f 88/88/88 89/89/89 95/95/95
f 92/92/92 88/88/88 96/96/96
f 88/88/88 95/95/95 96/96/96
f 90/90/90 97/97/97 89/89/89
f 89/89/89 98/98/98 95/95/95
f 89/89/89 97/97/97 98/98/98
f 90/90/90 99/99/99 97/97/97
f 100/100/100 99/99/99 90/90/90
f 93/93/93 92/92/92 101/101/101
f 92/92/92 96/96/96 102/102/102
f 101/101/101 92/92/92 102/102/102
f 103/103/103 93/93/93 101/101/101
f 104/104/104 93/93/93 103/103/103
f 103/103/103 101/101/101 105/105/105
f 106/106/106 103/103/103 105/105/105
f 107/107/107 103/103/103 106/106/106
f 105/105/105 101/101/101 108/108/108
f 101/101/101 102/102/102 108/108/108
f 108/108/108 102/102/102 109/109/109
f 102/102/102 110/110/110 109/109/109
f 102/102/102 96/96/96 110/110/110
f 109/109/109 110/110/110 111/111/111
f 96/96/96 112/112/112 110/110/110
f 96/96/96 95/95/95 112/112/112
f 110/110/110 113/113/113 111/111/111
f 110/110/110 112/112/112 113/113/113
f 111/111/111 113/113/113 114/114/114
f 95/95/95 115/115/115 112/112/112
f 95/95/95 98/98/98 115/115/115
f 112/112/112 116/116/116 113/113/113
f 112/112/112 115/115/115 116/116/116
f 113/113/113 116/116/116 117/117/117
f 115/115/115 118/118/118 116/116/116
f 116/116/116 118/118/118 119/119/119
f 98/98/98 120/120/120 115/115/115
f 115/115/115 120/120/120 118/118/118
f 98/98/98 121/121/121 120/120/120
f 97/97/97 121/121/121 98/98/98
f 120/120/120 122/122/122 118/118/118
f 118/118/118 122/122/122 123/123/123
f 120/120/120 124/124/124 122/122/122
f 121/121/121 124/124/124 120/120/120
f 97/97/97 125/125/125 121/121/121
f 99/99/99 125/125/125 97/97/97
f 124/124/124 126/126/126 122/122/122
f 122/122/122 126/126/126 127/127/127
f 121/121/121 128/128/128 124/124/124
f 125/125/125 128/128/128 121/121/121
f 99/99/99 129/129/129 125/125/125
f 130/130/130 129/129/129 99/99/99
f 124/124/124 131/131/131 126/126/126
f 128/128/128 131/131/131 124/124/124
f 129/129/129 132/132/132 125/125/125
f 125/125/125 132/132/132 128/128/128
f 131/131/131 133/133/133 126/126/126
f 126/126/126 133/133/133 134/134/134
f 128/128/128 135/135/135 131/131/131
f 132/132/132 135/135/135 128/128/128
f 129/129/129 136/136/136 132/132/132
f 137/137/137 136/136/136 129/129/129
f 131/131/131 138/138/138 133/133/133
f 135/135/135 138/138/138 131/131/131
f 136/136/136 139/139/139 132/132/132
f 132/132/132 139/139/139 135/135/135
f 138/138/138 140/140/140 133/133/133
f 133/133/133 140/140/140 141/141/141
f 135/135/135 142/142/142 138/138/138
f 139/139/139 142/142/142 135/135/135
f 136/136/136 143/143/143 139/139/139
f 144/144/144 143/143/143 136/136/136
f 138/138/138 145/145/145 140/140/140
f 142/142/142 145/145/145 138/138/138
f 139/139/139 146/146/146 142/142/142
f 143/143/143 146/146/146 139/139/139
f 145/145/145 147/147/147 140/140/140
f 140/140/140 147/147/147 148/148/148
f 142/142/142 149/149/149 145/145/145
f 146/146/146 149/149/149 142/142/142
f 143/143/143 150/150/150 146/146/146
f 151/151/151 150/150/150 143/143/143
f 145/145/145 152/152/152 147/147/147
f 149/149/149 152/152/152 145/145/145
f 146/146/146 153/153/153 149/149/149
f 150/150/150 153/153/153 146/146/146
f 152/152/152 154/154/154 147/147/147
f 147/147/147 154/154/154 155/155/155
f 149/149/149 156/156/156 152/152/152
f 153/153/153 156/156/156 149/149/149
f 150/150/150 157/157/157 153/153/153
f 158/158/158 157/157/157 150/150/150
f 152/152/152 159/159/159 154/154/154
f 156/156/156 159/159/159 152/152/152
f 153/153/153 160/160/160 156/156/156
f 157/157/157 160/160/160 153/153/153
f 157/157/157 161/161/161 160/160/160
f 162/162/162 161/161/161 157/157/157
f 161/161/161 163/163/163 160/160/160
f 160/160/160 164/164/164 156/156/156
f 160/160/160 163/163/163 164/164/164
f 156/156/156 164/164/164 159/159/159
f 163/163/163 165/165/165 164/164/164
f 164/164/164 165/165/165 166/166/166
f 164/164/164 166/166/166 159/159/159
f 165/165/165 167/167/167 166/166/166
f 159/159/159 168/168/168 154/154/154
f 159/159/159 166/166/166 168/168/168
f 154/154/154 168/168/168 169/169/169
f 166/166/166 167/167/167 170/170/170
f 166/166/166 170/170/170 168/168/168
f 168/168/168 170/170/170 171/171/171
f 167/167/167 172/172/172 170/170/170
f 170/170/170 172/172/172 173/173/173
f 176/176/176 175/175/175 174/174/174
f 177/177/177 176/176/176 174/174/174
f 178/178/178 176/176/176 177/177/177
f 179/179/179 178/178/178 177/177/177
f 180/180/180 178/178/178 179/179/179
f 180/180/180 181/181/181 178/178/178
f 181/181/181 182/182/182 178/178/178
f 183/183/183 180/180/180 179/179/179
f 183/183/183 179/179/179 184/184/184
f 185/185/185 183/183/183 184/184/184
f 186/186/186 180/180/180 183/183/183
f 187/187/187 186/186/186 183/183/183
