g Player Unit Base
v -0.17804934 0.42984912 0.00014151614
v -1.5208723E-08 0.46526536 0.00014151614
v -1.5208723E-08 0.46526536 0.9288113
v -0.17804934 0.42984912 0.9288113
v -0.32899234 0.32899222 0.00014151614
v -0.32899234 0.32899222 0.9288113
v -0.42984906 0.17804943 0.00014151614
v -0.42984906 0.17804943 0.9288113
v -0.46526536 7.877108E-09 0.00014151614
v -0.46526536 7.877108E-09 0.9288113
v -0.42984906 -0.1780494 0.00014151614
v -0.42984906 -0.1780494 0.9288113
v -0.32899228 -0.32899228 0.00014151614
v -0.32899228 -0.32899228 0.9288113
v -0.17804934 -0.42984906 0.00014151614
v -0.17804934 -0.42984906 0.9288113
v -5.588351E-08 -0.46526536 0.00014151614
v -5.588351E-08 -0.46526536 0.9288113
v 0.17804934 -0.42984906 0.00014151614
v 0.17804934 -0.42984906 0.9288113
v 0.32899222 -0.32899225 0.00014151614
v 0.32899222 -0.32899225 0.9288113
v 0.42984906 -0.17804934 0.00014151614
v 0.42984906 -0.17804934 0.9288113
v 0.4652653 -1.8008517E-08 0.00014151614
v 0.4652653 -1.8008517E-08 0.9288113
v 0.42984906 0.17804934 0.00014151614
v 0.42984906 0.17804934 0.9288113
v 0.32899222 0.32899225 0.00014151614
v 0.32899222 0.32899225 0.9288113
v 0.17804934 0.42984906 0.00014151614
v 0.17804934 0.42984906 0.9288113
v -1.5208723E-08 0.46526536 0.00014151614
v -1.5208723E-08 0.46526536 0.9288113
v 0.42984906 -0.17804934 0.00014151614
v 0.4652653 -1.8008517E-08 0.00014151614
v 0.42984906 0.17804934 0.00014151614
v 0.32899222 -0.32899225 0.00014151614
v 0.32899222 0.32899225 0.00014151614
v 0.17804934 -0.42984906 0.00014151614
v 0.17804934 0.42984906 0.00014151614
v -5.588351E-08 -0.46526536 0.00014151614
v -1.5208723E-08 0.46526536 0.00014151614
v -0.17804934 0.42984912 0.00014151614
v -0.17804934 -0.42984906 0.00014151614
v -0.32899228 -0.32899228 0.00014151614
v -0.32899234 0.32899222 0.00014151614
v -0.42984906 -0.1780494 0.00014151614
v -0.42984906 0.17804943 0.00014151614
v -0.46526536 7.877108E-09 0.00014151614
v 7.648425E-08 0.14364977 2.124952
v 0.05497241 0.1327151 2.124952
v -6.6679996E-15 -6.563264E-08 2.153526
v -0 0.26543018 2.0435812
v 0.10157576 0.24522552 2.0435812
v 0.10157578 0.10157573 2.124952
v -6.6679996E-15 -6.563264E-08 2.153526
v -0.10157557 0.24522555 2.0435812
v -0.05497233 0.13271509 2.124952
v -6.6679996E-15 -6.563264E-08 2.153526
v -0 0.34680128 1.9218007
v -0.13271491 0.3204026 1.9218007
v 0.18768752 0.18768746 2.0435812
v 0.13271512 0.3204026 1.9218007
v 0.13271514 0.05497236 2.124952
v -6.6679996E-15 -6.563264E-08 2.153526
v -0.18768735 0.18768758 2.0435812
v -0.24522538 0.24522561 1.9218007
v -0.101575695 0.10157576 2.124952
v -6.6679996E-15 -6.563264E-08 2.153526
v -0.14364962 0.34680128 1.778151
v 1.8036395E-07 0.37537488 1.778151
v -0.26543006 0.26543024 1.778151
v 0.24522555 0.24522552 1.9218007
v 0.24522558 0.10157568 2.0435812
v 0.14364982 0.34680128 1.778151
v 0.14364983 -5.0442473E-08 2.124952
v -6.6679996E-15 -6.563264E-08 2.153526
v -0.13271494 0.32040262 1.6345012
v -0.24522541 0.24522561 1.6345012
v -0 0.34680128 1.6345012
v -0.3468012 0.14364986 1.778151
v -0.32040253 0.1327152 1.6345012
v -0.3204025 0.13271523 1.9218007
v -0.24522544 0.10157584 2.0435812
v -0.13271509 0.054972425 2.124952
v -6.6679996E-15 -6.563264E-08 2.153526
v -0.37537494 8.540023E-08 1.778151
v -0.34680128 1.2535396E-07 1.9218007
v -0.34680128 9.339098E-08 1.6345012
v -0.26543018 9.339098E-08 2.0435812
v -0.14364982 2.147425E-08 2.124952
v -6.6679996E-15 -6.563264E-08 2.153526
v -0.26543018 9.339098E-08 1.5127207
v -0.24522544 0.10157584 1.5127207
v -0.1436498 2.9464996E-08 1.4313499
v -0.13271509 0.054972425 1.4313499
v -0 -3.281632E-08 1.402776
v -0.18768735 0.18768758 1.5127207
v -0.101575695 0.10157576 1.4313499
v -0 -3.281632E-08 1.402776
v -0.10157557 0.24522555 1.5127207
v -0.05497233 0.13271509 1.4313499
v -0 -3.281632E-08 1.402776
v 1.883547E-07 0.26543018 1.5127207
v 0.13271514 0.3204026 1.6345012
v -0 0.14364982 1.4313499
v -0 -3.281632E-08 1.402776
v 0.10157576 0.24522552 1.5127207
v 0.26543024 0.26543018 1.778151
v 0.05497242 0.1327151 1.4313499
v -0 -3.281632E-08 1.402776
v 0.24522558 0.24522553 1.6345012
v 0.3204026 0.13271503 1.9218007
v 0.18768752 0.18768746 1.5127207
v 0.34680128 0.14364973 1.778151
v 0.2654302 -8.2405464E-08 2.0435812
v 0.10157579 0.10157574 1.4313499
v -0 -3.281632E-08 1.402776
v 0.32040262 0.13271506 1.6345012
v 0.34680128 -7.441473E-08 1.9218007
v 0.13271514 -0.05497247 2.124952
v -6.6679996E-15 -6.563264E-08 2.153526
v 0.24522558 0.10157568 1.5127207
v 0.375375 -7.441473E-08 1.778151
v 0.24522553 -0.10157584 2.0435812
v 0.13271517 0.05497236 1.4313499
v -0 -3.281632E-08 1.402776
v 0.34680128 -5.8433226E-08 1.6345012
v 0.32040253 -0.13271518 1.9218007
v 0.10157575 -0.101575814 2.124952
v -6.6679996E-15 -6.563264E-08 2.153526
v 0.2654302 -8.2405464E-08 1.5127207
v 0.34680125 -0.14364986 1.778151
v 0.18768746 -0.1876876 2.0435812
v 0.14364985 -5.8433226E-08 1.4313499
v -0 -3.281632E-08 1.402776
v 0.3204026 -0.13271518 1.6345012
v 0.24522544 -0.24522561 1.9218007
v 0.054972373 -0.13271518 2.124952
v -6.6679996E-15 -6.563264E-08 2.153526
v 0.24522553 -0.10157584 1.5127207
v 0.26543012 -0.26543027 1.778151
v 0.10157567 -0.24522562 2.0435812
v 0.13271514 -0.054972477 1.4313499
v -0 -3.281632E-08 1.402776
v 0.24522552 -0.24522561 1.6345012
v 0.13271502 -0.32040262 1.9218007
v -3.9381593E-08 -0.14364986 2.124952
v -6.6679996E-15 -6.563264E-08 2.153526
v 0.18768746 -0.1876876 1.5127207
v 0.14364971 -0.34680128 1.778151
v -9.132145E-08 -0.26543027 2.0435812
v 0.101575755 -0.101575844 1.4313499
v -0 -3.281632E-08 1.402776
v 0.13271503 -0.32040262 1.6345012
v -9.9312196E-08 -0.34680128 1.9218007
v -0.054972447 -0.13271514 2.124952
v -6.6679996E-15 -6.563264E-08 2.153526
v 0.10157567 -0.24522562 1.5127207
v -7.533995E-08 -0.375375 1.778151
v -0.101575844 -0.24522555 2.0435812
v 0.054972373 -0.1327152 1.4313499
v -0 -3.281632E-08 1.402776
v -6.734921E-08 -0.34680128 1.6345012
v -0.13271518 -0.3204026 1.9218007
v -0.1015758 -0.10157576 2.124952
v -6.6679996E-15 -6.563264E-08 2.153526
v -9.132145E-08 -0.26543027 1.5127207
v -0.14364985 -0.34680125 1.778151
v -0.18768758 -0.18768746 2.0435812
v -4.7372346E-08 -0.14364986 1.4313499
v -0 -3.281632E-08 1.402776
v -0.13271517 -0.3204026 1.6345012
v -0.24522561 -0.24522544 1.9218007
v -0.13271514 -0.054972395 2.124952
v -6.6679996E-15 -6.563264E-08 2.153526
v -0.101575844 -0.24522555 1.5127207
v -0.2654302 -0.26543012 1.778151
v -0.24522558 -0.101575665 2.0435812
v -0.14364982 2.147425E-08 2.124952
v -6.6679996E-15 -6.563264E-08 2.153526
v -0.26543018 9.339098E-08 2.0435812
v -0.32040262 -0.132715 1.9218007
v -0.34680128 1.2535396E-07 1.9218007
v -0.34680128 -0.1436497 1.778151
v -0.37537494 8.540023E-08 1.778151
v -0.24522558 -0.24522547 1.6345012
v -0.3204026 -0.13271503 1.6345012
v -0.34680128 9.339098E-08 1.6345012
v -0.18768758 -0.18768746 1.5127207
v -0.24522558 -0.101575665 1.5127207
v -0.26543018 9.339098E-08 1.5127207
v -0.05497245 -0.13271514 1.4313499
v -0 -3.281632E-08 1.402776
v -0.1015758 -0.101575755 1.4313499
v -0 -3.281632E-08 1.402776
v -0.13271514 -0.054972388 1.4313499
v -0 -3.281632E-08 1.402776
v -0.1436498 2.9464996E-08 1.4313499
v -0 -3.281632E-08 1.402776
v 0.53901225 -0.104487784 0.43176225
v 0.53901225 0.104487784 0.43176225
v 0.53901225 0.104487784 0.6407378
v 0.53901225 -0.104487784 0.6407378
v 0.53901225 0.104487784 0.43176225
v 0.74798775 0.104487784 0.43176225
v 0.74798775 0.104487784 0.6407378
v 0.53901225 0.104487784 0.6407378
v 0.74798775 0.104487784 0.43176225
v 0.74798775 -0.104487784 0.43176225
v 0.74798775 -0.104487784 0.6407378
v 0.74798775 0.104487784 0.6407378
v 0.74798775 -0.104487784 0.43176225
v 0.53901225 -0.104487784 0.43176225
v 0.53901225 -0.104487784 0.6407378
v 0.74798775 -0.104487784 0.6407378
v 0.53901225 0.104487784 0.43176225
v 0.53901225 -0.104487784 0.43176225
v 0.74798775 -0.104487784 0.43176225
v 0.74798775 0.104487784 0.43176225
v 0.74798775 0.104487784 0.6407378
v 0.74798775 -0.104487784 0.6407378
v 0.53901225 -0.104487784 0.6407378
v 0.53901225 0.104487784 0.6407378
v -0.7479876 -0.104487784 0.43176225
v -0.7479876 0.104487784 0.43176225
v -0.7479876 0.104487784 0.6407378
v -0.7479876 -0.104487784 0.6407378
v -0.7479876 0.104487784 0.43176225
v -0.53901243 0.104487784 0.43176225
v -0.53901243 0.104487784 0.6407378
v -0.7479876 0.104487784 0.6407378
v -0.53901243 0.104487784 0.43176225
v -0.53901243 -0.104487784 0.43176225
v -0.53901243 -0.104487784 0.6407378
v -0.53901243 0.104487784 0.6407378
v -0.53901243 -0.104487784 0.43176225
v -0.7479876 -0.104487784 0.43176225
v -0.7479876 -0.104487784 0.6407378
v -0.53901243 -0.104487784 0.6407378
v -0.7479876 0.104487784 0.43176225
v -0.7479876 -0.104487784 0.43176225
v -0.53901243 -0.104487784 0.43176225
v -0.53901243 0.104487784 0.43176225
v -0.53901243 0.104487784 0.6407378
v -0.53901243 -0.104487784 0.6407378
v -0.7479876 -0.104487784 0.6407378
v -0.7479876 0.104487784 0.6407378
v -2.645741E-08 0.40276808 1.1832445
v -3.6544826E-08 0.33254564 1.2532645
v -0.12725975 0.30723214 1.2532645
v -0.15413271 0.37210923 1.1832445
v -0.08173191 0.19731823 1.3137175
v -1.7273587E-08 0.4547537 1.0590953
v 0.15413271 0.3721092 1.1832445
v 0.1740267 0.4201376 1.0590953
v 0.12725975 0.30723214 1.2532645
v -5.0489778E-08 0.21357569 1.3137175
v 0.081731886 0.19731821 1.3137175
v -1.4309391E-07 -0.21357569 1.3137175
v 0.17804934 0.42984906 0.9288113
v -1.5208723E-08 0.46526536 0.9288113
v 0.32899222 0.32899225 0.9288113
v -0.1740267 0.4201376 1.0590953
v -0.17804934 0.42984912 0.9288113
v 0.32155937 0.32155943 1.0590953
v 0.42984906 0.17804934 0.9288113
v -0.32155946 0.32155937 1.0590953
v -0.32899234 0.32899222 0.9288113
v -0.2848001 0.2848 1.1832445
v 0.28480002 0.28480005 1.1832445
v 0.12725975 0.30723214 1.2532645
v 0.4201376 0.17402668 1.0590953
v 0.4652653 -1.8008517E-08 0.9288113
v -0.42013758 0.1740268 1.0590953
v -0.42984906 0.17804943 0.9288113
v -0.23514538 0.23514524 1.2532645
v -0.12725975 0.30723214 1.2532645
v -0.15102088 0.15102082 1.3137175
v 0.45475364 -1.7355553E-08 1.0590953
v 0.42984906 -0.17804934 0.9288113
v -0.3721092 0.15413281 1.1832445
v -0.4547538 7.953583E-09 1.0590953
v -0.46526536 7.877108E-09 0.9288113
v 0.3721092 0.15413266 1.1832445
v 0.4201376 -0.17402668 1.0590953
v 0.32899222 -0.32899225 0.9288113
v -0.3072321 0.12725984 1.2532645
v -0.23514538 0.23514524 1.2532645
v -0.40276814 9.768528E-09 1.1832445
v -0.42013758 -0.17402677 1.0590953
v -0.42984906 -0.1780494 0.9288113
v 0.40276808 -1.6113127E-08 1.1832445
v 0.32155937 -0.32155943 1.0590953
v 0.17804934 -0.42984906 0.9288113
v -0.1973182 0.081732005 1.3137175
v -0.3721092 -0.15413277 1.1832445
v -0.32155943 -0.32155943 1.0590953
v -0.32899228 -0.32899228 0.9288113
v 0.3721092 -0.15413266 1.1832445
v -0.28480005 -0.28480005 1.1832445
v -0.1740267 -0.4201376 1.0590953
v -0.17804934 -0.42984906 0.9288113
v -0.15413266 -0.37210914 1.1832446
v -6.696677E-08 -0.4547537 1.0590953
v -5.588351E-08 -0.46526536 0.9288113
v -9.938647E-08 -0.40276808 1.1832445
v 0.1740267 -0.4201376 1.0590953
v 0.1541327 -0.37210923 1.1832445
v 0.28480005 -0.28480005 1.1832445
v -0.12725969 -0.3072321 1.2532647
v -0.23514529 -0.23514529 1.2532645
v -0.08173188 -0.19731821 1.3137175
v -0.15102084 -0.15102082 1.3137175
v -1.2430311E-07 -0.33254564 1.2532645
v -0.12725969 -0.3072321 1.2532647
v 0.12725973 -0.3072321 1.2532645
v -1.2430311E-07 -0.33254564 1.2532645
v 0.0817319 -0.19731821 1.3137175
v -0.1973182 -0.08173196 1.3137175
v -0.3072321 -0.12725979 1.2532645
v -0.23514529 -0.23514529 1.2532645
v -0.21357569 1.41383065E-08 1.3137175
v -0.33254564 1.1731971E-08 1.2532645
v 0.15102078 0.15102087 1.3137175
v 0.15102082 -0.15102082 1.3137175
v 0.12725973 -0.3072321 1.2532645
v 0.23514529 -0.23514529 1.2532645
v 0.23514524 0.23514529 1.2532645
v 0.3072321 0.12725969 1.2532645
v 0.1973182 -0.081731886 1.3137175
v 0.23514529 -0.23514529 1.2532645
v 0.30723214 -0.1272597 1.2532645
v 0.33254564 -1.4326072E-08 1.2532645
v 0.1973182 0.08173184 1.3137175
v 0.21357566 -1.0833589E-08 1.3137175
vt 0.0625 0.5
vt 0 0.5
vt 0 0.8534892
vt 0.0625 0.85348916
vt 0.125 0.5
vt 0.12499999 0.85348916
vt 0.1875 0.5
vt 0.1875 0.85348916
vt 0.25 0.5
vt 0.25 0.85348916
vt 0.3125 0.5
vt 0.3125 0.8534892
vt 0.375 0.5
vt 0.375 0.85348916
vt 0.4375 0.5
vt 0.4375 0.8534892
vt 0.5 0.5
vt 0.49999994 0.85348916
vt 0.5625 0.5
vt 0.5625 0.8534893
vt 0.625 0.5
vt 0.625 0.8534892
vt 0.6875 0.5
vt 0.6875 0.85348916
vt 0.75 0.5
vt 0.75 0.85348916
vt 0.8125 0.5
vt 0.8125 0.85348916
vt 0.875 0.5
vt 0.875 0.85348916
vt 0.9375 0.5
vt 0.9375 0.85348916
vt 1 0.5
vt 1 0.85348916
vt 0.97173107 0.15815598
vt 0.99 0.24999999
vt 0.97173107 0.34184402
vt 0.9197056 0.08029437
vt 0.9197056 0.41970563
vt 0.841844 0.028268918
vt 0.841844 0.47173107
vt 0.75 0.00999999
vt 0.75 0.49
vt 0.658156 0.4717311
vt 0.658156 0.028268918
vt 0.5802944 0.080294356
vt 0.5802944 0.4197056
vt 0.52826893 0.15815595
vt 0.52826893 0.34184408
vt 0.51 0.25
vt 0.7499999 0.875
vt 0.6875 0.875
vt 0.71874994 1
vt 0.75 0.75
vt 0.6875 0.75
vt 0.62499994 0.875
vt 0.65624994 1
vt 0.8124999 0.75
vt 0.81249994 0.875
vt 0.7812499 1
vt 0.75 0.625
vt 0.8124999 0.62500006
vt 0.625 0.75
vt 0.6875 0.625
vt 0.56249994 0.875
vt 0.59374994 1
vt 0.8749999 0.75
vt 0.8749999 0.625
vt 0.87499994 0.875
vt 0.84374994 1
vt 0.81249994 0.5
vt 0.74999994 0.5
vt 0.87499994 0.5
vt 0.625 0.625
vt 0.56249994 0.75
vt 0.6875 0.5
vt 0.49999994 0.875
vt 0.5312499 1
vt 0.8124999 0.375
vt 0.8749999 0.375
vt 0.75 0.375
vt 0.93749994 0.5
vt 0.93749994 0.375
vt 0.93749994 0.625
vt 0.93749994 0.75
vt 0.93749994 0.875
vt 0.90625 1
vt 1 0.5
vt 1 0.625
vt 1 0.375
vt 1 0.75
vt 1 0.875
vt 0.96875 1
vt 1 0.25
vt 0.93749994 0.25
vt 1 0.12500006
vt 0.93749994 0.12500006
vt 0.96874994 0
vt 0.8749999 0.25
vt 0.87499994 0.12500006
vt 0.90625 0
vt 0.8124999 0.25
vt 0.81249994 0.125
vt 0.84374994 0
vt 0.7499999 0.25
vt 0.6875 0.375
vt 0.75 0.12500006
vt 0.78124994 0
vt 0.6875 0.25
vt 0.625 0.5
vt 0.6875 0.12500006
vt 0.71875 0
vt 0.625 0.375
vt 0.5625 0.625
vt 0.625 0.25
vt 0.5625 0.5
vt 0.49999994 0.75
vt 0.62499994 0.12500006
vt 0.65624994 0
vt 0.5625 0.375
vt 0.49999997 0.625
vt 0.43749994 0.875
vt 0.4687499 1
vt 0.56249994 0.25
vt 0.49999997 0.5
vt 0.43749994 0.75
vt 0.56249994 0.12500006
vt 0.59374994 0
vt 0.49999997 0.375
vt 0.43749997 0.625
vt 0.37499994 0.875
vt 0.4062499 1
vt 0.49999994 0.25
vt 0.43749997 0.5
vt 0.37499994 0.75
vt 0.49999994 0.12500006
vt 0.53124994 0
vt 0.43749997 0.375
vt 0.37499994 0.625
vt 0.31249994 0.875
vt 0.34374994 1
vt 0.43749994 0.25
vt 0.37499997 0.5
vt 0.31249994 0.75
vt 0.43749994 0.12500006
vt 0.4687499 0
vt 0.37499997 0.375
vt 0.31249997 0.625
vt 0.24999997 0.875
vt 0.28124994 1
vt 0.37499994 0.25
vt 0.31249997 0.5
vt 0.24999994 0.75
vt 0.37499994 0.12500012
vt 0.4062499 0
vt 0.31249997 0.375
vt 0.24999997 0.625
vt 0.18749997 0.875
vt 0.21874997 1
vt 0.31249994 0.25
vt 0.24999997 0.5
vt 0.18749997 0.75
vt 0.31249994 0.12500006
vt 0.34374994 0
vt 0.24999997 0.375
vt 0.18749997 0.625
vt 0.12499997 0.875
vt 0.15624997 1
vt 0.24999994 0.25
vt 0.18749997 0.5
vt 0.12499997 0.75
vt 0.24999997 0.12500006
vt 0.28124994 0
vt 0.18749997 0.375
vt 0.12499997 0.625
vt 0.0625 0.875
vt 0.09375003 1
vt 0.18749997 0.25
vt 0.12499997 0.5
vt 0.06249994 0.75
vt 0 0.875
vt 0.03125 1
vt 0 0.75
vt 0.06249994 0.625
vt 0 0.625
vt 0.0625 0.5
vt 0 0.5
vt 0.12499997 0.375
vt 0.0625 0.375
vt 0 0.375
vt 0.12499997 0.25
vt 0.06249994 0.25
vt 0 0.25
vt 0.18749997 0.12500006
vt 0.21874997 0
vt 0.12499997 0.12500006
vt 0.15624997 0
vt 0.0625 0.12500006
vt 0.09375 0
vt 0 0.12500006
vt 0.03125 0
vt 0.375 0
vt 0.375 0.25
vt 0.625 0.25
vt 0.625 0
vt 0.375 0.25
vt 0.375 0.5
vt 0.625 0.5
vt 0.625 0.25
vt 0.375 0.5
vt 0.375 0.75
vt 0.625 0.75
vt 0.625 0.5
vt 0.375 0.75
vt 0.375 1
vt 0.625 1
vt 0.625 0.75
vt 0.125 0.5
vt 0.125 0.75
vt 0.375 0.75
vt 0.375 0.5
vt 0.625 0.5
vt 0.625 0.75
vt 0.875 0.75
vt 0.875 0.5
vt 0.375 0
vt 0.375 0.25
vt 0.625 0.25
vt 0.625 0
vt 0.375 0.25
vt 0.375 0.5
vt 0.625 0.5
vt 0.625 0.25
vt 0.375 0.5
vt 0.375 0.75
vt 0.625 0.75
vt 0.625 0.5
vt 0.375 0.75
vt 0.375 1
vt 0.625 1
vt 0.625 0.75
vt 0.125 0.5
vt 0.125 0.75
vt 0.375 0.75
vt 0.375 0.5
vt 0.625 0.5
vt 0.625 0.75
vt 0.875 0.75
vt 0.875 0.5
vt 0.24999994 0.48160303
vt 0.24999997 0.43745428
vt 0.17826429 0.42318523
vt 0.16136932 0.46397337
vt 0.19983572 0.37110725
vt 0.24999994 0.5356841
vt 0.33863068 0.4639733
vt 0.3593266 0.5139377
vt 0.32173568 0.42318523
vt 0.25 0.38108557
vt 0.30016428 0.37110728
vt 0.24999991 0.11891442
vt 0.37481946 0.5513409
vt 0.24999988 0.5761689
vt 0.48063624 0.4806363
vt 0.14067337 0.5139377
vt 0.12518047 0.5513408
vt 0.45200914 0.4520092
vt 0.5513409 0.37481952
vt 0.04799074 0.45200926
vt 0.019363571 0.48063642
vt 0.08623183 0.4137681
vt 0.4137681 0.41376817
vt 0.32173568 0.42318526
vt 0.5139377 0.35932663
vt 0.57616913 0.24999991
vt -0.013937773 0.35932672
vt -0.051340956 0.3748197
vt 0.117449716 0.38255024
vt 0.17826432 0.42318517
vt 0.15730852 0.3426915
vt 0.53568417 0.24999994
vt 0.55134094 0.1251805
vt 0.036026627 0.3386308
vt -0.03568425 0.25000006
vt -0.07616919 0.25000012
vt 0.46397334 0.33863068
vt 0.5139377 0.14067341
vt 0.48063618 0.019363632
vt 0.07681474 0.3217358
vt 0.11744972 0.3825502
vt 0.01839684 0.25000003
vt -0.013937801 0.1406734
vt -0.051340997 0.12518051
vt 0.4816032 0.24999996
vt 0.45200914 0.047990784
vt 0.3748193 -0.051340945
vt 0.12889275 0.30016437
vt 0.036026612 0.16136931
vt 0.04799077 0.047990758
vt 0.019363604 0.019363604
vt 0.46397343 0.16136932
vt 0.08623186 0.08623184
vt 0.14067332 -0.013937776
vt 0.12518041 -0.05134096
vt 0.16136931 0.036026664
vt 0.24999991 -0.035684213
vt 0.24999991 -0.0761691
vt 0.24999991 0.018396866
vt 0.35932654 -0.013937777
vt 0.33863065 0.03602659
vt 0.4137681 0.08623184
vt 0.17826432 0.076814756
vt 0.117449746 0.11744974
vt 0.19983576 0.12889275
vt 0.15730852 0.15730852
vt 0.24999993 0.06254562
vt 0.17826432 0.07681476
vt 0.3217357 0.07681473
vt 0.24999993 0.06254563
vt 0.3001643 0.1288927
vt 0.12889275 0.19983567
vt 0.07681474 0.17826428
vt 0.11744973 0.117449716
vt 0.11891443 0.25
vt 0.06254561 0.25
vt 0.3426915 0.34269154
vt 0.34269148 0.15730849
vt 0.32173574 0.07681472
vt 0.38255027 0.117449716
vt 0.3825502 0.38255024
vt 0.42318523 0.32173565
vt 0.37110728 0.19983572
vt 0.38255027 0.1174497
vt 0.4231853 0.17826432
vt 0.4374544 0.24999997
vt 0.3711073 0.30016425
vt 0.38108557 0.24999997
vn -0.38268352 0.9238795 0
vn -0 1 0
vn -0 0.9991979 0.04004408
vn -0.38237652 0.92313856 0.04004404
vn -0.70710677 0.7071067 0
vn -0.7065395 0.70653963 0.040043972
vn -0.92387944 0.38268358 0
vn -0.92313844 0.3823767 0.040043864
vn -1 0 0
vn -0.9991979 0 0.040043764
vn -0.92387944 -0.3826836 0
vn -0.92313844 -0.3823768 0.04004384
vn -0.70710665 -0.7071068 0
vn -0.7065395 -0.70653975 0.040043842
vn -0.38268355 -0.92387944 0
vn -0.38237655 -0.92313844 0.04004376
vn -0 -1 0
vn -0 -0.9991979 0.040043913
vn 0.38268363 -0.92387944 0
vn 0.38237664 -0.92313844 0.04004388
vn 0.70710677 -0.70710677 0
vn 0.7065395 -0.7065397 0.04004375
vn 0.92387944 -0.38268355 0
vn 0.92313844 -0.3823766 0.040043842
vn 1 0 0
vn 0.9991979 0 0.040043876
vn 0.92387944 0.38268355 0
vn 0.92313844 0.3823766 0.040043835
vn 0.70710677 0.70710677 0
vn 0.7065395 0.7065397 0.04004375
vn 0.38268363 0.92387944 0
vn 0.38237664 0.92313844 0.04004389
vn -0 1 0
vn -0 0.9991979 0.04004408
vn -0 0 -1
vn -0 0 -1
vn -0 0 -1
vn -0 0 -1
vn -0 0 -1
vn -0 0 -1
vn -0 0 -1
vn -0 0 -1
vn -0 0 -1
vn -0 0 -1
vn -0 0 -1
vn -0 0 -1
vn -0 0 -1
vn -0 0 -1
vn -0 0 -1
vn -0 0 -1
vn -0 0.40309104 0.9151599
vn 0.15425622 0.3724075 0.9151599
vn -0 0 1
vn -0 0.71885514 0.69516
vn 0.2750947 0.6641354 0.69515973
vn 0.28502777 0.2850285 0.91516006
vn -0 0 1
vn -0.2750942 0.6641357 0.6951596
vn -0.15425676 0.3724076 0.91515976
vn -0 0 1
vn -0 0.9272789 0.37437126
vn -0.35485393 0.8566941 0.37437126
vn 0.50830775 0.5083072 0.6951597
vn 0.35485438 0.8566939 0.3743715
vn 0.37240773 0.15425622 0.91515976
vn -0 0 1
vn -0.50830734 0.5083077 0.6951596
vn -0.65568477 0.65568554 0.3743714
vn -0.28502908 0.2850286 0.9151597
vn -0 0 1
vn -0.38268295 0.92387974 0
vn -0 1 0
vn -0.70710635 0.7071071 0
vn 0.65568537 0.6556849 0.37437144
vn 0.6641357 0.27509388 0.69515973
vn 0.38268328 0.9238796 0
vn 0.40309143 0 0.91515976
vn -0 0 1
vn -0.3548539 0.8566941 -0.37437123
vn -0.65568477 0.65568554 -0.3743713
vn -0 0.9272789 -0.37437123
vn -0.92387944 0.3826838 0
vn -0.8566938 0.35485464 -0.37437126
vn -0.85669357 0.35485482 0.37437162
vn -0.6641354 0.2750945 0.69515985
vn -0.37240836 0.1542565 0.91515946
vn -0 0 1
vn -1 0 0
vn -0.92727876 0 0.3743716
vn -0.9272789 0 -0.37437114
vn -0.71885526 0 0.69515985
vn -0.40309116 0 0.91515976
vn -0 0 1
vn -0.7188552 0 -0.69515985
vn -0.66413534 0.2750944 -0.69515985
vn -0.40309042 0 -0.9151602
vn -0.372407 0.15425639 -0.91516006
vn -0 0 -1
vn -0.5083072 0.50830775 -0.69515973
vn -0.28502792 0.28502843 -0.91516006
vn -0 0 -1
vn -0.27509385 0.66413563 -0.6951598
vn -0.15425591 0.37240738 -0.91516006
vn -0 0 -1
vn -0 0.7188552 -0.6951599
vn 0.35485432 0.856694 -0.37437132
vn -0 0.4030908 -0.91516
vn -0 0 -1
vn 0.27509418 0.6641356 -0.69515973
vn 0.7071069 0.70710665 0
vn 0.154256 0.37240732 -0.91516
vn -0 0 -1
vn 0.65568537 0.65568495 -0.37437132
vn 0.8566939 0.35485417 0.37437156
vn 0.50830746 0.5083073 -0.69515985
vn 0.9238795 0.38268328 0
vn 0.71885544 0 0.6951596
vn 0.28502795 0.2850283 -0.91516006
vn -0 0 -1
vn 0.8566941 0.35485402 -0.37437117
vn 0.92727876 0 0.37437156
vn 0.37240732 -0.15425639 0.91516
vn -0 0 1
vn 0.6641355 0.27509394 -0.69516003
vn 1 0 0
vn 0.6641358 -0.27509418 0.6951595
vn 0.37240654 0.1542562 -0.91516036
vn -0 0 -1
vn 0.9272789 0 -0.37437135
vn 0.8566939 -0.35485446 0.3743714
vn 0.2850279 -0.28502858 0.91516
vn -0 0 1
vn 0.7188552 0 -0.69515985
vn 0.92387944 -0.38268363 0
vn 0.5083072 -0.5083077 0.69515973
vn 0.4030905 0 -0.9151602
vn -0 0 -1
vn 0.8566939 -0.35485443 -0.37437135
vn 0.655685 -0.6556853 0.37437132
vn 0.15425636 -0.37240762 0.91515976
vn -0 0 1
vn 0.6641355 -0.2750941 -0.6951598
vn 0.7071066 -0.70710695 0
vn 0.27509367 -0.6641358 0.69515973
vn 0.37240663 -0.15425628 -0.9151603
vn -0 0 -1
vn 0.655685 -0.6556853 -0.37437117
vn 0.3548539 -0.8566941 0.37437144
vn -0 -0.40309113 0.91515976
vn -0 0 1
vn 0.5083073 -0.5083076 -0.6951598
vn 0.38268325 -0.9238796 0
vn -0 -0.71885526 0.69515973
vn 0.2850277 -0.28502834 -0.9151602
vn -0 0 -1
vn 0.35485414 -0.8566941 -0.37437123
vn -0 -0.9272789 0.3743714
vn -0.1542587 -0.37240744 0.91515946
vn -0 0 1
vn 0.27509397 -0.6641359 -0.6951596
vn -0 -1 0
vn -0.2750947 -0.66413546 0.6951597
vn 0.15425624 -0.37240744 -0.91516
vn -0 0 -1
vn -0 -0.9272789 -0.37437123
vn -0.35485458 -0.8566938 0.37437126
vn -0.2850303 -0.28502825 0.9151594
vn -0 0 1
vn -0 -0.7188554 -0.69515973
vn -0.38268387 -0.92387944 0
vn -0.5083079 -0.50830716 0.6951597
vn -0 -0.40309078 -0.91516
vn -0 0 -1
vn -0.35485464 -0.8566938 -0.3743712
vn -0.65568554 -0.6556848 0.37437123
vn -0.37240726 -0.15425615 0.91516
vn -0 0 1
vn -0.27509424 -0.66413563 -0.69515973
vn -0.707107 -0.7071065 0
vn -0.664136 -0.27509367 0.6951596
vn -0.40309116 0 0.91515976
vn -0 0 1
vn -0.71885526 0 0.69515985
vn -0.8566941 -0.35485402 0.37437135
vn -0.92727876 0 0.3743716
vn -0.9238796 -0.38268316 0
vn -1 0 0
vn -0.6556854 -0.65568495 -0.3743712
vn -0.8566941 -0.35485408 -0.37437135
vn -0.9272789 0 -0.37437114
vn -0.50830734 -0.5083073 -0.69515985
vn -0.6641355 -0.27509388 -0.69516003
vn -0.7188552 0 -0.69515985
vn -0.15425567 -0.37240732 -0.91516006
vn -0 0 -1
vn -0.28502786 -0.2850282 -0.9151602
vn -0 0 -1
vn -0.37240687 -0.154256 -0.9151602
vn -0 0 -1
vn -0.40309042 0 -0.9151602
vn -0 0 -1
vn -1 0 0
vn -1 0 0
vn -1 0 0
vn -1 0 0
vn -0 1 0
vn -0 1 0
vn -0 1 0
vn -0 1 0
vn 1 0 0
vn 1 0 0
vn 1 0 0
vn 1 0 0
vn -0 -1 0
vn -0 -1 0
vn -0 -1 0
vn -0 -1 0
vn -0 0 -1
vn -0 0 -1
vn -0 0 -1
vn -0 0 -1
vn -0 0 1
vn -0 0 1
vn -0 0 1
vn -0 0 1
vn -1 0 0
vn -1 0 0
vn -1 0 0
vn -1 0 0
vn -0 1 0
vn -0 1 0
vn -0 1 0
vn -0 1 0
vn 1 0 0
vn 1 0 0
vn 1 0 0
vn 1 0 0
vn -0 -1 0
vn -0 -1 0
vn -0 -1 0
vn -0 -1 0
vn -0 0 -1
vn -0 0 -1
vn -0 0 -1
vn -0 0 -1
vn -0 0 1
vn -0 0 1
vn -0 0 1
vn -0 0 1
vn -0 0.8372136 0.546876
vn -0 0.5992473 0.800564
vn -0.22932202 0.5536324 0.80056393
vn -0.32038784 0.7734846 0.5468759
vn -0.09951555 0.2402521 0.96559596
vn -0 0.9727376 0.23190849
vn 0.32038772 0.77348435 0.54687613
vn 0.37225077 0.8986923 0.23190829
vn 0.22932169 0.5536324 0.80056405
vn -0 0.260047 0.96559596
vn 0.09951556 0.24025217 0.96559596
vn -0 -0.26004693 0.96559596
vn 0.38237664 0.92313844 0.04004389
vn -0 0.9991979 0.04004408
vn 0.7065395 0.7065397 0.04004375
vn -0.37225056 0.8986924 0.23190841
vn -0.38237652 0.92313856 0.04004404
vn 0.6878293 0.6878295 0.23190828
vn 0.92313844 0.3823766 0.040043835
vn -0.6878293 0.6878295 0.2319083
vn -0.7065395 0.70653963 0.040043972
vn -0.5919994 0.5919994 0.546876
vn 0.5919994 0.5919993 0.54687613
vn 0.22932169 0.5536324 0.80056405
vn 0.8986923 0.37225062 0.23190835
vn 0.9991979 0 0.040043876
vn -0.8986923 0.37225083 0.23190832
vn -0.92313844 0.3823767 0.040043864
vn -0.42373186 0.42373183 0.800564
vn -0.22932202 0.5536324 0.80056393
vn -0.18388103 0.1838811 0.96559596
vn 0.9727377 0 0.2319083
vn 0.92313844 -0.3823766 0.040043842
vn -0.77348435 0.32038793 0.5468761
vn -0.9727377 0 0.23190834
vn -0.9991979 0 0.040043764
vn 0.77348465 0.32038775 0.54687595
vn 0.8986924 -0.37225062 0.2319083
vn 0.7065395 -0.7065397 0.04004375
vn -0.55363226 0.229322 0.800564
vn -0.42373186 0.42373183 0.800564
vn -0.8372135 0 0.54687613
vn -0.89869225 -0.37225097 0.23190847
vn -0.92313844 -0.3823768 0.04004384
vn 0.8372136 0 0.54687595
vn 0.68782926 -0.68782955 0.23190826
vn 0.38237664 -0.92313844 0.04004388
vn -0.2402521 0.09951568 0.96559596
vn -0.77348435 -0.32038796 0.5468762
vn -0.6878292 -0.68782955 0.23190837
vn -0.7065395 -0.70653975 0.040043842
vn 0.7734844 -0.32038784 0.54687613
vn -0.5919993 -0.5919995 0.54687613
vn -0.3722506 -0.8986924 0.23190832
vn -0.38237655 -0.92313844 0.04004376
vn -0.32038784 -0.77348435 0.54687613
vn -0 -0.9727376 0.23190835
vn -0 -0.9991979 0.040043913
vn -0 -0.8372137 0.546876
vn 0.37225047 -0.8986924 0.2319083
vn 0.32038766 -0.77348447 0.54687613
vn 0.59199935 -0.59199935 0.5468761
vn -0.22932197 -0.5536322 0.80056405
vn -0.42373186 -0.42373177 0.800564
vn -0.09951539 -0.24025185 0.9655961
vn -0.18388098 -0.18388094 0.9655961
vn -0 -0.5992474 0.80056393
vn -0.22932197 -0.5536322 0.80056405
vn 0.22932224 -0.55363226 0.800564
vn -0 -0.5992474 0.80056393
vn 0.09951596 -0.24025214 0.96559596
vn -0.24025205 -0.09951572 0.96559596
vn -0.5536324 -0.2293221 0.800564
vn -0.42373186 -0.42373177 0.800564
vn -0.2600468 0 0.9655961
vn -0.5992472 0 0.800564
vn 0.18388085 0.18388109 0.96559596
vn 0.18388127 -0.18388097 0.96559596
vn 0.22932224 -0.55363226 0.800564
vn 0.42373213 -0.42373168 0.80056393
vn 0.4237317 0.42373183 0.800564
vn 0.55363244 0.22932196 0.800564
vn 0.24025217 -0.09951566 0.96559596
vn 0.42373213 -0.42373168 0.80056393
vn 0.5536322 -0.22932203 0.80056405
vn 0.5992472 0 0.800564
vn 0.24025182 0.09951567 0.9655961
vn 0.26004684 0 0.9655961
g Player Unit Base_0
f 3/3/3 2/2/2 1/1/1
f 4/4/4 3/3/3 1/1/1
f 4/4/4 1/1/1 5/5/5
f 6/6/6 4/4/4 5/5/5
f 6/6/6 5/5/5 7/7/7
f 8/8/8 6/6/6 7/7/7
f 8/8/8 7/7/7 9/9/9
f 10/10/10 8/8/8 9/9/9
f 10/10/10 9/9/9 11/11/11
f 12/12/12 10/10/10 11/11/11
f 12/12/12 11/11/11 13/13/13
f 14/14/14 12/12/12 13/13/13
f 14/14/14 13/13/13 15/15/15
f 16/16/16 14/14/14 15/15/15
f 16/16/16 15/15/15 17/17/17
f 18/18/18 16/16/16 17/17/17
f 18/18/18 17/17/17 19/19/19
f 20/20/20 18/18/18 19/19/19
f 20/20/20 19/19/19 21/21/21
f 22/22/22 20/20/20 21/21/21
f 22/22/22 21/21/21 23/23/23
f 24/24/24 22/22/22 23/23/23
f 24/24/24 23/23/23 25/25/25
f 26/26/26 24/24/24 25/25/25
f 26/26/26 25/25/25 27/27/27
f 28/28/28 26/26/26 27/27/27
f 28/28/28 27/27/27 29/29/29
f 30/30/30 28/28/28 29/29/29
f 30/30/30 29/29/29 31/31/31
f 32/32/32 30/30/30 31/31/31
f 32/32/32 31/31/31 33/33/33
f 34/34/34 32/32/32 33/33/33
f 37/37/37 36/36/36 35/35/35
f 35/35/35 38/38/38 37/37/37
f 38/38/38 39/39/39 37/37/37
f 38/38/38 40/40/40 39/39/39
f 40/40/40 41/41/41 39/39/39
f 40/40/40 42/42/42 41/41/41
f 42/42/42 43/43/43 41/41/41
f 42/42/42 44/44/44 43/43/43
f 42/42/42 45/45/45 44/44/44
f 45/45/45 46/46/46 44/44/44
f 46/46/46 47/47/47 44/44/44
f 46/46/46 48/48/48 47/47/47
f 48/48/48 49/49/49 47/47/47
f 48/48/48 50/50/50 49/49/49
f 53/53/53 52/52/52 51/51/51
f 51/51/51 52/52/52 54/54/54
f 52/52/52 55/55/55 54/54/54
f 52/52/52 56/56/56 55/55/55
f 57/57/57 56/56/56 52/52/52
f 51/51/51 54/54/54 58/58/58
f 59/59/59 51/51/51 58/58/58
f 60/60/60 51/51/51 59/59/59
f 54/54/54 55/55/55 61/61/61
f 58/58/58 54/54/54 62/62/62
f 54/54/54 61/61/61 62/62/62
f 56/56/56 63/63/63 55/55/55
f 55/55/55 64/64/64 61/61/61
f 55/55/55 63/63/63 64/64/64
f 56/56/56 65/65/65 63/63/63
f 66/66/66 65/65/65 56/56/56
f 59/59/59 58/58/58 67/67/67
f 58/58/58 62/62/62 68/68/68
f 67/67/67 58/58/58 68/68/68
f 69/69/69 59/59/59 67/67/67
f 70/70/70 59/59/59 69/69/69
f 62/62/62 61/61/61 71/71/71
f 61/61/61 64/64/64 72/72/72
f 61/61/61 72/72/72 71/71/71
f 68/68/68 62/62/62 73/73/73
f 62/62/62 71/71/71 73/73/73
f 63/63/63 74/74/74 64/64/64
f 65/65/65 75/75/75 63/63/63
f 63/63/63 75/75/75 74/74/74
f 64/64/64 76/76/76 72/72/72
f 64/64/64 74/74/74 76/76/76
f 65/65/65 77/77/77 75/75/75
f 78/78/78 77/77/77 65/65/65
f 71/71/71 72/72/72 79/79/79
f 73/73/73 71/71/71 80/80/80
f 71/71/71 79/79/79 80/80/80
f 72/72/72 76/76/76 81/81/81
f 72/72/72 81/81/81 79/79/79
f 68/68/68 73/73/73 82/82/82
f 73/73/73 80/80/80 83/83/83
f 82/82/82 73/73/73 83/83/83
f 84/84/84 68/68/68 82/82/82
f 67/67/67 68/68/68 84/84/84
f 85/85/85 67/67/67 84/84/84
f 69/69/69 67/67/67 85/85/85
f 86/86/86 69/69/69 85/85/85
f 87/87/87 69/69/69 86/86/86
f 84/84/84 82/82/82 88/88/88
f 89/89/89 84/84/84 88/88/88
f 85/85/85 84/84/84 89/89/89
f 88/88/88 82/82/82 90/90/90
f 82/82/82 83/83/83 90/90/90
f 91/91/91 85/85/85 89/89/89
f 86/86/86 85/85/85 91/91/91
f 92/92/92 86/86/86 91/91/91
f 93/93/93 86/86/86 92/92/92
f 90/90/90 83/83/83 94/94/94
f 83/83/83 95/95/95 94/94/94
f 94/94/94 95/95/95 96/96/96
f 83/83/83 80/80/80 95/95/95
f 95/95/95 97/97/97 96/96/96
f 96/96/96 97/97/97 98/98/98
f 80/80/80 99/99/99 95/95/95
f 95/95/95 99/99/99 97/97/97
f 80/80/80 79/79/79 99/99/99
f 99/99/99 100/100/100 97/97/97
f 97/97/97 100/100/100 101/101/101
f 79/79/79 102/102/102 99/99/99
f 99/99/99 102/102/102 100/100/100
f 79/79/79 81/81/81 102/102/102
f 102/102/102 103/103/103 100/100/100
f 100/100/100 103/103/103 104/104/104
f 81/81/81 105/105/105 102/102/102
f 102/102/102 105/105/105 103/103/103
f 81/81/81 106/106/106 105/105/105
f 76/76/76 106/106/106 81/81/81
f 105/105/105 107/107/107 103/103/103
f 103/103/103 107/107/107 108/108/108
f 105/105/105 109/109/109 107/107/107
f 106/106/106 109/109/109 105/105/105
f 76/76/76 110/110/110 106/106/106
f 74/74/74 110/110/110 76/76/76
f 109/109/109 111/111/111 107/107/107
f 107/107/107 111/111/111 112/112/112
f 106/106/106 113/113/113 109/109/109
f 110/110/110 113/113/113 106/106/106
f 74/74/74 114/114/114 110/110/110
f 75/75/75 114/114/114 74/74/74
f 109/109/109 115/115/115 111/111/111
f 113/113/113 115/115/115 109/109/109
f 110/110/110 116/116/116 113/113/113
f 114/114/114 116/116/116 110/110/110
f 75/75/75 117/117/117 114/114/114
f 77/77/77 117/117/117 75/75/75
f 115/115/115 118/118/118 111/111/111
f 111/111/111 118/118/118 119/119/119
f 113/113/113 120/120/120 115/115/115
f 116/116/116 120/120/120 113/113/113
f 114/114/114 121/121/121 116/116/116
f 117/117/117 121/121/121 114/114/114
f 77/77/77 122/122/122 117/117/117
f 123/123/123 122/122/122 77/77/77
f 115/115/115 124/124/124 118/118/118
f 120/120/120 124/124/124 115/115/115
f 116/116/116 125/125/125 120/120/120
f 121/121/121 125/125/125 116/116/116
f 117/117/117 126/126/126 121/121/121
f 122/122/122 126/126/126 117/117/117
f 124/124/124 127/127/127 118/118/118
f 118/118/118 127/127/127 128/128/128
f 120/120/120 129/129/129 124/124/124
f 125/125/125 129/129/129 120/120/120
f 121/121/121 130/130/130 125/125/125
f 126/126/126 130/130/130 121/121/121
f 122/122/122 131/131/131 126/126/126
f 132/132/132 131/131/131 122/122/122
f 124/124/124 133/133/133 127/127/127
f 129/129/129 133/133/133 124/124/124
f 125/125/125 134/134/134 129/129/129
f 130/130/130 134/134/134 125/125/125
f 131/131/131 135/135/135 126/126/126
f 126/126/126 135/135/135 130/130/130
f 133/133/133 136/136/136 127/127/127
f 127/127/127 136/136/136 137/137/137
f 129/129/129 138/138/138 133/133/133
f 134/134/134 138/138/138 129/129/129
f 130/130/130 139/139/139 134/134/134
f 135/135/135 139/139/139 130/130/130
f 131/131/131 140/140/140 135/135/135
f 141/141/141 140/140/140 131/131/131
f 133/133/133 142/142/142 136/136/136
f 138/138/138 142/142/142 133/133/133
f 134/134/134 143/143/143 138/138/138
f 139/139/139 143/143/143 134/134/134
f 140/140/140 144/144/144 135/135/135
f 135/135/135 144/144/144 139/139/139
f 142/142/142 145/145/145 136/136/136
f 136/136/136 145/145/145 146/146/146
f 138/138/138 147/147/147 142/142/142
f 143/143/143 147/147/147 138/138/138
f 139/139/139 148/148/148 143/143/143
f 144/144/144 148/148/148 139/139/139
f 140/140/140 149/149/149 144/144/144
f 150/150/150 149/149/149 140/140/140
f 142/142/142 151/151/151 145/145/145
f 147/147/147 151/151/151 142/142/142
f 143/143/143 152/152/152 147/147/147
f 148/148/148 152/152/152 143/143/143
f 144/144/144 153/153/153 148/148/148
f 149/149/149 153/153/153 144/144/144
f 151/151/151 154/154/154 145/145/145
f 145/145/145 154/154/154 155/155/155
f 147/147/147 156/156/156 151/151/151
f 152/152/152 156/156/156 147/147/147
f 148/148/148 157/157/157 152/152/152
f 153/153/153 157/157/157 148/148/148
f 149/149/149 158/158/158 153/153/153
f 159/159/159 158/158/158 149/149/149
f 151/151/151 160/160/160 154/154/154
f 156/156/156 160/160/160 151/151/151
f 152/152/152 161/161/161 156/156/156
f 157/157/157 161/161/161 152/152/152
f 153/153/153 162/162/162 157/157/157
f 158/158/158 162/162/162 153/153/153
f 160/160/160 163/163/163 154/154/154
f 154/154/154 163/163/163 164/164/164
f 156/156/156 165/165/165 160/160/160
f 161/161/161 165/165/165 156/156/156
f 157/157/157 166/166/166 161/161/161
f 162/162/162 166/166/166 157/157/157
f 158/158/158 167/167/167 162/162/162
f 168/168/168 167/167/167 158/158/158
f 160/160/160 169/169/169 163/163/163
f 165/165/165 169/169/169 160/160/160
f 161/161/161 170/170/170 165/165/165
f 166/166/166 170/170/170 161/161/161
f 167/167/167 171/171/171 162/162/162
f 162/162/162 171/171/171 166/166/166
f 169/169/169 172/172/172 163/163/163
f 163/163/163 172/172/172 173/173/173
f 165/165/165 174/174/174 169/169/169
f 170/170/170 174/174/174 165/165/165
f 166/166/166 175/175/175 170/170/170
f 171/171/171 175/175/175 166/166/166
f 167/167/167 176/176/176 171/171/171
f 177/177/177 176/176/176 167/167/167
f 169/169/169 178/178/178 172/172/172
f 174/174/174 178/178/178 169/169/169
f 170/170/170 179/179/179 174/174/174
f 175/175/175 179/179/179 170/170/170
f 176/176/176 180/180/180 171/171/171
f 171/171/171 180/180/180 175/175/175
f 176/176/176 181/181/181 180/180/180
f 182/182/182 181/181/181 176/176/176
f 181/181/181 183/183/183 180/180/180
f 180/180/180 184/184/184 175/175/175
f 180/180/180 183/183/183 184/184/184
f 175/175/175 184/184/184 179/179/179
f 183/183/183 185/185/185 184/184/184
f 184/184/184 185/185/185 186/186/186
f 184/184/184 186/186/186 179/179/179
f 185/185/185 187/187/187 186/186/186
f 179/179/179 188/188/188 174/174/174
f 179/179/179 186/186/186 188/188/188
f 174/174/174 188/188/188 178/178/178
f 186/186/186 187/187/187 189/189/189
f 186/186/186 189/189/189 188/188/188
f 187/187/187 190/190/190 189/189/189
f 188/188/188 191/191/191 178/178/178
f 188/188/188 189/189/189 191/191/191
f 189/189/189 190/190/190 192/192/192
f 189/189/189 192/192/192 191/191/191
f 190/190/190 193/193/193 192/192/192
f 178/178/178 191/191/191 194/194/194
f 178/178/178 194/194/194 172/172/172
f 172/172/172 194/194/194 195/195/195
f 191/191/191 196/196/196 194/194/194
f 191/191/191 192/192/192 196/196/196
f 194/194/194 196/196/196 197/197/197
f 192/192/192 193/193/193 198/198/198
f 192/192/192 198/198/198 196/196/196
f 196/196/196 198/198/198 199/199/199
f 193/193/193 200/200/200 198/198/198
f 198/198/198 200/200/200 201/201/201
f 204/204/204 203/203/203 202/202/202
f 205/205/205 204/204/204 202/202/202
f 208/208/208 207/207/207 206/206/206
f 209/209/209 208/208/208 206/206/206
f 212/212/212 211/211/211 210/210/210
f 213/213/213 212/212/212 210/210/210
f 216/216/216 215/215/215 214/214/214
f 217/217/217 216/216/216 214/214/214
f 220/220/220 219/219/219 218/218/218
f 221/221/221 220/220/220 218/218/218
f 224/224/224 223/223/223 222/222/222
f 225/225/225 224/224/224 222/222/222
f 228/228/228 227/227/227 226/226/226
f 229/229/229 228/228/228 226/226/226
f 232/232/232 231/231/231 230/230/230
f 233/233/233 232/232/232 230/230/230
f 236/236/236 235/235/235 234/234/234
f 237/237/237 236/236/236 234/234/234
f 240/240/240 239/239/239 238/238/238
f 241/241/241 240/240/240 238/238/238
f 244/244/244 243/243/243 242/242/242
f 245/245/245 244/244/244 242/242/242
f 248/248/248 247/247/247 246/246/246
f 249/249/249 248/248/248 246/246/246
f 252/252/252 251/251/251 250/250/250
f 253/253/253 252/252/252 250/250/250
f 251/251/251 252/252/252 254/254/254
f 250/250/250 255/255/255 253/253/253
f 250/250/250 251/251/251 256/256/256
f 257/257/257 255/255/255 250/250/250
f 256/256/256 257/257/257 250/250/250
f 251/251/251 258/258/258 256/256/256
f 258/258/258 251/251/251 259/259/259
f 259/259/259 251/251/251 254/254/254
f 260/260/260 258/258/258 259/259/259
f 259/259/259 254/254/254 261/261/261
f 260/260/260 259/259/259 261/261/261
f 255/255/255 257/257/257 262/262/262
f 263/263/263 255/255/255 262/262/262
f 262/262/262 257/257/257 264/264/264
f 265/265/265 255/255/255 263/263/263
f 255/255/255 265/265/265 253/253/253
f 266/266/266 265/265/265 263/263/263
f 257/257/257 267/267/267 264/264/264
f 267/267/267 257/257/257 256/256/256
f 264/264/264 267/267/267 268/268/268
f 269/269/269 265/265/265 266/266/266
f 270/270/270 269/269/269 266/266/266
f 253/253/253 265/265/265 271/271/271
f 265/265/265 269/269/269 271/271/271
f 272/272/272 267/267/267 256/256/256
f 256/256/256 273/273/273 272/272/272
f 267/267/267 274/274/274 268/268/268
f 274/274/274 267/267/267 272/272/272
f 268/268/268 274/274/274 275/275/275
f 276/276/276 269/269/269 270/270/270
f 277/277/277 276/276/276 270/270/270
f 271/271/271 278/278/278 253/253/253
f 278/278/278 279/279/279 253/253/253
f 279/279/279 278/278/278 280/280/280
f 254/254/254 279/279/279 280/280/280
f 274/274/274 281/281/281 275/275/275
f 275/275/275 281/281/281 282/282/282
f 271/271/271 269/269/269 283/283/283
f 269/269/269 276/276/276 283/283/283
f 284/284/284 276/276/276 277/277/277
f 285/285/285 284/284/284 277/277/277
f 281/281/281 274/274/274 286/286/286
f 286/286/286 274/274/274 272/272/272
f 281/281/281 287/287/287 282/282/282
f 282/282/282 287/287/287 288/288/288
f 283/283/283 289/289/289 271/271/271
f 289/289/289 290/290/290 271/271/271
f 283/283/283 276/276/276 291/291/291
f 276/276/276 284/284/284 291/291/291
f 292/292/292 284/284/284 285/285/285
f 293/293/293 292/292/292 285/285/285
f 294/294/294 281/281/281 286/286/286
f 287/287/287 281/281/281 294/294/294
f 287/287/287 295/295/295 288/288/288
f 288/288/288 295/295/295 296/296/296
f 290/290/290 289/289/289 297/297/297
f 280/280/280 290/290/290 297/297/297
f 284/284/284 292/292/292 298/298/298
f 291/291/291 284/284/284 298/298/298
f 299/299/299 292/292/292 293/293/293
f 300/300/300 299/299/299 293/293/293
f 295/295/295 287/287/287 301/301/301
f 301/301/301 287/287/287 294/294/294
f 298/298/298 292/292/292 302/302/302
f 292/292/292 299/299/299 302/302/302
f 303/303/303 299/299/299 300/300/300
f 304/304/304 303/303/303 300/300/300
f 302/302/302 299/299/299 305/305/305
f 299/299/299 303/303/303 305/305/305
f 306/306/306 303/303/303 304/304/304
f 307/307/307 306/306/306 304/304/304
f 305/305/305 303/303/303 308/308/308
f 303/303/303 306/306/306 308/308/308
f 309/309/309 306/306/306 307/307/307
f 296/296/296 309/309/309 307/307/307
f 295/295/295 309/309/309 296/296/296
f 306/306/306 309/309/309 310/310/310
f 308/308/308 306/306/306 310/310/310
f 309/309/309 295/295/295 311/311/311
f 310/310/310 309/309/309 311/311/311
f 311/311/311 295/295/295 301/301/301
f 305/305/305 312/312/312 302/302/302
f 312/312/312 313/313/313 302/302/302
f 313/313/313 312/312/312 314/314/314
f 315/315/315 313/313/313 314/314/314
f 308/308/308 316/316/316 305/305/305
f 316/316/316 317/317/317 305/305/305
f 317/317/317 316/316/316 261/261/261
f 314/314/314 317/317/317 261/261/261
f 310/310/310 318/318/318 308/308/308
f 318/318/318 319/319/319 308/308/308
f 319/319/319 318/318/318 320/320/320
f 261/261/261 319/319/319 320/320/320
f 254/254/254 314/314/314 261/261/261
f 254/254/254 315/315/315 314/314/314
f 254/254/254 280/280/280 315/315/315
f 260/260/260 261/261/261 320/320/320
f 280/280/280 321/321/321 315/315/315
f 280/280/280 297/297/297 321/321/321
f 321/321/321 322/322/322 315/315/315
f 322/322/322 323/323/323 315/315/315
f 297/297/297 324/324/324 321/321/321
f 297/297/297 289/289/289 324/324/324
f 324/324/324 325/325/325 321/321/321
f 289/289/289 325/325/325 324/324/324
f 325/325/325 322/322/322 321/321/321
f 325/325/325 289/289/289 283/283/283
f 291/291/291 325/325/325 283/283/283
f 322/322/322 325/325/325 291/291/291
f 298/298/298 322/322/322 291/291/291
f 323/323/323 322/322/322 298/298/298
f 302/302/302 323/323/323 298/298/298
f 326/326/326 260/260/260 320/320/320
f 326/326/326 320/320/320 327/327/327
f 320/320/320 328/328/328 327/327/327
f 328/328/328 329/329/329 327/327/327
f 329/329/329 328/328/328 310/310/310
f 311/311/311 329/329/329 310/310/310
f 326/326/326 330/330/330 260/260/260
f 330/330/330 273/273/273 260/260/260
f 273/273/273 330/330/330 272/272/272
f 272/272/272 330/330/330 286/286/286
f 330/330/330 331/331/331 286/286/286
f 331/331/331 330/330/330 326/326/326
f 286/286/286 331/331/331 294/294/294
f 326/326/326 327/327/327 332/332/332
f 327/327/327 333/333/333 332/332/332
f 334/334/334 333/333/333 311/311/311
f 333/333/333 334/334/334 332/332/332
f 301/301/301 334/334/334 311/311/311
f 294/294/294 335/335/335 301/301/301
f 331/331/331 335/335/335 294/294/294
f 335/335/335 334/334/334 301/301/301
f 336/336/336 331/331/331 326/326/326
f 336/336/336 326/326/326 332/332/332
f 335/335/335 331/331/331 336/336/336
f 334/334/334 335/335/335 337/337/337
f 332/332/332 334/334/334 337/337/337
f 332/332/332 337/337/337 336/336/336
f 337/337/337 335/335/335 336/336/336
