g Potion Vial A
v 7.572518E-08 0.13163036 0.3436622
v 0.06581523 0.11399524 0.3436622
v 5.009767E-08 0 0.5291508
v 8.213206E-08 0.24322116 0.24762453
v 0.12161065 0.21063574 0.24762453
v 0.11399529 0.06581518 0.3436622
v 5.009767E-08 0 0.5291508
v -0.12161051 0.21063574 0.24762453
v -0.0658151 0.11399524 0.3436622
v 5.009767E-08 0 0.5291508
v 5.009767E-08 0.3177838 0.13434218
v -0.15889175 0.27520883 0.13434218
v 0.21063578 0.12161058 0.24762453
v 0.15889195 0.27520883 0.13434218
v 0.1316304 -6.4068786E-09 0.3436622
v 5.009767E-08 0 0.5291508
v -0.21063565 0.12161061 0.24762453
v -0.2752087 0.15889192 0.13434218
v -0.113995165 0.065815195 0.3436622
v 5.009767E-08 0 0.5291508
v -0.24322112 3.2034393E-08 0.24762453
v -0.1316303 2.5627514E-08 0.3436622
v 5.009767E-08 0 0.5291508
v -0.31778368 6.4068786E-08 0.13434218
v -0.3439666 3.844127E-08 0.00071651116
v -0.29788378 0.17198336 0.00071651116
v -0.31778368 6.4068786E-08 -0.13290915
v -0.17198323 0.29788387 0.00071651116
v -0.2752087 0.15889192 -0.13290915
v -0.24322112 3.2034393E-08 -0.2461915
v 1.013527E-07 0.34396663 0.00071651116
v -0.21063565 0.12161061 -0.2461915
v -0.1316303 2.5627514E-08 -0.32188433
v -0.15889175 0.27520883 -0.13290915
v -0.113995165 0.065815195 -0.32188433
v 5.009767E-08 0 -0.34846413
v -0.12161051 0.21063574 -0.2461915
v 1.2698023E-07 0.3177837 -0.13290915
v 0.1719834 0.2978839 0.00071651116
v -0.0658151 0.11399524 -0.32188433
v 5.009767E-08 0 -0.34846413
v 8.213206E-08 0.24322116 -0.2461915
v 0.27520886 0.15889189 0.13434218
v 0.15889195 0.27520883 -0.13290915
v 5.009767E-08 0.13163036 -0.32188433
v 5.009767E-08 0 -0.34846413
v 0.12161065 0.21063574 -0.2461915
v 0.29788396 0.17198335 0.00071651116
v 0.24322122 -1.2813757E-08 0.24762453
v 0.06581523 0.11399524 -0.32188433
v 5.009767E-08 0 -0.34846413
v 0.27520886 0.15889189 -0.13290915
v 0.3177838 -1.2813757E-08 0.13434218
v 0.11399528 -0.06581518 0.3436622
v 5.009767E-08 0 0.5291508
v 0.21063578 0.12161058 -0.2461915
v 0.34396672 -1.2813757E-08 0.00071651116
v 0.21063575 -0.1216106 0.24762453
v 0.11399529 0.06581518 -0.32188433
v 5.009767E-08 0 -0.34846413
v 0.3177838 -1.2813757E-08 -0.13290915
v 0.27520883 -0.1588919 0.13434218
v 0.06581522 -0.11399524 0.3436622
v 5.009767E-08 0 0.5291508
v 0.24322122 -1.2813757E-08 -0.2461915
v 0.29788393 -0.17198335 0.00071651116
v 0.12161061 -0.21063572 0.24762453
v 0.1316304 -6.4068786E-09 -0.32188433
v 5.009767E-08 0 -0.34846413
v 0.27520883 -0.1588919 -0.13290915
v 0.1588919 -0.27520883 0.13434218
v 3.0877032E-08 -0.13163036 0.3436622
v 5.009767E-08 0 0.5291508
v 0.21063575 -0.1216106 -0.2461915
v 0.17198336 -0.2978839 0.00071651116
v 2.4470154E-08 -0.24322116 0.24762453
v 0.11399528 -0.06581518 -0.32188433
v 5.009767E-08 0 -0.34846413
v 0.1588919 -0.27520883 -0.13290915
v 2.4470154E-08 -0.31778377 0.13434218
v -0.06581514 -0.11399522 0.3436622
v 5.009767E-08 0 0.5291508
v 0.12161061 -0.21063572 -0.2461915
v 2.4470154E-08 -0.3439667 0.00071651116
v -0.12161056 -0.21063569 0.24762453
v 0.06581522 -0.11399524 -0.32188433
v 5.009767E-08 0 -0.34846413
v 2.4470154E-08 -0.31778377 -0.13290915
v -0.15889186 -0.27520877 0.13434218
v -0.11399519 -0.06581515 0.3436622
v 5.009767E-08 0 0.5291508
v 2.4470154E-08 -0.24322116 -0.2461915
v -0.17198332 -0.29788384 0.00071651116
v -0.21063568 -0.12161056 0.24762453
v -0.1316303 2.5627514E-08 0.3436622
v 5.009767E-08 0 0.5291508
v -0.24322112 3.2034393E-08 0.24762453
v -0.27520877 -0.15889181 0.13434218
v -0.31778368 6.4068786E-08 0.13434218
v -0.29788384 -0.1719833 0.00071651116
v -0.3439666 3.844127E-08 0.00071651116
v -0.15889186 -0.27520877 -0.13290915
v -0.27520877 -0.15889181 -0.13290915
v -0.31778368 6.4068786E-08 -0.13290915
v -0.12161056 -0.21063569 -0.2461915
v -0.21063568 -0.12161056 -0.2461915
v -0.24322112 3.2034393E-08 -0.2461915
v 3.0877032E-08 -0.13163036 -0.32188433
v 5.009767E-08 0 -0.34846413
v -0.06581514 -0.11399522 -0.32188433
v 5.009767E-08 0 -0.34846413
v -0.11399519 -0.06581515 -0.32188433
v 5.009767E-08 0 -0.34846413
v -0.1316303 2.5627514E-08 -0.32188433
v 5.009767E-08 0 -0.34846413
v 1.5004004E-07 0.12090742 0.64156616
v 0.08549451 0.08549447 0.8035487
v 1.5004004E-07 0.12090742 0.8035487
v 0.08549451 0.08549447 0.64156616
v 0.120907456 9.0488044E-08 0.8035487
v 0.120907456 9.0488044E-08 0.64156616
v 0.08549451 -0.085494295 0.8035487
v 0.08549451 -0.085494295 0.64156616
v 1.5004004E-07 -0.12090723 0.8035487
v 1.5004004E-07 -0.12090723 0.64156616
v -0.08549422 -0.085494295 0.8035487
v -0.08549422 -0.085494295 0.64156616
v -0.12090716 9.0488044E-08 0.8035487
v -0.12090716 9.0488044E-08 0.64156616
v -0.08549422 0.08549447 0.8035487
v -0.08549422 0.08549447 0.64156616
v 1.5004004E-07 0.12090742 0.8035487
v 1.5004004E-07 0.12090742 0.64156616
v 0.08549451 0.08549447 0.8035487
v 0.120907456 9.0488044E-08 0.8035487
v 0.08549451 -0.085494295 0.8035487
v 1.5004004E-07 0.12090742 0.8035487
v 1.5004004E-07 -0.12090723 0.8035487
v -0.08549422 0.08549447 0.8035487
v -0.08549422 -0.085494295 0.8035487
v -0.12090716 9.0488044E-08 0.8035487
v 0.08549451 -0.085494295 0.34681424
v 0.120907456 9.0488044E-08 0.34681424
v 0.08549451 0.08549447 0.34681424
v 1.5004004E-07 -0.12090723 0.34681424
v 1.5004004E-07 0.12090742 0.34681424
v -0.08549422 -0.085494295 0.34681424
v -0.08549422 0.08549447 0.34681424
v -0.12090716 9.0488044E-08 0.34681424
v -0.08549422 0.08549447 0.34681424
v 1.5004004E-07 0.12090742 0.34681424
v 1.5004004E-07 0.12090742 0.5882664
v -0.08549422 0.08549447 0.5882664
v -0.12090716 9.0488044E-08 0.34681424
v -0.12090716 9.0488044E-08 0.5882664
v -0.08549422 -0.085494295 0.34681424
v -0.08549422 -0.085494295 0.5882664
v 1.5004004E-07 -0.12090723 0.34681424
v 1.5004004E-07 -0.12090723 0.5882664
v 0.08549451 -0.085494295 0.34681424
v 0.08549451 -0.085494295 0.5882664
v 0.120907456 9.0488044E-08 0.34681424
v 0.120907456 9.0488044E-08 0.5882664
v 0.08549451 0.08549447 0.34681424
v 0.08549451 0.08549447 0.5882664
v 1.5004004E-07 0.12090742 0.34681424
v 1.5004004E-07 0.12090742 0.5882664
v 1.5004004E-07 0.12090742 0.64156616
v 1.5121438E-07 0.17809208 0.64156616
v 0.12593018 0.12593013 0.64156616
v 0.08549451 0.08549447 0.64156616
v 0.17809212 9.0488044E-08 0.64156616
v 0.120907456 9.0488044E-08 0.64156616
v 0.12593018 -0.12592995 0.64156616
v 0.08549451 -0.085494295 0.64156616
v 1.5121438E-07 -0.17809188 0.64156616
v 1.5004004E-07 -0.12090723 0.64156616
v -0.12592988 -0.12592995 0.64156616
v -0.08549422 -0.085494295 0.64156616
v -0.17809182 9.0488044E-08 0.64156616
v -0.12090716 9.0488044E-08 0.64156616
v -0.12592989 0.12593013 0.64156616
v -0.08549422 0.08549447 0.64156616
v 1.5121438E-07 0.17809208 0.64156616
v 1.5004004E-07 0.12090742 0.64156616
v 1.5004004E-07 0.12090742 0.5882664
v 1.5121438E-07 0.17809208 0.5882664
v -0.12592989 0.12593013 0.5882664
v -0.08549422 0.08549447 0.5882664
v -0.17809182 9.0488044E-08 0.5882664
v -0.12090716 9.0488044E-08 0.5882664
v -0.12592988 -0.12592995 0.5882664
v -0.08549422 -0.085494295 0.5882664
v 1.5121438E-07 -0.17809188 0.5882664
v 1.5004004E-07 -0.12090723 0.5882664
v 0.12593018 -0.12592995 0.5882664
v 0.08549451 -0.085494295 0.5882664
v 0.17809212 9.0488044E-08 0.5882664
v 0.120907456 9.0488044E-08 0.5882664
v 0.12593018 0.12593013 0.5882664
v 0.08549451 0.08549447 0.5882664
v 1.5121438E-07 0.17809208 0.5882664
v 1.5004004E-07 0.12090742 0.5882664
v -0.12592989 0.12593013 0.5882664
v 1.5121438E-07 0.17809208 0.5882664
v 1.5121438E-07 0.17809208 0.64156616
v -0.12592989 0.12593013 0.64156616
v -0.17809182 9.0488044E-08 0.5882664
v -0.17809182 9.0488044E-08 0.64156616
v -0.12592988 -0.12592995 0.5882664
v -0.12592988 -0.12592995 0.64156616
v 1.5121438E-07 -0.17809188 0.5882664
v 1.5121438E-07 -0.17809188 0.64156616
v 0.12593018 -0.12592995 0.5882664
v 0.12593018 -0.12592995 0.64156616
v 0.17809212 9.0488044E-08 0.5882664
v 0.17809212 9.0488044E-08 0.64156616
v 0.12593018 0.12593013 0.5882664
v 0.12593018 0.12593013 0.64156616
v 1.5121438E-07 0.17809208 0.5882664
v 1.5121438E-07 0.17809208 0.64156616
v 0.31537777 0.3153775 0.0484446
v 0.44601154 -1.7252856E-07 0.0484446
v 0.31537777 -0.31537786 0.0484446
v 2.459334E-07 0.44601122 0.0484446
v 2.459334E-07 -0.4460115 0.0484446
v -0.31537735 0.3153775 0.0484446
v -0.31537735 -0.31537786 0.0484446
v -0.44601107 -1.7252856E-07 0.0484446
v 0.31537777 -0.31537786 -0.010003833
v 0.44601154 -1.7252856E-07 -0.010003833
v 0.31537777 0.3153775 -0.010003833
v 2.459334E-07 -0.4460115 -0.010003833
v 2.459334E-07 0.44601122 -0.010003833
v -0.31537735 -0.31537786 -0.010003833
v -0.31537735 0.3153775 -0.010003833
v -0.44601107 -1.7252856E-07 -0.010003833
v -0.31537735 0.3153775 -0.010003833
v 2.459334E-07 0.44601122 -0.010003833
v 2.459334E-07 0.44601122 0.0484446
v -0.31537735 0.3153775 0.0484446
v -0.44601107 -1.7252856E-07 -0.010003833
v -0.44601107 -1.7252856E-07 0.0484446
v -0.31537735 -0.31537786 -0.010003833
v -0.31537735 -0.31537786 0.0484446
v 2.459334E-07 -0.4460115 -0.010003833
v 2.459334E-07 -0.4460115 0.0484446
v 0.31537777 -0.31537786 -0.010003833
v 0.31537777 -0.31537786 0.0484446
v 0.44601154 -1.7252856E-07 -0.010003833
v 0.44601154 -1.7252856E-07 0.0484446
v 0.31537777 0.3153775 -0.010003833
v 0.31537777 0.3153775 0.0484446
v 2.459334E-07 0.44601122 -0.010003833
v 2.459334E-07 0.44601122 0.0484446
v 0.22775073 0.2277504 0.25074488
v 0.32208815 -1.9083598E-07 0.25074488
v 0.22775073 -0.2277508 0.25074488
v 2.4384542E-07 0.3220878 0.25074488
v 2.4384542E-07 -0.32208815 0.25074488
v -0.2277503 0.2277504 0.25074488
v -0.2277503 -0.2277508 0.25074488
v -0.32208768 -1.9083598E-07 0.25074488
v 0.22775073 -0.2277508 0.19229645
v 0.32208815 -1.9083598E-07 0.19229645
v 0.22775073 0.2277504 0.19229645
v 2.4384542E-07 -0.32208815 0.19229645
v 2.4384542E-07 0.3220878 0.19229645
v -0.2277503 -0.2277508 0.19229645
v -0.2277503 0.2277504 0.19229645
v -0.32208768 -1.9083598E-07 0.19229645
v -0.2277503 0.2277504 0.19229645
v 2.4384542E-07 0.3220878 0.19229645
v 2.4384542E-07 0.3220878 0.25074488
v -0.2277503 0.2277504 0.25074488
v -0.32208768 -1.9083598E-07 0.19229645
v -0.32208768 -1.9083598E-07 0.25074488
v -0.2277503 -0.2277508 0.19229645
v -0.2277503 -0.2277508 0.25074488
v 2.4384542E-07 -0.32208815 0.19229645
v 2.4384542E-07 -0.32208815 0.25074488
v 0.22775073 -0.2277508 0.19229645
v 0.22775073 -0.2277508 0.25074488
v 0.32208815 -1.9083598E-07 0.19229645
v 0.32208815 -1.9083598E-07 0.25074488
v 0.22775073 0.2277504 0.19229645
v 0.22775073 0.2277504 0.25074488
v 2.4384542E-07 0.3220878 0.19229645
v 2.4384542E-07 0.3220878 0.25074488
v 0.22775073 0.2277504 -0.22717237
v 0.32208815 -1.9083598E-07 -0.22717237
v 0.22775073 -0.2277508 -0.22717237
v 2.4384542E-07 0.3220878 -0.22717237
v 2.4384542E-07 -0.32208815 -0.22717237
v -0.2277503 0.2277504 -0.22717237
v -0.2277503 -0.2277508 -0.22717237
v -0.32208768 -1.9083598E-07 -0.22717237
v 0.22775073 -0.2277508 -0.2856208
v 0.32208815 -1.9083598E-07 -0.2856208
v 0.22775073 0.2277504 -0.2856208
v 2.4384542E-07 -0.32208815 -0.2856208
v 2.4384542E-07 0.3220878 -0.2856208
v -0.2277503 -0.2277508 -0.2856208
v -0.2277503 0.2277504 -0.2856208
v -0.32208768 -1.9083598E-07 -0.2856208
v -0.2277503 0.2277504 -0.2856208
v 2.4384542E-07 0.3220878 -0.2856208
v 2.4384542E-07 0.3220878 -0.22717237
v -0.2277503 0.2277504 -0.22717237
v -0.32208768 -1.9083598E-07 -0.2856208
v -0.32208768 -1.9083598E-07 -0.22717237
v -0.2277503 -0.2277508 -0.2856208
v -0.2277503 -0.2277508 -0.22717237
v 2.4384542E-07 -0.32208815 -0.2856208
v 2.4384542E-07 -0.32208815 -0.22717237
v 0.22775073 -0.2277508 -0.2856208
v 0.22775073 -0.2277508 -0.22717237
v 0.32208815 -1.9083598E-07 -0.2856208
v 0.32208815 -1.9083598E-07 -0.22717237
v 0.22775073 0.2277504 -0.2856208
v 0.22775073 0.2277504 -0.22717237
v 2.4384542E-07 0.3220878 -0.2856208
v 2.4384542E-07 0.3220878 -0.22717237
vt 0.74999994 0.875
vt 0.6666667 0.875
vt 0.7083333 1
vt 0.75 0.75
vt 0.6666667 0.75
vt 0.5833333 0.875
vt 0.625 1
vt 0.83333325 0.75
vt 0.83333325 0.875
vt 0.7916666 1
vt 0.75 0.625
vt 0.83333325 0.62500006
vt 0.5833333 0.75
vt 0.6666667 0.625
vt 0.5 0.875
vt 0.5416667 1
vt 0.9166666 0.75
vt 0.9166666 0.62500006
vt 0.9166666 0.875
vt 0.87499994 1
vt 1 0.75
vt 1 0.875
vt 0.9583333 1
vt 1 0.62500006
vt 1 0.5
vt 0.9166666 0.5
vt 1 0.375
vt 0.83333325 0.5
vt 0.9166666 0.375
vt 1 0.25
vt 0.74999994 0.5
vt 0.9166666 0.25
vt 1 0.12500006
vt 0.83333325 0.375
vt 0.9166666 0.125
vt 0.9583333 5.9604645E-08
vt 0.83333325 0.25
vt 0.74999994 0.375
vt 0.6666667 0.5
vt 0.83333325 0.125
vt 0.87499994 5.9604645E-08
vt 0.75 0.25
vt 0.5833333 0.62500006
vt 0.6666667 0.375
vt 0.75 0.12500006
vt 0.7916666 5.9604645E-08
vt 0.6666667 0.25
vt 0.5833333 0.5
vt 0.5 0.75
vt 0.6666667 0.12500006
vt 0.7083333 5.9604645E-08
vt 0.5833333 0.375
vt 0.5 0.62500006
vt 0.41666666 0.875
vt 0.4583333 1
vt 0.5833333 0.25
vt 0.5 0.5
vt 0.41666666 0.75
vt 0.5833333 0.12500006
vt 0.625 5.9604645E-08
vt 0.5 0.375
vt 0.41666666 0.62500006
vt 0.3333333 0.875
vt 0.375 1
vt 0.5 0.25
vt 0.41666666 0.5
vt 0.3333333 0.75
vt 0.5 0.12500006
vt 0.5416667 5.9604645E-08
vt 0.41666666 0.375
vt 0.3333333 0.62500006
vt 0.24999997 0.875
vt 0.29166666 1
vt 0.41666666 0.25
vt 0.3333333 0.5
vt 0.24999997 0.75
vt 0.41666666 0.12500006
vt 0.4583333 5.9604645E-08
vt 0.3333333 0.375
vt 0.25 0.62500006
vt 0.16666663 0.875
vt 0.20833331 1
vt 0.3333333 0.25
vt 0.25 0.5
vt 0.16666666 0.75
vt 0.3333333 0.12500006
vt 0.375 5.9604645E-08
vt 0.25 0.375
vt 0.16666666 0.62500006
vt 0.08333331 0.875
vt 0.12499997 1
vt 0.24999997 0.25
vt 0.16666666 0.5
vt 0.08333331 0.75
vt 0 0.875
vt 0.041666657 1
vt 0 0.75
vt 0.08333331 0.62500006
vt 0 0.62500006
vt 0.08333331 0.5
vt 0 0.5
vt 0.16666666 0.375
vt 0.08333331 0.375
vt 0 0.375
vt 0.16666666 0.25
vt 0.08333331 0.25
vt 0 0.25
vt 0.24999997 0.12500006
vt 0.29166666 5.9604645E-08
vt 0.16666663 0.125
vt 0.20833331 5.9604645E-08
vt 0.08333331 0.125
vt 0.12499997 5.9604645E-08
vt 0 0.12500006
vt 0.041666657 5.9604645E-08
vt 1 0.8333333
vt 0.875 1
vt 1 1
vt 0.875 0.8333333
vt 0.75 1
vt 0.75 0.8333333
vt 0.625 1
vt 0.625 0.8333333
vt 0.5 1
vt 0.5 0.8333333
vt 0.375 1
vt 0.375 0.8333333
vt 0.25 1
vt 0.25 0.8333333
vt 0.125 1
vt 0.125 0.8333333
vt 0 1
vt 0 0.8333333
vt 0.41970563 0.41970563
vt 0.49 0.25
vt 0.41970563 0.080294386
vt 0.25 0.49
vt 0.25 0.010000005
vt 0.080294386 0.41970563
vt 0.080294386 0.080294386
vt 0.010000005 0.25
vt 0.9197056 0.080294386
vt 0.99 0.25
vt 0.9197056 0.41970563
vt 0.75 0.010000005
vt 0.75 0.49
vt 0.5802944 0.080294386
vt 0.5802944 0.41970563
vt 0.51 0.25
vt 0.125 0.5
vt 0 0.5
vt 0 0.6666666
vt 0.125 0.6666666
vt 0.25 0.5
vt 0.25 0.6666666
vt 0.375 0.5
vt 0.375 0.6666666
vt 0.5 0.5
vt 0.5 0.6666666
vt 0.625 0.5
vt 0.625 0.6666666
vt 0.75 0.5
vt 0.75 0.6666666
vt 0.875 0.5
vt 0.875 0.6666666
vt 1 0.5
vt 1 0.6666666
vt 1 0.8333333
vt 1 0.8333333
vt 0.875 0.8333333
vt 0.875 0.8333333
vt 0.75 0.8333333
vt 0.75 0.8333333
vt 0.625 0.8333333
vt 0.625 0.8333333
vt 0.5 0.8333333
vt 0.5 0.8333333
vt 0.375 0.8333333
vt 0.375 0.8333333
vt 0.25 0.8333333
vt 0.25 0.8333333
vt 0.125 0.8333333
vt 0.125 0.8333333
vt 0 0.8333333
vt 0 0.8333333
vt 0 0.6666666
vt 0 0.6666666
vt 0.125 0.6666666
vt 0.125 0.6666666
vt 0.25 0.6666666
vt 0.25 0.6666666
vt 0.375 0.6666666
vt 0.375 0.6666666
vt 0.5 0.6666666
vt 0.5 0.6666666
vt 0.625 0.6666666
vt 0.625 0.6666666
vt 0.75 0.6666666
vt 0.75 0.6666666
vt 0.875 0.6666666
vt 0.875 0.6666666
vt 1 0.6666666
vt 1 0.6666666
vt 0.125 0.6666666
vt 0 0.6666666
vt 0 0.8333333
vt 0.125 0.8333333
vt 0.25 0.6666666
vt 0.25 0.8333333
vt 0.375 0.6666666
vt 0.375 0.8333333
vt 0.5 0.6666666
vt 0.5 0.8333333
vt 0.625 0.6666666
vt 0.625 0.8333333
vt 0.75 0.6666666
vt 0.75 0.8333333
vt 0.875 0.6666666
vt 0.875 0.8333333
vt 1 0.6666666
vt 1 0.8333333
vt 0.41970563 0.41970563
vt 0.49 0.25
vt 0.41970563 0.080294386
vt 0.25 0.49
vt 0.25 0.010000005
vt 0.080294386 0.41970563
vt 0.080294386 0.080294386
vt 0.010000005 0.25
vt 0.9197056 0.080294386
vt 0.99 0.25
vt 0.9197056 0.41970563
vt 0.75 0.010000005
vt 0.75 0.49
vt 0.5802944 0.080294386
vt 0.5802944 0.41970563
vt 0.51 0.25
vt 0.125 0.5
vt 0 0.5
vt 0 1
vt 0.125 1
vt 0.25 0.5
vt 0.25 1
vt 0.375 0.5
vt 0.375 1
vt 0.5 0.5
vt 0.5 1
vt 0.625 0.5
vt 0.625 1
vt 0.75 0.5
vt 0.75 1
vt 0.875 0.5
vt 0.875 1
vt 1 0.5
vt 1 1
vt 0.41970563 0.41970563
vt 0.49 0.25
vt 0.41970563 0.080294386
vt 0.25 0.49
vt 0.25 0.010000005
vt 0.080294386 0.41970563
vt 0.080294386 0.080294386
vt 0.010000005 0.25
vt 0.9197056 0.080294386
vt 0.99 0.25
vt 0.9197056 0.41970563
vt 0.75 0.010000005
vt 0.75 0.49
vt 0.5802944 0.080294386
vt 0.5802944 0.41970563
vt 0.51 0.25
vt 0.125 0.5
vt 0 0.5
vt 0 1
vt 0.125 1
vt 0.25 0.5
vt 0.25 1
vt 0.375 0.5
vt 0.375 1
vt 0.5 0.5
vt 0.5 1
vt 0.625 0.5
vt 0.625 1
vt 0.75 0.5
vt 0.75 1
vt 0.875 0.5
vt 0.875 1
vt 1 0.5
vt 1 1
vt 0.41970563 0.41970563
vt 0.49 0.25
vt 0.41970563 0.080294386
vt 0.25 0.49
vt 0.25 0.010000005
vt 0.080294386 0.41970563
vt 0.080294386 0.080294386
vt 0.010000005 0.25
vt 0.9197056 0.080294386
vt 0.99 0.25
vt 0.9197056 0.41970563
vt 0.75 0.010000005
vt 0.75 0.49
vt 0.5802944 0.080294386
vt 0.5802944 0.41970563
vt 0.51 0.25
vt 0.125 0.5
vt 0 0.5
vt 0 1
vt 0.125 1
vt 0.25 0.5
vt 0.25 1
vt 0.375 0.5
vt 0.375 1
vt 0.5 0.5
vt 0.5 1
vt 0.625 0.5
vt 0.625 1
vt 0.75 0.5
vt 0.75 1
vt 0.875 0.5
vt 0.875 1
vt 1 0.5
vt 1 1
vn -0 0.7299947 0.6834527
vn 0.36499742 0.6321939 0.68345284
vn -0 0 1
vn -0 0.7607212 0.6490787
vn 0.38036063 0.6588039 0.64907867
vn 0.632194 0.36499727 0.6834528
vn -0 0 1
vn -0.38036066 0.658804 0.6490786
vn -0.36499733 0.632194 0.6834528
vn -0 0 1
vn -0 0.9300454 0.36744457
vn -0.46502268 0.805443 0.3674446
vn 0.658804 0.38036054 0.64907867
vn 0.4650226 0.80544287 0.3674447
vn 0.7299947 0 0.68345284
vn -0 0 1
vn -0.65880394 0.3803607 0.64907855
vn -0.80544287 0.46502283 0.3674446
vn -0.63219386 0.36499748 0.6834528
vn -0 0 1
vn -0.7607213 0 0.6490786
vn -0.72999465 0 0.68345284
vn -0 0 1
vn -0.9300454 0 0.36744463
vn -1 0 0
vn -0.8660253 0.5000002 0
vn -0.9300454 0 -0.36744466
vn -0.5 0.86602545 0
vn -0.80544287 0.46502283 -0.36744457
vn -0.72723716 0 -0.68638617
vn -0 1 0
vn -0.62980586 0.36361873 -0.6863862
vn -0.41440415 0 -0.91009295
vn -0.4650225 0.8054431 -0.36744455
vn -0.3588843 0.20720208 -0.91009307
vn -0 0 -1
vn -0.3636184 0.62980604 -0.6863863
vn -0 0.9300454 -0.36744463
vn 0.49999997 0.86602545 0
vn -0.20720178 0.3588844 -0.91009307
vn -0 0 -1
vn -0 0.7272372 -0.68638617
vn 0.80544287 0.4650226 0.36744472
vn 0.46502262 0.805443 -0.36744466
vn -0 0.41440403 -0.91009307
vn -0 0 -1
vn 0.36361852 0.6298059 -0.6863863
vn 0.86602545 0.4999999 0
vn 0.7607213 0 0.6490786
vn 0.20720193 0.35888436 -0.91009307
vn -0 0 -1
vn 0.805443 0.46502256 -0.36744475
vn 0.9300453 0 0.36744475
vn 0.632194 -0.3649974 0.6834528
vn -0 0 1
vn 0.6298059 0.36361843 -0.6863863
vn 1 0 0
vn 0.6588039 -0.38036066 0.64907867
vn 0.35888445 0.20720197 -0.91009307
vn -0 0 -1
vn 0.9300453 0 -0.3674448
vn 0.8054428 -0.4650228 0.36744472
vn 0.3649974 -0.632194 0.6834528
vn -0 0 1
vn 0.72723716 0 -0.68638617
vn 0.86602545 -0.50000006 0
vn 0.38036057 -0.658804 0.6490786
vn 0.41440398 0 -0.91009307
vn -0 0 -1
vn 0.80544287 -0.4650228 -0.36744475
vn 0.4650226 -0.80544287 0.36744466
vn -0 -0.72999465 0.68345284
vn -0 0 1
vn 0.62980586 -0.36361858 -0.6863863
vn 0.49999997 -0.86602545 0
vn -0 -0.76072127 0.6490787
vn 0.35888448 -0.20720205 -0.91009295
vn -0 0 -1
vn 0.4650226 -0.80544287 -0.3674447
vn -0 -0.9300453 0.3674447
vn -0.3649975 -0.63219386 0.68345284
vn -0 0 1
vn 0.36361843 -0.6298059 -0.6863863
vn -0 -1 0
vn -0.38036075 -0.6588038 0.64907867
vn 0.20720193 -0.35888448 -0.91009307
vn -0 0 -1
vn -0 -0.9300453 -0.36744475
vn -0.4650229 -0.8054428 0.36744475
vn -0.632194 -0.36499727 0.6834528
vn -0 0 1
vn -0 -0.72723716 -0.6863863
vn -0.5000002 -0.86602527 0
vn -0.65880406 -0.38036066 0.64907867
vn -0.72999465 0 0.68345284
vn -0 0 1
vn -0.7607213 0 0.6490786
vn -0.805443 -0.46502256 0.36744472
vn -0.9300454 0 0.36744463
vn -0.86602545 -0.4999999 0
vn -1 0 0
vn -0.4650229 -0.8054428 -0.36744475
vn -0.805443 -0.46502256 -0.36744472
vn -0.9300454 0 -0.36744466
vn -0.36361864 -0.62980586 -0.6863863
vn -0.629806 -0.36361855 -0.6863862
vn -0.72723716 0 -0.68638617
vn -0 -0.41440403 -0.91009307
vn -0 0 -1
vn -0.20720203 -0.3588844 -0.91009307
vn -0 0 -1
vn -0.35888463 -0.20720194 -0.91009295
vn -0 0 -1
vn -0.41440415 0 -0.91009295
vn -0 0 -1
vn -0 1 0
vn 0.70710677 0.7071067 0
vn -0 1 0
vn 0.70710677 0.7071067 0
vn 1 0 0
vn 1 0 0
vn 0.7071067 -0.7071068 0
vn 0.7071067 -0.7071068 0
vn -0 -1 0
vn -0 -1 0
vn -0.7071067 -0.7071068 0
vn -0.7071067 -0.7071068 0
vn -1 0 0
vn -1 0 0
vn -0.7071068 0.7071067 0
vn -0.7071068 0.7071067 0
vn -0 1 0
vn -0 1 0
vn -0 0 1
vn -0 0 1
vn -0 0 1
vn -0 0 1
vn -0 0 1
vn -0 0 1
vn -0 0 1
vn -0 0 1
vn -0 0 -1
vn -0 0 -1
vn -0 0 -1
vn -0 0 -1
vn -0 0 -1
vn -0 0 -1
vn -0 0 -1
vn -0 0 -1
vn -0.7071068 0.70710665 0
vn -0 1 0
vn -0 1 0
vn -0.7071068 0.70710665 0
vn -1 0 0
vn -1 0 0
vn -0.70710677 -0.7071067 0
vn -0.70710677 -0.7071067 0
vn -0 -1 0
vn -0 -1 0
vn 0.70710677 -0.70710677 0
vn 0.70710677 -0.70710677 0
vn 1 0 0
vn 1 0 0
vn 0.7071068 0.7071067 0
vn 0.7071068 0.7071067 0
vn -0 1 0
vn -0 1 0
vn -0 0 1
vn -0 0 1
vn -0 0 1
vn -0 0 1
vn -0 0 1
vn -0 0 1
vn -0 0 1
vn -0 0 1
vn -0 0 1
vn -0 0 1
vn -0 0 1
vn -0 0 1
vn -0 0 1
vn -0 0 1
vn -0 0 1
vn -0 0 1
vn -0 0 1
vn -0 0 1
vn -0 0 -1
vn -0 0 -1
vn -0 0 -1
vn -0 0 -1
vn -0 0 -1
vn -0 0 -1
vn -0 0 -1
vn -0 0 -1
vn -0 0 -1
vn -0 0 -1
vn -0 0 -1
vn -0 0 -1
vn -0 0 -1
vn -0 0 -1
vn -0 0 -1
vn -0 0 -1
vn -0 0 -1
vn -0 0 -1
vn -0.7071068 0.70710665 0
vn -0 1 0
vn -0 1 0
vn -0.7071068 0.70710665 0
vn -1 0 0
vn -1 0 0
vn -0.70710665 -0.7071068 0
vn -0.70710665 -0.7071068 0
vn -0 -1 0
vn -0 -1 0
vn 0.70710665 -0.7071068 0
vn 0.70710665 -0.7071068 0
vn 1 0 0
vn 1 0 0
vn 0.70710677 0.7071067 0
vn 0.70710677 0.7071067 0
vn -0 1 0
vn -0 1 0
vn -0 0 1
vn -0 0 1
vn -0 0 1
vn -0 0 1
vn -0 0 1
vn -0 0 1
vn -0 0 1
vn -0 0 1
vn -0 0 -1
vn -0 0 -1
vn -0 0 -1
vn -0 0 -1
vn -0 0 -1
vn -0 0 -1
vn -0 0 -1
vn -0 0 -1
vn -0.70710677 0.70710677 0
vn -0 1 0
vn -0 1 0
vn -0.70710677 0.70710677 0
vn -1 0 0
vn -1 0 0
vn -0.7071067 -0.7071068 0
vn -0.7071067 -0.7071068 0
vn -0 -1 0
vn -0 -1 0
vn 0.70710665 -0.7071068 0
vn 0.70710665 -0.7071068 0
vn 1 0 0
vn 1 0 0
vn 0.70710677 0.70710677 0
vn 0.70710677 0.70710677 0
vn -0 1 0
vn -0 1 0
vn -0 0 1
vn -0 0 1
vn -0 0 1
vn -0 0 1
vn -0 0 1
vn -0 0 1
vn -0 0 1
vn -0 0 1
vn -0 0 -1
vn -0 0 -1
vn -0 0 -1
vn -0 0 -1
vn -0 0 -1
vn -0 0 -1
vn -0 0 -1
vn -0 0 -1
vn -0.7071068 0.7071067 0
vn -0 1 0
vn -0 1 0
vn -0.7071068 0.7071067 0
vn -1 0 0
vn -1 0 0
vn -0.7071068 -0.7071067 0
vn -0.7071068 -0.7071067 0
vn -0 -1 0
vn -0 -1 0
vn 0.70710677 -0.70710677 0
vn 0.70710677 -0.70710677 0
vn 1 0 0
vn 1 0 0
vn 0.7071068 0.7071067 0
vn 0.7071068 0.7071067 0
vn -0 1 0
vn -0 1 0
vn -0 0 1
vn -0 0 1
vn -0 0 1
vn -0 0 1
vn -0 0 1
vn -0 0 1
vn -0 0 1
vn -0 0 1
vn -0 0 -1
vn -0 0 -1
vn -0 0 -1
vn -0 0 -1
vn -0 0 -1
vn -0 0 -1
vn -0 0 -1
vn -0 0 -1
vn -0.7071068 0.7071067 0
vn -0 1 0
vn -0 1 0
vn -0.7071068 0.7071067 0
vn -1 0 0
vn -1 0 0
vn -0.7071068 -0.7071067 0
vn -0.7071068 -0.7071067 0
vn -0 -1 0
vn -0 -1 0
vn 0.70710677 -0.70710677 0
vn 0.70710677 -0.70710677 0
vn 1 0 0
vn 1 0 0
vn 0.7071068 0.7071067 0
vn 0.7071068 0.7071067 0
vn -0 1 0
vn -0 1 0
g Potion Vial A_0
f 3/3/3 2/2/2 1/1/1
f 1/1/1 2/2/2 4/4/4
f 2/2/2 5/5/5 4/4/4
f 2/2/2 6/6/6 5/5/5
f 7/7/7 6/6/6 2/2/2
f 1/1/1 4/4/4 8/8/8
f 9/9/9 1/1/1 8/8/8
f 10/10/10 1/1/1 9/9/9
f 4/4/4 5/5/5 11/11/11
f 8/8/8 4/4/4 12/12/12
f 4/4/4 11/11/11 12/12/12
f 6/6/6 13/13/13 5/5/5
f 5/5/5 14/14/14 11/11/11
f 5/5/5 13/13/13 14/14/14
f 6/6/6 15/15/15 13/13/13
f 16/16/16 15/15/15 6/6/6
f 9/9/9 8/8/8 17/17/17
f 8/8/8 12/12/12 18/18/18
f 17/17/17 8/8/8 18/18/18
f 19/19/19 9/9/9 17/17/17
f 20/20/20 9/9/9 19/19/19
f 19/19/19 17/17/17 21/21/21
f 22/22/22 19/19/19 21/21/21
f 23/23/23 19/19/19 22/22/22
f 21/21/21 17/17/17 24/24/24
f 17/17/17 18/18/18 24/24/24
f 24/24/24 18/18/18 25/25/25
f 18/18/18 26/26/26 25/25/25
f 18/18/18 12/12/12 26/26/26
f 25/25/25 26/26/26 27/27/27
f 12/12/12 28/28/28 26/26/26
f 12/12/12 11/11/11 28/28/28
f 26/26/26 29/29/29 27/27/27
f 26/26/26 28/28/28 29/29/29
f 27/27/27 29/29/29 30/30/30
f 11/11/11 31/31/31 28/28/28
f 11/11/11 14/14/14 31/31/31
f 29/29/29 32/32/32 30/30/30
f 30/30/30 32/32/32 33/33/33
f 28/28/28 34/34/34 29/29/29
f 28/28/28 31/31/31 34/34/34
f 29/29/29 34/34/34 32/32/32
f 32/32/32 35/35/35 33/33/33
f 33/33/33 35/35/35 36/36/36
f 34/34/34 37/37/37 32/32/32
f 32/32/32 37/37/37 35/35/35
f 31/31/31 38/38/38 34/34/34
f 34/34/34 38/38/38 37/37/37
f 14/14/14 39/39/39 31/31/31
f 31/31/31 39/39/39 38/38/38
f 37/37/37 40/40/40 35/35/35
f 35/35/35 40/40/40 41/41/41
f 38/38/38 42/42/42 37/37/37
f 37/37/37 42/42/42 40/40/40
f 14/14/14 43/43/43 39/39/39
f 13/13/13 43/43/43 14/14/14
f 39/39/39 44/44/44 38/38/38
f 38/38/38 44/44/44 42/42/42
f 42/42/42 45/45/45 40/40/40
f 40/40/40 45/45/45 46/46/46
f 42/42/42 47/47/47 45/45/45
f 44/44/44 47/47/47 42/42/42
f 39/39/39 48/48/48 44/44/44
f 43/43/43 48/48/48 39/39/39
f 13/13/13 49/49/49 43/43/43
f 15/15/15 49/49/49 13/13/13
f 47/47/47 50/50/50 45/45/45
f 45/45/45 50/50/50 51/51/51
f 44/44/44 52/52/52 47/47/47
f 48/48/48 52/52/52 44/44/44
f 43/43/43 53/53/53 48/48/48
f 49/49/49 53/53/53 43/43/43
f 15/15/15 54/54/54 49/49/49
f 55/55/55 54/54/54 15/15/15
f 47/47/47 56/56/56 50/50/50
f 52/52/52 56/56/56 47/47/47
f 48/48/48 57/57/57 52/52/52
f 53/53/53 57/57/57 48/48/48
f 49/49/49 58/58/58 53/53/53
f 54/54/54 58/58/58 49/49/49
f 56/56/56 59/59/59 50/50/50
f 50/50/50 59/59/59 60/60/60
f 52/52/52 61/61/61 56/56/56
f 57/57/57 61/61/61 52/52/52
f 53/53/53 62/62/62 57/57/57
f 58/58/58 62/62/62 53/53/53
f 54/54/54 63/63/63 58/58/58
f 64/64/64 63/63/63 54/54/54
f 56/56/56 65/65/65 59/59/59
f 61/61/61 65/65/65 56/56/56
f 57/57/57 66/66/66 61/61/61
f 62/62/62 66/66/66 57/57/57
f 63/63/63 67/67/67 58/58/58
f 58/58/58 67/67/67 62/62/62
f 65/65/65 68/68/68 59/59/59
f 59/59/59 68/68/68 69/69/69
f 61/61/61 70/70/70 65/65/65
f 66/66/66 70/70/70 61/61/61
f 62/62/62 71/71/71 66/66/66
f 67/67/67 71/71/71 62/62/62
f 63/63/63 72/72/72 67/67/67
f 73/73/73 72/72/72 63/63/63
f 65/65/65 74/74/74 68/68/68
f 70/70/70 74/74/74 65/65/65
f 66/66/66 75/75/75 70/70/70
f 71/71/71 75/75/75 66/66/66
f 72/72/72 76/76/76 67/67/67
f 67/67/67 76/76/76 71/71/71
f 74/74/74 77/77/77 68/68/68
f 68/68/68 77/77/77 78/78/78
f 70/70/70 79/79/79 74/74/74
f 75/75/75 79/79/79 70/70/70
f 71/71/71 80/80/80 75/75/75
f 76/76/76 80/80/80 71/71/71
f 72/72/72 81/81/81 76/76/76
f 82/82/82 81/81/81 72/72/72
f 74/74/74 83/83/83 77/77/77
f 79/79/79 83/83/83 74/74/74
f 75/75/75 84/84/84 79/79/79
f 80/80/80 84/84/84 75/75/75
f 76/76/76 85/85/85 80/80/80
f 81/81/81 85/85/85 76/76/76
f 83/83/83 86/86/86 77/77/77
f 77/77/77 86/86/86 87/87/87
f 79/79/79 88/88/88 83/83/83
f 84/84/84 88/88/88 79/79/79
f 80/80/80 89/89/89 84/84/84
f 85/85/85 89/89/89 80/80/80
f 81/81/81 90/90/90 85/85/85
f 91/91/91 90/90/90 81/81/81
f 83/83/83 92/92/92 86/86/86
f 88/88/88 92/92/92 83/83/83
f 84/84/84 93/93/93 88/88/88
f 89/89/89 93/93/93 84/84/84
f 85/85/85 94/94/94 89/89/89
f 90/90/90 94/94/94 85/85/85
f 90/90/90 95/95/95 94/94/94
f 96/96/96 95/95/95 90/90/90
f 95/95/95 97/97/97 94/94/94
f 94/94/94 98/98/98 89/89/89
f 94/94/94 97/97/97 98/98/98
f 89/89/89 98/98/98 93/93/93
f 97/97/97 99/99/99 98/98/98
f 98/98/98 99/99/99 100/100/100
f 98/98/98 100/100/100 93/93/93
f 99/99/99 101/101/101 100/100/100
f 93/93/93 102/102/102 88/88/88
f 93/93/93 100/100/100 102/102/102
f 88/88/88 102/102/102 92/92/92
f 100/100/100 101/101/101 103/103/103
f 100/100/100 103/103/103 102/102/102
f 101/101/101 104/104/104 103/103/103
f 102/102/102 105/105/105 92/92/92
f 102/102/102 103/103/103 105/105/105
f 103/103/103 104/104/104 106/106/106
f 103/103/103 106/106/106 105/105/105
f 104/104/104 107/107/107 106/106/106
f 92/92/92 105/105/105 108/108/108
f 92/92/92 108/108/108 86/86/86
f 86/86/86 108/108/108 109/109/109
f 105/105/105 110/110/110 108/108/108
f 105/105/105 106/106/106 110/110/110
f 108/108/108 110/110/110 111/111/111
f 106/106/106 107/107/107 112/112/112
f 106/106/106 112/112/112 110/110/110
f 110/110/110 112/112/112 113/113/113
f 107/107/107 114/114/114 112/112/112
f 112/112/112 114/114/114 115/115/115
f 118/118/118 117/117/117 116/116/116
f 117/117/117 119/119/119 116/116/116
f 117/117/117 120/120/120 119/119/119
f 120/120/120 121/121/121 119/119/119
f 120/120/120 122/122/122 121/121/121
f 122/122/122 123/123/123 121/121/121
f 122/122/122 124/124/124 123/123/123
f 124/124/124 125/125/125 123/123/123
f 124/124/124 126/126/126 125/125/125
f 126/126/126 127/127/127 125/125/125
f 126/126/126 128/128/128 127/127/127
f 128/128/128 129/129/129 127/127/127
f 128/128/128 130/130/130 129/129/129
f 130/130/130 131/131/131 129/129/129
f 130/130/130 132/132/132 131/131/131
f 132/132/132 133/133/133 131/131/131
f 136/136/136 135/135/135 134/134/134
f 134/134/134 137/137/137 136/136/136
f 137/137/137 138/138/138 136/136/136
f 137/137/137 139/139/139 138/138/138
f 139/139/139 140/140/140 138/138/138
f 139/139/139 141/141/141 140/140/140
f 144/144/144 143/143/143 142/142/142
f 142/142/142 145/145/145 144/144/144
f 145/145/145 146/146/146 144/144/144
f 145/145/145 147/147/147 146/146/146
f 147/147/147 148/148/148 146/146/146
f 147/147/147 149/149/149 148/148/148
f 152/152/152 151/151/151 150/150/150
f 153/153/153 152/152/152 150/150/150
f 153/153/153 150/150/150 154/154/154
f 155/155/155 153/153/153 154/154/154
f 155/155/155 154/154/154 156/156/156
f 157/157/157 155/155/155 156/156/156
f 157/157/157 156/156/156 158/158/158
f 159/159/159 157/157/157 158/158/158
f 159/159/159 158/158/158 160/160/160
f 161/161/161 159/159/159 160/160/160
f 161/161/161 160/160/160 162/162/162
f 163/163/163 161/161/161 162/162/162
f 163/163/163 162/162/162 164/164/164
f 165/165/165 163/163/163 164/164/164
f 165/165/165 164/164/164 166/166/166
f 167/167/167 165/165/165 166/166/166
f 170/170/170 169/169/169 168/168/168
f 171/171/171 170/170/170 168/168/168
f 172/172/172 170/170/170 171/171/171
f 173/173/173 172/172/172 171/171/171
f 174/174/174 172/172/172 173/173/173
f 175/175/175 174/174/174 173/173/173
f 176/176/176 174/174/174 175/175/175
f 177/177/177 176/176/176 175/175/175
f 178/178/178 176/176/176 177/177/177
f 179/179/179 178/178/178 177/177/177
f 180/180/180 178/178/178 179/179/179
f 181/181/181 180/180/180 179/179/179
f 182/182/182 180/180/180 181/181/181
f 183/183/183 182/182/182 181/181/181
f 184/184/184 182/182/182 183/183/183
f 185/185/185 184/184/184 183/183/183
f 188/188/188 187/187/187 186/186/186
f 189/189/189 188/188/188 186/186/186
f 190/190/190 188/188/188 189/189/189
f 191/191/191 190/190/190 189/189/189
f 192/192/192 190/190/190 191/191/191
f 193/193/193 192/192/192 191/191/191
f 194/194/194 192/192/192 193/193/193
f 195/195/195 194/194/194 193/193/193
f 196/196/196 194/194/194 195/195/195
f 197/197/197 196/196/196 195/195/195
f 198/198/198 196/196/196 197/197/197
f 199/199/199 198/198/198 197/197/197
f 200/200/200 198/198/198 199/199/199
f 201/201/201 200/200/200 199/199/199
f 202/202/202 200/200/200 201/201/201
f 203/203/203 202/202/202 201/201/201
f 206/206/206 205/205/205 204/204/204
f 207/207/207 206/206/206 204/204/204
f 207/207/207 204/204/204 208/208/208
f 209/209/209 207/207/207 208/208/208
f 209/209/209 208/208/208 210/210/210
f 211/211/211 209/209/209 210/210/210
f 211/211/211 210/210/210 212/212/212
f 213/213/213 211/211/211 212/212/212
f 213/213/213 212/212/212 214/214/214
f 215/215/215 213/213/213 214/214/214
f 215/215/215 214/214/214 216/216/216
f 217/217/217 215/215/215 216/216/216
f 217/217/217 216/216/216 218/218/218
f 219/219/219 217/217/217 218/218/218
f 219/219/219 218/218/218 220/220/220
f 221/221/221 219/219/219 220/220/220
f 224/224/224 223/223/223 222/222/222
f 222/222/222 225/225/225 224/224/224
f 225/225/225 226/226/226 224/224/224
f 225/225/225 227/227/227 226/226/226
f 227/227/227 228/228/228 226/226/226
f 227/227/227 229/229/229 228/228/228
f 232/232/232 231/231/231 230/230/230
f 230/230/230 233/233/233 232/232/232
f 233/233/233 234/234/234 232/232/232
f 233/233/233 235/235/235 234/234/234
f 235/235/235 236/236/236 234/234/234
f 235/235/235 237/237/237 236/236/236
f 240/240/240 239/239/239 238/238/238
f 241/241/241 240/240/240 238/238/238
f 241/241/241 238/238/238 242/242/242
f 243/243/243 241/241/241 242/242/242
f 243/243/243 242/242/242 244/244/244
f 245/245/245 243/243/243 244/244/244
f 245/245/245 244/244/244 246/246/246
f 247/247/247 245/245/245 246/246/246
f 247/247/247 246/246/246 248/248/248
f 249/249/249 247/247/247 248/248/248
f 249/249/249 248/248/248 250/250/250
f 251/251/251 249/249/249 250/250/250
f 251/251/251 250/250/250 252/252/252
f 253/253/253 251/251/251 252/252/252
f 252/252/252 254/254/254 253/253/253
f 254/254/254 255/255/255 253/253/253
f 258/258/258 257/257/257 256/256/256
f 256/256/256 259/259/259 258/258/258
f 259/259/259 260/260/260 258/258/258
f 259/259/259 261/261/261 260/260/260
f 261/261/261 262/262/262 260/260/260
f 261/261/261 263/263/263 262/262/262
f 266/266/266 265/265/265 264/264/264
f 264/264/264 267/267/267 266/266/266
f 267/267/267 268/268/268 266/266/266
f 267/267/267 269/269/269 268/268/268
f 269/269/269 270/270/270 268/268/268
f 269/269/269 271/271/271 270/270/270
f 274/274/274 273/273/273 272/272/272
f 275/275/275 274/274/274 272/272/272
f 275/275/275 272/272/272 276/276/276
f 277/277/277 275/275/275 276/276/276
f 277/277/277 276/276/276 278/278/278
f 279/279/279 277/277/277 278/278/278
f 279/279/279 278/278/278 280/280/280
f 281/281/281 279/279/279 280/280/280
f 281/281/281 280/280/280 282/282/282
f 283/283/283 281/281/281 282/282/282
f 283/283/283 282/282/282 284/284/284
f 285/285/285 283/283/283 284/284/284
f 285/285/285 284/284/284 286/286/286
f 287/287/287 285/285/285 286/286/286
f 286/286/286 288/288/288 287/287/287
f 288/288/288 289/289/289 287/287/287
f 292/292/292 291/291/291 290/290/290
f 290/290/290 293/293/293 292/292/292
f 293/293/293 294/294/294 292/292/292
f 293/293/293 295/295/295 294/294/294
f 295/295/295 296/296/296 294/294/294
f 295/295/295 297/297/297 296/296/296
f 300/300/300 299/299/299 298/298/298
f 298/298/298 301/301/301 300/300/300
f 301/301/301 302/302/302 300/300/300
f 301/301/301 303/303/303 302/302/302
f 303/303/303 304/304/304 302/302/302
f 303/303/303 305/305/305 304/304/304
f 308/308/308 307/307/307 306/306/306
f 309/309/309 308/308/308 306/306/306
f 309/309/309 306/306/306 310/310/310
f 311/311/311 309/309/309 310/310/310
f 311/311/311 310/310/310 312/312/312
f 313/313/313 311/311/311 312/312/312
f 313/313/313 312/312/312 314/314/314
f 315/315/315 313/313/313 314/314/314
f 315/315/315 314/314/314 316/316/316
f 317/317/317 315/315/315 316/316/316
f 317/317/317 316/316/316 318/318/318
f 319/319/319 317/317/317 318/318/318
f 319/319/319 318/318/318 320/320/320
f 321/321/321 319/319/319 320/320/320
f 320/320/320 322/322/322 321/321/321
f 322/322/322 323/323/323 321/321/321
