g Quicksling Barrel Base
v -3.1428678E-07 1.3941673 -1.0359464
v 1.2073842 0.6970835 -1.0359464
v 1.2073842 0.6970835 -0.08228901
v -3.1428678E-07 1.3941673 -0.08228901
v 1.2073842 0.6970835 -1.0359464
v 1.2073842 -0.69708407 -1.0359464
v 1.2073842 -0.69708407 -0.08228901
v 1.2073842 0.6970835 -0.08228901
v 1.2073842 -0.69708407 -1.0359464
v -3.1428678E-07 -1.3941678 -1.0359464
v -3.1428678E-07 -1.3941678 -0.08228901
v 1.2073842 -0.69708407 -0.08228901
v -3.1428678E-07 -1.3941678 -1.0359464
v -1.2073847 -0.69708407 -1.0359464
v -1.2073847 -0.69708407 -0.08228901
v -3.1428678E-07 -1.3941678 -0.08228901
v -3.1428678E-07 1.2243508 -0.08228901
v -3.1428678E-07 1.2243508 -0.4444769
v -1.0603194 0.6121752 -0.4444769
v -1.0603194 0.6121752 -0.08228901
v -1.2073847 -0.69708407 -1.0359464
v -1.2073847 0.6970835 -1.0359464
v -1.2073847 0.6970835 -0.08228901
v -1.2073847 -0.69708407 -0.08228901
v -1.2073847 0.6970835 -1.0359464
v -3.1428678E-07 1.3941673 -1.0359464
v -3.1428678E-07 1.3941673 -0.08228901
v -1.2073847 0.6970835 -0.08228901
v -3.1428678E-07 -1.3941678 -1.0359464
v 1.2073842 -0.69708407 -1.0359464
v 1.2073842 0.6970835 -1.0359464
v -3.1428678E-07 1.3941673 -1.0359464
v -1.2073847 -0.69708407 -1.0359464
v -1.2073847 0.6970835 -1.0359464
v -3.1428678E-07 1.2243508 -0.4444769
v 1.0603188 0.6121752 -0.4444769
v 1.0603188 -0.6121758 -0.4444769
v -3.1428678E-07 -1.2243513 -0.4444769
v -1.0603194 0.6121752 -0.4444769
v -1.0603193 -0.6121758 -0.4444769
v -1.0603193 -0.6121758 -0.08228901
v -1.0603193 -0.6121758 -0.4444769
v -3.1428678E-07 -1.2243513 -0.4444769
v -3.1428678E-07 -1.2243513 -0.08228901
v 1.0603188 -0.6121758 -0.08228901
v 1.0603188 -0.6121758 -0.4444769
v 1.0603188 0.6121752 -0.4444769
v 1.0603188 0.6121752 -0.08228901
v -1.0603194 0.6121752 -0.08228901
v -1.0603194 0.6121752 -0.4444769
v -1.0603193 -0.6121758 -0.4444769
v -1.0603193 -0.6121758 -0.08228901
v -3.1428678E-07 -1.2243513 -0.08228901
v -3.1428678E-07 -1.2243513 -0.4444769
v 1.0603188 -0.6121758 -0.4444769
v 1.0603188 -0.6121758 -0.08228901
v 1.0603188 0.6121752 -0.08228901
v 1.0603188 0.6121752 -0.4444769
v -3.1428678E-07 1.2243508 -0.4444769
v -3.1428678E-07 1.2243508 -0.08228901
v -1.0603193 -0.6121758 -0.08228901
v -1.2073847 0.6970835 -0.08228901
v -1.0603194 0.6121752 -0.08228901
v -1.2073847 -0.69708407 -0.08228901
v -3.1428678E-07 1.3941673 -0.08228901
v -3.1428678E-07 -1.2243513 -0.08228901
v -3.1428678E-07 1.2243508 -0.08228901
v -3.1428678E-07 -1.3941678 -0.08228901
v 1.2073842 0.6970835 -0.08228901
v 1.0603188 -0.6121758 -0.08228901
v 1.0603188 0.6121752 -0.08228901
v 1.2073842 -0.69708407 -0.08228901
vt 1 0.5
vt 0.8333333 0.5
vt 0.8333333 1
vt 1 1
vt 0.8333333 0.5
vt 0.6666666 0.5
vt 0.6666666 1
vt 0.8333333 1
vt 0.6666666 0.5
vt 0.49999994 0.5
vt 0.49999994 1
vt 0.6666666 1
vt 0.49999994 0.5
vt 0.33333325 0.5
vt 0.33333325 1
vt 0.49999994 1
vt 0.25 0.46076688
vt 0.25 0.46076688
vt 0.06747058 0.35538343
vt 0.06747058 0.35538343
vt 0.33333325 0.5
vt 0.16666658 0.5
vt 0.16666658 1
vt 0.33333325 1
vt 0.16666658 0.5
vt -8.940697E-08 0.5
vt -8.940697E-08 1
vt 0.16666658 1
vt 0.75 0.010000005
vt 0.9578461 0.13
vt 0.9578461 0.37
vt 0.75 0.49
vt 0.5421539 0.13
vt 0.5421539 0.37
vt 0.25 0.46076688
vt 0.43252942 0.35538343
vt 0.43252942 0.14461659
vt 0.25 0.039233185
vt 0.06747058 0.35538343
vt 0.067470595 0.14461657
vt 0.067470595 0.14461657
vt 0.067470595 0.14461657
vt 0.25 0.039233185
vt 0.25 0.039233185
vt 0.43252942 0.14461659
vt 0.43252942 0.14461659
vt 0.43252942 0.35538343
vt 0.43252942 0.35538343
vt 0.06747058 0.35538343
vt 0.06747058 0.35538343
vt 0.067470595 0.14461657
vt 0.067470595 0.14461657
vt 0.25 0.039233185
vt 0.25 0.039233185
vt 0.43252942 0.14461659
vt 0.43252942 0.14461659
vt 0.43252942 0.35538343
vt 0.43252942 0.35538343
vt 0.25 0.46076688
vt 0.25 0.46076688
vt 0.067470595 0.14461657
vt 0.04215391 0.37
vt 0.06747058 0.35538343
vt 0.04215391 0.13
vt 0.25 0.49
vt 0.25 0.039233185
vt 0.25 0.46076688
vt 0.25 0.010000005
vt 0.4578461 0.37
vt 0.43252942 0.14461659
vt 0.43252942 0.35538343
vt 0.4578461 0.13
vn 0.5 0.86602545 0
vn 0.5 0.86602545 0
vn 0.5 0.86602545 0
vn 0.5 0.86602545 0
vn 1 0 0
vn 1 0 0
vn 1 0 0
vn 1 0 0
vn 0.49999997 -0.86602545 0
vn 0.49999997 -0.86602545 0
vn 0.49999997 -0.86602545 0
vn 0.49999997 -0.86602545 0
vn -0.5 -0.86602545 0
vn -0.5 -0.86602545 0
vn -0.5 -0.86602545 0
vn -0.5 -0.86602545 0
vn 0.50000006 -0.8660253 0
vn 0.50000006 -0.8660253 0
vn 0.50000006 -0.8660253 0
vn 0.50000006 -0.8660253 0
vn -1 0 0
vn -1 0 0
vn -1 0 0
vn -1 0 0
vn -0.5000001 0.8660253 0
vn -0.5000001 0.8660253 0
vn -0.5000001 0.8660253 0
vn -0.5000001 0.8660253 0
vn -0 0 -1
vn -0 0 -1
vn -0 0 -1
vn -0 0 -1
vn -0 0 -1
vn -0 0 -1
vn -0 0 1
vn -0 0 1
vn -0 0 1
vn -0 0 1
vn -0 0 1
vn -0 0 1
vn 0.5 0.86602545 0
vn 0.5 0.86602545 0
vn 0.5 0.86602545 0
vn 0.5 0.86602545 0
vn -1 0 0
vn -1 0 0
vn -1 0 0
vn -1 0 0
vn 1 0 0
vn 1 0 0
vn 1 0 0
vn 1 0 0
vn -0.49999997 0.86602545 0
vn -0.49999997 0.86602545 0
vn -0.49999997 0.86602545 0
vn -0.49999997 0.86602545 0
vn -0.50000006 -0.86602545 0
vn -0.50000006 -0.86602545 0
vn -0.50000006 -0.86602545 0
vn -0.50000006 -0.86602545 0
vn -0 0 1
vn -0 0 1
vn -0 0 1
vn -0 0 1
vn -0 0 1
vn -0 0 1
vn -0 0 1
vn -0 0 1
vn -0 0 1
vn -0 0 1
vn -0 0 1
vn -0 0 1
g Quicksling Barrel Base_0
f 3/3/3 2/2/2 1/1/1
f 4/4/4 3/3/3 1/1/1
f 7/7/7 6/6/6 5/5/5
f 8/8/8 7/7/7 5/5/5
f 11/11/11 10/10/10 9/9/9
f 12/12/12 11/11/11 9/9/9
f 15/15/15 14/14/14 13/13/13
f 16/16/16 15/15/15 13/13/13
f 19/19/19 18/18/18 17/17/17
f 20/20/20 19/19/19 17/17/17
f 23/23/23 22/22/22 21/21/21
f 24/24/24 23/23/23 21/21/21
f 27/27/27 26/26/26 25/25/25
f 28/28/28 27/27/27 25/25/25
f 31/31/31 30/30/30 29/29/29
f 29/29/29 32/32/32 31/31/31
f 29/29/29 33/33/33 32/32/32
f 33/33/33 34/34/34 32/32/32
f 37/37/37 36/36/36 35/35/35
f 35/35/35 38/38/38 37/37/37
f 35/35/35 39/39/39 38/38/38
f 39/39/39 40/40/40 38/38/38
f 43/43/43 42/42/42 41/41/41
f 44/44/44 43/43/43 41/41/41
f 47/47/47 46/46/46 45/45/45
f 48/48/48 47/47/47 45/45/45
f 51/51/51 50/50/50 49/49/49
f 52/52/52 51/51/51 49/49/49
f 55/55/55 54/54/54 53/53/53
f 56/56/56 55/55/55 53/53/53
f 59/59/59 58/58/58 57/57/57
f 60/60/60 59/59/59 57/57/57
f 63/63/63 62/62/62 61/61/61
f 62/62/62 64/64/64 61/61/61
f 65/65/65 62/62/62 63/63/63
f 61/61/61 64/64/64 66/66/66
f 67/67/67 65/65/65 63/63/63
f 64/64/64 68/68/68 66/66/66
f 69/69/69 65/65/65 67/67/67
f 66/66/66 68/68/68 70/70/70
f 71/71/71 69/69/69 67/67/67
f 68/68/68 72/72/72 70/70/70
f 72/72/72 69/69/69 71/71/71
f 70/70/70 72/72/72 71/71/71
