g Quiver
v 0.052810855 0.07438474 -0.25065082
v 0.08776528 0.15201393 0.8179212
v -0 0.17552853 0.8179228
v 0.113346 0.0556777 -0.21663857
v 0.1526381 0.08812564 0.8174064
v 0.17500603 0.035656486 -0.24029976
v 0.17500603 0.035656486 -0.24029976
v 0.19251607 9.32046E-08 -0.25065848
v 0.17609127 -7.697194E-09 0.8175043
v 0.1526381 0.08812564 0.8174064
v 0.19251607 9.32046E-08 -0.25065848
v 0.17500615 -0.035656333 -0.24029988
v 0.1526381 -0.08812566 0.81740636
v 0.17609127 -7.697194E-09 0.8175043
v 0.17500615 -0.035656333 -0.24029988
v 0.087765284 -0.15201393 0.8179212
v 0.1526381 -0.08812566 0.81740636
v 0.113346055 -0.055677596 -0.2166388
v -1.5345194E-08 -0.17552853 0.8179228
v 0.05563418 -0.07433015 -0.25046748
v 0.05563418 -0.07433015 -0.25046748
v 0.027195161 -0.06442086 -0.25239205
v -0.08776426 -0.15201217 0.8179228
v -1.5345194E-08 -0.17552853 0.8179228
v 0.027195161 -0.06442086 -0.25239205
v -0.15201217 -0.08776424 0.8179228
v -0.08776426 -0.15201217 0.8179228
v 0.012266531 -0.037193354 -0.27077928
v -0.17552853 2.0931568E-09 0.8179228
v 0.0023005742 9.734321E-08 -0.2594137
v -0.15201217 0.08776424 0.8179228
v -0.00063606695 0.037193544 -0.26354858
v -0.08776429 0.15201215 0.8179228
v 0.0053672935 0.06442104 -0.2510468
v 0.1526381 0.08812564 0.8174064
v 0.17609127 -7.697194E-09 0.8175043
v 0.1526381 -0.08812566 0.81740636
v 0.08776528 0.15201393 0.8179212
v 0.087765284 -0.15201393 0.8179212
v -1.5345194E-08 -0.17552853 0.8179228
v -0 0.17552853 0.8179228
v -0.08776429 0.15201215 0.8179228
v -0.08776426 -0.15201217 0.8179228
v -0.15201217 -0.08776424 0.8179228
v -0.15201217 0.08776424 0.8179228
v -0.17552853 2.0931568E-09 0.8179228
v 0.0053672935 0.06442104 -0.2510468
v 0.052810855 0.07438474 -0.25065082
v -0 0.17552853 0.8179228
v -0.08776429 0.15201215 0.8179228
v 0.17500615 -0.035656333 -0.24029988
v 0.19251607 9.32046E-08 -0.25065848
v 0.17500603 0.035656486 -0.24029976
v 0.113346055 -0.055677596 -0.2166388
v 0.113346 0.0556777 -0.21663857
v 0.05563418 -0.07433015 -0.25046748
v 0.052810855 0.07438474 -0.25065082
v 0.027195161 -0.06442086 -0.25239205
v 0.0053672935 0.06442104 -0.2510468
v 0.012266531 -0.037193354 -0.27077928
v 0.0023005742 9.734321E-08 -0.2594137
v -0.00063606695 0.037193544 -0.26354858
v 0.019069593 -0.018002195 0.7252091
v 0.019069593 0.018002195 0.7252091
v -0.05483888 0.018002195 1.1716017
v -0.05483888 -0.018002195 1.1716017
v 0.019069593 0.018002195 0.7252091
v 0.054839086 0.018002195 0.72805595
v -0.019069381 0.018002195 1.1744484
v -0.05483888 0.018002195 1.1716017
v 0.054839086 0.018002195 0.72805595
v 0.054839086 -0.018002195 0.72805595
v -0.019069381 -0.018002195 1.1744484
v -0.019069381 0.018002195 1.1744484
v 0.054839086 -0.018002195 0.72805595
v 0.019069593 -0.018002195 0.7252091
v -0.05483888 -0.018002195 1.1716017
v -0.019069381 -0.018002195 1.1744484
v 0.019069593 0.018002195 0.7252091
v 0.019069593 -0.018002195 0.7252091
v 0.054839086 -0.018002195 0.72805595
v 0.054839086 0.018002195 0.72805595
v -0.019069381 0.018002195 1.1744484
v -0.019069381 -0.018002195 1.1744484
v -0.05483888 -0.018002195 1.1716017
v -0.05483888 0.018002195 1.1716017
v -0.05118655 0.03673105 0.66010016
v -0.05118655 0.07273544 0.66010016
v -0.12509501 0.07273544 1.1064928
v -0.12509501 0.03673105 1.1064928
v -0.05118655 0.07273544 0.66010016
v -0.015417058 0.07273544 0.6629471
v -0.089325525 0.07273544 1.1093395
v -0.12509501 0.07273544 1.1064928
v -0.015417058 0.07273544 0.6629471
v -0.015417058 0.03673105 0.6629471
v -0.089325525 0.03673105 1.1093395
v -0.089325525 0.07273544 1.1093395
v -0.015417058 0.03673105 0.6629471
v -0.05118655 0.03673105 0.66010016
v -0.12509501 0.03673105 1.1064928
v -0.089325525 0.03673105 1.1093395
v -0.05118655 0.07273544 0.66010016
v -0.05118655 0.03673105 0.66010016
v -0.015417058 0.03673105 0.6629471
v -0.015417058 0.07273544 0.6629471
v -0.089325525 0.07273544 1.1093395
v -0.089325525 0.03673105 1.1093395
v -0.12509501 0.03673105 1.1064928
v -0.12509501 0.07273544 1.1064928
v -0.029439485 -0.09826652 0.7393407
v -0.029439485 -0.06226213 0.7393407
v -0.10334795 -0.06226213 1.1857333
v -0.10334795 -0.09826652 1.1857333
v -0.029439485 -0.06226213 0.7393407
v 0.006330006 -0.06226213 0.7421876
v -0.06757846 -0.06226213 1.1885802
v -0.10334795 -0.06226213 1.1857333
v 0.006330006 -0.06226213 0.7421876
v 0.006330006 -0.09826652 0.7421876
v -0.06757846 -0.09826652 1.1885802
v -0.06757846 -0.06226213 1.1885802
v 0.006330006 -0.09826652 0.7421876
v -0.029439485 -0.09826652 0.7393407
v -0.10334795 -0.09826652 1.1857333
v -0.06757846 -0.09826652 1.1885802
v -0.029439485 -0.06226213 0.7393407
v -0.029439485 -0.09826652 0.7393407
v 0.006330006 -0.09826652 0.7421876
v 0.006330006 -0.06226213 0.7421876
v -0.06757846 -0.06226213 1.1885802
v -0.06757846 -0.09826652 1.1885802
v -0.10334795 -0.09826652 1.1857333
v -0.10334795 -0.06226213 1.1857333
v 0.05137903 -0.08075569 0.7601611
v 0.05137903 -0.0447513 0.7601611
v -0.022529442 -0.0447513 1.2065538
v -0.022529442 -0.08075569 1.2065538
v 0.05137903 -0.0447513 0.7601611
v 0.08714852 -0.0447513 0.76300806
v 0.013240055 -0.0447513 1.2094007
v -0.022529442 -0.0447513 1.2065538
v 0.08714852 -0.0447513 0.76300806
v 0.08714852 -0.08075569 0.76300806
v 0.013240055 -0.08075569 1.2094007
v 0.013240055 -0.0447513 1.2094007
v 0.08714852 -0.08075569 0.76300806
v 0.05137903 -0.08075569 0.7601611
v -0.022529442 -0.08075569 1.2065538
v 0.013240055 -0.08075569 1.2094007
v 0.05137903 -0.0447513 0.7601611
v 0.05137903 -0.08075569 0.7601611
v 0.08714852 -0.08075569 0.76300806
v 0.08714852 -0.0447513 0.76300806
v 0.013240055 -0.0447513 1.2094007
v 0.013240055 -0.08075569 1.2094007
v -0.022529442 -0.08075569 1.2065538
v -0.022529442 -0.0447513 1.2065538
v 0.04742241 0.084742755 0.6061087
v 0.04742241 0.12074714 0.6061087
v -0.026486063 0.12074714 1.0525014
v -0.026486063 0.084742755 1.0525014
v 0.04742241 0.12074714 0.6061087
v 0.083191894 0.12074714 0.6089556
v 0.009283432 0.12074714 1.0553483
v -0.026486063 0.12074714 1.0525014
v 0.083191894 0.12074714 0.6089556
v 0.083191894 0.084742755 0.6089556
v 0.009283432 0.084742755 1.0553483
v 0.009283432 0.12074714 1.0553483
v 0.083191894 0.084742755 0.6089556
v 0.04742241 0.084742755 0.6061087
v -0.026486063 0.084742755 1.0525014
v 0.009283432 0.084742755 1.0553483
v 0.04742241 0.12074714 0.6061087
v 0.04742241 0.084742755 0.6061087
v 0.083191894 0.084742755 0.6089556
v 0.083191894 0.12074714 0.6089556
v 0.009283432 0.12074714 1.0553483
v 0.009283432 0.084742755 1.0553483
v -0.026486063 0.084742755 1.0525014
v -0.026486063 0.12074714 1.0525014
v -0.06000238 -0.05576163 0.5821397
v -0.06000238 -0.019757247 0.5821397
v -0.13391085 -0.019757247 1.0285325
v -0.13391085 -0.05576163 1.0285325
v -0.06000238 -0.019757247 0.5821397
v -0.024232889 -0.019757247 0.5849866
v -0.09814135 -0.019757247 1.0313792
v -0.13391085 -0.019757247 1.0285325
v -0.024232889 -0.019757247 0.5849866
v -0.024232889 -0.05576163 0.5849866
v -0.09814135 -0.05576163 1.0313792
v -0.09814135 -0.019757247 1.0313792
v -0.024232889 -0.05576163 0.5849866
v -0.06000238 -0.05576163 0.5821397
v -0.13391085 -0.05576163 1.0285325
v -0.09814135 -0.05576163 1.0313792
v -0.06000238 -0.019757247 0.5821397
v -0.06000238 -0.05576163 0.5821397
v -0.024232889 -0.05576163 0.5849866
v -0.024232889 -0.019757247 0.5849866
v -0.09814135 -0.019757247 1.0313792
v -0.09814135 -0.05576163 1.0313792
v -0.13391085 -0.05576163 1.0285325
v -0.13391085 -0.019757247 1.0285325
v 0.11349794 0.0063110515 0.62437844
v 0.11349794 0.042315442 0.62437844
v 0.039589476 0.042315442 1.0707713
v 0.039589476 0.0063110515 1.0707713
v 0.11349794 0.042315442 0.62437844
v 0.14926744 0.042315442 0.62722534
v 0.07535897 0.042315442 1.073618
v 0.039589476 0.042315442 1.0707713
v 0.14926744 0.042315442 0.62722534
v 0.14926744 0.0063110515 0.62722534
v 0.07535897 0.0063110515 1.073618
v 0.07535897 0.042315442 1.073618
v 0.14926744 0.0063110515 0.62722534
v 0.11349794 0.0063110515 0.62437844
v 0.039589476 0.0063110515 1.0707713
v 0.07535897 0.0063110515 1.073618
v 0.11349794 0.042315442 0.62437844
v 0.11349794 0.0063110515 0.62437844
v 0.14926744 0.0063110515 0.62722534
v 0.14926744 0.042315442 0.62722534
v 0.07535897 0.042315442 1.073618
v 0.07535897 0.0063110515 1.073618
v 0.039589476 0.0063110515 1.0707713
v 0.039589476 0.042315442 1.0707713
vt 1 0.5
vt 0.9166667 1
vt 1 1
vt 0.9166667 0.5
vt 0.8333334 1
vt 0.8333334 0.5
vt 0.8333334 0.5
vt 0.75000006 0.5
vt 0.75000006 1
vt 0.8333334 1
vt 0.75000006 0.5
vt 0.66666675 0.5
vt 0.66666675 1
vt 0.75000006 1
vt 0.66666675 0.5
vt 0.58333343 1
vt 0.66666675 1
vt 0.58333343 0.5
vt 0.5000001 1
vt 0.5000001 0.5
vt 0.5000001 0.5
vt 0.41666678 0.5
vt 0.41666678 1
vt 0.5000001 1
vt 0.41666678 0.5
vt 0.33333343 1
vt 0.41666678 1
vt 0.33333343 0.5
vt 0.2500001 1
vt 0.2500001 0.5
vt 0.16666675 1
vt 0.16666675 0.5
vt 0.08333341 1
vt 0.08333341 0.5
vt 0.4578461 0.37
vt 0.49 0.24999999
vt 0.4578461 0.13
vt 0.37 0.4578461
vt 0.37 0.04215391
vt 0.24999999 0.010000005
vt 0.25 0.49
vt 0.12999997 0.45784608
vt 0.13000001 0.04215391
vt 0.042153895 0.13000003
vt 0.042153895 0.36999997
vt 0.010000005 0.25
vt 0.08333341 0.5
vt 7.4505806E-08 0.5
vt 7.4505806E-08 1
vt 0.08333341 1
vt 0.9578461 0.13
vt 0.99 0.24999999
vt 0.9578461 0.37
vt 0.87 0.04215391
vt 0.87 0.4578461
vt 0.75 0.010000005
vt 0.75 0.49
vt 0.63 0.04215391
vt 0.62999994 0.45784608
vt 0.5421539 0.13000003
vt 0.51 0.25
vt 0.5421539 0.36999997
vt 0.375 0
vt 0.375 0.25
vt 0.625 0.25
vt 0.625 0
vt 0.375 0.25
vt 0.375 0.5
vt 0.625 0.5
vt 0.625 0.25
vt 0.375 0.5
vt 0.375 0.75
vt 0.625 0.75
vt 0.625 0.5
vt 0.375 0.75
vt 0.375 1
vt 0.625 1
vt 0.625 0.75
vt 0.125 0.5
vt 0.125 0.75
vt 0.375 0.75
vt 0.375 0.5
vt 0.625 0.5
vt 0.625 0.75
vt 0.875 0.75
vt 0.875 0.5
vt 0.375 0
vt 0.375 0.25
vt 0.625 0.25
vt 0.625 0
vt 0.375 0.25
vt 0.375 0.5
vt 0.625 0.5
vt 0.625 0.25
vt 0.375 0.5
vt 0.375 0.75
vt 0.625 0.75
vt 0.625 0.5
vt 0.375 0.75
vt 0.375 1
vt 0.625 1
vt 0.625 0.75
vt 0.125 0.5
vt 0.125 0.75
vt 0.375 0.75
vt 0.375 0.5
vt 0.625 0.5
vt 0.625 0.75
vt 0.875 0.75
vt 0.875 0.5
vt 0.375 0
vt 0.375 0.25
vt 0.625 0.25
vt 0.625 0
vt 0.375 0.25
vt 0.375 0.5
vt 0.625 0.5
vt 0.625 0.25
vt 0.375 0.5
vt 0.375 0.75
vt 0.625 0.75
vt 0.625 0.5
vt 0.375 0.75
vt 0.375 1
vt 0.625 1
vt 0.625 0.75
vt 0.125 0.5
vt 0.125 0.75
vt 0.375 0.75
vt 0.375 0.5
vt 0.625 0.5
vt 0.625 0.75
vt 0.875 0.75
vt 0.875 0.5
vt 0.375 0
vt 0.375 0.25
vt 0.625 0.25
vt 0.625 0
vt 0.375 0.25
vt 0.375 0.5
vt 0.625 0.5
vt 0.625 0.25
vt 0.375 0.5
vt 0.375 0.75
vt 0.625 0.75
vt 0.625 0.5
vt 0.375 0.75
vt 0.375 1
vt 0.625 1
vt 0.625 0.75
vt 0.125 0.5
vt 0.125 0.75
vt 0.375 0.75
vt 0.375 0.5
vt 0.625 0.5
vt 0.625 0.75
vt 0.875 0.75
vt 0.875 0.5
vt 0.375 0
vt 0.375 0.25
vt 0.625 0.25
vt 0.625 0
vt 0.375 0.25
vt 0.375 0.5
vt 0.625 0.5
vt 0.625 0.25
vt 0.375 0.5
vt 0.375 0.75
vt 0.625 0.75
vt 0.625 0.5
vt 0.375 0.75
vt 0.375 1
vt 0.625 1
vt 0.625 0.75
vt 0.125 0.5
vt 0.125 0.75
vt 0.375 0.75
vt 0.375 0.5
vt 0.625 0.5
vt 0.625 0.75
vt 0.875 0.75
vt 0.875 0.5
vt 0.375 0
vt 0.375 0.25
vt 0.625 0.25
vt 0.625 0
vt 0.375 0.25
vt 0.375 0.5
vt 0.625 0.5
vt 0.625 0.25
vt 0.375 0.5
vt 0.375 0.75
vt 0.625 0.75
vt 0.625 0.5
vt 0.375 0.75
vt 0.375 1
vt 0.625 1
vt 0.625 0.75
vt 0.125 0.5
vt 0.125 0.75
vt 0.375 0.75
vt 0.375 0.5
vt 0.625 0.5
vt 0.625 0.75
vt 0.875 0.75
vt 0.875 0.5
vt 0.375 0
vt 0.375 0.25
vt 0.625 0.25
vt 0.625 0
vt 0.375 0.25
vt 0.375 0.5
vt 0.625 0.5
vt 0.625 0.25
vt 0.375 0.5
vt 0.375 0.75
vt 0.625 0.75
vt 0.625 0.5
vt 0.375 0.75
vt 0.375 1
vt 0.625 1
vt 0.625 0.75
vt 0.125 0.5
vt 0.125 0.75
vt 0.375 0.75
vt 0.375 0.5
vt 0.625 0.5
vt 0.625 0.75
vt 0.875 0.75
vt 0.875 0.5
vn 0.28964072 0.9538885 -0.07877224
vn 0.4163003 0.90695584 -0.06422639
vn 0.28964072 0.9538885 -0.07877224
vn 0.42070958 0.90495753 -0.06368156
vn 0.54580396 0.8365941 -0.046991717
vn 0.54580396 0.8365941 -0.046991717
vn 0.94955873 0.31344268 0.009591351
vn 0.94955873 0.31344268 0.009591351
vn 0.94955873 0.31344268 0.009591351
vn 0.94955873 0.31344268 0.009591351
vn 0.949559 -0.31344172 0.009591372
vn 0.949559 -0.31344172 0.009591372
vn 0.949559 -0.31344172 0.009591372
vn 0.949559 -0.31344172 0.009591372
vn 0.54580396 -0.8365941 -0.046991773
vn 0.41859013 -0.9059276 -0.06385482
vn 0.54580396 -0.8365941 -0.046991773
vn 0.42244497 -0.9041699 -0.06337996
vn 0.2942568 -0.95252925 -0.078109086
vn 0.2942568 -0.95252925 -0.078109086
vn -0.27325112 -0.95606357 -0.106190346
vn -0.27325112 -0.95606357 -0.106190346
vn -0.27325112 -0.95606357 -0.106190346
vn -0.27325112 -0.95606357 -0.106190346
vn -0.73507065 -0.6638898 -0.13755529
vn -0.8739083 -0.46177804 -0.15180744
vn -0.73507065 -0.6638898 -0.13755529
vn -0.881757 -0.44638216 -0.15247096
vn -0.986476 -0.044178836 -0.15783983
vn -0.98578274 -0.057249635 -0.15797088
vn -0.9077325 0.39366964 -0.14507225
vn -0.9198473 0.3638737 -0.1465498
vn -0.7780553 0.61502117 -0.12797979
vn -0.7780553 0.61502117 -0.12797979
vn 0.001247346 0 0.9999993
vn 0.001247346 0 0.9999993
vn 0.001247346 0 0.9999993
vn 0.001247346 0 0.9999993
vn 0.001247346 0 0.9999993
vn 0.001247346 0 0.9999993
vn 0.001247346 0 0.9999993
vn 0.001247346 0 0.9999993
vn 0.001247346 0 0.9999993
vn 0.001247346 0 0.9999993
vn 0.001247346 0 0.9999993
vn 0.001247346 0 0.9999993
vn -0.23883648 0.9657326 -0.10157634
vn -0.23883648 0.9657326 -0.10157634
vn -0.23883648 0.9657326 -0.10157634
vn -0.23883648 0.9657326 -0.10157634
vn 0.16069736 0.017150799 -0.9868547
vn 0.16069736 0.017150799 -0.9868547
vn 0.16069736 0.017150799 -0.9868547
vn 0.16069736 0.017150799 -0.9868547
vn 0.16069736 0.017150799 -0.9868547
vn 0.16069736 0.017150799 -0.9868547
vn 0.16069736 0.017150799 -0.9868547
vn 0.16069736 0.017150799 -0.9868547
vn 0.16069736 0.017150799 -0.9868547
vn 0.16069736 0.017150799 -0.9868547
vn 0.16069736 0.017150799 -0.9868547
vn 0.16069736 0.017150799 -0.9868547
vn -0.98656905 0 -0.1633446
vn -0.98656905 0 -0.1633446
vn -0.98656905 0 -0.1633446
vn -0.98656905 0 -0.1633446
vn -0 1 0
vn -0 1 0
vn -0 1 0
vn -0 1 0
vn 0.98656905 0 0.1633446
vn 0.98656905 0 0.1633446
vn 0.98656905 0 0.1633446
vn 0.98656905 0 0.1633446
vn -0 -1 0
vn -0 -1 0
vn -0 -1 0
vn -0 -1 0
vn 0.079336755 0 -0.9968478
vn 0.079336755 0 -0.9968478
vn 0.079336755 0 -0.9968478
vn 0.079336755 0 -0.9968478
vn -0.07933389 0 0.99684805
vn -0.07933389 0 0.99684805
vn -0.07933389 0 0.99684805
vn -0.07933389 0 0.99684805
vn -0.98656905 0 -0.16334456
vn -0.98656905 0 -0.16334456
vn -0.98656905 0 -0.16334456
vn -0.98656905 0 -0.16334456
vn -0 1 0
vn -0 1 0
vn -0 1 0
vn -0 1 0
vn 0.98656905 0 0.16334465
vn 0.98656905 0 0.16334465
vn 0.98656905 0 0.16334465
vn 0.98656905 0 0.16334465
vn -0 -1 0
vn -0 -1 0
vn -0 -1 0
vn -0 -1 0
vn 0.07934104 0 -0.99684745
vn 0.07934104 0 -0.99684745
vn 0.07934104 0 -0.99684745
vn 0.07934104 0 -0.99684745
vn -0.0793339 0 0.99684805
vn -0.0793339 0 0.99684805
vn -0.0793339 0 0.99684805
vn -0.0793339 0 0.99684805
vn -0.98656905 0 -0.16334453
vn -0.98656905 0 -0.16334453
vn -0.98656905 0 -0.16334453
vn -0.98656905 0 -0.16334453
vn -0 1 0
vn -0 1 0
vn -0 1 0
vn -0 1 0
vn 0.98656905 0 0.16334455
vn 0.98656905 0 0.16334455
vn 0.98656905 0 0.16334455
vn 0.98656905 0 0.16334455
vn -0 -1 0
vn -0 -1 0
vn -0 -1 0
vn -0 -1 0
vn 0.07933819 0 -0.9968477
vn 0.07933819 0 -0.9968477
vn 0.07933819 0 -0.9968477
vn 0.07933819 0 -0.9968477
vn -0.07933677 0 0.9968478
vn -0.07933677 0 0.9968478
vn -0.07933677 0 0.9968478
vn -0.07933677 0 0.9968478
vn -0.98656905 0 -0.16334455
vn -0.98656905 0 -0.16334455
vn -0.98656905 0 -0.16334455
vn -0.98656905 0 -0.16334455
vn -0 1 0
vn -0 1 0
vn -0 1 0
vn -0 1 0
vn 0.98656905 0 0.16334455
vn 0.98656905 0 0.16334455
vn 0.98656905 0 0.16334455
vn 0.98656905 0 0.16334455
vn -0 -1 0
vn -0 -1 0
vn -0 -1 0
vn -0 -1 0
vn 0.07934108 0 -0.99684745
vn 0.07934108 0 -0.99684745
vn 0.07934108 0 -0.99684745
vn 0.07934108 0 -0.99684745
vn -0.079339616 0 0.99684757
vn -0.079339616 0 0.99684757
vn -0.079339616 0 0.99684757
vn -0.079339616 0 0.99684757
vn -0.98656905 0 -0.16334453
vn -0.98656905 0 -0.16334453
vn -0.98656905 0 -0.16334453
vn -0.98656905 0 -0.16334453
vn -0 1 0
vn -0 1 0
vn -0 1 0
vn -0 1 0
vn 0.98656905 0 0.16334453
vn 0.98656905 0 0.16334453
vn 0.98656905 0 0.16334453
vn 0.98656905 0 0.16334453
vn -0 -1 0
vn -0 -1 0
vn -0 -1 0
vn -0 -1 0
vn 0.07933823 0 -0.9968477
vn 0.07933823 0 -0.9968477
vn 0.07933823 0 -0.9968477
vn 0.07933823 0 -0.9968477
vn -0.07933677 0 0.9968478
vn -0.07933677 0 0.9968478
vn -0.07933677 0 0.9968478
vn -0.07933677 0 0.9968478
vn -0.98656905 0 -0.1633445
vn -0.98656905 0 -0.1633445
vn -0.98656905 0 -0.1633445
vn -0.98656905 0 -0.1633445
vn -0 1 0
vn -0 1 0
vn -0 1 0
vn -0 1 0
vn 0.98656905 0 0.16334455
vn 0.98656905 0 0.16334455
vn 0.98656905 0 0.16334455
vn 0.98656905 0 0.16334455
vn -0 -1 0
vn -0 -1 0
vn -0 -1 0
vn -0 -1 0
vn 0.07934106 0 -0.99684745
vn 0.07934106 0 -0.99684745
vn 0.07934106 0 -0.99684745
vn 0.07934106 0 -0.99684745
vn -0.07933677 0 0.9968478
vn -0.07933677 0 0.9968478
vn -0.07933677 0 0.9968478
vn -0.07933677 0 0.9968478
vn -0.98656917 0 -0.16334446
vn -0.98656917 0 -0.16334446
vn -0.98656917 0 -0.16334446
vn -0.98656917 0 -0.16334446
vn -0 1 0
vn -0 1 0
vn -0 1 0
vn -0 1 0
vn 0.98656905 0 0.1633445
vn 0.98656905 0 0.1633445
vn 0.98656905 0 0.1633445
vn 0.98656905 0 0.1633445
vn -0 -1 0
vn -0 -1 0
vn -0 -1 0
vn -0 -1 0
vn 0.07933962 0 -0.99684757
vn 0.07933962 0 -0.99684757
vn 0.07933962 0 -0.99684757
vn 0.07933962 0 -0.99684757
vn -0.079333894 0 0.99684805
vn -0.079333894 0 0.99684805
vn -0.079333894 0 0.99684805
vn -0.079333894 0 0.99684805
g Quiver_0
f 3/3/3 2/2/2 1/1/1
f 2/2/2 4/4/4 1/1/1
f 2/2/2 5/5/5 4/4/4
f 5/5/5 6/6/6 4/4/4
f 9/9/9 8/8/8 7/7/7
f 10/10/10 9/9/9 7/7/7
f 13/13/13 12/12/12 11/11/11
f 14/14/14 13/13/13 11/11/11
f 17/17/17 16/16/16 15/15/15
f 16/16/16 18/18/18 15/15/15
f 16/16/16 19/19/19 18/18/18
f 19/19/19 20/20/20 18/18/18
f 23/23/23 22/22/22 21/21/21
f 24/24/24 23/23/23 21/21/21
f 27/27/27 26/26/26 25/25/25
f 26/26/26 28/28/28 25/25/25
f 26/26/26 29/29/29 28/28/28
f 29/29/29 30/30/30 28/28/28
f 29/29/29 31/31/31 30/30/30
f 31/31/31 32/32/32 30/30/30
f 31/31/31 33/33/33 32/32/32
f 33/33/33 34/34/34 32/32/32
f 37/37/37 36/36/36 35/35/35
f 35/35/35 38/38/38 37/37/37
f 38/38/38 39/39/39 37/37/37
f 38/38/38 40/40/40 39/39/39
f 38/38/38 41/41/41 40/40/40
f 41/41/41 42/42/42 40/40/40
f 42/42/42 43/43/43 40/40/40
f 42/42/42 44/44/44 43/43/43
f 42/42/42 45/45/45 44/44/44
f 45/45/45 46/46/46 44/44/44
f 49/49/49 48/48/48 47/47/47
f 50/50/50 49/49/49 47/47/47
f 53/53/53 52/52/52 51/51/51
f 51/51/51 54/54/54 53/53/53
f 54/54/54 55/55/55 53/53/53
f 54/54/54 56/56/56 55/55/55
f 56/56/56 57/57/57 55/55/55
f 56/56/56 58/58/58 57/57/57
f 58/58/58 59/59/59 57/57/57
f 58/58/58 60/60/60 59/59/59
f 60/60/60 61/61/61 59/59/59
f 61/61/61 62/62/62 59/59/59
f 65/65/65 64/64/64 63/63/63
f 66/66/66 65/65/65 63/63/63
f 69/69/69 68/68/68 67/67/67
f 70/70/70 69/69/69 67/67/67
f 73/73/73 72/72/72 71/71/71
f 74/74/74 73/73/73 71/71/71
f 77/77/77 76/76/76 75/75/75
f 78/78/78 77/77/77 75/75/75
f 81/81/81 80/80/80 79/79/79
f 82/82/82 81/81/81 79/79/79
f 85/85/85 84/84/84 83/83/83
f 86/86/86 85/85/85 83/83/83
f 89/89/89 88/88/88 87/87/87
f 90/90/90 89/89/89 87/87/87
f 93/93/93 92/92/92 91/91/91
f 94/94/94 93/93/93 91/91/91
f 97/97/97 96/96/96 95/95/95
f 98/98/98 97/97/97 95/95/95
f 101/101/101 100/100/100 99/99/99
f 102/102/102 101/101/101 99/99/99
f 105/105/105 104/104/104 103/103/103
f 106/106/106 105/105/105 103/103/103
f 109/109/109 108/108/108 107/107/107
f 110/110/110 109/109/109 107/107/107
f 113/113/113 112/112/112 111/111/111
f 114/114/114 113/113/113 111/111/111
f 117/117/117 116/116/116 115/115/115
f 118/118/118 117/117/117 115/115/115
f 121/121/121 120/120/120 119/119/119
f 122/122/122 121/121/121 119/119/119
f 125/125/125 124/124/124 123/123/123
f 126/126/126 125/125/125 123/123/123
f 129/129/129 128/128/128 127/127/127
f 130/130/130 129/129/129 127/127/127
f 133/133/133 132/132/132 131/131/131
f 134/134/134 133/133/133 131/131/131
f 137/137/137 136/136/136 135/135/135
f 138/138/138 137/137/137 135/135/135
f 141/141/141 140/140/140 139/139/139
f 142/142/142 141/141/141 139/139/139
f 145/145/145 144/144/144 143/143/143
f 146/146/146 145/145/145 143/143/143
f 149/149/149 148/148/148 147/147/147
f 150/150/150 149/149/149 147/147/147
f 153/153/153 152/152/152 151/151/151
f 154/154/154 153/153/153 151/151/151
f 157/157/157 156/156/156 155/155/155
f 158/158/158 157/157/157 155/155/155
f 161/161/161 160/160/160 159/159/159
f 162/162/162 161/161/161 159/159/159
f 165/165/165 164/164/164 163/163/163
f 166/166/166 165/165/165 163/163/163
f 169/169/169 168/168/168 167/167/167
f 170/170/170 169/169/169 167/167/167
f 173/173/173 172/172/172 171/171/171
f 174/174/174 173/173/173 171/171/171
f 177/177/177 176/176/176 175/175/175
f 178/178/178 177/177/177 175/175/175
f 181/181/181 180/180/180 179/179/179
f 182/182/182 181/181/181 179/179/179
f 185/185/185 184/184/184 183/183/183
f 186/186/186 185/185/185 183/183/183
f 189/189/189 188/188/188 187/187/187
f 190/190/190 189/189/189 187/187/187
f 193/193/193 192/192/192 191/191/191
f 194/194/194 193/193/193 191/191/191
f 197/197/197 196/196/196 195/195/195
f 198/198/198 197/197/197 195/195/195
f 201/201/201 200/200/200 199/199/199
f 202/202/202 201/201/201 199/199/199
f 205/205/205 204/204/204 203/203/203
f 206/206/206 205/205/205 203/203/203
f 209/209/209 208/208/208 207/207/207
f 210/210/210 209/209/209 207/207/207
f 213/213/213 212/212/212 211/211/211
f 214/214/214 213/213/213 211/211/211
f 217/217/217 216/216/216 215/215/215
f 218/218/218 217/217/217 215/215/215
f 221/221/221 220/220/220 219/219/219
f 222/222/222 221/221/221 219/219/219
f 225/225/225 224/224/224 223/223/223
f 226/226/226 225/225/225 223/223/223
f 229/229/229 228/228/228 227/227/227
f 230/230/230 229/229/229 227/227/227
