g Racer
v -3.758534E-07 -0.15427382 1.1771905
v -0.052765384 -0.14497001 1.1771905
v -4.176164E-07 5.409101E-07 1.1975011
v -2.949319E-07 -0.29803467 1.1176428
v -0.10193444 -0.28006095 1.1176428
v -0.0991661 -0.11818055 1.1771905
v -4.176164E-07 5.409101E-07 1.1975011
v 0.101933725 -0.28006086 1.1176428
v 0.052764554 -0.14496991 1.1771905
v -4.176164E-07 5.409101E-07 1.1975011
v -1.8006827E-07 -0.4214848 1.0229162
v 0.14415625 -0.39606604 1.0229162
v -0.19157374 -0.22830771 1.1176428
v -0.14415687 -0.3960662 1.0229162
v -0.13360599 -0.077136725 1.1771905
v -4.176164E-07 5.409101E-07 1.1975011
v 0.19157298 -0.2283076 1.1176428
v 0.27092528 -0.3228758 1.0229162
v 0.09916525 -0.11818045 1.1771905
v -4.176164E-07 5.409101E-07 1.1975011
v 0.17655464 -0.48507997 0.899466
v -2.2497913E-07 -0.5162114 0.899466
v 0.33181432 -0.39544064 0.899466
v -0.27092597 -0.32287604 1.0229162
v -0.25810647 -0.14901714 1.1176428
v -0.1765553 -0.48508018 0.899466
v -0.15193106 -0.026789008 1.1771905
v -4.176164E-07 5.409101E-07 1.1975011
v 0.19692115 -0.54103655 0.75570524
v 0.37009087 -0.44105682 0.75570524
v -2.1598768E-07 -0.5757591 0.75570524
v 0.44705227 -0.25810525 0.899466
v 0.49862215 -0.2878791 0.75570524
v 0.36501664 -0.2107419 1.0229162
v 0.25810567 -0.14901695 1.1176428
v 0.1336051 -0.07713659 1.1771905
v -4.176164E-07 5.409101E-07 1.1975011
v 0.38314632 -0.4566156 0.60143095
v 0.20386781 -0.56012213 0.60143095
v 0.5162116 -0.29803437 0.60143095
v 0.5083691 -0.089638546 0.899466
v 0.41508156 -0.07318938 1.0229162
v 0.29350692 -0.051752612 1.1176428
v 0.56701213 -0.0999789 0.75570524
v 0.58701414 -0.10350576 0.60143095
v 0.15193012 -0.026788872 1.1771905
v -4.176164E-07 5.409101E-07 1.1975011
v 0.41508153 0.07319093 1.0229162
v 0.2935069 0.051753916 1.1176428
v 0.15193011 0.026790047 1.1771905
v -4.176164E-07 5.409101E-07 1.1975011
v 0.508369 0.08963996 0.899466
v 0.5670121 0.099980325 0.75570524
v 0.5870141 0.10350725 0.60143095
v 0.5670121 0.099980325 0.44715655
v 0.56701213 -0.0999789 0.44715655
v 0.5083689 0.08964 0.30339578
v 0.50836897 -0.08963848 0.30339578
v 0.41508153 0.07319093 0.1799456
v 0.49862215 -0.2878791 0.44715655
v 0.41508156 -0.07318938 0.1799456
v 0.29350692 0.051753946 0.08521895
v 0.4470522 -0.2581052 0.30339578
v 0.37009087 -0.44105682 0.44715655
v 0.29350695 -0.05175259 0.08521895
v 0.15193018 0.02679004 0.025671305
v 0.36501664 -0.2107419 0.1799456
v 0.33181426 -0.39544052 0.30339578
v 0.19692115 -0.54103655 0.44715655
v 0.1519302 -0.026788903 0.025671305
v -4.6274505E-07 5.14855E-07 0.0053606676
v 0.25810573 -0.14901695 0.08521895
v 0.27092528 -0.3228758 0.1799456
v 0.13360514 -0.07713666 0.025671305
v -4.6274505E-07 5.14855E-07 0.0053606676
v 0.19157302 -0.2283076 0.08521895
v 0.17655459 -0.48507982 0.30339578
v -1.8331383E-07 -0.5960697 0.60143095
v 0.099165276 -0.11818052 0.025671305
v -4.6274505E-07 5.14855E-07 0.0053606676
v 0.14415625 -0.39606604 0.1799456
v -2.1598768E-07 -0.5757591 0.44715655
v -0.19692177 -0.54103667 0.75570524
v 0.10193377 -0.2800609 0.08521895
v -2.1017556E-07 -0.51621133 0.30339578
v -0.2038684 -0.5601224 0.60143095
v -0.3318151 -0.39544094 0.899466
v 0.052764546 -0.14497 0.025671305
v -4.6274505E-07 5.14855E-07 0.0053606676
v -1.8006827E-07 -0.4214848 0.1799456
v -0.19692177 -0.54103667 0.44715655
v -0.37009156 -0.44105712 0.75570524
v -0.36501744 -0.21074225 1.0229162
v -4.1774297E-07 -0.29803467 0.08521895
v -0.17655528 -0.4850801 0.30339578
v -0.38314697 -0.45661587 0.60143095
v -0.44705316 -0.2581056 0.899466
v -0.2935078 -0.051752824 1.1176428
v -4.3945025E-07 -0.15427391 0.025671305
v -4.6274505E-07 5.14855E-07 0.0053606676
v -0.37009156 -0.44105712 0.44715655
v -0.49862286 -0.2878795 0.75570524
v -0.4150825 -0.07318974 1.0229162
v -0.15193108 0.026789924 1.1771905
v -4.176164E-07 5.409101E-07 1.1975011
v -0.29350784 0.051753707 1.1176428
v -0.50837004 -0.08963888 0.899466
v -0.5162124 -0.29803476 0.60143095
v -0.13360603 0.07713765 1.1771905
v -4.176164E-07 5.409101E-07 1.1975011
v -0.41508254 0.07319057 1.0229162
v -0.567013 -0.09997928 0.75570524
v -0.2581066 0.14901803 1.1176428
v -0.50837004 0.08963967 0.899466
v -0.099166155 0.1181815 1.1771905
v -4.176164E-07 5.409101E-07 1.1975011
v -0.3650176 0.21074307 1.0229162
v -0.19157389 0.22830865 1.1176428
v -0.052765466 0.14497098 1.1771905
v -4.176164E-07 5.409101E-07 1.1975011
v -0.5870151 -0.10350613 0.60143095
v -0.567013 0.099979945 0.75570524
v -0.44705322 0.2581064 0.899466
v -0.2709262 0.32287696 1.0229162
v -0.1019346 0.28006196 1.1176428
v -0.49862286 -0.2878795 0.44715655
v -5.260679E-07 0.15427488 1.1771905
v -4.176164E-07 5.409101E-07 1.1975011
v -0.33181506 -0.39544085 0.30339578
v -0.14415687 -0.3960662 0.1799456
v -0.101934455 -0.280061 0.08521895
v -0.27092597 -0.32287604 0.1799456
v -0.44705313 -0.25810555 0.30339578
v -0.0527654 -0.14497004 0.025671305
v -4.6274505E-07 5.14855E-07 0.0053606676
v -0.19157374 -0.22830774 0.08521895
v -0.567013 -0.09997928 0.44715655
v -0.36501744 -0.21074225 0.1799456
v -0.099166125 -0.11818058 0.025671305
v -4.6274505E-07 5.14855E-07 0.0053606676
v -0.2581065 -0.14901717 0.08521895
v -0.50837 -0.089638844 0.30339578
v -0.5870151 0.10350688 0.60143095
v -0.13360602 -0.07713674 0.025671305
v -4.6274505E-07 5.14855E-07 0.0053606676
v -0.4150825 -0.07318974 0.1799456
v -0.567013 0.099979945 0.44715655
v -0.49862292 0.28788012 0.75570524
v -0.29350784 -0.051752847 0.08521895
v -0.50837 0.08963967 0.30339578
v -0.5162125 0.2980355 0.60143095
v -0.33181527 0.3954417 0.899466
v -0.1519311 -0.026789008 0.025671305
v -4.6274505E-07 5.14855E-07 0.0053606676
v -0.41508254 0.07319057 0.1799456
v -0.49862292 0.28788012 0.44715655
v -0.37009174 0.4410578 0.75570524
v -0.14415713 0.39606717 1.0229162
v -0.29350787 0.051753696 0.08521895
v -0.4470532 0.25810638 0.30339578
v -0.38314718 0.4566167 0.60143095
v -0.17655554 0.48508102 0.899466
v -5.6257875E-07 0.29803574 1.1176428
v -0.15193112 0.026789939 0.025671305
v -4.6274505E-07 5.14855E-07 0.0053606676
v -0.37009174 0.4410578 0.44715655
v -0.196922 0.5410375 0.75570524
v -6.6263874E-07 0.42148587 1.0229162
v 0.052764416 0.14497103 1.1771905
v -4.176164E-07 5.409101E-07 1.1975011
v 0.10193349 0.28006208 1.1176428
v -6.621385E-07 0.51621246 0.899466
v -0.2038687 0.56012315 0.60143095
v 0.099165134 0.11818158 1.1771905
v -4.176164E-07 5.409101E-07 1.1975011
v 0.14415583 0.39606732 1.0229162
v -6.563264E-07 0.57576007 0.75570524
v 0.19157282 0.22830883 1.1176428
v 0.17655422 0.48508117 0.899466
v 0.13360502 0.07713775 1.1771905
v -4.176164E-07 5.409101E-07 1.1975011
v 0.2709249 0.32287717 1.0229162
v 0.25810555 0.14901823 1.1176428
v 0.15193011 0.026790047 1.1771905
v -4.176164E-07 5.409101E-07 1.1975011
v 0.2935069 0.051753916 1.1176428
v 0.36501643 0.21074341 1.0229162
v 0.41508153 0.07319093 1.0229162
v 0.331814 0.39544192 0.899466
v 0.44705206 0.25810665 0.899466
v 0.508369 0.08963996 0.899466
v 0.19692072 0.5410376 0.75570524
v 0.37009048 0.4410581 0.75570524
v 0.49862188 0.2878805 0.75570524
v 0.5670121 0.099980325 0.75570524
v -6.7419677E-07 0.5960707 0.60143095
v 0.20386733 0.5601234 0.60143095
v 0.3831459 0.4566169 0.60143095
v 0.51621133 0.29803583 0.60143095
v 0.5870141 0.10350725 0.60143095
v -0.196922 0.5410375 0.44715655
v -6.563264E-07 0.57576007 0.44715655
v 0.19692072 0.5410376 0.44715655
v 0.37009048 0.4410581 0.44715655
v 0.49862188 0.2878805 0.44715655
v 0.5670121 0.099980325 0.44715655
v -0.3318152 0.39544168 0.30339578
v -0.17655551 0.485081 0.30339578
v -6.621385E-07 0.5162124 0.30339578
v 0.17655419 0.48508108 0.30339578
v 0.33181393 0.3954419 0.30339578
v 0.44705197 0.25810662 0.30339578
v 0.5083689 0.08964 0.30339578
v -0.3650176 0.21074307 0.1799456
v -0.2709262 0.32287696 0.1799456
v -0.25810665 0.14901803 0.08521895
v 0.36501643 0.21074341 0.1799456
v 0.41508153 0.07319093 0.1799456
v 0.2709249 0.32287717 0.1799456
v -0.14415713 0.39606717 0.1799456
v -0.13360606 0.07713768 0.025671305
v -4.6274505E-07 5.14855E-07 0.0053606676
v -0.19157393 0.2283087 0.08521895
v 0.25810555 0.14901827 0.08521895
v 0.29350692 0.051753946 0.08521895
v -6.6263874E-07 0.42148587 0.1799456
v -0.099166185 0.11818155 0.025671305
v -4.6274505E-07 5.14855E-07 0.0053606676
v -0.10193464 0.280062 0.08521895
v 0.14415583 0.39606732 0.1799456
v 0.1915728 0.22830884 0.08521895
v -0.05276547 0.14497103 0.025671305
v -4.6274505E-07 5.14855E-07 0.0053606676
v -5.921859E-07 0.29803574 0.08521895
v 0.101933464 0.2800621 0.08521895
v -5.1866607E-07 0.15427493 0.025671305
v -4.6274505E-07 5.14855E-07 0.0053606676
v 0.052764438 0.14497107 0.025671305
v -4.6274505E-07 5.14855E-07 0.0053606676
v 0.09916518 0.1181816 0.025671305
v -4.6274505E-07 5.14855E-07 0.0053606676
v 0.13360508 0.077137776 0.025671305
v -4.6274505E-07 5.14855E-07 0.0053606676
v 0.15193018 0.02679004 0.025671305
v -4.6274505E-07 5.14855E-07 0.0053606676
v -1.5017214E-07 0.99454516 0.01968255
v -0.08426272 0.8485981 0.06483877
v -1.2472556E-07 0.82602 0.06483877
v -0.14594717 0.7417574 0.18820764
v -1.06097374E-07 0.70265114 0.18820764
v 0.08426245 0.8485981 0.06483877
v -1.5017214E-07 0.99454516 0.01968255
v -0.25278783 0.84859806 0.18820764
v -0.14594722 0.91028255 0.06483877
v -1.5017214E-07 0.99454516 0.01968255
v -0.16852526 0.70265114 0.3567328
v -0.29189423 0.82601994 0.3567328
v 0.14594692 0.7417574 0.18820764
v -9.9278964E-08 0.65749484 0.3567328
v 0.14594695 0.91028255 0.06483877
v -1.5017214E-07 0.99454516 0.01968255
v -0.29189426 0.9945451 0.18820764
v -0.3370504 0.9945451 0.3567328
v -0.16852534 0.99454516 0.06483877
v -1.5017214E-07 0.99454516 0.01968255
v -0.25278786 0.84859806 0.52525795
v -0.1459472 0.7417574 0.52525795
v -0.29189426 0.9945451 0.52525795
v 0.2527876 0.8485982 0.18820764
v 0.16852494 0.70265114 0.3567328
v 0.16852504 0.99454516 0.06483877
v -1.5017214E-07 0.99454516 0.01968255
v 0.29189396 0.9945452 0.18820764
v 0.2918939 0.82602006 0.3567328
v 0.33705005 0.99454516 0.3567328
v -1.0408884E-07 0.70265114 0.52525795
v 0.2527876 0.8485982 0.52525795
v 0.29189396 0.9945452 0.52525795
v 0.14594693 0.7417574 0.52525795
v 0.14594689 0.91028255 0.64862686
v 0.16852498 0.99454516 0.64862686
v -1.5017214E-07 0.99454516 0.6937831
v 0.08426241 0.8485981 0.64862686
v -1.5017214E-07 0.99454516 0.6937831
v -1.2472556E-07 0.82602 0.64862686
v -1.5017214E-07 0.99454516 0.6937831
v -0.08426271 0.8485981 0.64862686
v -1.5017214E-07 0.99454516 0.6937831
v -0.14594722 0.91028255 0.64862686
v -1.5017214E-07 0.99454516 0.6937831
v -0.16852531 0.99454516 0.64862686
v -1.5017214E-07 0.99454516 0.6937831
v -0.14594722 1.0788077 0.64862686
v -1.5017214E-07 0.99454516 0.6937831
v -0.25278792 1.1404922 0.52525795
v -0.08426275 1.1404922 0.64862686
v -1.5017214E-07 0.99454516 0.6937831
v -0.29189423 1.1630703 0.3567328
v -0.14594728 1.2473328 0.52525795
v -0.2527879 1.1404922 0.18820764
v -1.736102E-07 1.1630703 0.64862686
v -1.5017214E-07 0.99454516 0.6937831
v -0.16852528 1.2864392 0.3567328
v -0.14594725 1.0788077 0.06483877
v -1.5017214E-07 0.99454516 0.01968255
v -2.0897988E-07 1.2864394 0.52525795
v -0.14594725 1.2473328 0.18820764
v 0.08426239 1.1404922 0.64862686
v -1.5017214E-07 0.99454516 0.6937831
v -1.6557385E-07 1.3315954 0.3567328
v -0.084262766 1.1404922 0.06483877
v -1.5017214E-07 0.99454516 0.01968255
v 0.14594685 1.2473328 0.52525795
v -1.9223842E-07 1.2864394 0.18820764
v 0.14594688 1.0788077 0.64862686
v -1.5017214E-07 0.99454516 0.6937831
v 0.16852497 1.2864392 0.3567328
v -1.736102E-07 1.1630703 0.06483877
v -1.5017214E-07 0.99454516 0.01968255
v 0.25278753 1.1404922 0.52525795
v 0.14594686 1.2473328 0.18820764
v 0.16852498 0.99454516 0.64862686
v -1.5017214E-07 0.99454516 0.6937831
v 0.29189396 0.9945452 0.52525795
v 0.2918939 1.1630702 0.3567328
v 0.33705005 0.99454516 0.3567328
v 0.25278753 1.1404922 0.18820764
v 0.29189396 0.9945452 0.18820764
v 0.08426242 1.1404922 0.06483877
v -1.5017214E-07 0.99454516 0.01968255
v 0.14594692 1.0788077 0.06483877
v -1.5017214E-07 0.99454516 0.01968255
v 0.16852504 0.99454516 0.06483877
v -1.5017214E-07 0.99454516 0.01968255
v -7.803264E-08 1.6126553 0.020102106
v -0.054922823 1.5175264 0.049535137
v -6.14464E-08 1.5028096 0.049535137
v -0.09512902 1.4478871 0.12994753
v -4.9304504E-08 1.4223975 0.12994753
v 0.05492268 1.5175264 0.049535137
v -7.803264E-08 1.6126553 0.020102106
v -0.16476826 1.5175264 0.12994753
v -0.095129065 1.5577325 0.049535137
v -7.803264E-08 1.6126553 0.020102106
v -0.109845534 1.4223975 0.23979305
v -0.19025801 1.5028099 0.23979305
v 0.09512891 1.4478871 0.12994753
v -4.4860215E-08 1.3929644 0.23979305
v 0.09512892 1.5577325 0.049535137
v -7.803264E-08 1.6126553 0.020102106
v -0.19025803 1.6126553 0.12994753
v -0.21969104 1.6126553 0.23979305
v -0.109845586 1.6126553 0.049535137
v -7.803264E-08 1.6126553 0.020102106
v -0.1647683 1.5175264 0.3496385
v -0.09512904 1.4478871 0.3496385
v -0.19025803 1.6126553 0.3496385
v 0.16476816 1.5175264 0.12994753
v 0.10984536 1.4223975 0.23979305
v 0.10984543 1.6126553 0.049535137
v -7.803264E-08 1.6126553 0.020102106
v 0.19025786 1.6126553 0.12994753
v 0.19025782 1.5028099 0.23979305
v 0.21969083 1.6126553 0.23979305
v -4.79953E-08 1.4223975 0.3496385
v 0.16476816 1.5175264 0.3496385
v 0.19025786 1.6126553 0.3496385
v 0.09512892 1.4478871 0.3496385
v 0.09512888 1.5577325 0.43005097
v 0.10984538 1.6126553 0.43005097
v -7.803264E-08 1.6126553 0.45948398
v 0.05492265 1.5175264 0.43005097
v -7.803264E-08 1.6126553 0.45948398
v -6.144643E-08 1.5028099 0.43005097
v -7.803264E-08 1.6126553 0.45948398
v -0.05492281 1.5175264 0.43005097
v -7.803264E-08 1.6126553 0.45948398
v -0.095129065 1.5577325 0.43005097
v -7.803264E-08 1.6126553 0.45948398
v -0.109845564 1.6126553 0.43005097
v -7.803264E-08 1.6126553 0.45948398
v -0.09512906 1.6675782 0.43005097
v -7.803264E-08 1.6126553 0.45948398
v -0.16476832 1.7077843 0.3496385
v -0.05492283 1.7077843 0.43005097
v -7.803264E-08 1.6126553 0.45948398
v -0.190258 1.722501 0.23979305
v -0.095129095 1.7774236 0.3496385
v -0.1647683 1.7077843 0.12994753
v -9.3309666E-08 1.722501 0.43005097
v -7.803264E-08 1.6126553 0.45948398
v -0.10984556 1.8029132 0.23979305
v -0.09512908 1.6675782 0.049535137
v -7.803264E-08 1.6126553 0.020102106
v -1.16363765E-07 1.8029134 0.3496385
v -0.09512907 1.7774236 0.12994753
v 0.054922644 1.7077843 0.43005097
v -7.803264E-08 1.6126553 0.45948398
v -8.8071545E-08 1.8323463 0.23979305
v -0.05492285 1.7077843 0.049535137
v -7.803264E-08 1.6126553 0.020102106
v 0.09512886 1.7774236 0.3496385
v -1.0545159E-07 1.8029134 0.12994753
v 0.09512887 1.6675782 0.43005097
v -7.803264E-08 1.6126553 0.45948398
v 0.10984537 1.8029132 0.23979305
v -9.3309666E-08 1.722501 0.049535137
v -7.803264E-08 1.6126553 0.020102106
v 0.16476813 1.7077843 0.3496385
v 0.09512887 1.7774236 0.12994753
v 0.10984538 1.6126553 0.43005097
v -7.803264E-08 1.6126553 0.45948398
v 0.19025786 1.6126553 0.3496385
v 0.19025783 1.7225008 0.23979305
v 0.21969083 1.6126553 0.23979305
v 0.16476813 1.7077843 0.12994753
v 0.19025786 1.6126553 0.12994753
v 0.054922663 1.7077843 0.049535137
v -7.803264E-08 1.6126553 0.020102106
v 0.09512891 1.6675782 0.049535137
v -7.803264E-08 1.6126553 0.020102106
v 0.10984543 1.6126553 0.049535137
v -7.803264E-08 1.6126553 0.020102106
v 0.600831 0.39440474 0.3910095
v 0.49201375 0.47059938 0.3143136
v 0.38319647 0.54679406 0.3910096
v 0.600831 0.39440474 0.54440147
v 0.38319647 0.546794 0.54440147
v 0.4920137 0.47059938 0.6210975
v -0.39877498 0.53888184 0.3910095
v -0.5138189 0.47246113 0.3143136
v -0.62886286 0.40604052 0.3910096
v -0.39877498 0.53888184 0.54440147
v -0.6288628 0.40604046 0.54440147
v -0.5138189 0.4724611 0.6210975
v -0.20617071 0.58906937 0.81821245
v -0.26176795 0.55697024 0.7811478
v -0.3173651 0.5248713 0.81821245
v -0.20617071 0.58906937 0.8923421
v -0.31736508 0.5248713 0.8923421
v -0.26176795 0.55697024 0.9294068
v 0.3159552 0.56479216 0.81821245
v 0.26336727 0.60161465 0.7811478
v 0.21077926 0.63843715 0.81821245
v 0.3159552 0.56479216 0.8923421
v 0.21077926 0.63843715 0.8923421
v 0.26336718 0.60161465 0.9294068
v 0.21077926 0.63843715 0.8923421
v 0.21077926 0.63843715 0.81821245
v 0.5845918 1.0603709 0.8552773
v 0.26336718 0.60161465 0.9294068
v 0.26336727 0.60161465 0.7811478
v 0.3159552 0.56479216 0.8923421
v 0.3159552 0.56479216 0.81821245
v -0.31736508 0.5248713 0.8923421
v -0.3173651 0.5248713 0.81821245
v -0.5417869 1.0419774 0.8552773
v -0.26176795 0.55697024 0.9294068
v -0.26176795 0.55697024 0.7811478
v -0.20617071 0.58906937 0.8923421
v -0.20617071 0.58906937 0.81821245
v -0.6288628 0.40604046 0.54440147
v -0.62886286 0.40604052 0.3910096
v -1.0932456 1.4760575 0.4677056
v -0.5138189 0.4724611 0.6210975
v -0.5138189 0.47246113 0.3143136
v -0.39877498 0.53888184 0.54440147
v -0.39877498 0.53888184 0.3910095
v 0.38319647 0.546794 0.54440147
v 0.38319647 0.54679406 0.3910096
v 1.1567044 1.4198763 0.4677056
v 0.4920137 0.47059938 0.6210975
v 0.49201375 0.47059938 0.3143136
v 0.600831 0.39440474 0.54440147
v 0.600831 0.39440474 0.3910095
vt 0.7222222 0.9166666
vt 0.66666657 0.9166666
vt 0.6944444 1
vt 0.7222222 0.8333334
vt 0.66666657 0.8333334
vt 0.611111 0.9166666
vt 0.6388888 1
vt 0.77777773 0.8333333
vt 0.77777773 0.9166666
vt 0.75000006 1
vt 0.72222227 0.75
vt 0.7777778 0.75
vt 0.61111104 0.8333333
vt 0.66666657 0.75
vt 0.55555546 0.9166666
vt 0.5833332 1
vt 0.8333333 0.8333333
vt 0.8333333 0.75
vt 0.8333333 0.9166666
vt 0.8055556 1
vt 0.77777773 0.6666666
vt 0.72222215 0.66666675
vt 0.8333333 0.6666666
vt 0.61111104 0.75
vt 0.55555546 0.8333333
vt 0.66666657 0.6666666
vt 0.49999988 0.9166666
vt 0.5277777 1
vt 0.77777773 0.5833334
vt 0.8333333 0.5833334
vt 0.72222215 0.5833334
vt 0.8888889 0.6666666
vt 0.8888889 0.5833334
vt 0.8888889 0.75
vt 0.8888889 0.8333333
vt 0.8888889 0.9166666
vt 0.86111116 1
vt 0.8333333 0.5
vt 0.77777773 0.5
vt 0.8888889 0.5
vt 0.9444444 0.6666666
vt 0.9444445 0.75
vt 0.9444445 0.8333333
vt 0.9444444 0.5833334
vt 0.9444444 0.5
vt 0.9444445 0.9166666
vt 0.9166667 1
vt 1 0.75
vt 1 0.8333333
vt 1 0.9166666
vt 0.97222227 1
vt 1 0.6666666
vt 1 0.5833334
vt 1 0.5
vt 1 0.4166667
vt 0.9444444 0.4166667
vt 1 0.33333325
vt 0.9444444 0.33333325
vt 1 0.25
vt 0.8888889 0.4166667
vt 0.9444445 0.25
vt 1 0.1666668
vt 0.8888889 0.33333325
vt 0.8333333 0.4166667
vt 0.9444445 0.16666669
vt 1 0.08333355
vt 0.8888889 0.25
vt 0.8333333 0.33333325
vt 0.77777773 0.4166667
vt 0.9444445 0.08333355
vt 0.97222227 0
vt 0.8888889 0.16666669
vt 0.8333333 0.25
vt 0.8888889 0.08333337
vt 0.9166667 0
vt 0.8333333 0.16666669
vt 0.77777773 0.33333325
vt 0.72222215 0.5
vt 0.8333333 0.08333337
vt 0.8611111 0
vt 0.7777778 0.25
vt 0.72222215 0.4166667
vt 0.66666657 0.5833334
vt 0.7777778 0.16666669
vt 0.72222215 0.33333325
vt 0.66666657 0.5
vt 0.61111104 0.6666666
vt 0.77777773 0.08333337
vt 0.8055555 0
vt 0.72222227 0.25
vt 0.66666657 0.4166667
vt 0.61111104 0.5833334
vt 0.55555546 0.75
vt 0.72222215 0.16666669
vt 0.66666657 0.3333333
vt 0.61111104 0.5
vt 0.55555546 0.6666666
vt 0.49999994 0.8333333
vt 0.72222215 0.08333337
vt 0.74999994 0
vt 0.61111104 0.4166667
vt 0.5555555 0.5833334
vt 0.49999994 0.75
vt 0.44444436 0.9166666
vt 0.4722221 1
vt 0.44444436 0.8333333
vt 0.49999994 0.6666666
vt 0.55555546 0.5
vt 0.3888888 0.9166666
vt 0.41666654 1
vt 0.44444436 0.75
vt 0.49999994 0.5833334
vt 0.3888888 0.83333325
vt 0.44444436 0.6666666
vt 0.33333325 0.9166666
vt 0.361111 1
vt 0.38888884 0.75
vt 0.33333325 0.83333325
vt 0.27777773 0.9166665
vt 0.30555546 1
vt 0.49999994 0.5
vt 0.4444444 0.5833334
vt 0.38888884 0.6666666
vt 0.3333333 0.75
vt 0.27777773 0.83333325
vt 0.5555555 0.4166667
vt 0.22222221 0.9166665
vt 0.24999994 1
vt 0.61111104 0.3333333
vt 0.66666657 0.25
vt 0.66666657 0.16666669
vt 0.61111104 0.25
vt 0.55555546 0.3333333
vt 0.66666657 0.08333337
vt 0.69444436 0
vt 0.61111104 0.16666669
vt 0.49999994 0.4166667
vt 0.55555546 0.25
vt 0.611111 0.08333337
vt 0.6388888 0
vt 0.55555546 0.16666669
vt 0.49999994 0.3333333
vt 0.44444436 0.5
vt 0.55555546 0.08333337
vt 0.5833332 0
vt 0.49999994 0.25
vt 0.4444444 0.4166667
vt 0.38888884 0.5833334
vt 0.49999994 0.16666669
vt 0.44444436 0.3333333
vt 0.38888884 0.5
vt 0.33333328 0.6666666
vt 0.49999988 0.08333355
vt 0.5277777 0
vt 0.44444436 0.25
vt 0.38888884 0.4166667
vt 0.33333328 0.5833334
vt 0.27777773 0.75
vt 0.44444436 0.1666668
vt 0.38888884 0.3333333
vt 0.33333328 0.5
vt 0.27777773 0.6666666
vt 0.22222221 0.83333325
vt 0.44444436 0.08333355
vt 0.4722221 0
vt 0.33333328 0.4166667
vt 0.27777773 0.5833334
vt 0.22222221 0.75
vt 0.16666666 0.9166666
vt 0.19444442 1
vt 0.16666666 0.83333325
vt 0.22222221 0.6666666
vt 0.27777773 0.5
vt 0.111111134 0.9166666
vt 0.1388889 1
vt 0.16666666 0.75
vt 0.22222221 0.5833334
vt 0.111111134 0.83333325
vt 0.16666666 0.6666666
vt 0.055555582 0.9166666
vt 0.08333337 1
vt 0.111111134 0.75
vt 0.055555582 0.83333325
vt 2.9802322E-08 0.9166666
vt 0.02777785 1
vt 2.9802322E-08 0.8333333
vt 0.055555582 0.75
vt 2.9802322E-08 0.75
vt 0.111111134 0.6666666
vt 0.055555552 0.6666666
vt 0 0.6666666
vt 0.16666666 0.5833334
vt 0.111111075 0.5833334
vt 0.055555552 0.5833334
vt 0 0.5833334
vt 0.22222221 0.5
vt 0.16666666 0.5
vt 0.111111075 0.5
vt 0.055555552 0.5
vt 0 0.5
vt 0.27777773 0.4166667
vt 0.22222221 0.4166667
vt 0.16666666 0.4166667
vt 0.111111075 0.4166667
vt 0.055555552 0.4166667
vt 0 0.4166667
vt 0.33333328 0.3333333
vt 0.27777773 0.3333333
vt 0.22222221 0.3333333
vt 0.16666666 0.3333333
vt 0.111111134 0.3333333
vt 0.055555552 0.33333325
vt 0 0.33333325
vt 0.38888884 0.25
vt 0.3333333 0.25
vt 0.38888884 0.1666668
vt 0.055555582 0.25
vt 2.9802322E-08 0.25
vt 0.111111134 0.25
vt 0.27777773 0.25
vt 0.3888888 0.08333355
vt 0.41666654 0
vt 0.33333328 0.1666668
vt 0.055555582 0.1666668
vt 2.9802322E-08 0.1666668
vt 0.22222221 0.25
vt 0.33333325 0.08333355
vt 0.36111102 0
vt 0.27777773 0.1666668
vt 0.16666666 0.25
vt 0.111111134 0.1666668
vt 0.27777773 0.08333355
vt 0.30555546 0
vt 0.22222221 0.1666668
vt 0.16666666 0.1666668
vt 0.22222221 0.08333355
vt 0.24999994 0
vt 0.16666666 0.08333355
vt 0.19444445 0
vt 0.111111134 0.08333355
vt 0.1388889 0
vt 0.055555582 0.08333355
vt 0.08333334 0
vt 2.9802322E-08 0.08333355
vt 0.02777782 0
vt 0.7083333 0
vt 0.6666666 0.16666669
vt 0.75 0.16666669
vt 0.6666666 0.3333333
vt 0.75 0.3333333
vt 0.8333334 0.16666669
vt 0.7916666 0
vt 0.5833333 0.3333333
vt 0.5833333 0.16666669
vt 0.625 0
vt 0.6666666 0.5
vt 0.5833333 0.5
vt 0.8333334 0.3333333
vt 0.75 0.5
vt 0.9166667 0.16666669
vt 0.875 0
vt 0.49999997 0.3333333
vt 0.49999997 0.5
vt 0.49999997 0.16666669
vt 0.5416666 0
vt 0.5833333 0.6666666
vt 0.6666666 0.6666666
vt 0.5 0.6666666
vt 0.9166666 0.3333333
vt 0.83333325 0.5
vt 1 0.16666669
vt 0.9583334 0
vt 1 0.3333333
vt 0.9166666 0.5
vt 1 0.5
vt 0.75 0.6666666
vt 0.9166667 0.6666666
vt 1 0.6666666
vt 0.8333334 0.6666666
vt 0.9166666 0.8333334
vt 1 0.8333334
vt 0.9583334 1
vt 0.83333325 0.8333334
vt 0.875 1
vt 0.75 0.8333334
vt 0.7916666 1
vt 0.6666666 0.8333334
vt 0.7083333 1
vt 0.5833333 0.8333333
vt 0.62499994 1
vt 0.49999997 0.8333333
vt 0.5416666 1
vt 0.41666666 0.8333333
vt 0.45833328 1
vt 0.41666666 0.6666666
vt 0.3333333 0.8333333
vt 0.37499997 1
vt 0.41666666 0.5
vt 0.3333333 0.6666666
vt 0.41666666 0.3333333
vt 0.25 0.8333333
vt 0.29166666 1
vt 0.3333333 0.5
vt 0.41666666 0.1666668
vt 0.45833328 0
vt 0.25 0.6666666
vt 0.3333333 0.3333333
vt 0.16666672 0.8333333
vt 0.20833337 1
vt 0.24999997 0.5
vt 0.3333333 0.1666668
vt 0.37499997 0
vt 0.16666672 0.6666666
vt 0.25 0.3333333
vt 0.08333334 0.8333334
vt 0.12500006 1
vt 0.16666666 0.5
vt 0.25 0.1666668
vt 0.29166666 0
vt 0.08333334 0.6666666
vt 0.16666666 0.3333333
vt 2.9802322E-08 0.8333334
vt 0.041666746 1
vt 2.9802322E-08 0.6666666
vt 0.08333331 0.5
vt 0 0.5
vt 0.08333334 0.3333333
vt 2.9802322E-08 0.3333333
vt 0.16666672 0.1666668
vt 0.20833337 0
vt 0.08333334 0.1666668
vt 0.12500006 0
vt 2.9802322E-08 0.16666669
vt 0.041666746 0
vt 0.7083333 0
vt 0.6666666 0.16666669
vt 0.75 0.16666669
vt 0.6666666 0.3333333
vt 0.75 0.3333333
vt 0.8333334 0.16666669
vt 0.7916666 0
vt 0.5833333 0.3333333
vt 0.5833333 0.16666669
vt 0.625 0
vt 0.6666666 0.5
vt 0.5833333 0.5
vt 0.8333334 0.3333333
vt 0.75 0.5
vt 0.9166667 0.16666669
vt 0.875 0
vt 0.49999997 0.3333333
vt 0.49999997 0.5
vt 0.49999997 0.16666669
vt 0.5416666 0
vt 0.5833333 0.6666666
vt 0.6666666 0.6666666
vt 0.5 0.6666666
vt 0.9166666 0.3333333
vt 0.83333325 0.5
vt 1 0.16666669
vt 0.9583334 0
vt 1 0.3333333
vt 0.9166666 0.5
vt 1 0.5
vt 0.75 0.6666666
vt 0.9166667 0.6666666
vt 1 0.6666666
vt 0.8333334 0.6666666
vt 0.9166666 0.8333334
vt 1 0.8333334
vt 0.9583334 1
vt 0.83333325 0.8333334
vt 0.875 1
vt 0.75 0.8333334
vt 0.7916666 1
vt 0.6666666 0.8333334
vt 0.7083333 1
vt 0.5833333 0.8333333
vt 0.62499994 1
vt 0.49999997 0.8333333
vt 0.5416666 1
vt 0.41666666 0.8333333
vt 0.45833328 1
vt 0.41666666 0.6666666
vt 0.3333333 0.8333333
vt 0.37499997 1
vt 0.41666666 0.5
vt 0.3333333 0.6666666
vt 0.41666666 0.3333333
vt 0.25 0.8333333
vt 0.29166666 1
vt 0.3333333 0.5
vt 0.41666666 0.1666668
vt 0.45833328 0
vt 0.25 0.6666666
vt 0.3333333 0.3333333
vt 0.16666672 0.8333333
vt 0.20833337 1
vt 0.24999997 0.5
vt 0.3333333 0.1666668
vt 0.37499997 0
vt 0.16666672 0.6666666
vt 0.25 0.3333333
vt 0.08333334 0.8333334
vt 0.12500006 1
vt 0.16666666 0.5
vt 0.25 0.1666668
vt 0.29166666 0
vt 0.08333334 0.6666666
vt 0.16666666 0.3333333
vt 2.9802322E-08 0.8333334
vt 0.041666746 1
vt 2.9802322E-08 0.6666666
vt 0.08333331 0.5
vt 0 0.5
vt 0.08333334 0.3333333
vt 2.9802322E-08 0.3333333
vt 0.16666672 0.1666668
vt 0.20833337 0
vt 0.08333334 0.1666668
vt 0.12500006 0
vt 2.9802322E-08 0.16666669
vt 0.041666746 0
vt 0.9578461 0.37
vt 0.75 0.49
vt 0.5421539 0.36999997
vt 0.9578461 0.13
vt 0.5421539 0.13000003
vt 0.75 0.010000005
vt 0.9578461 0.37
vt 0.75 0.49
vt 0.5421539 0.36999997
vt 0.9578461 0.13
vt 0.5421539 0.13000003
vt 0.75 0.010000005
vt 0.9578461 0.37
vt 0.75 0.49
vt 0.5421539 0.36999997
vt 0.9578461 0.13
vt 0.5421539 0.13000003
vt 0.75 0.010000005
vt 0.9578461 0.37
vt 0.75 0.49
vt 0.5421539 0.36999997
vt 0.9578461 0.13
vt 0.5421539 0.13000003
vt 0.75 0.010000005
vt 0.042153895 0.13000003
vt 0.042153895 0.36999997
vt 0.25 0.25
vt 0.24999999 0.010000005
vt 0.25 0.49
vt 0.4578461 0.13
vt 0.4578461 0.37
vt 0.042153895 0.13000003
vt 0.042153895 0.36999997
vt 0.25 0.25
vt 0.24999999 0.010000005
vt 0.25 0.49
vt 0.4578461 0.13
vt 0.4578461 0.37
vt 0.042153895 0.13000003
vt 0.042153895 0.36999997
vt 0.25 0.25
vt 0.24999999 0.010000005
vt 0.25 0.49
vt 0.4578461 0.13
vt 0.4578461 0.37
vt 0.042153895 0.13000003
vt 0.042153895 0.36999997
vt 0.25 0.25
vt 0.24999999 0.010000005
vt 0.25 0.49
vt 0.4578461 0.13
vt 0.4578461 0.37
vn -0 -0.27224228 0.9622287
vn -0.09311171 -0.25582424 0.9622287
vn -0 0 1
vn -0 -0.51070666 0.859755
vn -0.17467171 -0.47990736 0.8597551
vn -0.17499292 -0.20854981 0.96222883
vn -0 0 1
vn 0.17467184 -0.47990724 0.8597551
vn 0.09311138 -0.25582412 0.96222883
vn -0 0 1
vn -0 -0.71419376 0.6999481
vn 0.24426906 -0.67112243 0.6999481
vn -0.32827583 -0.39122403 0.859755
vn -0.24426812 -0.67112267 0.6999482
vn -0.2357686 -0.13612124 0.9622287
vn -0 0 1
vn 0.3282758 -0.39122394 0.8597551
vn 0.4590754 -0.54710394 0.69994795
vn 0.17499298 -0.2085497 0.96222895
vn -0 0 1
vn 0.29740348 -0.817108 0.49384788
vn -0 -0.8695484 0.49384782
vn 0.55893534 -0.6661123 0.49384776
vn -0.45907465 -0.54710406 0.6999484
vn -0.44228476 -0.2553534 0.8597551
vn -0.29740253 -0.81710833 0.49384785
vn -0.26810598 -0.047274474 0.96222883
vn -0 0 1
vn 0.33068803 -0.9085568 0.25528392
vn 0.6214898 -0.7406621 0.255284
vn -0 -0.96686614 0.255284
vn 0.7530511 -0.43477392 0.4938479
vn 0.8373308 -0.48343268 0.2552841
vn 0.6185103 -0.35709655 0.69994795
vn 0.44228512 -0.25535312 0.859755
vn 0.23576945 -0.136121 0.9622286
vn -0 0 1
vn 0.6427879 -0.76604414 0
vn 0.34202054 -0.93969256 0
vn 0.8660256 -0.4999996 0
vn 0.85633796 -0.15099522 0.49384788
vn 0.70334375 -0.12401815 0.69994795
vn 0.5029481 -0.08868307 0.859755
vn 0.95217735 -0.1678942 0.2552841
vn 0.98480785 -0.1736477 0
vn 0.26810646 -0.04727426 0.9622287
vn -0 0 1
vn 0.70334363 0.12401883 0.69994783
vn 0.5029479 0.088683434 0.859755
vn 0.26810518 0.047274485 0.9622291
vn -0 0 1
vn 0.8563379 0.15099593 0.4938478
vn 0.9521772 0.16789493 0.25528404
vn 0.9848077 0.17364861 0
vn 0.9521771 0.1678949 -0.25528425
vn 0.9521772 -0.16789417 -0.25528428
vn 0.8563379 0.15099582 -0.49384785
vn 0.85633796 -0.15099518 -0.493848
vn 0.70334387 0.12401879 -0.6999476
vn 0.83733076 -0.48343268 -0.2552843
vn 0.70334405 -0.12401822 -0.6999476
vn 0.5029478 0.08868341 -0.8597551
vn 0.7530511 -0.4347737 -0.49384794
vn 0.62148976 -0.74066216 -0.25528422
vn 0.50294787 -0.08868303 -0.859755
vn 0.26810625 0.047274444 -0.9622287
vn 0.6185105 -0.35709655 -0.69994766
vn 0.55893517 -0.6661124 -0.49384794
vn 0.33068803 -0.90855676 -0.25528416
vn 0.26810622 -0.04727423 -0.9622287
vn -0 0 -1
vn 0.44228518 -0.25535297 -0.859755
vn 0.45907557 -0.5471042 -0.6999476
vn 0.23576872 -0.13612098 -0.9622287
vn -0 0 -1
vn 0.3282762 -0.39122388 -0.859755
vn 0.29740348 -0.817108 -0.49384788
vn -0 -1 0
vn 0.17499398 -0.20854965 -0.9622287
vn -0 0 -1
vn 0.24426919 -0.67112285 -0.6999476
vn -0 -0.966866 -0.25528416
vn -0.33068717 -0.90855724 0.2552839
vn 0.17467219 -0.47990718 -0.859755
vn -0 -0.86954826 -0.49384788
vn -0.34201974 -0.93969274 0
vn -0.55893475 -0.66611284 0.49384785
vn 0.09311239 -0.25582406 -0.9622287
vn -0 0 -1
vn -0 -0.71419406 -0.6999477
vn -0.33068717 -0.9085571 -0.25528395
vn -0.6214894 -0.74066263 0.25528368
vn -0.6185098 -0.35709694 0.6999482
vn -0 -0.51070666 -0.859755
vn -0.29740265 -0.81710833 -0.49384788
vn -0.6427875 -0.7660445 0
vn -0.75305086 -0.43477428 0.49384773
vn -0.5029479 -0.088683434 0.859755
vn -0 -0.2722423 -0.9622287
vn -0 0 -1
vn -0.6214894 -0.7406625 -0.2552839
vn -0.8373306 -0.48343328 0.25528383
vn -0.7033437 -0.12401856 0.6999479
vn -0.2681058 0.04727426 0.96222883
vn -0 0 1
vn -0.50294787 0.08868307 0.859755
vn -0.85633796 -0.15099557 0.49384773
vn -0.8660253 -0.5000002 0
vn -0.2357689 0.13612111 0.9622287
vn -0 0 1
vn -0.70334375 0.1240182 0.69994795
vn -0.9521772 -0.16789474 0.255284
vn -0.44228476 0.25535315 0.85975516
vn -0.8563381 0.15099545 0.49384764
vn -0.17499489 0.20854963 0.9622285
vn -0 0 1
vn -0.61851007 0.3570966 0.6999481
vn -0.32827577 0.3912238 0.85975516
vn -0.09311217 0.25582406 0.9622287
vn -0 0 1
vn -0.9848077 -0.17364837 0
vn -0.9521772 0.16789451 0.25528407
vn -0.7530512 0.43477413 0.49384743
vn -0.4590751 0.5471041 0.6999481
vn -0.17467174 0.47990713 0.85975516
vn -0.8373305 -0.48343325 -0.25528398
vn -0 0.2722423 0.9622287
vn -0 0 1
vn -0.55893475 -0.6661128 -0.4938479
vn -0.24426845 -0.6711229 -0.69994795
vn -0.17467178 -0.47990727 -0.859755
vn -0.45907483 -0.54710436 -0.699948
vn -0.75305086 -0.43477428 -0.49384782
vn -0.09311229 -0.25582412 -0.9622287
vn -0 0 -1
vn -0.32827577 -0.39122403 -0.8597551
vn -0.9521772 -0.16789472 -0.25528407
vn -0.61850995 -0.35709718 -0.69994795
vn -0.17499387 -0.2085497 -0.9622287
vn -0 0 -1
vn -0.44228476 -0.2553535 -0.8597551
vn -0.85633796 -0.1509955 -0.49384773
vn -0.9848077 0.17364818 0
vn -0.23576863 -0.13612121 -0.9622287
vn -0 0 -1
vn -0.70334375 -0.12401853 -0.6999479
vn -0.9521772 0.16789444 -0.25528404
vn -0.83733076 0.48343292 0.25528404
vn -0.5029478 -0.08868335 -0.8597551
vn -0.85633814 0.15099539 -0.49384758
vn -0.8660255 0.4999998 0
vn -0.5589353 0.6661127 0.49384737
vn -0.26810628 -0.047274433 -0.9622287
vn -0 0 -1
vn -0.7033438 0.12401826 -0.6999478
vn -0.83733076 0.4834329 -0.25528404
vn -0.62148976 0.7406622 0.25528395
vn -0.24426888 0.67112267 0.69994795
vn -0.5029478 0.088683024 -0.8597551
vn -0.7530513 0.43477398 -0.49384737
vn -0.6427879 0.7660443 0
vn -0.29740334 0.81710833 0.49384734
vn -0 0.5107066 0.859755
vn -0.26810625 0.047274236 -0.9622287
vn -0 0 -1
vn -0.6214898 0.7406622 -0.25528398
vn -0.33068785 0.90855694 0.25528386
vn -0 0.7141939 0.6999479
vn 0.09311215 0.25582412 0.9622287
vn -0 0 1
vn 0.17467147 0.47990736 0.8597551
vn -0 0.86954856 0.49384737
vn -0.34202045 0.93969256 0
vn 0.17499426 0.20854974 0.9622286
vn -0 0 1
vn 0.24426834 0.67112285 0.699948
vn -0 0.96686614 0.2552839
vn 0.32827574 0.39122412 0.8597551
vn 0.29740277 0.81710845 0.49384746
vn 0.23576787 0.13612126 0.96222895
vn -0 0 1
vn 0.4590748 0.5471045 0.69994795
vn 0.44228488 0.2553535 0.859755
vn 0.26810518 0.047274485 0.9622291
vn -0 0 1
vn 0.5029479 0.088683434 0.859755
vn 0.6185099 0.3570974 0.69994795
vn 0.70334363 0.12401883 0.69994783
vn 0.55893475 0.666113 0.49384755
vn 0.7530508 0.4347747 0.49384767
vn 0.8563379 0.15099593 0.4938478
vn 0.3306873 0.908557 0.25528395
vn 0.6214892 0.7406627 0.255284
vn 0.8373304 0.48343343 0.25528398
vn 0.9521772 0.16789493 0.25528404
vn -0 1 0
vn 0.34201977 0.93969274 0
vn 0.6427874 0.7660447 0
vn 0.86602515 0.5000004 0
vn 0.9848077 0.17364861 0
vn -0.3306879 0.90855694 -0.25528386
vn -0 0.96686614 -0.25528395
vn 0.33068737 0.908557 -0.2552842
vn 0.6214892 0.74066263 -0.25528422
vn 0.83733034 0.48343349 -0.2552842
vn 0.9521771 0.1678949 -0.25528425
vn -0.5589353 0.6661126 -0.49384743
vn -0.29740337 0.8171082 -0.49384743
vn -0 0.86954856 -0.49384752
vn 0.29740277 0.8171084 -0.49384755
vn 0.5589348 0.66611296 -0.49384767
vn 0.75305074 0.43477458 -0.49384776
vn 0.8563379 0.15099582 -0.49384785
vn -0.61851037 0.35709664 -0.69994783
vn -0.4590753 0.54710424 -0.6999478
vn -0.4422851 0.255353 -0.8597551
vn 0.6185101 0.35709742 -0.6999476
vn 0.70334387 0.12401879 -0.6999476
vn 0.45907497 0.54710466 -0.6999476
vn -0.24426891 0.6711227 -0.69994783
vn -0.23576874 0.13612098 -0.9622287
vn -0 0 -1
vn -0.32827604 0.3912238 -0.8597551
vn 0.44228473 0.25535357 -0.8597551
vn 0.5029478 0.08868341 -0.8597551
vn -0 0.714194 -0.6999477
vn -0.17499398 0.20854956 -0.9622287
vn -0 0 -1
vn -0.17467205 0.4799071 -0.8597551
vn 0.24426848 0.67112315 -0.6999476
vn 0.32827577 0.3912241 -0.8597551
vn -0.093112394 0.25582403 -0.9622287
vn -0 0 -1
vn -0 0.5107066 -0.8597551
vn 0.1746717 0.47990736 -0.8597551
vn -0 0.27224228 -0.9622287
vn -0 0 -1
vn 0.09311221 0.25582406 -0.9622287
vn -0 0 -1
vn 0.17499384 0.20854968 -0.9622287
vn -0 0 -1
vn 0.2357686 0.1361212 -0.9622287
vn -0 0 -1
vn 0.26810625 0.047274444 -0.9622287
vn -0 0 -1
vn -0 0 -1
vn -0.26545024 -0.45977348 -0.84743404
vn -0 -0.5309008 -0.8474339
vn -0.43799022 -0.7586218 -0.48234585
vn -0 -0.87598085 -0.48234582
vn 0.26545027 -0.45977342 -0.8474341
vn -0 0 -1
vn -0.75862163 -0.4379905 -0.48234585
vn -0.45977354 -0.2654505 -0.8474339
vn -0 0 -1
vn -0.4999999 -0.86602545 0
vn -0.8660253 -0.50000006 0
vn 0.43799052 -0.75862175 -0.48234558
vn -0 -1 0
vn 0.4597736 -0.26545036 -0.84743404
vn -0 0 -1
vn -0.8759809 0 -0.48234564
vn -1 0 0
vn -0.5309009 0 -0.84743387
vn -0 0 -1
vn -0.7586217 -0.4379905 0.48234573
vn -0.43799037 -0.7586219 0.48234558
vn -0.8759809 0 0.48234567
vn 0.7586219 -0.4379903 -0.48234552
vn 0.5000001 -0.8660253 0
vn 0.53090084 0 -0.84743387
vn -0 0 -1
vn 0.87598103 0 -0.48234558
vn 0.86602545 -0.49999997 0
vn 1 0 0
vn -0 -0.8759809 0.48234573
vn 0.758622 -0.43799028 0.48234555
vn 0.8759809 0 0.48234564
vn 0.43799064 -0.75862175 0.48234555
vn 0.45977375 -0.26545036 0.84743387
vn 0.53090084 0 0.84743387
vn -0 0 1
vn 0.26545042 -0.45977357 0.8474339
vn -0 0 1
vn -0 -0.53090084 0.84743387
vn -0 0 1
vn -0.2654504 -0.4597737 0.8474339
vn -0 0 1
vn -0.45977387 -0.26545054 0.8474338
vn -0 0 1
vn -0.53090096 0 0.84743387
vn -0 0 1
vn -0.45977366 0.26545027 0.84743404
vn -0 0 1
vn -0.7586218 0.4379903 0.48234573
vn -0.26545048 0.45977333 0.84743404
vn -0 0 1
vn -0.86602545 0.5 0
vn -0.4379908 0.7586216 0.48234576
vn -0.7586217 0.4379904 -0.4823459
vn -0 0.5309006 0.84743404
vn -0 0 1
vn -0.5000002 0.86602527 0
vn -0.45977342 0.2654502 -0.8474341
vn -0 0 -1
vn -0 0.8759811 0.48234552
vn -0.43799075 0.7586216 -0.48234588
vn 0.26545063 0.4597734 0.84743404
vn -0 0 1
vn -0 1 0
vn -0.26545048 0.45977324 -0.8474342
vn -0 0 -1
vn 0.43799087 0.7586216 0.4823456
vn -0 0.8759811 -0.4823454
vn 0.4597736 0.26545048 0.84743387
vn -0 0 1
vn 0.5000003 0.86602527 0
vn -0 0.53090054 -0.8474342
vn -0 0 -1
vn 0.7586217 0.4379906 0.4823456
vn 0.43799075 0.7586216 -0.4823457
vn 0.53090084 0 0.84743387
vn -0 0 1
vn 0.8759809 0 0.48234564
vn 0.8660253 0.5000001 0
vn 1 0 0
vn 0.75862163 0.43799064 -0.4823457
vn 0.87598103 0 -0.48234558
vn 0.26545042 0.4597732 -0.8474341
vn -0 0 -1
vn 0.45977354 0.26545045 -0.8474339
vn -0 0 -1
vn 0.53090084 0 -0.84743387
vn -0 0 -1
vn -0 0 -1
vn -0.2654506 -0.45977345 -0.84743404
vn -0 -0.53090125 -0.8474338
vn -0.43799055 -0.7586221 -0.4823451
vn -0 -0.8759813 -0.48234513
vn 0.2654507 -0.45977342 -0.8474339
vn -0 0 -1
vn -0.75862163 -0.43799067 -0.48234576
vn -0.4597734 -0.26545075 -0.8474339
vn -0 0 -1
vn -0.49999997 -0.86602545 0
vn -0.8660253 -0.5000002 0
vn 0.43799067 -0.75862217 -0.48234496
vn -0 -1 0
vn 0.45977372 -0.26545084 -0.8474338
vn -0 0 -1
vn -0.87598085 0 -0.48234597
vn -1 0 0
vn -0.5309006 0 -0.84743404
vn -0 0 -1
vn -0.7586217 -0.43799058 0.4823457
vn -0.43799025 -0.7586222 0.48234522
vn -0.87598085 0 0.48234585
vn 0.75862175 -0.43799055 -0.48234555
vn 0.5 -0.86602545 0
vn 0.5309008 0 -0.84743404
vn -0 0 -1
vn 0.8759809 0 -0.48234564
vn 0.8660253 -0.50000006 0
vn 1 0 0
vn -0 -0.8759813 0.48234513
vn 0.75862175 -0.43799046 0.48234567
vn 0.8759809 0 0.48234567
vn 0.4379904 -0.75862217 0.4823452
vn 0.45977366 -0.26545092 0.8474338
vn 0.53090054 0 0.8474341
vn -0 0 1
vn 0.2654505 -0.45977402 0.8474337
vn -0 0 1
vn -0 -0.53090113 0.8474338
vn -0 0 1
vn -0.26545027 -0.45977414 0.8474338
vn -0 0 1
vn -0.45977378 -0.2654509 0.8474338
vn -0 0 1
vn -0.53090084 0 0.84743387
vn -0 0 1
vn -0.45977345 0.26545054 0.84743404
vn -0 0 1
vn -0.7586217 0.43799016 0.48234615
vn -0.26545045 0.45977327 0.8474341
vn -0 0 1
vn -0.86602515 0.5000004 0
vn -0.43799067 0.7586217 0.4823457
vn -0.75862175 0.4379902 -0.48234606
vn -0 0.5309014 0.8474336
vn -0 0 1
vn -0.5000002 0.86602527 0
vn -0.45977357 0.2654504 -0.8474339
vn -0 0 -1
vn -0 0.8759813 0.4823451
vn -0.43799075 0.7586217 -0.4823456
vn 0.26545027 0.4597729 0.8474343
vn -0 0 1
vn -0 1 0
vn -0.2654506 0.45977297 -0.8474343
vn -0 0 -1
vn 0.4379908 0.75862175 0.48234528
vn -0 0.8759811 -0.48234537
vn 0.45977333 0.26545042 0.8474341
vn -0 0 1
vn 0.50000054 0.8660251 0
vn -0 0.5309011 -0.84743387
vn -0 0 -1
vn 0.7586219 0.4379904 0.4823456
vn 0.4379909 0.75862163 -0.48234555
vn 0.53090054 0 0.8474341
vn -0 0 1
vn 0.8759809 0 0.48234567
vn 0.86602545 0.5 0
vn 1 0 0
vn 0.7586218 0.43799046 -0.48234564
vn 0.8759809 0 -0.48234564
vn 0.26545054 0.45977297 -0.8474343
vn -0 0 -1
vn 0.4597734 0.26545045 -0.84743404
vn -0 0 -1
vn 0.5309008 0 -0.84743404
vn -0 0 -1
vn 0.26633555 -0.8703552 -0.4141824
vn -0.32131144 -0.45888042 -0.82836443
vn -0.9089587 -0.04740583 -0.41418204
vn 0.2663356 -0.8703555 0.41418207
vn -0.9089586 -0.047405917 0.41418234
vn -0.32131153 -0.45888048 0.82836443
vn 0.9013681 -0.12644595 -0.41418236
vn 0.28009495 -0.48513842 -0.82836443
vn -0.34117845 -0.8438307 -0.41418248
vn 0.90136814 -0.12644604 0.41418216
vn -0.34117797 -0.84383094 0.41418216
vn 0.28009486 -0.48513836 0.82836443
vn 0.90136784 -0.12644607 -0.41418266
vn 0.2800947 -0.48513955 -0.82836384
vn -0.3411793 -0.8438305 -0.41418198
vn 0.9013678 -0.12644601 0.41418302
vn -0.34117845 -0.84383065 0.41418263
vn 0.2800943 -0.4851392 0.8283641
vn 0.26633534 -0.8703552 -0.4141827
vn -0.32131118 -0.4588806 -0.8283645
vn -0.9089582 -0.047405712 -0.41418314
vn 0.2663353 -0.87035537 0.41418225
vn -0.9089588 -0.047405843 0.41418183
vn -0.32131258 -0.4588809 0.82836384
vn -0.9089588 -0.047405843 0.41418183
vn -0.9089582 -0.047405712 -0.41418314
vn 0.5735913 0.8191416 0
vn -0.32131258 -0.4588809 0.82836384
vn -0.32131118 -0.4588806 -0.8283645
vn 0.2663353 -0.87035537 0.41418225
vn 0.26633534 -0.8703552 -0.4141827
vn -0.34117845 -0.84383065 0.41418263
vn -0.3411793 -0.8438305 -0.41418198
vn -0.500003 0.8660237 1.0713903E-05
vn 0.2800943 -0.4851392 0.8283641
vn 0.2800947 -0.48513955 -0.82836384
vn 0.9013678 -0.12644601 0.41418302
vn 0.90136784 -0.12644607 -0.41418266
vn -0.34117797 -0.84383094 0.41418216
vn -0.34117845 -0.8438307 -0.41418248
vn -0.50000405 0.8660231 0
vn 0.28009486 -0.48513836 0.82836443
vn 0.28009495 -0.48513842 -0.82836443
vn 0.90136814 -0.12644604 0.41418216
vn 0.9013681 -0.12644595 -0.41418236
vn -0.9089586 -0.047405917 0.41418234
vn -0.9089587 -0.04740583 -0.41418204
vn 0.5735925 0.8191409 0
vn -0.32131153 -0.45888048 0.82836443
vn -0.32131144 -0.45888042 -0.82836443
vn 0.2663356 -0.8703555 0.41418207
vn 0.26633555 -0.8703552 -0.4141824
g Racer_0
f 3/3/3 2/2/2 1/1/1
f 1/1/1 2/2/2 4/4/4
f 2/2/2 5/5/5 4/4/4
f 2/2/2 6/6/6 5/5/5
f 7/7/7 6/6/6 2/2/2
f 1/1/1 4/4/4 8/8/8
f 9/9/9 1/1/1 8/8/8
f 10/10/10 1/1/1 9/9/9
f 4/4/4 5/5/5 11/11/11
f 8/8/8 4/4/4 12/12/12
f 4/4/4 11/11/11 12/12/12
f 6/6/6 13/13/13 5/5/5
f 5/5/5 14/14/14 11/11/11
f 5/5/5 13/13/13 14/14/14
f 6/6/6 15/15/15 13/13/13
f 16/16/16 15/15/15 6/6/6
f 9/9/9 8/8/8 17/17/17
f 8/8/8 12/12/12 18/18/18
f 17/17/17 8/8/8 18/18/18
f 19/19/19 9/9/9 17/17/17
f 20/20/20 9/9/9 19/19/19
f 12/12/12 11/11/11 21/21/21
f 11/11/11 14/14/14 22/22/22
f 11/11/11 22/22/22 21/21/21
f 18/18/18 12/12/12 23/23/23
f 12/12/12 21/21/21 23/23/23
f 13/13/13 24/24/24 14/14/14
f 15/15/15 25/25/25 13/13/13
f 13/13/13 25/25/25 24/24/24
f 14/14/14 26/26/26 22/22/22
f 14/14/14 24/24/24 26/26/26
f 15/15/15 27/27/27 25/25/25
f 28/28/28 27/27/27 15/15/15
f 21/21/21 22/22/22 29/29/29
f 23/23/23 21/21/21 30/30/30
f 21/21/21 29/29/29 30/30/30
f 22/22/22 26/26/26 31/31/31
f 22/22/22 31/31/31 29/29/29
f 18/18/18 23/23/23 32/32/32
f 23/23/23 30/30/30 33/33/33
f 32/32/32 23/23/23 33/33/33
f 34/34/34 18/18/18 32/32/32
f 17/17/17 18/18/18 34/34/34
f 35/35/35 17/17/17 34/34/34
f 19/19/19 17/17/17 35/35/35
f 36/36/36 19/19/19 35/35/35
f 37/37/37 19/19/19 36/36/36
f 30/30/30 29/29/29 38/38/38
f 29/29/29 31/31/31 39/39/39
f 29/29/29 39/39/39 38/38/38
f 33/33/33 30/30/30 40/40/40
f 30/30/30 38/38/38 40/40/40
f 34/34/34 32/32/32 41/41/41
f 35/35/35 34/34/34 42/42/42
f 42/42/42 34/34/34 41/41/41
f 36/36/36 35/35/35 43/43/43
f 43/43/43 35/35/35 42/42/42
f 32/32/32 33/33/33 44/44/44
f 41/41/41 32/32/32 44/44/44
f 33/33/33 40/40/40 45/45/45
f 44/44/44 33/33/33 45/45/45
f 46/46/46 36/36/36 43/43/43
f 47/47/47 36/36/36 46/46/46
f 43/43/43 42/42/42 48/48/48
f 49/49/49 43/43/43 48/48/48
f 46/46/46 43/43/43 49/49/49
f 50/50/50 46/46/46 49/49/49
f 51/51/51 46/46/46 50/50/50
f 48/48/48 42/42/42 52/52/52
f 42/42/42 41/41/41 52/52/52
f 52/52/52 41/41/41 53/53/53
f 41/41/41 44/44/44 53/53/53
f 53/53/53 44/44/44 54/54/54
f 44/44/44 45/45/45 54/54/54
f 54/54/54 45/45/45 55/55/55
f 45/45/45 56/56/56 55/55/55
f 55/55/55 56/56/56 57/57/57
f 45/45/45 40/40/40 56/56/56
f 56/56/56 58/58/58 57/57/57
f 57/57/57 58/58/58 59/59/59
f 40/40/40 60/60/60 56/56/56
f 56/56/56 60/60/60 58/58/58
f 40/40/40 38/38/38 60/60/60
f 58/58/58 61/61/61 59/59/59
f 59/59/59 61/61/61 62/62/62
f 60/60/60 63/63/63 58/58/58
f 58/58/58 63/63/63 61/61/61
f 38/38/38 64/64/64 60/60/60
f 60/60/60 64/64/64 63/63/63
f 38/38/38 39/39/39 64/64/64
f 61/61/61 65/65/65 62/62/62
f 62/62/62 65/65/65 66/66/66
f 63/63/63 67/67/67 61/61/61
f 61/61/61 67/67/67 65/65/65
f 64/64/64 68/68/68 63/63/63
f 63/63/63 68/68/68 67/67/67
f 39/39/39 69/69/69 64/64/64
f 64/64/64 69/69/69 68/68/68
f 65/65/65 70/70/70 66/66/66
f 66/66/66 70/70/70 71/71/71
f 67/67/67 72/72/72 65/65/65
f 65/65/65 72/72/72 70/70/70
f 68/68/68 73/73/73 67/67/67
f 67/67/67 73/73/73 72/72/72
f 72/72/72 74/74/74 70/70/70
f 70/70/70 74/74/74 75/75/75
f 72/72/72 76/76/76 74/74/74
f 73/73/73 76/76/76 72/72/72
f 68/68/68 77/77/77 73/73/73
f 69/69/69 77/77/77 68/68/68
f 39/39/39 78/78/78 69/69/69
f 31/31/31 78/78/78 39/39/39
f 76/76/76 79/79/79 74/74/74
f 74/74/74 79/79/79 80/80/80
f 73/73/73 81/81/81 76/76/76
f 77/77/77 81/81/81 73/73/73
f 69/69/69 82/82/82 77/77/77
f 78/78/78 82/82/82 69/69/69
f 31/31/31 83/83/83 78/78/78
f 26/26/26 83/83/83 31/31/31
f 76/76/76 84/84/84 79/79/79
f 81/81/81 84/84/84 76/76/76
f 77/77/77 85/85/85 81/81/81
f 82/82/82 85/85/85 77/77/77
f 78/78/78 86/86/86 82/82/82
f 83/83/83 86/86/86 78/78/78
f 26/26/26 87/87/87 83/83/83
f 24/24/24 87/87/87 26/26/26
f 84/84/84 88/88/88 79/79/79
f 79/79/79 88/88/88 89/89/89
f 81/81/81 90/90/90 84/84/84
f 85/85/85 90/90/90 81/81/81
f 82/82/82 91/91/91 85/85/85
f 86/86/86 91/91/91 82/82/82
f 83/83/83 92/92/92 86/86/86
f 87/87/87 92/92/92 83/83/83
f 24/24/24 93/93/93 87/87/87
f 25/25/25 93/93/93 24/24/24
f 84/84/84 94/94/94 88/88/88
f 90/90/90 94/94/94 84/84/84
f 85/85/85 95/95/95 90/90/90
f 91/91/91 95/95/95 85/85/85
f 86/86/86 96/96/96 91/91/91
f 92/92/92 96/96/96 86/86/86
f 87/87/87 97/97/97 92/92/92
f 93/93/93 97/97/97 87/87/87
f 25/25/25 98/98/98 93/93/93
f 27/27/27 98/98/98 25/25/25
f 94/94/94 99/99/99 88/88/88
f 88/88/88 99/99/99 100/100/100
f 91/91/91 101/101/101 95/95/95
f 96/96/96 101/101/101 91/91/91
f 92/92/92 102/102/102 96/96/96
f 97/97/97 102/102/102 92/92/92
f 93/93/93 103/103/103 97/97/97
f 98/98/98 103/103/103 93/93/93
f 27/27/27 104/104/104 98/98/98
f 105/105/105 104/104/104 27/27/27
f 104/104/104 106/106/106 98/98/98
f 98/98/98 106/106/106 103/103/103
f 103/103/103 107/107/107 97/97/97
f 97/97/97 107/107/107 102/102/102
f 102/102/102 108/108/108 96/96/96
f 96/96/96 108/108/108 101/101/101
f 104/104/104 109/109/109 106/106/106
f 110/110/110 109/109/109 104/104/104
f 106/106/106 111/111/111 103/103/103
f 103/103/103 111/111/111 107/107/107
f 107/107/107 112/112/112 102/102/102
f 102/102/102 112/112/112 108/108/108
f 109/109/109 113/113/113 106/106/106
f 106/106/106 113/113/113 111/111/111
f 111/111/111 114/114/114 107/107/107
f 107/107/107 114/114/114 112/112/112
f 109/109/109 115/115/115 113/113/113
f 116/116/116 115/115/115 109/109/109
f 113/113/113 117/117/117 111/111/111
f 111/111/111 117/117/117 114/114/114
f 115/115/115 118/118/118 113/113/113
f 113/113/113 118/118/118 117/117/117
f 115/115/115 119/119/119 118/118/118
f 120/120/120 119/119/119 115/115/115
f 112/112/112 121/121/121 108/108/108
f 114/114/114 122/122/122 112/112/112
f 112/112/112 122/122/122 121/121/121
f 117/117/117 123/123/123 114/114/114
f 114/114/114 123/123/123 122/122/122
f 118/118/118 124/124/124 117/117/117
f 117/117/117 124/124/124 123/123/123
f 119/119/119 125/125/125 118/118/118
f 118/118/118 125/125/125 124/124/124
f 108/108/108 121/121/121 126/126/126
f 108/108/108 126/126/126 101/101/101
f 119/119/119 127/127/127 125/125/125
f 128/128/128 127/127/127 119/119/119
f 101/101/101 126/126/126 129/129/129
f 101/101/101 129/129/129 95/95/95
f 95/95/95 129/129/129 130/130/130
f 95/95/95 130/130/130 90/90/90
f 90/90/90 130/130/130 94/94/94
f 130/130/130 131/131/131 94/94/94
f 94/94/94 131/131/131 99/99/99
f 129/129/129 132/132/132 130/130/130
f 130/130/130 132/132/132 131/131/131
f 126/126/126 133/133/133 129/129/129
f 129/129/129 133/133/133 132/132/132
f 131/131/131 134/134/134 99/99/99
f 99/99/99 134/134/134 135/135/135
f 132/132/132 136/136/136 131/131/131
f 131/131/131 136/136/136 134/134/134
f 126/126/126 137/137/137 133/133/133
f 121/121/121 137/137/137 126/126/126
f 133/133/133 138/138/138 132/132/132
f 132/132/132 138/138/138 136/136/136
f 136/136/136 139/139/139 134/134/134
f 134/134/134 139/139/139 140/140/140
f 136/136/136 141/141/141 139/139/139
f 138/138/138 141/141/141 136/136/136
f 133/133/133 142/142/142 138/138/138
f 137/137/137 142/142/142 133/133/133
f 121/121/121 143/143/143 137/137/137
f 122/122/122 143/143/143 121/121/121
f 141/141/141 144/144/144 139/139/139
f 139/139/139 144/144/144 145/145/145
f 138/138/138 146/146/146 141/141/141
f 142/142/142 146/146/146 138/138/138
f 137/137/137 147/147/147 142/142/142
f 143/143/143 147/147/147 137/137/137
f 122/122/122 148/148/148 143/143/143
f 123/123/123 148/148/148 122/122/122
f 141/141/141 149/149/149 144/144/144
f 146/146/146 149/149/149 141/141/141
f 142/142/142 150/150/150 146/146/146
f 147/147/147 150/150/150 142/142/142
f 143/143/143 151/151/151 147/147/147
f 148/148/148 151/151/151 143/143/143
f 123/123/123 152/152/152 148/148/148
f 124/124/124 152/152/152 123/123/123
f 149/149/149 153/153/153 144/144/144
f 144/144/144 153/153/153 154/154/154
f 146/146/146 155/155/155 149/149/149
f 150/150/150 155/155/155 146/146/146
f 147/147/147 156/156/156 150/150/150
f 151/151/151 156/156/156 147/147/147
f 148/148/148 157/157/157 151/151/151
f 152/152/152 157/157/157 148/148/148
f 124/124/124 158/158/158 152/152/152
f 125/125/125 158/158/158 124/124/124
f 149/149/149 159/159/159 153/153/153
f 155/155/155 159/159/159 149/149/149
f 150/150/150 160/160/160 155/155/155
f 156/156/156 160/160/160 150/150/150
f 151/151/151 161/161/161 156/156/156
f 157/157/157 161/161/161 151/151/151
f 152/152/152 162/162/162 157/157/157
f 158/158/158 162/162/162 152/152/152
f 125/125/125 163/163/163 158/158/158
f 127/127/127 163/163/163 125/125/125
f 159/159/159 164/164/164 153/153/153
f 153/153/153 164/164/164 165/165/165
f 156/156/156 166/166/166 160/160/160
f 161/161/161 166/166/166 156/156/156
f 157/157/157 167/167/167 161/161/161
f 162/162/162 167/167/167 157/157/157
f 158/158/158 168/168/168 162/162/162
f 163/163/163 168/168/168 158/158/158
f 127/127/127 169/169/169 163/163/163
f 170/170/170 169/169/169 127/127/127
f 169/169/169 171/171/171 163/163/163
f 163/163/163 171/171/171 168/168/168
f 168/168/168 172/172/172 162/162/162
f 162/162/162 172/172/172 167/167/167
f 167/167/167 173/173/173 161/161/161
f 161/161/161 173/173/173 166/166/166
f 169/169/169 174/174/174 171/171/171
f 175/175/175 174/174/174 169/169/169
f 171/171/171 176/176/176 168/168/168
f 168/168/168 176/176/176 172/172/172
f 172/172/172 177/177/177 167/167/167
f 167/167/167 177/177/177 173/173/173
f 174/174/174 178/178/178 171/171/171
f 171/171/171 178/178/178 176/176/176
f 176/176/176 179/179/179 172/172/172
f 172/172/172 179/179/179 177/177/177
f 174/174/174 180/180/180 178/178/178
f 181/181/181 180/180/180 174/174/174
f 178/178/178 182/182/182 176/176/176
f 176/176/176 182/182/182 179/179/179
f 180/180/180 183/183/183 178/178/178
f 178/178/178 183/183/183 182/182/182
f 180/180/180 184/184/184 183/183/183
f 185/185/185 184/184/184 180/180/180
f 184/184/184 186/186/186 183/183/183
f 183/183/183 186/186/186 187/187/187
f 183/183/183 187/187/187 182/182/182
f 186/186/186 188/188/188 187/187/187
f 182/182/182 189/189/189 179/179/179
f 182/182/182 187/187/187 189/189/189
f 187/187/187 188/188/188 190/190/190
f 187/187/187 190/190/190 189/189/189
f 188/188/188 191/191/191 190/190/190
f 179/179/179 189/189/189 192/192/192
f 179/179/179 192/192/192 177/177/177
f 189/189/189 190/190/190 193/193/193
f 189/189/189 193/193/193 192/192/192
f 190/190/190 191/191/191 194/194/194
f 190/190/190 194/194/194 193/193/193
f 191/191/191 195/195/195 194/194/194
f 177/177/177 192/192/192 196/196/196
f 177/177/177 196/196/196 173/173/173
f 192/192/192 193/193/193 197/197/197
f 192/192/192 197/197/197 196/196/196
f 193/193/193 194/194/194 198/198/198
f 193/193/193 198/198/198 197/197/197
f 194/194/194 195/195/195 199/199/199
f 194/194/194 199/199/199 198/198/198
f 195/195/195 200/200/200 199/199/199
f 173/173/173 196/196/196 201/201/201
f 173/173/173 201/201/201 166/166/166
f 196/196/196 197/197/197 202/202/202
f 196/196/196 202/202/202 201/201/201
f 197/197/197 198/198/198 203/203/203
f 197/197/197 203/203/203 202/202/202
f 198/198/198 199/199/199 204/204/204
f 198/198/198 204/204/204 203/203/203
f 199/199/199 200/200/200 205/205/205
f 199/199/199 205/205/205 204/204/204
f 200/200/200 206/206/206 205/205/205
f 166/166/166 201/201/201 207/207/207
f 166/166/166 207/207/207 160/160/160
f 201/201/201 202/202/202 208/208/208
f 201/201/201 208/208/208 207/207/207
f 202/202/202 203/203/203 209/209/209
f 202/202/202 209/209/209 208/208/208
f 203/203/203 204/204/204 210/210/210
f 203/203/203 210/210/210 209/209/209
f 204/204/204 205/205/205 211/211/211
f 204/204/204 211/211/211 210/210/210
f 205/205/205 206/206/206 212/212/212
f 205/205/205 212/212/212 211/211/211
f 206/206/206 213/213/213 212/212/212
f 160/160/160 207/207/207 214/214/214
f 160/160/160 214/214/214 155/155/155
f 155/155/155 214/214/214 159/159/159
f 207/207/207 208/208/208 215/215/215
f 207/207/207 215/215/215 214/214/214
f 214/214/214 216/216/216 159/159/159
f 214/214/214 215/215/215 216/216/216
f 159/159/159 216/216/216 164/164/164
f 212/212/212 213/213/213 217/217/217
f 213/213/213 218/218/218 217/217/217
f 211/211/211 212/212/212 219/219/219
f 212/212/212 217/217/217 219/219/219
f 208/208/208 220/220/220 215/215/215
f 208/208/208 209/209/209 220/220/220
f 216/216/216 221/221/221 164/164/164
f 164/164/164 221/221/221 222/222/222
f 215/215/215 223/223/223 216/216/216
f 216/216/216 223/223/223 221/221/221
f 215/215/215 220/220/220 223/223/223
f 217/217/217 218/218/218 224/224/224
f 218/218/218 225/225/225 224/224/224
f 209/209/209 226/226/226 220/220/220
f 209/209/209 210/210/210 226/226/226
f 223/223/223 227/227/227 221/221/221
f 221/221/221 227/227/227 228/228/228
f 220/220/220 229/229/229 223/223/223
f 223/223/223 229/229/229 227/227/227
f 220/220/220 226/226/226 229/229/229
f 210/210/210 230/230/230 226/226/226
f 210/210/210 211/211/211 230/230/230
f 211/211/211 219/219/219 230/230/230
f 219/219/219 217/217/217 231/231/231
f 217/217/217 224/224/224 231/231/231
f 229/229/229 232/232/232 227/227/227
f 227/227/227 232/232/232 233/233/233
f 226/226/226 234/234/234 229/229/229
f 226/226/226 230/230/230 234/234/234
f 229/229/229 234/234/234 232/232/232
f 230/230/230 219/219/219 235/235/235
f 230/230/230 235/235/235 234/234/234
f 219/219/219 231/231/231 235/235/235
f 234/234/234 236/236/236 232/232/232
f 234/234/234 235/235/235 236/236/236
f 232/232/232 236/236/236 237/237/237
f 235/235/235 238/238/238 236/236/236
f 235/235/235 231/231/231 238/238/238
f 236/236/236 238/238/238 239/239/239
f 231/231/231 240/240/240 238/238/238
f 238/238/238 240/240/240 241/241/241
f 231/231/231 224/224/224 240/240/240
f 224/224/224 242/242/242 240/240/240
f 240/240/240 242/242/242 243/243/243
f 224/224/224 225/225/225 242/242/242
f 225/225/225 244/244/244 242/242/242
f 242/242/242 244/244/244 245/245/245
f 248/248/248 247/247/247 246/246/246
f 249/249/249 247/247/247 248/248/248
f 250/250/250 249/249/249 248/248/248
f 250/250/250 248/248/248 251/251/251
f 251/251/251 248/248/248 252/252/252
f 249/249/249 253/253/253 247/247/247
f 253/253/253 254/254/254 247/247/247
f 247/247/247 254/254/254 255/255/255
f 256/256/256 249/249/249 250/250/250
f 257/257/257 253/253/253 249/249/249
f 256/256/256 257/257/257 249/249/249
f 258/258/258 250/250/250 251/251/251
f 259/259/259 256/256/256 250/250/250
f 259/259/259 250/250/250 258/258/258
f 258/258/258 251/251/251 260/260/260
f 260/260/260 251/251/251 261/261/261
f 253/253/253 262/262/262 254/254/254
f 257/257/257 263/263/263 253/253/253
f 263/263/263 262/262/262 253/253/253
f 262/262/262 264/264/264 254/254/254
f 254/254/254 264/264/264 265/265/265
f 266/266/266 257/257/257 256/256/256
f 267/267/267 256/256/256 259/259/259
f 267/267/267 266/266/266 256/256/256
f 268/268/268 263/263/263 257/257/257
f 266/266/266 268/268/268 257/257/257
f 269/269/269 258/258/258 260/260/260
f 270/270/270 259/259/259 258/258/258
f 270/270/270 258/258/258 269/269/269
f 269/269/269 260/260/260 271/271/271
f 271/271/271 260/260/260 272/272/272
f 273/273/273 269/269/269 271/271/271
f 274/274/274 269/269/269 273/273/273
f 274/274/274 270/270/270 269/269/269
f 275/275/275 274/274/274 273/273/273
f 276/276/276 259/259/259 270/270/270
f 276/276/276 267/267/267 259/259/259
f 277/277/277 274/274/274 275/275/275
f 278/278/278 277/277/277 275/275/275
f 279/279/279 270/270/270 274/274/274
f 279/279/279 276/276/276 270/270/270
f 277/277/277 279/279/279 274/274/274
f 280/280/280 277/277/277 278/278/278
f 281/281/281 280/280/280 278/278/278
f 282/282/282 280/280/280 281/281/281
f 280/280/280 283/283/283 277/277/277
f 283/283/283 279/279/279 277/277/277
f 284/284/284 283/283/283 280/280/280
f 283/283/283 285/285/285 279/279/279
f 285/285/285 276/276/276 279/279/279
f 286/286/286 285/285/285 283/283/283
f 285/285/285 287/287/287 276/276/276
f 287/287/287 267/267/267 276/276/276
f 288/288/288 287/287/287 285/285/285
f 287/287/287 289/289/289 267/267/267
f 290/290/290 289/289/289 287/287/287
f 289/289/289 266/266/266 267/267/267
f 289/289/289 291/291/291 266/266/266
f 292/292/292 291/291/291 289/289/289
f 291/291/291 268/268/268 266/266/266
f 291/291/291 293/293/293 268/268/268
f 294/294/294 293/293/293 291/291/291
f 293/293/293 295/295/295 268/268/268
f 268/268/268 295/295/295 263/263/263
f 293/293/293 296/296/296 295/295/295
f 297/297/297 296/296/296 293/293/293
f 295/295/295 298/298/298 263/263/263
f 263/263/263 298/298/298 262/262/262
f 296/296/296 299/299/299 295/295/295
f 295/295/295 299/299/299 298/298/298
f 298/298/298 300/300/300 262/262/262
f 262/262/262 300/300/300 264/264/264
f 296/296/296 301/301/301 299/299/299
f 302/302/302 301/301/301 296/296/296
f 299/299/299 303/303/303 298/298/298
f 298/298/298 303/303/303 300/300/300
f 300/300/300 304/304/304 264/264/264
f 264/264/264 304/304/304 305/305/305
f 301/301/301 306/306/306 299/299/299
f 299/299/299 306/306/306 303/303/303
f 300/300/300 307/307/307 304/304/304
f 303/303/303 307/307/307 300/300/300
f 301/301/301 308/308/308 306/306/306
f 309/309/309 308/308/308 301/301/301
f 306/306/306 310/310/310 303/303/303
f 303/303/303 310/310/310 307/307/307
f 307/307/307 311/311/311 304/304/304
f 304/304/304 311/311/311 312/312/312
f 308/308/308 313/313/313 306/306/306
f 306/306/306 313/313/313 310/310/310
f 307/307/307 314/314/314 311/311/311
f 310/310/310 314/314/314 307/307/307
f 308/308/308 315/315/315 313/313/313
f 316/316/316 315/315/315 308/308/308
f 313/313/313 317/317/317 310/310/310
f 310/310/310 317/317/317 314/314/314
f 314/314/314 318/318/318 311/311/311
f 311/311/311 318/318/318 319/319/319
f 315/315/315 320/320/320 313/313/313
f 313/313/313 320/320/320 317/317/317
f 314/314/314 321/321/321 318/318/318
f 317/317/317 321/321/321 314/314/314
f 315/315/315 322/322/322 320/320/320
f 323/323/323 322/322/322 315/315/315
f 322/322/322 324/324/324 320/320/320
f 320/320/320 325/325/325 317/317/317
f 320/320/320 324/324/324 325/325/325
f 317/317/317 325/325/325 321/321/321
f 324/324/324 326/326/326 325/325/325
f 325/325/325 326/326/326 327/327/327
f 325/325/325 327/327/327 321/321/321
f 326/326/326 328/328/328 327/327/327
f 321/321/321 329/329/329 318/318/318
f 321/321/321 327/327/327 329/329/329
f 318/318/318 329/329/329 330/330/330
f 327/327/327 328/328/328 331/331/331
f 327/327/327 331/331/331 329/329/329
f 329/329/329 331/331/331 332/332/332
f 328/328/328 333/333/333 331/331/331
f 331/331/331 333/333/333 334/334/334
f 337/337/337 336/336/336 335/335/335
f 338/338/338 336/336/336 337/337/337
f 339/339/339 338/338/338 337/337/337
f 339/339/339 337/337/337 340/340/340
f 340/340/340 337/337/337 341/341/341
f 338/338/338 342/342/342 336/336/336
f 342/342/342 343/343/343 336/336/336
f 336/336/336 343/343/343 344/344/344
f 345/345/345 338/338/338 339/339/339
f 346/346/346 342/342/342 338/338/338
f 345/345/345 346/346/346 338/338/338
f 347/347/347 339/339/339 340/340/340
f 348/348/348 345/345/345 339/339/339
f 348/348/348 339/339/339 347/347/347
f 347/347/347 340/340/340 349/349/349
f 349/349/349 340/340/340 350/350/350
f 342/342/342 351/351/351 343/343/343
f 346/346/346 352/352/352 342/342/342
f 352/352/352 351/351/351 342/342/342
f 351/351/351 353/353/353 343/343/343
f 343/343/343 353/353/353 354/354/354
f 355/355/355 346/346/346 345/345/345
f 356/356/356 345/345/345 348/348/348
f 356/356/356 355/355/355 345/345/345
f 357/357/357 352/352/352 346/346/346
f 355/355/355 357/357/357 346/346/346
f 358/358/358 347/347/347 349/349/349
f 359/359/359 348/348/348 347/347/347
f 359/359/359 347/347/347 358/358/358
f 358/358/358 349/349/349 360/360/360
f 360/360/360 349/349/349 361/361/361
f 362/362/362 358/358/358 360/360/360
f 363/363/363 358/358/358 362/362/362
f 363/363/363 359/359/359 358/358/358
f 364/364/364 363/363/363 362/362/362
f 365/365/365 348/348/348 359/359/359
f 365/365/365 356/356/356 348/348/348
f 366/366/366 363/363/363 364/364/364
f 367/367/367 366/366/366 364/364/364
f 368/368/368 359/359/359 363/363/363
f 368/368/368 365/365/365 359/359/359
f 366/366/366 368/368/368 363/363/363
f 369/369/369 366/366/366 367/367/367
f 370/370/370 369/369/369 367/367/367
f 371/371/371 369/369/369 370/370/370
f 369/369/369 372/372/372 366/366/366
f 372/372/372 368/368/368 366/366/366
f 373/373/373 372/372/372 369/369/369
f 372/372/372 374/374/374 368/368/368
f 374/374/374 365/365/365 368/368/368
f 375/375/375 374/374/374 372/372/372
f 374/374/374 376/376/376 365/365/365
f 376/376/376 356/356/356 365/365/365
f 377/377/377 376/376/376 374/374/374
f 376/376/376 378/378/378 356/356/356
f 379/379/379 378/378/378 376/376/376
f 378/378/378 355/355/355 356/356/356
f 378/378/378 380/380/380 355/355/355
f 381/381/381 380/380/380 378/378/378
f 380/380/380 357/357/357 355/355/355
f 380/380/380 382/382/382 357/357/357
f 383/383/383 382/382/382 380/380/380
f 382/382/382 384/384/384 357/357/357
f 357/357/357 384/384/384 352/352/352
f 382/382/382 385/385/385 384/384/384
f 386/386/386 385/385/385 382/382/382
f 384/384/384 387/387/387 352/352/352
f 352/352/352 387/387/387 351/351/351
f 385/385/385 388/388/388 384/384/384
f 384/384/384 388/388/388 387/387/387
f 387/387/387 389/389/389 351/351/351
f 351/351/351 389/389/389 353/353/353
f 385/385/385 390/390/390 388/388/388
f 391/391/391 390/390/390 385/385/385
f 388/388/388 392/392/392 387/387/387
f 387/387/387 392/392/392 389/389/389
f 389/389/389 393/393/393 353/353/353
f 353/353/353 393/393/393 394/394/394
f 390/390/390 395/395/395 388/388/388
f 388/388/388 395/395/395 392/392/392
f 389/389/389 396/396/396 393/393/393
f 392/392/392 396/396/396 389/389/389
f 390/390/390 397/397/397 395/395/395
f 398/398/398 397/397/397 390/390/390
f 395/395/395 399/399/399 392/392/392
f 392/392/392 399/399/399 396/396/396
f 396/396/396 400/400/400 393/393/393
f 393/393/393 400/400/400 401/401/401
f 397/397/397 402/402/402 395/395/395
f 395/395/395 402/402/402 399/399/399
f 396/396/396 403/403/403 400/400/400
f 399/399/399 403/403/403 396/396/396
f 397/397/397 404/404/404 402/402/402
f 405/405/405 404/404/404 397/397/397
f 402/402/402 406/406/406 399/399/399
f 399/399/399 406/406/406 403/403/403
f 403/403/403 407/407/407 400/400/400
f 400/400/400 407/407/407 408/408/408
f 404/404/404 409/409/409 402/402/402
f 402/402/402 409/409/409 406/406/406
f 403/403/403 410/410/410 407/407/407
f 406/406/406 410/410/410 403/403/403
f 404/404/404 411/411/411 409/409/409
f 412/412/412 411/411/411 404/404/404
f 411/411/411 413/413/413 409/409/409
f 409/409/409 414/414/414 406/406/406
f 409/409/409 413/413/413 414/414/414
f 406/406/406 414/414/414 410/410/410
f 413/413/413 415/415/415 414/414/414
f 414/414/414 415/415/415 416/416/416
f 414/414/414 416/416/416 410/410/410
f 415/415/415 417/417/417 416/416/416
f 410/410/410 418/418/418 407/407/407
f 410/410/410 416/416/416 418/418/418
f 407/407/407 418/418/418 419/419/419
f 416/416/416 417/417/417 420/420/420
f 416/416/416 420/420/420 418/418/418
f 418/418/418 420/420/420 421/421/421
f 417/417/417 422/422/422 420/420/420
f 420/420/420 422/422/422 423/423/423
f 426/426/426 425/425/425 424/424/424
f 424/424/424 427/427/427 426/426/426
f 427/427/427 428/428/428 426/426/426
f 427/427/427 429/429/429 428/428/428
f 432/432/432 431/431/431 430/430/430
f 430/430/430 433/433/433 432/432/432
f 433/433/433 434/434/434 432/432/432
f 433/433/433 435/435/435 434/434/434
f 438/438/438 437/437/437 436/436/436
f 436/436/436 439/439/439 438/438/438
f 439/439/439 440/440/440 438/438/438
f 439/439/439 441/441/441 440/440/440
f 444/444/444 443/443/443 442/442/442
f 442/442/442 445/445/445 444/444/444
f 445/445/445 446/446/446 444/444/444
f 445/445/445 447/447/447 446/446/446
f 450/450/450 449/449/449 448/448/448
f 450/450/450 448/448/448 451/451/451
f 450/450/450 452/452/452 449/449/449
f 450/450/450 451/451/451 453/453/453
f 450/450/450 454/454/454 452/452/452
f 450/450/450 453/453/453 454/454/454
f 457/457/457 456/456/456 455/455/455
f 457/457/457 455/455/455 458/458/458
f 457/457/457 459/459/459 456/456/456
f 457/457/457 458/458/458 460/460/460
f 457/457/457 461/461/461 459/459/459
f 457/457/457 460/460/460 461/461/461
f 464/464/464 463/463/463 462/462/462
f 464/464/464 462/462/462 465/465/465
f 464/464/464 466/466/466 463/463/463
f 464/464/464 465/465/465 467/467/467
f 464/464/464 468/468/468 466/466/466
f 464/464/464 467/467/467 468/468/468
f 471/471/471 470/470/470 469/469/469
f 471/471/471 469/469/469 472/472/472
f 471/471/471 473/473/473 470/470/470
f 471/471/471 472/472/472 474/474/474
f 471/471/471 475/475/475 473/473/473
f 471/471/471 474/474/474 475/475/475
