g Ram Head
v 1.1368684E-13 2.0707 0.37000382
v 0.21748053 -2.3173835 0.2993401
v 1.1368684E-13 -2.3173823 0.37000382
v 0.21748053 2.0706992 0.2993401
v 0.3518909 -2.3173823 0.1143401
v 0.3518909 2.0706997 0.1143401
v 0.35189086 -2.3173823 -0.1143325
v 0.35189086 2.0707 -0.11433249
v 0.21748051 -2.317382 -0.2993325
v 0.21748051 2.0707 -0.2993325
v -3.234618E-08 -2.3173823 -0.3699962
v -3.234618E-08 2.0707 -0.3699962
v -0.21748057 -2.317382 -0.29933247
v -0.21748057 2.0707006 -0.29933247
v -0.35189086 -2.3173823 -0.11433251
v -0.35189086 2.0707002 -0.11433251
v -0.35189086 -2.317383 0.11434015
v -0.35189086 2.0706997 0.11434016
v -0.21748056 -2.3173835 0.2993401
v -0.21748056 2.0706992 0.2993401
v 1.1368684E-13 -2.3173823 0.37000382
v 1.1368684E-13 2.0707 0.37000382
v -3.234618E-08 -2.3173823 -0.3699962
v 2.5567581E-09 -2.4104939 -0.50018317
v 0.29400244 -2.4104936 -0.404656
v 0.21748051 -2.317382 -0.2993325
v -0.21748057 2.0707006 -0.29933247
v -3.234618E-08 2.0707 -0.3699962
v 0.21748051 2.0707 -0.2993325
v 0.35189086 2.0707 -0.11433249
v -0.35189086 2.0707002 -0.11433251
v -0.35189086 2.0706997 0.11434016
v 0.3518909 2.0706997 0.1143401
v 0.21748053 2.0706992 0.2993401
v -0.21748056 2.0706992 0.2993401
v 1.1368684E-13 2.0707 0.37000382
v 0.21748051 -2.317382 -0.2993325
v 0.29400244 -2.4104936 -0.404656
v 0.47570595 -2.4104939 -0.15456255
v 0.35189086 -2.3173823 -0.1143325
v 0.21748053 -2.3173835 0.2993401
v 0.29400247 -2.4104955 0.52221024
v 4.62843E-08 -2.4104939 0.50019056
v 1.1368684E-13 -2.3173823 0.37000382
v 0.35189086 -2.3173823 -0.1143325
v 0.47570595 -2.4104939 -0.15456255
v 0.47570598 -2.4104939 0.27211684
v 0.3518909 -2.3173823 0.1143401
v 0.3518909 -2.3173823 0.1143401
v 0.47570598 -2.4104939 0.27211684
v 0.29400247 -2.4104955 0.52221024
v 0.21748053 -2.3173835 0.2993401
v 1.1368684E-13 -2.3173823 0.37000382
v 4.62843E-08 -2.4104939 0.50019056
v -0.29400244 -2.4104955 0.52221024
v -0.21748056 -2.3173835 0.2993401
v -0.21748056 -2.3173835 0.2993401
v -0.29400244 -2.4104955 0.52221024
v -0.47570586 -2.4104948 0.27211693
v -0.35189086 -2.317383 0.11434015
v -0.35189086 -2.317383 0.11434015
v -0.47570586 -2.4104948 0.27211693
v -0.47570586 -2.4104939 -0.15456258
v -0.35189086 -2.3173823 -0.11433251
v -0.35189086 -2.3173823 -0.11433251
v -0.47570586 -2.4104939 -0.15456258
v -0.29400244 -2.4104936 -0.40465596
v -0.21748057 -2.317382 -0.29933247
v -0.21748057 -2.317382 -0.29933247
v -0.29400244 -2.4104936 -0.40465596
v 2.5567581E-09 -2.4104939 -0.50018317
v -3.234618E-08 -2.3173823 -0.3699962
v -0.29400244 -2.4104936 -0.40465596
v -0.2940023 -2.8277738 -0.40465656
v 1.5388916E-07 -2.827774 -0.50018376
v 2.5567581E-09 -2.4104939 -0.50018317
v 0.47570595 -2.4104939 -0.15456255
v 0.4757061 -2.827774 -0.15456313
v 0.47570613 -2.827774 0.27211627
v 0.47570598 -2.4104939 0.27211684
v 4.62843E-08 -2.4104939 0.50019056
v 1.976167E-07 -2.827774 0.50018996
v -0.2940023 -2.8277757 0.52220964
v -0.29400244 -2.4104955 0.52221024
v -0.47570586 -2.4104939 -0.15456258
v -0.4757057 -2.827774 -0.15456316
v -0.2940023 -2.8277738 -0.40465656
v -0.29400244 -2.4104936 -0.40465596
v 0.29400244 -2.4104936 -0.404656
v 0.2940026 -2.8277738 -0.4046566
v 0.4757061 -2.827774 -0.15456313
v 0.47570595 -2.4104939 -0.15456255
v 0.29400247 -2.4104955 0.52221024
v 0.29400262 -2.8277757 0.52220964
v 1.976167E-07 -2.827774 0.50018996
v 4.62843E-08 -2.4104939 0.50019056
v -0.47570586 -2.4104948 0.27211693
v -0.4757057 -2.827775 0.27211633
v -0.4757057 -2.827774 -0.15456316
v -0.47570586 -2.4104939 -0.15456258
v 2.5567581E-09 -2.4104939 -0.50018317
v 1.5388916E-07 -2.827774 -0.50018376
v 0.2940026 -2.8277738 -0.4046566
v 0.29400244 -2.4104936 -0.404656
v 0.15811102 -3.2250438 -0.2176181
v 1.3041235E-07 -3.225044 -0.26899144
v -0.15811077 -3.2250438 -0.2176181
v 0.25582892 -3.225044 -0.08312092
v -0.25582862 -3.225044 -0.08312094
v -0.25582862 -3.2250445 0.08312675
v 0.25582895 -3.225044 0.08312672
v 0.15811104 -3.225045 0.21762386
v -0.15811077 -3.225045 0.21762386
v 1.5392848E-07 -3.225044 0.26899722
v 1.976167E-07 -2.827774 0.50018996
v 1.5392848E-07 -3.225044 0.26899722
v -0.15811077 -3.225045 0.21762386
v -0.2940023 -2.8277757 0.52220964
v -0.25582862 -3.2250445 0.08312675
v -0.4757057 -2.827775 0.27211633
v -0.25582862 -3.225044 -0.08312094
v -0.4757057 -2.827774 -0.15456316
v -0.15811077 -3.2250438 -0.2176181
v -0.2940023 -2.8277738 -0.40465656
v 1.3041235E-07 -3.225044 -0.26899144
v 1.5388916E-07 -2.827774 -0.50018376
v 0.15811102 -3.2250438 -0.2176181
v 0.2940026 -2.8277738 -0.4046566
v 0.25582892 -3.225044 -0.08312092
v 0.4757061 -2.827774 -0.15456313
v 0.25582895 -3.225044 0.08312672
v 0.47570613 -2.827774 0.27211627
v 0.15811104 -3.225045 0.21762386
v 0.29400262 -2.8277757 0.52220964
v 1.5392848E-07 -3.225044 0.26899722
v 1.976167E-07 -2.827774 0.50018996
v 0.6070086 -2.3116531 0.512378
v 0.60700864 -2.412536 0.51237786
v 0.5630795 -2.4125364 0.57284117
v 0.5630794 -2.3116534 0.5728413
v 0.29400247 -2.4104955 0.52221024
v 0.47570598 -2.4104939 0.27211684
v 0.6070086 -2.3116531 0.512378
v 0.5630794 -2.3116534 0.5728413
v 0.29400262 -2.8277757 0.52220964
v 0.29400247 -2.4104955 0.52221024
v 0.5630794 -2.3116534 0.5728413
v 0.5630795 -2.4125364 0.57284117
v 0.47570613 -2.827774 0.27211627
v 0.29400262 -2.8277757 0.52220964
v 0.5630795 -2.4125364 0.57284117
v 0.60700864 -2.412536 0.51237786
v 0.47570598 -2.4104939 0.27211684
v 0.47570613 -2.827774 0.27211627
v 0.60700864 -2.412536 0.51237786
v 0.6070086 -2.3116531 0.512378
v -0.5630793 -2.3116539 0.57284135
v -0.56307924 -2.4125366 0.5728412
v -0.6070084 -2.4125364 0.5123779
v -0.6070084 -2.3116536 0.51237804
v -0.47570586 -2.4104948 0.27211693
v -0.29400244 -2.4104955 0.52221024
v -0.5630793 -2.3116539 0.57284135
v -0.6070084 -2.3116536 0.51237804
v -0.4757057 -2.827775 0.27211633
v -0.47570586 -2.4104948 0.27211693
v -0.6070084 -2.3116536 0.51237804
v -0.6070084 -2.4125364 0.5123779
v -0.2940023 -2.8277757 0.52220964
v -0.4757057 -2.827775 0.27211633
v -0.6070084 -2.4125364 0.5123779
v -0.56307924 -2.4125366 0.5728412
v -0.29400244 -2.4104955 0.52221024
v -0.2940023 -2.8277757 0.52220964
v -0.56307924 -2.4125366 0.5728412
v -0.5630793 -2.3116539 0.57284135
vt 1 0.5
vt 0.9 1
vt 1 1
vt 0.9 0.5
vt 0.79999995 1
vt 0.79999995 0.5
vt 0.6999999 1
vt 0.6999999 0.5
vt 0.5999999 1
vt 0.5999999 0.5
vt 0.4999999 1
vt 0.4999999 0.5
vt 0.39999992 1
vt 0.39999992 0.5
vt 0.29999992 1
vt 0.29999992 0.5
vt 0.19999993 1
vt 0.19999993 0.5
vt 0.09999993 1
vt 0.09999993 0.5
vt -7.4505806E-08 1
vt -7.4505806E-08 0.5
vt 0.4999999 1
vt 0.4999999 1
vt 0.5999999 1
vt 0.5999999 1
vt 0.60893154 0.055835932
vt 0.75 0.010000005
vt 0.89106846 0.055835918
vt 0.97825354 0.17583591
vt 0.52174646 0.17583591
vt 0.52174646 0.3241641
vt 0.97825354 0.32416406
vt 0.89106846 0.44416407
vt 0.60893154 0.44416407
vt 0.75 0.49
vt 0.5999999 1
vt 0.5999999 1
vt 0.6999999 1
vt 0.6999999 1
vt 0.9 1
vt 0.9 1
vt 1 1
vt 1 1
vt 0.6999999 1
vt 0.6999999 1
vt 0.79999995 1
vt 0.79999995 1
vt 0.79999995 1
vt 0.79999995 1
vt 0.9 1
vt 0.9 1
vt -7.4505806E-08 1
vt -7.4505806E-08 1
vt 0.09999993 1
vt 0.09999993 1
vt 0.09999993 1
vt 0.09999993 1
vt 0.19999993 1
vt 0.19999993 1
vt 0.19999993 1
vt 0.19999993 1
vt 0.29999992 1
vt 0.29999992 1
vt 0.29999992 1
vt 0.29999992 1
vt 0.39999992 1
vt 0.39999992 1
vt 0.39999992 1
vt 0.39999992 1
vt 0.4999999 1
vt 0.4999999 1
vt 0.39999992 1
vt 0.39999992 1
vt 0.4999999 1
vt 0.4999999 1
vt 0.6999999 1
vt 0.6999999 1
vt 0.79999995 1
vt 0.79999995 1
vt -7.4505806E-08 1
vt -7.4505806E-08 1
vt 0.09999993 1
vt 0.09999993 1
vt 0.29999992 1
vt 0.29999992 1
vt 0.39999992 1
vt 0.39999992 1
vt 0.5999999 1
vt 0.5999999 1
vt 0.6999999 1
vt 0.6999999 1
vt 0.9 1
vt 0.9 1
vt 1 1
vt 1 1
vt 0.19999993 1
vt 0.19999993 1
vt 0.29999992 1
vt 0.29999992 1
vt 0.4999999 1
vt 0.4999999 1
vt 0.5999999 1
vt 0.5999999 1
vt 0.39106846 0.055835918
vt 0.24999999 0.010000005
vt 0.10893151 0.055835932
vt 0.47825354 0.17583591
vt 0.021746457 0.17583591
vt 0.021746457 0.3241641
vt 0.47825354 0.32416406
vt 0.39106846 0.44416407
vt 0.10893153 0.44416407
vt 0.25 0.49
vt -7.4505806E-08 1
vt -7.4505806E-08 1
vt 0.09999993 1
vt 0.09999993 1
vt 0.19999993 1
vt 0.19999993 1
vt 0.29999992 1
vt 0.29999992 1
vt 0.39999992 1
vt 0.39999992 1
vt 0.4999999 1
vt 0.4999999 1
vt 0.5999999 1
vt 0.5999999 1
vt 0.6999999 1
vt 0.6999999 1
vt 0.79999995 1
vt 0.79999995 1
vt 0.9 1
vt 0.9 1
vt 1 1
vt 1 1
vt 0.79999995 1
vt 0.79999995 1
vt 0.9 1
vt 0.9 1
vt 0.9 1
vt 0.79999995 1
vt 0.79999995 1
vt 0.9 1
vt 0.9 1
vt 0.9 1
vt 0.9 1
vt 0.9 1
vt 0.79999995 1
vt 0.9 1
vt 0.9 1
vt 0.79999995 1
vt 0.79999995 1
vt 0.79999995 1
vt 0.79999995 1
vt 0.79999995 1
vt 0.09999993 1
vt 0.09999993 1
vt 0.19999993 1
vt 0.19999993 1
vt 0.19999993 1
vt 0.09999993 1
vt 0.09999993 1
vt 0.19999993 1
vt 0.19999993 1
vt 0.19999993 1
vt 0.19999993 1
vt 0.19999993 1
vt 0.09999993 1
vt 0.19999993 1
vt 0.19999993 1
vt 0.09999993 1
vt 0.09999993 1
vt 0.09999993 1
vt 0.09999993 1
vt 0.09999993 1
vn -0 0 1
vn 0.5877853 0 0.8090169
vn -0 0 1
vn 0.58778524 0 0.809017
vn 0.95105636 0 0.30901745
vn 0.95105666 0 0.30901662
vn 0.95105654 0 -0.3090169
vn 0.9510565 0 -0.30901715
vn 0.58778524 0 -0.809017
vn 0.5877852 0 -0.809017
vn -0 0 -1
vn -0 0 -1
vn -0.5877853 0 -0.809017
vn -0.5877854 0 -0.8090169
vn -0.95105666 0 -0.30901653
vn -0.95105636 0 -0.3090174
vn -0.95105636 0 0.30901748
vn -0.95105666 0 0.3090166
vn -0.5877856 0 0.80901676
vn -0.58778524 0 0.809017
vn -0 0 1
vn -0 0 1
vn 0.18572862 0.79922444 -0.5716162
vn 0.18572862 0.79922444 -0.5716162
vn 0.18572862 0.79922444 -0.5716162
vn 0.18572862 0.79922444 -0.5716162
vn -0 1 0
vn -0 1 0
vn -0 1 0
vn -0 1 0
vn -0 1 0
vn -0 1 0
vn -0 1 0
vn -0 1 0
vn -0 1 0
vn -0 1 0
vn 0.48624614 0.79922414 -0.3532782
vn 0.48624614 0.79922414 -0.3532782
vn 0.48624614 0.79922414 -0.3532782
vn 0.48624614 0.79922414 -0.3532782
vn 0.04362726 0.8875291 0.45868152
vn 0.04362726 0.8875291 0.45868152
vn 0.04362726 0.8875291 0.45868152
vn 0.04362726 0.8875291 0.45868152
vn 0.60103303 0.79922426 0
vn 0.60103303 0.79922426 0
vn 0.60103303 0.79922426 0
vn 0.60103303 0.79922426 0
vn 0.3516662 0.9005817 0.2555064
vn 0.3516662 0.9005817 0.2555064
vn 0.3516662 0.9005817 0.2555064
vn 0.3516662 0.9005817 0.2555064
vn -0.04362726 0.8875292 0.45868146
vn -0.04362726 0.8875292 0.45868146
vn -0.04362726 0.8875292 0.45868146
vn -0.04362726 0.8875292 0.45868146
vn -0.35166916 0.90058064 0.25550577
vn -0.35166916 0.90058064 0.25550577
vn -0.35166916 0.90058064 0.25550577
vn -0.35166916 0.90058064 0.25550577
vn -0.60103333 0.799224 0
vn -0.60103333 0.799224 0
vn -0.60103333 0.799224 0
vn -0.60103333 0.799224 0
vn -0.48624653 0.7992241 -0.35327783
vn -0.48624653 0.7992241 -0.35327783
vn -0.48624653 0.7992241 -0.35327783
vn -0.48624653 0.7992241 -0.35327783
vn -0.18572865 0.79922444 -0.57161623
vn -0.18572865 0.79922444 -0.57161623
vn -0.18572865 0.79922444 -0.57161623
vn -0.18572865 0.79922444 -0.57161623
vn -0.30901703 0 -0.95105654
vn -0.30901703 0 -0.95105654
vn -0.30901703 0 -0.95105654
vn -0.30901703 0 -0.95105654
vn 1 0 0
vn 1 0 0
vn 1 0 0
vn 1 0 0
vn 0.07468695 0 0.997207
vn 0.07468695 0 0.997207
vn 0.07468695 0 0.997207
vn 0.07468695 0 0.997207
vn -0.80901706 0 -0.5877852
vn -0.80901706 0 -0.5877852
vn -0.80901706 0 -0.5877852
vn -0.80901706 0 -0.5877852
vn 0.80901706 0 -0.5877852
vn 0.80901706 0 -0.5877852
vn 0.80901706 0 -0.5877852
vn 0.80901706 0 -0.5877852
vn -0.07468699 0 0.997207
vn -0.07468699 0 0.997207
vn -0.07468699 0 0.997207
vn -0.07468699 0 0.997207
vn -1 0 0
vn -1 0 0
vn -1 0 0
vn -1 0 0
vn 0.30901688 0 -0.95105654
vn 0.30901688 0 -0.95105654
vn 0.30901688 0 -0.95105654
vn 0.30901688 0 -0.95105654
vn -0 -1 0
vn -0 -1 0
vn -0 -1 0
vn -0 -1 0
vn -0 -1 0
vn -0 -1 0
vn -0 -1 0
vn -0 -1 0
vn -0 -1 0
vn -0 -1 0
vn -0 -0.56536883 0.8248382
vn -0 -0.56536883 0.8248382
vn -0.4006984 -0.6153854 0.6787796
vn -0.3752151 -0.61460036 0.6938876
vn -0.8074517 -0.5492794 0.21520655
vn -0.77455 -0.56446266 0.28540182
vn -0.8219959 -0.50298053 -0.26708305
vn -0.82199574 -0.5029806 -0.2670835
vn -0.5080216 -0.5029806 -0.6992315
vn -0.50802165 -0.5029806 -0.6992315
vn -0 -0.5029809 -0.8642975
vn -0 -0.5029809 -0.8642975
vn 0.50802165 -0.5029808 -0.6992312
vn 0.5080218 -0.5029808 -0.6992312
vn 0.82199585 -0.5029807 -0.26708266
vn 0.82199585 -0.5029807 -0.26708266
vn 0.80745196 -0.54927903 0.21520635
vn 0.77455056 -0.5644622 0.28540123
vn 0.40069902 -0.61538506 0.6787793
vn 0.37521634 -0.6146002 0.69388705
vn -0 -0.56536883 0.8248382
vn -0 -0.56536883 0.8248382
vn 0.8090165 0 0.5877859
vn 0.8090165 0 0.5877859
vn 0.8090165 0 0.5877859
vn 0.8090165 0 0.5877859
vn -0.3001035 0.9286547 -0.21803299
vn -0.3001035 0.9286547 -0.21803299
vn -0.3001035 0.9286547 -0.21803299
vn -0.3001035 0.9286547 -0.21803299
vn -0.18491992 0 0.98275363
vn -0.18491992 0 0.98275363
vn -0.18491992 0 0.98275363
vn -0.18491992 0 0.98275363
vn 0.6949764 -0.5119151 0.5049265
vn 0.6949764 -0.5119151 0.5049265
vn 0.6949764 -0.5119151 0.5049265
vn 0.6949764 -0.5119151 0.5049265
vn 0.87750995 0 -0.47955847
vn 0.87750995 0 -0.47955847
vn 0.87750995 0 -0.47955847
vn 0.87750995 0 -0.47955847
vn -0.8090166 0 0.5877859
vn -0.8090166 0 0.5877859
vn -0.8090166 0 0.5877859
vn -0.8090166 0 0.5877859
vn 0.30010203 0.9286547 -0.21803541
vn 0.30010203 0.9286547 -0.21803541
vn 0.30010203 0.9286547 -0.21803541
vn 0.30010203 0.9286547 -0.21803541
vn -0.8775098 0 -0.4795589
vn -0.8775098 0 -0.4795589
vn -0.8775098 0 -0.4795589
vn -0.8775098 0 -0.4795589
vn -0.6949755 -0.511915 0.5049277
vn -0.6949755 -0.511915 0.5049277
vn -0.6949755 -0.511915 0.5049277
vn -0.6949755 -0.511915 0.5049277
vn 0.18492058 0 0.9827535
vn 0.18492058 0 0.9827535
vn 0.18492058 0 0.9827535
vn 0.18492058 0 0.9827535
g Ram Head_0
f 3/3/3 2/2/2 1/1/1
f 2/2/2 4/4/4 1/1/1
f 2/2/2 5/5/5 4/4/4
f 5/5/5 6/6/6 4/4/4
f 5/5/5 7/7/7 6/6/6
f 7/7/7 8/8/8 6/6/6
f 7/7/7 9/9/9 8/8/8
f 9/9/9 10/10/10 8/8/8
f 9/9/9 11/11/11 10/10/10
f 11/11/11 12/12/12 10/10/10
f 11/11/11 13/13/13 12/12/12
f 13/13/13 14/14/14 12/12/12
f 13/13/13 15/15/15 14/14/14
f 15/15/15 16/16/16 14/14/14
f 15/15/15 17/17/17 16/16/16
f 17/17/17 18/18/18 16/16/16
f 17/17/17 19/19/19 18/18/18
f 19/19/19 20/20/20 18/18/18
f 19/19/19 21/21/21 20/20/20
f 21/21/21 22/22/22 20/20/20
f 25/25/25 24/24/24 23/23/23
f 26/26/26 25/25/25 23/23/23
f 29/29/29 28/28/28 27/27/27
f 27/27/27 30/30/30 29/29/29
f 27/27/27 31/31/31 30/30/30
f 31/31/31 32/32/32 30/30/30
f 32/32/32 33/33/33 30/30/30
f 32/32/32 34/34/34 33/33/33
f 32/32/32 35/35/35 34/34/34
f 35/35/35 36/36/36 34/34/34
f 39/39/39 38/38/38 37/37/37
f 40/40/40 39/39/39 37/37/37
f 43/43/43 42/42/42 41/41/41
f 44/44/44 43/43/43 41/41/41
f 47/47/47 46/46/46 45/45/45
f 48/48/48 47/47/47 45/45/45
f 51/51/51 50/50/50 49/49/49
f 52/52/52 51/51/51 49/49/49
f 55/55/55 54/54/54 53/53/53
f 56/56/56 55/55/55 53/53/53
f 59/59/59 58/58/58 57/57/57
f 60/60/60 59/59/59 57/57/57
f 63/63/63 62/62/62 61/61/61
f 64/64/64 63/63/63 61/61/61
f 67/67/67 66/66/66 65/65/65
f 68/68/68 67/67/67 65/65/65
f 71/71/71 70/70/70 69/69/69
f 72/72/72 71/71/71 69/69/69
f 75/75/75 74/74/74 73/73/73
f 76/76/76 75/75/75 73/73/73
f 79/79/79 78/78/78 77/77/77
f 80/80/80 79/79/79 77/77/77
f 83/83/83 82/82/82 81/81/81
f 84/84/84 83/83/83 81/81/81
f 87/87/87 86/86/86 85/85/85
f 88/88/88 87/87/87 85/85/85
f 91/91/91 90/90/90 89/89/89
f 92/92/92 91/91/91 89/89/89
f 95/95/95 94/94/94 93/93/93
f 96/96/96 95/95/95 93/93/93
f 99/99/99 98/98/98 97/97/97
f 100/100/100 99/99/99 97/97/97
f 103/103/103 102/102/102 101/101/101
f 104/104/104 103/103/103 101/101/101
f 107/107/107 106/106/106 105/105/105
f 105/105/105 108/108/108 107/107/107
f 108/108/108 109/109/109 107/107/107
f 108/108/108 110/110/110 109/109/109
f 108/108/108 111/111/111 110/110/110
f 111/111/111 112/112/112 110/110/110
f 112/112/112 113/113/113 110/110/110
f 112/112/112 114/114/114 113/113/113
f 117/117/117 116/116/116 115/115/115
f 118/118/118 117/117/117 115/115/115
f 119/119/119 117/117/117 118/118/118
f 120/120/120 119/119/119 118/118/118
f 121/121/121 119/119/119 120/120/120
f 122/122/122 121/121/121 120/120/120
f 123/123/123 121/121/121 122/122/122
f 124/124/124 123/123/123 122/122/122
f 125/125/125 123/123/123 124/124/124
f 126/126/126 125/125/125 124/124/124
f 127/127/127 125/125/125 126/126/126
f 128/128/128 127/127/127 126/126/126
f 129/129/129 127/127/127 128/128/128
f 130/130/130 129/129/129 128/128/128
f 131/131/131 129/129/129 130/130/130
f 132/132/132 131/131/131 130/130/130
f 133/133/133 131/131/131 132/132/132
f 134/134/134 133/133/133 132/132/132
f 135/135/135 133/133/133 134/134/134
f 136/136/136 135/135/135 134/134/134
f 139/139/139 138/138/138 137/137/137
f 140/140/140 139/139/139 137/137/137
f 143/143/143 142/142/142 141/141/141
f 144/144/144 143/143/143 141/141/141
f 147/147/147 146/146/146 145/145/145
f 148/148/148 147/147/147 145/145/145
f 151/151/151 150/150/150 149/149/149
f 152/152/152 151/151/151 149/149/149
f 155/155/155 154/154/154 153/153/153
f 156/156/156 155/155/155 153/153/153
f 159/159/159 158/158/158 157/157/157
f 160/160/160 159/159/159 157/157/157
f 163/163/163 162/162/162 161/161/161
f 164/164/164 163/163/163 161/161/161
f 167/167/167 166/166/166 165/165/165
f 168/168/168 167/167/167 165/165/165
f 171/171/171 170/170/170 169/169/169
f 172/172/172 171/171/171 169/169/169
f 175/175/175 174/174/174 173/173/173
f 176/176/176 175/175/175 173/173/173
