g Ramp C
v 0.27578413 0.61471426 0.018482843
v 0.2994458 0.5926804 0.116248414
v 0.2989892 0.5932257 0.018482758
v 0.27578413 0.61471426 0.018482843
v 0.27559355 0.61547077 0.10138622
v 0.24596013 0.64641297 0.077851824
v 0.2461788 0.645884 0.018482925
v 0.21649586 0.67796254 0.07121166
v 0.2167899 0.67752683 0.018482909
v 0.40814835 0.5676406 0.018482767
v 0.4080179 0.56902885 0.12190002
v 0.4057771 0.6305347 0.11041837
v 0.40612677 0.63004255 0.01848271
v 0.40226254 0.6775532 0.09487312
v 0.40226254 0.6775532 0.09487312
v 0.4021727 0.67830396 0.018483035
v 0.39577326 0.72959906 0.077851824
v 0.39558655 0.73014313 0.01848291
v 0.09913593 0.4243434 0.018482924
v 0.08269151 0.45813698 0.018482924
v 0.08269153 0.45813698 0.121899985
v 0.09913593 0.4243434 0.121899985
v 0.381677 0.7869896 0.02013371
v 0.3816877 0.78699225 0.066899985
v 0.30132446 0.79606134 0.06689977
v 0.30131695 0.79616636 0.018483153
v 0.30131695 0.79616636 0.018483153
v 0.30132446 0.79606134 0.06689977
v 0.26842934 0.7936255 0.06258874
v 0.26814228 0.7938464 0.018482324
v 0.08269151 0.45813698 0.018482924
v 0.093967706 0.538339 0.018482924
v 0.09396771 0.538339 0.121899985
v 0.08269153 0.45813698 0.121899985
v 0.40814835 0.5676406 0.018482767
v 0.3860636 0.5076726 0.018483186
v 0.3858994 0.5077261 0.12189989
v 0.4080179 0.56902885 0.12190002
v 0.29828876 0.5776397 0.018482884
v 0.2989892 0.5932257 0.018482758
v 0.2994458 0.5926804 0.116248414
v 0.29843158 0.57622063 0.12190002
v 0.23522286 0.5570377 0.018482924
v 0.2666561 0.54421186 0.018482924
v 0.2666554 0.54421175 0.12181425
v 0.23522286 0.5570377 0.121899985
v 0.19443733 0.56861335 0.018482924
v 0.23522286 0.5570377 0.018482924
v 0.23522286 0.5570377 0.121899985
v 0.19443733 0.56861335 0.121899985
v 0.2939562 0.55178356 0.018483039
v 0.29828876 0.5776397 0.018482884
v 0.29843158 0.57622063 0.12190002
v 0.29408333 0.55175585 0.12189989
v 0.21321437 0.75278676 0.018483292
v 0.26814228 0.7938464 0.018482324
v 0.26842934 0.7936255 0.06258874
v 0.2132944 0.7526794 0.066899635
v 0.22366995 0.39975706 0.018482924
v 0.22367048 0.39975715 0.12196427
v 0.28465906 0.4120747 0.12190044
v 0.28466043 0.41207373 0.018482924
v 0.28727564 0.53221947 0.018482924
v 0.28729108 0.5322126 0.12190044
v 0.2666554 0.54421175 0.12181425
v 0.2666561 0.54421186 0.018482924
v 0.39558655 0.73014313 0.01848291
v 0.39577326 0.72959906 0.077851824
v 0.3816877 0.78699225 0.066899985
v 0.381677 0.7869896 0.02013371
v 0.34702334 0.4484745 0.018482924
v 0.34700924 0.44848242 0.12190044
v 0.3858994 0.5077261 0.12189989
v 0.3860636 0.5076726 0.018483186
v 0.28466043 0.41207373 0.018482924
v 0.28465906 0.4120747 0.12190044
v 0.34700924 0.44848242 0.12190044
v 0.34702334 0.4484745 0.018482924
v 0.11909293 0.5662881 0.018482924
v 0.17181228 0.5773014 0.018482924
v 0.17181228 0.5773014 0.121899985
v 0.11909293 0.5662881 0.121899985
v 0.22366995 0.39975706 0.018482924
v 0.17091812 0.40133247 0.018482924
v 0.17091812 0.40133247 0.121899985
v 0.22367048 0.39975715 0.12196427
v 0.17091812 0.40133247 0.018482924
v 0.14677456 0.39922005 0.018482924
v 0.14677458 0.39922005 0.121899985
v 0.17091812 0.40133247 0.121899985
v 0.14677456 0.39922005 0.018482924
v 0.09913593 0.4243434 0.018482924
v 0.09913593 0.4243434 0.121899985
v 0.14677458 0.39922005 0.121899985
v 0.2167899 0.67752683 0.018482909
v 0.20196418 0.7214301 0.018482976
v 0.20191672 0.7214141 0.06689995
v 0.21649586 0.67796254 0.07121166
v 0.093967706 0.538339 0.018482924
v 0.11909293 0.5662881 0.018482924
v 0.11909293 0.5662881 0.121899985
v 0.09396771 0.538339 0.121899985
v 0.20196418 0.7214301 0.018482976
v 0.21321437 0.75278676 0.018483292
v 0.2132944 0.7526794 0.066899635
v 0.20191672 0.7214141 0.06689995
v 0.17181228 0.5773014 0.018482924
v 0.19443733 0.56861335 0.018482924
v 0.19443733 0.56861335 0.121899985
v 0.17181228 0.5773014 0.121899985
v 0.2939562 0.55178356 0.018483039
v 0.29408333 0.55175585 0.12189989
v 0.28729108 0.5322126 0.12190044
v 0.28727564 0.53221947 0.018482924
v 0.30132446 0.79606134 0.06689977
v 0.39577326 0.72959906 0.077851824
v 0.26842934 0.7936255 0.06258874
v 0.26842934 0.7936255 0.06258874
v 0.21649586 0.67796254 0.07121166
v 0.2132944 0.7526794 0.066899635
v 0.2132944 0.7526794 0.066899635
v 0.21649586 0.67796254 0.07121166
v 0.20191672 0.7214141 0.06689995
v 0.29843158 0.57622063 0.12190002
v 0.4080179 0.56902885 0.12190002
v 0.3858994 0.5077261 0.12189989
v 0.28729108 0.5322126 0.12190044
v 0.29408333 0.55175585 0.12189989
v 0.29843158 0.57622063 0.12190002
v 0.3858994 0.5077261 0.12189989
v 0.34700924 0.44848242 0.12190044
v 0.28465906 0.4120747 0.12190044
v 0.22367048 0.39975715 0.12196427
v 0.2666554 0.54421175 0.12181425
v 0.23522286 0.5570377 0.121899985
v 0.17091812 0.40133247 0.121899985
v 0.19443733 0.56861335 0.121899985
v 0.08269153 0.45813698 0.121899985
v 0.09913593 0.4243434 0.121899985
v 0.14677458 0.39922005 0.121899985
v 0.09396771 0.538339 0.121899985
v 0.11909293 0.5662881 0.121899985
v 0.17181228 0.5773014 0.121899985
v 0.39577326 0.72959906 0.077851824
v 0.30132446 0.79606134 0.06689977
v 0.3816877 0.78699225 0.066899985
v 0.2994458 0.5926804 0.116248414
v 0.4057771 0.6305347 0.11041837
v 0.4080179 0.56902885 0.12190002
v 0.40226254 0.6775532 0.09487312
v 0.27559355 0.61547077 0.10138622
v 0.24596013 0.64641297 0.077851824
v 0.40226254 0.6775532 0.09487312
v 0.4057771 0.6305347 0.11041837
v 0.2994458 0.5926804 0.116248414
v 0.2994458 0.5926804 0.116248414
v 0.4080179 0.56902885 0.12190002
v 0.29843158 0.57622063 0.12190002
v 0.40226254 0.6775532 0.09487312
v 0.24596013 0.64641297 0.077851824
v 0.39577326 0.72959906 0.077851824
v 0.40226254 0.6775532 0.09487312
v 0.2994458 0.5926804 0.116248414
v 0.27559355 0.61547077 0.10138622
v 0.26842934 0.7936255 0.06258874
v 0.39577326 0.72959906 0.077851824
v 0.24596013 0.64641297 0.077851824
v 0.21649586 0.67796254 0.07121166
vt 0.60491395 0.30099463
vt 0.6128369 0.2936534
vt 0.6128369 0.2936534
vt 0.60491395 0.30099463
vt 0.60491395 0.30099463
vt 0.5947943 0.31165347
vt 0.5947943 0.31165347
vt 0.5847628 0.32248232
vt 0.5847628 0.32248232
vt 0.6501849 0.28489578
vt 0.6501849 0.28489578
vt 0.6495149 0.3062421
vt 0.6495149 0.3062421
vt 0.6481132 0.322739
vt 0.6481132 0.322739
vt 0.6481132 0.322739
vt 0.6429209 0.34046292
vt 0.6429209 0.34046292
vt 0.54452425 0.23591307
vt 0.5389021 0.24746674
vt 0.5389021 0.24746674
vt 0.54452425 0.23591307
vt 0.64112484 0.35989955
vt 0.64112484 0.35989955
vt 0.61364985 0.3630185
vt 0.61364985 0.3630185
vt 0.61364985 0.3630185
vt 0.61364985 0.3630185
vt 0.6022913 0.36227956
vt 0.6022913 0.36227956
vt 0.5389021 0.24746674
vt 0.54275733 0.27488726
vt 0.54275733 0.27488726
vt 0.5389021 0.24746674
vt 0.6501849 0.28489578
vt 0.6425992 0.2644108
vt 0.6425992 0.2644108
vt 0.6501849 0.28489578
vt 0.6126042 0.28832632
vt 0.6128369 0.2936534
vt 0.6128369 0.2936534
vt 0.6126042 0.28832632
vt 0.5910513 0.28128022
vt 0.6017982 0.27689514
vt 0.6017982 0.27689514
vt 0.5910513 0.28128022
vt 0.57710713 0.28523788
vt 0.5910513 0.28128022
vt 0.5910513 0.28128022
vt 0.57710713 0.28523788
vt 0.6111468 0.2794816
vt 0.6126042 0.28832632
vt 0.6126042 0.28832632
vt 0.6111468 0.2794816
vt 0.58354056 0.34818703
vt 0.6022913 0.36227956
vt 0.6022913 0.36227956
vt 0.58354056 0.34818703
vt 0.58710164 0.22750717
vt 0.58710164 0.22750717
vt 0.6079536 0.23171835
vt 0.6079536 0.23171835
vt 0.6088496 0.27279443
vt 0.6088496 0.27279443
vt 0.6017982 0.27689514
vt 0.6017982 0.27689514
vt 0.6429209 0.34046292
vt 0.6429209 0.34046292
vt 0.64112484 0.35989955
vt 0.64112484 0.35989955
vt 0.62927395 0.24416398
vt 0.62927395 0.24416398
vt 0.6425992 0.2644108
vt 0.6425992 0.2644108
vt 0.6079536 0.23171835
vt 0.6079536 0.23171835
vt 0.62927395 0.24416398
vt 0.62927395 0.24416398
vt 0.55134743 0.28444287
vt 0.5693718 0.28820816
vt 0.5693718 0.28820816
vt 0.55134743 0.28444287
vt 0.58710164 0.22750717
vt 0.56906617 0.22804572
vt 0.56906617 0.22804572
vt 0.58710164 0.22750717
vt 0.56906617 0.22804572
vt 0.56081164 0.2273235
vt 0.56081164 0.2273235
vt 0.56906617 0.22804572
vt 0.56081164 0.2273235
vt 0.54452425 0.23591307
vt 0.54452425 0.23591307
vt 0.56081164 0.2273235
vt 0.5847628 0.32248232
vt 0.5796724 0.33748204
vt 0.5796724 0.33748204
vt 0.5847628 0.32248232
vt 0.54275733 0.27488726
vt 0.55134743 0.28444287
vt 0.55134743 0.28444287
vt 0.54275733 0.27488726
vt 0.5796724 0.33748204
vt 0.58354056 0.34818703
vt 0.58354056 0.34818703
vt 0.5796724 0.33748204
vt 0.5693718 0.28820816
vt 0.57710713 0.28523788
vt 0.57710713 0.28523788
vt 0.5693718 0.28820816
vt 0.6111468 0.2794816
vt 0.6111468 0.2794816
vt 0.6088496 0.27279443
vt 0.6088496 0.27279443
vt 0.61364985 0.3630185
vt 0.6429209 0.34046292
vt 0.6022913 0.36227956
vt 0.6022913 0.36227956
vt 0.5847628 0.32248232
vt 0.58354056 0.34818703
vt 0.58354056 0.34818703
vt 0.5847628 0.32248232
vt 0.5796724 0.33748204
vt 0.6126042 0.28832632
vt 0.6501849 0.28489578
vt 0.6425992 0.2644108
vt 0.6088496 0.27279443
vt 0.6111468 0.2794816
vt 0.6126042 0.28832632
vt 0.6425992 0.2644108
vt 0.62927395 0.24416398
vt 0.6079536 0.23171835
vt 0.58710164 0.22750717
vt 0.6017982 0.27689514
vt 0.5910513 0.28128022
vt 0.56906617 0.22804572
vt 0.57710713 0.28523788
vt 0.5389021 0.24746674
vt 0.54452425 0.23591307
vt 0.56081164 0.2273235
vt 0.54275733 0.27488726
vt 0.55134743 0.28444287
vt 0.5693718 0.28820816
vt 0.6429209 0.34046292
vt 0.61364985 0.3630185
vt 0.64112484 0.35989955
vt 0.6128369 0.2936534
vt 0.6495149 0.3062421
vt 0.6501849 0.28489578
vt 0.6481132 0.322739
vt 0.60491395 0.30099463
vt 0.5947943 0.31165347
vt 0.6481132 0.322739
vt 0.6495149 0.3062421
vt 0.6128369 0.2936534
vt 0.6128369 0.2936534
vt 0.6501849 0.28489578
vt 0.6126042 0.28832632
vt 0.6481132 0.322739
vt 0.5947943 0.31165347
vt 0.6429209 0.34046292
vt 0.6481132 0.322739
vt 0.6128369 0.2936534
vt 0.60491395 0.30099463
vt 0.6022913 0.36227956
vt 0.6429209 0.34046292
vt 0.5947943 0.31165347
vt 0.5847628 0.32248232
vn -0.6794476 -0.7337235 -0.000918686
vn -0.6924459 -0.7214526 0.0049920124
vn -0.6794476 -0.7337235 -0.000918686
vn -0.725064 -0.68867284 0.003465038
vn -0.6924459 -0.7214526 0.0049920124
vn -0.725064 -0.68867284 0.003465038
vn -0.725064 -0.68867284 0.003465038
vn -0.73272026 -0.6805282 0.0015360112
vn -0.73272026 -0.6805282 0.0015360112
vn 0.9993315 0.036551405 0.000769638
vn 0.9993315 0.036551405 0.000769638
vn 0.9993315 0.036551405 0.000769638
vn 0.9971283 0.07565476 0.003387802
vn 0.9971283 0.07565476 0.003387802
vn 0.9923145 0.12374174 4.9860275E-05
vn 0.9923145 0.12374174 4.9860275E-05
vn 0.9923145 0.12374174 4.9860275E-05
vn 0.9920238 0.12603536 -0.001965368
vn -0.8991897 -0.43755898 2.8530388E-07
vn -0.8991897 -0.43755898 2.8530388E-07
vn -0.8991897 -0.43755898 2.8530388E-07
vn -0.89919037 -0.43755767 0
vn 0.1121391 0.9936925 -8.39161E-05
vn 0.1121391 0.9936925 -8.39161E-05
vn 0.1121391 0.9936925 -8.39161E-05
vn 0.11341405 0.9935455 0.002142367
vn -0.07412971 0.99724627 0.002170768
vn -0.07412971 0.99724627 0.002170768
vn -0.07412971 0.99724627 0.002170768
vn -0.06976005 0.9975489 0.005451896
vn -0.9902604 0.13922766 0
vn -0.9902604 0.13922766 0
vn -0.9902604 0.13922766 0
vn -0.9902603 0.13922818 1.8217622E-07
vn 0.93838656 -0.34558353 0.0016685233
vn 0.93838656 -0.34558353 0.0016685233
vn 0.93838656 -0.34558353 0.0016685233
vn 0.9406295 -0.33938664 0.0057422677
vn -0.9989795 0.044896048 0.0049159764
vn -0.9989795 0.044896048 0.0049159764
vn -0.9989795 0.044896048 0.0049159764
vn -0.99805707 0.06226536 0.0022323506
vn 0.37779477 0.92588943 3.9141846E-06
vn 0.37779477 0.92588943 3.9141846E-06
vn 0.37779477 0.92588943 3.9141846E-06
vn 0.37780628 0.9258846 0
vn 0.273033 0.9620047 0
vn 0.273033 0.9620047 0
vn 0.273033 0.9620047 0
vn 0.27303314 0.9620046 0
vn -0.9862432 0.16526079 0.0036292982
vn -0.9862432 0.16526079 0.0036292982
vn -0.9862432 0.16526079 0.0036292982
vn -0.9845694 0.17499022 0.0012572034
vn -0.59870815 0.8009282 0.007907335
vn -0.59870815 0.8009282 0.007907335
vn -0.59870815 0.8009282 0.007907335
vn -0.5960757 0.8029235 0.002768091
vn 0.19796818 -0.9802084 -4.7397785E-07
vn 0.19796818 -0.9802084 -4.7397785E-07
vn 0.19796818 -0.9802084 -4.7397785E-07
vn 0.19794798 -0.98021257 1.2267525E-05
vn 0.5026719 0.86447734 -1.7924995E-05
vn 0.5026719 0.86447734 -1.7924995E-05
vn 0.5026719 0.86447734 -1.7924995E-05
vn 0.5027564 0.8644281 4.9533064E-06
vn 0.97121745 0.23819324 -0.0008722506
vn 0.97121745 0.23819324 -0.0008722506
vn 0.97121745 0.23819324 -0.0008722506
vn 0.9713435 0.2376799 -0.00023408563
vn 0.83597326 -0.5487701 0.00015656484
vn 0.83597326 -0.5487701 0.00015656484
vn 0.83597326 -0.5487701 0.00015656484
vn 0.8348064 -0.55054134 0.0016096818
vn 0.5042509 -0.8635572 1.4713358E-05
vn 0.5042509 -0.8635572 1.4713358E-05
vn 0.5042509 -0.8635572 1.4713358E-05
vn 0.5041026 -0.86364377 0.00013503253
vn -0.20448914 0.9788689 0
vn -0.20448914 0.9788689 0
vn -0.20448914 0.9788689 0
vn -0.20448914 0.9788688 0
vn -0.029850926 -0.99955434 0
vn -0.029850926 -0.99955434 0
vn -0.029850926 -0.99955434 0
vn -0.029849207 -0.99955434 5.5879525E-07
vn 0.087161526 -0.99619424 0
vn 0.087161526 -0.99619424 0
vn 0.087161526 -0.99619424 0
vn 0.087161526 -0.99619424 0
vn -0.4664792 -0.8845322 0
vn -0.4664792 -0.8845322 0
vn -0.4664792 -0.8845322 0
vn -0.46647877 -0.8845324 0
vn -0.9474367 -0.31994164 -0.0010333898
vn -0.9474367 -0.31994164 -0.0010333898
vn -0.9474367 -0.31994164 -0.0010333898
vn -0.9479752 -0.31833315 -0.0026570323
vn -0.7436769 0.6685391 0
vn -0.7436769 0.6685391 0
vn -0.7436769 0.6685391 0
vn -0.74367666 0.6685394 0
vn -0.9412502 0.3377022 0.0023051933
vn -0.9412502 0.3377022 0.0023051933
vn -0.9412502 0.3377022 0.0023051933
vn -0.93971115 0.34196833 -0.00080893136
vn 0.35847828 0.9335381 0
vn 0.35847828 0.9335381 0
vn 0.35847828 0.9335381 0
vn 0.35847872 0.9335379 0
vn -0.9445769 0.32828787 0.0012490503
vn -0.9445769 0.32828787 0.0012490503
vn -0.9445769 0.32828787 0.0012490503
vn -0.9463471 0.32315207 0.00016267416
vn -0.12851705 -0.019245813 0.9915206
vn -0.12851705 -0.019245813 0.9915206
vn -0.12851705 -0.019245813 0.9915206
vn 0.0341596 0.059040803 0.99767095
vn 0.0341596 0.059040803 0.99767095
vn 0.0341596 0.059040803 0.99767095
vn -0.14026828 0.05105463 0.98879635
vn -0.14026828 0.05105463 0.98879635
vn -0.14026828 0.05105463 0.98879635
vn -0 -2.1275725E-06 1
vn -0 -2.1275725E-06 1
vn -0 -2.1275725E-06 1
vn 0.0010509917 -2.3030889E-05 0.9999995
vn 1.1662114E-05 2.4259609E-05 1
vn -2.5037932E-06 -5.0288118E-06 1
vn -2.5037932E-06 -5.0288118E-06 1
vn -0 0 1
vn 0.0010509917 -2.3030889E-05 0.9999995
vn 0.0010509917 -2.3030889E-05 0.9999995
vn 0.0028102775 0.0002023326 0.99999607
vn 0.0028102775 0.0002023326 0.99999607
vn -0 0 1
vn -0 0 1
vn -0 0 1
vn 1.3485173E-07 0 1
vn 1.3485173E-07 0 1
vn -0 0 1
vn -1.3485057E-07 0 1
vn -1.3485057E-07 0 1
vn 0.021725439 0.19253637 0.9810494
vn 0.021725439 0.19253637 0.9810494
vn 0.021725439 0.19253637 0.9810494
vn -0.011284493 0.1830966 0.98303014
vn -0.011284493 0.1830966 0.98303014
vn -0.011284493 0.1830966 0.98303014
vn -0.18811992 0.47406775 0.8601574
vn -0.18811992 0.47406775 0.8601574
vn -0.18811992 0.47406775 0.8601574
vn -0.058128044 0.30945832 0.9491347
vn -0.058128044 0.30945832 0.9491347
vn -0.058128044 0.30945832 0.9491347
vn 0.021230381 0.32350332 0.94598883
vn 0.021230381 0.32350332 0.94598883
vn 0.021230381 0.32350332 0.94598883
vn -0.1603099 0.28870842 0.9439005
vn -0.1603099 0.28870842 0.9439005
vn -0.1603099 0.28870842 0.9439005
vn -0.15860859 0.41748217 0.8947357
vn -0.15860859 0.41748217 0.8947357
vn -0.15860859 0.41748217 0.8947357
vn -0.062379815 0.11234227 0.99170965
vn -0.062379815 0.11234227 0.99170965
vn -0.062379815 0.11234227 0.99170965
vn -0.09713595 0.11729716 0.988335
g Ramp C_0
f 3/3/3 2/2/2 1/1/1
f 5/5/5 4/4/4 2/2/2
f 5/5/5 6/6/6 4/4/4
f 6/6/6 7/7/7 4/4/4
f 6/6/6 8/8/8 7/7/7
f 8/8/8 9/9/9 7/7/7
f 12/12/12 11/11/11 10/10/10
f 13/13/13 12/12/12 10/10/10
f 14/14/14 12/12/12 13/13/13
f 16/16/16 15/15/15 13/13/13
f 17/17/17 15/15/15 16/16/16
f 18/18/18 17/17/17 16/16/16
f 21/21/21 20/20/20 19/19/19
f 22/22/22 21/21/21 19/19/19
f 25/25/25 24/24/24 23/23/23
f 26/26/26 25/25/25 23/23/23
f 29/29/29 28/28/28 27/27/27
f 30/30/30 29/29/29 27/27/27
f 33/33/33 32/32/32 31/31/31
f 34/34/34 33/33/33 31/31/31
f 37/37/37 36/36/36 35/35/35
f 38/38/38 37/37/37 35/35/35
f 41/41/41 40/40/40 39/39/39
f 42/42/42 41/41/41 39/39/39
f 45/45/45 44/44/44 43/43/43
f 46/46/46 45/45/45 43/43/43
f 49/49/49 48/48/48 47/47/47
f 50/50/50 49/49/49 47/47/47
f 53/53/53 52/52/52 51/51/51
f 54/54/54 53/53/53 51/51/51
f 57/57/57 56/56/56 55/55/55
f 58/58/58 57/57/57 55/55/55
f 61/61/61 60/60/60 59/59/59
f 62/62/62 61/61/61 59/59/59
f 65/65/65 64/64/64 63/63/63
f 66/66/66 65/65/65 63/63/63
f 69/69/69 68/68/68 67/67/67
f 70/70/70 69/69/69 67/67/67
f 73/73/73 72/72/72 71/71/71
f 74/74/74 73/73/73 71/71/71
f 77/77/77 76/76/76 75/75/75
f 78/78/78 77/77/77 75/75/75
f 81/81/81 80/80/80 79/79/79
f 82/82/82 81/81/81 79/79/79
f 85/85/85 84/84/84 83/83/83
f 86/86/86 85/85/85 83/83/83
f 89/89/89 88/88/88 87/87/87
f 90/90/90 89/89/89 87/87/87
f 93/93/93 92/92/92 91/91/91
f 94/94/94 93/93/93 91/91/91
f 97/97/97 96/96/96 95/95/95
f 98/98/98 97/97/97 95/95/95
f 101/101/101 100/100/100 99/99/99
f 102/102/102 101/101/101 99/99/99
f 105/105/105 104/104/104 103/103/103
f 106/106/106 105/105/105 103/103/103
f 109/109/109 108/108/108 107/107/107
f 110/110/110 109/109/109 107/107/107
f 113/113/113 112/112/112 111/111/111
f 114/114/114 113/113/113 111/111/111
g Ramp C_1
f 117/117/117 116/116/116 115/115/115
f 120/120/120 119/119/119 118/118/118
f 123/123/123 122/122/122 121/121/121
f 126/126/126 125/125/125 124/124/124
f 126/126/126 128/128/128 127/127/127
f 128/128/128 130/130/130 129/129/129
f 131/131/131 130/130/130 127/127/127
f 131/131/131 127/127/127 132/132/132
f 133/133/133 132/132/132 127/127/127
f 134/134/134 133/133/133 127/127/127
f 135/135/135 133/133/133 134/134/134
f 136/136/136 133/133/133 135/135/135
f 137/137/137 136/136/136 135/135/135
f 138/138/138 136/136/136 137/137/137
f 139/139/139 136/136/136 138/138/138
f 140/140/140 136/136/136 139/139/139
f 141/141/141 138/138/138 137/137/137
f 141/141/141 137/137/137 142/142/142
f 142/142/142 137/137/137 143/143/143
f 146/146/146 145/145/145 144/144/144
f 149/149/149 148/148/148 147/147/147
f 152/152/152 151/151/151 150/150/150
f 155/155/155 154/154/154 153/153/153
f 158/158/158 157/157/157 156/156/156
f 161/161/161 160/160/160 159/159/159
f 164/164/164 163/163/163 162/162/162
f 167/167/167 166/166/166 165/165/165
f 168/168/168 167/167/167 165/165/165
