g Rectangular Rock
v -2.0243595 -4.283905 8.733256
v -0.92499894 -4.354693 8.346343
v -0.5512952 -4.586761 8.434844
v -2.0243595 -4.283905 8.733256
v -4.266233 -3.4223611 8.80098
v -4.0607457 -3.4572394 9.043353
v -3.9292345 -4.1316676 8.684571
v -2.6822922 -5.0937176 8.380908
v -0.5512952 -4.586761 8.434844
v -5.121859 -3.5751798 8.494856
v -4.2709336 -0.8494948 9.032546
v -4.931631 0.57194066 8.362188
v -4.0607457 -3.4572394 9.043353
v -4.1780453 -1.2965152 9.565807
v -3.7643223 1.5963739 10.068862
v -4.99985 -4.5520487 8.416617
v -6.241469 -3.3616562 8.489475
v -6.8410616 -4.002207 8.249933
v -6.9512143 -4.324941 7.522994
v -5.5922227 -5.0784326 7.5976925
v -5.9235625 -5.362134 5.0326567
v -7.158432 -4.948543 4.730588
v -3.6085749 -5.6018333 4.837874
v -2.989266 -5.56722 7.397137
v -1.415342 -5.632769 6.6425924
v -1.0284948 -5.6145215 3.7267656
v -1.006517 -5.24408 7.7228785
v -0.3816624 -5.1193814 4.778142
v -0.13341814 -4.536226 5.6213007
v 0.14105728 -4.2250247 1.9389198
v 0.37934873 -4.5082192 7.348003
v -0.92499894 -4.354693 8.346343
v -2.0243595 -4.283905 8.733256
v -0.7395175 -4.650177 -0.0027754593
v -1.0954694 -5.1550527 -0.0025222055
v 0.4654477 -4.7042623 -0.0029529824
v -1.8343656 -5.620764 -0.0024186268
v -2.5817256 -5.620764 -0.0024186259
v -4.694855 -5.61789 -0.0011896249
v -3.6085749 -5.6018333 4.837874
v -5.9235625 -5.362134 5.0326567
v -6.1365376 -5.612796 0.0009888355
v -7.4165983 -5.165225 0.0029077574
v -7.158432 -4.948543 4.730588
v 0.8872708 -5.1365576 -0.0013859456
v 0.8306298 -4.7170997 2.8523023
v 0.8310975 -5.7534475 -0.0023988187
v 0.8725912 -5.719415 2.9416113
v 0.91752446 -5.682562 6.1296563
v 0.58600676 -4.2490697 2.5715375
v 0.7585065 -4.728805 5.6850996
v 0.43645415 -4.3799105 4.911133
v 1.4131852 -5.716067 7.5746775
v 1.4694724 -5.1132154 8.193221
v 0.115123734 -4.3970966 8.584668
v 3.1692088 -4.88618 8.366665
v 1.1343081 -4.206907 8.964477
v -1.2869505 -4.088436 9.365716
v 3.0429962 -5.594618 7.7596865
v 4.559324 -4.8212337 7.3707542
v 3.3442929 -4.2041616 8.770267
v 4.108695 -4.025887 8.562375
v 0.91752446 -5.682562 6.1296563
v -3.7699432 -3.8816986 9.760855
v -4.0607457 -3.4572394 9.043353
v 1.7013896 -3.8148038 10.129777
v 3.4469268 -4.0563736 9.440946
v 3.3442929 -4.2041616 8.770267
v 4.108695 -4.025887 8.562375
v 4.1214056 -3.723393 9.114249
v 3.599841 -2.336091 10.447307
v 4.1125064 -2.2723563 9.982517
v 3.5837834 0.85830325 10.5728
v 4.1903954 0.7523623 10.260246
v 1.3070859 -1.9164009 11.488072
v 3.1624985 3.2261665 10.448431
v 1.842149 3.1481316 10.564478
v 3.9453633 3.1723337 9.464875
v 3.7564197 4.0143943 8.860058
v 2.8206525 4.0937433 9.926244
v 2.3912416 4.1948195 9.227087
v 2.944237 4.1111 8.147185
v 1.8054833 0.23440272 12.038446
v -0.18911052 0.72375226 12.00156
v -0.94975567 -1.202326 11.505198
v 1.6195325 3.9826074 10.406835
v 1.4507769 4.217831 9.44762
v -0.7142296 4.077921 9.897658
v -0.6780029 3.603455 10.368314
v 1.5578811 4.21227 8.102414
v 1.4507769 4.217831 9.44762
v -1.4706359 -3.5100503 10.289755
v -3.0375476 -3.3102586 10.338612
v -3.1779473 -1.719103 10.472492
v -3.874556 -1.4934812 10.247031
v -2.1979969 3.1703596 10.419375
v -2.33235 3.5569336 10.141084
v -2.8286426 2.9139016 10.400146
v -3.0579255 3.150377 10.236757
v -3.452141 2.5816953 10.264626
v -2.3487737 2.58234 10.46821
v -3.064946 2.4374382 10.361293
v -3.3348386 1.4236673 10.285935
v -3.7643223 1.5963739 10.068862
v -4.1780453 -1.2965152 9.565807
v -4.0607457 -3.4572394 9.043353
v -2.6429617 1.2696656 10.433818
v -0.70462596 2.8850045 10.512951
v -7.4185777 1.434275 5.245663
v -7.416508 -2.3777564 0.0028112445
v -7.416676 1.4191303 0.0028986335
v -7.4161215 -1.6411747 4.4470296
v -7.416561 -4.029086 0.00286842
v -7.304544 -3.72868 4.5059395
v -7.4165983 -5.165225 0.0029077574
v -7.158432 -4.948543 4.730588
v 4.108695 -4.025887 8.562375
v 4.4586987 -3.3923354 8.470934
v 5.06977 -4.1278114 7.2558923
v 5.143202 -2.2819636 8.063835
v 5.2102647 -3.2208483 6.371416
v 5.2667794 -3.7482755 3.2924159
v 5.3409033 -2.7017708 3.1895752
v 5.2790337 -1.257128 -0.0010812681
v 5.326046 -2.6204557 -0.0014449893
v 5.3409033 -2.7017708 3.1895752
v 5.0237093 -4.598045 3.619952
v 5.3264747 -3.7919083 -0.0018016471
v 4.7704453 -5.412992 3.6124263
v 5.3269367 -5.0544214 -0.002186029
v 4.2344384 -5.5778666 6.902195
v 4.3296547 -5.7664037 3.4225774
v 4.491864 -5.7533736 -0.0023988257
v 3.8102758 -5.7540836 5.8592057
v 3.2756565 -5.7300105 3.1964834
v 3.121483 -5.7534018 -0.0023988262
v 2.98737 -5.725579 6.3269124
v 0.8725912 -5.719415 2.9416113
v 0.8310975 -5.7534475 -0.0023988187
v 3.290152 4.399237 3.4677756
v 2.8800433 4.9491935 0.048837163
v 4.1101184 4.208791 0.0049974793
v 4.183734 3.73656 3.4862814
v 3.995456 2.9942157 7.00319
v 3.8336515 3.767067 6.1921754
v 4.2213836 1.7320759 3.3047466
v 4.208523 1.9759752 -0.0028063676
v 4.420062 -0.517163 3.4073565
v 3.868371 -0.088504896 -0.0028669909
v 4.8128805 -2.0053246 3.4229054
v 4.169866 -1.2505097 -0.0023038608
v 5.2790337 -1.257128 -0.0010812681
v 4.4268656 -1.2338222 7.779608
v 4.211008 -2.1877172 9.048549
v 4.2417293 0.72687 7.928509
v 4.215226 3.0137193 8.411043
v 4.481293 -3.2993279 8.632651
v 4.4586987 -3.3923354 8.470934
v 4.1214056 -3.723393 9.114249
v 4.108695 -4.025887 8.562375
v 4.1125064 -2.2723563 9.982517
v 4.1903954 0.7523623 10.260246
v 4.222138 0.6292003 9.260182
v 3.9453633 3.1723337 9.464875
v 4.1724763 3.7181275 7.648727
v 3.7564197 4.0143943 8.860058
v 3.1780994 5.424584 6.3845644
v 3.290152 4.399237 3.4677756
v 2.9865127 4.841292 7.164081
v 1.8391573 5.927892 6.695213
v 1.9367204 6.304964 -0.0019605523
v 2.8800433 4.9491935 0.048837163
v 0.69108504 6.2545557 3.9985418
v -0.3387957 6.304444 -0.0019605516
v -0.9951559 6.2148523 4.311292
v -2.529621 6.1271343 -0.0019605223
v -0.6280997 5.8329606 6.45321
v -0.6280997 5.8329606 6.45321
v -2.610612 4.571898 1.9092486
v -4.5793858 1.4255103 -0.0025361327
v -2.411061 4.7996106 5.773038
v -2.4829125 4.033517 8.476955
v -0.6721026 4.1694865 8.785703
v -0.7142296 4.077921 9.897658
v -2.33235 3.5569336 10.141084
v -2.4892452 3.8245273 9.662504
v -2.4829125 4.033517 8.476955
v -3.3713338 3.6257887 9.020486
v -3.2293136 3.3685427 9.876289
v -3.0579255 3.150377 10.236757
v -3.452141 2.5816953 10.264626
v -3.7042518 2.8205745 9.905103
v -3.8354993 3.109019 9.105619
v -4.0771694 2.305211 8.890829
v -3.98234 1.8360049 9.618172
v -6.1646705 -1.3212548 8.514911
v -7.193517 -2.285197 8.232649
v -6.8410616 -4.002207 8.249933
v -7.3274593 -2.7229545 7.383389
v -6.9512143 -4.324941 7.522994
v -7.158432 -4.948543 4.730588
v -7.304544 -3.72868 4.5059395
v -7.4161215 -1.6411747 4.4470296
v -6.9682894 -0.12856382 7.888757
v -7.109255 -0.3605464 7.08134
v -7.4185777 1.434275 5.245663
v -6.290878 1.3840146 6.264724
v -5.7433124 1.2943774 7.18991
v -4.6744437 1.6308651 6.570978
v -4.9772315 1.4727713 4.922555
v -7.4185777 1.434275 5.245663
v -5.1635327 1.3083471 2.8024142
v -4.204312 2.4838617 5.952325
v -4.22067 2.0456634 7.3307166
v -4.0771694 2.305211 8.890829
v -7.416676 1.4191303 0.0028986335
v -7.4185777 1.434275 5.245663
v -4.2251024 2.3053284 3.0092773
v -4.107374 3.5396295 5.0890064
v -3.8942163 4.19286 2.5768795
v -4.1309195 2.7863452 7.4935236
v -3.8577487 3.6206136 7.2068105
v -3.8354993 3.109019 9.105619
v -3.3713338 3.6257887 9.020486
v -2.5908942 4.4573383 3.8147593
v -3.4415839 4.177763 4.252988
v -3.2551906 3.9952137 6.6994476
vn 0.27725524 0.69818497 0.66005087
vn 0.27725524 0.69818497 0.66005087
vn 0.27725524 0.69818497 0.66005087
vn 0.04402491 -0.557648 0.8289092
vn -0.5326806 -0.18245614 0.82641464
vn -0.16156924 -0.48785824 0.8578402
vn -0.13960761 -0.36715186 0.9196245
vn -0.007352229 -0.71109635 0.7030561
vn 0.37095675 -0.8399731 0.3960256
vn -0.2010667 -0.09247303 0.975203
vn -0.80810535 0.017248608 0.5887854
vn -0.6860972 0.35718378 0.6337905
vn -0.94541085 -0.07488697 0.31715974
vn -0.94564694 -0.0306025 0.32375208
vn -0.89803725 0.08075083 0.43244478
vn -0.19911042 -0.5455126 0.81410754
vn -0.13024333 -0.060924955 0.98960847
vn -0.26723644 -0.5537401 0.78864217
vn -0.39424926 -0.83220416 0.38987648
vn -0.28231952 -0.8902379 0.35745215
vn -0.30076277 -0.94229925 0.14701627
vn -0.42576405 -0.88411427 0.19252813
vn -0.0780385 -0.9959202 0.04530944
vn -0.051975742 -0.9602096 0.2744012
vn 0.25457373 -0.9592145 0.12288128
vn 0.41144517 -0.91061974 -0.038529456
vn 0.442593 -0.80700207 0.3909721
vn 0.69073707 -0.7230893 0.0049109
vn 0.3970907 -0.9173958 0.02653317
vn 0.07689092 -0.9959525 0.046545263
vn -0.36195377 -0.9223514 0.1351198
vn 0.017650584 -0.99642086 0.08266867
vn -0.16096874 -0.9826817 0.09179173
vn 0.5147694 -0.8569304 0.026131881
vn 0.55938697 -0.8240031 -0.09002779
vn -0.4518764 -0.87268376 0.18501587
vn 0.2984137 -0.9523622 -0.06289266
vn 0.11143855 -0.9935347 -0.021684602
vn -0.037093002 -0.9990791 0.021563154
vn -0.03338673 -0.99925 0.019614032
vn -0.18863618 -0.9808897 0.04766418
vn -0.20106366 -0.97835857 0.048866477
vn -0.32986236 -0.94205374 0.061036345
vn -0.32986236 -0.94205374 0.061036345
vn -0.9380927 -0.3408889 0.06145522
vn -0.92494464 -0.38003963 0.0068823723
vn -0.9999577 0.008597639 -0.0032850339
vn -0.99873227 -0.050202165 -0.0036976547
vn -0.9386143 -0.342819 0.038448323
vn -0.4161428 -0.90917367 0.015116219
vn -0.7629954 -0.646193 -0.016512008
vn -0.35479045 -0.93273973 -0.06418836
vn -0.35247937 -0.89160466 0.2842525
vn -0.22006287 -0.7396572 0.635987
vn -0.13898909 -0.9325583 0.33319235
vn 0.2343926 -0.63975066 0.7319694
vn -0.032005128 -0.8287377 0.55872124
vn -0.050366618 -0.924897 0.37686694
vn 0.171101 -0.8607273 0.47945076
vn 0.7465434 -0.51045024 0.42674753
vn 0.26934156 -0.6230385 0.7343556
vn 0.43417078 -0.6223091 0.6513272
vn -0.00017438178 -0.9998733 0.015917389
vn -0.5039979 -0.7230863 0.47236896
vn -0.2223193 -0.9749658 0.00395124
vn 0.07440603 -0.7573934 0.6487055
vn 0.3222341 -0.7788503 0.5381054
vn 0.213042 -0.934001 0.28680152
vn 0.41218975 -0.86687875 0.2803941
vn 0.5302968 -0.6811655 0.504776
vn 0.48717213 -0.3106044 0.8162035
vn 0.59463745 -0.26075128 0.7605361
vn 0.55434495 0.104808465 0.8256614
vn 0.6271105 0.07423325 0.7753849
vn 0.15154915 -0.3690671 0.91696364
vn 0.49549165 0.38097087 0.78060824
vn 0.14646995 0.36043587 0.9212125
vn 0.67857146 0.41564327 0.6056247
vn 0.411876 0.8702113 0.27035257
vn 0.30665946 0.8112291 0.49786264
vn 0.07139594 0.99586844 0.05611449
vn 0.23620495 0.9285756 0.28627715
vn 0.23638643 0.06509682 0.9694761
vn -0.1886886 0.17923798 0.9655415
vn -0.25199756 -0.22149709 0.9420384
vn 0.026139768 0.6735562 0.7386736
vn -0.018865611 0.94709605 0.32039514
vn -0.08999695 0.7970195 0.5972105
vn -0.07289021 0.51189095 0.85595244
vn 0.06673118 0.90943074 0.41046655
vn 0.0012168078 0.9999448 0.010434357
vn -0.086437166 -0.655405 0.75031525
vn -0.24058567 -0.46179035 0.8537378
vn -0.3535975 -0.11574774 0.9282087
vn -0.6479357 -0.044475656 0.76039547
vn -0.111660495 0.3594035 0.9264778
vn -0.15467887 0.57309043 0.804762
vn -0.19353819 0.22661583 0.9545618
vn -0.24637003 0.33493885 0.90946007
vn -0.3339597 0.06669571 0.9402247
vn -0.17863326 0.15440656 0.9717246
vn -0.24997567 0.046050992 0.9671563
vn -0.41696084 0.024330579 0.9085988
vn -0.57179415 0.021100787 0.8201257
vn -0.8600379 -0.025815593 0.50957644
vn -0.9318287 -0.12129499 0.3420276
vn -0.31272778 0.11014379 0.94343513
vn -0.103516996 0.2972375 0.9491755
vn -1 -0.00036706144 -0.00012790963
vn -0.99982554 -0.01649165 0.00877025
vn -1 -0.00036706144 -0.00012790963
vn -0.9998987 -0.012602841 0.006624247
vn -0.99856454 -0.044243068 0.030189665
vn -0.99858296 -0.04399107 0.029945776
vn -0.99739647 -0.05771714 0.04323206
vn -0.99739647 -0.05771714 0.04323206
vn 0.7289715 -0.3846526 0.5662535
vn 0.8483331 -0.28303733 0.44746035
vn 0.90854347 -0.3109873 0.27899048
vn 0.91435546 0.18868977 0.35825998
vn 0.99449205 0.059346326 0.08639229
vn 0.9888476 -0.14702822 0.023725703
vn 0.99904317 -0.04255771 0.01007531
vn 0.99992216 -0.01145985 -0.0049476367
vn 0.9985903 -0.05286667 0.004733278
vn 0.73260224 0.66544545 0.1430952
vn 0.95685595 -0.28146914 0.072123505
vn 0.99157023 -0.118092574 0.053316683
vn 0.80165887 -0.592417 0.07990744
vn 0.8906453 -0.44940135 0.06920506
vn 0.5699245 -0.77274746 0.2793697
vn 0.29436445 -0.95544624 0.021726465
vn 0.33898866 -0.9406879 0.013888621
vn 0.19247633 -0.9800064 0.050401118
vn -0.01625432 -0.99986124 0.003631647
vn -0.008761645 -0.9999459 0.005611708
vn 0.018194633 -0.99880123 0.04544205
vn -0.007303526 -0.9999424 0.007871043
vn -0.0027599875 -0.9999517 0.009435702
vn 0.6512789 0.75357664 0.08920722
vn 0.5499721 0.830894 0.08453269
vn 0.8566996 0.513795 0.04561089
vn 0.9046395 0.4225525 0.055468436
vn 0.99575186 0.0636738 -0.06651152
vn 0.8948317 0.44396934 -0.04655634
vn 0.9992132 0.03744158 -0.013077662
vn 0.9989171 0.00041322486 -0.04652323
vn 0.9826757 0.17902808 -0.047932602
vn 0.98968 0.09716711 -0.10531906
vn 0.86221915 0.50452685 0.045064002
vn 0.8105558 0.5842435 0.04073015
vn 0.41172865 0.8769994 0.24769266
vn 0.9697918 0.1996587 0.1401438
vn 0.9439701 0.072446 0.32198137
vn 0.99858874 0.051799253 0.011718571
vn 0.98833627 0.1397114 0.060598467
vn 0.9198781 -0.23142105 0.31665188
vn 0.8630273 -0.46847174 0.18899247
vn 0.9326485 -0.24811743 0.2619248
vn 0.86075693 -0.46207142 0.21351217
vn 0.9861557 -0.03036176 0.16301908
vn 0.99423355 0.038521457 0.10007848
vn 0.9970504 0.033877168 0.06886833
vn 0.9673303 0.19156796 0.16605379
vn 0.91528666 0.40129003 0.034878746
vn 0.7487446 0.6579889 0.08020075
vn 0.6448263 0.7394904 0.19326915
vn 0.8828575 0.46141195 -0.08753171
vn 0.32921195 0.6912427 0.6432753
vn 0.19386272 0.8976044 0.3958832
vn 0.50970054 0.8603518 -0.0004549446
vn 0.87379915 0.48013094 -0.07713242
vn 0.060387928 0.99581665 0.06857562
vn 0.02857166 0.99910057 0.03133384
vn -0.39131337 0.91030896 0.1349494
vn -0.5925462 0.7911718 0.15144666
vn -0.0107187405 0.78489214 0.6195396
vn -0.32817426 0.9231739 0.2001288
vn -0.7444162 0.6665955 0.038665246
vn -0.5428261 0.83963317 -0.018864004
vn -0.6801112 0.7230698 0.120908074
vn -0.48071593 0.85585415 0.19085579
vn -0.079581596 0.9333894 0.3499298
vn -0.110639945 0.98307264 0.14603779
vn -0.25459433 0.87526447 0.41121024
vn -0.26638466 0.8971686 0.35231787
vn -0.21397959 0.8918423 0.3985349
vn -0.50952095 0.8154573 0.27462316
vn -0.5156935 0.7205023 0.46361256
vn -0.4709286 0.62481505 0.6227619
vn -0.7365409 0.29025227 0.61095107
vn -0.79964983 0.37727702 0.46714264
vn -0.8357922 0.4607852 0.29854363
vn -0.9118224 0.1534358 0.3808378
vn -0.8895994 0.11008846 0.4432758
vn -0.12727748 0.19407627 0.97269464
vn -0.7527284 0.043735016 0.6568768
vn -0.8220592 -0.15682094 0.54738075
vn -0.9895131 -0.067856275 0.12751263
vn -0.97137016 -0.18309133 0.1513859
vn -0.9818751 -0.17128326 0.08113748
vn -0.99406743 -0.087834746 0.06414857
vn -0.98984325 0.06819852 0.12473671
vn -0.6623175 0.424527 0.6173431
vn -0.9489936 0.24748549 0.19535118
vn -0.93598443 0.15961178 0.31377888
vn -0.52412426 0.83735573 0.15533575
vn -0.4568135 0.7701063 0.44526136
vn -0.62250525 0.75940925 0.18916847
vn -0.45210135 0.89192146 -0.008968609
vn -0.019489815 0.99941266 -0.028187772
vn -0.34390756 0.93854666 -0.029287744
vn -0.9405253 0.33802974 0.03388172
vn -0.9214335 0.37761757 0.09146181
vn -0.942476 0.32696688 0.069511116
vn 0.03062704 0.9994198 0.014899693
vn 0.03062704 0.9994198 0.014899693
vn -0.9100292 0.4143154 -0.0137736015
vn -0.91873395 0.39281672 0.040286668
vn -0.70801693 0.6921292 -0.14024726
vn -0.94869846 0.30947933 0.06475894
vn -0.7214808 0.6824206 0.11733528
vn -0.8235419 0.5502682 0.13778165
vn -0.54049444 0.8253954 0.1630591
vn -0.5694682 0.82168883 0.023099238
vn -0.46124387 0.88010925 0.112524405
vn -0.47458333 0.8713783 0.12438085
g Rectangular Rock_0
f 3/3/3 2/2/2 1/1/1
f 6/6/6 5/5/5 4/4/4
f 5/5/5 7/7/7 4/4/4
f 8/8/8 4/4/4 7/7/7
f 4/4/4 8/8/8 9/9/9
f 5/5/5 10/10/10 7/7/7
f 10/10/10 5/5/5 11/11/11
f 12/12/12 10/10/10 11/11/11
f 5/5/5 13/13/13 11/11/11
f 13/13/13 14/14/14 11/11/11
f 11/11/11 14/14/14 15/15/15
f 10/10/10 16/16/16 7/7/7
f 16/16/16 8/8/8 7/7/7
f 10/10/10 12/12/12 17/17/17
f 16/16/16 10/10/10 17/17/17
f 18/18/18 16/16/16 17/17/17
f 16/16/16 18/18/18 19/19/19
f 20/20/20 16/16/16 19/19/19
f 8/8/8 16/16/16 20/20/20
f 21/21/21 20/20/20 19/19/19
f 22/22/22 21/21/21 19/19/19
f 21/21/21 23/23/23 20/20/20
f 23/23/23 24/24/24 20/20/20
f 24/24/24 8/8/8 20/20/20
f 24/24/24 23/23/23 25/25/25
f 8/8/8 24/24/24 25/25/25
f 23/23/23 26/26/26 25/25/25
f 27/27/27 8/8/8 25/25/25
f 8/8/8 27/27/27 9/9/9
f 28/28/28 27/27/27 25/25/25
f 26/26/26 28/28/28 25/25/25
f 27/27/27 28/28/28 9/9/9
f 28/28/28 29/29/29 9/9/9
f 29/29/29 28/28/28 30/30/30
f 9/9/9 29/29/29 31/31/31
f 32/32/32 9/9/9 31/31/31
f 32/32/32 31/31/31 33/33/33
f 34/34/34 28/28/28 26/26/26
f 28/28/28 34/34/34 30/30/30
f 35/35/35 34/34/34 26/26/26
f 34/34/34 36/36/36 30/30/30
f 35/35/35 26/26/26 37/37/37
f 26/26/26 38/38/38 37/37/37
f 39/39/39 38/38/38 26/26/26
f 40/40/40 39/39/39 26/26/26
f 39/39/39 40/40/40 41/41/41
f 42/42/42 39/39/39 41/41/41
f 43/43/43 42/42/42 41/41/41
f 44/44/44 43/43/43 41/41/41
f 30/30/30 36/36/36 45/45/45
f 45/45/45 46/46/46 30/30/30
f 46/46/46 45/45/45 47/47/47
f 48/48/48 46/46/46 47/47/47
f 48/48/48 49/49/49 46/46/46
f 46/46/46 50/50/50 30/30/30
f 49/49/49 51/51/51 46/46/46
f 46/46/46 51/51/51 50/50/50
f 50/50/50 52/52/52 30/30/30
f 51/51/51 52/52/52 50/50/50
f 52/52/52 29/29/29 30/30/30
f 31/31/31 29/29/29 52/52/52
f 51/51/51 31/31/31 52/52/52
f 31/31/31 51/51/51 49/49/49
f 53/53/53 31/31/31 49/49/49
f 53/53/53 54/54/54 31/31/31
f 54/54/54 55/55/55 31/31/31
f 31/31/31 55/55/55 33/33/33
f 54/54/54 53/53/53 56/56/56
f 54/54/54 57/57/57 55/55/55
f 54/54/54 56/56/56 57/57/57
f 58/58/58 33/33/33 55/55/55
f 57/57/57 58/58/58 55/55/55
f 53/53/53 59/59/59 56/56/56
f 56/56/56 59/59/59 60/60/60
f 61/61/61 56/56/56 60/60/60
f 56/56/56 61/61/61 57/57/57
f 62/62/62 61/61/61 60/60/60
f 59/59/59 53/53/53 63/63/63
f 33/33/33 58/58/58 64/64/64
f 65/65/65 33/33/33 64/64/64
f 58/58/58 57/57/57 66/66/66
f 66/66/66 57/57/57 67/67/67
f 57/57/57 68/68/68 67/67/67
f 68/68/68 69/69/69 67/67/67
f 69/69/69 70/70/70 67/67/67
f 67/67/67 70/70/70 71/71/71
f 66/66/66 67/67/67 71/71/71
f 70/70/70 72/72/72 71/71/71
f 71/71/71 72/72/72 73/73/73
f 72/72/72 74/74/74 73/73/73
f 75/75/75 66/66/66 71/71/71
f 75/75/75 71/71/71 73/73/73
f 73/73/73 74/74/74 76/76/76
f 73/73/73 76/76/76 77/77/77
f 74/74/74 78/78/78 76/76/76
f 78/78/78 79/79/79 76/76/76
f 79/79/79 80/80/80 76/76/76
f 76/76/76 80/80/80 77/77/77
f 80/80/80 79/79/79 81/81/81
f 79/79/79 82/82/82 81/81/81
f 83/83/83 75/75/75 73/73/73
f 83/83/83 73/73/73 77/77/77
f 83/83/83 84/84/84 75/75/75
f 84/84/84 83/83/83 77/77/77
f 75/75/75 85/85/85 66/66/66
f 84/84/84 85/85/85 75/75/75
f 86/86/86 80/80/80 81/81/81
f 80/80/80 86/86/86 77/77/77
f 87/87/87 86/86/86 81/81/81
f 86/86/86 87/87/87 88/88/88
f 77/77/77 86/86/86 89/89/89
f 89/89/89 86/86/86 88/88/88
f 82/82/82 90/90/90 81/81/81
f 90/90/90 91/91/91 81/81/81
f 85/85/85 92/92/92 66/66/66
f 92/92/92 58/58/58 66/66/66
f 58/58/58 92/92/92 93/93/93
f 92/92/92 85/85/85 93/93/93
f 64/64/64 58/58/58 93/93/93
f 85/85/85 94/94/94 93/93/93
f 94/94/94 85/85/85 84/84/84
f 95/95/95 64/64/64 93/93/93
f 94/94/94 95/95/95 93/93/93
f 96/96/96 89/89/89 88/88/88
f 97/97/97 96/96/96 88/88/88
f 96/96/96 97/97/97 98/98/98
f 97/97/97 99/99/99 98/98/98
f 99/99/99 100/100/100 98/98/98
f 96/96/96 101/101/101 89/89/89
f 101/101/101 96/96/96 98/98/98
f 100/100/100 102/102/102 98/98/98
f 102/102/102 101/101/101 98/98/98
f 102/102/102 100/100/100 103/103/103
f 100/100/100 104/104/104 103/103/103
f 104/104/104 105/105/105 103/103/103
f 95/95/95 105/105/105 64/64/64
f 105/105/105 95/95/95 103/103/103
f 105/105/105 106/106/106 64/64/64
f 95/95/95 94/94/94 107/107/107
f 103/103/103 95/95/95 107/107/107
f 102/102/102 103/103/103 107/107/107
f 101/101/101 102/102/102 107/107/107
f 107/107/107 94/94/94 84/84/84
f 101/101/101 107/107/107 84/84/84
f 101/101/101 108/108/108 89/89/89
f 108/108/108 101/101/101 84/84/84
f 108/108/108 77/77/77 89/89/89
f 108/108/108 84/84/84 77/77/77
f 111/111/111 110/110/110 109/109/109
f 110/110/110 112/112/112 109/109/109
f 112/112/112 110/110/110 113/113/113
f 114/114/114 112/112/112 113/113/113
f 114/114/114 113/113/113 115/115/115
f 116/116/116 114/114/114 115/115/115
f 118/118/118 117/117/117 60/60/60
f 119/119/119 118/118/118 60/60/60
f 118/118/118 119/119/119 120/120/120
f 119/119/119 121/121/121 120/120/120
f 119/119/119 122/122/122 121/121/121
f 122/122/122 123/123/123 121/121/121
f 123/123/123 122/122/122 124/124/124
f 122/122/122 125/125/125 124/124/124
f 120/120/120 121/121/121 126/126/126
f 122/122/122 119/119/119 127/127/127
f 122/122/122 127/127/127 125/125/125
f 119/119/119 60/60/60 127/127/127
f 127/127/127 128/128/128 125/125/125
f 127/127/127 129/129/129 128/128/128
f 127/127/127 60/60/60 129/129/129
f 129/129/129 130/130/130 128/128/128
f 60/60/60 131/131/131 129/129/129
f 59/59/59 131/131/131 60/60/60
f 129/129/129 132/132/132 130/130/130
f 129/129/129 131/131/131 132/132/132
f 132/132/132 133/133/133 130/130/130
f 131/131/131 59/59/59 134/134/134
f 131/131/131 134/134/134 132/132/132
f 132/132/132 135/135/135 133/133/133
f 132/132/132 134/134/134 135/135/135
f 135/135/135 136/136/136 133/133/133
f 59/59/59 137/137/137 134/134/134
f 134/134/134 137/137/137 135/135/135
f 137/137/137 59/59/59 63/63/63
f 135/135/135 137/137/137 63/63/63
f 138/138/138 135/135/135 63/63/63
f 135/135/135 138/138/138 136/136/136
f 138/138/138 139/139/139 136/136/136
f 142/142/142 141/141/141 140/140/140
f 143/143/143 142/142/142 140/140/140
f 144/144/144 143/143/143 140/140/140
f 145/145/145 144/144/144 140/140/140
f 143/143/143 146/146/146 142/142/142
f 143/143/143 144/144/144 146/146/146
f 146/146/146 147/147/147 142/142/142
f 146/146/146 148/148/148 147/147/147
f 148/148/148 149/149/149 147/147/147
f 148/148/148 150/150/150 149/149/149
f 150/150/150 151/151/151 149/149/149
f 150/150/150 126/126/126 151/151/151
f 126/126/126 152/152/152 151/151/151
f 150/150/150 120/120/120 126/126/126
f 150/150/150 148/148/148 120/120/120
f 153/153/153 148/148/148 146/146/146
f 148/148/148 153/153/153 120/120/120
f 153/153/153 154/154/154 120/120/120
f 155/155/155 153/153/153 146/146/146
f 144/144/144 155/155/155 146/146/146
f 153/153/153 155/155/155 154/154/154
f 155/155/155 144/144/144 156/156/156
f 144/144/144 145/145/145 156/156/156
f 154/154/154 157/157/157 120/120/120
f 157/157/157 158/158/158 120/120/120
f 158/158/158 157/157/157 159/159/159
f 159/159/159 157/157/157 154/154/154
f 160/160/160 158/158/158 159/159/159
f 161/161/161 159/159/159 154/154/154
f 162/162/162 161/161/161 154/154/154
f 155/155/155 163/163/163 154/154/154
f 163/163/163 162/162/162 154/154/154
f 163/163/163 155/155/155 156/156/156
f 162/162/162 163/163/163 164/164/164
f 163/163/163 156/156/156 164/164/164
f 156/156/156 165/165/165 164/164/164
f 145/145/145 165/165/165 156/156/156
f 165/165/165 166/166/166 164/164/164
f 166/166/166 165/165/165 82/82/82
f 167/167/167 165/165/165 145/145/145
f 168/168/168 167/167/167 145/145/145
f 169/169/169 82/82/82 165/165/165
f 167/167/167 169/169/169 165/165/165
f 82/82/82 169/169/169 170/170/170
f 169/169/169 167/167/167 170/170/170
f 90/90/90 82/82/82 170/170/170
f 171/171/171 167/167/167 168/168/168
f 172/172/172 171/171/171 168/168/168
f 173/173/173 167/167/167 171/171/171
f 167/167/167 173/173/173 170/170/170
f 174/174/174 173/173/173 171/171/171
f 175/175/175 173/173/173 174/174/174
f 170/170/170 173/173/173 175/175/175
f 176/176/176 175/175/175 174/174/174
f 90/90/90 170/170/170 177/177/177
f 178/178/178 170/170/170 175/175/175
f 176/176/176 179/179/179 175/175/175
f 179/179/179 176/176/176 180/180/180
f 175/175/175 181/181/181 178/178/178
f 179/179/179 181/181/181 175/175/175
f 181/181/181 182/182/182 178/178/178
f 183/183/183 90/90/90 177/177/177
f 91/91/91 90/90/90 183/183/183
f 184/184/184 91/91/91 183/183/183
f 185/185/185 184/184/184 183/183/183
f 186/186/186 183/183/183 177/177/177
f 186/186/186 185/185/185 183/183/183
f 187/187/187 186/186/186 177/177/177
f 186/186/186 187/187/187 188/188/188
f 185/185/185 186/186/186 189/189/189
f 189/189/189 186/186/186 188/188/188
f 190/190/190 185/185/185 189/189/189
f 191/191/191 190/190/190 189/189/189
f 192/192/192 189/189/189 188/188/188
f 192/192/192 191/191/191 189/189/189
f 193/193/193 192/192/192 188/188/188
f 191/191/191 192/192/192 15/15/15
f 192/192/192 193/193/193 194/194/194
f 192/192/192 195/195/195 15/15/15
f 195/195/195 192/192/192 194/194/194
f 195/195/195 11/11/11 15/15/15
f 195/195/195 194/194/194 11/11/11
f 194/194/194 12/12/12 11/11/11
f 12/12/12 196/196/196 17/17/17
f 196/196/196 197/197/197 17/17/17
f 197/197/197 198/198/198 17/17/17
f 198/198/198 197/197/197 199/199/199
f 200/200/200 198/198/198 199/199/199
f 201/201/201 200/200/200 199/199/199
f 202/202/202 201/201/201 199/199/199
f 203/203/203 202/202/202 199/199/199
f 199/199/199 197/197/197 204/204/204
f 197/197/197 196/196/196 204/204/204
f 205/205/205 203/203/203 199/199/199
f 205/205/205 199/199/199 204/204/204
f 203/203/203 205/205/205 206/206/206
f 205/205/205 207/207/207 206/206/206
f 205/205/205 204/204/204 208/208/208
f 196/196/196 208/208/208 204/204/204
f 207/207/207 205/205/205 208/208/208
f 208/208/208 196/196/196 209/209/209
f 207/207/207 208/208/208 209/209/209
f 196/196/196 12/12/12 209/209/209
f 210/210/210 207/207/207 209/209/209
f 207/207/207 210/210/210 211/211/211
f 210/210/210 212/212/212 211/211/211
f 209/209/209 12/12/12 213/213/213
f 210/210/210 209/209/209 213/213/213
f 12/12/12 214/214/214 213/213/213
f 214/214/214 12/12/12 215/215/215
f 212/212/212 210/210/210 180/180/180
f 212/212/212 180/180/180 216/216/216
f 217/217/217 212/212/212 216/216/216
f 218/218/218 210/210/210 213/213/213
f 210/210/210 218/218/218 180/180/180
f 213/213/213 214/214/214 219/219/219
f 218/218/218 213/213/213 219/219/219
f 218/218/218 220/220/220 180/180/180
f 220/220/220 218/218/218 219/219/219
f 220/220/220 179/179/179 180/180/180
f 221/221/221 214/214/214 215/215/215
f 214/214/214 221/221/221 219/219/219
f 222/222/222 221/221/221 215/215/215
f 219/219/219 221/221/221 222/222/222
f 223/223/223 222/222/222 215/215/215
f 223/223/223 224/224/224 222/222/222
f 225/225/225 179/179/179 220/220/220
f 181/181/181 179/179/179 225/225/225
f 219/219/219 226/226/226 220/220/220
f 226/226/226 219/219/219 222/222/222
f 226/226/226 225/225/225 220/220/220
f 225/225/225 226/226/226 222/222/222
f 224/224/224 227/227/227 222/222/222
f 227/227/227 225/225/225 222/222/222
f 227/227/227 181/181/181 225/225/225
f 224/224/224 182/182/182 227/227/227
f 182/182/182 181/181/181 227/227/227
