g Retopo_Support Mage Body
v -0.19091767 -0.111760795 3.474638
v -0.11396757 -0.16903268 3.562176
v -0.11188482 -0.20898479 3.2553415
v -0.20384803 -0.12303062 3.250844
v -0.23517445 -0.14098418 2.9076128
v -0.13912907 -0.23598258 2.907345
v -0.16303322 -0.27311516 2.566806
v -0.27233827 -0.16438316 2.567009
v -0.19091767 -0.111760795 3.474638
v -0.23431385 -0.00057712605 3.250612
v -0.21157083 -0.0030234559 3.53095
v -0.20384803 -0.12303062 3.250844
v -0.26921076 0.0004121119 2.906741
v -0.23517445 -0.14098418 2.9076128
v -0.27233827 -0.16438316 2.567009
v -0.31263256 -0.00044002943 2.5660465
v -0.19091767 -0.111760795 3.474638
v -0.21157083 -0.0030234559 3.53095
v -0.10404166 -0.0008608117 3.586635
v -0.11396757 -0.16903268 3.562176
v -0.19144349 0.11052604 3.4758682
v -0.21157083 -0.0030234559 3.53095
v -0.23431385 -0.00057712605 3.250612
v -0.20350964 0.1237644 3.2505634
v -0.26921076 0.0004121119 2.906741
v -0.23463097 0.14194633 2.9076967
v -0.272314 0.16455834 2.5669672
v -0.31263256 -0.00044002943 2.5660465
v -0.19144349 0.11052604 3.4758682
v -0.11363629 0.16528018 3.5659647
v -0.10404166 -0.0008608117 3.586635
v -0.21157083 -0.0030234559 3.53095
v -0.19144349 0.11052604 3.4758682
v -0.11022022 0.20981039 3.255036
v -0.11363629 0.16528018 3.5659647
v -0.20350964 0.1237644 3.2505634
v -0.23463097 0.14194633 2.9076967
v -0.13862897 0.2362823 2.9078853
v -0.272314 0.16455834 2.5669672
v -0.16281727 0.2731729 2.566969
v -0.11022022 0.20981039 3.255036
v -0 0.23392272 3.2567878
v -0 0.16868623 3.580966
v -0.11363629 0.16528018 3.5659647
v -0.11022022 0.20981039 3.255036
v -0 0.26932743 2.9063406
v -0 0.23392272 3.2567878
v -0.13862897 0.2362823 2.9078853
v -0.16281727 0.2731729 2.566969
v -0 0.31279808 2.566085
v -0.27233827 -0.16438316 2.567009
v -0.3604334 -0.21407905 2.5825658
v -0.41382092 -0.00052526 2.581322
v -0.31263256 -0.00044002943 2.5660465
v -0.31263256 -0.00044002943 2.5660465
v -0.41382092 -0.00052526 2.581322
v -0.36040735 0.21424833 2.582553
v -0.272314 0.16455834 2.5669672
v -0.28166506 0.17039174 2.4954128
v -0.3234654 -0.00027199386 2.4943118
v -0.36382145 0.00035399714 2.227075
v -0.31650096 0.19212317 2.2288475
v -0.42480963 0.00076151104 1.8903756
v -0.36930743 0.22407788 1.8930628
v -0.43484646 0.26183304 1.5606406
v -0.49927175 0.0008115161 1.557275
v -0.13912907 -0.23598258 2.907345
v -0 -0.3127284 2.5665607
v -0.16303322 -0.27311516 2.566806
v -0 -0.26910892 2.9075625
v -0 -0.23364155 3.2609391
v -0.11188482 -0.20898479 3.2553415
v -0 -0.23364155 3.2609391
v -0.11188482 -0.20898479 3.2553415
v -0.11396757 -0.16903268 3.562176
v -0 -0.17103314 3.5806692
v -0 -0.17103314 3.5806692
v -0.11396757 -0.16903268 3.562176
v -0.10404166 -0.0008608117 3.586635
v -0 -0.000473178 3.588445
v -0 -0.000473178 3.588445
v -0.10404166 -0.0008608117 3.586635
v -0.11363629 0.16528018 3.5659647
v -0 0.16868623 3.580966
v -0 0.4993643 1.5570133
v -0.25898355 0.43626603 1.5609208
v -0.30415866 0.51667917 1.2340262
v -0 0.59136164 1.2277868
v -0 0.4993643 1.5570133
v -0.22193752 0.3704312 1.8928735
v -0.25898355 0.43626603 1.5609208
v -0 0.4247779 1.8903034
v -0 0.36386436 2.2269392
v -0.18977576 0.31778812 2.2286777
v -0.16852236 0.2826146 2.495378
v -0 0.32360494 2.4943135
v -0.25898355 0.43626603 1.5609208
v -0.43484646 0.26183304 1.5606406
v -0.5157965 0.3059065 1.2339206
v -0.30415866 0.51667917 1.2340262
v -0.25898355 0.43626603 1.5609208
v -0.36930743 0.22407788 1.8930628
v -0.43484646 0.26183304 1.5606406
v -0.22193752 0.3704312 1.8928735
v -0.18977576 0.31778812 2.2286777
v -0.31650096 0.19212317 2.2288475
v -0.28166506 0.17039174 2.4954128
v -0.16852236 0.2826146 2.495378
v -0.43484646 0.26183304 1.5606406
v -0.49927175 0.0008115161 1.557275
v -0.5909182 0.0009756372 1.228953
v -0.5157965 0.3059065 1.2339206
v -0.42480963 0.00076151104 1.8903756
v -0.4353961 -0.2610307 1.560459
v -0.49927175 0.0008115161 1.557275
v -0.3697505 -0.2233473 1.8928242
v -0.31689173 -0.19147241 2.228658
v -0.36382145 0.00035399714 2.227075
v -0.3234654 -0.00027199386 2.4943118
v -0.2817669 -0.1701159 2.4954054
v 0.31263256 -0.00044002943 2.5660465
v 0.41382092 -0.00052526 2.581322
v 0.3604334 -0.21407905 2.5825658
v 0.27233827 -0.16438316 2.567009
v -0.16852236 0.2826146 2.495378
v -0.21788397 0.370896 2.510943
v -0.36969626 0.22019152 2.5109992
v -0.28166506 0.17039174 2.4954128
v 0.1687297 -0.28255203 2.4952178
v 0.2181779 -0.3707873 2.5107694
v 0.36982048 -0.21988516 2.5109627
v 0.2817669 -0.1701159 2.4954054
v -0 0.7060646 0.9065802
v -0.36057627 0.61748624 0.91552854
v -0.42728782 0.7348443 0.60739017
v -0 0.8402066 0.59662557
v -0 0.9860936 0.29910067
v -0.502625 0.86355597 0.3074729
v 0.5909182 0.0009756372 1.228953
v 0.68215376 0.001078669 1.261631
v 0.59588474 -0.34975344 1.2663819
v 0.51641804 -0.30516446 1.2333871
v -0.36057627 0.61748624 0.91552854
v -0.61721355 0.36119112 0.9154398
v -0.73550344 0.42720547 0.60625285
v -0.42728782 0.7348443 0.60739017
v -0 0.62427044 1.1356312
v -0 0.71551454 1.1682854
v -0.3645636 0.6252804 1.1756285
v -0.32034513 0.5456012 1.1426479
v -0.61721355 0.36119112 0.9154398
v -0.7054405 0.0012818403 0.90783787
v -0.839347 -0.00025405333 0.5977139
v -0.73550344 0.42720547 0.60625285
v -0.86372447 0.5029487 0.30696398
v -0.9863819 -0.0017116967 0.29839006
v -0.51641804 -0.30516446 1.2333871
v -0.59588474 -0.34975344 1.2663819
v -0.68215376 0.001078669 1.261631
v -0.5909182 0.0009756372 1.228953
v -0.7054405 0.0012818403 0.90783787
v -0.6176712 -0.3609355 0.9146986
v -0.73477274 -0.4275218 0.60696155
v -0.839347 -0.00025405333 0.5977139
v -0.9863819 -0.0017116967 0.29839006
v -0.86317843 -0.503379 0.3078417
v 0.6237752 0.0010634881 1.1368237
v 0.71501076 0.0011543762 1.1695017
v 0.624469 0.36615515 1.1755514
v 0.5448935 0.32176787 1.1425471
v -0.545468 -0.3211654 1.141954
v -0.32065785 -0.5457549 1.1417975
v -0.36057138 -0.6178468 0.91466844
v -0.6176712 -0.3609355 0.9146986
v -0.51641804 -0.30516446 1.2333871
v -0.4353961 -0.2610307 1.560459
v -0.25910777 -0.43627045 1.56075
v -0.30459923 -0.51674974 1.2331798
v -0.51641804 -0.30516446 1.2333871
v -0.5909182 0.0009756372 1.228953
v -0.49927175 0.0008115161 1.557275
v -0.4353961 -0.2610307 1.560459
v -0.25910777 -0.43627045 1.56075
v -0 -0.49920577 1.5580152
v -0 -0.59049803 1.230416
v -0.30459923 -0.51674974 1.2331798
v -0.25910777 -0.43627045 1.56075
v -0 -0.4247159 1.8910224
v -0 -0.49920577 1.5580152
v -0.22198245 -0.37050104 1.8926669
v -0.189951 -0.31770784 2.228527
v -0 -0.36373755 2.2276795
v -0 -0.32352316 2.4948452
v -0.1687297 -0.28255203 2.4952178
v -0.25910777 -0.43627045 1.56075
v -0.4353961 -0.2610307 1.560459
v -0.3697505 -0.2233473 1.8928242
v -0.22198245 -0.37050104 1.8926669
v -0.31689173 -0.19147241 2.228658
v -0.189951 -0.31770784 2.228527
v -0.1687297 -0.28255203 2.4952178
v -0.2817669 -0.1701159 2.4954054
v -0 -0.6233582 1.1388162
v -0 -0.7050316 0.9111462
v -0.36057138 -0.6178468 0.91466844
v -0.32065785 -0.5457549 1.1417975
v -0 0.9860936 0.29910067
v -0.502625 0.86355597 0.3074729
v -0.5334701 0.9184888 -1.4801863E-07
v -2.162912E-09 1.0461764 -1.688216E-07
v -0.502625 0.86355597 0.3074729
v -0.86372447 0.5029487 0.30696398
v -0.91774714 0.5348699 -8.551918E-08
v -0.5334701 0.9184888 -1.4801863E-07
v -0.502625 0.86355597 0.3074729
v -0.42728782 0.7348443 0.60739017
v -0.73550344 0.42720547 0.60625285
v -0.86372447 0.5029487 0.30696398
v -0.86372447 0.5029487 0.30696398
v -0.9863819 -0.0017116967 0.29839006
v -1.0457954 0.0030761245 1.1210204E-09
v -0.91774714 0.5348699 -8.551918E-08
v -0.9863819 -0.0017116967 0.29839006
v -0.86317843 -0.503379 0.3078417
v -0.9202744 -0.5293365 1.2187058E-07
v -1.0457954 0.0030761245 1.1210204E-09
v -0.86317843 -0.503379 0.3078417
v -0.5029954 -0.86377174 0.30729976
v -0.53394115 -0.9179945 2.1919955E-07
v -0.9202744 -0.5293365 1.2187058E-07
v -0.86317843 -0.503379 0.3078417
v -0.73477274 -0.4275218 0.60696155
v -0.4269196 -0.73586786 0.6057664
v -0.5029954 -0.86377174 0.30729976
v -0.4269196 -0.73586786 0.6057664
v -0 -0.83847916 0.59954876
v -0 -0.9857201 0.29993492
v -0.5029954 -0.86377174 0.30729976
v -0.4269196 -0.73586786 0.6057664
v -0.36057138 -0.6178468 0.91466844
v -0 -0.7050316 0.9111462
v -0 -0.83847916 0.59954876
v -0.4269196 -0.73586786 0.6057664
v -0.73477274 -0.4275218 0.60696155
v -0.6176712 -0.3609355 0.9146986
v -0.36057138 -0.6178468 0.91466844
v -0 -0.9857201 0.29993492
v -2.162912E-09 -1.0459082 1.7202225E-07
v -0.53394115 -0.9179945 2.1919955E-07
v -0.5029954 -0.86377174 0.30729976
v 0.11396757 -0.16903268 3.562176
v 0.19091767 -0.111760795 3.474638
v 0.20384803 -0.12303062 3.250844
v 0.11188482 -0.20898479 3.2553415
v 0.13912907 -0.23598258 2.907345
v 0.23517445 -0.14098418 2.9076128
v 0.27233827 -0.16438316 2.567009
v 0.16303322 -0.27311516 2.566806
v 0.20384803 -0.12303062 3.250844
v 0.19091767 -0.111760795 3.474638
v 0.21157083 -0.0030234559 3.53095
v 0.23431385 -0.00057712605 3.250612
v 0.23517445 -0.14098418 2.9076128
v 0.26921076 0.0004121119 2.906741
v 0.31263256 -0.00044002943 2.5660465
v 0.27233827 -0.16438316 2.567009
v 0.21157083 -0.0030234559 3.53095
v 0.19091767 -0.111760795 3.474638
v 0.11396757 -0.16903268 3.562176
v 0.10404166 -0.0008608117 3.586635
v 0.21157083 -0.0030234559 3.53095
v 0.19144349 0.11052604 3.4758682
v 0.20350964 0.1237644 3.2505634
v 0.23431385 -0.00057712605 3.250612
v 0.23463097 0.14194633 2.9076967
v 0.26921076 0.0004121119 2.906741
v 0.31263256 -0.00044002943 2.5660465
v 0.272314 0.16455834 2.5669672
v 0.11363629 0.16528018 3.5659647
v 0.19144349 0.11052604 3.4758682
v 0.21157083 -0.0030234559 3.53095
v 0.10404166 -0.0008608117 3.586635
v 0.20350964 0.1237644 3.2505634
v 0.19144349 0.11052604 3.4758682
v 0.11363629 0.16528018 3.5659647
v 0.11022022 0.20981039 3.255036
v 0.13862897 0.2362823 2.9078853
v 0.23463097 0.14194633 2.9076967
v 0.16281727 0.2731729 2.566969
v 0.272314 0.16455834 2.5669672
v -0 0.23392272 3.2567878
v 0.11022022 0.20981039 3.255036
v 0.11363629 0.16528018 3.5659647
v -0 0.16868623 3.580966
v 0.13862897 0.2362823 2.9078853
v 0.11022022 0.20981039 3.255036
v -0 0.23392272 3.2567878
v -0 0.26932743 2.9063406
v -0 0.31279808 2.566085
v 0.16281727 0.2731729 2.566969
v -0 0.32360494 2.4943135
v 0.18977576 0.31778812 2.2286777
v 0.16852236 0.2826146 2.495378
v -0 0.36386436 2.2269392
v -0 0.4247779 1.8903034
v 0.22193752 0.3704312 1.8928735
v 0.25898355 0.43626603 1.5609208
v -0 0.4993643 1.5570133
v 0.16852236 0.2826146 2.495378
v 0.31650096 0.19212317 2.2288475
v 0.28166506 0.17039174 2.4954128
v 0.18977576 0.31778812 2.2286777
v 0.22193752 0.3704312 1.8928735
v 0.36930743 0.22407788 1.8930628
v 0.43484646 0.26183304 1.5606406
v 0.25898355 0.43626603 1.5609208
v 0.3234654 -0.00027199386 2.4943118
v 0.28166506 0.17039174 2.4954128
v 0.31650096 0.19212317 2.2288475
v 0.36382145 0.00035399714 2.227075
v 0.36930743 0.22407788 1.8930628
v 0.42480963 0.00076151104 1.8903756
v 0.49927175 0.0008115161 1.557275
v 0.43484646 0.26183304 1.5606406
v -0 -0.26910892 2.9075625
v 0.16303322 -0.27311516 2.566806
v -0 -0.3127284 2.5665607
v 0.13912907 -0.23598258 2.907345
v 0.11188482 -0.20898479 3.2553415
v -0 -0.23364155 3.2609391
v 0.11188482 -0.20898479 3.2553415
v -0 -0.23364155 3.2609391
v -0 -0.17103314 3.5806692
v 0.11396757 -0.16903268 3.562176
v 0.11396757 -0.16903268 3.562176
v -0 -0.17103314 3.5806692
v -0 -0.000473178 3.588445
v 0.10404166 -0.0008608117 3.586635
v 0.10404166 -0.0008608117 3.586635
v -0 -0.000473178 3.588445
v -0 0.16868623 3.580966
v 0.11363629 0.16528018 3.5659647
v 0.25898355 0.43626603 1.5609208
v -0 0.4993643 1.5570133
v -0 0.59136164 1.2277868
v 0.30415866 0.51667917 1.2340262
v 0.43484646 0.26183304 1.5606406
v 0.25898355 0.43626603 1.5609208
v 0.30415866 0.51667917 1.2340262
v 0.5157965 0.3059065 1.2339206
v 0.49927175 0.0008115161 1.557275
v 0.43484646 0.26183304 1.5606406
v 0.5157965 0.3059065 1.2339206
v 0.5909182 0.0009756372 1.228953
v 0.3697505 -0.2233473 1.8928242
v 0.49927175 0.0008115161 1.557275
v 0.4353961 -0.2610307 1.560459
v 0.42480963 0.00076151104 1.8903756
v 0.36382145 0.00035399714 2.227075
v 0.31689173 -0.19147241 2.228658
v 0.2817669 -0.1701159 2.4954054
v 0.3234654 -0.00027199386 2.4943118
v 0.2817669 -0.1701159 2.4954054
v 0.189951 -0.31770784 2.228527
v 0.1687297 -0.28255203 2.4952178
v 0.31689173 -0.19147241 2.228658
v 0.3697505 -0.2233473 1.8928242
v 0.22198245 -0.37050104 1.8926669
v 0.4353961 -0.2610307 1.560459
v 0.25910777 -0.43627045 1.56075
v 0.272314 0.16455834 2.5669672
v 0.36040735 0.21424833 2.582553
v 0.41382092 -0.00052526 2.581322
v 0.31263256 -0.00044002943 2.5660465
v 0.1687297 -0.28255203 2.4952178
v -0 -0.36373755 2.2276795
v -0 -0.32352316 2.4948452
v 0.189951 -0.31770784 2.228527
v 0.22198245 -0.37050104 1.8926669
v -0 -0.4247159 1.8910224
v -0 -0.49920577 1.5580152
v 0.25910777 -0.43627045 1.56075
v 0.36057627 0.61748624 0.91552854
v -0 0.7060646 0.9065802
v -0 0.8402066 0.59662557
v 0.42728782 0.7348443 0.60739017
v 0.502625 0.86355597 0.3074729
v -0 0.9860936 0.29910067
v -0 0.62427044 1.1356312
v -0 0.7060646 0.9065802
v 0.36057627 0.61748624 0.91552854
v 0.32034513 0.5456012 1.1426479
v 0.61721355 0.36119112 0.9154398
v 0.36057627 0.61748624 0.91552854
v 0.42728782 0.7348443 0.60739017
v 0.73550344 0.42720547 0.60625285
v 0.32034513 0.5456012 1.1426479
v 0.36057627 0.61748624 0.91552854
v 0.61721355 0.36119112 0.9154398
v 0.5448935 0.32176787 1.1425471
v 0.7054405 0.0012818403 0.90783787
v 0.61721355 0.36119112 0.9154398
v 0.73550344 0.42720547 0.60625285
v 0.839347 -0.00025405333 0.5977139
v 0.9863819 -0.0017116967 0.29839006
v 0.86372447 0.5029487 0.30696398
v 0.5448935 0.32176787 1.1425471
v 0.61721355 0.36119112 0.9154398
v 0.7054405 0.0012818403 0.90783787
v 0.6237752 0.0010634881 1.1368237
v 0.6176712 -0.3609355 0.9146986
v 0.7054405 0.0012818403 0.90783787
v 0.839347 -0.00025405333 0.5977139
v 0.73477274 -0.4275218 0.60696155
v 0.86317843 -0.503379 0.3078417
v 0.9863819 -0.0017116967 0.29839006
v 0.6237752 0.0010634881 1.1368237
v 0.7054405 0.0012818403 0.90783787
v 0.6176712 -0.3609355 0.9146986
v 0.545468 -0.3211654 1.141954
v 0.32065785 -0.5457549 1.1417975
v 0.545468 -0.3211654 1.141954
v 0.6176712 -0.3609355 0.9146986
v 0.36057138 -0.6178468 0.91466844
v 0.4353961 -0.2610307 1.560459
v 0.51641804 -0.30516446 1.2333871
v 0.30459923 -0.51674974 1.2331798
v 0.25910777 -0.43627045 1.56075
v 0.5909182 0.0009756372 1.228953
v 0.51641804 -0.30516446 1.2333871
v 0.4353961 -0.2610307 1.560459
v 0.49927175 0.0008115161 1.557275
v -0 -0.49920577 1.5580152
v 0.25910777 -0.43627045 1.56075
v 0.30459923 -0.51674974 1.2331798
v -0 -0.59049803 1.230416
v -0.32034513 0.5456012 1.1426479
v -0.3645636 0.6252804 1.1756285
v -0.624469 0.36615515 1.1755514
v -0.5448935 0.32176787 1.1425471
v 0.502625 0.86355597 0.3074729
v -0 0.9860936 0.29910067
v -2.162912E-09 1.0461764 -1.688216E-07
v 0.5334701 0.9184888 -1.4801863E-07
v 0.86372447 0.5029487 0.30696398
v 0.502625 0.86355597 0.3074729
v 0.5334701 0.9184888 -1.4801863E-07
v 0.91774714 0.5348699 -8.551918E-08
v 0.42728782 0.7348443 0.60739017
v 0.502625 0.86355597 0.3074729
v 0.86372447 0.5029487 0.30696398
v 0.73550344 0.42720547 0.60625285
v 0.9863819 -0.0017116967 0.29839006
v 0.86372447 0.5029487 0.30696398
v 0.91774714 0.5348699 -8.551918E-08
v 1.0457954 0.0030761245 1.1210204E-09
v 0.86317843 -0.503379 0.3078417
v 0.9863819 -0.0017116967 0.29839006
v 1.0457954 0.0030761245 1.1210204E-09
v 0.9202744 -0.5293365 1.2187058E-07
v 0.5029954 -0.86377174 0.30729976
v 0.86317843 -0.503379 0.3078417
v 0.9202744 -0.5293365 1.2187058E-07
v 0.53394115 -0.9179945 2.1919955E-07
v 0.73477274 -0.4275218 0.60696155
v 0.86317843 -0.503379 0.3078417
v 0.5029954 -0.86377174 0.30729976
v 0.4269196 -0.73586786 0.6057664
v -0 -0.83847916 0.59954876
v 0.4269196 -0.73586786 0.6057664
v 0.5029954 -0.86377174 0.30729976
v -0 -0.9857201 0.29993492
v 0.36057138 -0.6178468 0.91466844
v 0.4269196 -0.73586786 0.6057664
v -0 -0.83847916 0.59954876
v -0 -0.7050316 0.9111462
v 0.73477274 -0.4275218 0.60696155
v 0.4269196 -0.73586786 0.6057664
v 0.36057138 -0.6178468 0.91466844
v 0.6176712 -0.3609355 0.9146986
v -2.162912E-09 -1.0459082 1.7202225E-07
v -0 -0.9857201 0.29993492
v 0.5029954 -0.86377174 0.30729976
v 0.53394115 -0.9179945 2.1919955E-07
v -0.28166506 0.17039174 2.4954128
v -0.36969626 0.22019152 2.5109992
v -0.42465383 -0.0002821434 2.5095873
v -0.3234654 -0.00027199386 2.4943118
v 0.2817669 -0.1701159 2.4954054
v 0.36982048 -0.21988516 2.5109627
v 0.42465383 -0.0002821434 2.5095873
v 0.3234654 -0.00027199386 2.4943118
v -0.2817669 -0.1701159 2.4954054
v -0.36982048 -0.21988516 2.5109627
v -0.2181779 -0.3707873 2.5107694
v -0.1687297 -0.28255203 2.4952178
v -0 -0.32352316 2.4948452
v -0 -0.42471364 2.510107
v 0.2181779 -0.3707873 2.5107694
v 0.1687297 -0.28255203 2.4952178
v -0.3234654 -0.00027199386 2.4943118
v -0.42465383 -0.0002821434 2.5095873
v -0.36982048 -0.21988516 2.5109627
v -0.2817669 -0.1701159 2.4954054
v 0.16303322 -0.27311516 2.566806
v 0.21237895 -0.36140788 2.582357
v -0 -0.41391885 2.5818229
v -0 -0.3127284 2.5665607
v -0 0.4247945 2.5095818
v -0 0.4139876 2.5813534
v -0.2121149 0.36149013 2.5825331
v -0.21788397 0.370896 2.510943
v -0.21788397 0.370896 2.510943
v -0.2121149 0.36149013 2.5825331
v -0.36040735 0.21424833 2.582553
v -0.36969626 0.22019152 2.5109992
v -0.36982048 -0.21988516 2.5109627
v -0.3604334 -0.21407905 2.5825658
v -0.21237895 -0.36140788 2.582357
v -0.2181779 -0.3707873 2.5107694
v -0.36982048 -0.21988516 2.5109627
v -0.42465383 -0.0002821434 2.5095873
v -0.41382092 -0.00052526 2.581322
v -0.3604334 -0.21407905 2.5825658
v -0.2181779 -0.3707873 2.5107694
v -0.21237895 -0.36140788 2.582357
v -0 -0.41391885 2.5818229
v -0 -0.42471364 2.510107
v 0.42465383 -0.0002821434 2.5095873
v 0.36982048 -0.21988516 2.5109627
v 0.3604334 -0.21407905 2.5825658
v 0.41382092 -0.00052526 2.581322
v 0.21237895 -0.36140788 2.582357
v 0.2181779 -0.3707873 2.5107694
v -0 -0.42471364 2.510107
v -0 -0.41391885 2.5818229
v 0.3604334 -0.21407905 2.5825658
v 0.36982048 -0.21988516 2.5109627
v 0.2181779 -0.3707873 2.5107694
v 0.21237895 -0.36140788 2.582357
v 0.41382092 -0.00052526 2.581322
v 0.36040735 0.21424833 2.582553
v 0.36969626 0.22019152 2.5109992
v 0.42465383 -0.0002821434 2.5095873
v 0.2121149 0.36149013 2.5825331
v 0.21788397 0.370896 2.510943
v 0.36969626 0.22019152 2.5109992
v 0.36040735 0.21424833 2.582553
v -0 0.4139876 2.5813534
v -0 0.4247945 2.5095818
v 0.21788397 0.370896 2.510943
v 0.2121149 0.36149013 2.5825331
v -0.36040735 0.21424833 2.582553
v -0.41382092 -0.00052526 2.581322
v -0.42465383 -0.0002821434 2.5095873
v -0.36969626 0.22019152 2.5109992
v 0.3234654 -0.00027199386 2.4943118
v 0.42465383 -0.0002821434 2.5095873
v 0.36969626 0.22019152 2.5109992
v 0.28166506 0.17039174 2.4954128
v -0 0.32360494 2.4943135
v -0 0.4247945 2.5095818
v -0.21788397 0.370896 2.510943
v -0.16852236 0.2826146 2.495378
v 0.28166506 0.17039174 2.4954128
v 0.36969626 0.22019152 2.5109992
v 0.21788397 0.370896 2.510943
v 0.16852236 0.2826146 2.495378
v 0.16281727 0.2731729 2.566969
v 0.2121149 0.36149013 2.5825331
v 0.36040735 0.21424833 2.582553
v 0.272314 0.16455834 2.5669672
v 0.27233827 -0.16438316 2.567009
v 0.3604334 -0.21407905 2.5825658
v 0.21237895 -0.36140788 2.582357
v 0.16303322 -0.27311516 2.566806
v -0.272314 0.16455834 2.5669672
v -0.36040735 0.21424833 2.582553
v -0.2121149 0.36149013 2.5825331
v -0.16281727 0.2731729 2.566969
v 0.16852236 0.2826146 2.495378
v 0.21788397 0.370896 2.510943
v -0 0.4247945 2.5095818
v -0 0.32360494 2.4943135
v -0 0.31279808 2.566085
v -0 0.4139876 2.5813534
v 0.2121149 0.36149013 2.5825331
v 0.16281727 0.2731729 2.566969
v -0.16281727 0.2731729 2.566969
v -0.2121149 0.36149013 2.5825331
v -0 0.4139876 2.5813534
v -0 0.31279808 2.566085
v -0 -0.3127284 2.5665607
v -0 -0.41391885 2.5818229
v -0.21237895 -0.36140788 2.582357
v -0.16303322 -0.27311516 2.566806
v -0.16303322 -0.27311516 2.566806
v -0.21237895 -0.36140788 2.582357
v -0.3604334 -0.21407905 2.5825658
v -0.27233827 -0.16438316 2.567009
v -0.1687297 -0.28255203 2.4952178
v -0.2181779 -0.3707873 2.5107694
v -0 -0.42471364 2.510107
v -0 -0.32352316 2.4948452
v -0 -0.7050316 0.9111462
v -0 -0.6233582 1.1388162
v 0.32065785 -0.5457549 1.1417975
v 0.36057138 -0.6178468 0.91466844
v -0 -0.59049803 1.230416
v -0 -0.6817082 1.263165
v -0.34912658 -0.5962365 1.2662092
v -0.30459923 -0.51674974 1.2331798
v -0 0.59136164 1.2277868
v -0 0.68260574 1.260441
v 0.34867033 0.5961949 1.267007
v 0.30415866 0.51667917 1.2340262
v 0.545468 -0.3211654 1.141954
v 0.62508935 -0.3654778 1.1749485
v 0.71501076 0.0011543762 1.1695017
v 0.6237752 0.0010634881 1.1368237
v -0.5448935 0.32176787 1.1425471
v -0.624469 0.36615515 1.1755514
v -0.71501076 0.0011543762 1.1695017
v -0.6237752 0.0010634881 1.1368237
v 0.5157965 0.3059065 1.2339206
v 0.5951626 0.35066718 1.2669251
v 0.68215376 0.001078669 1.261631
v 0.5909182 0.0009756372 1.228953
v 0.30415866 0.51667917 1.2340262
v 0.34867033 0.5961949 1.267007
v 0.5951626 0.35066718 1.2669251
v 0.5157965 0.3059065 1.2339206
v 0.32065785 -0.5457549 1.1417975
v 0.36500382 -0.625343 1.1748272
v 0.62508935 -0.3654778 1.1749485
v 0.545468 -0.3211654 1.141954
v -0.7054405 0.0012818403 0.90783787
v -0.6237752 0.0010634881 1.1368237
v -0.545468 -0.3211654 1.141954
v -0.6176712 -0.3609355 0.9146986
v -0.61721355 0.36119112 0.9154398
v -0.5448935 0.32176787 1.1425471
v -0.6237752 0.0010634881 1.1368237
v -0.7054405 0.0012818403 0.90783787
v -0.36057627 0.61748624 0.91552854
v -0.32034513 0.5456012 1.1426479
v -0.5448935 0.32176787 1.1425471
v -0.61721355 0.36119112 0.9154398
v -0 0.7060646 0.9065802
v -0 0.62427044 1.1356312
v -0.32034513 0.5456012 1.1426479
v -0.36057627 0.61748624 0.91552854
v -0 0.71551454 1.1682854
v -0 0.68260574 1.260441
v -0.34867033 0.5961949 1.267007
v -0.3645636 0.6252804 1.1756285
v -0.3645636 0.6252804 1.1756285
v -0.34867033 0.5961949 1.267007
v -0.5951626 0.35066718 1.2669251
v -0.624469 0.36615515 1.1755514
v -0.624469 0.36615515 1.1755514
v -0.5951626 0.35066718 1.2669251
v -0.68215376 0.001078669 1.261631
v -0.71501076 0.0011543762 1.1695017
v -0.71501076 0.0011543762 1.1695017
v -0.68215376 0.001078669 1.261631
v -0.59588474 -0.34975344 1.2663819
v -0.62508935 -0.3654778 1.1749485
v -0 -0.7145683 1.1715652
v -0 -0.6817082 1.263165
v 0.34912658 -0.5962365 1.2662092
v 0.36500382 -0.625343 1.1748272
v 0.34912658 -0.5962365 1.2662092
v 0.59588474 -0.34975344 1.2663819
v 0.62508935 -0.3654778 1.1749485
v 0.36500382 -0.625343 1.1748272
v 0.68215376 0.001078669 1.261631
v 0.71501076 0.0011543762 1.1695017
v 0.62508935 -0.3654778 1.1749485
v 0.59588474 -0.34975344 1.2663819
v 0.5951626 0.35066718 1.2669251
v 0.624469 0.36615515 1.1755514
v 0.71501076 0.0011543762 1.1695017
v 0.68215376 0.001078669 1.261631
v 0.34867033 0.5961949 1.267007
v 0.3645636 0.6252804 1.1756285
v 0.624469 0.36615515 1.1755514
v 0.5951626 0.35066718 1.2669251
v -0 0.68260574 1.260441
v -0 0.71551454 1.1682854
v 0.3645636 0.6252804 1.1756285
v 0.34867033 0.5961949 1.267007
v -0 -0.6817082 1.263165
v -0 -0.7145683 1.1715652
v -0.36500382 -0.625343 1.1748272
v -0.34912658 -0.5962365 1.2662092
v -0.59588474 -0.34975344 1.2663819
v -0.34912658 -0.5962365 1.2662092
v -0.36500382 -0.625343 1.1748272
v -0.62508935 -0.3654778 1.1749485
v 0.5448935 0.32176787 1.1425471
v 0.624469 0.36615515 1.1755514
v 0.3645636 0.6252804 1.1756285
v 0.32034513 0.5456012 1.1426479
v 0.51641804 -0.30516446 1.2333871
v 0.59588474 -0.34975344 1.2663819
v 0.34912658 -0.5962365 1.2662092
v 0.30459923 -0.51674974 1.2331798
v 0.32034513 0.5456012 1.1426479
v 0.3645636 0.6252804 1.1756285
v -0 0.71551454 1.1682854
v -0 0.62427044 1.1356312
v -0.30415866 0.51667917 1.2340262
v -0.34867033 0.5961949 1.267007
v -0 0.68260574 1.260441
v -0 0.59136164 1.2277868
v 0.30459923 -0.51674974 1.2331798
v 0.34912658 -0.5962365 1.2662092
v -0 -0.6817082 1.263165
v -0 -0.59049803 1.230416
v -0.32065785 -0.5457549 1.1417975
v -0.36500382 -0.625343 1.1748272
v -0 -0.7145683 1.1715652
v -0 -0.6233582 1.1388162
v -0.545468 -0.3211654 1.141954
v -0.62508935 -0.3654778 1.1749485
v -0.36500382 -0.625343 1.1748272
v -0.32065785 -0.5457549 1.1417975
v -0.5909182 0.0009756372 1.228953
v -0.68215376 0.001078669 1.261631
v -0.5951626 0.35066718 1.2669251
v -0.5157965 0.3059065 1.2339206
v -0 -0.6233582 1.1388162
v -0 -0.7145683 1.1715652
v 0.36500382 -0.625343 1.1748272
v 0.32065785 -0.5457549 1.1417975
v -0.5157965 0.3059065 1.2339206
v -0.5951626 0.35066718 1.2669251
v -0.34867033 0.5961949 1.267007
v -0.30415866 0.51667917 1.2340262
v -0.30459923 -0.51674974 1.2331798
v -0.34912658 -0.5962365 1.2662092
v -0.59588474 -0.34975344 1.2663819
v -0.51641804 -0.30516446 1.2333871
v -0.6237752 0.0010634881 1.1368237
v -0.71501076 0.0011543762 1.1695017
v -0.62508935 -0.3654778 1.1749485
v -0.545468 -0.3211654 1.141954
vn -0.6708835 -0.736695 0.084828496
vn -0.6708835 -0.736695 0.084828496
vn -0.6708835 -0.736695 0.084828496
vn -0.6708835 -0.736695 0.084828496
vn -0.6986111 -0.7044559 0.12523751
vn -0.6986111 -0.7044559 0.12523751
vn -0.6986111 -0.7044559 0.12523751
vn -0.6986111 -0.7044559 0.12523751
vn -0.96996975 -0.23210642 0.072699405
vn -0.96996975 -0.23210642 0.072699405
vn -0.96996975 -0.23210642 0.072699405
vn -0.96996975 -0.23210642 0.072699405
vn -0.96448594 -0.23405527 0.12241306
vn -0.96448594 -0.23405527 0.12241306
vn -0.96448594 -0.23405527 0.12241306
vn -0.96448594 -0.23405527 0.12241306
vn -0.63898885 -0.23810543 0.7314364
vn -0.63898885 -0.23810543 0.7314364
vn -0.63898885 -0.23810543 0.7314364
vn -0.63898885 -0.23810543 0.7314364
vn -0.9715276 0.22511816 0.073864356
vn -0.9715276 0.22511816 0.073864356
vn -0.9715276 0.22511816 0.073864356
vn -0.9715276 0.22511816 0.073864356
vn -0.96430546 0.23487023 0.12227422
vn -0.96430546 0.23487023 0.12227422
vn -0.96430546 0.23487023 0.12227422
vn -0.96430546 0.23487023 0.12227422
vn -0.6440398 0.22248982 0.7319228
vn -0.6440398 0.22248982 0.7319228
vn -0.6440398 0.22248982 0.7319228
vn -0.6440398 0.22248982 0.7319228
vn -0.66225106 0.7437589 0.090808265
vn -0.66225106 0.7437589 0.090808265
vn -0.66225106 0.7437589 0.090808265
vn -0.66225106 0.7437589 0.090808265
vn -0.68735653 0.7185728 0.10580231
vn -0.68735653 0.7185728 0.10580231
vn -0.6972379 0.7058742 0.12490401
vn -0.6972379 0.7058742 0.12490401
vn -0.13265777 0.9768016 0.1681089
vn -0.13265777 0.9768016 0.1681089
vn -0.13265777 0.9768016 0.1681089
vn -0.13265777 0.9768016 0.1681089
vn -0.22291774 0.97018415 0.095132984
vn -0.22291774 0.97018415 0.095132984
vn -0.22291774 0.97018415 0.095132984
vn -0.22291774 0.97018415 0.095132984
vn -0.23167588 0.9651019 0.122084625
vn -0.23167588 0.9651019 0.122084625
vn 0.14961986 0.042904094 0.9878122
vn 0.14961986 0.042904094 0.9878122
vn 0.14961986 0.042904094 0.9878122
vn 0.14961986 0.042904094 0.9878122
vn 0.14988889 -0.042591244 0.987785
vn 0.14988889 -0.042591244 0.987785
vn 0.14988889 -0.042591244 0.987785
vn 0.14988889 -0.042591244 0.987785
vn -0.9610448 0.23516607 0.14522347
vn -0.9610448 0.23516607 0.14522347
vn -0.9610448 0.23516607 0.14522347
vn -0.9610448 0.23516607 0.14522347
vn -0.9490607 0.23233807 0.21284486
vn -0.9490607 0.23233807 0.21284486
vn -0.9490607 0.23233807 0.21284486
vn -0.9490607 0.23233807 0.21284486
vn -0.23227139 -0.96490943 0.12247351
vn -0.23227139 -0.96490943 0.12247351
vn -0.23227139 -0.96490943 0.12247351
vn -0.23227139 -0.96490943 0.12247351
vn -0.22540687 -0.9696111 0.09511044
vn -0.22540687 -0.9696111 0.09511044
vn -0.13249336 -0.9782364 0.15968423
vn -0.13249336 -0.9782364 0.15968423
vn -0.13249336 -0.9782364 0.15968423
vn -0.13249336 -0.9782364 0.15968423
vn -0.09301158 -0.09162346 0.9914404
vn -0.09301158 -0.09162346 0.9914404
vn -0.09301158 -0.09162346 0.9914404
vn -0.09301158 -0.09162346 0.9914404
vn -0.07815142 0.08118162 0.9936307
vn -0.07815142 0.08118162 0.9936307
vn -0.07815142 0.08118162 0.9936307
vn -0.07815142 0.08118162 0.9936307
vn -0.22488871 0.93847454 0.2620892
vn -0.22488871 0.93847454 0.2620892
vn -0.22488871 0.93847454 0.2620892
vn -0.22488871 0.93847454 0.2620892
vn -0.22906882 0.9497673 0.2132357
vn -0.23169833 0.95732653 0.17274792
vn -0.22906882 0.9497673 0.2132357
vn -0.23169833 0.95732653 0.17274792
vn -0.23169833 0.95732653 0.17274792
vn -0.23169833 0.95732653 0.17274792
vn -0.23255844 0.9616999 0.14508565
vn -0.23255844 0.9616999 0.14508565
vn -0.68057054 0.68436307 0.26166958
vn -0.68057054 0.68436307 0.26166958
vn -0.68057054 0.68436307 0.26166958
vn -0.68057054 0.68436307 0.26166958
vn -0.6880748 0.69326186 0.21433853
vn -0.6933321 0.6988575 0.17575188
vn -0.6880748 0.69326186 0.21433853
vn -0.6933321 0.6988575 0.17575188
vn -0.6933321 0.6988575 0.17575188
vn -0.6933321 0.6988575 0.17575188
vn -0.6963327 0.7022562 0.1481789
vn -0.6963327 0.7022562 0.1481789
vn -0.93777734 0.22736363 0.26244888
vn -0.93777734 0.22736363 0.26244888
vn -0.93777734 0.22736363 0.26244888
vn -0.93777734 0.22736363 0.26244888
vn -0.9496215 -0.22994861 0.21293816
vn -0.9496215 -0.22994861 0.21293816
vn -0.9496215 -0.22994861 0.21293816
vn -0.9496215 -0.22994861 0.21293816
vn -0.9569875 -0.23298109 0.17290059
vn -0.9569875 -0.23298109 0.17290059
vn -0.9612485 -0.23448321 0.14497955
vn -0.9612485 -0.23448321 0.14497955
vn -0.14961986 0.042904094 0.9878122
vn -0.14961986 0.042904094 0.9878122
vn -0.14961986 0.042904094 0.9878122
vn -0.14961986 0.042904094 0.9878122
vn -0.111405075 0.11192156 -0.98745257
vn -0.111405075 0.11192156 -0.98745257
vn -0.111405075 0.11192156 -0.98745257
vn -0.111405075 0.11192156 -0.98745257
vn 0.11193283 -0.11107407 -0.9874885
vn 0.11193283 -0.11107407 -0.9874885
vn 0.11193283 -0.11107407 -0.9874885
vn 0.11193283 -0.11107407 -0.9874885
vn -0.21115182 0.8972063 0.38786042
vn -0.21115182 0.8972063 0.38786042
vn -0.21115182 0.8972063 0.38786042
vn -0.21115182 0.8972063 0.38786042
vn -0.20654492 0.8788845 0.4300014
vn -0.20654492 0.8788845 0.4300014
vn -0.33571172 0.09525477 0.9371361
vn -0.33571172 0.09525477 0.9371361
vn -0.33571172 0.09525477 0.9371361
vn -0.33571172 0.09525477 0.9371361
vn -0.6513777 0.6515937 0.388758
vn -0.6513777 0.6515937 0.388758
vn -0.6513777 0.6515937 0.388758
vn -0.6513777 0.6515937 0.388758
vn -0.10190093 0.33353022 -0.937216
vn -0.10190093 0.33353022 -0.937216
vn -0.10190093 0.33353022 -0.937216
vn -0.10190093 0.33353022 -0.937216
vn -0.897437 0.21097864 0.38742074
vn -0.897437 0.21097864 0.38742074
vn -0.897437 0.21097864 0.38742074
vn -0.897437 0.21097864 0.38742074
vn -0.87917274 0.20574443 0.42979604
vn -0.87917274 0.20574443 0.42979604
vn 0.33571172 0.09525477 0.9371361
vn 0.33571172 0.09525477 0.9371361
vn 0.33571172 0.09525477 0.9371361
vn 0.33571172 0.09525477 0.9371361
vn -0.8973446 -0.21070953 0.3877809
vn -0.8973446 -0.21070953 0.3877809
vn -0.8973446 -0.21070953 0.3877809
vn -0.8973446 -0.21070953 0.3877809
vn -0.8783666 -0.20670268 0.43098283
vn -0.8783666 -0.20670268 0.43098283
vn 0.33464655 0.09877417 -0.93715286
vn 0.33464655 0.09877417 -0.93715286
vn 0.33464655 0.09877417 -0.93715286
vn 0.33464655 0.09877417 -0.93715286
vn -0.6673621 -0.6680568 0.32913223
vn -0.6673621 -0.6680568 0.32913223
vn -0.6673621 -0.6680568 0.32913223
vn -0.6673621 -0.6680568 0.32913223
vn -0.68134487 -0.68354654 0.261789
vn -0.68134487 -0.68354654 0.261789
vn -0.68134487 -0.68354654 0.261789
vn -0.68134487 -0.68354654 0.261789
vn -0.93836147 -0.22509176 0.26231933
vn -0.93836147 -0.22509176 0.26231933
vn -0.93836147 -0.22509176 0.26231933
vn -0.93836147 -0.22509176 0.26231933
vn -0.22502106 -0.93855315 0.26169324
vn -0.22502106 -0.93855315 0.26169324
vn -0.22502106 -0.93855315 0.26169324
vn -0.22502106 -0.93855315 0.26169324
vn -0.22932757 -0.94972646 0.2131398
vn -0.23189797 -0.95723575 0.17298318
vn -0.22932757 -0.94972646 0.2131398
vn -0.23189797 -0.95723575 0.17298318
vn -0.23189797 -0.95723575 0.17298318
vn -0.23189797 -0.95723575 0.17298318
vn -0.232765 -0.9616597 0.14502037
vn -0.232765 -0.9616597 0.14502037
vn -0.68892694 -0.6923916 0.21441422
vn -0.68892694 -0.6923916 0.21441422
vn -0.69433373 -0.6978706 0.17571925
vn -0.69433373 -0.6978706 0.17571925
vn -0.69433373 -0.6978706 0.17571925
vn -0.69433373 -0.6978706 0.17571925
vn -0.69731504 -0.7013282 0.14795458
vn -0.69731504 -0.7013282 0.14795458
vn -0.21899557 -0.91833377 0.32970294
vn -0.21899557 -0.91833377 0.32970294
vn -0.21899557 -0.91833377 0.32970294
vn -0.21899557 -0.91833377 0.32970294
vn -0.22889405 0.9542135 0.1925728
vn -0.22889405 0.9542135 0.1925728
vn -0.22889405 0.9542135 0.1925728
vn -0.22889405 0.9542135 0.1925728
vn -0.69322103 0.6941599 0.19387291
vn -0.69322103 0.6941599 0.19387291
vn -0.69322103 0.6941599 0.19387291
vn -0.69322103 0.6941599 0.19387291
vn -0.63712835 0.63707876 0.43381822
vn -0.63712835 0.63707876 0.43381822
vn -0.63712835 0.63707876 0.43381822
vn -0.63712835 0.63707876 0.43381822
vn -0.95411754 0.22919554 0.19268894
vn -0.95411754 0.22919554 0.19268894
vn -0.95411754 0.22919554 0.19268894
vn -0.95411754 0.22919554 0.19268894
vn -0.95468533 -0.22787823 0.19143514
vn -0.95468533 -0.22787823 0.19143514
vn -0.95468533 -0.22787823 0.19143514
vn -0.95468533 -0.22787823 0.19143514
vn -0.69535106 -0.6931357 0.18986803
vn -0.69535106 -0.6931357 0.18986803
vn -0.69535106 -0.6931357 0.18986803
vn -0.69535106 -0.6931357 0.18986803
vn -0.6364801 -0.6369413 0.43497
vn -0.6364801 -0.6369413 0.43497
vn -0.6364801 -0.6369413 0.43497
vn -0.6364801 -0.6369413 0.43497
vn -0.20592731 -0.878795 0.4304804
vn -0.20592731 -0.878795 0.4304804
vn -0.20592731 -0.878795 0.4304804
vn -0.20592731 -0.878795 0.4304804
vn -0.21158272 -0.8977175 0.38644025
vn -0.21158272 -0.8977175 0.38644025
vn -0.21158272 -0.8977175 0.38644025
vn -0.21158272 -0.8977175 0.38644025
vn -0.65121454 -0.65170676 0.38884184
vn -0.65121454 -0.65170676 0.38884184
vn -0.65121454 -0.65170676 0.38884184
vn -0.65121454 -0.65170676 0.38884184
vn -0.22863625 -0.9544929 0.19149067
vn -0.22863625 -0.9544929 0.19149067
vn -0.22863625 -0.9544929 0.19149067
vn -0.22863625 -0.9544929 0.19149067
vn 0.67088383 -0.73669475 0.08482846
vn 0.67088383 -0.73669475 0.08482846
vn 0.67088383 -0.73669475 0.08482846
vn 0.67088383 -0.73669475 0.08482846
vn 0.69861126 -0.70445573 0.12523748
vn 0.69861126 -0.70445573 0.12523748
vn 0.69861126 -0.70445573 0.12523748
vn 0.69861126 -0.70445573 0.12523748
vn 0.96996975 -0.23210634 0.07269941
vn 0.96996975 -0.23210634 0.07269941
vn 0.96996975 -0.23210634 0.07269941
vn 0.96996975 -0.23210634 0.07269941
vn 0.96448594 -0.23405527 0.12241305
vn 0.96448594 -0.23405527 0.12241305
vn 0.96448594 -0.23405527 0.12241305
vn 0.96448594 -0.23405527 0.12241305
vn 0.63899016 -0.23810513 0.7314351
vn 0.63899016 -0.23810513 0.7314351
vn 0.63899016 -0.23810513 0.7314351
vn 0.63899016 -0.23810513 0.7314351
vn 0.9715276 0.22511819 0.07386438
vn 0.9715276 0.22511819 0.07386438
vn 0.9715276 0.22511819 0.07386438
vn 0.9715276 0.22511819 0.07386438
vn 0.96430546 0.23487017 0.12227422
vn 0.96430546 0.23487017 0.12227422
vn 0.96430546 0.23487017 0.12227422
vn 0.96430546 0.23487017 0.12227422
vn 0.6440398 0.22248982 0.7319228
vn 0.6440398 0.22248982 0.7319228
vn 0.6440398 0.22248982 0.7319228
vn 0.6440398 0.22248982 0.7319228
vn 0.6622513 0.74375874 0.09080823
vn 0.6622513 0.74375874 0.09080823
vn 0.6622513 0.74375874 0.09080823
vn 0.6622513 0.74375874 0.09080823
vn 0.6873563 0.718573 0.105802365
vn 0.6873563 0.718573 0.105802365
vn 0.6972379 0.70587415 0.12490399
vn 0.6972379 0.70587415 0.12490399
vn 0.13265777 0.9768016 0.16810888
vn 0.13265777 0.9768016 0.16810888
vn 0.13265777 0.9768016 0.16810888
vn 0.13265777 0.9768016 0.16810888
vn 0.22291774 0.97018415 0.095132984
vn 0.22291774 0.97018415 0.095132984
vn 0.22291774 0.97018415 0.095132984
vn 0.22291774 0.97018415 0.095132984
vn 0.23167576 0.9651019 0.12208464
vn 0.23167576 0.9651019 0.12208464
vn 0.23255844 0.9616999 0.14508565
vn 0.23169823 0.95732653 0.17274788
vn 0.23255844 0.9616999 0.14508565
vn 0.23169823 0.95732653 0.17274788
vn 0.23169823 0.95732653 0.17274788
vn 0.23169823 0.95732653 0.17274788
vn 0.22906876 0.9497674 0.21323574
vn 0.22906876 0.9497674 0.21323574
vn 0.69633305 0.7022559 0.1481788
vn 0.6933321 0.6988575 0.17575192
vn 0.69633305 0.7022559 0.1481788
vn 0.6933321 0.6988575 0.17575192
vn 0.6933321 0.6988575 0.17575192
vn 0.6933321 0.6988575 0.17575192
vn 0.6880748 0.69326186 0.21433857
vn 0.6880748 0.69326186 0.21433857
vn 0.9610448 0.23516606 0.14522345
vn 0.9610448 0.23516606 0.14522345
vn 0.9610448 0.23516606 0.14522345
vn 0.9610448 0.23516606 0.14522345
vn 0.9490607 0.23233806 0.21284486
vn 0.9490607 0.23233806 0.21284486
vn 0.9490607 0.23233806 0.21284486
vn 0.9490607 0.23233806 0.21284486
vn 0.23227137 -0.96490943 0.12247351
vn 0.23227137 -0.96490943 0.12247351
vn 0.23227137 -0.96490943 0.12247351
vn 0.23227137 -0.96490943 0.12247351
vn 0.22540687 -0.9696111 0.09511044
vn 0.22540687 -0.9696111 0.09511044
vn 0.13249297 -0.9782365 0.1596843
vn 0.13249297 -0.9782365 0.1596843
vn 0.13249297 -0.9782365 0.1596843
vn 0.13249297 -0.9782365 0.1596843
vn 0.09301158 -0.09162346 0.9914404
vn 0.09301158 -0.09162346 0.9914404
vn 0.09301158 -0.09162346 0.9914404
vn 0.09301158 -0.09162346 0.9914404
vn 0.078151405 0.0811816 0.9936307
vn 0.078151405 0.0811816 0.9936307
vn 0.078151405 0.0811816 0.9936307
vn 0.078151405 0.0811816 0.9936307
vn 0.22488865 0.93847454 0.2620892
vn 0.22488865 0.93847454 0.2620892
vn 0.22488865 0.93847454 0.2620892
vn 0.22488865 0.93847454 0.2620892
vn 0.68057054 0.68436307 0.26166958
vn 0.68057054 0.68436307 0.26166958
vn 0.68057054 0.68436307 0.26166958
vn 0.68057054 0.68436307 0.26166958
vn 0.93777734 0.2273636 0.26244885
vn 0.93777734 0.2273636 0.26244885
vn 0.93777734 0.2273636 0.26244885
vn 0.93777734 0.2273636 0.26244885
vn 0.9496215 -0.22994852 0.21293807
vn 0.9496215 -0.22994852 0.21293807
vn 0.9496215 -0.22994852 0.21293807
vn 0.9496215 -0.22994852 0.21293807
vn 0.9569875 -0.23298109 0.17290059
vn 0.9569875 -0.23298109 0.17290059
vn 0.9612485 -0.23448321 0.14497955
vn 0.9612485 -0.23448321 0.14497955
vn 0.69731504 -0.70132816 0.14795455
vn 0.6943337 -0.6978707 0.17571925
vn 0.69731504 -0.70132816 0.14795455
vn 0.6943337 -0.6978707 0.17571925
vn 0.6943337 -0.6978707 0.17571925
vn 0.6943337 -0.6978707 0.17571925
vn 0.6889268 -0.69239163 0.21441424
vn 0.6889268 -0.69239163 0.21441424
vn -0.14988889 -0.042591244 0.987785
vn -0.14988889 -0.042591244 0.987785
vn -0.14988889 -0.042591244 0.987785
vn -0.14988889 -0.042591244 0.987785
vn 0.23276486 -0.9616597 0.14502035
vn 0.23189797 -0.95723575 0.17298323
vn 0.23276486 -0.9616597 0.14502035
vn 0.23189797 -0.95723575 0.17298323
vn 0.23189797 -0.95723575 0.17298323
vn 0.23189797 -0.95723575 0.17298323
vn 0.22932757 -0.94972646 0.2131398
vn 0.22932757 -0.94972646 0.2131398
vn 0.21115181 0.8972063 0.38786036
vn 0.21115181 0.8972063 0.38786036
vn 0.21115181 0.8972063 0.38786036
vn 0.21115181 0.8972063 0.38786036
vn 0.20654492 0.8788845 0.4300014
vn 0.20654492 0.8788845 0.4300014
vn 0.21799058 0.91889894 0.3287932
vn 0.21799058 0.91889894 0.3287932
vn 0.21799058 0.91889894 0.3287932
vn 0.21799058 0.91889894 0.3287932
vn 0.6513776 0.6515938 0.38875803
vn 0.6513776 0.6515938 0.38875803
vn 0.6513776 0.6515938 0.38875803
vn 0.6513776 0.6515938 0.38875803
vn 0.6670534 0.6683925 0.3290764
vn 0.6670534 0.6683925 0.3290764
vn 0.6670534 0.6683925 0.3290764
vn 0.6670534 0.6683925 0.3290764
vn 0.897437 0.21097864 0.38742074
vn 0.897437 0.21097864 0.38742074
vn 0.897437 0.21097864 0.38742074
vn 0.897437 0.21097864 0.38742074
vn 0.87917274 0.20574446 0.429796
vn 0.87917274 0.20574446 0.429796
vn 0.9185138 0.2190752 0.32914817
vn 0.9185138 0.2190752 0.32914817
vn 0.9185138 0.2190752 0.32914817
vn 0.9185138 0.2190752 0.32914817
vn 0.8973446 -0.21070953 0.3877809
vn 0.8973446 -0.21070953 0.3877809
vn 0.8973446 -0.21070953 0.3877809
vn 0.8973446 -0.21070953 0.3877809
vn 0.8783666 -0.20670259 0.43098277
vn 0.8783666 -0.20670259 0.43098277
vn 0.9190747 -0.21724738 0.32879364
vn 0.9190747 -0.21724738 0.32879364
vn 0.9190747 -0.21724738 0.32879364
vn 0.9190747 -0.21724738 0.32879364
vn 0.66736215 -0.6680566 0.3291323
vn 0.66736215 -0.6680566 0.3291323
vn 0.66736215 -0.6680566 0.3291323
vn 0.66736215 -0.6680566 0.3291323
vn 0.68134487 -0.68354654 0.261789
vn 0.68134487 -0.68354654 0.261789
vn 0.68134487 -0.68354654 0.261789
vn 0.68134487 -0.68354654 0.261789
vn 0.93836147 -0.22509176 0.26231936
vn 0.93836147 -0.22509176 0.26231936
vn 0.93836147 -0.22509176 0.26231936
vn 0.93836147 -0.22509176 0.26231936
vn 0.22502106 -0.93855315 0.2616932
vn 0.22502106 -0.93855315 0.2616932
vn 0.22502106 -0.93855315 0.2616932
vn 0.22502106 -0.93855315 0.2616932
vn -0.24858879 0.24970226 -0.9358699
vn -0.24858879 0.24970226 -0.9358699
vn -0.24858879 0.24970226 -0.9358699
vn -0.24858879 0.24970226 -0.9358699
vn 0.22889405 0.9542135 0.19257283
vn 0.22889405 0.9542135 0.19257283
vn 0.22889405 0.9542135 0.19257283
vn 0.22889405 0.9542135 0.19257283
vn 0.6932209 0.69416 0.19387293
vn 0.6932209 0.69416 0.19387293
vn 0.6932209 0.69416 0.19387293
vn 0.6932209 0.69416 0.19387293
vn 0.63712835 0.6370787 0.43381822
vn 0.63712835 0.6370787 0.43381822
vn 0.63712835 0.6370787 0.43381822
vn 0.63712835 0.6370787 0.43381822
vn 0.95411754 0.22919554 0.19268891
vn 0.95411754 0.22919554 0.19268891
vn 0.95411754 0.22919554 0.19268891
vn 0.95411754 0.22919554 0.19268891
vn 0.95468533 -0.22787823 0.19143514
vn 0.95468533 -0.22787823 0.19143514
vn 0.95468533 -0.22787823 0.19143514
vn 0.95468533 -0.22787823 0.19143514
vn 0.6953512 -0.6931356 0.18986815
vn 0.6953512 -0.6931356 0.18986815
vn 0.6953512 -0.6931356 0.18986815
vn 0.6953512 -0.6931356 0.18986815
vn 0.6364801 -0.6369413 0.43497005
vn 0.6364801 -0.6369413 0.43497005
vn 0.6364801 -0.6369413 0.43497005
vn 0.6364801 -0.6369413 0.43497005
vn 0.20592736 -0.8787949 0.43048036
vn 0.20592736 -0.8787949 0.43048036
vn 0.20592736 -0.8787949 0.43048036
vn 0.20592736 -0.8787949 0.43048036
vn 0.21158266 -0.8977175 0.38644025
vn 0.21158266 -0.8977175 0.38644025
vn 0.21158266 -0.8977175 0.38644025
vn 0.21158266 -0.8977175 0.38644025
vn 0.6512145 -0.65170676 0.3888419
vn 0.6512145 -0.65170676 0.3888419
vn 0.6512145 -0.65170676 0.3888419
vn 0.6512145 -0.65170676 0.3888419
vn 0.22863625 -0.9544929 0.19149067
vn 0.22863625 -0.9544929 0.19149067
vn 0.22863625 -0.9544929 0.19149067
vn 0.22863625 -0.9544929 0.19149067
vn -0.149695 0.04337678 -0.9877802
vn -0.149695 0.04337678 -0.9877802
vn -0.149695 0.04337678 -0.9877802
vn -0.149695 0.04337678 -0.9877802
vn 0.14954156 -0.043329757 -0.9878056
vn 0.14954156 -0.043329757 -0.9878056
vn 0.14954156 -0.043329757 -0.9878056
vn 0.14954156 -0.043329757 -0.9878056
vn -0.11193284 -0.11107406 -0.9874885
vn -0.11193284 -0.11107406 -0.9874885
vn -0.11193284 -0.11107406 -0.9874885
vn -0.11193284 -0.11107406 -0.9874885
vn 0.039523862 -0.15037194 -0.9878391
vn 0.039523862 -0.15037194 -0.9878391
vn 0.039523862 -0.15037194 -0.9878391
vn 0.039523862 -0.15037194 -0.9878391
vn -0.14954156 -0.043329757 -0.9878056
vn -0.14954156 -0.043329757 -0.9878056
vn -0.14954156 -0.043329757 -0.9878056
vn -0.14954156 -0.043329757 -0.9878056
vn -0.038980674 0.15048777 0.98784304
vn -0.038980674 0.15048777 0.98784304
vn -0.038980674 0.15048777 0.98784304
vn -0.038980674 0.15048777 0.98784304
vn -0.23684464 0.9606697 0.14497694
vn -0.23684464 0.9606697 0.14497694
vn -0.23684464 0.9606697 0.14497694
vn -0.23684464 0.9606697 0.14497694
vn -0.6967143 0.7018006 0.14854354
vn -0.6967143 0.7018006 0.14854354
vn -0.6967143 0.7018006 0.14854354
vn -0.6967143 0.7018006 0.14854354
vn -0.6974679 -0.7010983 0.14832225
vn -0.6974679 -0.7010983 0.14832225
vn -0.6974679 -0.7010983 0.14832225
vn -0.6974679 -0.7010983 0.14832225
vn -0.96017027 -0.23901531 0.14472269
vn -0.96017027 -0.23901531 0.14472269
vn -0.96017027 -0.23901531 0.14472269
vn -0.96017027 -0.23901531 0.14472269
vn -0.23707461 -0.9606349 0.14483131
vn -0.23707461 -0.9606349 0.14483131
vn -0.23707461 -0.9606349 0.14483131
vn -0.23707461 -0.9606349 0.14483131
vn 0.96017015 -0.23901573 0.14472291
vn 0.96017015 -0.23901573 0.14472291
vn 0.96017015 -0.23901573 0.14472291
vn 0.96017015 -0.23901573 0.14472291
vn 0.23707461 -0.9606349 0.14483131
vn 0.23707461 -0.9606349 0.14483131
vn 0.23707461 -0.9606349 0.14483131
vn 0.23707461 -0.9606349 0.14483131
vn 0.6974679 -0.7010984 0.14832224
vn 0.6974679 -0.7010984 0.14832224
vn 0.6974679 -0.7010984 0.14832224
vn 0.6974679 -0.7010984 0.14832224
vn 0.9603043 0.23822282 0.1451396
vn 0.9603043 0.23822282 0.1451396
vn 0.9603043 0.23822282 0.1451396
vn 0.9603043 0.23822282 0.1451396
vn 0.6967153 0.70179963 0.14854334
vn 0.6967153 0.70179963 0.14854334
vn 0.6967153 0.70179963 0.14854334
vn 0.6967153 0.70179963 0.14854334
vn 0.23684464 0.9606697 0.14497694
vn 0.23684464 0.9606697 0.14497694
vn 0.23684464 0.9606697 0.14497694
vn 0.23684464 0.9606697 0.14497694
vn -0.96030426 0.23822291 0.14513963
vn -0.96030426 0.23822291 0.14513963
vn -0.96030426 0.23822291 0.14513963
vn -0.96030426 0.23822291 0.14513963
vn 0.149695 0.04337678 -0.9877802
vn 0.149695 0.04337678 -0.9877802
vn 0.149695 0.04337678 -0.9877802
vn 0.149695 0.04337678 -0.9877802
vn -0.042929567 0.14956689 -0.9878192
vn -0.042929567 0.14956689 -0.9878192
vn -0.042929567 0.14956689 -0.9878192
vn -0.042929567 0.14956689 -0.9878192
vn 0.111405075 0.11192156 -0.98745257
vn 0.111405075 0.11192156 -0.98745257
vn 0.111405075 0.11192156 -0.98745257
vn 0.111405075 0.11192156 -0.98745257
vn -0.11130348 -0.112073146 0.9874467
vn -0.11130348 -0.112073146 0.9874467
vn -0.11130348 -0.112073146 0.9874467
vn -0.11130348 -0.112073146 0.9874467
vn -0.11204002 0.11101985 0.9874824
vn -0.11204002 0.11101985 0.9874824
vn -0.11204002 0.11101985 0.9874824
vn -0.11204002 0.11101985 0.9874824
vn 0.11130348 -0.112073146 0.9874467
vn 0.11130348 -0.112073146 0.9874467
vn 0.11130348 -0.112073146 0.9874467
vn 0.11130348 -0.112073146 0.9874467
vn 0.042929567 0.14956689 -0.9878192
vn 0.042929567 0.14956689 -0.9878192
vn 0.042929567 0.14956689 -0.9878192
vn 0.042929567 0.14956689 -0.9878192
vn -0.042225823 -0.14973311 0.9878243
vn -0.042225823 -0.14973311 0.9878243
vn -0.042225823 -0.14973311 0.9878243
vn -0.042225823 -0.14973311 0.9878243
vn 0.042225823 -0.14973311 0.9878243
vn 0.042225823 -0.14973311 0.9878243
vn 0.042225823 -0.14973311 0.9878243
vn 0.042225823 -0.14973311 0.9878243
vn 0.0389799 0.15048778 0.98784316
vn 0.0389799 0.15048778 0.98784316
vn 0.0389799 0.15048778 0.98784316
vn 0.0389799 0.15048778 0.98784316
vn 0.11203838 0.11101989 0.98748267
vn 0.11203838 0.11101989 0.98748267
vn 0.11203838 0.11101989 0.98748267
vn 0.11203838 0.11101989 0.98748267
vn -0.039523862 -0.15037194 -0.9878391
vn -0.039523862 -0.15037194 -0.9878391
vn -0.039523862 -0.15037194 -0.9878391
vn -0.039523862 -0.15037194 -0.9878391
vn 0.21899565 -0.91833377 0.32970294
vn 0.21899565 -0.91833377 0.32970294
vn 0.21899565 -0.91833377 0.32970294
vn 0.21899565 -0.91833377 0.32970294
vn 0.09051436 0.33745557 0.9369796
vn 0.09051436 0.33745557 0.9369796
vn 0.09051436 0.33745557 0.9369796
vn 0.09051436 0.33745557 0.9369796
vn -0.10079014 -0.3339532 0.9371855
vn -0.10079014 -0.3339532 0.9371855
vn -0.10079014 -0.3339532 0.9371855
vn -0.10079014 -0.3339532 0.9371855
vn 0.33530372 -0.0962758 -0.9371779
vn 0.33530372 -0.0962758 -0.9371779
vn 0.33530372 -0.0962758 -0.9371779
vn 0.33530372 -0.0962758 -0.9371779
vn -0.33464655 0.09877417 -0.93715286
vn -0.33464655 0.09877417 -0.93715286
vn -0.33464655 0.09877417 -0.93715286
vn -0.33464655 0.09877417 -0.93715286
vn -0.33510053 -0.09769044 0.93710417
vn -0.33510053 -0.09769044 0.93710417
vn -0.33510053 -0.09769044 0.93710417
vn -0.33510053 -0.09769044 0.93710417
vn -0.24819826 -0.2495773 0.9360068
vn -0.24819826 -0.2495773 0.9360068
vn -0.24819826 -0.2495773 0.9360068
vn -0.24819826 -0.2495773 0.9360068
vn 0.2494232 -0.24911416 -0.93580455
vn 0.2494232 -0.24911416 -0.93580455
vn 0.2494232 -0.24911416 -0.93580455
vn 0.2494232 -0.24911416 -0.93580455
vn -0.9190747 -0.21724741 0.32879364
vn -0.9190747 -0.21724741 0.32879364
vn -0.9190747 -0.21724741 0.32879364
vn -0.9190747 -0.21724741 0.32879364
vn -0.9185138 0.21907528 0.32914817
vn -0.9185138 0.21907528 0.32914817
vn -0.9185138 0.21907528 0.32914817
vn -0.9185138 0.21907528 0.32914817
vn -0.66705346 0.6683925 0.3290764
vn -0.66705346 0.6683925 0.3290764
vn -0.66705346 0.6683925 0.3290764
vn -0.66705346 0.6683925 0.3290764
vn -0.21799058 0.91889894 0.3287932
vn -0.21799058 0.91889894 0.3287932
vn -0.21799058 0.91889894 0.3287932
vn -0.21799058 0.91889894 0.3287932
vn -0.22094725 0.9180367 0.3292279
vn -0.22094725 0.9180367 0.3292279
vn -0.22094725 0.9180367 0.3292279
vn -0.22094725 0.9180367 0.3292279
vn -0.66685766 0.6690593 0.32811674
vn -0.66685766 0.6690593 0.32811674
vn -0.66685766 0.6690593 0.32811674
vn -0.66685766 0.6690593 0.32811674
vn -0.91744983 0.2226986 0.32968336
vn -0.91744983 0.2226986 0.32968336
vn -0.91744983 0.2226986 0.32968336
vn -0.91744983 0.2226986 0.32968336
vn -0.9180807 -0.2207772 0.32921913
vn -0.9180807 -0.2207772 0.32921913
vn -0.9180807 -0.2207772 0.32921913
vn -0.9180807 -0.2207772 0.32921913
vn 0.22156242 -0.9176198 0.3299757
vn 0.22156242 -0.9176198 0.3299757
vn 0.22156242 -0.9176198 0.3299757
vn 0.22156242 -0.9176198 0.3299757
vn 0.6674496 -0.66829354 0.32847366
vn 0.6674496 -0.66829354 0.32847366
vn 0.6674496 -0.66829354 0.32847366
vn 0.6674496 -0.66829354 0.32847366
vn 0.9180807 -0.2207771 0.32921913
vn 0.9180807 -0.2207771 0.32921913
vn 0.9180807 -0.2207771 0.32921913
vn 0.9180807 -0.2207771 0.32921913
vn 0.91744983 0.2226986 0.32968333
vn 0.91744983 0.2226986 0.32968333
vn 0.91744983 0.2226986 0.32968333
vn 0.91744983 0.2226986 0.32968333
vn 0.66685766 0.66905934 0.32811633
vn 0.66685766 0.66905934 0.32811633
vn 0.66685766 0.66905934 0.32811633
vn 0.66685766 0.66905934 0.32811633
vn 0.22094704 0.9180367 0.3292279
vn 0.22094704 0.9180367 0.3292279
vn 0.22094704 0.9180367 0.3292279
vn 0.22094704 0.9180367 0.3292279
vn -0.22156242 -0.9176198 0.3299757
vn -0.22156242 -0.9176198 0.3299757
vn -0.22156242 -0.9176198 0.3299757
vn -0.22156242 -0.9176198 0.3299757
vn -0.6674493 -0.6682937 0.32847354
vn -0.6674493 -0.6682937 0.32847354
vn -0.6674493 -0.6682937 0.32847354
vn -0.6674493 -0.6682937 0.32847354
vn 0.24858879 0.24970226 -0.9358699
vn 0.24858879 0.24970226 -0.9358699
vn 0.24858879 0.24970226 -0.9358699
vn 0.24858879 0.24970226 -0.9358699
vn -0.24933988 0.24884151 0.9358993
vn -0.24933988 0.24884151 0.9358993
vn -0.24933988 0.24884151 0.9358993
vn -0.24933988 0.24884151 0.9358993
vn 0.10190093 0.33353022 -0.937216
vn 0.10190093 0.33353022 -0.937216
vn 0.10190093 0.33353022 -0.937216
vn 0.10190093 0.33353022 -0.937216
vn 0.10079014 -0.3339532 0.9371855
vn 0.10079014 -0.3339532 0.9371855
vn 0.10079014 -0.3339532 0.9371855
vn 0.10079014 -0.3339532 0.9371855
vn -0.09051436 0.33745557 0.9369796
vn -0.09051436 0.33745557 0.9369796
vn -0.09051436 0.33745557 0.9369796
vn -0.09051436 0.33745557 0.9369796
vn -0.090610236 -0.33734035 -0.93701184
vn -0.090610236 -0.33734035 -0.93701184
vn -0.090610236 -0.33734035 -0.93701184
vn -0.090610236 -0.33734035 -0.93701184
vn -0.24942406 -0.24911407 -0.9358043
vn -0.24942406 -0.24911407 -0.9358043
vn -0.24942406 -0.24911407 -0.9358043
vn -0.24942406 -0.24911407 -0.9358043
vn 0.33510053 -0.09769044 0.93710417
vn 0.33510053 -0.09769044 0.93710417
vn 0.33510053 -0.09769044 0.93710417
vn 0.33510053 -0.09769044 0.93710417
vn 0.09061001 -0.33734035 -0.93701184
vn 0.09061001 -0.33734035 -0.93701184
vn 0.09061001 -0.33734035 -0.93701184
vn 0.09061001 -0.33734035 -0.93701184
vn 0.24819823 -0.24957731 0.9360069
vn 0.24819823 -0.24957731 0.9360069
vn 0.24819823 -0.24957731 0.9360069
vn 0.24819823 -0.24957731 0.9360069
vn 0.2493408 0.24884145 0.93589914
vn 0.2493408 0.24884145 0.93589914
vn 0.2493408 0.24884145 0.93589914
vn 0.2493408 0.24884145 0.93589914
vn -0.3353045 -0.09627578 -0.93717766
vn -0.3353045 -0.09627578 -0.93717766
vn -0.3353045 -0.09627578 -0.93717766
vn -0.3353045 -0.09627578 -0.93717766
g Retopo_Support Mage Body_0
f 3/3/3 2/2/2 1/1/1
f 4/4/4 3/3/3 1/1/1
f 3/3/3 4/4/4 5/5/5
f 6/6/6 3/3/3 5/5/5
f 7/7/7 6/6/6 5/5/5
f 8/8/8 7/7/7 5/5/5
f 11/11/11 10/10/10 9/9/9
f 10/10/10 12/12/12 9/9/9
f 12/12/12 10/10/10 13/13/13
f 14/14/14 12/12/12 13/13/13
f 15/15/15 14/14/14 13/13/13
f 16/16/16 15/15/15 13/13/13
f 19/19/19 18/18/18 17/17/17
f 20/20/20 19/19/19 17/17/17
f 23/23/23 22/22/22 21/21/21
f 24/24/24 23/23/23 21/21/21
f 23/23/23 24/24/24 25/25/25
f 24/24/24 26/26/26 25/25/25
f 25/25/25 26/26/26 27/27/27
f 28/28/28 25/25/25 27/27/27
f 31/31/31 30/30/30 29/29/29
f 32/32/32 31/31/31 29/29/29
f 35/35/35 34/34/34 33/33/33
f 34/34/34 36/36/36 33/33/33
f 37/37/37 36/36/36 34/34/34
f 38/38/38 37/37/37 34/34/34
f 37/37/37 38/38/38 39/39/39
f 38/38/38 40/40/40 39/39/39
f 43/43/43 42/42/42 41/41/41
f 44/44/44 43/43/43 41/41/41
f 47/47/47 46/46/46 45/45/45
f 46/46/46 48/48/48 45/45/45
f 49/49/49 48/48/48 46/46/46
f 50/50/50 49/49/49 46/46/46
f 53/53/53 52/52/52 51/51/51
f 54/54/54 53/53/53 51/51/51
f 57/57/57 56/56/56 55/55/55
f 58/58/58 57/57/57 55/55/55
f 61/61/61 60/60/60 59/59/59
f 62/62/62 61/61/61 59/59/59
f 61/61/61 62/62/62 63/63/63
f 62/62/62 64/64/64 63/63/63
f 63/63/63 64/64/64 65/65/65
f 66/66/66 63/63/63 65/65/65
f 69/69/69 68/68/68 67/67/67
f 68/68/68 70/70/70 67/67/67
f 70/70/70 71/71/71 67/67/67
f 71/71/71 72/72/72 67/67/67
f 75/75/75 74/74/74 73/73/73
f 76/76/76 75/75/75 73/73/73
f 79/79/79 78/78/78 77/77/77
f 80/80/80 79/79/79 77/77/77
f 83/83/83 82/82/82 81/81/81
f 84/84/84 83/83/83 81/81/81
f 87/87/87 86/86/86 85/85/85
f 88/88/88 87/87/87 85/85/85
f 91/91/91 90/90/90 89/89/89
f 90/90/90 92/92/92 89/89/89
f 92/92/92 90/90/90 93/93/93
f 90/90/90 94/94/94 93/93/93
f 94/94/94 95/95/95 93/93/93
f 95/95/95 96/96/96 93/93/93
f 99/99/99 98/98/98 97/97/97
f 100/100/100 99/99/99 97/97/97
f 103/103/103 102/102/102 101/101/101
f 102/102/102 104/104/104 101/101/101
f 104/104/104 102/102/102 105/105/105
f 102/102/102 106/106/106 105/105/105
f 106/106/106 107/107/107 105/105/105
f 107/107/107 108/108/108 105/105/105
f 111/111/111 110/110/110 109/109/109
f 112/112/112 111/111/111 109/109/109
f 115/115/115 114/114/114 113/113/113
f 114/114/114 116/116/116 113/113/113
f 116/116/116 117/117/117 113/113/113
f 117/117/117 118/118/118 113/113/113
f 119/119/119 118/118/118 117/117/117
f 120/120/120 119/119/119 117/117/117
f 123/123/123 122/122/122 121/121/121
f 124/124/124 123/123/123 121/121/121
f 127/127/127 126/126/126 125/125/125
f 128/128/128 127/127/127 125/125/125
f 131/131/131 130/130/130 129/129/129
f 132/132/132 131/131/131 129/129/129
f 135/135/135 134/134/134 133/133/133
f 136/136/136 135/135/135 133/133/133
f 135/135/135 136/136/136 137/137/137
f 138/138/138 135/135/135 137/137/137
f 141/141/141 140/140/140 139/139/139
f 142/142/142 141/141/141 139/139/139
f 145/145/145 144/144/144 143/143/143
f 146/146/146 145/145/145 143/143/143
f 149/149/149 148/148/148 147/147/147
f 150/150/150 149/149/149 147/147/147
f 153/153/153 152/152/152 151/151/151
f 154/154/154 153/153/153 151/151/151
f 153/153/153 154/154/154 155/155/155
f 156/156/156 153/153/153 155/155/155
f 159/159/159 158/158/158 157/157/157
f 160/160/160 159/159/159 157/157/157
f 163/163/163 162/162/162 161/161/161
f 164/164/164 163/163/163 161/161/161
f 163/163/163 164/164/164 165/165/165
f 166/166/166 163/163/163 165/165/165
f 169/169/169 168/168/168 167/167/167
f 170/170/170 169/169/169 167/167/167
f 173/173/173 172/172/172 171/171/171
f 174/174/174 173/173/173 171/171/171
f 177/177/177 176/176/176 175/175/175
f 178/178/178 177/177/177 175/175/175
f 181/181/181 180/180/180 179/179/179
f 182/182/182 181/181/181 179/179/179
f 185/185/185 184/184/184 183/183/183
f 186/186/186 185/185/185 183/183/183
f 189/189/189 188/188/188 187/187/187
f 188/188/188 190/190/190 187/187/187
f 190/190/190 188/188/188 191/191/191
f 188/188/188 192/192/192 191/191/191
f 192/192/192 193/193/193 191/191/191
f 193/193/193 194/194/194 191/191/191
f 197/197/197 196/196/196 195/195/195
f 198/198/198 197/197/197 195/195/195
f 197/197/197 198/198/198 199/199/199
f 198/198/198 200/200/200 199/199/199
f 200/200/200 201/201/201 199/199/199
f 201/201/201 202/202/202 199/199/199
f 205/205/205 204/204/204 203/203/203
f 206/206/206 205/205/205 203/203/203
f 209/209/209 208/208/208 207/207/207
f 210/210/210 209/209/209 207/207/207
f 213/213/213 212/212/212 211/211/211
f 214/214/214 213/213/213 211/211/211
f 217/217/217 216/216/216 215/215/215
f 218/218/218 217/217/217 215/215/215
f 221/221/221 220/220/220 219/219/219
f 222/222/222 221/221/221 219/219/219
f 225/225/225 224/224/224 223/223/223
f 226/226/226 225/225/225 223/223/223
f 229/229/229 228/228/228 227/227/227
f 230/230/230 229/229/229 227/227/227
f 233/233/233 232/232/232 231/231/231
f 234/234/234 233/233/233 231/231/231
f 237/237/237 236/236/236 235/235/235
f 238/238/238 237/237/237 235/235/235
f 241/241/241 240/240/240 239/239/239
f 242/242/242 241/241/241 239/239/239
f 245/245/245 244/244/244 243/243/243
f 246/246/246 245/245/245 243/243/243
f 249/249/249 248/248/248 247/247/247
f 250/250/250 249/249/249 247/247/247
f 253/253/253 252/252/252 251/251/251
f 254/254/254 253/253/253 251/251/251
f 254/254/254 255/255/255 253/253/253
f 255/255/255 256/256/256 253/253/253
f 257/257/257 256/256/256 255/255/255
f 258/258/258 257/257/257 255/255/255
f 261/261/261 260/260/260 259/259/259
f 262/262/262 261/261/261 259/259/259
f 259/259/259 263/263/263 262/262/262
f 263/263/263 264/264/264 262/262/262
f 265/265/265 264/264/264 263/263/263
f 266/266/266 265/265/265 263/263/263
f 269/269/269 268/268/268 267/267/267
f 270/270/270 269/269/269 267/267/267
f 273/273/273 272/272/272 271/271/271
f 274/274/274 273/273/273 271/271/271
f 273/273/273 274/274/274 275/275/275
f 274/274/274 276/276/276 275/275/275
f 276/276/276 277/277/277 275/275/275
f 277/277/277 278/278/278 275/275/275
f 281/281/281 280/280/280 279/279/279
f 282/282/282 281/281/281 279/279/279
f 285/285/285 284/284/284 283/283/283
f 286/286/286 285/285/285 283/283/283
f 287/287/287 286/286/286 283/283/283
f 288/288/288 287/287/287 283/283/283
f 287/287/287 288/288/288 289/289/289
f 288/288/288 290/290/290 289/289/289
f 293/293/293 292/292/292 291/291/291
f 294/294/294 293/293/293 291/291/291
f 297/297/297 296/296/296 295/295/295
f 298/298/298 297/297/297 295/295/295
f 299/299/299 298/298/298 295/295/295
f 300/300/300 299/299/299 295/295/295
f 303/303/303 302/302/302 301/301/301
f 302/302/302 304/304/304 301/301/301
f 305/305/305 304/304/304 302/302/302
f 306/306/306 305/305/305 302/302/302
f 306/306/306 307/307/307 305/305/305
f 307/307/307 308/308/308 305/305/305
f 311/311/311 310/310/310 309/309/309
f 310/310/310 312/312/312 309/309/309
f 313/313/313 312/312/312 310/310/310
f 314/314/314 313/313/313 310/310/310
f 314/314/314 315/315/315 313/313/313
f 315/315/315 316/316/316 313/313/313
f 319/319/319 318/318/318 317/317/317
f 320/320/320 319/319/319 317/317/317
f 319/319/319 320/320/320 321/321/321
f 320/320/320 322/322/322 321/321/321
f 322/322/322 323/323/323 321/321/321
f 323/323/323 324/324/324 321/321/321
f 327/327/327 326/326/326 325/325/325
f 326/326/326 328/328/328 325/325/325
f 325/325/325 328/328/328 329/329/329
f 330/330/330 325/325/325 329/329/329
f 333/333/333 332/332/332 331/331/331
f 334/334/334 333/333/333 331/331/331
f 337/337/337 336/336/336 335/335/335
f 338/338/338 337/337/337 335/335/335
f 341/341/341 340/340/340 339/339/339
f 342/342/342 341/341/341 339/339/339
f 345/345/345 344/344/344 343/343/343
f 346/346/346 345/345/345 343/343/343
f 349/349/349 348/348/348 347/347/347
f 350/350/350 349/349/349 347/347/347
f 353/353/353 352/352/352 351/351/351
f 354/354/354 353/353/353 351/351/351
f 357/357/357 356/356/356 355/355/355
f 356/356/356 358/358/358 355/355/355
f 355/355/355 358/358/358 359/359/359
f 360/360/360 355/355/355 359/359/359
f 361/361/361 360/360/360 359/359/359
f 362/362/362 361/361/361 359/359/359
f 365/365/365 364/364/364 363/363/363
f 364/364/364 366/366/366 363/363/363
f 367/367/367 366/366/366 364/364/364
f 368/368/368 367/367/367 364/364/364
f 367/367/367 368/368/368 369/369/369
f 368/368/368 370/370/370 369/369/369
f 373/373/373 372/372/372 371/371/371
f 374/374/374 373/373/373 371/371/371
f 377/377/377 376/376/376 375/375/375
f 376/376/376 378/378/378 375/375/375
f 379/379/379 378/378/378 376/376/376
f 380/380/380 379/379/379 376/376/376
f 380/380/380 381/381/381 379/379/379
f 381/381/381 382/382/382 379/379/379
f 385/385/385 384/384/384 383/383/383
f 386/386/386 385/385/385 383/383/383
f 386/386/386 387/387/387 385/385/385
f 387/387/387 388/388/388 385/385/385
f 391/391/391 390/390/390 389/389/389
f 392/392/392 391/391/391 389/389/389
f 395/395/395 394/394/394 393/393/393
f 396/396/396 395/395/395 393/393/393
f 399/399/399 398/398/398 397/397/397
f 400/400/400 399/399/399 397/397/397
f 403/403/403 402/402/402 401/401/401
f 404/404/404 403/403/403 401/401/401
f 404/404/404 405/405/405 403/403/403
f 405/405/405 406/406/406 403/403/403
f 409/409/409 408/408/408 407/407/407
f 410/410/410 409/409/409 407/407/407
f 413/413/413 412/412/412 411/411/411
f 414/414/414 413/413/413 411/411/411
f 414/414/414 415/415/415 413/413/413
f 415/415/415 416/416/416 413/413/413
f 419/419/419 418/418/418 417/417/417
f 420/420/420 419/419/419 417/417/417
f 423/423/423 422/422/422 421/421/421
f 424/424/424 423/423/423 421/421/421
f 427/427/427 426/426/426 425/425/425
f 428/428/428 427/427/427 425/425/425
f 431/431/431 430/430/430 429/429/429
f 432/432/432 431/431/431 429/429/429
f 435/435/435 434/434/434 433/433/433
f 436/436/436 435/435/435 433/433/433
f 439/439/439 438/438/438 437/437/437
f 440/440/440 439/439/439 437/437/437
f 443/443/443 442/442/442 441/441/441
f 444/444/444 443/443/443 441/441/441
f 447/447/447 446/446/446 445/445/445
f 448/448/448 447/447/447 445/445/445
f 451/451/451 450/450/450 449/449/449
f 452/452/452 451/451/451 449/449/449
f 455/455/455 454/454/454 453/453/453
f 456/456/456 455/455/455 453/453/453
f 459/459/459 458/458/458 457/457/457
f 460/460/460 459/459/459 457/457/457
f 463/463/463 462/462/462 461/461/461
f 464/464/464 463/463/463 461/461/461
f 467/467/467 466/466/466 465/465/465
f 468/468/468 467/467/467 465/465/465
f 471/471/471 470/470/470 469/469/469
f 472/472/472 471/471/471 469/469/469
f 475/475/475 474/474/474 473/473/473
f 476/476/476 475/475/475 473/473/473
f 479/479/479 478/478/478 477/477/477
f 480/480/480 479/479/479 477/477/477
f 483/483/483 482/482/482 481/481/481
f 484/484/484 483/483/483 481/481/481
f 487/487/487 486/486/486 485/485/485
f 488/488/488 487/487/487 485/485/485
f 491/491/491 490/490/490 489/489/489
f 492/492/492 491/491/491 489/489/489
f 495/495/495 494/494/494 493/493/493
f 496/496/496 495/495/495 493/493/493
f 499/499/499 498/498/498 497/497/497
f 500/500/500 499/499/499 497/497/497
f 503/503/503 502/502/502 501/501/501
f 504/504/504 503/503/503 501/501/501
f 507/507/507 506/506/506 505/505/505
f 508/508/508 507/507/507 505/505/505
f 511/511/511 510/510/510 509/509/509
f 512/512/512 511/511/511 509/509/509
f 515/515/515 514/514/514 513/513/513
f 516/516/516 515/515/515 513/513/513
f 519/519/519 518/518/518 517/517/517
f 520/520/520 519/519/519 517/517/517
f 523/523/523 522/522/522 521/521/521
f 524/524/524 523/523/523 521/521/521
f 527/527/527 526/526/526 525/525/525
f 528/528/528 527/527/527 525/525/525
f 531/531/531 530/530/530 529/529/529
f 532/532/532 531/531/531 529/529/529
f 535/535/535 534/534/534 533/533/533
f 536/536/536 535/535/535 533/533/533
f 539/539/539 538/538/538 537/537/537
f 540/540/540 539/539/539 537/537/537
f 543/543/543 542/542/542 541/541/541
f 544/544/544 543/543/543 541/541/541
f 547/547/547 546/546/546 545/545/545
f 548/548/548 547/547/547 545/545/545
f 551/551/551 550/550/550 549/549/549
f 552/552/552 551/551/551 549/549/549
f 555/555/555 554/554/554 553/553/553
f 556/556/556 555/555/555 553/553/553
f 559/559/559 558/558/558 557/557/557
f 560/560/560 559/559/559 557/557/557
f 563/563/563 562/562/562 561/561/561
f 564/564/564 563/563/563 561/561/561
f 567/567/567 566/566/566 565/565/565
f 568/568/568 567/567/567 565/565/565
f 571/571/571 570/570/570 569/569/569
f 572/572/572 571/571/571 569/569/569
f 575/575/575 574/574/574 573/573/573
f 576/576/576 575/575/575 573/573/573
f 579/579/579 578/578/578 577/577/577
f 580/580/580 579/579/579 577/577/577
f 583/583/583 582/582/582 581/581/581
f 584/584/584 583/583/583 581/581/581
f 587/587/587 586/586/586 585/585/585
f 588/588/588 587/587/587 585/585/585
f 591/591/591 590/590/590 589/589/589
f 592/592/592 591/591/591 589/589/589
f 595/595/595 594/594/594 593/593/593
f 596/596/596 595/595/595 593/593/593
f 599/599/599 598/598/598 597/597/597
f 600/600/600 599/599/599 597/597/597
f 603/603/603 602/602/602 601/601/601
f 604/604/604 603/603/603 601/601/601
f 607/607/607 606/606/606 605/605/605
f 608/608/608 607/607/607 605/605/605
f 611/611/611 610/610/610 609/609/609
f 612/612/612 611/611/611 609/609/609
f 615/615/615 614/614/614 613/613/613
f 616/616/616 615/615/615 613/613/613
f 619/619/619 618/618/618 617/617/617
f 620/620/620 619/619/619 617/617/617
f 623/623/623 622/622/622 621/621/621
f 624/624/624 623/623/623 621/621/621
f 627/627/627 626/626/626 625/625/625
f 628/628/628 627/627/627 625/625/625
f 631/631/631 630/630/630 629/629/629
f 632/632/632 631/631/631 629/629/629
f 635/635/635 634/634/634 633/633/633
f 636/636/636 635/635/635 633/633/633
f 639/639/639 638/638/638 637/637/637
f 640/640/640 639/639/639 637/637/637
f 643/643/643 642/642/642 641/641/641
f 644/644/644 643/643/643 641/641/641
f 647/647/647 646/646/646 645/645/645
f 648/648/648 647/647/647 645/645/645
f 651/651/651 650/650/650 649/649/649
f 652/652/652 651/651/651 649/649/649
f 655/655/655 654/654/654 653/653/653
f 656/656/656 655/655/655 653/653/653
f 659/659/659 658/658/658 657/657/657
f 660/660/660 659/659/659 657/657/657
f 663/663/663 662/662/662 661/661/661
f 664/664/664 663/663/663 661/661/661
f 667/667/667 666/666/666 665/665/665
f 668/668/668 667/667/667 665/665/665
f 671/671/671 670/670/670 669/669/669
f 672/672/672 671/671/671 669/669/669
f 675/675/675 674/674/674 673/673/673
f 676/676/676 675/675/675 673/673/673
f 679/679/679 678/678/678 677/677/677
f 680/680/680 679/679/679 677/677/677
f 683/683/683 682/682/682 681/681/681
f 684/684/684 683/683/683 681/681/681
f 687/687/687 686/686/686 685/685/685
f 688/688/688 687/687/687 685/685/685
f 691/691/691 690/690/690 689/689/689
f 692/692/692 691/691/691 689/689/689
f 695/695/695 694/694/694 693/693/693
f 696/696/696 695/695/695 693/693/693
f 699/699/699 698/698/698 697/697/697
f 700/700/700 699/699/699 697/697/697
f 703/703/703 702/702/702 701/701/701
f 704/704/704 703/703/703 701/701/701
f 707/707/707 706/706/706 705/705/705
f 708/708/708 707/707/707 705/705/705
f 711/711/711 710/710/710 709/709/709
f 712/712/712 711/711/711 709/709/709
f 715/715/715 714/714/714 713/713/713
f 716/716/716 715/715/715 713/713/713
f 719/719/719 718/718/718 717/717/717
f 720/720/720 719/719/719 717/717/717
f 723/723/723 722/722/722 721/721/721
f 724/724/724 723/723/723 721/721/721
f 727/727/727 726/726/726 725/725/725
f 728/728/728 727/727/727 725/725/725
f 731/731/731 730/730/730 729/729/729
f 732/732/732 731/731/731 729/729/729
f 735/735/735 734/734/734 733/733/733
f 736/736/736 735/735/735 733/733/733
f 739/739/739 738/738/738 737/737/737
f 740/740/740 739/739/739 737/737/737
f 743/743/743 742/742/742 741/741/741
f 744/744/744 743/743/743 741/741/741
f 747/747/747 746/746/746 745/745/745
f 748/748/748 747/747/747 745/745/745
