g Retopo_Cape no cloth low poly
v -0 -0.3467877 -2
v -0.15660357 -0.3276107 -2
v -0.15992321 -0.32627106 -1.477467
v -0 -0.34532565 -1.4641905
v -0.16199262 -0.32359412 -0.85264236
v -0 -0.3435476 -0.8485048
v -0 -0.2760129 -0.39416867
v -0.16255978 -0.2569886 -0.39725643
v -0.1415075 -0.16934465 -0.17439485
v -0 -0.18121581 -0.17050631
v -0 -0.2760129 -0.39416867
v -0 -0.3435476 -0.8485048
v -0.16199262 -0.32359412 -0.85264236
v -0.16255978 -0.2569886 -0.39725643
v -0.16199262 -0.32359412 -0.85264236
v -0.32258284 -0.26537594 -0.86531913
v -0.33054367 -0.19968641 -0.41556275
v -0.16255978 -0.2569886 -0.39725643
v -0.16199262 -0.32359412 -0.85264236
v -0.31708813 -0.2700186 -1.4760612
v -0.32258284 -0.26537594 -0.86531913
v -0.15992321 -0.32627106 -1.477467
v -0.15660357 -0.3276107 -2
v -0.30703843 -0.27535814 -2
v -0.31708813 -0.2700186 -1.4760612
v -0.48826677 -0.15797342 -0.8784074
v -0.32258284 -0.26537594 -0.86531913
v -0.478866 -0.16695862 -1.4701759
v -0.4607194 -0.18138489 -2
v -0.30703843 -0.27535814 -2
v -0.4607194 -0.18138489 -2
v -0.68019545 0.044673085 -2
v -0.68019545 0.044673085 -1.4709333
v -0.478866 -0.16695862 -1.4701759
v -0.48826677 -0.15797342 -0.8784074
v -0.68019545 0.045828767 -0.8929805
v -0.68019545 0.045828767 -0.8929805
v -0.68019545 0.08369093 -0.52096295
v -0.5044559 -0.094834894 -0.4645746
v -0.48826677 -0.15797342 -0.8784074
v -0.68019545 0.08369093 -0.52096295
v -0.68019545 0.16225256 -0.2583859
v -0.501044 -0.0068475804 -0.20471436
v -0.5044559 -0.094834894 -0.4645746
v -0.68019545 0.16225256 -0.2583859
v -0.68019545 0.3772205 0
v -0.41010836 0.11113474 0
v -0.501044 -0.0068475804 -0.20471436
v -0.41010836 0.11113474 0
v -0.209551 0.0205902 0
v -0.30122858 -0.1221168 -0.1831174
v -0.501044 -0.0068475804 -0.20471436
v -0.209551 0.0205902 0
v -0.10208144 -0.0044122837 0
v -0.1415075 -0.16934465 -0.17439485
v -0.30122858 -0.1221168 -0.1831174
v -0.10208144 -0.0044122837 0
v -0 -0.014240265 1.7347235E-18
v -0 -0.18121581 -0.17050631
v -0.1415075 -0.16934465 -0.17439485
v -0.30122858 -0.1221168 -0.1831174
v -0.1415075 -0.16934465 -0.17439485
v -0.16255978 -0.2569886 -0.39725643
v -0.33054367 -0.19968641 -0.41556275
v -0.30122858 -0.1221168 -0.1831174
v -0.33054367 -0.19968641 -0.41556275
v -0.5044559 -0.094834894 -0.4645746
v -0.501044 -0.0068475804 -0.20471436
v -0.5044559 -0.094834894 -0.4645746
v -0.33054367 -0.19968641 -0.41556275
v -0.32258284 -0.26537594 -0.86531913
v -0.48826677 -0.15797342 -0.8784074
v 0.15660357 -0.3276107 -2
v -0 -0.3467877 -2
v -0 -0.34532565 -1.4641905
v 0.15992321 -0.32627106 -1.477467
v -0 -0.3435476 -0.8485048
v 0.16199262 -0.32359412 -0.85264236
v 0.16255978 -0.2569886 -0.39725643
v -0 -0.2760129 -0.39416867
v -0 -0.18121581 -0.17050631
v 0.1415075 -0.16934465 -0.17439485
v -0 -0.3435476 -0.8485048
v -0 -0.2760129 -0.39416867
v 0.16255978 -0.2569886 -0.39725643
v 0.16199262 -0.32359412 -0.85264236
v 0.32258284 -0.26537594 -0.86531913
v 0.16199262 -0.32359412 -0.85264236
v 0.16255978 -0.2569886 -0.39725643
v 0.33054367 -0.19968641 -0.41556275
v 0.15992321 -0.32627106 -1.477467
v 0.16199262 -0.32359412 -0.85264236
v 0.32258284 -0.26537594 -0.86531913
v 0.31708813 -0.2700186 -1.4760612
v 0.30703843 -0.27535814 -2
v 0.15660357 -0.3276107 -2
v 0.478866 -0.16695862 -1.4701759
v 0.32258284 -0.26537594 -0.86531913
v 0.48826677 -0.15797342 -0.8784074
v 0.31708813 -0.2700186 -1.4760612
v 0.30703843 -0.27535814 -2
v 0.4607194 -0.18138489 -2
v 0.68019545 0.044673085 -2
v 0.4607194 -0.18138489 -2
v 0.478866 -0.16695862 -1.4701759
v 0.68019545 0.044673085 -1.4709333
v 0.68019545 0.045828767 -0.8929805
v 0.48826677 -0.15797342 -0.8784074
v 0.68019545 0.08369093 -0.52096295
v 0.68019545 0.045828767 -0.8929805
v 0.48826677 -0.15797342 -0.8784074
v 0.5044559 -0.094834894 -0.4645746
v 0.68019545 0.16225256 -0.2583859
v 0.68019545 0.08369093 -0.52096295
v 0.5044559 -0.094834894 -0.4645746
v 0.501044 -0.0068475804 -0.20471436
v 0.68019545 0.3772205 0
v 0.68019545 0.16225256 -0.2583859
v 0.501044 -0.0068475804 -0.20471436
v 0.41010836 0.11113474 0
v 0.209551 0.0205902 0
v 0.41010836 0.11113474 0
v 0.501044 -0.0068475804 -0.20471436
v 0.30122858 -0.1221168 -0.1831174
v 0.10208144 -0.0044122837 0
v 0.209551 0.0205902 0
v 0.30122858 -0.1221168 -0.1831174
v 0.1415075 -0.16934465 -0.17439485
v -0 -0.014240265 1.7347235E-18
v 0.10208144 -0.0044122837 0
v 0.1415075 -0.16934465 -0.17439485
v -0 -0.18121581 -0.17050631
v 0.1415075 -0.16934465 -0.17439485
v 0.30122858 -0.1221168 -0.1831174
v 0.33054367 -0.19968641 -0.41556275
v 0.16255978 -0.2569886 -0.39725643
v 0.33054367 -0.19968641 -0.41556275
v 0.30122858 -0.1221168 -0.1831174
v 0.501044 -0.0068475804 -0.20471436
v 0.5044559 -0.094834894 -0.4645746
v 0.33054367 -0.19968641 -0.41556275
v 0.5044559 -0.094834894 -0.4645746
v 0.48826677 -0.15797342 -0.8784074
v 0.32258284 -0.26537594 -0.86531913
vn -0.1200059 -0.9927706 0.0022516889
vn -0.1200059 -0.9927706 0.0022516889
vn -0.1200059 -0.9927706 0.0022516889
vn -0.1200059 -0.9927706 0.0022516889
vn -0.12047351 -0.9927108 0.0033640806
vn -0.12047351 -0.9927108 0.0033640806
vn -0.102122135 -0.91917753 0.38037303
vn -0.102122135 -0.91917753 0.38037303
vn -0.102122135 -0.91917753 0.38037303
vn -0.102122135 -0.91917753 0.38037303
vn -0.1211603 -0.98202574 0.14472598
vn -0.1211603 -0.98202574 0.14472598
vn -0.1211603 -0.98202574 0.14472598
vn -0.1211603 -0.98202574 0.14472598
vn -0.3398656 -0.9310396 0.1328781
vn -0.3398656 -0.9310396 0.1328781
vn -0.3398656 -0.9310396 0.1328781
vn -0.3398656 -0.9310396 0.1328781
vn -0.33903363 -0.94076765 0.0034975917
vn -0.33903363 -0.94076765 0.0034975917
vn -0.33903363 -0.94076765 0.0034975917
vn -0.33903363 -0.94076765 0.0034975917
vn -0.33264986 -0.9430487 0.0017692645
vn -0.33264986 -0.9430487 0.0017692645
vn -0.54071116 -0.8412036 0.0028354244
vn -0.54071116 -0.8412036 0.0028354244
vn -0.54071116 -0.8412036 0.0028354244
vn -0.54071116 -0.8412036 0.0028354244
vn -0.5297263 -0.8481669 0.0017351251
vn -0.5297263 -0.8481669 0.0017351251
vn -0.7208686 -0.69306564 -0.0029114997
vn -0.7208686 -0.69306564 -0.0029114997
vn -0.7208686 -0.69306564 -0.0029114997
vn -0.7208686 -0.69306564 -0.0029114997
vn -0.7262261 -0.68745583 0.00012339401
vn -0.7262261 -0.68745583 0.00012339401
vn -0.72560215 -0.68423223 0.07299231
vn -0.72560215 -0.68423223 0.07299231
vn -0.72560215 -0.68423223 0.07299231
vn -0.72560215 -0.68423223 0.07299231
vn -0.7166023 -0.6631633 0.21609128
vn -0.7166023 -0.6631633 0.21609128
vn -0.7166023 -0.6631633 0.21609128
vn -0.7166023 -0.6631633 0.21609128
vn -0.6200987 -0.574192 0.534585
vn -0.6200987 -0.574192 0.534585
vn -0.6200987 -0.574192 0.534585
vn -0.6200987 -0.574192 0.534585
vn -0.38079786 -0.6743899 0.6326066
vn -0.38079786 -0.6743899 0.6326066
vn -0.38079786 -0.6743899 0.6326066
vn -0.38079786 -0.6743899 0.6326066
vn -0.21175176 -0.7010725 0.6809247
vn -0.21175176 -0.7010725 0.6809247
vn -0.21175176 -0.7010725 0.6809247
vn -0.21175176 -0.7010725 0.6809247
vn -0.07473505 -0.7142519 0.6958872
vn -0.07473505 -0.7142519 0.6958872
vn -0.07473505 -0.7142519 0.6958872
vn -0.07473505 -0.7142519 0.6958872
vn -0.31057134 -0.8820107 0.35440445
vn -0.31057134 -0.8820107 0.35440445
vn -0.31057134 -0.8820107 0.35440445
vn -0.31057134 -0.8820107 0.35440445
vn -0.52551377 -0.79524225 0.3023658
vn -0.52551377 -0.79524225 0.3023658
vn -0.52551377 -0.79524225 0.3023658
vn -0.52551377 -0.79524225 0.3023658
vn -0.5411276 -0.83381325 0.10925371
vn -0.5411276 -0.83381325 0.10925371
vn -0.5411276 -0.83381325 0.10925371
vn -0.5411276 -0.83381325 0.10925371
vn 0.120005876 -0.9927706 0.002251704
vn 0.120005876 -0.9927706 0.002251704
vn 0.120005876 -0.9927706 0.002251704
vn 0.120005876 -0.9927706 0.002251704
vn 0.12047351 -0.9927108 0.0033640931
vn 0.12047351 -0.9927108 0.0033640931
vn 0.102122135 -0.91917753 0.38037303
vn 0.102122135 -0.91917753 0.38037303
vn 0.102122135 -0.91917753 0.38037303
vn 0.102122135 -0.91917753 0.38037303
vn 0.12116031 -0.98202574 0.14472598
vn 0.12116031 -0.98202574 0.14472598
vn 0.12116031 -0.98202574 0.14472598
vn 0.12116031 -0.98202574 0.14472598
vn 0.3398656 -0.9310396 0.13287811
vn 0.3398656 -0.9310396 0.13287811
vn 0.3398656 -0.9310396 0.13287811
vn 0.3398656 -0.9310396 0.13287811
vn 0.33903363 -0.94076765 0.0034975917
vn 0.33903363 -0.94076765 0.0034975917
vn 0.33903363 -0.94076765 0.0034975917
vn 0.33903363 -0.94076765 0.0034975917
vn 0.33264986 -0.9430487 0.0017692656
vn 0.33264986 -0.9430487 0.0017692656
vn 0.5407111 -0.84120363 0.0028354118
vn 0.5407111 -0.84120363 0.0028354118
vn 0.5407111 -0.84120363 0.0028354118
vn 0.5407111 -0.84120363 0.0028354118
vn 0.5297263 -0.8481669 0.0017351251
vn 0.5297263 -0.8481669 0.0017351251
vn 0.7208686 -0.69306564 -0.0029114997
vn 0.7208686 -0.69306564 -0.0029114997
vn 0.7208686 -0.69306564 -0.0029114997
vn 0.7208686 -0.69306564 -0.0029114997
vn 0.7262262 -0.6874557 0.00012339403
vn 0.7262262 -0.6874557 0.00012339403
vn 0.72560203 -0.6842323 0.07299231
vn 0.72560203 -0.6842323 0.07299231
vn 0.72560203 -0.6842323 0.07299231
vn 0.72560203 -0.6842323 0.07299231
vn 0.7166024 -0.66316324 0.21609128
vn 0.7166024 -0.66316324 0.21609128
vn 0.7166024 -0.66316324 0.21609128
vn 0.7166024 -0.66316324 0.21609128
vn 0.62009877 -0.574192 0.534585
vn 0.62009877 -0.574192 0.534585
vn 0.62009877 -0.574192 0.534585
vn 0.62009877 -0.574192 0.534585
vn 0.38079783 -0.67438984 0.6326067
vn 0.38079783 -0.67438984 0.6326067
vn 0.38079783 -0.67438984 0.6326067
vn 0.38079783 -0.67438984 0.6326067
vn 0.21175176 -0.7010725 0.6809247
vn 0.21175176 -0.7010725 0.6809247
vn 0.21175176 -0.7010725 0.6809247
vn 0.21175176 -0.7010725 0.6809247
vn 0.07473505 -0.7142519 0.69588727
vn 0.07473505 -0.7142519 0.69588727
vn 0.07473505 -0.7142519 0.69588727
vn 0.07473505 -0.7142519 0.69588727
vn 0.31057137 -0.8820108 0.35440445
vn 0.31057137 -0.8820108 0.35440445
vn 0.31057137 -0.8820108 0.35440445
vn 0.31057137 -0.8820108 0.35440445
vn 0.52551377 -0.79524225 0.30236575
vn 0.52551377 -0.79524225 0.30236575
vn 0.52551377 -0.79524225 0.30236575
vn 0.52551377 -0.79524225 0.30236575
vn 0.5411276 -0.83381325 0.10925373
vn 0.5411276 -0.83381325 0.10925373
vn 0.5411276 -0.83381325 0.10925373
vn 0.5411276 -0.83381325 0.10925373
g Retopo_Cape no cloth low poly_0
f 3/3/3 2/2/2 1/1/1
f 4/4/4 3/3/3 1/1/1
f 3/3/3 4/4/4 5/5/5
f 4/4/4 6/6/6 5/5/5
f 9/9/9 8/8/8 7/7/7
f 10/10/10 9/9/9 7/7/7
f 13/13/13 12/12/12 11/11/11
f 14/14/14 13/13/13 11/11/11
f 17/17/17 16/16/16 15/15/15
f 18/18/18 17/17/17 15/15/15
f 21/21/21 20/20/20 19/19/19
f 20/20/20 22/22/22 19/19/19
f 23/23/23 22/22/22 20/20/20
f 24/24/24 23/23/23 20/20/20
f 27/27/27 26/26/26 25/25/25
f 26/26/26 28/28/28 25/25/25
f 28/28/28 29/29/29 25/25/25
f 29/29/29 30/30/30 25/25/25
f 33/33/33 32/32/32 31/31/31
f 34/34/34 33/33/33 31/31/31
f 34/34/34 35/35/35 33/33/33
f 35/35/35 36/36/36 33/33/33
f 39/39/39 38/38/38 37/37/37
f 40/40/40 39/39/39 37/37/37
f 43/43/43 42/42/42 41/41/41
f 44/44/44 43/43/43 41/41/41
f 47/47/47 46/46/46 45/45/45
f 48/48/48 47/47/47 45/45/45
f 51/51/51 50/50/50 49/49/49
f 52/52/52 51/51/51 49/49/49
f 55/55/55 54/54/54 53/53/53
f 56/56/56 55/55/55 53/53/53
f 59/59/59 58/58/58 57/57/57
f 60/60/60 59/59/59 57/57/57
f 63/63/63 62/62/62 61/61/61
f 64/64/64 63/63/63 61/61/61
f 67/67/67 66/66/66 65/65/65
f 68/68/68 67/67/67 65/65/65
f 71/71/71 70/70/70 69/69/69
f 72/72/72 71/71/71 69/69/69
f 75/75/75 74/74/74 73/73/73
f 76/76/76 75/75/75 73/73/73
f 75/75/75 76/76/76 77/77/77
f 76/76/76 78/78/78 77/77/77
f 81/81/81 80/80/80 79/79/79
f 82/82/82 81/81/81 79/79/79
f 85/85/85 84/84/84 83/83/83
f 86/86/86 85/85/85 83/83/83
f 89/89/89 88/88/88 87/87/87
f 90/90/90 89/89/89 87/87/87
f 93/93/93 92/92/92 91/91/91
f 94/94/94 93/93/93 91/91/91
f 95/95/95 94/94/94 91/91/91
f 96/96/96 95/95/95 91/91/91
f 99/99/99 98/98/98 97/97/97
f 98/98/98 100/100/100 97/97/97
f 97/97/97 100/100/100 101/101/101
f 102/102/102 97/97/97 101/101/101
f 105/105/105 104/104/104 103/103/103
f 106/106/106 105/105/105 103/103/103
f 105/105/105 106/106/106 107/107/107
f 108/108/108 105/105/105 107/107/107
f 111/111/111 110/110/110 109/109/109
f 112/112/112 111/111/111 109/109/109
f 115/115/115 114/114/114 113/113/113
f 116/116/116 115/115/115 113/113/113
f 119/119/119 118/118/118 117/117/117
f 120/120/120 119/119/119 117/117/117
f 123/123/123 122/122/122 121/121/121
f 124/124/124 123/123/123 121/121/121
f 127/127/127 126/126/126 125/125/125
f 128/128/128 127/127/127 125/125/125
f 131/131/131 130/130/130 129/129/129
f 132/132/132 131/131/131 129/129/129
f 135/135/135 134/134/134 133/133/133
f 136/136/136 135/135/135 133/133/133
f 139/139/139 138/138/138 137/137/137
f 140/140/140 139/139/139 137/137/137
f 143/143/143 142/142/142 141/141/141
f 144/144/144 143/143/143 141/141/141
