g Retopo_Lizard Legs
v 0.73692054 1.1394708 0.12323122
v 0.6856989 1.1120626 0.10745163
v 0.6864245 1.1029309 0.054981492
v 0.7091962 0.9939419 0.13973975
v 0.71965563 1.1479466 0.06941354
v 0.8015978 1.0450279 0.1724215
v 0.8905464 0.82491446 0.20410132
v 0.86258286 1.0759388 0.11393582
v 0.7982854 1.0331445 -0.009661667
v 0.7177719 0.9919828 0.027214903
v 0.7631661 0.8098463 0.16043654
v 0.8991407 1.0110872 0.03193979
v 0.8041143 0.7791145 0.033411715
v 0.9176028 0.7854308 -0.00992821
v 1.0013838 0.80278075 0.0491479
v 0.9959303 0.82768154 0.15097518
v 0.91484517 0.5281301 0.252521
v 0.92893845 0.46284756 0.16488427
v 0.6945923 0.29070464 0.30103692
v 0.85113156 0.4900168 0.09542649
v 0.74448526 0.58285135 0.10129447
v 0.70090497 0.6753698 0.20713025
v 0.5145869 0.5343866 0.29787466
v 0.8165505 0.6234815 0.27794695
v 0.6212905 0.32400483 0.22009516
v 0.60198784 0.47760513 0.38806516
v 0.5422535 0.42917287 0.2129633
v 0.450135 0.22898324 0.31781262
v 0.67598337 0.36999503 0.38153797
v 0.4944687 0.2796078 0.46061027
v 0.43334723 0.3659077 0.4588661
v 0.39059636 0.31616858 0.30963326
v 0.5047062 0.19395548 0.40029642
v 0.35715854 0.39694303 0.38306212
v 0.38792518 0.221117 0.37504572
v 0.38147554 0.30048484 0.4612254
v 0.3572158 0.25738704 0.37684593
v 0.4078569 0.25861388 0.46285528
v 0.38765693 0.2253071 0.42931303
v 0.34919712 0.27526033 0.42476884
v 1.233978 -1.0731813 0.07436277
v 1.188117 -1.034592 0.041597433
v 1.1728718 -1.0618907 -0.010124568
v 1.0685905 -1.0681689 0.109447524
v 1.2328925 -1.079198 0.00980223
v 1.1535579 -1.1354549 0.17254773
v 0.94039005 -1.2570641 0.28929976
v 1.1982579 -1.218042 0.1324943
v 1.120733 -1.2201035 -0.0135722365
v 1.0571487 -1.1300831 -0.0020783674
v 0.8840402 -1.1519499 0.1922728
v 1.1288476 -1.3072159 0.0775156
v 0.8485505 -1.2594887 0.08585058
v 0.88243645 -1.393254 0.08923981
v 0.9307973 -1.4465653 0.18271616
v 0.9671257 -1.3879794 0.2798493
v 0.6270492 -1.3216549 0.41108802
v 0.5503534 -1.3908532 0.34065384
v 0.31094247 -1.1263721 0.4145691
v 0.55133873 -1.3390436 0.22987716
v 0.62407315 -1.2088239 0.17040385
v 0.72431624 -1.0955069 0.2411068
v 0.5276423 -0.89431936 0.2827359
v 0.7068851 -1.190166 0.3748188
v 0.31870118 -1.0832129 0.2926738
v 0.49903062 -0.95235765 0.4251187
v 0.41125146 -0.98440576 0.22926404
v 0.17730093 -0.8843645 0.3385277
v 0.40099028 -1.0529962 0.4728082
v 0.2598604 -0.8514468 0.49404383
v 0.33726814 -0.7722152 0.44785368
v 0.25544974 -0.8095672 0.28622678
v 0.16261718 -0.90822566 0.4542386
v 0.3422784 -0.7242036 0.33045545
v 0.15737483 -0.79625446 0.3719886
v 0.25146756 -0.73249096 0.44132408
v 0.1887784 -0.7566885 0.35300076
v 0.21308462 -0.76725465 0.46311972
v 0.16752023 -0.7696196 0.42678
v 0.21110567 -0.7223022 0.39507407
v -0.7369189 1.1394708 0.12323125
v -0.6864227 1.1029308 0.054981567
v -0.6856971 1.1120626 0.10745169
v -0.7091944 0.99394184 0.13973983
v -0.7196538 1.1479466 0.06941355
v -0.801596 1.0450277 0.17242146
v -0.8905448 0.8249146 0.20410143
v -0.862581 1.0759387 0.11393588
v -0.7982839 1.0331447 -0.009661614
v -0.7177703 0.99198294 0.027214993
v -0.7631644 0.8098462 0.1604365
v -0.89913905 1.0110872 0.031939823
v -0.8041126 0.7791145 0.033411823
v -0.91760105 0.785431 -0.009928104
v -1.0013821 0.80278087 0.04914801
v -0.9959285 0.82768166 0.15097536
v -0.9148434 0.5281302 0.25252104
v -0.92893654 0.4628475 0.16488428
v -0.69459057 0.29070458 0.30103695
v -0.8511299 0.49001694 0.09542658
v -0.74448353 0.58285147 0.10129451
v -0.7009032 0.67536974 0.20713031
v -0.51458514 0.5343866 0.29787472
v -0.81654876 0.6234816 0.27794698
v -0.6212887 0.32400492 0.22009517
v -0.6019861 0.4776052 0.38806525
v -0.54225177 0.42917284 0.21296328
v -0.45013314 0.22898333 0.31781262
v -0.6759816 0.36999497 0.38153797
v -0.49446687 0.27960777 0.46061027
v -0.43334547 0.3659077 0.45886612
v -0.3905945 0.31616867 0.30963326
v -0.50470436 0.19395554 0.40029642
v -0.3571567 0.39694303 0.38306212
v -0.3879233 0.22111702 0.37504572
v -0.3814738 0.3004849 0.4612254
v -0.357214 0.25738707 0.37684593
v -0.40785512 0.25861382 0.46285525
v -0.38765508 0.22530712 0.42931297
v -0.34919533 0.27526042 0.42476884
v -1.2339764 -1.0731812 0.07436295
v -1.1728702 -1.0618906 -0.010124444
v -1.1881155 -1.034592 0.041597556
v -1.0685887 -1.0681689 0.10944759
v -1.2328908 -1.079198 0.009802336
v -1.1535561 -1.1354548 0.1725478
v -0.94038826 -1.257064 0.2892998
v -1.1982561 -1.2180419 0.13249438
v -1.1207314 -1.2201036 -0.013572112
v -1.057147 -1.1300831 -0.002078208
v -0.8840384 -1.1519499 0.19227278
v -1.1288459 -1.3072159 0.07751571
v -0.8485488 -1.2594886 0.08585068
v -0.8824348 -1.3932539 0.08923985
v -0.9307956 -1.4465652 0.1827162
v -0.96712404 -1.3879793 0.2798494
v -0.6270474 -1.3216548 0.41108808
v -0.55035174 -1.3908532 0.34065384
v -0.31094074 -1.1263721 0.4145691
v -0.551337 -1.3390434 0.2298772
v -0.6240714 -1.208824 0.17040388
v -0.7243146 -1.095507 0.24110685
v -0.5276406 -0.89431936 0.2827359
v -0.7068833 -1.1901658 0.37481892
v -0.31869936 -1.0832129 0.29267383
v -0.49902886 -0.95235753 0.42511877
v -0.41124973 -0.98440576 0.22926407
v -0.17729914 -0.8843644 0.3385277
v -0.40098855 -1.0529962 0.47280818
v -0.25985864 -0.85144687 0.49404383
v -0.33726642 -0.7722152 0.4478536
v -0.25544792 -0.80956715 0.28622675
v -0.16261537 -0.9082256 0.45423856
v -0.3422767 -0.7242036 0.33045542
v -0.15737307 -0.79625446 0.37198853
v -0.25146577 -0.73249096 0.44132406
v -0.18877667 -0.75668836 0.35300076
v -0.2130829 -0.7672546 0.4631197
v -0.16751836 -0.7696194 0.4267799
v -0.21110387 -0.7223021 0.395074
vn -0.12014124 0.72823554 0.6747141
vn -0.85566056 0.31680885 0.40923962
vn -0.84781235 0.2335662 -0.4760893
vn -0.8298145 -0.12908539 0.542904
vn -0.2504051 0.93061364 -0.26693732
vn 0.07482631 0.3848176 0.9199546
vn 0.15316091 0.26558873 0.9518426
vn 0.65250117 0.7360873 0.18004903
vn 0.078655615 0.3631177 -0.9284173
vn -0.7649853 -0.1486652 -0.6266547
vn -0.8822733 0.11595098 0.45623362
vn 0.7104618 0.48386428 -0.51099837
vn -0.63633686 -0.16917081 -0.7526332
vn 0.19754846 -0.15321936 -0.96824497
vn 0.90318346 0.023769977 -0.4285962
vn 0.85298467 0.22675698 0.47010446
vn 0.734757 -0.13905226 0.66392523
vn 0.7777035 -0.605858 -0.16767006
vn 0.5372409 -0.8419478 0.049959302
vn 0.13876851 -0.50107443 -0.8542059
vn -0.5446582 -0.030516645 -0.83810264
vn -0.74983394 0.6394577 0.16983211
vn -0.6210909 0.78373814 -0.0007860871
vn 0.1380349 0.37137124 0.9181665
vn -0.047957234 -0.6183349 -0.78445023
vn 0.070900366 0.48712128 0.87045157
vn -0.5256305 0.037972942 -0.8498651
vn -0.23809113 -0.7337088 -0.6363835
vn 0.5179156 -0.17876852 0.83654356
vn 0.28691313 -0.24659364 0.925674
vn -0.16718291 0.3989479 0.9016045
vn -0.690689 -0.08352466 -0.71831214
vn 0.24776189 -0.9376814 0.24365488
vn -0.8380159 0.53999424 0.0783297
vn -0.5326438 -0.7878383 -0.30919498
vn -0.46521047 0.07391427 0.8821088
vn -0.86030394 -0.38230664 -0.33722195
vn -0.16510244 -0.35950282 0.9184219
vn -0.44790375 -0.7768758 0.44254506
vn -0.9238441 -0.18199076 0.33673635
vn 0.7353541 0.52192575 0.43225896
vn 0.13419506 0.9908511 -0.014346202
vn -0.025191728 0.6020386 -0.7980695
vn -0.27772412 0.94003254 0.19801052
vn 0.8128044 0.28611082 -0.50743437
vn 0.47388354 0.38566327 0.7916428
vn 0.3808375 0.30683362 0.87224764
vn 0.88648313 -0.3697904 0.2782136
vn 0.28488025 -0.3865599 -0.8771628
vn -0.38771573 0.39470583 -0.8329969
vn -0.061912496 0.9965809 0.05471127
vn 0.5939745 -0.7543633 -0.27951825
vn -0.3875964 0.22412047 -0.89416945
vn -0.18817219 -0.6052031 -0.7735118
vn 0.20443076 -0.9777429 -0.047188986
vn 0.47029024 -0.5233448 0.7105894
vn 0.105982415 -0.40596375 0.9077231
vn -0.41019797 -0.8752949 0.25611782
vn -0.67696637 -0.61496496 0.4043941
vn -0.5279171 -0.5704607 -0.6291885
vn -0.23915827 0.13289917 -0.9618426
vn 0.4496413 0.8576156 -0.24963643
vn 0.60478115 0.6991835 -0.3812903
vn 0.47618264 0.32609108 0.8166484
vn -0.6803613 -0.39705575 -0.6159994
vn 0.5671598 0.38774315 0.72662574
vn -0.16946688 0.123839416 -0.9777244
vn -0.82465714 -0.1878615 -0.53352475
vn 0.03044359 -0.14871314 0.9884116
vn -0.08332398 0.08137563 0.99319434
vn 0.42671788 0.5963613 0.6799008
vn -0.31505787 0.30271566 -0.89950085
vn -0.8224027 -0.29470348 0.48662466
vn 0.32371026 0.8798025 -0.34807935
vn -0.91896504 0.19990662 -0.33991268
vn 0.03834168 0.7933033 0.6076182
vn -0.6100934 0.55586225 -0.5646266
vn -0.30342492 0.46013245 0.8343929
vn -0.81894886 0.4374706 0.37140587
vn -0.3706194 0.9286632 -0.015030256
vn 0.12013896 0.7282355 0.6747145
vn 0.8478127 0.23356482 -0.4760894
vn 0.8556599 0.31680897 0.40924093
vn 0.8298145 -0.12908593 0.5429039
vn 0.25040492 0.93061405 -0.2669363
vn -0.07482656 0.3848176 0.9199546
vn -0.15316088 0.26558873 0.9518426
vn -0.65250117 0.73608714 0.18004987
vn -0.07865651 0.36311874 -0.9284169
vn 0.7649846 -0.14866583 -0.62665534
vn 0.8822738 0.115951225 0.45623282
vn -0.7104623 0.4838645 -0.5109975
vn 0.6363364 -0.16917063 -0.7526335
vn -0.19754824 -0.15321954 -0.9682451
vn -0.90318364 0.023769608 -0.42859572
vn -0.8529845 0.22675708 0.47010493
vn -0.734757 -0.1390525 0.6639251
vn -0.77770317 -0.60585845 -0.16767041
vn -0.5372408 -0.84194803 0.04995888
vn -0.13876852 -0.5010739 -0.8542062
vn 0.544658 -0.03051638 -0.8381029
vn 0.74983376 0.63945794 0.16983174
vn 0.6210909 0.78373814 -0.0007861701
vn -0.13803488 0.37137106 0.91816664
vn 0.04795735 -0.6183344 -0.78445053
vn -0.07090044 0.48712105 0.8704517
vn 0.5256301 0.03797296 -0.84986526
vn 0.23809123 -0.7337085 -0.63638383
vn -0.5179157 -0.17876892 0.8365435
vn -0.2869127 -0.24659419 0.925674
vn 0.16718295 0.3989476 0.90160453
vn 0.6906891 -0.08352451 -0.718312
vn -0.24776165 -0.93768156 0.2436546
vn 0.838016 0.539994 0.07832986
vn 0.5326441 -0.787838 -0.3091951
vn 0.46521008 0.07391459 0.8821089
vn 0.86030424 -0.38230664 -0.3372216
vn 0.16510315 -0.3595033 0.9184216
vn 0.44790447 -0.7768757 0.44254467
vn 0.9238441 -0.18198986 0.33673704
vn -0.73535395 0.52192503 0.43226022
vn 0.025191562 0.6020392 -0.798069
vn -0.13419619 0.990851 -0.014345422
vn 0.27772447 0.94003254 0.19800986
vn -0.8128056 0.28611013 -0.50743276
vn -0.4738831 0.38566306 0.7916431
vn -0.38083777 0.30683416 0.8722474
vn -0.88648283 -0.36979082 0.27821398
vn -0.28488046 -0.38656032 -0.87716264
vn 0.3877153 0.39470568 -0.83299714
vn 0.061912727 0.9965809 0.054710526
vn -0.59397453 -0.75436354 -0.27951732
vn 0.38759637 0.22412096 -0.8941694
vn 0.18817227 -0.6052032 -0.77351165
vn -0.20443064 -0.9777429 -0.0471887
vn -0.47029045 -0.52334464 0.7105894
vn -0.10598225 -0.4059636 0.9077231
vn 0.41019762 -0.8752952 0.25611737
vn 0.67696625 -0.6149652 0.40439406
vn 0.527917 -0.57046056 -0.62918866
vn 0.23915832 0.13289914 -0.9618426
vn -0.44964093 0.85761565 -0.24963671
vn -0.60478115 0.6991833 -0.3812907
vn -0.47618288 0.3260916 0.8166481
vn 0.6803613 -0.39705586 -0.61599946
vn -0.5671597 0.3877434 0.7266257
vn 0.16946669 0.12383926 -0.9777244
vn 0.82465714 -0.18786152 -0.53352475
vn -0.030443339 -0.14871323 0.9884116
vn 0.08332372 0.08137552 0.99319434
vn -0.4267181 0.5963614 0.6799006
vn 0.3150577 0.30271545 -0.899501
vn 0.82240254 -0.29470342 0.48662505
vn -0.32371065 0.8798022 -0.3480796
vn 0.918965 0.19990611 -0.33991328
vn -0.038342357 0.79330313 0.60761833
vn 0.6100932 0.5558623 -0.5646268
vn 0.30342376 0.4601324 0.83439326
vn 0.81894857 0.4374712 0.37140563
vn 0.37061888 0.9286634 -0.015030265
g Retopo_Lizard Legs_0
f 3/3/3 2/2/2 1/1/1
f 2/2/2 4/4/4 1/1/1
f 4/4/4 2/2/2 3/3/3
f 5/5/5 3/3/3 1/1/1
f 4/4/4 6/6/6 1/1/1
f 6/6/6 4/4/4 7/7/7
f 6/6/6 8/8/8 1/1/1
f 8/8/8 5/5/5 1/1/1
f 8/8/8 6/6/6 7/7/7
f 5/5/5 9/9/9 3/3/3
f 10/10/10 4/4/4 3/3/3
f 9/9/9 10/10/10 3/3/3
f 4/4/4 10/10/10 11/11/11
f 4/4/4 11/11/11 7/7/7
f 5/5/5 8/8/8 12/12/12
f 9/9/9 5/5/5 12/12/12
f 10/10/10 9/9/9 13/13/13
f 10/10/10 13/13/13 11/11/11
f 9/9/9 12/12/12 14/14/14
f 9/9/9 14/14/14 13/13/13
f 12/12/12 8/8/8 15/15/15
f 12/12/12 15/15/15 14/14/14
f 16/16/16 8/8/8 7/7/7
f 8/8/8 16/16/16 15/15/15
f 15/15/15 16/16/16 17/17/17
f 16/16/16 7/7/7 17/17/17
f 15/15/15 18/18/18 14/14/14
f 18/18/18 15/15/15 17/17/17
f 18/18/18 17/17/17 19/19/19
f 18/18/18 20/20/20 14/14/14
f 14/14/14 20/20/20 13/13/13
f 20/20/20 18/18/18 19/19/19
f 13/13/13 21/21/21 11/11/11
f 20/20/20 21/21/21 13/13/13
f 11/11/11 22/22/22 7/7/7
f 21/21/21 22/22/22 11/11/11
f 23/23/23 22/22/22 21/21/21
f 22/22/22 24/24/24 7/7/7
f 7/7/7 24/24/24 17/17/17
f 24/24/24 22/22/22 23/23/23
f 20/20/20 25/25/25 21/21/21
f 25/25/25 20/20/20 19/19/19
f 24/24/24 26/26/26 17/17/17
f 26/26/26 24/24/24 23/23/23
f 25/25/25 27/27/27 21/21/21
f 27/27/27 23/23/23 21/21/21
f 27/27/27 25/25/25 28/28/28
f 25/25/25 19/19/19 28/28/28
f 17/17/17 29/29/29 19/19/19
f 26/26/26 29/29/29 17/17/17
f 29/29/29 30/30/30 19/19/19
f 30/30/30 29/29/29 26/26/26
f 31/31/31 26/26/26 23/23/23
f 31/31/31 30/30/30 26/26/26
f 27/27/27 32/32/32 23/23/23
f 32/32/32 27/27/27 28/28/28
f 19/19/19 33/33/33 28/28/28
f 30/30/30 33/33/33 19/19/19
f 34/34/34 31/31/31 23/23/23
f 32/32/32 34/34/34 23/23/23
f 32/32/32 28/28/28 35/35/35
f 28/28/28 33/33/33 35/35/35
f 30/30/30 31/31/31 36/36/36
f 31/31/31 34/34/34 36/36/36
f 34/34/34 32/32/32 37/37/37
f 37/37/37 32/32/32 35/35/35
f 33/33/33 30/30/30 38/38/38
f 38/38/38 30/30/30 36/36/36
f 33/33/33 39/39/39 35/35/35
f 39/39/39 33/33/33 38/38/38
f 35/35/35 39/39/39 37/37/37
f 39/39/39 38/38/38 36/36/36
f 40/40/40 34/34/34 37/37/37
f 34/34/34 40/40/40 36/36/36
f 39/39/39 40/40/40 37/37/37
f 40/40/40 39/39/39 36/36/36
f 43/43/43 42/42/42 41/41/41
f 42/42/42 44/44/44 41/41/41
f 44/44/44 42/42/42 43/43/43
f 45/45/45 43/43/43 41/41/41
f 44/44/44 46/46/46 41/41/41
f 46/46/46 44/44/44 47/47/47
f 46/46/46 48/48/48 41/41/41
f 48/48/48 45/45/45 41/41/41
f 48/48/48 46/46/46 47/47/47
f 45/45/45 49/49/49 43/43/43
f 50/50/50 44/44/44 43/43/43
f 49/49/49 50/50/50 43/43/43
f 44/44/44 50/50/50 51/51/51
f 44/44/44 51/51/51 47/47/47
f 45/45/45 48/48/48 52/52/52
f 49/49/49 45/45/45 52/52/52
f 50/50/50 49/49/49 53/53/53
f 50/50/50 53/53/53 51/51/51
f 49/49/49 52/52/52 54/54/54
f 49/49/49 54/54/54 53/53/53
f 52/52/52 48/48/48 55/55/55
f 52/52/52 55/55/55 54/54/54
f 56/56/56 48/48/48 47/47/47
f 48/48/48 56/56/56 55/55/55
f 55/55/55 56/56/56 57/57/57
f 56/56/56 47/47/47 57/57/57
f 55/55/55 58/58/58 54/54/54
f 58/58/58 55/55/55 57/57/57
f 58/58/58 57/57/57 59/59/59
f 58/58/58 60/60/60 54/54/54
f 54/54/54 60/60/60 53/53/53
f 60/60/60 58/58/58 59/59/59
f 53/53/53 61/61/61 51/51/51
f 60/60/60 61/61/61 53/53/53
f 51/51/51 62/62/62 47/47/47
f 61/61/61 62/62/62 51/51/51
f 63/63/63 62/62/62 61/61/61
f 62/62/62 64/64/64 47/47/47
f 47/47/47 64/64/64 57/57/57
f 64/64/64 62/62/62 63/63/63
f 60/60/60 65/65/65 61/61/61
f 65/65/65 60/60/60 59/59/59
f 64/64/64 66/66/66 57/57/57
f 66/66/66 64/64/64 63/63/63
f 65/65/65 67/67/67 61/61/61
f 67/67/67 63/63/63 61/61/61
f 67/67/67 65/65/65 68/68/68
f 65/65/65 59/59/59 68/68/68
f 57/57/57 69/69/69 59/59/59
f 66/66/66 69/69/69 57/57/57
f 69/69/69 70/70/70 59/59/59
f 70/70/70 69/69/69 66/66/66
f 71/71/71 66/66/66 63/63/63
f 71/71/71 70/70/70 66/66/66
f 67/67/67 72/72/72 63/63/63
f 72/72/72 67/67/67 68/68/68
f 59/59/59 73/73/73 68/68/68
f 70/70/70 73/73/73 59/59/59
f 74/74/74 71/71/71 63/63/63
f 72/72/72 74/74/74 63/63/63
f 72/72/72 68/68/68 75/75/75
f 68/68/68 73/73/73 75/75/75
f 70/70/70 71/71/71 76/76/76
f 71/71/71 74/74/74 76/76/76
f 74/74/74 72/72/72 77/77/77
f 77/77/77 72/72/72 75/75/75
f 73/73/73 70/70/70 78/78/78
f 78/78/78 70/70/70 76/76/76
f 73/73/73 79/79/79 75/75/75
f 79/79/79 73/73/73 78/78/78
f 75/75/75 79/79/79 77/77/77
f 79/79/79 78/78/78 76/76/76
f 80/80/80 74/74/74 77/77/77
f 74/74/74 80/80/80 76/76/76
f 79/79/79 80/80/80 77/77/77
f 80/80/80 79/79/79 76/76/76
f 83/83/83 82/82/82 81/81/81
f 84/84/84 83/83/83 81/81/81
f 83/83/83 84/84/84 82/82/82
f 82/82/82 85/85/85 81/81/81
f 86/86/86 84/84/84 81/81/81
f 84/84/84 86/86/86 87/87/87
f 88/88/88 86/86/86 81/81/81
f 85/85/85 88/88/88 81/81/81
f 86/86/86 88/88/88 87/87/87
f 89/89/89 85/85/85 82/82/82
f 84/84/84 90/90/90 82/82/82
f 90/90/90 89/89/89 82/82/82
f 90/90/90 84/84/84 91/91/91
f 91/91/91 84/84/84 87/87/87
f 88/88/88 85/85/85 92/92/92
f 85/85/85 89/89/89 92/92/92
f 89/89/89 90/90/90 93/93/93
f 93/93/93 90/90/90 91/91/91
f 92/92/92 89/89/89 94/94/94
f 94/94/94 89/89/89 93/93/93
f 88/88/88 92/92/92 95/95/95
f 95/95/95 92/92/92 94/94/94
f 88/88/88 96/96/96 87/87/87
f 96/96/96 88/88/88 95/95/95
f 96/96/96 95/95/95 97/97/97
f 87/87/87 96/96/96 97/97/97
f 98/98/98 95/95/95 94/94/94
f 95/95/95 98/98/98 97/97/97
f 97/97/97 98/98/98 99/99/99
f 100/100/100 98/98/98 94/94/94
f 100/100/100 94/94/94 93/93/93
f 98/98/98 100/100/100 99/99/99
f 101/101/101 93/93/93 91/91/91
f 101/101/101 100/100/100 93/93/93
f 102/102/102 91/91/91 87/87/87
f 102/102/102 101/101/101 91/91/91
f 102/102/102 103/103/103 101/101/101
f 104/104/104 102/102/102 87/87/87
f 104/104/104 87/87/87 97/97/97
f 102/102/102 104/104/104 103/103/103
f 105/105/105 100/100/100 101/101/101
f 100/100/100 105/105/105 99/99/99
f 106/106/106 104/104/104 97/97/97
f 104/104/104 106/106/106 103/103/103
f 107/107/107 105/105/105 101/101/101
f 103/103/103 107/107/107 101/101/101
f 105/105/105 107/107/107 108/108/108
f 99/99/99 105/105/105 108/108/108
f 109/109/109 97/97/97 99/99/99
f 109/109/109 106/106/106 97/97/97
f 110/110/110 109/109/109 99/99/99
f 109/109/109 110/110/110 106/106/106
f 106/106/106 111/111/111 103/103/103
f 110/110/110 111/111/111 106/106/106
f 112/112/112 107/107/107 103/103/103
f 107/107/107 112/112/112 108/108/108
f 113/113/113 99/99/99 108/108/108
f 113/113/113 110/110/110 99/99/99
f 111/111/111 114/114/114 103/103/103
f 114/114/114 112/112/112 103/103/103
f 108/108/108 112/112/112 115/115/115
f 113/113/113 108/108/108 115/115/115
f 111/111/111 110/110/110 116/116/116
f 114/114/114 111/111/111 116/116/116
f 112/112/112 114/114/114 117/117/117
f 112/112/112 117/117/117 115/115/115
f 110/110/110 113/113/113 118/118/118
f 110/110/110 118/118/118 116/116/116
f 119/119/119 113/113/113 115/115/115
f 113/113/113 119/119/119 118/118/118
f 119/119/119 115/115/115 117/117/117
f 118/118/118 119/119/119 116/116/116
f 114/114/114 120/120/120 117/117/117
f 120/120/120 114/114/114 116/116/116
f 120/120/120 119/119/119 117/117/117
f 119/119/119 120/120/120 116/116/116
f 123/123/123 122/122/122 121/121/121
f 124/124/124 123/123/123 121/121/121
f 123/123/123 124/124/124 122/122/122
f 122/122/122 125/125/125 121/121/121
f 126/126/126 124/124/124 121/121/121
f 124/124/124 126/126/126 127/127/127
f 128/128/128 126/126/126 121/121/121
f 125/125/125 128/128/128 121/121/121
f 126/126/126 128/128/128 127/127/127
f 129/129/129 125/125/125 122/122/122
f 124/124/124 130/130/130 122/122/122
f 130/130/130 129/129/129 122/122/122
f 130/130/130 124/124/124 131/131/131
f 131/131/131 124/124/124 127/127/127
f 128/128/128 125/125/125 132/132/132
f 125/125/125 129/129/129 132/132/132
f 129/129/129 130/130/130 133/133/133
f 133/133/133 130/130/130 131/131/131
f 132/132/132 129/129/129 134/134/134
f 134/134/134 129/129/129 133/133/133
f 128/128/128 132/132/132 135/135/135
f 135/135/135 132/132/132 134/134/134
f 128/128/128 136/136/136 127/127/127
f 136/136/136 128/128/128 135/135/135
f 136/136/136 135/135/135 137/137/137
f 127/127/127 136/136/136 137/137/137
f 138/138/138 135/135/135 134/134/134
f 135/135/135 138/138/138 137/137/137
f 137/137/137 138/138/138 139/139/139
f 140/140/140 138/138/138 134/134/134
f 140/140/140 134/134/134 133/133/133
f 138/138/138 140/140/140 139/139/139
f 141/141/141 133/133/133 131/131/131
f 141/141/141 140/140/140 133/133/133
f 142/142/142 131/131/131 127/127/127
f 142/142/142 141/141/141 131/131/131
f 142/142/142 143/143/143 141/141/141
f 144/144/144 142/142/142 127/127/127
f 144/144/144 127/127/127 137/137/137
f 142/142/142 144/144/144 143/143/143
f 145/145/145 140/140/140 141/141/141
f 140/140/140 145/145/145 139/139/139
f 146/146/146 144/144/144 137/137/137
f 144/144/144 146/146/146 143/143/143
f 147/147/147 145/145/145 141/141/141
f 143/143/143 147/147/147 141/141/141
f 145/145/145 147/147/147 148/148/148
f 139/139/139 145/145/145 148/148/148
f 149/149/149 137/137/137 139/139/139
f 149/149/149 146/146/146 137/137/137
f 150/150/150 149/149/149 139/139/139
f 149/149/149 150/150/150 146/146/146
f 146/146/146 151/151/151 143/143/143
f 150/150/150 151/151/151 146/146/146
f 152/152/152 147/147/147 143/143/143
f 147/147/147 152/152/152 148/148/148
f 153/153/153 139/139/139 148/148/148
f 153/153/153 150/150/150 139/139/139
f 151/151/151 154/154/154 143/143/143
f 154/154/154 152/152/152 143/143/143
f 148/148/148 152/152/152 155/155/155
f 153/153/153 148/148/148 155/155/155
f 151/151/151 150/150/150 156/156/156
f 154/154/154 151/151/151 156/156/156
f 152/152/152 154/154/154 157/157/157
f 152/152/152 157/157/157 155/155/155
f 150/150/150 153/153/153 158/158/158
f 150/150/150 158/158/158 156/156/156
f 159/159/159 153/153/153 155/155/155
f 153/153/153 159/159/159 158/158/158
f 159/159/159 155/155/155 157/157/157
f 158/158/158 159/159/159 156/156/156
f 154/154/154 160/160/160 157/157/157
f 160/160/160 154/154/154 156/156/156
f 160/160/160 159/159/159 157/157/157
f 159/159/159 160/160/160 156/156/156
