g Retopo_Path__1_
v -0.65282536 0.42724216 0.13489999
v -0.66200334 0.42462778 0.13489999
v -0.66200334 0.42462778 0.09399998
v -0.65282536 0.42724216 0.09399998
v -0.66200334 0.42462778 0.13489999
v -0.6379489 0.41864312 0.09399998
v -0.66200334 0.42462778 0.09399998
v -0.6379489 0.41864312 0.13489999
v -0.59051484 0.4065793 0.09399998
v -0.59051484 0.4065793 0.13489999
v 1.0936745 -1.5262234 0.13490008
v 1.2121747 -1.4238414 0.13490006
v 1.2121747 -1.4238412 0.094000064
v 1.0936745 -1.5262234 0.09400007
v 1.0936745 -1.5262234 0.13490008
v 1.0936745 -1.5262234 0.09400007
v 0.93547016 -1.5376005 0.09400008
v 0.93547016 -1.5376005 0.13490008
v 0.93547016 -1.5376005 0.09400008
v 0.78146505 -1.5396698 0.09400008
v 0.7814651 -1.5396698 0.13490008
v 0.93547016 -1.5376005 0.13490008
v 0.78146505 -1.5396698 0.09400008
v 0.6502725 -1.4570652 0.09400008
v 0.6502725 -1.4570652 0.13490008
v 0.7814651 -1.5396698 0.13490008
v 0.6502725 -1.4570652 0.09400008
v 0.60637987 -1.3351405 0.09400007
v 0.60637987 -1.3351405 0.13490008
v 0.6502725 -1.4570652 0.13490008
v 0.60637987 -1.3351405 0.09400007
v 0.57834846 -1.2241265 0.094000064
v 0.57834846 -1.2241265 0.13490006
v 0.60637987 -1.3351405 0.13490008
v 0.57834846 -1.2241265 0.094000064
v 0.57930356 -1.117668 0.13490006
v 0.57834846 -1.2241265 0.13490006
v 0.57930356 -1.117668 0.094000064
v 0.58298975 -1.0145669 0.13490005
v 0.58298975 -1.0145669 0.09400004
v 0.5823629 -0.9248647 0.09400004
v 0.5823629 -0.9248647 0.13490005
v 0.58298975 -1.0145669 0.13490005
v 0.5823629 -0.9248647 0.09400004
v 0.56509954 -0.83275056 0.09400004
v 0.5650995 -0.83275056 0.13490005
v 0.5823629 -0.9248647 0.13490005
v 0.56509954 -0.83275056 0.09400004
v 0.5631714 -0.74725616 0.094000034
v 0.56317145 -0.74725616 0.13490003
v 0.5650995 -0.83275056 0.13490005
v 0.5631714 -0.74725616 0.094000034
v 0.55620015 -0.66008186 0.09400002
v 0.55620015 -0.66008186 0.13490002
v 0.56317145 -0.74725616 0.13490003
v 0.55620015 -0.66008186 0.09400002
v 0.53907514 -0.5863488 0.09400002
v 0.53907514 -0.5863488 0.13490002
v 0.55620015 -0.66008186 0.13490002
v 0.53907514 -0.5863488 0.09400002
v 0.50274754 -0.5154832 0.13490002
v 0.53907514 -0.5863488 0.13490002
v 0.50274754 -0.5154832 0.09400001
v 0.46074226 -0.4374116 0.1349
v 0.46074226 -0.4374116 0.094000004
v 0.46074226 -0.4374116 0.094000004
v 0.4271321 -0.35190976 0.094000004
v 0.4271321 -0.35190976 0.1349
v 0.46074226 -0.4374116 0.1349
v 0.4271321 -0.35190976 0.094000004
v 0.38038817 -0.27872643 0.094000004
v 0.38038817 -0.27872643 0.1349
v 0.4271321 -0.35190976 0.1349
v 0.38038817 -0.27872643 0.094000004
v 0.3430136 -0.19359264 0.094
v 0.3430136 -0.19359262 0.13489999
v 0.38038817 -0.27872643 0.1349
v 0.3430136 -0.19359264 0.094
v 0.29312825 -0.11435792 0.094
v 0.29312822 -0.11435791 0.13489999
v 0.3430136 -0.19359262 0.13489999
v 0.29312825 -0.11435792 0.094
v 0.26138037 -0.034701098 0.094
v 0.26138037 -0.034701098 0.13489999
v 0.29312822 -0.11435791 0.13489999
v 0.26138037 -0.034701098 0.094
v 0.2232102 0.027064 0.093999974
v 0.2232102 0.027064 0.13489997
v 0.26138037 -0.034701098 0.13489999
v 0.2232102 0.027064 0.093999974
v 0.16013496 0.071614794 0.09399998
v 0.16013496 0.071614794 0.13489999
v 0.2232102 0.027064 0.13489997
v 0.16013496 0.071614794 0.09399998
v 0.09446094 0.12922326 0.09399998
v 0.09446094 0.12922326 0.13489999
v 0.16013496 0.071614794 0.13489999
v 0.09446094 0.12922326 0.09399998
v 0.03781885 0.18895385 0.09399998
v 0.03781885 0.18895385 0.13489999
v 0.09446094 0.12922326 0.13489999
v 0.03781885 0.18895385 0.09399998
v -0.014508638 0.23449285 0.093999974
v -0.014508628 0.23449285 0.13489997
v 0.03781885 0.18895385 0.13489999
v -0.014508638 0.23449285 0.093999974
v -0.08770767 0.24655454 0.093999974
v -0.08770767 0.24655454 0.13489997
v -0.014508628 0.23449285 0.13489997
v -0.08770767 0.24655454 0.093999974
v -0.17318964 0.2778916 0.09399998
v -0.17318964 0.27789164 0.13489999
v -0.08770767 0.24655454 0.13489997
v -0.17318964 0.2778916 0.09399998
v -0.2574685 0.31483716 0.093999974
v -0.2574685 0.31483716 0.13489997
v -0.17318964 0.27789164 0.13489999
v -0.2574685 0.31483716 0.093999974
v -0.34480256 0.34733436 0.093999974
v -0.34480256 0.34733433 0.13489997
v -0.2574685 0.31483716 0.13489997
v -0.34480256 0.34733436 0.093999974
v -0.4350532 0.3653385 0.09399998
v -0.4350532 0.3653385 0.13489999
v -0.34480256 0.34733433 0.13489997
v -0.4350532 0.3653385 0.09399998
v -0.523844 0.39552346 0.09399998
v -0.523844 0.39552346 0.13489999
v -0.4350532 0.3653385 0.13489999
v -0.523844 0.39552346 0.09399998
v -0.59051484 0.4065793 0.09399998
v -0.59051484 0.4065793 0.13489999
v -0.523844 0.39552346 0.13489999
v -0.7582905 0.41221306 0.13489999
v -0.7582905 0.41221306 0.094
v -0.8426008 0.40726143 0.094
v -0.84260076 0.40726143 0.13489999
v -0.7582905 0.41221306 0.13489999
v -0.69449735 0.42517316 0.13489999
v -0.69449735 0.42517316 0.09399998
v -0.7582905 0.41221306 0.094
v -0.69449735 0.42517316 0.09399998
v -0.69449735 0.42517316 0.13489999
v -0.65282536 0.42724216 0.13489999
v -0.65282536 0.42724216 0.09399998
v -0.8426008 0.40726143 0.094
v -0.93490463 0.39192152 0.094000004
v -0.93490475 0.39192146 0.1349
v -0.84260076 0.40726143 0.13489999
v -0.93490463 0.39192152 0.094000004
v -1.0283967 0.36260578 0.094000004
v -1.0283967 0.36260578 0.1349
v -0.93490475 0.39192146 0.1349
v -1.0283967 0.36260578 0.094000004
v -1.1301744 0.34423372 0.1349
v -1.0283967 0.36260578 0.1349
v -1.1301744 0.34423372 0.094000004
v -1.2327206 0.32067478 0.13490002
v -1.2327206 0.32067478 0.09400001
v -1.2327206 0.32067478 0.09400001
v -1.348835 0.3134886 0.09400002
v -1.348835 0.3134886 0.13490002
v -1.2327206 0.32067478 0.13490002
v -1.348835 0.3134886 0.09400002
v -1.4860797 0.3319322 0.09400002
v -1.4860797 0.3319322 0.13490002
v -1.348835 0.3134886 0.13490002
v -1.4860797 0.3319322 0.09400002
v -1.5863305 0.43394744 0.09400002
v -1.5863305 0.43394744 0.13490002
v -1.4860797 0.3319322 0.13490002
v -1.5863305 0.43394744 0.09400002
v -1.6211001 0.5768711 0.1349
v -1.5863305 0.43394744 0.13490002
v -1.6211001 0.57687116 0.094000004
v -1.6565498 0.72259 0.1349
v -1.6565498 0.72259 0.094000004
v -1.6565498 0.72259 0.094000004
v -1.6049004 0.86096203 0.094
v -1.6049004 0.8609619 0.13489999
v -1.6565498 0.72259 0.1349
v -1.497955 0.9264224 0.09399998
v -1.497955 0.9264224 0.13489999
v -1.6049004 0.8609619 0.13489999
v -1.6049004 0.86096203 0.094
v -1.497955 0.9264224 0.09399998
v -1.3815776 0.97593856 0.093999974
v -1.3815776 0.97593856 0.13489997
v -1.497955 0.9264224 0.13489999
v -1.3815776 0.97593856 0.093999974
v -1.271764 1.0060209 0.13489996
v -1.3815776 0.97593856 0.13489997
v -1.271764 1.0060209 0.09399997
v -1.1636124 1.0344075 0.13489996
v -1.1636122 1.0344075 0.09399996
v -1.1636122 1.0344075 0.09399996
v -1.0550829 1.0549705 0.093999945
v -1.055083 1.0549705 0.13489994
v -1.1636124 1.0344075 0.13489996
v -1.0550829 1.0549705 0.093999945
v -0.94276434 1.0702461 0.09399996
v -0.94276434 1.0702461 0.13489996
v -1.055083 1.0549705 0.13489994
v -0.94276434 1.0702461 0.09399996
v -0.8316236 1.0930278 0.093999945
v -0.8316236 1.0930278 0.13489994
v -0.94276434 1.0702461 0.13489996
v -0.8316236 1.0930278 0.093999945
v -0.7147247 1.1096905 0.09399994
v -0.7147247 1.1096905 0.13489994
v -0.8316236 1.0930278 0.13489994
v -0.7147247 1.1096905 0.09399994
v -0.5832804 1.1134548 0.09399993
v -0.5832804 1.1134548 0.13489993
v -0.7147247 1.1096905 0.13489994
v -0.5832804 1.1134548 0.09399993
v -0.45719793 1.0839261 0.09399993
v -0.45719793 1.0839261 0.13489993
v -0.5832804 1.1134548 0.13489993
v -0.45719793 1.0839261 0.09399993
v -0.34166434 1.0432172 0.09399993
v -0.34166434 1.0432172 0.13489993
v -0.45719793 1.0839261 0.13489993
v -0.34166434 1.0432172 0.09399993
v -0.23444717 1.0183532 0.093999915
v -0.23444717 1.0183532 0.13489991
v -0.34166434 1.0432172 0.13489993
v -0.23444717 1.0183532 0.093999915
v -0.13062991 0.97750807 0.09399993
v -0.13062991 0.97750807 0.13489993
v -0.23444717 1.0183532 0.13489991
v -0.13062991 0.97750807 0.09399993
v -0.021663055 0.9465194 0.13489991
v -0.13062991 0.97750807 0.13489993
v -0.021663055 0.9465194 0.093999915
v 0.094996296 0.91609234 0.13489991
v 0.094996296 0.91609234 0.093999915
v 0.094996296 0.91609234 0.093999915
v 0.2132473 0.8619552 0.13489991
v 0.094996296 0.91609234 0.13489991
v 0.2132473 0.8619552 0.093999915
v 0.33972704 0.80911326 0.13489991
v 0.33972704 0.80911326 0.093999915
v 0.33972704 0.80911326 0.093999915
v 0.4421939 0.7198174 0.09399993
v 0.4421939 0.71981746 0.13489993
v 0.33972704 0.80911326 0.13489991
v 0.4421939 0.7198174 0.09399993
v 0.54472727 0.6423059 0.093999915
v 0.54472727 0.6423058 0.13489991
v 0.4421939 0.71981746 0.13489993
v 0.54472727 0.6423059 0.093999915
v 0.6384125 0.5537268 0.13489993
v 0.54472727 0.6423058 0.13489991
v 0.6384125 0.5537268 0.09399993
v 0.7364848 0.46587658 0.13489993
v 0.7364848 0.46587652 0.09399993
v 0.7364848 0.46587652 0.09399993
v 0.81188536 0.35415885 0.09399994
v 0.8118854 0.35415885 0.13489994
v 0.7364848 0.46587658 0.13489993
v 0.81188536 0.35415885 0.09399994
v 0.8686219 0.24369393 0.13489994
v 0.8118854 0.35415885 0.13489994
v 0.8686219 0.24369392 0.09399994
v 0.9275362 0.13732582 0.13489996
v 0.9275362 0.13732582 0.09399996
v 0.9838877 0.03837509 0.13489996
v 0.9838877 0.03837509 0.09399996
v 0.9838877 0.03837509 0.09399996
v 1.0299884 -0.060983922 0.09399997
v 1.0299884 -0.060983922 0.13489996
v 0.9838877 0.03837509 0.13489996
v 1.0299884 -0.060983922 0.09399997
v 1.0859505 -0.16501255 0.13489996
v 1.0299884 -0.060983922 0.13489996
v 1.0859505 -0.16501255 0.09399997
v 1.1389421 -0.2740667 0.13489997
v 1.1389421 -0.2740667 0.093999974
v 1.1995146 -0.39144874 0.13489999
v 1.1995146 -0.39144874 0.09399998
v 1.1995146 -0.39144874 0.09399998
v 1.2168514 -0.52151906 0.09399998
v 1.2168514 -0.52151906 0.13489999
v 1.1995146 -0.39144874 0.13489999
v 1.2168514 -0.52151906 0.09399998
v 1.2393407 -0.6439572 0.1349
v 1.2168514 -0.52151906 0.13489999
v 1.2393407 -0.6439572 0.094000004
v 1.2549043 -0.75573975 0.1349
v 1.2549043 -0.75573975 0.094000004
v 1.2549043 -0.75573975 0.094000004
v 1.2555702 -0.87433034 0.13490002
v 1.2549043 -0.75573975 0.1349
v 1.2555702 -0.87433034 0.09400002
v 1.2541308 -0.9822881 0.13490002
v 1.2541308 -0.9822881 0.09400002
v 1.2541308 -0.9822881 0.09400002
v 1.2672256 -1.0919677 0.094000034
v 1.2672256 -1.0919677 0.13490003
v 1.2541308 -0.9822881 0.13490002
v 1.2672256 -1.0919677 0.094000034
v 1.2687325 -1.2002059 0.09400004
v 1.2687325 -1.2002058 0.13490005
v 1.2672256 -1.0919677 0.13490003
v 1.2687325 -1.2002059 0.09400004
v 1.2487414 -1.3130087 0.09400005
v 1.2487414 -1.3130087 0.13490005
v 1.2687325 -1.2002058 0.13490005
v 1.2487414 -1.3130087 0.09400005
v 1.2121747 -1.4238412 0.094000064
v 1.2121747 -1.4238414 0.13490006
v 1.2487414 -1.3130087 0.13490005
v -0.66200334 0.42462778 0.13489999
v -0.65282536 0.42724216 0.13489999
v -0.69449735 0.42517316 0.13489999
v -0.6379489 0.41864312 0.13489999
v 0.05159683 0.80894405 0.13489994
v 0.094996296 0.91609234 0.13489991
v 0.2132473 0.8619552 0.13489991
v -0.021663055 0.9465194 0.13489991
v -0.057388 0.84357053 0.13489993
v 0.008044967 0.70571834 0.13489994
v -0.13062991 0.97750807 0.13489993
v 0.16408113 0.7640286 0.13489993
v 0.2750174 0.7069682 0.13489994
v 0.21481586 0.61187893 0.13489994
v 0.33972704 0.80911326 0.13489991
v 0.4421939 0.71981746 0.13489993
v 0.37563622 0.6335913 0.13489994
v 0.11255392 0.6650175 0.13489994
v 0.05980627 0.5654245 0.13489994
v 0.4704277 0.5563179 0.13489993
v 0.3970828 0.47215012 0.13489994
v 0.54472727 0.6423058 0.13489991
v 0.6384125 0.5537268 0.13489993
v 0.5593814 0.47501907 0.13489994
v 0.3088473 0.54489255 0.13489994
v 0.24210696 0.45492226 0.13489994
v 0.15497854 0.51649106 0.13489994
v 0.6447479 0.38723415 0.13489994
v 0.5577515 0.31343016 0.13489994
v 0.7364848 0.46587658 0.13489993
v 0.8118854 0.35415885 0.13489994
v 0.71615547 0.28949928 0.13489994
v 0.4798383 0.39606407 0.13489994
v 0.39929634 0.31722185 0.13489996
v 0.09505607 0.421261 0.13489996
v 0.7765875 0.1871082 0.13489994
v 0.682609 0.12839705 0.13489996
v 0.8686219 0.24369393 0.13489994
v 0.9275362 0.13732582 0.13489996
v 0.831174 0.08733841 0.13489996
v 0.32309604 0.38751265 0.13489996
v 0.24840486 0.30208722 0.13489996
v 0.62413716 0.2241012 0.13489996
v 0.5334339 0.15689 0.13489996
v 0.8831748 -0.011197471 0.13489996
v 0.78513515 -0.06134075 0.13489996
v 0.9838877 0.03837509 0.13489996
v 1.0299884 -0.060983922 0.13489996
v 0.934046 -0.10990265 0.13489997
v 0.17497116 0.36451292 0.13489996
v 0.47092253 0.24060988 0.13489996
v 0.3848253 0.16800548 0.13489996
v 0.73486626 0.033792496 0.13489996
v 0.6378828 -0.02203165 0.13489997
v 0.31829432 0.23796146 0.13489996
v 0.5881199 0.06759073 0.13489996
v 0.49286073 0.0057974625 0.13489997
v 0.44293886 0.089705445 0.13489997
v 0.23815683 0.15685424 0.13489997
v 0.30013397 0.09538811 0.13489997
v 0.3515616 0.024627829 0.13489999
v 0.39557824 -0.054972876 0.13489999
v 0.17258832 0.21620113 0.13489997
v 0.10673183 0.27504826 0.13489996
v 0.2232102 0.027064 0.13489997
v 0.26138037 -0.034701098 0.13489999
v 0.16013496 0.071614794 0.13489999
v 0.09446094 0.12922326 0.13489999
v 0.03781885 0.18895385 0.13489999
v 0.29312822 -0.11435791 0.13489999
v -0.014508628 0.23449285 0.13489997
v 0.44052252 -0.13665557 0.13489999
v 0.3430136 -0.19359262 0.13489999
v 0.03651149 0.32558653 0.13489996
v -0.08770767 0.24655454 0.13489997
v 0.539787 -0.07902128 0.13489999
v 0.4856242 -0.22003818 0.13489999
v 0.38038817 -0.27872643 0.1349
v 0.0069252583 0.4641358 0.13489996
v -0.043125592 0.3591752 0.13489996
v -0.17318964 0.27789164 0.13489999
v 0.58677423 -0.16549394 0.13489999
v 0.52989113 -0.30341026 0.13489999
v 0.4271321 -0.35190976 0.1349
v -0.083884485 0.49626127 0.13489996
v -0.12915252 0.38827774 0.13489997
v -0.2574685 0.31483716 0.13489997
v 0.5701641 -0.3878533 0.1349
v 0.46074226 -0.4374116 0.1349
v -0.21721624 0.4196008 0.13489996
v -0.34480256 0.34733433 0.13489997
v 0.6329754 -0.25390184 0.13489999
v 0.7346503 -0.20537284 0.13489997
v 0.6093253 -0.4708814 0.13490002
v 0.50274754 -0.5154832 0.13490002
v 0.6759663 -0.34202918 0.1349
v 0.642251 -0.5536925 0.13490002
v 0.53907514 -0.5863488 0.13490002
v -0.17593367 0.5271316 0.13489996
v -0.13495475 0.633781 0.13489996
v -0.2699733 0.55790615 0.13489996
v 0.6865442 -0.11282783 0.13489997
v 0.7162712 -0.43047503 0.1349
v 0.8233586 -0.39252922 0.13489999
v 0.7500684 -0.52123684 0.1349
v -0.037654057 0.60184884 0.13489994
v 0.83509266 -0.1577201 0.13489997
v 0.883785 -0.25433192 0.13489999
v 0.7805449 -0.29797515 0.13489999
v 0.6638861 -0.6397009 0.13490002
v 0.55620015 -0.66008186 0.13490002
v 0.6763371 -0.7300942 0.13490002
v 0.56317145 -0.74725616 0.13490003
v 0.9854239 -0.21015155 0.13489997
v 1.0859505 -0.16501255 0.13489996
v 1.1389421 -0.2740667 0.13489997
v 1.0352942 -0.3154285 0.13489997
v 0.93000335 -0.35482255 0.13489999
v 0.9683244 -0.45820266 0.13489999
v 1.0787765 -0.42662573 0.13489999
v 1.1995146 -0.39144874 0.13489999
v 1.2168514 -0.52151906 0.13489999
v 1.1051421 -0.5431946 0.13489999
v 0.85877866 -0.48965374 0.1349
v 0.88336015 -0.59064186 0.1349
v 1.1221582 -0.65899915 0.1349
v 1.0100607 -0.6755942 0.1349
v 1.2393407 -0.6439572 0.1349
v 1.2549043 -0.75573975 0.1349
v 0.9939326 -0.5660239 0.1349
v 1.1344211 -0.77133924 0.13490002
v 0.77346283 -0.61578774 0.13490002
v 0.7879599 -0.7122901 0.13490002
v 1.141195 -0.8813894 0.13490002
v 1.0277641 -0.8903806 0.13490002
v 1.2555702 -0.87433034 0.13490002
v 1.2541308 -0.9822881 0.13490002
v 1.1443101 -0.9894987 0.13490003
v 1.2672256 -1.0919677 0.13490003
v 0.8988991 -0.6937575 0.13490002
v 0.90924615 -0.7976773 0.13490002
v 1.0211632 -0.7845742 0.13490002
v 0.6847939 -0.8227035 0.13490003
v 0.5650995 -0.83275056 0.13490005
v 0.79752666 -0.81070304 0.13490002
v 0.69222534 -0.91751486 0.13490003
v 0.5823629 -0.9248647 0.13490005
v 0.8038453 -0.90929306 0.13490005
v 0.6943851 -1.0145394 0.13490005
v 0.58298975 -1.0145669 0.13490005
v 0.6936341 -1.1144122 0.13490005
v 0.57930356 -1.117668 0.13490006
v 0.9154892 -0.900052 0.13490003
v 0.91815877 -1.0035168 0.13490003
v 0.80643606 -1.0101247 0.13490005
v 0.69654965 -1.2166369 0.13490006
v 0.8091685 -1.2101988 0.13490006
v 0.57834846 -1.2241265 0.13490006
v 0.60637987 -1.3351405 0.13490008
v 0.80680764 -1.1100937 0.13490005
v 0.7080269 -1.3188602 0.13490008
v 0.72202176 -1.4002304 0.13490008
v 0.6502725 -1.4570652 0.13490008
v 0.7814651 -1.5396698 0.13490008
v 0.814518 -1.3136057 0.13490006
v 0.920944 -1.3093148 0.13490006
v 0.8091995 -1.4200832 0.13490008
v 0.93547016 -1.5376005 0.13490008
v 0.92909527 -1.4251732 0.13490006
v 1.0936745 -1.5262234 0.13490008
v 0.91825294 -1.1047987 0.13490005
v 1.0448351 -1.4043424 0.13490006
v 1.1249583 -1.3728651 0.13490006
v 1.2121747 -1.4238414 0.13490006
v 1.2487414 -1.3130087 0.13490005
v 1.0255389 -1.2987291 0.13490005
v 1.1309707 -1.2971226 0.13490005
v 1.2687325 -1.2002058 0.13490005
v 0.9178015 -1.2044647 0.13490005
v 1.0276324 -1.1996632 0.13490005
v 1.1438152 -1.1982132 0.13490005
v 1.0309025 -1.0995051 0.13490005
v 1.1469791 -1.0951037 0.13490003
v 1.0306376 -0.9964966 0.13490003
v -0.095082186 0.7391612 0.13489994
v -0.19738394 0.77087945 0.13489994
v -0.23314376 0.66492414 0.13489994
v -0.16296333 0.87571174 0.13489994
v -0.2670626 0.9084157 0.13489994
v -0.23444717 1.0183532 0.13489991
v -0.3719908 0.9393571 0.13489994
v -0.34166434 1.0432172 0.13489993
v -0.29889584 0.8020456 0.13489994
v -0.33117294 0.69524366 0.13489996
v -0.42794895 0.7227019 0.13489996
v -0.36488977 0.58714175 0.13489996
v -0.47996905 0.9697448 0.13489994
v -0.5013553 0.8589569 0.13489994
v -0.45719793 1.0839261 0.13489993
v -0.40048802 0.83236843 0.13489994
v -0.591129 0.99258846 0.13489994
v -0.5832804 1.1134548 0.13489993
v -0.70721215 0.988584 0.13489994
v -0.7147247 1.1096905 0.13489994
v -0.3074744 0.45060226 0.13489997
v -0.4350532 0.3653385 0.13489999
v -0.40114158 0.4791076 0.13489997
v -0.523844 0.39552346 0.13489999
v -0.4574456 0.61221623 0.13489996
v -0.49002376 0.50232977 0.13489997
v -0.59051484 0.4065793 0.13489999
v -0.56864995 0.5179457 0.13487652
v -0.54335564 0.63117445 0.13489899
v -0.622536 0.6419945 0.13489345
v -0.6320487 0.527502 0.13464794
v -0.6379489 0.41864312 0.13489999
v -0.5214292 0.7451504 0.13489996
v -0.6994586 0.53236634 0.1348588
v -0.69449735 0.42517316 0.13489999
v -0.7708563 0.5253869 0.13489996
v -0.7582905 0.41221306 0.13489999
v -0.84260076 0.40726143 0.13489999
v -0.6120236 0.7585011 0.13489993
v -0.7034499 0.64618516 0.13489832
v -0.6017184 0.87515235 0.13489994
v -0.7046832 0.7606806 0.13489996
v -0.7040344 0.8757956 0.13489996
v -0.8008231 0.75252163 0.13489996
v -0.8195641 0.9769873 0.13489994
v -0.8316236 1.0930278 0.13489994
v -0.8099078 0.8653857 0.13489996
v -0.8986508 0.73822296 0.13489997
v -0.78836685 0.638663 0.13489997
v -0.9285409 0.96040297 0.13489996
v -0.94276434 1.0702461 0.13489996
v -1.0355777 0.94198227 0.13489996
v -1.055083 1.0549705 0.13489994
v -1.1636124 1.0344075 0.13489996
v -0.9140393 0.8499546 0.13489996
v -0.8815551 0.626232 0.13489997
v -0.9787682 0.60918623 0.13489999
v -0.86247295 0.5153212 0.13489999
v -0.9573161 0.4991819 0.13489999
v -0.93490475 0.39192146 0.1349
v -1.0283967 0.36260578 0.1349
v -1.0532937 0.47627014 0.13489999
v -1.1301744 0.34423372 0.1349
v -1.0167682 0.83031994 0.13489996
v -1.1181405 0.8073216 0.13489997
v -0.9980032 0.719131 0.13489997
v -1.0967987 0.69695723 0.13489997
v -1.1940324 0.67259395 0.13489999
v -1.0757078 0.58729154 0.13489999
v -1.1514757 0.45527044 0.1349
v -1.2327206 0.32067478 0.13490002
v -1.1728989 0.5657715 0.13489999
v -1.2519234 0.4367307 0.13490002
v -1.348835 0.3134886 0.13490002
v -1.2722838 0.54584295 0.13489999
v -1.3528278 0.4220034 0.13490002
v -1.3760415 0.52396023 0.1349
v -1.3977084 0.62479573 0.1349
v -1.4344627 0.41218802 0.13490002
v -1.4860797 0.3319322 0.13490002
v -1.5863305 0.43394744 0.13490002
v -1.4743026 0.48792446 0.13490002
v -1.5085474 0.6018522 0.1349
v -1.6211001 0.5768711 0.1349
v -1.6565498 0.72259 0.1349
v -1.5145868 0.7171759 0.13489999
v -1.5053484 0.80078655 0.13489999
v -1.6049004 0.8609619 0.13489999
v -1.497955 0.9264224 0.13489999
v -1.4083462 0.7256419 0.13489999
v -1.3125556 0.75068235 0.13489999
v -1.4311907 0.8248822 0.13489999
v -1.340502 0.8612521 0.13489997
v -1.3815776 0.97593856 0.13489997
v -1.271764 1.0060209 0.13489996
v -1.2425297 0.89259046 0.13489996
v -1.2920316 0.64781356 0.13489999
v -1.2165337 0.78039044 0.13489999
v -1.1405476 0.9196707 0.13489997
vt 0.33906013 0.68649274
vt 0.33592227 0.68559873
vt 0.33592227 0.68559873
vt 0.33906013 0.68649274
vt 0.33592227 0.68559873
vt 0.34414634 0.68355274
vt 0.33592227 0.68559873
vt 0.34414634 0.68355274
vt 0.36036366 0.6794283
vt 0.36036366 0.6794283
vt 0.93617535 0.018617481
vt 0.9766896 0.053621083
vt 0.9766896 0.053621083
vt 0.93617535 0.018617481
vt 0.93617535 0.018617481
vt 0.93617535 0.018617481
vt 0.88208646 0.014727682
vt 0.88208646 0.014727682
vt 0.88208646 0.014727682
vt 0.8294333 0.014020294
vt 0.8294333 0.014020294
vt 0.88208646 0.014727682
vt 0.8294333 0.014020294
vt 0.78457946 0.042262048
vt 0.78457946 0.042262048
vt 0.8294333 0.014020294
vt 0.78457946 0.042262048
vt 0.769573 0.08394721
vt 0.769573 0.08394721
vt 0.78457946 0.042262048
vt 0.769573 0.08394721
vt 0.75998914 0.12190214
vt 0.75998914 0.12190214
vt 0.769573 0.08394721
vt 0.75998914 0.12190214
vt 0.7603158 0.15829945
vt 0.75998914 0.12190214
vt 0.7603159 0.15829945
vt 0.76157606 0.19354892
vt 0.76157606 0.19354892
vt 0.76136166 0.22421755
vt 0.76136166 0.22421755
vt 0.76157606 0.19354892
vt 0.76136166 0.22421755
vt 0.75545955 0.25571063
vt 0.75545955 0.25571063
vt 0.76136166 0.22421755
vt 0.75545955 0.25571063
vt 0.7548002 0.28494045
vt 0.7548002 0.28494045
vt 0.75545955 0.25571063
vt 0.7548002 0.28494045
vt 0.75241697 0.31474474
vt 0.75241697 0.31474474
vt 0.7548002 0.28494045
vt 0.75241697 0.31474474
vt 0.746562 0.33995354
vt 0.746562 0.33995354
vt 0.75241697 0.31474474
vt 0.746562 0.33995354
vt 0.73414177 0.36418197
vt 0.746562 0.33995354
vt 0.73414177 0.36418197
vt 0.71978056 0.39087397
vt 0.71978056 0.39087397
vt 0.71978056 0.39087397
vt 0.7082895 0.42010647
vt 0.7082895 0.42010647
vt 0.71978056 0.39087397
vt 0.7082895 0.42010647
vt 0.6923082 0.4451273
vt 0.6923082 0.4451273
vt 0.7082895 0.42010647
vt 0.6923082 0.4451273
vt 0.67953 0.47423396
vt 0.67953 0.47423396
vt 0.6923082 0.4451273
vt 0.67953 0.47423396
vt 0.6624746 0.50132364
vt 0.6624746 0.50132364
vt 0.67953 0.47423396
vt 0.6624746 0.50132364
vt 0.6516202 0.5285577
vt 0.6516202 0.5285577
vt 0.6624746 0.50132364
vt 0.6516202 0.5285577
vt 0.6385701 0.54967463
vt 0.6385701 0.54967463
vt 0.6516202 0.5285577
vt 0.6385701 0.54967463
vt 0.6170052 0.56490624
vt 0.6170052 0.56490624
vt 0.6385701 0.54967463
vt 0.6170052 0.56490624
vt 0.59455174 0.5846021
vt 0.59455174 0.5846021
vt 0.6170052 0.56490624
vt 0.59455174 0.5846021
vt 0.5751862 0.6050237
vt 0.5751862 0.6050237
vt 0.59455174 0.5846021
vt 0.5751862 0.6050237
vt 0.55729586 0.62059313
vt 0.55729586 0.62059313
vt 0.5751862 0.6050237
vt 0.55729586 0.62059313
vt 0.5322696 0.6247169
vt 0.5322696 0.6247169
vt 0.55729586 0.62059313
vt 0.5322696 0.6247169
vt 0.503044 0.6354309
vt 0.503044 0.6354309
vt 0.5322696 0.6247169
vt 0.503044 0.6354309
vt 0.47422972 0.6480623
vt 0.47422972 0.6480623
vt 0.503044 0.6354309
vt 0.47422972 0.6480623
vt 0.44437084 0.65917265
vt 0.44437084 0.65917265
vt 0.47422972 0.6480623
vt 0.44437084 0.65917265
vt 0.41351482 0.66532826
vt 0.41351482 0.66532826
vt 0.44437084 0.65917265
vt 0.41351482 0.66532826
vt 0.3831579 0.6756482
vt 0.3831579 0.6756482
vt 0.41351482 0.66532826
vt 0.3831579 0.6756482
vt 0.36036366 0.6794283
vt 0.36036366 0.6794283
vt 0.3831579 0.6756482
vt 0.30300242 0.6813543
vt 0.30300242 0.6813543
vt 0.2741774 0.6796614
vt 0.2741774 0.6796614
vt 0.30300242 0.6813543
vt 0.32481286 0.68578535
vt 0.32481286 0.68578535
vt 0.30300242 0.6813543
vt 0.32481286 0.68578535
vt 0.32481286 0.68578535
vt 0.33906013 0.68649274
vt 0.33906013 0.68649274
vt 0.2741774 0.6796614
vt 0.2426194 0.67441666
vt 0.24261934 0.67441666
vt 0.2741774 0.6796614
vt 0.2426194 0.67441666
vt 0.21065521 0.6643941
vt 0.21065521 0.6643941
vt 0.24261934 0.67441666
vt 0.21065521 0.6643941
vt 0.17585811 0.6581127
vt 0.21065521 0.6643941
vt 0.17585811 0.6581127
vt 0.14079836 0.65005815
vt 0.14079836 0.65005815
vt 0.14079836 0.65005815
vt 0.10109976 0.64760107
vt 0.10109976 0.64760107
vt 0.14079836 0.65005815
vt 0.10109976 0.64760107
vt 0.054176778 0.65390676
vt 0.054176778 0.65390676
vt 0.10109976 0.64760107
vt 0.054176778 0.65390676
vt 0.019901752 0.6887851
vt 0.019901752 0.6887851
vt 0.054176778 0.65390676
vt 0.019901752 0.6887851
vt 0.0080142915 0.73764956
vt 0.019901752 0.6887851
vt 0.0080142915 0.73764956
vt -0.0041056275 0.78747
vt -0.0041056275 0.78747
vt -0.0041056275 0.78747
vt 0.013552904 0.8347782
vt 0.013552904 0.8347782
vt -0.0041056275 0.78747
vt 0.050116718 0.8571586
vt 0.050116718 0.8571586
vt 0.013552904 0.8347782
vt 0.013552904 0.8347782
vt 0.050116718 0.8571586
vt 0.08990526 0.87408775
vt 0.08990526 0.87408775
vt 0.050116718 0.8571586
vt 0.08990526 0.87408775
vt 0.12744972 0.88437283
vt 0.08990526 0.87408775
vt 0.12744972 0.88437283
vt 0.164426 0.8940779
vt 0.164426 0.8940779
vt 0.164426 0.8940779
vt 0.20153132 0.9011082
vt 0.20153132 0.9011082
vt 0.164426 0.8940779
vt 0.20153132 0.9011082
vt 0.23993221 0.9063308
vt 0.23993221 0.9063308
vt 0.20153132 0.9011082
vt 0.23993221 0.9063308
vt 0.2779304 0.9141197
vt 0.2779304 0.9141197
vt 0.23993221 0.9063308
vt 0.2779304 0.9141197
vt 0.31789726 0.9198166
vt 0.31789726 0.9198166
vt 0.2779304 0.9141197
vt 0.31789726 0.9198166
vt 0.36283708 0.9211037
vt 0.36283708 0.9211037
vt 0.31789726 0.9198166
vt 0.36283708 0.9211037
vt 0.4059437 0.911008
vt 0.4059437 0.911008
vt 0.36283708 0.9211037
vt 0.4059437 0.911008
vt 0.4454438 0.89708984
vt 0.4454438 0.89708984
vt 0.4059437 0.911008
vt 0.4454438 0.89708984
vt 0.48210058 0.8885891
vt 0.48210058 0.8885891
vt 0.4454438 0.89708984
vt 0.48210058 0.8885891
vt 0.517595 0.8746244
vt 0.517595 0.8746244
vt 0.48210058 0.8885891
vt 0.517595 0.8746244
vt 0.5548498 0.8640297
vt 0.517595 0.8746244
vt 0.5548498 0.8640297
vt 0.5947348 0.85362685
vt 0.5947348 0.85362685
vt 0.5947348 0.85362685
vt 0.6351638 0.8351178
vt 0.5947348 0.85362685
vt 0.6351638 0.8351178
vt 0.6784064 0.81705153
vt 0.6784064 0.81705153
vt 0.6784064 0.81705153
vt 0.7134389 0.78652185
vt 0.7134389 0.78652185
vt 0.6784064 0.81705153
vt 0.7134389 0.78652185
vt 0.74849427 0.7600213
vt 0.74849427 0.7600213
vt 0.7134389 0.78652185
vt 0.74849427 0.7600213
vt 0.7805247 0.7297368
vt 0.74849427 0.7600213
vt 0.7805247 0.7297368
vt 0.81405485 0.6997014
vt 0.81405485 0.6997014
vt 0.81405485 0.6997014
vt 0.8398336 0.66150606
vt 0.8398336 0.66150606
vt 0.81405485 0.6997014
vt 0.8398336 0.66150606
vt 0.85923135 0.6237389
vt 0.8398336 0.66150606
vt 0.85923135 0.6237389
vt 0.8793738 0.58737236
vt 0.8793738 0.58737236
vt 0.89864 0.5535419
vt 0.89864 0.5535419
vt 0.89864 0.5535419
vt 0.91440153 0.5195717
vt 0.91440153 0.5195717
vt 0.89864 0.5535419
vt 0.91440153 0.5195717
vt 0.9335345 0.48400524
vt 0.91440153 0.5195717
vt 0.9335345 0.48400524
vt 0.9516519 0.4467204
vt 0.9516519 0.4467204
vt 0.9723612 0.40658844
vt 0.9723612 0.40658844
vt 0.9723612 0.40658844
vt 0.9782884 0.3621183
vt 0.9782884 0.3621183
vt 0.9723612 0.40658844
vt 0.9782884 0.3621183
vt 0.9859774 0.32025766
vt 0.9782884 0.3621183
vt 0.9859774 0.32025766
vt 0.99129856 0.28204
vt 0.99129856 0.28204
vt 0.99129856 0.28204
vt 0.9915262 0.24149483
vt 0.99129856 0.28204
vt 0.9915262 0.24149483
vt 0.99103427 0.20458484
vt 0.99103427 0.20458484
vt 0.99103427 0.20458484
vt 0.9955112 0.16708618
vt 0.9955112 0.16708618
vt 0.99103427 0.20458484
vt 0.9955112 0.16708618
vt 0.9960263 0.1300804
vt 0.9960263 0.1300804
vt 0.9955112 0.16708618
vt 0.9960263 0.1300804
vt 0.98919153 0.09151399
vt 0.98919153 0.09151399
vt 0.9960263 0.1300804
vt 0.98919153 0.09151399
vt 0.9766896 0.053621083
vt 0.9766896 0.053621083
vt 0.98919153 0.09151399
vt 0.33592227 0.68559873
vt 0.33906013 0.68649274
vt 0.32481286 0.68578535
vt 0.34414634 0.68355274
vt 0.5798968 0.81699353
vt 0.5947348 0.85362685
vt 0.6351638 0.8351178
vt 0.5548498 0.8640297
vt 0.54263574 0.82883227
vt 0.56500673 0.7817017
vt 0.517595 0.8746244
vt 0.6183544 0.8016374
vt 0.6562826 0.78212893
vt 0.6357003 0.7496186
vt 0.6784064 0.81705153
vt 0.7134389 0.78652185
vt 0.6906834 0.75704193
vt 0.6007375 0.76778626
vt 0.5827036 0.73373616
vt 0.72309196 0.73062265
vt 0.69801587 0.7018465
vt 0.74849427 0.7600213
vt 0.7805247 0.7297368
vt 0.75350463 0.7028272
vt 0.6678487 0.7267164
vt 0.6450307 0.69595623
vt 0.61524224 0.71700615
vt 0.78269064 0.6728143
vt 0.75294733 0.6475811
vt 0.81405485 0.6997014
vt 0.8398336 0.66150606
vt 0.80710435 0.6393995
vt 0.72630936 0.6758331
vt 0.6987727 0.6488776
vt 0.5947552 0.6844477
vt 0.8277656 0.6043927
vt 0.79563504 0.5843197
vt 0.85923135 0.6237389
vt 0.8793738 0.58737236
vt 0.8464284 0.57028204
vt 0.6727203 0.67290944
vt 0.6471839 0.6437031
vt 0.77564394 0.6170403
vt 0.7446333 0.59406126
vt 0.86420697 0.5365934
vt 0.830688 0.51944983
vt 0.89864 0.5535419
vt 0.91440153 0.5195717
vt 0.88159955 0.5028469
vt 0.6220775 0.6650461
vt 0.7232611 0.6226845
vt 0.69382524 0.5978615
vt 0.8135015 0.55197513
vt 0.78034353 0.5328893
vt 0.6710786 0.62177896
vt 0.76333 0.56353056
vt 0.7307615 0.5424038
vt 0.7136937 0.57109135
vt 0.6436803 0.59404904
vt 0.6648699 0.57303417
vt 0.6824525 0.5488419
vt 0.6975016 0.521627
vt 0.6212629 0.61433935
vt 0.59874713 0.6344587
vt 0.6385701 0.54967463
vt 0.6516202 0.5285577
vt 0.6170052 0.56490624
vt 0.59455174 0.5846021
vt 0.5751862 0.6050237
vt 0.6624746 0.50132364
vt 0.55729586 0.62059313
vt 0.71286756 0.4937003
vt 0.67953 0.47423396
vt 0.5747392 0.6517372
vt 0.5322696 0.6247169
vt 0.74680537 0.513405
vt 0.72828746 0.46519232
vt 0.6923082 0.4451273
vt 0.56462395 0.69910616
vt 0.547512 0.6632211
vt 0.503044 0.6354309
vt 0.76286983 0.4838406
vt 0.74342203 0.4366881
vt 0.7082895 0.42010647
vt 0.53357685 0.7100897
vt 0.5181 0.6731709
vt 0.47422972 0.6480623
vt 0.75719094 0.40781763
vt 0.71978056 0.39087397
vt 0.48799163 0.68388015
vt 0.44437084 0.65917265
vt 0.77866584 0.45361462
vt 0.81342757 0.47020638
vt 0.77057993 0.379431
vt 0.73414177 0.36418197
vt 0.7933639 0.42348453
vt 0.78183717 0.35111845
vt 0.746562 0.33995354
vt 0.50210583 0.720644
vt 0.51611626 0.7571066
vt 0.4699543 0.73116577
vt 0.7969805 0.5018468
vt 0.8071439 0.39324555
vt 0.8437563 0.406219
vt 0.818699 0.3622148
vt 0.5493826 0.7461894
vt 0.84776807 0.48649848
vt 0.86441576 0.45346764
vt 0.8291187 0.4385463
vt 0.7892339 0.32171282
vt 0.75241697 0.31474474
vt 0.79349077 0.29080802
vt 0.7548002 0.28494045
vt 0.8991653 0.46857253
vt 0.9335345 0.48400524
vt 0.9516519 0.4467204
vt 0.91621554 0.43257916
vt 0.8802174 0.41911057
vt 0.89331913 0.3837657
vt 0.9310818 0.39456162
vt 0.9723612 0.40658844
vt 0.9782884 0.3621183
vt 0.940096 0.3547076
vt 0.85586613 0.3730128
vt 0.8642703 0.33848572
vt 0.9459137 0.3151149
vt 0.9075885 0.30944115
vt 0.9859774 0.32025766
vt 0.99129856 0.28204
vt 0.9020742 0.34690243
vt 0.95010626 0.2767067
vt 0.82669735 0.32988855
vt 0.83165383 0.29689512
vt 0.95242226 0.23908137
vt 0.91364086 0.23600736
vt 0.9915262 0.24149483
vt 0.99103427 0.20458484
vt 0.9534873 0.20211965
vt 0.9955112 0.16708618
vt 0.8695831 0.30323124
vt 0.8731207 0.26770186
vt 0.9113842 0.2721818
vt 0.79638207 0.25914562
vt 0.75545955 0.25571063
vt 0.8349245 0.26324844
vt 0.798923 0.22673036
vt 0.76136166 0.22421755
vt 0.8370848 0.2295413
vt 0.7996613 0.1935584
vt 0.76157606 0.19354892
vt 0.79940456 0.1594126
vt 0.7603158 0.15829945
vt 0.8752551 0.23270074
vt 0.87616795 0.19732693
vt 0.8379706 0.19506773
vt 0.80040145 0.12446275
vt 0.8389048 0.1266639
vt 0.75998914 0.12190214
vt 0.769573 0.08394721
vt 0.8380978 0.16088906
vt 0.8043252 0.0895133
vt 0.80911 0.06169355
vt 0.78457946 0.042262048
vt 0.8294333 0.014020294
vt 0.8407337 0.091309875
vt 0.87712014 0.092776865
vt 0.83891547 0.05490604
vt 0.88208646 0.014727682
vt 0.8799068 0.053165793
vt 0.93617535 0.018617481
vt 0.87619996 0.16269943
vt 0.91947746 0.060287625
vt 0.9468709 0.07104945
vt 0.9766896 0.053621083
vt 0.98919153 0.09151399
vt 0.91288036 0.09639609
vt 0.94892657 0.096945316
vt 0.9960263 0.1300804
vt 0.8760457 0.12862438
vt 0.91359603 0.13026595
vt 0.9533179 0.13076165
vt 0.91471404 0.16450927
vt 0.95439965 0.16601399
vt 0.9146234 0.19972712
vt 0.5297483 0.7931355
vt 0.49477217 0.80397964
vt 0.48254618 0.7677544
vt 0.50654024 0.8398211
vt 0.4709496 0.85100234
vt 0.48210058 0.8885891
vt 0.43507543 0.86158097
vt 0.4454438 0.89708984
vt 0.460066 0.81463504
vt 0.4490307 0.7781203
vt 0.41594374 0.78750813
vt 0.43750316 0.7411611
vt 0.39815846 0.8719702
vt 0.3908466 0.83409274
vt 0.4059437 0.911008
vt 0.4253324 0.8250023
vt 0.36015368 0.8797803
vt 0.36283708 0.9211037
vt 0.32046574 0.8784113
vt 0.31789726 0.9198166
vt 0.45713308 0.69447935
vt 0.41351482 0.66532826
vt 0.42510897 0.7042251
vt 0.3831579 0.6756482
vt 0.40585902 0.7497339
vt 0.3947208 0.71216446
vt 0.36036366 0.6794283
vt 0.3678391 0.7175035
vt 0.37648705 0.7562156
vt 0.34941584 0.75991493
vt 0.3461636 0.7207707
vt 0.34414634 0.68355274
vt 0.3839835 0.79518306
vt 0.3231166 0.7224338
vt 0.32481286 0.68578535
vt 0.2987063 0.7200476
vt 0.30300242 0.6813543
vt 0.2741774 0.6796614
vt 0.35301 0.79974765
vt 0.321752 0.76134753
vt 0.35653323 0.8396297
vt 0.32133037 0.8004929
vt 0.3215522 0.8398496
vt 0.28846085 0.7977032
vt 0.2820534 0.8744465
vt 0.2779304 0.9141197
vt 0.28535485 0.8362906
vt 0.25501424 0.7928146
vt 0.29271954 0.75877583
vt 0.24479511 0.86877644
vt 0.23993221 0.9063308
vt 0.20820001 0.8624785
vt 0.20153132 0.9011082
vt 0.164426 0.8940779
vt 0.24975309 0.8310149
vt 0.2608592 0.7545258
vt 0.22762272 0.748698
vt 0.26738322 0.71660626
vt 0.23495707 0.71108836
vt 0.24261934 0.67441666
vt 0.21065521 0.6643941
vt 0.20214301 0.70325506
vt 0.17585811 0.6581127
vt 0.21463087 0.82430196
vt 0.17997247 0.8164389
vt 0.22104642 0.7862873
vt 0.18726909 0.7787063
vt 0.15402552 0.77037656
vt 0.19447985 0.74121237
vt 0.1685754 0.6960754
vt 0.14079836 0.65005815
vt 0.16125095 0.7338549
vt 0.13423303 0.6897367
vt 0.10109976 0.64760107
vt 0.12727198 0.72704124
vt 0.099734664 0.6847015
vt 0.0917981 0.7195599
vt 0.08439025 0.75403476
vt 0.07182425 0.6813457
vt 0.054176778 0.65390676
vt 0.019901752 0.6887851
vt 0.05820328 0.70723945
vt 0.0464952 0.74619055
vt 0.0080142915 0.73764956
vt -0.0041056275 0.78747
vt 0.044430435 0.78561884
vt 0.047588944 0.8142047
vt 0.013552904 0.8347782
vt 0.050116718 0.8571586
vt 0.08075318 0.7885133
vt 0.11350337 0.7970745
vt 0.07294288 0.8224429
vt 0.10394871 0.8348774
vt 0.08990526 0.87408775
vt 0.12744972 0.88437283
vt 0.13744465 0.84559166
vt 0.12052035 0.7619045
vt 0.14633247 0.8072313
vt 0.1723116 0.8548504
vn -0.2739548 0.9617425 0
vn -0.2739548 0.9617425 0
vn -0.2739548 0.9617425 0
vn -0.2739548 0.9617425 0
vn -0.24143757 -0.97041637 0
vn -0.24143757 -0.97041637 0
vn -0.24143757 -0.97041637 0
vn -0.24143757 -0.97041637 0
vn -0.24648152 -0.96914744 0
vn -0.24648152 -0.96914744 0
vn 0.65377027 -0.756693 0
vn 0.65377027 -0.756693 0
vn 0.65377027 -0.756693 0
vn 0.65377027 -0.756693 0
vn 0.071728766 -0.9974241 0
vn 0.071728766 -0.9974241 0
vn 0.071728766 -0.9974241 0
vn 0.071728766 -0.9974241 0
vn 0.013435 -0.99990976 7.306802E-07
vn 0.013435 -0.99990976 7.306802E-07
vn 0.013435 -0.99990976 7.306802E-07
vn 0.013435 -0.99990976 7.306802E-07
vn -0.53282136 -0.8462278 1.9251493E-06
vn -0.53282136 -0.8462278 1.9251493E-06
vn -0.53282136 -0.8462278 1.9251493E-06
vn -0.53282136 -0.8462278 1.9251493E-06
vn -0.94088805 -0.3387176 0
vn -0.94088805 -0.3387176 0
vn -0.94088805 -0.3387176 0
vn -0.94088805 -0.3387176 0
vn -0.9695687 -0.24481928 0
vn -0.9695687 -0.24481928 0
vn -0.9695687 -0.24481928 0
vn -0.9695687 -0.24481928 0
vn -0.9999598 0.00897166 -4.8036685E-07
vn -0.9999598 0.00897166 -4.8036685E-07
vn -0.9999598 0.00897166 -4.8036685E-07
vn -0.9999598 0.00897166 -4.8036685E-07
vn -0.99936146 0.035730153 -4.520287E-07
vn -0.99936146 0.035730153 -4.520287E-07
vn -0.99997556 -0.006988277 0
vn -0.99997556 -0.006988277 0
vn -0.99997556 -0.006988277 0
vn -0.9828876 -0.18420596 -4.7023065E-07
vn -0.9828876 -0.18420596 -4.7023065E-07
vn -0.9828876 -0.18420596 -4.7023065E-07
vn -0.9828876 -0.18420596 -4.7023065E-07
vn -0.9997458 -0.022545656 0
vn -0.9997458 -0.022545656 0
vn -0.9997458 -0.022545656 0
vn -0.9997458 -0.022545656 0
vn -0.9968176 -0.079715475 5.332538E-07
vn -0.9968176 -0.079715475 5.332538E-07
vn -0.9968176 -0.079715475 5.332538E-07
vn -0.9968176 -0.079715475 5.332538E-07
vn -0.9740728 -0.22623481 4.1463548E-07
vn -0.9740728 -0.22623481 4.1463548E-07
vn -0.9740728 -0.22623481 4.1463548E-07
vn -0.9740728 -0.22623481 4.1463548E-07
vn -0.8898875 -0.45618016 4.6848587E-07
vn -0.8898875 -0.45618016 4.6848587E-07
vn -0.8898875 -0.45618016 4.6848587E-07
vn -0.8898875 -0.45618016 4.6848587E-07
vn -0.8806276 -0.4738092 0
vn -0.8806276 -0.4738092 0
vn -0.93067694 -0.3658422 0
vn -0.93067694 -0.3658422 0
vn -0.93067694 -0.3658422 0
vn -0.93067694 -0.3658422 0
vn -0.8427593 -0.5382905 0
vn -0.8427593 -0.5382905 0
vn -0.8427593 -0.5382905 0
vn -0.8427593 -0.5382905 0
vn -0.91564894 -0.40197867 0
vn -0.91564894 -0.40197867 0
vn -0.91564894 -0.40197867 0
vn -0.91564894 -0.40197867 0
vn -0.84624815 -0.5327891 0
vn -0.84624815 -0.5327891 0
vn -0.84624815 -0.5327891 0
vn -0.84624815 -0.5327891 0
vn -0.92893785 -0.37023574 -1.6315177E-07
vn -0.92893785 -0.37023574 -1.6315177E-07
vn -0.92893785 -0.37023574 -1.6315177E-07
vn -0.92893785 -0.37023574 -1.6315177E-07
vn -0.85066783 -0.5257036 0
vn -0.85066783 -0.5257036 0
vn -0.85066783 -0.5257036 0
vn -0.85066783 -0.5257036 0
vn -0.57691735 -0.81680256 0
vn -0.57691735 -0.81680256 0
vn -0.57691735 -0.81680256 0
vn -0.57691735 -0.81680256 0
vn -0.6594357 -0.75176096 0
vn -0.6594357 -0.75176096 0
vn -0.6594357 -0.75176096 0
vn -0.6594357 -0.75176096 0
vn -0.7256177 -0.688098 0
vn -0.7256177 -0.688098 0
vn -0.7256177 -0.688098 0
vn -0.7256177 -0.688098 0
vn -0.65648097 -0.75434256 2.5039756E-07
vn -0.65648097 -0.75434256 2.5039756E-07
vn -0.65648097 -0.75434256 2.5039756E-07
vn -0.65648097 -0.75434256 2.5039756E-07
vn -0.16258687 -0.9866942 5.0289117E-07
vn -0.16258687 -0.9866942 5.0289117E-07
vn -0.16258687 -0.9866942 5.0289117E-07
vn -0.16258687 -0.9866942 5.0289117E-07
vn -0.3441936 -0.9388987 0
vn -0.3441936 -0.9388987 0
vn -0.3441936 -0.9388987 0
vn -0.3441936 -0.9388987 0
vn -0.40148953 -0.9158636 0
vn -0.40148953 -0.9158636 0
vn -0.40148953 -0.9158636 0
vn -0.40148953 -0.9158636 0
vn -0.34874108 -0.93721914 -1.6014534E-06
vn -0.34874108 -0.93721914 -1.6014534E-06
vn -0.34874108 -0.93721914 -1.6014534E-06
vn -0.34874108 -0.93721914 -1.6014534E-06
vn -0.19563589 -0.98067653 0
vn -0.19563589 -0.98067653 0
vn -0.19563589 -0.98067653 0
vn -0.19563589 -0.98067653 0
vn -0.32186514 -0.94678557 0
vn -0.32186514 -0.94678557 0
vn -0.32186514 -0.94678557 0
vn -0.32186514 -0.94678557 0
vn -0.16359308 -0.986528 0
vn -0.16359308 -0.986528 0
vn -0.16359308 -0.986528 0
vn -0.16359308 -0.986528 0
vn 0.05862994 -0.9982798 0
vn 0.05862994 -0.9982798 0
vn 0.05862994 -0.9982798 0
vn 0.05862994 -0.9982798 0
vn 0.19909157 -0.9799809 0
vn 0.19909157 -0.9799809 0
vn 0.19909157 -0.9799809 0
vn 0.19909157 -0.9799809 0
vn 0.04958801 -0.9987697 0
vn 0.04958801 -0.9987697 0
vn 0.04958801 -0.9987697 0
vn 0.04958801 -0.9987697 0
vn 0.16394101 -0.98647016 -4.7532652E-07
vn 0.16394101 -0.98647016 -4.7532652E-07
vn 0.16394101 -0.98647016 -4.7532652E-07
vn 0.16394101 -0.98647016 -4.7532652E-07
vn 0.29919958 -0.95419055 7.6153026E-07
vn 0.29919958 -0.95419055 7.6153026E-07
vn 0.29919958 -0.95419055 7.6153026E-07
vn 0.29919958 -0.95419055 7.6153026E-07
vn 0.1776405 -0.98409545 0
vn 0.1776405 -0.98409545 0
vn 0.1776405 -0.98409545 0
vn 0.1776405 -0.98409545 0
vn 0.2239069 -0.9746105 0
vn 0.2239069 -0.9746105 0
vn 0.061770525 -0.9980903 0
vn 0.061770525 -0.9980903 0
vn 0.061770525 -0.9980903 0
vn 0.061770525 -0.9980903 0
vn -0.1331872 -0.9910909 0
vn -0.1331872 -0.9910909 0
vn -0.1331872 -0.9910909 0
vn -0.1331872 -0.9910909 0
vn -0.7132482 -0.7009115 0
vn -0.7132482 -0.7009115 0
vn -0.7132482 -0.7009115 0
vn -0.7132482 -0.7009115 0
vn -0.9716608 -0.2363796 -2.536338E-07
vn -0.9716608 -0.2363796 -2.536338E-07
vn -0.9716608 -0.2363796 -2.536338E-07
vn -0.9716608 -0.2363796 -2.536338E-07
vn -0.97166044 -0.23638088 -2.4876857E-07
vn -0.97166044 -0.23638088 -2.4876857E-07
vn -0.9368623 0.34969836 1.0103793E-06
vn -0.9368623 0.34969836 1.0103793E-06
vn -0.9368623 0.34969836 1.0103793E-06
vn -0.9368623 0.34969836 1.0103793E-06
vn -0.5220593 0.85290915 1.1901391E-06
vn -0.5220593 0.85290915 1.1901391E-06
vn -0.5220593 0.85290915 1.1901391E-06
vn -0.5220593 0.85290915 1.1901391E-06
vn -0.39151376 0.9201723 0
vn -0.39151376 0.9201723 0
vn -0.39151376 0.9201723 0
vn -0.39151376 0.9201723 0
vn -0.2642067 0.964466 0
vn -0.2642067 0.964466 0
vn -0.2642067 0.964466 0
vn -0.2642067 0.964466 0
vn -0.25387055 0.96723825 1.4279148E-06
vn -0.25387055 0.96723825 1.4279148E-06
vn -0.18615794 0.98251987 -1.6037981E-06
vn -0.18615794 0.98251987 -1.6037981E-06
vn -0.18615794 0.98251987 -1.6037981E-06
vn -0.18615794 0.98251987 -1.6037981E-06
vn -0.13476151 0.99087805 0
vn -0.13476151 0.99087805 0
vn -0.13476151 0.99087805 0
vn -0.13476151 0.99087805 0
vn -0.20080584 0.97963107 0
vn -0.20080584 0.97963107 0
vn -0.20080584 0.97963107 0
vn -0.20080584 0.97963107 0
vn -0.1411132 0.9899935 0
vn -0.1411132 0.9899935 0
vn -0.1411132 0.9899935 0
vn -0.1411132 0.9899935 0
vn -0.028626287 0.9995902 0
vn -0.028626287 0.9995902 0
vn -0.028626287 0.9995902 0
vn -0.028626287 0.9995902 0
vn 0.22803202 0.9736536 0
vn 0.22803202 0.9736536 0
vn 0.22803202 0.9736536 0
vn 0.22803202 0.9736536 0
vn 0.33232903 0.94316345 0
vn 0.33232903 0.94316345 0
vn 0.33232903 0.94316345 0
vn 0.33232903 0.94316345 0
vn 0.22590722 0.9741488 0
vn 0.22590722 0.9741488 0
vn 0.22590722 0.9741488 0
vn 0.22590722 0.9741488 0
vn 0.3661169 0.9305688 0
vn 0.3661169 0.9305688 0
vn 0.3661169 0.9305688 0
vn 0.3661169 0.9305688 0
vn 0.27354008 0.96186066 0
vn 0.27354008 0.96186066 0
vn 0.27354008 0.96186066 0
vn 0.27354008 0.96186066 0
vn 0.25237635 0.9676292 0
vn 0.25237635 0.9676292 0
vn 0.41626552 0.9092431 0
vn 0.41626552 0.9092431 0
vn 0.41626552 0.9092431 0
vn 0.41626552 0.9092431 0
vn 0.3854981 0.92270863 0
vn 0.3854981 0.92270863 0
vn 0.6569922 0.75389737 -1.0979577E-06
vn 0.6569922 0.75389737 -1.0979577E-06
vn 0.6569922 0.75389737 -1.0979577E-06
vn 0.6569922 0.75389737 -1.0979577E-06
vn 0.603041 0.7977103 0
vn 0.603041 0.7977103 0
vn 0.603041 0.7977103 0
vn 0.603041 0.7977103 0
vn 0.68702745 0.7266314 1.1574434E-06
vn 0.68702745 0.7266314 1.1574434E-06
vn 0.68702745 0.7266314 1.1574434E-06
vn 0.68702745 0.7266314 1.1574434E-06
vn 0.66722196 0.744859 -5.667011E-07
vn 0.66722196 0.744859 -5.667011E-07
vn 0.82887954 0.5594273 -6.344415E-07
vn 0.82887954 0.5594273 -6.344415E-07
vn 0.82887954 0.5594273 -6.344415E-07
vn 0.82887954 0.5594273 -6.344415E-07
vn 0.8895301 0.45687655 -9.0126866E-07
vn 0.8895301 0.45687655 -9.0126866E-07
vn 0.8895301 0.45687655 -9.0126866E-07
vn 0.8895301 0.45687655 -9.0126866E-07
vn 0.8747816 0.48451746 0
vn 0.8747816 0.48451746 0
vn 0.8689678 0.49486873 0
vn 0.8689678 0.49486873 0
vn 0.90711445 0.420884 0
vn 0.90711445 0.420884 0
vn 0.90711445 0.420884 0
vn 0.90711445 0.420884 0
vn 0.8806597 0.47374925 0
vn 0.8806597 0.47374925 0
vn 0.8806597 0.47374925 0
vn 0.8806597 0.47374925 0
vn 0.8994352 0.4370541 0
vn 0.8994352 0.4370541 0
vn 0.88865685 0.45857272 0
vn 0.88865685 0.45857272 0
vn 0.9912339 0.13211907 0
vn 0.9912339 0.13211907 0
vn 0.9912339 0.13211907 0
vn 0.9912339 0.13211907 0
vn 0.98354626 0.18065654 0
vn 0.98354626 0.18065654 0
vn 0.98354626 0.18065654 0
vn 0.98354626 0.18065654 0
vn 0.9904461 0.13790075 0
vn 0.9904461 0.13790075 0
vn 0.99998426 0.0056159906 0
vn 0.99998426 0.0056159906 0
vn 0.99998426 0.0056159906 0
vn 0.99998426 0.0056159906 0
vn 0.9999112 -0.013332498 0
vn 0.9999112 -0.013332498 0
vn 0.9929482 0.118549496 0
vn 0.9929482 0.118549496 0
vn 0.9929482 0.118549496 0
vn 0.9929482 0.118549496 0
vn 0.9999031 0.0139223505 0
vn 0.9999031 0.0139223505 0
vn 0.9999031 0.0139223505 0
vn 0.9999031 0.0139223505 0
vn 0.9846565 -0.17450368 -5.3747726E-07
vn 0.9846565 -0.17450368 -5.3747726E-07
vn 0.9846565 -0.17450368 -5.3747726E-07
vn 0.9846565 -0.17450368 -5.3747726E-07
vn 0.9496489 -0.31331572 -6.3932583E-07
vn 0.9496489 -0.31331572 -6.3932583E-07
vn 0.9496489 -0.31331572 -6.3932583E-07
vn 0.9496489 -0.31331572 -6.3932583E-07
vn -1.7575731E-07 0 -1
vn -1.7575731E-07 0 -1
vn -1.7575731E-07 0 -1
vn -1.7575731E-07 0 -1
vn -0 0 1
vn -0 1.1870114E-07 1
vn 1.570004E-07 1.1675567E-07 1
vn -0 0 1
vn -0 0 1
vn -0 0 1
vn -0 0 1
vn -0 0 1
vn -0 0 1
vn -0 0 1
vn -0 1.2483689E-07 1
vn 1.3372079E-07 0 1
vn -0 0 1
vn -0 0 1
vn -0 0 1
vn -0 0 1
vn -0 0 1
vn -0 0 1
vn -0 0 1
vn -0 0 1
vn -0 0 1
vn -0 0 1
vn -0 0 1
vn -0 0 1
vn -0 0 1
vn -0 0 1
vn -0 0 1
vn -0 0 1
vn -0 0 1
vn -0 0 1
vn 1.0456691E-07 0 1
vn -0 0 1
vn -0 0 1
vn -0 0 1
vn -0 0 1
vn -0 0 1
vn -0 0 1
vn -0 0 1
vn -0 0 1
vn -0 0 1
vn -0 0 1
vn -0 0 1
vn -0 0 1
vn -0 0 1
vn -0 0 1
vn -0 0 1
vn -0 0 1
vn -0 0 1
vn -0 0 1
vn 1.1568845E-07 0 1
vn -0 0 1
vn -0 0 1
vn -0 0 1
vn -0 0 1
vn -0 0 1
vn -0 0 1
vn -0 0 1
vn -0 0 1
vn -0 0 1
vn -0 1.159331E-07 1
vn -0 0 1
vn -0 0 1
vn -0 0 1
vn -0 0 1
vn -0 1.3309769E-07 1
vn -0 0 1
vn -0 1.0990202E-07 1
vn -0 0 1
vn -0 0 1
vn -0 0 1
vn -0 0 1
vn -0 0 1
vn -0 0 1
vn -0 0 1
vn -0 0 1
vn -0 0 1
vn -0 0 1
vn -0 0 1
vn -0 0 1
vn -0 0 1
vn -0 0 1
vn -0 0 1
vn -0 0 1
vn -0 0 1
vn -0 0 1
vn -0 0 1
vn -0 0 1
vn -0 1.1037281E-07 1
vn -0 1.13186964E-07 1
vn -0 0 1
vn -0 0 1
vn -0 1.1657126E-07 1
vn -0 0 1
vn -0 0 1
vn -0 0 1
vn -0 0 1
vn -0 0 1
vn -0 0 1
vn -0 0 1
vn -0 0 1
vn -0 0 1
vn -0 0 1
vn -0 0 1
vn -0 0 1
vn -0 1.0503074E-07 1
vn -0 0 1
vn -0 0 1
vn -0 0 1
vn -0 0 1
vn -0 0 1
vn 1.1861698E-07 0 1
vn -0 0 1
vn -0 0 1
vn 1.1298359E-07 0 1
vn -0 0 1
vn -0 0 1
vn -0 0 1
vn -0 0 1
vn -0 0 1
vn -0 0 1
vn -0 0 1
vn -0 0 1
vn -0 0 1
vn -0 0 1
vn -0 0 1
vn -0 0 1
vn -0 0 1
vn -0 0 1
vn -0 0 1
vn -0 0 1
vn -0 0 1
vn -0 0 1
vn -0 0 1
vn -0 0 1
vn -0 0 1
vn -0 0 1
vn -0 0 1
vn -0 0 1
vn -0 0 1
vn -0 0 1
vn -0 0 1
vn -0 0 1
vn -0 0 1
vn -0 0 1
vn -0 0 1
vn -0 0 1
vn -0 0 1
vn -0 0 1
vn -0 0 1
vn -0 0 1
vn -0 0 1
vn -0 0 1
vn -0 0 1
vn -0 0 1
vn -0 0 1
vn -0 0 1
vn -0 0 1
vn -0 0 1
vn -0 0 1
vn -0 1.0336248E-07 1
vn -0 0 1
vn -0 0 1
vn -0 0 1
vn -0 1.2342144E-07 1
vn -0 0 1
vn -0 0 1
vn -0 0 1
vn -0 0 1
vn -0 0 1
vn -0 0 1
vn -0 0 1
vn -0 0 1
vn -0 0 1
vn -0 0 1
vn -0 0 1
vn -0 0 1
vn -0 0 1
vn -0 0 1
vn -0 0 1
vn -0 0 1
vn -0 0 1
vn -0 0 1
vn -0 0 1
vn -0 0 1
vn -0 0 1
vn -0 1.2315546E-07 1
vn -0 0 1
vn -0 0 1
vn 1.13771335E-07 0 1
vn -0 0 1
vn -1.4480185E-06 -6.5965435E-07 1
vn -0 0 1
vn -0 0 1
vn -0 0 1
vn -0 0 1
vn -0 0 1
vn -0 0 1
vn -0 0 1
vn -0 0 1
vn -0 0 1
vn -0 0 1
vn -0 0 1
vn -0 0 1
vn -7.005919E-05 7.370156E-05 1
vn -3.9905353E-05 -1.478359E-05 1
vn -7.397887E-05 1.7471613E-05 1
vn -0.00094806 0.00080285314 0.9999993
vn -0.0009672347 0.00014264633 0.9999995
vn -0.0004705174 -0.00023691682 0.9999999
vn -9.329351E-05 -0.0005492204 0.9999999
vn -7.0563474E-05 0.00012868649 1
vn -0.00011541351 0.0014169425 0.99999905
vn -1.0425546E-05 -7.2678868E-06 1
vn 0.0009303356 -1.8016655E-05 0.99999964
vn 0.001050857 0.000780245 0.99999917
vn 0.00014237655 1.3804619E-05 1
vn 0.00013521673 0.00010322726 1
vn -0 1.8948677E-07 1
vn -2.3924347E-06 -1.5230572E-05 1
vn 0.00040409283 -0.00034935537 0.9999999
vn -0 0 1
vn 8.973568E-06 -1.0429471E-05 1
vn -0 0 1
vn 2.4690737E-06 -1.5579142E-06 1
vn -0 0 1
vn -0 0 1
vn -0 0 1
vn -0 0 1
vn 7.143113E-05 -3.6864385E-05 1
vn -0 0 1
vn -0 0 1
vn -0 0 1
vn -0 1.3089556E-07 1
vn -0 1.2894472E-07 1
vn -0 0 1
vn -0 0 1
vn -0 0 1
vn -0 0 1
vn -0 0 1
vn -0 1.3533604E-07 1
vn -0 0 1
vn -0 0 1
vn -0 0 1
vn -0 0 1
vn -0 0 1
vn -0 0 1
vn -0 0 1
vn -0 0 1
vn -0 0 1
vn -0 0 1
vn -0 0 1
vn -0 0 1
vn -0 0 1
vn -0 0 1
vn -0 0 1
vn -0 0 1
vn -0 0 1
vn -0 0 1
vn -0 0 1
vn 1.3603612E-07 0 1
vn -0 0 1
vn -0 0 1
vn -0 0 1
vn -0 0 1
vn -0 0 1
vn -0 0 1
vn -0 0 1
vn -0 0 1
vn -0 0 1
vn -0 0 1
vn -0 0 1
vn -0 0 1
vn -0 0 1
vn -0 0 1
vn -0 0 1
vn -0 0 1
vn -0 0 1
vn -0 0 1
vn -0 0 1
g Retopo_Path__1__0
f 3/3/3 2/2/2 1/1/1
f 4/4/4 3/3/3 1/1/1
f 7/7/7 6/6/6 5/5/5
f 6/6/6 8/8/8 5/5/5
f 8/8/8 6/6/6 9/9/9
f 10/10/10 8/8/8 9/9/9
f 13/13/13 12/12/12 11/11/11
f 14/14/14 13/13/13 11/11/11
f 17/17/17 16/16/16 15/15/15
f 18/18/18 17/17/17 15/15/15
f 21/21/21 20/20/20 19/19/19
f 22/22/22 21/21/21 19/19/19
f 25/25/25 24/24/24 23/23/23
f 26/26/26 25/25/25 23/23/23
f 29/29/29 28/28/28 27/27/27
f 30/30/30 29/29/29 27/27/27
f 33/33/33 32/32/32 31/31/31
f 34/34/34 33/33/33 31/31/31
f 37/37/37 36/36/36 35/35/35
f 36/36/36 38/38/38 35/35/35
f 36/36/36 39/39/39 38/38/38
f 39/39/39 40/40/40 38/38/38
f 42/42/42 41/41/41 40/40/40
f 43/43/43 42/42/42 40/40/40
f 46/46/46 45/45/45 44/44/44
f 47/47/47 46/46/46 44/44/44
f 50/50/50 49/49/49 48/48/48
f 51/51/51 50/50/50 48/48/48
f 54/54/54 53/53/53 52/52/52
f 55/55/55 54/54/54 52/52/52
f 58/58/58 57/57/57 56/56/56
f 59/59/59 58/58/58 56/56/56
f 62/62/62 61/61/61 60/60/60
f 61/61/61 63/63/63 60/60/60
f 61/61/61 64/64/64 63/63/63
f 64/64/64 65/65/65 63/63/63
f 68/68/68 67/67/67 66/66/66
f 69/69/69 68/68/68 66/66/66
f 72/72/72 71/71/71 70/70/70
f 73/73/73 72/72/72 70/70/70
f 76/76/76 75/75/75 74/74/74
f 77/77/77 76/76/76 74/74/74
f 80/80/80 79/79/79 78/78/78
f 81/81/81 80/80/80 78/78/78
f 84/84/84 83/83/83 82/82/82
f 85/85/85 84/84/84 82/82/82
f 88/88/88 87/87/87 86/86/86
f 89/89/89 88/88/88 86/86/86
f 92/92/92 91/91/91 90/90/90
f 93/93/93 92/92/92 90/90/90
f 96/96/96 95/95/95 94/94/94
f 97/97/97 96/96/96 94/94/94
f 100/100/100 99/99/99 98/98/98
f 101/101/101 100/100/100 98/98/98
f 104/104/104 103/103/103 102/102/102
f 105/105/105 104/104/104 102/102/102
f 108/108/108 107/107/107 106/106/106
f 109/109/109 108/108/108 106/106/106
f 112/112/112 111/111/111 110/110/110
f 113/113/113 112/112/112 110/110/110
f 116/116/116 115/115/115 114/114/114
f 117/117/117 116/116/116 114/114/114
f 120/120/120 119/119/119 118/118/118
f 121/121/121 120/120/120 118/118/118
f 124/124/124 123/123/123 122/122/122
f 125/125/125 124/124/124 122/122/122
f 128/128/128 127/127/127 126/126/126
f 129/129/129 128/128/128 126/126/126
f 132/132/132 131/131/131 130/130/130
f 133/133/133 132/132/132 130/130/130
f 136/136/136 135/135/135 134/134/134
f 137/137/137 136/136/136 134/134/134
f 140/140/140 139/139/139 138/138/138
f 141/141/141 140/140/140 138/138/138
f 144/144/144 143/143/143 142/142/142
f 145/145/145 144/144/144 142/142/142
f 148/148/148 147/147/147 146/146/146
f 149/149/149 148/148/148 146/146/146
f 152/152/152 151/151/151 150/150/150
f 153/153/153 152/152/152 150/150/150
f 156/156/156 155/155/155 154/154/154
f 155/155/155 157/157/157 154/154/154
f 155/155/155 158/158/158 157/157/157
f 158/158/158 159/159/159 157/157/157
f 162/162/162 161/161/161 160/160/160
f 163/163/163 162/162/162 160/160/160
f 166/166/166 165/165/165 164/164/164
f 167/167/167 166/166/166 164/164/164
f 170/170/170 169/169/169 168/168/168
f 171/171/171 170/170/170 168/168/168
f 174/174/174 173/173/173 172/172/172
f 173/173/173 175/175/175 172/172/172
f 173/173/173 176/176/176 175/175/175
f 176/176/176 177/177/177 175/175/175
f 180/180/180 179/179/179 178/178/178
f 181/181/181 180/180/180 178/178/178
f 184/184/184 183/183/183 182/182/182
f 185/185/185 184/184/184 182/182/182
f 188/188/188 187/187/187 186/186/186
f 189/189/189 188/188/188 186/186/186
f 192/192/192 191/191/191 190/190/190
f 191/191/191 193/193/193 190/190/190
f 191/191/191 194/194/194 193/193/193
f 194/194/194 195/195/195 193/193/193
f 198/198/198 197/197/197 196/196/196
f 199/199/199 198/198/198 196/196/196
f 202/202/202 201/201/201 200/200/200
f 203/203/203 202/202/202 200/200/200
f 206/206/206 205/205/205 204/204/204
f 207/207/207 206/206/206 204/204/204
f 210/210/210 209/209/209 208/208/208
f 211/211/211 210/210/210 208/208/208
f 214/214/214 213/213/213 212/212/212
f 215/215/215 214/214/214 212/212/212
f 218/218/218 217/217/217 216/216/216
f 219/219/219 218/218/218 216/216/216
f 222/222/222 221/221/221 220/220/220
f 223/223/223 222/222/222 220/220/220
f 226/226/226 225/225/225 224/224/224
f 227/227/227 226/226/226 224/224/224
f 230/230/230 229/229/229 228/228/228
f 231/231/231 230/230/230 228/228/228
f 234/234/234 233/233/233 232/232/232
f 233/233/233 235/235/235 232/232/232
f 233/233/233 236/236/236 235/235/235
f 236/236/236 237/237/237 235/235/235
f 240/240/240 239/239/239 238/238/238
f 239/239/239 241/241/241 238/238/238
f 239/239/239 242/242/242 241/241/241
f 242/242/242 243/243/243 241/241/241
f 246/246/246 245/245/245 244/244/244
f 247/247/247 246/246/246 244/244/244
f 250/250/250 249/249/249 248/248/248
f 251/251/251 250/250/250 248/248/248
f 254/254/254 253/253/253 252/252/252
f 253/253/253 255/255/255 252/252/252
f 253/253/253 256/256/256 255/255/255
f 256/256/256 257/257/257 255/255/255
f 260/260/260 259/259/259 258/258/258
f 261/261/261 260/260/260 258/258/258
f 264/264/264 263/263/263 262/262/262
f 263/263/263 265/265/265 262/262/262
f 263/263/263 266/266/266 265/265/265
f 266/266/266 267/267/267 265/265/265
f 266/266/266 268/268/268 267/267/267
f 268/268/268 269/269/269 267/267/267
f 272/272/272 271/271/271 270/270/270
f 273/273/273 272/272/272 270/270/270
f 276/276/276 275/275/275 274/274/274
f 275/275/275 277/277/277 274/274/274
f 275/275/275 278/278/278 277/277/277
f 278/278/278 279/279/279 277/277/277
f 278/278/278 280/280/280 279/279/279
f 280/280/280 281/281/281 279/279/279
f 284/284/284 283/283/283 282/282/282
f 285/285/285 284/284/284 282/282/282
f 288/288/288 287/287/287 286/286/286
f 287/287/287 289/289/289 286/286/286
f 287/287/287 290/290/290 289/289/289
f 290/290/290 291/291/291 289/289/289
f 294/294/294 293/293/293 292/292/292
f 293/293/293 295/295/295 292/292/292
f 293/293/293 296/296/296 295/295/295
f 296/296/296 297/297/297 295/295/295
f 300/300/300 299/299/299 298/298/298
f 301/301/301 300/300/300 298/298/298
f 304/304/304 303/303/303 302/302/302
f 305/305/305 304/304/304 302/302/302
f 308/308/308 307/307/307 306/306/306
f 309/309/309 308/308/308 306/306/306
f 312/312/312 311/311/311 310/310/310
f 313/313/313 312/312/312 310/310/310
g Retopo_Path__1__1
f 316/316/316 315/315/315 314/314/314
f 317/317/317 316/316/316 314/314/314
f 320/320/320 319/319/319 318/318/318
f 319/319/319 321/321/321 318/318/318
f 321/321/321 322/322/322 318/318/318
f 318/318/318 322/322/322 323/323/323
f 321/321/321 324/324/324 322/322/322
f 325/325/325 320/320/320 318/318/318
f 325/325/325 318/318/318 323/323/323
f 320/320/320 325/325/325 326/326/326
f 326/326/326 325/325/325 327/327/327
f 328/328/328 320/320/320 326/326/326
f 329/329/329 328/328/328 326/326/326
f 330/330/330 329/329/329 326/326/326
f 330/330/330 326/326/326 327/327/327
f 331/331/331 325/325/325 323/323/323
f 325/325/325 331/331/331 327/327/327
f 332/332/332 331/331/331 323/323/323
f 327/327/327 331/331/331 332/332/332
f 329/329/329 330/330/330 333/333/333
f 333/333/333 330/330/330 334/334/334
f 335/335/335 329/329/329 333/333/333
f 336/336/336 335/335/335 333/333/333
f 337/337/337 336/336/336 333/333/333
f 337/337/337 333/333/333 334/334/334
f 338/338/338 330/330/330 327/327/327
f 330/330/330 338/338/338 334/334/334
f 339/339/339 338/338/338 327/327/327
f 334/334/334 338/338/338 339/339/339
f 340/340/340 327/327/327 332/332/332
f 340/340/340 339/339/339 327/327/327
f 336/336/336 337/337/337 341/341/341
f 341/341/341 337/337/337 342/342/342
f 343/343/343 336/336/336 341/341/341
f 344/344/344 343/343/343 341/341/341
f 345/345/345 344/344/344 341/341/341
f 345/345/345 341/341/341 342/342/342
f 346/346/346 337/337/337 334/334/334
f 337/337/337 346/346/346 342/342/342
f 347/347/347 346/346/346 334/334/334
f 342/342/342 346/346/346 347/347/347
f 348/348/348 340/340/340 332/332/332
f 340/340/340 348/348/348 339/339/339
f 344/344/344 345/345/345 349/349/349
f 349/349/349 345/345/345 350/350/350
f 351/351/351 344/344/344 349/349/349
f 352/352/352 351/351/351 349/349/349
f 353/353/353 352/352/352 349/349/349
f 353/353/353 349/349/349 350/350/350
f 354/354/354 334/334/334 339/339/339
f 354/354/354 347/347/347 334/334/334
f 355/355/355 354/354/354 339/339/339
f 354/354/354 355/355/355 347/347/347
f 356/356/356 345/345/345 342/342/342
f 345/345/345 356/356/356 350/350/350
f 357/357/357 356/356/356 342/342/342
f 350/350/350 356/356/356 357/357/357
f 352/352/352 353/353/353 358/358/358
f 358/358/358 353/353/353 359/359/359
f 360/360/360 352/352/352 358/358/358
f 361/361/361 360/360/360 358/358/358
f 362/362/362 361/361/361 358/358/358
f 362/362/362 358/358/358 359/359/359
f 363/363/363 355/355/355 339/339/339
f 348/348/348 363/363/363 339/339/339
f 364/364/364 357/357/357 342/342/342
f 364/364/364 342/342/342 347/347/347
f 365/365/365 364/364/364 347/347/347
f 364/364/364 365/365/365 357/357/357
f 353/353/353 366/366/366 359/359/359
f 359/359/359 366/366/366 367/367/367
f 366/366/366 353/353/353 350/350/350
f 367/367/367 366/366/366 350/350/350
f 355/355/355 368/368/368 347/347/347
f 368/368/368 365/365/365 347/347/347
f 369/369/369 350/350/350 357/357/357
f 369/369/369 367/367/367 350/350/350
f 370/370/370 369/369/369 357/357/357
f 369/369/369 370/370/370 367/367/367
f 365/365/365 371/371/371 357/357/357
f 371/371/371 370/370/370 357/357/357
f 368/368/368 355/355/355 372/372/372
f 365/365/365 368/368/368 373/373/373
f 368/368/368 372/372/372 373/373/373
f 371/371/371 365/365/365 374/374/374
f 365/365/365 373/373/373 374/374/374
f 370/370/370 371/371/371 375/375/375
f 371/371/371 374/374/374 375/375/375
f 355/355/355 376/376/376 372/372/372
f 355/355/355 363/363/363 376/376/376
f 363/363/363 377/377/377 376/376/376
f 363/363/363 348/348/348 377/377/377
f 373/373/373 378/378/378 374/374/374
f 378/378/378 379/379/379 374/374/374
f 374/374/374 379/379/379 375/375/375
f 380/380/380 378/378/378 373/373/373
f 372/372/372 380/380/380 373/373/373
f 381/381/381 380/380/380 372/372/372
f 376/376/376 381/381/381 372/372/372
f 382/382/382 381/381/381 376/376/376
f 377/377/377 382/382/382 376/376/376
f 379/379/379 383/383/383 375/375/375
f 384/384/384 382/382/382 377/377/377
f 375/375/375 383/383/383 385/385/385
f 370/370/370 375/375/375 385/385/385
f 383/383/383 386/386/386 385/385/385
f 387/387/387 384/384/384 377/377/377
f 348/348/348 387/387/387 377/377/377
f 388/388/388 384/384/384 387/387/387
f 389/389/389 370/370/370 385/385/385
f 370/370/370 389/389/389 367/367/367
f 385/385/385 386/386/386 390/390/390
f 389/389/389 385/385/385 390/390/390
f 386/386/386 391/391/391 390/390/390
f 348/348/348 392/392/392 387/387/387
f 392/392/392 348/348/348 332/332/332
f 393/393/393 388/388/388 387/387/387
f 392/392/392 393/393/393 387/387/387
f 394/394/394 388/388/388 393/393/393
f 389/389/389 395/395/395 367/367/367
f 395/395/395 389/389/389 390/390/390
f 390/390/390 391/391/391 396/396/396
f 395/395/395 390/390/390 396/396/396
f 391/391/391 397/397/397 396/396/396
f 398/398/398 392/392/392 332/332/332
f 392/392/392 398/398/398 393/393/393
f 399/399/399 394/394/394 393/393/393
f 398/398/398 399/399/399 393/393/393
f 400/400/400 394/394/394 399/399/399
f 396/396/396 397/397/397 401/401/401
f 397/397/397 402/402/402 401/401/401
f 403/403/403 400/400/400 399/399/399
f 404/404/404 400/400/400 403/403/403
f 405/405/405 395/395/395 396/396/396
f 405/405/405 396/396/396 401/401/401
f 395/395/395 405/405/405 406/406/406
f 401/401/401 402/402/402 407/407/407
f 402/402/402 408/408/408 407/407/407
f 409/409/409 405/405/405 401/401/401
f 405/405/405 409/409/409 406/406/406
f 409/409/409 401/401/401 407/407/407
f 407/407/407 408/408/408 410/410/410
f 408/408/408 411/411/411 410/410/410
f 412/412/412 403/403/403 399/399/399
f 398/398/398 412/412/412 399/399/399
f 412/412/412 398/398/398 413/413/413
f 412/412/412 414/414/414 403/403/403
f 414/414/414 412/412/412 413/413/413
f 415/415/415 395/395/395 406/406/406
f 395/395/395 415/415/415 367/367/367
f 415/415/415 359/359/359 367/367/367
f 415/415/415 406/406/406 359/359/359
f 416/416/416 409/409/409 407/407/407
f 409/409/409 416/416/416 417/417/417
f 416/416/416 407/407/407 410/410/410
f 418/418/418 416/416/416 410/410/410
f 416/416/416 418/418/418 417/417/417
f 398/398/398 419/419/419 413/413/413
f 419/419/419 398/398/398 332/332/332
f 419/419/419 332/332/332 323/323/323
f 419/419/419 323/323/323 413/413/413
f 406/406/406 420/420/420 359/359/359
f 421/421/421 420/420/420 406/406/406
f 420/420/420 362/362/362 359/359/359
f 362/362/362 420/420/420 421/421/421
f 409/409/409 422/422/422 406/406/406
f 422/422/422 409/409/409 417/417/417
f 422/422/422 421/421/421 406/406/406
f 422/422/422 417/417/417 421/421/421
f 418/418/418 410/410/410 423/423/423
f 410/410/410 411/411/411 423/423/423
f 411/411/411 424/424/424 423/423/423
f 423/423/423 424/424/424 425/425/425
f 424/424/424 426/426/426 425/425/425
f 427/427/427 362/362/362 421/421/421
f 361/361/361 362/362/362 427/427/427
f 428/428/428 361/361/361 427/427/427
f 429/429/429 428/428/428 427/427/427
f 430/430/430 427/427/427 421/421/421
f 430/430/430 429/429/429 427/427/427
f 417/417/417 431/431/431 421/421/421
f 431/431/431 430/430/430 421/421/421
f 432/432/432 431/431/431 417/417/417
f 430/430/430 431/431/431 432/432/432
f 429/429/429 430/430/430 433/433/433
f 433/433/433 430/430/430 432/432/432
f 434/434/434 429/429/429 433/433/433
f 435/435/435 434/434/434 433/433/433
f 436/436/436 435/435/435 433/433/433
f 436/436/436 433/433/433 432/432/432
f 437/437/437 432/432/432 417/417/417
f 437/437/437 438/438/438 432/432/432
f 418/418/418 437/437/437 417/417/417
f 437/437/437 418/418/418 438/438/438
f 435/435/435 436/436/436 439/439/439
f 439/439/439 436/436/436 440/440/440
f 441/441/441 435/435/435 439/439/439
f 442/442/442 441/441/441 439/439/439
f 443/443/443 436/436/436 432/432/432
f 438/438/438 443/443/443 432/432/432
f 436/436/436 443/443/443 440/440/440
f 440/440/440 443/443/443 438/438/438
f 444/444/444 442/442/442 439/439/439
f 444/444/444 439/439/439 440/440/440
f 418/418/418 445/445/445 438/438/438
f 445/445/445 418/418/418 423/423/423
f 445/445/445 423/423/423 425/425/425
f 445/445/445 446/446/446 438/438/438
f 446/446/446 445/445/445 425/425/425
f 442/442/442 444/444/444 447/447/447
f 447/447/447 444/444/444 448/448/448
f 449/449/449 442/442/442 447/447/447
f 450/450/450 449/449/449 447/447/447
f 451/451/451 450/450/450 447/447/447
f 451/451/451 447/447/447 448/448/448
f 452/452/452 450/450/450 451/451/451
f 453/453/453 440/440/440 438/438/438
f 446/446/446 453/453/453 438/438/438
f 453/453/453 454/454/454 440/440/440
f 453/453/453 446/446/446 454/454/454
f 455/455/455 444/444/444 440/440/440
f 444/444/444 455/455/455 448/448/448
f 454/454/454 455/455/455 440/440/440
f 448/448/448 455/455/455 454/454/454
f 446/446/446 425/425/425 456/456/456
f 425/425/425 426/426/426 456/456/456
f 426/426/426 457/457/457 456/456/456
f 458/458/458 446/446/446 456/456/456
f 446/446/446 458/458/458 454/454/454
f 456/456/456 457/457/457 459/459/459
f 458/458/458 456/456/456 459/459/459
f 457/457/457 460/460/460 459/459/459
f 458/458/458 461/461/461 454/454/454
f 461/461/461 458/458/458 459/459/459
f 459/459/459 460/460/460 462/462/462
f 461/461/461 459/459/459 462/462/462
f 460/460/460 463/463/463 462/462/462
f 462/462/462 463/463/463 464/464/464
f 463/463/463 465/465/465 464/464/464
f 466/466/466 448/448/448 454/454/454
f 461/461/461 466/466/466 454/454/454
f 466/466/466 467/467/467 448/448/448
f 466/466/466 461/461/461 467/467/467
f 468/468/468 461/461/461 462/462/462
f 468/468/468 462/462/462 464/464/464
f 461/461/461 468/468/468 467/467/467
f 464/464/464 465/465/465 469/469/469
f 464/464/464 469/469/469 470/470/470
f 465/465/465 471/471/471 469/469/469
f 471/471/471 472/472/472 469/469/469
f 473/473/473 468/468/468 464/464/464
f 468/468/468 473/473/473 467/467/467
f 473/473/473 464/464/464 470/470/470
f 472/472/472 474/474/474 469/469/469
f 469/469/469 474/474/474 470/470/470
f 474/474/474 472/472/472 475/475/475
f 472/472/472 476/476/476 475/475/475
f 476/476/476 477/477/477 475/475/475
f 478/478/478 474/474/474 475/475/475
f 474/474/474 478/478/478 470/470/470
f 470/470/470 478/478/478 479/479/479
f 477/477/477 480/480/480 475/475/475
f 480/480/480 478/478/478 475/475/475
f 478/478/478 480/480/480 479/479/479
f 480/480/480 477/477/477 481/481/481
f 482/482/482 480/480/480 481/481/481
f 480/480/480 482/482/482 479/479/479
f 482/482/482 481/481/481 483/483/483
f 484/484/484 473/473/473 470/470/470
f 473/473/473 484/484/484 467/467/467
f 485/485/485 482/482/482 483/483/483
f 482/482/482 485/485/485 479/479/479
f 485/485/485 483/483/483 486/486/486
f 483/483/483 487/487/487 486/486/486
f 487/487/487 488/488/488 486/486/486
f 489/489/489 485/485/485 486/486/486
f 485/485/485 489/489/489 479/479/479
f 488/488/488 490/490/490 486/486/486
f 490/490/490 489/489/489 486/486/486
f 490/490/490 488/488/488 491/491/491
f 492/492/492 470/470/470 479/479/479
f 492/492/492 484/484/484 470/470/470
f 492/492/492 479/479/479 493/493/493
f 479/479/479 489/489/489 493/493/493
f 484/484/484 492/492/492 493/493/493
f 489/489/489 490/490/490 494/494/494
f 494/494/494 490/490/490 491/491/491
f 493/493/493 489/489/489 494/494/494
f 495/495/495 484/484/484 493/493/493
f 495/495/495 493/493/493 494/494/494
f 484/484/484 495/495/495 467/467/467
f 496/496/496 494/494/494 491/491/491
f 496/496/496 495/495/495 494/494/494
f 452/452/452 496/496/496 491/491/491
f 496/496/496 452/452/452 451/451/451
f 495/495/495 496/496/496 451/451/451
f 495/495/495 497/497/497 467/467/467
f 497/497/497 495/495/495 451/451/451
f 467/467/467 497/497/497 448/448/448
f 497/497/497 451/451/451 448/448/448
f 323/323/323 498/498/498 413/413/413
f 413/413/413 498/498/498 499/499/499
f 322/322/322 498/498/498 323/323/323
f 498/498/498 322/322/322 499/499/499
f 500/500/500 413/413/413 499/499/499
f 500/500/500 414/414/414 413/413/413
f 322/322/322 501/501/501 499/499/499
f 324/324/324 501/501/501 322/322/322
f 501/501/501 324/324/324 502/502/502
f 499/499/499 501/501/501 502/502/502
f 324/324/324 503/503/503 502/502/502
f 502/502/502 503/503/503 504/504/504
f 503/503/503 505/505/505 504/504/504
f 506/506/506 499/499/499 502/502/502
f 506/506/506 502/502/502 504/504/504
f 507/507/507 500/500/500 499/499/499
f 506/506/506 507/507/507 499/499/499
f 507/507/507 506/506/506 508/508/508
f 500/500/500 507/507/507 509/509/509
f 414/414/414 500/500/500 509/509/509
f 507/507/507 508/508/508 509/509/509
f 504/504/504 505/505/505 510/510/510
f 504/504/504 510/510/510 511/511/511
f 505/505/505 512/512/512 510/510/510
f 513/513/513 506/506/506 504/504/504
f 506/506/506 513/513/513 508/508/508
f 513/513/513 504/504/504 511/511/511
f 513/513/513 511/511/511 508/508/508
f 510/510/510 512/512/512 514/514/514
f 510/510/510 514/514/514 511/511/511
f 512/512/512 515/515/515 514/514/514
f 514/514/514 515/515/515 516/516/516
f 515/515/515 517/517/517 516/516/516
f 414/414/414 509/509/509 518/518/518
f 414/414/414 518/518/518 403/403/403
f 518/518/518 404/404/404 403/403/403
f 519/519/519 404/404/404 518/518/518
f 520/520/520 519/519/519 518/518/518
f 509/509/509 520/520/520 518/518/518
f 521/521/521 519/519/519 520/520/520
f 509/509/509 522/522/522 520/520/520
f 508/508/508 522/522/522 509/509/509
f 523/523/523 521/521/521 520/520/520
f 522/522/522 523/523/523 520/520/520
f 521/521/521 523/523/523 524/524/524
f 523/523/523 522/522/522 525/525/525
f 523/523/523 525/525/525 524/524/524
f 526/526/526 522/522/522 508/508/508
f 522/522/522 526/526/526 525/525/525
f 526/526/526 527/527/527 525/525/525
f 525/525/525 528/528/528 524/524/524
f 527/527/527 528/528/528 525/525/525
f 528/528/528 529/529/529 524/524/524
f 530/530/530 526/526/526 508/508/508
f 526/526/526 530/530/530 527/527/527
f 511/511/511 530/530/530 508/508/508
f 528/528/528 531/531/531 529/529/529
f 531/531/531 528/528/528 527/527/527
f 531/531/531 532/532/532 529/529/529
f 532/532/532 531/531/531 533/533/533
f 534/534/534 532/532/532 533/533/533
f 535/535/535 534/534/534 533/533/533
f 536/536/536 530/530/530 511/511/511
f 530/530/530 536/536/536 527/527/527
f 537/537/537 531/531/531 527/527/527
f 533/533/533 531/531/531 537/537/537
f 538/538/538 536/536/536 511/511/511
f 514/514/514 538/538/538 511/511/511
f 514/514/514 516/516/516 538/538/538
f 536/536/536 539/539/539 527/527/527
f 539/539/539 536/536/536 538/538/538
f 539/539/539 537/537/537 527/527/527
f 516/516/516 540/540/540 538/538/538
f 540/540/540 539/539/539 538/538/538
f 539/539/539 541/541/541 537/537/537
f 541/541/541 539/539/539 540/540/540
f 516/516/516 542/542/542 540/540/540
f 516/516/516 517/517/517 542/542/542
f 517/517/517 543/543/543 542/542/542
f 542/542/542 544/544/544 540/540/540
f 544/544/544 541/541/541 540/540/540
f 545/545/545 541/541/541 544/544/544
f 541/541/541 546/546/546 537/537/537
f 546/546/546 541/541/541 545/545/545
f 546/546/546 533/533/533 537/537/537
f 542/542/542 543/543/543 547/547/547
f 542/542/542 547/547/547 544/544/544
f 543/543/543 548/548/548 547/547/547
f 547/547/547 548/548/548 549/549/549
f 548/548/548 550/550/550 549/549/549
f 550/550/550 551/551/551 549/549/549
f 547/547/547 552/552/552 544/544/544
f 552/552/552 545/545/545 544/544/544
f 552/552/552 547/547/547 549/549/549
f 546/546/546 553/553/553 533/533/533
f 553/553/553 546/546/546 545/545/545
f 554/554/554 553/553/553 545/545/545
f 553/553/553 555/555/555 533/533/533
f 555/555/555 553/553/553 554/554/554
f 555/555/555 535/535/535 533/533/533
f 535/535/535 555/555/555 556/556/556
f 556/556/556 555/555/555 554/554/554
f 557/557/557 535/535/535 556/556/556
f 558/558/558 557/557/557 556/556/556
f 559/559/559 558/558/558 556/556/556
f 559/559/559 556/556/556 554/554/554
f 560/560/560 558/558/558 559/559/559
f 552/552/552 561/561/561 545/545/545
f 561/561/561 552/552/552 549/549/549
f 561/561/561 549/549/549 562/562/562
f 561/561/561 563/563/563 545/545/545
f 563/563/563 554/554/554 545/545/545
f 563/563/563 561/561/561 562/562/562
f 563/563/563 564/564/564 554/554/554
f 564/564/564 563/563/563 562/562/562
f 565/565/565 564/564/564 562/562/562
f 564/564/564 566/566/566 554/554/554
f 566/566/566 559/559/559 554/554/554
f 566/566/566 564/564/564 565/565/565
f 567/567/567 560/560/560 559/559/559
f 568/568/568 560/560/560 567/567/567
f 566/566/566 569/569/569 559/559/559
f 569/569/569 566/566/566 565/565/565
f 569/569/569 567/567/567 559/559/559
f 570/570/570 568/568/568 567/567/567
f 571/571/571 568/568/568 570/570/570
f 569/569/569 572/572/572 567/567/567
f 569/569/569 565/565/565 572/572/572
f 572/572/572 570/570/570 567/567/567
f 573/573/573 571/571/571 570/570/570
f 574/574/574 573/573/573 570/570/570
f 572/572/572 574/574/574 570/570/570
f 575/575/575 574/574/574 572/572/572
f 571/571/571 573/573/573 576/576/576
f 573/573/573 574/574/574 576/576/576
f 577/577/577 571/571/571 576/576/576
f 578/578/578 577/577/577 576/576/576
f 574/574/574 579/579/579 576/576/576
f 579/579/579 578/578/578 576/576/576
f 579/579/579 574/574/574 575/575/575
f 578/578/578 579/579/579 580/580/580
f 580/580/580 579/579/579 575/575/575
f 581/581/581 578/578/578 580/580/580
f 582/582/582 581/581/581 580/580/580
f 583/583/583 582/582/582 580/580/580
f 583/583/583 580/580/580 575/575/575
f 582/582/582 583/583/583 584/584/584
f 585/585/585 582/582/582 584/584/584
f 586/586/586 585/585/585 584/584/584
f 583/583/583 587/587/587 584/584/584
f 587/587/587 583/583/583 575/575/575
f 588/588/588 587/587/587 575/575/575
f 587/587/587 589/589/589 584/584/584
f 589/589/589 586/586/586 584/584/584
f 589/589/589 587/587/587 588/588/588
f 586/586/586 589/589/589 590/590/590
f 590/590/590 589/589/589 588/588/588
f 591/591/591 586/586/586 590/590/590
f 592/592/592 591/591/591 590/590/590
f 593/593/593 592/592/592 590/590/590
f 593/593/593 590/590/590 588/588/588
f 551/551/551 592/592/592 593/593/593
f 594/594/594 588/588/588 575/575/575
f 594/594/594 575/575/575 572/572/572
f 565/565/565 594/594/594 572/572/572
f 594/594/594 565/565/565 588/588/588
f 565/565/565 595/595/595 588/588/588
f 595/595/595 593/593/593 588/588/588
f 595/595/595 565/565/565 562/562/562
f 595/595/595 562/562/562 593/593/593
f 596/596/596 551/551/551 593/593/593
f 562/562/562 596/596/596 593/593/593
f 551/551/551 596/596/596 549/549/549
f 549/549/549 596/596/596 562/562/562
