g Retopo_Path__3_
v -0.16350727 0.3971083 0.13489996
v -0.16350727 0.39710826 0.035599977
v -0.1512652 0.42553127 0.035599973
v -0.1512652 0.42553127 0.13489996
v -0.16350727 0.3971083 0.13489996
v -0.16488661 0.33335787 0.13489997
v -0.16488658 0.33335787 0.03559998
v -0.16350727 0.39710826 0.035599977
v -0.12443209 0.5115107 0.13489996
v -0.1438877 0.49014053 0.13489996
v -0.1438877 0.49014053 0.035599973
v -0.12443209 0.5115107 0.03559997
v -0.12443209 0.5115107 0.13489996
v -0.12443209 0.5115107 0.03559997
v -0.03592882 0.53089154 0.035599962
v -0.03592882 0.53089154 0.13489996
v 0.058408298 0.5535145 0.035599962
v 0.058408298 0.55351454 0.13489994
v 0.3507918 -0.23780334 0.1349
v 0.3507918 -0.23780334 0.035600007
v 0.32559004 -0.19264276 0.035600003
v 0.32559004 -0.19264276 0.13489999
v 0.3507918 -0.23780334 0.1349
v 0.3813888 -0.23901446 0.1349
v 0.3813888 -0.23901446 0.035600007
v 0.3507918 -0.23780334 0.035600007
v 0.1681409 0.57278687 0.13489994
v 0.1681409 0.57278687 0.035599954
v 0.27829212 0.55056214 0.03559995
v 0.27829215 0.55056214 0.13489994
v 0.1681409 0.57278687 0.13489994
v 0.058408298 0.55351454 0.13489994
v 0.058408298 0.5535145 0.035599962
v 0.1681409 0.57278687 0.035599954
v 0.27829212 0.55056214 0.03559995
v 0.37046376 0.4906559 0.035599954
v 0.37046376 0.4906559 0.13489994
v 0.27829215 0.55056214 0.13489994
v 0.37046376 0.4906559 0.035599954
v 0.44556403 0.41638783 0.035599954
v 0.44556403 0.41638783 0.13489994
v 0.37046376 0.4906559 0.13489994
v 0.44556403 0.41638783 0.035599954
v 0.49687263 0.32572722 0.035599962
v 0.49687263 0.3257272 0.13489994
v 0.44556403 0.41638783 0.13489994
v 0.49687263 0.32572722 0.035599962
v 0.53045976 0.22806041 0.035599966
v 0.53045976 0.22806042 0.13489996
v 0.49687263 0.3257272 0.13489994
v 0.53045976 0.22806041 0.035599966
v 0.55414814 0.13327566 0.035599973
v 0.55414814 0.1332757 0.13489996
v 0.53045976 0.22806042 0.13489996
v 0.55414814 0.13327566 0.035599973
v 0.5612646 0.037773762 0.03559998
v 0.5612646 0.03777378 0.13489996
v 0.55414814 0.1332757 0.13489996
v 0.5612646 0.037773762 0.03559998
v 0.5448045 -0.05563406 0.035599988
v 0.5448045 -0.05563404 0.13489997
v 0.5612646 0.03777378 0.13489996
v 0.5448045 -0.05563406 0.035599988
v 0.51580244 -0.14324272 0.035599995
v 0.51580244 -0.14324272 0.13489999
v 0.5448045 -0.05563404 0.13489997
v 0.51580244 -0.14324272 0.035599995
v 0.47545236 -0.23695166 0.035600003
v 0.47545236 -0.23695166 0.13489999
v 0.51580244 -0.14324272 0.13489999
v 0.47545236 -0.23695166 0.035600003
v 0.44640285 -0.24999563 0.035600007
v 0.44640285 -0.24999563 0.13489999
v 0.47545236 -0.23695166 0.13489999
v 0.44640285 -0.24999563 0.035600007
v 0.3813888 -0.23901446 0.035600007
v 0.3813888 -0.23901446 0.1349
v 0.44640285 -0.24999563 0.13489999
v 0.30769706 -0.1641018 0.13489999
v 0.30769706 -0.16410181 0.035600003
v 0.2762103 -0.13559614 0.035599995
v 0.2762103 -0.13559613 0.13489999
v 0.30769706 -0.1641018 0.13489999
v 0.32559004 -0.19264276 0.13489999
v 0.32559004 -0.19264276 0.035600003
v 0.30769706 -0.16410181 0.035600003
v 0.2762103 -0.13559614 0.035599995
v 0.23067653 -0.11290451 0.035599995
v 0.23067655 -0.11290449 0.13489999
v 0.2762103 -0.13559613 0.13489999
v 0.23067653 -0.11290451 0.035599995
v 0.16827875 -0.0679714 0.03559999
v 0.16827877 -0.06797139 0.13489999
v 0.23067655 -0.11290449 0.13489999
v 0.16827875 -0.0679714 0.03559999
v 0.09252686 -0.039561708 0.035599988
v 0.09252688 -0.039561696 0.13489999
v 0.16827877 -0.06797139 0.13489999
v 0.09252686 -0.039561708 0.035599988
v 0.038448192 -0.010936375 0.035599984
v 0.038448192 -0.010936369 0.13489997
v 0.09252688 -0.039561696 0.13489999
v 0.038448192 -0.010936375 0.035599984
v -0.015198066 0.07269763 0.035599988
v -0.015198057 0.07269763 0.13489997
v 0.038448192 -0.010936369 0.13489997
v -0.015198066 0.07269763 0.035599988
v -0.05706645 0.14901713 0.13489997
v -0.015198057 0.07269763 0.13489997
v -0.05706646 0.14901713 0.035599988
v -0.08990566 0.2036257 0.13489997
v -0.08990568 0.2036257 0.03559998
v -0.12647544 0.25866958 0.13489996
v -0.12647544 0.25866956 0.03559998
v -0.12647544 0.25866956 0.03559998
v -0.16488658 0.33335787 0.03559998
v -0.16488661 0.33335787 0.13489997
v -0.12647544 0.25866958 0.13489996
v -0.1438877 0.49014053 0.13489996
v -0.1512652 0.42553127 0.13489996
v -0.1512652 0.42553127 0.035599973
v -0.1438877 0.49014053 0.035599973
v 0.3777991 0.011452789 0.13489999
v 0.23067655 -0.11290449 0.13489999
v 0.16827877 -0.06797139 0.13489999
v 0.2762103 -0.13559613 0.13489999
v 0.35802764 0.06993588 0.13489997
v 0.09252688 -0.039561696 0.13489999
v 0.3348065 0.12943004 0.13489996
v 0.038448192 -0.010936369 0.13489997
v 0.421062 0.10179416 0.13489997
v 0.29986233 0.1834157 0.13489996
v -0.015198057 0.07269763 0.13489997
v 0.39159504 -0.048705388 0.13489999
v 0.39505997 -0.11203713 0.13489999
v 0.43918344 -0.11556114 0.13489999
v 0.30769706 -0.1641018 0.13489999
v 0.32559004 -0.19264276 0.13489999
v 0.39330345 -0.17496002 0.13489999
v 0.3507918 -0.23780334 0.1349
v 0.3813888 -0.23901446 0.1349
v 0.44640285 -0.24999563 0.13489999
v 0.44190148 -0.041389428 0.13489997
v 0.4342128 -0.18718402 0.13489999
v 0.46397468 -0.19370766 0.13489999
v 0.47545236 -0.23695166 0.13489999
v 0.51580244 -0.14324272 0.13489999
v 0.47853574 -0.12626195 0.13489999
v 0.5448045 -0.05563404 0.13489997
v 0.49321014 -0.045134563 0.13489997
v 0.43763378 0.034798354 0.13489997
v 0.5007492 0.0389196 0.13489997
v 0.5612646 0.03777378 0.13489996
v 0.48741797 0.1190876 0.13489996
v 0.55414814 0.1332757 0.13489996
v 0.46132186 0.20276849 0.13489996
v 0.53045976 0.22806042 0.13489996
v 0.3973056 0.17138374 0.13489996
v 0.42382994 0.28749493 0.13489996
v 0.49687263 0.3257272 0.13489994
v 0.35612255 0.24460693 0.13489996
v 0.30466703 0.29805246 0.13489996
v 0.37303817 0.36038172 0.13489996
v 0.44556403 0.41638783 0.13489994
v 0.37046376 0.4906559 0.13489994
v 0.31086066 0.4160768 0.13489994
v 0.24433833 0.45945418 0.13489994
v 0.27829215 0.55056214 0.13489994
v 0.1681409 0.57278687 0.13489994
v 0.24724615 0.22362886 0.13489996
v 0.1844301 0.25866744 0.13489997
v -0.05706645 0.14901713 0.13489997
v -0.08990566 0.2036257 0.13489997
v 0.24740669 0.33867934 0.13489996
v 0.19865848 0.375055 0.13489996
v 0.12606062 0.31353208 0.13489996
v 0.0607946 0.39833748 0.13489996
v -0.12647544 0.25866958 0.13489996
v -0.16488661 0.33335787 0.13489997
v 0.1497144 0.41499037 0.13489996
v 0.16087262 0.48487175 0.13489996
v 0.06062408 0.48608428 0.13489996
v -0.03679165 0.4823278 0.13489996
v 0.058408298 0.55351454 0.13489994
v -0.03592882 0.53089154 0.13489996
v -0.12443209 0.5115107 0.13489996
v -0.1438877 0.49014053 0.13489996
v -0.1512652 0.42553127 0.13489996
v -0.043620985 0.42224845 0.13489996
v -0.16350727 0.3971083 0.13489996
vt 0.27967963 0.40609506
vt 0.27967963 0.40609506
vt 0.2838651 0.41581273
vt 0.2838651 0.41581273
vt 0.27967963 0.40609506
vt 0.27920803 0.38429934
vt 0.27920803 0.38429934
vt 0.27967963 0.40609506
vt 0.29303908 0.44520837
vt 0.28638738 0.43790206
vt 0.28638738 0.43790206
vt 0.29303908 0.44520837
vt 0.29303908 0.44520837
vt 0.29303908 0.44520837
vt 0.32329774 0.45183456
vt 0.32329774 0.45183456
vt 0.35555092 0.4595692
vt 0.35555092 0.4595692
vt 0.45551467 0.18902352
vt 0.45551467 0.18902352
vt 0.44689834 0.20446354
vt 0.44689834 0.20446354
vt 0.45551467 0.18902352
vt 0.46597552 0.18860942
vt 0.46597552 0.18860942
vt 0.45551467 0.18902352
vt 0.39306763 0.46615827
vt 0.39306763 0.46615827
vt 0.43072754 0.4585598
vt 0.43072754 0.4585598
vt 0.39306763 0.46615827
vt 0.35555092 0.4595692
vt 0.35555092 0.4595692
vt 0.39306763 0.46615827
vt 0.43072754 0.4585598
vt 0.46224028 0.43807828
vt 0.46224028 0.43807828
vt 0.43072754 0.4585598
vt 0.46224028 0.43807828
vt 0.48791653 0.4126866
vt 0.48791653 0.4126866
vt 0.46224028 0.43807828
vt 0.48791653 0.4126866
vt 0.5054586 0.3816904
vt 0.5054586 0.3816904
vt 0.48791653 0.4126866
vt 0.5054586 0.3816904
vt 0.51694185 0.34829888
vt 0.51694185 0.34829888
vt 0.5054586 0.3816904
vt 0.51694185 0.34829888
vt 0.52504057 0.31589267
vt 0.52504057 0.31589267
vt 0.51694185 0.34829888
vt 0.52504057 0.31589267
vt 0.5274737 0.28324127
vt 0.5274737 0.28324133
vt 0.52504057 0.31589267
vt 0.5274737 0.28324127
vt 0.52184606 0.25130588
vt 0.52184606 0.25130588
vt 0.5274737 0.28324133
vt 0.52184606 0.25130588
vt 0.5119305 0.22135307
vt 0.5119305 0.22135307
vt 0.52184606 0.25130588
vt 0.5119305 0.22135307
vt 0.49813515 0.1893147
vt 0.49813515 0.1893147
vt 0.5119305 0.22135307
vt 0.49813515 0.1893147
vt 0.48820332 0.18485513
vt 0.48820332 0.18485513
vt 0.49813515 0.1893147
vt 0.48820332 0.18485513
vt 0.46597552 0.18860942
vt 0.46597552 0.18860942
vt 0.48820332 0.18485513
vt 0.44078085 0.21422157
vt 0.44078085 0.21422157
vt 0.4300157 0.22396742
vt 0.4300157 0.22396742
vt 0.44078085 0.21422157
vt 0.44689834 0.20446354
vt 0.44689834 0.20446354
vt 0.44078085 0.21422157
vt 0.4300157 0.22396742
vt 0.41444808 0.23172551
vt 0.41444808 0.23172551
vt 0.4300157 0.22396742
vt 0.41444808 0.23172551
vt 0.39311478 0.24708782
vt 0.39311478 0.24708782
vt 0.41444808 0.23172551
vt 0.39311478 0.24708782
vt 0.36721575 0.2568009
vt 0.36721575 0.2568009
vt 0.39311478 0.24708782
vt 0.36721575 0.2568009
vt 0.34872666 0.26658762
vt 0.34872666 0.26658762
vt 0.36721575 0.2568009
vt 0.34872666 0.26658762
vt 0.33038542 0.29518157
vt 0.33038542 0.29518157
vt 0.34872666 0.26658762
vt 0.33038542 0.29518157
vt 0.31607097 0.3212746
vt 0.33038542 0.29518157
vt 0.31607097 0.3212746
vt 0.30484343 0.3399448
vt 0.30484343 0.3399448
vt 0.29234055 0.35876384
vt 0.29234055 0.35876384
vt 0.29234055 0.35876384
vt 0.27920803 0.38429934
vt 0.27920803 0.38429934
vt 0.29234055 0.35876384
vt 0.28638738 0.43790206
vt 0.2838651 0.41581273
vt 0.2838651 0.41581273
vt 0.28638738 0.43790206
vt 0.46474817 0.27424228
vt 0.41444808 0.23172551
vt 0.39311478 0.24708782
vt 0.4300157 0.22396742
vt 0.4579885 0.29423726
vt 0.36721575 0.2568009
vt 0.45004934 0.31457788
vt 0.34872666 0.26658762
vt 0.47953942 0.30512944
vt 0.43810222 0.3330352
vt 0.33038542 0.29518157
vt 0.4694649 0.25367475
vt 0.47064957 0.23202215
vt 0.48573506 0.23081724
vt 0.44078085 0.21422157
vt 0.44689834 0.20446354
vt 0.47004902 0.21050918
vt 0.45551467 0.18902352
vt 0.46597552 0.18860942
vt 0.48820332 0.18485513
vt 0.48666438 0.25617605
vt 0.48403564 0.20632991
vt 0.49421102 0.2040996
vt 0.49813515 0.1893147
vt 0.5119305 0.22135307
vt 0.4991893 0.22715868
vt 0.52184606 0.25130588
vt 0.50420636 0.2548955
vt 0.4852053 0.28222403
vt 0.5067839 0.2836331
vt 0.5274737 0.28324133
vt 0.5022261 0.3110419
vt 0.52504057 0.31589267
vt 0.49330392 0.33965176
vt 0.51694185 0.34829888
vt 0.47141737 0.32892156
vt 0.48048583 0.36861908
vt 0.5054586 0.3816904
vt 0.4573371 0.353956
vt 0.43974483 0.37222862
vt 0.46312046 0.39353853
vt 0.48791653 0.4126866
vt 0.46224028 0.43807828
vt 0.44186243 0.4125803
vt 0.419119 0.42741066
vt 0.43072754 0.4585598
vt 0.39306763 0.46615827
vt 0.42011312 0.34678382
vt 0.39863682 0.35876322
vt 0.31607097 0.3212746
vt 0.30484343 0.3399448
vt 0.42016804 0.38611868
vt 0.4035014 0.3985552
vt 0.37868068 0.37752098
vt 0.35636678 0.40651536
vt 0.29234055 0.35876384
vt 0.27920803 0.38429934
vt 0.38676775 0.41220883
vt 0.39058262 0.43610072
vt 0.35630846 0.43651533
vt 0.3230028 0.43523103
vt 0.35555092 0.4595692
vt 0.32329774 0.45183456
vt 0.29303908 0.44520837
vt 0.28638738 0.43790206
vt 0.2838651 0.41581273
vt 0.32066786 0.41469032
vt 0.27967963 0.40609506
vn -0.9184323 0.39557818 -1.2413331E-07
vn -0.9184323 0.39557818 -1.2413331E-07
vn -0.9184323 0.39557818 -1.2413331E-07
vn -0.9184323 0.39557818 -1.2413331E-07
vn -0.99976605 0.021631107 0
vn -0.99976605 0.021631107 0
vn -0.99976605 0.021631107 0
vn -0.99976605 0.021631107 0
vn -0.7394549 0.67320603 0
vn -0.7394549 0.67320603 0
vn -0.7394549 0.67320603 0
vn -0.7394549 0.67320603 0
vn -0.21391544 0.97685224 0
vn -0.21391544 0.97685224 0
vn -0.21391544 0.97685224 0
vn -0.21391544 0.97685224 0
vn -0.2331981 0.97242934 0
vn -0.2331981 0.97242934 0
vn -0.8732319 -0.4873049 0
vn -0.8732319 -0.4873049 0
vn -0.8732319 -0.4873049 0
vn -0.8732319 -0.4873049 0
vn -0.03955223 -0.9992175 0
vn -0.03955223 -0.9992175 0
vn -0.03955223 -0.9992175 0
vn -0.03955223 -0.9992175 0
vn 0.19777969 0.9802464 0
vn 0.19777969 0.9802464 0
vn 0.19777969 0.9802464 0
vn 0.19777969 0.9802464 0
vn -0.17298226 0.984925 0
vn -0.17298226 0.984925 0
vn -0.17298226 0.984925 0
vn -0.17298226 0.984925 0
vn 0.5449546 0.8384656 0
vn 0.5449546 0.8384656 0
vn 0.5449546 0.8384656 0
vn 0.5449546 0.8384656 0
vn 0.70315623 0.7110355 0
vn 0.70315623 0.7110355 0
vn 0.70315623 0.7110355 0
vn 0.70315623 0.7110355 0
vn 0.8702929 0.49253458 0
vn 0.8702929 0.49253458 0
vn 0.8702929 0.49253458 0
vn 0.8702929 0.49253458 0
vn 0.9456444 0.32520247 -1.18801246E-07
vn 0.9456444 0.32520247 -1.18801246E-07
vn 0.9456444 0.32520247 -1.18801246E-07
vn 0.9456444 0.32520247 -1.18801246E-07
vn 0.97016114 0.24246125 -2.752418E-07
vn 0.97016114 0.24246125 -2.752418E-07
vn 0.97016114 0.24246125 -2.752418E-07
vn 0.97016114 0.24246125 -2.752418E-07
vn 0.99723524 0.07430918 0
vn 0.99723524 0.07430918 0
vn 0.99723524 0.07430918 0
vn 0.99723524 0.07430918 0
vn 0.9848263 -0.17354275 0
vn 0.9848263 -0.17354275 0
vn 0.9848263 -0.17354275 0
vn 0.9848263 -0.17354275 0
vn 0.949334 -0.31426877 0
vn 0.949334 -0.31426877 0
vn 0.949334 -0.31426877 0
vn 0.949334 -0.31426877 0
vn 0.9184727 -0.39548427 0
vn 0.9184727 -0.39548427 0
vn 0.9184727 -0.39548427 0
vn 0.9184727 -0.39548427 0
vn 0.40962493 -0.91225404 0
vn 0.40962493 -0.91225404 0
vn 0.40962493 -0.91225404 0
vn 0.40962493 -0.91225404 0
vn -0.16654548 -0.98603374 0
vn -0.16654548 -0.98603374 0
vn -0.16654548 -0.98603374 0
vn -0.16654548 -0.98603374 0
vn -0.6711418 -0.74132895 0
vn -0.6711418 -0.74132895 0
vn -0.6711418 -0.74132895 0
vn -0.6711418 -0.74132895 0
vn -0.84726536 -0.53116995 1.1404116E-07
vn -0.84726536 -0.53116995 1.1404116E-07
vn -0.84726536 -0.53116995 1.1404116E-07
vn -0.84726536 -0.53116995 1.1404116E-07
vn -0.44602978 -0.89501816 1.7781092E-07
vn -0.44602978 -0.89501816 1.7781092E-07
vn -0.44602978 -0.89501816 1.7781092E-07
vn -0.44602978 -0.89501816 1.7781092E-07
vn -0.58436215 -0.811493 2.2988961E-07
vn -0.58436215 -0.811493 2.2988961E-07
vn -0.58436215 -0.811493 2.2988961E-07
vn -0.58436215 -0.811493 2.2988961E-07
vn -0.3511531 -0.93631804 1.4349044E-07
vn -0.3511531 -0.93631804 1.4349044E-07
vn -0.3511531 -0.93631804 1.4349044E-07
vn -0.3511531 -0.93631804 1.4349044E-07
vn -0.46782956 -0.8838187 1.2556771E-07
vn -0.46782956 -0.8838187 1.2556771E-07
vn -0.46782956 -0.8838187 1.2556771E-07
vn -0.46782956 -0.8838187 1.2556771E-07
vn -0.8417203 -0.5399137 0
vn -0.8417203 -0.5399137 0
vn -0.8417203 -0.5399137 0
vn -0.8417203 -0.5399137 0
vn -0.87673604 -0.48097187 0
vn -0.87673604 -0.48097187 0
vn -0.87673604 -0.48097187 0
vn -0.87673604 -0.48097187 0
vn -0.85697967 -0.5153502 0
vn -0.85697967 -0.5153502 0
vn -0.8329303 -0.55337787 2.3252541E-07
vn -0.8329303 -0.55337787 2.3252541E-07
vn -0.88928765 -0.45734817 0
vn -0.88928765 -0.45734817 0
vn -0.88928765 -0.45734817 0
vn -0.88928765 -0.45734817 0
vn -0.99354374 0.113449365 0
vn -0.99354374 0.113449365 0
vn -0.99354374 0.113449365 0
vn -0.99354374 0.113449365 0
vn -0 0 1
vn -0 0 1
vn -0 1.4743681E-07 1
vn -0 0 1
vn -0 1.2336442E-07 1
vn -0 1.2392854E-07 1
vn -0 0 1
vn -0 0 1
vn -0 1.1138435E-07 1
vn -0 0 1
vn -0 0 1
vn 1.339011E-07 0 1
vn 1.2215622E-07 0 1
vn -0 1.0981446E-07 1
vn 2.0658196E-07 0 1
vn 1.18176224E-07 0 1
vn -0 0 1
vn -1.3927541E-07 3.4230553E-07 1
vn -0 2.5108298E-07 1
vn -2.5076667E-07 0 1
vn -0 0 1
vn -1.1678917E-07 0 1
vn -0 0 1
vn -2.3109665E-07 0 1
vn 3.490686E-07 1.0024628E-07 1
vn 1.2004375E-07 1.2806197E-07 1
vn 1.3696715E-07 1.2289428E-07 1
vn -0 1.0764504E-07 1
vn -0 0 1
vn -0 0 1
vn -0 0 1
vn -0 0 1
vn -0 0 1
vn -0 0 1
vn -1.0433787E-07 0 1
vn -0 0 1
vn -0 0 1
vn -0 0 1
vn -0 0 1
vn -0 0 1
vn -0 1.09076964E-07 1
vn -0 1.0247039E-07 1
vn -0 0 1
vn -0 1.1805799E-07 1
vn -0 0 1
vn 1.2556643E-07 0 1
vn -0 0 1
vn -0 0 1
vn -0 0 1
vn -0 0 1
vn -0 0 1
vn -0 1.201257E-07 1
vn -0 1.1452598E-07 1
vn -0 0 1
vn -0 0 1
vn -0 0 1
vn -0 0 1
vn -0 0 1
vn -0 0 1
vn -0 0 1
vn -0 0 1
vn -0 1.0515158E-07 1
vn -0 0 1
vn -2.2699793E-07 0 1
vn -0 0 1
vn -0 1.2639424E-07 1
vn -0 0 1
vn -0 1.06774195E-07 1
g Retopo_Path__3__0
f 3/3/3 2/2/2 1/1/1
f 4/4/4 3/3/3 1/1/1
f 7/7/7 6/6/6 5/5/5
f 8/8/8 7/7/7 5/5/5
f 11/11/11 10/10/10 9/9/9
f 12/12/12 11/11/11 9/9/9
f 15/15/15 14/14/14 13/13/13
f 16/16/16 15/15/15 13/13/13
f 15/15/15 16/16/16 17/17/17
f 16/16/16 18/18/18 17/17/17
f 21/21/21 20/20/20 19/19/19
f 22/22/22 21/21/21 19/19/19
f 25/25/25 24/24/24 23/23/23
f 26/26/26 25/25/25 23/23/23
f 29/29/29 28/28/28 27/27/27
f 30/30/30 29/29/29 27/27/27
f 33/33/33 32/32/32 31/31/31
f 34/34/34 33/33/33 31/31/31
f 37/37/37 36/36/36 35/35/35
f 38/38/38 37/37/37 35/35/35
f 41/41/41 40/40/40 39/39/39
f 42/42/42 41/41/41 39/39/39
f 45/45/45 44/44/44 43/43/43
f 46/46/46 45/45/45 43/43/43
f 49/49/49 48/48/48 47/47/47
f 50/50/50 49/49/49 47/47/47
f 53/53/53 52/52/52 51/51/51
f 54/54/54 53/53/53 51/51/51
f 57/57/57 56/56/56 55/55/55
f 58/58/58 57/57/57 55/55/55
f 61/61/61 60/60/60 59/59/59
f 62/62/62 61/61/61 59/59/59
f 65/65/65 64/64/64 63/63/63
f 66/66/66 65/65/65 63/63/63
f 69/69/69 68/68/68 67/67/67
f 70/70/70 69/69/69 67/67/67
f 73/73/73 72/72/72 71/71/71
f 74/74/74 73/73/73 71/71/71
f 77/77/77 76/76/76 75/75/75
f 78/78/78 77/77/77 75/75/75
f 81/81/81 80/80/80 79/79/79
f 82/82/82 81/81/81 79/79/79
f 85/85/85 84/84/84 83/83/83
f 86/86/86 85/85/85 83/83/83
f 89/89/89 88/88/88 87/87/87
f 90/90/90 89/89/89 87/87/87
f 93/93/93 92/92/92 91/91/91
f 94/94/94 93/93/93 91/91/91
f 97/97/97 96/96/96 95/95/95
f 98/98/98 97/97/97 95/95/95
f 101/101/101 100/100/100 99/99/99
f 102/102/102 101/101/101 99/99/99
f 105/105/105 104/104/104 103/103/103
f 106/106/106 105/105/105 103/103/103
f 109/109/109 108/108/108 107/107/107
f 108/108/108 110/110/110 107/107/107
f 108/108/108 111/111/111 110/110/110
f 111/111/111 112/112/112 110/110/110
f 111/111/111 113/113/113 112/112/112
f 113/113/113 114/114/114 112/112/112
f 117/117/117 116/116/116 115/115/115
f 118/118/118 117/117/117 115/115/115
f 121/121/121 120/120/120 119/119/119
f 122/122/122 121/121/121 119/119/119
g Retopo_Path__3__1
f 125/125/125 124/124/124 123/123/123
f 124/124/124 126/126/126 123/123/123
f 127/127/127 125/125/125 123/123/123
f 128/128/128 125/125/125 127/127/127
f 129/129/129 128/128/128 127/127/127
f 130/130/130 128/128/128 129/129/129
f 127/127/127 123/123/123 131/131/131
f 129/129/129 127/127/127 131/131/131
f 132/132/132 130/130/130 129/129/129
f 133/133/133 130/130/130 132/132/132
f 126/126/126 134/134/134 123/123/123
f 134/134/134 126/126/126 135/135/135
f 134/134/134 135/135/135 136/136/136
f 126/126/126 137/137/137 135/135/135
f 137/137/137 138/138/138 135/135/135
f 138/138/138 139/139/139 135/135/135
f 135/135/135 139/139/139 136/136/136
f 139/139/139 138/138/138 140/140/140
f 141/141/141 139/139/139 140/140/140
f 139/139/139 141/141/141 142/142/142
f 134/134/134 143/143/143 123/123/123
f 143/143/143 134/134/134 136/136/136
f 144/144/144 139/139/139 142/142/142
f 139/139/139 144/144/144 136/136/136
f 144/144/144 142/142/142 145/145/145
f 144/144/144 145/145/145 136/136/136
f 142/142/142 146/146/146 145/145/145
f 146/146/146 147/147/147 145/145/145
f 147/147/147 148/148/148 145/145/145
f 145/145/145 148/148/148 136/136/136
f 148/148/148 147/147/147 149/149/149
f 136/136/136 148/148/148 150/150/150
f 143/143/143 136/136/136 150/150/150
f 150/150/150 148/148/148 149/149/149
f 143/143/143 151/151/151 123/123/123
f 151/151/151 143/143/143 150/150/150
f 123/123/123 151/151/151 131/131/131
f 152/152/152 150/150/150 149/149/149
f 152/152/152 151/151/151 150/150/150
f 153/153/153 152/152/152 149/149/149
f 151/151/151 152/152/152 154/154/154
f 152/152/152 153/153/153 154/154/154
f 131/131/131 151/151/151 154/154/154
f 153/153/153 155/155/155 154/154/154
f 154/154/154 155/155/155 156/156/156
f 131/131/131 154/154/154 156/156/156
f 155/155/155 157/157/157 156/156/156
f 158/158/158 131/131/131 156/156/156
f 158/158/158 129/129/129 131/131/131
f 156/156/156 157/157/157 159/159/159
f 158/158/158 156/156/156 159/159/159
f 157/157/157 160/160/160 159/159/159
f 158/158/158 161/161/161 129/129/129
f 161/161/161 158/158/158 159/159/159
f 161/161/161 159/159/159 162/162/162
f 161/161/161 132/132/132 129/129/129
f 132/132/132 161/161/161 162/162/162
f 159/159/159 160/160/160 163/163/163
f 159/159/159 163/163/163 162/162/162
f 160/160/160 164/164/164 163/163/163
f 164/164/164 165/165/165 163/163/163
f 165/165/165 166/166/166 163/163/163
f 163/163/163 166/166/166 162/162/162
f 166/166/166 165/165/165 167/167/167
f 165/165/165 168/168/168 167/167/167
f 168/168/168 169/169/169 167/167/167
f 170/170/170 132/132/132 162/162/162
f 170/170/170 162/162/162 171/171/171
f 170/170/170 133/133/133 132/132/132
f 133/133/133 170/170/170 171/171/171
f 172/172/172 133/133/133 171/171/171
f 172/172/172 171/171/171 173/173/173
f 166/166/166 174/174/174 162/162/162
f 174/174/174 166/166/166 167/167/167
f 162/162/162 174/174/174 171/171/171
f 174/174/174 175/175/175 171/171/171
f 175/175/175 174/174/174 167/167/167
f 171/171/171 176/176/176 173/173/173
f 175/175/175 176/176/176 171/171/171
f 176/176/176 177/177/177 173/173/173
f 177/177/177 178/178/178 173/173/173
f 179/179/179 178/178/178 177/177/177
f 176/176/176 175/175/175 180/180/180
f 175/175/175 167/167/167 180/180/180
f 177/177/177 176/176/176 180/180/180
f 167/167/167 181/181/181 180/180/180
f 180/180/180 181/181/181 177/177/177
f 169/169/169 181/181/181 167/167/167
f 182/182/182 181/181/181 169/169/169
f 181/181/181 182/182/182 177/177/177
f 182/182/182 183/183/183 177/177/177
f 184/184/184 182/182/182 169/169/169
f 183/183/183 182/182/182 184/184/184
f 185/185/185 183/183/183 184/184/184
f 183/183/183 185/185/185 186/186/186
f 187/187/187 183/183/183 186/186/186
f 187/187/187 188/188/188 183/183/183
f 189/189/189 179/179/179 177/177/177
f 183/183/183 189/189/189 177/177/177
f 188/188/188 189/189/189 183/183/183
f 179/179/179 189/189/189 190/190/190
f 189/189/189 188/188/188 190/190/190
