g Retopo_Support Mage Hands
v -0.48802164 0.37564638 -1.6792896
v -0.7103911 0.32393083 -1.7131424
v -0.6565967 0.20541696 -1.5662675
v -0.44328985 0.32312214 -1.5433583
v -0.48802164 0.37564638 -1.6792896
v -0.44328985 0.32312214 -1.5433583
v -0.44346315 0.57165456 -1.4710008
v -0.46927565 0.561146 -1.6279602
v -0.48802164 0.37564638 -1.6792896
v -0.46927565 0.561146 -1.6279602
v -0.67325777 0.6498513 -1.646362
v -0.7103911 0.32393083 -1.7131424
v -0.8904671 0.37039846 -1.4704852
v -0.8536755 0.60392183 -1.4986439
v -0.6731918 0.5992728 -1.3036586
v -0.69346815 0.29182675 -1.3076594
v -0.47395402 0.5279393 -1.3454719
v -0.46502188 0.35016704 -1.3657279
v -0.69346815 0.29182675 -1.3076594
v -0.6731918 0.5992728 -1.3036586
v -0.47395402 0.5279393 -1.3454719
v -0.44346315 0.57165456 -1.4710008
v -0.44328985 0.32312214 -1.5433583
v -0.46502188 0.35016704 -1.3657279
v -0.47395402 0.5279393 -1.3454719
v -0.6731918 0.5992728 -1.3036586
v -0.60147774 0.68110967 -1.4585449
v -0.44346315 0.57165456 -1.4710008
v -0.46927565 0.561146 -1.6279602
v -0.44346315 0.57165456 -1.4710008
v -0.60147774 0.68110967 -1.4585449
v -0.67325777 0.6498513 -1.646362
v -0.46502188 0.35016704 -1.3657279
v -0.44328985 0.32312214 -1.5433583
v -0.6565967 0.20541696 -1.5662675
v -0.69346815 0.29182675 -1.3076594
v -0.6565967 0.20541696 -1.5662675
v -0.7103911 0.32393083 -1.7131424
v -0.8904671 0.37039846 -1.4704852
v -0.69346815 0.29182675 -1.3076594
v -0.8904671 0.37039846 -1.4704852
v -0.7103911 0.32393083 -1.7131424
v -0.67325777 0.6498513 -1.646362
v -0.8536755 0.60392183 -1.4986439
v -0.8536755 0.60392183 -1.4986439
v -0.67325777 0.6498513 -1.646362
v -0.60147774 0.68110967 -1.4585449
v -0.6731918 0.5992728 -1.3036586
v 0.70858747 0.32393083 -1.7131424
v 0.48621807 0.37564638 -1.6792896
v 0.44148627 0.32312214 -1.5433583
v 0.65479314 0.20541696 -1.5662675
v 0.44148627 0.32312214 -1.5433583
v 0.48621807 0.37564638 -1.6792896
v 0.46747208 0.561146 -1.6279602
v 0.44165954 0.57165456 -1.4710008
v 0.46747208 0.561146 -1.6279602
v 0.48621807 0.37564638 -1.6792896
v 0.70858747 0.32393083 -1.7131424
v 0.6714542 0.6498513 -1.646362
v 0.8518719 0.60392183 -1.4986439
v 0.88866353 0.37039846 -1.4704852
v 0.6916647 0.29182675 -1.3076594
v 0.6713882 0.5992728 -1.3036586
v 0.46321833 0.35016704 -1.3657279
v 0.47215044 0.5279393 -1.3454719
v 0.6713882 0.5992728 -1.3036586
v 0.6916647 0.29182675 -1.3076594
v 0.44165954 0.57165456 -1.4710008
v 0.47215044 0.5279393 -1.3454719
v 0.46321833 0.35016704 -1.3657279
v 0.44148627 0.32312214 -1.5433583
v 0.6713882 0.5992728 -1.3036586
v 0.47215044 0.5279393 -1.3454719
v 0.44165954 0.57165456 -1.4710008
v 0.5996741 0.68110967 -1.4585449
v 0.44165954 0.57165456 -1.4710008
v 0.46747208 0.561146 -1.6279602
v 0.6714542 0.6498513 -1.646362
v 0.5996741 0.68110967 -1.4585449
v 0.44148627 0.32312214 -1.5433583
v 0.46321833 0.35016704 -1.3657279
v 0.6916647 0.29182675 -1.3076594
v 0.65479314 0.20541696 -1.5662675
v 0.70858747 0.32393083 -1.7131424
v 0.65479314 0.20541696 -1.5662675
v 0.6916647 0.29182675 -1.3076594
v 0.88866353 0.37039846 -1.4704852
v 0.70858747 0.32393083 -1.7131424
v 0.88866353 0.37039846 -1.4704852
v 0.8518719 0.60392183 -1.4986439
v 0.6714542 0.6498513 -1.646362
v 0.6714542 0.6498513 -1.646362
v 0.8518719 0.60392183 -1.4986439
v 0.6713882 0.5992728 -1.3036586
v 0.5996741 0.68110967 -1.4585449
vn 0.36102656 -0.7369403 -0.5714707
vn 0.36102656 -0.7369403 -0.5714707
vn 0.36102656 -0.7369403 -0.5714707
vn 0.36102656 -0.7369403 -0.5714707
vn 0.9726979 0.024153095 -0.2308147
vn 0.9726979 0.024153095 -0.2308147
vn 0.9726979 0.024153095 -0.2308147
vn 0.9726979 0.024153095 -0.2308147
vn 0.13679086 0.20869316 -0.96836746
vn 0.13679086 0.20869316 -0.96836746
vn 0.13679086 0.20869316 -0.96836746
vn 0.13679086 0.20869316 -0.96836746
vn -0.67210746 0.103642955 0.7331642
vn -0.67210746 0.103642955 0.7331642
vn -0.67210746 0.103642955 0.7331642
vn -0.67210746 0.103642955 0.7331642
vn 0.2255374 -0.053901985 0.97274226
vn 0.2255374 -0.053901985 0.97274226
vn 0.2255374 -0.053901985 0.97274226
vn 0.2255374 -0.053901985 0.97274226
vn 0.985508 -0.015644936 0.16890572
vn 0.985508 -0.015644936 0.16890572
vn 0.985508 -0.015644936 0.16890572
vn 0.985508 -0.015644936 0.16890572
vn 0.4508158 0.7418219 0.49645278
vn 0.4508158 0.7418219 0.49645278
vn 0.4508158 0.7418219 0.49645278
vn 0.4508158 0.7418219 0.49645278
vn 0.46959087 0.8507616 -0.23598534
vn 0.46959087 0.8507616 -0.23598534
vn 0.46959087 0.8507616 -0.23598534
vn 0.46959087 0.8507616 -0.23598534
vn 0.37453464 -0.88386637 0.2801856
vn 0.37453464 -0.88386637 0.2801856
vn 0.37453464 -0.88386637 0.2801856
vn 0.37453464 -0.88386637 0.2801856
vn -0.58675545 -0.80879796 -0.03954796
vn -0.58675545 -0.80879796 -0.03954796
vn -0.58675545 -0.80879796 -0.03954796
vn -0.58675545 -0.80879796 -0.03954796
vn -0.7270758 0.1424417 -0.6716183
vn -0.7270758 0.1424417 -0.6716183
vn -0.7270758 0.1424417 -0.6716183
vn -0.7270758 0.1424417 -0.6716183
vn -0.3099479 0.9405564 0.1388735
vn -0.3099479 0.9405564 0.1388735
vn -0.3099479 0.9405564 0.1388735
vn -0.3099479 0.9405564 0.1388735
vn -0.36102667 -0.73694044 -0.57147044
vn -0.36102667 -0.73694044 -0.57147044
vn -0.36102667 -0.73694044 -0.57147044
vn -0.36102667 -0.73694044 -0.57147044
vn -0.9726979 0.024153095 -0.2308148
vn -0.9726979 0.024153095 -0.2308148
vn -0.9726979 0.024153095 -0.2308148
vn -0.9726979 0.024153095 -0.2308148
vn -0.13679126 0.20869319 -0.96836734
vn -0.13679126 0.20869319 -0.96836734
vn -0.13679126 0.20869319 -0.96836734
vn -0.13679126 0.20869319 -0.96836734
vn 0.6721077 0.10364296 0.73316395
vn 0.6721077 0.10364296 0.73316395
vn 0.6721077 0.10364296 0.73316395
vn 0.6721077 0.10364296 0.73316395
vn -0.22553693 -0.053901937 0.9727423
vn -0.22553693 -0.053901937 0.9727423
vn -0.22553693 -0.053901937 0.9727423
vn -0.22553693 -0.053901937 0.9727423
vn -0.985508 -0.015645014 0.16890584
vn -0.985508 -0.015645014 0.16890584
vn -0.985508 -0.015645014 0.16890584
vn -0.985508 -0.015645014 0.16890584
vn -0.45081565 0.7418218 0.49645308
vn -0.45081565 0.7418218 0.49645308
vn -0.45081565 0.7418218 0.49645308
vn -0.45081565 0.7418218 0.49645308
vn -0.4695908 0.8507616 -0.2359855
vn -0.4695908 0.8507616 -0.2359855
vn -0.4695908 0.8507616 -0.2359855
vn -0.4695908 0.8507616 -0.2359855
vn -0.37453455 -0.88386637 0.28018576
vn -0.37453455 -0.88386637 0.28018576
vn -0.37453455 -0.88386637 0.28018576
vn -0.37453455 -0.88386637 0.28018576
vn 0.58675545 -0.8087978 -0.039548367
vn 0.58675545 -0.8087978 -0.039548367
vn 0.58675545 -0.8087978 -0.039548367
vn 0.58675545 -0.8087978 -0.039548367
vn 0.7270758 0.14244166 -0.67161834
vn 0.7270758 0.14244166 -0.67161834
vn 0.7270758 0.14244166 -0.67161834
vn 0.7270758 0.14244166 -0.67161834
vn 0.30994797 0.9405564 0.1388737
vn 0.30994797 0.9405564 0.1388737
vn 0.30994797 0.9405564 0.1388737
vn 0.30994797 0.9405564 0.1388737
g Retopo_Support Mage Hands_0
f 3/3/3 2/2/2 1/1/1
f 4/4/4 3/3/3 1/1/1
f 7/7/7 6/6/6 5/5/5
f 8/8/8 7/7/7 5/5/5
f 11/11/11 10/10/10 9/9/9
f 12/12/12 11/11/11 9/9/9
f 15/15/15 14/14/14 13/13/13
f 16/16/16 15/15/15 13/13/13
f 19/19/19 18/18/18 17/17/17
f 20/20/20 19/19/19 17/17/17
f 23/23/23 22/22/22 21/21/21
f 24/24/24 23/23/23 21/21/21
f 27/27/27 26/26/26 25/25/25
f 28/28/28 27/27/27 25/25/25
f 31/31/31 30/30/30 29/29/29
f 32/32/32 31/31/31 29/29/29
f 35/35/35 34/34/34 33/33/33
f 36/36/36 35/35/35 33/33/33
f 39/39/39 38/38/38 37/37/37
f 40/40/40 39/39/39 37/37/37
f 43/43/43 42/42/42 41/41/41
f 44/44/44 43/43/43 41/41/41
f 47/47/47 46/46/46 45/45/45
f 48/48/48 47/47/47 45/45/45
f 51/51/51 50/50/50 49/49/49
f 52/52/52 51/51/51 49/49/49
f 55/55/55 54/54/54 53/53/53
f 56/56/56 55/55/55 53/53/53
f 59/59/59 58/58/58 57/57/57
f 60/60/60 59/59/59 57/57/57
f 63/63/63 62/62/62 61/61/61
f 64/64/64 63/63/63 61/61/61
f 67/67/67 66/66/66 65/65/65
f 68/68/68 67/67/67 65/65/65
f 71/71/71 70/70/70 69/69/69
f 72/72/72 71/71/71 69/69/69
f 75/75/75 74/74/74 73/73/73
f 76/76/76 75/75/75 73/73/73
f 79/79/79 78/78/78 77/77/77
f 80/80/80 79/79/79 77/77/77
f 83/83/83 82/82/82 81/81/81
f 84/84/84 83/83/83 81/81/81
f 87/87/87 86/86/86 85/85/85
f 88/88/88 87/87/87 85/85/85
f 91/91/91 90/90/90 89/89/89
f 92/92/92 91/91/91 89/89/89
f 95/95/95 94/94/94 93/93/93
f 96/96/96 95/95/95 93/93/93
