g Retopo_Ramp B
v -0.084405914 0.52273184 0.13489994
v -0.05077715 0.497775 0.13489994
v -0.10266809 0.5228114 0.13489994
v -0.04541042 0.48031896 0.13489994
v -0.05266985 0.45317927 0.13489993
v -0.12654096 0.5080009 0.13489994
v -0.074563235 0.4237159 0.15655182
v -0.14839846 0.4785109 0.15655182
v -0.094284095 0.3948325 0.17828189
v -0.17033018 0.45126823 0.17828189
v -0.10872526 0.374372 0.1899
v -0.18572974 0.43151897 0.1899
v -0.13181391 0.35629195 0.18989994
v -0.1963457 0.40418258 0.1899
v -0.18872747 0.3839425 0.18989994
v -0.15339309 0.35771996 0.18989994
v -0.052669868 0.45317927 0.07199993
v -0.05266985 0.45317927 0.13489993
v -0.04541042 0.48031896 0.13489994
v -0.045410443 0.48031896 0.07199992
v -0.102668114 0.5228114 0.07199993
v -0.10266809 0.5228114 0.13489994
v -0.12654096 0.5080009 0.13489994
v -0.12654099 0.5080009 0.07199994
v -0.08440594 0.5227318 0.07199992
v -0.10266809 0.5228114 0.13489994
v -0.102668114 0.5228114 0.07199993
v -0.084405914 0.52273184 0.13489994
v -0.050777167 0.49777496 0.07199992
v -0.05077715 0.497775 0.13489994
v -0.045410443 0.48031896 0.07199992
v -0.04541042 0.48031896 0.13489994
v -0.1963457 0.40418258 0.12899995
v -0.1963457 0.40418258 0.1899
v -0.18872747 0.3839425 0.18989994
v -0.18872747 0.38394248 0.12899996
v -0.15339309 0.35771996 0.18989994
v -0.15339309 0.35771996 0.12899995
v -0.13181391 0.35629195 0.18989994
v -0.13181391 0.35629192 0.12899995
v -0.12654099 0.5080009 0.07199994
v -0.12654096 0.5080009 0.13489994
v -0.14839846 0.4785109 0.15655182
v -0.14839846 0.47851086 0.0898271
v -0.17033018 0.45126823 0.17828189
v -0.17033018 0.4512682 0.1179166
v -0.18572974 0.43151897 0.1899
v -0.18572974 0.43151897 0.12899995
v -0.074563235 0.4237159 0.0898271
v -0.05266985 0.45317927 0.13489993
v -0.052669868 0.45317927 0.07199993
v -0.074563235 0.4237159 0.15655182
v -0.094284095 0.3948325 0.11791661
v -0.094284095 0.3948325 0.17828189
v -0.10872526 0.37437198 0.12899995
v -0.10872526 0.374372 0.1899
v -0.094284095 0.3948325 0.11791661
v -0.13181391 0.35629192 0.12899995
v -0.13181391 0.35629195 0.18989994
v -0.10872526 0.374372 0.1899
v -0.10872526 0.37437198 0.12899995
v -0.18572974 0.43151897 0.12899995
v -0.18572974 0.43151897 0.1899
v -0.1963457 0.40418258 0.1899
v -0.1963457 0.40418258 0.12899995
vt 0.5422478 0.5387509
vt 0.55374515 0.5302183
vt 0.53600425 0.5387782
vt 0.55558014 0.52425027
vt 0.5530982 0.51497144
vt 0.52784216 0.53371453
vt 0.545613 0.5048981
vt 0.5203693 0.5236321
vt 0.53887045 0.4950231
vt 0.5128709 0.5143181
vt 0.5339332 0.48802784
vt 0.5076059 0.507566
vt 0.52603954 0.48184633
vt 0.5039764 0.4982198
vt 0.5065811 0.49129984
vt 0.5186617 0.48233458
vt 0.5530982 0.51497144
vt 0.5530982 0.51497144
vt 0.55558014 0.52425027
vt 0.55558014 0.52425027
vt 0.53600407 0.5387782
vt 0.53600425 0.5387782
vt 0.52784216 0.53371453
vt 0.52784216 0.53371453
vt 0.5422478 0.5387509
vt 0.53600425 0.5387782
vt 0.53600407 0.5387782
vt 0.5422478 0.5387509
vt 0.55374515 0.5302183
vt 0.55374515 0.5302183
vt 0.55558014 0.52425027
vt 0.55558014 0.52425027
vt 0.5039764 0.4982198
vt 0.5039764 0.4982198
vt 0.5065811 0.49129984
vt 0.5065811 0.49129984
vt 0.5186617 0.48233458
vt 0.5186617 0.48233458
vt 0.52603954 0.48184633
vt 0.52603954 0.48184633
vt 0.52784216 0.53371453
vt 0.52784216 0.53371453
vt 0.5203693 0.5236321
vt 0.5203693 0.5236321
vt 0.5128709 0.5143181
vt 0.5128709 0.5143181
vt 0.5076059 0.507566
vt 0.5076059 0.507566
vt 0.545613 0.5048981
vt 0.5530982 0.51497144
vt 0.5530982 0.51497144
vt 0.545613 0.5048981
vt 0.53887045 0.4950231
vt 0.53887045 0.4950231
vt 0.5339332 0.48802775
vt 0.5339332 0.48802784
vt 0.53887045 0.4950231
vt 0.52603954 0.48184633
vt 0.52603954 0.48184633
vt 0.5339332 0.48802784
vt 0.5339332 0.48802775
vt 0.5076059 0.507566
vt 0.5076059 0.507566
vt 0.5039764 0.4982198
vt 0.5039764 0.4982198
vn -0 -3.8438273E-07 1
vn -0 0 1
vn -0 -3.3512507E-07 1
vn -0 -2.5741178E-07 1
vn 0.03058073 0.04120664 0.99868256
vn 0.030713899 0.041160878 0.9986803
vn -0.02693184 -0.03874591 0.99888605
vn -0.029352672 -0.037186764 0.9988771
vn -0.021409363 -0.02858085 0.9993622
vn -0.021008193 -0.028572557 0.999371
vn 0.0052847085 0.0073260767 0.99995923
vn 0.0054815975 0.007180032 0.99995923
vn -2.5035587E-07 -1.0343007E-06 1
vn -7.696095E-07 -1.5884116E-06 1
vn -3.007165E-06 -3.2090322E-06 1
vn -0 0 1
vn 0.96603817 -0.25839946 -2.1587314E-07
vn 0.96603817 -0.25839946 -2.1587314E-07
vn 0.96603817 -0.25839946 -2.1587314E-07
vn 0.96603817 -0.25839946 -2.1587314E-07
vn -0.5271788 0.8497544 0
vn -0.5271788 0.8497544 0
vn -0.5271788 0.8497544 0
vn -0.5271788 0.8497544 0
vn 0.59567636 0.8032246 -0.00012026998
vn 0.004359392 0.9999906 -6.641753E-07
vn 0.004359392 0.9999906 -6.641753E-07
vn 0.5959386 0.80303 -1.0841976E-06
vn 0.59608436 0.8029218 -9.1751895E-07
vn 0.5961716 0.8028571 -7.1208933E-07
vn 0.9558459 0.2938682 -4.981312E-07
vn 0.9558459 0.2938682 -4.981312E-07
vn -0.93589985 -0.35226616 1.4482043E-07
vn -0.93589985 -0.35226616 1.4482043E-07
vn -0.59599847 -0.80298555 -6.875802E-07
vn -0.59599805 -0.8029859 0
vn -0.5958925 -0.8030642 3.1471995E-07
vn -0.5959355 -0.80303234 2.3988542E-07
vn -0.06603107 -0.99781764 5.792808E-07
vn -0.06603107 -0.99781764 5.792808E-07
vn -0.8033877 0.5954562 0
vn -0.8033877 0.5954562 0
vn -0.8033877 0.5954562 0
vn -0.8033877 0.5954562 0
vn -0.7789463 0.6270907 -3.4329412E-07
vn -0.7789463 0.6270907 -3.4329412E-07
vn -0.7885959 0.6149117 0
vn -0.7885959 0.6149117 0
vn 0.8026618 -0.5964344 0
vn 0.8026618 -0.5964344 0
vn 0.8026618 -0.5964344 0
vn 0.8026618 -0.5964344 0
vn 0.8258595 -0.5638761 0
vn 0.8258595 -0.5638761 0
vn 0.81699663 -0.57664233 5.0244387E-07
vn 0.81699663 -0.57664233 5.0244387E-07
vn 0.81699663 -0.57664233 5.0244387E-07
vn 0.616534 -0.7873283 4.2719856E-07
vn 0.616534 -0.7873283 4.2719856E-07
vn 0.616534 -0.7873283 4.2719856E-07
vn 0.616534 -0.7873283 4.2719856E-07
vn -0.9321758 0.36200586 0
vn -0.9321758 0.36200586 0
vn -0.9321758 0.36200586 0
vn -0.9321758 0.36200586 0
g Retopo_Ramp B_0
f 3/3/3 2/2/2 1/1/1
f 2/2/2 3/3/3 4/4/4
f 4/4/4 3/3/3 5/5/5
f 3/3/3 6/6/6 5/5/5
f 5/5/5 6/6/6 7/7/7
f 6/6/6 8/8/8 7/7/7
f 7/7/7 8/8/8 9/9/9
f 8/8/8 10/10/10 9/9/9
f 9/9/9 10/10/10 11/11/11
f 10/10/10 12/12/12 11/11/11
f 11/11/11 12/12/12 13/13/13
f 12/12/12 14/14/14 13/13/13
f 15/15/15 13/13/13 14/14/14
f 13/13/13 15/15/15 16/16/16
f 19/19/19 18/18/18 17/17/17
f 20/20/20 19/19/19 17/17/17
f 23/23/23 22/22/22 21/21/21
f 24/24/24 23/23/23 21/21/21
f 27/27/27 26/26/26 25/25/25
f 26/26/26 28/28/28 25/25/25
f 25/25/25 28/28/28 29/29/29
f 28/28/28 30/30/30 29/29/29
f 29/29/29 30/30/30 31/31/31
f 30/30/30 32/32/32 31/31/31
f 35/35/35 34/34/34 33/33/33
f 36/36/36 35/35/35 33/33/33
f 37/37/37 35/35/35 36/36/36
f 38/38/38 37/37/37 36/36/36
f 39/39/39 37/37/37 38/38/38
f 40/40/40 39/39/39 38/38/38
g Retopo_Ramp B_1
f 43/43/43 42/42/42 41/41/41
f 44/44/44 43/43/43 41/41/41
f 45/45/45 43/43/43 44/44/44
f 46/46/46 45/45/45 44/44/44
f 47/47/47 45/45/45 46/46/46
f 48/48/48 47/47/47 46/46/46
f 51/51/51 50/50/50 49/49/49
f 50/50/50 52/52/52 49/49/49
f 49/49/49 52/52/52 53/53/53
f 52/52/52 54/54/54 53/53/53
f 54/54/54 56/56/56 55/55/55
f 57/57/57 54/54/54 55/55/55
f 60/60/60 59/59/59 58/58/58
f 61/61/61 60/60/60 58/58/58
f 64/64/64 63/63/63 62/62/62
f 65/65/65 64/64/64 62/62/62
