g Retopo_Golem Head
v 0.12874478 -0.18317612 0.8167396
v 0.23001017 -0.11428851 0.7333487
v 0.22961032 -0.1657565 0.5629488
v 0.27077156 0.07853185 0.7524402
v 0.11220994 -0.30539966 0.572651
v 0.2735975 0.041310176 0.53643274
v 0.1081108 -0.23103146 0.23740369
v 0.21337761 -0.1361604 0.26573923
v -0.09727898 -0.36069012 0.57705474
v -0.09727898 -0.2582723 0.22026443
v 0.11188075 -0.13432328 0.031584524
v -0.09727898 -0.1606688 0.032944463
v -0.30266875 -0.23103146 0.23740369
v -0.3064387 -0.13432328 0.031584524
v -0.29183695 0.0093196165 0.00052707584
v -0.09727898 -0.009324187 -0.00052707247
v -0.22306553 0.34356803 -0.03110138
v -0.415973 -0.0849473 0.1130587
v -0.4181977 0.042266417 0.07088776
v -0.3067679 -0.30539966 0.572651
v -0.40793556 -0.1361604 0.26573923
v -0.42851695 0.027496746 0.26061925
v -0.09727898 -0.21973269 0.8629939
v -0.4241683 -0.1657565 0.5629488
v -0.40330884 0.22475262 0.25477263
v -0.46815547 0.041310176 0.53643274
v -0.42456812 -0.11428851 0.7333487
v -0.35359907 0.29896894 0.10363192
v -0.32111564 0.4996457 0.30124035
v -0.41958362 0.32180476 0.43958622
v -0.32330275 -0.18317612 0.8167396
v -0.3274605 0.10558273 0.87843174
v -0.4653295 0.07853185 0.7524402
v -0.4144037 0.40735355 0.6351816
v -0.3304007 0.53898305 0.48723266
v -0.22869639 0.58824575 0.23552927
v -0.3027439 0.42750573 0.75499636
v -0.09727898 0.11369088 0.91356474
v -0.24429025 0.6206024 0.520509
v -0.09727898 0.42006516 0.7939714
v 0.13290255 0.10558273 0.87843174
v 0.10818596 0.42750573 0.75499636
v -0.09727898 0.6581205 0.54178333
v -0.09727898 0.6242359 0.20181017
v 0.21984574 0.40735355 0.6351816
v 0.049732294 0.6206024 0.520509
v -0.09727898 0.31851366 -0.051093593
v 0.034138434 0.58824575 0.23552927
v 0.09727898 0.0093196165 0.00052707584
v 0.02850757 0.34356803 -0.03110138
v 0.15904112 0.29896894 0.10363192
v 0.12655768 0.4996457 0.30124035
v 0.13584274 0.53898305 0.48723266
v 0.22502565 0.32180476 0.43958622
v 0.22363974 0.042266417 0.07088776
v 0.23395897 0.027496746 0.26061925
v 0.22141504 -0.0849473 0.1130587
v 0.20875086 0.22475262 0.25477263
vn 0.47805366 -0.5444497 0.689231
vn 0.8477826 -0.37045687 0.37950793
vn 0.8797723 -0.47482204 0.023335619
vn 0.9089454 0.026590995 0.4160663
vn 0.47590697 -0.87556803 0.08302502
vn 0.99815434 -0.033650562 -0.050552957
vn 0.43177998 -0.8547057 -0.288174
vn 0.8713502 -0.46725667 -0.1497331
vn -0 -0.99507266 0.099147715
vn -0 -0.9369496 -0.34946463
vn 0.36553574 -0.56497663 -0.7397195
vn -0 -0.63716835 -0.77072465
vn -0.4317799 -0.85470575 -0.288174
vn -0.36553574 -0.56497663 -0.7397195
vn -0.3497456 -0.09918306 -0.9315797
vn -0 -0.16692922 -0.9859688
vn -0.39610323 0.35994023 -0.844716
vn -0.8492808 -0.36961925 -0.37696648
vn -0.8627859 0.030491881 -0.50464916
vn -0.47590694 -0.87556803 0.083025016
vn -0.8713501 -0.46725672 -0.14973308
vn -0.9952349 0.008723355 -0.09711536
vn -0 -0.60385 0.79709804
vn -0.8797724 -0.474822 0.023335623
vn -0.96383756 0.21418995 -0.15855502
vn -0.99815434 -0.03365046 -0.050552893
vn -0.8477827 -0.37045673 0.37950787
vn -0.8294395 0.3176008 -0.4595211
vn -0.8149383 0.5218951 -0.25199437
vn -0.95879626 0.25394392 -0.12736672
vn -0.4780536 -0.5444496 0.68923104
vn -0.44718266 0.09315036 0.889579
vn -0.9089454 0.026591092 0.41606626
vn -0.86191064 0.43798023 0.25550628
vn -0.7822691 0.6224278 0.025274426
vn -0.47306654 0.7904381 -0.38912165
vn -0.43891737 0.55669355 0.70529693
vn -0 0.101291575 0.99485683
vn -0.44262087 0.8677346 0.22610503
vn -0 0.5620569 0.82709855
vn 0.44718274 0.09315034 0.8895789
vn 0.4389174 0.55669355 0.70529693
vn -0 0.950173 0.311723
vn -0 0.8827967 -0.46975523
vn 0.86191064 0.43798023 0.25550625
vn 0.4426208 0.8677346 0.22610505
vn -0 0.25102997 -0.9679794
vn 0.47306657 0.7904381 -0.3891217
vn 0.3497455 -0.09918311 -0.9315797
vn 0.39610326 0.3599402 -0.84471613
vn 0.8294395 0.3176008 -0.4595211
vn 0.8149383 0.5218951 -0.25199437
vn 0.7822691 0.62242776 0.02527442
vn 0.95879626 0.25394392 -0.12736672
vn 0.8627859 0.030491818 -0.50464916
vn 0.9952349 0.008723335 -0.097115315
vn 0.8492808 -0.36961925 -0.3769665
vn 0.9638377 0.21418995 -0.15855494
g Retopo_Golem Head_0
f 3/3/3 2/2/2 1/1/1
f 1/1/1 2/2/2 4/4/4
f 4/4/4 2/2/2 3/3/3
f 5/5/5 3/3/3 1/1/1
f 6/6/6 4/4/4 3/3/3
f 3/3/3 5/5/5 7/7/7
f 6/6/6 3/3/3 8/8/8
f 8/8/8 3/3/3 7/7/7
f 5/5/5 1/1/1 9/9/9
f 7/7/7 5/5/5 10/10/10
f 5/5/5 9/9/9 10/10/10
f 7/7/7 11/11/11 8/8/8
f 7/7/7 10/10/10 12/12/12
f 11/11/11 7/7/7 12/12/12
f 13/13/13 10/10/10 9/9/9
f 14/14/14 12/12/12 10/10/10
f 13/13/13 14/14/14 10/10/10
f 14/14/14 15/15/15 12/12/12
f 11/11/11 12/12/12 16/16/16
f 15/15/15 16/16/16 12/12/12
f 16/16/16 15/15/15 17/17/17
f 15/15/15 14/14/14 18/18/18
f 14/14/14 13/13/13 18/18/18
f 15/15/15 19/19/19 17/17/17
f 19/19/19 15/15/15 18/18/18
f 20/20/20 13/13/13 9/9/9
f 13/13/13 21/21/21 18/18/18
f 21/21/21 13/13/13 20/20/20
f 21/21/21 22/22/22 18/18/18
f 22/22/22 19/19/19 18/18/18
f 20/20/20 9/9/9 23/23/23
f 1/1/1 23/23/23 9/9/9
f 24/24/24 21/21/21 20/20/20
f 22/22/22 21/21/21 24/24/24
f 19/19/19 22/22/22 25/25/25
f 26/26/26 22/22/22 24/24/24
f 22/22/22 26/26/26 25/25/25
f 24/24/24 20/20/20 27/27/27
f 26/26/26 24/24/24 27/27/27
f 19/19/19 28/28/28 17/17/17
f 28/28/28 19/19/19 25/25/25
f 29/29/29 28/28/28 25/25/25
f 28/28/28 29/29/29 17/17/17
f 26/26/26 30/30/30 25/25/25
f 30/30/30 29/29/29 25/25/25
f 31/31/31 20/20/20 23/23/23
f 20/20/20 31/31/31 27/27/27
f 31/31/31 23/23/23 32/32/32
f 31/31/31 32/32/32 27/27/27
f 33/33/33 26/26/26 27/27/27
f 30/30/30 26/26/26 33/33/33
f 32/32/32 33/33/33 27/27/27
f 34/34/34 30/30/30 33/33/33
f 34/34/34 33/33/33 32/32/32
f 29/29/29 30/30/30 35/35/35
f 30/30/30 34/34/34 35/35/35
f 29/29/29 36/36/36 17/17/17
f 36/36/36 29/29/29 35/35/35
f 34/34/34 37/37/37 35/35/35
f 37/37/37 34/34/34 32/32/32
f 23/23/23 38/38/38 32/32/32
f 23/23/23 1/1/1 38/38/38
f 37/37/37 39/39/39 35/35/35
f 39/39/39 36/36/36 35/35/35
f 40/40/40 37/37/37 32/32/32
f 39/39/39 37/37/37 40/40/40
f 38/38/38 40/40/40 32/32/32
f 1/1/1 41/41/41 38/38/38
f 41/41/41 1/1/1 4/4/4
f 38/38/38 41/41/41 42/42/42
f 40/40/40 38/38/38 42/42/42
f 42/42/42 41/41/41 4/4/4
f 43/43/43 39/39/39 40/40/40
f 36/36/36 39/39/39 43/43/43
f 43/43/43 40/40/40 42/42/42
f 36/36/36 44/44/44 17/17/17
f 44/44/44 36/36/36 43/43/43
f 45/45/45 42/42/42 4/4/4
f 45/45/45 4/4/4 6/6/6
f 46/46/46 43/43/43 42/42/42
f 44/44/44 43/43/43 46/46/46
f 42/42/42 45/45/45 46/46/46
f 44/44/44 47/47/47 17/17/17
f 47/47/47 16/16/16 17/17/17
f 48/48/48 44/44/44 46/46/46
f 44/44/44 48/48/48 47/47/47
f 16/16/16 47/47/47 49/49/49
f 49/49/49 11/11/11 16/16/16
f 48/48/48 50/50/50 47/47/47
f 47/47/47 50/50/50 49/49/49
f 51/51/51 50/50/50 48/48/48
f 49/49/49 50/50/50 51/51/51
f 48/48/48 46/46/46 52/52/52
f 52/52/52 51/51/51 48/48/48
f 45/45/45 53/53/53 46/46/46
f 46/46/46 53/53/53 52/52/52
f 52/52/52 53/53/53 45/45/45
f 54/54/54 52/52/52 45/45/45
f 52/52/52 54/54/54 51/51/51
f 54/54/54 45/45/45 6/6/6
f 49/49/49 55/55/55 11/11/11
f 55/55/55 49/49/49 51/51/51
f 6/6/6 56/56/56 54/54/54
f 55/55/55 51/51/51 56/56/56
f 56/56/56 6/6/6 8/8/8
f 56/56/56 8/8/8 55/55/55
f 11/11/11 57/57/57 8/8/8
f 8/8/8 57/57/57 55/55/55
f 55/55/55 57/57/57 11/11/11
f 54/54/54 58/58/58 51/51/51
f 56/56/56 58/58/58 54/54/54
f 51/51/51 58/58/58 56/56/56
