g Rock B Alternate
v 0.2621643 -3.7373223 9.98243
v 2.6334877 -2.8884907 9.32844
v 3.5174015 -4.634263 7.4925404
v -4.8987837 -1.2142464 9.490909
v -5.178566 0.38951597 8.354403
v -3.244824 -0.059462517 10.133587
v -3.244824 -0.059462517 10.133587
v -1.8263396 -4.0447426 9.273661
v -4.6185193 -1.9008098 9.379322
v 3.2898397 -1.794626 9.166037
v 0.2621643 -3.7373223 9.98243
v 2.7405272 -0.25216997 9.992139
v 2.7405272 -0.25216997 9.992139
v -1.4826893 2.7967212 9.422976
v 1.7194543 3.073085 9.6618805
v -3.244824 -0.059462517 10.133587
v -2.691851 1.7826816 9.486757
v 2.7405272 -0.25216997 9.992139
v -1.4826893 2.7967212 9.422976
v 2.7405272 -0.25216997 9.992139
v -2.691851 1.7826816 9.486757
v -3.244824 -0.059462517 10.133587
v -4.6185193 -1.9008098 9.379322
v -4.8987837 -1.2142464 9.490909
v 2.6334877 -2.8884907 9.32844
v 0.2621643 -3.7373223 9.98243
v 3.2898397 -1.794626 9.166037
v 2.7405272 -0.25216997 9.992139
v 0.2621643 -3.7373223 9.98243
v -3.244824 -0.059462517 10.133587
v -1.8263396 -4.0447426 9.273661
v -3.244824 -0.059462517 10.133587
v 0.2621643 -3.7373223 9.98243
v 4.311392 7.114284 -0.02554655
v 7.4013953 4.072981 -0.028998852
v 6.940152 3.6638708 1.3319039
v -9.129561 -0.117165685 -0.005671978
v -5.178566 0.38951597 8.354403
v -4.8987837 -1.2142464 9.490909
v 6.940152 3.6638708 1.3319039
v 6.148225 -2.0292778 3.5666964
v 5.865289 -1.7092464 4.609926
v 6.0840926 2.90344 4.308569
v 7.358425 -3.4355283 -0.05458975
v 6.148225 -2.0292778 3.5666964
v 6.940152 3.6638708 1.3319039
v 7.4013953 4.072981 -0.028998852
v 4.4274654 -3.4432943 7.1221275
v 3.5174015 -4.634263 7.4925404
v 2.6334877 -2.8884907 9.32844
v 3.2898397 -1.794626 9.166037
v -5.178566 0.38951597 8.354403
v -5.3011975 2.9177845 7.117154
v -2.691851 1.7826816 9.486757
v -3.244824 -0.059462517 10.133587
v 5.865289 -1.7092464 4.609926
v 4.4274654 -3.4432943 7.1221275
v 3.2898397 -1.794626 9.166037
v 5.379277 3.7748058 5.5720797
v 6.0840926 2.90344 4.308569
v -1.4826893 2.7967212 9.422976
v -3.5692503 5.4533267 6.8125396
v 2.494078 4.9619975 8.426903
v 1.7194543 3.073085 9.6618805
v -3.5692503 5.4533267 6.8125396
v -1.4826893 2.7967212 9.422976
v -2.691851 1.7826816 9.486757
v -5.3011975 2.9177845 7.117154
v -4.824948 5.723154 5.7094107
v -5.700096 4.683561 5.715415
v 3.5174015 -4.634263 7.4925404
v 3.6322012 -7.2911496 -0.03917408
v -4.4663863 -7.5157366 0.02248478
v -1.904149 -4.0708394 9.20704
v 0.2621643 -3.7373223 9.98243
v -1.8263396 -4.0447426 9.273661
v -1.904149 -4.0708394 9.20704
v -5.5293417 -3.3748732 7.312932
v -5.768348 -3.0469503 7.366526
v -4.6185193 -1.9008098 9.379322
v -1.8263396 -4.0447426 9.273661
v 5.1980577 4.182997 5.8485885
v 2.7405272 -0.25216997 9.992139
v 1.7194543 3.073085 9.6618805
v 2.494078 4.9619975 8.426903
v 3.5174015 -4.634263 7.4925404
v 4.4274654 -3.4432943 7.1221275
v 5.865289 -1.7092464 4.609926
v 6.148225 -2.0292778 3.5666964
v 7.358425 -3.4355283 -0.05458975
v 3.6322012 -7.2911496 -0.03917408
v 3.5174015 -4.634263 7.4925404
v 6.148225 -2.0292778 3.5666964
v 5.379277 3.7748058 5.5720797
v 3.2898397 -1.794626 9.166037
v 2.7405272 -0.25216997 9.992139
v 5.1980577 4.182997 5.8485885
v 6.0840926 2.90344 4.308569
v 5.379277 3.7748058 5.5720797
v 5.1980577 4.182997 5.8485885
v 2.494078 4.9619975 8.426903
v 6.0840926 2.90344 4.308569
v 2.494078 4.9619975 8.426903
v 4.311392 7.114284 -0.02554655
v 6.940152 3.6638708 1.3319039
v -4.6185193 -1.9008098 9.379322
v -5.768348 -3.0469503 7.366526
v -9.129561 -0.117165685 -0.005671978
v -4.8987837 -1.2142464 9.490909
v -9.129561 -0.117165685 -0.005671978
v -7.6433606 5.024439 -0.037495613
v -5.178566 0.38951597 8.354403
v -5.3011975 2.9177845 7.117154
v -5.700096 4.683561 5.715415
v -7.6433606 5.024439 -0.037495613
v -4.7940145 7.143074 -0.045704365
v -4.824948 5.723154 5.7094107
v -5.700096 4.683561 5.715415
v -4.824948 5.723154 5.7094107
v -4.7940145 7.143074 -0.045704365
v 4.311392 7.114284 -0.02554655
v 2.494078 4.9619975 8.426903
v -3.5692503 5.4533267 6.8125396
v -4.4663863 -7.5157366 0.02248478
v -7.028771 -5.790334 0.026801586
v -5.5293417 -3.3748732 7.312932
v -1.904149 -4.0708394 9.20704
v -7.028771 -5.790334 0.026801586
v -9.129561 -0.117165685 -0.005671978
v -5.768348 -3.0469503 7.366526
v -5.5293417 -3.3748732 7.312932
vt 0.7016497 0.76675266
vt 0.65726644 0.71539104
vt 0.6057321 0.7822665
vt 0.7588377 0.3721217
vt 0.6133578 0.13257903
vt 0.8540884 0.61742103
vt 0.8540884 0.61742103
vt 0.78866065 0.75750947
vt 0.86700255 0.68642056
vt 0.625 0.6831246
vt 0.7016497 0.76675266
vt 0.625 0.6231376
vt 0.625 0.6231376
vt 0.78820693 0.5163856
vt 0.684522 0.51639193
vt 0.8540884 0.61742103
vt 0.8292308 0.5574094
vt 0.625 0.6231376
vt 0.78820693 0.5163856
vt 0.625 0.6231376
vt 0.8292308 0.5574094
vt 0.8540884 0.61742103
vt 0.86700255 0.68642056
vt 0.8627831 0.661132
vt 0.65726644 0.71539104
vt 0.7016497 0.76675266
vt 0.625 0.6831246
vt 0.625 0.6231376
vt 0.7016497 0.76675266
vt 0.8540884 0.61742103
vt 0.78866065 0.75750947
vt 0.8540884 0.61742103
vt 0.7016497 0.76675266
vt 0.50185937 0.50637424
vt 0.5 0.5530243
vt 0.51916707 0.5657072
vt 0.5 0.1307564
vt 0.6133578 0.132579
vt 0.7588377 0.3721217
vt 0.51916707 0.5657072
vt 0.5508828 0.6744331
vt 0.5594303 0.6619831
vt 0.5470729 0.5657072
vt 0.5 0.68435746
vt 0.5508828 0.6744331
vt 0.51916707 0.5657072
vt 0.5 0.5530243
vt 0.5985217 0.7083819
vt 0.63799846 0.75
vt 0.65726644 0.71539104
vt 0.625 0.6831246
vt 0.6133578 0.13257903
vt 0.5995187 0.1925906
vt 0.8292308 0.5574094
vt 0.7183114 0.29926184
vt 0.5594303 0.66198313
vt 0.5985217 0.7083819
vt 0.625 0.6831246
vt 0.56369865 0.5531377
vt 0.5470729 0.5657072
vt 0.625 0.35317862
vt 0.59418184 0.29782337
vt 0.61314166 0.44076586
vt 0.625 0.43133777
vt 0.66223365 0.36587518
vt 0.74850494 0.44391236
vt 0.69012874 0.30348852
vt 0.5995187 0.1925906
vt 0.6122621 0.30471492
vt 0.58012885 0.22741836
vt 0.6057321 0.7822665
vt 0.5 0.81323725
vt 0.5 0.9514741
vt 0.61981815 0.9272103
vt 0.6149961 0.8534063
vt 0.6205157 0.92565453
vt 0.61981815 0.9062839
vt 0.6752699 0.26139805
vt 0.6919005 0.25688213
vt 0.86700255 0.68642056
vt 0.6205157 0.92565453
vt 0.5642382 0.5365005
vt 0.625 0.6231376
vt 0.625 0.45686996
vt 0.6131417 0.44076586
vt 0.56825376 0.7307264
vt 0.5648785 0.7044301
vt 0.5594303 0.66198313
vt 0.5508828 0.6744331
vt 0.5 0.68435746
vt 0.5 0.81323725
vt 0.6057321 0.7822665
vt 0.5508828 0.6744331
vt 0.56369865 0.55313766
vt 0.625 0.6831246
vt 0.625 0.6231376
vt 0.5642382 0.5365005
vt 0.5470729 0.5657072
vt 0.56369865 0.55313766
vt 0.5642382 0.5365005
vt 0.5831572 0.49877363
vt 0.5470729 0.5657072
vt 0.61314166 0.44076586
vt 0.5 0.44623086
vt 0.51916707 0.5657072
vt 0.712613 0.24900326
vt 0.6341226 0.09318556
vt 0.5 0.1307564
vt 0.7588377 0.3721217
vt 0.5 0.1307564
vt 0.5 0.21512099
vt 0.6133578 0.132579
vt 0.59951866 0.19259056
vt 0.58012885 0.22741836
vt 0.5 0.21512099
vt 0.5 0.28867245
vt 0.5801289 0.27258164
vt 0.58012885 0.22741836
vt 0.5801289 0.27258164
vt 0.5 0.28867245
vt 0.5 0.44623086
vt 0.61314166 0.44076586
vt 0.59418184 0.29782337
vt 0.5 0.9514741
vt 0.50130194 0.99927586
vt 0.588972 0.99600804
vt 0.61981815 0.9272103
vt 0.50130194 0.99927586
vt 0.5054556 1.0480999
vt 0.5871821 1
vt 0.588972 0.99600804
vn 0.40047523 -0.55997086 0.7252946
vn 0.40047523 -0.55997086 0.7252946
vn 0.40047523 -0.55997086 0.7252946
vn -0.56441265 0.4094787 0.71677446
vn -0.56441265 0.4094787 0.71677446
vn -0.56441265 0.4094787 0.71677446
vn -0.1670878 -0.26442042 0.9498228
vn -0.1670878 -0.26442042 0.9498228
vn -0.1670878 -0.26442042 0.9498228
vn 0.42538908 -0.30487692 0.8521116
vn 0.42538908 -0.30487692 0.8521116
vn 0.42538908 -0.30487692 0.8521116
vn -0.08054538 0.07398945 0.994001
vn -0.08054538 0.07398945 0.994001
vn -0.08054538 0.07398945 0.994001
vn 0.032735877 0.32235897 0.94605124
vn 0.032735877 0.32235897 0.94605124
vn 0.032735877 0.32235897 0.94605124
vn -0.047624648 0.11916721 0.99173135
vn -0.047624648 0.11916721 0.99173135
vn -0.047624648 0.11916721 0.99173135
vn -0.20334984 -0.23739563 0.94989055
vn -0.20334984 -0.23739563 0.94989055
vn -0.20334984 -0.23739563 0.94989055
vn 0.27273554 -0.020844063 0.9618632
vn 0.27273554 -0.020844063 0.9618632
vn 0.27273554 -0.020844063 0.9618632
vn 0.023005027 -0.019144012 0.99955195
vn 0.023005027 -0.019144012 0.99955195
vn 0.023005027 -0.019144012 0.99955195
vn -0.2682015 -0.29345262 0.9175802
vn -0.2682015 -0.29345262 0.9175802
vn -0.2682015 -0.29345262 0.9175802
vn 0.63943696 0.6492087 0.41188374
vn 0.63943696 0.6492087 0.41188374
vn 0.63943696 0.6492087 0.41188374
vn -0.9083088 0.13852455 0.3946974
vn -0.9083088 0.13852455 0.3946974
vn -0.9083088 0.13852455 0.3946974
vn 0.9625484 -0.028041406 0.269656
vn 0.9625484 -0.028041406 0.269656
vn 0.9625484 -0.028041406 0.269656
vn 0.9625484 -0.028041406 0.269656
vn 0.9476561 -0.0065112463 0.3192264
vn 0.9476561 -0.0065112463 0.3192264
vn 0.9476561 -0.0065112463 0.3192264
vn 0.9476561 -0.0065112463 0.3192264
vn 0.69236326 -0.32436126 0.64453304
vn 0.69236326 -0.32436126 0.64453304
vn 0.69236326 -0.32436126 0.64453304
vn 0.69236326 -0.32436126 0.64453304
vn -0.5500966 0.37568912 0.7458226
vn -0.5500966 0.37568912 0.7458226
vn -0.5500966 0.37568912 0.7458226
vn -0.5500966 0.37568912 0.7458226
vn 0.8705789 -0.009156209 0.49194375
vn 0.8705789 -0.009156209 0.49194375
vn 0.8705789 -0.009156209 0.49194375
vn 0.8705789 -0.009156209 0.49194375
vn 0.8705789 -0.009156209 0.49194375
vn -0.14083934 0.6154198 0.77551454
vn -0.14083934 0.6154198 0.77551454
vn -0.14083934 0.6154198 0.77551454
vn -0.14083934 0.6154198 0.77551454
vn -0.4754107 0.45257124 0.7544296
vn -0.4754107 0.45257124 0.7544296
vn -0.4754107 0.45257124 0.7544296
vn -0.4754107 0.45257124 0.7544296
vn -0.4754107 0.45257124 0.7544296
vn -0.4754107 0.45257124 0.7544296
vn 0.020780187 -0.9397614 0.341199
vn 0.020780187 -0.9397614 0.341199
vn 0.020780187 -0.9397614 0.341199
vn 0.020780187 -0.9397614 0.341199
vn 0.020780187 -0.9397614 0.341199
vn 0.020780187 -0.9397614 0.341199
vn -0.46507064 -0.6086424 0.64285594
vn -0.46507064 -0.6086424 0.64285594
vn -0.46507064 -0.6086424 0.64285594
vn -0.46507064 -0.6086424 0.64285594
vn -0.46507064 -0.6086424 0.64285594
vn 0.68147206 0.23977563 0.6914502
vn 0.68147206 0.23977563 0.6914502
vn 0.68147206 0.23977563 0.6914502
vn 0.68147206 0.23977563 0.6914502
vn 0.8573783 -0.4592839 0.23229459
vn 0.8573783 -0.4592839 0.23229459
vn 0.8573783 -0.4592839 0.23229459
vn 0.8573783 -0.4592839 0.23229459
vn 0.76502514 -0.5705219 0.2987328
vn 0.76502514 -0.5705219 0.2987328
vn 0.76502514 -0.5705219 0.2987328
vn 0.76502514 -0.5705219 0.2987328
vn 0.8499938 0.020789605 0.5263822
vn 0.8499938 0.020789605 0.5263822
vn 0.8499938 0.020789605 0.5263822
vn 0.8499938 0.020789605 0.5263822
vn -0.48833218 0.51219964 -0.7065289
vn -0.48833218 0.51219964 -0.7065289
vn -0.48833218 0.51219964 -0.7065289
vn -0.48833218 0.51219964 -0.7065289
vn 0.703838 0.6313758 0.32554054
vn 0.703838 0.6313758 0.32554054
vn 0.703838 0.6313758 0.32554054
vn 0.703838 0.6313758 0.32554054
vn -0.9083088 0.13852455 0.3946974
vn -0.9083088 0.13852455 0.3946974
vn -0.9083088 0.13852455 0.3946974
vn -0.9083088 0.13852455 0.3946974
vn -0.9083088 0.13852455 0.3946974
vn -0.9083088 0.13852455 0.3946974
vn -0.9083088 0.13852455 0.3946974
vn -0.9083088 0.13852455 0.3946974
vn -0.9083088 0.13852455 0.3946974
vn -0.63059974 0.7446497 0.21872503
vn -0.63059974 0.7446497 0.21872503
vn -0.63059974 0.7446497 0.21872503
vn -0.63059974 0.7446497 0.21872503
vn 0.00648563 0.9699042 0.24340059
vn 0.00648563 0.9699042 0.24340059
vn 0.00648563 0.9699042 0.24340059
vn 0.00648563 0.9699042 0.24340059
vn 0.00648563 0.9699042 0.24340059
vn -0.43691245 -0.808018 0.39523956
vn -0.43691245 -0.808018 0.39523956
vn -0.43691245 -0.808018 0.39523956
vn -0.43691245 -0.808018 0.39523956
vn -0.89302194 -0.3491838 0.2838705
vn -0.89302194 -0.3491838 0.2838705
vn -0.89302194 -0.3491838 0.2838705
vn -0.89302194 -0.3491838 0.2838705
g Rock B Alternate_0
f 3/3/3 2/2/2 1/1/1
f 6/6/6 5/5/5 4/4/4
f 9/9/9 8/8/8 7/7/7
f 12/12/12 11/11/11 10/10/10
f 15/15/15 14/14/14 13/13/13
f 18/18/18 17/17/17 16/16/16
f 21/21/21 20/20/20 19/19/19
f 24/24/24 23/23/23 22/22/22
f 27/27/27 26/26/26 25/25/25
f 30/30/30 29/29/29 28/28/28
f 33/33/33 32/32/32 31/31/31
f 36/36/36 35/35/35 34/34/34
f 39/39/39 38/38/38 37/37/37
f 42/42/42 41/41/41 40/40/40
f 43/43/43 42/42/42 40/40/40
f 46/46/46 45/45/45 44/44/44
f 47/47/47 46/46/46 44/44/44
f 50/50/50 49/49/49 48/48/48
f 48/48/48 51/51/51 50/50/50
f 54/54/54 53/53/53 52/52/52
f 55/55/55 54/54/54 52/52/52
f 58/58/58 57/57/57 56/56/56
f 56/56/56 59/59/59 58/58/58
f 56/56/56 60/60/60 59/59/59
f 63/63/63 62/62/62 61/61/61
f 64/64/64 63/63/63 61/61/61
f 67/67/67 66/66/66 65/65/65
f 65/65/65 68/68/68 67/67/67
f 65/65/65 69/69/69 68/68/68
f 69/69/69 70/70/70 68/68/68
f 73/73/73 72/72/72 71/71/71
f 71/71/71 74/74/74 73/73/73
f 71/71/71 75/75/75 74/74/74
f 75/75/75 76/76/76 74/74/74
f 79/79/79 78/78/78 77/77/77
f 77/77/77 80/80/80 79/79/79
f 77/77/77 81/81/81 80/80/80
f 84/84/84 83/83/83 82/82/82
f 82/82/82 85/85/85 84/84/84
f 88/88/88 87/87/87 86/86/86
f 89/89/89 88/88/88 86/86/86
f 92/92/92 91/91/91 90/90/90
f 93/93/93 92/92/92 90/90/90
f 96/96/96 95/95/95 94/94/94
f 97/97/97 96/96/96 94/94/94
f 100/100/100 99/99/99 98/98/98
f 101/101/101 100/100/100 98/98/98
f 104/104/104 103/103/103 102/102/102
f 105/105/105 104/104/104 102/102/102
f 108/108/108 107/107/107 106/106/106
f 106/106/106 109/109/109 108/108/108
f 112/112/112 111/111/111 110/110/110
f 112/112/112 113/113/113 111/111/111
f 113/113/113 114/114/114 111/111/111
f 117/117/117 116/116/116 115/115/115
f 118/118/118 117/117/117 115/115/115
f 121/121/121 120/120/120 119/119/119
f 119/119/119 122/122/122 121/121/121
f 119/119/119 123/123/123 122/122/122
f 126/126/126 125/125/125 124/124/124
f 127/127/127 126/126/126 124/124/124
f 130/130/130 129/129/129 128/128/128
f 131/131/131 130/130/130 128/128/128
