g Royal Forge
v -4.239665 0.54875886 3.522328
v -4.239665 0.2660038 3.522328
v -4.239665 0.54875886 3.2401474
v -4.239665 1.1390738 3.169354
v -4.239665 0.8563188 3.169354
v -4.239665 1.1390738 2.8871734
v -4.239665 1.7067136 2.828775
v -4.239665 1.4239585 2.828775
v -4.239665 1.7067136 2.5465944
v -4.239665 2.2970285 2.475801
v -4.239665 2.0142734 2.475801
v -4.239665 2.2970285 2.1936204
v 1.8017852 1.7067136 2.828775
v 1.8017852 1.7067136 2.5465944
v 1.8017852 1.4239585 2.828775
v 1.8017852 2.2970285 2.475801
v 1.8017852 2.2970285 2.1936204
v 1.8017852 2.0142734 2.475801
v -4.239665 -0.53040457 3.522328
v -4.239665 -0.53040457 3.2401474
v -4.239665 -0.24764943 3.522328
v -4.239665 -1.1207194 3.169354
v -4.239665 -1.1207194 2.8871734
v -4.239665 -0.8379643 3.169354
v -4.239665 -1.6883591 2.828775
v -4.239665 -1.6883591 2.5465944
v -4.239665 -1.4056041 2.828775
v -4.239665 -2.2786741 2.475801
v -4.239665 -2.2786741 2.1936204
v -4.239665 -1.995919 2.475801
v 1.8017855 -1.6883591 2.828775
v 1.8017855 -1.4056041 2.828775
v 1.8017855 -1.6883591 2.5465944
v 1.8017855 -2.2786741 2.475801
v 1.8017855 -1.995919 2.475801
v 1.8017855 -2.2786741 2.1936204
v -6.437721 1.2427984 2.1732726
v -6.437721 1 2.1732726
v -6.437721 1.2427984 1.8823541
v -6.437721 -1.2427984 2.1732726
v -6.437721 -1.2427984 1.8823541
v -6.437721 -1 2.1732726
v -6.437721 0.6799797 2.5016017
v -6.437721 0.43718123 2.5016017
v -6.437721 0.6799797 2.2106833
v -6.437721 -0.7075805 2.5055382
v -6.437721 -0.7075805 2.2146196
v -6.437721 -0.46478206 2.5055382
v -4.2688465 0 3.759564
v -4.2688465 1.8188558 1.753575
v -4.2688465 2.441746 2.3345678
v -4.2688465 0 2.8150542
v -4.2688465 -2.441746 2.3345678
v -4.2688465 -1.8188558 1.753575
v -4.2688465 2.441746 -0.04459393
v 1.8556049 2.441746 -0.04459393
v 1.8556049 2.441746 2.3345678
v -4.2688465 2.441746 2.3345678
v 1.8556049 0 -0.04459393
v 1.8556049 -2.441746 -0.04459393
v 1.8556049 -2.441746 2.3345678
v 1.8556049 0 3.759564
v 1.8556049 2.441746 -0.04459393
v 1.8556049 2.441746 2.3345678
v 1.8556049 -2.441746 -0.04459393
v -4.2688465 -2.441746 -0.04459393
v -4.2688465 -2.441746 2.3345678
v 1.8556049 -2.441746 2.3345678
v 1.8556049 0 3.759564
v 1.8556049 -2.441746 2.3345678
v -4.2688465 -2.441746 2.3345678
v -4.2688465 0 3.759564
v 1.8556049 2.441746 2.3345678
v 1.8556049 0 3.759564
v -4.2688465 0 3.759564
v -4.2688465 2.441746 2.3345678
v 3.1942432 2.7992911 -0.15356103
v 5.6185007 1.399645 -0.15356103
v 5.6185007 1.399645 1.1364353
v 3.1942432 2.7992911 1.1364353
v 5.6185007 1.399645 -0.15356103
v 5.6185007 -1.3996472 -0.15356103
v 5.6185007 -1.3996472 1.1364353
v 5.6185007 1.399645 1.1364353
v 5.6185007 -1.3996472 -0.15356103
v 3.1942432 -2.799293 -0.15356103
v 3.1942432 -2.799293 1.1364353
v 5.6185007 -1.3996472 1.1364353
v 3.1942432 -2.799293 -0.15356103
v 0.7699851 -2.8135579 -0.15356103
v 0.7699851 -2.8135579 1.1364353
v 3.1942432 -2.799293 1.1364353
v 5.6185007 -1.3996472 1.1364353
v 4.923907 -0.99862313 2.43933
v 4.923907 0.99862105 2.43933
v 5.6185007 1.399645 1.1364353
v 0.7699851 -2.8135579 -0.15356103
v 0.7699851 2.813556 -0.15356103
v 0.7699851 2.813556 1.1364353
v 0.7699851 -2.8135579 1.1364353
v 0.7699851 2.813556 -0.15356103
v 3.1942432 2.7992911 -0.15356103
v 3.1942432 2.7992911 1.1364353
v 0.7699851 2.813556 1.1364353
v 4.923907 0.99862105 2.43933
v 4.923907 0.99862105 3.5968642
v 3.1942432 1.997243 3.5968642
v 3.1942432 1.997243 2.43933
v 0.7699851 2.813556 1.1364353
v 1.464579 0.9986209 2.43933
v 1.464579 -0.9986228 2.43933
v 0.7699851 -2.8135579 1.1364353
v 5.6185007 1.399645 1.1364353
v 4.923907 0.99862105 2.43933
v 3.1942432 1.997243 2.43933
v 3.1942432 2.7992911 1.1364353
v 3.1942432 -2.799293 1.1364353
v 3.1942432 -1.9972452 2.43933
v 4.923907 -0.99862313 2.43933
v 5.6185007 -1.3996472 1.1364353
v 3.1942432 2.7992911 1.1364353
v 3.1942432 1.997243 2.43933
v 1.464579 0.9986209 2.43933
v 0.7699851 2.813556 1.1364353
v 0.7699851 -2.8135579 1.1364353
v 1.464579 -0.9986228 2.43933
v 3.1942432 -1.9972452 2.43933
v 3.1942432 -2.799293 1.1364353
v 1.464579 0.9986209 3.5968642
v 2.5699034 0.36046153 4.789974
v 2.5699034 -0.3604635 4.789974
v 1.464579 -0.9986228 3.5968642
v 3.1942432 1.997243 2.43933
v 3.1942432 1.997243 3.5968642
v 1.464579 0.9986209 3.5968642
v 1.464579 0.9986209 2.43933
v 1.464579 -0.9986228 2.43933
v 1.464579 -0.9986228 3.5968642
v 3.1942432 -1.9972452 3.5968642
v 3.1942432 -1.9972452 2.43933
v 4.923907 -0.99862313 2.43933
v 4.923907 -0.99862313 3.5968642
v 4.923907 0.99862105 3.5968642
v 4.923907 0.99862105 2.43933
v 1.464579 0.9986209 2.43933
v 1.464579 0.9986209 3.5968642
v 1.464579 -0.9986228 3.5968642
v 1.464579 -0.9986228 2.43933
v 3.1942432 -1.9972452 2.43933
v 3.1942432 -1.9972452 3.5968642
v 4.923907 -0.99862313 3.5968642
v 4.923907 -0.99862313 2.43933
v 3.194243 0.72092426 4.789974
v 3.194243 0.4661631 4.789974
v 2.790533 0.23308095 4.789974
v 2.5699034 0.36046153 4.789974
v 2.790533 -0.23308297 4.789974
v 2.5699034 -0.3604635 4.789974
v 3.194243 -0.46616498 4.789974
v 3.194243 -0.72092617 4.789974
v 3.5979526 -0.23308304 4.789974
v 3.8185823 -0.36046362 4.789974
v 3.5979526 0.233081 4.789974
v 3.8185823 0.3604616 4.789974
v 3.194243 0.4661631 4.789974
v 3.194243 0.72092426 4.789974
v 3.1942432 -1.9972452 3.5968642
v 3.194243 -0.72092617 4.789974
v 3.8185823 -0.36046362 4.789974
v 4.923907 -0.99862313 3.5968642
v 4.923907 0.99862105 3.5968642
v 3.8185823 0.3604616 4.789974
v 3.194243 0.72092426 4.789974
v 3.1942432 1.997243 3.5968642
v 3.1942432 1.997243 3.5968642
v 3.194243 0.72092426 4.789974
v 2.5699034 0.36046153 4.789974
v 1.464579 0.9986209 3.5968642
v 1.464579 -0.9986228 3.5968642
v 2.5699034 -0.3604635 4.789974
v 3.194243 -0.72092617 4.789974
v 3.1942432 -1.9972452 3.5968642
v 4.923907 -0.99862313 3.5968642
v 3.8185823 -0.36046362 4.789974
v 3.8185823 0.3604616 4.789974
v 4.923907 0.99862105 3.5968642
v 2.790533 0.23308095 4.789974
v 2.7905333 0.23308095 5.875724
v 2.7905333 -0.23308297 5.875724
v 2.790533 -0.23308297 4.789974
v 3.1942432 0.4661631 5.875724
v 3.1942432 0.29493257 5.875724
v 2.9388232 0.14746572 5.875724
v 2.7905333 0.23308095 5.875724
v 2.9388232 -0.14746773 5.875724
v 2.7905333 -0.23308297 5.875724
v 3.1942432 -0.29493448 5.875724
v 3.1942432 -0.46616498 5.875724
v 3.449663 -0.14746778 5.875724
v 3.5979528 -0.23308304 5.875724
v 3.449663 0.14746575 5.875724
v 3.5979528 0.233081 5.875724
v 3.1942432 0.29493257 5.875724
v 3.1942432 0.4661631 5.875724
v 3.194243 -0.46616498 4.789974
v 3.1942432 -0.46616498 5.875724
v 3.5979528 -0.23308304 5.875724
v 3.5979526 -0.23308304 4.789974
v 3.5979526 0.233081 4.789974
v 3.5979528 0.233081 5.875724
v 3.1942432 0.4661631 5.875724
v 3.194243 0.4661631 4.789974
v 3.194243 0.4661631 4.789974
v 3.1942432 0.4661631 5.875724
v 2.7905333 0.23308095 5.875724
v 2.790533 0.23308095 4.789974
v 2.790533 -0.23308297 4.789974
v 2.7905333 -0.23308297 5.875724
v 3.1942432 -0.46616498 5.875724
v 3.194243 -0.46616498 4.789974
v 3.5979526 -0.23308304 4.789974
v 3.5979528 -0.23308304 5.875724
v 3.5979528 0.233081 5.875724
v 3.5979526 0.233081 4.789974
v 2.9388232 0.14746572 5.875724
v 2.938823 0.14746572 4.8092737
v 2.938823 -0.14746773 4.8092737
v 2.9388232 -0.14746773 5.875724
v 3.194243 0.29493257 4.8092737
v 3.4496627 0.14746575 4.8092737
v 3.4496627 -0.14746778 4.8092737
v 3.194243 -0.29493448 4.8092737
v 2.938823 0.14746572 4.8092737
v 2.938823 -0.14746773 4.8092737
v 3.1942432 -0.29493448 5.875724
v 3.194243 -0.29493448 4.8092737
v 3.4496627 -0.14746778 4.8092737
v 3.449663 -0.14746778 5.875724
v 3.449663 0.14746575 5.875724
v 3.4496627 0.14746575 4.8092737
v 3.194243 0.29493257 4.8092737
v 3.1942432 0.29493257 5.875724
v 3.1942432 0.29493257 5.875724
v 3.194243 0.29493257 4.8092737
v 2.938823 0.14746572 4.8092737
v 2.9388232 0.14746572 5.875724
v 2.9388232 -0.14746773 5.875724
v 2.938823 -0.14746773 4.8092737
v 3.194243 -0.29493448 4.8092737
v 3.1942432 -0.29493448 5.875724
v 3.449663 -0.14746778 5.875724
v 3.4496627 -0.14746778 4.8092737
v 3.4496627 0.14746575 4.8092737
v 3.449663 0.14746575 5.875724
v -4.2688465 0 2.8150542
v -6.470725 0 2.8150542
v -6.470725 1.8188558 1.753575
v -4.2688465 1.8188558 1.753575
v -4.2688465 2.441746 2.3345678
v -4.2688465 1.8188558 1.753575
v -4.2688465 1.8188558 -0.046000466
v -4.2688465 2.441746 -0.04459393
v -4.2688465 -2.441746 -0.04459393
v -4.2688465 -1.8188558 -0.046000466
v -4.2688465 -1.8188558 1.753575
v -4.2688465 -2.441746 2.3345678
v -6.470725 0 -0.046000466
v -6.470725 1.8188558 -0.046000466
v -6.470725 1.8188558 1.753575
v -6.470725 0 2.8150542
v -6.470725 -1.8188558 -0.046000466
v -6.470725 -1.8188558 1.753575
v -4.2688465 -1.8188558 1.753575
v -6.470725 -1.8188558 1.753575
v -6.470725 0 2.8150542
v -4.2688465 0 2.8150542
v -4.2688465 1.8188558 1.753575
v -6.470725 1.8188558 1.753575
v -6.470725 1.8188558 -0.046000466
v -4.2688465 1.8188558 -0.046000466
v -4.2688465 -1.8188558 -0.046000466
v -6.470725 -1.8188558 -0.046000466
v -6.470725 -1.8188558 1.753575
v -4.2688465 -1.8188558 1.753575
v 3.194243 1.3823214 4.314981
v 3.194243 0.8938352 4.314981
v 2.4201584 0.44691688 4.314981
v 1.9971167 0.69116 4.314981
v 2.4201584 -0.44691893 4.314981
v 1.9971167 -0.69116193 4.314981
v 3.194243 -0.8938369 4.314981
v 3.194243 -1.3823233 4.314981
v 3.9683273 -0.44691908 4.314981
v 4.391369 -0.69116217 4.314981
v 3.9683273 0.44691697 4.314981
v 4.391369 0.69116014 4.314981
v 3.194243 0.8938352 4.314981
v 3.194243 1.3823214 4.314981
v 1.9971167 0.69116 4.314981
v 1.9971167 0.69116 4.0428877
v 3.194243 1.3823214 4.0428877
v 3.194243 1.3823214 4.314981
v 4.391369 -0.69116217 4.314981
v 4.391369 -0.69116217 4.0428877
v 3.194243 -1.3823233 4.0428877
v 3.194243 -1.3823233 4.314981
v 1.9971167 -0.69116193 4.314981
v 1.9971167 -0.69116193 4.0428877
v 1.9971167 0.69116 4.0428877
v 1.9971167 0.69116 4.314981
v 3.194243 1.3823214 4.314981
v 3.194243 1.3823214 4.0428877
v 4.391369 0.69116014 4.0428877
v 4.391369 0.69116014 4.314981
v 3.194243 -1.3823233 4.314981
v 3.194243 -1.3823233 4.0428877
v 1.9971167 -0.69116193 4.0428877
v 1.9971167 -0.69116193 4.314981
v 4.391369 0.69116014 4.314981
v 4.391369 0.69116014 4.0428877
v 4.391369 -0.69116217 4.0428877
v 4.391369 -0.69116217 4.314981
v 1.0470796 -1.2396661 1.832244
v 1.0470796 -1.2396661 1.5223371
v 1.0470796 1.2396643 1.5223371
v 1.0470796 1.2396643 1.832244
v 5.341406 -1.2396667 1.832244
v 5.341406 -1.2396667 1.5223371
v 3.1942432 -2.479332 1.5223371
v 3.1942432 -2.479332 1.832244
v 3.1942432 2.47933 1.832244
v 3.1942432 2.47933 1.5223371
v 5.341406 1.2396644 1.5223371
v 5.341406 1.2396644 1.832244
v 1.0470796 1.2396643 1.832244
v 1.0470796 1.2396643 1.5223371
v 3.1942432 2.47933 1.5223371
v 3.1942432 2.47933 1.832244
v 3.1942432 -2.479332 1.832244
v 3.1942432 -2.479332 1.5223371
v 1.0470796 -1.2396661 1.5223371
v 1.0470796 -1.2396661 1.832244
v 5.341406 1.2396644 1.832244
v 5.341406 1.2396644 1.5223371
v 5.341406 -1.2396667 1.5223371
v 5.341406 -1.2396667 1.832244
v 1.8847866 0.54875886 3.522328
v 1.8847866 0.2660038 3.522328
v -4.239665 0.2660038 3.522328
v -4.239665 0.54875886 3.522328
v -4.239665 0.54875886 3.522328
v -4.239665 0.54875886 3.2401474
v 1.8847866 0.54875886 3.2401474
v 1.8847866 0.54875886 3.522328
v 1.8847866 1.1390738 3.169354
v 1.8847866 0.8563188 3.169354
v -4.239665 0.8563188 3.169354
v -4.239665 1.1390738 3.169354
v -4.239665 1.1390738 3.169354
v -4.239665 1.1390738 2.8871734
v 1.8847866 1.1390738 2.8871734
v 1.8847866 1.1390738 3.169354
v 1.8017852 1.7067136 2.828775
v 1.8017852 1.4239585 2.828775
v -4.239665 1.4239585 2.828775
v -4.239665 1.7067136 2.828775
v -4.239665 1.7067136 2.828775
v -4.239665 1.7067136 2.5465944
v 1.8017852 1.7067136 2.5465944
v 1.8017852 1.7067136 2.828775
v 1.8017852 2.2970285 2.475801
v 1.8017852 2.0142734 2.475801
v -4.239665 2.0142734 2.475801
v -4.239665 2.2970285 2.475801
v -4.239665 2.2970285 2.475801
v -4.239665 2.2970285 2.1936204
v 1.8017852 2.2970285 2.1936204
v 1.8017852 2.2970285 2.475801
v 1.8847866 -0.53040457 3.522328
v -4.239665 -0.53040457 3.522328
v -4.239665 -0.24764943 3.522328
v 1.8847866 -0.24764943 3.522328
v -4.239665 -0.53040457 3.522328
v 1.8847866 -0.53040457 3.522328
v 1.8847866 -0.53040457 3.2401474
v -4.239665 -0.53040457 3.2401474
v 1.8847866 -1.1207194 3.169354
v -4.239665 -1.1207194 3.169354
v -4.239665 -0.8379643 3.169354
v 1.8847866 -0.8379643 3.169354
v -4.239665 -1.1207194 3.169354
v 1.8847866 -1.1207194 3.169354
v 1.8847866 -1.1207194 2.8871734
v -4.239665 -1.1207194 2.8871734
v 1.8017855 -1.6883591 2.828775
v -4.239665 -1.6883591 2.828775
v -4.239665 -1.4056041 2.828775
v 1.8017855 -1.4056041 2.828775
v -4.239665 -1.6883591 2.828775
v 1.8017855 -1.6883591 2.828775
v 1.8017855 -1.6883591 2.5465944
v -4.239665 -1.6883591 2.5465944
v 1.8017855 -2.2786741 2.475801
v -4.239665 -2.2786741 2.475801
v -4.239665 -1.995919 2.475801
v 1.8017855 -1.995919 2.475801
v -4.239665 -2.2786741 2.475801
v 1.8017855 -2.2786741 2.475801
v 1.8017855 -2.2786741 2.1936204
v -4.239665 -2.2786741 2.1936204
v -4.235842 -1 2.1732726
v -4.235842 -1.2427984 2.1732726
v -6.437721 -1.2427984 2.1732726
v -6.437721 -1 2.1732726
v -4.235842 1 2.1732726
v -6.437721 1 2.1732726
v -6.437721 1.2427984 2.1732726
v -4.235842 1.2427984 2.1732726
v -4.235842 -1.2427984 2.1732726
v -4.235842 -1.2427984 1.8823541
v -6.437721 -1.2427984 1.8823541
v -6.437721 -1.2427984 2.1732726
v -6.437721 1.2427984 2.1732726
v -6.437721 1.2427984 1.8823541
v -4.235842 1.2427984 1.8823541
v -4.235842 1.2427984 2.1732726
v -4.235842 0.43718123 2.5016017
v -6.437721 0.43718123 2.5016017
v -6.437721 0.6799797 2.5016017
v -4.235842 0.6799797 2.5016017
v -6.437721 0.6799797 2.5016017
v -6.437721 0.6799797 2.2106833
v -4.235842 0.6799797 2.2106833
v -4.235842 0.6799797 2.5016017
v -4.235842 -0.46478206 2.5055382
v -4.235842 -0.7075805 2.5055382
v -6.437721 -0.7075805 2.5055382
v -6.437721 -0.46478206 2.5055382
v -4.235842 -0.7075805 2.5055382
v -4.235842 -0.7075805 2.2146196
v -6.437721 -0.7075805 2.2146196
v -6.437721 -0.7075805 2.5055382
v -5.749495 1.7841424 0.04376243
v -5.749495 1.9296244 0.04376243
v -5.749495 1.9296244 1.1691828
v -5.749495 1.7841424 1.1691828
v -0.7184803 2.5560112 0.04376243
v -0.04592055 2.5560112 0.04376243
v -0.04592055 2.5560112 1.1691828
v -0.7184803 2.5560112 1.1691828
v -0.7184803 2.4105291 0.04376243
v -0.7184803 2.5560112 0.04376243
v -0.7184803 2.5560112 1.1691828
v -0.7184803 2.4105291 1.1691828
v -0.04592055 2.4105291 1.1691828
v -0.04592055 2.5560112 1.1691828
v -0.04592055 2.5560112 0.04376243
v -0.04592055 2.4105291 0.04376243
v -5.749495 1.9296244 0.04376243
v -5.0769353 1.9296244 0.04376243
v -5.0769353 1.9296244 1.1691828
v -5.749495 1.9296244 1.1691828
v -0.7184803 2.4105291 1.1691828
v -0.7184803 2.5560112 1.1691828
v -0.04592055 2.5560112 1.1691828
v -0.04592055 2.4105291 1.1691828
v -5.0769353 1.7841424 1.1691828
v -5.0769353 1.9296244 1.1691828
v -5.0769353 1.9296244 0.04376243
v -5.0769353 1.7841424 0.04376243
v -5.749495 1.7841424 1.1691828
v -5.749495 1.9296244 1.1691828
v -5.0769353 1.9296244 1.1691828
v -5.0769353 1.7841424 1.1691828
v -5.749495 -1.7930073 0.043762445
v -5.749495 -1.7930073 1.1691828
v -5.749495 -1.9384893 1.1691828
v -5.749495 -1.9384893 0.043762445
v -0.71848035 -2.564876 0.043762445
v -0.71848035 -2.564876 1.1691828
v -0.04592061 -2.564876 1.1691828
v -0.04592061 -2.564876 0.043762445
v -0.71848035 -2.419394 0.043762445
v -0.71848035 -2.419394 1.1691828
v -0.71848035 -2.564876 1.1691828
v -0.71848035 -2.564876 0.043762445
v -0.04592061 -2.419394 1.1691828
v -0.04592061 -2.419394 0.043762445
v -0.04592061 -2.564876 0.043762445
v -0.04592061 -2.564876 1.1691828
v -5.749495 -1.9384893 0.043762445
v -5.749495 -1.9384893 1.1691828
v -5.0769353 -1.9384893 1.1691828
v -5.0769353 -1.9384893 0.043762445
v -0.71848035 -2.419394 1.1691828
v -0.04592061 -2.419394 1.1691828
v -0.04592061 -2.564876 1.1691828
v -0.71848035 -2.564876 1.1691828
v -5.0769353 -1.7930073 1.1691828
v -5.0769353 -1.7930073 0.043762445
v -5.0769353 -1.9384893 0.043762445
v -5.0769353 -1.9384893 1.1691828
v -5.749495 -1.7930073 1.1691828
v -5.0769353 -1.7930073 1.1691828
v -5.0769353 -1.9384893 1.1691828
v -5.749495 -1.9384893 1.1691828
v -0.19015971 -0.52067584 2.859422
v -0.19015971 0.52067584 2.859422
v -0.19015971 0.52067584 4.9593534
v -0.19015971 -0.52067584 4.9593534
v -0.19015971 0.52067584 2.859422
v 0.851192 0.52067584 2.859422
v 0.851192 0.52067584 4.9593534
v -0.19015971 0.52067584 4.9593534
v 0.851192 0.52067584 2.859422
v 0.851192 -0.52067584 2.859422
v 0.851192 -0.52067584 4.9593534
v 0.851192 0.52067584 4.9593534
v 0.851192 -0.52067584 2.859422
v -0.19015971 -0.52067584 2.859422
v -0.19015971 -0.52067584 4.9593534
v 0.851192 -0.52067584 4.9593534
v -0.0066583157 -0.33717445 4.9593534
v -0.0066583157 -0.33717445 4.2748547
v 0.6676906 -0.33717445 4.2748547
v 0.6676906 -0.33717445 4.9593534
v 0.6676906 0.33717445 4.2748547
v 0.6676906 -0.33717445 4.2748547
v -0.0066583157 -0.33717445 4.2748547
v -0.0066583157 0.33717445 4.2748547
v 0.6676906 0.33717445 4.9593534
v 0.6676906 0.33717445 4.2748547
v -0.0066583157 0.33717445 4.2748547
v -0.0066583157 0.33717445 4.9593534
v 0.6676906 -0.33717445 4.9593534
v 0.6676906 -0.33717445 4.2748547
v 0.6676906 0.33717445 4.2748547
v 0.6676906 0.33717445 4.9593534
v -0.0066583157 0.33717445 4.9593534
v -0.0066583157 0.33717445 4.2748547
v -0.0066583157 -0.33717445 4.2748547
v -0.0066583157 -0.33717445 4.9593534
v -2.0976458 -0.52067584 2.859422
v -2.0976458 0.52067584 2.859422
v -2.0976458 0.52067584 4.9593534
v -2.0976458 -0.52067584 4.9593534
v -2.0976458 0.52067584 2.859422
v -1.056294 0.52067584 2.859422
v -1.056294 0.52067584 4.9593534
v -2.0976458 0.52067584 4.9593534
v -1.056294 0.52067584 2.859422
v -1.056294 -0.52067584 2.859422
v -1.056294 -0.52067584 4.9593534
v -1.056294 0.52067584 4.9593534
v -1.056294 -0.52067584 2.859422
v -2.0976458 -0.52067584 2.859422
v -2.0976458 -0.52067584 4.9593534
v -1.056294 -0.52067584 4.9593534
v -1.9141442 -0.33717445 4.9593534
v -1.9141442 -0.33717445 4.2748547
v -1.2397953 -0.33717445 4.2748547
v -1.2397953 -0.33717445 4.9593534
v -1.2397953 0.33717445 4.2748547
v -1.2397953 -0.33717445 4.2748547
v -1.9141442 -0.33717445 4.2748547
v -1.9141442 0.33717445 4.2748547
v -1.2397953 0.33717445 4.9593534
v -1.2397953 0.33717445 4.2748547
v -1.9141442 0.33717445 4.2748547
v -1.9141442 0.33717445 4.9593534
v -1.2397953 -0.33717445 4.9593534
v -1.2397953 -0.33717445 4.2748547
v -1.2397953 0.33717445 4.2748547
v -1.2397953 0.33717445 4.9593534
v -1.9141442 0.33717445 4.9593534
v -1.9141442 0.33717445 4.2748547
v -1.9141442 -0.33717445 4.2748547
v -1.9141442 -0.33717445 4.9593534
v -3.8243475 -0.52067584 2.859422
v -3.8243475 0.52067584 2.859422
v -3.8243475 0.52067584 4.9593534
v -3.8243475 -0.52067584 4.9593534
v -3.8243475 0.52067584 2.859422
v -2.7829957 0.52067584 2.859422
v -2.7829957 0.52067584 4.9593534
v -3.8243475 0.52067584 4.9593534
v -2.7829957 0.52067584 2.859422
v -2.7829957 -0.52067584 2.859422
v -2.7829957 -0.52067584 4.9593534
v -2.7829957 0.52067584 4.9593534
v -2.7829957 -0.52067584 2.859422
v -3.8243475 -0.52067584 2.859422
v -3.8243475 -0.52067584 4.9593534
v -2.7829957 -0.52067584 4.9593534
v -3.6408458 -0.33717445 4.9593534
v -3.6408458 -0.33717445 4.2748547
v -2.966497 -0.33717445 4.2748547
v -2.966497 -0.33717445 4.9593534
v -2.966497 0.33717445 4.2748547
v -2.966497 -0.33717445 4.2748547
v -3.6408458 -0.33717445 4.2748547
v -3.6408458 0.33717445 4.2748547
v -2.966497 0.33717445 4.9593534
v -2.966497 0.33717445 4.2748547
v -3.6408458 0.33717445 4.2748547
v -3.6408458 0.33717445 4.9593534
v -2.966497 -0.33717445 4.9593534
v -2.966497 -0.33717445 4.2748547
v -2.966497 0.33717445 4.2748547
v -2.966497 0.33717445 4.9593534
v -3.6408458 0.33717445 4.9593534
v -3.6408458 0.33717445 4.2748547
v -3.6408458 -0.33717445 4.2748547
v -3.6408458 -0.33717445 4.9593534
v -2.966497 0.33717445 4.9593534
v -2.7829957 -0.52067584 4.9593534
v -2.966497 -0.33717445 4.9593534
v -2.7829957 0.52067584 4.9593534
v -3.8243475 -0.52067584 4.9593534
v -3.6408458 0.33717445 4.9593534
v -3.6408458 -0.33717445 4.9593534
v -3.8243475 0.52067584 4.9593534
v -1.2397953 0.33717445 4.9593534
v -1.056294 -0.52067584 4.9593534
v -1.2397953 -0.33717445 4.9593534
v -1.056294 0.52067584 4.9593534
v -2.0976458 -0.52067584 4.9593534
v -1.9141442 0.33717445 4.9593534
v -1.9141442 -0.33717445 4.9593534
v -2.0976458 0.52067584 4.9593534
v 0.6676906 0.33717445 4.9593534
v 0.851192 -0.52067584 4.9593534
v 0.6676906 -0.33717445 4.9593534
v 0.851192 0.52067584 4.9593534
v -0.19015971 -0.52067584 4.9593534
v -0.0066583157 0.33717445 4.9593534
v -0.0066583157 -0.33717445 4.9593534
v -0.19015971 0.52067584 4.9593534
v 1.240906 1.1277585 1.832244
v 1.0470796 1.2396643 1.832244
v 3.1942432 2.47933 1.832244
v 3.1942432 2.2555184 1.832244
v 1.240906 -1.1277604 1.832244
v 5.341406 1.2396644 1.832244
v 1.0470796 -1.2396661 1.832244
v 5.1475797 1.1277586 1.832244
v 3.1942432 -2.2555203 1.832244
v 5.341406 -1.2396667 1.832244
v 3.1942432 -2.479332 1.832244
v 5.1475797 -1.1277609 1.832244
vt 0 0
vt 0 0
vt 0 0
vt 0 0
vt 0 0
vt 0 0
vt 0 0
vt 0 0
vt 0 0
vt 0 0
vt 0 0
vt 0 0
vt 0 0
vt 0 0
vt 0 0
vt 0 0
vt 0 0
vt 0 0
vt 0 0
vt 0 0
vt 0 0
vt 0 0
vt 0 0
vt 0 0
vt 0 0
vt 0 0
vt 0 0
vt 0 0
vt 0 0
vt 0 0
vt 0 0
vt 0 0
vt 0 0
vt 0 0
vt 0 0
vt 0 0
vt 0 0
vt 0 0
vt 0 0
vt 0 0
vt 0 0
vt 0 0
vt 0 0
vt 0 0
vt 0 0
vt 0 0
vt 0 0
vt 0 0
vt 0.875 0.625
vt 0.875 0.5
vt 0.875 0.5
vt 0.875 0.625
vt 0.875 0.75
vt 0.875 0.75
vt 0.375 0.25
vt 0.375 0.5
vt 0.625 0.5
vt 0.625 0.25
vt 0.375 0.625
vt 0.375 0.75
vt 0.625 0.75
vt 0.625 0.625
vt 0.375 0.5
vt 0.625 0.5
vt 0.375 0.75
vt 0.375 1
vt 0.625 1
vt 0.625 0.75
vt 0.625 0.625
vt 0.625 0.75
vt 0.875 0.75
vt 0.875 0.625
vt 0.625 0.5
vt 0.625 0.625
vt 0.875 0.625
vt 0.875 0.5
vt 1 0.5
vt 0.8333333 0.5
vt 0.8333333 1
vt 1 1
vt 0.8333333 0.5
vt 0.6666666 0.5
vt 0.6666666 1
vt 0.8333333 1
vt 0.6666666 0.5
vt 0.49999994 0.5
vt 0.49999994 1
vt 0.6666666 1
vt 0.49999994 0.5
vt 0.33333325 0.5
vt 0.33333325 1
vt 0.49999994 1
vt 0.6666666 1
vt 0.6666666 1
vt 0.8333333 1
vt 0.8333333 1
vt 0.33333325 0.5
vt 0.16666658 0.5
vt 0.16666658 1
vt 0.33333325 1
vt 0.16666658 0.5
vt -8.940697E-08 0.5
vt -8.940697E-08 1
vt 0.16666658 1
vt 0.8333333 1
vt 0.8333333 1
vt 1 1
vt 1 1
vt 0.16666658 1
vt 0.16666658 1
vt 0.33333325 1
vt 0.33333325 1
vt 0.8333333 1
vt 0.8333333 1
vt 1 1
vt 1 1
vt 0.49999994 1
vt 0.49999994 1
vt 0.6666666 1
vt 0.6666666 1
vt -8.940697E-08 1
vt -8.940697E-08 1
vt 0.16666658 1
vt 0.16666658 1
vt 0.33333325 1
vt 0.33333325 1
vt 0.49999994 1
vt 0.49999994 1
vt 0.16666658 1
vt 0.16666658 1
vt 0.33333325 1
vt 0.33333325 1
vt -8.940697E-08 1
vt -8.940697E-08 1
vt 0.16666658 1
vt 0.16666658 1
vt 0.33333325 1
vt 0.33333325 1
vt 0.49999994 1
vt 0.49999994 1
vt 0.6666666 1
vt 0.6666666 1
vt 0.8333333 1
vt 0.8333333 1
vt 0.16666658 1
vt 0.16666658 1
vt 0.33333325 1
vt 0.33333325 1
vt 0.49999994 1
vt 0.49999994 1
vt 0.6666666 1
vt 0.6666666 1
vt -8.940697E-08 1
vt -8.940697E-08 1
vt 0.16666658 1
vt 0.16666658 1
vt 0.33333325 1
vt 0.33333325 1
vt 0.49999994 1
vt 0.49999994 1
vt 0.6666666 1
vt 0.6666666 1
vt 0.8333333 1
vt 0.8333333 1
vt 1 1
vt 1 1
vt 0.49999994 1
vt 0.49999994 1
vt 0.6666666 1
vt 0.6666666 1
vt 0.8333333 1
vt 0.8333333 1
vt 1 1
vt 1 1
vt -8.940697E-08 1
vt -8.940697E-08 1
vt 0.16666658 1
vt 0.16666658 1
vt 0.33333325 1
vt 0.33333325 1
vt 0.49999994 1
vt 0.49999994 1
vt 0.6666666 1
vt 0.6666666 1
vt 0.8333333 1
vt 0.8333333 1
vt 0.16666658 1
vt 0.16666658 1
vt 0.33333325 1
vt 0.33333325 1
vt -8.940697E-08 1
vt -8.940697E-08 1
vt 0.16666658 1
vt 0.16666658 1
vt 0.33333325 1
vt 0.33333325 1
vt 0.49999994 1
vt 0.49999994 1
vt 0.6666666 1
vt 0.6666666 1
vt 0.8333333 1
vt 0.8333333 1
vt 1 1
vt 1 1
vt 0.49999994 1
vt 0.49999994 1
vt 0.6666666 1
vt 0.6666666 1
vt 0.8333333 1
vt 0.8333333 1
vt 1 1
vt 1 1
vt -8.940697E-08 1
vt -8.940697E-08 1
vt 0.16666658 1
vt 0.16666658 1
vt 0.33333325 1
vt 0.33333325 1
vt 0.49999994 1
vt 0.49999994 1
vt 0.6666666 1
vt 0.6666666 1
vt 0.8333333 1
vt 0.8333333 1
vt 0.16666658 1
vt 0.16666658 1
vt 0.33333325 1
vt 0.33333325 1
vt 0.25 0.49
vt 0.4578461 0.36999997
vt 0.4578461 0.13
vt 0.24999999 0.010000005
vt 0.042153895 0.36999997
vt 0.042153895 0.13000003
vt 0.49999994 1
vt 0.49999994 1
vt 0.6666666 1
vt 0.6666666 1
vt 0.8333333 1
vt 0.8333333 1
vt 1 1
vt 1 1
vt -8.940697E-08 1
vt -8.940697E-08 1
vt 0.16666658 1
vt 0.16666658 1
vt 0.33333325 1
vt 0.33333325 1
vt 0.49999994 1
vt 0.49999994 1
vt 0.6666666 1
vt 0.6666666 1
vt 0.8333333 1
vt 0.8333333 1
vt 0.875 0.625
vt 0.875 0.625
vt 0.875 0.5
vt 0.875 0.5
vt 0.625 0.25
vt 0.625 0.25
vt 0.375 0.25
vt 0.375 0.25
vt 0.375 1
vt 0.375 1
vt 0.625 1
vt 0.625 1
vt 0.375 0.125
vt 0.375 0.25
vt 0.625 0.25
vt 0.625 0.125
vt 0.375 0
vt 0.625 0
vt 0.875 0.75
vt 0.875 0.75
vt 0.875 0.625
vt 0.875 0.625
vt 0.625 0.25
vt 0.625 0.25
vt 0.375 0.25
vt 0.375 0.25
vt 0.375 1
vt 0.375 1
vt 0.625 1
vt 0.625 1
vt -8.940697E-08 1
vt -8.940697E-08 1
vt 0.16666658 1
vt 0.16666658 1
vt 0.33333325 1
vt 0.33333325 1
vt 0.49999994 1
vt 0.49999994 1
vt 0.6666666 1
vt 0.6666666 1
vt 0.8333333 1
vt 0.8333333 1
vt 1 1
vt 1 1
vt 0.16666658 1
vt 0.16666658 1
vt -8.940697E-08 1
vt -8.940697E-08 1
vt 0.6666666 1
vt 0.6666666 1
vt 0.49999994 1
vt 0.49999994 1
vt 0.33333325 1
vt 0.33333325 1
vt 0.16666658 1
vt 0.16666658 1
vt 1 1
vt 1 1
vt 0.8333333 1
vt 0.8333333 1
vt 0.49999994 1
vt 0.49999994 1
vt 0.33333325 1
vt 0.33333325 1
vt 0.8333333 1
vt 0.8333333 1
vt 0.6666666 1
vt 0.6666666 1
vt 0 0
vt 0 0
vt 0 0
vt 0 0
vt 0 0
vt 0 0
vt 0 0
vt 0 0
vt 0 0
vt 0 0
vt 0 0
vt 0 0
vt 0 0
vt 0 0
vt 0 0
vt 0 0
vt 0 0
vt 0 0
vt 0 0
vt 0 0
vt 0 0
vt 0 0
vt 0 0
vt 0 0
vt 0 0
vt 0 0
vt 0 0
vt 0 0
vt 0 0
vt 0 0
vt 0 0
vt 0 0
vt 0 0
vt 0 0
vt 0 0
vt 0 0
vt 0 0
vt 0 0
vt 0 0
vt 0 0
vt 0 0
vt 0 0
vt 0 0
vt 0 0
vt 0 0
vt 0 0
vt 0 0
vt 0 0
vt 0 0
vt 0 0
vt 0 0
vt 0 0
vt 0 0
vt 0 0
vt 0 0
vt 0 0
vt 0 0
vt 0 0
vt 0 0
vt 0 0
vt 0 0
vt 0 0
vt 0 0
vt 0 0
vt 0 0
vt 0 0
vt 0 0
vt 0 0
vt 0 0
vt 0 0
vt 0 0
vt 0 0
vt 0 0
vt 0 0
vt 0 0
vt 0 0
vt 0 0
vt 0 0
vt 0 0
vt 0 0
vt 0 0
vt 0 0
vt 0 0
vt 0 0
vt 0 0
vt 0 0
vt 0 0
vt 0 0
vt 0 0
vt 0 0
vt 0 0
vt 0 0
vt 0 0
vt 0 0
vt 0 0
vt 0 0
vt 0 0
vt 0 0
vt 0 0
vt 0 0
vt 0 0
vt 0 0
vt 0 0
vt 0 0
vt 0 0
vt 0 0
vt 0 0
vt 0 0
vt 0 0
vt 0 0
vt 0 0
vt 0 0
vt 0 0
vt 0 0
vt 0 0
vt 0 0
vt 0 0
vt 0 0
vt 0 0
vt 0 0
vt 0.375 0.25
vt 0.375 0.25
vt 0.625 0.25
vt 0.625 0.25
vt 0.375 0.25
vt 0.375 0.5
vt 0.625 0.5
vt 0.625 0.25
vt 0.375 0.25
vt 0.375 0.25
vt 0.625 0.25
vt 0.625 0.25
vt 0.625 0.5
vt 0.625 0.5
vt 0.375 0.5
vt 0.375 0.5
vt 0.375 0.25
vt 0.375 0.5
vt 0.625 0.5
vt 0.625 0.25
vt 0.625 0.25
vt 0.625 0.25
vt 0.625 0.5
vt 0.625 0.5
vt 0.625 0.5
vt 0.625 0.5
vt 0.375 0.5
vt 0.375 0.5
vt 0.625 0.25
vt 0.625 0.25
vt 0.625 0.5
vt 0.625 0.5
vt 0.375 0.25
vt 0.625 0.25
vt 0.625 0.25
vt 0.375 0.25
vt 0.375 0.25
vt 0.625 0.25
vt 0.625 0.5
vt 0.375 0.5
vt 0.375 0.25
vt 0.625 0.25
vt 0.625 0.25
vt 0.375 0.25
vt 0.625 0.5
vt 0.375 0.5
vt 0.375 0.5
vt 0.625 0.5
vt 0.375 0.25
vt 0.625 0.25
vt 0.625 0.5
vt 0.375 0.5
vt 0.625 0.25
vt 0.625 0.5
vt 0.625 0.5
vt 0.625 0.25
vt 0.625 0.5
vt 0.375 0.5
vt 0.375 0.5
vt 0.625 0.5
vt 0.625 0.25
vt 0.625 0.5
vt 0.625 0.5
vt 0.625 0.25
vt 0.375 0
vt 0.375 0.25
vt 0.625 0.25
vt 0.625 0
vt 0.375 0.25
vt 0.375 0.5
vt 0.625 0.5
vt 0.625 0.25
vt 0.375 0.5
vt 0.375 0.75
vt 0.625 0.75
vt 0.625 0.5
vt 0.375 0.75
vt 0.375 1
vt 0.625 1
vt 0.625 0.75
vt 0.8309463 0.7059463
vt 0.8309463 0.7059463
vt 0.6690536 0.70594627
vt 0.6690536 0.70594627
vt 0.6690536 0.5440536
vt 0.6690536 0.70594627
vt 0.8309463 0.7059463
vt 0.83094627 0.5440537
vt 0.6690536 0.5440536
vt 0.6690536 0.5440536
vt 0.83094627 0.5440537
vt 0.83094627 0.5440537
vt 0.6690536 0.70594627
vt 0.6690536 0.70594627
vt 0.6690536 0.5440536
vt 0.6690536 0.5440536
vt 0.83094627 0.5440537
vt 0.83094627 0.5440537
vt 0.8309463 0.7059463
vt 0.8309463 0.7059463
vt 0.375 0
vt 0.375 0.25
vt 0.625 0.25
vt 0.625 0
vt 0.375 0.25
vt 0.375 0.5
vt 0.625 0.5
vt 0.625 0.25
vt 0.375 0.5
vt 0.375 0.75
vt 0.625 0.75
vt 0.625 0.5
vt 0.375 0.75
vt 0.375 1
vt 0.625 1
vt 0.625 0.75
vt 0.8309463 0.7059463
vt 0.8309463 0.7059463
vt 0.6690536 0.70594627
vt 0.6690536 0.70594627
vt 0.6690536 0.5440536
vt 0.6690536 0.70594627
vt 0.8309463 0.7059463
vt 0.83094627 0.5440537
vt 0.6690536 0.5440536
vt 0.6690536 0.5440536
vt 0.83094627 0.5440537
vt 0.83094627 0.5440537
vt 0.6690536 0.70594627
vt 0.6690536 0.70594627
vt 0.6690536 0.5440536
vt 0.6690536 0.5440536
vt 0.83094627 0.5440537
vt 0.83094627 0.5440537
vt 0.8309463 0.7059463
vt 0.8309463 0.7059463
vt 0.375 0
vt 0.375 0.25
vt 0.625 0.25
vt 0.625 0
vt 0.375 0.25
vt 0.375 0.5
vt 0.625 0.5
vt 0.625 0.25
vt 0.375 0.5
vt 0.375 0.75
vt 0.625 0.75
vt 0.625 0.5
vt 0.375 0.75
vt 0.375 1
vt 0.625 1
vt 0.625 0.75
vt 0.8309463 0.7059463
vt 0.8309463 0.7059463
vt 0.6690536 0.70594627
vt 0.6690536 0.70594627
vt 0.6690536 0.5440536
vt 0.6690536 0.70594627
vt 0.8309463 0.7059463
vt 0.83094627 0.5440537
vt 0.6690536 0.5440536
vt 0.6690536 0.5440536
vt 0.83094627 0.5440537
vt 0.83094627 0.5440537
vt 0.6690536 0.70594627
vt 0.6690536 0.70594627
vt 0.6690536 0.5440536
vt 0.6690536 0.5440536
vt 0.83094627 0.5440537
vt 0.83094627 0.5440537
vt 0.8309463 0.7059463
vt 0.8309463 0.7059463
vt 0.6690536 0.5440536
vt 0.625 0.75
vt 0.6690536 0.70594627
vt 0.625 0.5
vt 0.875 0.75
vt 0.83094627 0.5440537
vt 0.8309463 0.7059463
vt 0.875 0.5
vt 0.6690536 0.5440536
vt 0.625 0.75
vt 0.6690536 0.70594627
vt 0.625 0.5
vt 0.875 0.75
vt 0.83094627 0.5440537
vt 0.8309463 0.7059463
vt 0.875 0.5
vt 0.6690536 0.5440536
vt 0.625 0.75
vt 0.6690536 0.70594627
vt 0.625 0.5
vt 0.875 0.75
vt 0.83094627 0.5440537
vt 0.8309463 0.7059463
vt 0.875 0.5
vt 0 0
vt 0 0
vt 0 0
vt 0 0
vt 0 0
vt 0 0
vt 0 0
vt 0 0
vt 0 0
vt 0 0
vt 0 0
vt 0 0
vn -1 0 0
vn -1 0 0
vn -1 0 0
vn -1 0 0
vn -1 0 0
vn -1 0 0
vn -1 0 0
vn -1 0 0
vn -1 0 0
vn -1 0 0
vn -1 0 0
vn -1 0 0
vn 1 0 0
vn 1 0 0
vn 1 0 0
vn 1 0 0
vn 1 0 0
vn 1 0 0
vn -1 0 0
vn -1 0 0
vn -1 0 0
vn -1 0 0
vn -1 0 0
vn -1 0 0
vn -1 0 0
vn -1 0 0
vn -1 0 0
vn -1 0 0
vn -1 0 0
vn -1 0 0
vn 1 0 0
vn 1 0 0
vn 1 0 0
vn 1 0 0
vn 1 0 0
vn 1 0 0
vn -1 0 0
vn -1 0 0
vn -1 0 0
vn -1 0 0
vn -1 0 0
vn -1 0 0
vn -1 0 0
vn -1 0 0
vn -1 0 0
vn -1 0 0
vn -1 0 0
vn -1 0 0
vn -1 0 0
vn -1 0 0
vn -1 0 0
vn -1 0 0
vn -1 0 0
vn -1 0 0
vn -0 1 0
vn -0 1 0
vn -0 1 0
vn -0 1 0
vn 1 0 0
vn 1 0 0
vn 1 0 0
vn 1 0 0
vn 1 0 0
vn 1 0 0
vn -0 -1 0
vn -0 -1 0
vn -0 -1 0
vn -0 -1 0
vn -0 -0.504041 0.86367965
vn -0 -0.504041 0.86367965
vn -0 -0.504041 0.86367965
vn -0 -0.504041 0.86367965
vn -0 0.504041 0.86367965
vn -0 0.504041 0.86367965
vn -0 0.504041 0.86367965
vn -0 0.504041 0.86367965
vn 0.50000006 0.8660253 0
vn 0.50000006 0.8660253 0
vn 0.50000006 0.8660253 0
vn 0.50000006 0.8660253 0
vn 1 0 0
vn 1 0 0
vn 1 0 0
vn 1 0 0
vn 0.49999997 -0.86602545 0
vn 0.49999997 -0.86602545 0
vn 0.49999997 -0.86602545 0
vn 0.49999997 -0.86602545 0
vn 0.0058841 -0.9999827 0
vn 0.0058841 -0.9999827 0
vn 0.0058841 -0.9999827 0
vn 0.0058841 -0.9999827 0
vn 0.8824326 0 0.4704388
vn 0.8824326 0 0.4704388
vn 0.8824326 0 0.4704388
vn 0.8824326 0 0.4704388
vn -1 0 0
vn -1 0 0
vn -1 0 0
vn -1 0 0
vn 0.0058841 0.9999827 0
vn 0.0058841 0.9999827 0
vn 0.0058841 0.9999827 0
vn 0.0058841 0.9999827 0
vn 0.5000001 0.8660253 0
vn 0.5000001 0.8660253 0
vn 0.5000001 0.8660253 0
vn 0.5000001 0.8660253 0
vn -0.8824326 0 0.47043887
vn -0.8824326 0 0.47043887
vn -0.8824326 0 0.47043887
vn -0.8824326 0 0.47043887
vn 0.44121632 0.7642091 0.47043872
vn 0.44121632 0.7642091 0.47043872
vn 0.44121632 0.7642091 0.47043872
vn 0.44121632 0.7642091 0.47043872
vn 0.4412163 -0.76420903 0.47043878
vn 0.4412163 -0.76420903 0.47043878
vn 0.4412163 -0.76420903 0.47043878
vn 0.4412163 -0.76420903 0.47043878
vn -0.15992446 0.6748703 0.72039866
vn -0.15992446 0.6748703 0.72039866
vn -0.15992446 0.6748703 0.72039866
vn -0.15992446 0.6748703 0.72039866
vn -0.15992449 -0.6748703 0.7203986
vn -0.15992449 -0.6748703 0.7203986
vn -0.15992449 -0.6748703 0.7203986
vn -0.15992449 -0.6748703 0.7203986
vn -0.7335791 0 0.6796042
vn -0.7335791 0 0.6796042
vn -0.7335791 0 0.6796042
vn -0.7335791 0 0.6796042
vn -0.5 0.86602545 0
vn -0.5 0.86602545 0
vn -0.5 0.86602545 0
vn -0.5 0.86602545 0
vn -0.50000006 -0.8660253 0
vn -0.50000006 -0.8660253 0
vn -0.50000006 -0.8660253 0
vn -0.50000006 -0.8660253 0
vn 1 0 0
vn 1 0 0
vn 1 0 0
vn 1 0 0
vn -1 0 0
vn -1 0 0
vn -1 0 0
vn -1 0 0
vn 0.5000001 -0.8660253 0
vn 0.5000001 -0.8660253 0
vn 0.5000001 -0.8660253 0
vn 0.5000001 -0.8660253 0
vn -0 0 1
vn -0 0 1
vn -0 0 1
vn -0 0 1
vn -0 0 1
vn -0 0 1
vn -0 0 1
vn -0 0 1
vn -0 0 1
vn -0 0 1
vn -0 0 1
vn -0 0 1
vn -0 0 1
vn -0 0 1
vn 0.36678946 -0.6352979 0.6796043
vn 0.36678946 -0.6352979 0.6796043
vn 0.36678946 -0.6352979 0.6796043
vn 0.36678946 -0.6352979 0.6796043
vn 0.36678964 0.63529783 0.6796043
vn 0.36678964 0.63529783 0.6796043
vn 0.36678964 0.63529783 0.6796043
vn 0.36678964 0.63529783 0.6796043
vn -0.36678955 0.63529783 0.67960435
vn -0.36678955 0.63529783 0.67960435
vn -0.36678955 0.63529783 0.67960435
vn -0.36678955 0.63529783 0.67960435
vn -0.36678958 -0.63529783 0.6796044
vn -0.36678958 -0.63529783 0.6796044
vn -0.36678958 -0.63529783 0.6796044
vn -0.36678958 -0.63529783 0.6796044
vn 0.73357886 0 0.6796043
vn 0.73357886 0 0.6796043
vn 0.73357886 0 0.6796043
vn 0.73357886 0 0.6796043
vn -1 0 0
vn -1 0 0
vn -1 0 0
vn -1 0 0
vn -0 0 1
vn -0 0 1
vn -0 0 1
vn -0 0 1
vn -0 0 1
vn -0 0 1
vn -0 0 1
vn -0 0 1
vn -0 0 1
vn -0 0 1
vn -0 0 1
vn -0 0 1
vn -0 0 1
vn -0 0 1
vn 0.49999964 -0.8660256 0
vn 0.49999964 -0.8660256 0
vn 0.49999964 -0.8660256 0
vn 0.49999964 -0.8660256 0
vn 0.5 0.86602545 0
vn 0.5 0.86602545 0
vn 0.5 0.86602545 0
vn 0.5 0.86602545 0
vn -0.50000024 0.86602527 0
vn -0.50000024 0.86602527 0
vn -0.50000024 0.86602527 0
vn -0.50000024 0.86602527 0
vn -0.50000006 -0.86602545 0
vn -0.50000006 -0.86602545 0
vn -0.50000006 -0.86602545 0
vn -0.50000006 -0.86602545 0
vn 1 0 0
vn 1 0 0
vn 1 0 0
vn 1 0 0
vn 1 0 0
vn 1 0 0
vn 1 0 0
vn 1 0 0
vn -0 0 1
vn -0 0 1
vn -0 0 1
vn -0 0 1
vn -0 0 1
vn -0 0 1
vn -0.50000024 0.86602527 0
vn -0.50000024 0.86602527 0
vn -0.50000024 0.86602527 0
vn -0.50000024 0.86602527 0
vn -0.50000066 -0.8660251 0
vn -0.50000066 -0.8660251 0
vn -0.50000066 -0.8660251 0
vn -0.50000066 -0.8660251 0
vn 0.5000003 -0.86602527 0
vn 0.5000003 -0.86602527 0
vn 0.5000003 -0.86602527 0
vn 0.5000003 -0.86602527 0
vn 0.5000002 0.8660253 0
vn 0.5000002 0.8660253 0
vn 0.5000002 0.8660253 0
vn 0.5000002 0.8660253 0
vn -1 0 0
vn -1 0 0
vn -1 0 0
vn -1 0 0
vn -0 0.5040411 0.86367965
vn -0 0.5040411 0.86367965
vn -0 0.5040411 0.86367965
vn -0 0.5040411 0.86367965
vn -1 0 0
vn -1 0 0
vn -1 0 0
vn -1 0 0
vn -1 0 0
vn -1 0 0
vn -1 0 0
vn -1 0 0
vn -1 0 0
vn -1 0 0
vn -1 0 0
vn -1 0 0
vn -1 0 0
vn -1 0 0
vn -0 -0.5040411 0.86367965
vn -0 -0.5040411 0.86367965
vn -0 -0.5040411 0.86367965
vn -0 -0.5040411 0.86367965
vn -0 1 0
vn -0 1 0
vn -0 1 0
vn -0 1 0
vn -0 -1 0
vn -0 -1 0
vn -0 -1 0
vn -0 -1 0
vn -0 0 1
vn -0 0 1
vn -0 0 1
vn -0 0 1
vn -0 0 1
vn -0 0 1
vn -0 0 1
vn -0 0 1
vn -0 0 1
vn -0 0 1
vn -0 0 1
vn -0 0 1
vn -0 0 1
vn -0 0 1
vn -0.49999997 0.86602545 0
vn -0.49999997 0.86602545 0
vn -0.49999997 0.86602545 0
vn -0.49999997 0.86602545 0
vn 0.50000006 -0.8660253 0
vn 0.50000006 -0.8660253 0
vn 0.50000006 -0.8660253 0
vn 0.50000006 -0.8660253 0
vn -1 0 0
vn -1 0 0
vn -1 0 0
vn -1 0 0
vn 0.50000006 0.8660253 0
vn 0.50000006 0.8660253 0
vn 0.50000006 0.8660253 0
vn 0.50000006 0.8660253 0
vn -0.49999997 -0.86602545 0
vn -0.49999997 -0.86602545 0
vn -0.49999997 -0.86602545 0
vn -0.49999997 -0.86602545 0
vn 1 0 0
vn 1 0 0
vn 1 0 0
vn 1 0 0
vn -1 0 0
vn -1 0 0
vn -1 0 0
vn -1 0 0
vn 0.49999997 -0.86602545 0
vn 0.49999997 -0.86602545 0
vn 0.49999997 -0.86602545 0
vn 0.49999997 -0.86602545 0
vn 0.5000002 0.86602527 0
vn 0.5000002 0.86602527 0
vn 0.5000002 0.86602527 0
vn 0.5000002 0.86602527 0
vn -0.5000001 0.8660253 0
vn -0.5000001 0.8660253 0
vn -0.5000001 0.8660253 0
vn -0.5000001 0.8660253 0
vn -0.5000002 -0.86602527 0
vn -0.5000002 -0.86602527 0
vn -0.5000002 -0.86602527 0
vn -0.5000002 -0.86602527 0
vn 1 0 0
vn 1 0 0
vn 1 0 0
vn 1 0 0
vn -0 0 1
vn -0 0 1
vn -0 0 1
vn -0 0 1
vn -0 1 0
vn -0 1 0
vn -0 1 0
vn -0 1 0
vn -0 0 1
vn -0 0 1
vn -0 0 1
vn -0 0 1
vn -0 1 0
vn -0 1 0
vn -0 1 0
vn -0 1 0
vn -0 0 1
vn -0 0 1
vn -0 0 1
vn -0 0 1
vn -0 1 0
vn -0 1 0
vn -0 1 0
vn -0 1 0
vn -0 0 1
vn -0 0 1
vn -0 0 1
vn -0 0 1
vn -0 1 0
vn -0 1 0
vn -0 1 0
vn -0 1 0
vn -0 0 1
vn -0 0 1
vn -0 0 1
vn -0 0 1
vn -0 -1 0
vn -0 -1 0
vn -0 -1 0
vn -0 -1 0
vn -0 0 1
vn -0 0 1
vn -0 0 1
vn -0 0 1
vn -0 -1 0
vn -0 -1 0
vn -0 -1 0
vn -0 -1 0
vn -0 0 1
vn -0 0 1
vn -0 0 1
vn -0 0 1
vn -0 -1 0
vn -0 -1 0
vn -0 -1 0
vn -0 -1 0
vn -0 0 1
vn -0 0 1
vn -0 0 1
vn -0 0 1
vn -0 -1 0
vn -0 -1 0
vn -0 -1 0
vn -0 -1 0
vn -0 0 1
vn -0 0 1
vn -0 0 1
vn -0 0 1
vn -0 0 1
vn -0 0 1
vn -0 0 1
vn -0 0 1
vn -0 -1 0
vn -0 -1 0
vn -0 -1 0
vn -0 -1 0
vn -0 1 0
vn -0 1 0
vn -0 1 0
vn -0 1 0
vn -0 0 1
vn -0 0 1
vn -0 0 1
vn -0 0 1
vn -0 1 0
vn -0 1 0
vn -0 1 0
vn -0 1 0
vn -0 0 1
vn -0 0 1
vn -0 0 1
vn -0 0 1
vn -0 -1 0
vn -0 -1 0
vn -0 -1 0
vn -0 -1 0
vn -1 0 0
vn -1 0 0
vn -1 0 0
vn -1 0 0
vn -0 1 0
vn -0 1 0
vn -0 1 0
vn -0 1 0
vn -1 0 0
vn -1 0 0
vn -1 0 0
vn -1 0 0
vn 1 0 0
vn 1 0 0
vn 1 0 0
vn 1 0 0
vn -0 1 0
vn -0 1 0
vn -0 1 0
vn -0 1 0
vn -0 0 1
vn -0 0 1
vn -0 0 1
vn -0 0 1
vn 1 0 0
vn 1 0 0
vn 1 0 0
vn 1 0 0
vn -0 0 1
vn -0 0 1
vn -0 0 1
vn -0 0 1
vn -1 0 0
vn -1 0 0
vn -1 0 0
vn -1 0 0
vn -0 -1 0
vn -0 -1 0
vn -0 -1 0
vn -0 -1 0
vn -1 0 0
vn -1 0 0
vn -1 0 0
vn -1 0 0
vn 1 0 0
vn 1 0 0
vn 1 0 0
vn 1 0 0
vn -0 -1 0
vn -0 -1 0
vn -0 -1 0
vn -0 -1 0
vn -0 0 1
vn -0 0 1
vn -0 0 1
vn -0 0 1
vn 1 0 0
vn 1 0 0
vn 1 0 0
vn 1 0 0
vn -0 0 1
vn -0 0 1
vn -0 0 1
vn -0 0 1
vn -1 0 0
vn -1 0 0
vn -1 0 0
vn -1 0 0
vn -0 1 0
vn -0 1 0
vn -0 1 0
vn -0 1 0
vn 1 0 0
vn 1 0 0
vn 1 0 0
vn 1 0 0
vn -0 -1 0
vn -0 -1 0
vn -0 -1 0
vn -0 -1 0
vn -0 1 0
vn -0 1 0
vn -0 1 0
vn -0 1 0
vn -0 0 1
vn -0 0 1
vn -0 0 1
vn -0 0 1
vn -0 -1 0
vn -0 -1 0
vn -0 -1 0
vn -0 -1 0
vn -1 0 0
vn -1 0 0
vn -1 0 0
vn -1 0 0
vn 1 0 0
vn 1 0 0
vn 1 0 0
vn 1 0 0
vn -1 0 0
vn -1 0 0
vn -1 0 0
vn -1 0 0
vn -0 1 0
vn -0 1 0
vn -0 1 0
vn -0 1 0
vn 1 0 0
vn 1 0 0
vn 1 0 0
vn 1 0 0
vn -0 -1 0
vn -0 -1 0
vn -0 -1 0
vn -0 -1 0
vn -0 1 0
vn -0 1 0
vn -0 1 0
vn -0 1 0
vn -0 0 1
vn -0 0 1
vn -0 0 1
vn -0 0 1
vn -0 -1 0
vn -0 -1 0
vn -0 -1 0
vn -0 -1 0
vn -1 0 0
vn -1 0 0
vn -1 0 0
vn -1 0 0
vn 1 0 0
vn 1 0 0
vn 1 0 0
vn 1 0 0
vn -1 0 0
vn -1 0 0
vn -1 0 0
vn -1 0 0
vn -0 1 0
vn -0 1 0
vn -0 1 0
vn -0 1 0
vn 1 0 0
vn 1 0 0
vn 1 0 0
vn 1 0 0
vn -0 -1 0
vn -0 -1 0
vn -0 -1 0
vn -0 -1 0
vn -0 1 0
vn -0 1 0
vn -0 1 0
vn -0 1 0
vn -0 0 1
vn -0 0 1
vn -0 0 1
vn -0 0 1
vn -0 -1 0
vn -0 -1 0
vn -0 -1 0
vn -0 -1 0
vn -1 0 0
vn -1 0 0
vn -1 0 0
vn -1 0 0
vn 1 0 0
vn 1 0 0
vn 1 0 0
vn 1 0 0
vn -0 0 1
vn -0 0 1
vn -0 0 1
vn -0 0 1
vn -0 0 1
vn -0 0 1
vn -0 0 1
vn -0 0 1
vn -0 0 1
vn -0 0 1
vn -0 0 1
vn -0 0 1
vn -0 0 1
vn -0 0 1
vn -0 0 1
vn -0 0 1
vn -0 0 1
vn -0 0 1
vn -0 0 1
vn -0 0 1
vn -0 0 1
vn -0 0 1
vn -0 0 1
vn -0 0 1
vn -0 0 1
vn -0 0 1
vn -0 0 1
vn -0 0 1
vn -0 0 1
vn -0 0 1
vn -0 0 1
vn -0 0 1
vn -0 0 1
vn -0 0 1
vn -0 0 1
vn -0 0 1
g Royal Forge_0
f 3/3/3 2/2/2 1/1/1
f 6/6/6 5/5/5 4/4/4
f 9/9/9 8/8/8 7/7/7
f 12/12/12 11/11/11 10/10/10
f 15/15/15 14/14/14 13/13/13
f 18/18/18 17/17/17 16/16/16
f 21/21/21 20/20/20 19/19/19
f 24/24/24 23/23/23 22/22/22
f 27/27/27 26/26/26 25/25/25
f 30/30/30 29/29/29 28/28/28
f 33/33/33 32/32/32 31/31/31
f 36/36/36 35/35/35 34/34/34
f 39/39/39 38/38/38 37/37/37
f 42/42/42 41/41/41 40/40/40
f 45/45/45 44/44/44 43/43/43
f 48/48/48 47/47/47 46/46/46
f 51/51/51 50/50/50 49/49/49
f 50/50/50 52/52/52 49/49/49
f 49/49/49 52/52/52 53/53/53
f 52/52/52 54/54/54 53/53/53
f 57/57/57 56/56/56 55/55/55
f 58/58/58 57/57/57 55/55/55
f 61/61/61 60/60/60 59/59/59
f 62/62/62 61/61/61 59/59/59
f 62/62/62 59/59/59 63/63/63
f 64/64/64 62/62/62 63/63/63
f 67/67/67 66/66/66 65/65/65
f 68/68/68 67/67/67 65/65/65
f 71/71/71 70/70/70 69/69/69
f 72/72/72 71/71/71 69/69/69
f 75/75/75 74/74/74 73/73/73
f 76/76/76 75/75/75 73/73/73
f 79/79/79 78/78/78 77/77/77
f 80/80/80 79/79/79 77/77/77
f 83/83/83 82/82/82 81/81/81
f 84/84/84 83/83/83 81/81/81
f 87/87/87 86/86/86 85/85/85
f 88/88/88 87/87/87 85/85/85
f 91/91/91 90/90/90 89/89/89
f 92/92/92 91/91/91 89/89/89
f 95/95/95 94/94/94 93/93/93
f 96/96/96 95/95/95 93/93/93
f 99/99/99 98/98/98 97/97/97
f 100/100/100 99/99/99 97/97/97
f 103/103/103 102/102/102 101/101/101
f 104/104/104 103/103/103 101/101/101
f 107/107/107 106/106/106 105/105/105
f 108/108/108 107/107/107 105/105/105
f 111/111/111 110/110/110 109/109/109
f 112/112/112 111/111/111 109/109/109
f 115/115/115 114/114/114 113/113/113
f 116/116/116 115/115/115 113/113/113
f 119/119/119 118/118/118 117/117/117
f 120/120/120 119/119/119 117/117/117
f 123/123/123 122/122/122 121/121/121
f 124/124/124 123/123/123 121/121/121
f 127/127/127 126/126/126 125/125/125
f 128/128/128 127/127/127 125/125/125
f 131/131/131 130/130/130 129/129/129
f 132/132/132 131/131/131 129/129/129
f 135/135/135 134/134/134 133/133/133
f 136/136/136 135/135/135 133/133/133
f 139/139/139 138/138/138 137/137/137
f 140/140/140 139/139/139 137/137/137
f 143/143/143 142/142/142 141/141/141
f 144/144/144 143/143/143 141/141/141
f 147/147/147 146/146/146 145/145/145
f 148/148/148 147/147/147 145/145/145
f 151/151/151 150/150/150 149/149/149
f 152/152/152 151/151/151 149/149/149
f 155/155/155 154/154/154 153/153/153
f 156/156/156 155/155/155 153/153/153
f 157/157/157 155/155/155 156/156/156
f 158/158/158 157/157/157 156/156/156
f 159/159/159 157/157/157 158/158/158
f 160/160/160 159/159/159 158/158/158
f 161/161/161 159/159/159 160/160/160
f 162/162/162 161/161/161 160/160/160
f 163/163/163 161/161/161 162/162/162
f 164/164/164 163/163/163 162/162/162
f 165/165/165 163/163/163 164/164/164
f 166/166/166 165/165/165 164/164/164
f 169/169/169 168/168/168 167/167/167
f 170/170/170 169/169/169 167/167/167
f 173/173/173 172/172/172 171/171/171
f 174/174/174 173/173/173 171/171/171
f 177/177/177 176/176/176 175/175/175
f 178/178/178 177/177/177 175/175/175
f 181/181/181 180/180/180 179/179/179
f 182/182/182 181/181/181 179/179/179
f 185/185/185 184/184/184 183/183/183
f 186/186/186 185/185/185 183/183/183
f 189/189/189 188/188/188 187/187/187
f 190/190/190 189/189/189 187/187/187
f 193/193/193 192/192/192 191/191/191
f 194/194/194 193/193/193 191/191/191
f 195/195/195 193/193/193 194/194/194
f 196/196/196 195/195/195 194/194/194
f 197/197/197 195/195/195 196/196/196
f 198/198/198 197/197/197 196/196/196
f 199/199/199 197/197/197 198/198/198
f 200/200/200 199/199/199 198/198/198
f 201/201/201 199/199/199 200/200/200
f 202/202/202 201/201/201 200/200/200
f 203/203/203 201/201/201 202/202/202
f 204/204/204 203/203/203 202/202/202
f 207/207/207 206/206/206 205/205/205
f 208/208/208 207/207/207 205/205/205
f 211/211/211 210/210/210 209/209/209
f 212/212/212 211/211/211 209/209/209
f 215/215/215 214/214/214 213/213/213
f 216/216/216 215/215/215 213/213/213
f 219/219/219 218/218/218 217/217/217
f 220/220/220 219/219/219 217/217/217
f 223/223/223 222/222/222 221/221/221
f 224/224/224 223/223/223 221/221/221
f 227/227/227 226/226/226 225/225/225
f 228/228/228 227/227/227 225/225/225
f 231/231/231 230/230/230 229/229/229
f 229/229/229 232/232/232 231/231/231
f 229/229/229 233/233/233 232/232/232
f 233/233/233 234/234/234 232/232/232
f 237/237/237 236/236/236 235/235/235
f 238/238/238 237/237/237 235/235/235
f 241/241/241 240/240/240 239/239/239
f 242/242/242 241/241/241 239/239/239
f 245/245/245 244/244/244 243/243/243
f 246/246/246 245/245/245 243/243/243
f 249/249/249 248/248/248 247/247/247
f 250/250/250 249/249/249 247/247/247
f 253/253/253 252/252/252 251/251/251
f 254/254/254 253/253/253 251/251/251
f 257/257/257 256/256/256 255/255/255
f 258/258/258 257/257/257 255/255/255
f 261/261/261 260/260/260 259/259/259
f 262/262/262 261/261/261 259/259/259
f 265/265/265 264/264/264 263/263/263
f 266/266/266 265/265/265 263/263/263
f 269/269/269 268/268/268 267/267/267
f 270/270/270 269/269/269 267/267/267
f 270/270/270 267/267/267 271/271/271
f 272/272/272 270/270/270 271/271/271
f 275/275/275 274/274/274 273/273/273
f 276/276/276 275/275/275 273/273/273
f 279/279/279 278/278/278 277/277/277
f 280/280/280 279/279/279 277/277/277
f 283/283/283 282/282/282 281/281/281
f 284/284/284 283/283/283 281/281/281
f 287/287/287 286/286/286 285/285/285
f 288/288/288 287/287/287 285/285/285
f 289/289/289 287/287/287 288/288/288
f 290/290/290 289/289/289 288/288/288
f 291/291/291 289/289/289 290/290/290
f 292/292/292 291/291/291 290/290/290
f 293/293/293 291/291/291 292/292/292
f 294/294/294 293/293/293 292/292/292
f 295/295/295 293/293/293 294/294/294
f 296/296/296 295/295/295 294/294/294
f 297/297/297 295/295/295 296/296/296
f 298/298/298 297/297/297 296/296/296
f 301/301/301 300/300/300 299/299/299
f 302/302/302 301/301/301 299/299/299
f 305/305/305 304/304/304 303/303/303
f 306/306/306 305/305/305 303/303/303
f 309/309/309 308/308/308 307/307/307
f 310/310/310 309/309/309 307/307/307
f 313/313/313 312/312/312 311/311/311
f 314/314/314 313/313/313 311/311/311
f 317/317/317 316/316/316 315/315/315
f 318/318/318 317/317/317 315/315/315
f 321/321/321 320/320/320 319/319/319
f 322/322/322 321/321/321 319/319/319
f 325/325/325 324/324/324 323/323/323
f 326/326/326 325/325/325 323/323/323
f 329/329/329 328/328/328 327/327/327
f 330/330/330 329/329/329 327/327/327
f 333/333/333 332/332/332 331/331/331
f 334/334/334 333/333/333 331/331/331
f 337/337/337 336/336/336 335/335/335
f 338/338/338 337/337/337 335/335/335
f 341/341/341 340/340/340 339/339/339
f 342/342/342 341/341/341 339/339/339
f 345/345/345 344/344/344 343/343/343
f 346/346/346 345/345/345 343/343/343
f 349/349/349 348/348/348 347/347/347
f 350/350/350 349/349/349 347/347/347
f 353/353/353 352/352/352 351/351/351
f 354/354/354 353/353/353 351/351/351
f 357/357/357 356/356/356 355/355/355
f 358/358/358 357/357/357 355/355/355
f 361/361/361 360/360/360 359/359/359
f 362/362/362 361/361/361 359/359/359
f 365/365/365 364/364/364 363/363/363
f 366/366/366 365/365/365 363/363/363
f 369/369/369 368/368/368 367/367/367
f 370/370/370 369/369/369 367/367/367
f 373/373/373 372/372/372 371/371/371
f 374/374/374 373/373/373 371/371/371
f 377/377/377 376/376/376 375/375/375
f 378/378/378 377/377/377 375/375/375
f 381/381/381 380/380/380 379/379/379
f 382/382/382 381/381/381 379/379/379
f 385/385/385 384/384/384 383/383/383
f 386/386/386 385/385/385 383/383/383
f 389/389/389 388/388/388 387/387/387
f 390/390/390 389/389/389 387/387/387
f 393/393/393 392/392/392 391/391/391
f 394/394/394 393/393/393 391/391/391
f 397/397/397 396/396/396 395/395/395
f 398/398/398 397/397/397 395/395/395
f 401/401/401 400/400/400 399/399/399
f 402/402/402 401/401/401 399/399/399
f 405/405/405 404/404/404 403/403/403
f 406/406/406 405/405/405 403/403/403
f 409/409/409 408/408/408 407/407/407
f 410/410/410 409/409/409 407/407/407
f 413/413/413 412/412/412 411/411/411
f 414/414/414 413/413/413 411/411/411
f 417/417/417 416/416/416 415/415/415
f 418/418/418 417/417/417 415/415/415
f 421/421/421 420/420/420 419/419/419
f 422/422/422 421/421/421 419/419/419
f 425/425/425 424/424/424 423/423/423
f 426/426/426 425/425/425 423/423/423
f 429/429/429 428/428/428 427/427/427
f 430/430/430 429/429/429 427/427/427
f 433/433/433 432/432/432 431/431/431
f 434/434/434 433/433/433 431/431/431
f 437/437/437 436/436/436 435/435/435
f 438/438/438 437/437/437 435/435/435
f 441/441/441 440/440/440 439/439/439
f 442/442/442 441/441/441 439/439/439
f 445/445/445 444/444/444 443/443/443
f 446/446/446 445/445/445 443/443/443
f 449/449/449 448/448/448 447/447/447
f 450/450/450 449/449/449 447/447/447
f 453/453/453 452/452/452 451/451/451
f 454/454/454 453/453/453 451/451/451
f 457/457/457 456/456/456 455/455/455
f 458/458/458 457/457/457 455/455/455
f 461/461/461 460/460/460 459/459/459
f 462/462/462 461/461/461 459/459/459
f 465/465/465 464/464/464 463/463/463
f 466/466/466 465/465/465 463/463/463
f 469/469/469 468/468/468 467/467/467
f 470/470/470 469/469/469 467/467/467
f 473/473/473 472/472/472 471/471/471
f 474/474/474 473/473/473 471/471/471
f 477/477/477 476/476/476 475/475/475
f 478/478/478 477/477/477 475/475/475
f 481/481/481 480/480/480 479/479/479
f 482/482/482 481/481/481 479/479/479
f 485/485/485 484/484/484 483/483/483
f 486/486/486 485/485/485 483/483/483
f 489/489/489 488/488/488 487/487/487
f 490/490/490 489/489/489 487/487/487
f 493/493/493 492/492/492 491/491/491
f 494/494/494 493/493/493 491/491/491
f 497/497/497 496/496/496 495/495/495
f 498/498/498 497/497/497 495/495/495
f 501/501/501 500/500/500 499/499/499
f 502/502/502 501/501/501 499/499/499
f 505/505/505 504/504/504 503/503/503
f 506/506/506 505/505/505 503/503/503
f 509/509/509 508/508/508 507/507/507
f 510/510/510 509/509/509 507/507/507
f 513/513/513 512/512/512 511/511/511
f 514/514/514 513/513/513 511/511/511
f 517/517/517 516/516/516 515/515/515
f 518/518/518 517/517/517 515/515/515
f 521/521/521 520/520/520 519/519/519
f 522/522/522 521/521/521 519/519/519
f 525/525/525 524/524/524 523/523/523
f 526/526/526 525/525/525 523/523/523
f 529/529/529 528/528/528 527/527/527
f 530/530/530 529/529/529 527/527/527
f 533/533/533 532/532/532 531/531/531
f 534/534/534 533/533/533 531/531/531
f 537/537/537 536/536/536 535/535/535
f 538/538/538 537/537/537 535/535/535
f 541/541/541 540/540/540 539/539/539
f 542/542/542 541/541/541 539/539/539
f 545/545/545 544/544/544 543/543/543
f 546/546/546 545/545/545 543/543/543
f 549/549/549 548/548/548 547/547/547
f 550/550/550 549/549/549 547/547/547
f 553/553/553 552/552/552 551/551/551
f 554/554/554 553/553/553 551/551/551
f 557/557/557 556/556/556 555/555/555
f 558/558/558 557/557/557 555/555/555
f 561/561/561 560/560/560 559/559/559
f 562/562/562 561/561/561 559/559/559
f 565/565/565 564/564/564 563/563/563
f 566/566/566 565/565/565 563/563/563
f 569/569/569 568/568/568 567/567/567
f 570/570/570 569/569/569 567/567/567
f 573/573/573 572/572/572 571/571/571
f 574/574/574 573/573/573 571/571/571
f 577/577/577 576/576/576 575/575/575
f 578/578/578 577/577/577 575/575/575
f 581/581/581 580/580/580 579/579/579
f 582/582/582 581/581/581 579/579/579
f 585/585/585 584/584/584 583/583/583
f 586/586/586 585/585/585 583/583/583
f 589/589/589 588/588/588 587/587/587
f 590/590/590 589/589/589 587/587/587
f 593/593/593 592/592/592 591/591/591
f 594/594/594 593/593/593 591/591/591
f 597/597/597 596/596/596 595/595/595
f 598/598/598 597/597/597 595/595/595
f 601/601/601 600/600/600 599/599/599
f 602/602/602 601/601/601 599/599/599
f 605/605/605 604/604/604 603/603/603
f 606/606/606 605/605/605 603/603/603
f 609/609/609 608/608/608 607/607/607
f 610/610/610 609/609/609 607/607/607
f 613/613/613 612/612/612 611/611/611
f 614/614/614 613/613/613 611/611/611
f 617/617/617 616/616/616 615/615/615
f 616/616/616 618/618/618 615/615/615
f 619/619/619 616/616/616 617/617/617
f 615/615/615 618/618/618 620/620/620
f 621/621/621 619/619/619 617/617/617
f 618/618/618 622/622/622 620/620/620
f 622/622/622 619/619/619 621/621/621
f 620/620/620 622/622/622 621/621/621
f 625/625/625 624/624/624 623/623/623
f 624/624/624 626/626/626 623/623/623
f 627/627/627 624/624/624 625/625/625
f 623/623/623 626/626/626 628/628/628
f 629/629/629 627/627/627 625/625/625
f 626/626/626 630/630/630 628/628/628
f 630/630/630 627/627/627 629/629/629
f 628/628/628 630/630/630 629/629/629
f 633/633/633 632/632/632 631/631/631
f 632/632/632 634/634/634 631/631/631
f 635/635/635 632/632/632 633/633/633
f 631/631/631 634/634/634 636/636/636
f 637/637/637 635/635/635 633/633/633
f 634/634/634 638/638/638 636/636/636
f 638/638/638 635/635/635 637/637/637
f 636/636/636 638/638/638 637/637/637
f 641/641/641 640/640/640 639/639/639
f 642/642/642 641/641/641 639/639/639
f 639/639/639 640/640/640 643/643/643
f 644/644/644 641/641/641 642/642/642
f 640/640/640 645/645/645 643/643/643
f 646/646/646 644/644/644 642/642/642
f 643/643/643 645/645/645 647/647/647
f 648/648/648 644/644/644 646/646/646
f 645/645/645 649/649/649 647/647/647
f 650/650/650 648/648/648 646/646/646
f 647/647/647 649/649/649 650/650/650
f 649/649/649 648/648/648 650/650/650
