g Ruin Wall
v 1.0040646 4.2634377 0.74292624
v 0.120376416 4.263438 -9.935961
v 0.120376706 3.6510646 -9.935961
v 1.0040649 3.6510637 0.74292624
v 0.12724517 8.788214E-07 -9.936931
v 1.0109751 1.1275133E-07 0.74353284
v 0.7823648 3.6510634 1.5123487
v 0.7823645 4.2634373 1.5123487
v 1.0040646 4.2634377 0.74292624
v 1.0040649 3.6510637 0.74292624
v 1.0109751 1.1275133E-07 0.74353284
v 0.7892749 8.955796E-08 1.5129553
v 0.31255153 -1.427547E-07 1.4710906
v -1.2232997 -8.9119237E-07 1.3362156
v -1.2233015 3.6510625 1.3362156
v 0.31254974 3.6510632 1.4710906
v 0.7892749 8.955796E-08 1.5129553
v 0.7823648 3.6510634 1.5123487
v 0.7823645 4.2634373 1.5123487
v 0.31254944 4.2634373 1.4710906
v 0.31254974 3.6510632 1.4710906
v -1.2233015 3.6510625 1.3362156
v -1.0016013 3.6510625 0.5667932
v 0.53424984 3.6510634 0.70166814
v 1.0109751 1.1275133E-07 0.74353284
v 0.31255153 -1.427547E-07 1.4710906
v 0.7892749 8.955796E-08 1.5129553
v 0.53425163 -1.1956139E-07 0.7016681
v -1.2232997 -8.9119237E-07 1.3362156
v -1.0015997 -8.67999E-07 0.56679314
v -1.2232997 -8.9119237E-07 1.3362156
v -1.0015997 -8.67999E-07 0.56679314
v -1.0016013 3.6510625 0.5667932
v -1.2233015 3.6510625 1.3362156
v 0.53424984 3.6510634 0.70166814
v 0.53424954 4.2634373 0.70166814
v 0.31254944 4.2634373 1.4710906
v 0.31254974 3.6510632 1.4710906
v 0.7823645 4.2634373 1.5123487
v 0.31254944 4.2634373 1.4710906
v 0.53424954 4.2634373 0.70166814
v 1.0040646 4.2634377 0.74292624
v -1.8732024 -1.0255178E-07 -9.65426
v -6.288906 1.5294606E-06 -26.876709
v -6.288908 3.6510653 -26.876705
v -1.8732044 3.6510634 -9.654259
v 0.53424984 3.6510634 0.70166814
v -0.3466074 3.6510644 -9.869973
v -0.34660769 4.263438 -9.869973
v 0.53424954 4.2634373 0.70166814
v -1.0015997 -8.67999E-07 0.56679314
v -1.8732024 -1.0255178E-07 -9.65426
v -1.8732044 3.6510634 -9.654259
v -1.0016013 3.6510625 0.5667932
v -1.0016013 3.6510625 0.5667932
v -0.3466074 3.6510644 -9.869973
v 0.53424984 3.6510634 0.70166814
v -1.8732044 3.6510634 -9.654259
v -4.8072324 3.6510663 -27.302935
v -6.288908 3.6510653 -26.876705
v -7.8848867 3.6510656 -35.631165
v -9.366562 3.6510649 -35.204933
v -11.993596 3.6510668 -43.04864
v -13.31554 3.6510663 -42.255234
v -23.820211 3.6510713 -57.45114
v -24.770638 3.6510704 -56.237175
v 0.53425163 -1.1956139E-07 0.7016681
v -1.8732024 -1.0255178E-07 -9.65426
v -1.0015997 -8.67999E-07 0.56679314
v -0.3466056 6.4636123E-07 -9.869974
v 1.0109751 1.1275133E-07 0.74353284
v -6.288906 1.5294606E-06 -26.876709
v 0.12724517 8.788214E-07 -9.936931
v -4.807231 2.2594265E-06 -27.302935
v -9.36656 1.3550941E-06 -35.204937
v -4.3473234 2.4860058E-06 -27.435238
v -7.8848853 2.0850607E-06 -35.631165
v -13.315539 2.1971034E-06 -42.255234
v -7.4249773 2.3116404E-06 -35.763462
v -11.993593 3.0230212E-06 -43.04864
v -24.770638 6.648883E-06 -56.237183
v -11.583269 3.2270018E-06 -43.29492
v -23.820215 7.4680406E-06 -57.451145
v -23.525204 7.617541E-06 -57.827957
v 0.53424954 4.2634373 0.70166814
v 0.120376416 4.263438 -9.935961
v 1.0040646 4.2634377 0.74292624
v -0.34660769 4.263438 -9.869973
v -4.3539906 4.26344 -27.43332
v -4.807233 4.26344 -27.302935
v -7.4316435 4.2634397 -35.761547
v -7.8848867 4.2634397 -35.631165
v -11.589217 4.2634406 -43.291348
v -11.993597 4.2634406 -43.04864
v -23.52948 4.2634454 -57.8225
v -23.820211 4.2634454 -57.45114
v -4.8072324 3.6510663 -27.302935
v -7.8848867 3.6510656 -35.631165
v -7.8848867 4.2634397 -35.631165
v -4.807233 4.26344 -27.302935
v 0.120376706 3.6510646 -9.935961
v -4.3473234 2.4860058E-06 -27.435238
v 0.12724517 8.788214E-07 -9.936931
v -4.3539906 3.6510663 -27.43332
v 0.120376416 4.263438 -9.935961
v -4.3539906 4.26344 -27.43332
v -0.3466074 3.6510644 -9.869973
v -4.8072324 3.6510663 -27.302935
v -4.807233 4.26344 -27.302935
v -0.34660769 4.263438 -9.869973
v -7.4316435 4.2634397 -35.761547
v -11.589217 4.2634406 -43.291348
v -11.589216 3.6510668 -43.291348
v -7.4316435 3.6510658 -35.761547
v -11.583269 3.2270018E-06 -43.29492
v -7.4249773 2.3116404E-06 -35.763462
v -6.288906 1.5294606E-06 -26.876709
v -9.36656 1.3550941E-06 -35.204937
v -9.366562 3.6510649 -35.204933
v -6.288908 3.6510653 -26.876705
v -4.3539906 3.6510663 -27.43332
v -7.4249773 2.3116404E-06 -35.763462
v -4.3473234 2.4860058E-06 -27.435238
v -7.4316435 3.6510658 -35.761547
v -4.3539906 4.26344 -27.43332
v -7.4316435 4.2634397 -35.761547
v -11.589216 3.6510668 -43.291348
v -23.525204 7.617541E-06 -57.827957
v -11.583269 3.2270018E-06 -43.29492
v -23.52948 3.6510713 -57.8225
v -11.589217 4.2634406 -43.291348
v -23.52948 4.2634454 -57.8225
v -7.8848867 3.6510656 -35.631165
v -11.993596 3.6510668 -43.04864
v -11.993597 4.2634406 -43.04864
v -7.8848867 4.2634397 -35.631165
v -9.36656 1.3550941E-06 -35.204937
v -13.315539 2.1971034E-06 -42.255234
v -13.31554 3.6510663 -42.255234
v -9.366562 3.6510649 -35.204933
v -23.820211 4.2634454 -57.45114
v -23.52948 3.6510713 -57.8225
v -23.52948 4.2634454 -57.8225
v -23.820211 3.6510713 -57.45114
v -23.820215 7.4680406E-06 -57.451145
v -23.525204 7.617541E-06 -57.827957
v -24.770638 6.648883E-06 -56.237183
v -24.770638 3.6510704 -56.237175
v -11.993596 3.6510668 -43.04864
v -23.820211 3.6510713 -57.45114
v -23.820211 4.2634454 -57.45114
v -11.993597 4.2634406 -43.04864
v -13.315539 2.1971034E-06 -42.255234
v -24.770638 6.648883E-06 -56.237183
v -24.770638 3.6510704 -56.237175
v -13.31554 3.6510663 -42.255234
vt 0.625 0.25
vt 0.625 0.25
vt 0.625 0.25
vt 0.625 0.25
vt 0.375 0.25
vt 0.375 0.25
vt 0.625 0.31482288
vt 0.72163546 0.41145837
vt 0.625 0.25
vt 0.625 0.25
vt 0.375 0.25
vt 0.27784353 0.4119793
vt 0.18982288 0.57296276
vt 0.28787255 0.84804964
vt 0.71315396 0.8470231
vt 0.8101771 0.5729628
vt 0.27784353 0.4119793
vt 0.625 0.31482288
vt 0.72163546 0.41145837
vt 0.8101771 0.57296276
vt 0.8101771 0.5729628
vt 0.71315396 0.8470231
vt 0.875 0.75
vt 0.875 0.5729628
vt 0.125 0.5
vt 0.18982288 0.57296276
vt 0.27784353 0.4119793
vt 0.125 0.57296276
vt 0.28787255 0.84804964
vt 0.125 0.75
vt 0.28787255 0.84804964
vt 0.375 1
vt 0.625 1
vt 0.71315396 0.8470231
vt 0.875 0.5729628
vt 0.875 0.5729628
vt 0.8101771 0.57296276
vt 0.8101771 0.5729628
vt 0.72163546 0.41145837
vt 0.8101771 0.57296276
vt 0.875 0.5729628
vt 0.875 0.5
vt 0.375 1
vt 0.375 1
vt 0.625 1
vt 0.625 1
vt 0.875 0.5729628
vt 0.875 0.5729628
vt 0.875 0.5729628
vt 0.875 0.5729628
vt 0.375 1
vt 0.375 1
vt 0.625 1
vt 0.625 1
vt 0.875 0.75
vt 0.875 0.5729628
vt 0.875 0.5729628
vt 0.875 0.75
vt 0.875 0.5729628
vt 0.875 0.75
vt 0.875 0.5729628
vt 0.875 0.75
vt 0.875 0.5729628
vt 0.875 0.75
vt 0.875 0.5729628
vt 0.875 0.75
vt 0.125 0.57296276
vt 0.125 0.75
vt 0.125 0.75
vt 0.125 0.57296276
vt 0.125 0.5
vt 0.125 0.75
vt 0.125 0.5
vt 0.125 0.57296276
vt 0.125 0.75
vt 0.125 0.5
vt 0.125 0.57296276
vt 0.125 0.75
vt 0.125 0.5
vt 0.125 0.57296276
vt 0.125 0.75
vt 0.125 0.5
vt 0.125 0.57296276
vt 0.125 0.5
vt 0.875 0.5729628
vt 0.875 0.5
vt 0.875 0.5
vt 0.875 0.5729628
vt 0.875 0.5
vt 0.875 0.5729628
vt 0.875 0.5
vt 0.875 0.5729628
vt 0.875 0.5
vt 0.875 0.5729628
vt 0.875 0.5
vt 0.875 0.5729628
vt 0.875 0.5729628
vt 0.875 0.5729628
vt 0.875 0.5729628
vt 0.875 0.5729628
vt 0.625 0.25
vt 0.375 0.25
vt 0.375 0.25
vt 0.625 0.25
vt 0.625 0.25
vt 0.625 0.25
vt 0.875 0.5729628
vt 0.875 0.5729628
vt 0.875 0.5729628
vt 0.875 0.5729628
vt 0.625 0.25
vt 0.625 0.25
vt 0.625 0.25
vt 0.625 0.25
vt 0.375 0.25
vt 0.375 0.25
vt 0.375 1
vt 0.375 1
vt 0.625 1
vt 0.625 1
vt 0.625 0.25
vt 0.375 0.25
vt 0.375 0.25
vt 0.625 0.25
vt 0.625 0.25
vt 0.625 0.25
vt 0.625 0.25
vt 0.375 0.25
vt 0.375 0.25
vt 0.625 0.25
vt 0.625 0.25
vt 0.625 0.25
vt 0.875 0.5729628
vt 0.875 0.5729628
vt 0.875 0.5729628
vt 0.875 0.5729628
vt 0.375 1
vt 0.375 1
vt 0.625 1
vt 0.625 1
vt 0.625 0.17703721
vt 0.625 0.25
vt 0.625 0.25
vt 0.625 0.17703721
vt 0.375 0.1770372
vt 0.375 0.25
vt 0.375 0
vt 0.625 0
vt 0.875 0.5729628
vt 0.875 0.5729628
vt 0.875 0.5729628
vt 0.875 0.5729628
vt 0.375 1
vt 0.375 1
vt 0.625 1
vt 0.625 1
vn 0.99659365 4.7623962E-07 -0.082469076
vn 0.99659365 4.7623962E-07 -0.082469076
vn 0.9965934 0.0009425736 -0.082467
vn 0.9965934 0.0009426373 -0.082467
vn 0.9965922 0.0018846042 -0.08246483
vn 0.9965922 0.0018846042 -0.08246483
vn 0.96090585 0.00093246 0.2768738
vn 0.96090627 4.978971E-07 0.2768739
vn 0.96090627 4.978971E-07 0.2768739
vn 0.96090585 0.00093267584 0.2768738
vn 0.9609046 0.0018646372 0.27687353
vn 0.9609046 0.0018646372 0.27687353
vn -0.08748123 0 0.9961662
vn -0.087481 0 0.9961662
vn -0.087481 0 0.9961662
vn -0.08748118 0 0.9961662
vn -0.08748149 0 0.9961662
vn -0.08748126 0 0.9961662
vn -0.08748105 0 0.9961662
vn -0.08748105 0 0.9961662
vn -5.014798E-07 1 3.6269878E-07
vn -5.014798E-07 1 3.6269878E-07
vn -5.014798E-07 1 3.6269878E-07
vn -5.014798E-07 1 3.6269878E-07
vn 4.778668E-07 -1 1.0754792E-07
vn 4.778667E-07 -1 1.07547905E-07
vn 4.778668E-07 -1 1.0754792E-07
vn 4.778667E-07 -1 1.0754791E-07
vn 4.7786665E-07 -1 1.0754789E-07
vn 4.7786665E-07 -1 1.0754789E-07
vn -0.96090627 -4.807235E-07 -0.27687395
vn -0.96090627 -4.807235E-07 -0.27687395
vn -0.96090627 -4.807235E-07 -0.27687395
vn -0.96090627 -4.807235E-07 -0.27687395
vn -0.96090615 -4.97897E-07 -0.27687404
vn -0.96090615 -4.97897E-07 -0.27687404
vn -0.96090615 -4.97897E-07 -0.27687404
vn -0.96090615 -4.97897E-07 -0.27687404
vn -6.675067E-07 1 -2.6348494E-07
vn -6.675067E-07 1 -2.6348494E-07
vn -6.675067E-07 1 -2.6348494E-07
vn -6.675067E-07 1 -2.6348494E-07
vn -0.96866804 -6.2164844E-07 0.24835902
vn -0.96866804 -6.2164844E-07 0.24835902
vn -0.96866804 -6.2164844E-07 0.24835902
vn -0.96866804 -6.2164844E-07 0.24835902
vn -0.9965467 -4.96081E-07 0.08303493
vn -0.9965467 -4.96081E-07 0.08303493
vn -0.9965467 -4.96081E-07 0.08303493
vn -0.9965467 -4.96081E-07 0.08303493
vn -0.9963838 -4.8943315E-07 0.08496689
vn -0.9963838 -4.8943315E-07 0.08496689
vn -0.9963838 -4.8943315E-07 0.08496689
vn -0.9963838 -4.8943315E-07 0.08496689
vn -5.9425884E-07 1 1.2241803E-07
vn -5.9425884E-07 1 1.2241803E-07
vn -5.9425884E-07 1 1.2241803E-07
vn -5.9425884E-07 1 1.2241803E-07
vn -4.797306E-07 1 2.2891233E-07
vn -4.797306E-07 1 2.2891233E-07
vn -4.797306E-07 1 2.2891233E-07
vn -4.797306E-07 1 2.2891233E-07
vn -2.9139412E-07 1 3.7210054E-07
vn -2.9139412E-07 1 3.7210054E-07
vn -2.2965652E-07 1 5.6187423E-07
vn -2.2965652E-07 1 5.6187423E-07
vn 4.8594563E-07 -1 -1.1340271E-07
vn 4.4718118E-07 -1 -2.0817546E-07
vn 4.8591386E-07 -1 -1.14603466E-07
vn 4.859436E-07 -1 -1.13480944E-07
vn 4.859712E-07 -1 -1.12437384E-07
vn 4.4718118E-07 -1 -2.0817546E-07
vn 4.859712E-07 -1 -1.12437384E-07
vn 4.473457E-07 -1 -2.0740181E-07
vn 4.5076698E-07 -1 -1.4564178E-07
vn 4.4750416E-07 -1 -2.066568E-07
vn 4.5076646E-07 -1 -1.4564165E-07
vn 4.0363994E-07 -1 -3.4783335E-07
vn 3.553422E-07 -1 -3.20487E-07
vn 3.7895742E-07 -1 -3.3385805E-07
vn 2.5923063E-07 -1 -5.260662E-07
vn 3.553422E-07 -1 -3.20487E-07
vn 1.879372E-07 -1 -4.6307667E-07
vn 1.3409488E-07 -1 -4.1550572E-07
vn -6.485907E-07 1 0
vn -2.9148293E-07 1 0
vn -6.485907E-07 1 0
vn -2.9148293E-07 1 0
vn -2.9148293E-07 1 0
vn -2.9148293E-07 1 0
vn -3.1860046E-07 1 -1.403111E-07
vn -3.1860046E-07 1 -1.403111E-07
vn 1.6198427E-07 1 0
vn 1.6198427E-07 1 0
vn 1.6198427E-07 1 0
vn 1.6198427E-07 1 0
vn -0.93800074 -1.1495129E-06 0.34663343
vn -0.93800074 -1.1495129E-06 0.34663343
vn -0.93800074 -1.1495129E-06 0.34663343
vn -0.93800074 -1.1495129E-06 0.34663343
vn 0.968825 0.0009472688 -0.24774413
vn 0.96882385 0.0018938456 -0.2477433
vn 0.96882385 0.0018938456 -0.2477433
vn 0.968825 0.00094722287 -0.24774413
vn 0.96882534 5.6511436E-07 -0.24774477
vn 0.96882534 5.6511436E-07 -0.24774477
vn -0.968789 -5.671807E-07 0.24788707
vn -0.968789 -5.671807E-07 0.24788707
vn -0.968789 -5.671807E-07 0.24788707
vn -0.968789 -5.671807E-07 0.24788707
vn 0.8754202 2.3731568E-06 -0.48336282
vn 0.8754202 2.3731568E-06 -0.48336282
vn 0.8754223 0.00093897124 -0.48335806
vn 0.8754223 0.00093907706 -0.48335806
vn 0.87542367 0.0018755279 -0.48335287
vn 0.87542367 0.0018755279 -0.48335287
vn -0.93800074 -7.0542575E-07 0.3466333
vn -0.93800074 -7.0542575E-07 0.3466333
vn -0.93800074 -7.0542575E-07 0.3466333
vn -0.93800074 -7.0542575E-07 0.3466333
vn 0.9380003 0.0009474525 -0.34663314
vn 0.93799895 0.0018948197 -0.34663284
vn 0.93799895 0.0018948197 -0.34663284
vn 0.9380003 0.000947368 -0.34663314
vn 0.9380008 0 -0.34663317
vn 0.9380008 0 -0.34663317
vn 0.7726219 0.00093375955 -0.63486576
vn 0.7726199 0.0018673522 -0.63486606
vn 0.7726199 0.0018673522 -0.63486606
vn 0.77262187 0.0009337989 -0.6348659
vn 0.7726231 0 -0.6348649
vn 0.7726231 0 -0.6348649
vn -0.874763 0 0.48455095
vn -0.874763 0 0.48455095
vn -0.874763 0 0.48455095
vn -0.874763 0 0.48455095
vn -0.8724631 -2.1183621E-07 0.48867992
vn -0.8724631 -2.1183621E-07 0.48867992
vn -0.8724631 -2.1183621E-07 0.48867992
vn -0.8724631 -2.1183621E-07 0.48867992
vn -0.7873968 0 -0.61644644
vn -0.7873944 3.8025058E-07 -0.61644953
vn -0.7873968 0 -0.61644644
vn -0.78739333 5.8290817E-07 -0.616451
vn -0.78739154 8.743623E-07 -0.61645335
vn -0.7873919 7.6004216E-07 -0.61645275
vn -0.78739107 9.886825E-07 -0.6164538
vn -0.78739107 9.886825E-07 -0.6164538
vn -0.7728318 0 0.63461083
vn -0.7728318 0 0.63461083
vn -0.7728318 0 0.63461083
vn -0.7728318 0 0.63461083
vn -0.77354157 -3.1745972E-07 0.6337456
vn -0.77354157 -3.1745972E-07 0.6337456
vn -0.77354157 -3.1745972E-07 0.6337456
vn -0.77354157 -3.1745972E-07 0.6337456
g Ruin Wall_0
f 3/3/3 2/2/2 1/1/1
f 4/4/4 3/3/3 1/1/1
f 5/5/5 3/3/3 4/4/4
f 6/6/6 5/5/5 4/4/4
f 9/9/9 8/8/8 7/7/7
f 10/10/10 9/9/9 7/7/7
f 10/10/10 7/7/7 11/11/11
f 7/7/7 12/12/12 11/11/11
f 15/15/15 14/14/14 13/13/13
f 16/16/16 15/15/15 13/13/13
f 16/16/16 13/13/13 17/17/17
f 18/18/18 16/16/16 17/17/17
f 16/16/16 18/18/18 19/19/19
f 20/20/20 16/16/16 19/19/19
f 23/23/23 22/22/22 21/21/21
f 24/24/24 23/23/23 21/21/21
f 27/27/27 26/26/26 25/25/25
f 26/26/26 28/28/28 25/25/25
f 26/26/26 29/29/29 28/28/28
f 29/29/29 30/30/30 28/28/28
f 33/33/33 32/32/32 31/31/31
f 34/34/34 33/33/33 31/31/31
f 37/37/37 36/36/36 35/35/35
f 38/38/38 37/37/37 35/35/35
f 41/41/41 40/40/40 39/39/39
f 42/42/42 41/41/41 39/39/39
f 45/45/45 44/44/44 43/43/43
f 46/46/46 45/45/45 43/43/43
f 49/49/49 48/48/48 47/47/47
f 50/50/50 49/49/49 47/47/47
f 53/53/53 52/52/52 51/51/51
f 54/54/54 53/53/53 51/51/51
f 57/57/57 56/56/56 55/55/55
f 56/56/56 58/58/58 55/55/55
f 56/56/56 59/59/59 58/58/58
f 59/59/59 60/60/60 58/58/58
f 59/59/59 61/61/61 60/60/60
f 61/61/61 62/62/62 60/60/60
f 61/61/61 63/63/63 62/62/62
f 63/63/63 64/64/64 62/62/62
f 63/63/63 65/65/65 64/64/64
f 65/65/65 66/66/66 64/64/64
f 69/69/69 68/68/68 67/67/67
f 68/68/68 70/70/70 67/67/67
f 67/67/67 70/70/70 71/71/71
f 68/68/68 72/72/72 70/70/70
f 70/70/70 73/73/73 71/71/71
f 72/72/72 74/74/74 70/70/70
f 70/70/70 74/74/74 73/73/73
f 72/72/72 75/75/75 74/74/74
f 74/74/74 76/76/76 73/73/73
f 75/75/75 77/77/77 74/74/74
f 74/74/74 77/77/77 76/76/76
f 75/75/75 78/78/78 77/77/77
f 77/77/77 79/79/79 76/76/76
f 78/78/78 80/80/80 77/77/77
f 77/77/77 80/80/80 79/79/79
f 78/78/78 81/81/81 80/80/80
f 80/80/80 82/82/82 79/79/79
f 81/81/81 83/83/83 80/80/80
f 80/80/80 83/83/83 82/82/82
f 83/83/83 84/84/84 82/82/82
f 87/87/87 86/86/86 85/85/85
f 86/86/86 88/88/88 85/85/85
f 86/86/86 89/89/89 88/88/88
f 89/89/89 90/90/90 88/88/88
f 89/89/89 91/91/91 90/90/90
f 91/91/91 92/92/92 90/90/90
f 91/91/91 93/93/93 92/92/92
f 93/93/93 94/94/94 92/92/92
f 93/93/93 95/95/95 94/94/94
f 95/95/95 96/96/96 94/94/94
f 99/99/99 98/98/98 97/97/97
f 100/100/100 99/99/99 97/97/97
f 103/103/103 102/102/102 101/101/101
f 102/102/102 104/104/104 101/101/101
f 101/101/101 104/104/104 105/105/105
f 104/104/104 106/106/106 105/105/105
f 109/109/109 108/108/108 107/107/107
f 110/110/110 109/109/109 107/107/107
f 113/113/113 112/112/112 111/111/111
f 114/114/114 113/113/113 111/111/111
f 115/115/115 113/113/113 114/114/114
f 116/116/116 115/115/115 114/114/114
f 119/119/119 118/118/118 117/117/117
f 120/120/120 119/119/119 117/117/117
f 123/123/123 122/122/122 121/121/121
f 122/122/122 124/124/124 121/121/121
f 121/121/121 124/124/124 125/125/125
f 124/124/124 126/126/126 125/125/125
f 129/129/129 128/128/128 127/127/127
f 128/128/128 130/130/130 127/127/127
f 127/127/127 130/130/130 131/131/131
f 130/130/130 132/132/132 131/131/131
f 135/135/135 134/134/134 133/133/133
f 136/136/136 135/135/135 133/133/133
f 139/139/139 138/138/138 137/137/137
f 140/140/140 139/139/139 137/137/137
f 143/143/143 142/142/142 141/141/141
f 142/142/142 144/144/144 141/141/141
f 144/144/144 142/142/142 145/145/145
f 142/142/142 146/146/146 145/145/145
f 144/144/144 145/145/145 147/147/147
f 148/148/148 144/144/144 147/147/147
f 151/151/151 150/150/150 149/149/149
f 152/152/152 151/151/151 149/149/149
f 155/155/155 154/154/154 153/153/153
f 156/156/156 155/155/155 153/153/153
