g Ruin Wall.004
v -1.7381635 3.6510634 -0.3422533
v -2.9828985 3.6510632 7.1365094
v -4.5234137 3.6510632 7.074524
v -3.274566 3.6510634 -0.47069007
v 0.5257894 3.8402045 -19.691492
v 0.6864126 3.840205 -35.59451
v 0.68641263 3.2278316 -35.59451
v 0.52578944 3.2278311 -19.691492
v 0.6933246 -0.42323142 -35.594666
v 0.53270084 -0.42323184 -19.69165
v -1.2681798 3.6510637 -0.30296472
v -1.2681798 4.2634377 -0.3029647
v 0.1220798 4.263438 -14.481539
v 0.12207986 3.6510644 -14.481539
v 0.12900832 9.68453E-07 -14.481853
v -1.2612689 2.1995714E-07 -0.30238703
v 0.1220798 4.263438 -14.481539
v 0.5257894 3.8402045 -19.691492
v 0.52578944 3.2278311 -19.691492
v 0.12207986 3.6510644 -14.481539
v 0.53270084 -0.42323184 -19.69165
v 0.12900832 9.68453E-07 -14.481853
v -1.7381631 1.7319816E-07 -0.34225342
v -2.5047271 3.223373E-08 7.1557493
v -1.2612689 2.1995714E-07 -0.30238703
v -2.9828982 -1.5293553E-08 7.1365094
v -3.2745657 2.2555577E-08 -0.47069004
v -4.523413 -1.684112E-07 7.074524
v -1.7381635 3.6510634 -0.3422533
v -3.274566 3.6510634 -0.47069007
v -1.8892399 3.6510642 -14.390379
v -0.34905937 3.6510642 -14.460185
v -0.34905937 3.6510642 -14.460185
v 0.0557678 3.2278311 -19.680738
v 0.05576774 3.8402045 -19.680738
v -0.3490594 4.263438 -14.460185
v -0.3490594 4.263438 -14.460185
v -1.7381636 4.2634373 -0.3422534
v -1.7381635 3.6510634 -0.3422533
v -1.8892397 7.6249546E-07 -14.390379
v -1.4807584 -0.42323202 -19.645573
v -1.4807593 3.2278311 -19.645573
v -1.8892399 3.6510642 -14.390379
v 0.12900832 9.68453E-07 -14.481853
v 0.53270084 -0.42323184 -19.69165
v 0.05576817 -0.42323187 -19.680738
v -0.349059 9.1966734E-07 -14.460185
v -1.4807584 -0.42323202 -19.645573
v -1.8892397 7.6249546E-07 -14.390379
v 0.12900832 9.68453E-07 -14.481853
v -1.7381631 1.7319816E-07 -0.34225342
v -1.2612689 2.1995714E-07 -0.30238703
v -0.349059 9.1966734E-07 -14.460185
v -3.2745657 2.2555577E-08 -0.47069004
v -1.8892397 7.6249546E-07 -14.390379
v -3.2745657 2.2555577E-08 -0.47069004
v -1.8892397 7.6249546E-07 -14.390379
v -1.8892399 3.6510642 -14.390379
v -3.274566 3.6510634 -0.47069007
v -1.8892399 3.6510642 -14.390379
v -1.4807593 3.2278311 -19.645573
v 0.0557678 3.2278311 -19.680738
v -0.34905937 3.6510642 -14.460185
v -1.7381636 4.2634373 -0.3422534
v -2.9828985 4.2634363 7.1365094
v -2.9828985 3.6510632 7.1365094
v -1.7381635 3.6510634 -0.3422533
v -0.3490594 4.263438 -14.460185
v 0.05576774 3.8402045 -19.680738
v 0.5257894 3.8402045 -19.691492
v 0.1220798 4.263438 -14.481539
v -1.2681798 4.2634377 -0.3029647
v -1.7381636 4.2634373 -0.3422534
v -0.3490594 4.263438 -14.460185
v 0.1220798 4.263438 -14.481539
v -2.9828982 -1.5293553E-08 7.1365094
v -4.523413 -1.684112E-07 7.074524
v -4.5234137 3.6510632 7.074524
v -2.9828985 3.6510632 7.1365094
v -2.5047271 3.223373E-08 7.1557493
v -2.5116568 3.6510632 7.1554704
v -2.511657 4.2634363 7.1554704
v -2.9828985 3.6510632 7.1365094
v -2.9828985 4.2634363 7.1365094
v -1.2612689 2.1995714E-07 -0.30238703
v -2.5047271 3.223373E-08 7.1557493
v -2.5116568 3.6510632 7.1554704
v -1.2681798 3.6510637 -0.30296472
v -2.511657 4.2634363 7.1554704
v -1.2681798 4.2634377 -0.3029647
v -1.2681798 4.2634377 -0.3029647
v -2.511657 4.2634363 7.1554704
v -2.9828985 4.2634363 7.1365094
v -1.7381636 4.2634373 -0.3422534
v -3.274566 3.6510634 -0.47069007
v -4.5234137 3.6510632 7.074524
v -4.523413 -1.684112E-07 7.074524
v -3.2745657 2.2555577E-08 -0.47069004
v 0.21639188 3.2278316 -35.583748
v -4.4001126 3.2278326 -53.88327
v -4.4001126 3.8402057 -53.88327
v 0.21639183 3.840205 -35.583748
v 0.6864126 3.840205 -35.59451
v -3.949971 3.8402057 -54.018948
v -3.949971 3.2278326 -54.018948
v 0.68641263 3.2278316 -35.59451
v -3.943351 -0.42323032 -54.020935
v 0.6933246 -0.42323142 -35.594666
v 0.0557678 3.2278311 -19.680738
v 0.21639188 3.2278316 -35.583748
v 0.21639183 3.840205 -35.583748
v 0.05576774 3.8402045 -19.680738
v -1.4807584 -0.42323202 -19.645573
v -1.3201349 -0.42323166 -35.548584
v -1.3201358 3.2278314 -35.548584
v -1.4807593 3.2278311 -19.645573
v -1.4807593 3.2278311 -19.645573
v 0.21639188 3.2278316 -35.583748
v 0.0557678 3.2278311 -19.680738
v -1.3201358 3.2278314 -35.548584
v -4.4001126 3.2278326 -53.88327
v -5.8716574 3.2278323 -53.43975
v -6.170226 3.2278323 -57.57004
v -7.504565 3.2278318 -56.807358
v 0.05576817 -0.42323187 -19.680738
v -1.3201349 -0.42323166 -35.548584
v -1.4807584 -0.42323202 -19.645573
v 0.21639225 -0.42323145 -35.583748
v 0.53270084 -0.42323184 -19.69165
v -5.8716564 -0.42323053 -53.43975
v 0.6933246 -0.42323142 -35.594666
v -4.4001126 -0.42323038 -53.88327
v -7.504564 -0.4232308 -56.807358
v -3.943351 -0.42323032 -54.020935
v -6.1702256 -0.42323062 -57.57004
v -5.7560534 -0.4232306 -57.80678
v 0.05576774 3.8402045 -19.680738
v 0.6864126 3.840205 -35.59451
v 0.5257894 3.8402045 -19.691492
v 0.21639183 3.840205 -35.583748
v -3.949971 3.8402057 -54.018948
v -4.4001126 3.8402057 -53.88327
v -5.7620564 3.840205 -57.80335
v -6.170226 3.840205 -57.57004
v -3.949971 3.8402057 -54.018948
v -5.7620564 3.840205 -57.80335
v -5.7620564 3.2278323 -57.80335
v -3.949971 3.2278326 -54.018948
v -5.7560534 -0.4232306 -57.80678
v -3.943351 -0.42323032 -54.020935
v -1.3201349 -0.42323166 -35.548584
v -5.8716564 -0.42323053 -53.43975
v -5.8716574 3.2278323 -53.43975
v -1.3201358 3.2278314 -35.548584
v -6.170226 3.840205 -57.57004
v -6.170226 3.2278323 -57.57004
v -5.7620564 3.2278323 -57.80335
v -5.7620564 3.840205 -57.80335
v -7.504564 -0.4232308 -56.807358
v -6.170226 3.2278323 -57.57004
v -7.504565 3.2278318 -56.807358
v -6.1702256 -0.42323062 -57.57004
v -5.7620564 3.2278323 -57.80335
v -5.7560534 -0.4232306 -57.80678
v -4.4001126 3.2278326 -53.88327
v -6.170226 3.2278323 -57.57004
v -6.170226 3.840205 -57.57004
v -4.4001126 3.8402057 -53.88327
v -5.8716564 -0.42323053 -53.43975
v -7.504564 -0.4232308 -56.807358
v -7.504565 3.2278318 -56.807358
v -5.8716574 3.2278323 -53.43975
vt 0.75060606 0.57296276
vt 0.75060606 0.57296276
vt 0.68780303 0.81280303
vt 0.68780303 0.81280303
vt 0.625 0.24168591
vt 0.625 0.24168591
vt 0.625 0.25
vt 0.625 0.25
vt 0.37499997 0.24999999
vt 0.37499997 0.24999999
vt 0.625 0.37439394
vt 0.70314753 0.45254153
vt 0.625 0.25
vt 0.625 0.25
vt 0.375 0.25
vt 0.31219697 0.43719697
vt 0.625 0.25
vt 0.625 0.24168591
vt 0.625 0.25
vt 0.625 0.25
vt 0.37499997 0.24999999
vt 0.375 0.25
vt 0.24939397 0.57296276
vt 0.31219697 0.43719697
vt 0.31219697 0.43719697
vt 0.24939397 0.57296276
vt 0.31219697 0.81280303
vt 0.31219697 0.81280303
vt 0.75060606 0.57296276
vt 0.68780303 0.81280303
vt 0.875 0.75
vt 0.875 0.5729628
vt 0.875 0.5729628
vt 0.87499994 0.5729628
vt 0.875 0.5729628
vt 0.875 0.5729628
vt 0.875 0.5729628
vt 0.75060594 0.57296276
vt 0.75060606 0.57296276
vt 0.375 1
vt 0.375 1
vt 0.625 1
vt 0.625 1
vt 0.125 0.5
vt 0.125 0.5
vt 0.125 0.57296276
vt 0.125 0.57296276
vt 0.125 0.75
vt 0.125 0.75
vt 0.125 0.5
vt 0.24939397 0.57296276
vt 0.31219697 0.43719697
vt 0.125 0.57296276
vt 0.31219697 0.81280303
vt 0.125 0.75
vt 0.31219697 0.81280303
vt 0.375 1
vt 0.625 1
vt 0.68780303 0.81280303
vt 0.875 0.75
vt 0.875 0.75
vt 0.87499994 0.5729628
vt 0.875 0.5729628
vt 0.75060594 0.57296276
vt 0.75060594 0.57296276
vt 0.75060606 0.57296276
vt 0.75060606 0.57296276
vt 0.875 0.5729628
vt 0.875 0.5729628
vt 0.875 0.5
vt 0.875 0.5
vt 0.70314753 0.45254153
vt 0.75060594 0.57296276
vt 0.875 0.5729628
vt 0.875 0.5
vt 0.24939397 0.57296276
vt 0.31219697 0.81280303
vt 0.68780303 0.81280303
vt 0.75060606 0.57296276
vt 0.31219697 0.43719697
vt 0.625 0.37439394
vt 0.70314753 0.45254153
vt 0.75060606 0.57296276
vt 0.75060594 0.57296276
vt 0.31219697 0.43719697
vt 0.31219697 0.43719697
vt 0.625 0.37439394
vt 0.625 0.37439394
vt 0.70314753 0.45254153
vt 0.70314753 0.45254153
vt 0.70314753 0.45254153
vt 0.70314753 0.45254153
vt 0.75060594 0.57296276
vt 0.75060594 0.57296276
vt 0.68780303 0.81280303
vt 0.68780303 0.81280303
vt 0.31219697 0.81280303
vt 0.31219697 0.81280303
vt 0.87499994 0.5729628
vt 0.87499994 0.5729628
vt 0.875 0.5729628
vt 0.875 0.5729628
vt 0.625 0.24168591
vt 0.625 0.24168591
vt 0.625 0.25
vt 0.625 0.25
vt 0.37499997 0.24999999
vt 0.37499997 0.24999999
vt 0.87499994 0.5729628
vt 0.87499994 0.5729628
vt 0.875 0.5729628
vt 0.875 0.5729628
vt 0.375 1
vt 0.375 1
vt 0.625 1
vt 0.625 1
vt 0.875 0.75
vt 0.87499994 0.5729628
vt 0.87499994 0.5729628
vt 0.875 0.75
vt 0.87499994 0.5729628
vt 0.875 0.75
vt 0.87499994 0.5729628
vt 0.875 0.75
vt 0.125 0.57296276
vt 0.125 0.75
vt 0.125 0.75
vt 0.125 0.57296276
vt 0.125 0.5
vt 0.125 0.75
vt 0.125 0.5
vt 0.125 0.57296276
vt 0.125 0.75
vt 0.125 0.5
vt 0.125 0.57296276
vt 0.125 0.5
vt 0.875 0.5729628
vt 0.875 0.5
vt 0.875 0.5
vt 0.875 0.5729628
vt 0.875 0.5
vt 0.875 0.5729628
vt 0.875 0.5
vt 0.875 0.5729628
vt 0.625 0.24168591
vt 0.625 0.24168591
vt 0.625 0.25
vt 0.625 0.25
vt 0.37499997 0.24999999
vt 0.37499997 0.24999999
vt 0.375 1
vt 0.375 1
vt 0.625 1
vt 0.625 1
vt 0.62500006 0.16043393
vt 0.6271392 0.16187467
vt 0.625 0.25
vt 0.625 0.24168591
vt 0.37820882 -0.0117081925
vt 0.6271392 0.16187467
vt 0.6282088 -0.011708193
vt 0.37820885 0.16267887
vt 0.625 0.25
vt 0.37499997 0.24999999
vt 0.87499994 0.5729628
vt 0.87499994 0.5729628
vt 0.875 0.5729628
vt 0.875 0.5729628
vt 0.375 1
vt 0.375 1
vt 0.625 1
vt 0.625 1
vn -0 1 0
vn -0 1 0
vn -0 1 0
vn -0 1 0
vn 0.999949 0 0.010099655
vn 0.999949 0 0.010099655
vn 0.9999486 0.0009463295 0.010099663
vn 0.9999486 0.00094629196 0.010099662
vn 0.9999472 0.0018925403 0.01009966
vn 0.9999472 0.0018925403 0.01009966
vn 0.99522674 0.00094490935 0.09758432
vn 0.9952271 0 0.09758562
vn 0.9952271 0 0.09758562
vn 0.99522674 0.00094499893 0.09758432
vn 0.99522567 0.0018897451 0.09758296
vn 0.99522567 0.0018897451 0.09758296
vn 0.9970112 1.2207025E-07 0.07725657
vn 0.9970112 1.2207025E-07 0.07725657
vn 0.997017 0.000990938 0.07717625
vn 0.99701655 0.0008938517 0.07718413
vn 0.99702126 0.0018846861 0.07710372
vn 0.99702126 0.0018846861 0.07710372
vn -0 -1 0
vn -0 -1 0
vn -0 -1 0
vn -0 -1 0
vn -0 -1 0
vn -0 -1 0
vn -0 1 0
vn -0 1 0
vn -0 1 0
vn -0 1 0
vn -0.99700695 0 -0.07731275
vn -0.99700695 0 -0.07731275
vn -0.99700695 0 -0.07731275
vn -0.99700695 0 -0.07731275
vn -0.99519426 0 -0.09791997
vn -0.99519426 0 -0.09791997
vn -0.99519426 0 -0.09791997
vn -0.9969927 -1.623805E-07 -0.077495225
vn -0.9969927 -1.623805E-07 -0.077495225
vn -0.9969927 -1.623805E-07 -0.077495225
vn -0.9969927 -1.623805E-07 -0.077495225
vn 0.0027671012 -0.996702 0.081100926
vn 0.0027671012 -0.996702 0.081100926
vn 0.0027615025 -0.9967154 0.08093763
vn 0.002760656 -0.9967173 0.08091295
vn 0.0027551423 -0.99673045 0.08075214
vn 0.0027551423 -0.99673045 0.08075214
vn 1.0086878E-07 -1 0
vn 1.0086981E-07 -1 0
vn 1.0086878E-07 -1 0
vn 1.008697E-07 -1 0
vn 1.0087083E-07 -1 0
vn 1.0087083E-07 -1 0
vn -0.9950841 0 -0.099033535
vn -0.9950841 0 -0.099033535
vn -0.9950841 0 -0.099033535
vn -0.9950841 0 -0.099033535
vn -0.0027550603 0.99673045 -0.0807522
vn -0.0027550603 0.99673045 -0.0807522
vn -0.0027550603 0.99673045 -0.0807522
vn -0.0027550603 0.99673045 -0.0807522
vn -0.9864309 0 -0.16417757
vn -0.9864309 0 -0.16417757
vn -0.9864309 0 -0.16417757
vn -0.9864309 0 -0.16417757
vn -0.002767041 0.99670213 -0.08109987
vn -0.002767041 0.99670213 -0.08109987
vn -0.002767041 0.99670213 -0.08109987
vn -0.002767041 0.99670213 -0.08109987
vn -6.4814435E-07 1 -1.7569118E-07
vn -6.4814435E-07 1 -1.7569118E-07
vn -6.4814435E-07 1 -1.7569118E-07
vn -6.4814435E-07 1 -1.7569118E-07
vn -0.040204637 0 0.99919146
vn -0.040204246 0 0.99919146
vn -0.040204246 0 0.99919146
vn -0.040204465 0 0.99919146
vn -0.04020503 0 0.99919146
vn -0.04020457 0 0.99919146
vn -0.040204108 0 0.99919146
vn -0.040204465 0 0.99919146
vn -0.040204108 0 0.99919146
vn 0.9863832 0.0018888577 0.16445273
vn 0.9863832 0.0018888577 0.16445273
vn 0.9863847 0.00094435824 0.16445197
vn 0.9863847 0.000944476 0.16445196
vn 0.9863853 0 0.16445102
vn 0.9863853 0 0.16445102
vn -3.2968433E-07 1 0
vn -3.2968433E-07 1 0
vn -3.2968433E-07 1 0
vn -3.2968433E-07 1 0
vn -0.9865775 0 -0.16329357
vn -0.9865775 0 -0.16329357
vn -0.9865775 0 -0.16329357
vn -0.9865775 0 -0.16329357
vn -0.9696213 0 0.24461098
vn -0.9696213 0 0.24461098
vn -0.9696213 0 0.24461098
vn -0.9696213 0 0.24461098
vn 0.9697664 0 -0.24403515
vn 0.9697664 0 -0.24403515
vn 0.9697665 0.00093437586 -0.2440329
vn 0.9697665 0.0009344756 -0.24403293
vn 0.9697658 0.0018687 -0.24403046
vn 0.9697658 0.0018687 -0.24403046
vn -0.999949 0 -0.0100997165
vn -0.999949 0 -0.0100997165
vn -0.999949 0 -0.0100997165
vn -0.999949 0 -0.0100997165
vn -0.999949 -2.1527272E-07 -0.010099678
vn -0.999949 -2.1527272E-07 -0.010099678
vn -0.999949 -2.1527272E-07 -0.010099678
vn -0.999949 -2.1527272E-07 -0.010099678
vn -0 1 0
vn -1.8730285E-07 1 0
vn -0 1 0
vn -1.8730285E-07 1 0
vn -1.8730285E-07 1 0
vn -1.8730285E-07 1 0
vn -2.1096969E-07 1 0
vn -2.1096969E-07 1 0
vn -0 -1 0
vn 1.11169676E-07 -1 0
vn 1.11169676E-07 -1 0
vn -0 -1 0
vn -0 -1 0
vn 1.005209E-07 -1 0
vn -0 -1 0
vn 1.2979183E-07 -1 0
vn 1.26372E-07 -1 0
vn 1.3259778E-07 -1 0
vn 1.2962687E-07 -1 0
vn 1.3259778E-07 -1 0
vn -0 1 0
vn -0 1 0
vn -0 1 0
vn -0 1 0
vn -0 1 0
vn -0 1 0
vn -0 1 0
vn -0 1 0
vn 0.9019343 0 -0.4318731
vn 0.9019343 0 -0.4318731
vn 0.90193576 0.0009398949 -0.43186906
vn 0.90193576 0.0009399411 -0.43186906
vn 0.9019365 0.0018797066 -0.43186465
vn 0.9019365 0.0018797066 -0.43186465
vn -0.9691307 -1.8545326E-07 0.24654742
vn -0.9691307 -1.8545326E-07 0.24654742
vn -0.9691307 -1.8545326E-07 0.24654742
vn -0.9691307 -1.8545326E-07 0.24654742
vn -0.49624896 0 -0.8681803
vn -0.4962478 0 -0.86818093
vn -0.49625158 0 -0.8681788
vn -0.49624896 0 -0.8681803
vn -0.49624023 0 -0.86818534
vn -0.4962478 0 -0.86818093
vn -0.49624023 0 -0.86818534
vn -0.4962472 0 -0.8681813
vn -0.49625158 0 -0.8681788
vn -0.49625418 1.2442437E-07 -0.86817724
vn -0.90147907 0 0.43282261
vn -0.90147907 0 0.43282261
vn -0.90147907 0 0.43282261
vn -0.90147907 0 0.43282261
vn -0.8998007 -3.4304153E-07 0.4363011
vn -0.8998007 -3.4304153E-07 0.4363011
vn -0.8998007 -3.4304153E-07 0.4363011
vn -0.8998007 -3.4304153E-07 0.4363011
g Ruin Wall.004_0
f 3/3/3 2/2/2 1/1/1
f 4/4/4 3/3/3 1/1/1
f 7/7/7 6/6/6 5/5/5
f 8/8/8 7/7/7 5/5/5
f 9/9/9 7/7/7 8/8/8
f 10/10/10 9/9/9 8/8/8
f 13/13/13 12/12/12 11/11/11
f 14/14/14 13/13/13 11/11/11
f 14/14/14 11/11/11 15/15/15
f 11/11/11 16/16/16 15/15/15
f 19/19/19 18/18/18 17/17/17
f 20/20/20 19/19/19 17/17/17
f 21/21/21 19/19/19 20/20/20
f 22/22/22 21/21/21 20/20/20
f 25/25/25 24/24/24 23/23/23
f 24/24/24 26/26/26 23/23/23
f 23/23/23 26/26/26 27/27/27
f 26/26/26 28/28/28 27/27/27
f 31/31/31 30/30/30 29/29/29
f 32/32/32 31/31/31 29/29/29
f 35/35/35 34/34/34 33/33/33
f 36/36/36 35/35/35 33/33/33
f 38/38/38 37/37/37 33/33/33
f 39/39/39 38/38/38 33/33/33
f 42/42/42 41/41/41 40/40/40
f 43/43/43 42/42/42 40/40/40
f 46/46/46 45/45/45 44/44/44
f 47/47/47 46/46/46 44/44/44
f 48/48/48 46/46/46 47/47/47
f 49/49/49 48/48/48 47/47/47
f 52/52/52 51/51/51 50/50/50
f 51/51/51 53/53/53 50/50/50
f 51/51/51 54/54/54 53/53/53
f 54/54/54 55/55/55 53/53/53
f 58/58/58 57/57/57 56/56/56
f 59/59/59 58/58/58 56/56/56
f 62/62/62 61/61/61 60/60/60
f 63/63/63 62/62/62 60/60/60
f 66/66/66 65/65/65 64/64/64
f 67/67/67 66/66/66 64/64/64
f 70/70/70 69/69/69 68/68/68
f 71/71/71 70/70/70 68/68/68
f 74/74/74 73/73/73 72/72/72
f 75/75/75 74/74/74 72/72/72
f 78/78/78 77/77/77 76/76/76
f 79/79/79 78/78/78 76/76/76
f 79/79/79 76/76/76 80/80/80
f 81/81/81 79/79/79 80/80/80
f 83/83/83 81/81/81 82/82/82
f 84/84/84 83/83/83 82/82/82
f 87/87/87 86/86/86 85/85/85
f 88/88/88 87/87/87 85/85/85
f 89/89/89 87/87/87 88/88/88
f 90/90/90 89/89/89 88/88/88
f 93/93/93 92/92/92 91/91/91
f 94/94/94 93/93/93 91/91/91
f 97/97/97 96/96/96 95/95/95
f 98/98/98 97/97/97 95/95/95
f 101/101/101 100/100/100 99/99/99
f 102/102/102 101/101/101 99/99/99
f 105/105/105 104/104/104 103/103/103
f 106/106/106 105/105/105 103/103/103
f 107/107/107 105/105/105 106/106/106
f 108/108/108 107/107/107 106/106/106
f 111/111/111 110/110/110 109/109/109
f 112/112/112 111/111/111 109/109/109
f 115/115/115 114/114/114 113/113/113
f 116/116/116 115/115/115 113/113/113
f 119/119/119 118/118/118 117/117/117
f 118/118/118 120/120/120 117/117/117
f 118/118/118 121/121/121 120/120/120
f 121/121/121 122/122/122 120/120/120
f 121/121/121 123/123/123 122/122/122
f 123/123/123 124/124/124 122/122/122
f 127/127/127 126/126/126 125/125/125
f 126/126/126 128/128/128 125/125/125
f 125/125/125 128/128/128 129/129/129
f 126/126/126 130/130/130 128/128/128
f 128/128/128 131/131/131 129/129/129
f 130/130/130 132/132/132 128/128/128
f 128/128/128 132/132/132 131/131/131
f 130/130/130 133/133/133 132/132/132
f 132/132/132 134/134/134 131/131/131
f 133/133/133 135/135/135 132/132/132
f 132/132/132 135/135/135 134/134/134
f 135/135/135 136/136/136 134/134/134
f 139/139/139 138/138/138 137/137/137
f 138/138/138 140/140/140 137/137/137
f 138/138/138 141/141/141 140/140/140
f 141/141/141 142/142/142 140/140/140
f 141/141/141 143/143/143 142/142/142
f 143/143/143 144/144/144 142/142/142
f 147/147/147 146/146/146 145/145/145
f 148/148/148 147/147/147 145/145/145
f 149/149/149 147/147/147 148/148/148
f 150/150/150 149/149/149 148/148/148
f 153/153/153 152/152/152 151/151/151
f 154/154/154 153/153/153 151/151/151
f 157/157/157 156/156/156 155/155/155
f 158/158/158 157/157/157 155/155/155
f 161/161/161 160/160/160 159/159/159
f 160/160/160 162/162/162 159/159/159
f 160/160/160 163/163/163 162/162/162
f 163/163/163 164/164/164 162/162/162
f 167/167/167 166/166/166 165/165/165
f 168/168/168 167/167/167 165/165/165
f 171/171/171 170/170/170 169/169/169
f 172/172/172 171/171/171 169/169/169
