g Ruin Wall .001
v -1.8103398 3.6510637 4.9823747
v -6.225122 3.6510642 11.561141
v -3.233266 3.6510637 4.388817
v -4.8021955 3.6510642 12.154698
v -6.439745 3.6510644 12.441406
v -5.4324307 3.6510644 13.608601
v -8.263014 3.6510646 13.219142
v -7.826227 3.6510644 14.697737
v -17.62112 3.6510656 12.3938265
v -17.703405 3.6510656 13.933389
v 1.6161534 3.6510632 -4.5640388
v 3.0329692 3.6510627 -14.506545
v 3.0329697 4.2634363 -14.506545
v 1.6161534 4.2634373 -4.5640388
v -1.3750684 3.6510637 5.1639433
v -1.3750684 4.2634373 5.1639433
v 2.0746782 4.2634373 -4.45366
v 2.0746782 3.6510632 -4.45366
v 2.0814202 -2.9630493E-07 -4.452037
v -1.3686683 9.609926E-07 5.1666136
v -1.8103399 9.689016E-07 4.9823747
v -4.3605237 1.445644E-06 12.338937
v -1.3686683 9.609926E-07 5.1666136
v -4.8021955 1.4535531E-06 12.154698
v -3.233266 9.943823E-07 4.3888173
v -5.1197653 1.8381862E-06 13.970897
v -6.225122 1.4790338E-06 11.561141
v -5.4324317 1.8332191E-06 13.608601
v -7.690652 2.5771114E-06 15.156689
v -6.439745 1.8172167E-06 12.441406
v -7.8262277 2.561202E-06 14.697737
v -17.728949 3.986368E-06 14.411265
v -8.263014 2.5099484E-06 13.219142
v -17.703405 3.9636484E-06 13.933389
v -17.62112 3.890454E-06 12.3938265
v -1.8103398 3.6510637 4.9823747
v -3.233266 3.6510637 4.388817
v 0.11721067 3.6510632 -4.9248724
v 1.6161534 3.6510632 -4.5640388
v 2.0746782 4.2634373 -4.45366
v 3.5039232 4.2634363 -14.481428
v 3.503923 3.6510627 -14.481428
v 2.0746782 3.6510632 -4.45366
v 3.5108483 -1.1500058E-07 -14.481059
v 2.0814202 -2.9630493E-07 -4.452037
v 2.0814202 -2.9630493E-07 -4.452037
v -1.8103399 9.689016E-07 4.9823747
v -1.3686683 9.609926E-07 5.1666136
v 1.6161532 -2.84233E-07 -4.5640388
v -3.233266 9.943823E-07 4.3888173
v 0.11721054 -2.4534106E-07 -4.924872
v -3.233266 9.943823E-07 4.3888173
v 0.11721054 -2.4534106E-07 -4.924872
v 0.11721067 3.6510632 -4.9248724
v -3.233266 3.6510637 4.388817
v -1.8103398 4.2634373 4.9823747
v -4.8021955 3.6510642 12.154698
v -1.8103398 3.6510637 4.9823747
v -4.802195 4.2634377 12.154698
v -5.4324307 3.6510644 13.608601
v -5.4324307 4.263438 13.608601
v 1.6161534 3.6510632 -4.5640388
v 1.6161534 4.2634373 -4.5640388
v -1.8103398 4.2634373 4.9823747
v -1.8103398 3.6510637 4.9823747
v -1.3750684 4.2634373 5.1639433
v -1.8103398 4.2634373 4.9823747
v 1.6161534 4.2634373 -4.5640388
v 2.0746782 4.2634373 -4.45366
v 3.503923 3.6510627 -14.481428
v 3.431287 3.2980765E-07 -23.312597
v 3.5108483 -1.1500058E-07 -14.481059
v 3.4245698 3.6510632 -23.310877
v 3.5039232 4.2634363 -14.481428
v 3.4245703 4.2634363 -23.310877
v 1.4933958 -4.5427733E-08 -14.588659
v 1.4742172 4.249106E-07 -22.811035
v 1.474217 3.6510632 -22.811035
v 1.4933959 3.6510632 -14.588659
v 0.11721054 -2.4534106E-07 -4.924872
v 1.4933958 -4.5427733E-08 -14.588659
v 1.4933959 3.6510632 -14.588659
v 0.11721067 3.6510632 -4.9248724
v 0.11721067 3.6510632 -4.9248724
v 3.0329692 3.6510627 -14.506545
v 1.6161534 3.6510632 -4.5640388
v 1.4933959 3.6510632 -14.588659
v 2.9677114 3.6510632 -23.193789
v 1.474217 3.6510632 -22.811035
v 1.6161532 -2.84233E-07 -4.5640388
v 1.4933958 -4.5427733E-08 -14.588659
v 0.11721054 -2.4534106E-07 -4.924872
v 3.0329692 -9.852061E-08 -14.506545
v 2.0814202 -2.9630493E-07 -4.452037
v 1.4742172 4.249106E-07 -22.811035
v 3.5108483 -1.1500058E-07 -14.481059
v 2.9677117 3.5233504E-07 -23.193789
v 3.431287 3.2980765E-07 -23.312597
v 0.9719617 -3.9475248E-07 -32.908623
v 0.50838745 -3.7222554E-07 -32.78982
v 2.9677117 3.5233504E-07 -23.193789
v -0.985108 -2.996496E-07 -32.40706
v 1.4742172 4.249106E-07 -22.811035
v -2.9452062 -8.720584E-07 -43.742813
v -3.3483984 -8.454271E-07 -43.485023
v 0.50838745 -3.7222554E-07 -32.78982
v -4.647357 -7.596296E-07 -42.654526
v -0.985108 -2.996496E-07 -32.40706
v -10.666067 -2.5941795E-06 -52.068153
v -9.36711 -2.679977E-06 -52.898655
v -8.963916 -2.7066085E-06 -53.15644
v -16.285109 -3.0562837E-06 -58.08264
v -15.463911 -3.14606E-06 -59.387493
v -15.209007 -3.1739269E-06 -59.79252
v -25.777683 -4.5030724E-06 -64.15127
v -25.438393 -4.5841325E-06 -65.655235
v -31.545868 -5.8793457E-06 -65.452545
v -25.333076 -4.609293E-06 -66.122055
v -31.20658 -5.960405E-06 -66.956505
v -31.101263 -5.9855656E-06 -67.42333
v 1.6161534 4.2634373 -4.5640388
v 3.5039232 4.2634363 -14.481428
v 2.0746782 4.2634373 -4.45366
v 3.0329697 4.2634363 -14.506545
v 3.4245703 4.2634363 -23.310877
v 2.9677117 4.2634363 -23.193789
v 0.96524364 4.2634363 -32.906902
v 0.50838757 4.2634363 -32.78982
v -2.95105 4.2634354 -43.739075
v -3.348398 4.2634354 -43.485023
v -8.969762 4.2634335 -53.152702
v -9.36711 4.2634335 -52.898655
v -15.212703 4.263433 -59.786655
v -15.463911 4.263433 -59.387493
v -25.334608 4.263431 -66.115295
v -25.438393 4.263431 -65.655235
v -31.102797 4.2634296 -67.41657
v -31.20658 4.2634296 -66.956505
v 1.4742172 4.249106E-07 -22.811035
v -0.985108 -2.996496E-07 -32.40706
v -0.9851085 3.6510623 -32.40706
v 1.474217 3.6510632 -22.811035
v 2.9677114 3.6510632 -23.193789
v 0.50838757 3.6510623 -32.78982
v 0.50838757 4.2634363 -32.78982
v 2.9677117 4.2634363 -23.193789
v 3.0329692 3.6510627 -14.506545
v 2.9677114 3.6510632 -23.193789
v 2.9677117 4.2634363 -23.193789
v 3.0329697 4.2634363 -14.506545
v -0.9851085 3.6510623 -32.40706
v -3.3483984 3.6510615 -43.485023
v 0.50838757 3.6510623 -32.78982
v -4.6473584 3.6510613 -42.654526
v -9.36711 3.6510599 -52.898655
v -10.666067 3.6510599 -52.068153
v -15.463911 3.6510594 -59.387493
v -16.285109 3.6510587 -58.08264
v -25.438393 3.6510572 -65.655235
v -25.777683 3.651057 -64.15127
v -31.20658 3.651056 -66.956505
v -31.545868 3.651055 -65.452545
v 0.96524364 4.2634363 -32.906902
v -2.95105 4.2634354 -43.739075
v -2.9510503 3.6510615 -43.739075
v 0.96524364 3.6510623 -32.906902
v -2.9452062 -8.720584E-07 -43.742813
v 0.9719617 -3.9475248E-07 -32.908623
v 3.4245698 3.6510632 -23.310877
v 0.9719617 -3.9475248E-07 -32.908623
v 3.431287 3.2980765E-07 -23.312597
v 0.96524364 3.6510623 -32.906902
v 3.4245703 4.2634363 -23.310877
v 0.96524364 4.2634363 -32.906902
v 1.474217 3.6510632 -22.811035
v -0.9851085 3.6510623 -32.40706
v 0.50838757 3.6510623 -32.78982
v 2.9677114 3.6510632 -23.193789
v -2.9510503 3.6510615 -43.739075
v -8.963916 -2.7066085E-06 -53.15644
v -2.9452062 -8.720584E-07 -43.742813
v -8.969762 3.6510599 -53.152702
v -2.95105 4.2634354 -43.739075
v -8.969762 4.2634335 -53.152702
v 0.50838757 3.6510623 -32.78982
v -3.3483984 3.6510615 -43.485023
v -3.348398 4.2634354 -43.485023
v 0.50838757 4.2634363 -32.78982
v -0.985108 -2.996496E-07 -32.40706
v -4.647357 -7.596296E-07 -42.654526
v -4.6473584 3.6510613 -42.654526
v -0.9851085 3.6510623 -32.40706
v -10.666067 -2.5941795E-06 -52.068153
v -16.285109 -3.0562837E-06 -58.08264
v -16.285109 3.6510587 -58.08264
v -10.666067 3.6510599 -52.068153
v -3.3483984 3.6510615 -43.485023
v -9.36711 3.6510599 -52.898655
v -9.36711 4.2634335 -52.898655
v -3.348398 4.2634354 -43.485023
v -4.647357 -7.596296E-07 -42.654526
v -10.666067 -2.5941795E-06 -52.068153
v -10.666067 3.6510599 -52.068153
v -4.6473584 3.6510613 -42.654526
v -15.463911 3.6510594 -59.387493
v -25.438393 3.6510572 -65.655235
v -25.438393 4.263431 -65.655235
v -15.463911 4.263433 -59.387493
v -8.969762 3.6510599 -53.152702
v -15.209007 -3.1739269E-06 -59.79252
v -8.963916 -2.7066085E-06 -53.15644
v -15.212703 3.6510594 -59.786655
v -8.969762 4.2634335 -53.152702
v -15.212703 4.263433 -59.786655
v -9.36711 3.6510599 -52.898655
v -15.463911 3.6510594 -59.387493
v -15.463911 4.263433 -59.387493
v -9.36711 4.2634335 -52.898655
v -25.334608 4.263431 -66.115295
v -31.102797 4.2634296 -67.41657
v -31.102797 3.651056 -67.41657
v -25.334608 3.6510572 -66.115295
v -31.101263 -5.9855656E-06 -67.42333
v -25.333076 -4.609293E-06 -66.122055
v -16.285109 -3.0562837E-06 -58.08264
v -25.777683 -4.5030724E-06 -64.15127
v -25.777683 3.651057 -64.15127
v -16.285109 3.6510587 -58.08264
v -15.212703 3.6510594 -59.786655
v -25.333076 -4.609293E-06 -66.122055
v -15.209007 -3.1739269E-06 -59.79252
v -25.334608 3.6510572 -66.115295
v -15.212703 4.263433 -59.786655
v -25.334608 4.263431 -66.115295
v -31.20658 4.2634296 -66.956505
v -31.102797 3.651056 -67.41657
v -31.102797 4.2634296 -67.41657
v -31.20658 3.651056 -66.956505
v -31.20658 -5.960405E-06 -66.956505
v -31.101263 -5.9855656E-06 -67.42333
v -31.545868 -5.8793457E-06 -65.452545
v -31.545868 3.651055 -65.452545
v -25.438393 3.6510572 -65.655235
v -31.20658 3.651056 -66.956505
v -31.20658 4.2634296 -66.956505
v -25.438393 4.263431 -65.655235
v -25.777683 -4.5030724E-06 -64.15127
v -31.545868 -5.8793457E-06 -65.452545
v -31.545868 3.651055 -65.452545
v -25.777683 3.651057 -64.15127
v -6.225122 3.6510642 11.561141
v -6.439745 3.6510644 12.441406
v -6.439745 1.8172167E-06 12.441406
v -6.225122 1.4790338E-06 11.561141
v -1.3750684 4.2634373 5.1639433
v -4.802195 4.2634377 12.154698
v -1.8103398 4.2634373 4.9823747
v -4.3669233 4.2634377 12.3362665
v -5.4324307 4.263438 13.608601
v -5.1242957 4.263438 13.965646
v -7.826227 4.263438 14.697737
v -7.692616 4.263438 15.150039
v -17.703405 4.2634387 13.933389
v -17.728577 4.2634387 14.404341
v -3.233266 3.6510637 4.388817
v -6.225122 3.6510642 11.561141
v -6.225122 1.4790338E-06 11.561141
v -3.233266 9.943823E-07 4.3888173
v -1.3750684 3.6510637 5.1639433
v -4.3669233 4.2634377 12.3362665
v -1.3750684 4.2634373 5.1639433
v -4.366924 3.6510642 12.3362665
v -1.3686683 9.609926E-07 5.1666136
v -5.1242957 4.263438 13.965646
v -4.3605237 1.445644E-06 12.338937
v -5.1242957 3.6510644 13.965646
v -5.1197653 1.8381862E-06 13.970897
v -5.1242957 3.6510644 13.965646
v -7.692616 4.263438 15.150039
v -5.1242957 4.263438 13.965646
v -7.692616 3.6510644 15.150039
v -5.1197653 1.8381862E-06 13.970897
v -7.690652 2.5771114E-06 15.156689
v -7.690652 2.5771114E-06 15.156689
v -17.728949 3.986368E-06 14.411265
v -17.728577 3.6510656 14.404341
v -7.692616 3.6510644 15.150039
v -17.728577 4.2634387 14.404341
v -7.692616 4.263438 15.150039
v -5.4324307 4.263438 13.608601
v -7.826227 4.263438 14.697737
v -7.826227 3.6510644 14.697737
v -5.4324307 3.6510644 13.608601
v -6.439745 3.6510644 12.441406
v -8.263014 3.6510646 13.219142
v -8.263014 2.5099484E-06 13.219142
v -6.439745 1.8172167E-06 12.441406
v -17.703405 3.9636484E-06 13.933389
v -17.62112 3.890454E-06 12.3938265
v -17.62112 3.6510656 12.3938265
v -17.703405 3.6510656 13.933389
v -17.728949 3.986368E-06 14.411265
v -17.728577 3.6510656 14.404341
v -17.728577 4.2634387 14.404341
v -17.703405 4.2634387 13.933389
v -7.826227 4.263438 14.697737
v -17.703405 4.2634387 13.933389
v -17.703405 3.6510656 13.933389
v -7.826227 3.6510644 14.697737
v -8.263014 3.6510646 13.219142
v -17.62112 3.6510656 12.3938265
v -17.62112 3.890454E-06 12.3938265
v -8.263014 2.5099484E-06 13.219142
vt 0.625 0.57296276
vt 0.625 0.75
vt 0.625 0.75
vt 0.625 0.57296276
vt 0.625 0.75
vt 0.625 0.57296276
vt 0.625 0.75
vt 0.625 0.57296276
vt 0.625 0.75
vt 0.625 0.57296276
vt 0.875 0.5729628
vt 0.875 0.5729628
vt 0.875 0.5729628
vt 0.875 0.5729628
vt 0.625 0.5
vt 0.625 0.5
vt 0.625 0.25
vt 0.625 0.25
vt 0.375 0.25
vt 0.375 0.5
vt 0.375 0.57296276
vt 0.375 0.5
vt 0.375 0.5
vt 0.375 0.57296276
vt 0.375 0.75
vt 0.375 0.5
vt 0.375 0.75
vt 0.375 0.57296276
vt 0.375 0.5
vt 0.375 0.75
vt 0.375 0.57296276
vt 0.375 0.5
vt 0.375 0.75
vt 0.375 0.57296276
vt 0.375 0.75
vt 0.625 0.57296276
vt 0.625 0.75
vt 0.875 0.75
vt 0.875 0.5729628
vt 0.625 0.25
vt 0.625 0.25
vt 0.625 0.25
vt 0.625 0.25
vt 0.375 0.25
vt 0.375 0.25
vt 0.125 0.5
vt 0.375 0.57296276
vt 0.375 0.5
vt 0.125 0.57296276
vt 0.375 0.75
vt 0.125 0.75
vt 0.375 0.75
vt 0.375 1
vt 0.625 1
vt 0.625 0.75
vt 0.625 0.57296276
vt 0.625 0.57296276
vt 0.625 0.57296276
vt 0.625 0.57296276
vt 0.625 0.57296276
vt 0.625 0.57296276
vt 0.875 0.5729628
vt 0.875 0.5729628
vt 0.625 0.57296276
vt 0.625 0.57296276
vt 0.625 0.5
vt 0.625 0.57296276
vt 0.875 0.5729628
vt 0.875 0.5
vt 0.625 0.25
vt 0.375 0.25
vt 0.375 0.25
vt 0.625 0.25
vt 0.625 0.25
vt 0.625 0.25
vt 0.375 1
vt 0.375 1
vt 0.625 1
vt 0.625 1
vt 0.375 1
vt 0.375 1
vt 0.625 1
vt 0.625 1
vt 0.875 0.75
vt 0.875 0.5729628
vt 0.875 0.5729628
vt 0.875 0.75
vt 0.875 0.5729628
vt 0.875 0.75
vt 0.125 0.57296276
vt 0.125 0.75
vt 0.125 0.75
vt 0.125 0.57296276
vt 0.125 0.5
vt 0.125 0.75
vt 0.125 0.5
vt 0.125 0.57296276
vt 0.125 0.5
vt 0.125 0.5
vt 0.125 0.5729626
vt 0.125 0.57296276
vt 0.12499999 0.74999994
vt 0.125 0.75
vt 0.125 0.5
vt 0.125 0.5729626
vt 0.125 0.5729626
vt 0.12499999 0.74999994
vt 0.12499999 0.74999994
vt 0.12499999 0.74999994
vt 0.125 0.5729626
vt 0.125 0.5
vt 0.12499999 0.74999994
vt 0.125 0.5729626
vt 0.125 0.5
vt 0.12499999 0.74999994
vt 0.125 0.5729626
vt 0.12499999 0.74999994
vt 0.125 0.5
vt 0.125 0.5729626
vt 0.125 0.5
vt 0.875 0.5729628
vt 0.875 0.5
vt 0.875 0.5
vt 0.875 0.5729628
vt 0.875 0.5
vt 0.875 0.5729628
vt 0.875 0.5000001
vt 0.875 0.57296276
vt 0.875 0.5000001
vt 0.875 0.57296276
vt 0.875 0.5000001
vt 0.875 0.57296276
vt 0.875 0.5000001
vt 0.875 0.57296276
vt 0.875 0.5000001
vt 0.875 0.57296276
vt 0.875 0.5000001
vt 0.875 0.57296276
vt 0.375 1
vt 0.375 1
vt 0.62499994 1
vt 0.625 1
vt 0.875 0.5729628
vt 0.875 0.57296276
vt 0.875 0.57296276
vt 0.875 0.5729628
vt 0.875 0.5729628
vt 0.875 0.5729628
vt 0.875 0.5729628
vt 0.875 0.5729628
vt 0.87499994 0.75
vt 0.875 0.57296276
vt 0.875 0.57296276
vt 0.87499994 0.75
vt 0.875 0.57296276
vt 0.87499994 0.75
vt 0.875 0.57296276
vt 0.87499994 0.75
vt 0.875 0.57296276
vt 0.87499994 0.75
vt 0.875 0.57296276
vt 0.87499994 0.75
vt 0.625 0.24999927
vt 0.625 0.24999927
vt 0.625 0.24999906
vt 0.625 0.24999906
vt 0.375 0.25
vt 0.375 0.25
vt 0.625 0.25
vt 0.375 0.25
vt 0.375 0.25
vt 0.625 0.24999906
vt 0.625 0.25
vt 0.625 0.24999927
vt 0.875 0.75
vt 0.87499994 0.75
vt 0.875 0.57296276
vt 0.875 0.5729628
vt 0.625 0.24999906
vt 0.375 0.25
vt 0.375 0.25
vt 0.625 0.24999906
vt 0.625 0.24999927
vt 0.625 0.24999927
vt 0.875 0.57296276
vt 0.875 0.57296276
vt 0.875 0.57296276
vt 0.875 0.57296276
vt 0.375 1
vt 0.375 1
vt 0.62499994 1
vt 0.62499994 1
vt 0.375 1
vt 0.375 1
vt 0.62499994 1
vt 0.62499994 1
vt 0.875 0.57296276
vt 0.875 0.57296276
vt 0.875 0.57296276
vt 0.875 0.57296276
vt 0.375 1
vt 0.375 1
vt 0.62499994 1
vt 0.62499994 1
vt 0.875 0.57296276
vt 0.875 0.57296276
vt 0.875 0.57296276
vt 0.875 0.57296276
vt 0.625 0.24999906
vt 0.375 0.25
vt 0.375 0.25
vt 0.625 0.24999906
vt 0.625 0.24999927
vt 0.625 0.24999927
vt 0.875 0.57296276
vt 0.875 0.57296276
vt 0.875 0.57296276
vt 0.875 0.57296276
vt 0.625 0.24999927
vt 0.625 0.24999927
vt 0.625 0.24999906
vt 0.625 0.24999906
vt 0.375 0.25
vt 0.375 0.25
vt 0.375 1
vt 0.375 1
vt 0.62499994 1
vt 0.62499994 1
vt 0.625 0.24999906
vt 0.375 0.25
vt 0.375 0.25
vt 0.625 0.24999906
vt 0.625 0.24999927
vt 0.625 0.24999927
vt 0.625 0.17703679
vt 0.625 0.24999906
vt 0.625 0.24999927
vt 0.625 0.17703721
vt 0.375 0.1770372
vt 0.375 0.25
vt 0.375 0
vt 0.625 0
vt 0.875 0.57296276
vt 0.875 0.57296276
vt 0.875 0.57296276
vt 0.875 0.57296276
vt 0.375 1
vt 0.375 1
vt 0.62499994 1
vt 0.62499994 1
vt 0.625 0.75
vt 0.625 0.75
vt 0.375 0.75
vt 0.375 0.75
vt 0.625 0.5
vt 0.625 0.57296276
vt 0.625 0.57296276
vt 0.625 0.5
vt 0.625 0.57296276
vt 0.625 0.5
vt 0.625 0.57296276
vt 0.625 0.5
vt 0.625 0.57296276
vt 0.625 0.5
vt 0.625 0.75
vt 0.625 0.75
vt 0.375 0.75
vt 0.375 0.75
vt 0.625 0.5
vt 0.625 0.5
vt 0.625 0.5
vt 0.625 0.5
vt 0.375 0.5
vt 0.625 0.5
vt 0.375 0.5
vt 0.625 0.5
vt 0.375 0.5
vt 0.625 0.5
vt 0.625 0.5
vt 0.625 0.5
vt 0.625 0.5
vt 0.375 0.5
vt 0.375 0.5
vt 0.375 0.5
vt 0.375 0.5
vt 0.625 0.5
vt 0.625 0.5
vt 0.625 0.5
vt 0.625 0.5
vt 0.625 0.57296276
vt 0.625 0.57296276
vt 0.625 0.57296276
vt 0.625 0.57296276
vt 0.625 0.75
vt 0.625 0.75
vt 0.375 0.75
vt 0.375 0.75
vt 0.375 0.57296276
vt 0.375 0.75
vt 0.625 0.75
vt 0.625 0.57296276
vt 0.375 0.5
vt 0.625 0.5
vt 0.625 0.5
vt 0.625 0.57296276
vt 0.625 0.57296276
vt 0.625 0.57296276
vt 0.625 0.57296276
vt 0.625 0.57296276
vt 0.625 0.75
vt 0.625 0.75
vt 0.375 0.75
vt 0.375 0.75
vn -0 1 0
vn -0 1 0
vn -0 1 0
vn -0 1 0
vn -0 1 0
vn -0 1 0
vn -0 1 0
vn -0 1 0
vn 1.03708224E-07 1 -1.902453E-07
vn 1.03708224E-07 1 -1.902453E-07
vn -0.9899989 0 -0.14107569
vn -0.9899989 0 -0.14107569
vn -0.9899989 0 -0.14107569
vn -0.9899989 0 -0.14107569
vn 0.94127935 0.00094633416 0.33762753
vn 0.9412794 0 0.3376284
vn 0.9412794 0 0.3376284
vn 0.94127935 0.0009463669 0.33762756
vn 0.9412783 0.0018926094 0.33762634
vn 0.9412783 0.0018926094 0.33762634
vn -0 -1 0
vn -0 -1 0
vn -0 -1 0
vn -0 -1 0
vn -0 -1 0
vn -1.3964716E-07 -1 1.8736127E-07
vn -0 -1 0
vn -2.4145854E-07 -1 1.5721014E-07
vn -1.456036E-07 -1 0
vn -2.6227173E-07 -1 1.6857066E-07
vn -2.4308764E-07 -1 1.5809937E-07
vn -1.456036E-07 -1 0
vn -2.6227173E-07 -1 1.6857066E-07
vn -1.4760107E-07 -1 0
vn -1.4953882E-07 -1 0
vn -0 1 -1.01502835E-07
vn -0 1 -1.01502835E-07
vn -0 1 -1.01502835E-07
vn -0 1 -1.01502835E-07
vn 0.9899949 -5.0380453E-07 0.14110269
vn 0.9899949 -5.0380453E-07 0.14110269
vn 0.98999447 0.00094554236 0.14110276
vn 0.98999447 0.0009455459 0.14110275
vn 0.98999316 0.0018914868 0.14110269
vn 0.98999316 0.0018914868 0.14110269
vn -0 -1 1.10172735E-07
vn -0 -1 1.1067341E-07
vn -0 -1 1.10172735E-07
vn -0 -1 1.10654376E-07
vn -0 -1 1.11207385E-07
vn -0 -1 1.11207385E-07
vn -0.94096637 0 -0.33850023
vn -0.94096637 0 -0.33850023
vn -0.94096637 0 -0.33850023
vn -0.94096637 0 -0.33850023
vn -0.922922 3.2832855E-07 -0.38498697
vn -0.922922 3.2832855E-07 -0.38498697
vn -0.922922 3.2832855E-07 -0.38498697
vn -0.922922 3.2832855E-07 -0.38498697
vn -0.91750693 0 -0.3977197
vn -0.91750693 0 -0.3977197
vn -0.94120795 0 -0.33782762
vn -0.94120795 0 -0.33782762
vn -0.94120795 0 -0.33782762
vn -0.94120795 0 -0.33782762
vn -0 1 0
vn -0 1 0
vn -0 1 0
vn -0 1 0
vn 0.9999591 0.00093471346 -0.008992308
vn 0.9999578 0.0018699336 -0.008997655
vn 0.9999578 0.0018699336 -0.008997655
vn 0.9999591 0.00093481346 -0.008992307
vn 0.9999596 -5.779398E-07 -0.008986952
vn 0.9999596 -5.779398E-07 -0.008986952
vn -0.99999726 0 0.0023325037
vn -0.99999726 0 0.0023325037
vn -0.99999726 0 0.0023325037
vn -0.99999726 0 0.0023325037
vn -0.9900119 0 -0.14098403
vn -0.9900119 0 -0.14098403
vn -0.9900119 0 -0.14098403
vn -0.9900119 0 -0.14098403
vn 1.00615395E-07 1 0
vn 1.00615395E-07 1 0
vn 1.00615395E-07 1 0
vn 1.00615395E-07 1 0
vn 1.0235443E-07 1 0
vn 1.0235443E-07 1 0
vn -0 -1 0
vn -0 -1 0
vn -0 -1 0
vn -0 -1 0
vn -0 -1 0
vn -0 -1 0
vn -0 -1 0
vn -0 -1 0
vn -0 -1 0
vn -0 -1 0
vn -0 -1 0
vn -0 -1 0
vn -0 -1 0
vn -0 -1 0
vn -0 -1 0
vn -0 -1 0
vn -0 -1 0
vn -0 -1 0
vn -0 -1 0
vn -0 -1 0
vn -0 -1 1.6831059E-07
vn -0 -1 1.6831062E-07
vn -0 -1 0
vn -0 -1 0
vn -0 -1 0
vn -0 -1 0
vn -0 -1 0
vn 2.1547164E-07 -1 1.0250717E-07
vn 2.1547434E-07 -1 1.02506505E-07
vn 2.1547301E-07 -1 1.0250684E-07
vn 2.1547434E-07 -1 1.02506505E-07
vn -0 1 -1.2369657E-07
vn -0 1 0
vn -0 1 -1.2369657E-07
vn -0 1 0
vn -0 1 0
vn -0 1 0
vn -0 1 -1.2541561E-07
vn -0 1 -1.2541561E-07
vn -0 1 1.4825737E-07
vn -0 1 1.4825737E-07
vn -0 1 1.4825737E-07
vn -0 1 1.4825737E-07
vn -0 1 -4.7144866E-07
vn -0 1 -4.7144866E-07
vn -1.4474291E-07 1 3.1445632E-07
vn -1.4474291E-07 1 3.1445632E-07
vn -2.5172605E-07 1 1.75087E-07
vn -2.5172605E-07 1 1.75087E-07
vn -0.96869284 0 0.24826221
vn -0.96869284 0 0.24826221
vn -0.96869284 0 0.24826221
vn -0.96869284 0 0.24826221
vn -0.96869296 0 0.24826188
vn -0.96869296 0 0.24826188
vn -0.96869296 0 0.24826188
vn -0.96869296 0 0.24826188
vn -0.99997187 0 0.0075117107
vn -0.99997187 0 0.0075117107
vn -0.99997187 0 0.0075117107
vn -0.99997187 0 0.0075117107
vn -1.2192288E-07 1 -1.1556266E-07
vn -1.2192288E-07 1 -1.1556266E-07
vn -1.2192288E-07 1 -1.1556266E-07
vn -1.2192288E-07 1 -1.1556266E-07
vn -1.6430468E-07 1 0
vn -1.6430468E-07 1 0
vn -3.6734622E-07 1 3.566801E-07
vn -3.6734622E-07 1 3.566801E-07
vn -3.6734622E-07 1 3.566801E-07
vn -3.6734622E-07 1 3.566801E-07
vn -3.3884209E-07 1 2.8922054E-07
vn -3.3884209E-07 1 2.8922054E-07
vn 0.94042414 -2.2151931E-07 -0.34000352
vn 0.94042414 -2.2151931E-07 -0.34000352
vn 0.9404228 0.00093591126 -0.34000608
vn 0.9404228 0.0009358412 -0.34000608
vn 0.94042057 0.0018717939 -0.34000835
vn 0.94042057 0.0018717939 -0.34000835
vn 0.9686924 0.00094961526 -0.24826215
vn 0.96869105 0.00189923 -0.24826193
vn 0.96869105 0.00189923 -0.24826193
vn 0.9686924 0.00094961515 -0.24826215
vn 0.96869284 0 -0.24826212
vn 0.96869284 0 -0.24826212
vn -0 1 0
vn -0 1 0
vn -0 1 0
vn -0 1 0
vn 0.84251505 0.0009495157 -0.538672
vn 0.84251386 0.001899944 -0.53867126
vn 0.84251386 0.001899944 -0.53867126
vn 0.84251505 0.0009495157 -0.538672
vn 0.84251535 -9.134493E-07 -0.5386722
vn 0.84251535 -9.134493E-07 -0.5386722
vn -0.9407048 4.4884638E-07 0.33922657
vn -0.9407048 4.4884638E-07 0.33922657
vn -0.9407048 4.4884638E-07 0.33922657
vn -0.9407048 4.4884638E-07 0.33922657
vn -0.94167084 -2.3595797E-07 0.33653527
vn -0.94167084 -2.3595797E-07 0.33653527
vn -0.94167084 -2.3595797E-07 0.33653527
vn -0.94167084 -2.3595797E-07 0.33653527
vn -0.7307204 0 0.6826769
vn -0.7307204 0 0.6826769
vn -0.7307204 0 0.6826769
vn -0.7307204 0 0.6826769
vn -0.8425157 0 0.5386717
vn -0.8425157 0 0.5386717
vn -0.8425157 0 0.5386717
vn -0.8425157 0 0.5386717
vn -0.8425157 -1.5320806E-07 0.53867185
vn -0.8425157 -1.5320806E-07 0.53867185
vn -0.8425157 -1.5320806E-07 0.53867185
vn -0.8425157 -1.5320806E-07 0.53867185
vn -0.53205395 0 0.8467104
vn -0.53205395 0 0.8467104
vn -0.53205395 0 0.8467104
vn -0.53205395 0 0.8467104
vn 0.72824013 0.00092638214 -0.68532145
vn 0.7282372 0.001852556 -0.68532264
vn 0.7282372 0.001852556 -0.68532264
vn 0.72824013 0.000926419 -0.6853215
vn 0.72824246 0 -0.68531954
vn 0.72824246 0 -0.68531954
vn -0.7287793 0 0.6847486
vn -0.7287793 0 0.6847486
vn -0.7287793 0 0.6847486
vn -0.7287793 0 0.6847486
vn 0.2200654 0 -0.9754851
vn 0.2200654 0 -0.9754851
vn 0.22006468 0.0009490476 -0.97548485
vn 0.22006473 0.00094904884 -0.97548485
vn 0.22006379 0.0018980955 -0.9754836
vn 0.22006379 0.0018980955 -0.9754836
vn -0.5386371 0 0.8425379
vn -0.5386371 0 0.8425379
vn -0.5386371 0 0.8425379
vn -0.5386371 0 0.8425379
vn 0.53013945 0.00092255644 -0.84791005
vn 0.5301319 0.0018451081 -0.8479132
vn 0.5301319 0.0018451081 -0.8479132
vn 0.5301393 0.00092273817 -0.84791005
vn 0.5301465 0 -0.8479061
vn 0.5301465 0 -0.8479061
vn -0.97548884 0 -0.22004907
vn -0.9754877 -5.774146E-07 -0.22005373
vn -0.97548884 0 -0.22004907
vn -0.9754868 -3.8471086E-07 -0.22005785
vn -0.9754858 -5.7706626E-07 -0.22006223
vn -0.9754867 -1.1541324E-06 -0.22005849
vn -0.97548497 0 -0.22006597
vn -0.97548497 0 -0.22006597
vn -0.22006303 0 0.9754857
vn -0.22006303 0 0.9754857
vn -0.22006303 0 0.9754857
vn -0.22006303 0 0.9754857
vn -0.22006434 0 0.9754853
vn -0.22006434 0 0.9754853
vn -0.22006434 0 0.9754853
vn -0.22006434 0 0.9754853
vn -0.9715396 0 -0.23687701
vn -0.9715396 0 -0.23687701
vn -0.9715396 0 -0.23687701
vn -0.9715396 0 -0.23687701
vn -0 1 3.1973576E-07
vn 1.08156456E-07 1 -1.2851545E-07
vn -0 1 3.1973576E-07
vn 1.08156456E-07 1 -1.2851545E-07
vn 1.08156456E-07 1 -1.2851545E-07
vn 1.08156456E-07 1 -1.2851545E-07
vn -0 1 3.1123037E-07
vn -0 1 3.1123037E-07
vn -0 1 -4.5555763E-07
vn -0 1 -4.5555763E-07
vn -0.92292213 0 -0.3849868
vn -0.92292213 0 -0.3849868
vn -0.92292213 0 -0.3849868
vn -0.92292213 0 -0.3849868
vn 0.92292184 0.0009496563 0.38498646
vn 0.9229222 0 0.38498643
vn 0.9229222 0 0.38498643
vn 0.92292184 0.0009496563 0.38498646
vn 0.92292047 0.0018993116 0.384986
vn 0.90682304 0 0.42151168
vn 0.92292047 0.0018993116 0.384986
vn 0.90678704 0.0009075255 0.42158806
vn 0.90675026 0.001814599 0.421664
vn 0.4187866 0.0009264045 0.90808415
vn 0.41877097 0 0.9080919
vn 0.41877097 0 0.9080919
vn 0.4187866 0.00092633074 0.9080842
vn 0.4188018 0.0018524991 0.9080757
vn 0.4188018 0.0018524991 0.9080757
vn -0.07407639 0.0018378282 0.99725085
vn -0.07407639 0.0018378282 0.99725085
vn -0.0740874 0.00091890286 0.99725133
vn -0.0740874 0.0009191108 0.99725133
vn -0.07409836 0 0.99725085
vn -0.07409836 0 0.99725085
vn -0.41413286 0 -0.9102165
vn -0.41413286 0 -0.9102165
vn -0.41413286 0 -0.9102165
vn -0.41413286 0 -0.9102165
vn -0.39235672 0 -0.9198132
vn -0.39235672 0 -0.9198132
vn -0.39235672 0 -0.9198132
vn -0.39235672 0 -0.9198132
vn -0.99857473 0 -0.053372674
vn -0.99857473 0 -0.05337096
vn -0.99857473 0 -0.05337096
vn -0.9985746 0 -0.053372867
vn -0.9985746 0 -0.053374387
vn -0.9985746 0 -0.05337383
vn -0.9985746 0 -0.05337327
vn -0.9985746 0 -0.05337327
vn 0.07715471 0 -0.9970192
vn 0.07715471 0 -0.9970192
vn 0.07715471 0 -0.9970192
vn 0.07715471 0 -0.9970192
vn 0.0878515 0 -0.99613357
vn 0.0878515 0 -0.99613357
vn 0.0878515 0 -0.99613357
vn 0.0878515 0 -0.99613357
g Ruin Wall .001_0
f 3/3/3 2/2/2 1/1/1
f 2/2/2 4/4/4 1/1/1
f 2/2/2 5/5/5 4/4/4
f 5/5/5 6/6/6 4/4/4
f 5/5/5 7/7/7 6/6/6
f 7/7/7 8/8/8 6/6/6
f 7/7/7 9/9/9 8/8/8
f 9/9/9 10/10/10 8/8/8
f 13/13/13 12/12/12 11/11/11
f 14/14/14 13/13/13 11/11/11
f 17/17/17 16/16/16 15/15/15
f 18/18/18 17/17/17 15/15/15
f 18/18/18 15/15/15 19/19/19
f 15/15/15 20/20/20 19/19/19
f 23/23/23 22/22/22 21/21/21
f 22/22/22 24/24/24 21/21/21
f 21/21/21 24/24/24 25/25/25
f 22/22/22 26/26/26 24/24/24
f 24/24/24 27/27/27 25/25/25
f 26/26/26 28/28/28 24/24/24
f 24/24/24 28/28/28 27/27/27
f 26/26/26 29/29/29 28/28/28
f 28/28/28 30/30/30 27/27/27
f 29/29/29 31/31/31 28/28/28
f 28/28/28 31/31/31 30/30/30
f 29/29/29 32/32/32 31/31/31
f 31/31/31 33/33/33 30/30/30
f 32/32/32 34/34/34 31/31/31
f 31/31/31 34/34/34 33/33/33
f 34/34/34 35/35/35 33/33/33
f 38/38/38 37/37/37 36/36/36
f 39/39/39 38/38/38 36/36/36
f 42/42/42 41/41/41 40/40/40
f 43/43/43 42/42/42 40/40/40
f 44/44/44 42/42/42 43/43/43
f 45/45/45 44/44/44 43/43/43
f 48/48/48 47/47/47 46/46/46
f 47/47/47 49/49/49 46/46/46
f 47/47/47 50/50/50 49/49/49
f 50/50/50 51/51/51 49/49/49
f 54/54/54 53/53/53 52/52/52
f 55/55/55 54/54/54 52/52/52
f 58/58/58 57/57/57 56/56/56
f 57/57/57 59/59/59 56/56/56
f 57/57/57 60/60/60 59/59/59
f 60/60/60 61/61/61 59/59/59
f 64/64/64 63/63/63 62/62/62
f 65/65/65 64/64/64 62/62/62
f 68/68/68 67/67/67 66/66/66
f 69/69/69 68/68/68 66/66/66
f 72/72/72 71/71/71 70/70/70
f 71/71/71 73/73/73 70/70/70
f 70/70/70 73/73/73 74/74/74
f 73/73/73 75/75/75 74/74/74
f 78/78/78 77/77/77 76/76/76
f 79/79/79 78/78/78 76/76/76
f 82/82/82 81/81/81 80/80/80
f 83/83/83 82/82/82 80/80/80
f 86/86/86 85/85/85 84/84/84
f 85/85/85 87/87/87 84/84/84
f 85/85/85 88/88/88 87/87/87
f 88/88/88 89/89/89 87/87/87
f 92/92/92 91/91/91 90/90/90
f 91/91/91 93/93/93 90/90/90
f 90/90/90 93/93/93 94/94/94
f 91/91/91 95/95/95 93/93/93
f 93/93/93 96/96/96 94/94/94
f 95/95/95 97/97/97 93/93/93
f 93/93/93 97/97/97 96/96/96
f 97/97/97 98/98/98 96/96/96
f 100/100/100 99/99/99 98/98/98
f 101/101/101 100/100/100 98/98/98
f 102/102/102 100/100/100 101/101/101
f 103/103/103 102/102/102 101/101/101
f 105/105/105 104/104/104 99/99/99
f 106/106/106 105/105/105 99/99/99
f 107/107/107 105/105/105 106/106/106
f 108/108/108 107/107/107 106/106/106
f 107/107/107 109/109/109 105/105/105
f 105/105/105 110/110/110 104/104/104
f 109/109/109 110/110/110 105/105/105
f 110/110/110 111/111/111 104/104/104
f 109/109/109 112/112/112 110/110/110
f 110/110/110 113/113/113 111/111/111
f 112/112/112 113/113/113 110/110/110
f 113/113/113 114/114/114 111/111/111
f 112/112/112 115/115/115 113/113/113
f 113/113/113 116/116/116 114/114/114
f 115/115/115 116/116/116 113/113/113
f 115/115/115 117/117/117 116/116/116
f 116/116/116 118/118/118 114/114/114
f 117/117/117 119/119/119 116/116/116
f 116/116/116 119/119/119 118/118/118
f 119/119/119 120/120/120 118/118/118
f 123/123/123 122/122/122 121/121/121
f 122/122/122 124/124/124 121/121/121
f 122/122/122 125/125/125 124/124/124
f 125/125/125 126/126/126 124/124/124
f 125/125/125 127/127/127 126/126/126
f 127/127/127 128/128/128 126/126/126
f 127/127/127 129/129/129 128/128/128
f 129/129/129 130/130/130 128/128/128
f 129/129/129 131/131/131 130/130/130
f 131/131/131 132/132/132 130/130/130
f 131/131/131 133/133/133 132/132/132
f 133/133/133 134/134/134 132/132/132
f 133/133/133 135/135/135 134/134/134
f 135/135/135 136/136/136 134/134/134
f 135/135/135 137/137/137 136/136/136
f 137/137/137 138/138/138 136/136/136
f 141/141/141 140/140/140 139/139/139
f 142/142/142 141/141/141 139/139/139
f 145/145/145 144/144/144 143/143/143
f 146/146/146 145/145/145 143/143/143
f 149/149/149 148/148/148 147/147/147
f 150/150/150 149/149/149 147/147/147
f 153/153/153 152/152/152 151/151/151
f 152/152/152 154/154/154 151/151/151
f 152/152/152 155/155/155 154/154/154
f 155/155/155 156/156/156 154/154/154
f 155/155/155 157/157/157 156/156/156
f 157/157/157 158/158/158 156/156/156
f 157/157/157 159/159/159 158/158/158
f 159/159/159 160/160/160 158/158/158
f 159/159/159 161/161/161 160/160/160
f 161/161/161 162/162/162 160/160/160
f 165/165/165 164/164/164 163/163/163
f 166/166/166 165/165/165 163/163/163
f 167/167/167 165/165/165 166/166/166
f 168/168/168 167/167/167 166/166/166
f 171/171/171 170/170/170 169/169/169
f 170/170/170 172/172/172 169/169/169
f 169/169/169 172/172/172 173/173/173
f 172/172/172 174/174/174 173/173/173
f 177/177/177 176/176/176 175/175/175
f 178/178/178 177/177/177 175/175/175
f 181/181/181 180/180/180 179/179/179
f 180/180/180 182/182/182 179/179/179
f 179/179/179 182/182/182 183/183/183
f 182/182/182 184/184/184 183/183/183
f 187/187/187 186/186/186 185/185/185
f 188/188/188 187/187/187 185/185/185
f 191/191/191 190/190/190 189/189/189
f 192/192/192 191/191/191 189/189/189
f 195/195/195 194/194/194 193/193/193
f 196/196/196 195/195/195 193/193/193
f 199/199/199 198/198/198 197/197/197
f 200/200/200 199/199/199 197/197/197
f 203/203/203 202/202/202 201/201/201
f 204/204/204 203/203/203 201/201/201
f 207/207/207 206/206/206 205/205/205
f 208/208/208 207/207/207 205/205/205
f 211/211/211 210/210/210 209/209/209
f 210/210/210 212/212/212 209/209/209
f 209/209/209 212/212/212 213/213/213
f 212/212/212 214/214/214 213/213/213
f 217/217/217 216/216/216 215/215/215
f 218/218/218 217/217/217 215/215/215
f 221/221/221 220/220/220 219/219/219
f 222/222/222 221/221/221 219/219/219
f 223/223/223 221/221/221 222/222/222
f 224/224/224 223/223/223 222/222/222
f 227/227/227 226/226/226 225/225/225
f 228/228/228 227/227/227 225/225/225
f 231/231/231 230/230/230 229/229/229
f 230/230/230 232/232/232 229/229/229
f 229/229/229 232/232/232 233/233/233
f 232/232/232 234/234/234 233/233/233
f 237/237/237 236/236/236 235/235/235
f 236/236/236 238/238/238 235/235/235
f 238/238/238 236/236/236 239/239/239
f 236/236/236 240/240/240 239/239/239
f 238/238/238 239/239/239 241/241/241
f 242/242/242 238/238/238 241/241/241
f 245/245/245 244/244/244 243/243/243
f 246/246/246 245/245/245 243/243/243
f 249/249/249 248/248/248 247/247/247
f 250/250/250 249/249/249 247/247/247
f 253/253/253 252/252/252 251/251/251
f 254/254/254 253/253/253 251/251/251
f 257/257/257 256/256/256 255/255/255
f 256/256/256 258/258/258 255/255/255
f 256/256/256 259/259/259 258/258/258
f 259/259/259 260/260/260 258/258/258
f 259/259/259 261/261/261 260/260/260
f 261/261/261 262/262/262 260/260/260
f 261/261/261 263/263/263 262/262/262
f 263/263/263 264/264/264 262/262/262
f 267/267/267 266/266/266 265/265/265
f 268/268/268 267/267/267 265/265/265
f 271/271/271 270/270/270 269/269/269
f 270/270/270 272/272/272 269/269/269
f 269/269/269 272/272/272 273/273/273
f 270/270/270 274/274/274 272/272/272
f 272/272/272 275/275/275 273/273/273
f 274/274/274 276/276/276 272/272/272
f 272/272/272 276/276/276 275/275/275
f 276/276/276 277/277/277 275/275/275
f 280/280/280 279/279/279 278/278/278
f 279/279/279 281/281/281 278/278/278
f 278/278/278 281/281/281 282/282/282
f 281/281/281 283/283/283 282/282/282
f 286/286/286 285/285/285 284/284/284
f 287/287/287 286/286/286 284/284/284
f 288/288/288 286/286/286 287/287/287
f 289/289/289 288/288/288 287/287/287
f 292/292/292 291/291/291 290/290/290
f 293/293/293 292/292/292 290/290/290
f 296/296/296 295/295/295 294/294/294
f 297/297/297 296/296/296 294/294/294
f 300/300/300 299/299/299 298/298/298
f 301/301/301 300/300/300 298/298/298
f 301/301/301 298/298/298 302/302/302
f 303/303/303 301/301/301 302/302/302
f 301/301/301 303/303/303 304/304/304
f 305/305/305 301/301/301 304/304/304
f 308/308/308 307/307/307 306/306/306
f 309/309/309 308/308/308 306/306/306
f 312/312/312 311/311/311 310/310/310
f 313/313/313 312/312/312 310/310/310
