g Shadow Orb
v 5.354649E-07 0.18035977 -0.24305218
v 0.15619545 0.0901806 -0.24305218
v 0.15619545 0.0901806 -0.12688169
v 5.354649E-07 0.18035977 -0.12688169
v 0.15619545 0.0901806 -0.24305218
v 0.15619545 -0.09017773 -0.24305218
v 0.15619545 -0.09017773 -0.12688169
v 0.15619545 0.0901806 -0.12688169
v 0.15619545 -0.09017773 -0.24305218
v 5.354649E-07 -0.18035689 -0.24305218
v 5.354649E-07 -0.18035689 -0.12688169
v 0.15619545 -0.09017773 -0.12688169
v 5.354649E-07 -0.18035689 -0.24305218
v -0.15619437 -0.09017773 -0.24305218
v -0.15619437 -0.09017773 -0.12688169
v 5.354649E-07 -0.18035689 -0.12688169
v 5.354649E-07 0.18035977 -0.12688169
v 0.15619545 0.0901806 -0.12688169
v 0.15619545 -0.09017773 -0.12688169
v 5.354649E-07 -0.18035689 -0.12688169
v -0.15619437 0.0901806 -0.12688169
v -0.15619437 -0.09017773 -0.12688169
v -0.15619437 -0.09017773 -0.24305218
v -0.15619437 0.0901806 -0.24305218
v -0.15619437 0.0901806 -0.12688169
v -0.15619437 -0.09017773 -0.12688169
v -0.15619437 0.0901806 -0.24305218
v 5.354649E-07 0.18035977 -0.24305218
v 5.354649E-07 0.18035977 -0.12688169
v -0.15619437 0.0901806 -0.12688169
v 5.354649E-07 -0.18035689 -0.24305218
v 0.15619545 -0.09017773 -0.24305218
v 0.15619545 0.0901806 -0.24305218
v 5.354649E-07 0.18035977 -0.24305218
v -0.15619437 -0.09017773 -0.24305218
v -0.15619437 0.0901806 -0.24305218
v 5.354649E-07 0.18035977 0.06577408
v 0.15619545 0.0901806 0.06577408
v 0.15619545 0.0901806 0.18194453
v 5.354649E-07 0.18035977 0.18194453
v 0.15619545 0.0901806 0.06577408
v 0.15619545 -0.09017773 0.06577408
v 0.15619545 -0.09017773 0.18194453
v 0.15619545 0.0901806 0.18194453
v 0.15619545 -0.09017773 0.06577408
v 5.354649E-07 -0.18035689 0.06577408
v 5.354649E-07 -0.18035689 0.18194453
v 0.15619545 -0.09017773 0.18194453
v 5.354649E-07 -0.18035689 0.06577408
v -0.15619437 -0.09017773 0.06577408
v -0.15619437 -0.09017773 0.18194453
v 5.354649E-07 -0.18035689 0.18194453
v 5.354649E-07 0.18035977 0.18194453
v 0.15619545 0.0901806 0.18194453
v 0.15619545 -0.09017773 0.18194453
v 5.354649E-07 -0.18035689 0.18194453
v -0.15619437 0.0901806 0.18194453
v -0.15619437 -0.09017773 0.18194453
v -0.15619437 -0.09017773 0.06577408
v -0.15619437 0.0901806 0.06577408
v -0.15619437 0.0901806 0.18194453
v -0.15619437 -0.09017773 0.18194453
v -0.15619437 0.0901806 0.06577408
v 5.354649E-07 0.18035977 0.06577408
v 5.354649E-07 0.18035977 0.18194453
v -0.15619437 0.0901806 0.18194453
v 5.354649E-07 -0.18035689 0.06577408
v 0.15619545 -0.09017773 0.06577408
v 0.15619545 0.0901806 0.06577408
v 5.354649E-07 0.18035977 0.06577408
v -0.15619437 -0.09017773 0.06577408
v -0.15619437 0.0901806 0.06577408
v 5.354649E-07 0.18035977 0.3303581
v 0.15619545 0.0901806 0.3303581
v 0.15619545 0.0901806 0.44652858
v 5.354649E-07 0.18035977 0.44652858
v 0.15619545 0.0901806 0.3303581
v 0.15619545 -0.09017773 0.3303581
v 0.15619545 -0.09017773 0.44652858
v 0.15619545 0.0901806 0.44652858
v 0.15619545 -0.09017773 0.3303581
v 5.354649E-07 -0.18035689 0.3303581
v 5.354649E-07 -0.18035689 0.44652858
v 0.15619545 -0.09017773 0.44652858
v 5.354649E-07 -0.18035689 0.3303581
v -0.15619437 -0.09017773 0.3303581
v -0.15619437 -0.09017773 0.44652858
v 5.354649E-07 -0.18035689 0.44652858
v 5.354649E-07 0.18035977 0.44652858
v 0.15619545 0.0901806 0.44652858
v 0.15619545 -0.09017773 0.44652858
v 5.354649E-07 -0.18035689 0.44652858
v -0.15619437 0.0901806 0.44652858
v -0.15619437 -0.09017773 0.44652858
v -0.15619437 -0.09017773 0.3303581
v -0.15619437 0.0901806 0.3303581
v -0.15619437 0.0901806 0.44652858
v -0.15619437 -0.09017773 0.44652858
v -0.15619437 0.0901806 0.3303581
v 5.354649E-07 0.18035977 0.3303581
v 5.354649E-07 0.18035977 0.44652858
v -0.15619437 0.0901806 0.44652858
v 5.354649E-07 -0.18035689 0.3303581
v 0.15619545 -0.09017773 0.3303581
v 0.15619545 0.0901806 0.3303581
v 5.354649E-07 0.18035977 0.3303581
v -0.15619437 -0.09017773 0.3303581
v -0.15619437 0.0901806 0.3303581
v 5.354649E-07 0.18035977 0.5979626
v 0.15619545 0.0901806 0.5979626
v 0.15619545 0.0901806 0.7141331
v 5.354649E-07 0.18035977 0.7141331
v 0.15619545 0.0901806 0.5979626
v 0.15619545 -0.09017773 0.5979626
v 0.15619545 -0.09017773 0.7141331
v 0.15619545 0.0901806 0.7141331
v 0.15619545 -0.09017773 0.5979626
v 5.354649E-07 -0.18035689 0.5979626
v 5.354649E-07 -0.18035689 0.7141331
v 0.15619545 -0.09017773 0.7141331
v 5.354649E-07 -0.18035689 0.5979626
v -0.15619437 -0.09017773 0.5979626
v -0.15619437 -0.09017773 0.7141331
v 5.354649E-07 -0.18035689 0.7141331
v 5.354649E-07 0.18035977 0.7141331
v 0.15619545 0.0901806 0.7141331
v 0.15619545 -0.09017773 0.7141331
v 5.354649E-07 -0.18035689 0.7141331
v -0.15619437 0.0901806 0.7141331
v -0.15619437 -0.09017773 0.7141331
v -0.15619437 -0.09017773 0.5979626
v -0.15619437 0.0901806 0.5979626
v -0.15619437 0.0901806 0.7141331
v -0.15619437 -0.09017773 0.7141331
v -0.15619437 0.0901806 0.5979626
v 5.354649E-07 0.18035977 0.5979626
v 5.354649E-07 0.18035977 0.7141331
v -0.15619437 0.0901806 0.7141331
v 5.354649E-07 -0.18035689 0.5979626
v 0.15619545 -0.09017773 0.5979626
v 0.15619545 0.0901806 0.5979626
v 5.354649E-07 0.18035977 0.5979626
v -0.15619437 -0.09017773 0.5979626
v -0.15619437 0.0901806 0.5979626
v -1.2374196E-06 0.0024844666 -0.12564588
v 0.06748928 0.0024844666 -0.0581553
v 0.06748928 0.13746549 -0.021987438
v -1.2374196E-06 0.17121077 -0.08043599
v 0.06748928 0.0024844666 -0.0581553
v -1.2535107E-06 0.0024844666 0.009335041
v -1.2374196E-06 0.10372023 0.036461115
v 0.06748928 0.13746549 -0.021987438
v -1.2535107E-06 0.0024844666 0.009335041
v -0.06749175 0.0024844666 -0.0581553
v -0.067491785 0.13746549 -0.021987438
v -1.2374196E-06 0.10372023 0.036461115
v -0.06749175 0.0024844666 -0.0581553
v -1.2374196E-06 0.0024844666 -0.12564588
v -1.2374196E-06 0.17121077 -0.08043599
v -0.067491785 0.13746549 -0.021987438
v -1.2374196E-06 0.17121077 -0.08043599
v 0.06748928 0.13746549 -0.021987438
v 0.06748926 0.23627841 0.07682586
v -1.2374196E-06 0.29472697 0.04308033
v 0.06748928 0.13746549 -0.021987438
v -1.2374196E-06 0.10372023 0.036461115
v -1.245465E-06 0.17782995 0.11057067
v 0.06748926 0.23627841 0.07682586
v -1.2374196E-06 0.10372023 0.036461115
v -0.067491785 0.13746549 -0.021987438
v -0.06749176 0.23627841 0.07682586
v -1.245465E-06 0.17782995 0.11057067
v -0.067491785 0.13746549 -0.021987438
v -1.2374196E-06 0.17121077 -0.08043599
v -1.2374196E-06 0.29472697 0.04308033
v -0.06749176 0.23627841 0.07682586
v -1.2374196E-06 0.29472697 0.04308033
v 0.06748926 0.23627841 0.07682586
v 0.06748928 0.27244648 0.21180654
v -1.2374196E-06 0.33993697 0.21180654
v 0.06748926 0.23627841 0.07682586
v -1.245465E-06 0.17782995 0.11057067
v -1.2374196E-06 0.20495601 0.21180654
v 0.06748928 0.27244648 0.21180654
v -1.245465E-06 0.17782995 0.11057067
v -0.06749176 0.23627841 0.07682586
v -0.06749175 0.27244648 0.21180654
v -1.2374196E-06 0.20495601 0.21180654
v -0.06749176 0.23627841 0.07682586
v -1.2374196E-06 0.29472697 0.04308033
v -1.2374196E-06 0.33993697 0.21180654
v -0.06749175 0.27244648 0.21180654
v -1.2374196E-06 0.33993697 0.21180654
v 0.06748928 0.27244648 0.21180654
v 0.06748928 0.23627847 0.3467877
v -1.2374196E-06 0.29472697 0.38053274
v 0.06748928 0.27244648 0.21180654
v -1.2374196E-06 0.20495601 0.21180654
v -1.229374E-06 0.17782998 0.31304216
v 0.06748928 0.23627847 0.3467877
v -1.2374196E-06 0.20495601 0.21180654
v -0.06749175 0.27244648 0.21180654
v -0.06749175 0.23627847 0.3467877
v -1.229374E-06 0.17782998 0.31304216
v -0.06749175 0.27244648 0.21180654
v -1.2374196E-06 0.33993697 0.21180654
v -1.2374196E-06 0.29472697 0.38053274
v -0.06749175 0.23627847 0.3467877
v -1.2374196E-06 0.29472697 0.38053274
v 0.06748928 0.23627847 0.3467877
v 0.06748929 0.13746554 0.44560027
v -1.2374196E-06 0.1712108 0.50404906
v 0.06748928 0.23627847 0.3467877
v -1.229374E-06 0.17782998 0.31304216
v -1.2374196E-06 0.10372027 0.38715196
v 0.06748929 0.13746554 0.44560027
v -1.229374E-06 0.17782998 0.31304216
v -0.06749175 0.23627847 0.3467877
v -0.06749174 0.13746554 0.44560027
v -1.2374196E-06 0.10372027 0.38715196
v -0.06749175 0.23627847 0.3467877
v -1.2374196E-06 0.29472697 0.38053274
v -1.2374196E-06 0.1712108 0.50404906
v -0.06749174 0.13746554 0.44560027
v -1.2374196E-06 0.1712108 0.50404906
v 0.06748929 0.13746554 0.44560027
v 0.06748928 0.0024844909 0.4817686
v -1.2374196E-06 0.0024844909 0.5492593
v 0.06748929 0.13746554 0.44560027
v -1.2374196E-06 0.10372027 0.38715196
v -1.2213285E-06 0.0024844666 0.41427827
v 0.06748928 0.0024844909 0.4817686
v -1.2374196E-06 0.10372027 0.38715196
v -0.06749174 0.13746554 0.44560027
v -0.06749174 0.0024844909 0.4817686
v -1.2213285E-06 0.0024844666 0.41427827
v -0.06749174 0.13746554 0.44560027
v -1.2374196E-06 0.1712108 0.50404906
v -1.2374196E-06 0.0024844909 0.5492593
v -0.06749174 0.0024844909 0.4817686
v -1.2374196E-06 0.0024844909 0.5492593
v 0.06748928 0.0024844909 0.4817686
v 0.06748929 -0.1324965 0.4456005
v -1.2374196E-06 -0.16624177 0.50404906
v 0.06748928 0.0024844909 0.4817686
v -1.2213285E-06 0.0024844666 0.41427827
v -1.2374196E-06 -0.098751284 0.38715196
v 0.06748929 -0.1324965 0.4456005
v -1.2213285E-06 0.0024844666 0.41427827
v -0.06749174 0.0024844909 0.4817686
v -0.06749174 -0.1324965 0.4456005
v -1.2374196E-06 -0.098751284 0.38715196
v -0.06749174 0.0024844909 0.4817686
v -1.2374196E-06 0.0024844909 0.5492593
v -1.2374196E-06 -0.16624177 0.50404906
v -0.06749174 -0.1324965 0.4456005
v -1.2374196E-06 -0.16624177 0.50404906
v 0.06748929 -0.1324965 0.4456005
v 0.06748928 -0.23130953 0.3467877
v -1.2374196E-06 -0.2897581 0.38053274
v 0.06748929 -0.1324965 0.4456005
v -1.2374196E-06 -0.098751284 0.38715196
v -1.229374E-06 -0.17286105 0.31304216
v 0.06748928 -0.23130953 0.3467877
v -1.2374196E-06 -0.098751284 0.38715196
v -0.06749174 -0.1324965 0.4456005
v -0.06749175 -0.23130953 0.3467877
v -1.229374E-06 -0.17286105 0.31304216
v -0.06749174 -0.1324965 0.4456005
v -1.2374196E-06 -0.16624177 0.50404906
v -1.2374196E-06 -0.2897581 0.38053274
v -0.06749175 -0.23130953 0.3467877
v -1.2374196E-06 -0.2897581 0.38053274
v 0.06748928 -0.23130953 0.3467877
v 0.06748928 -0.2674776 0.21180654
v -1.2374196E-06 -0.33496812 0.21180654
v 0.06748928 -0.23130953 0.3467877
v -1.229374E-06 -0.17286105 0.31304216
v -1.2374196E-06 -0.1999871 0.21180654
v 0.06748928 -0.2674776 0.21180654
v -1.229374E-06 -0.17286105 0.31304216
v -0.06749175 -0.23130953 0.3467877
v -0.06749175 -0.2674776 0.21180654
v -1.2374196E-06 -0.1999871 0.21180654
v -0.06749175 -0.23130953 0.3467877
v -1.2374196E-06 -0.2897581 0.38053274
v -1.2374196E-06 -0.33496812 0.21180654
v -0.06749175 -0.2674776 0.21180654
v -1.2374196E-06 -0.33496812 0.21180654
v 0.06748928 -0.2674776 0.21180654
v 0.06748926 -0.23130953 0.07682586
v -1.2374196E-06 -0.28975797 0.04308033
v 0.06748928 -0.2674776 0.21180654
v -1.2374196E-06 -0.1999871 0.21180654
v -1.245465E-06 -0.17286105 0.11057067
v 0.06748926 -0.23130953 0.07682586
v -1.2374196E-06 -0.1999871 0.21180654
v -0.06749175 -0.2674776 0.21180654
v -0.06749176 -0.23130953 0.07682586
v -1.245465E-06 -0.17286105 0.11057067
v -0.06749175 -0.2674776 0.21180654
v -1.2374196E-06 -0.33496812 0.21180654
v -1.2374196E-06 -0.28975797 0.04308033
v -0.06749176 -0.23130953 0.07682586
v -1.2374196E-06 -0.28975797 0.04308033
v 0.06748926 -0.23130953 0.07682586
v 0.06748928 -0.13249661 -0.021987438
v -1.2374196E-06 -0.16624185 -0.08043599
v 0.06748926 -0.23130953 0.07682586
v -1.245465E-06 -0.17286105 0.11057067
v -1.2374196E-06 -0.09875136 0.036461115
v 0.06748928 -0.13249661 -0.021987438
v -1.245465E-06 -0.17286105 0.11057067
v -0.06749176 -0.23130953 0.07682586
v -0.067491785 -0.13249661 -0.021987438
v -1.2374196E-06 -0.09875136 0.036461115
v -0.06749176 -0.23130953 0.07682586
v -1.2374196E-06 -0.28975797 0.04308033
v -1.2374196E-06 -0.16624185 -0.08043599
v -0.067491785 -0.13249661 -0.021987438
v -1.2374196E-06 -0.16624185 -0.08043599
v 0.06748928 -0.13249661 -0.021987438
v 0.06748928 0.0024844666 -0.0581553
v -1.2374196E-06 0.0024844666 -0.12564588
v 0.06748928 -0.13249661 -0.021987438
v -1.2374196E-06 -0.09875136 0.036461115
v -1.2535107E-06 0.0024844666 0.009335041
v 0.06748928 0.0024844666 -0.0581553
v -1.2374196E-06 -0.09875136 0.036461115
v -0.067491785 -0.13249661 -0.021987438
v -0.06749175 0.0024844666 -0.0581553
v -1.2535107E-06 0.0024844666 0.009335041
v -0.067491785 -0.13249661 -0.021987438
v -1.2374196E-06 -0.16624185 -0.08043599
v -1.2374196E-06 0.0024844666 -0.12564588
v -0.06749175 0.0024844666 -0.0581553
vt 1 0.5
vt 0.8333333 0.5
vt 0.8333333 1
vt 1 1
vt 0.8333333 0.5
vt 0.6666666 0.5
vt 0.6666666 1
vt 0.8333333 1
vt 0.6666666 0.5
vt 0.49999994 0.5
vt 0.49999994 1
vt 0.6666666 1
vt 0.49999994 0.5
vt 0.33333325 0.5
vt 0.33333325 1
vt 0.49999994 1
vt 0.25 0.49
vt 0.4578461 0.37
vt 0.4578461 0.13
vt 0.25 0.010000005
vt 0.04215391 0.37
vt 0.04215391 0.13
vt 0.33333325 0.5
vt 0.16666658 0.5
vt 0.16666658 1
vt 0.33333325 1
vt 0.16666658 0.5
vt -8.940697E-08 0.5
vt -8.940697E-08 1
vt 0.16666658 1
vt 0.75 0.010000005
vt 0.9578461 0.13
vt 0.9578461 0.37
vt 0.75 0.49
vt 0.5421539 0.13
vt 0.5421539 0.37
vt 1 0.5
vt 0.8333333 0.5
vt 0.8333333 1
vt 1 1
vt 0.8333333 0.5
vt 0.6666666 0.5
vt 0.6666666 1
vt 0.8333333 1
vt 0.6666666 0.5
vt 0.49999994 0.5
vt 0.49999994 1
vt 0.6666666 1
vt 0.49999994 0.5
vt 0.33333325 0.5
vt 0.33333325 1
vt 0.49999994 1
vt 0.25 0.49
vt 0.4578461 0.37
vt 0.4578461 0.13
vt 0.25 0.010000005
vt 0.04215391 0.37
vt 0.04215391 0.13
vt 0.33333325 0.5
vt 0.16666658 0.5
vt 0.16666658 1
vt 0.33333325 1
vt 0.16666658 0.5
vt -8.940697E-08 0.5
vt -8.940697E-08 1
vt 0.16666658 1
vt 0.75 0.010000005
vt 0.9578461 0.13
vt 0.9578461 0.37
vt 0.75 0.49
vt 0.5421539 0.13
vt 0.5421539 0.37
vt 1 0.5
vt 0.8333333 0.5
vt 0.8333333 1
vt 1 1
vt 0.8333333 0.5
vt 0.6666666 0.5
vt 0.6666666 1
vt 0.8333333 1
vt 0.6666666 0.5
vt 0.49999994 0.5
vt 0.49999994 1
vt 0.6666666 1
vt 0.49999994 0.5
vt 0.33333325 0.5
vt 0.33333325 1
vt 0.49999994 1
vt 0.25 0.49
vt 0.4578461 0.37
vt 0.4578461 0.13
vt 0.25 0.010000005
vt 0.04215391 0.37
vt 0.04215391 0.13
vt 0.33333325 0.5
vt 0.16666658 0.5
vt 0.16666658 1
vt 0.33333325 1
vt 0.16666658 0.5
vt -8.940697E-08 0.5
vt -8.940697E-08 1
vt 0.16666658 1
vt 0.75 0.010000005
vt 0.9578461 0.13
vt 0.9578461 0.37
vt 0.75 0.49
vt 0.5421539 0.13
vt 0.5421539 0.37
vt 1 0.5
vt 0.8333333 0.5
vt 0.8333333 1
vt 1 1
vt 0.8333333 0.5
vt 0.6666666 0.5
vt 0.6666666 1
vt 0.8333333 1
vt 0.6666666 0.5
vt 0.49999994 0.5
vt 0.49999994 1
vt 0.6666666 1
vt 0.49999994 0.5
vt 0.33333325 0.5
vt 0.33333325 1
vt 0.49999994 1
vt 0.25 0.49
vt 0.4578461 0.37
vt 0.4578461 0.13
vt 0.25 0.010000005
vt 0.04215391 0.37
vt 0.04215391 0.13
vt 0.33333325 0.5
vt 0.16666658 0.5
vt 0.16666658 1
vt 0.33333325 1
vt 0.16666658 0.5
vt -8.940697E-08 0.5
vt -8.940697E-08 1
vt 0.16666658 1
vt 0.75 0.010000005
vt 0.9578461 0.13
vt 0.9578461 0.37
vt 0.75 0.49
vt 0.5421539 0.13
vt 0.5421539 0.37
vt 0.5 0.5
vt 0.5 0.75
vt 0.5833333 0.75
vt 0.5833333 0.5
vt 0.5 0.75
vt 0.5 1
vt 0.5833333 1
vt 0.5833333 0.75
vt 0.5 0
vt 0.5 0.25
vt 0.5833333 0.25
vt 0.5833333 0
vt 0.5 0.25
vt 0.5 0.5
vt 0.5833333 0.5
vt 0.5833333 0.25
vt 0.5833333 0.5
vt 0.5833333 0.75
vt 0.6666667 0.75
vt 0.6666667 0.5
vt 0.5833333 0.75
vt 0.5833333 1
vt 0.6666667 1
vt 0.6666667 0.75
vt 0.5833333 0
vt 0.5833333 0.25
vt 0.6666667 0.25
vt 0.6666667 0
vt 0.5833333 0.25
vt 0.5833333 0.5
vt 0.6666667 0.5
vt 0.6666667 0.25
vt 0.6666667 0.5
vt 0.6666667 0.75
vt 0.75 0.75
vt 0.75 0.5
vt 0.6666667 0.75
vt 0.6666667 1
vt 0.75 1
vt 0.75 0.75
vt 0.6666667 0
vt 0.6666667 0.25
vt 0.75 0.25
vt 0.75 0
vt 0.6666667 0.25
vt 0.6666667 0.5
vt 0.75 0.5
vt 0.75 0.25
vt 0.75 0.5
vt 0.75 0.75
vt 0.8333333 0.75
vt 0.8333333 0.5
vt 0.75 0.75
vt 0.75 1
vt 0.8333333 1
vt 0.8333333 0.75
vt 0.75 0
vt 0.75 0.25
vt 0.8333333 0.25
vt 0.8333333 0
vt 0.75 0.25
vt 0.75 0.5
vt 0.8333333 0.5
vt 0.8333333 0.25
vt 0.8333333 0.5
vt 0.8333333 0.75
vt 0.9166667 0.75
vt 0.9166667 0.5
vt 0.8333333 0.75
vt 0.8333333 1
vt 0.9166667 1
vt 0.9166667 0.75
vt 0.8333333 0
vt 0.8333333 0.25
vt 0.9166667 0.25
vt 0.9166667 0
vt 0.8333333 0.25
vt 0.8333333 0.5
vt 0.9166667 0.5
vt 0.9166667 0.25
vt 0.9166667 0.5
vt 0.9166667 0.75
vt 1 0.75
vt 1 0.5
vt 0.9166667 0.75
vt 0.9166667 1
vt 1 1
vt 1 0.75
vt 0.9166667 0
vt 0.9166667 0.25
vt 1 0.25
vt 1 0
vt 0.9166667 0.25
vt 0.9166667 0.5
vt 1 0.5
vt 1 0.25
vt 2.220446E-16 0.5
vt 2.220446E-16 0.75
vt 0.083333336 0.75
vt 0.083333336 0.5
vt 2.220446E-16 0.75
vt 2.220446E-16 1
vt 0.083333336 1
vt 0.083333336 0.75
vt 2.220446E-16 0
vt 2.220446E-16 0.25
vt 0.083333336 0.25
vt 0.083333336 0
vt 2.220446E-16 0.25
vt 2.220446E-16 0.5
vt 0.083333336 0.5
vt 0.083333336 0.25
vt 0.083333336 0.5
vt 0.083333336 0.75
vt 0.16666667 0.75
vt 0.16666667 0.5
vt 0.083333336 0.75
vt 0.083333336 1
vt 0.16666667 1
vt 0.16666667 0.75
vt 0.083333336 0
vt 0.083333336 0.25
vt 0.16666667 0.25
vt 0.16666667 0
vt 0.083333336 0.25
vt 0.083333336 0.5
vt 0.16666667 0.5
vt 0.16666667 0.25
vt 0.16666667 0.5
vt 0.16666667 0.75
vt 0.25 0.75
vt 0.25 0.5
vt 0.16666667 0.75
vt 0.16666667 1
vt 0.25 1
vt 0.25 0.75
vt 0.16666667 0
vt 0.16666667 0.25
vt 0.25 0.25
vt 0.25 0
vt 0.16666667 0.25
vt 0.16666667 0.5
vt 0.25 0.5
vt 0.25 0.25
vt 0.25 0.5
vt 0.25 0.75
vt 0.33333334 0.75
vt 0.33333334 0.5
vt 0.25 0.75
vt 0.25 1
vt 0.33333334 1
vt 0.33333334 0.75
vt 0.25 0
vt 0.25 0.25
vt 0.33333334 0.25
vt 0.33333334 0
vt 0.25 0.25
vt 0.25 0.5
vt 0.33333334 0.5
vt 0.33333334 0.25
vt 0.33333334 0.5
vt 0.33333334 0.75
vt 0.41666666 0.75
vt 0.41666666 0.5
vt 0.33333334 0.75
vt 0.33333334 1
vt 0.41666666 1
vt 0.41666666 0.75
vt 0.33333334 0
vt 0.33333334 0.25
vt 0.41666666 0.25
vt 0.41666666 0
vt 0.33333334 0.25
vt 0.33333334 0.5
vt 0.41666666 0.5
vt 0.41666666 0.25
vt 0.41666666 0.5
vt 0.41666666 0.75
vt 0.5 0.75
vt 0.5 0.5
vt 0.41666666 0.75
vt 0.41666666 1
vt 0.5 1
vt 0.5 0.75
vt 0.41666666 0
vt 0.41666666 0.25
vt 0.5 0.25
vt 0.5 0
vt 0.41666666 0.25
vt 0.41666666 0.5
vt 0.5 0.5
vt 0.5 0.25
vn 0.49999997 0.86602545 0
vn 0.49999997 0.86602545 0
vn 0.49999997 0.86602545 0
vn 0.49999997 0.86602545 0
vn 1 0 0
vn 1 0 0
vn 1 0 0
vn 1 0 0
vn 0.5 -0.86602545 0
vn 0.5 -0.86602545 0
vn 0.5 -0.86602545 0
vn 0.5 -0.86602545 0
vn -0.5 -0.86602545 0
vn -0.5 -0.86602545 0
vn -0.5 -0.86602545 0
vn -0.5 -0.86602545 0
vn -0 0 1
vn -0 0 1
vn -0 0 1
vn -0 0 1
vn -0 0 1
vn -0 0 1
vn -1 0 0
vn -1 0 0
vn -1 0 0
vn -1 0 0
vn -0.5 0.86602545 0
vn -0.5 0.86602545 0
vn -0.5 0.86602545 0
vn -0.5 0.86602545 0
vn -0 0 -1
vn -0 0 -1
vn -0 0 -1
vn -0 0 -1
vn -0 0 -1
vn -0 0 -1
vn 0.5 0.86602545 0
vn 0.5 0.86602545 0
vn 0.5 0.86602545 0
vn 0.5 0.86602545 0
vn 1 0 0
vn 1 0 0
vn 1 0 0
vn 1 0 0
vn 0.49999997 -0.86602545 0
vn 0.49999997 -0.86602545 0
vn 0.49999997 -0.86602545 0
vn 0.49999997 -0.86602545 0
vn -0.49999997 -0.86602545 0
vn -0.49999997 -0.86602545 0
vn -0.49999997 -0.86602545 0
vn -0.49999997 -0.86602545 0
vn -0 0 1
vn -0 0 1
vn -0 0 1
vn -0 0 1
vn -0 0 1
vn -0 0 1
vn -1 0 0
vn -1 0 0
vn -1 0 0
vn -1 0 0
vn -0.5 0.86602545 0
vn -0.5 0.86602545 0
vn -0.5 0.86602545 0
vn -0.5 0.86602545 0
vn -0 0 -1
vn -0 0 -1
vn -0 0 -1
vn -0 0 -1
vn -0 0 -1
vn -0 0 -1
vn 0.5 0.86602545 0
vn 0.5 0.86602545 0
vn 0.5 0.86602545 0
vn 0.5 0.86602545 0
vn 1 0 0
vn 1 0 0
vn 1 0 0
vn 1 0 0
vn 0.4999999 -0.86602545 0
vn 0.4999999 -0.86602545 0
vn 0.4999999 -0.86602545 0
vn 0.4999999 -0.86602545 0
vn -0.49999997 -0.86602545 0
vn -0.49999997 -0.86602545 0
vn -0.49999997 -0.86602545 0
vn -0.49999997 -0.86602545 0
vn -0 0 1
vn -0 0 1
vn -0 0 1
vn -0 0 1
vn -0 0 1
vn -0 0 1
vn -1 0 0
vn -1 0 0
vn -1 0 0
vn -1 0 0
vn -0.5 0.86602545 0
vn -0.5 0.86602545 0
vn -0.5 0.86602545 0
vn -0.5 0.86602545 0
vn -0 0 -1
vn -0 0 -1
vn -0 0 -1
vn -0 0 -1
vn -0 0 -1
vn -0 0 -1
vn 0.5 0.86602545 0
vn 0.5 0.86602545 0
vn 0.5 0.86602545 0
vn 0.5 0.86602545 0
vn 1 0 0
vn 1 0 0
vn 1 0 0
vn 1 0 0
vn 0.49999985 -0.8660255 0
vn 0.49999985 -0.8660255 0
vn 0.49999985 -0.8660255 0
vn 0.49999985 -0.8660255 0
vn -0.4999999 -0.8660255 0
vn -0.4999999 -0.8660255 0
vn -0.4999999 -0.8660255 0
vn -0.4999999 -0.8660255 0
vn -0 0 1
vn -0 0 1
vn -0 0 1
vn -0 0 1
vn -0 0 1
vn -0 0 1
vn -1 0 0
vn -1 0 0
vn -1 0 0
vn -1 0 0
vn -0.50000006 0.86602545 0
vn -0.50000006 0.86602545 0
vn -0.50000006 0.86602545 0
vn -0.50000006 0.86602545 0
vn -0 0 -1
vn -0 0 -1
vn -0 0 -1
vn -0 0 -1
vn -0 0 -1
vn -0 0 -1
vn 0.6947469 0.18615586 -0.69474643
vn 0.6947469 0.18615586 -0.69474643
vn 0.6947469 0.18615586 -0.69474643
vn 0.6947469 0.18615586 -0.69474643
vn 0.6947462 -0.18615647 0.69474703
vn 0.6947462 -0.18615647 0.69474703
vn 0.6947462 -0.18615647 0.69474703
vn 0.6947462 -0.18615647 0.69474703
vn -0.69474626 -0.18615651 0.69474703
vn -0.69474626 -0.18615651 0.69474703
vn -0.69474626 -0.18615651 0.69474703
vn -0.69474626 -0.18615651 0.69474703
vn -0.6947469 0.18615584 -0.6947466
vn -0.6947469 0.18615584 -0.6947466
vn -0.6947469 0.18615584 -0.6947466
vn -0.6947469 0.18615584 -0.6947466
vn 0.6947473 0.50858974 -0.50858873
vn 0.6947473 0.50858974 -0.50858873
vn 0.6947473 0.50858974 -0.50858873
vn 0.6947473 0.50858974 -0.50858873
vn 0.6947458 -0.5085906 0.50859004
vn 0.6947458 -0.5085906 0.50859004
vn 0.6947458 -0.5085906 0.50859004
vn 0.6947458 -0.5085906 0.50859004
vn -0.69474566 -0.5085907 0.5085902
vn -0.69474566 -0.5085907 0.5085902
vn -0.69474566 -0.5085907 0.5085902
vn -0.69474566 -0.5085907 0.5085902
vn -0.6947472 0.5085899 -0.50858885
vn -0.6947472 0.5085899 -0.50858885
vn -0.6947472 0.5085899 -0.50858885
vn -0.6947472 0.5085899 -0.50858885
vn 0.6947469 0.69474626 -0.18615697
vn 0.6947469 0.69474626 -0.18615697
vn 0.6947469 0.69474626 -0.18615697
vn 0.6947469 0.69474626 -0.18615697
vn 0.694746 -0.6947469 0.18615724
vn 0.694746 -0.6947469 0.18615724
vn 0.694746 -0.6947469 0.18615724
vn 0.694746 -0.6947469 0.18615724
vn -0.694746 -0.69474703 0.18615726
vn -0.694746 -0.69474703 0.18615726
vn -0.694746 -0.69474703 0.18615726
vn -0.694746 -0.69474703 0.18615726
vn -0.69474685 0.69474643 -0.18615685
vn -0.69474685 0.69474643 -0.18615685
vn -0.69474685 0.69474643 -0.18615685
vn -0.69474685 0.69474643 -0.18615685
vn 0.6947464 0.6947469 0.18615669
vn 0.6947464 0.6947469 0.18615669
vn 0.6947464 0.6947469 0.18615669
vn 0.6947464 0.6947469 0.18615669
vn 0.6947467 -0.69474655 -0.18615673
vn 0.6947467 -0.69474655 -0.18615673
vn 0.6947467 -0.69474655 -0.18615673
vn 0.6947467 -0.69474655 -0.18615673
vn -0.69474673 -0.69474655 -0.18615672
vn -0.69474673 -0.69474655 -0.18615672
vn -0.69474673 -0.69474655 -0.18615672
vn -0.69474673 -0.69474655 -0.18615672
vn -0.6947465 0.69474685 0.18615657
vn -0.6947465 0.69474685 0.18615657
vn -0.6947465 0.69474685 0.18615657
vn -0.6947465 0.69474685 0.18615657
vn 0.69474673 0.50858957 0.50859
vn 0.69474673 0.50858957 0.50859
vn 0.69474673 0.50858957 0.50859
vn 0.69474673 0.50858957 0.50859
vn 0.69474673 -0.5085894 -0.50859016
vn 0.69474673 -0.5085894 -0.50859016
vn 0.69474673 -0.5085894 -0.50859016
vn 0.69474673 -0.5085894 -0.50859016
vn -0.69474673 -0.5085893 -0.50859016
vn -0.69474673 -0.5085893 -0.50859016
vn -0.69474673 -0.5085893 -0.50859016
vn -0.69474673 -0.5085893 -0.50859016
vn -0.69474673 0.50858945 0.5085899
vn -0.69474673 0.50858945 0.5085899
vn -0.69474673 0.50858945 0.5085899
vn -0.69474673 0.50858945 0.5085899
vn 0.69474804 0.18615736 0.694745
vn 0.69474804 0.18615736 0.694745
vn 0.69474804 0.18615736 0.694745
vn 0.69474804 0.18615736 0.694745
vn 0.6947457 -0.18615846 -0.69474703
vn 0.6947457 -0.18615846 -0.69474703
vn 0.6947457 -0.18615846 -0.69474703
vn 0.6947457 -0.18615846 -0.69474703
vn -0.69474566 -0.18615851 -0.69474703
vn -0.69474566 -0.18615851 -0.69474703
vn -0.69474566 -0.18615851 -0.69474703
vn -0.69474566 -0.18615851 -0.69474703
vn -0.69474816 0.18615736 0.69474494
vn -0.69474816 0.18615736 0.69474494
vn -0.69474816 0.18615736 0.69474494
vn -0.69474816 0.18615736 0.69474494
vn 0.6947471 -0.18615709 0.6947459
vn 0.6947471 -0.18615709 0.6947459
vn 0.6947471 -0.18615709 0.6947459
vn 0.6947471 -0.18615709 0.6947459
vn 0.69474643 0.1861577 -0.69474655
vn 0.69474643 0.1861577 -0.69474655
vn 0.69474643 0.1861577 -0.69474655
vn 0.69474643 0.1861577 -0.69474655
vn -0.69474626 0.18615781 -0.6947467
vn -0.69474626 0.18615781 -0.6947467
vn -0.69474626 0.18615781 -0.6947467
vn -0.69474626 0.18615781 -0.6947467
vn -0.6947472 -0.18615712 0.69474584
vn -0.6947472 -0.18615712 0.69474584
vn -0.6947472 -0.18615712 0.69474584
vn -0.6947472 -0.18615712 0.69474584
vn 0.69474643 -0.5085897 0.5085902
vn 0.69474643 -0.5085897 0.5085902
vn 0.69474643 -0.5085897 0.5085902
vn 0.69474643 -0.5085897 0.5085902
vn 0.69474703 0.5085892 -0.50858974
vn 0.69474703 0.5085892 -0.50858974
vn 0.69474703 0.5085892 -0.50858974
vn 0.69474703 0.5085892 -0.50858974
vn -0.69474715 0.5085891 -0.50858974
vn -0.69474715 0.5085891 -0.50858974
vn -0.69474715 0.5085891 -0.50858974
vn -0.69474715 0.5085891 -0.50858974
vn -0.6947463 -0.5085897 0.5085903
vn -0.6947463 -0.5085897 0.5085903
vn -0.6947463 -0.5085897 0.5085903
vn -0.6947463 -0.5085897 0.5085903
vn 0.69474655 -0.6947467 0.18615675
vn 0.69474655 -0.6947467 0.18615675
vn 0.69474655 -0.6947467 0.18615675
vn 0.69474655 -0.6947467 0.18615675
vn 0.6947468 0.69474643 -0.18615688
vn 0.6947468 0.69474643 -0.18615688
vn 0.6947468 0.69474643 -0.18615688
vn 0.6947468 0.69474643 -0.18615688
vn -0.6947468 0.69474643 -0.18615687
vn -0.6947468 0.69474643 -0.18615687
vn -0.6947468 0.69474643 -0.18615687
vn -0.6947468 0.69474643 -0.18615687
vn -0.6947467 -0.6947466 0.18615663
vn -0.6947467 -0.6947466 0.18615663
vn -0.6947467 -0.6947466 0.18615663
vn -0.6947467 -0.6947466 0.18615663
vn 0.6947467 -0.69474643 -0.18615729
vn 0.6947467 -0.69474643 -0.18615729
vn 0.6947467 -0.69474643 -0.18615729
vn 0.6947467 -0.69474643 -0.18615729
vn 0.69474626 0.6947469 0.18615714
vn 0.69474626 0.6947469 0.18615714
vn 0.69474626 0.6947469 0.18615714
vn 0.69474626 0.6947469 0.18615714
vn -0.6947461 0.6947469 0.18615714
vn -0.6947461 0.6947469 0.18615714
vn -0.6947461 0.6947469 0.18615714
vn -0.6947461 0.6947469 0.18615714
vn -0.6947466 -0.69474655 -0.18615715
vn -0.6947466 -0.69474655 -0.18615715
vn -0.6947466 -0.69474655 -0.18615715
vn -0.6947466 -0.69474655 -0.18615715
vn 0.6947471 -0.5085901 -0.50858873
vn 0.6947471 -0.5085901 -0.50858873
vn 0.6947471 -0.5085901 -0.50858873
vn 0.6947471 -0.5085901 -0.50858873
vn 0.69474584 0.5085906 0.50859
vn 0.69474584 0.5085906 0.50859
vn 0.69474584 0.5085906 0.50859
vn 0.69474584 0.5085906 0.50859
vn -0.69474566 0.5085907 0.50859004
vn -0.69474566 0.5085907 0.50859004
vn -0.69474566 0.5085907 0.50859004
vn -0.69474566 0.5085907 0.50859004
vn -0.694747 -0.50859016 -0.5085888
vn -0.694747 -0.50859016 -0.5085888
vn -0.694747 -0.50859016 -0.5085888
vn -0.694747 -0.50859016 -0.5085888
vn 0.6947469 -0.18615584 -0.69474655
vn 0.6947469 -0.18615584 -0.69474655
vn 0.6947469 -0.18615584 -0.69474655
vn 0.6947469 -0.18615584 -0.69474655
vn 0.69474626 0.18615639 0.69474703
vn 0.69474626 0.18615639 0.69474703
vn 0.69474626 0.18615639 0.69474703
vn 0.69474626 0.18615639 0.69474703
vn -0.6947462 0.18615644 0.69474703
vn -0.6947462 0.18615644 0.69474703
vn -0.6947462 0.18615644 0.69474703
vn -0.6947462 0.18615644 0.69474703
vn -0.69474685 -0.1861558 -0.6947467
vn -0.69474685 -0.1861558 -0.6947467
vn -0.69474685 -0.1861558 -0.6947467
vn -0.69474685 -0.1861558 -0.6947467
g Shadow Orb_0
f 3/3/3 2/2/2 1/1/1
f 4/4/4 3/3/3 1/1/1
f 7/7/7 6/6/6 5/5/5
f 8/8/8 7/7/7 5/5/5
f 11/11/11 10/10/10 9/9/9
f 12/12/12 11/11/11 9/9/9
f 15/15/15 14/14/14 13/13/13
f 16/16/16 15/15/15 13/13/13
f 19/19/19 18/18/18 17/17/17
f 17/17/17 20/20/20 19/19/19
f 17/17/17 21/21/21 20/20/20
f 21/21/21 22/22/22 20/20/20
f 25/25/25 24/24/24 23/23/23
f 26/26/26 25/25/25 23/23/23
f 29/29/29 28/28/28 27/27/27
f 30/30/30 29/29/29 27/27/27
f 33/33/33 32/32/32 31/31/31
f 31/31/31 34/34/34 33/33/33
f 31/31/31 35/35/35 34/34/34
f 35/35/35 36/36/36 34/34/34
f 39/39/39 38/38/38 37/37/37
f 40/40/40 39/39/39 37/37/37
f 43/43/43 42/42/42 41/41/41
f 44/44/44 43/43/43 41/41/41
f 47/47/47 46/46/46 45/45/45
f 48/48/48 47/47/47 45/45/45
f 51/51/51 50/50/50 49/49/49
f 52/52/52 51/51/51 49/49/49
f 55/55/55 54/54/54 53/53/53
f 53/53/53 56/56/56 55/55/55
f 53/53/53 57/57/57 56/56/56
f 57/57/57 58/58/58 56/56/56
f 61/61/61 60/60/60 59/59/59
f 62/62/62 61/61/61 59/59/59
f 65/65/65 64/64/64 63/63/63
f 66/66/66 65/65/65 63/63/63
f 69/69/69 68/68/68 67/67/67
f 67/67/67 70/70/70 69/69/69
f 67/67/67 71/71/71 70/70/70
f 71/71/71 72/72/72 70/70/70
f 75/75/75 74/74/74 73/73/73
f 76/76/76 75/75/75 73/73/73
f 79/79/79 78/78/78 77/77/77
f 80/80/80 79/79/79 77/77/77
f 83/83/83 82/82/82 81/81/81
f 84/84/84 83/83/83 81/81/81
f 87/87/87 86/86/86 85/85/85
f 88/88/88 87/87/87 85/85/85
f 91/91/91 90/90/90 89/89/89
f 89/89/89 92/92/92 91/91/91
f 89/89/89 93/93/93 92/92/92
f 93/93/93 94/94/94 92/92/92
f 97/97/97 96/96/96 95/95/95
f 98/98/98 97/97/97 95/95/95
f 101/101/101 100/100/100 99/99/99
f 102/102/102 101/101/101 99/99/99
f 105/105/105 104/104/104 103/103/103
f 103/103/103 106/106/106 105/105/105
f 103/103/103 107/107/107 106/106/106
f 107/107/107 108/108/108 106/106/106
f 111/111/111 110/110/110 109/109/109
f 112/112/112 111/111/111 109/109/109
f 115/115/115 114/114/114 113/113/113
f 116/116/116 115/115/115 113/113/113
f 119/119/119 118/118/118 117/117/117
f 120/120/120 119/119/119 117/117/117
f 123/123/123 122/122/122 121/121/121
f 124/124/124 123/123/123 121/121/121
f 127/127/127 126/126/126 125/125/125
f 125/125/125 128/128/128 127/127/127
f 125/125/125 129/129/129 128/128/128
f 129/129/129 130/130/130 128/128/128
f 133/133/133 132/132/132 131/131/131
f 134/134/134 133/133/133 131/131/131
f 137/137/137 136/136/136 135/135/135
f 138/138/138 137/137/137 135/135/135
f 141/141/141 140/140/140 139/139/139
f 139/139/139 142/142/142 141/141/141
f 139/139/139 143/143/143 142/142/142
f 143/143/143 144/144/144 142/142/142
f 147/147/147 146/146/146 145/145/145
f 148/148/148 147/147/147 145/145/145
f 151/151/151 150/150/150 149/149/149
f 152/152/152 151/151/151 149/149/149
f 155/155/155 154/154/154 153/153/153
f 156/156/156 155/155/155 153/153/153
f 159/159/159 158/158/158 157/157/157
f 160/160/160 159/159/159 157/157/157
f 163/163/163 162/162/162 161/161/161
f 164/164/164 163/163/163 161/161/161
f 167/167/167 166/166/166 165/165/165
f 168/168/168 167/167/167 165/165/165
f 171/171/171 170/170/170 169/169/169
f 172/172/172 171/171/171 169/169/169
f 175/175/175 174/174/174 173/173/173
f 176/176/176 175/175/175 173/173/173
f 179/179/179 178/178/178 177/177/177
f 180/180/180 179/179/179 177/177/177
f 183/183/183 182/182/182 181/181/181
f 184/184/184 183/183/183 181/181/181
f 187/187/187 186/186/186 185/185/185
f 188/188/188 187/187/187 185/185/185
f 191/191/191 190/190/190 189/189/189
f 192/192/192 191/191/191 189/189/189
f 195/195/195 194/194/194 193/193/193
f 196/196/196 195/195/195 193/193/193
f 199/199/199 198/198/198 197/197/197
f 200/200/200 199/199/199 197/197/197
f 203/203/203 202/202/202 201/201/201
f 204/204/204 203/203/203 201/201/201
f 207/207/207 206/206/206 205/205/205
f 208/208/208 207/207/207 205/205/205
f 211/211/211 210/210/210 209/209/209
f 212/212/212 211/211/211 209/209/209
f 215/215/215 214/214/214 213/213/213
f 216/216/216 215/215/215 213/213/213
f 219/219/219 218/218/218 217/217/217
f 220/220/220 219/219/219 217/217/217
f 223/223/223 222/222/222 221/221/221
f 224/224/224 223/223/223 221/221/221
f 227/227/227 226/226/226 225/225/225
f 228/228/228 227/227/227 225/225/225
f 231/231/231 230/230/230 229/229/229
f 232/232/232 231/231/231 229/229/229
f 235/235/235 234/234/234 233/233/233
f 236/236/236 235/235/235 233/233/233
f 239/239/239 238/238/238 237/237/237
f 240/240/240 239/239/239 237/237/237
f 243/243/243 242/242/242 241/241/241
f 244/244/244 243/243/243 241/241/241
f 247/247/247 246/246/246 245/245/245
f 248/248/248 247/247/247 245/245/245
f 251/251/251 250/250/250 249/249/249
f 252/252/252 251/251/251 249/249/249
f 255/255/255 254/254/254 253/253/253
f 256/256/256 255/255/255 253/253/253
f 259/259/259 258/258/258 257/257/257
f 260/260/260 259/259/259 257/257/257
f 263/263/263 262/262/262 261/261/261
f 264/264/264 263/263/263 261/261/261
f 267/267/267 266/266/266 265/265/265
f 268/268/268 267/267/267 265/265/265
f 271/271/271 270/270/270 269/269/269
f 272/272/272 271/271/271 269/269/269
f 275/275/275 274/274/274 273/273/273
f 276/276/276 275/275/275 273/273/273
f 279/279/279 278/278/278 277/277/277
f 280/280/280 279/279/279 277/277/277
f 283/283/283 282/282/282 281/281/281
f 284/284/284 283/283/283 281/281/281
f 287/287/287 286/286/286 285/285/285
f 288/288/288 287/287/287 285/285/285
f 291/291/291 290/290/290 289/289/289
f 292/292/292 291/291/291 289/289/289
f 295/295/295 294/294/294 293/293/293
f 296/296/296 295/295/295 293/293/293
f 299/299/299 298/298/298 297/297/297
f 300/300/300 299/299/299 297/297/297
f 303/303/303 302/302/302 301/301/301
f 304/304/304 303/303/303 301/301/301
f 307/307/307 306/306/306 305/305/305
f 308/308/308 307/307/307 305/305/305
f 311/311/311 310/310/310 309/309/309
f 312/312/312 311/311/311 309/309/309
f 315/315/315 314/314/314 313/313/313
f 316/316/316 315/315/315 313/313/313
f 319/319/319 318/318/318 317/317/317
f 320/320/320 319/319/319 317/317/317
f 323/323/323 322/322/322 321/321/321
f 324/324/324 323/323/323 321/321/321
f 327/327/327 326/326/326 325/325/325
f 328/328/328 327/327/327 325/325/325
f 331/331/331 330/330/330 329/329/329
f 332/332/332 331/331/331 329/329/329
f 335/335/335 334/334/334 333/333/333
f 336/336/336 335/335/335 333/333/333
