g Shadow Helbard
v -0.04873389 -0.030771762 2.0361805
v -0.010249674 0.5242671 2.210959
v -0.04873389 -0.030771762 2.3857374
v 0.010249838 0.5242671 2.210959
v 0.048734665 -0.030771762 2.0361805
v 0.048734665 -0.030771762 2.3857374
v -0.06599347 -0.06671548 -2.0778432
v -0.06599347 0.06527436 -2.0778432
v -0.06599347 0.06527436 2.1291933
v -0.06599347 -0.06671548 2.1291933
v -0.022904493 -0.023628354 2.210318
v -0.022904493 0.02218163 2.210318
v -0.06599347 0.06527436 -2.0778432
v 0.06599641 0.06527436 -2.0778432
v 0.06599641 0.06527436 2.1291933
v -0.06599347 0.06527436 2.1291933
v -0.022904493 0.02218163 2.210318
v 0.022905514 0.02218163 2.210318
v 0.06599641 0.06527436 -2.0778432
v 0.06599641 -0.06671548 -2.0778432
v 0.06599641 -0.06671548 2.1291933
v 0.06599641 0.06527436 2.1291933
v 0.022905514 0.02218163 2.210318
v 0.022905514 -0.023628354 2.210318
v 0.06599641 -0.06671548 -2.0778432
v -0.06599347 -0.06671548 -2.0778432
v -0.06599347 -0.06671548 2.1291933
v 0.06599641 -0.06671548 2.1291933
v 0.022905514 -0.023628354 2.210318
v -0.022904493 -0.023628354 2.210318
v -0.06599347 0.06527436 -2.0778432
v -0.06599347 -0.06671548 -2.0778432
v 0.06599641 -0.06671548 -2.0778432
v 0.06599641 0.06527436 -2.0778432
v -0.022904493 -0.023628354 2.210318
v -0.07342144 -0.07414329 2.2563753
v 0.07342471 -0.07414329 2.2563753
v 0.022905514 -0.023628354 2.210318
v 0.07342471 -0.07414329 2.2563753
v 0.012587197 -0.013304591 3.0373487
v 0.012587197 0.011869192 3.0373487
v 0.07342471 0.072702885 2.2563753
v 0.022905514 0.02218163 2.210318
v 0.07342471 0.072702885 2.2563753
v -0.07342144 0.072702885 2.2563753
v -0.022904493 0.02218163 2.210318
v 0.022905514 -0.023628354 2.210318
v 0.07342471 -0.07414329 2.2563753
v 0.07342471 0.072702885 2.2563753
v 0.022905514 0.02218163 2.210318
v -0.022904493 0.02218163 2.210318
v -0.07342144 0.072702885 2.2563753
v -0.07342144 -0.07414329 2.2563753
v -0.022904493 -0.023628354 2.210318
v 0.012587197 0.011869192 3.0373487
v 0.012587197 -0.013304591 3.0373487
v -0.012586635 -0.013304591 3.0373487
v -0.012586635 0.011869192 3.0373487
v -0.07342144 0.072702885 2.2563753
v -0.012586635 0.011869192 3.0373487
v -0.012586635 -0.013304591 3.0373487
v -0.07342144 -0.07414329 2.2563753
v -0.07342144 -0.07414329 2.2563753
v -0.012586635 -0.013304591 3.0373487
v 0.012587197 -0.013304591 3.0373487
v 0.07342471 -0.07414329 2.2563753
v 0.07342471 0.072702885 2.2563753
v 0.012587197 0.011869192 3.0373487
v -0.012586635 0.011869192 3.0373487
v -0.07342144 0.072702885 2.2563753
v 0.048734665 -0.030771762 2.0361805
v -0.04873389 -0.030771762 2.0361805
v -0.04873389 -0.030771762 2.3857374
v 0.048734665 -0.030771762 2.3857374
v -0.010249674 0.5242671 2.210959
v -0.04873389 -0.030771762 2.0361805
v 0.048734665 -0.030771762 2.0361805
v 0.010249838 0.5242671 2.210959
v 0.010249838 0.5242671 2.210959
v 0.048734665 -0.030771762 2.3857374
v -0.04873389 -0.030771762 2.3857374
v -0.010249674 0.5242671 2.210959
v -0.10664296 -0.10664284 1.6967112
v -0.10664296 0.10664463 1.6967112
v -0.10664296 0.10664463 1.9099985
v -0.10664296 -0.10664284 1.9099985
v -0.10664296 0.10664463 1.6967112
v 0.10664457 0.10664463 1.6967112
v 0.10664457 0.10664463 1.9099985
v -0.10664296 0.10664463 1.9099985
v 0.10664457 0.10664463 1.6967112
v 0.10664457 -0.10664284 1.6967112
v 0.10664457 -0.10664284 1.9099985
v 0.10664457 0.10664463 1.9099985
v 0.10664457 -0.10664284 1.6967112
v -0.10664296 -0.10664284 1.6967112
v -0.10664296 -0.10664284 1.9099985
v 0.10664457 -0.10664284 1.9099985
v -0.10664296 0.10664463 1.6967112
v -0.10664296 -0.10664284 1.6967112
v 0.10664457 -0.10664284 1.6967112
v 0.10664457 0.10664463 1.6967112
v 0.10664457 0.10664463 1.9099985
v 0.10664457 -0.10664284 1.9099985
v -0.10664296 -0.10664284 1.9099985
v -0.10664296 0.10664463 1.9099985
v -0.10664296 -0.10664284 0
v -0.10664296 0.10664463 0
v -0.10664296 0.10664463 0.6449605
v -0.10664296 -0.10664284 0.6449605
v -0.10664296 0.10664463 0
v 0.10664457 0.10664463 0
v 0.10664457 0.10664463 0.6449605
v -0.10664296 0.10664463 0.6449605
v 0.10664457 0.10664463 0
v 0.10664457 -0.10664284 0
v 0.10664457 -0.10664284 0.6449605
v 0.10664457 0.10664463 0.6449605
v 0.10664457 -0.10664284 0
v -0.10664296 -0.10664284 0
v -0.10664296 -0.10664284 0.6449605
v 0.10664457 -0.10664284 0.6449605
v -0.10664296 0.10664463 0
v -0.10664296 -0.10664284 0
v 0.10664457 -0.10664284 0
v 0.10664457 0.10664463 0
v 0.10664457 0.10664463 0.6449605
v 0.10664457 -0.10664284 0.6449605
v -0.10664296 -0.10664284 0.6449605
v -0.10664296 0.10664463 0.6449605
v -0.10664296 -0.10664284 -1.246074
v -0.10664296 0.10664463 -1.246074
v -0.10664296 0.10664463 -0.60111356
v -0.10664296 -0.10664284 -0.60111356
v -0.10664296 0.10664463 -1.246074
v 0.10664457 0.10664463 -1.246074
v 0.10664457 0.10664463 -0.60111356
v -0.10664296 0.10664463 -0.60111356
v 0.10664457 0.10664463 -1.246074
v 0.10664457 -0.10664284 -1.246074
v 0.10664457 -0.10664284 -0.60111356
v 0.10664457 0.10664463 -0.60111356
v 0.10664457 -0.10664284 -1.246074
v -0.10664296 -0.10664284 -1.246074
v -0.10664296 -0.10664284 -0.60111356
v 0.10664457 -0.10664284 -0.60111356
v -0.10664296 0.10664463 -1.246074
v -0.10664296 -0.10664284 -1.246074
v 0.10664457 -0.10664284 -1.246074
v 0.10664457 0.10664463 -1.246074
v 0.10664457 0.10664463 -0.60111356
v 0.10664457 -0.10664284 -0.60111356
v -0.10664296 -0.10664284 -0.60111356
v -0.10664296 0.10664463 -0.60111356
v -0.09204189 -0.28395778 1.9526403
v -0.09204189 -0.06398887 1.9526403
v -0.09204189 -0.06398887 2.499902
v -0.09204189 -0.28395778 2.499902
v -0.09204189 -0.06398887 1.9526403
v 0.09202805 -0.06398887 1.9526403
v 0.09202805 -0.06398887 2.499902
v -0.09204189 -0.06398887 2.499902
v 0.09202805 -0.06398887 1.9526403
v 0.09202805 -0.28395778 1.9526403
v 0.09202805 -0.28395778 2.499902
v 0.09202805 -0.06398887 2.499902
v 0.09202805 -0.28395778 1.9526403
v -0.09204189 -0.28395778 1.9526403
v -0.09204189 -0.28395778 2.499902
v 0.09202805 -0.28395778 2.499902
v -0.09204189 -0.06398887 1.9526403
v -0.09204189 -0.28395778 1.9526403
v 0.09202805 -0.28395778 1.9526403
v 0.09202805 -0.06398887 1.9526403
v 0.09202805 -0.06398887 2.499902
v 0.09202805 -0.28395778 2.499902
v -0.09204189 -0.28395778 2.499902
v -0.09204189 -0.06398887 2.499902
v -0.20029154 -0.20029803 0.106168345
v -0.20029154 0.20031479 0.106168345
v -0.20029154 0.20031479 0.53879225
v -0.20029154 -0.20029803 0.53879225
v -0.20029154 0.20031479 0.106168345
v 0.20032138 0.20031479 0.106168345
v 0.20032138 0.20031479 0.53879225
v -0.20029154 0.20031479 0.53879225
v 0.20032138 0.20031479 0.106168345
v 0.20032138 -0.20029803 0.106168345
v 0.20032138 -0.20029803 0.53879225
v 0.20032138 0.20031479 0.53879225
v 0.20032138 -0.20029803 0.106168345
v -0.20029154 -0.20029803 0.106168345
v -0.20029154 -0.20029803 0.53879225
v 0.20032138 -0.20029803 0.53879225
v -0.20029154 0.20031479 0.106168345
v -0.20029154 -0.20029803 0.106168345
v 0.20032138 -0.20029803 0.106168345
v 0.20032138 0.20031479 0.106168345
v 0.20032138 0.20031479 0.53879225
v 0.20032138 -0.20029803 0.53879225
v -0.20029154 -0.20029803 0.53879225
v -0.20029154 0.20031479 0.53879225
v -0.20029154 -0.20029803 -1.1514167
v -0.20029154 0.20031479 -1.1514167
v -0.20029154 0.20031479 -0.7187928
v -0.20029154 -0.20029803 -0.7187928
v -0.20029154 0.20031479 -1.1514167
v 0.20032138 0.20031479 -1.1514167
v 0.20032138 0.20031479 -0.7187928
v -0.20029154 0.20031479 -0.7187928
v 0.20032138 0.20031479 -1.1514167
v 0.20032138 -0.20029803 -1.1514167
v 0.20032138 -0.20029803 -0.7187928
v 0.20032138 0.20031479 -0.7187928
v 0.20032138 -0.20029803 -1.1514167
v -0.20029154 -0.20029803 -1.1514167
v -0.20029154 -0.20029803 -0.7187928
v 0.20032138 -0.20029803 -0.7187928
v -0.20029154 0.20031479 -1.1514167
v -0.20029154 -0.20029803 -1.1514167
v 0.20032138 -0.20029803 -1.1514167
v 0.20032138 0.20031479 -1.1514167
v 0.20032138 0.20031479 -0.7187928
v 0.20032138 -0.20029803 -0.7187928
v -0.20029154 -0.20029803 -0.7187928
v -0.20029154 0.20031479 -0.7187928
v -0.036363773 -0.3873992 1.7589217
v -0.036363773 -0.4827491 1.197419
v 0.036339846 -0.4827491 1.197419
v 0.036339846 -0.3873992 1.7589217
v -0.036363773 -0.29204932 1.9404668
v 0.036339846 -0.29204932 1.9404668
v -0.036363773 -0.29204932 2.2262707
v 0.036339846 -0.29204932 2.5120745
v -0.036363773 -0.29204932 2.5120745
v 0.036339846 -0.29204932 2.2262707
v -0.036363773 -0.29204932 1.9404668
v 0.036339846 -0.29204932 1.9404668
v 0.036339846 -0.3873992 2.6936193
v 0.036339846 -0.4827491 3.2551215
v -0.036363773 -0.4827491 3.2551215
v -0.036363773 -0.3873992 2.6936193
v 0.036339846 -0.29204932 2.5120745
v -0.036363773 -0.29204932 2.5120745
v -0.036363773 -0.4827491 1.197419
v 0.030249173 -0.63310385 1.346399
v 0.036339846 -0.4827491 1.197419
v -0.030271647 -0.63310385 1.346399
v 0.02020703 -0.80471015 1.6383519
v -0.020232175 -0.80471015 1.6383519
v 0.030249173 -0.63310385 3.1061416
v 0.02020703 -0.80471015 2.8141885
v -0.020232175 -0.80471015 2.8141885
v -0.030271647 -0.63310385 3.1061416
v 0.036339846 -0.4827491 3.2551215
v -0.036363773 -0.4827491 3.2551215
v 0.02020703 -0.93426186 2.2262702
v -0.020232175 -0.80471015 2.8141885
v 0.02020703 -0.80471015 2.8141885
v -0.020232175 -0.93426186 2.2262702
v 0.02020703 -0.80471015 1.6383519
v -0.020232175 -0.80471015 1.6383519
v -0.030271647 -0.63310385 3.1061416
v -0.020232175 -0.80471015 2.8141885
v -0.020232175 -0.93426186 2.2262702
v -0.030271647 -0.63310385 2.2262702
v -0.020232175 -0.80471015 1.6383519
v -0.036363773 -0.4827491 3.2551215
v -0.030271647 -0.63310385 1.346399
v -0.036363773 -0.4827491 2.2262702
v -0.036363773 -0.3873992 2.6936193
v -0.036363773 -0.4827491 1.197419
v -0.036363773 -0.3873992 2.2262704
v -0.036363773 -0.29204932 2.5120745
v -0.036363773 -0.3873992 1.7589217
v -0.036363773 -0.29204932 2.2262707
v -0.036363773 -0.29204932 1.9404668
v 0.030249173 -0.63310385 1.346399
v 0.02020703 -0.80471015 1.6383519
v 0.02020703 -0.93426186 2.2262702
v 0.030249173 -0.63310385 2.2262702
v 0.02020703 -0.80471015 2.8141885
v 0.036339846 -0.4827491 1.197419
v 0.030249173 -0.63310385 3.1061416
v 0.036339846 -0.4827491 2.2262702
v 0.036339846 -0.3873992 1.7589217
v 0.036339846 -0.4827491 3.2551215
v 0.036339846 -0.3873992 2.2262704
v 0.036339846 -0.29204932 1.9404668
v 0.036339846 -0.3873992 2.6936193
v 0.036339846 -0.29204932 2.2262707
v 0.036339846 -0.29204932 2.5120745
vt 0.375 0
vt 0.375 0.25
vt 0.625 0
vt 0.625 0.5
vt 0.375 0.75
vt 0.625 0.75
vt 0.375 0
vt 0.375 0.25
vt 0.625 0.25
vt 0.625 0
vt 0.625 0
vt 0.625 0.25
vt 0.375 0.25
vt 0.375 0.5
vt 0.625 0.5
vt 0.625 0.25
vt 0.625 0.25
vt 0.625 0.5
vt 0.375 0.5
vt 0.375 0.75
vt 0.625 0.75
vt 0.625 0.5
vt 0.625 0.5
vt 0.625 0.75
vt 0.375 0.75
vt 0.375 1
vt 0.625 1
vt 0.625 0.75
vt 0.625 0.75
vt 0.625 1
vt 0.125 0.5
vt 0.125 0.75
vt 0.375 0.75
vt 0.375 0.5
vt 0.625 1
vt 0.625 1
vt 0.625 0.75
vt 0.625 0.75
vt 0.625 0.75
vt 0.625 0.75
vt 0.625 0.5
vt 0.625 0.5
vt 0.625 0.5
vt 0.625 0.5
vt 0.625 0.25
vt 0.625 0.25
vt 0.625 0.75
vt 0.625 0.75
vt 0.625 0.5
vt 0.625 0.5
vt 0.625 0.25
vt 0.625 0.25
vt 0.625 0
vt 0.625 0
vt 0.625 0.5
vt 0.625 0.75
vt 0.875 0.75
vt 0.875 0.5
vt 0.625 0.25
vt 0.625 0.25
vt 0.625 0
vt 0.625 0
vt 0.625 1
vt 0.625 1
vt 0.625 0.75
vt 0.625 0.75
vt 0.625 0.5
vt 0.625 0.5
vt 0.625 0.25
vt 0.625 0.25
vt 0.375 0.75
vt 0.375 1
vt 0.625 1
vt 0.625 0.75
vt 0.125 0.5
vt 0.125 0.75
vt 0.375 0.75
vt 0.375 0.5
vt 0.625 0.5
vt 0.625 0.75
vt 0.875 0.75
vt 0.875 0.5
vt 0.375 0
vt 0.375 0.25
vt 0.625 0.25
vt 0.625 0
vt 0.375 0.25
vt 0.375 0.5
vt 0.625 0.5
vt 0.625 0.25
vt 0.375 0.5
vt 0.375 0.75
vt 0.625 0.75
vt 0.625 0.5
vt 0.375 0.75
vt 0.375 1
vt 0.625 1
vt 0.625 0.75
vt 0.125 0.5
vt 0.125 0.75
vt 0.375 0.75
vt 0.375 0.5
vt 0.625 0.5
vt 0.625 0.75
vt 0.875 0.75
vt 0.875 0.5
vt 0.375 0
vt 0.375 0.25
vt 0.625 0.25
vt 0.625 0
vt 0.375 0.25
vt 0.375 0.5
vt 0.625 0.5
vt 0.625 0.25
vt 0.375 0.5
vt 0.375 0.75
vt 0.625 0.75
vt 0.625 0.5
vt 0.375 0.75
vt 0.375 1
vt 0.625 1
vt 0.625 0.75
vt 0.125 0.5
vt 0.125 0.75
vt 0.375 0.75
vt 0.375 0.5
vt 0.625 0.5
vt 0.625 0.75
vt 0.875 0.75
vt 0.875 0.5
vt 0.375 0
vt 0.375 0.25
vt 0.625 0.25
vt 0.625 0
vt 0.375 0.25
vt 0.375 0.5
vt 0.625 0.5
vt 0.625 0.25
vt 0.375 0.5
vt 0.375 0.75
vt 0.625 0.75
vt 0.625 0.5
vt 0.375 0.75
vt 0.375 1
vt 0.625 1
vt 0.625 0.75
vt 0.125 0.5
vt 0.125 0.75
vt 0.375 0.75
vt 0.375 0.5
vt 0.625 0.5
vt 0.625 0.75
vt 0.875 0.75
vt 0.875 0.5
vt 0.375 0
vt 0.375 0.25
vt 0.625 0.25
vt 0.625 0
vt 0.375 0.25
vt 0.375 0.5
vt 0.625 0.5
vt 0.625 0.25
vt 0.375 0.5
vt 0.375 0.75
vt 0.625 0.75
vt 0.625 0.5
vt 0.375 0.75
vt 0.375 1
vt 0.625 1
vt 0.625 0.75
vt 0.125 0.5
vt 0.125 0.75
vt 0.375 0.75
vt 0.375 0.5
vt 0.625 0.5
vt 0.625 0.75
vt 0.875 0.75
vt 0.875 0.5
vt 0.375 0
vt 0.375 0.25
vt 0.625 0.25
vt 0.625 0
vt 0.375 0.25
vt 0.375 0.5
vt 0.625 0.5
vt 0.625 0.25
vt 0.375 0.5
vt 0.375 0.75
vt 0.625 0.75
vt 0.625 0.5
vt 0.375 0.75
vt 0.375 1
vt 0.625 1
vt 0.625 0.75
vt 0.125 0.5
vt 0.125 0.75
vt 0.375 0.75
vt 0.375 0.5
vt 0.625 0.5
vt 0.625 0.75
vt 0.875 0.75
vt 0.875 0.5
vt 0.375 0
vt 0.375 0.25
vt 0.625 0.25
vt 0.625 0
vt 0.375 0.25
vt 0.375 0.5
vt 0.625 0.5
vt 0.625 0.25
vt 0.375 0.5
vt 0.375 0.75
vt 0.625 0.75
vt 0.625 0.5
vt 0.375 0.75
vt 0.375 1
vt 0.625 1
vt 0.625 0.75
vt 0.125 0.5
vt 0.125 0.75
vt 0.375 0.75
vt 0.375 0.5
vt 0.625 0.5
vt 0.625 0.75
vt 0.875 0.75
vt 0.875 0.5
vt 0.125 0.5714394
vt 0.125 0.64287883
vt 0.375 0.6428788
vt 0.375 0.5714394
vt 0.125 0.5
vt 0.375 0.5
vt 0.5 0.25
vt 0.625 0.5
vt 0.625 0.25
vt 0.5 0.5
vt 0.375 0.25
vt 0.375 0.5
vt 0.625 0.5714394
vt 0.625 0.6428788
vt 0.875 0.6428788
vt 0.875 0.5714394
vt 0.625 0.5
vt 0.875 0.5
vt 0.125 0.64287883
vt 0.375 0.75
vt 0.375 0.6428788
vt 0.125 0.75
vt 0.375 0.75
vt 0.125 0.75
vt 0.625 0.75
vt 0.625 0.75
vt 0.875 0.75
vt 0.875 0.75
vt 0.625 0.6428788
vt 0.875 0.6428788
vt 0.5 0.75
vt 0.625 1
vt 0.625 0.75
vt 0.5 1
vt 0.375 0.75
vt 0.375 1
vt 0.625 0
vt 0.625 0
vt 0.5 0
vt 0.5 0
vt 0.375 0
vt 0.625 0.10712119
vt 0.375 0
vt 0.5 0.107121184
vt 0.625 0.1785606
vt 0.375 0.107121184
vt 0.5 0.17856058
vt 0.625 0.25
vt 0.375 0.17856058
vt 0.5 0.25
vt 0.375 0.25
vt 0.375 0.75
vt 0.375 0.75
vt 0.5 0.75
vt 0.5 0.75
vt 0.625 0.75
vt 0.375 0.6428788
vt 0.625 0.75
vt 0.5 0.6428788
vt 0.375 0.5714394
vt 0.625 0.6428788
vt 0.5 0.5714394
vt 0.375 0.5
vt 0.625 0.5714394
vt 0.5 0.5
vt 0.625 0.5
vn -0.99760485 0.06917001 0
vn -0.99760485 0.06917001 0
vn -0.99760485 0.06917001 0
vn 0.99760485 0.06917112 0
vn 0.99760485 0.06917112 0
vn 0.99760485 0.06917112 0
vn -1 0 0
vn -1 0 0
vn -0.97932076 0 0.20231375
vn -0.97931963 0 0.20231898
vn -0.8831543 0 0.46908268
vn -0.8831543 0 0.46908268
vn -0 1 0
vn -0 1 0
vn -0 0.9793172 0.20233077
vn -0 0.9793169 0.20233257
vn -0 0.8831374 0.4691143
vn -0 0.8831374 0.4691143
vn 1 0 0
vn 1 0 0
vn 0.97931814 0 0.20232673
vn 0.97931916 0 0.20232145
vn 0.88314587 0 0.46909854
vn 0.88314587 0 0.46909854
vn -0 -1 0
vn -0 -1 0
vn -0 -0.97932166 0.20230962
vn -0 -0.9793219 0.2023078
vn -0 -0.88316274 0.46906683
vn -0 -0.88316274 0.46906683
vn -0 0 -1
vn -0 0 -1
vn -0 0 -1
vn -0 0 -1
vn -0 -0.6737498 -0.73895955
vn -0 -0.6737498 -0.73895955
vn -0 -0.6737498 -0.73895955
vn -0 -0.6737498 -0.73895955
vn 0.9969796 0 0.077664286
vn 0.9969796 0 0.077664286
vn 0.9969796 0 0.077664286
vn 0.9969796 0 0.077664286
vn -0 0.6737038 -0.73900145
vn -0 0.6737038 -0.73900145
vn -0 0.6737038 -0.73900145
vn -0 0.6737038 -0.73900145
vn 0.6737169 0 -0.73898953
vn 0.6737169 0 -0.73898953
vn 0.6737169 0 -0.73898953
vn 0.6737169 0 -0.73898953
vn -0.67373335 0 -0.7389746
vn -0.67373335 0 -0.7389746
vn -0.67373335 0 -0.7389746
vn -0.67373335 0 -0.7389746
vn -0 0 1
vn -0 0 1
vn -0 0 1
vn -0 0 1
vn -0.9969798 0 0.077660844
vn -0.9969798 0 0.077660844
vn -0.9969798 0 0.077660844
vn -0.9969798 0 0.077660844
vn -0 -0.9969795 0.07766581
vn -0 -0.9969795 0.07766581
vn -0 -0.9969795 0.07766581
vn -0 -0.9969795 0.07766581
vn -0 0.9969799 0.07765945
vn -0 0.9969799 0.07765945
vn -0 0.9969799 0.07765945
vn -0 0.9969799 0.07765945
vn -0 -1 0
vn -0 -1 0
vn -0 -1 0
vn -0 -1 0
vn -0 0.3003547 -0.95382756
vn -0 0.3003547 -0.95382756
vn -0 0.3003547 -0.95382756
vn -0 0.3003547 -0.95382756
vn -0 0.3003547 0.95382756
vn -0 0.3003547 0.95382756
vn -0 0.3003547 0.95382756
vn -0 0.3003547 0.95382756
vn -1 0 0
vn -1 0 0
vn -1 0 0
vn -1 0 0
vn -0 1 0
vn -0 1 0
vn -0 1 0
vn -0 1 0
vn 1 0 0
vn 1 0 0
vn 1 0 0
vn 1 0 0
vn -0 -1 0
vn -0 -1 0
vn -0 -1 0
vn -0 -1 0
vn -0 0 -1
vn -0 0 -1
vn -0 0 -1
vn -0 0 -1
vn -0 0 1
vn -0 0 1
vn -0 0 1
vn -0 0 1
vn -1 0 0
vn -1 0 0
vn -1 0 0
vn -1 0 0
vn -0 1 0
vn -0 1 0
vn -0 1 0
vn -0 1 0
vn 1 0 0
vn 1 0 0
vn 1 0 0
vn 1 0 0
vn -0 -1 0
vn -0 -1 0
vn -0 -1 0
vn -0 -1 0
vn -0 0 -1
vn -0 0 -1
vn -0 0 -1
vn -0 0 -1
vn -0 0 1
vn -0 0 1
vn -0 0 1
vn -0 0 1
vn -1 0 0
vn -1 0 0
vn -1 0 0
vn -1 0 0
vn -0 1 0
vn -0 1 0
vn -0 1 0
vn -0 1 0
vn 1 0 0
vn 1 0 0
vn 1 0 0
vn 1 0 0
vn -0 -1 0
vn -0 -1 0
vn -0 -1 0
vn -0 -1 0
vn -0 0 -1
vn -0 0 -1
vn -0 0 -1
vn -0 0 -1
vn -0 0 1
vn -0 0 1
vn -0 0 1
vn -0 0 1
vn -1 0 0
vn -1 0 0
vn -1 0 0
vn -1 0 0
vn -0 1 0
vn -0 1 0
vn -0 1 0
vn -0 1 0
vn 1 0 0
vn 1 0 0
vn 1 0 0
vn 1 0 0
vn -0 -1 0
vn -0 -1 0
vn -0 -1 0
vn -0 -1 0
vn -0 0 -1
vn -0 0 -1
vn -0 0 -1
vn -0 0 -1
vn -0 0 1
vn -0 0 1
vn -0 0 1
vn -0 0 1
vn -1 0 0
vn -1 0 0
vn -1 0 0
vn -1 0 0
vn -0 1 0
vn -0 1 0
vn -0 1 0
vn -0 1 0
vn 1 0 0
vn 1 0 0
vn 1 0 0
vn 1 0 0
vn -0 -1 0
vn -0 -1 0
vn -0 -1 0
vn -0 -1 0
vn -0 0 -1
vn -0 0 -1
vn -0 0 -1
vn -0 0 -1
vn -0 0 1
vn -0 0 1
vn -0 0 1
vn -0 0 1
vn -1 0 0
vn -1 0 0
vn -1 0 0
vn -1 0 0
vn -0 1 0
vn -0 1 0
vn -0 1 0
vn -0 1 0
vn 1 0 0
vn 1 0 0
vn 1 0 0
vn 1 0 0
vn -0 -1 0
vn -0 -1 0
vn -0 -1 0
vn -0 -1 0
vn -0 0 -1
vn -0 0 -1
vn -0 0 -1
vn -0 0 -1
vn -0 0 1
vn -0 0 1
vn -0 0 1
vn -0 0 1
vn -0 0.9473595 -0.32017183
vn -0 0.98588645 -0.1674154
vn -0 0.98588645 -0.1674154
vn -0 0.9473595 -0.32017183
vn -0 0.97090685 -0.2394576
vn -0 0.97090685 -0.2394576
vn -0 1 0
vn -0 0.97090673 0.23945783
vn -0 0.97090673 0.23945783
vn -0 1 0
vn -0 0.97090685 -0.2394576
vn -0 0.97090685 -0.2394576
vn -0 0.9473594 0.32017216
vn -0 0.98588645 0.16741553
vn -0 0.98588645 0.16741553
vn -0 0.9473594 0.32017216
vn -0 0.97090673 0.23945783
vn -0 0.97090673 0.23945783
vn -0 -0.70385164 -0.710347
vn -0 -0.7880834 -0.6155684
vn -0 -0.70385164 -0.710347
vn -0 -0.7880835 -0.6155684
vn -0 -0.9302798 -0.36685094
vn -0 -0.93027985 -0.36685058
vn -0 -0.78808355 0.61556834
vn -0 -0.9302798 0.36685085
vn -0 -0.93027997 0.3668505
vn -0 -0.78808355 0.6155683
vn -0 -0.7038517 0.71034694
vn -0 -0.7038517 0.71034694
vn -0 -1 0
vn -0 -0.93027997 0.3668505
vn -0 -0.9302798 0.36685085
vn -0 -1 0
vn -0 -0.9302798 -0.36685094
vn -0 -0.93027985 -0.36685058
vn -0.9991467 -0.041295286 0.00073099753
vn -0.99898475 -0.04487417 0.003960736
vn -0.9989926 -0.044874534 0
vn -0.99908876 -0.04267992 0
vn -0.99898475 -0.044874184 -0.0039607366
vn -0.9994425 -0.033386793 0
vn -0.9991467 -0.041295256 -0.00073099777
vn -0.999795 -0.020246701 0
vn -1 0 0
vn -0.9994425 -0.03338679 0
vn -1 0 0
vn -1 0 0
vn -1 0 0
vn -1 0 0
vn -1 0 0
vn 0.99914694 -0.04128961 -0.0007311919
vn 0.9989843 -0.044886086 -0.0039617866
vn 0.99899215 -0.04488644 0
vn 0.99908876 -0.04268105 0
vn 0.9989843 -0.044886082 0.0039617857
vn 0.99944276 -0.033378858 0
vn 0.99914694 -0.0412896 0.00073119154
vn 0.99979514 -0.0202419 0
vn 1 0 0
vn 0.99944276 -0.03337883 0
vn 1 0 0
vn 1 0 0
vn 1 0 0
vn 1 0 0
vn 1 0 0
g Shadow Helbard_0
f 3/3/3 2/2/2 1/1/1
f 6/6/6 5/5/5 4/4/4
f 9/9/9 8/8/8 7/7/7
f 10/10/10 9/9/9 7/7/7
f 10/10/10 11/11/11 9/9/9
f 11/11/11 12/12/12 9/9/9
f 15/15/15 14/14/14 13/13/13
f 16/16/16 15/15/15 13/13/13
f 16/16/16 17/17/17 15/15/15
f 17/17/17 18/18/18 15/15/15
f 21/21/21 20/20/20 19/19/19
f 22/22/22 21/21/21 19/19/19
f 22/22/22 23/23/23 21/21/21
f 23/23/23 24/24/24 21/21/21
f 27/27/27 26/26/26 25/25/25
f 28/28/28 27/27/27 25/25/25
f 28/28/28 29/29/29 27/27/27
f 29/29/29 30/30/30 27/27/27
f 33/33/33 32/32/32 31/31/31
f 34/34/34 33/33/33 31/31/31
f 37/37/37 36/36/36 35/35/35
f 38/38/38 37/37/37 35/35/35
f 41/41/41 40/40/40 39/39/39
f 42/42/42 41/41/41 39/39/39
f 45/45/45 44/44/44 43/43/43
f 46/46/46 45/45/45 43/43/43
f 49/49/49 48/48/48 47/47/47
f 50/50/50 49/49/49 47/47/47
f 53/53/53 52/52/52 51/51/51
f 54/54/54 53/53/53 51/51/51
f 57/57/57 56/56/56 55/55/55
f 58/58/58 57/57/57 55/55/55
f 61/61/61 60/60/60 59/59/59
f 62/62/62 61/61/61 59/59/59
f 65/65/65 64/64/64 63/63/63
f 66/66/66 65/65/65 63/63/63
f 69/69/69 68/68/68 67/67/67
f 70/70/70 69/69/69 67/67/67
f 73/73/73 72/72/72 71/71/71
f 74/74/74 73/73/73 71/71/71
f 77/77/77 76/76/76 75/75/75
f 78/78/78 77/77/77 75/75/75
f 81/81/81 80/80/80 79/79/79
f 82/82/82 81/81/81 79/79/79
f 85/85/85 84/84/84 83/83/83
f 86/86/86 85/85/85 83/83/83
f 89/89/89 88/88/88 87/87/87
f 90/90/90 89/89/89 87/87/87
f 93/93/93 92/92/92 91/91/91
f 94/94/94 93/93/93 91/91/91
f 97/97/97 96/96/96 95/95/95
f 98/98/98 97/97/97 95/95/95
f 101/101/101 100/100/100 99/99/99
f 102/102/102 101/101/101 99/99/99
f 105/105/105 104/104/104 103/103/103
f 106/106/106 105/105/105 103/103/103
f 109/109/109 108/108/108 107/107/107
f 110/110/110 109/109/109 107/107/107
f 113/113/113 112/112/112 111/111/111
f 114/114/114 113/113/113 111/111/111
f 117/117/117 116/116/116 115/115/115
f 118/118/118 117/117/117 115/115/115
f 121/121/121 120/120/120 119/119/119
f 122/122/122 121/121/121 119/119/119
f 125/125/125 124/124/124 123/123/123
f 126/126/126 125/125/125 123/123/123
f 129/129/129 128/128/128 127/127/127
f 130/130/130 129/129/129 127/127/127
f 133/133/133 132/132/132 131/131/131
f 134/134/134 133/133/133 131/131/131
f 137/137/137 136/136/136 135/135/135
f 138/138/138 137/137/137 135/135/135
f 141/141/141 140/140/140 139/139/139
f 142/142/142 141/141/141 139/139/139
f 145/145/145 144/144/144 143/143/143
f 146/146/146 145/145/145 143/143/143
f 149/149/149 148/148/148 147/147/147
f 150/150/150 149/149/149 147/147/147
f 153/153/153 152/152/152 151/151/151
f 154/154/154 153/153/153 151/151/151
f 157/157/157 156/156/156 155/155/155
f 158/158/158 157/157/157 155/155/155
f 161/161/161 160/160/160 159/159/159
f 162/162/162 161/161/161 159/159/159
f 165/165/165 164/164/164 163/163/163
f 166/166/166 165/165/165 163/163/163
f 169/169/169 168/168/168 167/167/167
f 170/170/170 169/169/169 167/167/167
f 173/173/173 172/172/172 171/171/171
f 174/174/174 173/173/173 171/171/171
f 177/177/177 176/176/176 175/175/175
f 178/178/178 177/177/177 175/175/175
f 181/181/181 180/180/180 179/179/179
f 182/182/182 181/181/181 179/179/179
f 185/185/185 184/184/184 183/183/183
f 186/186/186 185/185/185 183/183/183
f 189/189/189 188/188/188 187/187/187
f 190/190/190 189/189/189 187/187/187
f 193/193/193 192/192/192 191/191/191
f 194/194/194 193/193/193 191/191/191
f 197/197/197 196/196/196 195/195/195
f 198/198/198 197/197/197 195/195/195
f 201/201/201 200/200/200 199/199/199
f 202/202/202 201/201/201 199/199/199
f 205/205/205 204/204/204 203/203/203
f 206/206/206 205/205/205 203/203/203
f 209/209/209 208/208/208 207/207/207
f 210/210/210 209/209/209 207/207/207
f 213/213/213 212/212/212 211/211/211
f 214/214/214 213/213/213 211/211/211
f 217/217/217 216/216/216 215/215/215
f 218/218/218 217/217/217 215/215/215
f 221/221/221 220/220/220 219/219/219
f 222/222/222 221/221/221 219/219/219
f 225/225/225 224/224/224 223/223/223
f 226/226/226 225/225/225 223/223/223
f 229/229/229 228/228/228 227/227/227
f 230/230/230 229/229/229 227/227/227
f 230/230/230 227/227/227 231/231/231
f 232/232/232 230/230/230 231/231/231
f 235/235/235 234/234/234 233/233/233
f 234/234/234 236/236/236 233/233/233
f 233/233/233 236/236/236 237/237/237
f 236/236/236 238/238/238 237/237/237
f 241/241/241 240/240/240 239/239/239
f 242/242/242 241/241/241 239/239/239
f 242/242/242 239/239/239 243/243/243
f 244/244/244 242/242/242 243/243/243
f 247/247/247 246/246/246 245/245/245
f 246/246/246 248/248/248 245/245/245
f 246/246/246 249/249/249 248/248/248
f 249/249/249 250/250/250 248/248/248
f 253/253/253 252/252/252 251/251/251
f 254/254/254 253/253/253 251/251/251
f 254/254/254 251/251/251 255/255/255
f 256/256/256 254/254/254 255/255/255
f 259/259/259 258/258/258 257/257/257
f 258/258/258 260/260/260 257/257/257
f 257/257/257 260/260/260 261/261/261
f 260/260/260 262/262/262 261/261/261
f 265/265/265 264/264/264 263/263/263
f 266/266/266 265/265/265 263/263/263
f 267/267/267 265/265/265 266/266/266
f 266/266/266 263/263/263 268/268/268
f 269/269/269 267/267/267 266/266/266
f 270/270/270 266/266/266 268/268/268
f 269/269/269 266/266/266 270/270/270
f 268/268/268 271/271/271 270/270/270
f 272/272/272 269/269/269 270/270/270
f 271/271/271 273/273/273 270/270/270
f 270/270/270 273/273/273 272/272/272
f 271/271/271 274/274/274 273/273/273
f 273/273/273 275/275/275 272/272/272
f 274/274/274 276/276/276 273/273/273
f 273/273/273 276/276/276 275/275/275
f 276/276/276 277/277/277 275/275/275
f 280/280/280 279/279/279 278/278/278
f 281/281/281 280/280/280 278/278/278
f 282/282/282 280/280/280 281/281/281
f 281/281/281 278/278/278 283/283/283
f 284/284/284 282/282/282 281/281/281
f 285/285/285 281/281/281 283/283/283
f 284/284/284 281/281/281 285/285/285
f 285/285/285 283/283/283 286/286/286
f 287/287/287 284/284/284 285/285/285
f 288/288/288 285/285/285 286/286/286
f 287/287/287 285/285/285 288/288/288
f 288/288/288 286/286/286 289/289/289
f 290/290/290 287/287/287 288/288/288
f 291/291/291 288/288/288 289/289/289
f 290/290/290 288/288/288 291/291/291
f 292/292/292 290/290/290 291/291/291
