g Shadow Scepter
v -0.084392734 -0.048724394 0.8619665
v -0.020385744 -0.011770079 1.7388438
v 1.7991471E-07 -0.0235399 1.7388438
v 8.7359496E-08 -0.09744861 0.8619665
v 0.084392905 -0.048724394 0.8619665
v 0.020386107 -0.011770079 1.7388438
v 0.020386107 0.011769561 1.7388438
v 0.084392905 0.04872404 0.8619665
v -8.697832E-09 -0.058650337 -1.8762009
v 0.05079244 -0.02932532 -1.8762009
v 0.05079244 0.029324736 -1.8762009
v -8.697832E-09 0.05864976 -1.8762009
v -0.05079245 -0.02932532 -1.8762009
v -0.05079245 0.029324736 -1.8762009
v 1.2624196E-07 0.12523898 -0.080147564
v 0.10846018 0.062619545 -0.080147564
v 0.10846018 0.062619545 0.0005199611
v 1.2624196E-07 0.12523898 0.0005199611
v 0.10846018 0.062619545 -0.080147564
v 0.10846018 -0.06261933 -0.080147564
v 0.10846018 -0.06261933 0.0005199611
v 0.10846018 0.062619545 0.0005199611
v 0.10846018 -0.06261933 -0.080147564
v 1.2624196E-07 -0.12523876 -0.080147564
v 1.2624196E-07 -0.12523876 0.0005199611
v 0.10846018 -0.06261933 0.0005199611
v 1.2624196E-07 -0.12523876 -0.080147564
v -0.10845993 -0.06261933 -0.080147564
v -0.10845993 -0.06261933 0.0005199611
v 1.2624196E-07 -0.12523876 0.0005199611
v 1.2624196E-07 0.12523898 0.0005199611
v 0.10846018 0.062619545 0.0005199611
v 0.10846018 -0.06261933 0.0005199611
v 1.2624196E-07 -0.12523876 0.0005199611
v -0.10845993 0.062619545 0.0005199611
v -0.10845993 -0.06261933 0.0005199611
v -0.10845993 -0.06261933 -0.080147564
v -0.10845993 0.062619545 -0.080147564
v -0.10845993 0.062619545 0.0005199611
v -0.10845993 -0.06261933 0.0005199611
v -0.10845993 0.062619545 -0.080147564
v 1.2624196E-07 0.12523898 -0.080147564
v 1.2624196E-07 0.12523898 0.0005199611
v -0.10845993 0.062619545 0.0005199611
v 1.2624196E-07 -0.12523876 -0.080147564
v 0.10846018 -0.06261933 -0.080147564
v 0.10846018 0.062619545 -0.080147564
v 1.2624196E-07 0.12523898 -0.080147564
v -0.10845993 -0.06261933 -0.080147564
v -0.10845993 0.062619545 -0.080147564
v 1.2624196E-07 0.12523898 0.13429806
v 0.10846018 0.062619545 0.13429806
v 0.10846018 0.062619545 0.21496554
v 1.2624196E-07 0.12523898 0.21496554
v 0.10846018 0.062619545 0.13429806
v 0.10846018 -0.06261933 0.13429806
v 0.10846018 -0.06261933 0.21496554
v 0.10846018 0.062619545 0.21496554
v 0.10846018 -0.06261933 0.13429806
v 1.2624196E-07 -0.12523876 0.13429806
v 1.2624196E-07 -0.12523876 0.21496554
v 0.10846018 -0.06261933 0.21496554
v 1.2624196E-07 -0.12523876 0.13429806
v -0.10845993 -0.06261933 0.13429806
v -0.10845993 -0.06261933 0.21496554
v 1.2624196E-07 -0.12523876 0.21496554
v 1.2624196E-07 0.12523898 0.21496554
v 0.10846018 0.062619545 0.21496554
v 0.10846018 -0.06261933 0.21496554
v 1.2624196E-07 -0.12523876 0.21496554
v -0.10845993 0.062619545 0.21496554
v -0.10845993 -0.06261933 0.21496554
v -0.10845993 -0.06261933 0.13429806
v -0.10845993 0.062619545 0.13429806
v -0.10845993 0.062619545 0.21496554
v -0.10845993 -0.06261933 0.21496554
v -0.10845993 0.062619545 0.13429806
v 1.2624196E-07 0.12523898 0.13429806
v 1.2624196E-07 0.12523898 0.21496554
v -0.10845993 0.062619545 0.21496554
v 1.2624196E-07 -0.12523876 0.13429806
v 0.10846018 -0.06261933 0.13429806
v 0.10846018 0.062619545 0.13429806
v 1.2624196E-07 0.12523898 0.13429806
v -0.10845993 -0.06261933 0.13429806
v -0.10845993 0.062619545 0.13429806
v 1.2624196E-07 0.12523898 0.3180223
v 0.10846018 0.062619545 0.3180223
v 0.10846018 0.062619545 0.39868984
v 1.2624196E-07 0.12523898 0.39868984
v 0.10846018 0.062619545 0.3180223
v 0.10846018 -0.06261933 0.3180223
v 0.10846018 -0.06261933 0.39868984
v 0.10846018 0.062619545 0.39868984
v 0.10846018 -0.06261933 0.3180223
v 1.2624196E-07 -0.12523876 0.3180223
v 1.2624196E-07 -0.12523876 0.39868984
v 0.10846018 -0.06261933 0.39868984
v 1.2624196E-07 -0.12523876 0.3180223
v -0.10845993 -0.06261933 0.3180223
v -0.10845993 -0.06261933 0.39868984
v 1.2624196E-07 -0.12523876 0.39868984
v 1.2624196E-07 0.12523898 0.39868984
v 0.10846018 0.062619545 0.39868984
v 0.10846018 -0.06261933 0.39868984
v 1.2624196E-07 -0.12523876 0.39868984
v -0.10845993 0.062619545 0.39868984
v -0.10845993 -0.06261933 0.39868984
v -0.10845993 -0.06261933 0.3180223
v -0.10845993 0.062619545 0.3180223
v -0.10845993 0.062619545 0.39868984
v -0.10845993 -0.06261933 0.39868984
v -0.10845993 0.062619545 0.3180223
v 1.2624196E-07 0.12523898 0.3180223
v 1.2624196E-07 0.12523898 0.39868984
v -0.10845993 0.062619545 0.39868984
v 1.2624196E-07 -0.12523876 0.3180223
v 0.10846018 -0.06261933 0.3180223
v 0.10846018 0.062619545 0.3180223
v 1.2624196E-07 0.12523898 0.3180223
v -0.10845993 -0.06261933 0.3180223
v -0.10845993 0.062619545 0.3180223
v 1.2624196E-07 0.12523898 0.503844
v 0.10846018 0.062619545 0.503844
v 0.10846018 0.062619545 0.5845116
v 1.2624196E-07 0.12523898 0.5845116
v 0.10846018 0.062619545 0.503844
v 0.10846018 -0.06261933 0.503844
v 0.10846018 -0.06261933 0.5845116
v 0.10846018 0.062619545 0.5845116
v 0.10846018 -0.06261933 0.503844
v 1.2624196E-07 -0.12523876 0.503844
v 1.2624196E-07 -0.12523876 0.5845116
v 0.10846018 -0.06261933 0.5845116
v 1.2624196E-07 -0.12523876 0.503844
v -0.10845993 -0.06261933 0.503844
v -0.10845993 -0.06261933 0.5845116
v 1.2624196E-07 -0.12523876 0.5845116
v 1.2624196E-07 0.12523898 0.5845116
v 0.10846018 0.062619545 0.5845116
v 0.10846018 -0.06261933 0.5845116
v 1.2624196E-07 -0.12523876 0.5845116
v -0.10845993 0.062619545 0.5845116
v -0.10845993 -0.06261933 0.5845116
v -0.10845993 -0.06261933 0.503844
v -0.10845993 0.062619545 0.503844
v -0.10845993 0.062619545 0.5845116
v -0.10845993 -0.06261933 0.5845116
v -0.10845993 0.062619545 0.503844
v 1.2624196E-07 0.12523898 0.503844
v 1.2624196E-07 0.12523898 0.5845116
v -0.10845993 0.062619545 0.5845116
v 1.2624196E-07 -0.12523876 0.503844
v 0.10846018 -0.06261933 0.503844
v 0.10846018 0.062619545 0.503844
v 1.2624196E-07 0.12523898 0.503844
v -0.10845993 -0.06261933 0.503844
v -0.10845993 0.062619545 0.503844
v 0.084392905 0.04872404 0.8619665
v 0.020386107 0.011769561 1.7388438
v 1.7991471E-07 0.023539381 1.7388438
v 8.7359496E-08 0.09744826 0.8619665
v 8.7359496E-08 0.09744826 0.8619665
v 1.7991471E-07 0.023539381 1.7388438
v -0.020385744 0.011769561 1.7388438
v -0.084392734 0.04872404 0.8619665
v -0.084392734 0.04872404 0.8619665
v -0.020385744 0.011769561 1.7388438
v -0.020385744 -0.011770079 1.7388438
v -0.084392734 -0.048724394 0.8619665
v 8.7359496E-08 -0.09744861 0.8619665
v 1.7991471E-07 -0.0235399 1.7388438
v 0.020386107 -0.011770079 1.7388438
v 0.084392905 -0.048724394 0.8619665
v 1.7991471E-07 0.023539381 1.7388438
v 0.020386107 0.011769561 1.7388438
v 0.020386107 -0.011770079 1.7388438
v 1.7991471E-07 -0.0235399 1.7388438
v -0.020385744 0.011769561 1.7388438
v -0.020385744 -0.011770079 1.7388438
v -0.084392734 0.04872404 -0.09486151
v 8.7359496E-08 0.09744826 0.8619665
v -0.084392734 0.04872404 0.8619665
v 8.7359496E-08 0.09744826 -0.09486139
v -0.05079245 0.029324736 -1.8762009
v -8.697832E-09 0.05864976 -1.8762009
v -0.084392734 -0.048724394 -0.09486151
v -0.084392734 0.04872404 0.8619665
v -0.084392734 -0.048724394 0.8619665
v -0.084392734 0.04872404 -0.09486151
v -0.05079245 -0.02932532 -1.8762009
v -0.05079245 0.029324736 -1.8762009
v 8.7359496E-08 -0.09744861 -0.09486151
v -0.084392734 -0.048724394 0.8619665
v 8.7359496E-08 -0.09744861 0.8619665
v -0.084392734 -0.048724394 -0.09486151
v -8.697832E-09 -0.058650337 -1.8762009
v -0.05079245 -0.02932532 -1.8762009
v 0.084392905 -0.048724394 -0.09486151
v 8.7359496E-08 -0.09744861 0.8619665
v 0.084392905 -0.048724394 0.8619665
v 8.7359496E-08 -0.09744861 -0.09486151
v 0.05079244 -0.02932532 -1.8762009
v -8.697832E-09 -0.058650337 -1.8762009
v 0.084392905 0.04872404 -0.09486151
v 0.084392905 -0.048724394 0.8619665
v 0.084392905 0.04872404 0.8619665
v 0.084392905 -0.048724394 -0.09486151
v 0.05079244 0.029324736 -1.8762009
v 0.05079244 -0.02932532 -1.8762009
v 8.7359496E-08 0.09744826 -0.09486139
v 0.084392905 0.04872404 0.8619665
v 8.7359496E-08 0.09744826 0.8619665
v 0.084392905 0.04872404 -0.09486151
v -8.697832E-09 0.05864976 -1.8762009
v 0.05079244 0.029324736 -1.8762009
v -1.1573492E-06 0.0024844839 0.73431873
v 0.072709255 0.0024844839 0.80983526
v 0.072709255 0.15351734 0.8503042
v -1.1573492E-06 0.19127557 0.7849049
v 0.072709255 0.0024844839 0.80983526
v -1.1746848E-06 0.0024844839 0.8853515
v -1.1573492E-06 0.11575912 0.91570336
v 0.072709255 0.15351734 0.8503042
v -1.1746848E-06 0.0024844839 0.8853515
v -0.07271156 0.0024844839 0.80983526
v -0.072711594 0.15351734 0.8503042
v -1.1573492E-06 0.11575912 0.91570336
v -0.07271156 0.0024844839 0.80983526
v -1.1573492E-06 0.0024844839 0.73431873
v -1.1573492E-06 0.19127557 0.7849049
v -0.072711594 0.15351734 0.8503042
v -1.1573492E-06 0.19127557 0.7849049
v 0.072709255 0.15351734 0.8503042
v 0.07270923 0.264081 0.9608683
v -1.1573492E-06 0.3294802 0.9231097
v 0.072709255 0.15351734 0.8503042
v -1.1573492E-06 0.11575912 0.91570336
v -1.1660168E-06 0.1986819 0.99862593
v 0.07270923 0.264081 0.9608683
v -1.1573492E-06 0.11575912 0.91570336
v -0.072711594 0.15351734 0.8503042
v -0.07271157 0.264081 0.9608683
v -1.1660168E-06 0.1986819 0.99862593
v -0.072711594 0.15351734 0.8503042
v -1.1573492E-06 0.19127557 0.7849049
v -1.1573492E-06 0.3294802 0.9231097
v -0.07271157 0.264081 0.9608683
v -1.1573492E-06 0.3294802 0.9231097
v 0.07270923 0.264081 0.9608683
v 0.072709255 0.30455014 1.1119008
v -1.1573492E-06 0.38006654 1.1119008
v 0.07270923 0.264081 0.9608683
v -1.1660168E-06 0.1986819 0.99862593
v -1.1573492E-06 0.22903377 1.1119008
v 0.072709255 0.30455014 1.1119008
v -1.1660168E-06 0.1986819 0.99862593
v -0.07271157 0.264081 0.9608683
v -0.07271156 0.30455014 1.1119008
v -1.1573492E-06 0.22903377 1.1119008
v -0.07271157 0.264081 0.9608683
v -1.1573492E-06 0.3294802 0.9231097
v -1.1573492E-06 0.38006654 1.1119008
v -0.07271156 0.30455014 1.1119008
v -1.1573492E-06 0.38006654 1.1119008
v 0.072709255 0.30455014 1.1119008
v 0.072709255 0.26408106 1.2629337
v -1.1573492E-06 0.3294802 1.3006917
v 0.072709255 0.30455014 1.1119008
v -1.1573492E-06 0.22903377 1.1119008
v -1.1486812E-06 0.19868194 1.2251753
v 0.072709255 0.26408106 1.2629337
v -1.1573492E-06 0.22903377 1.1119008
v -0.07271156 0.30455014 1.1119008
v -0.07271156 0.26408106 1.2629337
v -1.1486812E-06 0.19868194 1.2251753
v -0.07271156 0.30455014 1.1119008
v -1.1573492E-06 0.38006654 1.1119008
v -1.1573492E-06 0.3294802 1.3006917
v -0.07271156 0.26408106 1.2629337
v -1.1573492E-06 0.3294802 1.3006917
v 0.072709255 0.26408106 1.2629337
v 0.07270926 0.15351738 1.373497
v -1.1573492E-06 0.1912756 1.4388965
v 0.072709255 0.26408106 1.2629337
v -1.1486812E-06 0.19868194 1.2251753
v -1.1573492E-06 0.115759164 1.3080981
v 0.07270926 0.15351738 1.373497
v -1.1486812E-06 0.19868194 1.2251753
v -0.07271156 0.26408106 1.2629337
v -0.07271155 0.15351738 1.373497
v -1.1573492E-06 0.115759164 1.3080981
v -0.07271156 0.26408106 1.2629337
v -1.1573492E-06 0.3294802 1.3006917
v -1.1573492E-06 0.1912756 1.4388965
v -0.07271155 0.15351738 1.373497
v -1.1573492E-06 0.1912756 1.4388965
v 0.07270926 0.15351738 1.373497
v 0.072709255 0.002484511 1.4139665
v -1.1573492E-06 0.002484511 1.4894831
v 0.07270926 0.15351738 1.373497
v -1.1573492E-06 0.115759164 1.3080981
v -1.1400135E-06 0.0024844839 1.3384503
v 0.072709255 0.002484511 1.4139665
v -1.1573492E-06 0.115759164 1.3080981
v -0.07271155 0.15351738 1.373497
v -0.07271155 0.002484511 1.4139665
v -1.1400135E-06 0.0024844839 1.3384503
v -0.07271155 0.15351738 1.373497
v -1.1573492E-06 0.1912756 1.4388965
v -1.1573492E-06 0.002484511 1.4894831
v -0.07271155 0.002484511 1.4139665
v -1.1573492E-06 0.002484511 1.4894831
v 0.072709255 0.002484511 1.4139665
v 0.07270926 -0.1485483 1.3734974
v -1.1573492E-06 -0.18630652 1.4388965
v 0.072709255 0.002484511 1.4139665
v -1.1400135E-06 0.0024844839 1.3384503
v -1.1573492E-06 -0.11079013 1.3080981
v 0.07270926 -0.1485483 1.3734974
v -1.1400135E-06 0.0024844839 1.3384503
v -0.07271155 0.002484511 1.4139665
v -0.07271155 -0.1485483 1.3734974
v -1.1573492E-06 -0.11079013 1.3080981
v -0.07271155 0.002484511 1.4139665
v -1.1573492E-06 0.002484511 1.4894831
v -1.1573492E-06 -0.18630652 1.4388965
v -0.07271155 -0.1485483 1.3734974
v -1.1573492E-06 -0.18630652 1.4388965
v 0.07270926 -0.1485483 1.3734974
v 0.072709255 -0.2591121 1.2629337
v -1.1573492E-06 -0.3245113 1.3006917
v 0.07270926 -0.1485483 1.3734974
v -1.1573492E-06 -0.11079013 1.3080981
v -1.1486812E-06 -0.19371298 1.2251753
v 0.072709255 -0.2591121 1.2629337
v -1.1573492E-06 -0.11079013 1.3080981
v -0.07271155 -0.1485483 1.3734974
v -0.07271156 -0.2591121 1.2629337
v -1.1486812E-06 -0.19371298 1.2251753
v -0.07271155 -0.1485483 1.3734974
v -1.1573492E-06 -0.18630652 1.4388965
v -1.1573492E-06 -0.3245113 1.3006917
v -0.07271156 -0.2591121 1.2629337
v -1.1573492E-06 -0.3245113 1.3006917
v 0.072709255 -0.2591121 1.2629337
v 0.072709255 -0.29958123 1.1119008
v -1.1573492E-06 -0.37509766 1.1119008
v 0.072709255 -0.2591121 1.2629337
v -1.1486812E-06 -0.19371298 1.2251753
v -1.1573492E-06 -0.22406483 1.1119008
v 0.072709255 -0.29958123 1.1119008
v -1.1486812E-06 -0.19371298 1.2251753
v -0.07271156 -0.2591121 1.2629337
v -0.07271156 -0.29958123 1.1119008
v -1.1573492E-06 -0.22406483 1.1119008
v -0.07271156 -0.2591121 1.2629337
v -1.1573492E-06 -0.3245113 1.3006917
v -1.1573492E-06 -0.37509766 1.1119008
v -0.07271156 -0.29958123 1.1119008
v -1.1573492E-06 -0.37509766 1.1119008
v 0.072709255 -0.29958123 1.1119008
v 0.07270923 -0.2591121 0.9608683
v -1.1573492E-06 -0.32451117 0.9231097
v 0.072709255 -0.29958123 1.1119008
v -1.1573492E-06 -0.22406483 1.1119008
v -1.1660168E-06 -0.19371298 0.99862593
v 0.07270923 -0.2591121 0.9608683
v -1.1573492E-06 -0.22406483 1.1119008
v -0.07271156 -0.29958123 1.1119008
v -0.07271157 -0.2591121 0.9608683
v -1.1660168E-06 -0.19371298 0.99862593
v -0.07271156 -0.29958123 1.1119008
v -1.1573492E-06 -0.37509766 1.1119008
v -1.1573492E-06 -0.32451117 0.9231097
v -0.07271157 -0.2591121 0.9608683
v -1.1573492E-06 -0.32451117 0.9231097
v 0.07270923 -0.2591121 0.9608683
v 0.072709255 -0.14854842 0.8503042
v -1.1573492E-06 -0.18630663 0.7849049
v 0.07270923 -0.2591121 0.9608683
v -1.1660168E-06 -0.19371298 0.99862593
v -1.1573492E-06 -0.110790215 0.91570336
v 0.072709255 -0.14854842 0.8503042
v -1.1660168E-06 -0.19371298 0.99862593
v -0.07271157 -0.2591121 0.9608683
v -0.072711594 -0.14854842 0.8503042
v -1.1573492E-06 -0.110790215 0.91570336
v -0.07271157 -0.2591121 0.9608683
v -1.1573492E-06 -0.32451117 0.9231097
v -1.1573492E-06 -0.18630663 0.7849049
v -0.072711594 -0.14854842 0.8503042
v -1.1573492E-06 -0.18630663 0.7849049
v 0.072709255 -0.14854842 0.8503042
v 0.072709255 0.0024844839 0.80983526
v -1.1573492E-06 0.0024844839 0.73431873
v 0.072709255 -0.14854842 0.8503042
v -1.1573492E-06 -0.110790215 0.91570336
v -1.1746848E-06 0.0024844839 0.8853515
v 0.072709255 0.0024844839 0.80983526
v -1.1573492E-06 -0.110790215 0.91570336
v -0.072711594 -0.14854842 0.8503042
v -0.07271156 0.0024844839 0.80983526
v -1.1746848E-06 0.0024844839 0.8853515
v -0.072711594 -0.14854842 0.8503042
v -1.1573492E-06 -0.18630663 0.7849049
v -1.1573492E-06 0.0024844839 0.73431873
v -0.07271156 0.0024844839 0.80983526
vt 0.33333325 0.9321797
vt 0.33333325 0.9796207
vt 0.49999994 0.9796207
vt 0.49999994 0.9321797
vt 0.6666666 0.9321797
vt 0.6666666 0.9796207
vt 0.83333325 0.9796207
vt 0.83333325 0.9321797
vt 0.7499999 -0.055836916
vt 1.0148623 0.0970814
vt 1.0148623 0.4029182
vt 0.7499999 0.55583656
vt 0.48513746 0.09708141
vt 0.48513746 0.4029181
vt 1 0.5
vt 0.8333333 0.5
vt 0.8333333 1
vt 1 1
vt 0.8333333 0.5
vt 0.6666666 0.5
vt 0.6666666 1
vt 0.8333333 1
vt 0.6666666 0.5
vt 0.49999994 0.5
vt 0.49999994 1
vt 0.6666666 1
vt 0.49999994 0.5
vt 0.33333325 0.5
vt 0.33333325 1
vt 0.49999994 1
vt 0.25 0.49
vt 0.4578461 0.37
vt 0.4578461 0.13
vt 0.25 0.010000005
vt 0.04215391 0.37
vt 0.04215391 0.13
vt 0.33333325 0.5
vt 0.16666658 0.5
vt 0.16666658 1
vt 0.33333325 1
vt 0.16666658 0.5
vt -8.940697E-08 0.5
vt -8.940697E-08 1
vt 0.16666658 1
vt 0.75 0.010000005
vt 0.9578461 0.13
vt 0.9578461 0.37
vt 0.75 0.49
vt 0.5421539 0.13
vt 0.5421539 0.37
vt 1 0.5
vt 0.8333333 0.5
vt 0.8333333 1
vt 1 1
vt 0.8333333 0.5
vt 0.6666666 0.5
vt 0.6666666 1
vt 0.8333333 1
vt 0.6666666 0.5
vt 0.49999994 0.5
vt 0.49999994 1
vt 0.6666666 1
vt 0.49999994 0.5
vt 0.33333325 0.5
vt 0.33333325 1
vt 0.49999994 1
vt 0.25 0.49
vt 0.4578461 0.37
vt 0.4578461 0.13
vt 0.25 0.010000005
vt 0.04215391 0.37
vt 0.04215391 0.13
vt 0.33333325 0.5
vt 0.16666658 0.5
vt 0.16666658 1
vt 0.33333325 1
vt 0.16666658 0.5
vt -8.940697E-08 0.5
vt -8.940697E-08 1
vt 0.16666658 1
vt 0.75 0.010000005
vt 0.9578461 0.13
vt 0.9578461 0.37
vt 0.75 0.49
vt 0.5421539 0.13
vt 0.5421539 0.37
vt 1 0.5
vt 0.8333333 0.5
vt 0.8333333 1
vt 1 1
vt 0.8333333 0.5
vt 0.6666666 0.5
vt 0.6666666 1
vt 0.8333333 1
vt 0.6666666 0.5
vt 0.49999994 0.5
vt 0.49999994 1
vt 0.6666666 1
vt 0.49999994 0.5
vt 0.33333325 0.5
vt 0.33333325 1
vt 0.49999994 1
vt 0.25 0.49
vt 0.4578461 0.37
vt 0.4578461 0.13
vt 0.25 0.010000005
vt 0.04215391 0.37
vt 0.04215391 0.13
vt 0.33333325 0.5
vt 0.16666658 0.5
vt 0.16666658 1
vt 0.33333325 1
vt 0.16666658 0.5
vt -8.940697E-08 0.5
vt -8.940697E-08 1
vt 0.16666658 1
vt 0.75 0.010000005
vt 0.9578461 0.13
vt 0.9578461 0.37
vt 0.75 0.49
vt 0.5421539 0.13
vt 0.5421539 0.37
vt 1 0.5
vt 0.8333333 0.5
vt 0.8333333 1
vt 1 1
vt 0.8333333 0.5
vt 0.6666666 0.5
vt 0.6666666 1
vt 0.8333333 1
vt 0.6666666 0.5
vt 0.49999994 0.5
vt 0.49999994 1
vt 0.6666666 1
vt 0.49999994 0.5
vt 0.33333325 0.5
vt 0.33333325 1
vt 0.49999994 1
vt 0.25 0.49
vt 0.4578461 0.37
vt 0.4578461 0.13
vt 0.25 0.010000005
vt 0.04215391 0.37
vt 0.04215391 0.13
vt 0.33333325 0.5
vt 0.16666658 0.5
vt 0.16666658 1
vt 0.33333325 1
vt 0.16666658 0.5
vt -8.940697E-08 0.5
vt -8.940697E-08 1
vt 0.16666658 1
vt 0.75 0.010000005
vt 0.9578461 0.13
vt 0.9578461 0.37
vt 0.75 0.49
vt 0.5421539 0.13
vt 0.5421539 0.37
vt 0.83333325 0.9321797
vt 0.83333325 0.9796207
vt 1 0.97962075
vt 1 0.93217975
vt -8.940697E-08 0.9321797
vt -8.940697E-08 0.9796207
vt 0.16666658 0.9796207
vt 0.16666657 0.9321797
vt 0.16666657 0.9321797
vt 0.16666658 0.9796207
vt 0.33333325 0.9796207
vt 0.33333325 0.9321797
vt 0.49999994 0.9321797
vt 0.49999994 0.9796207
vt 0.6666666 0.9796207
vt 0.6666666 0.9321797
vt 1 0.97962075
vt 0.83333325 0.9796207
vt 0.6666666 0.9796207
vt 0.49999994 0.9796207
vt 0.16666658 0.9796207
vt 0.33333325 0.9796207
vt 0.16666657 0.5474787
vt -8.940697E-08 0.9321797
vt 0.16666657 0.9321797
vt -8.940697E-08 0.54747874
vt 0.16666661 0.49390274
vt 0.022367606 0.49390244
vt 0.33333325 0.5474787
vt 0.16666657 0.9321797
vt 0.33333325 0.9321797
vt 0.16666657 0.5474787
vt 0.33333334 0.49390298
vt 0.16666661 0.49390274
vt 0.49999994 0.5474787
vt 0.33333325 0.9321797
vt 0.49999994 0.9321797
vt 0.33333325 0.5474787
vt 0.49999985 0.49390262
vt 0.33333334 0.49390298
vt 0.6666666 0.5474787
vt 0.49999994 0.9321797
vt 0.6666666 0.9321797
vt 0.49999994 0.5474787
vt 0.6666664 0.49390283
vt 0.49999985 0.49390262
vt 0.8333333 0.5474787
vt 0.6666666 0.9321797
vt 0.83333325 0.9321797
vt 0.6666666 0.5474787
vt 0.83333325 0.49390262
vt 0.6666664 0.49390283
vt 1 0.54747874
vt 0.83333325 0.9321797
vt 1 0.93217975
vt 0.8333333 0.5474787
vt 0.9776324 0.49390268
vt 0.83333325 0.49390262
vt 0.5 0.5
vt 0.5 0.75
vt 0.5833333 0.75
vt 0.5833333 0.5
vt 0.5 0.75
vt 0.5 1
vt 0.5833333 1
vt 0.5833333 0.75
vt 0.5 0
vt 0.5 0.25
vt 0.5833333 0.25
vt 0.5833333 0
vt 0.5 0.25
vt 0.5 0.5
vt 0.5833333 0.5
vt 0.5833333 0.25
vt 0.5833333 0.5
vt 0.5833333 0.75
vt 0.6666667 0.75
vt 0.6666667 0.5
vt 0.5833333 0.75
vt 0.5833333 1
vt 0.6666667 1
vt 0.6666667 0.75
vt 0.5833333 0
vt 0.5833333 0.25
vt 0.6666667 0.25
vt 0.6666667 0
vt 0.5833333 0.25
vt 0.5833333 0.5
vt 0.6666667 0.5
vt 0.6666667 0.25
vt 0.6666667 0.5
vt 0.6666667 0.75
vt 0.75 0.75
vt 0.75 0.5
vt 0.6666667 0.75
vt 0.6666667 1
vt 0.75 1
vt 0.75 0.75
vt 0.6666667 0
vt 0.6666667 0.25
vt 0.75 0.25
vt 0.75 0
vt 0.6666667 0.25
vt 0.6666667 0.5
vt 0.75 0.5
vt 0.75 0.25
vt 0.75 0.5
vt 0.75 0.75
vt 0.8333333 0.75
vt 0.8333333 0.5
vt 0.75 0.75
vt 0.75 1
vt 0.8333333 1
vt 0.8333333 0.75
vt 0.75 0
vt 0.75 0.25
vt 0.8333333 0.25
vt 0.8333333 0
vt 0.75 0.25
vt 0.75 0.5
vt 0.8333333 0.5
vt 0.8333333 0.25
vt 0.8333333 0.5
vt 0.8333333 0.75
vt 0.9166667 0.75
vt 0.9166667 0.5
vt 0.8333333 0.75
vt 0.8333333 1
vt 0.9166667 1
vt 0.9166667 0.75
vt 0.8333333 0
vt 0.8333333 0.25
vt 0.9166667 0.25
vt 0.9166667 0
vt 0.8333333 0.25
vt 0.8333333 0.5
vt 0.9166667 0.5
vt 0.9166667 0.25
vt 0.9166667 0.5
vt 0.9166667 0.75
vt 1 0.75
vt 1 0.5
vt 0.9166667 0.75
vt 0.9166667 1
vt 1 1
vt 1 0.75
vt 0.9166667 0
vt 0.9166667 0.25
vt 1 0.25
vt 1 0
vt 0.9166667 0.25
vt 0.9166667 0.5
vt 1 0.5
vt 1 0.25
vt 2.220446E-16 0.5
vt 2.220446E-16 0.75
vt 0.083333336 0.75
vt 0.083333336 0.5
vt 2.220446E-16 0.75
vt 2.220446E-16 1
vt 0.083333336 1
vt 0.083333336 0.75
vt 2.220446E-16 0
vt 2.220446E-16 0.25
vt 0.083333336 0.25
vt 0.083333336 0
vt 2.220446E-16 0.25
vt 2.220446E-16 0.5
vt 0.083333336 0.5
vt 0.083333336 0.25
vt 0.083333336 0.5
vt 0.083333336 0.75
vt 0.16666667 0.75
vt 0.16666667 0.5
vt 0.083333336 0.75
vt 0.083333336 1
vt 0.16666667 1
vt 0.16666667 0.75
vt 0.083333336 0
vt 0.083333336 0.25
vt 0.16666667 0.25
vt 0.16666667 0
vt 0.083333336 0.25
vt 0.083333336 0.5
vt 0.16666667 0.5
vt 0.16666667 0.25
vt 0.16666667 0.5
vt 0.16666667 0.75
vt 0.25 0.75
vt 0.25 0.5
vt 0.16666667 0.75
vt 0.16666667 1
vt 0.25 1
vt 0.25 0.75
vt 0.16666667 0
vt 0.16666667 0.25
vt 0.25 0.25
vt 0.25 0
vt 0.16666667 0.25
vt 0.16666667 0.5
vt 0.25 0.5
vt 0.25 0.25
vt 0.25 0.5
vt 0.25 0.75
vt 0.33333334 0.75
vt 0.33333334 0.5
vt 0.25 0.75
vt 0.25 1
vt 0.33333334 1
vt 0.33333334 0.75
vt 0.25 0
vt 0.25 0.25
vt 0.33333334 0.25
vt 0.33333334 0
vt 0.25 0.25
vt 0.25 0.5
vt 0.33333334 0.5
vt 0.33333334 0.25
vt 0.33333334 0.5
vt 0.33333334 0.75
vt 0.41666666 0.75
vt 0.41666666 0.5
vt 0.33333334 0.75
vt 0.33333334 1
vt 0.41666666 1
vt 0.41666666 0.75
vt 0.33333334 0
vt 0.33333334 0.25
vt 0.41666666 0.25
vt 0.41666666 0
vt 0.33333334 0.25
vt 0.33333334 0.5
vt 0.41666666 0.5
vt 0.41666666 0.25
vt 0.41666666 0.5
vt 0.41666666 0.75
vt 0.5 0.75
vt 0.5 0.5
vt 0.41666666 0.75
vt 0.41666666 1
vt 0.5 1
vt 0.5 0.75
vt 0.41666666 0
vt 0.41666666 0.25
vt 0.5 0.25
vt 0.5 0
vt 0.41666666 0.25
vt 0.41666666 0.5
vt 0.5 0.5
vt 0.5 0.25
vn -0.49867347 -0.86372733 0.072800405
vn -0.49867347 -0.86372733 0.072800405
vn -0.49867347 -0.86372733 0.072800405
vn -0.49867347 -0.86372733 0.072800405
vn 0.9973465 0 0.072800346
vn 0.9973465 0 0.072800346
vn 0.9973465 0 0.072800346
vn 0.9973465 0 0.072800346
vn -0 0 -1
vn -0 0 -1
vn -0 0 -1
vn -0 0 -1
vn -0 0 -1
vn -0 0 -1
vn 0.5 0.86602545 0
vn 0.5 0.86602545 0
vn 0.5 0.86602545 0
vn 0.5 0.86602545 0
vn 1 0 0
vn 1 0 0
vn 1 0 0
vn 1 0 0
vn 0.49999997 -0.86602545 0
vn 0.49999997 -0.86602545 0
vn 0.49999997 -0.86602545 0
vn 0.49999997 -0.86602545 0
vn -0.49999997 -0.86602545 0
vn -0.49999997 -0.86602545 0
vn -0.49999997 -0.86602545 0
vn -0.49999997 -0.86602545 0
vn -0 0 1
vn -0 0 1
vn -0 0 1
vn -0 0 1
vn -0 0 1
vn -0 0 1
vn -1 0 0
vn -1 0 0
vn -1 0 0
vn -1 0 0
vn -0.5 0.86602545 0
vn -0.5 0.86602545 0
vn -0.5 0.86602545 0
vn -0.5 0.86602545 0
vn -0 0 -1
vn -0 0 -1
vn -0 0 -1
vn -0 0 -1
vn -0 0 -1
vn -0 0 -1
vn 0.50000006 0.8660253 0
vn 0.50000006 0.8660253 0
vn 0.50000006 0.8660253 0
vn 0.50000006 0.8660253 0
vn 1 0 0
vn 1 0 0
vn 1 0 0
vn 1 0 0
vn 0.5 -0.86602545 0
vn 0.5 -0.86602545 0
vn 0.5 -0.86602545 0
vn 0.5 -0.86602545 0
vn -0.5 -0.86602545 0
vn -0.5 -0.86602545 0
vn -0.5 -0.86602545 0
vn -0.5 -0.86602545 0
vn -0 0 1
vn -0 0 1
vn -0 0 1
vn -0 0 1
vn -0 0 1
vn -0 0 1
vn -1 0 0
vn -1 0 0
vn -1 0 0
vn -1 0 0
vn -0.50000006 0.8660253 0
vn -0.50000006 0.8660253 0
vn -0.50000006 0.8660253 0
vn -0.50000006 0.8660253 0
vn -0 0 -1
vn -0 0 -1
vn -0 0 -1
vn -0 0 -1
vn -0 0 -1
vn -0 0 -1
vn 0.50000006 0.8660253 0
vn 0.50000006 0.8660253 0
vn 0.50000006 0.8660253 0
vn 0.50000006 0.8660253 0
vn 1 0 0
vn 1 0 0
vn 1 0 0
vn 1 0 0
vn 0.4999999 -0.86602545 0
vn 0.4999999 -0.86602545 0
vn 0.4999999 -0.86602545 0
vn 0.4999999 -0.86602545 0
vn -0.4999999 -0.86602545 0
vn -0.4999999 -0.86602545 0
vn -0.4999999 -0.86602545 0
vn -0.4999999 -0.86602545 0
vn -0 0 1
vn -0 0 1
vn -0 0 1
vn -0 0 1
vn -0 0 1
vn -0 0 1
vn -1 0 0
vn -1 0 0
vn -1 0 0
vn -1 0 0
vn -0.50000006 0.8660253 0
vn -0.50000006 0.8660253 0
vn -0.50000006 0.8660253 0
vn -0.50000006 0.8660253 0
vn -0 0 -1
vn -0 0 -1
vn -0 0 -1
vn -0 0 -1
vn -0 0 -1
vn -0 0 -1
vn 0.5000002 0.8660253 0
vn 0.5000002 0.8660253 0
vn 0.5000002 0.8660253 0
vn 0.5000002 0.8660253 0
vn 1 0 0
vn 1 0 0
vn 1 0 0
vn 1 0 0
vn 0.4999999 -0.8660255 0
vn 0.4999999 -0.8660255 0
vn 0.4999999 -0.8660255 0
vn 0.4999999 -0.8660255 0
vn -0.4999999 -0.8660255 0
vn -0.4999999 -0.8660255 0
vn -0.4999999 -0.8660255 0
vn -0.4999999 -0.8660255 0
vn -0 0 1
vn -0 0 1
vn -0 0 1
vn -0 0 1
vn -0 0 1
vn -0 0 1
vn -1 0 0
vn -1 0 0
vn -1 0 0
vn -1 0 0
vn -0.5000002 0.8660253 0
vn -0.5000002 0.8660253 0
vn -0.5000002 0.8660253 0
vn -0.5000002 0.8660253 0
vn -0 0 -1
vn -0 0 -1
vn -0 0 -1
vn -0 0 -1
vn -0 0 -1
vn -0 0 -1
vn 0.4986734 0.86372745 0.072800465
vn 0.4986734 0.86372745 0.072800465
vn 0.4986734 0.86372745 0.072800465
vn 0.4986734 0.86372745 0.072800465
vn -0.49867335 0.86372733 0.07280056
vn -0.49867335 0.86372733 0.07280056
vn -0.49867335 0.86372733 0.07280056
vn -0.49867335 0.86372733 0.07280056
vn -0.9973465 0 0.07280057
vn -0.9973465 0 0.07280057
vn -0.9973465 0 0.07280057
vn -0.9973465 0 0.07280057
vn 0.4986734 -0.86372745 0.0728003
vn 0.4986734 -0.86372745 0.0728003
vn 0.4986734 -0.86372745 0.0728003
vn 0.4986734 -0.86372745 0.0728003
vn -0 0 1
vn -0 0 1
vn -0 0 1
vn -0 0 1
vn -0 0 1
vn -0 0 1
vn -0.5 0.86602545 0
vn -0.5 0.86602545 0
vn -0.5 0.86602545 0
vn -0.5 0.86602545 0
vn -0.499911 0.86587137 -0.018859098
vn -0.499911 0.86587137 -0.018859098
vn -1 0 0
vn -1 0 0
vn -1 0 0
vn -1 0 0
vn -0.9998222 0 -0.01885902
vn -0.9998222 0 -0.01885902
vn -0.49999997 -0.86602545 0
vn -0.49999997 -0.86602545 0
vn -0.49999997 -0.86602545 0
vn -0.49999997 -0.86602545 0
vn -0.49991107 -0.86587137 -0.01885899
vn -0.49991107 -0.86587137 -0.01885899
vn 0.49999997 -0.86602545 0
vn 0.49999997 -0.86602545 0
vn 0.49999997 -0.86602545 0
vn 0.49999997 -0.86602545 0
vn 0.49991095 -0.86587137 -0.018859038
vn 0.49991095 -0.86587137 -0.018859038
vn 1 0 0
vn 1 0 0
vn 1 0 0
vn 1 0 0
vn 0.9998222 0 -0.01885912
vn 0.9998222 0 -0.01885912
vn 0.5 0.86602545 0
vn 0.5 0.86602545 0
vn 0.5 0.86602545 0
vn 0.5 0.86602545 0
vn 0.49991095 0.86587137 -0.018859148
vn 0.49991095 0.86587137 -0.018859148
vn 0.70823663 0.18271898 -0.6819199
vn 0.70823663 0.18271898 -0.6819199
vn 0.70823663 0.18271898 -0.6819199
vn 0.70823663 0.18271898 -0.6819199
vn 0.7082361 -0.18271965 0.6819203
vn 0.7082361 -0.18271965 0.6819203
vn 0.7082361 -0.18271965 0.6819203
vn 0.7082361 -0.18271965 0.6819203
vn -0.70823616 -0.18271957 0.6819203
vn -0.70823616 -0.18271957 0.6819203
vn -0.70823616 -0.18271957 0.6819203
vn -0.70823616 -0.18271957 0.6819203
vn -0.7082366 0.1827189 -0.68191993
vn -0.7082366 0.1827189 -0.68191993
vn -0.7082366 0.1827189 -0.68191993
vn -0.7082366 0.1827189 -0.68191993
vn 0.7082371 0.4992002 -0.49919873
vn 0.7082371 0.4992002 -0.49919873
vn 0.7082371 0.4992002 -0.49919873
vn 0.7082371 0.4992002 -0.49919873
vn 0.70823514 -0.49920112 0.4992007
vn 0.70823514 -0.49920112 0.4992007
vn 0.70823514 -0.49920112 0.4992007
vn 0.70823514 -0.49920112 0.4992007
vn -0.7082353 -0.49920106 0.49920034
vn -0.7082353 -0.49920106 0.49920034
vn -0.7082353 -0.49920106 0.49920034
vn -0.7082353 -0.49920106 0.49920034
vn -0.7082372 0.49920014 -0.4991988
vn -0.7082372 0.49920014 -0.4991988
vn -0.7082372 0.49920014 -0.4991988
vn -0.7082372 0.49920014 -0.4991988
vn 0.7082368 0.68191946 -0.18271993
vn 0.7082368 0.68191946 -0.18271993
vn 0.7082368 0.68191946 -0.18271993
vn 0.7082368 0.68191946 -0.18271993
vn 0.7082355 -0.68192077 0.18272011
vn 0.7082355 -0.68192077 0.18272011
vn 0.7082355 -0.68192077 0.18272011
vn 0.7082355 -0.68192077 0.18272011
vn -0.7082356 -0.6819205 0.18272036
vn -0.7082356 -0.6819205 0.18272036
vn -0.7082356 -0.6819205 0.18272036
vn -0.7082356 -0.6819205 0.18272036
vn -0.7082366 0.68191963 -0.18271992
vn -0.7082366 0.68191963 -0.18271992
vn -0.7082366 0.68191963 -0.18271992
vn -0.7082366 0.68191963 -0.18271992
vn 0.70823604 0.6819203 0.18271972
vn 0.70823604 0.6819203 0.18271972
vn 0.70823604 0.6819203 0.18271972
vn 0.70823604 0.6819203 0.18271972
vn 0.7082365 -0.6819199 -0.18271963
vn 0.7082365 -0.6819199 -0.18271963
vn 0.7082365 -0.6819199 -0.18271963
vn 0.7082365 -0.6819199 -0.18271963
vn -0.7082366 -0.6819197 -0.18271959
vn -0.7082366 -0.6819197 -0.18271959
vn -0.7082366 -0.6819197 -0.18271959
vn -0.7082366 -0.6819197 -0.18271959
vn -0.7082362 0.6819201 0.18271972
vn -0.7082362 0.6819201 0.18271972
vn -0.7082362 0.6819201 0.18271972
vn -0.7082362 0.6819201 0.18271972
vn 0.70823675 0.49919954 0.49919996
vn 0.70823675 0.49919954 0.49919996
vn 0.70823675 0.49919954 0.49919996
vn 0.70823675 0.49919954 0.49919996
vn 0.70823616 -0.4991997 -0.49920064
vn 0.70823616 -0.4991997 -0.49920064
vn 0.70823616 -0.4991997 -0.49920064
vn 0.70823616 -0.4991997 -0.49920064
vn -0.7082365 -0.49919948 -0.4992004
vn -0.7082365 -0.49919948 -0.4992004
vn -0.7082365 -0.49919948 -0.4992004
vn -0.7082365 -0.49919948 -0.4992004
vn -0.7082369 0.49919942 0.49919996
vn -0.7082369 0.49919942 0.49919996
vn -0.7082369 0.49919942 0.49919996
vn -0.7082369 0.49919942 0.49919996
vn 0.7082364 0.18272093 0.68191963
vn 0.7082364 0.18272093 0.68191963
vn 0.7082364 0.18272093 0.68191963
vn 0.7082364 0.18272093 0.68191963
vn 0.7082357 -0.18272188 -0.68192005
vn 0.7082357 -0.18272188 -0.68192005
vn 0.7082357 -0.18272188 -0.68192005
vn 0.7082357 -0.18272188 -0.68192005
vn -0.7082357 -0.18272193 -0.68192005
vn -0.7082357 -0.18272193 -0.68192005
vn -0.7082357 -0.18272193 -0.68192005
vn -0.7082357 -0.18272193 -0.68192005
vn -0.70823646 0.18272093 0.6819195
vn -0.70823646 0.18272093 0.6819195
vn -0.70823646 0.18272093 0.6819195
vn -0.70823646 0.18272093 0.6819195
vn 0.70823616 -0.18272036 0.68192005
vn 0.70823616 -0.18272036 0.68192005
vn 0.70823616 -0.18272036 0.68192005
vn 0.70823616 -0.18272036 0.68192005
vn 0.70823705 0.18272077 -0.681919
vn 0.70823705 0.18272077 -0.681919
vn 0.70823705 0.18272077 -0.681919
vn 0.70823705 0.18272077 -0.681919
vn -0.70823705 0.1827208 -0.6819189
vn -0.70823705 0.1827208 -0.6819189
vn -0.70823705 0.1827208 -0.6819189
vn -0.70823705 0.1827208 -0.6819189
vn -0.7082366 -0.18272021 0.6819195
vn -0.7082366 -0.18272021 0.6819195
vn -0.7082366 -0.18272021 0.6819195
vn -0.7082366 -0.18272021 0.6819195
vn 0.70823634 -0.4992 0.4992001
vn 0.70823634 -0.4992 0.4992001
vn 0.70823634 -0.4992 0.4992001
vn 0.70823634 -0.4992 0.4992001
vn 0.70823675 0.49919954 -0.49919996
vn 0.70823675 0.49919954 -0.49919996
vn 0.70823675 0.49919954 -0.49919996
vn 0.70823675 0.49919954 -0.49919996
vn -0.70823705 0.49919924 -0.49919975
vn -0.70823705 0.49919924 -0.49919975
vn -0.70823705 0.49919924 -0.49919975
vn -0.70823705 0.49919924 -0.49919975
vn -0.70823646 -0.4991998 0.4992001
vn -0.70823646 -0.4991998 0.4992001
vn -0.70823646 -0.4991998 0.4992001
vn -0.70823646 -0.4991998 0.4992001
vn 0.708236 -0.68192023 0.18271992
vn 0.708236 -0.68192023 0.18271992
vn 0.708236 -0.68192023 0.18271992
vn 0.708236 -0.68192023 0.18271992
vn 0.70823646 0.6819198 -0.18272002
vn 0.70823646 0.6819198 -0.18272002
vn 0.70823646 0.6819198 -0.18272002
vn 0.70823646 0.6819198 -0.18272002
vn -0.7082367 0.6819195 -0.18271993
vn -0.7082367 0.6819195 -0.18271993
vn -0.7082367 0.6819195 -0.18271993
vn -0.7082367 0.6819195 -0.18271993
vn -0.7082361 -0.68192023 0.18271995
vn -0.7082361 -0.68192023 0.18271995
vn -0.7082361 -0.68192023 0.18271995
vn -0.7082361 -0.68192023 0.18271995
vn 0.7082366 -0.68191963 -0.1827202
vn 0.7082366 -0.68191963 -0.1827202
vn 0.7082366 -0.68191963 -0.1827202
vn 0.7082366 -0.68191963 -0.1827202
vn 0.7082356 0.6819206 0.18272008
vn 0.7082356 0.6819206 0.18272008
vn 0.7082356 0.6819206 0.18272008
vn 0.7082356 0.6819206 0.18272008
vn -0.70823574 0.6819204 0.18272033
vn -0.70823574 0.6819204 0.18272033
vn -0.70823574 0.6819204 0.18272033
vn -0.70823574 0.6819204 0.18272033
vn -0.70823646 -0.68191975 -0.18272014
vn -0.70823646 -0.68191975 -0.18272014
vn -0.70823646 -0.68191975 -0.18272014
vn -0.70823646 -0.68191975 -0.18272014
vn 0.7082372 -0.49920022 -0.49919873
vn 0.7082372 -0.49920022 -0.49919873
vn 0.7082372 -0.49920022 -0.49919873
vn 0.7082372 -0.49920022 -0.49919873
vn 0.70823544 0.4992009 0.4992004
vn 0.70823544 0.4992009 0.4992004
vn 0.70823544 0.4992009 0.4992004
vn 0.70823544 0.4992009 0.4992004
vn -0.7082354 0.49920112 0.4992003
vn -0.7082354 0.49920112 0.4992003
vn -0.7082354 0.49920112 0.4992003
vn -0.7082354 0.49920112 0.4992003
vn -0.70823705 -0.49920025 -0.49919882
vn -0.70823705 -0.49920025 -0.49919882
vn -0.70823705 -0.49920025 -0.49919882
vn -0.70823705 -0.49920025 -0.49919882
vn 0.70823675 -0.1827189 -0.68191975
vn 0.70823675 -0.1827189 -0.68191975
vn 0.70823675 -0.1827189 -0.68191975
vn 0.70823675 -0.1827189 -0.68191975
vn 0.7082356 0.18271968 0.6819207
vn 0.7082356 0.18271968 0.6819207
vn 0.7082356 0.18271968 0.6819207
vn 0.7082356 0.18271968 0.6819207
vn -0.7082354 0.18271965 0.681921
vn -0.7082354 0.18271965 0.681921
vn -0.7082354 0.18271965 0.681921
vn -0.7082354 0.18271965 0.681921
vn -0.7082366 -0.18271889 -0.68192005
vn -0.7082366 -0.18271889 -0.68192005
vn -0.7082366 -0.18271889 -0.68192005
vn -0.7082366 -0.18271889 -0.68192005
g Shadow Scepter_0
f 3/3/3 2/2/2 1/1/1
f 4/4/4 3/3/3 1/1/1
f 7/7/7 6/6/6 5/5/5
f 8/8/8 7/7/7 5/5/5
f 11/11/11 10/10/10 9/9/9
f 9/9/9 12/12/12 11/11/11
f 9/9/9 13/13/13 12/12/12
f 13/13/13 14/14/14 12/12/12
f 17/17/17 16/16/16 15/15/15
f 18/18/18 17/17/17 15/15/15
f 21/21/21 20/20/20 19/19/19
f 22/22/22 21/21/21 19/19/19
f 25/25/25 24/24/24 23/23/23
f 26/26/26 25/25/25 23/23/23
f 29/29/29 28/28/28 27/27/27
f 30/30/30 29/29/29 27/27/27
f 33/33/33 32/32/32 31/31/31
f 31/31/31 34/34/34 33/33/33
f 31/31/31 35/35/35 34/34/34
f 35/35/35 36/36/36 34/34/34
f 39/39/39 38/38/38 37/37/37
f 40/40/40 39/39/39 37/37/37
f 43/43/43 42/42/42 41/41/41
f 44/44/44 43/43/43 41/41/41
f 47/47/47 46/46/46 45/45/45
f 45/45/45 48/48/48 47/47/47
f 45/45/45 49/49/49 48/48/48
f 49/49/49 50/50/50 48/48/48
f 53/53/53 52/52/52 51/51/51
f 54/54/54 53/53/53 51/51/51
f 57/57/57 56/56/56 55/55/55
f 58/58/58 57/57/57 55/55/55
f 61/61/61 60/60/60 59/59/59
f 62/62/62 61/61/61 59/59/59
f 65/65/65 64/64/64 63/63/63
f 66/66/66 65/65/65 63/63/63
f 69/69/69 68/68/68 67/67/67
f 67/67/67 70/70/70 69/69/69
f 67/67/67 71/71/71 70/70/70
f 71/71/71 72/72/72 70/70/70
f 75/75/75 74/74/74 73/73/73
f 76/76/76 75/75/75 73/73/73
f 79/79/79 78/78/78 77/77/77
f 80/80/80 79/79/79 77/77/77
f 83/83/83 82/82/82 81/81/81
f 81/81/81 84/84/84 83/83/83
f 81/81/81 85/85/85 84/84/84
f 85/85/85 86/86/86 84/84/84
f 89/89/89 88/88/88 87/87/87
f 90/90/90 89/89/89 87/87/87
f 93/93/93 92/92/92 91/91/91
f 94/94/94 93/93/93 91/91/91
f 97/97/97 96/96/96 95/95/95
f 98/98/98 97/97/97 95/95/95
f 101/101/101 100/100/100 99/99/99
f 102/102/102 101/101/101 99/99/99
f 105/105/105 104/104/104 103/103/103
f 103/103/103 106/106/106 105/105/105
f 103/103/103 107/107/107 106/106/106
f 107/107/107 108/108/108 106/106/106
f 111/111/111 110/110/110 109/109/109
f 112/112/112 111/111/111 109/109/109
f 115/115/115 114/114/114 113/113/113
f 116/116/116 115/115/115 113/113/113
f 119/119/119 118/118/118 117/117/117
f 117/117/117 120/120/120 119/119/119
f 117/117/117 121/121/121 120/120/120
f 121/121/121 122/122/122 120/120/120
f 125/125/125 124/124/124 123/123/123
f 126/126/126 125/125/125 123/123/123
f 129/129/129 128/128/128 127/127/127
f 130/130/130 129/129/129 127/127/127
f 133/133/133 132/132/132 131/131/131
f 134/134/134 133/133/133 131/131/131
f 137/137/137 136/136/136 135/135/135
f 138/138/138 137/137/137 135/135/135
f 141/141/141 140/140/140 139/139/139
f 139/139/139 142/142/142 141/141/141
f 139/139/139 143/143/143 142/142/142
f 143/143/143 144/144/144 142/142/142
f 147/147/147 146/146/146 145/145/145
f 148/148/148 147/147/147 145/145/145
f 151/151/151 150/150/150 149/149/149
f 152/152/152 151/151/151 149/149/149
f 155/155/155 154/154/154 153/153/153
f 153/153/153 156/156/156 155/155/155
f 153/153/153 157/157/157 156/156/156
f 157/157/157 158/158/158 156/156/156
f 161/161/161 160/160/160 159/159/159
f 162/162/162 161/161/161 159/159/159
f 165/165/165 164/164/164 163/163/163
f 166/166/166 165/165/165 163/163/163
f 169/169/169 168/168/168 167/167/167
f 170/170/170 169/169/169 167/167/167
f 173/173/173 172/172/172 171/171/171
f 174/174/174 173/173/173 171/171/171
f 177/177/177 176/176/176 175/175/175
f 175/175/175 178/178/178 177/177/177
f 175/175/175 179/179/179 178/178/178
f 179/179/179 180/180/180 178/178/178
f 183/183/183 182/182/182 181/181/181
f 182/182/182 184/184/184 181/181/181
f 181/181/181 184/184/184 185/185/185
f 184/184/184 186/186/186 185/185/185
f 189/189/189 188/188/188 187/187/187
f 188/188/188 190/190/190 187/187/187
f 187/187/187 190/190/190 191/191/191
f 190/190/190 192/192/192 191/191/191
f 195/195/195 194/194/194 193/193/193
f 194/194/194 196/196/196 193/193/193
f 193/193/193 196/196/196 197/197/197
f 196/196/196 198/198/198 197/197/197
f 201/201/201 200/200/200 199/199/199
f 200/200/200 202/202/202 199/199/199
f 199/199/199 202/202/202 203/203/203
f 202/202/202 204/204/204 203/203/203
f 207/207/207 206/206/206 205/205/205
f 206/206/206 208/208/208 205/205/205
f 205/205/205 208/208/208 209/209/209
f 208/208/208 210/210/210 209/209/209
f 213/213/213 212/212/212 211/211/211
f 212/212/212 214/214/214 211/211/211
f 211/211/211 214/214/214 215/215/215
f 214/214/214 216/216/216 215/215/215
f 219/219/219 218/218/218 217/217/217
f 220/220/220 219/219/219 217/217/217
f 223/223/223 222/222/222 221/221/221
f 224/224/224 223/223/223 221/221/221
f 227/227/227 226/226/226 225/225/225
f 228/228/228 227/227/227 225/225/225
f 231/231/231 230/230/230 229/229/229
f 232/232/232 231/231/231 229/229/229
f 235/235/235 234/234/234 233/233/233
f 236/236/236 235/235/235 233/233/233
f 239/239/239 238/238/238 237/237/237
f 240/240/240 239/239/239 237/237/237
f 243/243/243 242/242/242 241/241/241
f 244/244/244 243/243/243 241/241/241
f 247/247/247 246/246/246 245/245/245
f 248/248/248 247/247/247 245/245/245
f 251/251/251 250/250/250 249/249/249
f 252/252/252 251/251/251 249/249/249
f 255/255/255 254/254/254 253/253/253
f 256/256/256 255/255/255 253/253/253
f 259/259/259 258/258/258 257/257/257
f 260/260/260 259/259/259 257/257/257
f 263/263/263 262/262/262 261/261/261
f 264/264/264 263/263/263 261/261/261
f 267/267/267 266/266/266 265/265/265
f 268/268/268 267/267/267 265/265/265
f 271/271/271 270/270/270 269/269/269
f 272/272/272 271/271/271 269/269/269
f 275/275/275 274/274/274 273/273/273
f 276/276/276 275/275/275 273/273/273
f 279/279/279 278/278/278 277/277/277
f 280/280/280 279/279/279 277/277/277
f 283/283/283 282/282/282 281/281/281
f 284/284/284 283/283/283 281/281/281
f 287/287/287 286/286/286 285/285/285
f 288/288/288 287/287/287 285/285/285
f 291/291/291 290/290/290 289/289/289
f 292/292/292 291/291/291 289/289/289
f 295/295/295 294/294/294 293/293/293
f 296/296/296 295/295/295 293/293/293
f 299/299/299 298/298/298 297/297/297
f 300/300/300 299/299/299 297/297/297
f 303/303/303 302/302/302 301/301/301
f 304/304/304 303/303/303 301/301/301
f 307/307/307 306/306/306 305/305/305
f 308/308/308 307/307/307 305/305/305
f 311/311/311 310/310/310 309/309/309
f 312/312/312 311/311/311 309/309/309
f 315/315/315 314/314/314 313/313/313
f 316/316/316 315/315/315 313/313/313
f 319/319/319 318/318/318 317/317/317
f 320/320/320 319/319/319 317/317/317
f 323/323/323 322/322/322 321/321/321
f 324/324/324 323/323/323 321/321/321
f 327/327/327 326/326/326 325/325/325
f 328/328/328 327/327/327 325/325/325
f 331/331/331 330/330/330 329/329/329
f 332/332/332 331/331/331 329/329/329
f 335/335/335 334/334/334 333/333/333
f 336/336/336 335/335/335 333/333/333
f 339/339/339 338/338/338 337/337/337
f 340/340/340 339/339/339 337/337/337
f 343/343/343 342/342/342 341/341/341
f 344/344/344 343/343/343 341/341/341
f 347/347/347 346/346/346 345/345/345
f 348/348/348 347/347/347 345/345/345
f 351/351/351 350/350/350 349/349/349
f 352/352/352 351/351/351 349/349/349
f 355/355/355 354/354/354 353/353/353
f 356/356/356 355/355/355 353/353/353
f 359/359/359 358/358/358 357/357/357
f 360/360/360 359/359/359 357/357/357
f 363/363/363 362/362/362 361/361/361
f 364/364/364 363/363/363 361/361/361
f 367/367/367 366/366/366 365/365/365
f 368/368/368 367/367/367 365/365/365
f 371/371/371 370/370/370 369/369/369
f 372/372/372 371/371/371 369/369/369
f 375/375/375 374/374/374 373/373/373
f 376/376/376 375/375/375 373/373/373
f 379/379/379 378/378/378 377/377/377
f 380/380/380 379/379/379 377/377/377
f 383/383/383 382/382/382 381/381/381
f 384/384/384 383/383/383 381/381/381
f 387/387/387 386/386/386 385/385/385
f 388/388/388 387/387/387 385/385/385
f 391/391/391 390/390/390 389/389/389
f 392/392/392 391/391/391 389/389/389
f 395/395/395 394/394/394 393/393/393
f 396/396/396 395/395/395 393/393/393
f 399/399/399 398/398/398 397/397/397
f 400/400/400 399/399/399 397/397/397
f 403/403/403 402/402/402 401/401/401
f 404/404/404 403/403/403 401/401/401
f 407/407/407 406/406/406 405/405/405
f 408/408/408 407/407/407 405/405/405
