g Spider Med Mid Legs.001
v 0.43360233 0.30849898 0.44687447
v 0.43584666 0.3088208 0.115897484
v 1.2477875 0.0672531 0.23293172
v 1.2467573 0.06710536 0.42996484
v 2.2045245 -0.17699406 -1.0077789
v 0.37111515 -0.051786244 0.44687447
v 1.2180673 -0.09831398 0.42996484
v 2.2045245 -0.17699406 -1.0077789
v 0.37311998 -0.052844983 0.115897484
v 1.2189876 -0.09880005 0.23293172
v 2.2045245 -0.17699406 -1.0077789
v 2.2045245 -0.17699406 -1.0077789
v -0.3028173 -0.021201495 0.3899152
v -0.31118092 -0.034190793 0.059291173
v -1.1480527 -0.14403409 0.19665948
v -1.1433339 -0.13646704 0.39349344
v -2.1479566 -0.34555513 -1.0183909
v -0.39440957 0.3326402 0.37910548
v -1.185387 0.025993852 0.3885303
v -2.1479566 -0.34555513 -1.0183909
v -0.40312406 0.32100677 0.04844003
v -1.1902671 0.019049346 0.19167735
v -2.1479566 -0.34555513 -1.0183909
v -2.1479566 -0.34555513 -1.0183909
vt 0.29999992 0.75
vt 0.29999992 0.5
vt 0.29999992 0.5
vt 0.29999992 0.75
vt 0.29999992 0.5
vt 0.19999993 0.75
vt 0.19999993 0.75
vt 0.29999992 0.75
vt 0.19999993 0.5
vt 0.19999993 0.5
vt 0.19999993 0.5
vt 0.19999993 0.75
vt 0.79999995 0.75
vt 0.79999995 0.5
vt 0.79999995 0.5
vt 0.79999995 0.75
vt 0.79999995 0.5
vt 0.6999999 0.75
vt 0.6999999 0.75
vt 0.79999995 0.75
vt 0.6999999 0.5
vt 0.6999999 0.5
vt 0.6999999 0.5
vt 0.6999999 0.75
vn 0.22033128 0.6939425 0.68549097
vn 0.28472608 0.95860535 0.0026182553
vn -0.016557736 0.97624356 -0.2160424
vn 0.50883317 0.5113158 0.6925641
vn 0.58621436 -0.09738448 -0.80428165
vn -0.026216276 -0.72761035 0.6854896
vn 0.30765933 -0.6532791 0.6917892
vn 0.58621436 -0.09738448 -0.80428165
vn -0.054705255 -0.99849904 0.0026182535
vn -0.33549532 -0.9171001 -0.21533774
vn 0.58621436 -0.09738448 -0.80428165
vn 0.58621436 -0.09738448 -0.80428165
vn 0.098708116 -0.6982797 0.7089868
vn 0.13583338 -0.99010557 0.035217833
vn 0.40476435 -0.8941265 -0.19158162
vn -0.23992263 -0.6509448 0.7202138
vn -0.5919118 -0.1729408 -0.7872306
vn -0.26267746 0.6978508 0.66633683
vn -0.5351639 0.4929151 0.6860279
vn -0.5919118 -0.1729408 -0.7872306
vn -0.36169958 0.9319984 -0.023501504
vn -0.0671714 0.96609336 -0.24930234
vn -0.5919118 -0.1729408 -0.7872306
vn -0.5919118 -0.1729408 -0.7872306
g Spider Med Mid Legs.001_0
f 3/3/3 2/2/2 1/1/1
f 4/4/4 3/3/3 1/1/1
f 5/5/5 3/3/3 4/4/4
f 4/4/4 1/1/1 6/6/6
f 7/7/7 4/4/4 6/6/6
f 8/8/8 4/4/4 7/7/7
f 7/7/7 6/6/6 9/9/9
f 10/10/10 7/7/7 9/9/9
f 11/11/11 10/10/10 3/3/3
f 12/12/12 7/7/7 10/10/10
f 15/15/15 14/14/14 13/13/13
f 16/16/16 15/15/15 13/13/13
f 17/17/17 15/15/15 16/16/16
f 16/16/16 13/13/13 18/18/18
f 19/19/19 16/16/16 18/18/18
f 20/20/20 16/16/16 19/19/19
f 19/19/19 18/18/18 21/21/21
f 22/22/22 19/19/19 21/21/21
f 23/23/23 22/22/22 15/15/15
f 24/24/24 19/19/19 22/22/22
