g Spider Small Hind Legs B
v 0.12206653 0.4491123 0.22366987
v 0.122522414 0.45036554 0.028977515
v 0.47314644 0.8044405 0.0978212
v 0.4729373 0.80386496 0.21372303
v 0.8719306 1.2277269 -0.63200855
v 0.291588 0.31671548 0.22366987
v 0.5507702 0.74307704 0.21372303
v 0.8719306 1.2277269 -0.63200855
v 0.2926934 0.3174614 0.028977515
v 0.55127776 0.7434195 0.0978212
v 0.8719306 1.2277269 -0.63200855
v 0.8719306 1.2277269 -0.63200855
v -0.2683261 0.32307655 0.22542554
v -0.269369 0.3239077 0.030733187
v -0.49338847 0.76901275 0.099576846
v -0.49290955 0.76863104 0.21547869
v -0.76764864 1.2817775 -0.6204439
v -0.08884777 0.44162604 0.22542554
v -0.41050506 0.8230613 0.21547869
v -0.76764864 1.2817775 -0.6204439
v -0.089203 0.44291154 0.030733187
v -0.41066805 0.8236514 0.099576846
v -0.76764864 1.2817775 -0.6204439
v -0.76764864 1.2817775 -0.6204439
vt 0.39999992 0.75
vt 0.39999992 0.5
vt 0.39999992 0.5
vt 0.39999992 0.75
vt 0.39999992 0.5
vt 0.29999992 0.75
vt 0.29999992 0.75
vt 0.39999992 0.75
vt 0.29999992 0.5
vt 0.29999992 0.5
vt 0.29999992 0.5
vt 0.29999992 0.75
vt 0.6999999 0.75
vt 0.6999999 0.5
vt 0.6999999 0.5
vt 0.6999999 0.75
vt 0.6999999 0.5
vt 0.5999999 0.75
vt 0.5999999 0.75
vt 0.6999999 0.75
vt 0.5999999 0.5
vt 0.5999999 0.5
vt 0.5999999 0.5
vt 0.5999999 0.75
vn -0.5079056 0.52166545 0.6854905
vn -0.71088004 0.7033084 0.0026190737
vn -0.86433965 0.4544747 -0.21533635
vn -0.21055223 0.6907206 0.69178945
vn 0.36921874 0.46569753 -0.8042408
vn 0.629172 -0.366396 0.6854901
vn 0.7203884 -0.03735967 0.6925641
vn 0.36921874 0.46569753 -0.8042408
vn 0.8545767 -0.5193186 0.0026181126
vn 0.64312214 -0.7346561 -0.21604276
vn 0.36921874 0.46569753 -0.8042408
vn 0.36921874 0.46569753 -0.8042408
vn -0.6562258 -0.31539235 0.68548906
vn -0.89303786 -0.44997397 0.002618609
vn -0.7064361 -0.673578 -0.21734942
vn -0.7212178 0.018453576 0.6924625
vn -0.32642904 0.5022484 -0.8007439
vn 0.5476413 0.47978225 0.68549114
vn 0.2662434 0.6697147 0.69325095
vn -0.32642904 0.5022484 -0.8007439
vn 0.76437026 0.6447723 0.002618323
vn 0.9003595 0.37655848 -0.21807441
vn -0.32642904 0.5022484 -0.8007439
vn -0.32642904 0.5022484 -0.8007439
g Spider Small Hind Legs B_0
f 3/3/3 2/2/2 1/1/1
f 4/4/4 3/3/3 1/1/1
f 5/5/5 3/3/3 4/4/4
f 4/4/4 1/1/1 6/6/6
f 7/7/7 4/4/4 6/6/6
f 8/8/8 4/4/4 7/7/7
f 7/7/7 6/6/6 9/9/9
f 10/10/10 7/7/7 9/9/9
f 11/11/11 10/10/10 3/3/3
f 12/12/12 7/7/7 10/10/10
f 15/15/15 14/14/14 13/13/13
f 16/16/16 15/15/15 13/13/13
f 17/17/17 15/15/15 16/16/16
f 16/16/16 13/13/13 18/18/18
f 19/19/19 16/16/16 18/18/18
f 20/20/20 16/16/16 19/19/19
f 19/19/19 18/18/18 21/21/21
f 22/22/22 19/19/19 21/21/21
f 23/23/23 22/22/22 15/15/15
f 24/24/24 19/19/19 22/22/22
