g Spider Small Hind Legs
v 0.2101871 0.4058114 0.22366987
v 0.21120572 0.40667215 0.028977515
v 0.69145674 0.5395826 0.0978212
v 0.6909891 0.5391872 0.21372303
v 1.2479025 0.7086036 -0.63200855
v 0.29145586 0.20665866 0.22366987
v 0.72830236 0.44774947 0.21372303
v 1.2479025 0.7086036 -0.63200855
v 0.2927859 0.2067563 0.028977515
v 0.7289129 0.4477944 0.0978212
v 1.2479025 0.7086036 -0.63200855
v 1.2479025 0.7086036 -0.63200855
v -0.28838462 0.21590161 0.22366987
v -0.2897182 0.21589962 0.028977515
v -0.74262893 0.42368588 0.097821176
v -0.74201655 0.42368677 0.21372302
v -1.2770302 0.65294933 -0.62219954
v -0.22221999 0.42056885 0.22366987
v -0.7116382 0.51765645 0.21372302
v -1.2770302 0.65294933 -0.62219954
v -0.22330005 0.4213511 0.028977515
v -0.7121341 0.5180156 0.097821176
v -1.2770302 0.65294933 -0.62219954
v -1.2770302 0.65294933 -0.62219954
vt 0.39999992 0.75
vt 0.39999992 0.5
vt 0.39999992 0.5
vt 0.39999992 0.75
vt 0.39999992 0.5
vt 0.29999992 0.75
vt 0.29999992 0.75
vt 0.39999992 0.75
vt 0.29999992 0.5
vt 0.29999992 0.5
vt 0.29999992 0.5
vt 0.29999992 0.75
vt 0.6999999 0.75
vt 0.6999999 0.5
vt 0.6999999 0.5
vt 0.6999999 0.75
vt 0.6999999 0.5
vt 0.5999999 0.75
vt 0.5999999 0.75
vt 0.6999999 0.75
vt 0.5999999 0.5
vt 0.5999999 0.5
vt 0.5999999 0.5
vt 0.5999999 0.75
vn -0.18135305 0.70513415 0.6854902
vn -0.2671655 0.9636471 0.002618689
vn -0.5240232 0.8240326 -0.21533681
vn 0.16069564 0.7039916 0.6917895
vn 0.5518276 0.2205527 -0.8042654
vn 0.36376283 -0.63069797 0.68549013
vn 0.60648626 -0.39055046 0.69256395
vn 0.5518276 0.2205527 -0.8042654
vn 0.48331565 -0.87544227 0.00261792
vn 0.1927895 -0.95716137 -0.2160424
vn 0.5518276 0.2205527 -0.8042654
vn 0.5518276 0.2205527 -0.8042654
vn -0.31563628 -0.6561087 0.68548894
vn -0.416573 -0.90909845 0.0026185124
vn -0.13119772 -0.9672364 -0.21734999
vn -0.57486 -0.43592665 0.69246227
vn -0.56862867 0.18843761 -0.8007201
vn 0.12817387 0.71671015 0.685491
vn -0.21022037 0.6893551 0.6932511
vn -0.56862867 0.18843761 -0.8007201
vn 0.19443642 0.9809116 0.0026183224
vn 0.46813405 0.8563259 -0.21807444
vn -0.56862867 0.18843761 -0.8007201
vn -0.56862867 0.18843761 -0.8007201
g Spider Small Hind Legs_0
f 3/3/3 2/2/2 1/1/1
f 4/4/4 3/3/3 1/1/1
f 5/5/5 3/3/3 4/4/4
f 4/4/4 1/1/1 6/6/6
f 7/7/7 4/4/4 6/6/6
f 8/8/8 4/4/4 7/7/7
f 7/7/7 6/6/6 9/9/9
f 10/10/10 7/7/7 9/9/9
f 11/11/11 10/10/10 3/3/3
f 12/12/12 7/7/7 10/10/10
f 15/15/15 14/14/14 13/13/13
f 16/16/16 15/15/15 13/13/13
f 17/17/17 15/15/15 16/16/16
f 16/16/16 13/13/13 18/18/18
f 19/19/19 16/16/16 18/18/18
f 20/20/20 16/16/16 19/19/19
f 19/19/19 18/18/18 21/21/21
f 22/22/22 19/19/19 21/21/21
f 23/23/23 22/22/22 15/15/15
f 24/24/24 19/19/19 22/22/22
