g Spider Med Hind Legs B.001
v 0.20751311 0.7634909 0.3802388
v 0.2082881 0.7656214 0.04926178
v 0.80434895 1.367549 0.16629604
v 0.8039934 1.3665705 0.36332917
v 1.482282 2.0871358 -1.0744146
v 0.4956996 0.5384163 0.3802388
v 0.9363094 1.263231 0.36332917
v 1.482282 2.0871358 -1.0744146
v 0.4975788 0.5396844 0.04926178
v 0.93717223 1.2638133 0.16629604
v 1.482282 2.0871358 -1.0744146
v 1.482282 2.0871358 -1.0744146
v -0.45615438 0.54923016 0.38322344
v -0.45792732 0.5506431 0.052246418
v -0.83876044 1.3073217 0.16928065
v -0.83794624 1.3066728 0.3663138
v -1.3050027 2.1790218 -1.0547546
v -0.15104121 0.7507643 0.38322344
v -0.69785863 1.3992043 0.3663138
v -1.3050027 2.1790218 -1.0547546
v -0.15164511 0.75294966 0.052246418
v -0.6981357 1.4002074 0.16928065
v -1.3050027 2.1790218 -1.0547546
v -1.3050027 2.1790218 -1.0547546
vt 0.39999992 0.75
vt 0.39999992 0.5
vt 0.39999992 0.5
vt 0.39999992 0.75
vt 0.39999992 0.5
vt 0.29999992 0.75
vt 0.29999992 0.75
vt 0.39999992 0.75
vt 0.29999992 0.5
vt 0.29999992 0.5
vt 0.29999992 0.5
vt 0.29999992 0.75
vt 0.6999999 0.75
vt 0.6999999 0.5
vt 0.6999999 0.5
vt 0.6999999 0.75
vt 0.6999999 0.5
vt 0.5999999 0.75
vt 0.5999999 0.75
vt 0.6999999 0.75
vt 0.5999999 0.5
vt 0.5999999 0.5
vt 0.5999999 0.5
vt 0.5999999 0.75
vn -0.50790566 0.52166533 0.68549037
vn -0.7108801 0.7033083 0.0026191163
vn -0.8643398 0.45447424 -0.21533647
vn -0.21055257 0.6907207 0.6917893
vn 0.3691635 0.4657328 -0.8042458
vn 0.6291719 -0.366396 0.6854901
vn 0.7203884 -0.037359405 0.6925641
vn 0.3691635 0.4657328 -0.8042458
vn 0.8545767 -0.5193186 0.0026180518
vn 0.64312255 -0.7346556 -0.21604273
vn 0.3691635 0.4657328 -0.8042458
vn 0.3691635 0.4657328 -0.8042458
vn -0.6562259 -0.31539237 0.685489
vn -0.89303786 -0.44997403 0.0026186008
vn -0.70643663 -0.67357755 -0.21734896
vn -0.7212179 0.018453833 0.6924624
vn -0.32655263 0.5022269 -0.800707
vn 0.54764134 0.4797823 0.6854911
vn 0.26624346 0.66971475 0.6932507
vn -0.32655263 0.5022269 -0.800707
vn 0.76437026 0.64477223 0.0026180702
vn 0.9003597 0.3765582 -0.21807438
vn -0.32655263 0.5022269 -0.800707
vn -0.32655263 0.5022269 -0.800707
g Spider Med Hind Legs B.001_0
f 3/3/3 2/2/2 1/1/1
f 4/4/4 3/3/3 1/1/1
f 5/5/5 3/3/3 4/4/4
f 4/4/4 1/1/1 6/6/6
f 7/7/7 4/4/4 6/6/6
f 8/8/8 4/4/4 7/7/7
f 7/7/7 6/6/6 9/9/9
f 10/10/10 7/7/7 9/9/9
f 11/11/11 10/10/10 3/3/3
f 12/12/12 7/7/7 10/10/10
f 15/15/15 14/14/14 13/13/13
f 16/16/16 15/15/15 13/13/13
f 17/17/17 15/15/15 16/16/16
f 16/16/16 13/13/13 18/18/18
f 19/19/19 16/16/16 18/18/18
f 20/20/20 16/16/16 19/19/19
f 19/19/19 18/18/18 21/21/21
f 22/22/22 19/19/19 21/21/21
f 23/23/23 22/22/22 15/15/15
f 24/24/24 19/19/19 22/22/22
