g Spider Big Front Legs.001
v 0.81358945 -0.026664548 0.5813585
v 0.81525373 -0.028183855 0.2523778
v 1.6061777 -1.4582319 0.32280996
v 1.6046855 -1.4568697 0.705286
v 2.4200103 -3.1936405 -2.0856287
v 0.49758494 -0.20622772 0.5813585
v 1.3213338 -1.6178784 0.705286
v 2.4200103 -3.1936405 -2.0856287
v 0.4980383 -0.20843509 0.2523778
v 1.3217399 -1.6198575 0.32280996
v 2.4200103 -3.1936405 -2.0856287
v 2.4200103 -3.1936405 -2.0856287
v -0.47096735 -0.2384204 0.5816135
v -0.47145933 -0.24062306 0.25212282
v -1.3194774 -1.6375612 0.32280996
v -1.3190368 -1.6355891 0.705286
v -2.4208407 -3.2063146 -2.0856283
v -0.78433084 -0.05317709 0.5816135
v -1.5995853 -1.4697442 0.705286
v -2.4208407 -3.2063146 -2.0856283
v -0.7860235 -0.05466996 0.25212282
v -1.6011002 -1.4710805 0.32280996
v -2.4208407 -3.2063146 -2.0856283
v -2.4208407 -3.2063146 -2.0856283
vt 0.19999993 0.75
vt 0.19999993 0.5
vt 0.19999993 0.5
vt 0.19999993 0.75
vt 0.19999993 0.5
vt 0.09999993 0.74999994
vt 0.09999993 0.74999994
vt 0.19999993 0.75
vt 0.09999993 0.5
vt 0.09999993 0.5
vt 0.09999993 0.5
vt 0.09999993 0.74999994
vt 0.9 0.75
vt 0.9 0.5
vt 0.9 0.5
vt 0.9 0.75
vt 0.9 0.5
vt 0.79999995 0.75
vt 0.79999995 0.75
vt 0.9 0.75
vt 0.79999995 0.5
vt 0.79999995 0.5
vt 0.79999995 0.5
vt 0.79999995 0.75
vn 0.6080473 0.39591417 0.6881353
vn 0.8750093 0.48410246 0.0019212723
vn 0.7130439 0.66621464 -0.21846358
vn 0.7030647 -0.0036171821 0.7111168
vn 0.2972897 -0.51462585 -0.80422586
vn -0.6513464 -0.31971884 0.6881336
vn -0.356709 -0.6067725 0.71034205
vn 0.2972897 -0.51462585 -0.80422586
vn -0.86374724 -0.5039216 0.0019217847
vn -0.9347558 -0.28066373 -0.21785204
vn 0.2972897 -0.51462585 -0.80422586
vn 0.2972897 -0.51462585 -0.80422586
vn 0.64565694 -0.33104232 0.688141
vn 0.8548907 -0.5188046 0.0019223614
vn 0.9324824 -0.28766626 -0.21845981
vn 0.34623477 -0.6119415 0.71109
vn -0.29861525 -0.5138117 -0.80425525
vn -0.6012955 0.40608633 0.68814063
vn -0.7038405 0.007838332 0.7103148
vn -0.29861525 -0.5138117 -0.80425525
vn -0.8666667 0.49888393 0.0019220549
vn -0.70819694 0.6715646 -0.21784912
vn -0.29861525 -0.5138117 -0.80425525
vn -0.29861525 -0.5138117 -0.80425525
g Spider Big Front Legs.001_0
f 3/3/3 2/2/2 1/1/1
f 4/4/4 3/3/3 1/1/1
f 5/5/5 3/3/3 4/4/4
f 4/4/4 1/1/1 6/6/6
f 7/7/7 4/4/4 6/6/6
f 8/8/8 4/4/4 7/7/7
f 7/7/7 6/6/6 9/9/9
f 10/10/10 7/7/7 9/9/9
f 11/11/11 10/10/10 3/3/3
f 12/12/12 7/7/7 10/10/10
f 15/15/15 14/14/14 13/13/13
f 16/16/16 15/15/15 13/13/13
f 17/17/17 15/15/15 16/16/16
f 16/16/16 13/13/13 18/18/18
f 19/19/19 16/16/16 18/18/18
f 20/20/20 16/16/16 19/19/19
f 19/19/19 18/18/18 21/21/21
f 22/22/22 19/19/19 21/21/21
f 23/23/23 22/22/22 15/15/15
f 24/24/24 19/19/19 22/22/22
