g Spider Med Claws.001
v -0.0014174426 -0.3033739 0.3802388
v -0.0014174394 -0.30564103 0.04926178
v -0.3544602 -0.8348487 0.05291785
v -0.3544602 -0.83387154 0.23788609
v -0.13836463 -1.1706403 0.12294794
v -0.3491843 -0.19037771 0.3802388
v -0.5043548 -0.7851679 0.23788609
v -0.13836463 -1.1706403 0.12294794
v -0.3505169 -0.19221184 0.04926178
v -0.50492907 -0.7859584 0.05291785
v -0.13836463 -1.1706403 0.12294794
v 0.34768206 -0.19221169 0.04926178
v 0.34634948 -0.19037755 0.3802388
v 0.5020968 -0.7859584 0.05291785
v -0.0014174426 -0.3033739 0.3802388
v 0.50152236 -0.7851678 0.23788609
v 0.17614664 -1.1574439 0.12294803
v 0.35162777 -0.8338715 0.23788609
v 0.17614664 -1.1574439 0.12294803
v -0.0014174394 -0.30564103 0.04926178
v 0.35162777 -0.8348487 0.05291785
v 0.17614664 -1.1574439 0.12294803
vt 1 0.75
vt 1 0.5
vt 1 0.5
vt 1 0.75
vt 1 0.5
vt 0.9 0.75
vt 0.9 0.75
vt 1 0.75
vt 0.9 0.5
vt 0.9 0.5
vt 0.9 0.75
vt 0.09999993 0.5
vt 0.09999993 0.74999994
vt 0.09999993 0.5
vt -7.4505806E-08 0.75
vt 0.09999993 0.74999994
vt 0.09999993 0.5
vt -7.4505806E-08 0.75
vt 0.09999993 0.74999994
vt -7.4505806E-08 0.5
vt -7.4505806E-08 0.5
vt -7.4505806E-08 0.75
vn -0 0.14256878 0.9897849
vn -0 -0.9999802 0.006287848
vn 0.9989453 -0.04591193 0.00059454294
vn 0.44462302 -0.3409853 0.82827497
vn 0.4900907 -0.3131771 0.8134685
vn -0.5142293 0.5744531 0.6368452
vn -0.7803279 -0.27943924 0.5594657
vn 0.4900907 -0.3131771 0.8134685
vn -0.6132255 0.7830025 0.10421878
vn -0.973925 -0.22683094 0.0042124284
vn 0.4900907 -0.3131771 0.8134685
vn 0.6132238 0.78300387 0.10421875
vn 0.5142279 0.57445407 0.6368455
vn 0.9785066 -0.2061741 0.0041370234
vn -0 0.14256878 0.9897849
vn 0.78098947 -0.26750442 0.56435525
vn -0.48018485 -0.37469697 0.79311067
vn -0.4539165 -0.3553633 0.81711495
vn -0.48018485 -0.37469697 0.79311067
vn -0 -0.9999802 0.006287848
vn -0.9965622 -0.08284482 0.000783115
vn -0.48018485 -0.37469697 0.79311067
g Spider Med Claws.001_0
f 3/3/3 2/2/2 1/1/1
f 4/4/4 3/3/3 1/1/1
f 4/4/4 5/5/5 3/3/3
f 4/4/4 1/1/1 6/6/6
f 7/7/7 4/4/4 6/6/6
f 7/7/7 8/8/8 4/4/4
f 7/7/7 6/6/6 9/9/9
f 10/10/10 7/7/7 9/9/9
f 10/10/10 11/11/11 7/7/7
f 12/12/12 9/9/9 6/6/6
f 6/6/6 13/13/13 12/12/12
f 14/14/14 12/12/12 13/13/13
f 6/6/6 15/15/15 13/13/13
f 16/16/16 14/14/14 13/13/13
f 16/16/16 13/13/13 15/15/15
f 16/16/16 17/17/17 14/14/14
f 18/18/18 16/16/16 15/15/15
f 18/18/18 19/19/19 16/16/16
f 18/18/18 15/15/15 20/20/20
f 21/21/21 18/18/18 20/20/20
f 21/21/21 22/22/22 18/18/18
