g Spider Small Body
v -0.14774792 -0.03263074 0.29726613
v -0.23854561 0.092341565 0.29726613
v -0.0008345903 0.16957764 0.35927132
v -0.20540252 -0.11198688 0.22366987
v -0.0008337897 -0.17845523 0.22366987
v -0.000834193 -0.08036587 0.29726613
v -0.0008345903 0.16957764 0.35927132
v -0.33183298 0.06202971 0.22366987
v -0.2061864 -0.11306579 0.028977515
v -0.33310133 0.061617594 0.028977515
v -0.23854561 0.24681582 0.29726613
v -0.0008345903 0.16957764 0.35927132
v -0.331833 0.277126 0.22366987
v -0.33310133 0.27753812 0.028977515
v -0.14774795 0.37178814 0.29726613
v -0.0008345903 0.16957764 0.35927132
v -0.20540255 0.45114264 0.22366987
v -0.20618644 0.45222154 0.028977515
v -0.0008342149 0.41952324 0.29726613
v -0.0008345903 0.16957764 0.35927132
v -0.00083382014 0.51761097 0.22366987
v -0.0008338185 0.5189446 0.028977515
v 0.14607953 0.37178814 0.29726613
v -0.0008345903 0.16957764 0.35927132
v 0.20373492 0.45114264 0.22366987
v 0.20451882 0.45222154 0.028977515
v 0.23687713 0.24681583 0.29726613
v -0.0008345903 0.16957764 0.35927132
v 0.33016536 0.27712607 0.22366987
v 0.3314337 0.27753818 0.028977515
v 0.3314337 0.061617594 0.028977515
v 0.23687719 0.092341565 0.29726613
v -0.0008345903 0.16957764 0.35927132
v 0.33016536 0.06202971 0.22366987
v 0.20451885 -0.1130657 0.028977515
v 0.14607956 -0.032630652 0.29726613
v -0.0008345903 0.16957764 0.35927132
v 0.20373498 -0.11198679 0.22366987
v -0.000834193 -0.08036587 0.29726613
v -0.0008337897 -0.17845523 0.22366987
v -0.0008345903 0.16957764 0.35927132
v 0.20373498 -0.11198679 0.22366987
v -0.0008337897 -0.17845523 0.22366987
v -0.0008337879 -0.17978883 0.028977515
v -0.0008337879 -0.17978883 0.028977515
v -0.0008337897 -0.17845523 0.22366987
v -0.20540252 -0.11198688 0.22366987
v -0.2061864 -0.11306579 0.028977515
vt 0.9 1
vt 0.79999995 1
vt 0.79999995 1
vt 0.9 0.75
vt 1 0.75
vt 1 1
vt 0.9 1
vt 0.79999995 0.75
vt 0.9 0.5
vt 0.79999995 0.5
vt 0.6999999 1
vt 0.6999999 1
vt 0.6999999 0.75
vt 0.6999999 0.5
vt 0.5999999 1
vt 0.5999999 1
vt 0.5999999 0.75
vt 0.5999999 0.5
vt 0.4999999 1
vt 0.4999999 1
vt 0.49999988 0.74999994
vt 0.4999999 0.5
vt 0.39999992 1
vt 0.39999992 1
vt 0.39999992 0.75
vt 0.39999992 0.5
vt 0.29999992 1
vt 0.29999992 1
vt 0.29999992 0.75
vt 0.29999992 0.5
vt 0.19999993 0.5
vt 0.19999993 1
vt 0.19999993 1
vt 0.19999993 0.75
vt 0.09999993 0.5
vt 0.09999993 1
vt 0.09999993 1
vt 0.09999993 0.74999994
vt -7.4505806E-08 1
vt -7.4505806E-08 0.75
vt -7.4505806E-08 1
vt 0.09999993 0.74999994
vt 1 0.75
vt 1 0.5
vt 1 0.5
vt 1 0.75
vt 0.9 0.75
vt 0.9 0.5
vn -0.2705622 -0.37239602 0.88775975
vn -0.43777946 -0.14224243 0.8877591
vn -0 0 1
vn -0.6142905 -0.24832107 0.7489886
vn -0 0.5728891 0.81963295
vn -0 -0.4603062 0.8877602
vn -0 0 1
vn -0.8638376 -0.28067824 0.41833502
vn -0.809017 0.5877853 0
vn -0.9510341 -0.30900985 0.006849699
vn -0.43778014 0.1422439 0.88775855
vn -0 0 1
vn -0.86383826 0.28067762 0.41833413
vn -0.95103425 0.3090096 0.006849692
vn -0.27056313 0.37239867 0.88775826
vn -0 0 1
vn -0.5338814 0.73482484 0.41833362
vn -0.5877714 0.8089981 0.0068497886
vn -0 0.4603096 0.88775843
vn -0 0 1
vn -0 0.90829337 0.41833377
vn -0 0.9999765 0.0068498678
vn 0.27056202 0.3723978 0.88775903
vn -0 0 1
vn 0.53388137 0.73482436 0.41833457
vn 0.5877714 0.8089981 0.0068497937
vn 0.43777794 0.14224342 0.88775975
vn -0 0 1
vn 0.8638376 0.2806774 0.41833565
vn 0.95103425 0.30900967 0.0068497527
vn 0.95103425 -0.30900967 0.0068497374
vn 0.43777734 -0.14224188 0.8877602
vn -0 0 1
vn 0.863837 -0.2806779 0.41833666
vn 0.809017 0.5877853 0
vn 0.27056113 -0.37239504 0.8877604
vn -0 0 1
vn 0.61428976 -0.24831909 0.7489898
vn -0 -0.4603062 0.8877602
vn -0 0.5728891 0.81963295
vn -0 0 1
vn 0.61428976 -0.24831909 0.7489898
vn -0 0.5728891 0.81963295
vn -0 0.9999765 -0.006849601
vn -0 0.9999765 -0.006849601
vn -0 0.5728891 0.81963295
vn -0.6142905 -0.24832107 0.7489886
vn -0.809017 0.5877853 0
g Spider Small Body_0
f 3/3/3 2/2/2 1/1/1
f 1/1/1 2/2/2 4/4/4
f 1/1/1 4/4/4 5/5/5
f 6/6/6 1/1/1 5/5/5
f 7/7/7 1/1/1 6/6/6
f 2/2/2 8/8/8 4/4/4
f 4/4/4 8/8/8 9/9/9
f 8/8/8 10/10/10 9/9/9
f 2/2/2 11/11/11 8/8/8
f 12/12/12 11/11/11 2/2/2
f 8/8/8 13/13/13 10/10/10
f 11/11/11 13/13/13 8/8/8
f 13/13/13 14/14/14 10/10/10
f 11/11/11 15/15/15 13/13/13
f 11/11/11 16/16/16 15/15/15
f 13/13/13 17/17/17 14/14/14
f 15/15/15 17/17/17 13/13/13
f 17/17/17 18/18/18 14/14/14
f 15/15/15 19/19/19 17/17/17
f 20/20/20 19/19/19 15/15/15
f 17/17/17 21/21/21 18/18/18
f 19/19/19 21/21/21 17/17/17
f 21/21/21 22/22/22 18/18/18
f 19/19/19 23/23/23 21/21/21
f 24/24/24 23/23/23 19/19/19
f 21/21/21 25/25/25 22/22/22
f 23/23/23 25/25/25 21/21/21
f 25/25/25 26/26/26 22/22/22
f 23/23/23 27/27/27 25/25/25
f 28/28/28 27/27/27 23/23/23
f 25/25/25 29/29/29 26/26/26
f 27/27/27 29/29/29 25/25/25
f 29/29/29 30/30/30 26/26/26
f 30/30/30 29/29/29 31/31/31
f 27/27/27 32/32/32 29/29/29
f 33/33/33 32/32/32 27/27/27
f 29/29/29 34/34/34 31/31/31
f 32/32/32 34/34/34 29/29/29
f 31/31/31 34/34/34 35/35/35
f 32/32/32 36/36/36 34/34/34
f 37/37/37 36/36/36 32/32/32
f 34/34/34 38/38/38 35/35/35
f 36/36/36 38/38/38 34/34/34
f 36/36/36 39/39/39 38/38/38
f 39/39/39 40/40/40 38/38/38
f 41/41/41 39/39/39 36/36/36
f 43/43/43 42/42/42 35/35/35
f 44/44/44 43/43/43 35/35/35
f 47/47/47 46/46/46 45/45/45
f 48/48/48 47/47/47 45/45/45
