g Spikes Front
v -0.0021033138 0.0046913167 0.0036114245
v -0.0025695614 0.004422129 0.0033005935
v -0.0030358084 0.004152941 0.0036114247
v -0.0021033138 0.0046913167 0.004233088
v -0.0030358082 0.004152941 0.004233088
v -0.0025695614 0.004422128 0.0045439196
v 0.0031226196 0.0043061804 0.0036114245
v 0.0026816085 0.004614981 0.0033005935
v 0.0022405966 0.00492378 0.0036114247
v 0.0031226196 0.0043061804 0.004233088
v 0.0022405966 0.00492378 0.004233088
v 0.0026816078 0.00461498 0.0045439196
v 0.0022405966 0.00492378 0.004233088
v 0.0022405966 0.00492378 0.0036114247
v 0.005375451 0.008462186 0.0039222566
v 0.0026816078 0.00461498 0.0045439196
v 0.0026816085 0.004614981 0.0033005935
v 0.0031226196 0.0043061804 0.004233088
v 0.0031226196 0.0043061804 0.0036114245
v -0.0030358082 0.004152941 0.004233088
v -0.0030358084 0.004152941 0.0036114247
v -0.004917847 0.008489478 0.0039222566
v -0.0025695614 0.004422128 0.0045439196
v -0.0025695614 0.004422129 0.0033005935
v -0.0021033138 0.0046913167 0.004233088
v -0.0021033138 0.0046913167 0.0036114245
vt 0.9578461 0.37
vt 0.75 0.49
vt 0.5421539 0.36999997
vt 0.9578461 0.13
vt 0.5421539 0.13000003
vt 0.75 0.010000005
vt 0.9578461 0.37
vt 0.75 0.49
vt 0.5421539 0.36999997
vt 0.9578461 0.13
vt 0.5421539 0.13000003
vt 0.75 0.010000005
vt 0.042153895 0.13000003
vt 0.042153895 0.36999997
vt 0.25 0.25
vt 0.24999999 0.010000005
vt 0.25 0.49
vt 0.4578461 0.13
vt 0.4578461 0.37
vt 0.042153895 0.13000003
vt 0.042153895 0.36999997
vt 0.25 0.25
vt 0.24999999 0.010000005
vt 0.25 0.49
vt 0.4578461 0.13
vt 0.4578461 0.37
vn 0.90136784 -0.12645751 -0.4141792
vn 0.28009972 -0.48514658 -0.828358
vn -0.34116882 -0.8438361 -0.41417927
vn 0.90136766 -0.12645742 0.41417965
vn -0.34116876 -0.84383625 0.41417918
vn 0.28009868 -0.485147 0.8283581
vn 0.2663253 -0.8703599 -0.4141792
vn -0.32131672 -0.45888793 -0.8283583
vn -0.90895957 -0.047416475 -0.41417882
vn 0.26632494 -0.8703601 0.4141791
vn -0.90895957 -0.04741649 0.4141789
vn -0.32131782 -0.45888805 0.8283577
vn -0.90895957 -0.04741649 0.4141789
vn -0.90895957 -0.047416475 -0.41417882
vn 0.57358557 0.8191457 1.4364798E-05
vn -0.32131782 -0.45888805 0.8283577
vn -0.32131672 -0.45888793 -0.8283583
vn 0.26632494 -0.8703601 0.4141791
vn 0.2663253 -0.8703599 -0.4141792
vn -0.34116876 -0.84383625 0.41417918
vn -0.34116882 -0.8438361 -0.41417927
vn -0.5000148 0.86601686 9.050693E-06
vn 0.28009868 -0.485147 0.8283581
vn 0.28009972 -0.48514658 -0.828358
vn 0.90136766 -0.12645742 0.41417965
vn 0.90136784 -0.12645751 -0.4141792
g Spikes Front_0
f 3/3/3 2/2/2 1/1/1
f 1/1/1 4/4/4 3/3/3
f 4/4/4 5/5/5 3/3/3
f 4/4/4 6/6/6 5/5/5
f 9/9/9 8/8/8 7/7/7
f 7/7/7 10/10/10 9/9/9
f 10/10/10 11/11/11 9/9/9
f 10/10/10 12/12/12 11/11/11
f 15/15/15 14/14/14 13/13/13
f 15/15/15 13/13/13 16/16/16
f 15/15/15 17/17/17 14/14/14
f 15/15/15 16/16/16 18/18/18
f 15/15/15 19/19/19 17/17/17
f 15/15/15 18/18/18 19/19/19
f 22/22/22 21/21/21 20/20/20
f 22/22/22 20/20/20 23/23/23
f 22/22/22 24/24/24 21/21/21
f 22/22/22 23/23/23 25/25/25
f 22/22/22 26/26/26 24/24/24
f 22/22/22 25/25/25 26/26/26
