g SpikyRock
v -1.710731 -2.03414 0.047775775
v -1.8319409 1.9544106 0.047775745
v -1.0127834 1.63322 5.6069527
v -1.0127834 1.63322 5.6069527
v -1.8319409 1.9544106 0.047775745
v 6.0501976 3.8860893 0.047775745
v 1.92542 1.45124 6.6910944
v 6.0501976 3.8860893 0.047775745
v 1.8596509 -0.81585526 0.047775745
v 1 -1 5.6069527
v 1.8596509 -0.81585526 0.047775745
v -1.710731 -2.03414 0.047775775
v -1.710731 -2.03414 0.047775775
v -1.0127834 1.63322 5.6069527
v -0.9136028 -0.5621136 3.279878
v -1.0127834 1.63322 5.6069527
v 6.0501976 3.8860893 0.047775745
v 1.92542 1.45124 6.6910944
v 1.92542 1.45124 6.6910944
v 1.8596509 -0.81585526 0.047775745
v 1 -1 5.6069527
v 1 -1 5.6069527
v -1.710731 -2.03414 0.047775775
v -0.9136028 -0.5621136 3.279878
v 1.92542 1.45124 6.6910944
v -2.418938 -3.1945293 11.8165045
v -2.8154233 -1.6116681 10.045961
v -2.8154233 -1.6116681 10.045961
v -2.418938 -3.1945293 11.8165045
v -1.9919242 -3.661882 10.045961
v -2.8154233 -1.6116681 10.045961
v -1.9919242 -3.661882 10.045961
v -0.67306864 -2.269178 6.9645658
v -1.0127834 1.63322 5.6069527
v -2.8154233 -1.6116681 10.045961
v -0.67306864 -2.269178 6.9645658
v 1 -1 5.6069527
v -0.9136028 -0.5621136 3.279878
v -0.67306864 -2.269178 6.9645658
v 1.92542 1.45124 6.6910944
v -2.8154233 -1.6116681 10.045961
v -1.0127834 1.63322 5.6069527
v -1.0127834 1.63322 5.6069527
v -0.67306864 -2.269178 6.9645658
v -0.9136028 -0.5621136 3.279878
v 1 -1 5.6069527
v -0.67306864 -2.269178 6.9645658
v -1.9919242 -3.661882 10.045961
v 1.92542 1.45124 6.6910944
v 1 -1 5.6069527
v -1.9919242 -3.661882 10.045961
v -2.418938 -3.1945293 11.8165045
vt 0.375 0
vt 0.375 0.25
vt 0.625 0.25
vt 0.625 0.25
vt 0.375 0.25
vt 0.375 0.5
vt 0.625 0.5
vt 0.375 0.5
vt 0.375 0.75
vt 0.625 0.75
vt 0.375 0.75
vt 0.375 1
vt 0.375 0
vt 0.625 0.25
vt 0.625 0
vt 0.625 0.25
vt 0.375 0.5
vt 0.625 0.5
vt 0.625 0.5
vt 0.375 0.75
vt 0.625 0.75
vt 0.625 0.75
vt 0.375 1
vt 0.625 1
vt 0.625 0.5
vt 0.625 0.5
vt 0.625 0.25
vt 0.875 0.5
vt 0.625 0.5
vt 0.625 0.75
vt 0.875 0.5
vt 0.625 0.75
vt 0.875 0.75
vt 0.625 0.25
vt 0.625 0.25
vt 0.625 0
vt 0.625 0.75
vt 0.625 1
vt 0.625 1
vt 0.625 0.5
vt 0.625 0.25
vt 0.625 0.25
vt 0.625 0.25
vt 0.625 0
vt 0.625 0
vt 0.625 0.75
vt 0.625 1
vt 0.625 0.75
vt 0.625 0.5
vt 0.625 0.75
vt 0.625 0.75
vt 0.625 0.5
vn -0.9891193 -0.030058753 0.1440123
vn -0.9891193 -0.030058753 0.1440123
vn -0.9891193 -0.030058753 0.1440123
vn -0.23704319 0.9672453 0.09081304
vn -0.23704319 0.9672453 0.09081304
vn -0.23704319 0.9672453 0.09081304
vn 0.7291539 -0.64984894 0.21454842
vn 0.7291539 -0.64984894 0.21454842
vn 0.7291539 -0.64984894 0.21454842
vn 0.32288155 -0.9462569 0.018584926
vn 0.32288155 -0.9462569 0.018584926
vn 0.32288155 -0.9462569 0.018584926
vn -0.7860923 -0.4659844 0.40610024
vn -0.7860923 -0.4659844 0.40610024
vn -0.7860923 -0.4659844 0.40610024
vn -0.05655114 0.94825476 0.3124336
vn -0.05655114 0.94825476 0.3124336
vn -0.05655114 0.94825476 0.3124336
vn 0.9080522 -0.39907598 0.12719868
vn 0.9080522 -0.39907598 0.12719868
vn 0.9080522 -0.39907598 0.12719868
vn -0.66997844 -0.5992788 0.4381709
vn -0.66997844 -0.5992788 0.4381709
vn -0.66997844 -0.5992788 0.4381709
vn -0.008630227 0.7445263 0.66753733
vn -0.008630227 0.7445263 0.66753733
vn -0.008630227 0.7445263 0.66753733
vn -0.9207302 -0.3698252 -0.12443969
vn -0.9207302 -0.3698252 -0.12443969
vn -0.9207302 -0.3698252 -0.12443969
vn -0.8076916 -0.3244215 -0.49232614
vn -0.8076916 -0.3244215 -0.49232614
vn -0.8076916 -0.3244215 -0.49232614
vn -0.81907994 -0.25079924 -0.5159533
vn -0.81907994 -0.25079924 -0.5159533
vn -0.81907994 -0.25079924 -0.5159533
vn 0.31056687 -0.8545935 -0.41619486
vn 0.31056687 -0.8545935 -0.41619486
vn 0.31056687 -0.8545935 -0.41619486
vn -0.14929585 0.82616246 0.54329216
vn -0.14929585 0.82616246 0.54329216
vn -0.14929585 0.82616246 0.54329216
vn -0.9966329 -0.076447286 0.029642645
vn -0.9966329 -0.076447286 0.029642645
vn -0.9966329 -0.076447286 0.029642645
vn 0.5076643 -0.8456239 -0.16491535
vn 0.5076643 -0.8456239 -0.16491535
vn 0.5076643 -0.8456239 -0.16491535
vn 0.8420542 -0.44966143 0.29790807
vn 0.8420542 -0.44966143 0.29790807
vn 0.8420542 -0.44966143 0.29790807
vn 0.8417557 -0.43615836 0.3181403
g SpikyRock_0
f 3/3/3 2/2/2 1/1/1
f 6/6/6 5/5/5 4/4/4
f 9/9/9 8/8/8 7/7/7
f 12/12/12 11/11/11 10/10/10
f 15/15/15 14/14/14 13/13/13
f 18/18/18 17/17/17 16/16/16
f 21/21/21 20/20/20 19/19/19
f 24/24/24 23/23/23 22/22/22
f 27/27/27 26/26/26 25/25/25
f 30/30/30 29/29/29 28/28/28
f 33/33/33 32/32/32 31/31/31
f 36/36/36 35/35/35 34/34/34
f 39/39/39 38/38/38 37/37/37
f 42/42/42 41/41/41 40/40/40
f 45/45/45 44/44/44 43/43/43
f 48/48/48 47/47/47 46/46/46
f 51/51/51 50/50/50 49/49/49
f 52/52/52 51/51/51 49/49/49
