g SpikyRock3
v -5.453403 0.035334855 3.2480924
v -4.1051073 5.134666 3.2480924
v -2.4917922 3.111707 4.7584357
v -0.9853662 5.601693 3.2480922
v 4.8077326 4.185947 3.2480922
v 4.04321 3.3174214 5.5251045
v 4.067279 -0.220144 3.2480924
v 5.321349 -4.713077 3.2480924
v 3.7804384 -1.55876 6.182167
v 1.7953868 -6.1784134 3.2480924
v -4.492591 -4.9562917 3.2480924
v -1.1316097 -3.0592215 7.2279377
v 1.0500616 0.45278683 6.0771894
v 3.2573824 0.78368866 6.583619
v 3.7804384 -1.55876 6.182167
v -1.1316097 -3.0592215 7.2279377
v -0.36677983 -0.6935786 7.188222
v 1.0500616 0.45278683 6.0771894
v 5.321349 -4.713077 3.2480924
v 1.7953868 -6.1784134 3.2480924
v 1.3244141 -2.308991 5.3910637
v -4.1051073 5.134666 3.2480924
v -0.9853662 5.601693 3.2480922
v -2.4917922 3.111707 4.7584357
v 0.77570903 3.214564 6.7633142
v 1.0500616 0.45278683 6.0771894
v -1.8117009 0.026242986 5.2695503
v 4.04321 3.3174214 5.5251045
v 3.2573824 0.78368866 6.583619
v 0.77570903 3.214564 6.7633142
v 4.04321 3.3174214 5.5251045
v 4.8077326 4.185947 3.2480922
v 4.067279 -0.220144 3.2480924
v -0.9853662 5.601693 3.2480922
v 4.04321 3.3174214 5.5251045
v 0.77570903 3.214564 6.7633142
v 4.067279 -0.220144 3.2480924
v 3.7804384 -1.55876 6.182167
v 3.2573824 0.78368866 6.583619
v -1.1316097 -3.0592215 7.2279377
v -1.8117009 0.026242986 5.2695503
v -0.36677983 -0.6935786 7.188222
v 5.321349 -4.713077 3.2480924
v 1.3244141 -2.308991 5.3910637
v 3.7804384 -1.55876 6.182167
v -2.4917922 3.111707 4.7584357
v -0.9853662 5.601693 3.2480922
v 0.77570903 3.214564 6.7633142
v -2.4917922 3.111707 4.7584357
v 0.77570903 3.214564 6.7633142
v -1.8117009 0.026242986 5.2695503
v 0.77570903 3.214564 6.7633142
v 3.2573824 0.78368866 6.583619
v 1.0500616 0.45278683 6.0771894
v 4.04321 3.3174214 5.5251045
v 4.067279 -0.220144 3.2480924
v 3.2573824 0.78368866 6.583619
v -4.492591 -4.9562917 3.2480924
v -1.8117009 0.026242986 5.2695503
v -1.1316097 -3.0592215 7.2279377
v -4.492591 -4.9562917 3.2480924
v 1.7953868 -6.1784134 3.2480924
v -0.5815387 -8.225136 -0.24655557
v 1.3244141 -2.308991 5.3910637
v 1.7953868 -6.1784134 3.2480924
v -1.1316097 -3.0592215 7.2279377
v -0.9853662 5.601693 3.2480922
v -1.9042453 7.293353 -0.24655557
v 6.572154 4.4872155 -0.2465558
v 5.321349 -4.713077 3.2480924
v 4.067279 -0.220144 3.2480924
v 4.7496743 -1.6726332 -0.24655557
v 1.7953868 -6.1784134 3.2480924
v 5.321349 -4.713077 3.2480924
v 6.082049 -5.768403 -0.24655533
v -4.492591 -4.9562917 3.2480924
v -6.345499 -6.0763893 -0.24655557
v -8.139805 -2.2533443 -0.24655557
v 4.8077326 4.185947 3.2480922
v 6.572154 4.4872155 -0.2465558
v 4.7496743 -1.6726332 -0.24655557
v 1.0500616 0.45278683 6.0771894
v -0.36677983 -0.6935786 7.188222
v -1.8117009 0.026242986 5.2695503
v -4.492591 -4.9562917 3.2480924
v -0.5815387 -8.225136 -0.24655557
v -6.345499 -6.0763893 -0.24655557
v -0.9853662 5.601693 3.2480922
v 6.572154 4.4872155 -0.2465558
v 4.8077326 4.185947 3.2480922
v 5.321349 -4.713077 3.2480924
v 4.7496743 -1.6726332 -0.24655557
v 6.082049 -5.768403 -0.24655533
v 1.7953868 -6.1784134 3.2480924
v 6.082049 -5.768403 -0.24655533
v -0.5815387 -8.225136 -0.24655557
v -4.492591 -4.9562917 3.2480924
v -8.139805 -2.2533443 -0.24655557
v -5.453403 0.035334855 3.2480924
v 4.8077326 4.185947 3.2480922
v 4.7496743 -1.6726332 -0.24655557
v 4.067279 -0.220144 3.2480924
v 1.0500616 0.45278683 6.0771894
v 3.7804384 -1.55876 6.182167
v 1.3244141 -2.308991 5.3910637
v -1.1316097 -3.0592215 7.2279377
v -4.492591 -4.9562917 3.2480924
v -5.453403 0.035334855 3.2480924
v -2.4917922 3.111707 4.7584357
v -1.8117009 0.026242986 5.2695503
v -4.1051073 5.134666 3.2480924
v -5.453403 0.035334855 3.2480924
v -8.139805 -2.2533443 -0.24655557
v -5.8548226 6.7019496 -0.24655557
v -4.1051073 5.134666 3.2480924
v -5.8548226 6.7019496 -0.24655557
v -1.9042453 7.293353 -0.24655557
v -0.9853662 5.601693 3.2480922
vt 0.375 0.12499999
vt 0.375 0.25
vt 0.625 0.25
vt 0.375 0.375
vt 0.375 0.5
vt 0.625 0.5
vt 0.375 0.625
vt 0.375 0.75
vt 0.625 0.75
vt 0.375 0.875
vt 0.375 1
vt 0.625 1
vt 0.75 0.625
vt 0.625 0.625
vt 0.625 0.75
vt 0.625 1
vt 0.625 0.125
vt 0.75 0.625
vt 0.375 0.75
vt 0.375 0.875
vt 0.625 0.875
vt 0.375 0.25
vt 0 0
vt 0.625 0.25
vt 0.75 0.5
vt 0.75 0.625
vt 0.87499994 0.62499994
vt 0.625 0.5
vt 0.625 0.625
vt 0.75 0.5
vt 0.625 0.5
vt 0.375 0.5
vt 0.375 0.625
vt 0.375 0.375
vt 0.625 0.5
vt 0.625 0.375
vt 0.375 0.625
vt 0.625 0.75
vt 0.625 0.625
vt 0.625 0
vt 0.625 0.125
vt 0.625 0.125
vt 0.375 0.75
vt 0.625 0.875
vt 0.625 0.75
vt 0.625 0.25
vt 0.375 0.375
vt 0.625 0.375
vt 0.625 0.25
vt 0.625 0.375
vt 0.87499994 0.62499994
vt 0.75 0.5
vt 0.625 0.625
vt 0.75 0.625
vt 0.625 0.5
vt 0.375 0.625
vt 0.625 0.625
vt 0.375 0
vt 0.625 0.125
vt 0.625 0
vt 0.375 1
vt 0.375 0.875
vt 0.375 0.875
vt 0.625 0.875
vt 0.375 0.875
vt 0.625 1
vt 0.375 0.375
vt 0.375 0.375
vt 0.375 0.5
vt 0.375 0.75
vt 0.375 0.625
vt 0.375 0.625
vt 0.375 0.875
vt 0.375 0.75
vt 0.375 0.75
vt 0 0
vt 0 0
vt 0 0
vt 0.375 0.5
vt 0.375 0.5
vt 0.375 0.625
vt 0.75 0.625
vt 0.87499994 0.62499994
vt 0.87499994 0.62499994
vt 0.375 1
vt 0.375 0.875
vt 0.375 1
vt 0.375 0.375
vt 0.375 0.5
vt 0.375 0.5
vt 0.375 0.75
vt 0.375 0.625
vt 0.375 0.75
vt 0.375 0.875
vt 0.375 0.75
vt 0.375 0.875
vt 0 0
vt 0 0
vt 0 0
vt 0.375 0.5
vt 0.375 0.625
vt 0.375 0.625
vt 0.75 0.625
vt 0.625 0.75
vt 0.625 0.875
vt 0.625 1
vt 0.375 0
vt 0 0
vt 0.625 0.25
vt 0.87499994 0.62499994
vt 0.375 0.25
vt 0.375 0.12499999
vt 0.375 0.12499999
vt 0.375 0.25
vt 0 0
vt 0 0
vt 0 0
vt 0 0
vn -0.5686116 0.15034455 0.80875045
vn -0.5686116 0.15034455 0.80875045
vn -0.5686116 0.15034455 0.80875045
vn 0.21646987 0.88577366 0.41054317
vn 0.21646987 0.88577366 0.41054317
vn 0.21646987 0.88577366 0.41054317
vn 0.9413122 0.26273978 0.21189445
vn 0.9413122 0.26273978 0.21189445
vn 0.9413122 0.26273978 0.21189445
vn -0.16149476 -0.83091164 0.53245217
vn -0.16149476 -0.83091164 0.53245217
vn -0.16149476 -0.83091164 0.53245217
vn -0.18923853 -0.20676735 0.95991457
vn -0.18923853 -0.20676735 0.95991457
vn -0.18923853 -0.20676735 0.95991457
vn 0.3589425 -0.2140717 0.9084787
vn 0.3589425 -0.2140717 0.9084787
vn 0.3589425 -0.2140717 0.9084787
vn 0.19025922 -0.45781067 0.8684531
vn 0.19025922 -0.45781067 0.8684531
vn 0.19025922 -0.45781067 0.8684531
vn -0.08278015 0.55297244 0.8290773
vn -0.08278015 0.55297244 0.8290773
vn -0.08278015 0.55297244 0.8290773
vn -0.22702721 -0.25599343 0.9396415
vn -0.22702721 -0.25599343 0.9396415
vn -0.22702721 -0.25599343 0.9396415
vn 0.3332971 0.27356556 0.90226096
vn 0.3332971 0.27356556 0.90226096
vn 0.3332971 0.27356556 0.90226096
vn 0.95258033 -0.16008317 0.25877437
vn 0.95258033 -0.16008317 0.25877437
vn 0.95258033 -0.16008317 0.25877437
vn 0.16175768 0.85216105 0.49765047
vn 0.16175768 0.85216105 0.49765047
vn 0.16175768 0.85216105 0.49765047
vn 0.96629435 0.1851051 0.17891738
vn 0.96629435 0.1851051 0.17891738
vn 0.96629435 0.1851051 0.17891738
vn -0.72767085 0.24601072 0.640292
vn -0.72767085 0.24601072 0.640292
vn -0.72767085 0.24601072 0.640292
vn -0.023990914 -0.6871445 0.7261245
vn -0.023990914 -0.6871445 0.7261245
vn -0.023990914 -0.6871445 0.7261245
vn -0.41549662 0.64213705 0.6442224
vn -0.41549662 0.64213705 0.6442224
vn -0.41549662 0.64213705 0.6442224
vn -0.52339715 0.025720146 0.8517006
vn -0.52339715 0.025720146 0.8517006
vn -0.52339715 0.025720146 0.8517006
vn -0.1799609 -0.25397143 0.9503223
vn -0.1799609 -0.25397143 0.9503223
vn -0.1799609 -0.25397143 0.9503223
vn 0.9434225 -0.174909 0.28171074
vn 0.9434225 -0.174909 0.28171074
vn 0.9434225 -0.174909 0.28171074
vn -0.7930123 0.19214147 0.57811165
vn -0.7930123 0.19214147 0.57811165
vn -0.7930123 0.19214147 0.57811165
vn -0.15595604 -0.8024144 0.57602835
vn -0.15595604 -0.8024144 0.57602835
vn -0.15595604 -0.8024144 0.57602835
vn 0.62823194 -0.31702742 0.71050555
vn 0.62823194 -0.31702742 0.71050555
vn 0.62823194 -0.31702742 0.71050555
vn 0.29408354 0.8883276 0.35268813
vn 0.29408354 0.8883276 0.35268813
vn 0.29408354 0.8883276 0.35268813
vn 0.9603892 0.2680644 0.07611765
vn 0.9603892 0.2680644 0.07611765
vn 0.9603892 0.2680644 0.07611765
vn 0.3608022 -0.86817974 0.34071347
vn 0.3608022 -0.86817974 0.34071347
vn 0.3608022 -0.86817974 0.34071347
vn -0.7707013 -0.36172047 0.52457386
vn -0.7707013 -0.36172047 0.52457386
vn -0.7707013 -0.36172047 0.52457386
vn 0.8712643 -0.25777602 0.41767228
vn 0.8712643 -0.25777602 0.41767228
vn 0.8712643 -0.25777602 0.41767228
vn -0.26539677 0.8198048 0.50742954
vn -0.26539677 0.8198048 0.50742954
vn -0.26539677 0.8198048 0.50742954
vn -0.31422678 -0.84290576 0.43677402
vn -0.31422678 -0.84290576 0.43677402
vn -0.31422678 -0.84290576 0.43677402
vn 0.23262572 0.9518825 0.19951186
vn 0.23262572 0.9518825 0.19951186
vn 0.23262572 0.9518825 0.19951186
vn 0.94487363 0.30737215 0.11285466
vn 0.94487363 0.30737215 0.11285466
vn 0.94487363 0.30737215 0.11285466
vn 0.33000973 -0.8951111 0.29978275
vn 0.33000973 -0.8951111 0.29978275
vn 0.33000973 -0.8951111 0.29978275
vn -0.7376751 -0.14199138 0.66005605
vn -0.7376751 -0.14199138 0.66005605
vn -0.7376751 -0.14199138 0.66005605
vn 0.9541009 -0.16033903 0.25294816
vn 0.9541009 -0.16033903 0.25294816
vn 0.9541009 -0.16033903 0.25294816
vn 0.3589425 -0.2140717 0.9084787
vn 0.3589425 -0.2140717 0.9084787
vn 0.3589425 -0.2140717 0.9084787
vn 0.3589425 -0.2140717 0.9084787
vn -0.48495784 -0.043249067 0.8734675
vn -0.48495784 -0.043249067 0.8734675
vn -0.48495784 -0.043249067 0.8734675
vn -0.48495784 -0.043249067 0.8734675
vn -0.83782583 0.22152667 0.49897262
vn -0.83782583 0.22152667 0.49897262
vn -0.83782583 0.22152667 0.49897262
vn -0.8323306 0.21237274 0.51198006
vn -0.13147855 0.87827724 0.45972
vn -0.13147855 0.87827724 0.45972
vn -0.13147855 0.87827724 0.45972
vn -0.13147864 0.87827736 0.45971984
g SpikyRock3_0
f 3/3/3 2/2/2 1/1/1
f 6/6/6 5/5/5 4/4/4
f 9/9/9 8/8/8 7/7/7
f 12/12/12 11/11/11 10/10/10
f 15/15/15 14/14/14 13/13/13
f 18/18/18 17/17/17 16/16/16
f 21/21/21 20/20/20 19/19/19
f 24/24/24 23/23/23 22/22/22
f 27/27/27 26/26/26 25/25/25
f 30/30/30 29/29/29 28/28/28
f 33/33/33 32/32/32 31/31/31
f 36/36/36 35/35/35 34/34/34
f 39/39/39 38/38/38 37/37/37
f 42/42/42 41/41/41 40/40/40
f 45/45/45 44/44/44 43/43/43
f 48/48/48 47/47/47 46/46/46
f 51/51/51 50/50/50 49/49/49
f 54/54/54 53/53/53 52/52/52
f 57/57/57 56/56/56 55/55/55
f 60/60/60 59/59/59 58/58/58
f 63/63/63 62/62/62 61/61/61
f 66/66/66 65/65/65 64/64/64
f 69/69/69 68/68/68 67/67/67
f 72/72/72 71/71/71 70/70/70
f 75/75/75 74/74/74 73/73/73
f 78/78/78 77/77/77 76/76/76
f 81/81/81 80/80/80 79/79/79
f 84/84/84 83/83/83 82/82/82
f 87/87/87 86/86/86 85/85/85
f 90/90/90 89/89/89 88/88/88
f 93/93/93 92/92/92 91/91/91
f 96/96/96 95/95/95 94/94/94
f 99/99/99 98/98/98 97/97/97
f 102/102/102 101/101/101 100/100/100
f 105/105/105 104/104/104 103/103/103
f 103/103/103 106/106/106 105/105/105
f 109/109/109 108/108/108 107/107/107
f 110/110/110 109/109/109 107/107/107
f 113/113/113 112/112/112 111/111/111
f 114/114/114 113/113/113 111/111/111
f 117/117/117 116/116/116 115/115/115
f 118/118/118 117/117/117 115/115/115
