g Summoning Circle Lvl 2
v -1.5611424 3.7690887 -0.1619238
v 0.00012609191 4.079644 -0.1619238
v 0.00012599755 3.7139697 0.121879786
v -1.4212052 3.431248 0.121879786
v -2.8847218 2.8847 -0.1619238
v -1.361068 3.286066 0.121879786
v 0.00012624683 3.5568244 0.121879786
v -2.5150332 2.5150108 0.121879786
v -2.6261508 2.6261287 0.121879786
v -3.7691095 1.5611206 -0.1619238
v -3.2860866 1.3610464 0.121879786
v -3.4312708 1.4211824 0.121879786
v -4.079665 -0.00014864079 -0.1619238
v -3.556845 -0.00014827179 0.121879786
v -3.7139904 -0.00014874102 0.121879786
v -3.7691095 -1.5614177 -0.1619238
v -3.2860866 -1.3613427 0.121879786
v -3.431269 -1.4214802 0.121879786
v -2.8847218 -2.8849964 -0.1619238
v -2.515031 -2.5153077 0.121879786
v -2.6261508 -2.6264255 0.121879786
v -1.5611417 -3.7693846 -0.1619238
v -1.361067 -3.2863615 0.121879786
v -1.4212043 -3.4315455 0.121879786
v 0.00012751571 -4.07994 -0.1619238
v 0.0001274822 -3.5571198 0.121879786
v 0.00012729032 -3.7142653 0.121879786
v 1.5613967 -3.7693846 -0.1619238
v 1.3613219 -3.2863615 0.121879786
v 1.4214585 -3.4315436 0.121879786
v 2.8849754 -2.8849964 -0.1619238
v 2.5152872 -2.5153058 0.121879786
v 2.6264045 -2.6264255 0.121879786
v 3.7693636 -1.561416 -0.1619238
v 3.2863407 -1.3613416 0.121879786
v 3.4315248 -1.4214784 0.121879786
v 4.079919 -0.00014721202 -0.1619238
v 3.5570996 -0.00014702877 0.121879786
v 3.7142444 -0.00014744126 0.121879786
v 3.7693636 1.5611215 -0.1619238
v 3.2863407 1.3610474 0.121879786
v 3.431523 1.4211842 0.121879786
v 2.8849754 2.8847015 -0.1619238
v 2.5152853 2.5150127 0.121879786
v 2.6264045 2.6261303 0.121879786
v 1.5613949 3.7690887 -0.1619238
v 1.361321 3.286066 0.121879786
v 1.4214576 3.4312496 0.121879786
v 0.00012609191 4.079644 -0.1619238
v 0.00012624683 3.5568244 0.121879786
v 0.00012599755 3.7139697 0.121879786
v 1.361321 3.286066 0.121879786
v 0.00012634695 3.4536927 0.27890426
v 0.00012624683 3.5568244 0.121879786
v 1.3218542 3.1907847 0.27890426
v 2.5152853 2.5150127 0.121879786
v 2.4423602 2.4420874 0.27890426
v 3.2863407 1.3610474 0.121879786
v 3.1910596 1.3215804 0.27890426
v 3.5570996 -0.00014702877 0.121879786
v 3.4539678 -0.00014718994 0.27890426
v 3.2863407 -1.3613416 0.121879786
v 3.1910596 -1.321875 0.27890426
v 2.5152872 -2.5153058 0.121879786
v 2.442362 -2.4423807 0.27890426
v 1.3613219 -3.2863615 0.121879786
v 1.3218552 -3.1910803 0.27890426
v 0.0001274822 -3.5571198 0.121879786
v 0.00012754649 -3.4539883 0.27890426
v -1.361067 -3.2863615 0.121879786
v -1.3216002 -3.1910803 0.27890426
v -2.515031 -2.5153077 0.121879786
v -2.442106 -2.4423826 0.27890426
v -3.2860866 -1.3613427 0.121879786
v -3.1908052 -1.3218759 0.27890426
v -3.556845 -0.00014827179 0.121879786
v -3.4537132 -0.00014839694 0.27890426
v -3.2860866 1.3610464 0.121879786
v -3.1908052 1.3215795 0.27890426
v -2.5150332 2.5150108 0.121879786
v -2.442108 2.4420855 0.27890426
v -1.361068 3.286066 0.121879786
v -1.3216012 3.1907847 0.27890426
v 0.00012624683 3.5568244 0.121879786
v 0.00012634695 3.4536927 0.27890426
v 1.2507641 3.0191586 0.2745613
v 0.00012617589 2.8120599 -0.38601124
v 0.00012608616 3.2679257 0.2745613
v 1.0763117 2.5979936 -0.38601124
v 2.3110027 2.3107293 0.2745613
v 1.9886578 1.9883832 -0.38601124
v 3.0194333 1.2504904 0.2745613
v 2.5982683 1.0760379 -0.38601124
v 3.268201 -0.00014749124 0.2745613
v 2.8123345 -0.00014756057 -0.38601124
v 3.0194333 -1.2507854 0.2745613
v 2.5982683 -1.076333 -0.38601124
v 2.3110049 -2.3110242 0.2745613
v 1.9886578 -1.9886793 -0.38601124
v 1.2507652 -3.0194547 0.2745613
v 1.0763128 -2.5982895 -0.38601124
v 0.00012722814 -3.268222 0.2745613
v 0.00012715474 -2.812356 -0.38601124
v -1.2505107 -3.0194547 0.2745613
v -1.0760585 -2.5982895 -0.38601124
v -2.3107495 -2.3110263 0.2745613
v -1.9884043 -1.9886793 -0.38601124
v -3.0191793 -1.2507864 0.2745613
v -2.5980146 -1.0763341 -0.38601124
v -3.2679472 -0.00014863322 0.2745613
v -2.8120813 -0.0001485394 -0.38601124
v -3.0191793 1.2504894 0.2745613
v -2.5980146 1.0760368 -0.38601124
v -2.3107517 2.3107293 0.2745613
v -1.9884053 1.9883832 -0.38601124
v -1.2505118 3.0191586 0.2745613
v -1.076059 2.5979936 -0.38601124
v 0.00012608616 3.2679257 0.2745613
v 0.00012617589 2.8120599 -0.38601124
v 0.00012634695 3.4536927 0.27890426
v 0.00012635191 3.4536927 0.44921136
v -1.3216012 3.1907847 0.44921136
v -1.3216012 3.1907847 0.27890426
v -1.2505118 3.0191586 0.4448684
v 0.00012609112 3.2679257 0.4448684
v 0.00012635191 3.4536927 0.44921136
v -1.2505118 3.0191586 0.2745613
v 0.00012608616 3.2679257 0.2745613
v -2.3107517 2.3107293 0.2745613
v -2.442108 2.4420855 0.27890426
v -2.442108 2.4420855 0.44921136
v -2.3107517 2.3107293 0.4448684
v -3.0191793 1.2504894 0.2745613
v -3.1908052 1.3215795 0.44921136
v -3.1908052 1.3215795 0.27890426
v -3.0191793 1.2504894 0.4448684
v -3.2679472 -0.00014863322 0.2745613
v -3.4537132 -0.00014839694 0.27890426
v -3.4537132 -0.00014839273 0.44921136
v -3.2679472 -0.00014862901 0.4448684
v -3.0191793 -1.2507864 0.2745613
v -3.1908052 -1.3218759 0.44921136
v -3.1908052 -1.3218759 0.27890426
v -3.0191793 -1.2507864 0.4448684
v -2.3107495 -2.3110263 0.2745613
v -2.442106 -2.4423826 0.27890426
v -2.442106 -2.4423826 0.44921136
v -2.3107495 -2.3110263 0.4448684
v -1.2505107 -3.0194547 0.2745613
v -1.3216002 -3.1910803 0.44921136
v -1.3216002 -3.1910803 0.27890426
v -1.2505107 -3.0194547 0.4448684
v 0.00012722814 -3.268222 0.2745613
v 0.00012754649 -3.4539883 0.27890426
v 0.00012755145 -3.4539883 0.44921136
v 0.0001272331 -3.268222 0.4448684
v 1.2507652 -3.0194547 0.2745613
v 1.3218552 -3.1910803 0.44921136
v 1.3218552 -3.1910803 0.27890426
v 1.2507652 -3.0194547 0.4448684
v 2.3110049 -2.3110242 0.2745613
v 2.442362 -2.4423807 0.27890426
v 2.442362 -2.4423807 0.44921136
v 2.3110049 -2.3110242 0.4448684
v 3.0194333 -1.2507854 0.2745613
v 3.1910596 -1.321875 0.44921136
v 3.1910596 -1.321875 0.27890426
v 3.0194333 -1.2507854 0.4448684
v 3.268201 -0.00014749124 0.2745613
v 3.4539678 -0.00014718994 0.27890426
v 3.4539678 -0.00014718574 0.44921136
v 3.268201 -0.00014748704 0.4448684
v 3.0194333 1.2504904 0.2745613
v 3.1910596 1.3215804 0.44921136
v 3.1910596 1.3215804 0.27890426
v 3.0194333 1.2504904 0.4448684
v 2.3110027 2.3107293 0.2745613
v 2.4423602 2.4420874 0.27890426
v 2.4423602 2.4420874 0.44921136
v 2.3110027 2.3107293 0.4448684
v 1.2507641 3.0191586 0.2745613
v 1.3218542 3.1907847 0.44921136
v 1.3218542 3.1907847 0.27890426
v 1.2507641 3.0191586 0.4448684
v 0.00012608616 3.2679257 0.2745613
v 0.00012634695 3.4536927 0.27890426
v 0.00012609112 3.2679257 0.4448684
v 1.4445639 -1.3059944 0.22587544
v 1.5718839 -1.7340846 0.22587544
v 1.3349051 -2.1005495 0.22554159
v 1.1402022 -1.4458987 0.22554159
v 0.4658214 1.9848485 0.22587544
v -0.49393666 -0.112732865 0.22554159
v -0.5886812 -0.33726332 0.22554159
v 0.22884223 1.6183826 0.22554159
v 0.16150731 2.2891626 0.24318737
v -0.06704703 1.9479065 0.24352124
v -0.71476305 0.15918541 0.22421217
v -0.97710633 0.5890908 0.24485064
v -0.9032655 -0.13231575 0.2239466
v -1.2489463 0.18320423 0.24524775
v -2.0330765 1.268721 0.2449584
v -2.0673509 1.2175455 0.24500847
v -1.3188841 -0.77503115 0.22336105
v -1.7326571 -0.53902745 0.24595436
v -1.7732334 -1.477639 0.22272095
v -1.997947 -0.9351336 0.24634188
v 2.1380582 0.38182798 0.22272095
v 2.4131267 0.80719584 0.22310847
v 0.09965012 0.57340014 0.28893927
v 0.25786766 0.4151826 0.28893927
v 0.25786766 0.26608026 0.28893927
v 0.09965012 0.10786274 0.28893927
v -0.049452238 0.57340014 0.28893927
v -0.049452238 0.10786274 0.28893927
v -0.20766976 0.4151826 0.28893927
v -0.20766976 0.26608026 0.28893927
v 0.026137352 -3.0960832 -0.09429979
v 0.36471856 -3.2591352 -0.09429979
v 0.36471856 -3.2591352 1.9057002
v 0.026137352 -3.0960832 1.9057002
v 0.36471856 -3.2591352 -0.09429979
v 0.44834122 -3.62551 -0.09429979
v 0.44834122 -3.62551 1.9057002
v 0.36471856 -3.2591352 1.9057002
v 0.44834122 -3.62551 -0.09429979
v 0.21403575 -3.9193199 -0.09429979
v 0.21403575 -3.9193199 1.9057002
v 0.44834122 -3.62551 1.9057002
v 0.21403575 -3.9193199 -0.09429979
v -0.16176106 -3.9193199 -0.09429979
v -0.16176106 -3.9193199 1.9057002
v 0.21403575 -3.9193199 1.9057002
v -0.16176106 -3.9193199 -0.09429979
v -0.39606652 -3.62551 -0.09429979
v -0.39606652 -3.62551 1.9057002
v -0.16176106 -3.9193199 1.9057002
v 0.026141677 -3.4327843 1.9057002
v 0.026141705 -3.4327843 2.5100026
v -0.049196284 -3.4690652 2.5100026
v -0.0491963 -3.4690652 1.9057002
v -0.39606652 -3.62551 -0.09429979
v -0.31244385 -3.2591352 -0.09429979
v -0.31244385 -3.2591352 1.9057002
v -0.39606652 -3.62551 1.9057002
v -0.31244385 -3.2591352 -0.09429979
v 0.026137352 -3.0960832 -0.09429979
v 0.026137352 -3.0960832 1.9057002
v -0.31244385 -3.2591352 1.9057002
v 0.21403575 -3.9193199 -0.09429979
v 0.44834122 -3.62551 -0.09429979
v 0.36471856 -3.2591352 -0.09429979
v 0.026137352 -3.0960832 -0.09429979
v -0.16176106 -3.9193199 -0.09429979
v -0.31244385 -3.2591352 -0.09429979
v -0.39606652 -3.62551 -0.09429979
v 0.026141677 -3.4327843 1.9057002
v 0.026137352 -3.0960832 1.9057002
v 0.36471856 -3.2591352 1.9057002
v 0.10147965 -3.4690652 1.9057002
v 0.44834122 -3.62551 1.9057002
v 0.12008661 -3.5505877 1.9057002
v 0.12008661 -3.5505877 1.9057002
v 0.44834122 -3.62551 1.9057002
v 0.21403575 -3.9193199 1.9057002
v 0.06795111 -3.6159635 1.9057002
v 0.06795111 -3.6159635 1.9057002
v 0.21403575 -3.9193199 1.9057002
v -0.16176106 -3.9193199 1.9057002
v -0.015667763 -3.6159635 1.9057002
v -0.39606652 -3.62551 1.9057002
v -0.06780328 -3.5505877 1.9057002
v -0.31244385 -3.2591352 1.9057002
v -0.0491963 -3.4690652 1.9057002
v -0.0491963 -3.4690652 1.9057002
v 0.026137352 -3.0960832 1.9057002
v 0.026141677 -3.4327843 1.9057002
v 0.10147968 -3.4690652 2.5100026
v 0.12008664 -3.5505877 2.5100026
v 0.06795114 -3.6159635 2.5100026
v 0.026141705 -3.4327843 2.5100026
v -0.015667733 -3.6159635 2.5100026
v -0.049196284 -3.4690652 2.5100026
v -0.06780326 -3.5505877 2.5100026
v -0.06780328 -3.5505877 1.9057002
v -0.06780326 -3.5505877 2.5100026
v -0.015667733 -3.6159635 2.5100026
v -0.015667763 -3.6159635 1.9057002
v 0.06795111 -3.6159635 1.9057002
v 0.06795114 -3.6159635 2.5100026
v 0.12008664 -3.5505877 2.5100026
v 0.12008661 -3.5505877 1.9057002
v 0.10147965 -3.4690652 1.9057002
v 0.10147968 -3.4690652 2.5100026
v 0.026141705 -3.4327843 2.5100026
v 0.026141677 -3.4327843 1.9057002
v -0.0491963 -3.4690652 1.9057002
v -0.049196284 -3.4690652 2.5100026
v -0.06780326 -3.5505877 2.5100026
v -0.06780328 -3.5505877 1.9057002
v -0.015667763 -3.6159635 1.9057002
v -0.015667733 -3.6159635 2.5100026
v 0.06795114 -3.6159635 2.5100026
v 0.06795111 -3.6159635 1.9057002
v 0.12008661 -3.5505877 1.9057002
v 0.12008664 -3.5505877 2.5100026
v 0.10147968 -3.4690652 2.5100026
v 0.10147965 -3.4690652 1.9057002
v -3.3592255 -1.057023 -0.09429979
v -3.0206442 -1.2200751 -0.09429979
v -3.0206442 -1.2200751 1.9057002
v -3.3592255 -1.057023 1.9057002
v -3.0206442 -1.2200751 -0.09429979
v -2.9370217 -1.5864499 -0.09429979
v -2.9370217 -1.5864499 1.9057002
v -3.0206442 -1.2200751 1.9057002
v -2.9370217 -1.5864499 -0.09429979
v -3.171327 -1.8802598 -0.09429979
v -3.171327 -1.8802598 1.9057002
v -2.9370217 -1.5864499 1.9057002
v -3.171327 -1.8802598 -0.09429979
v -3.547124 -1.8802598 -0.09429979
v -3.547124 -1.8802598 1.9057002
v -3.171327 -1.8802598 1.9057002
v -3.547124 -1.8802598 -0.09429979
v -3.7814293 -1.5864499 -0.09429979
v -3.7814293 -1.5864499 1.9057002
v -3.547124 -1.8802598 1.9057002
v -3.3592212 -1.3937242 1.9057002
v -3.3592212 -1.3937242 2.5100026
v -3.434559 -1.4300051 2.5100026
v -3.434559 -1.4300051 1.9057002
v -3.7814293 -1.5864499 -0.09429979
v -3.6978068 -1.2200751 -0.09429979
v -3.6978068 -1.2200751 1.9057002
v -3.7814293 -1.5864499 1.9057002
v -3.6978068 -1.2200751 -0.09429979
v -3.3592255 -1.057023 -0.09429979
v -3.3592255 -1.057023 1.9057002
v -3.6978068 -1.2200751 1.9057002
v -3.171327 -1.8802598 -0.09429979
v -2.9370217 -1.5864499 -0.09429979
v -3.0206442 -1.2200751 -0.09429979
v -3.3592255 -1.057023 -0.09429979
v -3.547124 -1.8802598 -0.09429979
v -3.6978068 -1.2200751 -0.09429979
v -3.7814293 -1.5864499 -0.09429979
v -3.3592212 -1.3937242 1.9057002
v -3.3592255 -1.057023 1.9057002
v -3.0206442 -1.2200751 1.9057002
v -3.283883 -1.4300051 1.9057002
v -2.9370217 -1.5864499 1.9057002
v -3.2652762 -1.5115275 1.9057002
v -3.2652762 -1.5115275 1.9057002
v -2.9370217 -1.5864499 1.9057002
v -3.171327 -1.8802598 1.9057002
v -3.3174117 -1.5769033 1.9057002
v -3.3174117 -1.5769033 1.9057002
v -3.171327 -1.8802598 1.9057002
v -3.547124 -1.8802598 1.9057002
v -3.4010305 -1.5769033 1.9057002
v -3.7814293 -1.5864499 1.9057002
v -3.4531662 -1.5115275 1.9057002
v -3.6978068 -1.2200751 1.9057002
v -3.434559 -1.4300051 1.9057002
v -3.434559 -1.4300051 1.9057002
v -3.3592255 -1.057023 1.9057002
v -3.3592212 -1.3937242 1.9057002
v -3.283883 -1.4300051 2.5100026
v -3.2652762 -1.5115275 2.5100026
v -3.3174117 -1.5769033 2.5100026
v -3.3592212 -1.3937242 2.5100026
v -3.4010305 -1.5769033 2.5100026
v -3.434559 -1.4300051 2.5100026
v -3.453166 -1.5115275 2.5100026
v -3.4531662 -1.5115275 1.9057002
v -3.453166 -1.5115275 2.5100026
v -3.4010305 -1.5769033 2.5100026
v -3.4010305 -1.5769033 1.9057002
v -3.3174117 -1.5769033 1.9057002
v -3.3174117 -1.5769033 2.5100026
v -3.2652762 -1.5115275 2.5100026
v -3.2652762 -1.5115275 1.9057002
v -3.283883 -1.4300051 1.9057002
v -3.283883 -1.4300051 2.5100026
v -3.3592212 -1.3937242 2.5100026
v -3.3592212 -1.3937242 1.9057002
v -3.434559 -1.4300051 1.9057002
v -3.434559 -1.4300051 2.5100026
v -3.453166 -1.5115275 2.5100026
v -3.4531662 -1.5115275 1.9057002
v -3.4010305 -1.5769033 1.9057002
v -3.4010305 -1.5769033 2.5100026
v -3.3174117 -1.5769033 2.5100026
v -3.3174117 -1.5769033 1.9057002
v -3.2652762 -1.5115275 1.9057002
v -3.2652762 -1.5115275 2.5100026
v -3.283883 -1.4300051 2.5100026
v -3.283883 -1.4300051 1.9057002
v -1.5685122 3.4916496 -0.09429979
v -1.2299309 3.3285975 -0.09429979
v -1.2299309 3.3285975 1.9057002
v -1.5685122 3.4916496 1.9057002
v -1.2299309 3.3285975 -0.09429979
v -1.1463084 2.9622228 -0.09429979
v -1.1463084 2.9622228 1.9057002
v -1.2299309 3.3285975 1.9057002
v -1.1463084 2.9622228 -0.09429979
v -1.3806138 2.668413 -0.09429979
v -1.3806138 2.668413 1.9057002
v -1.1463084 2.9622228 1.9057002
v -1.3806138 2.668413 -0.09429979
v -1.7564106 2.668413 -0.09429979
v -1.7564106 2.668413 1.9057002
v -1.3806138 2.668413 1.9057002
v -1.7564106 2.668413 -0.09429979
v -1.990716 2.9622228 -0.09429979
v -1.990716 2.9622228 1.9057002
v -1.7564106 2.668413 1.9057002
v -1.5685079 3.1549485 1.9057002
v -1.5685079 3.1549485 2.5100026
v -1.6438458 3.1186676 2.5100026
v -1.6438458 3.1186676 1.9057002
v -1.990716 2.9622228 -0.09429979
v -1.9070935 3.3285975 -0.09429979
v -1.9070935 3.3285975 1.9057002
v -1.990716 2.9622228 1.9057002
v -1.9070935 3.3285975 -0.09429979
v -1.5685122 3.4916496 -0.09429979
v -1.5685122 3.4916496 1.9057002
v -1.9070935 3.3285975 1.9057002
v -1.3806138 2.668413 -0.09429979
v -1.1463084 2.9622228 -0.09429979
v -1.2299309 3.3285975 -0.09429979
v -1.5685122 3.4916496 -0.09429979
v -1.7564106 2.668413 -0.09429979
v -1.9070935 3.3285975 -0.09429979
v -1.990716 2.9622228 -0.09429979
v -1.5685079 3.1549485 1.9057002
v -1.5685122 3.4916496 1.9057002
v -1.2299309 3.3285975 1.9057002
v -1.4931698 3.1186676 1.9057002
v -1.1463084 2.9622228 1.9057002
v -1.4745629 3.0371451 1.9057002
v -1.4745629 3.0371451 1.9057002
v -1.1463084 2.9622228 1.9057002
v -1.3806138 2.668413 1.9057002
v -1.5266984 2.9717693 1.9057002
v -1.5266984 2.9717693 1.9057002
v -1.3806138 2.668413 1.9057002
v -1.7564106 2.668413 1.9057002
v -1.6103172 2.9717693 1.9057002
v -1.990716 2.9622228 1.9057002
v -1.6624529 3.0371451 1.9057002
v -1.9070935 3.3285975 1.9057002
v -1.6438458 3.1186676 1.9057002
v -1.6438458 3.1186676 1.9057002
v -1.5685122 3.4916496 1.9057002
v -1.5685079 3.1549485 1.9057002
v -1.4931698 3.1186676 2.5100026
v -1.4745629 3.0371451 2.5100026
v -1.5266984 2.9717693 2.5100026
v -1.5685079 3.1549485 2.5100026
v -1.6103172 2.9717693 2.5100026
v -1.6438458 3.1186676 2.5100026
v -1.6624527 3.0371451 2.5100026
v -1.6624529 3.0371451 1.9057002
v -1.6624527 3.0371451 2.5100026
v -1.6103172 2.9717693 2.5100026
v -1.6103172 2.9717693 1.9057002
v -1.5266984 2.9717693 1.9057002
v -1.5266984 2.9717693 2.5100026
v -1.4745629 3.0371451 2.5100026
v -1.4745629 3.0371451 1.9057002
v -1.4931698 3.1186676 1.9057002
v -1.4931698 3.1186676 2.5100026
v -1.5685079 3.1549485 2.5100026
v -1.5685079 3.1549485 1.9057002
v -1.6438458 3.1186676 1.9057002
v -1.6438458 3.1186676 2.5100026
v -1.6624527 3.0371451 2.5100026
v -1.6624529 3.0371451 1.9057002
v -1.6103172 2.9717693 1.9057002
v -1.6103172 2.9717693 2.5100026
v -1.5266984 2.9717693 2.5100026
v -1.5266984 2.9717693 1.9057002
v -1.4745629 3.0371451 1.9057002
v -1.4745629 3.0371451 2.5100026
v -1.4931698 3.1186676 2.5100026
v -1.4931698 3.1186676 1.9057002
v 3.3722875 1.5310147 -0.09429979
v 3.7108688 1.3679626 -0.09429979
v 3.7108688 1.3679626 1.9057002
v 3.3722875 1.5310147 1.9057002
v 3.7108688 1.3679626 -0.09429979
v 3.7944913 1.0015879 -0.09429979
v 3.7944913 1.0015879 1.9057002
v 3.7108688 1.3679626 1.9057002
v 3.7944913 1.0015879 -0.09429979
v 3.560186 0.707778 -0.09429979
v 3.560186 0.707778 1.9057002
v 3.7944913 1.0015879 1.9057002
v 3.560186 0.707778 -0.09429979
v 3.184389 0.707778 -0.09429979
v 3.184389 0.707778 1.9057002
v 3.560186 0.707778 1.9057002
v 3.184389 0.707778 -0.09429979
v 2.9500837 1.0015879 -0.09429979
v 2.9500837 1.0015879 1.9057002
v 3.184389 0.707778 1.9057002
v 3.3722918 1.1943135 1.9057002
v 3.3722918 1.1943135 2.5100026
v 3.296954 1.1580327 2.5100026
v 3.296954 1.1580327 1.9057002
v 2.9500837 1.0015879 -0.09429979
v 3.0337062 1.3679626 -0.09429979
v 3.0337062 1.3679626 1.9057002
v 2.9500837 1.0015879 1.9057002
v 3.0337062 1.3679626 -0.09429979
v 3.3722875 1.5310147 -0.09429979
v 3.3722875 1.5310147 1.9057002
v 3.0337062 1.3679626 1.9057002
v 3.560186 0.707778 -0.09429979
v 3.7944913 1.0015879 -0.09429979
v 3.7108688 1.3679626 -0.09429979
v 3.3722875 1.5310147 -0.09429979
v 3.184389 0.707778 -0.09429979
v 3.0337062 1.3679626 -0.09429979
v 2.9500837 1.0015879 -0.09429979
v 3.3722918 1.1943135 1.9057002
v 3.3722875 1.5310147 1.9057002
v 3.7108688 1.3679626 1.9057002
v 3.44763 1.1580327 1.9057002
v 3.7944913 1.0015879 1.9057002
v 3.4662368 1.0765102 1.9057002
v 3.4662368 1.0765102 1.9057002
v 3.7944913 1.0015879 1.9057002
v 3.560186 0.707778 1.9057002
v 3.4141014 1.0111344 1.9057002
v 3.4141014 1.0111344 1.9057002
v 3.560186 0.707778 1.9057002
v 3.184389 0.707778 1.9057002
v 3.3304825 1.0111344 1.9057002
v 2.9500837 1.0015879 1.9057002
v 3.2783468 1.0765102 1.9057002
v 3.0337062 1.3679626 1.9057002
v 3.296954 1.1580327 1.9057002
v 3.296954 1.1580327 1.9057002
v 3.3722875 1.5310147 1.9057002
v 3.3722918 1.1943135 1.9057002
v 3.44763 1.1580327 2.5100026
v 3.4662368 1.0765102 2.5100026
v 3.4141014 1.0111344 2.5100026
v 3.3722918 1.1943135 2.5100026
v 3.3304825 1.0111344 2.5100026
v 3.296954 1.1580327 2.5100026
v 3.278347 1.0765102 2.5100026
v 3.2783468 1.0765102 1.9057002
v 3.278347 1.0765102 2.5100026
v 3.3304825 1.0111344 2.5100026
v 3.3304825 1.0111344 1.9057002
v 3.4141014 1.0111344 1.9057002
v 3.4141014 1.0111344 2.5100026
v 3.4662368 1.0765102 2.5100026
v 3.4662368 1.0765102 1.9057002
v 3.44763 1.1580327 1.9057002
v 3.44763 1.1580327 2.5100026
v 3.3722918 1.1943135 2.5100026
v 3.3722918 1.1943135 1.9057002
v 3.296954 1.1580327 1.9057002
v 3.296954 1.1580327 2.5100026
v 3.278347 1.0765102 2.5100026
v 3.2783468 1.0765102 1.9057002
v 3.3304825 1.0111344 1.9057002
v 3.3304825 1.0111344 2.5100026
v 3.4141014 1.0111344 2.5100026
v 3.4141014 1.0111344 1.9057002
v 3.4662368 1.0765102 1.9057002
v 3.4662368 1.0765102 2.5100026
v 3.44763 1.1580327 2.5100026
v 3.44763 1.1580327 1.9057002
vt 0.0625 0.5
vt 0 0.5
vt 0 1
vt 0.0625 1
vt 0.125 0.5
vt 0.0625 1
vt 0 1
vt 0.125 1
vt 0.125 1
vt 0.1875 0.5
vt 0.1875 1
vt 0.1875 1
vt 0.25 0.5
vt 0.25 1
vt 0.25 1
vt 0.3125 0.5
vt 0.3125 1
vt 0.3125 1
vt 0.375 0.5
vt 0.375 1
vt 0.375 1
vt 0.4375 0.5
vt 0.4375 1
vt 0.4375 1
vt 0.5 0.5
vt 0.5 1
vt 0.5 1
vt 0.5625 0.5
vt 0.5625 1
vt 0.5625 1
vt 0.625 0.5
vt 0.625 1
vt 0.625 1
vt 0.6875 0.5
vt 0.6875 1
vt 0.6875 1
vt 0.75 0.5
vt 0.75 1
vt 0.75 1
vt 0.8125 0.5
vt 0.8125 1
vt 0.8125 1
vt 0.875 0.5
vt 0.875 1
vt 0.875 1
vt 0.9375 0.5
vt 0.9375 1
vt 0.9375 1
vt 1 0.5
vt 1 1
vt 1 1
vt 0.9375 1
vt 1 1
vt 1 1
vt 0.9375 1
vt 0.875 1
vt 0.875 1
vt 0.8125 1
vt 0.8125 1
vt 0.75 1
vt 0.75 1
vt 0.6875 1
vt 0.6875 1
vt 0.625 1
vt 0.625 1
vt 0.5625 1
vt 0.5625 1
vt 0.5 1
vt 0.5 1
vt 0.4375 1
vt 0.4375 1
vt 0.375 1
vt 0.375 1
vt 0.3125 1
vt 0.3125 1
vt 0.25 1
vt 0.25 1
vt 0.1875 1
vt 0.1875 1
vt 0.125 1
vt 0.125 1
vt 0.0625 1
vt 0.0625 1
vt 0 1
vt 0 1
vt 0.9375 1
vt 1 1
vt 1 1
vt 0.9375 1
vt 0.875 1
vt 0.875 1
vt 0.8125 1
vt 0.8125 1
vt 0.75 1
vt 0.75 1
vt 0.6875 1
vt 0.6875 1
vt 0.625 1
vt 0.625 1
vt 0.5625 1
vt 0.5625 1
vt 0.5 1
vt 0.5 1
vt 0.4375 1
vt 0.4375 1
vt 0.375 1
vt 0.375 1
vt 0.3125 1
vt 0.3125 1
vt 0.25 1
vt 0.25 1
vt 0.1875 1
vt 0.1875 1
vt 0.125 1
vt 0.125 1
vt 0.0625 1
vt 0.0625 1
vt 0 1
vt 0 1
vt 0 1
vt 0 1
vt 0.0625 1
vt 0.0625 1
vt 0.0625 1
vt 0 1
vt 1 1
vt 0.0625 1
vt 0 1
vt 0.125 1
vt 0.125 1
vt 0.125 1
vt 0.125 1
vt 0.1875 1
vt 0.1875 1
vt 0.1875 1
vt 0.1875 1
vt 0.25 1
vt 0.25 1
vt 0.25 1
vt 0.25 1
vt 0.3125 1
vt 0.3125 1
vt 0.3125 1
vt 0.3125 1
vt 0.375 1
vt 0.375 1
vt 0.375 1
vt 0.375 1
vt 0.4375 1
vt 0.4375 1
vt 0.4375 1
vt 0.4375 1
vt 0.5 1
vt 0.5 1
vt 0.5 1
vt 0.5 1
vt 0.5625 1
vt 0.5625 1
vt 0.5625 1
vt 0.5625 1
vt 0.625 1
vt 0.625 1
vt 0.625 1
vt 0.625 1
vt 0.6875 1
vt 0.6875 1
vt 0.6875 1
vt 0.6875 1
vt 0.75 1
vt 0.75 1
vt 0.75 1
vt 0.75 1
vt 0.8125 1
vt 0.8125 1
vt 0.8125 1
vt 0.8125 1
vt 0.875 1
vt 0.875 1
vt 0.875 1
vt 0.875 1
vt 0.9375 1
vt 0.9375 1
vt 0.9375 1
vt 0.9375 1
vt 1 1
vt 1 1
vt 1 1
vt 0.625 1
vt 0.625 1
vt 0.6183851 1
vt 0.6183851 1
vt 0.625 1
vt 0.6183851 1
vt 0.6183851 1
vt 0.6183851 1
vt 0.625 1
vt 0.6183851 1
vt 0.59204566 1
vt 0.59204566 0.99999994
vt 0.5867839 1
vt 0.58417785 0.99999994
vt 0.59204566 0.99999994
vt 0.5867838 0.99999994
vt 0.5751825 1
vt 0.57017815 1
vt 0.5625 1
vt 0.5625 1
vt 0.5625 1
vt 0.57017815 1
vt 0.709965 0.5
vt 0.625 0.584965
vt 0.625 0.665035
vt 0.709965 0.75
vt 0.790035 0.5
vt 0.790035 0.75
vt 0.875 0.584965
vt 0.875 0.665035
vt 1 0.5
vt 0.85714287 0.5
vt 0.85714287 1
vt 1 1
vt 0.85714287 0.5
vt 0.71428573 0.5
vt 0.71428573 1
vt 0.85714287 1
vt 0.71428573 0.5
vt 0.5714286 0.5
vt 0.5714286 1
vt 0.71428573 1
vt 0.5714286 0.5
vt 0.42857146 0.5
vt 0.42857146 1
vt 0.5714286 1
vt 0.42857146 0.5
vt 0.28571433 0.5
vt 0.28571433 1
vt 0.42857146 1
vt 0.24999999 0.32880783
vt 0.24999999 0.32880783
vt 0.18838559 0.29913592
vt 0.18838559 0.29913592
vt 0.28571433 0.5
vt 0.14285718 0.5
vt 0.14285718 1
vt 0.28571433 1
vt 0.14285718 0.5
vt 2.9802322E-08 0.5
vt 2.9802322E-08 1
vt 0.14285718 1
vt 0.8541321 0.033767477
vt 0.9839827 0.19659497
vt 0.93763953 0.39963758
vt 0.75 0.49
vt 0.6458679 0.033767477
vt 0.56236047 0.39963758
vt 0.5160173 0.19659497
vt 0.24999999 0.32880783
vt 0.25 0.49
vt 0.43763953 0.39963758
vt 0.3116144 0.29913592
vt 0.48398268 0.19659497
vt 0.32683194 0.23246361
vt 0.32683194 0.23246361
vt 0.48398268 0.19659497
vt 0.35413212 0.033767477
vt 0.28419346 0.17899662
vt 0.28419346 0.17899662
vt 0.35413212 0.033767477
vt 0.1458679 0.033767477
vt 0.21580657 0.17899661
vt 0.016017303 0.19659497
vt 0.17316806 0.2324636
vt 0.06236045 0.39963758
vt 0.18838559 0.29913592
vt 0.18838559 0.29913592
vt 0.25 0.49
vt 0.24999999 0.32880783
vt 0.3116144 0.29913592
vt 0.32683194 0.23246361
vt 0.28419346 0.17899662
vt 0.24999999 0.32880783
vt 0.21580657 0.17899661
vt 0.18838559 0.29913592
vt 0.17316806 0.2324636
vt 0.17316806 0.2324636
vt 0.17316806 0.2324636
vt 0.21580657 0.17899661
vt 0.21580657 0.17899661
vt 0.28419346 0.17899662
vt 0.28419346 0.17899662
vt 0.32683194 0.23246361
vt 0.32683194 0.23246361
vt 0.3116144 0.29913592
vt 0.3116144 0.29913592
vt 0.24999999 0.32880783
vt 0.24999999 0.32880783
vt 0.18838559 0.29913592
vt 0.18838559 0.29913592
vt 0.17316806 0.2324636
vt 0.17316806 0.2324636
vt 0.21580657 0.17899661
vt 0.21580657 0.17899661
vt 0.28419346 0.17899662
vt 0.28419346 0.17899662
vt 0.32683194 0.23246361
vt 0.32683194 0.23246361
vt 0.3116144 0.29913592
vt 0.3116144 0.29913592
vt 1 0.5
vt 0.85714287 0.5
vt 0.85714287 1
vt 1 1
vt 0.85714287 0.5
vt 0.71428573 0.5
vt 0.71428573 1
vt 0.85714287 1
vt 0.71428573 0.5
vt 0.5714286 0.5
vt 0.5714286 1
vt 0.71428573 1
vt 0.5714286 0.5
vt 0.42857146 0.5
vt 0.42857146 1
vt 0.5714286 1
vt 0.42857146 0.5
vt 0.28571433 0.5
vt 0.28571433 1
vt 0.42857146 1
vt 0.24999999 0.32880783
vt 0.24999999 0.32880783
vt 0.18838559 0.29913592
vt 0.18838559 0.29913592
vt 0.28571433 0.5
vt 0.14285718 0.5
vt 0.14285718 1
vt 0.28571433 1
vt 0.14285718 0.5
vt 2.9802322E-08 0.5
vt 2.9802322E-08 1
vt 0.14285718 1
vt 0.8541321 0.033767477
vt 0.9839827 0.19659497
vt 0.93763953 0.39963758
vt 0.75 0.49
vt 0.6458679 0.033767477
vt 0.56236047 0.39963758
vt 0.5160173 0.19659497
vt 0.24999999 0.32880783
vt 0.25 0.49
vt 0.43763953 0.39963758
vt 0.3116144 0.29913592
vt 0.48398268 0.19659497
vt 0.32683194 0.23246361
vt 0.32683194 0.23246361
vt 0.48398268 0.19659497
vt 0.35413212 0.033767477
vt 0.28419346 0.17899662
vt 0.28419346 0.17899662
vt 0.35413212 0.033767477
vt 0.1458679 0.033767477
vt 0.21580657 0.17899661
vt 0.016017303 0.19659497
vt 0.17316806 0.2324636
vt 0.06236045 0.39963758
vt 0.18838559 0.29913592
vt 0.18838559 0.29913592
vt 0.25 0.49
vt 0.24999999 0.32880783
vt 0.3116144 0.29913592
vt 0.32683194 0.23246361
vt 0.28419346 0.17899662
vt 0.24999999 0.32880783
vt 0.21580657 0.17899661
vt 0.18838559 0.29913592
vt 0.17316806 0.2324636
vt 0.17316806 0.2324636
vt 0.17316806 0.2324636
vt 0.21580657 0.17899661
vt 0.21580657 0.17899661
vt 0.28419346 0.17899662
vt 0.28419346 0.17899662
vt 0.32683194 0.23246361
vt 0.32683194 0.23246361
vt 0.3116144 0.29913592
vt 0.3116144 0.29913592
vt 0.24999999 0.32880783
vt 0.24999999 0.32880783
vt 0.18838559 0.29913592
vt 0.18838559 0.29913592
vt 0.17316806 0.2324636
vt 0.17316806 0.2324636
vt 0.21580657 0.17899661
vt 0.21580657 0.17899661
vt 0.28419346 0.17899662
vt 0.28419346 0.17899662
vt 0.32683194 0.23246361
vt 0.32683194 0.23246361
vt 0.3116144 0.29913592
vt 0.3116144 0.29913592
vt 1 0.5
vt 0.85714287 0.5
vt 0.85714287 1
vt 1 1
vt 0.85714287 0.5
vt 0.71428573 0.5
vt 0.71428573 1
vt 0.85714287 1
vt 0.71428573 0.5
vt 0.5714286 0.5
vt 0.5714286 1
vt 0.71428573 1
vt 0.5714286 0.5
vt 0.42857146 0.5
vt 0.42857146 1
vt 0.5714286 1
vt 0.42857146 0.5
vt 0.28571433 0.5
vt 0.28571433 1
vt 0.42857146 1
vt 0.24999999 0.32880783
vt 0.24999999 0.32880783
vt 0.18838559 0.29913592
vt 0.18838559 0.29913592
vt 0.28571433 0.5
vt 0.14285718 0.5
vt 0.14285718 1
vt 0.28571433 1
vt 0.14285718 0.5
vt 2.9802322E-08 0.5
vt 2.9802322E-08 1
vt 0.14285718 1
vt 0.8541321 0.033767477
vt 0.9839827 0.19659497
vt 0.93763953 0.39963758
vt 0.75 0.49
vt 0.6458679 0.033767477
vt 0.56236047 0.39963758
vt 0.5160173 0.19659497
vt 0.24999999 0.32880783
vt 0.25 0.49
vt 0.43763953 0.39963758
vt 0.3116144 0.29913592
vt 0.48398268 0.19659497
vt 0.32683194 0.23246361
vt 0.32683194 0.23246361
vt 0.48398268 0.19659497
vt 0.35413212 0.033767477
vt 0.28419346 0.17899662
vt 0.28419346 0.17899662
vt 0.35413212 0.033767477
vt 0.1458679 0.033767477
vt 0.21580657 0.17899661
vt 0.016017303 0.19659497
vt 0.17316806 0.2324636
vt 0.06236045 0.39963758
vt 0.18838559 0.29913592
vt 0.18838559 0.29913592
vt 0.25 0.49
vt 0.24999999 0.32880783
vt 0.3116144 0.29913592
vt 0.32683194 0.23246361
vt 0.28419346 0.17899662
vt 0.24999999 0.32880783
vt 0.21580657 0.17899661
vt 0.18838559 0.29913592
vt 0.17316806 0.2324636
vt 0.17316806 0.2324636
vt 0.17316806 0.2324636
vt 0.21580657 0.17899661
vt 0.21580657 0.17899661
vt 0.28419346 0.17899662
vt 0.28419346 0.17899662
vt 0.32683194 0.23246361
vt 0.32683194 0.23246361
vt 0.3116144 0.29913592
vt 0.3116144 0.29913592
vt 0.24999999 0.32880783
vt 0.24999999 0.32880783
vt 0.18838559 0.29913592
vt 0.18838559 0.29913592
vt 0.17316806 0.2324636
vt 0.17316806 0.2324636
vt 0.21580657 0.17899661
vt 0.21580657 0.17899661
vt 0.28419346 0.17899662
vt 0.28419346 0.17899662
vt 0.32683194 0.23246361
vt 0.32683194 0.23246361
vt 0.3116144 0.29913592
vt 0.3116144 0.29913592
vt 1 0.5
vt 0.85714287 0.5
vt 0.85714287 1
vt 1 1
vt 0.85714287 0.5
vt 0.71428573 0.5
vt 0.71428573 1
vt 0.85714287 1
vt 0.71428573 0.5
vt 0.5714286 0.5
vt 0.5714286 1
vt 0.71428573 1
vt 0.5714286 0.5
vt 0.42857146 0.5
vt 0.42857146 1
vt 0.5714286 1
vt 0.42857146 0.5
vt 0.28571433 0.5
vt 0.28571433 1
vt 0.42857146 1
vt 0.24999999 0.32880783
vt 0.24999999 0.32880783
vt 0.18838559 0.29913592
vt 0.18838559 0.29913592
vt 0.28571433 0.5
vt 0.14285718 0.5
vt 0.14285718 1
vt 0.28571433 1
vt 0.14285718 0.5
vt 2.9802322E-08 0.5
vt 2.9802322E-08 1
vt 0.14285718 1
vt 0.8541321 0.033767477
vt 0.9839827 0.19659497
vt 0.93763953 0.39963758
vt 0.75 0.49
vt 0.6458679 0.033767477
vt 0.56236047 0.39963758
vt 0.5160173 0.19659497
vt 0.24999999 0.32880783
vt 0.25 0.49
vt 0.43763953 0.39963758
vt 0.3116144 0.29913592
vt 0.48398268 0.19659497
vt 0.32683194 0.23246361
vt 0.32683194 0.23246361
vt 0.48398268 0.19659497
vt 0.35413212 0.033767477
vt 0.28419346 0.17899662
vt 0.28419346 0.17899662
vt 0.35413212 0.033767477
vt 0.1458679 0.033767477
vt 0.21580657 0.17899661
vt 0.016017303 0.19659497
vt 0.17316806 0.2324636
vt 0.06236045 0.39963758
vt 0.18838559 0.29913592
vt 0.18838559 0.29913592
vt 0.25 0.49
vt 0.24999999 0.32880783
vt 0.3116144 0.29913592
vt 0.32683194 0.23246361
vt 0.28419346 0.17899662
vt 0.24999999 0.32880783
vt 0.21580657 0.17899661
vt 0.18838559 0.29913592
vt 0.17316806 0.2324636
vt 0.17316806 0.2324636
vt 0.17316806 0.2324636
vt 0.21580657 0.17899661
vt 0.21580657 0.17899661
vt 0.28419346 0.17899662
vt 0.28419346 0.17899662
vt 0.32683194 0.23246361
vt 0.32683194 0.23246361
vt 0.3116144 0.29913592
vt 0.3116144 0.29913592
vt 0.24999999 0.32880783
vt 0.24999999 0.32880783
vt 0.18838559 0.29913592
vt 0.18838559 0.29913592
vt 0.17316806 0.2324636
vt 0.17316806 0.2324636
vt 0.21580657 0.17899661
vt 0.21580657 0.17899661
vt 0.28419346 0.17899662
vt 0.28419346 0.17899662
vt 0.32683194 0.23246361
vt 0.32683194 0.23246361
vt 0.3116144 0.29913592
vt 0.3116144 0.29913592
vn -0.23463039 0.5664478 0.7899908
vn -0 0.6131191 0.7899904
vn -0 0.35930657 0.93321955
vn -0.13750075 0.33195558 0.9332198
vn -0.43354055 0.4335405 0.7899907
vn -0 0 1
vn -0 0 1
vn -0 0 1
vn -0.25406802 0.25406787 0.9332197
vn -0.5664483 0.23463061 0.7899904
vn -0 0 1
vn -0.33195615 0.13750058 0.93321955
vn -0.6131189 0 0.78999066
vn -0 0 1
vn -0.3593064 0 0.9332197
vn -0.56644773 -0.23463032 0.78999096
vn -0 0 1
vn -0.33195552 -0.1375006 0.9332198
vn -0.43354067 -0.4335407 0.7899904
vn -0 0 1
vn -0.25406805 -0.25406808 0.93321955
vn -0.23463067 -0.56644875 0.78999007
vn -0 0 1
vn -0.1375008 -0.33195636 0.93321943
vn -0 -0.61311907 0.7899905
vn -0 0 1
vn -0 -0.35930654 0.93321955
vn 0.23463029 -0.56644744 0.78999114
vn -0 0 1
vn 0.13750048 -0.33195534 0.93321985
vn 0.43354055 -0.43354046 0.7899907
vn -0 0 1
vn 0.25406805 -0.25406796 0.9332197
vn 0.56644845 -0.23463048 0.78999037
vn -0 0 1
vn 0.3319562 -0.13750061 0.93321955
vn 0.61311907 0 0.7899905
vn -0 0 1
vn 0.35930648 0 0.9332197
vn 0.56644785 0.23463015 0.78999084
vn -0 0 1
vn 0.33195555 0.13750055 0.9332198
vn 0.43354034 0.43354058 0.7899907
vn -0 0 1
vn 0.25406796 0.25406805 0.9332197
vn 0.23463036 0.56644845 0.78999037
vn -0 0 1
vn 0.13750057 0.33195606 0.93321955
vn -0 0.6131191 0.7899904
vn -0 0 1
vn -0 0.35930657 0.93321955
vn 0.31986248 0.7722172 0.5489705
vn -0 0.8358414 0.54897106
vn -0 0.8358414 0.54897106
vn 0.31986257 0.77221715 0.5489705
vn 0.59102905 0.5910296 0.54897064
vn 0.5910291 0.59102947 0.5489706
vn 0.7722171 0.31986308 0.5489704
vn 0.77221715 0.3198629 0.5489704
vn 0.8358419 0 0.5489703
vn 0.8358419 0 0.5489703
vn 0.7722172 -0.31986272 0.5489702
vn 0.7722172 -0.3198628 0.5489703
vn 0.59102964 -0.5910292 0.5489702
vn 0.5910297 -0.5910292 0.5489703
vn 0.31986308 -0.77221715 0.54897034
vn 0.3198631 -0.77221715 0.5489703
vn -0 -0.83584225 0.54896975
vn -0 -0.83584225 0.5489697
vn -0.31986284 -0.7722175 0.5489699
vn -0.31986272 -0.7722176 0.54896986
vn -0.59102917 -0.5910294 0.54897064
vn -0.5910291 -0.59102947 0.5489706
vn -0.772217 -0.31986287 0.5489705
vn -0.77221686 -0.31986302 0.5489706
vn -0.8358416 0 0.5489707
vn -0.8358416 0 0.5489707
vn -0.77221686 0.3198626 0.5489709
vn -0.7722169 0.31986243 0.5489709
vn -0.5910294 0.59102887 0.548971
vn -0.5910294 0.5910288 0.548971
vn -0.31986278 0.7722165 0.5489713
vn -0.31986272 0.7722165 0.5489713
vn -0 0.8358414 0.54897106
vn -0 0.8358414 0.54897106
vn -0.31496346 -0.76038873 0.567985
vn -0 -0.82303876 0.5679852
vn -0 -0.82303876 0.5679852
vn -0.3149634 -0.76038873 0.56798506
vn -0.58197623 -0.5819767 0.56798476
vn -0.58197635 -0.5819766 0.5679848
vn -0.7603886 -0.31496376 0.567985
vn -0.7603886 -0.31496373 0.56798506
vn -0.8230387 0 0.56798524
vn -0.8230387 0 0.5679853
vn -0.7603887 0.3149633 0.5679852
vn -0.7603886 0.3149633 0.56798524
vn -0.5819767 0.5819761 0.56798506
vn -0.5819764 0.58197635 0.567985
vn -0.31496352 0.7603886 0.5679851
vn -0.31496352 0.7603886 0.5679851
vn -0 0.82303876 0.5679852
vn -0 0.82303876 0.56798524
vn 0.31496316 0.7603887 0.56798524
vn 0.31496322 0.76038873 0.56798524
vn 0.58197606 0.5819766 0.5679852
vn 0.5819763 0.58197635 0.5679852
vn 0.76038873 0.31496358 0.56798494
vn 0.76038873 0.31496355 0.56798494
vn 0.82303894 0 0.56798494
vn 0.82303894 0 0.56798494
vn 0.7603889 -0.31496307 0.56798506
vn 0.760389 -0.31496292 0.56798506
vn 0.5819765 -0.58197594 0.5679855
vn 0.5819764 -0.58197594 0.5679854
vn 0.31496322 -0.76038855 0.5679854
vn 0.31496307 -0.7603886 0.5679854
vn -0 -0.82303876 0.5679852
vn -0 -0.82303876 0.5679852
vn 0.5317832 0.62606907 0.5703017
vn 0.52157307 0.6307463 0.5745612
vn -0.7232461 0.3831374 0.5745615
vn -0.73089045 0.37490973 0.57029974
vn -0.38044807 -0.7200597 0.5803217
vn 0.627042 -0.5196583 0.5803219
vn 0.52157307 0.6307463 0.5745612
vn -0.36599904 -0.72140867 0.5878896
vn 0.61421 -0.52643466 0.58788836
vn 0.8065571 0.062067695 0.5878887
vn -0.066671126 0.8187255 0.5703011
vn -0.07719805 0.8148129 0.5745611
vn 0.8108395 0.075932994 0.58032185
vn 0.25131324 -0.76891315 0.5878896
vn -0.78233117 -0.24049345 0.5745614
vn -0.7819185 -0.25171667 0.57030004
vn 0.2401425 -0.77817637 0.5803216
vn 0.52643436 0.61421 0.5878885
vn -0.6260691 0.53178334 0.5703017
vn -0.63074625 0.5215731 0.5745612
vn 0.5196582 0.6270422 0.58032185
vn 0.7214091 -0.36599866 0.58788943
vn -0.383137 -0.72324634 0.57456136
vn -0.3749092 -0.73089033 0.57030034
vn 0.72006005 -0.3804476 0.5803216
vn -0.06206691 0.80655736 0.58788854
vn -0.8187253 -0.0666704 0.5703016
vn -0.8148129 -0.07719743 0.57456124
vn -0.075932175 0.81083953 0.5803219
vn 0.7689136 0.25131413 0.58788854
vn 0.24049453 -0.782331 0.57456136
vn 0.25171742 -0.7819172 0.57030153
vn 0.77817607 0.2401431 0.5803217
vn -0.6142101 0.52643305 0.58788955
vn -0.5317829 -0.6260707 0.57030016
vn -0.5215721 -0.63074696 0.57456136
vn -0.627043 0.51965743 0.5803217
vn 0.36599818 0.7214101 0.5878884
vn 0.72324693 -0.38313612 0.5745611
vn 0.73089 -0.37490767 0.57030165
vn 0.38044667 0.7200603 0.5803219
vn -0.8065563 -0.062068585 0.5878898
vn 0.066672385 -0.81872654 0.5702997
vn 0.07719927 -0.8148127 0.5745612
vn -0.8108394 -0.07593397 0.5803218
vn -0.25131464 0.76891387 0.5878882
vn 0.78233075 0.240495 0.5745613
vn 0.7819167 0.25171784 0.57030195
vn -0.24014355 0.7781759 0.5803218
vn -0.526433 -0.61421025 0.5878896
vn 0.6260709 -0.53178287 0.57030016
vn 0.6307471 -0.52157205 0.5745613
vn -0.51965725 -0.627043 0.5803217
vn -0.72140926 0.36599857 0.58788925
vn 0.383137 0.7232466 0.57456106
vn 0.37490883 0.73089015 0.57030076
vn -0.72005993 0.3804473 0.58032197
vn 0.06206804 -0.80655646 0.5878898
vn 0.81872636 0.066672266 0.5702998
vn 0.8148126 0.07719901 0.57456136
vn 0.07593334 -0.81083965 0.5803216
vn -0.7689135 -0.25131288 0.5878894
vn -0.24049379 0.7823311 0.57456136
vn -0.25171688 0.7819183 0.5703002
vn -0.7781764 -0.24014196 0.5803218
vn 0.61421 -0.52643466 0.58788836
vn 0.5317832 0.62606907 0.5703017
vn 0.627042 -0.5196583 0.5803219
vn -0.00096492126 -0.00028699051 0.9999995
vn -0.00096492306 -0.00028699107 0.9999995
vn -0.0005936774 -0.00017657137 0.9999999
vn -0.0005331638 -0.00015857276 0.9999999
vn 0.023044575 -0.015459321 0.99961483
vn -0 0 1
vn -0 0 1
vn 0.020304922 -0.013743944 0.99969935
vn 0.034667116 -0.022803696 0.9991387
vn 0.03542746 -0.023303855 0.99910057
vn 0.037591204 -0.024662651 0.9989888
vn 0.025006577 -0.0161031 0.99955755
vn 0.03869909 -0.025385484 0.99892837
vn 0.027713748 -0.017897377 0.99945563
vn 0.00051142 0.0006359228 0.99999964
vn 0.00051142 0.0006359228 0.99999964
vn 0.022132361 -0.014981265 0.99964285
vn 0.039588403 -0.026080104 0.9988757
vn 0.025709497 -0.01731499 0.99951947
vn 0.040040404 -0.026455387 0.9988477
vn 0.0006253528 -0.0013154232 0.9999989
vn 0.0006253528 -0.0013154232 0.9999989
vn -0 0 1
vn -0 0 1
vn -0 0 1
vn -0 0 1
vn -0 0 1
vn -0 0 1
vn -0 0 1
vn -0 0 1
vn 0.4338837 0.9009689 0
vn 0.4338837 0.9009689 0
vn 0.4338837 0.9009689 0
vn 0.4338837 0.9009689 0
vn 0.9749279 0.22252099 0
vn 0.9749279 0.22252099 0
vn 0.9749279 0.22252099 0
vn 0.9749279 0.22252099 0
vn 0.78183156 -0.6234896 0
vn 0.78183156 -0.6234896 0
vn 0.78183156 -0.6234896 0
vn 0.78183156 -0.6234896 0
vn -0 -1 0
vn -0 -1 0
vn -0 -1 0
vn -0 -1 0
vn -0.7818317 -0.6234897 0
vn -0.7818317 -0.6234897 0
vn -0.7818317 -0.6234897 0
vn -0.7818317 -0.6234897 0
vn -0.43388382 0.9009688 0
vn -0.43388382 0.9009688 0
vn -0.43388382 0.9009688 0
vn -0.43388382 0.9009688 0
vn -0.9749279 0.22252099 0
vn -0.9749279 0.22252099 0
vn -0.9749279 0.22252099 0
vn -0.9749279 0.22252099 0
vn -0.4338837 0.9009689 0
vn -0.4338837 0.9009689 0
vn -0.4338837 0.9009689 0
vn -0.4338837 0.9009689 0
vn -0 0 -1
vn -0 0 -1
vn -0 0 -1
vn -0 0 -1
vn -0 0 -1
vn -0 0 -1
vn -0 0 -1
vn -0 0 1
vn -0 0 1
vn -0 0 1
vn -0 0 1
vn -0 0 1
vn -0 0 1
vn -0 0 1
vn -0 0 1
vn -0 0 1
vn -0 0 1
vn -0 0 1
vn -0 0 1
vn -0 0 1
vn -0 0 1
vn -0 0 1
vn -0 0 1
vn -0 0 1
vn -0 0 1
vn -0 0 1
vn -0 0 1
vn -0 0 1
vn -0 0 1
vn -0 0 1
vn -0 0 1
vn -0 0 1
vn -0 0 1
vn -0 0 1
vn -0 0 1
vn -0.78183115 -0.62349033 0
vn -0.78183115 -0.62349033 0
vn -0.78183115 -0.62349033 0
vn -0.78183115 -0.62349033 0
vn 0.7818312 -0.62349015 0
vn 0.7818312 -0.62349015 0
vn 0.7818312 -0.62349015 0
vn 0.7818312 -0.62349015 0
vn 0.43388382 0.9009688 0
vn 0.43388382 0.9009688 0
vn 0.43388382 0.9009688 0
vn 0.43388382 0.9009688 0
vn -0.9749279 0.222521 0
vn -0.9749279 0.222521 0
vn -0.9749279 0.222521 0
vn -0.9749279 0.222521 0
vn -0 -1 0
vn -0 -1 0
vn -0 -1 0
vn -0 -1 0
vn 0.9749279 0.22252086 0
vn 0.9749279 0.22252086 0
vn 0.9749279 0.22252086 0
vn 0.9749279 0.22252086 0
vn 0.43388358 0.900969 0
vn 0.43388358 0.900969 0
vn 0.43388358 0.900969 0
vn 0.43388358 0.900969 0
vn 0.97492796 0.22252046 0
vn 0.97492796 0.22252046 0
vn 0.97492796 0.22252046 0
vn 0.97492796 0.22252046 0
vn 0.78183174 -0.6234895 0
vn 0.78183174 -0.6234895 0
vn 0.78183174 -0.6234895 0
vn 0.78183174 -0.6234895 0
vn -0 -1 0
vn -0 -1 0
vn -0 -1 0
vn -0 -1 0
vn -0.78183174 -0.6234895 0
vn -0.78183174 -0.6234895 0
vn -0.78183174 -0.6234895 0
vn -0.78183174 -0.6234895 0
vn -0.43388337 0.9009691 0
vn -0.43388337 0.9009691 0
vn -0.43388337 0.9009691 0
vn -0.43388337 0.9009691 0
vn -0.97492796 0.22252046 0
vn -0.97492796 0.22252046 0
vn -0.97492796 0.22252046 0
vn -0.97492796 0.22252046 0
vn -0.43388358 0.900969 0
vn -0.43388358 0.900969 0
vn -0.43388358 0.900969 0
vn -0.43388358 0.900969 0
vn -0 0 -1
vn -0 0 -1
vn -0 0 -1
vn -0 0 -1
vn -0 0 -1
vn -0 0 -1
vn -0 0 -1
vn -0 0 1
vn -0 0 1
vn -0 0 1
vn -0 0 1
vn -0 0 1
vn -0 0 1
vn -0 0 1
vn -0 0 1
vn -0 0 1
vn -0 0 1
vn -0 0 1
vn -0 0 1
vn -0 0 1
vn -0 0 1
vn -0 0 1
vn -0 0 1
vn -0 0 1
vn -0 0 1
vn -0 0 1
vn -0 0 1
vn -0 0 1
vn -0 0 1
vn -0 0 1
vn -0 0 1
vn -0 0 1
vn -0 0 1
vn -0 0 1
vn -0 0 1
vn -0.78183144 -0.62348986 0
vn -0.78183144 -0.62348986 0
vn -0.78183144 -0.62348986 0
vn -0.78183144 -0.62348986 0
vn 0.7818326 -0.62348837 0
vn 0.7818326 -0.62348837 0
vn 0.7818326 -0.62348837 0
vn 0.7818326 -0.62348837 0
vn 0.43388337 0.9009691 0
vn 0.43388337 0.9009691 0
vn 0.43388337 0.9009691 0
vn 0.43388337 0.9009691 0
vn -0.9749287 0.22251756 0
vn -0.9749287 0.22251756 0
vn -0.9749287 0.22251756 0
vn -0.9749287 0.22251756 0
vn -0 -1 0
vn -0 -1 0
vn -0 -1 0
vn -0 -1 0
vn 0.9749281 0.2225198 0
vn 0.9749281 0.2225198 0
vn 0.9749281 0.2225198 0
vn 0.9749281 0.2225198 0
vn 0.43388358 0.900969 0
vn 0.43388358 0.900969 0
vn 0.43388358 0.900969 0
vn 0.43388358 0.900969 0
vn 0.97492796 0.22252046 0
vn 0.97492796 0.22252046 0
vn 0.97492796 0.22252046 0
vn 0.97492796 0.22252046 0
vn 0.78183174 -0.6234895 0
vn 0.78183174 -0.6234895 0
vn 0.78183174 -0.6234895 0
vn 0.78183174 -0.6234895 0
vn -0 -1 0
vn -0 -1 0
vn -0 -1 0
vn -0 -1 0
vn -0.78183174 -0.6234895 0
vn -0.78183174 -0.6234895 0
vn -0.78183174 -0.6234895 0
vn -0.78183174 -0.6234895 0
vn -0.43388426 0.9009686 0
vn -0.43388426 0.9009686 0
vn -0.43388426 0.9009686 0
vn -0.43388426 0.9009686 0
vn -0.97492796 0.22252046 0
vn -0.97492796 0.22252046 0
vn -0.97492796 0.22252046 0
vn -0.97492796 0.22252046 0
vn -0.43388358 0.900969 0
vn -0.43388358 0.900969 0
vn -0.43388358 0.900969 0
vn -0.43388358 0.900969 0
vn -0 0 -1
vn -0 0 -1
vn -0 0 -1
vn -0 0 -1
vn -0 0 -1
vn -0 0 -1
vn -0 0 -1
vn -0 0 1
vn -0 0 1
vn -0 0 1
vn -0 0 1
vn -0 0 1
vn -0 0 1
vn -0 0 1
vn -0 0 1
vn -0 0 1
vn -0 0 1
vn -0 0 1
vn -0 0 1
vn -0 0 1
vn -0 0 1
vn -0 0 1
vn -0 0 1
vn -0 0 1
vn -0 0 1
vn -0 0 1
vn -0 0 1
vn -0 0 1
vn -0 0 1
vn -0 0 1
vn -0 0 1
vn -0 0 1
vn -0 0 1
vn -0 0 1
vn -0 0 1
vn -0.78183085 -0.6234905 0
vn -0.78183085 -0.6234905 0
vn -0.78183085 -0.6234905 0
vn -0.78183085 -0.6234905 0
vn 0.78183085 -0.6234905 0
vn 0.78183085 -0.6234905 0
vn 0.78183085 -0.6234905 0
vn 0.78183085 -0.6234905 0
vn 0.43388337 0.9009691 0
vn 0.43388337 0.9009691 0
vn 0.43388337 0.9009691 0
vn 0.43388337 0.9009691 0
vn -0.97492766 0.22252205 0
vn -0.97492766 0.22252205 0
vn -0.97492766 0.22252205 0
vn -0.97492766 0.22252205 0
vn -0 -1 0
vn -0 -1 0
vn -0 -1 0
vn -0 -1 0
vn 0.9749279 0.22252093 0
vn 0.9749279 0.22252093 0
vn 0.9749279 0.22252093 0
vn 0.9749279 0.22252093 0
vn 0.43388358 0.900969 0
vn 0.43388358 0.900969 0
vn 0.43388358 0.900969 0
vn 0.43388358 0.900969 0
vn 0.97492796 0.22252046 0
vn 0.97492796 0.22252046 0
vn 0.97492796 0.22252046 0
vn 0.97492796 0.22252046 0
vn 0.78183174 -0.6234895 0
vn 0.78183174 -0.6234895 0
vn 0.78183174 -0.6234895 0
vn 0.78183174 -0.6234895 0
vn -0 -1 0
vn -0 -1 0
vn -0 -1 0
vn -0 -1 0
vn -0.78183174 -0.6234895 0
vn -0.78183174 -0.6234895 0
vn -0.78183174 -0.6234895 0
vn -0.78183174 -0.6234895 0
vn -0.43388426 0.9009686 0
vn -0.43388426 0.9009686 0
vn -0.43388426 0.9009686 0
vn -0.43388426 0.9009686 0
vn -0.97492796 0.22252046 0
vn -0.97492796 0.22252046 0
vn -0.97492796 0.22252046 0
vn -0.97492796 0.22252046 0
vn -0.43388358 0.900969 0
vn -0.43388358 0.900969 0
vn -0.43388358 0.900969 0
vn -0.43388358 0.900969 0
vn -0 0 -1
vn -0 0 -1
vn -0 0 -1
vn -0 0 -1
vn -0 0 -1
vn -0 0 -1
vn -0 0 -1
vn -0 0 1
vn -0 0 1
vn -0 0 1
vn -0 0 1
vn -0 0 1
vn -0 0 1
vn -0 0 1
vn -0 0 1
vn -0 0 1
vn -0 0 1
vn -0 0 1
vn -0 0 1
vn -0 0 1
vn -0 0 1
vn -0 0 1
vn -0 0 1
vn -0 0 1
vn -0 0 1
vn -0 0 1
vn -0 0 1
vn -0 0 1
vn -0 0 1
vn -0 0 1
vn -0 0 1
vn -0 0 1
vn -0 0 1
vn -0 0 1
vn -0 0 1
vn -0.78183144 -0.62348986 0
vn -0.78183144 -0.62348986 0
vn -0.78183144 -0.62348986 0
vn -0.78183144 -0.62348986 0
vn 0.78183144 -0.62348986 0
vn 0.78183144 -0.62348986 0
vn 0.78183144 -0.62348986 0
vn 0.78183144 -0.62348986 0
vn 0.43388337 0.9009691 0
vn 0.43388337 0.9009691 0
vn 0.43388337 0.9009691 0
vn 0.43388337 0.9009691 0
vn -0.9749281 0.2225198 0
vn -0.9749281 0.2225198 0
vn -0.9749281 0.2225198 0
vn -0.9749281 0.2225198 0
vn -0 -1 0
vn -0 -1 0
vn -0 -1 0
vn -0 -1 0
vn 0.97492766 0.22252205 0
vn 0.97492766 0.22252205 0
vn 0.97492766 0.22252205 0
vn 0.97492766 0.22252205 0
g Summoning Circle Lvl 2_0
f 3/3/3 2/2/2 1/1/1
f 4/4/4 3/3/3 1/1/1
f 4/4/4 1/1/1 5/5/5
f 4/4/4 6/6/6 3/3/3
f 6/6/6 7/7/7 3/3/3
f 8/8/8 6/6/6 4/4/4
f 9/9/9 4/4/4 5/5/5
f 9/9/9 8/8/8 4/4/4
f 9/9/9 5/5/5 10/10/10
f 11/11/11 8/8/8 9/9/9
f 12/12/12 9/9/9 10/10/10
f 12/12/12 11/11/11 9/9/9
f 12/12/12 10/10/10 13/13/13
f 14/14/14 11/11/11 12/12/12
f 15/15/15 12/12/12 13/13/13
f 15/15/15 14/14/14 12/12/12
f 15/15/15 13/13/13 16/16/16
f 17/17/17 14/14/14 15/15/15
f 18/18/18 15/15/15 16/16/16
f 18/18/18 17/17/17 15/15/15
f 18/18/18 16/16/16 19/19/19
f 20/20/20 17/17/17 18/18/18
f 21/21/21 18/18/18 19/19/19
f 21/21/21 20/20/20 18/18/18
f 21/21/21 19/19/19 22/22/22
f 23/23/23 20/20/20 21/21/21
f 24/24/24 21/21/21 22/22/22
f 24/24/24 23/23/23 21/21/21
f 24/24/24 22/22/22 25/25/25
f 26/26/26 23/23/23 24/24/24
f 27/27/27 24/24/24 25/25/25
f 27/27/27 26/26/26 24/24/24
f 27/27/27 25/25/25 28/28/28
f 29/29/29 26/26/26 27/27/27
f 30/30/30 27/27/27 28/28/28
f 30/30/30 29/29/29 27/27/27
f 30/30/30 28/28/28 31/31/31
f 32/32/32 29/29/29 30/30/30
f 33/33/33 30/30/30 31/31/31
f 33/33/33 32/32/32 30/30/30
f 33/33/33 31/31/31 34/34/34
f 35/35/35 32/32/32 33/33/33
f 36/36/36 33/33/33 34/34/34
f 36/36/36 35/35/35 33/33/33
f 36/36/36 34/34/34 37/37/37
f 38/38/38 35/35/35 36/36/36
f 39/39/39 36/36/36 37/37/37
f 39/39/39 38/38/38 36/36/36
f 39/39/39 37/37/37 40/40/40
f 41/41/41 38/38/38 39/39/39
f 42/42/42 39/39/39 40/40/40
f 42/42/42 41/41/41 39/39/39
f 42/42/42 40/40/40 43/43/43
f 44/44/44 41/41/41 42/42/42
f 45/45/45 42/42/42 43/43/43
f 45/45/45 44/44/44 42/42/42
f 45/45/45 43/43/43 46/46/46
f 47/47/47 44/44/44 45/45/45
f 48/48/48 45/45/45 46/46/46
f 48/48/48 47/47/47 45/45/45
f 48/48/48 46/46/46 49/49/49
f 50/50/50 47/47/47 48/48/48
f 51/51/51 48/48/48 49/49/49
f 51/51/51 50/50/50 48/48/48
f 54/54/54 53/53/53 52/52/52
f 53/53/53 55/55/55 52/52/52
f 52/52/52 55/55/55 56/56/56
f 55/55/55 57/57/57 56/56/56
f 56/56/56 57/57/57 58/58/58
f 57/57/57 59/59/59 58/58/58
f 58/58/58 59/59/59 60/60/60
f 59/59/59 61/61/61 60/60/60
f 60/60/60 61/61/61 62/62/62
f 61/61/61 63/63/63 62/62/62
f 62/62/62 63/63/63 64/64/64
f 63/63/63 65/65/65 64/64/64
f 64/64/64 65/65/65 66/66/66
f 65/65/65 67/67/67 66/66/66
f 66/66/66 67/67/67 68/68/68
f 67/67/67 69/69/69 68/68/68
f 68/68/68 69/69/69 70/70/70
f 69/69/69 71/71/71 70/70/70
f 70/70/70 71/71/71 72/72/72
f 71/71/71 73/73/73 72/72/72
f 72/72/72 73/73/73 74/74/74
f 73/73/73 75/75/75 74/74/74
f 74/74/74 75/75/75 76/76/76
f 75/75/75 77/77/77 76/76/76
f 76/76/76 77/77/77 78/78/78
f 77/77/77 79/79/79 78/78/78
f 78/78/78 79/79/79 80/80/80
f 79/79/79 81/81/81 80/80/80
f 80/80/80 81/81/81 82/82/82
f 81/81/81 83/83/83 82/82/82
f 82/82/82 83/83/83 84/84/84
f 83/83/83 85/85/85 84/84/84
f 88/88/88 87/87/87 86/86/86
f 87/87/87 89/89/89 86/86/86
f 86/86/86 89/89/89 90/90/90
f 89/89/89 91/91/91 90/90/90
f 90/90/90 91/91/91 92/92/92
f 91/91/91 93/93/93 92/92/92
f 92/92/92 93/93/93 94/94/94
f 93/93/93 95/95/95 94/94/94
f 94/94/94 95/95/95 96/96/96
f 95/95/95 97/97/97 96/96/96
f 96/96/96 97/97/97 98/98/98
f 97/97/97 99/99/99 98/98/98
f 98/98/98 99/99/99 100/100/100
f 99/99/99 101/101/101 100/100/100
f 100/100/100 101/101/101 102/102/102
f 101/101/101 103/103/103 102/102/102
f 102/102/102 103/103/103 104/104/104
f 103/103/103 105/105/105 104/104/104
f 104/104/104 105/105/105 106/106/106
f 105/105/105 107/107/107 106/106/106
f 106/106/106 107/107/107 108/108/108
f 107/107/107 109/109/109 108/108/108
f 108/108/108 109/109/109 110/110/110
f 109/109/109 111/111/111 110/110/110
f 110/110/110 111/111/111 112/112/112
f 111/111/111 113/113/113 112/112/112
f 112/112/112 113/113/113 114/114/114
f 113/113/113 115/115/115 114/114/114
f 114/114/114 115/115/115 116/116/116
f 115/115/115 117/117/117 116/116/116
f 116/116/116 117/117/117 118/118/118
f 117/117/117 119/119/119 118/118/118
f 122/122/122 121/121/121 120/120/120
f 123/123/123 122/122/122 120/120/120
f 124/124/124 122/122/122 123/123/123
f 124/124/124 125/125/125 122/122/122
f 125/125/125 126/126/126 122/122/122
f 125/125/125 124/124/124 127/127/127
f 127/127/127 124/124/124 123/123/123
f 128/128/128 125/125/125 127/127/127
f 129/129/129 127/127/127 123/123/123
f 130/130/130 129/129/129 123/123/123
f 130/130/130 131/131/131 129/129/129
f 131/131/131 132/132/132 129/129/129
f 129/129/129 132/132/132 133/133/133
f 134/134/134 131/131/131 130/130/130
f 132/132/132 131/131/131 134/134/134
f 135/135/135 134/134/134 130/130/130
f 136/136/136 132/132/132 134/134/134
f 132/132/132 136/136/136 133/133/133
f 136/136/136 134/134/134 135/135/135
f 133/133/133 136/136/136 135/135/135
f 137/137/137 133/133/133 135/135/135
f 138/138/138 137/137/137 135/135/135
f 138/138/138 139/139/139 137/137/137
f 139/139/139 140/140/140 137/137/137
f 137/137/137 140/140/140 141/141/141
f 142/142/142 139/139/139 138/138/138
f 140/140/140 139/139/139 142/142/142
f 143/143/143 142/142/142 138/138/138
f 144/144/144 140/140/140 142/142/142
f 140/140/140 144/144/144 141/141/141
f 144/144/144 142/142/142 143/143/143
f 141/141/141 144/144/144 143/143/143
f 145/145/145 141/141/141 143/143/143
f 146/146/146 145/145/145 143/143/143
f 146/146/146 147/147/147 145/145/145
f 147/147/147 148/148/148 145/145/145
f 145/145/145 148/148/148 149/149/149
f 150/150/150 147/147/147 146/146/146
f 148/148/148 147/147/147 150/150/150
f 151/151/151 150/150/150 146/146/146
f 152/152/152 148/148/148 150/150/150
f 148/148/148 152/152/152 149/149/149
f 152/152/152 150/150/150 151/151/151
f 149/149/149 152/152/152 151/151/151
f 153/153/153 149/149/149 151/151/151
f 154/154/154 153/153/153 151/151/151
f 154/154/154 155/155/155 153/153/153
f 155/155/155 156/156/156 153/153/153
f 153/153/153 156/156/156 157/157/157
f 158/158/158 155/155/155 154/154/154
f 156/156/156 155/155/155 158/158/158
f 159/159/159 158/158/158 154/154/154
f 160/160/160 156/156/156 158/158/158
f 156/156/156 160/160/160 157/157/157
f 160/160/160 158/158/158 159/159/159
f 157/157/157 160/160/160 159/159/159
f 161/161/161 157/157/157 159/159/159
f 162/162/162 161/161/161 159/159/159
f 162/162/162 163/163/163 161/161/161
f 163/163/163 164/164/164 161/161/161
f 161/161/161 164/164/164 165/165/165
f 166/166/166 163/163/163 162/162/162
f 164/164/164 163/163/163 166/166/166
f 167/167/167 166/166/166 162/162/162
f 168/168/168 164/164/164 166/166/166
f 164/164/164 168/168/168 165/165/165
f 168/168/168 166/166/166 167/167/167
f 165/165/165 168/168/168 167/167/167
f 169/169/169 165/165/165 167/167/167
f 170/170/170 169/169/169 167/167/167
f 170/170/170 171/171/171 169/169/169
f 171/171/171 172/172/172 169/169/169
f 169/169/169 172/172/172 173/173/173
f 174/174/174 171/171/171 170/170/170
f 172/172/172 171/171/171 174/174/174
f 175/175/175 174/174/174 170/170/170
f 176/176/176 172/172/172 174/174/174
f 172/172/172 176/176/176 173/173/173
f 176/176/176 174/174/174 175/175/175
f 173/173/173 176/176/176 175/175/175
f 177/177/177 173/173/173 175/175/175
f 178/178/178 177/177/177 175/175/175
f 178/178/178 179/179/179 177/177/177
f 179/179/179 180/180/180 177/177/177
f 177/177/177 180/180/180 181/181/181
f 182/182/182 179/179/179 178/178/178
f 180/180/180 179/179/179 182/182/182
f 183/183/183 182/182/182 178/178/178
f 184/184/184 180/180/180 182/182/182
f 180/180/180 184/184/184 181/181/181
f 184/184/184 182/182/182 183/183/183
f 181/181/181 184/184/184 183/183/183
f 185/185/185 181/181/181 183/183/183
f 186/186/186 185/185/185 183/183/183
f 186/186/186 126/126/126 185/185/185
f 126/126/126 187/187/187 185/185/185
f 190/190/190 189/189/189 188/188/188
f 191/191/191 190/190/190 188/188/188
f 191/191/191 188/188/188 192/192/192
f 191/191/191 193/193/193 190/190/190
f 193/193/193 194/194/194 190/190/190
f 195/195/195 191/191/191 192/192/192
f 192/192/192 196/196/196 195/195/195
f 196/196/196 197/197/197 195/195/195
f 195/195/195 197/197/197 198/198/198
f 197/197/197 199/199/199 198/198/198
f 198/198/198 199/199/199 200/200/200
f 199/199/199 201/201/201 200/200/200
f 199/199/199 202/202/202 201/201/201
f 202/202/202 203/203/203 201/201/201
f 200/200/200 201/201/201 204/204/204
f 201/201/201 205/205/205 204/204/204
f 204/204/204 205/205/205 206/206/206
f 205/205/205 207/207/207 206/206/206
f 206/206/206 208/208/208 204/204/204
f 208/208/208 209/209/209 204/204/204
f 212/212/212 211/211/211 210/210/210
f 210/210/210 213/213/213 212/212/212
f 210/210/210 214/214/214 213/213/213
f 214/214/214 215/215/215 213/213/213
f 214/214/214 216/216/216 215/215/215
f 216/216/216 217/217/217 215/215/215
f 220/220/220 219/219/219 218/218/218
f 221/221/221 220/220/220 218/218/218
f 224/224/224 223/223/223 222/222/222
f 225/225/225 224/224/224 222/222/222
f 228/228/228 227/227/227 226/226/226
f 229/229/229 228/228/228 226/226/226
f 232/232/232 231/231/231 230/230/230
f 233/233/233 232/232/232 230/230/230
f 236/236/236 235/235/235 234/234/234
f 237/237/237 236/236/236 234/234/234
f 240/240/240 239/239/239 238/238/238
f 241/241/241 240/240/240 238/238/238
f 244/244/244 243/243/243 242/242/242
f 245/245/245 244/244/244 242/242/242
f 248/248/248 247/247/247 246/246/246
f 249/249/249 248/248/248 246/246/246
f 252/252/252 251/251/251 250/250/250
f 250/250/250 253/253/253 252/252/252
f 250/250/250 254/254/254 253/253/253
f 254/254/254 255/255/255 253/253/253
f 254/254/254 256/256/256 255/255/255
f 259/259/259 258/258/258 257/257/257
f 260/260/260 259/259/259 257/257/257
f 261/261/261 259/259/259 260/260/260
f 262/262/262 261/261/261 260/260/260
f 265/265/265 264/264/264 263/263/263
f 266/266/266 265/265/265 263/263/263
f 269/269/269 268/268/268 267/267/267
f 270/270/270 269/269/269 267/267/267
f 271/271/271 269/269/269 270/270/270
f 272/272/272 271/271/271 270/270/270
f 273/273/273 271/271/271 272/272/272
f 274/274/274 273/273/273 272/272/272
f 276/276/276 273/273/273 275/275/275
f 277/277/277 276/276/276 275/275/275
f 280/280/280 279/279/279 278/278/278
f 278/278/278 281/281/281 280/280/280
f 281/281/281 282/282/282 280/280/280
f 281/281/281 283/283/283 282/282/282
f 283/283/283 284/284/284 282/282/282
f 287/287/287 286/286/286 285/285/285
f 288/288/288 287/287/287 285/285/285
f 291/291/291 290/290/290 289/289/289
f 292/292/292 291/291/291 289/289/289
f 295/295/295 294/294/294 293/293/293
f 296/296/296 295/295/295 293/293/293
f 299/299/299 298/298/298 297/297/297
f 300/300/300 299/299/299 297/297/297
f 303/303/303 302/302/302 301/301/301
f 304/304/304 303/303/303 301/301/301
f 307/307/307 306/306/306 305/305/305
f 308/308/308 307/307/307 305/305/305
f 311/311/311 310/310/310 309/309/309
f 312/312/312 311/311/311 309/309/309
f 315/315/315 314/314/314 313/313/313
f 316/316/316 315/315/315 313/313/313
f 319/319/319 318/318/318 317/317/317
f 320/320/320 319/319/319 317/317/317
f 323/323/323 322/322/322 321/321/321
f 324/324/324 323/323/323 321/321/321
f 327/327/327 326/326/326 325/325/325
f 328/328/328 327/327/327 325/325/325
f 331/331/331 330/330/330 329/329/329
f 332/332/332 331/331/331 329/329/329
f 335/335/335 334/334/334 333/333/333
f 336/336/336 335/335/335 333/333/333
f 339/339/339 338/338/338 337/337/337
f 340/340/340 339/339/339 337/337/337
f 343/343/343 342/342/342 341/341/341
f 341/341/341 344/344/344 343/343/343
f 341/341/341 345/345/345 344/344/344
f 345/345/345 346/346/346 344/344/344
f 345/345/345 347/347/347 346/346/346
f 350/350/350 349/349/349 348/348/348
f 351/351/351 350/350/350 348/348/348
f 352/352/352 350/350/350 351/351/351
f 353/353/353 352/352/352 351/351/351
f 356/356/356 355/355/355 354/354/354
f 357/357/357 356/356/356 354/354/354
f 360/360/360 359/359/359 358/358/358
f 361/361/361 360/360/360 358/358/358
f 362/362/362 360/360/360 361/361/361
f 363/363/363 362/362/362 361/361/361
f 364/364/364 362/362/362 363/363/363
f 365/365/365 364/364/364 363/363/363
f 367/367/367 364/364/364 366/366/366
f 368/368/368 367/367/367 366/366/366
f 371/371/371 370/370/370 369/369/369
f 369/369/369 372/372/372 371/371/371
f 372/372/372 373/373/373 371/371/371
f 372/372/372 374/374/374 373/373/373
f 374/374/374 375/375/375 373/373/373
f 378/378/378 377/377/377 376/376/376
f 379/379/379 378/378/378 376/376/376
f 382/382/382 381/381/381 380/380/380
f 383/383/383 382/382/382 380/380/380
f 386/386/386 385/385/385 384/384/384
f 387/387/387 386/386/386 384/384/384
f 390/390/390 389/389/389 388/388/388
f 391/391/391 390/390/390 388/388/388
f 394/394/394 393/393/393 392/392/392
f 395/395/395 394/394/394 392/392/392
f 398/398/398 397/397/397 396/396/396
f 399/399/399 398/398/398 396/396/396
f 402/402/402 401/401/401 400/400/400
f 403/403/403 402/402/402 400/400/400
f 406/406/406 405/405/405 404/404/404
f 407/407/407 406/406/406 404/404/404
f 410/410/410 409/409/409 408/408/408
f 411/411/411 410/410/410 408/408/408
f 414/414/414 413/413/413 412/412/412
f 415/415/415 414/414/414 412/412/412
f 418/418/418 417/417/417 416/416/416
f 419/419/419 418/418/418 416/416/416
f 422/422/422 421/421/421 420/420/420
f 423/423/423 422/422/422 420/420/420
f 426/426/426 425/425/425 424/424/424
f 427/427/427 426/426/426 424/424/424
f 430/430/430 429/429/429 428/428/428
f 431/431/431 430/430/430 428/428/428
f 434/434/434 433/433/433 432/432/432
f 432/432/432 435/435/435 434/434/434
f 432/432/432 436/436/436 435/435/435
f 436/436/436 437/437/437 435/435/435
f 436/436/436 438/438/438 437/437/437
f 441/441/441 440/440/440 439/439/439
f 442/442/442 441/441/441 439/439/439
f 443/443/443 441/441/441 442/442/442
f 444/444/444 443/443/443 442/442/442
f 447/447/447 446/446/446 445/445/445
f 448/448/448 447/447/447 445/445/445
f 451/451/451 450/450/450 449/449/449
f 452/452/452 451/451/451 449/449/449
f 453/453/453 451/451/451 452/452/452
f 454/454/454 453/453/453 452/452/452
f 455/455/455 453/453/453 454/454/454
f 456/456/456 455/455/455 454/454/454
f 458/458/458 455/455/455 457/457/457
f 459/459/459 458/458/458 457/457/457
f 462/462/462 461/461/461 460/460/460
f 460/460/460 463/463/463 462/462/462
f 463/463/463 464/464/464 462/462/462
f 463/463/463 465/465/465 464/464/464
f 465/465/465 466/466/466 464/464/464
f 469/469/469 468/468/468 467/467/467
f 470/470/470 469/469/469 467/467/467
f 473/473/473 472/472/472 471/471/471
f 474/474/474 473/473/473 471/471/471
f 477/477/477 476/476/476 475/475/475
f 478/478/478 477/477/477 475/475/475
f 481/481/481 480/480/480 479/479/479
f 482/482/482 481/481/481 479/479/479
f 485/485/485 484/484/484 483/483/483
f 486/486/486 485/485/485 483/483/483
f 489/489/489 488/488/488 487/487/487
f 490/490/490 489/489/489 487/487/487
f 493/493/493 492/492/492 491/491/491
f 494/494/494 493/493/493 491/491/491
f 497/497/497 496/496/496 495/495/495
f 498/498/498 497/497/497 495/495/495
f 501/501/501 500/500/500 499/499/499
f 502/502/502 501/501/501 499/499/499
f 505/505/505 504/504/504 503/503/503
f 506/506/506 505/505/505 503/503/503
f 509/509/509 508/508/508 507/507/507
f 510/510/510 509/509/509 507/507/507
f 513/513/513 512/512/512 511/511/511
f 514/514/514 513/513/513 511/511/511
f 517/517/517 516/516/516 515/515/515
f 518/518/518 517/517/517 515/515/515
f 521/521/521 520/520/520 519/519/519
f 522/522/522 521/521/521 519/519/519
f 525/525/525 524/524/524 523/523/523
f 523/523/523 526/526/526 525/525/525
f 523/523/523 527/527/527 526/526/526
f 527/527/527 528/528/528 526/526/526
f 527/527/527 529/529/529 528/528/528
f 532/532/532 531/531/531 530/530/530
f 533/533/533 532/532/532 530/530/530
f 534/534/534 532/532/532 533/533/533
f 535/535/535 534/534/534 533/533/533
f 538/538/538 537/537/537 536/536/536
f 539/539/539 538/538/538 536/536/536
f 542/542/542 541/541/541 540/540/540
f 543/543/543 542/542/542 540/540/540
f 544/544/544 542/542/542 543/543/543
f 545/545/545 544/544/544 543/543/543
f 546/546/546 544/544/544 545/545/545
f 547/547/547 546/546/546 545/545/545
f 549/549/549 546/546/546 548/548/548
f 550/550/550 549/549/549 548/548/548
f 553/553/553 552/552/552 551/551/551
f 551/551/551 554/554/554 553/553/553
f 554/554/554 555/555/555 553/553/553
f 554/554/554 556/556/556 555/555/555
f 556/556/556 557/557/557 555/555/555
f 560/560/560 559/559/559 558/558/558
f 561/561/561 560/560/560 558/558/558
f 564/564/564 563/563/563 562/562/562
f 565/565/565 564/564/564 562/562/562
f 568/568/568 567/567/567 566/566/566
f 569/569/569 568/568/568 566/566/566
f 572/572/572 571/571/571 570/570/570
f 573/573/573 572/572/572 570/570/570
f 576/576/576 575/575/575 574/574/574
f 577/577/577 576/576/576 574/574/574
f 580/580/580 579/579/579 578/578/578
f 581/581/581 580/580/580 578/578/578
