g Thing
v 1.6976603 -1.7007065E-05 2.746882
v -0 -1.7007065E-05 3.22915
v 0.52459335 1.6145427 2.7468905
v 2.222267 1.6145481 1.6976811
v 2.8882365 -1.7007065E-05 1.4441264
v 0.8924984 2.746857 1.44414
v 3.0711086 0.9978311 0.119043194
v 1.8980479 2.6124194 0.119043194
v 3.0711086 -0.9978652 0.119043194
v 2.222267 -1.6145821 1.6976811
v 1.6976603 -1.7007065E-05 2.746882
v 0.52459335 -1.6145766 2.7468905
v -0 -1.7007065E-05 3.22915
v 0.8924984 -2.746891 1.44414
v 1.8980479 -2.6124535 0.119043194
v 2.7749538 -0.9016404 -0.19768214
v 2.7749538 0.9016059 -0.19768214
v 1.7150145 -2.36053 -0.19768214
v 1.7150145 2.3604953 -0.19768214
v -0 -2.917772 -0.19768214
v -0 3.229133 0.119043194
v -0 2.9177377 -0.19768214
v -0 -3.229167 0.119043194
v -1.7150145 -2.36053 -0.19768214
v -1.8980479 -2.6124535 0.119043194
v -0.84884286 -2.612437 1.6976857
v -2.3366365 -1.6976631 1.4441389
v 0.52459335 -1.6145766 2.7468905
v -1.3734307 -0.9978612 2.74689
v -0 -1.7007065E-05 3.22915
v -0.84884286 2.612403 1.6976857
v 0.52459335 1.6145427 2.7468905
v -1.3734307 0.9978272 2.74689
v -0 -1.7007065E-05 3.22915
v -2.3366365 1.697629 1.4441389
v -1.8980479 2.6124194 0.119043194
v -1.7150145 2.3604953 -0.19768214
v -3.0711086 0.9978311 0.119043194
v -2.7749538 0.9016059 -0.19768214
v -2.7468696 -1.7007065E-05 1.69768
v -1.3734307 0.9978272 2.74689
v -3.0711086 -0.9978652 0.119043194
v -2.7749538 -0.9016404 -0.19768214
v -1.3734307 -0.9978612 2.74689
v -0 -1.7007065E-05 3.22915
v -2.3366365 -1.6976631 1.4441389
v -1.8980479 -2.6124535 0.119043194
v -1.7150145 -2.36053 -0.19768214
vt 0.4090915 0.3936515
vt 0.454546 0.472382
vt 0.5000005 0.3936515
vt 0.45454597 0.314921
vt 0.363637 0.314921
vt 0.545455 0.314921
vt 0.4090915 0.236191
vt 0.5000005 0.236191
vt 0.3181825 0.236191
vt 0.272728 0.314921
vt 0.3181825 0.3936515
vt 0.2272735 0.3936515
vt 0.272728 0.472382
vt 0.181819 0.314921
vt 0.2272735 0.236191
vt 0.3181825 0.236191
vt 0.4090915 0.236191
vt 0.2272735 0.236191
vt 0.5000005 0.236191
vt 0.1363645 0.236191
vt 0.5909095 0.236191
vt 0.5909095 0.236191
vt 0.1363645 0.236191
vt 0.045455 0.236191
vt 0.045455 0.236191
vt 0.0909095 0.314921
vt 0 0.314921
vt 0.1363645 0.3936515
vt 0.045455 0.3936515
vt 0.09091 0.472382
vt 0.636364 0.314921
vt 0.5909095 0.3936515
vt 0.6818185 0.3936515
vt 0.636364 0.472382
vt 0.727273 0.314921
vt 0.6818185 0.236191
vt 0.6818185 0.236191
vt 0.7727275 0.236191
vt 0.7727275 0.236191
vt 0.818182 0.314921
vt 0.7727275 0.3936515
vt 0.8636365 0.236191
vt 0.8636365 0.236191
vt 0.8636365 0.3936515
vt 0.818182 0.472382
vt 0.909091 0.314921
vt 0.9545455 0.236191
vt 0.9545455 0.236191
vn 0.5257297 0 0.8506517
vn -0 0 1
vn 0.16245688 0.4999964 0.85065347
vn 0.6843979 0.497244 0.53324294
vn 0.89040446 0 0.45517036
vn 0.2751464 0.8468244 0.45517343
vn 0.9204531 0.30874887 -0.2396668
vn 0.57807535 0.779993 -0.23966588
vn 0.9204532 -0.3087489 -0.23966677
vn 0.6843979 -0.497244 0.5332429
vn 0.5257297 0 0.8506517
vn 0.16245696 -0.49999627 0.85065347
vn -0 0 1
vn 0.27514642 -0.8468244 0.4551735
vn 0.57807547 -0.779993 -0.23966563
vn 0.6781812 -0.22035402 -0.7010808
vn 0.67818105 0.22035381 -0.701081
vn 0.41913986 -0.5768948 -0.7010807
vn 0.41913977 0.57689434 -0.7010811
vn -0 -0.71308196 -0.7010806
vn -0.009203867 0.97081167 -0.2396663
vn -0 0.7130814 -0.7010812
vn -0.009203871 -0.9708118 -0.23966601
vn -0.41913986 -0.5768948 -0.7010807
vn -0.5631839 -0.7908123 -0.23966591
vn -0.2614206 -0.8045559 0.53324395
vn -0.7203539 -0.5233629 0.45517218
vn 0.16245696 -0.49999627 0.85065347
vn -0.42532352 -0.309013 0.85065323
vn -0 0 1
vn -0.2614207 0.8045559 0.53324395
vn 0.16245688 0.4999964 0.85065347
vn -0.42532355 0.309013 0.85065323
vn -0 0 1
vn -0.7203539 0.5233629 0.4551721
vn -0.56318384 0.7908123 -0.23966612
vn -0.41913977 0.57689434 -0.7010811
vn -0.9261414 0.29124233 -0.2396667
vn -0.67818105 0.22035381 -0.701081
vn -0.84596217 0 0.53324294
vn -0.42532355 0.309013 0.85065323
vn -0.9261414 -0.29124227 -0.23966663
vn -0.6781812 -0.22035402 -0.7010808
vn -0.42532352 -0.309013 0.85065323
vn -0 0 1
vn -0.7203539 -0.5233629 0.45517218
vn -0.5631839 -0.7908123 -0.23966591
vn -0.41913986 -0.5768948 -0.7010807
g Thing_0
f 3/3/3 2/2/2 1/1/1
f 4/4/4 3/3/3 1/1/1
f 4/4/4 1/1/1 5/5/5
f 6/6/6 3/3/3 4/4/4
f 4/4/4 5/5/5 7/7/7
f 6/6/6 4/4/4 8/8/8
f 8/8/8 4/4/4 7/7/7
f 7/7/7 5/5/5 9/9/9
f 5/5/5 10/10/10 9/9/9
f 5/5/5 11/11/11 10/10/10
f 10/10/10 11/11/11 12/12/12
f 11/11/11 13/13/13 12/12/12
f 10/10/10 12/12/12 14/14/14
f 9/9/9 10/10/10 15/15/15
f 10/10/10 14/14/14 15/15/15
f 9/9/9 16/16/16 7/7/7
f 16/16/16 17/17/17 7/7/7
f 7/7/7 17/17/17 8/8/8
f 18/18/18 16/16/16 9/9/9
f 15/15/15 18/18/18 9/9/9
f 17/17/17 19/19/19 8/8/8
f 20/20/20 18/18/18 15/15/15
f 8/8/8 19/19/19 21/21/21
f 21/21/21 6/6/6 8/8/8
f 19/19/19 22/22/22 21/21/21
f 23/23/23 20/20/20 15/15/15
f 15/15/15 14/14/14 23/23/23
f 24/24/24 20/20/20 23/23/23
f 25/25/25 24/24/24 23/23/23
f 14/14/14 26/26/26 23/23/23
f 23/23/23 26/26/26 25/25/25
f 26/26/26 27/27/27 25/25/25
f 14/14/14 28/28/28 26/26/26
f 26/26/26 29/29/29 27/27/27
f 26/26/26 28/28/28 29/29/29
f 28/28/28 30/30/30 29/29/29
f 31/31/31 6/6/6 21/21/21
f 31/31/31 32/32/32 6/6/6
f 31/31/31 33/33/33 32/32/32
f 33/33/33 34/34/34 32/32/32
f 35/35/35 33/33/33 31/31/31
f 36/36/36 31/31/31 21/21/21
f 35/35/35 31/31/31 36/36/36
f 21/21/21 22/22/22 36/36/36
f 22/22/22 37/37/37 36/36/36
f 36/36/36 37/37/37 38/38/38
f 38/38/38 35/35/35 36/36/36
f 37/37/37 39/39/39 38/38/38
f 40/40/40 35/35/35 38/38/38
f 40/40/40 41/41/41 35/35/35
f 38/38/38 39/39/39 42/42/42
f 42/42/42 40/40/40 38/38/38
f 39/39/39 43/43/43 42/42/42
f 40/40/40 44/44/44 41/41/41
f 44/44/44 45/45/45 41/41/41
f 46/46/46 44/44/44 40/40/40
f 46/46/46 40/40/40 42/42/42
f 47/47/47 46/46/46 42/42/42
f 42/42/42 43/43/43 47/47/47
f 43/43/43 48/48/48 47/47/47
