g Thing Tentacle
v -2.5937104 0.19430965 1.0451906
v -2.9896429 1.0246757 1.2133745
v -2.9896429 1.123782 1.2616261
v -2.5937104 0.45040277 1.1698742
v -2.0047212 -0.6440093 0.74445915
v -2.0047212 -0.034909964 1.0410104
v -0.9184164 -0.7673856 0.77208984
v -0.9184164 0.10915771 0.77208984
v 0.13672459 0.5944844 0.59448594
v 0.13672459 -0.5944875 0.59448594
v 0.5751588 -0.44468352 0.35315928
v 0.5751588 -0.44468352 -0.5308145
v 0.5751588 0.4392904 0.35315928
v 0.13672459 -0.5944875 -0.5944859
v -0.9184164 -0.7673856 0.77208984
v 0.5751588 0.4392904 -0.5308145
v 0.13672459 0.5944844 -0.5944859
v -0.9184164 0.10915771 -0.104453385
v -0.9184164 0.10915771 0.77208984
v -2.0047212 0.2616412 0.431911
v -2.0047212 -0.034909964 1.0410104
v -2.5937104 0.57508636 0.91378117
v -2.5937104 0.45040277 1.1698742
v -2.9896429 1.1720338 1.1625198
v -2.9896429 1.123782 1.2616261
v -2.9896429 1.0729275 1.1142681
v -2.9896429 1.0246757 1.2133745
v -0.9184164 0.10915771 -0.104453385
v -0.9184164 -0.7673856 -0.104453385
v -2.0047212 -0.34745815 0.13535982
v -2.0047212 0.2616412 0.431911
v -2.5937104 0.31899327 0.78909755
v -2.5937104 0.57508636 0.91378117
v -2.9896429 1.0729275 1.1142681
v -2.9896429 1.1720338 1.1625198
v -0.9184164 -0.7673856 -0.104453385
v -2.0047212 -0.6440093 0.74445915
v -2.0047212 -0.34745815 0.13535982
v -2.5937104 0.19430965 1.0451906
v -2.5937104 0.31899327 0.78909755
v -2.9896429 1.0246757 1.2133745
v -2.9896429 1.0729275 1.1142681
vt 0.875 0.75
vt 0.875 0.75
vt 0.875 0.5
vt 0.875 0.5
vt 0.875 0.75
vt 0.875 0.5
vt 0.875 0.75
vt 0.875 0.5
vt 0.625 0.5
vt 0.625 0.75
vt 0.625 0.75
vt 0.375 0.75
vt 0.625 0.5
vt 0.375 0.75
vt 0.625 1
vt 0.375 0.5
vt 0.375 0.5
vt 0.375 0.25
vt 0.625 0.25
vt 0.375 0.25
vt 0.625 0.25
vt 0.375 0.25
vt 0.625 0.25
vt 0.375 0.25
vt 0.625 0.25
vt 0.375 0
vt 0.625 0
vt 0.125 0.5
vt 0.125 0.75
vt 0.125 0.75
vt 0.125 0.5
vt 0.125 0.75
vt 0.125 0.5
vt 0.125 0.75
vt 0.125 0.5
vt 0.375 1
vt 0.625 1
vt 0.375 1
vt 0.625 1
vt 0.375 1
vt 0.625 1
vt 0.375 1
vn -0.6988589 -0.5705947 0.43129805
vn -0.87508625 -0.33947724 0.3449339
vn -0.25103688 0.5548742 0.79315513
vn 0.22622715 0.11157024 0.9676638
vn -0.43602958 -0.80058223 0.41103077
vn 0.18651195 0.21922255 0.95768195
vn 0.056344114 -0.7784018 0.62523276
vn 0.007565207 0.5976648 0.8017104
vn 0.1293031 0.7503213 0.6483044
vn 0.36349916 -0.64876735 0.6685575
vn 0.5242885 -0.651928 0.5478242
vn 0.31590658 -0.6189189 -0.7191262
vn 0.53063244 0.6462556 0.5484369
vn 0.02765923 -0.664563 -0.74672025
vn 0.056344114 -0.7784018 0.62523276
vn 0.3220126 0.6140848 -0.7205607
vn -0.09827689 0.7228067 -0.6840265
vn -0.415202 0.6473388 -0.63918674
vn 0.007565207 0.5976648 0.8017104
vn -0.09905882 0.8630866 -0.49524632
vn 0.18651195 0.21922255 0.95768195
vn 0.5106928 0.74733347 -0.42507136
vn 0.22622715 0.11157024 0.9676638
vn -0.2236202 0.9634827 -0.14729269
vn -0.25103688 0.5548742 0.79315513
vn -0.69850844 0.14898115 -0.69992185
vn -0.87508625 -0.33947724 0.3449339
vn -0.415202 0.6473388 -0.63918674
vn -0.23280397 -0.72917295 -0.64351314
vn -0.5712906 -0.3744744 -0.7303397
vn -0.09905882 0.8630866 -0.49524632
vn -0.7868858 -0.072068505 -0.61287594
vn 0.5106928 0.74733347 -0.42507136
vn -0.69850844 0.14898115 -0.69992185
vn -0.2236202 0.9634827 -0.14729269
vn -0.23280397 -0.72917295 -0.64351314
vn -0.43602958 -0.80058223 0.41103077
vn -0.5712906 -0.3744744 -0.7303397
vn -0.6988589 -0.5705947 0.43129805
vn -0.7868858 -0.072068505 -0.61287594
vn -0.87508625 -0.33947724 0.3449339
vn -0.69850844 0.14898115 -0.69992185
g Thing Tentacle_0
f 3/3/3 2/2/2 1/1/1
f 4/4/4 3/3/3 1/1/1
f 4/4/4 1/1/1 5/5/5
f 6/6/6 4/4/4 5/5/5
f 6/6/6 5/5/5 7/7/7
f 8/8/8 6/6/6 7/7/7
f 8/8/8 7/7/7 9/9/9
f 7/7/7 10/10/10 9/9/9
f 10/10/10 11/11/11 9/9/9
f 12/12/12 11/11/11 10/10/10
f 11/11/11 13/13/13 9/9/9
f 14/14/14 12/12/12 10/10/10
f 10/10/10 15/15/15 14/14/14
f 16/16/16 12/12/12 14/14/14
f 13/13/13 16/16/16 17/17/17
f 9/9/9 13/13/13 17/17/17
f 17/17/17 16/16/16 14/14/14
f 9/9/9 17/17/17 18/18/18
f 19/19/19 9/9/9 18/18/18
f 18/18/18 20/20/20 19/19/19
f 20/20/20 21/21/21 19/19/19
f 20/20/20 22/22/22 21/21/21
f 22/22/22 23/23/23 21/21/21
f 22/22/22 24/24/24 23/23/23
f 24/24/24 25/25/25 23/23/23
f 25/25/25 24/24/24 26/26/26
f 27/27/27 25/25/25 26/26/26
f 17/17/17 14/14/14 28/28/28
f 14/14/14 29/29/29 28/28/28
f 29/29/29 30/30/30 28/28/28
f 30/30/30 31/31/31 28/28/28
f 30/30/30 32/32/32 31/31/31
f 32/32/32 33/33/33 31/31/31
f 32/32/32 34/34/34 33/33/33
f 34/34/34 35/35/35 33/33/33
f 15/15/15 36/36/36 14/14/14
f 15/15/15 37/37/37 36/36/36
f 37/37/37 38/38/38 36/36/36
f 37/37/37 39/39/39 38/38/38
f 39/39/39 40/40/40 38/38/38
f 39/39/39 41/41/41 40/40/40
f 41/41/41 42/42/42 40/40/40
