g Totend Small Wall Straight
v -10.532237 0.40822983 3.1248894
v -10.532237 -0.4227543 3.1248894
v -15.721551 -0.4227543 3.1248894
v -15.721551 0.40822983 3.1248894
v 15.414331 0.40822983 3.1248894
v 15.414331 -0.4227543 3.1248894
v 10.225018 -0.4227543 3.1248908
v 10.225018 0.40822983 3.1248908
v 10.225018 0.40822983 3.1248908
v 10.225018 -0.4227543 3.1248908
v 5.035703 -0.4227543 5.8253875
v 5.035703 0.40822983 5.8253875
v 5.035703 0.40822983 5.8253875
v 5.035703 -0.4227543 5.8253875
v -0.15361047 -0.4227543 4.0935874
v -0.15361047 0.40822983 4.0935874
v -0.15361047 0.40822983 4.0935874
v -0.15361047 -0.4227543 4.0935874
v -5.342924 -0.4227543 5.8253875
v -5.342924 0.40822983 5.8253875
v -5.342924 0.40822983 5.8253875
v -5.342924 -0.4227543 5.8253875
v -10.532237 -0.4227543 3.1248894
v -10.532237 0.40822983 3.1248894
v 15.414331 0.40822983 1.0998197
v 15.414331 0.40822983 3.1248894
v 10.225018 0.40822983 3.1248908
v 10.225018 0.40822983 1.0998197
v 15.414331 0.40822983 -9.176025
v 5.035703 0.40822983 5.8253875
v 10.225018 0.40822983 -9.176025
v 5.035703 0.40822983 1.0998197
v -0.15361047 0.40822983 4.0935874
v 5.035703 0.40822983 -9.176025
v -0.15361047 0.40822983 1.0998197
v -5.342924 0.40822983 5.8253875
v -0.15361047 0.40822983 -9.176025
v -5.342924 0.40822983 1.0998197
v -10.532237 0.40822983 3.1248894
v -5.342924 0.40822983 -9.176025
v -10.532237 0.40822983 1.0998197
v -15.721551 0.40822983 3.1248894
v -10.532237 0.40822983 -9.176025
v -15.721551 0.40822983 1.0998197
v -15.721551 0.40822983 -9.176025
v 15.414331 -0.4227543 1.0998197
v 15.414331 -0.4227543 3.1248894
v 15.414331 0.40822983 3.1248894
v 15.414331 0.40822983 1.0998197
v 15.414331 -0.4227543 -9.176025
v 15.414331 0.40822983 -9.176025
v -15.721551 -0.4227543 1.0998197
v -15.721551 -0.4227543 3.1248894
v -10.532237 -0.4227543 3.1248894
v -10.532237 -0.4227543 1.0998197
v -15.721551 -0.4227543 -9.176025
v -5.342924 -0.4227543 5.8253875
v -10.532237 -0.4227543 -9.176025
v -5.342924 -0.4227543 1.0998197
v -0.15361047 -0.4227543 4.0935874
v -5.342924 -0.4227543 -9.176025
v -0.15361047 -0.4227543 1.0998197
v 5.035703 -0.4227543 5.8253875
v -0.15361047 -0.4227543 -9.176025
v 5.035703 -0.4227543 1.0998197
v 10.225018 -0.4227543 3.1248908
v 5.035703 -0.4227543 -9.176025
v 10.225018 -0.4227543 1.0998197
v 15.414331 -0.4227543 3.1248894
v 10.225018 -0.4227543 -9.176025
v 15.414331 -0.4227543 1.0998197
v 15.414331 -0.4227543 -9.176025
v -15.721551 0.40822983 1.0998197
v -15.721551 0.40822983 3.1248894
v -15.721551 -0.4227543 3.1248894
v -15.721551 -0.4227543 1.0998197
v -15.721551 0.40822983 -9.176025
v -15.721551 -0.4227543 -9.176025
v 10.225018 -0.4227543 -9.176025
v 15.414331 -0.4227543 -9.176025
v 15.414331 0.40822983 -9.176025
v 10.225018 0.40822983 -9.176025
v 5.035703 -0.4227543 -9.176025
v 5.035703 0.40822983 -9.176025
v -0.15361047 -0.4227543 -9.176025
v -0.15361047 0.40822983 -9.176025
v -5.342924 -0.4227543 -9.176025
v -5.342924 0.40822983 -9.176025
v -10.532237 -0.4227543 -9.176025
v -10.532237 0.40822983 -9.176025
v -10.532237 0.40822983 -9.176025
v -15.721551 -0.4227543 -9.176025
v -10.532237 -0.4227543 -9.176025
v -15.721551 0.40822983 -9.176025
vt 0.83333343 0.73582935
vt 0.8333334 0.75
vt 0.875 0.75
vt 0.875 0.73582935
vt 0.625 0.73582935
vt 0.625 0.75
vt 0.6666666 0.75
vt 0.6666666 0.73582935
vt 0.6666666 0.73582935
vt 0.6666666 0.75
vt 0.7083333 0.75
vt 0.7083333 0.73582935
vt 0.7083333 0.73582935
vt 0.7083333 0.75
vt 0.75 0.75
vt 0.75 0.73582935
vt 0.75 0.73582935
vt 0.75 0.75
vt 0.7916666 0.75
vt 0.7916666 0.73582935
vt 0.7916666 0.73582935
vt 0.7916666 0.75
vt 0.8333334 0.75
vt 0.83333343 0.73582935
vt 0.625 0.73582935
vt 0.625 0.73582935
vt 0.6666666 0.73582935
vt 0.6666666 0.73582935
vt 0.625 0.73582935
vt 0.7083333 0.73582935
vt 0.6666666 0.73582935
vt 0.7083333 0.73582935
vt 0.75 0.73582935
vt 0.7083333 0.73582935
vt 0.75 0.73582935
vt 0.7916666 0.73582935
vt 0.75 0.73582935
vt 0.7916666 0.73582935
vt 0.83333343 0.73582935
vt 0.7916666 0.73582935
vt 0.83333343 0.73582935
vt 0.875 0.73582935
vt 0.83333343 0.73582935
vt 0.875 0.73582935
vt 0.875 0.73582935
vt 0.625 0.75
vt 0.625 0.75
vt 0.625 0.73582935
vt 0.625 0.73582935
vt 0.625 0.75
vt 0.625 0.73582935
vt 0.625 1
vt 0.625 1
vt 0.625 0.95833325
vt 0.625 0.95833325
vt 0.625 1
vt 0.625 0.9166666
vt 0.625 0.95833325
vt 0.625 0.9166666
vt 0.625 0.875
vt 0.625 0.9166666
vt 0.625 0.875
vt 0.625 0.8333334
vt 0.625 0.875
vt 0.625 0.8333334
vt 0.625 0.7916667
vt 0.625 0.8333334
vt 0.625 0.7916667
vt 0.625 0.75
vt 0.625 0.7916667
vt 0.625 0.75
vt 0.625 0.75
vt 0.625 0.014170672
vt 0.625 0.014170672
vt 0.625 0
vt 0.625 0
vt 0.625 0.014170672
vt 0.625 0
vt 0.625 0.7916667
vt 0.625 0.75
vt 0.625 0.73582935
vt 0.6666666 0.73582935
vt 0.625 0.8333334
vt 0.7083333 0.73582935
vt 0.625 0.875
vt 0.75 0.73582935
vt 0.625 0.9166666
vt 0.7916666 0.73582935
vt 0.625 0.95833325
vt 0.83333343 0.73582935
vt 0.83333343 0.73582935
vt 0.625 0
vt 0.625 0.95833325
vt 0.875 0.73582935
vn -0 0 1
vn -0 0 1
vn -0 0 1
vn -0 0 1
vn -0 0 1
vn -0 0 1
vn -0 0 1
vn -0 0 1
vn 0.461629 0 0.88707304
vn 0.461629 0 0.88707304
vn 0.461629 0 0.88707304
vn 0.461629 0 0.88707304
vn -0.3165615 0 0.948572
vn -0.3165615 0 0.948572
vn -0.3165615 0 0.948572
vn -0.3165615 0 0.948572
vn 0.3165615 0 0.948572
vn 0.3165615 0 0.948572
vn 0.3165615 0 0.948572
vn 0.3165615 0 0.948572
vn -0.4616293 0 0.8870729
vn -0.4616293 0 0.8870729
vn -0.4616293 0 0.8870729
vn -0.4616293 0 0.8870729
vn -0 1 0
vn -0 1 0
vn -0 1 0
vn -0 1 0
vn -0 1 0
vn -0 1 0
vn -0 1 0
vn -0 1 0
vn -0 1 0
vn -0 1 0
vn -0 1 0
vn -0 1 0
vn -0 1 0
vn -0 1 0
vn -0 1 0
vn -0 1 0
vn -0 1 0
vn -0 1 0
vn -0 1 0
vn -0 1 0
vn -0 1 0
vn 1 0 0
vn 1 0 0
vn 1 0 0
vn 1 0 0
vn 1 0 0
vn 1 0 0
vn -0 -1 0
vn -0 -1 0
vn -0 -1 0
vn -0 -1 0
vn -0 -1 0
vn -0 -1 0
vn -0 -1 0
vn -0 -1 0
vn -0 -1 0
vn -0 -1 0
vn -0 -1 0
vn -0 -1 0
vn -0 -1 0
vn -0 -1 0
vn -0 -1 0
vn -0 -1 0
vn -0 -1 0
vn -0 -1 0
vn -0 -1 0
vn -0 -1 0
vn -0 -1 0
vn -1 0 0
vn -1 0 0
vn -1 0 0
vn -1 0 0
vn -1 0 0
vn -1 0 0
vn -0 0 -1
vn -0 0 -1
vn -0 0 -1
vn -0 0 -1
vn -0 0 -1
vn -0 0 -1
vn -0 0 -1
vn -0 0 -1
vn -0 0 -1
vn -0 0 -1
vn -0 0 -1
vn -0 0 -1
vn -0 0 -1
vn -0 0 -1
vn -0 0 -1
vn -0 0 -1
g Totend Small Wall Straight_0
f 3/3/3 2/2/2 1/1/1
f 4/4/4 3/3/3 1/1/1
f 7/7/7 6/6/6 5/5/5
f 8/8/8 7/7/7 5/5/5
f 11/11/11 10/10/10 9/9/9
f 12/12/12 11/11/11 9/9/9
f 15/15/15 14/14/14 13/13/13
f 16/16/16 15/15/15 13/13/13
f 19/19/19 18/18/18 17/17/17
f 20/20/20 19/19/19 17/17/17
f 23/23/23 22/22/22 21/21/21
f 24/24/24 23/23/23 21/21/21
f 27/27/27 26/26/26 25/25/25
f 28/28/28 27/27/27 25/25/25
f 25/25/25 29/29/29 28/28/28
f 30/30/30 27/27/27 28/28/28
f 29/29/29 31/31/31 28/28/28
f 32/32/32 30/30/30 28/28/28
f 28/28/28 31/31/31 32/32/32
f 33/33/33 30/30/30 32/32/32
f 31/31/31 34/34/34 32/32/32
f 35/35/35 33/33/33 32/32/32
f 32/32/32 34/34/34 35/35/35
f 36/36/36 33/33/33 35/35/35
f 34/34/34 37/37/37 35/35/35
f 38/38/38 36/36/36 35/35/35
f 35/35/35 37/37/37 38/38/38
f 39/39/39 36/36/36 38/38/38
f 37/37/37 40/40/40 38/38/38
f 41/41/41 39/39/39 38/38/38
f 38/38/38 40/40/40 41/41/41
f 42/42/42 39/39/39 41/41/41
f 40/40/40 43/43/43 41/41/41
f 44/44/44 42/42/42 41/41/41
f 41/41/41 43/43/43 44/44/44
f 43/43/43 45/45/45 44/44/44
f 48/48/48 47/47/47 46/46/46
f 49/49/49 48/48/48 46/46/46
f 46/46/46 50/50/50 49/49/49
f 50/50/50 51/51/51 49/49/49
f 54/54/54 53/53/53 52/52/52
f 55/55/55 54/54/54 52/52/52
f 52/52/52 56/56/56 55/55/55
f 57/57/57 54/54/54 55/55/55
f 56/56/56 58/58/58 55/55/55
f 59/59/59 57/57/57 55/55/55
f 55/55/55 58/58/58 59/59/59
f 60/60/60 57/57/57 59/59/59
f 58/58/58 61/61/61 59/59/59
f 62/62/62 60/60/60 59/59/59
f 59/59/59 61/61/61 62/62/62
f 63/63/63 60/60/60 62/62/62
f 61/61/61 64/64/64 62/62/62
f 65/65/65 63/63/63 62/62/62
f 62/62/62 64/64/64 65/65/65
f 66/66/66 63/63/63 65/65/65
f 64/64/64 67/67/67 65/65/65
f 68/68/68 66/66/66 65/65/65
f 65/65/65 67/67/67 68/68/68
f 69/69/69 66/66/66 68/68/68
f 67/67/67 70/70/70 68/68/68
f 71/71/71 69/69/69 68/68/68
f 68/68/68 70/70/70 71/71/71
f 70/70/70 72/72/72 71/71/71
f 75/75/75 74/74/74 73/73/73
f 76/76/76 75/75/75 73/73/73
f 73/73/73 77/77/77 76/76/76
f 77/77/77 78/78/78 76/76/76
f 81/81/81 80/80/80 79/79/79
f 79/79/79 82/82/82 81/81/81
f 79/79/79 83/83/83 82/82/82
f 83/83/83 84/84/84 82/82/82
f 83/83/83 85/85/85 84/84/84
f 85/85/85 86/86/86 84/84/84
f 85/85/85 87/87/87 86/86/86
f 87/87/87 88/88/88 86/86/86
f 87/87/87 89/89/89 88/88/88
f 89/89/89 90/90/90 88/88/88
f 93/93/93 92/92/92 91/91/91
f 92/92/92 94/94/94 91/91/91
