g Totend Tree
v -1 1 -0.04367727
v 1 1 -0.04367727
v -0 0 9.961023
v -1 -1 -0.04367727
v -1 1 -0.04367727
v -0 0 9.961023
v 1 -1 -0.04367727
v -1 -1 -0.04367727
v -0 0 9.961023
v 1 1 -0.04367727
v 1 -1 -0.04367727
v -0 0 9.961023
v -1 1 -0.04367727
v -1 -1 -0.04367727
v 1 -1 -0.04367727
v 1 1 -0.04367727
vt 0.375 0
vt 0.375 0.25
vt 0.5864815 0.25
vt 0.625 0.5
vt 0.625 0.75
vt 0.8364815 0.75
vt 0.375 0.5
vt 0.375 0.75
vt 0.5864815 0.75
vt 0.375 0.75
vt 0.375 1
vt 0.5864815 1
vt 0.375 0.25
vt 0.375 0.5
vt 0.625 0.5
vt 0.625 0.25
vn -0.60174644 0.60174644 -0.52516884
vn 0.60174644 0.60174644 -0.52516884
vn -0 0 1
vn -0.60174644 -0.60174644 -0.52516884
vn -0.60174644 0.60174644 -0.52516884
vn -0 0 1
vn 0.60174644 -0.60174644 -0.52516884
vn -0.60174644 -0.60174644 -0.52516884
vn -0 0 1
vn 0.60174644 0.60174644 -0.52516884
vn 0.60174644 -0.60174644 -0.52516884
vn -0 0 1
vn -0.60174644 0.60174644 -0.52516884
vn -0.60174644 -0.60174644 -0.52516884
vn 0.60174644 -0.60174644 -0.52516884
vn 0.60174644 0.60174644 -0.52516884
g Totend Tree_0
f 3/3/3 2/2/2 1/1/1
f 6/6/6 5/5/5 4/4/4
f 9/9/9 8/8/8 7/7/7
f 12/12/12 11/11/11 10/10/10
f 15/15/15 14/14/14 13/13/13
f 16/16/16 15/15/15 13/13/13
