g Totend Gate Segment
v -0.2603833 -0.40567452 -0.2603833
v -0.2603833 0.8856892 -0.2603833
v -0.2603833 0.8856892 2.2526677
v -0.2603833 -0.40567452 3.3163505
v -0.2603833 0.8856892 -0.2603833
v 0.2603833 0.8856892 -0.2603833
v 0.2603833 0.8856892 2.2526677
v -0.2603833 0.8856892 2.2526677
v 0.2603833 -0.8856892 -0.2603833
v 0.42235515 -0.40567452 -0.2603833
v 0.2603833 -0.40567452 -0.2603833
v 0.3749147 -1.0002205 -0.2603833
v -0.2603833 -0.8856892 -0.2603833
v -0.3749147 -1.0002205 -0.2603833
v -0.2603833 -0.40567452 -0.2603833
v -0.42235515 -0.40567452 -0.2603833
v 0.3749147 -1.0002205 -0.2603833
v -0.3749147 -1.0002205 -0.2603833
v -0.3749147 -1.0002205 3.2013204
v 0.3749147 -1.0002205 3.2013204
v 0.2603833 -0.40567452 3.3163505
v 0.2603833 -0.8856892 3.3163505
v -0.2603833 -0.8856892 3.3163505
v -0.2603833 -0.40567452 3.3163505
v 0.2603833 0.8856892 2.2526677
v 0.2603833 -0.40567452 3.3163505
v -0.2603833 -0.40567452 3.3163505
v -0.2603833 0.8856892 2.2526677
v 0.42235515 -0.40567452 -0.2603833
v 0.3749147 -1.0002205 -0.2603833
v 0.3749147 -1.0002205 3.2013204
v 0.42235515 -0.40567452 3.2013204
v 0.2603833 0.8856892 -0.2603833
v 0.2603833 -0.40567452 -0.2603833
v 0.2603833 -0.40567452 3.3163505
v 0.2603833 0.8856892 2.2526677
v 0.2603833 -0.40567452 -0.2603833
v 0.42235515 -0.40567452 -0.2603833
v 0.42235515 -0.40567452 3.2013204
v 0.2603833 -0.40567452 3.3163505
v -0.3749147 -1.0002205 -0.2603833
v -0.42235515 -0.40567452 -0.2603833
v -0.42235515 -0.40567452 3.2013204
v -0.3749147 -1.0002205 3.2013204
v -0.2603833 -0.40567452 3.3163505
v -0.42235515 -0.40567452 3.2013204
v -0.42235515 -0.40567452 -0.2603833
v -0.2603833 -0.40567452 -0.2603833
v 0.2603833 -0.40567452 3.3163505
v 0.42235515 -0.40567452 3.2013204
v 0.3749147 -1.0002205 3.2013204
v 0.2603833 -0.8856892 3.3163505
v -0.2603833 -0.8856892 3.3163505
v -0.3749147 -1.0002205 3.2013204
v -0.42235515 -0.40567452 3.2013204
v -0.2603833 -0.40567452 3.3163505
v 0.2603833 -0.8856892 3.3163505
v 0.3749147 -1.0002205 3.2013204
v -0.3749147 -1.0002205 3.2013204
v -0.2603833 -0.8856892 3.3163505
vt 0.375 0.067745924
vt 0.375 0.25
vt 0.625 0.25
vt 0.625 0.067745924
vt 0.375 0.25
vt 0.375 0.5
vt 0.625 0.5
vt 0.625 0.25
vt 0 0
vt 0 0
vt 0 0
vt 0 0
vt 0 0
vt 0 0
vt 0 0
vt 0 0
vt 0.375 0.75
vt 0.375 1
vt 0.625 1
vt 0.625 0.75
vt 0.625 0.6822541
vt 0.625 0.75
vt 0.875 0.75
vt 0.875 0.6822541
vt 0.625 0.5
vt 0.625 0.6822541
vt 0.875 0.6822541
vt 0.875 0.5
vt 0.37499997 0.6822541
vt 0.375 0.75
vt 0.625 0.75
vt 0.625 0.6822541
vt 0.375 0.5
vt 0.37499997 0.6822541
vt 0.625 0.6822541
vt 0.625 0.5
vt 0.37499997 0.6822541
vt 0.37499997 0.6822541
vt 0.625 0.6822541
vt 0.625 0.6822541
vt 0.375 0
vt 0.375 0.067745924
vt 0.625 0.067745924
vt 0.625 0
vt 0.625 0.067745924
vt 0.625 0.067745924
vt 0.375 0.067745924
vt 0.375 0.067745924
vt 0.625 0.6822541
vt 0.625 0.6822541
vt 0.625 0.75
vt 0.625 0.75
vt 0.875 0.75
vt 0.875 0.75
vt 0.875 0.6822541
vt 0.875 0.6822541
vt 0.625 0.75
vt 0.625 0.75
vt 0.875 0.75
vt 0.875 0.75
vn -1 0 0
vn -1 0 0
vn -1 0 0
vn -1 0 0
vn -0 1 0
vn -0 1 0
vn -0 1 0
vn -0 1 0
vn -0 0 -1
vn -0 0 -1
vn -0 0 -1
vn -0 0 -1
vn -0 0 -1
vn -0 0 -1
vn -0 0 -1
vn -0 0 -1
vn -0 -1 0
vn -0 -1 0
vn -0 -1 0
vn -0 -1 0
vn -0 0 1
vn -0 0 1
vn -0 0 1
vn -0 0 1
vn -0 0.6357809 0.7718696
vn -0 0.6357809 0.7718696
vn -0 0.6357809 0.7718696
vn -0 0.6357809 0.7718696
vn 0.9968317 -0.0795399 0
vn 0.9968317 -0.0795399 0
vn 0.9968317 -0.0795399 0
vn 0.9968317 -0.0795399 0
vn 1 0 0
vn 1 0 0
vn 1 0 0
vn 1 0 0
vn -0 1 0
vn -0 1 0
vn -0 1 0
vn -0 1 0
vn -0.9968317 -0.0795399 0
vn -0.9968317 -0.0795399 0
vn -0.9968317 -0.0795399 0
vn -0.9968317 -0.0795399 0
vn -0 1 0
vn -0 1 0
vn -0 1 0
vn -0 1 0
vn 0.6324851 -0.02792339 0.7740691
vn 0.6324851 -0.02792339 0.7740691
vn 0.6324851 -0.02792339 0.7740691
vn 0.6324851 -0.02792339 0.7740691
vn -0.6324851 -0.02792339 0.7740691
vn -0.6324851 -0.02792339 0.7740691
vn -0.6324851 -0.02792339 0.7740691
vn -0.6324851 -0.02792339 0.7740691
vn -0 -0.7086415 0.7055686
vn -0 -0.7086415 0.7055686
vn -0 -0.7086415 0.7055686
vn -0 -0.7086415 0.7055686
g Totend Gate Segment_0
f 3/3/3 2/2/2 1/1/1
f 4/4/4 3/3/3 1/1/1
f 7/7/7 6/6/6 5/5/5
f 8/8/8 7/7/7 5/5/5
f 11/11/11 10/10/10 9/9/9
f 10/10/10 12/12/12 9/9/9
f 9/9/9 12/12/12 13/13/13
f 12/12/12 14/14/14 13/13/13
f 13/13/13 14/14/14 15/15/15
f 14/14/14 16/16/16 15/15/15
f 19/19/19 18/18/18 17/17/17
f 20/20/20 19/19/19 17/17/17
f 23/23/23 22/22/22 21/21/21
f 24/24/24 23/23/23 21/21/21
f 27/27/27 26/26/26 25/25/25
f 28/28/28 27/27/27 25/25/25
f 31/31/31 30/30/30 29/29/29
f 32/32/32 31/31/31 29/29/29
f 35/35/35 34/34/34 33/33/33
f 36/36/36 35/35/35 33/33/33
f 39/39/39 38/38/38 37/37/37
f 40/40/40 39/39/39 37/37/37
f 43/43/43 42/42/42 41/41/41
f 44/44/44 43/43/43 41/41/41
f 47/47/47 46/46/46 45/45/45
f 48/48/48 47/47/47 45/45/45
f 51/51/51 50/50/50 49/49/49
f 52/52/52 51/51/51 49/49/49
f 55/55/55 54/54/54 53/53/53
f 56/56/56 55/55/55 53/53/53
f 59/59/59 58/58/58 57/57/57
f 60/60/60 59/59/59 57/57/57
