g Totend Small Stair Wall
v -6.7076845 0.41348267 10.935309
v 6.711553 0.41348267 4.179063
v 6.711553 -0.40947723 4.179063
v -6.7076845 -0.40947723 10.935309
v -6.7076845 -0.40947723 10.935309
v -9.319912 -0.40947723 10.935309
v -9.319912 0.41348267 10.935309
v -6.7076845 0.41348267 10.935309
v 12.938201 0.41348267 -1.4512753
v 12.993627 0.41348267 -4.3490376
v 12.993627 -0.40947723 -4.3490376
v 12.938201 -0.40947723 -1.4512753
v 12.938201 -0.40947723 -1.4512753
v 12.993627 -0.40947723 -4.3490376
v 9.379206 -0.40947723 -4.3490376
v 9.32378 -0.40947723 -1.4512753
v 6.766978 -0.40947723 -4.3490376
v 9.32378 -0.40947723 4.179063
v 12.938201 -0.40947723 -0.31987435
v 6.711553 -0.40947723 4.179063
v 6.711553 -0.40947723 -1.4512753
v -6.65226 -0.40947723 -4.3490376
v -6.7076845 -0.40947723 10.935309
v -6.7076845 -0.40947723 5.304971
v -9.264486 -0.40947723 -4.3490376
v -9.319912 -0.40947723 10.935309
v -9.319912 -0.40947723 5.304971
v -12.878907 -0.40947723 -4.3490376
v -12.934333 -0.40947723 6.4363723
v -12.934333 -0.40947723 5.304971
v -12.934333 -0.40947723 5.304971
v -12.878907 -0.40947723 -4.3490376
v -12.878907 0.41348267 -4.3490376
v -12.934333 0.41348267 5.304971
v 6.711553 0.41348267 4.179063
v 9.32378 0.41348267 4.179063
v 9.32378 -0.40947723 4.179063
v 6.711553 -0.40947723 4.179063
v 12.938201 0.41348267 -1.4512753
v 12.938201 -0.40947723 -1.4512753
v 12.938201 -0.40947723 -0.31987435
v 12.938201 0.41348267 -0.31987435
v -12.934333 0.41348267 5.304971
v -12.934333 0.41348267 6.4363723
v -12.934333 -0.40947723 6.4363723
v -12.934333 -0.40947723 5.304971
v 9.32378 0.41348267 4.179063
v 12.938201 0.41348267 -0.31987435
v 12.938201 -0.40947723 -0.31987435
v 9.32378 -0.40947723 4.179063
v -9.319912 -0.40947723 10.935309
v -12.934333 -0.40947723 6.4363723
v -12.934333 0.41348267 6.4363723
v -9.319912 0.41348267 10.935309
v -9.319912 0.41348267 10.935309
v -12.934333 0.41348267 6.4363723
v -12.934333 0.41348267 5.304971
v -9.319912 0.41348267 5.304971
v -6.7076845 0.41348267 10.935309
v -9.264486 0.41348267 -4.3490376
v -12.878907 0.41348267 -4.3490376
v -6.65226 0.41348267 -4.3490376
v -6.7076845 0.41348267 5.304971
v 6.711553 0.41348267 4.179063
v 6.766978 0.41348267 -4.3490376
v 6.711553 0.41348267 -1.4512753
v 9.32378 0.41348267 4.179063
v 9.379206 0.41348267 -4.3490376
v 9.32378 0.41348267 -1.4512753
v 12.938201 0.41348267 -0.31987435
v 12.993627 0.41348267 -4.3490376
v 12.938201 0.41348267 -1.4512753
v -9.264486 0.41348267 -4.3490376
v -12.878907 0.41348267 -4.3490376
v -12.878907 -0.40947723 -4.3490376
v -9.264486 -0.40947723 -4.3490376
v -6.65226 0.41348267 -4.3490376
v -6.65226 -0.40947723 -4.3490376
v 6.766978 0.41348267 -4.3490376
v 6.766978 -0.40947723 -4.3490376
v 9.379206 0.41348267 -4.3490376
v 9.379206 -0.40947723 -4.3490376
v 12.993627 0.41348267 -4.3490376
v 12.993627 -0.40947723 -4.3490376
vt 0.625 0.5
vt 0.625 0.5
vt 0.625 0.75
vt 0.625 0.75
vt 0.625 0.75
vt 0.625 0.75
vt 0.625 0.5
vt 0.625 0.5
vt 0.375 0.5
vt 0.375 0.5
vt 0.375 0.75
vt 0.375 0.75
vt 0.375 0.75
vt 0.375 0.75
vt 0.375 0.75
vt 0.375 0.75
vt 0.375 0.75
vt 0.625 0.75
vt 0.40585232 0.75
vt 0.625 0.75
vt 0.375 0.75
vt 0.375 0.75
vt 0.625 0.75
vt 0.375 0.75
vt 0.375 0.75
vt 0.625 0.75
vt 0.375 0.75
vt 0.375 0.75
vt 0.40585232 0.75
vt 0.375 0.75
vt 0.375 0.75
vt 0.375 0.75
vt 0.375 0.5
vt 0.375 0.5
vt 0.625 0.5
vt 0.625 0.5
vt 0.625 0.75
vt 0.625 0.75
vt 0.375 0.5
vt 0.375 0.75
vt 0.40585232 0.75
vt 0.40585232 0.5
vt 0.375 0.5
vt 0.40585226 0.49999994
vt 0.40585232 0.75
vt 0.375 0.75
vt 0.625 0.5
vt 0.40585232 0.5
vt 0.40585232 0.75
vt 0.625 0.75
vt 0.625 0.75
vt 0.40585232 0.75
vt 0.40585226 0.49999994
vt 0.625 0.5
vt 0.625 0.5
vt 0.40585226 0.49999994
vt 0.375 0.5
vt 0.375 0.5
vt 0.625 0.5
vt 0.375 0.5
vt 0.375 0.5
vt 0.375 0.5
vt 0.375 0.5
vt 0.625 0.5
vt 0.375 0.5
vt 0.375 0.5
vt 0.625 0.5
vt 0.375 0.5
vt 0.375 0.5
vt 0.40585232 0.5
vt 0.375 0.5
vt 0.375 0.5
vt 0.375 0.5
vt 0.375 0.5
vt 0.375 0.75
vt 0.375 0.75
vt 0.375 0.5
vt 0.375 0.75
vt 0.375 0.5
vt 0.375 0.75
vt 0.375 0.5
vt 0.375 0.75
vt 0.375 0.5
vt 0.375 0.75
vn 0.44969466 0 0.89318234
vn 0.44969466 0 0.89318234
vn 0.44969466 0 0.89318234
vn 0.44969466 0 0.89318234
vn -0 0 1
vn -0 0 1
vn -0 0 1
vn -0 0 1
vn 0.9998172 0 0.019123552
vn 0.9998172 0 0.019123552
vn 0.9998172 0 0.019123552
vn 0.9998172 0 0.019123552
vn -0 -1 0
vn -0 -1 0
vn -0 -1 0
vn -0 -1 0
vn -0 -1 0
vn -0 -1 0
vn -0 -1 0
vn -0 -1 0
vn -0 -1 0
vn -0 -1 0
vn -0 -1 0
vn -0 -1 0
vn -0 -1 0
vn -0 -1 0
vn -0 -1 0
vn -0 -1 0
vn -0 -1 0
vn -0 -1 0
vn -0.99998355 0 -0.0057411105
vn -0.99998355 0 -0.0057411105
vn -0.99998355 0 -0.0057411105
vn -0.99998355 0 -0.0057411105
vn -0 0 1
vn -0 0 1
vn -0 0 1
vn -0 0 1
vn 1 0 0
vn 1 0 0
vn 1 0 0
vn 1 0 0
vn -1 0 0
vn -1 0 0
vn -1 0 0
vn -1 0 0
vn 0.77957636 0 0.62630725
vn 0.77957636 0 0.62630725
vn 0.77957636 0 0.62630725
vn 0.77957636 0 0.62630725
vn -0.7795763 0 0.6263073
vn -0.7795763 0 0.6263073
vn -0.7795763 0 0.6263073
vn -0.7795763 0 0.6263073
vn -0 1 0
vn -0 1 0
vn -0 1 0
vn -0 1 0
vn -0 1 0
vn -0 1 0
vn -0 1 0
vn -0 1 0
vn -0 1 0
vn -0 1 0
vn -0 1 0
vn -0 1 0
vn -0 1 0
vn -0 1 0
vn -0 1 0
vn -0 1 0
vn -0 1 0
vn -0 1 0
vn -0 0 -1
vn -0 0 -1
vn -0 0 -1
vn -0 0 -1
vn -0 0 -1
vn -0 0 -1
vn -0 0 -1
vn -0 0 -1
vn -0 0 -1
vn -0 0 -1
vn -0 0 -1
vn -0 0 -1
g Totend Small Stair Wall_0
f 3/3/3 2/2/2 1/1/1
f 4/4/4 3/3/3 1/1/1
f 7/7/7 6/6/6 5/5/5
f 8/8/8 7/7/7 5/5/5
f 11/11/11 10/10/10 9/9/9
f 12/12/12 11/11/11 9/9/9
f 15/15/15 14/14/14 13/13/13
f 16/16/16 15/15/15 13/13/13
f 17/17/17 15/15/15 16/16/16
f 16/16/16 13/13/13 18/18/18
f 13/13/13 19/19/19 18/18/18
f 16/16/16 18/18/18 20/20/20
f 21/21/21 17/17/17 16/16/16
f 21/21/21 16/16/16 20/20/20
f 22/22/22 17/17/17 21/21/21
f 21/21/21 20/20/20 23/23/23
f 24/24/24 22/22/22 21/21/21
f 24/24/24 21/21/21 23/23/23
f 25/25/25 22/22/22 24/24/24
f 23/23/23 26/26/26 24/24/24
f 27/27/27 25/25/25 24/24/24
f 26/26/26 27/27/27 24/24/24
f 28/28/28 25/25/25 27/27/27
f 26/26/26 29/29/29 27/27/27
f 30/30/30 28/28/28 27/27/27
f 29/29/29 30/30/30 27/27/27
f 33/33/33 32/32/32 31/31/31
f 34/34/34 33/33/33 31/31/31
f 37/37/37 36/36/36 35/35/35
f 38/38/38 37/37/37 35/35/35
f 41/41/41 40/40/40 39/39/39
f 42/42/42 41/41/41 39/39/39
f 45/45/45 44/44/44 43/43/43
f 46/46/46 45/45/45 43/43/43
f 49/49/49 48/48/48 47/47/47
f 50/50/50 49/49/49 47/47/47
f 53/53/53 52/52/52 51/51/51
f 54/54/54 53/53/53 51/51/51
f 57/57/57 56/56/56 55/55/55
f 58/58/58 57/57/57 55/55/55
f 58/58/58 55/55/55 59/59/59
f 58/58/58 60/60/60 57/57/57
f 60/60/60 61/61/61 57/57/57
f 62/62/62 60/60/60 58/58/58
f 63/63/63 58/58/58 59/59/59
f 63/63/63 62/62/62 58/58/58
f 59/59/59 64/64/64 63/63/63
f 65/65/65 62/62/62 63/63/63
f 64/64/64 66/66/66 63/63/63
f 66/66/66 65/65/65 63/63/63
f 64/64/64 67/67/67 66/66/66
f 68/68/68 65/65/65 66/66/66
f 67/67/67 69/69/69 66/66/66
f 69/69/69 68/68/68 66/66/66
f 67/67/67 70/70/70 69/69/69
f 71/71/71 68/68/68 69/69/69
f 70/70/70 72/72/72 69/69/69
f 72/72/72 71/71/71 69/69/69
f 75/75/75 74/74/74 73/73/73
f 76/76/76 75/75/75 73/73/73
f 76/76/76 73/73/73 77/77/77
f 78/78/78 76/76/76 77/77/77
f 77/77/77 79/79/79 78/78/78
f 79/79/79 80/80/80 78/78/78
f 79/79/79 81/81/81 80/80/80
f 81/81/81 82/82/82 80/80/80
f 81/81/81 83/83/83 82/82/82
f 83/83/83 84/84/84 82/82/82
