g Tower Ruins
v -1.6688251 -1.3150308 9.685755E-08
v -1.7646999 -1.7668967 0.014105334
v -0.8992991 -1.7000427 0.019504327
v -1.1204913 -1.2193009 9.685755E-08
v 1.7253354 -0.84710467 1.09400894E-07
v 1.3229434 -0.93991184 1.09400894E-07
v 1.2547336 -1.700146 1.09400894E-07
v 1.7531371 -1.766712 1.09400894E-07
v -1.6688251 -1.3150308 0.48841435
v -1.1204913 -1.2193009 0.48841435
v -0.8992991 -1.7000427 0.5079186
v -1.7646999 -1.7668967 0.5025196
v 1.7253354 -0.84710467 0.48841435
v 1.7531371 -1.766712 0.48841435
v 1.2547336 -1.700146 0.48841435
v 1.3229434 -0.93991184 0.48841435
v -1.1204913 -1.2193009 9.685755E-08
v -0.8992991 -1.7000427 0.019504327
v -0.8992991 -1.7000427 0.5079186
v -1.1204913 -1.2193009 0.48841435
v 1.7531371 -1.766712 1.09400894E-07
v 1.2547336 -1.700146 1.09400894E-07
v 1.2547336 -1.700146 0.48841435
v 1.7531371 -1.766712 0.48841435
v -1.7646999 -1.7668967 0.014105334
v -1.6688251 -1.3150308 9.685755E-08
v -1.6688251 -1.3150308 0.48841435
v -1.7646999 -1.7668967 0.5025196
v -1.6688251 -1.3150308 9.685755E-08
v -1.1204913 -1.2193009 9.685755E-08
v -1.1204913 -1.2193009 0.48841435
v -1.6688251 -1.3150308 0.48841435
v 1.3229434 -0.93991184 1.09400894E-07
v 1.7253354 -0.84710467 1.09400894E-07
v 1.7253354 -0.84710467 0.48841435
v 1.3229434 -0.93991184 0.48841435
v 1.7253354 -0.84710467 1.09400894E-07
v 1.7531371 -1.766712 1.09400894E-07
v 1.7531371 -1.766712 0.48841435
v 1.7253354 -0.84710467 0.48841435
v -1.0878543 1.777311 1.0430813E-07
v -1.6806289 1.9137362 1.0430813E-07
v -1.7342838 1.3516207 1.0430813E-07
v -1.2806133 1.1477326 1.0430813E-07
v -1.0878543 1.777311 0.48841435
v -1.2806133 1.1477326 0.48841435
v -1.7342838 1.3516207 0.48841435
v -1.6806289 1.9137362 0.48841435
v -1.2806133 1.1477326 1.0430813E-07
v -1.7342838 1.3516207 1.0430813E-07
v -1.7342838 1.3516207 0.48841435
v -1.2806133 1.1477326 0.48841435
v -1.6806289 1.9137362 1.0430813E-07
v -1.0878543 1.777311 1.0430813E-07
v -1.0878543 1.777311 0.48841435
v -1.6806289 1.9137362 0.48841435
v -1.0878543 1.777311 1.0430813E-07
v -1.2806133 1.1477326 1.0430813E-07
v -1.2806133 1.1477326 0.48841435
v -1.0878543 1.777311 0.48841435
v -1.7342838 1.3516207 1.0430813E-07
v -1.6806289 1.9137362 1.0430813E-07
v -1.6806289 1.9137362 0.48841435
v -1.7342838 1.3516207 0.48841435
v 1.2547336 -1.700146 1.09400894E-07
v 1.3229434 -0.93991184 1.09400894E-07
v 1.3229434 -0.93991184 0.48841435
v 1.2547336 -1.700146 0.48841435
v -0.8992991 -1.7000427 0.019504327
v -1.7646999 -1.7668967 0.014105334
v -1.7646999 -1.7668967 0.5025196
v -0.8992991 -1.7000427 0.5079186
v 1.6239259 1.2542496 1.4901161E-07
v 1.6812677 1.8784943 1.4901161E-07
v 1.1536853 1.6772244 1.4901161E-07
v 1.1722059 1.180189 1.4901161E-07
v 1.6239259 1.2542496 0.4884144
v 1.1722059 1.180189 0.4884144
v 1.1536853 1.6772244 0.4884144
v 1.6812677 1.8784943 0.4884144
v 1.1722059 1.180189 1.4901161E-07
v 1.1536853 1.6772244 1.4901161E-07
v 1.1536853 1.6772244 0.4884144
v 1.1722059 1.180189 0.4884144
v 1.6812677 1.8784943 1.4901161E-07
v 1.6239259 1.2542496 1.4901161E-07
v 1.6239259 1.2542496 0.4884144
v 1.6812677 1.8784943 0.4884144
v 1.6239259 1.2542496 1.4901161E-07
v 1.1722059 1.180189 1.4901161E-07
v 1.1722059 1.180189 0.4884144
v 1.6239259 1.2542496 0.4884144
v 1.1536853 1.6772244 1.4901161E-07
v 1.6812677 1.8784943 1.4901161E-07
v 1.6812677 1.8784943 0.4884144
v 1.1536853 1.6772244 0.4884144
v 0.9507419 -0.55655754 1.6391277E-07
v 0.7400556 0.983201 1.6391277E-07
v -0.6189917 0.77103835 1.6391277E-07
v -0.78955615 -0.327782 1.5646219E-07
v 0.9507419 -0.55655754 0.4884144
v -0.78955615 -0.327782 0.4884144
v -0.6189917 0.77103835 0.4884144
v 0.7400556 0.983201 0.4884144
v -0.78955615 -0.327782 1.5646219E-07
v -0.6189917 0.77103835 1.6391277E-07
v -0.6189917 0.77103835 0.4884144
v -0.78955615 -0.327782 0.4884144
v 0.7400556 0.983201 1.6391277E-07
v 0.9507419 -0.55655754 1.6391277E-07
v 0.9507419 -0.55655754 0.4884144
v 0.7400556 0.983201 0.4884144
v 0.9507419 -0.55655754 1.6391277E-07
v -0.78955615 -0.327782 1.5646219E-07
v -0.78955615 -0.327782 0.4884144
v 0.9507419 -0.55655754 0.4884144
v -0.6189917 0.77103835 1.6391277E-07
v 0.7400556 0.983201 1.6391277E-07
v 0.7400556 0.983201 0.4884144
v -0.6189917 0.77103835 0.4884144
vt 0 0
vt 0 0
vt 0 0
vt 0 0
vt 0 0
vt 0 0
vt 0 0
vt 0 0
vt 0 0
vt 0 0
vt 0 0
vt 0 0
vt 0 0
vt 0 0
vt 0 0
vt 0 0
vt 0 0
vt 0 0
vt 0 0
vt 0 0
vt 0 0
vt 0 0
vt 0 0
vt 0 0
vt 0 0
vt 0 0
vt 0 0
vt 0 0
vt 0 0
vt 0 0
vt 0 0
vt 0 0
vt 0 0
vt 0 0
vt 0 0
vt 0 0
vt 0 0
vt 0 0
vt 0 0
vt 0 0
vt 0 0
vt 0 0
vt 0 0
vt 0 0
vt 0 0
vt 0 0
vt 0 0
vt 0 0
vt 0 0
vt 0 0
vt 0 0
vt 0 0
vt 0 0
vt 0 0
vt 0 0
vt 0 0
vt 0 0
vt 0 0
vt 0 0
vt 0 0
vt 0 0
vt 0 0
vt 0 0
vt 0 0
vt 0 0
vt 0 0
vt 0 0
vt 0 0
vt 0 0
vt 0 0
vt 0 0
vt 0 0
vt 0 0
vt 0 0
vt 0 0
vt 0 0
vt 0 0
vt 0 0
vt 0 0
vt 0 0
vt 0 0
vt 0 0
vt 0 0
vt 0 0
vt 0 0
vt 0 0
vt 0 0
vt 0 0
vt 0 0
vt 0 0
vt 0 0
vt 0 0
vt 0 0
vt 0 0
vt 0 0
vt 0 0
vt 0 0
vt 0 0
vt 0 0
vt 0 0
vt 0 0
vt 0 0
vt 0 0
vt 0 0
vt 0 0
vt 0 0
vt 0 0
vt 0 0
vt 0 0
vt 0 0
vt 0 0
vt 0 0
vt 0 0
vt 0 0
vt 0 0
vt 0 0
vt 0 0
vt 0 0
vt 0 0
vt 0 0
vn 0.007837236 -0.034961917 -0.9993579
vn 0.007837236 -0.034961917 -0.9993579
vn 0.007837236 -0.034961917 -0.9993579
vn 0.007837236 -0.034961917 -0.9993579
vn -0 0 -1
vn -0 0 -1
vn -0 0 -1
vn -0 0 -1
vn -0.007837262 0.034961965 0.9993579
vn -0.007837262 0.034961965 0.9993579
vn -0.007837262 0.034961965 0.9993579
vn -0.007837262 0.034961965 0.9993579
vn -0 0 1
vn -0 0 1
vn -0 0 1
vn -0 0 1
vn 0.9084539 0.41798502 0
vn 0.9084539 0.41798502 0
vn 0.9084539 0.41798502 0
vn 0.9084539 0.41798502 0
vn -0.13238296 -0.9911986 0
vn -0.13238296 -0.9911986 0
vn -0.13238296 -0.9911986 0
vn -0.13238296 -0.9911986 0
vn -0.9782234 0.20755479 0
vn -0.9782234 0.20755479 0
vn -0.9782234 0.20755479 0
vn -0.9782234 0.20755479 0
vn -0.17198204 0.9851001 0
vn -0.17198204 0.9851001 0
vn -0.17198204 0.9851001 0
vn -0.17198204 0.9851001 0
vn -0.22473884 0.97441906 0
vn -0.22473884 0.97441906 0
vn -0.22473884 0.97441906 0
vn -0.22473884 0.97441906 0
vn 0.9995433 0.030218394 0
vn 0.9995433 0.030218394 0
vn 0.9995433 0.030218394 0
vn 0.9995433 0.030218394 0
vn -0 0 -1
vn -0 0 -1
vn -0 0 -1
vn -0 0 -1
vn -0 0 1
vn -0 0 1
vn -0 0 1
vn -0 0 1
vn -0.4099238 -0.9121198 0
vn -0.4099238 -0.9121198 0
vn -0.4099238 -0.9121198 0
vn -0.4099238 -0.9121198 0
vn 0.2242837 0.9745239 0
vn 0.2242837 0.9745239 0
vn 0.2242837 0.9745239 0
vn 0.2242837 0.9745239 0
vn 0.95618683 -0.29275727 0
vn 0.95618683 -0.29275727 0
vn 0.95618683 -0.29275727 0
vn 0.95618683 -0.29275727 0
vn -0.99547535 0.09501991 0
vn -0.99547535 0.09501991 0
vn -0.99547535 0.09501991 0
vn -0.99547535 0.09501991 0
vn -0.9959991 0.08936315 0
vn -0.9959991 0.08936315 0
vn -0.9959991 0.08936315 0
vn -0.9959991 0.08936315 0
vn 0.07702257 -0.9970293 0
vn 0.07702257 -0.9970293 0
vn 0.07702257 -0.9970293 0
vn 0.07702257 -0.9970293 0
vn -0 0 -1
vn -0 0 -1
vn -0 0 -1
vn -0 0 -1
vn -0 0 1
vn -0 0 1
vn -0 0 1
vn -0 0 1
vn -0.99930656 -0.037236277 0
vn -0.99930656 -0.037236277 0
vn -0.99930656 -0.037236277 0
vn -0.99930656 -0.037236277 0
vn 0.9958075 -0.09147278 0
vn 0.9958075 -0.09147278 0
vn 0.9958075 -0.09147278 0
vn 0.9958075 -0.09147278 0
vn 0.16179228 -0.9868248 0
vn 0.16179228 -0.9868248 0
vn 0.16179228 -0.9868248 0
vn 0.16179228 -0.9868248 0
vn -0.35643777 0.9343191 0
vn -0.35643777 0.9343191 0
vn -0.35643777 0.9343191 0
vn -0.35643777 0.9343191 0
vn -0 0 -1
vn -0 0 -1
vn -0 0 -1
vn -0 0 -1
vn -0 0 1
vn -0 0 1
vn -0 0 1
vn -0 0 1
vn -0.9881661 0.15338817 0
vn -0.9881661 0.15338817 0
vn -0.9881661 0.15338817 0
vn -0.9881661 0.15338817 0
vn 0.99076813 0.13556752 0
vn 0.99076813 0.13556752 0
vn 0.99076813 0.13556752 0
vn 0.99076813 0.13556752 0
vn -0.13033631 -0.9914698 0
vn -0.13033631 -0.9914698 0
vn -0.13033631 -0.9914698 0
vn -0.13033631 -0.9914698 0
vn -0.15424313 0.98803294 0
vn -0.15424313 0.98803294 0
vn -0.15424313 0.98803294 0
vn -0.15424313 0.98803294 0
g Tower Ruins_0
f 3/3/3 2/2/2 1/1/1
f 4/4/4 3/3/3 1/1/1
f 7/7/7 6/6/6 5/5/5
f 8/8/8 7/7/7 5/5/5
f 11/11/11 10/10/10 9/9/9
f 12/12/12 11/11/11 9/9/9
f 15/15/15 14/14/14 13/13/13
f 16/16/16 15/15/15 13/13/13
f 19/19/19 18/18/18 17/17/17
f 20/20/20 19/19/19 17/17/17
f 23/23/23 22/22/22 21/21/21
f 24/24/24 23/23/23 21/21/21
f 27/27/27 26/26/26 25/25/25
f 28/28/28 27/27/27 25/25/25
f 31/31/31 30/30/30 29/29/29
f 32/32/32 31/31/31 29/29/29
f 35/35/35 34/34/34 33/33/33
f 36/36/36 35/35/35 33/33/33
f 39/39/39 38/38/38 37/37/37
f 40/40/40 39/39/39 37/37/37
f 43/43/43 42/42/42 41/41/41
f 44/44/44 43/43/43 41/41/41
f 47/47/47 46/46/46 45/45/45
f 48/48/48 47/47/47 45/45/45
f 51/51/51 50/50/50 49/49/49
f 52/52/52 51/51/51 49/49/49
f 55/55/55 54/54/54 53/53/53
f 56/56/56 55/55/55 53/53/53
f 59/59/59 58/58/58 57/57/57
f 60/60/60 59/59/59 57/57/57
f 63/63/63 62/62/62 61/61/61
f 64/64/64 63/63/63 61/61/61
f 67/67/67 66/66/66 65/65/65
f 68/68/68 67/67/67 65/65/65
f 71/71/71 70/70/70 69/69/69
f 72/72/72 71/71/71 69/69/69
f 75/75/75 74/74/74 73/73/73
f 76/76/76 75/75/75 73/73/73
f 79/79/79 78/78/78 77/77/77
f 80/80/80 79/79/79 77/77/77
f 83/83/83 82/82/82 81/81/81
f 84/84/84 83/83/83 81/81/81
f 87/87/87 86/86/86 85/85/85
f 88/88/88 87/87/87 85/85/85
f 91/91/91 90/90/90 89/89/89
f 92/92/92 91/91/91 89/89/89
f 95/95/95 94/94/94 93/93/93
f 96/96/96 95/95/95 93/93/93
f 99/99/99 98/98/98 97/97/97
f 100/100/100 99/99/99 97/97/97
f 103/103/103 102/102/102 101/101/101
f 104/104/104 103/103/103 101/101/101
f 107/107/107 106/106/106 105/105/105
f 108/108/108 107/107/107 105/105/105
f 111/111/111 110/110/110 109/109/109
f 112/112/112 111/111/111 109/109/109
f 115/115/115 114/114/114 113/113/113
f 116/116/116 115/115/115 113/113/113
f 119/119/119 118/118/118 117/117/117
f 120/120/120 119/119/119 117/117/117
