g Trap Closed
v 0.6042432 0.8195747 4.2141175
v -0.56271654 0.94518536 2.3366282
v -0.58712965 1.2252929 1.8269233
v 0.47077638 2.3509345 1.4275407
v -0.35875785 2.445756 -0.9112322
v 0.6515621 1.5337281 0.48167944
v 0.61821336 1.4312013 1.1779495
v -0.5410769 1.8852396 2.895303
v -0.6042432 -0.81957495 4.2141175
v 0.56271654 -0.9451852 2.3366282
v 0.58712965 -1.2252927 1.8269233
v -0.47077638 -2.3509345 1.4275408
v 0.5636554 -1.6261816 3.3667052
v -0.5447706 -0.58854234 2.7113142
v -0.5358348 -0.20590803 2.8978803
v 0.6125077 0.46569473 4.3866625
v -0.5636554 1.6261816 3.3667052
v 0.5447706 0.588542 2.7113154
v 0.5358348 0.20590827 2.89788
v -0.6125077 -0.46569481 4.3866625
v 0.3587578 -2.445757 -0.911232
v -0.65156204 -1.5337272 0.48167917
v -0.6182132 -1.4312004 1.177949
v 0.54107684 -1.8852401 2.895303
v 0.62170476 1.3618131 1.1050512
v 0.61821336 1.4312013 1.1779495
v 0.6515621 1.5337281 0.48167944
v 0.6515621 1.453606 0.48167944
v 0.6515621 1.453606 0.48167944
v -0.35875785 2.0077252 -0.9112322
v -0.52198845 1.5058937 2.4967659
v 0.62170476 1.3618131 1.1050512
v 0.54281807 0.20590827 2.752084
v 0.5358348 0.20590827 2.89788
v 0.5447706 0.588542 2.7113154
v 0.5508183 0.5484814 2.5850515
v 0.5508183 0.5484814 2.5850515
v -0.5305933 1.407166 2.6764178
v -0.5743307 -0.46569481 3.5895882
v 0.54281807 0.20590827 2.752084
v 0.5906211 -1.1559049 1.7540268
v 0.58712965 -1.2252927 1.8269233
v 0.56271654 -0.9451852 2.3366282
v 0.56876427 -0.905125 2.2103643
v 0.56876427 -0.905125 2.2103643
v -0.5711811 -0.60055935 3.5238314
v -0.45168808 -1.971589 1.0290036
v 0.5906211 -1.1559049 1.7540268
v -0.62170476 -1.3618121 1.1050507
v -0.6182132 -1.4312004 1.177949
v -0.65156204 -1.5337272 0.48167917
v -0.65156204 -1.453605 0.48167917
v -0.65156204 -1.453605 0.48167917
v 0.3587578 -2.0077257 -0.911232
v 0.52198833 -1.5058942 2.4967659
v -0.62170476 -1.3618121 1.1050507
v -0.54281807 -0.20590803 2.752084
v -0.5358348 -0.20590803 2.8978803
v -0.5447706 -0.58854234 2.7113142
v -0.5508183 -0.5484811 2.5850503
v -0.5508183 -0.5484811 2.5850503
v 0.5305933 -1.407166 2.676418
v 0.5743307 0.46569473 3.5895884
v -0.54281807 -0.20590803 2.752084
v -0.5906211 1.1559051 1.7540268
v -0.58712965 1.2252929 1.8269233
v -0.56271654 0.94518536 2.3366282
v -0.56876427 0.9051252 2.2103643
v -0.56876427 0.9051252 2.2103643
v 0.5711811 0.60055935 3.5238314
v 0.45168808 1.9715887 1.0290036
v -0.5906211 1.1559051 1.7540268
v -0.5508183 -0.5484811 2.5850503
v -0.5447706 -0.58854234 2.7113142
v 0.5636554 -1.6261816 3.3667052
v 0.5305933 -1.407166 2.676418
v -0.54281807 -0.20590803 2.752084
v 0.5743307 0.46569473 3.5895884
v 0.6125077 0.46569473 4.3866625
v -0.5358348 -0.20590803 2.8978803
v -0.5906211 1.1559051 1.7540268
v 0.45168808 1.9715887 1.0290036
v 0.47077638 2.3509345 1.4275407
v -0.58712965 1.2252929 1.8269233
v 0.62170476 1.3618131 1.1050512
v -0.52198845 1.5058937 2.4967659
v -0.5410769 1.8852396 2.895303
v 0.61821336 1.4312013 1.1779495
v 0.5508183 0.5484814 2.5850515
v 0.5447706 0.588542 2.7113154
v -0.5636554 1.6261816 3.3667052
v -0.5305933 1.407166 2.6764178
v -0.35875785 2.0077252 -0.9112322
v 0.6515621 1.453606 0.48167944
v 0.6515621 1.5337281 0.48167944
v -0.35875785 2.445756 -0.9112322
v 0.5711811 0.60055935 3.5238314
v -0.56876427 0.9051252 2.2103643
v -0.56271654 0.94518536 2.3366282
v 0.6042432 0.8195747 4.2141175
v 0.52198833 -1.5058942 2.4967659
v 0.54107684 -1.8852401 2.895303
v -0.6182132 -1.4312004 1.177949
v -0.62170476 -1.3618121 1.1050507
v 0.5906211 -1.1559049 1.7540268
v -0.45168808 -1.971589 1.0290036
v -0.47077638 -2.3509345 1.4275408
v 0.58712965 -1.2252927 1.8269233
v 0.56876427 -0.905125 2.2103643
v 0.56271654 -0.9451852 2.3366282
v -0.6042432 -0.81957495 4.2141175
v -0.5711811 -0.60055935 3.5238314
v -0.5743307 -0.46569481 3.5895882
v -0.6125077 -0.46569481 4.3866625
v 0.5358348 0.20590827 2.89788
v 0.54281807 0.20590827 2.752084
v -0.65156204 -1.453605 0.48167917
v -0.65156204 -1.5337272 0.48167917
v 0.3587578 -2.445757 -0.911232
v 0.3587578 -2.0077257 -0.911232
v 0.54107696 1.8852396 2.895303
v -0.6182133 1.4312013 1.1779482
v -0.65156204 1.5337266 0.48167908
v 0.35875782 2.4457564 -0.911232
v -0.47077644 2.3509345 1.4275407
v 0.58712953 1.225293 1.8269248
v 0.56271696 0.9451854 2.3366282
v -0.60424316 0.81957483 4.2141175
v -0.5410769 -1.8852397 2.895303
v 0.61821336 -1.4312012 1.177948
v 0.6515621 -1.5337279 0.4816793
v -0.35875785 -2.4457564 -0.9112322
v 0.6125077 -0.46569458 4.386664
v -0.5358351 0.205908 2.8978758
v -0.54477054 0.5885425 2.7113159
v 0.56365526 1.6261816 3.3667057
v -0.6125077 0.4656945 4.3866634
v 0.5358348 -0.20590806 2.8978798
v 0.5447706 -0.58854234 2.711315
v -0.5636554 -1.6261817 3.3667042
v 0.47077632 -2.350934 1.4275403
v -0.5871297 -1.2252942 1.8269256
v -0.5627166 -0.9451852 2.3366292
v 0.60424316 -0.81957453 4.2141175
v 0.56876427 0.9051249 2.2103662
v 0.56271696 0.9451854 2.3366282
v 0.58712953 1.225293 1.8269248
v 0.59062153 1.155905 1.7540252
v 0.59062153 1.155905 1.7540252
v -0.45168814 1.9715881 1.0290035
v -0.57118124 0.60055906 3.5238314
v 0.56876427 0.9051249 2.2103662
v 0.5508183 -0.54848117 2.5850515
v 0.5447706 -0.58854234 2.711315
v 0.5358348 -0.20590806 2.8978798
v 0.54281807 -0.2059077 2.7520835
v 0.54281807 -0.2059077 2.7520835
v -0.5743307 0.46569467 3.5895882
v -0.5305933 -1.4071662 2.6764178
v 0.5508183 -0.54848117 2.5850515
v 0.65156186 -1.4536058 0.4816806
v 0.6515621 -1.5337279 0.4816793
v 0.61821336 -1.4312012 1.177948
v 0.6217048 -1.3618127 1.1050504
v 0.6217048 -1.3618127 1.1050504
v -0.52198833 -1.505894 2.4967659
v -0.35875785 -2.0077255 -0.9112322
v 0.65156186 -1.4536058 0.4816806
v -0.5687643 -0.9051248 2.2103667
v -0.5627166 -0.9451852 2.3366292
v -0.5871297 -1.2252942 1.8269256
v -0.5906212 -1.1559063 1.7540259
v -0.5906212 -1.1559063 1.7540259
v 0.45168805 -1.9715879 1.0290031
v 0.5711811 -0.60055876 3.5238307
v -0.5687643 -0.9051248 2.2103667
v -0.5508183 0.5484815 2.5850496
v -0.54477054 0.5885425 2.7113159
v -0.5358351 0.205908 2.8978758
v -0.542818 0.205908 2.7520823
v -0.542818 0.205908 2.7520823
v 0.5743307 -0.46569481 3.5895894
v 0.5305932 1.407166 2.676419
v -0.5508183 0.5484815 2.5850496
v -0.65156204 1.453606 0.48168048
v -0.65156204 1.5337266 0.48167908
v -0.6182133 1.4312013 1.1779482
v -0.62170476 1.3618147 1.10505
v -0.62170476 1.3618147 1.10505
v 0.5219884 1.5058938 2.4967659
v 0.35875782 2.0077252 -0.911232
v -0.65156204 1.453606 0.48168048
v -0.542818 0.205908 2.7520823
v -0.5358351 0.205908 2.8978758
v 0.6125077 -0.46569458 4.386664
v 0.5743307 -0.46569481 3.5895894
v -0.5508183 0.5484815 2.5850496
v 0.5305932 1.407166 2.676419
v 0.56365526 1.6261816 3.3667057
v -0.54477054 0.5885425 2.7113159
v -0.65156204 1.453606 0.48168048
v 0.35875782 2.0077252 -0.911232
v 0.35875782 2.4457564 -0.911232
v -0.65156204 1.5337266 0.48167908
v 0.56876427 0.9051249 2.2103662
v -0.57118124 0.60055906 3.5238314
v -0.60424316 0.81957483 4.2141175
v 0.56271696 0.9451854 2.3366282
v 0.54281807 -0.2059077 2.7520835
v 0.5358348 -0.20590806 2.8978798
v -0.6125077 0.4656945 4.3866634
v -0.5743307 0.46569467 3.5895882
v -0.45168814 1.9715881 1.0290035
v 0.59062153 1.155905 1.7540252
v 0.58712953 1.225293 1.8269248
v -0.47077644 2.3509345 1.4275407
v 0.5219884 1.5058938 2.4967659
v -0.62170476 1.3618147 1.10505
v -0.6182133 1.4312013 1.1779482
v 0.54107696 1.8852396 2.895303
v 0.5711811 -0.60055876 3.5238307
v 0.60424316 -0.81957453 4.2141175
v -0.5627166 -0.9451852 2.3366292
v -0.5687643 -0.9051248 2.2103667
v 0.65156186 -1.4536058 0.4816806
v -0.35875785 -2.0077255 -0.9112322
v -0.35875785 -2.4457564 -0.9112322
v 0.6515621 -1.5337279 0.4816793
v 0.6217048 -1.3618127 1.1050504
v 0.61821336 -1.4312012 1.177948
v -0.5410769 -1.8852397 2.895303
v -0.52198833 -1.505894 2.4967659
v -0.5305933 -1.4071662 2.6764178
v -0.5636554 -1.6261817 3.3667042
v 0.5447706 -0.58854234 2.711315
v 0.5508183 -0.54848117 2.5850515
v -0.5906212 -1.1559063 1.7540259
v -0.5871297 -1.2252942 1.8269256
v 0.47077632 -2.350934 1.4275403
v 0.45168805 -1.9715879 1.0290031
v -0.35875785 2.445756 -0.9112322
v -0.5410769 1.8852396 2.895303
v -0.52198845 1.5058937 2.4967659
v -0.35875785 2.0077252 -0.9112322
v -0.5636554 1.6261816 3.3667052
v -0.6125077 -0.46569481 4.3866625
v -0.5743307 -0.46569481 3.5895882
v -0.5305933 1.407166 2.6764178
v -0.6042432 -0.81957495 4.2141175
v -0.47077638 -2.3509345 1.4275408
v -0.45168808 -1.971589 1.0290036
v -0.5711811 -0.60055935 3.5238314
v 0.3587578 -2.445757 -0.911232
v 0.54107684 -1.8852401 2.895303
v 0.52198833 -1.5058942 2.4967659
v 0.3587578 -2.0077257 -0.911232
v 0.5636554 -1.6261816 3.3667052
v 0.6125077 0.46569473 4.3866625
v 0.5743307 0.46569473 3.5895884
v 0.5305933 -1.407166 2.676418
v 0.6042432 0.8195747 4.2141175
v 0.47077638 2.3509345 1.4275407
v 0.45168808 1.9715887 1.0290036
v 0.5711811 0.60055935 3.5238314
v -0.47077644 2.3509345 1.4275407
v -0.60424316 0.81957483 4.2141175
v -0.57118124 0.60055906 3.5238314
v -0.45168814 1.9715881 1.0290035
v -0.6125077 0.4656945 4.3866634
v -0.5636554 -1.6261817 3.3667042
v -0.5305933 -1.4071662 2.6764178
v -0.5743307 0.46569467 3.5895882
v -0.5410769 -1.8852397 2.895303
v -0.35875785 -2.4457564 -0.9112322
v -0.35875785 -2.0077255 -0.9112322
v -0.52198833 -1.505894 2.4967659
v 0.47077632 -2.350934 1.4275403
v 0.60424316 -0.81957453 4.2141175
v 0.5711811 -0.60055876 3.5238307
v 0.45168805 -1.9715879 1.0290031
v 0.6125077 -0.46569458 4.386664
v 0.56365526 1.6261816 3.3667057
v 0.5305932 1.407166 2.676419
v 0.5743307 -0.46569481 3.5895894
v 0.54107696 1.8852396 2.895303
v 0.35875782 2.4457564 -0.911232
v 0.35875782 2.0077252 -0.911232
v 0.5219884 1.5058938 2.4967659
vt 0 0
vt 0 0
vt 0 0
vt 0 0
vt 0 0
vt 0 0
vt 0 0
vt 0 0
vt 0 0
vt 0 0
vt 0 0
vt 0 0
vt 0 0
vt 0 0
vt 0 0
vt 0 0
vt 0 0
vt 0 0
vt 0 0
vt 0 0
vt 0 0
vt 0 0
vt 0 0
vt 0 0
vt 0 0
vt 0 0
vt 0 0
vt 0 0
vt 0 0
vt 0 0
vt 0 0
vt 0 0
vt 0 0
vt 0 0
vt 0 0
vt 0 0
vt 0 0
vt 0 0
vt 0 0
vt 0 0
vt 0 0
vt 0 0
vt 0 0
vt 0 0
vt 0 0
vt 0 0
vt 0 0
vt 0 0
vt 0 0
vt 0 0
vt 0 0
vt 0 0
vt 0 0
vt 0 0
vt 0 0
vt 0 0
vt 0 0
vt 0 0
vt 0 0
vt 0 0
vt 0 0
vt 0 0
vt 0 0
vt 0 0
vt 0 0
vt 0 0
vt 0 0
vt 0 0
vt 0 0
vt 0 0
vt 0 0
vt 0 0
vt 0 0
vt 0 0
vt 0 0
vt 0 0
vt 0 0
vt 0 0
vt 0 0
vt 0 0
vt 0 0
vt 0 0
vt 0 0
vt 0 0
vt 0 0
vt 0 0
vt 0 0
vt 0 0
vt 0 0
vt 0 0
vt 0 0
vt 0 0
vt 0 0
vt 0 0
vt 0 0
vt 0 0
vt 0 0
vt 0 0
vt 0 0
vt 0 0
vt 0 0
vt 0 0
vt 0 0
vt 0 0
vt 0 0
vt 0 0
vt 0 0
vt 0 0
vt 0 0
vt 0 0
vt 0 0
vt 0 0
vt 0 0
vt 0 0
vt 0 0
vt 0 0
vt 0 0
vt 0 0
vt 0 0
vt 0 0
vt 0 0
vt 0 0
vt 0 0
vt 0 0
vt 0 0
vt 0 0
vt 0 0
vt 0 0
vt 0 0
vt 0 0
vt 0 0
vt 0 0
vt 0 0
vt 0 0
vt 0 0
vt 0 0
vt 0 0
vt 0 0
vt 0 0
vt 0 0
vt 0 0
vt 0 0
vt 0 0
vt 0 0
vt 0 0
vt 0 0
vt 0 0
vt 0 0
vt 0 0
vt 0 0
vt 0 0
vt 0 0
vt 0 0
vt 0 0
vt 0 0
vt 0 0
vt 0 0
vt 0 0
vt 0 0
vt 0 0
vt 0 0
vt 0 0
vt 0 0
vt 0 0
vt 0 0
vt 0 0
vt 0 0
vt 0 0
vt 0 0
vt 0 0
vt 0 0
vt 0 0
vt 0 0
vt 0 0
vt 0 0
vt 0 0
vt 0 0
vt 0 0
vt 0 0
vt 0 0
vt 0 0
vt 0 0
vt 0 0
vt 0 0
vt 0 0
vt 0 0
vt 0 0
vt 0 0
vt 0 0
vt 0 0
vt 0 0
vt 0 0
vt 0 0
vt 0 0
vt 0 0
vt 0 0
vt 0 0
vt 0 0
vt 0 0
vt 0 0
vt 0 0
vt 0 0
vt 0 0
vt 0 0
vt 0 0
vt 0 0
vt 0 0
vt 0 0
vt 0 0
vt 0 0
vt 0 0
vt 0 0
vt 0 0
vt 0 0
vt 0 0
vt 0 0
vt 0 0
vt 0 0
vt 0 0
vt 0 0
vt 0 0
vt 0 0
vt 0 0
vt 0 0
vt 0 0
vt 0 0
vt 0 0
vt 0 0
vt 0 0
vt 0 0
vt 0 0
vt 0 0
vt 0 0
vt 0 0
vt 0 0
vt 0 0
vt 0 0
vt 0 0
vt 0 0
vt 0 0
vt 0 0
vt 0 0
vt 0 0
vt 0 0
vt 0 0
vt 0 0
vt 0 0
vt 0 0
vt 0 0
vt 0 0
vt 0 0
vt 0 0
vt 0 0
vt 0 0
vt 0 0
vt 0 0
vt 0 0
vt 0 0
vt 0 0
vt 0 0
vt 0 0
vt 0 0
vt 0 0
vt 0 0
vt 0 0
vt 0 0
vt 0 0
vt 0 0
vt 0 0
vt 0 0
vt 0 0
vt 0 0
vt 0 0
vt 0 0
vt 0 0
vt 0 0
vt 0 0
vt 0 0
vt 0 0
vt 0 0
vt 0 0
vt 0 0
vt 0 0
vt 0 0
vt 0 0
vt 0 0
vt 0 0
vt 0 0
vn -0.5867957 0.6974467 0.4113864
vn -0.5867957 0.6974467 0.4113864
vn -0.5867957 0.6974467 0.4113864
vn -0.5867957 0.6974467 0.4113864
vn 0.54269737 0.8268319 0.14774504
vn 0.54269737 0.8268319 0.14774504
vn 0.54269737 0.8268319 0.14774504
vn 0.54269737 0.8268319 0.14774504
vn 0.5867956 -0.69744676 0.4113863
vn 0.5867956 -0.69744676 0.4113863
vn 0.5867956 -0.69744676 0.4113863
vn 0.5867956 -0.69744676 0.4113863
vn -0.68108857 -0.3079832 0.6642776
vn -0.68108857 -0.3079832 0.6642776
vn -0.68108857 -0.3079832 0.6642776
vn -0.68108857 -0.3079832 0.6642776
vn 0.68108857 0.30798292 0.66427773
vn 0.68108857 0.30798292 0.66427773
vn 0.68108857 0.30798292 0.66427773
vn 0.68108857 0.30798292 0.66427773
vn -0.5426984 -0.82683116 0.14774516
vn -0.5426984 -0.82683116 0.14774516
vn -0.5426984 -0.82683116 0.14774516
vn -0.5426984 -0.82683116 0.14774516
vn 0.998855 0 0.04784137
vn 0.998855 0 0.04784137
vn 0.998855 0 0.04784137
vn 0.998855 0 0.04784137
vn -0.3046369 -0.9400962 -0.15302143
vn -0.3046369 -0.9400962 -0.15302143
vn -0.3046369 -0.9400962 -0.15302143
vn -0.3046369 -0.9400962 -0.15302143
vn 0.9988549 0 0.04784257
vn 0.9988549 0 0.04784257
vn 0.9988549 0 0.04784257
vn 0.9988549 0 0.04784257
vn -0.3856514 -0.397067 -0.832833
vn -0.3856514 -0.397067 -0.832833
vn -0.3856514 -0.397067 -0.832833
vn -0.3856514 -0.397067 -0.832833
vn 0.998855 0 0.047841858
vn 0.998855 0 0.047841858
vn 0.998855 0 0.047841858
vn 0.998855 0 0.047841858
vn -0.31921956 0.8239949 -0.4681148
vn -0.31921956 0.8239949 -0.4681148
vn -0.31921956 0.8239949 -0.4681148
vn -0.31921956 0.8239949 -0.4681148
vn -0.998855 0 0.047841616
vn -0.998855 0 0.047841616
vn -0.998855 0 0.047841616
vn -0.998855 0 0.047841616
vn 0.3046381 0.9400958 -0.15302143
vn 0.3046381 0.9400958 -0.15302143
vn 0.3046381 0.9400958 -0.15302143
vn 0.3046381 0.9400958 -0.15302143
vn -0.9988549 0 0.047842536
vn -0.9988549 0 0.047842536
vn -0.9988549 0 0.047842536
vn -0.9988549 0 0.047842536
vn 0.38565192 0.3970673 -0.8328326
vn 0.38565192 0.3970673 -0.8328326
vn 0.38565192 0.3970673 -0.8328326
vn 0.38565192 0.3970673 -0.8328326
vn -0.998855 0 0.047841895
vn -0.998855 0 0.047841895
vn -0.998855 0 0.047841895
vn -0.998855 0 0.047841895
vn 0.3192193 -0.8239949 -0.4681147
vn 0.3192193 -0.8239949 -0.4681147
vn 0.3192193 -0.8239949 -0.4681147
vn 0.3192193 -0.8239949 -0.4681147
vn -0.59574884 -0.7733473 -0.21683484
vn -0.59574884 -0.7733473 -0.21683484
vn -0.59574884 -0.7733473 -0.21683484
vn -0.59574884 -0.7733473 -0.21683484
vn -0.52895385 0.8482724 0.025335105
vn -0.52895385 0.8482724 0.025335105
vn -0.52895385 0.8482724 0.025335105
vn -0.52895385 0.8482724 0.025335105
vn -0.72316 0.51724774 -0.45770553
vn -0.72316 0.51724774 -0.45770553
vn -0.72316 0.51724774 -0.45770553
vn -0.72316 0.51724774 -0.45770553
vn 0.6117945 -0.5581183 0.5605456
vn 0.6117945 -0.5581183 0.5605456
vn 0.6117945 -0.5581183 0.5605456
vn 0.6117945 -0.5581183 0.5605456
vn 0.59574926 0.7733471 -0.21683408
vn 0.59574926 0.7733471 -0.21683408
vn 0.59574926 0.7733471 -0.21683408
vn 0.59574926 0.7733471 -0.21683408
vn 0.80948377 0 -0.5871423
vn 0.80948377 0 -0.5871423
vn 0.80948377 0 -0.5871423
vn 0.80948377 0 -0.5871423
vn -0.53439206 -0.79794353 0.27876738
vn -0.53439206 -0.79794353 0.27876738
vn -0.53439206 -0.79794353 0.27876738
vn -0.53439206 -0.79794353 0.27876738
vn -0.6117946 0.55811805 0.56054586
vn -0.6117946 0.55811805 0.56054586
vn -0.6117946 0.55811805 0.56054586
vn -0.6117946 0.55811805 0.56054586
vn 0.7231603 -0.5172477 -0.45770508
vn 0.7231603 -0.5172477 -0.45770508
vn 0.7231603 -0.5172477 -0.45770508
vn 0.7231603 -0.5172477 -0.45770508
vn 0.53439206 0.79794335 0.27876773
vn 0.53439206 0.79794335 0.27876773
vn 0.53439206 0.79794335 0.27876773
vn 0.53439206 0.79794335 0.27876773
vn 0.5289541 -0.84827214 0.025335139
vn 0.5289541 -0.84827214 0.025335139
vn 0.5289541 -0.84827214 0.025335139
vn 0.5289541 -0.84827214 0.025335139
vn -0.80948365 0 -0.58714235
vn -0.80948365 0 -0.58714235
vn -0.80948365 0 -0.58714235
vn -0.80948365 0 -0.58714235
vn -0.5426981 0.82683146 0.14774492
vn -0.5426981 0.82683146 0.14774492
vn -0.5426981 0.82683146 0.14774492
vn -0.5426981 0.82683146 0.14774492
vn 0.58679533 0.69744706 0.41138658
vn 0.58679533 0.69744706 0.41138658
vn 0.58679533 0.69744706 0.41138658
vn 0.58679533 0.69744706 0.41138658
vn 0.5426977 -0.8268317 0.14774512
vn 0.5426977 -0.8268317 0.14774512
vn 0.5426977 -0.8268317 0.14774512
vn 0.5426977 -0.8268317 0.14774512
vn -0.6810894 0.3079817 0.66427743
vn -0.6810894 0.3079817 0.66427743
vn -0.6810894 0.3079817 0.66427743
vn -0.6810894 0.3079817 0.66427743
vn 0.6810886 -0.30798337 0.66427743
vn 0.6810886 -0.30798337 0.66427743
vn 0.6810886 -0.30798337 0.66427743
vn 0.6810886 -0.30798337 0.66427743
vn -0.58679485 -0.6974473 0.41138694
vn -0.58679485 -0.6974473 0.41138694
vn -0.58679485 -0.6974473 0.41138694
vn -0.58679485 -0.6974473 0.41138694
vn 0.998855 0 0.047841866
vn 0.998855 0 0.047841866
vn 0.998855 0 0.047841866
vn 0.998855 0 0.047841866
vn -0.31921905 -0.8239953 -0.46811447
vn -0.31921905 -0.8239953 -0.46811447
vn -0.31921905 -0.8239953 -0.46811447
vn -0.31921905 -0.8239953 -0.46811447
vn 0.9988549 0 0.047842685
vn 0.9988549 0 0.047842685
vn 0.9988549 0 0.047842685
vn 0.9988549 0 0.047842685
vn -0.3856514 0.39706683 -0.8328331
vn -0.3856514 0.39706683 -0.8328331
vn -0.3856514 0.39706683 -0.8328331
vn -0.3856514 0.39706683 -0.8328331
vn 0.998855 0 0.04784122
vn 0.998855 0 0.04784122
vn 0.998855 0 0.04784122
vn 0.998855 0 0.04784122
vn -0.30463728 0.94009596 -0.15302141
vn -0.30463728 0.94009596 -0.15302141
vn -0.30463728 0.94009596 -0.15302141
vn -0.30463728 0.94009596 -0.15302141
vn -0.998855 0 0.047841586
vn -0.998855 0 0.047841586
vn -0.998855 0 0.047841586
vn -0.998855 0 0.047841586
vn 0.3192179 0.8239953 -0.46811503
vn 0.3192179 0.8239953 -0.46811503
vn 0.3192179 0.8239953 -0.46811503
vn 0.3192179 0.8239953 -0.46811503
vn -0.998855 0 0.0478416
vn -0.998855 0 0.0478416
vn -0.998855 0 0.0478416
vn -0.998855 0 0.0478416
vn 0.38565302 -0.39706668 -0.83283234
vn 0.38565302 -0.39706668 -0.83283234
vn 0.38565302 -0.39706668 -0.83283234
vn 0.38565302 -0.39706668 -0.83283234
vn -0.998855 0 0.04784165
vn -0.998855 0 0.04784165
vn -0.998855 0 0.04784165
vn -0.998855 0 0.04784165
vn 0.30463633 -0.9400964 -0.15302098
vn 0.30463633 -0.9400964 -0.15302098
vn 0.30463633 -0.9400964 -0.15302098
vn 0.30463633 -0.9400964 -0.15302098
vn -0.5289541 -0.84827214 0.025335174
vn -0.5289541 -0.84827214 0.025335174
vn -0.5289541 -0.84827214 0.025335174
vn -0.5289541 -0.84827214 0.025335174
vn -0.59574944 0.773347 -0.21683402
vn -0.59574944 0.773347 -0.21683402
vn -0.59574944 0.773347 -0.21683402
vn -0.59574944 0.773347 -0.21683402
vn -0.80948335 0 -0.5871429
vn -0.80948335 0 -0.5871429
vn -0.80948335 0 -0.5871429
vn -0.80948335 0 -0.5871429
vn 0.53439265 -0.7979429 0.27876833
vn 0.53439265 -0.7979429 0.27876833
vn 0.53439265 -0.7979429 0.27876833
vn 0.53439265 -0.7979429 0.27876833
vn 0.5289542 0.84827214 0.025335578
vn 0.5289542 0.84827214 0.025335578
vn 0.5289542 0.84827214 0.025335578
vn 0.5289542 0.84827214 0.025335578
vn 0.7231604 0.5172489 -0.4577035
vn 0.7231604 0.5172489 -0.4577035
vn 0.7231604 0.5172489 -0.4577035
vn 0.7231604 0.5172489 -0.4577035
vn -0.61179435 -0.5581195 0.5605447
vn -0.61179435 -0.5581195 0.5605447
vn -0.61179435 -0.5581195 0.5605447
vn -0.61179435 -0.5581195 0.5605447
vn -0.53439236 0.797943 0.27876824
vn -0.53439236 0.797943 0.27876824
vn -0.53439236 0.797943 0.27876824
vn -0.53439236 0.797943 0.27876824
vn 0.8094834 0 -0.58714265
vn 0.8094834 0 -0.58714265
vn 0.8094834 0 -0.58714265
vn 0.8094834 0 -0.58714265
vn 0.61179554 0.55811715 0.56054574
vn 0.61179554 0.55811715 0.56054574
vn 0.61179554 0.55811715 0.56054574
vn 0.61179554 0.55811715 0.56054574
vn 0.595749 -0.7733471 -0.21683486
vn 0.595749 -0.7733471 -0.21683486
vn 0.595749 -0.7733471 -0.21683486
vn 0.595749 -0.7733471 -0.21683486
vn -0.7231606 -0.517249 -0.45770326
vn -0.7231606 -0.517249 -0.45770326
vn -0.7231606 -0.517249 -0.45770326
vn -0.7231606 -0.517249 -0.45770326
vn -0.998855 0 -0.047841463
vn -0.998855 0 -0.047841463
vn -0.998855 0 -0.047841463
vn -0.998855 0 -0.047841463
vn -0.998855 0 -0.047841445
vn -0.998855 0 -0.047841445
vn -0.998855 0 -0.047841445
vn -0.998855 0 -0.047841445
vn -0.998855 0 -0.047841366
vn -0.998855 0 -0.047841366
vn -0.998855 0 -0.047841366
vn -0.998855 0 -0.047841366
vn 0.998855 0 -0.047841493
vn 0.998855 0 -0.047841493
vn 0.998855 0 -0.047841493
vn 0.998855 0 -0.047841493
vn 0.998855 0 -0.047841474
vn 0.998855 0 -0.047841474
vn 0.998855 0 -0.047841474
vn 0.998855 0 -0.047841474
vn 0.998855 0 -0.047841378
vn 0.998855 0 -0.047841378
vn 0.998855 0 -0.047841378
vn 0.998855 0 -0.047841378
vn -0.998855 0 -0.047841292
vn -0.998855 0 -0.047841292
vn -0.998855 0 -0.047841292
vn -0.998855 0 -0.047841292
vn -0.998855 0 -0.047841433
vn -0.998855 0 -0.047841433
vn -0.998855 0 -0.047841433
vn -0.998855 0 -0.047841433
vn -0.998855 0 -0.047841482
vn -0.998855 0 -0.047841482
vn -0.998855 0 -0.047841482
vn -0.998855 0 -0.047841482
vn 0.998855 0 -0.047841307
vn 0.998855 0 -0.047841307
vn 0.998855 0 -0.047841307
vn 0.998855 0 -0.047841307
vn 0.998855 0 -0.04784142
vn 0.998855 0 -0.04784142
vn 0.998855 0 -0.04784142
vn 0.998855 0 -0.04784142
vn 0.998855 0 -0.04784151
vn 0.998855 0 -0.04784151
vn 0.998855 0 -0.04784151
vn 0.998855 0 -0.04784151
g Trap Closed_0
f 3/3/3 2/2/2 1/1/1
f 4/4/4 3/3/3 1/1/1
f 7/7/7 6/6/6 5/5/5
f 8/8/8 7/7/7 5/5/5
f 11/11/11 10/10/10 9/9/9
f 12/12/12 11/11/11 9/9/9
f 15/15/15 14/14/14 13/13/13
f 16/16/16 15/15/15 13/13/13
f 19/19/19 18/18/18 17/17/17
f 20/20/20 19/19/19 17/17/17
f 23/23/23 22/22/22 21/21/21
f 24/24/24 23/23/23 21/21/21
f 27/27/27 26/26/26 25/25/25
f 28/28/28 27/27/27 25/25/25
f 31/31/31 30/30/30 29/29/29
f 32/32/32 31/31/31 29/29/29
f 35/35/35 34/34/34 33/33/33
f 36/36/36 35/35/35 33/33/33
f 39/39/39 38/38/38 37/37/37
f 40/40/40 39/39/39 37/37/37
f 43/43/43 42/42/42 41/41/41
f 44/44/44 43/43/43 41/41/41
f 47/47/47 46/46/46 45/45/45
f 48/48/48 47/47/47 45/45/45
f 51/51/51 50/50/50 49/49/49
f 52/52/52 51/51/51 49/49/49
f 55/55/55 54/54/54 53/53/53
f 56/56/56 55/55/55 53/53/53
f 59/59/59 58/58/58 57/57/57
f 60/60/60 59/59/59 57/57/57
f 63/63/63 62/62/62 61/61/61
f 64/64/64 63/63/63 61/61/61
f 67/67/67 66/66/66 65/65/65
f 68/68/68 67/67/67 65/65/65
f 71/71/71 70/70/70 69/69/69
f 72/72/72 71/71/71 69/69/69
f 75/75/75 74/74/74 73/73/73
f 76/76/76 75/75/75 73/73/73
f 79/79/79 78/78/78 77/77/77
f 80/80/80 79/79/79 77/77/77
f 83/83/83 82/82/82 81/81/81
f 84/84/84 83/83/83 81/81/81
f 87/87/87 86/86/86 85/85/85
f 88/88/88 87/87/87 85/85/85
f 91/91/91 90/90/90 89/89/89
f 92/92/92 91/91/91 89/89/89
f 95/95/95 94/94/94 93/93/93
f 96/96/96 95/95/95 93/93/93
f 99/99/99 98/98/98 97/97/97
f 100/100/100 99/99/99 97/97/97
f 103/103/103 102/102/102 101/101/101
f 104/104/104 103/103/103 101/101/101
f 107/107/107 106/106/106 105/105/105
f 108/108/108 107/107/107 105/105/105
f 111/111/111 110/110/110 109/109/109
f 112/112/112 111/111/111 109/109/109
f 115/115/115 114/114/114 113/113/113
f 116/116/116 115/115/115 113/113/113
f 119/119/119 118/118/118 117/117/117
f 120/120/120 119/119/119 117/117/117
f 123/123/123 122/122/122 121/121/121
f 124/124/124 123/123/123 121/121/121
f 127/127/127 126/126/126 125/125/125
f 128/128/128 127/127/127 125/125/125
f 131/131/131 130/130/130 129/129/129
f 132/132/132 131/131/131 129/129/129
f 135/135/135 134/134/134 133/133/133
f 136/136/136 135/135/135 133/133/133
f 139/139/139 138/138/138 137/137/137
f 140/140/140 139/139/139 137/137/137
f 143/143/143 142/142/142 141/141/141
f 144/144/144 143/143/143 141/141/141
f 147/147/147 146/146/146 145/145/145
f 148/148/148 147/147/147 145/145/145
f 151/151/151 150/150/150 149/149/149
f 152/152/152 151/151/151 149/149/149
f 155/155/155 154/154/154 153/153/153
f 156/156/156 155/155/155 153/153/153
f 159/159/159 158/158/158 157/157/157
f 160/160/160 159/159/159 157/157/157
f 163/163/163 162/162/162 161/161/161
f 164/164/164 163/163/163 161/161/161
f 167/167/167 166/166/166 165/165/165
f 168/168/168 167/167/167 165/165/165
f 171/171/171 170/170/170 169/169/169
f 172/172/172 171/171/171 169/169/169
f 175/175/175 174/174/174 173/173/173
f 176/176/176 175/175/175 173/173/173
f 179/179/179 178/178/178 177/177/177
f 180/180/180 179/179/179 177/177/177
f 183/183/183 182/182/182 181/181/181
f 184/184/184 183/183/183 181/181/181
f 187/187/187 186/186/186 185/185/185
f 188/188/188 187/187/187 185/185/185
f 191/191/191 190/190/190 189/189/189
f 192/192/192 191/191/191 189/189/189
f 195/195/195 194/194/194 193/193/193
f 196/196/196 195/195/195 193/193/193
f 199/199/199 198/198/198 197/197/197
f 200/200/200 199/199/199 197/197/197
f 203/203/203 202/202/202 201/201/201
f 204/204/204 203/203/203 201/201/201
f 207/207/207 206/206/206 205/205/205
f 208/208/208 207/207/207 205/205/205
f 211/211/211 210/210/210 209/209/209
f 212/212/212 211/211/211 209/209/209
f 215/215/215 214/214/214 213/213/213
f 216/216/216 215/215/215 213/213/213
f 219/219/219 218/218/218 217/217/217
f 220/220/220 219/219/219 217/217/217
f 223/223/223 222/222/222 221/221/221
f 224/224/224 223/223/223 221/221/221
f 227/227/227 226/226/226 225/225/225
f 228/228/228 227/227/227 225/225/225
f 231/231/231 230/230/230 229/229/229
f 232/232/232 231/231/231 229/229/229
f 235/235/235 234/234/234 233/233/233
f 236/236/236 235/235/235 233/233/233
f 239/239/239 238/238/238 237/237/237
f 240/240/240 239/239/239 237/237/237
f 243/243/243 242/242/242 241/241/241
f 244/244/244 243/243/243 241/241/241
f 247/247/247 246/246/246 245/245/245
f 248/248/248 247/247/247 245/245/245
f 251/251/251 250/250/250 249/249/249
f 252/252/252 251/251/251 249/249/249
f 255/255/255 254/254/254 253/253/253
f 256/256/256 255/255/255 253/253/253
f 259/259/259 258/258/258 257/257/257
f 260/260/260 259/259/259 257/257/257
f 263/263/263 262/262/262 261/261/261
f 264/264/264 263/263/263 261/261/261
f 267/267/267 266/266/266 265/265/265
f 268/268/268 267/267/267 265/265/265
f 271/271/271 270/270/270 269/269/269
f 272/272/272 271/271/271 269/269/269
f 275/275/275 274/274/274 273/273/273
f 276/276/276 275/275/275 273/273/273
f 279/279/279 278/278/278 277/277/277
f 280/280/280 279/279/279 277/277/277
f 283/283/283 282/282/282 281/281/281
f 284/284/284 283/283/283 281/281/281
f 287/287/287 286/286/286 285/285/285
f 288/288/288 287/287/287 285/285/285
