g Trap
v 1.5129846 0.3528933 0.32727987
v 1.6714773 0.16079774 0
v 1.5279408 0.6964838 0
v 1.9161601 0.17148274 6.74112E-10
v 1.4867296 0.45087805 0.32727987
v 1.7451845 0.80957156 6.74112E-10
v 1.6066884 0.49305865 0.32727987
v 1.6379614 0.37634292 0.32727987
v 1.0621071 -1.1338371 0.32727987
v 0.97499365 -1.3671428 0
v 1.367143 -0.9749935 0
v 1.1065884 -1.5737017 6.74112E-10
v 1.133837 -1.0621071 0.32727987
v 1.1449039 -1.2303457 0.32727987
v 1.2303456 -1.1449035 0.32727987
v 1.5737019 -1.1065884 6.74112E-10
v -0.45087782 -1.4867299 0.32727987
v -0.69648373 -1.5279408 0
v -0.16079772 -1.6714773 0
v -0.8095716 -1.7451845 6.74112E-10
v -0.3528935 -1.512985 0.32727987
v -0.17148268 -1.91616 6.74112E-10
v -0.37634292 -1.6379622 0.32727987
v -0.4930584 -1.6066883 0.32727987
v -1.5129851 -0.35289314 0.32727987
v -1.6714773 -0.16079769 0
v -1.5279408 -0.69648373 0
v -1.9161601 -0.17148274 6.74112E-10
v -1.48673 -0.4508779 0.32727987
v -1.6379623 -0.37634292 0.32727987
v -1.6066884 -0.49305853 0.32727987
v -1.7451845 -0.80957156 6.74112E-10
v 1.4867299 -0.4508779 0.32727987
v 1.5279408 -0.69648373 0
v 1.6714773 -0.16079772 0
v 1.7451847 -0.8095716 6.74112E-10
v 1.512985 -0.35289323 0.32727987
v 1.9161599 -0.17148271 6.74112E-10
v 1.6379622 -0.37634292 0.32727987
v 1.6066883 -0.49305853 0.32727987
v 0.35289323 -1.5129846 0.32727987
v 0.16079774 -1.6714773 0
v 0.69648373 -1.5279406 0
v 0.17148271 -1.9161599 6.74112E-10
v 0.4508779 -1.4867295 0.32727987
v 0.3763429 -1.6379619 0.32727987
v 0.4930585 -1.6066879 0.32727987
v 0.8095716 -1.7451845 6.74112E-10
v -1.1338366 -1.0621071 0.32727987
v -1.367143 -0.97499365 0
v -0.97499365 -1.367143 0
v -1.5737019 -1.1065884 6.74112E-10
v -1.0621072 -1.1338366 0.32727987
v -1.1065884 -1.5737019 6.74112E-10
v -1.1449035 -1.2303452 0.32727987
v -1.2303452 -1.1449035 0.32727987
v -1.48673 0.45087802 0.32727987
v -1.5279408 0.6964838 0
v -1.6714773 0.16079777 0
v -1.7451847 0.8095716 6.74112E-10
v -1.5129851 0.35289338 0.32727987
v -1.6066884 0.4930585 0.32727987
v -1.6379623 0.376343 0.32727987
v -1.9161599 0.17148271 6.74112E-10
v 0.45087776 1.4867305 0.32727987
v 0.69648373 1.5279409 0
v 0.16079772 1.6714774 0
v 0.35289344 1.5129851 0.32727987
v 0.17148268 1.91616 6.74112E-10
v 0.49305835 1.6066884 0.32727987
v 0.8095716 1.7451845 6.74112E-10
v 0.37634286 1.6379619 0.32727987
v -1.0621068 1.1338366 0.32727987
v -0.97499365 1.3671429 0
v -1.367143 0.9749936 0
v -1.1338367 1.0621072 0.32727987
v -1.5737019 1.1065884 6.74112E-10
v -1.1449037 1.2303452 0.32727987
v -1.1065884 1.5737017 6.74112E-10
v -1.2303454 1.1449035 0.32727987
v 1.1338366 1.0621073 0.32727987
v 1.367143 0.9749937 0
v 0.97499365 1.3671432 0
v 1.0621072 1.1338367 0.32727987
v 1.1065884 1.5737019 6.74112E-10
v 1.2303452 1.1449037 0.32727987
v 1.5737019 1.1065884 6.74112E-10
v 1.1449035 1.2303454 0.32727987
v -0.35289332 1.5129851 0.32727987
v -0.16079774 1.6714774 0
v -0.69648373 1.5279408 0
v -0.450878 1.4867301 0.32727987
v -0.8095716 1.7451845 6.74112E-10
v -0.37634298 1.6379623 0.32727987
v -0.17148271 1.9161599 6.74112E-10
v -0.4930586 1.6066884 0.32727987
vt 0 0
vt 0 0
vt 0 0
vt 0 0
vt 0 0
vt 0 0
vt 0 0
vt 0 0
vt 0 0
vt 0 0
vt 0 0
vt 0 0
vt 0 0
vt 0 0
vt 0 0
vt 0 0
vt 0 0
vt 0 0
vt 0 0
vt 0 0
vt 0 0
vt 0 0
vt 0 0
vt 0 0
vt 0 0
vt 0 0
vt 0 0
vt 0 0
vt 0 0
vt 0 0
vt 0 0
vt 0 0
vt 0 0
vt 0 0
vt 0 0
vt 0 0
vt 0 0
vt 0 0
vt 0 0
vt 0 0
vt 0 0
vt 0 0
vt 0 0
vt 0 0
vt 0 0
vt 0 0
vt 0 0
vt 0 0
vt 0 0
vt 0 0
vt 0 0
vt 0 0
vt 0 0
vt 0 0
vt 0 0
vt 0 0
vt 0 0
vt 0 0
vt 0 0
vt 0 0
vt 0 0
vt 0 0
vt 0 0
vt 0 0
vt 0 0
vt 0 0
vt 0 0
vt 0 0
vt 0 0
vt 0 0
vt 0 0
vt 0 0
vt 0 0
vt 0 0
vt 0 0
vt 0 0
vt 0 0
vt 0 0
vt 0 0
vt 0 0
vt 0 0
vt 0 0
vt 0 0
vt 0 0
vt 0 0
vt 0 0
vt 0 0
vt 0 0
vt 0 0
vt 0 0
vt 0 0
vt 0 0
vt 0 0
vt 0 0
vt 0 0
vt 0 0
vn -0.62948895 -0.5297365 0.568439
vn -0.35351476 -0.86243325 0.36226544
vn -0.7373695 0.57013184 0.36226508
vn 0.5724954 -0.39856142 0.7165178
vn -0.81002194 0.14402092 0.56843865
vn 0.29651463 0.631412 0.7165179
vn 0.22904384 0.4576308 0.85913503
vn 0.42717102 -0.28179875 0.8591358
vn -0.7735095 0.28028458 0.56843954
vn -0.92364657 -0.12506318 0.36226523
vn 0.12506303 0.9236467 0.36226532
vn -0.05891725 -0.69507676 0.71651727
vn -0.28028527 0.7735093 0.56843954
vn -0.03045785 -0.5108418 0.85913503
vn 0.5108413 0.030458877 0.85913527
vn 0.6950768 0.0589173 0.71651727
vn -0.14402075 0.81002206 0.5684384
vn -0.5701314 0.73736966 0.3622653
vn 0.86243325 0.35351524 0.362265
vn -0.6314125 -0.29651448 0.7165175
vn 0.52973604 0.62948877 0.56843966
vn 0.3985621 -0.5724951 0.7165176
vn 0.2817987 -0.4271725 0.8591352
vn -0.45763075 -0.22904271 0.8591354
vn 0.6294885 0.5297365 0.5684395
vn 0.35351488 0.86243325 0.36226538
vn 0.73736966 -0.57013136 0.36226544
vn -0.5724955 0.3985617 0.71651757
vn 0.81002176 -0.1440207 0.56843895
vn -0.42717263 0.28179803 0.85913527
vn -0.22904263 -0.4576309 0.85913527
vn -0.29651436 -0.63141274 0.7165174
vn -0.81002194 -0.1440209 0.56843865
vn -0.73736954 -0.5701316 0.36226508
vn -0.35351497 0.8624332 0.36226535
vn 0.29651466 -0.63141245 0.7165175
vn -0.62948877 0.52973634 0.5684395
vn 0.5724954 0.39856207 0.71651745
vn 0.4271725 0.2817985 0.8591352
vn 0.2290427 -0.45763075 0.8591354
vn -0.5297366 0.6294888 0.56843895
vn -0.86243355 0.35351482 0.36226475
vn 0.5701317 0.73736966 0.36226484
vn -0.39856192 -0.5724951 0.71651775
vn 0.14402083 0.81002206 0.56843835
vn -0.2817985 -0.42717215 0.85913527
vn 0.45763072 -0.22904246 0.85913545
vn 0.63141215 -0.29651472 0.71651775
vn 0.28028557 0.77350944 0.5684391
vn -0.12506345 0.92364645 0.36226544
vn 0.92364657 -0.12506366 0.36226526
vn -0.69507635 0.058917183 0.7165177
vn 0.77350944 0.2802853 0.5684394
vn 0.05891708 -0.6950764 0.7165177
vn 0.030458773 -0.5108414 0.8591352
vn -0.5108413 0.030458685 0.85913527
vn 0.8100217 0.14402092 0.568439
vn 0.7373694 0.57013136 0.36226583
vn 0.3535151 -0.8624331 0.36226544
vn -0.29651466 0.6314125 0.7165175
vn 0.6294885 -0.5297362 0.5684398
vn -0.22904295 0.4576306 0.8591354
vn -0.42717263 -0.28179833 0.8591352
vn -0.57249534 -0.39856204 0.7165175
vn 0.1440206 -0.8100212 0.5684397
vn 0.5701311 -0.7373696 0.36226577
vn -0.86243284 -0.35351548 0.36226568
vn -0.529736 -0.62948906 0.56843936
vn -0.39856187 0.5724952 0.7165177
vn 0.4576308 0.2290432 0.8591352
vn 0.6314121 0.2965144 0.7165179
vn -0.28179875 0.42717183 0.85913545
vn 0.77351 -0.2802854 0.5684387
vn 0.92364645 0.12506369 0.36226544
vn -0.12506367 -0.92364645 0.36226556
vn 0.28028497 -0.7735091 0.56844
vn -0.6950762 -0.05891717 0.7165178
vn 0.030458253 0.5108413 0.85913527
vn 0.05891696 0.6950765 0.71651757
vn -0.5108413 -0.030458685 0.85913527
vn -0.28028554 -0.77350926 0.5684395
vn 0.12506332 -0.92364645 0.36226568
vn -0.92364645 0.12506373 0.36226532
vn -0.7735094 -0.2802853 0.5684394
vn -0.058917183 0.69507647 0.7165176
vn 0.5108413 -0.030458795 0.85913527
vn 0.6950762 -0.058917318 0.7165178
vn -0.03045875 0.5108415 0.8591352
vn 0.5297364 -0.6294886 0.5684395
vn 0.8624332 -0.35351497 0.3622655
vn -0.57013136 -0.7373697 0.3622651
vn -0.14402086 -0.8100216 0.5684391
vn -0.63141257 0.29651436 0.7165175
vn 0.28179824 0.42717242 0.85913527
vn 0.39856207 0.5724951 0.7165176
vn -0.45763084 0.22904271 0.85913527
g Trap_0
f 3/3/3 2/2/2 1/1/1
f 2/2/2 4/4/4 1/1/1
f 5/5/5 3/3/3 1/1/1
f 6/6/6 3/3/3 5/5/5
f 6/6/6 7/7/7 4/4/4
f 7/7/7 6/6/6 5/5/5
f 1/1/1 8/8/8 5/5/5
f 4/4/4 8/8/8 1/1/1
f 7/7/7 8/8/8 4/4/4
f 8/8/8 7/7/7 5/5/5
f 11/11/11 10/10/10 9/9/9
f 10/10/10 12/12/12 9/9/9
f 13/13/13 11/11/11 9/9/9
f 12/12/12 14/14/14 9/9/9
f 9/9/9 14/14/14 13/13/13
f 13/13/13 15/15/15 11/11/11
f 14/14/14 15/15/15 13/13/13
f 15/15/15 14/14/14 12/12/12
f 15/15/15 16/16/16 11/11/11
f 16/16/16 15/15/15 12/12/12
f 19/19/19 18/18/18 17/17/17
f 18/18/18 20/20/20 17/17/17
f 21/21/21 19/19/19 17/17/17
f 22/22/22 19/19/19 21/21/21
f 22/22/22 23/23/23 20/20/20
f 23/23/23 22/22/22 21/21/21
f 17/17/17 24/24/24 21/21/21
f 20/20/20 24/24/24 17/17/17
f 23/23/23 24/24/24 20/20/20
f 24/24/24 23/23/23 21/21/21
f 27/27/27 26/26/26 25/25/25
f 26/26/26 28/28/28 25/25/25
f 29/29/29 27/27/27 25/25/25
f 28/28/28 30/30/30 25/25/25
f 25/25/25 30/30/30 29/29/29
f 29/29/29 31/31/31 27/27/27
f 30/30/30 31/31/31 29/29/29
f 31/31/31 30/30/30 28/28/28
f 31/31/31 32/32/32 27/27/27
f 32/32/32 31/31/31 28/28/28
f 35/35/35 34/34/34 33/33/33
f 34/34/34 36/36/36 33/33/33
f 37/37/37 35/35/35 33/33/33
f 38/38/38 35/35/35 37/37/37
f 38/38/38 39/39/39 36/36/36
f 39/39/39 38/38/38 37/37/37
f 33/33/33 40/40/40 37/37/37
f 36/36/36 40/40/40 33/33/33
f 39/39/39 40/40/40 36/36/36
f 40/40/40 39/39/39 37/37/37
f 43/43/43 42/42/42 41/41/41
f 42/42/42 44/44/44 41/41/41
f 45/45/45 43/43/43 41/41/41
f 44/44/44 46/46/46 41/41/41
f 41/41/41 46/46/46 45/45/45
f 45/45/45 47/47/47 43/43/43
f 46/46/46 47/47/47 45/45/45
f 47/47/47 46/46/46 44/44/44
f 47/47/47 48/48/48 43/43/43
f 48/48/48 47/47/47 44/44/44
f 51/51/51 50/50/50 49/49/49
f 50/50/50 52/52/52 49/49/49
f 53/53/53 51/51/51 49/49/49
f 54/54/54 51/51/51 53/53/53
f 54/54/54 55/55/55 52/52/52
f 55/55/55 54/54/54 53/53/53
f 49/49/49 56/56/56 53/53/53
f 52/52/52 56/56/56 49/49/49
f 55/55/55 56/56/56 52/52/52
f 56/56/56 55/55/55 53/53/53
f 59/59/59 58/58/58 57/57/57
f 58/58/58 60/60/60 57/57/57
f 61/61/61 59/59/59 57/57/57
f 60/60/60 62/62/62 57/57/57
f 57/57/57 62/62/62 61/61/61
f 61/61/61 63/63/63 59/59/59
f 62/62/62 63/63/63 61/61/61
f 63/63/63 62/62/62 60/60/60
f 63/63/63 64/64/64 59/59/59
f 64/64/64 63/63/63 60/60/60
f 67/67/67 66/66/66 65/65/65
f 68/68/68 67/67/67 65/65/65
f 69/69/69 67/67/67 68/68/68
f 70/70/70 65/65/65 66/66/66
f 65/65/65 70/70/70 68/68/68
f 71/71/71 70/70/70 66/66/66
f 69/69/69 72/72/72 71/71/71
f 72/72/72 69/69/69 68/68/68
f 72/72/72 70/70/70 71/71/71
f 70/70/70 72/72/72 68/68/68
f 75/75/75 74/74/74 73/73/73
f 76/76/76 75/75/75 73/73/73
f 77/77/77 75/75/75 76/76/76
f 78/78/78 73/73/73 74/74/74
f 73/73/73 78/78/78 76/76/76
f 79/79/79 78/78/78 74/74/74
f 77/77/77 80/80/80 79/79/79
f 80/80/80 77/77/77 76/76/76
f 80/80/80 78/78/78 79/79/79
f 78/78/78 80/80/80 76/76/76
f 83/83/83 82/82/82 81/81/81
f 84/84/84 83/83/83 81/81/81
f 85/85/85 83/83/83 84/84/84
f 86/86/86 81/81/81 82/82/82
f 81/81/81 86/86/86 84/84/84
f 87/87/87 86/86/86 82/82/82
f 85/85/85 88/88/88 87/87/87
f 88/88/88 85/85/85 84/84/84
f 88/88/88 86/86/86 87/87/87
f 86/86/86 88/88/88 84/84/84
f 91/91/91 90/90/90 89/89/89
f 92/92/92 91/91/91 89/89/89
f 93/93/93 91/91/91 92/92/92
f 94/94/94 89/89/89 90/90/90
f 89/89/89 94/94/94 92/92/92
f 95/95/95 94/94/94 90/90/90
f 93/93/93 96/96/96 95/95/95
f 96/96/96 93/93/93 92/92/92
f 96/96/96 94/94/94 95/95/95
f 94/94/94 96/96/96 92/92/92
