g Trap Trigger
v -2.9898755E-09 0.21739745 0.071094185
v 0.1882717 0.10869872 0.071094185
v 0.1882717 -0.10869873 0.071094185
v -2.9898755E-09 -0.21739745 0.071094185
v -0.1882717 0.10869872 0.071094185
v -0.1882717 -0.10869873 0.071094185
v 0.1882717 0.10869872 0.032224286
v 0.1882717 0.10869872 0.071094185
v -2.9898755E-09 0.21739745 0.071094185
v -2.9898755E-09 0.21739745 0.032224286
v -2.9898755E-09 -0.21739745 0.032224286
v -2.9898755E-09 -0.21739745 0.071094185
v 0.1882717 -0.10869873 0.071094185
v 0.1882717 -0.10869873 0.032224286
v -0.1882717 0.10869872 0.032224286
v -0.1882717 0.10869872 0.071094185
v -0.1882717 -0.10869873 0.071094185
v -0.1882717 -0.10869873 0.032224286
v 0.1882717 -0.10869873 0.032224286
v 0.1882717 -0.10869873 0.071094185
v 0.1882717 0.10869872 0.071094185
v 0.1882717 0.10869872 0.032224286
v -0.1882717 -0.10869873 0.032224286
v -0.1882717 -0.10869873 0.071094185
v -2.9898755E-09 -0.21739745 0.071094185
v -2.9898755E-09 -0.21739745 0.032224286
v -2.9898755E-09 0.21739745 0.032224286
v -2.9898755E-09 0.21739745 0.071094185
v -0.1882717 0.10869872 0.071094185
v -0.1882717 0.10869872 0.032224286
vt 0 0
vt 0 0
vt 0 0
vt 0 0
vt 0 0
vt 0 0
vt 0 0
vt 0 0
vt 0 0
vt 0 0
vt 0 0
vt 0 0
vt 0 0
vt 0 0
vt 0 0
vt 0 0
vt 0 0
vt 0 0
vt 0 0
vt 0 0
vt 0 0
vt 0 0
vt 0 0
vt 0 0
vt 0 0
vt 0 0
vt 0 0
vt 0 0
vt 0 0
vt 0 0
vn -0 0 1
vn -0 0 1
vn -0 0 1
vn -0 0 1
vn -0 0 1
vn -0 0 1
vn 0.50000006 0.8660253 0
vn 0.50000006 0.8660253 0
vn 0.50000006 0.8660253 0
vn 0.50000006 0.8660253 0
vn 0.5 -0.86602545 0
vn 0.5 -0.86602545 0
vn 0.5 -0.86602545 0
vn 0.5 -0.86602545 0
vn -1 0 0
vn -1 0 0
vn -1 0 0
vn -1 0 0
vn 1 0 0
vn 1 0 0
vn 1 0 0
vn 1 0 0
vn -0.5 -0.86602545 0
vn -0.5 -0.86602545 0
vn -0.5 -0.86602545 0
vn -0.5 -0.86602545 0
vn -0.50000006 0.8660253 0
vn -0.50000006 0.8660253 0
vn -0.50000006 0.8660253 0
vn -0.50000006 0.8660253 0
g Trap Trigger_0
f 3/3/3 2/2/2 1/1/1
f 1/1/1 4/4/4 3/3/3
f 1/1/1 5/5/5 4/4/4
f 5/5/5 6/6/6 4/4/4
f 9/9/9 8/8/8 7/7/7
f 10/10/10 9/9/9 7/7/7
f 13/13/13 12/12/12 11/11/11
f 14/14/14 13/13/13 11/11/11
f 17/17/17 16/16/16 15/15/15
f 18/18/18 17/17/17 15/15/15
f 21/21/21 20/20/20 19/19/19
f 22/22/22 21/21/21 19/19/19
f 25/25/25 24/24/24 23/23/23
f 26/26/26 25/25/25 23/23/23
f 29/29/29 28/28/28 27/27/27
f 30/30/30 29/29/29 27/27/27
