g Uferwind
v -0.6781431 1.0961053 -3.7252903E-09
v 0.9391988 0.30379063 -3.7252903E-09
v 0.8507924 -0.8307649 -3.7252903E-09
v -0.97240764 -0.8307649 -3.7252903E-09
v -1.4341588 2.1534097 -3.7252903E-09
v -1.2382149 -2.1931658 -3.7252903E-09
v -2.6841562 -2.946744 -3.7252903E-09
v -0.5944017 -3.611666 -3.7252903E-09
v -2.4567611 1.5272499 -3.7252903E-09
v -3.0261161 -0.7620003 -3.7252903E-09
v -3.2263894 0.47645518 -3.7252903E-09
vt 0 0
vt 0 0
vt 0 0
vt 0 0
vt 0 0
vt 0 0
vt 0 0
vt 0 0
vt 0 0
vt 0 0
vt 0 0
vn -0 0 1
vn -0 0 1
vn -0 0 1
vn -0 0 1
vn -0 0 1
vn -0 0 1
vn -0 0 1
vn -0 0 1
vn -0 0 1
vn -0 0 1
vn -0 0 1
g Uferwind_0
f 3/3/3 2/2/2 1/1/1
f 1/1/1 4/4/4 3/3/3
f 1/1/1 5/5/5 4/4/4
f 5/5/5 6/6/6 4/4/4
f 6/6/6 5/5/5 7/7/7
f 7/7/7 8/8/8 6/6/6
f 5/5/5 9/9/9 7/7/7
f 9/9/9 10/10/10 7/7/7
f 9/9/9 11/11/11 10/10/10
