g Wall Segment lvl2 Final
v 1.4836767 0.41647416 3.114612
v 1.4836764 0.69726413 0
v 1.4836764 0.41647416 0
v 0.9891131 0.41647416 0
v 0.9891131 0.69726413 0
v 0.9891134 0.41647416 3.114612
v -2.9673932 0.41647416 3.114612
v -2.9673934 0.69726413 0
v -2.9673934 0.41647416 0
v -1.9782667 0.41647416 0
v -1.9782667 0.69726413 0
v -1.9782665 0.41647416 3.114612
v -1.4837031 0.41647416 3.114612
v -1.4837034 0.69726413 0
v -1.4837034 0.41647416 0
v 2.472803 0.41647416 0
v 2.472803 0.69726413 0
v 2.4728034 0.41647416 3.114612
v 2.9673667 0.41647416 3.114612
v 2.9673665 0.69726413 0
v 2.9673665 0.41647416 0
v -0.4945768 0.41647416 0
v -0.4945768 0.69726413 0
v -0.4945765 0.41647416 3.114612
v -1.3202429E-05 0.41647416 3.114612
v -1.3500452E-05 0.69726413 0
v -1.3500452E-05 0.41647416 0
v 4.4510565 0.41647416 3.114612
v 4.4510565 0.69726413 0
v 4.4510565 0.41647416 0
v -3.4619567 0.41647416 0
v -3.4619567 0.69726413 0
v -3.4619565 0.41647416 3.114612
v 3.9564931 0.41647416 0
v 3.9564931 0.69726413 0
v 3.9564934 0.41647416 3.114612
v -4.451083 -0.09606652 0
v -4.451083 0.41647416 0
v -4.451083 0.41647416 3.114612
v -4.451083 -0.096066564 3.114612
v -4.451083 -1.2293057 0
v -4.451083 -0.86486125 3.114612
v 4.4510565 -0.096066564 0
v 4.4510565 -1.2293057 0
v 4.4510565 -0.86486125 3.114612
v 4.4510565 -0.09606652 3.114612
v 4.4510565 0.41647416 0
v 4.4510565 0.41647416 3.114612
v 4.4510565 0.41647416 3.495938
v 4.4510565 -0.09606652 3.495938
v 4.4510565 0.41647416 3.9759388
v 4.4510565 -0.09606652 3.9759388
v -3.9565198 -1.2293057 0
v -4.451083 -1.2293057 0
v -4.451083 -0.86486125 3.114612
v -3.95652 -0.86486125 3.114612
v -3.4619565 -1.2293057 0
v -3.4619567 -0.86486125 3.114612
v -2.9673932 -1.2293057 0
v -2.9673934 -0.86486125 3.114612
v -2.4728298 -1.2293057 0
v -2.47283 -0.86486125 3.114612
v -1.9782665 -1.2293057 0
v -1.9782667 -0.86486125 3.114612
v -1.4837031 -1.2293057 0
v -1.4837034 -0.86486125 3.114612
v -0.98913974 -1.2293057 0
v -0.9891401 -0.86486125 3.114612
v -0.49457642 -1.2293057 0
v -0.4945768 -0.86486125 3.114612
v -1.3117664E-05 -1.2293057 0
v -1.3500452E-05 -0.86486125 3.114612
v 0.4945502 -1.2293057 0
v 0.4945498 -0.86486125 3.114612
v 0.98911345 -1.2293057 0
v 0.9891131 -0.86486125 3.114612
v 1.4836767 -1.2293057 0
v 1.4836764 -0.86486125 3.114612
v 1.97824 -1.2293057 0
v 1.9782398 -0.86486125 3.114612
v 2.4728034 -1.2293057 0
v 2.472803 -0.86486125 3.114612
v 2.9673667 -1.2293057 0
v 2.9673665 -0.86486125 3.114612
v 3.46193 -1.2293057 0
v 3.4619298 -0.86486125 3.114612
v 3.9564934 -1.2293057 0
v 3.9564931 -0.86486125 3.114612
v 4.4510565 -1.2293057 0
v 4.4510565 -0.86486125 3.114612
v -3.95652 -0.09606652 3.114612
v -4.451083 -0.86486125 3.114612
v -4.451083 -0.096066564 3.114612
v -3.95652 -0.86486125 3.114612
v -3.4619565 -0.09606652 3.114612
v -3.4619567 -0.86486125 3.114612
v -2.9673934 -0.09606652 3.114612
v -2.9673934 -0.86486125 3.114612
v -2.4728298 -0.09606652 3.114612
v -2.47283 -0.86486125 3.114612
v -1.9782666 -0.09606652 3.114612
v -1.9782667 -0.86486125 3.114612
v -1.4837033 -0.09606652 3.114612
v -1.4837034 -0.86486125 3.114612
v -0.9891399 -0.09606652 3.114612
v -0.9891401 -0.86486125 3.114612
v -0.49457663 -0.09606652 3.114612
v -0.4945768 -0.86486125 3.114612
v -1.332164E-05 -0.09606652 3.114612
v -1.3500452E-05 -0.86486125 3.114612
v 0.49455 -0.09606652 3.114612
v 0.4945498 -0.86486125 3.114612
v 0.9891133 -0.09606652 3.114612
v 0.9891131 -0.86486125 3.114612
v 1.4836766 -0.09606652 3.114612
v 1.4836764 -0.86486125 3.114612
v 1.9782399 -0.09606652 3.114612
v 1.9782398 -0.86486125 3.114612
v 2.472803 -0.09606652 3.114612
v 2.472803 -0.86486125 3.114612
v 2.9673667 -0.09606652 3.114612
v 2.9673665 -0.86486125 3.114612
v 3.4619298 -0.09606652 3.114612
v 3.4619298 -0.86486125 3.114612
v 3.9564934 -0.09606652 3.114612
v 3.9564931 -0.86486125 3.114612
v 4.4510565 -0.09606652 3.114612
v 4.4510565 -0.86486125 3.114612
v -4.451083 -0.09606652 0
v -4.451083 -1.2293057 0
v -3.9565198 -1.2293057 0
v -3.95652 -0.09606652 0
v -4.451083 0.41647416 0
v -3.4619565 -1.2293057 0
v -3.95652 0.41647416 0
v -3.4619565 -0.09606652 0
v -2.9673932 -1.2293057 0
v -3.4619567 0.41647416 0
v -2.9673934 -0.09606652 0
v -2.4728298 -1.2293057 0
v -2.9673934 0.41647416 0
v -3.4619567 0.69726413 0
v -2.9673934 0.69726413 0
v -2.4728298 -0.09606652 0
v -1.9782665 -1.2293057 0
v -2.47283 0.41647416 0
v -1.9782666 -0.09606652 0
v -1.4837031 -1.2293057 0
v -1.9782667 0.41647416 0
v -1.4837033 -0.09606652 0
v -0.98913974 -1.2293057 0
v -1.4837034 0.41647416 0
v -1.9782667 0.69726413 0
v -1.4837034 0.69726413 0
v -0.98914 -0.09606652 0
v -0.49457642 -1.2293057 0
v -0.9891401 0.41647416 0
v -0.4945767 -0.09606652 0
v -1.3117664E-05 -1.2293057 0
v -0.4945768 0.41647416 0
v -1.3381241E-05 -0.09606652 0
v 0.4945502 -1.2293057 0
v -1.3500452E-05 0.41647416 0
v -0.4945768 0.69726413 0
v -1.3500452E-05 0.69726413 0
v 0.49454993 -0.09606652 0
v 0.98911345 -1.2293057 0
v 0.4945498 0.41647416 0
v 0.9891132 -0.09606652 0
v 1.4836767 -1.2293057 0
v 0.9891131 0.41647416 0
v 1.4836766 -0.09606652 0
v 1.97824 -1.2293057 0
v 1.4836764 0.41647416 0
v 0.9891131 0.69726413 0
v 1.4836764 0.69726413 0
v 1.9782399 -0.09606652 0
v 2.4728034 -1.2293057 0
v 1.9782398 0.41647416 0
v 2.472803 -0.09606652 0
v 2.9673667 -1.2293057 0
v 2.472803 0.41647416 0
v 2.9673667 -0.09606652 0
v 3.46193 -1.2293057 0
v 2.9673665 0.41647416 0
v 2.472803 0.69726413 0
v 2.9673665 0.69726413 0
v 3.4619298 -0.09606652 0
v 3.9564934 -1.2293057 0
v 3.4619298 0.41647416 0
v 3.9564934 -0.09606652 0
v 4.4510565 -1.2293057 0
v 4.4510565 -0.096066564 0
v 3.9564931 0.41647416 0
v 4.4510565 0.41647416 0
v 3.9564931 0.69726413 0
v 4.4510565 0.69726413 0
v -4.451083 0.41647416 0
v -3.9565198 0.41647416 3.114612
v -4.451083 0.41647416 3.114612
v -3.95652 0.41647416 0
v -3.4619565 0.41647416 3.114612
v -3.4619567 0.41647416 0
v -2.9673934 0.41647416 0
v -2.4728298 0.41647416 3.114612
v -2.9673932 0.41647416 3.114612
v -2.47283 0.41647416 0
v -1.9782665 0.41647416 3.114612
v -1.9782667 0.41647416 0
v -1.4837034 0.41647416 0
v -0.9891398 0.41647416 3.114612
v -1.4837031 0.41647416 3.114612
v -0.9891401 0.41647416 0
v -0.4945765 0.41647416 3.114612
v -0.4945768 0.41647416 0
v -1.3500452E-05 0.41647416 0
v 0.4945501 0.41647416 3.114612
v -1.3202429E-05 0.41647416 3.114612
v 0.4945498 0.41647416 0
v 0.9891134 0.41647416 3.114612
v 0.9891131 0.41647416 0
v 1.4836764 0.41647416 0
v 1.97824 0.41647416 3.114612
v 1.4836767 0.41647416 3.114612
v 1.9782398 0.41647416 0
v 2.4728034 0.41647416 3.114612
v 2.472803 0.41647416 0
v 2.9673665 0.41647416 0
v 3.46193 0.41647416 3.114612
v 2.9673667 0.41647416 3.114612
v 3.4619298 0.41647416 0
v 3.9564934 0.41647416 3.114612
v 3.9564931 0.41647416 0
v -3.9565198 0.41647416 3.114612
v -4.451083 0.41647416 3.495938
v -4.451083 0.41647416 3.114612
v -3.9565198 0.41647416 3.495938
v -3.4619565 0.41647416 3.114612
v -3.4619565 0.41647416 3.495938
v -3.9565198 0.41647416 3.9759388
v -3.4619565 0.41647416 3.9759388
v -2.9673932 0.41647416 3.114612
v -2.9673932 0.41647416 3.495938
v -2.4728298 0.41647416 3.114612
v -2.4728298 0.41647416 3.495938
v -2.9673932 0.41647416 3.9759388
v -2.4728298 0.41647416 3.9759388
v -1.9782665 0.41647416 3.114612
v -1.9782665 0.41647416 3.495938
v -1.4837031 0.41647416 3.114612
v -1.4837031 0.41647416 3.495938
v -1.9782665 0.41647416 3.9759388
v -1.4837031 0.41647416 3.9759388
v -0.9891398 0.41647416 3.114612
v -0.9891398 0.41647416 3.495938
v -0.4945765 0.41647416 3.114612
v -0.4945765 0.41647416 3.495938
v -0.9891398 0.41647416 3.9759388
v -0.4945765 0.41647416 3.9759388
v -1.3202429E-05 0.41647416 3.114612
v -1.3202429E-05 0.41647416 3.495938
v 0.4945501 0.41647416 3.114612
v 0.4945501 0.41647416 3.495938
v -1.3202429E-05 0.41647416 3.9759388
v 0.4945501 0.41647416 3.9759388
v 0.9891134 0.41647416 3.114612
v 0.9891134 0.41647416 3.495938
v 1.4836767 0.41647416 3.114612
v 1.4836767 0.41647416 3.495938
v 0.9891134 0.41647416 3.9759388
v 1.4836767 0.41647416 3.9759388
v 1.97824 0.41647416 3.114612
v 1.97824 0.41647416 3.495938
v 2.4728034 0.41647416 3.114612
v 2.4728034 0.41647416 3.495938
v 1.97824 0.41647416 3.9759388
v 2.4728034 0.41647416 3.9759388
v 2.9673667 0.41647416 3.114612
v 2.9673667 0.41647416 3.495938
v 3.46193 0.41647416 3.114612
v 3.46193 0.41647416 3.495938
v 2.9673667 0.41647416 3.9759388
v 3.46193 0.41647416 3.9759388
v 3.9564934 0.41647416 3.114612
v 3.9564934 0.41647416 3.495938
v 4.4510565 0.41647416 3.114612
v 4.4510565 0.41647416 3.495938
v 3.9564934 0.41647416 3.9759388
v 4.4510565 0.41647416 3.9759388
v -4.451083 0.41647416 3.114612
v -4.451083 0.41647416 3.495938
v -4.451083 -0.096066564 3.495938
v -4.451083 -0.096066564 3.114612
v -2.9673932 0.41647416 3.495938
v -2.9673934 -0.09606652 3.495938
v -3.4619565 -0.09606652 3.495938
v -3.4619565 0.41647416 3.495938
v -1.332164E-05 -0.09606652 3.495938
v -1.332164E-05 -0.09606652 3.9759388
v 0.49455 -0.09606652 3.9759388
v 0.49455 -0.09606652 3.495938
v -1.332164E-05 -0.09606652 3.114612
v -0.49457663 -0.09606652 3.114612
v 0.49455 -0.09606652 3.114612
v -0.49457663 -0.09606652 3.495938
v 0.9891133 -0.09606652 3.495938
v -0.9891399 -0.09606652 3.114612
v 0.9891133 -0.09606652 3.114612
v -0.9891399 -0.09606652 3.495938
v -0.49457663 -0.09606652 3.9759388
v -0.9891399 -0.09606652 3.9759388
v -1.4837033 -0.09606652 3.114612
v -1.4837033 -0.09606652 3.495938
v -1.9782666 -0.09606652 3.114612
v -1.9782666 -0.09606652 3.495938
v -1.4837033 -0.09606652 3.9759388
v -1.9782666 -0.09606652 3.9759388
v -2.4728298 -0.09606652 3.114612
v -2.4728298 -0.09606652 3.495938
v -2.9673934 -0.09606652 3.114612
v -2.9673934 -0.09606652 3.495938
v -2.4728298 -0.09606652 3.9759388
v -2.9673934 -0.09606652 3.9759388
v -3.4619565 -0.09606652 3.114612
v -3.4619565 -0.09606652 3.495938
v -3.95652 -0.09606652 3.114612
v -3.95652 -0.09606652 3.495938
v -4.451083 -0.096066564 3.114612
v -4.451083 -0.096066564 3.495938
v -3.4619565 -0.09606652 3.9759388
v -3.95652 -0.09606652 3.9759388
v -1.9782665 0.41647416 3.495938
v -1.9782666 -0.09606652 3.495938
v -2.4728298 -0.09606652 3.495938
v -2.4728298 0.41647416 3.495938
v -1.4837033 -0.09606652 3.495938
v -1.4837033 -0.09606652 3.9759388
v -1.4837031 0.41647416 3.9759388
v -1.4837031 0.41647416 3.495938
v -0.9891398 0.41647416 3.495938
v -0.9891399 -0.09606652 3.495938
v -1.4837033 -0.09606652 3.495938
v -1.4837031 0.41647416 3.495938
v -1.3202429E-05 0.41647416 3.495938
v -1.332164E-05 -0.09606652 3.495938
v -0.49457663 -0.09606652 3.495938
v -0.4945765 0.41647416 3.495938
v -0.9891398 0.41647416 3.495938
v -0.9891398 0.41647416 3.9759388
v -0.9891399 -0.09606652 3.9759388
v -0.9891399 -0.09606652 3.495938
v 0.9891134 0.41647416 3.495938
v 0.9891133 -0.09606652 3.495938
v 0.49455 -0.09606652 3.495938
v 0.4945501 0.41647416 3.495938
v 1.97824 0.41647416 3.495938
v 1.9782399 -0.09606652 3.495938
v 1.4836766 -0.09606652 3.495938
v 1.4836767 0.41647416 3.495938
v 2.9673667 0.41647416 3.495938
v 2.9673667 -0.09606652 3.495938
v 2.472803 -0.09606652 3.495938
v 2.4728034 0.41647416 3.495938
v -0.49457663 -0.09606652 3.495938
v -0.49457663 -0.09606652 3.9759388
v -0.4945765 0.41647416 3.9759388
v -0.4945765 0.41647416 3.495938
v 3.9564934 0.41647416 3.495938
v 3.9564934 -0.09606652 3.495938
v 3.4619298 -0.09606652 3.495938
v 3.46193 0.41647416 3.495938
v -3.9565198 0.41647416 3.495938
v -3.95652 -0.09606652 3.495938
v -4.451083 -0.096066564 3.495938
v -4.451083 0.41647416 3.495938
v 3.9564934 -0.09606652 3.114612
v 4.4510565 -0.09606652 3.495938
v 4.4510565 -0.09606652 3.114612
v 3.9564934 -0.09606652 3.495938
v 4.4510565 -0.09606652 3.9759388
v 3.9564934 -0.09606652 3.9759388
v 3.4619298 -0.09606652 3.114612
v 3.4619298 -0.09606652 3.495938
v 2.9673667 -0.09606652 3.114612
v 2.9673667 -0.09606652 3.495938
v 3.4619298 -0.09606652 3.9759388
v 2.9673667 -0.09606652 3.9759388
v 2.472803 -0.09606652 3.114612
v 2.472803 -0.09606652 3.495938
v 1.9782399 -0.09606652 3.114612
v 1.9782399 -0.09606652 3.495938
v 2.472803 -0.09606652 3.9759388
v 1.9782399 -0.09606652 3.9759388
v 1.4836766 -0.09606652 3.114612
v 1.4836766 -0.09606652 3.495938
v 1.4836766 -0.09606652 3.9759388
v 0.9891133 -0.09606652 3.9759388
v -3.4619565 0.41647416 3.9759388
v -3.4619565 -0.09606652 3.9759388
v -3.95652 -0.09606652 3.9759388
v -3.9565198 0.41647416 3.9759388
v -2.4728298 0.41647416 3.9759388
v -2.4728298 -0.09606652 3.9759388
v -2.9673934 -0.09606652 3.9759388
v -2.9673932 0.41647416 3.9759388
v -1.4837031 0.41647416 3.9759388
v -1.4837033 -0.09606652 3.9759388
v -1.9782666 -0.09606652 3.9759388
v -1.9782665 0.41647416 3.9759388
v -0.4945765 0.41647416 3.9759388
v -0.49457663 -0.09606652 3.9759388
v -0.9891399 -0.09606652 3.9759388
v -0.9891398 0.41647416 3.9759388
v 0.4945501 0.41647416 3.9759388
v 0.49455 -0.09606652 3.9759388
v -1.332164E-05 -0.09606652 3.9759388
v -1.3202429E-05 0.41647416 3.9759388
v 1.4836767 0.41647416 3.9759388
v 1.4836766 -0.09606652 3.9759388
v 0.9891133 -0.09606652 3.9759388
v 0.9891134 0.41647416 3.9759388
v 2.4728034 0.41647416 3.9759388
v 2.472803 -0.09606652 3.9759388
v 1.9782399 -0.09606652 3.9759388
v 1.97824 0.41647416 3.9759388
v 3.46193 0.41647416 3.9759388
v 3.4619298 -0.09606652 3.9759388
v 2.9673667 -0.09606652 3.9759388
v 2.9673667 0.41647416 3.9759388
v 4.4510565 0.41647416 3.9759388
v 4.4510565 -0.09606652 3.9759388
v 3.9564934 -0.09606652 3.9759388
v 3.9564934 0.41647416 3.9759388
v -1.9782665 0.41647416 3.495938
v -1.9782665 0.41647416 3.9759388
v -1.9782666 -0.09606652 3.9759388
v -1.9782666 -0.09606652 3.495938
v -2.4728298 -0.09606652 3.495938
v -2.4728298 -0.09606652 3.9759388
v -2.4728298 0.41647416 3.9759388
v -2.4728298 0.41647416 3.495938
v 3.9564934 0.41647416 3.495938
v 3.9564934 0.41647416 3.9759388
v 3.9564934 -0.09606652 3.9759388
v 3.9564934 -0.09606652 3.495938
v -2.9673932 0.41647416 3.495938
v -2.9673932 0.41647416 3.9759388
v -2.9673934 -0.09606652 3.9759388
v -2.9673934 -0.09606652 3.495938
v 3.4619298 -0.09606652 3.495938
v 3.4619298 -0.09606652 3.9759388
v 3.46193 0.41647416 3.9759388
v 3.46193 0.41647416 3.495938
v -3.4619565 -0.09606652 3.495938
v -3.4619565 -0.09606652 3.9759388
v -3.4619565 0.41647416 3.9759388
v -3.4619565 0.41647416 3.495938
v 2.9673667 0.41647416 3.495938
v 2.9673667 0.41647416 3.9759388
v 2.9673667 -0.09606652 3.9759388
v 2.9673667 -0.09606652 3.495938
v -3.9565198 0.41647416 3.495938
v -3.9565198 0.41647416 3.9759388
v -3.95652 -0.09606652 3.9759388
v -3.95652 -0.09606652 3.495938
v 2.472803 -0.09606652 3.495938
v 2.472803 -0.09606652 3.9759388
v 2.4728034 0.41647416 3.9759388
v 2.4728034 0.41647416 3.495938
v 1.97824 0.41647416 3.495938
v 1.97824 0.41647416 3.9759388
v 1.9782399 -0.09606652 3.9759388
v 1.9782399 -0.09606652 3.495938
v 1.4836766 -0.09606652 3.495938
v 1.4836766 -0.09606652 3.9759388
v 1.4836767 0.41647416 3.9759388
v 1.4836767 0.41647416 3.495938
v 0.9891134 0.41647416 3.495938
v 0.9891134 0.41647416 3.9759388
v 0.9891133 -0.09606652 3.9759388
v 0.9891133 -0.09606652 3.495938
v 0.49455 -0.09606652 3.495938
v 0.49455 -0.09606652 3.9759388
v 0.4945501 0.41647416 3.9759388
v 0.4945501 0.41647416 3.495938
v -1.3202429E-05 0.41647416 3.495938
v -1.3202429E-05 0.41647416 3.9759388
v -1.332164E-05 -0.09606652 3.9759388
v -1.332164E-05 -0.09606652 3.495938
v 3.9564931 0.69726413 0
v 4.4510565 0.69726413 0
v 4.4510565 0.41647416 3.114612
v 3.9564934 0.41647416 3.114612
v -3.4619567 0.69726413 0
v -2.9673934 0.69726413 0
v -2.9673932 0.41647416 3.114612
v -3.4619565 0.41647416 3.114612
v -1.9782667 0.69726413 0
v -1.4837034 0.69726413 0
v -1.4837031 0.41647416 3.114612
v -1.9782665 0.41647416 3.114612
v -0.4945768 0.69726413 0
v -1.3500452E-05 0.69726413 0
v -1.3202429E-05 0.41647416 3.114612
v -0.4945765 0.41647416 3.114612
v 0.9891131 0.69726413 0
v 1.4836764 0.69726413 0
v 1.4836767 0.41647416 3.114612
v 0.9891134 0.41647416 3.114612
v 2.472803 0.69726413 0
v 2.9673665 0.69726413 0
v 2.9673667 0.41647416 3.114612
v 2.4728034 0.41647416 3.114612
vt 0.625 0.41666672
vt 0.375 0.4166667
vt 0.375 0.4166667
vt 0.375 0.40277782
vt 0.375 0.40277782
vt 0.625 0.40277785
vt 0.625 0.2916667
vt 0.375 0.29166672
vt 0.375 0.29166672
vt 0.37499997 0.31944448
vt 0.37499997 0.31944448
vt 0.625 0.31944448
vt 0.62499994 0.33333334
vt 0.37499997 0.3333334
vt 0.37499997 0.3333334
vt 0.375 0.44444448
vt 0.375 0.44444448
vt 0.625 0.44444448
vt 0.625 0.45833337
vt 0.375 0.45833334
vt 0.375 0.45833334
vt 0.37499997 0.36111116
vt 0.37499997 0.36111116
vt 0.625 0.36111116
vt 0.625 0.37500006
vt 0.37499997 0.37500003
vt 0.37499997 0.37500003
vt 0.625 0.5
vt 0.375 0.5
vt 0.375 0.5
vt 0.375 0.2777778
vt 0.375 0.2777778
vt 0.625 0.2777778
vt 0.375 0.4861111
vt 0.375 0.4861111
vt 0.625 0.4861111
vt 0.375 0.14999872
vt 0.375 0.25
vt 0.625 0.25
vt 0.625 0.14999872
vt 0.375 -0.071106374
vt 0.625 0
vt 0.375 0.6000012
vt 0.375 0.75
vt 0.625 0.75
vt 0.625 0.6000012
vt 0.375 0.5
vt 0.625 0.5
vt 0.625 0.5
vt 0.625 0.6000012
vt 0.625 0.5
vt 0.625 0.6000012
vt 0.375 0.9861111
vt 0.375 1
vt 0.625 1
vt 0.625 0.9861111
vt 0.375 0.9722222
vt 0.625 0.9722222
vt 0.375 0.9583333
vt 0.625 0.9583334
vt 0.375 0.9444444
vt 0.625 0.94444454
vt 0.375 0.93055546
vt 0.625 0.93055564
vt 0.375 0.91666657
vt 0.625 0.91666675
vt 0.375 0.9027778
vt 0.625 0.90277785
vt 0.37499994 0.88888884
vt 0.625 0.88888896
vt 0.37499997 0.875
vt 0.625 0.87500006
vt 0.37499994 0.86111104
vt 0.625 0.86111116
vt 0.37499997 0.84722215
vt 0.625 0.84722227
vt 0.37499997 0.8333333
vt 0.625 0.8333334
vt 0.37499997 0.8194444
vt 0.625 0.8194445
vt 0.375 0.8055556
vt 0.625 0.8055556
vt 0.375 0.7916667
vt 0.625 0.7916667
vt 0.375 0.77777773
vt 0.625 0.7777778
vt 0.375 0.76388884
vt 0.625 0.7638889
vt 0.375 0.75
vt 0.625 0.75
vt 0.86111104 0.6000013
vt 0.875 0.75
vt 0.875 0.6000012
vt 0.8611111 0.75
vt 0.8472222 0.6000013
vt 0.8472222 0.75
vt 0.8333333 0.60000134
vt 0.8333333 0.75
vt 0.8194444 0.6000013
vt 0.8194444 0.75
vt 0.80555546 0.60000134
vt 0.80555546 0.74999994
vt 0.7916666 0.60000134
vt 0.7916666 0.74999994
vt 0.7777778 0.60000134
vt 0.77777773 0.74999994
vt 0.76388884 0.6000012
vt 0.76388884 0.74999994
vt 0.7499999 0.6000012
vt 0.74999994 0.74999994
vt 0.73611104 0.6000012
vt 0.7361111 0.74999994
vt 0.7222222 0.6000013
vt 0.72222227 0.75
vt 0.70833343 0.60000134
vt 0.7083334 0.75
vt 0.6944445 0.60000134
vt 0.6944445 0.75
vt 0.6805556 0.60000134
vt 0.6805556 0.75
vt 0.6666666 0.6000013
vt 0.6666667 0.75
vt 0.6527778 0.60000134
vt 0.6527778 0.75
vt 0.63888884 0.6000013
vt 0.6388889 0.75
vt 0.625 0.6000012
vt 0.625 0.75
vt 0.125 0.6000013
vt 0.125 0.82110643
vt 0.13888888 0.8211063
vt 0.1388889 0.6000013
vt 0.125 0.5
vt 0.15277778 0.8211064
vt 0.1388889 0.5
vt 0.15277779 0.60000134
vt 0.16666666 0.8211063
vt 0.15277778 0.5
vt 0.16666667 0.6000013
vt 0.18055557 0.8211063
vt 0.16666667 0.5
vt 0.15277778 0.5
vt 0.16666667 0.5
vt 0.18055558 0.60000134
vt 0.19444443 0.8211063
vt 0.18055557 0.5
vt 0.19444445 0.60000134
vt 0.20833333 0.8211063
vt 0.19444445 0.5
vt 0.20833334 0.60000134
vt 0.22222224 0.82110643
vt 0.20833334 0.5
vt 0.19444445 0.5
vt 0.20833334 0.5
vt 0.22222224 0.6000013
vt 0.23611113 0.8211063
vt 0.22222222 0.5
vt 0.2361111 0.6000012
vt 0.25 0.8211063
vt 0.23611112 0.5
vt 0.25 0.6000012
vt 0.2638889 0.8211063
vt 0.25 0.5
vt 0.23611112 0.5
vt 0.25 0.5
vt 0.2638889 0.6000012
vt 0.2777778 0.8211063
vt 0.2638889 0.5
vt 0.2777778 0.60000134
vt 0.2916667 0.82110626
vt 0.2777778 0.5
vt 0.2916667 0.60000134
vt 0.30555555 0.82110626
vt 0.2916667 0.5
vt 0.2777778 0.5
vt 0.2916667 0.5
vt 0.30555558 0.60000134
vt 0.31944448 0.8211063
vt 0.30555555 0.5
vt 0.31944448 0.6000013
vt 0.33333337 0.8211064
vt 0.31944445 0.5
vt 0.33333337 0.60000134
vt 0.34722224 0.8211063
vt 0.33333334 0.5
vt 0.31944445 0.5
vt 0.33333334 0.5
vt 0.34722224 0.6000013
vt 0.3611111 0.8211064
vt 0.34722224 0.5
vt 0.3611111 0.6000013
vt 0.375 0.75
vt 0.375 0.6000012
vt 0.3611111 0.5
vt 0.375 0.5
vt 0.3611111 0.5
vt 0.375 0.5
vt 0.375 0.25
vt 0.625 0.2638889
vt 0.625 0.25
vt 0.375 0.2638889
vt 0.625 0.2777778
vt 0.375 0.2777778
vt 0.375 0.29166672
vt 0.625 0.30555558
vt 0.625 0.2916667
vt 0.375 0.3055556
vt 0.625 0.31944448
vt 0.37499997 0.31944448
vt 0.37499997 0.3333334
vt 0.625 0.34722227
vt 0.625 0.33333337
vt 0.37499997 0.34722227
vt 0.625 0.36111116
vt 0.37499997 0.36111116
vt 0.37499997 0.37500003
vt 0.625 0.38888896
vt 0.625 0.37500006
vt 0.37499997 0.38888893
vt 0.625 0.40277785
vt 0.375 0.40277782
vt 0.375 0.4166667
vt 0.625 0.4305556
vt 0.625 0.41666672
vt 0.375 0.43055555
vt 0.625 0.44444448
vt 0.375 0.44444448
vt 0.375 0.45833334
vt 0.625 0.4722222
vt 0.625 0.45833337
vt 0.375 0.47222224
vt 0.625 0.4861111
vt 0.375 0.4861111
vt 0.625 0.2638889
vt 0.625 0.25
vt 0.625 0.25
vt 0.625 0.2638889
vt 0.625 0.2777778
vt 0.625 0.2777778
vt 0.625 0.2638889
vt 0.625 0.2777778
vt 0.625 0.2916667
vt 0.625 0.2916667
vt 0.625 0.30555558
vt 0.625 0.30555558
vt 0.625 0.2916667
vt 0.625 0.30555558
vt 0.625 0.31944448
vt 0.625 0.31944448
vt 0.625 0.33333337
vt 0.625 0.33333337
vt 0.625 0.31944448
vt 0.625 0.33333337
vt 0.625 0.34722227
vt 0.625 0.34722227
vt 0.625 0.36111116
vt 0.625 0.36111116
vt 0.625 0.34722227
vt 0.625 0.36111116
vt 0.625 0.37500006
vt 0.625 0.37500006
vt 0.625 0.38888896
vt 0.625 0.38888896
vt 0.625 0.37500006
vt 0.625 0.38888896
vt 0.625 0.40277785
vt 0.625 0.40277785
vt 0.625 0.41666672
vt 0.625 0.41666672
vt 0.625 0.40277785
vt 0.625 0.41666672
vt 0.625 0.4305556
vt 0.625 0.4305556
vt 0.625 0.44444448
vt 0.625 0.44444448
vt 0.625 0.4305556
vt 0.625 0.44444448
vt 0.625 0.45833337
vt 0.625 0.45833337
vt 0.625 0.4722222
vt 0.625 0.4722222
vt 0.625 0.45833337
vt 0.625 0.4722222
vt 0.625 0.4861111
vt 0.625 0.4861111
vt 0.625 0.5
vt 0.625 0.5
vt 0.625 0.4861111
vt 0.625 0.5
vt 0.625 0.25
vt 0.625 0.25
vt 0.625 0.14999872
vt 0.625 0.14999872
vt 0.83333325 0.5
vt 0.8333333 0.60000134
vt 0.8472222 0.6000013
vt 0.84722215 0.5
vt 0.7499999 0.6000012
vt 0.7499999 0.6000012
vt 0.73611104 0.6000012
vt 0.73611104 0.6000012
vt 0.7499999 0.6000012
vt 0.76388884 0.6000012
vt 0.73611104 0.6000012
vt 0.76388884 0.6000012
vt 0.7222222 0.6000013
vt 0.7777778 0.60000134
vt 0.7222222 0.6000013
vt 0.7777778 0.60000134
vt 0.76388884 0.6000012
vt 0.7777778 0.60000134
vt 0.7916666 0.60000134
vt 0.7916666 0.60000134
vt 0.80555546 0.60000134
vt 0.80555546 0.60000134
vt 0.7916666 0.60000134
vt 0.80555546 0.60000134
vt 0.8194444 0.6000013
vt 0.8194444 0.6000013
vt 0.8333333 0.60000134
vt 0.8333333 0.60000134
vt 0.8194444 0.6000013
vt 0.8333333 0.60000134
vt 0.8472222 0.6000013
vt 0.8472222 0.6000013
vt 0.86111104 0.6000013
vt 0.86111104 0.6000013
vt 0.875 0.6000012
vt 0.875 0.6000012
vt 0.8472222 0.6000013
vt 0.86111104 0.6000013
vt 0.8055555 0.5
vt 0.80555546 0.60000134
vt 0.8194444 0.6000013
vt 0.8194444 0.5
vt 0.7916666 0.60000134
vt 0.7916666 0.60000134
vt 0.7916666 0.5
vt 0.7916666 0.5
vt 0.77777773 0.5
vt 0.7777778 0.60000134
vt 0.7916666 0.60000134
vt 0.7916666 0.5
vt 0.74999994 0.5
vt 0.7499999 0.6000012
vt 0.76388884 0.6000012
vt 0.76388884 0.5
vt 0.77777773 0.5
vt 0.77777773 0.5
vt 0.7777778 0.60000134
vt 0.7777778 0.60000134
vt 0.72222215 0.5
vt 0.7222222 0.6000013
vt 0.73611104 0.6000012
vt 0.73611104 0.5
vt 0.6944444 0.5
vt 0.6944445 0.60000134
vt 0.70833343 0.60000134
vt 0.7083333 0.5
vt 0.6666666 0.5
vt 0.6666666 0.6000013
vt 0.6805556 0.60000134
vt 0.6805555 0.5
vt 0.76388884 0.6000012
vt 0.76388884 0.6000012
vt 0.76388884 0.5
vt 0.76388884 0.5
vt 0.63888884 0.5
vt 0.63888884 0.6000013
vt 0.6527778 0.60000134
vt 0.65277773 0.5
vt 0.86111104 0.5
vt 0.86111104 0.6000013
vt 0.875 0.6000012
vt 0.875 0.5
vt 0.63888884 0.6000013
vt 0.625 0.6000012
vt 0.625 0.6000012
vt 0.63888884 0.6000013
vt 0.625 0.6000012
vt 0.63888884 0.6000013
vt 0.6527778 0.60000134
vt 0.6527778 0.60000134
vt 0.6666666 0.6000013
vt 0.6666666 0.6000013
vt 0.6527778 0.60000134
vt 0.6666666 0.6000013
vt 0.6805556 0.60000134
vt 0.6805556 0.60000134
vt 0.6944445 0.60000134
vt 0.6944445 0.60000134
vt 0.6805556 0.60000134
vt 0.6944445 0.60000134
vt 0.70833343 0.60000134
vt 0.70833343 0.60000134
vt 0.70833343 0.60000134
vt 0.7222222 0.6000013
vt 0.84722215 0.5
vt 0.8472222 0.6000013
vt 0.86111104 0.6000013
vt 0.86111104 0.5
vt 0.8194444 0.5
vt 0.8194444 0.6000013
vt 0.8333333 0.60000134
vt 0.83333325 0.5
vt 0.7916666 0.5
vt 0.7916666 0.60000134
vt 0.80555546 0.60000134
vt 0.8055555 0.5
vt 0.76388884 0.5
vt 0.76388884 0.6000012
vt 0.7777778 0.60000134
vt 0.77777773 0.5
vt 0.73611104 0.5
vt 0.73611104 0.6000012
vt 0.7499999 0.6000012
vt 0.74999994 0.5
vt 0.7083333 0.5
vt 0.70833343 0.60000134
vt 0.7222222 0.6000013
vt 0.72222215 0.5
vt 0.6805555 0.5
vt 0.6805556 0.60000134
vt 0.6944445 0.60000134
vt 0.6944444 0.5
vt 0.65277773 0.5
vt 0.6527778 0.60000134
vt 0.6666666 0.6000013
vt 0.6666666 0.5
vt 0.625 0.5
vt 0.625 0.6000012
vt 0.63888884 0.6000013
vt 0.63888884 0.5
vt 0.8055555 0.5
vt 0.8055555 0.5
vt 0.80555546 0.60000134
vt 0.80555546 0.60000134
vt 0.8194444 0.6000013
vt 0.8194444 0.6000013
vt 0.8194444 0.5
vt 0.8194444 0.5
vt 0.63888884 0.5
vt 0.63888884 0.5
vt 0.63888884 0.6000013
vt 0.63888884 0.6000013
vt 0.83333325 0.5
vt 0.83333325 0.5
vt 0.8333333 0.60000134
vt 0.8333333 0.60000134
vt 0.6527778 0.60000134
vt 0.6527778 0.60000134
vt 0.65277773 0.5
vt 0.65277773 0.5
vt 0.8472222 0.6000013
vt 0.8472222 0.6000013
vt 0.84722215 0.5
vt 0.84722215 0.5
vt 0.6666666 0.5
vt 0.6666666 0.5
vt 0.6666666 0.6000013
vt 0.6666666 0.6000013
vt 0.86111104 0.5
vt 0.86111104 0.5
vt 0.86111104 0.6000013
vt 0.86111104 0.6000013
vt 0.6805556 0.60000134
vt 0.6805556 0.60000134
vt 0.6805555 0.5
vt 0.6805555 0.5
vt 0.6944444 0.5
vt 0.6944444 0.5
vt 0.6944445 0.60000134
vt 0.6944445 0.60000134
vt 0.70833343 0.60000134
vt 0.70833343 0.60000134
vt 0.7083333 0.5
vt 0.7083333 0.5
vt 0.72222215 0.5
vt 0.72222215 0.5
vt 0.7222222 0.6000013
vt 0.7222222 0.6000013
vt 0.73611104 0.6000012
vt 0.73611104 0.6000012
vt 0.73611104 0.5
vt 0.73611104 0.5
vt 0.74999994 0.5
vt 0.74999994 0.5
vt 0.7499999 0.6000012
vt 0.7499999 0.6000012
vt 0.375 0.4861111
vt 0.375 0.5
vt 0.625 0.5
vt 0.625 0.4861111
vt 0.375 0.2777778
vt 0.375 0.29166672
vt 0.625 0.2916667
vt 0.625 0.2777778
vt 0.37499997 0.31944448
vt 0.37499997 0.3333334
vt 0.62499994 0.33333334
vt 0.625 0.31944448
vt 0.37499997 0.36111116
vt 0.37499997 0.37500003
vt 0.625 0.37500006
vt 0.62500006 0.36111116
vt 0.375 0.40277782
vt 0.375 0.4166667
vt 0.625 0.41666672
vt 0.625 0.40277785
vt 0.375 0.44444448
vt 0.375 0.45833334
vt 0.625 0.45833337
vt 0.625 0.44444448
vn 1 0 0
vn 1 0 0
vn 1 0 0
vn -1 0 0
vn -1 0 0
vn -1 0 0
vn 1 0 0
vn 1 0 0
vn 1 0 0
vn -1 0 0
vn -1 0 0
vn -1 0 0
vn 1 0 0
vn 1 0 0
vn 1 0 0
vn -1 0 0
vn -1 0 0
vn -1 0 0
vn 1 0 0
vn 1 0 0
vn 1 0 0
vn -1 0 0
vn -1 0 0
vn -1 0 0
vn 1 0 0
vn 1 0 0
vn 1 0 0
vn 1 0 0
vn 1 0 0
vn 1 0 0
vn -1 0 0
vn -1 0 0
vn -1 0 0
vn -1 0 0
vn -1 0 0
vn -1 0 0
vn -1 0 0
vn -1 0 0
vn -1 0 0
vn -1 0 0
vn -1 0 0
vn -1 0 0
vn 1 0 0
vn 1 0 0
vn 1 0 0
vn 1 0 0
vn 1 0 0
vn 1 0 0
vn 1 0 0
vn 1 0 0
vn 1 0 0
vn 1 0 0
vn -0 -0.99322367 0.11621836
vn -0 -0.99322367 0.11621836
vn -0 -0.99322367 0.11621836
vn -0 -0.99322367 0.11621836
vn -0 -0.99322367 0.11621831
vn -0 -0.99322367 0.11621831
vn -0 -0.99322367 0.116218284
vn -0 -0.99322367 0.116218284
vn -0 -0.99322367 0.11621831
vn -0 -0.99322367 0.11621831
vn -0 -0.99322367 0.11621831
vn -0 -0.99322367 0.11621831
vn -0 -0.99322367 0.11621831
vn -0 -0.99322367 0.11621831
vn -0 -0.99322367 0.11621828
vn -0 -0.99322367 0.11621828
vn -0 -0.99322367 0.11621828
vn -0 -0.99322367 0.11621828
vn -0 -0.99322367 0.11621828
vn -0 -0.99322367 0.11621828
vn -0 -0.99322367 0.1162183
vn -0 -0.99322367 0.1162183
vn -0 -0.99322367 0.11621828
vn -0 -0.99322367 0.11621828
vn -0 -0.99322367 0.11621831
vn -0 -0.99322367 0.11621831
vn -0 -0.99322367 0.11621835
vn -0 -0.99322367 0.11621835
vn -0 -0.99322367 0.11621825
vn -0 -0.99322367 0.11621825
vn -0 -0.99322367 0.11621839
vn -0 -0.99322367 0.11621839
vn -0 -0.99322367 0.11621825
vn -0 -0.99322367 0.11621825
vn -0 -0.99322367 0.11621828
vn -0 -0.99322367 0.11621828
vn -0 -0.99322367 0.11621828
vn -0 -0.99322367 0.11621828
vn -0 0 1
vn -0 0 1
vn -0 0 1
vn -0 0 1
vn -0 0 1
vn -0 0 1
vn -0 0 1
vn -0 0 1
vn -0 0 1
vn -0 0 1
vn -0 0 1
vn -0 0 1
vn -0 0 1
vn -0 0 1
vn -0 0 1
vn -0 0 1
vn -0 0 1
vn -0 0 1
vn -0 0 1
vn -0 0 1
vn -0 0 1
vn -0 0 1
vn -0 0 1
vn -0 0 1
vn -0 0 1
vn -0 0 1
vn -0 0 1
vn -0 0 1
vn -0 0 1
vn -0 0 1
vn -0 0 1
vn -0 0 1
vn -0 0 1
vn -0 0 1
vn -0 0 1
vn -0 0 1
vn -0 0 1
vn -0 0 1
vn -0 0 -1
vn -0 0 -1
vn -0 0 -1
vn -0 0 -1
vn -0 0 -1
vn -0 0 -1
vn -0 0 -1
vn -0 0 -1
vn -0 0 -1
vn -0 0 -1
vn -0 0 -1
vn -0 0 -1
vn -0 0 -1
vn -0 0 -1
vn -0 0 -1
vn -0 0 -1
vn -0 0 -1
vn -0 0 -1
vn -0 0 -1
vn -0 0 -1
vn -0 0 -1
vn -0 0 -1
vn -0 0 -1
vn -0 0 -1
vn -0 0 -1
vn -0 0 -1
vn -0 0 -1
vn -0 0 -1
vn -0 0 -1
vn -0 0 -1
vn -0 0 -1
vn -0 0 -1
vn -0 0 -1
vn -0 0 -1
vn -0 0 -1
vn -0 0 -1
vn -0 0 -1
vn -0 0 -1
vn -0 0 -1
vn -0 0 -1
vn -0 0 -1
vn -0 0 -1
vn -0 0 -1
vn -0 0 -1
vn -0 0 -1
vn -0 0 -1
vn -0 0 -1
vn -0 0 -1
vn -0 0 -1
vn -0 0 -1
vn -0 0 -1
vn -0 0 -1
vn -0 0 -1
vn -0 0 -1
vn -0 0 -1
vn -0 0 -1
vn -0 0 -1
vn -0 0 -1
vn -0 0 -1
vn -0 0 -1
vn -0 0 -1
vn -0 0 -1
vn -0 0 -1
vn -0 0 -1
vn -0 0 -1
vn -0 0 -1
vn -0 0 -1
vn -0 0 -1
vn -0 0 -1
vn -0 1 0
vn -0 1 0
vn -0 1 0
vn -0 1 0
vn -0 1 0
vn -0 1 0
vn -0 1 0
vn -0 1 0
vn -0 1 0
vn -0 1 0
vn -0 1 0
vn -0 1 0
vn -0 1 0
vn -0 1 0
vn -0 1 0
vn -0 1 0
vn -0 1 0
vn -0 1 0
vn -0 1 0
vn -0 1 0
vn -0 1 0
vn -0 1 0
vn -0 1 0
vn -0 1 0
vn -0 1 0
vn -0 1 0
vn -0 1 0
vn -0 1 0
vn -0 1 0
vn -0 1 0
vn -0 1 0
vn -0 1 0
vn -0 1 0
vn -0 1 0
vn -0 1 0
vn -0 1 0
vn -0 1 0
vn -0 1 0
vn -0 1 0
vn -0 1 0
vn -0 1 0
vn -0 1 0
vn -0 1 0
vn -0 1 0
vn -0 1 0
vn -0 1 0
vn -0 1 0
vn -0 1 0
vn -0 1 0
vn -0 1 0
vn -0 1 0
vn -0 1 0
vn -0 1 0
vn -0 1 0
vn -0 1 0
vn -0 1 0
vn -0 1 0
vn -0 1 0
vn -0 1 0
vn -0 1 0
vn -0 1 0
vn -0 1 0
vn -0 1 0
vn -0 1 0
vn -0 1 0
vn -0 1 0
vn -0 1 0
vn -0 1 0
vn -0 1 0
vn -0 1 0
vn -0 1 0
vn -0 1 0
vn -0 1 0
vn -0 1 0
vn -0 1 0
vn -0 1 0
vn -0 1 0
vn -0 1 0
vn -0 1 0
vn -0 1 0
vn -0 1 0
vn -0 1 0
vn -0 1 0
vn -0 1 0
vn -0 1 0
vn -0 1 0
vn -0 1 0
vn -0 1 0
vn -0 1 0
vn -0 1 0
vn -0 1 0
vn -0 1 0
vn -1 0 0
vn -1 0 0
vn -1 0 0
vn -1 0 0
vn -0 0 1
vn -0 0 1
vn -0 0 1
vn -0 0 1
vn -0 -1 0
vn -0 -1 0
vn -0 -1 0
vn -0 -1 0
vn -0 -1 0
vn -0 -1 0
vn -0 -1 0
vn -0 -1 0
vn -0 -1 0
vn -0 -1 0
vn -0 -1 0
vn -0 -1 0
vn -0 -1 0
vn -0 -1 0
vn -0 -1 0
vn -0 -1 0
vn -0 -1 0
vn -0 -1 0
vn -0 -1 0
vn -0 -1 0
vn -0 -1 0
vn -0 -1 0
vn -0 -1 0
vn -0 -1 0
vn -0 -1 0
vn -0 -1 0
vn -0 -1 0
vn -0 -1 0
vn -0 -1 0
vn -0 -1 0
vn -0 -1 0
vn -0 -1 0
vn -0 -1 0
vn -0 -1 0
vn -0 0 1
vn -0 0 1
vn -0 0 1
vn -0 0 1
vn 1 0 0
vn 1 0 0
vn 1 0 0
vn 1 0 0
vn -0 0 1
vn -0 0 1
vn -0 0 1
vn -0 0 1
vn -0 0 1
vn -0 0 1
vn -0 0 1
vn -0 0 1
vn -1 0 0
vn -1 0 0
vn -1 0 0
vn -1 0 0
vn -0 0 1
vn -0 0 1
vn -0 0 1
vn -0 0 1
vn -0 0 1
vn -0 0 1
vn -0 0 1
vn -0 0 1
vn -0 0 1
vn -0 0 1
vn -0 0 1
vn -0 0 1
vn 1 0 0
vn 1 0 0
vn 1 0 0
vn 1 0 0
vn -0 0 1
vn -0 0 1
vn -0 0 1
vn -0 0 1
vn -0 0 1
vn -0 0 1
vn -0 0 1
vn -0 0 1
vn -0 -1 0
vn -0 -1 0
vn -0 -1 0
vn -0 -1 0
vn -0 -1 0
vn -0 -1 0
vn -0 -1 0
vn -0 -1 0
vn -0 -1 0
vn -0 -1 0
vn -0 -1 0
vn -0 -1 0
vn -0 -1 0
vn -0 -1 0
vn -0 -1 0
vn -0 -1 0
vn -0 -1 0
vn -0 -1 0
vn -0 -1 0
vn -0 -1 0
vn -0 -1 0
vn -0 -1 0
vn -0 0 1
vn -0 0 1
vn -0 0 1
vn -0 0 1
vn -0 0 1
vn -0 0 1
vn -0 0 1
vn -0 0 1
vn -0 0 1
vn -0 0 1
vn -0 0 1
vn -0 0 1
vn -0 0 1
vn -0 0 1
vn -0 0 1
vn -0 0 1
vn -0 0 1
vn -0 0 1
vn -0 0 1
vn -0 0 1
vn -0 0 1
vn -0 0 1
vn -0 0 1
vn -0 0 1
vn -0 0 1
vn -0 0 1
vn -0 0 1
vn -0 0 1
vn -0 0 1
vn -0 0 1
vn -0 0 1
vn -0 0 1
vn -0 0 1
vn -0 0 1
vn -0 0 1
vn -0 0 1
vn -1 0 0
vn -1 0 0
vn -1 0 0
vn -1 0 0
vn 1 0 0
vn 1 0 0
vn 1 0 0
vn 1 0 0
vn -1 0 0
vn -1 0 0
vn -1 0 0
vn -1 0 0
vn -1 0 0
vn -1 0 0
vn -1 0 0
vn -1 0 0
vn 1 0 0
vn 1 0 0
vn 1 0 0
vn 1 0 0
vn 1 0 0
vn 1 0 0
vn 1 0 0
vn 1 0 0
vn -1 0 0
vn -1 0 0
vn -1 0 0
vn -1 0 0
vn -1 0 0
vn -1 0 0
vn -1 0 0
vn -1 0 0
vn 1 0 0
vn 1 0 0
vn 1 0 0
vn 1 0 0
vn -1 0 0
vn -1 0 0
vn -1 0 0
vn -1 0 0
vn 1 0 0
vn 1 0 0
vn 1 0 0
vn 1 0 0
vn -1 0 0
vn -1 0 0
vn -1 0 0
vn -1 0 0
vn 1 0 0
vn 1 0 0
vn 1 0 0
vn 1 0 0
vn -1 0 0
vn -1 0 0
vn -1 0 0
vn -1 0 0
vn -0 0.9959609 0.08978832
vn -0 0.9959609 0.08978832
vn -0 0.9959609 0.08978832
vn -0 0.9959609 0.08978832
vn -0 0.9959609 0.08978835
vn -0 0.9959609 0.08978835
vn -0 0.9959609 0.08978835
vn -0 0.9959609 0.08978835
vn -0 0.9959609 0.08978835
vn -0 0.9959609 0.08978835
vn -0 0.9959609 0.08978835
vn -0 0.9959609 0.08978835
vn -0 0.9959609 0.08978834
vn -0 0.9959609 0.08978834
vn -0 0.9959609 0.08978834
vn -0 0.9959609 0.08978834
vn -0 0.9959609 0.0897883
vn -0 0.9959609 0.0897883
vn -0 0.9959609 0.0897883
vn -0 0.9959609 0.0897883
vn -0 0.9959609 0.089788295
vn -0 0.9959609 0.089788295
vn -0 0.9959609 0.089788295
vn -0 0.9959609 0.089788295
g Wall Segment lvl2 Final_0
f 3/3/3 2/2/2 1/1/1
f 6/6/6 5/5/5 4/4/4
f 9/9/9 8/8/8 7/7/7
f 12/12/12 11/11/11 10/10/10
f 15/15/15 14/14/14 13/13/13
f 18/18/18 17/17/17 16/16/16
f 21/21/21 20/20/20 19/19/19
f 24/24/24 23/23/23 22/22/22
f 27/27/27 26/26/26 25/25/25
f 30/30/30 29/29/29 28/28/28
f 33/33/33 32/32/32 31/31/31
f 36/36/36 35/35/35 34/34/34
f 39/39/39 38/38/38 37/37/37
f 40/40/40 39/39/39 37/37/37
f 40/40/40 37/37/37 41/41/41
f 42/42/42 40/40/40 41/41/41
f 45/45/45 44/44/44 43/43/43
f 46/46/46 45/45/45 43/43/43
f 46/46/46 43/43/43 47/47/47
f 48/48/48 46/46/46 47/47/47
f 48/48/48 49/49/49 46/46/46
f 49/49/49 50/50/50 46/46/46
f 49/49/49 51/51/51 50/50/50
f 51/51/51 52/52/52 50/50/50
f 55/55/55 54/54/54 53/53/53
f 56/56/56 55/55/55 53/53/53
f 56/56/56 53/53/53 57/57/57
f 58/58/58 56/56/56 57/57/57
f 58/58/58 57/57/57 59/59/59
f 60/60/60 58/58/58 59/59/59
f 60/60/60 59/59/59 61/61/61
f 62/62/62 60/60/60 61/61/61
f 62/62/62 61/61/61 63/63/63
f 64/64/64 62/62/62 63/63/63
f 64/64/64 63/63/63 65/65/65
f 66/66/66 64/64/64 65/65/65
f 66/66/66 65/65/65 67/67/67
f 68/68/68 66/66/66 67/67/67
f 68/68/68 67/67/67 69/69/69
f 70/70/70 68/68/68 69/69/69
f 70/70/70 69/69/69 71/71/71
f 72/72/72 70/70/70 71/71/71
f 72/72/72 71/71/71 73/73/73
f 74/74/74 72/72/72 73/73/73
f 74/74/74 73/73/73 75/75/75
f 76/76/76 74/74/74 75/75/75
f 76/76/76 75/75/75 77/77/77
f 78/78/78 76/76/76 77/77/77
f 78/78/78 77/77/77 79/79/79
f 80/80/80 78/78/78 79/79/79
f 80/80/80 79/79/79 81/81/81
f 82/82/82 80/80/80 81/81/81
f 82/82/82 81/81/81 83/83/83
f 84/84/84 82/82/82 83/83/83
f 84/84/84 83/83/83 85/85/85
f 86/86/86 84/84/84 85/85/85
f 86/86/86 85/85/85 87/87/87
f 88/88/88 86/86/86 87/87/87
f 88/88/88 87/87/87 89/89/89
f 90/90/90 88/88/88 89/89/89
f 93/93/93 92/92/92 91/91/91
f 92/92/92 94/94/94 91/91/91
f 91/91/91 94/94/94 95/95/95
f 94/94/94 96/96/96 95/95/95
f 95/95/95 96/96/96 97/97/97
f 96/96/96 98/98/98 97/97/97
f 97/97/97 98/98/98 99/99/99
f 98/98/98 100/100/100 99/99/99
f 99/99/99 100/100/100 101/101/101
f 100/100/100 102/102/102 101/101/101
f 101/101/101 102/102/102 103/103/103
f 102/102/102 104/104/104 103/103/103
f 103/103/103 104/104/104 105/105/105
f 104/104/104 106/106/106 105/105/105
f 105/105/105 106/106/106 107/107/107
f 106/106/106 108/108/108 107/107/107
f 107/107/107 108/108/108 109/109/109
f 108/108/108 110/110/110 109/109/109
f 109/109/109 110/110/110 111/111/111
f 110/110/110 112/112/112 111/111/111
f 111/111/111 112/112/112 113/113/113
f 112/112/112 114/114/114 113/113/113
f 113/113/113 114/114/114 115/115/115
f 114/114/114 116/116/116 115/115/115
f 115/115/115 116/116/116 117/117/117
f 116/116/116 118/118/118 117/117/117
f 117/117/117 118/118/118 119/119/119
f 118/118/118 120/120/120 119/119/119
f 119/119/119 120/120/120 121/121/121
f 120/120/120 122/122/122 121/121/121
f 121/121/121 122/122/122 123/123/123
f 122/122/122 124/124/124 123/123/123
f 123/123/123 124/124/124 125/125/125
f 124/124/124 126/126/126 125/125/125
f 125/125/125 126/126/126 127/127/127
f 126/126/126 128/128/128 127/127/127
f 131/131/131 130/130/130 129/129/129
f 132/132/132 131/131/131 129/129/129
f 132/132/132 129/129/129 133/133/133
f 134/134/134 131/131/131 132/132/132
f 135/135/135 132/132/132 133/133/133
f 136/136/136 134/134/134 132/132/132
f 136/136/136 132/132/132 135/135/135
f 137/137/137 134/134/134 136/136/136
f 138/138/138 136/136/136 135/135/135
f 139/139/139 137/137/137 136/136/136
f 139/139/139 136/136/136 138/138/138
f 140/140/140 137/137/137 139/139/139
f 141/141/141 139/139/139 138/138/138
f 138/138/138 142/142/142 141/141/141
f 142/142/142 143/143/143 141/141/141
f 144/144/144 140/140/140 139/139/139
f 144/144/144 139/139/139 141/141/141
f 145/145/145 140/140/140 144/144/144
f 146/146/146 144/144/144 141/141/141
f 147/147/147 145/145/145 144/144/144
f 147/147/147 144/144/144 146/146/146
f 148/148/148 145/145/145 147/147/147
f 149/149/149 147/147/147 146/146/146
f 150/150/150 148/148/148 147/147/147
f 150/150/150 147/147/147 149/149/149
f 151/151/151 148/148/148 150/150/150
f 152/152/152 150/150/150 149/149/149
f 149/149/149 153/153/153 152/152/152
f 153/153/153 154/154/154 152/152/152
f 155/155/155 151/151/151 150/150/150
f 155/155/155 150/150/150 152/152/152
f 156/156/156 151/151/151 155/155/155
f 157/157/157 155/155/155 152/152/152
f 158/158/158 156/156/156 155/155/155
f 158/158/158 155/155/155 157/157/157
f 159/159/159 156/156/156 158/158/158
f 160/160/160 158/158/158 157/157/157
f 161/161/161 159/159/159 158/158/158
f 161/161/161 158/158/158 160/160/160
f 162/162/162 159/159/159 161/161/161
f 163/163/163 161/161/161 160/160/160
f 160/160/160 164/164/164 163/163/163
f 164/164/164 165/165/165 163/163/163
f 166/166/166 162/162/162 161/161/161
f 166/166/166 161/161/161 163/163/163
f 167/167/167 162/162/162 166/166/166
f 168/168/168 166/166/166 163/163/163
f 169/169/169 167/167/167 166/166/166
f 169/169/169 166/166/166 168/168/168
f 170/170/170 167/167/167 169/169/169
f 171/171/171 169/169/169 168/168/168
f 172/172/172 170/170/170 169/169/169
f 172/172/172 169/169/169 171/171/171
f 173/173/173 170/170/170 172/172/172
f 174/174/174 172/172/172 171/171/171
f 171/171/171 175/175/175 174/174/174
f 175/175/175 176/176/176 174/174/174
f 177/177/177 173/173/173 172/172/172
f 177/177/177 172/172/172 174/174/174
f 178/178/178 173/173/173 177/177/177
f 179/179/179 177/177/177 174/174/174
f 180/180/180 178/178/178 177/177/177
f 180/180/180 177/177/177 179/179/179
f 181/181/181 178/178/178 180/180/180
f 182/182/182 180/180/180 179/179/179
f 183/183/183 181/181/181 180/180/180
f 183/183/183 180/180/180 182/182/182
f 184/184/184 181/181/181 183/183/183
f 185/185/185 183/183/183 182/182/182
f 182/182/182 186/186/186 185/185/185
f 186/186/186 187/187/187 185/185/185
f 188/188/188 184/184/184 183/183/183
f 188/188/188 183/183/183 185/185/185
f 189/189/189 184/184/184 188/188/188
f 190/190/190 188/188/188 185/185/185
f 191/191/191 189/189/189 188/188/188
f 191/191/191 188/188/188 190/190/190
f 192/192/192 189/189/189 191/191/191
f 193/193/193 192/192/192 191/191/191
f 194/194/194 191/191/191 190/190/190
f 193/193/193 191/191/191 194/194/194
f 195/195/195 193/193/193 194/194/194
f 194/194/194 196/196/196 195/195/195
f 196/196/196 197/197/197 195/195/195
f 200/200/200 199/199/199 198/198/198
f 199/199/199 201/201/201 198/198/198
f 199/199/199 202/202/202 201/201/201
f 202/202/202 203/203/203 201/201/201
f 206/206/206 205/205/205 204/204/204
f 205/205/205 207/207/207 204/204/204
f 205/205/205 208/208/208 207/207/207
f 208/208/208 209/209/209 207/207/207
f 212/212/212 211/211/211 210/210/210
f 211/211/211 213/213/213 210/210/210
f 211/211/211 214/214/214 213/213/213
f 214/214/214 215/215/215 213/213/213
f 218/218/218 217/217/217 216/216/216
f 217/217/217 219/219/219 216/216/216
f 217/217/217 220/220/220 219/219/219
f 220/220/220 221/221/221 219/219/219
f 224/224/224 223/223/223 222/222/222
f 223/223/223 225/225/225 222/222/222
f 223/223/223 226/226/226 225/225/225
f 226/226/226 227/227/227 225/225/225
f 230/230/230 229/229/229 228/228/228
f 229/229/229 231/231/231 228/228/228
f 229/229/229 232/232/232 231/231/231
f 232/232/232 233/233/233 231/231/231
f 236/236/236 235/235/235 234/234/234
f 235/235/235 237/237/237 234/234/234
f 234/234/234 237/237/237 238/238/238
f 237/237/237 239/239/239 238/238/238
f 237/237/237 240/240/240 239/239/239
f 240/240/240 241/241/241 239/239/239
f 238/238/238 239/239/239 242/242/242
f 239/239/239 243/243/243 242/242/242
f 242/242/242 243/243/243 244/244/244
f 243/243/243 245/245/245 244/244/244
f 243/243/243 246/246/246 245/245/245
f 246/246/246 247/247/247 245/245/245
f 244/244/244 245/245/245 248/248/248
f 245/245/245 249/249/249 248/248/248
f 248/248/248 249/249/249 250/250/250
f 249/249/249 251/251/251 250/250/250
f 249/249/249 252/252/252 251/251/251
f 252/252/252 253/253/253 251/251/251
f 250/250/250 251/251/251 254/254/254
f 251/251/251 255/255/255 254/254/254
f 254/254/254 255/255/255 256/256/256
f 255/255/255 257/257/257 256/256/256
f 255/255/255 258/258/258 257/257/257
f 258/258/258 259/259/259 257/257/257
f 256/256/256 257/257/257 260/260/260
f 257/257/257 261/261/261 260/260/260
f 260/260/260 261/261/261 262/262/262
f 261/261/261 263/263/263 262/262/262
f 261/261/261 264/264/264 263/263/263
f 264/264/264 265/265/265 263/263/263
f 262/262/262 263/263/263 266/266/266
f 263/263/263 267/267/267 266/266/266
f 266/266/266 267/267/267 268/268/268
f 267/267/267 269/269/269 268/268/268
f 267/267/267 270/270/270 269/269/269
f 270/270/270 271/271/271 269/269/269
f 268/268/268 269/269/269 272/272/272
f 269/269/269 273/273/273 272/272/272
f 272/272/272 273/273/273 274/274/274
f 273/273/273 275/275/275 274/274/274
f 273/273/273 276/276/276 275/275/275
f 276/276/276 277/277/277 275/275/275
f 274/274/274 275/275/275 278/278/278
f 275/275/275 279/279/279 278/278/278
f 278/278/278 279/279/279 280/280/280
f 279/279/279 281/281/281 280/280/280
f 279/279/279 282/282/282 281/281/281
f 282/282/282 283/283/283 281/281/281
f 280/280/280 281/281/281 284/284/284
f 281/281/281 285/285/285 284/284/284
f 284/284/284 285/285/285 286/286/286
f 285/285/285 287/287/287 286/286/286
f 285/285/285 288/288/288 287/287/287
f 288/288/288 289/289/289 287/287/287
f 292/292/292 291/291/291 290/290/290
f 293/293/293 292/292/292 290/290/290
f 296/296/296 295/295/295 294/294/294
f 297/297/297 296/296/296 294/294/294
f 300/300/300 299/299/299 298/298/298
f 301/301/301 300/300/300 298/298/298
f 301/301/301 298/298/298 302/302/302
f 302/302/302 298/298/298 303/303/303
f 304/304/304 301/301/301 302/302/302
f 298/298/298 305/305/305 303/303/303
f 306/306/306 301/301/301 304/304/304
f 303/303/303 305/305/305 307/307/307
f 308/308/308 306/306/306 304/304/304
f 305/305/305 309/309/309 307/307/307
f 305/305/305 310/310/310 309/309/309
f 310/310/310 311/311/311 309/309/309
f 307/307/307 309/309/309 312/312/312
f 309/309/309 313/313/313 312/312/312
f 312/312/312 313/313/313 314/314/314
f 313/313/313 315/315/315 314/314/314
f 313/313/313 316/316/316 315/315/315
f 316/316/316 317/317/317 315/315/315
f 314/314/314 315/315/315 318/318/318
f 315/315/315 319/319/319 318/318/318
f 318/318/318 319/319/319 320/320/320
f 319/319/319 321/321/321 320/320/320
f 319/319/319 322/322/322 321/321/321
f 322/322/322 323/323/323 321/321/321
f 320/320/320 321/321/321 324/324/324
f 321/321/321 325/325/325 324/324/324
f 324/324/324 325/325/325 326/326/326
f 325/325/325 327/327/327 326/326/326
f 326/326/326 327/327/327 328/328/328
f 327/327/327 329/329/329 328/328/328
f 325/325/325 330/330/330 327/327/327
f 330/330/330 331/331/331 327/327/327
f 334/334/334 333/333/333 332/332/332
f 335/335/335 334/334/334 332/332/332
f 338/338/338 337/337/337 336/336/336
f 339/339/339 338/338/338 336/336/336
f 342/342/342 341/341/341 340/340/340
f 343/343/343 342/342/342 340/340/340
f 346/346/346 345/345/345 344/344/344
f 347/347/347 346/346/346 344/344/344
f 350/350/350 349/349/349 348/348/348
f 351/351/351 350/350/350 348/348/348
f 354/354/354 353/353/353 352/352/352
f 355/355/355 354/354/354 352/352/352
f 358/358/358 357/357/357 356/356/356
f 359/359/359 358/358/358 356/356/356
f 362/362/362 361/361/361 360/360/360
f 363/363/363 362/362/362 360/360/360
f 366/366/366 365/365/365 364/364/364
f 367/367/367 366/366/366 364/364/364
f 370/370/370 369/369/369 368/368/368
f 371/371/371 370/370/370 368/368/368
f 374/374/374 373/373/373 372/372/372
f 375/375/375 374/374/374 372/372/372
f 378/378/378 377/377/377 376/376/376
f 377/377/377 379/379/379 376/376/376
f 377/377/377 380/380/380 379/379/379
f 380/380/380 381/381/381 379/379/379
f 376/376/376 379/379/379 382/382/382
f 379/379/379 383/383/383 382/382/382
f 382/382/382 383/383/383 384/384/384
f 383/383/383 385/385/385 384/384/384
f 383/383/383 386/386/386 385/385/385
f 386/386/386 387/387/387 385/385/385
f 384/384/384 385/385/385 388/388/388
f 385/385/385 389/389/389 388/388/388
f 388/388/388 389/389/389 390/390/390
f 389/389/389 391/391/391 390/390/390
f 389/389/389 392/392/392 391/391/391
f 392/392/392 393/393/393 391/391/391
f 390/390/390 391/391/391 394/394/394
f 391/391/391 395/395/395 394/394/394
f 394/394/394 395/395/395 308/308/308
f 395/395/395 306/306/306 308/308/308
f 395/395/395 396/396/396 306/306/306
f 396/396/396 397/397/397 306/306/306
f 400/400/400 399/399/399 398/398/398
f 401/401/401 400/400/400 398/398/398
f 404/404/404 403/403/403 402/402/402
f 405/405/405 404/404/404 402/402/402
f 408/408/408 407/407/407 406/406/406
f 409/409/409 408/408/408 406/406/406
f 412/412/412 411/411/411 410/410/410
f 413/413/413 412/412/412 410/410/410
f 416/416/416 415/415/415 414/414/414
f 417/417/417 416/416/416 414/414/414
f 420/420/420 419/419/419 418/418/418
f 421/421/421 420/420/420 418/418/418
f 424/424/424 423/423/423 422/422/422
f 425/425/425 424/424/424 422/422/422
f 428/428/428 427/427/427 426/426/426
f 429/429/429 428/428/428 426/426/426
f 432/432/432 431/431/431 430/430/430
f 433/433/433 432/432/432 430/430/430
f 436/436/436 435/435/435 434/434/434
f 437/437/437 436/436/436 434/434/434
f 440/440/440 439/439/439 438/438/438
f 441/441/441 440/440/440 438/438/438
f 444/444/444 443/443/443 442/442/442
f 445/445/445 444/444/444 442/442/442
f 448/448/448 447/447/447 446/446/446
f 449/449/449 448/448/448 446/446/446
f 452/452/452 451/451/451 450/450/450
f 453/453/453 452/452/452 450/450/450
f 456/456/456 455/455/455 454/454/454
f 457/457/457 456/456/456 454/454/454
f 460/460/460 459/459/459 458/458/458
f 461/461/461 460/460/460 458/458/458
f 464/464/464 463/463/463 462/462/462
f 465/465/465 464/464/464 462/462/462
f 468/468/468 467/467/467 466/466/466
f 469/469/469 468/468/468 466/466/466
f 472/472/472 471/471/471 470/470/470
f 473/473/473 472/472/472 470/470/470
f 476/476/476 475/475/475 474/474/474
f 477/477/477 476/476/476 474/474/474
f 480/480/480 479/479/479 478/478/478
f 481/481/481 480/480/480 478/478/478
f 484/484/484 483/483/483 482/482/482
f 485/485/485 484/484/484 482/482/482
f 488/488/488 487/487/487 486/486/486
f 489/489/489 488/488/488 486/486/486
f 492/492/492 491/491/491 490/490/490
f 493/493/493 492/492/492 490/490/490
f 496/496/496 495/495/495 494/494/494
f 497/497/497 496/496/496 494/494/494
f 500/500/500 499/499/499 498/498/498
f 501/501/501 500/500/500 498/498/498
f 504/504/504 503/503/503 502/502/502
f 505/505/505 504/504/504 502/502/502
f 508/508/508 507/507/507 506/506/506
f 509/509/509 508/508/508 506/506/506
f 512/512/512 511/511/511 510/510/510
f 513/513/513 512/512/512 510/510/510
