g Windboat
v 0.59478736 4.335869 0.6436759
v 1.6021829 -0.47215706 0.3101341
v 2.3557215 4.758594 -0.0485009
v 2.46133 4.760372 0.1744919
v 1.7007205 -0.47393322 0.5359169
v 0.67248666 4.3358665 0.863443
v -0.57472587 4.3145957 0.67478955
v -2.3053293 4.758488 -0.07573972
v -1.5671122 -0.4720965 0.31294936
v -2.4197898 4.760478 0.1428335
v -0.6587512 4.3145027 0.8895728
v -1.6741723 -0.47399372 0.53475314
v 0.5947874 2.726061 -0.14475116
v 1.602183 -2.0819647 -0.478293
v 2.3557215 3.148786 -0.836928
v 2.46133 3.1505647 -0.61393523
v 1.7007207 -2.083741 -0.2525103
v 0.67248666 2.726059 0.07501589
v -0.57472575 2.7047877 -0.11363748
v -2.3053293 3.1486802 -0.86416686
v -1.5671124 -2.0819044 -0.4754778
v -2.41979 3.1506705 -0.6455936
v -0.65875113 2.704695 0.10114573
v -1.6741722 -2.0838015 -0.25367394
v -6.321062E-07 -0.34938526 2.083868
v 1.2640591 -2.5701745 1.2640588
v -0 -2.5701745 1.7876494
v 1.4735167 -0.3493855 1.4735171
v 1.7876495 -2.5701745 -2.0251309E-07
v 2.0838675 -0.3493855 -1.7778156E-07
v 1.2640591 -2.5701745 -1.2640594
v 1.4735167 -0.3493855 -1.4735175
v -0 -2.5701745 -1.7876499
v -6.321062E-07 -0.3493855 -2.0838685
v -1.2640591 -2.5701745 -1.2640594
v -1.4735179 -0.3493855 -1.4735175
v -1.7876495 -2.5701745 -2.0251309E-07
v -2.0838687 -0.3493855 -1.7778156E-07
v -1.2640591 -2.5701745 1.2640588
v -1.4735179 -0.3493855 1.4735171
v -0 -2.5701745 1.7876494
v -6.321062E-07 -0.34938526 2.083868
v -1.2640591 2.2140436 1.2640591
v -8.210765E-07 4.6104364 1.1251295
v -0 2.2140436 1.7876494
v -0.79558754 4.6104364 0.79558676
v 3.235939E-07 6.7930856 0.12980145
v -1.7876495 2.2140436 -9.59609E-08
v -0.091783196 6.7930856 0.091783494
v -1.1251303 4.6104364 -6.039688E-08
v -1.2640591 2.2140436 -1.2640593
v -0.12980115 6.7930856 -4.9581814E-08
v -0.79558754 4.6104364 -0.7955869
v -0 2.2140436 -1.7876499
v -0.091783196 6.7930856 -0.09178358
v -8.210765E-07 4.6104364 -1.1251297
v 1.2640591 2.2140436 -1.2640593
v 3.235939E-07 6.7930856 -0.12980157
v 0.7955858 4.6104364 -0.7955869
v 1.7876495 2.2140436 -9.59609E-08
v 0.09178385 6.7930856 -0.09178358
v 1.1251286 4.6104364 -6.039688E-08
v 1.2640591 2.2140436 1.2640591
v 0.12980181 6.7930856 -4.9581814E-08
v 0.7955858 4.6104364 0.79558676
v -0 2.2140436 1.7876494
v 0.09178385 6.7930856 0.091783494
v -8.210765E-07 4.6104364 1.1251295
v 3.235939E-07 6.7930856 0.12980145
v 0.664193 -4.942373 0.66418743
v 6.2113395E-06 -5.134535 1.0292293
v 5.4233988E-06 -4.942373 0.9393031
v 0.7277811 -5.134535 0.7277748
v 0.9393084 -4.942373 -3.1873178E-08
v 1.0292354 -5.134535 -1.4004343E-08
v 0.664193 -4.942373 -0.6641876
v 0.7277811 -5.134535 -0.727775
v 5.4233988E-06 -4.942373 -0.93930316
v 6.2113395E-06 -5.134535 -1.0292293
v -0.6641822 -4.942373 -0.6641876
v -0.7277688 -5.134535 -0.727775
v -0.9392975 -4.942373 -3.1873178E-08
v -1.0292228 -5.134535 -1.4004343E-08
v -0.6641822 -4.942373 0.66418743
v -0.7277688 -5.134535 0.7277748
v 5.4233988E-06 -4.942373 0.9393031
v 6.2113395E-06 -5.134535 1.0292293
v -1.2812403 2.0318785 1.2812403
v -5.1849867E-08 2.0318785 1.8119473
v -6.808691E-07 -0.1780658 2.1067193
v -1.4896762 -0.17806609 1.4896754
v -1.8119476 2.0318785 -1.0204646E-07
v -2.1067202 -0.17806609 -1.7587368E-07
v -1.2812403 2.0318785 -1.2812406
v -1.4896762 -0.17806609 -1.4896759
v -5.1849838E-08 2.0318785 -1.8119478
v -6.808691E-07 -0.17806609 -2.10672
v 1.2812402 2.0318785 -1.2812406
v 1.4896749 -0.17806609 -1.4896759
v 1.8119473 2.0318785 -1.0204645E-07
v 2.1067188 -0.17806609 -1.7587368E-07
v 1.2812402 2.0318785 1.2812403
v 1.4896749 -0.17806609 1.4896754
v -5.1849867E-08 2.0318785 1.8119473
v -6.808691E-07 -0.1780658 2.1067193
v -0.091783196 6.7930856 -0.09178358
v 3.235939E-07 6.7930856 -0.12980157
v 0.09178385 6.7930856 -0.09178358
v -0.12980115 6.7930856 -4.9581814E-08
v 0.12980181 6.7930856 -4.9581814E-08
v -0.091783196 6.7930856 0.091783494
v 0.09178385 6.7930856 0.091783494
v 3.235939E-07 6.7930856 0.12980145
v 0.39045733 -3.8922796 -0.39045078
v 6.721897E-06 -3.8922796 -0.5521806
v -0.39044392 -3.8922796 -0.39045078
v 0.5521872 -3.8922796 -7.8285495E-08
v -0.55217385 -3.8922796 -7.8285495E-08
v 0.39045733 -3.8922796 0.3904505
v -0.39044392 -3.8922796 0.3904505
v 6.721897E-06 -3.8922796 0.5521805
v 8.19337E-06 -5.2922926 0.7237942
v 6.721897E-06 -3.8922796 0.5521805
v -0.39044392 -3.8922796 0.3904505
v -0.5117917 -5.2922926 0.5117998
v -0.55217385 -3.8922796 -7.8285495E-08
v -0.72378606 -5.2922926 1.6258582E-08
v -0.39044392 -3.8922796 -0.39045078
v -0.5117917 -5.2922926 -0.51179993
v 6.721897E-06 -3.8922796 -0.5521806
v 8.19337E-06 -5.2922926 -0.7237942
v 0.39045733 -3.8922796 -0.39045078
v 0.5118079 -5.2922926 -0.5117998
v 0.5521872 -3.8922796 -7.8285495E-08
v 0.7238022 -5.2922926 1.6258582E-08
v 0.39045733 -3.8922796 0.3904505
v 0.5118079 -5.2922926 0.5117997
v 6.721897E-06 -3.8922796 0.5521805
v 8.19337E-06 -5.2922926 0.7237942
v 0.7277811 -5.134535 0.7277748
v 8.19337E-06 -5.2922926 0.7237942
v 6.2113395E-06 -5.134535 1.0292293
v 0.5118079 -5.2922926 0.5117997
v 1.0292354 -5.134535 -1.4004343E-08
v 0.7238022 -5.2922926 1.6258582E-08
v 0.7277811 -5.134535 -0.727775
v 0.5118079 -5.2922926 -0.5117998
v 6.2113395E-06 -5.134535 -1.0292293
v 8.19337E-06 -5.2922926 -0.7237942
v -0.7277688 -5.134535 -0.727775
v -0.5117917 -5.2922926 -0.51179993
v -1.0292228 -5.134535 -1.4004343E-08
v -0.72378606 -5.2922926 1.6258582E-08
v -0.7277688 -5.134535 0.7277748
v -0.5117917 -5.2922926 0.5117998
v 6.2113395E-06 -5.134535 1.0292293
v 8.19337E-06 -5.2922926 0.7237942
v 2.778787E-06 -3.8479626 1.4039909
v 3.330111E-06 -4.4318633 0.7004001
v -0.49525437 -4.431864 0.4952576
v -0.99276865 -3.8479636 0.9927712
v -0.7003968 -4.4318633 -7.9344524E-08
v -1.403988 -3.847963 -1.5905049E-07
v -0.49525437 -4.4318633 -0.49525782
v -0.99276865 -3.847963 -0.9927717
v 3.330111E-06 -4.4318633 -0.7004003
v 2.7787873E-06 -3.847963 -1.4039911
v -1.2324266 -2.7191644 -1.2324274
v 0.49526098 -4.431864 -0.49525785
v 3.24006E-07 -2.7191644 -1.7429154
v 0.99277425 -3.8479636 -0.9927717
v 1.2324274 -2.7191644 -1.2324274
v 1.4039936 -3.8479636 -1.5905049E-07
v 1.7429154 -2.7191644 -1.9744536E-07
v 0.99277425 -3.8479636 0.9927712
v 1.2324274 -2.7191644 1.2324268
v 0.99277425 -3.8479636 -0.9927717
v 0.70040345 -4.431864 -7.9344524E-08
v 1.4039936 -3.8479636 -1.5905049E-07
v 0.49526098 -4.431864 0.4952576
v 0.99277425 -3.8479636 0.9927712
v 0.99277425 -3.8479636 0.9927712
v 0.49526098 -4.431864 0.4952576
v 3.330111E-06 -4.4318633 0.7004001
v 2.778787E-06 -3.8479626 1.4039909
v 1.2324274 -2.7191644 1.2324268
v 0.99277425 -3.8479636 0.9927712
v 2.778787E-06 -3.8479626 1.4039909
v 3.24006E-07 -2.7191644 1.7429149
v -1.7429147 -2.7191644 -1.9744536E-07
v -0.99276865 -3.847963 -0.9927717
v -1.2324266 -2.7191644 -1.2324274
v -1.403988 -3.847963 -1.5905049E-07
v -1.2324266 -2.7191644 1.2324268
v -0.99276865 -3.8479636 0.9927712
v 3.24006E-07 -2.7191644 1.7429149
v -0.99276865 -3.8479636 0.9927712
v -1.4735179 -0.3493855 1.4735171
v -5.992111E-07 -0.3931617 2.4120667
v -6.321062E-07 -0.34938526 2.083868
v -1.7055894 -0.39316213 1.7055886
v -2.0838687 -0.3493855 -1.7778156E-07
v -2.4120674 -0.3931622 -1.6462351E-07
v -1.4735179 -0.3493855 -1.4735175
v -1.7055894 -0.39316225 -1.7055889
v -6.321062E-07 -0.3493855 -2.0838685
v -6.1236915E-07 -0.3931622 -2.4120672
v 1.4735167 -0.3493855 -1.4735175
v 1.7055882 -0.39316198 -1.7055889
v 2.0838675 -0.3493855 -1.7778156E-07
v 2.4120662 -0.39316186 -1.6462351E-07
v 1.4735167 -0.3493855 1.4735171
v 1.7055882 -0.3931619 1.7055885
v -6.321062E-07 -0.34938526 2.083868
v -5.992111E-07 -0.3931617 2.4120667
v -1.7217478 -0.2218427 1.7217469
v -6.878859E-07 -0.22184227 2.434918
v -5.992111E-07 -0.3931617 2.4120667
v -1.7055894 -0.39316213 1.7055886
v -2.4349189 -0.2218428 -1.618401E-07
v -2.4120674 -0.3931622 -1.6462351E-07
v -1.7217478 -0.22184283 -1.7217473
v -1.7055894 -0.39316225 -1.7055889
v -7.089363E-07 -0.22184278 -2.4349186
v -6.1236915E-07 -0.3931622 -2.4120672
v 1.7217464 -0.22184257 -1.7217474
v 1.7055882 -0.39316198 -1.7055889
v 2.4349174 -0.22184247 -1.618401E-07
v 2.4120662 -0.39316186 -1.6462351E-07
v 1.7217463 -0.22184247 1.7217469
v 1.7055882 -0.3931619 1.7055885
v -6.878859E-07 -0.22184227 2.434918
v -5.992111E-07 -0.3931617 2.4120667
v 1.4896749 -0.17806609 1.4896754
v -6.878859E-07 -0.22184227 2.434918
v -6.808691E-07 -0.1780658 2.1067193
v 1.7217463 -0.22184247 1.7217469
v 2.1067188 -0.17806609 -1.7587368E-07
v 2.4349174 -0.22184247 -1.618401E-07
v 1.4896749 -0.17806609 -1.4896759
v 1.7217464 -0.22184257 -1.7217474
v -6.808691E-07 -0.17806609 -2.10672
v -7.089363E-07 -0.22184278 -2.4349186
v -1.4896762 -0.17806609 -1.4896759
v -1.7217478 -0.22184283 -1.7217473
v -2.1067202 -0.17806609 -1.7587368E-07
v -2.4349189 -0.2218428 -1.618401E-07
v -1.4896762 -0.17806609 1.4896754
v -1.7217478 -0.2218427 1.7217469
v -6.808691E-07 -0.1780658 2.1067193
v -6.878859E-07 -0.22184227 2.434918
v -1.2812403 2.0318785 1.2812403
v -6.567007E-08 2.0749893 2.135156
v -5.1849867E-08 2.0318785 1.8119473
v -1.5097834 2.0749896 1.5097834
v -1.8119476 2.0318785 -1.0204646E-07
v -2.1351562 2.0749896 -1.0204646E-07
v -1.2812403 2.0318785 -1.2812406
v -1.5097834 2.0749896 -1.5097836
v -5.1849838E-08 2.0318785 -1.8119478
v -6.5670044E-08 2.0749896 -2.1351564
v 1.2812402 2.0318785 -1.2812406
v 1.5097833 2.0749893 -1.5097836
v 1.8119473 2.0318785 -1.0204645E-07
v 2.1351562 2.0749893 -1.0895655E-07
v 1.2812402 2.0318785 1.2812403
v 1.5097833 2.0749893 1.5097834
v -5.1849867E-08 2.0318785 1.8119473
v -6.567007E-08 2.0749893 2.135156
v 1.2640591 2.2140436 1.2640591
v 1.29579805E-08 2.2571545 2.110858
v -0 2.2140436 1.7876494
v 1.4926021 2.2571545 1.4926021
v 1.7876495 2.2140436 -9.59609E-08
v 2.1108582 2.2571545 -8.948191E-08
v 1.2640591 2.2140436 -1.2640593
v 1.4926021 2.2571545 -1.4926023
v -0 2.2140436 -1.7876499
v 1.9436975E-08 2.2571547 -2.1108584
v -1.2640591 2.2140436 -1.2640593
v -1.4926021 2.2571547 -1.4926023
v -1.7876495 2.2140436 -9.59609E-08
v -2.1108582 2.2571547 -9.59609E-08
v -1.2640591 2.2140436 1.2640591
v -1.4926021 2.2571547 1.4926021
v -0 2.2140436 1.7876494
v 1.29579805E-08 2.2571545 2.110858
v 1.29579805E-08 2.2571545 2.110858
v 1.5097833 2.0749893 1.5097834
v -6.567007E-08 2.0749893 2.135156
v 1.4926021 2.2571545 1.4926021
v 2.1351562 2.0749893 -1.0895655E-07
v 2.1108582 2.2571545 -8.948191E-08
v 1.5097833 2.0749893 -1.5097836
v 1.4926021 2.2571545 -1.4926023
v -6.5670044E-08 2.0749896 -2.1351564
v 1.9436975E-08 2.2571547 -2.1108584
v -1.5097834 2.0749896 -1.5097836
v -1.4926021 2.2571547 -1.4926023
v -2.1351562 2.0749896 -1.0204646E-07
v -2.1108582 2.2571547 -9.59609E-08
v -1.5097834 2.0749896 1.5097834
v -1.4926021 2.2571547 1.4926021
v -6.567007E-08 2.0749893 2.135156
v 1.29579805E-08 2.2571545 2.110858
v 1.2640591 -2.5701745 1.2640588
v -1.2271374E-07 -2.6505525 2.0553517
v -0 -2.5701745 1.7876494
v 1.4533532 -2.650552 1.453353
v 1.7876495 -2.5701745 -2.0251309E-07
v 2.055352 -2.650552 -2.0251309E-07
v 1.2640591 -2.5701745 -1.2640594
v 1.4533532 -2.650552 -1.4533536
v -0 -2.5701745 -1.7876499
v -1.2271374E-07 -2.6505525 -2.0553522
v -1.2640591 -2.5701745 -1.2640594
v -1.4533532 -2.650553 -1.4533534
v -1.7876495 -2.5701745 -2.0251309E-07
v -2.0553517 -2.6505532 -2.0251309E-07
v -1.2640591 -2.5701745 1.2640588
v -1.4533532 -2.650553 1.4533528
v -0 -2.5701745 1.7876494
v -1.2271374E-07 -2.6505525 2.0553517
v 3.24006E-07 -2.7191644 1.7429149
v 4.786054E-07 -2.7995424 2.0106173
v 1.4217217 -2.799542 1.4217209
v 1.2324274 -2.7191644 1.2324268
v 2.0106177 -2.799542 -1.8678332E-07
v 1.7429154 -2.7191644 -1.9744536E-07
v 1.4217216 -2.799542 -1.4217215
v 1.2324274 -2.7191644 -1.2324274
v 4.786054E-07 -2.7995424 -2.0106177
v 3.24006E-07 -2.7191644 -1.7429154
v -1.4217205 -2.799543 -1.4217215
v -1.2324266 -2.7191644 -1.2324274
v -2.0106168 -2.7995431 -1.8678334E-07
v -1.7429147 -2.7191644 -1.9744536E-07
v -1.4217206 -2.799543 1.4217209
v -1.2324266 -2.7191644 1.2324268
v 4.786054E-07 -2.7995424 2.0106173
v 3.24006E-07 -2.7191644 1.7429149
v -1.4533532 -2.650553 -1.4533534
v -1.4217205 -2.799543 -1.4217215
v 4.786054E-07 -2.7995424 -2.0106177
v -1.2271374E-07 -2.6505525 -2.0553522
v 1.4217216 -2.799542 -1.4217215
v 1.4533532 -2.650552 -1.4533536
v 2.0106177 -2.799542 -1.8678332E-07
v 2.055352 -2.650552 -2.0251309E-07
v 1.4217217 -2.799542 1.4217209
v 1.4533532 -2.650552 1.453353
v 4.786054E-07 -2.7995424 2.0106173
v -1.2271374E-07 -2.6505525 2.0553517
v -2.0553517 -2.6505532 -2.0251309E-07
v -1.4217205 -2.799543 -1.4217215
v -1.4533532 -2.650553 -1.4533534
v -2.0106168 -2.7995431 -1.8678334E-07
v -1.4533532 -2.650553 1.4533528
v -1.4217206 -2.799543 1.4217209
v -1.2271374E-07 -2.6505525 2.0553517
v 4.786054E-07 -2.7995424 2.0106173
v -0.16954291 2.4713445 0.5247309
v -0.16954291 5.6303663 0.5247309
v -0.16954291 5.6303663 0.6797343
v -0.16954291 2.4713445 2.093215
v -0.16954291 1.8818111 0.5509967
v -0.16954291 1.8818111 2.3191519
v -0.16954291 -0.021838613 0.6581752
v -0.1695429 1.8749804 2.7145832
v -0.1695429 2.4645138 2.5802658
v -0.16954291 -0.021838441 2.6445146
v -0.16954291 -0.58224136 0.66826373
v -0.16954291 -0.5822412 2.666795
v -0.16954291 -2.3859558 0.5549582
v -0.1695429 -0.58907187 3.0695412
v -0.1695429 -0.028669149 3.047261
v -0.16954291 -2.3859558 2.2878864
v -0.16954291 -2.9823525 0.5247309
v -0.16954291 -2.9823525 2.077788
v -0.16954291 -3.840552 0.5247309
v -0.16954291 -3.840552 1.3824643
v -0.1695429 -2.9891832 2.5390277
v -0.1695429 -2.3927865 2.7378368
v -0.16954291 5.6303663 0.5247309
v 0.16958106 5.6303663 0.5247309
v 0.16958106 5.6303663 0.6797343
v -0.16954291 5.6303663 0.6797343
v 0.16958106 -2.9823525 0.5247309
v 0.16958106 -3.840552 0.5247309
v 0.16958106 -3.840552 1.3824643
v 0.16958106 -2.9823525 2.077788
v 0.16958106 -2.3859558 0.5549582
v 0.16958106 -2.3859558 2.2878864
v 0.16958106 -0.5822412 0.66826373
v 0.16958107 -2.3927865 2.7378368
v 0.16958107 -2.9891832 2.5390277
v 0.16958106 -0.58224136 2.666795
v 0.16958106 -0.02183856 0.6581752
v 0.16958106 -0.021838732 2.6445146
v 0.16958106 1.8818111 0.5509967
v 0.16958107 -0.02866944 3.047261
v 0.16958107 -0.58907205 3.0695412
v 0.16958106 1.8818109 2.3191519
v 0.16958106 2.4713445 0.5247309
v 0.16958106 2.4713445 2.093215
v 0.16958106 5.6303663 0.5247309
v 0.16958106 5.6303663 0.6797343
v 0.16958107 2.4645138 2.5802658
v 0.16958107 1.8749802 2.7145832
v 0.16958106 -3.840552 0.5247309
v -0.16954291 -3.840552 0.5247309
v -0.16954291 -3.840552 1.3824643
v 0.16958106 -3.840552 1.3824643
v -0.16954291 -2.9823525 0.5247309
v -0.16954291 -3.840552 0.5247309
v 0.16958106 -3.840552 0.5247309
v 0.16958106 -2.9823525 0.5247309
v -0.16954291 -2.3859558 0.5549582
v 0.16958106 -2.3859558 0.5549582
v -0.16954291 -0.58224136 0.66826373
v 0.16958106 -0.5822412 0.66826373
v -0.16954291 -0.021838613 0.6581752
v 0.16958106 -0.02183856 0.6581752
v -0.16954291 1.8818111 0.5509967
v 0.16958106 1.8818111 0.5509967
v -0.16954291 2.4713445 0.5247309
v 0.16958106 2.4713445 0.5247309
v -0.16954291 5.6303663 0.5247309
v 0.16958106 5.6303663 0.5247309
v 0.16958106 -2.9823525 2.077788
v 0.16958106 -3.840552 1.3824643
v -0.16954291 -3.840552 1.3824643
v -0.16954291 -2.9823525 2.077788
v 0.16958106 5.6303663 0.6797343
v 0.16958106 2.4713445 2.093215
v -0.16954291 2.4713445 2.093215
v -0.16954291 5.6303663 0.6797343
v 0.16958106 1.8818109 2.3191519
v 0.16958106 -0.021838732 2.6445146
v -0.16954291 -0.021838441 2.6445146
v -0.16954291 1.8818111 2.3191519
v 0.16958106 -0.58224136 2.666795
v 0.16958106 -2.3859558 2.2878864
v -0.16954291 -2.3859558 2.2878864
v -0.16954291 -0.5822412 2.666795
v 0.16958107 -0.02866944 3.047261
v 0.16958107 -0.58907205 3.0695412
v -0.1695429 -0.58907187 3.0695412
v -0.1695429 -0.028669149 3.047261
v 0.16958107 -2.3927865 2.7378368
v 0.16958107 -2.9891832 2.5390277
v -0.1695429 -2.9891832 2.5390277
v -0.1695429 -2.3927865 2.7378368
v 0.16958107 2.4645138 2.5802658
v 0.16958107 1.8749802 2.7145832
v -0.1695429 1.8749804 2.7145832
v -0.1695429 2.4645138 2.5802658
v 0.16958106 2.4713445 2.093215
v 0.16958107 2.4645138 2.5802658
v -0.1695429 2.4645138 2.5802658
v -0.16954291 2.4713445 2.093215
v 0.16958106 -0.021838732 2.6445146
v 0.16958107 -0.02866944 3.047261
v -0.1695429 -0.028669149 3.047261
v -0.16954291 -0.021838441 2.6445146
v -0.16954291 -0.5822412 2.666795
v -0.1695429 -0.58907187 3.0695412
v 0.16958107 -0.58907205 3.0695412
v 0.16958106 -0.58224136 2.666795
v -0.16954291 -2.9823525 2.077788
v -0.1695429 -2.9891832 2.5390277
v 0.16958107 -2.9891832 2.5390277
v 0.16958106 -2.9823525 2.077788
v 0.16958106 -2.3859558 2.2878864
v 0.16958107 -2.3927865 2.7378368
v -0.1695429 -2.3927865 2.7378368
v -0.16954291 -2.3859558 2.2878864
v -0.16954291 1.8818111 2.3191519
v -0.1695429 1.8749804 2.7145832
v 0.16958107 1.8749802 2.7145832
v 0.16958106 1.8818109 2.3191519
v 5.4233988E-06 -4.942373 0.9393031
v 5.5857126E-06 -4.8501616 1.136348
v 0.80352473 -4.850161 0.803519
v 0.664193 -4.942373 0.66418743
v 1.136353 -4.850161 -2.449528E-08
v 0.9393084 -4.942373 -3.1873178E-08
v 0.80352473 -4.850161 -0.8035192
v 0.664193 -4.942373 -0.6641876
v 5.5857126E-06 -4.8501616 -1.1363481
v 5.4233988E-06 -4.942373 -0.93930316
v -0.8035141 -4.8501625 -0.8035197
v -0.6641822 -4.942373 -0.6641876
v -1.1363428 -4.8501625 -1.4658108E-08
v -0.9392975 -4.942373 -3.1873178E-08
v -0.8035141 -4.850162 0.8035195
v -0.6641822 -4.942373 0.66418743
v 5.5857126E-06 -4.8501616 1.136348
v 5.4233988E-06 -4.942373 0.9393031
v 4.1988014E-06 -4.6437187 0.7995421
v 3.9950933E-06 -4.5515075 0.9965871
v -0.7046896 -4.5515084 0.70469344
v -0.5653575 -4.643719 0.56536156
v -0.9965831 -4.5515084 -5.9644464E-08
v -0.7995378 -4.6437187 -5.9644464E-08
v -0.7046896 -4.5515084 -0.7046936
v -0.5653575 -4.6437187 -0.56536174
v 3.98311E-06 -4.5515075 -0.9965872
v 4.1988014E-06 -4.6437187 -0.79954225
v 0.70469743 -4.5515075 -0.7046936
v 0.56536585 -4.643719 -0.5653618
v 0.99659085 -4.5515075 -5.9644464E-08
v 0.79954624 -4.643719 -5.9644464E-08
v 0.70469743 -4.5515075 0.7046933
v 0.56536585 -4.643719 0.56536156
v 3.9950933E-06 -4.5515075 0.9965871
v 4.1988014E-06 -4.6437187 0.7995421
v 0.49526098 -4.431864 0.4952576
v 4.1988014E-06 -4.6437187 0.7995421
v 3.330111E-06 -4.4318633 0.7004001
v 0.56536585 -4.643719 0.56536156
v 0.70040345 -4.431864 -7.9344524E-08
v 0.79954624 -4.643719 -5.9644464E-08
v 0.49526098 -4.431864 -0.49525785
v 0.79954624 -4.643719 -5.9644464E-08
v 0.70040345 -4.431864 -7.9344524E-08
v 0.56536585 -4.643719 -0.5653618
v 3.330111E-06 -4.4318633 -0.7004003
v 4.1988014E-06 -4.6437187 -0.79954225
v -0.49525437 -4.4318633 -0.49525782
v -0.5653575 -4.6437187 -0.56536174
v -0.7003968 -4.4318633 -7.9344524E-08
v -0.7995378 -4.6437187 -5.9644464E-08
v -0.49525437 -4.431864 0.4952576
v -0.5653575 -4.643719 0.56536156
v 3.330111E-06 -4.4318633 0.7004001
v 4.1988014E-06 -4.6437187 0.7995421
v 3.9950933E-06 -4.5515075 0.9965871
v 5.5857126E-06 -4.8501616 1.136348
v -0.8035141 -4.850162 0.8035195
v -0.7046896 -4.5515084 0.70469344
v -1.1363428 -4.8501625 -1.4658108E-08
v -0.9965831 -4.5515084 -5.9644464E-08
v -0.8035141 -4.8501625 -0.8035197
v -0.7046896 -4.5515084 -0.7046936
v 5.5857126E-06 -4.8501616 -1.1363481
v 3.98311E-06 -4.5515075 -0.9965872
v 0.80352473 -4.850161 -0.8035192
v 0.70469743 -4.5515075 -0.7046936
v 1.136353 -4.850161 -2.449528E-08
v 0.99659085 -4.5515075 -5.9644464E-08
v 0.80352473 -4.850161 0.803519
v 0.70469743 -4.5515075 0.7046933
v 5.5857126E-06 -4.8501616 1.136348
v 3.9950933E-06 -4.5515075 0.9965871
v -0.19658065 5.982476 0.25618032
v 0.1966188 5.982476 0.25618032
v 0.1966188 5.982476 0.88942283
v -0.19658065 5.982476 0.88942283
v 1.9073486E-05 5.912217 0.9999962
v 0.5000191 5.4076276 0.8660216
v 1.9073486E-05 5.4076276 0.9999962
v 0.5000191 5.912217 0.86602163
v 0.8660444 5.4076276 0.4999962
v 0.8660444 5.912217 0.4999962
v 1.0000191 5.4076276 -3.8146973E-06
v 1.0000191 5.912217 -3.7550926E-06
v 0.8660444 5.4076276 -0.5000038
v 0.8660444 5.912217 -0.50000376
v 0.5000191 5.4076276 -0.86602926
v 0.5000191 5.912217 -0.8660292
v 1.9073486E-05 5.4076276 -1.0000038
v 1.9073486E-05 5.912217 -1.0000038
v -0.49998087 5.4076276 -0.86602926
v -0.49998087 5.912217 -0.8660292
v -0.86600626 5.4076276 -0.5000038
v -0.86600626 5.912217 -0.50000376
v -0.9999808 5.4076276 -3.8146973E-06
v -0.9999808 5.912217 -3.7550926E-06
v -0.86600626 5.4076276 0.4999962
v -0.86600626 5.912217 0.4999962
v -0.49998087 5.4076276 0.8660216
v -0.49998087 5.912217 0.86602163
v 1.9073486E-05 5.4076276 0.9999962
v 1.9073486E-05 5.912217 0.9999962
v 0.5000191 5.4076276 -0.86602926
v 1.9073486E-05 5.4076276 -1.0000038
v -0.49998087 5.4076276 -0.86602926
v 0.8660444 5.4076276 -0.5000038
v -0.86600626 5.4076276 -0.5000038
v 1.0000191 5.4076276 -3.8146973E-06
v -0.9999808 5.4076276 -3.8146973E-06
v 0.8660444 5.4076276 0.4999962
v -0.86600626 5.4076276 0.4999962
v 0.5000191 5.4076276 0.8660216
v -0.49998087 5.4076276 0.8660216
v 1.9073486E-05 5.4076276 0.9999962
v -0.49998087 5.912217 -0.8660292
v 1.9073486E-05 5.912217 -1.0000038
v 0.5000191 5.912217 -0.8660292
v -0.86600626 5.912217 -0.50000376
v 0.8660444 5.912217 -0.50000376
v -0.9999808 5.912217 -3.7550926E-06
v 1.0000191 5.912217 -3.7550926E-06
v -0.86600626 5.912217 0.4999962
v 0.8660444 5.912217 0.4999962
v -0.49998087 5.912217 0.86602163
v 0.5000191 5.912217 0.86602163
v 1.9073486E-05 5.912217 0.9999962
v 1.6021829 -0.47215706 0.3101341
v 0.59478736 4.335869 0.6436759
v 0.67248666 4.3358665 0.863443
v 1.7007205 -0.47393322 0.5359169
v 0.59478736 4.335869 0.6436759
v 2.3557215 4.758594 -0.0485009
v 2.46133 4.760372 0.1744919
v 0.67248666 4.3358665 0.863443
v -1.5671122 -0.4720965 0.31294936
v -1.6741723 -0.47399372 0.53475314
v -0.6587512 4.3145027 0.8895728
v -0.57472587 4.3145957 0.67478955
v -0.57472587 4.3145957 0.67478955
v -0.6587512 4.3145027 0.8895728
v -2.4197898 4.760478 0.1428335
v -2.3053293 4.758488 -0.07573972
v 2.46133 4.760372 0.1744919
v 2.3557215 4.758594 -0.0485009
v 1.6021829 -0.47215706 0.3101341
v 1.7007205 -0.47393322 0.5359169
v -2.3053293 4.758488 -0.07573972
v -2.4197898 4.760478 0.1428335
v -1.6741723 -0.47399372 0.53475314
v -1.5671122 -0.4720965 0.31294936
v 1.602183 -2.0819647 -0.478293
v 0.5947874 2.726061 -0.14475116
v 0.67248666 2.726059 0.07501589
v 1.7007207 -2.083741 -0.2525103
v 0.5947874 2.726061 -0.14475116
v 2.3557215 3.148786 -0.836928
v 2.46133 3.1505647 -0.61393523
v 0.67248666 2.726059 0.07501589
v -1.5671124 -2.0819044 -0.4754778
v -1.6741722 -2.0838015 -0.25367394
v -0.65875113 2.704695 0.10114573
v -0.57472575 2.7047877 -0.11363748
v -0.57472575 2.7047877 -0.11363748
v -0.65875113 2.704695 0.10114573
v -2.41979 3.1506705 -0.6455936
v -2.3053293 3.1486802 -0.86416686
v 2.46133 3.1505647 -0.61393523
v 2.3557215 3.148786 -0.836928
v 1.602183 -2.0819647 -0.478293
v 1.7007207 -2.083741 -0.2525103
v -2.3053293 3.1486802 -0.86416686
v -2.41979 3.1506705 -0.6455936
v -1.6741722 -2.0838015 -0.25367394
v -1.5671124 -2.0819044 -0.4754778
v -1.2096155 3.2467716 -1.791059
v 0.7684387 3.3626559 -0.8620917
v -0.76840043 3.362656 -0.8620918
v 1.2096535 3.2467716 -1.791059
v -1.3051633 2.8147051 -2.3160632
v 1.305203 2.8147051 -2.3160632
v -0.85468113 1.7023114 -3.0603194
v 0.8547261 1.7023114 -3.0603192
v 1.2096535 -3.778569 -1.791059
v -0.7684005 -3.894455 -0.8620917
v 0.7684386 -3.894455 -0.8620917
v -1.2096153 -3.7785695 -1.791059
v -1.3103126 -3.3464549 -2.316737
v 1.3103522 -3.3464549 -2.316737
v 0.8497703 -2.2341661 -3.2050848
v -0.8497251 -2.2341661 -3.205085
v -0.64619684 -0.893941 -3.418582
v -0.8497251 -2.2341661 -3.205085
v 0.8497703 -2.2341661 -3.2050848
v 0.64624107 -0.893941 -3.4185822
v -0.63541937 -0.2658967 -3.4161842
v 0.6354631 -0.2658967 -3.4161842
v -0.6424799 0.36219612 -3.4179542
v 0.64252424 0.36219615 -3.4179544
v -0.85468113 1.7023114 -3.0603194
v 0.8547261 1.7023114 -3.0603192
v 1.3496071 -2.0750275 -0.85918444
v 0.7684386 -3.894455 -0.8620917
v -0.7684005 -3.894455 -0.8620917
v -1.3495691 -2.0750275 -0.85918444
v 1.3605659 -0.26589954 -0.8604305
v -1.3605278 -0.2658993 -0.8604305
v 1.3496072 1.5432286 -0.85918444
v -1.3495691 1.5432287 -0.85918444
v 0.7684387 3.3626559 -0.8620917
v -0.76840043 3.362656 -0.8620918
v 1.2096535 3.2467716 -1.791059
v 1.3496072 1.5432286 -0.85918444
v 0.7684387 3.3626559 -0.8620917
v 1.7162013 1.4923197 -1.7905039
v 1.305203 2.8147051 -2.3160632
v 1.3605659 -0.26589954 -0.8604305
v 1.4996423 1.2769614 -2.3154857
v 0.8547261 1.7023114 -3.0603192
v 0.64252424 0.36219615 -3.4179544
v 1.7177243 -0.26589882 -1.7907814
v 1.3496071 -2.0750275 -0.85918444
v 1.4927512 -0.2659 -2.3157744
v 0.6354631 -0.2658967 -3.4161842
v 1.7162012 -2.024117 -1.7905039
v 0.7684386 -3.894455 -0.8620917
v 1.2096535 -3.778569 -1.791059
v 1.494493 -1.8088111 -2.3148117
v 0.64624107 -0.893941 -3.4185822
v 1.3103522 -3.3464549 -2.316737
v 0.8497703 -2.2341661 -3.2050848
v -1.2096153 -3.7785695 -1.791059
v -1.3495691 -2.0750275 -0.85918444
v -0.7684005 -3.894455 -0.8620917
v -1.7161632 -2.024117 -1.7905039
v -1.3103126 -3.3464549 -2.316737
v -1.3605278 -0.2658993 -0.8604305
v -1.4944547 -1.808811 -2.3148117
v -0.8497251 -2.2341661 -3.205085
v -0.64619684 -0.893941 -3.418582
v -1.7176862 -0.26589864 -1.7907814
v -1.3495691 1.5432287 -0.85918444
v -1.4927125 -0.26589993 -2.3157744
v -0.63541937 -0.2658967 -3.4161842
v -1.7161632 1.49232 -1.7905039
v -0.76840043 3.362656 -0.8620918
v -1.2096155 3.2467716 -1.791059
v -1.4996043 1.2769614 -2.3154857
v -0.6424799 0.36219612 -3.4179542
v -1.3051633 2.8147051 -2.3160632
v -0.85468113 1.7023114 -3.0603194
vt 0.125 0.5514801
vt 0.125 0.75
vt 0.375 0.5
vt 0.625 0.5
vt 0.875 0.75
vt 0.875 0.55148005
vt 0.125 0.55214024
vt 0.375 0.5
vt 0.125 0.75
vt 0.625 0.5
vt 0.875 0.5521403
vt 0.875 0.75
vt 0.125 0.5514801
vt 0.125 0.75
vt 0.375 0.5
vt 0.625 0.5
vt 0.875 0.75
vt 0.875 0.55148005
vt 0.125 0.55214024
vt 0.375 0.5
vt 0.125 0.75
vt 0.625 0.5
vt 0.875 0.5521403
vt 0.875 0.75
vt 1 0.76790464
vt 0.875 1
vt 1 1
vt 0.87500006 0.7679047
vt 0.75 1
vt 0.75 0.76790464
vt 0.625 1
vt 0.625 0.76790464
vt 0.5 1
vt 0.5 0.76790464
vt 0.375 1
vt 0.375 0.7679047
vt 0.25 1
vt 0.25000006 0.76790476
vt 0.125 1
vt 0.125 0.76790476
vt 0 1
vt 0 0.76790464
vt 0.125 0.5
vt 0 0.5
vt 0 0.5
vt 0.125 0.5
vt 0 0.5
vt 0.25 0.5
vt 0.125 0.5
vt 0.25 0.5
vt 0.375 0.5
vt 0.25 0.5
vt 0.375 0.5
vt 0.5 0.5
vt 0.375 0.5
vt 0.5 0.5
vt 0.625 0.5
vt 0.5 0.5
vt 0.625 0.5
vt 0.75 0.5
vt 0.625 0.5
vt 0.75 0.5
vt 0.875 0.5
vt 0.75 0.5
vt 0.875 0.5
vt 1 0.5
vt 0.875 0.5
vt 1 0.5
vt 1 0.5
vt 0.87500006 1
vt 1 1
vt 1 1
vt 0.875 1
vt 0.75 1
vt 0.75 1
vt 0.625 1
vt 0.625 1
vt 0.5 1
vt 0.5 1
vt 0.375 1
vt 0.375 1
vt 0.25 1
vt 0.25 1
vt 0.125 1
vt 0.125 1
vt 0 1
vt 0 1
vt 0.12499999 0.5190381
vt 0 0.5190381
vt 0 0.75
vt 0.125 0.75000006
vt 0.24999997 0.5190381
vt 0.25000003 0.75000006
vt 0.375 0.5190381
vt 0.37500003 0.75000006
vt 0.5 0.51903814
vt 0.5 0.75
vt 0.625 0.51903814
vt 0.62499994 0.75
vt 0.75 0.5190381
vt 0.75 0.75
vt 0.875 0.51903814
vt 0.87500006 0.75000006
vt 1 0.51903814
vt 1 0.75
vt 0.5802944 0.080294386
vt 0.75 0.010000005
vt 0.9197056 0.080294386
vt 0.51 0.25
vt 0.99 0.25
vt 0.5802944 0.41970563
vt 0.9197056 0.41970563
vt 0.75 0.49
vt 0.41970563 0.080294386
vt 0.25 0.010000005
vt 0.080294386 0.080294386
vt 0.49 0.25
vt 0.010000005 0.25
vt 0.41970563 0.41970563
vt 0.080294386 0.41970563
vt 0.25 0.49
vt 0 1
vt 0 1
vt 0.125 1
vt 0.125 1
vt 0.25 1
vt 0.25 1
vt 0.375 1
vt 0.375 1
vt 0.5 1
vt 0.5 1
vt 0.625 1
vt 0.625 1
vt 0.75 1
vt 0.75 1
vt 0.875 1
vt 0.875 1
vt 1 1
vt 1 1
vt 0.875 1
vt 1 1
vt 1 1
vt 0.875 1
vt 0.75 1
vt 0.75 1
vt 0.625 1
vt 0.625 1
vt 0.5 1
vt 0.5 1
vt 0.375 1
vt 0.375 1
vt 0.25 1
vt 0.25 1
vt 0.125 1
vt 0.125 1
vt 0 1
vt 0 1
vt 0 1
vt 0 1
vt 0.125 1
vt 0.12499999 0.99999994
vt 0.25 1
vt 0.25 1
vt 0.375 1
vt 0.375 1
vt 0.5 1
vt 0.5 1
vt 0.37500003 1.0000001
vt 0.625 1
vt 0.49999994 0.9999999
vt 0.625 1
vt 0.625 1
vt 0.75 1
vt 0.75 0.99999994
vt 0.87499994 0.99999994
vt 0.875 1
vt 0.625 1
vt 0.75 0.99999994
vt 0.75 1
vt 0.875 1
vt 0.87499994 0.99999994
vt 0.87499994 0.99999994
vt 0.875 1
vt 0.99999994 0.99999994
vt 1 1
vt 0.875 1
vt 0.87499994 0.99999994
vt 1 1
vt 1 1
vt 0.25 1
vt 0.375 1
vt 0.37500003 1.0000001
vt 0.25 1
vt 0.125 1
vt 0.12499999 0.99999994
vt 0 1
vt 0.12499999 0.99999994
vt 0.125 0.76790476
vt 0 0.76790464
vt 0 0.76790464
vt 0.125 0.76790476
vt 0.25000006 0.76790476
vt 0.25000006 0.76790476
vt 0.375 0.7679047
vt 0.375 0.7679047
vt 0.5 0.76790464
vt 0.5 0.76790464
vt 0.625 0.76790464
vt 0.625 0.76790464
vt 0.75 0.76790464
vt 0.75 0.76790464
vt 0.87500006 0.7679047
vt 0.87500006 0.7679047
vt 1 0.76790464
vt 1 0.76790464
vt 0.125 0.75000006
vt 0 0.75
vt 0 0.76790464
vt 0.125 0.76790476
vt 0.25000003 0.75000006
vt 0.25000006 0.76790476
vt 0.37500003 0.75000006
vt 0.375 0.7679047
vt 0.5 0.75
vt 0.5 0.76790464
vt 0.62499994 0.75
vt 0.625 0.76790464
vt 0.75 0.75
vt 0.75 0.76790464
vt 0.87500006 0.75000006
vt 0.87500006 0.7679047
vt 1 0.75
vt 1 0.76790464
vt 0.87500006 0.75000006
vt 1 0.75
vt 1 0.75
vt 0.87500006 0.75000006
vt 0.75 0.75
vt 0.75 0.75
vt 0.62499994 0.75
vt 0.62499994 0.75
vt 0.5 0.75
vt 0.5 0.75
vt 0.37500003 0.75000006
vt 0.37500003 0.75000006
vt 0.25000003 0.75000006
vt 0.25000003 0.75000006
vt 0.125 0.75000006
vt 0.125 0.75000006
vt 0 0.75
vt 0 0.75
vt 0.12499999 0.5190381
vt 0 0.5190381
vt 0 0.5190381
vt 0.12499999 0.5190381
vt 0.24999997 0.5190381
vt 0.24999997 0.5190381
vt 0.375 0.5190381
vt 0.375 0.5190381
vt 0.5 0.51903814
vt 0.5 0.51903814
vt 0.625 0.51903814
vt 0.625 0.51903814
vt 0.75 0.5190381
vt 0.75 0.5190381
vt 0.875 0.51903814
vt 0.875 0.51903814
vt 1 0.51903814
vt 1 0.51903814
vt 0.875 0.5
vt 1 0.5
vt 1 0.5
vt 0.875 0.5
vt 0.75 0.5
vt 0.75 0.5
vt 0.625 0.5
vt 0.625 0.5
vt 0.5 0.5
vt 0.5 0.5
vt 0.375 0.5
vt 0.375 0.5
vt 0.25 0.5
vt 0.25 0.5
vt 0.125 0.5
vt 0.125 0.5
vt 0 0.5
vt 0 0.5
vt 1 0.5
vt 0.875 0.51903814
vt 1 0.51903814
vt 0.875 0.5
vt 0.75 0.5190381
vt 0.75 0.5
vt 0.625 0.51903814
vt 0.625 0.5
vt 0.5 0.51903814
vt 0.5 0.5
vt 0.375 0.5190381
vt 0.375 0.5
vt 0.24999997 0.5190381
vt 0.25 0.5
vt 0.12499999 0.5190381
vt 0.125 0.5
vt 0 0.5190381
vt 0 0.5
vt 0.875 1
vt 1 1
vt 1 1
vt 0.875 1
vt 0.75 1
vt 0.75 1
vt 0.625 1
vt 0.625 1
vt 0.5 1
vt 0.5 1
vt 0.375 1
vt 0.375 1
vt 0.25 1
vt 0.25 1
vt 0.125 1
vt 0.125 1
vt 0 1
vt 0 1
vt 1 1
vt 1 1
vt 0.875 1
vt 0.875 1
vt 0.75 0.99999994
vt 0.75 0.99999994
vt 0.625 1
vt 0.625 1
vt 0.49999994 0.9999999
vt 0.49999994 0.9999999
vt 0.37500003 1.0000001
vt 0.37500003 1.0000001
vt 0.25 1
vt 0.25 1
vt 0.125 1
vt 0.125 1
vt 0 1
vt 0 1
vt 0.375 1
vt 0.37500003 1.0000001
vt 0.49999994 0.9999999
vt 0.5 1
vt 0.625 1
vt 0.625 1
vt 0.75 0.99999994
vt 0.75 1
vt 0.875 1
vt 0.875 1
vt 1 1
vt 1 1
vt 0.25 1
vt 0.37500003 1.0000001
vt 0.375 1
vt 0.25 1
vt 0.125 1
vt 0.125 1
vt 0 1
vt 0 1
vt 0.375 0.18005137
vt 0.375 0.23832422
vt 0.62499994 0.23832421
vt 0.62499994 0.18005137
vt 0.37499997 0.16418017
vt 0.62499994 0.16418017
vt 0.375 0.11018861
vt 0.62499994 0.16418017
vt 0.62499994 0.18005137
vt 0.625 0.1101886
vt 0.37500003 0.09405558
vt 0.62499994 0.09405557
vt 0.37500003 0.0419889
vt 0.62499994 0.09405557
vt 0.625 0.1101886
vt 0.62499994 0.041988894
vt 0.375 0.024773099
vt 0.62499994 0.024773097
vt 0.375 0
vt 0.625 0
vt 0.62499994 0.024773097
vt 0.62499994 0.041988894
vt 0.125 0.5116758
vt 0.375 0.51167583
vt 0.625 0.51167583
vt 0.875 0.51167583
vt 0.375 0.72522694
vt 0.375 0.75
vt 0.625 0.75
vt 0.6250001 0.725227
vt 0.37499997 0.70801115
vt 0.625 0.70801115
vt 0.37500006 0.6559445
vt 0.625 0.70801115
vt 0.6250001 0.725227
vt 0.625 0.65594447
vt 0.375 0.6398114
vt 0.6250001 0.63981146
vt 0.375 0.58581984
vt 0.6250001 0.63981146
vt 0.625 0.65594447
vt 0.62500006 0.5858197
vt 0.375 0.5699487
vt 0.625 0.56994855
vt 0.375 0.51167583
vt 0.625 0.51167583
vt 0.625 0.56994855
vt 0.62500006 0.5858197
vt 0.375 0.75
vt 0.375 1
vt 0.625 1
vt 0.625 0.75
vt 0.125 0.7252269
vt 0.125 0.75
vt 0.375 0.75
vt 0.375 0.72522694
vt 0.125 0.70801103
vt 0.37499997 0.70801115
vt 0.125 0.65594435
vt 0.37500006 0.6559445
vt 0.125 0.63981134
vt 0.375 0.6398114
vt 0.125 0.5858198
vt 0.375 0.58581984
vt 0.125 0.5699486
vt 0.375 0.5699487
vt 0.125 0.5116758
vt 0.375 0.51167583
vt 0.6250001 0.725227
vt 0.625 0.75
vt 0.875 0.75
vt 0.875 0.7252269
vt 0.625 0.51167583
vt 0.625 0.56994855
vt 0.875 0.5699487
vt 0.875 0.51167583
vt 0.62500006 0.5858197
vt 0.6250001 0.63981146
vt 0.875 0.63981134
vt 0.875 0.58581984
vt 0.625 0.65594447
vt 0.625 0.70801115
vt 0.875 0.7080111
vt 0.875 0.65594447
vt 0.6250001 0.63981146
vt 0.625 0.65594447
vt 0.875 0.65594447
vt 0.875 0.63981134
vt 0.625 0.70801115
vt 0.6250001 0.725227
vt 0.875 0.7252269
vt 0.875 0.7080111
vt 0.625 0.56994855
vt 0.62500006 0.5858197
vt 0.875 0.58581984
vt 0.875 0.5699487
vt 0.625 0.56994855
vt 0.625 0.56994855
vt 0.875 0.5699487
vt 0.875 0.5699487
vt 0.6250001 0.63981146
vt 0.6250001 0.63981146
vt 0.875 0.63981134
vt 0.875 0.63981134
vt 0.875 0.65594447
vt 0.875 0.65594447
vt 0.625 0.65594447
vt 0.625 0.65594447
vt 0.875 0.7252269
vt 0.875 0.7252269
vt 0.6250001 0.725227
vt 0.6250001 0.725227
vt 0.625 0.70801115
vt 0.625 0.70801115
vt 0.875 0.7080111
vt 0.875 0.7080111
vt 0.875 0.58581984
vt 0.875 0.58581984
vt 0.62500006 0.5858197
vt 0.62500006 0.5858197
vt 1 1
vt 1 1
vt 0.87500006 1
vt 0.87500006 1
vt 0.75 1
vt 0.75 1
vt 0.625 1
vt 0.625 1
vt 0.5 1
vt 0.5 1
vt 0.375 1
vt 0.375 1
vt 0.25 1
vt 0.25 1
vt 0.125 1
vt 0.125 1
vt 0 1
vt 0 1
vt 0 1
vt 0 1
vt 0.125 1
vt 0.125 1
vt 0.25 1
vt 0.25 1
vt 0.375 0.99999994
vt 0.375 0.99999994
vt 0.5 1
vt 0.5 1
vt 0.625 0.99999994
vt 0.625 0.99999994
vt 0.75 1
vt 0.75 1
vt 0.875 1
vt 0.875 1
vt 1 1
vt 1 1
vt 0.875 1
vt 1 1
vt 0.99999994 0.99999994
vt 0.875 1
vt 0.75 0.99999994
vt 0.75 1
vt 0.625 1
vt 0.75 1
vt 0.75 0.99999994
vt 0.625 0.99999994
vt 0.5 1
vt 0.5 1
vt 0.375 1
vt 0.375 0.99999994
vt 0.25 1
vt 0.25 1
vt 0.125 1
vt 0.125 1
vt 0 1
vt 0 1
vt 0 1
vt 0 1
vt 0.125 1
vt 0.125 1
vt 0.25 1
vt 0.25 1
vt 0.375 1
vt 0.375 0.99999994
vt 0.5 1
vt 0.5 1
vt 0.625 1
vt 0.625 0.99999994
vt 0.75 1
vt 0.75 1
vt 0.87500006 1
vt 0.875 1
vt 1 1
vt 1 1
vt 0.375 0.23832422
vt 0.375 0.51167583
vt 0.625 0.51167583
vt 0.62499994 0.23832421
vt 1 0.5
vt 0.9166667 1
vt 1 1
vt 0.9166667 0.5
vt 0.8333334 1
vt 0.8333334 0.5
vt 0.75000006 1
vt 0.75000006 0.5
vt 0.66666675 1
vt 0.66666675 0.5
vt 0.58333343 1
vt 0.58333343 0.5
vt 0.5000001 1
vt 0.5000001 0.5
vt 0.41666678 1
vt 0.41666678 0.5
vt 0.33333343 1
vt 0.33333343 0.5
vt 0.2500001 1
vt 0.2500001 0.5
vt 0.16666675 1
vt 0.16666675 0.5
vt 0.08333341 1
vt 0.08333341 0.5
vt 7.4505806E-08 1
vt 7.4505806E-08 0.5
vt 0.37 0.042153895
vt 0.25 0.010000005
vt 0.13 0.042153895
vt 0.4578461 0.13
vt 0.04215391 0.13
vt 0.49 0.25
vt 0.010000005 0.25
vt 0.4578461 0.37
vt 0.04215391 0.37
vt 0.37 0.4578461
vt 0.13 0.4578461
vt 0.25 0.49
vt 0.63 0.042153895
vt 0.75 0.010000005
vt 0.87 0.042153895
vt 0.5421539 0.13
vt 0.9578461 0.13
vt 0.51 0.25
vt 0.99 0.25
vt 0.5421539 0.37
vt 0.9578461 0.37
vt 0.63 0.4578461
vt 0.87 0.4578461
vt 0.75 0.49
vt 0.375 0
vt 0.37499997 0.19851992
vt 0.625 0.1985199
vt 0.625 0
vt 0.37499997 0.19851992
vt 0.375 0.5
vt 0.625 0.5
vt 0.625 0.1985199
vt 0.375 0
vt 0.625 0
vt 0.625 0.19785973
vt 0.375 0.1978597
vt 0.375 0.1978597
vt 0.625 0.19785973
vt 0.625 0.5
vt 0.375 0.5
vt 0.625 0.5
vt 0.375 0.5
vt 0.375 1
vt 0.625 1
vt 0.375 0.5
vt 0.625 0.5
vt 0.625 1
vt 0.375 1
vt 0.375 0
vt 0.37499997 0.19851992
vt 0.625 0.1985199
vt 0.625 0
vt 0.37499997 0.19851992
vt 0.375 0.5
vt 0.625 0.5
vt 0.625 0.1985199
vt 0.375 0
vt 0.625 0
vt 0.625 0.19785973
vt 0.375 0.1978597
vt 0.375 0.1978597
vt 0.625 0.19785973
vt 0.625 0.5
vt 0.375 0.5
vt 0.625 0.5
vt 0.375 0.5
vt 0.375 1
vt 0.625 1
vt 0.375 0.5
vt 0.625 0.5
vt 0.625 1
vt 0.375 1
vt 0.52340233 0.25
vt 0.625 0.5
vt 0.625 0.25
vt 0.52340233 0.5
vt 0.42873108 0.25
vt 0.42873108 0.5
vt 0.375 0.25
vt 0.375 0.5
vt 0.52340233 0.75
vt 0.625 1
vt 0.625 0.75
vt 0.52340245 1
vt 0.42873108 1
vt 0.42873108 0.74999994
vt 0.375 0.75
vt 0.375 1
vt 0.125 0.6875
vt 0.125 0.75
vt 0.375 0.75
vt 0.375 0.6875
vt 0.125 0.625
vt 0.375 0.625
vt 0.125 0.5625
vt 0.375 0.5625
vt 0.125 0.5
vt 0.375 0.5
vt 0.625 0.6875
vt 0.625 0.75
vt 0.875 0.75
vt 0.875 0.6875
vt 0.625 0.625
vt 0.875 0.625
vt 0.625 0.5625
vt 0.875 0.5625
vt 0.625 0.5
vt 0.875 0.5
vt 0.52340233 0.5
vt 0.625 0.5625
vt 0.625 0.5
vt 0.5234024 0.5625
vt 0.42873108 0.5
vt 0.625 0.625
vt 0.42873102 0.56249994
vt 0.375 0.5
vt 0.375 0.5625
vt 0.52340233 0.625
vt 0.625 0.6875
vt 0.42873102 0.625
vt 0.375 0.625
vt 0.52340233 0.6875
vt 0.625 0.75
vt 0.52340233 0.75
vt 0.42873108 0.6875
vt 0.375 0.6875
vt 0.42873108 0.74999994
vt 0.375 0.75
vt 0.52340245 0
vt 0.625 0.0625
vt 0.625 0
vt 0.52340233 0.062499993
vt 0.42873108 0
vt 0.625 0.125
vt 0.42873102 0.062499993
vt 0.375 0
vt 0.375 0.062499996
vt 0.52340233 0.124999985
vt 0.625 0.1875
vt 0.42873102 0.124999985
vt 0.375 0.12499999
vt 0.5234024 0.1875
vt 0.625 0.25
vt 0.52340233 0.25
vt 0.42873108 0.18750003
vt 0.375 0.1875
vt 0.42873108 0.25
vt 0.375 0.25
vn -0.36340636 -0.011518238 -0.93155944
vn -0.36340636 -0.011518238 -0.93155944
vn -0.36340636 -0.011518238 -0.93155944
vn 0.35675758 0.012658393 0.9341113
vn 0.35675758 0.012658393 0.9341113
vn 0.35675758 0.012658393 0.9341113
vn 0.3951469 -0.012487993 -0.9185331
vn 0.3951469 -0.012487993 -0.9185331
vn 0.3951469 -0.012487993 -0.9185331
vn -0.38737667 0.013839728 0.92181766
vn -0.38737667 0.013839728 0.92181766
vn -0.38737667 0.013839728 0.92181766
vn -0.36340648 -0.011518263 -0.93155944
vn -0.36340648 -0.011518263 -0.93155944
vn -0.36340648 -0.011518263 -0.93155944
vn 0.35675758 0.012658393 0.9341113
vn 0.35675758 0.012658393 0.9341113
vn 0.35675758 0.012658393 0.9341113
vn 0.39514697 -0.012488003 -0.9185331
vn 0.39514697 -0.012488003 -0.9185331
vn 0.39514697 -0.012488003 -0.9185331
vn -0.38737667 0.013839676 0.92181766
vn -0.38737667 0.013839676 0.92181766
vn -0.38737667 0.013839676 0.92181766
vn -0 -0.13221347 0.9912212
vn 0.70089936 -0.13221323 0.70089924
vn -0 -0.13221346 0.9912212
vn 0.70089936 -0.13221325 0.70089936
vn 0.9912213 -0.13221319 0
vn 0.9912213 -0.13221318 0
vn 0.70089936 -0.13221331 -0.7008993
vn 0.70089936 -0.13221331 -0.7008993
vn -0 -0.13221344 -0.9912212
vn -0 -0.13221344 -0.9912212
vn -0.70089924 -0.13221368 -0.70089924
vn -0.70089936 -0.1322137 -0.70089924
vn -0.9912212 -0.13221371 0
vn -0.9912212 -0.13221371 0
vn -0.70089924 -0.13221362 0.70089924
vn -0.70089924 -0.1322136 0.70089924
vn -0 -0.13221346 0.9912212
vn -0 -0.13221347 0.9912212
vn -0.6815402 0.26646924 0.6815403
vn -0 0.33571708 0.9419629
vn -0 0.26646942 0.96384335
vn -0.6660684 0.33571717 0.66606826
vn -0 0.41491315 0.90986097
vn -0.96384346 0.26646918 0
vn -0.6433688 0.41491356 0.64336884
vn -0.9419629 0.3357172 0
vn -0.6815402 0.26646927 -0.68154025
vn -0.9098608 0.41491365 0
vn -0.6660684 0.33571717 -0.66606814
vn -0 0.26646948 -0.96384335
vn -0.64336884 0.41491356 -0.6433686
vn -0 0.3357171 -0.9419629
vn 0.6815402 0.2664697 -0.68154
vn -0 0.41491318 -0.9098611
vn 0.66606826 0.3357171 -0.6660684
vn 0.9638432 0.26646975 0
vn 0.643369 0.41491294 -0.64336896
vn 0.9419629 0.3357171 0
vn 0.6815401 0.2664697 0.6815401
vn 0.9098612 0.41491285 0
vn 0.66606826 0.3357171 0.6660684
vn -0 0.26646942 0.96384335
vn 0.643369 0.41491294 0.64336896
vn -0 0.33571708 0.9419629
vn -0 0.41491315 0.90986097
vn 0.64044654 0.42385656 0.6404481
vn -0 0.42385504 0.90573
vn -0 0.42385507 0.90573
vn 0.6404473 0.42385653 0.6404473
vn 0.90572864 0.42385802 0
vn 0.90572864 0.42385802 0
vn 0.64044636 0.423857 -0.64044803
vn 0.64044714 0.42385703 -0.64044726
vn -0 0.42385492 -0.9057301
vn -0 0.4238549 -0.9057301
vn -0.64044946 0.42385292 -0.6404477
vn -0.6404486 0.42385298 -0.64044863
vn -0.9057316 0.42385173 0
vn -0.9057316 0.4238518 0
vn -0.6404494 0.42385292 0.64044774
vn -0.6404486 0.42385292 0.64044863
vn -0 0.42385507 0.90573
vn -0 0.42385504 0.90573
vn -0.70089924 0.13221355 0.70089936
vn -0 0.13221332 0.9912212
vn -0 0.13221334 0.9912212
vn -0.7008993 0.13221355 0.70089924
vn -0.9912212 0.13221371 0
vn -0.9912212 0.13221371 0
vn -0.70089924 0.13221365 -0.7008993
vn -0.7008993 0.13221365 -0.70089924
vn -0 0.13221343 -0.9912212
vn -0 0.13221343 -0.9912212
vn 0.7008994 0.13221325 -0.7008992
vn 0.70089936 0.13221325 -0.70089924
vn 0.9912213 0.13221315 0
vn 0.9912213 0.13221315 0
vn 0.7008994 0.13221316 0.70089924
vn 0.70089936 0.13221318 0.7008993
vn -0 0.13221332 0.9912212
vn -0 0.13221334 0.9912212
vn -0 1 0
vn -0 1 0
vn -0 1 0
vn -0 1 0
vn -0 1 0
vn -0 1 0
vn -0 1 0
vn -0 1 0
vn -0 -1 0
vn -0 -1 0
vn -0 -1 0
vn -0 -1 0
vn -0 -1 0
vn -0 -1 0
vn -0 -1 0
vn -0 -1 0
vn -0 -0.12166937 -0.9925707
vn -0 -0.121669374 -0.9925707
vn 0.7018537 -0.121668726 -0.7018533
vn 0.70185345 -0.121668726 -0.7018536
vn 0.9925708 -0.12166839 0
vn 0.9925708 -0.12166839 0
vn 0.7018536 -0.12166867 0.70185345
vn 0.7018534 -0.121668674 0.7018537
vn -0 -0.121669285 0.9925707
vn -0 -0.12166928 0.9925707
vn -0.7018532 -0.121669985 0.70185363
vn -0.7018534 -0.12166997 0.70185333
vn -0.9925706 -0.12167032 0
vn -0.9925706 -0.12167032 0
vn -0.70185333 -0.12167002 -0.7018534
vn -0.7018536 -0.12167004 -0.7018533
vn -0 -0.121669374 -0.9925707
vn -0 -0.12166937 -0.9925707
vn 0.32449543 -0.8884846 0.3244962
vn -0 -0.88848555 0.4589046
vn -0 -0.88848555 0.45890462
vn 0.32449615 -0.8884846 0.32449555
vn 0.45890674 -0.8884844 0
vn 0.4589068 -0.8884844 0
vn 0.3244954 -0.88848484 -0.32449576
vn 0.32449612 -0.88848484 -0.32449505
vn -0 -0.88848555 -0.4589046
vn -0 -0.88848555 -0.4589046
vn -0.3244937 -0.8884864 -0.32449323
vn -0.324493 -0.8884864 -0.32449394
vn -0.45890248 -0.8884867 0
vn -0.45890236 -0.8884867 0
vn -0.3244937 -0.8884865 0.32449272
vn -0.32449302 -0.8884865 0.3244935
vn -0 -0.88848555 0.45890462
vn -0 -0.88848555 0.4589046
vn -0 -0.52174956 0.85309875
vn -0 -0.76952404 0.6386177
vn -0.45157057 -0.7695246 0.45157066
vn -0.6032313 -0.5217506 0.6032315
vn -0.63861734 -0.7695246 0
vn -0.853098 -0.5217507 0
vn -0.45157063 -0.7695246 -0.45157048
vn -0.6032313 -0.52175057 -0.6032315
vn -0 -0.76952434 -0.6386174
vn -0 -0.5217498 -0.8530985
vn -0.6772384 -0.28757077 -0.677238
vn 0.45157078 -0.7695242 -0.45157087
vn -0 -0.28756943 -0.9577598
vn 0.60323215 -0.52174914 -0.603232
vn 0.6772386 -0.28756797 -0.677239
vn 0.85309917 -0.52174866 0
vn 0.95776045 -0.2875674 0
vn 0.60323215 -0.5217491 0.60323197
vn 0.6772386 -0.28756797 0.677239
vn 0.60323215 -0.52174914 -0.603232
vn 0.6386179 -0.76952404 0
vn 0.85309917 -0.52174866 0
vn 0.4515708 -0.76952404 0.45157105
vn 0.60323215 -0.5217491 0.60323197
vn 0.60323215 -0.5217491 0.60323197
vn 0.4515708 -0.76952404 0.45157105
vn -0 -0.76952404 0.6386177
vn -0 -0.52174956 0.85309875
vn 0.6772386 -0.28756797 0.677239
vn 0.60323215 -0.5217491 0.60323197
vn -0 -0.52174956 0.85309875
vn -0 -0.28756928 0.9577598
vn -0.95775926 -0.28757125 0
vn -0.6032313 -0.52175057 -0.6032315
vn -0.6772384 -0.28757077 -0.677238
vn -0.853098 -0.5217507 0
vn -0.6772384 -0.2875707 0.6772379
vn -0.6032313 -0.5217506 0.6032315
vn -0 -0.28756928 0.9577598
vn -0.6032313 -0.5217506 0.6032315
vn 0.09348921 -0.9912212 -0.09348897
vn -0 -0.9912213 -0.13221313
vn -0 -0.9912213 -0.13221313
vn 0.09348921 -0.9912212 -0.093488954
vn 0.13221379 -0.9912212 0
vn 0.1322138 -0.9912212 0
vn 0.093489364 -0.9912212 0.093489364
vn 0.09348938 -0.9912212 0.093489364
vn -0 -0.9912212 0.13221364
vn -0 -0.9912212 0.13221364
vn -0.09348877 -0.9912213 0.09348889
vn -0.093488775 -0.9912213 0.09348887
vn -0.13221289 -0.9912213 0
vn -0.1322129 -0.9912213 0
vn -0.09348868 -0.9912213 -0.09348871
vn -0.09348869 -0.9912213 -0.09348869
vn -0 -0.9912213 -0.13221313
vn -0 -0.9912213 -0.13221313
vn -0.70089924 -0.1322139 0.70089936
vn -0 -0.13221319 0.9912213
vn -0 -0.13221319 0.9912213
vn -0.70089924 -0.13221389 0.70089924
vn -0.9912211 -0.1322146 0
vn -0.9912211 -0.1322146 0
vn -0.70089924 -0.13221437 -0.70089924
vn -0.70089924 -0.1322144 -0.70089924
vn -0 -0.13221392 -0.9912212
vn -0 -0.13221394 -0.9912212
vn 0.70089924 -0.13221388 -0.70089936
vn 0.7008995 -0.13221386 -0.700899
vn 0.9912212 -0.13221394 0
vn 0.9912212 -0.13221394 0
vn 0.700899 -0.13221352 0.7008996
vn 0.7008995 -0.13221352 0.700899
vn -0 -0.13221319 0.9912213
vn -0 -0.13221319 0.9912213
vn 0.09348867 0.9912213 0.093488626
vn -0 0.9912213 0.13221309
vn -0 0.9912213 0.13221309
vn 0.093488656 0.9912213 0.093488626
vn 0.13221286 0.9912213 0
vn 0.13221286 0.9912213 0
vn 0.093488745 0.9912213 -0.09348893
vn 0.093488745 0.9912213 -0.09348894
vn -0 0.9912212 -0.1322136
vn -0 0.9912212 -0.13221362
vn -0.09348933 0.9912212 -0.09348931
vn -0.093489334 0.9912212 -0.09348929
vn -0.13221379 0.9912212 0
vn -0.13221376 0.9912212 0
vn -0.09348921 0.9912212 0.093488954
vn -0.09348922 0.9912212 0.09348895
vn -0 0.9912213 0.13221309
vn -0 0.9912213 0.13221309
vn -0.09348919 -0.9912213 0.09348844
vn -0 -0.9912213 0.13221282
vn -0 -0.9912213 0.13221282
vn -0.093489185 -0.9912213 0.09348844
vn -0.13221376 -0.9912212 0
vn -0.13221374 -0.9912212 0
vn -0.093489245 -0.9912212 -0.09348907
vn -0.093489245 -0.9912212 -0.093489066
vn -0 -0.9912212 -0.1322133
vn -0 -0.9912212 -0.13221331
vn 0.09348874 -0.9912213 -0.09348882
vn 0.093488745 -0.9912213 -0.09348883
vn 0.13221298 -0.9912213 0
vn 0.13221298 -0.9912213 0
vn 0.093488686 -0.9912213 0.09348883
vn 0.09348869 -0.9912213 0.09348883
vn -0 -0.9912213 0.13221282
vn -0 -0.9912213 0.13221282
vn -0.09348871 0.9912213 -0.0934887
vn -0 0.9912213 -0.13221318
vn -0 0.9912213 -0.13221316
vn -0.09348871 0.9912213 -0.09348869
vn -0.13221301 0.9912213 0
vn -0.132213 0.9912213 0
vn -0.09348876 0.9912213 0.09348869
vn -0.09348877 0.9912213 0.093488686
vn -0 0.9912212 0.1322134
vn -0 0.9912212 0.1322134
vn 0.09348924 0.9912212 0.09348909
vn 0.09348923 0.9912212 0.09348907
vn 0.1322137 0.9912212 0
vn 0.1322137 0.9912212 0
vn 0.093489185 0.9912212 -0.09348882
vn 0.093489185 0.9912212 -0.09348881
vn -0 0.9912213 -0.13221316
vn -0 0.9912213 -0.13221318
vn -0 0.13221323 0.9912212
vn 0.70089924 0.13221307 0.7008995
vn -0 0.13221322 0.9912212
vn 0.70089936 0.13221306 0.7008993
vn 0.9912213 0.13221304 0
vn 0.9912213 0.13221306 0
vn 0.7008993 0.13221307 -0.7008994
vn 0.7008994 0.13221306 -0.70089924
vn -0 0.13221331 -0.9912212
vn -0 0.13221332 -0.9912212
vn -0.70089936 0.1322134 -0.7008992
vn -0.7008994 0.13221341 -0.7008992
vn -0.9912213 0.13221313 0
vn -0.9912213 0.13221313 0
vn -0.70089924 0.13221326 0.70089936
vn -0.7008992 0.13221328 0.7008994
vn -0 0.13221322 0.9912212
vn -0 0.13221323 0.9912212
vn 0.20334099 0.9577602 0.20334151
vn -0 0.95776 0.2875689
vn -0 0.9577599 0.28756896
vn 0.20334093 0.9577602 0.20334156
vn 0.2875674 0.95776045 0
vn 0.2875674 0.95776045 0
vn 0.20334089 0.95776033 -0.2033415
vn 0.20334087 0.95776033 -0.20334156
vn -0 0.9577599 -0.2875692
vn -0 0.9577599 -0.28756922
vn -0.20334327 0.95775944 -0.2033429
vn -0.20334332 0.95775944 -0.2033429
vn -0.28757116 0.95775926 0
vn -0.28757116 0.95775926 0
vn -0.20334329 0.95775944 0.20334259
vn -0.2033433 0.95775944 0.20334259
vn -0 0.9577599 0.28756896
vn -0 0.95776 0.2875689
vn -0 -0.9577599 -0.28756925
vn -0 -0.9577599 -0.28756928
vn -0.20334096 -0.9577602 -0.20334184
vn -0.2033409 -0.9577602 -0.20334192
vn -0.28756738 -0.95776045 0
vn -0.2875674 -0.95776045 0
vn -0.20334098 -0.95776033 0.20334126
vn -0.20334095 -0.95776033 0.2033413
vn -0 -0.9577599 0.287569
vn -0 -0.9577599 0.287569
vn 0.20334336 -0.95775944 0.20334265
vn 0.20334342 -0.95775944 0.20334256
vn 0.28757125 -0.95775926 0
vn 0.28757122 -0.95775926 0
vn 0.20334326 -0.95775956 -0.20334242
vn 0.2033433 -0.95775956 -0.20334238
vn -0 -0.9577599 -0.28756928
vn -0 -0.9577599 -0.28756925
vn -0.67723864 -0.28757104 -0.6772375
vn -0.67723775 -0.28757107 -0.67723846
vn -0 -0.28756914 -0.9577599
vn -0 -0.28756914 -0.9577599
vn 0.6772393 -0.28756806 -0.67723817
vn 0.67723846 -0.28756806 -0.677239
vn 0.95776045 -0.28756753 0
vn 0.95776045 -0.28756753 0
vn 0.6772393 -0.28756744 0.67723835
vn 0.67723835 -0.28756747 0.6772393
vn -0 -0.28756896 0.9577599
vn -0 -0.28756893 0.95776
vn -0.95775914 -0.2875719 0
vn -0.67723775 -0.28757107 -0.67723846
vn -0.67723864 -0.28757104 -0.6772375
vn -0.957759 -0.2875719 0
vn -0.67723876 -0.28757098 0.6772374
vn -0.6772379 -0.28757098 0.6772383
vn -0 -0.28756893 0.95776
vn -0 -0.28756896 0.9577599
vn -1 0 0
vn -1 0 0
vn -1 0 0
vn -1 0 0
vn -1 0 0
vn -1 0 0
vn -1 0 0
vn -1 0 0
vn -1 0 0
vn -1 0 0
vn -1 0 0
vn -1 0 0
vn -1 0 0
vn -1 0 0
vn -1 0 0
vn -1 0 0
vn -1 0 0
vn -1 0 0
vn -1 0 0
vn -1 0 0
vn -1 0 0
vn -1 0 0
vn -0 1 0
vn -0 1 0
vn -0 1 0
vn -0 1 0
vn 1 0 0
vn 1 0 0
vn 1 0 0
vn 1 0 0
vn 1 0 0
vn 1 0 0
vn 1 0 0
vn 1 0 0
vn 1 0 0
vn 1 0 0
vn 1 0 0
vn 1 0 0
vn 1 0 0
vn 1 0 0
vn 1 0 0
vn 1 0 0
vn 1 0 0
vn 1 0 0
vn 1 0 0
vn 1 0 0
vn 1 0 0
vn 1 0 0
vn -0 -1 0
vn -0 -1 0
vn -0 -1 0
vn -0 -1 0
vn -0 0.025317237 -0.99967945
vn -0 0 -1
vn -0 0 -1
vn -0 0.025317237 -0.99967945
vn -0 0.0566573 -0.9983936
vn -0 0.0566573 -0.9983936
vn -0 0.022365669 -0.99974984
vn -0 0.022365637 -0.99974984
vn -0 -0.037112765 -0.9993111
vn -0 -0.037112772 -0.9993111
vn -0 -0.050361834 -0.9987311
vn -0 -0.050361834 -0.9987311
vn -0 -0.022260211 -0.9997522
vn -0 -0.022260211 -0.9997522
vn -0 0 -1
vn -0 0 -1
vn -0 -0.62952137 0.7769832
vn -0 -0.62952137 0.7769832
vn -0 -0.62952137 0.7769832
vn -0 -0.62952137 0.7769832
vn -0 0.4084224 0.91279304
vn -0 0.4084224 0.91279304
vn -0 0.4084224 0.91279304
vn -0 0.4084224 0.91279304
vn -0 0.16847222 0.9857064
vn -0 0.16847222 0.9857064
vn -0 0.16847222 0.9857064
vn -0 0.16847222 0.9857064
vn -0 -0.2055841 0.9786395
vn -0 -0.2055841 0.9786395
vn -0 -0.2055841 0.9786395
vn -0 -0.2055841 0.9786395
vn -0 0.039726123 0.9992106
vn -0 0.039726123 0.9992106
vn -0 0.039726123 0.9992106
vn -0 0.039726123 0.9992106
vn -0 -0.3162424 0.9486785
vn -0 -0.3162424 0.9486785
vn -0 -0.3162424 0.9486785
vn -0 -0.3162424 0.9486785
vn -0 0.22214407 0.9750139
vn -0 0.22214407 0.9750139
vn -0 0.22214407 0.9750139
vn -0 0.22214407 0.9750139
vn -0 0.99990165 0.014023364
vn -0 0.99990165 0.014023364
vn -0 0.99990165 0.014023364
vn -0 0.99990165 0.014023364
vn -0 0.99985623 0.016957877
vn -0 0.99985623 0.016957877
vn -0 0.99985623 0.016957877
vn -0 0.99985623 0.016957877
vn -0 -0.99985623 -0.016957806
vn -0 -0.99985623 -0.016957806
vn -0 -0.99985623 -0.016957806
vn -0 -0.99985623 -0.016957806
vn -0 -0.9998903 -0.014807949
vn -0 -0.9998903 -0.014807949
vn -0 -0.9998903 -0.014807949
vn -0 -0.9998903 -0.014807949
vn -0 0.99988484 0.015179394
vn -0 0.99988484 0.015179394
vn -0 0.99988484 0.015179394
vn -0 0.99988484 0.015179394
vn -0 -0.99985087 -0.017271185
vn -0 -0.99985087 -0.017271185
vn -0 -0.99985087 -0.017271185
vn -0 -0.99985087 -0.017271185
vn -0 -0.9057301 0.42385492
vn -0 -0.9057301 0.4238549
vn 0.2997125 -0.90572935 0.29971126
vn 0.2997124 -0.90572935 0.29971132
vn 0.4238573 -0.90572906 0
vn 0.4238573 -0.90572906 0
vn 0.29971224 -0.90572935 -0.2997115
vn 0.29971215 -0.90572935 -0.29971159
vn -0 -0.9057304 -0.4238542
vn -0 -0.9057304 -0.4238542
vn -0.29970792 -0.9057317 -0.29970872
vn -0.29970804 -0.9057317 -0.2997086
vn -0.4238513 -0.9057318 0
vn -0.42385134 -0.9057318 0
vn -0.29970878 -0.9057311 0.29970938
vn -0.29970887 -0.9057311 0.2997093
vn -0 -0.9057301 0.4238549
vn -0 -0.9057301 0.42385492
vn -0 0.9057307 -0.42385352
vn -0 0.9057307 -0.4238535
vn 0.2997088 0.9057318 -0.29970735
vn 0.29970875 0.9057319 -0.29970744
vn 0.42385143 0.9057317 0
vn 0.42385146 0.9057317 0
vn 0.29970813 0.9057319 0.2997078
vn 0.29970807 0.9057319 0.29970783
vn -0 0.90573084 0.42385346
vn -0 0.9057307 0.4238535
vn -0.299712 0.9057295 0.29971159
vn -0.2997121 0.9057295 0.29971144
vn -0.42385733 0.90572894 0
vn -0.4238574 0.90572894 0
vn -0.29971206 0.90572935 -0.2997116
vn -0.29971218 0.90572935 -0.29971147
vn -0 0.9057307 -0.4238535
vn -0 0.9057307 -0.42385352
vn 0.6404467 0.42385638 0.6404481
vn -0 0.42385527 0.90572995
vn -0 0.42385527 0.90572995
vn 0.64044774 0.4238564 0.6404471
vn 0.9057289 0.4238575 0
vn 0.9057289 0.42385757 0
vn 0.64044666 0.42385656 -0.6404481
vn 0.9057289 0.42385757 0
vn 0.9057289 0.4238575 0
vn 0.64044756 0.42385647 -0.6404471
vn -0 0.4238547 -0.90573025
vn -0 0.4238547 -0.90573025
vn -0.64044946 0.42385253 -0.6404479
vn -0.6404487 0.4238525 -0.6404487
vn -0.9057317 0.4238514 0
vn -0.9057317 0.4238514 0
vn -0.64045 0.423853 0.6404471
vn -0.64044917 0.423853 0.64044785
vn -0 0.42385527 0.90572995
vn -0 0.42385527 0.90572995
vn -0 0.42385438 0.9057304
vn -0 0.42385435 0.9057303
vn -0.6404486 0.423852 0.64044917
vn -0.64044946 0.423852 0.6404483
vn -0.9057319 0.42385098 0
vn -0.9057319 0.42385104 0
vn -0.6404487 0.42385194 -0.64044905
vn -0.6404497 0.42385197 -0.64044815
vn -0 0.42385405 -0.9057304
vn -0 0.42385405 -0.9057304
vn 0.6404478 0.4238565 -0.64044684
vn 0.6404467 0.4238566 -0.64044803
vn 0.90572876 0.4238578 0
vn 0.90572876 0.42385787 0
vn 0.6404478 0.42385685 0.6404467
vn 0.6404468 0.42385685 0.6404477
vn -0 0.42385435 0.9057303
vn -0 0.42385438 0.9057304
vn -0 1 0
vn -0 1 0
vn -0 1 0
vn -0 1 0
vn -0 0 1
vn 0.5 0 0.86602545
vn -0 0 1
vn 0.5 0 0.86602545
vn 0.8660253 0 0.5000001
vn 0.8660253 0 0.5000001
vn 1 0 0
vn 1 0 0
vn 0.8660253 0 -0.5000002
vn 0.8660253 0 -0.5000001
vn 0.4999999 0 -0.8660255
vn 0.4999999 0 -0.86602545
vn -0 0 -1
vn -0 0 -1
vn -0.50000006 0 -0.86602545
vn -0.5000001 0 -0.8660253
vn -0.8660255 0 -0.4999999
vn -0.8660255 0 -0.4999998
vn -1 0 0
vn -1 0 0
vn -0.8660255 0 0.49999985
vn -0.8660255 0 0.49999985
vn -0.5000002 0 0.8660253
vn -0.5000001 0 0.8660253
vn -0 0 1
vn -0 0 1
vn -0 -1 0
vn -0 -1 0
vn -0 -1 0
vn -0 -1 0
vn -0 -1 0
vn -0 -1 0
vn -0 -1 0
vn -0 -1 0
vn -0 -1 0
vn -0 -1 0
vn -0 -1 0
vn -0 -1 0
vn -0 1 0
vn -0 1 0
vn -0 1 0
vn -0 1 0
vn -0 1 0
vn -0 1 0
vn -0 1 0
vn -0 1 0
vn -0 1 0
vn -0 1 0
vn -0 1 0
vn -0 1 0
vn -0.90807116 -0.2168235 0.35832146
vn -0.90807116 -0.2168235 0.35832146
vn -0.90807116 -0.2168235 0.35832146
vn -0.90807116 -0.2168235 0.35832146
vn -0.20196764 0.9761437 0.07970299
vn -0.20196764 0.9761437 0.07970299
vn -0.20196764 0.9761437 0.07970299
vn -0.20196764 0.9761437 0.07970299
vn 0.89466405 -0.21683453 0.39058816
vn 0.89466405 -0.21683453 0.39058816
vn 0.89466405 -0.21683453 0.39058816
vn 0.89466405 -0.21683453 0.39058816
vn 0.20893225 0.97364634 0.09143379
vn 0.20893225 0.97364634 0.09143379
vn 0.20893225 0.97364634 0.09143379
vn 0.20893225 0.97364634 0.09143379
vn 0.8987876 -0.15817375 -0.40885416
vn 0.8987876 -0.15817375 -0.40885416
vn 0.8987876 -0.15817375 -0.40885416
vn 0.8987876 -0.15817375 -0.40885416
vn -0.8821116 -0.15816988 -0.4436908
vn -0.8821116 -0.15816988 -0.4436908
vn -0.8821116 -0.15816988 -0.4436908
vn -0.8821116 -0.15816988 -0.4436908
vn -0.9080711 -0.21682362 0.3583216
vn -0.9080711 -0.21682362 0.3583216
vn -0.9080711 -0.21682362 0.3583216
vn -0.9080711 -0.21682362 0.3583216
vn -0.20196809 0.9761437 0.07970145
vn -0.20196809 0.9761437 0.07970145
vn -0.20196809 0.9761437 0.07970145
vn -0.20196809 0.9761437 0.07970145
vn 0.8946641 -0.2168346 0.3905877
vn 0.8946641 -0.2168346 0.3905877
vn 0.8946641 -0.2168346 0.3905877
vn 0.8946641 -0.2168346 0.3905877
vn 0.2089327 0.97364646 0.09143166
vn 0.2089327 0.97364646 0.09143166
vn 0.2089327 0.97364646 0.09143166
vn 0.2089327 0.97364646 0.09143166
vn 0.89878786 -0.15817375 -0.408854
vn 0.89878786 -0.15817375 -0.408854
vn 0.89878786 -0.15817375 -0.408854
vn 0.89878786 -0.15817375 -0.408854
vn -0.8821118 -0.15816984 -0.44369015
vn -0.8821118 -0.15816984 -0.44369015
vn -0.8821118 -0.15816984 -0.44369015
vn -0.8821118 -0.15816984 -0.44369015
vn -0 0.89360034 -0.44886342
vn -0 0.992309 -0.12378587
vn -0 0.992309 -0.12378587
vn -0 0.89360034 -0.4488635
vn -0 0.67879146 -0.7343311
vn -0 0.6787912 -0.7343313
vn -0 0.43413123 -0.90084964
vn -0 0.43413115 -0.9008497
vn -0 -0.89349306 -0.44907704
vn -0 -0.99230874 -0.123787254
vn -0 -0.99230874 -0.123787254
vn -0 -0.8934932 -0.44907686
vn -0 -0.70671356 -0.70749974
vn -0 -0.70671344 -0.7074999
vn -0 -0.43747875 -0.8992287
vn -0 -0.43747893 -0.89922863
vn -0 -0.08109866 -0.99670607
vn -0 -0.43747893 -0.89922863
vn -0 -0.43747875 -0.8992287
vn -0 -0.08109869 -0.99670607
vn -0 0.00050606264 -0.9999999
vn -0 0.00050606235 -0.9999999
vn -0 0.13515599 -0.99082434
vn -0 0.13515607 -0.99082434
vn -0 0.43413123 -0.90084964
vn -0 0.43413115 -0.9008497
vn -0 -0.0003275877 1
vn -0 -0.0015979054 0.9999988
vn -0 -0.0015979054 0.9999988
vn -0 -0.00032758777 1
vn -0 0 1
vn -0 0 1
vn -0 0.00032759504 1
vn -0 0.00032759513 1
vn -0 0.0015979217 0.9999988
vn -0 0.0015979217 0.9999988
vn 0.94974107 0.25966224 0.17483535
vn 0.9188892 0.14753297 0.3658916
vn 0.8914191 0.27165636 0.36273214
vn 0.9903813 0.13335297 0.036905013
vn 0.92514294 0.17403048 -0.33737776
vn 0.93207234 0 0.36227226
vn 0.8743147 0.0648876 -0.48100257
vn 0.7742753 0.07321193 -0.6285999
vn 0.78685784 0.013662646 -0.616983
vn 0.99989116 -0.00040986718 -0.0147490185
vn 0.9188892 -0.14753313 0.36589143
vn 0.86314756 -0.0005167086 -0.50495166
vn 0.79107755 -0.0002680049 -0.61171585
vn 0.9904766 -0.13272825 0.036594965
vn 0.89141935 -0.2716564 0.36273184
vn 0.9498808 -0.25866425 0.17555474
vn 0.885412 -0.052355275 -0.46184906
vn 0.7989574 -0.0060370434 -0.6013572
vn 0.93157226 -0.15976256 -0.32657167
vn 0.8176325 -0.036732096 -0.5745675
vn -0.9498808 -0.25866434 0.17555417
vn -0.9188892 -0.14753306 0.36589143
vn -0.89141935 -0.27165636 0.36273187
vn -0.9904767 -0.1327283 0.036594328
vn -0.93157125 -0.15976293 -0.32657433
vn -0.93207234 0 0.36227226
vn -0.8854107 -0.052355595 -0.4618513
vn -0.81762964 -0.036732934 -0.57457155
vn -0.7989553 -0.006037416 -0.6013601
vn -0.99989116 -0.00040983193 -0.014749183
vn -0.91888916 0.14753297 0.36589167
vn -0.86314654 -0.00051669235 -0.5049532
vn -0.7910756 -0.00026800472 -0.61171836
vn -0.9903812 0.13335308 0.03690454
vn -0.8914191 0.27165642 0.36273223
vn -0.9497412 0.25966242 0.17483489
vn -0.87431353 0.06488795 -0.48100466
vn -0.7868556 0.013663036 -0.6169859
vn -0.92514205 0.17403094 -0.33738023
vn -0.77427226 0.07321282 -0.6286036
g Windboat_0
f 3/3/3 2/2/2 1/1/1
f 6/6/6 5/5/5 4/4/4
f 9/9/9 8/8/8 7/7/7
f 12/12/12 11/11/11 10/10/10
f 15/15/15 14/14/14 13/13/13
f 18/18/18 17/17/17 16/16/16
f 21/21/21 20/20/20 19/19/19
f 24/24/24 23/23/23 22/22/22
f 27/27/27 26/26/26 25/25/25
f 26/26/26 28/28/28 25/25/25
f 26/26/26 29/29/29 28/28/28
f 29/29/29 30/30/30 28/28/28
f 29/29/29 31/31/31 30/30/30
f 31/31/31 32/32/32 30/30/30
f 31/31/31 33/33/33 32/32/32
f 33/33/33 34/34/34 32/32/32
f 33/33/33 35/35/35 34/34/34
f 35/35/35 36/36/36 34/34/34
f 35/35/35 37/37/37 36/36/36
f 37/37/37 38/38/38 36/36/36
f 37/37/37 39/39/39 38/38/38
f 39/39/39 40/40/40 38/38/38
f 39/39/39 41/41/41 40/40/40
f 41/41/41 42/42/42 40/40/40
f 45/45/45 44/44/44 43/43/43
f 44/44/44 46/46/46 43/43/43
f 44/44/44 47/47/47 46/46/46
f 43/43/43 46/46/46 48/48/48
f 47/47/47 49/49/49 46/46/46
f 46/46/46 50/50/50 48/48/48
f 46/46/46 49/49/49 50/50/50
f 48/48/48 50/50/50 51/51/51
f 49/49/49 52/52/52 50/50/50
f 50/50/50 53/53/53 51/51/51
f 50/50/50 52/52/52 53/53/53
f 51/51/51 53/53/53 54/54/54
f 52/52/52 55/55/55 53/53/53
f 53/53/53 56/56/56 54/54/54
f 53/53/53 55/55/55 56/56/56
f 54/54/54 56/56/56 57/57/57
f 55/55/55 58/58/58 56/56/56
f 56/56/56 59/59/59 57/57/57
f 56/56/56 58/58/58 59/59/59
f 57/57/57 59/59/59 60/60/60
f 58/58/58 61/61/61 59/59/59
f 59/59/59 62/62/62 60/60/60
f 59/59/59 61/61/61 62/62/62
f 60/60/60 62/62/62 63/63/63
f 61/61/61 64/64/64 62/62/62
f 62/62/62 65/65/65 63/63/63
f 62/62/62 64/64/64 65/65/65
f 63/63/63 65/65/65 66/66/66
f 64/64/64 67/67/67 65/65/65
f 65/65/65 68/68/68 66/66/66
f 65/65/65 67/67/67 68/68/68
f 67/67/67 69/69/69 68/68/68
f 72/72/72 71/71/71 70/70/70
f 71/71/71 73/73/73 70/70/70
f 70/70/70 73/73/73 74/74/74
f 73/73/73 75/75/75 74/74/74
f 74/74/74 75/75/75 76/76/76
f 75/75/75 77/77/77 76/76/76
f 76/76/76 77/77/77 78/78/78
f 77/77/77 79/79/79 78/78/78
f 78/78/78 79/79/79 80/80/80
f 79/79/79 81/81/81 80/80/80
f 80/80/80 81/81/81 82/82/82
f 81/81/81 83/83/83 82/82/82
f 82/82/82 83/83/83 84/84/84
f 83/83/83 85/85/85 84/84/84
f 84/84/84 85/85/85 86/86/86
f 85/85/85 87/87/87 86/86/86
f 90/90/90 89/89/89 88/88/88
f 91/91/91 90/90/90 88/88/88
f 91/91/91 88/88/88 92/92/92
f 93/93/93 91/91/91 92/92/92
f 93/93/93 92/92/92 94/94/94
f 95/95/95 93/93/93 94/94/94
f 95/95/95 94/94/94 96/96/96
f 97/97/97 95/95/95 96/96/96
f 97/97/97 96/96/96 98/98/98
f 99/99/99 97/97/97 98/98/98
f 99/99/99 98/98/98 100/100/100
f 101/101/101 99/99/99 100/100/100
f 101/101/101 100/100/100 102/102/102
f 103/103/103 101/101/101 102/102/102
f 103/103/103 102/102/102 104/104/104
f 105/105/105 103/103/103 104/104/104
f 108/108/108 107/107/107 106/106/106
f 106/106/106 109/109/109 108/108/108
f 109/109/109 110/110/110 108/108/108
f 109/109/109 111/111/111 110/110/110
f 111/111/111 112/112/112 110/110/110
f 111/111/111 113/113/113 112/112/112
f 116/116/116 115/115/115 114/114/114
f 114/114/114 117/117/117 116/116/116
f 117/117/117 118/118/118 116/116/116
f 117/117/117 119/119/119 118/118/118
f 119/119/119 120/120/120 118/118/118
f 119/119/119 121/121/121 120/120/120
f 124/124/124 123/123/123 122/122/122
f 125/125/125 124/124/124 122/122/122
f 126/126/126 124/124/124 125/125/125
f 127/127/127 126/126/126 125/125/125
f 128/128/128 126/126/126 127/127/127
f 129/129/129 128/128/128 127/127/127
f 130/130/130 128/128/128 129/129/129
f 131/131/131 130/130/130 129/129/129
f 132/132/132 130/130/130 131/131/131
f 133/133/133 132/132/132 131/131/131
f 134/134/134 132/132/132 133/133/133
f 135/135/135 134/134/134 133/133/133
f 136/136/136 134/134/134 135/135/135
f 137/137/137 136/136/136 135/135/135
f 138/138/138 136/136/136 137/137/137
f 139/139/139 138/138/138 137/137/137
f 142/142/142 141/141/141 140/140/140
f 141/141/141 143/143/143 140/140/140
f 140/140/140 143/143/143 144/144/144
f 143/143/143 145/145/145 144/144/144
f 144/144/144 145/145/145 146/146/146
f 145/145/145 147/147/147 146/146/146
f 146/146/146 147/147/147 148/148/148
f 147/147/147 149/149/149 148/148/148
f 148/148/148 149/149/149 150/150/150
f 149/149/149 151/151/151 150/150/150
f 150/150/150 151/151/151 152/152/152
f 151/151/151 153/153/153 152/152/152
f 152/152/152 153/153/153 154/154/154
f 153/153/153 155/155/155 154/154/154
f 154/154/154 155/155/155 156/156/156
f 155/155/155 157/157/157 156/156/156
f 160/160/160 159/159/159 158/158/158
f 161/161/161 160/160/160 158/158/158
f 162/162/162 160/160/160 161/161/161
f 163/163/163 162/162/162 161/161/161
f 164/164/164 162/162/162 163/163/163
f 165/165/165 164/164/164 163/163/163
f 166/166/166 164/164/164 165/165/165
f 167/167/167 166/166/166 165/165/165
f 167/167/167 165/165/165 168/168/168
f 169/169/169 166/166/166 167/167/167
f 170/170/170 167/167/167 168/168/168
f 171/171/171 169/169/169 167/167/167
f 171/171/171 167/167/167 170/170/170
f 172/172/172 171/171/171 170/170/170
f 173/173/173 171/171/171 172/172/172
f 174/174/174 173/173/173 172/172/172
f 175/175/175 173/173/173 174/174/174
f 176/176/176 175/175/175 174/174/174
f 178/178/178 169/169/169 177/177/177
f 179/179/179 178/178/178 177/177/177
f 180/180/180 178/178/178 179/179/179
f 181/181/181 180/180/180 179/179/179
f 184/184/184 183/183/183 182/182/182
f 185/185/185 184/184/184 182/182/182
f 188/188/188 187/187/187 186/186/186
f 189/189/189 188/188/188 186/186/186
f 192/192/192 191/191/191 190/190/190
f 191/191/191 193/193/193 190/190/190
f 190/190/190 193/193/193 194/194/194
f 193/193/193 195/195/195 194/194/194
f 194/194/194 197/197/197 196/196/196
f 197/197/197 158/158/158 196/196/196
f 200/200/200 199/199/199 198/198/198
f 199/199/199 201/201/201 198/198/198
f 198/198/198 201/201/201 202/202/202
f 201/201/201 203/203/203 202/202/202
f 202/202/202 203/203/203 204/204/204
f 203/203/203 205/205/205 204/204/204
f 204/204/204 205/205/205 206/206/206
f 205/205/205 207/207/207 206/206/206
f 206/206/206 207/207/207 208/208/208
f 207/207/207 209/209/209 208/208/208
f 208/208/208 209/209/209 210/210/210
f 209/209/209 211/211/211 210/210/210
f 210/210/210 211/211/211 212/212/212
f 211/211/211 213/213/213 212/212/212
f 212/212/212 213/213/213 214/214/214
f 213/213/213 215/215/215 214/214/214
f 218/218/218 217/217/217 216/216/216
f 219/219/219 218/218/218 216/216/216
f 219/219/219 216/216/216 220/220/220
f 221/221/221 219/219/219 220/220/220
f 221/221/221 220/220/220 222/222/222
f 223/223/223 221/221/221 222/222/222
f 223/223/223 222/222/222 224/224/224
f 225/225/225 223/223/223 224/224/224
f 225/225/225 224/224/224 226/226/226
f 227/227/227 225/225/225 226/226/226
f 227/227/227 226/226/226 228/228/228
f 229/229/229 227/227/227 228/228/228
f 229/229/229 228/228/228 230/230/230
f 231/231/231 229/229/229 230/230/230
f 231/231/231 230/230/230 232/232/232
f 233/233/233 231/231/231 232/232/232
f 236/236/236 235/235/235 234/234/234
f 235/235/235 237/237/237 234/234/234
f 234/234/234 237/237/237 238/238/238
f 237/237/237 239/239/239 238/238/238
f 238/238/238 239/239/239 240/240/240
f 239/239/239 241/241/241 240/240/240
f 240/240/240 241/241/241 242/242/242
f 241/241/241 243/243/243 242/242/242
f 242/242/242 243/243/243 244/244/244
f 243/243/243 245/245/245 244/244/244
f 244/244/244 245/245/245 246/246/246
f 245/245/245 247/247/247 246/246/246
f 246/246/246 247/247/247 248/248/248
f 247/247/247 249/249/249 248/248/248
f 248/248/248 249/249/249 250/250/250
f 249/249/249 251/251/251 250/250/250
f 254/254/254 253/253/253 252/252/252
f 253/253/253 255/255/255 252/252/252
f 252/252/252 255/255/255 256/256/256
f 255/255/255 257/257/257 256/256/256
f 256/256/256 257/257/257 258/258/258
f 257/257/257 259/259/259 258/258/258
f 258/258/258 259/259/259 260/260/260
f 259/259/259 261/261/261 260/260/260
f 260/260/260 261/261/261 262/262/262
f 261/261/261 263/263/263 262/262/262
f 262/262/262 263/263/263 264/264/264
f 263/263/263 265/265/265 264/264/264
f 264/264/264 265/265/265 266/266/266
f 265/265/265 267/267/267 266/266/266
f 266/266/266 267/267/267 268/268/268
f 267/267/267 269/269/269 268/268/268
f 272/272/272 271/271/271 270/270/270
f 271/271/271 273/273/273 270/270/270
f 270/270/270 273/273/273 274/274/274
f 273/273/273 275/275/275 274/274/274
f 274/274/274 275/275/275 276/276/276
f 275/275/275 277/277/277 276/276/276
f 276/276/276 277/277/277 278/278/278
f 277/277/277 279/279/279 278/278/278
f 278/278/278 279/279/279 280/280/280
f 279/279/279 281/281/281 280/280/280
f 280/280/280 281/281/281 282/282/282
f 281/281/281 283/283/283 282/282/282
f 282/282/282 283/283/283 284/284/284
f 283/283/283 285/285/285 284/284/284
f 284/284/284 285/285/285 286/286/286
f 285/285/285 287/287/287 286/286/286
f 290/290/290 289/289/289 288/288/288
f 289/289/289 291/291/291 288/288/288
f 289/289/289 292/292/292 291/291/291
f 292/292/292 293/293/293 291/291/291
f 292/292/292 294/294/294 293/293/293
f 294/294/294 295/295/295 293/293/293
f 294/294/294 296/296/296 295/295/295
f 296/296/296 297/297/297 295/295/295
f 296/296/296 298/298/298 297/297/297
f 298/298/298 299/299/299 297/297/297
f 298/298/298 300/300/300 299/299/299
f 300/300/300 301/301/301 299/299/299
f 300/300/300 302/302/302 301/301/301
f 302/302/302 303/303/303 301/301/301
f 302/302/302 304/304/304 303/303/303
f 304/304/304 305/305/305 303/303/303
f 308/308/308 307/307/307 306/306/306
f 307/307/307 309/309/309 306/306/306
f 306/306/306 309/309/309 310/310/310
f 309/309/309 311/311/311 310/310/310
f 310/310/310 311/311/311 312/312/312
f 311/311/311 313/313/313 312/312/312
f 312/312/312 313/313/313 314/314/314
f 313/313/313 315/315/315 314/314/314
f 314/314/314 315/315/315 316/316/316
f 315/315/315 317/317/317 316/316/316
f 316/316/316 317/317/317 318/318/318
f 317/317/317 319/319/319 318/318/318
f 318/318/318 319/319/319 320/320/320
f 319/319/319 321/321/321 320/320/320
f 320/320/320 321/321/321 322/322/322
f 321/321/321 323/323/323 322/322/322
f 326/326/326 325/325/325 324/324/324
f 327/327/327 326/326/326 324/324/324
f 328/328/328 326/326/326 327/327/327
f 329/329/329 328/328/328 327/327/327
f 330/330/330 328/328/328 329/329/329
f 331/331/331 330/330/330 329/329/329
f 332/332/332 330/330/330 331/331/331
f 333/333/333 332/332/332 331/331/331
f 334/334/334 332/332/332 333/333/333
f 335/335/335 334/334/334 333/333/333
f 336/336/336 334/334/334 335/335/335
f 337/337/337 336/336/336 335/335/335
f 338/338/338 336/336/336 337/337/337
f 339/339/339 338/338/338 337/337/337
f 340/340/340 338/338/338 339/339/339
f 341/341/341 340/340/340 339/339/339
f 344/344/344 343/343/343 342/342/342
f 345/345/345 344/344/344 342/342/342
f 346/346/346 344/344/344 345/345/345
f 347/347/347 346/346/346 345/345/345
f 348/348/348 346/346/346 347/347/347
f 349/349/349 348/348/348 347/347/347
f 350/350/350 348/348/348 349/349/349
f 351/351/351 350/350/350 349/349/349
f 352/352/352 350/350/350 351/351/351
f 353/353/353 352/352/352 351/351/351
f 356/356/356 355/355/355 354/354/354
f 355/355/355 357/357/357 354/354/354
f 354/354/354 357/357/357 358/358/358
f 357/357/357 359/359/359 358/358/358
f 358/358/358 359/359/359 360/360/360
f 359/359/359 361/361/361 360/360/360
f 364/364/364 363/363/363 362/362/362
f 365/365/365 364/364/364 362/362/362
f 365/365/365 362/362/362 366/366/366
f 367/367/367 365/365/365 366/366/366
f 367/367/367 366/366/366 368/368/368
f 367/367/367 369/369/369 365/365/365
f 369/369/369 370/370/370 365/365/365
f 371/371/371 367/367/367 368/368/368
f 371/371/371 368/368/368 372/372/372
f 373/373/373 371/371/371 372/372/372
f 373/373/373 372/372/372 374/374/374
f 373/373/373 375/375/375 371/371/371
f 375/375/375 376/376/376 371/371/371
f 377/377/377 373/373/373 374/374/374
f 377/377/377 374/374/374 378/378/378
f 379/379/379 377/377/377 378/378/378
f 379/379/379 378/378/378 380/380/380
f 381/381/381 379/379/379 380/380/380
f 379/379/379 382/382/382 377/377/377
f 382/382/382 383/383/383 377/377/377
f 386/386/386 385/385/385 384/384/384
f 387/387/387 386/386/386 384/384/384
f 390/390/390 389/389/389 388/388/388
f 391/391/391 390/390/390 388/388/388
f 391/391/391 388/388/388 392/392/392
f 393/393/393 391/391/391 392/392/392
f 393/393/393 392/392/392 394/394/394
f 393/393/393 395/395/395 391/391/391
f 395/395/395 396/396/396 391/391/391
f 397/397/397 393/393/393 394/394/394
f 397/397/397 394/394/394 398/398/398
f 399/399/399 397/397/397 398/398/398
f 399/399/399 398/398/398 400/400/400
f 399/399/399 401/401/401 397/397/397
f 401/401/401 402/402/402 397/397/397
f 403/403/403 399/399/399 400/400/400
f 403/403/403 400/400/400 404/404/404
f 405/405/405 403/403/403 404/404/404
f 405/405/405 404/404/404 406/406/406
f 407/407/407 405/405/405 406/406/406
f 405/405/405 408/408/408 403/403/403
f 408/408/408 409/409/409 403/403/403
f 412/412/412 411/411/411 410/410/410
f 413/413/413 412/412/412 410/410/410
f 416/416/416 415/415/415 414/414/414
f 417/417/417 416/416/416 414/414/414
f 417/417/417 414/414/414 418/418/418
f 419/419/419 417/417/417 418/418/418
f 419/419/419 418/418/418 420/420/420
f 421/421/421 419/419/419 420/420/420
f 421/421/421 420/420/420 422/422/422
f 423/423/423 421/421/421 422/422/422
f 423/423/423 422/422/422 424/424/424
f 425/425/425 423/423/423 424/424/424
f 425/425/425 424/424/424 426/426/426
f 427/427/427 425/425/425 426/426/426
f 427/427/427 426/426/426 428/428/428
f 429/429/429 427/427/427 428/428/428
f 432/432/432 431/431/431 430/430/430
f 433/433/433 432/432/432 430/430/430
f 436/436/436 435/435/435 434/434/434
f 437/437/437 436/436/436 434/434/434
f 440/440/440 439/439/439 438/438/438
f 441/441/441 440/440/440 438/438/438
f 444/444/444 443/443/443 442/442/442
f 445/445/445 444/444/444 442/442/442
f 448/448/448 447/447/447 446/446/446
f 449/449/449 448/448/448 446/446/446
f 452/452/452 451/451/451 450/450/450
f 453/453/453 452/452/452 450/450/450
f 456/456/456 455/455/455 454/454/454
f 457/457/457 456/456/456 454/454/454
f 460/460/460 459/459/459 458/458/458
f 461/461/461 460/460/460 458/458/458
f 464/464/464 463/463/463 462/462/462
f 465/465/465 464/464/464 462/462/462
f 468/468/468 467/467/467 466/466/466
f 469/469/469 468/468/468 466/466/466
f 472/472/472 471/471/471 470/470/470
f 473/473/473 472/472/472 470/470/470
f 476/476/476 475/475/475 474/474/474
f 477/477/477 476/476/476 474/474/474
f 480/480/480 479/479/479 478/478/478
f 481/481/481 480/480/480 478/478/478
f 484/484/484 483/483/483 482/482/482
f 485/485/485 484/484/484 482/482/482
f 486/486/486 484/484/484 485/485/485
f 487/487/487 486/486/486 485/485/485
f 488/488/488 486/486/486 487/487/487
f 489/489/489 488/488/488 487/487/487
f 490/490/490 488/488/488 489/489/489
f 491/491/491 490/490/490 489/489/489
f 492/492/492 490/490/490 491/491/491
f 493/493/493 492/492/492 491/491/491
f 494/494/494 492/492/492 493/493/493
f 495/495/495 494/494/494 493/493/493
f 496/496/496 494/494/494 495/495/495
f 497/497/497 496/496/496 495/495/495
f 498/498/498 496/496/496 497/497/497
f 499/499/499 498/498/498 497/497/497
f 502/502/502 501/501/501 500/500/500
f 503/503/503 502/502/502 500/500/500
f 504/504/504 502/502/502 503/503/503
f 505/505/505 504/504/504 503/503/503
f 506/506/506 504/504/504 505/505/505
f 507/507/507 506/506/506 505/505/505
f 508/508/508 506/506/506 507/507/507
f 509/509/509 508/508/508 507/507/507
f 510/510/510 508/508/508 509/509/509
f 511/511/511 510/510/510 509/509/509
f 512/512/512 510/510/510 511/511/511
f 513/513/513 512/512/512 511/511/511
f 514/514/514 512/512/512 513/513/513
f 515/515/515 514/514/514 513/513/513
f 516/516/516 514/514/514 515/515/515
f 517/517/517 516/516/516 515/515/515
f 520/520/520 519/519/519 518/518/518
f 519/519/519 521/521/521 518/518/518
f 518/518/518 521/521/521 522/522/522
f 521/521/521 523/523/523 522/522/522
f 526/526/526 525/525/525 524/524/524
f 525/525/525 527/527/527 524/524/524
f 524/524/524 527/527/527 528/528/528
f 527/527/527 529/529/529 528/528/528
f 528/528/528 529/529/529 530/530/530
f 529/529/529 531/531/531 530/530/530
f 530/530/530 531/531/531 532/532/532
f 531/531/531 533/533/533 532/532/532
f 532/532/532 533/533/533 534/534/534
f 533/533/533 535/535/535 534/534/534
f 534/534/534 535/535/535 536/536/536
f 535/535/535 537/537/537 536/536/536
f 540/540/540 539/539/539 538/538/538
f 541/541/541 540/540/540 538/538/538
f 542/542/542 540/540/540 541/541/541
f 543/543/543 542/542/542 541/541/541
f 544/544/544 542/542/542 543/543/543
f 545/545/545 544/544/544 543/543/543
f 546/546/546 544/544/544 545/545/545
f 547/547/547 546/546/546 545/545/545
f 548/548/548 546/546/546 547/547/547
f 549/549/549 548/548/548 547/547/547
f 550/550/550 548/548/548 549/549/549
f 551/551/551 550/550/550 549/549/549
f 552/552/552 550/550/550 551/551/551
f 553/553/553 552/552/552 551/551/551
f 554/554/554 552/552/552 553/553/553
f 555/555/555 554/554/554 553/553/553
f 558/558/558 557/557/557 556/556/556
f 559/559/559 558/558/558 556/556/556
f 562/562/562 561/561/561 560/560/560
f 561/561/561 563/563/563 560/560/560
f 561/561/561 564/564/564 563/563/563
f 564/564/564 565/565/565 563/563/563
f 564/564/564 566/566/566 565/565/565
f 566/566/566 567/567/567 565/565/565
f 566/566/566 568/568/568 567/567/567
f 568/568/568 569/569/569 567/567/567
f 568/568/568 570/570/570 569/569/569
f 570/570/570 571/571/571 569/569/569
f 570/570/570 572/572/572 571/571/571
f 572/572/572 573/573/573 571/571/571
f 572/572/572 574/574/574 573/573/573
f 574/574/574 575/575/575 573/573/573
f 574/574/574 576/576/576 575/575/575
f 576/576/576 577/577/577 575/575/575
f 576/576/576 578/578/578 577/577/577
f 578/578/578 579/579/579 577/577/577
f 578/578/578 580/580/580 579/579/579
f 580/580/580 581/581/581 579/579/579
f 580/580/580 582/582/582 581/581/581
f 582/582/582 583/583/583 581/581/581
f 582/582/582 584/584/584 583/583/583
f 584/584/584 585/585/585 583/583/583
f 588/588/588 587/587/587 586/586/586
f 586/586/586 589/589/589 588/588/588
f 589/589/589 590/590/590 588/588/588
f 589/589/589 591/591/591 590/590/590
f 591/591/591 592/592/592 590/590/590
f 591/591/591 593/593/593 592/592/592
f 593/593/593 594/594/594 592/592/592
f 593/593/593 595/595/595 594/594/594
f 595/595/595 596/596/596 594/594/594
f 595/595/595 597/597/597 596/596/596
f 600/600/600 599/599/599 598/598/598
f 598/598/598 601/601/601 600/600/600
f 601/601/601 602/602/602 600/600/600
f 601/601/601 603/603/603 602/602/602
f 603/603/603 604/604/604 602/602/602
f 603/603/603 605/605/605 604/604/604
f 605/605/605 606/606/606 604/604/604
f 605/605/605 607/607/607 606/606/606
f 607/607/607 608/608/608 606/606/606
f 607/607/607 609/609/609 608/608/608
f 612/612/612 611/611/611 610/610/610
f 613/613/613 612/612/612 610/610/610
f 616/616/616 615/615/615 614/614/614
f 617/617/617 616/616/616 614/614/614
f 620/620/620 619/619/619 618/618/618
f 621/621/621 620/620/620 618/618/618
f 624/624/624 623/623/623 622/622/622
f 625/625/625 624/624/624 622/622/622
f 628/628/628 627/627/627 626/626/626
f 629/629/629 628/628/628 626/626/626
f 632/632/632 631/631/631 630/630/630
f 633/633/633 632/632/632 630/630/630
f 636/636/636 635/635/635 634/634/634
f 637/637/637 636/636/636 634/634/634
f 640/640/640 639/639/639 638/638/638
f 641/641/641 640/640/640 638/638/638
f 644/644/644 643/643/643 642/642/642
f 645/645/645 644/644/644 642/642/642
f 648/648/648 647/647/647 646/646/646
f 649/649/649 648/648/648 646/646/646
f 652/652/652 651/651/651 650/650/650
f 653/653/653 652/652/652 650/650/650
f 656/656/656 655/655/655 654/654/654
f 657/657/657 656/656/656 654/654/654
f 660/660/660 659/659/659 658/658/658
f 659/659/659 661/661/661 658/658/658
f 658/658/658 661/661/661 662/662/662
f 661/661/661 663/663/663 662/662/662
f 664/664/664 662/662/662 663/663/663
f 665/665/665 664/664/664 663/663/663
f 668/668/668 667/667/667 666/666/666
f 667/667/667 669/669/669 666/666/666
f 666/666/666 669/669/669 670/670/670
f 671/671/671 666/666/666 670/670/670
f 672/672/672 671/671/671 670/670/670
f 673/673/673 672/672/672 670/670/670
f 676/676/676 675/675/675 674/674/674
f 677/677/677 676/676/676 674/674/674
f 677/677/677 674/674/674 678/678/678
f 679/679/679 677/677/677 678/678/678
f 679/679/679 678/678/678 680/680/680
f 681/681/681 679/679/679 680/680/680
f 681/681/681 680/680/680 682/682/682
f 683/683/683 681/681/681 682/682/682
f 686/686/686 685/685/685 684/684/684
f 687/687/687 686/686/686 684/684/684
f 687/687/687 684/684/684 688/688/688
f 689/689/689 687/687/687 688/688/688
f 689/689/689 688/688/688 690/690/690
f 691/691/691 689/689/689 690/690/690
f 691/691/691 690/690/690 692/692/692
f 693/693/693 691/691/691 692/692/692
f 696/696/696 695/695/695 694/694/694
f 695/695/695 697/697/697 694/694/694
f 698/698/698 694/694/694 697/697/697
f 695/695/695 699/699/699 697/697/697
f 700/700/700 698/698/698 697/697/697
f 701/701/701 698/698/698 700/700/700
f 702/702/702 701/701/701 700/700/700
f 699/699/699 703/703/703 697/697/697
f 700/700/700 697/697/697 703/703/703
f 699/699/699 704/704/704 703/703/703
f 702/702/702 700/700/700 705/705/705
f 705/705/705 700/700/700 703/703/703
f 706/706/706 702/702/702 705/705/705
f 704/704/704 707/707/707 703/703/703
f 705/705/705 703/703/703 707/707/707
f 704/704/704 708/708/708 707/707/707
f 708/708/708 709/709/709 707/707/707
f 706/706/706 705/705/705 710/710/710
f 710/710/710 705/705/705 707/707/707
f 710/710/710 707/707/707 709/709/709
f 711/711/711 706/706/706 710/710/710
f 712/712/712 710/710/710 709/709/709
f 711/711/711 710/710/710 712/712/712
f 713/713/713 711/711/711 712/712/712
f 716/716/716 715/715/715 714/714/714
f 715/715/715 717/717/717 714/714/714
f 714/714/714 717/717/717 718/718/718
f 715/715/715 719/719/719 717/717/717
f 717/717/717 720/720/720 718/718/718
f 721/721/721 718/718/718 720/720/720
f 722/722/722 721/721/721 720/720/720
f 719/719/719 723/723/723 717/717/717
f 717/717/717 723/723/723 720/720/720
f 719/719/719 724/724/724 723/723/723
f 722/722/722 720/720/720 725/725/725
f 723/723/723 725/725/725 720/720/720
f 726/726/726 722/722/722 725/725/725
f 724/724/724 727/727/727 723/723/723
f 725/725/725 723/723/723 727/727/727
f 724/724/724 728/728/728 727/727/727
f 728/728/728 729/729/729 727/727/727
f 726/726/726 725/725/725 730/730/730
f 730/730/730 725/725/725 727/727/727
f 727/727/727 729/729/729 730/730/730
f 731/731/731 726/726/726 730/730/730
f 729/729/729 732/732/732 730/730/730
f 731/731/731 730/730/730 732/732/732
f 733/733/733 731/731/731 732/732/732
