g Wing Assasins Training New
v 0.39229977 -0.63154614 -0.2539823
v -0.39230263 -0.63154614 -0.2539823
v -0.39230263 -0.63154614 3.0183647
v 0.39229977 -0.63154614 3.0183647
v 0.6315454 -0.3923005 -0.2539823
v 0.6315454 -0.3923005 3.0183647
v 0.6315454 0.39230192 -0.2539823
v 0.6315454 0.39230192 3.0183647
v 0.39229977 0.6315476 -0.2539823
v 0.39229977 0.6315476 3.0183647
v -0.39230263 0.6315476 -0.2539823
v -0.39230263 0.6315476 3.0183647
v -0.6315483 0.39230192 -0.2539823
v -0.6315483 0.39230192 3.0183647
v -0.6315483 -0.3923005 -0.2539823
v -0.6315483 -0.3923005 3.0183647
v -0.39230263 -0.63154614 -0.2539823
v -0.39230263 -0.63154614 3.0183647
v 0.39229977 0.6315476 3.0183647
v 0.6315454 0.39230192 3.0183647
v 0.6315454 -0.3923005 3.0183647
v 0.39229977 -0.63154614 3.0183647
v -0.39230263 0.6315476 3.0183647
v -0.39230263 -0.63154614 3.0183647
v -0.6315483 0.39230192 3.0183647
v -0.6315483 -0.3923005 3.0183647
v -2.2745255E-09 0.9460117 3.0375564
v 0.47300586 0.8192702 3.4508936
v -2.2745255E-09 0.9460117 3.4508936
v 0.47300586 0.8192702 3.0375564
v 0.81927025 0.47300577 3.4508936
v 0.81927025 0.47300577 3.0375564
v 0.94601166 -4.305599E-08 3.4508936
v 0.94601166 -4.305599E-08 3.0375564
v 0.81927013 -0.47300592 3.4508936
v 0.81927013 -0.47300592 3.0375564
v 0.47300592 -0.8192702 3.4508936
v 0.47300592 -0.8192702 3.0375564
v -8.497749E-08 -0.9460117 3.4508936
v -8.497749E-08 -0.9460117 3.0375564
v -0.47300577 -0.8192702 3.4508936
v -0.47300577 -0.8192702 3.0375564
v -0.81927025 -0.47300577 3.4508936
v -0.81927025 -0.47300577 3.0375564
v -0.9460118 9.576572E-09 3.4508936
v -0.9460118 9.576572E-09 3.0375564
v -0.81927025 0.4730057 3.4508936
v -0.81927025 0.4730057 3.0375564
v -0.47300598 0.8192701 3.4508936
v -0.47300598 0.8192701 3.0375564
v -2.2745255E-09 0.9460117 3.4508936
v -2.2745255E-09 0.9460117 3.0375564
v 0.81927025 0.47300577 3.4508936
v 0.94601166 -4.305599E-08 3.4508936
v 0.81927013 -0.47300592 3.4508936
v 0.47300586 0.8192702 3.4508936
v 0.47300592 -0.8192702 3.4508936
v -8.497749E-08 -0.9460117 3.4508936
v -2.2745255E-09 0.9460117 3.4508936
v -0.47300598 0.8192701 3.4508936
v -0.47300577 -0.8192702 3.4508936
v -0.81927025 -0.47300577 3.4508936
v -0.81927025 0.4730057 3.4508936
v -0.9460118 9.576572E-09 3.4508936
v 0.81927013 -0.47300592 3.0375564
v 0.94601166 -4.305599E-08 3.0375564
v 0.81927025 0.47300577 3.0375564
v 0.47300586 0.8192702 3.0375564
v 0.47300592 -0.8192702 3.0375564
v -8.497749E-08 -0.9460117 3.0375564
v -2.2745255E-09 0.9460117 3.0375564
v -0.47300598 0.8192701 3.0375564
v -0.47300577 -0.8192702 3.0375564
v -0.81927025 -0.47300577 3.0375564
v -0.81927025 0.4730057 3.0375564
v -0.9460118 9.576572E-09 3.0375564
v -9.861782E-09 0.46142393 2.9055364
v 0.48164228 0.8342288 4.7852273
v 1.5328645E-09 0.9632845 4.7852273
v 0.230712 0.39960486 2.9055364
v 0.834229 0.4816422 4.7852273
v 0.39960492 0.23071194 2.9055364
v 0.96328443 -4.707651E-08 4.7852273
v 0.46142393 -3.4062975E-08 2.9055364
v 0.834229 -0.48164237 4.7852273
v 0.39960486 -0.23071204 2.9055364
v 0.48164234 -0.8342288 4.7852273
v 0.230712 -0.39960492 2.9055364
v -8.2680145E-08 -0.9632845 4.7852273
v -5.0200747E-08 -0.461424 2.9055364
v -0.4816422 -0.8342288 4.7852273
v -0.23071194 -0.39960492 2.9055364
v -0.834229 -0.4816422 4.7852273
v -0.39960492 -0.23071195 2.9055364
v -0.96328473 6.5170482E-09 4.7852273
v -0.46142405 -8.391066E-09 2.9055364
v -0.834229 0.48164213 4.7852273
v -0.39960492 0.23071189 2.9055364
v -0.4816424 0.83422875 4.7852273
v -0.23071206 0.3996048 2.9055364
v 1.5328645E-09 0.9632845 4.7852273
v -9.861782E-09 0.46142393 2.9055364
v 0.39960486 -0.23071204 2.9055364
v 0.46142393 -3.4062975E-08 2.9055364
v 0.39960492 0.23071194 2.9055364
v 0.230712 0.39960486 2.9055364
v 0.230712 -0.39960492 2.9055364
v -5.0200747E-08 -0.461424 2.9055364
v -9.861782E-09 0.46142393 2.9055364
v -0.23071206 0.3996048 2.9055364
v -0.23071194 -0.39960492 2.9055364
v -0.39960492 -0.23071195 2.9055364
v -0.39960492 0.23071189 2.9055364
v -0.46142405 -8.391066E-09 2.9055364
v 0.002582401 0.0014905334 8.57161
v 0.002981782 -1.4984604E-08 8.57161
v 0.002582401 -0.0014905632 8.57161
v 0.0014912486 0.0025816858 8.57161
v 0.0014912486 -0.0025817156 8.57161
v 7.1786116E-07 0.0029810667 8.57161
v 7.175569E-07 -0.0029810667 8.57161
v -0.0014898181 0.0025816858 8.57161
v -0.0014898181 -0.0025817156 8.57161
v -0.0025809705 0.0014905334 8.57161
v -0.0025809705 -0.0014905632 8.57161
v -0.0029803514 -1.4835344E-08 8.57161
v 0.39229977 -0.63154614 -0.2539823
v 0.6315454 -0.3923005 -0.2539823
v 0.6315454 0.39230192 -0.2539823
v 0.39229977 0.6315476 -0.2539823
v -0.39230263 -0.63154614 -0.2539823
v -0.39230263 0.6315476 -0.2539823
v -0.6315483 -0.3923005 -0.2539823
v -0.6315483 0.39230192 -0.2539823
v 0.2643026 0.45778507 4.397997
v 7.1786116E-07 0.0029810667 8.57161
v 2.5564842E-07 0.5286047 4.397997
v 0.0014912486 0.0025816858 8.57161
v -0.0014898181 0.0025816858 8.57161
v 0.4577854 0.2643023 4.397997
v -0.26430216 0.45778504 4.397997
v 0.002582401 0.0014905334 8.57161
v -0.0025809705 0.0014905334 8.57161
v 0.52860487 -2.9697272E-08 4.397997
v -0.45778486 0.26430222 4.397997
v 0.002981782 -1.4984604E-08 8.57161
v -0.0029803514 -1.4835344E-08 8.57161
v 0.45778534 -0.2643024 4.397997
v -0.5286045 -3.230337E-09 4.397997
v 0.002582401 -0.0014905632 8.57161
v -0.0025809705 -0.0014905632 8.57161
v 0.26430264 -0.45778507 4.397997
v -0.45778486 -0.26430225 4.397997
v 0.0014912486 -0.0025817156 8.57161
v -0.0014898181 -0.0025817156 8.57161
v 2.0169304E-07 -0.5286047 4.397997
v -0.26430202 -0.45778507 4.397997
v 7.175569E-07 -0.0029810667 8.57161
v 0.23413335 0.4055308 5.901146
v 2.5564842E-07 0.5286047 4.397997
v -3.4178793E-09 0.46826664 5.901146
v 0.2643026 0.45778507 4.397997
v -0.26430216 0.45778504 4.397997
v 0.40553087 0.23413332 5.901146
v -0.23413341 0.40553078 5.901146
v 0.4577854 0.2643023 4.397997
v -0.45778486 0.26430222 4.397997
v 0.46826658 -2.8575336E-08 5.901146
v -0.40553087 0.23413324 5.901146
v 0.52860487 -2.9697272E-08 4.397997
v -0.5286045 -3.230337E-09 4.397997
v 0.4055308 -0.23413338 5.901146
v -0.46826676 -5.1294906E-09 5.901146
v 0.45778534 -0.2643024 4.397997
v -0.45778486 -0.26430225 4.397997
v 0.23413338 -0.4055308 5.901146
v -0.40553087 -0.23413324 5.901146
v 0.26430264 -0.45778507 4.397997
v -0.26430202 -0.45778507 4.397997
v -5.121447E-08 -0.4682667 5.901146
v -0.23413327 -0.4055308 5.901146
v 2.0169304E-07 -0.5286047 4.397997
v -0.40553087 0.23413324 5.901146
v -0.834229 0.48164213 4.7852273
v -0.4816424 0.83422875 4.7852273
v -0.46826676 -5.1294906E-09 5.901146
v -0.23413341 0.40553078 5.901146
v -0.96328473 6.5170482E-09 4.7852273
v 1.5328645E-09 0.9632845 4.7852273
v -0.40553087 -0.23413324 5.901146
v -3.4178793E-09 0.46826664 5.901146
v -0.834229 -0.4816422 4.7852273
v 0.48164228 0.8342288 4.7852273
v -0.23413327 -0.4055308 5.901146
v 0.23413335 0.4055308 5.901146
v -0.4816422 -0.8342288 4.7852273
v 0.834229 0.4816422 4.7852273
v -5.121447E-08 -0.4682667 5.901146
v 0.40553087 0.23413332 5.901146
v -8.2680145E-08 -0.9632845 4.7852273
v 0.96328443 -4.707651E-08 4.7852273
v 0.23413338 -0.4055308 5.901146
v 0.46826658 -2.8575336E-08 5.901146
v 0.48164234 -0.8342288 4.7852273
v 0.834229 -0.48164237 4.7852273
v 0.4055308 -0.23413338 5.901146
vt 0.375 0.79735315
vt 0.375 0.9526469
vt 0.625 0.95264685
vt 0.625 0.7973531
vt 0.375 0.7026469
vt 0.625 0.7026469
vt 0.375 0.54735315
vt 0.625 0.54735315
vt 0.375 0.4526469
vt 0.625 0.45264688
vt 0.375 0.29735312
vt 0.625 0.29735312
vt 0.375 0.2026469
vt 0.625 0.20264688
vt 0.375 0.04735312
vt 0.625 0.047353107
vt 0.375 0
vt 0.625 0
vt 0.625 0.4526469
vt 0.625 0.54735315
vt 0.625 0.7026469
vt 0.625 0.79735315
vt 0.625 0.29735312
vt 0.625 0.9526469
vt 0.625 0.39205933
vt 0.625 0.8579407
vt 1 0.5
vt 0.9166667 1
vt 1 1
vt 0.9166667 0.5
vt 0.8333334 1
vt 0.8333334 0.5
vt 0.75000006 1
vt 0.75000006 0.5
vt 0.66666675 1
vt 0.66666675 0.5
vt 0.58333343 1
vt 0.58333343 0.5
vt 0.5000001 1
vt 0.5000001 0.5
vt 0.41666678 1
vt 0.41666678 0.5
vt 0.33333343 1
vt 0.33333343 0.5
vt 0.2500001 1
vt 0.2500001 0.5
vt 0.16666675 1
vt 0.16666675 0.5
vt 0.08333341 1
vt 0.08333341 0.5
vt 7.4505806E-08 1
vt 7.4505806E-08 0.5
vt 0.4578461 0.37
vt 0.49 0.24999999
vt 0.4578461 0.13
vt 0.37 0.4578461
vt 0.37 0.04215391
vt 0.24999999 0.010000005
vt 0.25 0.49
vt 0.12999997 0.45784608
vt 0.13000001 0.04215391
vt 0.042153895 0.13000003
vt 0.042153895 0.36999997
vt 0.010000005 0.25
vt 0.9578461 0.13
vt 0.99 0.24999999
vt 0.9578461 0.37
vt 0.87 0.4578461
vt 0.87 0.04215391
vt 0.75 0.010000005
vt 0.75 0.49
vt 0.62999994 0.45784608
vt 0.63 0.04215391
vt 0.5421539 0.13000003
vt 0.5421539 0.36999997
vt 0.51 0.25
vt 1 0.5
vt 0.9166667 1
vt 1 1
vt 0.9166667 0.5
vt 0.8333334 1
vt 0.8333334 0.5
vt 0.75000006 1
vt 0.75000006 0.5
vt 0.66666675 1
vt 0.66666675 0.5
vt 0.58333343 1
vt 0.58333343 0.5
vt 0.5000001 1
vt 0.5000001 0.5
vt 0.41666678 1
vt 0.41666678 0.5
vt 0.33333343 1
vt 0.33333343 0.5
vt 0.2500001 1
vt 0.2500001 0.5
vt 0.16666675 1
vt 0.16666675 0.5
vt 0.08333341 1
vt 0.08333341 0.5
vt 7.4505806E-08 1
vt 7.4505806E-08 0.5
vt 0.9578461 0.13
vt 0.99 0.24999999
vt 0.9578461 0.37
vt 0.87 0.4578461
vt 0.87 0.04215391
vt 0.75 0.010000005
vt 0.75 0.49
vt 0.62999994 0.45784608
vt 0.63 0.04215391
vt 0.5421539 0.13000003
vt 0.5421539 0.36999997
vt 0.51 0.25
vt 0.41509488 0.34531754
vt 0.44063517 0.25
vt 0.41509488 0.15468241
vt 0.3453176 0.41509485
vt 0.34531754 0.084905125
vt 0.24999999 0.44063511
vt 0.24999997 0.059364844
vt 0.15468237 0.4150948
vt 0.15468244 0.08490511
vt 0.084905095 0.34531748
vt 0.08490511 0.15468246
vt 0.05936484 0.25
vt 0.32764688 0.75
vt 0.375 0.7026469
vt 0.375 0.54735315
vt 0.3276469 0.5
vt 0.17235312 0.75
vt 0.17235312 0.5
vt 0.125 0.7026469
vt 0.125 0.54735315
vt 0.3453176 0.41509485
vt 0.24999999 0.44063511
vt 0.24999999 0.44063511
vt 0.3453176 0.41509485
vt 0.15468237 0.4150948
vt 0.41509488 0.34531754
vt 0.15468237 0.4150948
vt 0.41509488 0.34531754
vt 0.084905095 0.34531748
vt 0.44063517 0.25
vt 0.084905095 0.34531748
vt 0.44063517 0.25
vt 0.05936484 0.25
vt 0.41509488 0.15468241
vt 0.05936484 0.25
vt 0.41509488 0.15468241
vt 0.08490511 0.15468246
vt 0.34531754 0.084905125
vt 0.08490511 0.15468246
vt 0.34531754 0.084905125
vt 0.15468244 0.08490511
vt 0.24999997 0.059364844
vt 0.15468244 0.08490511
vt 0.24999997 0.059364844
vt 0.3453176 0.41509485
vt 0.24999999 0.44063511
vt 0.24999999 0.44063511
vt 0.3453176 0.41509485
vt 0.15468237 0.4150948
vt 0.41509488 0.34531754
vt 0.15468237 0.4150948
vt 0.41509488 0.34531754
vt 0.084905095 0.34531748
vt 0.44063517 0.25
vt 0.084905095 0.34531748
vt 0.44063517 0.25
vt 0.05936484 0.25
vt 0.41509488 0.15468241
vt 0.05936484 0.25
vt 0.41509488 0.15468241
vt 0.08490511 0.15468246
vt 0.34531754 0.084905125
vt 0.08490511 0.15468246
vt 0.34531754 0.084905125
vt 0.15468244 0.08490511
vt 0.24999997 0.059364844
vt 0.15468244 0.08490511
vt 0.24999997 0.059364844
vt 0.084905095 0.34531748
vt 0.042153895 0.36999997
vt 0.12999997 0.45784608
vt 0.05936484 0.25
vt 0.15468237 0.4150948
vt 0.010000005 0.25
vt 0.25 0.49
vt 0.08490511 0.15468246
vt 0.24999999 0.44063511
vt 0.042153895 0.13000003
vt 0.37 0.4578461
vt 0.15468244 0.08490511
vt 0.3453176 0.41509485
vt 0.13000001 0.04215391
vt 0.4578461 0.37
vt 0.24999997 0.059364844
vt 0.41509488 0.34531754
vt 0.24999999 0.010000005
vt 0.49 0.24999999
vt 0.34531754 0.084905125
vt 0.44063517 0.25
vt 0.37 0.04215391
vt 0.4578461 0.13
vt 0.41509488 0.15468241
vn 0.3826834 -0.9238795 0
vn -0.3826834 -0.9238795 0
vn -0.3826834 -0.9238795 0
vn 0.3826834 -0.9238795 0
vn 0.9238795 -0.38268352 0
vn 0.9238795 -0.38268352 0
vn 0.9238795 0.38268352 0
vn 0.9238795 0.38268352 0
vn 0.3826834 0.9238795 0
vn 0.3826834 0.9238795 0
vn -0.3826834 0.9238795 0
vn -0.3826834 0.9238795 0
vn -0.9238795 0.38268352 0
vn -0.9238795 0.38268352 0
vn -0.9238795 -0.38268352 0
vn -0.9238795 -0.38268352 0
vn -0.3826834 -0.9238795 0
vn -0.3826834 -0.9238795 0
vn -0 0 1
vn -0 0 1
vn -0 0 1
vn -0 0 1
vn -0 0 1
vn -0 0 1
vn -0 0 1
vn -0 0 1
vn -0 1 0
vn 0.5 0.86602545 0
vn -0 1 0
vn 0.5 0.86602545 0
vn 0.8660255 0.49999985 0
vn 0.8660255 0.49999985 0
vn 1 0 0
vn 1 0 0
vn 0.8660253 -0.5000001 0
vn 0.8660253 -0.5000001 0
vn 0.4999999 -0.8660255 0
vn 0.4999999 -0.8660255 0
vn -0 -1 0
vn -0 -1 0
vn -0.5 -0.86602545 0
vn -0.5 -0.86602545 0
vn -0.8660253 -0.50000006 0
vn -0.8660253 -0.50000006 0
vn -1 0 0
vn -1 0 0
vn -0.86602545 0.4999999 0
vn -0.86602545 0.4999999 0
vn -0.5000002 0.8660253 0
vn -0.5000002 0.8660253 0
vn -0 1 0
vn -0 1 0
vn -0 0 1
vn -0 0 1
vn -0 0 1
vn -0 0 1
vn -0 0 1
vn -0 0 1
vn -0 0 1
vn -0 0 1
vn -0 0 1
vn -0 0 1
vn -0 0 1
vn -0 0 1
vn -0 0 -1
vn -0 0 -1
vn -0 0 -1
vn -0 0 -1
vn -0 0 -1
vn -0 0 -1
vn -0 0 -1
vn -0 0 -1
vn -0 0 -1
vn -0 0 -1
vn -0 0 -1
vn -0 0 -1
vn -0 0.9661569 -0.2579552
vn 0.49861914 0.8636339 0.07426566
vn -0 0.9972385 0.074265614
vn 0.48307845 0.83671635 -0.25795513
vn 0.863634 0.4986191 0.074265674
vn 0.8367165 0.48307833 -0.2579552
vn 0.9972385 0 0.07426565
vn 0.9661569 0 -0.25795522
vn 0.8636339 -0.4986192 0.07426563
vn 0.83671635 -0.4830785 -0.25795528
vn 0.4986192 -0.8636339 0.07426563
vn 0.48307842 -0.8367165 -0.25795522
vn -0 -0.9972385 0.074265614
vn -0 -0.9661569 -0.25795513
vn -0.49861908 -0.8636339 0.07426562
vn -0.48307848 -0.8367165 -0.25795513
vn -0.8636338 -0.49861947 0.07426568
vn -0.8367163 -0.48307863 -0.25795522
vn -0.9972385 0 0.07426585
vn -0.9661569 0 -0.25795525
vn -0.8636339 0.49861935 0.07426574
vn -0.83671635 0.48307845 -0.2579552
vn -0.49861935 0.8636339 0.0742656
vn -0.48307854 0.83671635 -0.2579552
vn -0 0.9972385 0.074265614
vn -0 0.9661569 -0.2579552
vn -0 0 -1
vn -0 0 -1
vn -0 0 -1
vn -0 0 -1
vn -0 0 -1
vn -0 0 -1
vn -0 0 -1
vn -0 0 -1
vn -0 0 -1
vn -0 0 -1
vn -0 0 -1
vn -0 0 -1
vn -0 0 1
vn -0 0 1
vn -0 0 1
vn -0 0 1
vn -0 0 1
vn -0 0 1
vn -0 0 1
vn -0 0 1
vn -0 0 1
vn -0 0 1
vn -0 0 1
vn -0 0 1
vn -0 0 -1
vn -0 0 -1
vn -0 0 -1
vn -0 0 -1
vn -0 0 -1
vn -0 0 -1
vn -0 0 -1
vn -0 0 -1
vn 0.4960812 0.85923815 0.124952614
vn -0 0.99216276 0.12495267
vn -0 0.99216276 0.12495267
vn 0.4960812 0.8592382 0.12495261
vn -0.49608153 0.85923797 0.124952726
vn 0.8592382 0.4960812 0.1249526
vn -0.49608153 0.85923797 0.12495272
vn 0.8592382 0.49608108 0.1249526
vn -0.8592381 0.49608132 0.124952786
vn 0.99216276 0 0.12495253
vn -0.8592381 0.49608138 0.124952756
vn 0.99216276 0 0.12495253
vn -0.99216276 0 0.12495282
vn 0.85923815 -0.49608135 0.124952585
vn -0.99216276 0 0.12495282
vn 0.8592382 -0.49608123 0.1249526
vn -0.8592381 -0.49608147 0.124952756
vn 0.49608108 -0.8592382 0.12495261
vn -0.85923797 -0.49608153 0.124952756
vn 0.4960809 -0.8592383 0.1249526
vn -0.49608108 -0.8592382 0.12495269
vn -0 -0.99216276 0.12495267
vn -0.49608132 -0.85923815 0.1249527
vn -0 -0.99216276 0.12495267
vn -0.49959764 -0.8653285 -0.040108856
vn -0 -0.9991953 -0.040108785
vn -0 -0.9991953 -0.04010878
vn -0.49959767 -0.8653285 -0.040108856
vn 0.4995978 -0.86532843 -0.040108707
vn -0.8653286 -0.49959743 -0.040108934
vn 0.49959785 -0.86532843 -0.04010871
vn -0.8653286 -0.49959743 -0.04010893
vn 0.8653285 -0.49959767 -0.04010862
vn -0.9991953 0 -0.040108945
vn 0.8653285 -0.49959767 -0.040108625
vn -0.9991953 0 -0.04010894
vn 0.9991954 0 -0.040108602
vn -0.8653286 0.49959758 -0.040108938
vn 0.9991954 0 -0.040108606
vn -0.8653286 0.49959755 -0.040108938
vn 0.8653285 0.49959773 -0.04010863
vn -0.49959755 0.8653286 -0.040108852
vn 0.8653285 0.4995978 -0.040108632
vn -0.49959764 0.8653286 -0.04010885
vn 0.49959773 0.8653285 -0.040108666
vn -0 0.9991953 -0.04010873
vn 0.4995978 0.8653285 -0.040108666
vn -0 0.9991953 -0.040108733
vn -0.7916327 0.45704964 0.40549153
vn -0.8636339 0.49861935 0.07426574
vn -0.49861935 0.8636339 0.0742656
vn -0.91409874 0 0.4054917
vn -0.45704943 0.79163283 0.40549123
vn -0.9972385 0 0.07426585
vn -0 0.9972385 0.074265614
vn -0.7916327 -0.45704967 0.40549144
vn -0 0.9140989 0.40549126
vn -0.8636338 -0.49861947 0.07426568
vn 0.49861914 0.8636339 0.07426566
vn -0.45704925 -0.791633 0.40549123
vn 0.4570492 0.79163307 0.40549126
vn -0.49861908 -0.8636339 0.07426562
vn 0.863634 0.4986191 0.074265674
vn -0 -0.9140989 0.40549126
vn 0.79163283 0.45704934 0.40549138
vn -0 -0.9972385 0.074265614
vn 0.9972385 0 0.07426565
vn 0.45704934 -0.79163295 0.40549132
vn 0.9140989 0 0.40549126
vn 0.4986192 -0.8636339 0.07426563
vn 0.8636339 -0.4986192 0.07426563
vn 0.79163295 -0.4570493 0.40549138
g Wing Assasins Training New_0
f 3/3/3 2/2/2 1/1/1
f 4/4/4 3/3/3 1/1/1
f 1/1/1 5/5/5 4/4/4
f 5/5/5 6/6/6 4/4/4
f 6/6/6 5/5/5 7/7/7
f 8/8/8 6/6/6 7/7/7
f 7/7/7 9/9/9 8/8/8
f 9/9/9 10/10/10 8/8/8
f 10/10/10 9/9/9 11/11/11
f 12/12/12 10/10/10 11/11/11
f 11/11/11 13/13/13 12/12/12
f 13/13/13 14/14/14 12/12/12
f 14/14/14 13/13/13 15/15/15
f 16/16/16 14/14/14 15/15/15
f 16/16/16 15/15/15 17/17/17
f 18/18/18 16/16/16 17/17/17
f 21/21/21 20/20/20 19/19/19
f 19/19/19 22/22/22 21/21/21
f 19/19/19 23/23/23 22/22/22
f 23/23/23 24/24/24 22/22/22
f 23/23/23 25/25/25 24/24/24
f 25/25/25 26/26/26 24/24/24
f 29/29/29 28/28/28 27/27/27
f 28/28/28 30/30/30 27/27/27
f 28/28/28 31/31/31 30/30/30
f 31/31/31 32/32/32 30/30/30
f 31/31/31 33/33/33 32/32/32
f 33/33/33 34/34/34 32/32/32
f 33/33/33 35/35/35 34/34/34
f 35/35/35 36/36/36 34/34/34
f 35/35/35 37/37/37 36/36/36
f 37/37/37 38/38/38 36/36/36
f 37/37/37 39/39/39 38/38/38
f 39/39/39 40/40/40 38/38/38
f 39/39/39 41/41/41 40/40/40
f 41/41/41 42/42/42 40/40/40
f 41/41/41 43/43/43 42/42/42
f 43/43/43 44/44/44 42/42/42
f 43/43/43 45/45/45 44/44/44
f 45/45/45 46/46/46 44/44/44
f 45/45/45 47/47/47 46/46/46
f 47/47/47 48/48/48 46/46/46
f 47/47/47 49/49/49 48/48/48
f 49/49/49 50/50/50 48/48/48
f 49/49/49 51/51/51 50/50/50
f 51/51/51 52/52/52 50/50/50
f 55/55/55 54/54/54 53/53/53
f 53/53/53 56/56/56 55/55/55
f 56/56/56 57/57/57 55/55/55
f 56/56/56 58/58/58 57/57/57
f 56/56/56 59/59/59 58/58/58
f 59/59/59 60/60/60 58/58/58
f 60/60/60 61/61/61 58/58/58
f 60/60/60 62/62/62 61/61/61
f 60/60/60 63/63/63 62/62/62
f 63/63/63 64/64/64 62/62/62
f 67/67/67 66/66/66 65/65/65
f 65/65/65 68/68/68 67/67/67
f 65/65/65 69/69/69 68/68/68
f 69/69/69 70/70/70 68/68/68
f 70/70/70 71/71/71 68/68/68
f 70/70/70 72/72/72 71/71/71
f 70/70/70 73/73/73 72/72/72
f 73/73/73 74/74/74 72/72/72
f 74/74/74 75/75/75 72/72/72
f 74/74/74 76/76/76 75/75/75
f 79/79/79 78/78/78 77/77/77
f 78/78/78 80/80/80 77/77/77
f 78/78/78 81/81/81 80/80/80
f 81/81/81 82/82/82 80/80/80
f 81/81/81 83/83/83 82/82/82
f 83/83/83 84/84/84 82/82/82
f 83/83/83 85/85/85 84/84/84
f 85/85/85 86/86/86 84/84/84
f 85/85/85 87/87/87 86/86/86
f 87/87/87 88/88/88 86/86/86
f 87/87/87 89/89/89 88/88/88
f 89/89/89 90/90/90 88/88/88
f 89/89/89 91/91/91 90/90/90
f 91/91/91 92/92/92 90/90/90
f 91/91/91 93/93/93 92/92/92
f 93/93/93 94/94/94 92/92/92
f 93/93/93 95/95/95 94/94/94
f 95/95/95 96/96/96 94/94/94
f 95/95/95 97/97/97 96/96/96
f 97/97/97 98/98/98 96/96/96
f 97/97/97 99/99/99 98/98/98
f 99/99/99 100/100/100 98/98/98
f 99/99/99 101/101/101 100/100/100
f 101/101/101 102/102/102 100/100/100
f 105/105/105 104/104/104 103/103/103
f 103/103/103 106/106/106 105/105/105
f 103/103/103 107/107/107 106/106/106
f 107/107/107 108/108/108 106/106/106
f 108/108/108 109/109/109 106/106/106
f 108/108/108 110/110/110 109/109/109
f 108/108/108 111/111/111 110/110/110
f 111/111/111 112/112/112 110/110/110
f 112/112/112 113/113/113 110/110/110
f 112/112/112 114/114/114 113/113/113
f 117/117/117 116/116/116 115/115/115
f 115/115/115 118/118/118 117/117/117
f 118/118/118 119/119/119 117/117/117
f 118/118/118 120/120/120 119/119/119
f 120/120/120 121/121/121 119/119/119
f 120/120/120 122/122/122 121/121/121
f 122/122/122 123/123/123 121/121/121
f 122/122/122 124/124/124 123/123/123
f 124/124/124 125/125/125 123/123/123
f 124/124/124 126/126/126 125/125/125
f 129/129/129 128/128/128 127/127/127
f 127/127/127 130/130/130 129/129/129
f 127/127/127 131/131/131 130/130/130
f 131/131/131 132/132/132 130/130/130
f 131/131/131 133/133/133 132/132/132
f 133/133/133 134/134/134 132/132/132
f 137/137/137 136/136/136 135/135/135
f 136/136/136 138/138/138 135/135/135
f 139/139/139 136/136/136 137/137/137
f 135/135/135 138/138/138 140/140/140
f 141/141/141 139/139/139 137/137/137
f 138/138/138 142/142/142 140/140/140
f 143/143/143 139/139/139 141/141/141
f 140/140/140 142/142/142 144/144/144
f 145/145/145 143/143/143 141/141/141
f 142/142/142 146/146/146 144/144/144
f 147/147/147 143/143/143 145/145/145
f 144/144/144 146/146/146 148/148/148
f 149/149/149 147/147/147 145/145/145
f 146/146/146 150/150/150 148/148/148
f 151/151/151 147/147/147 149/149/149
f 148/148/148 150/150/150 152/152/152
f 153/153/153 151/151/151 149/149/149
f 150/150/150 154/154/154 152/152/152
f 155/155/155 151/151/151 153/153/153
f 152/152/152 154/154/154 156/156/156
f 157/157/157 155/155/155 153/153/153
f 154/154/154 158/158/158 156/156/156
f 158/158/158 155/155/155 157/157/157
f 156/156/156 158/158/158 157/157/157
f 161/161/161 160/160/160 159/159/159
f 160/160/160 162/162/162 159/159/159
f 163/163/163 160/160/160 161/161/161
f 159/159/159 162/162/162 164/164/164
f 165/165/165 163/163/163 161/161/161
f 162/162/162 166/166/166 164/164/164
f 167/167/167 163/163/163 165/165/165
f 164/164/164 166/166/166 168/168/168
f 169/169/169 167/167/167 165/165/165
f 166/166/166 170/170/170 168/168/168
f 171/171/171 167/167/167 169/169/169
f 168/168/168 170/170/170 172/172/172
f 173/173/173 171/171/171 169/169/169
f 170/170/170 174/174/174 172/172/172
f 175/175/175 171/171/171 173/173/173
f 172/172/172 174/174/174 176/176/176
f 177/177/177 175/175/175 173/173/173
f 174/174/174 178/178/178 176/176/176
f 179/179/179 175/175/175 177/177/177
f 176/176/176 178/178/178 180/180/180
f 181/181/181 179/179/179 177/177/177
f 178/178/178 182/182/182 180/180/180
f 182/182/182 179/179/179 181/181/181
f 180/180/180 182/182/182 181/181/181
f 185/185/185 184/184/184 183/183/183
f 183/183/183 184/184/184 186/186/186
f 187/187/187 185/185/185 183/183/183
f 184/184/184 188/188/188 186/186/186
f 189/189/189 185/185/185 187/187/187
f 186/186/186 188/188/188 190/190/190
f 191/191/191 189/189/189 187/187/187
f 188/188/188 192/192/192 190/190/190
f 193/193/193 189/189/189 191/191/191
f 190/190/190 192/192/192 194/194/194
f 195/195/195 193/193/193 191/191/191
f 192/192/192 196/196/196 194/194/194
f 197/197/197 193/193/193 195/195/195
f 194/194/194 196/196/196 198/198/198
f 199/199/199 197/197/197 195/195/195
f 196/196/196 200/200/200 198/198/198
f 201/201/201 197/197/197 199/199/199
f 198/198/198 200/200/200 202/202/202
f 203/203/203 201/201/201 199/199/199
f 200/200/200 204/204/204 202/202/202
f 205/205/205 201/201/201 203/203/203
f 202/202/202 204/204/204 206/206/206
f 206/206/206 205/205/205 203/203/203
f 204/204/204 205/205/205 206/206/206
