g Wings
v -0.003986053 -0.0024117152 -4.690785E-09
v -0.0036586043 -0.0026007697 0.00013148527
v -0.0066259345 -0.009419667 6.9589536E-05
v -0.0066521796 -0.009404514 -4.238437E-09
v -0.0036586043 -0.0026007697 0.00013148527
v -0.0028680714 -0.003057184 0.00018595027
v -0.0065625724 -0.009456249 9.841626E-05
v -0.0066259345 -0.009419667 6.9589536E-05
v -0.0028680714 -0.003057184 0.00018595027
v -0.002077539 -0.0035135979 0.00013148527
v -0.006499212 -0.00949283 6.9589536E-05
v -0.0065625724 -0.009456249 9.841626E-05
v -0.002077539 -0.0035135979 0.00013148527
v -0.0017500886 -0.0037026494 -4.7129527E-09
v -0.0064729652 -0.009507983 -4.25017E-09
v -0.006499212 -0.00949283 6.9589536E-05
v -0.0017500886 -0.0037026494 -4.7129527E-09
v -0.0020775383 -0.0035135965 -0.00013149463
v -0.006499212 -0.00949283 -6.9598034E-05
v -0.0064729652 -0.009507983 -4.25017E-09
v -0.0020775383 -0.0035135965 -0.00013149463
v -0.0028680707 -0.0030571828 -0.00018595954
v -0.0065625724 -0.009456249 -9.842473E-05
v -0.006499212 -0.00949283 -6.9598034E-05
v -0.006499212 -0.00949283 -6.9598034E-05
v -0.0065625724 -0.009456249 -9.842473E-05
v -0.0066259345 -0.009419667 -6.959806E-05
v -0.0066521796 -0.009404514 -4.238437E-09
v -0.0064729652 -0.009507983 -4.25017E-09
v -0.006499212 -0.00949283 6.9589536E-05
v -0.0066259345 -0.009419667 6.9589536E-05
v -0.0065625724 -0.009456249 9.841626E-05
v -0.0028680707 -0.0030571828 -0.00018595954
v -0.0036586036 -0.0026007683 -0.00013149469
v -0.0066259345 -0.009419667 -6.959806E-05
v -0.0065625724 -0.009456249 -9.842473E-05
v -0.0036586036 -0.0026007683 -0.00013149469
v -0.003986053 -0.0024117152 -4.690785E-09
v -0.0066521796 -0.009404514 -4.238437E-09
v -0.0066259345 -0.009419667 -6.959806E-05
v -0.0036586036 -0.0026007683 -0.00013149469
v -0.0028680707 -0.0030571828 -0.00018595954
v -0.0020775383 -0.0035135965 -0.00013149463
v -0.003986053 -0.0024117152 -4.690785E-09
v -0.0017500886 -0.0037026494 -4.7129527E-09
v -0.002077539 -0.0035135979 0.00013148527
v -0.0036586043 -0.0026007697 0.00013148527
v -0.0028680714 -0.003057184 0.00018595027
v 0.0016350113 -0.0038416828 -4.690785E-09
v 0.0019624613 -0.0036526313 0.00013148527
v 0.0063841343 -0.009631863 6.9589536E-05
v 0.006357889 -0.0096470155 -4.238437E-09
v 0.0019624613 -0.0036526313 0.00013148527
v 0.0027529942 -0.0031962164 0.00018595027
v 0.006447497 -0.0095952805 9.841626E-05
v 0.0063841343 -0.009631863 6.9589536E-05
v 0.0027529942 -0.0031962164 0.00018595027
v 0.0035435264 -0.0027398022 0.00013148527
v 0.006510858 -0.009558699 6.9589536E-05
v 0.006447497 -0.0095952805 9.841626E-05
v 0.0035435264 -0.0027398022 0.00013148527
v 0.0038709748 -0.0025507482 -4.7129527E-09
v 0.0065371036 -0.009543546 -4.25017E-09
v 0.006510858 -0.009558699 6.9589536E-05
v 0.0038709748 -0.0025507482 -4.7129527E-09
v 0.0035435252 -0.002739801 -0.00013149463
v 0.006510858 -0.009558699 -6.9598034E-05
v 0.0065371036 -0.009543546 -4.25017E-09
v 0.0035435252 -0.002739801 -0.00013149463
v 0.0027529937 -0.0031962155 -0.00018595954
v 0.006447497 -0.0095952805 -9.842473E-05
v 0.006510858 -0.009558699 -6.9598034E-05
v 0.006510858 -0.009558699 -6.9598034E-05
v 0.006447497 -0.0095952805 -9.842473E-05
v 0.0063841343 -0.009631863 -6.959806E-05
v 0.006357889 -0.0096470155 -4.238437E-09
v 0.0065371036 -0.009543546 -4.25017E-09
v 0.006510858 -0.009558699 6.9589536E-05
v 0.0063841343 -0.009631863 6.9589536E-05
v 0.006447497 -0.0095952805 9.841626E-05
v 0.0027529937 -0.0031962155 -0.00018595954
v 0.0019624606 -0.0036526301 -0.00013149469
v 0.0063841343 -0.009631863 -6.959806E-05
v 0.006447497 -0.0095952805 -9.842473E-05
v 0.0019624606 -0.0036526301 -0.00013149469
v 0.0016350113 -0.0038416828 -4.690785E-09
v 0.006357889 -0.0096470155 -4.238437E-09
v 0.0063841343 -0.009631863 -6.959806E-05
v 0.0019624606 -0.0036526301 -0.00013149469
v 0.0027529937 -0.0031962155 -0.00018595954
v 0.0035435252 -0.002739801 -0.00013149463
v 0.0016350113 -0.0038416828 -4.690785E-09
v 0.0038709748 -0.0025507482 -4.7129527E-09
v 0.0035435264 -0.0027398022 0.00013148527
v 0.0019624613 -0.0036526313 0.00013148527
v 0.0027529942 -0.0031962164 0.00018595027
vt 1 0.5
vt 0.875 0.5
vt 0.875 1
vt 1 1
vt 0.875 0.5
vt 0.75 0.5
vt 0.75 1
vt 0.875 1
vt 0.75 0.5
vt 0.625 0.5
vt 0.625 1
vt 0.75 1
vt 0.625 0.5
vt 0.5 0.5
vt 0.5 1
vt 0.625 1
vt 0.5 0.5
vt 0.375 0.5
vt 0.375 1
vt 0.5 1
vt 0.375 0.5
vt 0.25 0.5
vt 0.25 1
vt 0.375 1
vt 0.080294415 0.080294415
vt 0.010000005 0.25
vt 0.08029437 0.41970557
vt 0.25 0.49
vt 0.24999997 0.010000005
vt 0.41970563 0.080294415
vt 0.41970563 0.41970557
vt 0.49 0.25
vt 0.25 0.5
vt 0.125 0.5
vt 0.125 1
vt 0.25 1
vt 0.125 0.5
vt 0 0.5
vt 0 1
vt 0.125 1
vt 0.5802944 0.41970557
vt 0.51 0.25
vt 0.58029443 0.080294415
vt 0.75 0.49
vt 0.75 0.010000005
vt 0.9197056 0.080294415
vt 0.9197056 0.41970557
vt 0.99 0.25
vt 1 0.5
vt 0.875 0.5
vt 0.875 1
vt 1 1
vt 0.875 0.5
vt 0.75 0.5
vt 0.75 1
vt 0.875 1
vt 0.75 0.5
vt 0.625 0.5
vt 0.625 1
vt 0.75 1
vt 0.625 0.5
vt 0.5 0.5
vt 0.5 1
vt 0.625 1
vt 0.5 0.5
vt 0.375 0.5
vt 0.375 1
vt 0.5 1
vt 0.375 0.5
vt 0.25 0.5
vt 0.25 1
vt 0.375 1
vt 0.080294415 0.080294415
vt 0.010000005 0.25
vt 0.08029437 0.41970557
vt 0.25 0.49
vt 0.24999997 0.010000005
vt 0.41970563 0.080294415
vt 0.41970563 0.41970557
vt 0.49 0.25
vt 0.25 0.5
vt 0.125 0.5
vt 0.125 1
vt 0.25 1
vt 0.125 0.5
vt 0 0.5
vt 0 1
vt 0.125 1
vt 0.5802944 0.41970557
vt 0.51 0.25
vt 0.58029443 0.080294415
vt 0.75 0.49
vt 0.75 0.010000005
vt 0.9197056 0.080294415
vt 0.9197056 0.41970557
vt 0.99 0.25
vn -0.41385862 0.16479076 0.8953017
vn -0.41385862 0.16479076 0.8953017
vn -0.41385862 0.16479076 0.8953017
vn -0.41385862 0.16479076 0.8953017
vn -0.08031824 0.029216569 0.99634093
vn -0.08031824 0.029216569 0.99634093
vn -0.08031824 0.029216569 0.99634093
vn -0.08031824 0.029216569 0.99634093
vn 0.06546147 -0.054949343 0.99634093
vn 0.06546147 -0.054949343 0.99634093
vn 0.06546147 -0.054949343 0.99634093
vn 0.06546147 -0.054949343 0.99634093
vn 0.3496416 -0.27601606 0.89530206
vn 0.3496416 -0.27601606 0.89530206
vn 0.3496416 -0.27601606 0.89530206
vn 0.3496416 -0.27601606 0.89530206
vn 0.34964144 -0.27601606 -0.8953022
vn 0.34964144 -0.27601606 -0.8953022
vn 0.34964144 -0.27601606 -0.8953022
vn 0.34964144 -0.27601606 -0.8953022
vn 0.06546136 -0.054949425 -0.99634093
vn 0.06546136 -0.054949425 -0.99634093
vn 0.06546136 -0.054949425 -0.99634093
vn 0.06546136 -0.054949425 -0.99634093
vn -0.50000095 -0.8660248 0
vn -0.50000095 -0.8660248 0
vn -0.50000095 -0.8660248 0
vn -0.50000095 -0.8660248 0
vn -0.50000095 -0.8660248 0
vn -0.50000095 -0.8660248 0
vn -0.50000095 -0.8660248 0
vn -0.50000095 -0.8660248 0
vn -0.08031811 0.029216373 -0.99634105
vn -0.08031811 0.029216373 -0.99634105
vn -0.08031811 0.029216373 -0.99634105
vn -0.08031811 0.029216373 -0.99634105
vn -0.41385877 0.16479076 -0.8953016
vn -0.41385877 0.16479076 -0.8953016
vn -0.41385877 0.16479076 -0.8953016
vn -0.41385877 0.16479076 -0.8953016
vn 0.4999998 0.8660255 3.8406197E-06
vn 0.4999998 0.8660255 3.8406197E-06
vn 0.4999998 0.8660255 3.8406197E-06
vn 0.4999998 0.8660255 3.8406197E-06
vn 0.4999998 0.8660255 3.8406197E-06
vn 0.4999998 0.8660255 3.8406197E-06
vn 0.4999998 0.8660255 3.8406197E-06
vn 0.4999998 0.8660255 3.8406197E-06
vn -0.3496426 -0.27601698 0.8953015
vn -0.3496426 -0.27601698 0.8953015
vn -0.3496426 -0.27601698 0.8953015
vn -0.3496426 -0.27601698 0.8953015
vn -0.065461315 -0.054949265 0.99634105
vn -0.065461315 -0.054949265 0.99634105
vn -0.065461315 -0.054949265 0.99634105
vn -0.065461315 -0.054949265 0.99634105
vn 0.080318324 0.029216638 0.99634093
vn 0.080318324 0.029216638 0.99634093
vn 0.080318324 0.029216638 0.99634093
vn 0.080318324 0.029216638 0.99634093
vn 0.4138581 0.16479066 0.895302
vn 0.4138581 0.16479066 0.895302
vn 0.4138581 0.16479066 0.895302
vn 0.4138581 0.16479066 0.895302
vn 0.4138573 0.16479023 -0.89530236
vn 0.4138573 0.16479023 -0.89530236
vn 0.4138573 0.16479023 -0.89530236
vn 0.4138573 0.16479023 -0.89530236
vn 0.08031833 0.029216534 -0.99634093
vn 0.08031833 0.029216534 -0.99634093
vn 0.08031833 0.029216534 -0.99634093
vn 0.08031833 0.029216534 -0.99634093
vn 0.49999717 -0.86602706 0
vn 0.49999717 -0.86602706 0
vn 0.49999717 -0.86602706 0
vn 0.49999717 -0.86602706 0
vn 0.49999717 -0.86602706 0
vn 0.49999717 -0.86602706 0
vn 0.49999717 -0.86602706 0
vn 0.49999717 -0.86602706 0
vn -0.06546113 -0.054949276 -0.99634105
vn -0.06546113 -0.054949276 -0.99634105
vn -0.06546113 -0.054949276 -0.99634105
vn -0.06546113 -0.054949276 -0.99634105
vn -0.34964204 -0.27601665 -0.89530176
vn -0.34964204 -0.27601665 -0.89530176
vn -0.34964204 -0.27601665 -0.89530176
vn -0.34964204 -0.27601665 -0.89530176
vn -0.5000003 0.86602527 3.8406206E-06
vn -0.5000003 0.86602527 3.8406206E-06
vn -0.5000003 0.86602527 3.8406206E-06
vn -0.5000003 0.86602527 3.8406206E-06
vn -0.5000003 0.86602527 3.8406206E-06
vn -0.5000003 0.86602527 3.8406206E-06
vn -0.5000003 0.86602527 3.8406206E-06
vn -0.5000003 0.86602527 3.8406206E-06
g Wings_0
f 3/3/3 2/2/2 1/1/1
f 4/4/4 3/3/3 1/1/1
f 7/7/7 6/6/6 5/5/5
f 8/8/8 7/7/7 5/5/5
f 11/11/11 10/10/10 9/9/9
f 12/12/12 11/11/11 9/9/9
f 15/15/15 14/14/14 13/13/13
f 16/16/16 15/15/15 13/13/13
f 19/19/19 18/18/18 17/17/17
f 20/20/20 19/19/19 17/17/17
f 23/23/23 22/22/22 21/21/21
f 24/24/24 23/23/23 21/21/21
f 27/27/27 26/26/26 25/25/25
f 25/25/25 28/28/28 27/27/27
f 25/25/25 29/29/29 28/28/28
f 29/29/29 30/30/30 28/28/28
f 30/30/30 31/31/31 28/28/28
f 30/30/30 32/32/32 31/31/31
f 35/35/35 34/34/34 33/33/33
f 36/36/36 35/35/35 33/33/33
f 39/39/39 38/38/38 37/37/37
f 40/40/40 39/39/39 37/37/37
f 43/43/43 42/42/42 41/41/41
f 41/41/41 44/44/44 43/43/43
f 44/44/44 45/45/45 43/43/43
f 44/44/44 46/46/46 45/45/45
f 44/44/44 47/47/47 46/46/46
f 47/47/47 48/48/48 46/46/46
f 51/51/51 50/50/50 49/49/49
f 52/52/52 51/51/51 49/49/49
f 55/55/55 54/54/54 53/53/53
f 56/56/56 55/55/55 53/53/53
f 59/59/59 58/58/58 57/57/57
f 60/60/60 59/59/59 57/57/57
f 63/63/63 62/62/62 61/61/61
f 64/64/64 63/63/63 61/61/61
f 67/67/67 66/66/66 65/65/65
f 68/68/68 67/67/67 65/65/65
f 71/71/71 70/70/70 69/69/69
f 72/72/72 71/71/71 69/69/69
f 75/75/75 74/74/74 73/73/73
f 73/73/73 76/76/76 75/75/75
f 73/73/73 77/77/77 76/76/76
f 77/77/77 78/78/78 76/76/76
f 78/78/78 79/79/79 76/76/76
f 78/78/78 80/80/80 79/79/79
f 83/83/83 82/82/82 81/81/81
f 84/84/84 83/83/83 81/81/81
f 87/87/87 86/86/86 85/85/85
f 88/88/88 87/87/87 85/85/85
f 91/91/91 90/90/90 89/89/89
f 89/89/89 92/92/92 91/91/91
f 92/92/92 93/93/93 91/91/91
f 92/92/92 94/94/94 93/93/93
f 92/92/92 95/95/95 94/94/94
f 95/95/95 96/96/96 94/94/94
