g Witch Queen Body
v 0.45282677 1.093225 3.2499847
v -6.266518E-07 0.69989663 3.9566894
v -5.4509513E-07 1.183298 3.2499847
v 0.26783782 0.6466202 3.9566894
v 0.8367152 0.836719 3.2499847
v -8.1115513E-07 0.7619758 4.395427
v 0.49490032 0.49490198 3.9566894
v 0.29159415 0.70397395 4.395427
v 7.1058764E-08 0.5250622 4.834165
v 0.20093217 0.4850943 4.834165
v 7.6876927E-07 0.35022783 5.711641
v 0.13402654 0.3235684 5.711641
v 0.53879637 0.5387987 4.395427
v 0.37127417 0.37127548 4.834165
v 0.24764806 0.24764895 5.711641
v 0.48509306 0.20093349 4.834165
v 0.32356754 0.13402744 5.711641
v 0.7039717 0.29159647 4.395427
v 0.6466186 0.26783952 3.9566894
v 0.5250609 1.3717784E-06 4.834165
v 0.35022694 1.661024E-06 5.711641
v 1.0932213 0.4528305 3.2499847
v 0.8367152 0.836719 3.2499847
v 1.1832942 3.2044672E-06 3.2499847
v 0.6998949 1.0825328E-06 3.9566894
v 1.0932213 -0.45282415 3.2499847
v 0.76197344 1.5266844E-06 4.395427
v 0.6466186 -0.26783738 3.9566894
v 0.8367152 -0.83671254 3.2499847
v 0.48509306 -0.20093074 4.834165
v 0.32356754 -0.13402411 5.711641
v 0.7039717 -0.29159343 4.395427
v 0.49490032 -0.49489978 3.9566894
v 0.45282677 -1.0932187 3.2499847
v 0.37127417 -0.3712727 4.834165
v 0.24764806 -0.24764563 5.711641
v 0.53879637 -0.5387956 4.395427
v 0.26783782 -0.6466181 3.9566894
v -5.4509513E-07 -1.1832916 3.2499847
v 0.20093217 -0.48509163 4.834165
v 0.13402654 -0.3235651 5.711641
v 0.29159415 -0.70397097 4.395427
v -6.266518E-07 -0.69989455 3.9566894
v -0.4528279 -1.0932187 3.2499847
v -0.2678391 -0.6466181 3.9566894
v -8.1115513E-07 -0.76197284 4.395427
v 7.105871E-08 -0.5250595 4.834165
v 7.6876927E-07 -0.35022452 5.711641
v -0.2915958 -0.70397097 4.395427
v -0.4949015 -0.49489978 3.9566894
v -0.20093206 -0.48509163 4.834165
v -0.134025 -0.3235651 5.711641
v -0.538798 -0.5387956 4.395427
v -0.371274 -0.3712727 4.834165
v -0.2476465 -0.24764563 5.711641
v -0.48509288 -0.20093074 4.834165
v -0.323566 -0.13402411 5.711641
v -0.70397323 -0.29159343 4.395427
v -0.52506083 1.3717784E-06 4.834165
v -0.35022542 1.661024E-06 5.711641
v -0.64661974 -0.26783738 3.9566894
v -0.7619751 1.5266844E-06 4.395427
v -0.48509288 0.20093349 4.834165
v -0.323566 0.13402744 5.711641
v -0.6998962 1.0825328E-06 3.9566894
v -0.70397323 0.29159647 4.395427
v -0.371274 0.37127548 4.834165
v -0.2476465 0.24764895 5.711641
v -0.64661974 0.26783952 3.9566894
v -1.0932224 0.4528305 3.2499847
v -1.1832954 3.2044672E-06 3.2499847
v -1.0932224 -0.45282415 3.2499847
v -0.8367163 -0.83671254 3.2499847
v -0.2678391 -0.6466181 3.9566894
v -0.4528279 -1.0932187 3.2499847
v -0.4949015 0.49490198 3.9566894
v -0.20093206 0.4850943 4.834165
v -0.134025 0.3235684 5.711641
v 7.1058764E-08 0.5250622 4.834165
v 7.6876927E-07 0.35022783 5.711641
v -8.1115513E-07 0.7619758 4.395427
v -0.2915958 0.70397395 4.395427
v -6.266518E-07 0.69989663 3.9566894
v -0.538798 0.5387987 4.395427
v -0.2678391 0.6466202 3.9566894
v -5.4509513E-07 1.183298 3.2499847
v -0.4528279 1.093225 3.2499847
v -0.8367163 0.836719 3.2499847
v -0.64661974 0.26783952 3.9566894
v -1.0932224 0.4528305 3.2499847
v 1.2846858E-06 1.5598673 1.77164
v -1.14015734E-07 0.9079494 2.5432801
v -0.347457 0.8388359 2.5432801
v -0.596934 1.4411294 1.77164
v -0.64201665 0.64201736 2.5432801
v 2.5251006E-07 1.468196 1
v -1.1029912 1.1029928 1.77164
v -0.83883524 0.3474577 2.5432801
v -0.56185424 1.3564361 1
v -1.4411279 0.5969355 1.77164
v -0.90794873 8.2561337E-07 2.5432801
v -0.7352547 1.7750614 0.40171725
v -6.697952E-08 1.9213126 0.40171722
v -1.0381714 1.0381712 1
v -1.5598658 2.1045973E-07 1.77164
v -0.83883524 -0.34745607 2.5432801
v -0.7966311 1.9232374 0
v -0 2.0816972 0
v -1.4719822 1.4719822 0
v -1.3585734 1.3585731 0.40171725
v -1.9232374 0.7966311 0
v -1.7750616 0.73525447 0.40171725
v -2.0816972 0 0
v -1.3564364 0.561854 1
v -1.9213128 -1.6113313E-07 0.40171722
v -1.9232374 -0.7966311 0
v -1.4681963 -5.050201E-07 1
v -1.7750616 -0.7352548 0.40171725
v -1.4719822 -1.4719822 0
v -1.4411279 -0.5969351 1.77164
v -0.64201665 -0.64201576 2.5432801
v -1.3585734 -1.3585736 0.40171725
v -0.7966311 -1.9232374 0
v -1.3564364 -0.561855 1
v -1.1029912 -1.1029924 1.77164
v -0.347457 -0.8388342 2.5432801
v -0.7352547 -1.7750617 0.40171725
v -0 -2.0816972 0
v -1.0381714 -1.0381721 1
v -0.596934 -1.441129 1.77164
v -1.14015734E-07 -0.9079477 2.5432801
v -6.697952E-08 -1.9213128 0.40171722
v 0.7966311 -1.9232374 0
v -0.56185424 -1.3564371 1
v 1.2846858E-06 -1.5598668 1.77164
v 0.34745675 -0.8388342 2.5432801
v 0.7352546 -1.7750617 0.40171725
v 1.4719822 -1.4719822 0
v 2.5251006E-07 -1.468197 1
v 0.5969366 -1.441129 1.77164
v 0.6420165 -0.64201576 2.5432801
v 1.3585732 -1.3585736 0.40171722
v 1.9232374 -0.7966311 0
v 0.5618548 -1.3564371 1
v 1.1029938 -1.1029924 1.77164
v 0.83883494 -0.34745607 2.5432801
v 1.7750615 -0.7352548 0.40171722
v 2.0816972 0 0
v 1.0381719 -1.0381721 1
v 1.4411304 -0.5969351 1.77164
v 0.9079484 8.2561337E-07 2.5432801
v 1.9213128 -1.6113313E-07 0.40171722
v 1.9232374 0.7966311 0
v 1.3564368 -0.561855 1
v 1.5598683 2.1045973E-07 1.77164
v 0.83883494 0.3474577 2.5432801
v 1.7750615 0.73525447 0.40171722
v 1.4719822 1.4719822 0
v 1.4681967 -5.050201E-07 1
v 1.4411304 0.5969355 1.77164
v 0.6420165 0.64201736 2.5432801
v 1.3585732 1.3585731 0.40171722
v 0.7966311 1.9232374 0
v 1.3564368 0.561854 1
v 1.1029938 1.1029928 1.77164
v 0.34745675 0.8388359 2.5432801
v 0.7352546 1.7750614 0.40171725
v -0 2.0816972 0
v -6.697952E-08 1.9213126 0.40171722
v 1.0381719 1.0381712 1
v 0.5969366 1.4411294 1.77164
v -1.14015734E-07 0.9079494 2.5432801
v 1.2846858E-06 1.5598673 1.77164
v 0.5618548 1.3564361 1
v 2.5251006E-07 1.468196 1
v 0.32356754 0.13402744 5.711641
v 0.35022694 1.661024E-06 5.711641
v 0.32356754 -0.13402411 5.711641
v 0.24764806 0.24764895 5.711641
v 0.24764806 -0.24764563 5.711641
v 0.13402654 0.3235684 5.711641
v 0.13402654 -0.3235651 5.711641
v 7.6876927E-07 0.35022783 5.711641
v 7.6876927E-07 -0.35022452 5.711641
v -0.134025 0.3235684 5.711641
v -0.134025 -0.3235651 5.711641
v -0.2476465 0.24764895 5.711641
v -0.2476465 -0.24764563 5.711641
v -0.323566 0.13402744 5.711641
v -0.323566 -0.13402411 5.711641
v -0.35022542 1.661024E-06 5.711641
v -0.64201665 0.64201736 2.5432801
v -1.0932224 0.4528305 3.2499847
v -0.83883524 0.3474577 2.5432801
v -0.8367163 0.836719 3.2499847
v -0.347457 0.8388359 2.5432801
v -0.4528279 1.093225 3.2499847
v -1.14015734E-07 0.9079494 2.5432801
v -5.4509513E-07 1.183298 3.2499847
v -0.83883524 0.3474577 2.5432801
v -1.0932224 0.4528305 3.2499847
v -1.1832954 3.2044672E-06 3.2499847
v -0.90794873 8.2561337E-07 2.5432801
v -1.0932224 -0.45282415 3.2499847
v -0.83883524 -0.34745607 2.5432801
v -0.8367163 -0.83671254 3.2499847
v -0.64201665 -0.64201576 2.5432801
v -0.4528279 -1.0932187 3.2499847
v -0.347457 -0.8388342 2.5432801
v -0.347457 -0.8388342 2.5432801
v -0.4528279 -1.0932187 3.2499847
v -5.4509513E-07 -1.1832916 3.2499847
v -1.14015734E-07 -0.9079477 2.5432801
v 0.45282677 -1.0932187 3.2499847
v 0.34745675 -0.8388342 2.5432801
v 0.8367152 -0.83671254 3.2499847
v 0.6420165 -0.64201576 2.5432801
v 1.0932213 -0.45282415 3.2499847
v 0.83883494 -0.34745607 2.5432801
v 1.1832942 3.2044672E-06 3.2499847
v 0.9079484 8.2561337E-07 2.5432801
v 1.0932213 0.4528305 3.2499847
v 0.83883494 0.3474577 2.5432801
v 0.8367152 0.836719 3.2499847
v 0.6420165 0.64201736 2.5432801
v 0.45282677 1.093225 3.2499847
v 0.34745675 0.8388359 2.5432801
v -5.4509513E-07 1.183298 3.2499847
v -1.14015734E-07 0.9079494 2.5432801
v 0.22828715 0.22828816 6.2275796
v 0.048499007 0.11708716 5.572215
v 0.089614466 0.08961468 5.5722146
v 0.12354813 0.29827255 6.2275796
v 0.25685838 0.25685936 6.339751
v 0.13901077 0.33560264 6.339751
v 0.09735582 0.09735484 7.156906
v 0.052690197 0.12719946 7.156906
v 0.12720045 0.052689213 7.156906
v 0.33560166 0.13901176 6.339751
v 0.13768047 2.5026684E-06 7.156906
v 0.29827154 0.12354914 6.2275796
v 0.089614466 0.08961468 5.5722146
v 0.11708695 0.048499223 5.5722146
v 0.36325264 9.780628E-07 6.339751
v 0.12720045 -0.05268421 7.156906
v 0.32284683 1.0184523E-06 6.2275796
v 0.126734 2.1688376E-07 5.5722146
v 0.33560166 -0.1390098 6.339751
v 0.09735582 -0.09734982 7.156906
v 0.29827154 -0.123547114 6.2275796
v 0.11708695 -0.04849879 5.5722146
v 0.25685838 -0.2568574 6.339751
v 0.052690197 -0.12719446 7.156906
v 0.22828715 -0.22828613 6.2275796
v 0.089614466 -0.08961425 5.5722146
v 0.13901077 -0.3356007 6.339751
v 3.4935288E-06 -0.13767447 7.156906
v -0 -0.36325166 6.339751
v 0.12354813 -0.29827052 6.2275796
v 0.089614466 -0.08961425 5.5722146
v 0.048499007 -0.11708673 5.5722146
v -0 -0.32284582 6.2275796
v -0.13901077 -0.3356007 6.339751
v -0 -0.12673378 5.5722146
v -0.12354813 -0.29827052 6.2275796
v -0.048499007 -0.11708673 5.5722146
v -0.25685838 -0.2568574 6.339751
v -0.22828715 -0.22828613 6.2275796
v -0.048499007 -0.11708673 5.5722146
v -0.089614466 -0.08961425 5.5722146
v -0.33560166 -0.1390098 6.339751
v -0.29827154 -0.123547114 6.2275796
v -0.089614466 -0.08961425 5.5722146
v -0.36325264 9.780628E-07 6.339751
v -0.11708695 -0.04849879 5.5722146
v -0.32284683 1.0184523E-06 6.2275796
v -0.126734 2.1688376E-07 5.5722146
v -0.33560166 0.13901176 6.339751
v -0.29827154 0.12354914 6.2275796
v -0.126734 2.1688376E-07 5.5722146
v -0.11708695 0.048499223 5.5722146
v -0.25685838 0.25685936 6.339751
v -0.22828715 0.22828816 6.2275796
v -0.13901077 0.33560264 6.339751
v -0.11708695 0.048499223 5.5722146
v -0.089614466 0.08961468 5.5722146
v -0.12354813 0.29827255 6.2275796
v -0.089614466 0.08961468 5.5722146
v -0.048499007 0.11708716 5.572215
v 0.052690197 0.12719946 7.156906
v 0.090628654 0.39489257 6.797761
v 0.13901077 0.78140354 6.339751
v 0.13901077 0.33560264 6.339751
v 0.12354813 0.7440735 6.2275796
v 0.12354813 0.29827255 6.2275796
v 0.048499007 0.47835973 4.9273615
v 0.048499007 0.11708716 5.572215
v -0.048499007 0.11708716 5.572215
v -0.048499007 0.47835973 4.9273615
v -0.12354813 0.7440735 6.2275796
v -0.12354813 0.29827255 6.2275796
v -0.13901077 0.78140354 6.339751
v -0.13901077 0.33560264 6.339751
v -0.090624735 0.39489257 6.797761
v -0.052683212 0.12719946 7.156906
v -0.052683212 0.12719946 7.156906
v 1.9581003E-06 0.41291937 6.797761
v 3.4935288E-06 0.13767952 7.156906
v -0.090624735 0.39489257 6.797761
v -0.13901077 0.78140354 6.339751
v -0 0.8090546 6.3397512
v -0.052683212 0.12719946 7.156906
v -0.25685838 0.25685936 6.339751
v -0.13901077 0.33560264 6.339751
v -0.09734884 0.09735484 7.156906
v -0.33560166 0.13901176 6.339751
v -0.12719345 0.052689213 7.156906
v -0.36325264 9.780628E-07 6.339751
v -0.13767351 2.5026684E-06 7.156906
v -0.33560166 -0.1390098 6.339751
v -0.12719345 -0.05268421 7.156906
v -0.25685838 -0.2568574 6.339751
v -0.09734884 -0.09734982 7.156906
v -0.13901077 -0.3356007 6.339751
v -0.052683212 -0.12719446 7.156906
v -0 -0.36325166 6.339751
v 3.4935288E-06 -0.13767447 7.156906
v 0.12720045 0.052689213 7.156906
v 0.13768047 2.5026684E-06 7.156906
v 0.12720045 -0.05268421 7.156906
v 0.09735582 0.09735484 7.156906
v 0.09735582 -0.09734982 7.156906
v 0.052690197 0.12719946 7.156906
v 0.052690197 -0.12719446 7.156906
v 3.4935288E-06 0.13767952 7.156906
v 3.4935288E-06 -0.13767447 7.156906
v -0.052683212 0.12719946 7.156906
v -0.052683212 -0.12719446 7.156906
v -0.09734884 0.09735484 7.156906
v -0.09734884 -0.09734982 7.156906
v -0.12719345 0.052689213 7.156906
v -0.12719345 -0.05268421 7.156906
v -0.13767351 2.5026684E-06 7.156906
v 0.11708695 -0.04849879 5.5722146
v 0.126734 2.1688376E-07 5.5722146
v 0.11708695 0.048499223 5.5722146
v 0.089614466 -0.08961425 5.5722146
v 0.089614466 0.08961468 5.5722146
v 0.048499007 -0.11708673 5.5722146
v 0.048499007 0.11708716 5.572215
v -0 -0.12673378 5.5722146
v -0 0.12673423 5.572215
v -0.048499007 -0.11708673 5.5722146
v -0.048499007 0.11708716 5.572215
v -0.089614466 -0.08961425 5.5722146
v -0.089614466 0.08961468 5.5722146
v -0.11708695 -0.04849879 5.5722146
v -0.11708695 0.048499223 5.5722146
v -0.126734 2.1688376E-07 5.5722146
v 0.048499007 0.11708716 5.572215
v 0.048499007 0.47835973 4.9273615
v -0 0.4880068 4.9273615
v -0 0.12673423 5.572215
v -0.048499007 0.47835973 4.9273615
v -0.048499007 0.11708716 5.572215
v 0.12354813 0.7440735 6.2275796
v -0 0.4880068 4.9273615
v 0.048499007 0.47835973 4.9273615
v -0 0.7686488 6.2275796
v 0.13901077 0.78140354 6.339751
v -0 0.8090546 6.3397512
v -0.12354813 0.7440735 6.2275796
v -0.13901077 0.78140354 6.339751
v -0.048499007 0.47835973 4.9273615
v -0 0.4880068 4.9273615
v 0.090628654 0.39489257 6.797761
v -0 0.8090546 6.3397512
v 0.13901077 0.78140354 6.339751
v 1.9581003E-06 0.41291937 6.797761
v 3.4935288E-06 0.13767952 7.156906
v 0.052690197 0.12719946 7.156906
v -0.074788965 -0.9818884 5.438764
v -0.074788965 -0.9818884 2.8287919
v -0.2913887 0.0118073225 2.8287911
v -0.2913887 0.0118073225 7.2362328
v -0.16469929 0.100991316 7.2362328
v -0.2913887 0.1009921 2.8287911
v 0.29137966 0.0118073225 7.2362328
v 0.16469085 0.100991316 7.2362328
v 0.29137966 0.1009921 2.8287911
v 0.29137966 0.0118073225 2.8287911
v 0.074788965 -0.9818884 2.8287919
v 0.074788965 -0.9818884 5.438764
v -4.529953E-06 -0.057934355 7.4655104
v -0 -1.1191522 5.5485606
v -0 -1.1191522 5.5485606
v -0 -0.9818884 2.8287919
v -0 -0.9818884 2.8287919
v -0.074788965 -0.9818884 2.8287919
v -0.074788965 -0.9818884 5.438764
v -0 -1.1191522 5.5485606
v -0 0.55933195 6.016887
v 0.21404709 0.51675534 6.0846906
v -0 0.55933195 6.0846906
v 0.21404709 0.51675534 6.016887
v 0.39550743 0.39550743 6.0846906
v 0.39550743 0.39550743 6.016887
v 0.51675534 0.21404709 6.0846906
v 0.51675534 0.21404709 6.016887
v 0.55933195 0 6.0846906
v 0.55933195 0 6.016887
v 0.51675534 -0.21404709 6.0846906
v 0.51675534 -0.21404709 6.016887
v 0.39550743 -0.39550743 6.0846906
v 0.39550743 -0.39550743 6.016887
v 0.21404709 -0.51675534 6.0846906
v 0.21404709 -0.51675534 6.016887
v -0 -0.55933195 6.0846906
v -0 -0.55933195 6.016887
v -0.21404709 -0.51675534 6.0846906
v -0.21404709 -0.51675534 6.016887
v -0.39550743 -0.39550743 6.0846906
v -0.39550743 -0.39550743 6.016887
v -0.51675534 -0.21404709 6.0846906
v -0.51675534 -0.21404709 6.016887
v -0.55933195 0 6.0846906
v -0.55933195 0 6.016887
v -0.51675534 0.21404709 6.0846906
v -0.51675534 0.21404709 6.016887
v -0.39550743 0.39550743 6.0846906
v -0.39550743 0.39550743 6.016887
v -0.21404709 0.51675534 6.0846906
v -0.21404709 0.51675534 6.016887
v -0 0.55933195 6.0846906
v -0 0.55933195 6.016887
v 0.51675534 0.21404709 6.0846906
v 0.55933195 0 6.0846906
v 0.51675534 -0.21404709 6.0846906
v 0.39550743 0.39550743 6.0846906
v 0.39550743 -0.39550743 6.0846906
v 0.21404709 0.51675534 6.0846906
v 0.21404709 -0.51675534 6.0846906
v -0 0.55933195 6.0846906
v -0 -0.55933195 6.0846906
v -0.21404709 0.51675534 6.0846906
v -0.21404709 -0.51675534 6.0846906
v -0.39550743 0.39550743 6.0846906
v -0.39550743 -0.39550743 6.0846906
v -0.51675534 0.21404709 6.0846906
v -0.51675534 -0.21404709 6.0846906
v -0.55933195 0 6.0846906
v 0.51675534 -0.21404709 6.016887
v 0.55933195 0 6.016887
v 0.51675534 0.21404709 6.016887
v 0.39550743 -0.39550743 6.016887
v 0.39550743 0.39550743 6.016887
v 0.21404709 -0.51675534 6.016887
v 0.21404709 0.51675534 6.016887
v -0 -0.55933195 6.016887
v -0 0.55933195 6.016887
v -0.21404709 -0.51675534 6.016887
v -0.21404709 0.51675534 6.016887
v -0.39550743 -0.39550743 6.016887
v -0.39550743 0.39550743 6.016887
v -0.51675534 -0.21404709 6.016887
v -0.51675534 0.21404709 6.016887
v -0.55933195 0 6.016887
v -0 0.7504654 4.943722
v 0.28719068 0.6933396 5.0346947
v -0 0.7504654 5.0346947
v 0.28719068 0.6933396 4.943722
v 0.53065914 0.53065914 5.0346947
v 0.53065914 0.53065914 4.943722
v 0.6933396 0.28719068 5.0346947
v 0.6933396 0.28719068 4.943722
v 0.7504654 0 5.0346947
v 0.7504654 0 4.943722
v 0.6933396 -0.28719068 5.0346947
v 0.6933396 -0.28719068 4.943722
v 0.53065914 -0.53065914 5.0346947
v 0.53065914 -0.53065914 4.943722
v 0.28719068 -0.6933396 5.0346947
v 0.28719068 -0.6933396 4.943722
v -0 -0.7504654 5.0346947
v -0 -0.7504654 4.943722
v -0.28719068 -0.6933396 5.0346947
v -0.28719068 -0.6933396 4.943722
v -0.53065914 -0.53065914 5.0346947
v -0.53065914 -0.53065914 4.943722
v -0.6933396 -0.28719068 5.0346947
v -0.6933396 -0.28719068 4.943722
v -0.7504654 0 5.0346947
v -0.7504654 0 4.943722
v -0.6933396 0.28719068 5.0346947
v -0.6933396 0.28719068 4.943722
v -0.53065914 0.53065914 5.0346947
v -0.53065914 0.53065914 4.943722
v -0.28719068 0.6933396 5.0346947
v -0.28719068 0.6933396 4.943722
v -0 0.7504654 5.0346947
v -0 0.7504654 4.943722
v 0.6933396 0.28719068 5.0346947
v 0.7504654 0 5.0346947
v 0.6933396 -0.28719068 5.0346947
v 0.53065914 0.53065914 5.0346947
v 0.53065914 -0.53065914 5.0346947
v 0.28719068 0.6933396 5.0346947
v 0.28719068 -0.6933396 5.0346947
v -0 0.7504654 5.0346947
v -0 -0.7504654 5.0346947
v -0.28719068 0.6933396 5.0346947
v -0.28719068 -0.6933396 5.0346947
v -0.53065914 0.53065914 5.0346947
v -0.53065914 -0.53065914 5.0346947
v -0.6933396 0.28719068 5.0346947
v -0.6933396 -0.28719068 5.0346947
v -0.7504654 0 5.0346947
v 0.6933396 -0.28719068 4.943722
v 0.7504654 0 4.943722
v 0.6933396 0.28719068 4.943722
v 0.53065914 -0.53065914 4.943722
v 0.53065914 0.53065914 4.943722
v 0.28719068 -0.6933396 4.943722
v 0.28719068 0.6933396 4.943722
v -0 -0.7504654 4.943722
v -0 0.7504654 4.943722
v -0.28719068 -0.6933396 4.943722
v -0.28719068 0.6933396 4.943722
v -0.53065914 -0.53065914 4.943722
v -0.53065914 0.53065914 4.943722
v -0.6933396 -0.28719068 4.943722
v -0.6933396 0.28719068 4.943722
v -0.7504654 0 4.943722
v -4.5001507E-06 0.1009921 2.8287911
v 0.29137966 0.1009921 2.8287911
v 0.16469085 0.100991316 7.2362328
v -4.2170286E-06 0.100991316 7.2362328
v -0.2913887 0.1009921 2.8287911
v -0.16469929 0.100991316 7.2362328
v -4.529953E-06 -0.057934355 7.4655104
v 0.16469085 0.100991316 7.2362328
v 0.29137966 0.0118073225 7.2362328
v -4.2170286E-06 0.100991316 7.2362328
v -0.2913887 0.0118073225 7.2362328
v -0.16469929 0.100991316 7.2362328
v 0.29137966 0.0118073225 2.8287911
v 0.29137966 0.1009921 2.8287911
v -4.5001507E-06 0.1009921 2.8287911
v -4.5001507E-06 0.0118073225 2.8287911
v -0.2913887 0.1009921 2.8287911
v -0.2913887 0.0118073225 2.8287911
v -0.074788965 -0.9818884 2.8287919
v -0 -0.9818884 2.8287919
v 0.074788965 -0.9818884 2.8287919
v -0.2913887 0.0118073225 7.2362328
v -4.529953E-06 -0.057934355 7.4655104
v -0 -1.1191522 5.5485606
v -0.074788965 -0.9818884 5.438764
vt 0.9374988 1
vt 1 1
vt 1.013849 1.0000001
vt 0.9375 1
vt 0.8749996 1
vt 1 1
vt 0.875 1
vt 0.9375 1
vt 1 1
vt 0.9375 1
vt 1 1
vt 0.9375 1
vt 0.875 1
vt 0.875 1
vt 0.875 1
vt 0.8125 1
vt 0.8125 1
vt 0.8125 1
vt 0.8125 1
vt 0.75 1
vt 0.75 1
vt 0.81249803 0.9999999
vt 0.8749996 1
vt 0.7499987 1
vt 0.75 1
vt 0.68749785 1
vt 0.75 1
vt 0.6875 1
vt 0.6249993 1
vt 0.6875 1
vt 0.6875 1
vt 0.6875 1
vt 0.625 1
vt 0.5624999 1
vt 0.625 1
vt 0.625 1
vt 0.625 1
vt 0.5625 1
vt 0.4999999 0.9999999
vt 0.5625 1
vt 0.5625 1
vt 0.5625 1
vt 0.5 1
vt 0.43749988 0.9999999
vt 0.4375 1
vt 0.5 1
vt 0.5 1
vt 0.5 1
vt 0.4375 1
vt 0.375 1
vt 0.4375 1
vt 0.4375 1
vt 0.375 1
vt 0.375 1
vt 0.375 1
vt 0.3125 1
vt 0.3125 1
vt 0.3125 1
vt 0.25 1
vt 0.25 1
vt 0.3125 1
vt 0.25 1
vt 0.1875 1
vt 0.1875 1
vt 0.25 1
vt 0.1875 1
vt 0.125 1
vt 0.125 1
vt 0.1875 1
vt 0.18750212 0.99999994
vt 0.25000137 1.0000001
vt 0.31250367 0.99999994
vt 0.37500194 1.0000001
vt 0.4375 1
vt 0.43749988 0.9999999
vt 0.125 1
vt 0.0625 1
vt 0.0625 1
vt 0 1
vt 0 1
vt 0 1
vt 0.0625 1
vt 0 1
vt 0.125 1
vt 0.0625 1
vt -0.013848966 1
vt 0.06250021 0.9999999
vt 0.12500134 0.9999999
vt 0.1875 1
vt 0.18750212 0.99999994
vt 0 1
vt 0 1
vt 0.0625 1
vt 0.0625 1
vt 0.125 1
vt 0 1
vt 0.125 1
vt 0.1875 1
vt 0.0625 1
vt 0.1875 1
vt 0.25 1
vt 0.0625 0.8504293
vt 0 0.8504293
vt 0.125 1
vt 0.25 1
vt 0.3125 1
vt 0.0625 0.75
vt 0 0.75
vt 0.125 0.75
vt 0.125 0.8504293
vt 0.1875 0.75
vt 0.18750001 0.85042936
vt 0.25 0.75
vt 0.1875 1
vt 0.25 0.8504293
vt 0.3125 0.75
vt 0.25 1
vt 0.3125 0.8504293
vt 0.375 0.75
vt 0.3125 1
vt 0.375 1
vt 0.375 0.8504293
vt 0.4375 0.75
vt 0.3125 1
vt 0.375 1
vt 0.4375 1
vt 0.4375 0.8504293
vt 0.5 0.75
vt 0.375 1
vt 0.4375 1
vt 0.5 1
vt 0.5 0.8504293
vt 0.5625 0.75
vt 0.4375 1
vt 0.5 1
vt 0.5625 1
vt 0.5625 0.8504293
vt 0.625 0.75
vt 0.5 1
vt 0.5625 1
vt 0.625 1
vt 0.625 0.8504293
vt 0.6875 0.75
vt 0.5625 1
vt 0.625 1
vt 0.6875 1
vt 0.6875 0.8504293
vt 0.75 0.75
vt 0.625 1
vt 0.6875 1
vt 0.75 1
vt 0.74999994 0.8504293
vt 0.8125 0.75
vt 0.6875 1
vt 0.75 1
vt 0.8125 1
vt 0.8125 0.8504293
vt 0.875 0.75
vt 0.75 1
vt 0.8125 1
vt 0.875 1
vt 0.87499994 0.8504293
vt 0.9375 0.75
vt 0.8125 1
vt 0.875 1
vt 0.9375 1
vt 0.9375 0.8504293
vt 1 0.75
vt 1 0.8504293
vt 0.875 1
vt 0.9375 1
vt 1 1
vt 1 1
vt 0.9375 1
vt 1 1
vt 0.47173107 0.34184402
vt 0.49 0.25
vt 0.47173107 0.15815598
vt 0.41970563 0.41970563
vt 0.41970563 0.080294386
vt 0.34184402 0.47173107
vt 0.34184402 0.028268918
vt 0.25 0.49
vt 0.25 0.010000005
vt 0.15815598 0.47173107
vt 0.15815598 0.028268918
vt 0.080294386 0.41970563
vt 0.080294386 0.080294386
vt 0.028268918 0.34184402
vt 0.028268918 0.15815598
vt 0.010000005 0.25
vt 0.125 1
vt 0.18750212 0.99999994
vt 0.1875 1
vt 0.12500134 0.9999999
vt 0.0625 1
vt 0.06250021 0.9999999
vt 0 1
vt -0.013848966 1
vt 0.1875 1
vt 0.18750212 0.99999994
vt 0.25000137 1.0000001
vt 0.25 1
vt 0.31250367 0.99999994
vt 0.3125 1
vt 0.37500194 1.0000001
vt 0.375 1
vt 0.43749988 0.9999999
vt 0.4375 1
vt 0.4375 1
vt 0.43749988 0.9999999
vt 0.4999999 0.9999999
vt 0.5 1
vt 0.5624999 1
vt 0.5625 1
vt 0.6249993 1
vt 0.625 1
vt 0.68749785 1
vt 0.6875 1
vt 0.7499987 1
vt 0.75 1
vt 0.81249803 0.9999999
vt 0.8125 1
vt 0.8749996 1
vt 0.875 1
vt 0.9374988 1
vt 0.9375 1
vt 1.013849 1.0000001
vt 1 1
vt 0.33390677 0.16609323
vt 0.2626646 0.219425
vt 0.27340108 0.2265989
vt 0.29541 0.14037049
vt 0.34426284 0.15573719
vt 0.30101466 0.12683967
vt 0.81387997 0.18612005
vt 0.7845714 0.16653678
vt 0.8334631 0.2154284
vt 0.3731603 0.19898531
vt 0.84033984 0.24999997
vt 0.35962945 0.20458996
vt 0.2734011 0.22659892
vt 0.280575 0.23733543
vt 0.38330778 0.25
vt 0.833463 0.28457153
vt 0.36866215 0.25
vt 0.28309417 0.25
vt 0.3731603 0.30101466
vt 0.8138799 0.31387997
vt 0.35962945 0.29541
vt 0.280575 0.2626646
vt 0.34426284 0.34426284
vt 0.7845714 0.33346313
vt 0.33390677 0.33390677
vt 0.27340108 0.27340108
vt 0.3010147 0.3731603
vt 0.7499999 0.34033987
vt 0.25 0.38330778
vt 0.29541004 0.35962945
vt 0.2734011 0.2734011
vt 0.2626646 0.280575
vt 0.25 0.36866212
vt 0.19898532 0.3731603
vt 0.25 0.28309417
vt 0.20458996 0.35962948
vt 0.23733541 0.280575
vt 0.15573716 0.34426284
vt 0.1660932 0.33390677
vt 0.23733543 0.280575
vt 0.2265989 0.27340108
vt 0.12683968 0.30101466
vt 0.1403705 0.29541
vt 0.22659892 0.2734011
vt 0.116692245 0.25
vt 0.219425 0.2626646
vt 0.1313379 0.25
vt 0.21690585 0.25
vt 0.12683967 0.1989853
vt 0.14037049 0.20458996
vt 0.21690586 0.25
vt 0.219425 0.23733541
vt 0.15573719 0.15573719
vt 0.16609323 0.16609323
vt 0.19898531 0.12683968
vt 0.219425 0.23733543
vt 0.2265989 0.2265989
vt 0.20458996 0.14037049
vt 0.22659892 0.22659892
vt 0.23733541 0.219425
vt 0.7845714 0.16653678
vt 0.5720451 0.14908963
vt 0.30101466 0.12683967
vt 0.30101466 0.12683967
vt 0.29541 0.14037049
vt 0.29541 0.14037049
vt 0.2626646 0.219425
vt 0.2626646 0.219425
vt 0.23733541 0.219425
vt 0.23733541 0.219425
vt 0.20458996 0.14037049
vt 0.20458996 0.14037049
vt 0.19898531 0.12683968
vt 0.19898531 0.12683968
vt 0.48844826 0.14908966
vt 0.7154284 0.16653681
vt 0.7154284 0.16653681
vt 0.53024673 0.14077544
vt 0.75 0.1596601
vt 0.48844826 0.14908966
vt 0.19898531 0.12683968
vt 0.25 0.116692245
vt 0.7154284 0.16653681
vt 0.15573719 0.15573719
vt 0.19898531 0.12683968
vt 0.68612003 0.18612008
vt 0.12683967 0.1989853
vt 0.6665368 0.21542844
vt 0.116692245 0.25
vt 0.6596601 0.25
vt 0.12683968 0.30101466
vt 0.6665368 0.2845716
vt 0.15573716 0.34426284
vt 0.68612003 0.31387994
vt 0.19898532 0.3731603
vt 0.7154285 0.33346316
vt 0.25 0.38330778
vt 0.7499999 0.34033987
vt 0.8334631 0.2154284
vt 0.84033984 0.24999997
vt 0.833463 0.28457153
vt 0.81387997 0.18612005
vt 0.8138799 0.31387997
vt 0.7845714 0.16653678
vt 0.7845714 0.33346313
vt 0.75 0.1596601
vt 0.7499999 0.34033987
vt 0.7154284 0.16653681
vt 0.7154285 0.33346316
vt 0.68612003 0.18612008
vt 0.68612003 0.31387994
vt 0.6665368 0.21542844
vt 0.6665368 0.2845716
vt 0.6596601 0.25
vt 0.280575 0.2626646
vt 0.28309417 0.25
vt 0.280575 0.23733541
vt 0.27340108 0.27340108
vt 0.27340108 0.2265989
vt 0.2626646 0.280575
vt 0.2626646 0.219425
vt 0.25 0.28309417
vt 0.25 0.21690585
vt 0.23733541 0.280575
vt 0.23733541 0.219425
vt 0.2265989 0.27340108
vt 0.2265989 0.2265989
vt 0.219425 0.2626646
vt 0.219425 0.23733541
vt 0.21690585 0.25
vt 0.2626646 0.219425
vt 0.2626646 0.219425
vt 0.25 0.21690585
vt 0.25 0.21690585
vt 0.23733541 0.219425
vt 0.23733541 0.219425
vt 0.29541 0.14037049
vt 0.25 0.21690586
vt 0.2626646 0.219425
vt 0.25 0.1313379
vt 0.30101466 0.12683967
vt 0.25 0.116692245
vt 0.20458996 0.14037049
vt 0.19898531 0.12683968
vt 0.23733543 0.219425
vt 0.25 0.21690585
vt 0.5720451 0.14908963
vt 0.25 0.116692245
vt 0.30101466 0.12683967
vt 0.53024673 0.14077544
vt 0.75 0.1596601
vt 0.7845714 0.16653678
vt 0.625 0
vt 0.375 0
vt 0.375 0.25
vt 0.625 0.25
vt 0.625 0.25
vt 0.375 0.25
vt 0.625 0.5
vt 0.625 0.5
vt 0.375 0.5
vt 0.375 0.5
vt 0.375 0.75
vt 0.625 0.75
vt 0.75 0.5
vt 0.75 0.75
vt 0.625 0.875
vt 0.375 0.875
vt 0.375 0.875
vt 0.375 1
vt 0.625 1
vt 0.625 0.875
vt 1 0.5
vt 0.9375 1
vt 1 1
vt 0.9375 0.5
vt 0.875 1
vt 0.875 0.5
vt 0.8125 1
vt 0.8125 0.5
vt 0.75 1
vt 0.75 0.5
vt 0.6875 1
vt 0.6875 0.5
vt 0.625 1
vt 0.625 0.5
vt 0.5625 1
vt 0.5625 0.5
vt 0.5 1
vt 0.5 0.5
vt 0.4375 1
vt 0.4375 0.5
vt 0.375 1
vt 0.375 0.5
vt 0.3125 1
vt 0.3125 0.5
vt 0.25 1
vt 0.25 0.5
vt 0.1875 1
vt 0.1875 0.5
vt 0.125 1
vt 0.125 0.5
vt 0.0625 1
vt 0.0625 0.5
vt 0 1
vt 0 0.5
vt 0.47173107 0.34184402
vt 0.49 0.25
vt 0.47173107 0.15815598
vt 0.41970563 0.41970563
vt 0.41970563 0.080294386
vt 0.34184402 0.47173107
vt 0.34184402 0.028268918
vt 0.25 0.49
vt 0.25 0.010000005
vt 0.15815598 0.47173107
vt 0.15815598 0.028268918
vt 0.080294386 0.41970563
vt 0.080294386 0.080294386
vt 0.028268918 0.34184402
vt 0.028268918 0.15815598
vt 0.010000005 0.25
vt 0.97173107 0.15815598
vt 0.99 0.25
vt 0.97173107 0.34184402
vt 0.9197056 0.080294386
vt 0.9197056 0.41970563
vt 0.841844 0.028268918
vt 0.841844 0.47173107
vt 0.75 0.010000005
vt 0.75 0.49
vt 0.658156 0.028268918
vt 0.658156 0.47173107
vt 0.5802944 0.080294386
vt 0.5802944 0.41970563
vt 0.52826893 0.15815598
vt 0.52826893 0.34184402
vt 0.51 0.25
vt 1 0.5
vt 0.9375 1
vt 1 1
vt 0.9375 0.5
vt 0.875 1
vt 0.875 0.5
vt 0.8125 1
vt 0.8125 0.5
vt 0.75 1
vt 0.75 0.5
vt 0.6875 1
vt 0.6875 0.5
vt 0.625 1
vt 0.625 0.5
vt 0.5625 1
vt 0.5625 0.5
vt 0.5 1
vt 0.5 0.5
vt 0.4375 1
vt 0.4375 0.5
vt 0.375 1
vt 0.375 0.5
vt 0.3125 1
vt 0.3125 0.5
vt 0.25 1
vt 0.25 0.5
vt 0.1875 1
vt 0.1875 0.5
vt 0.125 1
vt 0.125 0.5
vt 0.0625 1
vt 0.0625 0.5
vt 0 1
vt 0 0.5
vt 0.47173107 0.34184402
vt 0.49 0.25
vt 0.47173107 0.15815598
vt 0.41970563 0.41970563
vt 0.41970563 0.080294386
vt 0.34184402 0.47173107
vt 0.34184402 0.028268918
vt 0.25 0.49
vt 0.25 0.010000005
vt 0.15815598 0.47173107
vt 0.15815598 0.028268918
vt 0.080294386 0.41970563
vt 0.080294386 0.080294386
vt 0.028268918 0.34184402
vt 0.028268918 0.15815598
vt 0.010000005 0.25
vt 0.97173107 0.15815598
vt 0.99 0.25
vt 0.97173107 0.34184402
vt 0.9197056 0.080294386
vt 0.9197056 0.41970563
vt 0.841844 0.028268918
vt 0.841844 0.47173107
vt 0.75 0.010000005
vt 0.75 0.49
vt 0.658156 0.028268918
vt 0.658156 0.47173107
vt 0.5802944 0.080294386
vt 0.5802944 0.41970563
vt 0.52826893 0.15815598
vt 0.52826893 0.34184402
vt 0.51 0.25
vt 0.375 0.375
vt 0.375 0.5
vt 0.625 0.5
vt 0.625 0.375
vt 0.375 0.25
vt 0.625 0.25
vt 0.75 0.5
vt 0.625 0.5
vt 0.625 0.5
vt 0.75 0.5
vt 0.875 0.5
vt 0.875 0.5
vt 0.375 0.5
vt 0.375 0.5
vt 0.25 0.5
vt 0.25 0.5
vt 0.125 0.5
vt 0.125 0.5
vt 0.125 0.75
vt 0.25 0.75
vt 0.375 0.75
vt 0.875 0.5
vt 0.75 0.5
vt 0.75 0.75
vt 0.875 0.75
vn 0.31585932 0.7625516 0.5645777
vn -0 0.9711911 0.2383019
vn -0 0.8253797 0.564578
vn 0.3716589 0.8972636 0.23830195
vn 0.58363193 0.58363193 0.56457734
vn -0 0.98544914 0.16997084
vn 0.6867359 0.6867357 0.23830189
vn 0.37711516 0.9104363 0.16997065
vn -0 0.9385734 0.34507948
vn 0.3591769 0.86712885 0.345079
vn -0 0.9807225 0.195406
vn 0.37530622 0.9060695 0.19540575
vn 0.6968175 0.69681793 0.16997068
vn 0.66367185 0.6636719 0.34507874
vn 0.6934755 0.6934756 0.1954056
vn 0.86712915 0.35917664 0.3450786
vn 0.9060695 0.37530622 0.19540554
vn 0.9104363 0.37711507 0.16997075
vn 0.8972639 0.37165833 0.23830171
vn 0.93857384 0 0.34507838
vn 0.9807225 0 0.19540557
vn 0.7625522 0.31585956 0.5645767
vn 0.58363193 0.58363193 0.56457734
vn 0.825381 0 0.5645761
vn 0.9711912 0 0.23830146
vn 0.762553 -0.31585965 0.5645757
vn 0.98544914 0 0.16997069
vn 0.8972637 -0.371659 0.23830141
vn 0.5836332 -0.58363295 0.564575
vn 0.8671292 -0.35917658 0.34507847
vn 0.9060695 -0.37530613 0.19540577
vn 0.9104363 -0.3771149 0.16997084
vn 0.68673587 -0.68673605 0.23830105
vn 0.31586027 -0.76255345 0.56457454
vn 0.66367203 -0.6636718 0.34507868
vn 0.69347566 -0.69347537 0.19540599
vn 0.6968177 -0.69681764 0.16997103
vn 0.37165886 -0.8972639 0.2383008
vn -0 -0.82538223 0.5645744
vn 0.35917675 -0.86712885 0.3450791
vn 0.37530643 -0.9060692 0.1954063
vn 0.37711495 -0.9104362 0.16997133
vn -0 -0.97119147 0.2383007
vn -0.3158603 -0.7625535 0.5645745
vn -0.37165892 -0.8972639 0.2383007
vn -0 -0.9854489 0.1699716
vn -0 -0.9385734 0.34507957
vn -0 -0.98072225 0.1954066
vn -0.3771153 -0.910436 0.16997176
vn -0.68673587 -0.68673617 0.23830068
vn -0.35917673 -0.8671285 0.34507993
vn -0.37530646 -0.9060691 0.19540688
vn -0.6968179 -0.69681734 0.16997176
vn -0.6636717 -0.6636713 0.34508017
vn -0.6934755 -0.69347525 0.19540708
vn -0.86712843 -0.35917658 0.34508044
vn -0.9060691 -0.3753063 0.19540714
vn -0.9104361 -0.377115 0.16997175
vn -0.938573 0 0.34508064
vn -0.98072225 0 0.19540712
vn -0.8972637 -0.37165925 0.2383009
vn -0.9854489 0 0.16997169
vn -0.86712843 0.3591766 0.34508058
vn -0.9060691 0.3753065 0.19540693
vn -0.97119135 0 0.23830108
vn -0.9104361 0.37711507 0.1699716
vn -0.6636714 0.6636715 0.3450803
vn -0.69347537 0.69347554 0.19540668
vn -0.8972639 0.37165862 0.23830125
vn -0.76255226 0.31585965 0.5645766
vn -0.825381 0 0.564576
vn -0.76255304 -0.31585968 0.56457555
vn -0.58363324 -0.583633 0.56457484
vn -0.37165892 -0.8972639 0.2383007
vn -0.3158603 -0.7625535 0.5645745
vn -0.6867359 0.6867358 0.2383015
vn -0.35917664 0.8671286 0.3450799
vn -0.37530604 0.9060694 0.19540635
vn -0 0.9385734 0.34507948
vn -0 0.9807225 0.195406
vn -0 0.98544914 0.16997084
vn -0.37711525 0.9104361 0.169971
vn -0 0.9711911 0.2383019
vn -0.69681764 0.6968177 0.16997135
vn -0.3716588 0.8972636 0.23830175
vn -0 0.8253797 0.564578
vn -0.31585917 0.76255167 0.56457776
vn -0.5836318 0.58363205 0.56457716
vn -0.8972639 0.37165862 0.23830125
vn -0.76255226 0.31585965 0.5645766
vn -0 0.96151954 0.27473673
vn -0 0.7638784 0.6453602
vn -0.29232383 0.70573163 0.64535993
vn -0.36795747 0.88832825 0.27473682
vn -0.54014385 0.5401438 0.6453599
vn -0 0.96160674 0.27443147
vn -0.6798967 0.67989707 0.27473703
vn -0.7057318 0.2923238 0.64535975
vn -0.367991 0.8884086 0.2744318
vn -0.88832796 0.36795762 0.27473733
vn -0.7638787 0 0.6453599
vn -0.3347257 0.80809927 0.4847
vn -0 0.87468046 0.4847
vn -0.6799585 0.6799584 0.27443215
vn -0.9615192 0 0.2747375
vn -0.70573163 -0.29232362 0.64536005
vn -0.35540476 0.85802305 0.37078822
vn -0 0.9287174 0.37078837
vn -0.65670246 0.65670246 0.370788
vn -0.61849254 0.6184924 0.48469996
vn -0.8580231 0.35540482 0.37078786
vn -0.80809945 0.3347258 0.48469982
vn -0.9287177 0 0.37078774
vn -0.8884084 0.36799088 0.27443236
vn -0.87468064 0 0.48469967
vn -0.8580234 -0.3554048 0.3707876
vn -0.9616064 0 0.2744325
vn -0.8080996 -0.33472583 0.4846996
vn -0.6567027 -0.6567025 0.37078753
vn -0.8883279 -0.36795756 0.2747378
vn -0.54014355 -0.5401435 0.6453604
vn -0.6184928 -0.6184926 0.48469952
vn -0.35540482 -0.8580233 0.37078765
vn -0.8884084 -0.36799097 0.27443263
vn -0.6798966 -0.6798968 0.274738
vn -0.29232353 -0.70573115 0.6453607
vn -0.33472586 -0.8080996 0.48469955
vn -0 -0.9287177 0.37078783
vn -0.67995834 -0.67995834 0.27443257
vn -0.3679573 -0.8883279 0.27473807
vn -0 -0.7638778 0.64536095
vn -0 -0.8746807 0.48469946
vn 0.35540482 -0.8580232 0.37078783
vn -0.36799085 -0.8884084 0.27443233
vn -0 -0.9615191 0.27473804
vn 0.29232314 -0.7057309 0.6453612
vn 0.3347258 -0.80809975 0.48469937
vn 0.6567025 -0.6567024 0.37078774
vn -0 -0.9616065 0.27443203
vn 0.3679576 -0.8883278 0.27473792
vn 0.5401428 -0.5401429 0.6453615
vn 0.6184927 -0.6184928 0.4846995
vn 0.8580232 -0.35540482 0.37078774
vn 0.36799082 -0.88840866 0.27443168
vn 0.67989683 -0.6798967 0.27473775
vn 0.7057305 -0.29232323 0.64536154
vn 0.8080997 -0.33472595 0.48469943
vn 0.92871755 0 0.37078786
vn 0.6799585 -0.6799587 0.27443138
vn 0.88832796 -0.36795744 0.2747375
vn 0.76387733 0 0.6453614
vn 0.8746807 0 0.4846995
vn 0.85802305 0.35540482 0.3707881
vn 0.8884088 -0.36799115 0.27443105
vn 0.9615193 0 0.27473718
vn 0.70573074 0.2923234 0.6453612
vn 0.8080995 0.3347259 0.48469967
vn 0.6567024 0.65670234 0.37078834
vn 0.96160686 0 0.27443093
vn 0.8883281 0.36795753 0.27473703
vn 0.54014295 0.5401432 0.64536107
vn 0.61849254 0.61849254 0.4846999
vn 0.3554048 0.8580229 0.37078848
vn 0.8884088 0.36799103 0.2744309
vn 0.67989695 0.67989683 0.27473688
vn 0.29232338 0.70573133 0.6453605
vn 0.33472574 0.8080994 0.48470002
vn -0 0.9287174 0.37078837
vn -0 0.87468046 0.4847
vn 0.67995864 0.6799587 0.27443096
vn 0.36795768 0.88832814 0.2747368
vn -0 0.7638784 0.6453602
vn -0 0.96151954 0.27473673
vn 0.3679909 0.8884088 0.27443114
vn -0 0.96160674 0.27443147
vn -0 0 1
vn -0 0 1
vn -0 0 1
vn -0 0 1
vn -0 0 1
vn -0 0 1
vn -0 0 1
vn -0 0 1
vn -0 0 1
vn -0 0 1
vn -0 0 1
vn -0 0 1
vn -0 0 1
vn -0 0 1
vn -0 0 1
vn -0 0 1
vn -0.65886354 0.65886307 -0.36304018
vn -0.86084646 0.35657498 -0.36303955
vn -0.86084664 0.3565744 -0.3630395
vn -0.6588632 0.6588634 -0.36304018
vn -0.35657445 0.8608461 -0.36304066
vn -0.35657433 0.8608462 -0.36304072
vn -0 0.9317733 -0.3630407
vn -0 0.93177325 -0.36304072
vn -0.86084664 0.3565744 -0.3630395
vn -0.86084646 0.35657498 -0.36303955
vn -0.93177414 0 -0.36303836
vn -0.93177414 0 -0.36303836
vn -0.86084765 -0.35657454 -0.36303732
vn -0.86084735 -0.35657522 -0.36303726
vn -0.6588646 -0.6588642 -0.36303627
vn -0.65886414 -0.6588646 -0.36303627
vn -0.35657516 -0.86084807 -0.36303568
vn -0.3565747 -0.8608481 -0.3630356
vn -0.3565747 -0.8608481 -0.3630356
vn -0.35657516 -0.86084807 -0.36303568
vn -0 -0.9317754 -0.3630353
vn -0 -0.9317754 -0.36303526
vn 0.35657513 -0.8608481 -0.3630352
vn 0.356575 -0.8608481 -0.3630352
vn 0.6588649 -0.65886426 -0.3630356
vn 0.6588646 -0.6588646 -0.36303553
vn 0.86084795 -0.35657445 -0.36303636
vn 0.8608478 -0.356575 -0.36303636
vn 0.93177456 0 -0.36303747
vn 0.93177456 0 -0.36303747
vn 0.86084694 0.35657483 -0.36303854
vn 0.8608472 0.35657418 -0.36303857
vn 0.6588634 0.65886366 -0.36303946
vn 0.65886384 0.6588632 -0.36303946
vn 0.3565742 0.86084646 -0.36304027
vn 0.3565746 0.8608462 -0.36304027
vn -0 0.93177325 -0.36304072
vn -0 0.9317733 -0.3630407
vn 0.67136 0.67136043 -0.31392825
vn 0.5330829 0.7978192 -0.28161526
vn 0.6774259 0.67742693 -0.28668275
vn 0.5284765 0.79092073 -0.30847535
vn 0.70662725 0.7066266 -0.036835123
vn 0.5552086 0.83092606 -0.036128342
vn 0.681614 0.6816134 0.26609325
vn 0.5362636 0.8025749 0.26133308
vn 0.8905713 0.36888656 0.2660929
vn 0.92325246 0.38242388 -0.036835574
vn 0.96394724 0 0.26609343
vn 0.8771741 0.36333805 -0.3139283
vn 0.6774259 0.67742693 -0.28668275
vn 0.8851002 0.36662093 -0.2866822
vn 0.99932134 0 -0.036835413
vn 0.89057094 -0.3688865 0.2660945
vn 0.9494467 0 -0.31392822
vn 0.95802593 0 -0.28668174
vn 0.9232525 -0.38242388 -0.03683456
vn 0.6816129 -0.6816133 0.26609588
vn 0.8771747 -0.36333734 -0.31392756
vn 0.8851005 -0.36662096 -0.28668115
vn 0.70662665 -0.70662725 -0.03683394
vn 0.36888623 -0.89057016 0.26609743
vn 0.67136073 -0.6713601 -0.31392753
vn 0.6774268 -0.67742676 -0.28668088
vn 0.38242316 -0.9232528 -0.03683339
vn -0 -0.9639458 0.26609895
vn -0 -0.99932146 -0.03683259
vn 0.36333752 -0.87717456 -0.3139277
vn 0.6774268 -0.67742676 -0.28668088
vn 0.36662057 -0.88510084 -0.28668076
vn -0 -0.94944686 -0.3139276
vn -0.38242403 -0.9232525 -0.036831815
vn -0 -0.95802623 -0.28668067
vn -0.36333779 -0.87717456 -0.31392765
vn -0.36662015 -0.88510096 -0.28668082
vn -0.70662713 -0.70662683 -0.036831155
vn -0.67136073 -0.6713601 -0.31392753
vn -0.36662015 -0.88510096 -0.28668082
vn -0.6774266 -0.67742705 -0.28668097
vn -0.92325264 -0.38242382 -0.036831103
vn -0.8771747 -0.36333746 -0.31392765
vn -0.6774266 -0.67742705 -0.28668097
vn -0.99932146 0 -0.036831666
vn -0.8851006 -0.36662093 -0.28668115
vn -0.9494467 0 -0.31392822
vn -0.95802593 0 -0.2866816
vn -0.92325264 0.38242376 -0.03683201
vn -0.8771742 0.36333802 -0.31392825
vn -0.95802593 0 -0.2866816
vn -0.8851003 0.3666209 -0.28668216
vn -0.70662737 0.70662665 -0.036832448
vn -0.67135966 0.67136073 -0.3139284
vn -0.555208 0.8309266 -0.03612557
vn -0.8851003 0.3666209 -0.28668216
vn -0.6774255 0.67742723 -0.28668284
vn -0.52847546 0.79092133 -0.30847558
vn -0.6774255 0.67742723 -0.28668284
vn -0.53308225 0.7978196 -0.28161544
vn 0.99446684 0 0.10505099
vn 0.99446684 0 0.10505099
vn 0.99929273 0 -0.037604585
vn 0.9998349 0 -0.018169414
vn 0.99408 -0.021739462 -0.106452644
vn 0.99510705 -0.030772354 -0.0938881
vn 0.9965669 -0.0516796 -0.06468014
vn 0.9965669 -0.0516796 -0.06468014
vn -0.9965669 -0.05167961 -0.06468015
vn -0.9965669 -0.05167961 -0.06468015
vn -0.99408 -0.021739466 -0.10645265
vn -0.99510705 -0.03077236 -0.0938881
vn -0.99929285 0 -0.03760109
vn -0.999835 0 -0.018165274
vn -0.994466 0 0.105059415
vn -0.994466 0 0.105059415
vn -0.15595463 0.7840061 0.60084337
vn -0 0.7738954 0.6333134
vn -0 0.7937181 0.6082858
vn -0.15252274 0.76676124 0.6235496
vn -0.14877526 0.7479303 0.6468896
vn -0 0.756348 0.65416956
vn -0.536263 0.80257386 0.26133737
vn -0.70662737 0.70662665 -0.036832448
vn -0.555208 0.8309266 -0.03612557
vn -0.68161243 0.68161273 0.26609865
vn -0.92325264 0.38242376 -0.03683201
vn -0.8905693 0.36888623 0.2661
vn -0.99932146 0 -0.036831666
vn -0.9639451 0 0.26610103
vn -0.92325264 -0.38242382 -0.036831103
vn -0.8905689 -0.36888608 0.26610148
vn -0.70662713 -0.70662683 -0.036831155
vn -0.6816115 -0.68161273 0.26610133
vn -0.38242403 -0.9232525 -0.036831815
vn -0.36888498 -0.89056975 0.26610032
vn -0 -0.99932146 -0.03683259
vn -0 -0.9639458 0.26609895
vn -0 0 1
vn -0 0 1
vn -0 0 1
vn -0 0 1
vn -0 0 1
vn -0 0 1
vn -0 0 1
vn -0 0 1
vn -0 0 1
vn -0 0 1
vn -0 0 1
vn -0 0 1
vn -0 0 1
vn -0 0 1
vn -0 0 1
vn -0 0 1
vn -0 0 -1
vn -0 0 -1
vn -0 0 -1
vn -0 0 -1
vn -0 0 -1
vn -0 0 -1
vn -0 0 -1
vn -0 0 -1
vn -0 0 -1
vn -0 0 -1
vn -0 0 -1
vn -0 0 -1
vn -0 0 -1
vn -0 0 -1
vn -0 0 -1
vn -0 0 -1
vn -0.17097856 -0.85957026 -0.48156542
vn -0.17097856 -0.85957026 -0.48156542
vn -0 -0.87241685 -0.48876253
vn -0 -0.87241685 -0.48876253
vn 0.17097856 -0.85957026 -0.48156542
vn 0.17097856 -0.85957026 -0.48156542
vn 0.18771747 0.94371754 -0.27232215
vn -0 0.97748965 -0.21098356
vn 0.19086082 0.9595205 -0.20710506
vn -0 0.960649 -0.27776504
vn 0.18394835 0.9247687 -0.33311558
vn -0 0.94082296 -0.33889866
vn -0.18771699 0.94371754 -0.27232224
vn -0.18394743 0.92476875 -0.33311573
vn -0.19086082 0.9595205 -0.20710506
vn -0 0.97748965 -0.21098356
vn 0.15252288 0.7667619 0.6235487
vn -0 0.756348 0.65416956
vn 0.14877538 0.74793094 0.6468889
vn -0 0.7738954 0.6333134
vn -0 0.7937181 0.6082858
vn 0.15595475 0.7840066 0.6008425
vn -0.84462386 -0.5303466 0.073096186
vn -0.86447227 -0.50257975 -0.010061843
vn -0.9797538 0.20010382 0.0064049163
vn -0.967442 -0.15046586 0.20350905
vn -0.8152244 0.5790267 0.011716633
vn -0.8152244 0.5790267 0.011716633
vn 0.967442 -0.15046456 0.20351031
vn 0.8152256 0.57902485 0.011716596
vn 0.8152256 0.57902485 0.011716596
vn 0.97975314 0.20010698 0.0064048814
vn 0.8644744 -0.5025761 -0.010061858
vn 0.84462607 -0.530343 0.07309674
vn 0.6757752 -0.66097 0.32626167
vn 0.6830258 -0.69965386 0.20966679
vn 0.6830258 -0.69965386 0.20966679
vn 0.66833615 -0.7436128 -0.019151226
vn -0.66833615 -0.7436128 -0.019151226
vn -0.86447227 -0.50257975 -0.010061843
vn -0.84462386 -0.5303466 0.073096186
vn -0.6830251 -0.69965506 0.20966524
vn -0 1 0
vn 0.38268355 0.9238795 0
vn -0 1 0
vn 0.38268355 0.9238795 0
vn 0.70710814 0.70710534 0
vn 0.70710814 0.70710534 0
vn 0.9238801 0.38268182 0
vn 0.9238801 0.38268182 0
vn 1 0 0
vn 1 0 0
vn 0.9238801 -0.38268182 0
vn 0.9238801 -0.38268182 0
vn 0.70710814 -0.70710534 0
vn 0.70710814 -0.70710534 0
vn 0.38268355 -0.9238795 0
vn 0.38268355 -0.9238795 0
vn -0 -1 0
vn -0 -1 0
vn -0.38268355 -0.9238795 0
vn -0.38268355 -0.9238795 0
vn -0.70710814 -0.70710534 0
vn -0.70710814 -0.70710534 0
vn -0.9238801 -0.38268182 0
vn -0.9238801 -0.38268182 0
vn -1 0 0
vn -1 0 0
vn -0.9238801 0.38268182 0
vn -0.9238801 0.38268182 0
vn -0.70710814 0.70710534 0
vn -0.70710814 0.70710534 0
vn -0.38268355 0.9238795 0
vn -0.38268355 0.9238795 0
vn -0 1 0
vn -0 1 0
vn -0 0 1
vn -0 0 1
vn -0 0 1
vn -0 0 1
vn -0 0 1
vn -0 0 1
vn -0 0 1
vn -0 0 1
vn -0 0 1
vn -0 0 1
vn -0 0 1
vn -0 0 1
vn -0 0 1
vn -0 0 1
vn -0 0 1
vn -0 0 1
vn -0 0 -1
vn -0 0 -1
vn -0 0 -1
vn -0 0 -1
vn -0 0 -1
vn -0 0 -1
vn -0 0 -1
vn -0 0 -1
vn -0 0 -1
vn -0 0 -1
vn -0 0 -1
vn -0 0 -1
vn -0 0 -1
vn -0 0 -1
vn -0 0 -1
vn -0 0 -1
vn -0 1 0
vn 0.38268387 0.92387944 0
vn -0 1 0
vn 0.38268387 0.92387944 0
vn 0.7071074 0.70710605 0
vn 0.7071074 0.70710605 0
vn 0.9238798 0.38268286 0
vn 0.9238798 0.38268286 0
vn 1 0 0
vn 1 0 0
vn 0.9238798 -0.38268286 0
vn 0.9238798 -0.38268286 0
vn 0.7071074 -0.70710605 0
vn 0.7071074 -0.70710605 0
vn 0.38268387 -0.92387944 0
vn 0.38268387 -0.92387944 0
vn -0 -1 0
vn -0 -1 0
vn -0.38268387 -0.92387944 0
vn -0.38268387 -0.92387944 0
vn -0.7071074 -0.70710605 0
vn -0.7071074 -0.70710605 0
vn -0.9238798 -0.38268286 0
vn -0.9238798 -0.38268286 0
vn -1 0 0
vn -1 0 0
vn -0.9238798 0.38268286 0
vn -0.9238798 0.38268286 0
vn -0.7071074 0.70710605 0
vn -0.7071074 0.70710605 0
vn -0.38268387 0.92387944 0
vn -0.38268387 0.92387944 0
vn -0 1 0
vn -0 1 0
vn -0 0 1
vn -0 0 1
vn -0 0 1
vn -0 0 1
vn -0 0 1
vn -0 0 1
vn -0 0 1
vn -0 0 1
vn -0 0 1
vn -0 0 1
vn -0 0 1
vn -0 0 1
vn -0 0 1
vn -0 0 1
vn -0 0 1
vn -0 0 1
vn -0 0 -1
vn -0 0 -1
vn -0 0 -1
vn -0 0 -1
vn -0 0 -1
vn -0 0 -1
vn -0 0 -1
vn -0 0 -1
vn -0 0 -1
vn -0 0 -1
vn -0 0 -1
vn -0 0 -1
vn -0 0 -1
vn -0 0 -1
vn -0 0 -1
vn -0 0 -1
vn -0 1 0
vn -0 1 0
vn 0.14500503 0.889872 0.4325521
vn -0 0.93407065 0.3570882
vn -0 1 0
vn -0.14500491 0.8898722 0.43255192
vn -0 0.73849595 0.6742579
vn 0.14500503 0.889872 0.4325521
vn 0.2204707 0.720324 0.6576671
vn -0 0.93407065 0.3570882
vn -0.22047041 0.7203245 0.6576666
vn -0.14500491 0.8898722 0.43255192
vn -0 0 -1
vn -0 0 -1
vn -0 0 -1
vn -0 0 -1
vn -0 0 -1
vn -0 0 -1
vn -0 0 -1
vn -0 0 -1
vn -0 0 -1
vn -0.967442 -0.15046586 0.20350905
vn -0.6757742 -0.6609719 0.32625946
vn -0.6830251 -0.69965506 0.20966524
vn -0.84462386 -0.5303466 0.073096186
g Witch Queen Body_0
f 3/3/3 2/2/2 1/1/1
f 2/2/2 4/4/4 1/1/1
f 1/1/1 4/4/4 5/5/5
f 2/2/2 6/6/6 4/4/4
f 4/4/4 7/7/7 5/5/5
f 6/6/6 8/8/8 4/4/4
f 4/4/4 8/8/8 7/7/7
f 6/6/6 9/9/9 8/8/8
f 9/9/9 10/10/10 8/8/8
f 9/9/9 11/11/11 10/10/10
f 11/11/11 12/12/12 10/10/10
f 8/8/8 10/10/10 13/13/13
f 8/8/8 13/13/13 7/7/7
f 10/10/10 12/12/12 14/14/14
f 10/10/10 14/14/14 13/13/13
f 12/12/12 15/15/15 14/14/14
f 14/14/14 15/15/15 16/16/16
f 15/15/15 17/17/17 16/16/16
f 13/13/13 14/14/14 18/18/18
f 14/14/14 16/16/16 18/18/18
f 7/7/7 13/13/13 19/19/19
f 13/13/13 18/18/18 19/19/19
f 16/16/16 17/17/17 20/20/20
f 17/17/17 21/21/21 20/20/20
f 7/7/7 19/19/19 22/22/22
f 23/23/23 7/7/7 22/22/22
f 22/22/22 19/19/19 24/24/24
f 19/19/19 25/25/25 24/24/24
f 19/19/19 18/18/18 25/25/25
f 24/24/24 25/25/25 26/26/26
f 18/18/18 16/16/16 27/27/27
f 18/18/18 27/27/27 25/25/25
f 16/16/16 20/20/20 27/27/27
f 25/25/25 28/28/28 26/26/26
f 25/25/25 27/27/27 28/28/28
f 26/26/26 28/28/28 29/29/29
f 20/20/20 21/21/21 30/30/30
f 21/21/21 31/31/31 30/30/30
f 27/27/27 20/20/20 32/32/32
f 27/27/27 32/32/32 28/28/28
f 20/20/20 30/30/30 32/32/32
f 28/28/28 33/33/33 29/29/29
f 28/28/28 32/32/32 33/33/33
f 29/29/29 33/33/33 34/34/34
f 30/30/30 31/31/31 35/35/35
f 31/31/31 36/36/36 35/35/35
f 32/32/32 30/30/30 37/37/37
f 32/32/32 37/37/37 33/33/33
f 30/30/30 35/35/35 37/37/37
f 33/33/33 38/38/38 34/34/34
f 33/33/33 37/37/37 38/38/38
f 34/34/34 38/38/38 39/39/39
f 35/35/35 36/36/36 40/40/40
f 36/36/36 41/41/41 40/40/40
f 37/37/37 35/35/35 42/42/42
f 37/37/37 42/42/42 38/38/38
f 35/35/35 40/40/40 42/42/42
f 38/38/38 43/43/43 39/39/39
f 38/38/38 42/42/42 43/43/43
f 39/39/39 43/43/43 44/44/44
f 43/43/43 45/45/45 44/44/44
f 42/42/42 46/46/46 43/43/43
f 42/42/42 40/40/40 46/46/46
f 43/43/43 46/46/46 45/45/45
f 40/40/40 41/41/41 47/47/47
f 40/40/40 47/47/47 46/46/46
f 41/41/41 48/48/48 47/47/47
f 46/46/46 49/49/49 45/45/45
f 46/46/46 47/47/47 49/49/49
f 45/45/45 49/49/49 50/50/50
f 47/47/47 48/48/48 51/51/51
f 47/47/47 51/51/51 49/49/49
f 48/48/48 52/52/52 51/51/51
f 49/49/49 51/51/51 53/53/53
f 49/49/49 53/53/53 50/50/50
f 51/51/51 52/52/52 54/54/54
f 51/51/51 54/54/54 53/53/53
f 52/52/52 55/55/55 54/54/54
f 54/54/54 55/55/55 56/56/56
f 55/55/55 57/57/57 56/56/56
f 53/53/53 54/54/54 58/58/58
f 54/54/54 56/56/56 58/58/58
f 56/56/56 57/57/57 59/59/59
f 57/57/57 60/60/60 59/59/59
f 50/50/50 53/53/53 61/61/61
f 53/53/53 58/58/58 61/61/61
f 58/58/58 56/56/56 62/62/62
f 56/56/56 59/59/59 62/62/62
f 59/59/59 60/60/60 63/63/63
f 60/60/60 64/64/64 63/63/63
f 61/61/61 58/58/58 65/65/65
f 58/58/58 62/62/62 65/65/65
f 62/62/62 59/59/59 66/66/66
f 59/59/59 63/63/63 66/66/66
f 63/63/63 64/64/64 67/67/67
f 64/64/64 68/68/68 67/67/67
f 65/65/65 62/62/62 69/69/69
f 62/62/62 66/66/66 69/69/69
f 65/65/65 69/69/69 70/70/70
f 71/71/71 65/65/65 70/70/70
f 61/61/61 65/65/65 71/71/71
f 72/72/72 61/61/61 71/71/71
f 50/50/50 61/61/61 72/72/72
f 73/73/73 50/50/50 72/72/72
f 74/74/74 50/50/50 73/73/73
f 75/75/75 74/74/74 73/73/73
f 69/69/69 66/66/66 76/76/76
f 67/67/67 68/68/68 77/77/77
f 68/68/68 78/78/78 77/77/77
f 77/77/77 78/78/78 79/79/79
f 78/78/78 80/80/80 79/79/79
f 77/77/77 79/79/79 81/81/81
f 82/82/82 77/77/77 81/81/81
f 67/67/67 77/77/77 82/82/82
f 82/82/82 81/81/81 83/83/83
f 84/84/84 67/67/67 82/82/82
f 66/66/66 84/84/84 76/76/76
f 63/63/63 67/67/67 84/84/84
f 66/66/66 63/63/63 84/84/84
f 85/85/85 82/82/82 83/83/83
f 84/84/84 82/82/82 85/85/85
f 76/76/76 84/84/84 85/85/85
f 85/85/85 83/83/83 86/86/86
f 87/87/87 85/85/85 86/86/86
f 76/76/76 85/85/85 87/87/87
f 88/88/88 76/76/76 87/87/87
f 89/89/89 76/76/76 88/88/88
f 90/90/90 89/89/89 88/88/88
f 93/93/93 92/92/92 91/91/91
f 94/94/94 93/93/93 91/91/91
f 95/95/95 93/93/93 94/94/94
f 94/94/94 91/91/91 96/96/96
f 97/97/97 95/95/95 94/94/94
f 98/98/98 95/95/95 97/97/97
f 99/99/99 94/94/94 96/96/96
f 97/97/97 94/94/94 99/99/99
f 100/100/100 98/98/98 97/97/97
f 101/101/101 98/98/98 100/100/100
f 99/99/99 96/96/96 102/102/102
f 96/96/96 103/103/103 102/102/102
f 104/104/104 97/97/97 99/99/99
f 100/100/100 97/97/97 104/104/104
f 105/105/105 101/101/101 100/100/100
f 106/106/106 101/101/101 105/105/105
f 102/102/102 103/103/103 107/107/107
f 103/103/103 108/108/108 107/107/107
f 102/102/102 107/107/107 109/109/109
f 99/99/99 102/102/102 110/110/110
f 110/110/110 102/102/102 109/109/109
f 104/104/104 99/99/99 110/110/110
f 110/110/110 109/109/109 111/111/111
f 112/112/112 110/110/110 111/111/111
f 104/104/104 110/110/110 112/112/112
f 112/112/112 111/111/111 113/113/113
f 114/114/114 100/100/100 104/104/104
f 114/114/114 104/104/104 112/112/112
f 105/105/105 100/100/100 114/114/114
f 115/115/115 112/112/112 113/113/113
f 114/114/114 112/112/112 115/115/115
f 115/115/115 113/113/113 116/116/116
f 117/117/117 105/105/105 114/114/114
f 117/117/117 114/114/114 115/115/115
f 118/118/118 115/115/115 116/116/116
f 117/117/117 115/115/115 118/118/118
f 118/118/118 116/116/116 119/119/119
f 120/120/120 105/105/105 117/117/117
f 120/120/120 106/106/106 105/105/105
f 121/121/121 106/106/106 120/120/120
f 122/122/122 118/118/118 119/119/119
f 122/122/122 119/119/119 123/123/123
f 124/124/124 117/117/117 118/118/118
f 124/124/124 120/120/120 117/117/117
f 124/124/124 118/118/118 122/122/122
f 125/125/125 121/121/121 120/120/120
f 125/125/125 120/120/120 124/124/124
f 126/126/126 121/121/121 125/125/125
f 127/127/127 122/122/122 123/123/123
f 127/127/127 123/123/123 128/128/128
f 129/129/129 124/124/124 122/122/122
f 129/129/129 125/125/125 124/124/124
f 129/129/129 122/122/122 127/127/127
f 130/130/130 126/126/126 125/125/125
f 130/130/130 125/125/125 129/129/129
f 131/131/131 126/126/126 130/130/130
f 132/132/132 127/127/127 128/128/128
f 132/132/132 128/128/128 133/133/133
f 134/134/134 129/129/129 127/127/127
f 134/134/134 130/130/130 129/129/129
f 134/134/134 127/127/127 132/132/132
f 135/135/135 131/131/131 130/130/130
f 135/135/135 130/130/130 134/134/134
f 136/136/136 131/131/131 135/135/135
f 137/137/137 132/132/132 133/133/133
f 137/137/137 133/133/133 138/138/138
f 139/139/139 134/134/134 132/132/132
f 139/139/139 135/135/135 134/134/134
f 139/139/139 132/132/132 137/137/137
f 140/140/140 136/136/136 135/135/135
f 140/140/140 135/135/135 139/139/139
f 141/141/141 136/136/136 140/140/140
f 142/142/142 137/137/137 138/138/138
f 142/142/142 138/138/138 143/143/143
f 144/144/144 139/139/139 137/137/137
f 144/144/144 140/140/140 139/139/139
f 144/144/144 137/137/137 142/142/142
f 145/145/145 141/141/141 140/140/140
f 145/145/145 140/140/140 144/144/144
f 146/146/146 141/141/141 145/145/145
f 147/147/147 142/142/142 143/143/143
f 147/147/147 143/143/143 148/148/148
f 149/149/149 144/144/144 142/142/142
f 149/149/149 145/145/145 144/144/144
f 149/149/149 142/142/142 147/147/147
f 150/150/150 146/146/146 145/145/145
f 150/150/150 145/145/145 149/149/149
f 151/151/151 146/146/146 150/150/150
f 152/152/152 147/147/147 148/148/148
f 152/152/152 148/148/148 153/153/153
f 154/154/154 149/149/149 147/147/147
f 154/154/154 150/150/150 149/149/149
f 154/154/154 147/147/147 152/152/152
f 155/155/155 151/151/151 150/150/150
f 155/155/155 150/150/150 154/154/154
f 156/156/156 151/151/151 155/155/155
f 157/157/157 152/152/152 153/153/153
f 157/157/157 153/153/153 158/158/158
f 159/159/159 154/154/154 152/152/152
f 159/159/159 155/155/155 154/154/154
f 159/159/159 152/152/152 157/157/157
f 160/160/160 156/156/156 155/155/155
f 160/160/160 155/155/155 159/159/159
f 161/161/161 156/156/156 160/160/160
f 162/162/162 157/157/157 158/158/158
f 162/162/162 158/158/158 163/163/163
f 164/164/164 159/159/159 157/157/157
f 164/164/164 160/160/160 159/159/159
f 164/164/164 157/157/157 162/162/162
f 165/165/165 161/161/161 160/160/160
f 165/165/165 160/160/160 164/164/164
f 166/166/166 161/161/161 165/165/165
f 167/167/167 162/162/162 163/163/163
f 167/167/167 163/163/163 168/168/168
f 169/169/169 167/167/167 168/168/168
f 170/170/170 164/164/164 162/162/162
f 170/170/170 165/165/165 164/164/164
f 170/170/170 162/162/162 167/167/167
f 171/171/171 166/166/166 165/165/165
f 171/171/171 165/165/165 170/170/170
f 172/172/172 166/166/166 171/171/171
f 173/173/173 172/172/172 171/171/171
f 174/174/174 167/167/167 169/169/169
f 174/174/174 170/170/170 167/167/167
f 174/174/174 171/171/171 170/170/170
f 173/173/173 171/171/171 174/174/174
f 175/175/175 174/174/174 169/169/169
f 175/175/175 173/173/173 174/174/174
f 178/178/178 177/177/177 176/176/176
f 176/176/176 179/179/179 178/178/178
f 179/179/179 180/180/180 178/178/178
f 179/179/179 181/181/181 180/180/180
f 181/181/181 182/182/182 180/180/180
f 181/181/181 183/183/183 182/182/182
f 183/183/183 184/184/184 182/182/182
f 183/183/183 185/185/185 184/184/184
f 185/185/185 186/186/186 184/184/184
f 185/185/185 187/187/187 186/186/186
f 187/187/187 188/188/188 186/186/186
f 187/187/187 189/189/189 188/188/188
f 189/189/189 190/190/190 188/188/188
f 189/189/189 191/191/191 190/190/190
f 194/194/194 193/193/193 192/192/192
f 193/193/193 195/195/195 192/192/192
f 192/192/192 195/195/195 196/196/196
f 195/195/195 197/197/197 196/196/196
f 196/196/196 197/197/197 198/198/198
f 197/197/197 199/199/199 198/198/198
f 202/202/202 201/201/201 200/200/200
f 203/203/203 202/202/202 200/200/200
f 204/204/204 202/202/202 203/203/203
f 205/205/205 204/204/204 203/203/203
f 206/206/206 204/204/204 205/205/205
f 207/207/207 206/206/206 205/205/205
f 208/208/208 206/206/206 207/207/207
f 209/209/209 208/208/208 207/207/207
f 212/212/212 211/211/211 210/210/210
f 213/213/213 212/212/212 210/210/210
f 214/214/214 212/212/212 213/213/213
f 215/215/215 214/214/214 213/213/213
f 216/216/216 214/214/214 215/215/215
f 217/217/217 216/216/216 215/215/215
f 218/218/218 216/216/216 217/217/217
f 219/219/219 218/218/218 217/217/217
f 220/220/220 218/218/218 219/219/219
f 221/221/221 220/220/220 219/219/219
f 222/222/222 220/220/220 221/221/221
f 223/223/223 222/222/222 221/221/221
f 224/224/224 222/222/222 223/223/223
f 225/225/225 224/224/224 223/223/223
f 226/226/226 224/224/224 225/225/225
f 227/227/227 226/226/226 225/225/225
f 228/228/228 226/226/226 227/227/227
f 229/229/229 228/228/228 227/227/227
f 232/232/232 231/231/231 230/230/230
f 231/231/231 233/233/233 230/230/230
f 230/230/230 233/233/233 234/234/234
f 233/233/233 235/235/235 234/234/234
f 234/234/234 235/235/235 236/236/236
f 235/235/235 237/237/237 236/236/236
f 234/234/234 236/236/236 238/238/238
f 239/239/239 234/234/234 238/238/238
f 230/230/230 234/234/234 239/239/239
f 239/239/239 238/238/238 240/240/240
f 241/241/241 230/230/230 239/239/239
f 242/242/242 230/230/230 241/241/241
f 243/243/243 242/242/242 241/241/241
f 244/244/244 239/239/239 240/240/240
f 241/241/241 239/239/239 244/244/244
f 244/244/244 240/240/240 245/245/245
f 243/243/243 241/241/241 246/246/246
f 246/246/246 241/241/241 244/244/244
f 247/247/247 243/243/243 246/246/246
f 248/248/248 244/244/244 245/245/245
f 246/246/246 244/244/244 248/248/248
f 248/248/248 245/245/245 249/249/249
f 247/247/247 246/246/246 250/250/250
f 250/250/250 246/246/246 248/248/248
f 251/251/251 247/247/247 250/250/250
f 252/252/252 248/248/248 249/249/249
f 250/250/250 248/248/248 252/252/252
f 252/252/252 249/249/249 253/253/253
f 251/251/251 250/250/250 254/254/254
f 254/254/254 250/250/250 252/252/252
f 255/255/255 251/251/251 254/254/254
f 256/256/256 252/252/252 253/253/253
f 254/254/254 252/252/252 256/256/256
f 256/256/256 253/253/253 257/257/257
f 258/258/258 256/256/256 257/257/257
f 259/259/259 254/254/254 256/256/256
f 259/259/259 256/256/256 258/258/258
f 260/260/260 254/254/254 259/259/259
f 261/261/261 260/260/260 259/259/259
f 262/262/262 259/259/259 258/258/258
f 261/261/261 259/259/259 262/262/262
f 262/262/262 258/258/258 263/263/263
f 264/264/264 261/261/261 262/262/262
f 265/265/265 262/262/262 263/263/263
f 264/264/264 262/262/262 265/265/265
f 266/266/266 264/264/264 265/265/265
f 265/265/265 263/263/263 267/267/267
f 268/268/268 265/265/265 267/267/267
f 269/269/269 265/265/265 268/268/268
f 270/270/270 269/269/269 268/268/268
f 268/268/268 267/267/267 271/271/271
f 272/272/272 268/268/268 271/271/271
f 273/273/273 268/268/268 272/272/272
f 272/272/272 271/271/271 274/274/274
f 275/275/275 273/273/273 272/272/272
f 276/276/276 272/272/272 274/274/274
f 275/275/275 272/272/272 276/276/276
f 277/277/277 275/275/275 276/276/276
f 276/276/276 274/274/274 278/278/278
f 279/279/279 276/276/276 278/278/278
f 280/280/280 276/276/276 279/279/279
f 281/281/281 280/280/280 279/279/279
f 279/279/279 278/278/278 282/282/282
f 283/283/283 279/279/279 282/282/282
f 283/283/283 282/282/282 284/284/284
f 285/285/285 279/279/279 283/283/283
f 286/286/286 285/285/285 283/283/283
f 287/287/287 283/283/283 284/284/284
f 288/288/288 283/283/283 287/287/287
f 289/289/289 288/288/288 287/287/287
f 292/292/292 291/291/291 290/290/290
f 293/293/293 292/292/292 290/290/290
f 294/294/294 292/292/292 293/293/293
f 295/295/295 294/294/294 293/293/293
f 296/296/296 294/294/294 295/295/295
f 297/297/297 296/296/296 295/295/295
f 300/300/300 299/299/299 298/298/298
f 301/301/301 300/300/300 298/298/298
f 302/302/302 300/300/300 301/301/301
f 303/303/303 302/302/302 301/301/301
f 304/304/304 302/302/302 303/303/303
f 305/305/305 304/304/304 303/303/303
f 308/308/308 307/307/307 306/306/306
f 307/307/307 309/309/309 306/306/306
f 310/310/310 309/309/309 307/307/307
f 311/311/311 310/310/310 307/307/307
f 314/314/314 313/313/313 312/312/312
f 313/313/313 315/315/315 312/312/312
f 313/313/313 316/316/316 315/315/315
f 316/316/316 317/317/317 315/315/315
f 316/316/316 318/318/318 317/317/317
f 318/318/318 319/319/319 317/317/317
f 318/318/318 320/320/320 319/319/319
f 320/320/320 321/321/321 319/319/319
f 320/320/320 322/322/322 321/321/321
f 322/322/322 323/323/323 321/321/321
f 322/322/322 324/324/324 323/323/323
f 324/324/324 325/325/325 323/323/323
f 325/325/325 324/324/324 326/326/326
f 327/327/327 325/325/325 326/326/326
f 330/330/330 329/329/329 328/328/328
f 328/328/328 331/331/331 330/330/330
f 331/331/331 332/332/332 330/330/330
f 331/331/331 333/333/333 332/332/332
f 333/333/333 334/334/334 332/332/332
f 333/333/333 335/335/335 334/334/334
f 335/335/335 336/336/336 334/334/334
f 335/335/335 337/337/337 336/336/336
f 337/337/337 338/338/338 336/336/336
f 337/337/337 339/339/339 338/338/338
f 339/339/339 340/340/340 338/338/338
f 339/339/339 341/341/341 340/340/340
f 341/341/341 342/342/342 340/340/340
f 341/341/341 343/343/343 342/342/342
f 346/346/346 345/345/345 344/344/344
f 344/344/344 347/347/347 346/346/346
f 347/347/347 348/348/348 346/346/346
f 347/347/347 349/349/349 348/348/348
f 349/349/349 350/350/350 348/348/348
f 349/349/349 351/351/351 350/350/350
f 351/351/351 352/352/352 350/350/350
f 351/351/351 353/353/353 352/352/352
f 353/353/353 354/354/354 352/352/352
f 353/353/353 355/355/355 354/354/354
f 355/355/355 356/356/356 354/354/354
f 355/355/355 357/357/357 356/356/356
f 357/357/357 358/358/358 356/356/356
f 357/357/357 359/359/359 358/358/358
f 362/362/362 361/361/361 360/360/360
f 363/363/363 362/362/362 360/360/360
f 364/364/364 362/362/362 363/363/363
f 365/365/365 364/364/364 363/363/363
f 368/368/368 367/367/367 366/366/366
f 367/367/367 369/369/369 366/366/366
f 366/366/366 369/369/369 370/370/370
f 369/369/369 371/371/371 370/370/370
f 369/369/369 372/372/372 371/371/371
f 372/372/372 373/373/373 371/371/371
f 374/374/374 372/372/372 369/369/369
f 375/375/375 374/374/374 369/369/369
f 378/378/378 377/377/377 376/376/376
f 377/377/377 379/379/379 376/376/376
f 376/376/376 379/379/379 380/380/380
f 381/381/381 376/376/376 380/380/380
f 384/384/384 383/383/383 382/382/382
f 385/385/385 384/384/384 382/382/382
f 385/385/385 386/386/386 384/384/384
f 386/386/386 387/387/387 384/384/384
f 390/390/390 389/389/389 388/388/388
f 391/391/391 390/390/390 388/388/388
f 392/392/392 391/391/391 388/388/388
f 393/393/393 392/392/392 388/388/388
f 393/393/393 388/388/388 394/394/394
f 395/395/395 393/393/393 394/394/394
f 393/393/393 396/396/396 392/392/392
f 396/396/396 397/397/397 392/392/392
f 400/400/400 399/399/399 398/398/398
f 401/401/401 400/400/400 398/398/398
f 404/404/404 403/403/403 402/402/402
f 403/403/403 405/405/405 402/402/402
f 403/403/403 406/406/406 405/405/405
f 406/406/406 407/407/407 405/405/405
f 406/406/406 408/408/408 407/407/407
f 408/408/408 409/409/409 407/407/407
f 408/408/408 410/410/410 409/409/409
f 410/410/410 411/411/411 409/409/409
f 410/410/410 412/412/412 411/411/411
f 412/412/412 413/413/413 411/411/411
f 412/412/412 414/414/414 413/413/413
f 414/414/414 415/415/415 413/413/413
f 414/414/414 416/416/416 415/415/415
f 416/416/416 417/417/417 415/415/415
f 416/416/416 418/418/418 417/417/417
f 418/418/418 419/419/419 417/417/417
f 418/418/418 420/420/420 419/419/419
f 420/420/420 421/421/421 419/419/419
f 420/420/420 422/422/422 421/421/421
f 422/422/422 423/423/423 421/421/421
f 422/422/422 424/424/424 423/423/423
f 424/424/424 425/425/425 423/423/423
f 424/424/424 426/426/426 425/425/425
f 426/426/426 427/427/427 425/425/425
f 426/426/426 428/428/428 427/427/427
f 428/428/428 429/429/429 427/427/427
f 428/428/428 430/430/430 429/429/429
f 430/430/430 431/431/431 429/429/429
f 430/430/430 432/432/432 431/431/431
f 432/432/432 433/433/433 431/431/431
f 432/432/432 434/434/434 433/433/433
f 434/434/434 435/435/435 433/433/433
f 438/438/438 437/437/437 436/436/436
f 436/436/436 439/439/439 438/438/438
f 439/439/439 440/440/440 438/438/438
f 439/439/439 441/441/441 440/440/440
f 441/441/441 442/442/442 440/440/440
f 441/441/441 443/443/443 442/442/442
f 443/443/443 444/444/444 442/442/442
f 443/443/443 445/445/445 444/444/444
f 445/445/445 446/446/446 444/444/444
f 445/445/445 447/447/447 446/446/446
f 447/447/447 448/448/448 446/446/446
f 447/447/447 449/449/449 448/448/448
f 449/449/449 450/450/450 448/448/448
f 449/449/449 451/451/451 450/450/450
f 454/454/454 453/453/453 452/452/452
f 452/452/452 455/455/455 454/454/454
f 455/455/455 456/456/456 454/454/454
f 455/455/455 457/457/457 456/456/456
f 457/457/457 458/458/458 456/456/456
f 457/457/457 459/459/459 458/458/458
f 459/459/459 460/460/460 458/458/458
f 459/459/459 461/461/461 460/460/460
f 461/461/461 462/462/462 460/460/460
f 461/461/461 463/463/463 462/462/462
f 463/463/463 464/464/464 462/462/462
f 463/463/463 465/465/465 464/464/464
f 465/465/465 466/466/466 464/464/464
f 465/465/465 467/467/467 466/466/466
f 470/470/470 469/469/469 468/468/468
f 469/469/469 471/471/471 468/468/468
f 469/469/469 472/472/472 471/471/471
f 472/472/472 473/473/473 471/471/471
f 472/472/472 474/474/474 473/473/473
f 474/474/474 475/475/475 473/473/473
f 474/474/474 476/476/476 475/475/475
f 476/476/476 477/477/477 475/475/475
f 476/476/476 478/478/478 477/477/477
f 478/478/478 479/479/479 477/477/477
f 478/478/478 480/480/480 479/479/479
f 480/480/480 481/481/481 479/479/479
f 480/480/480 482/482/482 481/481/481
f 482/482/482 483/483/483 481/481/481
f 482/482/482 484/484/484 483/483/483
f 484/484/484 485/485/485 483/483/483
f 484/484/484 486/486/486 485/485/485
f 486/486/486 487/487/487 485/485/485
f 486/486/486 488/488/488 487/487/487
f 488/488/488 489/489/489 487/487/487
f 488/488/488 490/490/490 489/489/489
f 490/490/490 491/491/491 489/489/489
f 490/490/490 492/492/492 491/491/491
f 492/492/492 493/493/493 491/491/491
f 492/492/492 494/494/494 493/493/493
f 494/494/494 495/495/495 493/493/493
f 494/494/494 496/496/496 495/495/495
f 496/496/496 497/497/497 495/495/495
f 496/496/496 498/498/498 497/497/497
f 498/498/498 499/499/499 497/497/497
f 498/498/498 500/500/500 499/499/499
f 500/500/500 501/501/501 499/499/499
f 504/504/504 503/503/503 502/502/502
f 502/502/502 505/505/505 504/504/504
f 505/505/505 506/506/506 504/504/504
f 505/505/505 507/507/507 506/506/506
f 507/507/507 508/508/508 506/506/506
f 507/507/507 509/509/509 508/508/508
f 509/509/509 510/510/510 508/508/508
f 509/509/509 511/511/511 510/510/510
f 511/511/511 512/512/512 510/510/510
f 511/511/511 513/513/513 512/512/512
f 513/513/513 514/514/514 512/512/512
f 513/513/513 515/515/515 514/514/514
f 515/515/515 516/516/516 514/514/514
f 515/515/515 517/517/517 516/516/516
f 520/520/520 519/519/519 518/518/518
f 518/518/518 521/521/521 520/520/520
f 521/521/521 522/522/522 520/520/520
f 521/521/521 523/523/523 522/522/522
f 523/523/523 524/524/524 522/522/522
f 523/523/523 525/525/525 524/524/524
f 525/525/525 526/526/526 524/524/524
f 525/525/525 527/527/527 526/526/526
f 527/527/527 528/528/528 526/526/526
f 527/527/527 529/529/529 528/528/528
f 529/529/529 530/530/530 528/528/528
f 529/529/529 531/531/531 530/530/530
f 531/531/531 532/532/532 530/530/530
f 531/531/531 533/533/533 532/532/532
f 536/536/536 535/535/535 534/534/534
f 537/537/537 536/536/536 534/534/534
f 537/537/537 534/534/534 538/538/538
f 539/539/539 537/537/537 538/538/538
f 542/542/542 541/541/541 540/540/540
f 541/541/541 543/543/543 540/540/540
f 540/540/540 543/543/543 544/544/544
f 543/543/543 545/545/545 544/544/544
f 548/548/548 547/547/547 546/546/546
f 549/549/549 548/548/548 546/546/546
f 550/550/550 548/548/548 549/549/549
f 551/551/551 550/550/550 549/549/549
f 552/552/552 551/551/551 549/549/549
f 553/553/553 552/552/552 549/549/549
f 553/553/553 549/549/549 546/546/546
f 554/554/554 553/553/553 546/546/546
f 557/557/557 556/556/556 555/555/555
f 558/558/558 557/557/557 555/555/555
